<svg xmlns="http://www.w3.org/2000/svg" width="666.7" height="1170.7" viewBox="0 0 500 878"><path d="M229.8.7c.7.3 1.6.2 1.9-.1q.5-.5-1.3-.5-1.7 0-.6.6m175.2.7c0 2.6-2.5 3.7-5.6 2.5-3.7-1.4-43.1-2.2-43.9-.9s2.3 1.8 17.5 2.5c7.4.3 16.7 1.1 20.5 1.8 6.5 1.1 7 1.4 7 3.7q0 2.3-1 2.5c-3.9-.2-18.1-1.8-23-2.5a442 442 0 0 0-40-4c-8.2-.6-19.5-1.4-25-2-22.6-2.2-27.8-2.4-27.3-.9.6 1.9 8.2 3.1 34.3 5.5l26.5 2.5c38.2 4 53.4 5.9 54.3 6.8.5.5.7 1.9.5 3.1-.3 2.1-.7 2.2-18.8 2.6-10.2.2-23.4.9-29.5 1.4-6 .6-18 1.5-26.5 2.1-25.3 1.9-29.3 2.3-29.7 3.5-.6 1.7 4.5 2.1 12.9 1.2 4-.4 14.1-1 22.3-1.3s21.1-1 28.5-1.5 19.7-1 27.3-1h13.8l-.3 2.7q-.1 3-2.8 3.1c-2.7.3-16.6 4.2-24 6.8-2.5.9-8.5 2.7-13.5 4.1L344 50.2a258 258 0 0 1-25.8 6.8 89 89 0 0 0-11.1 2.9c-2 1.1-13.1 4.8-22.9 7.6a24 24 0 0 0-6.9 2.8q-2.3 3.8 11.2-.4c5.5-1.7 11.1-3.3 12.5-3.6a549 549 0 0 0 31-8.3c5.2-1.6 15.8-4.5 23.5-6.5 7.7-1.9 15.6-4.2 17.5-5 5.3-2.1 24.1-7.5 26-7.5s3 1.9 3 4.6c0 .7-1.2 1.6-2.7 2s-5.3 1.7-8.3 3L378 54l-15 6.7-13.5 6-7 3.3c-.5.4-10.5 5.6-22.2 11.4A295 295 0 0 0 298.5 93c-1.1 1.7 3.4 1.1 6.7-1 1.8-1.1 4-2 5-2s3.3-.9 5.5-1.9c18.4-9.2 52.7-25.7 56.8-27.3l8-3.3a557 557 0 0 1 23-9.5c.5 0 2.7 7.1 2.3 7.4-.1.2-7 3.8-15.3 8.1C371 73.6 366 76.8 366 79.2c0 1.6 2.4.7 11.7-4.6 5.3-3 14.3-7.8 20-10.7l10.5-5.2 2.4 2.9c3 3.8 3 5-.3 6.2-1.6.5-5.5 3.2-8.8 5.9s-8.1 6.4-10.7 8.2c-2.7 1.7-4.8 3.6-4.8 4.2q-.2.9-1.2.8c-5.9-.7-12.1 3.7-12 8.7 0 1.6-.5 3.4-1 4.1-1.4 1.8 0 5.3 2.7 6.5 1.7.8 2.5 2.2 3 5.5.3 2.4 1.5 7 2.5 10.1 1.6 4.9 1.7 5.8.4 6.5-1.7.9-1.9 3.8-.3 3.4 2.1-.4 2 2.2 0 3.3-2.3 1.2-2.4.9-2.2-4.5.1-1.7-.5-6.6-1.3-10.9-1.2-6-2.2-8.7-4.3-10.8a9 9 0 0 1-2.8-6.8c0-4.2-.8-4.9-3.4-2.6-.9.7-2.8 1.6-4.3 2-3.5.8-3.5 0-.2-9.9 2-6.1 2.4-8.3 1.6-10-1.6-3.5-4.6-3.9-10.5-1.6l-7 2.5c-.9.3-2 1.9-2.3 3.6-.4 1.8-2.3 4.4-4.8 6.5-4.5 4-5 4.4-7.6 7.3a15 15 0 0 1-6.2 3.2c-2.4.7-5.7 2-7.5 3-2.7 1.6-3.7 1.7-6.2.7a7 7 0 0 0-6.3.1c-2.3.8-3.5.9-4.5 0q-1.4-1-5.6-.4l-8 1.1c-2.1.2-4.3.8-5 1.3s-2.8 1.5-4.8 2.1-6.4 3.7-9.9 6.8l-6.2 5.6-6.3-.2c-7.9-.3-10.7 1.3-14.2 8.3a37 37 0 0 1-4.1 6.8c-1.1 1.4-1.2 2.1-.3 3.2 1.8 2.2-.3 6.4-3.6 7.2-3.9.9-5.1 2.1-5.9 5.7-.3 1.7-2.9 5.4-5.6 8.3-6.3 6.7-6.3 9.3.2 14.2 6 4.6 6.4 5.5 4.5 10.5-1.6 4.2-2.8 5.1-20.7 16.1-1.7 1.1-5 2-7.2 2.1-10.7.5-21.2 6.9-25 15.4-1.3 2.8-4 5.1-12.4 10.4L106 265.7c-1.3.6-8.3 5-23.5 14.8A953 953 0 0 1 53 299.2c-4.1 2.5-9.3 5.4-11.5 6.5l-3.9 2.1-3.6-2.4c-5.2-3.4-8-3.8-11.5-1.4q-11.8 7.9-12.3 10.6c-.2 1-1.2 2.8-2.2 3.9s-2.8 4.3-4 7.2c-2 4.8-2.1 5.4-.6 6.8 2.2 2.3 2 3.4-.9 4.5-2.8 1.1-3.4 4-.8 4a48 48 0 0 0 13.8-6.6c10.3-6.1 9.5-5.8 12.4-3.5 9.3 7.6 11.2 8.6 18.4 9.6l7.1 1 1.6 4.2c2.2 5.9 5.6 9.3 9.5 9.3 3.6 0 7.3-2.3 8.5-5.5.5-1.2 2.6-3.1 4.7-4.2l10.7-5.6c8.2-4.4 9.9-4.7 8.7-1.4-.5 1.3-.6 2.9-.2 3.6.5.7.6 3.6.4 6.6-.7 9.6 3.9 14.4 9.1 9.6 2.7-2.5 7.7-3.6 6.9-1.5q-.4 1.3.6 1.4c1 .1.8 1.1.5 2.9-.5 2.2 0 3.6 2.4 6.2 2.8 3.1 3 3.2 6.1 1.9q6-2.4 3 2.6c-2.4 3.9-.9 12.8 2.9 16.8 1.6 1.7 3.5 4.6 4.2 6.4 1.8 4.6 4.4 5.8 7 3.2l2-2v3.1q-.1 4.2 7 11.4c2.3 2.4 2.2 9.3-.3 14-.9 1.6-2.5 7.7-3.7 13.5s-2.8 12.7-3.5 15.5c-.7 2.7-1.6 7.3-1.9 10.1-.6 5-.6 5.2 3.6 9.3 2.4 2.2 5 4.1 6 4.1s2 .4 2.3 1 1.8 1 3.2 1 3.4.7 4.3 1.5 3.7 1.6 6.4 1.8c2.6.3 5.3 1 5.9 1.6a5 5 0 0 0 3.1 1.1c6.1.1 10.7 9.7 11.1 23 .3 7.9 1.1 11.1 4.1 17a109 109 0 0 1 10 27.2c.9 4.6 2.2 10.3 2.9 12.8a120 120 0 0 1 2.6 11.5c1.1 6.6 1 7.3-1 10.5a15 15 0 0 0-2.1 5.3c0 2.7 5.8 15.5 8.1 17.8 1 1 1.9 2.7 1.9 3.8 0 2.1-3 2.5-25.1 3.7-9.4.5-11.3.4-17-1.7a56 56 0 0 1-7.4-3c-.5-.4-4-1.9-7.7-3.4a24 24 0 0 1-11.1-7.8c-3.4-4-6.8-6.4-14.7-10.5-9.4-4.9-10.4-5.2-12-3.7-1 .9-1.5 2.5-1.3 3.9.7 3.6-4.1 11-9.4 14.5a22 22 0 0 1-5.9 3.1c-1.7 0-9.7 4.1-10.6 5.4-.7 1.1-14.6-2.7-18.6-5.1-1.2-.7-3.9-1.5-6-1.6-3.7-.2-3.7-.2-4 4.2-.5 6.3-8.6 17.3-15.4 20.7a83 83 0 0 0-13.3 10.3c-9.1 8.6-12 9.9-16.5 7.6a16 16 0 0 0-13 0c-3.2 1.7-4.2 4.2-1.2 3q6.3-2.6 13.7.1c7 2.3 8.4 1.7 20.6-9.6a98 98 0 0 1 13-10.5 41 41 0 0 0 9.8-9.9c4.8-6.3 5.9-8.4 5.6-10.8-.4-2.8-.2-2.9 2.3-2.3a65 65 0 0 0 20 7.2q2.2.6 7.5-3c2.9-1.9 6.7-3.8 8.4-4.1 7.2-1.6 15.3-10.3 15.5-16.7q.1-5.8 5.5-2.2c1.5 1.1 4.9 2.7 7.5 3.7 3.5 1.3 6 3.3 10.3 8.6 5.5 6.5 6.3 7 15.2 10.4a88 88 0 0 0 32.8 6.7c11.8.2 19.3-.8 21.7-2.8.9-.8 2.1-1.2 2.6-.9 1.8 1.1 3.3 11.4 3 21.1-.3 8.8-.5 10-2 9.7q-1.7-.3-2.3 2.5-2.7 13.3-16.9 13.3c-3.2 0-7.9.9-10.8 2a22 22 0 0 1-16.5.5c-4.1-1.7-6.2-1.9-8.3-.5-2.5 1.6.8 3.9 7.5 5.1 7.6 1.5 8.9 1.8 8.3 2.4-.2.3-5.4 1.8-11.5 3.4a96 96 0 0 0-13.4 4.2c-2.6 1.4-4.3 1.6-16.6 2-4.5.2-8.6 0-8.9-.4a23 23 0 0 1-2.3-5.5c-1.2-3.6-2.1-4.8-3.9-5-2.8-.4-6.6-3.9-5.1-4.7 1.2-.8.2-2.5-1.4-2.4q-1.4 0 0 .6 1.3.3.1 2.2c-1 1.6-1.4 1.7-3.7.5-1.4-.8-2.7-2.2-2.7-3.1l-.4-2.8c-.5-2.3.1-4.6 1.1-4q1 .5.7-2.2-.4-2.9 1.2-2.8c2.2 0 3.8-1.8 3.4-3.8q-.1-1.6.5-1.2.8.4 1.4-.9c1.1-2.8-8.1-3.8-10.3-1.1-1.4 1.6-.5 3.5 1.6 3.5 1.2 0 1.3.4.2 2.2-.7 1.3-1.1 2.6-1 3q0 .8-1.3.8t-.9-1.8c.9-2.6-6.5 5.7-8.6 9.8-1.3 2.5-3.4 4.3-7.4 6.3-5.5 2.8-6.6 4-4.6 5.2 1.9 1.2 1 3.6-1.7 4.6-4.8 1.8-8.3 2.2-8.3 1 0-.6-1.4-4-3.1-7.6a24 24 0 0 1-2.7-8.2c.3-1.8 4.9-4.6 11.2-7a87 87 0 0 0 17.1-7.7q3.9-2.2 4-4.2c0-1.7-.7-1.9-6-1.8q-6 .2-10.2 2.3c-4.3 2.1-7.3 2.7-7.3 1.3a38 38 0 0 1 10.5-9.6 71 71 0 0 1 18.3-2.7c4.7 0 7.6 1.6 6.5 3.5q-.5.9.3.3a3 3 0 0 0 .9-1.9q.1-1 1.8-1.4 1.6-.1 1.7 1.3-.2 1.9 1.5.3 1.3-1.1 1.6-.9l.5 2.8c.5 3 1.4 4.1 1.4 1.7q0-1.5 1-1.1.8.6.3 2.2-.5 1.5.4 1t1.6.5c.6 1.9-.4 4.9-1.4 4.2q-.7-.4-.3 1.1.8 1.5 2.1 1.1l1.9-.6q.4-.1-.2-1.3-.8-1.3.6 0c1.6 1.5 6-.4 6-2.6.1-1.4.2-1.4 1.4.1q1.2 1.6 2.3 1.8a7 7 0 0 1 2.7 1.3c1.4 1.1.7 1.2-5.1 1.2-3.7 0-7.2.2-7.8.6s-2.2.9-3.6 1.3c-2.3.5-2.7.2-3.1-1.9-.3-1.3 0-2.6.6-2.9q.9-.4-.8-.5t-1.2 1.4q.5 1.3-.3 1.5-1 .4-1.4 1.9c-.2 1.1-1.5 2.1-2.8 2.3q-2.5.1-2.4 2.8c0 2.2.4 2.5 3 2.2l6.7-.5c2-.1 3.4-.5 3.1-1q-.2-.6 2.1-.7a17 17 0 0 0 4.9-.9c2.8-1.1 10.4 1.1 9.9 2.8q-.1 1 .5 1c2.1-.3 3.3.4 7.5 4.6 4.8 4.7 6.8 5.4 8.7 3.1.8-1 .5-2-1.5-4.1a20 20 0 0 1-3.6-5.7q-1-2.7-2.9-2.8c-1.5 0-1.8-.5-1.3-2.4s-.3-3-4.7-6.5c-5.7-4.5-8.5-5.6-12.5-4.8q-2.8.6-3.1-1.4c-.7-2.5-11.8-8.5-16.9-9.2-4.3-.5-5.9-.3-20.8 3.1-7.9 1.8-9.4 2.6-13.3 6.4-6.2 6-9.7 12.1-8.4 14.6.8 1.5.2 2.5-3.4 5.6-4 3.3-4.4 4.1-3.8 6.9.3 1.8 1.3 4.3 2.1 5.7 1.8 2.8 4.7 8.6 5.5 11.2.4 1 1.9 2 3.4 2.3 7.9 1.7 9.6 4.2 8.6 12.5-.6 5-.5 5.1 3.8 8.8 2.5 2.2 5.1 3.6 6.3 3.4 1.9-.3 1.9-.1-.4 1.8l-2.5 2 2.3 1.9q4.8 4.3-1.3 10.4c-4 3.9-4.9 9.3-1.7 10.3l3.4 1.5c1 .5 2.7.9 3.9.9s2.9.5 3.9 1c1.1.6 4.5 1.2 7.6 1.5 6.8.6 7.1.8 8.9 5.1 1.7 4.1 3.7 5.1 7.2 3.5q5.4-2.2 1.3 2.4l-2.3 2.5 2.4 4.5a25 25 0 0 0 6.4 7.6c3.6 2.7 4.5 2.9 8.8 2.4 4.4-.7 4.7-.6 4.7 1.7q.3 6.3 6.2 5.4c1.8-.4 4.3-.7 5.6-.7q5.6.2 11.5.1c5.6-.1 7.3.7 8.7 4.1 1.8 4.4 3.7 5.9 7.1 5.9 4.6 0 7.9 4.2 7.6 9.4l-.3 4.1-13.5-.4c-11.1-.3-13.7-.6-15.4-2.1-2-1.8-4.5-2.4-16-3.9-6.7-.8-12.3-3-14.4-5.4-1.6-1.9-5.3-2.2-8.3-.6q-3.6 1.8-3.8-3.6c0-4.3-2.2-9.4-4.5-10.9-2.4-1.6-2.6-1.6-4.9.9a13 13 0 0 0-2.9 5.5c-.9 4.3-4.1 7-8.3 7s-20.1 5.4-22.6 7.7c-1.6 1.4-2.1 1.3-6.4-.7a25 25 0 0 0-11-2.4c-5.5-.1-6.5-.4-8.3-2.8a9 9 0 0 1-2.1-4.2c0-.9-2-2.5-4.7-3.8l-4.6-2.2-6.6 7.3c-6.3 7-6.9 7.3-13.2 8.6Q.6 798.1.2 801.8c-.4 2.6-.3 2.6 11.8-.8 3.6-1 8.1-2.1 10.1-2.5 5-.8 8.5-3.7 11.4-9.6 2-3.9 3-4.9 5-4.9s2.9.9 4.6 4.5c3.2 6.7 5.9 8.5 13.4 8.5 4.8 0 6.8.5 8.9 2.1q5.1 4.1-2.7 3.7c-3.6-.3-4.2 0-4.5 1.8a4 4 0 0 0 1.2 3.3c2 1.7 11.5-.2 15.1-3.1q2.6-2.1 5.5-1.5c1.6.4 5.4.2 8.6-.3 4.4-.7 6.2-.6 7.3.4 5.6 4.6 20.7 6.6 34.2 4.3 4.7-.7 9.5-1 10.6-.6 2.2.8 10.1 1.6 26.1 2.5 5.6.4 10.2 1.1 10.2 1.5 0 .5-28.3 1-63.2 1.1l-71.3.3-25.2.3C.9 813 0 813.1 0 814.9c0 2 2.7 2 219.3 1.5l250-.4H500v-8h-6.6q-6.5 0-5.9-1.1c.4-.6 2.1-1 3.9-.9 8.2.5 8.6.3 8.6-3.8 0-2-.4-3.2-.8-2.5-.9 1.4-8.7 1.2-8.7-.2 0-.6 2-1.2 4.5-1.5 3.7-.4 4.6-.9 4.8-2.8.3-2.1 0-2.2-5.2-2.2-8.1 0-7.3-1.6 1.9-3.6l2.3-.3q1.2-.1 1.2-5.6c0-5.2-.1-5.5-1.9-4.5q-1.9 1-5-.3l-3.1-1.3 5-1.3c4.1-1.1 5-1.7 5-3.5v-2.2l-9.7 1.2c-13.8 1.8-25.2 2.6-22.8 1.6a30 30 0 0 1 7.9-1.1c3.3-.1 6.2-.4 6.5-.6s3.5-.6 7.1-1c8.9-1 11-1.9 11-5 0-2.7-.6-3-4.2-1.6-3.5 1.3-14.6 2.3-15.2 1.3-.3-.5 1.6-.9 4.2-1.1a47 47 0 0 0 10-1.8c4.7-1.5 5.2-2 5.2-4.5 0-1.5-.5-2.8-1.1-2.8q-.8 0-.4 1c.6 1-1.8 1.4-9.2 1.3-2.4 0-4 .3-3.7.8.8 1.4-.6 1.1-2.1-.5-1.1-1.1-.5-1.5 4.3-2.5 12.3-2.7 11.7-2.3 12-6.3.3-3.2.1-3.6-1.7-3.1q-2 .5-2.1 1.2c0 .3-2.1.5-4.7.3-3.6-.2-4.4 0-3.3.7q1.3 1 .4 1.1c-.9.1-1.7-.7-2.4-1.5q-1.6-1.7.6-1.5c4-.1 11.1-6 7.3-6-.7 0 .5-1.5 2.5-3.4 3.4-3.3 5.1-8.6 2.6-8.6q-.9-.2-1-1.5c-.1-1.3.5-1.5 1-1.5s1-1.2 1-2.6c0-2.5-.1-2.6-2.2-1.2-2.2 1.5-3.4 5.8-1.7 5.8q.8.1.9.8-.2.8-1.4.9c-2.1 0-1.5-9.1.5-9.3l2.6-.3c1.5-.1 1.4-7.3-.1-8.3q-1.2-.8.2-.8 1.2 0 1.2-5.1c0-4.3-.5-5.5-3-8q-3-3.2-4.9-2.4c-1.1.3-2.3 0-2.7-.6q-.8-1.3 1-.6 2 1 1.1-1.4-.7-2.2.6-3c1.3-.8-1.2-.7-4.8-.6-3.5.2-6.3 0-6.3-.4s-.9-.9-2-1.2q-4.2-1 1-4c1.6-1 3-1.5 3-1.2 0 .9-3.3 4.1-3.6 3.5q-.2-.4-.9.1-.4.7 1.5 1.2t2-.4q.1-.7 1.6-.2c1.4.5 1.6.1 1.2-2.6-.4-2.6-.2-3 1.3-2.6.9.3 2 .1 2.4-.5s1.1-.8 1.6-.5.6-.7.3-2.3c-.3-1.7-.1-3.2.5-3.6q.9-.7.4-2.1t.7-1.5c1.2 0 1-2.7-.4-6.1q-.7-1.6.9-2.2c1.2-.5 1.4-.1.9 2.1l-.6 2.7 1.4-2.5a6 6 0 0 1 3.6-2.8l2.2-.3v-23.1c0-21.5-.1-23.2-2-25.5-3.3-4.3-4-9.2-4.3-31.4l-.3-21.3 3.3-3.7c3.3-3.6 4.4-7.9 2.1-7.9-.7 0-2.9 1.6-5 3.7l-3.7 3.6-2.1-2.4c-4.5-5.3-4.5-5.3 4-10.3l8-4.6-.1-4.3c-.1-2.3-.3-3.5-.6-2.5-.7 2.8-11.3 9-11.3 6.6 0-1.3 9.9-10.8 11.2-10.8.4 0 .8-1.5.8-3.4v-3.4l-7.2 3.5c-7.5 3.7-9.1 5-8.4 6.9.3.7-4.1 3.5-9.7 6.5l-10.2 5.2-3.7-1.7c-3.5-1.7-6-6.1-4.1-7.5.4-.3.8-1.3.8-2.1s.6-1.4 1.3-1.2q1.3.1.7-.8c-.3-.5.1-2 .9-3.2a8 8 0 0 0 1.6-3.8c0-1.9 8.1-10.3 13.8-14.2 2.4-1.7 7.1-4.1 10.5-5.5s6.7-2.9 7.4-3.5c.7-.5 2.2-.7 3.5-.3q2.7.8.8-.4t.3-1.1q1.5-.1 1.7-1.1-.1-2.9-16.9 5.3a59 59 0 0 0-28.5 26.7c-2.9 6.1-3.3 7.7-2.4 10.1 1 3 7.2 7 10.8 7q4.5-.2.5 5.6c-2.4 3.5-2.5 4.2-2.5 19.5q0 24.2-4.5 32.9c-2.6 5-12.3 11.1-19.8 12.4q-6.9 1.5-3.1-5.6c1-1.8 2-4.7 2.4-6.3.5-2.3 1.1-3 3.1-3.1 3.1 0 5.1-1.2 4.3-2.5-.3-.6.2-1.9 1.1-2.9 1.6-1.8 1.6-2-.2-4.4a49 49 0 0 0-5.1-5.1c-1.8-1.5-3.2-3.1-3.2-3.6 0-2.3-4.9-7.2-9.8-10.1a17 17 0 0 0-10.4-2.9c-4.2 0-6.1-.6-10.6-3.3q-7.8-5-8.4-1.2l-.3 2.1c-.2.5-.3 2.2-.4 3.8a4 4 0 0 1-2.5 3.9q-7.3 3.1 1.4 9.1c2.3 1.6 4 3.7 4 4.7 0 1.1.5 3.1 1.2 4.4.9 2.2.8 2.9-.7 4.6-1 1.1-2.7 2-3.7 2-4.5 0-7.9 4-5.7 6.6.8 1 .6 2-1 4a18 18 0 0 0-2.7 6.1q-1 5.8-10.9 8.4c-4.5 1.3-8.3-.2-12.9-5l-2.5-2.6 3.5-4.5c2-2.5 4.6-5 5.8-5.7 2.8-1.5 5.6-5.5 5.6-8.1 0-3.6-2.1-7.9-4.3-8.9a53 53 0 0 1-14.9-13.3c-1.2-1.9-3-4.4-4-5.5-12.8-13.9-18.8-22.2-18.8-26.3 0-5.7-5.8-10.3-12.1-9.5-3.5.5-3.8.3-6.8-4.9a53 53 0 0 0-26-24.4c-2.5-1-5.2-2.2-5.8-2.7a70 70 0 0 1-6.1-17.2 91 91 0 0 1 13.9-5.8c3.6-1.1 4.4-1.7 4.4-3.7q.1-2.6-2.5-3.2l-12.4-3.9c-8-2.5-10-2.8-10.7-1.7q-1 1.6-.9-.5c0-1.1-3.4-4-9.2-7.8-5.1-3.3-10.1-6.8-11-7.6-1.5-1.4-1.8-1.4-2.3-.1-.3.8-.5 1.9-.3 2.4.6 1.9-1.8 1.4-3.1-.5-1.2-1.8-1.1-2.1.3-2.1 2.5 0 1.9-1.2-2.5-5.4-3.7-3.5-4.3-3.7-5.2-2.1-.8 1.4-1.1 1.5-1.8.4-.5-.8-.9-2.3-.9-3.5 0-2.1-4.8-7.4-6.7-7.4q-1-.1-1.6-1.4a202 202 0 0 1-16.2-34.6 135 135 0 0 0-3.9-10.2 96 96 0 0 1-4.2-20.6 51 51 0 0 1 4.1 13.3q2 10.9 5.4 10c1.7-.5 2 .1 2.6 6.2.8 9.2 4.8 20.1 10 27.1a53 53 0 0 0 18.8 17.5c.9.3 1.7 1.3 1.7 2.1 0 2.7 18.8 17 26.3 20a34 34 0 0 0 8.2 2 66 66 0 0 1 17 4.9c1.1.6 5 1.2 8.7 1.3 5.5.2 7.5-.2 11.3-2.2a23 23 0 0 1 6-2.4c1.8 0 9.5-9 9.5-11.2q0-1.7 1.5-1.2t1.5-1.1c0-1.7-.5-1.5-1.5-1.1q-1.5.4-2.5-1.4-1.2-2.1.2-2 1-.1-1-2.2c-1.6-1.6-3.2-2.2-6.1-2.1-3.5.2-4.4-.3-6.9-3.5-1.6-2-2.7-4.3-2.4-5 .5-1.5-4.5-7.2-6.4-7.2q-1.2 0-1.6 1.2t-6.5-1.9a59 59 0 0 0-12.2-4.6c-3.5-.8-6.8-2-7.4-2.7-1.9-2 2.6-.8 15.7 4.2 2.7 1 5.2 1.6 5.5 1.2.3-.3-2.7-3.5-6.6-7.2-4.1-3.8-9.3-10-12-14.3a113 113 0 0 0-27.7-33.3c-4.3-3.6-4.6-4.2-4.6-8.7 0-2.7-.5-5.7-1.1-6.7-.9-1.4-.8-2.5.5-5 1.7-3.3 2.1-8.7.7-9.6-1.1-.7-3.7 2.2-4.5 5.1q-.7 2.1-1.6 2.3c-1.2 0-3-3.4-3-5.8 0-1.8-2.8-5.2-4.4-5.2q-.6.2.5 2.2 1.8 3.1-.7.6c-1.6-1.6-2.7-6.8-1.4-6.8.3 0 2.5 1 5 2.2 10.4 5 9.5 5.2 12.9-3.3 1.2-3.1 3.6-6.9 5.3-8.5 3.8-3.6 21.7-24.9 23.9-28.5 1-1.4 2.7-2.9 3.9-3.2 1.8-.4 2.4.1 3.6 2.8a20 20 0 0 1 1.4 6.4c0 1.7.5 4.2 1.2 5.6.9 2.1.8 3.2-.5 6-1.6 3.4-1.6 3.6.6 6.9a44 44 0 0 0 5.9 6.5 15 15 0 0 1 4.3 5.8c1.6 6.4 9.8 21 14.3 25.4a117 117 0 0 1 15.4 19.2c.7 1.4 4.5 6.1 8.4 10.4 6.2 6.8 8.5 8.5 17.5 13a71 71 0 0 0 27.4 8.3l9.1 1.6q3.2.5 5.9-.8c2.2-1.2 3.6-1.2 8.8-.1 19 4.1 21.3 4.2 22.2 1.3.6-1.8.8-1.9 2.8-.5 2.6 1.8 4.7.4 4.7-3.2 0-2.7-.5-2.7 7.5-.7 4.7 1.2 18.5-7.8 18.5-12 0-1.9-7.3-7.6-9.7-7.6-1 0-3.6.9-5.7 2q-5.8 3-5.6-.5c0-1.7-3.5-3.7-7-4l-4.1-.3c-1.8-.2-2.8-2.5-3.8-8.1-.8-4.6-2.9-5.8-7.8-4.3-2.1.6-5.6 1.3-7.9 1.5-3.9.4-4 .4-3.6-2.2.3-2-.4-3.3-2.7-5.4-3.8-3.3-3.9-5.6-.6-8.7q4.9-4.4-.2-7.7c-1.6-1-3.6-2.8-4.6-4s-2.7-2.3-3.8-2.3q-4.4-.1-1-6.4c2.5-4.3 2.7-11.2.6-14.3-1.7-2.5-3-12.3-1.7-14 .6-1 2-.8 6.2.7 3 1.1 6.3 2 7.2 2 2.3 0 5.1-4.3 5.4-8.3.4-5.3 1.6-8.9 4.5-14.2 3.2-5.8 6.1-6.9 14.6-5.4l10.8 1.8a41 41 0 0 1 6.3 1.5 35 35 0 0 0 13.9-3.6c2.4-2 6.4-11.1 5.3-12.2q-.8-1 1.5-3.8c3.8-4.4 1.6-7.1-4-4.9q-2 .9-4.7-1a10 10 0 0 0-3.3-1.9 11 11 0 0 1-3.2-2c-4.2-3.2-5-2.3-1.3 1.5s2.1 5-2.1 1.6c-2.2-1.8-2.3-2.2-1.2-5.2.7-1.7 1-3.6.7-4.1-.7-1.1 3.5-5.8 5.2-5.8.6 0 1.7-.7 2.4-1.5 1.8-2.2 2.4-1.9 3.7 1.6.9 2.4 1.7 3 3.5 2.7 2-.3 2.3-.8 2.3-5.2q0-4.8 1.3-5.4c2-.6 4.5-6.3 3.4-7.4-1.4-1.4-5.8-.2-8.1 2.1q-1.9 1.8-3.2 1c-2.1-1.3-4.1 1.1-3.4 4.1.5 2.1.1 2.9-2 4-1.4.7-2.7 1.1-3 .8-.8-.8 1.3-5.8 2.5-5.8q.9-.2 1-2.1t3.4-3.4c4.1-1.7 9.6-8.4 9.6-11.7 0-1.4-1.1-3.5-2.5-4.8q-2.3-2-2.5-1.2c0 .7-1 1.2-2.1 1.2q-2.3.1-1.6-2 .8-3.2-4.7-1.1-2.4.7-.5 1.6 1.7 1-1.1 1.6c-2.4.6-2.4.7 1.3 2.3 2.8 1.2 3.7 2.2 3.7 4 0 4.9-6.5 9.8-8.6 6.4-.4-.6-.8-4.2-1-7.9-.3-6-.1-6.9 1.7-7.4 2.8-.9 1.3-2.5-2.5-2.5-5.2 0-9.6 2.7-9.6 5.8 0 4.9 1.9 9.8 5 12.7q2.9 2.8 2.5 4.6c-.3.9.1 2.2.9 2.8q1.5 1.2.7 3.4a6 6 0 0 0-.4 3.4c.5 1.5-1.4 2.6-2.2 1.3-.3-.5-2-1-3.7-1-2.8 0-3-.2-2.4-2.8 1.6-6.2 1.7-8 .8-8.6-1.6-1-6.2 1.2-6.2 3q.2 1.8-2.5 1-2.4-.7-6.4 2.1-9 6.2 2.5 6.3c3.1 0 3.4.3 3.4 2.8 0 1.6.7 3.7 1.5 4.8 1.5 1.9 1.5 1.9 3.5-.5 1.1-1.3 2-2.9 2-3.7q.1-1.3 1.5-1.4c1.6 0 5.5 3.4 5.5 4.9 0 1.9-3.5 3.6-7.5 3.7-3.1.1-5.5 1.1-9 3.5-7.8 5.7-11.9 7.9-14.5 7.9a41 41 0 0 0-9.5 3c-3.8 1.7-9.7 3.7-13.1 4.6-5.9 1.4-6.2 1.4-9.8-.7-4.6-2.7-12.5-2.9-16.2-.4-3.8 2.4-10.2 1.4-18.1-3.1-5.9-3.3-6.6-3.4-8.2-2s-1.8 1.3-2.9-.4q-1.2-1.7-3.1-1.5-2 .5-3.5-2.6l-1.4-2.9 3.9.6c3.1.5 3.9.3 3.9-.8q0-3-5.9-4.3-3.5-.7-9.7-6.9a68 68 0 0 0-16-12.9c-1.7-.9-5.3-3.3-8-5.5-6.3-5-15.4-9.7-22.7-11.7-7.3-2.1-11.7-5.7-11.7-9.5s1.8-4.8 2.9-1.7c1.1 2.9 4.7 5.4 9.3 6.2 4 .8 11.8-2 11.8-4.1q.1-1.4 2.8-1.4c2.7 0 5.2-1.5 5.2-3.3 0-.4-2-1.7-4.5-2.8s-4.3-2.5-3.9-3q.6-.9 2.3-.3c.9.3 2.3.7 3.1.8s2.7 1 4.2 2c3.3 2.1 5 1.3 4.2-1.9-.5-1.9-.1-2.4 1.8-2.7 1.2-.2 2.3-1 2.3-1.8s.4-2.1.8-2.8c1.4-2.1-.4-3.4-3.8-2.9-2.9.5-3.4.2-4-2-.7-2.9 1.7-7.3 4.1-7.3q1.8.1.9-2.3c-.4-1.2-1.1-5.1-1.6-8.7s-1.1-7-1.3-7.6a3 3 0 0 1 .2-2.1c.8-1.2 28.2-18.7 35.2-22.4 7.4-4 10.1-6.1 9.6-7.5-.7-1.7 1.3-2.9 2.6-1.6q1 1-.1 1.6-1 .8-1.1 2.8c0 1.1-.9 3.3-2.1 5-2.5 3.4-1.8 4.9 1.1 2.3 2.6-2.4 2.6-.5-.1 2.9q-2.1 2.8-4.7 2.4c-2.3-.3-3 .4-4.9 4.2a17 17 0 0 0-2.2 7v2.5l1.1-2.3q2-3.8 3.1-.8 1.3 3.2-3.5 10.5c-4.2 6.8-3.5 9.4 1.3 4.8 1.3-1.3 4.2-4.6 6.4-7.3s4.5-4.9 5.2-4.7c1.6.6 1-2.7-.8-3.8q-1.4-.9-.2-.9c.7 0 1.7-1 2.4-2.1q1-2 .1-1.5c-1.1.7-3.5-1.8-2.5-2.7.3-.4 1.7-.4 3-.1 2 .5 2.4.3 2.2-1.2-.4-3 1.2-9.2 2.6-10.4q1.6-1.5 1.3 1.7-.1 7.3 3.2 6.6 2.3-.7 1.4 1.2-.7 1.8-3 1.1-2.2-.5-2.4.4 0 .8.8.9 3.8-.5 2.3 1.4-1 1.3-.5 2 .3.6-1.5 1.7-2 1-2.1 2.3c-.1 1.6-3.5 5.7-4.9 5.7-.5 0-1.7 1-2.5 2.2q-1.5 2-1.6 1t-1.1-1.2q-1.2 0 .1 1.5c1 1.2 1 1.8.1 2.9q-1.4 1.5-.2 3.5c1 1.7.7 2.3-1.3 3.6-3.6 2.4-3.7 3.7-.6 10.1 5.1 10.7 13 14.5 21.4 10.1a92 92 0 0 1 24.1-3.1c10.4-.3 15.9-2.3 22.3-8 6.5-5.9 7.2-8.4 6.8-23.2-.4-13.8-1.6-20.3-4.2-22.5-.9-.8-2.7-3-4-5q-2.3-3.6-5.3-4.4a9 9 0 0 1-4.2-2.1c-.6-.8-2.6-2.1-4.3-2.9-1.7-.9-4.2-2.5-5.6-3.6l-2.5-2 4.4.7c2.4.3 5.9 1.3 7.7 2 3.8 1.6 7 1.8 7.9.5.3-.5-.4-2.5-1.5-4.4q-3.5-5.6-11.1-5.7c-1.6 0-2.9-.5-2.9-1q0-1 1-1c.5 0 1.7-1.1 2.5-2.4 1.4-2.1 1.4-3.1.4-6.8-.7-2.4-2.2-5.7-3.5-7.4l-2.2-3 3-1.3c1.7-.8 6.5-3.9 10.7-7.1 10-7.4 14.4-10 15.6-9.2.6.4 2.1 1.9 3.4 3.4l2.3 2.7-7.6 8.8-12.7 14.5c-5 5.8-5.7 7.2-3.8 8.3q1.9 1.5 9.5-8.7c2.3-3.2 7.3-9.2 11.1-13.4l6.9-7.5 2.4 1.9 2.4 2-4.8 11.3c-2.7 6.3-7.3 16.4-10.2 22.5-5.7 11.9-6.2 13.5-4.1 15.3q2.6 2 2.7-2.6c0-1.3 2.2-6.5 4.9-11.6s6.4-12.8 8.2-17.2 4.3-9.7 5.7-11.7c2.4-3.7 2.5-3.7 5.3-2.2 3.4 1.7 3.6-.1-2.3 20.9a624 624 0 0 0-6.9 28.5c-1.6 8-4.3 18.5-5.9 23.5-5.5 17-7.2 27.1-4 23.9.9-.9 4-9 6.2-16.4l3.4-11.5c1.3-4.4 2.4-9.6 2.4-11.5a91 91 0 0 1 3.1-14 992 992 0 0 0 10.6-37.8c.6-2.5 3.4-2.9 5.3-.7 1.4 1.6 1 8-2 34.5a465 465 0 0 0-4.3 44.5c-.2 5.6.1 7 1.3 7s1.6-1.4 1.8-5.5c.1-3 .7-6.4 1.2-7.5.9-2.1 1.2-4.2 3-22.5.6-6.3 1.7-16.4 2.5-22.3s1.5-14.3 1.5-18.7.4-8.2 1-8.5 2.6-.3 4.6.1l3.6.7-.8 10.6c-.5 5.8-.8 20.5-.7 32.6a536 536 0 0 1-.5 33.5c-.9 11.9-.2 16.1 2.2 14.1 1.7-1.4 3.2-21.8 2.8-37.6-.4-15.3 1.7-51.6 3-53.3 1.5-1.7 4.5-1.5 5.2.4.3.9.6 6.6.6 12.7 0 16.2 1.8 39.7 3.6 47.3q1.5 6.7 1.3 19.3c-.1 10.6.1 12.6 1.4 12.9.8.2 1.8-.5 2.1-1.5.6-1.9-.8-32.4-2.3-48.8-.8-7.9-1.5-37.5-1.2-44.3.1-1.8 4.8-1.5 5.5.4.3.9.6 7.9.6 15.7s.8 20 1.7 27.2 1.7 17.8 1.8 23.6c.2 11.1.8 13.7 2.8 12 1.6-1.3 2-17.8.8-28.3-1-7.9-1.7-21.3-2.6-43.6l-.3-10.2 4.4-3.1c3.2-2.1 4.4-3.7 4.4-5.4V76l-4.2 2.1-6.2 3.1a61 61 0 0 1-34.1 4.9 80 80 0 0 1-15.5-5.7 59 59 0 0 1-34-53.7c0-5.9 3-18.8 5.5-23.6l1.6-3.1H409q-4 0-4 1.4m-17 94.2q0 1.3-1 1.4c-1.2 0-3.1-3.5-2.3-4.4.9-.8 3.3 1.4 3.3 3m-31-1.7c0 1.2-2.9 3.5-3.6 2.8-1.1-1 .5-3.7 2.1-3.7q1.4 0 1.5.9m22.1 2.3v3.8q0 1.6.5.2c.5-1 .9-1 2-.1q2.7 2.4 0 4.8c-1.1.9-1.8.6-3.5-1.5a9 9 0 0 1-2.1-4.5c0-4.4 2.9-6.9 3.1-2.7M346 98.4q-.1.4-1.5 1.6-1.8 1.7-.9-.4c.5-1.4 2.4-2.3 2.4-1.2m8 2.5c0 3.1-2.4 4.3-4.2 2.1-1.5-1.7-1.5-2 .5-3.3q3.8-2.5 3.7 1.2m-13.4 3.9q-2.5 2.6-.6-.6 1-2.1 1.8-1.8.4.8-1.2 2.4m24.9 1.9c.7 2.7-.2 3.9-4.7 6.4-1.5.8-1.8.5-1.8-1.9 0-1.5-.5-3.3-1.2-4q-1.4-1.3.9-1.2c1.2 0 2.5-.5 2.8-1 1.2-1.9 3.3-1 4 1.7m-19.5-.2q-.1 1.4-1.6 1.5-2 .2-.4-1.5 1.2-1.3 1.6-1.5.4.2.4 1.5m7.6 5.1q-1 3-1.4 2c-.3-1.3 1.4-5.6 2.2-5.6.2 0-.2 1.6-.8 3.6m34.9 0c2 1.5 2 1.6-.4 1.2q-2.3-.4-2.9-1.6c-.5-1.6.9-1.5 3.3.4M372 118c0 3.5-2.9 9.2-4.4 8.8l-5.8-1.7c-4.2-1.2-4.6-1.6-4.3-3.9l.4-3.5q.3-.6 1.4-.8c.6 0 3.2-1 5.7-2.3 4-2 4.6-2.1 5.8-.7.6.8 1.2 2.7 1.2 4.1m-36.5-4q-.7.9-1.6 1-.9-.1-.4-1a2 2 0 0 1 1.6-1q.9 0 .4 1m10.6 2.2q-.5 3.1-.9 1.5c-.3-1.7.3-4.7 1.1-4.7.2 0 .1 1.5-.2 3.2m7.9.2q0 .6-1 1.1-.9.4-1-.4.1-1 1-1.1 1 0 1 .4m-12.1 5.4q0 1.1-.9.7c-.5-.3-1-1.8-.9-3.3q-.1-3.5.9-.7c.5 1.1.9 2.6.9 3.3m7.8-.2q-.7.5-1.9.1t.6-.6q1.8 0 1.3.5m38.3 2.3c0 2.8-2.1 5.7-3.3 4.5q-.4-.8.5-2.8c.6-1.1 1.1-2.2 1-2.4-.6-.8 0-2.2.8-2.2.6 0 1 1.3 1 2.9m-17.4 10q-2.7 2.8-2.6 1c0-.9.9-2.4 2.1-3.5q1.9-1.8 1.5-3.7c-.2-1-.2-2.6.2-3.5q.7-1.5 1 2.7c.3 3.7-.1 4.9-2.2 7m-48.5-7.1q-5 3.8-23.6 14.3c-4.8 2.7-5 2.7-7 1a37 37 0 0 0-11.7-6.4c-1.6-.4-3.3-2-4.2-3.9q-3-6.3 3.5-4.1c1.7.7 4 .9 5.2.4s4.9-.6 8.2-.4c17.1 1 19.9.8 25.5-1.4 7.3-3 8.2-2.9 4.1.5m30.9 2.1c0 1.1-.4 2.3-1 2.6s-1-.5-1-1.9.5-2.6 1-2.6 1 .9 1 1.9m10 .1c2.6 1.6.3 2.1-3.1.6-3.1-1.3-3.2-1.4-.9-1.5 1.4 0 3.2.3 4 .9m32 2.1q1.8 2.7-.9.9c-2.2-1.1-2.9-3-1.1-3q1 .2 2 2.1m6.8 3.1c.6 4.8-3.8 3.3-4.5-1.5q-.5-2 1.9-1.5 2.4.2 2.6 3M251 132.9c0 1.2-3.9 2.1-4.5 1.1q-.3-.9 1.2-1.3c2.9-.8 3.3-.7 3.3.2m111 3.1q0 .9-1 1a1 1 0 0 1-1-1q.1-1 1-1t1 1m15.8 3.2q.7-1.1 3.2.8c2.5 1.9 2.5 1.9.5 3.4-1.9 1.4-1.9 1.5-.2 2.8s1.7 1.5.3 2.7c-1.3 1.1-1.7 1.1-2.2-.4q-.6-1.8-3.1-1-2.4.6-2.9-1a3 3 0 0 0-2.5-1.5q-4.4 0 1.9-6l3.7-3.6.3 2.5q.4 2.2 1 1.3m12.4-1.7c.6 2.8-.6 3.4-1.6.9-.5-1.4 0-3.4.8-3.4q.4.2.8 2.5m-132.7 3.1c2.3 2.2 3.4 4.2 3.1 5.1-.4.9.4 2.6 1.8 3.9 1.3 1.4 3 3.9 3.7 5.6 1.1 2.6 1 3.5-.4 6-1.9 3.3-1.2 6.1 2.7 10.5 4.6 5 7.6 10.3 7.6 13.3 0 1.7.7 3.3 1.8 3.9 1.5.9 1.5 1-.5 1.1-1.2 0-2.5.4-2.8 1-.9 1.5 2.7 5.9 5.3 6.6q2.4.7 1.3 1.7c-1.1 1-1.5.6-2.5-.2-1.7-1.4-4-.6-3 1q.4 1-1.2 2.3-1.6 1.4-1.1 3t-1 1.6c-1.2 0-1.4-.7-.9-3.2.5-2.7.1-3.6-3.4-6.9-3.4-3.2-4-4.5-4-7.8 0-2.2.5-4.3 1-4.6s1-1.8 1.1-3.3q-.1-3.8.9-.5c1 2.4 2.5 3 3.4 1.4q.4-.9-.9-2.1-1.2-1.2-1-2.1c.3-.4.1-1.6-.4-2.6s-1.2-2.6-1.5-3.6c-.8-2.6-3-1.6-3.4 1.6-.2 1.5-1.1 3.1-2.1 3.7-2.3 1.2-3.3 5.8-1.9 8.4q1.1 2-.2 1.1c-1.8-1.1-3 1.5-1.9 4.3.5 1.4.7 3.3.4 4.3q-.7 2 1.1 1.9 1.8 0 .7 1.2a35 35 0 0 0-3.8 13.8c.3.5 1.3 1 2.2 1 1.9 0 6.3 3.8 6.3 5.4 0 .6-1.3 1.8-2.8 2.7-7.6 4.3-17.1 8.8-21.1 9.9q-4.8 1.2-3 2c2.4 1.4 9.8-.8 16.8-4.8l8.4-4.9c1.1-.6 3-2.4 4.3-4 1.9-2.2 2.5-2.5 3.3-1.4.5.8.7 1.9.5 2.5-.6 1.4-20.2 13.6-21.9 13.6-.7 0-2.9.7-4.8 1.5-2.8 1.2-4.7 1.3-8.8.5l-5.5-1c-.2 0-1.5 2-3 4.5-1.4 2.5-3.5 5-4.6 5.6q-2.1 1-.9 2.3c1.4 1.7 6.1.8 6.8-1.3 1.2-4 3.4-8.1 4.3-8.1q1 .1.4 2.5c-.8 3.3 1.7 3.4 3.9.2 2-3 2.5-2.2 2.8 4.3.3 5.5.3 5.5-3.6 7.7-2.9 1.7-4.8 2.1-7 1.6l-5-.8a72 72 0 0 1-18.7-5c-1.2-1.7-.9-4.5.5-4.5.8 0 1.8-1.6 2.4-3.5 1.3-4.1.1-4.6-2.3-1-1.8 2.7-3.4 2.5-3.4-.5q.1-1.8 2.9-2.8c1.7-.6 4.2-2.9 5.7-5.1 1.5-2.3 2.9-3.9 3.2-3.6s-.5 1.9-1.7 3.6q-2.4 3.1-1.3 4.1c1.5 1.5 2.9.2 5.3-4.3 2.4-4.9 1.8-5.9-4.6-7.8-4.3-1.3-4.7-1.2-6.9.8-2.9 2.7-3.6 2.7-3.6-.3 0-3.3 2.5-5.3 4.5-3.6 1.3 1.1 1.5.8 1.5-1.9 0-1.8.4-3 .9-2.7q1 .4 2.2-1a80 80 0 0 1 13.3-9.4c.4 0 .6 1.3.6 2.9 0 2.9 2.1 5.7 3.3 4.4 1.1-1 .8-11.7-.4-15.2-1-2.8-.8-3.6 1.5-7.1 1.4-2.2 2.6-4.6 2.6-5.3q0-1.3.6-2c.7-.6 8 2.9 10.7 5.1q1.7 1.5 2.7.6c1.6-1.6-4.3-6.4-9.1-7.5-2.4-.6-5.7-2.3-7.4-3.8a23 23 0 0 0-6-4.2q-5.7-2.7-1-6.2c2.3-1.6 2.7-1.6 5.4-.2 3.1 1.5 6.1 1.1 6.1-.9 0-.6-.7-2.4-1.5-4-1.8-3.5-1.8-3.6-.1-3.6 2.3 0 3.1-2.2 1.3-3.5q-1.6-1.2-1.7-1.8c0-.3 2.9-1.9 6.4-3.5 5.8-2.7 6.5-3.4 6.8-6.2.2-2.7.9-3.5 3.8-4.5 5.2-1.9 5.6-1.8 9.5 2.1m13.9.9q.4 1.4-.3 1.5-.8-.1-1.5-1.5-.4-1.4.3-1.5.8.1 1.5 1.5m95.3 1.7c-.2.7.3 1.8 1.2 2.5q1.5 1.2.4 1.3c-.6 0-1.5-.5-1.8-1-1-1.5-3.5-1.2-3.5.5q-.1 1.4-.8 1.5c-.6 0-.9-4.7-.3-5.8 0-.1 1.3-.2 2.7-.2q2.5 0 2.1 1.2m25.5 1.5.1 3q0 1.2.9 1.3t.4 1.5q-.4 1.4.4 1.5c1.7 0 1.1 2.1-1.4 5.1-2.2 2.5-2.3 3.3-1.4 6 1.3 3.8.5 4.7-1.5 1.6-1.1-1.8-1.3-3.3-.7-6 .5-2.6.4-4.2-.7-5.6-1.2-1.9-1.2-2.1.2-2.1q1.5 0 1.4-2.3-.5-5.6 1.1-5.7 1 .2 1.2 1.7m13.8-1.3q0 .6-1 1.1-.9.4-1-.4.1-1 1-1.1 1 0 1 .4m-5.7 2.9q.4 1.4-.4 2.8-.9 1.6-.9-1.4 0-4.4 1.3-1.4m4.7 1.9q.1-1.1 1.6-1.2 1.4.1 1.2 1.2c-.8 2.2-5.2 1.6-5.6-.7-.3-2-.3-2 1.3-.1q1.4 1.7 1.5.8m-32.2-.1q-.4 1-1.3 1-1.2 0-1.3-1t1.3-1.1c1.5-.1 1.5.5 1.3 1.1M272 150.6q2.3 5.5-1 1.1c-2.2-2.8-2.5-3.7-1-3.7.6 0 1.5 1.2 2 2.6m104 1.6q0 .8-1 .8-.9-.2-1-2.3-.1-2.6 1-.7c.5.8 1 1.8 1 2.2m33 .6c0 .5-1.6 1.6-3.5 2.5-4.2 2-4.7.9-.7-1.5q4.4-2.8 4.2-1m-130 3.5q0 .7-1 .2c-.5-.3-1-1.4-1-2.3q-.1-2.2 1-.2c.5.8 1 1.9 1 2.3m107 .2c.5 4.8 0 6.5-2 6.5q-1.8 0-1.7-1.2 0-1.2-1-1.4l-2.3-.3q-.9-.2-1-1.7t1.8-1c1.9.6 4.4-.6 4.1-2v-1.9c.2-1.6 1.9.8 2.1 3m-22-.3c0 1.3-2.3.5-2.8-1q-.3-1.1 1.2-.6c.9.3 1.6 1.1 1.6 1.6m3.6.5c-1 1-1.9-.5-1-1.8q.8-1.7 1.2 0 .3 1.2-.2 1.8m-81.3 7.6c-1 1.6-3.3-2.4-3.3-5.7l.1-3.1 1.9 3.9c1.1 2.1 1.7 4.3 1.3 4.9m108.7-6.9q0 .6-1 1.1-.9.4-1-.4.1-1 1-1.1 1 0 1 .4m-19.5 1.6c-.3.5-1.1 1-1.6 1q-.9-.1-.4-1a2 2 0 0 1 1.6-1q.9 0 .4 1m-22.5 4.6q.1 2.3 1.4 2.4 1.3-.2 1.2-1.7c-.1-2.2 4.9-4.2 6.6-2.5.9.9.3 1.5-2.5 2.7-1.9.8-3.9 1.9-4.2 2.5q-.7 1-1.6.4-.9-.4-.7.3c.6 2.4-1.6 9.4-3.3 10.3q-1.7 1.1-1.9 2.5c0 2 9.4 6.5 11.2 5.4.7-.4 2.2-.6 3.3-.3s3.8-.5 6-1.6 5.7-2.3 7.7-2.6c2.8-.5 3.9-1.3 4.8-3.5.7-1.6 1-3.5.7-4.3s.1-2.2.8-3.3c1.3-1.7 1.4-1.7 1.5-.1q0 1.8 2.3 1.8c1.8 0 2.2.5 2.2 3.2s-.4 3.4-2.3 3.6q-2 .4-1.7 1.2.6.8 2 .3c2.4-.9 1.7.3-1.2 2.3-2.4 1.6-7.4 2.7-20.6 4.9a20 20 0 0 0-4.7 1.5c-3.2 1.7-7.5 1.2-9.8-1.3-1.2-1.3-1.9-2.7-1.5-3.2q.7-.7-.4-.1c-1.5.8-5.2-6.9-4.6-9.5q.6-1.7 1.3-1.4c2.2 1.4 1.1-5.9-1.2-7.5q-.6-.6.2-2c.8-1.3 1.2-1.1 2.5.7 1.6 2.3 5.5 3.2 5.5 1.3q-.2-1-1.9-1c-1 0-2.2-.7-2.5-1.6q-.9-1.8 1.4-1.1 2 .5 2-1 .1-1.2 1-.8c.6.3 1 1.7 1 3.1m51-2.6c0 1.3-2.8 2.5-3.8 1.6q-.4-.7.8-1.6 3-1.9 3 0m-121.3 9.3q.6 3.6-.6 3.7-1-.2-1.1-2.3c0-1.2-.3-3.3-.6-4.7q-.8-2.7.5-1.4a12 12 0 0 1 1.8 4.7m10.3-2.2q0 1.8-1 1.4c-.5-.3-1-1.3-1-2.1s.5-1.4 1-1.4q1 .2 1 2.1m-16.6 2.1c.9 1.2 1.6 3 1.6 3.9 0 1 1.5 2.9 3.3 4.3 5.2 4.2 6.7 5.9 6.7 7.4q0 1.4-3.6-1.5c-7.2-5.7-10.4-9.1-10.4-11.1 0-1.2-.4-2.4-1-2.7-1.5-.9-1.2-2.5.4-2.5.8 0 2.2 1 3 2.2m127.6 1.4c-.8.8-2.3 2-3.4 2.5q-2 .8.9-1.5 5.1-4.4 2.5-1M289 175c0 1.6-.4 3-1 3-1.1 0-1.4-4.3-.3-5.3 1.1-1.2 1.3-.8 1.3 2.3m70.5 8c-.3.5-1.1 1-1.6 1q-.9-.1-.4-1a2 2 0 0 1 1.6-1q.9 0 .4 1m32.5 0q0 .9-1 1a1 1 0 0 1-1-1q.1-1 1-1t1 1m-100.4 8.5c-2.2 1.7-6.1 2-5.1.5q.6-.8 1.9-.4 1.4.4 2.1-.5c.3-.6 1.2-1.1 1.8-1.1q1 .1-.7 1.5M281 193q-.1.9-1.1 1-.8-.1-.4-1 .6-1 1.1-1 .4 0 .4 1m-99.9 23.3q-2 1.9-1.6.7c1.4-2.6 2.8-4.1 3.3-3.5.3.3-.5 1.6-1.7 2.8m264.7-1.1c1.2 1.2 1.7 8 .6 9.1-2.2 2.2-5.2-4.1-3.9-8.3q.9-3.4 3.3-.8m18.2 5.6c0 1.1-.9 2.7-2 3.7q-3.3 3-1-2.9c1.1-3 3-3.5 3-.8m-187 .2q0 .9-.4 1-.6-.1-1.1-1-.4-1 .4-1 1 0 1.1 1m-82 3.5q-.2 1.4-1.5 1.5c-.9 0-2.8.8-4.3 1.7-3.5 2.2-2.2.7 2-2.3 4-2.8 3.8-2.7 3.8-.9m15 1.3c0 1.8-5.3 6.2-7.5 6.2-3.1 0-3.2-1.8-.2-2.9a10 10 0 0 0 3.6-2.5c1.4-1.6 4.1-2.2 4.1-.8m59.7 1.8c1 2.6-1.4 4.1-3.5 2.1-1.5-1.6-1.5-1.9-.2-2.7 2.1-1.4 3-1.2 3.7.6m-5.7 4q.1 2-1.5.4-1.4-1.2-1.5-1.6.1-.3 1.5-.4c1.4-.1 1.5.7 1.5 1.6m20-.1c0 1.6-3.5 2.1-4.4.6-.8-1.2.4-2.1 2.6-2.1q1.6.2 1.8 1.5m-90.5 2.6c1.2 1.9-.3 2.2-2.7.5l-2.2-1.6h2.1c1.2 0 2.5.5 2.8 1.1m66.2.4c.9 2.5-.4 2.9-1.7.6q-1-2.2 0-2.1t1.7 1.5m17.3-.5q0 .9-1 1a1 1 0 0 1-1-1q.1-1 1-1t1 1m-23 4.5c1 1.9 1.1 2.8.2 3.7q-1.2 1.4-1.6-.3c-1.8-6-1-7.9 1.4-3.4m20.2.9q1.7 2.6-.4 2.3c-.6-.1-1.8 1-2.5 2.5-.8 1.6-2 2.8-2.7 2.8-2.2 0-2.7 2.8-.8 4 1.6.9 1.6 1.1 0 2.4-1 .7-1.8 2.3-1.8 3.5s-.4 2-.9 1.6c-1.2-.7-4.1-6.4-4.1-8.1 0-2.2 4.6-6.4 6.9-6.4 2 0 2.1-.4 1.5-3.4-.6-3.3-.5-3.4 1.8-2.9 1.2.4 2.6 1.1 3 1.7m14.2 1.2q2 1.4 3.3.2c2.9-2.4 6.9 5.3 5.5 10.6-1.3 4.8-3.1 4.3-3.4-1.1-.2-3.9-.7-4.9-2.3-5.2a5 5 0 0 1-2.8-1.7q-.7-1.3-5.7-.9c-5.4.4-5.5.3-4-2.5.8-1.5 1.7-1.8 4.3-1.3a16 16 0 0 1 5.1 1.9M181 240c0 3.9-7.2 9.2-9.4 7q-1-1 .2-1c1.9 0 1.4-1.8-.5-2.3q-1.8-.4 1.4-1.2a10 10 0 0 0 4.4-2.1c1.3-1.6 3.9-1.9 3.9-.4m124 .1q0 .8-.9.9l-2.5.6q-1.6.5-1.6-.7c0-.8 1.1-1.5 2.5-1.5 1.4-.1 2.5.2 2.5.7m-60 4q0 2.9-1 2.4c-.5-.3-1-2-1-3.6q0-2.9 1-2.4c.6.3 1 2 1 3.6m5 .6q.1 1.9-1.5.3c-.8-.7-1.5-1.9-1.5-2.7q-.1-1.9 1.5-.3c.8.7 1.5 1.9 1.5 2.7m-88.4.2c-.7 1.1-10 7.5-16.1 11.1-6.5 3.8-2.7.6 7-5.9 9.5-6.4 10-6.7 9.1-5.2m148.4 1.6q.9-.4 1 .9-.2 2.8-2.8.4c-1-1-1.7-1-3.2 0-2.4 1.5-3 1.5-3 .2 0-1.6 4.3-2.9 5.7-1.8q1.2.8 2.3.3M185 249c0 3 2.8 3.6 5.4 1.1a10 10 0 0 1 2.9-2.1c1.5 0 .6 4-1.5 6.3l-2.2 2.5-3.3-2.5c-3.2-2.4-4.7-7.3-2.3-7.3q1 .2 1 2m98.7.2q-.5 1.1-.6-.6t.5-1.3q.5.7.1 1.9m5 1.2c-.3.8.1 2 .9 2.6 1.9 1.7 1.8 4.2-.2 3.8-2.3-.4-3-7.8-.7-7.8q.4.1 0 1.4m-33.2.6q.4.9-.4 1-1-.1-1.1-1 0-1 .4-1 .6 0 1.1 1m62.5 0q-.1.9-1.4 1a26 26 0 0 0-7.3 5.8Q297 270.1 290 270q-7.3.1-2.6 3.4c3.1 2 8.2 11.6 6.1 11.6-.7 0-1.9-1.7-2.5-3.8s-3.1-5.5-5.3-7.6l-4.2-4 2.5-.7c1.4-.4 4-.7 5.8-.8 3.7-.1 8.2-3 18.7-12 6.7-5.8 9.5-7.3 9.5-5.1m-137.9 2.5q1.4-.3 2.4 1.7 1 2.2 4.4 2.9c7.9 1.6 11.5 7.6 9 15.2l-1.4 4.2-.3-4.7q-.6-7.7-6.5-6.9c-1 .1-2.7-.5-3.8-1.5-1.9-1.7-2.1-1.6-5.5 1.7-3 2.9-3.5 3.9-3 6.6q.9 6-3.3.7c-4.2-5.3-2.6-6.6.4-10.2q4.1-5-1.1-3.6c-2.7.7-3.4-1.3-.9-2.2a3 3 0 0 0 1.5-2.5q0-1.9 2-1.9 1.8-.1 2-1.3.2-1 1.4.6c.7.9 2 1.5 2.7 1.2m128.4-1.5q.4.9-.4 1-1-.1-1.1-1 0-1 .4-1t1.1 1m-141.9 1.5c3 0 1.8 2.5-1.3 2.5s-6.5-1.8-5.7-3.1c.3-.5 1.5-.7 2.7-.2s3.2.7 4.3.8m36.3.2c1.1.9 1.8 2.1 1.4 2.5-.5 1-4.3-1.9-4.3-3.4q-.1-1.9 2.9.9m47.1.4q0 .9-1 .4-.9-.7-1-1.6.1-.9 1-.4a2 2 0 0 1 1 1.6m194.8 1.1c-.2.6-2.4 1.8-4.7 2.6a16 16 0 0 0-9.8 8c-2.4 4.5 1.3 5.9 4.4 1.8 1-1.4 3.1-2.8 4.6-3.2 2.3-.5 2.9-.3 3.4 1.5.5 2 3.3 3 3.3 1.2 0-1.4 2.9-4.1 4.3-4.1q1 .2-.5 1.4c-2 1.4-2.3 3.2-.9 4.1.5.3 4.4-1.1 8.6-3 8.3-3.7 9.5-4.1 9.5-2.5 0 1.4-10.9 6.1-15.9 6.9q-8.3 1.3-1.9 4.2l3.3 1.4-3.5.5c-3 .4-3.5.9-3.2 2.9.2 1.9-.1 2.2-2 1.8l-10.6-1.8c-9.8-1.5-13.7-.6-19.2 4.6a30 30 0 0 1-10.5 6.5q-.5-.2-.5-1.9c0-3.9 13.8-19.9 20-23.1 1.9-1 4.4-2.7 5.4-3.9 2.3-2.5 7.2-5.1 9.7-5.1 1 0 2.1-.5 2.4-1 .9-1.4 4.7-1.2 4.3.2M161 260.3c3.9 1.9 3.1 4.1-1.5 4.5q-6.6.7-6.5-5.9c0-3.4 2-4.3 4-1.7.9 1 2.7 2.5 4 3.1m52.5-3.9c1.6 1.1 1.7 1.7.7 2.9-1.2 1.5-4.7 1.3-5.7-.3-.8-1.2.6-4 1.9-4 .7 0 2.1.6 3.1 1.4m111.7.3c1.5.4 1.4.7-.2 2.3-1.1 1.1-1.6 2.7-1.3 3.9.6 2.4-1.5 2.9-2.2.6l-1-3c-.3-1.2-.9-1.3-3-.3-3 1.4-4.3.5-2.4-1.8 1.7-2.1 5-3.4 6.9-2.7zM258 259q-2.3 4.1 1 4 3.6-.2.3 3.2-1.7 1.8-5.7 1.8c-5 0-6.2-.7-6.8-4.3-.4-2.1-.1-2.7 1.3-2.7 1 0 3.5-1.1 5.5-2.5 4-2.7 6-2.5 4.4.5m-17.6 1.7c-3.3 4.9-9.6 7.8-13.2 6.1-3.3-1.7-4-3.8-1.2-3.8q2.3 0 1.6-1.5-.4-1.4.5-1.5.9.1 1.5 1.5 1.4 3.2 5.3-.9a10 10 0 0 1 5-2.9l2.8-.6c.1 0-.9 1.6-2.3 3.6m40.1-.9c-.8.8-9.5.9-9.5 0 0-.4 1.9-.8 4.3-1q6.6-.5 5.2 1m7.3 0c.6 1.8-1.5 1.4-2.2-.4q-.5-1.5.6-1.2 1.1.5 1.6 1.6m-151.8 2c0 .5-4.4 5.8-9.8 11.8-8.6 9.5-10.5 11.1-15.3 12.8-5.6 1.9-10.9 6-10.9 8.3 0 2.2-7.7 7-13.3 8.3-2.8.7-7.7 2.7-10.9 4.6a23 23 0 0 1-8.6 3.4c-1.8 0-4.3 1-6 2.5-1.7 1.4-3.7 2.5-4.5 2.5q-1.5 0-2.2 1c-1 1.6-4.5 1.2-4.5-.5 0-1.2 6.8-6.5 8.5-6.5l13-8 10-6.4 14-9.1 37-24.1q3.6-2.2 3.5-.6m67 1.8c0 1.6-1.6 1.9-2.5.4-.8-1.3.4-3.2 1.6-2.5q.8.8.9 2.1m-57.2 1.1c-.4 3.5-2.4 4.1-3 .9-.6-2.8-.1-3.6 1.9-3.6q1.5 0 1.1 2.7m-5.2.8c-.3.9 0 2.5.7 3.6 1 1.7.9 2.2-.7 3.5a8 8 0 0 1-2.6 1.4c-.9 0 .1-7.3 1.2-8.8q2.3-2.5 1.4.3m12 1.7c.7 2.3.7 2.3-2.8 3.2-3 .7-3.3.1-1.8-3.8 1.1-2.9 3.5-2.6 4.6.6m120.4 1c0 3.5-1.7 2.6-1.8-1q-.2-4 .8-2.2c.5.8 1 2.3 1 3.2m-53-1.2q0 .9-1 1a1 1 0 0 1-1-1q.1-1 1-1t1 1m-37 1q0 .9-1 1a1 1 0 0 1-1-1q.1-1 1-1t1 1m119.3 2q.6 1.9 2.5 2 2 .1 2.8 1.1c.9 1.6-3.6.1-5.8-1.9-1.9-1.6-2.4-3.2-.9-3.2q.9.2 1.4 2m108.2-1q-.6.9-1.6 1-.8-.1-.9-1 .1-1 1.6-1 1.3 0 .9 1m-201.2.6c.3.3 0 2.3-.8 4.3-.7 2.1-1.5 6.4-1.8 9.7l-.7 6.4c-.1.3-.8-1.1-1.5-3-1.8-4.7-1.8-10 0-12.4a8 8 0 0 0 1.5-3.8c0-1.7 2-2.5 3.3-1.2m34.7 1.3c0 3.8-2.2 8.1-4.1 8.1-1.6 0-1.9-.7-1.9-4.3 0-5 .4-5.7 3.7-5.7q2.4 0 2.3 1.9m24 3.4c3 1.5 5.4 5.7 3.9 7.2q-.9.9-3-.3c-2.6-1.7-4.2-.6-3.6 2.4 1 5.5-3.1 3.3-4.3-2.2-1.4-5.7-1.2-6.8 1.2-10 2.2-2.7 2.2-2.7 2.8-.6a6 6 0 0 0 3 3.5m11.4-2.5a10 10 0 0 0-2.8 3.6q-.6 2.2-1.8.8c-.9-.9-.4-1.9 2.1-4.3 1.8-1.6 3.6-2.7 4-2.4q.3.8-1.5 2.3m49.6-1.7c0 .5-1.9 1.8-4.2 3a37 37 0 0 0-6 3.6c-.9.8-2.5 1.3-3.5 1.1-1.4-.2-.6-1.3 3.4-4.3 4.9-3.7 10.3-5.5 10.3-3.4M191 274c0 2.8-3.9 7-6.6 7-1.3 0-2.4-.5-2.4-1q.1-1 1.4-1c1.8 0 4.6-4.3 4.6-7.1 0-1.8.2-1.9 1.5-.9.8.7 1.5 2 1.5 3m154-3.1c0 .5-1.5 1.2-3.4 1.5s-3.7 1.2-3.9 1.9q-.4 1-1.2.5c-1.1-1.1 1.3-3.6 3.8-4.1 3.9-.8 4.7-.7 4.7.2m-185.4 2.5c.9 3.7-1.9 9.1-5.6 10.6-2.9 1.2-3.4 1.2-4.6-.5-1.7-2.3-1.8-5.5-.2-5.5q1-.1-1-1.6c-3.9-2.7-.7-4.9 7.5-5.3 2.6-.1 3.4.3 3.9 2.3m90-1.6c.5.4 2.1 2.4 3.3 4.5 2.2 3.6 2.3 4.3 1.2 9.2-2 9-2.9 9.4-7.8 3-2.4-3-3.7-5.5-3-5.5 2.6 0 8.7-2.1 8.7-3.1s-5.4-.4-7.1.7c-1.8 1.1-1.8-1.9.1-5.6 2.1-4.1 2.7-4.5 4.6-3.2m-25.1 3.2c1.4 1.3 2.5 2.9 2.5 3.6 0 2.4-3.6 5.2-7.3 5.7-3.4.5-3.6.4-2.7-1.3.8-1.6.6-2.2-1.5-3.6q-2.2-1.5-1.9-2.6c.3-.5 1.4-.2 2.4.7 2 1.8 4 1.3 4-.9q-.2-1.3-2-1.9t-2-1.6c0-1.9 5.9-.5 8.5 1.9m11.5-1.8c0 .7.3 2.3.6 3.5q.7 2.4-.9 2.3-3.3-.1-2.3-4.6c.7-2.5 2.6-3.4 2.6-1.2m224.8 0q-.6 1.2-2.9 1.6c-2.3.2-2.3.2-.5-1.3 2.4-1.8 3.9-2 3.4-.3m-113 5.9c-2.2 1.4-18 1.1-17.6-.3q.6-1.2 7.1-1.3c5.6 0 7-.4 8.9-2.3l2.3-2.3.3 2.7c.2 1.5-.2 3.1-1 3.5m50.2-3.6c0 .2-1.1 2.1-2.5 4.1-2 2.9-2.3 4-1.3 5.1.6.8 1.7 1.2 2.4.9 1-.4 1.2.7.7 4.5-.5 4.1-.2 5.8 1.6 9q2.3 4 .9 3.9-4 0-4.4-5.7c-.2-3.7-.3-3.8-3.5-3.5-3.7.3-7 2.8-6.8 5.1q.4 5-1.1 5.1c-.5 0-1-1.1-1-2.4 0-3.1-1.6-4.2-3.6-2.5q-1.5 1.2-.9 4c.8 3.4-.3 5.8-1.6 3.8a8 8 0 0 1-.9-3.6c0-3-1.8-3.8-4-1.8-1.7 1.6-2.1 1.6-5 .2-1.7-.9-3.7-1.4-4.5-1.1s-1.8-.4-2.4-1.5c-2.2-4-1.6-4.3 7.7-3.6 11.2.9 13.4 0 13-5.3-.3-3.3-.7-3.7-4.3-4.8-5.3-1.4-6.1-4.4-1.2-4.4 1.9 0 4-.7 4.7-1.5s2-1.3 2.8-1 2.5-.1 3.7-.9c2.5-1.7 11.5-3.3 11.5-2.1m-256 3.4c0 3.9-1.4 4.7-2.9 1.5q-1.8-4.3 1.5-4.4 1.4 0 1.4 2.9m27-.4c0 2-2.8 3.1-4.2 1.7-1-1 .8-2.3 4-3.1q.2 0 .2 1.4m158.3 4.7q1.1.6 2.8-.2 2.9-1.6 2.9 2c0 2.5-3.3 5-7.1 5.6-2.7.4-4.1-.1-6.8-2.4-3.9-3.3-3.5-5.4.9-4.5q3.1.6 3.5-1.1c1.5-4.8 1.8-5.2 2.3-2.6.2 1.4.9 2.8 1.5 3.2m35-4.5c1 1-3.1 3.5-4.5 2.7q-1-.7.7-2.1c2.1-1.5 2.9-1.6 3.8-.6M181 283.3c3 1.3 3.1 1.5 1.2 1.6-3.8.2-8.1-2.7-8.2-5.3q.2-.7 1.8.7c.9.8 3.3 2.2 5.2 3m53-.8c-.6.7-2 1.1-3 .8q-3.4-.7-.8-3.1c1.7-1.7 5.3.4 3.8 2.3m223.5-2.5c-.3.5-2.5.9-4.8.9l-4.2-.2 3.5-.7c5.2-1.1 6.2-1.1 5.5 0m-310.1 2.5c2.1 3.2 2 3.5-.9 3.5-2.1 0-2.5-.5-2.5-3q0-5.4 3.4-.5m-12.4 2c-.1 2.3-1.9 3.6-4.6 3.3-3.7-.4-4.5-3.8-1.2-5.3 2.4-1.1 5.8.1 5.8 2m34.5.5c-1 1.1-2.2 2-2.6 2q-.6-.2.8-2c1-1.1 2.2-2 2.7-2s.1.9-.9 2m65.5-.3c-.1 1-3.6 5.3-4.4 5.3-1.5 0-.4-4.9 1.2-5.3 2.8-.7 3.2-.7 3.2 0m-44.3 1.8c.2.1-1.6 1.4-3.9 2.9a13 13 0 0 1-8.8 2.5c-6.4-.2-7-.1-7 1.6 0 2.2-3.6 5.9-4.9 5q-2.5-1.7.9-2.8c2.7-.7 2.5-2.3-.2-3.2q-2.5-.7-.8-1.2c.8-.3 2.2-1.2 3.1-2 1.3-1.1 2.1-1.1 4.3-.2s3.5.9 6.7-.1c2.3-.8 4.3-2 4.6-2.7.4-1 4.6-.9 6 .2m10.3.5q0 .9-1 1a1 1 0 0 1-1-1q.1-1 1-1t1 1m48 8.1c0 .9-4.8 2.9-7 2.9-1.8 0-2-.7-2-6.2v-6.3l4.5 4.5c2.4 2.5 4.4 4.8 4.5 5.1m117.8-7.7c1.2 1.3-1.1 2.5-2.8 1.6-1-.5-2.8-1-3.9-1s-2.3-.5-2.7-1.2q-1-1.1 4.1-.5c2.7.4 5 .9 5.3 1.1m-206.4 4.3q-1 8.8-3.8 4.7c-1.4-1.8-1.5-1.8-2.1-.2-.9 2.2-3.5 2.4-3.5.3 0-1.6 7.6-9.5 9.2-9.5.5 0 .6 2 .2 4.7M292 288q0 .9-.4 1-.5-.1-1.1-1-.4-1 .4-1 1 0 1.1 1m-54 5.1c0 4.1-.8 4.6-4.1 2.9-2.5-1.4-2.4-2.8.2-5.7q4-4.4 3.9 2.8m40-2c0 1.2-1.7 1.1-4.1-.1-3-1.7-2.2-3 1.1-1.9 1.7.6 3 1.5 3 2m69.8 1.2c3.4-.1 4.2.2 4.2 1.6a5 5 0 0 1-1.2 2.9c-1 1-.2 2.3 4.2 6.2 4.7 4.1 5.2 4.9 3.7 5.5q-3 1.3-3.9-3c-.3-1.6-1-1.9-4.1-1.7-3.2.2-3.7 0-3.7-1.8q-.2-1.8-1.2-2c-.7 0-2.4-1.7-3.6-3.6-2.1-3.2-2.2-4-1.1-6.3l1.2-2.6.7 2.5c.6 2.2 1.1 2.5 4.8 2.3m-130-1c.6.5 2.5.7 4.1.4 2.4-.5 3.1-.2 3.6 1.4a26 26 0 0 1-1.1 11.1c-.8 2.5-2.6 2.2-2.2-.3q.1-2.1-1.5-3.3c-1.5-.9-2.1-.7-3.7 1.4-2.6 3.4-3.6 1.8-2-3.1 1.4-4.1 1.3-4.2-1.3-6.3a10 10 0 0 1-2.7-2.7c0-.9 5.3.2 6.8 1.4m94 2.2c2 7.5 2.1 7.3-6.3 8.7-1.7.3-1.9-.3-1.9-4.2-.1-3.3.3-4.5 1.4-4.6 3.5-.2 4-.5 4-2.4 0-3.5 1.5-2.1 2.8 2.5m-199-.6c.2 1.3-.2 3.7-.9 5.3-1.2 2.9-1.1 3.3 1.5 5.4 3.5 3 3.9 3 7.3-.5a15 15 0 0 1 5.1-3.6c1.9-.5 2.2-.3 2.2 1.9 0 1.5.8 3 2 3.6 2.5 1.4 2.6 5.4.1 8.6l-1.9 2.4-1.2-3c-3-7.3-6.8-6.2-4.5 1.4 2.8 9.2 1.2 12.2-1.9 3.6q-1.8-4.8-3.3-5c-1.3 0-1.5 1-.9 6.5.4 3.6.3 6.5-.1 6.5s-1.5-2.1-2.3-4.8c-1.1-3.5-2-4.8-3.7-5-2.7-.4-2.7 0-.9 6.1 1.7 5.7.6 6.2-1.7.8-1.9-4.1-4.4-6-5.3-3.8-.3.8 0 3.3.5 5.8q1.8 8.6-1.5 1.1c-2.8-7.1-8.7-6.8-6.4.2q2.2 7-2.2 6.4-2.4-.3-2.6 1.7-.8 5-4.1 1.6c-1.2-1.2-2.5-2.1-3.1-2.1-1.2 0-3.9 5.2-3.3 6.6.6 1.6-2.9 4.2-6.2 4.6l-3 .3.3-5.4c.2-3.3-.2-6.1-1.1-7.5-.8-1.2-1.8-3.6-2.1-5.4-.8-3.2-4.7-7.2-7.2-7.2-1.9 0-1.8-1.6.2-2.4 1.8-.7 8 3.7 9.6 6.8.6 1.2 2.5 4.3 4.2 7 2.9 4.5 3.1 4.7 3.4 2.3.2-1.4-1-5.2-2.6-8.4-2.3-4.4-3.9-6.3-6.6-7.6-2.1-1-3.4-2.2-3-2.8q.6-1.2 1.7 0c.6.6 2.2 1.1 3.5 1.1s3.2.5 4.3 1c3 1.7 4.3.2 2.4-2.7-.9-1.4-1.5-2.6-1.3-2.8a24 24 0 0 1 9.2-3.5c1.4 0 2.8-.5 3.1-1s2.2-1.7 4-2.5a27 27 0 0 0 12.1-9.8c1.5-2.7 4.9-4.8 6.9-4.3.6.1 1.1 1.3 1.3 2.5m92.2-1.5q0 .5-1 1.1-.9.4-1-.4.1-1 1-1.1 1 0 1 .4m58 .5q-.1 1-1.1 1.7c-.7.4-.9 2.1-.6 4 .9 5.3-3 8.4-5.5 4.4-.7-1.1-1.8-2-2.5-2s-1.5.9-1.8 2c-.7 2.2-2.5 2.7-2.5.7 0-.6 1.6-2.3 3.6-3.6a19 19 0 0 0 5-5.3c1.4-2.6 5.4-4 5.4-1.9m-119.4 3.6c0 2.9-.3 3.4-1.7 3q-1.6-.4-2.4.5-.7 1.2-2.7-.9c-2.1-2.4-1.7-3.8 1.6-5.1 4.2-1.7 5.2-1.2 5.2 2.5m56.4-1q0 1.4-1 1.5-.9-.1-1-1.5c-.1-1.4.5-1.5 1-1.5q1 .1 1 1.5m72.5 1.5q1.6 1.8 1.1 2c-1.4 0-4.6-2.1-4.6-3 0-1.6 1.6-1.1 3.5 1m60.3-.4q2 .6 2.2 1.3c0 1.2-8.3 9.2-8.9 8.6-.6-.7-.2-8.5.5-9.7.6-.9 3-1 6.2-.2m-8.3 1.5c.8 1.3-.2 5.9-1.4 5.9-1.5 0-3-4.7-1.8-5.9q2-2.1 3.2 0m-154 3.7c-1.5 1.6-1.6 1.5-.4-1.2q1.2-2.4 1.7-1.6.3 1.2-1.3 2.8m98-.8q1.6 1.8.7 2-1.1-.2-2.2-2-1-1.8-.7-2 .5.2 2.2 2m-80.5 4c4.9.7 5 3.2.3 6.4-5 3.4-8.2 3.3-11.7-.3q-5-5.4 1-5.6c2.2 0 3.2-.7 4.3-3l1.5-3 .6 2.5c.4 1.9 1.4 2.6 4 3m151.4-.8c2.2 12.1 1 16-5.9 19.2-3.3 1.6-4.1 1.6-7.4.4s-3.6-1.7-3.4-4.8q.4-4.2-.5-1.1-1.5 4.7-4.3 1.5c-1.1-1.4-1.1-2 .2-4.3 1.5-2.6 1.5-2.7-.5-2.7q-2 0-2.4-1.7c-.5-2.5 3.4-2.2 6.1.6 2.3 2.4 5.7 2.5 5.7.1q0-1.4 2.8-1.4c2.6-.1 2.6-.1.8-1.5q-1.8-1.4-1.5-1.9c2.5-2.5 8.3-6.5 8.9-6.1.4.3 1 1.9 1.4 3.7M205 301q0 .9-1 1a1 1 0 0 1-1-1q.1-1 1-1t1 1m93.3 4.5c-.4 4.1-.2 6.1 1.1 7.9a10 10 0 0 1 1.6 4.1c0 .9 1.1 2.7 2.4 4 1.4 1.4 2.1 2.7 1.7 3-1.1.6-4.2-3.1-6.5-7.8a24 24 0 0 1-1.4-15q2-4.6 1.1 3.8m-98.3-3.6c0 1.4-1.8 2.3-3 1.6q-1-.7-.5-1.6c.8-1.2 3.5-1.2 3.5 0m119.6.8q2.5 3.4.2 3.3c-2.3 0-4.1-1.8-3.5-3.4q1-3.1 3.3.1m-152.6.9q0 1.3-1 .9-.9-.6-1-1.6.1-.8 1-.9 1 .1 1 1.6m74.5.7c4.9 2.8 5.9 5.7 1.8 5.4-2.4-.2-2.9.3-4.1 4q-2.1 6.6-5.1 3c-.8-1-.7-2.2.2-4.6 1-2.7.9-3.3-.3-4.1-.8-.6-2.1-.8-2.7-.5-3.2 1.1-.5-3.1 2.7-4.4s3-1.4 7.5 1.2m-99.4 5.1c-1.2 1.2-2.1 3-2.1 3.8 0 .9-.3 2.3-.6 3.2-.5 1.4-.8 1.4-3-.1-2.7-1.7-3.1-3.3-1-3.3.8 0 2.9-1.9 4.7-4.1 1.8-2.4 3.5-3.7 3.7-3s-.5 2.3-1.7 3.5m-114.7-.9c-.9 1.4-2.2 2.5-2.9 2.5s-2.5 1.7-4.1 3.7-2.9 3.2-3.2 2.5c-.2-.6 1.4-3.4 3.4-6.1q3.9-5.3 6.1-5.1c2.3 0 2.3.1.7 2.5m137.6-.4q0 .8-1 .9-.9-.1-1-1.6.1-1.3 1-.9 1 .6 1 1.6m42 3.4q0 1-1.2 2.3c-.9.9-.7 1.9 1.2 4.3 2.2 3.1 2.2 3.3.5 4.5-4.3 3.2-10.4-1.5-10.3-7.9q0-6.4 3.5-3.5 2 1.8 1.1-.4-.6-1.5-.1-2.1c.8-.9 5.3 1.5 5.3 2.8m145-2.5q0 .9-1 1a1 1 0 0 1-1-1q.1-1 1-1t1 1m-132 1q0 .9-1 1a1 1 0 0 1-1-1q.1-1 1-1t1 1m146 0q0 .9-1 1a1 1 0 0 1-1-1q.1-1 1-1t1 1m-332.6 3.7c3.1 3.6 8.2 5.3 11.8 3.9 2.5-.9 3-.7 6.4 3.3 3.2 3.6 4.2 4.2 7.3 4.1 5.6-.3 5.8-.2 6.6 2.7a11 11 0 0 0 2.3 4.6q1.4 1.7.6 2.6c-2.1 1.9-13.4 3.3-21.1 2.6-7.6-.7-7.9-.8-12.6-5.6-2.7-2.6-4.6-5.3-4.2-5.8q1.8-2.8 4.9 1.9c2.7 4.6 5.7 6.2 11.3 5.8 6.4-.4 6.1-2.2-.4-2.6-4.2-.2-5.6-.8-7.3-2.9a10 10 0 0 1-2-3.7c0-.6-1.6-3.3-3.5-6-4.8-6.8-4.9-10.5-.1-4.9m221 6.2c-.8.8-3.4-3.4-2.9-4.7.3-.8.5-2.1.6-3q.2-1.1 1.4 2.8c.8 2.4 1.2 4.6.9 4.9m130.9-3.7c.4 3.2.2 4.7-1 5.8-1.4 1.4-1.5 1.2-.9-1.5q1.2-4-.8-1c-.8 1.1-1.8 1.7-2.2 1.3q-.5-1 .9-2.6c2.4-2.6 2.1-3.9-.3-1.7-2.9 2.6-3.6 1.2-.8-1.8 3.3-3.6 4.5-3.3 5.1 1.5M225 313.9c0 1.3-4.1 4.1-6 4.1q-1.4 0 1.5-2.5 4.6-3.9 4.5-1.6m122.6 2.7c-.7 3.3-.5 3.6 2.4 4.7 3.7 1.4 3.6 4.1-.3 4.5q-2.9.3-2.7 2.5c0 1.8-.5 1.6-3.5-1.7-3.5-3.9-3.5-3.9-1.4-5.4a13 13 0 0 0 3.5-4.8q3-6.6 2 .2m-34.6-.5c0 3.1 1.8 5.9 4.6 6.9 2.8 1.1 3.2 4.5.7 5.7-1 .5-3.1.8-4.8.8h-3l.2-5.8c.1-4.3-.2-5.7-1.2-5.7-2 0-3-2.1-1.4-3.1 2.5-1.6 4.9-1 4.9 1.2m-149-.1c0 .5 1.2 1.6 2.8 2.4q2.3 1.3 1.4 1.6c-2 0-4.9-1.8-5.6-3.5q-.4-1.4.4-1.5 1 0 1 1m49.5 0q.4.9-.4 1-1-.1-1.1-1 0-1 .4-1 .6 0 1.1 1m163.5-.2c0 .5-1.1 1.9-2.5 3.2-2.5 2.4-3.5 5.8-1.3 4.4q1-.6.4.4-.7 1.3-2.7.2c-2.5-1.4-2.5-1.6 1.3-5.6q4.8-5 4.8-2.6m-188.3 2.9c.6 1.4-7.1 8.8-9.2 8.8-.5 0-.9-1.4-.7-3q.3-3.2-.7-1.5-.8 1.3-.5 2.1c1.2 2-1.6 1.6-3.5-.5-2.1-2.3-2.1-2.3-.2-4.1 1.1-.9 2.7-1.5 3.5-1.2q1.5.5 2.3-.7c1.6-2.7 8-2.6 9 .1M352 317q0 .9-1 1a1 1 0 0 1-1-1q.1-1 1-1t1 1m-337 5.9c-.5 1-1.6 2.3-2.4 3.1-1.4 1.1-1.6.9-1.6-.9 0-1.2.5-3.1 1.1-4.2.8-1.6 1.3-1.8 2.4-.9q1.5 1.1.5 2.9m362-1.7q0 2.4-1.1 1.1c-.6-.6-.8-1.6-.5-2.2q1.6-2.5 1.6 1.1m-163.4 5.3a9 9 0 0 0-1.6 3.6c0 .6-.9 2.2-2 3.6-1.8 2.3-1.9 2.8-.5 4.3.8.9 1.5 2.2 1.5 2.8 0 1.7-3.8 3.4-6 2.7q-2-.8-2.8 1.4c-.6 1.7-.9 1.8-2.6.6s-1.8-1.5.3-4.3c1.2-1.7 2.1-3.7 2.1-4.4s1.7-2.6 3.7-3.9c3.7-2.4 5.2-4.5 7.5-10.4 1.1-2.8 1.2-2.9 1.6-.7.2 1.3-.4 3.4-1.2 4.7m-72.4.5c.3 3.6 0 4.8-1.6 6.2s-1.8 1.9-.7 2.7q1.1 1 .6 2-.6 1.3-2.1 0c-1.9-1.6-1.8-2.9.8-5.6 3.3-3.5 1.4-2.7-2.6 1.1-3.2 3-5.1 6.6-2.7 5.1q.9-.4 1.5.4c1 1.6-1.4 2.4-2.9 1.1-2.2-1.9-1.8.3.6 3.4q2.3 3 3 1.5.7-1.4-.4-2.1-1.3-.6 0-1.9c.9-.9 1.5-.8 2.7.4 2.2 2.1 2.1 2.3-2.5 6.8q-6 5.9-5.9 1.1 0-1.8.8-.5c.8 1.3 1.2.9 2.2.2 1.2-.8.9-1.4-1.7-3.8q-5.3-4.3-1.8-5.5 1.4-.6 1.5-1.8c.1-1.2 1.3-2.5 2.8-4 1.5-1.4 3.5-4 4.5-5.7 1.7-2.9 1.7-3.1.1-3.1s-1.6-.2.1-2c2.3-2.6 3.2-1.7 3.7 4m8.8-5q0 .9-1 1a1 1 0 0 1-1-1q.1-1 1-1t1 1m44.7 7.1c.7 6.6-1.6 14.2-4.3 14.8-3.7.7-6.1 4.1-3 4.1 1.6 0 3.1 1.8 2.3 2.6-.3.3-3.2-.6-6.6-2a23 23 0 0 0-6.1-2c0 .8-5.6-2.4-7-4.1-1.1-1.4-.9-2.1 2-5 1.8-1.9 3.7-3.2 4.1-3s.5 3.1.3 6.2q-.4 6 .5 3.8c.5-1.1 1-3.5 1-5.3.1-3.6 2.2-4.3 4.3-1.4.7 1 1.9 2.2 2.6 2.6q2.3 1.4-2.4-5.1c-1.5-2-1.5-2.3-.1-2.9q1.5-.6 1-2.2-.7-1.5 3.8-5.4c5.3-4.6 6.7-3.8 7.6 4.3m32.9-7.2c.5.5 2.4 1.2 4.1 1.6 2.8.6 3.2.4 2.6-1-.5-1.5-.1-1.6 2.8-1q12.4 2.4 9.4 9.2-.7 2.3-1.5-1.5c-1-4.4-1.6-4.8-5.1-3.5-4.6 1.8-14.9-.2-14.9-2.8q.1-3 2.6-1m-60.4 2c7 3 8.9 7.1 3.2 7.1q-2.5.1-2.4-2-.1-2-3.5-4.1c-5.8-3.4-4.2-4 2.7-1m210.4 1.3c-.9.5-1.6 1.6-1.6 2.3 0 1.5-1.2 2-2.3.9-.3-.4.6-2 2.1-3.5 1.5-1.7 2.9-2.4 3.1-1.8q.2 1.2-1.3 2.1m12.6-.7c.9 1.9.8 3.1-.2 5.2-2.5 5.6-2.8 8-1.3 10.9.8 1.6 1.2 3.7.9 4.7q-.7 2.2 1 .6 1.5-1.4 1.4.1.1 1.1 2 .7 2-.5 2.5 1.3c.3 1 1.8 2.1 3.3 2.5 2.7.7 2.7.7.5 1.6-1.3.4-2.3 1.6-2.3 2.6-.1 1.6-.3 1.5-1.9-.5-1.1-1.2-2.5-2.2-3.3-2.2-1.4-.1-5.7-3-4.4-3q.7-.1-.4-1.5c-1.1-1.4-.9-2.3-.6-3.2q.8-2-1.9.7c-2.1 2-2.4 2.6-1.1 2.8 2.2.5 2 2.4-.1 2.1-3.2-.4-5 1.1-4.6 3.5.3 1.3 0 2.7-.6 3q-1 .7-1.1 1.8 0 1 1.3-.1c1.8-1.4 3-.2 1.6 1.6q-1.2 1.3 0 2.6c.8 1 .2 2.1-2.4 4.7-4.2 4.1-5.8 3.3-2.1-1 2.8-3.4 2.6-5.5-.5-4.5q-3.7 1.1.3-4.7 2-3 .8-2.6c-.8.2-2.4 2.1-3.7 4.1-1.9 2.9-2 3.7-.8 3.7 2.3 0 1.8 1.1-2.7 5.9-2.4 2.5-3.4 3.8-2.2 2.8a8 8 0 0 1 3.2-1.7q1.1 0 1.2-1.2 0-1 .6-.6c.3.4 0 1.7-.7 3a8 8 0 0 0-1.1 3.8q.3 1.4-.5.5c-.4-.6-3.8-1-7.5-1-6.2 0-6.6-.1-5.6-1.8.7-1.5 1.7-1.8 3.9-1.3s3.2 0 4.4-1.7c1.3-1.9 1.4-2.2.1-2.5-2-.4-.9-3.1 2.6-6 1.5-1.3 2.6-2.8 2.3-3.3-.7-1.1-4.5 1.2-4.5 2.7 0 1.2-2.9 2.8-3.6 2.1-.2-.2.7-1.4 2.1-2.7s2.5-3 2.5-3.8q0-1.4.7-.9t2-1.3c1.4-1.8 2.1-2 3-2 1.3 0 1.3.4-.2 2.7l-1.8 2.8 2.2-2c1.3-1.1 2.7-2.7 3.2-3.6q1.2-2-1.3-1.1-2.4.7-1.5-1.1.5-1.6-.3-1.7-1 0-1 1c0 1.8-7.3 8-9.5 8-1.1 0-2.6.5-3.3 1.2q-1.3 1.4-1.2-.7c0-2.6 2.9-5.5 5.5-5.5 1.3 0 2.9-.8 3.6-1.8q1.7-2-.1-.5-1.3 1.5-2.8.1c-1.1-1-2.1-.5-4.8 2.5-1.9 2-3.7 3.7-4 3.7-1.3 0 3.1-6 5.3-7.1q2.1-1.2 2.4-2.3.1-.9.8.7c.6 1.7.8 1.7 1.8-.5.9-2.1.8-2.4-1.1-2.3-2.6 0-5.2 2.5-8.9 8.2q-4.1 6.3-6.1 3.4c-.3-.5 1.9-3.5 4.9-6.7 5.7-6.1 7.5-9.4 2.8-4.9-4.9 4.5-3.7.5 1.3-4.6q8-8 5.3-2.7-1.7 2.8.3 1.1c.8-.7 1.8-1 2.2-.6q.6.4 1.3-1.5.6-2.3 2.2-1.7 1.7.3 6.9-4.6c4.8-4.7 7.4-6 3.5-1.7-3.3 3.7-.5 2.6 3.2-1.2 2.2-2.2 4.3-4 4.7-4q1 .2 2 2.5M220 325.6q-.1 1.3-1.5 1.4c-1.5 0-2.1-2.1-.9-3.3 1-.9 2.4.2 2.4 1.9m-87-.7q0 1-1 1.6c-.5.3-1 1.4-1 2.3.1 1.5.2 1.5 1.5-.2q1.6-2.4 1.5-.4c0 1.9-2.6 4.2-3.9 3.4q-1-.5-1.7.5-.4 1 .7 2 1.1.8.5 1.6-.9.6-1.3-.5c-.7-2-3-1.4-3.7 1q-.5 2.7-1.8 1c-1.1-1.1-1-1.5.5-2.3q1.8-1 1.2-3-.9-2 1.4-1.9 2-.1 2.1-1-.1-1-1.1-1t-.4-1c.3-.5 1.2-.7 1.9-.4s1.6-.2 1.9-1c.7-1.7 2.7-2.2 2.7-.7m235.5.1q.4.9-1 1c-1.4.1-1.3-.5-1-1q.6-1 1-1t1 1m-27 4.1q.8.8-1.2.9-3.9 0-2.1 4.9 1 2.5-.7 4c-1.4 1.4-1.8 1.3-4.1-1.2-2-2.2-2.9-2.5-4.4-1.7q-4 2.1-4-.6c0-1.7 4.5-6.7 7-7.7 1.9-.8 8.2.1 9.5 1.4m23.5-.1q0 .9-1 1a1 1 0 0 1-1-1q.1-1 1-1t1 1m-246.6 2.1q-.6.8-1.5.3t-.3-1.5q.6-.8 1.5-.3t.3 1.5m45.1-1.1q.4.9-.4 1-1-.1-1.1-1 0-1 .4-1 .6 0 1.1 1m60.9 1.1q-.6.8-1.5.3t-.3-1.5q.6-.8 1.5-.3t.3 1.5m148.6-.7a3 3 0 0 1-.9 2.1c-1.2.7-2.4-1.2-1.6-2.5.9-1.5 2.5-1.2 2.5.4m-219 2.1c1.1 1.3.9 2.2-.6 5.1-1.8 3.3-1.8 3.6-.1 6.6 1.3 2.3 1.5 3.4.6 4.4q-1 1.3-.5 1.4c.3 0-1.2 1.9-3.4 4.2-2.1 2.3-4.2 3.9-4.6 3.6-1.1-1.2.8-5.2 3.9-8 2.4-2.3 2.7-3.1 1.7-4.3-1.1-1.3-1.6-1.2-4.4.7l-3.1 2.1 2.9-3.1c3.9-4.2 1.3-4.2-3.1 0-3.1 3-4.5 5.7-2.3 4.3 1.4-.9 1.2.8-.2 2.4q-1.8 1.6 1.6.7c2.7-.7 2.8-.6 1.6.9-.8 1-1.5 2.4-1.7 3.3-.2 1.8-3.9 5.2-5.6 5.2-.6 0 0-1.1 1.3-2.5s2-2.5 1.5-2.5-1.4.8-2.1 1.7q-1.2 1.6-2 1c-.4-.4.3-1.8 1.6-3.2 2.6-2.8 3.3-5.2 1.9-6.1q-.8-.3-1 1.8c0 2.3 0 2.3-1.1.2-.8-1.7-.5-2.6 1.5-4.8 1.3-1.4 2.9-2.6 3.6-2.6q1-.1 1.1-1.5.2-1.5 1.5-2.1t1.5-2.1q-.1-1.6 2.5-.9c3 .8 4.2-1.2 2.6-4.2-1.6-3.1.6-4.4 2.9-1.7m-33 .5q0 .9-1 1a1 1 0 0 1-1-1q.1-1 1-1t1 1m51.4-.2c1 1.6-2.5 5.2-5 5.2-1.3 0-2.4.4-2.4 1q0 .9-.9 1c-.6 0 .2-1.8 1.6-4 2.5-3.7 5.5-5.1 6.7-3.2m45.6.2q0 .9-1 1a1 1 0 0 1-1-1q.1-1 1-1t1 1m103 1.1c0 3.6 1.9 5.9 5 5.9 1.6 0 3.6.7 4.4 1.6 1.9 1.9 2.2 4.1.4 2.7-.7-.6-2.9-1.3-4.9-1.7s-4.1-1.2-4.7-1.9c-1.5-1.9-2.5-8.7-1.2-8.7q.9.1 1 2.1m-178-.2q0 1-1 1.6-.9.4-1-.9.1-1.5 1-1.6 1 0 1 .9m175.9 9.5c1.2 1.3 3.4 2.6 4.9 2.9 4.2.9 6.6 3.1 5.8 5.3-.8 1.8-.8 1.8-1.6-.3-.6-1.3-2.9-3.1-5.9-4.3-4.9-2.2-6.1-3.8-7.5-10.1-.3-1.4-.2-2.9.2-3.3s1 1.1 1.3 3.3 1.5 5.2 2.8 6.5m-201.4-6.6q-.6.4-1.8-.7-1.4-1.5.6-.5 1.6.6 1.2 1.2M113 338c0 .4-.8 1.4-1.7 2.1q-1.8 1.6-.9.1c.4-.7.3-1.9-.4-2.7q-1.4-1.5.9-.8 2 .6 2.1 1.3m32-1.2c0 1.4-3.9 4.6-4.7 3.9-.3-.4.2-1.6 1.2-2.7 1.9-2.1 3.5-2.6 3.5-1.2m77.5 2.4c-.9 4.2-2.3 6.8-3.6 6.8-.5 0-.2-1.4.6-3s1.3-3.5 1-4c-.8-1.2.2-3 1.6-3q1 .2.4 3.2M122.3 341a4 4 0 0 0 2.4 2.7c1.8.7 3.3 2.2 3.3 3.5 0 1.6-2.2.7-4.5-1.8-2.2-2.3-2.7-2.5-4.2-1.3q-2.3 1.8-.6-.2c.7-.9 1-1.9.7-2.2-.7-.7.4-2.7 1.5-2.7q.8.2 1.4 2m232.7 0q0 .9-1 1a1 1 0 0 1-1-1q.1-1 1-1t1 1m-296.4 1.7c2.6 8 4.7 9.6 8.9 6.9 2.2-1.4 2.5-1.4 2.5-.1 0 .8-1.4 2.2-3.1 3.1-3 1.5-3.2 1.5-5.6-.8a13 13 0 0 1-4.7-8.1c-.7-3 1.1-3.9 2-1m289.8-.1c.9.8 1.6 2 1.6 2.5q-.1.8-1.6-.5c-.8-.9-2.4-1.6-3.5-1.6s-1.7-.5-1.4-1c.9-1.5 3.1-1.2 4.9.6M227 343c0 .6-2.1 3.1-4.6 5.5-3.8 3.8-4.2 4.5-2.5 4.5 2.8 0 2.7 1.8-.1 3-1.3.6-3 1.5-3.9 2.2-1.3.9-2.4.5-5.7-2.3l-4.1-3.4 6.5-.9c6-.8 6.8-1.2 10.2-5.2 4.1-4.8 4.2-4.9 4.2-3.4m-118 .7c0 .3-.7 1.5-1.7 2.5s-1.9 3.5-2.2 5.5-1.1 3.8-1.8 4c-1.8.6-2.7-3.6-1.1-5.4a5 5 0 0 0 1-3.5q-.3-1.8 2-2.7c2.9-1.2 3.8-1.3 3.8-.4m233 .7q-.2.5-1.7 1.7-2.4 2-.4-.4t2.1-1.3m-107 3.2c0 1.6-1.6 1.9-2.5.4-.8-1.3.4-3.2 1.6-2.5q.8.8.9 2.1m114 1.6q0 2.4-1.2 1c-.7-.7-2-1.2-3.1-1.2q-1.6-.1-1.2-1c.3-.6 1.7-1 3.1-1q2.5-.2 2.4 2.2m-223.5 1.3c2.5 2.6 3.3 5.5 1.6 5.5q-.9-.2-1.3-2.3t-1.8-2.2c-1.3-.2-1.6-.8-1.8-1.8-.5-2.3.3-2.2 3.3.8m46.9-1c1.7 1.3 1.6 1.5-1.9 2.9l-4.2 1.6c-.7 0-2.1-4.5-1.6-5.3.7-1.2 5.7-.7 7.7.8m-11.7 4.1c-.8.8-3.7-2.1-3.7-3.8q.1-1 2.2.9 2 2.1 1.5 2.9m41.7-.7c2.3 2.5.6 6.1-2.9 6.1-3 0-4.6-2.7-3.4-5.8 1-2.7 4-2.9 6.3-.3m-68.4.1q-.1.9-1.1 1-.8-.1-.4-1 .6-1 1.1-1 .4 0 .4 1m52.7.1c.7.7 2.1 1.2 3.2 1.3 2.1.1 3.1 2.1 1 2.1-.5 0-1.9 1.1-2.9 2.5-1.6 2-2.2 2.3-3.7 1.4-2.2-1.4-2.9-5-1.3-7 1.5-1.7 2.2-1.8 3.7-.3m45.8.9c.7 2.3-1 6-3 6-2.1 0-4.5-2.9-4.5-5.6 0-2.1.5-2.4 3.4-2.4 2.6 0 3.6.5 4.1 2m5 .1c.4 1.1.4 2.4 0 2.7-.9.9-3.6-2.8-2.9-3.9.9-1.5 2.2-1 2.9 1.2m-62.7 4.2c.4 4.1-1.7 5.9-4.3 3.7q-3-2.6.2-6.2 3.5-3.9 4.1 2.5m158.4 5.8q3.3 2.7 2.4 4.4c-.6 1.6-1.1 1.4-4.1-1.8-3.5-3.7-4.1-6.1-2.7-10.7.6-2.2.7-2 1 1.5.2 3.1 1 4.6 3.4 6.6m2.6-7.4c-.2 2.1.2 2.8 2.2 3.3l2.5.6-2.4 1.3c-2.1 1.2-2.6 1.1-3.8-.5-1.4-1.9-1.7-5.6-.6-6.7 1.4-1.5 2.4-.6 2.1 2m-184 .3q-1.2 1.8-2 2-.8 0-.8.9c0 .9 1 .7 2.2.3 2-.5 2-.2-.9 3.3-1.8 2.1-3 4.2-2.7 4.7.7 1-1.4 3.8-2.8 3.8q-.7-.1-.3-1 2.1-3.5-7.3 5c-6.2 5.5-9.3 7.3-6.1 3.3q1.2-1.5.2-1c-1.9 1.2-2.6-1.3-.9-3.2s2.1-3.6.6-2.6q-.8.5-.4-.9c.8-2.1 9.6-9.2 13.5-10.9 1.9-.8 4.3-2.4 5.3-3.6 2.4-2.7 4-2.8 2.4-.1m240.2.5 2.5 1.4-3.1.1q-3 0-3.8-1.5c-.7-1.9 1.1-1.9 4.4 0m-227.7.9q1.6.1 1.6 1.1c-.2.9-5.7 5.5-6.6 5.5q-.4-.2-1.2-2.3c-1.1-2.9.5-6.1 2.7-5.2.9.4 2.5.8 3.5.9m15.7.1q1.1 1.5.7 2.2c-.8.7-3.7-1.5-3.7-2.8 0-1.4 1.6-1.1 3 .6m63.5.6c1 3-1 4.7-2.5 2-1.1-2.1-.6-4.1 1-4.1q.9.1 1.5 2.1m-51.1 2.4q-.7 1.3-1.5.9c-1.4-.8-1-2.4.6-2.4q1.3 0 .9 1.5m-38.4 2.3q-.1.8-1.1 1.9-1.3 1.2 2.2 1l3.4-.2-.3 5c-.2 4.8-2 17.1-4.3 30.2-1.1 6-2.9 8.7-2.9 4.3 0-1.1-.5-2.9-1.2-4-1-1.6-.9-2.3.7-4 1.9-2.1 1.9-2.1-.1-1.3-1.8.7-1.8.6-.1-2 1.9-2.9 2.2-5.7.7-5.7s-1.2-2.1.7-4.2c1.6-1.8 1.6-1.8-.2-1.2-1.7.7-1.6.3.5-2.7l2.5-3.4-2.7 1.7c-2.2 1.5-2.7 1.5-3.2.3-.3-.8-.3-2.2 0-3q.5-1.4-.5-1.5c-1.9 0-1.2-1.9 1.4-4.2q2.4-2.1 1.9-4-.4-1.7.1-2.8c.7-1.2 2.5-1.3 2.5-.2m234.4 4.4c-2.5 2.6-2.6 2.9-.6 1.9 1.2-.6 2.9-2.3 3.8-3.6 1.7-2.7 5-3.5 4.1-1.1-.5 1.1.1 1.2 2.9.4q7.4-1.9 2.3 3.2-4.7 4.7-7.6 1.9c-1.2-1.2-5.3.4-5.3 2.2 0 .5-2.9 4.1-6.5 7.9a53 53 0 0 0-6.5 7.7q0 .6 1.2-.5t2.3-.2c.9.7 2.7-.6 6.3-4.5 2.8-3 5.7-5.5 6.3-5.5 1.6 0-1.2 4.2-3.7 5.5q-1.7 1.1-2.2 2.5a10 10 0 0 1-1.9 3.2q-1.4 1.6-.7 1.8c.7.2-.2.7-1.4 1.6-3.4 2.3-7.5 1.5-8.6-1.9-.9-2.5-.5-3.2 4-8q11-11.4 4-6.2c-3 2.3-3.8 2.6-3.3 1.2q1-2.1-1.2-1.2c-3.7 1.1-3.1-1.4 1.6-6.4 4.6-4.9 8.2-6.8 6.9-3.6-.8 2.3.8 1.8 3.5-1.1 1.3-1.4 2.5-2 2.7-1.4s-.9 2.5-2.4 4.2m-170.6 1.3c2.5 7.4 2.4 7.1 1.2 5.3-1.5-2.4-4.3-10.5-3.2-9.3.5.6 1.4 2.3 2 4m-45.2-1c2.3 3.6 1.4 3.8-1.4.4-1.3-1.6-1.9-2.9-1.3-2.9s1.8 1.1 2.7 2.5m175.7 1.6q-.6 2.3 1.2 3.5t1.4 1.5l-3.4.3c-1.6.1-4 .5-5.2 1-2.5.8-3.3-.8-.8-1.8.8-.3 1.5-1.6 1.5-3 0-2.3 1.1-3.1 4.7-3.5q1 0 .6 2M184 371.6q1.6.5 1.6 4.2c0 2 .3 5.4.8 7.4.7 3.4.6 3.8-2.3 5.2-3.7 2-4.1 2-4.1.2q.2-1.4 2.8-1.8t2.7-1.8c0-1.9-5.5-3-7.5-1.4-.8.6-2.5 1.5-3.7 1.8-2.1.7-2.3.4-2.2-3.1q0-3.3.6-2.6.4 1.2 1.3 1.3c1.2 0 3.3-5.7 2.5-6.9q-.4-1 1-1.1t2.2-1.5q.6-1.4 1.7-1zm57.4 1.9c-.6 1.6-2.4 2.1-2.4.7 0-1.1 1.1-2.2 2.1-2.2q.7.1.3 1.5m182.1.5c.3.5-.7 1.6-2.3 2.4-2.8 1.5-2.9 1.4-2.4-1s3.5-3.4 4.7-1.4M169 375.5q0 1.4-1 1.5t-1 1.9c0 1-.7 3.2-1.5 4.7-.8 1.6-1.5 3.7-1.5 4.7s-.4 1.6-.8 1.3c-1.4-.8-.6-9 1.1-12.4 1.8-3.3 4.7-4.4 4.7-1.7m246.4.4c.3.4-.6 1.9-1.9 3.1q-3.3 3.2-2.6-.3 0-.6-2 .3c-1.1.7-2.3.9-2.6.6-.3-.2 1.2-1.4 3.3-2.4 4.6-2.3 5.1-2.5 5.8-1.3m-50.7 3.1q3 2.9 3.6 1.7.5-1 1.2-.5.6 1-1 2.8c-1.8 2-1.8 1.9-5.8-1-2.3-1.7-4.7-3-5.4-3-2.2 0-1.4-1.8 1-2.3l2.7-.6c.3 0 1.9 1.2 3.7 2.9m-227.1.6q-1.8 1.1-2.5.8-.3-.6 1.3-2 1.8-1.2 2.5-.8.3.6-1.3 2m56.8-1c.3.9 1.3 1.4 2.1 1 2.3-.8 2.8 1.2.5 2.4-1.1.6-2 1.7-2 2.4q-.2 1.3-2 1.9-2.1.4-2 3.8 0 6-1.3-1.3c-.5-3-.2-3.8 1.3-4.3s1.8-1.3 1.3-4c-.6-3.6.9-4.9 2.1-1.9m50.8 1.1c-1 1.6-2.2 3.5-2.5 4.3q-.6 1.8-.6-.3c-.1-2.1 2.7-6.7 4.1-6.7.5 0 .1 1.2-1 2.7m11 2.2c-1.5.8-3.8 2.2-5.1 3.3-1.8 1.4-2.7 1.5-3.8.7-3-2.6 6.3-8.8 9.9-6.6 1.6 1.1 1.5 1.3-1 2.6m138.8-1c0 1.1.5 2.3 1.2 2.7 1.7 1.1 10.4.7 12.8-.6 1.6-.9 2-.8 2 .5q-.1 1.5-1.5 2.1t-1.5 1.8c0 .6 1.6-.6 3.5-2.7 3.3-3.6 5.5-4.7 5.5-2.7 0 .5-1.1 1.7-2.5 2.6s-3.1 2.8-3.8 4.2a6 6 0 0 1-4.2 3.3c-1.6.4-3.8 1-4.7 1.4q-1.9.8-1.8-.8t1-2.2a2 2 0 0 0 1-1.7q0-1-1.4.2c-.8.6-3 1.1-4.8.9-1.8-.1-4 .1-5 .5s-2.9.6-4.5.4l-2.8-.3 3.1-3c1.7-1.7 3.9-4.2 4.9-5.8 2-3.2 3.5-3.5 3.5-.8m-172.6 3q3.5 3.9-1.9 2.5c-2.5-.6-4.8-4-3.8-5.7.6-.9 3.3.6 5.7 3.2M355 382q7.9 3.9 6.6 10.5c-.4 1.9-1.1 3.7-1.6 4-2.1 1.3-17-10.3-17-13.2 0-1.6 2.9-3.2 5.8-3.3 1.2 0 4.1.9 6.2 2m66-1.6c0 1.1-1.9 1.5-2.5.6q-.4-.9.9-1 1.5 0 1.6.4m-281 4q0 3.3-1.5 4-1.7.5-.9 3.1.6 2.5-.6 2.5c-1.2 0-1.1-1.1-.8-3 .3-1.7.1-3-.4-3-1.4 0-.9-3.3.9-5.2q3.4-4 3.3 1.6m87 .6c1.7 2.2 2.9 4 2.7 4-.3 0-2-1.8-3.7-4s-2.9-4-2.7-4c.3 0 2 1.8 3.7 4m9.4-2.5c.6 1.8-2.9 4.1-3.9 2.5-.7-1.1 1.2-4 2.5-4q.7.1 1.4 1.5m29.9 7c3.8 7.8 3.6 9.9-1.3 13a18 18 0 0 1-5 2.5c-1.7 0-1.1-2.5 1-3.8q1.8-1.2 2-3.1c0-1-.9-2.6-2-3.6s-2-2.8-2-3.9c0-2.2 2.6-6.6 3.8-6.6.5 0 2 2.5 3.5 5.5m-65.9-2.3c.9 3.4.7 3.8-.9 3.2q-1.5-.7-3 2.7c-2 4.7-1.9 2.4.2-3.4 1.9-5.2 2.8-5.8 3.7-2.5m236.3.5c.5 1.4-4 6.3-5.7 6.3s-1.1-2.2 1.2-4.7q1.8-2.1 1-2.3-1.1.1-1.2.8c0 .5-1.8 2.3-3.9 4-3.2 2.6-3.8 2.8-3.4 1.2.6-2.3-1.2-2.7-2.1-.5q-.6 1.4-2.1 1.5-1.7.2-.6-1.9c1.2-2.1 5.1-3.5 5.1-1.8q.2.8 2.8-1.6c2.8-2.9 8.1-3.5 8.9-1m-263.4.6q.4 1.4-.4 2.8-.9 1.6-.9-1.4 0-4.5 1.3-1.4m279.7 5.8c0 3.7-.2 3.9-2.9 3.9q-3 0-3.6 2.1-.8 2.1-2.3 1.5c-5.4-1.7-11.8-4-12.1-4.3q-.3-.4.7-1.5 1.2-1.3 2.3-.1c.6.6 1.8.9 2.6.6q1.4-.4 2.3.6.6 1.5 4.5-2.6c2-2.1 4.1-3.8 4.5-3.8q.9 0 1.6-.7c1.4-1.4 2.4.4 2.4 4.3m-39-3.2q.2.8 2 .4c2.5-.7 2.6.8.3 2.3s-6.8-.7-5.1-2.4c1.4-1.4 2.8-1.6 2.8-.3m-185.2 2.8c.6 1 2.5 1.7 4.8 1.9l4.6.3c1.4.2 3.8 6 3.8 9 0 3.2-1.8 8.1-3 8.1-.4 0-2.5 1.4-4.6 3.1-3.2 2.5-4.5 3-7.4 2.5-4.4-.7-7.2-4-6.8-7.9.5-4.6 2.5-4.4 3.3.2.4 2.3 1.1 4.4 1.7 4.7q.9.5.3-3a13 13 0 0 1-.1-5.2c.5-1.4.9-1.4 2.3-.3q1.6 1.4.9.2c-.4-.7-.2-2.2.4-3.3 1-1.8.9-2.1-.7-1.8q-1.8.3-1.7-1.5 0-1.5-.6-1.7c-1.4 0-2-3.1-1-5.1q2-3.5 3.8-.2m-40.8 1.2c0 1.4-6 5.4-6.8 4.6-.4-.4.7-1.8 2.3-3.1q4.7-3.8 4.5-1.5m20.9 13.5q0 .9-1.1-.2c-.7-.7-2-1.2-3-1.2-2.6 0-4.1-3.5-2.2-5.1.8-.7 1.3-2 1.1-2.8l-1.1-3.6c-.4-1.1.9 1.1 2.8 5 1.9 3.8 3.5 7.4 3.5 7.9M406 394.8c0 .4-.8 1.8-1.7 3.2-1.6 2.2-1.4 2.2 2.2-.5 2.1-1.7 3.6-2.5 3.2-1.8q-.6 1.2 1 2.2c1.7.9 1.7 1-.1 3-2.4 2.6-4.2 2.6-8.5 0l-3.5-2.1 2.7-1.6c1.5-.9 2.7-2 2.7-2.4q.1-.8 1-.8t1 .8m-183.4 3.7c-.7 2.6-2.6 3-3.3.8-.4-1.2 2.7-4.7 3.4-3.9.3.3.2 1.7-.1 3.1m208.4-2q-.2 1.4-2 2.5c-1.2.6-2 2.1-2 3.5s-.9 2.9-2.1 3.5c-2.5 1.4-10.9.4-13.5-1.5-1.7-1.2-1.6-1.5 1.5-4.4 4-3.7 5.4-3.9 7.1-.6 1.5 2.8 3.4 2.3 2.5-.6q-.5-1.8.4-1.9t1.1 1.2c.1 1.2 1 .2 2.2-1 2.6-2.5 4.8-2.9 4.8-.7m-254 2c0 1.9-2 2.9-3.2 1.7q-1.2-1.2.2-2.6c1.4-1.7 3-1.2 3 .9m194 1q0 2.7-4.1.4c-1.6-.8-1.8-1.3-.9-2.4 1.5-1.8 5-.3 5 2m-201-.1c0 2.9-1.7 4.5-4.1 3.9-3.4-.9-2.1-5.7 1.6-5.9 2-.2 2.5.3 2.5 2m84.2 5.6c3.9 2.7 7.4 5 7.8 5 .9 0 13 8 13 8.6 0 .2-2.4-1.1-5.2-2.8-8.1-4.8-10.2-5.8-12-5.8-2 0-3.4 1.9-3 4.2q.2 1.6-.7 1.8-1 0-1.1-1.2c0-.6-1.4-2.3-3.1-3.8-2.9-2.4-3.1-2.8-1.9-5 1.1-2 1-2.5-1.1-4.1q-2-1.7-1.1-1.9c.9-.2 4.5 2.2 8.4 5m179.8-1.4q0 1.3-1 .9-.9-.6-1-1.6.1-.8 1-.9 1 .1 1 1.6m-40.5.5c1.1 1.7.2 1.8-1.9.3-1.7-1.2-1.7-1.4-.4-1.4.9 0 2 .5 2.3 1.1M271 406.5q-1.2 1.4-2.2 1.5-.9-.1.2-1.5c1.1-1.4 1.7-1.5 2.2-1.5q.9.1-.2 1.5m-81.3 2.2c-.1 1.6.3 4.6.7 6.8l.8 4-3-3.5c-3.7-4.1-3.7-4.3-1.6-7.5s3.1-3.2 3.1.2m-21.4-1q.5.6-.4 2-1.4 1.4.5 1.3c1.9-.1 1.6 1.2 1.5 7.7 0 11.3-1 15.4-3.6 16.4-2.9 1.1-5.3-1.3-5.3-5.2q-.1-5 2.6-1.2 1.2 1.6 1.9 1.1c.4-.3-.3-1.6-1.4-2.7-2.9-2.9-2.7-5.1.4-5.1q2.4 0 2.5-1.5-.2-1.4-1.5-1.5c-1.8 0-2-2.1-.4-3.7q1.2-1.1 0-3.1c-1.6-3.1-1.3-5.2.7-5.2 1 0 2.2.3 2.5.7m8.5 5.5c-.4 7.4-2.8 7.7-2.8.4 0-4.4.3-5.6 1.6-5.6 1.2 0 1.4 1 1.2 5.2m100.7-2.1c-.4.5-1.6.9-2.8.9-2 0-2 0-.2-1.4 2.1-1.5 4-1.2 3 .5m-72.5 2.5c0 .9-.9 2.9-2.1 4.5s-1.9 3.9-1.6 4.9c.4 1.6 0 2-1.9 2-2.3 0-2.4-.3-2.1-5.7.2-5.1.5-5.8 2.7-6.4 4-1.1 5-1 5 .7m76.6 1.1c-1 1-1.9-.5-1-1.8q.8-1.7 1.2 0 .3 1.2-.2 1.8m-68.6 3.6q-.1.8-1.5-.3c-1.4-1.1-1.5-2-1.5-2.9.1-1.3.3-1.3 1.5.3a8 8 0 0 1 1.5 2.9m-28.5.6q.4.9-.5 1.6-.9.4-1-.9 0-2.8 1.5-.7m-28.5 2.2q.1.8 1 .4c1.4-.8 1.3-.3-1 10.5l-2 9.7q0 .3-.9.3-.9-.2-.1-2.9c.4-1.5.4-3.4 0-4.1s-.4-2.6.1-4.3.6-3.4.3-3.9c-.8-1.2.6-6.8 1.7-6.8q.8.1.9 1.1m89.8 1.5c4.5.7 5.8 2.4 1.8 2.4-3.2 0-4.2 1.7-2.2 3.9 1.8 2 2.1 6.6.6 7.6-.6.4-2.4-.5-4.1-1.9a11 11 0 0 0-6-2.6c-3.4 0-3.5 0-.9-4.2 1.1-1.8 2-4.1 2-5.2 0-1.4.5-1.7 2.3-1.3 1.2.4 4.1.9 6.5 1.3m-27.5 5.4a227 227 0 0 1 11.3 21.3c.4 1.2 1.9 4 3.4 6.2 3.9 5.9 4.2 6.5 3.1 6.5-.6 0-2.6-2.1-4.6-4.8s-4.9-6.2-6.5-7.9c-3.1-3.4-3.8-5.9-1.8-6.5q1-.6.5-2.2-.6-2-3.2-1.2-4.3 1.2-.9-2.6c1.8-1.9 1.4-2.3-3-3-2-.3-2.7-1.3-4.5-6.7-.8-2.7-.8-3.7.2-4.3 1.9-1.2 2.7-.6 6 5.2m57.7-5q0 .9-.9 1-1-.1-1.6-1-.4-1 .9-1 1.5 0 1.6 1m-100.9 6.3q-1.2 1.3-1.1-1.4c0-3.3 1.4-4.7 1.8-1.9.2 1.2-.1 2.7-.7 3.3m15.2-3.5c2.3 2.5 3.5 6.1 4.2 12.6l.6 5.8-2.8-.3c-2.8-.3-6.3-2.5-6.3-3.9q.2-.9 2.5-1.4c3.5-.9 3.1-2.1-.6-2.3-1.8-.1-3.4-.5-3.7-.7-.8-.9 2-3.7 4.8-4.8q2.2-1 1.3-1.5c-.7-.3-2.5.5-4 1.7-2.6 2-2.8 2-3.4.3-1.9-5.3 3.8-9.5 7.4-5.5m-8.9 5.1c-.9 1-2.6-1.8-1.8-3q.7-1.4 1.4.7c.4 1 .6 2.1.4 2.3m109-3.3q1.6.6 1.6 4.3v3.6l-2-2.5-1.9-2.5-2.7 2.5c-2.6 2.5-2.7 2.5-1.5.2q1.3-2.4.1-3.7c-1.2-1.3-.8-1.4.2-1.8 1.9-.8 4.4-.8 6.2-.1m-88.2 2.6c-2 2-1.4 2.8 3.3 4.8 2.5 1.1 4.5 2.3 4.5 2.8s-2.2.9-4.9.9l-4.9-.1-.4-3.8q-.4-5.7 2.6-5.8.9 0-.2 1.2m-25.2 5q-.1.7-1.5.8-1.5 0-1.5-2.8c.1-2.6.1-2.6 1.5-.8a8 8 0 0 1 1.5 2.8m90.4-.1c1.2 1.1-1.1 6.2-2.4 5.4-.6-.3-1-1.5-1-2.5 0-2.9-1.8-3.4-6.6-1.5-2.4.9-4.9 1.3-5.6.9-1.8-1.2 8.2-4.4 11.7-3.7 1.7.3 3.4.9 3.9 1.4m38 3.7c-1.4 2.2-4.4 2.8-4.4.8 0-2.3 3.1-4.9 4.4-3.6q1.1 1 0 2.8m-136.4.9c0 .3-.8 1.5-1.7 2.5-1.3 1.5-1.5 2.3-.6 3.7 1.3 2.1-.5 9.1-2.3 9.1-2.3 0-3.9-3-2.6-5 .9-1.4.8-2.1-.3-3q-1.3-1.1-2 0c-.3.5-1.3 1-2 1-2.1 0-.7-3 2.9-6.2 2.8-2.4 8.6-3.9 8.6-2.1m6.4 2.4q-.6.8-1.5.3t-.3-1.5q.6-.8 1.5-.3t.3 1.5m111.6-1.2c0 1.5-2.9 3.3-4.1 2.5q-1.4-.7.6-2.1 3.4-2.3 3.5-.4m9.4 1.4a19 19 0 0 1 3.6 7c1.5 5 2.6 5.8 7.8 5.3 1.7-.1 3.2.1 3.2.6q0 .7-1 .8a1 1 0 0 0-1 1c0 1.5-3.3 5-4.7 5-1.7 0-1.6-1.5.2-3q1.3-1.2.9-2.1c-1.2-2-4.9-.7-8.4 3.1-4.3 4.7-7.7 5.3-8.5 1.5l-1-5c-.6-2.8-.3-3 2.7-1.4 2 1.1 2.1.9 1.5-2.5-.4-2.7-.2-3.8 1.1-4.6q1.5-.9.7-1c-.5 0-2.1-.9-3.5-1.9-2-1.6-2.2-2.1-1.1-3.5 1.9-2.3 4.8-2 7.5.7M188 443.9l4.1 2.9-2.3 1.6q-4.1 2.8-6.6.4c-1.8-1.8-1.5-7.8.5-7.8.2 0 2.1 1.3 4.3 2.9m15.5-2q.4.9-.5 1.6-.9.4-1-.9 0-2.7 1.5-.7m56.3 5c-1.5 2.4-.1 5.6 2.3 5.6a3 3 0 0 1 2.1.9q.8.9 2.4-.5c1.6-1.2 1.7-1.2 1.1.3-1 2.8.8 2.9 4.6.4 3-2 3.6-2.2 4.1-.9 1 2.5.7 3-2.6 4.4q-5.6 2.3-8.8-.7c-.9-.7-3.2-2-5.3-2.9-4.3-1.8-4.7-3.8-1.5-7.2 2.5-2.7 3.5-2.4 1.6.6m-87.8 9.5c0 11.8-.9 10.5-1.4-1.8-.2-5.4.1-9.2.5-8.4s.9 5.3.9 10.2m152-9.5q-.1.8-1.5 1.5c-1.5.5-2-.5-.8-1.7.9-1 2.3-.9 2.3.2M216 451c0 .4-1.7.7-3.7.7-2.1 0-4.3.2-4.9.4-2.2.8-1.7-1.6.6-2.8s8 0 8 1.7m48.7-.8q-.5 1.1-.6-.6t.5-1.3q.5.6.1 1.9m-112.1 1.5c-1 1-1.9-.5-1-1.8q.8-1.7 1.2 0 .3 1.2-.2 1.8m44.8.9q.6 1.3 1.5.9c1.2-.7 4.4 9.3 3.5 10.7-.3.5-1.4.2-2.4-.7-2.4-2.2-4-1.1-4 2.6 0 3.6-1.7 3.8-3 .4-1.2-3.2-3.5-4.1-5.7-2.4q-1.4 1.2-1.2.4l2.2-5.5c1-2.6 3-5.3 4.5-6.2 3.5-2.1 3.9-2.1 4.6-.2m-20.4.4q-.2.9-1.5 1c-1.3.1-1.5-.5-1.5-1q.1-1 1.5-1c1.4 0 1.5.4 1.5 1m-25.7 4.3q-.8 1.3-3.8.6l-3-.6 3.3-1.3c1.7-.6 3.3-1.7 3.3-2.3q.2-1 .6.5.3 1.7-.4 3.1m25.2 1.6q-.6 1-1.7 1.1-1 0 .2-1.5c1.4-1.7 2.6-1.3 1.5.4m108-.7q4.6 2 .3 3.1c-2.4.7-4.8-.8-4.8-2.9 0-1.7 1.1-1.8 4.5-.2m-55.2 4.8q2.9 1.3 2.1 2.9c-.8 2-2.6 7.2-3 8.9-.5 1.8-2.4.5-2.4-1.7q0-4-5.7-4.1c-4 0-4.4-1.7-.5-2.6 4.8-1 5.2-1.3 5.2-3.5q0-1.8.8-1.7zm-71.3 3.4q-.1.7-1.5-1c-.8-1-1.4-2.4-1.4-2.9q.1-.8 1.4.9a8 8 0 0 1 1.5 3m86 .5c0 .9-.5 2.2-1.2 2.9-1.4 1.4-4.8-1.2-4.8-3.8 0-1.3.7-1.6 3-1.2q3 .5 3 2.1m-93.2 3.1c.1 2.8-.2 5-.8 5-1.1 0-1.4-5.9-.4-8.4q.6-1.5.8-1.6c.1 0 .3 2.2.4 5m61.9 5.1c2.3 1 4.3 2.3 4.3 2.9 0 1.5-.8 1.3-5.5-2-2.4-1.7-4.9-3-5.5-3-1.9 0-2.1 2.5-.5 6.3.8 2 1.3 3.7 1 3.7-1.2 0-3.3-6.1-3.9-11.5l-.7-6 3.2 3.9c1.8 2.1 5.2 4.6 7.6 5.7m36.2-6.5c-1 1.2-.8 1.3 1.7.4 1.5-.6 3.9-.9 5.1-.5 5 1.2 1.7 14.1-4.5 17.7-6.1 3.6-10.7 1.3-10-4.9.4-3.7 2.1-3.8 4.1-.3 2.4 4.1 4.1 3.8 1.8-.3q-3-5.6.9-5.7c1 0 2.1-.4 2.4-.8s-1-.6-2.8-.4c-2.8.3-3.2.1-3.1-2.2.2-3.2 2.2-5.6 4.1-4.9q1.6.4.3 1.9m-83.4-.6q.4.9-.9 1-1.5-.1-1.6-1 0-1 .9-1t1.6 1m12.5 0q-.1.9-1.6 1-1.3-.1-.9-1 .6-1 1.6-1 .8 0 .9 1m-6.1 6.7q-.1 7.2-.8 3.8c-.4-1.7-.6-4.6-.5-6.5.3-4.1.3-4 .9-4 .3 0 .5 3 .4 6.7m67.1-4.6c1.3 2.2.7 4.9-1 4.9-.6 0-1.5-1.2-2-2.6-1.7-4.3.9-6.2 3-2.3m-50 2.4q0 1.3-1 1.5-.9-.2-1-1.5c-.1-1.3.5-1.5 1-1.5q1 .1 1 1.5m90 3.6q0 1.8-1 1.4c-.5-.3-1-1.3-1-2.1s.5-1.4 1-1.4q1 .1 1 2.1m-11 2.3c0 .3-1.3 1.1-3 2-3.2 1.6-3.3 1.5-2.4-.8.5-1.4 5.4-2.4 5.4-1.2m4 4.4c0 1.3-1.2 2.2-2.2 1.6s-.1-2.4 1.3-2.4q.8.1.9.8m-41.7 1.9c3.7.5 6.4 3.3 5.2 5.3-.3.6-2.4 1-4.6 1-2.9 0-4.1-.5-4.6-1.8a15 15 0 0 0-2.7-4.1l-2.1-2.4 2.5.8c1.4.4 4.2.9 6.3 1.2m-26.3.8c.7.8 2.5 1.5 4 1.5 1.7 0 4.4 1.3 7 3.5 5 4.2 7.4 4.9 14.6 4.3 5.3-.5 5.5-.4 4.9 1.6-4.2 13-4.3 21.2-.7 30.9a89 89 0 0 1 5.4 31.5l.2 11.7-3.6 6c-2 3.3-5.3 7.1-7.3 8.4-4 2.7-11.4 4.4-13.1 3-1.1-.9-2.7-6.9-7.9-29.9a97 97 0 0 0-9.8-28.9 45 45 0 0 1-5.8-19 108 108 0 0 0-3.9-19.5c0-.7 11.9-6.4 13.6-6.5.6-.1 1.7.6 2.4 1.4m69.9 4.4c.6 1 1.3 3.7 1.7 6l.7 4.1h-3.6c-2 0-3.8.4-4.2.9-.7 1.3 2.3 4.1 4.5 4.1 1 0 3.1.7 4.6 1.5 1.6.8 3.8 1.5 4.8 1.5 2.7 0 15.4 7.8 16.7 10.3.6 1.1 2.6 4 4.5 6.4 10.4 13.6 13.3 27.6 8.2 38.6l-2.7 5.8-5.8-4.7a53 53 0 0 1-6.1-5.5c-.4-1-10.4-8.9-19.7-15.4-3.8-2.7-11-8.3-15.8-12.5s-9.8-8-10.9-8.7c-2.2-1.2-6.6-9.5-6.7-12.6a14 14 0 0 0-1.8-4.7c-1.5-2.5-1.5-3.4-.3-7a12 12 0 0 1 2.4-4.8c.6-.3 5-.7 9.9-.8 6.4-.2 9.8-.8 12.5-2.2 4.8-2.5 5.9-2.6 7.1-.3m-34.9 18c.5 1.1 1 3.1 1 4.5s.4 2.7.9 3.1 1.2 1.9 1.6 3.5c.8 3.5 4.7 7.1 23.7 21.6 18.3 13.9 36.8 30.1 36.8 32.3s-2.1 4.9-4 5.1c-4.3.6-5.6-.1-6.8-3.4-3-8.3-5.8-7.1-11.9 5.2a63 63 0 0 1-6.3 11 21 21 0 0 1-10.5 4.6c-2.2.4-5.6 1.7-7.5 3-5.3 3.4-7 3.8-7 1.8 0-1 .6-2.7 1.4-3.8 1-1.4 1.4-5.2 1.3-14.4l-.1-12.4-4.7-4.7-4.7-4.7-.1-8.7a55 55 0 0 0-3.8-23 37 37 0 0 1-2.9-19q1.2-5.9 3.6-1.6m88.3 33.1c-.1 1.4-.7 5-1.2 8-2 10.5-2.5 17-1.2 17s3.8-5.2 4.7-10.5c.6-3.6.7-3.8 1.4-1.5.4 1.4 1 4.6 1.3 7.2.6 4.5.5 4.7-2 5q-2.6.1-4.7 4.3-4.7 9-7.8 10.6c-1.6.9-2.5.6-4.8-1.6-1.6-1.5-3.1-2.7-3.4-2.6l-2.1.1c-2.4 0-1.7-1.8.8-2.2 1.6-.2 3.3-2.4 6.7-8.8 4.2-8.1 4.4-9 4.8-18.3l.4-9.8 3.7.3c3.2.3 3.6.6 3.4 2.8m148.8 6.8c-.6 1.1-.8 2.2-.5 2.4.4.5.8 2.5 2.8 14.8l1.8 9.6c.9 5 .9 6.9-.2 9.5-2 4.9-8 13.9-9.4 13.9-.6 0-2.3 1.1-3.8 2.5-2.4 2.2-4.8 3.3-4.8 2.1l1.1-3.3c1.6-4.2 3-27.7 1.9-33.2-1.3-6.7.1-11.5 4.6-16 5.2-5.1 8.7-6.4 6.5-2.3m10.3 13.7q.4 1.3-.4 1.5-1-.2-1-1.5c0-1.3.2-1.5.4-1.5s.6.7 1 1.5m-125.8 25.9c10.4 10.4 10.7 11.7 4.1 16.7a71 71 0 0 0-6.7 6c-2.5 2.8-2.6 2.8-7 1.4l-7.2-1.9q-4.4-.9-1.7-5.7c.8-1.5.6-2.7-1.1-5.4q-2-3.3-1-4c1.8-1.1 1.1-4.7-1-5.2q-1.8-.5-2.1-1.2a82 82 0 0 1 .3-17.7c.4-.3.8-2 .8-3.7.1-3.2.1-3.2 6.8 4.2 3.7 4.1 10.8 11.5 15.8 16.5M488 567.5q0 1.3-1 1.5-.9-.2-1-1.5c-.1-1.3.5-1.5 1-1.5q1 .2 1 1.5m-82.5 1.5c1.7 1.1 4.7 2 6.8 2 3.5 0 4.8 1.2 2.7 2.5-1.9 1.2-1 4.5 1.6 5.7 2.1 1 2.7.9 3.4-.3 1.1-1.6.3-5-1.4-6.1q-1-.7-.5-1.2c.9-.9 6.7 2.5 10.9 6.4 3.7 3.4 4.1 4.3 3.8 7.7-.3 3.7-.2 3.8 3.5 4.1q3.6.3 3.7 1.8c0 1.7-1.4 1.7-6.3 0q-6.3-2.2-3.2 2c2.4 3.1 1.8 8.9-1.5 15.3-2.6 4.9-3 6.5-2.4 10 .4 2.3 1 4.4 1.5 4.6.4.3 1.1 2.7 1.5 5.3s1.2 5.6 1.9 6.8q1.3 2 .9 8.5c-.7 9.1-1.1 10.4-3.9 13.7-3.4 4.1-1.5 5.1 3.5 1.8q3.9-2.5 4.3-1.3c.6 1.8 3.5-.9 3.9-3.5.5-3.5 2.8-3.4 2.8.1s1.4 4 3 1.1c1.9-3.5 3.3-1.1 2.7 4.6-.4 4.2-.2 5.4.8 5.4q1.4-.2 2-2c.3-1.1 1.1-2 1.6-2 1.8 0 5.8 5.5 5.9 8 0 1.4.7 3.6 1.6 4.8 1.7 2.5 4.9 3.1 4 .7-.7-2 2.7-2 4.4 0 1.1 1.3 1.5 1.3 2.1.3s1.2-.9 2.6.4c1.5 1.6 1.5 1.8.1 1.8q-1.5.1-2.2 1.5-.6 1.3-2.1 1.5c-1.9 0-1.9 3.8 0 6.4q1.5 2 1.5 9.2c0 5.6.5 8.1 2.1 10.9q2.1 3.6 1.6 6.4c-.3 1.5.1 5 .9 7.6 1.5 5.1 1.9 12.7.7 13.9-.4.4-.6 2.4-.4 4.6.2 3.2-.3 4.5-3.5 8-4.5 4.9-7.1 6.1-9.9 4.6l-2.3-1.3a45 45 0 0 1 5.9-6.1l6.3-5.9-1.3-6.9c-1.6-7.9-3-11.1-6.1-13.9a51 51 0 0 1-10-17.4c0-1.2-.7-3.6-1.6-5.3s-1.9-5.2-2.3-7.7c-.7-5-3.7-7.1-4.3-3.1-.3 2.1-.4 2.1-4.3-.8l-6.1-5.1c-1.2-1.2-3-2.1-4.1-2.1-1.2 0-2.4-.7-2.7-1.6q-.6-1.5-2.5-.9c-1 .3-2.4-.1-3.1-1q-3.4-4-2.5 2.5c.6 3.3.4 4-.9 4-2.2 0-3.1-2.7-1.6-4.5q2.1-2.7-2.4-4.4-2.1-.8-2.1-3.6c0-3.7-2.2-4.4-3.5-1.1l-1 2.6-2-2a8 8 0 0 1-2-4.9c0-3.3-1.2-4.4-4.8-4.6q-4.4-.3-2.1 3.7c1.2 2.3 1.2 2.3-.9.5-2.1-1.9-4.8-1.5-3.6.5q.6 1-1.5.3a4 4 0 0 0-3.7.6c-1.8 1.4-8.9 1.6-10.6.1a82 82 0 0 0-26.9.8c-1.3.7-3.1 1.8-3.9 2.5s-3.1 1.5-5.1 1.7c-3.6.4-3.6.3-3.6-3.4 0-3.5.3-3.9 3.6-4.8a56 56 0 0 0 14.9-4.3c6.1-2.6 10-3.5 17.1-4.1 5.9-.4 9.7-.3 10.5.3q1.2 1.2 3.2-.4c1.8-1.3 1.8-1.4.1-2.7-1.8-1.3-1.7-1.5.3-4.1 1.7-2.1 1.9-3.1 1.1-4.1q-1.4-1.5.9-1.9c3-.8 2.4-2.7-.9-2.7-4 0-8.3 4.2-7.6 7.3s-2.9 5.7-8 5.7c-3.2 0-3.5-.3-3.5-2.9 0-3.5-2.4-5.9-4.3-4.2-1.9 1.5-2.9.3-1.6-2 .7-1.5.4-2.6-1.3-4.9-2.2-3-3.8-3.9-3.8-2q0 .9-1 1-.9-.1-1-1.8c0-4.1-16.1-16.2-21.7-16.2-.8 0-2.4-.6-3.6-1.2s-3.1-1.3-4.2-1.3q-1.9-.1-1.7-1.4c.1-.7-.3-1.9-.9-2.7-.9-1.1-.8-1.9.6-3.4 1.7-1.9 1.7-2-.2-2s-7.3 4.4-7.3 5.9c0 1.6 5.9 6.2 9.5 7.4 3.4 1.2 4 1.9 4.3 4.6.5 4.4-3.2 11-8.2 14.6a22 22 0 0 0-5.6 6.2c-1.6 3.5-3 3.9-7.9 2.2-4.1-1.4-9.7 0-13.9 3.6-1.6 1.4-4.7 3-6.8 3.7a9 9 0 0 0-5.2 4 6 6 0 0 1-4.5 3.3c-1.7.4-4 1.4-4.9 2.3-1.3 1.1-4.5 1.6-11.4 1.8l-9.6.3.5-3.2c.3-2.3-.4-4.7-2.6-8.7l-3-5.5-.3-21.4-.2-21.3 5.3-2.3c2.8-1.3 7.2-2.9 9.6-3.5 8.4-2.3 11.2-4.4 15.5-11.7 2.2-3.7 4.5-8 5.2-9.6.6-1.5 1.5-2.7 2-2.7s2 2.5 3.5 5.5c2.6 5.3 2.8 5.5 6.6 5.5 2.2 0 4.3-.5 4.7-1.1q.7-1.2-2.4-.4c-3.3.7-5.4-1.1-3.1-2.6 2.3-1.6 10.2.1 13.9 2.9 4.2 3.2 9.9 6.2 11.8 6.2s9.2 5.9 9.2 7.4c0 .7.9 2.1 2 3.1s2 2.6 2 3.7c0 1.5-.5 1.7-2.5 1.2q-2.5-.6-2.5.5c0 1.6 5.5 4.7 10.8 6.1 6.4 1.6 15.1 5.7 15.8 7.4.6 1.6 10.7 9.4 12.6 9.7 2.3.5 8-1.3 12.6-3.7l4.9-2.4c.1 0 .2 1.5.1 3.2-.3 3.1-.1 3.3 2.7 3 5.7-.7 5.9-1.5 4.1-22-.4-4.6 1-5.8 2-1.7.7 2.9 1.1 3 3.5.9 1-.9 1.5-2.3 1.2-3.2q-.6-1.5 3-4.6l3.7-3.1-1.5-5.3c-.9-2.8-2.1-5.6-2.8-6.2l-4.2-3.5-3-2.5 4.5 1.4c2.5.7 5.2 1.7 6.1 2 3.2 1.4 3.2-1.6 0-4.1-3.5-2.7-6.5-7.8-5.6-9.3.9-1.4 1.6-1.3 5 1m-160 2.1c2.8 5.3.5 10.7-7.9 19-3.3 3.1-3.7 3.9-2.4 4.4 2 .8 5.8-1.1 7.6-3.7 1.1-1.6 5.2-2.6 5.2-1.3a36 36 0 0 1-7.4 12.7c-1.1.6-3.3 2.2-4.8 3.5-2.2 2.1-3.2 2.4-6 1.8-1.8-.4-6.1-.9-9.6-1-6.9-.4-8.2-.9-6.4-2.7 1.7-1.7 1.5-2.3-1.3-3.6q-2.3-1.1-2.5-2.2.1-1 2.5-.4c3.8 1 3.1-1.5-1-3.2-4.3-1.8-5-5.1-.7-3.8 3.9 1.3 13.5.9 16.3-.6 7.3-3.9 14.9-13.5 14.9-18.8 0-1.7.8-3.2 1.6-3.2.2 0 1.1 1.4 1.9 3.1M322 584q-.1.9-1.1 1-.8-.1-.4-1 .6-1 1.1-1 .4 0 .4 1m166.1 16.7q-1 2.2-1.1.2c0-1.7 1-3.2 1.8-2.5q.2.6-.7 2.3M244 610c0 .5-1.1 1-2.4 1-3.5 0-4.2 1.8-1.1 3 1.4.5 2.8 1.5 3 2.2s.9 9.4 1.4 19.3c.8 16.1.7 18.1-.8 19.2-1.5 1.2-1.5 1.4.1 2.3q1.6 1 1.1 2.6-.4 1.5 1.6 3c2.6 1.9 2.7 4 .2 5.4-2.6 1.4-2.8 1.3-3.4-1-.3-1.1-1.4-2-2.4-2q-4.1 0-2.2 2.7c1.7 2-2 1.7-4.3-.3-1.4-1.3-2.1-1.4-3.2-.5-.8.6-1.8 1.1-2.2 1q-3.8-.6-2.9 2c.5 1.7.2 2-2.2 1.8s-2.8.1-2.5 2.2c.3 2 0 2.3-1.5 1.7-3.2-1.3-3.8-1.1-3.7 1.1q.1 2.4-1.9 2.3c-1 0-2.1.9-2.4 2-.3 1-2 2.8-3.9 3.9a72 72 0 0 1-18.8 6.1c-2.5 0-1.9-2.4 1.4-4.8 1.6-1.2 4.9-4.8 7.2-7.9 5.3-7 9.8-11.2 12-11.3 2.4 0 7.7-6.9 8.4-11a39 39 0 0 1 1.8-6q1.2-2.5.6-14c-.3-6.7-.1-12.2.4-13.2q1.2-1.6-.8-3.7c-1.9-2.1-1.9-2.1.8-2.1q3 .2 2.4-1.8-.1-1.7-4.6-2c-6.3-.5-5.1-1.9 2.1-2.4q9.7-1 8.2 3.2-.6 1.8 2 3.8c2.3 1.8 2.5 2.3 1.3 4.2-1.1 1.8-1 2.3.6 3.6 2.5 1.8 4 1.8 5.6-.1 1.1-1.3.9-1.9-.8-3.8s-1.9-2.9-1.3-6.3c.4-2.2 1.1-4.6 1.5-5.2.9-1.5 5.6-1.6 5.6-.2m234 2q0 .9-.4 1-.5-.1-1.1-1-.4-1 .4-1 1 0 1.1 1m-13 3.6q.1 2-1.5.4-1.4-1.2-1.5-1.6.1-.4 1.5-.4c1.4 0 1.5.7 1.5 1.6m8.5 3.4c-.2 2.7 0 5 .5 5 2 0 4-1.3 4-2.6q0-1.3.8-1.4c.4 0 .7 1.1.7 2.4s-.4 2.2-1 1.9q-.8-.4.2.7c1.3 1.5 3.6.4 2.7-1.3q-.5-1.1.1-.4c1.3 1.1 1.3 4.7.1 4.7q-.9.1.4 1 2 1.1-.2 1c-.9 0-2.8-.5-4.2-1.1-3.3-1.6-7.2.9-9.3 5.8-1.3 3.2-1.3 3.8 0 5.1 1.8 1.7 3.7.8 3.7-1.8q-.1-5.2 4.1-5c3.1 0 3.9 1.4 1.4 2.4-3 1.1-1.4 2.4 2.8 2.1l4.2-.5q.2-.3 2.2-.5 2.2-.5 2.5 2.5c.4 2.7.3 2.7-2.9 1.8q-3.5-.9-6.9.2c-4.7 1.6-4.3 3.2.6 2.4s5.5.9 1 2.5c-4.4 1.5-4.1 5.2 1 10 2.8 2.7 4 4.6 4 6.6 0 2.6-.1 2.7-1.7 1.2-1-.8-4.3-2.4-7.3-3.4-7.9-2.7-8-2.7-7.7-8.6.1-2.9-.2-5.3-.8-5.4q-.9-.1-1 1.7c-.1 3.2-1.4 3.5-2.5.5q-1.2-2.8.2-4.4 1.8-2-.4-.3-3.6 2.7-3.8-2.9c0-2.5.3-2.9 1.9-2.4s1.9-.1 2.5-3.5c.4-2.4 1.7-5.2 3.1-6.6 3-3 3.1-3.4.7-3.4-1.1 0-2.7.9-3.7 2s-2.6 2-3.6 2-2.5 1-3.3 2.2c-1.5 2.1-6.6 3.5-6.6 1.7q.2-.8 2-.9c1.8-.1 2-.5 2-1.1q0-.8-1-.4c-1.5.9-1.2-1.9.5-4.1q1.8-2.4.9-.2c-1.1 3.2.5 1.9 2.5-2 1.7-3.2 2-3.4 2.1-1.3 0 2 .2 2.1 1.5 1.1q1.4-1.2 1.5-2.6 0-1.2 1.2-2 1-.6.4.4-.7 1.4.4 1.2 1-.2 2-2.5c1-2.3 1.4-2.5 2-2.5q1 .1.4 1.1-.6 1.1.7.7 1.3-.6 1.1-2.2-.2-1.5.7-1.6c.6 0 .8 2.1.6 5m3-3q.4.9-.4 1-1-.1-1.1-1 0-1 .4-1t1.1 1m-30 3c-.3.5-1.2 1-1.8 1q-1 0 .3-1 2.8-1.8 1.5 0m-102.8 3.1c4 2.5 6.6 6.9 5.2 9-.5.8-.9 2.7-.9 4.2 0 3.2-.1 3.2-11.1 5.6-4.6 1-9.2 2.2-10.1 2.6q-1.9.8-1.8-.9c0-.8 2.5-3.4 5.5-5.6 6.4-4.7 7.5-6.5 7.5-11.8 0-5.8.7-6.2 5.7-3.1m142 .5c-.7.7-3.7-.7-3.7-1.7q.1-.9 2.1.1 1.9 1.2 1.6 1.6m11.1 6c-.3.3-1.7.2-3.1-.2-2.9-.7-3.1-2.5-.4-3.6.9-.4 1.8-1.8 1.8-3q.2-2 1.2 2c.5 2.3.8 4.5.5 4.8m-55.1 2c.2.7 0 2.1-.6 3.2s-.7 2.2-.4 2.6q.7.7.9 2.2t-1.1.4c-.7-.6-1.2-2.3-1-3.8a5 5 0 0 0-1.8-4.4c-2-1.8-2-1.8.8-1.6 1.5.2 2.9.8 3.2 1.4m53 5.7q1.1 0 .7.9-.4.7.3.8c.9 0 1.6 8.7.8 10.1-.7 1-3.5 0-3.5-1.3q.1-.9 1.6-.4 1.3.5.9-.4c-.9-1.4-3.2-1.2-3.8.2q-.5 1.2-.6-.5 0-1.5.9-1.7 1 0-.1-2.1c-.6-1.2-1.2-3.2-1.4-4.6q-.4-2.7 1.4-1.7c.9.3 2.1.7 2.8.7m-134.4 4.4c-2.6 2.7-3 2.8-5.5 1.6-3.9-1.9-2.6-3.9 2.1-3.5 2.2.2 4.2-.1 4.6-.8q.7-1 1.1-.7c.3.2-.8 1.7-2.3 3.4m95.1.2c-.1 4-2.4 6.3-4.7 4.6-1.9-1.3-2.3-3.5-.7-3.5q1-.1.8-1.3-.1-1 1.5-1.1 1.5.1 1.7-.7 0-.8.8-.9c.4 0 .7 1.3.6 2.9M347 645.4c2.6.8 4.5 1.9 4.4 2.7-.1 1 1.1 1.3 4.5 1.1 4.3-.3 4.5-.2 2.6 1.3a30 30 0 0 1-7.5 3.1l-8.6 2.5c-5.3 1.6-6.7 1.2-6-1.6q.6-2.5-.6-2.5-.9-.2 1.7-1.5 2.7-1.2 2.3-1.4-.9-.1-1.1.1-.5.2-2.3-1.2-2.6-2.1-.5.2c1.2 1.6 1.1 1.8-.3 1.8-1.8 0-2.2-2.5-.4-3.6.6-.4 2.5-1.1 4.2-1.5l3.1-.8zm109.3 8.2c2.6 2.8 4.4 5.4 4 5.7-1.1 1.1-3.3.8-3.3-.5 0-.6-1.1-2.5-2.4-4.2a17 17 0 0 1-2.4-4q-.1-.9-1.4-1.8-1-.8-.3-.6c.6.2 3.2 2.6 5.8 5.4M325.5 652c-.1 1.6.2 2.7.6 2.4q.7-.3 1.3.4c.7 1.2-10.5 2.5-11.6 1.4q-.5-.7 1-.9c2.3-.1 6-1.1 7.2-1.8 1.5-.9.2-2.5-1.5-1.8q-1.4.4-1.5-.4 0-2.2 3-2.3 1.7-.1 1.5 3m7.9-1.5q.6 1.5-1.4 1.5t-1.4-1.5q.7-1.3 1.4-1.5.7.2 1.4 1.5m104.4 2.8c-1.3 2.6-2.1 1.5-1.2-1.8q.7-2.8 1.5-1.4c.4.7.3 2.1-.3 3.2m24.2-1.1q-.2.9-1.5-.2c-1.3-1.1-1.5-1.7-1.5-2.2q.1-.9 1.5.2c1.4 1.1 1.5 1.7 1.5 2.2m21-2.2q-.1.9-1.1 1-.8-.1-.4-1 .6-1 1.1-1 .3 0 .4 1m13 1q0 .9-.4 1-.6-.1-1.1-1-.4-1 .4-1 1 0 1.1 1m-167.3 1.5q0 1.3-.9 1.5c-1 0-1.1-1.4-.1-2.3q1.2-1.6 1 .8m-22.5 1c.8-.3 2.1.1 2.8 1q1.6 1.6-.3 1.5c-2.3 0-6.7-2.2-6.7-3.3q.1-.7 1.4.2c.7.6 2 .9 2.8.6m13.8-1.1q-.1.4-1.6 1-1.3.5-.9-.4c.6-1 2.5-1.4 2.5-.6m168.2 2.3c1 .9 1.8 2.6 1.7 3.7q0 2.2-.6.6c-.3-.8-1.5-2.5-2.6-3.8-2.4-2.5-1.2-3 1.5-.5m-23.2 5.2q0 1.2.7.8c1.1-1.1 3.3 1.4 3.3 3.7-.1 2.7-2.6 6-3.9 5.1-.6-.3-1.1-1.9-1.1-3.5s-.5-3.2-1.2-3.6q-1.2-.7-.4 1.2c.7 1.9.7 1.9-1.1 0q-2-1.9-.5-2.3c.6-.3 1.2-1.9 1.2-3.6.1-3 .1-3.1 1.5-1.3a7 7 0 0 1 1.5 3.5m-168.3-2.5c1.5.8 5 2 7.7 2.8 4.9 1.3 5.8 2.4 5.7 7q.1 1.6 1.5 1.8c1.4.2 1.3-.4 1-.9q-.4-.8.7-.8c.6.1 3-.4 5.2-1a58 58 0 0 1 15.5-2.6q.3.4-1 1.3-1.5 1-.2 1c.7 0 1.2 1.3 1.2 3 0 2.6-.3 2.9-2.5 2.8q-2.3-.2-2.5-1.1-.1-.6-1.6.7a9 9 0 0 1-4.1 2.2c-3.3.9-12.5-.3-13.3-1.7q-.7-1-1.4.6-.6 1.8-2.9 1.1l-4.2-1.2c-1.1-.4-4-.8-6.5-.9-5.2-.4-12.3-2.8-12.8-4.3-.5-1.6 2.7-2.9 8-3.5 4.1-.4 4.7-.3 5 1.5.2 1.2 1.4 2.5 2.8 3q2.1.8 1.7.2c-.4-.4.3-1.8 1.5-3.1 2.7-2.9 1.6-4.3-4.4-5.8-2.3-.6-4.3-1.6-4.6-2.3q-.7-2.4 4.5.2m183.6 7.9q3.6 3.2 2.9 4.4c-1.1 1.7-5.9-.5-6.5-2.9q-.4-1.7-2.7-1.1c-2 .5-2.1.4-1.1-1.6 1.6-2.9 2.9-2.6 7.4 1.2M102 667.7q-1.5 2.6-.6 0l.7-3q0-1.4.5 0c.3.7 0 2-.6 3m-4.5 1.8c-.1 2.5.2 4.5.7 4.5q.7-.1.9-1.3c.1-1.4 1.7 2.2 1.8 4q0 1.2-1.4 1.3-1.3 0-1.5 1t-2.5 1.6q-2.4.6-2.5 2.5v2.5c0 .4 1.6.8 3.5.9 2.8.2 3.5-.2 3.5-1.7q0-1.8 2.2-1.8c2.1 0 2.1 0 .2 1.5-1.5 1.2-1.6 1.6-.6 2.3q1.6 1-1.8 1.6-8 1.7-12.4-1.3c-1.6-1.1-3.5-1.7-4.2-1.4q-1.3.4-1.4-.6c-.1-1 1.2-1.6 2.6-2.1 4.9-1.9 9.6-6.2 9-8.3-.2-1.1.2-3 1.1-4.3.8-1.3 1.3-3.1.9-3.9q-.4-1.4.8-1.5 1.5-.1 1.1 4.5M376 671q0 2.7.9 1.1t2 .5q1 1.7 1.1.8c0-.7 1.5-1.5 3.4-1.8s4.5-1.5 5.7-2.5c2.2-1.7 2.5-1.8 4.9-.2l4.5 2.8q2 1.1 1.8 3.7c-.1 1.4.2 2.6.8 2.6q.8-.1.9-1 0-1.2 1.8-.1c1.3.7 2.2.5 3.9-1.1 2.1-1.9 2.3-2 2.9-.4.4 1 .2 2.2-.3 2.7-1.3 1.3-24.5 0-23.6-1.3q.4-.9-1.3 0c-1.1.5-7 1-13.2 1-6.2.1-11.7.4-12.2.7q-.8.4-1.5-.5c-.3-.5-1.1-1-1.6-1q-1 .1-.5.8c.3.5-.8.9-2.5 1s-4.4.4-6 .7c-1.6.4-2.9.3-2.9-.2 0-1 9.1-5.9 10.2-5.6q.7.2.8-.6c0-1.1 3.8-2.1 5.6-1.4q1.7.5.3 1.9-1.2 1.4-.1 1.4c.6 0 1.7-.8 2.4-1.8s2.7-2.4 4.5-3.1 3.8-2 4.4-2.8c1.5-1.8 2.9-.1 2.9 3.7m-269-1.1q.9 1.9.1 2.5-.9.3-1.3-1.9-.9-4.5 1.2-.6m80-1.6a9 9 0 0 1-1.9 2.1q-1.9 1.7-2.6.7-.4-1 1.7-2c2.8-1.2 2.8-1.2 2.8-.8m68.7 1.7c-.3 1 0 2.1.7 2.4q.8.4-.6.5c-1.9.1-2.2-.7-1.2-3.3.9-2.3 1.7-2 1.1.4m11.8-1c-.3.6-2 .8-3.8.5q-7-1.4.2-1.5 4 0 3.6 1m4.1.2q.5 1.1-.4 1.6-1.1.4-.6 1.3.4.8-.5.9t-1.1-.9c-.1-.9-1-.7-2.2-.5q-3 .7-.3-.5c1.1-.4 2.4-.6 2.9-.3s.7-.2.3-1.1c-.7-1.9.8-2.3 1.9-.5m-169.5 4.1q-1.1 1.2-1.1-.4c0-2 1.3-3.4 1.8-1.9q.3 1.2-.7 2.3m9.4-1.3q.4.9-.9.4-2.7-1.2-.7-1.4 1 0 1.6 1m167.5-.1q.4.2-.8 1c-1.5.9-6.4.2-5.8-.8.4-.5 4.2-.6 6.6-.2m200 2.2q0 .9-1 .4c-.5-.3-1-1.1-1-1.6q.1-.9 1-.4a2 2 0 0 1 1 1.6m-372.5 1c1.1 1.7-.1 2.1-1.5.4q-1.1-1.4-.2-1.5 1 .1 1.7 1.1m142.5.4c0 1-4.4 4.4-5.2 3.9q-2.2-1.4 2-3.1l3-1.2q.2-.1.2.4m-138.5 2.6q-.5.8 1.1.9 1.9-.1.5 1.4t.5 2c1 .4 2.2.1 2.8-.5q1.2-1.2-.1-1.6c-1.8-.6-1.6-2 .2-2q1.3.1.9.8-.3.7.5 1.4c.6.3.8 1.2.5 1.9q-.4 1.4 1.5 2.1c3.1 1 2.5 3.4-1.2 5q-7.1 3-4.2 5.5c1.2 1 2.3.8 5.8-.9 2.4-1.2 4.9-2.1 5.5-2.1q1.2-.2 2.4-2c2-3.1 4.8-2.6 4.8.9 0 1.7.5 3.3 1.1 3.7 1.5.9-.8 2.4-3.8 2.4-1.1 0-5.4 1.1-9.5 2.5s-8.3 2.5-9.6 2.5c-2.1 0-6.8 1.2-15.4 3.9-2.1.7-3.1.4-4.8-1.4-2.4-2.5-2.1-3 4.8-6.4 3.9-2 4.6-2.1 6-.8 1 .9 3.3 1.4 5.2 1.3 3-.1 3.5-.5 3.8-3 .4-2.9-2.1-6.6-4.5-6.6-1.9 0-1.6-2.3.6-3.7 1-.7 2.1-2.9 2.5-5.3.4-2.3 1.1-3.8 1.6-3.5q1 .7.5 1.6m189.3.4c4 .9 7.7 1.3 8.2 1q.9-.4 1.4.4c.3.5 2.2 1.8 4.2 3 1.9 1.2 3.2 1.7 2.9 1.1q-.3-.9 1.4-1c2.5 0 1.8 2.6-1 3.5-2.9.9-11.2-.5-13.2-2.4a51 51 0 0 0-7.5-4.3c-6.7-3.1-6.2-3.3 3.6-1.3m43.2-.5c1.9 1.2 1.5 1.4-4.8 2.6-4.3.9-5.5.8-6.5-.4s-.7-1.4 2-1c1.8.2 3 .1 2.7-.3q-.1-.7 1.8-1.2l2.8-.5q.6-.1 2 .8m-237 2.7q0 3-.9 1.4c-.5-.8-.7-2-.4-2.8q1.2-3 1.3 1.4m128.4-.2q-3.3 2.4-3.4.7c0-1 4.3-3.2 4.9-2.6q.3.5-1.5 1.9m4.6-1.5q0 .9-1 1a1 1 0 0 1-1-1q.1-1 1-1t1 1m37.5-.4c1.4.6 1.4.8-.1 2.5-1.7 1.9-5 2.7-4 1 .3-.5-1.9-.3-4.9.5-4 1.1-6 1.2-7.5.4q-5.6-3.1 4.6-2.9c3.8.1 7-.3 7.7-1 1.3-1.3 1.9-1.3 4.2-.5m-174.3 1.1q-1 .5-.6 1.4t-.5.9c-1.3 0-2.2-1.5-1.4-2.4.3-.3 1.3-.6 2.2-.5q1.6 0 .3.6m226.5.9q-.6.5-1.9.1-1.1-.5.6-.6t1.3.5M227 682c-.8.5-2.2 1-3 1q-2 .2 0-1c.8-.5 2.2-1 3-1q2-.2 0 1m-129.4 2.7c-.7.7-2.6-.7-2.6-1.9q0-1 1.5.2 1.4 1.2 1.1 1.7m197.4-.2c1.6.8 4 2.6 5.4 4s3 2.5 3.6 2.5q1 0 .5 3.4c-.6 2.8-.3 3.6 1.9 5.3 1.4 1.1 4.8 2.3 7.5 2.7 5.7.7 6.7 1.7 5.1 4.6-1.4 2.6-3.6 2.6-4.3 0-.4-1.6-1.3-1.9-6-1.9-6.7.1-8.1-.5-6.7-3.1 1.6-2.9 1.2-3.8-2-5.5-5.8-3-12.6-1.1-19.2 5.5a32 32 0 0 1-6.6 5.4c-8.6 2.3-11.1 2.3-12.8 0-.6-.8-2-1.4-3.1-1.4s-2.8-.9-3.7-1.9c-1.7-1.9-1.7-1.9.1-1.6 1 .2 3.9.4 6.4.4 3.8.1 4.7.4 4.5 1.8-.1 1.5.7 1.8 4.7 1.7 5.3 0 9.3-2.8 7.8-5.3-.8-1.2-1.5-1.1-5.1.3-2.3.9-4.3 1.6-4.4 1.4-1.5-3.5-2.8-4.4-7.2-4.9-5.2-.6-10.4-2.6-10.4-4.1 0-.5 2.3-.6 5.1-.2 4.8.6 5.2.5 7.9-2.5q4.4-5 8.9-1.9c1.5.9 2.3.9 3.6-.2.8-.7 1.4-1.8 1.2-2.4-.5-1.4 5.5-3.4 10.6-3.5a16 16 0 0 1 6.7 1.4m80-.5c.7.1-4.3 2.9-5.3 3q-.8 0-.3-.8c.2-.4-1.1-.8-3-.8q-3.4 0-3.4 1.3c0 1.3.8 1.1 2.6.7 2.3-.6 2.5-.4 2.2 2.1-.2 1.6-.9 3.1-1.7 3.3q-1.2.4-.7-.7c1.1-1.6-2.3-1.4-4 .4-.8.8-2.2 1.1-3 .8-1.3-.5-1.3-.7-.2-1.5q1.2-.8-1.7-.2-3.6.8-1.7-.7c1.7-1.9 1.5-3.4-.4-1.9-1.9 1.7-4.1 5.6-2.5 4.6q1-.5 1.1.8c0 1.8 1.6 2.1 2.5.5q.8-.9 3.7-.3c4.6 1 8.9 1.1 9.4.3.6-1.1 4.5.2 4.1 1.4-.4 1.4-3.7 1.8-5.6.7-.8-.4-2.5-.3-3.8.3-1.9.8-2.6.7-3.6-.6-1.1-1.5-1.5-1.5-4.1-.2-3.4 1.8-3.9 1.9-3 .3q.8-1.1-1-.5-1.6.6-1.1-.3.4-1-1.1-1-1.7.2-1.1-2.5c.5-2.8-2.3-5.1-4.8-4.1-.8.3-2.7-.1-4.2-.9-3-1.6-2.8-1.7 3.2-2.1 2.2-.1 5.4-.5 7-.9q3.6-.8 1.2.5-1.4 1.1-1.1 2.2.5 1-.4.4c-1.6-1-1.5.9.1 2.2 1.7 1.5 3.9-.1 3.1-2.1s1.6-2.3 4.7-.6c1.6.8 2.4.5 4.2-1.5 2-2.3 2.8-2.5 7.7-2.2zm5.6 3.3q-.4 1-.5-.6-.2-1.6-1.1-1.2c-1.1.7-1.4-.8-.3-1.9.9-.9 2.6 2.2 1.9 3.7m14.4-3.2q-.2 1-2 .6-2-.5-2 1-.1 1.6 2.2 1c1.9-.5 8.8 1.5 8.8 2.6 0 .7-10.3-1.4-12.2-2.4-2.3-1.2-2.3-2.6 0-3.2q5-1.3 5.2.4m4.5 1c-2.9 1.1-3.5 1-3.5-.5q0-1.4 2.7-.8c2.5.5 2.5.6.8 1.3m-219.5.6q2 1.6 1.4 4-.7 2.2 2.1 4.6l2.8 2.4-5.9 1.5c-10.9 3-10.7 3-14.4-.2q-5.2-4.6-7.5-2.1c-.6.5-4.5 1.2-8.7 1.6-6.7.6-7.8.5-7.8-.8 0-2.1.7-2.4 9.1-4.2a85 85 0 0 0 9.9-2.6c2.7-1.2 15-5.5 16.2-5.8.4 0 1.7.7 2.8 1.6m204.4-.1c-1.9 1.5-1.8 1.5.3.9 1.2-.3 2.4-.1 2.7.4q.5 1-1.9.8c-1.4-.1-2.5-.5-2.5-1V685q.2-1 1.7-1c1.5 0 1.4.2-.3 1.6m58.3 3.6a58 58 0 0 1 12.3 28.3c0 2.7.5 8 1 11.7s.7 7.3.5 8c-.9 2.3-8.4 6-10.8 5.3-7.1-2-8.1-4.5-1.8-4.5 5.6 0 6.8-1.5 7.4-9.2.5-7.8-1.6-13.7-8.4-22.4a43 43 0 0 1-7.9-19.1c0-3.6 3-2.9 7.7 1.9m-196.4-1.5a5 5 0 0 0-2.3 4v2.4l-11.7-.6a100 100 0 0 0-22.1 0q-2.4.6-1.7-.6.8-1.2-1.1-.1c-1.1.5-2.5.7-3.2.5-.7-.3.8-1.5 3.4-2.8 5-2.4 7.9-2.3 6.9.3q-.7 1.8 1.5-.3c1.7-1.6 2.4-1.7 4-.7a12 12 0 0 0 5.4 1.2c4.4 0 18.8-2.9 20.1-4.1q1-.8 2-.8.7.1-1.2 1.6m9.2-.7c.8 1.3-.5 1.3-2.5 0q-2-1.1.2-1c.9 0 2 .4 2.3 1m157.3.9q1.7.8-.4 1.5c-1 .4-2.4 0-3.3-.9-1.4-1.3-1.3-1.5.4-1.5 1.1 0 2.6.4 3.3.9m8.2.1c0 .5 1.1 1 2.5 1 3.3 0 3.2 1.8-.2 3.1-1.6.6-5.2 2.1-8.1 3.5-3 1.4-5.5 2.4-5.7 2.2-.7-.6.8-5.8 1.6-5.8q.8.1.7 1.1t1.2 1.7q1.3.3.8-.3c-1-1 1.1-3.7 2.3-2.9q.8.4.9-1-.2-1.4-1.2-2-1-.4 1.1 0 2.4.6 1.7-.5-.5-1 .8-1.1 1.5 0 1.6 1m-88 1.2c0 1.1-2.8 1-3.5-.1q-.3-1 1.5-.8t2 .9m12.5 2.3q-.1 1.7-1.4 2.3-1.3.4-.7-.6.5-1-1.4-.5c-2.4.6-2.5 1.2-.4 2.7q2 1.3-.5 1.3-2 0-2.1-.9t-1.6-.4q-1.9.9-.6-.7 1.1-1.3.7-1.9t1.2-1.9q1.6-1.4.9-.2-.5 1.2.3 1.3 1-.1 1.1-1.1.1-.8 1-.4t1-.5q.1-1 1.3-.8 1 .6 1.2 2.3m-16.4.9q-1 1.2-.5 1.9.4.4-1.5 0c-2.5-.6-2.5-.7-.5-2.7 1.8-1.9 4.1-1.1 2.5.8m158.3 1.6c-.6.5-2.4-2.1-2.4-3.4q.1-.8 1.4 1c.8 1 1.2 2.1 1 2.4m-285.7-.4q-.6.5-1.9.1-1.1-.5.6-.6t1.3.5m119.8 1.4q.4.9-.4 1-1-.1-1.1-1 0-1 .4-1t1.1 1m68.2 1.9q-.2 2.9-1.5 2.3-1.4-.4-.3-1.5c1.9-1.9 1.2-2.7-.8-1-1.1.9-1.8 2-1.6 2.3q.3.7-1 .7-1.4.1.8-2.9c2.7-3.7 4.7-3.6 4.4.1m3.3-2.5q0 .5-1 1.1-.9.4-1-.4.1-1 1-1.1 1 0 1 .4m-9.4 1.8q.6 1.1-.1.6c-.4-.4-1.5 0-2.3.9q-1.6 1.6-2 .4-.4-1-1.3-.5t-.9-.5c0-.9 1.9-1.7 4.7-2q1.1.1 1.9 1.1m10.8 2.3q-.7 1.3-1.5 1.5-.7-.2-.3-1.5.7-1.4 1.5-1.5.7.1.3 1.5m6.3-.9q-.6.5-1.9.1-1.1-.5.6-.6t1.3.5m32 1.1a274 274 0 0 0 14.4 22.4c1.5 2.2 1.6 3.3.7 7.5-1.2 5.7-2.2 6.6-6.5 5.9-3.2-.6-6.3 1.3-6.3 3.9 0 .8-3.7 2.1-9.7 3.5-16.1 3.5-16.3 3.6-16.3 1.8q0-3 7.4-4.1c4.6-.7 5.6-1.3 5.6-3q0-4.7-8.7-2.6c-4.2.9-5.8.9-6.1.1q-.4-1-1.8-1.1-1.4 0-.9 1c1.6 2.7-8.6-.1-11.7-3.2-1-1-2.3-1.8-2.9-1.8q-1-.1-.4-1.9c.3-1.1 0-2.3-.6-2.7q-1.3-.8-.6.9c.7 1.9-1.7 4.2-3.5 3.1-.7-.4-2.5-.7-4-.6q-2.7.1-2.8-1 0-1.5-.9.1c-.9 1.3-3.1.7-3.1-.8 0-1.3 7-1.9 7.1-.6q0 .8.6-.3c.7-1.9 2.3-1.4 1.6.5q-.8 2.3.9-.1c2-2.5 6.6-3.2 7.4-1.1q.6 1.3 1.5 1 .7-.6.3-2-.6-1.6 1.7-1.5c2.8 0 14-1.3 25.6-3 4.4-.7 9.5-2 11.2-3.1 3.1-1.9 4.1-5.2 2-6.4-2.4-1.6-14.9-.5-22.5 2-9.7 3-10.9 3.1-12.8.3-2.3-3.2-2.1-3.5 2.4-4.3a16 16 0 0 0 6.2-2.5c1.3-.9 3.9-2.1 5.8-2.5s4.6-1.4 6-2.3c4.8-3.2 12.8-4 13.7-1.5m-191.9.9c.7.2 1.7 1.5 2.2 2.9q1 2.4 1.8 2.1c.5-.3 3 1.2 5.5 3.4 2.6 2.1 5.1 4 5.6 4.2 1.4.6 2 7.5.7 9.3-.6.9-2.7 1.8-4.6 2.1s-4.2.8-5 1.1-2.8.7-4.4.9c-2.3.3-2.6.1-1.7-1 1.3-1.6.4-4.6-1.4-4.6-.7 0-4.4 1.3-8.4 2.9-6.9 2.9-7.2 2.9-11.6 1.4-2.5-.8-4.5-1.8-4.5-2.1s-2.6-.7-5.7-.8c-4.6-.1-5.9-.5-7.1-2.2-1.2-1.9-2.4-2.2-8.1-2.2q-6.7 0-9-1.7c-1.7-1.1-4.7-1.7-10.3-1.7a29 29 0 0 0-8.1.5c-.1.4-1.3 1-2.5 1.4-2.2.6-2.3.5-1.2-1.5.9-1.6 1.8-2.1 3.6-1.7 1.3.2 2.4 0 2.4-.4s1.2-.9 2.7-.9c2.6 0 4.2-.4 12.8-3.1 4.3-1.3 6.6-3.5 5.8-5.6q-.4-1.2.3-1.4l11.4-1.3a216 216 0 0 1 38.8 0m159.2 0q-.2.4-2 .4c-1.8 0-2-.4-2-.9s.9-.7 2-.4q1.8.5 2 .9m-260.5 2.8c3.5 2.4 3.5 2.5 1.5 3.6-1.1.6-2.6.8-3.2.4q-1-.6-.5.3c1.1 1.8-2.3 5.2-5.8 5.9-4.1.7-6.4 2.9-4.7 4.6 1.3 1.3 8.7-.5 11.3-2.8a9 9 0 0 1 3.8-1.9l4.3-1.1q2-.6 1.4.5-.8 1-2 1.1c-1.2.1-3.9 1.4-7 3s-5.6 2.7-5.6 2.3q-.1-.7-.8.2c-2.9 4.1-12 6.8-23.3 6.9-6.5.1-8.1.5-11 2.7a30 30 0 0 1-5.4 3.3c-1.9.7-1.9.6.2-1.6 2.9-3.2 5.3-8.2 5.3-11.2q-.1-2.4-2.7-4.6l-2.8-2.1 3.7.3c2.1.2 3.6 0 3.5-.6s1.6-1.5 3.8-2.1 5.3-1.7 6.9-2.3a68 68 0 0 0 18.6-6.1c2.7-1.7 6.8-1.2 10.5 1.3m350.3-.6c2.5 2.5 3.5 5.3 1.7 4.5q-1.3-.5-.9-1.4.3-.8-1.5-.9c-1.8-.1-2.3.4-2.6 1s-1.2 1-1.8 1q-1.3 0-.1-.8c.6-.4 1.4-1.7 1.8-3 .9-2.7 1.1-2.7 3.4-.4M183.5 703c-.3.5-1.6 1-2.8.9q-3.1.1-.2-.9 4.1-1.8 3 0m161.5.6q-.1 1.3-1 .9-1-.7-.5-1.6 1.4-2 1.5.7m38.5 2.4 6.3 1.6c1.6.5-1.1 5-3.9 6.5-3.1 1.6-12.7-.1-16-2.9-3.2-2.6-4.9-2.6-15.9-.3-2.5.5-9.4 1.1-15.5 1.3l-11 .3.2-2.9c.3-4 1.4-4.8 8-5.7 4.5-.6 6.1-.5 7.4.7.8.8 1.9 1.1 2.2.7.4-.3 2.8-.8 5.5-1 2.6-.1 7.4-.6 10.7-1 5.8-.8 10-.3 22 2.7m-207.1-1c-.5.5-2.5 1.3-4.4 1.6-3.7.7-3.3-1 .5-1.9q5.5-1.3 3.9.3m117.6.5q.1 1.6-3.9 1.5c-3.8 0-5.7-1-4.4-2.4.3-.3 2.4-.6 4.5-.6q4 0 3.8 1.5m204-1.1q0 .5-1 1.1-.9.4-1-.4.1-1 1-1.1 1 0 1 .4m-.8 12.2c-.7 1.2-1 1.2-2.7-.1q-1.8-1.3-.7-1.5c.7 0 1.2-1.4 1.3-3.3l.1-3.2 1.4 3.3c.8 1.9 1.1 3.9.6 4.8m-188.6-3.1q-.6 1.7-2.2 1.1c-.9-.3-2.5-.6-3.6-.6q-2.4.1-.8-1.4c1.3-1.7 5.1-2.5 6.4-1.5.5.4.6 1.5.2 2.4m-16.5 0c0 .5-1.2 1.1-2.6 1.3q-2.6.4-2.5-1.3c.1-1.7.7-1.5 2.5-1.3 1.4.2 2.6.7 2.6 1.3M427 713c0 1-6.8 2.6-7.7 1.7-.3-.3 1-1 2.8-1.6 4.5-1.2 4.9-1.3 4.9-.1m-153.2 1.7c-.2 1.4-1.4 1.9-4.8 2l-4.5.2 3.2-1.2c1.7-.7 3.5-1.5 3.9-2 1.3-1.3 2.6-.7 2.2 1m120.6 1.4c-.3.6-1.2.8-1.9.5q-1.3-.4-1.7.6c-.2.6-1.3.9-2.3.7-1.6-.4-1.3-.7 1.5-2.1 3.4-1.7 5.6-1.5 4.4.3m21.1-1.1c-.3.5-1.5 1-2.6 1s-1.7-.5-1.4-1 1.5-1 2.6-1 1.7.4 1.4 1m-76.5 2.2c19.6-.5 20.1-.4 22.6 1.9 1.9 1.8 6.1 11.7 5.2 12.4-2.1 1.6-7.6 2.3-11.9 1.5-6.2-1.2-7.6-2-5.8-3.1q1.7-1-.1-.9-1.4-.1-1.7-1.8c-.3-3.8-2.3-8.6-2.3-5.4q-.1 1-1.4.6c-.7-.3-2.9.1-4.9.9s-5.7 1.4-8.9 1.2c-8.3-.5-10.8-1.5-10.8-4.4 0-2.7 2-4 4.9-3.3 1.4.4 8.2.5 15.1.4M146.5 719c-.3.5-1.3 1-2.1 1s-1.3.4-1 .9c.7 1.1-2.1.9-2.9-.2q-.4-.6.1-.2.8.3 2.8-1c2.4-1.7 4-2 3.1-.5m36.2 1.2c2.8 1.3 6.3 2.1 8.8 2a33 33 0 0 1 9.5 1.7l9 3c3.2.9 3 1-2 .5-6-.6-11 .7-11 2.9q0 1.4-2.9.9c-1.6-.2-3.1.1-3.5.6s-2.2.8-4.1.5c-3.1-.5-3.9-.1-6.8 2.9a41 41 0 0 0-8 13.8c-1.3 3.3-2.1 3.8-10.8 6.8-5.2 1.8-10 3.2-10.8 3.2a12 12 0 0 1-4.4-2.6q-3-2.6-3.7-1.4c-.6.9-1.3.9-2.9 0-1.8-.9-2.7-.8-4.7.5-1.3.8-2.4 1.1-2.4.5 0-.5 1.1-1.7 2.5-2.6s2.5-2.5 2.5-3.5q.1-1.8 1-1.9t.8-1.2c-.2-.6 1.3-1.6 3.3-2.2s4.9-2 6.5-3.1l3.4-2.1c.3 0 1.8-.6 3.3-1.2 1.6-.7 3.1-1.2 3.5-1.2 1.1 0 5.2-4.3 5.2-5.6 0-2-3-2.5-5.9-.9-1.6.8-7.4 2.5-12.9 3.9s-12.6 3.7-15.7 5.1l-5.5 2.7-2-2.4c-2.5-3-2.5-3.4.1-4.1q2.2-.5 1.5-2.3t.9-1q1.3.4 1.5-.4-.1-1-1.2-1-1-.1 1-1.6c2.2-1.5 2.4-1.5 3.7.2 1.3 1.8 1.4 1.7 2.5-.8.7-1.5 1.9-3 2.8-3.3q1.7-.7.4.8-2 2.6 2.1 2.7 1.8 0 1.4-1.3t.6-1.5c.7 0 3.7-.7 6.7-1.6 3-.8 7.7-1.7 10.3-2s5.4-.9 6.1-1.5 3-1 5.3-.9 4.9-.5 5.9-1.1c2.7-1.5 3.8-1.4 9.1 1.1m309.2-.1c-1.5.9-3.2.2-2.4-1.1.3-.5 1.3-.6 2.1-.3q1.8.5.3 1.4m-182.9.4c0 1.6-5.5 2.2-6.4.6q-1.1-2 3.6-2.1 2.8 0 2.8 1.5m-16 .4a2 2 0 0 1-.8 1.5q-.8.4-.9-.9c-.1-1.3.4-1.5.9-1.5q.7 0 .8.9m169.8 2.3a31 31 0 0 1 2.5 6.4l1.5 5.2-2.7 2.6a15 15 0 0 1-3.2 2.6 61 61 0 0 1-.5-9c0-8.9.4-10.2 2.4-7.8m-151 4.9c-.2.6-2.3 1.3-4.6 1.5-3.2.3-4.2.1-4.2-1.1 0-1.1 1.2-1.5 4.6-1.5q4.4 0 4.2 1.1m179.7-.2q.4.9-.5 1.6-.9.4-1-.9 0-2.7 1.5-.7m-233.5 1c0 1.5-2.9 3.3-4.1 2.5q-1.3-.7.6-2.1 3.4-2.3 3.5-.4m17 .5c0 1.1-1.9 1.5-2.5.6q-.4-.9.9-1 1.5 0 1.6.4m65.9 2.4q1 1.9-.2 2c-14.8 1.1-17 1.2-18.3.1q-4.2-3.3 4.4-2.4c3.1.3 7.1.2 8.7-.4 4.2-1.3 4.3-1.3 5.4.7m-136.4 3.4c1.5.3.3 1.3-4.5 3.9-3.7 1.9-6.4 4.1-6.2 4.8q.7 3.7-7.1 4.7-5 .7-7.4 3c-3.1 3.1-2.9.6.2-2.8 1.4-1.5 2.5-3.3 2.5-4q0-1.5.9 0c.6 1.1 1.1 1 2.4-.3.9-.9 2.6-1.7 3.7-1.8a3 3 0 0 0 2.6-2.2c.3-1.1 1.8-2.6 3.4-3.3q2.8-1.4 2.3-2.7c-.4-1.2 0-1.3 2.3-.5 1.6.5 3.8 1 4.9 1.2M314 735q0 .9-.4 1-.5-.1-1.1-1-.4-1 .4-1 1 0 1.1 1m-39 1.5q0 1.3-1 1.5-.9-.2-1-1.5c-.1-1.3.5-1.5 1-1.5q1 .2 1 1.5m35.5.3q-.6.4-1.8-.7-1.4-1.5.6-.5 1.6.6 1.2 1.2m-53.5.2q0 .9-1 1a1 1 0 0 1-1-1q.1-1 1-1t1 1m226-.6q0 .5-1 1.1-.9.4-1-.4.1-1 1-1.1 1 0 1 .4M355.6 741q1.3 0 1.4.7c0 .5-2.2.8-5 .8q-7.7 0-3.8-3.9c1.1-1.1 1.7-1 3.7.5a8 8 0 0 0 3.7 1.9m35.1-1.6c1.8.9 4.4 1.6 5.8 1.6 3.4 0 4.5 2.8 1.8 4.9-1.1.9-2.9 2.1-3.9 2.7-2.9 1.7-.5 3.8 6 5.4 5.2 1.2 5.6 1.2 8.7-1.1 1.9-1.3 5.7-2.9 8.6-3.5 4.8-.9 5.1-.9 4.2.8q-1 1.6-1.7 1.8-.8.1-2 2.1-1.2 1.9-.3 1.4 1-.4 1.1 1.1 0 2 1.2.6 1.5-1.3-.1-2.1-1.5-.8 1.4-1.5c1.4-.4 2.5-1.2 2.3-1.8-.6-1.8 2.3-4.2 7.5-6.2 4.2-1.6 5-1.6 7-.3a15 15 0 0 0 12.4 1.1c3.1-1.4 9.3-1.9 9.3-.9 0 .3-.9 1.4-2 2.5-1.6 1.6-1.8 2.5-1 4.6 1.3 3.4 4 7.2 4 5.6q-.1-1.4 2-.2c2.8 1.5 8.6-.4 10.7-3.6.8-1.3 2.2-2.4 2.9-2.4 1.9 0 1.8.7-.7 4.1-1.7 2.4-1.8 3.3-.9 4.4s.8 1.6-1.1 2.3c-3.4 1.3-22 .8-24.6-.6a17 17 0 0 0-11.9-.2c-5 1.9-15.1 2.9-19.2 1.8-3.6-.9-4-1.3-3.8-3.9q.1-2.8-1.1-2.9-1.1 0-.7 1.5.5 1.3-.6 1.5-1.5-.1-.1 1.4c1.1 1.2.7 1.3-2.5.3l-3.7-1.1 2.7-1.1 2.7-1.1-3.6-1.1c-3.1-1-3.6-.9-3.1.3q.4 1.3-.3 1.4-.9-.1-1.6-1.8c-.6-1.6-.7-1.6-2 .1s-1.5 1.7-6.4-.7c-3.8-2-5.2-3.3-5.7-5.4l-.9-3.8c-.2-.6-3.1-1.2-6.7-1.3-3.4-.1-7.9-.6-9.8-1.1s-5.7-1.2-8.5-1.6l-5-.7 6.5-.9q6.6-1 8.3.2 1.8 1 2.5.6.4-.5-.7-.6c-1.1-.1 0-1.1 1.6-2.4 3.2-2.8 9.9-2.9 15-.2m-200.7-.5c0 1.4-1.8 2.3-3.1 1.5q-1.2-.6.2-1.5 2.8-1.7 2.9 0m301 .2q0-1.3.6-.9c.9 1-2 4.8-3.6 4.8-1.3-.1-1.3-.2.1-1.3.9-.7 1.4-1.9 1.2-2.7q-.7-2 .6 0 1.2 1.9 1.1.1M221.7 742q-.3 1.8-1.3 2-1.1.1-.7 2c.6 2.4 2.2 2.6 3.7.4.9-1.2 1.9-1.4 4.6-.7l3.5.9-2.6 1.7c-1.4.9-4.1 1.8-6.1 1.9-2 .2-3.4.5-3.2.7a75 75 0 0 1-12.3 6.9c-8 4.1-12.9 6-13.1 5.3q-.4-1.2-1.6-.2a85 85 0 0 1-22.1 9.8c-3.8.4-4.4.1-5-1.8-.9-2.6.3-3.7 8-7.6 2.8-1.4 5.9-3.3 7-4.3a51 51 0 0 1 10-5.1c4.4-1.8 8.9-4 10-5 4.9-4.2 16.1-8.6 16.8-6.6q.5 1.2 2.3-.6c2.3-2.1 2.3-2.1 2.1.3m-36.3.5q-.7 1.3-1.5.9c-1.1-.6-.2-2.4 1.1-2.4q.8.2.4 1.5m297.6.6q0 .8-1 .9-.9-.1-1-1.6.1-1.3 1-.9 1 .6 1 1.6m-143.9 2.5q1.9 2-.5 1.3-1.8-.5-2.4-1.7c-.5-1.7 1.3-1.5 2.9.4M259 749q0 .9-1 1a1 1 0 0 1-1-1q.1-1 1-1t1 1m122 4.1q-.1.8-.8.9-.8-.2-.9-1.5c-.1-1.3.4-1.2.9-.9q.7.5.8 1.5m-122.2 3.6c-.2 1.4-1 2.9-1.8 3.1q-1.8.8-.2-1c.7-.9 1-2.3.6-3.2q-.4-1.5.6-1.6 1 .2.8 2.7m45.9.5q-.5 1.1-.6-.6t.5-1.3c.3.3.4 1.2.1 1.9m-10.2 7.8q.4.9-.4 1-1-.1-1.1-1 0-1 .4-1t1.1 1m157 5c-.3.5-1.2 1-1.8 1q-1 0 .3-1 2.8-1.8 1.5 0m-168.8.6q-.6.5-1.9.1-1.1-.5.6-.6t1.3.5M112 780.7c0 5.9 1.9 11.2 4.5 12.9 2.1 1.4 2.6 1.4 5.3 0 2.9-1.5 3.3-1.4 9.4 1.9 3.6 1.9 7.4 3.4 8.4 3.4 1-.1 5 .3 8.7.7 5 .5 7 1.2 7.7 2.5 1.3 2.4 0 2.7-6.9 1.6s-18.2-1.1-22.7.2c-6.3 1.7-26.4-2.6-26.4-5.8 0-.7 1.5-3.2 3.4-5.5q6.5-8.1 6.6-13.1.1-2.3 1-2.5c.6 0 1 1.7 1 3.7m365-2.1c4.7 1 2 2-4.2 1.5-4.2-.3-4.8-.6-2.8-1.2 3.4-1 3.4-1 7-.3m-15.2 1.1c-1 .2-2.8.2-4 0q-1.8-.4 1.7-.4 3.5-.1 2.3.4M183.5 781q.4.9-.4 1-1-.1-1.1-1 0-1 .4-1 .6 0 1.1 1m127.5-.6q-.1.4-1.6 1-1.3.5-.9-.4c.6-1 2.5-1.4 2.5-.6m135 4.6q2 1.2 0 1c-.8 0-2.2-.5-3-1q-2-1.2 0-1c.8 0 2.2.5 3 1m52.5 0q-.6.8-2.3.8c-.9-.1-6 .3-11.2.7s-9.2.4-8.9.1c.4-.4 3.5-1 7-1.3s6.5-.6 6.7-.8c.8-.7 9.2-.3 8.7.5m-45.2.7c-.7.2-1.9.2-2.5 0q-1-.5 1.2-.5c2.2 0 1.9.2 1.3.5m17.7.3c0 .5-1.2 1-2.7.9q-3.6.1-.8-.9c2.7-1.2 3.5-1.2 3.5 0m-6.7.7c-.7.2-2.1.2-3 0q-1.3-.5 1.2-.5 2.6 0 1.8.5m-203.6 2.6c-.2.6-1.8 1.2-3.5 1.3s-2.9-.3-2.6-.7 1.1-.6 1.9-.3c.8.4 1.8-.1 2.1-1 .7-1.8 2.7-1.1 2.1.7M98 791.8c0 .5-1.1 1.9-2.4 3.1-2.8 2.7-10.3 3.9-13.2 2.2-1.8-1-1.8-1 .1-1.1 1.1 0 3.8-1.1 6-2.5 3.9-2.4 9.5-3.4 9.5-1.7m162.4 5.7q-.7 1.3-1.8 1.5-1.2-.2-1.3-1.5c-.1-1.3.8-1.5 1.8-1.5q1.8 0 1.3 1.5M475 801q-.1.9-1.1 1-.8-.1-.4-1 .6-1 1.1-1 .4 0 .4 1m4-.6c0 1.1-1.9 1.5-2.5.6q-.4-.9.9-1 1.5 0 1.6.4m-298.2 5.7c1.3.5 3.6.9 5.1.9 2.9 0 6 2.5 4.7 3.7-1.5 1.6-8 .1-10.2-2.2-1.7-1.9-3.3-2.5-6.4-2.5-2.2 0-4-.5-4-1 0-1.1 6.7-.4 10.8 1.1M259 805q-.1.9-1.6 1-1.3-.1-.9-1 .6-1 1.6-1 .8 0 .9 1m-5.3.6q-.6.5-1.9.1-1.1-.5.6-.6t1.3.5M441 807c0 .5-1.5.9-3.2.9l-3.3-.1 3-.8 3.3-.9q.2 0 .2.9m25-.1c0 1.2-3.7 2.1-9.3 2.1q-4.7 0-4.2-1c.4-.6 2.3-.7 4.5-.4 2.1.3 4.6.1 5.6-.5q3.4-2 3.4-.2m16.5.6c.6.2-1.9.3-5.5.4-3.7 0-5.7-.4-4.7-.8 1.7-.6 7.9-.4 10.2.4m-36.2.2c-.7.2-2.1.2-3 0q-1.3-.5 1.2-.5 2.6 0 1.8.5M217 810.1c1.7.9 1.1 1-10.3 1.3-6.8.1-8.4-.4-7.2-2.4a45 45 0 0 1 17.5 1.1m15.7.5q-.6.5-1.9.1-1.1-.5.6-.6t1.3.5"/><path d="M246.1 146.9q-1.2 1-.8 2.5c.3.8.2 1.8-.3 2.1-1.8 1.1-1 4.1 1.3 5.3 5.9 3 7.7 3.2 9.7 1.2 5.1-5.1-3.8-14.9-9.9-11.1M212 219q.1.9 1 1c.6 0 3.6 1.6 6.7 3.6 6.5 4.1 8.1 3.9 2.6-.3-6.2-4.9-10.3-6.6-10.3-4.3m18.3 11.5q4.5 4 4.7 1.5c0-.9-5.2-4-6.7-4-.4 0 .5 1.2 2 2.5m-12.7 1c-1.9 2.9-2.1 5.5-.3 5.5 1.3 0 4.7-5 4.7-6.9s-2.7-1.1-4.4 1.4m3.4 4.2c-1.1 1.5-1.9 3.3-1.8 4.2.6 2.9 2.8 2.2 4.5-1.6l2.1-4.6c1-2-2.9-.4-4.8 2m12 10.8q.1 1.5 1.1 1.3 1-.4 1.1-1.3 0-1.2-1.1-1.3-1-.2-1.1 1.3m-3.9 2.8c-.9 1.1-.8 1.7.4 2.7s1.6.9 2.1-.5c.9-2.3-1-4-2.5-2.2M348 169c0 .8.5 2.2 1 3q1.2 2 1 0c0-.8-.5-2.2-1-3q-1.2-2-1 0m76.7 102.7c-1.7 1.6-.3 2.2 5.3 2.2 4.6-.1 6.5.4 8.6 2 3.3 2.6 4.6 1.8 1.7-1-2.7-2.8-13.8-5-15.6-3.2m-273 6.5c.6 1.1 4.3 1 4.3-.1 0-.5-1.1-.8-2.4-.7q-2.2.1-1.9.8m176.2 36.9c.4 1.3 1.4 2.5 2 2.7q1.4.6.2-1.6c-1.6-3-3.3-3.8-2.2-1.1M188 330.6q-4.5 1.5-1 1.3c1.4 0 3.2-.3 4-.9 2.4-1.5.7-1.8-3-.4m195.2-.5-7.4 9a51 51 0 0 0-5.8 7.5q.1.7 1.1-.3c.6-.6 1.8-.9 2.6-.6 1.5.6 7-4.1 10.5-9.1 1.7-2.3 1.8-3 .7-3.6s-1-1.3.5-2.9q1.7-2 .7-2.1c-.6 0-1.9 1-2.9 2.1m.1 11.1q-5.7 6.5-.2 3.1c1.8-1.2 3.5-2.9 3.7-3.8.5-2.2-1.1-1.9-3.5.7M335 336q.1.9 1 1 1-.1 1-1t-1-1a1 1 0 0 0-1 1m-196.9 33.9c-3.4 3.2-4.1 4.7-1.3 3.2 2.4-1.5 6.2-4.8 6.2-5.5 0-1.4-2-.4-4.9 2.3m-1 16q-1.2.8-.3 1.5.9.4 1.6-.9c.6-1.7.6-1.8-1.3-.6m309.5 7.8q-1 2 .5.6 1.1-1.2.7-1.8-.6-.4-1.2 1.2M230 408.4c0 .3 1.4 1.2 3 2.1s3 1.3 3 1.1c0-.3-1.3-1.2-3-2.1s-3-1.3-3-1.1m186.6-7.8q-.9 2 .9.4 2.5-2 .6-2-.9.1-1.5 1.6m-4 184.3q-.5.9.3 1.5t1.5-.3q.5-.9-.3-1.5t-1.5.3m2.5 6.2c-1.2 1.7-2.1 3.3-1.8 3.5.7.8 4.6-1.8 5.2-3.5 1.2-3-1.2-3-3.4 0m3.2 23.6c-1.8 4.3-1.9 13.9-.1 16.1 1 1.2 1.4 1.1 2.5-.4 1-1.3 1.5-1.5 2.7-.5q1.4 1.2 2.1.2c.8-1.4-1.1-4.8-3.5-6.1q-3.5-1.9-.5-7.6 2.9-5.5-.1-5.4c-.8 0-2.2 1.7-3.1 3.7m-5.6 13.9c-.4.4-.7 2-.7 3.6 0 2-1.3 4.1-4.4 7.3-4.8 4.8-4.5 6.8.6 3.8q6.4-3.8 7-10.7c.3-3.6-.9-5.5-2.5-4m-12.1 7.3q-1.8 1.9-.6 2.6c1.3.8 5.2-2.4 4.4-3.6q-1-2.1-3.8 1m16.4 2.7a9 9 0 0 0-.8 4.1c.5 2.3 5-1.5 4.6-4-.5-3.1-2.7-3.2-3.8-.1m-44.6 5.5c-.9 1.5 1.2 3.3 2.8 2.3q1.3-.8 2.2-.9t1.4-1.3c.5-1.5-5.4-1.7-6.4-.1m25.1 3.8c-1 1.7 1.1 2.1 3.1.6 1.8-1.4 1.8-1.4-.3-1.5q-2 0-2.8.9m24.7 3.3c-1.8 1.8-1.5 4.1.4 3.4q1.5-.5 2.5-.6c1-.1.9-.9.9-2 0-2.2-2-2.6-3.8-.8m-37.7 5.8q.7 1 1.6.5 2-1.4-.7-1.5-1.3.1-.9 1m-150.8-26.2c-1.5 1.7-1.5 2.1.5 6.1 3.4 7 6.1 6.8 7.3-.5.5-3.1.2-4.5-1-5.8-2.1-2.1-4.8-2-6.8.2m2.9 14.7c-1.9 2-1.9 1.8-.4 5 2.1 4.7 7.2 2.2 6.6-3.2-.4-3.3-3.7-4.3-6.2-1.8m235.6 7.7c-1.9 1.9-1.4 2.9.8 1.6 2-1.3 2.7-2.8 1.2-2.8q-.8 0-2 1.2m19.8-13.1q0 .9.9.4c.5-.3 1.3.4 1.6 1.6q.7 1.8 1.2 1.6c.7-.8-1.6-4.7-2.7-4.7q-1 .1-1 1.1m-40 2q.1.8 1 .4t1-1.1q0-.4-1-.4-.9.1-1 1.1M338 652q.1.7 2.1 1.3 1.9.4 1.7-.5c-.5-1.3-3.8-2-3.8-.8m-8.5 17q.7.9 1.6 1 .9-.1.4-1a2 2 0 0 0-1.6-1q-.9 0-.4 1m-220.1 15.9c0 1.1.7 2.2 1.6 2.4q1.5.5 1.5-2 0-2.2-1.5-2.3c-1.5-.1-1.6.9-1.6 1.9m159.1 7.1q-.4.9.4 1 1-.1 1.1-1 0-1-.4-1t-1.1 1m-116.1 2.5q-2.2 1.5-.3 1.5c.8 0 2.4-.7 3.5-1.5q2.2-1.5.3-1.5c-.8 0-2.4.7-3.5 1.5M401.5 723q.6.9 1.1 1 .4-.1.4-1-.1-1-1.1-1-.8 0-.4 1m4.1.3q.6 1.6 1.2 1.2.4-.6-.7-1.8-1.4-1.4-.5.6m-4.8 3.7c.5 3.4 1.7 4 1.9 1.1.1-1.1-.4-2.4-1.1-3q-1.4-1.4-.8 1.9m-5.2-.1q-.5.9.3 1.5t1.5-.3q.5-.9-.3-1.5t-1.5.3m10.5.5q-1.4 1.4.3 1.9 1.4.3 2-.8c.7-2-.9-2.8-2.3-1.1m6.4.6q-.4.9.4 1 1-.1 1.1-1 0-1-.4-1t-1.1 1m-15.9 2.8q-.4 1 .5 1.7c1.4.9 2 .2 1-1.4q-.9-1.2-1.5-.3m3.4 1.1c0 1 1.9 2.5 2.5 2q.1-.5-1.1-1.7c-1.2-1.2-1.4-.8-1.4-.3m-164.2-30.7q1.2 1.4 2.4 0 1.5-1.3-1.2-1.2c-2.7.1-2.1.3-1.2 1.2M208 706q.1.9 1.1 1 .8-.1.4-1-.6-1-1.1-1-.3 0-.4 1m-3 1q.1.9 1.1 1 .8-.1.4-1-.6-1-1.1-1-.3 0-.4 1m-3.4 2.6q-.6 1.5-.1 2.2.4.3 1.1-1.2c.4-.9.4-1.9.1-2.2q-.4-.3-1.1 1.2m5.9-.5q-.6 1-.2 1.5.4.3 1-1.1c.7-1.7.1-2-.8-.4m25.6-.8 2.2 1.6c1.4 1.1 1.7 1.1 1.7-.1 0-.7-1-1.4-2.1-1.5zm-34.1 6.1q.1.4 1.6 1 1.3.5.9-.4c-.6-1-2.5-1.4-2.5-.6m21 .6q.1.9 1 1 1-.1 1-1t-1-1a1 1 0 0 0-1 1m2 8q.1.9 1.1 1 .8-.1.4-1-.6-1-1.1-1-.3 0-.4 1m156 18q0 .9 1 1 .8.2.4 1.7-.9 2.6.6 0c1.1-1.8.6-3.7-1.1-3.7q-.8 0-.9 1m71.5 7q-.4.9.4 1 1-.1 1.1-1 0-1-.4-1t-1.1 1m-9.2 5.6c-1.2 2.6-1.2 2.6.7.9 1.1-1 1.7-2.2 1.4-2.6-.7-1.2-.7-1.2-2.1 1.7m-32.7 1.3q-.4.8.9 1.5c1.5.6 2.9-.7 1.8-1.8-.9-.9-2.1-.8-2.7.3m23.5 4.7c-2.1 2.4-.5 2.8 2 .5q2.4-2.1.8-2.1c-.8.1-2 .8-2.8 1.6m5 .8q-1.5 1.6.8.9 2-.5 2.1-1.4c0-1.4-1.6-1.1-2.9.5m20.4 1.6q-.4.9.4 1 1-.1 1.1-1 0-1-.4-1t-1.1 1m-32.7.7q1.3.4 1.9-.1t-1.3-.5q-1.7 0-.6.6M212 753.1q.1.8 1 .4t1-1.1q0-.4-1-.4-.9.1-1 1.1m25.5-728.5c-9.8 5.1-11.4 12.3-4.7 20.4 2.6 3.1 3.4 3.4 9.3 3.8 5.8.3 6.7.1 9.1-2.3 4-3.7 6.1-8.2 5.3-11.4-1.3-5.8-2.9-8.3-6.6-10.2-4.6-2.3-8.4-2.4-12.4-.3m10.5 5.6c2.5 2.7 2.7 9.4.4 12.6-2.3 3.3-7.9 2.7-10.7-1-2.4-3.3-2.5-9.3-.1-11.9s7.8-2.5 10.4.3m-8.4 308.7q-.4 1 .8 2 1.4 1.4 1.9-.3c.9-2.2-1.5-3.7-2.7-1.7m233.6 95.8c-1.1 2.1-4.2 17-4.2 20.1 0 3.4-4 14.5-6 16.6-2.5 2.6-4.4 1.5-6.9-4.1-3.2-6.9-3.6-7.6-4.8-8-1.8-.6-6.5 6.7-8 12.5-1.4 5.5-3.1 7.8-9.1 11.9q-4.4 3.2-5.7-5c-.8-4.6-5.5-10-8.2-9.5q-1.7.4-2.5 4.1c-.4 2.1-1.5 5.2-2.4 7-1 1.8-1.9 5-2.2 7.2-.8 7.4-2.1 8.3-9.2 6.4q-1.4-.4-4.6 5.6a23 23 0 0 1-4.3 6.3c-.6.2-2-1.7-3.1-4.2-1-2.5-2.6-4.6-3.3-4.6-2.2 0-6.8 6.7-8.1 11.8-.7 2.5-1.7 4.7-2.3 4.9-.7.3-2.9-1.2-5.1-3.1s-4.6-3.6-5.5-3.6c-1.6 0-4.5 8.1-6.7 19.1a56 56 0 0 1-14.8 24.6c-3.7 3.3-4.4 4.5-3.5 5.4 2.4 2.4 11.6-4 12.8-8.8q1.4-5.8 4.7-4.7c1 .3 2.5 0 3.3-.6 2.9-2.4 2.7 1.8-.6 10-2.5 6.4-4 8.6-7 10.8-4.5 3.1-4.8 4.2-1.5 4.2s8.6-6.9 12.3-16.1c1.7-4.1 4.9-10.6 7.2-14.3a32 32 0 0 0 4.1-9c0-1.2 1.3-4.2 2.8-6.7 1.6-2.4 3.7-7.5 4.7-11.2s2.3-6.6 2.9-6.4 1.5 2.3 2.1 4.8c.9 3.5 1.7 4.7 4.5 6.1 1.9 1 4.3 1.8 5.3 1.8 2.4 0 13.6-11.8 14.3-15 .2-1.4 1-3.9 1.6-5.5s1-4.1 1-5.5a66 66 0 0 1 4.6-16c.7-.9 2 2.4 2.7 6.7.5 3.3 1.4 4.9 3.9 6.8 4 3.1 5.5 2.7 12.5-3.4 4.4-3.8 5.2-5 6.2-10 1.7-8.6 2.7-9.1 6.1-3.3 4.4 7.7 5.2 8 10.1 4.6 3.2-2.3 4.6-4.3 6.3-8.9 1.2-3.3 2.3-8 2.3-10.4.1-4.9 3.2-19.1 4.2-19.1.4 0 1.8 1.7 3.2 3.7 1.4 2.1 4.3 5.7 6.5 8 3.2 3.5 4.6 4.3 7.5 4.3 1.9 0 4.2.3 5.1.6q1.6.6 1.6-1.4-.1-3-6.5-3.3c-1.2 0-4.8-3.3-8.9-8-7-7.9-9.7-9.4-11.4-6.2M408.1 499q1.7 1 1.9 2c0 1.5-8.4 12-9.5 12-3.2-.1-3.3-1.7-.2-8.3 3.1-6.8 4.2-7.6 7.8-5.7m-34.7 16 4.3 3.1-1.7 4.8c-2.3 7-7.8 15.1-10.2 15.1-1 0-2.8.5-3.9 1-2.4 1.4-2.4.8.5-5.4 1.3-2.8 2.6-7.1 2.9-9.6.8-5.4 2.6-12 3.3-12a32 32 0 0 1 4.8 3M107.5 638q.5.9 1.1 1 .3-.1.4-1-.1-1-1.1-1-.8 0-.4 1m7.5 3c0 1.3 1.8 2.2 2.4 1.1q.4-.8-.9-1.5-1.3-.4-1.5.4m382.3 22.4c-2.9 1.4-3 3-.2 2.1q2.5-1.1 1.4 1.4-.5 2 .4 2.1c.6 0 1.1-1.6 1.1-3.5s-.1-3.4-.2-3.4zm-1.8 9.5.5 2.6q.2.7 1-1c.8-1.7.9-1.4.9-.7.1 1.6 2.1.5 2.1-1.1 0-.7-1.1-1.3-2.4-1.3q-2.5-.2-2.1 1.5m-4.5 3.7q.1 1.3 1 .9 1-.7.5-1.6-1.4-2-1.5.7m6.2.3c-.7.4-1.5 2.4-1.7 4.4q-.1 3.3.6 3.1.8-.6.9-2c.1-1.4.7-1.7 1.6-2.1q1.9-.6.2-1.4-1.5-1 0-.9 1-.1 1.2-1 0-1.8-2.8-.1m-4.4 4.6c.2 1.4.6 2.5.8 2.5s.4-1.1.4-2.5-.4-2.5-.9-2.5-.6 1.1-.3 2.5m3.4 6.9c.4 2.1.2 2.4-1.9 2-2.9-.5-3 1.1-.2 2.7q2.5 1.3 1.3-.3-1-1.6.8 0c1.3 1 1.8.9 2.9-.5q1.4-1.6.2-.9-1.2.5-1.3-.3.1-1 1-1.1t1-2q0-2-2.1-2c-1.7 0-2 .5-1.7 2.4m.8 7.5q.1.8 1.5 1.5 1.4.4 1.5-.9-.1-1.3-1.5-1.5c-1.4-.2-1.5.4-1.5.9m-.5 43.1q-.4.9.9 1 1.5-.1 1.6-1 0-1-.9-1t-1.6 1M330 828.6c-14.8 4.5-20.5 14.2-15.1 25.9 2.5 5.5 5 7.4 11.8 9 8.3 2 14.3 1.8 20.7-.6 6.8-2.6 9.6-6.5 9.6-13 0-15.7-12.6-25.6-27-21.3m14.4 6.3c1.9 2 2.6 4.1 3.2 9.2.6 6 .4 7-2 11.2-4.8 8.1-12.5 8.5-19.7 1.1-3-3.1-3.3-4-3.2-8.9.2-8.2 4.2-14.1 10.6-15.4 4.9-1 8.3-.2 11.1 2.8m-300-4.4c-2.5 1.9 1.1 11.6 3.7 10 .3-.3.9-1.8 1.2-3.4q.5-3 3.1-3.3c5.2-1 5.8.5 5.3 14.2-.3 6.9-.8 13.5-1.2 14.7-.7 2.2-.5 2.2 4.6 1.7 8-.8 8.5-1.1 6.5-3.2-1.7-2-2.2-13.4-1-22.6l.7-4.6h4.1c3.5 0 4.3.4 5.8 3 .9 1.7 2.4 3 3.2 3 2.1 0 3.1-4.6 1.8-7.5-1.1-2.4-1.3-2.4-18.8-2.7-10.7-.2-18.2.1-19 .7m91.6.3q.2 1.3 1.8 1.9c.9.4 2 1.1 2.4 1.7s.4 6.9.1 14.1c-.4 9.6-1 13.5-2.1 14.8q-1.4 1.7-.6 2.6c.5.5 6.2 1.1 12.6 1.5 11 .6 11.8.6 13.8-1.4 2.8-2.8 2.5-8.5-.5-8.5q-2 .2-3.3 2.7c-1.2 2.6-1.8 2.8-6.8 2.8H148v-5.5q0-9 4.9-5.7 7.4 5.6 5.5-4.5-.9-5-2.7-5.1-1.8-.3-2.4 1.6c-.7 2.7-3.1 3.5-4.1 1.4-.4-.9-.7-3.9-.7-6.6 0-4.5.2-5 2.6-5.6 3.9-1.1 7.9-.1 7.9 2a4 4 0 0 0 1.4 2.9c1.1 1 1.7.7 3-1.1 1.9-2.7 2.1-5.4.4-6.5-.7-.4-7.3-.8-14.5-.8-10.1 0-13.3.3-13.3 1.3m103-1.2c-.8.2-5.5.5-10.5.6-7.1.2-9 .6-9 1.8q.2 1.4 2.5 2c2.5.6 2.5.8 3.1 13 .6 13 .6 12.9-3.8 15.6q-2 1.2-.6 2.4c1.6 1.7 19.5.9 21.7-.9q3.2-3-2.9-3.1c-3.9 0-4.2-.7-3.5-6.9.5-4.4.6-4.6 3.6-4.4q6 .5 4.5-5.3c-.6-2.2-1.3-2.9-3.2-2.9q-2.5 0-2.4 1.9c0 2.9-2.3 3.1-3.6.4a10 10 0 0 1-.2-5.9c.9-3.4 1-3.4 7.9-4.2 7.5-.8 9.4.1 9.4 4.7.1 1.2.6 3.1 1.4 4.4q2.7 4.9 4.1-6c.6-4.5.4-5.9-.6-6.2a98 98 0 0 0-17.9-1m41 .3c-7.8 2.4-14.2 8.1-16 14.5-1.5 5.3-.8 8.9 2.6 13.4 3.7 4.8 7.3 6.2 17.8 6.9 8.5.5 9.7.4 13.4-1.7 2.2-1.2 5-3.6 6.2-5.2 5.9-8-1-25.1-11-27.2a34 34 0 0 0-13-.7m11.6 5.5a17 17 0 0 1 3.9 5.5c1.6 3.7 1.7 4.7.6 9.8-1.7 7.2-4.6 10.3-10 10.3-6 0-8.9-1.5-10.6-5.6-3.2-7.8-1.3-17.7 3.9-20 4.1-1.7 9.7-1.8 12.2 0m72.1-5.8c-1.1 1.2-.8 2.4.7 2.4 2.7 0 3.5 2.8 4.2 15.1s.6 12.6-1.7 14.2c-1.2.9-1.9 2-1.5 2.4.9.9 27.2 1.2 28.5.3 1.6-1 7.1-12.1 6.6-13.1q-2-3-7.1 4.1c-3.3 4.7-3.9 5-7.9 5-2.3 0-4.7-.6-5.3-1.2s-1.3-6.8-1.7-13.6c-.8-12.1-.7-12.3 1.4-12.9q2-.6 1.8-1.7a47 47 0 0 0-18-1m-270.9 1.1c-4.1.4-5.1 2.2-1.8 3 2.3.6 2.3.7 2.2 16.6-.1 6.9-.5 11.4-1.3 12.3-.6.8-1 1.7-.7 1.9 1 1 14 .7 15-.3 1.2-1.2.2-3.2-1.6-3.2q-1.4 0-2-5.7c-.9-7.3.2-8.2 9.2-8l6.7.2v17.8l7 .1c5.5.1 7-.2 7-1.4 0-.8-1.1-1.7-2.4-2-2.4-.5-2.4-.7-2.5-14-.1-7.4.3-14 .7-14.7q2.6-3.2-6.3-3.2-8.5 0-5 2.4c.6.3 1 3 1 6 0 6.2 0 6.2-9.6 5.7l-6.4-.4v-5.3q0-5.5 1.5-5.9 1.4-.6 1.5-1.6c0-1-4.5-1.1-12.2-.3m332.8 26.9q-3.5 3.2 1 6.1c3.1 2 5.7.9 6.2-2.6.7-4.5-4-6.7-7.2-3.5"/></svg>