<svg xmlns="http://www.w3.org/2000/svg" width="666.7" height="1170.7" viewBox="0 0 500 878"><path d="M0 54.8v54.8l3.8 3.7c2.1 2 4.4 3.7 5.2 3.7s4.9 2.2 9.1 5c5.9 3.8 8.1 6 10.3 10 3.4 6.2 2.1 6.5-2.7.7a28 28 0 0 0-10-7.5A51 51 0 0 1 5 118.1 39 39 0 0 0 .3 114c-.1 0-.3 2.4-.2 5.2v5.3l8 3.9c8 4 13.9 9.2 13.9 12.4q0 1.7-3.6-2.5a36 36 0 0 0-11-8.1L0 126.3v29.2l3.7 7.3c2.7 5.2 4.5 7.5 6.2 7.9l2.4.6-.6 47.1-1.2 69.6L9 363.5c-1.1 57.4-.9 55.8-6.5 54.7-2.1-.4-2.5-.1-2.5 2.1s.5 2.6 3.7 2.9c3 .2 3.8.7 3.8 2.3 0 1.7-.6 2-3.8 1.7-3.2-.2-3.7 0-3.7 1.8 0 1.7.6 2 4.1 2 3.3 0 4 .3 3.7 1.7q-.2 1.9-4.1 2.1-5.7.5-2.8 5.1c.7 1 1.3 1.1 3.1.1q2.2-1.2 3.2-.2c.6.6.6 22.2-.1 62.3-2 113.7-2.6 156.3-2.6 180.6 0 13.7-.4 24.3-.9 24.3s-1.5-.8-2.2-1.8C.3 703.8.1 709.9 0 742.7v39.1l4.3 1.6c8.2 2.9 19.1 4 42.2 4 30.7.1 37.4-.6 41.5-4.6 4.3-4.1 6-2.4 2.6 2.7a15 15 0 0 0-2.6 5.9c0 2.8-1 4.2-3.7 5-3.8 1.2-7.4 4.7-6.8 6.6q.4 1.8-2 4.8c-1.4 1.6-2.5 3.7-2.5 4.5q-.1 1.5-1.8 2.1c-.9.3-17.3.4-36.5.1-30-.4-34.7-.2-34.7 1 0 1.3 7.7 1.5 57.3 1.5 141.5.1 385.6 1.5 423.5 2.5 15 .4 19.3.3 19-.7-.2-.6-2.3-1.8-4.5-2.5-2.4-.8-6.8-3.9-10.4-7.3-6.1-5.8-9.1-7.2-10.4-5-.3.6-1.5 1-2.6 1-1.6 0-1.9-.7-1.9-4s-.7-4.8-3.6-8q-5.4-6-.6-6c3.4-.1-1.1-1.8-9.2-3.4-9.5-2-10.7-2.8-15.8-10.3-4.5-6.7-5.3-7.3-9.2-7.3-4.4 0-10.9-2.1-13.4-4.4-1.3-1.2-3.5-4-4.9-6.4-1.8-3.1-3.1-4.2-4.9-4.2-1.4 0-2.7-.7-3.1-1.8a8 8 0 0 0-2.5-3.2c-1.6-1.3-1.7-2-.7-4.8.6-1.7 1.2-3.2 1.4-3.2l3.8 1.5c4.4 1.8 16.9 2.5 17.4.9q.1-1.1-5.4-1.8a52 52 0 0 1-10.1-2.3c-4.7-1.8-4.9-2.7-2.3-9.5.9-2.4 1.4-2.7 3.9-2.2 4.3.9 4.9-1.3.9-3.2l-3.4-1.6.5-10.3q1-24.8-8.9-46.1c-3.3-6.9-3.6-13.4-1.8-32.4l1.4-14c.2-2.6 1.5-49.8 1.7-66l.8-22.5 1.5-42.5c.7-28.2 1.3-41.1 3-66.5.8-11.6 1.7-31.5 2-44.4s.8-23.7 1-24.2c.3-.4.7-16.4 1-35.5s.8-37.8 1-41.4c1.6-27.6 2.7-43.1 3.5-49.7.6-4.2 1-11.9 1-17.2-.1-8.6.7-16.8 2.6-29.8l.7-4.3 4.1.6c2.2.3 5.7 1 7.6 1.4 1.9.5 5.4.9 7.8.9 4.7 0 12.7 3.3 13.6 5.6.8 2.2 13.6 2.1 13.6 0q0-1.5-3.1-1.5c-1.7 0-2.8-.4-2.4-1 .8-1.3 8.3-.1 11.2 1.8 2.4 1.5 2.2 3.5-.2 2.6-2.5-1-4 .7-2 2.3 2.6 1.9 9.2 1.7 10.3-.3 1.4-2.5 2 .3 1.3 5.6-.6 4.4-.7 4.5-4.3 4.8-5 .4-4.9 2.2.1 2.2 5.7 0 6.6 4.4 1.1 5.1-3.2.5-2.7 2.5.6 2.2 2.3-.2 2.5.1 2.2 3-.3 2.8-.7 3.3-3.6 3.7-4.3.7-4.2 2.4.3 2.8l3.5.3v13.2l-4.9-.7c-5.3-.7-7.5.6-4.2 2.3 1.1.6 3.6 1.1 5.5 1.1 3.2 0 3.6.3 3.6 2.6 0 2.7 0 2.7-12.5 1q-.9.1-1 1.4c0 1.6 3.7 2.7 9.8 2.9 3.1.1 3.7.5 3.7 2.2 0 2.1-.3 2.2-8.5 1.6q-12.3-1-6.7 2.2a37 37 0 0 0 8.5 1.6c5.6.6 6.7 1 6.7 2.6 0 2.5-1.5 3.1-7.9 3.3-4.3.1-5.6.5-5.6 1.6s1.6 1.6 6.9 1.8c6.5.3 6.8.4 6.2 2.5l-.6 3c0 .7-5 .2-9.3-1q-2.1-.8-1.5 1.9c.2 1.9 1 2.3 4.6 2.6 4.1.3 6.1 2.2 2.3 2.2-1.1 0-3.2.5-4.6 1-4 1.5-1.6 4.1 3 3.3 3-.5 3.3-.3 2.8 1.5q-.4 2.2-3.9 2.4c-5 .4-4.2 2.2 1.3 2.8 4 .4 4.9.9 5.1 2.7q.4 2.3-1.5 1.8l-6.1-.9c-3.6-.3-4.3-.2-4 1.2s1.7 1.8 5.7 2.2c7.6.7 8.1 3 .6 3-6.9 0-7.3 2.3-.4 2.8 8.4.6 9.5 4.8 1.1 4.3-2.9-.1-5.2.2-5.2.7 0 1.4 2.5 2.2 6.5 2.2q5.4-.1 3.9 3.5c-.5 1.3-1.5 1.5-5.2.9-3.5-.5-4.4-.4-4 .7.3.8 2.2 1.6 4.4 1.9 3.1.4 3.9.9 3.9 2.5q.1 2-2.8 2.3c-3.1.4-3.2 2.7-.1 2.7q1.7.2 2.2 1.7c.3 1.4-.6 1.7-4.4 2q-4.6.3-5.2 1.7c-.4 1.1.5 1.3 4.7.8 4.7-.6 5.1-.4 5.7 1.7.3 1.3.4 3.8.2 5.7l-.3 3.4-6.5-.3c-6.1-.2-6.4-.2-4.5 1.3a9 9 0 0 0 6 1.3c3.7-.2 4-.1 4.3 2.5q.7 4.4-6.2 1.7-2.5-1-3.2.2c-1.1 1.8 3.5 4.8 7.3 4.8 3.3 0 3.4.2 3.1 3.2-.3 3.1-.5 3.3-4.5 3.3-2.3 0-4.5.4-4.9.8-1.2 1.2 1.7 2.7 5.2 2.7 3.8 0 6.6 2.6 4.3 4.1-.8.5-3.2.8-5.4.7-3.9-.3-4.1-.1-3.6 3.3 0 .6 1.9.9 4.3.7 3.4-.2 4.4.1 4.6 1.4.3 1.3-.6 1.7-4 2-5.5.4-5.6 2.2-.1 2.6 6.6.5 6.8 6.2.2 6.2-4.3 0-3.5 1.8.9 2.2 2.9.2 3.7.7 3.7 2.3s-.8 2.1-4.3 2.3c-5.7.4-5.1 2.8.7 2.6 4.1-.2 4.2-.1 3.9 3-.3 3-.5 3.1-4.5 2.8-4.8-.4-6.5 1.3-3 2.9 1.8.8 3 .8 4.6 0q3.8-2 2.9 4.1c-.3 2-.9 2.3-5 2.6-6.2.4-6.2 2 0 2.4 4.3.3 4.7.5 4.7 2.8s-.5 2.5-4.3 2.8c-5.3.4-5.2 2.6.1 3 5.4.5 5 3.2-.4 3.2q-4.1 0-3.6 1.2c.2.8 2.1 1.3 4.3 1.3 3.5 0 3.9.3 3.9 2.5s-.3 2.5-3.6 2.2c-5.5-.5-5.8 1.5-.4 2.3 4 .7 4.5 1 4.5 3.4 0 2.5-.2 2.6-4 2.3-3.3-.3-4-.1-4 1.3s.7 1.7 4.5 1.2c3.9-.6 4.5-.4 4.5 1.2q0 3.6-5.3 4.3c-3.3.4-3.6 2.3-.4 2.4 4.4.2 4.8.4 4.5 2.1q-.3 1.8-3.7 2.3c-1.9.3-3.6 1.1-3.9 1.8-.3 1.1.6 1.3 3.8 1q7.3-.4 3.4 3.6-1.7 1.8-5.3 1.4c-2.7-.2-3.6.1-3.6 1.2 0 1.2 1 1.4 4.7 1.2 3.7-.3 4.9 0 5.4 1.3.9 2.3-.2 3-5.3 3-6.8 0-6.8 2.3-.1 2.7 3.9.2 5.3.7 5.3 1.8s-1.5 1.6-5.5 2c-6.9.6-6.7 2.5.3 2.5 4 0 5.2.4 5.2 1.5s-1.4 1.6-4.8 2c-2.6.3-4.9.9-5 1.4-.3 1.3 5.2 2.7 8 2q2.1-.5 2.3.4c0 .6-2.5 1.4-5.5 1.7-6.8.9-6.9 2.9-.2 3.3q4.7.4 4.7 1.6c0 1.7-4.4 2.9-7.2 2q-2.2-.9-1.6 1.3c.3 1.4 1.3 1.8 4.6 1.8 5.9 0 5.3 1.9-.8 2.3-3.6.2-5 .7-5 1.8q.1 1.3 2.8 1.5c7.3.3 7.7.4 8 2.7.3 2.2.1 2.3-5.2 2-7-.4-7.4 1.4-.7 2.7 2.7.5 5.3 1.4 5.7 1.8 1.4 1.3-1.8 2.7-6.3 2.7-4.3 0-5.7 1.3-2.7 2.4.9.3 3.1.6 5 .6s3.4.4 3.4 1-2.1 1-4.6 1c-3.8 0-4.5.3-4.2 1.7s1.5 1.9 5.1 2.1c6 .4 5.9 2.6-.2 3-5.5.4-4.9 2.6.8 3s4.8 2.6-1.3 3c-6.2.4-5.6 2.5 1 3.2 6.4.7 6.7 3.1.5 4.6-6.4 1.5-6.7 3.6-.5 3.3 4.4-.3 4.9-.1 5.2 1.8s-.3 2.3-4.7 2.9c-2.8.4-5.1 1-5.1 1.5 0 .9 5.9 2.2 8 1.7q1.4-.2 1.8 2c.3 1.9-.1 2.2-2.7 2.2-4.3 0-4.2 2.8.2 3.2q3.1.3 3.2 1.8c0 1.1-1.5 1.6-6.3 1.8-8 .4-7.9 2.5.1 3.2 3 .3 5.8.8 6.2 1.2 1.6 1.6-1 2.9-5.6 2.7-8.5-.4-8 2.5.6 3.6 6.6.8 7 2.8.7 3.3q-4.3.3-4.2 1.8c.1 1.5 1.3 1.4 4.6 1.4 3.8 0 4.5.3 4.2 1.7s-1.4 1.8-5.3 1.8c-3.8 0-5 .4-5 1.5 0 1.6 6.7 3.2 9.8 2.3q2-.6 1.5 1.4c-.3 1.5-1.3 1.8-5.8 1.9-4.1.1-5.6.5-5.8 1.6s.9 1.7 4.1 2.2c2.4.4 5.1.4 5.9.1 1.9-.7 2.4 2.5 2.4 13l-.1 7-5.2.3c-2.9.2-5.3.8-5.3 1.4q.1 1 5.5.6c5.5-.5 5.5-.5 5.9 2.6 1.2 8 2.7 27.7 2.1 28.6-.3.5-3.8 1-7.6 1-5.2 0-7 .3-6.6 1.2q.5 1.2 5.8 1.4l6.9.2c1.6.2 2.2 5.8 4.7 39.6l.5 6.8-9.7-.3c-7.2-.3-9.9-.1-10.2.8q-.6 1.3 4.1 1.3c2.5 0 4.6.4 4.6 1q0 .9-1 1c-1.2 0-1.4 2.7-.2 3.3 1.6 1.1 6-.6 6.5-2.5q.5-2 2.9-1.6c2.1.3 2.3.8 2.2 5.8-.1 3-.5 7.6-.9 10.2-.7 4.3-1.1 4.9-4.9 6.7-11 5.1-14.1 6.1-20.2 6.2-6.8.2-8.3.9-6 2.8 1.5 1.3 13.5 1 17.1-.4q2.5-1-.4 1-3.2 2.4-22.6 3.8c-3.2.2-4 .6-4 2.2 0 1.9-.7 2-12.8 2q-12.7-.1-13.9-1.3a6 6 0 0 0-3.5-1.2c-3.1 0-3.1 3.5.1 5.5 2 1.3 6 1.6 24.8 1.5 30.7-.1 33.2-.5 39.6-6 4.6-4 5.9-6.1 9.3-14.8a8 8 0 0 1 3.9-3.5c3.5-1.3 4-2.8.8-2.4-1.8.1-2.2-.3-2.1-1.8.8-6.2-.1-39.6-1-42.5-.9-2.6-1.6-11.9-2.3-29-.3-9.1-.9-20.1-1.4-24.5s-.6-8.3-.4-8.7c.3-.5 1.7-.5 3.1-.2 2.1.6 2.4.3 2.1-1.2q-.4-1.9-3.1-2.2c-2.2-.3-2.7-.8-2.7-3.2q0-2.6 1.3-2.6 1 0 1.4-.9.1-1-1.5-1c-1.5 0-1.8-1.8-2.3-18.1-.4-9.9-.9-22.3-1.3-27.5-1.4-21.7-2.4-97.8-1.2-99.7.7-1.1 10.7-.3 12.4 1q1.3 1.3 1.2-2.3v-3.4h-7.2c-6.7 0-7.3-.2-7-2 .5-2.8.6-2.9 7.8-3.3l6.5-.4-.3-4.2-.3-4.1h-14l.1-14.5.3-38.5c.1-13.2-.1-30.5-.4-38.5-.8-18.6-1-54.8-.4-111.3l.5-44.8 4.6-4A27 27 0 0 0 500 150v-7l-4 2.6a41 41 0 0 0-10.1 13 43 43 0 0 0-5.5 11.2c.9.8 3.7-.9 4.7-2.9 2.6-4.9 10.3-16.9 11.5-18q4.1-3.4-.5 6.4a46 46 0 0 0-3.1 7.6c0 2.1-6.2 8-9.6 9.1-7.6 2.5-8.2-.9-2.4-13.3 2.2-4.7 4-8.9 4-9.4 0-2 13.3-12.7 14.4-11.6.3.4.6-.4.6-1.6V134l-3.7 1.9c-6.1 3.1-16.3 14.8-16.3 18.6 0 1-1 3.3-2.1 5.2-1.9 3-2.3 3.3-3.1 1.8q-2-3.5 3.3-11.3a23 23 0 0 0 2.9-5.1c0-1.8 13.3-13.2 16.1-13.8 2.2-.4 2.9-1.1 2.9-3 0-2.3 0-2.3-3.1-.7q-3.1 1.5-4.1.6c-.5-.5-3.8-5.8-7.3-11.8-8.6-14.8-8.9-15.2-10.8-13.6-.8.7-2.5 4.5-3.7 8.5-1.3 3.9-3.5 9.4-4.8 12.2l-2.5 5-2-6.5q-4.1-13.8-6-14-3.6.1-6.8 10.6a23 23 0 0 1-3 7.4c-1 0-7.8-11.8-10.4-18-1-2.5-2.2-4.9-2.7-5.4-1-1.2-4.5 2-5.4 4.8-.3 1.1-1.6 4.3-2.9 7.1l-5.1 11.5a54 54 0 0 1-3.6 7.5c-.5.5-2.5-.7-5.1-3.1a99 99 0 0 0-17.8-13.4c-2.6-1.2-4.1-4.4-6-13a181 181 0 0 0-14.5-34.8 95 95 0 0 0-24.6-31.8c-7.8-6.1-17.5-11.1-18.9-9.7-1.5 1.5 2.6 5.1 9.7 8.3q10.7 5 2.5 5.8c-5 .5-13-2.8-15.9-6.6-1.9-2.5-2.5-4.5-2.6-8.5-.1-6.8 3.5-13 11.8-20.9l6.1-5.8H337c-2.9 0-4.4.8-8.2 4.7-6.2 6.5-10.8 15.3-10.8 21 0 7.3 5.5 15.6 11.1 16.8 1.6.4 3.1 1 3.4 1.5.8 1.4-6.9 2.4-27 3.5L287 48.6a801 801 0 0 1-40 1.9 526 526 0 0 0-22.5-.9 369 369 0 0 1-55.5-5.1c-11.2-2.2-11-1.9-5.5-7.5 2.7-2.7 5.2-4.7 5.7-4.4q.8.5.3 1.4c-2.3 3.7 12.9 2.7 19.8-1.3 5.5-3.2 6.7-4.7 7.8-9.4 1.3-5.6-1.2-13-6.2-18.6L186.8 0H0zM185.1 20c1 .6 1.9 1.7 1.9 2.5 0 1.9-.5 1.9-3.5-.1-2.8-1.8-4.7-1.4-11.7 2.7-5.6 3.3-5.9 3.4-5.2 1.4 1.1-2.8 9.6-7 15.2-7.4.7-.1 2.2.4 3.3.9m168.4 27.7c3.1 3.6 3.1 5.1-.1 6.3-2.1.8-2.8.6-4.7-1.5a12 12 0 0 0-6.7-3.4l-4.5-.8 4-1.1c4.2-1.1 7.5-1.9 8.8-2.1.4 0 1.9 1.1 3.2 2.6m-190.5 0q-3 1-3 5.3.1 4.9 4.6 5c2.9 0 4.7-2.4 4.7-6.1 0-3 .1-3 4.1-2.3q10.2 1.6 2.2 4.8c-4.4 1.8-7.6 5-7.6 7.6s3.3 2.6 8.3.1l3.7-1.9 1.5 3.1c1.9 3.9 2 3.7-1.9 3.7-2.8 0-3.8.6-5.6 3.5-1.7 2.7-1.9 3.8-1 5.5 2 3.8 6.8 1.7 8.5-3.8.9-3.1 3.9-2.5 4.3 1 .2 2-.4 3.1-2.5 4.5-5.2 3.3-7 8.2-4.3 11.5l1.8 2.2 3.6-2.7q3.7-2.8 3.6-5.5a5 5 0 0 1 2-4c1.8-1.1 2-1 2 1.1q.2 4.6 4.8 4.7 2.6.1 1.8-1.6-.5-1.7 1.1-2.9c1.5-1.1 1.5-1.7.5-4-2.1-4.6.4-5.9 4.8-2.5 2.3 1.9 2.4 2.1.8 3.1-1 .5-1.8 1.7-1.8 2.6s-.7 2.4-1.5 3.3q-1.5 1.5-.6 4.5c.9 3.5 3.5 4.4 6 2.1 1.7-1.6 2.1-1.4 5.4 1.9 3.9 3.9 5.1 3.9 6.1 0 .5-2 0-3.2-2.4-5.6-1.6-1.7-3-3.8-3-4.8q-.2-3.8-2.6-2-1.2 1-1.9-.1-.6-1-.4-1.3l4.1-1.9 3.7-1.7-.6 3.3c-.4 2.5.1 3.9 2.2 6.4 3.2 3.9 6.5 4.3 6.5.9 0-1.3-1.1-4.6-2.5-7.2a34 34 0 0 1-2.2-5.1c2.8-2.4 10-7.4 10.7-7.4 1.5 0 1.3.3-2.5 6-4 5.9-4.1 6.3-2 8 1.2 1 2.1 1 4.5 0q5.8-2.5 4.6-8.1c-.6-3.4-.8-3.3 3.2-1.3 3.7 1.8 3.9 2.5 1.2 4.2-2.3 1.4-2.7 5.7-.6 6.5q1.5.4 4.8-3.8c2.5-3.4 3.8-4.3 5.3-3.8 3.3.9 3.9 2 2.6 5.1-1.4 3.4-1.1 7.4.6 7.9.6.2 1.5-.6 1.8-1.8.7-2.2.8-2.2 2.1-.4.8 1 1.4 3.6 1.4 5.7 0 3.6-.3 4-4.6 5.8q-4.5 2-6.2 1.1c-.9-.5-4.5-1.2-7.9-1.6a23 23 0 0 0-16.6 3.7c-2.4 1.8-3 1.8-4 .6-.7-.8-2.9-2.5-4.9-3.7-4.8-2.8-8.3-2.1-7.4 1.5.9 3.5-1.8 3.1-4.6-.6a21 21 0 0 0-6-5c-3.7-1.9-3.7-1.9-5.2.1-1.1 1.7-2 1.9-5.1 1.3s-3.7-.4-3.3.7c.3.8 3.1 1.8 6.9 2.5 6.6 1.1 17.1 5.3 18.3 7.3q1.4 2.4-4.5-.6c-1.9-1-6.5-2-10.4-2.4-6-.6-7.6-.4-11.3 1.4-4.3 2.1-6.8 4.9-5.8 6.5.6 1 7.4.3 8.2-.9.8-1.3 7.3-1 11.5.5 4.6 1.6 12.5 7.9 10.7 8.5-.7.2-2.1 1.1-3.1 1.9-1.6 1.4-2 1.4-4-.6l-2.2-2.3 2.3-.6q2.6-.4 1.1-1.9c-1.7-2-14.1-1.9-18.2.2-3.8 1.9-6.7 4.4-6.7 5.6 0 .5 4.5.8 9.9.6l9.9-.3 4.8 4.1a23 23 0 0 1 5 5.2q.1 1-.3.2a54 54 0 0 0-19.1-.4c-1.8.4-5.7 3-9.1 6-3.2 3-6.1 5.4-6.4 5.4-1.1 0-1.4-10-.5-17.3 1.4-11.2-1.4-25.1-5.6-27.9q-3.4-2.2-8.6 2.1c-3.2 2.6-3.4 3.3-3.8 9.7-.3 5.4.2 8.6 2.2 14.6 1.4 4.3 2.9 8.6 3.5 9.5.5 1 1.4 5.3 2 9.6q2 14.3 6.2 13.4c2.5-.7 3.5 1.1 1.6 3-1.2 1.2-1.8 1.3-3.5.2a5 5 0 0 1-2.4-3.4c-.4-2.6-1.8-2.6-3.2 0l-1.3 2.4q-.4.3-1.5-.7c-1.6-1.3-1.2-13.3.5-12.9q1 0 1.5-1.6.6-2-1.6-1.5c-1.2.2-3.6-1.3-6.4-3.8-3.3-3.1-5.6-4.3-8.9-4.7a34 34 0 0 0-21.6 6.1q-5.9 4-.9-1.6c10.6-11.9 9.7-11.3 16.6-12.2 8.1-1 10.2-1.8 9.8-3.8-.3-1.6-1.8-2.6-8.7-5.5q-6-2.6 3.8-3.2l5.4-.4q.6-.2.7-1.4c0-2-6.1-4.9-11.7-5.4q-8.1-.8-3.7-4.3c1.2-1.1 3-1.1 9.4-.1 10.4 1.7 12.2 1.2 13.8-4 1.2-3.9 1.1-4.3-1.3-7.4l-2.5-3.4 3.3.6c4 .6 5.8-1.1 6.6-6.5q.7-3.6 2.1-3.7c1.9 0 1.5 4.6-.7 8.8-2.1 4.2-.3 5.4 3.5 2.3 3.3-2.8 4-3 6.2-1.6 1.2.7 1 1.3-1.3 3.4a8 8 0 0 0-2.7 5.7v3.2l4.8-.7 7-.8q2 0 2.2-1.5c0-1.3-.9-1.5-5-1-6 .7-6.4-.3-1.7-5.1l3.2-3.4-3-2.4q-3-2.4-5.2-1.9c-1.8.4-2.3.1-2.3-1.5s.4-2 1.9-1.5 2.2-.2 3.1-3.1c1.4-4.2.9-4.9-4.7-5.8-3.7-.5-4.4-.3-5.8 1.8-1.6 2.5-4.4 4.1-5.3 3.1-.3-.3.3-1.4 1.3-2.5a5.3 5.3 0 0 0-1.5-8q-4.6-2.5-3.5 4.1l.7 4-3.7-2.6a20 20 0 0 0-4.6-2.5c-1.2 0-1.1-2.1.1-4 .8-1.3 1.1-1.2 2.4.5s1.6 1.7 3 .6c2-1.7 2.1-3.7.1-4.9-2.3-1.2-.8-4.1 2.4-4.7 1.4-.3 4.2-1.4 6.1-2.5a17 17 0 0 1 5-1.9q2 0 0 .6m171.2 2c-1.6.6-4.2 3.2-4.2 4.2 0 .4 1 1.3 2.3 1.8 1.9 1 2 1.2.5 1.8q-1.7.6-4.4-1.4a10 10 0 0 0-4-2.1c-2.1 0-5.4 3.7-5.4 6 0 3.2 2.8 3.6 5.1.6 1.1-1.4 2.5-2.3 3.1-2q.7.7-1.1 2.8c-1.2 1.2-2.1 2.8-2.1 3.6 0 1.8 3 5 4.7 5q1.5-.2 1.1 3.7c-.4 4.9-2.9 5.1-3.9.4-.9-4.5-4.2-8.7-6.7-8.4-2.8.3-3.9-5.5-1.7-9.6.8-1.7 1.5-3.9 1.5-5 0-1.8.8-2 7.8-2.3q11.3-.4 7.4.9m-22.1 3.7a50 50 0 0 1 1.1 6.9c.2 3.8 0 4.2-2.2 4.5-1.4.2-2.9.8-3.5 1.3q-2.9 2.7-2.2-2.9c.3-2 .8-4.7 1.2-5.8.8-2.5-2-4.1-4.1-2.3-1.8 1.5-3 11.7-1.5 13.2q1 1.1 1.1 2.2c0 1.3-8 6.8-8.7 6.1-.3-.2.5-1.8 1.7-3.4 4.8-6.5-1.6-8.3-7.3-2.1-2.3 2.5-2.6 3.5-2.1 6.9.4 2.2.4 4 .1 4s-1.9-1.4-3.6-3.1q-5.2-5.3-7.8 0a9 9 0 0 1-3.7 3.8c-2.4 1.3-2.7 1.2-3.8-1.2-.6-1.4-.8-2.8-.3-3.3q.7-.5 1.2.5.9 3.2 5.4-1.9 4.3-4.6-.6-4.8-.7-.1.5-1c1.2-.9 3.6-.9 6.2-.8 5.6.3 9.2-2.3 8.4-5.8-.8-2.8.7-3.8 3.3-2.3 1.5 1 2.4.9 4.6-.5 2.4-1.6 2.5-1.9 1.2-3.4-1.2-1.3-2.8-1.6-6.6-1.4-4.5.4-5 .6-5.3 3q-.4 2.7-3.1 4-5.4 2.9-2.3-2.9c1.9-3.9 2-5.3.3-6.7-2.8-2.3-5.7 2.5-5.7 9.6 0 4.5-.3 5-3.3 6.7-3.7 2-7.2 1.7-7.2-.5q0-1.5 3.8-1.8c4.2-.4 5.8-2.5 3.5-4.8-1.1-1.1-2.4-1.2-5.9-.6l-4.5.9.9-4.4c.6-2.3.8-4.6.4-4.9-.7-.7-6.8 3.3-8 5.3-1.2 1.9-2.7 1.6-2.7-.6q0-4.7-5-.5c-2.4 2.1-3 3.2-2.6 5q.7 2.5-.8 2.4-3.3 0-.4-5.9a16 16 0 0 0 1.8-5.2c0-1.5 1.6-1.8 11.3-2.3 15.4-.8 54-2.3 55.1-2.1.6.1 1.3 1.4 1.7 2.9m-129.5 1.4c-1.4 1.4-1.6 1.4-1.6.1 0-2 2.3-4.4 2.9-2.8.2.6-.4 1.8-1.3 2.7m11.7-2.8h3.1l-3.1 3.2a15 15 0 0 0-3.5 5.3 3 3 0 0 1-2.2 2.3q-2 .5-1.2-1.3c.3-.9.6-3.7.6-6.2 0-3.7.3-4.4 1.6-3.9.9.3 3 .6 4.7.6m41.3 4q2.5 3 2.2 5.7c-.3 2.7-.4 2.7-2.6-1.5-2.7-5.1-4.2-5.9-8.3-4.2-3.9 1.6-6.2 4.9-4.8 6.6.9 1.1 1.7.9 3.9-.8 2.6-1.9 5.7-1.8 4.5.2-.6 1-9.3 7-10.2 7q-.6-.2-1.8-1.7c-1.1-1.5-1.5-1.5-2.9-.4q-1.4 1.2-1 2.3c.7 1-1.4 3.8-2.8 3.8q-1-.2-.4-3.5c.9-4.8-.3-13.5-2-13.5-2.1 0-5.4 5-6 9.2-.4 2.2-1.2 3.8-2 3.8-1.7 0-1.9-1.7-.2-2.2q1-.5.4-1.7-.8-1.3-2.1-.1-1.4 1-2.3.6c-.5-.3-1.8.1-2.8.9-2.7 2-5.1 2-3.4 0 .7-.8 1.9-1.5 2.8-1.5 3.1 0 6.2-4.1 6.2-8.1 0-3.6.1-3.8 3.8-4.1 2-.2 9.5-.2 16.5-.1l12.8.3zm125.7 3.8c-2.3.6-4.2-1.7-2.3-2.8q1.4-.9 2.6.8 1.6 1.9-.3 2m-11.4 1.6c3-.1 3.2.1 1.5 1.3-2.2 1.6-3.9 1.6-6.5.3-2.4-1.3-2.6-3.5-.1-2.4.9.4 3.2.8 5.1.8M336.4 66c1.2 0 3.3 1.1 4.6 2.5 2.7 2.9 8.7 3.5 9.6 1 .8-2.1 3.6-1.9 3.2.2q-.4 1.6-4.8 2.7c-3.8.9-4.5 1.5-4.8 3.8-.5 3.8-3.2 3.7-3.2-.1 0-3.3-3.9-8.6-7-9.6q-1.8-.8-2-2.3c.1-1.6.2-1.5 1.1 0 .5 1 2 1.8 3.3 1.8M252 64.9c0 1.2-2 2.5-2.7 1.8s.6-2.7 1.8-2.7q.8 0 .9.9m7.3 2.1c-.5 2-2.3 2.6-3.6 1.3-.9-.8 1.2-3.3 2.8-3.3q1.2.1.8 2m-120.2 3.3q-1.1 1.2-1.1-.4c0-2 1.3-3.4 1.8-1.9q.3 1.2-.7 2.3M313 69q-.1.9-1.1 1-.8-.1-.4-1 .6-1 1.1-1 .4 0 .4 1m4.7 2.7c.3 1 1.3 2.6 2 3.5 1.4 1.5 1.1 1.7-2.3 2.4-3 .5-4 .3-5.1-1.1-1.9-2.7-1.6-4 1-5.3 3.1-1.5 3.7-1.4 4.4.5m-123 3.1-2.7 2.7v-2.7q-.1-2.9 2.3-3c3.3-.6 3.4 0 .4 3m-46.6-1c2.1-.3 3.5.2 5.1 1.9 3.4 3.6 1.1 4.8-4.3 2.4a21 21 0 0 0-6.1-2.1c-2 0-3.2-1.6-2.3-3q.6-1 2.7.1c1.1.6 3.3.9 4.9.7M337 77.2c0 1.6-.7 4-1.6 5.3-1.4 2.2-1.4 2.5-.1 3.1.8.3 3.3-.4 5.6-1.5 6.2-3.2 11.1-2.3 6.3 1.1-2.7 1.9-5.4 6.4-5.1 8.5.1 1-.1 3-.5 4.5q-1.6 6 3.1 3.1c3.9-2.6 18.1-3 24.1-.8 4.5 1.7 8.2 4.1 8.2 5.4 0 .3-2.4.7-5.3.8-7.6.2-15.9 2.3-18.4 4.6-1.2 1.1-3 4-4 6.5-1.4 3.7-1.8 4.1-2.4 2.6-.4-1.1-.8-3.4-.8-5.3-.1-4.1-4.8-11.7-7.8-12.5-3.3-.9-5.2.3-7.3 4.4-1.9 3.7-2 7.3-.5 17l1.4 12.7c1 9.6 3.8 19.3 5.6 19.3s3.5-2.3 2.6-3.4c-1.9-2.4-3.4-9.6-5.1-24-1.7-15.1-1.7-21.1.2-22.2 1.3-.8 5.5 3.3 6.7 6.6a80 80 0 0 1-1.3 26.9c-1.1 4.5-1.2 7-.5 8.3.6 1 1.1 3.6 1.3 5.6.2 3.1.6 3.7 2.4 3.6 2.1-.1 2.2.4 2.2 7.4 0 5.6-.4 8-1.7 9.4-2 2.3-.9 3.6 1.7 2a8 8 0 0 1 3.4-1.2c2.1 0 3-1.9 1.6-3.5q-1-1.4-.5-2.6.7-1.1 3 1.7l2.3 2.8 2.5-3c3.6-4.3 9-5.8 17.2-4.9 3.9.4 6.8 1.2 7.1 2 .9 2.2-1.1 20.8-2.2 21.2q-1 .1-2.1-1.9c-.6-1.3-3.6-3.6-6.6-5.2-5.1-2.6-5.9-2.7-9.4-1.6-5.3 1.7-6.9 3.4-8.2 8.5-2.8 11.1.5 25.6 6.4 28.3 3.7 1.7 13 1.5 16.5-.3 2.9-1.5 3-1.5 3.1.7l.5 7.9c.3 4.1 0 6-1.1 6.9-1.9 1.6-4 .8-4-1.6 0-1.7-.6-1.9-5.3-1.6-4.6.3-5.6.1-6.9-1.8-1.3-1.8-2.3-2.1-8.4-1.9-4.2.1-7.5-.3-8.1-.9-.7-.7-2-1.2-3-1.2s-2.1-.8-2.4-1.8-1.7-3.9-3.1-6.6c-3.4-6.4-4.4-19.6-1.9-24.4q3.3-6.2 7.7-4.1c1.7.9 2.3.8 3-.2 1.3-2.1-3.9-6.9-8.8-8.2a12 12 0 0 1-4.4-1.7l-1.3-15.9c-1.1-13.8-3.3-17.2-13.2-19.8-5.9-1.5-13-1.1-16.7.9q-3.6 1.8-2.2-2.1c1.2-3.8 15.4-9.5 22-8.9 4.9.5 3.6-2.4-2.4-5.5-3-1.5-6.6-2.7-8-2.7q-3.3 0-.8-1.1c1.3-.8 3.7-.7 8.3.2q6.4 1.2 7.4.3c1.7-1.7-1.8-5.3-8.3-8.5-5.4-2.8-6.8-3.1-11.9-2.6-5.8.5-6.8-.1-5-3a28 28 0 0 1 7.4-4.2c5.9-2.7 7.5-3 14.2-2.7 8.2.5 10.3-.6 9.1-4.5-1.1-3.5-8.7-11-13-13l-4-1.8 5 .6c4.6.6 5.9 1.3 6.8 3.7q.5.8 2 .3c1.5-.5 2.7-3.8 4.2-11 .5-2.4.8-2.7 2-1.7.8.7 1.5 2.6 1.5 4.2m31.9-2.8c1 1.2.7 1.8-1.8 3.1-1.7.8-3.1 2.3-3.1 3.1q.1 2-1.5.4c-1.4-1.1-1.4-1.5 0-3.7.9-1.3 1.3-2.8 1-3.3-1-1.6 4.1-1.1 5.4.4m-108.7 1.3c1.6 2 4.8 11.5 4.8 14.5 0 1-.7 3-1.6 4.3-2.4 3.6-1.5 6.8 2.1 7.6 9 2 19.1 8.6 24.4 16 2.4 3.2 2.7 4.6 2.9 14.1.3 9.6.1 11-2.1 15.4a30 30 0 0 1-4.3 6.5c-3.3 2.8-17.2 8-19.7 7.4q-2.4-.8-5.5 2c-1.7 1.5-3.6 2.3-4.2 2q-1.1-.6-2.5.5t-2 0c-.4-.7-1.9-.9-3.5-.5-2.4.5-3.7.2-7.9-2.2q-.2-.4.9-1.8c1-1.2.9-1.6-.4-2.1-.9-.3-2.2-.2-2.9.4-.6.5-3.7 1.3-6.7 1.7-3.1.4-6.4 1.5-7.5 2.5s-3.2 2.3-4.7 2.9q-2.8 1-3.4 3.8c-.3 1.5-.7 3.4-1 4-.4 1.5-4.2 1.7-6.3.4q-1.8-.9 1.7-2.5c3.9-2 6.5-6.7 5.6-10.1-1-3.9-2.3-4-6-.4-2.5 2.4-3.4 4.2-3.4 6.5q0 6.8-6.3 5.7c-4.2-.8-4.6-1.2-2.2-2.6a27 27 0 0 0 4.8-3.8c2.7-2.7 2.7-2.9 1.3-6.4-.8-1.9-1.5-3.9-1.5-4.2.1-2.1-2.2-.9-5.5 2.7-3.1 3.5-3.6 4.6-3.1 7.4q.8 3.3-.9 4.5c-1.4 1.2-1.6.9-1.6-2.3 0-2-.2-3.6-.4-3.6l-3.9 1.5c-5.6 2.3-6.7 2-6.7-2.1 0-3.4.1-3.5 2.2-2 3.2 2.2 5.5 2 8.3-.9 4.1-4 3.4-7.7-2.6-13.7-4.5-4.5-5-5.4-4-7.1 1.6-2.5.5-3.5-2-1.9-2.3 1.5-4.7.6-3-1.1q1-1 0-2.3c-1.4-1.7-.5-3 3.3-5q5.2-2.8 2.9 1.4c-1.6 2.9-1.4 4 .8 5.2 2.1 1.1 6.1-.1 9.4-2.9 2.6-2.1 3.4-.5 1 2.2q-4 4.3-2.8 9.7 1.2 5.2 5 1c2.4-2.6 3.2-2.5 3.9.6.7 2.5 6.7 6.1 8.5 4.9.5-.2 2.7 1.5 5 4 4.5 4.9 5.6 5.4 6.5 2.9.5-1.2 1.5-1.4 4.9-.9 3.2.5 4.6.3 5.6-.8 1.4-1.7-.1-3.2-2.3-2.4-.7.3-3.7-.1-6.6-.9a19 19 0 0 1-14.5-14.6c-2.1-7.4-1.3-16.7 1.5-19.3 1.1-1 2.6-3.9 3.5-6.5.9-2.7 2.3-5.4 3.1-6 .7-.7 1.4-1.8 1.4-2.4 0-1.9 6.4-7.6 9.6-8.5a36 36 0 0 1 11.4.5 26 26 0 0 0 10.5.5l5.2-2.1a7 7 0 0 0 4.2-4.2c1.7-4.8 1.3-7.2-1.9-11.9-1.6-2.4-3-5-3-5.7 0-1.8 2.5-1.5 4.2.5M136 76.9q0 1-1 1.6-.9.4-1-.9.1-1.5 1-1.6 1 0 1 .9m172 .7q0 1.3-1 .9-.9-.6-1-1.6.1-.8 1-.9 1 .1 1 1.6m-6 2.4q3.7 3.8 2.7 10.4c-.3 1.9-.1 3.8.5 4.4q1.2 1.1-.2 2.7-2.5 3.3-3.4-1c-.6-2.5-2-3-5-1.9-2.4.9-2 5.9.7 7.7 2.1 1.4 2.1 1.6.5 3.3-.9 1.1-1.8 3-2 4.4-.4 3.1-2.1 3.3-2.3.2q-.4-5.2-4.9-3.1c-2.5 1.2-3 1-5.6-1.7-2.2-2.1-2.8-3.5-2.4-5.2.8-2.9 1.8-2.8 3.8.3 2.2 3.4 6.3 3.4 7.6 0 1.2-3.2-.5-8.2-3.2-9q-1.8-.7-1.4-2.2c.3-.8.6-2.2.6-3.1q0-1.6 2.9 1.8c1.7 2.1 3.8 3.5 5.3 3.5 1.3.1 2.9.5 3.6.9 2.1 1.3 3.4-.5 2.8-3.7-.9-4.5-2.3-5.6-6-5-4.5.7-5.7-2-1.8-4.1 3.6-2 4.8-2 7.2.4m74.5 4.1c3.2 6.1.2 7.1-6.2 2q-5.8-4.7-.9-3.5c1.3.3 2.7.1 3-.5q1.8-2.8 4.1 2m-99 .9c1 1.1 3.1 2 4.7 2 3.2 0 3.4 1.6.4 3.4-1.3.9-1.9.7-2.7-.7a8 8 0 0 0-3.5-2.7c-1.3-.5-2.4-1.6-2.4-2.5q.1-3.1 3.5.5m36.9 2.6c-.4 2.1-.2 4 .6 4.9 1 1.2.9 1.6-.3 2.1-2.6 1-3.3-.2-3-5.8l.3-5.5q.1-.2 1.5.3c1.2.5 1.4 1.5.9 4m-174.8-2.5c.3.6 1.7.8 2.9.5 1.8-.5 3 .2 5 2.6l2.7 3.2-2.7 2.3q-4.4 3.7-4.5-.5c0-1-.7-2.8-1.6-4.1l-1.7-2.3-2.4 3.1c-2.5 3.2-5.3 4.1-5.3 1.7 0-.7 1.1-2.1 2.5-3s2.5-2.3 2.5-3.1c0-1.7 1.6-2 2.6-.4m213.2 4c.2 1.3.9 3 1.4 3.7 1.4 1.6 1.1 1.8-3.4 2.6-3.7.7-3.8.6-3.8-2.1 0-3.3 2.7-7.6 4.3-7q1.2.5 1.5 2.8m-322.6-.4a77 77 0 0 1 9.8 21.1c-2.1.7-5.9-5.3-8.6-13.6-1.4-4.6-3-8-3.4-7.5a35 35 0 0 0-2.8 6.9c-1.2 3.4-3.2 8.7-4.6 11.9a29 29 0 0 0-2.6 7.6q0 1.8-1 1.9c-1.9 0-.3-6.4 3.9-15.5 1-2.2 2.5-6 3.2-8.5 1.8-6.1 3.5-7.3 6.1-4.3m334.7.4c3.3 1.6 4.2 2.5 3.9 4.2-.3 2-.8 2.2-4.8 1.8-2.5-.1-4.6-.4-4.8-.6-.3-.3.9-7.5 1.2-7.5zM70 89.5c0 .9-.8 4.1-1.9 7.3L64.6 108c-.9 3-2.5 7-3.4 8.8-1.6 3.1-1.6 3.4.5 7.5 1.2 2.3 2.4 5.4 2.7 6.9.7 3.2 4.5 9.8 5.5 9.8.4 0 1.3-1.8 2-4 1.5-5 9.1-12.5 18.6-18.4 15.5-9.5 24.7-14.7 25.3-14.2.7.8-1.9 3.7-2.8 3.1-.5-.3-3.5 1.2-6.7 3.3L93.1 119c-10.6 6.1-14.9 10.4-18.7 18.4-3.1 6.8-3.4 9.6-1 9.6a28 28 0 0 0 5.6-6.8c4.2-6.1 15-16.2 17.5-16.2.5 0-2 2.7-5.7 6-8.4 7.6-13.9 15.2-14.6 20.2-.4 3.7-.6 3.8-2.3 2.2-2.3-2.1-13-23.1-15.3-30-.9-2.9-2.6-6-3.7-7a17 17 0 0 1-3.5-4.7c-1.6-3-3.4-2.8-3.4.5 0 1.1-.7 3.2-1.5 4.6a305 305 0 0 0-11.6 28.3c-1.3 4.5-2.9 7.3-2.9 5.1 0-2 10.6-32.4 13.5-38.5 1.4-3.1 3-5.7 3.5-5.7.7 0 3.7 4.2 6.8 9.7 2 3.5 4 2.9 4.7-1.5.8-5.5 2-9.9 5.1-18 2.5-6.7 4.4-9.2 4.4-5.7m8.5 7.7c2.6 5.1 5.1 9.7 5.5 10.3.9 1.2 2.2 6.5 1.6 6.5a151 151 0 0 1-12.1-24.3q-.6-1.5-.2-1.7c.4-.2 2.6 4.2 5.2 9.2m247.1-3.3c-1.2 1.8-3.6 0-3.6-2.7v-2.6l2.1 2.1c1.2 1.1 1.8 2.6 1.5 3.2m-55.8.3c2.1 2.1 1.5 4-1 3.2-3-.9-3.2-1-2.5-2.9q1.1-2.7 3.5-.3m110 2.2c-.1 1.3.6 3.3 1.6 4.5 1.5 1.7 1.6 2.1.4 2.1-2.5 0-4.7-3.3-4.1-6.3.7-3.3 2.6-3.6 2.1-.3m-216.3 5.4a74 74 0 0 1 1.8 28.2c-.8 11.1-2.4 13.5-3.3 5.3-.3-2.6-1.1-5.7-1.7-6.9-1.4-2.4-4.3-20.7-4.3-26.5 0-3.1.4-3.8 2.3-4.1 3-.5 3.5-.2 5.2 4m115.3-3.7q-.4 1-1.3 1-1.2 0-1.3-1t1.3-1.1c1.5-.1 1.5.5 1.3 1.1m-78 7.7q.2 1.1-1.2 1.2-1.5-.1-1.6-1.6c0-1.7 2.2-1.4 2.8.4m-171.8.5c0 1.4 3.2 8.1 4.9 10 .5.7 1.3 3.3 1.7 5.7 1 6.3-1 4.4-3.6-3.5q-3.6-11.4-6.1-2.3c-1.4 4.9-2.9 7.1-2.9 4.3s4.3-15.5 5.2-15.5q.7.1.8 1.3m104.9-.4c1 .7.1 1.4-3.4 3a28 28 0 0 1-5.6 2.1c-.4 0-2.1 1.2-3.8 2.6-2.4 2-3.1 2.2-3.1 1 0-2.6 3.3-8.7 4.5-8.2q1.2.3 2.6-.5c1.8-1.1 7-1.1 8.8 0m-63.4 7.6a25 25 0 0 1-2.9 8.4c-1.4 1.3-1.6 1.3-1.6.1 0-1.7 3.7-13.6 4.6-15.2q2-3.1-.1 6.7M214 107q0 .9-.4 1-.6-.1-1.1-1-.4-1 .4-1 1 0 1.1 1m-135 7.1c0 1-.2 1.9-.5 1.9-.9 0-4.5-6.4-4.5-8 .1-2.3 5 3.7 5 6.1m353-5.8c0 .7 2.5 5.6 5.5 10.9 5.4 9.5 8.7 18.9 5 14.3-.9-1.1-3.6-5.3-6.1-9.3-2.5-3.9-5.2-7.2-6-7.2s-2.2 1.9-3.3 4.2l-4.4 10c-1.4 3.2-3.1 5.8-3.6 5.8q-1 0-1.1-.3c0-.6 7-16.9 9.6-22.4 1.3-2.8 2.4-5.7 2.4-6.2q.1-1 1-1.1 1 .1 1 1.3m51.4 10.5c7.1 11.8 7.4 13.1 4.1 16.2l-2.7 2.5-2-2.5-3.5-4.5c-1.4-2-1.4-2-3.4.4a10 10 0 0 0-1.9 5l.1 2.6 1.5-2.8 1.5-2.7 2.8 2.7 2.8 2.8-2.6.3c-3.6.5-4.9 1.8-6.1 6.3-.6 2.2-1.5 3.9-2.1 3.9q-.8-.2-.3-2.5.8-2.7-.9-2.5-1.6 0-2.2-1c-.7-1.2 7.4-24 8.6-24 .5 0 2.2 2.7 3.9 5.9s3.4 6.2 4 6.6c2 1.2 2.2-2.5.2-5.2a61 61 0 0 1-4.1-7.1c-1.2-2.3-2.5-4.2-2.9-4.2-2.4 0-4.5 3.4-7.2 11.4-3.7 10.7-4 11.3-5.2 9.2-.9-1.5.1-4.5 8.4-25.9 1.4-3.6 2-3 9.2 9.1m-109-7.9q.4.8-1.4.4c-2.3-.6-2.6-1.3-.6-1.3q1.4 0 2 .9m-11.9 3.3c-1 4.7-1.2 4.8-5.6 4.8q-4.1 0-3.6-1.3.5-1 2-.9c2.6.4 5.7-1.7 5.7-3.8q.1-1.8 1.1-2 1 .1.4 3.2m-176.8.4q-.6.5-1.9.1-1.1-.5.6-.6t1.3.5m117.8 3.4q1 3-.6 1.2c-1.8-1.7-4.8-1.5-5.6.4-.5 1.5-.7 1.5-1.5-.1-1.1-1.9-1.2-1.8 2.7-3.8 3.3-1.7 3.9-1.4 5 2.3m13.6-2c2.7 2.2 1.3 2.6-2.5.9-2-.9-2.9-.9-4.1.1-1.9 1.5-2.8.9-1.9-1.4s5.6-2 8.5.4m140.4 5.2c2.3 9.6 4.1 14.8 7.8 23.3 2.6 6.1 7.6 23.8 7.7 27.2 0 3.1-1.9.9-3.1-3.5-.7-2.6-3-8.5-5.1-13S461 146 461 145s-.7-3.4-1.5-5.3a21 21 0 0 1-1.5-6c0-1.3-.6-3.2-1.4-4.3-1.9-2.5-4.6-1-5.8 3.2l-2.9 9.4-3.3 12.5c-2.5 10.4-5.6 17.7-7.4 17.3-2.2-.4-1.8-3.4 1.4-11.5 1.3-3.4 3-8.3 3.7-11 1.8-7.1 12.1-35.3 12.8-35.3.4 0 1.5 3.3 2.4 7.2M131 116.4c0 1.5-1.8 3.1-2.6 2.3-.7-.7.7-3.7 1.7-3.7q.8.1.9 1.4m239 1.5c-.6 1.2-1.6 1.9-2.1 1.5q-1-.7.7-2.5c2.1-2.4 2.9-1.8 1.4 1m13 2.6c0 1.9-.4 3.5-.9 3.5-1.1 0-2.4-4.8-1.6-6 1.3-2.1 2.5-.8 2.5 2.5m-276.6 1c-1.7.8-4.4 1.6-6 2q-3.7.8 1.1-1.4a18 18 0 0 1 6-1.9q2.3-.1-1.1 1.3m14.6.9c0 1.3-.7 2.9-1.5 3.6q-1.7 1.6-1.5-.8c0-2.7 1-5.2 2.1-5.2.5 0 .9 1.1.9 2.4m-90.7 1.3c2.1 4.1 3 7.3 2 7.3-1.4 0-5.5-7.8-4.8-9 .9-1.5 1.3-1.3 2.8 1.7m45.1-1.2q.6 1.6-1.2 1.3t-2 2.4c-.4 3.1-2.2 3.9-2.2 1 0-2 2.7-6.2 3.9-6.2q.9.2 1.5 1.5m324.6 3.4c2.5 2 5.2 4.3 6 5.2s4.3 3.9 7.7 6.8c5 4.2 7 6.8 9.9 12.9 2 4.2 5 9.1 6.6 10.8q3 3.2 2.6 5.5c-.4 2.7-2.8 3.8-2.8 1.3 0-4.2-10.3-18.6-16.2-22.5-1.3-.9-3.4-3.7-4.7-6.2q-2.3-4.5-4.5-4.9c-1.1-.2-3.2-2-4.5-4.1s-3.2-3.7-4.1-3.7c-1.7 0-4.3-4.3-3.3-5.4.7-.7 1.8-.1 7.3 4.3m-23.8-1.7q-1.1 1-1.9.4-.6-.7.7-1.6c1.9-1.2 2.7-.3 1.2 1.2m-16.7.8c-3.1 3.4-.7 4.6 5.8 3 5.7-1.3 10.4-.5 15.5 2.8q5.6 3.8-3 3.9c-2.9 0-7 .3-9 .6-5.9.8-15.8 7.4-15.8 10.4 0 .7-1.1 1.8-2.4 2.3q-2.6.8-3.2 4.7c-.7 3.6-.7 3.6-1.7 1.3-2-5.1-1.9-6.6.9-26.7.5-3.4 1.5-3.9 10.3-4.2 4.4-.1 4.4-.1 2.6 1.9m76.3 5.4c2.4 4.1 4.7 7.6 5.3 7.8 1.4.5 0 5.8-1.6 5.8-.6 0-2.7-3.2-4.4-7a26 26 0 0 0-4-7c-1.5 0-3.9 3.6-5.2 7.7-.7 2.4-1.6 4.3-2.1 4.3q-3.2.1 1.7-9.8c1.9-4 3.5-7.7 3.5-8.2q.1-1 1.3-1c.7 0 3.2 3.3 5.5 7.4m-45 .3 3.3 11.8q3.1 12.2 11.3 21.3l5.1 5.6-.3 12c-.2 10.6-1.1 29.7-2.7 55.6a2200 2200 0 0 0-3 63l-1 29.5c-.3 5.5-.7 23.7-1 40.5-.6 33.5-1.2 45.1-2.3 46.1-.4.4-4.2.9-8.5 1.3l-7.8.6.7-11.8c.4-6.4.7-17.8.7-25.2l-.2-36.5-.2-59-.3-47c-.1-6.1.1-16.4.6-23s.5-14.7 0-18-.4-8.5 0-11.5c.8-5.4 1.6-30.5 1.7-51.3.1-6.1.5-10.7 1.1-10.7.5 0 1.8 3 2.8 6.7m-82.8-3.8c0 1.1-.4 2.3-1 2.6q-1 .4-1-1.9c0-2.3.5-2.6 1-2.6q1 .2 1 1.9M198.5 130q.4.9-1 1c-1.4.1-1.3-.5-1-1q.6-1 1-1t1 1m102.5 2.5q-.2 1-2 2.3c-1.9 1.1-2 1-2-2.3s.1-3.4 2-2.3q1.8 1.2 2 2.3m-201.3 1.6a68 68 0 0 0-9.4 11.5 87 87 0 0 1-6.3 8.9c-.4.2-1.5-.2-2.5-.9-2.2-1.6-1.1-3.9 1.5-3.1 1.3.4 2.6-.7 5.2-4.7a74 74 0 0 0 4.7-7.6c1.3-2.5 9.1-8.5 10-7.7.2.3-1.2 1.9-3.2 3.6m106.1 3-.4 3.4-1.3-2.7c-.8-1.5-1.1-3.5-.7-4.4 1.1-2.8 2.8-.1 2.4 3.7m-63-1.9c1.4 1.2 1.5 1.8.3 3.7-.8 1.3-1.2 1.3-2.6.1s-1.9-1.2-3 .3c-1.9 2.6-2.5 2.1-2.5-2.4 0-4.1 0-4.1 3.3-3.4a17 17 0 0 1 4.5 1.7M398 134q0 .9-1 1a1 1 0 0 1-1-1q.1-1 1-1t1 1m16.4 17.6a63 63 0 0 1 11.1 16.4c.6 1.9.3 2.1-2.7 1.8-2.8-.2-3.3-.7-3.4-2.8 0-2.8-5.6-11.2-11.9-18-5.4-5.8-7.5-9-7.5-11.4 0-2.3 4.3 1.9 14.4 14m42-9.9c1 3.2 3.5 10.3 5.7 15.8 4.5 11.7 5.1 14.8 2.8 15.3-1.2.2-2.1-1.5-3.8-7-3.5-11.6-6.3-18-7.3-17-.5.5-2.5 5.6-4.4 11.3a75 75 0 0 1-4.4 11.3c-2.1 2.1-2.2-.6-.2-6.1 1.1-3.2 2.8-9 3.7-12.8 2-9.2 4.5-16.5 5.4-16.5.5 0 1.6 2.6 2.5 5.7m-445.1.5c3.8 4.2 9.1 13.8 8.1 14.7-.8.8-6.3-6.3-6.4-8.2 0-.9-2.7-3.8-6-6.4-3.3-2.5-6-4.8-6-5.1s1.5-.2 3.3.2c2 .4 4.6 2.1 7 4.8m423.8 2q3.6 6.3 2.8 7.3-1 .9-3.3-2c-2.4-3-2.4-3-4.6-1-3 2.7-4.1.5-2.4-5.1 1.5-5.2 2.4-6.8 3.1-6zM121.5 140c-.4 1.1.1 3.4.9 5.2q1.6 3.2.7 4.1c-1.6 1.6-4.1-1.2-4.1-4.5 0-2.4-.3-2.9-1.7-2.4q-2 .8.6-1.8c2.9-3.1 4.5-3.3 3.6-.6m247.5-1q-.1.9-1.5 1c-1.4.1-1.5-.5-1.5-1q.1-1 1.5-1c1.4 0 1.5.4 1.5 1m11.7-.2q1.3.7-.8 3.1c-2.2 2.7-2.5 2.6-3.4-1.2-.6-2.2-.4-2.7 1.1-2.7a7 7 0 0 1 3.1.8M131 142.5c0 .7-.7 1.6-1.6 1.9q-1.8.8-1-1c.3-.8.6-2 .6-2.5q.1-.9 1-.4t1 2m232-1.3c-.1 1.7-3.5 5.8-4.9 5.8-2.3 0-2.1-2.1.5-4.5q4.5-4.1 4.4-1.3m-214.1 5c-.1 2.9-.3 4.5-.6 3.5q-.4-1.9-2.4-1.4c-2.3.6-2.6-1.8-.3-2.7q1.5-.6.9-2.6t.9-2c1.3 0 1.6 1.1 1.5 5.2m-38.2 3c.2 3.5.6 25.6.8 49.3s.8 54.5 1.4 68.5c1.2 27.7 1.3 42.8.4 44.3-.7 1.2-.6 39.5.1 50.2.3 4.4.2 17-.3 28l-1 21.5.2 5.2c.1 2.1-.1 3.9-.3 4.1-.8.7-17.3-1.2-18.1-2-.4-.5-1-37.2-1.3-81.7a4704 4704 0 0 0-2.2-122.3l-.7-40.1 2.5-1.3c5.7-3.2 13.2-15.4 15.9-26.2.6-2.6 1.4-4.6 1.6-4.3s.7 3.3 1 6.8m210.5-4.1c2.2 1.2 1.5 2.9-1.2 2.9-2.5 0-3.5 1.7-2 3.5.9 1.1.7 1.6-.9 2.4-2.9 1.6-3.1 1.4-3.1-2.3 0-2.6-.5-3.6-2.1-4.1-1.2-.4-2.6-.2-3.1.3-1.1 1.1-1.4 5.2-.7 8.2q.3 1.3-.6 1.8-.9 0-1.3-1.8c-.4-2.6-3-2.6-5.9.2l-2.3 2.1v-2.1q-.1-4.5-4.6-1.7c-3.7 2.4-4.8 1.4-2-1.7 2.3-2.4 2.9-2.5 6.7-1.7 6.2 1.4 8.3.4 7.6-3.6-.3-1.8-.2-3.6.1-4 .9-.9 13 .3 15.4 1.6m-152.1 2.2q-1.2 1.2-1.1-.4c0-2 1.3-3.4 1.8-1.9q.3 1.2-.7 2.3m203.3-1.8c1.8 1.4 1.8 1.6-1.4 4.5-4.2 3.9-6 2.7-3.6-2.4 1.9-4 2.3-4.2 5-2.1m-192 4.6c.6 3.1-.2 6.2-1.4 5.4-.4-.2-1.5.4-2.5 1.5q-3.7 4.5-3.5-1.8c0-6.2.8-7.7 4-7.8 2.3-.1 2.9.4 3.4 2.7m230 8.4c6.3 8.8 6.3 8.9 2.7 7-4-2-13.1-14.6-13.1-18.1 0-1.5 6.2 5.2 10.4 11.1m-27.7-8.3q-.5 1.1-.6-.6t.5-1.3q.5.6.1 1.9m-239.1 2.7c-.4.6-1.7 1.1-2.8 1.1-2.1 0-2.1-.1-.3-2 1.9-2.1 4.4-1.3 3.1.9m211.9.8c1.9 2.1 2.5 3.9 2.5 7 0 5.2-1.7 5.7-2.6.8q-1-5.3-2.9-2.5c-2 3.2-3.2-.7-1.9-5.8.8-2.9 1.8-2.8 4.9.5m78.9 1.6c1.6 2.2 1.7 3 .7 4s-1.6.7-3.1-1.3c-2.2-2.8-2.7-6.4-.8-5.8.6.2 2.1 1.6 3.2 3.1m-309.4-.9c0 .8 1 2.2 2.1 3 2.4 1.7 2 4.6-.7 4.6q-1.5 0-1.1-.6c1.2-1.2-1.4-4.4-3.5-4.4-2 0-2.1-.1-.3-2q3.3-3.6 3.5-.6m254-.4q0 .9-1.2 1c-.6 0-2 .7-3 1.6-1.4 1.4-2 1.4-3.3.4-2.4-2-1.8-2.9 2.8-3.3l4.5-.5q.2-.1.2.8m-51.9 4.4q-1.2 1.2.4 3.2c1.9 2.5 2 6.5.1 5.8-1.5-.6-4.6 2.1-4.6 4 0 2.3 2.9 4.1 4.2 2.8q2.6-2.4 2.8.3 0 1.5-3.5 1.5c-1.9 0-3.5-.5-3.5-1 0-1.6-3.7-1.2-4.4.5-.3.9-1.8 1.5-3.6 1.5a22 22 0 0 0-6.7 1.5c-4.7 2-5.1 1.9-2.5-.5 2.8-2.7 2.8-4.6-.3-8.6q-3.7-4.8-1.8-6.7c.9-.9 4.6 3.4 5.8 6.7 2.1 6.1 8 5.9 12.3-.4 2-2.9 2.3-4.3 1.8-8.3-.5-4.3-.3-4.9 1.7-5.6 2.5-1 3.6 1.1 1.8 3.3m-299.8 4.8c-1.6 3-1.8 3.1-2.1 1.1-.2-1.2.5-3.7 1.5-5.5 1.6-3 1.8-3.1 2.1-1.1.2 1.2-.5 3.7-1.5 5.5m430.7 3.6c.7 2.9 1 5.5.7 5.8-1.2 1.2-8.5 1.6-9.1.5-.7-1.1 1.9-12 3.7-15.5.9-1.8 1-1.7 2.2 1 .6 1.6 1.8 5.3 2.5 8.2m-301-6.2c5.3 2.1 9.5 4.4 10.1 5.6s2.7 3.8 4.6 5.9c2.1 2.3 3.2 4.3 2.7 4.8s-3.8 1.1-7.4 1.4-7.7.9-9.2 1.3q-3 .8-2.8-.8c0-2-5.5-5.9-10.3-7.3-5.1-1.5-15.5-.1-18.1 2.5-3 2.9-6.6 13-6.6 18.5 0 6.3 3.3 13.2 7.8 16.2 1.8 1.1 5.7 2.9 8.8 3.9 4.6 1.4 6.2 1.5 8.8.6a23 23 0 0 1 5.2-1.3c1 0 4.3-1.2 7.3-2.7 4.5-2.2 5.7-3.4 6.8-6.7a10 10 0 0 0 .4-7.3c-.7-2.5-.6-3.4.3-3.8 1.3-.5 12.6 4.2 12.6 5.3 0 .3-.8 1.5-1.7 2.5-1.3 1.4-1.4 2.1-.5 3 .7.7 1.2 2.6 1.2 4.3 0 2.6-.4 3.1-2.2 3.1-1.8-.1-2.2.4-2.1 2.1.3 2.6 0 2.8-2.7 1.1-1.7-1.1-2.4-.8-5.2 1.9a47 47 0 0 1-8.4 5.7c-4.8 2.3-6 2.5-14.9 2.1-8.5-.3-10.1-.7-13-2.9a28 28 0 0 1-8.8-11.6 92 92 0 0 1-3.7-25.9c0-5.4 0-5.4 7.3-12.3 8.9-8.6 10.3-9.6 16.4-11.2 7.1-2 7.5-1.9 17.3 2m133 3.2c0 .8.8 2.1 1.7 2.8q1.5 1.2 1 2c-.4.4-1.5-.2-2.3-1.5-1.5-2.1-1.7-2.1-4-.7-3 2.1-3.4 2-3.4-.4 0-1.1.9-2.9 2.1-4.1 1.6-1.6 2.3-1.8 3.5-.8.8.6 1.4 1.8 1.4 2.7m-54.5 3.4c-.3 1.3-.1 3 .5 3.8.8 1.3 1.3 1.3 3 .2 1.7-1 2.5-1.1 3.6-.1q1.4 1.3 3.8.1 3.5-1.5 3.6.9c0 .3-2.9 1.2-6.6 1.9-6.2 1.2-6.6 1.1-8.8-.9-2.5-2.3-5.6-2.7-7.4-.9q-2.7 2.6-1.1-3.5c1-3.6 1.2-3.7 5.5-3.7 4.1 0 4.4.2 3.9 2.2m30.1-.7c-2.1 1.6-3.2 1.3-2.1-.4.3-.6 1.4-1.1 2.3-1.1 1.5.1 1.5.2-.2 1.5m5.4 7c-2.4 2.5-4.9 4.1-5.6 3.8q-3.4-1 2.1-3.6c1.9-.9 4.2-3.1 5.2-4.9 1.4-2.7 1.8-2.9 2.1-1.4q.3 2-3.8 6.1m28.6-5c.7 2.8 0 5.5-1.5 5.5-1.3 0-2.5-4.5-1.7-6.5.8-2.3 2.5-1.8 3.2 1m18.4 1q-1.2 1.4-1.9 1-.4-.6.9-1.5 3.1-2 1 .5m-253 1.3c0 1.5-2.4 3.2-4.7 3.2-2.7 0-3-1.5-.5-2.9 2.1-1.2 5.2-1.4 5.2-.3m196 1.2c0 1.6-.7 2-3.6 2-4.3 0-4.2-2.2.2-3.1l3.2-.8q.2.1.2 1.9m-231.5.1q2 .2-1 .8c-3.4.8-5.5.4-5.5-1.1q.2-1 2.3-.4zm22.3.6q.2 1.3-1.3 1.9c-1.9.8-9.5-1.5-9.5-2.8 0-1.4 10.3-.5 10.8.9m26.2-.1q-.2.3-1.5.4c-1.3.1-1.5-.4-1.5-1q.2-.8 1.5-.4 1.3.7 1.5 1m102 .5q0 .9-1 .4-.9-.7-1-1.6.1-.9 1-.4a2 2 0 0 1 1 1.6m.7 4.1q-.5 1.1-.6-.6t.5-1.3q.5.7.1 1.9m10.3.2q0 4.3-3.4 3c-2.1-.8-2-3 .2-4.3 2.6-1.6 3.2-1.3 3.2 1.3m30.4 1.1c.9 1.4 2.3 2.5 3.1 2.5 2.1 0 1.8 2.4-.5 4.5-2 1.8-2.1 1.8-3.5-.1-.9-1.1-1.2-3-.9-4.7.4-2.1.2-2.7-1.1-2.7q-1.4-.1-1-1 1.4-2.5 3.9 1.5M474 177q-.1.9-1.6 1-1.3-.1-.9-1 .6-1 1.6-1 .8 0 .9 1m-210.3 3.7a30 30 0 0 1 15.6 33.2c-5.9 23.3-31.9 31.7-49.7 16.1a26 26 0 0 1-9.4-20.6c-.4-7.1-.1-8.9 2-13.5a30.6 30.6 0 0 1 41.5-15.2m-61.3 1.9c2.2 5.3 1.7 6.2-1.8 3.9-2.7-1.8-3-2.6-2-6.3.9-3.2 1.7-2.7 3.8 2.4m89.8-1.9c1.5 1.5 2.8 3.1 2.8 3.6 0 1.2-10.7 12.8-11.7 12.7-.4 0-.8-2.1-.8-4.5 0-3.4.4-4.5 1.5-4.4 4.5.4 6-.2 6.6-2.7q.8-2.5-1.7-5c-3.2-3.4-.3-3.2 3.3.3m-78.9 1.3c1.6 2.6 1.7 3.5.6 6.8l-1.6 5.1q-.4 1.3-1.1.7c-.8-.9-1-15.6-.2-15.6.3 0 1.4 1.4 2.3 3m122.9-1.4c1.6 1-1.7 2.2-6.5 2.3-9.7.2-30.1 16.9-36.1 29.6a86 86 0 0 0-7.9 25.6c-.2 2.5-.7 5.1-1 5.6-1.7 2.7-22.6 4.5-47.3 4.1-20.2-.3-22.4-.5-24.3-2.2-1.2-1.1-2.1-2.7-2.1-3.6 0-3-5.9-21.2-8.8-27a60 60 0 0 0-11.7-16.2 67 67 0 0 0-25.7-12.3q-11.4-3.3.5-5.2a47 47 0 0 1 46.8 18.3c2.8 3.8 3.9 6.3 3.9 8.8a34 34 0 0 0 22.8 31.6 33 33 0 0 0 21.3 0c13.6-4.3 22.4-16 23.8-31.8.6-7 1-8.4 3.4-10.6 1.5-1.4 2.7-3 2.7-3.6 0-2.2 8.9-9.2 14.8-11.5 7.1-2.9 27.8-4.1 31.4-1.9m-7.2 8.3c0 1.1.5 2.3 1 2.6 1.3.8 1.3 3.5 0 3.5-1 0-4-5.2-4-7q.1-.9 1.5-1c1.4-.1 1.5.9 1.5 1.9m-6 9.2c0 1.8-3.4 1.8-5.1 0-1-1-2.4-2.1-3.1-2.4q-1.5-.5.6-2.1c1.8-1.5 2.2-1.4 4.8 1.1 1.5 1.5 2.8 3 2.8 3.4m-135.2 5.4c5.5 6 13.2 17 13.2 18.9 0 1.6-4.8 6.1-5.6 5.3-.4-.4-.9-3.4-1.1-6.8q-.6-10.6-6.4-11.6-2.8-.5-2.2-2 .4-1.5-2.7-4.2c-2-1.6-3-3.2-2.6-3.9 1.2-2 2.2-1.4 7.4 4.3m143.2-3.6c.5 1.1 1 2.7 1 3.7 0 1.3-.5 1.2-2.6-.9-1.4-1.4-2.3-3.1-1.9-3.7q1.6-2.3 3.5.9m-23 2.9c0 1.3-1.2 2.2-2.2 1.6s-.1-2.4 1.3-2.4q.8.1.9.8m15 2.1a9 9 0 0 0 1.9 4.2c1.8 2.1 2.2 2.3 4.2 1.1 1.8-1.2 2.3-1.2 3 0q2 3-.7 6c-1.6 1.7-1.8 1.6-5.5-2.1-4.6-4.8-6.1-7.5-5.3-9.5.8-2.2 2.4-2 2.4.3m-205.6 6.2c1.3 2.6 1.4 4 .6 7-1.7 6-3 4.6-3-3.1 0-3.9.2-7 .4-7s1.2 1.4 2 3.1m200.4.1c1.7 1.1 3.2 2.6 3.2 3.3s1.4 2.7 3 4.5c4.3 4.6 3.9 6.2-2.2 8.5l-6.3 2.4q-.7.2.8-1.7c1.5-1.6 1.6-2.5.8-4.1a10 10 0 0 1-1.1-4q-.2-4.2-4.2-1.7c-1.3.8-3.7 1.7-5.3 2a38 38 0 0 0-9 4.6c-3.2 2.2-6 3.8-6.2 3.6-.3-.3 3.5-11.3 4.9-14.1 2.9-5.5 4.6-6.4 11.7-5.8 3.9.3 7.9 1.4 9.9 2.5M381 210q0 2-2 2-3.5 0-.8-2.8t2.8.8m-193.1 9.4c1.1 1.1 2.1 2.3 2.1 2.8 0 1.3-2.7.9-4-.7-2.3-2.8-11-1.3-11 1.9 0 2.3 8.4 6.6 12.9 6.6 3.4 0 4.1.3 4.1 1.9 0 2.6-1.7 3.5-2.8 1.6-.9-1.8-.7-1.7-13.4-3.6-8.7-1.3-8.8-1.3-8.8-4.1 0-1.6-.6-3.7-1.2-4.8-1-1.6-1-2.3.4-3.7 1.7-1.6 1.9-1.6 4 .3 3.1 2.8 8.4 1.9 8.1-1.4q-.3-2.3 1.7-2.2c1 0 2.2-.5 2.6-1.1q.7-1 1.9 1.7c.7 1.6 2.2 3.8 3.4 4.8m151.1 6.9c0 1.8.7 4.3 1.6 5.6l1.6 2.3 3-2.9c2.6-2.5 3.6-2.8 9.5-2.8 3.9 0 6.8.4 7 1.1.2.6-2.6 2.6-6.1 4.4q-6.6 3.3-7.7 6.2c-1.8 4.3-.7 5.4 6.1 6.1 7.2.8 13.2 3.8 20.5 10.3 4.9 4.4 4.9 4.4 5.6 12.2.4 4.2.4 8 0 8.4-.3.4-2.1-1.1-4-3.3s-3-4.3-2.7-4.7q.8-.4 1.5.7c1.1 1.8 3.1.5 3.1-2 0-2.6-4.3-6.9-7-6.9-1.1 0-2.8-.4-3.8-1s-3.7-1.4-6.2-1.9l-6.5-1.5q-5.4-1.5-3.6 4.6c.9 2.8 2.3 4 6.6 6.2 2.9 1.4 5.7 3 6 3.6.3.5 2.3 1.7 4.3 2.6q5.4 2.5 8.4 7.9 1 2-2.3-1.1a22 22 0 0 0-16.2-5.5c-5.6.1-11.7 3.2-11.7 6 0 .9-.6 2.3-1.2 3q-1.8 1.6 1.2.6 13.4-4 19.1 4.3c3.5 4.9 4.6 8.4 2.5 7.6-2.4-.9-1.9.7 1.1 3.8l2.7 2.8h-2.5c-1.4 0-3.1.6-3.8 1.2-1.1 1.1-1.2.6-.6-2.8.7-4.4-1.1-7.2-3.9-6.1q-1.3.4-1.9-1.4c-.4-1.4-1.4-1.9-4.2-1.9s-3.6-.3-3.3-1.8c.5-2.7 4.6-2.6 8.8.2 2.2 1.4 4.2 2.2 4.5 1.7.8-1.4-4.6-4.9-9.8-6.3-4.4-1.1-4.8-1.1-7.2 1.2-1.4 1.3-2.5 3.4-2.5 4.7 0 2.4-1.5 3.2-2.3 1q-.2-1.4-2 .2c-1.4 1.1-1.8 1.1-2.3-.3q-1-3-3.8 0c-2 1.9-3.6 1.1-2.9-1.5.8-3.1-7.6-11.1-11.5-11.1-4.6 0-14.3 2.7-16.4 4.6-1.7 1.6-1.8 1.6-1.8-.4 0-5.3 13.6-15.2 20.7-15.2 3.9 0 4.6-1 3.3-4.5-1.9-5.1-12.4-7.7-21-5.1-2.9.9-5.8 1.6-6.4 1.6-1.8 0 6.7-8 11.1-10.5a57 57 0 0 1 19.4-6.3c6.5.8.8-9.2-6.2-10.6q-2.9-.6-2.7-1.8c1-2.8 10.3-3.2 13.5-.6 2 1.6 3.6-.2 2.9-3.3-.6-3.3.2-6.2 1.5-5.3.5.3.9 2 .9 3.7m-211.2-2q1.3 1.3-.9 2.5-1.9 1.3-1.7 3.4c.2 1.2-.3 2.3-.9 2.5q-1.2.4-1.3-1.9c0-2.6 2.1-7.8 3.1-7.8q.7.1 1.7 1.3m34.9 6.9c.6 7.9 3.2 9.8 5.4 4.1.7-2 1.4-2.4 3.2-1.9 1.2.3 3.1.6 4.2.6q1.5.2-2.5 1.8c-4.8 1.9-9.3 7.2-8.8 10.6.3 1.7 1.2 2 8.8 2.1 7.5.1 9.2.5 14.8 3.4 3.4 1.8 6.2 3.6 6.2 4 0 .8-8.3-.1-16.9-1.8-5.9-1.2-7.1-.9-7.1 1.9 0 2.6 3.5 4.7 9 5.6 6.8 1 17 6.6 17 9.3 0 .4-3.3-.3-7.2-1.7-6-2-8.5-2.3-14-1.8l-6.7.6-.6-4.7c-1.4-10.6-2.3-12.2-7.3-13.8-2.4-.7-5.4 1.2-7.3 4.7-4.5 8.4-1.7 30.6 4.5 35.7q1.5 1.4 1.6 2.8c0 2.3 3.4 1.1 4.7-1.7.7-1.4 1.8-6.1 2.5-10.5l1.4-8h6.9c9.3 0 17.3 3.9 22.7 11 2 2.7 3.5 5.1 3.3 5.3s-2.4-1.2-4.8-3.2a17 17 0 0 0-9.5-4.3c-8.8-1-16.5 3.3-14 8q1 1.9 0 2.6c-2.8 1.8-6.2 16-5.4 22.6.2 1.1 0 3.1-.3 4.3-.5 2-.8 2.2-2.1 1.1q-3-2.6-2.6 3.7.3 3.6-1.5 4.9c-1.4 1.1-1.5 1.6-.6 2.6q1.3 1.5 1.9-.4c.3-.9 1.3-1.7 2.1-1.7 1.2 0 1.4 1.5 1.1 8.7-.4 7.7-.7 8.7-2.6 9.4-1.2.5-2.2 1.7-2.2 2.7 0 2.1-4.3 6.6-5.3 5.5-1.8-1.7-.6-4.9 2.3-6 3.9-1.5 6-5.8 3.8-8-1.5-1.4-1.8-1.3-3.3 1.1-1 1.4-2.1 2.6-2.6 2.6a61 61 0 0 1-.2-18.8q.5-1.5 2-.1 1.4 1.3 2.5.1c1.6-1.6.1-4.5-2.1-3.9q-3.1.8-3.1-6.7 0-3 1.4-2.3c1.9.7 4-1.8 3.2-3.8a2 2 0 0 0-2.3-1.3q-1.7.2-2.1-1.7-.5-2.4.9-.8c2.1 2.1 3.9 1.5 3.9-1.1 0-3.2-2-4.4-3.5-2.2-1.1 1.5-1.3 1.4-1.9-.9-.8-3.3-3-2.7-3.4.8q-.7 5.4-3.7-.4-2.5-4.5.8-4.4c1.8 0 2.1-6 .4-7.3-.8-.7-4.7-1.4-8.7-1.7l-7.3-.5-5.5 5.5c-5.5 5.4-6.3 6-7.4 4.9s4.1-10.1 7.1-12.7c3.5-2.9 13.3-6.1 16.1-5.2 1 .3 2.5-.1 3.5-1.1 1.6-1.6 1.5-1.8-1.2-4a12 12 0 0 0-4.3-2.5 41 41 0 0 0-16 1.7c0-1.2 8.9-5.5 12.7-6.1 4.2-.7 6.9-2.7 5.9-4.3-.3-.5-2.6-1.5-5.1-2.2-4.1-1.2-5.1-1-11.9 1.4l-7.8 2.6c-.2 0-.2-1.9 0-4.3.5-5.1 4.2-10.4 8.7-12.3 6.2-2.5 16.1-3.6 19.8-2q6.7 2.6 6.7-3.7c-.1-4-4.6-9.7-8.9-11.2-1.7-.5-3.1-1.5-3-2 0-1.9 6.4-.4 8.9 2 1.5 1.4 3.2 2.5 4 2.5 2.5 0 5-3.2 5-6.5 0-7.2 3.1-4.9 3.7 2.7m-24.2-4.3q.4 1-.5 1.6c-1.5.9-4.3-.3-3.5-1.5.8-1.3 3.2-1.3 4-.1m15.5.1q0 .9-1 1a1 1 0 0 1-1-1q.1-1 1-1t1 1m-35.8 1.7c2.4 2.2 2.4 6.3-.1 6.3-1.8 0-3.1-2.5-3.1-6.3 0-2.1.8-2.2 3.2 0m187.2-1.1c.9.3 1.6 1.5 1.6 2.5q.2 3.5-3.2.2c-3-2.7-2.1-4.1 1.6-2.7m-5.9 4.4q1.9 2 .8 3.1c-1.3 1.3-5.9-2.3-4.9-3.9s2-1.5 4.1.8m-92.1 8.5A137 137 0 0 1 210 251c0 .8-5.8.3-6.9-.6-.3-.2.6-1.5 1.8-2.8 2.2-2.3 2.2-2.5.6-4.9-2.2-3.4-4.1-4-7.5-2.2-4 2.1-5.2 1.9-4.8-.8q.2-2.3 3-2.5a9 9 0 0 0 5-3.2c1.3-1.6 2.6-2.9 2.9-2.9.4-.1 1.8 4.2 3.3 9.4m102.1-3q-4.6 6.1-4.5 1.1 0-2.4 3.3-4.5c4.1-2.6 4.7-1 1.2 3.4m-173.5-3c0 .2-1.3 1.7-2.9 3.4-3 3.2-4.5 3.8-5.6 2.1-.8-1.3 5.6-6.9 7.2-6.3q1.2.5 1.3.8m225.2.7c-.7.7-1.2 2.1-1.3 3.2q.2 2.9-1-.4c-.8-1.9-.6-2.7.7-3.7 2.1-1.5 3.3-.8 1.6.9m8.3-1.2q-.6.9-1.6 1-.8-.1-.9-1 .1-1 1.6-1 1.3 0 .9 1m-46.5 2.6c2.2 1.5 4 3 4 3.5 0 .8-10.1 4.2-10.7 3.5-.2-.2.1-1.5.7-3s.8-3.2.4-3.7c-.5-.9.3-2.9 1.2-2.9.2 0 2.2 1.2 4.4 2.6m57 .4c0 .9-3.1 3-4.4 3-1.2 0-.6-2.8.7-3.3 2-.9 3.7-.8 3.7.3m-233.9 2.2c2.6 3.2 2.4 3.8-1.7 3.8-2.9 0-3.5-.3-3-1.6.3-.9.6-2.2.6-3 0-2.1 1.9-1.7 4.1.8m149.4-.1q-.2 1.2-1.7 1.7c-1.8.3-2.5-1.8-1.1-3.2 1-1 2.8-.1 2.8 1.5m-113.7 1q1.3 2.2.4 3.1c-1.5 1.5-3.2 0-3.2-2.8q.1-4.5 2.8-.3m-8.8.6q0 1-1 2.3c-1.1 1.8-2.5.7-1.7-1.5.6-1.5 2.7-2.1 2.7-.8m-47.2 2.5q3 3-2 2.7c-1.8-.1-4.3.2-5.5.6-3.3 1.1-2.9-1.1.5-2.9q4.8-2.8 7-.4m165 0c.7.7 1.2 1.9 1.2 2.7q.2 1.7-2-.4c-2.1-1.9-2.6-3.5-1.2-3.5q.8 0 2 1.2m10.7 1.3q-.2 3.4-3.4 1.6c-1.2-.8-1.3-1.2-.1-2.6 1.6-2 3.5-1.4 3.5 1m-112.2 1c.4.8 2.5 2.4 4.9 3.6 4.9 2.5 5.8 3.5 5.8 6.7 0 2.1-.3 2-3.2-1.3-1.7-2-4.8-4.5-7-5.6-3.7-1.9-4.5-2.9-3.1-4.2q1.6-1.6 2.6.8m120.9.7q-1.1 1-1.2.2c0-1.4 1.2-2.6 1.9-1.9q.3.6-.7 1.7M370 245c1.2.8 1.2 1-.4 1.6q-1.8.5-3.4-1c-1.5-1.5-1.5-1.6.3-1.6 1.1 0 2.7.4 3.5 1m9.7 7.1q.1 3-.4 1.4a9 9 0 0 0-1.4-3c-1.3-1.3-1.1-2.7.4-2.3.6.3 1.3 2 1.4 3.9m-95.7 1.1c.6 2.4 2.7 8.8 4.6 14.2a67 67 0 0 1 3.1 10.3c-.2.1-1.4-2-2.7-4.7s-2.9-5-3.6-5-1.6-1.7-2-3.8-1.5-5.9-2.6-8.5c-1.9-5-1.7-6.7.7-6.7.8 0 1.9 1.8 2.5 4.2m-59.7-1.7c3.1.5 3.7.9 3.2 2.3-2.9 7.1-7 21.4-8.6 30.2a37 37 0 0 1-3 10.9c-.6.2-2.5 1.6-4.2 3.1-3 2.7-3.1 2.9-1.7 5.5s1.3 2.8-1.5 5.1c-1.6 1.3-3.1 2.2-3.2 2s.4-1.9 1.2-3.9c1.9-4.5 1.9-4.7 0-4.7q-1.5.2-2.5 2.2c-.9 2.4-5.1 11.7-5.8 13-.8 1.6 2.1.7 3.5-1 1.3-1.5 1.4-1.3.8 2.3l-1 6.2a14 14 0 0 1-3.4 5.8c-1.8 2.1-3.1 4.7-3.1 6.3 0 3.3-4 12.1-6.6 14.4a31 31 0 0 1-6.4 3.7c-6.5 2.9-8.7 5.2-11 11.3-2 5.4-11 17.3-11 14.5 0-4.3 8.5-26.6 12.4-32.6 5.7-8.7 14.6-19.1 16.3-19.1s12.4-22.2 14.2-29.5a661 661 0 0 0 8.1-36.6c0-.9.7-2.2 1.5-2.9s1.5-2.9 1.5-5c0-4.5.5-5 3.9-4.5zm54 9.5c1.4 4.7 3.1 10.3 3.6 12.5a84 84 0 0 0 5.1 16.9q1 .7 2.3-.2c1.2-1 1.7-.2 3.2 4.5 1 3.2 2.9 8.2 4.2 11.1 2.8 6.4 2.8 6.4.1 6-2-.3-2.3-1-2.6-5.1-.3-4.3-.6-4.9-4.1-6.7-3.2-1.6-3.9-2.5-4.5-6-.3-2.2-1-4.9-1.5-5.8s-1.3-4-1.9-6.7a116 116 0 0 0-2.7-10.5l-2.7-10c-.5-2.5-1.4-4.9-1.9-5.5s-.9-1.8-.9-2.9c0-3.5 1.6-.4 4.3 8.4m22.7-9.2c0 1.4-2.3 3.2-4.2 3.2-2.3 0-2.3-1.6 0-2.9 2.1-1.3 4.2-1.4 4.2-.3m-41.5 1.6 2.4.5c.2 0-1.4 1.8-3.7 3.9l-4.2 3.9.6 6.9q1 12.8 4.3 12.2c1.3-.3 1.5-1.3 1.3-5.1l-.4-4.7 3.1.6c2.4.5 3.9.1 6.5-2 4.2-3.2 4.9-2.1 4 6.7-1.3 13.3-4.3 20.8-10.8 27.3-5 4.9-8.8 6.1-12.3 3.9-1.4-.9-2.7-1.4-3-1.1-.6.5-7.5-4.3-8.1-5.7l-3.8-4.8a26 26 0 0 1-4.4-8.2c-.6-2.3-1.6-5.3-2.2-6.7-1-2.2-1.2-12.9-.2-13.9.2-.2 1.9.8 3.8 2.3a13 13 0 0 0 5.4 2.6c3.4 0 7.2-6.1 5.2-8.5q-1.2-1.3 0-2c1.9-1.2 1-3.3-2-4.5q-8-3.2 5.5-4.4c3.8-.3 8.7-.1 13 .8M162 263.9c.5 3 1 7.3 1 9.7 0 5.4-1.9 14.4-3 14.4-.9 0-2.8-5.2-2.9-8l-1-8a39 39 0 0 1 .5-15.9c.9-2.8 4.3 2.2 5.4 7.8m74.1-4.9q1 0 .5.9c-.7 1-6.6 2.1-6.6 1.1 0-1.3 2.5-3 3.8-2.5zm33.3-.1c.5.8-7.4 2.2-8.3 1.5-.6-.5 4.1-2.3 6.1-2.3.9-.1 1.9.3 2.2.8m23.6 3.2q0 .8-1 .9-.9-.1-1-1.6.1-1.3 1-.9 1 .6 1 1.6m-94.5 1.2c2.9 2.2.2 2.8-3.1.6-2.5-1.6-2.6-1.9-.8-1.9 1.1 0 2.8.6 3.9 1.3m119 .1 3 1.4-4 1.6-8.2 3.7c-5.4 2.4-10.4 2.4-13.4.1q-4.8-4.3 3.8-5.8c2.6-.3 5.5-1 6.3-1.5 2.3-1.3 9.1-1 12.5.5m47.1.8q.5.9.1 1.4c-.6.6-5.7-1.7-5.7-2.6s4.9 0 5.6 1.2M241.5 266q.4.9-1 1c-1.4.1-1.3-.5-1-1q.6-1 1-1t1 1M123 271c-2.8 2.7-5.4 5-5.6 5-.3 0-.4-1.5-.2-3.2.3-2.8.9-3.5 4.8-5 6.6-2.5 6.6-2.3 1 3.2m6 8.1a36 36 0 0 0-7.2 6.2c-3.7 4.2-3.7 4.2-3.8 1.5 0-2.2 1.1-3.6 4.8-6.3 2.6-1.9 5.8-3.5 7.2-3.5 2.3 0 2.3.1-1 2.1m74 1.4c0 3-1.5 3.3-3 .6-1.4-2.7-1.3-3.1 1-3.1q2.1-.1 2 2.5m159-.9q-.1.4-1.5.4c-1.4 0-1.5-.4-1.5-1q.1-.8 1.5-.4 1.4.6 1.5 1m-60.9 13.7c1.8.5 2 .9 1 2.1s-.6 2.9 2.2 9.3a94 94 0 0 0 7.1 13.5c3 4.8 4.2 5.8 6.4 5.8 2 0 4 1.3 7.3 4.7 8.2 8.6 10.1 11.4 9.4 14-.4 1.8.2 3.1 2.8 5.6 5.4 5.1 8 10.2 8.2 16.3.1 4.5-.1 5.4-1.4 5.2q-1.6-.4-3-6.1c-1.2-5.1-1.9-6.3-5.5-8.7-7.6-5.3-9.6-7.1-9.6-8.8q0-1.7 2.8 1.7c2.5 3 2.9 3.2 4.1 1.7 1.2-1.4 1-2.2-1.3-5.4a18 18 0 0 1-2.6-4.9c0-1.7-5-7.3-6.5-7.3-2.5 0-2.7 2.1-.4 4.6l2.3 2.4-3.2-1.6c-1.8-.8-3.2-2-3.2-2.6 0-2-5.5-9.8-7.3-10.4-3.1-1-3.1.3.2 5.5 1.6 2.8 2.7 5.2 2.3 5.5s-2.9-1.5-5.5-3.9c-4.8-4.5-6.5-9.5-3.2-9.5q3.3.1-1-10a41 41 0 0 1-2.5-7c0-.6-.9-2.9-1.9-5.3-2.3-5-7.1-19-7-20.3 0-.5 1.6 2.3 3.4 6.2q3.3 7.3 5.6 7.7m70.8-5.1c-.7 1.4-.3 2.1 2 3.3q3 1.5 2.4 3.1c-1.3 3.4-8.3-6.5-8.3-11.8 0-2.2.1-2.2 2.4.7q2.6 3.1 1.5 4.7m-52.9-1.8c0 .7-.9 2.1-2.1 3.2-2 1.8-2 1.8-1.3-1.1l1.1-3.8c.6-1.1 2.3.2 2.3 1.7m-130.1 3.7a6 6 0 0 0-.4 3.8c.6 2.1-1.3 7.1-2.8 7.1q-.7-.2-.3-2.8c.4-1.5.7-3.5.7-4.5 0-3 1.8-6.9 2.9-6.2q1 .6-.1 2.6M307 289q-1.6 3.1-3.3 1.3c-.9-.9 1.2-3.3 3-3.3 1.1 0 1.1.4.3 2m-107.5 4.9q.4 1-.5 1.6c-1.3.8-5.2-2.4-4.4-3.6.6-1 3.9.5 4.9 2m-59.1.7q1.7 4.1-1.5 2.4c-2.7-1.5-4.9-.6-4.9 2 0 2.5-.8 2.5-4 0l-2.5-2 2.4-2c2.9-2.5 9.6-2.7 10.5-.4m189.6-1.2q0 .5-1 1.1-.9.4-1-.4.1-1 1-1.1 1 0 1 .4m12.4 3.7c1.7-1.4 2.9 0 2 2.2-.8 2.1-3.4 3-4.9 1.7-.7-.6-2.3-.9-3.6-.8q-2.3.3-2.7-1.5-.6-2.1 1.6-1.3c1.1.4 2.3.2 2.7-.4q.7-1.2 2.1.1c1.1.9 1.7.9 2.8 0m-13.4 2.7c0 1.9-1.8 4.2-3.2 4.2-1.2 0-.9-3.5.4-4.8q2.7-2.6 2.8.6m21 1.1q0 1-1 1.6-.9.4-1-.9.1-1.5 1-1.6 1 0 1 .9m-223.9 4c1 1.6 1.4 4 1.2 5.5-.6 2.9-2.3 3.6-2.3.8 0-.9-.7-3-1.5-4.6-2.5-4.8-.1-6.4 2.6-1.7m48.9-.5c0 .8-.9 2.4-2 3.7l-1.9 2.4-.1-3.1c0-1.7.3-3.4.7-3.7 1.1-1.2 3.3-.7 3.3.7m136.8.8c-.5 1.5-2.3 1.1-2.6-.6q-.3-1.6 1.3-1 1.4.7 1.3 1.6m11.5.8c-.5 2-2.1 3.6-2.7 2.9-.2-.2 0-1.4.5-2.7 1-2.7 2.9-2.9 2.2-.2M144 308.6c0 2.4-1.4 3.2-2.5 1.4-.9-1.4.4-5.2 1.6-4.5q.8.8.9 3.1m197.7-2.1c2.9 1.4 3 1.6 2.2 6.2-.4 2.7-.8 6.7-.8 8.9-.1 3.4-.5 4.3-2.3 4.7-1.2.3-2.6.3-3.2-.1q-1-.6-2.1-.7c-1.5 0-1.8-4.4-.5-6q1.2-1.4.2-3.2c-1.9-3.6-1.8-8.1.3-9.7 2.5-1.9 2.6-1.9 6.2-.1m9.3 1.1q0 1.3-1 1.4-.9-.1-1-2.1.1-1.7 1-1.4c.6.3 1 1.3 1 2.1m29-1.6q-.2.9-2 1c-1.8.1-2-.5-2-1q.2-1 2-1c1.8 0 2 .4 2 1m-187.2 3.2c.3 1.7-4.4 7.8-6 7.8-.5 0 0-1.2 1.1-2.6a10 10 0 0 0 2.1-5.1c0-2.7 2.3-2.7 2.8-.1m174.2 1q-.1.8-1.5.8c-1.7 0-1.8-.2-.9-2.5q.6-2 1.5-.3.8 1.2.9 2m-117.9 1c5 1.7 6 1.7 9.7.5 2.3-.8 4.6-1.1 5.5-.6.8.5 2.1 3.8 2.8 7.4q2 10.8 6.5 4c.9-1.4 2.3-2.5 3.1-2.5 1.3 0 1.5.9 1 4.5-.6 5.8-2.7 8.1-10.7 11.8-7.9 3.6-13.7 3.9-20.2.8l-7.3-3.1c-2.9-1.1-6.5-7.7-4.9-8.8.6-.4 1.1-2.2 1.2-4.1s.7-4 1.5-5 1.8-3.1 2.2-4.9c.5-2.6 1.1-3.2 2.3-2.7zM278 309q2 1.1-.2 1c-.9 0-2-.5-2.3-1-.8-1.3.5-1.3 2.5 0m-63 .5c0 1.8-4.2 8.5-5 8-1.8-1.1-1-5.2 1.3-6.8q3.6-2.6 3.7-1.2m74 .5q0 .9-.4 1-.5-.1-1.1-1-.4-1 .4-1 1 0 1.1 1m-69.4 2.6q-.7 1.5-1.1 1.2c-.3-.3-.3-1.3.1-2.2q.7-1.5 1.1-1.2c.3.3.3 1.3-.1 2.2m9.4.2a49 49 0 0 0-14.5 17c-3.1 8.7-3.8 10.3-4.1 9.9a55 55 0 0 1 6-17c3.9-6.5 9.4-11.7 12.5-11.6h2.6zm87.8 1c.4 2.7-1.4 2.9-2.8.3-1.4-2.7-1.3-3.3.8-2.9q1.5.5 2 2.6M330 312c0 1.3-3.8 3.2-5 2.5-1.5-1-1.2-2.3.8-2.8q4.4-1.2 4.2.3m-193 1.8c0 1-2.2 3.2-3.2 3.2q-.7-.2.4-2c1.3-2 2.8-2.7 2.8-1.2m8.4.1c.4.5.2 1.9-.2 3.1-.7 1.9-.9 2-2.1.6-.7-.9-1.1-2.3-.7-3.1.6-1.7 2.2-2 3-.6m227.4 0c.9.5 2.9 1.4 4.5 2 2.8 1.1 3.8 4.1 1.2 4.1-.8 0-3.2-1.6-5.2-3.5q-5.6-5.2-.5-2.6m-192.5 3.7c-.6 9-1.1 11.8-2.2 12.2-.9.3-1.1-.7-.6-4.1.4-2.4.7-6.1.8-8.1.1-2.1.6-3.5 1.1-3.3s1 1.7.9 3.3m168.9.6q-1 1-1.7.6c-.3-.3-.3-1.3.1-2.2q.7-1.8 1.7-.7 1.2 1-.1 2.3m-229.7-.3q.4.9-.5 1.6-.9.4-1-.9 0-2.7 1.5-.7m54.5-.2c-.1 1.2-4 5.9-4 4.8 0-2.6 1.4-5.5 2.6-5.5q1.3 0 1.4.7m123.9.7q1.2 1.4.4 4.6l-.8 3.2-2.2-4c-1.2-2.2-1.9-4.3-1.5-4.6 1-1 2.9-.6 4.1.8m-169 1.7c1.6 1.2 3.4 1.9 3.9 1.5s1.5 0 2.1.8c1.2 1.5.5 2.3-3.6 4.5-2 1-2.4.8-4.3-3.1-3.1-6.4-2.7-7.1 1.9-3.7m160.1.9q.9 1.8.6 2-.6-.2-1.6-2t-.6-2q.6.2 1.6 2m-144.3 1.2q-.5 1.1-.6-.6t.5-1.3q.5.6.1 1.9m81 0q-.5 1.1-.6-.6t.5-1.3q.5.6.1 1.9m128.3-1.3c0 1.2-3.9 2.5-4.8 1.6-.7-.7 1.7-2.5 3.6-2.5q1 0 1.2.9m-23.6 7c-.8.8-3.4-2.2-3.4-3.9 0-3.2 2.5-2.9 3.2.4.3 1.7.5 3.3.2 3.5m-119.3-3.2a152 152 0 0 0-8.7 27.3l-2.3 10.5c-.5 1.6-1.2 5.2-1.6 8-.3 2.7-1.8 9.9-3.2 16-5.6 24.5-7.3 34-7.3 40.4-.1 3.6-.5 8.6-1.1 11.1-1.4 6.7-2.2 33.6-1 35.8.6 1 .6 2.3.2 2.8-1.7 1.9 2.2 47.6 5.1 58.9 3.3 13.4 7.8 25.9 10.4 28.6a13 13 0 0 1 2.4 3.1c0 .4-1.6 1.2-3.5 1.8-7.2 2.4-22.8-4.2-28.8-12.2a56 56 0 0 1-9.7-20.3c0-5-3.9-26.8-5-27.9q-1-1-2.1.1c-.8.8-.8 2.4 0 6 .6 2.6 1.6 9.9 2.1 16.1 1.2 13.4 3.4 19.4 9.8 27.4a53 53 0 0 0 20.3 14.9 29 29 0 0 0 19.5-1.1c4.9-2.5 5-2.5 11.4-.9 11 2.7 15.3 5.9 22.2 16.9q5.9 9.5 7.3 7c3.3-5.4-17.1-27.8-26.8-29.3-2.1-.3-5.8-1.5-8.1-2.7-3.8-1.8-4.2-2.3-3.8-5s.8-3 4.1-2.9c5.6.2 9.8 1.3 8.4 2.2-2.5 1.6-1.2 2.4 5.8 3.6a76 76 0 0 1 35.8 19.6c5.7 5.9 7.1 8.1 9 14 1.3 3.8 3.4 8.8 4.7 11 1.3 2.3 2.4 4.7 2.4 5.4s.9 2.5 2 4c1 1.6 4.2 7.3 7.1 12.7 5.8 11.2 6.3 11.9 7.8 10.9q1.2-.7-5-12.3a241 241 0 0 1-16.9-35.7c-1.1-4-2.9-6.6-9.1-13-6.7-7-9.2-8.7-19.1-13.8a69 69 0 0 0-14-5.7q-5.7 0-5.8-2.7c0-2.7-6.9-4.6-14.5-4-6 .5-6.7.4-5.2-.7 1-.8 3.5-1.4 5.7-1.4s4.5-.4 5.1-.8q3-2-7.8-3c-4-.4-7-1.1-6.7-1.5.3-.5 3.9-.9 8-.9 6.1 0 8.3.5 11.7 2.4a55 55 0 0 0 18.7 6c2.5.2 5.3.7 6.2 1.1 2.8 1.1 5.8-1.2 5.8-4.5 0-2.5.4-3 2.5-3 1.3 0 4.6-.8 7.2-1.9s8.9-2.1 14.1-2.5a50 50 0 0 0 12.6-2.1c3.9-1.9 11.6-.7 14.9 2.3 1.2 1 2.9 1.9 3.7 1.9 3.1-.1 7 3.7 10 9.6a32 32 0 0 1 3 8c0 1 1 5.1 2.2 9 1.9 6.6 3.1 8.6 5 8.7 1 0 0-8-1.7-14.5-2.4-9.1-2.6-11.5-1-10.9 3.8 1.5 9.1 20.6 10.6 38.3.5 6.4 1.5 15.9 2.3 21.1l2.1 14.5c.3 2.7 1.5 10.6 2.6 17.5l3.1 19.5c2.4 15.3 7.3 30.5 9.8 30.5.5 0 2.2 1.9 3.6 4.2 1.5 2.4 4.6 6.3 6.9 8.8 3.5 3.8 4.3 5.5 4.9 10 .4 3 1.4 6.3 2.3 7.2 1.6 1.8 1.3 5.1-.9 8.1-1.8 2.5-9.9.9-13.7-2.7-5.7-5.4-10.6-25.6-13.1-52.7-1.1-12.7-2.4-17.9-4.6-17.9-1.6 0-1.8 2.8-.4 6.4.5 1.4 1.4 8 2 14.8 1 12.3 2.5 21.3 6 36.3 2.4 10.2 4.2 14.4 7.5 17.8 2.7 2.6 3.4 2.9 8.8 4.1 3.4.8 3.4 1.4-.2 5.6l-2.9 3.5-3-2.8c-2.5-2.4-3.5-2.7-6.6-2.2-8.7 1.7-14.7-8.9-17.1-30-.6-5.3-1.9-14-3.5-24.5-.5-3.6-1.2-9.7-1.5-13.5a630 630 0 0 0-5-38.8 101 101 0 0 0-4.1-17 131 131 0 0 1-5.9-22.2 89 89 0 0 0-16.2-32.4c-4.5-5.2-16.2-11.9-18.3-10.6q-3.3 2 4.6 5.5a35 35 0 0 1 16.1 16.5c1.4 2.7 3.6 6.5 4.9 8.5 2.4 3.7 6 15.6 7.4 24.6.4 2.8 1.2 6 1.8 7 1.7 3.3 5.1 18.6 6.2 28.8.7 5.5 1.6 11 2.1 12.3s1.3 8.3 1.9 15.5a167 167 0 0 0 2 16.8c.5 2 1.4 8.3 1.9 14 1.5 17.2 4.6 30.4 8.7 36.7 1.9 3 4 5.3 4.7 5s1.7.2 2.2.9 3 1.5 5.4 1.8 5.2 1.2 6 2.1c1.5 1.5 1.3 1.9-1.9 4.5-1.9 1.6-4.2 3-5 3-.8.1-3.1.7-5.1 1.4-4.9 1.7-7.2.5-5.9-3 1.7-4.4 1.1-6.5-2.8-10.3-2.2-2-6.1-7.3-8.7-11.9-4.6-7.9-4.9-8.2-6.7-6.6-2.7 2.6-2.3 4 3.2 9.8a38 38 0 0 1 5 5.9c0 1.5-2.5.6-5-1.8-2.3-2.2-2.9-2.3-4.4-1.2-1.7 1.2-1.5 1.5 1.8 4.1 2 1.5 3.6 3.5 3.6 4.6 0 2.6-4.7 6.1-7.4 5.4q-2.1-.4-4 1.5c-1.6 1.7-1.9 3.6-1.8 10.1.1 4.4 0 8-.2 8l-3.1-1c-1.5-.6-3.3-.6-4.1-.2-1.4.8-1.4 1 0 2.1.8.7 2.7 1.6 4.3 2 2.2.6 3 1.6 4 5q2.5 8.6 4.9 5.9c.9-1 1-2.5.1-6.5-.6-2.9-.8-5.6-.4-6 1.2-1.1 6.5 5.9 7.1 9.3.9 4.7 4.1 8.1 10.7 11.4 7.4 3.8 15.2 4.2 17 .9 1.3-2.6 4.4-2.3 14.3 1.5 7.7 3 14.4 3.9 16.4 2.4 1.8-1.6 1.5-5.3-.8-7.3a7 7 0 0 1-2-4.5c0-3-1.6-5-4.2-5-2.5 0-2.3-2.2.5-4.8 2.1-2 2.5-2 4.5-.6 1.2.8 3 1.4 3.9 1.2 1.4-.2 1.8.4 1.8 2.7 0 1.6.4 3.6.8 4.3 1.2 1.9 4.7-.4 4.7-3.1 0-4.8-1.3-6.8-5.1-8.4-2.2-.8-3.9-1.8-3.9-2.2s1.5-2.2 3.3-3.9l3.4-3.3 5 2.6c2.8 1.4 5.8 2.2 6.7 1.9 2.7-1 7.3 1.5 8.7 4.8 1.7 4.2 6.4 6.8 12.2 6.8 2.6 0 4.7-.5 4.7-1q-.1-1-1.2-1a27 27 0 0 1-6.3-2.5c-3.7-1.9-5.4-3.5-6.6-6.3-1.2-2.9-2.9-4.5-7.6-7-3.4-1.7-7-3.2-8.1-3.2q-4.4-.1-2.1-4.6c1.4-2.8 5.3-3.2 8.6-.9 1.1.8 3.3 3.5 4.7 6 1.5 2.4 3.5 4.9 4.5 5.5a48 48 0 0 0 10.6 1.6c8.9.7 14.2 3.1 13.1 5.9-.2.7 1.1 2.8 3 4.6q3.5 3.3 2.4 4.3c-1.6 1.6-1.2 3.6.8 3.6 1 0 2.7.6 3.8 1.4 1.6 1.3 1.7 1.8.7 3.5-1.8 3 0 3.5 4.4 1.1 5.2-2.8 6.3-2.6 10.7 1.9 3 3.1 3.9 4.9 4.4 8.6.6 5.6 2.1 6.4 7 4 3.6-1.7 3.7-1.7 5.2.5a30 30 0 0 0 4.3 4.9c3.6 3.4 3.4 4.1-.9 4.1a10 10 0 0 1-6.6-2.5c-3.2-2.7-5.8-3.1-8.9-1.4-1.6.8-2.6.7-4.4-.5a15 15 0 0 0-6.9-1.6q-7.7 0-4.2-3.9c.9-1 1.6-2.3 1.6-3 0-1.5-6-7.1-7.7-7.1-2 0-2.5 1.8-1.1 4 1.1 1.7 1.1 2.2-.2 3-2 1.3-4.7 1.2-7.1 0-1.7-1-1.8-1.3-.4-3.3 1.1-1.8 1.2-2.7.2-4.7-1.9-3.8-9.8-8.1-16.4-9-9.2-1.3-11.6-2.4-14.8-6.7A39 39 0 0 0 390 769q-.9.2-1 2 0 2.1 4.7 4.8c2.5 1.5 6.7 4.8 9.2 7.3q8.4 8.5 17.3 7.3c3.7-.5 4.9-.2 8.6 2.6 5.5 4 5.4 6.6-.3 6.4-2.9-.1-4.3-.8-5.7-2.7q-1.8-2.5-3.8-2-3.4 1.1-1 2.8c2.2 1.3.8 2.5-2.9 2.5-3.5 0-3.9-.3-4.4-2.9q-.6-3-4.7-5.3c-2.2-1.3-4-2.9-4-3.6q0-1.1-3.9-1.2c-7.2 0-5.5 4.6 2.4 6.5 3.2.7 5.5 2.2 5.5 3.6 0 .5-3.1.9-6.9.9-7.6 0-9.3 1.1-6.6 4 1.6 1.8 1.6 2 .1 2.6q-1.5.6-1.6 2c-.1 1.4-.4 1.4-1 1.4q-.9-.1-1-1.4c0-1-2.6-1.5-10.7-1.9q-14.7-.8-12 1.9c.3.3 2.6.9 5.1 1.1 2.6.3 4.3 1 4 1.5-.4.6-4.2.7-9.8.3-12.1-.9-12.7-1.1-12-4q.9-4.4-6.8-4.5c-1.8 0-6.4-1.2-10.3-2.5a45 45 0 0 0-8.8-2.5 18 18 0 0 1-9.9-5.3c-1.4-1.8-1.9-1.9-3.2-.8-.9.7-1.6 2.1-1.6 3q.2 2-2.9 1.3c-4-.6-5.2-3.7-4.2-10.4 1-5.7.7-6.8-1.4-6.8s-2.4 1-3.4 8.1c-.8 5.9-.7 6.6 1.7 9.6 1.3 1.8 3.3 3.3 4.4 3.3 2.5 0 5.8 1.8 7.8 4.3 1.9 2.3 4 1.5 4-1.5q-.2-2.1 1.8-1.3a43 43 0 0 0 6 1.6c7.3 1.4 7.9 2.3 3.7 4.7-3.1 1.9-4.1 2.1-7.8 1.1a145 145 0 0 0-10.7-2.3c-8.2-1.7-14.8-5.1-15.6-8.1-1-3.9.2-13.6 2.3-19.5q4.5-11.8-6-6c-7.5 4.1-7.9 1.6-.4-3.4 5.7-3.9 9.7-9 9.7-12.5 0-1.2-.8-3.6-1.7-5.4s-1.9-4.6-2.3-6.2-1.2-3-2-3c-2.4 0-2.3 5.1.1 11 2.1 5.1 2.1 5.5.6 7.9-1.6 2.4-11 9.2-14.9 10.8-2 .8-8.8-1.7-8.8-3.3 0-.6 1.2-2.5 2.6-4.2q2.6-3 1.9-5.1l-1.2-7.4c-.6-5.5-1.2-6.2-3.3-3.7-1.2 1.4-1.1 3.2.5 9.7.5 1.9.1 3.5-1.6 5.7-4.3 5.8-7.4 3.5-13.7-10a80 80 0 0 0-7.4-13 50 50 0 0 1-5.2-8.7q-3-6.5-4.2-2.7c-.4.9 1.5 4.8 4.3 9.3 9.5 14.8 13.7 25.7 7 18a107 107 0 0 1-12.2-16.8l-2.7-5-3.5-7c-1.4-3-3.6-6.9-4.8-8.5-1.9-2.7-6-10.2-13.1-24.5-3.9-7.8-7.2-15.3-9.3-21-6.9-18.9-13.4-32.8-16.2-34.5-2.5-1.6-1.8 3.1 1.3 8.3 1.9 3.2 3.9 7.1 4.5 8.7 6.9 18.8 12.5 32 18.3 43.3 3.8 7.5 6.7 13.8 6.5 14q-.6.4-2.1-.9c-1.4-1.2-1.9-1-3.5 1-2.3 2.8-2.4 5.2-.3 14.4a112 112 0 0 0 9.1 24.9c2.5 4.6 2.5 4.7.8 9.2s-1.7 4.7.5 10.6c2.5 6.7 1.8 9-2.7 9q-2.1.1-1.9.8c.6 1.1 6.7.3 8.4-1s1.5-3.9-.8-10.8q-2-5.9-1.1-8.2c.8-2.1.9-2 3.6 2.2 2.4 3.8 2.7 5 2.2 9.8-.6 6 1.2 11.2 3.8 11.2 1.2 0 1.2-.5.1-3-1.3-3.1-1-9 .4-9 .8 0 8 6.9 8 7.6 0 .3-2.4 2.8-5.2 5.8l-5.3 5.3-10.6-.5c-15.4-.6-16.8.4-19.4 13.1-.5 2.5-.9 2.7-5.3 2.7-2.6 0-9.6-1.1-15.5-2.4a57 57 0 0 0-17.3-2c-5.9.5-6.9.3-10-2.1-2.7-2-3.4-3.3-3.4-5.9 0-1.9-.6-3.8-1.2-4.3-2-1.5-9.7-3.7-10.4-3-1.3 1.3.6 3.7 2.9 3.7q4.9.1 4.1 4.9c-.2 1.4-.1 3.1.3 3.6 1.7 2.1 10 6.9 13.3 7.7 2.6.5 2 .6-2.6.4-4.4-.3-7.1-1-9.2-2.6q-5.4-4-8 1.2-2 4.3-11.6 5c-5 .4-5.8-1.6-1.2-3.2q8.5-2.8 8.6-10c0-4.3-2.6-8-5.8-8-1.7 0-12.4 8.2-13 10q-.2 1 1.2 1.6 1.7.6 6.2-3.6c3.7-3.4 4.8-3.9 6-3 3.2 2.7.9 10-3.2 10a31 31 0 0 0-8.5 3c-5.2 2.7-6.6 3-11 2.4-5-.7-5.1-.8-7.4-6-2.9-6.6-4.7-6.9-10.4-1.4-2.4 2.4-5.1 4-6.5 4-1.3 0-3.6 1-5.1 2.2l-2.8 2.2.7-2.7c1.5-6.2 2.4-7.4 6-8.1 3.7-.7 3.8-.8 6-10.9a5 5 0 0 1 3.4-3.8l4.4-2c1-.5 2.9-.9 4.2-.9s2.7-.4 3.1-1 1.3-.6 2.1-.3q1.5.6 8.1-6.1c5.2-5.4 6.3-7 5.3-8.1s-.9-2.3 0-5.2c2.9-9 9-16.3 13.4-16.3 3.3 0 4.1-1.3 7.6-12.3l5.7-17.7c3.7-10.9 3.8-12 1.9-12-2.2 0-4.7 6-8.7 20.3-3.8 13.8-4.7 16.3-6.5 17.8-2.3 1.9-2.8.4-2.7-7.4.1-8-1.3-11.9-5.8-15.5l-2.8-2.3.3-19.2c.2-10.6.9-30 1.5-43.2s1.2-31.1 1.4-39.8l.3-15.9 12.9-.1 13-.2.2 9.3c.1 5.1.6 12.4 1.2 16.1 2.4 15.1 2.4 26 .1 44.6-3.5 27.7-3.5 28.8-1.4 28.3 1.5-.3 2.3-2.5 4.1-12.3 1.2-6.6 2.2-14.7 2.3-18.1 0-8.7 1.3-8.8 2.6-.2 1 6 .9 8.6-.3 14.8-.9 4.1-1.8 9.4-2 11.8-.3 2.4-1.6 6.3-2.9 8.8a40 40 0 0 0-4.5 21.4c.2 7 0 7.9-3 11.9-4.2 5.8-5.9 10.2-5.9 15 0 3.6-.7 4.7-5.3 9.4-5.4 5.3-8.5 11.1-6.6 12.2 1.7 1.1 1 2-5.1 6.5a31 31 0 0 0-7.1 7.2c-.6 1.6-1.6 2.8-2.1 2.8-1.9 0-10.8 9.8-10.8 11.9 0 3.1 3.7 6.6 5.5 5.1q1.6-1.1.4-3.2c-1.3-2.5 1-6.1 6.2-9.6 1.9-1.3 3.9-3.7 4.4-5.3 1.3-3.7 8.9-9.9 12.1-9.9 2.9 0 3.1 2.1.4 4.5-2.1 1.9-1.8 3.5.6 3.5 2.5 0 5.4-3.8 5.4-7.3q0-5.8-4.8-5.7-2.6.1-1.8-1.6l.6-2.4c0-.5 2.7-3.8 6-7.4 5.6-5.9 6.2-7 7.1-12.8.6-4 2-7.7 3.7-10.1 5-7 5.3-7.9 4.8-14.1a49 49 0 0 1 4-21.9c1-1.7 2.8-9 4.1-16.2 2.1-11.1 2.3-13.9 1.4-19-.9-5.2-.9-25.5.1-32.4.5-3.9-2-3.5-3.8.6l-1.7 3.8-1.3-7.5a231 231 0 0 1-2-20c-.6-12.4-.6-12.6 2.4-19.1 2.8-6.2 3.3-6.7 6.8-7.4 2.2-.4 5.9-1.7 8.4-3s5.3-2.6 6.3-2.9c2.1-.6 2.3-3.6.2-3.6-.8 0-4 1.2-7.2 2.6-7.4 3.4-9.7 3.6-15.6 1.9-7.8-2.3-11.7-5.2-14.3-10.8-3-6.5-5.1-18.1-3.6-19.9 1-1.3-.6-10.1-2.5-13-2.2-3.6-.9-53.4 1.8-65.8a95 95 0 0 0 1.3-10.7c.3-3.4 1.3-9.4 2.4-13.5 2.8-10.8 3.9-16 5.8-29.3a48 48 0 0 1 9.9-26 30 30 0 0 0 3.8-6c1.4-2.8 3.7-6.1 5.1-7.4a19 19 0 0 0 4.1-7.2c2.2-6.6 4.9-9.7 9.6-10.9 2.1-.6 5.5-2.4 7.4-4.1a33 33 0 0 0 8.5-16c0-1.2 1.5-3.7 3.4-5.5a14 14 0 0 0 3.8-6.1q.2-2.8 2.8-3.3c3.1-.8 3.4-.6 2.1 1.7m166.2-1.2c2.7.7 2.7.8 2.7 8.4 0 4.3-.3 8-.6 8.4-.4.3-1.6-.1-2.8-.9a96 96 0 0 0-21.2-6.4c-2.7 0-4.3 2.5-4.2 6.6 0 1.6-.5 4.2-1.1 5.7a18 18 0 0 0-1.1 5.3c0 2.8-1.5 3.2-2.5.6a49 49 0 0 1 1.2-20.7c1.3-2.6 2.4-3.5 5.2-4 2-.4 5.2-1.5 7.1-2.6 3.5-1.9 10.5-2.1 17.3-.4M120 325.7c0 1.5 1 3.7 2.2 5 3.2 3.5.9 5.3-2.6 2q-3.8-3.5-2-8.1c1-2.5 2.4-1.9 2.4 1.1m29.6 6.4a26 26 0 0 1-1.1 7.7c-.4.4-2.5 1.6-4.8 2.7-6 2.9-11.6 12-11.6 19.1-.1 4.1.5 5.9 2.9 9.2 3.7 5.1 9.3 7.1 12.4 4.4q1.7-1.4 1.3-.6-.5 1.2.8 2.4c2.5 2 1.2 6.8-2.5 9.5-3.3 2.5-3.3 2.5-4.8.4-1.3-1.9-1.5-1.9-3.3-.3s-1.9 1.6-1.9-.4c0-3.1-1.9-3.7-4.5-1.2s-3.8 1.1-2.3-2.9c1.3-3.5.4-4.9-3.4-5.3-2.5-.2-3.8-1.2-6-4.4-2.5-3.7-2.7-4.9-2.9-14.5-.2-12 .9-15 8-23 4.5-5.1 9.9-7.9 17.6-8.9l5.7-.9c.4 0 .6 3.1.4 7m73.9-.4q4.7 14 21.5 20.5c9.3 3.7 9.1 1.4-.3-3.3-6.7-3.3-12-7.8-14.3-12.1-2.1-4.1-1.7-4.3 2.1-.9 2 1.7 4.8 3.3 6.3 3.7l4.2 1.1c10.6 3.9 27 .3 34.7-7.7 1.8-1.9 3.5-3.1 3.9-2.8 1.1 1.2-3.9 10.9-7 13.6-3 2.6-10 6.5-14 7.7q-2 .6-.9 1.6 2.4 2.2 13.6-4.6a20 20 0 0 1 5.7-2.9c0 3.1-8.7 12.1-14.9 15.3q-2.5 1.3-1.2 2.4c2.3 2.3 11.7-4.2 18.3-12.6 1.8-2.3 4.2-6.9 5.3-10.3s2.5-6.2 3-6.3c1.5-.1 2.6 5.1 1.5 7.4l-3.3 8a64 64 0 0 1-12.7 19.3 55 55 0 0 1-8.4 5.3c-6.7 3.5-7.6 3-6.9-3.5.6-5-.8-6.5-6.8-7.3-6.4-.9-7.8 1.6-7.9 13.4 0 5.1-.3 9.3-.7 9.3l-9.7-1c-7.7-.9-9.1-.8-10.6.5-1.7 1.5-2 .9-5.4-10a47 47 0 0 1-3.4-16.8c.4-5.5.5-5.4 3.3 3.3 3.3 10.2 5.6 14.7 8.8 17 2.7 2.1 3.2 2.1 4.1.8s1.3-1.3 4.3.5q3.4 2.1 4.5.9c.7-.7-1-2.9-5.7-7.4a45 45 0 0 0-8.1-6.6c-1-.3-1.1-.7-.2-2.1 1.4-2.3.3-5.5-1.6-4.8-.8.3-1.9 0-2.4-.6a80 80 0 0 1-3.9-19.3 31 31 0 0 1 4.6 7.9c4.1 8.5 14.2 21.7 16.6 21.7 3.7 0 1-6.1-6-13.7-6.7-7.2-16.4-30.3-12.7-30.3.4 0 1.7 2.6 2.7 5.7m115.4.4c2.6-1.4 3.1-1.4 3.1.3 0 .7-1 2-2.2 2.8-2.2 1.4-2.4 1.3-4.7-2.1-2-3.1-2.1-3.3-.3-1.8 1.6 1.5 2.5 1.6 4.1.8m-165.3.3c1.9 1.5 1.9 1.6-.5 6-1.3 2.5-2.8 4.6-3.2 4.6-1 0-1.2-4.4-.3-8.9.7-3.5 1.2-3.7 4-1.7m139.7 7.2q5 .7 4.3 2-.3 1.4 1.5 2.5c1.6.8 2 1.9 1.7 5.2-.3 4.2-.3 4.2 4.2 5.5 2.5.8 5.5 1.8 6.7 2.4 2 1 4.6 5.8 5.7 10.8.3 1.4 2.8 4.3 5.5 6.5 4.6 3.8 5 4.6 7.5 13.5l3.6 12.5c1.3 4.1 1.8 8 4.1 29 1.9 18 3.4 26.1 5 27.1.5.3.9 4 .9 8.2.1 4.2.5 10.8 1 14.7 2 15 3.1 39.5 2 45.3-.6 3.5-1 23.6-1 51.9v46.1l-6.9-3.4a38 38 0 0 0-8.5-3.4c-2.3 0-2 2.8.7 6.4 1.3 1.7 4.1 6 6.2 9.6a113 113 0 0 0 7.2 10.6c3.2 4 3.3 4.3 3.3 14.1a223 223 0 0 0 3.1 35.8 61 61 0 0 0 7.2 17.8c2 2.9 1.7 8.9-.4 10.3-1.5.9-1.8.3-3.6-6.7-1.2-5-2.6-7.5-6.3-11.6a59 59 0 0 1-11-21.2q-.2-1-1.9-2.1-2-1-3.1-6.7l-2.5-12.3c-1.3-5.8-3.5-19.8-6.5-41l-2.5-17.5c-.8-5.5-1.5-12.5-1.5-15.6 0-6.1-2.9-20.6-5.4-28-1.6-4.5-6.6-10.9-8.5-10.9q-.9.2-1.4 1.2c-.2.7-1.4-.4-2.7-2.5a18 18 0 0 0-8.2-6.8c-5.9-3-6-3.1-5.3-6.2.4-1.8.6-7.7.5-13.1-.1-7.5-.6-10.9-2-13.6-1.9-3.8-8.2-10-10.1-10q-.9-.1-.4-1c1-1.5 5.8-1.2 8.4.6 3.3 2.4 5 .3 1.9-2.6a6 6 0 0 0-5.5-1.8c-1.8.2-3.3.2-3.3 0s1.7-2.5 3.9-5.1a55 55 0 0 0 10.5-19.1c4-10.6 6.5-15.8 6.5-13.7.1 3.1-5.5 18.1-8.8 23.4-3.5 5.7-3.9 11.3-.7 11.3 1.4 0 1.7.5 1.2 2.4q-.6 2.4.9 3c.8.3 2 1.7 2.7 3.1 1.2 2.7 3.3 3.3 4.1 1.2q.4-1.4 1.5.1c.5.8 1.8 1.2 2.8 1 1.7-.3 2 .7 2.7 9.7.4 5.5.5 15.7.2 22.7-.6 13.1.2 16.3 3.2 12.3 1.6-2.2 1.8-30 .3-43.5-5.5-51-6-54.9-8.5-71.1-5.6-36.1-7.1-44-10.4-55-3-10.4-3.9-14.7-2.1-10.2q1 2.2 3.1 2.3c1.9 0 2-.4 1.4-4.1a89 89 0 0 0-6-18c-.8-1.4-2.3-5-3.4-7.9l-2-5.4 4.2 4.2c3.4 3.3 5.2 4.3 9 4.8m28.7 1.9c0 3-1.5 3.3-3 .6-1.4-2.7-1.3-3.1 1-3.1q2.1-.1 2 2.5M56.5 346c2.7 1.4 3 2 3.3 7.2.2 4.3-.2 6.7-1.8 9.9l-2.2 4.2 2.4 2.1c1.4 1.2 3.7 4 5.3 6.4 2.6 3.9 2.8 5.1 2.9 13 0 9.7-2.3 16.8-6.6 19.6-2.2 1.5-8.7 2.8-21.8 4.6-10.4 1.4-10.3 1.5-9.6-15.3 1.9-41.9 1.8-44.8-.4-46.9-1.1-1-2-2.7-2-3.8 0-1.5.9-1.9 4.8-2.2 11.9-.8 22.8-.3 25.7 1.2m152.2.2q-.5 1.1-.6-.6t.5-1.3q.5.6.1 1.9m92.8.8q2.5 4.9.6 3.6c-1-.6-3.3-6.6-2.6-6.6.3 0 1.1 1.3 2 3m-5.5 2.5q0 2.5-1.5 2.5-2.4.2-.9-3.4c.9-2.5 2.4-1.9 2.4.9m-89.6 4.9q-.6 2.4-1.1 2.3c-.2-.3-.1-1.7.3-3.1q.5-2.4 1.1-2.3c.2.3.1 1.7-.3 3.1m92.9 14.6a72 72 0 0 1-2.2 13.3c-1.5 4.3-1.8 4.6-3.5 3.4-1.7-1.3-1.7-1.7-.2-8.8a260 260 0 0 0 2.8-14.9c1.1-7.2 1.2-7.4 2.4-4.5q1.2 3 .7 11.5m-84.9 7.5c2.9 9.3 8 21 9.7 22.1.5.3 2.6.8 4.7 1 2 .2 6 1.1 8.9 2 4.6 1.5 5.2 1.9 5.8 5.1.3 1.9.4 3.7.1 4-.2.3-2-.7-3.9-2.1-3.1-2.4-3.6-2.5-4.8-1-1.2 1.4-1.4 1.4-2.6-.2-.7-1-1.3-2.6-1.3-3.6s-.3-1.8-.7-1.8l-3-.6c-2.9-.8-3.1 1.6-.3 4.1 1.1 1 2 2.3 2 3s.9 2 2 3 2 2.3 2 3c0 1.5 3.5 4.7 4.3 3.9.3-.4.4-1.9.1-3.4-.6-2.5-.4-2.7 2.5-2.6 1.7 0 3.1.3 3.2.6l.5 6.9c.1 3.5.5 6.9.8 7.6.6 1.7 13.3 3.2 14.8 1.7.7-.7 1-5.8 1-13.4-.1-6.8.2-12.9.7-13.6 1-1.7 2.9-2 11.8-2.1 8.4-.1 10.3-1.4 10.3-7.1 0-3-.6-4.3-2.7-5.8q-2.5-1.9-1.8-3.2t1.6.1c.8 1.1 1.5.7 3.4-1.6 1.4-1.7 3-4.5 3.6-6.3s1.5-3.2 2-3.2c1.2 0 1.3-.6-1.7 11.2a62 62 0 0 1-13.5 29.3 80 80 0 0 1-6.8 7.9c-3.9 3.5-1.8 5.1 2.4 1.8 3.6-2.8 13.8-17 16.9-23.5 1.5-3.1 3.2-5.5 3.7-5.1q1 .4 2.6-.7c1.4-1.2 1.5-1 1 1.6l-1.3 6.9q-.6 4.3-1.6 2.2-2.5-4.1-4.8 2.6a43 43 0 0 1-9.6 17.1c-6.7 8.2-12 11.1-20 10.9-8.5-.1-21.4-4.8-21.4-7.8 0-1.9-2.7-3.7-3.5-2.4-1.4 2.2.6 5.8 4.2 8.1a33 33 0 0 0 27 4.8c4.6-.9 6.1-1.9 13.2-8.8 6.3-6 8.8-9.3 11.6-15.1 2.6-5.6 3.4-6.6 2.9-4-.3 1.9-1.5 5.5-2.5 7.9s-1.9 5-1.9 5.7-2.7 6.9-5.9 13.6c-5.2 10.6-6.8 13-11.8 17.4a63 63 0 0 1-9.9 7.2c-3.9 2-6.2 2-14.3 0q-1.3-.2-1.8.9c-1.4 3.9 14.3 4.4 19.4.7 1.6-1.2 3.9-2.4 5.3-2.7 4.1-1 16-13.2 16-16.4 0-.3 1.1-2.1 2.4-3.8 1.4-1.8 3.4-6.3 4.6-10.1l6.6-21c2.6-7.8 4.9-16.3 5.1-18.8 1-8.2 2.1-4.9 1.6 4.6-.4 9-1.7 14.9-6.9 30.8l-3.9 12c-.7 2.5-2.3 7-3.5 10l-3.9 9.5c-.9 2.2-3.3 6.6-5.5 9.8-2.1 3.2-3.6 6.1-3.3 6.4 1 .9 8-5.5 9.8-8.9l4.3-8.3 3.5-6.5c1-1.7 5.3-11.9 7.2-16.8 1.8-5 2.1-3.2.4 3.2-.8 3.1-1.5 7.2-1.5 9 0 4.1-1.7 9.3-4.2 12.7a12 12 0 0 0-2.1 5c-.6 6.1-12.5 21.9-16.5 21.9q-1.1 0-1.2 1c0 .5 2.3 1 5 1 4.3 0 5.5-.5 7.7-2.8 3.5-3.6 9-15.7 11.3-24.6 1-4 2.5-8.9 3.4-11s1.5-4.7 1.4-5.9a85 85 0 0 1 4.8-19.2c1.4-3.9 1.5-3.7.9 6.1-.3 5.6-1.4 14.4-2.4 19.5-6.3 30.4-7.5 33.5-14.8 39.4-6.8 5.6-9 6.3-10.9 3.7-1.1-1.6-3-2.2-9.1-2.7-15.7-1.4-23.4-3.1-26-5.9-1.3-1.4-3.1-2.6-3.9-2.6-2.1 0-9.4-3.8-9.4-5a113 113 0 0 1-20.1-39c-1.4-5.8-3.4-19.1-5.4-35l-2.4-19c-.8-6.3 0-12.3 1.3-9 .3.8.8 4.4 1 7.9q1 10 3.5 7.5c1.2-1.1-1-20-2.7-23-.8-1.6-.8-3 .1-6l1.2-3.9.6 5.5c.3 3 1.8 9.5 3.3 14.5m-53.9-16.3c-1.2 4.2-4 9.3-5 9.3-.5 0-1.1-1.5-1.3-3.3-.3-2.7.1-3.5 1.7-3.9a4 4 0 0 0 2.6-2.4c.9-2.7 2.8-2.4 2 .3m145.2 0q-.5 1.1-.6-.6t.5-1.3q.5.6.1 1.9m-20.8 9.5a29 29 0 0 1-9.5 12.5c-4.8 3.6-5.7 3.9-10.6 3.6-4.6-.3-5.3-.6-5.6-2.5s.7-2.7 5.5-4.9a57 57 0 0 0 20.4-15.2c4.9-6.8 4.8-3.2-.2 6.5M380 362q0 .9-1 1a1 1 0 0 1-1-1q.1-1 1-1t1 1m-126.6 4c2.5.9 2.5 1.2 2.8 11.2l.3 10.3 9.7.6c5.4.4 10.4.9 11.3 1.3 1.6.6 2.1 5.1.6 6-.4.3-5.2.8-10.6 1q-9.7.6-10.7 1.8a89 89 0 0 0-.8 15.2c0 12.8-.1 13.8-1.7 13.1l-3.5-1.2c-2.3-.7-2.8-3.3-2.8-15.4 0-10.4-.1-10.6-2.5-11.7a29 29 0 0 0-9.3-1.2c-3.7 0-7.2-.4-7.8-.8-1.8-1.1-2.3-7.1-.7-8.4 1.3-1 9.2-.6 13.9.7 1.2.4 2.9-.1 4.3-1.2 2.1-1.7 2.4-3 2.8-10.9.4-8.7.8-11.4 1.7-11.4.3 0 1.6.4 3 1m103.2 2c6.2 5.4 16.2 6.2 21.1 1.7 1.3-1.1 2.5-1.9 2.7-1.6.4.4.9 8.9.7 11.6-.1 1.7-6.7 5.2-8.9 4.6q-2-.6-3.8 2.6c-1 1.7-2.1 3.1-2.5 3.1-1.3 0-1.6-2.4-.8-5.2.9-3.3.1-4-5-4.3-4.5-.4-11.1-3-11.1-4.4q.1-1 1.1-1.1t.9-2.8c-.6-8.1.4-8.8 5.6-4.2m20.4-1.6c0 1.1-1.9 1.5-2.5.6q-.4-.9.9-1 1.5 0 1.6.4m-146 9.9q-.2.8-2-.8c-1.8-1.6-2-2.3-2-2.8q.2-.8 2 .8c1.8 1.6 2 2.3 2 2.8m-29.9 1q-1.5 1.4-.5-.6.6-1.6 1.2-1.2.4.6-.7 1.8m-75.3 10.3c1.2.8 2.2 2.1 2.2 2.9 0 1.9-4.3 3.2-4.9 1.4a15 15 0 0 0-3.5-4.3l-3.1-2.9 3.5.8c1.9.4 4.5 1.3 5.8 2.1m72.9 1.6q-.5 1.1-.6-.6t.5-1.3q.5.6.1 1.9m163.6 2.9c3.3 5 3.5 7 .4 4.1-1.3-1.2-2.8-2.2-3.5-2.2-1.4 0-3.1-3.1-2.5-4.8q1.4-3.4 5.6 2.9m-67.3-1.6q0 1.3-1 1.5-.8-.2-.4-1.5.6-1.4 1-1.5.3.1.4 1.5m-145.6 5q-.7 4.7-3.1 6.9a13 13 0 0 0-3.4 4.3q-.9 2.1-2.4 2.3-3.1-.1.5-3.5 2-1.8 2-6.1c0-2.4-.4-4.5-.8-4.8-1.3-.8-7 4.6-7.4 6.8-.2 1-1.1 2.4-2 3-1.3.8-2.2.5-4.3-1.4-3.2-3-3.2-4 .4-4 3.5 0 5.5-2.2 4.9-5.3-.4-2.3-.3-2.3 4.6-1.5 4 .7 5.8.6 8.1-.6 1.6-.8 3.1-1.4 3.3-1.2s0 2.5-.4 5.1m54.6 2.1c.5 3.3 1.2 8.8 1.5 12.3s1.2 9.4 2 13l2.8 13.6c2 9.3 6 20.3 11 29.9 3.1 6.1 5.3 8.9 9.4 12 6.3 4.9 5.2 5.5-4.9 2.8-4-1.1-11.3-2.7-16.3-3.7s-9.4-2.2-9.9-2.7a8 8 0 0 0-3.6-.8c-5.2 0-6.2-1.7-5.1-9.4.5-3.7 1.2-7 1.5-7.3.2-.3 1 2.2 1.7 5.6q1.7 9.4 5.4 7.7 1.7-.4.6-2.8c-3.6-9.7-5.7-23.8-3.9-27.1 1-1.9 1.5-.7 3.9 9.1 3 12 3.8 13.9 7.6 18.9 4.6 6.2 7.3 3 3.2-3.7-6.5-10.6-10.8-33.9-10.4-56.5.3-18.2 1.7-22.4 3.5-10.9m172.4-3.1c-.7 1.7-2 2-2.8.6-.7-1 .3-2.1 2-2.1q1.2 0 .8 1.5m4.1 5.5c.3.6.3 2 0 3.1-.6 1.9-.9 2-2.2.6-.9-.9-1.3-2.3-1-3.1.7-1.8 2.3-2.1 3.2-.6m-12.1 4.2q-.6.8-2-.3-1.1-1-.8-2.1.6-.7 2 .3 1.2 1 .8 2.1m-245-1.4c.6 1-5.3 5.7-6 4.9-.3-.3-.2-1.6.2-3.1q.5-2.7 2.9-2.6c1.3 0 2.6.4 2.9.8m248.2 5.9c-1.1 1.1-1.9-.6-1.1-2.4s.8-1.7 1.2 0c.3 1 .2 2.1-.1 2.4m-244.3 3.1c-1.6 2.9-1.7 3.4-.3 5.9 3 5.5 9 3.5 9-2.9 0-1.5.5-2.8 1-2.8q1 .1 1 2.1c0 1.2 1.4 3.4 3.1 5q3 2.8 2.7 5.1c-.4 2.9-3.4 3.5-5.9 1.2a4.1 4.1 0 0 0-6.9 3c0 2.8-2.7 5.6-3.4 3.5l-.8-3.9c-.4-3.4-5.1-4.1-7-1.1q-3.1 5.1-2.6-3.1c.3-5 .5-5.3 3.3-5.8 2.3-.4 3.3-1.3 4.2-4 .7-1.9 1.2-4.6 1.2-6 .1-2.2.3-2.3 1.6-.9s1.4 1.9-.2 4.7M363 411q-.1.9-1.1 1-.8-.1-.4-1 .6-1 1.1-1 .4 0 .4 1m13.8 3.5c1.5 0 2.7.5 2.6 1.2l-.2 3.3q-.2 2-2.5 2c-1.2 0-3.4.8-4.7 1.7-2.5 1.7-6.7 1.9-8.3.3-.5-.4-.6-1.7-.3-2.8q.6-2 3-1.5c2 .4 2.6-.1 3.7-3.1 1-2.9 1.5-3.3 2.7-2.4a8 8 0 0 0 4 1.3m-14.1.7q-.5 1.1-.6-.6t.5-1.3q.5.6.1 1.9m37.3 7.9c-.8.5-3.7.8-6.4.5s-5.7-.1-6.7.4q-1.8 1-2.4-.1c-1.1-1.6-.4-1.9 7.6-2.7 7.5-.8 10.7 0 7.9 1.9m-287.3 5.5c.3.9.2 2.4-.4 3.3-.8 1.3-2.8 1.6-9.9 1.6-7.7-.1-8.9-.3-9.2-1.8-.8-4.1.3-4.7 9.8-4.7 7.5 0 9.2.3 9.7 1.6m267.8 1.3c-.9 1.6-2.5.3-1.8-1.5q.6-1.5 1.5-.6c.9.9.7 1.5.3 2.1m110.7-1.6q-3.4 1-4.4-.1c-.9-.9-.1-1.2 3.3-1.1l4.4.1zm-90.4 4-.3 4.1-5.7-.1c-11.6-.2-10.8.1-10.8-3.7 0-4 .5-4.3 10.3-4.3h6.8zm-27.2.3c2.5 2 5.4 6.7 5.4 9 0 1-7.2-.1-8.1-1.3a4 4 0 0 0-2.5-1.3c-1.7 0-4.7-6.8-3.9-8.8.7-1.9 4.8-.8 9.1 2.4M142.1 438l-1.5 7.9-4.5.6c-7.9 1-12 2.5-15.7 5.7-1.9 1.7-3.7 2.9-3.9 2.6-.7-.6 4.5-7.7 10.9-15.2 4.7-5.4 10.7-9.4 14.6-9.5 1.4-.1 1.4.7.1 7.9m-23.1-.8q-.2.8-1.5.8c-1.9 0-2.9-2.4-2-4.8.6-1.5.8-1.4 2 .8.8 1.4 1.4 2.8 1.5 3.2m-11.7.8h4.2l-.2 19.2c-.3 32-.4 33-2.5 33.6-2.4.6-2.3 1.8.3 2.5 3.6 1 1 2.9-3.5 2.5-3.1-.2-4.1.1-4.1 1.2s1.3 1.6 4.8 1.8l4.7.3V514h-3.9c-6.3 0-6.7 3.5-.6 4.6 3.5.6 4.5 1.2 4.5 2.5q-.2 1-2.9.4c-1.6-.3-3.2-.2-3.5.4-.9 1.3 2.1 4.1 4.5 4.1 1.8 0 1.9.8 1.9 11.6v11.6l-4.2-.3c-2.4-.2-4.3.1-4.5.8-.6 1.6 1.7 2.7 5.3 2.5 2.9-.2 3.2 0 3.8 3.5.3 2.1.6 8.7.6 14.6 0 8.6-.3 10.9-1.5 11.3-2.2.9-1.8 3.1.5 3.7 1.5.4 2 1.4 2 4.2v3.7l-6.7-.3c-12-.6-12.4 3.2-.5 4.1 5.2.4 6.8.9 7 2.2s-.6 1.7-4 2c-5.8.4-6 3.2-.3 3.6 3.9.3 7.6 2.2 4.3 2.2a4 4 0 0 0-2.7 1.4c-.9 1-.6 1.7 1.4 3 2.4 1.6 2.4 1.9 2 10.2-.2 4.8-.8 9.1-1.4 9.7-1.6 1.6-1.3 3.4.5 4.1 1.3.5 1.4.9.4 2.1-.7.8-1.9 1.5-2.7 1.5-2.4 0-1 3.4 1.7 4 4.3 1 .2 2.4-7.2 2.5h-6.7l-.6-9c-.3-5-.7-21.3-.8-36.4l-.2-27.5 5.7-.1c6.3-.1 8.8-1.4 6.5-3.4-1.1-.8-2.7-.9-5.7-.2-5.4 1.2-6.6.7-7.4-3.1-1.2-5.9-.9-6.3 3.4-6.4 4.7-.2 5.5-.7 4.6-2.9-.4-1.2-1.4-1.4-4.6-.9l-4 .7-.1-11.4-.4-22.9c-.2-6.3-.5-27.7-.7-47.5l-.3-36 3.5-.6c1.9-.4 4.1-.5 4.8-.3s3.2.4 5.5.4m14.7 1.4q0 .5-1 1.1-.9.4-1-.4.1-1 1-1.1 1 0 1 .4m276 1.5 2.4.7-.2 14.9c-.2 8.3-.7 25.1-1.2 37.5-1.5 34.7-1.9 47.9-3.1 83a968 968 0 0 1-2.5 53c-.4 8-1 15.4-1.4 16.5-.7 1.8-.9 1.8-1.9-.9-.6-1.6-2.3-3.7-3.6-4.8q-5-3.8.6-3.8c2.4 0 3-.4 2.7-1.8q-.4-1.6-3.1-2l-2.7-.3-.1-17.7-.1-24.4c0-3.9-.5-7.4-1.3-8.5-1.3-1.7-1.5-1.6-3.5 1-2.4 3-4.5 3.5-5.4 1.1-.7-1.9 4.4-4.3 12.9-5.9q6-1 6-2.6c0-1.6-1.2-1.4-3.9-1.5-4.9 0-6-2.1-1.4-2.6q3.3-.3 3.6-2.1c.3-1.3-.4-1.7-3.1-1.7h-3.4l-.7-6.1c-.7-6.9.1-8.6 4.2-9.1 3.6-.4 3.6-3.3 0-3.3-1.4 0-3-.3-3.4-.8q-.5-.6 1.9-.7c3.7 0 8.2-1.9 7.1-3-.5-.5-2.9-1-5.3-1.2l-4.4-.3.3-10.5c.2-5.8.3-12 .2-13.9-.1-3.3 0-3.3 3.4-2.8q6.3 1 6.4-1.8c0-.7-2-1.5-5-1.9-2.7-.4-5.2-1-5.5-1.5a697 697 0 0 1-.1-56.1l.6-14.8c0-.5 11.6 0 14 .7m-85 9.9c-1.3 7.4-3.8 14.2-3.9 10.7a76 76 0 0 1 4.7-18.5c.2.6-.1 4.1-.8 7.8m64.2-.5c-2.1 2-4.2 1.6-4.2-.9q-.2-1.3-2-1.4c-2.3 0-2.4-.4-1-3.1 1-1.8 1.2-1.8 5.1.8 4 2.6 4 2.7 2.1 4.6m-6.4 4.5c.6 1.8-1.5 1.4-2.2-.4q-.5-1.5.6-1.2c.6.2 1.4 1 1.6 1.6m-247.4.8c1 2.6.7 5.1-.8 6.3-1.1.9-1.5.5-2-2.4q-1-5.4 1.4-5.5.8.1 1.4 1.6m14.9 3.2c-.6 4.1-2.8 6.5-5.3 5.7-.9-.3-3.3.1-5.3 1-3.9 1.6-6.7 1.9-6.7.7a64 64 0 0 1 14.1-11.1c3.3-1.2 3.9-.6 3.2 3.7m240.8 2.5-.1 1.6q-.2.8-2 .4c-1.1-.3-2-1.4-2-2.4 0-1.4.4-1.7 2.1-1.1q1.8.8 2 1.5m-7.3 1.4c-.5 2.5-2.8 2.8-2.8.4q0-2 1.6-2.1 1.4.1 1.2 1.7m-51.8 5.5c0 1.2-.7 2.9-1.6 3.9-1.9 2.1-1.2 5.1.9 4.3 1.1-.4 1.7 1.8 2.6 9.7.7 5.5 1 10.4.7 10.7q-.5.3-.6-1.4c0-1.1-.7-2.9-1.5-4-1.4-1.8-1.6-1.8-2.8-.2q-2.6 3-2.7-1.7c0-2.8-3.4-5.9-5.6-5.1q-1.9.8-.6-.7c.7-.8 2.7-1.2 5.1-1 4.3.3 6-1 4.1-3.2-1-1.3-1.6-1.2-4.1.1-3.8 1.9-3.7 1 .6-5 1.9-2.7 3.5-5.8 3.5-6.8s.5-1.8 1-1.8 1 1 1 2.2m-185.9.1-.1 2.2q0 1.3-.9 1.5c-1.2 0-2.3-2.9-1.5-4.1.6-1.1 2.6-.8 2.5.4m-13.1 5.1c0 1.4.5 2.8 1 3.1q1 .7 1 2.2c0 2-3.9 6.3-5.7 6.3s-1.6-3 .4-5.2c1.5-1.7 1.5-1.9-.1-3.7-1.6-1.7-1.6-2-.1-3.5q3.5-3.4 3.5.8m257.3 1.3c-.5 2.9-.7 3.1-2.5 2.2-2-1.1-2-1.1.3-3.5 1.2-1.3 2.3-2.3 2.5-2.1.1.1-.1 1.7-.3 3.4m-242.3 3c0 2.9-1.2 6.3-2.1 6.3-.5 0-4.1 2-8.1 4.5s-7.6 4.5-8.1 4.5c-1.4 0 4.9-8.4 9.7-12.8s8.6-5.5 8.6-2.5m63.1.6-.1 1.7c0 1.2-2 1.3-3.9.1-2.2-1.4-.6-4.2 1.9-3.3q2 .8 2.1 1.5m173.9 2.3q0 1.3-1 1.4-.9-.1-1-2.1.1-1.7 1-1.4c.6.3 1 1.3 1 2.1m-163.8.1c2.5 2.2 2.3 4.3-.5 4.3-3.3 0-6.2 2.3-5.4 4.4.7 1.8 2.9 2.8 10.2 4.5 5 1.2 5 1.2 7.7-2 1.5-1.8 2.8-4.1 3-5.3.3-2.2 2.8-3.2 5.5-2.2q1.9.6.5 1.8c-.7.7-1.2 2.8-1.2 4.8q0 7.5 8.7 7.5c3.7 0 4.9-.5 6.9-2.8 1.3-1.5 2.4-3.7 2.4-4.8 0-2.2 3.7-2.6 7-.9 1.7.9 1.8 1.4.8 3.8-1.8 4.1-2.5 4.7-4.2 3.2-1.9-1.5-4.6-.7-4.6 1.4 0 1.7 9 4.6 14.4 4.6 3.9 0 5.8-2.2 3.8-4.2q-1.1-1.2-2.7.2c-2.9 2.4-3.7-.3-1.2-4.1 2.1-3.1 2.6-3.4 6.8-3 2.4.1 4.6.5 4.8.7s-.5 1.4-1.7 2.7c-2.9 3-5.5 12-4.7 15.8.4 1.6.2 2.9-.3 2.9s-6.4-1.1-13-2.5c-13.7-2.8-13.5-2.8-12.8-1.6.3.5 5.9 2.1 12.3 3.6l15.3 3.6c2.9.7 4 .5 7.1-1.6 2.1-1.3 4-3.4 4.4-4.5q.7-1.9 1.2-1.7c.2.3-.2 1.9-1.1 3.5-1 1.9-4.4 4.6-9.3 7.6-8.5 4.9-16.3 11.8-16.3 14.2 0 .9-.9 2.7-2 4.1s-2.2 4-2.6 5.9q-.7 3.3-2.1 3.4c-2.4 0-13.6-3.1-16.3-4.5-1.4-.7-6.3-2.8-11-4.6-15-5.9-25.5-12.1-26.4-15.7a83 83 0 0 1-1.6-23.6q1-1 5.8.6c6.7 2.3 11.2 3.1 11.2 2s-2.8-2.3-11-4.8c-7-2.2-8.2-3.1-7.8-6.3.3-2.3.7-2.6 4-2.3 3.3.2 4-.2 7.9-4.8 4.6-5.5 5.4-5.8 8.1-3.3m9.8 1.8c0 .3-.7 2.2-1.5 4.1-1.1 2.8-1.9 3.5-3.7 3.2-1.2-.2-2.4-.9-2.6-1.7q-.5-1.4 1.1-.8c2 .7 3.9-1.5 3.1-3.7q-.7-1.7 1.5-1.6 2 0 2.1.5m-25 1.5q0 .9-.4 1-.6-.1-1.1-1-.4-1 .4-1 1 0 1.1 1m47.1 4c2.1 1.2 2.5 5 .7 6.8-1.7 1.7-4.8 1.5-7-.5-4.7-4.2.4-9.4 6.3-6.3m137.9 3.1c0 1.6-5.2 6.9-6.2 6.3-1.8-1.1-.7-4.4 2-5.7 3.4-1.9 4.2-2 4.2-.6m-98.6 4.1c1.8 2.5 2 8.2.5 11.3q-1 2.3-.4-2.1c.4-3.2 0-4.8-1.5-6.7-1.1-1.4-2-3-2-3.6 0-1.8 1.8-1.2 3.4 1.1m-155.6 1c1.6 1.6 1.5 3-.1 5.3-1.3 1.7-1.5 1.6-2.9-1.1-2.2-4.5-.2-7.4 3-4.2m163.8 1.3c-1 .8-2.3 1.2-2.8.9-1.4-.9.2-2.4 2.5-2.4 2.1.1 2.1.1.3 1.5M273 500c-1.3 2.3-3 3.5-3 2 0-2 2.1-5.1 3.1-4.5q.9.6-.1 2.5m3.7 5.6c-.8 5-3.3 7.7-5.9 6.3-2-1.1-2-1.1 0-2.5 1.1-.7 2.2-2.7 2.5-4.4q.7-3 2.3-3c1.4 0 1.6.7 1.1 3.6m12.8-1.6c.3.5 1.8.7 3.3.5 2.9-.6 4.5.4 7.9 4.8 2.2 2.8 2.2 2.9.3 6.4-1 1.9-1.6 4.1-1.4 4.8q.4 1.2-.5 2c-.6.3-1.1 1.8-1.1 3.1 0 3.8-5.4 8.8-8.5 8q-2.5-.6-6.2 1.4a16 16 0 0 1-6.8 1.9l-3-.1 3.5-1.6a41 41 0 0 0 6.5-3.8 28 28 0 0 1 4.8-2.7q1.5-.7 1.7-1.6c0-2-1.8-2-4.3-.1a67 67 0 0 1-10.4 5.6l-12.8 5.9-5 2.5 3.9-3.5c2.2-1.9 4.5-3.5 5.1-3.5q1.3-.2 2.5-1.5 1.8-1.9 4.4-3c4.5-2.2 9.1-6.1 8-6.8-.6-.3-2.1.1-3.5.8l-5.9 3.2-6.7 4c-3.1 2.3-6.9 3.2-5.9 1.4.4-.5 5.1-4.2 10.7-8.1 7.9-5.7 10.5-8.1 12-11.4 1-2.2 1.9-4.8 1.9-5.7 0-3 4.1-5.2 5.5-2.9m90.8 1.2q1 3.8-1.8 3.8c-1.7 0-.8 4 1.2 5.7q1.4 1.1 1.1 5.5c-.3 3.6-.7 4.4-2.6 4.6-3.7.6-6-2.2-5.7-7q.2-4 1.9-5c2.3-1.3 2-2.6-.6-3-3.4-.4-2.8-2.5 1.2-4.7 4.6-2.5 4.7-2.4 5.3.1m-256.1 3.3.2 3.7c.2 2.3-2.3 1.9-4-.8-1.7-2.5-1.7-2.7.1-4 2.7-2 3.5-1.7 3.7 1.1M129 520c4.3 3.1 5.2 5.2 7.2 18.5 1.6 10.6 1.6 12.1.3 13.4s-1.5 1.2-1.5-1.8q0-3.3-1.7-3.8c-1-.2-2.9-2.7-4.3-5.5q-3.6-7.4-10.8-13c-1.7-1.4-2.2-2.8-2.2-6.4v-4.7l5 .6c2.8.3 6.4 1.6 8 2.7m4.4 36.5c-.6 1.6-2.4 2.1-2.4.7 0-1.1 1.1-2.2 2.1-2.2q.7.2.3 1.5m4.7 11.9a17 17 0 0 1-13.2 7.9c-6.6.9-8.9-1-8.9-7.3v-4.9l5.5.6c3.1.3 6 .1 6.7-.4a13 13 0 0 1 3.9-1.7 8 8 0 0 0 4.5-3.3l1.8-2.8.9 4.2c.8 3.5.6 4.7-1.2 7.7m239.4-2.8c4.2-1.1 4.9 6.1 1.1 10.8-2.2 2.7-2.5 2.7-5.2 1.5-2.5-1.2-2.9-2-3.2-6.3-.4-6.6.2-8 2.9-6.6 1.1.7 3.1.9 4.4.6m-237.7 10.1c-.3 1.9-4.8 3.2-4.8 1.4 0-1 2.8-3 4.3-3.1q.8.2.5 1.7M118 580q0 .9-1 1a1 1 0 0 1-1-1q.1-1 1-1t1 1m11 3.2c0 4 0 4.1-2 2.3-3-2.7-2.6-6.5.7-6.5q1.3 0 1.3 4.2m25.5-2.2c2.6 1.1 4.5 2.4 4.3 2.8l-2.2 5.7-1.8 5-12.9.2c-7.6.1-13.1-.2-13.4-.8-.4-.5 1.9-3.7 5-7.1 5.1-5.5 6.1-6.1 10.3-6.5 2.5-.2 4.8-.6 5.1-.8.6-.7.4-.7 5.6 1.5m225 10q-.7 1.4-1.6-.1c-1-1.7 0-3.4 1.3-2.1q.9 1.1.3 2.2m-255-.8c.6 1.5-2 9.4-2.9 9l-2.3-.2c-1.5 0-1.5-.1.1-1.8 1.5-1.8 1.5-2-.4-3.7-2.7-2.4-2.5-3.3.8-3.8l3.5-.6q.8.1 1.2 1.1M374 594c.7 3 .4 33-.4 33.7q-.6.4-2.1-.7c-1.2-1-1.5-4.3-1.5-18.7 0-15.9.2-17.4 1.7-17.1.9.2 2 1.4 2.3 2.8m5.8 13.9q.4 2.4-1 1.9c-.7-.3-1.5-1.5-1.6-2.7q-.4-2.4 1-1.9c.7.3 1.5 1.5 1.6 2.7m-258.7.1c1.8 1 2.6 4 1.3 5.2-.3.3-1.4.4-2.5.1q-2-.5-1.9-3.4c0-3.2.3-3.4 3.1-1.9m235 12.6c.7.8 3 2.4 5.1 3.5 8.5 4.3 26.4 25.5 31.2 36.9 1 2.5 3.4 7.8 5.3 11.7 5.1 11 6.9 26.6 4.8 41.3a87 87 0 0 1-5.4 23.5 22 22 0 0 0-2.1 4.7 83 83 0 0 1-3.5 8.4 95 95 0 0 0-3.5 8.1c0 1-17 17.4-24.7 23.8a40 40 0 0 0-7.3 7c0 1.2-6.9 3.5-10.6 3.5-3.9 0-15.1-6.8-16.3-9.9-2.8-7.1-2.6-7.6 2.9-9a36 36 0 0 0 9.8-4.5c2.6-1.7 6.3-3.9 8.2-4.9 1.9-.9 8.2-6.5 14-12.4a69 69 0 0 0 19.5-31.3l3.6-10c3-7.6 4.2-20 2.8-28.8-1.8-12-4.5-18-14.5-33.2-5.9-8.8-9-12.8-18.6-23.5q-5.6-6.3-2.9-6.5.9.1 2.2 1.6m-235 2.4c2.3 1.3 2.5 4 .4 4-2.9 0-3 3.2-.1 5.5 2.2 1.7 2.6 2.7 2.1 4.8-1.7 6.5-5.5.5-5.5-8.5 0-3.8.3-6.8.6-6.8s1.4.5 2.5 1m258.9 2c0 1.6-.4 3-1 3s-1-1.4-1-3 .5-3 1-3 1 1.3 1 3m-279.5 24q.8 1 6.6.4c4.9-.6 6-.4 6.5 1 .8 2.2.2 2.7-3.8 3.5-4.4.9-4.4 3.5-.1 3.9l3.3.3-.1 20.1c-.1 18.9-.2 20-2 19.5-2.6-.7-4.4 1.7-2.4 3.3.8.7 2.2 1 3 .6 1.2-.4 1.5.4 1.5 4v4.6l-3.2-.6-7.2-1.2c-3.7-.7-3.8-.8-3.2-4.3.3-2 .6-11.2.6-20.5v-16.9l4.5.6q7.5 1 3.9-2.7c-1.8-1.9-5.5-2.1-7.2-.4-1.5 1.5-1.9.2-2.6-9q-.6-10 1.9-6.2m21.3.8q.4 1.4-1.4 1c-.9-.1-1.9-.9-2.2-1.6q-.4-1.4 1.4-1 1.6.4 2.2 1.6M373.1 660l-.9 4.5-.1-5.5q-.1-5.4.9-4.4t.1 5.4m-252.6 0q.4.9-.9 1-1.5-.1-1.6-1 0-1 .9-1t1.6 1m257.2 6.2q-.5 1.1-.6-.6t.5-1.3c.3.3.4 1.2.1 1.9M122 675q-.1 7.9-4 3.5c-1.9-2.3-.4-8.5 2-8.5 1.7 0 2 .7 2 5m261.9 9.2q0 2.6-.8 2.8c-1.1 0-2.2-7-1.4-8.3s2.1 2 2.2 5.5M377 686c0 2.7-.4 5-1 5-1.1 0-1.4-5.9-.4-8.4q1.5-4.2 1.4 3.4m-256.3 3.6c.8 2.1-1.3 4.2-2.8 2.7-1.3-1.3-.5-4.3 1.1-4.3q1 .1 1.7 1.6m263.7 2.2c.8 1.3-.9 6.5-2.2 7s-1.8-5.9-.5-7.1c.9-.9 2.1-.9 2.7.1M121 707.1c0 4.4-.3 6-1.2 5.7-1.4-.5-2.3-9-1.4-11.5 1.2-3.1 2.6.1 2.6 5.8m263-3.4q-.1 1-1 2.3c-.9 1.3-1.1 1.3-1.9 0q-.8-1.4-.5-2.2c.6-1 3.4-1.1 3.4-.1M10 714q0 .9-1 1a1 1 0 0 1-1-1q.1-1 1-1t1 1m221.4 15.3a99 99 0 0 1 5.2 10.7c-1.5 0-8.4-10.6-11.2-17.3q-9-21.8 6 6.6m255.2-11.5a20 20 0 0 1-13.4 9q-4.7.6-3.8-.7c.4-.6 1.8-1.1 3.2-1.1s4.3-1 6.5-2.3c3.2-1.8 3.9-2.6 3.4-4.5q-.7-2.4 1.7-3.1 4.9-1.9 2.4 2.7m-267.2-.6 1.5 5.4c2.4 9 20 31.1 29.1 36.6 1.9 1.2 5.8 4 8.5 6.3 8.2 6.8 20.3 12.3 24 10.8.8-.3 2.6.5 4.1 1.6a9 9 0 0 0 4.6 2.1c1.7 0 1.9.4 1.2 3.2a35 35 0 0 0-.6 7.5c0 2.4-.3 4.5-.7 4.7-1.7 1.1-19.1-5-24.2-8.6-1.5-.9-3.7-2.2-5-2.7a132 132 0 0 1-23.2-20.3C227.3 749.7 217 728 217 717.9c0-2.1 1.9-2.6 2.4-.7M91.5 719c-1 1.1-2.3 2-2.9 2q-.8-.2 1.4-2 4.9-3.7 1.5 0M22 720l5.2 2.1c1 .5 2.6.9 3.6.9s2.7.7 3.8 1.5c1.8 1.4 1.7 1.4-1.3 1.5-1.8 0-5.2-.9-7.5-1.9l-7.5-3.1c-1.8-.7-3.3-1.7-3.3-2.2 0-1.1.8-.9 7 1.2m48.1 1.2c-3.9 1.1-7.9.1-4.7-1.1 1-.4 3.3-.5 5-.2l3.1.4zM85 723c0 1.4-5.9 4.2-7.6 3.6q-3.4-1.4 1.9-3.3c4.3-1.4 5.7-1.5 5.7-.3m-37.2 3.7c5.7.6 7.2 2.3 2 2.3-4.5-.1-13-2.4-12.1-3.4.4-.4 1.7-.4 2.8-.1s4.4.9 7.3 1.2m417.2.3c-.8.5-3.3 1-5.5 1q-4.2 0-2.5-1c.8-.5 3.3-1 5.5-1q4.3 0 2.5 1m-402.5 1c-.3.5-2.2 1-4.1 1q-3.3 0-2.9-1c.3-.6 2.2-1 4.1-1q3.3 0 2.9 1m62.9 4.1c-4.3 4.6-18.4 10.6-18.4 7.9q.1-.9 1.9-1a39 39 0 0 0 16.7-8.5c.9-1.4 1.9-2.3 2.2-2s-.8 1.9-2.4 3.6M9.7 739.2a67 67 0 0 0 22.3 5.3l15.5 1.1c6.4.5 8.3.4 9.3-.8.9-1.1 2.3-1.3 5.4-.8 5.3.8 32.2-1.4 36.5-3 1.7-.6 4.2-1 5.5-.8 2.6.5 2.6.5-7.8 3.7q-7.1 2.2-10.5 1.6c-1.9-.3-5.6-.1-8.2.5s-8.3 1.1-12.5 1.1c-4.2.1-8.4.4-9.2.8-2 1.1-28.3-.5-34-2-5.7-1.4-18.8-5.7-20.1-6.5q-.8-.5-.4-1.4c.7-1.1 6.4-.2 8.2 1.2m324.2 8.4c2.1 1.5 2.3 2.1 1.7 7.5-.6 4.9-.4 6 .8 6.4 5.1 1.6 5.1 1.7-1.6 4.9a52 52 0 0 0-8.9 5.2c-2.1 1.9-2.1 1.9-5.5-2-3.4-4-4.4-8.5-2.5-11.5.8-1.2 1.2-1.2 2.6.3 2 1.9 7.6 1.8 8.2-.1.3-.7-.7-1.5-2.1-1.9-2.9-.7-3.4-2.2-1.1-3 .8-.3 1.7-1.6 2.1-2.7.7-2.5 2.3-4.7 3.3-4.7.4 0 1.7.7 3 1.6M255.2 786c2.9 2.2 8.6 5.6 12.6 7.6 3.9 1.9 7.2 3.6 7.2 3.8 0 .3-2.4.4-5.2.3-2.9 0-7.7.6-10.5 1.5-5 1.5-5.4 1.5-7.7-.3-1.3-1-4-2.1-6-2.4s-4.1-.7-4.6-1c-2.3-1.4-.8-5 3.7-9.2l5-4.3zm118.6.2q1.1 1.2 1.2 2.6.3 2 2 3.9c2.8 3.6 2.5 4.3-1.2 3.7-4.6-.9-13.8-5.1-13.8-6.4s6-5 8.6-5a5 5 0 0 1 3.2 1.2m-135.1 11.7c1.3.6 3.7 1.1 5.2 1.1 1.6 0 4 .9 5.4 2.1 2.1 1.6 3.7 1.9 7.9 1.6a25 25 0 0 0 7.7-1.6c1.9-1.1 2.8-1.1 4.7-.1 1.8 1 3.2 1 6.8 0 5-1.4 12-.6 11.3 1.3-.8 2.6-6.2 3.8-20.3 4.8-8.1.5-15 1.2-15.4 1.4a85 85 0 0 1-25-.7l-5.5-2.2c-2-.7-2-.8-.1-2.2q2.3-1.5.8-2.6c-2-2-1.4-2.6 2.8-3.3 2.2-.4 5-1.7 6.2-3l2.3-2.4 1.4 2.4c.8 1.3 2.5 2.8 3.8 3.4m-10.2-4c-.3.6-2.7 1.3-5.3 1.7-7.2 1-8 1.7-7.8 6.8 0 2.5.6 4.9 1.1 5.4 3.8 3.5 30.9 4.4 55 1.9 13.5-1.4 18.2-2.6 21.6-5.4 1.3-1.1 2.2-.9 5.5 1.3a16 16 0 0 0 9.9 3c3.3.1 9.2 1 13.2 1.8 6.6 1.4 7.4 1.4 10.1-.1s3.6-1.5 8.3-.4c3 .7 6.3 1.1 7.4 1 2-.3 12.6.9 15.8 1.8q1.5.5 1.1 1.5c-.5.7-13.5.8-41.8.3-22.6-.4-41.5-.8-42.1-.7l-70.1.7c-54.7.5-69.4.4-70-.6q-.7-1.3 3.2-4.5c3.6-3.1 4-3.2 6.2-1.8 4 2.6 12 3.6 20.2 2.3 4.1-.6 8.2-1.7 9-2.4 1.2-1.1 3.1-1.1 10.5.1 17 2.5 19.8 1.8 21-5.4 1.1-6.2 1.6-7.3 3.8-8.2 3-1.2 15-1.2 14.2-.1m177.7 7.9c3.7 1.5-3.1 6.2-9 6.2h-2.6l2.2-1.6c1.2-.8 2.2-2.4 2.2-3.5q-.2-2 2.8-1.8c1.5 0 3.5.3 4.4.7m24.4 2.7a37 37 0 0 0 9.5 2.5q2.8 0 2.9 1.4c0 1.9 6.1 4.6 10.7 4.6 3.4 0 8.3 1.8 5.8 2.1-2.9.3-87-.3-87.4-.7-.9-.9.6-1.3 6.4-1.8 29.8-2.8 29-2.7 31.8-7s10.9-4.6 20.3-1.1M100.3 807q.7 3 3.2 4 6.8 2.5-5.7 3.5c-11.5.9-15.3.5-15.3-1.9 0-1.4 1.2-2.2 4.6-3.1 2.6-.6 6.1-2.3 7.9-3.8 3.7-3.1 4.5-2.9 5.3 1.3m241.2-1c.8 1.3-1.5 1.3-3.5 0q-1.9-1.1.7-1c1.2 0 2.5.4 2.8 1m-221 7q.4.9-.4 1-1-.1-1.1-1 0-1 .4-1 .6 0 1.1 1"/><path d="M153.8 54.1c-2.5 1.4-2.3 2.2 1.3 4.8 3.8 2.8 5.3 1.7 3.7-2.7-1.3-3.4-2.2-3.8-5-2.1m8.8 6.6c-1.3 1.4-.5 3.3 1.4 3.3q1.8-.1 2-1.4c0-1.5-2.4-2.8-3.4-1.9m82.5 18c-3.4 4.2-5 9.8-3.2 11.6.8.8 1.9.3 4.3-2 2.4-2.4 3.2-4.2 3.6-8.2.6-6.2-.5-6.5-4.7-1.4m-17.2 4.9c-1.7 2.1.5 6.4 4.4 8.2q5.6 2.7 5.7-2.6c0-5.4-7-9.3-10.1-5.6m-72.2 62.1c-1.3 1.2-.7 4.1.8 4.7 1.8.6 3-1.6 2.1-3.9q-1-2.4-2.9-.8M340 160.5c-.7.9-2 1.3-2.8 1-1.8-.7-3.2 1.1-3.2 4.2 0 2.9 3 3.1 3.7.3q.4-2.3 1.9-.9c2.1 1.7 1.7 3.8-1 4.8-2.7 1.1-4 3.7-2.4 4.7.6.4 1.8-.2 2.7-1.3s2.1-1.8 2.7-1.6c2 .7 3.6-2.4 2.5-4.6-.6-1.1-.9-2.6-.6-3.3s-.1-2.2-.8-3.2c-1.2-1.6-1.4-1.7-2.7-.1m-86.2-58.7c-.7 1-4.1 3.7-7.5 6a55 55 0 0 0-18 24c-2 6.9-1.7 15.4.7 18.5 5.1 6.5 10.9 7.8 23 5.4q9.5-1.9 15.5-13.7c4.1-8.1 4.2-13.1.5-22.5l-4.4-11c-1.9-5.1-2.6-5.8-4.2-4.4-1.8 1.5-3.1.4-1.6-1.4q1-1.4.5-2c-1.2-1.2-3.2-.7-4.5 1.1m9.9 39.4q-.5 1.1-.6-.6t.5-1.3q.5.7.1 1.9m-15.3 17.7c-.3.3-1.3.6-2.2.6-2.3 0-2.2 3.9.1 4.3 1 .2 2.7-.4 3.8-1.4 1.8-1.7 2-1.7 3.2.1 1.1 1.4 1.7 1.6 3.5.6 2.1-1.1 2.5-2.1 2-3.8-.3-.9-9.5-1.2-10.4-.4m88.2 82.5c-2 1.9-3.5 5.6-6.2 15.4q-.4 1.3-2.4.7c-2.7-.9-2.7 2 0 3.7 1.6 1 2 2.4 2 6.9 0 3.1.4 6.9 1 8.5l2 7.2c.9 3.6 1.5 4.3 3.1 3.9 1-.3 2.2-.1 2.5.4 1.7 2.8 4-.6 5.5-8.3 2-10.8 1-34.2-1.7-38.6-1.8-2.8-2.9-2.8-5.8.2m3.8 22.4a104 104 0 0 1-1 20.2c-1.1 2.4-1.2 2.3-2.8-3-2.4-8.2-3-17.8-1.6-25.6 1.8-9.6 2.8-12 4.2-10.6.8.8 1.2 6.8 1.2 19m-176.3 28.5a4 4 0 0 0 0 5.4q1.2 1-.2 3a5 5 0 0 0-.5 3.8c1.1 2.9 3.8-.2 3.1-3.6-.3-1.5-.1-3 .4-3.4 1.6-.9 1.3-5.2-.3-5.8-.7-.3-1.9 0-2.5.6m-3.8 16.3c-.9 2.3 1.1 3.8 2.6 2 1.3-1.6.7-3.6-1-3.6q-.9.1-1.6 1.6m-1.7 6.3c-.9 1.4.4 4.1 1.9 4.1 2.1 0 2.8-1.9 1.5-3.5q-2.2-2.5-3.4-.6m-3.2 20.2c-.8 1.4 1.1 3.3 2.5 2.5 1.6-1 1.3-3.6-.3-3.6a3 3 0 0 0-2.2 1.1m5.1-.2c-.7 1.2 1.2 2.4 2.5 1.6 1.1-.7.4-2.5-1-2.5q-.8 0-1.5.9m59.1-76.7L217 267c-1.2 4.1-3 9.7-4 12.5-4.3 12.4-5 16-2.8 15.3 1-.4 11.4-30.6 12-35.2.3-2.2-2-3.4-2.6-1.4m27.5 27.1q-2.4 2.6.8 2.7c3.8 0 3 1.8-1.7 4.1q-8.3 4.5.7 4.1c4.5-.3 4.5-.3 2.3 1.5-2 1.5-2.1 2.1-1 3.5 1.1 1.5 2.1 1.7 5.7 1 4.8-.8 6.6-3 3.2-3.9-3.5-.9-2.4-2.2 2.2-2.5 5.4-.4 5.7-2.9.5-4.1q-6-1.4-2.4-3.4 1.4-.8 1.8-2.2c.2-1.1-1.1-1.5-5.4-1.7-3.1-.1-6.1.3-6.7.9m89.6 25.2c-1.8 1.7-1.3 4 .8 4.9 1.7.6 3.8-1.8 3.3-4-.4-2.4-2.3-2.8-4.1-.9m1.3 8q-1.4 1.6-.2 2.7c1.5 1.5 4.3-.8 3.5-2.8q-1-2.7-3.3.1M148.4 533.3c-.2.7.2 3.5 1.1 6.2.8 2.8 1.5 6.3 1.5 7.8 0 2 1.5 4.4 5.1 8.3 4.9 5.1 7.9 6.8 7.9 4.3a56 56 0 0 1-12-26.4c0-1.8-2.9-2-3.6-.2M262 552.4c-5.1 1.2-7 2.3-7 3.7q.1.9 2.3.3c1.2-.4 5.7-.7 10-.6 5.8.1 7.7-.2 7.5-1-.8-2.2-7.9-3.5-12.8-2.4m9.7 23.3c-.4.3 3.5 4.7 8.6 9.7a84 84 0 0 1 22.9 35.1 81 81 0 0 1 3.8 13.3c0 1.3.8 3.7 1.7 5.5s2.9 6.6 4.4 10.7l4.4 12c1.2 3.2 1.7 7.6 1.7 15-.1 8.2.5 12.5 2.4 19.5q4.2 15 6.6 12.7 1-1-1.1-5.7c-1.2-2.6-2.1-6-2.1-7.6s-.4-3-.8-3.3-1.2-5.6-1.5-11.8a85 85 0 0 0-7.7-34.3 143 143 0 0 1-5.5-15.5c-1-4.7-5.9-18.9-7.9-22.9-1-1.7-1.4-4.1-1.1-5.1q.8-2.1-.9-1.4-1.4.4-2.8-2a91 91 0 0 0-18.1-20.2c-6.2-4.8-6.1-4.7-7-3.7m-35.3 17.8c-.4.9.5 3.2 1.8 5.3s2.8 4.7 3.2 6c.8 2.5 3.1 2.9 4 .7.5-1.5-5.3-11.7-7.4-13q-1-.4-1.6 1"/><path d="M247.7 598.7c-1.3 1.2-.7 2.9 2.9 8.3a264 264 0 0 1 14.4 28.9c0 .3 1.6 4.6 3.5 9.5s3.5 9.8 3.5 10.9 1.5 3.4 3.4 5.3c3.9 3.9 8.4 4.5 15.6 1.9l4.5-1.5.9 7c.3 3.9 1 7.8 1.6 8.8a24 24 0 0 1 1.5 6.4c.6 4.7 2.9 7.6 9.4 11.8 1.6 1.1 2.3 2.6 2.5 5.5.1 2.2.5 4.5.9 5.1.3.6.9 3.8 1.3 7s1.1 6.8 1.7 7.8c.9 1.8 1 1.8 1.9.1q1-2 1.9-.4c1.7 2.8 3.2-.9 3.3-8.4.1-6.9-.1-7.7-3.7-13-2-3.2-5.6-6.9-8-8.4-5.2-3.3-6.4-4.8-7.2-9.6-.5-2.9-.2-4.6 1.8-8q8.9-15.4-.9-17.3c-2.8-.5-5-.1-8.8 1.6a71 71 0 0 1-9.8 3.3c-4.4 1-4.9.9-7-1.4a69 69 0 0 1-6.7-15.5 222 222 0 0 0-18.3-39.6c-3.9-6.7-4.8-7.5-6.1-6.1m56.7 66c-.1 4-2.4 8.3-4.6 8.3-1 0-1.1-5.4-.2-9.9.5-2.5 1.1-3.1 2.8-2.9 1.8.3 2.1 1 2 4.5m14.1 47.8c.8 8.4-.7 7.8-2.4-.9-1.5-8.2-1.5-9.4.3-7.6.8.8 1.7 4.6 2.1 8.5m-76.1-98.1c-.3.8-.1 3.1.5 5.3s1.1 5.6 1.1 7.8.6 6 1.4 8.5 2.1 7.9 3 12l2.7 12.7c.6 3 .8 7.5.4 10.2q-1.2 8.7 2.1 6c2.4-2 1.5-15.4-1.7-23.4-.4-1.1-1-5.4-1.3-9.5-.4-4.7-1.4-8.7-2.7-10.8-1.5-2.6-1.7-3.8-.9-4.7 1-1.3.7-7.8-.6-12.7-.6-2.2-3.3-3.1-4-1.4m-67.3 2c-1.6 1.9 1.5 14.6 3.5 14.6 1.7 0 1.8-2.6.2-10.2-1.3-6.1-1.8-6.7-3.7-4.4"/><path d="M252.4 622.4c-.4 1.1.2 3.7 1.5 6.2 1.1 2.5 2.1 5.6 2.1 7s1.1 4 2.4 5.7a52 52 0 0 1 7.9 16.3c.3 1.8 1.8 4.9 3.2 6.9 1.4 2.1 2.5 4.6 2.5 5.6 0 2.8 3.6 11.8 5.6 14 2.2 2.4 7.9 2.5 13.5.3 3.9-1.6 4-1.8 3.4-5.3-.4-2-1.1-4.2-1.7-4.9-1.3-1.4-4.4-1.6-5.3-.2-.3.6-1.7.7-3 .4q-4.7-.9-1.8 3.6l1.6 2.3 1.7-2.3c2.2-2.9 5.3-2.1 4.8 1.2q-.2 2.3-3.8 3.4c-4.4 1.5-7.8 0-8.6-3.5a39 39 0 0 0-5.4-14.7 59 59 0 0 1-5-11.7c-1.2-4-3.3-9.1-4.6-11.4a20 20 0 0 1-2.4-5.7c0-1.7-5.4-12.4-7-14q-1-.8-1.6.8m-72.7 26.3c-.4.3-.7 5.4-.7 11.1 0 10.8 1.6 18.2 6 27.7l2.9 7.4c.6 1.8 3.5 7.2 6.5 12 5 7.9 5.5 9.3 6.1 16.1.3 4.1 1.6 9.6 2.7 12.3l2.1 4.7-2.4 2.6a27 27 0 0 1-6.4 4.6c-5.9 3-7.7 4.8-6.4 6.4.9 1.1 1.7.7 4.3-1.9 1.8-1.8 5.3-4.5 7.9-6 5.8-3.5 6.6-6.1 3.8-12.1a29 29 0 0 1-2.5-11.2c-.5-8.5-.7-9-7.3-19a52 52 0 0 1-5.3-9.5c0-.8-.9-3.3-2-5.4-3.7-7.3-6-17.6-6-27.1 0-11.5-1-15.1-3.3-12.7"/><path d="M259.5 653.2c-.4.9-.2 2.5.4 3.6s.8 4.1.5 6.9a13 13 0 0 0 1.5 9.1 21 21 0 0 1 2.1 6.9c.1 1.5 1 5.3 2.1 8.3s2.2 6.7 2.4 8.2a17 17 0 0 0 2.4 6c1.1 1.8 2.7 4.7 3.5 6.5 1.8 4 6.2 7.1 7.8 5.5q1.3-1-1.9-3.9c-5.3-5-5.6-6.5-1.8-9.6a11 11 0 0 1 7.8-2.7c3.7 0 4.8-.5 6.1-2.5.9-1.4 2.3-2.5 3.1-2.5 2 0 1.9-1.9 0-2.7-1.7-.6-5.5 2.3-5.5 4.2s-2.6 2.5-5.9 1.2c-2.7-1-3.2-.8-5.5 1.6-1.4 1.5-2.9 2.7-3.4 2.7-1.5 0-3.2-2.3-3.2-4.4 0-2.4-4.6-17.6-6.9-22.6-.9-2.1-1.6-6.4-1.6-10.7 0-5.5-.4-7.6-1.7-8.9-1.6-1.6-1.8-1.6-2.3-.2m-86.3 41c-2.1 2.1-1.3 9.8 2.4 21.2 3.2 10.2 3.5 11.6 2.4 15.5-.6 2.3-2.3 5.2-3.7 6.4-20.7 17.3-23.4 21-23.6 31.7-.1 6 .2 7.3 2.3 9.5 1.3 1.4 3.2 2.5 4.2 2.5 1.1 0 3.1 1.3 4.6 2.9 4.4 4.8 14.3 8.3 24.8 8.9 7.1.4 9.7.1 12.2-1.2 1.8-.9 3.2-2.1 3.2-2.5 0-.5.3-1.6.6-2.4q.8-1.5-4.2-3.6c-5.8-2.6-8.5-2.6-11.3-.2-1.2 1-3 1.7-4 1.4-2.7-.7-6.4 1.5-5.7 3.4.5 1.2.1 1.4-2.1 1-5.6-1.1-8.3-2.7-10.5-6.2a11 11 0 0 0-5.3-4.3c-5.8-1.6-7.7-11.2-3.7-19.3 1.5-3.1 5.4-7.1 12.8-13.4 14.9-12.5 15.5-14.3 10.3-31.6-2.5-8.1-3-11.5-2.6-15.6q1-8.1-3.1-4.1m22.2 90.4c3.7 2.1 4.4 2.9 3.5 4-2.5 3-12.9 3.8-12.9 1 0-1.2 3.7-7.6 4.4-7.6zm103.2-76.3c-7.2 3.9-8.6 6.6-7.7 15.5.4 3.4.4 6.7 0 7.3-.3.6-2 .8-4.2.4-5.6-1.1-6.5.5-1.6 2.7 7.6 3.4 11.2-.8 9.9-11.4a15 15 0 0 1 .6-7.6c1.2-2.9 3.8-4.7 5.5-3.6 1.9 1.1 4.9-.7 4.9-3.1 0-1.3-.4-2.6-.8-2.9s-3.4 1-6.6 2.7"/><path d="M303.2 716.9c-2.9 3.6-3 4.1-2.8 12.4.1 4.8.8 9.2 1.4 10 .7.8 3 1.7 5.2 2.1 3.1.5 4.3 1.3 5.5 3.6 1.6 3.1 4.5 4.1 4.5 1.5 0-4.4-5.6-9.9-10-10q-1.6.1-1.6-4c0-2.2-.4-5.3-.9-6.8-.6-2.2-.3-3.5 1.4-5.7 4.3-5.9 1.9-8.8-2.7-3.1m-36.2 15c-2.3 1.8-2.5 2.7-2.5 10 0 6.9.2 8.1 1.6 8.1q3.5 0 2.4-7.4c-.4-2.3-.2-5.4.4-7 1.1-2.7 1.4-2.8 5.5-2.2 2.6.4 4.7.3 5-.3.9-1.3-.2-1.8-5.4-2.5-3.6-.5-5-.3-7 1.3m-78.4 7.3c-2.6 6-4.5 7.3-12.8 8.7a19 19 0 0 0-14.4 9.7c-3.4 5.7-3.1 8.9 1.1 13.1 3 3 3.8 3.3 5.1 2.2s1.2-1.5-1.5-3.6c-3.6-2.9-3.9-5.7-1.2-11.1 1.9-3.7 8.7-8.2 12.5-8.2 2.8 0 9-3 11.9-5.8 3.4-3.2 6-7.9 5.2-9.2-1.4-2.3-3.7-.6-5.9 4.2m89.4 11.2q0 1.6 2.8 1.6c1.5 0 3.7.3 4.8.6 2 .5 2.1.7.7 3.5q-1.4 2.9-3.8 2.9c-2.7 0-5.2 2.5-3.5 3.5 1.3.8 7-.3 8.8-1.7q1-1 1.2-2.6c0-.9.9-2.6 2.1-3.8 2-2.1 2-2.3.2-3.2-1-.6-4.4-1.3-7.5-1.7-5-.6-5.8-.5-5.8.9m-104 24.1q-1.4 1.7-.2 2.7c2 2 1.3 3.8-1.2 3.8-1.4 0-2.8.5-3.1 1.1-.9 1.3-.6 1.6 2.7 2.4 3.1.8 7.1-2.5 6.2-5-.4-.8-.1-2.2.6-3s.9-1.9.5-2.5c-.9-1.5-4.1-1.2-5.5.5m10-.1q.2.4 2 .9t2-.4c.2-.8-.9-.9-2-.9s-2 .2-2 .4m6.8 1.3c.6.2 1.8.2 2.5 0q.9-.5-1.3-.5t-1.2.5m12.2.3q.2.9 2.1 1 1.7-.1 1.4-1c-.3-.6-1.3-1-2.1-1s-1.4.4-1.4 1m7 .9c0 1.5 4.2 4.1 6.5 4.1 1.5 0 1.2-.5-1.7-2.5-4-2.7-4.8-3-4.8-1.6m97.1-277.6c-.8 1.1-.7 2.2.6 4.8.9 1.8 2.2 5.8 2.8 8.9.8 4.1 1.6 5.8 3.2 6.5 2 .8 2.3 1.8 2.5 9.5.2 6.9.6 8.5 1.9 8.8 1.4.2 1.7-.9 2-6.5.5-8.8-.4-27.9-1.3-28.9-1.2-1.1-3.7 1.5-4 4.4-.4 2.5-.5 2.3-1.6-1.4-1.5-5.2-4.4-8.1-6.1-6.1M39.9 350.2l-.4 7-.2 6.8h4.8c4 0 5.1-.4 7.3-3.1 5.1-6 2.2-10.9-6.6-10.9-2.7 0-4.9.1-4.9.2m-1.8 21.1c-.6.8-.9 3.7-.5 7.4.3 3.3.6 10.2.7 15.3.2 10.5.5 10.8 8.4 10.9 3.6.1 4.8-.5 8.1-3.7 3.9-3.6 6.2-9 6.2-14.2-.1-4-3.4-10.3-7.4-13.8-3.2-2.7-4.4-3.2-9-3.2-3.2 0-5.8.5-6.5 1.3m174.6 19.3c-1.2 1.2-.8 10.6.8 17.9 4.3 20.5 15.4 36.5 25.2 36.5 2.2 0 5.8.7 7.9 1.6a25 25 0 0 0 16.9-.6c2.8-1.1 2.9-1.2 1.1-2.5q-1.8-1.5-4.3-.4a17 17 0 0 1-11.3-.1c-1-.5-3.7-1.2-6-1.5a24 24 0 0 1-15.2-8.8 82 82 0 0 1-12-32.1c-1.1-9.1-1.8-11.3-3.1-10m51.2 16.3c-1.3 1.1-2.1 2.3-1.6 2.7 1 1.1 7.9-2.4 7.2-3.6q-1.5-2.2-5.6.9m-47.3 30c-.9 1.5 4.9 16.3 8.7 22.3 2 3 5 6.8 6.9 8.4 4.2 3.7 10.5 7 11.4 6.1 1.4-1.3-1.4-5.4-4.8-7-4.6-2.2-9.9-9.6-15.2-21-4.3-9.1-5.7-10.9-7-8.8m28.1 38.8c-1.6 1.5-.4 3.1 4.6 5.6 6 3 12.1 3.5 15.1 1.2a8 8 0 0 1 3.7-1.5c1.9 0 6.9-3.7 6.9-5.1q0-2.4-5.7 1.8-7.2 5.4-18.2-.2c-5.6-2.8-5.5-2.8-6.4-1.8m-139.5 34.5c.3.7 1.3 1.5 2.2 1.6q1.8.4 1.4-1a3 3 0 0 0-2.2-1.6q-1.8-.4-1.4 1M389.5 522c-.8 1.3.3 3 2 3 1.4 0 2.7-2.4 1.8-3.4s-3.1-.7-3.8.4m-3.8 72.7q-1.9 1.6 1.4 3.4c2.8 1.4 4.8-.3 2.9-2.6-1.3-1.6-3.2-2-4.3-.8m-174.5-91.6c.4 1.2 3.6 2.2 18.2 5.4q9.6 2 7.4-.1c-.4-.3-5.5-1.7-11.5-3l-12.7-3q-1.8-.6-1.4.7M103.3 671.5q-2 1.4-.7 2.5c1.6 1.6 4.8.9 5.2-1.1.4-2.3-2.2-3.1-4.5-1.4M418 807.2a30 30 0 0 1-6.3 1.7c-2.1.3-3.9 1-4 1.6-.4 1.8 6.5 1.7 10.5-.1 3.2-1.4 4.5-1.5 7.5-.6 3.9 1.2 6.7.2 4.8-1.7-1.6-1.5-9.8-2.1-12.5-.9M229.5 4.9c-.6 1.1 3.3 4.1 5.3 4.1 1 0 1.2 1.5.6 7.2-.8 8.6-.9 9-3.7 8.6q-2.2-.3-2.5 1.4c-.4 2.2 5.1 3.8 13.3 3.9 3.3 0 9.8.4 14.5.8 9.1.9 12.3.2 11.8-2.7q-.2-1.7-4.8-2.2l-4.5-.5V8.7l4.5-.1c5.9-.1 6.3-2.7.5-3.8-6-1-34.3-.9-35 .1m22.3 11.8-.3 7.8h-9l-.3-7.8-.3-7.7h10.2zM430 178c0 1.6 11.6 3.4 12.5 1.9.8-1.2-.6-1.6-7.2-2.3-3-.3-5.3-.1-5.3.4m17 7c0 .5 1.1 1 2.5 1s2.5-.5 2.5-1-1.1-1-2.5-1-2.5.4-2.5 1m15.5 2q-.4.9.4 1 1-.1 1.1-1 0-1-.4-1t-1.1 1m11.2 2.8q-2.5.4-2.2 1.3c.8 1.2 7.5 1.2 7.5 0s-2-1.7-5.3-1.3m-1.5 30.4c.5 1.5 6.7 1.8 7.1.3.1-.6-1.5-1.1-3.7-1.3q-4-.5-3.4 1M468 323.9c0 1.5 3.1 2.2 6.9 1.4 3.4-.6 3.5-.7 1.1-1.4-3.6-1-8-1-8 0m-43.3 21.7c-1.1 1.1-.8 5.3.4 7.5 1 1.9 1.2 2 3.6.3 1.6-1 5.2-1.8 9.4-2 9.1-.5 9.3-.1 9.2 18.1-.2 22.3-1.6 30-6 33.4-6.9 5.5-11 .4-7.8-9.7.7-2.2.6-2.2-5.1-1.6l-6.1.8c-.6.5 1.9 14.9 2.9 16.5 1.1 1.9 8.8 5.1 12.1 5.1.7 0 3.7-.7 6.5-1.5 6.9-2.1 9.5-6 11.7-17.9 1.3-7 1.5-12 .9-24.5-.6-13.9-.5-15.8 1-17 1.4-1.2 2.1-1.2 4.1-.1q5.7 3 5.3-3.7l-.3-3.8-20.6-.3a211 211 0 0 0-21.2.4m68.8 167.5c-1 1.5.3 2.5 1.6 1.2q1-1 .1-1.7-1-.4-1.7.5m-2.7 5.6c-2.9.7-2 2.3 1.2 2.3q3 0 3-1.5c0-1.5-.9-1.7-4.2-.8m1.2 23.8q.1 1.5 1.1 1.3 1-.4 1.1-1.3 0-1.2-1.1-1.3-1-.2-1.1 1.3m-1.5 12.5c-1.1 1.8.5 2.8 3.2 2.1 3.8-1 4.1-3.1.4-3.1-1.6 0-3.3.4-3.6 1m4.6 10.4q-1.3 1.4-.1 2.1c1.7 1 3.7-1.2 2.4-2.5q-1.1-1.2-2.3.4m-.4 15.3c-1.2 1.1-.8 2.3.8 2.3q1.4-.2 1.5-1.5c0-1.6-1.2-2-2.3-.8m-17.2 4.3q-.4.9 1.5 1c1.9.1 1.8-.5 1.5-1q-.6-1-1.5-1-1.2 0-1.5 1m1.5 9c0 .5 1.1 1 2.5 1s2.5-.5 2.5-1-1.1-1-2.5-1-2.5.4-2.5 1m14.7 9.6c-.9 1 .2 2.4 1.9 2.4q1.3-.2 1.4-1.5c0-1.5-2.1-2.1-3.3-.9m-13.2 4.1c-4.7.6-6 1.2-4.8 2.4 1.4 1.4 9.3 0 9.3-1.7q0-1.2-.7-1.3zm.5 8.3q0 .9.9 1 1-.1 1.6-1 .4-1-.9-1-1.5 0-1.6 1m-3 4.8c0 1.2 2.4 2.2 5.2 2.2q1.8 0 1.6-1.3c-.5-1.4-6.8-2.3-6.8-.9m-2.5 7.1c-1.2 1.2 1.2 2.1 5.6 2.1 6.7 0 6.2-2.3-.5-2.5-2.6 0-4.9.1-5.1.4M495 638q.1.9 1 1 1-.1 1-1t-1-1a1 1 0 0 0-1 1m-24.7 3.3q.4 1.2 8.5 1.2c11.3 0 11.2-2-.1-2.2-6.3-.1-8.7.2-8.4 1m1.7 7.3c0 2.2 12 3.3 15 1.4q3.9-2.3-7.5-2.5-7.6-.2-7.5 1.1m-2.5 7.3q-.4.9.3 1.5c1.3.8 16.8 1 18.1.2q3.7-2.6-8.9-2.6c-4.9 0-9.1.4-9.5.9m2 6.2q-1.8 2.9 8.5 2.6c5-.2 6.5-.5 6.5-1.7s-1.6-1.6-7.2-1.8q-7-.3-7.8.9m-.2 6.5c-2.9 1.3-.8 2.3 7.2 3.5 6.5.9 8.8 1 9.7.1q1.1-1.2.3-2.1a51 51 0 0 0-17.2-1.5m7.7 7.3c-4.1.3-7.5 1-7.5 1.6 0 1.2 12.1 2.8 15.3 2q2.3-.6 2-2.2c-.4-2-.6-2-9.8-1.4m-4 20c-8.3.7-9.6 2.3-2.6 3.1 7.3.9 15-.2 15.4-2.3.4-1.9 1-1.8-12.8-.8m5.8 7.7c-.3.3-4.3.8-8.9 1.2-6.5.5-8.4 1-8.4 2.2 0 1.5 1.4 1.6 14.2 1 5.2-.3 8.1-1.9 6.8-4-.7-1.1-2.8-1.4-3.7-.4m4.8 31.3q-.4.9.9 2.1 3.1 2.8-.6 3-2.3-.1-1.3 1.7c.4 1 .9 3.9 1.2 6.5q.4 4.8 1.7 4.8 2.7.2 2.7-5.3c0-1.7.5-4.6 1.1-6.4.9-2.7.8-3.5-.8-5.3-1.9-2.1-4-2.6-4.9-1.1"/><path d="M478.6 740.9c-.4.5-.3 1.6 0 2.5q.8 1.7-1.7 1.6c-5 0-9.6 2-10.8 4.6-.6 1.4-.9 2.9-.6 3.4q1 1.9-5.5 3c-5.7.9-4.6 3.6 2.4 5.6 4.1 1.2 3.8 2.8-.6 3.2-3.7.3-6.4 2.4-5.4 4 .3.5 2.4 1.2 4.6 1.6 4.6.7 5.4 2.6 1.1 2.6-3.4 0-6 2.5-4.3 4.2.9.9 1.6.7 3-.5 3.5-3.2 6.2-1.7 6.2 3.4 0 3 2.8 2.3 3.2-.9.2-2.1.8-2.7 2.8-2.7s2.5.5 2.5 2.5c0 3.2 2.6 3.3 4 .2q1-2.2 3.8-2.2c4.3 0 11.5-2 12.8-3.7 2.4-2.8-.6-3.7-10.9-3.5-5.3.1-10.9-.1-12.4-.4-5.4-1.1-2.7-2.3 5.7-2.6 4.7-.2 8.4-.7 8.3-1.2-.2-.5-3.5-.8-7.5-.7-11 .3-9.8-1.6 1.4-2.4 11-.7 12.7-1.1 11.8-2.5-.3-.5-2.6-.7-5-.5-4 .4-4.5.2-4.5-1.5s-.7-2-4.4-2c-4.7 0-9.6-1.4-9.6-2.7 0-.5 2.7-.6 6-.5 5.6.4 6 .2 6.5-2.1.4-1.4.4-3.5 0-4.5-.3-1.1-.1-2.3.5-2.7q1.2-.7-.1-2.1-2-2.4-3.3-.5m-2.1 8.1q.4 1-3.2.9c-3.4-.1-3.5-.2-1.3-.9 3.5-1.1 3.8-1.1 4.5 0m14.5 24q0 .9-.7 1l-5.3 1c-4.4.8-13-.4-13-1.9 0-.4 4.3-.8 9.5-.9 6-.2 9.5.1 9.5.8m-55-30.6c0 1.6 1 1.7 9 1.5 4.9-.2 9.2 0 9.6.4.9.9 13 .9 16.2.1 4.3-1.2 2.1-2.4-4-2.2-3.5.1-11.8-.2-18.5-.7-11.3-.7-12.3-.7-12.3.9m57 39.5q-17 4.6-4 3.7c9-.5 11-1.2 11-3.7 0-1-.1-1.9-.2-1.8zm-24.5 4.1c-.7 1.1 1.1 1.4 7 1 6.7-.3 6.5-2-.2-2-3.4 0-6.5.4-6.8 1m-78.2 41.5c-2.6 1.8-3 4.7-1 6.4 1.1.8 1.8.6 3.1-.8 1.9-2.1 6.4-3.3 7.2-1.9.3.5.3 6.5-.1 13.3-.7 11.1-.9 12.5-2.7 13.1-4.1 1.2-1 2.8 6 2.9 8.8.2 10.7-.8 7.1-3.5-2.6-1.9-2.6-2.1-2.1-12.2.2-5.7.9-11.1 1.4-12.1 1.2-2.4 5.3-2.1 7 .5q1.4 2.1 3.1 1.5c2.1-.8 2.2-3.6.3-6.2-1.1-1.6-3.1-1.9-14.2-2.2-10.7-.4-13.3-.2-15.1 1.2m73.7-1-5.1 1q-6 .8-5.9 9 .2 7.3 7.9 7.5c4.5 0 7.1 2.6 7.1 7 0 3.6-1.1 4.8-4.5 5.1q-5.5.6-5.5-3.1-.1-3.6-3.9-2.5-1.9.5-2.5 4.7c-.4 2.2-.4 4.3-.1 4.6.2.3 3.9.4 8.2.4 11.1-.3 15.3-3.8 13.9-11.7-.9-4.7-3.5-7.1-8.5-8-4.8-.8-7.5-3.8-6-6.7 1.4-2.5 4.6-2.3 8.1.7 3.9 3.3 6.8 2 6.8-3 0-1.8-.3-3.6-.8-3.9-1.1-.7-7.5-1.5-9.2-1.1m-430.8 1.2q-2.5.4-1.7 2.1a48 48 0 0 1 2.5 19c0 9.6-.2 10.4-2 10.9q-1.8.6-2 2c0 1.1 1.2 1.3 6.3.7 7.1-.8 7.4-.9 5.9-2.6-.5-.7-1.2-4.2-1.4-7.8l-.3-6.5 5.4-.3c3-.2 5.8.1 6.3.6s1 4.2 1.2 8.3l.2 7.4 4.7.3q7.2.3 3.7-3.4c-.6-.6-1.2-7.5-1.4-15.5l-.3-14.4-3.8-.3c-3.8-.3-7.3 1.6-4.7 2.5.7.3 1.2 2.2 1.2 4.8 0 5.1-1.1 6.1-7 5.9l-4.5-.2.1-7.1V827l-3 .1zm110.3.3c-.4.6-.1 1.8.6 2.6q1.3 1.5 1.5 14.6c.2 13.8.6 14.8 5.1 14.8 1.8 0 2.4-.8 2.9-3.7 1-5.2-.3-26.2-1.7-27.9s-7.5-1.9-8.4-.4m50.5-.1c-1.3.9-1.3 1.2.3 2.3 1.6 1.2 1.8 2.9 1.8 12.5a90 90 0 0 1-.6 14.1c-.6 2.9-.5 3 4.1 3.7 5.1.7 7.8-.5 5.6-2.7-1.3-1.3-1.6-7.8-.6-11.6.5-1.8 1.3-2.2 5-2.2h4.4v16h4.3c5 0 6.2-.7 4.5-2.7-.7-.9-1.2-6.5-1.3-14.8a118 118 0 0 0-.9-14.4c-.8-1.3-4.5-1.4-6.4-.3q-1.4.7-.2 3.8c.6 1.7.6 4.1.2 5.9-.8 2.7-1.3 3-4.8 3l-3.9-.1-.5-6.4-.5-6.5-4.5-.3c-2.5-.1-5.2.2-6 .7m46.4.6c-.4.9-.2 2 .3 2.4 1.1.7 2.8 6.1 2.4 7.6-.2.5-.4 5-.6 9.8s-.9 9.5-1.5 10.2q-2.3 2.9 5.6 2.3l3.9-.3.3-6.6.3-6.7 5.1-.6c6.5-.9 8.4-1.9 10.4-5.7 1.9-3.8 1.1-7.9-2.2-11-2.3-2.2-3.6-2.4-13-2.7-9-.3-10.5-.2-11 1.3m17.9 3.6c2.8 1.5 3.7 2.8 3.7 5.6 0 3.2-3.8 5.4-7.5 4.5-2.6-.7-3-1.4-3.3-4.7-.3-2.9.1-4.3 1.4-5.2 2.2-1.6 2.9-1.6 5.7-.2m14.1-3.7c-.3.8-.1 2.2.4 3.2 1.4 2.6.2 25.7-1.4 26.7q-4.2 2.6 4.5 2.7h5.8l-.1-7.7c-.1-6.5.2-7.8 1.6-8.1q1.6-.4 3.6 4.1c2.2 4.9 8.4 11.7 10.8 11.7s2.9-3 .5-4.6a22 22 0 0 1-6.1-10.8c0-.7 1.4-2.8 3-4.6s3-3.9 3-4.7c0-2.7-2.8-6.9-5.5-8.1-3.9-1.8-19.4-1.6-20.1.2m18.4 4.4c2.9 3.7-.4 8.6-5.5 8-2.5-.3-2.8-.8-3.1-4.1-.2-2.1.2-4.5.8-5.3 1.5-1.7 5.9-.9 7.8 1.4m31.6-4.8c-.9.9-.8 1.9.2 3.9a64 64 0 0 1-.5 26.5c-.8.9-1.1 2-.7 2.4 1 .9 23.9.3 24.9-.7.4-.4 1-2.4 1.4-4.4.7-4.3-1.2-5-4.2-1.7-1.5 1.7-2.9 2-6.9 1.8l-5-.3-.3-4.2q-.4-7.4 3.7-3.8c2.3 2.1 5 1.3 5-1.3 0-7.3-3.1-10.7-5-5.6-1.7 4.3-3.5 2.3-3.5-3.7v-5.4h4c3.2 0 4.2.5 5 2.3q1 2.3 3 2c1.6-.2 1.9-.9 1.7-3.7-.1-1.9-.4-3.6-.5-3.7l-10.7-.9c-7.4-.4-10.8-.3-11.6.5m39.1-.1a10 10 0 0 0-6.3 10.2c.3 3.6.8 4.5 3.6 6.1a13 13 0 0 0 5.5 1.7l4.8-.1c5.9.4 9.6 8.5 4.5 9.8-2.9.7-8.9-1.1-10.6-3.2-2.2-2.5-5-1.7-6.5 1.9-2.6 6.3-3 6 9.2 6.4 10.4.3 11.3.2 13.8-1.9a9.7 9.7 0 0 0 1.2-13.4c-2.3-2.6-3.2-2.9-10.3-3.4-7.5-.5-7.9-.6-8.8-3.3q-1-2.9 0-4.5c1.3-2 6-2.8 7.7-1.4 2.3 1.9 8.4 3.1 9.6 1.9 1.3-1.3 1.5-5.4.3-6.1-1.6-1-15.8-1.6-17.7-.7m61.9.5c-.4.9.1 2.5 1 3.5 1.3 1.4 1.6 4 1.6 13v11.2l-3 1.1c-6.2 2.1-2.7 3.3 9.6 3.2 11.5-.1 11.9-.2 13.2-2.5 1.7-3.4 1.1-6.4-1.3-6.4q-1.9 0-2.5 2.5c-.5 2.3-1.1 2.5-5.5 2.5h-5l.1-3.7c.1-2 .4-4.3.7-5.2.8-2 3.3-1 4 1.6q.6 1.8 2.4 1.6c1.5-.3 1.8-1.3 1.8-5.8 0-4.9-.2-5.5-2.3-5.8q-2.2-.2-2.8 1.2c-1.2 3.3-2.5 1.4-2.2-3.2s.3-4.7 4-5c3.4-.3 3.7-.1 4 2.5q.2 2.9 2.3 2.8c2.1-.1 2.1-1 2.7-3.9q.9-4-.2-5c-.6-.6-5.8-1.3-11.5-1.4-9-.3-10.6-.1-11.1 1.2m60.1 0c-4.9 2.2-7.3 9.8-3.9 12.7.9.8 3.9 2.5 6.8 3.9 6.2 3 8.1 6.7 5.1 10-1 1.1-2.8 2-4.1 2-2.3 0-3.2-.7-5.7-4.3q-1.3-1.7-2.9-1.2c-1.8.7-3.1 6.5-1.7 7.9.5.6 4.3.6 9.9-.1 11.4-1.3 13-2.5 13-9.9 0-5-.1-5.3-3.2-6.3l-6.5-1.6c-1.7-.3-3.7-1.2-4.3-2-1.5-1.9-.9-5.5 1.2-6.9 1.3-.8 2.2-.5 4.2 1.7 4.4 4.7 9 2.8 8.4-3.5l-.3-3.3-6.5-.2c-3.8-.2-7.8.3-9.5 1.1M0 832c0 2.2.5 4 1 4q1-.2 1-1.5c0-1.3.8-1.5 1.8-1.5 3.9 0 4.3 1.3 4.4 13.6.1 6.5 0 12.6-.3 13.4-.3 1.2.6 1.5 4.4 1.6 5.1.2 6.9-1 4.3-2.9-1.4-1-1.6-3-1.4-12.7l.3-11.5 3.1-.3c2.5-.2 3.3.1 3.7 1.8q.6 2.2 2.4 1.8c1.4-.3 1.8-1.3 1.8-4.8v-4.5l-13.2-.3-13.3-.3zm66.7-2.7q-1.4.7.6 2.1c1.5 1.2 1.7 3.1 1.6 15.7l-.2 14.4 10.4-.4c5.7-.2 10.7-.5 11.2-.8.4-.2.7-1.8.7-3.4 0-3.9-2.7-5-4.9-2-1.4 1.8-2.5 2.2-5.7 1.9l-3.9-.3-.3-5.3c-.2-4 0-5.2 1.1-5.2q1.3.2 2.1 1.5c.8 2.3 3.5 1.8 4.1-.8.6-2.1-.9-7.7-1.9-7.7q-.6.2-2.6 2.2c-1.1 1.2-2.2 1.9-2.5 1.6s-.8-2.8-1.2-5.7c-.5-4.5-.4-5.1 1.3-5.1 1 0 2.9-.3 4.1-.6 1.7-.5 2.5 0 3.4 2 1.7 3.7 4.9 3.5 4.9-.4 0-1.7-.6-3.2-1.2-3.5-2.5-.8-20-1-21.1-.2m40.7.2c-.4.9.3 2.3 1.5 3.3 1.8 1.5 2.1 2.9 2.2 13.7.1 10.3-.1 12-1.5 12.3-2.4.5-1.9 3.2.7 3.4 3.9.2 8.2-.3 9.1-1.3q.9-.9-.8-2.8t-1.4-5.8l.3-3.8h11l.3 4.9q.3 4.8-1.2 6.5c-2.2 2.4-1.1 3.1 4.5 3.1q7.7 0 4.9-3.5c-.8-1-1.1-5.9-.8-16.5l.3-15H133c-4.6 0-7 1.4-5.2 3.2.6.6 1.2 3.6 1.2 6.5 0 4.7-.3 5.3-2.4 5.9-1.3.3-3.8.4-5.7.2-3.2-.3-3.4-.5-3.7-4.5-.2-2.6.3-5.1 1.2-6.4 2.4-3.5 1-4.9-5-4.9-3.9 0-5.6.4-6 1.5m59.6-.8a16 16 0 0 0-9.1 9.6c-3.2 11.8 4.4 22.8 15.6 22.6a62 62 0 0 0 9-.7l3.9-.7.1-5.5v-5.5h-7.4q-7.6 0-7.8 1.2-.3 1.3 1.5 1.3c1.8 0 2.6.7 3.3 1.6 1.1 1.4 1 1.8-.5 2.9-4.3 3.2-9.7-2.5-10.4-10.9-.4-5.3-.3-5.7 3.1-9.1q6-6 10-1.4c3.4 3.9 7.3.6 4.2-3.6-1.2-1.5-3-2-7.8-2.2-3.4-.1-6.9 0-7.7.4m135 .8c0 .8 1.1 2 2.4 2.5 2.3.9 2.4 1 2.1 13.2-.1 6.8-.4 13-.6 13.8-.3 1.2.6 1.5 4.1 1.5h4.5l.5-6.5c.3-3.6.3-10.8 0-16l-.5-9.5-6.2-.3c-5.2-.2-6.3 0-6.3 1.3"/></svg>