<svg xmlns="http://www.w3.org/2000/svg" width="666.7" height="1170.7" viewBox="0 0 500 878"><path d="M238 14c-12.9.4-15.5.8-15.5 2s1.4 1.6 5.2 1.8c2.8.2 5.6.8 6.1 1.5s1.2 6 1.4 11.9c.3 11.8 0 12.4-6.1 11.2-3.2-.7-7.9 2.6-6.7 4.5.6 1 3.7 1.1 13 .5 16.5-1 44.8-.6 48 .6q2.5.9 2.6 0c0-.5 1.6-1.2 3.5-1.6 2-.4 3.5-1.2 3.5-2 0-1.9-1.3-2.3-9.1-3.2-3.5-.4-6.4-1.2-6.3-1.7q-.2-1.1-2.3-2.8c-1.3-1-2.8-2.7-3.4-3.8-1.1-2.2-.3-6.2 1.2-5.4q.8.4.9-1.1a12 12 0 0 1 2.6-5.1c2.3-3 3-3.3 7.8-3.3 3.9 0 5.7-.5 7-1.9 1-1 1.4-2.1.9-2.4-1-.6-31.7-.4-54.3.3m30.5 4.6c1.4.6 1.4.8-.1 2.5-1.6 1.8-1.8 1.8-3.6.3q-1.7-1.7-1.8-2.6c0-.9 3.1-1.1 5.5-.2m-11 5.9c3.4 4.9 3.6 5.8 2.6 8.3-2.1 4.9-6.9 9.2-10.4 9.2-1.8 0-3.7-.4-4.3-.8a75 75 0 0 1-1.6-21.7c.3-.3 2.6-.5 5.2-.5 4.5 0 4.8.2 8.5 5.5m9.5 15.1q-.2 1.3-2 1.4-3.4 0-.8-2.8c1.3-1.3 2.8-.7 2.8 1.4m-18.5 16.8c-5 2-6.4 2.2-8.5 1.2-4.4-2.1-10-1.2-14.9 2.6-1.3 1-4.8 2.5-7.7 3.4s-7.2 3-9.6 4.9a19 19 0 0 1-5.5 3.5c-.6 0-2.1 1.2-3.3 2.7-1.6 2.1-2.9 2.7-5.2 2.4q-2.9-.1-4.9 1.5c-2.3 2.1-3.2 1.4-4.7-4.2-1.5-5.1-4-7.4-8.9-8.1-6.1-.8-7.8 1.8-8 12.5-.1 4.7-.5 9.2-.8 10-.5 1.5 3 25.7 6.1 41.1q3.5 18-1.8 9.1c-.9-1.7-2.4-3-3.3-3s-2-1.1-2.4-2.4q-1-2.3-5.3-3.6c-3.7-1.2-5.1-2.5-10.7-10.2a68 68 0 0 0-8.8-10.3c-1.3-.9-3.5-3.4-4.9-5.6-1.4-2.3-3.4-4.4-4.5-4.6q-2-.5-1.4-2.4c.4-1.3-.8-3.2-4.3-6.6a39 39 0 0 1-7.1-9.1c-1.2-2.3-2.6-4.2-3.1-4.2a18 18 0 0 1-4.9-2.6c-3.3-2.1-4.9-2.5-9.8-2.3-3.2.2-6.7-.2-7.8-.8-4.7-2.5-10-4.4-18.2-6.4-8-1.9-9.5-2-16.3-.8a32 32 0 0 0-17.2 6.6l-6.3 4.6c-3.1 2.2-3.1 4.1-.1 10.1 1.3 2.7 2.7 5.9 3 7.2.4 1.3 1.1 2.4 1.7 2.4s2.5 1.6 4.2 3.5 4.8 4.3 6.7 5.3c1.8.9 3.5 2.2 3.7 2.9s-1.2 2.7-3.2 4.6c-3.1 3-3.6 4-3 6.5.5 2.6.3 3-2.7 4.1a56 56 0 0 0-19.3 10.9c-.5 1.2-1.3 2.2-1.6 2.2A47 47 0 0 0 13 151.4c0 4.9 2.6 9.3 5.8 10.1 1.7.3 3.6 1.3 4.3 2.1.8 1 1.2 8.8 1.4 26.7.1 13.8.6 26 1 27 .9 2.1-1 6.3-3.2 7.2-2.7 1-3.3-.6-1.3-3.4 1-1.6 1.7-3.1 1.4-3.4-1.1-1.1-4.4.6-4.4 2.4 0 1-1.6 3-3.5 4.5-2 1.5-3.3 2.9-3 3.2q.7.3 2.8-1.6c3.1-2.9 3.7-2.8 3.7.8 0 3.7.8 3.8 3.5.3 3.5-4.3 6.4-.2 3 4.3-3.6 4.8-.1 11.7 7 13.5a64 64 0 0 0 31 1.5c16.1-2 19.8-2.9 24.2-6.5 3.9-3.1 5-6.7 2.8-9.1-1-1.1-1.9-4.4-2.2-7.8-.5-5.4-.3-6.1 1.6-7.1 2.4-1.3 2.8-3.1.6-3.1-1.6 0-2.1-1.8-2.9-10.3-.4-4.5-.1-5.9 1-6.4 1.3-.5 1.3-.8.1-2.2q-1.5-1.6-1.6-10.1c0-4.7-.4-10.9-.7-13.8-.5-4.3-.4-5.2.9-5.2.9 0 3.2-1.4 5-3 1.9-1.7 4-3 4.6-3 1.4 0 1.4-3.4.1-8.2a15 15 0 0 0-4.9-6.9 22 22 0 0 1-5.5-6.8c-2.9-6.2-16.3-16.1-22.1-16.1-1 0-1-.7-.1-3.3.6-1.7 1.7-4.2 2.4-5.4s1.2-3.6 1.2-5.3c0-2.4.6-3.3 2.7-4.1 1.6-.6 3.8-.8 5-.6a6 6 0 0 0 4-.9c3.6-2.7 7.1-1.2 3.8 1.6-1.9 1.6-1.9 7.4 0 9q1.3 1.3 1.5 2.5c0 1.8 3.4 4.5 5.7 4.5 1.7 0 2.2 1.1 3.3 7.2a42 42 0 0 0 2.6 9.5 10 10 0 0 1 1.4 4.7c0 1.4.9 3.1 2 3.9 1 .7 2.3 3.1 2.8 5.3a31 31 0 0 0 2.5 6.9c4.2 7.9 4.8 9.9 3.7 12s-.9 15.4.5 32.5c.3 3.6.5 15.3.5 26 .1 20.2 1.2 28.3 4.5 31 1.4 1.1 1.7 1 2.2-.8q1.4-4.6 2.7.8.5 3.2 2.3 2.8c1.6-.3 1.8.4 1.5 5.2-.4 7.3.4 10 2.9 10 2.9 0 3.2 1.9 1.4 8.6-1 3.5-1.8 12.1-2.1 21.7-.7 18.8-.3 19.8 7.8 21.7a75 75 0 0 1 16 5.6c1.4.8 3.8 1.4 5.2 1.4 3.1 0 6.6-3.2 6.6-5.9 0-1.1.5-2.3 1-2.6 1.5-.9 1.2 10.1-.5 23-1.1 7.5-1.5 18.8-1.4 35.5v25.5l-.7 23.5c-1.1 38.1-1.3 34.5 1.9 34.8q4.7.4 6.1 10.1 1.2 8.3 4.5 8.1c1.5 0 1.8 1.1 1.9 8.7a386 386 0 0 0 3.2 41.6c.5 1.5 1 13.2 1.1 26 .1 23.1 1.3 34.5 3.7 36.9.6.6 1.2 1.7 1.2 2.3 0 1.7 3.2 4.3 6.8 5.6 2.9 1 3.7.8 7.9-2q7.5-5 10.1-1.9c.5.7 1.5 11.6 2.1 24.3L211 669c.6 9.6 1.5 28.1 2 41s1.5 31 2.1 40.1c1.6 23.6.8 26.4-6.9 22.6a51 51 0 0 0-8.7-2.7c-3.3-.7-6.8-1.7-7.8-2.2-2.1-1.1-7.8-6.2-14.7-13.2-4.2-4.2-5.2-4.8-7.7-4.1-3.4.8-6.3 3.3-6.3 5.3 0 2.6-4.2 8.6-9.6 13.6-4.1 3.7-6.3 4.9-9.1 5.2-7.2.5-10 1.4-12.3 3.9-1.3 1.4-2.8 2.5-3.4 2.5-.5 0-1.9.8-3 1.8-5.4 4.8-22.2 8.1-28.4 5.6a67 67 0 0 0-21-3.9c-1.8.2-4.7 1.1-6.4 2-4.3 2.1-4.9 2-13.6-2.1-17.8-8.4-23.8-9.5-29.3-5.3a31 31 0 0 1-8.4 3.9A57 57 0 0 0 0 792c0 1.5 1.6 1.2 7.2-1.5 8.8-4.2 11.6-3 5.2 2.3-5 4.1-2.6 5.1 3.9 1.5 2.9-1.6 6-2.7 7-2.5 2.7.6 6.7-2.5 8.3-6.5 1.2-2.6 1.9-3.3 3.2-2.8L39 784c1.4.4 5.8 2.1 9.7 3.9s9.8 3.7 13.1 4.5c5.9 1.4 6.1 1.3 9.6-1.2l3.6-2.5 9.3 2.3a54 54 0 0 0 29.6 1q16.8-4.1 21.1-8.5c1.9-2.1 2.8-2.3 7.6-1.8l5.5.6 8.2-8.4c4.6-4.6 9.6-10.1 11.3-12.2l2.9-3.9 6.7 6.1a42 42 0 0 0 23.1 11.2c3.1.7 5.7 1.6 5.7 2 0 .7-5.3 3.9-14.1 8.5q-5.4 2.9-6.1 7.4-.2 2.5-3.3 3.3a50 50 0 0 0-17.8 9.7 31 31 0 0 1-6.8 4.8c-2.4.9-15.7 1-108.6 1.1L0 812v4.3l83.8-.6c46-.4 147.2-.9 224.7-1.2s146.4-.8 153-1c6.6-.3 18-.5 25.3-.5 11.3 0 13.2-.2 13.2-1.6s-3.5-1.5-31.2-1.3l-31.3.2-10.5-4.2a40 40 0 0 0-15.2-4.2c-5.6.1-15-4.5-23.7-11.6-5.5-4.5-5.5-4.5-5.7-10.4-.1-5 .2-5.9 1.8-6.5 1.1-.3 4.4-2.6 7.4-5 6-5 7.9-5.1 12.4-.8 3.5 3.2 23 8 26 6.4 1.7-.9 2.9-.9 5.1 0 3.2 1.4 11.7.7 15.3-1.2 1.2-.6 4-2.9 6.4-5 3.7-3.4 4.7-3.8 7.5-3.3 1.8.4 4.3 1.5 5.7 2.4 1.4 1 3.6 2.2 4.9 2.6a28 28 0 0 1 5.8 3.1c2 1.3 4.5 2.4 5.7 2.5 1.2 0 4.7.4 7.9.8 5.4.7 5.8.6 5.5-1.3q-.3-2-3.3-2.6c-1.7-.4-8.9-3.7-16-7.4-10.8-5.6-13.5-6.6-16.2-6.1-5.2 1-10.3 3.4-11 5.3-.8 2.2-6.4 8.2-7.7 8.2-.5 0-3-1-5.4-2.1-4-2-4.8-2.1-9.7-.9-5.1 1.2-5.5 1.2-10-1.4-4.5-2.7-21.9-9.6-24.2-9.6-.6 0-3.8 2.2-7 4.9-5.2 4.3-6.4 4.9-11.9 5.3-6 .6-12.4-1-12.4-3 0-.5.5-2.3 1.1-4.1 1.1-3.2.3-23.8-2.2-57.5l-1.4-20.5c-.4-6.6-1.4-99.1-2-173.1-.1-21.7-.8-55.5-1.4-75l-1.3-40c-.1-2.5.2-7.2.5-10.5l1.2-12.5c.4-3.6.2-13.9-.3-23-.6-10.1-.7-21.4-.1-29.3.5-7 1.1-36.1 1.3-64.5s.5-52.2.7-52.7-.1-4-.5-7.7a24 24 0 0 1 1.4-13.4c1.9-5.5 2.1-7.9 1.6-13.7-1.2-13.3-5.5-26.8-9.2-28.9-.7-.5-2.2-2.9-3.4-5.4a18 18 0 0 0-6.2-7 17 17 0 0 1-4.4-3.8c-.6-1.6-8.8-7.1-13-8.6-1.6-.6-6.7-1.2-11.4-1.3q-13.9-.1-15.4-6.4a26 26 0 0 0-6.1-7c-3-2.6-5.5-5.6-5.5-6.5s-1.3-3.3-3-5.1c-1.6-1.9-3-4.3-3-5.4a5 5 0 0 0-1.2-3.1c-.8-.8-.9-2.1-.1-4.9 1.7-5.9 2.6-18 1.5-18.7-.6-.3-7.3-.8-14.9-1.1-12.7-.4-14.3-.2-19.8 1.9m18.3 4.2c8.9.6 10.2.9 10.2 2.4 0 3.9-1 4.9-4.6 4.3-4.5-.7-4.4.9.2 2.6q3.7 1.3 2.6 2.3-1 1.2-4.4-.3c-3.4-1.4-16.6-2-17.4-.7-.5.8 5.8 4.2 9.9 5.2q4.9 1.2.6 3.7c-2.3 1.2-7.6.5-12.4-1.6-6.2-2.7-15.6-4.3-18.6-3.1-1.6.6-2.9 1.4-2.9 1.9 0 1.3 6.7 3.7 10.6 3.7 4.6 0 17.5 5.2 23.4 9.4 4.6 3.3 4.7 3.3 6.9 1.5 2.1-1.7 2.5-1.7 5.3-.3 3 1.5 3 1.7 2.5 7.1-.3 3-.9 5.8-1.2 6.1-.3.4-1.7-.8-3.1-2.5q-4.2-5.4-6.5.4-.8 2.6-3.1 2.1c-3.2-.4-3.5-3.7-.7-5.9 2-1.5 2.2-2 1.1-4.3Q264 92 261.8 92c-1.3 0-5.6-1.4-9.7-3-7.5-3.1-22-7.2-25.6-7.3-8.4-.3-12.8 1.4-6.7 2.6 7.3 1.5 20 5 23 6.4 1.7.9 3.2 2.2 3.2 3 0 1.8-8.4.7-11.9-1.5-2.2-1.5-2.5-1.4-3.8.4q-1.4 1.7-2.5 1.6a8 8 0 0 0-2.9.3q-6.2 2.1 7.8 2.4c10.6.2 14.6 1.5 15.1 4.9.4 2.8 1.8 2.8 3.3.1.8-1.6.8-2.8 0-4.5q-1.8-4.2 2.5-.6c1.6 1.2 2.3 3.2 2.6 7 .3 2.9.2 5.5-.3 5.7s-2.9-.5-5.6-1.6c-9.7-4.4-30-6.5-27.8-2.9q.7.9 3.1-.2c2-.9 3.1-.8 6.2.9 2 1.2 6.2 2.6 9.4 3.2 3.5.8 7.2 2.4 10 4.5 2.3 1.8 7.7 5.1 11.9 7.3l7.5 4 2.4-1.9c1.8-1.5 3.4-1.8 5.8-1.4 3.5.5 10.2 5 10.2 6.7 0 .5-1.3 0-2.9-1.2s-3.9-1.9-5.2-1.7c-2.8.4-4 3.8-1.3 3.8 1 0 2.8 1 4.1 2.2 2.1 1.9 2.7 2.1 4.4.9 1.7-1 2.4-1 3.7.1 1 .8 4.7 2.7 8.4 4.2 8.9 3.7 10 5 5.8 7.3-5.6 3.1-7 4.8-6.4 8.5.5 2.5.1 3.8-1.4 5.1-1.9 1.8-2 1.8-1.8 0s-.1-1.9-4.6-.8c-2.4.6-3 .2-5.8-4.7l-4-6.8c-.5-.8-1.1-2.3-1.4-3.3s-1.4-2-2.3-2.4c-1-.3-4.1-2.5-6.8-4.9a47 47 0 0 0-8.9-5.8c-2.1-.9-5.1-2.7-6.8-4.1a10 10 0 0 0-4.7-2.5c-1 0-2.9-.8-4.2-1.8a16 16 0 0 0-5.2-2.6 31 31 0 0 1-7.5-4 52 52 0 0 0-20.7-8.2 48 48 0 0 0-9.5.8c-3 .6-6.2 1-7 1s-2.8.4-4.3 1c-4.2 1.6-5 .1-4.8-8.9.3-18.5.5-19 7.7-17.5 6 1.3 7.2.8 7.6-3.1.2-1.8.8-3.1 1.3-3s2.4-1.1 4-2.6 4.6-3.4 6.5-4.1 6.2-2.7 9.4-4.3c5.4-2.6 6.6-2.9 12.5-2.3 5.1.4 7.7.1 11.6-1.3 2.8-1.1 5.7-1.7 6.5-1.6.8.2 6.1.7 11.8 1.1M73.5 69.3c8.2 1.4 23.2 7.8 24.2 10.4.3.7 1.4 1.3 2.5 1.3 1.8 0 2 .5 1.6 4.7-.6 6.1-3.7 12.7-6.2 13.1q-2 .4-5.2-3.4l-3.3-3.9-4.9 2.7c-5.1 2.9-9.6 3.6-10.7 1.8-.3-.6-1.6-1-2.8-1-2.3 0-4.7-2.8-5.8-6.7-.9-3 2.8-3.8 8.1-1.7 3.4 1.4 4.8 1.4 8.8.5 10.7-2.6 12-4.1 6.6-7.2q-5.4-3.3-4-.4.8 1.4-3.7 2.5l-5.3 1.5c-.6.1-3.2-.8-5.8-2.1-3.6-1.8-5.7-2.3-8.5-1.8-5.3.9-11.4-1.8-10.9-4.8q.3-2.2 3.8-3.4l6.5-2.2c4.1-1.4 5.8-1.4 15 .1m103.8.7c3.3 2.6 5.8 13.8 6.3 27.5A77 77 0 0 0 185 111c.5 1.9 1 6.4 1 9.9s.7 12.2 1.6 19.3 1.4 13.1 1.1 13.4c-.9.9-8.7-.7-8.7-1.8 0-.5 1-1.2 2.1-1.5 2.2-.6 2.1-.6-.2-2.4s-2.3-1.8-.4-3.9 1.9-2.1-.3-2.7c-2.5-.6-2.9-2.1-.7-2.9 2.1-.8 1.9-2.1-.5-2.9-2.5-.8-2.7-4.5-.2-4.6q2.1 0-.4-.9c-2.3-.9-3.8-3.6-2.8-5.1q.6-.8 1.5-.3c1.3.7 4.1-1.5 3.3-2.7q-.7-.8-2.8-.9c-2.3 0-2.3 0-6.1-13.9-1.2-4.1-1.3-5.7-.4-6.8s.9-1.6-.3-2.6c-2.5-2-2.8-4.4-.8-6.2 1.5-1.4 1.7-2.1.8-4.1-.8-1.7-.8-2.7.2-3.9s1-1.8 0-3-1-1.9-.2-2.7c1.7-1.7 1.5-2.9-.5-2.6-1.9.3-3-3-1.9-5.8.8-2 4.9-1.7 7.9.6M103 76q1.2.9.8 1.6c-1 .9-3.8-.3-3.8-1.6q0-1.9 3 0m-58 1.5q0 1.3-1 1.5c-1.5 0-1.2 2.1.5 4 1.4 1.6 1.2 1.8-2.7 2.3-3.4.5-4.7.2-6.3-1.4-1.9-1.9-1.9-1.9.2-1.9 1.3 0 3.1-1.3 4.3-3 2.3-3.2 5-4 5-1.5m229 7.3c0 1.3-1.2 2.2-2.2 1.6s-.1-2.4 1.3-2.4q.8.1.9.8M51.9 91.4c.2 3.5-1.1.8-1.5-3.1q-.5-4.6.5-1.3c.5 1.4.9 3.4 1 4.4m54.5 1.5c-3.9 6.9-4.8 6.4-1.6-.9 1.5-3.4 3-5.6 3.5-5.1s-.3 3.1-1.9 6m176.8-3.2c1.8 1.6 2.5 4.3 1.1 4.3-1.2 0-4.3-3.3-4.3-4.7q0-2.7 3.2.4M47 91q-.2.9-1.5 1c-1.3.1-1.5-.5-1.5-1q.2-1 1.5-1c1.3 0 1.5.4 1.5 1m67 .4c0 .7-.7 1.9-1.5 2.6s-1.5 2.1-1.5 3.2c0 1 .7 2.1 1.5 2.4 2.1.8 1.9 4.1-.5 7.1-1.9 2.5-1.9 2.7-.3 4.5s1.6 2.1 0 4.7a13 13 0 0 0-1.7 4.9c0 1.1-.7 2.5-1.5 3.2s-1.5 1.9-1.5 2.8c0 1.1.8 1.3 3.5.9q5.9-1 1.8 3.6c-1.7 1.8-1.7 2 .2 3.3a6 6 0 0 1 2.1 4.2l.3 3.5c.1.4 1.3.6 2.8.5 2.7-.3 2.8-.2 3 6.2.1 3.6.4 9.8.7 13.7.3 4 .2 7.3-.2 7.3-1.9 0-9.2-8.2-9.2-10.4 0-1.3-1-3.6-2.1-5.1-1.6-1.9-2.4-4.8-2.9-10.1-.8-7.9-3-12.7-5.5-11.8-1.8.7-3.1-2.4-3.6-8.1-.3-3.1 0-4 1.1-4q1.4 0 1.3 2.2c-.3 2.4 2.1 4.8 3.7 3.8q1-.6-.1-2.6c-.8-1.6-.7-2.5.6-3.9a5 5 0 0 0 1.1-4.5c-.7-2.9-1.7-3.1-4.9-1.1a14 14 0 0 1-5.2 1.8c-2.4.2-3-.1-3-1.7 0-1.7.9-2.1 5.9-2.7 3.2-.4 7-1.5 8.4-2.4 2.2-1.4 2.4-2.1 1.8-6-.4-3.4-.1-5.5 1.6-8.9 2.2-4.5 3.8-5.8 3.8-3.1m-55.7 1.3c-.7.2-1.9.2-2.5 0q-1-.5 1.2-.5c2.2 0 1.9.2 1.3.5M55 98.1c1 1.8.9 2-.7 1.7q-1.7-.5-2.1-2.1c-.5-2.4 1.5-2.1 2.8.4m66.7 1.1q-.5 1.1-.6-.6t.5-1.3c.3.3.4 1.2.1 1.9m6.7 3.3q-.7 1.3-1 1.5-.3-.2-.4-1.5c-.1-1.3.4-1.5 1-1.5q.8.1.4 1.5m-69 4.3c.4 2.4.2 3.4-1 3.9-2.2.8-4.2-1.3-2.6-2.9.7-.7 1.2-2.3 1.2-3.7 0-3.3 1.6-1.5 2.4 2.7m232.2-1c3.3 2.6 4.4 5.5 2.5 6.6-.5.4-3.2-.5-6-1.9-4.5-2.3-5.1-3-5.1-5.7s.2-3 2.6-2.4c1.4.4 4.1 1.9 6 3.4M102 104c0 1.1-4.8 2.5-5.6 1.7q-.6-.6.1-1.6c.8-1.4 5.5-1.4 5.5-.1m-38.4 6.6c-.6 1.6-2.6 1.9-2.6.5 0-.5.5-2.2 1.2-3.8 1.1-2.7 1.2-2.7 1.6-.5.2 1.3.1 3-.2 3.8m25.1-2c-.9.9-2.8-.6-2.1-1.8q.6-1 1.7.1 1 1 .4 1.7m129 2.8c1.5.9 6.4 2.7 10.8 4.2 4.4 1.4 9.8 3.7 12 5.2s6 3.4 8.5 4.3c11.1 3.9 14.9 7 13.5 10.6-.5 1.4-1 1.2-3.3-1-2.7-2.6-5.2-3.5-5.2-2 0 1.3 7.8 7.3 9.4 7.3 2.2 0 2 2.3-.2 4.4-1.8 1.5-2 1.5-3.7-.4-1-1.2-2.5-1.8-3.3-1.5s-2.4-.3-3.5-1.2q-2.7-2.7-.8.5c1.3 2.5.7 4.2-1.6 4.2q-1.7-.1-.9 2.2l.6 3c0 .6 6.3 3.8 7.4 3.8l.1-3.7c0-4.8 1.9-5.5 2.3-.9.2 2-.7 6.1-2.2 9.9-2.9 7.1-3 7.7-1.6 7.7q1-.1 1-1.4c0-.7.9-3.5 2.1-6 1.1-2.6 2.1-6.7 2.2-9.2s.7-4.4 1.3-4.4c1.7 0 3.4 2.3 3.4 4.8 0 1.3.9 3.5 2 4.9q3.7 4.7.1 8.4c-1.6 1.7-2 1.8-3.1.4-1-1.2-.9-1.6.9-2.3 2-.7 2-.8.2-3.6l-1.9-2.8-2.6 3.8q-5.2 8 .2 10.2c1.5.6 3.6 1.2 4.6 1.4 2.5.4 4.1 3.1 3.2 5.3-.6 1.7-.8 1.7-2.7-.1-2.1-1.9-2.1-1.9-1.5 1.3.6 2.6.1 4-2.8 8.3-2 2.9-3.6 6.1-3.6 7.1 0 1.9-2.5 3.7-3.7 2.6-.3-.3.2-2.7 1.1-5.3 2.2-6.5 2.1-7.8-.4-6.4q-2 1.2-2 0c0-.6-1.6-2.4-3.5-4.1a13 13 0 0 1-4.1-6.5q-1.2-5.6-2.8-1.8c-1 2.6-.7 3.3 2.4 6.6 3.3 3.4 3.4 5.4.4 5.1q-2.4-.4.4.9 2 1 2.2 2c.2 1-1 .8-2.2.6-2.9-.4-5.6-7.9-5.7-16.1-.1-3.1-.5-5.7-1.1-5.7q-.9.2-1 2c0 1-.7 2.3-1.6 2.8-1.5.8-1.4 1.2.5 3.9 2.6 3.4 2.6 10.8.1 10.8-1.1 0-1.4-1-1.2-3.8.3-3.1-.1-4.2-2.7-6.6q-5.5-5.1-.9-5.1c2 0 2.1-.1.6-1.6-2-2-5.8-1-5.8 1.5 0 .9 1.4 3 3 4.6 3.7 3.6 4.2 6.3.7 4-2.2-1.4-2.6-1.4-5 .5q-2.6 2.1-3.2.9c-.4-.6-1.8-.8-3.2-.4-3.7.9-6-.2-7.8-3.8-1.4-2.9-1.4-3.3 0-4.3s1.2-1.3-1-1.8c-4.2-1.1-3-2.9 1.5-2.1 3.6.6 4 .5 4.5-1.8.4-1.4.1-3.5-.5-4.7a11 11 0 0 1-.6-6.2l.7-4-3 .7c-2.9.6-3.2.4-6.2-5.8-2.6-5.2-3.1-7.1-2.5-10.1.7-3.6.8-3.7 2.5-2.2 2 1.8 5.7 2.1 6.6.5 1.1-1.6 1.7-6.9.9-6.9q-.8.1-2.5 1.6c-1.4 1.3-2.1 1.3-4 .3l-2.3-1.2 2.3-1.8a8 8 0 0 1 4.4-1.9c2 0 2-.1.4-1.7-1.7-1.7-2-1.7-6.5.9s-4.7 2.9-4.7 7c0 2.4-.5 4.3-1.1 4.3-2 0-10.4-10.5-10.4-13 0-1.4-.6-3.4-1.2-4.5q-2.7-4.4 5.3-6.7c5.7-1.6 18.9-1 22.6 1.1m-84.7 6.9c0 1.3-3.8-1.2-5.4-3.5-3.1-4.3-1.6-5.3 1.9-1.3a27 27 0 0 1 3.5 4.8m145.5-3.8c2.8 1.3 2.5 1.3-5.2 1.3-10.8 0-11-2.2-.3-2.6a13 13 0 0 1 5.5 1.3m-160.9 7.2c-1.1 1.1-1.7-.4-.9-2.3s.8-1.8 1.1-.1c.2 1 .1 2.1-.2 2.4M292 120c2.3 1.2 4.3 4.7 3.2 5.4-1 .6-6.2-4-6.2-5.4 0-1.3.7-1.2 3 0m-233.2 3.1q.5 1.7-3.5 2.2c-4.4.7-6.2-.5-4.3-2.8 1.7-2.1 7.4-1.6 7.8.6m78.5 3.9q2-.2.7 1.9c-.8 1.6-1.3 1.8-3.5.8-3.3-1.6-4.3-4.2-1.3-3.3 1.3.3 3.1.6 4.1.6m193.2 5.4c4.5 1.6 5.6 4.3 1.5 3.8-2.6-.4-6-2.9-6-4.4 0-1-.3-1 4.5.6m-181.7 2.4q.4 1.4-1.4 1c-.9-.1-1.9-.9-2.2-1.6q-.4-1.4 1.4-1c.9.1 1.9.9 2.2 1.6m174.1 1.8c1.2 1.1-1.4 1.9-5.3 1.6-4.6-.4-6.1-1.7-2.8-2.5 1.6-.5 7.3.2 8.1.9m-272.9.8c0 1.4-5.9 2.6-13.4 2.6-2.3.1-6.5.9-9.4 1.9s-5.5 1.4-5.8 1c-1-1.6 4.7-4.1 12.3-5.4q16.3-2.7 16.3-.1m19.8.2c1.7.3 3.2.9 3.2 1.4 0 1.3-17.7 1.3-18.5 0-1.9-3 2.4-3.4 15.3-1.4m14.1 3c2.3 2.1.7 2.6-3.8 1.4-3.9-1-4.8-1.9-3.5-3.3 1-.9 5.6.3 7.3 1.9m264 2.1c1.9 3 2.1 4 1.2 5.6-.9 1.4-.9 2.2 0 3.3q1.2 1.5.2 2.5c-1 1-1.9-.4-3.8-3.6-2.1-3.7-2.5-5.4-2-8.1.3-1.9.9-3.4 1.3-3.4s1.8 1.7 3.1 3.7m-26.4-.5q5.5 2.5-1.7 2.4a16 16 0 0 0-9.3 3.1c-4.6 3-6.5 3.3-6.5 1.3 0-1 11.9-8 13.7-8 .7 0 2.4.5 3.8 1.2m-191.6 20.5-.2 19.8-1.3-9a60 60 0 0 1-.7-14c.3-2.8.5-6.2.4-7.8-.3-2.8.7-8.7 1.5-8.7.2 0 .3 8.9.3 19.7m205.8-17c1.8 3 8.5 11 13.1 15.9 2.2 2.2 3.1 4.4 3.7 8.5.4 3.1 1.5 6.3 2.6 7.5 1.9 2 1.9 2.1-.1 7.9a23 23 0 0 0-1.1 13.2c.5 4.4.6 15.7.1 27.6a1396 1396 0 0 0-.8 55.2c0 19.2-.3 39.3-.7 44.5-.5 5.2-.9 19.8-.9 32.5a246 246 0 0 1-1.5 31.2 76 76 0 0 0-.3 22.5c2.4 29 3.5 127.7 1.5 131.3-.9 1.5-1.1 1.4-2.1-1.4-1.2-3.5-4.7-4.5-3.8-1.1l1.2 4.1q.6 1.9 2 1.5 1.4-.5 1.4 1.4 0 2-1.9 2c-1 0-2.4.7-3.1 1.5-1.2 1.4-1.5 1.4-3.1-.1q-1.8-1.7-1.9-3.1c0-2.4-6.7-4.4-15.9-4.6-9.9-.2-12.9 1-11 4.5.8 1.6 1.9 1.9 5.2 1.7 2.3-.2 7.3.1 11 .5 6.5.8 6.8 1 8.2 4.2 1.5 3.7 2.4 4.1 4.4 2.1q1.4-1.6.9 1.8c-.2 2.4-.9 3.1-3.3 3.5-2.8.5-3 .9-3.8 6-1 7.3-.5 8.2 4 7.8 3-.2 3.8.1 4.1 1.5s-.4 1.7-4.2 1.7c-5.3 0-6.2 1-4.4 4.7 1.4 2.9 2.3 3.1 7 1.8 2.5-.6 2.7-.5 2.5 2.2s-.4 2.8-4.7 2.4c-2.8-.2-5.2-1-6.3-2.2-2.2-2.3-9.5-2.7-10.3-.5-1.1 2.9 1.5 5.6 5.4 5.7l3.7.1-4.4.9c-5.3 1-6.4 1.9-5.9 5 .3 2.1.8 2.4 4.6 2.3q4.2 0 6.5-2.1a28 28 0 0 1 11.1-4.3c.4 0 .6 1.2.4 2.7-.3 2.4-.9 2.9-4.7 3.5q-7.7 1.3-6.4 4.6.9 2-.8.6c-.8-.6-3.8-.8-6.7-.6-4.2.3-5.2.7-4.8 1.9.3.8.6 2.3.6 3.4 0 2.8 7.2 2.7 10.1-.2a9 9 0 0 1 5.8-2.3c2-.1 4.4-.6 5.4-1 1.4-.7 1.7-.3 1.7 2.3 0 3-.1 3.1-4.5 3.1s-4.5 0-4.5 3.5-1.6 4.7-2.6 2c-.6-1.6-5.9-2-10.1-.9-1.8.5-2.2 1.2-1.9 3.8.3 2.8.7 3.1 3.9 3.4 2 .2 4.5-.2 5.6-.7 2.5-1.4 3.8.3 2.1 2.4q-1.4 1.5-6.2 1.5c-4.7 0-5 .1-4.4 2.2.3 1.3.6 2.9.6 3.5 0 1.6 5.3 1.7 9.7.1 3.5-1.3 5.9-.3 3 1.3-2.3 1.3-2.2 3.5.3 5.2 2 1.4 1.9 1.4-.5 2.5-2 .9-2.3 1.5-1.6 3.4s1.7 2.3 6 2.6q5.3.2 5.1 1.8c-.2 1.6-1.4 1.4-5.8 1.4-5.3 0-6-.2-7-2.5-.9-1.9-1.9-2.5-4.4-2.5-5 0-6.2 1.2-5.1 4.6.9 2.7 1.4 2.9 5.2 2.6 2.4-.2 4.1.1 4.1.7s-1.9 1.1-4.3 1.1c-5.3 0-5.9.5-4.6 3.7q1 2.6-.1 3.8-1.1 1.3.2 4c1.1 2.5 1.5 2.6 5.6 2 3.4-.5 4.3-.4 4 .7-.3.7-1.6 1.4-2.9 1.5l-3.7.2q-1.2.2-1 2.8c.2 2.3.8 2.8 3 2.8 1.5.1 3 .4 3.4.8q.4.7-2 .7c-2.4 0-2.9.7-3.2 1.5-.8 1.9 1.5 4.8 3.3 4.1q1.2-.4 1.3-.1c0 1-2.6 6.1-3.8 7.4-1.1 1.1-1 1.8.3 3.8q3 4.6-1.7 5.5c-3.3.4-2.9 3.2.5 3.6 1.5.2 2.7.7 2.7 1.2s-1.2 1-2.7 1.2q-2.7.4-2.8 1.8c-.1 1.4 1.1 1.6 2.8 1.8 3.7.5 3.4 2-.5 2.4q-3.3.3-3.6 2c-.3 1.5.4 1.8 3.2 1.8s3.6.4 3.6 2-.7 2-3.4 2c-1.9 0-4.1.2-4.8.5-1.2.5-1.6-5.6-2.5-38.7-1.1-39.4-1.8-45.8-4.9-45.8-.7 0-2.1 1.1-3 2.5-1 1.5-2.6 2.5-4 2.5q-2.5 0-2.4 2-.2 2.1 2.9 2c2.9 0 5.1 2.7 2.8 3.5-6.6 2.3-6.9 2.5-5.8 3.9q1.4 1.5-1 1.9c-3.8 1-2 4.2 2.6 4.5 2.2.2 4.4.7 4.9 1.2 1.3 1.3-1.4 4.2-3.2 3.5-2.6-1-5.3.5-4.7 2.5q.6 1.9-1.5 3c-2.6 1.4-2.1 3.5.9 3.6 2.6.2 7.1 2.4 7.1 3.5 0 .4-2.4.9-5.2 1.1-3.9.2-5.3.7-5.3 1.8s1.5 1.6 5.5 2c3 .3 5.3.9 5.2 1.5q-.4.8-1.5.6c-1.1-.4-4.9-.5-8.9-.2q-1.7.2-1.8 2.1-.2 2.1 2.9 2c4.4 0 4.7 1.8.4 2.2q-3.8.3-4.1 1.9c-.2 1.3 1 1.8 6.3 2.4 5.5.5 6.5 1 6.5 2.6s-.5 1.8-4.5 1.2c-5.2-.7-8.3 1-6.4 3.3.6.8 2.2 1.4 3.5 1.4s2.6.5 2.9 1q.4 1-3.4 1c-7 0-6.7 3.5.4 4.4 5.3.6 7.5 1.5 7.5 3.2 0 1.1-.7 1.1-4.1-.1-5-1.8-10.1-1.9-11.7-.3-1.7 1.7.4 3.8 3.7 3.8 1.4 0 3.3.5 4.1 1.1q1.8 1-3.1.4c-3.4-.5-4.8-.3-5.8.8-1 1.3-.9 1.7.8 2.6 1.1.6 2.8 1.1 3.9 1.1s3.6.7 5.7 1.5c2.7 1.2 4 1.3 5 .5q2.5-2 2.5 6.1c0 4.2 0 4.2-2.4 3.3-1.4-.5-1.4-.8 0-2.9s1.3-2.4-.1-3.5a27 27 0 0 0-13.9-1.7c-2.3.9-.8 3.7 1.9 3.7 1.2 0 3.7.6 5.6 1.2l3.4 1.3-5 .5c-3.7.4-5.1.9-5.3 2.2s.4 1.8 3 1.8c4 0 7.1 1.6 4.8 2.4-.8.2-2.6.4-4 .3q-2.4-.1-2.8 1.4c-.2 1.3.8 1.8 4.2 2.3 5.5.9 6 2.4.9 2.8-2 .2-3.8.9-4.1 1.5-.4 1.3.3 1.7 5.1 2.7 1.5.4 2.7 1.1 2.7 1.7q0 1-3 .4c-3.8-.8-6.6 1-4.9 3.1q1.1 1.3 1.9 1.4c2 0 9 5.5 9 7.1 0 3-1.7 3-3 0q-2.2-5.7-13-4.9c-3.3.2-6 .1-6-.4q.1-.7 1-.8c2.4 0 .8-2.9-1.7-3.2q-3-.1-3.1-2.7-.5-2.5 1.2-1.8c2.4.9 5.6-2.7 5.7-6.6.5-11-1.6-17.7-5.5-17.7-2.4 0-2.6-.3-2.6-4.5 0-3.9.3-4.7 2.5-5.5s2.5-1.5 2.5-6-.2-5-2.6-5.6c-2.3-.6-2.5-1-1.9-4.1.6-3.4-.9-6.8-2.5-5.8-.4.2-1.5-.4-2.5-1.5q-2.8-3.3 3-2.7c2.8.3 5.1-4.8 3.7-8.5-.5-1.5-.8-4.6-.5-6.8.5-3.3.2-4.1-1.3-4.6-1.1-.3-3.5-1.4-5.5-2.5a19 19 0 0 0-6.8-1.9c-1.7 0-3.1-.5-3.1-1.1 0-1.2 4.6-.8 8.1.6.9.3 2.3 0 3-.7a6 6 0 0 1 3.4-1.3c2.4 0 3.2-4.5 1.6-8.8-1.2-3-4.6-3.6-8-1.5-2.4 1.5-8.6-.1-8.6-2.2q0-2.2 8.5-.9 2.5.4 2.5-1.1c0-1.5-2-2-5.7-3q-5.7-1.4-5.8-2.8-.1-1.6 2.8-.9c3.6.7 5.9-.5 4-2.1-.8-.6-2.6-1.6-4.2-2.1-3.3-1.3-3.3-4.8.1-4.3 4.4.6 3.3-3.1-1.2-4q-1.9-.4-2-2.3c0-1.6.7-2 3.4-2 4.9 0 5-2.2.2-3.5-2.3-.6-4.1-1.4-4.1-1.9q.1-2.4 3.5-.9c1.3.6 3.1.8 4 .4 2.6-1-.1-3.6-3.6-3.6q-2.9 0-2.9-1.5 0-1.4 2.5-1.5c1.9 0 2.5-.5 2.5-2.3 0-1.3-.5-2.8-1.2-3.5q-1.4-1.3.5-1.2 1.7 0 1.7-2.3-.2-4.5-4.7-4.7c-2 0-2.3-.5-2.4-4.3 0-2.3-.2-6.7-.5-9.7l-.6-5.6 2.9.1q3 .1 3.1-2.1c.4-2.8-2.8-4.1-4.4-1.9-1 1.4-1.3.9-1.9-2.7-.4-2.4-1-9.9-1.4-16.8-.5-10.4-.9-12.5-2.2-12.8q-1.6-.3-2.7 2.7c-.8 2.3-1.5 2.8-3.1 2.4q-2.1-.5-2.7 1.2c-.8 2.1.8 5 2.7 5 1.7 0 2.5 6.1 1 7.8-1.2 1.6-.8 9.6.8 12.4A42 42 0 0 1 255 585c0 9 .1 9.3 3.1 12.1 2.6 2.4 2.9 3.2 1.9 4.4-.7.8-1.9 1.5-2.6 1.5-1.1 0-1.4 2-1.4 9 0 8.3-.1 9-2 9q-3.9-.2.3 3l2.2 1.8-3.4-.1c-4.3-.2-5.2 1.9-1.2 2.8 2.7.6 3.1 1.1 3 3.8q-.2 3.5-.6.9-.5-2.1-2.4-2.2c-1 0-2.2-.1-2.6-.3s-1 1.1-1.3 2.7-.9 3-1.5 3c-.6.1-1.1-5.2-1.2-13.4-.2-7.4-.9-26.3-1.8-42s-1.5-35.9-1.5-45c0-17.7-1.5-32.9-3.5-35.7-1.1-1.5-1.4-1.4-2.9.9a15 15 0 0 0-1.8 6.4c-.3 8.6 1.4 58.7 2.3 69.9a740 740 0 0 1 1.4 40.3c.2 25.5.4 28.5 2 30.2 1 1.1 2.3 2 3 2 .6 0 2 .7 3.1 1.5 1.7 1.4 1.4 1.5-4.1 1.3-5.8-.3-6-.2-6 2.2 0 3.2 4.5 5.5 14.3 7.1 3.9.7 7.2 1.6 7.2 2.1s-.8.7-1.7.5l-6.4-1.2q-8-1.2-7.9 5.5 0 2.9-2.1 3.3c-2.9.8-2.1 3.7 1.9 6.3 1.8 1.3 2.8 2.5 2.2 2.9s-1.5.3-2.2-.1-2.8-1-4.8-1.4c-3.4-.5-3.5-.6-3.8-5.5-.1-2.8-1-11.3-1.8-19s-1.9-27.3-2.4-43.5-1.4-32.9-2-37a378 378 0 0 1-2.9-41 1528 1528 0 0 0-2.2-37.5l-2.8-41.5c-.5-8-1.5-15.9-2.1-17.5-.7-1.7-1.4-11.8-1.6-23.5-.4-13-1.1-23.1-2.1-27.5-.8-3.9-1.7-11.2-1.8-16.3s-.6-10.5-.9-12c-.5-2.2-.2-2.9 1.6-3.7 2-.9 2.2-1.6 1.9-7.2-.3-6.7 1.1-10.6 3.4-9.7 1.6.7 2 3.6 3.5 30.4a903 903 0 0 0 7.5 80.5c2.8 25.4 3.2 26.9 9.2 28.1 4 .8 5.5-1.6 2.8-4.6q-3.3-3.7-5.5-26.4c-.6-6.5-1.8-16.3-2.6-21.8-1.5-9.2-1.5-10.1.1-11.8 1.4-1.5 1.5-2.5.6-5.7-1.6-5.5-1.3-12.5.4-15 1.3-1.9 1.4-3.6.5-11.5-.6-5.1-1-14.3-.8-20.3.3-10.7.4-11 2.6-11.3 1.4-.2 3.1-1.6 4-3.3q1.7-3 3.7-2.7c1.8.3 2 .9 1.7 8.3-.2 4.4.3 12.3 1.2 17.5 1.6 9.9 2.2 16.2 3.1 34.5.4 6 .8 11.2 1 11.5s.9 6.5 1.5 13.6a86 86 0 0 0 7.2 32q3.3 7.7 5.6 8.5 2 .9 2.2 3c0 1.2.4 3.8.9 5.8s1.5 6.3 2.1 9.6c1.8 9.5 4 16.4 5.7 18.1q1.6 1.5 5.2 1.2l3.6-.3.7 5.1c1.4 9.5 11.2 33.3 17.9 43.4 3.8 5.8 10.2 11 13.4 11 2.7 0 2.9-3 .3-5.8-4-4.3-15.6-29.8-25.4-56-2.7-7.2-4.1-8.5-6.4-5.7q-1.2 1.4-2 1.5c-1.1 0-4.7-12.3-6.6-22.5a481 481 0 0 0-10-41.7c-.7-2-2-9.9-2.9-17.5-2.7-22.4-5.6-44.7-6.1-46.6q-.6-1.5-2-1.7c-1.7 0-1.8-2.3-.2-5 1-1.5.9-2.9-.5-7.2-.9-2.9-1.9-7.3-2.2-9.8s-.8-5.6-1.1-6.8q-.5-2.5.8-2c.7.3 1.5 1.8 1.8 3.4.5 2.8.7 2.9 6 2.9 6.1 0 7.4-1.6 3-3.8-2.8-1.4-3.8-5.4-3.9-14.8-.1-7.3-2.1-9.4-4.7-5q-3.3 5.3-3.4 1.2 0-4.4-6.3-3.4c-5.6.9-7.8 5.3-2.6 5.3q3.4 0 .4 6-3.2 6-7.6-.7a17 17 0 0 0-4.1-4.5l-3.5-1.7c-2.8-1.3-2.8-3.9-.1-4.3 4-.5 2.8-3.3-1.7-3.6-6.6-.6-9.2-4.2-3-4.2 4.9 0 4.4-2-1.3-5-5.8-3.1-6.2-5.4-.9-5.8 3.3-.3 3.8-.6 3.5-2.5-.2-1.7-1.1-2.3-4.3-2.7l-4-.5-1.3-8.9c-.9-6.5-1.8-9.5-3.2-10.8-1.1-1-2-2.6-2.1-3.6l-.5-4.7c-.3-1.7-.7-11.8-1-22.5-.3-12-1-21.7-1.9-25.3q-4-15.1 3.1-7.7c2.6 2.4 3.2 4.1 4.2 11.7a363 363 0 0 1 2.2 22.8c.5 7.7 1.8 17.9 3 22.8 1.1 4.8 1.8 9.2 1.5 9.7-1.6 2.6 9 16 11.4 14.6 1.6-1 1.4-5.2-.4-8.5-2-4-3.6-11.2-4.6-20.6a405 405 0 0 1-2.5-46.1c.6-6.6.5-7.1-1.6-8.1-1.3-.6-4.9-1.4-8.2-1.7s-6.7-1.3-7.8-2c-2.6-1.9-5.8-7.1-5.8-9.6q0-2-1.9-2c-1.1 0-2.3-.5-2.7-1.1s-2.4-.9-5.1-.6c-4.7.5-9.3-1.9-7.9-4.1 1-1.7 4.6-1.5 4.6.3q.1 1.4 1 1.5 1-.1 1-2.1c0-1.8.5-2 3.8-1.7 2.8.2 3.7-.1 3.7-1.2 0-1.2-1.7-1.6-8.2-1.8-7.9-.3-8.3-.4-8.3-2.5 0-1.3.5-2.8 1.2-3.5q1.3-1.1-1.4-2.1c-4.2-1.6-4.2-3.9 0-5.1q7.3-2 7.2.2 0 1.3 1-.2c.5-.8 2.4-1.5 4.2-1.5q3.4 0 3.3-1.5c0-1.2-1.5-1.5-8.5-1.3-4.7.1-9.4.5-10.3.9q-1.7.6-1.7-.8c0-2.7 2.5-4.6 6.5-5.1 2.2-.3 5.8-1 7.9-1.5q10.2-2.6 19.6 14.7c2.3 4.5 5.9 9.9 7.8 12.2l3.5 4 2.1-2a8 8 0 0 1 4.4-2.1q2.2 0 2.2-1.8c0-1 .3-2.2.7-2.5 1-1.1 5.2 3.3 4.6 4.9q-.5 1.3 2.4 1.9l5.7 1.6c1.6.5 4.3.9 6 .9s3.7.4 4.5.9c1.6 1 .6 3.1-1.5 3.1-2.4 0-1.6 4.7 1.1 6.8 3.3 2.6 3.2 3.2-.5 3.2-3.1 0-3.9 1.3-1.7 2.7q1 .8-3.3 1.3c-6.1.7-10 .1-10-1.6 0-1 1.1-1.2 4.5-.7 5.7.7 6.1-1.2.5-2.7-2.2-.6-4-1.3-4-1.6 0-1.2 2.9-3.4 4.4-3.4 2.7 0 1.8-1.7-1.4-2.9-4.2-1.4-3.7-2.3.8-1.5 4.8.9 3.4-.7-2.1-2.3q-7.6-2.1-4.3 2.8c1.3 1.9 1.3 2.5.2 3.8-.7.9-1.6 5-1.9 9.2-.7 8.4-1.4 10.9-3 10.9q-1 0-.3-12.5c.7-12.9 0-16.5-2.9-16.5-1.8 0-1.9 1.2-.4 2.7.7.7.7 2.8-.2 7.2s-.9 7.2-.1 9.9c.8 3 1.6 27.9 1.2 39.2-.1 1.4.2 5.8.6 9.9.6 6.4.9 7.2 2 5.7 1.3-1.9 2.7-1.8 14.9.1 2.2.4 5.7.6 7.7.6 2.9-.1 3.9.4 4.4 1.9q.5 1.9 0 2.5c-.9 1-12.7.8-20.8-.3l-7.8-1v3.2c0 4.2 1.3 4.6 14.3 4.6 8.2 0 11.1-.4 15-2 2.6-1.2 4.7-2.5 4.7-2.9s-.6-2.8-1.4-5.3c-1.3-4.4-1.4-4.5-6.2-5.1-2.7-.4-6.7-1.1-8.9-1.8s-6.6-1.1-9.7-1.1H230v-4.1c0-3.5.3-4 1.8-3.4 5 1.9 13.3 3.5 18.4 3.5s5.8-.3 5.8-1.9q0-3.1-5.5-3.1c-1.3 0-2.7-.5-3-1-.8-1.3 3.6-3 7.2-2.6 2.4.3 2.9.9 3.6 4.7.5 2.4 1.3 4.8 1.8 5.3 1.2 1.3 4.9-2.2 4.9-4.6q0-1.6.9-1.8 2.4 0 .8 19.2c-.8 9.9-.7 14.9.3 22.7 1.2 9.5 2.3 13.2 3.4 12 .3-.2.1-2.2-.4-4.4-1.4-6.6-1.7-20.8-.4-21.2q1.2-.3 1.9 5.7c.4 3.3 1.2 6.3 1.7 6.6q1 .8.3-5.2c-.8-6.2-.7-29.2.1-30.6.8-1.2-1.6-9.1-3.4-11.1-1.4-1.6-1.4-1.8.1-3 2.6-1.9 3.3-11.4 1.2-17.6s-3.1-7-6-4c-2.1 2.2-2.2 2.9-1.4 9 .8 6.4-.2 14.1-1.4 10.9-1-2.6-2.7-23.9-2.1-25.5.6-1.5 1.7-1.5 6.9.5 1.1.4 4 2.6 6.4 4.9 3.4 3.2 4.9 3.9 6.8 3.5q4.5-1 5.8-9.2 1-6.3 4.3-3c1 1 1.8.6 3.7-1.7 1.9-2.4 2.4-4.2 2.4-8.5 0-3-.6-6.6-1.4-8-2.2-3.8-1.8-6.2 1.5-10.6 3.5-4.6 3.8-6.4 1-6.4s-2.5-.9 2-6.4c2.2-2.6 4-5.4 4-6.2 0-5.2 6.3-10.1 16.1-12.7a21 21 0 0 0 7.8-3.6q4.5-4.3 7.8.6M198.5 150c.4.6 1.7 1 3 1q2.3.1 4.4 2.9l2.1 2.9-2.7-.9-5.6-1.4c-3.9-.8-9.2-5.7-8.4-7.9.6-1.6.9-1.6 3.7.4 1.6 1.1 3.2 2.5 3.5 3m71.5-2.5q-.2 1.4-2 1.5-2 0-1.4-1.5.7-1.4 2-1.5c1.3-.1 1.4.7 1.4 1.5m-132 .5q0 .9-1 1a1 1 0 0 1-1-1q.1-1 1-1t1 1m-111.5 1q-.6.9-1.6 1-.8-.1-.9-1 .1-1 1.6-1 1.3 0 .9 1m247.9 2.6c1 2.7.7 3.1-1.9 2.6a7 7 0 0 1-2.5-.7c0-1.5 1.5-3.5 2.5-3.5.7 0 1.6.7 1.9 1.6m-219.3 4.8c.5 4.3-.9 7.7-1.9 4.7-.2-.7-1.7-2.8-3.3-4.6a19 19 0 0 1-2.9-3.8c0-.6 4.8-1.5 6.5-1.2.6.1 1.2 2.3 1.6 4.9m-11.4-2c-.3.8.3 2.6 1.5 4.1s1.8 2.9 1.5 3.2c-.8.8-2.7-.6-2.7-2.1 0-2-3.7-4.9-5.5-4.3q-1.4.5-1.5-.2.1-1.8 4.9-2 2.3-.2 1.8 1.3m26.3 0c0 .7-.6 1.9-1.4 2.5q-1.5 1.4-1.9-.8-.4-1.8.1-2.5c1.1-1.1 3.2-.6 3.2.8m103.9.4c1.5 2.7-3.1 7.5-6.4 6.6-3.7-.9-4.1-2.4-.5-2.4 1.8 0 3.3-.6 3.7-1.5.7-2.1.2-2.5-3.6-2.8-4.8-.3-3.7-1.7 1.4-1.7 3.2 0 4.7.5 5.4 1.8M74 157.3c0 2.5-2.5 6.6-3.4 5.6-.7-.6 2.1-7.9 2.9-7.9q.5.2.5 2.3m65.7.5c-3.4.4-4.8-.5-2.7-1.8q1.4-.7 3.4.3c2 1.1 2 1.2-.7 1.5m-51.7-.4c0 .8-.4 1.8-1 2.1q-.9.4-1-1.4.1-2 1-2.1 1 .1 1 1.4m68.7 2.8q-.5 1-.5-1.2c0-2.2.2-1.9.5-1.3.2.7.2 1.9 0 2.5M38.5 160q.4.9-.4 1-1-.1-1.1-1 0-1 .4-1t1.1 1m240.3 1.7q.3 2-1.7 2.6c-2.7.7-3.5-.7-2.1-3.3s3.4-2.1 3.8.7m13.3 1.9c1 1.3 1 1.7-.1 2.4q-2.9 1.6-3-2.1c0-2.3 1.3-2.5 3.1-.3M139 166.2q-4 1.3-2.6-1c.3-.6 1.6-.8 2.8-.4l2.2.5zm28.9-.3q1.2.8.3 1.5c-1.4.8-4.3-.4-3.6-1.5s1.5-1.1 3.3 0m-118.4 3.2c1.6 3 1.5 3.2-.9 7-2.8 4.1-4.6 4.7-8.9 2.6-2.2-1-2.7-1.9-2.7-5v-3.8l3.1 3.6c3.8 4.2 5.8 3.6 2.9-.9-3-5-2.7-6.6 1.5-6.6 2.8 0 3.7.5 5 3.1M54 167q-.1.9-1.1 1-.8-.1-.4-1t1.1-1q.4 0 .4 1m16 .3c0 1.4-2 3.7-3.2 3.7-1 0-1.1-3.4-.1-4.3 1.1-1.2 3.3-.8 3.3.6m193.7 1.3c-.9.9-2.8-.6-2.1-1.8q.6-1 1.7.1 1 1 .4 1.7m11.6 3.2c-.3.7 0 2.5.8 3.9 1.2 2.3 1.1 2.7-1 4.4-2.4 2-5.2 1.6-3.2-.4q2.5-2.6-1-7.1c-2-2.6-2-2.8-.4-4.6 1.7-1.9 1.8-1.9 3.5.3 1 1.2 1.5 2.7 1.3 3.5m-119.3.9q0 4.5-1.7 6.5c-1.5 1.7-1.5 2 .5 3.9 2.2 2 3 4.9 1.3 4.9q-1-.1-1.6-1c-.3-.6-1.6-1-2.7-1-2.5 0-4.7-2.7-4.8-5.8q0-2.3-3-4c-1.6-.9-3-2-3-2.5 0-1.5 3.8-.6 5.5 1.3 2.6 2.9 5.5 2.6 5.5-.4 0-3.5 1.8-7.8 3-7.1.5.3 1 2.7 1 5.2m-81-3.4c0 .8-.9 2.2-2 3.2-2.6 2.4-2.6 3.8.1 3q2.3-1 1.7 1.2c-.3 1.4-1.1 1.7-3.8 1.5-5.4-.5-5.7-1.7-1.4-6.1 4.1-4.3 5.4-4.9 5.4-2.8m-18.5 24.3c.2 12.1 0 23.7-.4 25.8l-.6 3.9-4.3-5.6c-3.9-5.2-4.6-5.7-8-5.7-2.1 0-4.3-.5-5-1.2-1.8-1.8-1.5-9.8.5-12 1.5-1.7 1.5-1.9-.2-3.8q-2-2-1.6-6.7c.1-2.6.4-4.9.7-5.2s2.1-.4 4-.2c3.8.3 8.4-2.1 8.4-4.3 0-1.6 5-7.9 5.7-7.2.2.2.6 10.2.8 22.2m59.5-3.1q0 18.7 1.5 24.3 2.8 10.6-1.4 17.2l-2.1 3.5v-8c-.1-10.4-.8-22.1-2-31.3q-2.3-17.5.8-21.7c.9-1.4 2-2.5 2.4-2.5s.7 8.3.8 18.5m54.2-15.8q-.3 2.2 1.8 3.3c1.7.9 2 1.7 1.5 3.7q-.6 2.5 1.2 4.5c1.3 1.5 1.5 2.3.6 3.6-1.4 2.4-3.6 2.1-4.8-.6s-4.9-3.9-7-2.2q-2.7 2.2 2.1 4c2.2.9 2.3 1.2 1.2 3-1.1 1.7-1 2.2.2 3 2.7 1.8 7.1 1.2 7.7-1q.6-1.8 1.4-2t.9-2.1q.1-1.7 1-1.4 1 .7 1 2.2a6 6 0 0 0 1.3 3.2q1.3 1.7.9 7.3l-.4 5.7-4.6.6c-6.4.9-7.4 1.3-7 2.8.3.6 2.8 1.6 5.6 2.2 2.8.5 5.6 1.5 6.3 2.2 1.8 1.8-3.5 3.6-8.1 2.8q-3.7-.6-4.8.8c-1.8 2.1.3 3.4 7.3 4.4s7.4 2.7.6 3.1c-5.4.3-8.6 2.6-6 4.3.8.5 3.7.9 6.6.9s5.5.5 5.9 1.2c1.2 1.9-2.7 3.8-7.7 3.8-2.6 0-5 .4-5.3.9-1.6 2.6 7.6 5.1 11.3 3.1 2.1-1.1 2.2-1 1.9 2.2s-.5 3.3-5.3 3.8q-5.2.5-5.3 2.2c-.1 1.7.6 1.8 3.5 2.3 9.7 1.6 10.7 4.5 1.5 4.5q-9.4 0-7.9 3.3c.7 1.8 6.6 3 11.1 2.2 2.6-.5 3.5-.3 4 1q1.8 4.2-5 3c-4.5-.6-8.8.8-8.2 2.7.2.6 3.3 1.8 6.9 2.7 6.3 1.7 6.4 1.7 6.4 5.1 0 3.2-.3 3.5-3.8 4.1q-7.3 1.3-4.8 4.3 1.3 1.5 4.2.9c3.5-.7 5.9 1.1 5.9 4.2 0 2.5-2.2 3.5-7.6 3.5-2.8 0-3.1.3-2.6 2.6a6 6 0 0 0 2.3 3.7q4 2.6-1.1 2.7c-3.3 0-4 1.4-1.3 2.4q2 .8.4 1.5-1.7.9.7 2c2.7 1.4 7.5 1.4 9-.1q1.2-1.3 1.8.5c1.3 3.5-.3 4.7-6.1 4.7-4.8 0-5.5.2-5.5 2 0 2.5 2.9 4 7.4 4 2 0 3.6.4 3.6 1 0 1.3-3.1 1.3-6.4.1q-2.4-1-3.5.3c-1.6 1.9 2.6 5.4 7.6 6.2 2.3.3 4.4 1.3 4.7 2 .8 2-3.1 3.7-7 3.1-1.9-.3-3.7-.1-4 .5-1.2 1.9 3.3 5.1 7.2 5.2 2.1.1 3.9.7 4.2 1.4q.6 1.3-6.1 1.2c-7.1 0-8.1.4-6.7 3 1.2 2.2 6.1 4 10.7 4q3.4 0 3 1.2c-.2.8-2.4 1.3-5.8 1.4q-10 .1-2.4 5.8c2.8 2.2 4.2 2.6 6.5 2.1 2.6-.6 3-.4 3 1.4 0 2.2-2.7 2.8-10.7 2.3-2.7-.1-3.3.2-3.3 1.8q0 2 4.8 4.2l4.7 2.3-4.7.3c-3.9.2-4.8.7-4.8 2.1q0 3.4 5.3 4.6c4.2 1.1 3.2 2.5-1.8 2.5-6.5 0-5.8 3.5 1.4 6.7l2.6 1.1-3.2.7q-6.7 1.6-3.8 4.9c1.2 1.2 3.6 1.6 8.8 1.6 9.7 0 7.5 1.8-2.7 2.2-5 .2-8.1.7-8.3 1.5-.8 2.2 4.4 4.4 11.6 5 9.8.8 8.8 2.7-1.7 3.1-7.3.3-8.2.5-8.2 2.2 0 3.2 4.3 5.2 11.5 5.3 9 .1 6.8 1.5-2.9 1.9-8.4.3-10.8 1.8-6.2 3.9 2.3 1.1 2.4 1.3 1 3.5-1.4 2.1-1.4 2.4 1.1 4 1.6 1 4.7 1.7 8 1.8 7.3.1 6.6 2-1 2.6-3.3.3-6 1-6.2 1.7-.7 1.9 5.8 5.3 10 5.3q3.8 0 3.7 1.5c-.1 1.5-1.1 1.5-4 1.5-7 0-6.2 5.8.8 6.3 1.8.1 3.2.5 3.2.9 0 .9-5 2.3-6.8 2q-1.2-.1-1.9 1.4c-1 2.7 3.3 5.6 7.1 4.8 5.1-1 1.5 1.7-4.1 3.1-2.8.7-4.8 1.8-4.8 2.6 0 2.1 4.7 4 8.8 3.5 3.1-.3 3.6-.2 2.7.9-.6.8-2.6 1.7-4.3 2.1-3.5.7-5.7 2.1-5.7 3.6 0 1.6 6.9 3.9 9.7 3.2q2.7-.8 1.9.5c-.4.6-2.7 1.1-5 1.1-2.5 0-4.8.6-5.5 1.4-1.8 2.1 3.2 5.6 8 5.6 3.5 0 3.9.3 3.9 2.5 0 2.5-1.1 3-5.3 2.7q-1.7 0-2.4 1.4c-.8 2 3.6 6.5 6.1 6.2 1-.2 2.1.2 2.3.9.6 1.7-6.5 3.5-8.9 2.2-2-1.1-3.8-.5-3.8 1.3 0 .6 1.1 2.6 2.5 4.4l2.5 3.2-2.5 1.6c-3.2 2.1-3.2 4.4.2 5.7l2.6 1-2.1 2c-1.2 1.1-2.2 2.4-2.2 2.9 0 1.6 6.3 4.3 9.8 4.2 5.6-.2 3.1 2.2-3.4 3.3-4.8.9-6 1.4-6.2 3.1-.6 3.9 5 6 10.6 4 2.1-.7 2.3-.5 2 2.1s-.6 2.8-4.1 2.6c-4.8-.3-7.7 1.1-7.7 3.7 0 2.9 3.5 4.3 8.7 3.5 3.9-.6 4.4-.4 4.1 1.1q-.4 2.5-9.3 3.7-3 .3-3.3 2.5c-.5 3.1 3.7 5.4 9 5 3.3-.2 4.3 0 4.3 1.2q.2 1.6-5.2 2.1c-6.7.9-8.3 1.5-8.3 3.3 0 2.1 3.6 3.9 9 4.6q4.6.5 4.5 2c0 1.2-1.5 1.6-6.7 1.8-7.8.3-9.8 1.8-7 5.2 1.4 1.8 3.2 2.4 7.5 2.8 6.5.5 7.4 1.8 2.1 2.8-3.5.6-3.6.8-3.1 4.1l.6 3.5-3.7-.7c-9-1.6-11.2-6.9-11.2-26.2 0-7.2-.9-23.6-1.9-36.5a985 985 0 0 1-2.5-37.8c-.3-8-1-17.2-1.6-20.5-1.3-7.8-4-45.7-4-56.2 0-4.5-.5-8.5-1-8.8-1.3-.8-4.1 5.8-4.6 10.5-.2 1.9.1 6.6.6 10.5.5 3.8 1.2 13 1.5 20.4.5 10.8.4 13.2-.7 12.9a10 10 0 0 1-3-3.4c-1.5-2.6-1.6-3.9-.8-9 .6-3.3.9-24.3.8-48.4q-.1-42.6 1.2-57c1.1-11.6 1.1-21 .2-46.5-1-29.3-1.2-32.3-3.1-36-1.8-3.4-2.7-4.1-5.9-4.5q-3.7-.5-4-2.3c-.3-1.3.4-1.7 3-1.7 4.3 0 7.1-2 6.3-4.2-.6-1.4-1.5-1.6-5.1-1.1-3.9.5-4.4.4-4.4-1.4 0-2.2 3.4-4 8.5-4.5 2.8-.3 3-.6 2.6-3.8q-.8-6.8-3.6-7-1.3-.1-1.5-1 .2-1 2.5-1c2.2 0 2.5-.4 2.5-3.9 0-2.2-.6-4.4-1.5-5.1q-1.4-1.3-.9-3.6c.4-1.3.2-3-.4-3.7-.5-.6-1-6.7-1-13.4s-.3-14.1-.7-16.4c-.7-4-.7-4.1 2.1-3.8 3.9.4 5.9-.8 4.3-2.7a4 4 0 0 0-5.7-.2q-1.3 1.4-1.2-1.3c0-3.6.8-4 6-3.7 4 .3 4.5.5 4.2 2.5m121.6 4c-1 1.2-1.3 1.2-2.1-.2-.5-.9-.6-2.4-.2-3.3.6-1.6.8-1.5 2.1.2 1 1.5 1.1 2.3.2 3.3m-216 8.6c.2 2.5-.2 5.6-.8 6.7q-1.2 2.2 0 3.5c.6.7 1 3.7.8 6.6-.4 6.1-2.1 7.9-6.5 6.3l-2.8-.9-.3-13.5c-.1-7.4 0-14 .2-14.7.4-1 1.4-1 4.8 0 4.2 1.3 4.3 1.4 4.6 6m146.5-3.8q0 .9-1.5 1.3-1.7.3-1.8-1.3c0-1.7 3-1.8 3.3 0m-76.5 1.1c3.7 1 2.5 2.4-2.3 2.4-3.3 0-4.5-.4-4.5-1.5 0-1.6 2.8-1.9 6.8-.9m135.1 6.5c.1 4-1.3 5.7-5 6.1-2.1.3-2.4-.1-2.1-2.6.2-1.5 1.5-4.7 2.9-6.9 2.3-3.7 2.7-3.9 3.4-2.2.4 1.1.8 3.6.8 5.6m-11.5-2.2c.3.4-.3 1.9-1.4 3.1s-2 3.1-2 4c0 3-3.7 10.3-4.5 9-.4-.6-.2-1.7.4-2.3s1.1-1.7 1.1-2.4.9-3.7 2.1-6.8c2-5.3 3.1-6.5 4.3-4.6m18.6 3.8q0 3.5-.9 2.7c-.9-.8-.4-6.4.5-6.4.2 0 .4 1.7.4 3.7m-134.8-.2q-.1.9-1.1 1.3-1 .2-1.1-1.3c-.1-1.5.5-1.5 1.1-1.3q1 .4 1.1 1.3m-4.2 3.2c.8.4-.5 1-3 1.4-9.1 1.5-12.8.7-7.7-1.7 2.1-1 7.6-.8 10.7.3m42.8 2.4c.2.5 1.2.9 2.2.9 3.8 0 4.4 2 5.6 18.3.4 5.4 1 10 1.4 10.2s.4 2.4.1 4.7a463 463 0 0 0 2.3 57.3A698 698 0 0 1 206 332c.8 21.5.7 25.3-.8 30.7-1.3 5.1-1.4 6.9-.4 9.5.6 1.8.9 4.3.6 5.6s-.1 2.9.6 3.7q1.4 1.6.2 2.7-2.8 2.5 1.4 3.8c2.6 1 2.5 3-.2 3-2.1 0-1.7 3.1.6 3.7q1.8.6 2 1.3c.2.7-.9 1-2 1.3q-1.8.6-2 1.7c-.2 1.1.9 1.4 2 1.7 2.4.6 2.6 1.9.5 2.7-2 .7-1.9 3.2.1 4 1.5.6 1.5.8-.1 2.6s-1.7 2.1-.1 3.9q1.7 1.8.7 2.6c-1.8 1.1-1.3 8.6.7 10.1 1.5 1.2 1.5 1.5.2 2.4s-1.3 1.2.2 2.4c1.3 1 1.5 1.5.6 2.4q-1.3 1.2 0 2.4 1.2 1.1.1 2.4t-.1 3.1a31 31 0 0 1 1.5 7.6c.3 3.2 1.1 6.5 1.8 7.3.9 1.1.9 1.8-.2 3-.9 1.2-1 2-.2 3.3q1 1.8.3 3.2-.9 1.4.6 3c1.3 1.4 1.3 1.8-.1 2.9-2.1 1.8-1.9 4.7.6 6 1.9 1.1 1.9 1.3.5 3.5-1.4 2.1-1.5 3.6-.5 10.7.6 4.6 1.1 9.9 1 12 0 2.1.6 4.1 1.5 4.8 1.3 1.1 1.2 1.5-.3 3.2-1.7 1.9-1.7 2 .1 3.4 1.6 1.1 1.7 1.6.6 2.9s-1.1 2.1-.2 3.6c.9 1.4.9 2.5 0 4.4s-.8 2.8.6 4.4c1.7 1.8 1.7 2 0 2.9-1.5.8-1.6 1.3-.5 2.6.7.8 1 2 .6 2.6s-.1 1.8.6 2.7c1.1 1.3 1 1.7-.4 2.8-2.1 1.5-2.2 6.4-.1 7.2 1.3.5 1.2.8-.5 2.5q-4 3.5-.1 4.5c2.4.6 2.6 2.1.5 2.9-2 .8-1.9 3 .1 3.8 1.5.6 1.5.8-.1 2.6s-1.7 2.1 0 4c1.5 1.6 1.6 2.2.5 3.5s-1 1.8.5 2.9q2 1.3.7 2c-1.8 1.1-1.4 4.3.4 5 1.5.6 1.5.8 0 2.5-1.3 1.4-1.4 2.4-.7 4.4.5 1.3.7 3.3.5 4.4-.3 1-.1 2.9.4 4.3q.9 2.4-.2 5.2c-.8 2.1-.7 3.4.2 4.8a6 6 0 0 1 .6 4.4c-.3 1.3-.1 2.7.6 3.1q1.2.6 0 2c-.6.8-1 2.2-.9 3.2.2 1-.1 2.8-.5 4.1q-.7 2.2.8 5.3c1.2 2.4 1.3 3.5.4 4.9s-.9 2.2.1 3.4 1.1 1.9.2 3c-.9 1-.8 1.6.4 2.6.9.7 1.3 2 1 2.8a3 3 0 0 0 .5 2.7q1.2 1.3 0 2c-1.9 1.2-1.2 5.6 1.1 6.2 2.1.6 2.1.7.4 1.9-1.5 1.1-1.6 1.6-.5 2.9 1 1.2 1 1.8 0 3s-1 1.8 0 3 1 1.8 0 3c-1 1.3-1 1.9.4 3.3.9 1 1.3 2.2.9 2.6q-.6.8 1 1.7c1.8 1.1 2.4 4.9.6 4.9a9 9 0 0 1-2.9-1c-1.5-.8-2.1-.6-3 1s-.8 2.1.5 2.5l3 1c2 .6 1.9 2.5-.1 2.5q-2-.2.6 1.8c2.5 2 2 4.2-.8 4.2-1.4.1-1.2.5.8 2.1 2.2 1.9 2.3 2.2.7 3-.9.6-1.7 1.9-1.7 2.9q-.1 1.8-1.4 2-1.3 0 1.5 3c3.3 3.3 3 5.3-.6 4.8-3.2-.4-3.4 1.4-.3 2.9 1.4.7 3.1 1.9 3.7 2.7 1.5 1.8.3 4.6-1.9 4.6-2.3 0-3.6 1.8-1.8 2.5 6.2 2.2 6.7 2.5 6.2 4q-.8 1.4-3.5 1.5c-2.7 0-2.9.2-2.3 2.7.3 1.6 1.9 3.9 3.5 5.3q5 4.2.7 10.2c-2.1 3.1-1.6 7 1.2 10.3 3.2 3.8 3.1 4.4-1.2 8.7l-4.3 4.3 3.3.3c3.9.4 3.3 2.2-.8 2.2-8.3 0-9-1.6-9.6-24l-1.4-55.5a2136 2136 0 0 0-1.5-45c-.3-2.2-.7-11.9-1.1-21.5a294 294 0 0 0-1.9-26c-.8-4.7-1.6-17.7-2-29-.9-32-1.5-45.8-2.5-55.5-.5-5-1.2-14.4-1.5-21l-1.5-27-1.5-28c-.9-18.6-4.3-51.5-5.5-53-.5-.6-.8-1.4-.6-1.6s0-4.5-.5-9.4-.9-13.1-.9-18c.1-5-.4-13.1-.9-18l-1.6-16.5-1.5-16.5c-.5-5-1.5-18.5-2-30s-1.7-30.2-2.5-41.5c-2.2-31.7-2.7-43-2.1-44.6.5-1.2 1.4-1.4 3.8-.9 1.8.4 3.5 1.1 3.6 1.6m-61.5 9.3q.3 11-1.7 6.1c-.6-1.6.4-14.8 1.1-14.1.2.2.5 3.8.6 8m160.4-6.2q-.5 1.1-.6-.6t.5-1.3q.5.7.1 1.9M149.8 207c.1 2.7-.3 5-.9 5q-.8-.1-.9-1c0-.6-1.2-1.5-2.6-2-2.2-.9-2.4-1.3-1.4-2.5 2.5-3 0-2.7-3 .3-3.4 3.4-3.9 6.2-1.2 6.2 2.9 0 3.4 1.2 1.2 2.7-3.3 2.3-2.5 4.3 1.8 4.4h5c1.5-.2 1.9 1 2.5 7.1.5 5.5-.4 7.8-2.6 6-1.1-1-1.7-.9-2.7.3-.7.8-1.8 1.5-2.4 1.5-.7 0-2.1.6-3.1 1.4-1.6 1.2-1.7 1.6-.6 3 .7.9 2.4 1.6 3.7 1.6q2.3 0 2.4 1.6c.1 1.6-.6 1.3-1.8 1-1-.4-2.6 0-3.6.7-1.7 1.3-1.7 1.4-.1 3 .9.9 2.3 1.7 3.2 1.7 2.6 0 .8 2.4-2.5 3.2q-3.2.9-3.2 2.8a8 8 0 0 1-1.2 3.9c-1.9 3-.3 5.1 3.9 5.1 2.9 0 3.4.3 2.5 1.2-.7.7-2.7 1.3-4.5 1.4s-4.4.4-5.9.8c-2.7.8-2.8.7-2.8-3.2 0-2.2-.6-4.5-1.4-5.1a3 3 0 0 1-.9-3c.7-2.6-2.2-4.7-4.2-3.1q-1.6 1.5-2.8.1c-1.6-1.6-1-16.6.9-20.2.7-1.5 1.4-3.9 1.4-5.3v-2.5l2.3 2.2c1.3 1.2 3.2 2.7 4.3 3.4 1.7 1.1 1.5 1.2-1.8 1.2-5.2.1-5.6 2.5-2.3 11.7 2.7 7.3 2.8 7.5 4.7 5.7q1.8-1.7 1.4-3.7c-.3-1.1.1-2.7.8-3.6a12 12 0 0 0 1.9-5.5c.3-2.2 1-5.8 1.6-8s1.1-7.7 1.1-12.2.4-8.4 1-8.8q.8-.6.4-1.9c-.7-1.7 3.3-3.5 8.3-3.5l4.1-.1zm131.6 6.3q.9 1.5.3 2.3c-.9.9-3.7-1.5-3.7-3.3s2-1.2 3.4 1M249 213q1.8 1-3.7 1c-2.9 0-5.3-.5-5.3-1 0-1.3 7-1.3 9 0m-178.9 1.7c-.5 1-1.3 2.7-1.6 3.8l-.7 2-.8-2q-2.4-5.6 1.5-5.5 3-.2 1.6 1.7m5.9.3q0 3.5-2.8.8t.8-2.8q2 0 2 2m-31.9 0c1.1 0 2.4 1.1 3 2.4.9 2 .8 2.7-1 4.5-1.2 1.2-2.1 2.8-2.1 3.6q0 1.4-1 1.5-2.3.1 1-4c1.1-1.4 2-3.1 2-3.7 0-1.5-5.4-4.5-6.4-3.6q-.5.5-.6-.6t1.6-.7c.9.3 2.4.6 3.5.6m205.9 2.6q1.9 1.6-.4 1.4-1.8 0-1.2 1.5.3 1.4-1 2.3-2 .8 2.4 2c4.5 1.4 5.5 3 4.6 7.8-.7 3.8-2.5 4.7-2.1 1.1.2-2.1-.2-2.2-5.3-2-14.7.4-17.7 2.5-4.8 3.3 4.5.3 8.3 1 8.5 1.6.5 1.4-6.9 4.3-8.7 3.3l-6.2-2.4-4.7-1.6.3-6.8c.2-5.5.7-7.4 2.9-10.3 2.6-3.4 2.8-3.5 8.4-3 3.2.2 6.5 1 7.3 1.8M76 223q0 3-1.4 3c-1.8 0-2.9-4.2-1.3-5.2 2.1-1.3 2.7-.9 2.7 2.2m-36-1q-.1.9-1.1 1-.8-.1-.4-1t1.1-1q.4 0 .4 1m12 3.1q0 .8-1 .9-.9-.1-1-1.6.1-1.3 1-.9 1 .6 1 1.6m7.8 6.1c-.6 1.6-3.6 3.4-4.4 2.6q-.5-.8-.1-2.3c.7-1.7 5.1-2.1 4.5-.3m84.2 27.7q0 1-1 1.6-.9.4-1-.9.1-1.5 1-1.6 1 0 1 .9m15.5 9.1c2.7 0 .7 1.6-3.2 2.5-1.8.3-3.4.2-3.8-.4-1-1.8.6-3.3 2.9-2.7 1.1.3 3 .6 4.1.6m-20.5 8q1.1 2 4 2c4.7 0 3.6 2.5-1.2 2.7-2.3.2-4.6.7-5.1 1.2-1.6 1.6.1 4.1 2.5 4.1 1.3 0 3.4.7 4.6 1.6 1.7 1.2 3.5 1.4 7.2.9q5-.7 5 .4c0 1.1-2.7 1.1-7.5 1.1-5.9 0-7.7.3-8.2 1.5-.7 2-.1 2.6 3.9 3.5l3.3.8-3.7.1c-2 .1-4-.4-4.3-.9-.8-1.3-2.5-1.3-2.5-.1 0 .5 1.8 1.5 4 2.3 4.1 1.3 5.1 3.5 1.4 3-1.1-.2-2.9.7-3.9 1.8-1.6 1.8-1.7 2.3-.5 3s1.1 1.2-.4 2.9c-2 2.2-1.8 6.6.4 6.6 3.7.1 8.1 1.8 9 3.5 1.9 3.6 1.1 4-4.2 2-2.9-1.1-6.3-2-7.5-2-4 0-4-.6-2.9-28.5a98 98 0 0 1 1.1-12.8c.9-3.2 3.9-3.7 5.5-.7m21.8 6.9c.4 1.1-.3 1.2-3.4.7-5.6-1.1-6.4-2.5-1.3-2.3q4 .2 4.7 1.6m-2.3 13.1q-4.4 1.8-4.5 0c0-.6 1.5-1 3.3-.9q3.9 0 1.2.9m27.5 6q-.1.9-1.5 1c-1.4.1-1.5-.5-1.5-1q.1-1 1.5-1c1.4 0 1.5.4 1.5 1m-27.3.6q-.6.5-1.9.1-1.1-.5.6-.6t1.3.5m-14.4 20.1c1.4.8-1.4 3.3-3.7 3.3-2.9 0-6.1-2.4-5.2-3.9.7-1.1 6.7-.7 8.9.6m39.2 31.3q.5.9-.4 1-1-.1-1.6-1-.5-1 .4-1a2 2 0 0 1 1.6 1m8.5 33q-.1.9-1.1 1-.8-.1-.4-1 .6-1 1.1-1 .3 0 .4 1m-20 85.6c0 1.4-.4 2.3-1 1.9s-1-1.5-1-2.6q.1-1.7 1-1.9c.6 0 1 1.2 1 2.6m29.5 45.4q.4.9-.9 1-1.5-.1-1.6-1 0-1 .9-1t1.6 1m150 42.5q-.2 1.7-1.2 2.2-1.2.4-1.3-2.2 0-2.6 1.3-2.3 1 .6 1.2 2.3m-163.2 34.9c1.2.3 4.4.7 7.2 1 8.8 1.1 8.2 3.8-.9 3.9-8.2.1-13.7-5.1-13.6-13 .1-2.4.4-2.1 2.6 2.5q2.6 5.1 4.7 5.6m77.7 9q0 .5-1 1.1-.9.4-1-.4.1-1 1-1.1 1 0 1 .4m88 3.7q-.1 1.7-1.5 1.9c-1.5 0-2.1-3.1-.9-4.3 1.1-1 2.4.3 2.4 2.4m.3 10.3q1 2.5-2 2.6-1.2-.2-1.3-2c0-2.3 2.5-2.7 3.3-.6m-10.1 1.8q-1.1 1-1.9.4-.6-.7.7-1.6c1.9-1.2 2.7-.3 1.2 1.2m9.8 9.3q-.1 1.3-1.5 1.5c-1.4.2-1.5-.7-1.5-1.5s.7-1.5 1.5-1.5 1.5.7 1.5 1.5m-9.2 6c-.3.3-1.3.2-2.2-.1q-2-.7-.4-1.5c1.3-.8 3.6.6 2.6 1.6m-90.9 4.1c2.9-2.6 2.8 0-.1 3.1-2.7 2.8-3.2 2.9-5.8.1-3.1-3.4-2.6-5.1.9-3 2.8 1.6 3.1 1.5 5-.2m99.8 1c-.9.9-2.8-.6-2.1-1.8q.6-1 1.7.1 1 1 .4 1.7m-8.2 1.4c1.2 1.9-.5 3-2.5 1.7q-1.8-1.1-2-1.9c0-1.2 3.8-1 4.5.2m8.8 7.5q0 .9-1.5 1.3-1.7.3-1.8-1.3c0-1.7 3-1.8 3.3 0M256 652q0 2-1.8 2c-3 0-3.4-1.3-1-2.7 3-1.6 2.8-1.6 2.8.7m18.8 6.4q1.4 1.5 1 2.1c-1 1-10.2-2.1-10.6-3.5-.6-1.8 7.6-.7 9.6 1.4m70-.2c-.5 1.5-11.8 2.3-11.8.9 0-.5 1.9-1.2 4.3-1.4l6-.5q1.7-.1 1.5 1m-.7 8.1q-.1.7-.6.7l-3.2-.1-2.8-.1 2.5-.8q4.2-1.3 4.1.3m10.9.1a3 3 0 0 1-1.1 2.2c-1.4.8-3.3-1.1-2.5-2.5 1-1.6 3.6-1.3 3.6.3m-83.2 3.1c1.2.3 2.2 1.1 2.2 1.6q-.1.9-2.2.3c-1.3-.4-3.2-.8-4.3-.9-2.7-.3-2.7-.3-2-1.5q.8-1 2.3-.6zm.3 4.5c1.6-1.1 2.9-.4 2.9 1.6 0 1.1-.9 1.3-4 .8-4.4-.7-7.3.8-6.3 3.2.3.8 1.8 1.4 3.4 1.4s2.9.4 2.9 1-1.8 1-4 1c-4 0-4 0-4-3.8 0-4.8 1.4-6.2 5-5.2 1.5.4 3.3.4 4.1 0m73.6.7c.5 1.4-5.4 1.8-9.7.6-2.5-.7-2.5-.7.5-1.3 4.9-.9 8.8-.6 9.2.7m8.2 1.2q1.4.9.2 1.5c-1.3.8-3.1-.1-3.1-1.5q.1-1.7 2.9 0m-7.9 7.8c0 1.5-.8 1.8-5.2 1.5-6.5-.4-8.1-.9-7.3-2.2.3-.5 3.3-1 6.6-1 5 0 5.9.3 5.9 1.7m-98.6 5.4c-.7 1.1-4.4 1.2-4.4.1q0-2.2 3-1.5 1.8.5 1.4 1.4m23.2-.6c1.8 1.3 1.7 1.4-1.8 1.5-3.7 0-5.1-1.3-2.5-2.3 1.9-.8 2.2-.8 4.3.8m-35.9 4.3c.9 9.9 1.1 35.4.3 31.2-1.2-6.5-2.4-36.6-1.4-35.7.4.4 1 2.5 1.1 4.5m21.3-2.3q1 1.3.2 1.5c-.5 0-1.5-.7-2.2-1.5q-1-1.3-.2-1.5c.5 0 1.5.7 2.2 1.5m88 1.4c0 1.1-6.1 2.1-7.5 1.2-.5-.3.8-.9 3-1.2s4.1-.7 4.3-.8q.2 0 .2.8m-74.9 2.6c2.4.9 4.9 1.3 5.7 1q1.3-.4.9.7-.3 1.4-5.3.9c-5.6-.4-6.4-.7-6.4-2.7 0-1.7-.2-1.7 5.1.1M346 700q-.1.9-1.1 1-.8-.1-.4-1 .6-1 1.1-1 .4 0 .4 1m-74 3.5c1.3 1.4 2.1 2.7 1.9 3s-2.5.1-5-.3c-3.5-.6-4.5-1.2-4.7-3s.1-2.2 2.6-2.2q2.8 0 5.2 2.5m-27.4 2.2c-1 1-1.9-.5-1-1.8q.8-1.7 1.2 0 .3 1.2-.2 1.8M356 704q0 .9-1 1a1 1 0 0 1-1-1q.1-1 1-1t1 1m-10 4c0 .5-2.1.9-4.7.9-4.7-.2-4.7-.2-1.3-.9 5.2-1.1 6-1.1 6 0m-31.4 4.6q-.6 1.3-1.6.9-1-.6.2-2.8c1.2-2.4 2.4-.8 1.4 1.9m-45.3-1.4c2.8 1.4 3.8 3.4 1.1 2.4-.9-.3-2.7-.6-4-.6q-2.3 0-2.4-1.5 0-2.7 5.3-.3m-23.3 1.2q0 1.4-.9 2c-1 .7-2.3-1.9-1.4-2.8 1.1-1.1 2.3-.6 2.3.8m111 .6q0 2-2 2c-1.9 0-2.7-2-1.3-3.3 1.3-1.4 3.3-.6 3.3 1.3m-86 5.8c3 2.5 1.8 4.3-2.3 3.5s-5.1-1.7-4.4-3.7c.8-2.1 4-2 6.7.2m38 .4q0 2.3-1.1 1.1-1-1.1-.5-2.2 1.6-2.5 1.6 1.1m37.4-.3c.3.5-1.4 1.1-3.9 1.3-4.6.3-6.3-.7-2.2-1.5s5.6-.7 6.1.2m11.2 4.9c-.7 1.1-4.6.4-4.6-.8s3.3-1.8 4.4-.9q.6.8.2 1.7m-31.3 1.7c4.2.9 3.2 2.3-1.9 2.7q-7 .6-5-3.7.5-1.6 2.3-.6c1 .5 3 1.2 4.6 1.6m-56.2 2.6 2.4 2.1-2.5-.6c-1.4-.3-3.3-.6-4.2-.6q-1.7-.1-1.8-1.5c0-2.2 3.4-1.8 6.1.6m76.4.9c-.3.5-1.3.6-2.1.3q-1.8-.5-.3-1.4c1.5-.9 3.2-.2 2.4 1.1M237 737.8c0 9.4-1.4 8-1.8-1.9q-.3-7.2.7-6.4c.6.3 1.1 3.9 1.1 8.3m122-4.6q0 1.6-1 1.8c-.5 0-1-1.5-1-3.3q0-3.5 1-1.7c.5.8 1 2.3 1 3.2m-30.4-.1c.3.5-1.1.9-3.1.9-2.9 0-3.6.3-3.3 1.7q.5 1.6 2.8 2.1c4.7.7 4.8 2.3.1 2-3.8-.3-4.6-.7-5.4-3.1-1.4-4.3-.5-5.3 4.2-4.9 2.3.2 4.4.8 4.7 1.3m-59.9 1.1c4.2 1.5 4.3 2.9.1 2.2-5-.9-6-1.3-5.3-2.4.8-1.3 1.1-1.3 5.2.2m41 5q-.5 1.1-.6-.6t.5-1.3c.3.3.4 1.2.1 1.9M347 738q-.1.9-1.5 1c-1.4.1-1.5-.5-1.5-1q.1-1 1.5-1c1.4 0 1.5.4 1.5 1m-81 2q0 .9-1 1a1 1 0 0 1-1-1q.1-1 1-1t1 1m-19 1q0 .9-.4 1-.6-.1-1.1-1-.4-1 .4-1 1 0 1.1 1m26 5.1v3.5l-4.5-1c-5.5-1.3-6.3-3.8-.9-2.9 3.5.6 3.7.5 3.1-1.9-.4-1.4-.4-2.8 0-3.2 1.1-1.1 2.3 1.7 2.3 5.5m86-3.6c0 1.6-3.5 2.1-4.4.6-.8-1.2.4-2.1 2.6-2.1q1.7.2 1.8 1.5m-27.7 3.4c1.5 1.5 1 1.7-6.5 2.5-5.6.5-6.8.4-6.8-.8 0-.8.8-2 1.8-2.6 2-1.3 9.9-.7 11.5.9m16.7.8c0 1.5-7.5 1.9-8.4.4-.8-1.3-.1-1.6 4.3-1.6q4-.1 4.1 1.2M244.1 755c2.1.6 5.9 1.1 8.4 1.2 4.2 0 4.5.2 4.5 2.8 0 2.3.5 3 3 3.5 1.6.4 3.9.4 5 0s3.9-.4 6.2 0l4.1.7-2.9 2.5a23 23 0 0 1-5.6 3.4q-2.6 1-2.8 2c-.2 1-1 .9-2.2.9-5.2.1-19.8 12.3-19.8 16.6 0 .7 1.4 2.9 3.1 4.9 2.2 2.5 3.9 3.5 6 3.5 4.4 0 24.4-3.8 39.9-7.7 3-.7 6.6-1.3 8-1.3s4.5-.9 6.9-2 5.4-2 6.7-2 3.2-.4 4.2-.9 3-1.3 4.7-1.8a10 10 0 0 0 5-4c1.9-3 2.3-3.2 6.5-2.7 3.7.5 4.8.2 6.4-1.5 1.1-1.2 2.6-2.1 3.5-2.1a32 32 0 0 0 5.2-1.4c3.2-1.1 4.1-1.1 7.2.4 1.9.9 5.1 2 7.2 2.3 4.3.7 11.5 6.9 11.5 9.9q0 1.7-4.5 3.7a15 15 0 0 0-4.5 2.5c0 .3 1.1 2.2 2.5 4.2q4.8 7.5-3.4 3.9c-3.5-1.5-4.6-1.6-8.5-.5-3.2.9-4.9.9-6.4.1-5.1-2.7-22.8.1-27.1 4.3-1.2 1.3-1.1 1.6 1 2.5 1.3.5 6.8 1.7 12.2 2.7 5.3.9 9.7 2 9.7 2.5l-.2 1-65 .6c-47.5.4-64.8.3-64.8-.5 0-1.5 4.3-2.6 7.3-1.9q2.2.7 4-1.9l1.8-2.4h-3.6c-2 0-5.3.9-7.5 2-5.1 2.6-5.9 2.5-10.2-1-2.1-1.8-4.3-2.8-5.2-2.4-2.2.9-8.2-5.5-7.8-8.4.4-2.7 9.2-9.5 17-13.1 4.7-2.2 5.3-2.3 6.9-.9 2.8 2.5 8 3.1 13.2 1.7 5.4-1.4 7-2.5 8.2-5.6q.8-2.3 3.6-2.4c11.7-.6 14.4-1.4 12.9-3.8-.6-1-11.2-.7-14.8.5-2.3.7-2.6-.1-3.3-9.1a88 88 0 0 0-1.1-10q-.8-2.4 1.6.7c1.2 1.6 3.9 3.2 6.1 3.8m29.5-1.5q-.7 1.4-1.6 1-1.1-.7.1-2.1c1.4-1.8 2.4-1.1 1.5 1.1m58 .6c2.3 1.9.8 2.4-9.2 2.6q-14.8.5-6.1-3.3c3.7-1.7 13-1.3 15.3.7m15.4.9q-.2.9-2.5 1l-3.2.1q-.7 0-1.1-1-.1-1 3.2-1.1c2 0 3.6.4 3.6 1m12 2.5c0 2-.5 2.5-2.5 2.5-2.4 0-5.1-3.1-3.8-4.4.3-.3 1.9-.6 3.5-.6 2.3 0 2.8.4 2.8 2.5m-24.2 6.9c.4 3.2-1.8 3.5-3.7.5-1.2-2-1.9-2.1-9.7-1.6-4.6.2-8.4.1-8.4-.3 0-1.4 3.9-1.8 13-1.4 8.3.3 8.5.3 8.8 2.8m12.2-1.5q-.1.8-1.5 1.5-1.4.4-1.5-.9.1-1.3 1.5-1.5c1.4-.2 1.5.4 1.5.9m-27.4 5.5c-2.1.7-4.4 2-5.2 3.1-1.3 1.7-1.4 1.7-2 .1q-1.6-4.2 8.6-4.4 2.9 0-1.4 1.2m-32.3 1.8c-.3 1.3-1 2.8-1.5 3.5q-.8 1.1.2 1.8 2.5 1.5-1.5 3.3c-1.4.6-2.5 1.7-2.5 2.4s-1.7 2.7-3.8 4.4c-3.3 2.8-4.8 3.2-12.2 3.9-4.7.4-9.6 1.2-10.9 1.7-1.8.6-2.8.5-4-.6-3.6-3.7 3.5-11.2 16.6-17.7 4.8-2.4 7-3 9.6-2.5s3.8.2 4.7-.9c.7-.8 2.3-1.5 3.5-1.5 1.9 0 2.2.4 1.8 2.2m19.7 1.4q0 2.3-1 1.9c-1-.4-1-1.5-1-2.6q.1-1.7 1-1.9c.9-.2 1 1.2 1 2.6m-72.9 4.7q-1.2 1.2-1.1-.4c0-2 1.3-3.4 1.8-1.9q.3 1.2-.7 2.3m147 18.8a48 48 0 0 0 22.5 10.9c3.8 0 11.4 2.4 11.4 3.5 0 .3-12.5.5-27.9.5-26.6-.1-27.9-.2-27.4-2q.5-1.8-2.1-3.5c-1.4-1-2.4-2.1-2.1-2.5.8-1.3 5.8-1.8 8.4-.8 6.8 2.5 14.7-2.4 12.3-7.7-1.6-3.4-.8-3.2 4.9 1.6m-34.5 5.1c2.4 1.2 4.2 2.3 4 2.5-.4.4-14.3-1.5-17-2.3q-2.2-.6-.5-1.5c2.5-1.6 9.1-.9 13.5 1.3m-163.2 6.7c1.4 1.6 2.9 1.8 9.6 1.6 4.4-.2 8.2.1 8.5.6s-2.9.9-7.8.9c-4.6 0-11.8.3-16 .6-6.7.6-7.7.5-7.7-.9 0-3.9 10.4-6.1 13.4-2.8"/><path d="M288.3 141.1c-2.4.9-3.1 4.3-1.3 5.4.6.3 1 1.7 1 3q0 4.9 4 1.7c2.1-1.7 2.2-2.1 1-5.8-1.6-5-2-5.4-4.7-4.3M57.8 72.2q-2.6.9-2.8 1.8c0 1.6 3.2 2 5.3.5a10 10 0 0 1 4.4-1.5q2.1-.1 2.3-1c0-1.3-5.6-1.2-9.2.2M76.5 79q.5.9 1.1 1 .3-.1.4-1-.1-1-1.1-1-.8 0-.4 1m100.7 26.1q1 3 2 2.1 1-1-.1-3.1c-1.8-3.2-3.1-2.5-1.9 1m16.8 8.5c-2.9 2.5-3 2.7-1.4 4.5 2 2.2 3.6 1.5 3.2-1.4q-.2-2.1 1.9-3.2 2-1.2 1.6-1.8c-1.1-1.2-2-.8-5.3 1.9m7.9-1.5q-1.6.9 1.4.9 4.4 0 1.4-1.3-1.4-.4-2.8.4m17.2 4.9c1.9 1 4.1 2.6 4.8 3.4q1.2 1.4 2.2 1c1.4-.8-6-6.4-8.5-6.4q-2.6 0 1.5 2m-20.6 2q.7 1 1.6.5 2-1.4-.7-1.5-1.3.1-.9 1m8.5 0q3 2 3 0-.2-1-2.2-1-2.7-.1-.8 1m9.6 2.2c2.2 1.9 5.3 3.8 6.9 4.2s3.8 1.4 4.7 2.3 2.2 1.2 2.7.8c1.4-.8 1.4 2 0 4.3-.9 1.5-.8 2.5.7 4.7l1.9 2.9.5-4.4c.3-2.5.8-5 1.2-5.5q1.7-3.1-6.2-5.2c-2.8-.7-6.6-2.4-8.3-3.7a25 25 0 0 0-5.6-3.1c-1.9-.6-1.6-.1 1.5 2.7m15.9 1.1c1.1.7 3.4 2.8 5.2 4.6q3.2 3.3 3.3 2c0-1.7-3.3-5-6.7-6.8-2.9-1.5-4.4-1.3-1.8.2m13.6 7.6c-1.1.7-.9 1.1.8 2.1 1.3.6 3 .9 3.9.5 1.5-.6 1.5-.8-.2-2.1-2.3-1.6-2.6-1.7-4.5-.5M237 142c-2.5 2.6-3.1 2.8-6.1 2-2.5-.7-3.8-.6-5.6.5q-2.1 1.4-2.3 2c0 .2 2.4.3 5.3.3 2.8 0 6.4.3 7.9.7 2.4.6 2.7.4 3-2.1q.4-2.8 1.8-2.9 1.5 0 1.2 2.7c-.1 1.6.2 3.7.8 4.8 1.1 2.1 4 2.8 4 .9q0-.9-.9-.4t-1.5-.4.4-1.6c1.7-1 1.1-6.1-.8-7.8-2.6-2.4-4-2.1-7.2 1.3m-21 4q-1.2.9-.8 1.6c1 .9 3.8-.3 3.8-1.6q0-1.9-3 0m9.3 5.2c-4.4 2.1-2.6 3.6 2.1 1.8q2.4-.9 3.1 0 .5 1-.9 1-1.5 0-1.6 1c0 1.6 4 1.1 4.7-.5.3-.9-.2-2.2-1.3-3-2.2-1.7-3.1-1.7-6.1-.3m12 5.3c-.7 2 2.7 5.9 4 4.6 1.4-1.4-.1-6.1-1.9-6.1q-1.3.1-2.1 1.5m9.4 1.1c-1.3 1.3-.7 4.4.7 4.4q1.4 0 2-.9c.7-1.1-1.8-4.4-2.7-3.5m-20.9 1.8c-2.5 1.9-2.2 3.6.6 3.6q4-.2 2.8-3.8c-.5-1.5-1.2-1.5-3.4.2m26.5 1.3c-3.8 5.5-4.4 8.2-2.9 11.1 2.6 4.9 7.2 9.7 8 8.3q.8-1.2-1.3-1.8a3 3 0 0 1-2.1-2.6c0-1.1-.7-2.8-1.6-3.8-1.3-1.4-1.3-2.4-.5-5.7a13 13 0 0 1 2.6-5.2q1.3-1.2 1.5-2.1c0-1.8-1.9-.8-3.7 1.8m-32.3 9.9c0 2 1.7 4.4 3.2 4.4s.8-2.7-1.2-4.5c-1.9-1.8-2-1.7-2 .1m40 4.5c.9 1.6.9 2.8.1 4.7-1.4 2.9-.6 4.2 1.3 2.1 2.6-2.6 2.4-6.4-.5-7.9-1.9-1.1-2-1-.9 1.1m-79-3.5q.1 1.3 1 .9 1-.7.5-1.6-1.4-2-1.5.7m4.5 4-3 2.4 6.5-.2c5.9-.3 6.5-.5 6.6-2.5.1-1.8-.1-2-1.7-1q-2 1.3-3.7.1c-1.4-.9-2.4-.7-4.7 1.2m21.5 21.3q.1 2 1 2.1 1-.1 1-1.4c0-.8-.4-1.8-1-2.1q-.9-.3-1 1.4m71 28.6c-1.3 1.5-1 3 2.9 18.1a81 81 0 0 1 2.4 15.9c.2 6.1.6 8 1.9 8.9 3.2 2 4.1-.6 4.1-11.8 0-10.2-1.6-17.7-6.4-30.4-1-2.5-3.1-2.9-4.9-.7m-44.6 56q-1.4 3.9 3.2 4.1c1.6.1 4.6.5 6.6.9 5 1 9-.1 8.6-2.3q-.4-1.6-2.8-1.8c-1.4-.1-4.3-.6-6.5-1.3q-8.2-2.3-9.1.4m21.2 1.1c-1.1 2.8-.6 5.4.9 5.4 1.6 0 3.1-4.3 2-5.9-.9-1.6-2.2-1.3-2.9.5m-17.4 8.2c-.6.2-1.2 1.4-1.2 2.6 0 2 .7 2.4 4.6 3 7.2.9 10 .7 11.4-.9s2-1.4-7.5-3.7c-3.3-.8-6.6-1.3-7.3-1"/><path d="M229.7 296.7c-1.2 1.1-.7 4 .8 5.3 1.2 1 1.4 2.4.9 6.3l-.7 5 2.7-.5q2.6-.5 3.2.6t9.2 1.3c4.8 0 9.5.4 10.6.8q1.8.8 2.7-.6 2.3-3.5-3.7-3.5c-2.1 0-4.9-.6-6.1-1.2-2.8-1.6-10.6-1.5-12.1 0q-1.3 1.4-1.2-.9c0-3.6 2.4-4.6 9.5-4 3.6.4 7.4 1.1 8.6 1.7q5 2.7 4.9-3.9c0-4.7-1.8-6.3-3.7-3.4-1.3 2-1.6 2-6 .7-2.9-.9-6.5-1.2-9.4-.8-4.1.6-4.9.4-6.1-1.5q-2.1-3.2-4.1-1.4m26.9 55.6c-1.8 1.3-1.8 1.8-.6 4.8 1.9 4.8 2.4 5.2 6 4.4s4.9-3.1 2.7-4.8a7 7 0 0 1-1.9-3.2c-.4-2.5-3.6-3.1-6.2-1.2m3.6 13.9c-.5.5-.7 1.9-.5 2.9.8 2.8 6.8 2.3 6.8-.5 0-2.2-4.7-4-6.3-2.4m1.8 11.2q0 4.4 4.8 2.3c3.3-1.5 2.4-4.1-1.6-4.5-2.8-.3-3.2 0-3.2 2.2m5 13.8c0 3.2 1.7 4.6 2.6 2.3.4-.9 0-2.4-1-3.3-1.5-1.5-1.6-1.4-1.6 1m-2 8.8c0 2.5.4 3 2.5 3 2.5 0 4.6-2.6 3.8-4.8-.3-.6-1.8-1.2-3.4-1.2-2.6 0-2.9.4-2.9 3m1.2 7.2q-1.1 1-.1 3c.8 1.4 2.1 1.8 6.4 1.8 4.9 0 5.5-.2 5.5-2 0-3.4-9.1-5.5-11.8-2.8m2.3 9.2q-1.7 1.3-1.2 3c1 2.5 8 1.8 8.5-.8.7-3.3-3.9-4.7-7.3-2.2m-2 8.6c-.3.5.1 2.3 1 3.9s1.5 3.7 1.5 4.5 1 2.2 2.2 3q2.6 1.8.6 1.6-3.4.1-2.3 4c.7 2.3 4.9 2.7 9 .8 2.4-1.1 2.6-1.5 1.9-5.2-.3-2.3-1.3-4.8-2-5.7-1.3-1.4-1.2-1.8.8-3.1s2.1-1.7.9-3.2c-1.5-1.8-12.5-2.3-13.6-.6m7.6 22.1q-2.3.9-1.7 2.5t.6 2.5c.1.9.9.9 1.9.9 2.7 0 3.4 1.5 3.3 6.9 0 2.5.5 8.1 1.2 12.3 1.1 6 2 8.4 4.2 10.7 3.1 3.3 8.8 4.9 11 3 1.9-1.6.9-2.7-4.1-4.9-4.1-1.7-4.3-2.1-5.4-7.7-.6-3.2-1.7-8.1-2.5-11-.8-2.8-1.2-6.9-.9-9.2q1.2-9.5-7.6-6"/><path d="M291 470c-.6 1.2-.9 2.4-.6 2.7s3.1.6 6.3.7c5.3.1 5.8-.1 6.1-2.2.3-1.9-.1-2.2-3-2.2a28 28 0 0 1-5.5-.6q-2.2-.7-3.3 1.6m-36.6 10.6q-1 4.3 3.8 4.4 3.6 0 1.8-4.4c-1.3-3.5-4.7-3.5-5.6 0m-14.8 3c-2.9 4.3-3.3 7.1-1.2 9.9 1.2 1.6 1.6 1.7 3 .6q1.6-1.4 1-3.7c-.4-1.4-.1-3.8.6-5.5 2.1-5-.3-5.9-3.4-1.3m59.8-1.2c-1.3 3.4.3 4.4 8.1 5.1 5.4.5 8 .4 8.8-.4 1.8-1.9-1.5-3.8-8-4.6a49 49 0 0 1-6.9-1.2q-1.4-.4-2 1.1m-46.5 5.7c-1.3 2.4-.5 3.5 3.3 4.4 3.6.9 4.8-1.7 2.3-4.5q-3.4-3.9-5.6.1m35.8 1.6c-.3.5-.3 1.9 0 3.1q.6 3 6.3 2.4c3.1-.3 9 1 9 2 0 .6-1.1.8-2.5.4-4.1-1-7.5.3-7.5 2.9 0 1.2.6 2.6 1.3 3.1 1.8 1.3 22.4 1 28.7-.4q17.8-4.2-3.5-5.8c-8-.6-9.4-.9-6.9-1.6a9 9 0 0 0 4.4-2.3c2.2-2.7.1-3.6-7.8-3.5-4.3.1-10.7-.1-14.3-.5-4-.5-6.9-.4-7.2.2m-35.3 7.8c-1 2.5.4 4.5 3.1 4.5 3 0 4.3-2.4 2.5-4.5-1.6-1.9-4.9-1.9-5.6 0m91.3 7.5c-.5 2-1 2-18.1 1.7-10.6-.2-17.9 0-18.3.6-.3.5-2.3.7-4.4.4-4.8-.6-7.1.9-5.8 4q1.1 3.3 10.4 2.5l19.2-.5c19.2-.3 20.3-.7 20.6-6.8.2-3.9-2.7-5.4-3.6-1.9m-91.6 1.2q-1.5 4.5 2.8 3.3c2.9-.9 2.9-5.5.1-5.5q-2 .1-2.9 2.2m2.5 7.3q-.6 2.5-2.7 2.5c-2.5 0-3.5 2.5-1.8 4.6 1.8 2.2 6.4 1.4 6.5-1.1 0-1.1.4-2.8.8-3.8.9-1.9.2-4.7-1.3-4.7q-.9.2-1.5 2.5m44.8 3.7c-.4.5.1 1.7 1 2.6 1.1 1.2 3.9 1.7 10.6 1.9 5 .2 10 .8 11.1 1.4 2 1 25 4.1 25.7 3.4.2-.2-.2-1.6-1-3.1-1.5-3.2-2.6-3.5-18.3-5.5-13.2-1.7-28.3-2-29.1-.7m-51.2 7.7c-.8.4-1.2 1.7-1 2.7.5 2.6 8.5 3.3 9.4.9.4-.9.3-2-.2-2.5-1.5-1.3-6.8-2.1-8.2-1.1m57.6.3q-5.9 1.6-2.5 4.6c.6.5 7.7 1.2 15.7 1.4 12.4.2 14.5.1 14.5-1.2 0-3.4-20.1-6.9-27.7-4.8m-34.2 5c-2 2.9-.4 4.8 4 4.8 2.9 0 3.4-.3 3.4-2.5s-2.4-4.5-4.9-4.5c-.5 0-1.7 1-2.5 2.2m69.8 2.3q.4 6.4 4.5 5c2.4-.7 2.6-2 .9-5.8q-1.4-2.6-3.5-2.7c-1.9 0-2.2.5-1.9 3.5m-92.6 1.5q-1.5 1-1.1 3c.4 1.6 1.4 2 4.9 2q7 .1 4.1-3.3c-1.6-2.1-5.7-3-7.9-1.7m59 1c-2.2 1.3-1.2 4.9 1.6 5.4 1.1.3 9 .7 17.4 1.1l15.3.6-.3-2.3c-.2-1.9-1.4-2.6-6.8-3.9a78 78 0 0 0-27.2-.9m-35.5 5.5c-.9 2.2-.8 2.7.7 3.5 2.7 1.4 5.6 1.2 7-.5 1-1.3 1-1.9-.5-3.5-2.5-2.8-5.7-2.5-7.2.5m4.7 8c-.7.8-.9 2.2-.6 3.1.5 1.3.9 1.4 2.1.4 1.7-1.4 2-3.6.6-4.4q-.9-.4-2.1.9m44.3 5.2c-2.6.5-2.7 1.1-1.3 4.7.8 2.2 1.6 2.6 4.8 2.6 4.1 0 8.2-2.3 8.2-4.6q0-1.4-3.4-1.4c-1.9 0-3.8-.5-4.1-1q-.6-.9-1.3-.9zm-3.8 10.7c-1.6 1.2-1.8 1.8-.9 3.3a10 10 0 0 0 3.4 3q4.6 2.2 2.9 5.5c-1.8 3.4-.7 7.2 2.4 8.2 3.5 1.3 6.2-.2 6.2-3.5q.1-2.4-2.5-2.9t-1.2-1.4c.7-.4 1.2-1.5 1-2.4-.1-1 .6-2.9 1.6-4.4 2.3-3.5 1.6-4.4-3.7-5.1-2.3-.3-5-.9-5.8-1.2s-2.3.1-3.4.9m-54.4 2.4c-1.4 2.7-1.4 3.2.3 3.2 1.8 0 3-3 1.7-4.3q-1-.8-2 1.1m1.2 15.8c-.8 2.1 2.3 5.2 3.8 3.7 1.4-1.4.2-5.3-1.7-5.3q-1.3.1-2.1 1.6m.4 8.1c-1.3 1.3-.7 5.1.9 5.7s4.4-.9 4.4-2.5c0-1-2.9-3.9-3.9-3.9q-.8 0-1.4.7m42.6 19.4a6 6 0 0 1-.4 3.8q-1 1.6 0 4.4c.9 2.3 1.4 2.6 3 1.8 1.4-.8 1.8-2.1 1.7-5.3-.1-4.9-1.1-6.8-3.3-6.8q-1.6 0-1 2.1m-1 14.5a26 26 0 0 0-.7 5.2c-.1 5.1 3.1 5.1 5.9 0 1.6-3 1.7-3.9.6-5.2-1.7-2.1-5-2.1-5.8 0m15.8 13.3c-2 1.3 0 6.5 2.5 6.9 5.4.8 9.3-3.5 6.2-6.6-1.4-1.4-6.7-1.6-8.7-.3M44 169.9c0 1.3 2.9 3.5 3.7 2.8.7-.8-1.5-3.7-2.8-3.7q-.8 0-.9.9m127 30.8c-6.6 1.2-3.7 5.3 3.7 5.3 5 0 6.9-2.3 3.8-4.6-1.9-1.4-2.9-1.5-7.5-.7m21.2 7.8c.8 7.1 3 8.4 2.6 1.6q-.3-5.4-1.7-5.9c-1.1-.4-1.3.5-.9 4.3m2.5 10.1c-.8.8.1 2.4 1.4 2.4q.8-.1.9-1.5c0-1.5-1.2-2-2.3-.9m-.5 6.6c.7 1.9 3.8 2.2 3.8.4q-.2-1.6-2.1-1.6t-1.7 1.2m.4 4.5c-1.3 1.3-.5 4.3 1.3 5.2q2.9 1.3 3.1-2.9c0-1.2-3.6-3.1-4.4-2.3m1.9 8.3q.6.9 1.1 1 .3-.1.4-1-.1-1-1.1-1-.8 0-.4 1m.1 2.9q-.4.9.9 2.1 1.6 1.6 1.5-.3c0-1.9-1.6-3.1-2.4-1.8m-.6 8.9q0 1.7 1 2.8c.5.5 1.1 2.2 1.2 3.7s.6 2.7 1 2.7c.9 0 1-5.5.2-8.8-.7-2.6-3.4-3-3.4-.4m2.3 13.6c.4.9.2 2.5-.5 3.5-.9 1.4-.8 2.7.5 5.7l1.6 3.9v-6.7c.1-4.1-.4-7-1.1-7.4q-1.2-.8-.5 1m.7 26.5c0 1.7.5 3.1 1 3.1q1-.2 1-2l.1-2.7q0-.7-1-1.1c-.6-.2-1.1 1-1.1 2.7m0 7q.1 1 1 1.6 1 .4 1-.9 0-1.5-1-1.6-.9 0-1 .9m.2 5.2q.5 1.2 1.7 1.7 1.3.4.9-.9-.5-1.2-1.7-1.7-1.3-.4-.9.9m.5 4.3c-.3.7-.1 1.8.5 2.4q1.2 1.1 0 2.5c-1.4 1.6-.2 9.9 1.5 10.4 1.2.4 1.4-2.1.6-11q-.8-8.4-2.6-4.3m1.9 18.3c-1.1 1.1-.6 2.3.9 2.3q1.4 0 1.5-.9c0-1.3-1.6-2.2-2.4-1.4m.4 6.8q.1 1.4 1 1.5 1-.1 1-1.5c0-1.4-.4-1.5-1-1.5q-.9.1-1 1.5m.5 7.5q.6.9 1.1 1 .3-.1.4-1-.1-1-1.1-1-.8 0-.4 1m.5 6.6q.1 1.3 1 .9 1-.7.5-1.6-1.4-2-1.5.7M227 748q.1.9 1 1 1-.1 1-1t-1-1a1 1 0 0 0-1 1m-7.5 12.2c-.8 2.4.1 8.2 1.3 8.6q1.2.4 1.2-4.7c0-4.7-1.5-6.9-2.5-3.9m-77.8-536.5c-1.5 1.4-.6 4.1 1.6 4.7q5.8 1.7 5.7-1.4c0-2.8-5.4-5.3-7.3-3.3m94.8-3.5a14 14 0 0 0 .3 5.3c.8 2.9 1 3 7.5 3 7.5 0 8.8-1.8 1.6-2.3-2.4-.1-5.1-.5-5.9-.8-1.3-.4-1.3-.6 0-1.5s1.2-1.1-.4-2.4c-1.9-1.4-1.8-1.5.5-2.4l2.4-1h-2.7c-2.1-.1-2.9.5-3.3 2.1M16.5 164c-.7 1.1 3.1 6 4.7 6s.7-2.7-1.6-4.9q-2.4-2.3-3.1-1.1m80.7 2c-3.8 2.7-5.5 5.1-3.4 4.9 1.6-.1 9.6-5.5 10-6.7.7-2.1-2.4-1.3-6.6 1.8M8 168q.1.9 1.6 1 1.3-.1.9-1-.6-1-1.6-1-.8 0-.9 1m10 5.5q1.2 1.4 1.7 1.1c.7-.7-.7-2.6-1.9-2.6q-1 0 .2 1.5m-11.8 1.7c.5 1.5 2.8 2.3 2.8 1 0-.5-.7-1.3-1.6-1.6q-1.5-.5-1.2.6M97 175q0 .9.9 1 1-.1 1.6-1 .4-1-.9-1-1.5 0-1.6 1M3 188c0 .5 1.8 1 3.9 1 2.2 0 4.3-.5 4.6-1 .4-.6-1.2-1-3.9-1-2.5 0-4.6.4-4.6 1m14.6-.1q-.5.9.3 1.5t1.5-.3q.5-.9-.3-1.5t-1.5.3M94 189q0 .9.9 1 1-.1 1.6-1 .4-1-.9-1-1.5 0-1.6 1m2.8 5.7c-2.1.2-3.8.8-3.8 1.3 0 1.5 10.3.7 10.8-.8q.2-1.1-1.5-1zM18 197q0 .9.9 1 1-.1 1.6-1 .4-1-.9-1-1.5 0-1.6 1m-15 .8c0 .4 1.6.6 3.5.4s3.5-.6 3.5-.8-1.6-.4-3.5-.4-3.5.4-3.5.8m15 6.2q0 .9.9 1 1-.1 1.6-1 .4-1-.9-1-1.5 0-1.6 1m75.5 1c-.8 1.2 2 2.4 3.5 1.5q1-.7.5-1.6c-.8-1.2-3.2-1.2-4 .1m-86 2-3 .8 3 .1c1.7 0 3.7-.4 4.5-.9q2-1.2 0-.9zm.8 13.7c-3.7 2.1-5.6 4.3-3.8 4.3a43 43 0 0 0 10.5-6.3q-.1-2-6.7 2m85.2-1.8c-.9 1.5 8.3 7.4 10.3 6.6 1.5-.6 1.5-.8-.3-2.1-3.8-2.9-9.4-5.4-10-4.5M89 222q.1.9 1.6 1 1.3-.1.9-1-.6-1-1.6-1-.8 0-.9 1m5.4 2.1c-.9 1.5 6.8 8.9 9.1 8.9s1.7-.9-3.7-5.8q-4.7-4.4-5.4-3.1m-1 7.3c-.3.8.5 3.4 1.8 5.7 4.1 7.6 6.7 5.6 2.8-2.1q-3.4-6.8-4.6-3.6m-81.7 3.3q-.6.6-.7 1.7 0 .9 1.2-.2 1-1 .7-1.7-.6-.4-1.2.2M18 237q.1 1.8 1 2 1-.2 1-2c0-1.8-.4-2-1-2q-.9.2-1 2m445.1 418.2c-2.6.9-4.1 3.9-4.1 8.1 0 3-.4 3.5-2.8 4-1.6.3-3.9 1.5-5.3 2.6-3.4 2.8-1.6 5.5 4 5.9 4.9.4 5.5 2.2.7 2.2-1.9 0-4.4.9-5.7 1.9-2 1.6-2.2 2.3-1.4 4.7.9 2.6 1.5 2.9 6.3 3.2 2.8.2 5.2.7 5.2 1.3q-.2.8-2 .9-2.6.3-5 2.7c-3.8 3.4-5.2 10.1-2.6 12.2q3.6 3 3.6-4.9-.1-7.1 4.9-7c1.3 0 2 7.2 2.6 27.4.4 12 .9 17.2 1.7 17.8 1.8 1.1 2.4 1 3.8-.7 1-1.1 1-4 0-13.2a156 156 0 0 1-1.1-24.4l.1-6.5 10.8-1.1c14.5-1.4 19.8-4.7 13.8-8.6-1.3-.9-2.3-2.4-2.2-3.4.1-1.6-.9-1.8-11.1-1.7-10.5.2-11.3 0-11.3-1.7s.8-1.9 7.3-1.9c3.9 0 7.8-.4 8.6-.9 2.1-1.3.5-4.1-2.3-4.1q-2.6 0-2-1.5c.5-1.2-.5-1.5-5.6-1.5-4.5 0-6.1-.3-5.8-1.3.3-.6 1.7-1.3 3.1-1.5a7 7 0 0 0 4.4-2.8c1.4-2.3 1.4-2.6-.1-4.3-1.9-2.1-7.4-3.1-10.5-1.9m4.9 4.8q-.2.9-1.7 1-2.2.1-.3-1c1.9-1.2 2-1.2 2 0m-9 23.2q-.2.8-2.5.8c-2.3 0-2.5-.4-2.5-.9s1.1-.8 2.5-.7q2.3.1 2.5.8m27.5 2.8c1.7.6 1.5.9-1.5 1.4-5.8 1.2-18.9 1.2-19 .1 0-.6 3.5-1.3 7.7-1.6l9.3-.6a8 8 0 0 1 3.5.7"/><path d="M470.6 697.6c-2 1.9-2 2.9 0 4.8q1.5 1.7 3.4.6c2.1-1.1 3.5-4.4 2.5-6s-4.2-1.2-5.9.6M239.3 824.5c-.3.9.2 2.4 1.1 3.4 1.5 1.6 1.7 3.9 1.5 15.8l-.2 13.8 3.4.3c1.9.2 4.2-.3 5.3-1.1 1.6-1.1 1.7-1.7.7-3.6-.7-1.2-1.1-4.1-.9-6.4l.3-4.2 4.8-.5c2.6-.4 5-.4 5.2-.1.3.2.5 3.5.5 7.1 0 7.9 1 9.2 6.3 8.3q6.2-.9 3.9-3.6c-1-1.1-1.8-23.8-1-28.2.2-1.6-.3-2.1-3-2.3-5.5-.5-7.4 2-6.6 8.5l.6 5.3h-10.5l.6-5.9q.4-5.7-.6-7c-1.7-1.7-10.6-1.4-11.4.4m36.9-.6c-1.1.6-1.1 1.6-.3 4.7 1.4 5.1 1.4 25.1 0 25.9q-4.6 2.8 11.1 2.7c9.8 0 11.6-.3 12.7-1.8 1.4-1.9 1.8-7 .6-7.7-1.5-.9-5.3 1.2-5.3 2.8 0 1.3-.9 1.5-3.7 1.3-3.2-.3-3.8-.7-4.1-2.8-.3-3.6 1.2-5.7 3.1-4.2 3.6 3 5.9-1.5 3.7-7.2-1.1-3.1-2.4-3.3-4.7-.7q-1.5 1.8-2.5 1.5c-1.2-.7-1-10.2.2-10.9 1.7-1.1 5 .5 5 2.4 0 1 .9 2.6 2 3.6 1.6 1.5 2.2 1.5 3.5.5 2.3-1.9 2-8.7-.4-10-2.3-1.2-19-1.3-20.9-.1m33.1-.1c-2.4.4-3.1 2.8-1.1 3.4.9.3 1.3 4.6 1.5 14.9l.2 14.4 5.4.2q10.2.5 6.3-3.6c-1.4-1.5-1.6-2.8-1.1-6.5.4-2.5 1.2-4.6 1.9-4.6 1.2 0 6.9 6.6 7.9 9.2.3.9 2.4 2.6 4.6 3.8 7.3 3.7 11.6 1.8 6.3-2.8a52 52 0 0 1-9.2-11.7c0-.4.9-1.8 2-3.2 3.5-4.4 2.5-10.8-1.9-12.5-2.6-1-18.6-1.7-22.8-1m16.7 4.7c.7.9 1.3 3.2 1.4 5.3.1 3.6 0 3.7-3.4 3.7h-3.5l-.3-5.3c-.3-4.9-.2-5.2 2.1-5.2 1.4 0 3 .7 3.7 1.5m-242.8-3.3c-2.6.7-3.2 1.3-3.2 3.6 0 3.4 2.6 7.3 4.4 6.6.8-.3 1.7-1.7 2-3 .5-1.9 1.2-2.5 2.9-2.2 2.2.3 2.2.5 1.8 12.3-.2 8.8-.7 12.5-1.8 13.7-2.6 2.9-.6 3.8 8.2 3.8 9.1 0 11.3-1.1 7.7-4.1-2-1.6-2.2-2.6-2.2-13.7v-12l3-.4c2.4-.4 3.5.1 4.9 2 2.4 3.3 5.1 2.4 5.1-1.6 0-1.6-.6-3.5-1.4-4.1-1.7-1.4-26.6-2.1-31.4-.9m65.8-.4c-7.3.3-8.6.8-7 2.6.6.8 1 3.2.8 5.3l-.3 3.8-6.7.3-6.7.3-.3-5.8-.3-5.8-4.4-.3q-8.8-.7-6 2.4a40 40 0 0 1 1.7 13.5c.4 9.8.2 12.3-1.2 14.4a9 9 0 0 0-1.6 3.3c0 1.1 14.1.5 15.3-.7q.8-1-1.2-2.1c-2-1-2.2-1.8-1.9-7.8l.3-6.7h13l.3 6.8c.3 6.2.1 6.9-1.8 7.4-2.5.7-2.6 3-.2 3.7s12.9.2 13.8-.7q.5-.6-.6-2.2-1.2-1.3-1.4-14.1c-.1-10.9.2-12.8 1.7-13.9 1.8-1.3 2.3-3.2 1-3.7-.5-.2-3.3-.2-6.3 0m13.1 0c-1.1.8-1.1 1.6-.1 4.8.9 2.7 1.1 7.2.6 16-.5 9.3-.4 12.4.6 13 .6.4 6.1 1 12 1.2l10.8.5 1.9-4.4c1.2-2.7 1.6-4.8 1.1-5.3-1.4-1.4-5.7.9-6.5 3.3-.5 1.7-1.5 2.1-5.1 2.1H173v-6c0-4.7.3-6 1.5-6q1.4.1 1.5 1.9c0 2.5 2.7 4.8 4.1 3.4.5-.5.9-3.9.7-7.4-.3-5.6-.6-6.4-2.4-6.7q-2.2-.4-2.7 1.7c-1 3.8-2.7 2.2-2.7-2.4V830h4.2q4.2 0 6.5 2.1c1.8 1.8 2.5 2 3.8.9 2-1.7 1.9-5.7-.2-6.9a91 91 0 0 0-25.2-1.3m181.6-.1c-.9.8 1.2 3.3 2.9 3.3 1 0 1.4 3 1.6 12.7.2 7.1-.1 13.4-.6 14.1-1.5 2.1.8 3.4 5.4 3s6.6-2.6 3.1-3.5c-1.9-.5-2.1-1.3-2.1-7.9 0-4.1.3-7.4.8-7.4s1.9 2.1 3.4 4.8c6.5 11.5 10.1 12 16.6 2.2l4.3-6.5-.2 8.5-.2 8.5 5.6.3c3.2.2 5.7.1 5.7-.3q-.2-.6-1.8-2.3c-1.7-1.7-1.8-3.2-1.5-13.3a55 55 0 0 1 1.4-12.4q3.7-3.5-5.1-3.5c-5.6 0-6 .1-5.8 2.3s-6.9 15.8-8.2 15.7c-.3-.1-2.5-3.3-4.9-7.3l-5.8-9.5c-1.2-1.9-2.2-2.2-7.7-2.2-3.4 0-6.6.3-6.9.7m52.8.4q-.5 1 1.1 2.4c2.2 1.5 2.1.6 2.2 16.2l.2 12.3h6.1c5.5 0 6-.2 5.3-1.8-.5-.9-.9-7.6-.9-14.7-.1-7.2-.5-13.6-.9-14.3-.9-1.5-12.2-1.6-13.1-.1m20.9.3c-.3.8-.4 2.9-.2 4.8.4 4 3.4 4.9 6.3 1.8 1-1.1 2.7-2 3.8-2 1.9 0 1.9.5 1.2 11.7-.5 8.6-1.1 12.1-2.1 13-1.4 1-1.3 1.2.2 2.1 2 1.1 14.4.4 15.9-.9q.8-.9-.7-.9c-2.4 0-2.9-2.7-2.7-12.7.2-12.8 1-14.5 4.6-10.3 3.3 3.8 7.3 1.9 7.3-3.6q0-3.1-1.6-3.8c-.9-.3-8.3-.6-16.5-.6-11.9 0-15.1.3-15.5 1.4m38.4 25c-4 3-.9 6.9 3.8 4.7q2.6-1.1 2.2-3.4c-.4-2.6-3.5-3.3-6-1.3"/></svg>