<svg xmlns="http://www.w3.org/2000/svg" width="666.7" height="1170.7" viewBox="0 0 500 878"><path d="M6.7 38.7c-.3 21.4-.6 160.5-.6 309.3 0 168.9-.3 273.4-.9 278.3a40 40 0 0 0-.4 9.9q.5 2-1.6 3.7c-1.8 1.4-2.1 3-2.5 15.4-.3 7.5-.2 13.9.3 14.2s1.8-.7 3-2c1.4-1.4 3.4-2.5 4.9-2.5 2.4.1 2.5.1.6 1.2-1.1.6-3.7 2.7-5.8 4.6-2.8 2.8-3.7 4.4-3.7 6.9 0 3.4-.1 3.4 6.5 3.7 1.6.1 1.9.7 1.7 3.1-.1 1.6.2 3.7.8 4.5 1.4 2.2 4.4.1 5-3.5.6-3.2 2.7-4.4 3.6-2.1 1.1 2.9-.4 6.1-3.6 7.3-3 1.1-3 1.2-3 8.3 0 6.1-.2 7.1-1.6 6.8q-1.6-.5-2-3.3c-1.2-12.8-2.3-16.5-5-16.5-1.2 0-1.4 1.5-1 9.5.3 5.6.2 9.7-.4 10s-1 1.9-1 3.6v2.9h35.4c19.5-.1 36.6.2 38 .6 2 .5 2.6 1.2 2.6 3.5 0 3.7 6.7 8.9 11.5 8.9 1.8 0 4.7.3 6.5.6 2.9.6 3.1 1 2.6 3.5-1.1 5.8 5.3 19.2 10.2 21 3.4 1.4 10.9.4 17.5-2.2 4.4-1.8 6.5-2 13.2-1.5 7.5.6 8.2.5 12-2 2.2-1.5 4.3-3.3 4.8-4s3.7-2.2 7.5-3.4c3.7-1.3 7.1-2.6 7.7-3.1 1.6-1.5 8.2-1 12.2 1 2.1 1.1 5 2.2 6.5 2.5q2.8.7 5.2 4.4c1.3 2 3.1 4.3 4 5.1 1.2 1 1.4 2.3 1 5.2-.6 3.7-.5 4 2.9 5.4 7.5 3.1 24.5-2.3 35-11.1 2.4-2 3.7-2.4 6.1-1.9 4.9 1 13.6.6 20.5-1.2 3.6-.8 10.8-1.7 16-1.8 5.3-.2 16-.7 23.9-1.3 7.9-.5 16.1-.8 18.2-.5s5.1.1 6.7-.4c1.8-.6 7.7-.7 16.3-.1 11.7.8 14 .7 17.9-.8 3.3-1.3 7-1.6 14.5-1.5 17.2.5 19.9.3 23.8-1.5 3.6-1.6 4.5-1.6 13.1-.2 7 1.1 10.9 1.3 16 .5 8-1.1 8.9-2.3 7.5-8.7a53 53 0 0 1-.9-17.5c.4-.2 12.6-.5 27.1-.6 30.6-.3 37-.7 37-2.4 0-1-8.3-1.3-36-1.4-30-.1-36.6-.3-39-1.6-1.6-.8-4.5-1.5-6.5-1.5-3.6 0-17.6-4.4-23.3-7.4-6.6-3.4-8.8-8-5.7-12 1.7-2.2 3.5-1.3 3.5 1.9 0 6 2.7 7.4 3.3 1.7l.4-3.7.1 3.6c.2 3.8 2.6 6.9 4.2 5.3.5-.5 1-2.7 1.2-4.9q.3-4 1.8-4c1.1 0 1.6 1.5 2 5.6.5 5.6 2.4 9.3 4.4 8.6q1.1-.5.7-8.3c-.2-5.8 0-7.6.9-6.8.6.6 1.2 4.2 1.4 8l.5 7.6q.3.8 1.6.8c2.4 0 3.6-3.7 3.3-9.7q-.3-5.7 1-6c1-.4 1.3.9 1.1 5.4-.2 6.3.4 8.3 2.6 8.3 1.9 0 2.5-2.3 2.5-9.1v-6l9.7.3 9.8.3.5 3c.7 4.1 4.4 4.3 4.8.2.5-3.9 2.2-3.3 2.2.8q0 3.5 1.5 3.5c1.7 0 3.5-3 3.5-5.9q.1-2 1.3-2.1c1 0 1.2 1.6.9 6.5-.5 7.1.9 10.5 3.4 8.4 2.2-1.8 1.9-12.5-.4-13.8-1.4-.8-1-1 2-1.1 3.4 0 3.7.3 4.2 3.2.3 1.8.4 6.1.3 9.5-.1 3.9.3 6.7 1.1 7.5 2.2 2.2 3.3-.6 3.6-10.3.2-7.4.6-9.5 1.8-9.7 1.8-.3 3 7.6 2.2 14.2-.6 4.7.6 7.2 3 6.3 1.6-.6 2-4.5 1.6-16-.1-4.4 0-4.7 2.3-4.7 2.4 0 2.6.4 3.1 6.2l.9 10.3c.2 3.3.6 4 2.2 4 1.9 0 2-.7 2-10.5v-10.5l3.3-.3q3.1-.4 3.2-1.8c0-1.1-1.2-1.3-6.2-1-8.9.7-98.9.9-99.5.2q-.3-.6 2.3-1.8c1.6-.7 5.5-2.9 8.7-5 6-3.9 7.5-3.8 3.2.2q-4.7 4.2-.1 4c2.3 0 6.5-3.9 9.2-8.5q1-1.8 1.7-.8c.4.6-.3 2.2-1.4 3.7-1.7 2.2-1.8 2.7-.5 3.2 2 .8 3.4-.2 5.7-4 1.7-2.8 1.9-2.9 1.9-.9q0 2.1.9 2.3c2.3 0 4.1-1.4 4.1-3q.1-1.8.8-2.4c.4-.3 10.2-.8 21.8-1.2l20.9-.7 1.9 4.2c1 2.3 1.5 4.5 1.2 4.8-.8.9 1.4 3.3 3 3.3 1.4 0 1.4-5.7-.1-9.2-.6-1.5-.2-1.8 2.7-1.8 2.8 0 4.1.7 6.5 3.7a30 30 0 0 0 7.2 6.1c3.9 2.2 4.1 2.2 4.1.3 0-1.1-1.4-2.7-3.5-4-4-2.3-5.3-4.7-3.6-6.4.7-.7 1.1-5.4 1.1-12.9V639l-3.4-1.4-3.3-1.4-.3-19.8-.3-44.2v-24.3l5.1-5.2c7-7.1 7-12.7.1-12.7-1.5 0-3-.3-3.3-.8-.5-.8-1.5-246.8-1.6-405.7-.1-61.1-.4-113.8-.7-117.3-.4-4.4-1-6.2-2-6.2q-1.3.2-1.2 1.7c.3 3.9 0 4.6-1.6 3.3-.8-.7-1.5-1.9-1.5-2.6q-.1-1.3-1.1-1.4-.8.2-.8 1.7c.5 5.7-.2 31.3-1 30.9-.4-.3-1.2-6.9-1.6-14.6-.4-8.7-1.1-14-1.7-14-.8 0-.8 5.3-.3 17.2.4 9.5.8 18.2.7 19.3l1 24.5c1.2 28.1 1 46-.3 47.7-.8.9-.9 14.4-.4 44l1 62.3c.3 16.4.6 19.5 1.8 19.8 2.9.6 3.3-20.5 1-54.3-.7-11.7-.7-55.2.1-90.5.2-9.6 0-23.1-.4-30-.6-10.3-.4-12.8.8-14.2 1.1-1.3 1.5-5.7 1.7-20 .4-21.5 1.9-29 2.7-13.3.9 16.9.8 370.8-.1 374.5-.6 2.9-.9 1.9-1.5-6.2-1.3-16.3-2.6-12.4-2.6 7.9 0 10.3-.3 25.9-.7 34.7-.5 13.4-.4 15.8.8 15.4 1-.3 1.7-4 2.5-14.4.6-7.6 1.2-13.7 1.3-13.4s.5 8.3.8 17.7c.4 14.9.3 17.3-1 17.3-1.1 0-1.6 2.3-2.2 11a61 61 0 0 0 0 12q.4.9-.4 1c-.6 0-1.1-1.1-1.1-2.5 0-5.2-3.2-15.5-4.8-15.5q-1.5 0 1.3-2.6 3-2.5 1.7-3.6-1.1-1.2-2.7.2c-1.4 1.2-1.8 1.1-2.6-.1-1.4-2.2-.6-4.4 1.9-4.4 3.4-.1 3.1-2-.4-2.3q-3-.4-6 2.1-5.3 4.3-16.2 3c-4.7-.5-5.6-1-7.8-4.2-2-2.9-2.4-4.8-2.4-10.4 0-3.9.6-8 1.4-9.5 1.4-2.8 1.1-7.8-.5-8.8-1.9-1.1-.9-5.4 1.8-7.1 2.5-1.7 2.7-1.7 3.7.1q4 6.5 6.6 6.6 4.7 0 2.4-7.8c-.8-2.5-1.4-6.7-1.4-9.4 0-3.7-.4-5.1-2-6q-1.8-1.2-2-2.5c-.2-1.3-.4-1.3-.9-1.3s-1.3-1-1.8-2.3c-1.8-5-12.1-20.5-16.5-25-3-3-4.8-5.7-4.8-7.2 0-1.3-2.1-5-5-8.6l-5-6.2-.1-36.1a11540 11540 0 0 1-.5-290.4l.7-13.3-2.3.3c-2.2.3-2.3.7-2.3 8.8s-.2 8.7-3.7 14c-2 3-6 7.5-8.9 10a406 406 0 0 1-41.4 28.5 58 58 0 0 0-8 5.4 179 179 0 0 1-38 18A354 354 0 0 1 222 94a403 403 0 0 1-18.5-1.5c-12.5-2.2-42.6-12-55-17.9a576 576 0 0 0-35.8-16.1c-2.6-.9-6-2.7-7.5-3.9s-5.4-3.9-8.7-5.9a62 62 0 0 1-16.7-14.6c-1.5-2.2-1.8-5-1.8-18.4C78 3.8 77.7 0 76.7 0s-1.3 17-1.5 81.7c-.3 82.7-.6 104-1.6 105.1-.3.3-.6-6-.6-13.9l-1.1-89.4c-1-71.3-1.2-75.1-3-77.7-1-1.5-1.9-3.3-1.8-4q.1-1 1.1 1c1.3 2.7 3.2 2.4 3.6-.6.3-1.9-.1-2.2-3.2-2.2-2 0-4.6.6-5.7 1.2q-2.4 1.5-2.6 0a1.7 1.7 0 0 0-3.3.6c0 1.1-.9 2.7-1.9 3.6-1.7 1.6-1.9 3.1-1.8 15.4.1 8.5.6 13.6 1.2 13.5C55.8 34 57 20 56.3 13.9c-.5-4.1-.2-4.8 2.2-6.7 3.4-2.7 5.7-2.8 7.8-.4 1.4 1.6 1.7 8.7 2.2 63.7.5 56.9.8 75.4 2 116.5l1 46c.3 17.3.8 33.9 1.1 36.7s.3 5.7 0 6.1c-.3.5-2.2.6-4.3.3l-3.8-.6-.2-36c-.3-37.1-.3-191.2 0-216 .1-14.5-.5-18.7-2.5-16.7a8405 8405 0 0 0-.7 246.5q1 3-.7 3.4-1.5.5-.4 1.8t-.5 2.5c-1.9 1.6-1.9 5 0 5q1.3 0 1.5 1-.1.9-1.4 1-1.4.1-2 1.6c-.8 2.2-.8 2.2 1.1 2.6q2 .2-.9 1.5l-2.6 1.2-.7-21.7c-.4-11.9-.5-36.3-.1-54.2s.7-52.1.7-76 .5-48.9 1-55.5c1.1-13.8.3-28.8-1.4-28.2-.7.2-1.3 2.1-1.4 4.3-.5 13.3-1.4 88.3-1.9 157.4-.3 44.3-.7 81-.9 81.6s-2.9 1.4-6.1 1.6c-4.4.4-6.5.1-8.8-1.3-5.3-3-10.9-2.8-15 .4-2.6 2.1-2.9 3.1-3.2 8.4-.2 5.5 0 6.4 2.5 8.7 3.5 3.4 8.8 4.3 12.7 2.3 1.6-.8 6.7-1.8 11.4-2.2l8.5-.6-3.2 2c-3.7 2.3-4.2 3.7-4.1 11.8q0 6.4 1.8 8.5c2.3 3.1 3.4 6.5 3.4 11.3.1 3.2.6 4.2 2.3 5q2.4 1 3.8 6.1c2 6.9 1.9 9.1-.5 12.1-4.1 5.2-1.9 10.2 5.5 12.7 4.9 1.7 5.5 1.7 8.5.2 5.8-2.9 6-2.7 6.1 9.1a9463 9463 0 0 1-.6 151.3c-.7 32.7-.9 34.2-1.5 12-.4-16.2-.7-19.5-2-19.5-1.5 0-1.6 6.6-.8 53.5.2 10.2.1 20.1-.3 22q-.5 3-.8 2.2c-.2-2.4-1.9-1.2-2.5 1.9-.7 3.9.3 5.8 1.9 3.6 1-1.4 1.3-.7 1.9 4.4.3 3.4.6 9.3.6 13 0 5.9.3 7 2.1 7.9 1.6.9 1.9 1.9 1.7 4.8l-.3 3.7h-52v-68.7c0-45-.3-68.9-1-69-1.9-.5-2.3 13.4-2.1 73.8.1 33.5-.1 61.7-.6 62.6-1.3 2.7-8.4 2.5-9.8-.2-1-1.9-.7-41.6.6-76 .5-14.7.5-155.4-.1-180.5l-1-51-1.1-54c-.7-31-.7-110.1 0-155C10.2 10.6 10.2 0 8.7 0c-1.2 0-1.5 6.3-2 38.7m471-.5q-.5 1.1-.6-.6t.5-1.3c.3.3.4 1.2.1 1.9M86.5 44q.4.9-.4 1-1-.1-1.1-1 0-1 .4-1 .6 0 1.1 1m-.1 24.5q.6 1.3 2 1.5c1.4.2 1.8.5 2.2 1.1q.7 1.2-2.7.4c-4.5-1-4.9-1.3-4.2-3 .7-1.9 1.9-1.9 2.7 0m2.1 5.5q-.6.9-1.6 1-.9-.1-.4-1a2 2 0 0 1 1.6-1q.9 0 .4 1m15.5 6.4c0 3.2-6.4 4.6-6.6 1.5-.1-2.3.4-2.6 3.6-2.7q2.8 0 3 1.2m233.7 13.8q-.5 1.1-.6-.6t.5-1.3c.3.3.4 1.2.1 1.9m-44.5 2q-1.1 1-1.2.2c0-1.4 1.2-2.6 1.9-1.9q.3.6-.7 1.7M283 96q-.1.9-1.1 1-.8-.1-.4-1 .6-1 1.1-1 .4 0 .4 1m-152.2 4q1.1-.1 1.2-1t1.5-1c2.1 0 1.9 2.6-.2 3.4l-3 1.2q-1.2.4-1.3-1c-.1-1.4-.7-1.6-1.5-1.6s-1.5-.7-1.5-1.7c0-1.5.1-1.5 1.8 0 1 1 2.4 1.7 3 1.7m279.9 5.2c-.2 1.8-.4.6-.4-2.7s.2-4.8.4-3.3.2 4.2 0 6m-57 .4c-4.3 4.2-8.1 7.3-8.5 6.9s.3-1.4 1.6-2.2c2.3-1.6 2.9-3.9 1.1-4.5-1.2-.4 5.3-3.8 8.2-4.2a11 11 0 0 0 2.3-1.9q1.6-1.5 2.4-1.7c.4 0-2.8 3.5-7.1 7.6m-215.2-2.5q.6 1 .2 1.5c-.7.7-3.7-.7-3.7-1.7 0-1.3 2.7-1.1 3.5.2m-11.1.8q.4.8-.9 1.5-1.4.5-1.5-.9c0-1.6 1.6-2 2.4-.6M143 107q-.1.9-1.6 1-1.3-.1-.9-1 .6-1 1.6-1 .8 0 .9 1m191.1 5.2q-5.4 5.9-1.1 3.8 4.2-2.2-1.1 4c-2.5 2.8-3 3-2.4 1.2.6-2.1-1-3.3-1.7-1.2-.2.6-1.7 1.3-3.3 1.5l-3.4.4q-.2.3.9 1.7c1.1 1.2 1 1.8-.3 3.2-1.6 1.5-1.7 1.5-1.7-.1q.1-1.7-3-1.7c-3.1 0-2.8-.4-2.4-1.5.3-.8 1.5-1.7 2.6-2.1 1.1-.3 2.4-1.9 3-3.5.5-1.6 1.3-2.9 1.7-2.9s1.6-.8 2.7-1.8l3.7-3.1q2.1-1.9 1.1.3c-.3.9-1.9 3-3.5 4.7q-4.3 4.8-2.1 4.9c.5 0 3.5-2.9 6.8-6.5s6-6.1 6.2-5.5-1 2.4-2.7 4.2m7.5-2.6q.1 2.3-.4 2-.6-.4-1.9.6c-2.4 2-2.7-.1-.3-2.7l2.4-2.5c.1 0 .2 1.2.2 2.6m-184-.4 3.3 1.2-2.2 1.8q-2 1.7-2.5.9-.4-1-1.8-1.1c-1.4-.1-1.4-.9-1.4-2 0-2.3.3-2.4 4.6-.8m-19.6 1.2q0 .6-1 1.1-.9.4-1-.4.1-1 1-1.1 1 0 1 .4m272.7 1.8q-.5 1.1-.6-.6t.5-1.3q.5.7.1 1.9m-260.7-.8q0 .6-1 1.1-.9.4-1-.4.1-1 1-1.1 1 0 1 .4m14.3 1.6q-.6 2 1 2 1.4-.2 2-2t2.6-2c3 0 2.6 1-1.5 4.7-3.9 3.4-5.4 3.5-5.4.2 0-1-.5-1.9-1.2-1.9-.9 0 1.8-2.7 2.9-3zm15.7.6c0 1.1-4.2 4.4-5.5 4.4-.3 0-.5-1.3-.5-3 0-2.6.3-2.9 3-2.7 1.6.1 3 .7 3 1.3m6 .3c0 .5-1.6 1.8-3.5 3-4.4 2.6-4.6 1-.2-1.8 3.7-2.4 3.7-2.4 3.7-1.2M85 115q0 .9-1 1a1 1 0 0 1-1-1q.1-1 1-1t1 1m112 2.1q-1.1 2 0 1.9 1 .1.4 1.1-.7 1.2-1.4-.1-.8-1-2.9-.5c-2.9.9-2.6-.5.6-3.1 3.2-2.5 4.8-2.2 3.3.7m-8-.6c-.7.8-1.7 1.5-2.2 1.5q-.9-.2.2-1.5c1.1-1.3 1.7-1.5 2.2-1.5q.9.2-.2 1.5m-102.3 2.7q-2.5 1.4-1.3-1.9.7-2.2 1.6-.3.9 1.4-.3 2.2m96.3 2.3c-1.3 1.4-2.6 2.3-2.8 2-.3-.2.6-1.5 1.9-2.9s2.6-2.3 2.8-2-.6 1.5-1.9 2.9m130.6-1.9q-.5 1.5-.6 2.5c-.1 1-.9.9-2 .9s-2 .7-2 1.5-.8 1.9-1.7 2.2c-1 .4-2.1 1.1-2.5 1.7q-.7 1-1.3.4c-.4-.4.8-2.3 2.7-4.3 1.8-2 3.7-4.3 4.1-5.1 1.1-2 4.1-1.8 3.3.2m97.7 3.6c.3 2.1.2 3.8-.4 3.8-.5 0-.9-1.9-.9-4.2q0-7.3 1.3.4m-322.4-.6c-1.4 1.8-2.4 1.1-1.5-1.1q.6-1.4 1.6-1 1.2.7-.1 2.1m171.9 4.9c-.1 5.3-.5 6.8-2.3 8.5l-2.3 2.1-.6-3.6c-.8-3.9-.1-5.9 1.9-5.1q1.3.6 2-4c.3-2.4.8-4.4 1-4.4s.4 2.9.3 6.5m41-2.4c-3.9 3.9-7.8 6.3-7.8 4.7q0-1-1.5.2-1.6 1.5-1.5-.1c0-2.4 1.3-3.6 6-5.6 8.8-3.9 9.4-3.8 4.8.8m-73.5-1.6c.1.6-1.9 2.1-4.3 3.4l-4.5 2.4 3.5-3.7q4.9-5.2 5.3-2.1m3.9 1.7q-1.1 1-1.9.4-.6-.7.7-1.6c1.9-1.2 2.7-.3 1.2 1.2m45.2 2c-.8 1.3-2.1.9-2.8-.8-.9-2.5.4-3.7 1.9-1.7q1.1 1.7.9 2.5m-36.4-1.8c0 1.3-5.8 6.6-7.2 6.6-.3 0 .1-1.6 1-3.4.9-1.9 1.9-3.3 2.3-3q.7.3 1.4-.6c.9-1.5 2.5-1.2 2.5.4m4.2.8q-1.1 1-1.2.2c0-1.4 1.2-2.6 1.9-1.9q.3.6-.7 1.7m5.4 1.7c-.1 3.1-1.6 3.3-1.6.2 0-1.5.8-3.1 1.5-3.1.1 0 .2 1.3.1 2.9m16.4-.9q0 .9-1 1a1 1 0 0 1-1-1q.1-1 1-1t1 1m14.5 2.7c-2.6 1.8-3.2.7-.9-1.8q1.8-2.1 2.3-.8.2 1.2-1.4 2.6m75.7-1.5q-1.1 1-1.2.2c0-1.4 1.2-2.6 1.9-1.9q.3.6-.7 1.7m-86.2.7c0 .8-4.3 4.1-5.5 4.1-1.5 0-.2-2.8 1.8-3.8 2.8-1.3 3.7-1.4 3.7-.3m41.7 2.3q-.5 1.1-.6-.6t.5-1.3q.5.7.1 1.9m-171.9 3.3q-.6.4-1.2-1.2-1-2 .5-.6 1.1 1.2.7 1.8m14.4 1.7q-1.1 1-1.2.2c0-1.4 1.2-2.6 1.9-1.9q.3.6-.7 1.7m106.9 4.7a11 11 0 0 0-2.1 5q0 2-2.4 3.1a8 8 0 0 0-3.1 2q-.7 1.2-2-.7c-1.3-1.7-1.4-1.7-2-.1-.7 1.8-3.5 2.5-3.5.9 0-.5 1.6-2.3 3.5-4 3.4-3 4.5-5.1 2.6-5.1q-1 .1-1.7 1.1-.7 1.2-1.3 0c-.6-1.2-1.4-.4-2.6 1.1q-1.7 2-.5 1a6 6 0 0 1 2.2-1.2c1.6 0 .7 2.5-1.5 4.1q-2.2 1.8-4.6.8c-2.2-.9-2.2-1.1-.9-3.1 2.3-3.4 7-6.6 7.5-5.1q.8 2.7 3.9-.5c1.6-1.5 1.7-1.5 1.2 0-.4.9-.4 1.9-.1 2.2.9.8 5.3-3.4 5.3-5q.2-1.2 1.8-2.3c2.6-1.5 2.8 2.2.3 5.8m-98.5-2.7q.6 2-.7 2.9t-.3.9q1.1-.1 2.5-1.6c1.2-1.4 1.4-1.4 2.1.5.4 1.2 1.5 2.1 2.4 2.1q1.4.1 1.1 1.2c-.2.8-1.9 1.2-4.3 1.1-2.1 0-4.5.4-5.1.9q-1.4 1.2-1.3-.7c0-.9-.8-3-1.7-4.7-1.7-2.8-1.7-3 0-4.3 2.3-1.7 4.4-1 5.3 1.7m77.6 3.9q1.4.7-1 3.2c-1.2 1.3-2.2 3-2.2 3.8-.1 1.6-2.4 4.9-3.5 4.9q-.7-.1-.1-1.5c.6-1.8.1-1.9-2.5-.5-2.2 1.2-2.7-.8-.7-2.8.6-.6.8-1.5.4-1.9-.8-.8-4.5 3.5-4.6 5.4 0 1.1-11.6 3-12.6 2-1.3-1.2 1.1-3.7 3.6-3.7 3.4 0 6.1-2.7 4-4q-1.4-.8 3.4-1.5 4.6-.8 5.7-2.6c.5-1.1 1.6-1.9 2.4-1.9q2.8 0 0 2.7c-2.2 2.2-.9 3 1.4.9 1-1 2.2-3.4 2.6-5.4l.8-3.7.8 2.9c.4 1.6 1.4 3.3 2.1 3.7m-84.8-.5c.8 2.2-.4 4-1.5 2.3s-1.1-3.9 0-3.9q.9.1 1.5 1.6m140.6-.8q-.1 1-1.5 2.8c-1.5 1.9-2 .8-.9-2 .6-1.7 2.4-2.2 2.4-.8m-146.2 2.7q-.6.4-1.2-1.2-1-2 .5-.6 1.1 1.2.7 1.8m230.7-1.5c-.3.5-1.3 1-2.1 1s-1.2-.5-.9-1 1.3-1 2.1-1 1.2.4.9 1m-160.5.4q0 .6-1 1.1-.9.4-1-.4.1-1 1-1.1 1 0 1 .4m-6.4 4.8c-.1 3.8-.5 4.5-3.3 5.8-1.8.8-3.3 2.2-3.3 3s-1.1 2-2.5 2.7c-2.3 1-2.5.9-2.5-1.3 0-2.4-1.4-3.2-2.5-1.4-.9 1.4-2.5 1.2-2.2-.2q0-1.2-2.3-1.6c-3.1-.5-5.4-2.2-4.2-3.4.4-.4 2.2-1.2 4-1.7 2.6-.8 3-.7 2.5.6q-.8 1.9 1.6 1 2.4-.7 1.6 1.2c-.4 1.4.1 1.8 2.9 1.9q3.3.1 4-1.3.6-1.4 2.1-1.5c1.7 0 2-2.5.4-3.5q-1-.8.7-2.6c2.6-2.8 3.2-2.3 3 2.3m-22.6-2.4c0 1.3-1.2 2.2-2.2 1.6s-.1-2.4 1.3-2.4q.8.1.9.8m84.7 1.1q-.6 2.1 1.2 1.4c.9-.3 2.2-1.3 2.9-2.1 1.1-1.4 1.2-1.4 1.2 0 0 2.4-2.7 4.1-5.5 3.4-2.2-.6-2.4-.9-1.5-2.6 1.4-2.5 2.4-2.6 1.7-.1m99.3-.9q-.1.9-1.1 1-.8-.1-.4-1 .6-1 1.1-1 .4 0 .4 1m35 1.1q0 1.8-1 1.4c-.5-.3-1-1.3-1-2.1s.5-1.4 1-1.4q1 .2 1 2.1m-204.5.9q-.7.9-1.6 1-.9-.1-.4-1a2 2 0 0 1 1.6-1q.9 0 .4 1m60.2 2.4q-.7 1.5-2.2 1.6c-1.8 0-1.9-.4-.3-3 1.4-2.2 3.4-1 2.5 1.4m5.8-1.4q.4.9-.9 1-1.5-.1-1.6-1 0-1 .9-1t1.6 1m79.6 3.1q-1 2.4-1 .7c-.1-2.2 1.2-5.5 1.6-4.2.2.6-.1 2.2-.6 3.5m-170.6-.1q-.8 1.2-1.7.2-.9-1.1-.3-2.2.8-1.2 1.7-.2.9 1.1.3 2.2m6.8-.5c-2.2 1.6-3.8.8-2.3-1 .6-.8 1.8-1.1 2.6-.8q1.9.4-.3 1.8M411 160c0 9.1-.3 11-1.5 11q-1.4-.1-1.5-1.5c-.1-1.4-.7-1.5-1.5-1.5-1.5 0-2.1-2.1-.8-3.3.3-.4.8-2.4 1-4.5.2-2 .8-3.9 1.3-4s1-1.9 1-3.8.5-3.4 1-3.4 1 4.3 1 11m-11-8q-.1.9-1.1 1-.8-.1-.4-1 .6-1 1.1-1 .4 0 .4 1m-22.4 4.6c3.4.9 3 2.9-1.1 4.8-6.2 3-5.6 4.7.8 2.1 4.3-1.8-.6 4.2-6.1 7.5-1.5.8-1.5 1.1-.2 2q1.3.9.5 1-.7 0 .5 1c1.2.8 1.2 1.1-.3 2.8-1.9 2-2.3 3.7-.7 2.7 2.2-1.4.8 1.4-1.5 2.9s-2.5 1.5-2.5.1c0-2.1-1.9-.9-3 1.9-.7 1.9-.9 1.8-1.7-1.4l-1-3.5-1.1 6.4c-1.3 7.1-1.1 7.8 1.5 7.6q4.4-.2 4.3-4.1c0-1.3.4-2.4.9-2.4s.8.8.6 1.7c-1.3 6.4-1.7 7.3-3.1 7.3-.9 0-1.8.9-2.1 1.9q-.6 1.8-1.9 1.4t-1.4.6c-.1 1 .5 1.1 1 1.1q1 .2 1 2c0 1.8.7 2 1.6 2 3.6 0-2.3 9.3-6.6 10.4-2.8.7-9.9 10.8-8.1 11.4 1.6.5 1.4 2.2-.2 2.2-.8 0-2.4 1.1-3.7 2.5s-2.9 2.5-3.7 2.5q-1.2.1-1.3 1.5c-.1 1.4-.4 1.5-1 1.5q-.9.2-1 1.7c0 1-.7 2.7-1.5 3.7-1.3 1.7-1.4 1.6-1.1-1.9.1-2.2 1-4.3 2.1-5.1.9-.7 1.5-2 1.2-2.8s.1-2 .9-2.6 1.4-2.3 1.4-3.6c0-1.2.5-2.6 1-2.9 1.5-1 1.2-3.5-.5-3.5q-1.4-.1-1.5-1.4c0-2.7 1.9-6.6 3.3-6.6s3.5-6.6 4-11.5q.3-2 3.8-3.7c4.1-2 5.5-4.4 3.8-6.4q-1.3-1.5.1-1.4 1.1 0 .5-3c-.5-2.3-.3-3.2 1-3.6q1.8-.7.5-1.4c-.9-.6-.7-1.3.9-2.9 1.1-1.1 1.8-2.7 1.5-3.6q-.6-1.5 2.5-3.2c1.7-1 3.1-2.1 3.1-2.6q.2-.6 2.3-.2c2.7.7 5.1-1.5 5.2-4.8 0-1.2.3-2.2.6-2.2 1.1 0 3.9-2.7 3.9-3.7q-.1-.9-1.6-.4c-2.2.9-5-1.4-3.2-2.6.7-.4 1.9-.6 2.6-.3zM398 158q-.1.9-1.1 1-.8-.1-.4-1 .6-1 1.1-1 .4 0 .4 1m-50 10.3c0 1.6-5.4 6.7-7.1 6.7q-1-.1-.5-1.6t.6-2.5c.1-1 .6-.9 1.4-.9s1.9-.7 2.6-1.5c1.5-1.9 3-1.9 3-.2M99 172q0 .9-1 1a1 1 0 0 1-1-1q.1-1 1-1t1 1m146.3 2.6c.3.4 2.4.7 4.7.8 2.2.1 4.6.8 5.3 1.5 1 1.1 0 1.3-5.2.8-3.5-.3-9.1-.1-12.4.4-6.6 1.1-7 1-6.1-1.5q.6-1.7 3.3-1.1c1.4.3 4 .1 5.6-.4 3.9-1.2 4.1-1.2 4.8-.5m165.2 2.3q-.6 1-1.7 1.1-1 0 .2-1.5c1.4-1.7 2.6-1.3 1.5.4m-132.9.9c6.9.3 16.7 5.3 14.5 7.5q-1 1-4.3-1c-4.5-2.7-15.1-4.7-17.7-3.3q-2 1-2.6 0c-.9-1.5.4-3 2.5-3 1 0 2.2-.5 2.5-1q.8-1 1.8-.2a8 8 0 0 0 3.3 1m59.4-.4q0 .6-1 1.1-.9.4-1-.4.1-1 1-1.1 1 0 1 .4m-124.5 2.5c5.8.6 5.8 3.1.1 3.1a25 25 0 0 0-7.3 1.1c-8.7 3.5-14 2.4-5.9-1.2 2.5-1.1 4.6-2.4 4.6-2.9s.6-.7 1.4-.4q1.3.4 2.1-.5.6-1 2.3-.2c.9.5 2.2 1 2.7 1m127.5.7q.1 2-1.5.4-1.4-1.2-1.5-1.6.1-.3 1.5-.4c1.4-.1 1.5.7 1.5 1.6M154 183q0 .9-1 1a1 1 0 0 1-1-1q.1-1 1-1t1 1m99.5.6q3.6 3.8-3.3 4.2c-2.3.2-4.2.7-4.2 1.3q.1.8 1.1.9 1 .2.4 2c-.6 1.8-.2 2 3.1 2 2 0 4.2.6 4.8 1.4s3.8 1.7 7.1 2.1c7.2.7 9.6-.5 9.7-5.3q.1-3.2 1.7-3.3t.4-.6c-2.5-1-1.2-2.3 2.1-2.3 4.5 0 8.9 1.7 8.1 3.1q-.5 1 1.1 2.3c2.2 1.7 1 3.6-2.2 3.6q-2.5 0-1.8-1.1.6-1-1.7.2c-2.5 1.3-2.4 1.5 3.4 3.3q1.5.6 1.7 1.7 0 1.2-4.6.6c-3.8-.4-4.5-.2-4.2 1.2.2.9 1.8 2 3.6 2.6 4.2 1.2 4.1 2.5-.2 2.5-3 0-6.6 2.3-5.4 3.5.2.2 2.2.8 4.4 1.3q3.8.9 3.9 2.2c0 1.6-.2 1.6-5 .6q-3-.6-5 .8c-1.8 1.3-1.8 1.6-.5 3 .9.9 3.5 1.7 5.8 1.8 4.7.1 5.5.7 4.3 2.7-.7 1.1-2.7 1.1-10.7.2a179 179 0 0 0-53.8 1.6 21 21 0 0 1-7.2.9c-2.4-.9-1.5-2.7 2.2-4.2 4.2-1.8 4-4-.5-3.8q-5.8.2-.3-2.6c2.5-1.3 2.6-1.4.5-1.7-2.3-.4-3.8-2.9-2.3-3.8 1.9-1.2 1-2.6-1.2-2s-2.2.6.2-1.5l2.5-2.1-3 .7c-2.8.7-2.9.6-1.5-1.1s1.3-1.8-.7-1.3c-2.7.7-3-.7-.5-2.1 1.4-.9 1.2-1-1.3-1.1s-2.7-.2-1.2-1.1c2.4-1.4 2.2-3.2-.3-2.4-2.3.7-2.8-1-.5-1.9q1.4-.7 1.5-1.9c0-.8 1.4-2 3.1-2.7q5.7-2.6 7 3.8c1 5 3.6 8.2 6.6 8.2a56 56 0 0 0 17.3-4.3q-.1-.7-1.5-.7c-1.4 0-1.5-.5-1.5-1q.2-1 2-1c1.8 0 2-.5 2-1s-1.2-1-2.6-1-2.3-.4-1.9-1 1.5-1 2.6-1c1 0 1.9-.5 1.9-1q-.2-1-2.5-1c-2.3 0-2.4-.2-1.3-2 1.5-2.4 2.7-2.7 10.5-2.9 4.5-.1 6.6.3 7.8 1.5m136.9 1.9q-3.4 2.4-3.4.7c0-1 4.3-3.2 4.9-2.6q.3.5-1.5 1.9M266.6 188q1.3.1 1.4 2.5c0 2.2-.4 2.5-3.9 2.5-4.5 0-5.2-.6-4-3.5q1-3 .8.3 0 2.4 1.9 2t1.5-3.3q0-2.6.4-1.8c.2.7 1.1 1.3 1.9 1.3m127.8-1.1q.4.9-1 1.5c-2 .8-2.9.1-1.9-1.3.8-1.3 2.2-1.4 2.9-.2m-164.9 4.2c0 3.2-.3 3.4-4.2 4.3-2.3.5-4.9.6-5.7.3-2-.8-2.1-3.7-.1-3.7q1.4 0 1.5-.9c0-.4 1.2-.6 2.6-.3 2 .4 2.6 0 3.1-1.7.8-3.3 2.8-1.9 2.8 2m23.5-.1q0 .9-.9 1-1-.1-1.6-1-.4-1 .9-1 1.5 0 1.6 1m98.2 2.2q-1.1 1-1.9.4-.5-.7.7-1.6c1.9-1.2 2.7-.3 1.2 1.2m44.8 3.1c0 2.9-.5 5.8-1 6.3q-1.2 1 0 3.8 1 2.8.1 4.4c-.8 1.5-1.1 1.3-2-1.1-.6-1.6-2-3.1-3.1-3.4-2-.5-1.9-.6.2-2.8 2.4-2.5 3.1-5.4 1.8-7-1-1.2 1.4-5.5 3.1-5.5.5 0 .9 2.4.9 5.3m-321-1.8q0 1.3-1 1.5-.9-.2-1-1.5c-.1-1.3.5-1.5 1-1.5q1 .1 1 1.5m334-1.1q-.2.5-1.7 1.7-2.4 2-.4-.4t2.1-1.3m-304 1q0 .5-1 1.1-.9.4-1-.4.1-1 1-1.1 1 0 1 .4m227 2.5q-.1.9-1.6 1.5-3.6 1.4-1.4-.9c1.4-1.7 3-2 3-.6M149 198q-.1.9-1.1 1-.8-.1-.4-1 .6-1 1.1-1 .3 0 .4 1m235 0q0 .9-1 1a1 1 0 0 1-1-1q.1-1 1-1t1 1m27-.1q-.1.9-1.5 2.1-2.3 2.2-.9-1.4c.6-1.7 2.4-2.2 2.4-.7m-294 2.5q0 .6-1 1.1-.9.4-1-.4.1-1 1-1.1 1 0 1 .4m270 2.5q0 1-1 1.6-.9.4-1-.9.1-1.5 1-1.6 1 0 1 .9m23.7 1.3q-.5 1.1-.6-.6t.5-1.3q.5.6.1 1.9m-7.2 3.5c-1 1.5-2.7 3.7-3.8 4.8-1.9 2-1.9 2-.2-1.5 2-4 4.6-7.2 5.3-6.5.3.2-.3 1.7-1.3 3.2m-116.3 4.5q-1.1 1-1.2.2c0-1.4 1.2-2.6 1.9-1.9q.3.6-.7 1.7m-85.2 1.4c0 1.6-1.6 1.9-2.5.4-.8-1.3.4-3.2 1.6-2.5q.8.8.9 2.1m202 .3q-1 2-2.1 2.1-.7-.2.7-2.5c2-3 3.1-2.6 1.4.4m-20 .1q0 .9-1 1a1 1 0 0 1-1-1q.1-1 1-1t1 1m-217.5 1q-.6.9-1.6 1-.9-.1-.4-1a2 2 0 0 1 1.6-1q.9 0 .4 1m229.5 1.5c.5 1.4.8 3.6.6 4.8s-.5 3-.5 3.9c-.1 2.5-2.1 2.3-2.1-.2q0-1.8-.9-2c-.8 0-.9-3.3-.2-8.3.2-1.7 2.2-.5 3.1 1.8m-9.5.4q-.6 1-1.7 1.1-1 0 .2-1.5c1.4-1.7 2.6-1.3 1.5.4m-6.3 5.3q-1.1 1-1.2.2c0-1.4 1.2-2.6 1.9-1.9q.3.6-.7 1.7m-65.2-.8q0 .6-1 1.1-.9.4-1-.4.1-1 1-1.1 1 0 1 .4m-199 4.1q-1.2 1.4-1.8 1-.3-.5.8-2 1.2-1.4 1.8-1 .3.5-.8 2m143.5-1 3.5.4q2 0 .1 1c-.8.5-2.8.7-4.5.4q-3.2-.5-5.5 1.4c-2.7 2.2-2.9 5.1-1.1 15.7 1.3 8 .8 8.7-5.1 7.9-4.5-.6-5.1.7-1.4 3.1 2.3 1.5 2.7 4.4.4 3-.5-.3-1.5-.1-2.2.4s-2.3 1.2-3.7 1.4-2.5 1-2.5 1.8c0 1.2 1.7 1.4 9 1.3q9-.2 7.5.7c-.8.5-3.4 1-5.7 1s-4.3.4-4.3.8c0 1.9 2.7 3.2 6.7 3.2 3.2 0 4.5-.5 5.3-2q.9-1.8.3-2t1-1.1q3.6-2.2-.9-3.9c-2.7-1.1-2.7-2.5.2-8.1 1-2 1.1-3.6.4-6-1.3-4.5-1.3-6 .3-5.8 2.2.4 9.2-1.4 11.6-2.9 2.1-1.4 2.3-2.1 1.7-6.7l-.6-5.1 3.4.4c4.1.5 4.5 1.2 5 10.5.3 4 .2 6 0 4.4-.8-4.4-2.4-3.1-2.5 2-.1 2.7-.3 4-.6 3-.8-3.2-2.3-1.7-2.3 2.3q0 6.7 2.1 1.7c1.1-2.5.4 14.8-.8 19.3-.6 2.2-.5 2.3 1 1.2 1.7-1.4 2.3-4.6 3.3-17.7.3-4.4.8-8.2 1-8.4 1.2-1.2-.1 22.3-1.3 24.6-1.1 2.1-1.1 2.9-.1 4.1q1.8 2-.9.3c-1.8-.9-2.7-.9-4.2.1q-4.4 2.6-1.8-3.9c2-5.2 3.3-13.8 1.9-12.9-.6.3-1.4 2.7-1.8 5.2q-.6 4.4-1.6 3.6-.9-1 .2-4.8a70 70 0 0 0 1.6-12.2c.5-7.7.4-8.2-1.5-8.2-1.7 0-1.9.4-1 3.2 1.2 4.2 1.2 4.1-.8 3.4-1.5-.6-1.5-.5.1 1.3 2.1 2.3 1.3 4.9-1 3q-1.3-1-1.4-.1.2 1 1.8 1.7c1.6.6 1.6.7-.2 2-1 .8-1.9 2.7-2.1 4.2-.4 4.9-3.3 10-8.2 14.2-4.1 3.5-5.5 4.1-9.4 4.1-4.9 0-11.9-2.4-11.9-4q-.1-1-1.5-1c-1.4 0-1.5-.9-1.5-2s-.7-2-1.6-2q-1.6 0-.9-2t-.9-2q-1.6-.1-1.6-2.1c0-1.6-.5-2-2.7-1.7-3 .3-3.1-.1-4.8-13.5-.5-4.8-.4-5.7.9-5.7q1.5-.2 1.6-1.5c0-1.8.2-1.8 6.9 0 4.7 1.2 5.8 1.2 8.2-.1 1.6-.8 2.9-1.8 2.9-2.3q.2-.8 2-1.4c2.6-.7 2.6-3.9-.1-6.3-1.8-1.6-3.4-1.9-9.8-1.7-10.4.3-7.2-1.3 4.9-2.5 8.4-.8 15.1-.7 21.5.3m127.5.5q-.1.9-1.1 1-.8-.1-.4-1 .6-1 1.1-1 .4 0 .4 1m-254.5 1.9q-.6 1-1.7 1.1-1 0 .2-1.5c1.4-1.7 2.6-1.3 1.5.4m49-.9q-.7.9-1.6 1-.9-.1-.4-1a2 2 0 0 1 1.6-1q.9 0 .4 1m230.3 9.5q.2 10.5-.9 10.5-1-.2-.6-2c.3-1 0-2.1-.6-2.3q-1.3-.3 0-3c.7-1.5.8-2.9.3-3.2s-.5-1.6.2-3.1c.9-2 .9-2.7 0-3.3-.7-.4-1-1.5-.6-2.4q2-5.9 2.2 8.8m-207.2-5.9q-.5 1.6-.6 2.5-.1.7-1.5.3-1.6-.6-.4-2.5c1.2-2.3 3.4-2.6 2.5-.3m77.1 1.6q-.5 1-.5-1.2c0-2.2.2-1.9.5-1.3.2.7.2 1.9 0 2.5M396 230c0 1.9-3.6 4.7-4.7 3.6-.6-.6 2.9-5.5 4-5.6q.6.2.7 2m-184.8 3.1a36 36 0 0 0 .3 17.6l1.5 3.8-.4-5.5c-.4-4.8-.4-5.1.5-2l4 13.2 3.2 9.7-2.1 3.3-2.1 3.3.1-4.6c.1-5.5-2.1-11.9-4-11.9q-1.5 0-.7 1.7c1.5 3.6 2.3 8.3 1.5 8.8-1 .6-2.5-1.4-1.7-2.2.3-.2-.1-2.2-.8-4.3-.8-2.2-1.7-8.2-2.1-13.5-.4-5.2-1.1-9.8-1.6-10.1-1.2-.8.2-7.6 2-9.7 2-2.3 3.5-.8 2.4 2.4m3.5-1.9q-.5 1.1-.6-.6t.5-1.3q.5.7.1 1.9M322 231q-.1.9-1.1 1-.8-.1-.4-1 .6-1 1.1-1 .4 0 .4 1m-153 1q0 .9-1 1a1 1 0 0 1-1-1q.1-1 1-1t1 1m59.8 1.5c1 2.1.9 2.5-.3 2.5q-1.4-.2-1.5-2c0-1.7-.4-1.8-2.5-1-2 .7-2.5.6-2.5-.5q0-1.5 2.8-1.5 3-.1 4 2.5m-139.6.7q-1.1 1-1.2.2c0-1.4 1.2-2.6 1.9-1.9q.3.6-.7 1.7m201.2 2c.3 1.5.2 2.9-.3 3.2-.9.6-2.1-2.6-2.1-5.9 0-2.5 1.6-.8 2.4 2.7m-73 2.9q-.2 14.4 4.6 22.1c3 5 4.7 10.9 3.5 12.8s-3.7-1-3.1-3.6c.4-1.3-.6-5-2.4-9.3a44 44 0 0 1-3.7-16c-.5-7.6-.2-12.1.9-12.1.2 0 .3 2.7.2 6.1m20-4q-.6.8-1.5.3t-.3-1.5q.6-.8 1.5-.3t.3 1.5m145.8.1q-1.1 1-1.2.2c0-1.4 1.2-2.6 1.9-1.9q.3.6-.7 1.7M203 238q-1.2 2.3-2.2 1.2t.2-3.2q1.2-2.2 2.2-1.2t-.2 3.2m56.6-2.5c1.8 1.5 1.8 1.5-.5 1.3q-2.3-.4-2.9-1.6c-.5-1.7 1-1.5 3.4.3m5.9-.5q-.7.9-1.6 1-.9-.1-.4-1a2 2 0 0 1 1.6-1q.9 0 .4 1m18.6 16.2c.2 7.9-.1 14.9-.5 15.6-1.4 2.3-2.5 1.2-1.5-1.6.7-1.7.9-7.8.5-17.2q-.6-14.5.3-12.9c.6.9 1.1 8.1 1.2 16.1m24.9-13.8q0 .5-1 1.1-.9.4-1-.4.1-1 1-1.1 1 0 1 .4m33 1.6q0 .9-1 1a1 1 0 0 1-1-1q.1-1 1-1t1 1m3 2.6q-.1 1.3-1 .9-1-.7-.5-1.6 1.4-2 1.5.7m50-.3c0 1.7-2 3.7-3.7 3.7-1 0-1-.5-.1-2.5 1.2-2.6 3.8-3.4 3.8-1.2M140 243q-.1.9-1.1 1-.8-.1-.4-1 .6-1 1.1-1 .3 0 .4 1m8-.2c0 .5-1.1 1.9-2.5 3.2q-4.3 4-.9-1.5c1.6-2.4 3.4-3.3 3.4-1.7m145 3.4q0 1.7-.9 1.8c-1.1 0-1.9-3-1.3-4.9q.4-1.6 1.3 0c.5.8.9 2.2.9 3.1m56 0q0 1.9-.3 1.7l-1.6-2.2c-1.2-1.4-1.1-1.7.3-1.7q1.5 0 1.6 2.2m-147.6 4.5c-.3 2.7-1.1 5.2-1.6 5.8q-1.1 1-.4-2.4c.3-1.8.6-4.4.6-5.7s.5-2.4 1.1-2.4q1 0 .3 4.7m108.6-4.3q0 .6-1 1.1-.9.4-1-.4.1-1 1-1.1 1 0 1 .4m33 0q0 .6-1 1.1-.9.4-1-.4.1-1 1-1.1 1 0 1 .4m44 1q-.1 1.3-1.5 2-1.9.8-.5-1.4 2-3.5 2-.6m6 .9c0 1.2-3.9 4.2-4.6 3.5-.6-.6 2.6-4.8 3.7-4.8q.8.1.9 1.3m-46 .6q0 1-1 1.6-.9.4-1-.9.1-1.5 1-1.6 1 0 1 .9m-230 .5q-.1.4-1.6 1-1.3.5-.9-.4c.6-1 2.5-1.4 2.5-.6m206 0q-.1.3-1.5 1-1.4.4-1.5-.4.1-1 1.5-1c1.4 0 1.5.2 1.5.4m88.5.6q-.6.9-1.6 1-.9-.1-.4-1a2 2 0 0 1 1.6-1q.9 0 .4 1m-205 8.6c.3 4.3 1 9.5 1.5 11.4 1.2 4.2 1.2 5 .3 5-2.4-.1-3.4-2.3-3.8-8.6-.4-6.4.3-16.9 1.1-16.1.2.2.6 3.9.9 8.3m82.4-4.9c0 3.4-.1 3.6-1.1 1.6-.6-1.2-.8-2.9-.5-3.7q1.7-3.9 1.6 2.1m-152.9.6c0 .2-1 1.2-2.1 2.3-2.2 1.9-2.2 1.9-1-.4 1-1.8 3.1-3.1 3.1-1.9m209 .1q0 .6-1 1.1-.9.4-1-.4.1-1 1-1.1 1 0 1 .4m67 1.5c0 1.2-2 2.5-2.7 1.8s.6-2.7 1.8-2.7q.8 0 .9.9m-79.5 2q-.6 1-1.7 1.1-1 0 .2-1.5c1.4-1.7 2.6-1.3 1.5.4m22.5-1c0 1.1-2.9 3.5-3.5 2.9-1-.9.7-3.8 2.1-3.8q1.3 0 1.4.9m32.2 1.3c-.7.7-1.2 2-1.2 3s-.4 1.8-1 1.8c-1.7 0-1.1-4.8.7-5.9 2.2-1.2 3.1-.5 1.5 1.1m-189.2-.8q0 .5-1 1.1-.9.4-1-.4.1-1 1-1.1 1 0 1 .4m125 1.1q-1.2 1.4-2.2 1.5-.9-.1.2-1.5c1.1-1.4 1.7-1.5 2.2-1.5q.9.1-.2 1.5m25-.1q0 .5-1 1.1-.9.4-1-.4.1-1 1-1.1 1 0 1 .4m-148.3 6.3c-.4 1.7-.4 1.7-1.2 0-.4-.9-.4-2.5 0-3.5.8-1.6.8-1.6 1.2 0a7 7 0 0 1 0 3.5M412 262q-.1.9-1.1 1-.8-.1-.4-1 .6-1 1.1-1 .4 0 .4 1m-34 3.4c0 1.1-1.9 1.5-2.5.6q-.4-.9.9-1 1.5 0 1.6.4m-91.9 5.9c-1.1 1.2-2.4 1.8-2.8 1.4q-.4-.8 1.5-2.3c1.2-.8 2.3-2.3 2.3-3.2q0-2.1.6.2c.3 1.1-.4 2.7-1.6 3.9M363 268q0 .9-.4 1-.5-.1-1.1-1-.4-1 .4-1 1 0 1.1 1m48.2 1.2q-1.1 1-1.2.2c0-1.4 1.2-2.6 1.9-1.9q.3.6-.7 1.7m-73.2 2.3q-1.2 1.4-1.7 1.1c-.7-.7.7-2.6 1.9-2.6q1 0-.2 1.5m-137 1.2c0 1 1.2 2.7 2.7 3.8l2.6 2.2-3.4-.1a16 16 0 0 0-5.4.9c-1.9.9-2 .8-.2-1.8.9-1.4 1.7-3.5 1.7-4.7q.1-1.8 1-2 1 .2 1 1.7m187.4 1.8c-.6 1.6-2.4 2.1-2.4.7 0-1.1 1.1-2.2 2.1-2.2q.8.1.3 1.5m-282.4 2q-.1 1.4-2.2 1.5c-2.2-.1-2.3-.1-.4-1.5 2.5-1.9 2.6-1.9 2.6 0m158.7 2c-.3 1.9-.1 3.7.4 4q.8.8.9 3.1c0 1.3.1 2.4.3 2.4l6.3 1.1c9.2 1.7 9.3 3.8.5 9.8-3.1 2.1-6.9 5-8.4 6.5-2.7 2.5-3.9 3-6.4 2.7-.7-.1-2.2.3-3.2.9-1.6.8-3.5.4-8.5-1.6a27 27 0 0 1-13.9-10.7c-.9-1.5-2.2-2.7-2.8-2.7-1.1 0-3.9-2.5-3.9-3.4q.1-.5 1.6-.6 2 .1.4-1.5c-1.7-2.1-.4-3.2 2-1.7 1.1.7 2.8 1.2 3.7 1.2 1.4-.1 1.2-.5-.9-2.3-3.7-3-3.6-4 .1-1.9 3.4 1.9 5.6.8 2.7-1.4-1.1-.7-1.7-1.7-1.3-2q.8-.5 2.1.6c2.4 1.9 7.8 1.9 10.5-.2 1.3-1 3.1-1.8 4-1.9s3.4-.9 5.6-1.9a21 21 0 0 1 6.4-1.9c2.2-.1 2.3.2 1.8 3.4m15.9-1.9c1.8 1.5 1.8 1.5-1.1.9-3.7-.8-5.7-2.5-2.9-2.5 1.1 0 2.9.7 4 1.6m-222.9 0q-.6.5-1.9.1-1.1-.5.6-.6t1.3.5M99 278c-2.4 1.5-3.7 1.1-1.6-.5 1.1-.8 2.2-1.2 2.5-.9q.4.5-.9 1.4m236-.1c0 1.2-2 2.5-2.7 1.8s.6-2.7 1.8-2.7q.8 0 .9.9M216.5 279q.7.9 2.5-.2c2.3-1.4 3.8-.4 2.2 1.5-.6.7-.9 2.3-.5 3.5.7 2.8-.8 2.9-2.5.2-.7-1.1-2.7-2.9-4.5-4l-3.2-2h2.7c1.5 0 3 .4 3.3 1m81.5 0q-.1.9-1.1 1-.8-.1-.4-1 .6-1 1.1-1 .4 0 .4 1m114 0q-.1.9-1.1 1-.8-.1-.4-1 .6-1 1.1-1 .4 0 .4 1m-341.3 1.5c5 2.1 3.1 3.9-2.2 2.1-4.1-1.4-10-1.1-12.3.7q-1.2.8-1.8.4c-1.1-1.1 6.1-4.7 9.4-4.7 1.8 0 4.9.7 6.9 1.5m49.3 0a11 11 0 0 1-2.7 3c-2.5 2.1-2.6 2.6-1.5 4.4q1 2 .2 2.1-1-.2-2-2c-.9-1.7-.6-2.5 1.7-4.9q4.2-4.2 4.3-2.6m154.6 2c-2.1 1.6-3.2 1.3-2.1-.4.3-.6 1.4-1.1 2.3-1.1 1.5.1 1.5.2-.2 1.5m-59.6 4.8a14 14 0 0 1 3.3 4.9c.5 1.8 0 1.6-2.8-1.3a16 16 0 0 1-3.9-6.4q-.5-2.6 0-1.5c.4.8 1.9 2.7 3.4 4.3m66.8-4.1q-.6 1.2-2.1 1.6-1.7.4-1.1-1.2c.7-1.9 3.8-2.2 3.2-.4m-251.5 1.9c1.2.6 3 1.9 4 2.7q1.7 1.6 9.8 1.8c4.5.2 8.4.6 8.7.9.9.9-3.1 3.3-4.5 2.8q-1.2-.4-1.3.8 0 1.8-.9 0c-.7-1-1.3-1.1-3-.1a10 10 0 0 1-4.4 1c-4.6-.4-5.8.1-6.7 2.6-.9 2.3-1.4 2.6-4.3 2-4.6-.9-7-4.1-6.2-8.6.6-3.3 3.6-7 5.7-7 .5 0 1.9.5 3.1 1.1m78.8 1c1.4 2.3 1 8.6-.7 10.3-2.4 2.5-5.9 2.9-9.3 1.2-1.7-.9-3.4-1.7-3.8-1.7-.5-.1-1.7-.6-2.8-1.2-2.3-1.2-7.5-1.7-7.5-.7 0 .4-1.9.6-4.2.5-3.5-.2-4.3-.6-4.3-2.1 0-1.7.8-1.9 9.9-1.9 8.8 0 10-.2 11-2 .6-1.1 1.8-2.5 2.6-3.1 1.9-1.6 8-1.1 9.1.7m78.3.4c-1 .8-2.3 1.4-2.9 1.4-.5.1.1-.8 1.5-1.9s2.7-1.7 2.9-1.4q.3.5-1.5 1.9m20.6-2.1q0 .6-1 1.1-.9.4-1-.4.1-1 1-1.1 1 0 1 .4m16 .6q-.1.9-1.1 1-.8-.1-.4-1 .6-1 1.1-1 .3 0 .4 1m65.8.1c-1 .5-1.8 1.5-1.8 2.1s.8 1.7 1.8 2.4c1.6 1.2 1.5 1.3-.6 1.4-2 0-2.2-.4-2-3.5.2-2.8.6-3.5 2.3-3.5 1.8.1 1.8.1.3 1.1m121.2 1.4q-1.2 1.4-1.8 1-.4-.5.8-2 1.2-1.4 1.8-1 .4.5-.8 2m-349 .9q0 .6-1 1.1-.9.4-1-.4.1-1 1-1.1 1 0 1 .4m8.1.9c-.1 1.2-1.5.9-1.9-.4q-.3-1 .8-.8 1 .5 1.1 1.2m124.6 2.4q-.5 1.3-.5-1.2 0-2.6.5-1.8c.2.7.2 2.1 0 3m217.3 1.5c0 3-.1 3.1-1.7 1.6-1.3-1.4-1.4-2-.3-3.2 1.8-2.2 2-2 2 1.6M68.5 292q2.2.9-4.3.9-6.1 0-5.7-.9c.7-1.2 7.2-1.2 10 0m106.8 1.4c.6 1.4-1.9 2.6-5.6 2.6-2.6 0-1.6-2.3 1.4-3.1 3.6-1 3.6-1 4.2.5m4.7-.4q0 .9-1 1a1 1 0 0 1-1-1q.1-1 1-1t1 1m13.2 2.4c.7 1.1-1.5 2.5-4.2 2.5q-1.5 0-.2-.6c.6-.2 1.2-1.1 1.2-1.8s-.6-1.6-1.2-1.9q-1-.4 1.2 0c1.4.4 2.8 1.2 3.2 1.8m7.8-2q-.2.5-1.7 1.7-2.4 2-.4-.4t2.1-1.3m86.6 2.7c1.9 2.2 1.9 2.2-.6 1.4-3.2-.9-3.3-1.1-2.5-2.4.8-1.5.9-1.4 3.1 1m14.9-1.2q.3 1-1.5 2.1t-2 2.5c-.2 1.4-.7 1.5-1.5 1.5-3.1 0-2.8 3 .6 6 1.8 1.7 3 3 2.7 3q-.7 0-2.2.6t-1.6-.8c0-2.2-4.9-4.2-6.6-2.7-2.1 1.8-1.7 3.6 1.1 4.3q4.3 1 1 3.6-1.5 1.2-1.5.1c0-.6-1.2-1.8-2.6-2.7-2.3-1.6-2.7-1.6-4.1-.1-1.3 1.3-1.4 1.9-.3 3.1q1.6 1.8-.4 1.6-1.5-.1-1.6-1c0-1.6-3.6-1.2-5 .5q-1.4 1.4-3.2 1c-2.2-.8-9.1 3.2-8.5 4.9.4 1.2 4 1.3 17.5.1 7.6-.7 9.6-1.2 10.5-2.7.7-1.1 3.8-3.2 7-4.8 3.1-1.5 6.3-3.2 7-3.8.6-.5 3-1.5 5.2-2.2a32 32 0 0 0 6.3-2.7c2-1.2 2.9-1.2 5.3-.3l2.9 1.3-2.7 1.4c-1.4.7-3.2 1.2-3.9.9-2.3-.9-3.5 1.9-1.8 4.3 1.9 2.6.8 4.4-1 1.8-.8-1-2.5-1.6-4.2-1.6-3.6.2-11.4 3.5-11.4 4.9q-.1 1-1.5 1-1.5.2-2.4 2.3c-.8 2-1.5 2.3-5.3 2-2.3-.1-5.3-.5-6.4-.8-2.7-.6-4 .9-4.9 5.7q-1 6.3 4.3 4.3c.9-.4 2.6-.8 3.7-.9q1.9-.2 2.5-2.6l.6-2.5.6 2.3c.9 3.4 4.2 2.5 4.6-1.1l.3-2.8 2.4 2.5c3.8 4.1 13.5 2.7 16.7-2.3 1.8-2.9 5-2.6 8.6.9 1.8 1.6 4 3.1 4.9 3.1 1 .1-.4.5-3.2 1-4 .6-5.3.5-6.8-.9-1.8-1.6-2-1.6-3.7.6-1 1.2-2.8 2.2-4 2.2q-2 0-1.6.9c.4.5-1.2 1.2-3.5 1.6-3.1.5-4.5.3-5.9-1-1.6-1.5-2.3-1.5-5.5-.4-2 .8-4.1 1.9-4.6 2.5q-1 1.3-4.2.3c-1.8-.5-4.6-.9-6.3-.9-4 0-4.5-.6-2.8-3.8.8-1.5 1.4-3.9 1.4-5.5 0-3.4-3-3.7-6.1-.6-1.6 1.6-2.7 1.9-4.7 1.3a28 28 0 0 0-5.9-1.3c-.7 0-1.3-1.1-1.3-2.3s-1.4-3.6-3.1-5.4c-3-3.1-3.2-6.1-.4-5q1.3.3 1.9-1c1-2.5 2.3-.7 1.8 2.4-.2 1.6.1 3.3.7 3.7.7.3 4.2-.5 7.9-2 7.8-3 20.9-13.3 22.5-17.5 1.4-3.7 7.6-6.5 9.2-4.1M70 297.1c0 .5-2.7.9-6 .9q-6 0-6-1.3c0-.8 1.7-1.1 6-.9 3.3.2 6 .8 6 1.3m142-1.2q-.1.9-1.5 2.1-2.3 2.1-.9-1.4c.6-1.7 2.4-2.2 2.4-.7m148 .1q-.1.9-1.1 1-.8-.1-.4-1 .6-1 1.1-1 .4 0 .4 1m-138 1q0 .9-.4 1-.6-.1-1.1-1-.4-1 .4-1 1 0 1.1 1m189.6 5.7c-1.1 1.1-1.9-.6-1.1-2.4s.8-1.7 1.2 0c.3 1 .2 2.1-.1 2.4m-342.4-.5c-.5.5-2 .8-3.3.6l-2.4-.5 2.5-1c2.8-1.2 4.7-.6 3.2.9m95.4 1.5c-1.1 1.1-1.9-.6-1.1-2.4s.8-1.7 1.2 0c.3 1 .2 2.1-.1 2.4m15.2-2c2.7 1.6 2.8 1.9 1.9 5.5-1.1 4.4-2.9 5.2-2.1.9.6-2.7.3-3.1-3.2-4.6q-3.8-1.5-4.2-.5t-1.3 1c-1.6 0 .1-2.1 2.5-3 2.9-1.2 3.1-1.2 6.4.7m36.1.4c-1.6 1-2.3.4-1.4-1q.6-1 1.7-.5.9.6-.3 1.5m66.7-.6c1.4 1.3 1.2 1.5-1.5 1.5q-3 0-3.6 2-1 3.1-2.9 1.3c-.6-.6 4.8-6.3 6-6.3q.6.1 2 1.5m-221 .6c.3.6.1 1.6-.5 2.2q-1.2 1.3-2.1-.3c-.9-1.5-.4-3 1-3q.9.1 1.6 1.1m18.8 5.5c.4 3.2 1.5 6.7 2.6 8.2 2 2.5 2.6 7.8 1.2 9.7-.8 1.2-5.8 4.5-6.7 4.5-.3 0-1.9-1.4-3.5-3-3.3-3.4-3.9-7.3-1.5-10.7.8-1.2 1.2-2.8.9-3.6s-.1-1.8.5-2.2c2.1-1.2 1.1-2.5-1.5-1.9-2.3.6-2.5.5-1.6-1.2.5-1.1.8-2.7.6-3.8q-.4-2 .9-.7c1.6 1.6 4.4 1.4 5.1-.5 1.1-2.7 2.3-.6 3 5.2m109.1-2.4c-1.1 5.4-1.6 6.8-2.5 6.8q-2.6 0-1-6c1.4-5.1 4.5-5.8 3.5-.8M312 303c1.8 1.2.2 1.2-2.5 0q-2-.9-.5-.9a7 7 0 0 1 3 .9m-97.4 8.7q1.3.6 1.4 1.9t1.5 1.4 2.1 1.5 2.2 1.5q1.3 0 .9.6c-.3.3-2.2 0-4.1-.7q-3.6-1.3-3.6-3.2c0-1-.9-2.1-1.9-2.4-2.3-.6-3.3-5-1.7-7.5.9-1.6 1.1-1.3 1.4 2.2.2 2.4.9 4.3 1.8 4.7m-107.6-6q0 1-1 2.3c-1.1 1.8-2.5.7-1.7-1.5.6-1.5 2.7-2.1 2.7-.8m-57.3 2.5q-.5 1.1-.6-.6t.5-1.3q.5.6.1 1.9m6.7.3c2.7 1.4 6 2.5 7.3 2.5q2.2 0 2.3 1.6c0 1.2-1 1.5-4.7 1.3-2.7-.2-5.7-.8-6.8-1.3l-2.2-1.1-.8-2.8c-.4-1.5-.6-2.7-.4-2.7s2.6 1.1 5.3 2.5m166.2 0c.8 1.3 3 3.4 4.7 4.5 2.9 1.9 2.9 2.1.7 1.5l-4.5-1.2c-1.8-.4-4.5-4.3-4.5-6.5 0-1.6 2-.7 3.6 1.7m111.6-.3q-1.1 1-1.2.2c0-1.4 1.2-2.6 1.9-1.9q.3.6-.7 1.7m76.6 1.9c-1.8 1.2-2.3-.8-.6-2.8 1.2-1.5 1.3-1.5 1.6.2q.3 1.7-1 2.6m-247.2 1.7c-1.1 1-1.5-.4-.8-2.8l.7-2.5.3 2.3c.2 1.3.1 2.6-.2 3m106.8-.6c-.9 1.4-2.3-.2-1.7-1.8q.6-1.8 1.4-.3c.4.7.5 1.7.3 2.1m-168.5.9c-1.9 1.2-2.4.2-.8-1.7q1.3-1.7 1.7-.4t-.9 2.1m253.6-2.1q.4.9-.9 1-1.5-.1-1.6-1 0-1 .9-1t1.6 1M91 313.6c0 1.5-2.5 3.6-3.3 2.7-.4-.3-.7-1.9-.7-3.5 0-2.6.2-2.7 2-1.6 1.1.7 2 1.8 2 2.4m143.7-.5a21 21 0 0 0 7 2.3c5.9 1.2 7.9 3.4 2.6 2.8-1.6-.2-4.2.2-5.8.8-2.5 1-3.2.8-5.3-1.4q-2.3-2.5-1.9-4 1.1-2.8 3.4-.5m96.7.4c-1.8 1.4-1.8 1.5 1.1 3.8 2.5 2.1 2.7 2.7 1.7 4-2.2 2.7-4.6 1.4-5.3-2.9-.8-4.9-.2-6.4 2.4-6.4 2 0 2 0 .1 1.5M99 315q-.1.9-1.1 1-.8-.1-.4-1t1.1-1q.3 0 .4 1m100.7-.4q-.6.5-1.9.1-1.1-.5.6-.6t1.3.5m144.8 2c1.1.6 5.3 1.4 9.3 1.7q7.5.4 10 2.4a25 25 0 0 0 4.5 2.6c3.3 1.2 1.6 2.5-4 3-3.2.3-7 .8-8.6 1.2-2.2.6-2.6.4-2.1-.8q.6-1.4 2.5-1c2.1.6 5.9-2.6 5.9-4.8 0-1.6-12.1-.4-13.2 1.4-.4.6-.5 2.5-.2 4.1q.8 3-.7 2.4c-.8-.3-1.6-1.8-1.7-3.4q-.7-5.5-4.5-5.4c-1.8 0-1.9.5-1.4 5.5.3 3 .3 5.5-.1 5.5s-.8-1.9-1-4.3c-.1-2.3-.9-4.7-1.8-5.3-1.2-1-1.1-1.2.7-1.7 1.7-.5 2-1.1 1.5-3.1-.5-2.1-.3-2.4 1.1-1.9zm-280.7 1.6c2.7 1.4 3.1 4.4.5 3.3-1-.4-3.7-1.1-6.1-1.5s-5.1-1.4-6-2.3c-1.5-1.5-1.2-1.6 3.9-1.1 3 .3 6.4 1 7.7 1.6m122.8.5c-.8 2.6.3 3.7 6.4 6.1l5.5 2.1-6.5-.2c-5.7-.2-6.5-.4-6.5-2.1 0-2.6-5.1-4.3-7.8-2.7-1.5 1-2.2.9-3.8-.5-2.5-2.3-9.7-1.3-12.1 1.6q-1.7 1.9-2.9 1.4c-.7-.4-1.8.1-2.5 1.1q-1.4 1.7-2 1.2c-1.1-1 1.5-3.5 3.9-3.9a3 3 0 0 0 2.5-2.5c.4-2.4 2.1-2.7 19-3.1 6.6-.2 7.3 0 6.8 1.5m-44.6 2q0 4.1-2.6.5c-1.8-2.3-1.7-2.8.6-2.8q2 0 2 2.3m7-1.2c0 1.6-2.7 3.2-3.7 2.1-.7-.7 1.6-3.6 2.8-3.6q.8.2.9 1.5m49-.5q-.1.9-1.6 1-1.3-.1-.9-1 .6-1 1.6-1 .8 0 .9 1m214 .4c0 1.6-1.8 3.1-2.7 2.2-.8-.8.5-3.6 1.7-3.6q.9.1 1 1.4m-25.3 1.8q-.5 1.1-.6-.6t.5-1.3q.5.6.1 1.9m-255.5 1.3c-.5 2.7-1.8 4-2.6 2.7-.4-.8 2-5.2 2.8-5.2q.3.2-.2 2.5M203 321q0 .9-1 1a1 1 0 0 1-1-1q.1-1 1-1t1 1m54.1 3.1c.4 1.9.9 5.6 1.1 8.4l.3 5-8.3.3c-6 .2-8.4-.1-8.7-1a54 54 0 0 1-.8-8.3l-.2-7 7-.6c9.1-.7 8.8-.8 9.6 3.2M235 322q-.1.9-1.1 1-.8-.1-.4-1 .6-1 1.1-1 .3 0 .4 1m-98 1q-.1.9-1.5 1c-1.4.1-1.5-.5-1.5-1q.1-1 1.5-1c1.4 0 1.5.4 1.5 1m172.3.5q.5 1.4-.3 2-1 .4-1-1.4.1-3.7 1.3-.6m75.6 1.2c1.7 1.5 3.1 3.1 3.1 3.5 0 1.2-5.2-1.1-6.6-3-3.1-4-.9-4.3 3.5-.5M62 325q1.3.9.9 1.5c-.9.8-8.9-.6-8.9-1.6 0-1.2 6.1-1.1 8 .1m350 4.6c0 6-1.4 6.5-2.4.8-.6-3.1.4-6.4 2-6.4.2 0 .4 2.5.4 5.6m-188.2-.8q.3 2.1-1.1 2.2-3 .1-2-3.1c.7-2.5 2.7-1.9 3.1.9m168.4.2c.5 3.2.1 3.5-2 2.1-1.2-.7-1.2-1.2-.1-3l1.5-2.1c.1 0 .4 1.3.6 3m-242.5-1.4q-.6.5-1.9.1-1.1-.5.6-.6t1.3.5m29 1.8c.9.8.9 1.7-.2 3.6l-1.4 2.5-.1-3.3c0-3.3-1.6-4.2-3.8-2-1.5 1.5-2.6.4-1.8-1.7.6-1.7 5.1-1.2 7.3.9m-38.9.6q1.2 2.2 3.6 1.4c1.3-.3 2.7-.1 3 .5.4.6 1.5 1.1 2.4 1.1q1.8.2 3 3.2c1.5 4 1.1 4.3-2.1 1.8-3-2.4-6.7-2.6-6.7-.4 0 3.8-4.7-1.6-6.5-7.4-.8-2.8 1.5-3 3.3-.2m69.4.5c-.2 1.4-.8 2.5-1.3 2.5s-.9-1.1-.9-2.5.6-2.5 1.4-2.5q1.4 0 .8 2.5m60.8 1.3 4.5.9-5.3.4q-8.5.6-6.8-3.7c.6-1.6.7-1.6 1.9 0 .6.9 3.2 2 5.7 2.4m105-3q-.1 1-1.3 2.6c-1.3 1.8-1.4 1.8-2 .2-.4-1-.5-2.2-.1-2.7.7-1.1 3.4-1.2 3.4-.1M68 330q-.1.9-1.1 1-.8-.1-.4-1t1.1-1q.3 0 .4 1m97 3.7q0 4.9-1.1 3.6c-.9-.9-.3-8.3.7-8.3.2 0 .4 2.1.4 4.7m203-1.1q0 1.3-1 .9c-.5-.3-1-1.3-1-2.1s.5-1.2 1-.9 1 1.3 1 2.1m-303.5.3c.8 1.4-.6 2-6.3 2.7-4.9.6-7.1-.4-5.7-2.6.8-1.3 11.2-1.3 12-.1m17.4 3.8q-1.3 1.4-.1 2.5c.6.6.8 1.7.5 2.4q-.3 1.3.5 1.4c.6 0 1.4-1.7 1.8-3.7 1.1-5.7 5.2-8.8 8-6 .8.8-1.6 11.6-2.7 12.3q-2.3 1.1-.8-5.5c.9-4.2.6-6.2-.8-4.8-1.1 1.1-2.1 9.7-1.1 10.3 1.7 1 .7 4.3-1.8 6.3-3.1 2.4-3.6 2.1-8.6-4.2l-3.2-4 2.3-1.8c2.3-1.9 2.3-2 .6-4.6s-1.7-2.7 0-3.9c1.4-1.1 2.2-1 4.1.3 1.9 1.2 2.2 1.8 1.3 3m113.6-3.7q.4.9-.9.4-1.6-.7-1.6 1.5 0 2.1 2 2.1 1.8.1 2 1.1 0 1 2.8.5l5.7-1.2 6.5-1.5c3.4-.9 21.8-1.3 20.9-.5-.2.3-4.5.7-9.4 1.1a100 100 0 0 0-16.5 2.6c-15.3 4.1-17.1 4.4-17.9 3-.7-1.1-2.5-1.1-9.7-.1-4.9.6-10.7 1.6-13 2.2q-6.5 1.8-10.9-1.7c-1.9-1.4-1.9-1.5.8-.5 2.9 1 14.1.4 16.7-1a60 60 0 0 1 19.3-.5q1.8.6 3-.4 1.4-1.2-.9-1.7c-2.3-.6-4.8-4-3.9-5.4.8-1.3 4.2-1.3 5 0m166.4.6c.2.2-1 .4-2.7.4s-3.4.4-3.7 1c-.9 1.4-8.3 3.2-10.5 2.5-3-.9-1.3-3 3.3-4.2 3.7-.9 12.5-.7 13.6.3m-261.5 13.3.5 8.6-4.1 1.8-4.2 1.7 2.9-3c2.3-2.4 2.6-3.3 1.7-4.2s-1.9-.9-4.3.5l-3.1 1.7 2.3-3.7 3.6-5.8a22 22 0 0 0 2-7c.6-4.7.7-4.8 1.4-2.1.5 1.6 1 6.8 1.3 11.5M397 336q0 .9-.4 1-.5-.1-1.1-1-.4-1 .4-1 1 0 1.1 1m6.4.8c.3.5 2.4.7 4.6.6 5.1-.3 4.1 1.1-1.9 2.5q-7.1 1.6-7.1-1.4c0-1.9 3.4-3.2 4.4-1.7m-119.5 5.6a77 77 0 0 1 3.6 20.6l1.1 10.2c.4 3 .2 3.9-1.1 4.4-2.8 1.1-3.9-1.1-1.9-4 1.3-2 1.4-3 .5-3.9q-1-1.2-2.3.1-3.1 2.9-1.5-1.3 1.2-2.3 2-2.5c.4 0 .7-.9.7-1.9 0-1.6-.8-2-3.7-2.3-2-.2-3.8-.8-4-1.5-.4-1.2 4.1-1.2 5.4 0 1.2 1.3 2.3.7 2.3-1.3q-.1-1.8-1.5-2-3 .1.2-3.2c1.7-1.9 1.6-2-.7-3.8-2.4-1.8-2.4-1.9-.6-3.9 2-2.2 1.3-4.6-1.1-3.6-1.9.7-8.4-.4-7.9-1.4.7-1.1 9.4 0 10.5 1.3M69 343.5c1.4 3.6-1.4 9.5-4.5 9.5-1.9 0-2.5-3.8-.8-4.4 1.2-.5 1.3-.9.3-2.1q-1.5-1.6.5-1.5 1.7 0 1.2-1.4t0-2q1.9-1.7 3.3 1.9m156.8 9.5q-4.8 4-4.8.9 0-1 .9-.5c1.2.8 3.3-1.9 2.9-3.6-.1-.7.6-2.5 1.7-3.9l2-2.7.3 3.5c.3 3-.2 4-3 6.3m189.2-8.3q.3.6-1.4 1.9c-1.7 1.2-2.1 1.1-3.3-.4-1.2-1.6-1.4-1.6-2.6 0q-1.3 1.6-3.4 1.2c-2.8-.8-3.9 1.3-1.9 3.5 1.3 1.5 1.4 2 .4 2.9q-1.3 1.3-2.5-1.5c-1.1-2.3-.9-2.9 2.2-6s3.7-3.3 7.7-2.7c2.4.4 4.5.9 4.8 1.1m-262 3.6c0 1.1-3.9-1.6-4.5-3.1q-.4-1.2 2 .5c1.3 1 2.5 2.1 2.5 2.6m29.1-.9c-3.5 3.7-10.7 5.7-17 4.7q-10.2-1.5-1.4-2.5c2.6-.3 7.5-1.5 10.8-2.6 3.3-1 6.9-1.9 7.9-1.9 1.8-.1 1.8.1-.3 2.3m38.2 3.6c-.8 2.9-3.3 1.2-3.3-2.3 0-2.9.1-2.9 1.9-1.3 1.1 1 1.7 2.5 1.4 3.6m56.7-1.7c0 1.6-3.5.1-3.8-1.6-.3-1.6-.1-1.7 1.7-.5 1.2.7 2.1 1.7 2.1 2.1m116.3.2q-.6 1.4-1 1.1-.4-.5.2-1.5c.9-1.6 1.5-1.3.8.4m27.1 1.5 1.8 3.1-2.9-.7c-3.6-.9-3.6-.9-2.8-3.3.9-2.9 1.8-2.6 3.9.9M277 355.1c0 1.8-.2 2-1.5.9s-1.3-1.5-.3-2.1c1.8-1.2 1.8-1.2 1.8 1.2m133.5-.1q.7 1 1.5.5c.5-.3 3.5.2 6.7 1.1 4.4 1.3 6.9 2.8 11.1 7 3.3 3.4 5.1 5.9 4.6 6.6q-.6 1.1.1.6c1.4-1.3 9.6 10.9 10 14.9.1 2.1.8 5.1 1.4 6.6 1.5 3.9 1.4 9-.4 11.3-1.4 1.8-1.4 1.7-1.5-1.6-.1-6.3-2.5-12-8.4-19.5q-9.5-12-13.5-8.1c-1.6 1.7-1.4 2 5.1 9.9 2.8 3.2 4 5.7 4.5 9.2.5 3.8.3 4.7-.8 4.3a3 3 0 0 1-1.7-2.1c-.2-.9-3.4-4.9-7.2-8.9-7-7.4-9-11.6-9-18.7 0-3.4-.2-3.6-3.2-2-1.8 1-1.9.9-1.3-1.9.5-2.5.2-3.3-1.4-4.2-2.6-1.3-2.7-3.6-.3-4.9 2.2-1.3 2.9-1.3 3.7-.1m-341.1 1.9q1.9 1.9 1.1 5c-.6 2.9-.9 3.1-4.4 2.7-2.1-.1-4.3-.6-5-1-1.5-.9-1.4-5.9.1-7.4 1.8-1.8 6.3-1.4 8.2.7m16.1 1.1c-.3.5-1.3 1-2.1 1s-1.2-.5-.9-1 1.3-1 2.1-1 1.2.4.9 1m143.9-.1q.3.9-1.9 1.3-2.9.7-1.4-.8 2-2.4 3.3-.5m174.3 2.3q-.5 1-.5-1.2c0-2.2.2-1.9.5-1.3.2.7.2 1.9 0 2.5m-184.9 2.6c.2 1.8-.1 3.2-.7 3.2s-1.1-.6-1.1-1.3c0-.6-.3-2.3-.7-3.6q-.6-2.6.8-1.9c.8.2 1.5 1.9 1.7 3.6M99.5 361c-.3.5-1.6 1.5-2.8 2.1q-3 1.5.3-1 4-3.4 2.5-1.1m293.5.8q-.1 1-1.6 2.8-1.4 1.6-1.1.9l1-2.8c.7-1.7 1.7-2.3 1.7-.9m4 5.7c-.7 1.3-1.1 4.3-.9 6.9.3 3.6.2 4.3-.9 3.3-.9-1-1-2.6-.1-7.2.5-3.3 1.3-6.9 1.7-8q.7-2.8 1 .4c.2 1.3-.2 3.4-.8 4.6m-167.7 4.4-.8 11.1-.4 6.7c-.1 4.1-.3 4.3-3.1 4.3-3.6 0-3.7-.2-.5-3.4 3-3 3.2-6.2.6-7.1-2.2-.7-1.8-3.2.7-5.1 1.9-1.4.7-3.5-1.4-2.7q-1.9.9-.9-1.8c.4-1.3 1.6-3 2.6-3.7 2.3-1.6 2.5-4 .4-4.8-2.5-1-1.8-3.2.9-2.7 2.4.5 2.4.6 1.9 9.2m48.7-3.8q0 .8-1 .9-.9-.1-1-1.6.1-1.3 1-.9 1 .6 1 1.6m-59.2 4.1c1.1 1.5-.2 5.8-1.8 5.8-.5 0-1-1.6-1-3.5q0-5.4 2.8-2.3m171.2.3q0 1.3-1.5.9-1.4-.7-1.5-1.5c-.1-.8.7-.9 1.5-.9s1.5.7 1.5 1.5m-111.5 2.6c1.1 1.7-.1 2.1-1.5.4q-1.2-1.4-.2-1.5 1 .1 1.7 1.1m.5 7.5c0 2.2-.2 2.5-1.5 1.4q-1.8-1.3-.4-2.6c1.6-2 1.9-1.8 1.9 1.2m11.2 21.1.4 18.3h-2.3c-2.6 0-3.1-2.1-.8-4 1.9-1.6 1.9-2.9 0-5-1.3-1.4-1.2-1.9.1-4.5 1.8-3.5.4-5.6-2.5-3.8-1.7 1-1.7.8-.8-3.2q1-4.4 3-4.9c2.3-.6 1.7-3.2-.7-3-1.8.2-2.2-2.6-.5-4.3 1.5-1.5.3-4.7-1.3-3.7q-1.1.8-.5-1 .6-1.7.7-2.6c.1-.9.8-1 1.8-1.2 2.5-.5 3 2.4 3.4 22.9m-71.7-20.5c2.6 1.2 3.6 4.2 1 3.2-.8-.4-2.2-.1-3 .6-1.3 1.1-1.5.8-1.5-1.9 0-3.5 0-3.5 3.5-1.9m189 .7q-.6 1-1.7 1.1-1 0 .2-1.5c1.4-1.7 2.6-1.3 1.5.4M219.7 395c-.3 1.9-5.7 2.7-5.7.8 0-.7.3-2.3.6-3.5.6-2.2.7-2.2 3-.5 1.3.9 2.3 2.4 2.1 3.2m59.3-1.2v2.6l-1.6-2.2c-.8-1.2-1.2-2.7-.9-3.2 1-1.7 2.5-.1 2.5 2.8m143-.3q0 1.4-1 1.5-.9-.1-1-1.5c-.1-1.4.5-1.5 1-1.5q1 .1 1 1.5m17 3.4c1.7 3.2 1.2 8.6-1 10.6-2.8 2.6-9.7 1.5-12.7-2-2.4-2.7-3-6.9-1.3-8s4.2 1.6 3.5 3.3q-1 3.1 5.3 3.2c3.9 0 5.2-2.2 2.8-4.9-1.2-1.3-1.3-2-.4-2.9 1.7-1.7 2.6-1.5 3.8.7m-211 6.7c0 5.7-.2 6.5-1.4 5.4-.8-.6-1.2-1.8-.9-2.6s.2-2.2-.2-3.2c-.6-1.5-1-1.3-3.1 1.3-1.9 2.3-2.6 2.7-3.3 1.6q-.8-1.3-3-.6c-1.7.5-2.1.2-2.1-1.4q0-1.9 1.8-2 6 0 9-2.9c1.2-1.2 2.4-2.2 2.7-2.2s.5 3 .5 6.6m52.2-3.6c.5 3.5-.1 4.7-2.4 4.7-2.1 0-2.4-2.8-.6-5.7 1.8-2.8 2.5-2.5 3 1m203.8 1.4c0 1.4-.4 2.8-1 3.1s-1-.7-1-2.4.5-3.1 1-3.1 1 1.1 1 2.4m-59.7 11.3a11 11 0 0 1-2.9 2.8c-2.9 1.9-3.1 5.5-.4 8 1.7 1.5 2 3.1 2 9.1s-.3 7.6-2.1 9.2a14 14 0 0 0-2.8 4.8c-.7 2.6-1.2 3-5.9 3.4-2.9.3-5.6.2-6.2-.4-.5-.5 0-2.9 1.4-6 1.2-2.8 2.6-6.5 3-8.1.4-1.7 1.5-5.3 2.5-8a71 71 0 0 0 5.8-19.9q-.5-1.4 0-2c.9-.9 6.1 5.7 5.6 7.1m29.7-3.2c0 1.9-.4 3.5-1 3.5s-1-1.6-1-3.5.5-3.5 1-3.5 1 1.6 1 3.5m-238.2.7c.7.7 1.2 2 1.2 2.9s.7 2.2 1.5 2.9 1.5 2 1.5 2.8q0 1.8-1.2.4c-1.5-1.5-4.8-1.6-4.8 0 0 .6.7 2 1.7 3q1.4 1.7.5 1.8-1 0-2.6.6c-1.3.5-1.6-.2-1.6-4.5 0-3.8.4-5.1 1.4-5.1 2.3 0 3.1-2.2 1.3-3.5q-1.6-1.2-1.7-1.9c0-1 1.5-.7 2.8.6m65.6 8 .7 4.7-3.3-1.7c-3-1.5-3.1-1.7-1-2 2.9-.4 2.9-3.5 0-5.4q-2.1-1.4-1.3-2.7c1.3-2.2 4.2 1.9 4.9 7.1m-54.3 17.2c-.6 4.4-1.1 11-1.1 14.8 0 6-.2 6.8-1.9 6.8-2.3 0-4.5 2.5-3.6 4 .4.7 1.6 1 2.6.7 1.6-.4 1.9.1 1.9 3.3 0 2-.3 5.8-.6 8.4-.7 4.5-.9 4.8-6.5 7.7-6.5 3.2-11 4-8.9 1.4 1.7-2.1.5-4.5-2.2-4.5a8 8 0 0 1-4.2-1.5c-1.9-1.5-1.9-1.6.7-4.3 1.5-1.5 2.7-3.3 2.7-4 0-1.6 1.5-1.5 2.9.2q1.4 1.5-.9 1.9-2 .4-2 3.1c0 3.5 3.1 3.5 6.2-.2 1.2-1.5 3.6-3.3 5.1-4 4-1.7 3.3-4.8-1-4.5q-3.1.3-3.7-1.3-.7-1.5-2.1-1T209 461c0-2.4.6-2.4 4.2-.6 2.6 1.4 2.9 1.3 4.3-.7 1.9-2.7 1.9-4.1 0-5.7q-1.3-1.2-1-2c.3-.4-.4-1.8-1.4-3.1-1.6-2-2.1-2.1-3.5-1s-1.6.8-1.6-3.8q0-7.8 3.8-3.9 1.3 1.1-.5 2.3c-3.7 2.8 1 4 6.7 1.8 1.9-.8 2.7-1 4-1.2 1.9-.2 1-3.1-1-3.1s-2-.1-.4-2.6c1.3-2 1.4-2.8.5-3.7-1-.9-1.7-.6-3.5 1.6-2 2.5-2.4 2.6-3.6 1.3a5 5 0 0 0-3.2-1.6c-1.6 0-1.9-.6-1.6-3.3s.7-3.1 2.3-2.9a6 6 0 0 1 3.3 2.3c1.8 2.6 2.8 2.4 4-1q1-2.9 2.9-2.8 1.7 0 1.8-1.3c.1-1.3-.8-1.4-1.7-1.4-1.6.2-1.6-.1-.2-2.8q1.5-3 .6-4.1l-1.6-3.3c-.6-1.9-.3-2.1 1.9-1.6q2.5.5 2.7-.9a126 126 0 0 1-.1 23.5M484 412.5q0 1.4-1 1.5-.9-.1-1-1.5c-.1-1.4.5-1.5 1-1.5q1 .1 1 1.5m-53 .5q-.1.9-1.5 1c-1.4.1-1.5-.5-1.5-1q.1-1 1.5-1c1.4 0 1.5.4 1.5 1m5 .5q0 1.4-.9 1.5c-1.3 0-2.2-1.6-1.4-2.4 1.1-1.1 2.3-.6 2.3.9m1.3 4.4c2.3.9 2.8 1.6 2.5 3.9q-.2 2.9-2.6 3-2.8.7-1.7-1.7c.5-1.8.3-1.9-2.2-1.2-5.2 1.4-10.7.8-11.1-1.2q-1.1-4.9 7.1-4.2c2.9.1 6.5.8 8 1.4M286 424.4q0 .5-1 1.1-.9.4-1-.4.1-1 1-1.1 1 0 1 .4m3.6 4.8c-2.2 1.2-2 4.9.3 5.5q1.9.6 2.4 3.6c.4 2.6 0 3.6-2.1 5.4-2.2 1.8-2.4 2.4-1.3 3.7q1.4 1.5 2.6 1.6c1.4 0 2.5 3.1 2.5 7.2q0 2.8-1.5 2.8c-.7 0-1.9.8-2.4 1.7-1 1.7-1 1.6-1-.2 0-1.1.4-2.9.8-4 .6-1.5.2-2.6-1.5-4.2-2.9-2.7-3-4.9-.4-8.8 2.4-3.6 2.5-5.8.5-7.5-2-1.6-1.9-4.1.3-8.6 1.5-3.3 1.7-3.5 2-1.4q.2 2.3-1.2 3.2m143.2 6.3c.3 10.8.6 12.2 2.7 10.5q1.4-1 2.5-.5c1.3.8 1.3 4.8-.1 6.2-.6.6-1.3 2.6-1.5 4.5-.8 7.6-1 7.8-6.4 7.8-3.9 0-5.2-.4-6-1.9-1.4-2.6-1.3-6.4.2-7.9.9-1 .9-1.6-.3-2.8-1.5-1.4-1.3-1.8 1.2-4.4 2.9-2.8 2.9-2.9 2.2-12l-.6-9.2 2.9.4 2.9.3zm-150.4-6.4q2 2-2.6 1.2-2.6-.6-2.8-2c0-1.5 3.5-1 5.4.8m155.6 6.1c0 7.7-1 7-1.6-1.2q-.5-6.3.6-5.5c.5.3 1 3.4 1 6.7m-155 .7c0 1.6.6 3.1 1.3 3.4q1.2.4.1 1.6c-.7.8-1.9.2-4.4-2.4-3.1-3.2-3.2-3.5-1.2-3.5 1.2 0 2.2-.5 2.2-1q.1-1 1-1c.6 0 1 1.3 1 2.9m-1.5 10.5.9 5.1c.2 1.6.7 4.1 1.2 5.5.7 2.4.6 2.4-1.7-.4q-2.4-3-2-6.2c.1-1.7-.2-3.5-.8-3.9s-1.1-1.3-1.1-2c0-2.2 3-.6 3.5 1.9m99.5 1.5c1.5 3 1.2 5.3-.6 4.9-2.3-.4-3.9-3.2-3.1-5.2q1.6-3.2 3.7.3m-168.4 4.6q2.8 1.5 1.3 1.9l-3.1 1q-2 .8-1.8-1.9c0-2.9 0-2.9 3.6-1m253.3 1.9q1.3 1.4.2 3.3a126 126 0 0 0-2.6 16.8c-.9 8.3-1.8 16.1-2.1 17.5l-1.9 12.5c-.8 5.5-1.9 12-2.4 14.5l-1.1 5.2c0 .4-1.3 1.4-2.9 2.2s-3.1 2.4-3.4 3.6q-.6 1.9-2.6 2-4.7-.2 1.6 9.4c4.8 7.3 9.3 9.2 21.3 9 4.7-.1 9.6-.3 11-.5 3.1-.5 4.1 2.6 1 3.4-2.3.6-2.8 2.7-.6 2.7 1.4 0 2.6 2.1 2.6 4.6q-.1 1.4-1.7 1.2c-1.6-.3-1.8.9-2.1 11.9q-.3 12.1.8 12.3.9-.1 1.1-1.8 0-2.2.9.3c1.5 3.4 1.2 5.6-.7 5.3-1.7-.3-1.8 1.5-2.3 22.2-.3 12.4-.8 23-1.2 23.5-1 1.5-16.7 1.8-18.5.4q-1.4-1.4-2.1-.2c-.5.7-7.1 1.2-18.7 1.4l-18 .3V621c0-11.6-.3-16.4-1.2-16.7-1.4-.5-2.5 8-2 16.2.3 5.1-1.7 19-2.3 16-.1-.6-.3-41.6-.3-91.2-.1-59.7.1-90.3.8-90.3q3.2-.2 3.1 5.8c0 3.4.5 4.7 2.6 6.5 2.4 2 2.7 3 3 10.9.4 9 1.6 11.8 4.9 11.8 2.9 0 4.2-3.7 4.6-12.9.3-7.4.6-8.8 2.8-11.1a8 8 0 0 0 2.5-6.2c0-2 .6-4 1.3-4.5.6-.4 5.9-1.1 11.7-1.4l11.1-.7q.7 0 1.8 1.2m5.1.3c0 1-.4 2.4-.9 3.1q-.8 1.3-.7-1.7c.1-3.2 1.6-4.5 1.6-1.4m-89.9 4.2q1.1 2.6-.5 1.8c-1.6-.6-1.9.3-3.7 11.8-.6 4.4-1.5 8.7-2 9.5-.7 1.3-.3-11.9.5-17.7.2-1.3-.3-2.5-1.3-2.8-1.4-.6-1.4-.7.2-1.6q1.5-1.1 1.7-2.5c0-2.4 4.2-1.2 5.1 1.5m-85.8 6.3c.5 3.9.4 4.8-.8 4.8-.8 0-1.5-.9-1.5-1.9s-.8-2.2-1.7-2.6c-1.6-.6-1.5-.8.5-1.6 1.2-.4 2.2-1.6 2.2-2.5 0-3.1.7-1 1.3 3.8m-97.2-.2c-1.9 4.3-3.1 6-3.1 4.3 0-2 3-8.3 4-8.3.5 0 .1 1.8-.9 4m270.6-.8q-.5 1-.5-1.2c0-2.2.2-1.9.5-1.3.2.7.2 1.9 0 2.5m6-1q-.5 1.1-.6-.6t.5-1.3q.5.7.1 1.9m-190.5 1c2 1.6 3.5 6.2 1.9 5.7s-5.6-6.9-4.4-6.9c.5 0 1.6.6 2.5 1.2M476 469q.2 2-1 0c-.5-.8-1-2.2-1-3q-.2-2 1 0c.5.8 1 2.2 1 3m-192 5.4c0 .4-1.1-.1-2.5-1s-2.5-2.5-2.5-3.6c0-1.7.4-1.5 2.5 1 1.4 1.7 2.5 3.3 2.5 3.6m147 3.6c0 4-.4 7-1 7s-1-3-1-7 .4-7 1-7 1 3 1 7m46.4-5.5q.4 1.4-.4 1.5-1-.1-1-1.5c0-1.4.2-1.5.4-1.5s.6.7 1 1.5m-178.1 1.3c1.6 1.8 1.4 2-3.2 4-4.6 2.1-8.1 2.1-8.1 0q.1-.9 1.8-.3c3.5 1.3 4.2.9 5.6-3.8q1-3.3 3.9.1m167.4 3.9q-.5 1.3-.5-1.2 0-2.6.5-1.8c.2.7.2 2.1 0 3m17.1 13-.3 5.8-1.7-8.2c-1.6-7.8-1.6-8.4 0-11.3l1.7-3 .3 5.5c.2 3 .2 8.1 0 11.2M191.5 481q-1.6 1.8-1 2 .8 0 .3.6c-.5.6-1.5 0-2.7-.7-2-1.3-2-1.4.7-2.5q5.9-2.7 2.7.6m113.8-.5c-.4 1.5-3.6 1.2-4.1-.3q-.5-1.4 1.9-1c1.3.1 2.3.7 2.2 1.3m165.2 25.3c-.3 11.8-.9 22-1.2 22.8-.6 1.6-6.8 3.5-8.9 2.7q-1.4-.6-.9-2.2a408 408 0 0 0 7.5-39c0-1.3.5-4.2 1.2-6.3 1.1-3.8 1.2-3.9 2.1-1.7.5 1.4.6 11.8.2 23.7m6.1-17.6 2 9.8c.7 6.5 2.6 18.1 3.9 23.6 2.3 9.5 2.3 9.4-4.1 9.4h-5.6l.6-4.8c.4-2.6.8-13.8.9-24.9.1-11.2.3-20.3.4-20.3zm-275-3.7 2.9 1.5h-3c-4.7 0-7.9-1.1-6.3-2.1 1.9-1.2 3.2-1.1 6.4.6m96.9-.5q.5.9-.4 1-1-.1-1.6-1-.5-1 .4-1a2 2 0 0 1 1.6 1M165 485l-3.5 2.1q-2.4 1.3.4-1c1.3-1.2 2.8-2.1 3.5-2.1q.8.1-.4 1m143.5 2q-.6.8-2 .3-3.1-1.2.6-1.3 1.8 0 1.4 1m-130.7 1.2q3 3-1.8 5.3-2.9 1.4-3 .5.2-1.1 2.5-2.2 4-1.8 1.4-3.3c-.5-.4-1.8 0-2.7.8-1.7 1.5-7.2 3.4-7.2 2.4s6.5-4.7 8.1-4.7c.8 0 2 .5 2.7 1.2m136.2 1c0 1.7-1.8 4.4-2.4 3.7-.8-.7.5-4.9 1.5-4.9q.8.2.9 1.2m-157 1.7c-1.2 2.4-2.9 3.5-3.8 2.6q-.4-.8 1.7-2.6 4.2-3.6 2.1 0m170 8.8q0 1.2-1 1.3-.9-.1-1-1.4c0-.8-1.3-2.6-3-3.9a14 14 0 0 1-3-3.2c0-.3 1.8.9 4 2.7s4 3.9 4 4.5m-155-4.1a87 87 0 0 1-6.2 15.9c-1 1.6-1.8 4.3-1.8 5.9q0 3-1.5 2.2c-.8-.3-2.1.1-2.9.9-1.2 1.3-1.6 1.3-2.6 0-1.2-1.5-1.1-1.6 3.8-3.1 1.7-.5 1.5-4.1-.3-4.8q-1.3-.6-.9-2.1.6-1.8 2-.4c1.8 1.4 4.4.4 4.4-1.7q0-1.7-2.4-1.2t-3-.8q-.5-1.2 2.7-1.6c2.8-.3 3.2-.8 3.9-4.3q1.2-5.4 4.1-5.5.6 0 .7.6m148.3 3.8c1.7 1.3 1.6 1.4-.3 1.9q-1.8.5-2 .2l-.6-1.9q-.9-2.9 2.9-.2m-159.6 1.3c-1.6 1.6-1.8 1.6-3.4 0s-1.5-1.7 1.7-1.7 3.3.1 1.7 1.7m-20.2.3c-.4.6-3 2.5-5.8 4.3a47 47 0 0 0-6.6 5c-.7 1-1.9 1.7-2.5 1.7-1.9-.1 11.7-12 13.7-12q1.6.1 1.2 1m226.5 3.5c0 1.5-3.8 4-4.7 3.1-.7-.7 2.6-4.6 3.9-4.6q.7.1.8 1.5m-46.5.5q.4.9-.4 1-1-.1-1.1-1 0-1 .4-1t1.1 1m6.9 1.9c.3.5 1.4.7 2.4.4 1.4-.3 2.1.4 3 3.5 1.8 6 1.5 7.1-2 8q-3.6.8-3.2 3 0 2.2-1.6 2.2-4 .1-1.4 3.1c1.3 1.4 1.3 2.1.3 3.7s-1 2.3.1 3.7c.7.9 1.9 1.4 2.5 1.1q1.9-.5 3.9 5.8c.5 1.5.9 1.6 2.1.6 3.1-2.5.5-9.7-3.3-9.2q-2.2.3-2.2-1.3c0-1.6.6-1.4 2.3-1 2.9.8 5-1.5 4.5-4.7q-.3-2.3-2-2t-1.8-1.2q-.2-1.7 2.3-.7c3 1.1 5.5 7.6 3.9 10.2-1.7 2.7-1.5 3.4 1.4 4.8 2.5 1.1 2.6 1.2.9 3.1-1.6 1.8-1.6 2-.2 2.6 1.4.5 1.4.8.4 1.9a8 8 0 0 1-3.3 1.7q-1.6.5-1.8 2.1c.2 2.4-1.3 2.1-2.7-.4q-1.1-2.2-2.2-1c-3 3-7.7-.3-6-4.2.8-1.7.6-3.5-.8-7.2-2.4-6.2-2.6-15-.4-14.1.8.3 2 0 2.7-.7s2.6-2 4.1-3c2.1-1.4 2.7-2.5 2.5-4.5q-.2-2.8-2.1-2.4a2 2 0 0 1-2.3-1.3q-.6-1.4-2-1.5c-1.4-.1-1.4-.5-1.4-1 0-1.2 2.7-1.3 3.4-.1M141 508c0 .6-.9 2.8-2 4.9-1 2.1-2.7 7.2-3.6 11.2-.9 4.1-2 7.8-2.4 8.4-.5.6-5 .9-10.9.7-7.9-.3-10.1-.6-10.1-1.7 0-.8 3.6-4.4 8-8.1s8.7-7.5 9.5-8.7a35 35 0 0 1 10.8-7.6q.6 0 .7.9m183 2.5q-.2 1.4-2 1.5c-2.2 0-2.7-1.5-.7-2.3 2.1-.9 2.7-.7 2.7.8m-167.9 3.8c-.5.5-1.8.6-2.8.2-1-.5-2.4-.7-3-.6q-1.2 0-1.3-.9c0-.5.9-1 1.9-1 1.1 0 2.3-.5 2.7-1.2q.7-1 2.1.7 1.3 1.9.4 2.8m191-3c-.1 1.2-1.5.9-1.9-.4q-.4-1 .8-.8 1 .5 1.1 1.2m14.9.7q0 .9-.4 1-.5-.1-1.1-1-.4-1 .4-1 1 0 1.1 1m-238.2 2.8c-.7 1.1-3.5 3.8-6.3 6.1-2.7 2.4-6.9 6-9.2 8.2a19 19 0 0 1-5.5 3.9c-1.7-.1 19.3-19.9 21-20 1.1 0 1.1.3 0 1.8m199.4 1.7q-.1.9-1.1 1.3-1 .2-1.1-1.3c-.1-1.5.5-1.5 1.1-1.3q1 .4 1.1 1.3m41.3-.5q.5.9-.4 1-1-.1-1.6-1-.5-1 .4-1a2 2 0 0 1 1.6 1M150 521.5q-.1.7-1-.5-1.2-1.8-1-2.5.1-.8 1 .5 1.2 1.8 1 2.5m14.3 8.4c.6 5.6.4 6.5-1.5 8-2.5 2.1-1.6 4.5 1.3 3.8q2-.7 3.4 2.4c.9 1.6 1.2 2.9.8 2.9q-.6 0 .5 1.2c1.1 1.2 1.2 1.8 1.2 2.5q.2 1.6-2.1.3a5 5 0 0 0-3.6-.6c-2.4 1 .5 3.9 3.3 3.3 2-.3 2.2-.1 1.4 1.4-.6 1-1.5 2.1-2 2.4q-1 .6 0 2.5 2.3 4-.9 1.9c-2.4-1.6-4.8-.6-5.4 2.3l-.4 2.3-.8-2.3c-.6-1.8-1.3-2.2-3-1.8-4 1-5.8-1.5-6.3-8.8-.4-5.9-.3-6.6 1.3-6 2 .8 3.6-1.2 2.8-3.3-.3-.8-1.4-1.3-2.3-1-2.4.6-3.9-4.5-3.2-11.2.5-5.4 1.4-6.1 4.3-3.5 2.3 2.1 3.9 1 3.9-2.5 0-2.5.3-2.7 3.4-2.7l3.4.1zM362 528q0 .9-.4 1-.5-.1-1.1-1-.4-1 .4-1 1 0 1.1 1m25.5 0c.8 1.3-3.5 1.3-5.5 0q-1.8-1 1.7-1c1.7 0 3.5.4 3.8 1m16.5 0q0 .9-.4 1-.5-.1-1.1-1-.4-1 .4-1 1 0 1.1 1m-1 6c0 1.7-7.1 8.1-8.8 7.9-.9-.1-2.9.4-4.5 1.1-2.1 1-3 1.1-3.9.2-.7-.7-2.3-1.2-3.6-1.2-4.8 0-1.5-2.5 4.2-3.1 3.2-.4 6.3-1.2 6.9-1.8 1.4-1.4 2.6-1.2-12.8-1.6-7.1-.1-14.1-.7-15.5-1.3-1.9-.8 2.7-1.1 17.8-1.1 12.4-.1 20.2.3 20.2.9m73 0q-.1.9-1.1 1-.8-.1-.4-1 .6-1 1.1-1 .4 0 .4 1m-5.9 1.4c-1.7 2-.6 3.6 2.5 3.6 3.4 0 2.2 1.6-1.8 2.5-6.8 1.6-8.1 1.6-9.9-.1-1.7-1.5-2.3-1.5-4.4-.4s-2.7 1.1-4.5-.5c-2.5-2.2-2.6-5.2-.2-5.7.9-.2 5.7-.5 10.6-.7 8-.2 8.8-.1 7.7 1.3m-338.4 2.2c.8 2.3-.9 6.9-2.7 6.9q-1.3 0-1.5-3c0-2.6-.4-3-2.5-2.8-3.4.2-5.3-.5-4.5-1.7.3-.5 2.9-1 5.6-1 3.6 0 5.1.4 5.6 1.6m-14.7 5.9q-.1 1.3-1.4 1.5c-2 0-2.9-1.7-1.4-2.3 2.2-.9 2.8-.7 2.8.8m6.2 0q-.1.9-1.1 1.3-1 .2-1.1-1.3c-.1-1.5.5-1.5 1.1-1.3q1 .4 1.1 1.3m-22.5 8.7q-.5 1-.5-1.2c0-2.2.2-1.9.5-1.3.2.7.2 1.9 0 2.5m30.3-1.6q.1 2-1.5.4-1.4-1.2-1.5-1.6.1-.4 1.5-.4c1.4 0 1.5.7 1.5 1.6m-.2 23.6c-.2 10.4.3 22.3 1.4 32.8l1.8 17.2q-.2.6-1.5.2-1.6-1-1.5 2.5c0 3.6 1.7 4.1 3 .8q1-3.1.9.9c.1 3.2-2 6-3.4 4.6q-.6-.5-.3 1.3c.3 1.8-1.1 5.1-2.9 9a32 32 0 0 0-3.3 10.7c0 2.1-1 5.9-2.2 8.5-2.9 6.1-2.7 5.8-3.9 4.6-1.3-1.3-2.1-94-.9-94.8s1.8 2.3 1.9 13.3c.1 11.3.5 13 2.7 11.1 1.2-.9 1.3-3 .8-10-.5-6.4-.4-8.9.5-9l2.1-.3c1.3-.1 3-2.6 3-4.4 0-.7-1.2-2.4-2.6-3.7l-2.7-2.5h2.7c3.9 0 2.8-2.4-1.5-3.1l-3.4-.6 3.7-.2c4.3-.1 5.8-1.9 3.3-3.8-1.8-1.2-1.8-1.3.3-1.3 2.2 0 2.2.1 2 16.2m-56.1-9q-.5 1.1-.6-.6t.5-1.3c.3.3.4 1.2.1 1.9m37.3.5q0 2.8-1 1.7c-.6-.6-.8-1.8-.4-2.7q1.4-3.6 1.4 1m.2 8.7c.3 1.4.1 3.1-.3 3.8q-.9 1.1-.9-2.5.1-6.4 1.2-1.3M125 573q0 .9-1 1a1 1 0 0 1-1-1q.1-1 1-1t1 1m-49.6 7.3q.6 2.8-.4 2.2c-.5-.3-1-1.8-1-3.2q0-4.7 1.4 1m408.3 48.9q-.5 1-.5-1.2c0-2.2.2-1.9.5-1.3.2.7.2 1.9 0 2.5m.3 4.8q-.1.9-1.1 1-.8-.1-.4-1t1.1-1q.3 0 .4 1m-74 3c0 .5-1 1-2.2 1q-2.7.1-.8-1 3-2 3 0m51.7 4.9.9 3q.3 1.6 1.9.1a3 3 0 0 0 .9-3.3q-.6-2 .7-1.5c.8.3 2.3 3.5 3.3 7.1 1.1 3.7 2.5 6.6 3 6.4 1.5-.5 2-7.7.7-9-1.8-1.8-1.3-4.9.6-4.5 2 .4 4.1 6.4 4.2 12 .1 4 1.6 5.7 3.4 3.9q2.6-2.5 2.7.9 0 1.8-.2 2.1l-26.6.5-26.2.5-1-2.6c-.6-1.5-1-4.7-1-7.1 0-3.8-.3-4.5-1.7-4.2s-1.7 1.2-1.5 4.5c.5 6.7-1.8 11.3-3.1 6.3-.5-2.1-2.6-2.8-2.8-1l-.3 2.2c-.2 1.7-8.6 1.3-9.7-.4-.5-.7-1-3.9-1.1-7.1l-.2-7.4c-.1-2.6 3-3 28.7-3 21.3-.1 23.9.1 24.4 1.6m21.7-.3c.9 2.4.7 10.9-.2 9.8s-3.2-8.4-3.2-10.3c0-1.7 2.7-1.3 3.4.5m6.6 3.6q.1 2.7-1 .8-2-3 0-3c.6 0 1 1 1 2.2m-468.6-.6c1.8.7 2.2 4.9.5 6-.6.3-1.6.1-2.2-.5a5 5 0 0 0-2.8-1.1c-1.6 0-3.2-3.3-2.1-4.4.7-.8 4.6-.8 6.6 0m44.4 2.1q.4 2.1 1.4 2.3c.5 0 2.4 1.1 4 2.5 3.6 3.1 4.8 2.5 4.8-2.2 0-5 1.2-3.4 1.6 2.3a15 15 0 0 1-1.2 7.6l-1.6 3-8.1-.6-15.8-.6h-7.7l.2-3.3c.1-2.6-.3-3.2-1.9-3.2s-2.1.8-2.3 3.2-.8 3.3-2.3 3.3c-1.7 0-1.9-.7-1.9-6.3 0-11.5-1-10.8 15.9-10.5 14.3.3 14.6.3 14.9 2.5m17.2 1.8q.1 2.4-1 .5a8 8 0 0 1-1-3.5q-.1-2.4 1-.5a8 8 0 0 1 1 3.5m-53 4.6c0 6.7-.3 8-1.6 7.7-1.8-.4-1.8-.1-.9-8.8.4-3.9 1.1-7 1.6-7s.9 3.6.9 8.1m-25.3-2.4q-.5 1.3-.5-1.7c0-3 .2-2.7.5-1.8s.2 2.6 0 3.5m5 2q-.5 1.4-.5-1.2t.5-1.8c.2.7.2 2.1 0 3m479.7 2.7c-.3 2.1-.8 3.5-1.1 3.2-.2-.2-.1-2 .3-4 .3-2.1.8-3.5 1.1-3.2.2.2.1 2-.3 4M4.7 658.2q-.5 1-.5-1.2c0-2.2.2-1.9.5-1.3.2.7.2 1.9 0 2.5m4 0q-.5 1-.5-1.2c0-2.2.2-1.9.5-1.3.2.7.2 1.9 0 2.5m73.5 2q-1.1 1-1.2.2c0-1.4 1.2-2.6 1.9-1.9q.3.6-.7 1.7m-65.8 7.9c-2.1 2.4-2.9 1.8-1.4-1 .6-1.2 1.6-1.9 2.1-1.5q1 .6-.7 2.5m9.6-2.2c0 .5-.8 2.3-1.7 4-1.6 2.7-1.6 3.3-.3 4.1 1.9 1.2 4.6-1.2 6.2-5.6l1.2-3.4h31.5l1.6 3.1c1.3 2.5 2.1 3 4 2.5 2.4-.6 3.2-.1 5.9 3.8 1.8 2.7 5 1.4 4.1-1.6-.6-2-.3-1.9 1.9.7 1.4 1.6 2.5 3.3 2.6 3.8 0 1.1-74.7.8-77.7-.4-3.3-1.2-2.8-1.7 2.6-2.2 2.6-.2 4.7-1.1 5.3-2q.9-1.4 2.2-1.1c.7.3 2.5 0 3.9-.5q2.8-1 2.7-3.6c-.1-2.6.5-2.5 2-2.5q1.8 0 2 .9m64.8 11.2c-1.5.9-2.8.2-2.8-1.5 0-.7-1.3-2.5-3-3.9-1.6-1.5-3-3.3-3-3.9s2.2 1 5 3.7q5 4.9 3.8 5.6m-36 5.6c1.9.3 3.6 1.2 3.9 2s0 6.1-.8 11.9L56.6 707H28.1l-.3-8.8c-.2-6.8-.6-8.7-1.8-8.7-.8 0-1.7 1.4-2.1 3.3-1.1 5.3-2.2 5.2-1.5-.2.3-2.7.6-6.2.6-7.8v-2.9l14.3.1c7.8.1 15.7.4 17.5.7m11.2 4.8c0 1.9.5 3.7 1 4 1.7 1.1 4-1.5 4-4.6 0-1.5.4-3 .9-3.3.5-.4.9 2.4.9 6.1-.1 10.9 0 11.3 2.2 11.3 1.6 0 2-.7 2.2-3.3 0-1.7.2-3.7.3-4.2l.4-2.4c.2-2 3.1.6 3.1 2.8 0 3.2-3.1 10.9-5.1 12.7q-3.7 3.4-4.8-4.3c-.5-2.9-1.1-3.8-2.6-3.8-1.6 0-2.1.8-2.3 4.2-.4 5.1-1.7 5.6-2.8 1-.8-3.2-.6-18.5.3-20 1-1.6 2.3.6 2.3 3.8m13.5-3.6q.4.9-.5 1.6-.9.4-1-.9 0-2.7 1.5-.7m9.5 0c0 .9-2.4 2.1-4.1 2.1q-.8-.2-.9-1.5t2.5-1.5q2.3 0 2.5.9m5.4 8.8c-1.7 4.1-3.4 6.4-3.4 4.6 0-2 3-8.3 4-8.3.5 0 .2 1.7-.6 3.7m-6.6 4.7c-.7 2.5-1.6 4.6-2 4.6q-1.6 0 .1-4.2l1.5-4.2c1.3-3.9 1.6-.7.4 3.8m-65.1 4.8c-.2 2.5-.9 4.3-1.5 4.2l-3.2-.3c-2.7-.2-2.5-2.9.3-3.3a5 5 0 0 0 3.2-2.6q2-5 1.2 2m404 28.4q-.7.5-1.9.1t.6-.6q1.8 0 1.3.5m-209.8 2.8a57 57 0 0 1-9.6 4c1.8-1.8 6.4-4.3 8.1-4.3q1.7 0 1.5.3m-63.9 2.5c0 2.3-1.4 4.1-3.1 4.1q-3.5.2-.2-3.2c1.7-1.9 3.3-2.4 3.3-.9m202.5.1q-.6.9-2 1c-1.4.1-1.7-.5-2-1q-.4-1 2-1c2.4 0 2.4.4 2 1M228 737.4c0 .8.9 1.7 1.9 2.1 1.1.3 2.5 1.3 3.2 2.1 1.1 1.3.9 1.9-1.1 3.4-2.1 1.6-2.7 1.6-4.4.4-2.8-1.9-5.9-1.9-3.3 0 2.5 1.9 2.1 2.9-1 2.2q-2.5-.4-1.5 0c1.8.8 1.5 2.7-.4 2-.9-.4-2.8.4-4.6 1.9a11 11 0 0 1-5.1 2.6l-6.7.2c-6.7.3-6.5-2.2.7-9.2 4.5-4.4 7.3-6.1 11.4-7.3 7-2.1 10.9-2.2 10.9-.4m-82.3 4.2q-.6.5-1.9.1-1.1-.5.6-.6t1.3.5"/><path d="M364.1 176.4q-1.2 1.4-.1 2.1t.5 1.6q-.4.7.9.3c1.8-.7 2.2-2.4.6-2.4q-.8-.1-.4-1.5c.8-1.9 0-1.9-1.5-.1m4.4.6q-.4.9.4 1 1-.1 1.1-1 0-1-.4-1t-1.1 1m-12 14q.7 1 1.6.5 2-1.4-.7-1.5-1.3.1-.9 1m-5.5 10.1q.1.8 1 .4 1-.6 1-1.1 0-.3-1-.4-.9.1-1 1.1m-3.7 12.6c-.7.2-1.3 1.2-1.3 2.1q0 1.6.8.7t2-1c1.3 0 1.8-1.8.5-2.1-.4-.1-1.4 0-2 .3M342 230c-1.4 1-2.2 2.2-1.8 2.5.3.4 1.6-.3 2.8-1.5 2.8-2.8 2.2-3.4-1-1m-97-45c0 .5 1.3 1 2.9 1 1.7 0 3.3-.5 3.6-1q.4-1-2.9-1c-2 0-3.6.4-3.6 1m4.5 12c.3.5 1.5 1 2.6 1 1 0 1.9-.5 1.9-1s-1.2-1-2.6-1-2.3.4-1.9 1m7.5 4c0 .5 1.4 1 3 1s3-.5 3-1-1.3-1-3-1-3 .4-3 1m-18 .9c-.8.6-2.5.8-3.7.4q-2.2-.4-2.3.6 0 1.3 1.6.9c2.8-.5 2.7 1.9-.1 2.6-3 .8-2.3 2.8.8 2.4 1.6-.2 2.2.4 2.9 2.9q.8 3.4 3.4 3.9c2.4.6 11.1.1 11.9-.8.2-.2.1-3.3-.3-6.8l-.7-6.5-6-.3c-3.3-.1-6.7.2-7.5.7m10.5 6.6c0 2.7-.3 3-3.6 3.3-3.2.3-3.7 0-4.1-2.2q-.9-5 4.7-4.4c2.6.3 3 .7 3 3.3m-32-4.5q-.4.9.9 1 1.5-.1 1.6-1 0-1-.9-1t-1.6 1m6.5 0q.2.9 2.5 1c2.3.1 2.5-.5 2.5-1q-.2-1-2.5-1c-2.3 0-2.5.4-2.5 1m45 3.1q.1.8 1 .4 1-.6 1-1.1 0-.3-1-.4-.9.1-1 1.1m-46.5.8q-.4 1 .2 1.4c1.2.8 6.3-.4 6.3-1.4 0-1.2-5.7-1.2-6.5 0M267 211q.1.9 1 1 1-.1 1-1t-1-1a1 1 0 0 0-1 1m-42.7.7c-4.6.6-4.1 2.3.6 2.3 4.4 0 7.1-.8 7.1-2.1 0-.9-1.6-.9-7.7-.2m2.7 3.8-5.2 1c-5.8.9-4.8 2.9 1 2 7-1 9.2-1.6 9.2-2.6q-.2-1.3-5-.4m37.5.5q.6.9 1.6 1 .8-.1.9-1-.1-1-1.6-1-1.3 0-.9 1m10.5 14.5q.1 1.4 1 1.5 1-.1 1-1.5c0-1.4-.4-1.5-1-1.5q-.9.1-1 1.5m-52.5 18.4c-.6 1.1.9 2.3 1.9 1.4s.7-2.3-.3-2.3q-1 0-1.6.9m.8 4.7c-.8 2 1.3 4.2 2.7 2.8 1.2-1.2.3-4.4-1.1-4.4q-.9.1-1.6 1.6M26.1 289.8l-2.3 1.7 2.1 1.9c2.4 2.2 5.1 1.5 5.1-1.2 0-3.3-2.4-4.5-4.9-2.4m76.5.1c-.9 1.4.4 4.1 1.9 4.1s2.8-2.7 1.9-4.1q-.6-.8-1.9-.9t-1.9.9M245.9 325c-.9.5-2 2.2-2.3 3.6-1.4 5.3 6 8.7 9.7 4.6 2.4-2.6 2.1-4.7-.9-7.1-2.9-2.3-4.1-2.5-6.5-1.1M62 358.5c-1.8 2.1-.5 4.5 2.5 4.5 1.4 0 2.8-.7 3.1-1.5.7-1.7-1.2-4.5-3.1-4.5q-1.2.1-2.5 1.5m157.2 88.7c-1.6 1.6-1.5 5.8.2 5.8 1.9 0 3.8-2.6 3.4-4.6-.4-2.2-2-2.8-3.6-1.2m-3.2 26.3c-1.3 1.5-.7 4.5.9 4.5 1.8 0 5.4-3.7 4.7-4.8-1-1.7-4.1-1.5-5.6.3M428 456c-2 1.2-.1 4.5 2.6 4.5 2.2 0 3.2-3.4 1.2-4.6-1.7-1.1-2-1.1-3.8.1m29.5 12.9c-.7 1.2 1.2 2.4 2.5 1.6 1.1-.7.4-2.5-1-2.5q-.8 0-1.5.9m-4.1 14.5c-.9 2.3.7 3.8 2.6 2.6 1.3-.8 1.3-1.1-.2-2.6-1.6-1.7-1.8-1.7-2.4 0M422 501q.1 1.8 1.3 2 3-.1 2-2.6c-.8-2.1-3.3-1.7-3.3.6m16.4-.9q-.5 1 .4 2.1c1.3 1.3 3.2.2 3.2-1.8 0-1.6-2.6-1.9-3.6-.3m2 12.2c-.6 1.7.2 3.7 1.6 3.7s1.9-2.9.5-4c-1.2-1-1.6-.9-2.1.3m-9.9 1.6c-.8 1.5.3 3.1 2.1 3.1q1.4-.1 1.2-1.7c-.4-2-2.4-2.8-3.3-1.4m-11.9 5c-1.1 1.6-.4 76.1.6 76.7q.9.4 1.5 0c.3-.3.6-17.7.7-38.7.1-28.2-.2-38.3-1.1-38.6q-1-.3-1.7.6m12.1 17.7c-1.3 1.3-.7 2.4 1.4 2.4q1.8 0 1.7-1.2c-.5-1.4-2.2-2.1-3.1-1.2m12.9 9.1c-1.2 1.2-.6 3.3.9 3.3q1.4-.1 1.5-1.4c0-1.7-1.4-2.8-2.4-1.9m-18.9 11c-.3 2.1-.3 12.3-.1 22.8l.7 36.5c.2 10.2.7 17.5 1.3 17.4 1.4-.2 2.4-7.3 1.8-13.9-.2-3.3-.6-19.5-.8-36-.3-17.4-.8-30.1-1.4-30.3s-1.2 1.4-1.5 3.5m42.9 20.9c.2 21.8.6 26.9 1.8 23.3a497 497 0 0 0 .9-45.5q-.6-1.3-1.7-1.4c-.8 0-1.1 6.2-1 23.6m7-17.8a875 875 0 0 0-.1 74.2c2-.1 2.3-5.5 2.7-39.7.2-25.6 0-34.7-.9-35q-1-.3-1.7.5m-18.4 7.4c.6 1.8 2.8 2.1 2.8.4q-.1-1.5-1.6-1.6-1.4 0-1.2 1.2m-3 8.9q.4 1 1.3 1 1.2 0 1.3-1t-1.3-1.1c-1.5-.1-1.5.5-1.3 1.1m-14 2.1c.6 1.8 2.8 2.1 2.8.4q-.1-1.5-1.6-1.6-1.4 0-1.2 1.2m.8 10.2q.1 1.5 1.6 1.6 1.4 0 1.2-1.2c-.6-1.8-2.8-2.1-2.8-.4m21 5.5q.1 1 1 1.6 1 .4 1-.9 0-1.5-1-1.6-.9 0-1 .9m-16.8 12.5q.4 1.6 1.3 1.7c1.5-.1 1.2-2.4-.3-2.9q-1.4-.4-1 1.2M461 608q.1.9 1 1 1-.1 1-1t-1-1a1 1 0 0 0-1 1m5.5 1.9c-.3.5-.7 3.6-1 6.8-.2 3.2-.7 8.4-1.1 11.5q-.7 6 .5 5.8 1-.2 1.3-2.8c.2-4.6.6-7.5 1.7-12.2 1.3-5.7 1.4-10 .2-10q-1 0-1.6.9m-32.8.7c-.9 1 .4 3.4 1.9 3.4q1.3-.2 1.4-2c0-1.9-1.9-2.7-3.3-1.4m21.8 9.4q-.4 1 1 1.6c1.9.8 3 0 2-1.5-.8-1.4-2.2-1.4-3-.1m-5.3 2.2c.6 1.8 2.8 2.1 2.8.4q-.1-1.5-1.6-1.6-1.4 0-1.2 1.2m-12.7.8c-1 1.6 1.6 4.3 2.8 3.1s.2-4.1-1.2-4.1c-.5 0-1.3.5-1.6 1m31.5 7.6q0 2.3 1 1.9c.6-.3 1-1.5 1-2.6q0-1.7-1-1.9c-.5 0-1 1.2-1 2.6m-35.4.1c-1.2 1.2-.6 3.3.9 3.3q1.4-.1 1.5-1.4c0-1.7-1.4-2.8-2.4-1.9m16.4.3q.1.9 1 1 1-.1 1-1t-1-1a1 1 0 0 0-1 1m26.5-106c-.9 2.8 1.1 5.2 2.5 3a4 4 0 0 0 .7-2.9c-.4-2.3-2.5-2.4-3.2-.1m-151.4 17.4c-1.4 1.7 1.1 4.1 3.4 3.2 2-.7 1.9-3.2-.1-4-2.1-.8-2-.8-3.3.8m-167.7-10.9q-1.5 2.2-2.5 1.9c-.5-.3-1.8 0-2.9.6-2.9 1.5-2.3 5.2 1 6q2.3.7 3 3 .7 2.5 2.5 2.5c2.8 0 3.1-3.3.5-6l-2.2-2.3 3.1-1.6q5-2.5 1.9-5.4c-1.7-1.7-2.6-1.5-4.4 1.3m-2.9 24.9c-1 .7-1.5 1.8-1.1 2.4.9 1.5 1.8 1.5 4-.1 1.5-1.1 1.6-1.5.4-2.5-1.1-.9-1.9-.9-3.3.2M125 585c0 2.2.4 4 1 4 1.2 0 2.4-4.5 1.6-6.5-1.1-2.9-2.6-1.5-2.6 2.5m-.2 17.2c-.3 14.6.1 32.9.8 33.9 1.8 2.9 2.3-2.4 2.2-21.6-.1-17.3-.4-21.5-1.5-21.5-1 0-1.3 2.3-1.5 9.2m-.6 38.9q.4 1 1.3 1 1.2 0 1.3-1t-1.3-1.1c-1.5-.1-1.5.5-1.3 1.1m307.3 5.1c-1.2 3-.1 10.3 1.5 10.3 1.2 0 1.4-1.1 1.2-5-.4-5.3-1.7-7.9-2.7-5.3m6.3 1.3c-.3 1.4-.1 2.8.3 3.1 1.5.9 2.9-.6 2.9-3.2 0-3.2-2.6-3.1-3.2.1M419 649q.1 1.8 1.5 2c1.7 0 1.8-.2.9-2.4-.9-2.3-2.4-2-2.4.4m-6.6 4.5q-1 4.5 1.5 3c1.4-.8 1.4-5.5.1-5.5-.5 0-1.2 1.1-1.6 2.5m47.6 2q0 1.5 1.8 1.3c2.1-.4 1.9-2.2-.2-2.6q-1.5-.3-1.6 1.3M51.2 694.2c-1.5 1.9-1.8 8.6-.5 9.9 2 2 4.3-.8 4.3-5.1s-2.1-6.8-3.8-4.8M227 741.9q.2.9 2 1.4c2.4.6 2.7-.8.4-1.7-2.1-.8-2.4-.8-2.4.3M14.5.9c-.3.5-.5 10.3-.4 21.8.2 32.3.2 42.5 0 60.7-.1 10.5.2 17.3.8 17.9q1 1 1.5.6a539 539 0 0 0 1.9-44.4l-.2-33.3C18 4 17.7 0 16.5 0q-1.2 0-2 .9M34 .9c0 1.8 1.8 2.1 3 .6 1-1.3.9-1.5-.9-1.5C35 0 34 .4 34 .9m6.8 3.3c-.5 4.5.5 7 2.1 5.2.5-.5 1.1-2.8 1.4-5.2C44.7.6 44.5 0 43 0c-1.4 0-1.9 1-2.2 4.2m377.5 0 1.2 9.5c1.1 8.5 2.5 6.1 2.5-4.2 0-9-.1-9.5-2.1-9.5-1.9 0-2.1.4-1.6 4.2m12.8-1c-1.4 4.4-2.3 27.6-1 28.3q.8.5 1-.7l.8-14.3c.4-7.2 1.1-13.8 1.5-14.8q.7-1.6-.2-1.7c-.6 0-1.5 1.5-2.1 3.2M21.5 2.1c-1.1 1.6-.3 38.2 1.3 65.4.8 13 2.7 14.6 2.6 2.2-.3-47.8-.8-66.8-2-67.8q-1.2-1-1.9.2m7.9 2c-.9 1.5 1.2 3.3 3 2.6Q33.9 6 34 4.5c0-1.7-3.5-2.1-4.6-.4m395.4-.5c-1.1 1-1 13.4.1 13.4q.9-.2 1.4-2.8c.6-3.4-.6-11.6-1.5-10.6m40.7 4.6 1.1 22.4.7 18.2L465 50l-2.3 1.2 2.7 2.2 2.7 2.1.2 22.3c.1 17.1.5 22.2 1.4 22.2 2 0 2.1-20.6.4-40.5-.6-6.1-1.3-20.7-1.7-32.5s-.8-21.8-1.1-22.3c-1.2-1.9-2-.3-1.8 3.5M438 10q.1.9 1 1 1-.1 1-1t-1-1a1 1 0 0 0-1 1M28.1 12.4q-1.3 1.3.3 2.5c1 .9 1.6.8 2.6-.3 1.2-1.5.6-3.6-.9-3.6q-1 .1-2 1.4m183.5-.5q-1.7 3 4.4 3.1c3.1 0 4.3.6 5.7 2.6l4.1 5.4c2.9 3.7 2.8 5.3-.8 10.4-3.3 4.9-4.6 5.6-10 5.6-2.1 0-4.3.6-5 1.5q-1.5 1.6.1 1.6c7.3.5 60.1-.1 61-.7 1.8-1.1-1.9-3.4-5.5-3.4-7.3 0-7.6-.4-7.6-9.4 0-12.2.2-12.6 6.4-12.6 4.7 0 9.9-2 8.6-3.3-.3-.3-14.1-.8-30.6-1.2-21.9-.5-30.3-.4-30.8.4M235 16c1.3.8 1.2 1.2-.6 3-2 2.1-2 2.1-3.8.1-2.9-3.2.5-5.6 4.4-3.1m15.3 8-.2 10.6q0 2.3-3.2 2.6c-2.4.4-3.7-.1-6-2.4-4.1-4.1-4.6-7-1.8-11q6.1-9 9.4-8.6c1.8.3 2 1 1.8 8.8M234 34.4l.6 2q1 1.8-2.5 1.6-5 .1-1.9-2.8c1.1-1.1 3.8-1.7 3.8-.8M34.7 12.6c-1.4 1.4-.7 3.5 1.1 3.2q1.5-.5 1.7-1.7c0-1.6-1.8-2.5-2.8-1.5M447.5 17q-.4.9.4 1 1-.1 1.1-1 0-1-.4-1t-1.1 1M28.6 27.9q-.3 1 .8 2c1.6 1.3 3.2-.2 2.1-1.9-.8-1.2-2.2-1.3-2.9-.1M438 28q.1.9 1.5 1c1.4.1 1.5-.5 1.5-1q-.1-1-1.5-1c-1.4 0-1.5.4-1.5 1m19 1.5q.1 1.5 1.1 1.3 1-.4 1.1-1.3 0-1.2-1.1-1.3-1-.2-1.1 1.3m-33 5.6q0 4.1 1.3 3.7c1.7-.6 1.8-7.8.1-7.8q-1.4 0-1.4 4.1m5 6q0 4.8 1 4.4c.6-.3 1-2.6 1-5.1s-.4-4.4-1-4.4-1 2.3-1 5.1m19.5-4.2c-.6 1.1.9 2.3 1.9 1.4s.7-2.3-.3-2.3q-1 0-1.6.9m-13 2c-.6 1.1.9 2.3 1.9 1.4s.7-2.3-.3-2.3q-1 0-1.6.9M32.5 46c-.7 1.2.2 3 1.6 3q.8-.2.9-2c0-2.1-1.5-2.7-2.5-1m389.2 1.8c-.8 1.2-1.7 92-1 97.9 1.5 12.9 2.3 2.7 2.3-29.5 0-19.1.3-42.2.5-51.4.4-14.8-.1-19.9-1.8-17M427 62c0 4.7-.3 12-.5 16.2-.3 4.6-.1 7.9.5 8.3q.9.5 1-.2c.7-12.9.7-29 0-30.6q-.9-2.4-1 6.3m11-2q.1.9 1.5 1c1.4.1 1.5-.5 1.5-1q-.1-1-1.5-1c-1.4 0-1.5.4-1.5 1M37.2 73.4q.4 1.6 1.3 1.7c1.5-.1 1.2-2.4-.3-2.9q-1.4-.4-1 1.2M32 76q0 2 1.3 1.7 1-.5 1.2-1.7c.2-1.2-.6-1.5-1.2-1.8Q32.1 74 32 76m427.5 5q-.6 1.1.3 2.2 1 1 1.7-.2t-.3-2.2-1.7.2m-4.8 1.4q-.7 2.4 1.5 2.6c1.1 0 1-2.7-.1-3.4q-.9-.4-1.4.8M438 84q.1.9 1 1 1-.1 1-1t-1-1a1 1 0 0 0-1 1M19.7 96.2c-.9 3.2.5 42.8 1.5 43.4.4.3.8-3 .9-7.3a329 329 0 0 1 1.4-34.2c.8-1.4-.5-4.1-2-4.1-.7 0-1.5 1-1.8 2.2m17.5 3.4c.4 2.1 2.2 2.3 2.6.1q.3-1.6-1.3-1.7c-1.6-.1-1.5.6-1.3 1.6m404.4.1c-1.1 1.1-.6 2.3.9 2.3q1.4 0 1.5-.9c0-1.3-1.6-2.2-2.4-1.4m-12.6 6.8q.1 1.3 1 1.5 1-.2 1-1.5c0-1.3-.4-1.5-1-1.5q-.9.2-1 1.5m-416.5 6.2c-.7 7.1-2 103.2-1.6 123.8q.3 16.4 2.4 12.8c.3-.5.8-29.3 1.1-63.9s.8-66.6 1.2-71.2c.6-6.9.5-8.2-.8-8.2-1.1 0-1.7 1.7-2.3 6.7m425-4.7c-.4.6-.3 1.6.3 2.2q1 1 1.7-.2c.4-.6.3-1.6-.3-2.2q-1-1-1.7.2m16.5 3q.1.9 1 1 1-.1 1-1t-1-1a1 1 0 0 0-1 1m13.4 3.1c2.2 13.4 2.8 77.7 1.1 110.5-.5 10.7-.5 15.3.3 15.8 1.7 1 2-1.8 2.8-23.4.8-21.9.8-33.2-.1-73.3-.7-28.5-1.1-32.7-3.5-33.5-1-.4-1.1.5-.6 3.9m-433.2-.4c.4 2.1 3.3 2.5 3.3.3q-.1-1.3-1.8-1.8-2-.5-1.5 1.5m418.5 7.9c-.8.8.1 2.4 1.4 2.4q.8-.2.9-1.5c0-1.5-1.2-2-2.3-.9m8.8 4.5c-1 1.5.3 2.5 1.6 1.2q1-1 .1-1.7-1-.4-1.7.5m-32.9 1.6c-1.1 1.1-.6 2.3.9 2.3q1.4 0 1.5-.9c0-1.3-1.6-2.2-2.4-1.4m-389.3 5.9c-.8 2.1 1.3 4.2 2.8 2.7 1.3-1.3.5-4.3-1.1-4.3q-1 .1-1.7 1.6m-8.6 3.1c-1.2 1.1-.8 2.3.8 2.3q1.3-.1 1.5-1.5c0-1.6-1.2-2-2.3-.8m-12.2 9.2c-.8 1.4-.8 27.1 0 30.4 1.6 6.2 2.3 1.7 2.4-14.3 0-15.3-.5-19.1-2.4-16.1M422 167.5q0 8.4 1 8c.6-.3 1-3.9 1-8s-.4-7.7-1-8q-1-.4-1 8m16.2 8.1c.4 2.1 2.2 2.3 2.6.1q.3-1.6-1.3-1.7c-1.6-.1-1.5.6-1.3 1.6m11 6.6c.6 1.8 2.8 2.1 2.8.4q-.1-1.5-1.6-1.6-1.4 0-1.2 1.2m-17.2 2.2q0 1.4.9 2c1.1.7 3.3-1.8 2.4-2.7-1.2-1.2-3.3-.7-3.3.7m-414.4 6.3c-.9 3-.5 84.9.4 86.4q.9 1.1 1.4.9c.4-.5.9-54.9.7-79.3-.1-8.9-1.2-12.3-2.5-8m440.9 6.2c-.6 1.1.9 2.3 1.9 1.4s.7-2.3-.3-2.3q-1 0-1.6.9m-37.8 1.8c-1.1 1-.8 6.3.3 6.3 1.4 0 2.4-5 1.3-6.1q-.9-.8-1.6-.2m16.8 4.3q-.6 1.1.3 2.2 1 1 1.7-.2c.4-.6.3-1.6-.3-2.2q-1-1-1.7.2M32 208q.1.9 1 1 1-.1 1-1t-1-1a1 1 0 0 0-1 1m417 6.5q.1 1.4 1 1.5 1-.1 1-1.5c0-1.4-.4-1.5-1-1.5q-.9.1-1 1.5m-24.5 9.5c-1 1.6 1.6 4.3 2.8 3.1s.2-4.1-1.2-4.1c-.5 0-1.3.5-1.6 1m30 6c-.7 1.2.2 3 1.6 3 1.2 0 1.2-2.7 0-3.5q-.9-.4-1.6.5m-32.9 7.8c-.2.4-.1 1.4.4 2.2q.9 1.6 2.1.3c.6-.6.8-1.6.5-2.2-.8-1.3-2.3-1.4-3-.3m46.6 18.2c.2 6.4.7 10.4 1.3 10.2 1.3-.3.7-18.3-.6-19.7-.6-.6-.9 3-.7 9.5m7.6.2c-.3 8.6 0 23.5 1.7 84.8.3 12.4 1 22.9 1.6 23.5 1.1 1.1 1 2.6 1.5-17.5.2-9.1-.2-21-.8-26.5s-1.2-18.8-1.3-29.5c-.3-37.7-.5-44-1.4-44-.5 0-1.1 4.2-1.3 9.2M425 254q0 2 1.3 1.7 1-.5 1.2-1.7c.2-1.2-.6-1.5-1.2-1.8q-1.2-.2-1.3 1.8m-413.4-.2c-.7 1.3.1 62.4.9 64.4q.7 1.7 1.6 1.8c1.4 0 .6-66.3-.8-66.7q-1-.3-1.7.5M463 257q.1.9 1 1 1-.1 1-1t-1-1a1 1 0 0 0-1 1m1.5 9.5c.4 3.8.8 17.1 1.1 29.5.2 12.9.7 22.6 1.3 22.8 1.9.6 1.7-17.9-.4-47.7-.3-4.6-1-9.1-1.6-10-.7-1.1-.8.4-.4 5.4m-44-2.6c-.7 1.2 1.2 2.4 2.5 1.6 1.1-.7.4-2.5-1-2.5q-.8 0-1.5.9m.3 13.1c-.7 2 .4 15 1.3 15 .5 0 .9-3.6.9-8s-.4-8-.9-8-1.1.4-1.3 1m50 13.5c-.3 3.8-.4 9.7-.2 13 .8 11.5 1.2 26.2 1.3 47.7.1 12 .5 21.8 1 21.8s1.1-1.8 1.4-4.1c.6-4.6-1-64.2-2.1-76.9l-.7-8.5zM421 308.2l-.6 16.8c-.5 10.8.2 15 2.2 13.7.8-.4 1-16.5.5-31.5-.2-6.1-2.1-5.2-2.1 1m-401.6 2.2c-.9 2.3 0 6.9 1.4 7.4q1.2.4 1.2-4.2c0-4.4-1.5-6.2-2.6-3.2M429 321.5q.1 1.4 1 1.5 1-.1 1-1.5c0-1.4-.4-1.5-1-1.5q-.9.1-1 1.5M20.1 327c.1 3 .5 6.8.9 8.5q.9 4.1 1 .5a36 36 0 0 0-1.1-13.5q-.8-.6-.8 4.5m427.3-3.9c-.8 1.4 1.1 3.3 2.5 2.5 1.1-.7.4-3.6-.9-3.6q-.9.1-1.6 1.1M13 332.5c-1 1.2-1.1 5.6-.4 21.3.4 10.8.8 45 .9 75.9 0 55.9.2 59.8 3.3 57.9.5-.3.8-7.1.6-16.3l-.7-35.8c-.3-11-.2-25 .2-31 .8-12.4-.8-71.6-1.9-72.8q-.8-.6-2 .8m422.6-.8c-1.1 1.1-.6 2.3.9 2.3q1.4 0 1.5-.9c0-1.3-1.6-2.2-2.4-1.4m-6.9 3.9c-.8.8.1 2.4 1.4 2.4q.8-.1.9-1.5c0-1.5-1.2-2-2.3-.9M33.5 337c-.8 1.3.4 3.2 1.6 2.5s1.2-3.5 0-3.5q-1 0-1.6 1m420.7 7.6c.4 2.1 2.2 2.3 2.6.1q.3-1.6-1.3-1.7c-1.6-.1-1.5.6-1.3 1.6m11.8 7.1c0 5.1.5 9.5 1 9.8 1.6 1 1.5-16.3-.1-18-.5-.5-.9 2.6-.9 8.2m-445.3 7c.4 9.2 1.6 13.5 2.7 10.2.9-2.5-.8-19.2-2-19.6-.9-.3-1 2.4-.7 9.4m417.5-7.1q.4 1.8 2.2 2.2t1.4-1.4-2.2-2.2q-1.9-.5-1.4 1.4m22.2-.1c-.9 2.3 1 4 2.5 2.2.9-1.1.8-1.7-.4-2.7s-1.6-.9-2.1.5m-27.9 1.5c-1.1 1.7.5 3.2 2.1 1.9q1.1-1 .8-2c-.7-1.2-2.1-1.1-2.9.1m-389.9.9q-.4.9.9 2.1 1.6 1.6 1.5-.3c0-1.9-1.6-3.1-2.4-1.8m-8 1q-.3 1 .8 2c1.6 1.3 3.2-.2 2.1-1.9-.8-1.2-2.2-1.3-2.9-.1m415.9 4c-.8 1.5.3 3.1 2.1 3.1q1.4-.1 1.2-1.7c-.4-2-2.4-2.8-3.3-1.4m-379.9 12c-.3.5-.6 7.4-.6 15.3.1 102.3.4 119.8 2 119.8.6 0 1-5.6 1-14.8 0-9.6.4-15.2 1.1-15.9q1.2-1.2.3-4a818 818 0 0 1-.9-51.7c0-36.2-.3-49-1.2-49.3q-1-.3-1.7.6m-30.6 1q.1 1 1 1.6 1 .4 1-.9 0-1.5-1-1.6-.9 0-1 .9m23 14.6c0 8.3.3 10.5 1.4 10.5 2.1 0 2.4-1.8 1.8-11.8-.3-6.8-.8-9.2-1.8-9.2-1.1 0-1.4 2.3-1.4 10.5m399-3q0 1.6 1.8 1.3c2.1-.4 1.9-2.2-.2-2.6q-1.5-.2-1.6 1.3M32.5 387c-.7 1.2.2 3 1.6 3 1.2 0 1.2-2.7 0-3.5q-.9-.4-1.6.5m442.2 5.7c-.3.5-.5 7.8-.6 16.3s-.4 16.8-.7 18.5c-.7 3.9.5 12 1.6 10.9a48 48 0 0 0 1.5-11.9l1.1-17.5c.8-10.3-.9-19.7-2.9-16.3m-431.5 4.2q.4 1.1 1.1 1.2c1.2-.1.9-1.5-.3-2q-1.1-.2-.8.8M26 399q.1 1.8 1 2 1-.2 1-2c0-1.8-.4-2-1-2q-.9.2-1 2m2.5 4c-.7 1.2.2 3 1.6 3 1.2 0 1.2-2.7 0-3.5q-.9-.4-1.6.5m28 1c-.7 1.2.2 3 1.6 3q.8-.2.9-2c0-2.1-1.5-2.7-2.5-1m8.9 1.4c-.4 1-.2 2.2.4 2.8q1.1 1.3 1.8-.6c.4-1 .2-2.2-.4-2.8q-1.1-1.3-1.8.6m398.2-.5q-.5.9.3 1.5t1.5-.3q.5-.9-.3-1.5t-1.5.3M44.5 409c-.7 1.2.2 3 1.6 3 1.2 0 1.2-2.7 0-3.5q-.9-.4-1.6.5m-21 5q-.6 1.1.3 2.2 1 1 1.7-.2t-.3-2.2-1.7.2m9.7 3.4q.3 1.6 1.3 1.7c1.5-.1 1.2-2.4-.3-2.9q-1.4-.4-1 1.2m28.3 4.6q-.6 1.1.3 2.2 1 1 1.7-.2t-.3-2.2-1.7.2m401 1q-.4 1 1 1.6c1.9.8 3 0 2-1.5-.8-1.4-2.2-1.4-3-.1m-442 6.7c-.8 6.7-.9 44.3 0 45.1q.5.4 1 .1c.9-1 1.6-50.9.7-50.9-.6 0-1.3 2.6-1.7 5.7m426-4.8c-.8 1.5.3 3.1 2.1 3.1q1.4-.1 1.2-1.7c-.4-2-2.4-2.8-3.3-1.4m-383 6.2a988 988 0 0 0-.2 80.8c.7 2.1 1 2.2 2.2 1 1.7-1.7 1.8-5.9 1.3-48.8-.4-32.1-.9-36.9-3.3-33m387 2.9c-1.1 1.7.5 3.2 2.1 1.9q1.1-1 .8-2c-.7-1.2-2.1-1.1-2.9.1m17.5 2q.1.9 1 1 1-.1 1-1t-1-1a1 1 0 0 0-1 1m-9 3.5q0 1.6 1.8 1.3c2.1-.4 1.9-2.2-.2-2.6q-1.5-.2-1.6 1.3M39.5 465c-.7 1.2.2 3 1.6 3q.8-.2.9-2c0-2.1-1.5-2.7-2.5-1m4.2 15.7c-1.2 1.1-.8 2.3.8 2.3q1.3-.1 1.5-1.5c0-1.6-1.2-2-2.3-.8m7.8 6.2c-.7 1.2 1.2 2.4 2.5 1.6 1.1-.7.4-2.5-1-2.5q-.8 0-1.5.9m-36.6 12.8c-1 13.1-.4 138.3.6 138 .6-.1 1-7.5 1.1-19.2.1-10.5.5-25.8.9-34 .5-8.3.8-26.5.7-40.5l-.2-37.8c0-9.7-.3-12.2-1.4-12.2q-1.4-.2-1.7 5.7m12.7 7.1c-.3.6-.7 7.5-.8 15.5-.2 10.6 0 14.9 1 15.8 1 1.1 1.2.8 1.4-1.1l.3-5c.9-10.8.7-25.4-.2-25.7q-1-.3-1.7.5m37.2 30.8c-.7.6.1 27.6.9 28.4 1.4 1.5 2-3.8 1.6-14.9-.4-11.7-1-15-2.5-13.5m-28.8 17c0 1.7 2.2 1.4 2.8-.4q.2-1.1-1.2-1.2-1.5.1-1.6 1.6M26 559c0 1.6.5 3 1 3s1-1.4 1-3-.4-3-1-3-1 1.3-1 3m23.2 5.9q.4 1.1 1.1 1.2c1.2-.1.9-1.5-.3-2q-1.2-.2-.8.8M42 568q.1.9 1 1 1-.1 1-1t-1-1a1 1 0 0 0-1 1m23.5 4a61 61 0 0 0 0 17.1q.7 1.8 1.7 1.7c1.5-.5 1.6-19 .1-19.5q-1-.2-1.8.7m-39.9 27.7c-.7 15.4-.3 19.9 1.5 18.7 1.2-.7 1.2-34.4 0-34.4-.4 0-1.1 7.1-1.5 15.7m27.9-8.7c-.8 1.3.4 3.2 1.6 2.5s1.2-3.5 0-3.5q-1 0-1.6 1m-15.3 2.9c.4 1.3 1.8 1.6 1.9.4q-.1-.7-1.1-1.2-1.2-.2-.8.8m22.3 4.1c-.8 1.3.4 3.2 1.6 2.5s1.2-3.5 0-3.5q-1 0-1.6 1m-9.5 9q.1.9 1 1 1-.1 1-1t-1-1a1 1 0 0 0-1 1m-9 1.1q.1.8 1 .4t1-1.1q0-.4-1-.4-.9.1-1 1.1m24.5 7.8c-.4.7-.4 3 0 5.2s.2 6.2-.5 8.8c-.9 3.8-.9 5.4 0 7.1 2.3 4.4 3.5.6 3.2-10.3q-.5-14.5-2.7-10.8m-26 1.1q-.4.9.4 1 1-.1 1.1-1 0-1-.4-1t-1.1 1m13.5 0q.1.9 1.1 1 .8-.1.4-1t-1.1-1q-.4 0-.4 1m7.7 5.7c-.8 3-.3 8.3.8 8.3.6 0 1.1-2.2 1.3-5 .3-4.8-1.2-7-2.1-3.3m-17.1 2.2q-.5.9.3 1.5t1.5-.3q.5-.9-.3-1.5t-1.5.3M54 626q.1.9 1 1 1-.1 1-1t-1-1a1 1 0 0 0-1 1m-22 2q.1.9 1 1 1-.1 1-1t-1-1a1 1 0 0 0-1 1m39.7 5.6c-1.4 1.4-.7 3.5 1.1 3.2q1.5-.5 1.7-1.7c0-1.6-1.8-2.5-2.8-1.5m-11 1.1c-1.2 1.1-.8 2.3.8 2.3q1.3-.2 1.5-1.5c0-1.6-1.2-2-2.3-.8m404.8 30.5c-.8 2 2.1 6.8 4.1 6.8 2.1 0 1.7-2.6-1-5.7-2.1-2.4-2.5-2.6-3.1-1.1m-10 .7c-.7 1.2 1.2 2.4 2.5 1.6 1.1-.7.4-2.5-1-2.5q-.8 0-1.5.9m26.5 2.9c0 2 4.9 7.2 6.7 7.2 2.7 0 2.1-2.1-1.4-5.4-4.3-4-5.3-4.4-5.3-1.8m-3.2 41.9c-2.2.6-3.1 3.5-2.3 7.3.6 2.9.6 2.9-4.4 3.6-9.4 1.2-10.3 5-1.5 6.2 4 .6 5 1.1 5.2 2.8.3 1.9-.3 2.2-5.1 2.8q-10.5 1.4-7.8 5c.7.9 2.5 1.6 4 1.6 5.3 0 10.1 1.3 10.1 2.6q0 1.5-3.9 1.4c-5.3 0-10.1 1.8-10.1 3.9 0 2.3 1.9 4.1 4.3 4.1q2.1.1 1.4-2.1-.7-2.1 2.1-3c1.4-.6 3.7-.8 4.9-.4 2.1.5 2.3 1.1 2.3 6.4 0 7.3.6 9.1 3.2 9.1 1.5 0 1.9-.6 1.8-2.8-.1-1.5-.2-4.8-.1-7.5l.1-4.7h5.9q11.2 0 11.1-4c0-3.1-4-5-11.1-5.3-8.7-.4-8.1-2.1.9-2.5 9.3-.4 9.4-2.2.2-2.2-5.4 0-7.2-.4-7.7-1.5-.8-2.4-.2-2.6 8.1-2.6 5.8 0 7.6-.4 7.6-1.4 0-1.1-1.9-1.5-7.5-1.7-4.4-.2-7.4-.7-7.3-1.3.3-1 1.5-1.2 8.6-1.4q4.3-.1 4-1.3-.6-1.2-7.1-1.3c-8.1 0-9.3-1.8-1.7-2.6 3-.3 6.5-.9 7.8-1.3 2.7-.9 2.9-4.1.3-5.6-1.9-1-12.9-1.2-16.3-.3M489 714c0 .5-1.6 1-3.5 1s-3.5-.5-3.5-1 1.6-1 3.5-1 3.5.4 3.5 1m-12.4 22.9c-.3.4-2 .5-3.8.2l-3.3-.5 3-.6q5-1 4.1.9m17.2 5.3c.3 1.5-.5 1.8-5.2 1.8-3 0-5.8-.5-6.1-1q-1.8-3.2 5.8-2.8c4 .2 5.3.7 5.5 2"/><path d="M487.2 751.2q-1.2 1.1-.1 2.5c1.5 1.7 3.4 1.7 4.8-.1 1-1.2.8-1.7-.8-2.5-2.4-1.4-2.4-1.4-3.9.1M.2 768.8c-.2.8-.2 4.8.2 9s.7 9.3.6 11.3c-.1 3.5 2.2 7 3.4 5.1.8-1.4.9-8.2.1-12.9q-1.6-9.2 3.1-9.3c2.2 0 2.4.3 1.8 2.2-1.1 3.6-.6 14.1.8 14.9 2.2 1.4 2.8-.1 2.8-7.1 0-3.7.3-7.5.6-8.4 1-2.7 3.2-1.8 3.1 1.1q-.4 12 1.8 13c2.5.9 2.8-.2 2.6-7.7-.1-3.8.2-7 .7-7 1.5 0 3.3 13.8 3.2 25-.1 10.9.7 13.7 3.4 12.7 1.3-.5 1.5-2.5 1.1-13.9-.2-7.3-.7-15.9-1.1-19.1q-.6-5.7.4-5.7c1.7 0 2 1 2.6 11.3.7 11.1 1.1 12.4 3.3 10.5 1.3-1 1.5-2.9 1.1-9.8-.5-8.6.4-13.6 2.2-12.5.5.3 1 4.4 1 8.9 0 6.1.4 8.7 1.5 9.6 2.7 2.2 3.5.1 3-7.8-.6-7.5.3-11.1 2.3-9.8.5.3 1.1 4.4 1.4 9.1q.7 13.1 4 9.7c.8-.8 1.3-4.6 1.3-10.5 0-7.7.3-9.2 1.7-9.5 2.5-.5 3.1 2.9 2.9 17-.1 13.2.6 15.6 3.7 12.4 1.4-1.4 1.7-3.9 1.6-16.1-.1-14.2-.1-14.3 2-13.6 2 .8 2.1 1.7 2.4 12.9.2 9.2.6 12.3 1.8 13.3 2.5 2.1 3.2-.1 3.6-12.4q.6-17 3.4-12.5c.5.7.9 6.4.9 12.7 0 6.7.4 11.6 1 11.7q3.7 1.4 4.3-8c.6-8.8 2.2-7.4 2.2 1.9 0 8.2.6 10.5 2.5 10.5 2.4 0 2.9-2.2 3-14.7q0-12.3 1.3-13.5c1.2-1.2 1.5 1 1.7 15.2 0 5.4.9 7 3.7 7 2 0 2.1-.3 1.5-10-.7-11.1-.3-13 2.3-13 2 0 3 4.7 3.5 16.2.4 8.6 1.1 10.8 3.7 10.8 2 0 2-.3 1.3-13.4q-.7-13.5.4-14c2.2-1.4 3.1 3.9 3.2 20.8.2 18.3 1.1 22.7 4.1 19.8 1-1 1.3-6.1 1.3-21.2 0-12.5.4-20.1 1-20.2 1.5-.4 2.3 7.8 2.4 23.7.1 7.7.4 15 .7 16.2.7 2.5 3.2 3.1 3.9 1 1-3 1.2-23.9.3-30.5-.8-5.3-.8-7.6.1-8.5q1-1 1.7-.5c.3.4.8 8 1 17 .3 9 .7 16.9.9 17.5.6 1.8 4.2 1.6 4.9-.2.3-.8.1-8.7-.4-17.6-.9-16-.8-17.9 1.1-17.9 1.5 0 1.2 40.3-.3 42.3-1.1 1.3-3.2 1.6-13.3 1.4l-12-.2-.5-5c-.4-4.2-.8-5-2.5-5-1.8 0-2 .6-1.9 5.2l.2 5.3H99c-5.3 0-5.8-.2-6.4-2.5-.9-3.5-4.6-3.5-4.6.1 0 2.1-.4 2.5-2.2 2.2s-2.5-1.2-3.2-4.6c-1.1-5-3.9-5.8-5.4-1.5-1 2.8-1 2.8-1.1-.9q-.2-6.4-3.8-3.7c-1.1 1-1.4 2.4-.9 5.6l.6 4.3H54l-.2-4.8-.3-8.6c0-3.9-2-6.1-3-3.4-.6 1.4-1.2 8.3-1.4 14.1-.2 4.5-2.1 2-2.1-2.7 0-2.3-.5-4.7-1.2-5.4q-1.2-1.1 0-2.5c1.6-1.9.4-2.8-1.9-1.4-1.5 1-1.9 2.4-1.9 7.4 0 3.5-.4 6.3-1 6.3s-1-1.4-1-3c0-5.7-5.2-5-5.4.7l-.1 2.8H27c-11.4 0-10.7.6-11.5-9.6-.4-4.9-1.1-9.2-1.6-9.4s-1.5.5-2.4 1.9c-1.3 2-1.5 3.6-.7 9 .9 7 .8 7.6-1.8 7.6-1.7 0-4-7.3-4-12.9q.2-5.1-3.1-3c-1.5.8-1.9 2.1-1.9 6.2 0 2.9.5 5.8 1.2 6.5q1.4 1.2 0 2.4c-2.1 2.1-1.4 4.6 1.5 5.1 1.6.3 113.9.5 249.8.4l247-.2.3-24.9.2-24.9-7.1.7c-7.9.7-140.8.7-150.9-.1-3.6-.3-81.8-.6-173.9-.6-138.5-.2-167.4 0-167.9 1.1m152.3 22.7c.2 18 .5 21 1.8 21.3.8.2 1.8-.2 2.2-.8s.7-10.2.7-21.1c-.1-11.5.3-19.9.8-19.9 1 0 1.6 3.2 2.5 13.5q1 10.3 4 7.4c.6-.6.8-5.1.6-10.9s.1-10 .6-10 1.5 3.3 2.2 7.2c2 12.1 2.5 13.3 4.6 13.3q2 0 1.7-2l-.9-10.1-.6-8.1 2.9-.6c1.6-.3 3.2-.3 3.6-.1.4.3.7 6.9.8 14.7 0 7.8.4 15.9.9 18 .7 3 .6 3.9-.5 4.4-.8.3-1.4 1.8-1.4 3.4 0 2.6-.3 2.9-3.5 2.9s-3.5-.2-3.5-3c0-2.3-.4-3-2-3q-2 0-2 2.2c0 4.3-1.2 4.9-9.9 4.7-7.7-.2-8.2-.4-9.4-2.8-.7-1.4-2-2.7-3-2.9-1.3-.3-1.7.3-1.7 2.7q0 3-1.4 3.1c-1.1 0-1.4-3.9-1.5-21.4-.1-20 .4-24.4 2.6-22.2.3.3.7 6.6.9 14.1s.6 14 .9 14.5 1.5 1 2.6 1c1.9 0 2-.6 1.8-11.8-.2-17.4 0-19.4 1.2-19 .8.3 1.2 6.8 1.4 21.3m43.5-14.2c0 6.9 1 9.3 3.4 8.4 1.1-.4 1.6-2.4 1.8-7.3.4-9.4 2.6-9.9 3-.7.2 5.3.7 6.8 1.9 7.1 1.3.2 1.7-1 2.3-6.4.8-7.7 1.1-8.5 3.1-7.7 1.1.4 1.5 2.2 1.5 6.8 0 7.1 1.4 11.9 3.3 11.2.8-.3 1.1-2.5.9-7.5-.3-7.1 1.1-12.3 2.9-10.5a40 40 0 0 1 1.8 9.7c.6 4.9 1.5 9.4 2.1 10 1.5 1.5 3.4-.8 2.5-3.1-.4-1-.9-5.1-1.1-9-.3-7.1-.3-7.3 2.2-7.9a12 12 0 0 1 5.6.2c3.1.9 3.8 2 5.2 8.6q.7 2.8 2.5 2.8 3.6 0 2.4-6.2c-.6-3-.5-3.1 2.1-2.4q2.7.8 3.2-.9c.8-2.1 3.4-1.9 3.4.3 0 2.7 2.1 4.4 3.7 3.1q1.2-1.2 1.3-2.5t2-1.4c1.8 0 2 .7 2 6.8 0 7.4 1.6 11 4.4 9.9 1.4-.5 1.6-1.9 1.4-8.4l-.3-7.8 2.8-.3c3-.4 3.1.1 2.7 10.8-.1 5.1 2.1 9.2 4 7.4 1.6-1.6 2.4-11.7 1.2-15.3-1.1-3-1-3.1 1.7-3.1h2.8l.5 13.5c.3 7.5.8 13.8 1.1 14.2q.7.4 2.2 0c1.2-.5 1.5-2.8 1.5-13.7s.3-13.2 1.5-13.7q1.5-.4 2.3.2c.4.3.8 8.1.8 17.2.2 16.7.9 20.2 3.7 17.4.8-.9 1.2-5.9 1.2-17.9 0-15.1.2-16.7 1.8-17s1.7.9 1.6 16.1c-.1 13.7.2 17.1 1.6 20.1 1.8 3.8 4.2 4.4 3.7 1-.5-3.2-.2-33.8.4-35.7.3-.9 1.5-1.7 2.6-1.7 2 0 2 .5 1.8 13.2-.5 20.2-.2 23.8 1.5 24.5q1.5.4 2.1 0c.3-.3.7-8.5 1-18.2.2-9.7.6-18.1.9-18.6s1.7-.9 3-.9q2.4-.1 2.9 2.5c.4 1.4.4 3 .1 3.5s-.5 6.4-.5 13.2-.3 14.7-.7 17.6l-.6 5.4-17.1-.6-17.4-.6c-.2 0-.1-1.7.3-3.8q.6-4-.7-5-3.4-2.5-4 4.7l-.3 4.4-11.5.2c-6.3.1-12 0-12.7-.2s-1.5-3-1.9-6c-.4-3.3-1.4-6.3-2.5-7.4a8 8 0 0 1-1.9-5.4q-.1-5.4 2.8-2.3 1.4 1.5 2.1-.1c1.3-2.1 0-10.2-2-12.2-1.1-1.1-1.9-2.4-1.9-3s-1-.9-2.2-.7c-2.9.4-3.4 3.3-3.9 19l-.4 12.3 2.8 1.3c2.5 1.2 3.5 4.4 1.5 4.3l-3.3-.1H243v-12.4c0-12.9-.7-15.3-3.8-12.2-1.2 1.2-1.6 4-1.6 13.3l-.1 11.8-7 .2a41 41 0 0 1-7.7-.3c-.3-.2-.3-1.7.2-3.3.9-3.1-.2-5.7-1.8-4.7-.6.4-2.1.1-3.2-.6-2.7-1.7-4.2.3-3.7 4.8.3 3 .1 3.2-3.8 3.6-2.2.3-5.8.3-8.1 0q-8-.6-7.3-11.5c.3-4.2 0-5.3-1.4-5.5-1.5-.3-1.6.5-1 8.7l.6 9.1h-10l.1-3.4c.1-1.8.7-4 1.4-4.8.9-1.1.9-3.5.2-9.9-1.1-9.5-.1-24 1.7-24.6.8-.3 1 1.8.7 8-.4 6.4-.2 8.6.9 9.5q3.6 3 3.8-8.3c.3-11.7 3.9-14.6 3.9-3.2m-111.8-.2-.9 4.4-.8-3.7c-.8-4.4 0-7.7 1.6-6.1q1.1 1 .1 5.4m411.5 4.4c.4 4.9.8 14.6.8 21.5v12.5l-10.5.1a482 482 0 0 1-20.9-.5l-10.4-.6.3-10 .5-20.8c.2-11.1.7-12.9 2.7-10.9q1.2 1.2 1.6 19.3c.4 14.7.7 18.2 1.9 18.6 2.8 1.1 3.3-2.2 3-20.2l-.2-18h2.5q2.2 0 2.4 1c-1.5 11.1-1.5 12.5.1 13.1 2.7 1.1 3.8-1.1 3.9-7.8.2-5.5.4-6.3 2.1-6.3q2 0 1.6 1.5c-.2.8-.5 10-.7 20.3-.4 18.8-.4 18.8 1.7 18.5s2.2-.8 2.5-16.3c.2-8.8.7-17.9 1-20.2l.5-4.2 5.7-.3c3.1-.2 6-.1 6.4.2s1 4.5 1.5 9.5m-125.2-2.4c0 5 .3 6.4 1.5 6.4q1.5 0 1.3-2.9c-.3-4.6 3.2-9.6 6.8-9.6h2.9v8.9c0 8.8 1 11.5 3.3 9.2.5-.5 1.3-4.1 1.6-7.8q1.1-11.5 2.7 1.1c.6 4.8.4 5.9-1.1 7s-1.9 3.2-2.3 12c-.5 11.3-.1 10.6-5.4 11q-1.2 0-1-1.8c.6-3.2-.8-8.6-2.2-8.6-2.1 0-2.7 4.1-1.1 7.4q2.7 5-1.3 2.7c-2-1.1-2.2-2.2-3.4-16.6q-.4-3-1.8-3c-1.2 0-1.5 1.7-1.4 9.7 0 7-.3 9.8-1.2 9.8-1.7 0-2.4-3.4-2.4-12.2q0-12-3.5-7.5a50 50 0 0 0-.3 18.2q.2 1.9-.9 1.9l-9.9-.3-8.6-.1.6-3.4q.6-3.3-.5-4.1c-1.5-1-3 .7-3.3 4.1-.3 2.9-.3 2.9-8 3.2-6.9.3-7.6.1-7.6-1.6 0-1 .3-2.2.8-2.6.6-.6 1.1-15.3 1.1-32.9V773h9.4l-.7 14.2c-.6 11.5-.4 14.7.7 16.2q3.5 4.7 3.5-6.1c.1-9 1.1-22.4 1.8-23.4.3-.5 1.6-.9 2.9-.9h2.4l.3 15.7c.3 13.3.5 15.8 1.8 15.8 1.2 0 1.5-1.5 1.7-6.5.3-9.4 1.4-23.4 2-24.3 1.2-2 2.8.2 2.5 3.6-.3 3.6 2.3 10.7 3.9 10.7.5 0 .9-3 .9-6.6 0-6.8 1.3-7.9 2.4-1.9q1 6.2 4 2.9c1.2-1.2 1.5-2.5 1-5.1q-.8-3.6.7-4.4c2.6-1.6 3.3-.3 3.4 6.2m43.4-5.2q1 1.7-.4 17.1c-1.8 18.4-1.5 22 2 20.7 1.2-.5 1.5-2.8 1.5-13.4q0-20.3 2.1-20.3c.4 0 .9 2.1 1.1 4.7.2 3.9.6 4.8 2.2 4.8s1.9-.9 2.1-6.8c.1-3.7.5-7.1.9-7.4s1.6.3 2.7 1.4c2 2 2.1 3.2 2.1 18.7 0 12.6.3 16.8 1.4 17.7.7.6 1.8.8 2.4.4 1.3-.8 1.3-5.2 0-6-.6-.3-.8-2.3-.5-4.3.7-4.9 1.4-15.2 1.5-22.7.1-4.7.3-5.5 1-3.7.5 1.2 1 9.9 1.1 19.2.2 17.5.7 19.6 3.9 14.7l2.2-3.7q.6-1 .7 2.7c.1 2.3.4 4.9.7 5.8.6 1.4-.4 1.5-8.7 1.3-7.5-.2-9.4-.6-9.5-1.8l-.2-10.8c-.2-8.3-.4-9.2-2.1-9.2-2.1 0-3.3 2.2-2.5 4.3.3.8-.2 2-1.1 2.7-1.9 1.6-1.9 6 0 8.6 3.8 5.1.1 6.8-13.5 6.2q-11.8-.4-6.2-4.7c1.8-1.3 2.1-2.3 1.6-5.3-.8-4.9-2.3-6-5.4-4.5-2.2 1.1-2.5 2-2.8 7.5-.4 8.8-2.2 6.8-2.2-2.5 0-6.3.4-8.1 2-9.8 2-2.1 2-2.4.4-10q-2.6-13 2.4-12.3c1.5.3 1.7 1.4 1.4 8.4-.2 5.9.2 8.5 1.3 9.9 1.3 1.7 1.6 1.8 2.5.5.5-.8.7-2.3.4-3.4-1-3.1-.5-12.7.7-14.2 2.1-2.5 2.7-.4 2.5 8.1q-.3 8.6 1 9.5 2.7 2.5 2.5-10.2c-.2-6.4.1-7.8 1.6-8.7 2.3-1.3 2.1-1.4 3.2.8M445 783c2.2 1.4 3 .2 3-4.5 0-2.4.4-4.6.9-4.9 1.4-.9 2 7.2 1.7 22.4-.3 17.4-.5 19-1.3 19-.5 0-.7-6.1-.5-13.6.4-14.1-.3-16.9-3.3-14.4-1.1.9-1.5 3.2-1.5 8.8 0 4.1-.3 7.2-.6 6.9a87 87 0 0 1-1.6-24.2l.6-6 .6 4.8c.3 2.7 1.2 5.2 2 5.7"/><path d="M161.6 797.8c-1 1.6.6 10.1 2 11.3q2.8 2.4 2.2-6.7c-.2-3.6-.7-5-2-5.2-.9-.2-1.9.1-2.2.6m67.9-18.3a42 42 0 0 0 0 10.2c.4 1.6 1 6.4 1.2 10.8s.8 8.4 1.3 8.9c1.4 1.4 4.3-4.1 3.6-6.9-.4-1.4-.9-8.5-1.2-15.7-.6-14-.7-14.8-2.9-14.8-.9 0-1.5 2.2-2 7.5m31.7 16.7c-2.6 2.6-1 11.8 2 11.8 1.7 0 1.9-.6 1.6-6.2-.3-6.2-1.4-7.8-3.6-5.6m8.9 2.6c-1 1.9-.4 7 1.1 8.9s3.8.3 3.8-2.7c0-3.6-1.6-8-2.9-8q-1 .1-2 1.8m-68.5 1.4a15 15 0 0 0 .4 9.4c1 2.5 1.2 2.6 2.7 1.2 1.2-1.3 1.4-2.8.9-7.2-.8-5.8-2.8-7.6-4-3.4m284.7-7.5c.2 19 .7 22.3 3.2 20.3.9-.8 1.3-5.3 1.4-16.8.1-16.7-.6-21.5-3.2-22-1.4-.3-1.6 1.6-1.4 18.5m-156.6-15.5c-1.3 1-1.7 3.3-1.9 11-.3 9.5.6 12.9 3 11.4 1.4-.8 2.7-21.5 1.5-22.7q-1-.8-2.6.3m48.6 10.5c-1.6.6-1.8 13.9-.2 14.8 1.6 1.1 1.9.3 2.4-7.3.4-7.1.1-8.3-2.2-7.5m-23.9 5.8c-.4.9-.3 5.3.2 9.8.7 6.6 1.2 8.2 2.7 8.5s1.7-.5 1.5-9.5c-.3-8.4-.5-9.8-2.1-10.1a2 2 0 0 0-2.3 1.3m-25.9 13.7c.4 2.4 1.1 4.7 1.5 5.2 1.4 1.4 3-.4 3-3.4q0-6.1-3.2-6c-1.8 0-1.9.4-1.3 4.2m18.2 2.4c-1.4 1.4-.7 3.5 1.1 3.2q1.5-.5 1.7-1.7c0-1.6-1.8-2.5-2.8-1.5M80.4 830.3c-1.9 1.1-1.8 5.1.1 6.7 1.2 1 2.1 1 4.1.1 3.2-1.4 11.1-1.4 12 0 .4.7.9 4.2 1.2 7.9a21 21 0 0 1-1.7 11.5c-2.1 4.7-2.1 4.8-6.1 4.2-6.3-.8-9.6-4.8-5-6q1.8-.6 2-2.2c0-1.5-.7-1.7-4.6-1.1-5.8.8-6.4 1.2-6.4 4.4.1 6.2 6.7 9.8 16.1 8.8 11-1.1 12.6-3.2 13.5-18 .4-5.8 1.1-10.7 1.5-10.7l2.9-.1c3.5 0 4 .2 4 1.7 0 2 4.6 2 5.4-.1 1-2.5.7-5.2-.6-6.1-1.7-1.1-36.6-2-38.4-1m105.6-.2c-8.9 1.8-11.9 6.5-8 12.6 2 3.3 2 3.3 10 3.3 7.3 0 8.3.3 10.5 2.5 1.9 1.8 2.5 3.5 2.5 6.8 0 5.7-1.8 7.2-8.4 7.2q-8.8 0-13.6-8.3-4.4-7.6-4.7 4.5l-.3 7.1h10.8c13.4.1 17.2-.9 22.2-5.7 3.5-3.4 4-4.3 4-8.4 0-5.4-2.7-8.7-7.1-8.7a28 28 0 0 1-6.9-1.5 29 29 0 0 0-7.7-1.5c-3.7 0-5.3-2.1-3.3-4.5 1.8-2.2 11.4-1.8 14.4.6 3.2 2.5 4.3 2.4 5-.7q1.4-5-4.7-5c-1.8-.1-4.8-.4-6.7-.7s-5.5-.2-8 .4m-63.5.7c-1.1 1.2-.4 3 1.5 3.5s2 1.4 2 10.4c.1 14.4 2.9 19.9 10.9 21 2.9.4 4.9 0 7.9-1.7l4-2.3 2.8 2.2a10 10 0 0 0 4.1 2.1c2 0 8.7-3.6 10.2-5.4 2-2.4-1-3.1-4.9-1.1-7 3.6-10.6-2.1-9.7-15.4.5-7.3 1-8.8 2.9-10.3 3.4-2.5 1.2-4-5.6-3.6-5.7.3-7.4 1.6-4 3.2 1.7.8 1.9 2 1.8 11.9l-.2 11.1-3.1 2.8c-3.4 3-3.9 3.2-6 1.9-3-1.9-5.8-25.9-3.1-27.6.6-.3 1-1.3 1-2.1 0-1.1-1.4-1.4-6-1.3a25 25 0 0 0-6.5.7m107.3-.1c-12.6.3-13.9.5-14.8 2.4-1.2 2.1-.4 5.9 1.4 7.1 1.2.8 3.6-.9 3.6-2.7q0-2.5 6.6-2.5h3.4v13.5c0 13.5 0 13.6-2.5 14.5-2.3.9-3.5 3-1.7 3l7.2.5q11.4.9 7.9-3.1c-1-1.2-1.5-5.2-1.8-13.6-.3-10.3-.1-12.2 1.4-13.9 1-1 2.8-1.9 4.1-1.9 1.7 0 2.4.8 3.1 3.7 1.2 5.2 3.6 4.9 4.7-.5q.8-4.2 0-5.2c-1.4-1.4-6.7-1.7-22.6-1.3m34.4 1.2q-1.5.8.4 2.1c2.6 2.3 3.3 5.2 3.5 17 .2 9.6 0 11.5-1.4 12.5q-5.6 3.8 5.7 3.1c4.1-.2 7.9-.7 8.5-1q.9-.7-.9-3.9c-1.7-2.9-2-5.1-1.8-16.6l.2-13.2-6.5-.4c-3.5-.3-7-.1-7.7.4m36.8 1.3c-10 5.2-11.9 13.8-5.1 23.9 4 5.8 8.5 8.2 16.6 8.6 7.7.4 16.6-1.4 17.3-3.6.4-1.1-.4-1.2-4.4-.5-2.7.5-7.1.8-9.8.7-4.3-.2-5.5-.7-9-4.3-3.9-3.8-4.1-4.3-4.1-10 .1-4.8.5-6.4 2.4-8.4 5-5.3 13.1-5.5 13.1-.3 0 1.3.6 3.2 1.4 4.2 2.1 3 4.1.5 4.4-5.4.3-6.3-1-7.1-11-7.1a23 23 0 0 0-11.8 2.2m37 .8q.1 2 2.1 2.9c2 .7 2.2 1.6 2.6 12 .4 10.7.4 11.2-1.9 13.1-3.8 3.1-1.2 4 13.7 4.7l13.7.6 3.9-4.4c2.1-2.4 3.9-4.7 3.9-5.2 0-1.6-3.5-.6-5.9 1.7-2.3 2.2-3.6 2.5-10.4 2.7a25 25 0 0 1-8.8-.8c-1.7-1.7-.7-10.4 1.3-11.7 1.4-.9 2.1-.6 3.4 1.3 1.5 2 1.9 2.2 2.8.9.6-.8.9-3.8.8-6.7-.4-4.7-.6-5.2-2.6-4.9q-2.2.2-2.1 2.8 0 2.4-1.7 2.8c-1.5.3-1.8-.4-1.8-3.7 0-4.7.3-4.9 6.8-5.7 4.4-.4 5.2-.2 6.6 1.7s1.7 2 3.1.9c.9-.8 1.5-2.5 1.3-3.9l-.3-2.6-15.2-.3c-14.9-.2-15.3-.2-15.3 1.8m70 25.5c-1 1.2-.9 2 .4 4q2.8 4.2 7.1 1.1c1.7-1.2 1.8-1.8.7-4-1.3-3-6.1-3.6-8.2-1.1"/></svg>