<svg xmlns="http://www.w3.org/2000/svg" width="666.7" height="1170.7" viewBox="0 0 500 878"><path d="M0 17v16.9l3.5.7a61 61 0 0 0 25.7-4c4.5-2 6.1-3.3 7.2-6q3.1-7.3 10-6c3.9.7 6.8 3.7 5.9 6q-1 3-5-.8l-2.4-2.2-2.6 2.7c-2.4 2.4-2.7 3.5-3.1 11.7-.5 10.5.5 15.4 5.4 25.4a57 57 0 0 0 34.9 30.7c5.1 1.6 6.1 1.6 7.5.4 6.1-5.5 18-3.1 15.5 3.3-.5 1.3-1 1.1-2.9-1.3-2.1-2.6-2.6-2.8-4.9-1.8-6.6 3-5.1 17.3 4 38.1a66 66 0 0 1 4.8 13.3q-.8.8-2.9.9c-2.6 0-9.9 4.6-13.5 8.4-3.2 3.4-4.1 3.3-7.7-.7-3.5-3.6-4.6-6.2-7-16-1.4-6-1.4-7-.1-8.5 1.9-2.2 5.2-9 6.1-12.5.3-1.5 1.1-2.7 1.6-2.7 1.7 0 1.1 7.8-.9 11.2-1.1 1.8-2.3 5-2.6 7-.6 3.4-.5 3.8 1.3 3.8q2 0 4.1-4.5c2.4-5.1 3.6-5.2 4.4-.2.3 1.9 1.4 5.4 2.5 7.8l2.5 6.1q1.6 4.2 3.6-2c1.2-3.6 1.1-4.2-1.1-7.8-6-9.4-10.6-25.4-9.1-31.2.4-1.6-.9-2.3-9.8-5.1C58.3 92.8 52.4 87.8 43.3 71A120 120 0 0 1 33 45.2c0-1-.6-2.7-1.4-3.8-1.4-1.9-1.5-1.8-6 .4-5.8 2.8-19.8 3.2-23.4.6C.1 41 0 41 0 42.9c0 3.8 14.4 6.2 22.5 3.7 6.3-2 6.6-1.7 11 10.7 9.5 26.6 18 36 39.8 44.2 2.6 1 5 2.2 5.3 2.6.7 1.2-9.4 19.9-10.8 19.9-.4 0-1.4-1.5-2.2-3.3-.7-1.7-3.7-5.4-6.5-8.2-4.3-4.1-5.4-4.8-6.9-3.9-1 .6-1.8 2.6-2 4.8q-.5 6.3-3.7 1.3c-2.1-3.2-6-5-7.4-3.4-3 3.7-3.2 6.9-.8 14.1 8.2 24.1 8.7 29.3 1.5 14.3-4.8-9.8-7.2-12.3-12.2-12.9-2.5-.3-3 .1-3.8 2.7a10 10 0 0 0-.3 4.3c.2.7-.4 2.1-1.5 3.2s-2 2.7-2 3.5 2 5.4 4.5 10.2 4.5 8.9 4.5 9.3a269 269 0 0 0 15.7 28.2c1.9 2.6 4.2 4.9 5.1 5.3 2.3.7 9.4 9.1 9.1 10.7a48 48 0 0 0 2.1 12.3c.5 1.6 1.1 11 1.4 20.9.4 9.8.9 18.2 1.1 18.6q.9 1.8-6 4c-11.2 3.5-31.5 16.4-36.1 22.9a58 58 0 0 0-7.4 20.8c0 6.7 1.4 8.6 5.6 7.8 2.6-.4 3.4-.3 3.4.9 0 5.3-8.2 5.2-11.3-.2-1.6-2.7-1.9-5.1-1.8-12.9a44 44 0 0 0-2.5-17.7 36 36 0 0 0-5-10.6L0 268.5V808h12.3q12.5 0 13.5-1.2c1-1 1.7-1 3.3 0 1.7 1.1 2.4 1.1 3.7-.1 1.2-1.1 3.7-1.5 8.4-1.4 7.9.2 9.6 2.1 2.3 2.5-2.7.2-5.7.9-6.5 1.7-1.1 1-5 1.4-13.5 1.6-6.6.1-14.6.4-17.7.7l-5.8.5v8.7h500V522.5c0-172.1-.4-298.5-.9-298.5-1.3 0-7.7 7.4-9.6 11-2.5 4.9-5.5 18-5.5 24.4 0 3.7 1 9.3 2.6 14.5a40 40 0 0 1 1.6 23.2c-1 2.7-2.4 4.3-6.1 6.3a23 23 0 0 1-7.2 2.6c-2.3-.1-2.3-.1-.4-1.2 11.5-6.3 13.8-18.7 5.6-29.8-2.9-4-4.5-5.2-11.6-9.5a66 66 0 0 0-33.1-10.2c-8.6-.5-11.5-.2-18.5 1.7a43 43 0 0 0-22.1 11.6c-2.1 2-3.1 1.4-5.3-3.3a143 143 0 0 0-22.6-31.1A72 72 0 0 1 353 211q.2-.8 2.8-1.4c3.1-.8 10.9-3.7 19.7-7.4a57 57 0 0 0 17.7-12.6 26 26 0 0 0 3.4-6.9 17 17 0 0 1 5.5-8c4.3-3.4 7.9-9.3 7.9-12.7 0-3.1-2.4-1.9-2.8 1.3-.3 2-1.7 3.6-5.7 6.2-5.4 3.4-8.5 7.6-8.5 11.5 0 3.2-8.1 10.5-16.2 14.6-4 2-8.6 4.6-10.3 5.9-5.1 3.8-9.2 5.5-13.2 5.5-3.7 0-10.3-3.1-10.3-4.9q0-1.2 11.5-5.5c2.6-1 6.8-3.4 20.9-12.1 6-3.6 18.7-15.8 23.1-22a155 155 0 0 0 15-27.9c2.2-6.9 4.5-19.2 4.5-24.8 0-6.1-2-14.8-3.8-17.1-3.3-3.8-9.9-.7-7.3 3.5.7 1.1 1 2.2.8 2.4-.7.7-2.4-1.9-3-4.7-1.5-6.2 6.9-7.6 13.2-2.4 1.6 1.4 3.4 2.5 4 2.5 2.6 0 18.9-6.3 24.7-9.5 10.1-5.7 19.8-18 26.6-33.8 4.7-10.7 5-16.6 1.4-20.2-2.9-2.9-5.3-2.4-6.3 1.3l-.6 2.5-1.9-2.2q-3.8-4.7.7-7.7c3.2-2.1 7.8-.6 12.9 4.2 3.5 3.3 4.2 3.6 8.5 3.2 2.5-.3 6.3-1.6 8.3-2.9l3.7-2.4.1-13.3V0H0zm274.5-7.5c0 1.6-.8 2.1-3.6 2.3-3.4.3-3.7.6-7.7 9.4a67 67 0 0 0-3.9 9.4c.2.2 3.1.4 6.5.5 3.8.1 6.6.7 7.3 1.6q1 1.2.8 1.7c-.2.3-13.4.7-29.3 1-28.3.6-31.6.3-31.6-2.5q.2-.8 1.8-.9c.9 0 3.7-2.3 6.1-5.1 4.1-4.7 4.3-5.2 3-7.6a17 17 0 0 0-10.5-7.9c-1.9-.3-3.3-1.1-3.1-1.8.4-1.2 22-2.1 49.2-2.1 14.3 0 15 .1 15 2m-62.2 26.7c3.4 2.3 7.3 5.2 8.7 6.4a90 90 0 0 0 13.2 7.8L245 56l14.2-7.7c21.2-11.4 27.8-14.6 28.5-13.9.4.4.1 2.1-.5 3.9-1.6 4.4-1.5 5.7.4 5.7 1.2 0 1.5.8 1.2 3.2-.5 5.3 2.5 4.3 3.8-1.2.9-4 1.5-4.7 5.2-6q6.9-2.5 4.2 2c-.9 1.7-.9 2.5 0 3.4s1.7.4 3.6-1.7c1.3-1.5 2.4-3.5 2.4-4.3q.1-1.3 2.4-1.4c2.3 0 2.4.3 1.9 3.5-.4 2.8-.2 3.5 1.1 3.5q1.5-.1 1.6-1c0-.6 1.1-2.2 2.5-3.5 1.9-2 3.5-2.5 7.1-2.5 4.6 0 4.7 0 2.9 2-.9 1-1.5 2.6-1.2 3.5.8 1.9 2.3 1.9 3 .1 1.5-3.8 11.7-5.5 11.7-2q0 1.3-.9 1.4c-1.2 0-2.3 2.9-1.5 4.1.3.5 2.1-.4 4-2.1 1.9-1.6 4.5-3 5.9-3 5.4 0 7.2 2.5 3.5 4.8-1.1.7-2 2.3-2 3.7 0 2.7 1.7 3.4 2.6 1a16 16 0 0 1 7.1-4.5c.2 0 2.6 2.1 5.3 4.6q7.8 7.4 3.2 7.4c-2.1 0-4.2 1.8-4.2 3.7 0 1.6 3.2 1.7 4.7.2.6-.6 2.3-.9 3.9-.7 2.3.2 3 .9 3.5 3.5.6 3.2.5 3.3-2.5 3.3-1.8 0-5 1.3-7.6 3l-4.5 3-1.7-2.3q-3.1-4-.6-6.5 1.3-1.2 0-2.4c-.9-.9-1.7-.6-3.7 1.2-2.2 2-2.5 2.1-3.1.6-.4-.9-.4-3.5 0-5.6.4-2.3.2-4-.3-4-1 0-4.7 4.3-5.4 6.3q-.2 1.2-2.8-.4c-2-1.4-2.4-2.5-2.4-6.4 0-5.5-1.8-7-3.7-3.1-.9 2-.9 2.9 0 3.8 1.3 1.3 1.6 5.8.5 5.8-.5-.1-2.4-.9-4.3-1.8-3.2-1.6-3.5-2.1-3.8-6.7-.4-5.6-.7-6.4-2.4-4.7-.6.6-1.1 3.1-.9 5.6.2 4.2.1 4.3-2.5 3.8-5.9-1.1-25.8 6.1-30.8 11.1-1.7 1.7-2.1 1.8-3 .5-1.8-2.4-7.7-5.1-8.8-4-2 2 1 5.2 4.7 5.2 1.9 0 3.5.2 3.5.5s-.9 2.4-2 4.6-1.8 4.4-1.5 4.9 3 2.3 6.1 4.1c8.3 4.7 6.4 5.8-10.9 6.1-7.5.2-13.7.5-13.7.8 0 1.5 7.3 3.1 11.4 2.5 6.7-1 7.6 3.3 1.6 7.5-2.9 2.1-3.1 2.1-9 .4-3.3-.9-6.5-2.3-7.1-3-1.5-1.9-3.5-1.8-4.3.2q-1 3.4 5.2 6.1c2.8 1.1 3.2 1.7 2.2 2.8-2.1 2.5 1.1 6.1 6.2 7 8.6 1.7 14.4-.1 21.3-6.5 5.5-5.3 17-11.5 23.1-12.5 4.3-.8 12.2-4.9 14.1-7.4 1.1-1.4 1.2-1.4 1.3.1 0 2.7 2.5 2.1 5.4-1.3 1.4-1.7 2.6-2.5 2.6-1.8s-.7 2.1-1.7 3.1q-1.4 1.7-.6 1.8 1-.1 2.3-1.5t2.1-.9q2.9 1.6-3.8 4.6a60 60 0 0 0-10 6c-2.9 2.1-6 3.8-6.9 3.8-1.9 0-5.4 2.7-5.4 4.2q-.2 2.6 9.7-3.1c3.7-2.1 7.1-3.7 7.6-3.4 1.2.7.8 2.3-.5 2.3-.7 0-4.6 1.7-8.7 3.8-7.1 3.5-10 6.2-6.7 6.2 3.5 0 2.3 2-1.8 3.1-2.5.6-6 2.2-7.7 3.5q-5.8 4.3-4.6.4c.8-3.2-4.2-2.2-7.3 1.5-5.5 6.3-7.3 10-4.5 8.9 1.9-.8 1.9 1.3 0 4.6l-1.4 2.5-.1-3c-.1-2.8-.1-2.9-1.5-1.1-1 1.3-1.3 3.5-.9 7.6.4 5.1.2 6-2.5 9.4q-4.8 5.8 0 5.6c2.7 0 2.4.5-2.1 4.7-2.6 2.2-3.7 4-3.1 4.6 1.4 1.4 5.1-.2 8.3-3.6 1.5-1.7 2.8-2.6 2.8-2s-1.9 2.7-4.2 4.5-6.2 5.4-8.7 7.9a82 82 0 0 1-7.9 6.9c-3.6 2.4-3.1 4.7.7 3.5a74 74 0 0 0 18.5-16.1c.6-1.3 1.6-2.4 2.3-2.4 1.9 0 .4 2.5-5.1 8.7-2.9 3.2-4.4 5.7-4 6.6q.6 1.6-4 4.2-7.4 4.4-2.6 4.5c2.7 0 2.5 1.4-.5 3.4-2.7 1.8-3.5 4.2-1 3.3q4-1.4-.1 6.4l-2.8 5.1 2.1 1.6c1.8 1.5 2 2.6 1.8 8-.3 7.1-2 10.2-3.1 5.8-.3-1.5-.1-3.9.5-5.2s1.1-2.9 1.1-3.4c0-2-2.9-.9-5.4 2.1-2.9 3.4-2.8 6.4.3 10.8 3.3 4.7 5 5 8.2 1.2 1.6-1.9 3.2-3.2 3.5-2.8 1.2 1.1-4 7.6-7.3 9.2-2.7 1.3-3.1 1.9-2.4 3.8.5 1.2 1.2 4.5 1.6 7.3.9 6.8-1 10.6-6.4 12.7-6.2 2.5-8.6 7.3-5.9 11.6.6 1 .8 2.6.4 3.6-1.2 3.3-2.4.2-2.8-7.8l-.5-7.8 4-2.7c7.7-5.2 9-7.1 8.2-12.2-.4-2.5-.7-6.2-.6-8.2q.2-3.7-2.5-7.8c-3.3-5-2.9-10.8 1-14.9 3-3.2 3.2-4.3 1-7.6-2.4-3.7-8.3-6.7-14.3-7.4-8-.9-10.4-5.8-2.6-5.3 4.9.4 6.4-2.6 3-5.8-3.3-3.1-3.1-4 .9-4 4.7 0 6.6-.9 6.6-3.1 0-1.5-.7-1.9-3.9-1.9-2.3 0-4.4-.6-5.1-1.5a4 4 0 0 0-3.4-1.3q-3 .3-1.2 4.9.7 1.7-2.8 5.3l-3.5 3.7-2-2c-3.7-3.7-11.1-1.9-11.1 2.7 0 3.3 1.6 4.4 5.6 4 3.3-.2 3.9 0 4.2 1.8.2 1.6-.5 2.3-3.6 3.2-2.2.7-5.1 1.2-6.4 1.2-3.2 0-9.8 7-9.8 10.4 0 7.2 8.7 4.5 15.5-4.9 1.7-2.3 3.1-2.9 8-3.6 7.4-1 10.3.5 15.2 7.4 3.1 4.4 3.3 5.1 2.7 10.2-.6 4.6-.9 5.3-2.1 4.3q-1.5-1.2-.9-4.4c1.3-6.6-4.3-12.5-12.3-12.8-2.5-.1-5.3-.4-6.1-.7q-1.5-.5-1.5 1.9c0 1.2-.5 2.6-1.1 3-3 1.9-4.6 7.6-4.1 13.9.5 6.2.4 6.4-1.4 4.7-2.1-1.9-2.5-5.5-.7-8.3 1.2-2 .5-5.1-1.2-5.1-.6 0-1.3 1.4-1.7 3-.5 2.8-.8 3-3.8 2.4-2.8-.5-3.3-.2-3.9 1.8-.7 2.2-.7 2.2-1.6.3-.5-1.1-.9-4.8-.9-8.3-.1-6.7.9-9.2 6.2-14.9 2.9-3.1 2.9-5.3.1-5.3-.8 0-2.8 1.5-4.5 3.2q-5.2 5.4-.9-1.7c1.8-2.9 1.8-3.4.5-4.5-.8-.7-2.2-1-3-.6q-1.4.4-1.5-.4c0-1.7-3.2-4-5.5-4-2.9 0-4.1-1.6-2.6-3.4q2-2.6-2.8-2.6a13 13 0 0 1-5.6-2.1c-2.9-2-2.9-2.1-.5-1.6 9.4 2 11 2.8 16.1 8.2 4.1 4.4 5.7 5.4 7.3 4.9 4.6-1.4 3.9-4.2-1.8-6.9a7 7 0 0 1-4.1-4.8c-.8-2.6-1.5-3.2-3.5-3-4 .3-10.4-1.7-13.6-4.2-4-3.2-2.1-4.5 2.6-1.7 4 2.2 10.4 3 11.5 1.3.6-1.1-1.2-2.4-3.5-2.7a39 39 0 0 1-13.1-5c-1-1.2-.8-1.3 1.5-.4 1.5.5 5.1 1.1 7.9 1.2q5.2.1 8.7 2.5c1.9 1.3 4.4 2.4 5.5 2.4q1.5.2-1.4.8c-1.9.3-3.6 1.2-3.9 1.9-.5 1.5 5.6 4.2 9.5 4.2q3 0 1.5 1.2c-.7.7-1.2 1.8-1.2 2.5 0 2.2 3.7 1.5 7-1.4 2.8-2.3 3-2.8 1.6-3.8-1.4-1.1-1.4-1.4.5-3.1s1.9-1.9.3-2.4c-1-.4-3.5 0-5.7.7-2.2.8-4.5 1.2-5.1 1-.6-.3 1.1-1 3.7-1.7 3.5-.9 5.1-1.9 5.7-3.5a9 9 0 0 1 1.9-3c2-1.2 1.2-6.2-1.5-8.8-2-2-4-2.7-8.9-3.2-5.1-.6-7.1-1.3-9.7-3.6-3.5-3.2-6.3-4.3-9.9-3.7-3.5.5-3.4 2.6.3 3.7q3.4.9 1.2 1c-1.2.1-2.7.8-3.4 1.6-1.1 1.3-1.5 1.3-4 0-2.9-1.5-6-5.1-6-6.9 0-.5.9-.1 1.9.8q5 4.7-1-8.4a51 51 0 0 1-3.8-10.5 54 54 0 0 0-12.2-16.9c-3.5-3.5-3.9-3.7-3.9-1.8 0 3.2-1.3 2.7-4.9-1.8-1.7-2.2-2.5-3.7-1.6-3.4q1.4.6 1.5-.9c0-.8-.8-1.8-1.7-2.2-1.7-.6-1.7-.7 0-1.7 1.5-.8 2.4-.5 4.5 1.4 1.5 1.4 5.9 3.9 9.7 5.8 14.9 7 17.1 8.2 20.5 11.6l3.6 3.4 9.5-3q14.8-4.6 14.9-8.6c0-1.6-2.6-1.9-3.5-.4-1 1.6-7.7 4.8-10.5 5-5.4.5-7.1 0-8.2-2.5-1.3-2.8-.5-4.3 1.4-2.8.7.6 2.7 1.4 4.3 1.7 4.4.9 13.9-4.8 14.3-8.7.4-3.3-1.2-3.5-3.3-.3-2.2 3.3-7.1 5.5-10.4 4.7-3.4-1-3.8-3.7-1-6.7l2.2-2.4h-9.9c-14.8 0-15.6-1.6-4.7-8.6 4.6-2.9 5.3-3.7 4.7-5.8-.4-1.8.3-3.3 3-6.2 3.9-4.2 4.2-4.9 2.6-5.9-.6-.4-2.9.9-5 2.9-4.7 4.2-6.9 4.5-10.6 1.2l-2.8-2.3 3.2-4.1c1.8-2.2 3.2-4.5 3.2-5.1 0-2.2-2.9-1-5.1 2.1l-2.5 3.6c-.1.2-1.4-.4-2.8-1.5-2.1-1.6-2.4-2.4-1.9-5.9q.5-4.1-.7-4.9c-1.6-1-3 1.2-3 4.7V59h-18v-2.8c0-2.7-1.5-5.2-3.2-5.2-.4 0-.8 2-.8 4.4 0 4-.3 4.5-2.9 5.4-3.4 1.2-4.1.8-4.1-2.4 0-2.9-3.3-4.9-4.9-3q-1.2 1.2.4 3.2c2.2 2.9 1.8 5-1.2 7.4l-2.8 2.2-1.2-3c-1.6-4-5.9-7.2-9.7-7.2h-3.1l3.2-3.2c2.5-2.5 3.5-2.9 4.6-2 .7.6 2.8 1.3 4.7 1.4 4.4.4 5.2-1.9 1.1-3.5q-5.5-1.9.4-4.6c2.2-1 3.3-1.1 4.7-.2 1 .6 2.8 1.1 4 1.1s3 .8 4 1.7q1.8 1.6 2.9.6c1.3-1.3-.6-6.3-2.5-6.3-2.6 0-2.8-2-.4-2.9 5.9-2.2 6.5-2.2 7.1-.2q.3 2.1 2.7 1.4c1.6-.4 2.8.2 4.5 2.3 2.1 2.6 2.4 2.7 3.1 1.1.3-1 .2-2.9-.5-4.3-1.5-3.5-1.6-3.4 3.3-3.4 4.2 0 4.6.2 7.7 5 1.8 2.7 3.6 5 4.1 5 1.5 0 1.9-2.6.8-5.4-1.5-4.2-.5-4.7 5-2.4q5 2 4.1 3.2c-1.2 1.6-.1 8.8 1.3 8.3q1-.5 1.4-2.8c.6-4.8 1.1-5.3 3.2-3.4q4.5 4.2.4-3.9c-2.5-5.2-3.1-8.6-1.4-8.6.6 0 3.8 1.9 7.3 4.2M130.5 62c.3.6 1.7.7 2.9.4 1.7-.4 3.3.3 6 2.6 2 1.8 3.6 3.6 3.6 4 0 .5-1.4 1.8-3.1 3l-3 2.2-2.4-2.2a12 12 0 0 0-6.9-2.7c-2.5-.3-4.6-1-4.6-1.5s1-2.2 2.2-3.8q3.5-4.7 5.3-2m249.6 12.7q2 5.3-2.6 5.3c-1.4 0-4.3.9-6.5 2-5.1 2.6-5.7 2.5-6.5-.7q-1.2-5.3 8.2-7.9c6.5-1.7 6.2-1.8 7.4 1.3m-248.8.6c3 2 3.2 2.5 1.5 6.2q-1.8 4-3.2 1.6c-.9-1.5-10.4-2.3-12.7-1q-2 1-1.7.2l3.1-7.3c.7-2.2 9.5-2 13 .3m252.2 13.2c0 3.9 0 4-5 5.1-2.7.6-6 1.4-7.1 1.8-1.8.5-2.4.1-3.3-2.5q-2.8-9 9.9-8.6l5.5.2zm-255.5-1c1.4.9 1.2 5.1-.2 6.2-.7.6-3.5 1.3-6.1 1.6-2.6.2-5.6 1.2-6.6 2.1-2.4 2.2-3.1 2-3.1-.8 0-5 1.3-8.8 3.4-9.7s10.8-.5 12.6.6m32.9 7.5a2 2 0 0 1 1.6 1c1.1 1.7-3.2 1.1-5.5-.8q-2.2-1.8-1.5-3.2t2.6.8c.9 1.2 2.2 2.2 2.8 2.2m222.9 6.8.3 5.2H380c-2.3 0-5 .5-6.1 1-2.2 1.3-3 0-3.3-5.2-.1-3.1.2-3.4 4.9-5 7.3-2.4 8-2.1 8.3 4m-257.1 2.4-.2 5.3-3.9.6q-4 .7-6.2 3.3c-2.6 3-2.9 2.7-3.9-3.2q-.8-4.4.7-5.9c2.3-2.8 7.2-5.3 10.5-5.3h3.3zm42.8 1.4c1.7 1.2 4 2.5 5.3 2.8 2.3.8 7.1 9.1 5.9 10.3-.4.3-1.8-.8-3.2-2.5-2.7-3.2-8.5-5.5-11.1-4.5q-1.3.4-1.4-1 0-1.5 2.5-.9 2.3.3 2.5-.5c0-2-6.8-6.3-10-6.3-1.9 0-2.6-1.1-1.4-2.2.7-.8 6.9 2 10.9 4.8m114.2 2.8c-.6 1.4-7.5 3.5-9.5 2.8-2.4-.8-1.3-3.2 1.6-3.2 1.5 0 3.8-.6 5.2-1.3q4-2 2.7 1.7m8.3.1c-2.2 2.3-5 3.4-5 1.8s3.5-4.3 5.3-4.3c2 0 2 .1-.3 2.5m90.1 2.5c1.9 1.1 2.6 5.4 1.1 7.6-.4.7-3.4 1.3-6.7 1.5-5.8.4-6 .3-6.3-2.2-.2-1.9.5-3.3 2.8-5.3 3.4-2.8 5.9-3.2 9.1-1.6m-54.6 2q.4.9-.4 1-1-.1-1.1-1 0-1 .4-1t1.1 1m-268 6.7a106 106 0 0 1 10 27.2q.4 4.3 1.9 5.3c2.2 1.2 2 2.8-.2 2.8-1 0-2.9 1.1-4.2 2.5s-3.2 2.5-4.2 2.5c-1.9 0-2.4 1.5-.8 2.5 1.7 1 1.1 2.5-1 2.5-1 0-2.4.9-3 2q-2 3.8-5.3-.1-2.8-3.3-5.1.4-1.2 1.6.7 3.5c1.5 1.7 1.6 2.2.3 4.6-1.3 2.7-1.4 2.7-2.1.7q-.6-2-1.5-2.1t-1.4-2.5q-.7-2.3-2.1-2.5-1.4 0-.9-1.5.6-1.5-1.4-1.5c-2.4 0-3.6-1.4-5.1-6-.6-2-3.1-6.8-5.6-10.8s-4.5-7.9-4.5-8.8q0-4.8 7.2 10.2c4.8 10 7.6 13 9.9 10.7 1-1-5.8-15.3-7.9-16.6q-1.1-.9-.7-1.6.3-1-.9-2a3 3 0 0 1-.9-3c.3-1.1-.1-2.9-.7-4.1-.9-1.8-.9-2.1.1-1.8.7.2 4 5.8 7.4 12.4 3.8 7.4 6.9 12 7.9 12.2 1.1.2 3.4-1.3 5.7-3.7l4-4.1-3.2-4a18 18 0 0 1-3.5-5.8 37 37 0 0 0-3.8-12.2c-2.4-5.2-3.4-10-2-10 1.1 0 3.3 3.4 3.4 5.1 0 .9.9 2.3 2 3 1 .8 3.2 5 4.8 9.3 2.9 8.3 7.1 13.1 9.2 11q1.2-1.1-.5-2.4c-.8-.7-1.5-2.8-1.5-4.6 0-1.9-.5-3.4-1.1-3.4q-1-.1-.7-2.5c.3-1.4.1-2.8-.3-3.1s-.9-2-.9-3.8-.3-3.6-.7-4-.8-1.2-.9-1.9l-1-3.5q-.7-2.3.9-2.2c.8 0 2.7 2.5 4.2 5.7m67.3-.5c.5 2.9.8 5.6.6 5.9s-1.9.9-3.9 1.2c-1.9.3-4.8 1.5-6.3 2.6l-2.9 2 .3-5.4c.2-4.6.7-5.9 3.3-8.4 1.8-1.7 4.2-3.1 5.5-3.1 2 0 2.5.7 3.4 5.2M173 117q1.3.9.5 1c-.5 0-1.7-.5-2.5-1s-1-1-.5-1q1.1.1 2.5 1m5.1 2.3c.9.7 1.8 2.3 2.1 3.7l.8 3.5c.1.5.2 2 .1 3.2-.1 1.9-.4 2-3.1 1q-3.2-1-1.8-2.4c1.3-1.6.3-4.3-1.7-4.3q-1.4-.1-1.5-1 .2-1 2-1 3.5 0 .8-2.8c-1.6-1.6.2-1.5 2.3.1m137.4 2.7c-2.7 1.2-4.3 1.2-2.5 0a7 7 0 0 1 3-.9q1.5 0-.5.9m-5.3 2.2q-2.6 2.7.6 2.8 1.2.2-2.6 2.5c-3.8 2.3-4.8 2.3-5.2 2-1.7-1.1.4-4.7 3.9-6.5 4.3-2.3 4.9-2.4 3.3-.8m71 2.8c-.7 6.5-1.7 7.3-8 6.6-3.1-.4-6-1-6.4-1.4s-.3-2.4.3-4.4c1-3.9 2.9-4.7 10.9-4.4 3.4.1 3.5.2 3.2 3.6m-195.2-.2c0 .9 1.1 3.4 2.5 5.4 2.8 4.1 3 4.8 1.5 4.8q-1-.2-1.7-1.8c-.3-.9-1.2-2.4-1.9-3.2a17 17 0 0 1-2.3-4.3c-.9-2.2-.8-2.7.4-2.7q1.4.1 1.5 1.8m-57.6 4.4c1.8 5.8 1.6 6.2-4.2 9.6-5.2 3-5.7 3.1-6.6 1.5q-6.1-10.4 9.2-12.2 1.2.1 1.6 1.1m186.4 2.1c.3 1.4-.2 1.6-2.6 1.1-2-.4-4.4.2-8 2-8 4-8 5.8 0 3.4 2.9-.9 4.1-.9 5 0q1.4 1.3-1 1.2c-1.3 0-4 .9-6.2 2-5 2.5-5.6 2.5-6.4-.3-.8-3.2 3-6.5 10.5-9.2 7.2-2.5 8.3-2.5 8.7-.2m-131.3 2.4q3.6 1.6 3.5 4 0 2.1-1 2.3c-2.2 0-6-2.5-6-4q0-1.6-1.2-2.8c-1.8-1.8.4-1.5 4.7.5m-4.7 2.7c-.1.2-1.7.6-3.5.9-3.1.6-3.2.6-1.6-1.3 1.3-1.5 2.1-1.7 3.6-.9q1.7 1 1.5 1.3m198-.8c2 .4 2.3.9 1.7 3.1a7 7 0 0 1-2.2 3.8c-.9.7-1.4 1.9-1 2.7 1.3 3.6-8.2 23.4-12.7 26.4q-5.7 3.9-7-3.4c-.9-4.5-.9-4.9 3.8-17.7l2.5-7 4.6-.5c5.3-.6 6.4-2.4 1.8-2.8q-3.4-.2-3.3-2.1c0-3.9 2.5-4.4 11.8-2.5m-242.4 13.1c1.8 5.8 3.4 9.5 6.4 14.5 1.2 2.1 1.4 3.7.6 7.5-.8 4.2-1.2 4.8-3.4 4.8-1.9 0-3.4-1.4-6.8-6.5-6-9.2-10.4-18.6-10-21.7.2-2 1.4-3.3 4.8-5 5.3-2.8 5.7-2.5 8.4 6.4m175.9-6.2c-.2.9-11.4 3.7-12.1 3-.2-.1 1.2-1.2 3-2.4 3.3-2.1 9.5-2.5 9.1-.6M191.5 147q1.6 1.8 1.2 2c-1.4 0-5.7-2.4-5.7-3.2 0-1.5 2.7-.8 4.5 1.2m25 4.6c3.1 1.3 3.6 1.9 3.1 3.9-.5 1.8 0 2.8 1.6 3.9 2.1 1.5 2.4 1.4 4.3-.4 1.7-1.7 1.8-2.3.7-4q-1.6-2.2.2-2c2.3 0 4.7 3 4.4 5.3-.2 1.2-1.7 2.9-3.5 3.9-2.9 1.8-3.4 1.8-6.9.3-2.1-.9-5.1-3-6.6-4.8-2.7-3.1-2.8-3.2-3.4-1-.7 2.7-2.2 2.8-7.1.8a19 19 0 0 0-5.3-1.5q-2 0-1.3-2c.6-2.3 2.3-2.5 6.1-.7 4.3 2 8.6 1.6 9-.9a4 4 0 0 0-1.3-3.4c-.8-.7-1.5-1.8-1.5-2.4q.3-.8 2 1.2c1 1.2 3.5 2.9 5.5 3.8m-116.8 2.3a39 39 0 0 0-9.1 18c-.7 5.8-3.4 10.1-6.2 10.1-2.2 0-2.4.4-2.4 4.4 0 2.5.5 4.8 1.2 5.2q1.1.7-1.1 1.6c-1.8.6-2.2 1.3-1.7 3.2.3 1.4.2 2.8-.4 3.1-1.7 1.1-1.1 3.3 1.1 4q2.5.7.8 1.6c-1.2.7-1.2 1.3.2 3.6 1.2 2.2 2.2 2.8 4.5 2.6 2.6-.2 2.7-.1 1.2 1.1-1.9 1.4-2.4 4.1-.9 5 .5.3 1.8 2.6 3 5.2 1.7 3.5 2.6 4.4 3.9 3.9q2-.8.5.6c-2 2-1.6 4.2.6 3.6 1.5-.4 1.8.1 1.6 3.6-.2 3.9 1.9 8.2 3.6 7.1.4-.2.7.9.7 2.4q-.2 5.2 2.8 5.2 1.4 0 1.4 3.1 0 3.3 1.4 2.6 1.6-.7 1.8 2.6c.2 1.8.8 3.1 1.4 3 1.3-.2 2.8 11.6 1.7 14.2q-.9 2 1.5 1.3 3.8-.9 1.2 4.3c-1.7 3.1 0 4.5 2.2 1.8l1.9-2.4-.7 2.5c-.3 1.4-1 3-1.5 3.6-.9 1.1-.1 5.4 1 5.4q.7 0 1.9-1.2c1.9-1.9 1.5 2.3-.4 5s-1.2 4.1 1.1 2.2c1.3-1 1.5-.9 1.5.7a6 6 0 0 1-1.2 3.2c-1.1 1-.9 1.6 1 2.8 1.2.9 2.2 2.5 2.2 3.6 0 3.2 2.9 5.8 5.1 4.6 2.6-1.4 2.4-4.4-.6-6.7l-2.5-2 2-5.1c1.1-2.9 2-6.8 2-8.9 0-4.5-2.5-16-5-22.4-1.9-5.1-1.7-8.8.6-8.8q1.3-.1 1.4-1.4.1-1.4 1.6-2c1.4-.5 1.4-1-.4-4l-2-3.4 2.5-1.8c2-1.5 2.6-2.9 2.7-6.2q0-4.2 1.4-4.2 1.2-.2 1-1.8c-.1-.9 0-2.2.4-2.7a38 38 0 0 0 4.8-10.2c-2 .5-1.2-1.3 1.7-3.7 1.9-1.6 3-3.3 2.6-4.1q-.4-1.5 1.3-1.6l3.4-.3q1.4-.2 1.4-2.2t1.5-2q1.6.2 1.4-2.4c-.3-2.4-.2-2.4 1.2-.6q1.3 2 4 1.2c2.4-.6 2.6-1 2-3.9l-.6-3.2 2.1 3.4q2.2 3.4 3.2 2.3 1-1-.2-3.1c-.6-1.2-.9-2.7-.7-3.4s1.1.3 2.1 2c.9 1.8 2 3.3 2.5 3.3q2.5-.2 1-3.2c-1.3-2.3-.5-3.5 1.3-2.1.7.6 2.8 1.1 4.6 1.1 2.8.1 3.2-.2 2.7-1.9-.4-1-.2-1.9.4-1.9q1 .2 1.6 2c.9 3 3.7 2.6 2.9-.4-.5-2.1-.2-2.3 2.4-2.2 2.5.1 3.1.6 3.6 2.9.7 3.2 2.9 3.2 3.4 0 .3-2.1 3.4-3.6 5.7-2.7q1.1.7.8 2.5c-.4 1.6 0 1.9 2.6 1.9 1.7 0 3.1.4 3.1 1q.2.9 2 1c2.5 0 2.7 4.1.4 9.6-3 7.1-.4 15.8 6.9 23.7 1.6 1.6 3.5 4.7 4.4 6.9 1.9 4.7 3.8 5.8 9.8 5.8 4.1 0 4.6.2 3.9 1.7-.4 1-.9 3.9-1.2 6.4-.5 6.5 4.3 16.6 11.3 23.5 2.9 2.8 6 6.5 6.9 8.3 1.6 3.1 4.8 4.2 6.1 2q.8-.9 2.2 1.1c1.2 1.7 2.3 2.1 4.6 1.7a13 13 0 0 1 6 1.1c2.4 1.2 3.8 1.3 8.1.3a49 49 0 0 1 18.1.3c7.2.9 14.6 1.6 16.6 1.6 4.4 0 6.7 2.1 4.4 4-1.4 1.2-1.4 1.5.2 3.3q2 2.1.6 2.4-3 1 1.5 4.8l2.7 2.4-2.7.1c-3.8 0-3.6 2.4.2 4 3.3 1.4 4.2 3.5 1.1 2.5-2.1-.6-3.8 1-2.1 2 .6.4.8 1.6.4 2.8-.5 1.6.1 2.7 2.7 4.8 2.6 2.2 2.9 2.7 1.3 2.3-3.5-.9-3.7 1.3-.4 3.6 3.2 2.3 4.2 5.7 1.4 4.6-3.1-1.2-3.6.7-.8 2.9 2.4 1.9 2.6 2.5 1.6 3.8q-1.3 1.4-.3 4c1.1 2.9-.5 5-4.1 5.2-2.7.2-3.8 2.3-2.7 5.2.5 1.4.9 3.1.9 4q.2 1.9-1.5.3c-1.3-1.1-1.8-1-2.9.6-.8 1-1.2 2.3-.9 3q.2 1-1.1 1.7t-1 2.2q.9 2.5-2.5.6-1.5-.9-3.3 0c-1.5.8-1.7 1.7-1.2 4.5.6 3.4.6 3.5-1.4 2.3-1.9-1.2-2.3-1.1-3.5.5q-1.4 1.9-2.1.8c-1.2-1.9-2.6-1.4-2.6 1q0 2.4-1.2 1-2.8-2.8-2.8 1.2c0 3.4-1.8 4.2-2.2 1-.4-3.7-3.9-4.9-6.9-2.5l-2.3 1.8 2.5 1.3q4 2.1 3.9 4.8.1 1.4-2 .2-1.8-.9-2-.3t-1.5-1.1c-1.7-2.2-3.8-1.2-3 1.5q.8 2-1.4 1.9-2.2.2-2.1-2.5 0-2.4-1.6-2.5-1.6 0-.9-1.9c.8-2.7-2.1-5.4-4.5-4.1q-4.4 2.4-1.7 4.5c2.1 1.5 2.2 6.8.3 8.4q-1.5 1.4-1.9-.9c-.5-2.1-2.7-2.8-2.7-.9 0 .5-1.6 1.7-3.6 2.5-3 1.2-3.5 1.9-3.2 4.2.4 3.7 3.7 4 6.8.7q4-4.3 4-1 .1 1.5 1.5 2.1c1.1.5 1.2 1 .2 2.4q-1.1 2-2.4.8c-2.3-1.9-6.1-.1-6.8 3.2q-1.2 5-2.9 1.5-1.5-3.5-4.1 1.7l-1.5 3.3.5-3.5c.2-1.9.7-4.4 1-5.5s.1-2.7-.4-3.5c-.8-1.2-1.6-1.3-4-.3s-3.1.8-3.5-.3q-.6-1.2-2.1-.8c-1.8.7-4.7-2.4-4-4.4.9-2.5-.7-4.2-4.1-4.2-2.6 0-3.7.6-4.8 2.7-1.5 2.8-1.5 2.8-1.4-2 .1-5.8-.6-6.6-3.2-4.2q-1.8 1.6-2 .9.1-2.2 3.5-4c2.2-1.2 2.7-4.5.8-5.1-.6-.2-2.2.6-3.4 1.8a9 9 0 0 1-5.5 2.4c-2.7.1-3.3-.3-3.1-2q.4-2.1-2.3-2c-2.1 0-2.5.5-2.5 2.7q0 2.6-.5 2.8c-.5.2-2.8-2.3-5.5-5-4.1-4.1-4.7-5.2-3.5-6q1.5-.8 2.4 0c1.3 1.3 5.3 1.3 6.2-.1.3-.6 0-1.8-.9-2.6-1.1-1.1-1.9-1.2-3.5-.4s-2.1.7-2.6-.4c-.7-1.8-3.7-2-5.4-.3-.9.9-2 .4-4.7-2.2-3.3-3.2-3.4-3.5-1.5-4.2q1.9-.7 2-3.1c0-3.2-.8-3.8-3.7-2.4q-2.6 1-2 3.4c.5 2.8-.1 2.8-3 .4-2.8-2.4-2.9-4.1-.3-4.1q1.9 0 2.6-2.4 1.2-4.9-2.9-4.5c-4.7.3-5 .1-3.3-2.6 1.4-2.2 1.4-2.5 0-3.3s-1.4-1 0-2.1q3.3-3-.6-3.1h-2.3l2.5-2 2.5-2-2.2-.6c-2.6-.7-3-2.2-.8-3q1.3-.7 1.5-1.5c.2-.8-.7-.9-1.5-.9q-3-.1.2-2.5c1.4-1 1.5-1.6.5-2.8s-.9-1.7.3-2.7c1.4-1.1 1.3-1.4-.2-2.6-1.7-1.2-1.6-1.3 1-2.3 3.2-1.2 3.6-3.1.7-3.1s-2.6-3.6.6-4.4c1.9-.5 2.4-1.1 1.9-2.6q-.6-1.9.5-2c1.1-.1 1-.7.6-1.5-.7-1.9 2.8-5.5 5.3-5.5q1.8-.2 2.3-1.2c.4-1 5.8-1.3 22.2-1.4 22.7-.2 25.2-.6 23-4.2-.6-.9-2-1.7-3-1.7-1.1 0-2.4-.3-3-.7-1.2-.8-6.1-.4-7.1.5-1.2 1.3-2.3.7-2.3-1.3 0-2.3-2.9-2.7-4.8-.8q-1.3 1.3-1.2 0c0-1.7-2.9-1.5-3.6.2q-.5 1.5-4.7 1.1c-2.3-.1-4.7.1-5.4.7q-1.2 1-4.9-.1c-2.7-.8-4.1-.7-5.2.1q-1.4 1.3-2.2-.3a4 4 0 0 0-2.2-1.5c-.7 0-2.6-.6-4.1-1.3-1.6-.6-3.2-.9-3.6-.6-.5.2-1.4-1.4-2.1-3.6-1.1-3.1-1.8-3.9-3.2-3.6q-2 .8-1.8-2.3c0-1.6.5-4.1 1.2-5.5 1.3-3 .5-4.3-1.7-2.5-1.3 1-1.5.9-1.5-.8 0-1.1.7-2.5 1.5-3.2s1.5-1.9 1.5-2.6q-.1-1.3-1.5-1.4-1.5 0-1.7-3.8c-.2-5.4-.2-6.5.7-8.5q.8-1.7-.9-1.7-3 .1 0-3.2c1.3-1.4 1.4-2.1.5-3.2-1.5-1.7-.7-3.6 1.5-3.6q1.3-.2 1.4-2 0-2 2-2 1.8-.1 2-1-.1-1-1.3-1c-.7 0-2.3-1.4-3.5-3s-2.7-3-3.3-3c-1.7 0-3.9 2.8-3.4 4.3q.9 1.5-2.4.9c-2.7-.4-3.2 0-4.6 3.4-.9 2.2-1.9 6-2.2 8.6-.5 4.2-.3 5.1 1.9 7.3 2.9 2.9 4.5 9.1 5.8 22.8.9 9.5.8 10.7-.7 14.4-.4 1-.7 2.7-.7 3.8-.1 1.1-1.1 2.4-2.3 3q-4.2 1.6-.3 5c1.1 1 2 2.3 2 2.9q-.3.8-1.9-1.2c-1.1-1.2-2.4-2.2-3-2.2-1.9 0-1.1 2.4 1.9 6 3.9 4.5 4 7.4.2 3.7a12 12 0 0 0-3.5-2.7c-1.3 0-.7 2.5 1.3 5 2.6 3.3 2.6 5 0 2.2-3.9-4.1-5.5-2-2 2.5 3.2 4.1 2.5 6.2-.9 2.9-4-3.9-5.8-2.9-2.6 1.4s3.2 6 .1 3.1c-2.3-2.1-4.6-1.5-3.1.9q.4.9-.4 1c-2 0-1.1 2.8 1.4 4.8 2.4 1.9 3.3 4.2 1.7 4.2-.5 0-1.7-.9-2.7-2q-1.9-2-2.9-1t1.9 4c1.6 1.6 2.6 3.2 2.3 3.5q-.6.4-1.8-1c-1.8-2.2-4.3-1.9-3.7.4q.4 2-1 2.5c-1.8.7-.8 2.4 2.1 3.7q2.8 1.1-1 .5-5.6-.8-3.3 2c.9 1.1.2 1.2-3.8.8a35 35 0 0 0-11.6 1c-8.1 1.9-13.8 2.1-15.5.4q-1.1-1.2-2.5 0c-1 .9-1.9.8-3.6-.5-2.2-1.5-2.4-1.4-4.6 1.3-1.3 1.6-2.7 2.6-3.1 2.1s.3-1.8 1.6-3.2c2-2.2 2.2-2.8 1.1-5.1l-1.2-2.6-2.6 2.6c-2.4 2.4-5.3 3.5-5.3 1.9 0-.4 1.1-1.9 2.6-3.4 1.9-2 2.4-3.2 1.8-5.3-.7-3.1-1.1-3.2-4.4-.6q-4.2 3.4-4 .7c0-.6 1.4-2 3-2.9 3-1.7 4.4-5.5 1.6-4.5q-1.4.6-.9-1.4 1-3.7-3.3.2-2.3 2.1-4.1 1.4c-1.5-.5-1.2-1 2-2.6 2-1.1 3.7-2.6 3.7-3.4q.2-2.9-3.8.1c-1.3.9-3 1.3-3.8 1-1.9-.7-.9-2.6 1.5-2.6.9 0 2.5-.6 3.5-1.3 1.5-1.1 1.5-1.7.5-4.2-.7-1.7-1.3-3.5-1.3-4-.1-.6-1.9-.9-4.1-.7q-6.1.6-.4-2.2 2-1 1.8-2.1-.4-.8-.9-.8-4.3 1.2-4.5-.7.2-1.3 2-1.8c2.6-.5 4.6-2.2 4-3.3-.3-.5-1.9-.6-3.5-.2q-2.8.4-3-.5c-.2-.9 1.2-1.2 2.7-1.4 4-.5 4.1-2.8.1-2.9q-3.2-.1-1.3-.6c3-.7 3.9-2 4.2-5.8q.2-3.6-1.2-3.5-1.4 0-.8-1.6 1-1.8-2.2-1.2c-1.6.2-3-.2-3.2-1q-.3-1.1 1.9-1.2c3.2 0 5.1-1.9 3.7-3.7q-1.2-1.3-.1-2.6c1.2-1.4.5-6.4-1-7.3-.5-.4-1.5-.1-2.1.5-1.4 1.4-2.7 1.4-2.7.1q.1-1 1.4-1c1.8 0 3.9-2.7 3.1-4q-.6-1-2.6 0-2 1.1-1.9 0t2.5-2.2q2.6-1 2-3.2c-.3-1.2-.6-3.8-.8-5.8-.2-2.1-.7-4.1-1-4.5-.4-.3-.7-1.5-.7-2.5q0-1.8-2.2-1.8c-2.6 0-1.6-1.3 1.5-1.7 3.3-.5 4.5-2.2 2.5-3.7-1-.7-1.4-1.7-.9-2.2 1.4-1.5 2.2-6.2 1.1-6.9-.5-.3-1-1.5-1-2.6 0-1-.4-1.9-.9-1.9s-.6-1.5-.1-3.3c.9-4.1-.5-8.1-2.5-7.3l-3 1.2q-1.3.5-1.5-.4c0-.5 1.4-1.2 3-1.6 2.4-.4 3-1.1 3.1-3.3v-3.7c-.1-.4.3-1.4 1-2.2q1.4-1.5-.5-2c-1.4-.5-1.3-1 .9-3.6a10 10 0 0 0 2.5-5.4c0-2-.5-2.4-2.9-2.4-1.7 0-3.2.4-3.6 1s-1.2.7-1.9.4q-1.4-.4-2.1.5c-.9 1.6-2.5 1.3-2.5-.5q0-1.6-2-.9c-2 .7-3.2-.5-6.5-3.6A23 23 0 0 1 49 179q.2-.7 2.2-1.3c2.6-.7 6.8 1.6 6.8 3.7s2.7 3.8 5 3.1c2.7-.9 2.5-3.6-.5-6.9-3.1-3.4-3.2-5.1-.1-7.1 1.8-1.2 3-1.3 5-.6 2.3.9 2.6 1.6 2.6 5.9 0 2.6.6 5.6 1.3 6.6 1.2 1.7 1.4 1.7 3.7-.2s2.4-2.3 1.2-5.4c-.6-1.9-1.2-4.5-1.2-5.9 0-3.2 2.8-7.1 4.8-6.7 1 .1 3.3-1 5.3-2.5s4.2-2.7 5-2.7 3.4-2.2 5.9-4.9 5-4.6 5.8-4.3q1.4.3-2.1 4.1m11.7 3.8c5.7 11.2 27.1 30.8 37 34 1.7.5 3.1 1.4 3.3 1.9.5 1.4-7.6 4.1-8.5 2.8-.4-.5-3.7-2.5-7.4-4.3a68 68 0 0 1-23.5-21c-5.6-8-7.1-9.3-9.6-8.5q-2.3.9-1.4-1.1c.4-.9.7-2 .7-2.4 0-1.6 4.2-6.1 5.6-6.1.7 0 2.5 2.1 3.8 4.7M194 154q1.3.9.5 1c-.5 0-1.7-.5-2.5-1s-1-1-.5-1q1.1.1 2.5 1m105.4 4.8c-3.9 3.4-4.5.9-.8-3 2.5-2.5 3-2.7 3.3-1.2.2 1.1-.9 2.8-2.5 4.2m-229 8.3q-.6.8-1.5.3t-.3-1.5q.6-.8 1.5-.3t.3 1.5m40.1 11.3c9.9 11.4 15.9 16 25.5 19.6 1.9.8 3.6 1.4 3.8 1.6.2.1-2.4 4-5.8 8.7-6.3 8.9-8 12.7-8 18.7a16 16 0 0 1-1.5 6c-.8 1.4-1.4 3.5-1.5 4.6 0 1.2-.7 2.7-1.6 3.5s-2.3 3-3.1 5.1-1.9 3.8-2.3 3.8a191 191 0 0 1-17-37l-3.2-8.5c-4.9-12.5-4.9-18.1 0-26.1 1.8-2.9 3.2-6.5 3.2-8.3 0-1.7.4-3.1.8-3.1s5.3 5.1 10.7 11.4m184.8-6c-1 1.4-2.2 2.6-2.6 2.6-.5 0 .2-1.3 1.5-2.9 2.8-3.5 3.7-3.2 1.1.3m-3.8 4.6q-.6.9-1.6 1-.9-.1-.4-1a2 2 0 0 1 1.6-1q.9 0 .4 1m2.9 7.6q.3 1.3-.8 1.4c-1.6 0-3.8-2.4-3-3.3.9-.9 3.2.3 3.8 1.9m-82.4 5q-.1 1.3-1 .9-1-.7-.5-1.6 1.4-2 1.5.7m79.4 0q2.2 5.6-2.4 2.3c-1.6-1.2-2.7-2.6-2.4-3.1.9-1.4 4.2-.9 4.8.8m-81.4 5.9q0 1.4-1 1.5-.9-.1-1-1.5c-.1-1.4.5-1.5 1-1.5q1 .2 1 1.5m77.1 3.4c.5 3.9-.6 6.9-1.5 3.9-1.3-4-1.4-8.9-.3-8.5.7.2 1.5 2.3 1.8 4.6m18.4 1.1c-.8 3.7.8 4 3.1.5.9-1.4 2.1-2.5 2.7-2.5q.8.2-.6 1.8c-1 1-1.7 2.2-1.7 2.5 0 1.2 3.5.8 4.9-.6q1.6-1.5.7.1c-1.2 2 2.3 2.7 3.8.7q1.3-2 2-.6.6 1.2 3.4-.9l2.6-2.1.8 2.1c.6 1.7 1.1 1.9 2.8 1s2-.8 2 1q.1 1.8 1.3 2c.7 0 2.7 1.3 4.4 2.9s3.8 3.1 4.6 3.4 4 3.9 7.1 8c4 5.3 5.9 9 6.8 12.8.7 3 1.7 5.7 2.4 6.1.7.5 1 1.8.6 3q-.7 2.4 1.1 1.5 1.7-.6 1.7.8c0 1.4 1 1.5 2.5 1.5q2.7 0 2.3 1.7-.3 1.9 1.8 1.8c2.5 0 5.5 3.4 12.9 14.6 3.5 5.3 5.5 9.4 5.5 11.2 0 2.1 1.1 3.9 4 6.6 4.1 3.7 7 8.2 7 10.6q.1 1.2 1.5 1.9t1.5 2.3c.1 2.9 3.4 9 4.6 8.6 1.3-.4 8.6 11.9 8.2 13.6-.2.6.8 1.7 2.2 2.4 2 1 2.6 2.1 2.8 5.6.2 3.1.7 4.1 1.7 3.8.7-.3 2.1.3 3.1 1.4 1.5 1.7 1.6 2.3.6 4-1 1.6-1 2 .3 2.5q1.4.8 1.5 2.1c.1 1.3 1.4 3.6 3.1 6.1a59 59 0 0 1 7.9 17c0 .8.7 2.3 1.6 3.3 1.2 1.4 1.3 2.2.4 3.8-.9 1.7-.8 2.2.5 2.8q1.7.6 1.1 2.8-.5 2.3.9 3.5c1.4 1.2 1.4 1.5 0 3-1.4 1.6-1.4 1.8.6 2.3 1.9.5 2 .8.9 2.2-1.1 1.3-1.1 1.8-.1 2.5q1.6.8.1 1.5c-1.5.7-.9 1.1.5 2.1 1.6 1.2 1.7 1.4.2 2-2.3.9-2.1 2.1.5 2.7 2.1.6 2.1.7.5 2.5-2.1 2.3-2.2 4.2-.2 4.2q1.4 0 1.5.9c.1.9-.7 1.1-1.5 1.5-2.3.8-1.8 2.8.5 2.1q1.9-.6 2 .5c.1 1.1-.9 1.4-2 1.7q-1.8.6-2 2 0 1.4 1.9.8c2.8-.8 3.4.9 1.1 3-2.6 2.3-2.6 3.8 0 3q2.2-.9 2 1.4 0 2-1 2.1a1 1 0 0 0-1 1q.1.9 1.5 1c2 0 1.9 1.6-.1 2.4-2.3.9-.6 2.8 1.8 2q2-.6 1.4.5-.8 1-2.5 1.1c-2.7 0-3.5 5.1-.9 5.8 1.8.4 1.8.6.2 2.3-1.6 1.8-1.6 1.9.6 1.9q2.5-.1 1.2 1.3c-1.6 1.9 1.1 5 3.7 4.2 3.5-1.1 8.1.4 8.1 2.6s1.1 2.4 2.8.7c2.1-2.1 1.3.5-.9 2.8-2.1 2.2-2.1 2.3-.3 4.8 1.1 1.4 2.7 2.6 3.7 2.6 2.1 0 2.2 1.3.2 3-1.3 1.1-2.2 1-5.2-.4-2.7-1.3-3.8-1.4-4.9-.5-2.1 1.7-1.7 3.8 1 5.1q2.5 1.1 2.8 3.7c.2 2 .9 2.7 3.1 2.9 2.3.3 2.8-.1 3.3-2.7q.7-2.7 1.4-2.6c1.1.7.1 4.2-1.6 5.6-1.8 1.5-1.8 4.9.2 8.8.9 1.8 1.4 3.4 1.3 3.6-.6.6-5.3-3.8-7.2-6.8-.9-1.5-2.3-2.7-3-2.7s-2.8-1.1-4.8-2.4c-3.7-2.5-13.6-4.9-14.4-3.6q-.4.9.1 2.4.8 1.7-1.8 1.6c-2.1 0-2.4.5-2.5 4.2q-.6 9.6-4.3 1.3c-1.6-3.8-1.9-5.4-1.1-7.9 2.9-8.8 3.1-17.8.7-23.7q-.5-1.6.9-3.3c.9-.9 1.5-2.3 1.2-3s0-1.9.6-2.5q1.4-1.2-1.2-1.8c-2.3-.6-2.3-.7-.5-2s1.7-1.6.4-2.6q-1.4-1.2-1.2-3.1c.3-1.6 0-1.8-2.2-1.2q-2.7.8-2.6-.8c0-.8.5-1.8 1-2.1s1-1.3 1-2.1q.2-1.6-2.7-.8l-2.8.7 2.3-2.5q4.6-4.7-.8-3.5-5 .9-1.5-2.3c2.5-2 1.7-3.3-1.5-2.7q-4.7 1-1.9-2c1.8-1.8.1-3.5-2.1-2.3s-3.3 0-1.9-2q2.3-3.6-1.8-2.5c-2.7.6-2.7.6-.9-1.4 2-2.2 1.3-4.6-1.3-3.6q-2 .8-.3-.6 2.8-3.3-1.3-2.7c-2.2.5-2.5.2-2.3-2.1.3-2.2-.1-2.6-2.5-2.7q-5.4 0-2.3-3.3c2-2.2.4-4-1.9-2.1q-1.5 1.2-1.5.2.1-1 1-1.7c1.7-1 1.1-2.3-1.2-2.7-1.6-.2-3.1-2.2-5.4-6.8a35 35 0 0 1-3.3-8.3c-.1-1-1.3-5.9-2.7-11a55 55 0 0 1-2.5-16.5c0-5.5-.3-7.4-1.4-7.9q-1.3-.6-1.5-1.8c0-1.8-2.5-2.6-3.9-1.2-1.5 1.5-1.4.1.4-3.3 1.4-2.6 1.4-3 .1-3-.8 0-2.2 1-3 2.2l-1.6 2.2v-2.1c0-1.2.5-2.5 1-2.8 1.4-.9 1.2-3.5-.3-3.5-.7 0-2 1.2-2.9 2.7-2.2 3.6-2.3 1.5-.2-3.7s.9-6.4-2.6-2.2c-2.7 3.2-2.7 3.2-2.3.7.3-1.4.9-2.8 1.4-3.1q.8-.6.9-2c0-2.6-3-1.5-5 1.8-1.9 3.1-2 3.1-2 .9 0-1.3.9-3.8 1.9-5.5q2-3.2 1.1-4.5c-1.4-2.4-3.7-.4-5.6 5.1l-1.9 5.3-.3-3.5a20 20 0 0 1 .9-7.2c.7-2.1.9-4.1.6-4.4-1.5-1.5-3.6.9-4.8 5.5-.7 2.8-1.6 5.1-2.1 5.1-1.6 0-.7-6.3 1.4-10.1q3.6-6.4-1.4-4.2-2.2 1-3.5 5.4l-1.3 4.4.5-5c.3-2.7 1-5.4 1.5-5.9 1.2-1.2 1.4-5.6.3-5.6q-3 .1-4.8 6.1-1.6 5.6-1.4 1.4c0-1.7.6-4.8 1.4-6.9s1.2-4.3.9-4.8c-1.3-2-4.1 1.6-6.1 7.9l-2.1 6.8-.1-5.5c0-3 .6-7.1 1.3-9.1.7-1.9 1.1-4 .8-4.7-.6-1.8-3.2-1.4-4 .5q-.7 1.8-1.2-3.2t-2-5.1q-5.9-.8-5.3-3.2c1.2-3.8 3.9-8.9 6-11.3a40 40 0 0 0 6.3-15.8c0-5.3-6.5-1.5-7.6 4.5q-.6 3.2-4.5 6.4a21 21 0 0 0-8 16.4c-.1 3.1-.7 6.7-1.5 8.1-1.1 2.1-1 2.7.2 3.9q2.9 2.8-.5 2.6-1.8 0-2.6 1-.6.8-2 .3t-1.5.6q0 1-2.5.5-2.3-.4-2.5.3c0 1.6-20.5 1-22.4-.6-1.3-1.1-2.2-1.1-3.9-.3-4.2 2-6.3 2-7.6 0q-1.1-2.2-2.6-.8c-.7.6-1.9.9-2.6.8q-1.3-.2-1.7 2.1l-.4 2.3-1.4-2.1a6 6 0 0 0-4-2.1c-2.3 0-2.4-.3-2.4-5.8.1-5.5.1-5.6 1.5-3.1 1.4 2.6 5.6 5.9 7.4 5.9 1.6 0 2.4-8.6 1.2-12.1-.9-2.7-.8-3.7.6-5.8q3.2-5.1 6.9-5.1c1.2 0 3.9-2.2 6.8-5.5l4.8-5.6-.7-7.4c-.6-5.6-.3-8.6.9-12.2 2.4-7.5 4.4-14.5 5.1-18.3 1.2-6.6 1.5-7.1 4.3-6.9 6 .5 7.3 0 8.3-3.1.6-1.7 1.5-3 2.1-3 .5 0 .7 1.3.3 3m-90.7 24.7c.6 1.2 1.2 2.6 1.2 3.2 0 2.1-1.6 1.1-3.5-2.1a30 30 0 0 1-1-18.3c.7-1.5 1.1.1 1.5 6.5.3 4.7 1.1 9.5 1.8 10.7m70.1-11.3c-.1 4.9-1.4 8.9-2.2 6.6-.3-.8-.8-4.4-1.2-8l-.6-6.4 2 1.8c1.5 1.4 2.1 3.1 2 6m-41.2 2.4q1.2.7-1.3 1.9c-2.1 1-2.4.9-2.4-.8 0-2 1.6-2.4 3.7-1.1m9 3.8c.2.5-.3 1.9-1.1 2.9-1.4 1.9-1.5 1.9-2.1.2-.4-.9-.4-2.4-.1-3.3.6-1.6 2.7-1.5 3.3.2M69 222.5q-1.2 1.4-1.9 1-.4-.6.9-1.5 3.1-2 1 .5m189.7 5.2q1 .2 1.8-1.6c.9-2.9 1.8-2.6 3.9.9 2.8 4.9 2.5 21-.5 21-.5 0-.9-1.2-.9-2.6 0-3.9-2.1-2.5-5 3.2-3.1 6.2-8.3 13-8.8 11.5-.2-.6 1.1-3.1 2.9-5.6 3.2-4.5 3.3-4.6 2.2-10.8-.9-5.6-.8-6.5 1-9 1.6-2.4 1.8-3.3.8-5.3-1.3-2.9-1.4-6.7-.3-7.8.4-.4.9.7 1.2 2.5s1 3.4 1.7 3.6m-34.7 0c0 .9-.5 3.1-1.2 4.9-1 2.7-.9 3.7.6 5.9 2.3 3.4 1 4.8-1.5 1.6-1.9-2.3-2.6-9.1-1.3-12.5.8-2.1 3.4-2 3.4.1m21 4.4c0 2.2.7 5 1.4 6.2a21 21 0 0 1 2.2 6.7l.6 4.5-3.2-5c-3.2-4.9-3.6-6.5-3.2-13.8.3-5 2.2-3.8 2.2 1.4m-174 2.3q-.2.3-1.5 1-1.3.4-1.5-.4.2-1 1.5-1c1.3 0 1.5.2 1.5.4m161.3 2.6c-.3 1.1 0 2.7.7 3.5 1.7 2-.4 2-2.4-.1-.9-.8-1.5-1.9-1.3-2.2l1-2.5c.9-2.4 2.7-1.2 2 1.3m48.3 9.6c-.4 1.8-1 3.4-1.5 3.4-.9 0-1.3-9.9-.4-11.4 1.1-1.8 2.5 4.4 1.9 8m-40.6-1.4c1.1 1.3 2.2 3.6 2.6 5.3 1 4.6 1.4 4.8 4 2.4q2.3-2 2.4-1c0 2.4-2 5-5 6.4-2.5 1.3-3.1 1.3-4.1.1-.6-.8-.9-2.8-.7-4.4.7-4.9-.9-4.5-3.7 1-1.4 2.7-3 5-3.5 5-1.5 0-1.3-.7 2.1-7.6 2.6-5.2 2.9-6.6 1.9-7.9q-1.5-1.6.5-1.5c.9 0 2.5 1 3.5 2.2m14.7 19.7c0 2.2-.5 3.7-.9 3.5-1.1-.7-1-7.4.1-7.4.6 0 .9 1.8.8 3.9m-8.4 4.7c5.6 5.4 7.5 9 6.4 11.8q-.4 1.6-6.6-4.4c-5.9-5.6-8.7-10.2-7.5-12.1 1-1.6 2-1 7.7 4.7M74.5 288c-.3.5-1.2 1-1.8 1q-1 0 .3-1 2.8-1.8 1.5 0m2 25c-.3.5-1.2 1-1.8 1q-1 0 .3-1 2.8-1.8 1.5 0m372.4 30.2c.4 1.3 1 4.6 1.3 7.5.5 5 .4 5.1-2.4 5.7-3.6.7-3.7 2.8-.1 2.4 2.7-.3 2.8-.2 3.9 7 .9 6 .9 7.5-.3 7.9-1.8.7-1.7 2.3.2 2.3q1.3.1 1.5 1.1-.2 1-2.2.7c-1.9-.2-2.8-1.9-5.5-10.3-1.8-5.5-3.3-10.3-3.3-10.7s1.4-.9 3-1.3c3.2-.7 4.1-2.5 1.3-2.5-1.6 0-1.6-.1 0-1.3 1.4-1 1.5-1.8.6-5-.9-3.5-1.3-3.8-4-3.3l-6.1 1.2-3.3.5 2.7-1.5c2.8-1.5 5.6-2.2 9.6-2.5q2.2-.1 3.1 2.1M135 351.6c1.2 1.2.5 1.4-5 1.3-3.6 0-8.7-.7-11.5-1.4l-5-1.4 6 .3c3.3.2 7.1.7 8.4 1.1 2.1.7 2.3.6 1.8-.9q-1-2 1.6-1.1c1.2.4 2.9 1.3 3.7 2.1m306.7.3c.7 1 .9 2.1.6 2.4-.8.9-4.3-1.6-4.3-3 0-2 2.4-1.5 3.7.6M143 354.8c-2 .7-4-.7-3.4-2.3.6-1.4.9-1.4 2.6.2q1.8 1.6.8 2.1m224.1-.8q1.9.1 2.9 2.5c.5 1.4 2.2 3 3.7 3.6q5.2 2 9.3 10.8c2.3 5 2.3 5.1 1.1 5.1q-.9-.2-1.4-2-.6-1.8-1.6-2-1.2-.2-.5 6.7c.8 8.1-.6 7.6-2.6-1-1.1-4.7-1.1-6.3-.1-7.8 1.5-2.5.5-4.5-1.5-2.8q-1.3 1.3-1 2.5t-2 1.8q-4 1.1-1.4 8.2c1.5 3.8-.9 5.4-2.8 1.9-.7-1.4-2.2-2.5-3.3-2.5-2.7 0-7.2 4.9-5.9 6.5q1.1 1.2-1.6 2.3c-3.6 1.7-3.8 1.5-2-1.3 1.6-2.4 1.5-2.5-.9-3.1-4.5-1.1-3.1-2.2 8.3-6.4q3.4-1.4 5.2-5 2-3.7 3.7-3.6 1.7 0 1.7-1.2l-.2-3c-.1-1-1.6-2.8-3.3-4.1-3-2.2-3.1-2.2-3.6-.3-.3 1.1-1.4 2.3-2.5 2.5-1.7.5-1.9 1.1-1.4 4q1.2 6.7-2.7 6.7c-3 0-12.5 6.8-14.3 10.1-1.8 3.6-1.8 5.3.2 9 1.4 2.8 1.4 3.3-.5 6.5-2.6 4.3-2.7 8-.4 9.3 2.9 1.6 5.3-.5 5.3-4.4 0-4.2 5.5-10.9 9.8-11.8 1.5-.4 4.3-2.1 6.1-3.9q3.4-3 2.8-1.5c-.4 1-.7 2.3-.7 2.8s-.5.9-1.2.9c-1.9 0-4.8 3.2-4.8 5.2 0 1.5-.3 1.7-1.9.8-2.5-1.3-3.1-1.3-3.1.1q-.2 1.2-1.7 2.4c-1.3.9-1.8 3.2-2.1 8.3-.3 5.5-.7 6.9-1.8 6.5q-1.4-.4-2 1.1c-.3.9-1.5 1.6-2.7 1.6-1.9 0-1.9-.1-.3-1.9 1.9-2.1 1.4-4.1-.9-4.1-.8 0-3 1.6-5 3.5-2.8 2.8-3.4 4.1-2.9 6q.6 2.4-.5 2.5c-.6 0-1.1-1.1-1.1-2.5q.2-6-8.2-.3c-6.8 4.4-8.5 5-9.2 3.2q-.4-1.3.9-1.4c1.3 0 3.5-2.9 3.5-4.7 0-.4-1.5-1.6-3.3-2.7l-3.2-1.8 2.4-.9c2.1-.8 2.3-1.4 1.7-4.7l-1.2-6c-.4-1.2-.2-2.2.2-2.2 1.3 0 3.4 7.3 3.4 11.4q.2 6.2 5.9 5.8c3-.4 6.1-3.6 6.1-6.3q.2-1.9 2.3-2.8c2.1-.8 2.4-1.6 2.4-7q.2-9.7-3.1-1.8l-1.4 3.2-.1-3.4q0-3.4 3-8.3c3.3-5.2 3.3-7.3-.1-4.3-1.8 1.6-1.7 1.2.5-2.8 1.5-2.6 2.4-5.1 2-5.6-.7-1.3 3-3.7 7-4.7 1.7-.4 3.8-1.4 4.8-2.2 1.8-1.6 2.3-4.7.9-5.6s-12.3 5.2-17.8 10c-4.7 3.9-5.2 4.2-5.7 2.4-.7-2.8-1.8-2.5-5.6 1.4-3.3 3.4-4.1 6.9-2.6 11.5.6 2.1.5 2.2-1.7 1.6-1.2-.4-2.7-1.1-3.2-1.5-1.3-1.3 1.4-11 3.5-12.3 1.1-.7 1.9-2.1 1.9-3.2s.7-2.9 1.5-3.9c1.2-1.6 1.7-1.7 3-.6 1.6 1.4 1.8 1 1.5-3.4-.2-2.6 0-2.8 2.4-2.2 2.2.5 2.6.3 2.6-1.4 0-2.3 1.5-2.7 2.4-.5 1 2.6 2.9 1.7 2.2-1-.8-3.1 1.9-3.6 2.9-.5.3 1.1 1.3 2 2.1 2 1.2 0 1.3-.8.8-3.5-.5-3-.4-3.4 1-2.9q1.5.6 1.6 1.9c0 .6.9 2 2 3 1.7 1.5 2 1.6 2.5.2q.7-1.4 2.6-1 2 .6 1.9-1.1 0-1.6.9-1.2c.4.3 1.9-.6 3.2-2 1.2-1.3 2.9-2.2 3.7-1.9.7.3 2.2.5 3.3.5m-245 3.4c1.7 1.4 4.1 2.6 5.4 2.6q2.6 0 1.9 1.5c-.4.8-.1 2.1.5 2.9.9 1.1.7 1.5-1.1 2-1.3.3-3.3.6-4.6.6-5.2 0-3.5 3 7.8 13.8 10.9 10.3 11.3 10.8 9.9 13-1.2 2.1-1.9 2.3-5.8 1.8-3.2-.4-4.7-.2-5.5.9q-1.1 1.5-2.5.6c-1.2-.8-1.2-1.3.3-3.6q1.8-2.9 2.9-1.6c1.5 1.5 4.2 1.4 5.7-.3 2.8-3.4-10.9-16.7-15.4-15-.8.3-2.8-.3-4.3-1.3-1.5-1.1-4.6-2.8-6.8-3.8s-3.5-2-2.8-2.2c.6-.2 3.3 1 6.1 2.6q8.4 5.3 6.7 1.3c-.4-.9-1.1-3.4-1.5-5.5-.6-3.2-.4-4 1.6-5.6 3.2-2.5 3-2.9-1.2-4.7-3.2-1.4-3.8-1.4-5.3 0-1 .9-2.3 1.6-2.9 1.6q-1.1.1-1.2 1.5 0 1.5 3.3 1.6c1.8.1.6.5-2.8.9-3.3.4-7.5 1-9.2 1.4-2.6.6-3.3.4-3.3-.7 0-1.8 3.2-4 8.2-5.6 2-.7 4.2-1.9 4.9-2.7 1.8-2.2 7.2-1.2 11 2m30.5.1c2.6 2.8 4 3.5 6.9 3.5 4.4 0 4.3 2 0 3.2-2.6.6-3.5.3-6.8-3-4.5-4.3-6.3-7.2-4.6-7.2.6 0 2.6 1.6 4.5 3.5m-10.5 4.9c2.9 1.2 10.1 7.5 7.4 6.5a53 53 0 0 1-11.5-7.2c0-1 .2-.9 4.1.7m4.2 17c-.3 2-.1 3.6.6 4q1 .7 1.1 1.9c0 .6-2-.8-4.4-3.2s-4.2-4.9-4-5.5c.3-.7-.7-2.3-2.1-3.6q-6.1-5.9 3.4-.4c5.7 3.4 5.9 3.7 5.4 6.8m35.7-7.2q-.1.9-1.5-.2c-1.4-1.1-1.5-1.7-1.5-2.2q.1-.9 1.5.2c1.4 1.1 1.5 1.7 1.5 2.2m-97 4.9q-1.2 1.8-1.7 1.5-.4-.6.7-2.1 2.8-3.1 1 .6m22.3.2c4.2 1.8 15.1 10.7 14.2 11.5-.3.3-2-.8-3.8-2.5a25 25 0 0 0-5.5-4.2 33 33 0 0 0-12.3-3.5c-.4.2-2.2-.4-3.9-1.5l-3.2-1.9 5.4.2c2.9.2 7 1 9.1 1.9m-12.5 2.9c1.7 1.7-.5 5.3-2.4 3.7-1.8-1.4-1.8-4.9-.1-4.9q1.2 0 2.5 1.2m71.1 2c-.2 1.8.5 4.8 1.5 6.7q1.8 3.3.5 2.9c-.7-.2-2.4-2.5-3.8-5.1-2.4-4.6-2.5-4.7-.5-6.2 2.5-1.9 2.5-2 2.3 1.7m145.7-.7q-.6 1.4-1.6 1-1.1-.7.1-2.1c1.4-1.8 2.4-1.1 1.5 1.1m144.1 9.6c1.2 10.6 2.7 22.3 3.7 27.6.4 2.3-1.9 5.1-3.2 3.8q-.5-.7.6-1.2c1.9-.7 1.4-2.3-.8-2.3-2.4 0-2.6-1.3-.5-3q1.3-1.2 1.5-2.2-.2-1-1.5-.4c-1.8.6-2-.5-.3-2.2q1.3-1.2-.5-1.8c-2.1-.8-2.2-4-.2-4.8 2.2-.8 1.8-2.6-.5-2.6s-2.6-1-.8-2.8c.9-.9.8-1.5-.8-2.7-1.9-1.5-1.9-1.5 0-2.6s1.9-1.2.1-2.5-1.8-1.4.1-2.9c1.9-1.4 1.9-1.4-.3-1.5-2.7 0-4-1.8-1.9-2.6 2-.8 2.1-2.4.1-2.4q-1.4 0-1.5-.9c0-1 2.8-2 4.5-1.6.5.1 1.5 5.3 2.2 11.6m-120.8-6.7c-1.2 2-2.4 3.5-2.6 3.2s.5-2.1 1.7-4.1c2.9-4.7 3.7-3.9.9.9m54.1-1.3q0 .8-1 .9-.9-.1-1-1.6.1-1.3 1-.9 1 .6 1 1.6m-211.6 2c3 3.6 6 8.9 5.3 9.5-.7.7-9.7-9.7-9.7-11.2q.1-3.4 4.4 1.7m-68.7 1.1 2.8 1.2-4 .6c-2.9.4-4.3.2-5.2-.9-2.9-3.4-.4-3.8 6.4-.9m202.3 4.4q0 2.3-1.5 2.4-2.4-.2-.9-4.4c.9-2.2 2.4-1 2.4 2M95 390q1.2 2 0 4.1c-1.4 2.5-1.6 2.4-2.3-2.4-.6-4 .6-4.9 2.3-1.7m22.6 4.8c-.9.8-4.6-2-4.6-3.5 0-1.3.5-1.2 2.5.7q2.3 2.2 2.1 2.8m84.9-3.4q2 1.2 2.2 6.3c.1 2.7 1.2 7 2.3 9.4 1.4 3.2 2 6.6 2 12.6 0 9.1-1.5 11.1-2.5 3.5a243 243 0 0 0-6.4-30q-2.8-5.5 2.4-1.8m178.8 3.8q-.6 2.4-1.4 2.3c-.4-.3-.3-1.7.3-3q2.1-4.6 1.1.7m-79.6 7.7q-2.1.9-2-4.4c.2-5.8 1.7-6.5 2.3-1 .3 2.7.1 5.2-.3 5.4m30.3-6.8c0 1.1.5 2.9 1 3.9q1 2 0 2.5-1 .3-2-2c-1.3-3.4-1.3-7.8 0-7 .6.3 1 1.5 1 2.6m-226.6.8a27 27 0 0 0 12.5 6.1c2.8 0 4.7-2.8 3.4-4.9-.9-1.5-.7-1.7 1.8-1.3 1.6.2 2.9 1 2.9 1.7s.7 1.8 1.5 2.5c2 1.7 1 3-2.4 3-1.6 0-4 .9-5.4 2-3.3 2.6-4.1 2.5-5.5-.5-.6-1.4-2-2.5-3-2.5-2.6 0-11.4-5.8-10.7-7 1-1.6 3-1.2 4.9.9m117.7 1.4q-1.5 1.4-.5-.6.6-1.6 1.2-1.2.4.6-.7 1.8m46.9 1.3c0 2.3-.1 2.4-1.6.9-.9-.8-1.3-2.2-1-3.1.8-2.2 2.6-.7 2.6 2.2m7-2.2q-.1 1.3-1.5 2c-1.5.5-2.1-1.4-.8-2.7 1.1-1.2 2.3-.8 2.3.7m-184.3 2.8q-.5 1-.5-1.2c0-2.2.2-1.9.5-1.3.2.7.2 1.9 0 2.5m41.5 2c-1.5 1.5-2.6.4-1.8-1.8q.6-2 1.8-.6c1.2 1.4.9 1.5 0 2.4M177 401q.9 1.8.6 2-.6-.2-1.6-2t-.6-2q.6.2 1.6 2m53.4 2.4q-.6 1.4-1.6 1-.7-.6.3-2c1.5-1.8 2.2-1.3 1.3 1m-35.9 5.8c-.7 3.9-.9 4.1-1.8 2-.7-1.6-.7-2.9.3-4.7q2.7-5.1 1.5 2.7m99.5 7c0 2.1-3.3-1.7-5.1-6q-4.3-10.3 1.6-.9a35 35 0 0 1 3.5 6.9m-140.4-5q-1.8 1-1 3.1 1 2.7-1 .8c-1.8-1.5-2.2-4.1-.5-4.1q1-.1.6-1.4c-.8-2 1.6-2.7 2.7-.8q.9 1.5-.8 2.4M263 408q0 .9-.4 1-.5-.1-1.1-1-.4-1 .4-1 1 0 1.1 1m53.3 1.4q.6 1.5-.9.9c-1.5-.6-1.9-2.3-.5-2.3q.9.2 1.4 1.4m-179 4c.9.7 1.7 2 1.7 2.8s2.3 3.8 5.1 6.8c2.8 3.1 5.3 6.8 5.6 8.5.6 2.9.5 2.9-2.5-1.2a36 36 0 0 0-4.2-4.8c-.7-.4-1.8-2.1-2.5-3.9-1.1-2.6-1.9-3.1-4.6-3.1-1.9 0-3.4-.6-3.7-1.4q-.6-1.4 1.7-.8c2.8.7 3.9-1.3 1.6-3q-1.7-1.2-.9-1.3c.5 0 1.7.7 2.7 1.4m87.6 4.8c-2.7 1-3 .8-2.2-2 .5-2.2.6-2.2 2.5-.5s1.9 1.7-.3 2.5m25.6-3.3q.4.9-.5 1.6-.9.4-1-.9 0-2.7 1.5-.7M87 416.4a6 6 0 0 0 3.3 1.8l2.2.3-2.2.7q-2.1.7-4.4-1.8c-1.2-1.3-1.8-2.4-1.2-2.4q1 .1 2.3 1.4m174 .5c0 2.2-6.3 7.7-6.9 6-.2-.6.6-2.1 1.8-3.3s2.1-2.8 2.1-3.4q.1-1.1 1.5-1.2c1.4-.1 1.5.9 1.5 1.9m109.5-.9c-.3.5-1.3 1-2.1 1s-1.4-.5-1.4-1q.1-1 2.1-1 1.8 0 1.4 1m-100.2 2c-.7 2.8-2.3 3.6-2.3 1.1 0-1 .6-2.2 1.3-2.4l1.4-.6zm-27.5.4c2.9.1 2.8 2-.3 4q-2.7 1.9-2.5.3a4 4 0 0 0-1.1-2.4c-1.5-1.5-5.6.3-6.4 2.9q-.7 1.6-1.6 1.8c-1.3 0-1.2-.4 1.2-4.5 2-3.3 2.4-3.5 5.3-2.9 1.7.5 4.1.8 5.4.8m158.9.8q-.5 1.1-.6-.6t.5-1.3q.5.6.1 1.9m-91.8 7.2c.6 2.7.9 5.1.7 5.4q-.5.4-.9-.9l-1.6-5c-.6-1.9-1.1-4.6-1-6q-.1-3.2.8-.4a48 48 0 0 1 2 6.9M161.5 420q.4.9-.4 1-1-.1-1.1-1 0-1 .4-1 .6 0 1.1 1m219.5 6.1c.6 2.1.9 4.1.8 4.6s.1 1.8.6 3.1q.7 2.2-.8 3.7-2.6 2.7-2.6.2c0-.7-.6-1.9-1.2-2.6-.8-.7-1.3-4-1.3-8.6 0-6.9.1-7.3 1.8-5.8.9.9 2.2 3.3 2.7 5.4m-194.3-3.9q-.5 1.1-.6-.6t.5-1.3q.5.7.1 1.9m13.2 3.3v2l-.9-2c-.5-1.1-.9-2.9-.9-4v-2l.9 2c.5 1.1.9 2.9.9 4M361 422q-.2.9-2 1t-2 1.7a6 6 0 0 1-.9 3.2c-.8 1.2-1.2 1.2-2.6-.2-.9-1-2.4-1.7-3.3-1.7q-1.6 0-.6-.8a5 5 0 0 0 1.6-2.3c.7-1.8 9.8-2.6 9.8-.9m-236 1.5q4.2 1.5 5.9.6c1.3-.7 2.6.2 6.4 4.4s4.3 5.4 2.9 5.8l-3.5 1.2q-1.9.9-1.1-.9c.6-1.5-4.7-7.6-7.1-8-3.1-.6-8.5-2.9-8.5-3.7 0-1.2 0-1.2 5 .6m164.4 1.7c.3 1.3.6 3.4.6 4.7 0 2.4 0 2.4-1.5.5-1.6-2.1-2-7.4-.6-7.4q.8.2 1.5 2.2m39.7 2.3q-3.1 3.6-3.1 6.9c0 2.8-.5 3.6-3 4.6q-6.7 2.9-3.6 5.3c1.5 1.1 1.4 1.5-1.4 4.2-1.6 1.6-3 3.2-3 3.6s-1.4 2.2-3.1 4c-2.7 2.9-2.8 3.4-1.5 4.8 1.4 1.3 1.8 1.2 4.1-.9 1.4-1.3 2.5-3.1 2.5-3.9 0-.9 1.6-2.7 3.6-4 3-2.1 3.5-2.9 3-5.2q-.5-2.8 1-3.3c2.6-1 3.4-.7 3.4 1.3 0 2.9 3.8 14 6 17.6s2.8 7 .6 4c-1.3-1.8-1.5-1.8-4-.2-3.4 2.3-6.7 8.7-5.9 11.8.4 1.3 1.6 3.7 2.8 5.4q6 8.2-.6 1.7-6.7-6.3-6.9-3.1c0 .6 1.4 2.4 3.1 4s2.9 3.3 2.5 3.6-1.9-.6-3.4-2q-5.8-5.5-4.7.3c.4 1.7.2 3-.3 3-2.1 0-2 3.1 0 5q2 1.8 1 2-1-.1-1.7-1c-.3-.6-1.6-1-2.8-1-1.8 0-1.5.6 2.3 4.5q7.1 7.4-.2 2.4c-3.6-2.6-4.9-1.7-2 1.4 2.6 2.8 2.8 4.7.6 4.7q-1.5 0-1.1-1.5c.8-1.9-.8-2.8-3.3-2-3 1-2.8 8.7.3 11.2 4.9 4 5.1 5.4.3 2.7-2.5-1.4-4.8-3-5.1-3.5q-.6-.8-1.6-.9c-1.7 0-.9 2.2 1.6 4.2 3.4 2.6 2.2 4.3-1.5 2.1-3.6-2.1-5-1.1-2.4 1.8l1.9 2.2-3.3-1.7c-4.5-2.3-5.5-1-1.7 2 3.9 3.1 2.4 3.1-2.3-.1q-3.6-2.6-4.7-1.4-1 1 .9 2.4c2.1 1.6 1.3 3.7-1.1 2.8q-1.7-.7-.9.6c.5.7.1 2-.7 2.9-.9.9-1.6 2.1-1.7 2.7q-.3.9-2.1.8c-2-.3-2.6 1.1-.9 2.2.5.3 1.5 1.5 2 2.5q1.3 2.2-.5 1.4c-2.6-1-1.7 2.3 1.2 4.4 3.4 2.5 2.3 4.1-1.1 1.8-4-2.5-5.2-1.9-2.3 1.2 1.5 1.5 2.7 3 2.7 3.3s-1.6.3-3.5.1c-2.8-.3-3.5-.1-3.5 1.4a7 7 0 0 1-1.7 3.6c-1.4 1.5-1.5 2.3-.5 3.8 1.1 1.8 1 1.8-1.8.2-4.1-2.4-5.1-.6-1.4 2.6 5.5 4.9 6 6.6.8 2.9-5.6-4-6.4-4.3-6.4-2.4 0 .7 2 3 4.5 5.1s4.3 4.2 3.9 4.7q-.7 1-3.3-1.3c-4.2-3.9-8.2-6.1-9.2-5.1q-.7 1.1 4 4.9c6.1 4.7 6.8 6.6.9 2.4-4.5-3.3-5.8-3.7-5.8-1.7 0 .7 1.8 2.6 4 4.3s4 3.2 4 3.6c0 1.2-.3 1-4-1.7a17 17 0 0 0-4.2-2.5c-1.7 0-.7 2.5 2 4.6 3.8 3.1 2.2 4-2.2 1.3q-3.7-2.3-4.8-1.1-1 1 1 2.1c3.1 1.6 5.3 4.1 4.6 5.2-.3.6-2-.1-3.9-1.5-4.6-3.5-7.7-3.3-4.2.3 1 1.1.6 1.2-2.1.6-2.6-.5-3.3-.3-3.9 1.2-1 2.9-4.1 6.4-4.7 5.5-.3-.5.3-1.7 1.4-2.7 1-.9 1.6-2.3 1.3-3.1s.3-2.1 1.3-2.9q2-1.4.8-2.5c-1.2-1.1.4-2.7 4.7-7 3.3-3.2 5.9-6.4 5.9-7 0-.7 1.3-2.9 2.9-4.9s3.6-5.1 4.5-6.9c2.4-4.6 10.5-28 9.9-28.6-.2-.2.8-3 2.3-6.1 2.2-4.4 3.2-5.5 4.7-5.1 4.7 1.2 7.3-7.4 4.6-15.3-.9-2.5-.8-3.5.3-4.9q4.5-5.6 2.6-10.3c-.7-1.6-1.9-2.9-2.6-2.9-1 0-1.2-1.1-.6-4.8.7-4.9 2-9.2 2.8-9.2.3 0 .3 1.1 0 2.4-.4 2.6 1.6 4.9 3.7 4.1.8-.3 2.4-2.3 3.7-4.5 2.1-3.7 2.2-4.2.7-6.2-2.3-3.4-1.9-4.6 3-9 4.4-4 7.5-10.7 7.5-16.3q0-2 2.8-3.1a5 5 0 0 0 3.5-4.2c.7-3.5 4.5-7.5 6.5-6.7q1.2.3 1.9-1.1c.5-1.4 3.5-3.2 5.7-3.3.4-.1-.6 1.5-2.3 3.4m130.9-1.1c0 1.5-3.7 3.2-4.7 2.2-.9-.8 1.7-3.6 3.3-3.6q1.3.1 1.4 1.4m-391.5 8.3c1 1.5 2.7 3.5 3.8 4.4 1.8 1.4 2.4 1.4 4.8.2 1.6-.8 3.1-1.8 3.4-2.3.9-1.4 9.7.1 12.2 2q2.5 1.8 1 2.9-2.2 2.4-3-.8c-.6-2.5-8.5-4-10.1-1.9-.6.8-1.9 1.7-2.8 2.1q-1.6.7-1.8 2.2 0 1.5-3 1.5c-1.6 0-3 .4-3 1q0 2.9-4.2-2.9a15 15 0 0 1-1.7-14.8l1.2-2.8.7 3.2c.4 1.8 1.5 4.5 2.5 6m26.7-6.5c-.6.6-1.5.8-1.9.4q-.5-.7.7-1.6c1.9-1.2 2.7-.3 1.2 1.2m141 2.5q-4 2.8-4.2-1.1c0-2.3.2-2.4 2.9-1.3s2.8 1.2 1.3 2.4m97.2-.9c-.4 2.1.1 3.6 2 5.9q4.3 5.2 1.3 5.3c-3.5 0-6.1-6.4-4.5-11.1q2.1-5.6 1.2-.1M197 434.2l1.6 8c.6 2.6.4 2.8-2.2 2.8-4.4 0-9.6-3.6-9.2-6.3q.3-2.1 2.2-2.2 1.8 0 2.3-1.2.6-1 1.9-.6c1.1.4 1.4-.4 1.4-3.3 0-5.1 1-3.8 2 2.8m48.1-4.8c-.7.8-1.6 4.3-2 7.8l-.8 6.3-.2-5.2c-.1-5.3 1.4-10.3 3.2-10.3q.7.1-.2 1.4m95.6 1.6c1.4 0 1.4.2-.3 1.5-2.8 2.1-3.4 1.8-3.4-1.8.1-2.6.2-2.9 1.1-1.5.5 1 1.7 1.8 2.6 1.8m-40.8 2.3q0 .7-.9.2c-.5-.3-1-1.6-.9-2.8q-.1-3.1.9-.2c.5 1.1.9 2.4.9 2.8m51.6-3.3c-.3.5-1.4 1-2.3 1q-2.2.1-.2-1c2-1.3 3.3-1.3 2.5 0m12 .1c.4.5 0 1.8-.9 2.8s-1.6 2.3-1.6 2.9c0 1.1-4 .8-6.3-.5-1.4-.8.4-2.3 2.7-2.3q2.4 0 2.9-2c.6-2.2 2.2-2.6 3.2-.9m29.5.3c0 .8-.4 1.8-1 2.1q-.9.3-1-1.4.1-2 1-2.1 1 .1 1 1.4M113.5 433a14 14 0 0 1 1.5 5c0 3.2-2.9 8-4.8 8-.9 0-2.3-.9-3-2.1-1.1-1.7-.9-2.4 1.3-5.1 2-2.4 2.5-3.7 2-5.9-.9-3.8 1-3.8 3 .1m232.8-2.3c-.7.2-1.9.2-2.5 0q-1-.5 1.2-.5c2.2 0 1.9.2 1.3.5m115.1.2q.4.9-.9 2.1c-1.3 1-1.5.9-1.5-.9 0-2.1 1.4-2.8 2.4-1.2M181 434.4c0 1.8-5.6 8.7-6.4 7.9-1-1-.7-4.5.4-3.8 1.7 1.1 3.1-.5 2.1-2.3q-1-1.6.7-2.8 3-2 3.2 1m189-1.5c0 .5-1.1 1.1-2.5 1.3q-2.9.7-1.4-.8c1.3-1.6 3.9-1.9 3.9-.5m-118.8 2.6q-.4 2.3-.8 2.5c-.4.2-.4-1.1-.4-2.5s.4-2.5.9-2.5.6 1.1.3 2.5m9.8-.5c0 2.2 5.2 12.8 10.8 22.2 2 3.3 3.2 6.6 3 8-.3 1.9-.6 1.4-2-2.3a50 50 0 0 0-6.3-11c-5.8-7.7-8.8-14.3-8-16.9s2.5-2.6 2.5 0m86.8-.1q1.7.9-.3 1.5c-1.9.7-3.5 0-3.5-1.5 0-1.1 2-1.2 3.8 0m51.2.1q-.1.9-1.1 1-.8-.1-.4-1 .6-1 1.1-1 .4 0 .4 1m63 3.5c-1 1.2-1.6 1.3-2.7.3-1.3-1-1.2-1.4.3-2.5 2.4-1.7 4.2 0 2.4 2.2M235.2 441c.1 2.8.2 5 0 5s-1.4-1.2-2.7-2.8c-3.7-4.2-3.2-6.2 1.7-7.1.3 0 .8 2.2 1 4.9m216.8-4q0 .9-1 1a1 1 0 0 1-1-1q.1-1 1-1t1 1m-167 2.1q0 .9-1 .4t-1-1.6q.1-.9 1-.4a2 2 0 0 1 1 1.6m-153-.6c0 .9-8.2 4.6-9.3 4.2-1.5-.5 5.2-4.7 7.6-4.7q1.5 0 1.7.5m32.4 4a101 101 0 0 1 19.1 21.4c6.3 12.4 13.5 37.2 12.8 44.6-.4 4.2.2 6.4 3.3 13.5 2 4.7 3.8 10.3 4 12.5a40 40 0 0 0 5.8 15.5 7 7 0 0 1 1.1 8c-1 1.9-1.3 2-1.8.6a2 2 0 0 0-2.2-1q-1.5.6-1.3-.7t-1.9-1.2c-2.7.3-3-.9-.8-2.7 2.6-2.2.1-3.4-3.3-1.6-3.6 1.9-4.2 1.9-4.2.6 0-.5 1.3-1.6 2.9-2.5 2.4-1.2 2.9-2 2.7-4.2-.4-3-1.7-3.3-6.6-1.9l-2.5.7 2.8-2.4c3-2.5 2.7-4-.8-3.1-2 .5-2.2.2-1.8-2 .6-3-.8-3.3-5.1-1.1-4.5 2.4-4.2 1 .3-1.6 4.3-2.4 5-3.9 2.7-5.8q-1.5-1.3-3.5-.2-4.5 2.4-1.7-.8c1.7-1.8 1.7-2-.1-3-1.7-1-1.7-1 .3-1.1q5.4 0 3.4-7-1.9-6.8-5.6-3.9c-1.2 1-1.4 2.4-1 5.4.2 2.2.3 3.4 0 2.7s-1.6-1.2-2.8-1.2-3.3-1.4-4.8-3c-1.4-1.7-2.3-3-2-3s-.9-1.6-2.8-3.5c-3.2-3.3-3.5-3.4-5.7-2-2.3 1.5-3.2.8-1.4-1.1q.9-1-.2-5.2c-.8-3-1.9-4.5-3.8-5.4-1.6-.7-3-2.1-3.3-3.1-.4-1.5-1-1.8-3-1.3-3.2.8-3.2.4-.1-3 3-3.2 3-3.6.6-5.8-1.5-1.3-2.4-1.4-4.6-.6-2.3.9-2.6.8-2.1-.5.8-2.3-2.2-3-4.3-1.1-3 2.7-3.7-.1-1-3.2q6.1-7.1 5.9-2.2c0 2.4 1.3 2.6 3.1.4.7-.9 3.4-2.6 6.1-3.9 4.1-2 4.9-2.1 5.9-.8 1.6 1.9 5.3 1.3 5.7-1 .4-2-4.9-7.7-7.3-7.7-.9 0-3.2 1.2-5.1 2.7-2.9 2.2-3.7 2.4-4.5 1.2-.5-.8-.6-2.1-.3-2.9 1-2.8.9-3.5-.6-3.1-.8.3-3.2.4-5.2.3-2.1-.1-3.8.2-3.8.7s1.1 2.5 2.5 4.4c2.3 3.5 2.4 3.7.5 4.7-4 2.2-7 .4-3.2-2q1.8-1.2.5-1.6c-.7-.3-1.3-1.4-1.3-2.4s-.9-2.1-1.9-2.5c-2.1-.6-3.6-3.8-2.7-5.4.3-.5 1.8-1.2 3.2-1.5 2-.5 3.3-.1 5 1.5 3.2 3 5.6 1.9 5.3-2.5-.2-1.9 0-3.8.4-4.2q2.2-2.7-2.5-1.9l-3.3.6 2.9-1.7c2.4-1.3 3.3-1.4 5.2-.4q4.8 2.7 6-3.4c.3-2 1.1-3.6 1.8-3.6s3.3 1.6 6 3.5m133.6-2.3c-.1 1.5-6.6 5.9-7.4 5-.3-.3.8-1.3 2.4-2.3 1.7-1.1 3-2.3 3-2.9q.1-.9 1-1 1 .2 1 1.2m65 .2q-.1 1.4-1.6 2-4.6 1.6-1.9-1.4 3.3-3.5 3.5-.6m103.8.4c.5 1.5-2.3 2.6-4.5 1.8-1.4-.6-1.4-.8.3-2.1q3.2-2.4 4.2.3M101 441q0 .9-.9 1-1-.1-1.6-1-.4-1 .9-1 1.5 0 1.6 1m45.5 0c.9 1.5-5.7 5.2-7 3.9q-1-1.2.1-1.6c.6-.2 2-1 3-1.8 2.3-1.7 3.1-1.8 3.9-.5m141 1.9q.4.9-.5 1.6-.9.4-1-.9 0-2.7 1.5-.7m109.1 2.8c-.7 1.7-.8 1.7-1.7 0-1.2-2.1-.2-4.4 1.3-2.9.6.6.8 1.9.4 2.9M181 444.5c.7.8.9 2.3.5 3.2-.6 1.6-.8 1.6-2.6-.6a10 10 0 0 1-1.9-3.2c0-1.4 2.6-1 4 .6m62.7 2.7q-.5 1-.5-1.2c0-2.2.2-1.9.5-1.3.2.7.2 1.9 0 2.5m-141.7-.1q0 .8-1 .9-.9-.1-1-1.6.1-1.3 1-.9 1 .6 1 1.6m25.5-1.1c-.3.5-1.4 1-2.3 1q-2.2.1-.2-1c2-1.3 3.3-1.3 2.5 0m5.5 3q-.2.8-2 1.5c-1.1.3-4.3 2.2-7.1 4.2q-5.2 3.6-4.6 1.8c.4-.9.7-2.3.7-3q0-1.3 2.1-.8t3.3-.8c2.8-3.8 7.6-5.6 7.6-2.9m98.7-.5c.9 2.5-.4 2.9-1.7.6q-1-2.2 0-2.1t1.7 1.5m125.2 1q2.4 2.6.9 2.5c-.8 0-2.3.9-3.3 2-1.7 1.9-1.7 2.1 0 4 2.4 2.6 9 2.5 9-.2 0-.9.4-2 .8-2.4q.5-1-1.5-2.6l-2.3-1.8h2.8c1.5 0 3-.1 3.4-.3q.7 0 1.2 1.8a13 13 0 0 0 2.2 4.4 8 8 0 0 1 1.9 4.2c0 2.6 1.5 2.4 3.3-.5a8 8 0 0 1 4.6-2.9 8 8 0 0 0 4.6-3.4c1.5-2.7 1.5-2.7.9-.3-1 3.6-4.1 7.8-6.4 8.5-2.6.8-2.6 3.1.1 3.8 1.7.5 1.9.9 1 2.6-.8 1.4-.8 3.5 0 7.3.6 2.9.9 8.4.6 12.3-.3 4.4 0 8.4.8 10.7 1.1 3.2 1 3.9-.2 5a7 7 0 0 1-4.2 1c-1.9-.2-3.5.6-5.6 2.7-1.6 1.7-3.5 3.1-4.2 3.1s-1.9 1.3-2.4 2.9-1.8 3.2-2.7 3.5l-2.9 1.2q-1.3.6-1.3-2.9 0-3.3-2-5.2-3.9-3.5.1-6.8c1.6-1.4 1.9-2.5 1.4-4.7q-1-5.6 3.7-.5c1.2 1.4 2.5 2.5 2.9 2.5 1.7 0 2-4.1.5-6.2-2.7-3.8-2-8 1.9-11.8 3.3-3.2 4.5-6 2.6-6q-.9.1-2.1 1.6a23 23 0 0 1-9.1 4.4c-1.4 0-3.9-3.1-3.9-4.8.1-1.5.2-1.5 1.5.1 1.8 2.5 5.9 1.4 5.2-1.3q-.5-2 1.4-2.2c3.3-.5 2.6-2.3-1.1-2.6-1.9-.2-3.9-1-4.3-1.8s-1.4-1.4-2.1-1.4-1.8-2.3-2.5-5.4c-1.3-6.1-2.9-7.9-6.2-7.4-4 .6-3.1-2 1.5-4.7 2.5-1.5 4.6-3.1 4.6-3.6 0-1.7 2.5-.9 4.9 1.6m22.1 3q-6.1 6.5-6 .5 0-3.2 1.8-3c1 0 2.7-.6 3.8-1.4 3.6-2.8 4 .2.4 3.9m-308.8-2.3q-1.1 1-1.2.2c0-1.4 1.2-2.6 1.9-1.9q.3.6-.7 1.7m135.2.2 1.2 4q.7 1.7-1.5 1.6-4-.2-2.7-5.5c.8-3.2 2.2-3.2 3-.1m16.6 1.2q0 1.3-1 .9c-.5-.3-1-1.3-1-2.1s.5-1.2 1-.9 1 1.3 1 2.1m28.6 4.2q-1.2 1-4.7-4.1l-2.2-3.2 3.6 3.4c2 1.9 3.5 3.7 3.3 3.9m52.4-5.2c0 1.7-2.2 1.4-2.8-.4q-.2-1.1 1.2-1.2 1.5.1 1.6 1.6m-164-.1c0 .3-2.7 1.8-6 3.5s-6 2.5-6 2 2.4-2.2 5.3-3.5c5.4-2.5 6.7-2.9 6.7-2m334.4 4.5c4.4 4.9 4.7 6.1.6 2.7a20 20 0 0 0-5-3.2q-3-1-1.3-2.8c1.2-1.2 2-.7 5.7 3.3m-65.3.2q1.8 3-.4.9-1.6-1.2-1.7-2.2.1-2.2 2.1 1.3m-165.8 5.1c-.3.4.3 2.4 1.2 4.3.9 2 1.4 3.8 1.1 4.1q-.5.5-.6-.5c-.1-1-1.6-3.1-3.5-5.7-2.6-3.3-3.4-5.2-2.9-6.7.6-2 .7-1.9 2.9.8 1.3 1.6 2.1 3.3 1.8 3.7m20.2-.8q3.5 6.3.7 6.5c-1.4 0-5.2-7-5.2-9.5 0-3.4 1.2-2.6 4.5 3M224 458q-2.7 1.7-1.4-1.4.7-1.9 1.8-.6 1.2 1-.4 2m-127.5-.3c-.3.8-.5 3.7-.5 6.4 0 4.5-.2 5-1.9 4.4-2.3-.7-3.7 1.1-2.2 2.9.9 1.1.5 1.5-2 2-3.3.6-3.5 2.7-.3 3.6 1 .3 1.9 1.2 1.9 2s1 1.6 2.3 1.8 2.2-.2 2.2-.9.8-1.8 1.8-2.5c1.6-1.3 1.6-1.5-.2-2.9-1.6-1.2-1.7-1.5-.4-2 .9-.4 1.8-2.3 2.2-4.5.5-3 1.1-3.9 3.2-4.4 1.5-.4 2.7-.6 2.8-.4l1.4 2.5q2.7 5-1 4.9c-1.7-.1-2.8 1.2-5.1 5.7-3.6 7.3-6.3 8.7-11.4 6.3-1.9-.9-3.8-1.5-4-1.2-1.4 1.4 1.1 3.6 5.8 5.4 4.3 1.6 5.3 2.4 5.3 4.4.1 1.4 1.7 4.1 3.6 6.1 3.4 3.6 6.3 4.7 7.5 2.7 1-1.6 3.5-1.2 3.5.6q0 1.6-2.1.9c-2.3-.8-2.3-.1-.4 6.2q.9 2.4-.9 2.3c-.9 0-2.5.5-3.5 1.1-1.5 1-3 .6-8.7-2.4l-10-4.9c-1.7-.7-4.9-3.5-7.2-6.1-4.1-4.7-4.2-4.9-2.7-7.7q1.5-2.9.4-3.5-1-.7.2-2.1c1.6-2 .2-3.1-2.1-1.6-2.8 1.7-4.6 1.6-3-.3.7-.8 2.1-1.5 3.1-1.5s2.4-1 3-2.2c.9-1.7.9-2.4-.5-3.3q-3.5-2.5.9-7.7 2.5-3 1.9-5.3c-.6-2.6 1.1-4.3 2-2 .7 1.8 6.7 2 8.4.3.7-.7 1.2-2 1.2-2.9q-.2-1.8 3-1.7 3.3 0 2.5 1.5m108 9.3c.7 1.4 1.5 3.8 1.9 5.5l.6 3-1.8-2.5c-.9-1.4-3.1-4.1-4.8-6-3-3.3-5.4-7.2-5.4-8.5s8.3 6.1 9.5 8.5m-79.4-6q-4 3.2-4.1 1.2c0-.9 3.8-3 5.5-3.1q.7.2-1.4 1.9m288.9-.5c.6.8 1 2.2.8 3.2-.3 1.4-.8 1.2-2.6-1.5q-2.6-3.4-.9-3.2c.8 0 2 .7 2.7 1.5m-71.5 4.3c-.8.8-3.5-2-3.5-3.7.1-1.2.5-1.1 2.1.8 1.1 1.3 1.7 2.6 1.4 2.9m-129.1-2.3q.6 1.6-2.1 2.6c-3.5 1.3-5.5-.5-2.7-2.6q3.7-2.8 4.8 0M258 465q.9 1.8.6 2-.6-.2-1.6-2t-.6-2q.6.2 1.6 2m-25.6-.2c.3.5-.8 2.2-2.4 3.7-3.4 3.2-4.3 1.5-1.2-2.3q2.6-3.4 3.6-1.4M137 466c-.8.5-1.9 1-2.5 1q-.7-.1.5-1 1.8-1.2 2.5-1 .8.1-.5 1m213.3 2.9q3.6 8-.8 2.1c-2.4-3.3-3.2-6-1.7-6 .4 0 1.5 1.8 2.5 3.9m118.2-2.9q-.6.9-1.6 1-.8-.1-.9-1 .1-1 1.6-1 1.3 0 .9 1m-397.1 2.4c.9 1.4 1.2 2.7.7 3-.8.5-4.1-3.5-4.1-4.9 0-1.3 1.9-.3 3.4 1.9m52.1-.4c-1 1.1-2.3 2-2.9 2q-.8-.3 1.3-2c3-2.6 3.9-2.6 1.6 0m269.3.2c-.6 1.8-2.8 2.1-2.8.4q.1-1.5 1.6-1.6 1.4 0 1.2 1.2m-96.9 2.4q-1 1.2-2.1.8-.7-.6.3-2 1-1.1 2.1-.8.7.6-.3 2m-84 2.4q0 1.5-.9-.5c-1.2-2.7-1.2-4.3 0-2.5.5.8.9 2.2.9 3m55.1-.2c0 3.7-2.6 12.2-4.5 14.6-1.2 1.6-1.8 1.7-2.7.8-2.1-2.1-4.8-1.3-9.8 2.9-2.7 2.3-5.4 3.9-6.1 3.7s1.1-1.9 3.9-3.7c5.9-3.8 9.9-8.1 10.8-11.7q.6-2.6 2.8-2.2 2.3.5 2.4-2.2c.4-3.7 1-5 2.2-5 .5 0 1 1.3 1 2.8m68.6.9q-.7.5-1.6-.7c-1.6-2.5-1.1-3.5.7-1.7.9.9 1.3 2 .9 2.4m82.8 4.3q.7 3.5-.2 2c-.5-.8-1.2-3.3-1.6-5.5-.7-4.8.8-1.9 1.8 3.5m-292.9-5c-.3.5-1.2 1-1.8 1q-1 0 .3-1 2.8-1.8 1.5 0m125.5.5c2.9 3.5-1.9 12.2-7.8 14-2.5.7-8.2-1.1-8.2-2.6 0-1.2 1.4-1.1 2.6.1 1.4 1.4 8-1.4 9.4-3.9q2.1-4.2-.6-4.1-1.6 0-1-1.6.5-1.5.6-2.5c0-1.5 3.6-1 5 .6m226-1.1q-.1.4-1.6 1-1.3.5-.9-.4c.6-1 2.5-1.4 2.5-.6m5.5 3.6q-.8 1.2-1.7.2c-.6-.6-.7-1.6-.3-2.2q.8-1.1 1.7-.2.9 1.1.3 2.2M237 474.9q-.1 1-1.4 2c-1.6 1.3-3.2-.2-2.1-1.9.8-1.2 3.5-1.3 3.5-.1m209 3.1q-.1.9-1.6 1-1.3-.1-.9-1 .6-1 1.6-1 .8 0 .9 1m-114.9 2.2c2.1 2.5 4.2 5.8 3.6 5.8-.1 0-2.1-1.8-4.2-4s-3.3-4-2.6-4 2.1 1 3.2 2.2m-201.7 1.3c-2.2 1.7-4.8 2-3.9.4.8-1.2 4.8-2.9 5.4-2.3q.3.5-1.5 1.9m325.5 2.4q3 3.8 2.1 4.6c-2.1 1.3-1 2.7 1.8 2.1 2.5-.6 2.5-.5.9.8-2 1.5-.8 3 1.6 2 .8-.3 1.8-.1 2.1.5q.4 1-1.9 1.7c-1.3.3-2.3 1-2 1.4q.6.8 2.5.3c3-.8 2.4.6-.7 1.9l-2.8 1.2 3.3.4q9 1-7.3 5.2l-6.7 1.7q-1.7.4-1.8-.5c0-.5 2.7-1.8 6-2.8 3.3-1.1 6-2.2 6-2.7 0-1.2-3.8-.8-7.7.8q-6.2 2.6-4.8.6c.3-.5 2.8-1.7 5.5-2.6s5-2 5-2.5.3-1.5.6-2.4q.6-1.6-1.1-1.6-1.5 0-1-1c.3-.5.2-1.7-.3-2.7a87 87 0 0 1-4.2-9.8c0-1.5 2.2 0 4.9 3.4m-350.4-1c1 1.7-1.2 2.1-2.5.6q-1.6-1.6.3-1.5 1.5 0 2.2.9m316.5-.5c0 1.1-1.9 1.5-2.5.6q-.4-.9.9-1 1.5 0 1.6.4m-287.2 2.8c-1.7 2.5-4.8 3.6-4.8 1.7 0-1.4 3-3.8 4.9-3.9 1.1 0 1.1.4-.1 2.2M74 487q0 .9-1 1a1 1 0 0 1-1-1q.1-1 1-1t1 1m29.4 1.1q-.6.8-1.5.3t-.3-1.5q.6-.8 1.5-.3t.3 1.5m42.5 1.5c-3.2 3.4-4.4 3-1.8-.6 1.2-1.6 2.6-2.7 3.1-2.4s-.1 1.7-1.3 3m56.2 2.7q-1.1 1.2-1.1-1.9c0-4 1.4-5.4 1.8-1.9.2 1.5-.1 3.2-.7 3.8m217.6-2.1q-.5 1-.5-1.2c0-2.2.2-1.9.5-1.3.2.7.2 1.9 0 2.5m17.1-.8q.4 1.8-1 1.4a3 3 0 0 1-1.6-2.2q-.4-1.8 1-1.4c.7.3 1.5 1.3 1.6 2.2m-367 1.9q.3 1.7-1.4 1.7a6 6 0 0 0-3.6 1.7c-2.7 2.4-2.4-.5.4-3.4q3.7-3.8 4.6 0m66.9-1.7q-.7.5-1.9.1t.6-.6q1.8 0 1.3.5m102.3 4.7c.8.3-.4.6-2.7.6q-4.4.2-6.3-1.9c-3.4-3.4-2.2-4.1 2.8-1.7 2.6 1.4 5.4 2.7 6.2 3m118-1.4v2.6l-1.5-2.9c-1.9-3.5-1.9-3.7 0-3 .8.4 1.5 1.8 1.5 3.3m-6.9-.2q-1 2.2-1.1.2c0-1.7 1-3.2 1.8-2.5q.3.6-.7 2.3m60.6 1.1a79 79 0 0 1 22.7 27.5c3 5.4 7.6 12.3 10.2 15.4 2.7 3.1 4.8 6.4 4.6 7.3-.1 1 .4 2.3 1.3 3s1.5 2.9 1.5 5.2c0 3-.7 4.5-2.7 6.5-4.4 4-17.6 13.9-25.2 18.8-7.7 5-9 7.2-6.6 10.8 1.1 1.8 1.5 4.5 1.4 9.8-.2 6.7 0 7.4 2.5 9.5 3.3 2.9 3.3 3.4-.4 3.4-3.9 0-5.3-2.4-7.5-12.5-2-9.5-3.1-12.5-4.5-12.5s-.3 13 1.5 19c.8 2.5 2.4 8.9 3.6 14.2 2 9.1 2.1 10.6 1.1 25.5-.6 8.7-1.8 18.3-2.7 21.3-.8 3-2.7 10.9-4 17.5-1.4 6.6-3 13.1-3.5 14.5s-1.1 5.4-1.2 8.9c-.2 3.9-.9 6.6-1.6 6.9q-1.1.2-1.2-1.9.2-2.9-1.4-.9c-1.9 2-4.7 11.8-3.6 12.5s3.3-3.3 2.4-4.7q-.6-1 .7-.6c2.4.8 1.7 21.8-1 29.3a174 174 0 0 0-8.8 37c.3 3.5 1.4 5 7.3 10.5 13.8 13 12.9 12 11.1 13.7-1.4 1.4-1.8 1.4-4.3-.6q-4.4-3.5-5.9-1.1-.3 1.1 2.4 2.8 5.6 3.2.5 3.2c-3.2 0-6.4-1.6-8.6-4.4-.9-1.1-4.5-3.2-8-4.6-6.2-2.5-6.3-2.6-6-6l.6-8.5c.2-2.8 1.1-9.1 1.9-14s1.3-9.3 1.1-9.6a191 191 0 0 1 1.2-37.6c1.4-6.5 1.5-9.1.6-16.8-.6-4.9-1.1-15.7-1.1-23.8-.1-8.2-.4-16-.7-17.3q-1.8-7-2.9 7.3c-.3 5.4-1 14.5-1.5 20.2-.9 9.3-.8 11.3 1 17.6 1.7 6.2 1.8 7.8.8 12.1a211 211 0 0 0-1.4 27.6c-.2 12.8-.7 23.6-1.3 24.6-.6 1.1-1.3 5-1.7 8.8l-.7 6.9-7.4 7.2c-4 4-7.8 7.3-8.3 7.3-2 0-2-2.2 0-5.4 2.7-4.4.9-5.8-2.9-2.2-3.1 3-5.1 2-5.1-2.5 0-2.1 1.4-3.7 6.6-7.8a40 40 0 0 1 7.8-5.1c.7 0 2.3-1.4 3.6-3.2 2.2-3 2.3-3.4 1.1-11.1a78 78 0 0 0-3.3-13.1c-1.1-2.8-2.7-8-3.5-11.6l-2.4-10.5c-2.3-9.2-3-15.3-2.3-20.5 1-7.2.7-9.9-1.6-14.6-1.1-2.1-2-5-2-6.4s-1.6-10.6-3.6-20.5l-4.6-22.8c-.5-2.6-.7-12-.4-21 .8-23.3.8-26.6.3-42.2-.2-7.7-.7-14.8-1.2-15.8-1.3-3-3.5-2-3.5 1.7q0 3.4-1.6 4-1.8.8-.9-1.1c1.4-3.2 1.8-8.3.6-8.3-.6 0-1.8 1.5-2.7 3.2-1.9 3.9-5.3 7.8-6.7 7.8-.6 0-1.8.6-2.6 1.4s-4.7 2.6-8.6 4.1a55 55 0 0 0-8.6 4.1c-.8.8-3 1.4-4.8 1.4s-4.9.9-7.1 2-4.5 1.7-5.3 1.5c-1.6-.7-3.7 3.4-3.7 7.3 0 4.7-3.3 8.8-7.5 9.5-2.1.3-4.6.2-5.5-.3q-1.7-.8-2.3-.3-.7.4-2.1-.6c-.8-.7-2-1-2.5-.7-.9.6-4.1-3-4.1-4.6s2.8-.8 3.4.8c.5 1.3.9 1.4 2 .4s1.7-.7 2.6.9c1.4 2.8 3.2 2.7 2.8-.1-.2-1.3-1.6-2.9-3.3-3.8l-3.4-1.7c-.2-.1 1.1-1.6 2.8-3.4 2.8-2.8 3.6-3.1 7-2.5q4 .6 5-.8c1.8-2.2-7.4-2.8-11.6-.8-4.8 2.3-5.4.6-1.1-3.4 2.8-2.5 4.7-3.4 7.2-3.4 4.8 0 9.5-2.2 15.2-7.2 10-8.9 15-12.5 19.6-14.2 2.6-1 5-2.2 5.4-2.7.3-.6.7-3.6.9-6.7q1.2-19.3 2.5-24.2a71 71 0 0 0 1-13.8c0-11.3 1.1-15.1 5.6-19.3 2.2-2 3.8-2.4 10.5-2.8 7.8-.3 7.9-.3 7.9 2.2 0 1.3.6 3 1.4 3.6 1 .8 1.3 3.9 1.1 12.9l-.3 11.7-3.1.3c-3.5.4-4.1 2.1-1.1 2.9 2.4.6 2.4.5.1 4.9l-2 3.7-.7-2.7c-1-4.2-2.9-2.5-2.7 2.5.6 11.9.4 14.6-1.6 19.2-3 7-2.8 8.1 2 10 3.6 1.4 4.5 1.5 6.9.2 3.6-1.9 5.8-9.1 4-13.4-1.2-3.1-.3-6.2 2.3-7.8q2.2-1.3 6.3-13.1a14 14 0 0 1 5.4-7.7c4-2.8 5.6-3.1 6.2-1.3.6 1.6 2.8 0 2.8-2.1q.1-1.7 5.5-4.5c3.2-1.6 5.5-3.4 5.6-4.4.2-4.6.7-6.3 2.2-8 .9-1 1.7-2.4 1.7-3q.2-1.1 2.5-1.2c1.9 0 2.6-.7 3.1-2.8.4-1.5 1.6-3.9 2.6-5.5 2.7-3.8 8.7-3.8 14.5.1m-19.7-.6c0 2.4-1.8 4.1-3.4 3.5-1.4-.5-1.5-1.1-.6-2.7 1.2-2.2 4-2.7 4-.8m62 .6c0 .7-6.3 4.2-7.5 4.2-2.6 0 3.5-4.2 7.3-4.9q.2 0 .2.7m-190.4 4.7c-.9 1.4-2.1 2.5-2.7 2.5q-1.6 0 1.9-4.3c2.2-2.5 2.8-1.2.8 1.8m-188.1 2.3c-.6.7-3.5-1.8-3.5-3.1q.2-.7 2 .8c1.8 1.5 1.8 2 1.5 2.3m152.6-.8q2.1 1.8 1.1 2c-1.9 0-5.2-1.9-5.2-3q.2-2.4 4.1 1m-156.2 3.6c2.3 2.5 5 4.4 5.9 4.3q4.8-.5 3.9 1.5c-.7 1.8 4.7 6.7 10.3 9.6 3.7 1.9 4.4 2 8.3.6 3.6-1.2 4.4-1.2 5.8 0 .8.8 3.4 1.4 5.7 1.4 3.4 0 4.8-.6 7.7-3.5 1.9-2 3.5-4.2 3.5-5 0-2.1-7.2-7.7-8.4-6.5-1.4 1.4-2.6 1.2-2.6-.4 0-4.3 6.3-1.7 10.8 4.5 3.4 4.5 3.3 6.1-.4 7.7L119 519l2 3.5q4.3 7.8-.9 13.7c-2.6 2.9-3.5 3.3-7.7 3.1-5.6-.2-9.1-2.4-11.9-7.6-3.4-6.3-6.9-4.3-3.6 2.1 2.7 5.3 7.3 9.5 11.8 10.8 3.4.9 3.9 1.6 4.9 5.5.7 2.4 1.2 9 1.3 14.6 0 8.8.4 11 2.5 15.5a38 38 0 0 1 3.1 9.8c.4 2.5 1.3 8.1 2.2 12.5 2.1 11 .5 37.5-3.7 60l-2.9 15.5-3.5 21c-3.9 24.1-5.7 33.4-6.9 34.8-.6.8-1.2 4.7-1.2 8.8-.1 4.2-.7 8-1.3 8.6-.7.7-1.2 2.7-1.2 4.4s-.5 4.5-1 6c-.6 1.4-1.2 5.5-1.5 9.1-.2 3.5-1 7.2-1.7 8-1.1 1.3-1 1.8.6 2.7l6 4.1c5.1 3.8 6.8 4.6 13.1 5.9 6.4 1.4 6.7 3.7.7 5a23 23 0 0 1-11.1-.7 36 36 0 0 0-12.8-1.1c-5.6.6-6.1.5-8-2a11 11 0 0 0-2.7-2.6c-.3 0-1.3 1.5-2.2 3.3C76 804.5 71.3 811 68.7 811c-2.2 0-3-3.1-1.2-5a7 7 0 0 0 1.5-2.3c0-1.4-3.4-.6-5.4 1.2a10 10 0 0 1-4.1 2.3c-1.7.2-1.9-.2-1.7-2.7.4-3.6 4.1-10.5 5.7-10.5.6 0 2.7-2.1 4.6-4.8 4.9-6.5 6.4-13.8 5.3-24.4-.5-4.6-.9-14.6-.9-22.3.1-13.1.2-14.4 2.9-20.9a30 30 0 0 0 2.7-15.9q-.2-8.9-1.8-12.5l-1.7-3.7-.7 13q-1 22.3-9.2 39.8C60.5 751.4 57.4 754 51 754c-4.3 0-5.1-.4-8.2-3.8a38 38 0 0 1-7.6-15.7c-.7-2.5-1.4-3-4-3.1q-6.4 0-2.4-3c1.2-.8 2.2-1.9 2.2-2.4 0-1.6-3.2-4.1-4.6-3.6-1.9.7-4.4-.4-4.4-2 0-.7-.9-1.9-2.1-2.7q-2-1.6-2.6-5.7l-.6-4.2 2.5 1.6c2.4 1.6 2.5 1.5 3.6-.9.7-1.4 1.2-3.2 1.2-4q0-1.3.9-1.5c1.8 0 3.6 3.4 3.6 6.9q0 3.7 1.4 3.3 1.3 0 2.5 1.2c.9 1.3 1.5 1.4 3.6.3s2.4-1.9 2.2-4.7l-.4-3.5 2.2 2q2.3 2 2.7.7c.3-.6 1.5-1.2 2.8-1.2q2.4 0 5.1-3.5c3.3-4.3 5.4-3.3 5.4 2.6 0 3.5.3 3.9 2.5 3.9q2.3 0 2.5.3c0 1.2-8.9 10.1-10.7 10.8a4 4 0 0 0-2.5 3.1 3 3 0 0 1-2.6 2.6c-3.5.5-4.3 3.2-2.7 9.1 1.6 6.3 2.8 7.8 7.3 9.7 3.3 1.4 3.7 1.3 5.9-.8 4.7-4.4 10.2-17.8 12.3-30 1.2-6.5.9-22-.5-28.3-.4-1.7-.1-4.4.5-6 1-2.7 1.3-2.8 2.4-1.3 2.3 3.1 2.5.8.5-5.5-2.8-9.2-7-21.1-7.9-22.2a141 141 0 0 1-5.4-26 61 61 0 0 1 5.8-35.4c3.3-5.8 3.6-7 3.6-14.4 0-12.1-7.4-36.7-10.2-33.9q-1.8 1.9 2.8 16a37 37 0 0 1 0 19.8c-.7 2.7-1.9 8.3-2.5 12.4s-1.6 9.1-2.1 11-1.4 7.8-2 13a96 96 0 0 1-3.1 15.5c-1 3.3-1.9 6.9-1.9 8s-1 4-2.3 6.5c-1.9 3.8-2.9 4.7-6.9 6-5.2 1.7-11.1 6.7-10.4 8.7.8 1.9-.5 7.3-1.7 7.3-1.6 0-.1-10.3 2.1-14.6 1.1-2.2 3-4.8 4.2-5.9 3.7-3.4 6.3-10 6.4-16.8 0-3.4-.3-12.1-.7-19.2-.7-10.4-.5-14.4.7-19.6a84 84 0 0 0 1.2-27.5c-.4-6.8-.2-14.6.5-20l1.4-13.4c.7-10.8 3.4-17.8 8.9-23 2.6-2.3 12-7.5 14.2-7.9.6 0 3 1.9 5.3 4.5m167.4-2.2c1.9 1.4 2.3 3.6.7 3.6q-1-.1-1.6-1.5c-.4-.8-1.7-1.5-3-1.5s-2.4-.5-2.4-1c0-1.4 4.2-1.2 6.3.4m12.2 4.3c-.8 3.4-1.1 3.7-2.4 2.9q-1-.7.1-3.1c1.5-3.4 3.2-3.2 2.3.2m216.6.8c-.1 1.5-2.4 1.2-2.9-.3q-.4-1.4 1.2-1t1.7 1.3m-377.1 4c1.3 1.4 2.9 2.5 3.7 2.5q1.2.1 1.3.8c0 .9-8.6-.1-9.6-1.1-.8-.7.5-4.7 1.5-4.7.4 0 1.8 1.1 3.1 2.5m373.4-.9c.9.3 1.6 1.4 1.6 2.4s.4 2 1 2.2c.5.1 1.2 1.7 1.6 3.4.5 2.7.2 3.2-2.4 4.3-2.1.9-3.5 2.5-4.7 5.7-1.7 4.6-4.3 7.5-3 3.4.7-2.1.5-2.2-2.7-1.5-3.7.8-6.2 2.5-3.5 2.5q1.5 0 1.7 1-.1.9-1.6 1-1.3.1-.9 1c.4.6 1.6.8 2.8.4 2.1-.6 2.1-.5.5 1.2s-1.8 1.7-3.8-.1c-1.1-1-2-2.8-2-4.1 0-1.8 1-2.6 4.8-4 2.6-.9 5.1-2.1 5.7-2.6 1.4-1.2-1.5-.9-6 .7-4.8 1.7-4.5 1.7-4.5.6 0-.5 1.6-1.2 3.6-1.6 4.3-.8 8.4-2.5 8.4-3.6 0-.4-1.7-.2-3.7.3-6.9 1.8-9.6 2.1-9 1.1a25 25 0 0 1 7.4-2.7c10.2-2.6 9.7-2.4 8.3-4.1q-1.1-1.3-.6-1.5.5-.4-1-2.5c-1.5-2.1-2-2.2-2.5-1.9a51 51 0 0 1-11.7 2.9c-.6-.5 10.2-4.4 12.5-4.4 1.2-.1 2.8.2 3.7.5m33.8 3.4c-.2 1.6-.8 3-1.3 3-1 0-1.2-3.1-.3-5.4 1-2.6 2.1-.9 1.6 2.4m-270.8-.6q-.6 1.5-1.5 1.6c-1.4 0-1.1-2.8.4-3.3q2.4-1.1 1.1 1.7m42 2a11 11 0 0 1-.1 5.2q-.7 2.5-1.4-1.1c-1-4.5-1-7.5 0-7.5.5 0 1.2 1.5 1.5 3.4m109.2-2.3c1 1.7-2.3 4.6-3.8 3.1q-1.2-1 .2-2.7 2.2-2.7 3.6-.4m107.8 1c-.7 1.1-4.4 1.2-4.4.1q0-2.3 3-1.5 1.8.5 1.4 1.4m-323.4-.3c0 .5-1.2 1.4-2.7 2.1-2.8 1.3-2.8 1.3-.9-.8 2-2.2 3.6-2.7 3.6-1.3m-48 1.2c0 .5-1 1-2.2.9q-3.2.1-.3-.9l2.3-.9q.2 0 .2.9m359.5 0c-.3.5-1.3 1-2.1 1s-1.2-.5-.9-1 1.3-1 2.1-1 1.2.4.9 1m-18 4c-2.2 1-4.9 1.9-6 1.8s.3-.8 3-1.8c6.4-2.4 8.1-2.4 3 0M250 519.2q0 2.3-1.1 1.1c-.6-.6-.8-1.6-.5-2.2q1.6-2.5 1.6 1.1m8.7 0q-.5 1.1-.6-.6t.5-1.3c.3.3.4 1.2.1 1.9m-131 5.5a36 36 0 0 1 3.7 7.5c.3 1.6 1.3 2.8 2.1 2.8s1.5.4 1.5.8c0 1.5-3.8 4.4-4.9 3.8q-2.5-1.7-1.5 7c.6 4.9.9 5.5 2 4q1.2-1.6 1.9-.7c.7 1.3 2.5 1.4 4.3.3 1-.7.9-1.7-.3-5.2-1.6-4.4-1.3-7.6.4-6.6 2.1 1.3 3.1 15 1.2 16.9q-1 1-1.1.2-.3-4.1-4.3-2.4-2.8 1.2-2.7 4-.1 5.7 5 1.9c3.5-2.5 6-2 6 1.1 0 1.8-.2 1.9-1.5.9-2.1-1.7-5.5 1.3-5.6 4.9l-.1 2.6-.7-2.4c-.4-1.4-1.3-2.7-2-2.9-1.1-.4-1.2.8-.6 5.9a51 51 0 0 0 1.6 8.7c.5 1.3.9 3.3.9 4.5q0 5.9 3.9 3.5c1.7-1 2.1-2.1 1.9-5.3s-.7-4-2.7-4.5c-1.4-.3-2.7-1.2-2.9-1.9q-.5-1.5 1.3-.7t4.1-2.1c2.6-3.2 4.3-2.5 2.6 1.2-1.4 3.1-.5 8.3 1.8 11 1 1.1 2 3.3 2.2 5 .3 1.6.9 3.8 1.3 4.7q.6 1.6-.3 1.8c-.5 0-1.7-1.8-2.6-4s-1.9-4-2.4-4c-1.8 0-3.1 2.5-2.6 5.4s.3 2.9-1.5-.9l-2-4v3.5l.8 18.6c1.1 17.4 2.1 20.7 8.9 27.9q7.8 8.2 9.6 13c.6 1.9.5 1.8-1.6-.2-5.1-5-12-10.3-13.4-10.3-2.7 0-2.7 3 0 7q6.3 9.6-2 3.4a12 12 0 0 1-4.4-6.8l-2.9-10.1a90 90 0 0 1-2.6-22c-.8-18.4-1.4-22.7-4.5-31-2-5.3-2.2-7.8-2.1-20.9.1-14.1.3-15.2 2.7-19.3 1.9-3.4 3-4.3 4.4-3.8 2.2.7 3.7-1.2 2.1-2.8a4 4 0 0 1-1.1-2.7c0-.9-1.3-3.4-3-5.6-3.1-4.1-3.6-5.4-2.1-5.4.5 0 2.2 2.1 3.8 4.7m99.6-2.7q.4 1.8.1 2-.4-.2-1.4-2t-.2-2q1 .2 1.5 2m137.7.5q-.2 1.3-2 1.5c-2 0-2.6-1.1-1.3-2.3 1.2-1.3 3.3-.7 3.3.8m111.4.4c.3.5-1 1.1-3 1.3-4.2.5-5.7-.9-1.7-1.5l3.5-.6q.7 0 1.2.8m14.7 3.7q-.9 2.5-1 1.2c-.1-1.8 1-5.1 1.5-4.5.2.1-.1 1.6-.5 3.3m-10.1 2.6q.1 3.9-5.5 9.8c-3.5 3.7-5.1 9.6-2.9 10.4 1.8.7 2.9 7.5 1.5 8.9q-1.2 1.3-1.1-.9c0-1.1-1.1-3.5-2.4-5.3-2.4-3.2-2.4-5.1-.3-7.9q.9-1.2-.3-2.7c-1.5-1.8-.5-3.5 2.3-3.5 2.2 0 5.1-3.2 4-4.4-.4-.3-1.6-.7-2.7-.7q-1.7-.2 1.2-.8 5.9-1.2 1.2-3.8c-2-1-2.1-1.1-.4-1.5 3.2-.7 5.4.3 5.4 2.4m-245.1 5.9q2.2 5 1.3 6.5c-.7 1.2-1.2.5-2.1-3.2a36 36 0 0 0-3.4-8.4l-2.1-3.5 2.1 1.8c1.2 1 3.1 4.1 4.2 6.8m-8.9 2.1c1.1 2.4 1.9 5.9 1.9 7.8 0 3.4-.1 3.4-1.3-1.2-.7-2.6-1.7-5.3-2.3-6a8 8 0 0 1-1.5-3.3l-1.3-4c-1.3-3.5 2.3 1.8 4.5 6.7m19.2-4q-1.3 1.5-1.2-1.2c.1-2.7.3-2.1 1.2-1.2q1.4 1.2 0 2.4m55.8.3c1.3 1.4 1.9 2.5 1.4 2.5-1.1-.1-5.4-3.6-5.4-4.4 0-1.3 1.8-.5 4 1.9m52-1.6c0 2.7-2.3 6.7-4 6.8s-1.8-.2-.9-2.5c.6-1.4 1.5-3.2 2.1-3.9 1.2-1.5 2.8-1.7 2.8-.4m108 7.3c-.1 3.6-.3 4-1.3 2.8q-1.2-1.4-3.1-1.2c-2 .4-1.6-.6 1.3-4 2.4-2.8 3.1-2.2 3.1 2.4M345 549c-1.6 1-3.2.9-3.1-.3l.2-5v-4.2l2.2 4.3c1.8 3.7 1.9 4.4.7 5.2m137.1 6.3c-.1 3.8.4 5.3 2.4 7.3 2.1 2.1 2.5 3.4 2.5 8.4 0 3.2-.4 6.2-1 6.5-1.9 1.2-1 2.4 1.7 2.2 2.5-.2 2.7.1 3.9 6.8q2.7 15.4-.2 15.5-1.3-.1-.9-1c.4-.6.4-1.8.1-2.7-.6-1.4-.8-1.4-2.6.2s-2 1.6-2.6.1q-1.2-3.6-4.3 1.4l-1.8 3-.1-3.2q-.2-3.4 2.6-6.1l2.7-2.9-3 1.6-4.6 2c-.9.2-2.8 2.9-4.4 6s-3.2 5.6-3.7 5.6c-1.4 0-.9-5.7.7-7 2.1-1.7 1.9-2.9-.4-2.3-1.7.4-1.8.1-.7-5.4 1-5.1 1.5-6 4.3-7.3 2-.9 3.3-2.3 3.3-3.4q.1-2.2-1.5-.6-1.5 1.1-2.1.7c-.4-.3-2.2.6-4.1 2q-3.3 2.6-2.2 3.3 1.2.8 0 1.4-1 .6-1.1-.2c0-1.2-4.9-1.2-5.6-.1-.3.5-1.5.9-2.6.9-2.1 0-2.1 0 .1-2.4 1.9-2 2.2-3.1 1.6-5.8q-1.8-8.7.8-11.5c1.5-1.6 1.8-1.5 4 .5a7 7 0 0 0 8.6 1.3c.9-.6 3.3-4 5.1-7.6l3.4-6.7-1.5-5.9c-1.4-5.4-1.4-6.1 0-8.2 1.5-2.1 1.6-2.1 2.4 3.3.5 3 .8 7.7.8 10.3m-183.6-12.5c0 1.8-2 1.5-2.3-.4q-.4-1.6 1-1.2 1.2.6 1.3 1.6m166.3 16.8c.4 2.8-7.3 9.3-9.1 7.5-1.3-1.3 1.3-3.7 5.1-4.7 2.2-.6 3.1-2.4 1.2-2.4q-.9-.1-1-1.6c0-2.3 3.4-1.3 3.8 1.2m-119.2 3.2c-1.5 1.5-1.6 1.5-1.6-.4 0-2.8 2.4-5.2 2.8-2.8.2.9-.3 2.4-1.2 3.2M212 568q0 .9-.4 1-.6-.1-1.1-1-.4-1 .4-1 1 0 1.1 1m237.8 1.9c-.5 2.4-4.1 2-4.3-.5-.1-1.7.3-2 2.2-1.6q2.4.5 2.1 2.1M232 581q1.9 0 1.5 1c-.3.5-1.4 1-2.4 1s-2.5.6-3.5 1.3c-1.7 1.2-1.7 1.5.3 5.1l2.2 3.8-2.3-.7c-3.7-1.2-4.3-1.1-4.3.6 0 .9-.6 2.3-1.3 3.2-1.1 1.3-.9 1.8.8 3 1.9 1.3 2 1.8.8 3.6-1 1.6-1 2.3 0 3.3 1.5 1.5 1.6 3.1 0 2.2q-1.2-.8-.3 1.2c2 5 3.5 10.9 3 12.4-.3.9-1.6 2.7-2.9 3.9l-2.3 2.2-.6-6.3c-.3-3.4-1.1-6.7-1.9-7.3s-1.3-1.8-1.3-2.9-1.5-2.7-3.6-3.9c-3.1-1.8-3.9-1.9-5.3-.8-.9.7-1.6 2.6-1.6 4.2 0 3.2-3.5 5.7-6.4 4.6q-3.5-1.2 1-5.2l2.6-2.5-2.6-1c-4-1.5-6-1.2-8.9 1-3 2.4-7.7 2.7-7.7.5 0-1.6-4.2-3-6.5-2.1-1.8.7-2 3.3-.2 3.9q.9.3-.8.1c-2.2-.4-5.5 2.2-5.5 4.3q.1 1.2 1.4 1.3c2.3 0 3 2 1.1 3.4-1.5 1.1-1.5 1.3-.1 2.5 2.6 2.2 2 4.3-1.1 3.9-2.3-.2-2.8-.8-2.8-3.1 0-1.6-.8-3.4-1.7-4.1q-1.7-1.4-1.8-4.7c0-4.3 5.1-9.9 9.1-9.9 1.4 0 4.3-.7 6.3-1.5a10 10 0 0 1 7.4-.5c4.6 1.2 5.2 1.2 5.2 0 0-.5-1.2-1.6-2.7-2.4l-2.8-1.5 3.5.6c1.9.4 5 1.5 6.9 2.6 3.1 1.9 3.5 1.9 4.6.4.7-1 2.3-1.6 3.6-1.5 3.7.4 2.9-2.4-1-3.4-1.8-.5-3.1-1.1-2.8-1.4s2.9.2 5.8 1c6.6 2 7.9 2 7.9.1q0-1.3-.2-1.5l-5.8-2-5.5-2 5 .5c5.2.5 8.2-.5 7.1-2.4-.4-.6-2.2-1.1-4.1-1.1s-4-.3-4.9-.6c-2.8-1.1-.6-2.4 4-2.4 3.2 0 4.4-.4 4.4-1.5q-.1-1.4-2.6-1.5-2.3 0-1.9-1c.3-.6 1.5-1 2.6-1s1.9-.7 1.9-1.6c0-1.3-.8-1.5-5.2-.9-6.8.9-5.5-.5 1.4-1.6 2.9-.5 5.7-1.5 6.3-2.3.8-1.2 1.7-.7 5.2 2.9 2.4 2.5 5.2 4.5 6.3 4.5m214-2.5q0 1.3-.9 1.5c-1.3 0-2.2-1.6-1.4-2.4 1.1-1.1 2.3-.6 2.3.9m-5 2.1q0 1.3-1 .9-.9-.6-1-1.6.1-.8 1-.9 1 .1 1 1.6m11.2-.4q-1.2 1.4-2.4 0-1.5-1.3 1.2-1.2c2.7.1 2.1.3 1.2 1.2M341 586.5c0 .6-.7 3.5-1.5 6.3-1.2 4-2 5.2-3.6 5.2a3 3 0 0 0-2.6 1.7c-.3 1-1.2 2.5-1.9 3.4-1.1 1.2-1.1 2.2-.2 4.6 1.6 4.2-.8 12.6-3.7 13.1a7 7 0 0 0-3.6 2.4c-1.5 2-1.6 1.8-1.5-2.6s.3-4.7 2.4-4.3c2.5.5 3 0 4.2-4.3q.9-3-.5-4c-1.1-.9-1.7-.5-2.9 1.7l-1.6 2.8.6-3a11 11 0 0 1 3.2-5.1c2-1.7 2.5-3 2.5-6.7 0-4.3.2-4.7 2.4-4.7 2.9 0 5.8-5.6 4.1-7.8q-1.1-1.4-2.2-.2-2.6 2.3-1.9-.9c.3-1.1 1.2-2.2 2.2-2.4 1.8-.4 6.1 3 6.1 4.8m95.6 1.2c-1 1-1.9-.5-1-1.8q.8-1.7 1.2 0 .3 1.2-.2 1.8m-199.7 1q.1 3.6-.9.8c-1.2-2.7-1.2-3.5 0-3.5.6 0 1 1.2.9 2.7m213.6 3.3c1.4 1.5 1.6 2.3.7 3.2q-1 1.3-3.1-1.3c-3.1-3.8-.9-5.5 2.4-1.9m8 0c-2 2.2-4 2.6-5 1-1.1-1.7.5-3 3.7-3 3 0 3.1 0 1.3 2m-20 2q-.8 1.1-1.7.2-.9-1.1-.3-2.2.8-1.1 1.7-.2.9 1.1.3 2.2m-177.1-.4c.9 2.2-.3 3.2-1.4 1.4q-1.8-3-.1-3 .9.1 1.5 1.6m183.6.9q0 1.3-1 1.5-.9-.2-1-1.5c-.1-1.3.5-1.5 1-1.5q1 .2 1 1.5M238.5 596q.4.9-.4 1-1-.1-1.1-1 0-1 .4-1 .6 0 1.1 1m224.2 2.5c-1.5 1.4-3.3 2.5-4 2.5s.1-1.2 1.6-2.5 3.3-2.5 4-2.5-.1 1.2-1.6 2.5m-7.1-.4c1 1.7-1.3 3.6-2.7 2.2-1.2-1.2-.4-3.3 1.1-3.3q.9.1 1.6 1.1m-310.7 4.5q1.2 4.7 3.2 5.1c2 .5 2.3 1.5 3.4 9.1.4 3.5.2 4.4-1.2 4.9-1 .4-2.2 1.2-2.6 2q-.8 1.2-1.7 1.3c-1.6 0-4.2-4.9-5.1-9.3-.7-3.8-.5-4.4 1.8-6.3s2.4-2.3 1.3-4.5c-.6-1.3-2.4-3.4-3.8-4.6l-2.7-2.3h3.1c2.9 0 3.3.4 4.3 4.6m333.1-4.1-.9 2.3-2.1 4.7q-1.2 2.5-1.7 1.8c-.5-1.5 2.7-9.3 3.9-9.3q.7 0 .8.5m-48 6q-.1.7-1-.5-1.2-1.8-1-2.5.1-.8 1 .5 1.2 1.8 1 2.5m14-1.5q0 .9-1 1a1 1 0 0 1-1-1q.1-1 1-1t1 1m16.3 1.6c.9 1-.4 3.4-1.9 3.4q-1.3-.1-1.4-1.3c0-2.2 1.9-3.5 3.3-2.1m29.4 1.6q-.5 1.1-.6-.6t.5-1.3c.3.3.4 1.2.1 1.9m-191.4 1.2c3.4.6 4.1 1.3 5.8 5.1 1.1 2.4 2.2 7.7 2.4 11.8.5 6.8.3 7.5-2 9.7-2.8 2.6-3.9 2.2-4.2-1.8l-.5-4.7q-.4-2 1.5-1.7 3.4.8-.3-2.8-3.9-4 .1-4c2.9 0 2.2-4.4-.8-4.8q-2-.3-1.7-1.7c1-2.6-1.7-2.5-4.2.2-2.6 2.8-2.6 2.8-.5 4.1 1.8 1.3 1.9 1.6.6 3.5-1.1 1.7-1.2 3.2-.4 6.6.9 3.9.7 4.8-1.5 8.1q-2.5 3.8-1.4 4.8 1 1 0 2.9c-1 1.6-1.2 1.6-2.1-1-1.5-3.9-1.4-5.7.4-6.3q1.4-.7 1.5-1.5c.1-.8-.7-.9-1.5-.9-2.2 0-1.8-1.7.5-2.3s2.7-2.7.5-2.7c-1.8 0-2-2.6-.2-3.3q1.4-.5-.1-1.5c-.7-.5-1-1.6-.7-2.4q.5-1.5-1.1-2.2-1.9-.5-.5-2c1-1.1.8-1.6-.5-2.4-1.7-.9-1.6-1.3.9-5.1 2.2-3.3 3.1-4 4.5-3.3.9.5 3.4 1.2 5.5 1.6M447 606q0 .9-1 1a1 1 0 0 1-1-1q.1-1 1-1t1 1m9 .3c0 .8-.9 2.2-2 3.2-2.3 2-2.4 1.7-1-1.9 1-2.7 3-3.5 3-1.3m-194 1.6c0 .5.3 1.6.6 2.5q.4 1.5-.5 1.6c-.9.1-1.1-.7-1.1-1.5 0-.7-.8-1.9-1.7-2.4q-2.5-1.2.5-1.1 2 0 2.2.9m222.6 2.8c-1 1-1.9-.5-1-1.8q.8-1.6 1.2 0 .3 1.2-.2 1.8m-26.6-.4c0 1.9-2.7 5.3-3.6 4.5-.9-1 1.2-5.8 2.6-5.8q.9.1 1 1.3m-14 1.2q0 1.3-1 1.5-.9-.2-1-1.5c-.1-1.3.5-1.5 1-1.5q1 .2 1 1.5m18 .7c-.1 1.8-3.7 6.4-4.5 5.7s2.7-6.9 3.8-6.9q.6.2.7 1.2m-31 1.9q0 .8-1 .9-.9-.1-1-1.6.1-1.3 1-.9 1 .6 1 1.6m18.6 2.6c-1 1-1.9-.5-1-1.8q.8-1.7 1.2 0 .3 1.2-.2 1.8m-176.6-.3c0 .7.7 1.9 1.6 2.7 1.4 1.1 1.4 1.3 0 2.1-.9.5-1.6 2.2-1.6 3.8 0 3.7-3.7 11-5.6 11-1.7 0-1.9-5.5-.3-6.6q1.1-.5 0-1.7-1-1 .3-2.1c2.7-2.1 2.9-5.4.4-6.7-1.9-1-2.4-.9-3.5.8s-1.9 2-5.6 1.1c-2.3-.6-9.5-1.1-15.9-1.2-7.3 0-11.7-.5-11.5-1.1s7-1 18-1.1c12.3 0 18.1-.4 18.9-1.2 1.6-1.6 4.8-1.5 4.8.2m-75.7 1.6c.3 1-.1 2.4-.9 3.1q-3.2 2.4 1.4 4c2.5 1 2.6 1.2 1 2.3-2.1 1.5-2.3 3.3-.5 3.9q1.3.3.1 1.8c-1.6 1.9-1.2 5.8.6 6.9q1.7.9.4 2.7c-.7 1.1-1 7-.8 15.8l.3 19.7c.1 4.9.4 5.8 2.2 6.3q2.2.8 3.1-.9c1.2-2.2 2-2 7 1.3 2.4 1.6 5.9 3.1 7.8 3.3 3.3.3 3.5.5 4 4.8.3 2.5 1.3 5.6 2.2 6.8a22 22 0 0 0 17.1 8.2c4.8 0 14.2-4.2 15.7-7 1.8-3.4 9.8-11.3 10.8-10.6 1.5.9-.2 7.9-3.1 12.8-5.5 9.4-11.6 12.8-22.9 12.8a27 27 0 0 1-22-9.8q-6.8-7.1-4-8.6c1.3-.8.1-6.6-1.3-6.6-.7 0-2 1.1-2.9 2.5l-1.6 2.4-3.8-2.1c-2-1.2-4.7-3-5.9-4.1a11 11 0 0 0-5.9-2.2c-2.6-.2-4.6-1.3-7.5-4.1-3.5-3.4-3.9-4.3-3.4-7.2q.7-3.4-.9-3.2c-.8 0-2.7-1.1-4.3-2.4q-2.9-2.6-4.5-1.5c-4.3 2.4-13.2-7.6-10.8-12.2.9-1.6.7-2.7-.7-5.1-1-1.7-2.6-3.5-3.5-3.9l-3.5-1.7a14 14 0 0 1-3.6-3.4c-4.2-5.6 1.9-13.9 6.4-8.6a10 10 0 0 1 1.9 3.7c0 .8.9 2.5 2.1 3.7 1.6 1.7 1.9 2.7 1.1 4s-.5 2.5 1.1 4.6c1.1 1.5 2.6 2.8 3.3 2.8 1.5 0 9.4 8.6 9.4 10.3 0 .8 1.6 2.8 3.5 4.6s3.5 3.6 3.5 4.1c0 1.5 2.6 1.2 4.1-.6 1.1-1.3 1.5-1.2 3.6 1.5 1.4 1.7 2.8 3.1 3.1 3.1.7 0 .8-30.4 0-35-.2-1.4-1.1-4-2.1-5.9-1.6-3.2-1.6-3.6-.1-6 1-1.4 1.3-2.6.7-2.8s-1.8-.9-2.7-1.6c-1.5-1.1-1.5-1.7-.5-4.2.7-1.7 1.2-3.3 1.1-3.8s.9-.7 2.2-.7q2.4 0 2.9 2m266.7-.5q0 1.4-1 1.5-.9-.1-1-1.5c-.1-1.4.5-1.5 1-1.5q1 .2 1 1.5m6-1.1q0 .5-1 1.1-.9.4-1-.4.1-1 1-1.1 1 0 1 .4m8.6 3.3c-1 1-1.9-.5-1-1.8q.8-1.7 1.2 0 .3 1.2-.2 1.8m-27 1c-1 1-1.9-.5-1-1.8q.8-1.7 1.2 0 .3 1.2-.2 1.8M208 620q-.1.9-1.5 1c-1.4.1-1.5-.5-1.5-1q.1-1 1.5-1c1.4 0 1.5.4 1.5 1m265 .5q0 1.3-1 1.5-.9-.2-1-1.5c-.1-1.3.5-1.5 1-1.5q1 .2 1 1.5m-188.7.6q-1 1.2-4 .1c-2.8-1-2.8-1 1.2-1.1q4.1-.2 2.8 1m182.2-.2q.4.9-.5 1.6-.9.4-1-.9 0-2.7 1.5-.7m-11.3 2.6q-.1.9-1.1 1.3-1 .2-1.1-1.3c-.1-1.5.5-1.5 1.1-1.3q1 .4 1.1 1.3m15.6 1.2c-.2 1-1.4 2-2.8 2.2-2.5.3-2.5.3-.6-1.8 2.3-2.6 3.9-2.7 3.4-.4m-7.2 2c-1 1-1.9-.5-1-1.8q.8-1.7 1.2 0 .3 1.2-.2 1.8m-312.5 3.5q1.7 3-.4.9-1.6-1.2-1.7-2.2.2-2.2 2.1 1.3m65.9 0c3.8 4.1 2.1 4.2-3.9.2-.4-.3.8-2.4 1.4-2.4.2 0 1.3 1 2.5 2.2m-40.5.9c1 3 0 3.3-1.3.4q-1-2.3-.2-2.5.9.1 1.5 2.1m146.9 1.1c1.5 2.5-2.8 14.5-6.6 18-2.2 2-2.8 3.5-2.8 6.7 0 4.1-3.6 13.1-5.3 13.1q-.8-.1-.3-1.3c1.8-4.4 2.8-8.8 2.3-10.1-1-2.6-3.4-1.8-4.7 1.4-.7 1.7-1.7 3.3-2.2 3.6-.4.3.2-1.5 1.4-4q2.1-4.5 4-4.6c2.1 0 4-4 3.7-7.9q-.5-6.3 1.2-6.1 1 .2.6 2c-.6 2.4 1.6 4.6 3 2.8a25 25 0 0 0 2.1-6.2c1.4-5.5.4-7.9-2.3-5.6-1.3 1-1.5.9-1.5-.7 0-1.1.3-2.3.7-2.7 1.3-1.2 5.6-.2 6.7 1.6M217.3 636q1.6 0 1.2 1c-.3.5-1.7 1-3.1 1q-2.6.2-2.4-2.2 0-2.5 1.2-1c.7.7 2 1.2 3.1 1.2m240.7.7c0 4-1.3 5.8-2.9 4-.9-1.2-.9-2.1 0-4.1 1.6-3.4 2.9-3.3 2.9.1m-275.8 1q3.5 3.3 0 5.2c-2.3 1.2-4.2-.3-4.2-3.4q0-5.6 4.2-1.8m117.8 2.8c0 2.3-1.6 4.2-2.7 3.2-.3-.3-.2-1.9.2-3.6.8-3.5 2.5-3.2 2.5.4m-82 1.1q-.1 1.4-1.7 1.2c-2.5-.5-2.8-2.8-.4-2.8q2 0 2.1 1.6m73.9 21.9c-.4 6.6-.5 12.3-.2 12.7.2.5 1.9-.3 3.7-1.7s4.1-2.5 5.1-2.5c1.4 0 1.6-.5 1-2.7q-.9-3.2.9-1.4c1.2 1 1.6.9 2.5-.6.7-1.3.9-.2.6 4.2-.4 5.6-.7 6.3-5.1 10.2-3.7 3.5-5.3 4.3-8.4 4.3-7.4 0-10 1-11.5 4.6-.8 1.9-2.1 3.4-2.9 3.4l-2.3.1c-1.8.2-1.2-2 .6-2.6 2.5-.8 2.8-3.5.5-3.5-.9 0-2.2-.7-2.8-1.5-1-1.4-1.6-1.3-5.6.7a14 14 0 0 0-5.8 5c-1.6 3.3-3.2 3.6-3.2.7 0-3.3 3.6-7.5 8.4-9.8 3.7-1.7 5-1.9 7.7-.9 2.9 1 3.4.8 6.8-2.6 2-2 4.6-4.4 5.9-5.4 2.1-1.5 2.3-2.7 2.7-11.7.7-17.8.6-16.4 1.4-13.5.4 1.4.4 7.9 0 14.5M442 650.7c0 2.2-.8 3.2-3.6 4.6-2 1-3.9 1.6-4.1 1.3-.4-.4 6.5-8.6 7.3-8.6.2 0 .4 1.2.4 2.7m-291 3.8c1.9 2.3.1 3.9-2.1 1.9-1-.9-1.9-2.1-1.9-2.6 0-1.3 2.7-.9 4 .7m-111 2.2c-.1 1.5-3 4.6-3.7 4-.3-.4.2-1.6 1.2-2.7q2.7-3 2.5-1.3m211.8 3.2c3.6 2.5 4 3.6 1.6 4.5q-1.6.6-4.1-2c-1.9-2.1-3-2.5-5.5-2-1.7.3-4.1.6-5.5.6-1.3 0-2.6.7-3 1.7-.8 2.2-2.4 3.4-3.6 2.6-.9-.6 1.7-5.1 4.2-7.1 2.5-2.1 12.1-1.1 15.9 1.7m189.2 3q0 1-1 1.6-.9.4-1-.9.1-1.5 1-1.6 1 0 1 .9m-6.6 1.8a35 35 0 0 1 1.3 10.3c-1.9 0-3.7-3.7-3.7-7.6 0-4.4 1.4-6 2.4-2.7m-187.3 1c1.8 2.1 1.7 10.6-.1 12.8-.7.9-2.4 1.5-3.7 1.3-2.3-.3-2.4-.7-2.7-8.1l-.3-7.7h2.7c1.5 0 3.4.7 4.1 1.7m202.6 2.5q-.5 1.1-.6-.6t.5-1.3c.3.3.4 1.2.1 1.9M445 670q-.1.9-1.1 1-.8-.1-.4-1 .6-1 1.1-1 .4 0 .4 1m-208 1.4c0 .8-2.9 3.4-6.4 5.8s-6.7 5.1-7 6.2c-.2 1-1.1 1.6-1.8 1.4-4.1-1.4 1.2-11.2 7.2-13.4 4.8-1.7 8-1.7 8 0m20.3-.2c1.2.6 2.7 1.7 3.2 2.5s2.1 1.9 3.4 2.6q4.3 2 1 4c-2.3 1.4-11.8-5-11.8-8.1-.1-2.5 1-2.8 4.2-1m170.8 8.8c-.8 2.4-.7 3 .5 3q1.2.1 1.4 1.1.1.8 1.6-.5 4-3.9 1.4 2.1c-2.4 4.9-3.6 10.8-2.1 9.9 1.3-.9 1.4.4.2 2.3-.8 1.2-1.2 1.2-2.5.2a5 5 0 0 1-1.6-3.1q0-1.5-.6-2.3c-1.3-1.2-1-11.4.4-14.7 1.7-4.1 2.9-2.3 1.3 2m-174.8 3.1c-1.6 5.9-8.6 7.7-14.8 3.6-5.6-3.6-6.2-8.7-.6-5.4 1.6.9 5 1.7 7.5 1.7 4 0 4.8-.4 5.8-2.5 1.6-3.6 3.1-1.6 2.1 2.6m201.4 3.1q-.5 1.2-1.7 1c-1.9-.4-4 1.8-4 4.4 0 1.3-.4 2.4-1 2.4-2.1 0-.9-3.9 2.1-6.4 3.3-2.8 5.4-3.4 4.6-1.4m-16.7 1.7c0 1.7 3.4 2.2 4.6.7 1.8-2.5 2.3-.7.7 2.5-1.2 2.4-1.4 5.5-1 14.5.3 6.3.2 11.4-.3 11.4-.9 0-1.5-2.4-2.5-10a42 42 0 0 0-1.9-8.3c-1.2-3.6-1.3-3.6-2.3-1.5q-.9 2-1.5 1.2c-.7-1.2 2.2-11.4 3.3-11.4q.8 0 .9.9m-147 85.6c-1.1 2.5-1 3.7-1.4-39-.2-18.7 0-36 .3-38.5s.9 13.5 1.2 35.5a598 598 0 0 1-.1 42m-93-78.4q0 1.8-1 1.4c-.5-.3-1-1.3-1-2.1s.5-1.4 1-1.4q1 .1 1 2.1m-147.6 2c-.8 1.3-2.4.1-2.4-1.8q-.1-1.9 1.5-.3 1.3 1.2.9 2.1m395.8 4.1q-1.1 1-1.2.2c0-1.4 1.2-2.6 1.9-1.9q.3.6-.7 1.7M20.5 701q.4.9-.4 1-1-.1-1.1-1 0-1 .4-1t1.1 1m390.4 16.8c.7 4.1 2 9.1 3 11.2 1 2.2 1.5 4.4 1 5.1q-.7 1.3 1.4 2.4c1.8.9 2.6.9 4-.4 1.8-1.5 1.8-1.4.6 1.2-1.5 3.2-1.5 3.2-5.7.7q-3.6-2-2.7-3.8c.8-2.2.8-2.3 0-5q-.7-2.4-2.5-1.7-1.8.8-2.9-2.6c-.6-1.8-.7-3.8-.2-4.7q.7-1.5-.5-4.1c-1.8-3.4-1.8-6 .1-6.7q1.6-.7.6-1.8c-.6-.7-.7-2.3-.4-3.6.6-2.1.8-1.8 1.9 2.1.7 2.4 1.7 7.7 2.3 11.7M199 709.5c0 2.4-.4 4.7-1 5q-1 .4-1-5c0-5.4.4-5.4 1-5 .6.3 1 2.6 1 5m244.8 9.7q1.1 1.2 2.5 0c1.4-1.2 2.7-.6 2.7 1.2 0 .6-1 2.7-2.2 4.6a26 26 0 0 0-2.3 4l-.8 2.2-1.2 3.3c-.2.8-1.3 1.5-2.3 1.5s-2.7.9-3.7 2c-2.6 2.8-3 1.8-.9-2.2 1-1.8 1.8-3.8 1.9-4.3s.8-2.7 1.8-4.9c.9-2.1 1.7-4.9 1.7-6.2q0-3.9 2.8-1.2m-245.1 12q-.5 1-.5-1.2c0-2.2.2-1.9.5-1.3.2.7.2 1.9 0 2.5m-1.1 26 .2 28.1q.5 8.4-1.4 6.5c-1.4-1.5-.5-56.8 1-56.8.1 0 .2 10 .2 22.2M430 735.5c0 1.4-2.5 5.5-3.4 5.6-1.7.2-5-.2-5.5-.7-1-.9 4.4-5.4 6.6-5.4q2.1 0 2.3.5m50.8 20.7c2.8 2.3 1.3 3.8-3.5 3.6q-6.6-.1-1-.5c4.8-.5 4.4-2.7-.4-2.9-4.7-.2-5.1-.3-4.5-1.2.6-1.1 7.7-.3 9.4 1m-2 8.9q-1.8 1-3.5 0-2.4-1.2 1.7-1c4.1.2 3.2.1 1.8 1m-5.2 4.4q1.7 1.3.7 1.5c-2.9 0-1 2 2 2.1l3.2.1-3.3.9c-3.7 1.1-3.8 3-.1 3.9 2.4.6 2.4.6.2 1.2-2.7.7-3.9 7.1-2.9 15.9.3 3.6.2 5.9-.4 5.9s-1-3.4-1-7.9c0-10.5-2.5-12.4-8.7-6.8-1.9 1.7-2.3 1.8-2.3.5q-.1-3 5.8-4.5c3.8-.9 4.3-2.6 1-3.3-3-.7-3.9-5-1-5 2.4 0 4.8-2.5 3.2-3.5-1.1-.7-.5-2.5.9-2.5.4 0 1.6.7 2.7 1.5m13.2.2c-1.6.2-4 .2-5.5 0-1.6-.2-.3-.4 2.7-.4s4.3.2 2.8.4m-194.9 19.8a30 30 0 0 1-.7 8.1c-.4.7-.8-3.6-.9-9.5-.1-6.5.2-9.6.7-8.1.4 1.4.8 5.6.9 9.5m-33.2 7.9c.7.7-4.1 1-16.4 1.1-4.6 0-8.3-.3-8.3-.7 0-1.4 23.4-1.7 24.7-.4m20.3-.4q0 .9-1 1a1 1 0 0 1-1-1q.1-1 1-1t1 1m54.7-.4q-.6.5-1.9.1-1.1-.5.6-.6t1.3.5m-285.8 1.5c2.7.6 5.5 1.7 6.2 2.5 1.4 1.7.8 1.7-6.4.3-4.7-1-6.3-.9-9.7.5-8 3.2-11.4 1-3.7-2.4 4.9-2.3 6.8-2.4 13.6-.9m109.6.1c4.4-.1 11-.4 14.7-.7 6.9-.7 17.4.2 16.3 1.4-.4.3-4.6.7-9.3.8-11.9.4-17.1.9-21.3 2-2.5.7-6.3.6-13-.3-14.5-2.1-15.9-2.4-15.9-3.6 0-.7 3.1-.8 10.3-.3 5.6.4 13.8.7 18.2.7m114.5-.8c0 .8-5.1 1.3-5.6.5-.3-.5.9-.9 2.5-.9s3.1.2 3.1.4m71.4.6q-1 1-5 .1l-3.9-.9 5-.1q5-.1 3.9.9m98.6 1.1c0 1.2-26.5.7-27.7-.5a74 74 0 0 1 13.5-.6q14.3 0 14.2 1.1m12-.1q0 .9-1 1a1 1 0 0 1-1-1q.1-1 1-1t1 1m-348.2 1.2c6 1.5 5.2 2.9-1.5 2.7-7.3-.3-14.3-1.8-14.3-3s10.2-1 15.8.3M27 802q0 .9-.7 1L16 804c-5.2.6-10.8.7-12.5.3-2.6-.6-2.2-.8 3.5-1.7 9.3-1.6 20-1.9 20-.6m196.5.5c-2.9 1.3-2.9 1.4-.8 2.2 1.2.4 7.3.5 13.5.2 11.2-.7 12.8-.6 11.4.8-1.6 1.6-44.7 2.4-56.6 1l-7.2-.6c-1.6-.1-2.8-.6-2.8-1.2 0-.9 2.2-1 7.4-.6q7.5.5 8.5-.6c.9-.9 1.6-.6 3 1.2 1.7 2.2 2.2 2.3 8.2 1.7 9-1 11.9-1.6 11.9-2.7 0-.5-2.1-.9-4.7-1-10.3-.2-9.6-1.7.7-1.7 9.6 0 10.2.1 7.5 1.3m54.8.2c-.7.2-1.9.2-2.5 0q-1-.5 1.2-.5c2.2 0 1.9.2 1.3.5m49.4-.1q-.6.5-1.9.1-1.1-.5.6-.6t1.3.5m10.9.5c5.6 1.1 9.6 2.9 6.3 2.9a95 95 0 0 1-15.7-3.4c-.9-.9 3-.7 9.4.5m116.9.9q.4 1-3.2.9c-3.8-.1-3.8-.1-.8-.9l3.2-.9q.3 0 .8.9M123 805c0 1.4-1.6 1.9-7 2.4a94 94 0 0 1-34.5 1.6l-2-.9 2-.1 11.5-.6c5.2-.2 10.4-.9 11.5-1.4s5.4-1.1 9.5-1.3l8.3-.5q.7 0 .7.8m47.3-.3c-1.3.2-3.5.2-5 0-1.6-.2-.5-.4 2.2-.4q4.4 0 2.8.4m276 0c-1.3.2-3.5.2-5 0-1.6-.2-.5-.4 2.2-.4q4.4 0 2.8.4m39.5 0c-1 .2-2.8.2-4 0q-1.8-.4 1.7-.4 3.5-.1 2.3.4m-163.9 1.7q1 .8.6 1.5c-.5.9-15.4-1.4-16.4-2.5-.8-.9 14.3.1 15.8 1M150 808.5c0 .5-1.3.9-2.8.9l-10.7-.4c-5.8-.1-7.3-.4-5.5-1 3.5-1.2 19-.7 19 .5m115.2 1.5c3.9 0 6.9.3 6.5.6-1.8 1.9-43.5 2.7-43.9.9a153 153 0 0 1 37.4-1.5m157.1-.3c-.7.2-2.1.2-3 0q-1.4-.5 1.2-.5t1.8.5m22.5.4q-1.8 1-11.5.1l-9.8-.9 11.5-.1c8.2-.1 11 .2 9.8.9m-387.3.9q2 .9-6.7.9c-5.3.1-8.8-.3-8.8-.9 0-1.2 12.7-1.2 15.5 0m233.5-.6c0 .8-6 1.2-7.2.4q-1-.7 3-.8c2.3 0 4.2.2 4.2.4m43.5.6q.4 1-4.7.9c-4.5-.1-4.9-.3-2.3-.9 4.4-1.1 6.3-1.1 7 0m17 0q3.2 0 1.5.9c-2 1.2-13.1.1-12.4-1.1.4-.6 2.3-.8 4.3-.4 2 .3 5 .6 6.6.6m28 .1c11.1.2 1.7 1.6-11.7 1.8-9 .1-12.8-.2-12.8-1q.1-1 2.3-.6c1.2.3 3.8.2 5.7-.3s5.1-.7 7-.5c1.9.3 6.2.5 9.5.6"/><path d="M224.4 12.1c-.4.7.4 2 1.7 3 2.3 1.7 2.5 1.7 4.6-.3 1.2-1.2 2-2.5 1.7-2.9-.8-1.3-7.2-1.1-8 .2m12.4 4.4a25 25 0 0 0-3.8 5.1c0 .4 1.5 2.6 3.4 4.8 3.2 4 3.7 4.2 9.5 4.4q6 .3 6.1-.9c0-1.9-9.4-17.9-10.5-17.9-.5.1-2.7 2-4.7 4.5m11.9-3.9c-1 1.1 6 13.4 7.6 13.4a67 67 0 0 0 4.7-13.2c0-.9-11.4-1.1-12.3-.2m-21.5 14.6c-2.1 2.1-1.3 3.8 1.7 3.8 3.5 0 4.8-1.5 3.1-3.5q-2.3-2.7-4.8-.3M275 44.1c-19.6 11-25 14.1-25 14.4 0 .6 9 6.5 9.9 6.5q.9.1 2.1 1.4 2.5 3.2 6-3.6c1.1-2.2 3.4-5.1 5-6.5s3-2.9 3-3.4 1.4-3 3-5.6c4.7-7.4 4.2-7.8-4-3.2m-63-1.5c0 .4 1.7 3.7 3.9 7.4a49 49 0 0 1 4.5 10.2c.3 1.9 1.5 4.3 2.7 5.4 1.9 1.7 2.1 1.7 8.7-1.8a27 27 0 0 0 7-4.7c.2-.5-1.4-1.9-3.5-3L222.1 48c-9.6-6.2-10.1-6.5-10.1-5.4m102.7 5.1c-1.3 1.3-.7 5 1.1 6.6 4.1 3.7 5.5 1.1 2.5-4.2-1.8-3.2-2.5-3.6-3.6-2.4m-141.5 5q.2 4 2.1 4.1c1.6.3 1.8-.2 1.5-3.5q-.2-4-2.1-4.1c-1.6-.3-1.8.2-1.5 3.5m35.5 0c-.6 3.3-.1 4.3 1.9 4.3q1.6.1 1.2-3.2c-.4-4-2.4-4.7-3.1-1.1m94.4-.8c-.8 1.4-.4 2.4 1.7 4.5 1.6 1.4 3.1 2.6 3.5 2.6 1.3 0 .7-4.5-.9-6.8-1.9-2.7-3-2.8-4.3-.3m-10.9 5.3c-1.8 1.8-1.5 2.6 1.8 4.3 6 3.1 8.4.6 3-3.3-3.4-2.6-3.3-2.5-4.8-1m-13.8 1.2c-.8 2.2.3 3.3 1.8 1.8q1.3-1.2 0-2.4-1.2-1.4-1.8.6M234.6 67c-9.9 6.2-10 6.3-9.2 9.4.7 2.8 2.6 3.6 2.6 1.1 0-2.6 1.7-1.7 3.1 1.6 1.1 2.8 1 3.3-.4 4.4q-1.5 1.2-1.7 1.9c0 .4 6.4.5 14.2.4l14.1-.3 1.4-4.7c.7-2.6 1.8-5 2.3-5.3 1.9-1.2 1-2.4-4.2-6.3-6-4.4-11.1-7.2-13-7.2-.7.1-4.9 2.3-9.2 5m33-1.1q-.6 1.2-.2 1.8c.9.9 1.9-.4 1.4-1.8q-.4-1.6-1.2 0m-51 5q-.6 1.2-.2 1.8c.9.9 1.9-.4 1.4-1.8q-.4-1.6-1.2 0M261 81q.1.9 1 1 1-.1 1-1t-1-1a1 1 0 0 0-1 1m-40.8 2.2q-2.6 2.7.6 2.8 3.6 0 2.5-2.6-.8-2.6-3.1-.2m-15.7 2.4c-1.9 1.5-1.9 1.5 1 1.2 1.7-.2 2.9-.7 2.8-1.3q-.6-2.3-3.8.1m78.5.4q.1.9 1.6 1 1.3-.1.9-1-.6-1-1.6-1-.8 0-.9 1m-37.3 5.7c-6.2.3-8.3.8-10.2 2.5-2.9 2.5-3.1 4-1 5.8 1.2 1 2.7 1.1 6.2.3s5.7-.8 9.1.2l4.4 1.4-.6-2.5c-.5-2-.2-2.6 1.9-3.4q2.6-1 2.3-2.8c-.4-1.9-1-2-12.1-1.5m87.3 2.4q.1.8 1 .4t1-1.1q0-.3-1-.4-.9.1-1 1.1m-7 3.9q-1.3.9-.7 1.6c.4.4 1.5 0 2.4-.9 1.8-1.8.8-2.3-1.7-.7m-85.7 5.5c-4.7 2.1-4.2 3.6 1 3l4.2-.5-3.7 1.6c-5.7 2.5-4.9 4.1 1.9 3.9 4.2-.2 5.9-.7 7-2 1.7-2.4 1.7-6.5-.1-6.5-.7 0-2.6-.2-4.2-.5s-4.4.2-6.1 1m15 7.1c-.6 1.7 3.3 6.4 5.3 6.4 2.6 0 2.5-2.3-.2-5.1-3.1-3.3-4.2-3.6-5.1-1.3m-26.9 3.9c-1.4 2.7-1.6 3.9-.8 5.3q2.7 4 4.8-1.8c2.3-7-.7-9.7-4-3.5m80.1-.5c-.8 1.3.4 3.2 1.6 2.5s1.2-3.5 0-3.5q-1 0-1.6 1m-54.4 15.8-5.3 5.9c-3.4 3.7-4 9.3-1.4 12.2 1.3 1.4 1.5 2.8 1 5.9s-.2 4.7 1.5 7c1.8 2.5 1.9 3.1.6 3.6-.8.3-1.5 1.4-1.5 2.4 0 3.9 8.7 8.6 11.5 6.2q3.7-3.2-2.1-4.4c-1.9-.4-3.8-1.4-4.1-2.2q-1.2-3.3 2.8-1.4c6 3.3 17.9-5.3 17.9-13 0-3.5-4.2-2.2-5.2 1.6-1.6 6.3-9.6 10-13.9 6.5-2.1-1.7-2.2-2.1-1.1-6 1.5-4.9 2.8-5.6 11-6.5 9.1-.9 15.2-4.6 15.2-9.3 0-2.3-.1-2.3-2.7-.8-1.6.8-3.9 2.4-5.3 3.5a18 18 0 0 1-9 2.6c-3.6.4-7.5 1.2-8.7 2-1.7 1.1-2.3 1.1-3.2.1q-2.4-3 4.1-11.1c2.1-2.7 3.7-5.4 3.5-6-.7-2.1-3.2-1.6-5.6 1.2m-31-.4c-.9 1.1-.4 2.1 2.5 4.7 7 6.4 8.2 8 8.9 12 1.1 6.3 5.5 4.5 5.5-2.3 0-3.4-.6-4.2-7.2-9.8-4-3.3-7.6-6-7.9-6q-.7.1-1.8 1.4"/><path d="M258.7 151.7c-1.3 1.2-.7 5.1.9 5.7s5.4-.9 5.4-2.4c0-3.3-4.2-5.5-6.3-3.3m-28 27.4c-2 1.2-2.3 2.9-.3 2.9 1.7 0 4-2.6 2.9-3.3q-1-.4-2.6.4M261 191c-1.3.9-1.1 1.3 1 3 4.2 3.2 7.9 4.5 9.3 3.1.9-1 .4-1.9-2.3-4.2-3.6-3.1-5.5-3.5-8-1.9m-83.2 85.1c-3.5 2-1.5 4.9 3.3 4.9 2.4 0 2.7-4.5.3-5.4-1.9-.7-1.5-.8-3.6.5m119.7 89.3c-1.6 1.2-1.7 1.6-.6 3 1.8 2.1 2.8 2 4-.3 1.5-2.7-.9-4.6-3.4-2.7m-20.4 1c-.9 1.1-1 2-.1 3.6 1.3 2.4 3.8 2.3 5.3-.1 2.3-3.7-2.5-6.8-5.2-3.5m-35.9 3.6c-1.8 1.1-3.1 2.4-2.8 2.9s2.6 1.4 5.1 2c4.8 1.2 5.9 2.8 2.3 3.3-4 .6-3.3 2.8.9 2.8 9.6 0 11.6-9.4 2.5-12-4.7-1.3-4.1-1.3-8 1m-29.2 3.8q-2 1.7-1.5 3.4c1.5 4 6.5 2.7 6.5-1.7 0-3-2.4-3.8-5-1.7m74.3-.2c-.9 2.3 2.5 4.8 4.4 3.3.7-.6 1.3-2 1.3-3 0-2.4-4.8-2.6-5.7-.3m-16.8 1.4c-1.5 1.6-1.5 2.2-.5 3.5 2.8 3.4 8.1.5 6-3.4q-2-4-5.5-.1m-42 2.4c-1.6 1.2-1.8 1.9-.9 3.2q2.4 4 4.4.3c1-1.7.9-2.4-.2-3.5s-1.7-1.2-3.3 0m25 9c-1.9 1.4-1.9 1.6-.2 3.3s1.8 1.6 3.4 0c1.5-1.5 1.6-1.9.2-3.2-1.3-1.3-1.7-1.3-3.4-.1m-12.3 6.3c-1.2 2.4-.4 4.3 1.8 4.3s4.4-2.6 3.6-4.5c-.7-2.1-4.3-1.9-5.4.2m61.4-117.4c-2.5 1.8-1.5 4.4 1.9 5.3q5.9 1.4 5.3-3.3-.1-3-2.8-3.1c-1.4-.2-3.4.3-4.4 1.1M261 237.4c0 .8.5 1.8 1 2.1q1 .3 1-1.4 0-2-1-2.1-.9.1-1 1.4m185.3 125.8q.5 1.2 1.7 1.3c1.2.1 1.5-.6 1.8-1.3q.2-1.1-1.8-1.2c-2-.1-2 .5-1.7 1.2M321 460.3c0 1.9 5 4.1 6.3 2.8q.8-1-2.1-2.5c-3.8-1.9-4.2-2-4.2-.3m-4 2.1c0 1.5 5.7 4.3 6.7 3.3.7-.8-3.7-4.6-5.4-4.7q-1.2.1-1.3 1.4m-4 3.1c0 1.9 6.1 4.6 7.5 3.3q.9-1-1.5-2.8c-3-2.3-6-2.6-6-.5m-3 3.3c0 .7 6.3 4.2 7.5 4.2 1.6 0 .1-2.9-2-3.8-3-1.4-5.5-1.5-5.5-.4m-7.5 4.2q-2.7 3-1.9 3.9c1.3 1.3 10.3 1.8 10.5.6q.3-1 1.8-2.2c1.4-1 1.4-1.2-.4-1.8l-4.6-2c-2.4-1.3-2.8-1.2-5.4 1.5m-3 9c-.6 1 .1 1.4 4.6 2.4q4.9.9 2.8-2.1c-1.3-1.5-6.5-1.8-7.4-.3m-3.2 5.9q-1.2 1.9-.3 2.6.9.6-.2 2.5c-1 1.5-1 2.2-.1 3.1s2.2.3 5.4-2.9c2.2-2.3 3.9-4.7 3.7-5.4-.3-.7-2-1.4-3.9-1.6-2.5-.2-3.7.2-4.6 1.7m-139-38.2c-3.1 1.6-4.5 4.3-2.3 4.3.6 0 2.7 1.6 4.6 3.5q3.6 3.7 5.4 3c1-.3 2.8 0 3.9.7 1.7 1.1 2.3 1 3.7-.4 2.1-2 .9-4.4-4.8-9.2-4.6-4-5.8-4.2-10.5-1.9m-20.8 8.4q-.6 1-.1 1.6c.8.8 3.6-.5 3.6-1.7 0-1.3-2.7-1.3-3.5.1m37.8 8.6c-2.2.8-1.5 5.8 1.2 8.3 2.4 2.2 2.7 2.3 4.2.7 1.6-1.5 1.5-1.9-.3-5.3-2-3.9-3-4.6-5.1-3.7m-16.7 16.2c-.9 1.4 3.2 10.8 4.9 11.5.7.2 2.1-.1 3.1-.8 1.7-1.3 1.7-1.6-.2-6.2-1.6-3.9-2.6-5-4.6-5.2-1.4-.2-2.9.1-3.2.7m178.6 28.3c-1.4 1.4-1.6 3.8-.3 3.8 1.5 0 4.2-3.1 3.6-4.1q-1.2-1.8-3.3.3m72.4 4q-2.5 12.6 1.7 6.5c2.3-3.6 2.6-8.1.5-8.5q-1.7-.3-2.2 2m-73 2.6c-.9 1.5 2.7 10.2 4.2 10.2q1.5 0 .7-2.3l-1.4-5.1c-.7-3-2.5-4.4-3.5-2.8m54.9 9.2q-.4 1 .8 1.6c2.5.9 10 0 10.5-1.4.5-1.5-10.4-1.7-11.3-.2m18.9 2.1a24 24 0 0 0-1 7.4c-.1 3.3-1.1 11.6-2.4 18.4-2.1 11.2-2.2 12.9-1 19.5.7 3.9 1.6 7.5 2 7.9s1.9-1.4 3.3-4.2c3.3-6.1 11.7-19.1 15.1-23.2s3.3-5.7-1.1-10c-2.1-2-5.4-5.7-7.3-8.4-6.8-9.1-6.6-9-7.6-7.4m21.9 15.6q-1.2.5-1.3 1.9-.1 1.5 4.5 1.4c4.6-.1 4.5-.4 4.5-1.4 0-2.2-4.4-3.3-7.7-1.9m-58.4 36.2q-4.3 3.2 2.8 4.4 6 1.1 2.9-3.8c-2-3-2.7-3.1-5.7-.6M359 603.6c0 2.4 9.6 10.7 15.1 13.1 5 2.2 17.1-2.1 13-4.7-.9-.5-2.2-.5-3.1 0-4.2 2.3-15.6-1.5-20.4-6.9-1.8-2-4.6-2.9-4.6-1.5m-82.5 3.4c1.8 3.4 3.5 3.9 3.5 1q0-2 1.5-1.4 1.4.6 1.5-.4c0-1.2-2.4-2.2-5.6-2.2-2.4 0-2.4.1-.9 3"/><path d="M364.4 615.5c-.4.9.6 3.5 2.2 5.8 2.1 3.3 2.8 5.5 3 10.2l.3 7.2c.1.6 1.2 2.5 2.6 4.1 2 2.4 2.5 4.1 2.5 8.5 0 3.1.4 6.6.9 7.9s1.2 3.5 1.5 5q.7 2.6 1.6 2.8c.7 0 .8-3.7.4-10-.7-10-.7-10.1 2-12.9q2.7-2.9 4.2-9.2a97 97 0 0 1 2.9-10.2q3-7.3-.2-6.5-1.8.4-4 6.8c-1.3 3.6-2 5.1-1.7 3.3.5-3.1-.9-5.3-2.1-3.3q-.8 1-2-.7c-1.7-2.3-2.5-1.4-3.2 3.6-.7 4.7 1.6 9.1 4.7 9.1q3.5 0 .8 2.8c-1.5 1.5-5.5 1.6-6.4.1-.4-.7-.8-4.5-1-8.6-.2-6.3-.7-8.1-3.4-12.4-3.4-5.1-4.7-5.9-5.6-3.4m22.6 93.3q.1 4.7 2 3.7c.9-.6 0-6.5-1.1-6.5-.5 0-.9 1.3-.9 2.8m9-1.3q.1 1.3 1 1.5 1-.2 1-1.5c0-1.3-.4-1.5-1-1.5q-.9.2-1 1.5m-36.6 3.2 1.4 6.8c.8 4.3 3.9 5.9 3.5 1.7q-.3-2.3 1.6-2.2c1.9 0 3.1-2.5 2.4-4.8-.8-2.1-2.2-1.3-2.6 1.5s-.4 2.7-2.3-1.4c-2.2-4.9-5.1-6-4-1.6M391 716q.1.9 1 1 1-.1 1-1t-1-1a1 1 0 0 0-1 1M115.2 529.2q-1.2 1.1-.1 2.5c1.8 2.1 4.1 1.6 3.7-.9-.4-2.6-1.9-3.3-3.6-1.6m-47.1.7c-1.2.8-1.2 1.2-.2 2.5 2 2.4 4.3 2 3.9-.6q-.6-3.8-3.7-1.9"/><path d="M83.6 529.7c-.3.3-.6 1.4-.6 2.4 0 4.1-10.9 9.7-16.4 8.3-3.2-.8-4.7-2.6-5.5-6.7-.8-3.7-4.1-5.2-4.1-1.7s3.7 9.4 7.4 11.9c3.1 2 4.3 2.3 8.7 1.7 2.8-.4 6.2-1.4 7.4-2.2 2.8-1.8 5.5-7.2 5.5-10.7 0-2.6-1.2-4.2-2.4-3m13.9 56.7c-2.2 1.6-1.6 2.5 2.7 4.4 2.1.9 2.9.8 3.9-.4 2.9-3.5-2.8-6.8-6.6-4M90 621.5c0 .2 1.8 2.3 4 4.7s4.4 5.4 4.8 6.8a309 309 0 0 1-.6 48.7l-2.4 14a70 70 0 0 1-2.9 11.6q-3.3 8.6-.5 10.4 3.3 2.1.4 13.5c-1.1 4-2.3 9.4-2.8 12a31 31 0 0 1-1.5 5.8c-.4.6-1.1 3.9-1.6 7.3-3.3 21.9-3.4 26.7-.5 26.7 1.1 0 1.4-2.2 1.3-9.7 0-8 .6-11.9 3.2-21.3 6.1-22 7.6-33.1 4.9-35.8-.8-.8-.6-2.5.9-6.9 4.2-11.9 6.2-26.1 7.2-52.5.7-18.4.9-19.9 2.9-22.1 1.2-1.3 2.2-2.8 2.2-3.3s1.4-2.7 3.1-4.7c4.6-5.6 2.3-6.2-4.3-1.1L102 630l-1.6-2.5c-2.3-3.5-10.4-8.2-10.4-6M83.5 786q-.6 1.1.3 2.2 1 1 1.7-.2t-.3-2.2-1.7.2m61-174.7c-1.4 1.1-1.6 2.2-1 6.5q.9 8.3 4.9 3.3c1.3-1.4 1.6-2.8 1.1-5.5q-1.4-6.8-5-4.3m11 26.7c-.9 1.4 1.3 5 3 5 1.8 0 2-3.1.3-4.8q-2.2-2.2-3.3-.2m12.5 20c0 2.1 3.1 7 4.4 7q3 0 1.6-3.1c-2.1-3.8-6-6.4-6-3.9m20.7 18.6c-.8.8.2 3.5 2.1 5.6 1.1 1.4 1.8 1.5 2.9.7q2.9-2.7-.9-5.3c-2.4-1.7-3.2-1.9-4.1-1M206 689c0 1.1 4 3.4 4.7 2.6q.5-.6 0-2.1c-.7-1.6-4.7-2.1-4.7-.5m89.7-12.2c-2 2.2-2.2 6.2-.4 6.2 2.1 0 6-4.7 5.4-6.4-.8-2.1-3-2-5 .2m170.5 99.4c.5 1.5 3.7 1.8 4.1.3.1-.6-.9-1.2-2.2-1.3q-2.4-.4-1.9 1m18.1-732.4c-3 2.5-3.3 3.3-3.6 9.2-.2 5.2-1.1 8.1-4.1 14-2 4.1-5 8.8-6.5 10.5a59 59 0 0 0-5 6.2c-1.2 1.7-3 3.5-4.1 3.8-2.2.7-2.7 3.1-.7 3.8 1.7.6 6.5-2 7.7-4.3.6-1 3.2-4.7 5.8-8.2C481 69.5 487 58 487 53.7q0-3.6 2.6-6.6c4.8-5.7.6-8.3-5.3-3.3m-31.1 51.1c-1.8 2.5-2.7 2.9-6.2 2.7-4.1-.2-6.7 1.4-5.5 3.4 1 1.6 9.4 1.2 12.5-.7 3.2-1.9 5.6-5.6 4.6-7.2q-1.9-2.8-5.4 1.8m-30.4 6.7c-1.8 1.7-.6 4.6 2.7 6.5 2.8 1.7 3.5 2.7 3.5 5.2 0 1.6 2 8 4.4 14.1 6.2 15.6 8.1 21.5 11.5 34.6 3.3 12.4 4.3 15.5 9.1 27 1.7 4.1 4.9 14.5 7.1 23s4.8 18 5.8 21a187 187 0 0 1 7 24.4c2.2 10 3.5 12.1 5.7 9.2 2.4-3.4 1.3-11.5-4-27.6a649 649 0 0 1-7.1-26.5 329 329 0 0 0-8.7-29.5c-2.2-5.8-5.3-15.4-6.9-21.5l-2.9-11 2.6-2 2.5-2-1.5-7.5c-.9-4.1-2.5-10.4-3.6-14l-3.2-11.4c-1.4-5.3-3.9-7.9-5.9-5.9-1.2 1.2.6 11.1 3.7 20.1a28 28 0 0 1 1.4 5.4c0 4.7-8.1-15.4-8.9-22.1-.5-4.2-1.2-5.8-3.1-7.2-2.7-2-10.1-3.5-11.2-2.3"/><path d="M423.2 117.2c-.6 1.3-1.3 5.6-1.6 9.6q-.6 7.4-3.1 12.2c-2.6 5-5.7 17.8-4.7 19.4 1.4 2.4 7.9-15.8 10.2-28.9.7-3.9 1.9-8.5 2.6-10.4 1.7-4.2 1.8-4.1-.4-4.1-1 0-2.4 1-3 2.2M100.9 833c-2.5.4-10.8.8-18.6.8a87 87 0 0 0-15.2.6c-1.2.8-1.4 3.6-.3 5.2.4.6 1.9 1.4 3.5 1.8 2.3.5 2.9.3 3.7-1.9s1.6-2.5 4.9-2.5c2.1 0 4.3.6 4.9 1.3s1.1 6.4 1.1 13c0 9.1-.3 12.4-1.5 14.2-2.5 3.8-1 4.6 7.8 4.3 8.6-.3 11.3-1.9 6.4-3.8-2.6-.9-2.7-1.2-2.5-8.7.1-4.3.3-10.4.6-13.6l.5-5.7h4.8c3.9 0 4.9.4 5.3 2 .7 2.8 3.5 2.5 4.3-.6.8-3.3-1-7.4-3.3-7.3zm181.5-.1c-1.1 1.1-.2 2.9 1.6 3.4s2 1.4 2 14c0 12.2-.2 13.6-2 15.2-1.1 1-1.7 2.2-1.3 2.6.7.6 19.6 1.4 24.1 1 1.6-.1 7.2-5.5 7.2-7 0-1.8-4-1.3-6.7.9-1.9 1.5-4.1 2-8.5 2h-5.9l.3-6.7q.4-6.5 1.6-7.1 1-.2 1.2 1.2c0 .8.9 2 1.9 2.6 1.6.8 2.3.6 3.5-1.2 2-2.9 2-8.2 0-9.9-1.3-1-1.9-.8-4.1 1.5q-4.7 5.2-4.1-3.5l.3-4.4h4.5c3.8 0 4.5.3 5 2.4.3 1.4 1.1 2.6 1.7 2.8 1.4.5 4.3-3.5 4.3-5.8 0-3.5-2.9-4.4-14.7-4.4-6.3 0-11.6.2-11.9.4m-166.7.7q-.5.8.3 2.4c.5.9 1 7.9 1.1 15.5.2 12.1 0 14-1.6 15.1-3.1 2.3-.7 3.5 6 3.1q10-.5 6.5-2.7a31 31 0 0 1-2.4-14.2c.6-1 7.4-1 12.7-.1l3.9.6-.5 6.1-.8 8.1c-.4 1.8.2 2 6.9 2.3 3.9.2 7.2-.1 7.2-.5q-.2-1-2-2.6c-1.8-1.5-2-2.9-2-15.5 0-8.2.4-14.2 1-14.8 1.8-1.8-1.5-3.5-6.2-3.2-3.6.3-4.3.6-4 2.3 1.8 13.6 1.5 14-8.5 12.8l-6.8-.8v-14l-5-.3c-2.8-.2-5.4 0-5.8.4m48.8.2-5.1.3-.2 15.7c-.2 9.5-.7 16.2-1.4 17-2.1 2.5.7 3 13.4 2.3 12.3-.6 12.8-.7 15.7-3.5 2.4-2.3 2.8-3.3 2-4.3-1.6-1.8-2.4-1.7-5.5 1.2-2.4 2.2-3.6 2.5-8.3 2.3l-5.6-.3-.3-5.8c-.2-4.4 0-5.7 1.1-5.7q1.4.1 2 2.1c1 3.9 3.2 1.5 3.1-3.5 0-5.2-1.6-7.8-3.6-5.8q-3.2 3.4-2.6-3.1l.3-4.2 5.2-.3c4.4-.3 5.3 0 6.7 2 2.3 3.2 4 1.2 2.8-3.3l-.8-3.4h-7c-3.8 0-9.2.1-11.9.3m71.8.6c-.3.5.5 1.7 1.8 2.7 2.3 1.7 2.4 2.1 2.1 15.1-.2 11.1-.5 13.5-1.9 14.5-1.9 1.5-1.8 1.5 5.7 1.3 10.6-.3 24-2.6 26.8-4.7 5.3-3.9 6.7-7 6.6-13.9-.1-7.4-1.9-10-8.9-13.7-3.4-1.7-6-2-17.8-2.1-7.7-.1-14.1.3-14.4.8m27.5 7.9c4.3 4 2.3 16.4-3.2 20.1-3 1.9-8.2 2.4-9.7.9a74 74 0 0 1-1.4-21.4c.6-2.7.8-2.7 6.3-2.2q5.7.6 8 2.6m51.6-8.2q-.5 1.3 1.3 2.8c2.6 2 4.1 5.1 8.8 17.9 3.1 8.4 3.5 10.5 2.5 11.8-2 2.3-.2 3.2 7 3.6 5.5.2 6.5 0 6.8-1.5q.2-1.6-1.2-1.7c-2.9 0-2.6-2 2.5-13.7l6.5-15.1c1.2-2.6 1.2-3.3.2-3.6q-9.9-3-6.7 2.1c.8 1.4.4 3.4-2.4 9.8l-4 9.7q-1.7 4-3.5-1.5c-3.6-11.6-4.5-16.7-3.3-18.1.7-.8 1-2 .6-2.6-.9-1.4-14.2-1.3-15.1.1m45.1-.1c-.3.5.1 2 .9 3.2 1.2 1.8 1.4 4.5 1 11.8a73 73 0 0 1-1.9 18.3q-1 1.8 1.8 1.7c1.3 0 3.7.2 5.3.5s3.6.1 4.3-.4c1.3-.8 1.2-1.4-.3-4.3-1.6-2.9-1.8-5.1-1.4-14.8.3-6.3.8-12.3 1.3-13.2q.9-1.8-2-2.8c-3.3-1.3-8.2-1.3-9 0m21 0c-.3.5.4 2.3 1.5 3.8 2 2.7 2.1 3.9 1.8 15-.3 10.7-.5 12.3-2.3 13.6-1.6 1.2-1.7 1.6-.6 3s3.3 1.5 12.9 1.3l11.5-.3 3.4-3.9c1.8-2.2 3.2-4.6 3.1-5.4-.5-2.7-3.5-2.3-6.4.8-3.3 3.4-9.4 5-11.2 2.9-2.3-2.9-1.6-25.3 1-28.5q.8-1.2.3-2.3c-.8-1.3-14.2-1.3-15 0m59.2 27.6c-1.2 1.2-.8 5.1.7 6.4 3.5 2.8 9.3-1.1 7-4.8-1.1-1.7-6.4-2.9-7.7-1.6"/></svg>