<svg xmlns="http://www.w3.org/2000/svg" width="666.7" height="1170.7" viewBox="0 0 500 878"><path d="M0 122.9v122.9l4.1.7q7.7 1.3 5-3.9c-1.7-3.1-.9-4.4 3.6-5.2 3.2-.6 4-.3 6 2 1.3 1.5 2.3 3.3 2.3 4 0 2.6 2.6 3.8 5.3 2.5 2.1-.9 2.9-.8 5.4 1 2.7 2 6.3 2.1 6.3.1 0-.5 1.2-2.2 2.6-3.9 3.2-3.9 4.8-9.4 3.5-12-.6-1.1-2.6-2.2-4.8-2.5C33 227.5 32 227 32 225c0-2.5-5.4-8-7.8-8-1.1 0-2.7-1.1-3.6-2.5s-2.3-2.5-3-2.5c-2.7 0-4-8.4-2.7-17.8 1.8-13.2 2.6-15.2 8.1-21 5.8-6.1 13.7-10.2 19.5-10.2 3.7 0 4.1.3 5.7 4.1 1.7 3.9 1.8 4 5.5 3.4 5.8-1 6.3-1.3 6.3-3.5 0-2.5.8-2.5 3.6.1 2.3 2.2 5 2.6 9.5 1.4q5.3-1.4 6.9 10.8c.9 6 .8 6.3-2.1 9.3-2.7 2.8-2.9 3.5-1.9 5.4 1.1 2 .9 2.5-1.1 4.1s-2.1 1.9-1 3.3c.7.9 1.8 1.6 2.4 1.6s2.3 1.4 3.7 3.2l2.7 3.2 4.2-1.9c2.3-1 5.1-3.2 6.3-4.7 1.8-2.7 2.4-2.9 6-2.3 3 .5 4.4.3 5.8-1 1.8-1.6 2.1-1.5 6 1.6 3.7 3.1 4.1 3.8 3.7 7q-1 7 4.3 6.9 2.9 0 4 2.1c.9 1.6 1.7 1.9 4.1 1.4 1.6-.4 2.9-.2 2.9.3 0 1.6 3.2 2.3 4.7 1 .8-.6 1.2-2.1.9-3.2-1.3-4.9 3.9-14.7 8.5-16.1 2.3-.8 9.5 2.9 10.9 5.5.6 1 .8 3.7.4 5.8q-.6 3.9.9 6.9c2.1 4 .2 16-3.1 19.5-3.1 3.3-2.8 4.5 1.5 6.3 4.4 1.9 6 1.4 7.3-2 1.2-3.2 3-3.9 7.4-3.1 2.6.5 3.6 1.2 3.8 2.9.2 1.8.9 2.2 3.4 2 3.2-.3 3.2-.2 4.3 6.1.6 3.5.9 7 .6 7.7a391 391 0 0 0-1.4 36.6l-.1 12.2-4.2.3c-3.4.2-4.4.8-5.8 3.3-3 5.4-11.1 5.7-9.4.3.6-2.2-5.4-6.8-9-6.8q-2.7 0-3.5 2.2c-1.9 5-11.7 9.1-14.3 6.1q-1.2-1.4 0-2.5c1.7-1.7 1.5-4.8-.3-5.4-2-.8-6.3 1-9.9 4.1-6.1 5.2-13.3 2.6-17.1-6.3-1.6-3.6-1.7-4.9-.7-7.6 1.6-4.4 1.5-6-.6-7.9-4.1-3.7-10.9-.3-9.6 4.8.7 2.9-5.3 5.8-10.2 4.9a8 8 0 0 0-6 1c-2.4 1.7-2.7 1.6-6.9-.9a18 18 0 0 1-5.5-4.4c-.5-1-.9-5.2-.8-9.3s-.1-7.9-.5-8.5c-.5-.7-2.1-.7-5.6.1-5.1 1.1-9.1 3.9-9.1 6.3q-.1 1.2-1.5 1.3c-1.9 0-2 2.6 0 3.3 1.7.7 1.3 10.1-.8 16.2-1.8 5.1-8.7 9.5-14.6 9.2-3.2-.1-4.7.5-6.9 2.6-3.6 3.5-5.7 3.4-11.6-.3-5.2-3.3-8.6-3.3-8.6.1 0 2.4-2.7 2.5-5.2.2-1.7-1.6-1.8-1.1-1.8 11.9v13.5l3.7.6c8.6 1.2 12.1 4.9 12.8 13.7l.7 5c.7 3-3.9 2.2-7.4-1.3a30 30 0 0 0-6.6-4.9L0 350.2V392h4.4c3.8 0 4.8.5 7.6 3.6 2.8 3.3 3.1 4.1 2.5 7.8l-.7 6.9c-.1 2.4-.4 2.8-2.7 2.5-2-.2-3.3-1.7-6.1-6.5A24 24 0 0 0 .8 400a76 76 0 0 0-.8 16c0 12.1.3 16 1.3 16 .6 0 2.5 1.1 4.2 2.4 2.7 2.2 2.8 2.6 1.7 5-1.8 4-1.5 7.7.9 10.3 1.8 1.8 2 2.5 1 3.7-2.1 2.5-5.1 2.9-7.2 1-1.9-1.7-1.9-1.5-1.9 7.2v8.9h6.1c5.2 0 6.3.3 8 2.5 3.2 4 4 6.7 2.7 9.5-.9 2-.8 2.8.6 4.4 1.8 2 1.4 4.1-.7 4.1-3.9 0-9-2.6-12.6-6.3L0 480.5v133.8C0 730 .2 748 1.4 748q3.3 0 1.6-4.7c-1.7-4.7 1.7-11.5 7.6-15.2 6.3-3.8 11.3-3.4 16.6 1.7 4 3.8 6.8 3.8 6.8.1 0-1.2.8-2.7 1.7-3.4 1.5-1.1 1.5-1.5.4-2.9-.7-.9-2-1.6-2.8-1.6q-1.6 0-1-2.2c.7-2.6-.8-4.8-3.4-4.8-3.4 0-10.6-12.1-12.9-21.8-1-4.5-1-5.6.4-7.7a10 10 0 0 0 1.6-4.3c0-2.7 4.7-8.3 11.6-13.9l5.9-4.8h9c8.2 0 9.4.2 13.2 2.8 2.4 1.6 4.3 3.2 4.3 3.7 0 1.2 8.5 7 10.2 7 .7-.1 2.6-1.2 4.3-2.5 2.7-2.2 2.9-2.7 1.7-4.6s-1.1-2.5 1.5-5.1c7.8-8.3 21.8-7.6 31.6 1.7 2.8 2.7 6.7 9.5 6.7 11.8 0 .7 1.1 2.4 2.4 3.6 2.2 2 2.9 2.2 5.5 1.3 3.1-1.1 3.1-1 5.6 4.2 1.5 3.2 3.5 5.7 5 6.4 2.5 1.2 3.5 5.4 1.6 6.6-1.3.9-6.1-3.3-6.1-5.3 0-1-.8-2.5-1.8-3.4-1.7-1.6-2.1-1.5-5.4 1.6-3.1 2.8-3.6 3.9-3.7 8.2-.5 13.2-.3 16.7 1.2 18.3 2 1.9 3.7.7 6.8-4.8 1.2-2.1 4.1-5 6.5-6.5 2.5-1.6 4.7-3.8 4.9-4.9 2-8.7 2.5-11.5 2.5-14.2 0-2.4.4-3.1 1.7-3q1.8.4 2.9-4.4c1.2-4.5 1.8-4.2 2.7 1.5.4 2.3-.1 3.6-2 5.6-1.9 2.1-2.6 4-3 9a87 87 0 0 1-4.7 22.1c-.7 1.8-1.6 6.3-2 10-.5 5.6-3.7 15.8-4.8 15.8-.2 0-.2-3 0-6.8.4-9.6-.8-15.6-3.4-16q-3.7-.8-6.9 8.3c-1 2.7-2.5 5.9-3.2 7a9 9 0 0 0-1.3 4.1c0 2.5-3 8.8-3.8 7.9-.3-.3-.7-8.1-.7-17.3a80 80 0 0 1 6.5-38.4c2.4-3.2 2.5-3.8.6-3.8-2.1 0-6.4 5.9-8 11.1a65 65 0 0 0-2.7 18.2c.1 1.1-.3 4.1-.9 6.8q-1.2 5-2.9 4.9c-1.9 0-6.2 4.1-8 7.7-.6 1.2-1.1 5.5-1.2 9.5s-.6 11-1.2 15.5c-1.1 7.6-1.4 8.3-4.7 10.7-1.9 1.4-5 3.3-6.8 4.1-3 1.4-3.6 1.4-6.7-.1-2-.9-3.7-2.6-3.9-3.8-1.5-7.4-1.7-7.8-5.2-9.2Q58 760.6 58 774.2c0 4.1-.5 5.3-3.8 8.8l-3.9 4h-8.7q-15.3 0-17.2-6.7a40 40 0 0 1 .6-19.8c2.2-5.2 3.5-6.2 9.5-7.2 4.1-.7 5.1-1.2 5.3-3.1.8-5.4-4.8-6.8-12.1-3.1-4.2 2.2-4.9 2.9-9.9 10.1-3.4 5-4.8 14-2.5 16.6.9.9 1.8 2.9 2.2 4.4.6 2.3.2 2.9-2.6 4.3a18 18 0 0 1-12.7 1.2l-2.2-.8v36.9l41.3-.3c63.3-.5 122-1.5 179.7-3 10.2-.3 46-.8 79.5-1.1 60.8-.5 78-.7 124.6-1.9l72.7-1.5h2.2V486l-2.3.5c-2.7.7-5.3-1.8-5.9-5.5-.5-3.6-5.4-4.1-6.7-.7-1.1 2.9-4.2 3.9-8.2 2.5a9 9 0 0 0-4.5-.4c-3.5 1.3-10.4-6.4-11.7-13.3-1-4.7 2.2-11.6 5.7-12.5 3.3-.8 3.2-1.5-.5-4.4q-3-2.5-4.2-1.4c-.7.5-3.9 1.2-7.2 1.6l-6 .6-4.6-4.7c-5.7-5.8-6.8-7.9-7.9-14.6q-1.9-12 5-19c3.1-3 4.5-3.7 7.7-3.7 2.1 0 4.7.6 5.8 1.3q5.6 3.9 8.9.3c1.6-1.8 2.9-2.2 5.3-1.9 2.5.4 3.2.1 3.8-1.6.4-1.2.1-2.8-.5-3.6s-.9-2.2-.6-3.2c.8-2.3 8.6-9.3 15.1-13.5 6.3-4.2 11.8-13.9 11.3-20.2q-.2-3.8 1-4.4c2-.6 1.3-3.1-1.1-3.7-2.6-.7-7.7.9-7.7 2.4q.1 1 1.1 1.7c2 1.2.3 11.2-2.8 16.3-3.6 5.8-8.1 8.1-16.5 8.4-9.2.2-17.6-4.3-20.5-11.1q-1.3-3-3.1-3.2-1.7-.1-2.9-3-2.2-5.7-7.1-2.7c-3.5 2.1-3.7 3.1-1.1 5.6 3.1 2.9 3.1 6.9-.1 11.1a27 27 0 0 0-3.8 7.6c-.6 2.2-2.3 5.1-3.7 6.4-2.4 2.3-2.5 2.3-4.5.5-1.7-1.6-2.4-1.7-3.8-.7a19 19 0 0 1-4 2.2q-2.4 1-2 3.2.6 4.6-7.3 1c-6.6-3-7.7-3.2-8.8-1.8q-1.2 1.2.5 4.5c.8 1.7 1.4 3.9 1.2 4.8-.6 3.2-2.6 2.3-4.8-2.2-4.7-9.7-12.4-13.2-25.1-11.5-4.4.6-8.6 1.3-9.3 1.6q-1.4.6-2-3.1c-.8-3.9-5-13-7.4-15.8a5 5 0 0 0-3.3-1.7c-2.1 0-6 6.4-7.9 13l-1.6 5.9q-.3 1.6-3.9-1.9c-3-2.9-3.5-4.1-3.5-7.9 0-4.3-1.2-18.4-2.9-33.4-.6-5.8-.5-7 1.1-8.4q1.7-1.7 1.2-3.5c-.7-2.4 3.4-10.6 5.9-11.4 1-.3 2.4-.1 3 .5 1.8 1.8 7.2 1.3 10.1-1 4.5-3.5 4.9-5.4 2.1-8.7a11.5 11.5 0 0 1 3.7-17.3c1.6-.9 2.3-.7 3.5 1 1.9 2.8 3.7 2.6 6.7-.4 1.4-1.4 3.5-2.5 4.8-2.5 2.4 0 8.2 5.7 11.9 11.6 3.8 6.2 7.6 4.1 8-4.4.3-4.7 0-5.6-2.3-7.5a19 19 0 0 1-3.8-4.5q-1-2-2-1.7c-1.4.9-1.8-.8-.9-3.3q.9-2.5 2.8-1.7c2.6.8 4.3-2.3 3.5-6.4-.6-2.8-.4-3.1 2-3.1q2.6 0 3.2-1.8c.3-.9.9-2.4 1.4-3.2s1.8-3.3 2.8-5.6c2.1-4.3 8.7-9.2 15.4-11.4 4.5-1.4 8.3-.4 16.8 4.3 7.9 4.3 9.9 6.4 13.2 13.7 3 6.6 3.6 9.9 2.3 13.7-.6 1.8-.1 2.3 2.9 3.4s3.6 1.8 3.6 4.1c0 3.2 2.8 3.9 5 1.3.7-.8 2.1-1.5 3.2-1.5 3.2 0 5.8-1.9 5.8-4.4 0-2.4 2.2-4.8 5.3-5.9 1.9-.7 2.4-6.1.7-7.2q-1.1-.7.1-2.1 1-1.2 2-.8c.5.3 1.7-.8 2.7-2.5a10 10 0 0 1 3-3.6c2-.7 11.1 3.5 12.3 5.7 1.2 2.1 4.7 3.8 6.7 3.1.9-.4 1.2-29.7 1.2-141.9V0H334.5C169.2 0 168.9 0 170 2q1.1 1.8 2.5 2 1.4 0 1.2 2.2t2 3.3 1.2 2.2c-1.6 1.6-.1 3.5 2.3 2.7 1.6-.5 1.9-.2 1.6 1.8-.2 1.9.1 2.3 2 2.1 1.7-.2 2.2.2 2.2 2.2s.5 2.5 2.7 2.5q2.3 0 2 .7c-.9.8 1.3 3.4 2.3 2.8.5-.3 2.3.8 4.2 2.5 3.3 3 3.3 3.2 3.3 11.8 0 8.8-.9 12.6-6.2 26.1-2.5 6.3-2.5 6.5-.6 8 4.3 3.6 5.5 6.9 4.8 13.5-.7 5.8-.5 6.5 2.4 10.8 1.7 2.5 3.1 5.2 3.1 6 0 2.3 3 5.9 4.7 5.6q1.6-.4 3.4 4.7c1.1 3.1 3.3 6.4 5.9 8.8 3.6 3.4 4.6 3.8 7.3 3.3 1.7-.3 4.1-1.5 5.2-2.6s2.4-2 2.8-2c1.1 0 2.7 7.4 2.7 13 0 4.9-.3 5.6-2.5 6.7-2.1.9-2.7.8-3.5-.5q-1.2-2-.5 2.5c.4 2.4.4 4.3 0 4.3-1.3 0-8.2-3.9-9.4-5.4a4 4 0 0 1-.6-3.6c.8-2.7-2.5-7.9-10.7-16.7a46 46 0 0 1-7.5-10.1c-1.6-3.5-1.7-3.6-2.2-1.3l-.7 2.5-2.1-3q-2.1-2.7-2.3-1.4c0 3.6 2.3 8.9 6 13.7 4.6 6.1 3 7.4-2.1 1.8-4.2-4.5-5.7-4.5-2.9.1 1.2 1.9 1.9 3.8 1.5 4.2s-1.1-.1-1.6-1.1q-1-1.5-2.1-1.7c-.7 0 .1 1.3 1.6 2.9 3.7 3.8 1.6 4.6-4.5 1.5s-9.9-7.6-9.9-11.9c0-3.7 2.4-6.6 3.4-4 .7 2 5 1.9 6.7-.1 1.1-1.3.9-2.9-1.4-9.7-3.2-9.6-3.2-9.2-.8-14.3 2.2-4.8 3.4-11.4 2-11.4-.6 0-1.6 1.5-2.2 3.2-3.9 10.7-19.5 38.3-22.9 40.4-2.7 1.7-1.6-1.2 2.4-6.3a175 175 0 0 0 17.9-31.4c2.9-6.8 3.1-7.8 2-11.7-.6-2.3-1.1-5.3-1.1-6.7 0-3.6-1.5-3.1-3.3 1.2q-1.4 3.3-1.1 1.3a92 92 0 0 1 3.6-9.3c1.6-3.7 2.7-7.1 2.4-7.6s.2-1.5 1.1-2.2q2.1-2 .8 1.1c-.4 1.4-.8 5.6-.9 9.5-.1 5.6.2 7 1.4 7 1.9 0 7.5-16.5 8.4-24.8q1.2-10.1-4.6-12.1-5.3-1.6-3 2.4c1.9 3.1 1.4 4.6-.8 2.2-1.2-1.2-2.7-2.2-3.4-2.2-2.2 0-12.6 8.6-17.7 14.6C159.7 58.3 143 87 143 91.3a128 128 0 0 0-9.6 31.1c-.6 5.8-.5 6.5 1.4 7.5 2.9 1.6 4.7 1.4 9.5-.9l4.2-2-3.4 3.1c-3 2.8-3.7 3-8.2 2.4q-5-.7-4.9.5c0 2.3 2 4.8 4.8 5.9 2.4 1 3.6.9 6.7-.3q7.2-3 1.8 1.4c-2.3 1.8-3.6 2.1-7.2 1.6-2.5-.3-5.5-1.3-6.7-2.1q-4.6-3-6.3.2c-.9 1.6-1 1.6-1.1-.5 0-2.5-2.5-3-3.4-.7s-2.4 1.8-2.8-.7c-.4-3-3.4-3.5-4.3-.8-.7 2.2-3 2.2-3 0s-2.3-2.3-3.5-.1c-1.9 3.7-7.9 1.7-8-2.6 0-1.5 4.6-4 11.1-5.9 2.7-.8 4.9-1.8 4.9-2.3 0-1.7-3.9-4.2-7.3-4.8-2.9-.4-3.4-.9-2.9-2.6s.1-1.9-1.6-1.5c-2.6.7-3.8-.7-2.3-2.6.9-1.1.8-1.8-.4-3-.9-.9-2.1-1.4-2.6-1.1-1.7 1.1-3.1-.6-1.8-2.1 1.9-2.3-.4-6.4-3.6-6.4-2.8 0-3-.3-1.3-2.9 1.8-2.9-.5-7.5-3.2-6.6-2.5.8-2.7-1-.3-2.4 1.4-.8 1.6-1.4.7-3.8q-1-2.7-2.8-2.8c-2.8 0-3.1-2.2-.6-3.5 2.8-1.5 2.5-7.5-.4-7.5-3 0-3.1-2.4-.1-3.5 2.3-.9 2.6-1.5 2.3-4.7-.2-2.1-.8-3.8-1.5-3.8-2.4 0-2.6-1.6-.3-4 2-2.1 2.1-2.7.9-4.1-1.1-1.4-1-1.8 1.1-3.4q4-3-1.2-3.5c-2.6-.2-4.7-3-3.3-4.4q1.1-1 4.3.6c4.1 2 6.6.5 3.9-2.5-2.2-2.4-.4-4.6 2.5-3.1 1.9 1 2 .9 2.2-3.1q0-2.7 2.3-2.5 4 .1 3.8-3.8c0-1.7.6-2.1 3.5-2.1 2.9-.1 3.5-.5 3.5-2.3q0-4.4 3.3-2.4c2.2 1.2 6.2-1 6.2-3.5 0-1.2.8-1.3 3.5-.8 3.1.5 3.6.3 4.5-2q1.5-4.5 4.1-1c1.5 1.8 5.7 1.1 7.5-1.4 1-1.4 1.4-1.4 2.8-.3q1.6 1.4 5.6.8 3.8-.5 5.7.9c2.4 1.8 7.2 1.8 7.9-.1q1.4-3.4 3.6 1.2c.7 1.6 2.3 2.9 3.6 3.1 2 .3 2.2 0 2.2-5.2 0-4.6-.4-5.7-2.1-6.7q-2-1-1.6-3C165.8 0 164.1 0 82.9 0H0zM298.5 4.6a28 28 0 0 1 9.7 4.2c2.3 2.1 3 2.3 4.3 1.2s1.5-.9 1.5.8c0 1.1.7 2.8 1.6 3.7s1.7 2.9 1.9 4.6c.1 2.1 1.4 4 4.4 6.5 4.6 4 6.7 7.4 8.5 14.3 1.3 4.7 1.4 10.6.3 11.8-.4.3-.7 1.7-.7 3q.2 4 5.3.8c1.8-1.1 3.5-1.3 7.7-.6 9.2 1.5 13.6 9 11 18.9-1.7 6.3-3 8.2-7.7 11.5-3.5 2.4-4.4 2.6-6.6 1.6s-3.1-.8-6.4 1.1a72 72 0 0 0-8.8 6.9c-2.8 2.5-8.4 6.8-12.4 9.6s-10.5 7.6-14.6 10.7c-4 3.2-7.6 5.8-8 5.8-.9 0 0-4.2 5.3-22.8l4.6-16.3-2.1-2c-1.7-1.7-2.5-1.9-4.1-1-2.7 1.5-12.1 16-22 34.1a138 138 0 0 1-11.4 18.8c-.4.2-2.3 2.5-4 5q-3.4 5-3.6 3c-.2-.9.3-2.7 1.1-4a48 48 0 0 0 3.3-21.3c-.4-3.8-.1-6.4 1-9.1q1.6-3.8 1.2-9.2c-.5-5.6-1.8-7.4-5.3-7-2.8.4-3.1 3.4-.4 4.1 2 .5 2.1 1 1.4 5.4-.3 2.6-1.7 6.8-3.1 9.2a22 22 0 0 0-2.4 5.6c0 .7-1.2 2.9-2.6 5a31 31 0 0 0-3.6 9.1c-.6 3-1.5 5.4-1.9 5.4-1.5 0-1-7.8.7-13.1.9-2.7 1.4-5.2 1.1-5.5s-1.2 2-2.1 5c-.9 3.1-2.1 5.6-2.6 5.6-1.5 0-5-5.1-5-7.4a56 56 0 0 0-8.3-18.7c-5.5-8.4-4.9-17.2.9-11.8a8 8 0 0 1 2.4 5 6 6 0 0 0 1.5 3.9c.8.7 2 3.1 2.6 5.4l2.1 6.8c1.7 4.6 5.6 4.7 7.7.2.9-2 1.6-2.3 3.6-1.8 2.1.5 2.5.3 2.5-1.8 0-1.3.9-4.1 2-6.3 1.9-3.8 1.8-6.7-.1-3.2-1.4 2.4-2.9 2.1-2.9-.6q0-6.5-3.9-7.3c-6.2-1.5-11.6-9.4-10.6-15.4.6-3.6.5-3.8-3.9-6.4q-4.5-2.7-4.6-4.6c0-1-2-3.6-4.5-5.7-5.7-4.7-8.5-10.5-9.5-19.4-2-18.2 3.6-28.4 17.4-32 9-2.3 60.9-1.8 71.1.7M481.6 27c.6 39.9 1.4 64.2 2.3 71.2.9 6.6.4 18.8-.8 18.8-.3 0-6-5-12.6-11.1S454.7 92.3 450 89.1s-12.4-9.8-17.1-14.7c-16-16.5-27.8-26.4-31.4-26.4-4.8 0-5 2.2-1.7 13.3 1.7 5.6 3.9 13.3 4.7 17.2L408 92c1 3.6 2.4 9.2 3.1 12.5s2.2 9.2 3.5 13.1c4 12.6 6.7 24.5 5.8 25.4s-13.2-4.8-16.4-7.4c-.8-.7-4.3-3-7.7-5a23 23 0 0 1-6.3-4.6c0-.4-1.8-1.5-3.9-2.3a14 14 0 0 1-4.5-2.6c-.4-.5-3.2-1.9-6.4-3.1a35 35 0 0 1-7.3-3.6A189 189 0 0 0 339 100c-3.1 0-3.2 1.7-.5 6.4 2.4 4.1 2.5 4.7 1.2 7.8-2.5 5.8-5.7 7.9-12.5 8.1-10 .3-10.1-1.2-.9-9.6 4.2-4 7.7-7.5 7.7-8q0-3.2-10.1 6.3c-4 3.8-10.3 9-13.9 11.5-15.1 10.4-15 10.7 4.3 12.4 8 .7 15 1.1 15.5.7 1.6-1 4.2.5 4.2 2.4 0 2.2-.6 2.4-10 3.9-4.1.7-9.7 1.9-12.5 2.7-8.1 2.5-25.8 5.2-27.7 4.2q-1.7-1-2.8 1.1c-1.5 2.9-1.2 5.6 1.1 10 2.7 5.3 2.2 7.9-1.9 9.7-3.2 1.3-3.3 1.3-2.6-.9.3-1.2 1.3-3 2.2-4 1.4-1.5 1.4-1.7-.1-1.7q-1.5 0-2.2 1-.6.9-2 1c-1.5 0-1-7 .7-10.3 1.5-2.9.1-3.3-3.2-.8-1.7 1.2-3 1.8-3 1.3a37 37 0 0 1 10-11.7c2.2-.7 2.7-2.5.8-2.5s-9.8 5-9.8 6.4c0 .7-1.8 3.4-4 5.9s-4 5-4 5.7q0 1-.9.5c-.6-.3-.9-2.4-.8-4.6.1-3.4-.3-4.5-2.7-6.4l-2.8-2.2 2.1-4c1.1-2.2 3.5-6 5.3-8.4 1.9-2.4 4.9-7.1 6.8-10.4s6-9.9 9.2-14.7a52 52 0 0 0 7.3-13.4 7 7 0 0 0 1.5-3.2c0-2 4.4-8.2 5.8-8.2 1.7 0 1.5 1-1.2 7.1-1.3 3-2.6 7.6-3 10.3-.4 2.6-1.8 8.2-3.2 12.4-3 9.5-3 11-.1 12.3 2.1 1 3.3.4 10.6-5.3l13-9.8c2.7-1.9 7.3-5.4 10.2-7.7l11.2-8.8c3.1-2.5 6.2-4.5 6.8-4.5s3.3 1.1 6.1 2.5 5.5 2.5 6.1 2.5c.7 0 4 1.5 7.4 3.3l21 10.6c8.1 4.1 16.5 8.5 18.5 9.8 4.4 2.7 6.1 2.9 7.8.8 1-1.2.6-3.4-1.8-11.2A1514 1514 0 0 1 385 43.5c-4.3-15.7-4.5-16.5-3-16.5a69 69 0 0 1 20.8 11.4c4.8 3.5 10.2 7.1 12 8s5 3.2 7 5 5.7 4.6 8.2 6.1 7.4 5.3 10.9 8.4a121 121 0 0 0 10.2 8.1c2 1.4 5.7 4.1 8.1 6.1 4.9 4.1 9 5.5 10.6 3.6 2.1-2.5 2.5-14.1.9-21.8-.8-4.1-1.5-12.1-1.5-17.9s-.5-14.3-1.1-19S467 13.5 467 9.7V2.9l7.1.3 7.1.3zM190.1 44.1q-1.2 3.2-1 .3c-.1-1.1.2-2.4.6-2.7 1.2-1.2 1.4 0 .4 2.4m-11.6 32.5-1.5 4.2q0 .5-.5 0c-.6-.5 2.2-7.8 3-7.8.3 0-.2 1.6-1 3.6m-5.9 15c-2 4.1-3.6 7.9-3.6 8.3s-.9 1.6-2 2.6-2 2.3-2 2.8a70 70 0 0 1-10.1 14.2c-2.1 2.4-3.9 5-4.2 5.7q-.4 1.1-1.2.6c-.4-.4.6-2.4 2.2-4.5 7.3-9.5 13.2-18.7 18.3-28.5 6.2-12.1 8-12.9 2.6-1.2m46.9-5.6c0 2.2-2.9 1.8-3.3-.3q-.5-2 1.5-1.5 1.7.5 1.8 1.8m5.5 15.9c1.7 3.3 1.2 4.6-1 2.6-2.1-1.9-2.7-4.5-1-4.5.5 0 1.4.9 2 1.9m26.3 22.8c-1.3 7.2-3.6 11-5.3 8.3s-1-8.1 1.6-12.6c3.7-6.3 5.2-4.6 3.7 4.3m-94.2 2.5q3.3-2 6.9 2.3c1 1.2 2.3 1.5 5 1 3.4-.6 4-.3 6.1 2.5 6.6 8.8 11.1 10.5 18.8 7.5a68 68 0 0 1 10.4-2.8c5.6-1 6-.9 8.3 1.6 1.3 1.5 2 2.9 1.4 3.2s-1 3.3-1 6.5c0 5.5.2 6 3.7 8.9 2.1 1.7 5.5 3.7 7.8 4.4 3.4 1.2 4 1.8 4 4.2 0 2.6-.6 3.1-5.7 5.2-6.5 2.6-9.3 2.1-14-2.4l-2.8-2.7-2.3 2.2c-2.6 2.4-8.7 3.1-8.7.9 0-.6.9-2.7 2-4.5s2-3.9 2-4.7c0-1.7-3.1-3.5-6.1-3.5h-2.3l2.4-2.2 2.3-2.2-2.8-.8c-1.6-.4-3.9-.5-5.2-.2q-2.4.8-2.3-1 .1-1.6-3.1-1.6-2.8 0-2.4 1c.4.6.3 1.9-.1 2.8s-.7 2.6-.8 3.7c-.2 4.2-11.9 7.2-16 4.2-2.9-2.1-1.5-4.1 3-4.1 4.9-.1 5.3-2.6.6-4-2-.5-5.4-3.2-8.7-6.7-4.7-5.2-5.4-6.5-6-11.4q-1.3-10.2 2.1-7.4c1.2 1 2 1 3.5.1m303.2 6.1c2.9 2.2 3.7 7.3 1.5 9.5q-1.3 1.2 0 2.4 2.9 2.8-1.6 2.8c-2.1 0-4-1.2-7.3-4.8a88 88 0 0 0-6.8-6.5c-2.8-2.2-1.5-4.3 3.3-5.5a12 12 0 0 1 10.9 2.1m-363.6 3.3c.9 2.3-1.1 3.8-2.6 2-1.3-1.6-.7-3.6 1-3.6q.9.1 1.6 1.6m150.7 7.8c1.4 2.7 2.6 6.4 2.6 8.1 0 2.7-.4 3.4-2.5 3.7q-2.7.7-2.5-1.3c0-2.9-2.1-6.8-4.7-8.4-2.9-2-2.9-3 .3-6.2 2.9-2.9 3.2-2.7 6.8 4.1m111.8-.2c.3 1.7.2 4.6-.2 6.5q-.9 3.3.6 4.4c.8.6 1.4 1.6 1.4 2.1 0 1.9-6.8 7.8-8.9 7.8q-2 .1-2.1 1.1-.1.8-1.1.3-1.1-.7.1 1.5 1.1 2.2 3 1.6t4.5 2.9c1.5 1.9 3.6 3.6 4.8 3.8 3.8.6 9.1-1.3 13-4.8 2.1-2 4.8-3.4 6.2-3.4q4.4 0 .8 2.6c-1.6 1.2-1.5 1.3 1.3 1.4 1.7 0 3.7-.7 4.4-1.5 1.5-1.8 9.1-1.7 9.7 0 .2.6-1.5 2.2-3.7 3.5-4.4 2.8-4.7 3.5-2.2 4.9 3.1 1.9-.6 3-8.3 2.4l-7.2-.6-3.7 3.8c-5 5-4.5 7 1.9 7.1 2.7 0 5 .5 5.2 1.1.2.5-1.5 1.8-3.7 2.8-6.1 2.7-6.7 4.1-2.9 6 2.9 1.6 3 1.8 1.5 3.3-1.4 1.4-2.2 1.5-6.3.4q-4.7-1.3-5.6-.3c-1.3 1.3.9 4.1 3.3 4.1 2.8 0 5 1.1 5 2.5q0 2.5-7.2 2.5c-3.1 0-4.6-.7-6.9-3-3-2.9-3.1-5-.4-5q1.2 0 .8-1.9-.5-2 1.8-2.6c2.1-.7 1.9-.9-2.1-2.4-2.4-.9-4.5-2.2-4.8-3q-.6-1.6 1.4-.6c1.1.4 3.5 1 5.4 1.3l3.5.5-2.5-2.1-2.5-2 3.2-1.9c4.6-2.5 4.1-3.5-.8-1.8-2.3.8-4.6 1.2-5.1.8-1.2-.7 5.7-4.3 8.1-4.3.9 0 2.2-.9 2.9-2q1.5-2.2-.1-2a4 4 0 0 0-2.4 1.1c-.5.5-2.2.7-3.7.3-2.6-.6-2.7-.7-.9-2.8q2.8-3.2-.7.1a16 16 0 0 1-5.4 2.9l-2.8.7 1.7-2.7q3.1-4.5-2.1-1c-3.7 2.5-4.2.8-.8-2.7q3.2-3.5.8-2.1a18 18 0 0 0-3.4 2.6c-.7.9-1.9 1.6-2.7 1.6-1.1 0-1-.8.7-3.5 1.2-1.9 1.7-3.5 1.1-3.5s-1.7 1.3-2.6 3-2 3-2.6 3 .2-2.1 1.7-4.8l4.5-8.4c2-3.9 3.5-5.2 5.8-5.3q1.4 0 1.8-1.2t-2.2-.9-4.8 3.7c-1.2 1.9-2.7 4-3.4 4.7s-1.3 1.7-1.3 2.1-2.3 3.7-5.1 7.2-5.5 7.4-6 8.6q-.9 2.1-1.9 2.3c-2.1 0-.9-3.7 2.8-8.5 2.9-3.8 3.6-5.5 2.9-6.6s-.2-2.7 1.8-5.9c2.3-3.7 2.9-4.1 3.7-2.6q1.8 3.4 4.4-3.5 1.6-4 5.6-6.1c4.1-2.3 6.8-6.2 6.8-9.6 0-4.2 2.6-4.3 3.2 0m-45 9.3c4.4 4.1 5 7.6 3.9 25-.8 13.3-.8 16.1.5 18 1.8 2.7 6.1 4.9 9.2 4.6 2.2-.2 3 1.3 1.2 2.4-.5.3-1 1.6-1 2.7 0 2.4-2.6 4.7-5.3 4.8-2.5 0-8.4-4.6-9-7q-1-3.9 2.2.2 1.8 2.2 3.7 1.4c1.8-.7 1.8-.8.1-1.8-4.2-2.3-7.4-16.5-4.8-20.8 1.3-2 .2-3.4-1.5-1.9-1.2 1-1.4.3-1.4-4q0-5-1-4.6-2.2 1.3.7-6.4c1.6-4.1 1.6-4.7 0-9.1-2.5-7.1-2-7.7 2.5-3.5m-41.2 7.6c-1.2 4.1-1.7 4.5-2.5 2-.7-2.3 1.1-6.5 2.5-5.6.5.3.5 1.9 0 3.6m31.6 0c1.4 1.6 1.9 3.6 1.9 8q0 5.8 1.2 6.4c1 .3 1 1 .1 3q-1.8 4.1-4.6 1.3-1.3-1.6-1.8 1c-.7 2.6-2.4 3-2.4.4 0-.9.7-3.9 1.5-6.6 2.3-7.4 2.1-8.8-1.2-8-4.1 1-4.4 1.4-3 3.4 1.1 1.5 1.1 3.2.4 7.4-.7 4-.7 6.7.3 10.1q2 7.4 7.3 6c2.3-.6 2.5-.4 3.1 5.7.8 6.9 4 14.8 6.1 14.8 1.8 0 2.5 2.3 2.5 7.9 0 2.7.8 6.3 1.9 8.5 1.6 3.1 1.8 4.2.8 5.7s-.8 2.4.4 4.6c2 3.3 2.8 24.1 3 68.8a671 671 0 0 0 3.4 71.2c.8 9.6.5 10.4-2.9 7.8-1.1-.8-3-1.5-4.2-1.5-3.5 0-5.5-2.6-4.4-5.6 1.3-3.3 0-8-4.3-15.9-4.7-8.8-7.3-8.5-13.9 1.8-2.4 3.8-3.2 6-3 9.1.1 2.3-.3 5.1-1 6.3q-2 4.2 5.3 7.4c4.1 1.6 1.8 3-3.6 2.2q-7.8-1-11-10.7c-1.6-4.7-1.7-5.9-.5-10 1.6-5.9 4.1-9.1 9.1-11.6 2.1-1.1 4.6-3.4 5.5-5.2l1.6-3.2 1.4 3.2c1.3 3.3 3.8 4.2 4.7 1.9.9-2.5-3.2-15.1-5.5-17.1-2.1-1.7-2.3-2.7-2.4-12.5-.1-34.6-.7-62-1.5-71.6-.4-6.1-1.1-15.5-1.3-21l-1.3-23c-.4-7.2-.7-16.6-.8-21 0-4.4-.4-12.1-.9-17l-.8-9 5.9-2.7c7.1-3.3 6.6-3.3 8.9-.7m137.4-.2c2.7.7 7.9 9.7 8 13.8 0 2.6-2.1 2.9-8 1.3-2.8-.8-3.9-1.8-4.8-4.3q-2.3-6.2-7.1-6.9c-1.4-.1-2.6-.8-2.8-1.3-.8-2.5 8.6-4.2 14.7-2.6m-248.6 2c.3.4-1 2.6-2.9 4.8l-3.4 4 2 1.9c1.6 1.4 3.9 1.9 9.3 2.1 3.9.1 8.4.7 9.9 1.2 1.6.6 4.1 1.1 5.7 1.1 3.2 0 13.3-3.5 17-6 2-1.3 3.1-1.4 5.3-.6 2.3.8 3.6.5 8-1.7 2.8-1.5 6-3.2 6.9-3.9 1.5-1.1 2.4-.6 6.3 3.2a24 24 0 0 1 4.5 5.2c0 2-3.1.4-6.4-3.2-2-2.3-4.1-3.8-4.6-3.5-1.5 1-1.2 5.1.6 6.5.8.8 2.1 2.9 2.9 4.7 1.7 4 6.7 6.4 13.5 6.7 5.7.1 9.3-2.3 12.9-8.9 1.5-2.7 3.2-5 3.9-5.3 1.4-.4 1.6 3.4.2 4.3q-2.1 1.3.6 7.1a12 12 0 0 1 1 7.2c-.3 2-.2 10.4.4 18.7 2.9 45.9 4 70.1 4.4 97.2l.3 30.3-2.6-.6c-5-1.1-5.1-1.2-5.1-6.3 0-4.5-.3-5.1-2.7-6.3q-2.9-1.2-3.1-4.3a9 9 0 0 0-1.3-4c-1.8-1.8-.9-4.1 2-5.2 3.6-1.3 4.1-.9 4.1 3.1l.1 3.1 2-2.4a8 8 0 0 0 1.7-5.5c-.3-2.8-.6-3.1-3.5-3-3.8.2-3.8.1-1.7-5.7a17 17 0 0 0-2.8-17.2c-4.7-6.3-7.2-10.9-6.9-12.9s-1.6-5.8-2.9-5.8q-.8.2-1.5 1.9a4 4 0 0 1-2.1 2.5q-1.8.8-.8-1.1c.4-1 .9-5.3.9-9.6.2-5.7-.1-7.7-1.1-7.7-2.1 0-2.3 1.3-1.2 6.3.8 4.2.7 5.3-1.6 10.1-1.4 3-2.6 5.8-2.6 6.1s1.4 3.3 3 6.7c1.7 3.3 3 6.2 3 6.4s-1.1.4-2.4.4c-3.4 0-5.6 3.5-5.6 8.7q0 4.3-1.3 4.3-4.5.1-5.2 7.3c-.3 4.1-.1 4.8 1.3 4.5q1.7-.4 2.2-3.7c.4-3 2.9-5.7 3.1-3.4l.4 4.6c.4 3.3.1 3.9-2 4.7-1.4.5-3.2.7-4 .4-2-.8-1.9.5.5 7.7a47 47 0 0 1 2.2 11.8l.3 18.1.3 12.5 4.2.3c5.1.4 7.4-1.2 5.9-3.9-1.2-2.4-.8-13.4.6-13.4.6 0 1.1 1.2 1.3 2.7q.3 2.8 4.2 5.5c2.2 1.6 4 3.3 4 4s-2.2 2.2-4.8 3.3c-3.5 1.5-5.3 3-6.3 5.3-.8 1.8-2 3.1-2.7 3-.6-.2-1.9.9-2.9 2.3-1.4 2.2-1.5 3.1-.4 6.2 1.4 4 7.2 13.3 10.4 16.9 1.7 1.9 1.8 2.3.4 2.3-1.9 0-5.5-4.4-6.3-7.7-.7-2.8-1.2-2.8-4.3-.4l-2.4 1.9 3.1 4c1.8 2.2 3.2 4.2 3.2 4.6s-2 1.5-4.4 2.6a16 16 0 0 0-5.1 3.1c-.4.6-.4 4 0 7.5.6 5.9 1 6.7 3.8 8.5a15 15 0 0 0 6.7 1.8c1.9 0 6.2.5 9.4 1.2 4.7.9 6.4.9 7.9-.1 1.6-1 2.7-.9 5.8.5 4.6 2.1 5.3 3.6 3.2 7.3-1.5 2.5-1.5 3.4-.3 7.7.8 2.7 2.9 6.6 4.7 8.6 1.9 2.1 3 4 2.5 4.3s.2 3.8 1.5 7.8c2 6 2.4 9.4 2.4 18.8l.3 39.5c.3 26.4.4 28.4 2.7 35.5s2.4 8.8 2.4 33c0 23 .2 25.9 1.8 28.4q1.8 2.6 3.5 2.4c1.4-.3 1.7-1.8 1.9-9.6 0-5.2.3-9.6.6-9.8s1.3 1.8 2.3 4.6c2.1 5.8 3.6 7.5 6 6.6q1.6-.5 1-2.9c-3-10.2-3.4-12.6-2.6-16.3 1.4-6.6-.5-31-2.9-35.2-1.4-2.6-4.7-2.6-4.5.1q.1 1.5-.5 1.7c-.6.2-1.5-3.3-2.4-7.3-1.2-5.2-1.8-14.5-2.3-34.2l-.9-37.5c-.2-5.8-.9-12.9-1.6-15.8-.7-2.8-1-5.5-.7-5.8s2.3-.1 4.4.5q3.6 1 9.8 7.4c3.4 3.6 7 6.9 8.1 7.5 1.7.9 1.8 1.3.6 3.5-1.1 2.1-1 2.9.3 5.5 2.7 5.3 4.7 18.7 5.1 34.6.2 8.3.8 18.7 1.4 23.1.9 7.2 1.6 15.8 4.1 49a55 55 0 0 0 1.8 12.1c.6 1.1.9 3.8.7 5.8-.2 2.1.3 5.6 1.1 7.8s1.4 6 1.4 8.4c0 6.7 1.9 14.2 4.5 17.2a14 14 0 0 1 2.6 4.7c.2 1 1.3 2.2 2.4 2.5 4.1 1.1 8.5 4.1 8.5 5.8a7 7 0 0 0 1.4 3.7q1.4 2 1.2 9.4c-.2 7.1-.3 7.4-3.2 8.6a50 50 0 0 1-8.8 1.9c-6.6.7-8.9 2-8.1 4.5.4 1.4-.8 1.6-10.8 1.4l-13.2-.3-6.7.6c-2.8.4-4.8.2-4.8-.4 0-.5 2.7-1.2 6.1-1.6 7.2-.7 14.9-3.8 14.9-6s-5-4.4-12.4-5.2c-3.7-.4-6.9-1.1-7.2-1.5-.7-1.3-11.6-1.1-18.9.3-5 .9-7.9.8-13.9-.2-4.2-.8-7.6-1.8-7.6-2.2q.1-.7 1.5-.8c.9 0 4.3-.9 7.6-2 5.3-1.8 6.6-1.9 11.8-.9 5.8 1.2 5.9 1.2 13.7-2.5 4.3-2 8.2-4.3 8.6-4.9s1-3.8 1.4-7c.6-4.8.9-5.7 2.3-5.1q4.1 1.8 7.8-1.8l2.5-2.3 2.6 3.2a11 11 0 0 0 6.7 3.9 21 21 0 0 1 6 2c2.7 1.9 6.2 1.7 7-.3.9-2.4-2.4-4.9-7.5-5.8q-4-.7-5.7-3.1c-.9-1.4-2.5-3-3.7-3.6a44 44 0 0 0-13.9-3c-3.2-.1-7.3-4.7-7.9-8.8-.4-3.1-4.7-3.9-8-1.6a9 9 0 0 1-4.5 1.6c-2.5 0-5.3 3.4-5.3 6.4 0 1.1-1.2 3.3-2.7 4.8a12 12 0 0 0-3.2 7c-.5 3.4-1 4.4-2.8 4.6-3.8.6-12-3.7-14.2-7.3-1.1-2-2.9-3.5-4.3-3.7-2.5-.3-2.5-.8-1.2-8.5.6-4 .5-4.3-2-5.3-3-1.1-8.6-1.3-11-.4q-1.5.7-1.6 3.7.2 6.8-4.5-6.3c-3.7-10.6-4.5-14.1-3.5-16.1 1.9-3.4-2.5-4-7.5-.9-3.1 1.9-3.2 2.1-3.8 11.3a51 51 0 0 1-2.2 13c-1 2.3-1.3 5.1-1 7 .5 2.6.1 3.7-2 5.7-2.4 2.2-3.4 2.5-10 2.3l-7.3-.2-1.1 3.1c-1.3 3.7-10.9 13-13 12.6-1.1-.2-1.9-2.7-2.8-8.8-1.4-9.1-2.8-13.5-5-16.2-.8-.9-1.8-4.7-2.1-8.5-.6-6.1-.9-6.8-3-7.1-4-.6-5 1.2-4.6 8.2q.7 13.3-5.4 14.7c-4.6.9-8.1 3.6-8.8 6.7-1.2 5.6-1.3 5.7-4.2 2.9-3.6-3.4-4.4-3.4-4.1.1.2 1.5 0 3.2-.4 3.8-.7 1.1 3.2 4.4 5.2 4.4.5 0 1.7.7 2.6 1.6 1.8 1.8 1.2 5.2-1.3 7.1-2.4 1.9-3.1 1.6-4-1.9-1-4-2.9-4.7-4.2-1.6q-1.6 3.8.8-13.1c.8-5.9 1.3-6.8 5.4-10.6 2.5-2.3 5.6-6.1 6.8-8.6 1.2-2.4 3.2-5.4 4.4-6.7 2.3-2.5 2.6-5.5 4-40.2.3-8 1.1-21.5 1.6-30s1.5-29 2-45.5c1.8-50.1 2.1-56.9 3-59.5 1.3-3.6 2.4-38 2-64 0-6.4.6-16.1 1.5-22 2.4-15.5 2.6-19.7 2.4-39.5-.2-22.6-.1-25 .8-47.2.4-9.9.5-19.8.1-22-.8-3.9-.8-7.2-.5-59.5l.2-29.8h3.7c2 0 3.9.4 4.2.9m71.4 3.3q-.6 1.2-1.8 1.3-1.6 0-1.7-1.3-.4-1.1 1.7-1.2 2 0 1.8 1.2m211.8 1.3c4.8 2.4 5.7 3.4 8.3 9.8 1.4 3.5.4 8-1.6 7.3q-1.4-.5-2.3-.6c-3.5 0-10.7-10.2-11.5-16.3-.5-3.4.6-3.4 7.1-.2m-200.2 11.2q-5.3 3.7-2.1-2.7l2.2-3.9.9 2.6c.7 2.1.5 2.9-1 4m49.6 1.2c-4.9 4.2-5.5 4.4-4.5 1.2s3.4-5.1 6.3-5.1c2.6 0 2.6.1-1.8 3.9m-15 4.2q0 .9-1 .4c-.5-.3-1-1.1-1-1.6q.1-.9 1-.4a2 2 0 0 1 1 1.6m14.5 3.5c.2 3.1-1.2 5.7-2.6 4.8-1.1-.6-1.2-6.8-.2-7.8 1.3-1.3 2.6.1 2.8 3m86.2 2.9c3.5 3.5 3.5 3.6 2.8 9.7-.4 3.5-.9 6.5-1.1 6.7-.8.9-8.6-2.1-10.6-4.1-1.6-1.6-1.9-2.7-1.4-5.6.4-2.1.7-5.2.6-7 0-2.9.3-3.2 3.1-3.2 2.2 0 4.1 1 6.6 3.5m-71.3 3.4q.4.8 0 1.4c-.8.8-3.4-.3-3.4-1.4s2.7-1.2 3.4 0m8.3 2.5c-.5 1.4-2.6 1.5-5.2.2-1.9-.9-1.9-1 .5-1.6 3-.8 5.2-.2 4.7 1.4m-6.4 1.6c2.2 0 2.7.4 2.7 2.5 0 3-.2 3-5.7.4-4.5-2.2-5.9-4.6-2-3.5 1.2.3 3.4.6 5 .6m118 7.8c1.4 2.6 2.8 6.2 3.2 7.9.6 3.1.5 3.3-2.2 3.3-4.4-.1-9.6-3.2-10.3-6a6 6 0 0 0-2.8-3.6c-1.2-.6-2.5-1.3-2.8-1.6-.8-.9 9.6-5.7 11-5.2.8.3 2.5 2.6 3.9 5.2m-52.6 18.4c1.1 1.1 2.4 3.5 2.7 5.3a10 10 0 0 0 2.1 4.5c.8.7 1.5 2.3 1.5 3.6 0 1.9-.5 2.4-2.5 2.4-3.8 0-9.3-4-10.6-7.8-.6-1.8-2.2-4-3.5-4.9q-5-3.2.9-5c3.9-1.3 6.5-.7 9.4 1.9M490 230c3.3 1.8 5.4 13.2 2.8 15.8-.8.8-2.3 0-6.1-3.3a25 25 0 0 0-5.9-4.5c-1.4 0 0-7.3 1.5-8.2 1.7-1.1 5.5-1 7.7.2m-123.1 7.3c4.7 2.4 7.7 6.8 8.3 12.2.2 2.4-.2 3.1-2.3 3.8a10 10 0 0 1-5.1.4c-3.9-1-8.8-6.1-8.8-9s-3.3-5.7-6.8-5.7c-3.1 0-2.4-2.4.9-2.8 1.3-.2 2.8-.8 3.4-1.3q2-1.9 10.4 2.4m90.8 4.1a12 12 0 0 1 2.9 6.8c1.1 8 .5 8.3-7.7 4-4-2.1-8.2-5-9.3-6.5-1.9-2.5-1.9-2.7-.2-4.6 3.2-3.5 10.5-3.4 14.3.3m-188.2 32.2q1.3 6.6-2.5 2.9c-1.9-1.7-2.7-6.4-1.3-7.8 1.1-1.2 3.1 1.3 3.8 4.9m96.5-2.3c2.8 1.4 8 10.8 8 14.5 0 2.3-.3 2.4-3.6 1.9q-6-1-9-6.9-1.6-2.7-3.7-2.8c-1.3 0-3.2-.7-4.3-1.5-1.8-1.5-1.8-1.6 1.1-4 3.3-2.7 7.6-3.2 11.5-1.2m-91.3 11.6c1.9-1.9 3.6 2.2 4 9.9.2 4.3 0 9-.6 10.5-1.3 3.3-4.1 3.7-3.4.4q.2-1.7-1.6 2.1c-1.8 3.8-2.5 4.1-3.1 3.7q-.9-.7 1-4.5c1.6-3.2 1.9-5.1 1.4-10.7-.3-3.7-1.2-8.1-2-9.7-1.8-3.7-.7-5.6 1.6-2.8q1.7 2 2.7 1.1m-10.5 8.2c-.5 4.2-.5 5.4-.1 6.8q.2 1.4-1.2 1.8c-1.3.3-1.8-.5-2.1-3.6-.4-4.8.7-8.4 2.4-7.8.7.2 1.2 1.5 1 2.8m4.4 4.4c-.1 4.6-.7 7-2.1 8.5-1 1.1-2.2 2-2.7 2-1.2 0 .2-5.1 1.8-7.1.8-.8 1.4-3.4 1.4-5.7s.4-4.2.9-4.2.8 2.9.7 6.5m-137.1 15.2c-.4 1.6-.7 5-.6 7.8s-.4 7.8-1 11.2l-1.3 6.2 3.8 7.1 3.7 7.1-2.1 2.6a10 10 0 0 0-2 4.8c0 1.2-.9 3.3-1.9 4.7-2.6 3.2-3.8 7.8-2.1 7.8q1.3 0 .7 2.9c-.4 1.7 0 3.6.8 4.8 1.9 2.6.7 3.8-1.7 1.6-1-.9-1.8-2.9-1.8-4.5s-.6-4.4-1.4-6.2c-.8-1.9-1.7-6.4-2.1-10-.6-5.4-1.4-7.5-4.2-11.2a20 20 0 0 0-5.9-5.4c-4-1.6-3.2-5.3 2-9a28 28 0 0 0 9.6-18.1c0-3.4 3.1-6.9 6.1-6.9 1.8 0 2 .4 1.4 2.7m-56.8 1.2c3.4.4 6.4.9 6.7 1.2.6.5 1 4.6.8 8.2-.2 2.7-.2 2.7-5.9 2.1-3.2-.4-6.5-1-7.4-1.5-2-1-4.9-6.9-4.9-9.9 0-1.8.4-2 2.3-1.4 1.2.4 5 1 8.4 1.3m183.1 3.3q-.6 1.2-2.4 1.7-2.3.6-.5-1.3c1.6-1.9 3.4-2.1 2.9-.4m3.6 1.7c.3.4-.3 1.6-1.4 2.6-1.9 1.7-2 1.7-2.6 0-.9-2.3 2.7-4.7 4-2.6M273 318c0 1.5-3.9 3.2-6 2.5q-3.1-1.1-1.3-2.8c1-1.1 7.3-.8 7.3.3m-212.3 4.6c3.3 2.5 5.2 7.9 3.5 9.6-1.5 1.5-9.5-.4-13.2-3.1-2.5-1.8-6.2-7.9-5.5-9.1.8-1.4 12.5.6 15.2 2.6m-20.5 16c1.5 1 4.8 8.5 4.8 11.3 0 2.1-.3 2.3-2.7 1.6l-17-3.5c-1.3-.2-5.3-6-5.3-7.6 0-2.1 2.4-3.9 3.9-2.9.4.2 2.1.1 3.7-.4 2.8-.7 10.4.2 12.6 1.5m247.7 2.3c2.8 2.6 3.1 3.5 3.1 8.5 0 6-2.2 9.6-5.8 9.6-4.1 0-10.2 9.7-10.2 16.2 0 4.1 3.9 12.5 7.1 15.5 3.1 2.9 9 5.3 12.9 5.3 1.6 0 3 .5 3 1s1.1 1.6 2.5 2.2c2 .9 2.8.8 4.2-.4 1-.8 3-1.8 4.5-2.2 2.7-.6 5.3-2.7 6-4.6q.5-1 4.4 1.1c3.4 1.9 4 2.7 4 5.4 0 3.1-.1 3.2-2.8 2.3-9-3.2-20.8 8-17.7 16.7.9 2.4.9 4.4.1 7.6-1.3 5.5 0 13.3 3 17.3 1.2 1.6 2.4 4.3 2.8 6a6 6 0 0 0 3.5 4.6q3.4 1.5 1.3 1.8c-1 .2-3-.4-4.5-1.2l-5.8-3c-4.4-2.1-6.2-4.5-7.7-9.9-1.1-4.2-1-5.1.6-8.2l1.9-3.5-2.4-2.6a50 50 0 0 0-17.6-8.9c-2.5-.5-3.4-.2-4.6 1.6-1.4 1.9-1.9 2-4.4 1.1-1.5-.6-4.4-1.3-6.3-1.4l-3.5-.3-.3-5.7c-.3-5.4-.2-5.8 2.7-7.2a23 23 0 0 1 9.5-1.6c3.6 0 6.8-.5 7.1-1 .4-.6 3.4-.8 7.2-.6 4.8.3 7.1.9 8.5 2.4 2.1 2.1 1.7 4.2-.8 4.2-3.2 0-.3 12.1 3.2 13.4 1 .4 2.2.2 2.7-.3 1.3-1.3 1.8-18.2.6-19.7-1-1.3-16.5-6.6-22.7-7.9q-3.2-.6-6.2-5a90 90 0 0 0-6-7.7c-4.3-4.6-4.1-11 .2-8.7q4.3 2.1 5-5.4c.3-4.4.8-4.7 8-6.2a8 8 0 0 0 4.3-2.9q2.8-4.4-3.6-11.1l-2.9-3.1 3-3.2c3.6-3.9 4.9-4 8.9-.3m-10.6 9.7c3.5 4.2 3.1 7.5-.6 5.2-3.7-2.5-5.8-8.8-2.9-8.8.4 0 2 1.6 3.5 3.6m-197.3 1c.6 1.4 1 3.8 1 5.3s.9 3.6 1.9 4.5q3.3 3 4.6 10.8c.3 2.1 1.4 4.2 2.3 4.7 3.2 1.6 10.6 2 12.2.7.8-.8 3.6-1.7 6.3-2 3.9-.6 4.8-.4 5.4 1q.5 1.7-1.2 3c-2.1 1.5-2.5 4.3-2.8 16.4l-.2 8.5h-3c-2.5 0-3.2-.5-4.1-3.3-.8-2.5-2.6-4.3-7.5-7.2-5.4-3.4-7.3-4-11.8-4q-5.4 0-7.1-1.5c-1.6-1.5-1.6-1.8.2-5.5s1.9-4.2.4-10.3a61 61 0 0 1-1-22.1c.9-2.4 3.3-1.9 4.4 1m62 .9c1 1.2.8 1.6-1.2 2.4-2.8 1.1-5.4 3.9-4.4 4.9.4.3 2.1-.1 3.7-1.1 3.4-1.9 7.5-2.2 8.4-.6 1.1 1.7-.5 7.9-1.9 7.9-1.8 0-2.8-2.7-1.5-3.6q1-.6.1-1.6t-4.7 1.6c-6.4 4.4-7.8 3.2-5.1-4.1l2-5.6c.7-2.1 2.9-2.2 4.6-.2m161.1 20.8q-1.1 1.3-1.2-1.4c-.3-6.3 1.4-10 1.9-4 .2 2.4-.2 4.9-.7 5.4m-157.1-4c.8 1.2 3.1 4 5.1 6.2s6.6 8.3 10.2 13.7c6.3 9.2 6.5 9.7 4.8 11.2-1.5 1.4-2.3 1.5-4.4.5-3.6-1.6-6.7-.6-12.9 4.5-4.9 4-7.3 5.1-10.3 4.7-.5 0 .8-1.9 2.9-4q3.8-3.9 3.3-5.5-1.3-3.5-4.4 1.2c-1 1.6-3.7 4.5-5.9 6.5-3.8 3.4-4.5 3.6-7 2.7q-3.2-1.1-1.4-2c.8-.6 2.3-1 3.3-1 3.7 0 .6-1.7-4.2-2.3-4.9-.6-9.4-2.7-11.8-5.7q-1.3-1.4-.7-8c.7-7.4 2.2-9.4 6.1-7.9 1.3.5 4.1.9 6.2.9 3.5 0 4.3.5 8.1 5.6 4.2 5.3 6.7 7.4 8.9 7.4 1.9 0 1.2-1.7-2.9-7.6-3.3-4.7-9-19.1-7.8-19.8 8.7-4.8 12.1-5.1 14.8-1.3m-122.4 6.9c2.8 1.3 4.4 4.9 4.4 9.9 0 2.2.5 5 1.1 6.1.9 1.7.7 2.4-.9 4s-2.4 1.8-4 .9c-3.3-1.8-7.1-7-8.2-11.4l-2-7c-.7-2.4-.5-2.9 1.3-3.7q3.3-1.4 8.3 1.2M308 391.9c0 .5-1.6 1.1-3.5 1.3q-5 .6-2.8-1.5c1-1 6.3-.8 6.3.2m80.2 16.8c1.5 1.9 3.4 5.4 4.1 7.7a233 233 0 0 1 5.7 27.5c0 .6-1.7 0-3.7-1.4a16 16 0 0 0-5.1-2.5c-.7 0-2.6-.9-4.1-2.1-2.5-1.8-2.8-2.6-2.4-5.9.8-6.1-3.4-6.5-6.4-.7-1.6 3.1-1.6 3.1-2.4.8-1.4-3.7.1-12.9 2.8-16.8 4-5.9.6-8.6-4.8-4q-4.4 3.7-6 10.2c-.7 2.9-.7 2.8-.8-1-.1-2.4.7-5.3 1.9-7.3 1.1-1.8 2-3.9 2-4.6 0-2.3 3-4 7.9-4.6 5.7-.7 7.9.2 11.3 4.7M157 404.4a29 29 0 0 1-8.7 5.3c-.2-.3 1.3-1.7 3.4-3.1q5.3-3.7 5.3-2.2m178.3 2.7q.8 2.3-.9.8c-1.6-1.3-1.9-2.9-.5-2.9q.9.1 1.4 2.1m-20.6.9a10 10 0 0 1-3.4 2c-1.1-.1 3.7-4 4.9-4q.8.2-1.5 2m45 .7q-1.5 1.4-2.3 1.1c-1-1 .6-2.8 2.4-2.8 1.5 0 1.5.1-.1 1.7m-239.2 2.4q4.4 1.1-.7.4c-3.2-.3-4.1.1-6.4 2.8a21 21 0 0 0-3.6 5.9q-1 2.5-2.3 2.2-1.4-.4-2.9 2.3l-1.6 2.8.4-4.2c.3-2.4 1-5.1 1.6-6q1.4-2.2.6-.1-.3 1.5.1 2.2c1 1 4.3-2.5 4.3-4.5 0-4.2 4-5.6 10.5-3.8m47.8 0c-.6.6-.8 2.9-.6 5.3.4 3.1-.1 5.7-1.7 9.2a36 36 0 0 0-2.6 8.2c-.7 5-2.4 8.6-10.2 21.2-4.7 7.4-7 12.1-6.6 13.2.6 2-1.2 15.3-2.8 20.5-1.1 3.8-1.4 3.9-6.8 1.7-3.8-1.5-4-1.8-2.5-3.3 2.3-2.6 4.7-11.3 3.4-12.6q-1-1-2 .7c-.6 1-1.7 1.8-2.4 1.8-1.6 0-1.9 1.4-1.5 7.3l.2 3.8-3-1.5-3-1.5 2.3-5.8c3.6-8.9 4.2-13.3 1.9-15-1.6-1.1-1.6-1.7-.6-4.6 4.1-11.7 6.8-34.4 4-33.5-.7.3-1.4 1.8-1.6 3.4s-.7 3.3-1.2 3.8-.6 3.1-.3 5.7q.5 4.8-.6 6.3c-.6.8-1 1.8-.9 2.2a1 1 0 0 1-.7 1.2c-.5.2-1.4-1.3-1.9-3.3-2.3-9.7 9.3-33.5 16.4-33.5q1.3 0-1.5 2.4c-2.5 2-2.8 2.6-1.6 4 1.7 2.1 2.8 2 7.3-.3 1.9-1.1 3.8-1.7 4.1-1.4q.6.3 1.9-1.6 2.6-4 2.8-.1c0 1.1-.8 2.3-1.7 2.6a79 79 0 0 0-18 9.9c-.2.6.4 2 1.2 3 1.5 2 1.6 2 3.1-.3.9-1.2 2.4-2.2 3.3-2.2 1 0 3.2-1.1 5.1-2.5s4.8-2.9 6.6-3.5c2.7-.9 3.3-1.7 3.9-4.8.3-2.1 1.1-4.4 1.6-5.2 1-1.5.9-.6-.7 5.2q-.4 1.6.6 1.8c1 .2 1.3-.8 1.7-1.8.6-1.8 5.3-7.2 6.2-7.2q.4.1-.6 1.1m181.2 1.7c.6.4.8 2.5.5 4.7l-.5 4-1.3-3.4q-2.8-8.1 1.3-5.3m-31.7 2.1c-.9 1.5-.8 2.4.5 4.5 1.7 2.6 3.7 3.5 3.7 1.6 0-1.6 7.3-6 10.1-6 2.9 0 6.5 3.3 5.4 4.9-.9 1.6 7.2 8.8 13.8 12.2 3.1 1.6 5.7 3.3 5.7 3.8 0 1-7-.2-11.5-1.9a21 21 0 0 1-6-4c-3.1-3-6.1-2.8-5 .2 2 5.1 15.7 9.9 29.3 10.2 9.2.3 10.1.5 17.8 4.5 4.4 2.3 9.3 5.5 10.9 7.1 3.3 3.5 4.5 3.8 4.5 1.1q0-1.8 1-2.6c1.4-.9 3.9 4.7 3.3 7.7-.4 2.2.2 3 4 5.7 4.6 3.1 10.1 9 9.3 9.8-.2.3-1.7-.5-3.3-1.6-5.1-3.8-20-9.1-23.4-8.4-2.3.4-3.8 0-6.2-1.8-2.3-1.7-5.7-2.7-11.9-3.5a53 53 0 0 1-16.4-4.4c-.7 0-2.8-1.5-4.7-3.4a23 23 0 0 0-7.3-4.6c-2.2-.7-5.9-3.2-8.5-5.9-7.2-7.2-10.8-9.6-12.8-8.4-.9.6-1.8 1.8-1.9 2.7-.4 2 2.5 5.6 4.4 5.6.7 0 2.8 1.9 4.6 4.1a45 45 0 0 0 14.6 10.9c.4 0 1.8.7 3 1.6 2.2 1.5 2.2 1.7.7 3.4s-1.8 1.7-7.2-.4a32 32 0 0 1-10.1-6.5c-3.8-3.7-4.8-4.2-6.4-3.2-2.4 1.5-2.5 1.5-3.3-1.6q-.7-2.7 1-3.6 2-.8.4-2.3c-.6-.8-1.6-1.4-2.2-1.4-1.5 0-5.7-4.1-5.7-5.6 0-.6-.7-2.4-1.5-4q-2.6-4.6 1.8-10.9c3.5-5.2 8.3-10.1 5.5-5.6m43.6 13.3q.7 1.6 0 1.8c-3.6-.1-5.9-5.9-4.3-10.9 1.9-6 2.4-5.9 3 .9.3 3.6.9 7.3 1.3 8.2M121 420q.9-.2 1.9-1.7 1-1.6 1.7-1c.4.4.1 1.5-.7 2.4-.8 1-2.5 3.8-3.8 6.2-2.2 4-2.3 5.2-1.8 13.8.6 10.4-.4 11.7-1.5 2-.4-3.4-1.1-8.9-1.7-12.2-1-5.7-.9-6.2 1.7-10 2.4-3.6 2.7-3.8 3-1.8q.4 2.1 1.2 2.3m12-3.5c0 .3-1.3 2.3-2.9 4.5a22 22 0 0 0-3.5 7.5c-.4 1.9-1.1 3.7-1.6 4-1.3.8-1.3-3.7 0-7.1 1.6-4.2 8-11.3 8-8.9m-24.3 13.7q-.4 1.8-.4-1.7-.1-3.5.4-2.3c.2 1 .2 2.8 0 4m283.8 16.2q2.4 1.6.4 1.6c-.8 0-2.6-1.2-4-2.6q-3-3.1-.4-1.6c1.1.6 2.9 1.7 4 2.6M116 452.5q1.6 1.8-.3 1-1.5-.6-2.2 1.4c-.7 2.4-2.5 2.8-2.5.7 0-4.3 2.7-5.9 5-3.1m7.3 5.7c-2.8 5.7-4.2 12-3.2 13.9 1.1 2.2 2 2.4 3.8.6q1.6-1.6.6 1.3c-1.1 3.7-2 4.3-4.3 2.9-1.2-.7-2.5-1-2.9-.6-1.3 1.3 1.3 4.2 4.1 4.5 1.4.2 2.6.7 2.6 1.1q0 2.7-4.5 0c-2.6-1.5-3.4-2.8-3.9-6s-.3-4.4 1.1-5.4c1.7-1.3 1.7-1.4-.2-3.5q-2-2-1-3.4c.6-.7 2.3-3.2 3.8-5.6q3-4.5 4-3.1 1.2 1 0 3.3m-8.2 1.1q-1.5 1.4-.5-.6.6-1.6 1.2-1.2.4.6-.7 1.8m216.7 5.1q1.4 2.8-.1 2.6c-2.7 0-8.6-5.2-8.7-7.7 0-2 7.5 2.4 8.8 5.1m35.2.2q-.2.4-2 .4c-1.8 0-2-.4-2-.9s.9-.7 2-.4q1.8.5 2 .9m-30 4.4q0 .9-.4 1-.6-.1-1.1-1-.4-1 .4-1 1 0 1.1 1m56.2.9c2.9 1.1 7.1 2.3 9.3 2.7 2.2.3 5.1 1.3 6.5 2.1 3.7 2.2 10.8 12 12.1 16.7a36 36 0 0 0 11.4 15.8c2.9 1.3 8.5 8.9 8.5 11.6 0 7.7 11.4 19.5 17.1 17.7 3.7-1.2 9.1-.8 10.7.9 1.5 1.5 1.4 1.6-.9 1.6-1.4 0-3-.5-3.6-1.1-1.7-1.7-7.7-.2-10.3 2.6-2.8 3-1.6 5.4 1.8 3.6 1-.6 2.2-.8 2.5-.4.4.3 2.3-.2 4.3-1.2q3.6-1.7 4.6-.7t-1.1 2.1c-1.1.7-2.8 2.6-3.7 4.3-1.3 2.5-1.4 3.8-.5 7.4a35 35 0 0 1 1.1 6.8c0 3.4 4.4 8.5 6 7q1.2-1.2.2-3a51 51 0 0 1-2.1-9.3c-1-6.4-1-7.7.3-9s1.8-1.3 3.5.3c2.2 2 5.1 1.5 5.1-.7 0-.8-.7-2-1.5-2.7-1.9-1.6-1.9-4 0-4q2.6-.1 2.9 5.8a23 23 0 0 0 3.8 8c4 5.4 4.3 8.9 1.3 13.7-1.3 2.2-1.5 2.8-5 16.2a99 99 0 0 1-3.4 11.2c-1.6 3-1.4 10.6.4 12.1a3 3 0 0 1 .9 3.3q-.6 2 .5 1.3c1.5-1 7.1 3.1 7.1 5.1 0 1.4-.3 1.4-2.2-.1-5.8-4.2-6.8-3.3-3.9 3.5 1.2 2.8 2 5.3 1.7 5.7-.3.3-1.5-1.6-2.6-4.1-3.4-7.7-5.4-5.8-2.5 2.3 1.5 4.4 1.2 6.7-.6 4-.5-.8-1.2-2.6-1.5-4q-1-5.1-3.4-5.8-1.5-.8-.7 3.4c.3 2.2.8 4.7 1.2 5.6q.6 1.6-.3 1.8c-.5 0-1.5-2-2.2-4.5s-1.7-4.8-2.1-5.1c-1.9-1.1-.8-4.7 2.2-7.5 2.4-2.3 2.8-3 1.6-3.5-2-.7-5.7 1.3-5.7 3 0 1.4-4.2 4.6-6 4.6-.6 0 .2-1.9 1.8-4.3 1.7-2.3 3.5-5.8 4.1-7.7a175 175 0 0 0 5.4-25.7c.4-4.8.2-5.4-2.9-8.4a13 13 0 0 1-3.9-7.3c-.8-5.2-2.5-9.6-3.6-9.6q-1-.2-1.9-2.5c-.9-2.3-1.6-2.5-2.3-2.5-.8 0-2.2-.9-3.2-2q-3.1-3.5-5.5-.5-1.2 1.3-2 1c-1.1-.7 0-5.3 1.6-6.6 1.9-1.5 1.8-7.3-.1-8.9s-4.4-.6-4.7 1.7c-.1 1-.4-.7-.7-3.7-.5-4.1-.2-5.8.8-6.6 1.2-1 1.3-1.6.1-4.3-.7-1.8-2.4-4-3.7-4.8-1.3-.9-3.1-2.9-3.9-4.5s-3.1-3.9-5-5-3.4-2.5-3.4-3.1c0-2.2-5.6-9.5-14.4-18.4-7-7.2-10.2-9.7-14.5-11.4-9.2-3.7-10-5.3-.9-2m-45 4.2q4.1 2.1 12.2 2.7c12.3.8 21.9 5.8 19.6 10.2-1.6 3-.7 3.6 5.5 4.4a18 18 0 0 1 15.9 11.2c1.6 3.3 3.9 7.2 5.1 8.9 5.7 7.8 7.8 12.5 7.2 16.3-.5 2.6-.2 4.1 1 5.4.9 1 1.3 2.1.9 2.5q-.7.5-1.5-.6c-1.2-1.9-3.1-.4-3.1 2.4 0 3.2-1.7 4.1-3.9 2.1-3-2.7-4.1-1.9-4.2 3.1q0 5.2-.9 2.8c-.5-1.1-.9-3.2-.9-4.8a7 7 0 0 0-2.1-4.4c-1.1-1-2.5-3.2-3.1-5.1-1-3-.9-3.5.9-4.8 2.1-1.5 2.3-6.3.4-10l-2.8-6.2c-2.1-5.3-6.5-8.7-9.2-7.3q-1.8 1.1-4-.8c-2.2-1.6-2.2-1.7 1.8-1.3 4.7.5 7.7-1.3 5.9-3.4-.6-.8-2.8-1.4-4.8-1.4-3.5 0-7.1-1.4-20.2-8q-9.1-4.6-7.6 1c.4 1.7-.6 1.1-4.2-2.6-8.3-8.6-12-14.4-9.1-14.4.6 0 2.9.9 5.2 2.1M64 477c1 1.9 1 2-.9.8-2.2-1.3-2.8-2.8-1.1-2.8q1 .2 2 2m331 5.5c2.9 3 5.1 5.7 4.7 6.1-.5.6-1.9-.3-8.4-5.4-2.2-1.8-4.1-6.2-2.6-6.2.5 0 3.3 2.5 6.3 5.5m-339 1q-.1 1.4-1.4 1.5t-1.9 2.1q-.6 1.9-1.6 1.4c-1.9-1.1-1.2-3.4 1.7-4.9 3.4-1.9 3.2-1.9 3.2-.1m13.9 1.1c-1.4 1.8-2.4 1.1-1.5-1.1q.7-1.4 1.6-1 1.2.7-.1 2.1m-5.5 4.9q1.2 4-.7 1c-.8-1.1-1.7-3.4-2.1-5q-1.2-4 .7-1c.8 1.1 1.7 3.3 2.1 5m5.3-.3q-.5 1.1-.6-.6t.5-1.3q.5.6.1 1.9m-10.9.6c.6 1.8-1.5 1.4-2.2-.4q-.5-1.5.6-1.2c.6.2 1.4 1 1.6 1.6m-21.7 2.7q.6-.1 1.8 1.8 2 2.9-.3.8-1.8-1.6-2.8-.3c-2.1 2.1-4.8 1.4-4.8-1.1q-.2-4.8 3.4-2.1c1.3.8 2.5 1.2 2.7.9m9.3-.1q3.3-.6 1.7.4c-.7.5-1.6 1.5-2 2.1q-.8 1-3.2-1.6-2-2.5-1-1.6c.8.7 2.8 1 4.5.7m29.5 3.6q.3 2-.9 0c-.5-.8-.9-2.4-.9-3.5v-2l.9 2c.5 1.1.9 2.7.9 3.5m339.8 5.8c3.4 4.4 9.4 18.6 8.1 19.1s-3.8-2.6-3.8-4.6c0-.7-1.3-3.4-2.9-6a52 52 0 0 1-3.6-7.1q-.8-2.4-2.3-1.9c-4.3 1.2-4.7 1.2-4.3-.3l.9-4.9.5-3.5 2.6 3.2zM369 496l2.5 2-3.2-.9c-1.7-.5-4-1.4-5-2q-2.5-1.2.7-1c1.4-.1 3.6.8 5 1.9m-301.3 3.7q-.5 1.3-.5-1.2 0-2.6.5-1.8c.2.7.2 2.1 0 3m-28.6 10.1c.1 8.4-.1 9.4-1.4 8.9-.6-.2-1-1.1-.8-1.8a21 21 0 0 0-.3-12.9c-2.2-5.6-1.9-7.3.5-2.7a20 20 0 0 1 2 8.5m39.6-8.6q-.5 1.1-.6-.6t.5-1.3q.5.6.1 1.9m-58.4 3.6c2.5 2.4 2.7 3.1 2.5 9.3l-.1 6.7-4.1-1.8a35 35 0 0 0-6.8-2.4c-1.5-.4-2.9-1.4-3.3-2.5-.3-1-1.7-2.3-3-2.9S3 509.6 3 509.1s1.8-2.5 4.1-4.5c3.5-3.2 4.5-3.6 7.2-3.1 1.8.4 4.4 1.9 6 3.3m59.3 5.7q-.2 10-2.1 4.6c-.5-1.7-.2-4.3 1.2-9.4.8-2.9.9-2 .9 4.8m-6.5-2.4q-1.2 3.2-1 .3c-.1-1.1.2-2.4.6-2.7 1.2-1.2 1.4 0 .4 2.4m-16.6 2.7c-1.5 1.6-1.6 1.5-.4-1.2q1.2-2.5 1.7-1.6.3 1.2-1.3 2.8m356.5.2q0 .9-1 1a1 1 0 0 1-1-1q.1-1 1-1t1 1m-348.5 6c.3.5 1.8 1 3.1 1 1.5 0 3.8 1.2 5.4 2.9s3.6 3.1 4.4 3.4q1.5.5 1 3.9c-.3 1.8 0 5.3.6 7.8s1.1 5.4 1.1 6.4c0 3-2.1 7.4-3.8 8.1-2.1.7-10.1-3.2-11.3-5.6-.6-1-2.5-2.6-4.3-3.5a13 13 0 0 1-3.9-2.8c-.9-1.4 1.2-2.7 3.4-2 3.3 1 2.9-1.8-.8-5.2-3-2.9-4.3-3.5-6.5-3s-2.6.2-2.2-1.2c.2-1 1.8-2.5 3.4-3.5 1.7-.9 2.7-2.2 2.3-2.8q-.7-1.2 1.5.1c2 1 2.3.8 3.4-1.9q1.7-4.7 3.2-2.1m365.8 9.6c.3.3.1 1.9-.5 3.6-1.3 3.6-3.2 2.3-2.2-1.6q.9-3.8 2.7-2M44 529.1q0 .9-1 .4c-.5-.3-1-1.1-1-1.6q.1-.9 1-.4a2 2 0 0 1 1 1.6m379.8 4.1c-.6 1.8-2.8 2.1-2.8.4q.1-1.5 1.6-1.6 1.4 0 1.2 1.2m-29.4 6.2c.4 2.4 1.6 5.2 2.7 6.2a6 6 0 0 1 1.8 4.9q-.6 9.6 1.6 9.5 1.4.1 1.5 1.8c.1 1.7.5 2.3 1.2 3q1 1.1.5 1.9c-.4.4-1.3.1-1.9-.5q-2.7-2.7-2.8.8 0 2-1.9 2t-2.6.9c-.8 1.3-4.5.9-4.5-.4 0-1.8-7.4-5.5-10.9-5.5-5.3 0-12.6 3.9-10.7 5.7.3.3 2.4-.2 4.7-1.1 2.5-1 5.3-1.4 7-1.1 4.4 1 4.4 2.4 0 1.8-2.3-.3-4.1-.1-4.5.6q-.7 1 1.8 1.1c1.4 0 2.8.5 3.1 1.1.4.5 1.7.9 2.8.8 5.3-.4 6.7.1 7.3 2.6q.6 2.6-1 4.4c-1.2 1.4-1.6 3.4-1.4 8 .1 3.7-.2 6.5-1 7.3q-1.1 1-1.2.2c0-.5-.7.4-1.5 1.9-1.1 2.2-1.2 4.7-.6 12.6.5 5.3.7 10.9.4 12.4-.9 4.4 2 7.7 6.7 7.7q6 0 6 5.5c0 1.6-.2 1.6-2.5.1-1.3-.9-4-1.6-5.9-1.6s-3.8-.5-4.1-1c-1-1.6-3.5-1.2-2.9.5.3.8 2.5 1.8 4.7 2.2 3.4.7 4.5 1.5 5.9 4.3 1 2 1.9 4.4 2 5.5.4 2.6-1.6 3.6-2 1-.4-2.7-3.5-8.5-4.4-8.5-1.1 0 .2 7.9 1.8 11.2q1.5 2.7.3 3.3c-1.5 1-1.8.5-3.7-6.6-2.3-8.5-4.6-8.8-5-.7-.4 8-2.2 7.3-2.2-.7s-1.9-9.6-5.7-4.9c-2.8 3.6-3.1 1.2-.3-3.1q3.4-5.4-1.5-17a17 17 0 0 1-1.8-6.2c.2-.6-.3-2.6-1.2-4.3-2.2-4.2-3.6-20.2-2-21.9.3-.3 1.5 0 2.5.7 1.1.7 3.2 1.2 4.8 1.2 2.1 0 3.2.8 4.6 3.5 1.9 3.5 4.6 4.7 4.6 2.1q.1-1.4 1.6-2c1.4-.5 1.6-1.6 1.1-5.5-.5-4.1-.2-5.2 1.4-6.7q1.9-1.7 1-2.7c-.9-.9-7.3 3.2-9.7 6.3-1 1.2-1.4 1.2-2.8.1q-3.5-2.8 1.2-2.6c2.4 0 2.7-.3 2.7-3.5 0-2.9-.4-3.6-2.3-3.8-1.3-.2-2.8 0-3.5.5s-2.8.9-4.7.9c-3.3-.1-3.5-.3-3.8-3.6-.3-4.4 2.6-10 6.4-12.1 1.8-.9 4-3.8 5.9-7.6 1.7-3.3 4.2-7.4 5.8-9.2s2.7-3.7 2.7-4.2 1-.8 2.2-.6q2.2.1 2.4-1.3c.3-4.2.4-4.3 1.8-3.1.8.6 1.7 3.1 2 5.5m36.6.1c0 3.5-.5 4.9-2.6 6.8-2.5 2.4-2.6 2.5-.9 5.1.9 1.4 1.5 3.3 1.1 4.1-.7 1.9-4.5 1.9-5.2 0-.9-2.2-3.5-1.8-4.1.5-.3 1.2-2.1 2.7-3.9 3.5-3.3 1.4-5 4.3-1.8 3.1q5.6-2.1 8.1-1.1c1.7.6 1.7.7.1 1.6q-1.7 1-1.8 2.3c0 1.7-2.7 2.9-3.5 1.6-.9-1.5-2.5-1.2-2.5.5 0 2 3.7 3.8 6.6 3.1q2.4-.7 3.1-3.7l.9-3.1 4.2 4.1c3.6 3.5 4.5 3.9 6.6 3.1q3.7-1.4 3.6 1.6c0 .7-1.2 1.4-2.7 1.6-2.4.3-2.8.7-2.8 3.5 0 3.8.1 3.7-2.5 2.1-3.1-2-7 .7-7 4.8q0 3.1 1.6 3.8c2.7 1.1 6.1.6 7.4-.9 1.4-1.7 3-2 3-.5 0 2.5-16.1 7.9-19.6 6.6-1.5-.6-1.4-.9 1.4-2.6 4.1-2.5 4.5-3.6 3.3-8.8-.8-3.8-.7-4.4 1.2-5.7 3-2.1 1-4-2.6-2.6q-2.8 1-2.7 3.5c.1 2.5-.8 2.9-2.7 3.8q-2.9 1.3-3.7 5.1c-.9 3.6-3.6 5.3-3.6 2.2 0-1.9-1.3-1.9-5 0-1.7.9-3 2.3-3 3.1q-.2 1.5-2 2.1c-1.5.4-1.9 1.3-1.7 3.6.3 4.2-1.6 4.4-2.9.2-1-3.3-.9-3.9 1.8-7.3a13 13 0 0 1 5.5-4.2c1.5-.3 2.8-1.1 3.1-1.8.6-1.8-3.9-1.5-6.6.4-1.3.9-2.6 1.3-2.9 1-.9-.8 1.7-3.6 3.3-3.6a7 7 0 0 0 3.3-1.2c1.5-.9 2.4-.8 4.5.5 3.1 2.1 3.7 2.1 2.9.2-.3-.9.1-3.5 1-5.8 2.1-5.9 2.8-10.5 1.7-11.2-1.7-1-1.1-3.6 1.5-6.7a10 10 0 0 0 2.5-6.2c0-7 4.1-12.6 9.2-12.6.8 0 2.1-.9 3.1-2q4.5-5.2 4.7 2.5M47 540q-.1.9-1.1 1-.8-.1-.4-1t1.1-1q.4 0 .4 1m92 4.4c.6 4.1.5 4.3-1.2 3.3-1.8-1.2-2.6-6.6-1.1-8 1-1.1 1.6 0 2.3 4.7M26.3 544c4.5 5.3 6 15.1 2.5 15.8-.9.2-4.3-1.7-7.6-4.2s-6.7-4.6-7.6-4.6c-1.8 0-5.2-4.7-4.2-5.8a30 30 0 0 1 11.8-4.1q2.6-.1 5.1 2.9m104 6.7c-.3 2.1-1.2 4.8-1.9 6q-3.1 4.9 1.1 4.1 2.3-.4 2.5-.3l-1.4 3.7c-.8 1.9-1.1 4-.7 4.6 1 1.6 4.1.5 6.3-2.2 2.5-3 2.3-.1-.2 3.4-2.6 3.6-8 7-11.2 7-2.9 0-6.1-3.2-7.6-7.7-1-2.9-.8-3.4.9-4.3 2.4-1.3 2.5-4.2.2-3.8-2.1.3-4.3-.9-4.3-2.4q0-1 1.4.1c2.3 1.9 2.8-.4.6-2.4-2.9-2.7-2.5-3.2 3-3.9a15 15 0 0 0 7.7-3.1c3.8-3.3 4.3-3.1 3.6 1.2m305.2-1.6q-.7.8-2.2.9-1.9.2-.3-1.5c1.3-1.5 3.5-1.1 2.5.6m-25.5-.7q0 .5-1 1.1-.9.4-1-.4.1-1 1-1.1 1 0 1 .4m-.6 5.7c-.8 1.3-2.4.1-2.4-1.8q-.1-1.9 1.5-.3 1.3 1.2.9 2.1m41.1-1.2c-.3 1 .1 2.4 1 3.1q1.4 1.2 1.5 2.6c0 1-.5 1-2.7-.1-4-2.1-4.6-3.7-2-5.7 2.8-2.2 3-2.2 2.2.1m-313.9 3.7c-.3.8-1.3 1.4-2.1 1.4-1.4 0-1.4-.4.2-3.1q1.9-3.3 2.1-1.4c.2.9.1 2.3-.2 3.1m305.2-4c4.1 1.1 2.4 2.7-2.3 2.1-2.5-.4-4.7-.2-5 .3q-.7 1-1.6.4t.2-2c1.2-1.5 4.8-1.8 8.7-.8m-299 18.5c0 6.8-.1 7.3-3.4 10.6-1.9 1.8-3.4 3.8-3.4 4.4 0 .5-1.9 3.1-4.3 5.7-5.3 5.7-10.7 15-10.7 18.5 0 1.8 1.5 3.8 5.5 7.2 3 2.5 5.5 5.3 5.5 6.1q-.2 3-3.5-.6c-1-1.1-2.7-2-3.8-2q-2.1-.2-1.3 2.2c.4 1.3.9 3.6 1.1 5.3q.8 4-.3.5c-1.5-4.3-4.2-9-5.2-9-1.3 0-1.3 2.2 0 5.5.6 1.5 1.2 5 1.5 7.8l.5 5.2-1.5-5.3c-1.6-5.7-5.3-11.4-7-10.9-.5.2-1.2 3.5-1.5 7.3-.7 9.3-2 6.7-2.1-4.3-.1-4.8-.6-9.4-1.2-10.1-1.5-1.9-4.6-1.4-7.3 1.3-3 3-3.4 3.1-3.4.5 0-2.2 8-8 11-8s5.8-3 6.5-6.7c1.2-6.6 4.7-12.8 7.5-13.1q6.7-.8 14.8-8.9c2.9-3 5.1-5.7 4.9-6-.3-.2-2 .3-3.9 1.3l-3.3 1.7 2.1-2.4c4.5-5.2 5.7-8 4.5-10.6-1.5-3.2-1.3-4.2.3-2 .8 1 1.3 4.5 1.4 8.8M435 567q0 .9-.4 1-.5-.1-1.1-1-.4-1 .4-1 1 0 1.1 1m7.7 1.2q-.5 1.1-.6-.6t.5-1.3c.3.3.4 1.2.1 1.9m-430 .8q6 3.4 6.4 12.5.6 8.4-4.4 3.7a20 20 0 0 0-6-3.2c-2.1-.7-4.1-1.9-4.3-2.9l-1.5-3.3c-.5-1-.9-3.1-.9-4.7 0-2.6.4-3 3.3-3.4l3.7-.5c.3-.1 1.9.7 3.7 1.8m437.1-.8q-.6 1.2-2.4 1.7-2.4.6-.5-1.3c1.6-1.9 3.4-2.1 2.9-.4m6.2-.3q0 1-1 1.6c-1.7 1-1.1 2.5 1 2.5 2.4 0 2.6 2.2.5 4-1.2 1-1.8 1-3 0-.8-.6-1.9-.9-2.4-.6-2.2 1.4-1.8-1.3.6-4.7 2.5-3.6 4.3-4.7 4.3-2.8m-340 5.5q-.1 3.8-1.4-1.9-.8-3.2.4-1.5a8 8 0 0 1 1 3.4m-45.5 2.1c-3.5 3.4-5.8 6.5-6 8.1-.4 4.1-4.8 7.8-8.7 7.6-9.7-.8-9.3-.9-9.6 1.8q-.3 2.6 2.2 4.9c2.1 2 2.8 2.2 4.1 1.1q1.7-1.3.5-2.4-2.1-2 .5-3c1.2-.4 1.5.2 1.5 2.8 0 2.8-.6 3.8-3.5 5.5a19 19 0 0 0-5.4 5.1c-2 3.4-5.9 6.6-6.8 5.6q-.4-.6.7-2.1c1-1.2.9-1.6-.4-2.1-2.7-1-4.3.2-8.6 6.7-6.1 9.1-7 11.3-7.1 16.6-.1 4-.2 4.3-.8 1.8-.9-4.3-3.4-3.8-4.2.8-.3 2.1-1.1 4.3-1.7 4.9q-1.3 1.5-.2-2.3c1.6-5.5 1.3-7.1-1.2-6.7-1.2.2-2.5 1.2-2.8 2.3A31 31 0 0 1 6.8 643c-1.5 0-.8-2.5 2.4-8.7 3.3-6.4 3.1-9.8-.2-5.3-5.3 7.1-6.3 8.1-7.1 7.3-1.2-1.2 1.7-7 4.2-8.3 1-.6 1.9-1.6 1.9-2.2s.7-1.9 1.6-2.9c1.3-1.4 2.1-1.6 4.2-.8 2.7 1.1 5.7.5 4.8-1-.3-.4-2.4-1.1-4.6-1.5s-4-1.1-4-1.6q-.2-1-2.1-1t-1.7-1.8c.5-2.8 5.8-2.7 10.2.3q3.9 2.7 4.9 1.6 1-1-.2-2.5c-1.1-1.2-.6-2.2 2.7-5.8 3.8-4 4.2-4.2 6.5-2.9 3.5 1.9 5.9.9 2.7-1.1-4-2.5-7.7-3-9.4-1.2-2.2 2.2-2 .1.3-2.7 1.5-1.9 2.1-2.1 3.3-1.1s2.1.6 4.6-1.8c1.8-1.7 3.6-3 4.2-3 .5 0 1-1.3 1-2.9 0-3.3 3.6-6.8 7.9-7.7 16-3.2 21.5-6.5 13.6-8-3.1-.5-4.1-.2-6.4 2-4.3 4.1-7.1 2.7-3.7-2 1.2-1.6 2.7-1.9 9-2 4.3-.1 8.9-.8 10.8-1.6 8.5-3.9 8.7-3.6 2.3 2.7m335.1-1.8c-.2 1.5-.9 2.9-1.6 3.1q-1.3.4-.7-1.2c.4-1 .7-2.4.7-3.2q0-1.3.9-1.4c.9-.1.8 1.2.7 2.7m-7.8 4c-1.2 1.3-2.5 2.3-3 2.3-1.5 0-.8-2.4 1.4-4.7q2.3-2.5 2.9-1.1t-1.3 3.5m-82.8-.8c0 1.7-.4 3.3-1 3.6q-1 .4-1-2.9c0-2 .5-3.6 1-3.6s1 1.3 1 2.9m125 .5c0 1.6-1.8 3.1-2.7 2.2-.8-.8.5-3.6 1.7-3.6q.9.1 1 1.4m-322.9 2.3c-.5 1-1.6 2.7-2.5 3.8-1.5 1.9-1.5 1.9-1.6-.7 0-1.5.8-3.1 1.8-3.7q4-2.2 2.3.6m16 .2c-1 1.8-5 3.1-10.3 3.4-2.5.2-2.5.1-1.1-1.6 1-1 3.1-1.7 5.2-1.7 2 0 4.3-.5 5.1-1 2.1-1.4 2.2-1.3 1.1.9m234.7 3.3q-4.2 3.4-1.7-2.2c1.3-2.8 1.5-2.9 2.7-1.3 1.1 1.5.9 2-1 3.5m-329.3.1c-.9 1.4-2.3 2.8-3.2 3.1-.8.4-.2-.9 1.3-2.7 3.3-3.9 4.3-4.1 1.9-.4M430 582q0 .9-.4 1-.5-.1-1.1-1-.4-1 .4-1 1 0 1.1 1m-115.6 4.8c-.9 4.3-2.1 3.2-1.6-1.3q.5-3.4 1.3-2.8c.8.6.6 2.4.3 4.1m127.5-3.9q1.3.8.6 3.1c-.7 2.2-.7 2.2-2.1-.5q-3-5.6 1.5-2.6m-409.7 7.3q-1.1 1-1.2.2c0-1.4 1.2-2.6 1.9-1.9q.3.6-.7 1.7M413 592q0 .9-1 1a1 1 0 0 1-1-1q.1-1 1-1t1 1m37 5.7c5.7-.7 5.5 2.2-.3 4.5-4.9 2.1-7 2.2-9.8.8-2.8-1.6-4-.4-2.7 2.5q2.4 5-3 1.8c-2.5-1.4-3.2-1.5-4.6-.4-1.7 1.5-2.1 4.2-.7 5.6 1.1 1.3-2.6 9.5-4.3 9.5-2.5 0-6.5-5.9-7.2-10.5-.7-5.2-1.6-6.1-3.7-4-2 1.9-3.7 1.9-3.7 0 0-2.3-1.1-1.8-4.5 1.9-3.6 3.9-7.6 5.3-10.8 3.8l-3.9-1.6c-2.6-.8-2.2-2.6.6-2.6 3.5 0 7.8-4 10.6-9.9 1.3-2.8 2.7-5.1 3.2-5.1s2.5.7 4.5 1.5c3.9 1.7 10.9 2 14.5.6 4.4-1.6 10-2.3 9.3-1.1-.4.6-.1 1.7.5 2.5 2.9 3.4 8.5.1 6.2-3.6q-3.1-5 2.3.7c3.2 3.3 3.9 3.6 7.5 3.1m-11-2.2q0 1.3-.9 1.5c-.9.2-1.1-.7-1.5-1.5q-.4-1.4.9-1.5 1.4.2 1.5 1.5m-49 5.1q-.1 1.3-1 .9-1-.7-.5-1.6 1.4-2 1.5.7M72.8 613.7c5.2 3.1 6.1 5.9 3.8 12.4-1 2.7-1.5 5.2-1.3 5.7.3.4.2 1.4-.2 2.1-.6 1-1.9.5-5.4-2.1q-7.7-5.6-6.3-11.3c.4-1.5 0-3.7-.9-5.5s-1.3-3.5-1-4c.9-1.4 6.4 0 11.3 2.7m338.2-1.8c0 1.2-2 2.5-2.7 1.8s.6-2.7 1.8-2.7q.8 0 .9.9m-171.2 18.6q-.4 1.8-1.8 2c-1.7 0-2.5-3.7-1.5-6.3.6-1.5.8-1.5 2.1.3a7 7 0 0 1 1.2 4m69.1 4.8c1.7 3.3 1.7 3.7.2 3.6q-4 0-7.1-4.2l-2.2-2.7 2.4-.9c3-1.1 4.4-.3 6.7 4.2m-59.7 5c-2.4 6.9-7.6 17.7-6.7 13.7l2.2-8.5a37 37 0 0 0 1.5-7.7c-.1-1.7 3.7-5.2 4.6-4.3.3.2-.5 3.3-1.6 6.8m-27.9 7.6c-7.3 7.1-8.5 9.7-5.3 12.3 1.2 1 3 1.8 4.1 1.8q4-.1 1.4 4.6c-1.3 2.4-1.5 6.8-1.3 24.9.3 19.9.1 22.5-1.6 26.3-1.8 4-1.8 5.1-.6 19.5.7 8.3 1.6 24 2 34.7s1.1 23.8 1.5 29.1c.8 9.3.7 9.7-1.4 10.4-4.2 1.3-4.1 1.5-7-25-3.8-34.2-4.4-41.8-3.7-48.7l.6-6.8h-2.9c-4.4 0-6.1 3.1-6.1 11 .1 7.1 1.3 20.1 3 32.5 1.5 10.4 3.8 35.8 3.3 36.7-.2.4-1.4.6-2.6.4-2.1-.3-2.2-.7-2.9-18.7-.3-10.1-1.1-20.9-1.8-23.9s-1.3-10.7-1.6-17c-.2-6.3-.6-14.3-.9-17.8-.4-5.4-.2-6.2 1.3-6.2 1 0 2.7-.7 3.9-1.5 1.8-1.3 2-2.2 1.6-8.2a109 109 0 0 0-1.9-13.8c-.8-3.9-1.5-12.9-1.7-20-.2-12.8-.2-13.1 2.6-17.2q5.5-7.7-1.1-8.1c-1.7-.2-3.2-.5-3.2-.8s2.7-3 6.1-6.1c6-5.6 14.2-9.5 21.4-10.2.6 0-1.8 2.6-5.2 5.8m14.4 3.4c-1.4 2.2-1.4 4-.8 65.2 0 3.3-.4 12.7-1 21-.6 8.2-.8 19-.5 24s.9 14.4 1.1 21c.5 13 1.3 24.2 2 26.3.9 2.5-2.7 2.6-4.5.1-2.3-2.9-2.8-7.4-4-33.9l-2-37.8c-.9-15.4-.8-16.6 1-20.2s2-5.7 1.7-25.6c-.2-19.3-.1-22.1 1.5-25.1 3.1-5.8 1.9-9.3-3.3-9.3-4.9 0-4.2-1.9 2.8-8.6l6.8-6.6.3 3.7c.2 2-.3 4.6-1.1 5.8m-63.3-5.1c.6 3.2.3 9.1-1 27.5-.5 6.3-.3 10.6.6 14 1.4 4.8 1.7 13.5 2.5 60.8l.8 40.2c.3 12.4.1 14.3-1.2 14.3-2.8 0-11.5 4.6-14 7.4-1.9 2-3.4 2.6-6.8 2.6-4.6 0-5.3-1.1-2.9-4.5.8-1.3 1.6-6.8 2.1-15l1-14 .3-1.9q.3-.8 1.6 1c1.2 1.5 1.7 1.6 2.7.7.9-.9 1.2-6.7 1-21.5-.1-14.5.2-19.8.9-18.6.6 1 1.3 5.9 1.6 11 1.8 32.4 2 33.4 6 32.6 2.7-.5 3.5-5.2 2.8-16.5-.5-7.6-1.1-10.3-2.1-10.8-1.2-.4-1.4-2.8-1.2-13.7.3-11.2.2-13.3-1.1-13.6s-1.5-4-1.4-27.5c0-26.6.6-35.1 2.5-36.3.5-.3.9-2.8.9-5.7 0-5.5 2-15.7 3.1-15.7.4 0 .9 1.5 1.3 3.2m10.1 2.1c1.1 12.4 4.5 23 7.9 24.3q2.1.8 3.2 22.8c.2 4.3 1.1 10 1.9 12.7.9 2.6 1.5 6.9 1.3 9.6-.3 4.4-.6 4.9-3.9 6.5l-3.7 1.7.4 13.8c.3 7.6 1.1 18.3 1.9 23.8 2 14.4 2.6 21.6 2.9 34 .1 6 .6 11.8 1 12.7.7 1.6.2 1.8-5.3 1.8-7.7 0-7.6 0-7.4-3 .2-1.4.2-9.7.1-18.5l-.1-20.5c.3-16.2.2-34.6-.3-41-.3-4.1-.7-13.4-.8-20.5-.1-7.2-.8-16.5-1.5-20.8-.9-5.7-.9-9.7-.2-15.3.6-4.1 1.1-12.1 1.1-17.6s.3-9.8.7-9.5.7 1.7.8 3m70.6 2.4q-1 2.2-1.1.2c0-1.7 1-3.2 1.8-2.5q.2.6-.7 2.3m19.8-2c0 .5-.4 1.7-.9 2.8q-1 2.8-.9-.8c-.1-1.5.4-2.7.9-2.7q1 0 .9.7m15.1 3.8q0 2.3-.4 2.5c-.4.2-.6-1.1-.8-2.5s-.1-2.5.3-2.5.9 1.1.9 2.5m-44.7 7.5q.4 1.8-.4 1.4-.8-.6-.9-2 .2-3 1.3.6m-91.3 6q0 2.9-3.5 6.4c-1.9 2-3.5 4.3-3.5 5.2q0 1.6-.6 1.1c-1.2-1.1 1.8-7.8 4.2-9.4 1.4-.9 2.4-2.5 2.4-3.9s.2-2.4.5-2.4.5 1.3.5 3m215.7 1.2q-.5 1.1-.6-.6t.5-1.3c.3.3.4 1.2.1 1.9m-209.2 4.4a28 28 0 0 1-.2 6.4c-.5 2.9-.7 3.2-1.4 1.5-1.2-3.2-1.1-13.1.2-11.8a8 8 0 0 1 1.4 3.9m85.1-.4c-.2 2.4-.5 5.8-.5 7.6-.1 1.9-.5 3.1-1.1 2.7-.9-.5-.6-6.4.6-12.3.8-3.8 1.5-2.4 1 2m36.9.5c4.5.4 6.4 1 7.7 2.7 2.3 2.8 2.3 4.3 0 2.3-3.1-2.8-14.2-1.8-14.2 1.2 0 2.3 2 4.1 4.5 4.1 2.9 0 5.1 5.3 6 14 .4 3.6.9 24.5 1.1 46.4.3 38.6.4 40.1 2.4 42l2 2 2.2-2.2c1.7-1.6 2.2-3.3 2.1-6.5l-.6-39.2a578 578 0 0 0-1.2-38.3c-.4-1.7-.4-3.2.1-3.2l3.1-.6c2.1-.6 2.1-.3 2.4 9.8.4 12.9.3 35.9-.2 59.3-.2 9.9 0 19.7.4 21.7.7 3.6.6 3.8-2.7 5.2-3.8 1.6-4.7 4.1-4.3 12.6.2 4.2 0 4.5-2.6 4.8q-2.7.3-3.3-1.2c-.8-2.1-2.2-2-6.7.4-2 1.1-4.1 2-4.5 2s-1.8-2.1-3-4.6c-2.1-4.3-2.2-5.8-2.3-30.7 0-14.4.4-28.2.9-30.7s.5-8.3.1-13c-.5-5.3-.4-10.6.3-14.3.6-3.3.8-8.8.4-13-.4-3.9-.9-11.2-1.1-16-.2-6.4-.9-9.8-2.4-12.8-3.1-5.8-2.8-6.3 2.7-5.5 2.6.4 7.4 1 10.7 1.3m84.6 5.2c-2.2 1.6-13.8 3.8-14.8 2.7-.3-.2 2.7-.9 6.6-1.6 3.9-.6 7.3-1.6 7.7-2.1q.6-.8 1.7-.9.9.2-1.2 1.9m-109.9 22.6V717a149 149 0 0 0 2.8 32.3c1.1 6.5 1.3 8.9 2.5 41.5l.8 20.4-2.9-.4c-2.8-.3-2.9-.5-3-5.3a1192 1192 0 0 1-1.9-53c-.1-11.6-.7-25.7-1.4-31.5a273 273 0 0 1-1.4-40.3c1.1-1.8 4.2 11.3 4.5 18.8m111.9-16.6c-1.2 1.6-2.6 2.9-3.3 2.8-3.5-.1-4.7.5-5.5 3-1.5 4.5-.5 47 1.2 52.1.8 2.3 1.5 5 1.5 5.9s.4 3 1 4.7 1.6 7.6 2.5 13.1l3 18c1.8 10.2 2 25.4.3 26-3.8 1.3-5.2.9-5.8-1.5a4 4 0 0 0-3-3c-1.9-.4-2.6-1.3-2.8-3.8q-.2-3.5-2.8-4.2c-2.3-.9-2.4-1.2-1.7-6.7.8-5.5.9-59.5.2-73.3-.2-3.6.5-10.3 1.4-15s1.8-10.1 2-12c.2-3.1.7-3.6 4.1-4.8 2.1-.6 4.7-1.9 5.9-2.7q5-3.4 1.8 1.4m-75.6 1.1q.4.9-.4 1-1-.1-1.1-1 0-1 .4-1t1.1 1m42.5 7.2c0 21.4.7 38.7 1.8 41.8a37 37 0 0 1 1.2 17.6c-1.9 8.3-3.2 52.1-1.7 56.1.8 2.1.6 2.3-3 2.3h-3.9l-.1-21.3c-.2-62.3-.8-84.4-2.2-86.1-1.7-2-4.1-.4-3.4 2.3.3 1-.1 2.2-.7 2.6-.9.6-1.1-1.8-.6-9.6l.6-10.6c0-.2 5.7-.9 9.3-1.1 2.7-.2 2.8-.2 2.7 6m38 8.8c0 4.1.7 9.3 1.4 11.5 1.2 3.4 2 4.1 5.4 5q7.3 1.8 7.2 5.9c0 1.2.7 3.1 1.5 4.3 1.1 1.6 1.5 4.4 1.4 10.1-.3 9.1.3 10.5 3.4 9.3s5.8.1 9.5 4.3c3 3.5 3.6 4.7 3.3 7.2-.1.6.8 1.9 1.9 2.9 2.5 2.2 2.6 4.8.3 4.3-1.6-.3-2.1-1.4-4.2-8.8-1-3.9-3.6-3.2-3.6 1.1 0 2-.6 4.3-1.3 5.1-1.1 1.4-1 1.7 1 2.4 5.1 1.6 9.6 5.3 10.3 8.4q1.1 5.5 6.1 3.1c2.2-1 2.6-.8 3.5 1.6.5 1.4.8 6.3.7 10.7-.3 8-.3 8.1-1.8 5-.8-1.6-3.1-4.9-5.2-7.3-2.9-3.4-4.2-4.2-6.5-3.9-2.4.3-2.8.7-2.6 3.2a9 9 0 0 0 2.3 5.1c1.1 1.2 2 2.6 2 3.2s.8 2.1 1.8 3.4c1.1 1.3 2.2 3.5 2.5 4.9.5 2.2.1 2-3-1.5-7.3-8.2-8.7-11.2-8.8-18.4-.1-4.9-.7-7.5-2.3-10.1a14 14 0 0 1-2.2-5.3c0-1.1-.9-3.2-2.1-4.8-1.8-2.6-2.5-2.8-5.8-2.3-3.6.6-3.8.4-5.5-3.4-1.1-2.4-1.5-4.8-1.1-6.2l.7-2.2 1.5 2.1q2.7 3.8 5.3.6c.9-1.1.8-1.9-.4-3.7-1.2-1.6-1.6-4.6-1.6-10.9 0-6.5-.4-9-1.5-9.9a6 6 0 0 1-1.5-3.7c0-1.3-.6-2.5-1.2-2.7l-5.2-1.2c-3.6-.8-4.1-1.4-5.7-5.9-1.3-3.7-1.7-8-1.7-16.5 0-8.7.2-10.5.9-7.5.4 2.2.8 7.4.9 11.5m-55.7-6.8c.2 4 .2 20.8-.1 37.3l-.6 40.1c0 5.6-.6 10.7-1.2 11.5-2.4 3.1-3.4 8.1-2.4 12.3.5 2.2.9 5 .7 6.1-.2 1.6.3 2 2.6 1.8 4.7-.3 6-2.1 5.2-6.8-.4-2.2-.7-5.1-.8-6.5-.1-5 1.3-33.3 1.7-33.7 1.9-2 2.3 51.1.4 53.5q-1.1 1.3-7.6 1l-6.4-.3-.5-5c-.2-2.8-.6-25.9-.8-51.5-.4-66-.4-65.3.1-66.2.3-.4 2.5-.8 4.9-.8h4.3zm-73.3 2.5q0 6-1.1 4.6c-1-1-.3-10.3.7-10.3.2 0 .4 2.6.4 5.7m102.6 3.3c-.6 3.6-1 13.5-.9 22 .2 14.9.2 15.3-1.3 11.5a44 44 0 0 1-1.3-15.5c.3-20.2.5-23 2.3-25.9s2.4 1.3 1.2 7.9m-187.1 12.1c.2 11.2.1 17.1-.5 15-.9-3.8-1.4-34.8-.5-33.9.4.3.8 8.9 1 18.9m-30.4-10.4c-1.5 2.8-4 5.9-4.1 5 0-1.6 3.1-6.7 4.1-6.7q.9 0 0 1.7m116.5 11.9c1.2 1.7 1.3 2.8.5 4.2q-1 2-.1 10.3c.9 7.2 2.2 61.3 2 77.8-.1 5.3-.5 7-1.5 6-1.5-1.6-4.1-44.2-3.8-62.4l.5-29.5c.2-9.6.4-15.5.6-13.1s1 5.4 1.8 6.7m-117.5-3.5q-2 3-2.1 2.6c0-1.4 3.1-6.9 3.6-6.4.3.3-.4 2-1.5 3.8m24.9 16.4.3 10-3.5.1a15 15 0 0 0-4.8.9q-1.5 1-.6-1c.4-1.1.9-4 1.2-6.5s1.7-8.5 3.2-13.3l2.7-8.9.6 4.4c.4 2.3.8 8.8.9 14.3m216-1.9c0 6.3 2.3 12.2 5.8 15l2.6 2.1-1.7 4.4c-2.1 5.5-2.1 8.2-.2 11.9 1.8 3.6 6.1 21.6 6.9 29.5.6 5.6.5 6.1-1.8 7.1-2.3 1.1-2.4.9-3-4l-2.1-13.1-2.6-15c-.6-3.9-1.8-10.3-2.6-14.3s-1.3-7.5-1-7.9c.4-.3-.1-1.5-1-2.5-1.3-1.4-1.8-4.1-2-10.1l-.4-9.7v-5.5l.3-4 1.3 5.5c.8 3 1.4 7.8 1.5 10.6m-45.3 8.7c-.2 2.3-.3.1-.3-4.8 0-5 .1-6.8.3-4.2s.2 6.7 0 9m57.6-6.8c1.1 5.3 1.8 12.4 1.1 10.5a9 9 0 0 0-2.2-2.8c-1.7-1.3-4.1-9.1-3.4-11.1.9-2.6 3.7-.5 4.5 3.4m-271.9 11.1q.4 1.5 0 2.5c-.3.6-.2 1.8.2 2.7s.6 2.7.5 3.9.3 2.4.8 2.8 1.1 1.3 1.1 2.1-.5 1.2-1 .9c-.6-.4-1.8-.4-2.6-.1-1.3.5-1.4.9-.1 3.3.9 1.6 2 7.6 2.6 13.4 1.3 11.9.5 15.5-3.6 16.5q-2.3.5-3.3 4.5a70 70 0 0 1-7.5 16.3c-2 3-10.5 7.6-14.2 7.6-4.4 0-3.7-2.6 3-11.1 1.6-2 3.2-5.4 3.7-7.5l2-9.7c1-5 1.5-5.9 4.3-7.1 1.8-.7 3.7-1.9 4.3-2.7 1.2-1.6 3.7-24.1 3.5-31.1-.1-2.6.3-5.7.9-6.8 1.3-2.4 4.5-2.6 5.4-.4m19.4 6.8c-.6 7 1.6 12.1 5.2 12.1 2.7 0 3.4-1.2 7.2-11.3 2.1-5.7 2.3-6.1 2.8-3.5.3 1.5 1.4 4.4 2.4 6.3 1.7 3.2 1.8 5.3 1.3 30.4-.5 26.1-.5 27-2.6 28.6a13 13 0 0 0-3.4 4c-.9 1.9-2.2 2.6-5 2.8-2 .2-3.7.1-3.7-.1l1.7-3.8c1.3-2.5 1.7-5.4 1.5-11-.2-6.3 0-7.9 1.8-10.1q2-2.6 2-7c0-6.4 1.8-15.8 3.7-19.6 2.9-5.7-1.6-7-4.9-1.4a65 65 0 0 0-4.4 21.1c.4.6-.5 3.5-1.9 6.4a27 27 0 0 0-2.5 9.9c0 5.5-2.6 13.4-4.7 14.2-2.6 1-12.1 1.9-13.8 1.2-1.5-.5-1.4-.9.6-3.7a30 30 0 0 0 3.4-7.2c1.2-4.2 1.9-4.8 7-6.4l3-.9V786c0-4.7.4-9 .8-9.6q.5-1.2-.8-2.4c-1.1-1-1.9-.7-3.8 1.4-2.1 2.2-2.6 2.4-3.1 1-1-2.6-.7-4.4.9-4.4q3.9.1 4-13.3c.1-5.2.6-9.2 1.3-9.9s1.2-2.2 1.2-3.4c0-2.7 1.7-7.4 2.6-7.4.4 0 .4 2.4.2 5.4m194.7 2.6c-.4 3.9-.9 6.9-1.2 6.7s-.1-3.7.3-7.6c.3-4 .9-7 1.1-6.7s.2 3.7-.2 7.6m-168.6 1.7q0 1.2-.9 1.3c-.5 0-1-1.7-.9-3.8.1-3.3.2-3.4.9-1.2zm326.6 2.4q.8 1-.2 2-1.2 1.2-1.7 0c-.4-.6-2-1.1-3.6-1.1-2.9 0-4.5-1.2-3.3-2.4.8-.8 7.5.3 8.8 1.5m-363.8 6.6q-.5 1.3-.5-1.2 0-2.6.5-1.8c.2.7.2 2.1 0 3m37-1.5q-.5 1.1-.6-.6t.5-1.3c.3.3.4 1.2.1 1.9m321-1.2q5 .1-1.9 1.3c-3 .5-3.8.3-3.8-1q0-1.5 1.6-.9c.9.3 2.7.6 4.1.6m-129.8 13.2c0 6.2-.4 14.2-.8 17.8q-.8 6.9-.5-11c.3-19.2.2-18 .8-18 .2 0 .4 5.1.5 11.2m133.1-8.3c8.2.9 5.1 2-6.4 2.4q-8 .2-8.4 1.4c-.5 1.7 2.7 2.8 4.7 1.7.9-.5 6.1-.7 11.6-.3s9.8.6 9.5.8c-.3.1-3.4.4-7 .6-8.8.6-11 1.3-11 3.1 0 1.3 1.5 1.5 10 1.3a41 41 0 0 1 10.6.4c.4.4-1.7.7-4.7.8-15.5.2-21.7 3.4-7.9 4.1 9 .4 11.6 2 10.1 6.1-.7 1.9-1.7 2.2-6.7 2.5-3.2.1-7 .5-8.3.8l-2.4.5.7 11.3c.6 9.8.5 11.4-.9 12-2.3.8-2.6-.9-2.3-12.5l.3-10.4-4.9.3c-7.2.5-8.7 1.5-7.9 5.5l.5 3.2-2.2-2.2c-4.8-4.5-.5-9 9.8-10 6.4-.7 6.4-2.5-.1-3.5-5.6-.8-6.7-1.4-6.7-3.7q0-3.9 7-4.8c4.1-.6 5-2.5 1.4-3.1-5.6-.8-6.4-1.3-6.4-3.6 0-1.3.6-2.8 1.3-3.3 2-1.7 7.1-3.2 8.7-2.6.8.3 4.4.9 8 1.2M153.1 765q-1.2 3.8-1-.7c-.1-1.7.2-4 .7-5q.7-2.4 1 .7c.2 1.4-.2 3.7-.7 5m275 1c.1 3.6 0 7.1-.2 7.8-.2.6.7 1.8 2.1 2.5 2.1 1.1 2.6 2.2 3.3 7.7.9 7.1 3 10.3 8.3 12.6 4.4 1.8 11.6 10.4 8.9 10.4-.3 0-2.3-1.8-4.4-4s-4.6-4-5.7-4c-3.1 0-7.4-6.4-8.6-12.8-1.5-8-1.6-8.2-3.3-8.2q-1.5 0-1.5 3.2c-.1 3-.3 2.7-2-2.2l-2-5.8q.2-.2 1.5-.2c2.1 0 1.9-2.4-.5-4.5-1.9-1.7-5.3-1.7-9.2 0q-2 .9-1.8-1.3c.2-2.2.9-2.1 3.8-2.6 2.4-.3 4.9-1.7 6.7-3.6 1.6-1.7 3.2-2.7 3.7-2.2s.8 3.6.9 7.2m-35.6 10c.4 1.2.4 3.9 0 6.1-.6 3.3-.2 4.8 2.6 9.7 1.7 3.1 5.1 7.9 7.5 10.6s4.4 5.2 4.4 5.7-4.2.8-9.7.7l-9.8-.3-.3-2.8q-.4-2.8 1.2-2.7c2.2 0 4.6-2.9 4.6-5.6a17 17 0 0 0-2.3-6.2c-2.4-3.7-2.6-6.3-1.2-13.5q1.4-6.2 3-1.7m-273.3 8.2q.8 7-3.3 6.8c-2.3 0-5.4 4.7-7.3 11.2-2.1 6.8-5.3 10.8-8.8 10.8h-2.9l4.6-6.6c2.5-3.7 5.3-8.9 6.3-11.6.9-2.8 2.8-5.8 4.3-6.9 1.5-1 3.2-3.2 3.9-4.9q2.5-6.2 3.2 1.2m314.2 14.3c2.9 2.8 4.9 4 7 4 1.6 0 3.1.6 3.4 1.4.4 1.1-.4 1.3-4.2.8q-8.7-1.2-8.6-4.6c0-1-.7-2.4-1.5-3.1a5 5 0 0 1-1.4-3.4q0-2.1.6-.6a27 27 0 0 0 4.7 5.5m-89.3 10c-.8 1.6-2.2-7.8-1.4-9.5q.6-1.2 1.3 3.5c.3 2.7.3 5.4.1 6m77.9-6.4q0 .9-1 .4c-.5-.3-1-1.1-1-1.6q.1-.9 1-.4a2 2 0 0 1 1 1.6m-43 4q0 2.8-1 2.4c-.5-.3-1-2-1-3.6q0-2.8 1-2.4c.6.3 1 2 1 3.6m37 .4q1 1.3.2 1.5-1-.2-2.2-1.5-1-1.3-.2-1.5 1 .2 2.2 1.5"/><path d="M217.3 19.1q-3.6 3.8 2.6 3.9c3.2 0 4.4.6 7.5 4 2 2.2 3.6 4.3 3.6 4.6s-1.8 2.7-4.1 5.2c-3 3.5-5 4.8-7.7 5.2q-5.9.7-3 4.2c1.2 1.5 5.4 1.7 40.8 2l39.5.3.3-2.3c.3-1.9-.1-2.2-3.2-2.2H290V24h2.9c3.6 0 4.6-1.3 2.4-3.1-1.3-1.1-7.8-1.4-30.2-1.6-15.7-.1-32.6-.5-37.6-.8-6.6-.5-9.3-.3-10.2.6m21.1 4.8c.3.5-.1 1.5-1 2.2-1.7 1.4-4.4.4-5.2-1.9-.4-1.4 5.4-1.7 6.2-.3m19 9.1c2.4 5.2 4.2 9.8 3.9 10.2-.2.5-3.5.8-7.3.8-6.2 0-7.1-.2-8.1-2.3-.7-1.2-2.5-3.8-4.1-5.7a16 16 0 0 1-2.8-4.4c0-.6 1.7-2.7 3.7-4.9 3.1-3.1 4.4-3.7 7.1-3.5 3.1.3 3.5.8 7.6 9.8m15.1-8.5c-.1 1.9-6 11.5-7.1 11.5-.9 0-5.4-10.2-5.4-12.1 0-.2 2.8-.4 6.3-.4 3.4 0 6.2.5 6.2 1m10.3.8q1.1 1.3.4 9.7l-.7 8.5-6.7.3c-4.1.2-6.8-.1-6.8-.7 0-1 5.6-11.9 8.7-16.9 1.5-2.5 3.5-2.8 5.1-.9m-46.1 13.9c3.3 3.1 2.9 3.8-2.2 3.8-4.9 0-5.6-1.1-2.8-4.2 2-2.3 2.2-2.3 5 .4M235 74.4c0 1.5 4.1 7.6 5.1 7.6 1.8 0 .8-2.7-2.1-5.5-1.6-1.6-3-2.5-3-2.1m51 68.6q.1.9 1.1 1 .8-.1.4-1-.6-1-1.1-1-.4 0-.4 1m-129.3-12.3c-1.2 1.1-.8 2.3.8 2.3q1.4-.1 1.5-1.5c0-1.6-1.2-2-2.3-.8m23.6 16c.9.2 2.5.2 3.5 0q1.2-.5-1.8-.5t-1.7.5m23.8 16.3c-3.4 5.5-2.7 6.7 1.2 2 2.8-3.3 4.2-3.7 5-1.6 1 2.4 7.6 6.9 9.3 6.2 1.2-.5.6-1.5-3-5.1a20 20 0 0 1-4.6-5.5c0-.5-1.1-1-2.4-1-1.8 0-3.2 1.2-5.5 5m149.4 14q-.4.9.4 1 1-.1 1.1-1 0-1-.4-1t-1.1 1m-116.8-.2c-1 1-1.7 2.9-1.7 4.2 0 2.8-9.9 12.7-14.1 14.2-4.7 1.6-5.9 6.9-6.5 29.3-.5 19.2-.5 20.1 1.5 21.9 1.5 1.4 1.9 2.6 1.4 4.8-.7 3.6 1.1 5.2 4.1 3.6 1.2-.6 5.7-1.2 10.1-1.4a78 78 0 0 0 11-.8c1.7-.3 4.2-.1 5.6.5q2.5 1 5.4-.1c2.8-1.1 2.8-1.1 2.2-7.9-.8-9.7-.4-10.8 4.3-10.8 5 0 8.1-2.5 13.7-11 5.3-8.1 7.6-13.3 7.1-16.5-.5-3.5-3.5-3.3-7.8.6-4.4 4-8.4 5.4-10.4 3.7-1.8-1.5-2.7-4.9-1.5-5.7 1.4-.8 1.1-4-.8-7.9-2-4.2-4.4-4.5-10.4-1.4-2.3 1.1-4.4 1.8-4.7 1.4-.3-.3-.5-2.7-.3-5.4.1-2.7-.2-5.2-.8-5.6s-1.1-1.9-1.1-3.5c0-4-1.7-8-3.3-8-.8 0-2.1.8-3 1.8m4.3 5.3c0 2-5.6 8.6-6.6 7.6-.6-.6 4.8-9.6 5.9-9.7q.6.2.7 2.1m.5 13.4c0 4.9.4 7 1.4 7.3.7.2 4-.8 7.2-2.3 4.8-2.4 6.1-2.6 7.4-1.5 2.3 1.9 1.9 2.6-2.6 3.9q-4.2 1.2-3.7 2.9.3 1.7 2.5 1.4c2.7-.4 3.7 1.2 1.8 2.8q-4.4 4 3.3 3.8c2.6 0 6.5 0 8.6.2 3.3.3 4.3-.1 6.8-2.9 1.6-1.7 3.3-2.9 3.8-2.6 1.1.7-3.7 7.9-7.9 11.9a13 13 0 0 0-3.1 4q.1 2.9-5.2 5c-3.4 1.5-3.8 1.4-6-.4l-2.3-1.9 2.8-.1c3.2 0 8.4-2.7 9.1-4.6q.4-1.2-1-.7t-1.4-1.5c0-1.6-.5-1.8-2.7-1.4-1.6.2-3.3.9-4 1.4-1.3 1-6.5 0-7.5-1.5-.3-.6-.4-2.4-.2-4.1.6-3.9-1-6.6-2.8-4.8q-2.7 2.6-2.8-.7c0-1-.7-2.2-1.6-2.5s-1.4-1.3-1-2.1q.4-1.4-.4-2c-1.6-1-1.3-14.8.3-14.2q1.2.3 1.2 7.2m7.9 30.4c-.7.7-4.4-3.1-4.4-4.6q.2-1.1 2.4 1.4c1.3 1.5 2.2 3 2 3.2m-48.1 36.3c-1.3 1.7-8.2 17.4-9.5 21.7-.7 2.6-.6 4.4.7 7.8 1.7 4.3 1.7 4.5-.3 5.9-4.8 3.3-3.1 12.9 2.6 15.3 1.6.7 3.3 2.2 3.6 3.4a99 99 0 0 1-.5 24.6c-.8 6.1-.8 8.6 0 9.4.6.6 1.1 2.7 1.1 4.7 0 5.3 1.3 6 11.1 6 4.8 0 9.1.4 9.4 1 1 1.7 2.1 1.2 6.8-3.3l4.5-4.3-.4-7a175 175 0 0 1-1.8-28.2c-.1-17.3-.3-17.7-6.8-15.5-5.4 1.8-7 .5-6.1-5 .5-3.6.6-3.7 2-1.7 1.8 2.5 3.3 1.7 3.3-1.7 0-1.5 1.4-4.1 3.4-6.4 3.6-3.9 5.3-9.1 4.2-13.2-.6-2.4-5.2-7.7-6.7-7.7-.5 0-1.7 1.7-2.8 3.7-1 2.1-2.8 4.6-3.9 5.6s-2.6 3.2-3.3 4.8c-1.3 3.4-2.9 2.3-2.9-2.1 0-1.3-.6-4.2-1.4-6.5s-1.8-5.8-2.2-7.9q-1.6-6.4-4.1-3.4m3.1 17.7q.1 10 1.4 11.3 2.6 2.7-.6 2.8c-3.5 0-4.2-2.1-4.2-12.6 0-11 .6-14.2 2.3-12.5.6.6 1.1 5.5 1.1 11m20.6 0c0 2.8-.9 4.5-3.6 7.4q-6.3 6.5-3-.2c1.9-3.6 2.1-5 .4-3.3q-1.2 1.1-2 1.2c-1.4 0-.9-2.8.9-4.6 1.6-1.5 1.7-1.5 2.4.2q.8 1.8.8-3c.1-4.8.1-4.9 2.1-3.1q2 1.9 2 5.4M197.5 301q.3.9-1.4 1-2-.1-2.1-1 .1-1 1.4-1c.8 0 1.8.4 2.1 1m113.1 217.6c-.8 2.2-.6 9.5.3 11.9.5 1.1.4 3.3-.2 4.8-1.1 3.3.4 7.7 2.7 7.7.8 0 1.9-1.5 2.5-3.3 1.1-3.6 1-19.5-.2-21.5-1.1-1.7-4.4-1.5-5.1.4m-206.4-137q.4 1.8 2.2 2.2t1.4-1.4-2.2-2.2-1.4 1.4m-3.2 6.8q.1 1.5 1.6 1.6 1.4 0 1.2-1.2c-.6-1.8-2.8-2.1-2.8-.4m51 37.6q.1.9 1 1 1-.1 1-1t-1-1a1 1 0 0 0-1 1m-5.8 26.7c-1.9 4.3-4.3 7-4.9 5.5-.8-2.2-2.4-1.3-1.7 1.2.4 1.7-.1 2.8-2 4.4-3.3 2.6-3.3 3.6.3 6.1s4.5 1.6 5.5-4.6c.3-2.4 2-6.3 3.7-8.7s2.8-4.9 2.5-5.5q-1.5-2.7-3.4 1.6m210.6-10.3c-1 .7-1.8 2-1.8 2.9 0 2 4.9 4.7 8.5 4.7 1.5 0 6 1.5 9.9 3.4 7 3.4 23.8 7.2 25.8 6 1.5-.9-1.3-3.5-3.1-2.9-1 .3-2.6-.2-3.7-1a8 8 0 0 0-4.2-1.5c-1.2 0-2.5-.8-2.9-1.8-1.4-3.9-3.5-5.2-8.7-5.2a25 25 0 0 1-14.6-4.3c-2.9-2-3-2-5.2-.3m94.3 95.5q-1.1 1-.6 2 .6 1.4 2.1 0c2.6-2.2 1.4-3.8-1.5-2M62.5 523c-2.2 2.4-1.3 6.5 1.8 8.4 1.5.9 2.3.6 4.3-1.7 2.9-3.4 3.1-6.3.5-7.7-2.9-1.5-4.6-1.2-6.6 1m6.3 17.1c-2.4 1.3-2.3 4.2.2 6.4 3.6 3.3 8.3-1.3 5.4-5.3-1.7-2.4-3-2.7-5.6-1.1m314.2 7.4c-1.5 1.8-1.4 2 2.2 2.9 3.1.7 4.5-.8 2.8-2.9q-2.5-2.8-5 0m-4.8 7.7c-2.1 2.1-1.3 2.8 3.2 2.8 4.1 0 6.7-1.2 4.9-2.3-2.3-1.3-7-1.6-8.1-.5m-323 33c.6 1.8 2.8 2.1 2.8.4q-.1-1.5-1.6-1.6-1.4 0-1.2 1.2m-15.7 13.2c-1.9 1.4-1.9 1.6-.2 3.3s1.9 1.7 5.2-.1c3.9-2.1 4.5-3.6 1.6-3.6-1.1 0-2.5-.2-3.3-.5s-2.2.1-3.3.9m364.5-2.9c-1 1.2-1 1.8 0 3 1.5 1.8 3.3 1.9 7.7.3 3.3-1.2 4-3.3 1-3.3a4 4 0 0 1-2.3-.8c-1.3-1.2-5.1-.8-6.4.8m16.9 1.3c-1.9 1.6-1.9 1.9-.6 3.1 2.1 1.7 5.7.5 5.7-1.9 0-2.6-2.5-3.2-5.1-1.2m6.7-.9c-.8 1.2 2.1 3.4 3.3 2.7q1-.7.4-2.1c-.6-1.7-2.9-2-3.7-.6M443 600q.1.9 1 1 1-.1 1-1t-1-1a1 1 0 0 0-1 1m-41.7 5.2q.5 1.2 1.7 1.3c1.2.1 1.5-.6 1.8-1.3q.2-1.1-1.8-1.2c-2-.1-2 .5-1.7 1.2m21.7 2.4q.1 1.3 1 .9 1-.6 1-1.6 0-.8-1-.9-.9.1-1 1.6m-25 1.4q.1.9 1 1 1-.1 1-1t-1-1a1 1 0 0 0-1 1m25.5 3.1c-1 1.5.3 2.5 1.6 1.2q1-1 .1-1.7-1-.4-1.7.5m-1 5.8q-.4.9.5 1.6c1.2.7 3-.2 3-1.6 0-1.2-2.7-1.2-3.5 0M393 748.8c0 1.3 5 4.5 5.8 3.7 1.1-1-1.4-4-3.7-4.3-1.1-.2-2.1.1-2.1.6m70.2 24.4q-2.9 2.8 1.6 2.8c3.4 0 5.7-1.4 4.8-2.9s-4.9-1.4-6.4.1m9.5 5.4c-.4.4-.7 1.4-.7 2.1 0 1.1 1.7 1.3 7.8 1.1s7.7-.6 7.7-1.8-1.6-1.6-7-1.8c-3.9-.1-7.4 0-7.8.4M123.8 21.9c-6.2 3.2-10.8 6.2-10.8 7.2 0 2.3 3.3 2.1 5.1-.2 1.6-2.1 1.8-2.2 2.4-.6 1 2.4 5.2 2.2 6.6-.5 1.1-2 1.2-2 2.1-.4q1 1.9 3.5 1.1c1.4-.3 3.1-.1 4 .7 1.2 1 1.8.9 2.9-.7 1.3-1.7 1.5-1.7 4.9 1.8 3.8 3.9 7.3 5.1 5.7 1.9-.5-.9-.7-2.2-.5-2.9q.2-1-.6-1.8c-1.8-1.1-1.2-2.3 1.2-2.7q2.1-.3 2.2-2.2c0-1.8-.9-2-12.5-2.3-10.7-.2-13 0-16.2 1.6M107 31.2c-5 3.4-5 5.3-.1 2.7 2.3-1.1 4.1-2.7 4.1-3.5 0-1.8-.1-1.8-4 .8m15.4 8.8c-10 .9-19.3 4.4-21.9 8.3a16 16 0 0 0-1 13.9c4.8 12.3 15 25.8 19.4 25.8 1 0 2.4.7 3.1 1.5q1.3 1.6 2.3.6t-2.6-4.8c-4.3-4.4-4.6-6.6-1.2-8.9 3-1.9 3.2-3.4.6-3.4a3 3 0 0 1-2.5-1.5c-.3-.8-1.7-1.5-3.1-1.5s-2.4-.5-2.2-1.2-1-1.8-2.5-2.5c-1.6-.8-2.8-2.2-2.8-3.1-.1-2.4-2.2-4.9-4.5-5.3-2.3-.5-3.4-3.9-1.2-3.9.8 0 2 .7 2.7 1.5s1.7 1.2 2.2.9c1.6-1 6-1.2 8.9-.4q2.6.8 3.8-.3t2.5.8c.7 1.1 2 1.6 2.9 1.2q1.5-.4 2.1.9t1.6.9c1.5-1 1.2-3.6-.7-5q-1.4-1.2-.9-2.3c1.2-2 4.2-1.3 5.6 1.4 1.2 2.1 1.9 2.4 4 1.8 1.4-.4 3.3-.6 4.3-.6 2.1.1 2 .2.2-3.4-.8-1.7-1.2-4.7-1-7 .3-4.1.3-4.2-3.3-4.8-2-.3-4.1-.5-4.7-.4zM116 79.5q0 1.3-1 1.5-.9-.2-1-1.5c-.1-1.3.5-1.5 1-1.5q1 .2 1 1.5m-24-4.7c0 .5.7 1.6 1.6 2.3q2 1.8 1.3-.5c-.4-2-2.9-3.5-2.9-1.8m2 5.4 1.4 6.9c2.3 9.7 12 25.9 13.3 22.3q.5-1 5.8-.6 5.5.5 5.5-.7-.2-1-2.5-1.1-2.4 0-2.5-1.5 0-1.3-1-1.5c-.5 0-.7-1.3-.3-3 .5-2.6.2-3-1.5-3q-2.1 0-2.4-2.3t-3-2.5c-2.4-.3-2.8-.8-2.8-3.3 0-1.6-.6-3-1.2-3.1l-2.8-.2q-1.5-.1-1.2-2.8t-1.7-3.7c-2.5-1.4-3.1-1.4-3.1.1m321.4 747.2q-1.1 3-.5 22.9c.3 8.3.1 10-1.4 11.7-2.1 2.3-1.9 2.3 5.5 2 6.1-.2 8.5-1.5 5.8-3.1-1.4-.8-1.8-2.3-1.8-7 0-8.9 1.5-8.7 11 1.4 7.2 7.6 8.4 8.5 12.2 9 4.2.4 8.8-1.3 8.8-3.2 0-.5-1.6-1.1-3.6-1.4-3.9-.7-11-6-14.5-10.8l-2.1-3 2.4-2.7q9.9-10.7 3.1-14.9c-3.9-2.6-24-3.3-24.9-.9m17.4 3.8q2.5 2.7-.5 7.9c-2 3.4-2.8 3.8-7 3.2-3.2-.5-3.3-.7-3.3-5.2 0-5.6 1.2-7.1 6-7.1 2 0 4.1.5 4.8 1.2m-75.5-2.7c-.3.9.2 2.1 1 2.8 1.5 1.1 1.4 1.7-.6 6.7-1.2 3-2.7 5.5-3.2 5.4s-2.5-2.9-4.3-6.3c-3.8-7.1-6.8-9.5-10.6-8.5-2.1.5-3.5 2.4-6.7 9.1-2.2 4.7-4.4 8.1-4.9 7.7-.5-.5-1.8-3.4-2.9-6.3-1.9-5.1-1.9-5.6-.4-7.3.9-1 1.3-2.1 1-2.4a57 57 0 0 0-17.5 0c-1.8 1.1-.2 3.8 1.9 3.3 2.2-.6 3.1.4 5.4 6.8 1 2.7 3.8 8.9 6.2 13.7 3.7 7.6 4.1 9.1 3.1 10.8-2 3.1-.1 4 6.9 3.1a31 31 0 0 0 6.9-1.3c.3-.4-1.3-2.5-3.5-4.7s-4.1-5-4.1-6.1c0-2.1 8-16.9 9.2-17a56 56 0 0 1 8.3 13.2c2.4 4.5 2.4 5 1.1 8.2-.8 1.9-2.4 3.7-3.5 4.1s-2.1 1.3-2.1 2.1c0 1.1 1.5 1.4 5.9 1.4 6.4 0 8.6-1.4 5.6-3.6-1.7-1.3-1.7-1.6-.2-6.1 3.6-10.7 10.2-24.6 11.9-25.1 1-.2 1.8-1.1 1.8-1.8 0-3.1-10.6-4.7-11.7-1.9m22.2-.7q-6.2.7-3.2 4c1.3 1.5 1.8 4.8 2.4 15.6l.6 13.7-3.1 1.1c-7.4 2.8-2 3.7 15.3 2.4 6.6-.4 12.5-1.3 13.2-1.8s1.1-2.7 1-4.9c-.1-3-.5-3.9-1.9-3.9-1 0-2.3 1.1-2.9 2.4-1.2 2.5-3.5 3.6-8.2 3.6q-4.7 0-4.7-8.5c0-4.3 1.8-5.5 4.1-2.7q3.3 4 4.4.2c.9-2.7-.4-8-1.9-8-.6 0-2 .9-2.9 2.1-1.5 1.6-2.1 1.8-3.3.9-1.6-1.4-1.9-8.6-.5-10.9 1.1-1.7 11.4-1.9 13.4-.3q2.7 2.3 2.7-3V827l-10.7.2c-6 .1-12.1.4-13.8.6m-149.5 3c-6.8.1-12.9.7-13.4 1.2-1.3 1.3-.9 8 .6 9.7 1.8 2.2 3.6 1.5 4.3-1.6.5-2.5 1.2-3 4.7-3.6 6.4-1.1 7 .4 6.4 15.3-.3 6.8-1 12.9-1.5 13.6-1.7 2-.2 2.6 6.5 2.6q10.3-.1 5.8-3.7c-1.7-1.2-1.9-2.7-1.7-14.5.1-7.2.5-13.4 1-13.9s2.9-.5 5.6-.2c3.5.4 4.7 1 4.7 2.2a8 8 0 0 0 1.3 3.6c1.3 1.7 1.5 1.7 3-.6 1-1.3 1.7-4 1.7-6.1v-3.7l-5.2-.4c-2.9-.3-6.6-.4-8.3-.3zm48 .3c-8 2.2-13.3 13.2-11 22.8 1.3 5.7 3.5 8.3 9.2 11.2 3.4 1.7 5.4 2 10.5 1.6 8.2-.6 12.2-3 15.3-9.2q5.5-11.4-.7-20.6c-2.3-3.3-4.2-4.9-7.1-5.7a33 33 0 0 0-16.2-.1m12.6 5c1.6 1.7 2 4 2.2 12.8.3 9.2.1 10.9-1.4 12.2-1.8 1.5-10.7 2-12.1.6-.4-.5-.7-6.3-.7-13 .2-10.4.4-12.2 2-13.4 2.7-2 7.8-1.6 10 .8m-164.9-3.4c-.9.8 1.2 3.3 2.8 3.3 1.4 0 2.5 3 2.5 6.8q-.2 4.8-11.5 3.7c-3.3-.3-6.6-.9-7.2-1.3s-1.3-3-1.5-5.7l-.3-5-5.5-.7c-6.5-.8-7.4-.4-5.6 2.5 2 3.2 2.8 27.9 1 30.5q-1.1 1.8-.7 2.6c.3.3 4.2.6 8.5.6 6.3 0 7.8-.3 7.8-1.5q-.2-1.4-1.9-1.5c-1.6 0-2.1-.9-2.6-4.3-.4-2.4-.5-5.6-.3-7.3l.3-2.9 8-.3q8.1-.3 9.8 1c2.6 1.9 3.3 8.7 1.3 12.5-.8 1.7-1.2 3.3-.9 3.7 1 .9 10.1.7 10.7-.3a129 129 0 0 1-.9-33.5l.7-3.6h-6.9a24 24 0 0 0-7.6.7m19 1.2c-.9 1-.5 1.8 1.7 3.6 2.7 2.2 2.8 2.5 2.8 12.6.1 7.8-.3 11.2-1.5 13.6-2.8 5.2-1.5 6.4 6.2 5.9 3.6-.3 9.8-.5 13.8-.5 8.3-.1 10.3-1.4 10.3-6.6 0-5.3-3.6-5.9-5.8-.9-1 2.1-1.8 2.4-7.1 2.4-6.3 0-7.1-.6-7.1-5.8 0-3.6 1-4.9 4.3-5.7 2.3-.6 2.7-.4 2.7 1.3q.1 2 .8 2.6 2.6 1.4 3.4-6.1c.5-5.8-1.1-7.7-3.5-4.3a8 8 0 0 1-4.5 2.6c-3.1.6-3.2.6-3.2-3q0-8 8.8-7.4c3.8.2 4.7 0 5-1.5.8-4-1.3-4.7-14-4.4-8.7.1-12.3.6-13.1 1.6m-80.4.1c-8.3.3-15.4.8-15.8 1.2-.3.3-.1 2.4.6 4.7 1.3 4.4 4.3 5.6 5.4 2.2q.4-1.9 5.1-2.6c2.5-.3 4.9-.4 5.2 0 .4.4.8 6.7 1 14 .4 12.7.3 13.4-1.7 14.7q-2 1.2-2.1 2c0 1.2 8.9 1 13.3-.3 3.7-1 3.8-1.1 2.2-2.9-1.3-1.4-1.8-4.6-2.2-13.9-.6-14.1-.2-15.1 6.3-15.1 3.9 0 4.5.3 6 3.2 2.2 4.3 2.1 4.3 3.9 2.8s2-8.9.3-9.5c-2.3-.8-12.1-1-27.5-.5m400.5 22.1c-2.2 1.2-2.3 4.2-.3 5.9 1.8 1.5 6.2 0 7.1-2.5 1.3-3.4-3.1-5.6-6.8-3.4"/></svg>