<svg xmlns="http://www.w3.org/2000/svg" width="666.7" height="1170.7" viewBox="0 0 500 878"><path d="M300.9 9.4c-.2.2-20.3.6-44.7.9a911 911 0 0 0-45.2 1.2c-1.9 1.2.1 2.5 3.8 2.5 2 0 4.3.4 5 .8 1.5 1 5.2 8.1 5.2 10 0 2.5-4.3 9.2-5.9 9.3l-5.1.2q-3.6.2-3.5 1.7c0 1.1 1.4 1.5 6 1.7 28.1.8 34.8 1.2 35.6 2q1.1 1-.6 4.2c-.9 1.7-1.3 3.6-1 4.1.4.6.2 2.5-.3 4.3-1.2 3.9-2.4 13.3-1.6 12.5.7-.7 4.1-14.9 5-20.5.8-5.2 2.1-6.5 6-5.4 2.8.7 3 1.1 5.7 13.7l5.2 23.9c1.4 6 3.2 14.9 4.1 19.7 2.1 11 2.4 11.5 6.1 9.9 1.5-.7 4.2-2.3 5.8-3.7l3-2.5-4 2c-4 2.1-7.5 2.7-7.5 1.3 0-.4-.7-3.9-1.6-7.7L273 79l-4.9-23.9a96 96 0 0 1-2.6-15.1c.3-.4 8.2-.9 17.7-1l19.8-.4c6.7-.3 6-4.4-.8-4.8l-4.7-.3-.5-8.5c-.3-4.7-.2-9 .2-9.6s2.2-1.1 3.9-1.2c5.6-.1 8-5.2 2.5-5.2-1.2 0-2.5.2-2.7.4m-68.5 5.5c.3.4-.1 1.7-.9 2.7-1.5 1.9-1.5 1.9-3 0Q226 14.2 230 14c1 0 2.1.4 2.4.9m11.4-.3q2.3.7 1.7 2.3-.4 1.7 3 5.1c3.7 3.6 5.7 8.6 4.8 12q-.5 2.2-2.2 1.4c-.9-.4-4.2-1-7.4-1.2-5.5-.4-5.9-.6-8.2-4.3a20 20 0 0 1-2.5-4.6c0-1 7.2-11.3 7.9-11.3zm46.2 8.8a33 33 0 0 1-.8 10c-.4.2-2.3.1-4.2-.3l-3.5-.7-.3-7.8a46 46 0 0 1 .2-9.3c.3-.8 2.1-1.3 4.6-1.3h4zm-24.1-7.2c0 1.9-5.2 11.1-6.4 11.5-1.1.3-6.5-8.9-6.5-11.2 0-1.2 1.4-1.5 6.5-1.5q6.7 0 6.4 1.2m8.6 7.8v8.5l-5.7.3c-3.2.2-5.8-.1-5.8-.5s1.9-4.5 4.2-9.1c5.7-10.9 7.3-10.7 7.3.8M229 32.5q0 1.3-1 1.5-.9-.2-1-1.5c-.1-1.3.5-1.5 1-1.5q1 .1 1 1.5m-160.6-10q-.7 1.8.9 2.6c.8.5 1.8 2.4 2.2 4.2A92 92 0 0 0 78.3 50q.8-.1.4-1.8A665 665 0 0 1 72 26.1c-1.1-4.4-2.7-6-3.6-3.6m364.3 6q-.6 1.4.8 1.5c.8 0 1.7 1.2 2.1 2.7 1.7 7.9 5.9 19.3 7.1 19.3 1.4 0 1.8-1.6.5-2.2-.5-.2-2.5-5.2-4.4-11.3-3.5-10.7-5-13.1-6.1-10M36 34.8q.1 1 1.3 2.6c1.3 1.8 1.4 1.8 2 .2.4-1 .5-2.2.1-2.7-.7-1.1-3.4-1.2-3.4-.1m368 2.9a9 9 0 0 0 1.9 4.2l1.9 2.5-.2-3c-.2-1.7-.6-3.6-1-4.2-1.1-1.8-2.6-1.4-2.6.5m-299.8 2.1c-.7.5-1 1.6-.7 2.4.4 1-1.9 4.8-6.1 10.4-3.6 4.9-6.9 9.5-7.2 10.2-.5 1.5 1.4 3.2 3.8 3.2q1.8 0-.2-1.1-1.7-1-1.8-1.9c0-1.1 8.5-13.2 13.2-19 1.5-1.9 2.8-3.8 2.8-4.2 0-1-2.1-1-3.8 0m368.6.3q-1.6 1-1.1 2.5c.3.9-.5 2.7-1.9 4.2-4.4 4.9-5.3 6.7-1.5 3.2 6.3-5.8 9.4-12.6 4.5-9.9M61.5 43q-.4.9.4 1 1-.1 1.1-1 0-1-.4-1t-1.1 1m366.7 2q0 2.2.5 1.2c.2-.6.2-1.8 0-2.5q-.5-.8-.5 1.3M41.5 47c1 3.3 4.9 11 6.9 13.5.9 1.1 0-1.6-2.1-6-3.8-8.3-6.1-12-4.8-7.5M169 58.2a560 560 0 0 0 26.9 48.5c1.1 2.3 2.6 4.5 3.3 4.9s-.2-1.7-1.9-4.7A377 377 0 0 1 183 80.5c0-.4-2-4.1-4.5-8.2-2.8-4.6-4.4-8.2-4-9.3q.5-1.7-1.9-3.4-3.5-2.3-3.6-1.4m289.7.4q-.6.8-.7 2.3 0 1.6 1.1.4 1-1 .7-2.3-.4-1-1.1-.4m-114.2 5.5q-10.1 6.8-7.9 6.9a32 32 0 0 0 6.3-4q7.2-5.5 7.1-3.5c0 1.2-9.6 14.9-24.7 35.6-3.5 4.8-6.3 8.9-6.3 9.2 0 .4-2.5 3.9-5.5 7.9-9.8 13-10.5 14.1-9.9 14.9.6 1.1 7.2 2.9 10.4 2.9q2.9.1 1-1a10 10 0 0 0-4.3-1c-3.4 0-4.4-2.3-2.4-5.3L336 87.3c14.4-20.4 16.9-24.3 17-26.1 0-2-2.2-1.3-8.5 2.9m-166 .9c1 1.6 11.5 8.3 12.2 7.7.4-.5-6.3-5.4-10.6-7.7q-2.4-1.4-1.6 0m-78.7 2.7c.6.2 1.8.2 2.5 0q.8-.5-1.3-.5-2.2 0-1.2.5m6 1c.7.3 1.6.2 1.9-.1q.5-.5-1.3-.5-1.7 0-.6.6M22.5 70c-.8 1.3 1.3 4 3 4q1.1-.2 1.1-2.5c-.1-2.6-2.8-3.5-4.1-1.5m92.2 1.4c-.3.8-4.7 2.4-10.4 3.7-10.4 2.4-10.9 2.6-10.1 3.4.3.3 4.9-.6 10.3-2 13.2-3.3 13.5-3.4 13.5-5.1 0-1.8-2.6-1.8-3.3 0"/><path d="M318.5 81c-17.8 11.8-20.5 13.8-15 11.1 4.5-2.2 25.6-15.8 29.5-19 5.8-4.7-.5-1.3-14.5 7.9m71.5-9q.1.9 1.5 1c1.4.1 1.5-.5 1.5-1q-.1-1-1.5-1c-1.4 0-1.5.4-1.5 1m93.5 1.1c-1 1.5.1 2.3 2 1.5q1.4-.6 1-1.6c-.8-1.3-2.2-1.3-3 .1m-237.4 1.5q0 1.7.6.6.4-1.2-.1-1.9-.6-.5-.5 1.3m232.7 1.1q1.3.4 1.9-.1t-1.3-.5q-1.7 0-.6.6m-441 1c.6.2 1.8.2 2.5 0q.9-.5-1.3-.5t-1.2.5m7.2 1.6c0 .7-1.4 2.6-3.1 4.3s-4 4.5-5.2 6.4a60 60 0 0 1-4.9 7c-3.2 3.9-3.5 5-1.3 5q1.3-.2 1.5-2.1c0-1.1 2.2-4.4 4.8-7.2 6.1-6.6 10.5-13.4 9.2-14.2q-1-.4-1 .8m153.9.1c.8 1 2.8 2.4 4.5 3.2l3.1 1.5L204 81l-4.5-3.2q-2.6-1.7-.6.6m45.7 1.7c-.8 4.2 0 5 .9.9.4-1.7.5-3.4.2-3.6s-.7 1-1.1 2.7M87 80c0 1.1 6.8 12 7.5 12s-6-13-6.7-13q-.8 0-.8 1m320.5 10.5a31 31 0 0 0-4.3 7.1c.2.2 2.6-2.6 5.2-6.2 2.7-3.6 4.6-6.7 4.3-7s-2.6 2.5-5.2 6.1M213.9 88c1.3 1.1 2.7 2 3.2 2q2.5-.1-2.3-2.5l-3.3-1.6zm28.5 2.4c-.3 2.1-.4 3.9-.1 4.2s.9-1 1.3-3c.3-2.1.4-3.9.1-4.2s-.9 1-1.3 3m-187.9-.8c-2.2.8-4.4 1.9-5 2.5-.5.5.7.3 2.7-.5 5.4-2.3 7.3-2 8.5 1.1q1 2.6 1.2 1.2c.1-.9-.7-2.6-1.6-3.7-1.7-1.9-2.1-1.9-5.8-.6m19.5.9q-1 1.4-.8 3.1.3 1.6 1.5-1.5 2-5-.7-1.6M417.8 93c-2 1.1-4 2.4-4.3 3-1 1.6.1 1.2 4.2-1.6q9-6 .1-1.4M83 94q.2 1 2.3 2c1.2.5 3.2 1.7 4.5 2.6S92 100 92 99.7s-2-2-4.5-3.7-4.5-2.6-4.5-2m14.3 3.7c1.4 2.7 2.8 5.6 3.1 6.5.6 2 2.6 2.5 2.6.7 0-1.2-6.9-11.9-7.7-11.9-.2 0 .7 2.1 2 4.7m343.9.9q-2.2 8-.3 5.8c1.3-1.2 3.1-9.3 2.2-9.8-.4-.3-1.3 1.5-1.9 4m23.7-1.2c1.2 1.8 2.1 4.2 2.1 5.4 0 1.1.7 2.2 1.5 2.5q4.1 1.7-1.1-6.1c-3.9-5.7-5.8-7.2-2.5-1.8m-239.3-1.6c.5.5 3.7 2.8 7.2 5.1 6.2 4.1 8.2 4.5 8.2 1.4q.1-1.8-1.4-.4c-1.1.9-2.6.3-7.2-2.9a30 30 0 0 0-6.8-4q-.9 0 0 .8M62 99.5a8 8 0 0 0 1 3.5q1.1 2 1-.5a8 8 0 0 0-1-3.5q-1.1-2-1 .5m9.8 1.5c-.4 1.4-1 5.1-1.3 8.3s-1.4 6.4-2.1 7.2c-1.6 1.5-1.8 4.3-.5 6.4 1.2 1.9 3.1-1.7 3.1-6.2 0-1.8.5-5.9 1.1-9.1 1.1-6 .9-11.3-.3-6.6m22.7 1q.5.9 1.1 1 .3-.1.4-1-.1-1-1.1-1-.8 0-.4 1m304-.1q-.4.9.5 1.6c1.2.7 3-.2 3-1.6 0-1.2-2.7-1.2-3.5 0m40.1 8.6q-.7 3.3-2.1 3.5-2.3-.2-.9 3.4 1.6 3.7 3.2-1.7 2.7-8.8 1.3-8.7c-.5 0-1.2 1.6-1.5 3.5m-235.7 8.7q5.5 9.3 5.4 12 0 1.7 1.3 1.8c1.3.1 1.4-.5 1.4-1.1 0-1.3-7.9-14.7-9.1-15.5-.5-.3 0 1 1 2.8M67.1 135.3a15 15 0 0 0-1.8 4.8c-.6 3-.5 3.3 1 2.1 1.7-1.5 1.8-1.2 4.7 12.3 1.2 5.5 2.8 9.1 3.6 8.2.2-.2-.6-4.6-1.7-9.8s-2.5-11.3-2.9-13.7c-.8-5-1.3-5.7-2.9-3.9m250.7-.6q1.3.4 1.9-.1t-1.3-.5q-1.7 0-.6.6m115.9 0c-1.4 1.3-.6 4.1 1.3 4.6q1.8.7 2 2.5c0 2.3 5.8 19.2 7.2 20.9 1.9 2.4 2.9 1.3 1.4-1.5-.8-1.5-2.8-7-4.6-12.2-5.2-15.7-5.5-16.2-7.3-14.3m-110.9 1c.6.2 1.8.2 2.5 0q.9-.5-1.3-.5t-1.2.5M378 147q.1.9 1.1 1 .8-.1.4-1-.6-1-1.1-1-.4 0-.4 1m-344.3.7c-.6 1 3.3 9.3 4.4 9.3q.7-.2-.2-2.8a22 22 0 0 1-1.3-4.6c-.1-2-2.1-3.3-2.9-1.9m89.5 2q.5 1.7 2.5 2.1 2.4.6 1.6-1.7c-.7-2.6-4.6-2.9-4.1-.4m308.9-.1q0 1.7.6.6c.3-.7.2-1.6-.1-1.9q-.6-.5-.5 1.3m-43.5.8c.7 1.9 1.2 1.7-13.9 5.1-6.4 1.5-12 3.1-12.3 3.6-.7 1.2-.5 1.2 7.9-.9l15.2-3.7c10.7-2.5 12-3.6 5.8-5-2.8-.5-3.2-.4-2.7.9m13.9-.4c-.6 1 1.1 5 2.1 5q.5 0-.1-.9c-1.3-2.2 1.8-2 6.5.5a17 17 0 0 0 5.5 2.3c.2-.2-2.8-2.1-6.6-4.1s-7.1-3.3-7.4-2.8m-299.2.7c-.7.2-1.3 1.3-1.3 2.2s-1.5 3.8-3.3 6.2L93 167c-2.3 3.4-2.3 3.4-.2 1.6 1.2-1.1 3.8-4.2 5.7-7l5.4-7.6q4.4-5.4-.6-3.3m369.2 1.8c-3.4 1.2-9.3 4.4-8.4 4.5.4 0 2.3-.7 4.2-1.5l4.2-1.5c.8 0 .6 2.8-.2 3.2-.5.1-2.3 2.3-4.2 4.8l-3.4 4.5 3.2-3c4-3.7 9.4-11.2 8.4-11.8-.5-.2-2.1.2-3.8.8M148 156q.1.9 1.6 1 1.3-.1.9-1-.6-1-1.6-1-.8 0-.9 1m-88.8 2.9c-.6 1.7-.9 3.1-.6 3.1.7 0 2.5-5.2 2-5.7-.2-.2-.8 1-1.4 2.6m26.8.2q.1.8 1 .4 1-.6 1-1.1 0-.3-1-.4-.9.1-1 1.1m332-.7q.1.4 1.6 1 1.3.5.9-.4c-.6-1-2.5-1.4-2.5-.6m40.1.7q-2.1.9-1.8 1.5c.3.3 1.8-.1 3.4-1 3.1-1.7 2.1-2-1.6-.5m-100.6.4-9 2.1c-4.4.9-8.4 2.1-9 2.7q-1 1 1.5.3l10-2.2c4.1-.8 7.9-2 8.5-2.5q1.3-1.4-2-.4m-278.1 2q-1.6 1.3-.9 1.4c.6 0 1.9-.6 2.9-1.4q1.7-1.4 1-1.5c-.6 0-1.9.7-3 1.5m252.4 4.2c.6.2 1.8.2 2.5 0q.9-.5-1.3-.5t-1.2.5m-126.6 9.1a29 29 0 0 0-4 6.8c.6.6 9-11.6 8.6-12.5-.2-.4-2.2 2.1-4.6 5.7m209.8-4.9a7 7 0 0 0 2 2.6q.9.7.4 1.7t.5.4q1.2-.7-.9-3.7c-2.4-3.3-3.6-3.9-2-1m-104.2.8q1.3.4 1.9-.1t-1.3-.5q-1.7 0-.6.6m-222.1 2q-1.6 1.6.7 2.6 1.4.7.9-1.4c-.6-2.1-.7-2.2-1.6-1.2m213.7 1c.4 1 3.1 5.3 6 9.8a1760 1760 0 0 1 34.7 54.6c2.2 3.3 3.8 6.3 3.5 6.6s-3.4-1.5-6.8-4.1a527 527 0 0 0-27.2-19.8c-3.5-1.9-.7 1.1 4.2 4.4 2.6 1.7 5 3.6 5.3 4 .3.5 2.6 2.3 5.1 4.1a238 238 0 0 1 17.9 13.4c5.9 5.3 8 3.7 3.6-2.8l-7.1-11.4c-8-12.9-16.5-26.4-22.5-35.4l-6.6-10c-6-9.4-7.5-12.5-7.1-13.7q.5-1.4-1.5-1.4-2.2-.1-1.5 1.7M42.5 175c-4 1.8-4 1.8-1 1.9 3.4.1 5.9-1.2 5.4-2.7q-.5-1-4.4.8m365 1.7c-1.1.3-2.4.9-2.9 1.4-1 .9 5.7.1 8.9-1.2q2.6-.9-1-.7c-1.6 0-3.9.2-5 .5m-311.4.7c.6.7 11.9 4.5 11.9 4.1 0-.7-9.2-4.5-10.8-4.5q-1.3 0-1.1.4m371.4 1.6c3.3 1.1 6.7 1.9 7.5 1.9 1.9-.1-5.3-2.4-10-3.2q-2.6-.5 2.5 1.3m-449.9 2.8c-.8 1.3 3.4 3.7 8.4 4.7 1.9.3 4.4.9 5.5 1.2q2 .5 1-.5c-.5-.5-3.4-1.5-6.4-2.1s-5.9-1.9-6.6-2.8q-1.2-1.6-1.9-.5m95.3 1.1v1.3c0 .3-3.1 1.2-6.9 1.8s-7 1.6-7 2.2q.1 1 2.8.4c1.5-.4 5.8-1 9.5-1.5 7.2-.9 8.3-1.4 7.3-2.9-.7-1.1-5.5-2.2-5.7-1.3m275.1.6q.2 1.4 2 1.5c1.8.1 2-.7 2-1.5s-.9-1.5-2-1.5-2 .7-2 1.5m93.2-.3c.6 1.8 2.8 2.1 2.8.4q-.1-1.5-1.6-1.6-1.4 0-1.2 1.2m-290.7 13.1c-9.3 13.2-11.2 16.2-9.7 15.3 1.4-.9 17.5-24.6 17-25.1-.2-.1-3.4 4.3-7.3 9.8M472 187c-1.8 1.2-.2 1.2 2.5 0q2-.9.5-.9a7 7 0 0 0-3 .9m-381 2q-2 1.2 0 .9l4-.9 2.5-.8-2.5-.1a9 9 0 0 0-4 .9m369 1.4c-.9 1.2-.1 3.2 4.2 10.6 2.9 5 5.4 8.7 5.6 8.2s-1.9-4.4-4.5-8.6c-4-6.6-4.5-8-3.5-9.7 1.4-2.2 0-2.6-1.8-.5m-373 .2c0 .3 2.6 5.8 5.9 12.2a67 67 0 0 1 5.4 12.8c-.2.6.3 1.7 1.2 2.4 3 2.5 1.6-1.9-4.7-15-5.4-11.1-7.8-14.9-7.8-12.4m329 1.5c0 1.8.2 1.9 1.5.9 1.5-1.2 1.2-3-.6-3-.5 0-.9 1-.9 2.1m-140.8 4.1a21 21 0 0 0-1.7 6.3c-.4 2.7-1.5 9-2.5 14l-7.1 35.7A282 282 0 0 1 258 279c-.4 0-1.3-2.6-2-5.8s-1.7-6.1-2.2-6.6c-1.2-1.4-1 .6.6 7.7l2.1 8.9q.6 2.6 1.9 2.8c1.4 0 4.2-11.4 8.1-33s10.4-55.2 10.9-55.7 14.8 9.6 21.1 14.9a41 41 0 0 0 11.5 7.5c0-.3-4.2-3.8-9.2-7.9-20.6-16.2-23.6-18-25.6-15.6m-39.3 2.5 2 4.3q1.4 3.7.5-.5c-.9-4.6-1.3-5.5-2.4-5.5q-1 0-.1 1.7m-9.4 2.9c-5.5 3.7-6.7 5-2.6 2.9 6-3 9.6-5.5 8.1-5.5-.9 0-3.3 1.2-5.5 2.6m181.8-.4c-2.3 3-2.4 4.1-.2 2.1 1.2-1.2 2-2.5 1.7-2.8q-.6-.4-1.5.7m-332.5.5c-.6 1-2.1 7-4.8 18.8a37 37 0 0 1-3.7 10.7c-1.7 1.9-1 5.9.7 4.2 1.6-1.6 9.6-33.1 8.7-34q-.5-.4-.9.3m-22.1 3.7a52 52 0 0 0-7 4.6c-.7.7 1.7-.3 5.3-2.3s7.1-3.3 7.6-2.9 1.5 2.7 2.1 5.2c1 4.4 1.1 4.4 1.1 1 0-4.4-1-8.3-2.3-8.6-.6-.1-3.6 1.2-6.8 3m366.4-2q-1.6 1.7.9.9c2.5-.7 3.7-2.3 1.7-2.3-.8 0-2 .6-2.6 1.4m10.3.1 1.5 7.5c1.2 6.3 2.9 12.1 3 10.2.2-2.2-3-16.6-4-18.2q-1.1-1.8-.5.5m14.9 0c-.9 2.4.1 2.7 1.5.5q1.2-2 .2-2-1 .1-1.7 1.5m3.7-.2c0 .3 3.5 2.4 7.7 4.7s9.7 5.5 12.1 7.1c4.4 3 6.6 3.1 5.5.3q-.6-1.5-2.4-1.1t-2.4-.4c-.6-.8-15.5-9.2-18.7-10.4q-1.6-.6-1.8-.2m-36.5 3.7q-.5.9.4 1c.5 0 1.3-.5 1.6-1q.5-1-.4-1a2 2 0 0 0-1.6 1M216 208q-1.3.9-.9 1.5.7.4 1.9-1 2.1-2.6-1-.5m228.6 1.1c-1 3.1-3.8 22.1-3.3 22.6.3.2.9-1.7 1.2-4.4l2-11.8c1.2-6.4 1.2-9.9.1-6.4m-43.4 1.1q-1.1 1.2-1.2 2c0 1.2 2.8 1 3.6-.3 1-1.7-1-3.1-2.4-1.7M40 213.5c-2.5 1.3-4.1 2.4-3.7 2.5a31 31 0 0 0 8.7-4.5c0-.7 0-.7-5 2m169.4-.9q-2.8 2 .4.4c1.2-.6 2.2-1.3 2.2-1.5 0-.8-.5-.6-2.6 1.1m-16.7 9.9c-9.7 5.9-12 7.6-11.3 8.2.4.5 20.6-12.6 20.6-13.3 0-.6-.1-.6-9.3 5.1m49-2.4q.6 2 1.1 1c.2-.7-.1-1.8-.6-2.3q-1.2-1.2-.5 1.3m-70.9 4.6c-7 9.6-12 17.5-11.5 18 .3.3 1.5.2 2.7-.2q2.2-.6 1.5-2.5t5.6-10.5c3.3-4.7 5.9-8.9 5.6-9.1-.2-.3-2 1.7-3.9 4.3m264.8 2.3c.7 4.8 1 5.7 2 4.8.3-.4-.2-2.6-1-5l-1.6-4.3zm-192.6-.8 2.1 6.8c1.8 6 1.8 5.5.2-3.8-.3-1.7-1-3.2-1.4-3.2q-.8 0-.9.2m-70.5 8.8c-1.6 1.1-2.6 2-2.2 2 1.1 0 6.7-2.9 6.7-3.5q0-1.4-4.5 1.5m264.7-.2c.4 1.9 2.9 2.3 3.5.6q.1-1-1.7-1.7-2.3-.7-1.8 1.1m-6.4 4.1q3.5 3.2 2.7 4.9-2.2 5.3-.7 5.2c2.8 0 4.4-8.8 1.9-10.8-.6-.6-2.6-1.4-4.2-1.7l-3-.7zm26.7-.6q-1.6 1.4-1.1 2.5.4 1-1.5 2.3c-1.9 1-2.1.9-1.6-.5.7-1.7-.8-2.2-1.8-.6-.3.5-1.9 1-3.6 1q-2.9 0-2.9 1.5.1 1.4 1.5 1.5c1.4.1 1.5.4 1.5 1q0 .9-1 1c-1.2 0-4.4 6-3.6 6.7q.6.4 1.8-.4c.7-.6 2.5-1.3 4.1-1.7s2.7-1.1 2.7-1.6 2-3 4.5-5.4c5.6-5.6 6.4-11.2 1-7.3m-6.9 10.4c-1 1-1.9-.5-1-1.8q.8-1.6 1.2 0 .3 1.2-.2 1.8m-29.1-8.5a63 63 0 0 0-13.6 12c-1.8 3.3-.3 3.1 5.6-.7 3.5-2.2 6.7-3.5 8.3-3.4q7 .4 7.2-1.1-.1-1-1.4-1c-.7 0-2.5-.6-3.9-1.3-2.4-1.3-2.5-1.5-1-3 2.1-2.1 1.4-2.9-1.2-1.5"/><path d="M425.1 241.4q-1.3 1.4-.1 2.1c1.3.8 4.2-1.4 3.4-2.6q-1.3-2-3.3.5m-298.6 2.8a170 170 0 0 0-5 20.6c.2.2 1.6-3.7 3.1-8.7s3.1-9.1 3.5-9.1c.5 0 1.6 2.6 2.4 5.7a69 69 0 0 0 5.6 16.9q2 1.1-.5-5.3l-4.1-12.6c-2.5-8.2-4-10.3-5-7.5m120.5.2c0 1.4 2.1 5.8 2.6 5.4.8-.8-.7-5.8-1.7-5.8q-.8 0-.9.4m191.7 2.3c-.3.5-.8 2.3-1.2 4.1-.5 2.6-1.1 3.2-2.3 2.7l-2.7-.9q-1-.2-2.2-.9c-1.2-.7-7.3 6.4-7.3 8.5 0 1.6 2.7 6.3 4.8 8.1 2.8 2.5 3.9.4 1.2-2.3-1.7-1.7-1.9-2.4-.9-3.6q1.2-1.4 0-1.4c-1.3 0-1.5-4.6-.2-5.4.4-.3 1.7.1 2.7.9a10 10 0 0 0 5.2 1.5c2.7 0 3.2-.3 3.2-2.4 0-1.4.5-2.8 1-3.1 1.3-.8 1.3-6.5.1-6.5q-1 0-1.4.7m-61 .9c-.4.4-.7 1.8-.7 3q0 2.4 1.4 1.8c1.1-.4 1.8 1.3 3.1 6.9 1.9 8.7 4.4 16.1 4.4 13.2.1-3.6-5.4-24.8-6.5-25.2a2 2 0 0 0-1.7.3m92 1.3q-.6 1.9-5.6 3.8c-6 2.1-6.8 3.8-1.3 3q3.7-.6 6.5-3.9 4.2-4.9 1.8-4.8-.9.2-1.4 1.9m-219 8.1c.6 4.9 2.3 9.1 2.2 5.5 0-1.1-.7-3.8-1.4-6l-1.4-4zM93 256.4c0 1.9 1.4 2.8 3.4 2 1.3-.5 1.4-.9.5-2-1.5-1.8-3.9-1.8-3.9 0"/><path d="M451 256.7c-4.1.4-9 2.2-9 3.3 0 .4 1.5 1.5 3.3 2.3 5 2.4 9.7 9.6 6.5 9.8-6.6.4-8.3.3-8-.9q.4-1.4-1.7-.2c-1.1.5-3.3 1.1-4.8 1.2q-5.4.2-5.3 4.3c0 1.2-.9 3-2 4s-2 2.4-2 3.2q-.2 1.2-2.2 1.5c-6.6.5-8.7.7-12.5 1.3-4.2.7-4.2.8-2.6 3.2 1.5 2.3 1.5 2.6-1 4.9-1.5 1.4-2.7 3.5-2.7 4.8 0 2 .4 2.3 2.8 1.9 5.1-.8 5.9-1.4 3.4-2.4-2.9-1.1-2.4-3 1.1-4.7 2.2-1.1 2.6-1.8 2.1-3.8s-.2-2.4 1.4-2.4c1.1 0 2.5.7 3.2 1.5 1 1.3 1 1.9-.4 3.3-1.8 2.1-1 3.8 1 2.1 1.8-1.4 4.4-.4 4.4 1.6 0 1.3-.6 1.5-2.9 1-2.5-.5-2.9-.3-3.6 2.2a10 10 0 0 1-3.3 4.9c-2.3 1.9-2.5 2.4-1.3 3.8.7.9 2.4 1.6 3.7 1.6 4 0 3.6 1.8-.6 2.5-2.2.4-5 1.5-6.4 2.6l-2.4 1.9-3.2-3.8q-5.4-6.2 1.3 3.6c2.5 3.8 2.8 4.8 1.8 6.8-1.8 4-3.7 3.9-9.8-.8-7-5.4-11.3-8.2-11.3-7.5 0 .3 4 3.5 8.9 7.1s9.2 7.5 9.6 8.6c.6 2 1.5 2.4 4.6 2.1.9-.1 2.8.3 4.2.8 2.1.8 2.7 1.7 2.7 4 0 4.2 2.3 5.8 5.5 3.7 1.4-.9 2.5-2.4 2.5-3.3q0-1.9-1.2-.5-3.3 3-2.4-2c.9-4.5 3.4-7 5.7-5.8 1 .6 2 1 2.2 1s.4-3 .3-6.8c-.1-6.3 0-6.7 2.1-6.4 1.2.2 2.4-.2 2.8-.8 1-1.6 2.5-.2 2.5 2.3 0 1.2 2.2 4.5 5 7.5 4.9 5.3 5 5.3 10.4 5.1 3.3-.1 6.1.3 7 1 .9.8 2.3 1 3.3.6s2.5-.9 3.3-.9c2.5-.2 2.5-5.5-.1-8.2-1.2-1.3-1.8-2.4-1.2-2.4s2.2 1.8 3.7 4c1.4 2.2 3 4 3.4 4 2.8-.1 5.7-6 4.7-9.9s1.6-11.2 4.4-12.2c1.9-.8 2.1-1.2 1.1-2.4-1.5-1.8-1.6-1.7 2.8-3.2 2.6-.9 3.2-.9 3.2.2 0 .8-.9 2.1-2.1 2.9q-1.9 1.4-1.4 2.5.4 1-.9 1.1c-.9 0-2.2 1-3 2.2-1.8 2.9-2.4 12.4-.8 14 1.9 1.9 6.3-1.9 11.9-10.1q.4-.3 1.6.8c2 1.6 1.1 15.1-1.1 16.8-1.3 1.1-1.8.9-2.8-1.6-.7-1.6-1-3.9-.7-5 .5-2.1-1.1-2.9-2.2-1.1-.4.6-2.5 2-4.8 3.2a54 54 0 0 0-10.2 8l-6 6 8.5-.4q8.4-.5 12.5-2.3l5-2.3c.6-.3-.3.9-1.9 2.7-1.7 1.7-4 3.1-5.2 3.1s-4.1.7-6.4 1.5a29 29 0 0 1-7.7 1.5h-3.5l.4 10.2c.4 12.4 2.2 17.1 7.6 19.3 1.9.9 4.7 1.4 6.1 1.3 3.7-.3 5.1.9 5.1 4.3 0 3 .6 3.5 5 4.3 1.4.2 3.7.9 5.3 1.5 2.4.9 2.7.8 2.7-.9q0-2-2.7-2.6-5.5-1.5-6.7-5.9c-.5-1.8-1.5-2.6-4.4-3.1a21 21 0 0 1-11.4-6.2c-2.4-2.2-2.8-3.4-2.8-7.8 0-9.4.7-11.1 4.9-11.6 2-.3 3.8-.1 3.9.4.8 1.9 4.3 3 5.8 1.7 1.1-.9 1.8-.8 3.2.5 2.4 2.1 3.8 2 6.2-.4 3.2-3.2 2.4-11.6-1-9.5q-.8.6 0 2.9c.9 2.6-.2 5.2-1.9 4.2-2.4-1.5-1.1-5.9 2.9-9.6 3.1-2.9 4-4.4 4-7 0-2-.7-3.8-1.7-4.6-1.7-1.2-1.7-1.4 0-4.4 1.2-2.3 1.7-5.4 1.7-11 0-6.9-.2-7.8-2-8.3q-1.8-.6-2-2 .2-1.5 2-2.2c2.2-.7 2.8-3.5.7-3.5a8 8 0 0 0-3.6 1.7c-1.9 1.3-2.8 1.4-4.2.5-1-.7-2.6-1.2-3.4-1.2-1.3 0-1.4-.4-.5-2 1.3-2.4 3.8-2.6 4.6-.5.9 2.1 3.2 1.9 3.9-.4a4 4 0 0 1 2.6-2.6c1.5-.5 1.9-1.6 1.9-5v-4.3l-3.7 1c-2.1.6-4.7 1.5-5.8 2q-2.5 1.5.6-1.8c5-5.7 5.5-10.4 1-10.4-.8 0-2.2-.7-3.2-1.6-1.5-1.4-2-1.4-4.7 0a7 7 0 0 0-3.6 8.1c.5 1.9.1 2.1-3.4 2-2.2 0-4.7-.7-5.7-1.5-2.3-1.9-6.7-.2-7.9 3.3-.9 2.4-.6 3.2 2.7 6.5 2.1 2.2 3.5 4.5 3.2 5.3q-1.2 2.6 4 5c4.4 2.1 4.5 5.3.1 7.4-3.9 1.9-7 5.9-6.2 8.1.3.7 1.7 1.6 3.1 2q2.3.6 2.5 1.5c0 .9-3.4.4-7.7-1.2-2.8-1-2.9-2.2-.2-5.8 1.7-2.3 1.9-3.6 1.4-7.5-.7-4.6-2.1-5.9-3.1-3.1-1.1 2.7-2.4 1.6-2.4-2 0-1.9-.4-3.5-.9-3.5-1.4 0-2.3 3.7-1.6 6q.8 2.1-1.2 2-1.9 0-3.1-1.2c-1.6-1.6-1.6-8 0-9.6q1.4-1.3-.5-1.2-1.7.1-3.3 4-3 7.4-5 .5c-1-3.3-1-3.5.9-2.9 1.7.5 1.9.3 1.4-1.5-.3-1.2.3-3.8 1.3-5.8q2.7-5.6-1-7.8c-2.9-1.8-.9-2.5 11.4-4 4.4-.6 5.6-1.2 5.6-2.7q-.1-1-3.5-.5c-3.3.5-3.6.3-5.5-3.3a18 18 0 0 0-3-4.5c-1.6-1-1.2-2.4 1.6-5q2.4-2.3 1.3-2.3zm-8.2 21.2c1.8 2.2 3.2 4.9 3.2 6 0 2.7-4 6.3-6 5.5-.8-.4-3-.9-4.7-1.2-4-.5-4-1-.8-5.8 1.4-2 2.5-4.7 2.5-6 0-3.5 2.3-2.9 5.8 1.5m48.8-2.4c.7 1.6-2.1 6.5-3.6 6.5-1.6 0-4.1-4.6-3.4-6.4.8-2.1 6.2-2.2 7-.1m-18.3 10.9c2 2.5 3.7 4.7 3.7 5s-1.1.6-2.4.6c-3.8 0-9.1-7.1-6.9-9.3 1.2-1.2 1.8-.8 5.6 3.7m8.9 1.8c-1.6 1.6-3.7-.4-2.8-2.8.6-1.6.8-1.6 2.3-.1 1.3 1.3 1.5 1.9.5 2.9m16.3-.3c-1.6 1.5-6.5 2.5-6.5 1.2 0-1.6 5.3-4.1 6.5-3q.9.9 0 1.8m-66.4 4.1 5 5-2.6 1.2q-2.5 1-2.5 3.6c0 2.2.3 2.4 3 1.8s3-.4 3 2.5-.1 3-2.2 1.5a9 9 0 0 0-4.5-1.6c-2.4 0-3.1-1.4-1.3-2.5.6-.3 1-2.6 1-5.1 0-4.1-.3-4.6-2.9-5.5-3-1.1-4.6-3.3-3.5-5s2.5-.9 7.5 4.1m50.9 3.5q-2.4 4.8-1.3-1.3.6-3.5 1.6-2.3 1.1 1-.3 3.6m-7 .5q0 .9-1 1a1 1 0 0 1-1-1q.1-1 1-1t1 1m-33.6 2.3c1.5 2.4-.3 3.5-2 1.3a7 7 0 0 1-1.4-2.9c0-1.3 2.2-.3 3.4 1.6m-13.9 1.6c.3.5.1 1.3-.5 1.6-1.5.9-4.3-.3-3.5-1.5.8-1.3 3.2-1.3 4-.1m18.5 4.6q1.4 1.6.2 2.7c-1.3 1.3-4.2-.6-4.2-2.8 0-1.9 2.4-1.8 4 .1m-24.5 1.5q-.6.9-1.6 1-.8-.1-.9-1 .1-1 1.6-1 1.3 0 .9 1m41.4 1.4c1.8 2.1-4.2 6.8-8.2 6.4-2.4-.2-3-.8-3.3-3.1-.2-2.5 0-2.7 3.6-2.7 2.1 0 4.2-.5 4.5-1q1.3-2 3.4.4m31.1.1q3 1.6 3 3.7c0 1.9-.1 2-1.8.5-.9-.8-2.9-2-4.5-2.6-2.9-1.1-3.7-3.1-1.2-3.1.9 0 2.9.7 4.5 1.5m-61.7 1.4c2.6.4-1.3 5-4.4 5.1-2.2 0-4.3-2.6-3.5-4.5.5-1.3 2.1-1.5 7.9-.6m42 2.1c-.6 2.2-2.1 3.5-2.9 2.7s1.5-4.7 2.5-4.7q.8.2.4 2m-30.9.3c1.7 1.3 1.7 1.4-.8 3-2.4 1.6-2.6 1.6-3.5-.1q-1-2 .1-3c1.5-1.5 2-1.5 4.2.1M489 313c0 2.1-3.1 7.1-4 6.5-1.1-.7-1.3-5.8-.3-6.8 1-1.1 4.3-.8 4.3.3m-39.5 2q.4.9-.9 1-1.5-.1-1.6-1 0-1 .9-1t1.6 1m-27 1.3c2.4 1.8 1.1 3.7-2.4 3.7-3.1 0-5.7-2.3-4.6-4 .9-1.4 4.8-1.3 7 .3m37 3.5c-.5 2.3 0 3.3 2.5 5.5 1.6 1.5 3 3.1 3 3.6s-3 .9-6.6.9c-7 .1-7.8-.3-13.7-7.7q-3.5-4.2 1.7-2.1 6 2.3 9.7-1 4.8-4.1 3.4.8m-44.5 4.1c0 1-.9 2.9-2 4.2l-1.9 2.4-.1-3.1c0-2.9 1.5-5.4 3.2-5.4q.7.2.8 1.9m7.8 1.8q.2 1.3-1.7 1.3c-1.9 0-2.1-.6-2.1-1.6 0-1.8 3.1-1.5 3.8.3m-2.3 5.3c0 2.2-2.9 1.8-3.3-.3q-.5-2 1.5-1.5 1.6.4 1.8 1.8m61.9 1.5c-.3 1.4-.1 3.2.6 4q2.4 3.3-3.6 3.5c-4.3 0-4.4-1.8-.3-6.5 3.7-4.2 4.1-4.3 3.3-1m5.1.5q.5.9-.4 1c-.5 0-1.3-.5-1.6-1q-.5-1 .4-1a2 2 0 0 1 1.6 1m-.7 14.1q-.4 1-1.3 1-1.2 0-1.3-1t1.3-1.1c1.5-.1 1.5.5 1.3 1.1m-334.3-84a57 57 0 0 0-10.7 5.8c.7.1 2-.4 3-.9a54 54 0 0 1 15.6-6.1c.3.4-.5 2.3-1.8 4.2-5.8 8.6-6 9-4.3 8.3a4 4 0 0 0 2.2-2.4c.6-1.8 4.7-7.7 8-11.4q5.3-5.9-12 2.5m192-3.1q-.4 1 1.2 1.6c1 .3 3.2 1.2 4.8 2 2.9 1.4 2.9 1.4-.5-1.6-3.8-3.2-4.6-3.5-5.5-2m66.2 1.6q-.5.6 0 2c.5 1.4-4.1 9.2-9.8 16.5q-4.7 6-1.6 5.9 1.3-.1 1.4-1.3c0-.6 3-5.8 6.7-11.4a36 36 0 0 0 6.1-11.2q-1.2-1.8-2.8-.5m-37.7 5.5c-.6 2.4-1.5 5.4-2 6.7q-2 4.6.1 2.5a36 36 0 0 0 3.4-13.1c-.2-.2-.9 1.6-1.5 3.9m-11.8 3.5c2.3 2.6 8.8 6.4 7 4.1-.8-.9-3-2.6-5-3.8-3.2-1.8-3.5-1.9-2-.3m-211.8 9.3c-1.4 2.2-2.3 4.5-1.9 5 1 1.7 2.5 1.3 1.9-.4-.3-.8.3-3.1 1.5-5 2.8-4.8 1.8-4.4-1.5.4m-44.9 2.1q-.4.9.4 1 1-.1 1.1-1 0-1-.4-1-.6 0-1.1 1m-8 2.5q-3.7 1.7-.5.9c2.8-.7 6-2.3 4.5-2.3-.5 0-2.3.6-4 1.4m252 4.7-14.7 3.9c-2.1.5-3.8 1.4-3.8 2 0 1.6 3.1 2.3 4 .8.5-.7 6.4-2.8 13.1-4.5a83 83 0 0 0 13.2-4.3c1.4-1.4 1.1-1.4-11.8 2.1M155 288a7 7 0 0 0 3 .9q1.5 0-.5-.9c-2.7-1.2-4.3-1.2-2.5 0m-78.9 2.3c-1.2 1.5-.5 2.7 1.6 2.7q1.2-.2 1.3-2c0-2.3-1.3-2.6-2.9-.7m88.9.2c2.4.8 4.6 1.2 4.9 1 .8-.8-.3-1.3-4.9-1.9l-4.5-.6zm7.7 1.1c-1.4 1.4-.7 3.5 1.1 3.2q1.5-.5 1.7-1.7c0-1.6-1.8-2.5-2.8-1.5m-91.9 2.1q1.3.4 1.9-.1t-1.3-.5q-1.7 0-.6.6"/><path d="M463.5 296q.6.9 1.1 1 .4-.1.4-1-.1-1-1.1-1-.8 0-.4 1M157 298c-3 1-4.6 1.8-3.5 1.8 1.1.1 4.5-.8 7.5-1.8s4.6-1.9 3.5-1.8a36 36 0 0 0-7.5 1.8m-57.2-.3c.7.3 1.6.2 1.9-.1q.5-.6-1.3-.5-1.7 0-.6.6m4.8 2.9c-1 1.4-1.6 2.8-1.3 3 .2.3 1.2-.7 2.1-2.2 1-1.4 1.6-2.8 1.3-3-.2-.3-1.2.7-2.1 2.2m43 .2a36 36 0 0 0 3.4 10.3c3.9 8.9 4.2 11.6 1.4 10.5-2.1-.8-1.7.7.6 2.2 1.7 1.1 2.4.7 6.2-3.4a39 39 0 0 1 9.3-7.1c2.7-1.4 6-3.4 7.3-4.4a26 26 0 0 1 8-3.1c5.5-1.2 5.6-1.3 2.1-1.6-4.9-.4-14 3.4-21.9 9.2a44 44 0 0 1-7.2 4.6c-1 0-3.4-4.8-6.3-12.3-1.2-3.3-2.5-5.5-2.9-4.9m251.4 3.4c0 .9.7 2.2 1.7 2.9q2.2 2.1.3-1.1c-1.7-3.4-2-3.6-2-1.8M218 310q.1.9.8 1c.7.1 3.9 2 7.7 4.5 5.9 3.9 7.3 4.4 10.4 3.9 5.4-1 7.5-2.6 2.4-2q-7 1-11.8-3.4c-2.6-2.5-9.5-5.4-9.5-4m64 0a53 53 0 0 0-15.9 6.2 9 9 0 0 1-4 1.8 7 7 0 0 0-3.5 1.5q-2 1.5-8.6 1.5c-6.6 0-7.3.5-8.6 1.5-1.8 1.3-1.6 1.4 2.7 1.5 2.5 0 4.8.3 5.2.6.7.8-3.8 3.2-10.8 5.8a34 34 0 0 0-8.7 5.2c-4.6 4.1-10.8 5.9-15 4.5s-8.1-1.4-7.6.1c.6 1.8 12 4.2 16.2 3.4 2.1-.4 5.2-2.3 7.8-4.6 2.3-2.2 4.7-4 5.3-4s3-.9 5.4-2.1c2.3-1.1 5-1.9 6-1.7s3.9-1.6 6.7-4a65 65 0 0 1 25-12.8c7-1.6 12.2-1.5 25.4.5l10.5 1.5c4 .6 6.7 1.2 16 3.9l20 5.6 20 5.6 14.4 3.7c9.7 2.2 11.1 3.1 21.6 13.1 6.3 6 22 18.6 22.5 18.1s-.7-1.7-21.2-20.3c-14.1-12.8-14.5-13-20.8-14.7-4.9-1.3-4.7-.7-3.5-9.9 1-6.7-.4-5.1-1.9 2.2l-1.1 5.8-4-.3c-5.1-.4-6.1-1.8-6.4-8.9-.1-3.2-.6-6.2-1.1-6.7q-.8-.6-.3 4.7c.9 8.7.7 8.9-7.9 6.4s-8.4-2.3-6.8-4.2c1.1-1.3.9-1.3-2.3 0-6 2.5-8.3.4-5-4.5 1.5-2.3 1.3-2.2-1.5.4l-3.1 2.9-14.3-3.6c-19.8-4.9-39.9-7.4-46.8-5.7m-185.4 1.6c-1 2.5.1 2.9 1.4.5q1-2 .1-2.1-.9.1-1.5 1.6m34.4 3.9c-1.2 4.4-.7 7.7.6 3.9l2-5.2c1.1-2.6 1.1-3.2 0-3.2-.7 0-1.9 2-2.6 4.5m40.8-.4c-3.8 2.2-6.8 4.4-6.8 5 0 1.4 1.1 1.1 4.4-1.5 1.7-1.3 5.4-3.5 8.1-4.9q4.9-2.6 3-2.6c-1.1-.1-5 1.7-8.7 4m84.4-2.4q-1 .6-.6 1.4c.7 1.2 4.4 1.2 4.4 0s-2.1-1.9-3.8-1.4m-39.3 3.4c1.9 1.1 4.7 3.4 6.3 5q4.8 4.7 4.8 1.6c0-2-9.4-8.7-12.1-8.7-2.2 0-2.1.2 1 2.1M248 315q-2 1.1.5.9c1.1 0 2.9-.4 4-.9q2.8-1-.5-.9a9 9 0 0 0-4 .9m-127.9 2.5c-.1 1.1.8 5.3 1.9 9.3 1.1 3.9 2 8.1 2 9.2 0 2.6 2.4 1.6 3.9-1.6a12 12 0 0 0 1-4.7c-.1-2-.2-1.9-1.2.6-1.7 4.2-3 2.8-4.8-5.1-2-8.5-2.7-10.4-2.8-7.7M91.5 319c-2 2.2-1.5 3.6.9 2.7.8-.3 1.4-1.5 1.3-2.6-.2-2.5 0-2.5-2.2-.1m93.9.4c-1.8.8-3.5 2-3.9 2.7q-1 1.3 1.1.4c1-.4 3.6-1 5.7-1.3 3.9-.4 4.8-1.6 2.1-2.6l-1.7-.6zm21.1 3.6c.3.5 1.3 1 2.1 1s1.2-.5.9-1-1.3-1-2.1-1-1.2.4-.9 1m-3.4 5.1c4 5.6 11.5 8.7 12.7 5.1q.2-1.1-2.1-1.2c-1.4 0-4.4-1.6-6.7-3.5-5.2-4.3-6.8-4.5-3.9-.4m-52.4-.4a304 304 0 0 1-4.8 18.1q-3.5 11.4-.3 17.3c2.2 4.3 2.8 3 .8-1.7a19 19 0 0 1 1.1-15.2c.9-1.7 2-5.9 2.5-9.1s1.3-6.8 1.9-8c1.1-1.9-.1-3.2-1.2-1.4m287.8 1.3c-.7 1.2 2.1 5.6 4 6.4 2.5.9 2.7-1.3.5-4.4q-3.1-4.6-4.5-2m-373.2 4.2A30 30 0 0 0 62 344q.2 1 1.5-2.3c1.6-4.6 2.2-5.4 3.4-4.1.8.8 4.5 12.4 7.1 22.1.6 2.6 1.7 4.3 2.5 4.3q2.5-.2.6-2.6c-.9-.9-8.1-23.1-8.1-25q-.1-1.1-1.3-2.8c-1.1-1.5-1.5-1.5-2.4-.4m110.8 3c-.7 1.8-2.3 5.4-3.6 8q-4.3 8.5 2.4 1.4c2.5-2.6 3.5-4.6 3.8-8 .6-5.4-.9-6.2-2.6-1.4m-5.5-.2c-.5 1.4-1.9 4.1-3.2 6a19 19 0 0 0-2.4 4.2c0 1.6 3.1.8 3.7-1 .3-.9 1.2-2.4 2-3.4s1.3-3.1 1.1-5c-.3-3.2-.4-3.2-1.2-.8m20.4-1.2q.2 1 2.8 2.2l2.7 1.4-3.5.5c-3 .5-3.6 1.1-4.6 4.7-.7 2.3-1.7 5.1-2.3 6.3-.9 1.7-.9 2.1.2 2.1 2.2 0 4.7-3.4 4.7-6.3 0-3.1.6-3.3 3.2-1.1 1.4 1.4 2 1.4 3.3.4.8-.7 1.5-2 1.6-2.9q.2-1.2 1.5 1.8c2.1 4.7 3.8 2.8 2.7-2.9-.8-4-1.1-4.4-5.3-5.6-5.2-1.6-7-1.7-7-.6m255 2c0 .6 1.8 1.3 3.9 1.7 2.3.4 4.2 1.4 4.6 2.3s.6 7.1.6 13.6c-.2 10.2-.5 12.3-2.2 14.8-1.1 1.5-2.6 2.8-3.3 2.8-1.6 0-4.1 2.8-3.4 3.6.3.3 3.4-1 6.9-2.9l6.4-3.3.1-14.5c.2-15.1-.5-17.7-4.4-17.8l-5.4-.7q-3.6-.5-3.8.4m-265 8.1q-1 2.2 0 2.1c1.2 0 2.5-2.8 1.7-3.6q-.6-.3-1.7 1.5"/><path d="M151.1 349.6c-2.9 3.6-3.7 8.8-1.8 11.4 1.4 2.1 1.5 1.9 1.4-2.8-.2-3.8.3-5.8 2.1-8.1 2.7-3.7 1.2-4.2-1.7-.5m-120.5-.7q-.4 1 .8 2 1.4 1.4 2-.5l.6-2c0-.8-2.9-.4-3.4.5M102 354c-1.2 1.7-2 3.3-1.7 3.6s1.5-.9 2.7-2.6 2-3.3 1.7-3.6-1.5.9-2.7 2.6m218.9-1.5a18 18 0 0 0 4.6 1.5c1.8 0 8.2 7.2 18 20.4 4.7 6.3 11 13.7 14.1 16.3s9.3 9.5 14.1 15.3 11.1 13 14 16.1c12.8 13.3 16.9 20.9 19.9 36.6a66 66 0 0 1-8 43.3 46 46 0 0 0-5.1 12c-.4 2.5-3.8 11.2-7.5 19.5-3.8 8.2-7.8 18.8-9 23.4a75 75 0 0 1-4.5 12.9c-1.3 2.5-2.2 4.9-1.9 5.4 1.5 2.3 3.8-.5 8.3-10 2.9-6.2 6-11.1 7.7-12.5 1.6-1.2 4-3.4 5.4-4.8 3.1-3.2 7.3-4.4 10-2.7 1.6 1 2.5 1 4.7-.3 1.6-.9 4.5-1.7 6.7-1.8 4.7-.2 9.9-2.3 14.4-5.8 4.7-3.5 5.2-2.4 5.2 11.8 0 10.2-.2 11.8-1.7 12.5-1 .4-2.4.6-3 .5q-1.2-.1-1.3 1-.2 1-1.5.5-1.5-.3-2.1.8-.6 1.3-2.6.8c-1.7-.4-1.9-.2-1.3 1.8.6 1.9.4 2.1-1.4 1.5-1.7-.5-2.1-.2-2.2 1.7q0 2-.6 1c-.8-1.9-2.3-1.4-2.3.9 0 1.6-.4 1.9-2 1.4s-2-.2-2 1.4q0 2-1.3 1.5c-.7-.2-2.2.4-3.2 1.6-1 1.1-2.4 2-3.2 2q-1.2.1-1.3 1.5c-.1 1.4-.7 1.5-1.5 1.5s-1.5.7-1.5 1.5-.6 1.5-1.4 1.5-1.6.9-1.9 2.1q-.6 1.9-1.5 1.5-1.1-.4-2.5 1.7c-.8 1.2-3.7 3.3-6.3 4.6a60 60 0 0 0-6.5 3.8q-1.5 1.3-2.5 1.2c-1-.2-4.2.8-6.4 2.2-18.4 11.2-18.1 11-22.4 10.4-13-1.9-12.9-1.8-13.1-23.4-.2-11.3-.7-18.9-1.9-23.8a93 93 0 0 1-1.6-39.2c3.4-21.1 6.5-33 10-38.1.9-1.4 2.7-4.5 3.9-7a82 82 0 0 1 14-18.2c2.4-2.6 4.2-5 3.9-5.4-1.6-1.5-5.3 1.5-12.3 9.9l-9.5 11.4c-1 1.3-2.5 2.3-3.4 2.3-2.3 0-8.5-5.9-9.2-8.7-.8-3-6.3-8.9-8-8.5q-1 0-1.8-1.3-.7-1.4-1.6-1-1.1.5-2.5-.5-1.4-1.1-1.5-.4c.1.5 2.5 2.8 5.4 5.2 3 2.3 6.1 5.8 7 7.6s3.9 5.4 6.8 7.9l5.3 4.6-2.3 4.3c-1.2 2.4-2.8 6.1-3.6 8.2l-1.3 4-14.4.2c-11.5.1-16.8.7-26.4 2.9a117 117 0 0 1-38.8 3.4c-12.7-.9-21.5-3.7-24.4-7.9-1.2-1.8-5.3-2.9-5.3-1.5 0 1.2 5 8.3 9.3 13.4 6.6 7.7 12 23 13.2 37.1a45 45 0 0 0 1.6 9.3q1 1.8-.2 7.5a158 158 0 0 0 1.1 45.7c2.2 11.1 2.1 13.9-.5 12.9q-1.6-.8-1.5 2.1 0 2.7-2 3.2-3.4.8-.9 3c1.9 1.9 6.7-1.2 7.6-4.8.8-3 .8-3 2.7 2.5 2.3 6.6 1.3 8.9-3.2 7.7-3.7-1-23.1-.4-24.5.7a18 18 0 0 1-5.4 1.7c-2.4.4-4.5 1.1-4.8 1.5-.6 1-31.2.6-32.2-.4q-.3-.6 1.3-1.2l7.5-2.9a20 20 0 0 1 8.7-1.7c3.8.5 6.7-1.2 15.3-8.8 10.8-9.6 10.9-9.7 10.9-13.2 0-5.1-6.5-31.4-11.4-45.8-3.6-10.8-7-21.9-8.1-27-2.7-12-11.9-38.3-15.3-44q-4.8-7.7.8-16.3c3.6-5.7 3.6-5.9.8-5.5-1.4.2-3.6 2.2-5.6 5.3-3 4.4-3.3 5.5-2.7 9.4.4 2.4.9 5 1.2 5.7q.4 1.3-.9 1.4c-.7 0-5.6 4.3-10.8 9.5s-10 9.5-10.7 9.5q-1.2.1-1.3 1.4c0 .8-.9 1.8-2 2.1s-2 1.3-2 2.1-.9 1.4-2 1.4q-2 0-2 2c0 1.1-.4 2.1-1 2.1l-1.8.3c-.4 0-1.8 1.1-3.2 2.3-1.3 1.3-2.7 2.3-3.2 2.3s-.8 1.1-.8 2.4c0 1.4-.4 2.7-.9 3s-1.2 3.2-1.6 6.3c-.6 5-1.3 6.3-4.6 9.5q-6.2 5.8-2.4 5.8c2.5 0 1.7 1.6-1 1.8-2.2.2-2.5-.2-2.5-3q0-3.3-1-2.2c-1.8 1.8 0 7.5 2.8 8.5 3.8 1.4 1.9 2.3-2.2.9-1.9-.6-3.7-1.9-3.9-2.8q-.5-1.9-.6.5c-.1 1.8-.7 2.3-2.6 2.3-3.2 0-3.1-.7 0-3.6 2.5-2.3 2.6-2.5 1-5.8a10 10 0 0 1-1-6.5c.6-2.6.3-3.2-1.9-4.2s-2.9-.9-4.6.6c-1.1 1-2 2.6-2 3.6 0 4.7-3.3 6.8-4.5 2.9q-1.8-5.4 5-12 6.4-6.2 3.7-6c-1.1 0-9.3 7.9-11.5 10.9-2 3-3.1 2.2-2.3-1.7q.8-2.8 6.1-7.3c3-2.4 5.4-5 5.5-5.7 0-1.8-.8-1.5-4.8 1.9a77 77 0 0 1-7.7 5.4c-3.6 2-4 2.6-3.7 5.6.5 5.9 1.1 7.4 3.4 8.4 1.3.5 2.4 1.8 2.6 2.8.3 1.4-.1 1.7-2 1.2-1.3-.4-3.3-.8-4.4-.9-1.5-.2-1.9-1.1-1.9-3.9a9 9 0 0 0-1.2-4.8c-1.8-1.8-1.6-4.5.4-6.5 1.4-1.3 1.8-3.2 1.7-7.6-.1-3.3.2-5.8.8-5.8q1 .2.5 2c-.3 1.1-.1 2.3.4 2.6q.8.5.4 1.4c-.7 1.1 2.2 3.3 3.5 2.5.5-.3 1-1.7 1-3.1q0-2.6-1.7-2.2c-2.5.4-2.3-2.6.2-3 1.1-.3 2.4-1 2.8-1.8s1.4-1.4 2.1-1.4c1.8 0 2.9 3.1 1.6 4.4-.5.5-1 1.4-1 1.8 0 1.2 2.4 1 3.7-.3s11-5.5 17.6-7.6c6-1.9 10-7 18.7-24.3a214 214 0 0 1 21-34.1c2.2-2.8 4-5.5 4-6s3.1-7.1 6.8-14.7a262 262 0 0 0 16.2-42c1.3-4 3.5-9 4.9-11s3-4.5 3.4-5.5c.6-1.6.8-1.7 3.1-.2 1.9 1.3 2.9 1.4 4.5.6 2.8-1.6 6.1-6.5 6.1-9.3 0-1.3.5-2.9 1.2-3.6 1.5-1.5 8.2-1.6 10.9-.2 2.5 1.4 6.2-.5 5.7-2.8-.3-1.4-1.4-1.7-7.7-1.4s-7.6.1-9.7-1.9c-2.8-2.6-2.9-2.3-3.9 6.6q-1.2 11.1-6.7 8.8l-4-1.7q-1.9-.5-1.8-4.1c0-4.4-.9-4.4-3.9 0-1.8 2.7-2.9 3.4-4.4 2.9-1.4-.4-2.7.3-4.8 2.5-2.3 2.5-2.5 3.1-1 3.1.9 0 2.2-.5 2.8-1.1 1.5-1.5 8.5-1.9 10.1-.6 1 .8.7 1.7-1.6 4.1-4.5 4.8-7.6 11.6-14.6 31.8-6.8 19.7-8.5 23.5-14.2 32.4-3 4.7-3.7 5.3-5.4 4.4-1-.5-3.7-1-5.9-1-2.1 0-6.7-.7-10.1-1.6-5.7-1.4-6.9-1.4-15.2.1a49 49 0 0 1-11.4 1.1c-2.8-.7-5.4.2-5.4 1.9s2.3 2.5 7 2.5q4 0 4.3 1.7.3 2.3 1.4-.8c.9-1.9 2.3-2.8 6.3-3.7 6.7-1.6 8.9-1.5 9.6.2q.6 1.3 2.3.9c1-.2 2.5.3 3.4 1.1q1.6 1.5 2.2.6c1.4-2.3 2.3-.7 1.7 3.2-.5 4.1-.5 4.2 1.3 2.4q2-1.9.6-2.5c-1.6-1-.3-4.1 1.8-4.1 3 0 6.1 1.2 6.1 2.4 0 2.1-7.3 12.7-8.4 12.2l-6.8-2.8c-5.1-2-5.8-2.6-5.8-5.1q0-2.8-1.1-2.1c-.6.3-.9 1.5-.6 2.5.5 1.7 0 1.9-4.6 1.8-6.4-.1-12.9.9-14.1 2.1q-3.2 3 10.4 3.1c7.6 0 19.9 2 21.8 3.5a48 48 0 0 1-4 7.8c-3.1 5.6-4.7 7.4-5.8 7a12 12 0 0 0-3.5-.9c-1.1-.1-2.8-.5-3.7-.9-2.9-1.3-5 .1-4.6 3.1.3 2.7.4 2.8 6 2.5l5.8-.4-3.2 6.9c-5.8 12.5-12.7 21-16.1 19.7q-1.5-.6-1.7-1.4c0-.7-4-3.5-9.8-6.7-1.3-.7-5.6-1.5-9.7-1.9-7.2-.6-7.7-.5-14.9 3.1-4.1 2-8.4 4.8-9.6 6s-2.8 2.1-3.5 1.9c-1.5-.6-6.2 5.1-6.7 8.1a7 7 0 0 1-1.6 3.4c-1.8 1.9-1 8.5 1.7 14.4 3.9 8.4 21 23.7 26.5 23.7 2.4 0 4.6 3.6 4.6 7.6 0 4.3 3.6 12.3 6 13.5l3.2 1.3q1.7.5 1.1 2.6c-.5 1.9-1 2.1-4.7 1.4-2.2-.4-6-.7-8.3-.8s-5-1-6-1.9q-1.9-1.6-3.3-.7c-1.6 1-5.7.3-7.7-1.2q-1.2-.9-3.2.4c-1.7 1-2.5 1-4.1 0q-5.1-3-6.5 1.5l-.8 2.8-.9-3.4c-1-3.6-1.1-3.6-10.3-1.2-2.2.6-5.8 1.1-8.1 1.1-3.4 0-4.3-.4-5.2-2.5-1.4-3-4.2-3.3-4.9-.5-1.1 4.3-8.9 6-13 2.8-1.4-1.1-8.9-.5-15 1.1-3.1.9-4.9.9-6.3.1-1.9-1-2-.8-2 8v9.1l10.2-.3a66 66 0 0 1 17.6 1.5 75 75 0 0 0 27.2.6c12.2-2 16.9-2.2 18.6-.8 1.1.9 4.2 1.2 10.7 1l18.7-.4 9.5-.2-.2 10c-.1 5.5-.5 11.9-.8 14.3l-.6 4.2h-10c-7.3 0-10.6.4-12.3 1.5-2 1.4-3.9 1.4-13.5.5q-11.2-1.2-14.4-.1c-1.7.5-5 1-7.2 1-3.9 0-12 2.6-27.5 9a52 52 0 0 1-8.9 3.1C12.7 657 0 668.5 0 672.4c0 2.8 2.8 1.7 6-2.4 5.5-6.9 5.4-6.8 37.5-18.4 11-4 19.3-4.8 41-3.8 13.6.6 16.2.5 17.5-.8.8-.8 3-1.5 4.9-1.5h3.5l.3 19 .4 21.5q0 7.1 2.7 6.8c1.5-.3 1.7-2.6 1.8-25.3a581 581 0 0 1 1.5-40c1.1-12.8 1-16.9-.3-28-.8-7.2-1.8-13.9-2.3-15-.7-1.9-.7-1.9.9-.4 2.6 2.4 5.5 14.9 5.6 24.2.5 30.5.4 35.1-.7 65.7-.6 13.5-.8 25.1-.5 25.8.9 2.5 2.6.5 3.9-4.4q1.3-4.9 1.2-22.4c0-9.6.4-20.4.9-24 .5-4 .6-9.6 0-14.5-1.3-11.8.4-22.7 2.6-16.8 1.3 3.2 3.5-.9 4.2-7.5.4-3.4.9-6 1.2-5.7.4.3.7 5.6.8 11.8s.5 14.6.9 18.7c.4 4.3.3 8.6-.3 10-.8 2.2-1 1.8-1.6-3.5-1.6-13.6-2.1-16-3.6-16-1.6 0-1.6.9-1.2 20.5a427 427 0 0 1-.9 32l-.1 11.3c.2 8.8.4 9.8 2 9.5 1.5-.3 1.8-2.3 2.4-18.2.3-9.8.9-20.4 1.4-23.5l.7-5.6.9 5c.5 2.7 1 14.2 1.1 25.5.3 18.4.5 20.5 2 20.8 2 .4 1.9 1.3 2.1-24.8.1-10.2-.2-20.1-.6-22s-.5-6.5-.2-10.3l.7-6.7 7.6.2c10.2.2 28.4-1.1 29.5-2.2 2-2-.7-2.8-7.2-2.2-9.1.9-28.9.9-29.8-.1-.4-.4-.8-5.6-.8-11.5l-.1-10.7 6.5-.3c3.5-.2 7-.8 7.7-1.4 1-.8 1.8-.6 3.3.7q2 1.8 3.7.9c1-.4 8.8-.8 17.3-1l17-.3c4.3-.4 21.1 1.6 22 2.5 1.9 1.9-.7 5.6-9.9 13.9-7.2 6.5-8.8 7.5-11.1 7-1.7-.4-5.2.3-9.5 2a40 40 0 0 1-9.1 2.5c-2.6 0-6.7 5.1-6.2 7.7.4 2.2 5.8 3.4 12.8 2.7 3-.3 8-.4 11-.3q14.1.8 21-.7c3.6-.8 5.4-.6 9 .7 6 2.2 12.2 3.1 13.9 2q3.1-2.3-4.4-3.5c-2.4-.4-4.7-1.2-5.1-1.7s5.4-.8 16.3-.5a82 82 0 0 1 32.6 5.5c1.6.6 4.3 1.1 6 1.1s5.6 1.1 8.5 2.5 7.1 2.9 9.2 3.5c5.1 1.4 16.3 9 17 11.5.3 1.1 1.4 3.3 2.4 4.9 1.4 1.9 2.1 4.9 2.3 9.8.3 6.8.2 7.1-3.8 12.8-5.7 8.1-7.4 8.6-6.9 1.9 0-1.4-.6-3.1-1.5-3.9s-2.7-3.4-4.2-6.1c-2.4-4.6-10.1-10.9-13.1-10.9-.6 0-1.8-1.3-2.6-2.9a51 51 0 0 0-15.8-13.4c-5.3-3.1-5.8-3.2-5.8-1.5a29 29 0 0 0 7.6 6.3q7.5 5 9.5 8.7 1.9 3.8 6.7 6a19 19 0 0 1 6.9 5.8c1.2 1.9 3.3 4.9 4.7 6.6 2.3 2.8 2.6 4.1 2.6 10.8 0 7.6 0 7.7-4.1 12.1a45 45 0 0 1-8.5 7c-2.4 1.4-4.4 3-4.4 3.5q-.1 1-1.6 1-1.8.1-1-2.3c1.3-4.2 1.1-5.2-1.1-5.5-1.7-.3-2.6.5-3.8 3.4q-1.4 3.6-.6 4.7c1.2 1.2-9.9 11.4-14.5 13.3-1.9.8-3.4 2.1-3.4 2.9 0 1.9 2 1.9 4.8-.1 2.1-1.4 2.6-1.3 7.7 1 3.1 1.5 7.1 2.6 9.6 2.6 3.6 0 4 .2 2.9 1.5q-2.7 3.5 3.8 1.9 3.8-.8 3.7-2.8c0-2.2 2.1-3.1 10.7-4.6q6.4-1.1 10-4.1c3.7-2.9 5.8-3.6 20.3-6.5a98 98 0 0 0 26.2-9.2c6.9-3.4 7.2-3.5 9.7-1.9 3.9 2.6 7.3 2.1 19.7-2.8a51 51 0 0 1 13.3-4.1c1 .3 3.5-.8 5.9-2.5a15 15 0 0 1 6.4-2.9c3.1 0 2.9-1.8-.3-3l-2.8-1c-.2 0-2.2 1.5-4.5 3.3q-4.2 3.2-6.4 3c-1.2-.2-3.8.6-5.7 1.8a70 70 0 0 1-18.2 6.9c-.9 0-3.2-.9-5.1-2-2-1.2-4.2-1.8-5.2-1.4q-1.7.8-3.9-2.1c-2.4-3-4.6-2.7-4.6.6 0 1.1 1 2.3 2.2 2.8 2.2.8 2.2.9-1.2 3a17 17 0 0 1-4.8 2.1 119 119 0 0 1-29.2 7.9q-6.6 1-10.9 4.1a26 26 0 0 1-10 4.1c-3.1.6-6.3 1.5-7.2 2s-5.1 1.1-9.3 1.5c-7 .5-8 .4-12.2-2.1l-4.6-2.7 2.8-1.9q5.3-3.4 5.4-.4c0 1.7 3.5 2.1 4.5.5.4-.6.1-1.7-.5-2.5-1.3-1.6-.5-2 11.4-6.9q3.8-1.6 3.3-3-.4-1.5 2.1-3.2c1.5-1 3.9-3 5.3-4.5 1.5-1.6 4.2-3 6.5-3.5a24 24 0 0 0 18-13.5c1.2-2.7.3-5.6-1.4-4.5s-2.1-1.8-.6-3.9a10 10 0 0 0 1.4-5.2c0-2.6.5-3.5 2.4-4.3 3-1.1 5.6-8.1 3.8-10.3-.9-1-.7-1.9.5-3.6 1.4-2.1 1.4-2.4 0-3.2-1.2-.7-1.3-1.4-.4-3.8 1.3-3.4-.5-8.6-3.4-10.2-1.1-.5-1.9-1.7-1.9-2.6 0-1.7-8.3-10.3-9.9-10.3q-1-.2-1.3-2.3-.1-2.4-3.5-2.5-3.2-.4-3.3-1.7c0-2.2-2.8-3.2-10.5-4-3.8-.4-7.9-1.4-9-2.1a8 8 0 0 0-3.6-1.4c-.9 0-2.8-1.1-4.2-2.4a12 12 0 0 0-4.4-2.8q-1.8-.4-2.1-3.3c-.4-3.9 4.6-10.1 8.8-11 2.4-.5 3-1.2 3-3.3 0-1.5.4-3.3.9-4.1q1-1.5.8 2c-.2 3.1 0 3.4 2.6 3.2 3.7-.2 11.1-5.4 11.5-8 .2-1.5-.7-2.7-3.5-4.4-3.6-2.3-4.5-2.4-20.3-2.2l-29.2.6c-12.1.4-12.8.4-13.4-1.6-.3-1.1-.3-10.1.1-20.1.6-16.3.5-19-1.5-27.5-1.1-5.1-2.9-11.9-4-15-1.2-3.5-1.5-6-.9-6.5 1.5-1.7 1-2.8-1-2.1q-2 .7-3.1-1.6c-1.1-2-1-2.1 1.9-1.4 5.1 1.1 32 .8 39.1-.5 24.9-4.4 33.9-5.4 42.3-4.6l7.8.8-.7 6.6a152 152 0 0 1-1.9 12.6c-.7 3.3-1.3 10-1.4 15-.2 6.9-.6 9.2-1.8 10.1-1.7 1.3-1 3.5 1.2 3.5q1.3.1 2.4 6.2l1.6 8.8c1.7 8.1 1.8 11 .3 10.5-1.8-.7-5.1 2.2-4.5 3.9.2.6 1.6 1.1 3 1.1 2.6-.1 2.7.1 2.7 5.2 0 4.3-.3 5.1-1.5 4.6-.9-.3-2.3.1-3.3.9s-2.5 1.8-3.4 2.1c-1.9.7-2.4 3.2-.8 4.2.9.5 1.6.3 6.6-2.3 1.9-.9 2.2-.7 3.3 2.7.6 2.1 1.1 4.5 1.1 5.3 0 2.4 5.2 6.6 9.7 7.7a48 48 0 0 0 11 1 29 29 0 0 0 18.3-6.8c1.4-1 7.5-4.9 13.5-8.6l16.4-10.2c3.8-2.5 6-3.3 7.7-2.9 3.6.9 6.4-1 6.4-4.3 0-3.9 2.2-5.6 3.8-3 1 1.6 1.9 1.9 4.3 1.4q4.6-.9 1.7 2.3-1.3 1.2 0 2.4c1.4 1.4 4.6-.8 3.8-2.8-.3-.7.2-1.8 1-2.4 1.6-1.4 1.9-6.6.3-7.5-.6-.4-2 .2-3.3 1.4-2.1 2-2.2 2-3.3.2-1-1.5-.9-2.2.5-3.3 3.7-3.1 10.4-6.9 11-6.3.4.4.9 15.8 1.2 34.3l.5 33.7-2.2 2.2c-2.5 2.4-2.1 5.3.7 5.3 1.5 0 1.8 1.1 2.2 7.2.3 4-.1 11.6-.8 16.8s-1.4 12.1-1.4 15.2-.5 6.9-1.1 8.5l-1.5 4.8c-1.1 6.2-1.3 8.5-.5 8.5q2.5-.1 3.6-7c.4-2.5 1.3-5.2 2.1-6.1.9-1 1.6-4.7 1.9-10l1.1-14.3c.6-6.9.6-31-.1-65.6l-1-57.5c-.4-18.1-1.1-37.7-1.7-43.5a66 66 0 0 1 .4-24.3c.9-3.6.9-5 0-5.9q-1.1-1.4-2.2 1.6c-.5 1.5-1 3.4-1 4.2q-.1 1.3-1 1.4c-1.4 0-6-4.6-6-6 0-.6-.9-2.3-2-3.8-2.7-3.6-3.4-10.7-1.3-12.7 1.4-1.4 1.9-1.2 4.9 1.7a13 13 0 0 1 3.5 4.8q0 1.5.6.2c.8-2.1 3.3-1.3 4.4 1.4q.9 2.4 1.6 2c.4-.3 2 .6 3.5 2.1q3 2.8 3.6 1.6c1-1.7 5.5-1.1 7.5.9 2.3 2.2-.1 3.1-4.2 1.5-1.7-.6-3.2-.9-3.5-.6-.5.5 1.2 6.9 2.9 11.1q.6 1.6-.3 1.8c-.5 0-1.3-1.1-1.6-2.5s-1.3-2.5-2-2.5q-1.4-.2-2-1.7c-1.3-3.3-3.5.9-4.2 8.1-.6 6.3-.6 6.8 1.2 6.4q1.9-.4 2.4-3.3l.6-3 .7 3.4c.4 1.8.6 6.6.5 10.5-.1 6.2-.2 6.5-.7 2.7-.7-5.1-2.8-6.6-3.3-2.4-.2 1.5 0 7.1.3 12.3.4 5.2.7 13.9.8 19.2.1 9.8 1.1 12.5 3.5 9.3q3.6-5.1 3.7 12.1c.1 6 .5 15.2.9 20.4s1.2 16.7 1.5 25.5l1 28.5a476 476 0 0 0 3.8 58.7c.2 3.9 1.1 7.2 2.3 9 1 1.5 1.9 3.2 2 3.8 0 .5 1.2 3.3 2.7 6.2 2.6 5.1 6.8 9.3 9.2 9.3.7 0 2.6.7 4.1 1.5 3.4 1.8 5 1.9 5.9.4 1.1-1.7-2.6-4.9-5.5-4.9-1.5 0-3.8-.9-5.1-2l-2.4-1.9 6.5-.1c3.6 0 8.1-.5 10-1l10.5-2.7 7-1.8.3-7.3a21 21 0 0 0-.8-8.7 15 15 0 0 0-6-2.5c-2.8-.7-5-1.6-5-2.1 0-1.6 5.1-3 8.6-2.3 2.7.5 3.4.3 3.4-.9 0-4-12.7-2.7-15.3 1.5-1.5 2.3 1.4 5.4 5.8 6.2q8.3 1.8 8.5 8.6c0 2-.6 4.2-1.3 4.8-2.2 1.9-9.9 3.5-18.7 3.9-9.1.5-15.4-.8-16.4-3.3q-.7-1.6 1.2-1c1 .4 6.1-.5 11.3-1.8 13.6-3.5 14.9-4.1 14.9-7q0-4.6-10.3-6.1c-9.2-1.4-10.9-8.3-2.7-10.5 2.2-.6 4-1.6 4-2.2q-.1-1-2.2-.3c-1.3.4-3.1.7-4 .8q-1.7.2-1.8.9-.2 1-2.1 2.9c-1.2 1.2-1.9 2.9-1.6 3.9q.4 1.8-1 2.4c-1.1.4-1.1 1-.3 2.6 1.2 2.3 3 2.7 3 .6 0-1.1 1.4-.9 6.5.9 7.8 2.9 8.5 3.3 8.5 4.9 0 1.5-16.5 4.1-20.7 3.2-5.3-1.2-8-5.2-8.8-12.9q-.8-6.9.4-6.7c2 0 1.3-5.1-.9-5.7-1.7-.5-2-1.4-2-6.3a31 31 0 0 0-.7-7.6q-1-2 1.3-.9c1 .4 2.7.7 3.6.7 1.4-.1 1.6.5 1.1 2.9-.5 2.5-.2 2.9 1.5 2.9 1.2 0 2.4-.5 2.7-1 .9-1.5-.4-5-2-5-2.2 0-2.9-2-1.1-3.3q1.6-1.2 1-3.4c-.6-2-1.1-2.2-4.3-1.7l-3.6.6-.3-16.7c-.1-9.2-.6-17.4-1.1-18.3s-.6-2.5-.1-3.6.4-4.8-.1-8.1c-.8-5.9-1.9-23.6-2.4-36.8l-.2-6.8 3.8-2a21 21 0 0 1 16.2-.4c2 .8 6.6 1.5 10.2 1.5 4.8 0 6.5.4 6.5 1.4 0 .7 1.4 2.3 3 3.6 4.1 3.1 7 8.1 7 11.9 0 1.7.4 3.9.9 4.9l1.8 3.7q.8 2 1.1-5.7c.3-7.6.2-7.8-3.9-14.3-2.3-3.6-4.7-6.5-5.3-6.5-1.6 0 4.7-4.9 6.3-5q1.6 0-.5 1.5c-1.9 1.4-1.8 1.5.6 3.4l2.5 2 .3-5.6c.2-3.1-.1-5.9-.5-6.2-1.4-1.1-1.5-14.3-.1-17 1-1.9 1-2.5.1-2.8-1.6-.6-1.7-3.5-.1-5.1q1.3-1.2-.5-1.8c-2.3-.8-2.4-9.2-.2-10 .8-.4 1.5-1.7 1.5-3 0-2.1-.3-2.4-2.7-1.8-1.6.4-3.7 1.5-4.9 2.5-1.8 1.7-5.4 2.6-5.4 1.4q0-.6 1.2-2.5c1-1.5.9-2.3-.7-4q-1.8-1.9-3.5-1.5-1.7.6-2.3-1.7-1-4.7 1.7-1.2c1.8 2.4 3.5 1 3.8-3.1a10 10 0 0 1 2-5.1c1.8-2.1 1.8-2.1-.6-3.8-3.5-2.2-4.2-2.1-6.8 1.4-2.3 3.2-4.1 4-3.2 1.5.8-2-1.4-4.5-3.2-3.8q-1.6.5-.9 3.3c.8 3.5-1.2 5.2-5 4.2q-5.8-1.5-.4-4.5c3-1.6 3.1-2 2.5-6-.4-2.3-1.1-4.6-1.6-5.1-1.3-1.3-4.2 1.4-3.5 3.3q.5 1.5-1.6 3.2c-1.5 1.1-2.2 2.8-2.4 5.9q-.3 4.3-2.1 5.7c-2.6 1.9-3.2 1.7-3.9-1.7-.4-1.6-1-3.2-1.5-3.5-1.3-.8-4 2.4-4 4.9 0 1.2-.5 2.7-1.1 3.3-2.2 2.2-.2 4.3 4.1 4.3 2.2 0 4 .3 4 .7 0 .9-4.8 3.3-6.6 3.3-.7 0-2.2 1.2-3.3 2.6l-2.1 2.7-.1-2.4c0-1.3-.3-3.5-.5-4.9-.9-5.1-.3-9.1 1.7-11.1a12 12 0 0 0 2.6-5c.3-1.6 1-3.2 1.4-3.5q.8-.6.9-2.3c0-3.2 3.4-4.8 14.8-7.1 14.1-2.7 19.5-4.9 25-10.3 7-6.9 8.3-9.5 8.1-17.6-.1-6.2-.4-7.1-2.2-7.7q-2.1-.8-3.9 1.6c-2.5 3.1-2.3 4 1.2 4 1.7 0 3 .4 3 1q-.1.9-1.4 1t-1.2 3.2c.1 2.9-.2 3.3-2.4 3.3-2.4 0-2.5-.2-2.5-7.3 0-6 .3-7.6 1.8-8.3 2.3-1.3 2.2-4-.3-4.6-2.5-.7-2.9-6.3-.5-6.3 2.1 0 1.9-1.7-.5-3-2-1.1-2.2-.9-2.4 2q-.3 1.3-1.9 1.5c-1 0-2.7 1.1-3.7 2.5l-1.9 2.5-.9-2.5q-1.8-5 2.2-5c3.3 0 3.5-.7 1.6-4.6-2.6-5.1-3.8-6.2-7.2-6.9q-3.3-.6-1.7-1.6c2.4-1.5 6-1 9.2 1.3a70 70 0 0 1 13.8 14.3c1.9 3 1.9 3 1.9.5q-.1-2.6-6.5-10.1c-7.5-8.8-11.6-10.8-18.6-8.9-4.9 1.3-6.9.8-6.9-2 0-2-6.5-10-8.2-10-.5 0 .5 1.7 2.2 3.8q3 3.9 3.6 8.8c.6 4.4.3 5.3-2.1 8.2-2.3 2.7-2.6 3.8-2.1 6.8.9 4.3-.2 8.4-1.5 6.3-.5-.8-.9-2.7-.9-4.2 0-4.9-2.5-2.5-2.6 2.4 0 3.6-.4 4.4-2 4.4-1.4 0-2.3-1.2-3.4-4.7-.8-2.7-1.8-4.8-2.2-4.8-1.4 0-.8 6.4.7 9.4 1.9 3.7 1.2 5.8-1.7 5.4-1.7-.2-2.8-1.7-4.5-5.8-3.7-9.4-5.7-7.5-2.7 2.7 1.5 5.1 1.5 5.6-.2 7.4-1.3 1.5-2.5 1.7-5.4 1.3-3.8-.6-6.1.8-3.8 2.2 2.4 1.5 9.3.3 12.9-2.1 4.7-3.3 5.3-3.2 4.6 1q-.6 3.5.8 4.9t.4 2.3c-1.6 1.6-.6 5.7 1.4 6.1q1.6.2 1.7-1.2c0-3.4 2-1.4 2.1 2.1q.2 3.9.6 1.4c.3-1.3 1.3-2.6 2.4-2.8q2-.6 1.9-3.2c0-1.5.8-3.1 1.9-3.8 1.5-.9 2.1-.8 3.5.9 1.8 2 1.8 2 4.2-.3q3.8-3.5-1.2-4.4-1.8-.3-1.6-1.5c.2-.7 0-2-.3-2.8-.5-1.3-.8-1.2-1.9.3-1.1 1.6-1.4 1.3-2-3.1-.6-4.2-.4-5.1 1.4-6.3 1.1-.7 2-2.2 2-3.2 0-2.1 1.9-3.7 2.1-1.7.2 2.6-.3 5.3-1.3 6.5q-1.1 1.3.2 4.3c1.4 3.5 4.1 5.3 6.4 4.4q1.6-.6 1.6 1.2c0 3.9 1.3.2 1.5-4.3.1-3.6.5-4.8 1.7-4.8.9 0 2.5-.8 3.5-1.8 2.3-2 7.7-2.4 7.1-.5q-.6 1.2-2.9 1.6c-5.4.6-6.9 2.2-6.9 7.1 0 2.5.5 5.3 1 6.1q.9 1.2 1 .5 0-.9.9.4c1.2 1.8.3 4.1-1.5 4.1q-1.3 0-1.4 1t-1 1c-.5 0-1-.9-1-1.9 0-2.8-5.3-2.4-5.9.4-.2 1.1-1 2.4-1.8 3q-1.5 1-.8 4.5c.5 2.8 1.1 3.5 3.2 3.7 3.3.2 5.3 2.1 3.4 3.3-2 1.2-6.3-1.2-9.5-5.2l-2.5-3.3-2.1 2.2a9 9 0 0 0-2 5.3q0 3-1.5 3-1.4-.1-1.5-2.3.1-2.5-1-.7c-1.1 1.8-1 1.2-1.6-.3-.6-1.7-.7-1.7-2 0s-1.3 1.7-1.4 0q-.1-1.5-1.6-1.7-1.7.1-1.1-2.2c.6-2.2-.7-5.6-2.7-7.1q-1.2-.9.2-1.4c.6-.2 1.2-1.4 1.1-2.6q.1-3-.8-.3c-.7 1.8-.8 1.8-1.4.2-.4-1-.7-2.7-.8-3.9q0-2.2-.6-.7c-.3.8-1.7 2.6-2.9 3.9-1.3 1.3-2.4 3.4-2.4 4.7 0 4.3-4.5 2.6-6-2.2-.8-2.7-.8-2.7-.9-.5q0 2.8-1.3 1.3c-1.2-1.2-1.5-3.3-2.2-12.5-.2-2.1-.8-4.3-1.4-4.9-1.6-1.6-2.6 3.5-1.2 6.2 1.4 2.6.4 8-1.5 8s-7.5 8-7.5 10.7c0 1.2.7 4 1.6 6.2 1.1 2.9 1.3 4.5.5 5.9q-1.9 3.3 2.2 3.2c1.2 0 3.6 1.6 5.4 3.6 2.9 3.2 3.3 4.3 3.3 9s-.3 5.4-1.9 5.4c-1.1 0-2.3-.5-2.6-1-.9-1.4-6.1-1.2-7.3.3-2 2.4-2.4 6.3-.8 7.6 1.8 1.5 2.2 6.6.6 7.6-.5.3-1 1.4-1 2.4s-.6 2.4-1.4 3c-1.1.9-1.5.4-2-2.8-.3-2.1-.1-5.3.5-7.1 1-2.8.9-3.5-.9-5.2-2-2-2.2-2-4.6-.4-2.9 1.8-3.5 5.3-1.1 6.2.9.4 1.5 1.9 1.5 3.6 0 2.4-.4 2.9-2.1 2.6-1.2-.2-2.5.4-2.9 1.2l-2.4 4.7c-.9 1.7-1.6 3.7-1.6 4.5s-.9 1.9-2 2.6-2 2.1-2 3.2-.4 2-1 2c-1.5 0-1.2-1.6 1.1-6.8 4.6-10 5.9-13.4 5.9-15.5 0-1.2.8-3.6 1.8-5.2s3.1-6.6 4.6-11a43 43 0 0 0 2.8-19c0-6-.5-13.3-1.1-16.2q-2.5-12.2-14.1-26.3l-13.7-17a435 435 0 0 0-15.3-17.5 607 607 0 0 1-28.9-33.2c-2.9-3.8-3.1-4.4-1.6-5 1-.3 6.8.6 12.9 2s13.6 3.1 16.8 3.7a37 37 0 0 1 16.8 9.2c.8.9 2.9 2.5 4.6 3.5 2.8 1.7 13.9 9.6 18.7 13.4 2 1.6 2 1.6-.1 3.7-1.2 1.2-2.2 3-2.2 4.1 0 5.3-2.2 8.1-8.6 11.1-3.5 1.7-6.9 3-7.7 3-2.1 0-2.8 1.2-1.6 2.6s4.5.4 8.8-2.8a9 9 0 0 1 4.3-1.8c2.7 0 9.8-4.1 9.8-5.6q-.1-1-1.5-1.8c-2.1-.8-1.9-5.5.3-6.2.9-.3 2.5-1 3.6-1.6 1.4-.7 2.5-.5 4.7 1.1 1.5 1.2 3.2 2.1 3.6 2.1.6 0 13.9 5.7 18.3 8 3.1 1.5 2.4 5.9-1.7 9.9-2.1 2.1-4.7 4-5.7 4.2-2.3.5-3.4 2.9-1.3 2.9 3 0 3.7 6.3 1 9.2-1.5 1.7-1.5 1.8.3 1.8 1.1 0 2.6.6 3.2 1.2 2 2 3-.5 2.4-6-.3-3.9.1-5.4 2.4-9 1.7-2.6 3.8-4.5 5.3-4.8 5.7-1.3 9.1-2.6 9.1-3.6q-.1-1-3.6-.5c-2.7.5-3.9.2-5.2-1.4-6.3-7.5-14-12.9-18.4-12.9-.8 0-2.7-.9-4.1-2s-3-2-3.6-2q-1 0-1.1-.9c-.1-.9-1.6-1.2-3.5-1.5s-3.5-1.2-3.5-1.9-2.4-2.3-5.2-3.7a98 98 0 0 1-23.6-16.3 42 42 0 0 0-8.3-6.7q-1.2-.1-2.3-1.6c-1.3-1.7-3.9-2.1-26.1-3.8a14 14 0 0 1-4-.6c0-.3-2.2-.6-12.5-1.4-8.2-.6-8.4-.6-5.1.9m146.9 66.7c-.4 2.7-2.3 3.4-3.2 1.3q-1-3.3 2-3.5 1.5 0 1.2 2.2m4.2 8.8q.1 1.8 1.3 1.7 1.1 0 1.5 3.2t-.7 2.6c-.6-.3-1.1-1.6-1.1-2.8-.1-2.2-.1-2.2-1.5-.3-1.4 1.8-1.5 1.7-1.5-2.2 0-2.3.5-4.2 1-4.2q1 .2 1 2m-11.3 8c-.3 1.1-.1 2.3.4 2.6 1.2.7 1.1 5.4-.1 5.4q-.9-.1-1.1-1.3 0-.9-.9 1c-1.3 3.3-3 2.8-3-.7q0-3-1.5-3c-4 0 1.5-5.5 5.9-5.9.4-.1.6.8.3 1.9m28.3 0q0 .9-1 1a1 1 0 0 1-1-1q.1-1 1-1t1 1m-5.2 3.9c-.6 1-1.8 1.7-2.5 1.4-2-.8-1.5-2.1 1-2.6l2.5-.6q.1.2-1 1.8M442 458c0 2.2-.4 4-.9 4s-.8-1.8-.7-4c0-2.2.4-4 .8-4s.8 1.8.8 4m33.2 0q.2 1.5-.7 1.8-.9 0-1.3-2.5c-.4-2.9 1.3-2.3 2 .7m6.5 2.7c-.4 1.7-.4 1.7-1.2 0-.4-.9-.4-2.5 0-3.5.8-1.6.8-1.6 1.2 0a7 7 0 0 1 0 3.5M471 495q-.1.9-1.1 1-.8-.1-.4-1 .6-1 1.1-1 .4 0 .4 1m5.1 4.9c-1.6 2.8-1.3 6.6.4 8.1q1.5 1.2 1.5 7.6c0 6.1-.1 6.4-2.4 6.4-3.4 0-7.7 1.7-10.2 4.1l-2.2 2.1-.1-5.5c0-4.8.2-5.6 2.2-6.1q2.2-.7 4 1.9c1 1.4 2.2 2.5 2.7 2.5 1.1 0 4-5.8 4-8 0-2.7-2.9-9-4.2-9q-1 0 .4-1.8c.8-.9 2-3.1 2.8-4.7q1.4-3.3 1.7-1.3c.2.9-.1 2.6-.6 3.7m-49.2 4.2c-1.4.3-3.1.9-3.8 1.3q-1.4 1-.9-3c.3-3.3.6-3.9 2.5-3.6 1.2.2 2.5-.3 3-1q.8-1.4 1.3 2.2c.4 3.1.2 3.6-2.1 4.1m40.2-5.1c2.6 1.4 2.4 3.6-.3 4.4-3.5.9-3.8.8-3.8-1.7 0-3.7 1-4.3 4.1-2.7m-281.8 5.7c1 1.7 1.9 4.7 2.1 6.7s1 4.4 1.9 5.4c1.8 2 7.1 20.8 6.3 22.8q-.4 1.2.8 2.3c.8.6 1.9 3.3 2.6 5.9s1.8 6 2.5 7.7c.7 1.6 1.8 4.9 2.5 7.3l1.7 5.8c.4 1.1-.5 1.3-5.7.7-5.7-.6-6.2-.5-5.8 1.3.3 1.6 1.2 1.9 6.6 1.9 6.6-.1 6.4-.3 7.7 6.3.6 2.7.2 3.8-1.5 5.7-2.3 2.4-1.1 4.7 1.4 2.6q2.4-1.7 2.6 1.8c0 1.3-1 1.6-4.7 1.5-2.7 0-5-.2-5.3-.3-1.9-.8-9.1-.8-9.6 0q-.5.9-2-.2c-1.1-.9-2.8-.6-7.5 1.1-5.4 2-6.7 2.2-10.8 1.2-8.5-2.1-11.8-2.4-12.6-1.3q-.6 1-1.6.5-1.1-.4-2.8 1-1.8 1.6-8.2 1.8c-6.4.3-6.4.3-7.8-3-2-4.5-3.6-3.5-3.7 2.4-.2 12.3-1.3 12.6-2.4.7-.9-10.3-5-19.3-8.6-19.3a11 11 0 0 1-4.5-1.1c-1.6-.8-2.5-.7-3.8.5-2.1 1.9-5.2 2.1-4.5.3 1.4-3.8 14.6-6.2 19.6-3.6 2.7 1.5 4.9 6.4 4.2 9.7-.7 3.7 1.3 5.3 3.3 2.7 1.7-2.5 1.7-7-.2-9.9-1.2-1.8-1.3-3-.5-5.1q1-2.7-.1-6.7c-1-3.7-.8-4.3 1.5-6.7a20 20 0 0 0 3.6-7.6l1.5-7.3c.3-1.2 3.6-5.1 7.2-8.5l9.6-8.9c2.3-2.2 3.2-2.6 4.7-1.8 2.4 1.3 3.7-.5 2-2.5-1-1.2.1-2.9 6.6-9.4 4.4-4.3 8.3-7.8 8.9-7.7a10 10 0 0 1 2.8 3.3m273.7 3.8c.7.8 1.9 1.5 2.7 1.5.7 0 1.6-.7 1.9-1.5a3 3 0 0 1 2.6-1.5c3.3 0 2 5.2-1.6 6.5-2.2.7-3 .7-3.3-.3-.3-.6-1.5-1.2-2.7-1.2-2.7 0-6.8-2.8-6.1-4.1.9-1.4 5.1-1.1 6.5.6m25.6.1a3 3 0 0 0 .3 2.8c.6.6.6 2.6.1 4.6l-.8 3.5-.1-3.1c-.1-1.7-.4-4.6-.7-6.3q-.7-3.1.6-3.1 1.1.1.6 1.6m-54.8 5.2c.3 2.6 0 3-1.7 2.5-3-.8-5.5-5.1-4-6.9 1.8-2.2 5.3.5 5.7 4.4M492 509q0 .9-1 1a1 1 0 0 1-1-1q.1-1 1-1t1 1m-43 6.1q-.1.8-1.5.9-1.4-.1-1.5-2.1c0-1.8.2-1.9 1.5-.9q1.4 1.2 1.5 2.1m-354.5 3.6q-1.7 1.8-2.4.4c-1.3-2-4.3 2.3-3.6 5.2.7 2.7-1.1 4.8-2.1 2.3-1.4-3.6-6.4-2.4-6.4 1.5q0 1.8-1 1.9c-.5 0-1-1.5-1-3.4 0-3 .6-3.7 6.1-7.1q11-6.7 11.7-3.8c.2.7-.4 2-1.3 3m326.7-2c1.5 1.5 2.8 3 2.8 3.5 0 1.7-3 .7-5.5-1.8q-2.6-2.7-4.8-1.9c-2 .5-2 .5.3-.9 3.4-2.1 4-2 7.2 1.1m70.5.5q-.5 1-.5-1.2c0-2.2.2-1.9.5-1.3.2.7.2 1.9 0 2.5M113 516q1.3.9.9 1.4c-.7.8-4.9-.5-4.9-1.5 0-1.2 2.1-1.1 4 .1m295.6 1.5q2.6 1.3 2 1.5c-.6.2.3 1.1 1.8 2.5q5.1 4.7-1.4 5-6.7.6-3.3-2.1c1.7-1.4 1.7-1.5 0-2.7-4.4-2.9-5-3.5-4.3-4.5.9-1.6 1.8-1.5 5.2.3M119 523.4c-.7.9-2.1 1.6-3.1 1.6-2 0-2.5-1.5-.9-2.5.6-.3 1-1.6 1-2.8v-2.1l2.2 2.1c1.8 1.8 1.9 2.4.8 3.7m311-2.4q0 2-2.2 2c-2 0-2.1-.1-.3-2q1.7-1.8 2.2-2 .2.2.3 2m61 2.1 2-2.3v2.5c0 2.2-.5 2.5-4.5 2.9-2.5.2-4.5.1-4.5-.2l.6-2.7.6-2.2 1.9 2.2 1.9 2.2zm-38.1.3c1.5.8 4 3.5 5.6 6a43 43 0 0 0 22 14.2c6.3 1.9 9.8 4.1 8.9 5.5-.7 1.2-4.7 1.2-5.9 0-.6-.5-2-1.2-3.2-1.6q-2.4-.7-2.3.9c0 2.5-3.6 1.9-5.4-.9-1.7-2.6-4.6-3.4-4.6-1.3 0 .6-1.3 0-2.8-1.5a12 12 0 0 0-3.5-2.7c-1.2 0-.7 2.8.6 3.3q1 .5.5 1.2-1 .7-2.6-.8c-2.5-2.3-3.2-2.1-3.2.5 0 2.3 0 2.3-1.3-.1-1.4-2.9-3.7-3.9-3.7-1.7q-.1 1.5-1.5 1.6c-1.1 0-1.5-1.3-1.6-4.8-.2-7.6-.7-13.2-1.3-15.6q-1.4-5.7 5.3-2.2M97 525.6q-.2 1.3-1.5 1.4c-1.7 0-1.8-.2-.9-2.4.7-1.8 2.4-1.2 2.4 1m346 6.2c-.7 1.3-.9.8-.9-2.3 0-3.5.1-3.7 1-1.7q.9 2.4-.1 4m35.5-4.5c2.7 2.1 1.3 6.7-2 6.7-4 0-8-5.1-5.8-7.3 1.1-1.2 5.8-.8 7.8.6m-51.8 1.3c.2.5-.3 1.8-1 2.8-1.2 1.6-1.6 1.7-3.5.5-2.8-1.7-2.8-2.3.1-3.7q3.7-1.8 4.4.4m-341.1 2.1c-1 1-1.9-.5-1-1.8q.8-1.7 1.2 0 .3 1.2-.2 1.8m321.9-.2c8.2 1.3 8.5 1.4 8.5 4q0 2.5-1.7 2.5-3.7-.2-3.8-3 0-1.5-3.5-1.5c-4.3 0-8-1.3-8-2.7q.2-.8 2.3-.5zm86.3 1c.5 3.5-1.9 5.6-5.3 4.7-3-.8-4.2-3-3.1-5.8.9-2.4 8-1.5 8.4 1.1m-404.4 4.2c.9 2.2-1 4.1-2.5 2.6-1.3-1.3-.5-4.3 1-4.3q.9.2 1.5 1.7m299-.2c-.4.8-.1 2.2.6 3 1 1.2.9 1.6-.4 2.1-.9.4-2.6 2.3-3.6 4.3-1.9 3.5-2 3.5-1.3.6.7-3.6 4-11.5 4.7-11.5q.4.2 0 1.5m92.1 3.3c-.2.2-1.4 0-2.7-.4-2.2-.7-2.2-.7-.3-1.4 1.7-.6 4.1.8 3 1.8M94 537.4q0 .5-1 1.1-.9.4-1-.4.1-1 1-1.1 1 0 1 .4M81.5 541q.3.9-1.4 1-2-.1-2.1-1 .1-1 1.4-1c.8 0 1.8.4 2.1 1m3.5 2.1q0 1.8-1 1.4c-.5-.3-1-1.3-1-2.1s.5-1.4 1-1.4q1 .1 1 2.1m32 5.9q-.1.9-1.1 1-.8-.1-.4-1t1.1-1q.3 0 .4 1m-37 2.4a9 9 0 0 0 1.9 3.1q1 .6 1.1 2c0 1.2-.4 1.2-2.7 0q-4.4-2.2-4.3-5.8c0-2.6 2.9-2.1 4 .7m10 2c0 2.4-1.6 4.3-2.6 3.3-.8-.7.7-5.7 1.7-5.7.5 0 .9 1.1.9 2.4m23 7.2c0 1.5-3.6 1.8-8.8.8-2.8-.6-2.9-.8-1.6-2.1q1.5-1.4 3.9-.9c1.3.3 2.7.1 3-.4.9-1.4 3.5.7 3.5 2.6m-23.2 2.2q.2 1.1-1.2 1.2-1.5-.1-1.6-1.6c0-1.7 2.2-1.4 2.8.4m22.8 7.1a21 21 0 0 0-3.4 3.3c-.6 1.3-2.2.9-2.2-.5 0-2.7 3-5.6 5.9-5.5l2.9.1zm5.6 8.4a19 19 0 0 0 3.9 2.4q2.4 1.1 3.7 4.9c1.7 6 2.6 19.9 1.3 22.1-.9 1.5-1 1.1-1.1-2.2 0-2.2-.8-7.5-1.7-11.9-1.4-6.2-2.3-8.1-4-8.9q-2.1-1.1-2.3-2.8c0-1-.4-2.1-1-2.4-1-.6-1.4-2.5-.6-2.5q.6.1 1.8 1.3m-8.2 9.3q0 1.3-1 .9c-.5-.3-1-1.3-1-2.1s.5-1.2 1-.9 1 1.3 1 2.1m182.5 6.5q-.7 6-1.8 4.8c-.7-.8.5-8.9 1.4-8.9.4 0 .6 1.8.4 4.1m5.2.1q-.5 1.1-.6-.6t.5-1.3c.3.3.4 1.2.1 1.9M201 596c0 1.3-4 1.3-6 0q-1.8-1 2.3-1c2 0 3.7.4 3.7 1m83.6 4.7c-.5 1.3-.9 1.3-2.2.2-1.2-1-2.2-1-5 0q-5.7 2.2-4-1.5.6-1.5 2.2-1c.9.4 2.3.1 3-.5s1.7-.8 2.2-.5q1 .3 2.3-1.1c1.3-1.5 1.4-1.4 1.7.6.2 1.2.1 2.9-.2 3.8m-27.9-1.5q-.5 1-.5-1.2c0-2.2.2-1.9.5-1.3.2.7.2 1.9 0 2.5m-184.4 1.3q-1.2 3.1-1.3-.6 0-1.8 1-1.4.8.6.3 2m195.7-1q0 1.3-1 1.5-.9-.2-1-1.5c-.1-1.3.5-1.5 1-1.5q1 .2 1 1.5m-182.9 2.6q-1.2 3.2-1 .3c-.1-1.1.2-2.4.6-2.7 1.2-1.2 1.4 0 .4 2.4m106.4-2.1c1.6.7 1.3.9-1.7.9-2.1.1-3.8-.4-3.8-.9 0-1.2 2.7-1.2 5.5 0m-34.3 6.2c-.6.6-1.6.7-2.2.3q-1.4-.7.1-1.6c1.7-1 3.4 0 2.1 1.3m118.8 4.4c0 2.6-2.5 10.6-3.6 11.5q-1.6 1.4-.9-.3c.9-2.4-3.9-3.8-13-3.8-4.6 0-8.6-.3-8.8-.8s-.8-2.2-1.2-4l-.7-3.3 14.1.3c7.8.1 14.1.3 14.1.4m-12.5 11.3q.3.9-1.7 1.3c-2.7.4-3 2.6-.6 4.2 1.4.8 2.3.7 4-.3q3.1-2.2.7.9a5 5 0 0 1-4.5 2.3c-7.9-.1-8.2-.2-9.3-3.4-1.9-5.6-1.6-5.9 4.8-5.9 3.3 0 6.2.4 6.6.9m44.1 11.7q-.7 1.5-1.1 1.2-.5-.6.1-2.2.7-1.5 1.1-1.2.5.6-.1 2.2m-10.9 1.2c-1.5 1.5-2.7 3.3-2.7 4q0 1.1-.9 1.2c-1.8 0 1.4-6.9 3.4-7.3l2.4-.6c.3 0-.7 1.2-2.2 2.7m-13.3.3c-.3.5-1.6.6-2.9.3-3.6-.9-5 .4-2.8 2.8 1.8 2 1.8 2-4.9 1.7-8.2-.5-9.5 1.3-1.8 2.4l12 1.7 14.9 2.1c6.7.9 9 1.7 11.5 3.9 1.7 1.5 4.9 3.7 7.2 4.8q8 4 5.7 7-2.4 4-7.1-.6a28 28 0 0 0-7.9-4.7c-2.6-.9-7.2-2.7-10-4.1a59 59 0 0 0-11.5-3.4c-3.5-.5-9.1-2.1-12.5-3.4a65 65 0 0 0-12.8-3.1c-5.8-.7-6.4-.9-5.5-2.5a9 9 0 0 0 1-3.9c0-1.9.7-2 9.8-2.3 12-.4 18.4.1 17.6 1.3"/><path d="M181.5 511c-.8 1.3.3 3 2 3 2 0 3-2.1 1.4-3.1-1.8-1.1-2.6-1.1-3.4.1m-6.1 2.1c-1 1.7 2.3 4.6 3.7 3.2.7-.7.9-1.9.6-2.7-.7-1.8-3.3-2.1-4.3-.5m8.2 9.8c-1.1 1.8 1.3 6.1 3.4 6.1q3.7 0 .4-4.8-2.4-3.5-3.8-1.3m-11.9.7c-1.1 1.1-.8 4.4.3 4.4 1.5 0 2.4-3 1.3-4.1q-.9-.8-1.6-.3m4 2.1c-1.3 1.2-.7 3.3.8 3.3q1.4-.2 1.5-2c0-2-1.1-2.6-2.3-1.3m-13 2c-1.2 1.2-.7 3.1 1 3.7 2.4.9 3.9-.9 2.3-2.9q-2-2.4-3.3-.8M157 534l-4.3 1.9c-4.6 1.8-3.2 4.6 2.5 4.8q8.5.3 6-5.2c-1.2-2.7-1.8-2.9-4.2-1.5m28.7.8c-.3.4-.3 2 0 3.5.6 3.1 2.9 3.3 4.7.4.9-1.5.7-2.1-.8-3.3q-3.1-2.4-3.9-.6m-13.5 2.4a10 10 0 0 0-1.4 3.3q-.5 1.9-2.6 2.3c-2.1.3-3.9 2.4-4.1 4.7 0 .5-1.4 1.3-3.1 1.8-3.6.9-6.4 4.8-5.5 7.7.7 2.3 5.3 5 8.5 5 2.6 0 2.6-1.7 0-2.5-4-1.3-4.9-7.5-1.1-7.5q1.7.1 2.6 3.2c1.7 5.6 5.1 7.1 15.2 6.9 7.3-.2 9.1-.5 10.8-2.2 2.6-2.5 1-5.3-3.4-5.7-3.9-.4-4.3-3.4-.6-5q4.8-2.5 0-5.8c-2-1.3-3.1-1.4-5.6-.5q-5.6 1.9-2.4-.9c2-1.6 1.9-4.6-.1-5.4-2.6-1-6.1-.7-7.2.6m-1.7 11.8q.4.9-.4 1-1-.1-1.1-1 0-1 .4-1 .6 0 1.1 1m17 9.9c-.3.6-1.8 1.1-3.3 1.1-2.9 0-2-1.5 1.3-2.2q3.5-.9 2 1.1m-38.9-13.2c-1.1 1.1-.6 2.3.9 2.3q1.4 0 1.5-.9c0-1.3-1.6-2.2-2.4-1.4m-3.4 7.5c-1.5 1.5-1.6 6.4-.2 7.3.6.4 1.7.2 2.4-.4s2-.9 2.8-.6 2.1-.1 2.8-.9c1.6-2 .5-5-1.5-4.2q-1.5.4-2.1-.9c-.7-1.8-2.6-1.9-4.2-.3m50.9 6.9c-1.1 1.2-2.4 1.9-2.9 1.5s-1.8.1-2.8.9c-1.7 1.2-1.8 1.5-.3 3 1.4 1.4 1.9 1.4 5 .1q6.6-2.8 5.5-6.1-1.1-3.1-4.5.6m-43.8 3.6c-1.8.7-1.7 5.3.1 5.3 2 0 3.9-2.7 3.2-4.5-.6-1.5-1.2-1.7-3.3-.8m-12.3 2.5c0 2.2 1.7 4.1 2.9 3.4 1.9-1.2 1.3-4.6-.9-4.6q-1.8.2-2 1.2m35.3.4c-1.1 2.9 3.3 5 9.5 4.5 2.4-.2 1.1-2.1-2.8-4.1-4.7-2.4-5.9-2.5-6.7-.4m-12 5c-.3.8-.1 2 .4 2.5 1.2 1.2 4.8-1.4 3.9-2.9a2.4 2.4 0 0 0-4.3.4m26.7-.2q.1.4 1.5 1.6 1.6 1.6 1.5-.4-.1-1.5-1.5-1.6c-1.4-.1-1.5.2-1.5.4m-43.4 3.5q-.4 1 .8 2 1.3 1.3 2.5-.2 1-1.4.4-2c-.9-1-3.1-.9-3.7.2m52.4 3.6c-1 1.2-.9 1.6.3 2.1 2 .7 3.7-.3 3.7-2.2 0-1.8-2.4-1.8-4 .1m-45.6 1c-.4.9-.2 2.1.4 2.7 1.5 1.5 4.4.1 4-1.9-.4-2.3-3.6-2.9-4.4-.8m16.9.5q-3.9 1.5-1 5.5c1.3 1.7 1.6 1.7 4.7.1a15 15 0 0 1 5.2-1.6c3.3 0 1.9-2.9-1.9-3.9-4.4-1.2-4.1-1.2-7-.1m27 4.1c-2.4.9-3.1 2.9-1 2.9 1.9 0 4-1.6 3.6-2.8q-.6-.9-2.6-.1m-51.7 2c-1.2 1.8-1.3 2.6-.4 3.7s1.5 1.1 3-.8c1-1.3 1.7-2.8 1.5-3.3-.6-2-2.5-1.8-4.1.4M58.1 358.6q0 1.7.6.6c.3-.7.2-1.6-.1-1.9q-.6-.5-.5 1.3m97.1.6c-.7.7-1.2 2-1.2 3s-.4 1.8-1 1.8c-1.9 0-1 2.1 1.5 3.2 1.4.6 2.5 1.9 2.5 3 0 2.6-4.4 2.3-6.3-.5q-1.5-2-1.6-1c-.1.6 1.1 2.1 2.5 3.2 2 1.5 3.1 1.8 4.4 1.1 3-1.6 5.3-1.1 9.4 2q4 3 5.8 2.4 2-.5 6.4 3.1c2.5 2.1 4.7 3.5 5 3.3.9-1-8.5-8.8-9.9-8.2-1.8.6-13.2-6.8-15.2-10a6 6 0 0 1-.9-5q1.2-4.2-1.4-1.4m-101.8 2.2c1.7 1.4 3.4 2.2 3.9 1.9.7-.4-.3-1.1-5.5-3.8q-1-.4 1.6 1.9"/><path d="M171.5 362.6c-2.9 3.2-3.2 6.5-.7 8.7 4.7 4.2 11.2 1 11.2-5.5 0-4.4-1.6-5.9-2.9-2.6-.5 1.3-1.8 3.1-2.9 4.1-3 2.7-3.9.2-1.3-3.4 2.5-3.4 2.6-3.9.6-3.9-.9 0-2.7 1.2-4 2.6m-79.7 4.3q-7.4 9-5.2 9.1c.5-.1 2.7-2.6 4.9-5.7l5.4-7.4q1.2-1.8.5-1.8c-.5 0-3 2.6-5.6 5.8m228 3.9c.4 7.8.2 9.8-1.8 14.4a19 19 0 0 1-16.6 12.4c-5.9.6-5.9.6-11.4-4-3-2.5-6.4-5.5-7.4-6.6-1.1-1.1-2.6-2-3.3-2-1.1 0-1 .7.4 3.1 2.3 4 7.3 8.3 12.5 11 7 3.6 16.2 1.3 24.1-6q8.4-7.6 5.8-23c-1.6-9.9-2.9-9.5-2.3.7m-274.7-.1q1.2 2 1.8 1.7.3-.5-1.3-2.2-2.5-2.5-.5.5m419.1 2q-1 .6-.6 1.4c.7 1.2 5.4 1.2 5.4 0s-3-1.9-4.8-1.4m-25.2 2.9c0 1.6 11.7 14 12.5 13.2.4-.4-2.2-3.7-5.9-7.4-3.6-3.7-6.6-6.3-6.6-5.8m17.7 3.8c-.4.9-1.6 1.6-2.7 1.6-2.6 0-2.7 3.1-.2 5.3 2.6 2.4 4.2 2.1 8-1.3 4.6-4.2 4.4-5.2-1.4-6.4-2.4-.5-3.3-.3-3.7.8M109 382.5q1.5 1.6-.1 1.9L101 387c-6.4 2.2-9.9 3.9-5 2.6 7.5-2.1 19-6.1 19-6.7s-3.6-1.9-5.9-1.9q-1.6-.1-.1 1.5m364 1.1q-1.5 1.5-.3 3.2c1.7 2.7 3.8 2 3.8-1.2 0-3.4-1.6-4.4-3.5-2m-455.3 1c-1 1.1.3 2.4 2.3 2.4q1.9 0 1.4-1.5c-.6-1.5-2.6-2-3.7-.9m465.4.8c-1.5 1.8.3 6.6 2.4 6.6s2.8-2.1 1.6-5.3q-1.6-4.5-4-1.3"/><path d="M306 386q-1.3.9-.9 1.5c.8.8 3.9-.5 3.9-1.6s-1.1-1.1-3 .1m159.7 3.6c-1.4 1.4-.7 3.5 1.1 3.2q1.5-.5 1.7-1.7c0-1.6-1.8-2.5-2.8-1.5m26.5 1.6q.3 2.3 2.3 2.3c3 0 2.7-3.9-.3-4.3-2-.3-2.3 0-2 2m-406 0c-.8.8-.5 2.2 1.5 5.7 3.3 5.7 3.2 5.6 3.8 4.9.3-.3-.4-2.2-1.6-4.3l-2.3-3.8 2.3-1.8 2.3-1.9h-2.4c-1.3 0-2.9.5-3.6 1.2m-44 1.9q.4 1 1.3 1 1.2 0 1.3-1t-1.3-1.1c-1.5-.1-1.5.5-1.3 1.1m429 2.1c-.7.7-1.2 2-1.2 3 0 2.6 3.6 2.3 4.3-.4 1-3.5-.7-5-3.1-2.6m8.2.9c-.9 1.6 1.8 3 3.3 1.7q1.1-1 .7-1.9c-.7-1.3-3.1-1.1-4 .2m15.8 7.2q-1 1.3-.2 2.7c.8 1.3 1.1 1.3 2.5-.1 1.4-1.3 1.4-1.7.2-2.7q-1.5-1.4-2.5.1M56 405.2c0 .7.5 2 1 2.8q1.1 1.9 1-1.3c0-1.5-.4-2.7-1-2.7q-.9.2-1 1.2m17.7-.5a50 50 0 0 0-2.2 7.3q-2 7.9-7.1 24c-.5 1.3-.6 1.3-1.5 0q-1-1.7-.7 2.4c.4 4.7 2.5 5.9 3.3 1.9 2.2-10.5 6.6-25.4 9.1-31.2q1.4-3.3.6-4.3-1-.9-1.5-.1m18.3-.3c0 .2 1.1 2.4 2.5 4.7s2.5 5.4 2.5 6.5c0 2.2 2.5 4 3.5 2.5a44 44 0 0 0-7.7-14.1q-.8 0-.8.4m322.6.5q-.4 1 .8 2c1.6 1.3 3.2-.2 2.1-1.9-.8-1.2-2.2-1.3-2.9-.1m-184.8 4.2c-1 .5-1.8 1.8-1.8 2.7s-2.3 4.2-5 7.2c-2.8 3.1-5 6.5-5 7.7q0 2.2-1.5 2.3-1.4.1-1.5 1.5c-.1 1.4-.7 1.5-1.5 1.5s-1.5.9-1.5 1.9-.6 2.1-1.4 2.4q-1.3.7-.9 2.6.6 2.2-1.1 2.1-1.5.1-1.6 2 0 1.8-1 2t-1 1.6c0 .8-1.1 3.5-2.5 6s-2.5 5.2-2.5 6.1c0 2.6-2.4 8.7-3.7 9.5q-1 1-.6 2.8.5 2-1 2c-2.1 0-3.2 1.9-1.9 3.2 1 1 8.7-1.6 20.7-6.8 5.6-2.4 12-4.5 16.5-5.4l10-2.4a127 127 0 0 1 33-3.5 78 78 0 0 0 15.9-1c3.4-1 5-1 7.3 0s3.2.9 4.1-.1q1.3-1.4 0-1.7-1.2-.6-1.3-1.8-.2-1.4-1.7-2.3c-1.8-1.1-2.5-3.9-3.1-14-.1-1.2-1-2.6-1.9-2.9-3.3-1.2-7.2-4.6-6.6-5.6q.5-1-1.5-.5t-2.2-.3q-.3-1-1.6-.9c-3.1 0-4.2-2.4-3.6-8.1.9-9 .8-10.4-.8-10.4-1.1 0-1.6 1.6-2 6-1.2 13.6-7.2 19.4-20 19.5-6.5 0-6.6 0-11.1-4.8-5-5.2-6.9-8.8-6.9-13.2 0-3.9-1.7-8-3.2-8a7 7 0 0 0-3 1.1m4.6 11.5c3.2 9.4 11 16.3 18.7 16.6 5.7.2 11.7-1.6 16.4-4.8s6-2.8 14.1 2.4c5.5 3.6 6.1 4.3 6 7.3 0 1.9.3 5 .8 7 .6 3 .5 3.7-1.1 4.4a204 204 0 0 1-20.8 1.6c-10.4.5-21 1.3-23.5 1.8a313 313 0 0 0-18.5 4.5c-7.5 2-8.7 2-15.8-.1-5.5-1.7-5.8-2-5.3-4.5a149 149 0 0 1 26.8-40.8c.3 0 1.3 2.1 2.2 4.6M210 465c1.9 1.2.5 2.4-3.1 2.6-3.3.2-3.8-1-1.1-2.5 2.1-1.3 2.4-1.3 4.2-.1m217.5-56c-.8 1.3.4 3.2 1.6 2.5s1.2-3.5 0-3.5q-1 0-1.6 1m-345.5.4q.1.4 1.6 1 1.3.5.9-.4c-.6-1-2.5-1.4-2.5-.6m340.1 1q-1.3 1.4-.1 2.1c1.7 1 3.7-1.2 2.4-2.5q-1.1-1.2-2.3.4M32.2 413q-4.4 6 .2 3.9 2.5-1 2.2-4l-.2-2.9zm377.1-2.3c-1.8.6-1.6 3.3.1 3.3 1.9 0 3.1-1.9 2-3-.5-.4-1.5-.5-2.1-.3m-321.9 1.8c1.1.8 2.4 1.5 3 1.5q.7-.1-1-1.5c-1-.8-2.3-1.4-2.9-1.4q-.7.1.9 1.4m-29.3 1.1q0 1.7.6.6c.3-.7.2-1.6-.1-1.9q-.5-.5-.5 1.3m341.6-.2c-.9 2.2 1.8 4 3.3 2.2q1-1.5.5-2.6c-.9-1.5-3.2-1.2-3.8.4m-6.3 2.1c-.7 1.7 1.2 4.5 3.1 4.5 2.1 0 2.5-2.7.6-4.4-2.2-2-3-2-3.7-.1m-334.3 3.1q0 1.7.6.6c.3-.7.2-1.6-.1-1.9q-.5-.5-.5 1.3m358 2.8c-1.2 1.4-.5 2.6 1.6 2.6 1.5 0 1.8-2.6.4-3.4q-1-.4-2 .8m-19.7 2.7c-.9 1.6 1.2 3.3 3.1 2.5 1.4-.5 1.5-.9.5-2.1q-2.2-2.7-3.6-.4m9 1c-1 1.7 1.3 3.6 2.7 2.2 1.2-1.2.4-3.3-1.1-3.3q-.9.1-1.6 1.1m-97.9 4.9c-.3.5.1 1.8 1 2.7 1.9 1.8 5 .7 5-1.8 0-1.7-5-2.5-6-.9m95 0q-.4.9.4 1 1-.1 1.1-1 0-1-.4-1t-1.1 1m95.7 2q0 2.2.5 1.2c.2-.6.2-1.8 0-2.5q-.5-.9-.5 1.3m-83 1.1q.4 1 1.3 1 1.2 0 1.3-1t-1.3-1.1c-1.5-.1-1.5.5-1.3 1.1"/><path d="M43 436.9c0 .7-2.1 2.1-4.6 3.2q-4.7 2-5.6 4.9c-1.1 3.2-8.5 8-12.2 8-1.1 0-3.3.6-4.8 1.4a48 48 0 0 1-6.3 2.6c-8.3 2.8-9 3.5-9 9.5q0 5.3 1.1 5.5c1.2 0 2.4-3.1 2.4-6.6q-.1-2.1 2.8-2.8l5-1.2c1.9-.6 2.3-.3 2.1 1.2-.1 1 .3 3 .9 4.4 1 2.3 1.1 2.1 1.1-2.2.1-2.6.6-5 1.1-5.3.6-.4 1 1.6 1 5.2 0 5.3-.2 5.9-2.8 7.1-1.5.7-5.5 1.8-8.9 2.5-4.7.9-6.3 1.6-6.3 2.8 0 2.5 1.9 2.8 7.5 1.2 6.9-2 18.5-2.9 18.5-1.4 0 .6-1.1 1.6-2.5 2.1s-2.5 1.3-2.5 1.8c0 1.4 3.3 4 5.5 4.2 3.5.4 4.4 0 5-2s-1.7-5.5-2.9-4.3q-.5.5-.6-1c-.1-1.5.6-1.8 1.3-1.8 5.1-.6 9.4-.3 10.6.9s1.6 1 3-.2c2.1-1.9 6.1-1 6.1 1.4 0 2.2 1.9 3 4.3 1.8 1.3-.7 1.5-1.3.7-2.8q-2.7-5 5-5 4.7 0 6-1.5c1.7-2.1 4-1.9 4 .4 0 2.4 2.5 4.5 4.5 3.7 1.9-.7 2-5.5 0-6.2-1.8-.7-2-2.4-.2-2.4.7 0 2.1 1.3 3 3 1 1.6 2.4 3 3.1 3 1.8 0 3.7-2.4 3.4-4.1-.4-1.8 3.9-2 10.7-.7 4.6.9 5.1 1.2 5 3.6 0 3.6 4.2 4.5 4.7 1 .2-1.9.8-2.2 3.3-2 4.7.6 12.5.6 13 0 .3-.3-.1-1.9-.8-3.6q-1.3-3.5-2.5-2-1.2 1.4-2.1-1.3-1-2.5-1-.7c-.2 3.3-3.1 2-3.1-1.3 0-1.7-.4-2.8-1-2.4s-1 1.5-1 2.6q0 1.8-1.1 1.3c-.6-.4-.8-2-.5-3.9l.6-3.2-4.9-.6c-2.7-.3-9.6-2.5-15.3-4.9-7.5-3-11.5-4.2-14.8-4.1-12.8.5-13.7.2-18.5-5.3-3.2-3.6-10.5-6-10.5-3.5m7.3 7.5c1.5 1.8 2.3 3.7 1.9 4.1q-.5.8 1 .2 1.6-.7 2.4 2.1l.7 2.7.8-2.5.7-2.5.7 2.3q.8 2.5 1.6 1.1.8-1.6 1.7 1.1l.9 2.4.7-2.5c.6-2.3.7-2.3 2.1-.5 3.4 4.4 2.5 13.5-1 10.6q-2.3-1.7-2.5 2.2 0 1.7-1 1.8c-.5 0-1-1.6-1-3.5s-.4-3.5-1-3.5-1 1.3-1 3q0 2.9-1.9 4c-3 1.5-3.1 1.4-3.3-3.8q-.1-5.2-.5-1.5c-.3 1.9-1 3.3-1.8 3.3s-1.5 1.2-1.7 2.7l-.3 2.8-13.2.2c-9.5.1-13.3-.2-13.6-1.1-.3-.6.4-2.9 1.4-5.1a19 19 0 0 0 1.9-5.8q0-2 1.7-1.3c.9.4 2 .1 2.4-.5q.8-1.1 1.4 2.3c.6 2.9 1 3.5 2.7 3 2.1-.5 4.2-4.7 3.4-6.8q-.4-1.3.4-1.9c.6-.4 1 1.4 1 4.2l.1 4.8 1.5-2.8q3.3-5.8 3.4 1.5c0 2.3.2 3.9.5 3.6s.5-5.4.6-11.4c.1-10.1.6-12.3 3-12.4.4 0 1.8 1.5 3.2 3.4m26.5 6.1c.2.2.5 2.4.7 4.9.4 4.3.3 4.7-2.1 5.6-1.4.6-2.7 1-3 1s-.4-3-.4-6.6c0-6.3.1-6.5 2.3-5.8q2 .6 2.5.9m-5.8 4.7q.1 2.7-1 .8-2-3 0-3 1 .2 1 2.2m10 .8c0 1.6-.4 3-1 3-1.1 0-1.4-4.3-.3-5.3 1.1-1.2 1.3-.8 1.3 2.3m3.1 4.3q-1.2 1.3-1.1-1.9 0-3.6 1.1-1.1 1.2 2 0 3m8.7-3.4c.9.5 2.5 1.2 3.5 1.5 2.6.8.4 4.6-2.8 4.6-2.6 0-3.4-.9-4.1-4.5q-.8-3.9 3.4-1.6m12.2 4q0 1.9-.9 2.5c-1.1.7-2.3-2.2-1.5-3.5.9-1.6 2.4-1 2.4 1m-34.5.1q.4.9-.4 1-1-.1-1.1-1 0-1 .4-1 .6 0 1.1 1"/><path d="M49.7 446.7c-.4.3-.7 1.7-.7 3q0 2.2-1.5 2.3c-2 0-1.9 1.6.2 2.4q3.2 1.1 3.3-5.2c0-3.3-.2-3.7-1.3-2.5"/><path d="M46 448.4c0 .8.5 1.8 1 2.1q1 .4 1-.9 0-1.8-1-2.1t-1 .9m6.1 3.2q0 1.7.6.6.4-1.2-.1-1.9-.5-.5-.5 1.3m-5.4 8c-.2.2-.2 1.6.1 2.9q.9 4 2.7 1.5.4-1-.6-1-1.3.1 0-1.4 1.3-1.4-.3-1.9-1.3-.5-1.9-.1M412 440.5c-1 1.2-1 1.8 0 3 1.6 1.9 3 1 3-2.1q-.1-4.1-3-.9m6 2.5q-1.7.9-.2 2.2 1.2 1.3 2.4 0c1.6-1.6-.2-3.4-2.2-2.2m11.5 2.9q-.4.9.5 1.6.9.4 1-.9 0-2.7-1.5-.7m32.8 7.6q0 3.5.4 1.7c.2-1.2.2-3 0-4q-.5-1.2-.4 2.3m-161.1 6.2q.2 1.9 4.1 2.1c4 .3 4.9-1.1 1.8-2.8s-6.3-1.3-5.9.7m-157.1.9q0 1.7.6.6c.3-.7.2-1.6-.1-1.9q-.6-.5-.5 1.3m353.9 2.8c0 1.4.5 2.8 1 3.1s1-.7 1-2.4-.4-3.1-1-3.1-1 1.1-1 2.4m-347.9.2q0 1.7.6.6c.3-.7.2-1.6-.1-1.9q-.6-.5-.5 1.3m278.6 2.6q1.3 7 1.3.5c0-2.1-.4-3.7-1-3.7s-.7 1.4-.3 3.2m59.3 2.3c-1.1 1.3-1.1 1.9.2 3.2 1.7 1.6 3.8 1 3.8-1.1q-.1-1.4-1.4-2.5-1.3-1.4-2.6.4m7.2-.3q-1.1 1.3-1.2 3.1c0 3 3.4 1.6 3.8-1.6q.5-4.4-2.6-1.5m-408.7.8q-.6 1.2.3 2.2c1.4 1.4 4.5.2 4-1.5s-3.4-2.1-4.3-.7m19 2.9c-.9 1.6.3 3.1 2.6 3.1q2 0 1.7-1.7c-.4-2-3.3-2.9-4.3-1.4m323 1.1q.6.9 1.1 1 .4-.1.4-1-.1-1-1.1-1-.8 0-.4 1m-298.3 1.7q.5 1.6 2.6 2.1 2.4.5 2.2-1.7.2-2.3-2.6-2.1-2.7 0-2.2 1.7m346.2-.3c-.9 2.4.4 4.8 2.3 4.4q1.8-.3 1.8-2.8c0-2.9-3.2-4.1-4.1-1.6m-417.7.9c-.7 1.8 1.1 3.7 3.6 3.7q2 .1 1.5-2.3c-.3-2.5-4.2-3.6-5.1-1.4m82 .3c-1.7 1.8-.6 3.5 2.1 3.2q2.5-.4 2.7-1.8c0-1.6-3.6-2.6-4.8-1.4m-61.4 2q-.4 1.5.8 2.5c1.7 1.1 2.1 1.1 3.8 0 1.2-.8 1.2-1.2.2-2.5-1.7-2.1-4-2-4.8 0m39.7.4c0 1.6.5 2.1 2.3 1.8 1.2-.2 2.2-1 2.2-1.8s-1-1.6-2.2-1.8c-1.8-.3-2.3.2-2.3 1.8m336.2.5q-2.5 2.4-1.7 4.5c.7 2.3 4.2 4.1 6.3 3.3 1.5-.6 1.6-7.5 0-9.1-1.5-1.5-1.8-1.5-4.6 1.3m-355.2.9c0 .7.7 1.9 1.5 2.6 2.1 1.7 5.1-.6 3.4-2.6-1.5-1.8-4.9-1.8-4.9 0M34 482q-.2 2.3 2.3 1.8 2-.4 2.2-1.8c.2-1.4-1-1.6-2.2-1.8q-2.5-.5-2.3 1.8m96.5-1c-.9 1.5 1.4 4 3.7 4s3.6-2.9 1.7-4.1-4.6-1.1-5.4.1m288.5 0c-.8.5-2.3.7-3.2.4q-1.7-.4-2.7 1.4-2.7 5.1 9.2 3.3c1.2-.2.8-3.8-.6-4.9q-1.3-1-2.7-.2M1 482c-1.8 1.1-.4 4.2 1.7 3.8q1.6-.4 2.1-1.9c.4-1.9-1.9-3.1-3.8-1.9m71 .5q.2 1.4 1.5 1.5c1.3.1 1.5-.7 1.5-1.5s-.7-1.5-1.5-1.5-1.5.7-1.5 1.5m16.2-.4q-2 .9-1.7 1.9c.8 1.3 4.2 1.3 5.1-.1 1-1.7-.9-2.8-3.4-1.8m18.3-.1c-.9 1.5.4 3 2.6 3q1.8 0 1.9-2c0-2.1-3.3-2.9-4.5-1m389.5.9q0 2.2 2.1 2.1 2 0 1.7-1.7c-.5-2.6-3.8-2.9-3.8-.4M9 484c0 1.6.5 2.1 2.3 1.8 1.2-.2 2.2-1 2.2-1.8s-1-1.6-2.2-1.8c-1.8-.3-2.3.2-2.3 1.8m44.2-.4c.5 2.5 3.5 4.1 4.9 2.7 1.8-1.8.3-4.3-2.6-4.3q-2.8 0-2.3 1.6m85.8 1.3q.1.9 1.3 1.9c1.5 1.3 4.2-.1 3.3-1.7-.8-1.3-4.6-1.5-4.6-.2m-25.5 1c-.8 1.5.3 3.1 2.1 3.1q1.4-.1 1.2-1.7c-.4-2-2.4-2.8-3.3-1.4M39 490q-.2 2.3 2.3 1.8 2-.4 2.2-1.8c.2-1.4-1-1.6-2.2-1.8q-2.5-.5-2.3 1.8m7 0q-1.8.9-.2 2.2 1.2 1.3 2.4 0c1.6-1.6-.2-3.4-2.2-2.2m75.1-.1c-1.9 1.2-.4 3.1 2.5 3.1q2.8 0 2.2-1.7c-.4-2-2.7-2.7-4.7-1.4M4.4 491.4c-.3.8-.4 2.7-.2 4.3.4 4 4.2 4 4.6 0 .5-4.2-3.1-7.7-4.4-4.3m404.6.1q-1.5 1.6-.1 2.8c1.4 1.4 4.6-.2 4.6-2.4 0-2-3-2.3-4.5-.4m82.6-.6q-.5.9.4 1.6t-1 3.2c-1.8 2.4-1.9 2.8-.6 4.2 1.3 1.2 2.1 1.3 5.6.1 3.8-1.3 4-1.5 3.9-5.4q-.1-3.6-.6-2.3c-.6 2.2-4.8 2-4.8-.2 0-1.7-2.1-2.6-2.9-1.2m-419.4 1.3c-.9.9-.8 1.6.5 3 2 2.2 4.2 2.3 4.9.3.7-1.7-1.2-4.5-3-4.5a4 4 0 0 0-2.4 1.2m-60.8 1.2c-1 2.6 0 5.1 2.1 5.1 1.6 0 2-.7 2-3 0-3.3-3-4.9-4.1-2.1m7 .1c-.8 2 .4 3.5 2.7 3.5 2.1 0 2.5-2 .7-3.8q-2.4-2.4-3.4.3m35 1c-.7 1.8 1.3 4.5 3.3 4.5q1.3-.1 1.9-1.5.6-1.8 2-.4c1.7 1.4 4.4.5 4.4-1.5q.1-2.6-7.1-2.6-4 0-4.5 1.5m38.1 3c.9 6.4 1.3 7.3 3.7 8.1 2.6.8 4-1.4 2.6-4a12 12 0 0 1-1.2-5.1c-.1-2.5-.5-3.1-3-3.3l-2.9-.4zm20.8-2.8c-1.8.6-1.6 3.8.2 5.3.8.7 2.1 1 2.9.7s2 .1 2.6.8q1.2 1.6 3.1.4c1.5-.8 1.7-1.4.9-2.9q-1-1.8-2.6-2-1.4-.1-2-1.3c-.5-1.3-3-1.8-5.1-1m-83.1 4c.4 2.2 4.3 2.5 4.3.3 0-.8-1.1-1.6-2.3-1.8q-2.7-.6-2 1.5M41 498q.2.9 2 1c1.8.1 2-.5 2-1q-.2-1-2-1c-1.8 0-2 .4-2 1m59.5 1c-.8 1.3 1.3 5 2.8 5q3.8-.2 2.6-3.8c-.9-2.2-4.3-3-5.4-1.2m27.4.7-.3 3q-.3 2.2.8 1.5c.6-.3 1.8-.7 2.6-.7s1.6-1 1.8-2.3c.3-1.8-.1-2.2-2.2-2.2-1.4 0-2.6.3-2.7.7m-64.6 2q-1.2.6-1.3 1.8c0 2 3.3 3.6 5.1 2.5 1.2-.8 1.1-1.2-.6-2.9-1.1-1-2.6-1.7-3.2-1.4m17.1.8c-.3.8.1 2.1.9 2.9 1.3 1.3 1.7 1.3 3.2-.4.9-1 1.4-2.4 1-2.9-.9-1.6-4.5-1.3-5.1.4m-34.3.5c-.8.4-1.1 1.5-.8 2.4.8 2 5.7 2.2 5.7.1 0-1.9-3.2-3.6-4.9-2.5m23.3.5q-1 3.3 3 3.5 4.4.1 2.5-3.1c-1.2-2.2-4.7-2.5-5.5-.4m-58.9 1.6c-2.1 3.3 2.8 8.9 6.2 7q1.7-.8 3.4.2c2.6 1.6 5.2.1 4.4-2.5-.4-1.3-1.4-3-2.2-3.8-1.3-1.3-1.6-1.2-3.4.8l-1.9 2.4-1-2.6c-1-2.7-4.3-3.6-5.5-1.5m100.5.4c0 .9 1.2 2.1 2.6 2.7 2 1 2.7.9 3.4-.2 1.2-1.9-.7-4-3.6-4q-2.3 0-2.4 1.5m-83 2c-1.8 2.2-.8 5 1.9 5s4.7-2.5 3.8-4.9c-.8-2-4-2.1-5.7-.1m99.5-.5c-.9 1.5.3 3 2.4 3q3.9-.2 2-2.7c-1.3-1.5-3.5-1.7-4.4-.3M79 510.5c-1.2 1.4-1.1 1.8.1 2.6 2.2 1.4 4.4.6 4.4-1.6 0-2.5-2.8-3.1-4.5-1m-75.6 1q-.5 1.7.7 2.6 3.2 1.7 3.4-1.7c0-2.4-3.3-3.1-4.1-.9m300.9 1q-.5 1.5 0 2.2c1 1 3.7-.6 3.7-2.2 0-2-2.9-2-3.7 0m-9.8.4q-.4.9.5 1.6c1.2.7 3-.2 3-1.6 0-1.2-2.7-1.2-3.5 0m21.7.3c-1.3 1.3-.4 3.8 1.4 3.8q1.3 0 1.4-.4l.6-1.9c.6-1.8-2-2.9-3.4-1.5M14.5 515c-1 1.6.4 3 2.9 3q4 0 2.9-2.6c-.6-1.6-4.9-1.9-5.8-.4m58 0c-.9 1.5 4.4 4.5 5.7 3.2q1.3-1-.2-2.7c-1.4-1.7-4.6-2-5.5-.5m169.8 2.5q-.5 1.5 0 2.2c1 1 3.7-.6 3.7-2.2 0-2-2.9-2-3.7 0m6 0q-.5 1.5.1 2.2c.7.7 3.6-1.6 3.6-2.8 0-1.5-3-1-3.7.6m11.7.8c-2.1 1.1-2.5 1.9-2.4 5.6.2 4.2 0 4.4-3.6 5.8q-3.9 1.5-5.1 4.5c-1.1 2.6-.9 3.2 1.7 5.9 2.7 2.8 3.1 2.9 11.4 2.8a61 61 0 0 0 14.5-1.6 10 10 0 0 0 6.3-2.9q5.8-6.3-4-7.9c-4.3-.8-5.5-3.5-2.7-6.1 3.4-3-1.9-6.1-6-3.5q-1.5 1.1-2.6-1.2c-1.3-2.6-4.1-3.2-7.5-1.4m-1 14.2q.1 1.3 1.3 1.5c.8 0 2.2.9 3.1 1.9 1 1.1 2.8 2.2 4 2.4 1.1.2-.5.7-3.7 1.1-4.9.7-6.1.6-7.7-.9-2.4-2.2-2.5-3.8-.4-5.9 2-2 3.4-2 3.4-.1m20.5 4q-.1 1.9-1.5 2.2c-2.4.4-4.1-1.2-3.4-3.1.9-2.4 4.9-1.7 4.9.9m29.6-18.1c-1.5 1.8-.3 4.8 1.8 4.4s2.8-5.8.8-5.8c-.8 0-2 .6-2.6 1.4m-271.6.5c-4.1.8-4.2 4.5-.2 4.9q2.4.4 2.3 1.1c-.3.4.9.8 2.5.9q3 .3 2.9-1.4c0-1.6.1-1.6 1.9 0 2.3 2.1 5.1 1.1 5.1-2 0-3.3-3.6-5.1-5.9-3-1.6 1.5-1.9 1.5-3.1.1q-1.2-1.3-1.9-1.4zm23.1.4c-2.3 1.7-1.5 4.7 1.3 4.7 2.3 0 5.3-2.7 4.8-4.4s-4-1.9-6.1-.3m228.8 3.2c-.8 2.1.3 4.8 1.9 4.3 1.9-.7 2.2-5.8.2-5.8-.8 0-1.8.7-2.1 1.5m-7.4 1c-1 1.2-1 1.8 0 3 1.6 1.9 4 .3 4-2.6 0-2.3-2.3-2.5-4-.4m-273.9.4c-1.1.7-.9 1.5 1 4 2.5 3.4 4.9 4.1 4.9 1.3 0-1.9-2.7-6.2-3.8-6.2q-.8 0-2.1.9m288.1.8c.4 2.1 3.3 2.5 3.3.3q-.2-1.4-1.8-1.8-2-.5-1.5 1.5m-281.2.4c0 1.7 2 4.9 3 4.9 1.4 0 1.2-3.4-.2-4.8-1.5-1.5-2.8-1.5-2.8-.1m227 1.4q.1 1.5 1.1 1.3 1-.4 1.1-1.3 0-1.2-1.1-1.3-1-.2-1.1 1.3m74 1.1q.1 1.4 1.7 1.2c2.5-.5 2.8-2.8.4-2.8q-2 0-2.1 1.6m-263.5 3.7c-1.1.6-1.2 1.3-.3 3.2q1.8 4 4.5 1.4 1.1-1.2 1.7 0a3 3 0 0 0 2.2 1.1q1.6.2 1.2-3.3c-.3-3-.5-3.2-4.1-3.2-2.1 0-4.5.4-5.2.8m251.4 1.4c-1 2.6-1.2 2.7-2.3 1-.7-.9-1.8-1.7-2.4-1.7-1.4 0-3.2 3.3-3.2 5.9 0 2.5 1.3 2.7 3 .6q1.2-1.6 6.3-1.4c4.4.2 5.3-.1 7.4-2.5 3-3.5 1.7-5.9-1.9-3.7q-2.3 1.4-2.6.2c-.7-2.1-3.2-1.1-4.3 1.6m-272.6 2.9c-1.8.8-3.3 2-3.3 2.7.1 1.7 3.1 5.3 5.3 6 2 .8 2.3 2.7.3 2.7-.8 0-2.4.9-3.7 1.9l-2.4 2 3.3 3c1.8 1.7 3 3.6 2.7 4.1q-.7 1.2-1.9 0c-2.4-1.9-9.1-1.4-13 .9-6.8 4.2-7.5 9.4-2 13.6 4.6 3.5 11.3 4.4 14.9 2.1 2.3-1.5 3.4-1.6 8.1-.6 3 .6 6.7.9 8.3.5 4-.9 8.1-4.9 8.1-7.9 0-3.4-4.4-6.8-7.8-5.9-2.3.5-2.4.4-1.8-2.2.8-3.1-.8-5.7-3-4.8q-1.3.4-1.4-.7.2-1 1.8-.9c3.2.3 4.1-.1 5.2-2.2 1.6-2.9-1-6.5-5.3-7.3-3-.6-3.4-1-2.9-3.1.9-5.1-3.1-6.7-9.5-3.9M36 539q-.1.9-1.1 1-.8-.1-.4-1t1.1-1q.4 0 .4 1m-5.2 23c3.4 2.1 4.2 4.7 1.6 5.7-.8.3-2 1.6-2.5 2.9q-1.7 4.5-8.4.4c-3.9-2.4-4.9-4.4-3.4-7.1q1-2 3-1.4 1.9.6 2.5-.9 1.2-3.2 7.2.4m18.2 8.5q-1.3 1.3-2.2 1.5-.9-.2.2-1.5c1.1-1.3 1.7-1.5 2.2-1.5q.9.2-.2 1.5M12.5 537c-1 1.6 1.6 4.3 2.8 3.1s.2-4.1-1.2-4.1q-1 .1-1.6 1m4.7 3.6c.4 2.1 2.2 2.3 2.6.1q.3-1.6-1.3-1.7c-1.6-.1-1.5.6-1.3 1.6m-11.9 1.1c-2.5.5-3.2 3.7-1 5 1.4.9 5.8.5 7-.7.5-.4.6-1.7.2-2.9-.6-2-1.7-2.3-6.2-1.4m114.7 2.2q.1.9 1.9 1.4t2.5 4.1c.5 2.8 1.2 3.6 2.4 3.4 4.3-.8.3-9.8-4.4-9.8-1.3 0-2.4.4-2.4.9m-63.4 2.6c-.6 1.7 1.7 3.1 3.4 2 .5-.3 1-1.3 1-2.1 0-1.9-3.6-1.8-4.4.1m225.6 1c-2.1 2.1-2.1 2.4-.7 3.9.9.9 2.3 1.6 3.1 1.6 2.6 0 1.5 2.9-1.3 3.2q-2.6.3-4.3 3.3c-.9 1.6-2.5 3.2-3.4 3.3q-1.7.4-1.2-.7c1.1-1.7-.2-1.3-5 1.5-5.4 3.2-6.4 6.1-3.5 10.7 2.7 4.4 6.3 6.2 12.3 6.2 4.3 0 5.3-.4 7.6-3q2.5-2.9 3-1.7c1 3.1 7.4.6 9.7-3.9 1.5-2.7 1.4-3.2-.2-5.9q-1.7-3-4.4-3c-2.4 0-2.6-.2-2.3-4.3.4-5.4.8-7.7 1.9-10.1 1.8-4.1-7.4-5-11.3-1.1m-7.7 19.5c.3.5 1.6.9 2.8.8 2.9-.1 7.7 1.9 7.7 3.2 0 .6-.7 2.2-1.6 3.5-1.8 2.8-6.8 3.4-9.7 1.2-2.7-2-4.8-6.9-3.5-8.4s3.4-1.7 4.3-.3m19.5 1.7c-.1 1.9-2.7 6-3.3 5.2-.5-.5 2.1-6.9 2.8-6.9q.5.2.5 1.7m13.5-21.7c-1.1 1.7.5 3.2 2.1 1.9q1.3-1 1.4-2c0-1.2-2.7-1.1-3.5.1m7.5.5q0 1.5 1.8 1.3c2.1-.4 1.9-2.2-.2-2.6q-1.6-.3-1.6 1.3m-14 .5q.1.9 1 1 1-.1 1-1t-1-1a1 1 0 0 0-1 1m-49.7 1.9c-.9 1.2-2.4 2.1-3.1 2.1q-1.2.2-1 1.7.2 1.9 3.6 1.8 5.7.1 5-4.6c-.4-3.1-2.3-3.5-4.5-1m-240.9 1.2c-.9 1.6 1.8 3 3.3 1.7q1.1-1 .7-1.9c-.7-1.3-3.1-1.1-4 .2m249 .4q-2.2 1.3-.7 2.6c1.4 1.5 4.3.5 4.3-1.5 0-2.2-1.5-2.7-3.6-1.1m179.3-.9c-1 1-.8 5.6.2 7.3 1.5 2.3 3.2.1 2.9-3.7-.4-3.4-1.7-5-3.1-3.6m-169.2 1.5c-1 1.5.3 2.5 1.6 1.2q1-1 .1-1.7-1-.4-1.7.5m193 1.8q-.6 1-1.9.5-1.4-.4-2 .5c-.9 1.4 1.4 2.5 2.6 1.3.6-.6 1.7-.8 2.4-.5q1.3.4 1.4-.5c0-1.5-1.8-2.4-2.5-1.3m5.5 2.2q.2 1 1.9 1.6c4.7 1.2 10.8 13.3 6.7 13.3-.7 0-2.5 1.1-4 2.5s-3.2 2.5-3.7 2.5q-1 .2-.7 1.7.1 1.8 4.3 1.9c2.2.1 4.5-.3 5.1-.8q1.2-.8 2.4-.6c3.8.9 3.6-9.5-.3-15.4-3.6-5.2-11.7-9.9-11.7-6.7m8-.1c0 .5 2.2 3.1 4.9 5.7 2.6 2.7 5.1 5.5 5.3 6.3.7 2 2.4.3 3.2-3.4q1-3.1-.7-2.3c-.8.3-2.5-.6-3.8-2-2.2-2.2-6.9-5.3-8.4-5.3q-.5 0-.5 1"/><path d="M295.5 556.9c-1 1.8 1.7 2.3 3.3.7s1.5-1.6-.5-1.6q-2 0-2.8.9m10.2-.2c-1.3 1.2-.7 6.1.7 6.6.8.3 2.1-.2 2.9-1.1 2.6-2.9-.9-8.2-3.6-5.5m192 1.7q-.7 2.4 1.5 2.6.7-.2.8-2c0-2.3-1.5-2.7-2.3-.6M263 560.6q-1.4 1.4-.2 2.6c1.2 1.2 3.2.2 3.2-1.7 0-2.1-1.6-2.6-3-.9m49.1-.2c-1.3 1.5-.4 2.4 4.1 4.3 2 .9 3 .9 4.4-.1 2-1.5 1.1-3.8-1.3-2.9q-1.5.5-2.5-1c-1.1-2.1-3.2-2.2-4.7-.3m-61.7.7c-.9 1.6 1.8 3 3.3 1.7q1.1-1 .7-1.9c-.7-1.3-3.1-1.1-4 .2m6.6 1.4c-1.3 1.6-.7 4.5 1 4.5q1-.2 1.9-2.3c1.4-3.6-.5-5.1-2.9-2.2m182.3 2.1c-1 2.7-.9 19.6.2 31.9.5 6 .8 30.8.7 55-.2 45 .2 53 2.8 53q1.5 0 1.3-2.5c-.4-5.1-.4-39.3-.1-62 .2-12.9-.2-31.6-.9-41.5s-1.2-21.7-1.2-26.2c-.1-7.8-1.4-11.4-2.8-7.7m-375.3 1q0 1.4 1.2 1.2c1.8-.6 2.1-2.8.4-2.8q-1.5.1-1.6 1.6m238.3-.9c-.7.2-1.3 1.2-1.3 2q0 1.5 1.6.9l2-.6q.4-.2.4-1.5c0-1.5-.6-1.7-2.7-.8m-225.8 2.2q-.4.9.5 1.6.9.4 1-.9 0-2.7-1.5-.7m-11.4 1.5c-1 1.1-.8 1.8 1 3.4 1.7 1.7 2.5 1.9 4 .9 2.2-1.4 2.5-4.7.5-4.7-.8 0-2.1-.2-2.9-.5s-1.9.1-2.6.9m391.6 1.1c-2.8 2.7-3.1 5.6-.8 7.8 1.6 1.7 2.3 1.9 3.3.9 1.7-1.7 2.9-1.5 2.2.3-.9 2.2 1.9 1.9 4-.4 2.5-2.8 1.7-5.6-1.6-5.4q-2.8.3-3-1.9c-.4-2.8-2.2-3.3-4.1-1.3m-397.4.7q.5 1.2 1.7 1.3c1.2.1 1.5-.6 1.8-1.3q.2-1.1-1.8-1.2c-2-.1-2 .5-1.7 1.2m188.8 2.2q-1.3 1.4-.1 2.1c1.3.8 3-.3 3-2.1s-1.4-1.8-2.9 0m53.9.3c-1.7.7-3 2.3-3 4 0 1.5 3.6 2.7 5.2 1.6.7-.4 2.3-.6 3.5-.4s2.7 0 3.2-.4c1.7-1 0-3.5-2.4-3.5-1.3 0-2.7-.5-3-1-.7-1.1-1.2-1.1-3.5-.3m188.3 0c-1.8.7-1.6 2.3.2 2.3q1.4-.2 1.5-1.5 0-1.7-.2-1.4zM8.5 575c-.9 1.5 2.3 6.2 3.8 5.7.7-.2 2 .3 3 1.1q1.8 1.6 2.8.5c1.7-1.7.6-4.8-1.6-4.6-1.1.1-2.5-.7-3.3-1.8-1.4-2.1-3.7-2.5-4.7-.9m307 .6q-1.7 1.7-.5 2.8c1.3 1.3 4.4-.4 4.8-2.8.4-2.1-2.2-2.1-4.3 0m-70 1.3c-.6 1.1.9 2.3 1.9 1.4s.7-2.3-.3-2.3q-1 0-1.6.9m4.6 2.5q-1.3 1.4-.1 2.1c1.2.7 4-1.1 4-2.6 0-1.4-2.6-1-3.9.5m-201.8 1c-1.8.5-3.3 1.6-3.3 2.2 0 2.2 2.6 4 5.6 3.9 2.6 0 2.9-.3 2.9-3.4 0-3.9-.7-4.2-5.2-2.7m207.2-.1c-1.9 1.5-1.3 3.7 1 3.7 1.6 0 2.9-3 1.7-4.2-.4-.4-1.6-.2-2.7.5m235.1.3c-.8 2 1.2 5.6 2.7 5.1 1.7-.5 2.1-3.5.7-5.2q-2.3-2.9-3.4.1m-432.4.6q-2.4 2.5.2 4.7c1.9 1.6 6.2-1.9 5.3-4.2-.7-2-3.8-2.2-5.5-.5m205.8.3c-1.6 1.9-.3 4 1.6 2.4 1.5-1.3 1.9-3.9.5-3.9q-.9.2-2.1 1.5m28.6 0c-1.8 1.3-1.8 1.5-.2 2.1 2.1.8 4.4-1.2 3.1-2.5q-1-.9-2.9.4m159.9-.4q-.6 1-.1 1.6c.8.8 3.6-.5 3.6-1.7 0-1.3-2.7-1.3-3.5.1m-168.1 1q-.5 1 .4 2.1c1.1 1.1 5.2-.6 5.2-2.2 0-1.4-4.7-1.3-5.6.1m-204.2 1.1c-1.7 2.1.3 4.6 2.5 3.2q1.6-1.1 1.8-2.5c0-1.9-2.9-2.3-4.3-.7m6.4.4c-2.1 2-1.6 3.9 1 3.9 2.1 0 3.2-3.1 1.6-4.7q-1-.9-2.6.8m220.9-.2q-1.8 1.3-1.2 3c.8 2 2.6 1.7 4.1-.7 1.6-2.4-.5-4.1-2.9-2.3M27 584.5c-2.2 2.7 1.2 4.9 3.8 2.3q1.2-1.1.1-2.5c-1.5-1.7-2.4-1.6-3.9.2m286.3.1c-.3.8-.1 2 .5 2.6 1.6 1.6 4.2.2 4.2-2.2s-3.8-2.8-4.7-.4m114.2-.6q-.4.9.9 1c1.3.1 1.8-.5 2.1-1q.4-1-.9-1-1.8 0-2.1 1M0 586q0 3.5 2.8.8T2 584q-2 0-2 2m481.3-.4c-.8 2.1 1.3 4.2 2.8 2.7 1.3-1.3.5-4.3-1.1-4.3q-1 .1-1.7 1.6m-21.4 1.5c-.9 1.8-.7 2.5.9 4.2l2.1 2 1.2-2.6c2.2-4.8-1.7-8.2-4.2-3.6m7.4-1.4c-1.6.6-1.7 3.9-.1 4.9 1.4.9 3.8-2.3 3.1-4.2-.5-1.5-1-1.6-3-.7m-455 1c-2 .7-1.5 2.3.7 2.3q1.8 0 2-.9c0-1.3-1.2-1.9-2.7-1.4m464.2 1.3c-.4.6-.1 1.8.6 2.6 1.1 1.4 1.3 1.4 2.1 0 1.5-2.6-1.2-5.1-2.7-2.6m-22.5 2.9q-2.1 4 .3 4.1c1.9 0 5-3.7 4.2-4.9-1-1.7-3.3-1.3-4.5.8m35.2.4q-1.4 1.3.1 3.1c1.2 1.6 1.4 1.7 2.7.1 1.1-1.4 1.1-1.8-.2-3.1-1.2-1.3-1.6-1.3-2.6-.1m-73.2.7q0 .9.9 1 1-.1 1.6-1 .4-1-.9-1-1.5 0-1.6 1m79.1-.1q-1.2 1-.7 2.7c.6 1.6.8 1.6 2.3.1 2-1.9.6-4.1-1.6-2.8m-89.1 1.6c-1.3 1.6-.6 3.5 1.5 3.5 1.6 0 3.8-3.4 2.8-4.4-1.1-1-3-.7-4.3.9m69.4 1.9c-.8 2.2.3 4.9 1.9 4.3.6-.2 1.2-1.4 1.2-2.7 0-2.7-2.2-3.9-3.1-1.6m-9.1.3c-2.2.8-1.4 2.3 1.2 2.3q2.5 0 2.5-1.5-.1-2.3-3.7-.8m-66.1 2.4q-2.6 3.6 1.6 2.2 2-.6 2.2-2.4c0-2.5-2.2-2.4-3.8.2m58.9-.7q-1 1.5-.2 2c1.4.9 4.1-.4 4.1-2 0-1.8-2.4-1.8-3.9 0m-65.8.6c-1.3.5-2.3 1.6-2.3 2.4s-.8 1.9-1.7 2.5c-1.4.7-1.5 1.2-.5 2.4s.9 1.7-.3 2.7c-2 1.6-1.9 3.6.2 4.4 2.5 1 5.1-2 3.7-4.2-.9-1.4-.5-2.3 1.8-4.7 1.5-1.7 2.8-3.8 2.8-4.8 0-1.9-.5-2-3.7-.7m18.9.6q-3.3 1.5-2.8 2.9c.2.7-.4 2.5-1.6 4q-3.5 4.6 1.5 6.4c1.4.5 2.7 1.9 3 3q.8 4-2.8.1c-2.6-2.9-5.2-2.5-10.1 1.5a17 17 0 0 1-5.8 3.5c-2.4 0-3.3 3.1-1.3 4.2 1 .5 1.7 1.7 1.7 2.7s1.1 3 2.5 4.5q4.3 4.7 16.3 1.1c2.9-.9 5.6-1.4 6-1.1s1.4.1 2.1-.4c1.9-1.1.5-4.2-1.6-3.8q-1.7.1-2-.7c-.2-.6.6-1 1.6-1 1.1 0 2.9-.9 4.1-2l2.1-1.9-.6 2.6c-.4 1.4-.2 2.9.4 3.2 1.5 1 5.1-3.5 5.1-6.4 0-3.4-3-6.3-5-5-2.3 1.5-2.8 1.2-3.7-1.7-.7-2.1-.5-3 1.4-4.9 2.9-2.9 3.1-8.4.5-10.7-2.2-2-6.5-2.1-11-.1M405 619c0 .5 1.4 1.7 3 2.5l3.1 1.6-1.8 2.9q-3 5.2-7.2 3.1c-3.1-1.7-3.5-4.7-1-8.1 2.3-3 3.9-3.9 3.9-2m-96.8-16.8q-1.1 1.2-1.2 2c0 1.3 3.7.9 4.9-.5 2-2.4-1.4-3.8-3.7-1.5M486 606q0 2 1.3 1.7 1-.5 1.2-1.7c.2-1.2-.6-1.5-1.2-1.8q-1.2-.2-1.3 1.8m-89.7 1.6c-.3.8-.1 2 .5 2.6 1.6 1.6 4.2.2 4.2-2.2s-3.8-2.8-4.7-.4m100.7.4q.1 1.8 1.5 2c1.4.2 1.5-.9 1.5-2s-.7-2-1.5-2-1.5.9-1.5 2m-39.7-.3c-.7.2-1.3 1.8-1.3 3.4 0 2.3.6 3.2 2.7 4 2.2.8 3 .7 4-.7s.9-2.2-.3-4.5c-1.4-2.8-2.5-3.3-5.1-2.2m13.1.4c-.7 1.1 1.4 5.9 2.6 5.9 1.7 0 2.7-2.6 1.9-4.8-.9-2.3-3.3-3-4.5-1.1M316 610.5c-.7.8-1 1.8-.7 2.1.9 1 4.8-.7 4.4-1.9-.6-1.8-2.3-1.9-3.7-.2m-14 1c-2.1 2.6.5 4.7 4.9 3.9 4.9-.9 6.7-2.6 4.6-4.4-1.3-1.1-2.1-1.1-3.5-.2q-1.9 1-2.5.2-1.4-2-3.5.5m176.7-.8c-1.2 1.1-.7 3.3.7 3.3 1.2 0 2.6-2 2.6-3.6 0-.7-2.6-.5-3.3.3M285 612.5c-2.2 2.6.4 4.3 3 2 1.1-1 2-2.2 2-2.7 0-1.4-3.7-.9-5 .7m7.3.1c-.9 2.3 1.3 4 3.2 2.4.8-.7 1.5-1.9 1.5-2.6 0-1.9-3.9-1.8-4.7.2m88.1.9c-.7 1.8 1.2 4.5 3.2 4.5 1.5 0 2.8-3.5 1.9-5s-4.5-1.2-5.1.5m-7.6 1.7c-2.8 2.2-2.7 6.8.1 6.8q3.1 0 3.1-5.6.2-4-3.2-1.2m122.5 1.8q.4 1.8-.4 2c-1.6 0-1 4 .7 4.7 2.4.9 4-1.3 2.4-3.2q-1.4-1.6-.2-2.7 2.6-2.7-.9-2.8-2.3-.1-1.6 2m-342.3-.3c-10.3.4-13.7 1-12.3 2.4 1 1 25.1 1.4 26 .5.3-.3 1.6-.1 2.9.4 2.8 1.1 5.4.3 5.4-1.5 0-1.7-3.4-2.5-9-2.3zm212.7.4c-2.1 1.2-2.2 4.2-.2 5.9s3.5.4 3.5-3-.9-4.2-3.3-2.9m115.6-.4c-2.3.9-1.4 3.1 1.5 3.6 1.6.3 3.3 0 4.1-.8 1.2-1.2 1.1-1.6-1.3-2.5-1.5-.5-2.8-1-2.9-.9zm-303 1.6c.5 1.7 8.4 2.5 20.7 2.1l12.3-.4q1.5-.2 1.7-1.5c0-1.3-2.6-1.5-17.6-1.4-13.2 0-17.4.3-17.1 1.2m136.3.2c-2.1 2.1-2 3.2.2 4.3 2.3 1.2 4.2.4 4.2-1.8 0-2.9-2.5-4.4-4.4-2.5m8.1-.3c-2.1 1.1-2.2 3.7-.2 4.4 1.7.7 4.5-1.2 4.5-3.1 0-1.8-2.3-2.5-4.3-1.3M0 620.2c0 .8 2.2 2 5.8 3 4.9 1.3 11.2 1.5 44.2 1.2 38.2-.3 49.3-1 48.8-2.9-.2-.6-16.5-1-46.3-1-25.3 0-47.5-.4-49.2-.9-2.6-.7-3.3-.5-3.3.6m105-.3c-1.2.9-1.2 1.1.2 1.6 2.1.8 4.8.3 5.1-1s-3.4-1.7-5.3-.6m199.6-.2c-1.1 1.1-.6 2.3.9 2.3q1.4 0 1.5-.9c0-1.3-1.6-2.2-2.4-1.4m28.8.8q-2.2 1.3-.7 2.6c1.4 1.5 4.3.5 4.3-1.5 0-2.2-1.5-2.7-3.6-1.1M171.5 624l-21.7.9c-2.1 0-3.8.6-3.8 1.2 0 .8 7.7 1 26.8.8 28.8-.3 32.2-.5 32.2-2.3 0-1.4-8.1-1.5-33.5-.6m174.9.4c-1.8 1.4-1.8 1.5-.1 2.1 1.9.8 5-1.2 4.1-2.6-.7-1.3-1.7-1.1-4 .5m39.6 1.2c-1.1 1.2-1 1.8.4 3.2 1.6 1.6 1.8 1.6 3.1-.1 2.6-3.6-.8-6.5-3.5-3.1m-280 .4q.2.9 2 1c1.8.1 2-.5 2-1q-.2-1-2-1c-1.8 0-2 .4-2 1m354.6-.1c-1.1 1.8.6 4 4 5.1 1.8.6 3.8.9 4.4.5 1.7-1 1.1-4.4-.9-5.5-2.4-1.2-6.8-1.3-7.5-.1m22.7.7c-.3.8.1 2.2.9 3 1.3 1.3 1.6 1.3 2.7.1 1.4-1.7.4-4.7-1.5-4.7q-1.4.1-2.1 1.6m-105.1.3c-2.1 1.3-1.1 5.6 1.3 5.6q2.1.2 2-2.9 0-4.7-3.3-2.7M60.5 629c-1 1.6 3.2 1.9 20.4 1.7 12.1-.1 16.5-.5 16.8-1.5.6-1.5-36.2-1.8-37.2-.2m430.8 1.7c-1.8.7-1.6 4.3.2 4.3q1.4 0 1.5-2.5c0-1.4-.1-2.5-.2-2.4zM328 632.5c-1 1.2-.9 1.6.3 2.1 2 .7 3.7-.3 3.7-2.2 0-1.8-2.4-1.8-4 .1m19.6.4c-.9.9-1.6 2.4-1.6 3.1q0 1.6-1.2.2c-.7-.7-2-1.2-3-1.2-1.8 0-2.2.9-1.9 4.2q.3 1.8-1.4 1.2c-1.5-.6-4.5 1.1-4.5 2.7s4.7 4 6.4 3.3q1.8-.7 1.2-3-.8-2.5.7-1.8c.8.3 2-.2 2.7-1q1.2-1.4 2.2-1c1.6 1 3.8-1.7 3.8-4.7q-.1-5.4-3.4-2M0 633.5c0 1.5 19.2 3.8 33.5 4.1h32l29.3.1c8.2.1 9.3-.1 9-1.6-.5-2.2-9.2-3.2-19.3-2.1-8.2.8-37.2.5-57-.6-17.5-1.1-27.5-1-27.5.1m353.6 0c-1.9 1.9-.5 5.8 1.8 4.9s2.8-3.6 1.3-5.1c-1.2-1.2-1.7-1.2-3.1.2m66.4-.2c0 2.1 1.2 2.8 2.7 1.6 1.9-1.6 1.6-2.9-.7-2.9q-1.8.1-2 1.3m52.4-.2c-.8 1.4 1.1 3.3 2.5 2.5a3 3 0 0 0 1.1-2.2c0-1.6-2.6-1.9-3.6-.3m-14 2.4c-.9 2.3.4 4.7 2.4 4.3 1.1-.2 2.7.3 3.6 1.1q1.7 1.5 2.8.3c1.7-1.7.1-4.5-2.3-3.9q-2 .4-2.5-.8c-.8-2-3.4-2.7-4-1M14 639.2c-6.2 1.3-8.1 1.3-11.3.5q-2.8-1-2.7.7.1 2.9 13 2.5h18c16.9.3 17 .3 17-1.4s-.5-1.6-18-1.9c-4.7-.1-9.2-.4-10-.7-.8-.4-3.5-.2-6 .3m356 .3c-1.3 1.6-.6 3.5 1.5 3.5 1.3 0 3.5-2.9 3.5-4.4 0-1.2-3.8-.5-5 .9m43.7.3c-1.3 1.4-1.4 2.1-.5 3 2.6 2.6 5.4.7 4.3-2.8-.8-2.5-1.7-2.5-3.8-.2m-17.7.7c-1.5 1.7-.5 3.5 2 3.5 1.9 0 3-1.7 2.3-3.8-.6-1.6-2.8-1.5-4.3.3m8.3.1c-.3.8-.1 2 .6 2.7 1.4 1.4 4.7-1.5 3.7-3.2-1-1.6-3.6-1.3-4.3.5m83 0c-1.1 2.9 1.1 4.9 5.3 4.9 3 0 4-.4 4.2-1.9.5-2.2-1.8-4.8-2.5-2.9s-3.3 1.6-3.3-.2c0-2-2.9-1.9-3.7.1m-99.1.6c-1.7 1.7-1.5 4.8.4 5.5s3.5-1.4 3.2-4.1c-.4-2.4-2-3-3.6-1.4m86.2 1.9c-1 1.7 1.3 3.6 2.7 2.2 1.2-1.2.4-3.3-1.1-3.3q-.9.1-1.6 1.1M22 646.6a50 50 0 0 1-20.1 4.9q-2-.9-1.9 1.6c0 2.1.2 2.2 8.7 1.5 7.1-.6 10-1.3 15.1-3.9 3.8-1.9 6.1-3.8 6-4.6-.5-2.3-1.9-2.2-7.8.5m332.5-1.7c-1 1.7 1.4 5.1 3.6 5.1 3 0 2.3-5.4-.8-5.8-1.1-.2-2.4.2-2.8.7m124.9.6c-1.3 3.3 2.5 7 4.8 4.7q1.2-1 0-3.7c-1.3-2.8-3.9-3.3-4.8-1m-333.8.4q-2.4 3.4 7.2 3c3.7-.2 8.5 0 10.7.4 4.6.8 7.7-.5 5.8-2.4-1.7-1.7-22.8-2.6-23.7-1m201.1-.2c-1.3 1.2-.7 5 .9 6.3 2.2 1.9 4.9-.9 4-4.4-.6-2.5-3.3-3.5-4.9-1.9m22.2 3.9q-3.5 3.7-2.1 4.1c.7.3 2.2 1.4 3.2 2.5s2.2 1.8 2.7 1.5.9 1.2.8 3.4c0 3.8 0 3.8-1.6 1.7-1.5-1.9-2.1-2-6-1.2-4.1.8-4.6 1.3-7.7 7.3-3.7 7.2-3.4 8.4 2.9 10.3 2.2.6 3.9 1.7 3.9 2.5s1.2 1.3 3 1.3q3 0 3-1.6-.1-1.8 1.3-.6c2 1.7 16.2.1 16.2-1.8 0-.8-.9-1.6-2-1.6l-3.6-.3c-2.2-.1-4.1-4.5-2.6-6q2.7-2.7 2.7 1.7c0 5.3 2.7 5.1 6-.4 2.3-4.1 2.5-4.7.8-4.2-.7.3-2.3-.8-3.6-2.4q-2.4-2.8-5.3-2.8c-2.6 0-2.9-.4-2.9-3q0-3 1.4-3c2.1 0 3.9-2.7 2.9-4.4a23 23 0 0 0-8.8-6.6c-.6 0-2.7 1.6-4.6 3.6m.2 19.5c1.7 3.4 1.8 4.3.7 5q-2.5 1.8-5.9-.1c-2.1-1.2-2.4-2.7-.9-6.4q2.3-5.6 6.1 1.5m58.1-21.9c-1.7 1.7-1.5 4.8.3 4.8 1.7 0 3.9-3.6 3-5q-1.1-2-3.3.2m-11.6 3.1c-2.3 1.7-1.3 5.7 1.4 5.7 2.4 0 3.7-3.8 1.8-5.6-1.2-1.2-1.7-1.2-3.2-.1m57.5.5a3 3 0 0 0 0 3.3c.8 1.2 1.2 1.1 2.4-.4 1.4-1.9 1-4.7-.6-4.7-.4 0-1.3.8-1.8 1.8m-228.6.1c-.7 1.3-.2 1.6 8.8 4 9.1 2.5 10.7 2.6 10.7.7 0-1.6-.6-1.8-10.3-4.1-8-1.8-8.4-1.8-9.2-.6m154.9.1q-4.7 1.8-1.4 3.7c1.4 1 2.1.8 3.6-.8 2.1-2.4.8-4-2.2-2.9m8.6 1.5c-1.3 1.6-.6 3.5 1.5 3.5 1.6 0 3.8-3.4 2.8-4.4-1.1-1-3-.7-4.3.9m-199 .9q.1 1.4 4.5 2.1c7.2 1 33.3 8.3 37.9 10.5a41 41 0 0 1 15.3 12.1c1.5 2.2 5.1 5.3 7.9 6.9s6.3 4.5 7.6 6.3a40 40 0 0 1 4.3 21.8c-.7 3.9-.6 4 1.6 3.7 1.9-.2 2.5-1.1 3-4.3.4-2.2.3-6-.2-8.5l-1.6-8c-.9-5.1-3.9-8.8-10.5-13-3.2-2-6.9-5.1-8.2-6.9a68 68 0 0 0-15.9-12.7c-1.5-.8-6.7-2.6-11.5-3.9l-11.7-3.4c-11.4-3.8-22.5-5.1-22.5-2.7m288-.3c-1.3.8-1.2 1.2.5 2.5 1.8 1.4 2 1.3 2.3-.2.5-2.2-1-3.5-2.8-2.3m-9 2.9c0 2.3 2.6 3.8 4.1 2.3 1.4-1.4 0-4.3-2.2-4.3q-1.8 0-1.9 2m-6.6 1.7c-.4 1.6-1.1 3.1-1.7 3.4-1.3.9 0 2.9 1.9 2.9 1.5 0 3.4-3.8 3.4-7.1 0-2.9-2.9-2.3-3.6.8m-393.5-1.2c-.3.3-5.5.9-11.5 1.4q-18 1.6-15.7 4.2c.8.8 3.7.8 10-.1l16.8-1.8c6.1-.5 8-1 8-2.2q0-1.5-3.5-1.8c-2-.2-3.8 0-4.1.3m269.8.1c-1.4 1.4-.7 3.5 1.1 3.2q1.5-.5 1.7-1.7c0-1.6-1.8-2.5-2.8-1.5"/><path d="M178.6 657.9c-.9 1.4 1.6 2.8 5.9 3.4a485 485 0 0 1 21.5 4.6c9.6 2.2 18.2 4.1 19 4.1 2.5.1 9 5 17.6 13.3 6.6 6.3 8.8 9.2 11.9 15.8 3.9 8.4 4.1 9.3 3.2 25.3-.2 3.8 1.7 4.4 3.8 1.2 1.3-1.9 1.7-4.8 1.6-11.6 0-8.3-.3-9.7-3.5-16.3a60 60 0 0 0-18.5-20.9q-2-.8-2.1-1.7c0-2.6-9.3-7.3-18.2-9.2-16.9-3.6-26.2-6-30.1-7.4-4.1-1.7-11.3-2-12.1-.6m169.8.6c-.4.9-.2 2.1.4 2.7 1.5 1.5 4.4.1 4-1.9-.4-2.3-3.6-2.9-4.4-.8m126.1-.4q-.6 1-.2 1.6c.7.7 2.7-.6 2.7-1.8s-1.7-1.2-2.5.2m-87.5 1.3c-.8 1.1-.7 1.8.5 3 2.3 2.2 3.2 2 4.9-1.2 1.3-2.6 1.3-2.7-1.4-2.9-1.6-.1-3.3.4-4 1.1m41.4.1c-.4.8-.3 2.3.1 3.2.6 1.7.7 1.7 2 0 1.4-1.9 1-4.7-.6-4.7q-.9.2-1.5 1.5m39.6 0c-1 1.2-.9 1.6.5 2.1 1.9.8 4-.9 3.1-2.5q-1.4-2.3-3.6.4m-72.5.5q-.6 1.2.3 2.2c1.3 1.3 5.4 0 4.9-1.5-.5-1.6-4.3-2.1-5.2-.7m66.5 1q-1.7.9-.2 2.2 1.2 1.4 2.4 0c1.6-1.6-.2-3.4-2.2-2.2m-44.5.9c-.9 1.6 1.5 5.5 2.7 4.3s.7-4.4-.9-4.9q-1-.2-1.8.6m-269.3 1.3c.7 2.1 5.6 3.4 7 2q1.6-1.3-.2-2.2c-2.3-1.4-7.2-1.2-6.8.2m10.8-.3q-3 2.2 4.3 2.8c2.3.2 5.3.7 6.7 1.1a8 8 0 0 0 3.8.5c2.2-.8 1.3-3.1-1.5-3.7-7-1.3-11.9-1.5-13.3-.7m263.3.7c-.8 2.2 1.5 4.4 2.6 2.5 1-1.6.4-4.1-1-4.1q-.9.1-1.6 1.6m-338.4.9a59 59 0 0 0-20.4 5.5c-1.2 1.9 2.8 2.3 7.9.7 2.8-.9 7.6-1.9 10.6-2.2 12.6-1.4 14-1.6 14-3 0-1-2.6-2.9-3.3-2.4zm316.1 2.1c0 3 .3 3.5 1.8 2.9.9-.4 2.3-.8 3-.9 1.8-.3 3.1-2.6 2.5-4.3s-3-1.7-3.6-.1q-.6 1.5-.6 0-.3-1-1.6-1.2-1.6 0-1.5 3.6m-358.2-1.5A88 88 0 0 0 19 676.7a88 88 0 0 0-15.1 31.1 97 97 0 0 0 0 26.1c2 3.1 3.1-.2 3.1-8.9a75 75 0 0 1 4.7-29.4 95 95 0 0 1 11.7-17.5A90 90 0 0 1 45.3 668c3.2 0 6.7-1.6 6.7-3 0-1.2-5.1-1.1-10.2.1m367.3.7c-.8 1.5-.7 2.3.5 3.3 1.3 1 1.7 1 2.5-.2.5-.8.8-2 .6-2.8-.3-2.3-2.5-2.4-3.6-.3m77.6.8c-2.6.9-4.5 1.9-4.2 2.4s1.6.5 3.1 0c1.4-.6 5-1 8-1s5.4-.5 5.4-1q-.2-1-1.7-1c-1 0-2.7-.2-3.8-.4a18 18 0 0 0-6.8 1"/><path d="M180.2 668.2c.2.6 2.7 1.9 5.5 2.8a42 42 0 0 1 10.2 5.4c2.9 2 5.6 3.4 6.1 3.1q3-2-3.1-6.4c-6-4.4-19.7-8-18.7-4.9m284.3 1.1c-1.7 1.3-1.4 3.7.5 3.7 1.4 0 4.1-3.1 3.5-4.1-.8-1.2-1.8-1.1-4 .4m-365.4 2.6c-2.2 1.4-.3 3.1 3.5 3.1 2.8 0 3.5-.4 3.2-1.8-.4-1.9-4.5-2.7-6.7-1.3m360.2.6q-.4 1.5 0 2.1c.9.9 2.7-.6 2.7-2.2 0-1.9-1.9-1.8-2.7.1"/><path d="M83.5 674.9c-4.6 2.1-6 3.6-9.9 10.5-3.1 5.4-2.9 6.7 2 13.1 2.7 3.5 13 9.3 20.4 11.5l8.5 2.6c3.6 1.2 17.9 2.5 27.5 2.6 4.4 0 18.7-1.7 26-3.1 14.1-2.6 21.6-8.2 24.9-18.4 2.7-8.1-3.6-16-14.7-18.5-5.1-1.2-7.7.1-4.7 2.3 1.1.9 3.6 2 5.6 2.5 4 1.1 8.9 6.5 8.9 9.9 0 3.8-3 9.6-6.4 12.3-4.8 3.8-14.4 6.4-32.1 8.6-18.7 2.3-45.4-3.5-56.1-12.3-5.9-4.9-7.2-8-4.4-11 1.1-1.2 2-2.6 2-3.1s1.5-2.5 3.4-4.3c2.7-2.6 4-3.2 6-2.7 2.9.7 4.3-.9 2.6-2.9q-2.3-3-9.5.4m259.9 4.2q-.5 1.2 1.2 2.6a4 4 0 0 1 1.6 3.9c-.3 2.2 0 2.5 2 2.2 2.7-.4 4-4.8 1.4-4.8-.8 0-1.6-1-1.8-2.2-.3-2.5-3.2-3.6-4.4-1.7m52.7.3q-1.4 1.3.4 2.6c1.3 1.1 1.9 1.1 3.2-.2 1.6-1.7 1-3.8-1.1-3.8q-1.4.1-2.5 1.4m15.6-.8c-1.1 1.1-.8 5.2.4 6 1 .6 2.8-1.1 2.9-2.7 0-1.3-2.6-4-3.3-3.3m4.3 2.9c0 1.9.4 3.5.9 3.5s1.1 1 1.5 2.2q.5 2.6 1.7 1.1c.9-.9.9-1.5 0-2.7-.6-.7-1.1-1.8-1-2.2.5-2.8-.3-5.4-1.6-5.4q-1.5 0-1.5 3.5m-369.7.5a21 21 0 0 0-8.6 18.8c.5 6.7 3.6 15.3 6.5 17.9 1.1 1 2.7 3.5 3.5 5.6 1.1 2.7 2.7 4.4 5.7 5.9 2.2 1.1 7.2 4.1 11 6.6 7.7 5 14.4 7.9 26.4 11.3 3.7 1.1 4.5 1 5.9-.4s1.4-1.7.2-2.1l-9.1-3A79 79 0 0 0 79 740c-.7 0-4.1-1.8-7.6-4s-6.8-4-7.3-4q-.8-.1-2.2-1.6c-.7-.9-2.9-2.3-4.8-3.2q-3.5-1.7-5.3-5.4c-1-2-2.8-4.8-4.1-6.2a19 19 0 0 1-3.5-6.4 33 33 0 0 1 .2-18.1c1.6-3.1 9-10.1 10.7-10.1q.8-.1.4-1c-1.2-1.9-5.1-1-9.2 2m376.7-1q0 1.8.9 2c1.1 0 2.2-2.6 1.4-3.4-1.2-1.2-2.3-.5-2.3 1.4m-19.4-.1c-.8 1.2 2.1 3.4 3.4 2.6 1.7-1.1 1.1-3.5-.9-3.5q-1.9 0-2.5.9m-47 1.7c-2.2 2.1-2 4.4.3 4.4 2.4 0 4.5-2.5 3.7-4.5q-1.1-2.9-4 .1"/><path d="M209 683.5c0 .9 1.3 2.9 2.8 4.3 1.6 1.5 3.4 3.7 4.1 5 1.5 2.7 1.6 14.7.2 18.3a31 31 0 0 1-12.9 13.1c-3.1 1.7-9.2 5.5-13.4 8.4-9.4 6.3-14.5 7.7-30.3 7.9-6.6.1-14.9.7-18.5 1.3-6.6 1.2-29.7 4-35.9 4.5-4.5.3-5 2.2-1 3.6s8.4 1.4 10.9.1c1-.5 8.3-1.9 16.2-3s15.8-2.4 17.5-2.9q3.2-1 6.6.1c2.5.8 6.3.6 14.8-.6a64 64 0 0 0 29.1-11 47 47 0 0 0 22.1-19.8c1.5-3.1 1.5-5.9.4-16.4q-.8-7.6-6-11.1c-4.9-3.3-6.7-3.8-6.7-1.8m253.2-.3c-1.6 1.6-1.5 4.8.2 4.8 2 0 3.9-2.7 3.2-4.5q-1-2.7-3.4-.3m-122.5 1.5c-1.4 1.4-.6 4.2 1.4 4.8 2.9 1 4.4-.7 3-3.4-1.2-2.1-3.1-2.7-4.4-1.4m39.6 3.9c-.3.9-.2 2.4.4 3.2 1.8 3 10.3 3.8 10.3 1.1 0-1.9-3.7-5-5.2-4.4q-1.5.6-2.3-.4c-.9-1.6-2.5-1.3-3.2.5m88.7-.1c0 1.4 1.2 1.7 8 1.9 2.5.1 2.7-1.8.3-2.1l-5-.7c-2.5-.4-3.3-.1-3.3.9m-75.7 2.1c-.7 1.8 1.1 3.9 2.6 3 1.7-1.1 1.3-4.6-.4-4.6q-1.5.1-2.2 1.6m-24.8 2.4q-.6 1.2.3 2.2c1.4 1.4 4.5.2 4-1.5s-3.4-2.1-4.3-.7m50.8-.3c-1.7.6-1.6 2.8.1 4.2 2.1 1.7 4.5-1.5 2.5-3.3-.8-.8-2-1.2-2.6-.9m-60 1c-1.8.7-1.6 3.8.3 5.4 1.8 1.4 4.9.1 4.9-2.1 0-1.6-3.6-3.9-5.2-3.3m49.1.8c-.7 1.8.3 3.5 2.1 3.5 2.1 0 2.8-1.9 1.5-3.5q-2.5-2.8-3.6 0m-63.9 2.5c-.4.6-1.5.8-2.4.5-2.2-.7-4.4 1.7-3.6 3.7.9 2.4 8.3 2 9.6-.4 1.6-2.9-1.9-6.5-3.6-3.8m24.1 1.9c-.9 1.4.4 4.1 1.9 4.1 2.1 0 2.8-1.9 1.5-3.5q-2.1-2.6-3.4-.6m22-.2c-1.2 1.2-.6 5.1.9 6.3 2.2 1.8 3.9-.1 3.1-3.3-.6-2.5-2.9-4.1-4-3m31.6 1c.4 2.1 3.3 2.5 3.3.3q-.2-1.3-1.8-1.8-2-.5-1.5 1.5m-26.2 1.2c0 1 .7 2.4 1.5 3.1 1.2 1 1.6.9 2.1-.4.3-.9.4-2.3 0-3.1-.8-2.1-3.6-1.9-3.6.4m-44.6 2.5c-.8 2.2.3 3.3 1.8 1.8q1.3-1.2 0-2.4-1.2-1.4-1.8.6m146.3 1.3c-3.2 1.6-3.1 3.6.1 4.1q2.2.6 2.8-2.3c.8-3.4.5-3.6-2.9-1.8M337.5 706q-.6 1.2.3 2.2c1.4 1.4 4.5.2 4-1.5s-3.4-2.1-4.3-.7m24.5.4c-1.1 1.1-.1 3.6 1.5 3.6.7 0 1.8-.7 2.5-1.5 1.1-1.3 1.4-1.3 2.7 0 1.8 1.9 2.7 1.9 4.2.1q1.2-1.4-.1-2.4c-1.5-1.2-9.5-1.1-10.8.2m17 0q0 1.4.9 2c1.1.7 3.3-1.8 2.4-2.7-1.2-1.2-3.3-.7-3.3.7m24.3.1q-.4 1.5 0 2.2c1 1 3.7-.6 3.7-2.2 0-2-2.9-2-3.7 0m-10.6.6q-2.1 1-.6 2.5 1 1.2 2.1.8 1-.4 2.3.6c.8.7 2.2 1 3 .6 2.2-.8 1.9-3.6-.4-3.6-1.1 0-2.3-.5-2.6-1-.8-1.2-1.5-1.2-3.8.1m89.8.9c-1 1.7.5 3 3.5 3 3.6 0 4.7-1.6 2.1-2.9-2.5-1.4-4.8-1.4-5.6-.1m-133.1 5.4c-1.7.6-2.9 1.6-2.7 2.3q.1 1-1.8 1.5c-3.3.5-4.8 3.4-2.7 5.4 1.4 1.5 1.9 1.5 3.3.4.9-.8 1.4-2.2 1.2-3.2-.5-1.8.8-2.6 1.5-.9.2.5 2.1 1.1 4.3 1.3 3.5.3 4 0 4.3-2q.5-2.3-1.7-2.2-1.8-.1-2.3-1.9c-.3-1.6-.7-1.7-3.4-.7m32.2-.5q-.4.9.7 1.9c1.5 1.3 4.2-.1 3.3-1.7-.9-1.3-3.3-1.5-4-.2m105.2 0c-5.2.8-6.3 1.4-5.3 3.1.7 1.2 1.3 1.2 12.9-.8 2.2-.4 4.1-1.3 4.4-2q.5-2-12-.3m-165.7 2.4c-1.5 1.9.6 4.3 4.6 5q3.1.6 4.3-.8c1.5-1.8.3-3.8-2-3.2q-1.8.4-2.4-.9c-.7-1.8-3-1.8-4.5-.1m-9.7 4.2c-.7 1.8.3 3.5 2.1 3.5 1.6 0 3.8-3.4 2.8-4.4-1.2-1.1-4.4-.6-4.9.9m145.8 2.6c-3.4 3.6-2.7 5.4 3.1 8.8 7.2 4.1 9.4 6.6 7.7 8.6-.7.8-2 1.5-2.9 1.5-2.2.1-5.1 2.4-5.1 4.1a9 9 0 0 1-1.9 3.6c-1.5 1.8-3 2.3-6.6 2.3-4.2 0-5.2.5-8.1 3.6-6.1 6.4-3.5 11.5 6.4 12.4 5.1.5 5.6.7 6.3 3.3l.8 2.8-5.7-.6c-17.9-1.9-24.2-3.7-26.2-7.4a11 11 0 0 1 0-9c1.1-2.2 8.4-5.4 17.4-7.7 10.8-2.7 16.5-8.8 13.2-13.9a27 27 0 0 0-13.5-7.5c-1.1 0-2.7-1-3.5-2.1-1.3-1.9-1.8-2-4.3-1.1-1.5.7-5.5 1.6-8.8 2.2-10.4 1.9-11.3 2.2-13.4 4.1a7 7 0 0 0-2.1 4.7c0 3.6-5.6 6.8-14.5 8.2-7.4 1.2-13.9 4-14.9 6.5q-.6 1.6-2.6 1t-2.6 1.2c-.9 2.4-4.5 5.2-6.6 5.3-3.8 0-9.8 3.2-10.4 5.5-.6 2.5-7.3 5.5-12 5.5a13 13 0 0 0-9.4 5.5c-1.6 2.5-2.2 10.6-.8 12 1.2 1.2 4.2-3.8 4.1-7-.1-4.1 2.3-6 9-7 8.4-1.3 12.1-3 13.6-6.4q1.5-3 4-3.7c1.4-.2 3.9-.9 5.4-1.4 3.3-1 6.7.5 6.7 3.1 0 1.2-.9 1.6-3.6 1.5-3.3-.1-3.9.3-5.6 3.6-1.6 3-2.6 3.8-4.7 3.8q-5.2 0-9.6 7c-1.9 3.1-2.3 4.5-1.6 6.3 1.4 3.7 7.6 9.7 9.9 9.7a30 30 0 0 0 12.7-5c1.1-1 3-2 4.3-2.3 1.8-.4 2.5 0 3.2 1.9 1 2.5 6.3 5.4 9.7 5.4 4.1-.1 10.3-8.5 10.3-14 0-3.4-4-7.3-7.2-6.9s-6.8-2.1-6.8-4.9c0-1.3 1-4.1 2.3-6.2 1.7-3.2 2-4.3 1.1-5.7a4 4 0 0 0-3.3-1.6q-2.2.4-2.1-1.7c0-1-.4-2.2-1-2.5s-1-1.2-1-1.9q-.1-1.3 7.4-1.9a23 23 0 0 0 11.7-3.2c5.9-3.7 9.9-7.5 9.9-9.6 0-2.5 2.2-3.9 8.1-4.9l8-1.6q2.5-.5 3.8 1c.8.9 2.1 1.6 3 1.6s3.9 1.1 6.8 2.4q7.2 3.5 7.3 7.5c0 1.5-3.5 3.1-8.8 4.1-19.8 3.5-29.9 15.8-20.8 25.4q3.3 3.7 6.1 3.6c1.5 0 4.4.4 6.4.9s6.8 1.5 10.6 2.1a39 39 0 0 1 18.8 7.8c2.1 2.3 3.6 9.3 1.6 7.4a7 7 0 0 0-3.7-1.2c-2.2 0-2.4.3-1.8 3.1l.6 4c0 2.1 4.1.8 5-1.6 1.1-2.8 2-3.1 3.8-1.3 2 2 1.4 5.3-1.4 7.9l-2.5 2.4-29.7.2c-26.1.1-56.1.6-130.4 1.8-10.9.2-19.8 0-19.8-.4 0-1.4 11.4-8.1 13.7-8.1 1.2 0 2.5-.4 2.8-1s1.7-1 3.1-1q2.4 0 3.4-2.6c.9-2.1 1.5-2.5 3.5-2 5.8 1.5 18.5-9.3 18.5-15.6 0-1.8.4-3.8.8-4.4 1.3-1.9 6.5-4.1 13.7-5.8 9-2.2 11.5-3.8 11.5-7.5q0-4.8 8.5-5.3c4.1-.2 5.5-1.5 5.5-4.9 0-2.2.6-3.2 2.4-3.9 3.1-1.1 16.7-4.1 22.6-4.9 3.9-.5 4.5-.9 4.8-3.1q.3-2.6-2.3-5c-2.1-2-3.7-2.4-10.8-2.7-8.7-.4-11.4.4-10.3 3.2.5 1.3 1.5 1.6 4.9 1.1q3.6-.5 2.5 0-1.7.6-1.8 1.8c0 1.6-5 4.2-10.6 5.6-4.7 1.1-6 2.4-6.6 5.9-.2 1.9-1.5 2.9-6 4.6-6.9 2.5-8.3 3.7-8.3 7.3 0 3.1-3.3 4.4-4.7 1.8-1.4-2.5-5.7-2-6.3.7q-.6 2.3-5.1 4.2c-5.4 2.2-8.1 5.4-9 10.4-1 6.2-1.4 6.8-5.5 9.7-3 2-5.1 2.7-7.9 2.6-3.2-.2-4.4.3-7.4 3.4-1.9 2-3.9 3.3-4.5 3-1.8-1.2-15.7 6.6-18.3 10.2-.7 1-2.2 2.2-3.3 2.6-1.1.5-28.2 1-60.2 1.2-50.2.4-58.2.3-57.7-1 .9-2.4-1.6-2.9-4-.7s-7.5 2.8-9.4.9c-.9-.9-2.1-.8-5.2.1-2.3.7-5.4 1-6.9.6l-2.8-.6 3.3-3.6c3.1-3.4 3.5-3.5 6.3-2.3q5.3 2.1 11.2-2.1c1.5-1 3.7-1.9 4.8-1.9 1.2 0 6.8-2.2 12.5-4.9l10.3-4.9.8-4.7c.8-6 3.7-8.9 10.1-10.4 10.7-2.4 15.4-4 19.1-6.5 2.4-1.6 4.7-2.4 5.7-2 2.8 1.1 14.3-1.6 16.9-4 2-1.8 2.6-2 4.7-.9 1.4.7 3.5 1.3 4.7 1.3s2.7.8 3.2 1.9q2.3 4.3 8 1.3c2-1 5.1-2.2 7-2.5q7-1.5 7.1-7.1c0-4.5-2.5-7.7-5.8-7.4-2.2.2-2.8-.2-3-2-.2-1.3.3-2.9 1.2-3.5s1.7-2.7 1.8-4.6c.3-3.1-.1-3.6-4.1-5.7-5.4-2.9-6.1-2.9-9.5-.3-2.1 1.6-2.4 2.4-1.6 3.9q2.4 4.2-1.4 4c-1.4 0-3.7 1.1-5.2 2.5s-3 2.5-3.4 2.5c-1.6 0-4.3 5.5-4.4 8.8-.1 3.6-.5 3.9-6.7 6.7a60 60 0 0 1-19.2 2.8c-.5-.3-1.8.4-3 1.5a18 18 0 0 1-8.9 3.1c-3.6.6-9.9 2.5-14 4.2s-9.5 3.7-12.3 4.5a311 311 0 0 1-30.2 7.4c-2.9 0-3 1.6-.1 3.1 2.3 1.2 6.2.6 20.8-3.3l10-2.5q3.4-.7.5.8c-1.1.6-3.6 2.9-5.5 5-2.6 2.9-4.6 4.1-7.5 4.6-2.5.3-5.2 1.7-7.1 3.5-2.9 2.7-3.6 2.9-7.9 2.3-3.8-.6-5.2-.4-7.3 1.2-3.6 2.6-12 4.7-13.6 3.4-.7-.6-3-1-5.2-1.1h-13.3c-9.4-.1-23.6-1.7-38.6-4.5-9.9-1.8-12.8-1.9-12.3-.3.9 2.7 19.2 6.4 39 7.8 6.4.5 12.5 1.3 13.5 1.9q1.6 1 .8 1.1c-11.9.7-16.6 1.2-19.7 2.1a302 302 0 0 1-29.8 1.2c-20.8.2-26.2-.1-26.9-1.1-.4-.8-4.4-2.2-8.7-3.1-4.3-1-9.1-2.4-10.6-3.1s-3.4-1-4.3-.6c-2.9 1.1.1 3.4 6.6 5.2 6.7 1.9 7.3 3.8 1.3 4-11.5.3-13.4.5-13.4 1.5 0 1.1 135.2.6 185-.6 10.7-.3 65.2-.8 121-1.1s103.1-.8 105-.9c1.9-.2 22.7-.4 46.3-.4 37.3-.1 42.7-.3 42.7-1.6 0-1.2-2-1.5-11.2-1.7h-13c-2.2.2-2.3-1.6-.2-3.9 2.7-3 2.1-6.9-1.5-9.8q-3.1-2.6-3.1-5.3c0-1.4-1.1-4-2.5-5.6-1.4-1.7-2.5-3.8-2.5-4.8s-.7-2.6-1.7-3.6c-1.5-1.7-1.5-1.8 0-1.8q1.6 0 1.7 1c0 .5 2 2.3 4.5 4s4.8 4.2 5.1 5.5c1 3.9 3 5 4.7 2.5l1.4-2.1 6.6 2.5a60 60 0 0 1 9.1 4.1c2.2 1.5 2.6 1.5 2.6.2 0-.8-.7-1.8-1.6-2.1q-1.6-.5-1-3c.3-1.4.2-2.7-.3-3s-.7-1.5-.4-2.6c.6-2.3-2.2-3.9-3.9-2.2q-1.2 1 .1 2.6 1.2 1.5.4 2.9c-.7 1.2-1.7 1-6.3-1.2-5.5-2.6-5.5-2.6-6.3-8.1-1.1-8-.9-8.2 7.5-7.5 4 .3 8.3.8 9.6 1.1 2 .4 2.2.1 2.2-3.5 0-4.4-.7-5.1-6.5-6.8q-5-1.2-1.3-1.2c3.1-.1 4.6-1.8 2.4-2.7-2.6-1-.6-2.6 2.5-2 2.4.5 2.9.2 2.9-1.4 0-1.9-.7-2-10.2-2-5.6 0-9.8-.3-9.4-.8a18 18 0 0 1 6.3-.7c8.2 0 7.9-2.1-.4-3l-6.8-.8 3.7-1.3c6.7-2.3 10.8-4.6 10.8-6q-.1-3.5-10.4-3c-6 .3-6.6.1-6.6-1.7q-.2-2.1 2.3-1.3a22 22 0 0 0 12.4.8c1.6-.6 4-1.3 5.6-1.6s2.7-1.3 2.7-2.1c0-1.8-5.7-2.4-9-.9a41 41 0 0 1-18.7-1.7c-1.7-.5-5.4-1.2-8.1-1.6-4.2-.5-5.2-.2-7 1.8m8.2 1.9q2.6.9 2 2.5c-.5 1.3-.9 1.3-3.5-.2-4.6-2.8-3.6-4.3 1.5-2.3m7.6 3.5q-1.4 1.7-.2 2.7c1.4 1.4 1.6 4.8.3 4.8s-2.2-6.2-1-7.6q1.1-1.3 1.6-1.4.4.2-.7 1.5M254 734q0 .9-.4 1-.6-.1-1.1-1-.4-1 .4-1 1 0 1.1 1m141 1.5q-.2 1.4-2.2 1.6c-1.3 0-3.6.3-5.1.5q-2.8.5-2.2-.6c.3-.5 1.7-1 3.1-1 1.3 0 2.4-.5 2.4-1q.2-1 2-1c1.8 0 2 .7 2 1.5m90-1.1c0 .9-4 1.3-4.6.5q-.3-.8 2-.9c2.3-.1 2.6.2 2.6.4m-230.2 10.2q-.7.3-1.8-1.8-2-3.1.6-.6 1.6 1.7 1.2 2.4m-4.5 3.1 2.3 3.7-3.2 2.8c-3 2.7-3.4 2.8-7 1.6-3.2-1.1-4-1.8-4.2-4.2-.5-3.7 3.1-7.6 7-7.6 2.1 0 3.3.9 5.1 3.7M473 745q-.2.9-2.2 1-2.7.1-.8-1 3-2 3 0m-5.2 4q1 0 1.2 1c0 .5-1.5 1-3.4 1q-6 .2-3.6 3.5 2.2 2.8-4.5 2.2-3-.2-3 1.3c0 2.1 7.4 2.3 9.7.3 1.2-1.1 2.8-1.3 5.7-.8q8.6 1.7-1.6 3c-3.2.3-6.9 1.3-8.2 2.2q-2.4 1.6-3.4.4c-.6-.6-2.4-1.1-3.9-1.1-3.1 0-8.8-2.5-8.8-3.8 0-1.7 2.6-3.2 5.5-3.2 1.8 0 4.9-1.3 8-3.6q5-3.4 7-3c1.1.3 2.6.6 3.3.6m5.2 1q0 .9-1 1a1 1 0 0 1-1-1q.1-1 1-1t1 1m16.8.7c-1.6.2-4 .2-5.5 0-1.6-.2-.3-.4 2.7-.4s4.3.2 2.8.4M261.3 754q-.4 1.8.6 2 1.3.2 1.1 1c0 1.9-3.3 1-5.5-1.4l-2.3-2.5 2.7-.4 3.3-.6q.5.1.1 1.9m235.7 5.5c.6.3.8 1.1.4 1.6a60 60 0 0 1-17.3-.7q-.2-.3.4-1.5c.8-1.2 14.3-.8 16.5.6m-23 6.4c1.1 2.1 1.4 6.1.4 6.1-.3 0-1.7-1.4-3.1-3-1.3-1.7-3.4-3-4.4-3q-1.7-.1-1.4-1c1.1-1.8 7.3-1.2 8.5.9m-98 4.6q1.2 1.3 2.6 1.5c1.6 0 2.7 1.7 1.9 2.9-.7 1.2-7.4-3-7.5-4.7s1.5-1.5 3 .3m-3.5 7.5c1 1.1 2.8 2 4 2 3.2 0 4.9 2.1 2.6 3.4l-4.2 2.8c-1.3.9-4 1.9-6 2.3-3.2.6-4 .3-6.8-2.7-1.8-1.9-3-4.2-2.9-5.3.6-4.3 10.1-6.1 13.3-2.5m19.6 2.2c3-.2 4.3 1 5.3 5.1q.6 2.8-.7 3.3c-2 .7-6.7-1.3-6.7-3 0-2.4-2-2.9-4.1-1-1.6 1.5-2.2 1.6-2.9.5-.9-1.6 3.9-6.3 5.5-5.3.5.3 2.1.5 3.6.4"/><path d="M326.1 725.3c-1.6 1.6.7 4.1 2.5 2.6q1.3-1.1 1.4-1.9c0-1.4-2.7-1.9-3.9-.7m-17.1 5.2c-1.7 2.1-.2 5 2.6 5 1.4 0 1.9-.7 1.9-3 0-3.4-2.4-4.5-4.5-2m-8.7.9c-1.8.6-3.5 1.5-3.8 1.8-1.3 1.2.6 4.8 2.5 4.8 2.9 0 7.5-4.4 6.7-6.3s-.9-1.9-5.4-.3m53.2 2.2a38 38 0 0 1-8.7 2.3q-5.7.2-5.8 2.7c-.1 2.5.5 1.7 4.6.5q5-1.5 4.9 1.9c0 .8 1 1.6 2.1 1.8s2.6 1.4 3.2 2.8 1.6 2.4 2.1 2.4c1.6 0 3.3-2.9 2.9-5.2-.2-1.8-.9-2.3-3.2-2.3-1.6 0-3.1-.5-3.3-1.1-.6-1.7 5.1-3.4 13.2-4 7.7-.6 8.5-.9 8.5-3 0-2.4-13.2-1.7-20.5 1.2m69.3.5c-1 .6-1.8 2.1-1.8 3.5 0 2.1.4 2.5 2.3 2.2q2.2-.3 2.5-2.7c.5-3-.8-4.2-3-3m-49.5 1.5c-.8 2.2.5 3 2.3 1.2 1.4-1.4 1.4-1.6-.1-2.1q-1.5-.6-2.2.9m60-.9q-3 1.1 1.4 6.2 5.4 6 6.7-.1c.6-3.1-.8-5.3-2.6-4.2q-.9.3-1.4-1-.8-2.4-4.1-.9m63.8 4.2c-2.6 2-2.1 4.1 1 4.1 1.4 0 1.9-.7 1.9-3 0-3.5.2-3.5-2.9-1.1m-171.6.9c-1 .7-3.5 4.8-3.5 5.7s3.9.5 4.5-.4c.3-.5 2-.7 3.9-.4 4.1.6 7.6-1.1 7.6-3.8q.1-2.3-1.7-1.3c-2.3.9-5.2 1-7.8.1-1.1-.3-2.4-.3-3 .1m91.2-.2c-.4.4-.7 1.6-.7 2.6q-.1 2 2.3 1.6 2.1-.3 2.2-2.3c0-2-2.5-3.2-3.8-1.9m-409.4 2c-.3.8.1 2.7.8 4.1 1.4 2.6 9.4 9.3 11.1 9.3 2.5 0 1.4-3.1-2.4-7.2-2.4-2.5-4.9-5.3-5.6-6.2q-2.5-3-3.9 0m419 0c-.3.8.1 2.3 1 3.1 2.3 2.3 5.2 0 3.6-2.8-1.2-2.3-3.7-2.5-4.6-.3m-116.8 4.2c-5 1.7-7.1 4.9-3 4.5q19.2-1.8 11.4-5l-3.3-1.3zm97 3.4q-4 2.4-2.6 4.1c1.7 1.7 5.1-.3 5.1-2.9 0-2.8.1-2.7-2.5-1.2m-130.2.5c-2.1.8-1.5 4.3.6 4.3 1.1 0 2.3-.5 2.7-1.1.8-1.4-1.7-3.8-3.3-3.2M397 751c-1.4 2.6-.1 4.4 2.6 3.8q2-.4 1.9-2.8c0-3.2-3-3.8-4.5-1m-64.1 1.1q-4.5 4.5 3.2 4.1c8.3-.5 9.2-.7 10.3-2.4 1.4-2.3 0-3.5-2.4-2.1-1.4 1-2.1.9-3-.2-1.8-2.1-5.7-1.8-8.1.6m-51.5 2.4c-.9 2.3.3 4.5 2.5 4.5q4.2 0 1.5-3.8-2.7-3.9-4-.7m10.9-.8q-1.2.5-1.3 2c0 1.7 4.1 1.4 4.7-.3.4-1.3-1.6-2.3-3.4-1.7m11.7 2.5c-5.5 2.8-6.6 6.2-2.6 7.8 2.1.8 2.6 1.6 2.6 4.2-.1 3-.2 3.1-1.4 1.5-1.8-2.4-4.7-2.1-12.6.9l-6.7 2.7 1 3.9c.5 2.1 2 4.7 3.3 5.7a35 35 0 0 0 20.7 1.9 11 11 0 0 1 5.2-.9q3 .2 6.4-2.7c3-2.5 3.4-3.4 3.3-7.2-.1-2.4-.9-5.1-1.9-6.2-1.9-2.1-8.2-2.5-10.1-.6q-1.3 1.5-1.2-1.9c0-1.8.5-3.5 1-3.8 2.1-1.3.5-7.5-2-7.5-.3 0-2.6 1-5 2.2m13.4 15.4c1.4 3.6.6 6.4-2 7.5-3.1 1.1-3.1 1.1-3.5-1.7-.4-2.1 2.5-7.4 4-7.4q.9.1 1.5 1.6m-18.4 2.9c2.6 3.2-2.1 7.6-6.4 5.9-1.9-.7-2.1-4.5-.4-6.2 1.6-1.6 5.3-1.5 6.8.3m7.3 6q-1.2 3.1-1.3-.6 0-1.8 1-1.4.8.6.3 2M274.5 757q-.6 1.2.3 2.2c1.4 1.4 4.7.6 4.7-1.2s-4-2.6-5-1m44.9 1.1q-.4 1.1.5 2.2c1.3 1.3 4.2 0 4.9-2.1.5-1.5-4.4-1.6-5.4-.1m91 3.4q-.5 1.7.7 2.6 3.2 1.7 3.4-1.7c0-2.4-3.3-3.1-4.1-.9m-376.8.4c-.8 1.2 12.4 10 16.9 11.3l25.6 6.3c21 5.2 23.7 5.6 38.5 6.2 14.1.5 16.1.4 17.3-1.1q1.3-1.5 1-2.1c-.3-.2-7.2-.6-15.4-.9-18.5-.6-20.1-.9-51.7-8.9-14.4-3.7-18.4-5.1-21.5-7.6-4.2-3.3-9.6-5-10.7-3.2m297.6.3q-2.7 3 1.1 2.6 2-.4 2.2-1.7c0-1.9-1.8-2.4-3.3-.9m71.8 1.7c0 2.4 3 4.3 4.9 3.2 2.2-1.4.8-4.6-2.2-4.9-2.2-.3-2.7.1-2.7 1.7M0 769.1c0 4 .6 5 2.6 4.2s1.7-3-.6-5.5l-2-2.2zm482.7-2.4c-.3.2-.2 1.6.3 3.1.5 2.1 1.2 2.6 3.1 2.4 2.6-.3 5.7-2.8 4.7-3.8-.9-.8-7.6-2.3-8.1-1.7M364 768q.1.9 1 1 1-.1 1-1t-1-1a1 1 0 0 0-1 1m-147.4 2c-5.8 2.9-7.4 6.3-3.6 7.3 2 .5 4.2 4.5 3.3 6-.2.4-2.7-.5-5.4-1.9-4.5-2.5-5.2-2.6-9-1.5a19 19 0 0 0-6.7 3.8c-2.3 2.3-2.4 2.7-1 3.7.9.6 1.7 2 1.9 3.1q.6 1.8 3.7 2.7c1.8.5 4.7 1.8 6.5 2.8 7 4.3 7.1 4.3 12 2.1 2.6-1.2 5.9-2.3 7.5-2.5 3.8-.4 6.5-2 9.6-5.7 3-3.6 3-4.9-.4-6.6q-2.4-1.2-2.5-4c0-2.6-.3-2.8-4-2.7-2.2 0-4.9.4-6 .9-1.8.7-1.7.5.4-1.8 2.3-2.5 2.3-2.7.7-5.2-2-3-2-3-7-.5m-5.2 19.6c-3.7 1.4-10.4.6-11.1-1.4q-.5-1.5 1.6-3.3c2.1-1.7 2.3-1.7 7.3.9l5.1 2.6zm20.6-2.2c0 2.7-3.1 4.8-5.9 4.1-6.8-1.7-5.7-5.5 1.5-5.5q4.5 0 4.4 1.4m-14 6.5c0 1.2-2.8 2.2-3.4 1.2q-.5-.8.1-1.5c.9-.9 3.3-.7 3.3.3m17-23.4q-1.4 1.7-.2 2.7c1.3 1.3 4.2-.6 4.2-2.8 0-1.9-2.4-1.8-4 .1m259.4 0c-.4.9-.2 2.1.4 2.7 1.5 1.5 4.4.1 4-1.9-.4-2.3-3.6-2.9-4.4-.8m-247.2 1.7c-1.7 1.7.4 5.1 2.5 4 .9-.5 2.5-.7 3.5-.4 2.2.5 3.9-1.4 3.1-3.3-.5-1.6-7.6-1.8-9.1-.3m12.4 1c-2 2.8-2 4.8-.3 4.8 2.1 0 5-3.7 4.4-5.5q-1.4-3.2-4.1.7m148.8 2.2c-1.3 3.4 2.3 6.5 4.1 3.6q.7-1.2 1.9-.1t3.2-.3q3.8-2.8-4.3-4.1c-3.4-.5-4.4-.4-4.9.9M7 776.3c0 .7.6 2 1.3 2.9 2 2.6 31.3 16.9 33.1 16.2q4.1-1.6-3.1-5.3l-6.3-3.2c-.8-.5-5.1-2.7-9.5-4.8a46 46 0 0 1-9.4-5.5c-1.6-1.9-6.1-2.1-6.1-.3m186.3.5c-4.1 1.3-5.5 3.4-3.2 4.7.5.4 1.9-.1 2.9-1s2.3-1.4 2.8-1.1c1.3.8 3.8-2.3 2.6-3.3-.5-.4-2.8-.1-5.1.7m154.1.3q-.5 1 .4 2.1c1.2 1.2 5.5-.8 4.7-2.3-.8-1.2-4.2-1.2-5.1.2m74.7-.1c-1.4.8-.8 4 .7 4 .5 0 1.5-.6 2.1-1.4 1.5-1.7-.8-3.9-2.8-2.6m-79 5.4q-1.4 1.3.4 2.6c.9.7 1.3 2.1 1 3.1q-.8 2 1.5 1.9c2.6 0 3.8-2.9 1.9-4.4a3 3 0 0 1-1.1-2.9c.4-2-2.1-2.3-3.7-.3m88.9.6q-1.3 2.3-.1 3.3c1.6 1.6 4.6-.4 4.6-2.9 0-2.7-3.1-2.9-4.5-.4m8.1-.7c-1.3 1.6-.5 4.7 1.3 4.7 2.1 0 3.8-1.8 3.4-3.6-.4-2.3-3.1-3-4.7-1.1m7 2.1c-1.4 1.7.9 3.9 3.3 3q2.8-1 .4-3.2c-1.5-1.5-2.3-1.5-3.7.2m7.3 1.1c-.4.9-.2 2.1.4 2.7 1.5 1.5 4.4.1 4-1.9-.4-2.3-3.6-2.9-4.4-.8m-195.8.2c-.4.4-1.7.8-2.9.8-2.4 0-3.6 3-1.8 4.8q1 1 2.4-.1c.7-.6 2.2-.9 3.4-.6q2.1.7 2.8-1.5c1-3.3-1.7-5.6-3.9-3.4m6.8.8c-.4.9-.2 2.1.4 2.7 1.5 1.5 4.4.1 4-1.9-.4-2.3-3.6-2.9-4.4-.8m11.9-.8c-1.5.5-1.8 4.3-.4 4.3 1.5 0 4.2-3.1 3.6-4.1s-1.3-1-3.2-.2"/><path d="M337.3 788.6c-.9 2.4 1.4 6.3 4.4 7.5 1.6.6 5.1 1.3 7.8 1.6 3.9.4 5.8 1.3 8.7 4.1q3.6 3.3 5.2 2.9c2.4-1 1.9-2.8-2.2-7.5-3.6-4.1-3.9-4.3-9.9-4.5-5.4-.2-6.4-.5-8.3-3-2.4-3-4.8-3.5-5.7-1.1m75.9-.4c-1.9 1.9-1.5 2.7 2.1 4.2 3.2 1.3 6.7.6 6.7-1.4 0-.8-5.5-4-7-4q-.6 0-1.8 1.2m20 5c-1.7 1.7-1.5 4.7.4 5.5 2.3.9 5.1-2.3 3.8-4.4q-2-3.3-4.2-1.1m20.3-.2c-.7 1.1 1.2 5 2.4 5 1.5 0 3.3-2.9 2.7-4.5s-4.1-2-5.1-.5m-167.4 1.4q-1.3 1.4-.1 2.1c1.3.8 4.2-1.4 3.4-2.6q-1.3-2-3.3.5m156.2.3c-.7.3-1.3 1.8-1.3 3.4 0 2.2.5 2.9 1.9 2.9 1.8 0 3.1-1.8 3.1-4.5 0-1.5-1.9-2.4-3.7-1.8m-162.9 1.4c-.7 1.2 1.5 3.1 3.1 2.6q1-.5 1.3-2c.4-1.9-3.2-2.4-4.4-.6m96.5 1.8c-1.2 1.7-1.4 1.8-2.4.4-1.7-2.3-4.5-.9-4.5 2.2 0 2.8 2.5 4.4 4.2 2.7q1-1 2.8.1c2.5 1.5 5.2-.8 4.8-4.2-.4-3.2-3.3-3.9-4.9-1.2m28.2-.6c-.9 1.1-.8 1.7.4 2.7 1.9 1.6 4.7.5 4.3-1.7s-3.1-2.8-4.7-1M0 797.8q.1 1 1.5 2.2 1.3 1 1.5.2-.2-1-1.5-2.2-1.3-1-1.5-.2m415.7.8c-1.4 1.4-.7 3.5 1.1 3.2q1.5-.5 1.7-1.7c0-1.6-1.8-2.5-2.8-1.5m9.3.9c-1.5 1.7-.5 3.5 2 3.5 2.2 0 3.5-3 1.8-4.2-1.8-1.1-2.4-1-3.8.7m-250.5 1.8c-1 .8-2.6 1.2-3.5 1-1.9-.5-4.5 2.1-3.6 3.6.8 1.2 9.4.7 10.8-.7 1.2-1.2.7-4.4-.7-4.9-.6-.2-1.9.3-3 1m10.6.5c-.5 1-.6 2.4-.1 3.2.7 1.1 1.1 1.1 2.4.1 2-1.7 2.1-5.1.1-5.1-.8 0-1.9.8-2.4 1.8m199.1-.5q-2 2.5 2 2.7 2 0 1.6-1.7c-.4-2.2-2.2-2.7-3.6-1m-177 1.9q-2.4 2.3.4 3.2c2.1.8 4.5-1.1 3.7-3-.6-1.7-2.5-1.8-4.1-.2m7.2-.1c-.9 1.5 1.2 3.3 3 2.6q1.5-.7 1.6-2.2c0-1.7-3.5-2.1-4.6-.4m54.9 1.4q-.4 1.5-.1 2.1c.9.9 3.8-.8 3.8-2.2 0-1.9-2.9-1.8-3.7.1m94.7 15.2c-8.4.8-9.5 1.8-6.1 5.2 1.7 1.7 1.8 3.1 1.4 15.7-.3 10.1-.9 14.3-1.9 15.5-.8.8-1.4 1.9-1.4 2.2s3.2.7 7 .7c6.6 0 9.3-1.2 5.1-2.3-1.5-.4-2-1.8-2.6-8.1-.4-4.8-.3-8.1.3-8.9 1.6-1.9 9.4-1.4 10.6.7q11.5 19.1 19.9 19.5c2.9.2 1.9-2.9-1.8-5-3.6-2.2-11.5-12.9-11.5-15.8 0-.9 1.6-2.9 3.5-4.4 2.7-2.2 3.5-3.5 3.5-6.1 0-5.2-2.8-7.8-9.1-8.7a68 68 0 0 0-16.9-.2m16 6.2c2.8 5.4.5 8.1-8 8.8l-6 .6v-5c0-2.7.3-5.3.7-5.6.3-.4 3.2-.7 6.4-.7 4.7 0 6 .4 6.9 1.9m-56.7-5c-7.3.7-8.6 1.6-5.4 4 2.2 1.7 2.3 2 1.1 5.7l-2.5 6.9-4 10a35 35 0 0 1-5.2 9.1c-3.1 2.6-2.1 3.4 4.3 3.4 5.7 0 7.6-1.4 4.8-3.4-1.6-1.3-1.6-1.7 1-7.9l2.8-6.5 5.2-.4a16 16 0 0 1 6.7.4c1.9.9 4.2 9.3 3.7 13.5-.3 2.8-.3 2.8 6 3.1q10 .3 4.2-3.6-1.8-1.2-2-2.1c0-.6-.5-2.2-1.2-3.8s-1.1-3.1-1-3.5-.5-3.4-1.4-6.5c-.9-3.2-2.2-8.5-2.8-11.8-1-5-1.6-6-3.6-6.6-2.8-.8-2.4-.8-10.7 0m7.6 10.3c1.6 6.7 1.6 6.8-3.4 6.8-5.6 0-5.6-.1-.9-12.9.8-2.4 3 .7 4.3 6.1m-36.4-9.2c-3.8.4-10.4.6-14.5.4-9.4-.3-11 .1-11 3.2q0 2.5 1.9 2.4c1.1 0 2.3-.5 2.6-1 .8-1.3 6.2-1.3 7 .1.4.5.8 7.2.9 14.7.2 11-.1 14.1-1.3 15.5-1.3 1.6-1.3 1.9-.1 2.7 1.7 1.1 7.4 1.3 11.9.4 3.4-.7 4.1-2.8 1.4-4.3-1.6-.8-1.8-2.8-2-14.8 0-7.6.3-14.3.7-14.8 1.5-1.8 7.7-1.8 8.4 0 .3.8 1.5 1.5 2.6 1.5q2.1.2 2-2.9 0-2.7-1.6-3.5l-1.7-.5zm-57 2.7c-5.3 1.8-6.5 3.1-6.5 6.7s4.7 9.5 7.7 9.7c11.8.6 14.1 1.3 14.9 4.5 1.8 7.1-5.8 12.1-14.1 9.3-3.1-1.1-4.1-2.1-4.9-4.7q-1.5-5.9-4.8.7c-.9 1.8-2.6 4.3-3.7 5.5a9 9 0 0 0-2.1 2.8c0 .3 6.4.9 14.3 1.3 15.1.8 17.8.3 22.1-4 1.9-2 2.1-8.9.3-12.5-1.9-3.8-8.4-7-14.3-7s-7.7-1.5-7.2-5.7c.3-2.6.7-2.8 5.2-3.1 3.8-.2 5.6.2 7.7 1.7 3.5 2.6 4.5 2.6 5.9 0q2.6-4.4-3.1-4.5c-1.9-.1-5.7-.6-8.5-1.1-3.7-.7-6.1-.6-8.9.4m-177.4 1.1c-1.1 2.1.3 5.2 2.5 5.2q1.4-.2 2-1.5.7-1.5 4.5-1.5c3.2 0 3.9.4 4.3 2.2 1 5.1 1.4 14.7.7 21.8-.5 6.6-.9 7.6-3.1 8.7-3.7 1.8-3.2 3.8 1 3.6l8.7-.3c6.3-.2 9-2.4 4.9-4l-2.7-1 .5-15.1c.3-8.4.9-15.5 1.3-16s2.7-.5 5-.2q4.3.5 4.6 2.4.6 1.8 2 1.9c2.3 0 4-2.7 3.3-5.5L99 824H80c-17.1 0-19 .2-19.9 1.8m43.4-.8c-.4.6-.2 1.7.5 2.5q1.1 1.5 1 12.7c-.1 6.2-.2 12.9-.1 15 0 2-.6 4.1-1.4 4.8q-5 4.2 4.7 3.4c3.4-.2 6.3-.6 6.5-.8s-.1-2.4-.7-4.8c-.6-2.5-1-6-.8-7.9l.3-3.4 8.5.3c4.7.2 8.8.7 9.2 1s.9 3.8 1.2 7.6.8 7.2 1.4 7.8 2.7.8 4.8.6c3.3-.3 3.8-.6 3.5-2.3a213 213 0 0 1-.7-19c-.3-16.1-.4-17-2.4-17.7-1.1-.4-3.5-.6-5.3-.5-3.5.3-3.4-.1-1.8 8.7.5 2.5.8 5.6.6 7-.2 2.5-.3 2.5-9.3 2.5-5 0-9.3-.2-9.5-.5-.3-.3-.7-4.3-.9-9l-.3-8.5-4.2-.3c-2.2-.2-4.4.2-4.8.8m44.9.2c-.3.5.2 1.8 1.2 2.9 1.5 1.6 1.7 3.9 1.6 15.9a48 48 0 0 1-1.2 15.5c-2 2.4 1.9 3.4 12.9 3.4h10.3l3.8-4.2c4-4.3 4.4-6.6.8-4.5l-4.2 2.5c-3.2 1.9-11.2 1.7-12-.3-.8-2.2-.8-11.4.1-11.4.4 0 1.7 1 2.9 2.1 3.3 3.1 5.4 1.9 5.4-2.9 0-5.5-2.3-7.2-5.5-4.2-2.7 2.5-2.9 2.3-3.9-4.3-.3-2.1-.1-4.9.4-6.3.8-2 1.6-2.4 5.4-2.4 3.4 0 4.8.5 6 2.1 2 3 4.6 1.8 4.6-2.1v-3.1l-14 .2c-7.8.1-14.3.6-14.6 1.1m271.9 26.5c-2.1.8-1.5 4.2 1.2 5.9 4.1 2.7 8.4-.2 7-4.7-.6-1.9-5.1-2.5-8.2-1.2"/></svg>