<svg xmlns="http://www.w3.org/2000/svg" width="666.7" height="1170.7" viewBox="0 0 500 878"><path d="M307.1 8.4a25 25 0 0 0-2.2 7.8c-.5 3.4-1.5 8.4-2 11.1s-1.3 6.6-1.5 8.9-1.3 5.1-2.4 6.3a9 9 0 0 0-2 5.3c0 3.4-3.7 8.2-6.2 8.2-.9 0-2.3 1.1-3.1 2.4-2.2 3.4-10.6 8.6-13.8 8.6q-2.7 0-5.8-3.5c-3.5-4-3.9-7.5-1.4-12 4.4-8.2 5.2-9.9 4.7-10.7-.7-1.2-3.4 1-3.4 2.8a22 22 0 0 1-3.2 5.9c-4.5 6.4-4.5 11.2.2 16 1.9 1.9 4.2 3.5 5.1 3.5 1.9 0 3.4 3.3 2.4 5-.4.6-.1 1.8.6 2.6 1 1.3 1.4 1.3 2.9-.1 1.7-1.5 1.9-1.4 3.4.7.9 1.2 1.6 3.6 1.6 5.2v2.9l2.4-2.2q5.3-4.9 4.3 4c-.3 2.7-.2 4.9.2 4.9 1.3 0 3.1-5.8 3.1-10.1 0-2.1.5-4.1 1-4.4s1-2.8 1-5.5c0-4.9 1.2-7.1 2.7-4.8 1.2 2 .6 12.7-.8 14.5-1.7 2-3.9 10.2-2.9 10.8.4.3 1.5-.4 2.5-1.5.9-1 2.3-1.6 3-1.4q1.4.3 4.1-4.5 4.4-8.5 6.4-2.5c1 2.4 1.2 2.5 3.2 1.2 2.8-1.9 3.4-3.8 1.3-3.8-1.3 0-1.6-.5-1-2.3 2.2-7.3 1.3-20-2-26.7a76 76 0 0 1-4.5-17.1c0-3.7 1.8-1 2.5 3.8a147 147 0 0 0 6.6 22.8 20 20 0 0 1 1.3 6l.5 4.4q.3.2 1.5-.9c.8-.6 1.6-3 1.8-5.3l.3-4.2 1.8 3.4c1.7 3 1.7 4 .7 9.5-1.9 10.2-8.7 18.7-23.1 28.9-2.4 1.6-2.4 1.6.9.6 1.7-.6 3.2-1.4 3.2-1.9s2.6-2.6 5.8-4.8c13.3-9.3 19.8-23.5 15.4-33.5a134 134 0 0 1-6.4-20.2c-.5-2.2-1.2-10.1-1.7-17.6a87 87 0 0 0-2-15.7c-1.3-2.5-5.2-2.9-7-.8m5.2 13.7c.4 6.3 1.4 14.5 2.3 18.4 2.6 11.2 1.4 13.5-1.8 3.5-5.8-18.8-7.1-35.2-2.5-33.8q1.1.4 2 11.9m-7.4 27.8c1.2 3.8 2.1 7.8 2.1 8.9q-.2 6.2-4.4-3.3c-2-4.7-2.6-7.2-2.1-9.5.4-1.6 1-3 1.5-3s1.7 3.1 2.9 6.9m-5.4 7.2a15 15 0 0 1 1.3 7.7l-.3 4.7-1.3-4.5-2.1-7.2q-1.1-3.6.5-3.8c.2 0 1.1 1.4 1.9 3.1m-9.1 5.3c1.3 5.3-3.1 9.6-11.1 11-2.8.5-3.3.2-3.3-1.4 0-2.2 1.6-3.5 2.5-2 1 1.7 2.5 1.1 2.5-1 0-2.5.8-2.5 3.3-.3 1.9 1.8 2 1.7 1.3-1.1a6 6 0 0 1 .9-5.2q2.9-4.5 3.9 0m17.2 10q1 4.5-2.2 4.6-1.4 0-1.4-2.8c0-4.7 2.5-5.9 3.6-1.8m-19.1 3.5c0 2.4-2.8 5.1-4 3.9-.4-.4-.4-2.1 0-3.8.8-3.8 4-3.9 4-.1m12.5 3.9c0 3.5-2.8 7.8-4.2 6.4q-1.1-1 .8-5.5 3.2-7.3 3.4-.9M180.6 13.9c-.4.5-.4 1.6-.1 2.3.3.8-.1 4.8-.9 8.9a277 277 0 0 0-5.9 43.4c-.2 9.8-.1 10.2 3.3 15.9 1.9 3.3 5.7 8.1 8.3 10.8 6.6 6.6 17.7 12.1 17.7 8.7 0-.5-1.9-1.9-4.3-2.9-6.4-2.9-9.4-5.5-15.8-14.3-6.9-9.5-7.4-11.8-5.9-27.7 2.2-23.9 3.1-28.2 5.8-27.8q1.6.3 2.5-3.2c1.5-5.7 2.9-9 3.8-9 1.5 0 1 3-1.6 11.3a53 53 0 0 0-2.5 10.3 13 13 0 0 1-1.4 5.2c-1.8 3.6-4.2 18.5-3 18.9 3.2 1.1 3.7 2.3 3.5 9.3-.1 5.4.2 7.1 1.1 6.7.7-.2 1.3-1.9 1.3-3.8.1-6.4 2.8-10.4 4.1-6.2.3 1 1 2.6 1.5 3.5 1.4 2.6 1.1 5.5-.6 6.2-1.5.5-1.5 1.8.2 7.8.6 2.4 2.3 2.3 2.3-.1 0-1.1.5-2.3 1-2.6s1-4 1-8c0-7.3 2.2-15.5 4.1-15.5 1.4 0 1.1 5.2-.7 10.3-1.8 5.3-1.6 9.2.6 9.2.8 0 1.9-1.4 2.3-3l2-5.5 1.1-2.5.4 2.7c.4 3.4 1 3.5 5.6.3 4.5-3.1 4.8-3.1 4.4-.3q-.3 2.3-2.8 2.6c-3.1.5-7 4-7 6.4q.1 1.9-2.6 1.8c-4.7 0-9.5 4.4-7.8 7.2q.7 1 2.3-2.3c1.8-3.9 4.4-4.5 4.9-1.2.4 2.7 1 2.8 4 .7 1.3-.9 2.2-2.6 2.2-4s.5-3.4 1-4.5c1.5-2.6 4.4-1 5.9 3.2 1.4 4.2 3.1 2.8 3.1-2.7 0-4.4 1.2-5.8 2.4-2.7 1.1 2.7 2.8 0 2.4-3.8-.2-2.8-.7-3.5-2.9-3.7a9 9 0 0 1-4.5-2.3c-.9-1-2.3-1.9-2.9-1.9s-2-1.1-2.9-2.5-2.5-2.5-3.5-2.5c-3.4 0-5.2-3.2-4.5-8.3.6-4 .3-4.8-2-7.2-1.4-1.4-2.6-3.4-2.6-4.5 0-1-.4-2.2-1-2.5s-1-2.8-1-5.4-.5-5.2-1.1-5.8c-.5-.5-1.1-3.3-1.1-6.2-.2-5.7-.9-6.6-5-6.3-1.4.1-2.9-.2-3.3-.8-.8-1.2-4.2-1.3-4.9-.1m12.4 21c0 1-1.6 5.3-3.6 9.6a68 68 0 0 0-4.1 11.1c-.3 1.9-.8 3.2-1.2 2.9-1.2-1.3.2-8.3 2.9-14.1 1.6-3.3 3.2-7.2 3.5-8.7.8-3.1 2.5-3.6 2.5-.8m1.5 10.8a14 14 0 0 1-2.6 5.9 9 9 0 0 0-1.9 5c0 1.7-.7 3.9-1.5 5-1.3 1.7-1.4 1.6-.9-2.1.3-2.2 1.7-7 3.1-10.8 2.7-7.3 5-9.1 3.8-3m1.5 8.5a64 64 0 0 1-1.3 7.7c-1 4.3-1.5 5-2.5 3.9q-1.5-1.9.4-11.6.5-2 1.9-2.2 1.4.1 1.5 2.2m10.7 12.4c-.9.9-2.8-.6-2.1-1.8q.6-1 1.7.1 1 1 .4 1.7m4.8 4.4q-.8 1.1-1.7.2-.9-1.1-.3-2.2.8-1.1 1.7-.2.9 1.1.3 2.2"/><path d="M265 35.3c-4.5 2.5-6.9 3.1-15 3.7-8.5.6-10.2.4-15.9-1.7-9.9-3.7-12.2-1.2-5.2 5.6q6 6 6.1 14.9 0 3.4 1.3 3c2.2-.8 1.9-6.5-.7-13a27 27 0 0 1-2.2-6.5c.2-.2 1.6.1 3.1.7q2.6 1 2.2 2.4c-.8 2 1.5 7.6 3.1 7.6.9 0 1.1-1.2.6-4.8l-.6-4.9 8.5-.6c5.9-.4 10-1.3 13.4-3 3.8-1.8 5.4-2.1 7.1-1.4 1.8.8 2.5.6 3.7-.9 3.5-4.6-1.9-5.3-9.5-1.1"/><path d="M261.6 44c-2.9 3.5-4.2 7.3-3 9.1 1 1.7 3.4-1.8 3.4-5a7 7 0 0 1 1.7-4.3c.9-1 1.4-2.1 1.1-2.3-.3-.3-1.7.8-3.2 2.5m-8.2 1.5c-.8 2 .3 4.8 1.6 4s1.3-5.5 0-5.5q-1 .2-1.6 1.5m-7.4.4c0 2 1.3 4.1 2.1 3.5 1.5-.9 1-4.4-.6-4.4q-1.4 0-1.5.9m11 17.5q.1 1.5 1.6 1.6c1.7 0 1.4-2.2-.4-2.8q-1.1-.2-1.2 1.2m-18.4 3.5q-1.6 1.8-.7 2.5c.5.4 1.5-.3 2.1-1.5 1.5-2.8.7-3.4-1.4-1m-8 5c-.8 1.2.3 4.1 1.5 4.1s1.2-3.7 0-4.5q-.9-.4-1.5.4m-1.3 11.4a6 6 0 0 0-2.9 3.1c-.4 1.2-2 3.3-3.7 4.7q-3 2.6-2.4 4.3.7 1.5 1.7 1.1 1-.7.4-1.6c-1.2-1.9 1.7-3.8 4.8-3.2 2.7.5 2.9.4 2-1.3q-1.7-3.5 1.6-6.1c2.1-1.7 1.2-2.3-1.5-1m43.7 4.1c0 .7.6 1.9 1.4 2.5 1.9 1.6 3.2-.5 1.6-2.4s-3-1.9-3-.1M209.5 94q-.4 1 1 1.6c1.9.8 3 0 2-1.5-.8-1.4-2.2-1.4-3-.1m74.6-.1c-1.6 1-.6 3.1 1.5 3.1q2.4 0 .6-2.7-.7-1.1-2.1-.4m-77.5 2q-.6 1.2-.2 1.8c.9.9 1.9-.4 1.4-1.8q-.4-1.6-1.2 0m63.4 0q.1 1 1 1.6 1 .4 1-.9 0-1.5-1-1.6-.9 0-1 .9m-2 8.1q.2.9 2.8.9 3.5.2.7-.9c-2.7-1.2-3.5-1.2-3.5 0m-61 1.9c0 1.4 9.6 2.9 13.7 2.1 3.7-.6 3.7-.7-2.2-1.4l-8.7-1.1c-1.6-.3-2.8-.1-2.8.4"/><path d="M229.2 105.7c-1.8.2-3 .8-2.7 1.2.2.5 2.5.6 5 .4 4.1-.5 4.5-.3 5.4 2 .5 1.4 1.4 2.8 2 3.1q.9.6 0 4.1c-1.1 3.9-.2 6.3 3.9 10.7 3.1 3.4 2.5 5.1-2.6 6.6a31 31 0 0 0-14.9 14.3 25 25 0 0 0-1.5 20.1c2.2 6.1 2 6.8-1.4 6.8-2.5 0-2.8-.8-3.9-13a46 46 0 0 0-8.6-25.6 29 29 0 0 1-3.9-8.9c-4.3-15.2-14.4-20.7-28.3-15.5-6.1 2.3-8.6 4.7-11 10.5-3.8 9.3-4 11.9-3.7 60a4641 4641 0 0 1 0 123.5l-.1 26c-.1 1.4.2 13.7.6 27.5.7 26.9.7 30.1-.1 32.7q-.3 1.5.6 2.3c1.2.7 1.4 14.1.2 14.9-.4.2-6.3-4-13.1-9.5-14.5-11.5-34-24.9-39.1-26.6-1.9-.7-6-1.3-9.1-1.3-5.3 0-5.9.3-10.3 4.3-3.9 3.7-4.6 4.9-4.6 8.1 0 5 3.3 9.6 10.9 15.2 6.6 4.9 7.4 6.7 3.9 8.5-1.3.6-3.2 2-4.3 3-1.2 1-3.8 2.2-6 2.7-3.2.6-4.3 1.5-6.2 5.1-5 9.5-1.7 15.2 10.9 19.1a209 209 0 0 1 64.3 29.8l4 2.8V503l-.5 67c-.3 19-.4 37.9-.3 42a656 656 0 0 1 .5 30.5c0 3.8 0 16-.2 27l-.4 32.9-.1 13-4.5.2c-5.2.3-67.1-1.5-71.5-2-6.4-.7-20.2-3.6-24-4.9-2.2-.8-9.8-1.8-17-2.2a76 76 0 0 1-18.5-2.6c-5.7-2-11.1-2.3-22.2-1.2-5 .4-6.8 1-6.8 2 0 1.2 1 1.3 5.3.8 12.8-1.8 22.1-.3 29.7 5 4.7 3.2 23.5 7 25.8 5.2 2-1.6-1.3-3.7-5.7-3.7-2 0-4.3-.5-5.1-1-1.8-1.2 9.6-.2 12 1 .9.5 5.1 1.6 9.5 2.5 16.2 3.3 12.5 3.8-32 3.8H0v7.7h6.1c8.1 0 7.7 2.4-.4 2.8l-5.7.3v9.5c0 9.4 0 9.5 2.8 10.5 1.5.6 4.2 1.2 6 1.4 6.4.5 4.6 1.7-2 1.3l-6.8-.4v6.2c0 6.6.6 7.2 7.5 8.7 1.1.3-.1.5-2.6.6l-4.7.1v4l-.1 4 11.2.1c8.7.1 10.5.3 8 1-1.8.5-3.3 1.6-3.3 2.4 0 2-3.6 1.9-4.4 0-.4-1.1-2.1-1.5-6.1-1.5-4.2 0-5.5.3-5.5 1.5q0 1.5 2.8 1.5 2.9 0 1.3.9-1.4.8-2.8.4-1.3-.7-1.3 3.6v4.2l3.1-2.3c2.6-1.9 4.5-2.3 13.4-2.6 9.4-.4 10.7-.2 14.5 1.9 4.5 2.6 5 5.2 1 5.7s-9 2.3-9 3.2c0 2.1 4 3.1 6.7 1.7 3.6-1.7 9.7-.7 12.5 2.1 2.7 2.7 1.3 7-3 9.5-3.2 1.9-3.5 1.9-35.9 2.6q-3.2.2-3.3 1.5c-.1 1.3 1.9 1.5 5.7 1.9 6 .7 131.5 0 154.8-.8 7.2-.2 51.9-.7 99.5-1s96.6-.7 109-1 46.9-.5 76.8-.5c53.1-.1 54.2-.1 54.2-2s-.8-2-12.7-2.1h-18.7q-11.4.3-13.4-4.4c-1-2.1-.9-2.8.8-4.5 2.2-2.2 2.6-2.3 12.6-2.4 5.6-.1 7.7-.5 9.3-2q2-1.8 2.1-2.6c0-1-4.7-3-7-3-2.6 0-2.6-1.6 0-2.3q2-.5 2-3.1-.1-2.7 2.4-3.2c5.8-1.4 6-.9 6.8 12.5.4 6.7.9 12.6 1.3 12.9.3.4 1.4.1 2.3-.4 1.3-.8 1.8-2.8 2-7.7.3-6.2.4-6.6 2.9-6.9 3.7-.4 5.3-3.3 3.1-5.4-1.4-1.5-1.9-1.5-3.3-.4s-1.8 1.1-2.6-.1c-2.8-4.4 2.2-5.4 7-1.3l3.1 2.6v-33.9l-2.9.5c-3.8.5-4.9-1.4-1.3-2.4 1.5-.4 3-.7 3.5-.6s.7-1.4.7-3.4c0-2.8-.3-3.5-1.5-3-.8.3-2.5.1-3.7-.4q-3.4-1 .7-1.1h3.8c.4 0 .7-1.7.7-3.8v-3.9l-18.2-.4c-10.1-.2-18.7 0-19.2.4-1.7 1.3.3 2.1 4.8 2 2.4-.1 5.5.2 6.8.7 1.7.7.3 1-5.9 1-6.9.1-8.1-.1-7.7-1.4q.6-1.3.3-1.6l-17.1-.8c-15.6-.7-19-1.2-17.6-2.7.5-.5 30.5-.6 58.8-.2l11.3-.1 3.7-.1v-14.8l-4.2-.6c-6.2-.8-75.9-.8-99.3 0-45.6 1.6-45.5 1.6-45.6.2l-.5-10.3c-.3-4.9-.9-9.4-1.4-9.9-.9-.9-1.5 1.5-1.2 5.4.6 9.2-.1 22.3-1.8 31-.6 3.6-1.2 7.2-1.2 8 1 30.7 1 31-.8 30-1.6-.8-1.7-2.4-1.2-17.7a413 413 0 0 0-.1-37.8c.2-14.6.3-52.5.1-60.5l.2-35 .2-68.5c-.1-31.1.2-55.4.7-58.8q.1-.7 1-.3c.9.4.9 15.3.9 33.6.1 19.4.5 34.4 1.1 36.3.5 1.8 1 4.3 1 5.7.2 16 .2 34.5.2 72l.1 10c.2 7.4.2 9-.4 21.7-.4 9.1.4 12.1 1.9 6.6.7-2.7.7-39 0-54.8-.2-4.4 0-9 .4-10.2.9-2.4 1-7 .5-17.6-.1-3.7 0-6.7.4-6.7s1.5.9 2.6 2.1c4 4.5 10.2 6.4 20.5 6.4 6.7 0 10.1-.4 11.3-1.4q1.5-1.2 1.9-1l3.2 4.7c4.7 7 15.3 15.5 24 19.1 17 7.1 38.5 6.2 55.3-2.3 6-3 9.9-6.2 8.9-7.2-.4-.4-2.4.2-4.5 1.5-10 6-25.6 10.2-35.2 9.5-17.9-1.3-29.3-5.7-38-14.8a43 43 0 0 1-12.6-21.5 29 29 0 0 1-2-12.4c.8-4.8 1.4-5.9 2.7-5.1q1 .6-.2 2c-1.6 1.9-.5 13.3 1.6 17.4q1.6 3 3.9 3c1.9 0 3.1 1.2 5.4 5.2a34 34 0 0 0 15.1 13.7c4.2 2.2 7.1 2.2 7.1.1 0-.6-1.3-1.6-2.8-2.3-1.6-.7-5.2-2.8-8-4.7-5-3.4-8.5-8.9-13.1-20.3q-1-2.5-3-2.7c-1.4 0-2-.9-2.4-3.8-.6-5.4.6-7.2 5.1-7.2s12.5-2.1 16.7-4.2c4.5-2.4 8.7-6.6 8.3-8.5-.5-2.8-2.6-2.6-4.2.6q-1.7 3-7.2 5.7a25 25 0 0 1-13.8 2.8c-9.4.1-14.5-1.9-22.1-8.6-10.9-9.6-15.5-22.5-12.1-33.9a40 40 0 0 1 11.6-18.7c4.3-2.9 6.4-2.9 2.3 0-2.7 1.9-5.3 5.6-5.3 7.3 0 1.6 4.2.1 5.5-1.9 1.9-2.8 8.8-7.6 11-7.6 1.7 0 2-1.6.4-2.6q-1.2-.6.2-1.5c2.4-1.6 10.1.3 14.6 3.5 3.8 2.6 4.3 3.4 3.8 5.6-.4 1.4-.9 5.5-1.2 9.1-1.2 14.9 7.6 29.9 20.3 34.8a36 36 0 0 0 9.4 2.1c3 0 4 .4 4.5 2.1 2.1 6.4-4.2 15.6-12.5 18.4-5.6 1.9-9.1 1.3-13.8-2.2q-3.4-2.6-4.5-1.4c-1.6 1.6 1.5 4.5 6.4 6.1 3.3 1.1 5.1 1.1 10.2.1 11.4-2.4 16.1-6.5 17.8-15.7 1.6-8.3 1.6-8.4 3.5-8.4 1.7 0 12.5-5 15.6-7.2 1.3-.9 2.1-.8 4 .5 9.6 7 10.1 7.2 16.2 7.3 5.6.1 6.1.3 6.4 2.5.2 1.3 1.4 3.5 2.6 5 2.4 2.9 3.8 12.7 1.5 11.4-1.7-1.1-2.9 1.4-2.9 6.2q0 6.7 3.9 3.1c1.1-1.1 1.2-.7.6 2.2a54 54 0 0 1-10.7 19.7c-4.3 5.5-4.7 6.4-3.2 7 2.4.9 10.9-8.4 15.2-16.8 3.1-6.2 3.2-6.8 3.2-18.8 0-12.3 0-12.4-3-15.8-3.8-4.3-3.8-6 0-8.1 2.7-1.6 3-2.2 3-7.1 0-5.1-.1-5.3-2.2-4.7-1.3.4-3.6.9-5.3 1.2-6.7 1.2-7.6 1.5-7 2.4.3.6 1.8 1 3.3 1q3.4 0 .9 1.1c-2.7 1.6-11.2.1-15.3-2.8-2.9-1.9-3.9-2.1-4.5-1.1-1.8 2.8-2-2.1-.2-5.4 1.3-2.3 1.8-5.4 1.8-10.8-.1-6.6-.4-8.2-3.2-13q-5.2-9-12.4-9c-2.9 0-3.8-1.3-1.9-2.5 1.7-1 0-2.6-2.1-2q-1.8.5-1.9-.4c0-.6 1.8-1.1 4.1-1.1s3.8.4 3.4.9q-.4 1 .6 1.7c.6.4 1.6-.1 2.1-1s3.3-2.7 6.2-4.1c6.7-3.2 13.8-8.3 13.1-9.5-.3-.4-3.1.9-6.3 2.9q-9.2 6.1-14.8 6.1-6 .1 3.9-4.4a71 71 0 0 0 24.2-23.5 44 44 0 0 0 5.1-31.2 94 94 0 0 0-12.3-28.9 35 35 0 0 0-16.4-9.3c-2.4-.6-10.1-8-12.5-12.3q-1.2-2-2.4-.8c-.9.9-.8 1.8.3 4.1 2 3.7 9.7 10.9 12.8 11.8 9.8 2.8 15.3 7.8 19.8 17.8 11.2 25 9.1 42.9-7 60.1a44 44 0 0 1-23.5 13.6l-4.4.7 4.9-5.2c6-6.3 11.5-17 13-25.1 3.1-16.2 2.4-33.9-1.6-40.3-2.6-4.1-3.6-1-1.8 5.8a77 77 0 0 1-9.2 54.4c-3.3 4.8-13.6 11.7-17.5 11.7-4.5 0-3-1.9 3.9-4.8 9.5-4.1 15-12.6 19-29.1a63 63 0 0 0-10.6-50.1c-2.6-3-3-3.3-3.6-1.7q-.7 1.8 1.9 5.6a69 69 0 0 1 10.1 28.6c1 11.8-2.6 26.1-9.3 36.8-3.5 5.7-13.6 10.2-20.7 9.2-7.8-1.1-8.4-1.1-8.6 0 0 .5 2 1.7 4.5 2.5 4.1 1.4 4.6 1.8 4.6 4.6 0 6.9-9.3 9.8-16.7 5.3-5.6-3.5-6.3-8.9-1.7-13a70 70 0 0 1 16.9-8.4l3.2-.4c2.8-.3 8.7-6.9 12.1-13.5 3.5-6.8 3.7-7.6 3.7-17.1 0-14.6-4.1-25.7-14.1-38-7.2-9-10.6-16.1-9.8-20.4.6-2.7 1.6-3.7 6.3-5.9a21 21 0 0 0 12.5-16.4c.8-6.3-.1-9.3-4-12.9-5.7-5.3-14.2-3.9-17 2.7-2.3 5.4.9 9.4 7.5 9.4 4.1 0 4.1-2.6.1-3.5q-3-.7-3-2.6c0-5.9 4.8-7.7 9.7-3.5 2.6 2.2 2.8 3 2.6 8.6q-.3 11.2-8.5 14.5c-3.4 1.3-4.2 1.3-9.4-.5a41 41 0 0 1-7.2-3.2c-2.5-2.1-5.2-9-5.2-13.6 0-3.8.2-4.3 1.9-3.7 1.4.4 2.4-.3 4-3.1 1.2-2 2.1-4.6 1.9-5.8-.2-1.7.6-2.4 4.2-3.6q8.6-3 2-3.8c-7.9-.6-17.9 9.4-18.8 18.8-.6 6.1.1 8.6 3.3 13.4l2.5 3.8-3 2.8c-1.6 1.5-3 3.3-3 3.8q0 1.1-.6 2.5c-.3.8.6 2.8 2.1 4.5l2.5 3-5 4.5a67 67 0 0 1-9.6 7.1l-4.5 2.5-5.3-4.3a47 47 0 0 0-22.1-10.1c-4.2-1-7.9-2.3-8.1-3-.3-.7-.5-2.8-.5-4.6 0-24-.1-31.4-.5-36.9-.3-3.6-.5-17.5-.4-31l.1-61.5c0-20.4.1-37.9.2-39v-21a101 101 0 0 0-2.3-28c-2.9-11.8-5.2-16.2-9.6-18.2-3.5-1.7-4.4-3.4-4.2-8.8a73 73 0 0 0-3.6-20.4c-3.4-6.5-12.8-9.1-18.1-4.9a45 45 0 0 0-9.5 20.2c-.7 3.2-1.6 5.4-2.1 5-.6-.3-.8-1.3-.4-2.2.3-.9.3-5.2-.1-9.5-.6-6.9-1.1-8.4-3.6-11.3q-3-3.4-5.7-3.4c-6.2 0-8.5 4.6-9.6 19.5-.9 12.1-.9 12.1-5.6 8.1a34 34 0 0 0-8.7-5c-8.9-3.2-9.2-3.9-4.1-10.9a15 15 0 0 0 2.9-6.6c0-4.6-2-10.1-3.7-10.1q-1.7-.1-.9 2.2a51 51 0 0 1 1.2 6.8c.5 4.1.2 5-3 9.1a31 31 0 0 0-4.2 7.4l-.7 2.7-1.1-3.3c-.7-1.9-2.7-4.9-4.5-6.7-3.2-3.1-3.3-3.6-2.8-8.7q.6-5.6-.7-6.2a7 7 0 0 1-1.9-2.6c-.6-1.7-2.8-1.9-10.5-1m-36.3 9.5c4.8 2.8 8.1 7.5 8.8 12.7.5 3.7.3 4.1-1.6 4.1-1.7 0-2.1-.6-2.1-3 0-12.2-14.7-15-23.3-4.5-5.1 6.3-5.1 5.9-5 40.5.1 17.9.4 34.2.8 36.3s.8 11.4.9 20.9c.1 12.3.4 17.2 1.3 17.5q1.2.4 1.5-4.4c.3-4.5.4-4.6 1.4-2.3 1.3 2.8 4.1 13.9 5.4 21.5.9 5.3 1.5 22.7 2.5 70 .3 15.9.9 37.1 1.3 47 .7 17.8.7 18-1.6 19.9-2.2 2-4.2 7.2-4.2 11.3 0 1.2 1.6 3.8 3.5 5.8 3.4 3.3 3.6 3.9 3.3 9.2-.2 3.1-.8 5.8-1.4 6s-2.7-1.1-4.8-2.9c-3.7-3.3-3.8-3.5-4.2-11.3l-.4-9.5c0-8.6-.2-13.9-.9-21.5-.4-5-.6-18.5-.3-30s.4-23.9.4-27.5c-.7-39-.7-52.2-.2-62 .7-11-.1-17-2.1-17-.5 0-1 2.8-1 6.2l-.5 16.8c-.6 19.1.1 112.6 1 129 .6 10.9.7 12.5.6 14.2-.1.7.1 4.2.3 7.8s0 7.1-.6 7.7-.6 2.7-.3 4.5c1 5.3 1.3 16.2.4 18-.4.9-.3 2.9.2 4.4 1.2 3.2 1.4 19.3.5 56.9-.4 14.8-.6 38-.5 51.5.4 90.5.3 121.5-.4 143.5-.2 7.1.1 14.5.6 16.3q.9 3.3 0 6c-.6 1.7-.6 7 0 14.3.7 8.5.6 12.8-.2 16-1.7 6.1-2.1 13.8-.9 16.1.6 1 .7 2.7.4 3.8-.5 1.7-.7 1.7-3.1-.7-2.9-2.9-5.9-2.7-5.8.5.1 2.3-1 2.9-2.1 1.2-1-1.7-10.6-1.2-12.7.7s-2.3 1.8-3.2-1.9l-.6-2.8h7.4c7.3 0 10.4-1.3 7.5-3.1-2.1-1.3-14.3-1.1-15.7.3-.8.8-2.5.7-6.6-.6a73 73 0 0 0-37.1 1.1c-3.2-6.2-2.4-9.2 1.9-6.3 3.5 2.3 19.2 2.3 22.4 0 2.1-1.5 2.5-1.5 4.2.1 1.5 1.4 4.4 1.7 18.2 1.7 12.1.1 16.8.4 18.4 1.5 3.3 2.1 4.1 0 4.3-11.1a63 63 0 0 1 .7-10.7 226 226 0 0 1-1.3-44.5c.3-.6.2-2.6-.3-4.3-.7-2.4-.5-4.1.7-6.6 1.2-2.6 1.3-3.9.5-6.4-.8-2.3-.8-3.8 0-5.6s.8-3.2-.1-5.4-1-3.4-.1-5.1.8-3 0-5.5-.8-4 0-5.5c.6-1.1.8-2.5.5-3-1-1.6-1.3-15.4-.4-16.5.4-.6.4-3.9-.1-7.4a18 18 0 0 1 .2-8.7q1.2-2.4.1-4.7c-.7-1.4-1-30.4-1-82.9a3231 3231 0 0 0-1.1-98c.2-17.4.1-43.4-.6-105.8l-.6-47.5.3-76c.3-75.7.2-73.9 4.6-83.5a16 16 0 0 1 11.6-7.4c1.9-.2 3.8-.6 4.2-1 1-1 2.2-.7 6.2 1.6m128.5 1.9c1.4 1.7 2.6 3.8 2.7 4.7.4 6.3.8 10.5 1.8 15.7 1.1 6.3.6 7.5-3.2 7.5-1.5 0-1.8-.8-1.7-4.8.3-11-2-18.2-5.8-18.2-2.4 0-3.3.9-6.5 5.8-3.6 5.5-5.4 17-7 45.1-.9 16.8-1.5 21.5-2.6 21.9q-1.6.7-.6-1.4c.5-1.1 1-7.8 1.1-14.9.7-34.7 3.5-52.2 10-62.3 2.3-3.5 8.5-3.1 11.8.9m-31.4.4c2.2 2.3 2.4 3.6 2.7 12.3.1 7.6 0 8.8-.7 5.7-.5-2.2-.9-5.5-.9-7.4-.1-5.9-5.3-9.5-7-4.9-.8 2.4-.4 47.6.6 55.7.8 6.8-.5 16.1-2.3 16.8-2.7 1-3.1-1-2.3-10.2.4-5.7.3-9.4-.3-10.2q-1-1.2.7-5.8a21 21 0 0 0 1.1-11.3 117 117 0 0 1-.7-27.4c1.1-14.8 3.9-18.9 9.1-13.3m-102.5 4.7c1.5.7 3.3 2.4 4.1 3.9 2.4 4.8 1.8 7.2-3.1 11.2-7.6 6.4-7.9 7.6-8 28.3 0 15.8-.2 18.3-1.8 19.8-.9 1-2.2 2.7-2.8 3.8q-1 1.7-1.6 1.4c-.3-.2-.5-12.3-.4-26.7 0-23.9.2-26.7 2.1-32.5 1.3-3.9 3.2-7.2 4.7-8.4 3-2.3 3.4-2.4 6.8-.8m100.7 19.3c-.5 2.3-.8 1.1-1.3-5a37 37 0 0 1-.1-9c1-1.5 2.2 10.5 1.4 14m28.6-2.1c.2 9.1-.1 12.2-1.1 13.5-2.2 2.5-4 8.9-4.6 16.6-.6 7-1.8 8.7-4.7 6.7-1.6-1 .1-32 2-37.6 2.6-7.6 4.9-11.7 6.6-11.4 1.2.3 1.5 2.4 1.8 12.2m-111.5-1.2c6 4.2 9 15.7 10.4 39.9.9 13.7.7 15.9-1 15.9q-1.2.1-1.2-8.2c-.1-16.2-1.7-32.1-3.7-36.8-2.2-5.4-3.8-6.5-10.4-7.4-4.4-.7-5.2-.5-7.2 1.7-3.2 3.3-4.1 14.7-3.5 40.7.3 11.3.6 39.6.7 63s.5 49 .9 57c1.5 30 2.4 80.5 1.8 95.5a15375 15375 0 0 0 2 246.5v21c.4 24.9.3 38-.5 69-1.1 45.3-.9 42.6-3.7 42.2-2.1-.3-5.7-.6-12.1-1.1q-1.6-.2-1.2-1.5c.4-1.1 1.7-1.3 5.4-.9 2.7.3 5.6.3 6.6-.1 1.6-.6 1.5-.8-.2-2.7-1.4-1.6-2.8-1.9-7.3-1.7l-5.6.3v-11.4l4.3.6c3.5.5 4.2.3 4.2-1.1q.2-1.7-3.4-1.6c-1.9 0-3.6-.6-3.9-1.3q-1.2-3.7 3.9-3.7c3.2 0 3.3-.1 3-3.8-.3-3.3-.7-3.7-3.5-4q-3.3-.2-4.1-2.8c-1.1-2.8-.2-11.4 1.2-11.4q.8.2.3 2c-.7 2.3 1.5 3.6 4.2 2.5 1.7-.6 1.7-.7 0-2-1.8-1.3-1.7-1.4.5-1.7 4.2-.6 2.7-3.3-2-3.6-3.4-.3-4.3-.7-4-2q.3-1.7 3.8-2a11 11 0 0 0 5.1-1.8q3.2-2.9 2.2 3.2c-.4 2.7-.2 3.4 1 3.4.9 0 1.9-.5 2.2-1 .6-1 .6-123.5 0-196.5l-.5-86a2452 2452 0 0 0-1-72 3981 3981 0 0 1-1.5-95.5c-.3-42.6-1-82.9-1.5-89.5-2.2-27.7-2.3-34.8-.6-39.4 2.2-6.1 6.2-11.1 8.9-11.1a8 8 0 0 0 3.6-.9c1.7-1.1 3.5-.5 7.4 2.1m58.3-.6c6.5 3.4 8.9 5.7 11.5 11.3 2.9 6.1 2.9 16.2.1 21.8-8 15.6-27.2 19-40.6 7.1-12.2-10.7-9.2-32.3 5.6-39.9 4.7-2.4 6.5-2.4 7.8.1.9 1.6 1.5 1.8 3 1q1.8-1.1 2-2.5c0-2.3 5.1-1.8 10.6 1.1m24.6 12c.2 1.9 0 3.7-.4 4s-.8-1.3-.8-3.5q.2-7.7 1.2-.5m-91.9 1.1c4 24.8 3.9 27.7-1.1 27.1l-2.7-.3V164c0-7.4.3-14.3.7-15.3 1.2-2.8 2.5-2 3.1 2m9.2-.1A96 96 0 0 1 208 182c-.5 1-1 3.2-1 4.7 0 1.6-.6 3.7-1.3 4.7-1.2 1.6-1.4 1.6-2.6.2q-1.3-1.6-.6-4.3c1-4.1 1.1-24.7.2-33.1q-1.3-12 2.8-3.6m127.5-.1c3 1.6 5.4 6.7 8.6 18.6 1.5 5.8 2 22.7 1.2 42.9-.1 1.9 0 6.2.3 9.5s.2 8.9.1 12.5l-.4 40c-.2 34.9-.4 51.5-.7 54q0 1.8-1.2-.2c-.9-1.6-1.4-57-.6-69.8.2-3 0-13.2-.6-22.5a959 959 0 0 1-1.2-31c-.5-20.1-2.3-39.1-3.9-42.3-4.7-9.1-13.6-8.9-16.4.5-1.4 4.9-3.4 21.4-3 25 .2 1.5-.1 2.8-.7 2.8q-2.1 0-.5-16.9c1.3-13.3 2.6-17 7.2-21.1 4.2-3.8 7.3-4.4 11.8-2m-41.3 13.7c-.2 1.3-.4.3-.4-2.2s.2-3.5.4-2.3a17 17 0 0 1 0 4.5m33.6 5.5-.3 8.7q-.1.8-1.3-.3-1.4-1-1.1-7.3l.4-7.6q.1-1 1.3-1.2c.9 0 1.1 2.1 1 7.7m6.1-4c1.2 3 2 17.3.9 17.3-2.4 0-3.3-2.8-3.3-10.7s1-10.4 2.4-6.6M295 178q1.8 1-1.7 1c-1.8 0-3.3-.5-3.3-1 0-1.3 3-1.3 5 0m-68.3 1.6q-.6.5-1.9.1-1.1-.5.6-.6t1.3.5m11.5 5.6c5.5 2.9 7.1 3.3 14.2 3.3 6.8 0 9-.5 13.7-2.8q5.6-2.7 7.5-2 2.5.8-1.4 1.3c-1.8.3-3.3.9-3.3 1.5s1.5 1.3 3.3 1.6c3 .6 2.8.7-1.7.9-7.5.4-7.5.4-7.5 1.5 0 .6 2.8 1.3 6.2 1.6l6.3.6-6.5.2c-3.6.2-9.2.2-12.4.1-5-.2-6.2.1-7.5 1.9-1.5 1.9-2.1 2-5.6 1.2q-3.7-.8-1.7-1c1.2-.1 2.2-.5 2.2-.9 0-.8-15.6-2.5-21.3-2.4q-1.5 0-1.2-.9c.4-.5 3.1-.9 6.1-.9q5.3 0 4.9-1c-.3-.6-2.8-1-5.6-1s-4.9-.5-4.9-1 2.3-1 5-1 5-.5 5-1c0-1-1.3-1.3-6.7-1.3-1.8.1-3-.3-2.7-.8 1.3-2.1 9.4-.9 15.6 2.3m55.8.8c-2 1.3-5 1.3-5 0 0-.6 1.5-1 3.3-1q3.5 0 1.7 1m-112.5 10.8c-.3.3-1.3-.1-2.1-1-1.3-1.3-1.4-1.9-.3-3.9l1.3-2.4.8 3.4c.5 1.8.7 3.6.3 3.9m149.5-2.3c0 4.9-12.5 9.8-34 13.1-22.5 3.4-46.4 3.2-84-.7-12.9-1.4-20-4.6-20-9 0-2.6.9-2.8 7-1.7 19.7 3.6 53.3 4.5 91 2.3l18.6-.9c8.7-.3 10.8-.7 14.5-2.9 5.6-3.2 6.9-3.3 6.9-.2m-97 1.1q-.2.3-2.1.4-1.8 0-1.4-1c.5-.8 3.5-.3 3.5.6m-58.7 3.7q-.6.7-1.4-.4-.6-1.2-.2-2.2.6-.7 1.4.4c.4.7.5 1.7.2 2.2m23.3 9.5q-1.7.3-2.8-.6t1.9-.4q3 .7.9 1m119-.7c.3.6 1.7.9 3 .6 3.3-.6 1.9 1.1-1.7 2-1.6.5-3 1.2-3.2 1.8-.4 2 4 1.5 9.7-1 3.2-1.4 6.1-2.4 6.4-2.1.8.8-1.9 3.6-5.1 5.3-3.7 1.8-2.3 3.9 1.6 2.4 4-1.6 4.1.3.1 2.3-3 1.4-3.4 1.9-2.4 3.1s.7 1.7-1.4 2.6c-3.9 1.8-3.2 3.2 1.5 2.6q7.2-.9.1 3.9c-2.4 1.7-2.8 2.4-1.9 3.4q1.2 1.3.2 1.6L322 238c-1.3.8-1.3 1.1-.1 1.9s.8 1.2-1.3 2.6c-3.3 2.2-3.4 3.9-.1 3.3q2.5-.6 2.5.8c0 1.5-2.4 3-8.5 5.5-5.3 2.2-6 4.4-1.1 3.6 6.1-1 4 1.1-2.6 2.6-5.4 1.2-6.3 1.7-6.1 3.4q.3 2.2-2.2 2.7T300 267c0 1.6-.9 2.1-5 2.6-5.5.7-6.1 1.4-2.8 3.6l2.2 1.5-2.4 1.3a41 41 0 0 0-12.6 11.1 15 15 0 0 0-1.4 5.8c0 3.4-1.5 4.9-2.4 2.5-.5-1.3-1.4-1.5-4.1-1l-3.5.7.4-6.5c.4-6.4.3-6.6-2.9-9.1a12 12 0 0 0-7.8-2.5c-5.3 0-9.9 3.1-9.6 6.4.2 1.1-.1 3.1-.5 4.3-.5 1.6-.1 3.1 1.5 5.3 2.7 3.5 1.8 5.3-.9 2l-1.9-2.4-1.2 2.2c-1.7 3.1-3.4 1.6-2.8-2.4q.6-3.3-.9-4.5c-.8-.6-1.4-2-1.4-2.9 0-3.2-4.6-5.7-14.7-7.9-12.7-2.9-13.3-3.1-13.3-4.1 0-1.3 3.3-2.1 9-2.2 5.5-.2 6.1-1.1 3.4-5.3-1.5-2.3-1.5-2.5 0-2.5q1.5 0 1.6-.9c0-1.7-2-2.3-3.5-1.1-2.6 2.2-17.5 1.2-24.3-1.7q-7.4-3 3.8-.7c7.5 1.6 14 1.8 14 .5 0-.5-2.4-1.2-5.2-1.5-8.3-1-16.8-2.9-16.8-3.8q0-.7.3-.8l8.2 1.5c4.8.8 8.4 1 8.9.5 1.1-1.1-.3-1.6-6.7-2.4a26 26 0 0 1-7.5-2.1c-2.6-1.6-2.6-1.6 2.8-1l9.8 1.1c2.3.4 4.2.2 4.2-.2 0-1.2-4.9-3.4-7.4-3.4-1.2-.1-4.3-.8-7.1-1.6l-5-1.4 4.5.5q17.9 2 16 .7c-.8-.5-3.5-1.2-6-1.6-8.5-1.2-15-2.9-15-3.9 0-.6 2-.7 5-.4 5.5.7 6.9-.8 1.8-1.8-5.9-1.2-6.8-1.6-6.8-3.2q-.2-1.7 2.8-.9c1.5.3 5.8.9 9.6 1.3 5.1.4 6.7.3 6.2-.5-.4-.7-2-1.2-3.6-1.2-4.1 0-13.3-2-14.8-3.3-.7-.6-1.2-2-1-3.1.3-2.2.5-2.3 9.1-1.1 3.8.6 4.7.4 4.7-.8 0-1.5-.9-1.8-9.3-3.2q-3.7-.7-3.4-1.8c.5-1.3 1.3-1.3 7-.2 4.7.9 5-1 .5-3.1l-3.3-1.5 5.3.6c6.4.7 7.7 0 5.2-2.5-3.7-3.7-2.6-4.3 6.8-3.6 13.7 1.1 38.9 2.6 48.2 3s31.2-1.6 41.2-3.8c7.9-1.8 11.5-1.9 12.4-.5m-112.9 1.5q-.7.5-1.9.1t.6-.6q1.8 0 1.3.5m-23 8q-.7.5-1.9.1t.6-.6q1.8 0 1.3.5m154.5 22.1c.1 6.5 0 14.3-.4 17.3s-.4 20.1-.1 38c.5 30.4.7 59.6.4 70l-.1 6c.1.8-.1 4.4-.2 8-.3 5.3-.7 6.6-2.2 6.8-4 .8-4.2-.7-5.1-38.3-.3-13.8-.8-34.2-1.2-45.5l-.7-33c0-6.9-.4-13-.8-13.6-.4-.7.3-2.7 1.5-4.5a53 53 0 0 0 6.5-16.9c-.3-3.2.2-6 1.1-6 .5 0 1.1 5.3 1.3 11.7m-12.7 58.8c.4 17 .9 31.3 1.1 31.6.9 1.6.7 54.3-.2 54.6q-1 .1-1.1-6.4c0-3.8-.3-16-.7-27.3-2.2-63.1-2.8-88.9-1.9-90.2 1.4-2.4 2.1 6.5 2.8 37.7m-125.7-30.3c.7 1 1.9 1.8 2.6 1.8s3.2 1.4 5.5 3a57 57 0 0 0 7.7 4.7q3.7 1.7 2.7 3.2c-.3.9-.8 3.9-1.1 6.7-.4 5-.2 5.3 3.7 8.4 4.7 3.8 5.6 5.7 3.7 7.9-.7.9-2 3.3-2.7 5.4-1.3 3.7-1.2 4 .9 5.7 1.2 1 2.2 2.5 2.2 3.4 0 2.2 2.6 2 4.2-.2.7-1 2.6-2.2 4.1-2.6s3-1.3 3.4-2.2c.7-2-2.5-8.2-6.1-11.7l-2.9-2.9 2.7-2.2c3.7-2.9 3.3-7-.6-7.4-2.1-.2-3 .3-4.1 2.4l-1.4 2.7-1.6-2.4c-2.1-2.9-2.2-8.2-.2-9.9 1.1-.9 3-1 7.1-.4 4.5.7 6.1 1.5 7.8 3.7 1.9 2.6 2.1 4.2 2.2 19.7.1 11.9.5 17.4 1.3 18.4 1 1.2 1.1 6 .7 19.8-.3 10.1-.9 21.3-1.2 25l-.6 6.7-6.6 3.4a93 93 0 0 1-29.2 8.9l-5.4.3-.7-4c-.4-2.2-.9-17.7-1.3-34.5l-1.2-55.6c-.4-13.8-.4-25.9-.1-26.8q1.3-2.8 4.5 1.6m10.5-2.5c-.7.2-1.9.2-2.5 0q-1-.5 1.2-.5c2.2 0 1.9.2 1.3.5m12.2.2c1 1.8-1.7 2.3-3.3.7s-1.5-1.6.5-1.6c1.2 0 2.4.4 2.8.9m95.9 7.8c.3 4.3.8 17.2 1.1 28.8l1.6 50.9c.8 24 .7 30.2-.3 31.2s-4.1 1.1-13.5.4c-6.6-.4-13-1.3-14-1.8-1.8-1-1.8-2.6-1.6-31.9l.3-33.1c0-2.5 2.5-3 3.4-.6.5 1.3 1.1 1.2 3.7-1 1.7-1.4 3.4-2.6 3.9-2.6s1.1-.9 1.5-1.9c.6-2-4.8-11.1-6.6-11.1q-.8-.1-.9-1.4c0-2.5-7.9-3.8-8.1-1.4l-.6 6.3c-.3 2.7-.5 5.9-.4 7 .5 8.7.8 63.6.4 65.8q-.6 2.8-2.1 2.5c-1.4-.3-1.6-2.4-1.5-14.8.4-49.2.3-62.2-.7-64q-1.1-2 0-3.9c.5-1.1 1-3.7 1-5.8q-.1-8.8 7.3-8.1c4.1.3 4.2.4 4.5 4.3s.3 3.9-1.6 2.1c-4-3.5-11.2-.1-8.6 4.1 1.4 2.3 4.2 2.7 9.4 1.3 3.3-.9 4.4-1.8 5.6-4.6 1.8-4.3.9-8.2-2.2-9.6-2.3-1.1-3.3-2.8-1.6-2.8.4 0 3.6-1.9 7.1-4.3 10.7-7.1 11.6-7.7 12.2-7.7.3 0 .9 3.5 1.3 7.7m-55.7 7.8q.4 1.5-.1 2.3c-.8.8-3.8-1-4.4-2.6-.6-1.8 3.8-1.4 4.5.3m-4.4 7.9 1.7 2.1 1.9-2.3q4-4.4 4.1.4c0 3.8-3.7 9.5-5.7 8.7a2 2 0 0 0-2.4.8q-1 1.7-.9-.3c0-.9 1.2-2.6 2.8-3.7l2.7-2-3-.1c-2.3 0-3.5-.7-4.8-2.9-1-1.7-1.4-3.7-1-4.7.6-1.7.7-1.7 1.7 0 .6 1 1.9 2.8 2.9 4m-6.3 12.7c1.5 2.7.7 4.7-2.1 5.1-1.9.3-2.3 1-2.5 5.2q-.5 7-1.8 5.5c-.2-.2-.7-3.8-1.1-8l-.7-7.7 2.8-1c4.1-1.5 4.2-1.4 5.4.9m22.4-.5c1 2.5.7 10.4-.4 10.4-.5 0-1.7-1.7-2.5-3.7-1.2-2.8-1.3-4.4-.6-6q2-4.1 3.5-.7m6.9 4.9q-1.2 3.2-1.3-.6 0-1.8 1-1.4.8.6.3 2m-17.6 2.7c1.4 3.1.9 3.8-2.7 3.8q-6.8-.2-2.3-5.2c2.8-3 3.3-2.9 5 1.4m-32.1.6c1.1 2.8 1.1 3.4-.1 3.8-1.8.7-6.8-.9-7.2-2.4-.5-1.4 3.5-5.4 4.9-5 .5.2 1.6 1.8 2.4 3.6m66.7-.8c1.8 3.5 1.4 3.9-3 3.3-3.7-.6-4.1-1.8-1.6-4.5 2.2-2.5 2.9-2.3 4.6 1.2m-16.8 23c-.5 28.9-.5 28.6-1.4 27.1-.5-.8-1.1-7.1-1.2-14-.3-18-.3-19.9.6-27 1.4-11 2.3-4.4 2 13.9m-9.6-11.4c2.1 4.9 2.5 7.6 3.2 26.2 1 23.9 1.9 32.6 4.8 43.7q2 8 1 9.1-1 1.2.6 1.8c2.2.8 1.8 2.5-.7 3.6q-3.2 1-.2.9 4.9.3 1.2 3.3l-2.3 1.8h3c2.3 0 3.4.7 4.8 3.1 1.7 3 1.7 3.2 0 4.5s-1.6 1.3 1 1.4c1.5 0 2.7.4 2.7 1q-.1.9-1.1 1-.8 0-.4 1c.3.5 1.5 1 2.6 1q3.3.1.7 2.8-1.5 1.3 1.6 1.2c2.3 0 2.6.3 2.1 2s-.2 2 1.4 2q2 .2 1.8 1.2-.2 1.3 3.1 1c2.7-.3 3.2 0 3.2 1.7 0 2.3 2 2.7 5.1 1.1s2.3-2.7-3.6-6.5c-3-2-5.5-4-5.5-4.5 0-1.6 6-1.1 14 1.1 11.1 3 15.3 8.2 9.3 11.2-3.9 2-6.4 2.4-16.8 3.3-4.9.3-10.7 1.3-12.9 2q-7.4 2.7-9.6-.1-2.6-3.2-3.2.7c-.3 1.9-1.2 2.4-7.3 3.3a54 54 0 0 0-11 2.9c-4.9 2.1-25.5 2.2-25.5.1q.2-1.2 2-1.8c2.6-.7 2.6-2.3 0-3-1.8-.5-1.4-1.2 3.3-6.1 3-3 7.3-9.1 9.8-13.5 2.4-4.4 4.6-8 4.9-8.1q.6.1 2 1c1.3.9 1.3 1.2-.2 2.4q-4 2.7 1.5 2.7 3.2.2 1.2.6c-3.2.8-3.9 2-1.6 2.8 1.2.4 2.8.2 3.5-.4 1.1-.9 1.9-.3 3.7 2.6l2.7 4.5c.2.5-2.8.8-6.7.8-7.4 0-9.8 1.6-3.3 2.3q5.3.4-1 .5c-4.5.2-6.1 1.3-3.8 2.7 1.4.9 17-.6 17-1.6q-.2-.7-1.7-1.2-2.2-.5.3-.6c1.2 0 2.8.9 3.7 2.1q1.5 2.5 2.7 1.2c.8-.9.4-2.2-2-5.5a177 177 0 0 1-13.5-21c-.7-2.1-2.9-2.1-3.1-.1-.4 3.3-.6 3.5-1.5 1.3-.8-2.1-1.2-2.3-2.3-1a19 19 0 0 0-2.5 4.8c-2.1 6.5-8 15.7-13.3 20.9a29 29 0 0 1-6.3 5.2c-.5 0-3.3-.6-6.2-1.4q-5.1-1.3-6.1-.4c-1.3 1.3-7.4-.1-6.9-1.5.3-.8 3.4-1.1 10.2-.9 7.5.2 10.3-.1 12.1-1.3 4.8-3.1 3-4-8.4-4.2-5.9-.1-12.1-.5-13.8-.8-2.5-.4-3.3-.1-4.4 2-1.6 3-2.2 3-8 .2s-6.1-4.8-1.4-7.7c3-1.9 3.8-2 4.5-.9 1.5 2.4 1.1 4.1-1 3.4-2.4-.7-4.7 1.8-2.9 3.2q4.3 3.6 8.4 0a94 94 0 0 0 21.6-20.8c3.1-4.5 3.3-4.6 7.8-4.2q4.5.5 6.4-1c2.9-2.2 1.2-3.5-3.9-2.9-3.8.4-4.5.2-4.5-1.3 0-1.4.6-1.6 3-1.2q6 1.2 6-2.4c0-1.5-.7-1.9-3.6-1.9-4.5 0-4.2-2.4.4-2.8 3.5-.4 6.3-2.9 4.1-3.6-.8-.3-2.3-.6-3.4-.8-2.8-.5-2.6-3.4.2-3 2.3.3 3.2-.7 4.9-5.5 1.1-3.2 1.1-3.2-2.5-3.5-4.3-.4-5.1-3.1-.9-3.6 1.4-.2 3.2-1 3.8-1.7 1.3-1.6.7-2-3.5-2.7-3.1-.5-2.4-3.2 1-3.8 4-.7 4.6-3.7.8-4.2-3.5-.4-3.3-2.3.3-2.3 2.5-.1 4.7-2.2 3.8-3.7-.8-1.2-3.8-1-5.2.4q-1.3 1.5-1.2-1.6c.1-3.1.4-2.6 1.8-2.2 2.3.8 5.8-1.7 4.7-3.3q-.7-1.2-3.6-.7c-2.6.5-2.9.3-2.9-1.9s.4-2.5 3.4-2.5c3.6 0 5.5-1.5 3.9-3.1q-1-.9-3.6 0c-3.3 1.3-3.8.4-3.1-5.3.7-4.5.8-4.6 4.1-4.6 2.8 0 3.4-.3 3.1-1.8q-.4-1.5-1.4-1.5l-2.9.5c-1.6.2-2.1-.3-2.3-3-.7-7 8.9-15.4 10.5-9.2.6 2.2 2.8 2.7 3.9.9.6-1 6-3.8 7.4-3.8a18 18 0 0 1 2.9 5.5m73.7 33.4c.7 29.6 1.2 42.4 1.9 47.8q.7 5.2-.4 6.6-1.1 1.5-1 15.7c.1 19.1.1 19.1-1.3 18.6-1-.3-1.3-6-1.5-23.3-.1-12.6-.4-24.3-.7-25.9a54 54 0 0 1-.6-18.5c.6-1.1.7-2.8.2-4.2-.5-1.3-.4-8.5.3-16.5.6-7.8 1-15.9.8-18-.3-3.5-.2-3.6.8-1.3.6 1.4 1.2 9.9 1.5 19m-228.4 22.4c7.1 3.4 46.8 34.6 46.8 36.8q-.1 1-3.7.3c-2.1-.4-6.3-.9-9.3-1-3.4-.2-7.7-1.3-11.3-3a57 57 0 0 0-18.9-5.5q-2.6-.1-3.7-1.9a70 70 0 0 0-20.7-14.3c-4.2-.4-4.3-3.7-.3-8.3 1.8-2 4.2-4.1 5.3-4.6 2.9-1.2 11.8-.4 15.8 1.5m299.8 4c0 2.9-1.5 5-2.9 4.1-.7-.4-2.6-.1-4.2.6-2.6 1-3.3 1-4.7-.4-2.2-2.3-.6-6.9 2.8-7.7 3.9-1 9 1 9 3.4m-178.3 1.2c.9 2.4-2.1 16.2-4.8 21.9-2 4.2-3.1 5.2-7 6.7a67 67 0 0 1-25.4 2.1l-4-.9-.2-8.9a40 40 0 0 1 .7-10.5c.7-1.3 2.8-1.9 7.7-2.4q10.8-1.2 25.3-7.1c6.8-2.9 6.9-2.9 7.7-.9m58.8 3.9c5 .9 15.8 1.8 24 2.1 8.3.4 15.6 1.1 16.3 1.7s1.1 2 .8 3.1 0 4 .5 6.6a54 54 0 0 1 1 11.5l-.1 11.2c0 4.8-.4 5-5.8 2.7a269 269 0 0 0-37.4-7.4c-2.2 0-3.4-.9-5.4-4.2a32 32 0 0 1-3.5-7.3l-2.3-8.2c-.8-2.9-1.8-7.3-2.2-9.9l-.7-4.7 2.9.7c1.6.4 7 1.3 11.9 2.1m118.5 3a69 69 0 0 0 11.6 20 52 52 0 0 1 12.4 32.6c0 8.7-.5 10.1-3.6 9.3-2.4-.6-2.4-.5-2.1 4.4.2 4.4 0 4.9-1.4 4.2q-3-2-3 2.9v2.6l-1-2.4c-.8-1.9-1.2-2.1-2.4-1.1-.8.7-1.5 2.3-1.5 3.6 0 3-1.6 3.9-2.3 1.3-.8-2.8-2.3-1.7-3.1 2.3-.6 3.1-.8 3.2-2.1 1.4-1.7-2.3-3.5-1.3-3.5 2 0 3-1.6 3.1-2.4.1-.6-2.2-.6-2.2-2.2-.2-.8 1.1-2.1 1.9-2.9 1.7q-1.3 0-2.5 3.3c-.9 2.8-1.6 3.5-3 3q-1.9-.6-3 1.5c-.6 1.1-1.9 2-2.9 2s-3.6.7-5.7 1.6c-3 1.3-7.4 1.6-20.1 1.6-15.2-.1-19.2.5-16.1 2.4s36.3.4 42.5-1.8q3.3-1.3 4.4-.1c1.9 1.9-1.8 4.3-6.9 4.3a45 45 0 0 0-20.4 8.2 48 48 0 0 0-12.2 18.6 38 38 0 0 0 .9 19.9c.6 1.9.2 2.5-2.1 3.3-1.6.6-3.9 2.1-5.1 3.2-1.3 1.2-2.6 1.9-2.9 1.6-.3-.4-.6-19.9-.6-43.4.1-23.5-.4-46.2-.9-50.3l-.9-8.6.3-26.2c.2-13.9.6-25.5 1-25.9s3.3-.1 6.4.6c13.8 3.3 22.2 9.2 27.4 19.3a39 39 0 0 0 12 13.5c1.6.6 1-2-1.3-5.7a16 16 0 0 1-2.4-6.4c-.2-2.7.9-3.6 2.1-1.7.3.5 1.3 1 2 1 1.1 0 .9-.8-.7-3.5-2-3.6-1.8-5.9.4-3.7q3 3 2.6-2c-.3-2.8.1-3.4 2-3.6q2-.4 2.2-1.7a38 38 0 0 1 12.2-10.9q.7.6.8 1.9m-309.2 7.6c7.3 6.2 8.1 7.3 6.1 8.4-1.6 1-15.9-10.3-15.9-12.6 0-3.2 2.3-2.2 9.8 4.2m81.2 5.5c0 3.4-1.3 4.6-2.3 2.1-.7-1.9.4-6.8 1.4-6.1.5.3.9 2.1.9 4m-54.5 8.2q8.5 3.3 3.2 5.1c-5.9 2.3-8.4 9.9-5.2 16.2q2.6 4.7 20.9 10.9 6.7 2.2 10.7 5.9c3.8 3.7 3.9 3.9 3.9 10.9 0 4.5-.4 7.2-1.1 7.2a21 21 0 0 1-5.2-2.8c-2.3-1.6-7.1-4.3-10.7-6.2a93 93 0 0 1-9-5c-1.4-1-3.6-2.1-5-2.5-5.3-1.6-10.1-4.7-11-7-1-2.7-2.6-3.3-3.2-1.3-.3.9-3 .5-9.9-1.5a139 139 0 0 0-11.8-2.9q-2.3-.4-2.9-1.6c-.6-1.9 4.7-1.5 14.4 1.4 6.7 1.9 9.3 2.3 10.6 1.5 1.4-.9 3.7 0 11.5 4.1 5.4 2.8 14.4 8.1 20.1 11.6 7.3 4.6 10.7 6.1 11.4 5.4 1.2-1.2-7.5-7.2-19.6-13.6-3.8-2-8-4.5-9.5-5.4a41 41 0 0 0-5.4-3q-2.5-1.2-2.2-2.2c1-1.6-1-3.6-7.3-7.1-3.1-1.7-6.7-4-7.9-5.1a7 7 0 0 0-9.4-.2c-2.2 2.3-1.7 3.3 4.1 6.9q7.8 5-3.1 2.5c-2.8-.7-6.9-.9-9.4-.6-4.2.7-4.5.6-5.1-1.9-.8-3.1.2-8.5 2-11 1.6-2.2 4.6-1.4 4.6 1.3 0 1.8 1.8 4.2 3.2 4.2.4 0 .8-1.8.8-3.9 0-5 3.5-9.4 9.3-11.5 5.4-2 16.4-1.4 23.2 1.2m92.5 4c0 1.3-8.6 3-11.8 2.4-2.5-.6.2-1.3 11.1-3.1q.6 0 .7.7m-67.1 1.3c2.7.6 5.5 1.6 6.1 2.4s1 5.1 1 10.1v12.2c0 5.1-.7 5.4-5.8 2.8a66 66 0 0 0-8.4-3.5c-6.9-2.3-15.7-7-17.3-9.4-1.9-3-1.1-7.8 2-10.7 2.4-2.2 9.9-4.8 14.7-4.9 1.5-.1 4.9.4 7.7 1m51.7.6c-.4.4-3.4 1.5-6.7 2.4l-5.9 1.6v-2.3c0-2.3.3-2.4 6.7-2.4 3.6 0 6.3.3 5.9.7m7.9 4.3q.4 1-2.3 1a56 56 0 0 0-15.4 4.1c-2.2 1.1-2.8 1.1-2.8-.1 0-1.6 4.2-3.3 11-4.6 8.6-1.6 8.8-1.6 9.5-.4m-100.2 7.8q9.6 6.2 5.5 6.2c-1.9-.1-8.7-3.3-13.8-6.5-4.1-2.6-4.2-2.9-2.5-4.1 1-.7 2.3-1 2.9-.6zm65.1-.6c3.9 3 4.5 3.8 5 8.3.6 6.1.2 22.2-.6 23.1-.8.8-9.5-4.3-10.1-5.9-.2-.7-.2-5.2-.1-10.2.2-4.9 0-10.4-.5-12.1-.8-2.8.1-6.4 1.5-6.4.3 0 2.4 1.5 4.8 3.2m32.1-1.2c-.3.5-1.5 1-2.6 1s-1.7-.5-1.4-1 1.5-1 2.6-1 1.7.4 1.4 1m121.2 4.8c1.8 2 3.2 4.2 3.3 4.8 0 2.3-4.2 6.5-6.4 6.2-2.1-.3-2.4-1.3-1.2-5.8.5-1.9 0-3.6-1.9-6.4l-2.6-3.8 2.8.6c1.5.4 4.2 2.4 6 4.4m-129.8 10.7c2.5 1.2 7.1 3 10.1 4s6 2.1 6.5 2.5 2.6 1.3 4.6 1.9q3.6 1.1 5.2 4.6c1.8 3.8 2.8 4.3 4.7 2 1.4-1.7 7.1-2 8.7-.4q.9 1 7.1-1c3.4-1.2 7.2-2.1 8.5-2.1s5.9-.9 10.2-2 9.4-2 11.4-2 6.8-.7 10.6-1.5A108 108 0 0 1 337 446c.9.5 1.3 6.3 1.4 19.9l.1 19.2-7 .5c-3.8.2-13.5 1.3-21.5 2.4a393 393 0 0 1-57.7 5c-.4.5-2.5 1.2-4.5 1.5-3.4.7-3.9.5-4.8-2-1.4-3.6-.9-4.1 4.7-4.8a201 201 0 0 0 24-4.1q.5-.6 0-1.2c-.8-.9-17.7 1.4-24 3.2-5.9 1.6-15.8.8-20.2-1.7-1.6-.9-5.7-2.5-8.9-3.5a28 28 0 0 1-11-6.5 59 59 0 0 0-8.3-6.3l-3.3-1.7v-13.3c0-7.3.3-13.5.6-13.9.7-.6 1.9-.2 8.3 2.8m139.6 6.4c.3 1.1.8 7.2 1 13.5.2 6.4.5 12 .7 12.4s.1 3.8-.2 7.7l-.5 7-1.6-3c-1.2-2.2-1.7-6.5-1.9-16l-.5-17q-.3-6.6 1.5-6.5c.5 0 1.1.9 1.5 1.9M234 448q-.1.9-1.5 1c-1.4.1-1.5-.5-1.5-1q.1-1 1.5-1c1.4 0 1.5.4 1.5 1m-51.7 13.5 3.7 3.4v8.5c0 4.8-.3 8.6-.8 8.6a20 20 0 0 1-4.5-2.5c-3.2-2.2-3.7-3.1-3.7-6.5 0-4.6.5-4.8 3.7-1.8 1.3 1.2 2.6 1.8 3 1.4s-.7-2.1-2.6-3.8c-3.2-3-5.1-6.5-5.1-9.4q.2-3.5 6.3 2.1m21.5 13.8c4.5 4.1 7.3 5.8 12.9 7.5 12.4 3.9 15.8 8.9 4.1 5.9-3.5-.9-8.3-1.8-10.7-2.2-2.3-.3-6.5-2-9.2-3.8-4.5-2.9-4.9-3.5-4.9-7.3q0-5.4 1.7-5.4c.2 0 2.9 2.4 6.1 5.3m-21.6 8.2c3 2 3.8 3.2 4.2 6.7a6289 6289 0 0 1 1.2 223.7c-.3.4-3.3.6-6.7.5l-6.3-.3.3-11.8c.3-13.5.4-14.7.2-30.3-.3-19.7.5-53.5 1.2-54.7.4-.6.2-2.5-.4-4.3-.8-2.3-.9-3.8 0-5.6.6-1.3.7-3.4.3-4.6-.4-1.3-.6-21.2-.5-44.3.2-23.1.3-43.1.2-44.5l-.1-4c-.2-5.1.5-27.6.9-28.3.7-1.1 1.6-.9 5.5 1.8m17.9 1.2c2.2 2.6 7.5 4.4 20.4 7a61 61 0 0 0 16.5 1.8c3.7-.6 4.3-.4 3.2.7-1 1-4.9 1.3-15.5 1.2-13.9 0-14.3-.1-20.8-3.2-7.4-3.6-9.4-5.4-8.5-7.7.7-2 3-1.9 4.7.2m139.6 66.6a12189 12189 0 0 1 .2 119.7c.1 6.9 0 19.5-.2 28l-.3 15.5-4.6.3-4.7.3v-38.6l-.2-43.5v-44l1.2-31c.1-.8-.2-14.8-.5-31-.4-16.2-.3-31.5.1-34 .8-4.1 1.1-4.6 4.3-5.1l4-.8c.3 0 .6 28.8.7 64.2m-105-61.7q-.7.5-1.9.1t.6-.6q1.8 0 1.3.5m91.9 13.7.2 43.2.4 36.5-.1 4c-.1 1.4 0 36.1.2 77.2.2 41.2-.1 74.4-.5 74a100 100 0 0 1-1.8-16.3c-.9-14.8-1-27.9-1.1-100.9l-.1-41c-.3-36.9-.1-87.9.5-89.4 1.5-3.9 2.2 0 2.3 12.7M446 491.5c0 2.5-2.3 3.5-3.5 1.4-1.6-2.5-11.9 1.9-10.9 4.6.8 2.1-1.4 4.5-4.1 4.5q-2.1 0-3.4 2.6c-.6 1.5-1.5 2.4-1.8 2-.7-.7 2.2-6.7 5.5-11.2 1.2-1.7 2.2-3.7 2.2-4.4q0-1.3 3.3-.7c1.7.2 5 .1 7.2-.3l4.8-.9q.6.1.7 2.4m-126.1 39.7a9515 9515 0 0 0 1 131.8v19.5l-.1 14.5v14.7c0 3.1-.1 3.2-5.1 3.8-5.5.6-10.5.5-17.6-.2l-4.3-.5.5-4.2c.4-2.5.2-4.7-.5-5.4q-1-1-.3-3.9c.5-1.5.7-3.3.4-3.8s-.4-11.4-.6-24L292.1 544v-23.5c0-13.7.4-22.4 1-23.2.6-.7.8-1.7.5-2.2q-.5-.9.6-1.8a86 86 0 0 1 20.5-3.2l5.2-.1zm-102.8-33.1c9.4 1.5 34.4.1 54.7-3.1 4.5-.7 8.5-1 8.9-.7.3.4.8 24.7.9 53.9.2 29.3.6 75.8 1 103.3l.7 56.7c.1 7.2-.5 8.6-2.5 7.2-.7-.5-19.8-.9-42.5-.9h-41.2l.2-18-.1-34V640c.3-15.4-1.3-143.7-1.8-145.2-1-3.4.7-3.6 7.4-.7a78 78 0 0 0 14.3 4m72.1-1.6c-.3 2.1-.4 39-.3 74l.1 23c-.1 1.1.2 15 .5 31l1 51c.2 12.1.6 26.4.8 31.8.2 7.2 0 10.1-1 10.9-.7.6-1.3 2.7-1.3 4.7 0 3-1.7 7.8-2.1 6.1-.1-.3-.3-28.4-.4-62.5-.2-35.9-.7-63.7-1.3-66-.5-2.2-.8-5.8-.6-8s.6-24 .8-48.5c.3-54 .2-50.2 2.4-49.8q1.6.4 1.4 2.3m156.8 1.4c0 .5-1.3 1.4-2.9 2.1a10 10 0 0 0-6.8 8.3c-.5 3.1-.1 4 2.5 6.7 2.4 2.4 3.9 3 7.1 3q6.5-.1 2.4 4.2-1.6 1.8-5.5 1.8c-4.6 0-4.8 2-.3 3.1 5.6 1.6 12.5-4.2 12.5-10.3 0-3.1-4.1-8.8-6.3-8.8-1.5 0-1.7.5-1.2 2.9q1 5-3.5 3.6c-4.4-1.4-3.7-8.5 1.3-11.5 12.6-7.7 26.1 7 21.3 23.2-1.7 5.7-6.5 12.7-6.6 9.5 0-2.5-2.5-2.1-4.5.9-2.2 3.4-7.7 5.6-13.4 5.4-6.1-.3-7.1-.2-7.1 1 0 .5 1.2 1 2.8 1s3.4.5 4.2 1c3.3 2.1-7.8 1-13.1-1.4-5-2.2-14.9-11.1-14.9-13.5l-.5-2.3c-1.1-2.8 5.3-1.4 8.7 1.9 6 5.9 7.9 3.8 2.6-2.8-2.9-3.6-3.3-4.8-3.4-11.2-.2-4 0-6.1.3-4.8 1.1 5.1 5.1 8.9 6.7 6.3.3-.4 0-2.8-.5-5.1-1.1-5-.8-5.7 1.9-4.2 2.3 1.2 4.2-.3 4.2-3.3 0-3.3 4.9-7.6 8.7-7.6 1.8 0 3.3.4 3.3.9m-29 16.8v4.8l-2.1-3.3c-1.2-1.7-2.5-3.2-3-3.2s-.9-.7-.9-1.5q0-1.5 3-1.5c2.9 0 3 .1 3 4.7m-52.6 32.2c1.5 2.2 6.3 6.7 10.5 10l7.8 6.1-.8 5.1c-.7 4.7 0 9.1 3.6 21.5.5 1.7 0 2.2-3.3 3.2-7 2.1-12 1.5-19.8-2.4-4.2-2-7.6-4.4-7.9-5.5q-.7-1.7-2.1-1.9-1.4 0-1.4-3.3l.1-3.2 1.6 3c2.4 4.6 4.4 6.5 9.6 9.1 6.8 3.5 19.6 3.6 18.4.1-.2-.6-2.5-1-5.8-.8-7.3.3-15.8-3.9-17.4-8.6-.5-1.7-2.2-4.3-3.7-5.7-2.5-2.2-2.8-3.2-2.8-8.5 0-3.3-.4-6.3-1-6.6-1.6-1-1.1-5.2.7-5.9 2.4-1 4.8 1.9 4.8 5.7 0 3.4 2.2 4.5 3.5 1.7l1.8-3.7c1.6-3 1.5-3.3-.8-3.3-2.5 0-2.6-1.7-.3-4.2 1.5-1.6 1.5-2.1.3-2.8q-1.4-.7-2.2-.4-.7.4-.8-.5c0-1 1.6-1.9 3.6-2 .6-.1 2.3 1.7 3.8 3.8m83.1-1.9c-.3.5-1.3 1-2.1 1s-1.4-.5-1.4-1q.1-1 2.1-1 1.8 0 1.4 1M90.4 717.6q1.3.6 1 1.9c-.7 1.7 2.7 2.5 12.1 2.5q7.7 0 6.5.9c-1.6.9-29.9 2-55 2.2-18.2.1-17.2.2-16.8-1.8.3-1.4 2.9-1.6 24.3-1.8 13.2-.1 24.3-.3 24.8-.4 1.5-.2.6-2.2-1.5-3.1q-3.4-1 .4-.9a13 13 0 0 1 4.2.5m73.7 4.9c.1 1.1-.1 3.1-.5 4.5s-.1 5.7.7 9.5c1 4.9 1.2 7.8.5 9.5-.5 1.4-1 5.3-1 8.7 0 6.1 0 6.2-2.9 6.8-3.6.8-5 0-1.9-1 4.1-1.3 1.5-3-4.6-3-5 0-5.9.3-5.8 1.7q.3 1.8-2.5 1.9c-7.9.4-9.1.4-9.1-.1q.2-.6 2.1-1.8c2.7-1.7 2.2-5.9-1.1-8.3a23 23 0 0 0-7.7-3.1c-2.9-.7-5.3-1.6-5.3-2 0-1.7 5.3-2 7.9-.5a94 94 0 0 0 30 1.9q4.6-3.2-9.8-3.2c-5.4 0-11.2-.3-13-.6l-3.1-.6 2-2.6c1.8-2.2 1.9-2.8.7-4.6-2.8-4.1-6.1-5.6-14.2-6.5-4.8-.5-6.4-.9-3.9-1 4.2-.1 8.5-2.4 7.1-3.8-.5-.4-3.5-.6-6.8-.5q-5.8.4-5.9-.7c0-1.3 16.1-1.5 42-.7q3.5.1 3.6-1.4l.3-2.5c.2-1.4 1.9 1.6 2.2 4m187.1-2.3q-1.1 1-1.2.2c0-1.4 1.2-2.6 1.9-1.9q.2.6-.7 1.7m-31.9-.5c-.7.2-2.1.2-3 0q-1.3-.5 1.2-.5 2.6 0 1.8.5m99.5 0c-1.6.2-4 .2-5.5 0-1.6-.2-.3-.4 2.7-.4s4.3.2 2.8.4m-82.4 2.9c.9.3 1.6 1.4 1.6 2.4 0 1.4-.6 1.6-3.2 1.1-3.7-.8-5.3-4.1-2-4.1 1.1 0 2.7.3 3.6.6m17.1 1.9q-.2 1.7-1.2 2.2-1.2.4-1.3-2.2 0-2.6 1.3-2.3 1 .6 1.2 2.3m-113.3-.4 40.5.2.2 5.1c.1 2.8.6 5.5 1.1 6 1.1 1.1 4-1 4-3s1.8-1.7 2.3.3c1.7 6.3 1.7 7.5.1 8.8-1.5 1-2.1.9-3.8-1.1-2.4-2.5-6.6-4.1-6.6-2.5q-.2 1-1.7 1-1.7 0-.5-.6c.6-.2 1.2-1.3 1.2-2.4 0-1.8-.9-1.9-13.1-1.9-7.7 0-12.8-.4-12.4-.9.3-.5 5.3-.8 11.3-.6 11.1.5 14.8-.3 12.4-2.7-.9-.9-7.5-1.3-25.5-1.4-13.3-.1-29.1-.6-35.1-1.2-10.7-1-13.6-.8-13.6.8 0 1.5 1.3 1.8 15.3 3.1 7.5.7 13.2 1.6 12.6 1.9-1 .7-13 .5-24.9-.4l-5.5-.4-.3-4.7c-.2-2.6.1-4.4.6-4.1s19.1.6 41.4.7m62.6-.1q-1.6 1-4 .1c-2-.9-1.8-1 1.7-1 3.1 0 3.6.2 2.3.9m78.5.9c.4 1.5-.2 2-3.5 2.4a48 48 0 0 1-9.3 0c-4.9-.5-5.3-.7-4.2-2.4s2.4-1.9 8.8-1.9c6.7 0 7.7.2 8.2 1.9m27.2-1c.9 1.5-3 3.1-7.2 3q-3.4-.1-1.8-.6c1.1-.3 2.4-1.1 2.8-1.9.9-1.6 5.3-1.9 6.2-.5M424 725q-1 1.8-1.9 2l-3.8.6c-2.5.5-3.1.2-3.5-1.4-.8-2.9-.2-3.2 5.4-3.2 4.6 0 4.8.1 3.8 2m74 1c-1.8 1.2-17.3 1.4-16.6.2.3-.5 4.5-.9 9.3-1 6.2-.2 8.3.1 7.3.8m-63.3.6q-.7.5-1.9.1t.6-.6q1.8 0 1.3.5m17.6.1c-.7.2-2.1.2-3 0q-1.3-.5 1.2-.5 2.6 0 1.8.5m24.4 0c-2 .2-5.2.2-7 0s0-.4 3.8-.4c3.9 0 5.3.2 3.2.4M114 728.1c1.4 0-.6 1-4.5 2-8.7 2.5-8 2.4-19.7 1.5-10-.7-12.2-.1-9.8 2.9 1.8 2.2 0 1.8-2.4-.4a14 14 0 0 0-4.7-2.6c-2.6-.7-3.7.2-7.6 6.1-1.2 1.8-1.3 1.8-2.3.1-.6-.9-1.9-1.8-2.8-1.8q-1.2-.2 1.8-.8 3.4-.7 3.5-2.1c0-1.3-3.3-1.4-25.2-1.1q-25.2.3-25.3-.6c0-1.5 13.3-2.2 54.5-2.9a903 903 0 0 0 40-1c1.1.3 3.1.6 4.5.7m206.6 1.4c-.4 1.3-25.7.7-27.1-.6-.6-.6 4.4-.8 13.3-.7s14.1.7 13.8 1.3m17.7 1.5c.9 3.6-.7 7.5-3.1 7.5-2.1 0-3.2-1.9-1.2-2.1l2-.3c2-.2.9-3.2-1.5-4.1-3.4-1.3-3.2-3 .4-3q2.9 0 3.4 2m72.2 0c-1.6 1.7-3 2-10.4 1.9a326 326 0 0 1-17.1-.8l-8.5-.8 8.5-.3c4.7-.2 11.1-.2 14.2-.1 3.2.1 6.4-.2 7.2-.6s2.9-.9 4.7-1c3.1-.2 3.1-.2 1.4 1.7m-37.6.8c-.7.3-1.9 1.2-2.5 2-.9 1.3-1.4 1.2-4-.4l-2.8-1.9 3.9-.5c4.4-.6 8.1 0 5.4.8m-241.1 3.6c2.2 2.1 2.5 3 1.6 4.4q-2.5 3.8-7 .3c-2.9-2.3-7.7-2.7-11.8-1.1s-3.1 3 1.9 2.3c3.6-.5 4.6-.3 5.1 1.1.4.9.4 2 0 2.3-1.2 1.2-11.9.4-16.8-1.3-6.3-2.1-6.3-4.2 0-8.4 4.6-3.1 4.8-3.2 14.5-2.7 9 .4 10.1.6 12.5 3.1m111.7-2.4c-.3.5-2.3 1-4.3 1q-4 0-2.2-1c2-1.3 7.3-1.3 6.5 0m172.9 2.4c-.6 1.6-.8 1.7-1.6.2-1.1-1.9 0-4.2 1.3-2.9.6.6.7 1.8.3 2.7m-93.9.6c0 1.4-11.3 1.6-20.3.4-3.8-.6-4.4-.4-4.9 1.5q-.4 2.4-1.9 1c-.8-.6-1.4-2-1.4-3.1 0-1.9.7-1.9 14.3-1.5 10.9.3 14.2.7 14.2 1.7m-269.7-.3c-1 .2-2.8.2-4 0q-1.8-.4 1.7-.4 3.5-.1 2.3.4m45.2-.1c0 .3-.9 1.7-2 3.1s-1.8 3.4-1.5 4.3c.5 1.4-.4 1.8-5.2 2.3-3.2.3-7.5.9-9.6 1.3-2.9.5-3.7.4-3.5-.7q.2-1.2-2.7-1.9c-2.4-.5-1.5-.8 4.2-1.5q7-.8 7.7-2.1c.3-.8 2-1.4 4.2-1.4 2.7 0 3.7-.5 4.1-2 .5-1.7 4.3-3 4.3-1.4m109.5.8c3.9.3 17.2.8 29.8 1.2 12.5.4 22.5 1 22.1 1.3s-10 .7-21.5.7c-11.6.1-21.3.5-21.7.9q-.5.7 1 1.9c1.9 1.4 1.4 2.6-.9 2.6-.7 0-1.8-1.1-2.3-2.4-.7-2-1.8-2.6-6.5-3.1q-5.7-.8-6.8.4c-1.5 1.5.7 3.1 4.6 3.1 1.5 0 2.7.4 2.7 1q0 1.4-4.1 1.1c-.9-.1-2.4 1.1-3.5 2.6-1.8 2.8-1.8 2.8-2.3.5-1-3.9-.1-13.1 1.2-12.7.7.2 4.4.6 8.2.9m189-.1c9.9.2 11 .4 11.3 2.1s0 1.8-4.9 1.1c-3-.4-9.8-.8-15.1-.9-5.4-.1-10-.5-10.4-.8-1.3-1.4.6-2.4 4.3-2.1 2.1.2 8.7.4 14.8.6m54.3.6q4.4 0 4.2 1.6c0 1.6.7 1.7 20 2 11.7.2 12.3.3 11.5 1.5-.8 1.3-38.5 1.4-38.5.1q0-.9 1.2-1.3 1-.5.4-1.6c-.9-1.5-5.2-1.6-6.1-.2-.3.5-4.2 1-8.6 1-7 0-7.9-.2-7.9-1.8 0-1 .2-2.1.4-2.3s4.6-.1 9.8.3c5.1.3 11.2.7 13.6.7M74 738.1q0 .8-1 .9-.9-.1-1-1.6.1-1.3 1-.9 1 .6 1 1.6m-38 .9q1.1 1.5-1.1 3.2c-2.7 2.3-6.9 2.3-10.7.1-3.3-1.9-6.2-1.2-6.2 1.5 0 2.6-6.5 3.7-11.7 1.9-10.8-3.5.9-8.7 19-8.4 7.5.2 10 .6 10.7 1.7m329 2.5c0 2.8-.4 3.5-2 3.5-2 0-2.6-2.2-1.4-5.4 1.2-3 3.4-1.8 3.4 1.9m-307.5-1.3a10 10 0 0 0-2.5 1.9c-.3.4-3.1.9-6.3 1.1-5.8.3-7.9 2-3.2 2.6 4.5.6 2.6 2.2-2.5 2.2q-8 .1-3-2.8c1.1-.7 2-2.3 2-3.7 0-2.5.1-2.5 8.8-2.5 7 .1 8.3.3 6.7 1.2m301.2-.1c1.3 1.3.5 5.1-1.1 4.6-1.3-.4-2.1-5.7-.9-5.7q1 .1 2 1.1m-37.3 3.1c1.2 4.5.7 9.8-.9 9.8q-1.4-.1-1.5-2.1c0-2.1-.3-2.1-9.5-1.5l-9.5.7v-2.6a13 13 0 0 0-1-4.6c-1-1.8-.6-1.9 10.3-1.9s11.5.1 12.1 2.2m48.6-.2q-.1 1.8-1.4 2c-1.8 0-2.9-1.6-2.1-3 1.1-1.8 3.5-1.1 3.5 1m52.5.6c13.2.2 24.7.7 25.5 1.1s3.5.8 6 .9l27.3 1.3q1.6.2 1.7 2.1c0 2.3-2.5 2.7-3.3.6-.5-1.2-5.4-1.5-28.4-1.8l-40.5-.3c-9.7 0-12.8-.3-12.8-1.2q0-1.3-4.2-1.4l-5.8-.4-5.7-.4c-2.4 0-4.3-.5-4.3-1 0-1.5 2.6-1.7 11.9-.8 4.7.5 19.4 1 32.6 1.3M66 743q1.8 1-3.2 1c-2.7 0-4.8-.5-4.8-1 0-1.3 6-1.3 8 0m216 0q1.3.9.7 1.7c-.5.4-12.6.9-26.9 1-14.4.1-26.4.5-26.7.9q-.3.6 1.1 1.8c1.3.9 7.9 1.5 21.5 1.8 18.8.5 20.1.7 24.8 3.2 2.8 1.4 4.3 2.6 3.4 2.6s-3.1.3-4.8.6c-2.7.6-3.1.4-3.1-1.5 0-1.1-.6-2.1-1.2-2.1l-19.3-.4-21.7-.5c-3.5-.1-3.8-.3-3.8-3.1 0-2.2-.7-3.3-2.7-4.5-2.6-1.4-.4-1.5 25.4-1.3 15.6.1 28.6-.2 29-.5q1.5-1.4 4.3.3m56 1q-.1 1.8-4.5 0-2.7-1 1.3-.9c1.7-.1 3.2.3 3.2.9m-45.4 2.7c-1 1-1.9-.5-1-1.8q.8-1.7 1.2 0 .3 1.2-.2 1.8m59.7-1.3c.6 1.6-.2 2.8-1.4 2s-1.1-3.4 0-3.4q.9.1 1.4 1.4m139.2.6q-.6.9-1.6 1-.8-.1-.9-1 .1-1 1.6-1 1.3 0 .9 1m-195.1 3.9c-.6.6-2.4-1.9-2.4-3.4q.2-.7 1.5.9 1.3 1.9.9 2.5m80.1-3.3q2 .6.3 1.5-2.8 2-2.8-.6c0-1.7.2-1.8 2.5-.9m-303.9 2.5c-2.4 1.9-3 2-5.2.9q-5.6-3 2.7-3h5.2zm140.4.5q0 1.3-1 .9c-.5-.3-1-1.3-1-2.1s.5-1.2 1-.9 1 1.3 1 2.1m169-1.6q0 .9-.4 1-.5-.1-1.1-1-.4-1 .4-1 1 0 1.1 1m-353.1 1.3c1.2 1.5.5 2.7-1.6 2.7q-1.2-.2-1.3-2c0-2.3 1.3-2.6 2.9-.7m92.1.7c12.8 1.3 16.7 3.5 12.5 7-3.4 2.8-21.5.1-24.6-3.6-1.3-1.6-9.5-1.9-10.4-.4-.3.5 0 1.9.7 3 2.1 3.3-.4 4.2-9.9 3.6-7.9-.6-15.3-3.3-15.3-5.7 0-4.6 22.7-6.5 47-3.9m100.4.2c-.8 2.8-1.2 3.3-2 2.5s.6-4.7 1.7-4.7q.9.2.3 2.2m66.4-.5q.4 1.3-3.7 1.3c-3.9 0-5.5-1.3-2.8-2.4 2.1-.8 6-.2 6.5 1.1m45.9-.5c5 2.2 5.7 4.8 1.3 4.8q-3.2 0-3-1.8c0-1-.5-2.3-1.2-3q-2.3-2.3 2.9 0M16 751q-.1.9-1.1 1-.8-.1-.4-1 .6-1 1.1-1 .3 0 .4 1m191.4-.4c1.8.7 2.1 3.9.5 4.9q-1 .5-1.6-1.3-.6-2-1.9-1.5c-1.4.5-1.9-.8-.7-2 .8-.9 1.7-.9 3.7-.1m152.1 1.4c2.8.1 13.9.3 24.8.3 17.8 0 19.7.1 18.3 1.5-1.2 1.2-5.9 1.6-26.4 2-14 .3-25.1.1-25.4-.4s-.2-2 .3-3.3q1-2.4 2.2-1.4c.6.5 3.5 1.1 6.2 1.3m71.8-1.3q6.8.6 6.7 1.9c0 1.8-15 2-16.8.2-2.9-2.9-1.5-3.2 10.1-2.1m-368.2 1.8q2.7 1.8-6.1 3.6-5.8 1.2-8.1 3.5c-2.8 3-1.5 5 2.3 3.5 2.4-.9 7.6-1.4 12.9-1.2 4 .1 4.2 2.6.6 6.4-3.2 3.4-11.9 6.7-21.2 8.1-10.5 1.5-24.5-6.8-21.7-12.9 1.1-2.4 10.3-7.5 13.7-7.5a10 10 0 0 0 4.5-1.7c1.4-1 3.7-1.6 5.1-1.5 1.5.2 3-.2 3.4-.9.8-1.2 12.4-.7 14.6.6m411.3.2c-2 1.5-34.4 1.9-34.4.5 0-1.8 1.5-1.9 18.6-1.9 14.8.1 17.3.3 15.8 1.4m-258 1.4c-.8 1.4-2.4 1-2.4-.6q0-1.4 1.5-.9 1.3.7.9 1.5m98.1-.1c-.3.5-1.5 1-2.6 1q-1.7-.1-1.9-1c0-.6 1.2-1 2.6-1s2.3.4 1.9 1M22 756q0 .9-.9 1-1-.1-1.6-1-.4-1 .9-1 1.5 0 1.6 1m232.3.9c8.1.1 14.7.4 14.7.8s-1.5 1.5-3.3 2.3q-3 1.5-3.7 4l-.6 2.5H241c-32.1.1-41 .4-41 1.5q0 3.3 13.9 3c8.1-.1 51-.2 53.4 0q.6 0 .7 1c.1 1-11.8 1-33.2 1-18.3 0-33.9.4-34.7.9q-4.9 3 10.7 3.2c9.6.1 10.1.2 5.2 1-8.5 1.2-19.5.5-19.3-1.2l.9-7.4c.4-3.3.6-6.5.4-7-.4-1.4-.1-5.7.5-6.3s4.5 2.8 4.5 4q-.1.7-1.5.8c-1.4.1-1.5.6-1.5 1.4 0 1.8 8.2 3.1 10.9 1.7a9 9 0 0 1 5-.5c2.4.5 3.2.3 3.7-1.2.4-1.1 1.8-3 3.2-4.4 2.3-2.4 2.8-2.5 9.6-1.8 3.9.4 13.7.7 21.9.7M482 756q-.1.9-1.6 1-1.3-.1-.9-1 .6-1 1.6-1 .8 0 .9 1m15 0q1.8 1-3.2 1c-2.7 0-4.8-.5-4.8-1 0-1.3 6-1.3 8 0m-424.8 1.6c2.7 1.4 2.9 1.8 1.5 2.6-1.9 1-7.1-1.8-6.1-3.3.7-1.2 1-1.2 4.6.7m347.3 2.3q-.6 2-1.7 2.1-.8-.1-.4-1.6c.3-.9.6-2.3.6-3.2q0-1.7 1.1-.5c.6.6.8 2 .4 3.2m54.1-1.2a23 23 0 0 0 5.7 1.7q3.7.7 3.4 1.9c-.5 1.5-9.5 2.1-11.1.8-.8-.7-10-1.2-23.9-1.3-19.9-.3-22.7-.5-22.7-1.9q0-1.5.7-2.3c1.1-1 45.6 0 47.9 1.1m-456.7.9q1.6 1.4-6.4 2.1c-4.6.5-5.7.3-5.3-.8.6-1.8 4.6-2.8 8.3-2.2 1.7.3 3.2.7 3.4.9m95.6-.2 3 1.3-4.7.8q-7.6 1.3-6.1-2c.6-1.8 3.8-1.9 7.8-.1m197.3-.4c5.1.6 10.7 1.7 12.5 2.7l3.2 1.6-3 .9c-1.6.5-8.6 1.3-15.5 1.8s-16.3 1.6-20.9 2.5c-8.9 1.5-15.8.8-18.2-2.1-1.7-2-.4-3.1 5.9-5a90 90 0 0 1 36-2.4m25.7 0q2.3 1 2 2-.6 1-2.5 0c-1-.5-3.2-1-4.9-1s-3.1-.5-3.1-1c0-1.3 5.1-1.3 8.5 0m64.5.9c.5 1.1.7 2.2.3 2.4-1.3.7-48.2.1-48.9-.6-1.6-1.6 1.5-2 21.2-2.3 11.3-.1 20.9-.5 21.2-.8 1.3-1.3 5.2-.5 6.2 1.3m-316.1 2.7q.3.4-.7 1.6c-.5.7-1.2 2.4-1.4 3.8-.3 2.3-.7 2.5-5 2.5-2.5 0-5 .4-5.4.8-1.5 1.4 2 2.7 7.5 2.7 8.5 0 5.5.9-5.5 1.6l-9.9.7 3.8-4.2c2.1-2.3 4.2-5.3 4.7-6.7q1-2.3 1.9-1.9 1 .4 2.3-1c1.1-1.3 6.2-1.2 7.7.1m415.1-.5c0 1-6.1 2.2-8.6 1.7-.9-.1-1.9-.8-2.1-1.4q-.2-1 5.2-1.1c3 0 5.5.4 5.5.8m-65.4 4c2.4.6 4.7 1.6 5.1 2.2 1.9 3.2-12.5 8.5-26.7 9.8-9.8.9-18.6.3-19.6-1.2-.3-.5-1.8-.9-3.3-.9-2.9 0-9.2-3.6-9.8-5.7q-1.2-3.1 13.5-3.9c8.5-.5 10.2-.3 13.7 1.5 6.5 3.5 18.5 2.5 18.5-1.4q-.2-2.7 8.6-.4m28.7-.3c4.7.2 5.7.5 5.7 2 0 2.4 5 5.2 9.3 5.2 2 0 3.8.4 4.1.9.9 1.4-4.6 2.3-9 1.4-6.2-1.3-32.6-.4-32.1 1 .2.7 1.9 1.5 3.8 1.8q4 .7.8.8c-1.4 0-5.4.4-8.8.7-6.9.8-8.4-.7-2.6-2.6 1.8-.6 5-2.2 7-3.6s3.9-2.3 4.3-2 5.5.7 11.3 1.1c7.7.5 10.9.3 11.4-.5 1.4-2.3-1.2-2.9-12.3-3.1-9.3-.1-11.4-.4-12.1-1.8-.8-1.4-.1-1.6 6.2-1.6zm-444.8 3.3 1.6 3-7.1-.2c-3.9-.1-7.3-.7-7.7-1.2q-.5-1 3.5-.5c4.8.7 7.6-1.3 4.5-3.1q-2.6-1.1.9-1.1c2.1 0 3.1.8 4.3 3.1m76.2.3c-.6 3.7.4 5.1 3.8 5.8q2 .3 2 2.8v2.5l-28 .2c-22.6.2-27.6 0-26-1 1.4-.9 8.7-1.2 26-1.2 20.5 0 24-.3 24-1.5q-.1-1.4-2-1.3c-1.1.2-3.1 0-4.5-.3l-2.5-.6L89 773c1.4-1 2.5-2.5 2.6-3.2.3-3.3.5-3.8 1.5-3.8q1.2 0 .6 3.4m279.1-2.5c.6.1 1.2 1.2 1.2 2.5 0 2.3 5 7.6 7.1 7.6q1 .1.5.8c-.5.8-9.8.7-24.1-.1-4.6-.3-5-.5-5.3-3.2-.3-2.6-.2-2.7 2.5-2.1 6.3 1.5 16 1.9 16.8.7q.6-1.2.1-1.8c-.9-.9-9.7-2.4-15-2.6-2.7-.1-5.1-.7-5.3-1.3-.3-1 10.4-1.2 21.5-.5m109.7 1q1 2.2-3.7 1.4c-1.5-.3-2.5-.9-2.2-1.4.7-1.2 5.1-1.2 5.9 0m-143.7 3.3c2.4 1.1 4.6 2.7 4.9 3.5.9 2.2-3.4 6-8.2 7.2-4.6 1.2-16 1.3-20.9.2-5-1-4.3-2.9 1.4-3.7 5.4-.7 6.7-1.6 4.7-3.2q-1.3-.9-7.9 0c-8.3 1.1-23 .7-23.4-.7-.2-.6 1.2-1.8 3.2-2.8 2.6-1.3 6.2-1.7 14.7-1.8 6.2-.1 12.3-.5 13.7-1 3.8-1.2 12.9-.1 17.8 2.3m158.5-2.2c-1.2.5-3.4.5-5 0-2.4-.7-2.1-.8 2.2-.9q5.5 0 2.8.9m-361.8 3c5.7 2.5 5.7 4.2-.3 8.5-3.9 2.6-5.3 3-12.6 3.3-8.8.4-17-1.2-16.3-3.1.2-.7 2.1-1.4 4.3-1.7q3.9-.5 3.9-2c0-1.1-1.2-1.5-4.7-1.5-8.3 0-8.6-3.9-.3-4.8a64 64 0 0 1 26 1.3m147.5 4.1 2.2 3-10.3-.1c-16.3-.2-16.9-.1-16.9 1.4 0 1.4 2.8 2.9 4.6 2.5.5-.1 2.7 0 4.9.1l4 .2-3.5 1c-1.9.5-3.9 1.4-4.4 1.9q-2.7 2.5-7.2-2.2a27 27 0 0 0-4.6-4c-2.7-1.4-7.5 1.5-9.2 5.6-.8 1.9-2.2 3.5-3.1 3.5-1.3 0-1.4-.4-.5-2 .6-1.1.8-2.5.5-3q-.3-.9 2-1.6c2.2-.5 2.5-1.1 2.1-3.1l-.7-2.4 16.8.2c16 .1 16.8 0 18.1-2 1.9-2.8 2.7-2.7 5.2 1m210-1.1q0 .9-1 1a1 1 0 0 1-1-1q.1-1 1-1t1 1m-317.5 4.4c1.6.8 7.8 1.7 15.1 2.1 7.7.5 12.1 1.1 11.8 1.7q-.8 1-8.8.3c-4.4-.5-11.1-.8-14.8-.9-6.4 0-6.8-.2-6.8-2.3 0-2.7 0-2.7 3.5-.9m292.7-.8q.5.7.1 2.2c-.3 1.5-1.3 1.7-6.6 1.1-3.4-.3-7.8-1.3-9.7-2.1l-3.5-1.6 9.6-.1c5.3-.1 9.8.2 10.1.5M148 782.5q0 1.1-2.4.8-2.5-.7-3.1 1.6c-.5 1.7-1.5 2.1-4.7 2.1h-4l4.8-3.9c4.1-3.3 5.2-3.7 7.1-2.8 1.3.6 2.3 1.6 2.3 2.2m18.3 4.7c-1.5 3.1-4.3 4.1-9.4 3.6-3.2-.3-3.4-.5-3.1-3.8.7-6.4 4.2-8.3 4.3-2.3 0 3.3.1 3.5.9 1.5q1-2 3-2.2c1.1 0 2.5-.9 3.2-2 1.3-2 1.3-2 1.9.2.3 1.3 0 3.5-.8 5m138.2-6.2c.7 1.2-.4 1.4-6.3 1-2.7-.1-5 .4-6 1.3-1.3 1.1-2.8 1.3-6.2.7l-4.5-.7 4.1-.2c2.3 0 4.7-.8 5.4-1.6 1.4-1.7 12.5-2.1 13.5-.5m47.3 1.3c1.3-.8 4.1-.9 9.7-.2 4.3.4 14 .9 21.4.9 13.1.1 40.9 1.5 36.4 1.8-1.2.1-2.4.6-2.8 1.1s-3.8.8-7.8.5c-3.9-.2-19.6-.4-34.9-.4a255 255 0 0 1-28.1-.7c-.3-.4-.1-1.9.4-3.2.9-2.3 1-2.3 2.4-.5 1.1 1.6 1.7 1.7 3.3.7m-314.4.6c.4.5 5.3.8 11.1.7s10.7-.1 11 .2c.2.2-.5 1.7-1.7 3.2-1.7 2.4-2 3.7-1.4 8.4.3 3.4.2 5.6-.4 5.6q-1-.2-1-2 0-2-2.1-2-2.3.2-1.4-2c.8-2.5-2-3.8-4.6-2.2-2.3 1.5-6.9-.1-6.9-2.3 0-1.3 1.2-1.5 6.9-1.3 7 .3 9.7-.6 7.1-2.2-2-1.3-11.7-1.3-12.5 0-.9 1.5-1.7 1.2-5.5-2-3-2.7-3.2-3-1.3-3 1.2 0 2.4.4 2.7.9m196.1.1q2.3.8-3.3.8c-2.9 0-5.5-.5-5.8-.9-.7-1.1 6.4-1 9.1.1m-129.3 2.4 3.3 1.4-4 .2-18.4.3c-10.5.1-14.5.5-14.8 1.4-.4 1 4.8 1.3 23.9 1.3 23.3 0 30.1.7 24.7 2.6-1.3.4-12.4.8-24.6.9s-22.4.3-22.8.7c-1.3 1.3 6.1 1.9 26.2 2.1 11.1.2 20.5.6 20.9 1s-3.3.7-8.2.7c-19.8 0-37.4 1.3-37.4 2.7q-.1 1.2-1.4 1.3c-.7 0-1.9.7-2.6 1.5s-2.1 1.5-3.2 1.5c-1.7 0-1.7-.3.7-3.7 2.9-4.3 3.2-9.4 1-13.7-.8-1.5-1.5-3.2-1.5-3.6 0-1.5 34.5-.2 38.2 1.4m48.6-1.3q-.4 1-1.3 1-1.2 0-1.3-1t1.3-1.1c1.5-.1 1.5.5 1.3 1.1m298.6-.5q4 1.7-2.3 2.9c-6.9 1.2-8.1 5.6-2.1 7.7 2.7.9 3 1.4 2.5 3.7-.3 1.5-.1 4 .4 5.4q1 2.6.1 2.7-1.2 0-1-1c0-.5-3.3-.7-8.2-.3-13.3.9-24.8-3.4-24.8-9.3 0-2.6 5-7.1 8.8-8 1.5-.3 5.2-1.4 8.2-2.4a41 41 0 0 1 18.4-1.4m-198 2.9c2 3 2 3.5 0 3.5-1.8 0-4.3-2.7-4.4-4.8 0-2.1 2.7-1.3 4.4 1.3m88.4.2c.3 1-2.2 1.3-10.4 1.3-12.6 0-13.3-1.7-.9-2.3 10.5-.4 10.8-.4 11.3 1m122.2-.5c0 .6.8 2 1.8 3.1 1.7 1.9 1.6 2-3.3 1.2a32 32 0 0 1-5.3-1c-.2-.2.1-1.3.8-2.4 1.1-2.2 6-3 6-.9m-266.7 1.1c4.8.1 8.7.6 8.7 1.1 0 1.2-32.2-.3-33.5-1.5q-1-1 7.5-.4c4.7.3 12.4.7 17.3.8M317 787c2.1.7 1.8.8-1.8.9q-4.1 0-3.7-.9c.7-1.1 1.9-1.1 5.5 0m-101 1.6c0 .2-1.6.4-3.5.4s-3.5-.4-3.5-.8 1.6-.6 3.5-.4 3.5.6 3.5.8m70.4-.5c8.3 1.5 13.6 4.3 13.6 7.3 0 3.2-1.9 4.5-9.1 6.2-7.7 1.8-27.3 2.8-31.4 1.6-3.7-1-4.4-3.7-1.6-6.3 1.2-1.1 2.1-2.4 2.1-2.9q.1-1 1.5-1 2-.1 3.3-2.1c3.5-3.7 11.1-4.7 21.6-2.8m18.6 0q-4.4.8-5.4-.1t4.5-.9l5.4.1zm-83.2.6c-1 .2-2.6.2-3.5 0q-1.3-.5 1.7-.5c3 0 2.7.2 1.8.5m170 1.8c1.6 1.6-6.9 2.5-28.4 3-36.8.9-58.4 1.2-58.4.9l-.5-1.7c-.5-1.2 2.5-1.3 19.7-.9 16.6.3 20.9.1 23.8-1.1s7.1-1.5 23.5-1.1c10.9.3 20.1.7 20.3.9m12 1.3q.6 1.4-3.4 1c-2-.2-3.9-.9-4.2-1.6q-.6-1.4 3.4-1c2 .2 3.9.9 4.2 1.6m51.7-.7q1.7 2.5-3 .4l-3-1.3 2.7-.1c1.5-.1 3 .4 3.3 1m-329.2.6c-.7.2-1.9.2-2.5 0q-1-.5 1.2-.5c2.2 0 1.9.2 1.3.5m284.2.3q-.6.8-2 .3-3.1-1.2.6-1.3 1.8 0 1.4 1m-256.8 3.1 6.5 3.1 2.5-2.4c2.2-2 3.4-2.3 11.3-2.3 7.2 0 9.2.3 10.9 1.9 2.9 2.6 2.7 4-1.1 8.1l-3.3 3.5-15 1.4c-8.2.7-20.3 1.5-26.7 1.6l-11.8.1-1.7-3.5q-4.4-9.5 11.5-13.1c8.5-1.9 9.8-1.8 16.9 1.6m53.3-2.2q4.8.1 3 1.1c-2.3 1.5-17.5 1.3-18.8-.3-.8-.9.3-1.2 5.1-1zm48 0q-.1.8-1.5 1.5c-1.5.5-2-.5-.8-1.7.9-1 2.3-.9 2.3.2m-29.2 1.7q-1.6 1.6-3.7.9c-3.4-1-2.4-2.5 1.6-2.5 3.4 0 3.6.1 2.1 1.6m15.6.6c2.6 3.7 1 4.2-6.6 2.1-3.9-1-1.6-3.8 3.4-4.2.9 0 2.4.9 3.2 2.1m169.4 4.3c-.7.7-17.4.9-18.5.2-.5-.3-2.3-.3-3.9.2s-4.3.4-6.1.1-3.5-.4-4 .1a695 695 0 0 1-73.6 0q-1-1-.6-1.5c.5-.5 75.9-1.9 90.9-1.7a54 54 0 0 0 13-.8q1.5-1.3 2.4.9c.5 1.1.7 2.2.4 2.5M63 798q0 .9-1 1a1 1 0 0 1-1-1q.1-1 1-1t1 1m155-.1q-.2.7-2.5.3t-2.5-.8q.2-.4 2.5-.4c2.3 0 2.5.4 2.5.9m12.4 2.6c1.8 1.4 1.7 1.5-2.2 1.5q-5.9 0-3.5-2.3c1.1-1.1 3.7-.7 5.7.8M117 802c0 1.2-10.2 1.2-17.5 0-4.1-.6-3.1-.8 6.3-.9 6.9 0 11.2.3 11.2.9m-61.9 4a4 4 0 0 1 2.5 1c.5.5 5.9 1.2 11.8 1.5 6 .2 11.1.7 11.4 1 .5.4-3.9.8-7.3.7l-13.7-.7-12.7-.7 1.5-3c1.4-2.8 1.7-2.9 3.3-1.4 1 .9 2.4 1.6 3.2 1.6m146.9-2.1c0 .9-8.9.5-9.8-.4-.3-.3 1.8-.5 4.6-.5 2.9 0 5.2.4 5.2.9m214 .6c1.1 1.3.5 1.5-4.9 1.5-7.2 0-8.2-1.7-1.3-2.3l4.8-.5q.3 0 1.4 1.3m-99 .4q2.3.2 1.5 1c-.6.6-9.9 1.1-20.7 1.3a160 160 0 0 1-19.1-.2c1.7-1.8 19-2.7 38.3-2.1m55 .2c0 .5-10.3.8-25.2.7-13.9-.1-22.1-.4-18.3-.7 12.1-1 43.5-1 43.5 0m31-.3c0 .4-5.3.8-11.7.9q-11.5.2-10.3-.7c1.8-1.2 22-1.3 22-.2m-283.3 2.4q1.1 1 .7 1.9c-.7 1.3-4.8 1.1-6.1-.2-.6-.6-6-1.2-12.4-1.3-21.3-.5-21.5-.6-19.9-1.6 1.9-1.3 36-.2 37.7 1.2m137.3-.7c3.4 1.3 3.4 1.3-4 1.4-7 0-7.3-.1-5-1.4 3-1.7 4.5-1.7 9 0m-20.1 1.1c.2.2-2.1.4-5.3.4q-5.6 0-5.1-1c.6-1 9.2-.4 10.4.6m-45.4.4q.3.9-1.4 1-2-.1-2.1-1 .1-1 1.4-1c.8 0 1.8.4 2.1 1"/><path d="M186.2 731.3c-.6.7-1 2.6-.9 4.2.2 2.7-.2 3-3.1 3.5-4.1.6-4.1 2.2 0 3.6 3.1 1 3.3 1.3 3.4 6.5.1 3 .2 5.8.4 6.4.1.5.2 2.9.1 5.2l-.1 4.3h-4c-4.9 0-5.5 2.4-.9 3.4q5 1 4.9-1.8.1-1.3 1.9-1.9 1.9-.3 2.4-4.8c.5-4.2.2-21.6-.5-26.8-.4-2.9-2-3.7-3.6-1.8M246.5 144c-.3.5.1 2 1 3.4 1 1.5 1.5 4 1.3 6.3l-.3 3.8-5.8.3c-3.6.2-6.4-.2-7.3-.9q-2.6-2.2-3.8 3.2-1.3 5.1 3 2.2c2.9-1.8 12.2-1.2 13.6.9 1.5 2.4.9 10.6-.8 11.6s-1.2 1.6 2.7 2.6c3.6.8 5.8-1.7 4.1-4.5-1.6-2.5-1.5-8.1.1-10.2 1-1.5 2-1.6 7.2-.7l6.8 1c.9 0 1-6.4 0-7.3-.3-.4-1.4 0-2.4.9-1.2 1.1-3.2 1.4-7 1.2l-5.4-.3V143h-3.2c-1.7 0-3.5.4-3.8 1m-17.8 73.6q-.3.8 1.3 2.3c1.7 1.4 2 3.2 2.2 16.4s.1 15-1.5 16.2c-2.9 2.1-2 2.5 5.7 2.5 7.6 0 9.7-.9 7.2-2.9-2-1.7-.4-8.5 3.1-13.5 4.8-6.8 6.1-6.3 18.1 6.7 3.5 3.7 6 7.2 5.6 7.8-1.2 2 2 2.8 8.1 2.2 7.1-.7 7.4-.9 5-2.7-1.6-1.1-1.8-3.2-2.1-18.2l-.3-16.9-2.8-.1c-1.5-.1-3.9.2-5.3.6q-3 .8-.7 1.5c1.3.5 1.7 1.9 1.8 5.9 0 2.8.4 7.5.8 10.3s.4 5.3.1 5.3c-.9 0-13.2-13-15.1-16-2.1-3.2-4-2.3-10.9 5.5a59 59 0 0 1-6.2 6.3c-.4.2-.8-3.2-.8-7.5 0-12-.2-12.3-6.9-12.3-3.2 0-6 .3-6.4.6M195 227c0 1.1 1.9 1.7 8.3 2.5q5.9.8 5.7-.4c0-1.5-1.2-1.8-8.2-2.4-3.2-.3-5.8-.2-5.8.3m61 37c-1.1 2.7-1.4 2.9-2.5 1.4-1.4-2-3.5-1.1-3.5 1.5s2.1 4.3 3.7 2.9c1.1-.8 2-.5 4.1 1.5 3 2.9 7.7 3.6 11.2 1.7q2-1 2.5 0c1.2 1.9 3.5 1 3.5-1.4 0-3.4-2.1-4.9-4.6-3.2-5.9 4-11.4 2-11.4-4.2 0-4-1.4-4.1-3-.2m31.4 1.5q-1.1 4.4 2.1 3.2c2-.8 2-5.7 0-5.7-.8 0-1.7 1.1-2.1 2.5m-52.9-.5c.3.5 1.7 1 3.1 1q2.2 0 1.9-1c-.3-.6-1.7-1-3.1-1q-2.2 0-1.9 1m-6.5 2.8c0 1 1.1 2.9 2.5 4.2 2.2 2.1 2.9 2.3 5.5 1.3 2.3-.9 3.2-.8 4.1.3 1.5 1.8 6.3 1.8 7.9-.1s.5-3.4-2-2.8q-2 .6-2-1.1c0-1.3-1.1-1.6-5.9-1.6-3.3 0-6.3-.5-6.6-1-1-1.7-3.5-1.1-3.5.8m52.6.8q-3 1.6-1.8 2.6c1.2 1.2 6.2-1.4 6.2-3.2 0-1.3-1-1.2-4.4.6m-81.1 37.8c-3.6 2.6-.1 12.7 5.3 14.7 4.4 1.7 7.2-.2 7.2-5 0-4.3-.3-4.7-6.3-8.6-4.5-2.9-3.9-2.8-6.2-1.1m8.5 9.8c0 1.3-2.2.9-4.2-.9-3.2-2.8-2.2-4.6 1.2-2.1 1.7 1.2 3 2.5 3 3m-6.4 22.7c-2.6 2.7-2.7 3.1-1.6 7.2 2.6 9.9 3.3 11.1 7.9 13.1 5 2.1 6.6 1.4 7.6-3.2.9-3.9-1.6-9.2-5.9-12.5-2-1.5-3.6-3.6-3.6-4.6q0-4.5-4.4 0m6.7 9.6c4 3.7 4.8 6.5 1.8 6.5-2.3 0-3.6-1.5-5.6-6.3-1.9-4.6-1-4.6 3.8-.2m42.2-29.4q-.6 1-.1 1.6c.8.8 3.6-.5 3.6-1.7 0-1.3-2.7-1.3-3.5.1m-3.5 5.4c-1 1.2-.9 1.6.3 2.1 1.7.6 5.7-1.2 5.7-2.6 0-1.6-4.6-1.2-6 .5m1 11.7c-2.4.9-2.5 1-.5 2.4 1.7 1.2 2.1 1.2 3.4-.1 2.1-2.1.3-3.6-2.9-2.3m8 12.8q.1.9 1 1 1-.1 1-1t-1-1a1 1 0 0 0-1 1m.4 13.1q-4.4 1.5-2.4 4.9c1.3 2.5 3.8 2.6 5.6.2 2.9-3.7 1-6.7-3.2-5.1m.6 11q.1.8 1 .4 1-.6 1-1.1 0-.4-1-.4-.9.1-1 1.1m-1 3.9q.1.9 1.5 1c1.4.1 1.5-.5 1.5-1q-.1-1-1.5-1c-1.4 0-1.5.4-1.5 1m.5 5.9c-.6 1.1.9 2.3 1.9 1.4s.7-2.3-.3-2.3q-1 0-1.6.9m-.7 6.2c-3.2 1.8-1.7 7.9 1.9 7.9.7 0 2-1.4 2.8-3.1 2.4-4.6-.4-7.4-4.7-4.8m1.7 17c-1 1.5.3 2.5 1.6 1.2q1-1 .1-1.7-1-.4-1.7.5m23 8.9q-.4.9 1.4 1 2-.1 2.1-1-.1-1-1.4-1c-.8 0-1.8.4-2.1 1m-48.2.7c-2.1.8-1.5 3.2 1 3.8 3.8.9 11.1-.8 11.5-2.8.3-1.5-.5-1.7-5.5-1.6-3.2 0-6.4.3-7 .6m-2.5 6q-4.9.4-4.8 1.8c0 2.1 1.9 2.9 8 3.6 4.6.5 4 .6-4.2.8-9.4.1-12.3 1-10 3.3a30 30 0 0 0 9.5 1.5c7.8.5 8.6.4 10.7-1.7q2-2.1 1.7-4.1a3 3 0 0 1 .9-3q1.2-1 .8-2c-.5-.9-3.1-.9-12.6-.2m32.7 9.2c-.7 1.2 1.2 2.4 2.5 1.6 1.1-.7.4-2.5-1-2.5q-.8 0-1.5.9m-7.8 12.8c-1.7 1.6 1.3 2.3 10.4 2.3 7.2 0 9.9-.3 9.9-1.3s-2.8-1.3-9.9-1.4c-5.4-.1-10.1 0-10.4.4m99.5 50.2c-4.5 4.2-4.3 9 .7 11.6 2.4 1.2 3.1 1.1 5.9-.7q5.6-3.4 1.2-9.1c-1.1-1.4-2-3-2-3.6 0-2-2.5-1.2-5.8 1.8m4.4 5.6q1 4.5-1.5 3c-1.4-.8-1.4-5.5-.1-5.5q.9.2 1.6 2.5m-83.4-17.3c.5 1.5 3.7 1.8 4.1.3.1-.6-.9-1.2-2.2-1.3q-2.4-.4-1.9 1m9.8-.2q-1.3.9-.9 1.5c.8.8 3.9-.5 3.9-1.6s-1.1-1.1-3 .1m17 84.6c-3.5 3.2-4 4.2-4 7.9 0 7.9 6.9 13.2 13 10 4-2.1 3.8-4.8-.6-9.7-3.1-3.4-3.5-4.5-3-7.3q1.5-7.2-5.4-.9m5.2 14.6c-1.7 1.7-4.2-.9-4.2-4.4v-3l2.6 3.2c2 2.3 2.4 3.4 1.6 4.2m-7.1 16.9a18 18 0 0 0-3.1 5.6c0 2.8 3.3 8.5 5.5 9.5 3.3 1.5 8.7-.3 10.5-3.6 1.5-2.7 1.4-2.8-2.7-6.4-2.3-2-4.3-4.8-4.5-6.1q-.8-5.8-5.7 1m6.2 7.7c2.3 2 2.2 4.2-.3 4.2-2 0-4-2.7-4-5.5 0-1.7 1.1-1.4 4.3 1.3m-3.5 80.8a8 8 0 0 0-4.8 7.8c0 1.9 1 3.1 4.3 5.1 5.2 3 6.8 3.1 9 .7q3.6-4-.8-8.2c-1.4-1.3-2.5-3.4-2.5-4.7 0-2.6-1.4-2.8-5.2-.7m3.4 6.1c1.8 1.6 2.5 6.3 1 6.3-2 0-5.2-3.4-5.2-5.6q.2-4.2 4.2-.7m-44.6-177.5q-3.1 4.5.2 4.9c2.2.1 7.6 6.5 6.2 7.4q-1.1.3-2.8-2.4c-1.7-2.7-2.3-3.1-2.9-3.1-2 0-1.5 4.5.8 7.4 1.7 2.2 2.8 2.7 5.8 2.4 3.4-.3 3.6-.5 3.9-4 .3-3-.2-4.3-2.4-6.5a14 14 0 0 1-3.4-5.2c-.9-3.4-3.4-3.8-5.4-.9m-31 27.7a17 17 0 0 0-2.7 5.4c-.8 2.9-.6 4.1 1.1 7 1.2 2.1 3.2 3.8 4.8 4.2s3.5 1.3 4.4 2.2c1.5 1.3 1.8 1.2 3.3-1.1q3.6-5.5-3.8-10.3c-3.1-2.2-4.2-3.6-4.2-5.6q0-5.3-2.9-1.8m7.4 12.3c0 1.3-2.4.9-4.8-.8-3.4-2.4-2.6-3.6 1.3-1.7 1.9.9 3.5 2 3.5 2.5m-31.6 94.3c-3.8 3.8-2.8 10.6 1.9 12.4 6.3 2.4 8.5 2.3 10.2-.3s1.6-2.8-.9-7.1c-1.5-2.5-3.3-4.5-4.1-4.5q-1.4 0-1.5-.9c0-2.1-3.3-1.9-5.6.4m6.3 5.7c3 2.8 2.9 4.8-.2 4.8-2.4 0-4.5-2.5-4.5-5.4 0-2.2 2-2 4.7.6m-6.1 22.4c-1.6 2-2.9 4.1-2.9 4.8-.1 4.1.8 5.8 4.8 9.1 3.5 2.8 5.1 3.6 7 3.1 5.5-1.4 5.1-7-.9-12.5a8 8 0 0 1-2.6-5.3q0-5.7-5.4.8m6 8.4c1.5 2.2 2.4 4.3 2 4.7-1.2 1.2-6.1-3.4-6.4-6-.5-3.9 1.4-3.3 4.4 1.3m22.6-3.7c-1.2 1.3-2.2 3-2.2 3.8 0 1.8 6.3 8 10.8 10.5l3.4 1.9 1.9-2.4a6 6 0 0 0 1.3-5c-.9-3.7-1.2-4-4.9-5.5a12 12 0 0 1-4.5-3.5q-2-4.1-5.8.2m9.6 7.6c1.4 1.7 1.6 3.1.4 3.1-1.5 0-8.2-6.2-7.7-7.1.7-1 5.2 1.6 7.3 4m214.1-179.4c1.7 2 3.1 4.5 3.1 5.5q.1 1.8 1.5 2 1.5 0 1.5-2.7c0-3.2-4.5-8.3-7.3-8.3-1.7 0-1.5.5 1.2 3.5m-28.4 10.6c-.8 1.2 1.1 2.9 3.3 2.9 1.9 0 1-3.4-1-3.8q-1.5-.2-2.3.9m31.7 3.1q-1.1 1.3-1.2 3.1c0 2.4 3.3 1.9 3.8-.7.5-2.4-1.1-3.9-2.6-2.4m-43.2 9.6c0 1.2 4.4 5.2 5.8 5.2 1.8 0 1.4-2.5-.6-4.3-1.9-1.8-5.2-2.3-5.2-.9m-62.4 32.9c-2.4 2.5 1.6 9.9 7.1 13 4.8 2.7 9.8 3.4 9.8 1.3q0-1.4-3-1.8-5.6-.7-9.6-8.4-2.8-5.7-4.3-4.1M134 727.4c0 1.2 1 1.7 3.8 1.8l16.4.9q5.5.4 6.9-.8 1.1-1.2.8-1.7c-.2-.2-6.6-.7-14.1-1.1-12.4-.7-13.8-.6-13.8.9m8 5.6c0 1.9 4.2 3.1 10.7 2.9q10.2-.4 8.7-3a51 51 0 0 0-19.4.1m1.4 17.1c-1.1 1.9.9 2.7 8.9 3.1 6.3.4 8 .2 8.4-.9a2 2 0 0 0-.8-2.4c-2-1.3-15.6-1.1-16.5.2M91 743q.1.9 1 1 1-.1 1-1t-1-1a1 1 0 0 0-1 1m211.7.6c-.4.4-.7 1.4-.7 2.1 0 1.1 1.6 1.3 7.3 1.1s7.2-.6 7.2-1.8-1.5-1.6-6.5-1.8c-3.6-.2-6.9 0-7.3.4M222.5 760q-.7 1.3 1 2.6c1.4 1 5.9 1.3 18.4 1.1 14.9-.2 16.6-.4 16.9-2 .3-1.5-.8-1.7-12.5-1.7-7 0-15.1-.3-17.9-.6q-5.3-.7-5.9.6m-149 6c-1 1.6 4.5 3.3 6.1 1.9q1.2-1 .8-2c-.7-1.2-6.1-1.1-6.9.1m391-543.7a49 49 0 0 0-28.6 19c-3.6 4.5-7.3 14.1-6.7 17.3.2 1.1-1.7 2.2-7.2 3.9-9.1 2.9-17.8 8.1-16.2 9.7.8.8 2.5.2 6.2-2.2 2.8-1.8 6.4-3.3 8.1-3.5 1.6-.1 3.5-.7 4.2-1.4 1.8-1.8 8.9-1.3 12.4.9 4.3 2.6 6.7 7.3 5.8 11.7-.7 3.7-3.6 7.3-5.9 7.3-2 0-4.8-3-4.2-4.6.8-2.1-1.9-3.7-3.4-1.9-1.9 2.3-.4 6.3 3.1 8.1 2.9 1.5 3.5 1.4 7.5-.1 5-1.9 4.6-1.5 7.3-8.2l2-5.1-2-4c-1.5-3-3.3-4.7-6.6-6.3q-7.5-3.6-5.8-9.6.8-2.4 1.2-1.6c1 2.6 3.4 1.1 5.5-3.3 1.2-2.6 4.2-6.6 6.7-9 2.7-2.6 3.9-4.4 3.1-4.4-2.4 0-9 5.9-12.3 10.9-2.5 4-2.8 4.2-2.3 1.7 1.9-7.9 14.3-18.4 26.9-22.6 5.6-1.9 8.1-2.2 15-1.7 4.5.3 10.7 1.3 13.7 2.3 5 1.7 5.5 2.2 5.8 5.1.2 1.8.2 3.3 0 3.3l-5.2-1.5c-5.6-1.7-13-2-12.1-.5.3.5 2.1 1 3.8 1 1.8 0 5.1.7 7.5 1.5s4.8 1.3 5.3 1q.8-.4.9 1.5c0 2-.3 2.1-4.7 1.4-6.5-1-18.2-.9-19.3.2-.5.5 3.1.9 8.8.9 7.2 0 10.7.5 13.5 1.8l3.8 1.8-.3-9.3-.3-9.2-6-1.9a51 51 0 0 0-29-.4"/><path d="M472.5 226.7c-6.5 1-4.1 1.9 5 2q9.8 0 9.2-1.1c-.4-1.1-8.9-1.7-14.2-.9M455 232q-1.3.8-.9 1.4.6.4 2.5-.9c2.1-1.6.8-2-1.6-.5m9.4 3c-3.2 1.3-4.3 3.4-1.3 2.5q6.8-2.2 6.9-3c0-.8-3.2-.5-5.6.5m-9.2 4.6c-2.1 1.5-3 3.4-1.4 3.4a19 19 0 0 0 3.7-2.5c3.4-2.8 1.4-3.5-2.3-.9m4.5 4q-2.6 1.5-2.5 1.9c.8.8 6.2-1.1 6.6-2.3q.9-2.4-4.1.4m-13.1 3.3c-1.5 1.7-1.3 3.1.5 3.1 1.3 0 3-3.8 2-4.4-.4-.3-1.6.3-2.5 1.3m-18.8 23.7c-3.1 1.6-3.9 4.1-1 2.8.9-.4 2.9-.7 4.5-.6 3 .1 3.8-2.2 1.1-3.2-1.9-.7-1.3-.8-4.6 1m-26.5 4.3a43 43 0 0 0-7.4 15.3c-1 3.8-1.1 5.5-.1 8.1.7 1.8 1.2 5.3 1.2 7.6 0 9.7 8.9 21.2 20.7 26.7 6 2.7 8.5 3.3 14.5 3.4 4 .1 9.6-.3 12.4-.9 7.1-1.4 16.8-6.2 17.2-8.4.3-1.6-.2-1.5-4.7.8a39 39 0 0 1-37.5 1 29 29 0 0 1-17.7-22c-1.1-5.7.8-20.8 3.3-26.7 2.4-5.7 1.4-8.4-1.9-4.9m18.5 1.2c-1.8 1-2.5 3.9-1 3.9.5 0 1.9-1.1 3.2-2.5 2.5-2.6 1.2-3.4-2.2-1.4"/><path d="M410.8 279.7c-4.6 5-6.3 10.3-3.3 10.3.9 0 2-1.2 2.5-2.6s2.1-4 3.5-5.8q3.3-4.5.5-4.6a12 12 0 0 0-3.2 2.7m2.4 10.6c-1.9 2.3-2.3 7.2-.8 9.2q2.7 4.3 3.2-4.4c.3-5.1-.6-7-2.4-4.8M142 292.6c-1.5 3.9-1.2 6.5 1.3 10.9q2.3 4 5.2 4.9c1.7.4 3.8 1.2 4.7 1.7 2.8 1.4 5.2-3.1 4.4-8.3q-1.3-7.9-6.7-7.8-2.8 0-3.9-2c-1.5-2.8-3.9-2.5-5 .6m5.5 4.4c.3.5 1.9 1 3.5 1 2.3 0 3.1.5 3.6 2.4.8 3.5-.2 4.6-4.1 4.6s-6.5-2.8-6.5-6.7c0-2.3 2.3-3.2 3.5-1.3m257.2 3.7c-3 2.9 3.7 17.3 8 17.3 1.9 0 1.6-1.2-1.6-6.1a25 25 0 0 1-3.5-8.2q-1-5.3-2.9-3m11 7.9c-1.1 1.1.5 3.4 2.4 3.4q3.3-.1.7-2.8-1.9-2-3.1-.6m-62.5 5.6c-3.6 4.4-4.2 5.6-3.6 8.2.8 4.1 4.1 6.6 8.7 6.6 3.4 0 3.9-.4 5.3-3.6 1.4-3.5 1.4-3.8-1-7.4-1.3-2-2.6-4.7-2.8-6-.5-3.9-2.2-3.3-6.6 2.2m5.8 8.9q0 1.8-2 1.9c-2.6 0-4-2.9-2.8-6l.9-2.5 2 2.4a9 9 0 0 1 1.9 4.2m100.6-11c-6.7 7-17.6 9.2-27.6 5.5-6.1-2.2-6.2-2.3-6.7-1-.7 2.1 7 4.8 14.9 5.2 7.1.4 8.1.2 13.6-2.8 6.9-3.7 11.1-7.5 9.6-9q-1-.9-3.8 2.1m-333.4 10.2c-6 7.2-1 19.7 7.7 19.7q6 0 6.1-4.2c0-3-2.2-6.7-4.4-7.4q-5.4-1.8-5.6-6.6c0-3-1.9-3.8-3.8-1.5m6.7 10.7c2 0 4.1 1.9 4.1 3.7q-.1 1.3-3.5 1.3c-4.7 0-7.5-2.9-7.5-7.8v-3.7l2.6 3.2c1.4 1.8 3.3 3.3 4.3 3.3m288.4-9.7c-1.9 3 10.6 6.3 20.3 5.2a17 17 0 0 0 8.6-2.6l2.3-1.9-4 .7c-6.1 1.2-17.5.7-22.3-1q-4.2-1.5-4.9-.4M464 331c-8.9 1.7-22.2 10.5-19 12.5q1.3.6 4.4-2.9c5.9-6.9 18.5-8.6 27.7-3.8a21.6 21.6 0 0 1 11.5 24.5c-.8 4.5-7.7 12.2-12.1 13.7-3 1-3.8.9-6.4-1.1-4.2-3.1-5.8-8.2-3.7-11.4 1.9-2.8 2.8-3 5.6-1.3 2.4 1.5 3.8.3 2.4-2-2-3.1-6.8-2.7-10.3.8-4.7 4.8-3.7 11.8 2.4 16.4 5.2 4 10 3.6 16.8-1.7a23 23 0 0 0 10.3-17.8c.6-5 .3-6.4-2.1-11.3A25 25 0 0 0 464 331m23.6 5.2c5.2 5.7 6.4 6.6 6.4 4.9 0-2.4-2.4-5.8-5.7-7.9q-8.4-5.3-.7 3M369.5 333c-.9 1.4.4 8.9 2.1 12.1 1.5 3 3.3 3.9 7.5 3.9 2.8 0 6.9-3 6.9-4.9 0-3.8-2.4-6.4-8.6-9.1-7.6-3.4-7.1-3.3-7.9-2m10.3 7.2q1.1 1.3 1.2 3.1c0 1.4-.6 1.8-2.7 1.5-2.2-.2-2.9-.9-3.1-3.1-.3-2.1.1-2.7 1.5-2.7q1.9 0 3.1 1.2"/><path d="M460.8 338.5c-4.3 1.4-6.6 3-5.6 4 .2.2 2.2-.2 4.3-1 10.2-3.6 19.7 0 22.8 8.7.8 2.3 2.3 2.3 3.1.1 1-2.4-4.2-9.2-8.3-10.9q-8.2-3.3-16.3-.9"/><path d="M460.8 344q-5.8 3.1-4.5 4.7c.3.3 1.8-.4 3.3-1.6q6.6-5.2 13.9 2.1c2.3 2.4 4.4 4.9 4.7 5.7q.4 1.4 2.1.8c4.7-1.8-6.4-13.7-12.7-13.7-1.7.1-4.8 1-6.8 2m-19.3 4c-2.9 4.7-2.1 15.9 1.7 22 2.9 4.9 4.3 2.6 2.4-4.1a47 47 0 0 1-1.6-11.5c0-6-1.1-8.7-2.5-6.4m6 2q-2.8 5.5 0 6.6 1.4.8 1.5 3.9c0 4.6.9 6.5 3 6.5 1.5 0 1.6-.7 1.2-5.3a27 27 0 0 0-1.8-8.1c-.8-1.6-1.2-3.8-.8-4.8.9-2.9-1.4-2.1-3.1 1.2m47.7 11.6a40 40 0 0 1-3.2 12.1c-2.4 4.1-2.4 4.3-.5 4.3.8 0 2.2-1.1 3.1-2.4 3.7-5.8 6-22.6 3-22.6-.9 0-1.7 2.5-2.4 8.6M405 361c0 6.3 8.2 11.4 15.4 9.6 3.7-.9 3.2-2.6-.8-2.6-5.5 0-8.1-1.5-10.1-5.9-2.1-4.9-4.5-5.4-4.5-1.1m-43.3-.7c-2.9 2.2-6.7 9-6.7 11.8q0 2.8 3 5.2c4.8 4.1 6.9 4.3 9.6 1.1q4.7-5.7-.3-11.5c-1.6-1.8-2.7-4-2.5-5 .4-2.3-1.1-3.1-3.1-1.6m2.7 10.3c1 1.4 1.6 3.3 1.4 4.2-.5 2.7-4.1 2-5.6-1.1-2.6-5.3 1.1-8 4.2-3.1"/><path d="M412 361.4c0 1.8 3.8 4.6 6.2 4.6 2.8 0 3.1-1.9.5-2.9-1.4-.6-2.8-1.5-3.2-2-.9-1.6-3.5-1.3-3.5.3m67 2.7c-1.2 1.6-1.9 3.3-1.6 3.6.8.9 5.6-3.7 5.6-5.4 0-2.2-1.8-1.5-4 1.8m-334.6 1.4c-3.8 5.9-1.9 14 4.1 16.6 1.1.5 2.8 1.4 3.7 2.1 2.2 1.6 2.6 1.1 3.4-4 .6-3.9.4-4.5-2.9-7.6-2-1.9-4.2-4.9-5-6.7l-1.3-3.4zm8.1 11.8q-.2 1-1.7 1.5c-1.9.4-5.8-3.1-5.8-5.2 0-1.1.8-1 3.8.5 2 1.1 3.7 2.5 3.7 3.2m280.5 4.1c0 1.9.5 3.8 1 4.1s1 1.5 1 2.6c0 2 2.5 3.7 3.7 2.5.3-.3-.2-3.3-1.2-6.6-2-6.7-4.5-8.1-4.5-2.6m-10.3-.7c-.4.3-.7 2.8-.7 5.5 0 3.6.4 4.8 1.5 4.8q1.3 0 1.6-.8 1.3-10.3-.5-10.2c-.7 0-1.6.3-1.9.7m55.4 10.1q-1.1.6 6.1 7.7 7.5 7.2 11.4 14.4c3.3 6.3 3.9 6.9 4.2 4.7.5-3.9-5.5-14.4-11.8-20.4-6.1-6-7.9-7.2-9.9-6.4m-50.6 6.2q-1.2 2 5.2 9.1 5.3 5.8 5.3 2.8c0-1.5-7.9-12.9-9-12.9q-.9 0-1.5 1m19.5 35.2-.3 12.8c-.3 11.6-.6 13-3.4 19.2a26 26 0 0 1-5.7 8.3c-3.1 2-3.4 3.5-.7 3.5 2.9 0 8.6-7 11.1-13.6 3.5-9.2 3.6-29 .2-30.2q-1-.3-1.2 0m49.1 27.3a67 67 0 0 1-5.8 13.1c-2.7 3.6-2.8 4.4-.8 4.4 3.8 0 11.1-17.5 10.3-24.5-.2-2.3-1-.9-3.7 7M134 476.2c-2.5 4.2-2.6 9.9-.2 12.1 1 1 2.2 1.7 2.7 1.7s1.6.7 2.6 1.6c1.4 1.2 2.2 1.3 3.9.4s2.1-1.9 1.8-5.3c-.3-3.8-.7-4.4-4-6-3.7-1.7-4.2-2.4-3.9-6q.4-3.9-2.9 1.5m7.8 10.1c.3 1.5 0 1.5-3 .3-1.8-.8-3.4-2.2-3.6-3-.3-1.5 0-1.5 3-.3 1.8.7 3.4 2.1 3.6 3m354.7-5.3a25 25 0 0 1-5.8 4.6c-4.7 2.5-15 5.4-19.2 5.4-4.3 0-7.4 1.4-6.2 2.6.4.5 2.8.3 5.2-.4s5.9-1.2 7.5-1.2c7.4 0 23.1-9.2 21.9-12.9q-.6-1-3.4 1.9m-90.3 4.2c-2.5 2.5-.6 6.5 4 8.1 2.5.9 4.2-1.7 2.2-3.4-.9-.7-2-2.3-2.5-3.6-1-2.6-1.9-2.9-3.7-1.1M391 499.4c-7.4 2.1-10.8 4.4-13.6 9.2-1.4 2.4-2.4 4.8-2.1 5.1.4.3-.3 1.7-1.3 3.1-2.3 2.9-2.6 7-.7 9.7 2.2 2.9 3.7.8 3.7-5.1q0-5.3 1.6-7.2l3.8-5.2c2.6-4.2 9.8-8.4 14.5-8.5 1.9 0 3.6-.6 3.8-1.3.6-1.5-3.6-1.5-9.7.2m-23.9 17.2c-3.9 5-2.9 22.5 1.3 21.1q1-.4.8-8.9c-.3-5.4.1-9.4.8-10.8 1.9-3.5-.3-4.7-2.9-1.4m129.8 5A17 17 0 0 1 485 527c-3.7 0-4 1.7-.4 2.6 5.4 1.4 15.4-4.3 15.4-8.7 0-2.4-.2-2.4-3.1.7m-121.3 13.3c-.4.5-.4 1.6 0 2.4q.3 1.4-1 2-4.6 2 3.9 10.2c7.1 6.8 11.3 8.8 18.9 8.8 10.2.1 20.1-3.7 17.6-6.8-.5-.6-.7-1.5-.3-1.8.8-.9-2-.9-6.9-.1-2.1.4-3.8 1.1-3.8 1.6s1.6.7 4 .3c5.9-1 5 1.1-1.2 3a39 39 0 0 1-8.2 1.5 27 27 0 0 1-16-8.1c-4.7-4.3-6.2-6.9-2.6-4.7 3.8 2.4 3.8-1.7-.1-6.6q-3-4-4.3-1.7m-238.8 1.8c-.9.2-2.3 1.9-3.2 3.6-3.2 6.9 2 16.2 8.8 15.5 2.8-.3 3.1-.6 3.4-4.2.3-3.2-.2-4.3-3.2-7.3-2.7-2.8-3.4-4.1-3-5.9.6-2.4.4-2.6-2.8-1.7m3 10.4c4.7 5.2 5.1 6.3 2.1 5.4-3.1-.9-6.9-5.1-6.9-7.6 0-2.7.5-2.4 4.8 2.2"/><path d="M384 544.8c0 1.4 3.5 4.2 5.3 4.2 2.2 0 2.2-1.9 0-3.6-2-1.5-5.3-1.8-5.3-.6m114.4 3.6c-.3.8-.1 2.3.5 3.3.9 1.5 1 1.3 1.1-1.5q-.1-5.3-1.6-1.8m-19.8 2.4c-.3.5-.2 2.9.2 5.3.9 5 3.5 6.5 4.7 2.7l.7-2.3.7 2.5c1 3.7 4.1 3.9 4.1.3q-.1-5.8-3.6-4.9-2 .6-2.9-1.6c-1.1-2.4-3-3.4-3.9-2m-358.4 9.1c-.6.3-1.8 2.4-2.7 4.4-1.2 3-1.3 4.6-.5 7.7 1.1 4.2 1.8 4.9 6.8 6.6 9.7 3.4 12.3-8 2.7-12-2.7-1.2-3.5-2.1-3.5-4q0-4.3-2.8-2.7m1.8 9.6c.7.8 2 1.5 2.9 1.5 2.9 0 5.5 2.5 4.7 4.5q-.6 2-1.8.7c-.7-.7-2-1.2-3-1.2s-2.7-.9-3.8-2c-2-2-2.7-5-1.1-5q.9.2 2.1 1.5m294.2-3.3c.3.7 1.7 1.4 3.2 1.6q3 .5 2.4-1c-.3-.7-1.7-1.4-3.2-1.6q-3-.5-2.4 1m-16 2.1c-1.5 1.8.4 7.7 2.5 7.7 1.1 0 1.3-1 1.1-4.2-.3-4.4-1.8-5.8-3.6-3.5m85 2c-.6.6-2 4.1-3.2 7.7-1.8 5.5-3.3 7.7-9.7 14.2a64 64 0 0 1-13.1 10.4c-5.2 2.6-6.5 2.8-18.4 3-7 .1-12.8.6-12.8 1.1-.1 1.6 11.5 2.5 20.6 1.5 7.9-.8 10-1.4 15-4.5a70 70 0 0 0 20.1-19.7c3.6-8.3 4.7-17.6 1.5-13.7"/><path d="M472.6 583.8a18 18 0 0 1-3.5 4.6q-4 3.6-.1 3.6c2.2 0 8.5-8.4 7.5-10q-1.6-2.6-3.9 1.8m-67.1.5c-.8 2 2.1 7 3.8 6.4q2.9-.7-.7-5.2c-2.1-2.6-2.5-2.8-3.1-1.2m82 2.5c-.6.4-4 4.1-7.7 8.3s-9 9.1-11.8 10.9a54 54 0 0 1-29.7 6.7q-12.3-.9-6.4 2.3c5.8 3.1 27.4-.3 37-5.7 8.3-4.7 22.6-20.2 20.5-22.3q-1-.8-1.9-.2m-73.2 6.8c-.3.8.2 2.1 1.3 2.9 3.7 2.7 16.4 4.7 16.4 2.6 0-1-3.5-2.1-7.1-2.1-1.4 0-4.3-1.1-6.3-2.5-3.1-2.1-3.8-2.2-4.3-.9"/><path d="M461.9 594.8a35 35 0 0 1-17.3 4.6c-2.8.1-5 .6-4.8 1.1.1.6 3.5 1 7.5.9 8-.1 18.7-4.1 18.7-6.9q.1-3-4.1.3m-92.4 10.3q.8 10.8 7.5 10.9c1.4 0 3.5.7 4.6 1.5 3.8 2.9 7.4.8 7.4-4.3 0-2.9-3.9-7.2-7.9-8.9-2-.9-4.6-2.4-6-3.4a9 9 0 0 0-4.2-1.9c-1.6 0-1.8.7-1.4 6.1m14.6 5.2q2.6 5-3.6 3.7c-1.9-.4-4.2-1.4-5-2-1.5-1.2-2-5.1-.9-6.2 1-1 8.5 2.5 9.5 4.5m-241.6-4.9c-1.2 7.4.7 9.2 10.4 9.8q7.4.6 5.7-5.6c-.8-3.2-6.2-6.7-9.1-6q-2.1.4-3.4-1c-2.1-2.5-2.9-1.9-3.6 2.8m13 4.6c.8 1.2-5.2 1.2-8 0q-2.4-.9 2.7-.9c2.6-.1 5 .3 5.3.9m206 28.7c-1.6.9-3.3 2.1-3.7 2.7-2.7 4 1.8 11.2 6.4 10.3l2.3-.4-2.3-.8c-3.5-1.2-4.5-8.6-1.2-9.3 1.9-.3 5 4.7 5 8.2q0 4.2 2.8 1.4c1.8-1.8 1.4-4.5-1.4-9.4-2.8-4.8-3.5-5.1-7.9-2.7m-1 32.1a15 15 0 0 0-4.5 8.2c0 2.7 4.9 7.7 8.2 8.5 1.4.4 4.1 0 6.2-.9q8-3.5-1.9-8.7c-2.9-1.5-5.1-3.3-5.3-4.5q-.8-3.9-2.7-2.6m1.5 7.1c0 .5 1.6 1.5 3.5 2.1 2.7.9 3.5 1.7 3.5 3.6 0 3.1-3.5 3.3-6.7.2-2.3-2.1-3.2-6.8-1.3-6.8q1 0 1 .9m-14.1 2.3v10.6q.3 1.1 1.1.7c.6-.3 1-2.8 1-5.5s-.4-5.2-1-5.5q-.9-.5-1.1-.3m-209.8 8.4c-2.6 3.3-2.7 8.5-.3 10.6.9.9 3.2 2.3 5.1 3.3 3.2 1.6 3.4 1.6 5.7-.6 1.3-1.2 2.4-3 2.4-3.9 0-1.8-6-8-7.8-8q-1.1-.2-1.2-2-.2-4-3.9.6m7.7 8.2c1.3 1.9 1.2 2.2-.3 2.8-1.9.8-4.3-.4-5.8-2.8-.6-.8-.7-2.3-.3-3.3.6-1.5.9-1.6 2.8-.3 1.2.8 2.8 2.4 3.6 3.6m241.4-9.6c-.7.7-1.2 2-1.2 2.9a4 4 0 0 1-1.4 2.8c-3.2 2.7 1.4 9 7.4 10.1 4.5.8 9-.9 9-3.4 0-.6-2.8-4-6.3-7.4-4.9-4.9-6.5-6-7.5-5m5.9 8.1c5.5 2.9 6.7 6.7 2.1 6.7s-7.7-3.3-7.3-7.8c.1-1.6 0-1.6 5.2 1.1m-2.7 128.6c-2.6.9-5.6 2.8-6.7 4.2-1.7 2.3-1.8 3.2-.8 6.2.7 1.9 2 4.2 3 5.1a24 24 0 0 0 15.2 4.1q7.8-1.4 6.3 6.9c-.3 2.2-.8 4.4-1.1 4.8-.2.5-3 .8-6.1.8-5.6 0-5.8-.1-10.4-5.1-3.8-4.2-5-4.9-6.5-4.1-1 .6-1.8 2.3-1.9 4.1a8 8 0 0 1-5.1 7.2q-2.4.9-1.6 2.5c.5 1.3 1.5 1.5 5.7 1 2.8-.4 10.6-.8 17.3-1q18.2-.5 18.3-4.1c0-.6.9-2 2-3q2-1.8 2-6c0-8.3-6-11.9-15.9-9.5-4.2 1-5.4.9-8.3-.6-4.2-2.1-4.8-3-4.8-7.7v-3.8l5.3.3c4.8.3 5.2.5 5.5 3 .4 3.6 2.7 5.5 4.7 3.8 1.4-1.1 4.1-8.8 3.3-9.5-.2-.1-3.5-.5-7.4-.7-5.1-.4-8.6 0-12 1.1m-47.9-.2c-5.2.8-7.4 3.9-3.2 4.5 2.2.3 2.2.4 2.2 17.1a62 62 0 0 0 1 16.8c8.6 1 15.5.1 15.5-2q-.2-.9-2.2-1.3c-2.1-.3-2.3-.9-2.6-6.9l-.3-6.7 6.2-1.1c9.3-1.6 12.2-3.7 13.3-9.5q1.5-8.5-4-10.6c-2.5-1-19.9-1.1-25.9-.3m18.3 4.9c3 .8 3.9 4.7 1.7 8-1.3 2.1-2.3 2.5-5.3 2.2-3.5-.3-3.7-.5-4.4-4.7-.4-2.4-.5-4.8-.2-5.2.6-1 4.9-1.1 8.2-.3m-45.8-3.1c-1.3 1.6-.6 3.5 1.5 3.5 2 0 2.5 2.4 2.5 13v9.9l-3.2 1.5c-8.9 4.5-13.3.5-14.5-13-.6-7.5-.6-7.6 2.3-9.9 2.5-2 2.7-2.5 1.5-3.9-2-2.4-17.4-1.9-17.9.5q-.2 1.6 1.8 2.2c1.8.5 2 1.3 2 9.2 0 6.5.5 9.8 2 13.3 3.1 7.2 3.4 7.5 7.6 10q8.8 5.2 17.8-2.4a20 20 0 0 0 5.2-5.8c.4-1.1.8-6.6.9-12.2.2-7.5.7-10.8 2-12.7.9-1.4 1.4-3.1 1-3.7-1-1.6-11-1.3-12.5.5m-259 .7q-1.8.8-1.4 2.2c.6 1.5-2.9 11.6-4.9 14.3-.5.7-2.2 3.9-3.7 7.1s-3.9 7.7-5.4 10a33 33 0 0 0-2.6 4.7c0 .7 8.6.6 9.3-.2.4-.3.2-1.2-.4-1.9-.8-1-.6-2.2 1-4.6 1.1-1.8 3-5.2 4.1-7.4s2.5-4.6 3.2-5.2c1.8-1.4 8.5-1.9 9.7-.7a35 35 0 0 1 1.3 10.5l.3 9.5 5 .1q9.3 0 6.1-2.5c-2.3-1.9-2.3-28.8-.1-33.1q1.3-2.7.6-3.5c-1.3-.7-19.7-.2-22.1.7m9 12.3c-1.4 1.7-6 2.1-6 .4 0-.6 1.2-3.1 2.7-5.7l2.8-4.7.9 4.2c.6 3.1.5 4.7-.4 5.8M97.6 827c-8.9 3.5-12.6 8.8-12.6 18.1 0 6.2 2.7 11.5 7.5 14.6 4.2 2.8 14.3 4 20.1 2.4 4.4-1.2 12.4-6.4 12.4-8.1 0-2.3-3.1-2.1-6 .4-3.8 3.1-9.2 4.3-12.8 2.7-1.4-.7-4.3-2.6-6.4-4.2-3.4-2.7-3.8-3.6-3.8-7.5 0-3.6.6-5.1 3.6-8.4 4.1-4.5 5.4-5 5.4-1.9 0 1.7.5 2 3.2 1.7 2.4-.2 3.8-1.2 5.6-3.8l2.3-3.5-2.6-2.2c-3.3-2.9-9.1-3-15.9-.3m160.7.2c-7.7 2.3-10.6 5.8-12.3 14.5-1.5 7.4-.5 10.7 4.4 15.5a21 21 0 0 0 17.9 6.4c9.1-.9 21-7.6 18.4-10.3q-.9-.6-2.1.2c-5.4 4-7.1 4.7-12.3 5.2-5.1.4-6.3.1-10.1-2.4q-8.5-5.5-4.4-14.6c3.7-8 11.7-12.9 10.5-6.3-.5 2.3-.2 2.6 2.5 2.6 2.3 0 3.7-.8 5.6-3.3 4.6-6.1 3.1-8.1-6.4-9q-5.6-.5-11.7 1.5"/><path d="M126.5 827a103 103 0 0 1 .8 20c-.2 10.3-.5 12.7-1.9 13.7-2.6 1.9 0 4.4 4 3.8 1.7-.2 6.7-.4 11.2-.4 7.7-.1 8.2-.2 12.2-3.7 6.2-5.3 3.2-7.9-3.4-2.9-2.6 2-4.4 2.5-8.7 2.5h-5.5l-.4-5.9c-.4-8-.1-9.1 2.9-9.1q2.5 0 3 2c1.2 4.6 5.6 1 5.1-4.2-.3-3.8-3.4-5.1-5.4-2.3-1.6 2.1-4.9 1.6-4.8-.8l.2-5.7.2-4h5.5c4 0 5.6.4 6.3 1.7 1.5 2.6 4.4.9 4-2.4l-.3-2.8-12.2-.2c-7.1-.2-12.4.1-12.8.7m77.4 9.9c-1.7 1.3-2.3 2.9-2.3 5.6 0 3.1.7 4.4 4 7.5 4.5 4.1 10.4 12.8 10.4 15.2 0 .9-1 2.2-2.2 3.1-2.8 1.8-1.8 3.2 1.6 2.3 3.9-1 4.9-3.8 3.6-9.8-1.1-5.5-.6-7.3 1.4-4.5 1.5 1.9 3.2 2.2 4.1.7.7-1.1-5.2-14-6.4-14-1.7 0-2.9 2.5-2.4 5.1q.4 2.7-.5 2.9c-1.7 0-8.2-6.6-8.2-8.3 0-2.4 1.6-2.9 3.4-1.1s4.6 1.2 4.6-.8c0-.8-.7-2.4-1.6-3.6-1.9-2.7-6.3-2.9-9.5-.3"/><path d="M195.5 852c-2 2.2-2.3 7.4-.4 9.6 1.7 2.1 9.2 1.8 11.2-.4 2.3-2.6 2.1-4.5-.9-8.1-3-3.7-7.2-4.1-9.9-1.1m7.1 3.5c.4.8.4 2.2 0 3-.7 1.9-3.6.8-3.6-1.4 0-3.2 2.6-4.3 3.6-1.6m232.9-3.8c-3 .7-3.8 1.9-3.1 4.7.5 2.1 1.2 2.6 3.9 2.6a10 10 0 0 0 5.2-1.4c1.8-1.3 1.8-1.5.2-4-1.7-2.6-2.4-2.8-6.2-1.9"/></svg>