<svg xmlns="http://www.w3.org/2000/svg" width="666.7" height="1170.7" viewBox="0 0 500 878"><path d="M242.2 12.2c.3.7 2 1.5 3.9 1.8l3.4.5v8.4c0 9.9-1 12.7-4.5 12.3-3-.3-5.5 1.2-4.6 2.6s37.4 1.4 40 0c1.8-1 1.8-1.1.2-2-.9-.5-2.6-.6-3.7-.3-3.9 1.3-4.9-1-4.9-11.6v-9.8l4.7-.3c2.6-.2 4.8-.9 5.1-1.6.3-.9-4.1-1.2-19.8-1.2s-20.1.3-19.8 1.2m23.1 3.1a72 72 0 0 1-1.2 20c-1.6 1.6-7.8-.1-8.4-2.3a67 67 0 0 1 0-10.4l.6-8.6h4.2c2.6 0 4.5.5 4.8 1.3M164 52.4c-1.9 1.7-8.9 3.5-20 5.1-8.4 1.3-16 3.6-18.3 5.6a38 38 0 0 1-15.5 7.9Q107 71 98 76.4c-6.4 3.9-9.8 5.4-12.4 5.4-4.2 0-5.7 1-9.7 6.9q-3 4.4-5.3 4.3c-1.7 0-3.3 1.4-5.9 5.2a44 44 0 0 0-4.3 7.8c-.4 1.4-1.7 3.8-3 5.5a18 18 0 0 0-2.9 7c-.4 2.2-1.6 4.9-2.6 6s-2.4 3.8-3.2 6l-2.2 5.8q-1 2 1.4 2.4 1.8.5 1.5 1.5-.6.8-1.9-.2c-1-.8-2-.3-4.4 2.2a13 13 0 0 0-3.1 4.5c0 .7-.9 2.7-2 4.5-4.7 7.7-.6 11 7.7 6.2 2.6-1.5 6.4-4 8.4-5.5 2-1.6 4.4-2.8 5.5-2.8a30 30 0 0 0 16.6-4.4c3.7-2.1 7-4.2 7.3-4.7s2.1-1 4-1 4.6-.5 6.2-1.1c3.6-1.5 8-2.6 17.6-4.5 7.4-1.4 8-1.4 9.1.2s2.4 1.6 8.5 1.1c6.7-.6 7.2-.5 6.6 1.3-1.8 5.8 16.3 7 26.4 1.7 4.9-2.5 5.5-2.6 7.1-1.2.9.8 2.2 1.5 2.8 1.5.7 0 2.3 1.8 3.7 4 3.7 5.8 6.3 7.2 14.2 7.2 3.8.1 7.8-.2 8.9-.6 1.7-.5 2.4 0 3.4 2.5 1.2 2.9 1.6 3 5.6 2.6 3.9-.5 4.2-.4 4.7 2.1q3.1 16.3 11.5 16.2 2.9.1 5.3 2.6c3.5 3.8 7.2 5.4 12.2 5.4 3.6 0 5.3.7 9.1 3.7 4.4 3.6 4.7 4 4.2 7.5q-.6 3.7 1.2 8.5a42 42 0 0 1 1.6 16.7c-.1 6.5-.6 12.2-1.1 12.7s-3.9-1.5-7.8-4.4c-8.6-6.5-19.6-21.7-17.5-24.2 1.5-1.8 3.1-2 2.7-.3-.3 1.8 6.2 1.4 8.1-.5 1.3-1.4 1.3-1.9-.1-5-2-4.1-2.9-4.9-8.7-7-9.2-3.4-16.4-1.2-16.2 4.9.1 4.1 4 15 7 19.9a68 68 0 0 0 26.2 22.1c0 .2-1.7 1.2-3.8 2.3-5.5 2.8-11.9 10.2-12.8 14.6q-2.3 11.7 5.2 25 4.7 8.4 7.3 9.5c1.4.6 3.7 1.9 5 2.9l2.5 1.9-2 2.8c-1 1.6-2.1 4.7-2.4 6.9-.5 4-.5 4-4.5 3.7-2.2-.2-7.1-1-10.8-1.8-15.4-3.2-45.2-.1-52.6 5.4-3.8 2.8-4.3 7.5-1 9.4s4.4 5.3 12.5 34.8a44 44 0 0 1 2.1 13.2q-.5 3.6.9 5.5c2.2 2.9 1.7 3.7-4.4 7-4.8 2.7-6.4 3.1-10 2.6-2.6-.4-5.2-.1-6.6.7-5.4 2.8-6.1 1.8-15.2-20.3-2.8-7-6.4-14.6-7.9-16.7l-4.4-6.9a148 148 0 0 0-16.9-25.4 22 22 0 0 0-8.3-5.1c-3.9-1.2-4.4-1.7-4.7-4.5-.4-4.3 2.2-7.3 5.5-6.5 3.1.8 6.3-2 6.3-5.5 0-1.4.7-3.7 1.5-5.1s1.8-3.3 2.1-4.3 1.4-1.7 2.3-1.7c1 0 2.4-.6 3.3-1.3 1.3-1 1.4-2.2.5-8.5s-.8-7.7.6-10.8c1-1.9 2.2-7 2.8-11.2q1-7.8 3-9.5c1.9-1.8 2.5-3.7 1.2-3.7q-1-.1-2.3-1c-1.2-.7-1.1-1.3.9-3.4 1.4-1.4 2.2-2.8 2-3.1-.9-.8-7.3-.9-9.2 0q-2.1 1-1.5-1.1c.3-1.7-.4-1.9-6.7-1.9-3.8 0-7.9-.5-9-1.1s-6.1-1.5-11.2-1.9a47 47 0 0 0-24.9 4.2 38 38 0 0 0-16.5 17c-1.8 4.1-2.9 5.3-4.6 5.3-3 0-5.4 7.1-3.5 10.1 1 1.6 1 2.4-.3 4.2q-3.7 5.6 1.5 5.7c3.5 0 3.5.1 1.4 4.2-1.5 2.9-1.5 3.1 1.1 5.8 2.2 2.3 2.5 3.1 1.6 4.8s-.7 2.6 1.2 4.8a9 9 0 0 0 4.8 2.9c1.3.1 2.4.7 2.3 1.3l-.2 3.7c-.2 3.3-4.4 7.1-8.6 7.9-3.3.6-11 7.6-13.3 12.2-1.4 2.5-2.7 15.6-2.9 27.4-.2 18.7-1.4 42.1-2.4 46.3-.5 2.3-.8 15.9-.6 30.2.2 16.5-.2 32.4-1.1 43.5-.8 9.6-1.6 29.6-1.9 44.5l-1 47c-.3 11-.6 44.4-.5 74.2L41 682h-3.6a26 26 0 0 0-8.8 2.4 53 53 0 0 1-16.6 3.8L.5 689.5l-.3 3.3c-.3 3 0 3.4 4.3 5.2 3.8 1.6 6.9 2 17 2 11.9 0 15.1-.8 12.8-3.1-.4-.4-7.2-.9-15-1-11-.1-14.5-.4-15.4-1.5q-1-1.3-.8-1.9c.3-.2 5.7-.8 12.2-1.4 9.4-.8 12.2-1.4 14.6-3.2 1.7-1.2 4.6-2.2 6.8-2.3 3.6-.1 3.8.1 4.1 3.1.2 1.8-.4 4.3-1.3 5.6-.9 1.4-1.5 2.9-1.4 3.3.8 4.4.7 4.4-15.9 3.7-12-.4-16.1-.3-16.6.6-1.3 2.1.3 2.6 9.2 2.7 4.8.1 12 .5 16 .9l7.2.8v4.2c0 4.3 2.8 8.4 4.8 7.1q2.8-1.5 3.1 8.2l.2 6.3-15.8-.1c-28.1-.2-30.3-.1-30.3 1.4 0 2.2 7.5 2.8 32.3 2.5 22.6-.3 23-.3 24.4 1.8.8 1.2 1.2 2.7.8 3.3q-.7 1-28.1 1c-15.1-.1-27.9.2-28.4.5q-1 .7-1 2.1c0 1.2 4.4 1.4 29 1.4h29v2.8c0 1.5.9 5.1 1.9 8 1.1 3 1.8 5.9 1.5 6.5-.3.7-3.1 2.4-6.4 3.9a21 21 0 0 0-7.6 5.3c-1.5 2.3-1.5 3.1-.3 6.7 2.2 6.6 3.1 7.1 12.6 6.5 8.1-.5 8.4-.4 8.1 1.7-.3 2 .1 2.1 5.7 1.8 7.8-.4 12.3-1.8 15.7-5 2.7-2.5 2.8-2.5 4.8-.7 1.1 1 4.4 2 8.2 2.5s8.8 1.9 12.3 3.7c8.9 4.5 21.6 5 39.3 1.7 3.3-.6 3.1-6.7-.3-9-4.6-3-3.1-4.2 6.1-4.9 7-.6 9.1-1.2 11.5-3.2s2.7-2.8 1.8-3.9c-1-1.3-1.7-22-.7-22.9.1-.1 47.1-.4 104.3-.6l104-.4.3 3.4c.6 5.9-.7 9.7-4.9 14.5a58 58 0 0 1-24.4 13.2c-21.8 6.5-24.7 16.3-5.7 19.5q22 3.6 54.5-5.5c3.2-.9 6.8-1.6 8.1-1.6s3.5-.9 5-2.1c2.2-1.7 2.6-2.7 2.4-6.2-.3-4-.2-4.1 3.2-4.8 3-.5 7.2-1.7 24.5-7a28 28 0 0 1 6.8-.9c10.4 0 15.4-8.1 10.8-17.6-1.1-2.1-1.8-4-1.6-4.2.1-.1 9.3-.4 20.4-.4l20.1-.2v-2.4c0-2.3-.2-2.4-4.5-1.8a174 174 0 0 1-38.7-1.1c-.5-.2-.8-1.4-.8-2.7v-2.3l22 .4c21.4.3 22 .2 22-1.7s-.8-2-16.2-2.2c-31.1-.3-27.9.1-29.9-3.4-.9-1.7-1.9-6-2.2-9.5s-.8-7.8-1.1-9.4l-1.7-8.5c-.6-3-1.5-7.2-2.1-9.2-.9-3-.8-4.6.6-8.2.9-2.4 2.4-4.7 3.2-5 1.8-.7 22.5 1.9 25.1 3.2 6.3 3.1 9.4 4.2 13.8 4.9 3.7.6 5.1 1.3 5.3 2.7.3 1.6-.1 1.7-3.8 1.1-3.3-.6-4.1-.4-3.8.6.4 1.2 3.1 2.2 10.1 3.6 2.6.5 2.7.4 2.7-4s0-4.5-4.4-5.6c-2.5-.6-5.6-1.1-6.9-1.1a6 6 0 0 1-3.7-1.4c-.6-.8-2.7-2-4.6-2.6q-6-2-1-4c4.5-1.7 6.3-9 2.9-10.9-1-.5-2.9-3.4-4.3-6.5-2.1-4.9-3-5.8-6.2-6.8-4-1.2-6.8 0-6.8 2.7 0 .8-1.3 1.6-3 2-4 .9-7.3 5.2-6.5 8.5 1.6 6.8 1.8 11 .4 11-4.3-.1-5.6-1.2-5.6-4.8q0-3.7-3.2-8.3a19 19 0 0 1-3.1-7.3 7 7 0 0 0-2.6-4.9c-1.4-1.2-4.4-4.2-6.7-6.6l-9.8-10c-12.6-12.7-19.1-26.8-16.9-36.7a116 116 0 0 0 1.3-14.7c.3-6.5.9-11.3 1.7-12.2 1.6-1.9 5.4-1.9 8.4.1 2.2 1.3 2.8 1.3 6 0 2.8-1.2 3.6-2.1 3.6-4q0-4.2 2.8-1.4c1.8 1.8 5.9-.5 8.3-4.7 1.2-1.9 2.8-3.5 3.6-3.5 2.7 0 10.2-5.1 13.4-9.1 2.7-3.4 3-4.4 2.1-6.3s-.7-2.7.6-4c1.6-1.5 1.5-2-.1-6.4-6-16-10-29.2-15.3-49.7a147 147 0 0 0-20.4-49.6c-4.2-6.1-4.8-9.1-2.9-14.3.8-2.3 2.4-3.7 6-5.3 4.7-2.1 5.1-2.6 10-12.8a52 52 0 0 0 5.9-17.3 59 59 0 0 1 8.7-26.2c1.1-2.5 3.2-5.6 4.7-6.9 1.4-1.4 2.6-3 2.6-3.8q.1-1.2 1.1-1.3c1.5 0 .6-19.2-1.1-23.5a78 78 0 0 1-2.2-8.5c-1.6-8.7-4.3-12.8-15.9-24.2a123 123 0 0 1-10.9-11.3c0-2.1-9-7.6-13.9-8.4-2.8-.5-3.8-1.4-6.3-6.3-3.3-6.4-3.1-8.2.9-6.7 3.2 1.2 6-.6 4.2-2.7-.9-1.1-.8-1.8.1-2.9 1.3-1.6 1.1-1.8-4.3-2.9-4.5-1-2-2.8 2.9-2 5.1.7 6.1-1 1.7-2.7l-2.8-1.1 2.4-1.2c4.2-2.3 3.8-15-.5-16.6a33 33 0 0 1-12-12.2c-2.6-5.1-11.1-10.5-21.8-13.8-7.4-2.4-23.6 1-32.3 6.7a7 7 0 0 1-5 1c-1.7-.3-4.3.3-6.8 1.5-6.5 3.3-7.5 4.6-7.5 9.9 0 2.6-.4 5.1-1 5.4-1.8 1.1-1.2 7.3.9 8.4 2.2 1.2 3.5.3 2-1.5-1.6-2-.2-6.6 1.9-6.2q1.7.3 1.8 3.6t2.2 4.8c1.1.7 2.2 2.8 2.5 4.6l1.6 7.6c.6 2.4 1.2 6.5 1.2 9.2.2 5.2 1.7 7.5 5.4 8.2q2 .4 5.6 7.3c2 3.9 4.2 7.6 4.8 8.2 1.6 1.8 5.6 1.6 9.3-.3q3-1.5 4-.6t-2.1 1.7a8 8 0 0 0-3.7 1.6c-.3.5-2.6 2-5.2 3.3a20 20 0 0 0-5.9 4.4c-.6 1.1-2.7 2.2-4.5 2.6s-4 1.2-4.9 1.9c-3 2.4-9.9 11.9-9.9 13.8 0 2.3-2.2 2.4-8 .4-2.3-.8-7-1.5-10.4-1.4l-6.1.1 7.5 1.7c12.2 2.9 17.7 5 18.3 7.1q1 4.3-3 1c-3.4-2.7-12.3-4.4-22.8-4.3-9.4 0-13.5.8-13.5 2.4 0 1.2 8.7 1.2 9.5-.1 1.4-2.2 23.5.8 23.5 3.2q-.1 1-2.2.4a66 66 0 0 0-22.7-.4c-10.7 1.9-10.4 3.7.6 3.1 10-.5 23.4 1.5 24.1 3.6q.4 1.3-1.4.8a83 83 0 0 0-10.3-1.2c-6.8-.6-8.3-.5-7.9.6q.6 1.4 8.9 2.5l8.7 1.3c.1 0-.2 1-.8 2.1-.8 1.5-1.5 1.8-3.3 1.1-4-1.6-13.3-4.1-15-4.1-.9 0-1.9.4-2.2 1-.7 1.1 4.4 3.4 10 4.4 4.7.9 7.7 2.4 7.1 3.5-.3.5-2.9.2-5.8-.5-6.7-1.8-13.1-1.8-12.6-.2.3.7 3.7 1.7 7.6 2.3a26 26 0 0 1 8.3 2.2c2 2-.9 2.5-6.7 1.3-4-.8-5.9-.9-6.7-.1-1.2 1.2-.3 1.7 6.8 3.4 6.5 1.7 5.2 3.3-2.4 2.9-8-.4-8.1 1.8-.1 3.3 3 .6 5.5 1.6 5.8 2.3.5 1.5-.7 1.5-6.4.1-3.3-.9-4.8-.9-5.6-.1-1.6 1.6-.8 2.2 4.8 3.6 7.2 1.8 6.8 3.5-.7 2.9-5-.5-6.1-.3-5.7.8.3.8 2.2 1.5 4.6 1.7 3.4.3 5 1.2 8.9 5 7.3 7.2 7.8 7.9 6.3 9.7-.7.8-2 1.5-3 1.5-1.4 0-1.8-.8-1.7-3.6.1-2.9-.5-4.1-2.8-6-1.8-1.4-3.7-2.1-4.8-1.8s-2.9-.1-4.2-1c-1.7-1.1-4.1-1.4-8.9-1.1q-6.6.5-6.6-.6c0-1.1 1.2-.9 3-.7 1.7.3 3.4 0 3.7-.5.8-1.3-1.9-2.8-3.9-2.1q-1.6.4-1.8-.5c0-.5 1.7-1.1 3.7-1.3 5.5-.5 5.7-3 .2-2.8-6.3.3-6.9.2-6.9-1.4q0-2.6 6.6-2.6 3.3 0 2.9-1c-.3-.6-3.1-1-6.1-1-4.1 0-5.4-.4-5.4-1.5s1.2-1.5 4.5-1.5c2.5 0 4.5-.5 4.5-1 0-1.2-1.1-1.4-6.1-1.1q-3.4.2-4.8-1.3c-1.8-2.1-.6-3.4 2.4-2.8 2.8.5 3.4-1.2.8-2.6-1.4-.9-1.4-1.1.6-2.1 3.1-1.7 1.6-3.2-1.9-1.9q-2.9 1-2.8 2.6c.6 3.1-2.3 2.3-3.6-1q-3.7-8.8-1.5-8.8c2.8 0 8.9-2.1 8.9-3 0-.6-1.9-1-4.2-1-4.2-.1-8.4-2-7.1-3.3.3-.4 2.5-.7 4.7-.7s4.7-.4 5.5-.9c1.9-1.2 2.2-5.1.5-5.8a52 52 0 0 0-16.1 5q-1.4 1.2-1.3-1.6 0-4.5 5-4.5a33 33 0 0 0 7-1.2c5.2-1.3 6.4-1.5 18-3.4 4.7-.7 8.1-1.5 7.5-1.6a84 84 0 0 0-31.9 2.6c-2.2.8-4.2 1.2-4.5.9s-.4-2.3-.3-4.3c.2-3.5-.5-5.1-5-11.5-1.1-1.5-.5-2.4 4.9-7.2 10.1-9 14.8-22.6 11-31.8-2-4.6-9.3-13.4-11.8-14.2-3.1-1-2.2-2 4.9-5.3 12.9-6.2 21-13.1 25.5-22.2 3.7-7.3 3.8-16.6.4-19.8-2.8-2.7-12.7-3.3-12.7-.8q-.1 1.3-1.7 1c-2-.5-7.3 3.9-7.3 6 0 2.3 4.5 5.6 7.7 5.6 3 0 8.3-3.8 8.3-6q.1-.9 1.5-1c2.1 0 1.9 2.6-.4 4.2-1 .7-2.2 2.9-2.6 4.8a51 51 0 0 1-13.1 18.8c-3.9 3.2-14 7.6-15.5 6.6-1-.6-1.2-16.8-.3-23.7.5-3.7 1.1-4.7 2.8-4.9s2.2-1.1 2.4-3.5c.4-3.8 3.4-6.5 13-11.3 3.5-1.8 8-5 10-7.1 3.1-3.3 4.3-3.9 7.8-3.9 3.6 0 4.7-.6 7.8-4 2-2.2 3.6-5 3.6-6.3s1.3-3.6 2.9-5.1 3.7-4.5 4.7-6.7c1.3-3 2.1-3.8 3.3-3.2a41 41 0 0 0 19 0l11.6-4.7c4.4-1.8 9.5-3.4 11.3-3.5 5.9-.5 10.5-1.6 12.5-3a4 4 0 0 1 4.1-.5c2.5.9 10.9.5 12.7-.6.7-.4 4.2-.7 7.8-.6s7.9-.3 9.8-1c3-1.1 3.5-1 6 1.4 5.4 5.2 15.4 6.6 18.8 2.8 1.6-1.7 2.6-2 6.2-1.4 3.6.5 4.8.3 6.6-1.4 2.9-2.7 8.8-2.9 14.9-.5 4 1.5 5.3 1.6 7.9.6 2.8-1.1 3.5-1 5.7.7 3 2.4 3.6 2.5 5.6.4 2.8-2.8 2.2-5.8-3.5-16.5-4.7-8.8-18.4-23.9-21.8-23.9-1.1 0-3.4-2.3-5.8-6-5-7.6-17.2-17-22.1-17-2.5 0-3.5-.5-4.1-2.4-.9-2.2-7.2-5.6-10.6-5.6-.8 0-3.1-1.4-5-3.2-3.4-2.9-4.3-3.2-14.7-4a58 58 0 0 1-12.2-1.7c-.6-.4-2.3-1.1-3.9-1.5q-2.8-.8-3.4 1c-.5 1.5-.8 1.5-1.7.2-1.6-2.1-11.2-5-17.8-5.4-9.3-.6-17.2 3.9-19.5 11-.5 1.8-.5 5.7 0 9.9 1.1 8.5.1 12.4-5.4 21.8a24 24 0 0 1-7.3 8.4l-3.4 1.9-2.8-3.3a27 27 0 0 0-7.2-7c-1.5-.8-1.5-1.4.1-8.3 1-4 1.7-7.8 1.7-8.4 0-1.3-6.3-3.4-8.7-2.9l-6.7.9-4.8.6 2.7-3.6q4.8-6.6-2.3-4.3c-2.8.9-4.1.8-8.3-1.1q-5.1-2.1-8-1.5-3.1.8-5-1.1c-1.9-1.7-2.1-1.7-4.8-.1-4.4 2.6-5.8 2.1-11-3.2-3.6-3.7-5.1-4.7-6-3.8q-1 1.1-1.1 2.2c0 1.6-3.7 4.8-4.7 4.2-.5-.3-2.2.3-3.9 1.4s-4.2 1.9-5.7 1.9c-4.1 0-6.7 1.7-6.7 4.4 0 2-.6 2.4-4.2 2.9-2.3.3-5.5.3-7 0-3.9-.8-7.1 2.1-6.4 5.6.3 1.4 0 5-.7 8-1.2 5.3-1.2 5.3-5.1 5.6-6.9.4-10.7 7.1-7 12.3 2.7 3.8.4 4-2.8.2-7.1-8.3-9.5-17.3-6.3-23.4 2.8-5.3 1.3-15.9-3-20.6-1-1.1-2.3-3-2.9-4.2-.8-1.4-3.7-3-9.6-4.9l-8.5-2.9zm8.5 5.1a27 27 0 0 0 6.3 2.5c1.7 0 1.5 2.7-.2 3.3-.8.3-2.4-.5-3.5-1.7-1.8-1.9-3-2.3-6.3-2-2.3.2-4.6.8-5.2 1.4q-2.4 2.4-2.2-1.3c.1-1.3 1.1-2.7 2.6-3.4 3.3-1.5 2.8-1.6 8.5 1.2M358 55.9c0 1.2-5.6 3.1-8.9 3.1-2.5-.1-2.5-.2.9-1.9 3.8-2 8-2.6 8-1.2M158.2 62c-.9 2.2-2.1 4-2.6 4q-.7-.1-.1-1.8c.4-.9 1-2.7 1.2-4q.6-2 1.8-2.2c1.1 0 1 .9-.3 4m-20.8 1c-.6.6-2.1 1.3-3.4 1.5s-2.8.9-3.4 1.5c-.5.5-1.9 1-3 .9q-2 0 2.9-2.4c5.4-2.5 8.6-3.2 6.9-1.5m269.7 1.6c1.4 1.7.8 1.7-4.4.2-3.1-.9-3.5-1.3-2.1-1.8 2.4-.9 5-.2 6.5 1.6m-239.8 3.1c-.7.2-2.1.2-3 0q-1.4-.5 1.2-.5t1.8.5M140 69.4q0 .6-1 1.1-.9.4-1-.4.1-1 1-1.1 1 0 1 .4m264.6 2.3c-.7.7-2.6-.7-2.6-1.9q0-1 1.5.2 1.4 1.2 1.1 1.7M183 70.4q0 .6-1 1.1-.9.4-1-.4.1-1 1-1.1 1 0 1 .4m83 .5c0 1.5-1.6 2.2-3.4 1.5-2.5-.9-1.9-2.4.9-2.4 1.4 0 2.5.4 2.5.9m14.7-.3q-.6.5-1.9.1-1.1-.5.6-.6t1.3.5M187 73.8q.1 2.2-1 .2c-1.3-2-1.3-3.3 0-2.5.6.3 1 1.4 1 2.3m-41.5.2q-.6.9-1.6 1-.9-.1-.4-1a2 2 0 0 1 1.6-1q.9 0 .4 1m22.2-.4q-.6.5-1.9.1-1.1-.5.6-.6t1.3.5M142 76.4q-.1.4-1.6 1-1.3.5-.9-.4c.6-1 2.5-1.4 2.5-.6m44.1 1.9c-1.3 1.3-2.6.3-1.6-1.2q.6-1 1.7-.5 1 .6-.1 1.7m106.3.2q-.7 1.4-2 1.5c-1.7 0-1.8-1.7-.1-2.3q3.1-1.4 2.1.8m144.1 1.6c1.1 1.7-.1 2.1-1.5.4q-1.2-1.4-.2-1.5 1 .1 1.7 1.1m-24 .9q.4.9-.4 1-1-.1-1.1-1 0-1 .4-1t1.1 1m7.1 3.5q2 1.5.4 1.4c-.8 0-2.4-.6-3.4-1.4q-2.2-1.6-.5-1.5c.8 0 2.4.7 3.5 1.5m22.2 1.4q.4 2.4-1 1.9c-.7-.3-1.5-1.5-1.6-2.7q-.4-2.4 1-1.9c.7.3 1.5 1.5 1.6 2.7M85.5 85q.5.9-.3 1-1.1.3-2.1 2.7c-1.2 2.5-1.4 2.6-2.3 1-1.5-2.8 3-7.4 4.7-4.7m346 3q.4.9-.4 1-1-.1-1.1-1 0-1 .4-1t1.1 1m17.9 2.5q2.8 3.9-1.5 1.5c-1-.6-1.9-1.7-1.9-2.5 0-2.3 1.6-1.8 3.4 1m-176.9.5q.4.9-.4 1-1-.1-1.1-1 0-1 .4-1t1.1 1M79 92.9c0 1.7-1.2 4.1-2.1 4.1s-1.2-3.3-.2-4.3 2.3-.9 2.3.2M380 94q0 .9-.4 1-.5-.1-1.1-1-.4-1 .4-1 1 0 1.1 1m55.7 1.2q-.5 1.1-.6-.6t.5-1.3c.3.3.4 1.2.1 1.9m-172.7.9q0 .8-1 .9-.9-.1-1-1.6.1-1.3 1-.9 1 .6 1 1.6M124 96q0 .9-1 1a1 1 0 0 1-1-1q.1-1 1-1t1 1m166.7 1.6c-.9.9-2.8-.6-2.1-1.8q.6-1 1.7.1 1 1 .4 1.7M134 97.4q0 .6-1 1.1-.9.4-1-.4.1-1 1-1.1 1 0 1 .4M249.3 99q-.5 1.8-.9 2-.3-.2-.4-2c-.1-1.8.4-2 .9-2s.7.9.4 2m154.7 1.6c2.6 4.1 2.1 5.5-.9 2.5-1.2-1.2-3-2.1-4-2.1-2.7 0-3.5-1.7-1.4-2.9 2.9-1.7 4-1.3 6.3 2.5m35-2.3c0 .7-.9 2-2 3-2.2 1.8-2.6.7-1-2.4 1.2-2.2 3-2.6 3-.6m-353 .1q-.2.5-1.7 1.7-2.4 2-.4-.4 2-2.5 2.1-1.3m226 1.1q1.6 1.6-.3 1.5-1.3-.2-2.1-1.5-.4-1.4.3-1.5c.7-.1 1.4.7 2.1 1.5m-136 .5q0 .9-.4 1-.6-.1-1.1-1-.4-1 .4-1 1 0 1.1 1m69.5 0q.4.9-.4 1-1-.1-1.1-1 0-1 .4-1 .6 0 1.1 1m17.5 1.5q0 1.3-.9 1.5c-1.3 0-2.2-1.6-1.4-2.4 1.1-1.1 2.3-.6 2.3.9m-59.6 1q-.7 1.3-1 1.5-.3-.2-.4-1.5c-.1-1.3.4-1.5 1-1.5q.8.1.4 1.5M80 104.4q0 .6-1 1.1-.9.4-1-.4.1-1 1-1.1 1 0 1 .4m37 .6q-.1.9-1.1 1-.8-.1-.4-1t1.1-1q.3 0 .4 1m79.6 8.5c.5 1.2 1.9 2 3.4 2 2.8 0 3.8 2.6 1.7 4.4-1.1.9-1.7.8-2.7-.4-.7-.8-1.8-1.5-2.4-1.5s-2.2-1.8-3.6-4-3-4.2-3.7-4.4-1.3-1.5-1.3-2.7c0-2 .3-1.9 3.8 1.2 2.1 1.9 4.3 4.3 4.8 5.4m15.4-6.9q-.1 1.3-1 .9-1-.7-.5-1.6 1.4-2 1.5.7m219 .5q-.1.7-1.5.3-1.4-.7-1.5-1.5.1-.7 1.5-.3 1.4.7 1.5 1.5m41.7 6.8c1.4 2.5 3.2 5 4 5.4q1.2.9.7 1.8t-2-.8q-1.2-1.6-1.4-.9t-1.4-.4c-.8-.6-1.2-1.8-.9-2.6q.4-1.3-1.1-1.4t-1.6-1.1q0-.8-1.2-.3-1 .6-.4-.4c.6-1 0-2.2-.8-3.4a8 8 0 0 1-1.6-3.7c0-2.2 4.5 2.4 7.7 7.8M69 106.4q-.2.5-1.7 1.7-2.4 2-.4-.4 2-2.5 2.1-1.3m223.9 2.3c0 2.5-.1 2.5-.8.8-.5-1.1-.7-2.3-.4-2.8q1.3-2 1.2 2M76 107.9q0 1-1 1.6-.9.4-1-.9.1-1.5 1-1.6 1 0 1 .9m222.4-.3c2.2.8 2 1.9-.4 2.1q-1.8.1-2-1.3c0-1.6.2-1.6 2.4-.8m110.6.4q0 .9-.4 1-.5-.1-1.1-1-.4-1 .4-1 1 0 1.1 1m-30 1q-.1.9-1.1 1-.8-.1-.4-1 .6-1 1.1-1 .4 0 .4 1m-171.7 3.3q-.6.7-1.5-.1-.9-1.1-.3-2.2.7-1.4 1.6.1c.4.7.5 1.7.2 2.2m56.2-2.3q-.6.9-1.6 1-.8-.1-.9-1 .1-1 1.6-1 1.3 0 .9 1m16 0q.4.9-.4 1-1-.1-1.1-1 0-1 .4-1t1.1 1m175.5-.6-1.3 2.9q-1.5 2.9-2.5 1.5-1.1-1-1.2-.5c-.1.5-1.5 0-3.2-.9-3-1.6-3.1-1.8-1.3-2.5 2.1-.8 9.5-1.2 9.5-.5m-388 2.5q0 1-1 1.6-.9.4-1-.9.1-1.5 1-1.6 1 0 1 .9m19.1.8q1.2 1.5.2 1t-1.8.3c-.8 1.3-2.5.3-2.5-1.6s2.4-1.8 4.1.3m162-.7q.8 0 .9 1c0 1.2-4.7 1.3-5.4.1s.6-2.2 2.2-1.6c.7.3 1.8.5 2.3.5m144.4 1c-.3.5-1.3.6-2.1.3q-1.8-.5-.3-1.4c1.5-.9 3.2-.2 2.4 1.1m-300.4.3c-.1 1.2-1.5.9-1.9-.4q-.3-1 .8-.8 1 .5 1.1 1.2M465 113q0 .9-.4 1-.5-.1-1.1-1-.4-1 .4-1 1 0 1.1 1m-334 .4q-.1.3-1.5 1-1.4.4-1.5-.4.1-1 1.5-1c1.4 0 1.5.2 1.5.4m148.8 1.2a7 7 0 0 1-2.5 3.2c-2.1 1.3-2.3 1.3-2.3-.1q0-1.5 1.5-1.1 1.5.7 1.5-1.5.1-2 1.1-2.1 1 .1.7 1.6m59.2-.6q0 .9-1 1a1 1 0 0 1-1-1q.1-1 1-1t1 1m-44.3 3q.1 1.8-1.3 2-1.3-.2-1.4-2c-.1-1.8.6-2 1.3-2q1.2.2 1.4 2m-211.4 1.5q-1.2 3.1-1.3-.6 0-1.8 1-1.4.8.6.3 2m217.5-.7q.2 1.1-1.2 1.2-1.5-.1-1.6-1.6c0-1.7 2.2-1.4 2.8.4m165.2.7c1.9 1.4 3.1 2.5 2.8 2.5-1.3 0-6.8-3.3-6.8-4.1 0-1.3.2-1.2 4 1.6m-229.5 2.9c2.5 2 4.5 4.1 4.5 4.6s-1.6.8-3.5.7c-2.7-.1-3.2-.4-2.3-1.4.8-1 .6-1.8-.7-3.3-1-1.1-2.4-2-3-2q-1.2-.1-1.8-1.4c-.9-2.4 2.1-1.2 6.8 2.8M387 118q0 .9-1 1a1 1 0 0 1-1-1q.1-1 1-1t1 1m73 2.7c2.8 3.6.7 4.3-2.5.8-2.9-3-3-3.5-1.1-3.5.8 0 2.4 1.2 3.6 2.7m-162 .3q0 .9-.4 1-.5-.1-1.1-1-.4-1 .4-1 1 0 1.1 1m14 .5q2.1 2.3-1.4.9-1.5-.6-1.6-1.5c0-1.4 1.6-1.1 3 .6m88.2 1.7q-1.3 1.5-1.2-1.2c.1-2.7.3-2.1 1.2-1.2q1.3 1.2 0 2.4m-153.6.3c-1 .8-2.3 1.2-2.8.9q-.7-.7 1.4-1.8c2.9-1.6 3.9-.9 1.4.9m-107.3-.8c-.7.2-2.1.2-3 0q-1.3-.5 1.2-.5 2.6 0 1.8.5m73.7.3q-.1.8-1.5.4-1.4-.7-1.5-1 .1-.3 1.5-.4c1.4-.1 1.5.4 1.5 1m119.9 1.6c-1 1.2-1.4 1.2-2 .2q-.6-1.2.4-2c1.8-1.1 2.9.2 1.6 1.8m4.4 1.7c-.9 1.6-2.6-1.2-1.8-3 .7-1.7.8-1.7 1.5.2.4 1.1.5 2.4.3 2.8M390 123q-.1.9-1.5 1c-1.4.1-1.5-.5-1.5-1q.1-1 1.5-1c1.4 0 1.5.4 1.5 1m35.1 1.6q1 1.4.6 2c-.6.6-5.6-2.7-5.7-3.8 0-1 3.9.3 5.1 1.8m12.7-1.4q1.1 1.2 1.2 2c0 1.5-1.5.8-2.8-1.2-1.3-2.2-.3-2.7 1.6-.8m-380 3.3c1.5 3.3 1.5 3.5-.3 3.5q-1.3-.1-1.5-1.4c0-.8-.3-2.1-.6-3-1-2.7 1.2-1.8 2.4.9m376.9.5c.6 1.3 1 2.6.7 2.9-.6.6-5.4-4-5.4-5.1 0-1.9 3.5-.2 4.7 2.2m34.1-1.3c.6 1.9-4.5 1.6-5.2-.3q-.9-1.7 2.1-1.2c1.4.2 2.8.9 3.1 1.5M280 128c0 1.9-2.8 1-3.3-1q-.8-2.4 1.4-.9c1 .5 1.9 1.4 1.9 1.9m127.4-1.5q.7 1.6-2.1 1.5c-2.1 0-2.4-.2-1.3-1.5q1.2-1.3 2-1.5.7.2 1.4 1.5m35.6.1c0 1.7-2.2 1.4-2.8-.4q-.2-1.1 1.2-1.2 1.5.1 1.6 1.6m-244 .3c0 1.2-2 2.5-2.7 1.8s.6-2.7 1.8-2.7q.8 0 .9.9m249 .1q-.1.9-1.4 1c-.8 0-1.8-.5-2.1-1q-.4-1 1.4-1 2 0 2.1 1m-54 2.6c0 2-5.4 1.8-7.3-.4-1.5-1.6-1.3-1.7 2.9-1.4q4.4.5 4.4 1.8m61.8.3c-.5 2.4-3.8 2.7-3.8.3q0-1.7.6-2.5c1.1-1.1 3.5.5 3.2 2.2m-383.1 1.5q-.7 1.5-1.7 1.6c-1.1 0-1.4-3.3-.3-4.3 1.1-1.1 2.6 1 2 2.7m242.8-2.3c1.1 1.7-.1 2.1-1.5.4q-1.2-1.4-.2-1.5 1 .1 1.7 1.1m81.5.5q-.1 1.3-1 .9-1-.7-.5-1.6 1.4-2 1.5.7m-105 3q0 1.3-1 1.4t-1-.9q-.1-1.3-.7-2.8-1-2.3 1-.4c.9.7 1.7 2 1.7 2.7m115.6 1.1c-1 1-1.9-.5-1-1.8q.8-1.6 1.2 0 .3 1.2-.2 1.8m4.4-1.7q0 .9-1 1a1 1 0 0 1-1-1q.1-1 1-1t1 1m35 2.1c0 .3-1.3.6-3 .7-2.7.1-4-1.5-2.5-3 .7-.6 5.5 1.4 5.5 2.3m-224.4 1.5c.9 2.8.9 3.4-.2 3-.7-.3-1.7 0-2.1.7q-.7 1.2-1.3-1.3c-.6-2.3.7-6 2-6 .3 0 1 1.6 1.6 3.6M298 133q-.1.9-1.1 1-.8-.1-.4-1 .6-1 1.1-1 .4 0 .4 1m44 3.2c0 1.3-2.4.9-4.8-.8-1.2-.8-2-1.9-1.7-2.4.6-1 6.5 2 6.5 3.2m10.3 1.7c-.9 1.1-3.3-2.7-2.7-4.3s.9-1.4 1.9 1c.7 1.6 1 3.1.8 3.3m119.1-5c.9 1.4-4.2 2.3-6.4 1.1q-1.8-1-2-1.5c0-.9 7.9-.5 8.4.4m-404.5 2.7c-1.4 1.8-2.4 1.1-1.5-1.1.3-.9 1.1-1.3 1.6-1q1.2.7-.1 2.1m134.7 1q-.7 1.9-1.8.6c-.6-.6-.8-1.8-.4-2.8q.7-1.9 1.8-.6c.6.6.8 1.8.4 2.8M58 135.5q-1.2 1.4-1.7 1.1c-.7-.7.7-2.6 1.9-2.6q1 0-.2 1.5m23.7 1.1c-1.5 1.4-3.3 2.4-3.9 2.2s.4-1.4 2.3-2.6q6.7-4.4 1.6.4m293.6-1.9c-.7.2-1.9.2-2.5 0q-1-.5 1.2-.5c2.2 0 1.9.2 1.3.5m-12.8 1.2c.9 1.6-1.5 2.4-3 1.1q-1.6-1.5-1.5.4 0 1.6-1 1.1-.8-.6-.3-2c.6-1.6 4.8-2 5.8-.6m70.3 1.5c.4 1.6 0 1.8-2.9 1.2-4-.8-4.8-1.4-2.9-2.7 2.3-1.4 5.4-.6 5.8 1.5m-158.3.6q.4 1-1 1.6c-1.9.8-3 0-2-1.5.8-1.4 2.2-1.4 3-.1m-42 1q-.6.9-1.6 1-.8-.1-.9-1 .1-1 1.6-1 1.3 0 .9 1M76 140q-.1.9-1.1 1-.8-.1-.4-1t1.1-1q.3 0 .4 1m109.3 3.5c-.7 1.9-1.2 1.9-3.5-.2-3-2.7-2.3-4.4 1.2-2.7q2.8 1.5 2.3 2.9M208 140q-.1.9-1.1 1-.8-.1-.4-1 .6-1 1.1-1 .3 0 .4 1m61 0q0 .9-.4 1-.5-.1-1.1-1-.4-1 .4-1 1 0 1.1 1m-215.8 4.8c-.3 3.5-.9 4.5-3.4 5.8-3.9 2-4.8 1-1.7-1.8a18 18 0 0 0 3.8-5.6q2.4-6.3 1.3 1.6m184.3-3.7c1.1 1.7-.1 2.1-1.5.4q-1.2-1.4-.2-1.5 1 .1 1.7 1.1m80.6 4.2q-1.1 1.3-1.1-1.4c0-3.3 1.4-4.7 1.8-1.9.2 1.2-.1 2.7-.7 3.3M58 142.4c0 .8-.4 1.8-1 2.1q-.9.4-1-1.4.1-2 1-2.1 1 .1 1 1.4m191.5.6q.4.9-.4 1-1-.1-1.1-1 0-1 .4-1 .6 0 1.1 1m22.8.7c-.7.2-1.9.2-2.5 0q-1-.5 1.2-.5c2.2 0 1.9.2 1.3.5M226 146c0 1.3-2.8 2.5-3.8 1.6q-.4-.7.8-1.6 3-1.9 3 0m57-.6q0 .6-1 1.1-.9.4-1-.4.1-1 1-1.1 1 0 1 .4m-46 1.6q0 .9-1 1a1 1 0 0 1-1-1q.1-1 1-1t1 1m3 1q0 .9-1 1a1 1 0 0 1-1-1q.1-1 1-1t1 1m38 1.9c0 .5-1.1 1.1-2.5 1.3-2.6.5-3.5-.6-1.2-1.5 2-.9 3.7-.8 3.7.2m6.7 1.7q-.6.5-1.9.1-1.1-.5.6-.6t1.3.5m-62.7 3.6q-.1.8-1.5.8c-1.5 0-2-2.1-.8-3.3.7-.7 2.3 1.1 2.3 2.5m14.6.5c-1.1 1.1-1.9-.6-1.1-2.4s.8-1.7 1.2 0c.3 1 .2 2.1-.1 2.4M271 154q0 .9-1 1a1 1 0 0 1-1-1q.1-1 1-1t1 1m7 1q0 .9-1 1a1 1 0 0 1-1-1q.1-1 1-1t1 1m10.6 6.7c-1.1 1.1-1.9-.6-1.1-2.4s.8-1.7 1.2 0c.3 1 .2 2.1-.1 2.4m-2.8 1.5q-.3 2.1-1.3 2.3-.9-.2-1.3-2.3-.3-2.2 1.3-2.2c1.6 0 1.5.7 1.3 2.2m-8.8-.2q-.1.9-1.1 1-.8-.1-.4-1 .6-1 1.1-1 .4 0 .4 1m-52.7.6q.5.6 0 2-.5 1.7-1.9.3-1.2-1-.8-2c.6-1 1.8-1.2 2.7-.3m79.1 7.1c-2.5 1.8-6.4 1.7-6.4-.3q.1-1.5 1.4-1.1c.8.3 2.5-.5 3.8-1.8 2.3-2.4 2.3-2.4 2.6-.3q.2 2.1-1.4 3.5m4.6-4.7q-.1.9-1.1 1-.8-.1-.4-1 .6-1 1.1-1 .4 0 .4 1m-38 1q-.1.9-1.1 1-.8-.1-.4-1 .6-1 1.1-1 .4 0 .4 1m-28 3q-.1.9-1.1 1-.8-.1-.4-1 .6-1 1.1-1 .3 0 .4 1m7.2 2.2q-1.1 1-1.2.2c0-1.4 1.2-2.6 1.9-1.9q.3.6-.7 1.7m27.8 0q0 2.4-1.1 1.1-1-1.1-.5-2.2 1.6-2.5 1.6 1.1m-7 1.2q-.1 1.3-2.1 1.9-1.9.6-1.5 1.6.5.9-.4 1.6c-1.8 1.1-1.1-3.7.8-5.1q3.3-2.6 3.2 0m-13 4.1q0 1.3-1 1.5-.9-.2-1-1.5c-.1-1.3.5-1.5 1-1.5q1 .1 1 1.5m3 15.5q0 .9-1 1a1 1 0 0 1-1-1q.1-1 1-1t1 1m-32 6.3q-.2.8-2-.8c-1.8-1.6-1.7-2.2-1.3-2.8.6-1 3.3 1.9 3.3 3.6m33 .2q0 1.3-.4 1.5c-.4.2-.6-.7-1-1.5q-.4-1.4.4-1.5 1 .1 1 1.5m114 .5q1.9 1.1-1.2 1-2.6-.1-2.8-1c0-1.3 2-1.3 4 0m-113 3q0 .9-1 1a1 1 0 0 1-1-1q.1-1 1-1t1 1m113.4 9.6c2.5 2.4 1.9 3.8-.9 2a9 9 0 0 0-4-1.6q-1.4-.1-1-1c.9-1.5 4.2-1.2 5.9.6M394 218q0 .9-.4 1-.5-.1-1.1-1-.4-1 .4-1 1 0 1.1 1m9.3 5.7c-4.8 1.6-7.1 1-5.2-1.3 2.2-2.7 5.2-3.4 7.2-1.6 1.6 1.4 1.5 1.6-2 2.9M134 225c0 1.5-3.8 3.2-4.5 2-.3-.5-.3-1.5 0-2 .8-1.3 4.5-1.3 4.5 0m-10 1.4c0 .8-.5 1.8-1 2.1-1.7 1.1-4-.3-3.4-2 .8-1.9 4.4-2 4.4-.1m221.6 2.1c1 .8 2.9 1.5 4 1.5 2.2 0 4.8 2.2 3.9 3.2-.3.3 1.7.5 4.5.4 4.4-.2 5 .1 5 1.8 0 1.1 1 3 2.2 4.3 1.7 1.8 3.2 2.3 7.4 2.3 3.9 0 5.3.4 5.8 1.6.6 1.5.8 1.5 2.6-.1s2-1.7 2 .2c0 1.1-.9 2.8-2 3.8s-2 2.4-2 3.2c0 1.8 3 1.6 5.2-.4 1.7-1.5 1.9-1.5 3.6 0 2.3 2.1 5.2 2.2 5.2.3q0-1.4 2.3-.9c2.7.7 5.7 3.2 5.7 4.8a86 86 0 0 0 14 20.5c0 .6-7.8 5.8-15.9 10.8-3.2 1.9-3.6 1.9-6.8.4s-3.4-1.5-5.5.5a6 6 0 0 1-5.5 1.6c-3.7-.6-3.7-.6-2.3-3.1.5-.9 1.6-5.1 2.4-9.2s1.8-8.5 2.2-9.8q1.1-4.4-4.9.2a71 71 0 0 1-18.5 7.6q-1-.2-1.4-2.8l-1.3-4.5q-.8-1.8 1.3-1.7 2-.1 2.8-1.1c1.1-1.8-1.5-3.4-5.1-3-3 .2-3.5 0-3.5-1.9 0-2-.4-2.2-3.5-1.6l-3.5.7v-8.5c0-4.7-.5-8.8-1-9.1-1.9-1.1-4.5-8-4.2-10.8q.5-4.5 4.8-1.2m-233.1 2.6q-.1 2.3-1.7 2.7-1.9.5-1.8-2.1c0-1.3.3-2.7.7-3.1 1.3-1.2 2.8.1 2.8 2.5M361 230q0 .9-1 1a1 1 0 0 1-1-1q.1-1 1-1t1 1m-258.2 6.1c-.4 3.3-3.8 3.9-3.8.7 0-2.8 2-5.2 3.3-3.9.5.5.7 1.9.5 3.2m24.5-1.3c.9.8 1.7 1.9 1.7 2.4 0 1.4-4.4.9-6.9-.9-2.3-1.5-2.3-1.7-.6-2.9 1.9-1.4 2.8-1.2 5.8 1.4m10.1-.3c1.9 2.9 2 3.5.4 3.5-2.2-.1-6.1-3.7-5.4-4.9 1.2-1.8 3.3-1.3 5 1.4m234.1-1.5c.3.5 1.8 1 3.3 1q2.6 0 1.6 1c-1.2 1.2-6.6-.2-7.2-1.8-.4-1.4 1.4-1.6 2.3-.2m-254.1 5.3c1.6 1.1 1.5 1.4-1.3 3.5L113 244l-.6-2.4c-1-4.3 1.4-5.9 5-3.3m-27.2 2.8c-.3 2.7-3.1 6.1-4.3 5.3-1-.6-.1-5.3 1.4-7.2s3.2-.8 2.9 1.9m313.3-2.1q.4.9-1.4 1c-1.1 0-2.3-.5-2.6-1q-.4-1 1.4-1c1.1 0 2.3.4 2.6 1m-146.4 9c.5 27.5.1 35-1.6 35-.8 0-3.7-2.7-6.4-6-9.3-11.2-10.1-21.9-2.4-31q5-5.8 9.1-5.9c.8-.1 1.2 2.2 1.3 7.9m135.4-6q.4.9-.4 1-1-.1-1.1-1 0-1 .4-1t1.1 1m-313.7 5.4c-.2 1.7-.7 3.1-1.3 3-1.4-.1-2.9-4.9-2.1-6.9 1.1-2.9 3.8.2 3.4 3.9m29.3-3.4c2.1 1.7 2.2 2.1.9 3-.8.5-2.3 1-3.2 1-2.2 0-6.1-3.7-5.3-5 1-1.7 5.1-1.1 7.6 1m160.6.9c5.9 5 7.4 10.9 5.1 20.9-1.2 5.1-6.8 13.5-8.2 12.2-.5-.5-1-21.8-.7-30.8.1-4.7.6-5 3.8-2.3M139.2 248c.9 2.5-.4 7.8-2.8 11.7-1.2 1.9-1.2 3 .1 8 2.1 8 2 8.6-1.2 8q-5.1-.8-5.3 1.9 0 1.3-.9 1.4-1.4.2-3.7 1c-2.6 1-2.6 1.1-.8 3.1s2.8 8.6 1.4 9.4-10.3-2.7-14.6-5.6c-2.3-1.6-4.4-4-4.8-5.4s-1.3-2.5-2.1-2.5c-2.4 0-1.8 4.5 1.1 7.9 2.3 2.8 2.5 3.7 2.3 10.8-.2 4.4.2 8.7.9 9.9.6 1.1 3.1 3.2 5.6 4.5 2.6 1.3 4.6 2.7 4.6 3.1 0 .9-8.3-2.8-20.1-9a63 63 0 0 0-14.3-5.7c-5.1-.8-5.5-1.8-3-6.6a98 98 0 0 0 3.5-9.2q3.5-10.7 6.3-10.7c.8 0 2.7-1 4.3-2.3s3.6-2.7 4.6-3c1.7-.7 1.6-1-1.3-4.3-1.7-2-2.9-3.9-2.6-4.2q.8-.4 2.1 1.4c1.2 1.5 1.6 1.6 2.4.5q.8-1.4 4.1-.6c2.6.6 3.7.2 5.8-1.8 1.5-1.4 4.4-3.2 6.4-4 2-.9 4.1-2.5 4.7-3.6s2.8-3.2 4.9-4.6c4.8-3.3 11.1-3.1 12.4.5m-69 3.2q-1.3 1.5-1.2-1.2c.1-2.7.3-2.1 1.2-1.2q1.4 1.2 0 2.4m26.7-1.8c1.8 2.2-4.1 4.3-7.7 2.7-2.6-1.2-2.6-1.3-.7-2.7 2.4-1.8 6.9-1.8 8.4 0m-32.9 3c0 1.4-.4 2.8-1 3.1s-1-.7-1-2.4.5-3.1 1-3.1 1 1.1 1 2.4m47.2 1.8q-1.1 1-1.2.2c0-1.4 1.2-2.6 1.9-1.9q.3.6-.7 1.7m-26.5 1.1c1.7 3.6.1 5.3-3 3.2-1.4-.9-2.8-2.2-3-3-1.3-3.3 4.5-3.5 6-.2M73 258.5q0 1.4-1 1.5-.9-.1-1-1.5c-.1-1.4.5-1.5 1-1.5q1 .1 1 1.5m19 2.9c0 1.6-1.8 3.1-2.7 2.2-.8-.8.5-3.6 1.7-3.6q.9.1 1 1.4m-26.7 1c.3 1.2-3 3.2-3.9 2.4-1.1-1.2.5-4 2.1-3.6q1.5.4 1.8 1.2m12.3 2.3c-1.1 1.1-1.9-.6-1.1-2.4s.8-1.7 1.2 0c.3 1 .2 2.1-.1 2.4m347.2 11.5q1.1 1.2 1.2 1.9c0 .4-4 2.7-9 5.1-6.3 3-9 4.8-9 6.1 0 2.5-7.6 10.4-13.8 14.4q-8.2 5.2-6.9.2c.6-2.3-1.2-3.7-2.4-1.8a9 9 0 0 0-.9 4q-.2 3.8-4.2 3.9-.9-.1-.3-4.3l.6-4.2-2.1 2.4c-1.1 1.3-2 2.9-2 3.6s-1.2 2.3-2.7 3.5c-4.3 3.4-5 .9-1.4-4.9 3.4-5.6 3.6-6.1 2.1-6.1-.5 0-2.6 2.4-4.5 5.4-2.8 4.1-3.5 5.9-3 7.9.5 1.9 0 3.5-2 6.1-1.5 2-3.1 3.6-3.6 3.6-1.9 0-.8-4.8 1.3-6.2q2.5-1.6 1.2-2.9c-.6-.8-1.2-3.9-1.2-7-.1-5 .2-6 3.3-9.7 1.9-2.2 3.5-4.5 3.5-5.1 0-.7 1.3-.2 3 1 2.3 1.8 4.4 2.3 9.2 2.3 7.7 0 14.2-2.9 29.8-13.3 5.8-3.9 11-7.1 11.6-7.1s1.5.5 2.2 1.2m-56.8 7.7c0 .6-1 2.2-2.3 3.6-2.1 2.5-2.4 2.5-5 1.2l-2.8-1.5 3.8-2q6.3-3.4 6.3-1.3m-9.7 10.1c-.3.8-.7 2.7-.7 4.2q-.2 2.4-.7 2c-1-1.1-1.9-9.9-1.1-10.6 1.1-1.1 3.3 2.7 2.5 4.4m58.1.3a17 17 0 0 1 2.6 5.1c0 .7.9 2.1 1.9 3 2.2 2 7.1 1.5 9.2-1 .6-.8 2.6-1.4 4.4-1.4a11 11 0 0 0 5.8-2c1.4-1.1 2.8-2 3.1-2 .8 0 5.2 9 6 12.3.5 2.3.2 2.9-1.8 3.8-2 1-3 .8-5.4-1a13 13 0 0 0-4.4-2.1q-1.4 0-2.3-.9c-.6-.5-3.5-.5-7 0-4.9.6-6.3.5-7.7-.8-1.6-1.4-1.8-1.4-2.4.3a11 11 0 0 1-4.7 6.8c-3.3 2.5-4.4 1.6-2.2-1.8q1.6-2.5 1-4.6c-1-3-5-5.3-8-4.6q-2.5.6-2.5-.6c0-1.2 11.1-13.1 11.6-12.5.2.1 1.4 1.9 2.8 4M257.8 306c-.1 10.4-.8 11.5-3.5 5.3-2.1-5.1-.3-15.3 2.7-15.3.5 0 .8 4.5.8 10m8.6-4.9c.9 3.8-.9 14.9-2.5 14.9-.5 0-.9-4.3-.9-9.6 0-7.2.3-9.5 1.3-9.2.6.3 1.6 2 2.1 3.9m-177.9 5.6c3.3 1.6 10.7 5.3 16.4 8.3 10.9 5.6 16.9 7 22 5.2 3.6-1.3 3.1-1.9 14.4 16.9 8.7 14.6 20.2 40.9 21.1 48.8l.7 5.4-6-.7q-6-.6-8.2.4-4.7 2.5 4.1 2.9 7.1.3.3 7.4c-7.7 8-6.4 14.1 3.6 17.1 3.3 1 6.4 1.5 7 1.2 1.2-.8 4.3 2.2 3.6 3.4s-6.4.2-8.3-1.3q-1.2-1-8.5.2c-9.5 1.5-25.6 1.9-25.9.6-.2-.6 3.8-1.1 9.7-1.3 5.5-.2 10.9-.9 12-1.5 1.6-1 .4-1.2-7-1.5-7-.2-9.3-.6-10.3-1.9-.6-1-3.6-2.3-6.5-3-6.9-1.8-10.1-4.2-10.5-8.1s1.8-4.6 9.8-3.5c4.7.7 5.5 1.2 5.8 3.1q.8 4.4 9 5.5c3.9.5 4.6.2 8.3-3.2 6.2-6 4.9-8.7-1.5-3q-6.3 5.4-9.6-.3c-1.3-2.5-1.3-2.9.1-4.4.9-.9 3.4-1.7 5.5-1.8 7-.3 7.9-2 3.9-7.2a13 13 0 0 0-6.6-4.5 9 9 0 0 1-5.4-3.8c-.7-1.4-2.2-3.5-3.4-4.5-1.2-1.1-2.1-2.8-2.1-3.9 0-1-2.9-5.7-6.6-10.4-3.6-4.6-8.1-11.5-10-15.1-2-3.7-5-8.2-6.7-10a44 44 0 0 0-34.3-10c-2.7.6-3.3.4-3.7-1.4-.5-1.6-1.1-1.9-3.1-1.4-1.4.3-2.8.1-3.1-.4s-1.5-.8-2.4-.5c-1.5.4-1.7 0-1.3-2.5s.9-3 3.1-3c1.4 0 4.6-.9 7-2 4.9-2.3 10.3-2.8 8.3-.8-1.9 1.9-1.4 2.7 2.3 3.4 1.9.3 5.6 2 8.2 3.6 4.6 3 4.8 3 6.2 1.1 1.5-2 1.6-2 7.8.1 5.9 1.9 6.4 1.9 8 .3s1.4-1.7-2.3-3.2c-2.1-.8-6.1-2.7-8.8-4.2l-4.9-2.6-1.8 2.2c-1.8 2.3-3.3 1.4-2.3-1.3.3-.9.1-2.3-.5-3-1.9-2.2-10.1-2.9-14.8-1.3-3.3 1.1-4.4 1.1-5.8.1q-1.7-1.3-4.1-.4c-1.3.5-2.4.7-2.4.3 0-1.4 4.4-5.3 5.9-5.3.9 0 3.4-.7 5.6-1.5q8.5-3.2 19 2.2m145-.6c2.2.5 6.1.9 8.8.9 4 0 4.9.4 5.9 2.4 1.1 2.5.6 5.6-.9 5.6q-.9-.2-1.8-2.3-1-2.2-4-2.4c-1.6 0-5.4-.4-8.4-.9-4.9-.6-5.3-.6-4.9 1.2.3 1.6 1.3 1.9 7.1 1.9 6.5 0 9.8 1.7 4.5 2.3-3.1.4-3.5 1.1-1.5 3.1 1 1 .9 1.4-.6 2.2-1.3.8-1.5 1.4-.7 2.9 1.4 2.7 1.3 2.9-1.7 4.1-2.6 1-2.7 1.2-1 2.3.9.7 1.7 2.1 1.7 3 0 1.4-.7 1.7-3.2 1.4-4.1-.4-4.7 1.7-.8 3 1.7.6 3 1.8 3 2.8q0 1.6-1.7.9c-4.2-1.7-5.3-1.7-5.3 0 0 .9 1.3 2.2 3 2.8q2.9 1.2 3 2.9c0 1.5-.6 1.7-4.6 1.1-3.8-.5-4.6-.3-4.2.8.2.8 2.1 1.8 4.1 2.3 2.1.5 3.6 1.4 3.3 2q-.5 1-1.7.7-6.9-2-6.9.2c0 .8 1.1 1.8 2.5 2.1q2.5.6 2.5 2.6 0 1.8-.4 2c-.4.2-2.8-1.3-5.9-3-5.9-3.1-5.2-3.1-19.7-.5-3.4.6-3.4.6-1.5-1 3.3-2.8 8.2-4.5 13.1-4.5q4.7 0 4.2-1.3-.9-2.7-12.1-.7c-3.8.7-7.1 1-7.4.7-1.3-1.3 6.2-3.8 11.7-3.8 4.4-.1 6-.5 6-1.5 0-2.2-8.3-2.3-15.8-.3-2.3.7-4.5.9-4.8.7-1.1-1.1 7.4-4.1 12-4.3 5.1-.2 7.2-1.8 3.8-3a46 46 0 0 0-15.3 2q-1.6.5-3.3-1.9-1.5-2.4-1.4-2.7l10.2-.4a36 36 0 0 0 10.9-1.4c1.5-1.5-3.5-2.5-9.4-1.8-4.8.6-7.1-.4-4.7-2 .7-.4 4.9-.8 9.3-.8 6.4 0 8-.3 8-1.5 0-3.3-19.7-1.8-22.3 1.8-1.3 1.6-1.4 1.6-2.8-.3-2.8-3.8-.6-4.7 14.4-6.3 4-.4 7.3-1.2 7.5-1.7.4-1.7-10.5-1.7-16.6 0-5.2 1.5-8 1.5-6.5 0 .5-.6 15-3.3 19.7-3.7 1.9-.2 3.6-.9 3.9-1.6.5-1.7-6.3-1.6-17.1.4-6.7 1.2-9.1 1.4-10 .5-1.4-1.4 1-3.3 3.3-2.6.8.3 5.3 0 10-.7s11-1.1 14-1.2c4.2-.1 5.5-.5 5.5-1.6s-1.4-1.6-5.4-1.8a118 118 0 0 0-28.2 2.9c-2.6 1.3-3.8.3-1.8-1.5 1.5-1.4 12-4.3 17.9-5 5.3-.5 27 .5 31.5 1.5M358 311c-1.2 4.1-1.9 5-3.9 5-1.7 0-4.1 1.8-4.1 3.1 0 .4 1.2.9 2.7 1.1q2.8.3 3.1 2.2c.6 3-1.3 4.1-3.9 2.2q-4.5-3.2-7.9.4c-2.6 2.6-2.5 6.1.2 9.6a9 9 0 0 1 2 5.4q-.3 2.5 2 4.6c4 3.7 5.7 3.7 9.1.2 1.8-1.8 4.8-4.1 6.7-5.2 6-3.2 6.3-5 1.9-10q-4.7-5.5 0-5.6 1.8-.2 3.5-3.4c1.9-4 6.5-7.1 11.9-7.9 3.6-.6 3.7-.5 3.7 2.4q0 2.9 1 2.4c.6-.3 1-2.2 1-4.1q0-3.4 1.4-3.4c2 0 2.7 5.2.9 7.2-1.9 2.1-1 5.1 2.4 7.8 2.4 1.8 2.8 1.9 4.9.5 3-2 8.4-1 8.4 1.6s-3.4 4.3-5 2.4c-1.5-1.8-6-1.6-6.8.3-.6 1.7 1.5 3.2 4.6 3.2 2 0 2.2.4 1.6 2.2-.9 3.2-1 3.3-3.9 1.4a7 7 0 0 0-5-1c-2.2.5-2.6.2-3.1-2.5-.7-3.2-4.5-7.1-7-7.1-1.7 0-6.4 6.2-6.4 8.4 0 1 .9 3 2.1 4.4l2 2.7-3.9 1.6q-7.2 3-3.4 7.8c3.1 4.2 4.9 4.8 8.2 2.9 2.9-1.7 3-1.6 5 1.3 4.1 5.7 9.8 3 8.6-4.1-.5-3.2-.3-4.1 1.3-4.9 1-.6 2.1-.7 2.5-.4.9.9-.4 7.5-2 9.8s-1.8 7.1-.4 8c1.3.8 1.3 7.5 0 7.5-.6 0-2.2-.7-3.5-1.6s-2.9-1.3-3.5-.9q-.9.5-1-.6 0-1.5-1.2-.1c-1 1-1.5.6-2.4-2-1.3-4-2.7-4.5-5.3-1.9-1.7 1.7-1.9 2.8-1.4 7.3q1 7.7 3.5 6.2.8-.6.3-1.4c-.8-1.3.6-6.1 1.5-5.5.5.3.6 2.1.3 3.9-.5 2.9-.1 3.7 2.6 5.7q3.2 2.4 2.8 4.1-.5 1.9 2.6 4c4.2 2.9 5.6 4.8 5.7 7.5 0 2.8 1.7 3.8 3.6 2.2q1.6-1.2 1-4.7c-.4-2.7-.1-3.8 1.5-5.1 2-1.6 2-1.6 0-5.5-2.1-4.1-2-5.6.5-5.6 2.2 0 1.7-2.4-1.1-5-1.4-1.3-2.5-3.1-2.5-4 0-1 2.3-4.8 5.1-8.5q7.4-10.2 1.9-6.7c-2.5 1.5-3 1.5-3-.1 0-.8 1.6-2.2 3.5-3.3s3.5-2.2 3.5-2.6c0-1.3 11.9-7.7 17.3-9.3 5-1.5 5.6-1.4 11.6.8 3.9 1.4 7.2 3.2 8.4 4.9l1.9 2.6-4.6 18.2c-2.5 10-4.6 19.6-4.6 21.3 0 1.8-1.7 6.7-3.7 10.9a34 34 0 0 1-15.7 16.5c-.6-.2-1.4-2.2-1.8-4.5s-1-4.7-1.3-5.2c-1.3-2.1-2.2.2-1.8 4.4q.6 4.3-.7 5.1-2.9 1.7-3.4-5.9c-.2-2.6-.6-4.9-.9-5.2-1.5-1.5-2.7 1.2-2.7 5.7 0 3-.4 4.8-1 4.4s-.9-3.1-.9-6.1q.2-5.6-1.5-7.2c-1.4-1.4-1.6-1.4-2.2.2-.3.9-.4 4.3-.2 7.6.4 5.7-.3 7.8-1.6 4.5-.9-2.5-2.6-1.7-2.6 1.3 0 3.7-2.1 6.5-4.6 6-1.5-.3-1.9-1.1-1.7-3.8a23 23 0 0 0-.3-6c-.5-2.4-.6-2.4-2-.6a13 13 0 0 0-1.4 6.3c0 3.2-.5 4.5-1.9 5.3-2.7 1.4-5 .3-5.7-2.9-1.4-5.5-4.4-6.4-4.4-1.2q0 5.4-5.4 6.7l-2.8.7.3-5.4c.3-4.3.1-5.4-1.1-5.4q-1.4 0-2.2 4.4c-.8 4.6-3.6 8.7-4.9 7.4-.5-.5-.2-2.6.6-4.8q3-8-.2-7.3c-1 .2-2.4 2.2-3.3 4.5-2.3 6.2-4.6 8.3-9.2 8.3-4.8 0-5.6-1.6-3.4-7 .9-2.2 1.6-5.3 1.6-6.8.1-1.5.9-4.5 2-6.7s1.9-5 2-6.3q0-2 .9-2.2c1.6 0 3.6 6.4 3.5 11.3s1.3 5.8 3.1 1.9c.5-1.2 1.7-2.2 2.6-2.2 2.6 0 3-4.9.9-9.8-2-4.4-3.3-4.9-11.2-4.3-3.2.2-9.1-2.6-8.3-3.9q.7-.9 2.5.2c2.4 1.5 4.4 0 3.4-2.5-1.1-2.9-5.2-2.1-6.9 1.3q-3.3 6.2-3.5-.9c0-3.4.4-4.2 2.8-5.3 2-1 2.7-2.1 2.7-4.3q0-3.1 1.8-3c1.1 0 2.8-1.1 3.9-2.4 2.1-2.7 1.8-6.4-.7-9-1.1-1.2-1.1-1.7.2-3.7 2.8-4.4-.8-11.4-5.9-11.4-1.4 0-1.8-.8-1.8-3.5q0-3.5 1.5-3.5 1.3 0 1.5-.9c.2-.9-.7-1.4-1.5-2.1s-1.5-2-1.5-3c0-1.5-.7-1.7-4.5-1.2-5.2.5-5.8-.6-2.1-4.2 1.2-1.3 2.6-3.1 2.9-4 .4-.9 1.8-2.1 3.1-2.6s3-1.8 3.6-2.9q1-1.9 2.5-1.5c2.4 1 6.5-2.3 6.5-5.1 0-2.2.4-2.4 2.3-2q2.3.6 3.6-.9 2.7-3.6 1.1 1.4m-71.3 2.6q-.6.5-1.9.1-1.1-.5.6-.6t1.3.5m154.8 1.4c4 4.5 6.8 23.2 3.2 21.6l-5.4-1.7c-2.4-.6-4.3-1.7-4.3-2.3 0-1.9 2.3-4.4 4.5-4.8q2-.3 2.3-3.1c.3-2.1-.2-2.9-2.2-3.7-2.1-.8-2.6-1.6-2.6-4.5q.1-6 4.5-1.5m-20.1-.2c.8 1.4-.8 3-3.9 3.8l-3 .7 2.4-2.7c2.5-2.7 3.6-3.2 4.5-1.8m-167.2 5.9q3.3 3.2.2 9.5c-3.1 6-1.9 16.4 3.1 25.8 2.7 5.1 7.4 3 11.2-5.3 4.4-9.2 3.9-17.2-1.4-22.9-2.7-2.8-2.7-5.5-.1-7.2 2.2-1.4 5.4 1.5 6.4 5.8.3 1.7 2.6 6.9 5 11.6a91 91 0 0 1 6.6 17.2c2 8.3 2 8.9.4 10.7-.9 1-1.9 3.2-2 4.7l-.5 3.3A104 104 0 0 0 271 367l-11-5.5c-3.7-1.9-20.7-2.9-21.3-1.3q-.4 1.1-1.2.6c-.4-.4 0-4 .9-8l3.6-17.3c3.4-15.9 3.6-16.5 7.2-16.5a8 8 0 0 1 5 1.7m158.6 2.5c.3 2.8 4.4 6.8 6.8 6.8 1.6 0 3.7 3.7 2.9 5-1 1.7-3.5 1.1-6.3-1.5-4-3.7-5.5-2.9-6.8 3.8-1.2 6.1-2.8 8.7-5 8.7q-1.3 0-1.4-.3l3.5-10.2c2.5-6.9 3.4-10.9 2.9-12.8-.5-2.4-.3-2.8 1.3-2.5q1.7.4 2.1 3m40.8 3.5c-1.4 7.8-1.8 9.3-2.6 9.3-1.2 0 0-10.1 1.3-11.8q2.4-3.2 1.3 2.5M60.5 330q-.6.9-1.6 1-.8-.1-.9-1 .1-1 1.6-1 1.3 0 .9 1m204.6.6c1.7 2.1 1.9 16.1.2 18.9-1 1.6-1.2.4-1.1-7.1 0-5-.5-10.1-1.1-11.3-1.4-2.5.1-2.8 2-.5m-5.6 9.4c0 9.5-.5 12-1.9 8.4-.8-2.1-.8-16.9.1-17.7 1.5-1.6 1.8-.2 1.8 9.3m-179-7.1c.3.5-1.3 2-3.5 3.2s-4 2.8-4 3.4c0 1.7 2.2 3.5 4.3 3.5q2.1.1 1.4-2.1-.7-2.1 2.3-5c2.8-2.8 2.9-2.9 6.6-1.3 5.5 2.3 16.7 13.3 16 15.8q-1.1 3.8 5.3 9.3c4.1 3.5 3.7 5.7-.5 2.4a11 11 0 0 0-3.7-2.1c-.5 0-1.5-.7-2.1-1.6-.6-.8-3.1-2-5.5-2.5s-5.5-1.9-6.9-2.9c-1.8-1.5-4-2-8.2-2-5.1 0-6.1-.4-9.4-3.3q-3.5-3.4-3.1-4.9c1-2.5-1.3-3.1-2.7-.8q-2.7 4-2.8-.4c0-2.8 4.1-6.1 9.9-8.2 4.4-1.6 5.8-1.7 6.6-.5M61 336c-2.2 3.1-4 4.6-4 3.4 0-.8 5.1-6.4 5.8-6.4.2 0-.6 1.3-1.8 3m354.2 1.2q-1.1 1-1.2.2c0-1.4 1.2-2.6 1.9-1.9q.3.6-.7 1.7m-4.1 2.5q-1.8 2.8-.5-1.2.7-1.4 1.1-1.1c.3.2 0 1.3-.6 2.3m45.9-.3c0 2.8-1.7 4.3-3.2 2.8q-1-1 .4-3.1 2.7-4.2 2.8.3m-399 6.1q-.1 1.4-2.1 1.5c-1.8 0-1.9-.2-.9-1.5q1.2-1.4 2.1-1.5c.9-.1.9.7.9 1.5m1.5 7.5c0 1.7-3.4 2.4-5.4 1.1q-1.1-1-.6-2c1-1.7 6-.9 6 .9m31 5.4c1.1.7 3.8 1.6 5.9 2s5.8 2.2 8.2 3.9c2.3 1.8 5.5 3.9 7.1 4.8 3.1 1.7 6.6 7.9 6.1 10.7-.3 1.3-1.6 1.8-6.3 2-5.6.2-6.4 0-11.2-3.5-2.9-2.1-5.2-4.4-5.2-5a16 16 0 0 0-3.5-5q-6.2-7-5.2-9.9c.7-1.8 1.6-1.8 4.1 0m120.8.3c-.7.2-1.9.2-2.5 0q-1-.5 1.2-.5c2.2 0 1.9.2 1.3.5M60 360c0 .5-1.3 1-2.9 1-1.7 0-3.3-.5-3.6-1q-.4-1 2.9-1c2 0 3.6.4 3.6 1m162 2c1.3 2.5-.1 5.5-2.9 6.3-3.8 1-5.4-3.2-2.4-6.5q3.3-3.5 5.3.2m111.7-.8c-.5 1.5-4.6 1.3-6.1-.2q-1-1 2.8-1t3.3 1.2m-68.2 6c4.4 2.1 9.8 5.2 12 6.8a27 27 0 0 0 5.8 3.6c2.1.8 6.1 8 5.2 9.4s-3.1 1.2-4.5-.5q-1.2-1.5-7.2-1.5c-6.9 0-9.1-.9-13.8-6-2.9-3-4.4-3.8-8.8-4.4-6.6-.9-8.2-1.5-8.2-3.2 0-2.1 7-1.8 14.2.7 7.3 2.4 9.8 1.3 4.2-2a35 35 0 0 0-14.9-5.1c-1.6-.1-4.3-.7-6-1.5-2.7-1.2-2.2-1.3 5.5-.8a35 35 0 0 1 16.5 4.5m-54.7-.9c.3 2.2-.1 2.7-1.8 2.7-2.6 0-3.7-2.5-2-4.5 1.8-2.2 3.4-1.3 3.8 1.8m20 1.3c-1.7 1.7-4.8 1.3-4.8-.6 0-1.5 4.3-3 5.5-1.9q.9 1-.7 2.5m9.1-2.2c1.8 2.1-.3 6.2-3.4 7-3.7.9-4.1.2-1.6-3a11 11 0 0 0 2.1-4c0-1.8 1.4-1.8 2.9 0m-180.4.6q.4 1-2.9 1c-2 0-3.6-.5-3.6-1s1.3-1 2.9-1c1.7 0 3.3.4 3.6 1m26.9 3c2 2.2 3.6 4.9 3.6 5.9 0 1.1 1.5 2.8 3.5 4q6.5 3.9 3.1 6.6c-2.6 1.9-5.1.7-6.5-3.1-.7-1.9-2.3-4.7-3.7-6.3-2.1-2.5-5.4-9-5.4-10.6s2.1-.1 5.4 3.5m221.6-2c2.6 2.6 1.2 6-2.5 6-2.9 0-4.5-4.1-2.5-6.5 1.7-2 2.6-1.9 5 .5m-105.5 1.6c1.9 2.9 1.2 4.4-1.3 2.8-1.8-1.2-2.9-5.4-1.4-5.4.5 0 1.7 1.2 2.7 2.6m90.2-1.4c.6.7 1.3 3 1.6 5 .4 2.7.2 3.8-1 4.2-2.2.9-3 .7-4.7-1-2.1-2-2-5.3.1-7.6 1.9-2.1 2.7-2.2 4-.6m-214 7.4c-.9.9-4.5-1.9-5.6-4.3-1.8-3.9-1.3-3.9 2.5 0 2 2.1 3.4 4 3.1 4.3m237.3-3.4c0 1.7-2.5 3.6-3.6 2.6a10 10 0 0 1 .2-3.7c.5-2.5.9-2.9 2-2 .8.6 1.4 2 1.4 3.1m13.7-2c1.8 1.7 2.3 3.2 2.3 7.1 0 4.3-.2 4.8-1.5 3.7-1.2-1-1.8-1-3 0-1.3 1-1 1.8 2.1 5.6 4.5 5.4 3.3 5.6-2.3.5-4.9-4.4-5.3-6.2-1.8-8.5 2.6-1.7 3.5-6.8 1.5-8.1-1.1-.7-1.4-2.5-.3-2.5.4 0 1.7 1 3 2.2m-30.2 2.8c.9 1.6 1.1 3 .6 3-1.1 0-3.1-3.2-3.1-4.9q0-2.8 2.5 1.9m-239.6.6c1 .9-.6 1.1-3.6.7-1.8-.3-3.3-.9-3.3-1.4 0-.8 5.9-.1 6.9.7m166.1.4c1.8 1.2 1.8 1.2-4.2 1.5-5.1.3-10.2 2.9-9.5 4.8.5 1.7 8.4 2.1 13.1.7q4-1.2 4.9-.1c1.3 1.3-3.1 3.1-7.8 3.1-3.1 0-6.5 2.1-6.5 3.9q.1.9 1.5 2.1c1.1.9 1.9.8 3.7-.4a9 9 0 0 1 4.3-1.6c1.6 0 1.3.4-1.3 2-3.8 2.4-3.7 4.6.2 4.3 4.1-.3 2.4 1.1-8.4 7.2a51 51 0 0 1-15.7 6.5c-3.2.6-8.2 1.7-11.1 2.7-6.7 2-7.5 1.2-6.6-6.6.8-7.6.8-7.6 8.1-12.1 6.1-3.9 16.3-13.4 16.3-15.3 0-2.8 15.4-5 19-2.7m87.3 6.6c2.3 1.5 5.3 3.7 6.7 5s3.7 2.7 5.2 3.3c2.9 1.1 6.4 6 9.1 12.8 1.3 3.2 1.4 4.9.6 7.1-.9 2.5-1.8 3.1-6.3 4-5.9 1.2-12.4 0-14-2.6-1.3-2.2-8.7-5.2-12.8-5.2-2.1 0-3.8-.5-3.8-1s2-1 4.5-1c3.8 0 4.5-.3 4.5-2s-.7-2-4.2-2.1c-2.4 0-5.2-.4-6.3-.9-1.9-.7-1.9-.8-.2-1.5 1-.4 3.6-.5 5.7-.2 4.1.5 6-.7 4.2-2.5-.6-.6-3.8-1.2-7.3-1.4-7.2-.5-8.4-1.1-6.8-3q1.2-1.4 7-1.4 9 0 5.9-3.6c-1-1.1-2.5-1.3-6.1-.8-4.1.5-4.9.4-4.9-.9 0-2.2 1.5-2.9 7.9-3.7l6.4-.9c.4 0 2.6 1.1 5 2.5m-116.4 1c-3.8 4.1-11 8.6-12.7 7.9-2-.7-1-1.7 6.9-6.6q11-6.7 5.8-1.3m-120.1-.4c.7.7 1.2 2 1.2 3 0 1.1.9 3.7 2.1 5.9 1.1 2.2 1.9 4.5 1.7 5.1a48 48 0 0 1-8.8-14.1c0-1.5 2.3-1.4 3.8.1m166.8 3.8c2.3.5 5.7 1.8 7.6 2.9s6.7 2.5 10.8 3.1l12.7 2c2.9.4 6.6 1.8 8.2 2.9 1.6 1.2 4 2.1 5.4 2.1q2.5.1 3 1.7c.7 2.5.2 14.2-.8 17.8q-4.3 17.3-10 31.5c-2.5 6-4.2 11.7-3.8 12.5.3.9 2.2 2.4 4.2 3.4a95 95 0 0 1 15.3 8.8c1.6 1.4 1.8 1.4 2.4-.1.9-2.4-1.1-4.2-9.7-8.4-8.8-4.4-8.8-4.5-3.6-17.9 3.8-9.6 7.8-22.6 9.6-31.5 1.4-6.5 2.9-8.1 6.4-7.3 3.5.9 4.1 6.3 2.7 24-2.1 25.9-2.8 40-1.9 40.9.5.6 2.9.1 6.1-1.2 8.3-3.3 20.4-7.2 22.8-7.2q5 .1 0-7.6c-4-6.3-8.7-22.7-10.6-36.7-.5-3.8-.3-4.7.9-4.7 3.3 0 6.5 1.9 7.1 4.3.3 1.3 1.5 3.6 2.7 5.1 1.9 2.4 2.7 2.7 5.6 2.1q3.4-.6 4.9.6c2.3 1.9 1.6 2.9-1.1 1.9-3.7-1.4-4.2.8-2.2 9.4a29 29 0 0 1 1.1 9.4q-.8 2.3 1.3 4.2a4 4 0 0 1 1.6 4.3c-.3 1.4 0 2.8.5 3.1q1 .6-.3 3.9c-.7 1.7-2.1 8.4-3 14.7s-2.4 14.4-3.5 18l-5.5 20.2c-1.9 7.5-4.9 17-6.7 21a50 50 0 0 0-3.5 11.4c-.4 3.8-.1 4.4 5.1 9.8 4 4.2 6.4 5.9 9 6.3 3.1.5 3.6.9 3.6 3.4q-.2 6.5 9.4 4.6c6.8-1.3 8.1-.4 9.1 6.1.3 2.6 1.3 7.1 2.1 10a92 92 0 0 1 1.7 21.5c.2 14.9.4 16.5 2.6 20.7 1.3 2.4 2.5 6 2.6 8l1.5 13.3c.6 5.5.9 10.1.6 10.4-.9.9-2.6-.8-2.6-2.7 0-1-1.1-2.7-2.4-3.7-1.8-1.5-2.4-3.1-2.8-7.6-.3-4.2-1.1-6.4-2.9-8.3-5-5.4-11-6.9-13.1-3.3-2.1 3.3-8.7 6.4-13.3 6-2.9-.2-4.8.3-6.6 1.8l-2.6 2-2.7-4a27 27 0 0 1-2.6-4.9c0-.5-1.4-1.1-3.1-1.5q-3.1-.8-4.9 1c-1.5 1.4-2.9 1.6-6.7 1-2.6-.4-5.6-1.1-6.5-1.6-1.2-.6-2.4-.2-4.5 1.5-6.9 5.7-8 5.5-8.5-1.8-.3-3.7-.6-4-7.5-7.6a80 80 0 0 1-8.8-5c-2.4-2-8.1-.4-10.6 3.1-1.7 2.5-2 3.8-1.4 7.5.4 2.7.1 5.7-.6 7.9-1.2 3.1-1.1 3.8.9 6.4 1.7 2.3 1.9 3.1.8 4q-1.2 1.3-3.5-1.9c-2.7-3.7-5.6-3.8-10.1-.5a12 12 0 0 1-5.7 2.5c-3.1 0-4.9 3.5-3.4 6.7.8 1.8.8 2.4-.2 2.7l-6.5 1.6a37 37 0 0 0-14.9 6.7c-3 2.3-3.7 2.4-16.7 2-7.4-.2-13.8-.5-14-.8-1.5-1.5-2.8-17.4-3.1-37.9-.3-22.6-2.5-63.1-4.6-85a620 620 0 0 1-3.4-55.5c-.4-13.8-.9-27.7-1.2-31l-1-20.6-.6-14.6 3.9-.8c5.2-.9 5.8-1.4 4.1-3.3-2.5-2.9-5-10.9-4.3-13.8q1.4-5.9-5.3-4.8c-5.4 1-6.9 2.1-7.6 5.6-.6 2.7-.9 2.9-1.7 1.4-1.7-3.1 0-8 4.4-12.4q7.2-7.3 6.6-1.6c-.4 3.8 1.9 4.1 3.9.5 1-1.8 2.6-3.1 3.7-3.1s2.7-.7 3.7-1.6c2.5-2.3 4.3-.9 2.5 1.9a30 30 0 0 0-2.2 9.4q-.7 7.3-1.9 7.3c-2.1 0-3.8 2.8-3.1 5.5.8 3 4.3 5.2 5.9 3.6.6-.6 2.4-1.1 3.9-1.1 3.4 0 7.8-2.6 7.8-4.6 0-1.6 3.6-3.3 8.7-4.1 2.4-.4 3.4-.1 3.9 1 1.4 3.8-15.3 39.4-19.7 41.7s-1.9 5.2 11.4 13.4c2.7 1.7 5.3 1.4 4.2-.5-.4-.5-3.1-2.5-6.1-4.4s-5.4-4.1-5.4-4.8 1.6-3.7 3.6-6.7a163 163 0 0 0 15.3-32.4c3.1-9.3 5-12.2 7.4-11.3 1.1.4 1.2 1.7.6 6.9a211 211 0 0 1-8.5 40.6 97 97 0 0 0-4.1 15.6c1.3 3.4 12.3 2.7 30.2-1.9a88 88 0 0 1 12.7-2.5q5.6-.2 1.9-4.4c-1.2-1.2-2.1-2.8-2.1-3.5s-1.8-6.4-3.9-12.7c-2.2-6.3-4.7-16.2-5.6-22.1l-3-18.7c-1.4-7.9-1.4-7.9 1.1-10.8 1.3-1.7 2.2-3.4 1.8-3.9-.3-.5 0-2.5.6-4.5q1.2-3.8 2.8-2.9zm-183.1 0c-.3.5-2.4 1-4.6 1s-3.9-.5-3.9-1 2.1-1 4.6-1c2.7 0 4.3.4 3.9 1m119.5.9c0 1-.6 2.3-1.2 2.8-2.4 1.8-7.9 3.6-8.6 2.8q-.6-.7.7-1.3c.7-.2 2.8-1.7 4.5-3.3 3.7-3.4 4.6-3.6 4.6-1m-62.7 1.7c3.7 2.5 3.9 2.5 5.8.8s2.1-1.6 5.2-.1c1.7.9 4.4 1.9 6 2.2s2.7 1.2 2.7 2c0 1.9-.5 1.9-6.6 0-2.7-.8-6.6-1.5-8.8-1.5-3.8 0-10.6-3.3-10.6-5.1 0-1.6 2.4-1 6.3 1.7m-41.9 8.2c1.8 3.7 3.7 7.6 4.4 8.7.6 1.1 1.4 3.6 1.7 5.7.6 4.2 4.6 8 14.5 14.2 5.7 3.6 6.6 3.8 11.3 3.2 2.9-.4 5.7-.6 6.2-.6l8.3.6c7.9.6 7.8.5 8.4 8.4l.3 3.5-7.5.3c-4.5.2-9.7-.3-13-1.2a167 167 0 0 0-23.6-4.8q-2.2 0-2.7-1.8-.7-2.1 1.7-1.7c1.8.2 2.1-.3 2.1-3.1 0-3.7-1.6-4.4-3-1.3-.5 1.1-1.2 2.1-1.5 2.1-1.1 0-11.6-30.3-12.4-35.8q-1.3-8.9 4.8 3.6m-14.6-4.1q.5 1.3-4.2 1.3c-4.3 0-6.3-1-4.9-2.4 1.2-1.1 8.6-.2 9.1 1.1m50.8.7c2.4 1.8 1.1 4.4-3.1 6.5-7.5 3.7-15.2 1.9-19.3-4.4L87 390h11.3c8.3 0 11.8.4 13.3 1.4m16.7 3.2c4.3.8 4.6 1.7 1.4 3.9-3.9 2.5-15.2-.3-13.3-3.4.8-1.2 6.1-1.4 11.9-.5m-67.4 3.9q.6 2.3-1.1.8a15 15 0 0 0-5.6-1.9c-5.7-.9-4.5-2.1 1.5-1.5 3.7.5 4.9 1 5.2 2.6M228 400q-.1.9-1.1 1-.8-.1-.4-1 .6-1 1.1-1 .3 0 .4 1m112.9 12.4c-1.5 7-4.8 11.6-6.7 9.4-.9-1.2-.7-2.1 1.3-4.8 1.3-1.8 2.9-5.8 3.6-8.9 1.6-7.9 2.2-9.2 2.7-5.1.2 1.9-.2 6.1-.9 9.4m-248.4-7.2c2 6 4 8.4 8.9 10.7 5.1 2.4 7.8 2.6 10.4 1 2.1-1.3 12.7 0 12.7 1.6 0 .6-2.8 1.2-6.2 1.5a21 21 0 0 0-7.5 1.7c-1.7 1.8-5.5 1.6-6.2-.2-.3-.8-1.6-1.5-2.8-1.5-2.9 0-11.5-5.6-14.1-9.2-2.7-3.6-1.7-10.1 1.5-9.6q2 .3 3.3 4m-30.9 5.9c.2 8.8.1 9-1.7 7.3q-1.8-1.7-5.4-1.1c-2 .3-3.7.1-4.1-.5-.9-1.5 1.3-2.6 4.2-2 3.2.6 5.4-1.4 5.4-4.9 0-2.5-.5-3-4.2-3.9-6.5-1.6-7-1.9-6.3-3 .3-.5 3.2-1 6.3-1h5.7zm44.1-7.7c-.3.7.6 3.2 1.9 5.6 1.4 2.4 2.2 4.5 2 4.8-1.2 1.1-8.3-2.8-10.4-5.8-2.5-3.7-2.1-4.6 2.3-5.3l3.9-.6q.7 0 .3 1.3m121.3 1.1c0 .5-1.4 1.5-3.1 2-3.3 1.1-2.9 2.5.6 2.5 2.3 0 5.2 2.5 3.8 3.3l-3.8 1.1c-1.6.4-3.9.9-4.9 1.3-1.7.5-1.8.1-1.2-3.8q1.4-9.4 6.1-8.1c1.3.4 2.5 1.1 2.5 1.7m86.4 8.7 2.8 3.2-2.4 1.8-2.3 1.8h2.3q2.3 0 3.3 2.7 1.6 4.3-3.3 4.3c-2.8 0-2.1 1.8.9 2.2 3.9.4 4.2 2.8.4 2.8-4.4 0-3.8 1.8.7 2.2 4.9.4 5.1 3.1.3 3.8-5.3.8-5.3 3.2-.1 2.8 5.4-.4 6.4 1.6 1.6 3.2-4.7 1.5-4.7 3.4-.1 2.7 1.9-.3 3.7-.1 4 .4.7 1.1-4 3.1-6.3 2.7q-1.4-.2-2 1.1c-.4 1.1.6 1.3 5.2.7 4.3-.5 5.6-.3 5.6.7 0 .8-1.9 1.7-4.7 2.3-5 1-7.1 3.4-3.1 3.5q3.2-.1.3.9l-3.9 1.4q-1.9.6-1 1.6c.6.6 3.5.2 7.8-1.1 3.7-1.1 7-1.8 7.3-1.5.8.8-.7 2.6-2.3 2.6-.8 0-5.2 1.3-9.8 2.9a50 50 0 0 1-8.8 2.6c-.2-.2.2-6.2.9-13.2s1.5-19.8 1.8-28.3l.5-15.8c.1-1 2 .3 4.4 3m-84.9 4.8q-.2 1.4-2.5 1.8c-8.4.9-9 3.2-.9 3.2 4.2 0 4.9.3 4.9 2 0 1.8-1.4 2.3-8.9 3.3q-1.4.3-1.8 1.4c-.4 1 1 1.1 5.7.6 5.7-.6 6.2-.5 5.8 1.3-.2 1.4-1.6 2.1-5.6 2.7-7.2 1.2-6.5 2.7 1.3 2.7 3.6 0 6.5.4 6.5.9 0 .8-6.3 2.5-12.4 3.3q-1.8.3-1.5 1.3c.5 1.2 5.9 1.2 11.3.1 3.1-.7 3.8-.6 3.4.5q-.7 1.4-4.9 1.7-9.1.5-8.9 2.3 0 1 7.8.9c9.6-.3 9.7-.3 8.2 1.4-.7.9-4 1.8-8.1 2.2-6.8.6-9.5 1.9-6.6 3 .8.3 4.8.1 8.8-.5 4.6-.6 7.8-.6 8.3-.1 1.8 1.8-.5 2.5-11.2 3.5s-14 2.6-7.2 3.4c3.2.4 3.3.4 1 1.1q-2.3.7-2.4 2.3c.2 1.8-4.3 3.7-8.7 3.7-3.7 0-3.7-1.4.1-13.2a217 217 0 0 0 7.5-34.1l.6-4.8 5.2.3c3.8.2 5.2.7 5.2 1.8m-176 4a2 2 0 0 1-1.2 1.7q-1.2.4-1.3-1.7 0-2 1.3-1.8 1 .6 1.2 1.8m344.5 3c3.7 3.7 3.8 4 2 5-2.6 1.4-2.9 1.3-4-1.5-.8-2-1.6-2.5-4.4-2.5-3.8 0-6.8 2.3-6 4.5q.8 1.6-2 1.5c-3.5 0-8.2 2.4-9 4.7-.4 1 .1 2.8 1.4 4.5l2 2.8-3.6 1.5c-4.4 1.8-5.2 1.9-3.6.3.7-.7 1.2-2 1.2-3 0-2-4.4-2.5-7-.8-1.3.9-1 1.4 1.5 3.5 2.7 2.2 2.8 2.5 1 3l-4.7 1.7q-6.4 2.3-5.3-3.3c.5-2.3.2-3.6-1.3-5.2-2.8-3.1-3.1-6.3-.7-8.1 2-1.4 2-1.5-.4-4q-2.5-2.7-1-2.6 5.2 0 6.6 4.1c1.4 3.7 3.1 4.3 8.2 2.9q4.1-1 5.6-3.9c.8-1.6 1.1-3.1.8-3.5-.7-.7 2.6-4.6 4-4.6q.8.1.4 1.4c-.9 2.2 1.9 4.1 3.8 2.6q1.4-1.2 1.5-2.6 0-1.8 6.8-2.3 2.3 0 6.2 3.9m14.5 2.5c-2 2.5-4 4.5-4.4 4.5s-2.6 1.8-4.9 4c-2.2 2.2-4.8 4-5.6 4s-2.4 1.2-3.5 2.6-2.5 2.3-3.1 1.9q-.9-.4-1 .9c0 1.5-3.7 4.2-4.6 3.3-.3-.2-1.8.8-3.5 2.4-2.7 2.5-10.4 4.9-13.3 4.1-.4-.2-1.4.3-2.2.9q-1.4 1-2.1.6-.6-.6-1.7.2a33 33 0 0 1-14.2.8q-.6-.7-.1-2.2c.5-1.2 2.3-1.5 8.3-1.5 6.3 0 8.5-.4 11.8-2.4a226 226 0 0 0 44.1-27.6c4.3-4.5 4.3-1.7 0 3.5m-251.7-2.1c.5.6 1.2 8.3 1.6 17.1l1 22c1.2 17.3 1.8 33.4 1.7 45a302 302 0 0 0 3 43c.6 3.3 1.2 12.3 1.5 20 .2 7.7.8 17.8 1.4 22.5s1.2 25.6 1.4 46.5.6 39.6 1 41.5l2.1 11c.8 4.1 1.9 14.5 2.5 23s1.3 16.3 1.6 17.2q.4 1.7-2.2 3.4c-2.5 1.7-2.7 1.7-3.9.1-.7-1-3.3-1.9-6.8-2.3-5.1-.6-5.7-.9-5.7-3 0-2.4-3.3-5-5.1-3.9-1.1.7-3.9-1.2-3.9-2.6 0-.5 1.2-1.4 2.6-1.9l2.7-1-.7-10.8c-.3-5.9-.8-26.2-1.1-45.2-.6-35-2.1-65.7-3.4-69.3-.7-1.7-1-1.5-2.3 1.9-1.3 3.3-1.4 6.2-.7 18.4.4 8 1 34.5 1.1 59l.3 44.5-4.5-.3c-2.5-.2-4.9-.8-5.4-1.3-1.3-1.2-.8-111.9.5-125.9a1496 1496 0 0 0 .8-98.5l-1.4-11a218 218 0 0 1-2.8-33.4c.3-2.2 0-8.4-.7-13.6-.7-5.3-1.1-9.8-.8-10 .3-.3 3.2-.7 6.5-1 3.3-.2 7-.8 8.2-1.3 3.4-1.2 8.9-1.2 9.9.2M62 428c0 .6-2.5 1-5.7 1q-8.8 0-1-2.6c3.2-1.1 6.7-.3 6.7 1.6m287.5 2c-.3.5-1.5 1-2.6 1s-1.7-.5-1.4-1 1.5-1 2.6-1 1.7.4 1.4 1m-6.5 3.1q-1.2 1.9-1.6 1.6c-.7-.7.7-3.7 1.7-3.7q.9.1-.1 2.1m77.2.4c1.2 2.6.4 4.6-1.1 2.9a9 9 0 0 1-1.6-3.2c-.9-3.1 1.2-2.9 2.7.3M51 434.6q-.1 1.3-1 .9-1-.7-.5-1.6 1.4-2 1.5.7m6-1.2q-.2.4-1.5 1-1.3.4-1.5-.4.2-1 1.5-1c1.3 0 1.5.2 1.5.4m355.4 2c-.5 2 0 2.7 2.5 4.1 3.8 1.9 4.2 4.4.6 3.8a8 8 0 0 1-4-2.9c-.8-1.3-2.1-2.1-2.9-1.8-2.6 1-3-1.8-.5-3.7 3.4-2.6 5.1-2.4 4.3.5m-23.9.6c-.3.5-1.1 1-1.6 1q-.9-.1-.4-1a2 2 0 0 1 1.6-1q.9 0 .4 1M62 439.4c0 2.2-1.3 2.6-5.4 1.9q-5.6-1-.1-2.6 5.6-1.4 5.5.7m30 3c0 2.2 1.7 2.8 3.8 1.5 1.5-.9 3.1-.8 7.8.8l5.9 2 .2 22.4a458 458 0 0 1-.9 34.4c-.7 7.4-.8 19.6-.3 31.7.7 18.4.8 19.7 2.7 20.1q2 .5 1.5 2.4c-2.1 7.3-2.5 50.4-.7 75.8 1.3 18.7 1.6 42 .6 52.5-1.4 16.1-1.4 37-.1 37q2.7 0 2.5-12.4c-.1-3.9.4-13.6 1-21.6 1-11.7 1-19.9-.1-42.5q-3.2-64.1 2-141c.5-7.7.8-14.2.5-14.4-.2-.3-1.2.2-2 1.1-1.2 1.2-1.8 5.2-2.4 17.4l-.9 16.4q-.2.3-1.1-.6c-.6-.6-.6-7.4.1-18.9.5-9.9 1.1-27.1 1.3-38.3s.5-20.5.7-20.7a86 86 0 0 1 8.7-.7l8.2-.3v8.2c0 4.4.6 13.4 1.4 20 1.6 14.6 1.5 10.7 2.1 65.3q.8 70-1.6 70-.8-.2-.9-1.9c0-1.1-.5-2.3-1.1-2.7-2.2-1.3-2.7 1.2-1.4 6.2q1.3 5.1.6 11c-.3 3.2-.5 8.6-.4 11.9l.7 22c1.1 42.4 2 61.4 3.2 68.5.3 1.9.9 8.9 1.3 15.5.9 12.6 1.6 15.8 3.5 15.2q1-.5.6-5.3c-.3-2.7-.5-9-.5-13.9v-9h3.5c2.8 0 3.5.4 3.5 2a72 72 0 0 1 2.1 15.3q1 16.1 3.1 10.7c.3-1 .6-5.8.7-10.9.1-5 .5-9.1 1-9.1s1.1 5.6 1.3 12.5.6 13.1.9 13.9q1.2 4-7 4.1c-2.9 0-5.7.5-6.4 1.2-.9.9-1.7.7-3.5-1-1.3-1.2-3-2.2-3.9-2.2-1.9 0-2.8-2.9-2.8-9.5 0-2.8-.5-7.7-1-11s-1.2-10.5-1.5-16-1-12.3-1.6-15.1c-.5-2.9-.9-7.1-.8-9.5.3-5.3-1.5-33.9-3.9-61.4a258 258 0 0 1-.3-53.9c1.3-7.1 1.5-35.2.2-36.1-1.9-1.1-2.3 1.9-2.7 17.8-.2 8.9-.8 21.4-1.4 27.7-1.2 12.4-.7 25.6 1.5 44.5.8 6.6 1.9 23.9 2.5 38.5a1294 1294 0 0 0 2 37.5c2.8 33.3 4.1 46.8 4.6 47.6q.5.7 1.7.3c.7-.2 3 1.3 5.1 3.5 3.8 3.9 3.9 4 1.5 4.5-1.3.3-5.1.7-8.3 1a18 18 0 0 0-8.5 2.4l-4.9 3.1c-2.8 1.5-4.8.5-3.1-1.5s-1.3-2.9-4.9-1.6c-9.2 3.5-12.2 2.3-12.2-4.9v-5.1l3.1 3.1c2.6 2.6 3.8 3.1 8.1 3.1 5 0 10.3-2.2 11.2-4.7.8-1.9-1.7-1.6-6.1.6-7.7 4-12.4.6-12.7-9.2-.2-4.9-.8-7.1-2.6-9.8-2.9-4-2.9-3-.6-38.5 1.1-17.8 1.3-29.5.8-40.5-.5-8.8-.5-15.9.1-16.6 1-1.4-.1-10.1-1.4-10.9q-.7-.6 0-2.2c.5-.9.9-6.4 1-12.2s.4-12.5.7-15c.5-4.8-.5-9.8-2.1-10.2-.6-.2-1.1 5.3-1.4 13.7-.5 18.7-.6 20.8-.3 29.5.1 4.1.3 14.5.3 23s.2 15.8.5 16.2 0 4.5-.5 9-1.3 15-1.5 23.3c-.3 8.2-.8 17.5-1.2 20.6-.5 4.5-.2 6.5 1.5 10.3 2.1 4.8 2.1 4.8.1 7.3-1.7 2.2-2 3.9-1.8 11.2.3 10.5-.6 12.5-7.5 15.7-6.5 3-10.7 3.2-10.7.5 0-2.3-1.8-3.1-4.5-2a35 35 0 0 1-8.2.8c-6 .1-6.3 0-7.8-3-2.1-3.9-1.5-5.2 3.4-8.4 3.5-2.1 4.4-2.3 6.1-1.3 1 .7 2.2 1 2.5.6.3-.3.6-3.8.7-7.7 0-6.4.4-7.5 3-10.9 6.8-8.5 7.8-11.2 8.9-24.4.6-6.8 1.1-19 1.2-27.2.2-12.2.5-15 1.7-15.4q1.4-.6 2.2-1.6c.4-.6.6 14.4.5 33.4-.2 38.7-.1 38.2-7.8 45-4.8 4.2-6.4 8.9-4.2 12a4 4 0 0 0 3.8 1.8c1.2-.1 3 .4 3.9 1.1 1.5 1.3 2 1.2 3.8-.6 2.9-2.9 1.7-5.8-2-4.9-4.9 1.2-5.6 1.1-6-.6-.2-.9 1.7-3.9 4.2-6.7 2.6-2.9 4.6-6.1 4.6-7.2s.7-3.6 1.6-5.7c1.5-3.3 1.7-13.6 1.9-97.7.2-58.4.7-95.2 1.3-97.2q1.5-4.5-.9-4.3c-2.7 0-3.3 9.7-3.2 53.5l.1 45-1.9-9.5c-1.7-8.4-2-14.4-2.1-53.5-.1-24.2-.1-51.1.1-59.9.2-13.9 0-16-1.5-17.1s-1.6-2.4-.9-11.6l.8-13.2c0-2.1.5-2.7 2.2-2.7 2.4 0 3.1-2.3 3.8-14.5.7-10.9 2-18.2 3.9-22.8 1.9-4.4 4.8-6.4 4.8-3.3m-7 .1q0 .6-1 2.3a83 83 0 0 0-6 15.8c0 2.2-4.2 13.6-4.8 13-.4-.5.3-4 3.3-17.3 1.4-6.2 5.7-14.3 7.5-14.3q1 0 1 .5m-24.2 4.1c2.2.6 1.3 2.5-1 2l-6-1.1c-5.6-.9-4.7-2.6 1-1.9 2.6.3 5.3.7 6 1m285.2 1.6q0 .8-1 .8-.9-.2-1-2.3-.1-2.6 1-.7.9 1.4 1 2.2m87 9.8c1.7 3.9 3 8.1 3 9.2s.5 2.8 1 3.9c.9 1.5.7 2.1-.6 2.6-2.1.8-3.2-1.1-4-7-.4-2.6-1.1-4.7-1.6-4.7s-1.8-2-2.9-4.5c-1.6-3.6-1.8-4.9-.8-6.6 1.5-2.8 2.4-1.8 5.9 7.1m-376-4.4c-5.7 1.4-8.6 1.2-7.5-.6.3-.5 3.4-1 6.8-.9l6.2.1zm349.3 4.6a41 41 0 0 1 3.2 12.6c-.8.8-2.5-1-2.5-2.7 0-.9-.4-2.1-.9-2.7a9 9 0 0 1-1.3-3.9c-.2-2.4-.7-3-2.5-2.8-2.7.3-3.8-2.3-1.5-3.6 2.9-1.8 3.9-1.2 5.5 3.1m-22.1.2a11 11 0 0 1 1.2 5.3c-.3 1 .4 6.3 1.5 11.7 3.1 14.6 2.9 16.2-1.6 18.3l-4.4 2c-.7.4-2.9-12.3-2.9-17.1q0-5.5 3.3-4c2 .7 2.7 6.1 1 7.5a4 4 0 0 0 .1 5.8q1.3 1.3 2.5-.3c.9-1.1.9-2.9-.3-7.8-.8-3.4-1.2-7.5-.9-9q1.3-6.9-3.7-8.6c-3.2-1.2-3.3-3.5-.2-6 2.3-1.8 2.7-1.6 4.4 2.2m42.1 3.8c4.5 10.5 6.9 20.3 5.6 23.2-1 2-.9 3 .5 5.1.9 1.4 2.1 2.5 2.7 2.5 1.3 0 3.9 6.2 3.9 9.2 0 2.1-.5 2.3-4.9 2.4-4.2.2-5-.1-5.5-1.9q-1.1-3.8 2.5-3.7c3.2 0 1.6-4.8-2.2-6.2-.9-.4-1.9-2.1-2.3-3.9a8 8 0 0 0-2.2-4.4q-1.8-1-.9-4.4c.6-2.6.9-3 2.1-2q1.5 1.3 2.6.1c.9-.9.8-1.6-.6-3q-2-1.8-2.3-.5-1.4 3.9-3.4-4c-.6-2.8-1.8-6.6-2.6-8.4-2-4.9-1.6-5.6 3.2-6.2.6 0 2.3 2.7 3.8 6.1m-11.1-1.1c2.3 4.6 2.4 9.2.1 8.7-1.5-.3-4.2-7.6-4.3-11.6 0-2.4 2.4-.7 4.2 2.9m-353.9-2c-1.4 1.4-6.1 1.9-9.3 1.1-2.2-.6-2.1-.7 1.5-1.3 6.8-1.1 9-1 7.8.2m337.2 5.8 1.5 4.5-2.9 2.7c-2.8 2.5-2.9 3.1-2.6 9 .2 3.5.6 7.1.9 7.9.8 1.9 6.2 4.4 8.1 3.7.7-.3 1.8 0 2.3.6.9 1.2 5.5 18.8 5.3 20.4 0 .5-1.7.9-3.8 1-4.5.3-5.6 1.8-3.7 5.5 1.3 2.5 1.2 2.8-.5 3.8-1.7.8-2.2.4-4-3.3-2.2-4.5-2.8-9.7-1.2-9.7.5 0 1.3.9 1.6 2 1.1 3.4 2.2 2.2 2.3-2.3q0-6.7-5.5-8.8-2.1-1-2.4-2.6c-.1-4.4-1.9-17.4-3.2-23.8a159 159 0 0 1-2-12.1l-.6-5 4.5 1c4 1 4.5 1.4 5.9 5.5m-25.8-4.4c.2.6-1.4 1.8-3.4 2.7-3.5 1.4-3.8 1.5-4.2 0-.7-3.1 6.6-5.7 7.6-2.7m-12.2 3.6c1.7 3.2 1.1 5.7-.6 2.6-1.2-2-6.2-2.3-7.7-.4-.6.7-1.2 4-1.4 7.2-.3 4.5-.8 6-1.8 6-1.2 0-1.4-1-1.1-4.5.2-2.5.5-6.3.5-8.5.1-3.6.4-4 3.1-4.6 6.1-1.3 7.4-1 9 2.2m-299.7 1.8c.4 1.3-11.4 1.6-12.2.2-.9-1.4 0-1.6 6-1.5 3.3.1 6 .7 6.2 1.3m162.5-.2c-.7.2-1.9.2-2.5 0q-1-.5 1.2-.5c2.2 0 1.9.2 1.3.5m187 13.9c-1.7 1.3-1.7 1.4.4 2 3 .8 3.5 2.9 1.3 4.9-1.5 1.3-1.7 2.2-1 3.6 1.2 2.2 1.3 4.9.2 4.9-.5 0-1.6-2.8-2.6-6.3l-2.7-9.1c-.5-1.6-.9-3.8-.9-4.9 0-1.7.2-1.8 1.6-.6 1.4 1.1 1.8 1 2.7-.6 1-1.8 1.1-1.7 1.9 1.4.7 2.7.6 3.6-.9 4.7m-331.6-3.4q-.5 1.1-.6-.6t.5-1.3c.3.3.4 1.2.1 1.9m288.1.4c2.9 2 2.8 3.2-.3 4.4-5.2 2-1.2 9 5.1 9 1.9 0 3.7.6 3.9 1.2a529 529 0 0 1 4.9 42.7q-.5.4-1.2-.5c-.4-.6-1.7-1.6-2.9-2.3-1.3-.6-2.3-1.8-2.3-2.5q-.1-1.4-1.5-2.6a5 5 0 0 1-1.5-3.2q-.1-2.1 2-1.3 2 .7 2-.9c0-2.7-1.2-4.6-3-4.6-1 0-2.1-.8-2.3-1.8-.3-.9-.5.4-.6 3s-.6 5-1.1 5.3q-1 .7-.5 1.5.3.7-1 1.4c-1.7.6-1.6.8-2-5.9l-1.4-21c-1.7-25.2-1.6-25.7 3.7-21.9m-294.1 1.6q-.5 1.1-.6-.6t.5-1.3q.5.7.1 1.9m.5 6c-1 2.2-1.1 2.1-1.1-1.2q-.2-3.7 1.1-2.2 1.2 1 0 3.4m285.4 4.2c.5 5.1.3 5.6-1.6 5.6q-2 0-2.2-2.3l-.3-4.2c-.1-1.9 2.4-5.9 3.2-5.1.3.2.7 2.9.9 6m-297.8.8c.3 1.6-.5 1.8-6.8 1.8-5.2 0-7.1-.3-6.8-1.2 1.1-3.1 13-3.5 13.6-.6M400 488q-.1.9-1.1 1-.8-.1-.4-1 .6-1 1.1-1 .4 0 .4 1m-49.3 18.7-.2 13.6-2.8 1c-1.6.5-3.1.7-3.4.4s-.2-4.3.2-8.8c.6-6.8 1-8.2 2.6-8.6 2.3-.6 2.5-3.1.4-3.9s-1.9-6.1.2-7.3c1-.5 2.1-.7 2.5-.5s.6 6.6.5 14.1M61 496.4c0 1-1.7 1.5-6.1 1.8-6.9.3-9-.8-3.2-1.7l5.3-1c3.2-.6 4-.5 4 .9m11.5 19.1c.2 10.6-.1 18.5-.6 18.5s-.9-4.7-.8-10.5-.2-10.9-.6-11.5c-.8-1.2.5-16.4 1.3-15.6.2.3.6 8.9.7 19.1m353.1-10.9c1.6 5.9 1.6 6.4.6 6.4-1.9 0-4.8-7.5-4.3-11.3.3-2.4 2.6.5 3.7 4.9m-87.1 2.1c-.8 6.2-1.2 7.3-2.5 7.3q-1 0-.6-3l1.2-6c.9-5 2.6-3.5 1.9 1.7m-278-2.6q.6 1 .4 1.4c-.8.7-9.9-.8-9.9-1.6 0-1.3 8.8-1.1 9.5.2m386.1 2c.7 1.3 1.5 3.9 1.9 5.6.5 2.6.3 3.3-.9 3.3q-1.5-.2-2.2-2.8c-.3-1.5-1-3.7-1.5-5s-.9-2.8-.9-3.3c0-1.8 2.5-.4 3.6 2.2m-25.2 7.1a253 253 0 0 0 10.6 30.7c0 1.7-2 2.3-3.5 1.1-.8-.6-2.4-1-3.7-.8-2 .3-2.4-.4-4.4-8.2a114 114 0 0 1-4.8-23.2c.8-1.3 5.4-.9 5.8.4M61 515q-.2.9-1.5 1c-1.3.1-1.5-.5-1.5-1q.2-1 1.5-1c1.3 0 1.5.4 1.5 1m298.7 2.4c.1.1.5 7.3.7 15.9l.5 15.7H358c-2.7 0-3-.3-3-3.4 0-2.5.5-3.5 2-3.9q1.8-.6 2-1.6-.2-1-2-1.1c-1.7 0-2-.7-2-4.9 0-4 .3-5 2-5.4 2.8-.7 2.5-2.6-.5-3.7-2-.8-2.5-1.6-2.5-4.3 0-1.9.3-3.7.7-4 .5-.6 4.1 0 5 .7m32.3 2.8c1.6-1 2.1-.9 3 .8s3.8 14.2 4.3 18.8q.1 1.4-3.5 1.6c-3.1.2-3.8-.1-3.8-1.5q-.2-3.7-3.4-1.6c-3.2 2.1-1.1 5.1 1 4.3q1.5-.7 1.4 2.8c0 3.1-2.3 5.6-3.8 4.2-.3-.3-.8-4.3-1.2-8.8l-1.5-15-.7-6.7 3.1 1.2c2.4.9 3.6.9 5.1-.1m60.8 5.3c1.1 3.3 1.9 6.1 1.7 6.3-1.6 1.6-6.2-8.6-5.1-11.4.9-2.2 1.1-1.9 3.4 5.1M51.5 522c-.3.5-1.3 1-2.1 1s-1.4-.5-1.4-1q.1-1 2.1-1 1.8 0 1.4 1m9.5 0q-.2.9-1.9 1c-1.1 0-2.3-.5-2.6-1q-.4-1 1.9-1c2.3 0 2.6.4 2.6 1m-1.4 5.7c-.7.7-9.8.5-10.5-.3-.2-.2 2.2-.4 5.4-.4s5.5.3 5.1.7m386.6 3.3c2.6 0 6.4 7.8 4.9 10.2-1.6 2.6-1.4 3.1 1.4 2.6 7.2-1.4.8 7.8-6.7 9.7l-2.7.7.6-5.4c.5-4.7.2-5.6-2.1-8.1-6.9-7.5-7.2-11.4-.8-10.3zm-106.9 12.2c-.5 6.7-.8 7.8-2.4 7.8s-1.9-.7-1.9-3.1c0-4.4 3-14.3 4-13.2.5.4.6 4.3.3 8.5m67.9-4c-.4 3.4 2.1 5.2 6.2 4.5q3.3-.5 4.4.6c.5.7 2.1 5.7 3.6 11.2l3.2 11.7c.7 2.4-1.5 2.2-4.5-.2-1.8-1.5-2.1-2.3-1.2-3.3 1.3-1.7.5-2.8-1.5-2q-1.3.6-.9 2.4.9 2-1.8 1.9c-3.4 0-4.4-1.6-6.2-9.8-.8-4-1.9-8-2.4-8.9a63 63 0 0 1-3.1-12.4q0-1 2.3.4 2.2 1.5 1.9 3.9M60 536q0 .9-1 1a1 1 0 0 1-1-1q.1-1 1-1t1 1m-9 1q0 .9-.9 1-1-.1-1.6-1-.4-1 .9-1 1.5 0 1.6 1m387.6 6.5c1.9 2.6 2.4 3.9 1.6 4.7q-1 1.2-3.1-3-4.9-9.7 1.5-1.7m-387.1-1.4q.6 1 .2 1.5c-.7.8-5.7-.7-5.7-1.7 0-1.3 4.7-1.1 5.5.2m330.5 3.7c0 2.6.4 6.2 1 8.1q1.7 6-1.9 4.2-1.8-1-4.2.3c-2 1-2.7 1-3.7-.1-1-1-1.8-1-3.3-.3-2.3 1.3-1.5 3.4 1.2 2.7 1.4-.4 1.8 0 1.6 2.2 0 1.4.2 3.6.7 4.9q.8 2.3-.8 2.8c-2.6 1-4.5-1.4-5.1-6.4l-1.1-7.5c-.5-2.5-.3-2.7 3-2.7 2.8 0 4-.7 6-3.3 1.5-1.9 2.6-4.5 2.6-5.9q-.2-4 2.7-3.8 1.3 0 1.3 4.8M60.5 543q.4.9-.9 1-1.5-.1-1.6-1 0-1 .9-1t1.6 1m271.1.2c.7 1-1.4 3.2-4 4.1q-1 .4.7 2.4c3.2 3.6 1.1 6.9-2.4 3.7-2.2-2-2.4-3.8-.8-8.3q1-3.3 3.4-3.1c1.3 0 2.7.5 3.1 1.2m-259.9 4q-.5 1-.5-1.2c0-2.2.2-1.9.5-1.3.2.7.2 1.9 0 2.5m-14.7.4c1.7.4 3.4 1.3 3.7 2.1q1.4 3.5-3.6.9c-1.6-.9-4.8-1.6-7.1-1.6q-4 0-3.5-1c.7-1.1 5.7-1.3 10.5-.4m293.4 2.5c.5.5 1.2 4.7 1.4 9.3l.4 8.5-3.5.6c-2 .4-4 .4-4.6.1a73 73 0 0 1-.4-19.9c.5-.8 5.4.2 6.7 1.4m-278.7 2.1q-.5 1-.5-1.2c0-2.2.2-1.9.5-1.3.2.7.2 1.9 0 2.5M52 554c0 .5-1.5 1-3.2.9q-4 0-1.3-.9 4.3-1.8 4.5 0m9 1.4c0 2.1-2 3-3.3 1.7q-1.3-1.2.3-2.1 3-2 3 .4m276.3.2q1.6.8 1.7 3.1c0 2.1-.4 2.4-2.7 2.1s-2.9-.8-3.1-3.7q-.5-3.6 1-2.7zM72.9 586.7c-.1 30.8-1.1 37.1-2.2 13.3-.5-11.5.5-43 1.3-42.5.7.4 1 10.9.9 29.2M52 561q0 .9-1 1a1 1 0 0 1-1-1q.1-1 1-1t1 1m344 5.7c2.5 4.3 2.5 4.3-.5 4.3-2.6 0-4.8-2.7-5.9-7.2-.6-2.7-.5-2.7 1.9-1.6a12 12 0 0 1 4.5 4.5m-335.5-2.4c0 2.6-2 2.5-2.3-.2q-.4-2.4 1-1.9 1.2.6 1.3 2.1m-7.7 4.8c.2 1.3-.3 1.5-2.5 1.2-4.5-.7-5.5-1.2-4.8-2.3 1.1-1.7 6.9-.8 7.3 1.1m310.2-1.2c0 .9-4.1 2.3-4.8 1.6q-.3-.4.3-1.4c.8-1.3 4.5-1.5 4.5-.2m-301.4 4.2c1 1.7-1.3 3.6-2.7 2.2-1.2-1.2-.4-3.3 1.1-3.3q.9.1 1.6 1.1m326.4.4c1.5 1.8 9.2 2 13.9.4 1.8-.6 3.4-.9 3.7-.6s-.1 4.3-1 8.9c-7 36.9-7.8 43.5-5 46.3.9.9 2.7 5.9 4 11a83 83 0 0 0 3.4 11.4 48 48 0 0 1 1 11.5c0 7.3-.4 9.8-1.6 11a63 63 0 0 1-17.9 9.6 80 80 0 0 0-8.9 4.1c-1.6 1.5-3.5 1-4.6-1-.5-1.1-1.5-7.7-2-14.8-1.3-16-4-34.2-5.1-34.9-.5-.3-.9-1.6-.9-2.8 0-1.3-.7-4.1-1.6-6.2-1.4-3.1-1.7-6.8-1.5-18.2.1-10-.2-15.9-1.2-19.5q-3.9-13.6-1.2-15.7c1.4-1.1 2.1-1.1 4.6.4 2.5 1.4 3.8 1.6 8.2.8 2.8-.6 6.6-1 8.2-.9q2.9.2 2.8-1.1c-.4-1.7 1.2-1.5 2.7.3m-335.8 4.7q-1 1-3.8.1c-4.2-1.4-4.1-3.1.3-3.5 3.9-.3 5.6 1.3 3.5 3.4m10.2 5.3c-.7 1.6-4.4.8-4.4-1q.1-1.2 1.3-1.8c1.7-.6 3.7 1.2 3.1 2.8m-9.6 1.8c.3 1.4-.4 1.7-3.7 1.7q-6.9 0-1.8-2.7c3-1.5 5.1-1.1 5.5 1m10.3 19.5c.3 27.8-.2 55.7-1.1 56.5-.4.5-1.8.7-3.1.5-2.9-.4-3.2-3.3-.5-3.3q1.8-.1 2.4-1.3.2-1.1-1.7-1.2c-2.6 0-2.9-3.7-.3-5.6 1.6-1.3 1.6-1.5 0-2.5-2.4-1.4-2.3-5 .2-5.6q1.8-.6 2-1.5c.2-.9-.9-1.2-2-1.5s-2-1.4-2-2.4.9-2.3 2-2.9q3.8-2.1.1-3.3c-1.4-.3-1.8-1.1-1.4-3.3.3-1.6 1.3-3.7 2.1-4.7 1.4-1.6 1.4-1.9-.4-3.1-1.8-1.4-1.8-1.5 0-3.5 1.9-2.1 1.9-2.2-1.2-5.4-3.2-3.3-4-6.1-2.2-7.2.6-.4 1.8-.1 2.6.6 2.2 1.8 3 .2.9-2.1-1.7-1.9-1.7-2.1 0-4s1.7-2.1.2-3.8a6 6 0 0 1-1.7-3.5c0-1.7 2.9-3.9 4.2-3.1.3.2.8 8 .9 17.2m-10.6-10.6c-.9 2.7-1.2 3.1-4.7 4.6-2.4 1-2.8.9-2.8-.4 0-1.7 4.9-6.3 6.8-6.4q1.3 0 .7 2.2m-1.2 20.5c.3 6.8.2 12.3-.2 12.3-1.4 0-6.1-2.5-6.1-3.3q.1-.7 1.5-.7c1.4 0 1.5-.5 1.5-1q-.2-1-1.5-1c-2 0-1.9-1.7.3-3 1.6-1 1.6-1 0-2q-3.6-2.2.5-3.4c2.2-.6 2.2-.7.3-2.1-1.6-1.2-1.7-1.8-.8-2.7q2.4-2.6-.3-2.8c-2.4 0-1.7-2.8.8-3.2 1.2-.2 2.5-.2 2.8.1.4.4.9 6.1 1.2 12.8m354.3 3.8c.3 1.9 2 5.2 3.6 7.3s4.4 5.8 6 8.4q3 5 5.2 4.8c4.4 0 10.8 9.6 12.1 18 .8 5.5-1.2 8.6-8.1 12.6-5 2.9-5.6 2.7-7.4-2.9-.6-2-2-4.2-3.1-4.7q-1.8-1.2-1.9-3.8a44 44 0 0 0-1.5-8.2l-3.6-13.5a49 49 0 0 0-3.5-10.2c-1.4-2.2-2-10.4-.8-11.6q1.9-1.6 3 3.8M51.3 628.8q1.5 1.7 1.1 2.5c-1 .9-6.6-2.2-5.9-3.3 1-1.5 3-1.2 4.8.8m213.2.2c1 1.2 2.6 1.8 3.5 1.5s2.5.3 3.5 1.5 2.4 2 3 2c3.3 0 4.2 4.9 1.6 8.9-1.3 2.1-15 5.2-17.3 4-1.7-.9-1.7-1.1-.3-2.6.9-.8 1.4-2.2 1.1-2.9q-.3-1.3 1.4-2.4c2.4-1.3 2.6-3.9.5-4.5-4.9-1.6-4.7-1.2-3-4.5 1.8-3.5 3.5-3.8 6-1m-213.1 6.1c-.6 1.1-2.4.2-2.4-1.1q.2-.8 1.5-.4 1.3.7.9 1.5M51 638q-.2.9-2 1c-1.8.1-2-.5-2-1q.2-1 2-1c1.8 0 2 .4 2 1m21.2 22.4c1.2 17.5 1.4 39.3.3 40.4-1.9 1.9-3.2-6.7-4.1-27.9-.7-16.5.4-38.3 1.7-33.5.4 1.6 1.4 11 2.1 21m281.4-18.5a11 11 0 0 1 2.2 7.7c-.3 3.7-.5 3.9-3.5 3.6-3.8-.4-5.1 1.3-2.9 3.7.9 1 1.6 2.7 1.6 3.9 0 3 2.8 2.8 3.6-.3q1-4 5.5-1.5c1.8 1 1.8 1.3.3 4.2-1.1 2.2-1.3 3.3-.5 4.1 1.8 1.8 1.3 3.7-.9 3.7q-2-.1-3-2.5-1.7-4.5-4.2-.6c-1.2 1.9-1.2 1.9-2.3-.2q-1-2.2-5-2.8t-6.6-3.9c-2.1-2.5-3.3-3.1-5.1-2.7-3.1.8-4.2-.1-5.7-4.8l-1.7-5.3c-1.1-2.4 3.8-3 7.8-1q6 3.3 5.8-1.3c0-1.5.5-1.8 2.4-1.3q2.4.6 2.9-1c.4-.9 1.6-1.6 2.7-1.6q2 0 2-2 .1-4.6 4.6 1.9m-57.6 0q-.1 1-1.1 1.7c-1.4.8.5 2.9 2.7 2.9 1.3 0 5.3 6.2 7.8 12q.6.7 2-.8c1.9-2.4 5-1.8 5.4 1.1.3 1.9-.1 2.2-3 2.2a19 19 0 0 1-13.6-5.9c-1.3-1.7-2.8-3.1-3.4-3.1-1.3 0-6.8-3.9-6.8-4.9s7.2-6.1 8.7-6.1q1.2 0 1.3.9m-244 3c0 1.6-.6 3.2-1.2 3.5q-1.5.4.3 1.5c1.3.8 1.4 1.9.8 5.8-.4 2.6-.8 6.9-.8 9.4q-.1 4.9-1.7 5.3-3.6 1.2-1.3-2c1.1-1.4 1.1-1.8-.4-2.9-1.6-1.1-1.5-1.3.3-3q3-2.9-.3-3c-1.7 0-2-2.5-.3-3.1 2.3-.9 1.9-3.1-.6-3.8l-2.3-.6 2.3-1.8c2.1-1.6 2.2-2 .8-3.1-3-2.5-1.7-4.8 2.7-5q1.8-.2 1.7 2.8m263-.9q0 .9-.4 1-.6-.1-1.1-1-.4-1 .4-1 1 0 1.1 1M78.1 659.5c0 5.9-.2 11-.5 11.3a45 45 0 0 1-.6-11.3c0-6.5.2-11.6.5-11.3s.6 5.4.6 11.3m189.5-6.6c2 1.6 3.1 1.8 5.7 1 2.5-.7 3.7-.5 5.7.9 1.4 1.1 4.2 2.2 6.4 2.6 2.1.4 5 1.9 6.5 3.4 2 2 3.7 2.7 7.1 2.9 11.8.5 23 2.2 28 4.2 7.4 3 20.6 5.4 35.9 6.5 5 .4 7.6 1.9 6.4 3.9-.9 1.6-16.7-.6-25.7-3.5-9.3-3.1-12.6-3.5-16.4-2.3-1.9.6-2.4.3-2.9-1.3-.5-2.2-3.8-3.6-11-4.6-3.4-.5-4.3-.3-4.7 1.2s-1.9 1.8-8.4 2c-4.2.2-11.7 1.4-16.7 2.7a238 238 0 0 1-15 3.4c-6.6 1.2-10.8 4.2-8.7 6.3 1 1 1.8.9 4.1-.5 1.6-.9 6.4-2.2 10.7-2.8 4.4-.6 9.3-1.7 10.9-2.5 1.7-.9 7.1-1.8 12.5-2.1 7.1-.4 9.8-.9 10.8-2.2 1.2-1.5 1.4-1.5 2.3.1 1.3 2.4 19.3 6.5 21.4 4.8 1.6-1.3 2.8-1 12.8 2.7 4.8 1.8 6.7 3 6.7 4.2s1.6 2.2 6.3 3.6l7.5 2.1q1.1.5.6 1.5c-.3.6.3 2.3 1.4 3.9 1.1 1.5 1.7 3.1 1.3 3.6s-.5 4-.2 7.8c.7 7.1 2.3 9.6 6.3 9.6 2 0 2.7 2.1 3 10l.3 5.5-95.9.3c-53.1.2-96.2 0-96.7-.5a84 84 0 0 1-1-25.3q1 .2 1.9 1.7c1.2 2 4.7 2.1 16.7.4a68 68 0 0 0 23-7.1c4.5-2 6.4-2.5 7.7-1.7s3.2.4 7.9-1.7c7.8-3.6 12.9-6.6 12.9-7.6 0-2.1-2.2-1.6-10.1 2-8 3.8-8.4 3.9-9.1 2s-1.2-1.8-9 2.4c-9.3 4.9-18.1 8.1-20.3 7.2-.8-.3-2.8 0-4.5.6-2.5.8-3.4.7-5-.7a5 5 0 0 0-4.7-1.1c-1.5.3-4.4.2-6.3-.2-3.1-.7-3.5-1.2-4.3-5.2-1.8-9-1.8-9.1 4.3-11 9.5-3 12-3.4 12-1.6 0 3.6 3.9 2.9 16.5-2.9l8.8-3.8q1.5-.8 1.7-2c0-.8 1.5-1.8 3.3-2.3 4.6-1.4 4.2-3.8-.8-4.4-4.5-.6-3.5-1.9 1.6-2.1 1.9-.1 7.4-1.5 12.3-3.1 4.8-1.6 9.4-2.7 10.2-2.4s2.2-.4 3.2-1.5c3.8-4.6 8.4-8.9 9.4-8.9.5 0 2.1.9 3.4 1.9m-19.2 1.5c.9 1.3.7 2-.7 3.1-2.6 1.9-8.7 2.9-10.1 1.5q-1.2-1.2.4-.5c1.6.5 7-3.8 7-5.6 0-1.5 2.2-.6 3.4 1.5m36.3-1.8q-.6.5-1.9.1-1.1-.5.6-.6t1.3.5m36.4.7c-.1 1.2-1.5.9-1.9-.4q-.4-1 .8-.8 1 .5 1.1 1.2m152 4.1v2.7q0 1.5 1.3 2.2t1 2q-.3 1.5 2.5 3.6c3.8 2.7 3.2 5.6-1 4.7q-2.8-.6-4.5 1.2c-1 .9-3.5 1.8-5.6 1.9-3.6.1-4.9-.9-2.8-2.2 1.9-1.2 1-3-2.3-4.5q-5.9-2.7-1.7-7c1.7-1.7 2.9-2.1 5.1-1.6 2.3.4 2.9.2 2.9-1.2 0-3.5 4.8-5.2 5.1-1.8m-152.5 1.7c.9 1.6-1.8 3-3.3 1.7q-1.1-1-.7-1.9c.7-1.3 3.1-1.1 4 .2m121.9 4.4c1 3 2.4 6 3.1 6.6 1.8 1.5 1.8 5.3-.1 6.9-.8.7-2.8 4-4.4 7.4a41 41 0 0 1-16.4 18.3l-5.1 2.5 2.8-3.3q2.8-3.2 2.2-5.4t.9-3.5c1.5-1.3 2.1-5 .8-5-.5 0-1.9.9-3.3 2-3.1 2.5-5.3 2.6-4.6.2.3-.9.8-5 1.2-8.9l.7-7.3 5.2-2.9c2.8-1.6 6.4-4.3 7.8-6s3-3.1 3.6-3.1q1-.2 2.1-2 1-1.8 1.4-2c.2 0 1.2 2.5 2.1 5.5m-111.5.6c0 1.4-3.6 1-5-.6-2-2.4-.2-3.7 2.6-1.9 1.3.9 2.4 2 2.4 2.5M62.5 664c1.1 1.8-1.5 5-4 5-3.4 0-3.6-4.6-.2-5.3l2.9-.6q.7 0 1.3.9m-1 9.6q0 2-2.7 2.2c-3.2.4-3.9-2.1-1-3.7q3.6-2 3.7 1.5m353.5.3c2 3.9 2 3.9-16.1 12-2.5 1.2-5 2.1-5.7 2.1-1.7 0-2.6 2.1-1.2 3 1.6 1 6.9-.5 14.4-4.1 6.9-3.4 9.1-3.2 8.3.9-1.9 10.2-5 14-16 19.6-8.7 4.4-10.2 4.8-16.9 5l-7.3.1-.3-3.3c-.3-3.1-.2-3.2 3.2-3.2 5.1 0 4.8-2.6-.4-4-4.2-1.1-5.6-3.2-1.9-2.7s3.2-1.9-.6-4.3c-2-1.2-3.4-2.7-3.2-3.4s2.5-1.3 5-1.6c2.6-.3 5.2-1.1 5.9-1.8s1.8-1.2 2.5-1.2c2.5 0 21.8-9.7 24.6-12.3 3.3-3.2 4.3-3.3 5.7-.8m-198 .1c0 .5-1.9 1.9-4.2 3.1l-4.3 2.1 3.5-3.1c3.7-3.2 5-3.7 5-2.1m-166 .9c0 1.7-2.5 3-4 2-1.3-.8-1.3-1 0-1.9 1.9-1.2 4-1.3 4-.1m141.8 1.9c2.3.1 4.2.6 4.2 1 0 .7-13.7 4.6-16.5 4.7-1.1 0-1.9-3-1.2-4.9.5-1.1 1.5-1.2 13.5-.8m-130.4 2.8c.3.9.6 4.5.6 8 0 5.7-.2 6.4-1.9 6.4-2.7 0-3.7-3.7-1.7-5.9 2.1-2.3 2-2.8-.4-3.4-2.5-.6-2.6-4.2-.2-5.6s2.9-1.3 3.6.5m19.3 1.6q-.5 1-.5-1.2c0-2.2.2-1.9.5-1.3.2.7.2 1.9 0 2.5m-30.9-1q-.6 1.2-2.9 1.6c-2.4.4-2.4.3-.4-1.2 2.4-1.9 3.8-2 3.3-.4M207 680q-1.4.9-2.5 1-.7-.1.5-1 1.8-1.2 2.5-1 .8.1-.5 1m160.5 2.9c.3.5 0 1.3-.5 1.6-1.5.9-8-.4-8-1.5 0-1.3 7.7-1.3 8.5-.1m-317 3.1c-.3.5-1.3 1-2.1 1s-1.2-.5-.9-1 1.3-1 2.1-1 1.2.4.9 1m-.5 6q-.2.9-1.5 1c-1.3.1-1.5-.5-1.5-1q.2-1 1.5-1c1.3 0 1.5.4 1.5 1m392.9 8.4a87 87 0 0 0 2.7 12.2c.9 2.6 1.4 6.3 1.1 8.3q-.4 3.6 1.3 6.1c1 1.4 2 5.4 2.4 9 .5 4.7 1.8 8.5 4.7 13.8 6 11.2 5.3 13.3-4.2 13.7-3.5.2-7-.2-7.6-.7-1.8-1.4-4.4-.2-3.7 1.7q.4 1.3-.5 1.5c-.9.2-1.1-.4-1.1-.9s-.7-1.7-1.6-2.6c-2.3-2.2-4.9-.2-3.1 2.5 1.7 2.9 0 3.7-2.4 1.1-2.5-2.7-5-1.3-4.1 2.2.5 2.2.5 2.2-1.6.4-2.2-2-5.9-1.9-5.4.1.3 1.5-1.3 1.5-3.9.2q-2-1-1.9-4.6c0-4.8 1.4-7 5.2-8.3 3.7-1.2 7.8-7.3 7.8-11.5q.1-2.6 3-5.3 3-2.6 2.1-3.6-1-1-2.6.3c-2.2 1.8-1.9.1.4-1.8 1.1-1 2.2-2.8 2.6-4.1.6-2.1.4-2.3-1.3-1.9q-2.2.9-2.4-1.6-.2-2.2-2.5-1.8c-3.4.5-2.9-2.4.6-4.3 2.2-1.1 2.8-2 2.4-3.5a3 3 0 0 1 1.2-3.4c3.1-2.2.9-3.8-3.1-2.1-4.2 1.7-4.5.6-.4-1.9 4.5-2.6 9.5-8.1 11.5-12.6 1-2.2 2.1-4 2.5-4s1.3 3.3 1.9 7.4m-394.1-2.2q-.6 1.2-1.8 1.3c-1.2.1-1.5-.6-1.7-1.3q-.3-1.1 1.7-1.2t1.8 1.2m368.6.3q-.6 1.3-1 1.5-.4-.2-.4-1.5c0-1.3.4-1.5 1-1.5q.8.1.4 1.5M66 700.9q0 .9-1.2 1.3c-2.6.9.5 2.9 4 2.6 2-.1 3.7.2 3.9.8q.4 1.2-4.2 1c-4.8-.1-7.3-2.2-6.1-5.2.6-1.5 3.6-2 3.6-.5m-16.1 3.4c.8 1.1.5 1.6-1.5 2.5-3.3 1.6-3.4 1.5-3.4-.7q0-2.6 3.1-3 .8 0 1.8 1.2m360.1 3.4c0 1.6-1.6 3.1-3.8 3.8q-2.3.7-1.8 2.2c.3.8.6 1.9.6 2.4s1.1 1.4 2.5 1.9c2.1.8 2.4 1.4 1.9 3.6a88 88 0 0 0-.8 12.3l-.1 9.6-3.3 1q-6.2 2-4.6 4.7c.5.7.9 1.9.9 2.6s1.3 2 2.9 3q2.9 1.7 3.3 4.7c.7 6.2.8 12.6.2 13.7-.4.7-.2 2.3.6 3.7 1.3 2.7.9 9.4-.6 8.9-.5-.2-1.9-2.3-3.1-4.7-2.7-5.3-6.4-8.2-7.3-5.8-.4.8.5 3.1 1.9 5.1 2.5 3.8 2.5 6.6 0 6.6-.7 0-1.6-1.1-2-2.4a9 9 0 0 0-2.5-4.2c-1.5-1.4-2.1-1.4-3.4-.4-1.3 1.1-1.2 1.5.5 3.8 1.8 2.2 1.9 2.7.6 4-1.7 1.7-3.6.8-3.6-1.7 0-1-.9-2.6-2-3.6-1.9-1.7-2.2-1.7-3.7-.2-1.5 1.4-1.5 1.8 0 4 .9 1.4 1.3 2.7 1 3s-1.9-1.5-3.7-4q-5.4-8.1-7.7-5.6c-.8.8-.3 2.2 2 5.3 1.7 2.4 3.1 4.9 3.1 5.7 0 2.6-2.5 1.2-5-2.8-2.7-4.5-5.8-6.3-7.8-4.6-1 .8-.8 1.6 1.1 3.6 2.4 2.5 4.2 6.1 3.1 6.1-.3 0-1.7-1.4-3.1-3-1.3-1.7-3.3-3-4.4-3-2.1 0-2.5 2-.7 3.8 1.7 1.7-1.3 1.6-5.7-.2-3.1-1.3-3.6-1.3-5.6.5-3.7 3.2-13.5.6-10.7-2.8 1.7-2.1 7.3-4.8 14.3-6.9 3.3-1 7.1-2.6 8.5-3.5s4.3-2.4 6.5-3.3a40 40 0 0 0 14.5-13.2q2-3 2.6-11.9c.6-7.3 1-8.8 2.6-9.3 2.5-.6 2.3-3-.4-3.4q-2.1-.4-2.6-2.1c-.3-1.4.4-1.7 3.2-1.7q3.6 0 3.6-1.4-.1-2.5-5.8-2.6c-3.7 0-1.6-1.7 3.3-2.8q3.9-.9 4-2.2c0-1.2-1.2-1.4-5.2-1.2-6.8.3-6.8-1.3-.1-2.7 6.4-1.4 11.8-4.7 11.8-7.1q.2-1.8 3.8-3.8 6-3.3 6.2-1.5m-341.1 2.9c4.2.9 3.9 2.2-.6 2.6-4.7.4-5.2 3-.9 3.8 4.4.8 4.4 2.8-.1 3.2q-4 .3-3.8 1.9c0 .9-.6 2.3-1.3 3.1q-2.6 3 5.1 4.2c3.4.6 5 2.7 2.9 4a25 25 0 0 1-10.9-2.7c-1.9-1.4-1.6-4.5.7-7.4 1.1-1.4 2-3.8 2-5.4 0-3.4 1.6-7.9 2.9-7.9zm348.5 11.9c-.3.8.6 2.9 2 4.8 3.4 4.4 3.3 4.9-.6 4.5-3.1-.3-3.3-.5-3.6-4.7-.4-4.9.3-7.5 1.7-6.6q1 .6.5 2M70 725c0 1.3-2 1.3-4 0q-1.9-1.1 1.3-1c1.5 0 2.7.4 2.7 1m310.1 12.2c.5.7.9 2.1.9 3 0 1.7-3.1 1.8-51.7 1.8-28.5 0-72.5.2-97.8.5-43.1.5-52.5.2-52.5-1.4 0-.3 1.2-1.4 2.5-2.4 2.3-1.6 7-1.8 63.7-2.2 33.6-.3 61.4-.7 61.6-.9s16.6-.3 36.4-.1c28.6.3 36.3.6 36.9 1.7m42.4.8c.9 2.9-.2 4-4.1 4-3.1 0-3.4-.2-3.4-3s.3-3 3.4-3c2.6 0 3.6.5 4.1 2m-262.6 13.2c-.2 9.9-.1 11.3 1.4 11.6 1.4.3 1.7-.5 1.7-5 0-2.9.3-7.7.6-10.6.6-4.2.9-5 2-4.1q2.3 2 .7 14.7c-.5 4.8-1 5.6-4.5 7.9-2.1 1.4-3.9 2.4-4.1 2.2-.8-1.3.6-27.9 1.5-27.9.6 0 .9 4.3.7 11.2m261.5-4.4c.8 1.3-4.4 7.2-6.5 7.2-2.3 0-2.3-.1-.2-4.5q1.6-3.6 3.9-3.5 2.1.1 2.8.8m-291.7 31.8q-.6.5-1.9.1-1.1-.5.6-.6t1.3.5"/><path d="M342.5 231q-.4.9.4 1 1-.1 1.1-1 0-1-.4-1t-1.1 1m2.7 1.6c-2.9 2-2.8 2.8 1 7.5 3.5 4.4 4.2 4.6 8.7 2.3 4.1-2.1 3.5-3.8-1.5-4.2q-7-.7-4.6-3.4c1.6-1.6 1.5-3.8-.1-3.8a8 8 0 0 0-3.5 1.6m-215.7 18.3q-.4.9.5 1.6c1.8 1.1 1.1 3.5-.9 3.2-2.2-.2-2.3.4-.7 4.5q1 2.6 2.2 2.8c1.3 0 3.7-2.6 5.3-5.8 1-1.9.8-2.5-1.5-4.7-2.9-2.7-4-3-4.9-1.6m270.1 43q-.5.9.3 1.5t1.5-.3q.5-.9-.3-1.5t-1.5.3m-33.6 7.3q-3.3 7-1 6.8c.5 0 1.7-1.7 2.5-3.7.9-2.1 2.3-4.5 3.2-5.5 1.5-1.7 1.5-1.8-.6-1.8-1.6 0-2.7 1.1-4.1 4.2m26.2-2.8q.4 1.6 1.3 1.7c1.5-.1 1.2-2.4-.3-2.9q-1.4-.4-1 1.2m19.2-1.3c-1 1.7 1.3 3.6 2.7 2.2 1.2-1.2.4-3.3-1.1-3.3q-.9.1-1.6 1.1m29.6 5.7c0 2.2 1.3 4.2 2.7 4.2 2.1 0 1.2-4.4-.9-4.8q-1.6-.2-1.8.6m-61.8 13.8c-1.2.8-2.2 2.2-2.2 3 0 1.7-1.2 1.8-2.7.3-.6-.6-1.6-.8-2.2-.5-1.7 1.1-1.3 2.6.4 2q1.5-.6 1.5 1.3c0 2.8.8 3.3 4.1 2.1a7 7 0 0 0 4.9-6.7q0-4.2-3.8-1.5m52.4 25.6-1.5 9.8c-.6 4.1-1.4 8.6-1.8 10q-.8 3 .8 1.2c2.7-2.5 6.4-23.2 4.1-23.2q-1.2.2-1.6 2.2m-14.6 3.9a45 45 0 0 0-5.7 10.7l-4 10q-2.2 5.3.6 3.7c.6-.3 1.1-1.6 1.1-2.8s1-3.8 2.2-5.7 2.9-5.3 3.8-7.4 2.1-4.1 2.9-4.4q1.5-.6.7 1.4c-.4 1.1-1 4.4-1.3 7.4s-1.3 6.6-2.2 8a33 33 0 0 0-4.1 8.6q.1.4 1-.1c2-1.3 6.9-13.1 8.5-20.5.8-4 2-7.9 2.6-8.7q1.3-1.2-.1-2.8c-1.8-2.2-2.3-1.9-6 2.6m20.5-.6-1 3.1c-.3.8-.8 6.8-1.1 13.2a65 65 0 0 1-6.9 28.2q-1.4 2.8-.5 3.5c1 .6 5-7.5 7.9-16.5a74 74 0 0 0 2.4-17c.4-6.3.9-12.5 1.3-13.8.7-2.5-1.4-3.2-2.1-.7m-86.4 7.9q-1.4 1.3.4 2.6c2.1 1.7 5.1-.6 3.4-2.6q-1.1-1.3-1.9-1.4-1.1 0-1.9 1.4m13.2.3c-1.8.7-1.6 3.8.2 5.3s4.3.7 5.2-1.6q.5-1.7-1.2-3c-2-1.5-2.3-1.5-4.2-.7m-11 9.9c-2.5 2.5-2.7 4.2-.8 10.1.5 1.6.2 2.4-1.4 3.3-1.8.9-2.3.8-2.9-1.1-.8-2-.9-2-2.5-.4-2 1.9-2.3 5.9-.5 5.3.7-.3 2.3.8 3.6 2.4s3.4 2.8 4.5 2.8 3.1.7 4.1 1.5c1.1.8 4 1.5 6.5 1.6l4.6.1-3.4 1.4-3.4 1.5 2.9 3.2 3.6 4.1q.8.8 2.3-.4 1.4-1.1 2.2-.7.6.6 2-.5c1.1-.9 1.7-.6 2.9 1 2.3 3.3 3.7 2.7 3.1-1.3q-1-5.8 1.9-1.8c1.2 1.7 1.3 1.7 2-.1.6-1.5-.2-2.8-3.7-5.8a18 18 0 0 0-5.7-3.8c-1.9 0-2.7 3.1-1.1 4.2q1.5 1-1.1.4l-3.3-.6q-.6-.2.3-2c.6-1.2.9-3.7.5-5.7q-.5-3.6.9-4.7c.7-.6 1.6-3.4 1.9-6.1.5-4 .4-4.5-.4-2.5-1 2.3-1.1 2.4-2.3.7-.8-1-2.6-1.7-4.4-1.7q-3.1 0-3.7-2c-.8-2.6-3.3-5-5.1-5-.8 0-2.6 1.2-4.1 2.6m70.4 4.1q-.6.6-.7 1.7 0 .9 1.2-.2 1-1 .7-1.7-.6-.4-1.2.2M410.5 381q-.5.9.4 1c.5 0 1.3-.5 1.6-1q.5-1-.4-1a2 2 0 0 0-1.6 1"/><path d="M381.5 385q-.4.9.4 1 1-.1 1.1-1 0-1-.4-1t-1.1 1M347 419c-1.3.9-1.3 1.1 0 1.9 1.6 1.1 4.3-.5 3.4-2-.7-1.1-1.5-1.1-3.4.1m94.4-88.9c-1 1.7 1.3 3.6 2.7 2.2 1.2-1.2.4-3.3-1.1-3.3q-.9.1-1.6 1.1M89.3 344.7c-2 .8-1.5 3.3.6 3.3 1.9 0 3.5-2.3 2.4-3.4-.7-.7-1.3-.7-3 .1m268.9 93.9c.4 2.1 2.2 2.3 2.6.1q.3-1.6-1.3-1.7c-1.6-.1-1.5.6-1.3 1.6m1.8 7.4q-1.7.9-.2 2.2 1.2 1.3 2.4 0c1.6-1.6-.2-3.4-2.2-2.2m-268.5 2.2-2.4 1.4q-2 1.7-2.6 32.7a333 333 0 0 1-5 55.7c-.3.8 0 2.2.5 3 1.9 3 3-.8 4.9-16.1 1.8-14.7 2.4-22.1 3.6-44.4.9-16.8 1.5-21.8 3.2-26.8q2.8-8-2.2-5.5m9.1-.4a76 76 0 0 0-3.6 21.6c1.6 1.6 2.8-.5 4-7.4l1.7-8.9q.4-2.2 1.3-1.5c.9.7.3 3.4-.5 6.9q-2.9 11.9 0 14.5 1.6 1.5 1.9-.1c.5-1.7 1.9-16 2-21.4.1-3.8-.1-4-3.1-4.3-1.7-.2-3.4.1-3.7.6m322.6 19.4c.6 1.8 2.8 2.1 2.8.4q-.1-1.5-1.6-1.6-1.4 0-1.2 1.2m7.9 15.4q0 1.7.6.6.4-1.2-.1-1.9-.6-.5-.5 1.3m-38.9-17.4c.6 1.8 2.8 2.1 2.8.4q-.1-1.5-1.6-1.6-1.4 0-1.2 1.2m8 32c.6 1.8 2.8 2.1 2.8.4q-.1-1.5-1.6-1.6-1.4 0-1.2 1.2m3.5 9.9q-.7 2.4 1.3 4.4c2 1.9 2 1.9 2 0a14 14 0 0 0-1.4-4.4l-1.3-2.3zm-35.5-6.4c-.5 1.1-.3 3.2.4 5.3q1.4 4 1.3 1.2.2-2 1.6-2.2c2.2 0 1.8-3.7-.5-5-1.5-.8-2.1-.7-2.8.7M346 513q.1.9 1.5 1c1.4.1 1.5-.5 1.5-1q-.1-1-1.5-1c-1.4 0-1.5.4-1.5 1m72 7q.1.9 1.5 1c1.4.1 1.5-.5 1.5-1q-.1-1-1.5-1c-1.4 0-1.5.4-1.5 1m6.1 15.9c-1.5 1-.8 4.1.9 4.1 1.5 0 2.5-2.9 1.4-4q-1-.7-2.3-.1m-35.9-7.6c-.9 1.1-.6 1.8 1.3 3.5 2.1 1.8 2.7 2 3.1.8 1.5-3.9-2-7.3-4.4-4.3m56.6 5.4c-2.8.7-2.2 3.3.7 3.3q2.4-.1 2.5-1.4 0-2.7-3.2-1.9m.7 15.3c-.7 1.2.2 3 1.6 3 1.2 0 1.2-2.7 0-3.5q-.9-.4-1.6.5m-33.2.1q-1.3 1.3-.2 2.5c1.4 1.7 5.1.5 4.7-1.5s-3-2.5-4.5-1m-66.8 7.8c-.9 1.6.3 3.1 2.6 3.1q2 0 1.7-1.7c-.4-2-3.3-2.9-4.3-1.4m-7 124c-.3.5.2 1.7 1.1 2.5 2 2 6.4 2.1 6.4.1 0-2.6-6.1-4.7-7.5-2.6m-154 8.1q-.5 1.3.9 2.8c1.3 1.3 2 1.4 3.4.6q1.5-1.1 1.7-2.5c0-1.7-5-2.4-6-.9m252.6-13.3q-1.2 2.6-.1 3.7 2 1.8 3.5-3.7c.9-3.6-1.7-3.7-3.4 0m-30.8 13q-1.2.5-1.3 1.9c0 1.5 1.2 1.7 4.8.8q2-.8 2.2-2c0-1.4-3.2-1.8-5.7-.7M285.3 327c-3.6 1.5-2.8 3.3 1 2.5 4.1-.9 4.9-1.4 4.2-2.6q-1-1.7-5.2.1m167 357.2q.4 1.2 1.5 1.2l4.3-.3c4.5-.2 2.5-2.1-2.2-2.1q-4.1 0-3.6 1.2m12.2 1.9c-.9 1.4-.8 1.4 5 2.7 2.8.6 6.9 1.6 9.3 2.3q4.4 1.2 5.4.1c1.8-1.8 0-3-7.2-4.6-8.1-1.9-11.6-2-12.5-.5m-.9 118c-2.2 1.8-2.6 2.6-2 5.4.6 3.1.4 3.3-3.8 4.6-5.4 1.7-5.6 4-.5 5.4 3.8 1.1 6 3.2 5.1 4.7-.3.4-2.3.8-4.5.8-4 0-9.9 2.3-9.9 3.9q-.1 2.6 8.5 3.8c3.2.4 5.9 1.2 6 1.8 0 .5-2.4 1.2-5.2 1.5-5.8.6-9 2.8-7.9 5.5.6 1.6.8 1.6 3.2.1q2.5-1.7 6.7-1.4l4.2.3.1 6.5c.1 7.9 1.4 17 2.4 17q3 .2 2.4-10c-.4-8.5.1-9.8 3.6-9.6q2.5.1 2.5-1.4-.1-1.4-2.5-1.5c-2.4-.1-2.5-.6-2.5-1.5 0-1.1 1.7-1.6 7-2 6.4-.5 7-.7 7.3-2.9.5-3.4-.8-4.2-7.4-4.8-10.7-.8-11.5-2.5-1.3-2.7 3.9-.1 6.4-.6 6.6-1.3.3-.9-1.7-1.3-6.9-1.5-5.7-.2-7.3-.6-7.3-1.8q.1-1.4 2-1.2c3.5.4 13.5-1 13.5-1.9 0-.4-3.4-.9-7.5-1.1-8.3-.3-10.5-2-3.6-2.8 6.5-.7 6.6-3 .2-3-4.3 0-5.1-.3-5.1-1.9s.7-1.8 4.4-1.5c3.2.2 5.1-.2 6.8-1.5 2.2-1.9 2.3-1.9.4-4-2.7-3-11.2-3-15 0m10.4.8c0 1.1-2.5 2.1-5.1 2.1-1.9 0-2.5-1.1-1.2-2.3 1-1 6.3-.8 6.3.2M463 829c0 .5-2 1-4.5 1s-4.5-.5-4.5-1 2-1 4.5-1 4.5.4 4.5 1m16 5.5c0 1.5-10.2 1.3-10.8-.3-.3-1 .9-1.2 5.2-1 3.1.2 5.6.7 5.6 1.3"/></svg>