<svg xmlns="http://www.w3.org/2000/svg" width="666.7" height="1170.7" viewBox="0 0 500 878"><path d="M223.4 10.1q-1.2 2.4 4.1 3.1l3 .3.3 11.2.3 11.3H228q-3 0-3 1.5c0 1.3 3.2 1.5 23.9 1.4 13.1-.1 24.4-.5 25.1-.9 2.5-1.6-.1-3.2-4.1-2.6l-3.9.6V24.5c0-12.3-.3-11.5 5-11.9 2.2-.1 4.1-1.6 3.5-2.7-.9-1.3-50.2-1.2-51.1.2m36 13.1c.7 10.6.1 12.8-3.5 12.8-2.8 0-3.2-1.7-3.1-12.4.2-10.2.8-11.8 4.2-10.9 1.4.4 1.8 2.1 2.4 10.5m-13.9.4c.4 6.6.3 11-.3 11.6s-2.2.8-3.8.6l-2.9-.3-.8-9.8a56 56 0 0 1-.3-11.2c.3-.9 1.9-1.5 3.9-1.5h3.5zM242 55.1a206 206 0 0 0-14.3 4c-8.3 2.6-10.2 3.6-11.7 6.2-2.1 3.4-1.5 5.6 2.4 8.9 1.6 1.4 3.3 1.8 7.3 1.5 6.3-.4 7.6.7 12.1 9.8 3.1 6.2 10.2 23.4 10.2 24.6 0 .3-1.4.9-3 1.3q-3.2.5-4.4 3.8c-1.7 4-1.2 5.4 2.6 6.7l3.1 1.1-1.9 2.3a54 54 0 0 0-5.4 9.2c-1.9 3.8-4 7.7-4.7 8.6-1.6 2-5.3 9-5.3 10.1q.1.7 1.3.8c.7 0 3.5-3.6 6.1-8s5.1-8.2 5.5-8.5c.5-.2 1.9-3.2 3.1-6.5 1.9-5.2 2.8-6.3 5.9-7.6 4.3-1.8 10.4-.8 10.9 1.9.3 1.5-.2 1.7-3.5 1.1q-7.7-1.1-8.8 8.9c-.2 2.7-1.2 6.4-2.2 8.4a29 29 0 0 0-1.9 5.7 43 43 0 0 1-2.2 7.4 73 73 0 0 0-3.2 12.5c-.6 4-1.9 8.3-2.8 9.7s-4.4 8.6-7.8 16.1c-3.3 7.4-7.6 15.6-9.5 18l-3.3 4.5-2.1-2.4q-2-2.3-6.5-2.9c-5.6-.7-6.7-1.6-8.1-6.3-1-3.2-.8-4.6 1-9.5 3.8-10.2 5.4-12.5 21.9-31.8 2.8-3.4 5.2-6.5 5.2-6.9 0-1.9-2.2-.5-5.7 3.8l-10.9 12.9a118 118 0 0 0-10.8 14.9q-5.5 9.6-5.6 3.6c0-1-1.8-3.3-4.1-5-3.4-2.7-3.9-3.7-3.4-5.9a6 6 0 0 0-.9-4.6c-1.9-2.5-1.9-4.9-.2-9.5l5-13.5c5-13.9 7.8-19.5 9.7-19.5 2.1 0 4.9-3.2 4.9-5.6 0-6-6-7.4-36.5-8.9q-27.6-1.5-34.9 4c-5.2 4-5 9.3.6 11.4 3.4 1.3 9.1 10.2 11.9 18.4 1.8 5.4 4.1 10 9.9 19.2 1.4 2.2 1.3 2.6-1.4 5.4-2.3 2.4-2.6 3.2-1.7 4.9.6 1.2 2.5 2.9 4.1 3.9 3.5 2 3.9 5.2 1 7.8q-2 1.8-1.4 3.8c.3 1 .7 4.9.8 8.5.1 3.7.7 7.6 1.3 8.6q1.2 2 0 4.3c-.9 2-.6 2.8 1.8 5.3 2.7 2.9 2.8 2.9 1.3 7.4-.9 2.6-1.2 4.6-.8 4.6 1 0 4.1-7.6 3.7-9.2q0-1.2 1.6-1.6c1.6-.3 1.8 0 1.2 1.8q-.6 2.2.5 3c2 1.3.3 5.6-3.7 9.5-5.4 5.3-7.4 8.5-6.3 10.5 1.2 2.2 1.6 8.2.7 9.7-2 3.2 8 19.3 11.8 19.3 1.3 0 3.5 4.2 3.5 6.7 0 1-1.4 3.2-3.2 5a13 13 0 0 0-3.7 7.5c-.6 4.1-.7 4.2-4.4 4.3-7.4.3-11.5 8.5-8.8 17.7 1.6 5.1-.4 8.8-4.9 8.8-5 0-6.3 2.4-5.6 10.1.8 7.4.8 7.3-9.7 29.9a129 129 0 0 0-5.1 12.7 265 265 0 0 1-6.7 16.5c-8 17.9-11.7 29.1-12.4 36.9-.2 2.4-1.2 6.5-2.4 9.1a21 21 0 0 0-1.8 7.4c.1 1.5-.4 2.9-1.2 3.2-1.1.4-1.2-.8-.6-5.9 1.7-15.5 3.5-25.3 5-26.9q1.7-1.8 1-5.2c-.5-2.7-.2-3.7 1.9-5.7 2.1-1.9 2.3-2.7 1.5-4.4-.9-1.5-.7-2.5 1-4.7 1.8-2.5 1.8-3 .5-4.1s-1.2-1.5 1.1-3.8c2.3-2.5 2.4-2.8.8-4.3-1.5-1.6-1.4-1.8 1-2.9q4.2-2 1.7-3.4c-2-1.3-1-4.5 2-6 3.2-1.7 4-3.5 1.4-3.5-2.8 0-1.1-3.5 1.9-3.8 3.4-.4 3.5-2 .1-3.2-3.3-1.3-2.6-3.4 1.2-3.8 5.5-.5 6.1-1.1 3.4-3.2-2.6-2-2.8-1.8 2.6-3.5q1.4-.5 1-2.3-.9-1.8 2.7-3 3.5-1.3 1.8-2.1c-.7-.5-2.2-.6-3.3-.3-2.6.6-2-1.9.8-3.3 1-.6 3.1-2.2 4.6-3.8 2.7-2.7 2.7-2.7.9-6q-3.5-6.4-10.1-.8c-4.2 3.5-3.3 5.4 1.1 2.2 6.7-5 5.8 2.4-.9 7.8-4.4 3.4-6.2 3.9-6.2 1.6 0-2.4-5.7-2-6.5.5-.8 2.7 0 3.8 4.1 5.5q6 2.6 1 4.5a7 7 0 0 0-3.5 2.8c-.5 1-2.7 2.4-4.9 3-5 1.5-5.2 1.5-5.2-.3q0-1.3-.9-1.5c-.9-.2-1.4.7-2.1 1.5-1.6 1.9-5 2-5 .1 0-.8-1.3-3-3-4.8s-3.1-4.4-3.1-5.8q-.2-3.5-.8-6.5-.3-.8-1.6.9c-1.7 2.3-2 9.2-.5 10.1s4.1 7.5 3.4 8.6q-1.8 2.8-3.4-3.4c-.6-2.3-2.1-6.5-3.4-9.2a53 53 0 0 1-3-8.1 34 34 0 0 1 4.9-19.6c1.4-1.6 2.5-3.5 2.5-4.2s1.3-3 2.9-5.1c1.6-2.2 2.7-4.5 2.4-5.2-.9-2.4-3.4-1.3-4.9 2.2-.8 1.9-2.1 3.5-2.9 3.5-2.2 0-1.9-.7 2.3-5.9 2.1-2.5 4.4-6.1 5.1-7.9.8-1.7 2.1-3.2 3-3.2.9-.1 2.8-1.1 4.3-2.3 3.2-2.6 5.2-10.2 5-18.7l-.1-8v-4.5l-.2-9.9q-.1-7.8-1.4-10c-1.3-1.7-1.2-2.1.8-3.1 1.7-.9 2.1-1.8 1.9-4.5-1.5-17.9-1.8-16.1 2.7-20.8 2.2-2.3 4.8-4.2 5.7-4.2s2.5-.7 3.5-1.6q1.8-1.6 3.1-.7 2.2 1.3 13 1.3c2.5 0 4.9.4 5.3 1q.4.9-.9 1-3.4 0 .8 3.9c3.1 2.9 3.8 7.1 2.6 14.1a272 272 0 0 0-2.5 16c-.4 2.5-1.3 5.6-2.2 6.9-1.5 2.3-1.9 2.3-9.9 1.8-6.3-.3-8.6-.1-9.5.9q-2.3 2.7 3.2 3.8c2.8.5 9.9 6.8 9.9 8.8 0 .4-3.2 3.3-7.1 6.4-7.6 6.1-10.9 10.4-10.9 14.5 0 1.5-.6 3.2-1.4 3.8-1.4 1.2-3 6.5-2.7 9.2.1.9-1.4 2.6-3.4 3.8-3.8 2.2-5.8 2.1-4.9-.3.8-2-1.4-3-3.1-1.6-2.1 1.7-1.9 4.6.6 7.9l2.1 2.8-2.6 4.2a20 20 0 0 0-2.6 5.1c0 3.2 5.5-2.1 8.5-8.3 4.2-8.5 6-4.9 2.5 5-2.4 6.9-2.4 6.3-.1 6.3q3 0 3.1-7.7c0-3 1.1-6.4 4.7-13.8.7-1.7 1.1-3.8.8-4.7-.3-.8.8-5 2.6-9.2 3.3-7.8 7.9-12.9 18-19.7 6.9-4.7 14.9-15.8 14.9-20.9 0-1.6-.4-3-.8-3s-3.5 3.8-6.7 8.5-6 8.5-6.2 8.5a9 9 0 0 1-.3-2.9q.1-3 3.5-7.1c1.9-2.3 3.5-5 3.5-6.1 0-3.6 4.1-12.1 7.1-14.9 2.3-2.1 3-3.3 2.4-4.7-.4-1-.9-4.1-1-7-.3-5.7-3.1-10.4-6.6-11.3-2.4-.6-2.1-2.6.3-2.3 2.5.4 4.2-3.1 2.3-4.7-.8-.7-2.2-1-3-.6q-3 1 .1-2.6c1.6-1.6 1.5-1.8 0-2.4q-1.7-.6-2.9.5c-2.8 2.8-7.1-.5-4.6-3.5.6-.7.8-1.8.4-2.4-1.1-1.7-3.5-1.1-6.1 1.5q-4.7 4.8-6.4-.1c-.8-2.1-1.5-2.5-3.4-2q-2.3.6-4.1-1.4c-3.2-3.5-8.4-1.5-6.9 2.5.9 2.2-2 4.5-5.6 4.5a7 7 0 0 0-4.5 2c-1.6 1.8-2 1.8-4.4.4-2-1.2-3.2-1.3-5.4-.5-3.2 1.2-3.4 2.2-.7 4.6 2.5 2.3 1.7 3.5-1.8 2.6q-2.6-.7-2.7-2.7c0-2.7-3.9-2.6-4.1.1l-.3 2.9q-.2.9-1.3-.2t-2-1.2c-1.3 0-.9 2.7.7 4q1.4 1.2.5 2.8l-1.4 3.4q-.6 1.6-1.9 1.3c-2.4-1-5.9 3.9-5.5 7.6.3 3.1.6 3.4 3.5 3.4q6.6.1 2.3 3.5c-2 1.5-2.2 2.2-1.3 3.1 1 1 1.8 1 3.8.1q4.7-2.4 0 2.2c-1.3 1.4-2.7 2-3 1.5-1.1-1.6-3.7-1-3.3.8q.5 1.6 1.8 1.8 1.9.3 2.8 1.8c1 1.3 2.1 1.7 4.3 1.2 4.1-.9 3.8 1.6-.6 5-3.4 2.5-3.6 2.9-2.9 7 .8 5.5-.2 9.1-2.1 7.5-1.8-1.5-5.5-.3-5.5 1.6s2.7 2.9 4.5 1.4c1.7-1.4 1.7-1.5 3.3 2.3.7 1.6.9 3.9.6 5.2-.4 1.8 0 2.7 2 4 3.6 2.4 3.2 3.7-.8 3-3-.6-3.6-.3-5.6 2.5-2.2 3.1-2.2 3.4-.6 6 2.3 4 2.1 4.3-2.8 3.8-5.3-.6-8.1 1.6-9.2 7.1-.7 3.3-.7 3.4 2.2 2.7 1.6-.4 3.6-1.4 4.5-2.2s3.2-1.4 5.2-1.4 3.9-.5 4.2-1 1.1-1 1.6-1 0 1.8-1.1 4.1c-2 3.8-2 4.2-.5 5.9 1.3 1.4 1.4 2.2.4 4.3-1.3 2.9 0 5.7 2.7 5.7 2.6 0 2.5 2.2-.6 7.8a27 27 0 0 0-3.7 12.7c-.5 6.3-.2 7.6 2.5 13.5a65 65 0 0 1 4.7 41 267 267 0 0 0-4.9 37c-.6 10.3-2.2 23.5-3.1 25-.7 1.1-3.4 15.2-3.6 18.5-.1 1.6.1 3.7.5 4.6.5 1.2-.5 2.7-3.8 5.4-6.5 5.3-10.9 12.6-10.8 18s3.4 13.2 7.4 16.8c2.7 2.5 2.9 3.2 2.2 6-2.3 8.2-.2 31.2 3.7 42.2 1.6 4.5 4.3 9.5 5 9.5a136 136 0 0 0 28.5 31.4c2.9 2.1 7.4 4.8 10.1 6 7.3 3.2 11.6 8.1 15.2 17.6a49 49 0 0 1 3.1 11.3c0 1.7.7 3.8 1.6 4.8 2.3 2.5 1.1 5.3-1.8 4.3a12 12 0 0 0-4.5-.7c-1.9.1-2.3-.4-2.3-2.9 0-1.8.8-3.6 1.8-4.4 2.4-1.8 0-4.4-2.6-2.8-1 .7-3.2 1.5-5 1.8q-6 1.5-2.9 4.1c2.1 1.5 2.2 3.1.2 3.9-2.7 1-4.5-.5-4.5-3.9 0-1.8-.8-4.2-1.8-5.4-3.5-4.4-14.2-3.5-14.2 1.2 0 2-.5 2.3-4.2 2.4-2.3.1-4.5 0-4.9-.3-.7-.4 2.5-8.6 5.2-13.7q2.1-3.9-3.4-3.2l-8.9.9c-5.5.4-5.7.3-4.8-1.5 1-1.7.7-1.9-2.8-1.9-2.4 0-4.5.6-5.3 1.6-1.1 1.4-.9 2 2 4.6 3 2.7 3.2 3.3 2.5 6.6a27 27 0 0 0-.6 5.8q.3 2.1-2.3 3.2-5 2.5-1.6-.7c1.4-1.4 1.9-3.4 1.9-7 .1-4.8-.1-5.1-2.4-5.1q-2.6 0-2.2-1.7c.4-2.5-2.8-2.8-3.5-.3q-.5 2-2.9 2c-3.2 0-4.2-.9-6.3-5.3-2.3-4.9-5.1-6-14.6-5.5q-13 .7-15.9 7.8c-1.7 4.2-.1 5.8 6.3 6.2 3.9.2 5.3.7 5.5 2 .5 2.5-3.5 3.4-5.9 1.3-1.5-1.5-2.1-1.6-3.4-.5q-1.4 1.4-1 3.2c.4 1 .1 3.3-.5 5.2-.9 2.9-1.7 3.4-5 4-2.1.3-4.6.3-5.4 0s-2.4-.3-3.3.1c-1.6.6-1.6.8-.3 1.8.9.7 1.5 2.9 1.5 5.2.1 2.2.5 4.9.9 6q1.2 2.4-.5.8c-1.5-1.5-5.1-1.7-6.5-.4-.5.4-3 1.4-5.6 2.1L0 673.3v21.3c0 18 .2 21.4 1.4 21.4q3.4 0 1.8-5.4c-.8-2.7-.6-4 .9-6.5 2.3-3.8 4.2-3.9 8.4-.3 1.7 1.5 4 3.1 4.9 3.7 1.5.9 1.2 1.3-1.9 3.8-2.8 2.2-3.9 2.6-5 1.7-1.7-1.4-4.9.1-6.6 3.1q-1.1 1.9-2.5 1.5Q0 717.1 0 719q.2 1.8 1.5 2c1.9 0 2.1 5.3.2 6.8-2.1 1.8-1.9 9.9.3 14.2q3 6.2 7.9 6 2 0 2.1 1c0 1.5-6.4 1.2-8.6-.5-2.7-2-3.4-1.9-3.4 1q-.1 2.5 2.6 3.1c2.2.6 2.5 1 1.8 3.3-.4 1.4-.8 4-.9 5.6-.1 1.7-.7 4-1.3 5.1q-2.1 3.6 2.5 3.4c2 0 2.3.5 2.3 3.7 0 4.2 2.6 10.1 5.2 11.7 2.2 1.3 6.8-.8 7.5-3.4.6-2.3 2.3-2.7 2.3-.7 0 1.7 3.2 4.7 5 4.7.8 0 2.4-1 3.7-2.2q2.4-2.4 3.4-1.1 1.2 1-1 2.9-4.3 3.9.7 4.6 2.8.2 3 2.5c.5 3.3 5 6.6 8.2 5.8 3.6-.9 4.4-2.1 4.2-6-.3-3.6.3-4.1 2.6-2.6 1.1.7 1.1 1.2.1 2.8-1.7 2.8-.5 5.5 2.3 5.1q2.3-.2 2.8-3.2c.5-3 3-4.9 3-2.3 0 3.2 3.9 6.5 8.7 7.2 4.1.6 4.9.4 6.5-1.5 2-2.5 2.3-7.6.7-13.4-.9-3.3-.8-4.1 1-6 2.4-2.6 2.5-3.6 1-10.6-.8-3.6-1.5-5-2.8-5-2.3 0-4.1 2-4.1 4.5q0 3.4-5.8 6.5c-2.1 1-2.9.8-6-1.4-3-2.1-3.7-3.3-3.7-5.9 0-2.5-.5-3.3-2.1-3.5-3-.4-5.1 2.3-3.3 4.5 1.1 1.3 1.2 1.7.1 2.1-.7.2-2.2 1.3-3.2 2.4l-1.9 2-2.5-2.8c-3.1-3.6-3.2-4.2-.3-5.3 4.2-1.6 8-6 7.4-8.7-.5-3.1.3-3 3.3.1 2.7 2.9 4.2 3.1 6 1 1.2-1.5.7-4.8-1.7-11.1q-.7-1.4 2.3-1.4a9 9 0 0 0 4.4-1c1.1-.7.4-1.3-3-2.8l-6.7-2.6q-4.5-1.7.2-3 5.7-1.5 11.4 3.8l3.4 3.1-.7-2.8c-.6-2.4-.4-2.7 2.1-2.7q6.6 0 4.6-4.2c-2.1-4.7-6.4-8.8-9.1-8.8-2.5-.1-2.5-.2-1-1.4 1.4-1 2.7-1.1 6.5-.1 4 1 4.9 1.7 5.8 4.5 2 6 12.2 9 18.9 5.5q4.6-2.5 4.6 2.6c0 .8 1.3 2.8 2.9 4.3 2.5 2.4 3.5 2.8 6.2 2.2 1.8-.3 4.6-1.7 6.3-3 5.5-4.1 7-4.6 11-3.5s4.3 1.7 1.9 6.2c-2.5 4.8-3.5 14.5-1.7 17.9 2.5 4.9 8.2 6.2 14.8 3.4 4.4-1.8 19.8-2.5 21.7-.9a19 19 0 0 0 5.8 2.2c3.7.8 4.5.7 5.9-1 2.2-2.5 2.8-2.4 4.4.9 1.5 2.9 4.4 3.4 12.1 1.8 3.3-.7 3.7-.6 3.7 1.2 0 1.2-.5 2.4-1 2.7-1.9 1.2-1 8.3 1.5 13.1 2.2 4.1 2.5 6 2.5 14.1q0 17 4.2 19.4c1.1.6 9.7 1.5 19.2 2s17.6 1.1 18.3 1.4q1.2.3 1.8-.5c.8-1.3-4.2-7.8-6.5-8.5-2.9-.9-5-6.2-5-12.2 0-3-.5-6.4-1.2-7.6s-1.1-5-1-8.4c.1-12.1.6-13.2 4.3-11.2 4.3 2.2 15.8.6 25.6-3.7a16 16 0 0 1 4.1-1.4c.6 0 2.3-1 3.9-2.3 2.4-1.9 3.7-2.2 9-1.9 4.9.3 6.3.7 6.8 2.2.3 1 1.2 2.1 2 2.4q1.4.6 1.5 2c0 2-5.4 4.8-7.5 4-3.5-1.4-15.7 3.4-18.1 7.1-2.3 3.5-.8 4.9 7 6.4 3.3.6 6.7 1.7 7.5 2.5a31 31 0 0 0 16.3 6c3.7.4 8.8 1.5 11.4 2.6 8.7 3.8 16.4 3.5 16.4-.5 0-1.8-.5-1.8-2.9-.5-2.1 1.1-10.5-1.2-13.1-3.5-1-.9-2.8-1.8-4-2a8 8 0 0 1-3.4-1.5c-.5-.5-2.3-1-3.9-1q-2.9 0-3.4-2-.7-3.4-3.1-.8c-2.1 2.1-3.3-.4-1.7-3.5 1.9-3.8.1-4.3-2.5-.7-1.2 1.6-3 3-4.1 3-2.3 0-2.5-1.3-.4-3q3.6-2.7-2.1-3.2-3.6-.5-5.9 1.4c-2.5 2-5.5 2.4-5.5.7s5.9-3.6 14.5-4.7c4.5-.6 8.8-1.4 9.7-1.7q1.6-.6 2.8 1.4 2.2 4.5 4.5-1.3c1.7-3.9 2.6-4.3 11.1-4.5q6-.1 7.1 1.1c.6.7 1.3 4.2 1.7 7.7.8 8.6 3.6 16.1 5.8 16.1q1.9.2 1.8-3.1c0-1.7-.4-3.8-.9-4.8s-1.3-5.2-1.7-9.5c-.6-7.2-.5-7.8 1.7-10.2s2.4-3.2 2.2-13.4c-.3-9.7-.1-10.8 1.6-11.3 2.2-.5 4.6.7 8.4 4.2 3.7 3.4 6.3 2 6-3.3-.2-2.8.1-3.6 1.5-3.6 1 0 2.7-.6 3.8-1.4 1.8-1.3 2.7-1.3 7.2 0 3.7 1.1 5.6 1.2 7.1.5a10 10 0 0 1 3.8-1.1c1.7.1 1.7.1 0 1.4-2 1.5-2.3 4.2-.4 4.8q3.7 1.5 3.7-4.3 0-7.8-9.4-6.5c-3.8.6-4.7.4-6.5-1.5q-2-2.1-2.1-3.1c0-.4-1.5-1.5-3.2-2.4l-3.5-1.8c-.7-.6-3.3-17.2-4.3-27.8-1.1-11.5-1-17.6.7-25.9.8-3.9-2.3-4-3.8-.2-1.4 3.5-1.7 20.3-.6 35.1l.9 11.4-2.3-.4c-4.1-.6-5.5-12.2-3.3-27.3 4.4-29 4.9-40 4.1-85.2q-.3-18.5 1.6-11.4c.2 1.1 2.2 2.9 4.3 4l5.6 3.3c1.4 1 2.4 1 5 0 2.8-1 3.5-.9 5.2.7 2.5 2.2 6 4.1 8.7 4.6a24 24 0 0 1 7 4.9 38 38 0 0 0 25.2 8.6c3.7 0 6.9.5 7.3 1.1s.9 3.4 1.3 6.3q.6 5.2 2 5.1c1.1 0 1.4-1.5 1.4-6.5q-.1-6.5.5-3.5c.4 1.7 1.5 3.1 2.5 3.3 1.3.3 1.7-.4 1.7-3.2s.5-3.8 2.8-5c1.6-.8 3.4-2.2 4.1-3q1.3-1.5 2.2-1.6c1.2 0 1.1 3.6 0 5.8-2.7 4.9-5.1 23.6-5.1 38.8 0 12.2-.4 17.5-2 24.3q-3 12.5-4.3 11.1c-.2-.3 0-13.2.6-28.8 1-29.4.7-32.1-2.8-29.2q-1.6 1.3-.9 4.3c.3 1.6-.1 8.6-1 15.6l-2.6 23.9c-1.5 15.6-1.9 17.2-4.7 18.5q-5 2.1-6.4-4.3c-.7-3.3 2.1-28.5 4.2-37 .5-2.5 1.7-5.8 2.5-7.4s1.4-3.8 1.4-4.8c0-3.4-2.4-1.4-5.3 4.2a75 75 0 0 0-5.2 22c-1.4 9.1-2.5 19.1-2.5 22.2 0 4.9.3 5.9 2.6 7.7 1.5 1.2 3.3 2.1 4.1 2.1 2.4 0 2.6 2.8.3 6a12 12 0 0 0-2.1 5.3l.1 12.2c-.1 7.2.3 10.5 1.3 11.9 1.3 1.7 1.1 2.5-1.1 6.8-2.4 4.7-2.6 4.8-7.1 4.8-2.5 0-6.6.5-9.1 1.1s-6.5 1.1-8.9 1.2c-4 .2-4.7.6-6.5 3.8l-5.3 8.4c-3.5 5.2-4.2 9.5-1.9 11.4s16.3.5 22.1-2.4a67 67 0 0 0 19.7-17.3c1-2.1 2.3-2.8 5.8-3.4 7.2-1.2 8.8-1.7 10.5-3.4 1.4-1.4 2-1.5 4.1-.4 2.2 1.2 2.7 1.1 5.4-1.5 1.7-1.6 3-3.9 3-5.2 0-2.2.3-2.3 3.3-1.8 3 .6 3.7.2 6.9-3.3 2-2.2 3.9-5.4 4.3-7.1.7-3.3 2.5-4.3 2.5-1.3 0 1 .5 2.3 1.2 3 .9.9.7 1.7-1.1 3.6-2.2 2.3-2.2 4.6 0 4.6a22 22 0 0 0 5.6-3.5c5.3-4.1 6.3-4.2 8.8-1.5 1.8 2 1.8 2.1-.3 4.3-2.9 3.1-3 8.3-.1 9.2 1.2.4 2.6.2 3.2-.4 1.7-1.7 8.5-1.3 11.7.6 2.5 1.4 3.5 1.5 6.9.4 5.7-1.7 5.5-3.1-1.1-8.8a21 21 0 0 0-9.9-4.4q-5.9-1.2-6.7-2.8c-.8-2.2-3.3-4-5.4-4.1-2.9 0-2.1-2 .8-2 4.9 0 12.4-5.1 12.4-8.5 0-2.2 4.5-7.3 5.6-6.3.3.3 0 1.5-.7 2.6-1.1 1.7-1 2.4.3 3.9.9 1 1.8 2.7 1.9 3.7.6 2.9 5.2 5.8 10.3 6.3q8.5 1 7.2-4.8c-.7-3.5 2.6-7.9 6-7.9h2.4v-53.1l-2.7-2.6c-3.7-3.3-6.2-4.2-9.5-3.2q-2.7.7-3.5-.4c-.8-1.1-.9-9.1-1-18.8-.3-14.8 0-17.9 1.2-18.9q1.5-1.1 2.2-.7c.8.9 7.6-2.1 9.1-4q2.8-3.7-1.2-5.4a6 6 0 0 1-2.9-3q-.4-1.8-4.3-2.1c-3.1-.2-3.9-.7-3.9-2.3 0-1.7.9-2.1 5.9-2.7 6.5-.8 7.1-1.1 6.1-2.8q-.9-1-6.4-.8c-4.3.2-5.6 0-5.6-1.1q-.1-1.5 4-1.5c5.6-.1 5.5-2-.1-2.6q-9-1-1.6-4.9c5.3-2.7 6.8-4.6 5.2-6.6s-7.9-1.9-10.8.1c-1.7 1.2-2.2 2.5-2.2 5.9 0 5-.3 5.3-6.2 6.3-4.1.7-4.3.9-4.3 4.2v3.5l5.5.5c4.6.4 5.5.8 5.5 2.5s-1 2.1-6 3q-6.1 1-6.3 2.7c-.4 2.1 1.2 3.1 7.3 4.3 6.4 1.3 6 3-.6 2.6q-7.8-.4-7.9 3.6c0 2.2 2.9 2.7 5 .8 1.6-1.4 2.6-1.6 5.2-.9l3.3 1V633c.1 9.1.4 17.6.8 19 .6 2.1.1 3-3.3 5.9-2.3 1.8-4.4 3.1-4.7 2.8s0-2.1.5-3.9 1.3-5.5 1.6-8.1c.7-5.5-1.1-7.2-4.3-4.2-1.1.9-4.5 2-7.5 2.4-3.1.4-6.2 1.3-6.8 1.9-1.9 1.9-3.1 1.4-2.5-.9.7-2.8-1.9-3.6-4.3-1.4-2.5 2.3-2.5 3.7 0 6 3 2.7 2.4 8.2-1.2 10.8-1.5 1.2-3.1 1.8-3.4 1.4-.4-.4-.1-4.6.6-9.3s1.4-12.1 1.6-16.3a53 53 0 0 1 1.5-11.6c.7-2.2 1.4-7.4 1.5-11.5s.4-8.2.6-9c.4-2-1.9-13.9-4.2-21.6-1-3.4-1.6-7.1-1.3-8.2.2-1.1-.2-3.3-.9-4.8-2-4-1.3-19.5.8-18.7.8.3 1.4 1.5 1.4 2.7 0 1.1.9 3.6 2 5.3 2.7 4.5 6.8 4.5 10.5.1 2.2-2.6 2.5-3.7 2-6.7s-.2-4.1 1.4-5.6c1.2-1 2.1-2.4 2.1-3.1s1.8-3.1 4.1-5.3c3.6-3.7 3.9-4.4 3.3-7.6-.3-1.9-.2-3.5.2-3.5 2.9-.1 5.8-4.1 6.6-9.1 2.2-13.4 2.3-12.6-1.5-16.4-2-2-3.5-4.4-3.4-5.7a12 12 0 0 0-.7-4c-.6-1.4.1-2.1 3.6-3.7l6.1-2.5c1.5-.5 1.6-1.2 1-4.8a26 26 0 0 1 .2-12.6c.6-1.8.4-2.2-1.4-2.2-1.2 0-3.1.4-4.1 1-2.2 1.2-5.3.3-4.7-1.4.3-.6-.2-1.9-1-2.8-1.4-1.5-1.2-2 1.3-4.2 2.7-2.3 2.8-2.5 1-3.2q-2-.7-6.3 1.6l-4.4 2.3-2.2-2.2-2.2-2.2 2.8-2.4c1.5-1.3 2.7-2.8 2.7-3.4q-.1-3.7-6.5 2c-3.9 3.6-4.8 4-7.2 3.3-1.6-.4-4.5-.8-6.5-.9-6.7-.2-12.7-9-12.8-18.4 0-1.4-1-4.6-2.1-7.1-1.8-3.9-2.2-6.8-2.5-22.5-.3-19.1-.1-20.9 5-31.9 1.3-2.8 2.9-8.5 3.6-12.6.6-4.1 1.9-10.2 2.7-13.5a70 70 0 0 0 1.5-16c0-8.4-.4-10.9-2.4-15.5-1.4-3-3-8.4-3.7-11.9-1.6-8.1-8-16.9-13.6-18.7-1.1-.3-3.3-1.9-5-3.4a19 19 0 0 0-6-3.7c-2.4-.8-3.1-1.6-3.3-4.1-.2-1.8.1-3.2.7-3.2s1.1.4 1.1 1 1 1 2.1 1 2.7.7 3.4 1.7c1.7 2.2 4.9 1 4.2-1.7-.6-2.1 2-2.9 3.9-1.1 1.2 1.3 8.4.3 10.8-1.5 1.5-1.1 1.7-1.6.7-2.8s-2.6-1.3-6.8-.9-5.4.3-4.9-.5c.4-.7 2.2-1.2 4.1-1.2 3.2 0 6.5-2.1 6.5-4.1 0-1.7-3.2-2.3-5.2-1q-1.8 1.1-1.6.4c3-6.3 3-6.3 6.7-5.7 2 .4 4.4 1.3 5.4 2.2 1.4 1.2 2.2 1.3 4.2.4 2.9-1.3 3.1-2.8.8-5.4-2.5-2.8-.8-3.3 2.6-.7 2.5 1.8 3.3 2 4.6.9.8-.7 1.5-2 1.5-2.9 0-2.1-2.6-9.8-4.7-13.7-1.4-2.7-1.4-3.3 0-6.1 2.3-4.3.2-7.1-5.5-7.5-4.5-.3-6.2-2.2-2.9-3.3 2.3-.7 2.7-3.5 1-6.6-.8-1.7-1.9-2-5.2-1.7-3.9.3-4.1.1-4.8-2.8-.3-1.8-1.6-4.7-2.8-6.7-2.6-4.3-2.6-5 .1-6.2s3.4-3.3 1.3-4.1c-.9-.4-2.8.2-4.5 1.4-2.2 1.6-3.4 1.9-5.6 1.2-2.6-.8-2.7-.9-.9-1.5 2.5-.8 5.8-5.2 5-6.5-1-1.7-4.4-1.1-5.7 1q-2.7 3.9-2.8-.3a8 8 0 0 0-.9-3.6c-1.3-2-6.3-2.2-8.3-.4-1.7 1.5-1.8 1.4-1.8-.5 0-2.4-1.4-2.9-2.6-1.1-.6 1.1-.8 2-1.3 6.7-.1 1-.5 1-2.1 0s-2.3-1-3.6.4-1.5 2-.4 3.2q1.3 1.7.2 2.9-1 1.3-.2 2.7c1.4 2.2 1.2 4-.4 4q-1.4-.2-1.8-2.3c-.3-1.9-.8-2.2-4.1-2-4.4.3-4.5-.2-1.1-3.8q2.6-2.8 2-4.4c-.9-2.3-4-1.4-4.4 1.2-.4 3-5.3 6.4-8 5.6-3.3-.8-5.7.4-4.3 2.1 1.8 2.1-.6 3.2-2.8 1.2q-1.7-1.7-1.9-6c-.1-2.4-.9-6-1.7-8-1.8-4.3-.7-7.6 2.6-7.6q1.8 0 1.7-.8c-3.5-7.2-4.8-8.1-4.8-3.2 0 3.1-1.6 4.1-2.6 1.5a60 60 0 0 1 5.2-21.8c1.3-2.9 2.4-6.1 2.4-7.2a51 51 0 0 1 10.9-17.6c1.7-1.5 3.1-3.5 3.1-4.4 0-3.4-3.3-7.2-8.3-9.6-4.7-2.2-6.7-2.4-23.2-2.9-25.6-.7-31.9.4-38.7 6.8q-5.7 5.1.5 9.6c1.9 1.5 3.8 2.6 4.4 2.6q3.6.1 9.9 16.4a131 131 0 0 1 5.1 16.1l.6 4.5H328c-6.1 0-8.2 7.1-3.2 11q5.1 4.1 2.7 7c-.7.8-2.5 4.6-4 8.4-2.8 6.9-2.9 8-3.4 27.7-.1 5.3-1.9 9-5 10-.8.4-2.4 15.6-2.4 23.1q0 4.8-2.3 1c-.9-1.4-2.8-1.8-9.5-2-4.6-.2-11.3-.9-14.9-1.7l-13-2.5a106 106 0 0 1-44-23.5c-3-2.5-6.3-4.8-7.2-5.1-2.5-.9-2.3-1.5 2-8.2l4.7-7.7c.9-1.5 2.2-1 11.9 4.5l10.9 6.2 15.1-2.2c8.3-1.1 16.8-2.6 18.8-3.1 6.1-1.6 6.2-3.1.8-14.4a100 100 0 0 1-6.5-18l-3.1-14.3c-1.4-5.7-1.4-7.7.1-19.3 1.5-11.3 1.5-13.3.3-15.2-2.8-4.3-3.8-8.5-2.7-11.6q1-3 0-4.8c-1.3-2.6 1.8-18.2 5.2-25.3 4.2-8.9 7.8-13.3 11.5-14.1 6.1-1.2 9.9-6.2 8-10.4-1.3-2.9-10.2-7.5-14.4-7.5-1.2 0-3.4-.4-4.8-1-3.4-1.2-31.9-1.9-37.6-.9m37.5 5c9.9 2.3 12.9 3.5 11.9 5-.3.6-4.3.7-10.6.3-8.4-.6-10-.5-9.6.7q.5 1.4 6.4 1.9 9.8 1 7.6 3.2-1 .9-4.8-.2c-4.5-1.3-9.6-1-10.1.6-.2.7 1.7 1.4 4.8 1.7 2.9.4 5.7 1.1 6.2 1.6s-.5 2.9-2.4 5.9c-3.1 4.5-3.7 5-6.4 4.5-3.5-.6-10.5 2-10.5 3.8q0 1 2.3.5c4.6-1.4 8.5-1.8 9-1 .2.5.1 1.9-.4 3.2-.8 2-1.4 2.3-3.9 1.7-3.3-.7-7 .1-7 1.6 0 .5 1.8.9 3.9.9 6.9 0 6.4 4.2-.5 4.7a9 9 0 0 0-5.9 2.7c-2.8 3-2.5 3.3 4.4 4.2 2.9.4 4.9 1 4.4 1.5-1 1-8 1.5-8.9.6-.4-.3-1.6-.2-2.6.4-2.8 1.5-3.9 0-7.3-9.6-7.2-20.4-19.1-36.6-24-32.5q-1.7 1.3-.5 2.4c.5.5 1 1.4 1 1.8 0 1.4-2.8.9-4.4-.8-2.5-2.5-1.9-5.2 1.5-6.9a137 137 0 0 1 19.4-6.8c4.2-1.1 28.2.5 37 2.4m-27.6 55.6 1.1 4.5c0 1.4-2.4.8-4.8-1-2.1-1.6-2.2-2.1-1.1-4.5 1.7-3.8 3.6-3.4 4.8 1m8-.9q.9 1.8.1 3.3c-.8 1.2-1.3 1-3.1-.7-2.2-2.2-1.9-4.4.6-4.4.8 0 1.9.8 2.4 1.8m10.2 1.9c1.5 1.8-.1 3.6-2.7 3.1q-1.9-.4-2.2-3c-.3-2.2 0-2.6 1.7-2.1a7 7 0 0 1 3.2 2m89.1-.6c2.6.6 5.1.8 5.7.5.5-.4 2.8.1 5.1 1 6.8 2.7 8 8.7 1.3 6.3-3.5-1.2-12.3-.8-12.3.6q.2.8 2.2 1c5.9.4 12.8 1.8 12.8 2.6 0 1 .1 1-10 1.2-9.1.2-10.5 2-1.9 2.3 3.4.2 6.6.7 7.1 1.2 1.4 1.4-.1 3.6-1.5 2.4-2-1.6-8.3-2.3-11.1-1.2q-6.4 2.7 3.9 2.7c3.5 0 6.7.2 7.1.5 1.4 1.4-.9 2.8-4.6 2.8-4.7 0-9.3 1.6-8.5 3 .3.5 2.5.7 4.9.4q4.2-.6 5 .5c.8 1.3-.2 1.7-6.6 2.6-5.9.8-6.2 2.3-.5 2.7 5.5.4 5 2.2-.8 2.8-5.6.6-6.4 2.4-1.2 2.8 2 .2 3.7.7 3.7 1.1q-.2 3-6.7 2.3c-3.6-.4-4.5-.2-4.1.9.2.8 2.2 1.6 4.4 1.9q3.9.5 3.9 2c0 1.1-1.4 1.6-5.2 1.8q-5.3.3-5.3 1.6c0 1.4-4.1 3.6-6.8 3.6a4 4 0 0 1-4.2-4.1c0-.9-.9-4.5-2-7.9s-2-6.8-2-7.5c0-1.2 5.4-3.2 10-3.7q2.3-.4 2.5-1.3c0-1.9-5.6-1.6-9.6.4L330 148l-1.7-3.6c-2-4.1-1.3-4.9 4.7-6 1.9-.3 4.1-.7 4.8-1 1.9-.6.4-2.4-2-2.4q-2 0-1.4-1.6t-1.4-2.1c-1.2-.3-2.7-2.1-3.5-3.9-1.7-4.2-3.1-4.2-8.3-.4-3.6 2.6-4.5 2.8-6.7 1.8-8.5-3.8 1-12.7 13.7-12.9 3.5 0 7.2-.4 8.3-.8 2.5-1 16.6-.4 22.7 1m-171.9 9.5c7.1.5 9.3 1.1 10.8 2.7q4.2 4.4-1.3 3.2a66 66 0 0 0-22.5.1q-.6 1.2 8.6 1.5c12.4.5 13.3 1.5 9.3 9.6l-3 5.9-6.7-.4c-9.4-.6-10.8 1.4-1.5 2.3 6.5.7 7.1.9 6.8 2.9-.3 1.8-.8 2-4.3 1.7-6.9-.7-8.8-.6-9.2.5q-.1 1.1 5.7 1.8l6 .9-2.3 5.9c-2.6 6.3-4.3 8.8-6.2 8.8q-1.2.1-1.8 1.4-.7 1.5-4.6 1.4c-3.2 0-4.2-.5-4.7-2.1-.4-1.2-.2-2.3.5-2.5 2.8-.9.7-2.3-3.1-2-3.3.2-4.3 0-4.3-1.2q0-1.5 3.8-1.8c5.3-.5 4.6-2.4-.8-2.1s-6.6-1.4-1.5-1.9c6.4-.6 5.7-2.2-.9-2.2-5.3 0-6.2-.3-5.9-1.7.2-1 2.3-2.3 5.2-3.2 6.3-2 7.3-4.1 1.7-3.4a15 15 0 0 1-5.8-.2c-1-.5-2.6-.7-3.6-.6q-2 .3-1.5-1.6c.2-1 1.1-1.6 1.9-1.4 1.8.5 8.2.2 8.8-.4q1.5-1.7-6.7-2-5.8-.2-5.7-1.5c.1-1.3 1.2-1.4 3-1.4 5.4-.1 3.7-2.1-1.8-2.2-6.3 0-7.7-.7-7.7-3.9 0-1.9.8-2.6 3.8-3.4 2-.6 5.8-1.1 8.4-1.1 5.2 0 8-.8 7.3-2-.9-1.5-17 .3-23.1 2.7-2.1.8-1.8-3.3.4-4.2.9-.4 4.9-1.5 8.7-2.5 7.2-1.9 18.4-2 39.8-.4m83.1 3.2c-1.3 2-6 3.9-7.1 2.8-.4-.4.8-2 2.7-3.6 3.7-3 6.5-2.5 4.4.8m54.6-.9q-.2.8-1.5 1.5c-1.5.5-2-.5-.8-1.7.9-1 2.3-.9 2.3.2m-66 4c0 1.9-2.2 2.3-3.8.7s-1.4-1.6 1.1-1.6c1.5 0 2.7.4 2.7.9m68.3 3q5.7-.6 1.7 1.6c-1.4.8-2.9 1.4-3.3 1.5-1.1 0-2.6-4.3-1.9-5.5q.6-.8 1 .8.4 1.9 2.5 1.6m-64.8 2q-.4 1.8.5 2.6c.5.3 1 1.9 1 3.5s.5 3.2 1.1 3.6.8 1.7.5 3c-.5 2-.1 2.7 2.1 3.7 2.4 1 2.8 1.9 3.1 5.5.2 3.1-.2 4.4-1.3 4.8-2.2.9-1.9 2.4.5 2.4q2 0 2 2.1-.1 2-2 2.6c-2.9.8-2.5 2.1.8 2.5 3.9.4 3.8 4.1-.2 4.8-1.6.3-3.1 1.1-3.4 1.9-.3 1 .4 1.2 3.7.6 3.2-.5 4.1-.4 4.1.7 0 1.9-2 3.8-4.1 3.8-1.9 0-3.5 1.8-2.5 2.8.4.3 2.1.1 3.8-.6 3.5-1.3 5.7-.2 3.5 1.6-.7.6-4.4 1.9-8.2 2.9s-7 2.4-7.3 3.1c-.5 1.7 6.8.6 12.7-1.9 2.4-1.1 4.5-1.9 4.7-1.9s1.4 2.1 2.6 4.6c1.7 3.7 1.9 5 1 6.5-1.7 2.6-1.5 2.9 1.4 2.9 4 0 2.7 3.3-1.6 4.1q-27.3 5.6-26.2 2.6l.2-5.3c0-3.7.3-4.5 1.5-4 .8.3 4.2-.4 7.6-1.4 3.4-1.1 7.2-2 8.5-2s2.4-.5 2.4-1q-.2-3.1-9.3-.5l-8.1 2.3c-2.1.6-2.2 3.2.8-29.8.8-9.1 1.8-20.7 2.1-25.8.4-5 1.1-9.2 1.7-9.2s.7.9.3 1.9m10.3-.7c-.3.7-2 1.4-3.9 1.6-3.2.2-3.3.1-1.5-1.3 2.4-1.8 5.9-2 5.4-.3m-17.3.7q.4.9-.5 1.6-.9.4-1-.9 0-2.7 1.5-.7m16 6.2c1 1.5-.1 2.3-2 1.5q-1.4-.6-1-1.6c.8-1.3 2.2-1.3 3 .1m-16.1 5.3c.3 1.4.4 3 .1 3.8A937 937 0 0 1 251 200c-.5 4.7-.7 9.3-.4 10.2.8 2.6-.7 2.2-7.9-1.7a36 36 0 0 0-7.9-3.5q-1.5-.1-2.8-1.5c-1-1.2-.6-2.7 2.1-8 3.6-7.2 5.6-9.5 4.5-5.2-.5 2.3-.1 3 3.3 5.3 4.1 2.6 6.7 2.5 5.6-.4-.3-.8 0-1.9.7-2.4 1.6-1-.9-3.2-5.9-5.4-1.8-.8-3.3-2.1-3.3-2.9 0-2 .4-1.9 5 .7 3 1.8 4.2 2 5.1 1.1s-.1-1.8-4-3.7c-2.8-1.5-5.1-3.1-5.1-3.6 0-2.1 3-2.1 5.8 0s5.2 2.1 5.2 0c0-.4-1.8-1.5-4-2.4-4.2-1.7-4.6-2.8-3-7.1.9-2.5 1.1-2.5 3.9-1.1q4 2.2 4.1-.5c0-.4-1.3-1.2-3-1.8-1.6-.5-3-1.6-3-2.4 0-2.1 1.2-2.8 2.6-1.6.7.6 1.8.7 2.5.3q1.3-.7-1.1-2.4c-2.5-1.9-2.1-5.7.4-4.7 2.2.9 2.8-.5 1.1-2.3-1.2-1.3-1.3-2.3-.6-4.4 1.3-3.3 3.7-3.4 4.5-.2m82.7 25.7c.9 3.6-.9 5.4-3.2 3.3q-3.3-2.8-.7-5.2t3.9 1.9m9.9-1.2c1.4 2.7.2 5.3-2.3 4.9s-4.2-3-3.4-5.2 4.4-2 5.7.3m7.4-.2c.4.9 0 2.3-.8 3.2-1.4 1.3-1.6 1.3-2.2-.2-.7-2 .1-4.7 1.5-4.7q.9.2 1.5 1.7m-25.4 4.5q-.2.8-1.7.6-1.8-.4-2.1-3.3l-.2-3 2 2.4a9 9 0 0 1 2 3.3m-147.9 1.9c1.3 2.4-.3 6.4-2.9 7.4q-3.1 1.2-1.3-2.3a12 12 0 0 0 1.1-4.6c0-3.2 1.5-3.4 3.1-.5m-8.3 2.8c-.3 3-3.5 3.6-5.1.9-1.5-2.2.7-4.8 3.4-4.1 1.5.4 1.9 1.2 1.7 3.2m182-.7c.2 1.9-.6 3.2-3 5.2l-4.6 3.7c-1.7 1.4-1.1 4.3 1 4.7.9.2 3.1-1.1 4.9-2.8q3.2-3 4.2-2.1 2.4 2.4-4.3 6.6c-4.7 3-5.5 6-1.2 5.2l5-1.2q2.3-.8 2.2.8c0 2-1.9 3.4-6.6 5.1q-4 1.3-3.9 3.2c0 2.6 3.2 3 5.7.7q1.9-1.6 1.7-.7c-.2.6-3.1 3.4-6.5 6.2-6 4.9-6.1 5.1-7.8 13.1-1.6 7.4-1.6 8.3-.2 11.2 2 4.1 2 4.2-.6 3.6-1.2-.4-2.8-.1-3.5.5-1.5 1.2-9.4-.5-13.2-2.9-1.8-1.2-2-1.7-1-2.3 1-.7 1-1.4.1-3.5s-.9-3.1.2-5.4a12 12 0 0 0 1-6.7c-.3-2.1 0-8.4.5-13.9L327 198c0-9 .3-9.6 5-7.6 3.7 1.5 6.2.7 8.8-2.7q1.4-1.6 4.8-1.7c1.9 0 3.4-.5 3.4-1 0-1.8 4.3-7.1 5.5-6.7.5.2 1.1 1.5 1.3 2.9m-192.8-1c0 .7.3 2.3.6 3.5.8 2.8-1.1 3.1-3.7.7-1.4-1.3-1.6-2.1-.8-3.5 1.1-2.1 3.9-2.6 3.9-.7m23.1 8.4c3.2 1.6 6.1 7.1 7.2 13.4a29 29 0 0 0 1.2 5.2c.5 1.3-.2 1.9-3.1 2.7-2 .6-4.1.8-4.6.5-1.4-.9-.9-4.6.9-5.9 1.6-1.2 1.6-1.5.2-3.2-.8-1-2-3.1-2.7-4.6-1.2-2.7-1.3-2.8-8.8-2.5-8.3.3-10.8-1.1-5.2-3a135 135 0 0 0 11.6-4.2c.2 0 1.7.7 3.3 1.6m220.7 3.2c.7 2 1.4 4.5 1.4 5.4-.1.9.6 2.2 1.4 2.9s1.4 1.8 1.4 2.6q.2 1.5-1.9.3-4.9-2.6-3 1.6 1.9 5.3-2.1 1.4-2.1-2-4.1-1.7c-1 .3-1.9.2-1.9-.2 0-1.3 2.4-3.1 4.2-3.1 2 0 2.2-1.1.9-5.8q-1-3.4.1-5.8c1.3-2.8 1.7-2.6 3.6 2.4m-8.1 5.8c-.9.9-2.8-.6-2.1-1.8q.6-1 1.7.1 1 1 .4 1.7M166.8 199q5 3 2 5.8-1.4 1.3-.2 2c1.5 1 2.5 4 1.5 4.6-.4.3-2.3-.4-4.1-1.6-3.2-1.9-3.3-2.1-1.6-3.4 1.8-1.2 1.7-1.4-.8-4.4-4.3-5.2-2.8-6.7 3.2-3m-48.3 4c-1 1.1-2.2 1.7-2.7 1.4-1.2-.8 1.1-3.4 3-3.4 1.3 0 1.2.3-.3 2m299.1-1.2c3.3 2.1 5.4 7.8 5.4 14.5 0 5.1-.3 6.8-1.2 6.4-.8-.2-1.2-1.7-1-3.4a6 6 0 0 0-1.4-4.7q-1.8-1.8-.6-2.8c1.5-1.5-.3-3.8-2.9-3.8-2.2 0-3.5-3.6-1.9-5.5 1.4-1.7 2-1.8 3.6-.7M175.5 203q.4.9-.4 1-1-.1-1.1-1 0-1 .4-1 .6 0 1.1 1m220.5 3.8c0 1.3-1.2 2.2-2.2 1.6s-.1-2.4 1.3-2.4q.8.1.9.8m-6.4 2.8q-.7 1.5-1.1 1.2c-.3-.3-.3-1.3.1-2.2q.7-1.5 1.1-1.2c.3.3.3 1.3-.1 2.2m-22.6.4q-.1.9-1.5 1c-1.4.1-1.5-.5-1.5-1q.1-1 1.5-1c1.4 0 1.5.4 1.5 1m35-.6q0 .6-1 1.1-.9.4-1-.4.1-1 1-1.1 1 0 1 .4m-31.9 1.9c-.1 1.2-1.5.9-1.9-.4q-.4-1 .8-.8 1 .5 1.1 1.2m45.4-.3q.4.9-.9 1-1.5-.1-1.6-1 0-1 .9-1t1.6 1m-40.8 2.2q-.5 1.1-.6-.6t.5-1.3q.5.6.1 1.9m-207.6 1.3q2.9 1.6 2.2 2.8c-.4.7-.8 2.3-.8 3.7q0 2.4-1.8 2.8c-2.1.4-3.5-2.7-1.6-3.8 1.1-.7 1-1.2-.4-2.8-1.6-1.8-2.3-4.2-1.2-4.2.4 0 1.9.7 3.6 1.5m7.8 3.6c-1.3 2.6-2 2.1-1.2-.9q.6-2 1.4-1.6.7.7-.2 2.5m203.7-.4c-.7.7-2.6-.7-2.6-1.9q0-1 1.5.2 1.4 1.2 1.1 1.7m-272.7 1.7c-1.1 2.4-2.9 3.6-2.9 1.8 0-1.2 3.1-5.4 3.6-4.9.3.2-.1 1.6-.7 3.1m90.4-.2c-1.3 1.2-2.6 1.8-3 1.4s.1-1.4 1.1-2.2c3.1-2.2 4.3-1.7 1.9.8m159.4 2.4c-1.1 6.5 5.5 35.7 8.9 39.5 1.9 2.1 1.8 3.9-.2 3.9-.8 0-2.2.7-3 1.5-2 1.9-6.3 3-7.5 1.8-.5-.5-.5-2.1 0-4 1.1-3.7.6-16.9-.8-20.5-.5-1.3-.6-3-.1-3.8 1.4-2.2-.4-6.4-3.1-7-2-.5-2.4-1.2-2.6-4.9-.1-3.8.3-4.8 3.5-7.7q6.1-5.8 4.9 1.2m5.3-3.6q0 .9-1 1a1 1 0 0 1-1-1q.1-1 1-1t1 1m-152.2 1.8q.4 1.4-1.4 1c-.9-.1-1.9-.9-2.2-1.6q-.4-1.4 1.4-1c.9.1 1.9.9 2.2 1.6m165.3-.2c1 .9 4 1.9 6.6 2.2a18 18 0 0 1 7.2 2.3c3.3 2.6 5.7 2.4 11-1 4.7-3 10-4.4 10-2.6q-.2 1-2.5 1.7c-3.9 1-6.4 3.8-6.4 6.9 0 2.8 2.8 4.7 5 3.4 1.6-1 1.2 1.1-.6 2.5-1.1 1-1.4 2.3-.9 5s.1 4.2-1.4 6.2a9 9 0 0 0-2.1 4.1c0 .9-.4 1.9-1 2.2-1.2.7-1.3 4.8-.2 5.9.6.7 1.2 8.1.9 13.1-.4 9.6.1 13.6 2.4 17.9 2.6 5 5.8 6.7 8.4 4.6 1.8-1.5 1.8-1.2.4 2.9-.9 2.6-.9 3.4.4 4.4.9.7 1.7 2.1 1.9 3.2.3 1.8-.3 2-5.2 2s-5.5.2-5.8 2.3a5 5 0 0 1-2.3 3.2q-1.7 1-1.9 2c0 1.6 2.5 1.1 5.1-.9 1.3-1 4.1-2.1 6.2-2.5s5.2-2 6.9-3.5c3-2.7 3.1-2.9 1.5-5.1-1.4-2.1-1.4-2.6-.1-5.2.8-1.6 1.9-2.6 2.4-2.3q.9.7-.1 2.3c-.9 1.5-.5 2.8 2.2 6.8 1.9 2.7 3.8 5.2 4.4 5.6q.8.7.3 1.3c-.4.4-1.7 0-3-.9-2.8-2-4.8-2-4.8-.1q.1 1.4 1 1.5c.6 0 2 1.6 3.2 3.6 1.7 2.8 2.6 3.5 4.4 3.1 1.3-.2 2.8.1 3.3.7 2.7 3.3 4.3 23.2 1.9 22.4q-1.2-.6-1.6-2.9c-.6-5-1.2-6.7-2.9-7.3-1-.3-3.3-1.7-5.2-3.1-2.6-1.9-3.7-2.2-4.7-1.4-1.9 1.6-1.7 2.9.3 2.9 2.5 0 7.3 5 7.3 7.7 0 2.1-.4 2.3-4.6 2-7-.3-6.7 1.9.3 2.9l5.8.9.3 4c.3 3.1-1.1 10.2-2.3 12.3-.1.1-1.5-.4-3.1-1.2-4-2-7.6-2.3-8.1-.8q-.4 1.2 2.6 1.8c1.7.4 3.6 1.3 4.2 2 .6.8 1.8 1.4 2.5 1.4q2.8 0-.5 8.6a76 76 0 0 0-3 13.3c-.9 7.1-.8 8.8.4 10.7 1 1.6 1.2 3.1.5 5.3a73 73 0 0 0 0 15.3c1.3 17.3 1.3 16.7-1 16.1-2.5-.7-7 .4-7 1.7q.2 1 2.5 1c3.6 0 7.5 2.1 7.5 4.1 0 1.4-1 1.9-4.2 2.1-5.5.4-6.4 2.8-1.1 2.8q6.2.1 6.3 3.8.1 1.4-2.5.8c-2.8-.7-7.5.2-7.5 1.4 0 .4 1.5 1.1 3.3 1.4 1.9.3 4.2 1.3 5.3 2.1 1.7 1.3 1.5 1.4-2.9 1.5-5.7 0-6.2 2.3-.6 2.8 1.9.2 4 .9 4.8 1.5 1.1 1 .5 1.3-3.4 1.7-6.6.7-6.7 2.4-.3 3.6 4.4.7 5.4 1.3 5.6 3.1.3 2.1-.1 2.3-3.7 2.3-5.7 0-5.6 2.6.2 3.7 3.2.7 4.2 1.3 4.2 2.8q-.1 1.9-2 2.3c-3.7.7-4 2.2-.7 3.4q6.1 2.6.1 2.8c-3.6 0-3.5 2.1.1 3 3.3.8 3.8 3 .7 3-6.1 0-7.8 2.7-2 3.2 4.1.3 5.9 2.8 2.1 2.8-3.4 0-6.8 1.1-6.8 2.1 0 .5 1.8.9 4 .9 2.9 0 4.2.5 5 2 1.3 2.5.3 4.7-1.3 3.1-1.4-1.4-5.4-1.4-6.2-.1s4.3 3.3 6.1 2.6q1.3-.4 1.9.5t-.7 1.3l-5.5 1.5c-5.9 1.6-5.4 3.1 1 2.8 4.9-.2 5.2 0 5.5 2.3s0 2.5-3.9 2.5q-4 0-4.7 1.3c-.3 1 .7 1.3 4.4 1.1l4.9-.3.2 9.8c.1 9.6.1 9.8-2 9.1-3.6-1.1-7-1.1-7.4.1-.2.6 1.7 1.8 4.2 2.5 4.2 1.2 4.5 1.6 4.5 4.6q0 5.6-1.8 1.3c-.6-1.7-1-1.8-3.2-.7-2.6 1.3-4.1 5-1.8 4.6 2.4-.5 7 1.2 6.5 2.4-.2.7-1.9 1.3-3.8 1.3l-4.2.3c-.9.1 4.7 6.1 5.7 6.1q.5-.2.6-1.5c.1-1.3.5-1.5 1-1.5s1 1.1 1 2.5c0 2.1-.5 2.5-2.7 2.5-3.7 0-7.3 1-7.3 2.1 0 .4 1.5.5 3.3.3 3.9-.7 7.3 1.5 6.4 4-.4 1-1.5 1.6-2.4 1.5-2.3-.4-6.3 1-6.3 2.1 0 .5 1.9 1 4.3 1.2 3.5.3 4.3.7 4.5 2.6.3 2.1.1 2.3-3 1.7-2.8-.5-3.7-.2-5.6 1.9q-2 2.4-2.2 2.9c-.2.5 2.3.3 5.2.2 5.8 0 7.6 1.9 3.1 3.6-2.9 1.1-7.3 4.7-7.3 5.9 0 .4 1.8-.2 4.1-1.3 3.8-1.8 4.2-1.9 5.7-.3 2.2 2.2.7 4.6-3.8 6.1-3.3 1.1-7.9 5.9-6.8 7.1.3.3 2.5-.8 4.9-2.5 4.9-3.6 5.9-3.8 5.9-1.3q-.1 1.8-3.5 3.1c-1.9.7-5.2 3.2-7.2 5.7-4.7 5.6-8.4 6.7-19.4 6.2s-18.3-3.4-24.9-9.8a25 25 0 0 0-8-5.5q-3.1-.6-3.6-3.3c-1.1-4.5-2.4-5.4-6.6-4.7-3.3.6-3.7.4-3.2-1q.8-1.6-1.5-2.2c-1.1-.3-2.1-1-2.1-1.5s1.1-.7 2.4-.4c3.1.8 5.6-.2 5.6-2q.1-1.4 1.5-2c2.6-1 1.6-2.9-2.2-4.1-4.4-1.4-7 0-4 2.1q1.5 1.2 1.7 2 0 1.9-5.7-2c-3.5-2.4-4.4-2.6-12.6-2.2s-9 .2-10.2-1.6c-.9-1.5-1.4-9.4-1.9-27.1-.3-13.8-1.1-31.1-1.8-38.5s-1.2-18.5-1.2-24.5l-.1-11 4.8-9.8a84 84 0 0 0 9.3-36.7c.4-5.1 1.2-9.1 2-10.1 1.4-1.6 4-10 5.3-16.9.7-4.1 2.7-4.8 8.3-2.9q3.9 1.2 3.8 3.1-.2 3-2.6.8c-1.4-1.4-7.6-1.7-8.1-.3q-.2 1 1.9 1.8c5.5 1.5 7.8 2.9 7.8 4.5 0 .9-2 7.9-4.5 15.6-5 15.1-5.5 20.9-2 20.9 1.7 0 2.1-.9 2.7-7 .4-3.9 1.3-8.1 1.9-9.5 1.8-4.1 6.6-20.2 7.4-24.7q1.4-8-3.2-13.3c-2.5-3.1-7.2-4-10.2-2.1-2 1.3-.2 3.4 2.3 2.7 2.4-.6 6.6 1.7 5.4 2.9-.4.4-2.8.8-5.3.9l-4.5.1.2-5.6.2-5.6 6.6.2c6.4.1 6.5.2 7 3.1.6 3.2 2.7 3.8 4.3 1.2 1.4-2.2-.6-10.4-4.1-17.3q-10.7-20.7-5.1-20.5c1.7 0 2 .4 1.5 2.4q-.6 2.5.8 3.3c.8.4 2.9 4.4 4.7 8.8 1.7 4.4 4.2 10 5.4 12.5a66 66 0 0 1 4 12.5c1.9 8.4 3.5 11.2 5.5 10q1.3-.6.5-7.1l-.7-6.4 4.6.6c3.9.6 4.6.4 4.6-1 0-2.3-2.4-3-6.2-1.7-3.7 1.3-4.3.8-5.3-3.8l-.7-3.4 5.6.5c5.6.5 8.2-.6 5.5-2.3-.8-.5-4-.9-7.2-.9h-5.8l-2.5-5.8a69 69 0 0 1-6.9-19.2c-.6-4.8-4.7-10-7.9-10q-1.5 0-1.6-.9c0-2.1 3.3-13.7 5.2-18 1.6-3.8 1.9-6.5 1.7-16.6a66 66 0 0 1 .4-13.2c.5-.8 2-.7 5.4.3 2.7.8 5.8 1.2 7.1.9q2.2-.6 2.2 1-.1 1.4-2.1 1.5c-2.6 0-5.9 1.7-5.9 3.1q.2 1 2.9.4c2.7-.6 4-.1 5.2.6 1.9.9 2.5.9 3.4-.5 1.6-2.2 4.7-2 7.8.4 3.8 3 16.4 6.7 17.9 5.2q1.4-1.1-.7-3.2c-1-1.1-2.3-2-2.9-2s-2.9-.9-5.1-2a18 18 0 0 0-6-2c-3.4 0-8.9-4.5-11.3-9.2-2.7-5.6-2.8-7.5-.2-8.3 1.1-.3 2-1.2 2-1.8q.2-1.2 2-2.5c1.8-1.3 2-1.9 2-2.7 0-2.3 4.1-4.5 8.5-4.5 4.3 0 8.6-2.2 6.7-3.3-.5-.4-3.7-.3-6.9.1-8.7 1.2-13.2-.3-16-5.3a17 17 0 0 1-2.3-5.5q0-1.6 1.2.5 2.5 4.8 6.7 3.9l4.9-1c2.7-.5 3-3.4.3-3.4-1.1 0-3.9-.8-6.3-1.8s-5.1-1.6-6-1.4c-1.7.3-1.8-.9-1.8-14.5 0-10.3.4-15.3 1.2-16.1 1.5-1.5 1.8-1.5 3.9.4M201 222.7l-.1 3.8-2-2.5c-2-2.3-2-2.5-.3-3.7 2.4-1.8 2.4-1.8 2.4 2.4m-23-.8c0 1.2-2 2.5-2.7 1.8s.6-2.7 1.8-2.7q.8 0 .9.9m185 1.7q0 1.4-1.2 1.2c-1.8-.6-2.1-2.8-.4-2.8q1.5.1 1.6 1.6M212 228q-4.8 3.6-1.5-1.6 1.8-2.8 2.8-1.5 1.4 1.2-1.3 3.1m-122-1q0 .9-.4 1-.6-.1-1.1-1-.4-1 .4-1 1 0 1.1 1m8 .9q2.3 4-1 2.1-1.8-1.1-2-2.5c0-2.1 1.7-1.8 3 .4m327.8 3.3c.2 2.7-.1 4.8-.7 4.8q-.8-.2-.4-1.8c.2-1-.5-2.6-1.6-3.6-2.7-2.5-2.7-4.4.2-4.2 1.9.1 2.2.7 2.5 4.8m-319.2-3.1c1 1.7-1.3 3.6-2.7 2.2-1.2-1.2-.4-3.3 1.1-3.3q.9.1 1.6 1.1m85.5 3.6c-1.4 2.9-2.4 3.6-4.8 3.7-3 .1-3.1.1-1.7-2.6 1.4-2.6 6.2-5.8 7.6-5.1.5.2 0 2-1.1 4m7-1.3c-1.4 3.6-2.2 3.3-.9-.5.6-1.6 1.2-2.8 1.4-2.6.3.2 0 1.6-.5 3.1m32.1 3a157 157 0 0 0 17.8 11.8c7.7 4.6 15 7.6 24.5 10q20.4 5.2 29 6.3l5 .7-3.5 3c-6.3 5.4-7.9 5.7-23.8 4.5-13.1-.9-14.2-1.2-13.6-2.9.7-2.2-1.8-2.5-3.6-.3s-10.2 1.9-15.2-.6c-3.4-1.8-4.7-1.9-7.5-1.1-2.6.8-3.6.7-4.8-.5-1.9-1.8-1.9-2.7 0-4.3 1.5-1.3 2-5.1.8-6.3-.3-.4-1.5 0-2.5 1-1.7 1.5-1.8 1.5-1.8-.5 0-1.1-.4-2.3-.9-2.6-2-1.2-7.1-13.8-6.5-16 .3-1.4-.1-3.8-1-5.5s-1.4-3.1-1.1-3.1 4.2 2.9 8.7 6.4m201.8-4.9c.7.8 2.3 1.5 3.5 1.5 2.1 0 2.3.4 2.2 4.4q-.2 4.4 1.6 6.3 3.5 4.2-.6 4.3c-3.4 0-6.7 2.8-6.7 5.6q0 4.9-4.1-.7c-2.1-3-2.1-3.2-.5-8.7a32 32 0 0 0 1.4-7.2c-.3-3.3.2-7 1.1-7q.9.2 2.1 1.5m-253.1.1c2.7.6 3 .9 2.4 3.3-1 4.5-2.2 5.9-4.2 5.4q-1.9-.4-1.4-2.4.7-2-1.6-1.9c-2.4 0-2.5-.4-1.1-3.1 1.2-2.1 1.4-2.2 5.9-1.3m241 4.4c1.5 2.3 1.5 2.4-.4 1.6-4.7-2-7.6-1.9-10.1.5-1.3 1.2-2.4 1.8-2.4 1.2 0-2.1 7-6.4 9.9-6 .7.1 2.1 1.3 3 2.7m-208.1 3.9c-1.3 1.7-2.9 3-3.6 3-.7.1.2-1.7 2-4s3.4-3.6 3.6-3-.7 2.4-2 4M98 234q-.2.9-1.5 1c-1.3.1-1.5-.5-1.5-1q.2-1 1.5-1c1.3 0 1.5.4 1.5 1m98.2 2.2c-.7.7-1.2 2-1.2 3.1q0 1.6-1 1.2-.9-.7.6-3.6c.8-1.7 1.8-2.8 2.2-2.5q.4.8-.6 1.8m152 3q-1.3 1.5-1.2-1.2c.1-2.7.3-2.1 1.2-1.2q1.3 1.2 0 2.4m-157.9 4.7c.3 2.7 1.2 5.9 1.9 7 1.8 3 0 4-2.3 1.2-1.4-1.7-1.9-3.9-1.9-8.3 0-7 1.5-7 2.3.1M423 239q-.1.9-1.1 1-.8-.1-.4-1 .6-1 1.1-1 .4 0 .4 1m-328 2.5q0 2.3-1 2.5-.9-.2-1-2.5c-.1-2.3.5-2.5 1-2.5q1 .2 1 2.5m126.5 2.2a61 61 0 0 0 3.3 7.8c2.5 4.9 2.9 5.7 5 12.8q4.4 14.4-4.9 7.6c-4.5-3.2-7-.1-2.9 3.6 2 1.9 2 1.9-1.5 5.5-1.9 2-3.5 4.3-3.5 5.2 0 .8-.9 2.7-2 4.1s-2 2.8-2 3.1a25 25 0 0 1-7 6.6c-3.1 1.6-3.8 1.2-4.3-2.8-.4-3.9.6-7.2 2.4-7.2.6 0 2.5-1.1 4.3-2.5 7.2-5.5 11.5-20 8.2-27.9-1.7-4-2.1-6.4-.9-5.3q.6.6 1.9-.4c1-.8 1-1.7.3-3.7-1.1-2.9-.3-11.2 1.1-11.2.4 0 1.6 2.1 2.5 4.7m197.9-1.1c.7 1.9-.2 3.7-1.5 2.9-1.2-.8-1.2-4.5 0-4.5q.9.1 1.5 1.6M213 243q0 .9-1 1a1 1 0 0 1-1-1q.1-1 1-1t1 1m198 1.1q0 .9-1 .4-.9-.7-1-1.6.1-.9 1-.4a2 2 0 0 1 1 1.6M200.5 249c1.9 0 2.9 2 1.6 3.3q-1 1-3.6-.1a4.4 4.4 0 0 1-1.2-7.1q1.4-1.6 1.5 1.3c.2 1.4 1 2.6 1.7 2.6m-24.1.9c.7 1-1.8 3.4-2.7 2.5-.7-.8.3-3.4 1.3-3.4q.8 0 1.4.9m-10.7 4.8q-1.3 3-1.5.9c-.5-2.4.6-4.9 1.8-4.1q.9.6-.3 3.2m20.2-.2q.6 2.5-1.3.6c-2.3-2-3.1-.6-1.2 2.1 2.9 4.1 1.5 5.2-2.2 1.8-2.7-2.5-3.7-2.5-7.4.1q-6 4-1.3-2c1.6-1.8 3.6-3.1 5-3.1s2.7-.5 3-1.1c1.1-1.7 4.9-.6 5.4 1.6m-87.8.6c.8 1.6.8 2.4 0 3.2-1.4 1.4-3.1-.6-3.1-3.6 0-2.3 1.7-2.2 3.1.4m320.9 2.6q-1.5 2.5-.6 0c.3-1 .7-2.6.7-3.5q0-2.2.6 0c.2 1-.1 2.5-.7 3.5m-14-1.7q1.3.9.7 1.6c-.4.4-1.5 0-2.4-.9-1.8-1.8-.8-2.3 1.7-.7m-300 2.5c0 1.5-1.8 3-2.7 2.2-.2-.3-.2-1.5.2-2.6.7-2.3 2.5-1.9 2.5.4m94 1.6q-1.3 2 .5 1.9c2 0 2 .2-1.2 6.8-3.2 6.3-8.2 12.2-10.7 12.2s-1.9-1.6 1.2-2.9c2.8-1.2 6.8-7.1 8.2-12.2.8-2.7.7-2.9-1.4-2.3-2.5.6-5.5-1.9-3.6-3.1.5-.3 1.4-.4 1.9-.1s1.6-.3 2.6-1.4c2.2-2.4 3.9-1.6 2.5 1.1m-34.3 1.1q-.5 1-.5-1.2c0-2.2.2-1.9.5-1.3.2.7.2 1.9 0 2.5m45.3 1.7q0 5-2 7.2l-2 2.4 1-2.9c.6-1.6 1.1-4.8 1.2-7.2.3-6 1.8-5.6 1.8.5m101.7.1c.7 1 .9 2.1.5 2.4q-.7.1-1.9-2c-1.3-2.9-.3-3.2 1.4-.4m100.3 0q0 1.8-1 2-.9-.2-1-2c-.1-1.8.5-2 1-2q1 .2 1 2m-238.7 9.2c2 2.1 2.2 3.8.4 3.8-2.6 0-8.7-8-8.7-11.5q0-1.4 3.3 2.2zm5.7-8.2q0 .9-.4 1-.6-.1-1.1-1-.4-1 .4-1 1 0 1.1 1m228 .4c0 1.6-1.8 3.1-2.7 2.2-.8-.8.5-3.6 1.7-3.6q.9.1 1 1.4m-220.9 4.9c-1.3 1.3-1.5-.1-.4-3q.9-2.6 1.1.1c.2 1-.1 2.3-.7 2.9m-10.1-.7q0 1.3-1 .9-.9-.6-1-1.6.1-.8 1-.9 1 .1 1 1.6m37.7.6q-.5 1.1-.6-.6t.5-1.3c.3.3.4 1.2.1 1.9m26.3.8q-.1.9-1.5 1c-1.4.1-1.5-.5-1.5-1q.1-1 1.5-1c1.4 0 1.5.4 1.5 1m-145 1.4c0 .7-.6 1.9-1.4 2.5q-1.5 1.4-2-.5c-1-2.6-.7-3.4 1.4-3.4q1.8.1 2 1.4m172.4.5q.3.9-1.8 1.5l-4 1.2c-2.5.9-1.9-1 .7-2.2q4.2-2.2 5.1-.5m42.4 3.4c.2 1.6.1 3.6-.3 4.5-.5 1.4-.7 1.4-1.5.2-.5-.8-.7-2.2-.4-3.2q.3-1.5-.6-2.3c-1.6-1-1.1-2.7.8-2.3q1.6.4 2 3.1m105.2-1.9q0 .6-1 1.1-.9.4-1-.4.1-1 1-1.1 1 0 1 .4m-203.3 2.8q-.5 1.1-.6-.6t.5-1.3q.5.6.1 1.9m148 3.8c1.2 0 2.3-.5 2.3-1.2q0-2.5 3.9 4.5c2.6 4.7 2.8 7.2.4 6.2l-4.5-1.2c-3.1-.6-3.2-.7-1.8-3.3.8-1.5.4-2.3-2-4-1.7-1.2-3-2.9-2.9-3.8q0-2 1.1.5a4 4 0 0 0 3.5 2.3m-79 .2q-.5 1.1-.6-.6t.5-1.3q.5.6.1 1.9m-21.1 6.7c-1.3 2-2.6 1.1-2.6-1.6 0-2.5.1-2.6 1.6-1.1.9.9 1.3 2.1 1 2.7m-161 .9c.3 1 1.1.8 3.3-.7 5.8-4.2 7.1-1.4 1.5 3.3-2.5 2.1-3.8 2.5-4.7 1.8-.7-.6-2.3-.9-3.5-.5q-2.4.7-2.2-1.3c0-2.3 4.3-7 4.8-5.2zm85.9-1.9c.3.5.1 1.3-.5 1.6-1.5.9-4.3-.3-3.5-1.5.8-1.3 3.2-1.3 4-.1M310 288q-.1 1.8-1.5 2c-1.4.2-1.5-.9-1.5-2s.7-2 1.5-2 1.5.9 1.5 2m100.8 2.6q-.7.3-1.8-1.8-2-3.1.6-.6 1.6 1.6 1.2 2.4m-217.9 0c-.6.8-1.8 1.4-2.6 1.4s-2.1 1.6-2.9 3.5-1.6 3.5-1.8 3.5c-2 0-3.6-1.6-3.6-3.5 0-3.7 1.8-3.9 2.2-.3l.3 3.3 1.7-3c2.3-4.2 5.7-7.7 6.9-6.9q1 .6-.2 2m96.1 0q0 1.3-1 .9-.9-.6-1-1.6.1-.8 1-.9 1 .1 1 1.6m-198 1q0 1.3-1 .9-.9-.6-1-1.6.1-.8 1-.9 1 .1 1 1.6m13.1 2.7c-1.3 1.3-2.6.3-1.6-1.2q.6-1 1.7-.5 1 .6-.1 1.7m139.9 4.2q0 1.4-1 1.5-.9-.1-1-1.5c-.1-1.4.5-1.5 1-1.5q1 .1 1 1.5m-65 2.9c0 3-1.6 4.2-3.5 2.6-1.2-1-1.1-1.4.3-3q3.3-3.8 3.2.4m73.4.2q.6 1.5.1 2.2c-.7.8-3.5-1.9-2.9-2.9.8-1.4 2.1-1.1 2.8.7m8.6.3q0 1-1 1.6-.9.4-1-.9.1-1.5 1-1.6 1 0 1 .9m53.8 5.3a164 164 0 0 1 3.3 12.3c1.1 4.4 2.6 9.6 3.4 11.5 1.7 4.4 4.6 17.7 4.6 21.6 0 12.6.7 25.2 1.8 31.9 1 5.7 1.1 8.8.3 11-2.4 6.9-2.4 9.2-.3 9.8 2.2.5 2.9 4.1 1.2 5.2-2.2 1.3-4.3 12-3.8 19 .2 3.8.1 8.1-.3 9.5-1.2 4.3-2-4.6-2.5-28-.6-30.1-1.5-50.1-2.1-51.2q-.7-1-2.4-.5c-1.9.5-1.9.7-2-10.5 0-2-.5-4-1-4.3q-.9-.7.5-2.8c2-2.9 2-6.8 0-6.1q-1.5.7-1.5-1.5 0-2-1-2.1c-.5 0-.8-1.9-.6-4.5.3-2.4 0-4.7-.5-5a3 3 0 0 1-.9-2.1q0-1.6 2-.9c2.5.8 2.6-.9.5-8.8-1.7-6.6-1.8-7.7-.7-7.7.4 0 1.3 1.9 2 4.2m-138.4 1.1c-.7 1.9-3.4 3.1-3.4 1.5 0-1 3.2-3.9 3.8-3.4q.2.4-.4 1.9m77.7 0c-1.3 1.3-2.6.3-1.6-1.2q.6-1 1.7-.5 1 .6-.1 1.7m-69.7-.2c-.4.7-.7 2.1-.8 3.3-.2 3.7-12.6 9.2-12.6 5.5 0-.4 2-1.7 4.5-2.8s4.5-2.5 4.5-3.2c0-1.2 2.9-3.8 4.3-3.9q.7.1.1 1.1m-16.6 2.2c1.1.9 1.1 1.3-.4 2.4-2.1 1.5-5.4 1.7-5.4.3q-.1-1-1.5-1c-1.2 0-1.5 1.1-1.2 5.5.2 3.1.9 6.1 1.5 6.7 1.6 1.6 1.5 5-.2 7.4-1.9 2.6-3 1.3-1.5-2 1-2.2.9-2.9-.6-4.6-1.4-1.5-1.7-3.2-1.3-8.5.2-3.7.9-7 1.6-7.4 1.6-1 7.3-.2 9 1.2m25.7-1.3q.4.9-1 1c-1.4.1-1.3-.5-1-1q.6-1 1-1t1 1m63.5 5.5q-.1 1.4-1.6 1.5-2 .1-.4-1.5 1.2-1.4 1.6-1.5.4.1.4 1.5m-85.5 5.5c.3.5 1.9 1 3.6 1 3.7 0 3.7.9 0 4.1l-2.9 2.6.1-2.5c.3-3.3-2.6-5.1-5.3-3.4-2.5 1.5-3 1.5-3-.2 0-2.2 6.3-3.5 7.5-1.6m85.5 1q0 .9-1 1a1 1 0 0 1-1-1q.1-1 1-1t1 1m41 1.1q-.1.8-1.5.9c-1.5 0-2-1.2-.9-2.3.8-.8 2.4.1 2.4 1.4m-8.2 4.7q.2 1.1-1.2 1.2-1.5-.1-1.6-1.6c0-1.7 2.2-1.4 2.8.4m-49.8 1.1c0 1.2-2 2.5-2.7 1.8s.6-2.7 1.8-2.7q.8 0 .9.9m20.4 1.6q.4 1.4-.3 1.5-.8-.1-1.5-1.5-.4-1.3.3-1.5.8.2 1.5 1.5m-90.6 1.3a53 53 0 0 1-13.8 11.7c-1.5-.9 1.2-5.5 3.2-5.5 1.1 0 3.7-1.8 5.9-4 4.1-4.1 7.1-5.5 4.7-2.2m-15.5 3.4a13 13 0 0 0-1.7 3.9c-.7 3.1-3 4.3-4.5 2.5-.9-1-.5-2.1 1.6-4.5 2.6-3 6.8-4.7 4.6-1.9m144.2 2.8q.4.9-.4 1-1-.1-1.1-1 0-1 .4-1t1.1 1m-87 4.8c-.8.9-2.5-2-1.8-3.1q.6-.7 1.5.7.9 1.6.3 2.4m62.5 1.9q0 2.9-1.1 1.6c-.7-.7-.9-1.9-.6-2.7q1.6-3.5 1.7 1.1m-65 1.4q0 .9-1 .4c-.5-.3-1-1.1-1-1.6q.1-.9 1-.4a2 2 0 0 1 1 1.6m101-.1q0 .9-.4 1-.5-.1-1.1-1-.4-1 .4-1 1 0 1.1 1m42.9.6c.8.8-2.4 3.4-4.7 3.9-1.2.2-2.7.7-3.2 1q-2.1 1.5.6-3.6c1.3-2.6 1.9-3 4.2-2.4 1.5.4 2.9.9 3.1 1.1m-54.9.4q-.1.9-1.1 1-.8-.1-.4-1 .6-1 1.1-1 .4 0 .4 1m5.2 3.2q-1.3 1.5-1.2-1.2c.1-2.7.3-2.1 1.2-1.2q1.3 1.2 0 2.4m-56.2-1.8q0 .5-1 1.1-.9.4-1-.4.1-1 1-1.1 1 0 1 .4m-37.1 2.5q1.2.9.9 2.1-.3 1-2.2-.9c-1.9-2.1-1.2-2.8 1.3-1.2m-56.5 3.3c1.5 2.5-1.9 12.5-6 17.1-1.9 2-3.4 4.7-3.4 6-.1 4-2.5 11.1-5.3 15.8a20 20 0 0 0-2.7 7.9q0 3.2-3 6.7c-2.3 2.6-2.9 4-2.4 5.9q.7 2.6-1.2 3.8c-1.6 1.2-1.6 1.6-.5 3s1.1 2.6-.5 7.9a38 38 0 0 1-3.6 8.7 27 27 0 0 0-2.7 10.2c-.9 8.4-1 8.5-5.9 14.4q-3.5 4.2-5.3 3.7t-1.9-1c0-1.9 3.5-13.6 5.2-17.3 2.8-6 5.8-13.1 5.8-13.5a7 7 0 0 0-2.5-.9c-3.7-.9-2.7-6.1 1.2-6.1q1.7-.2 1.8-1.5-.1-1.4-1.7-1.2-1.8.3-1.8-1.5c.1-2.3 3.6-7 4.6-6.1.8.9 4.4-.9 4.4-2.2q-.2-.9-2-1.5c-2.7-.9-2.5-2.4.7-5.7 1.5-1.6 2.7-4 2.8-5.5q-.1-2.8 2.8-4.1c2.7-1.3 2.8-1.5 1.1-3.3q-2.8-3.2 2.1-4.1c2.3-.4 2.7-3.3.5-3.3s-1.8-2.9.5-3.3c3.3-.6 4.2-2.2 2.1-3.7-1.8-1.4-1.8-1.5.8-2.4q4.1-1.8 1.6-3.6c-1.8-1.1-.1-2.3 2.5-1.7 2.9.5 3.4-1.4.8-3.3q-1.6-1.3-.9-3c.5-1.4 1.4-1.6 4-1.2 1.9.3 3.7.3 4 0 1-1-1.5-3.3-3.6-3.3q-2 0-1.6-1.8.4-1.7 3-1.7 5.6-.3 1.9-2.5-2-1-2.1-2.1c0-1.6 5.2-.6 6.4 1.3m81.2 1.5c-.7.7-2.6-.7-2.6-1.9q0-1 1.5.2 1.4 1.2 1.1 1.7m109.4 1.2c0 2.3-1.6 3.6-2.5 2.1-.9-1.4.1-4 1.5-4q.9.2 1 1.9m-39.5 2.8q-1 5.6-1.9 4.2c-.7-.9.7-7.9 1.6-7.9q1 .1.3 3.7m-56.7 1.7q.4 1.8-1 1.4a3 3 0 0 1-1.6-2.2q-.4-1.8 1-1.4c.7.3 1.5 1.3 1.6 2.2m50.8 3.3c-1 1-1.9-.5-1-1.8q.8-1.7 1.2 0 .3 1.2-.2 1.8M338 388c0 6.9-1 15.3-1.6 14.7a91 91 0 0 1-3-22.2c-.2-6.1-.7-12.3-.9-13.9s0-3.6.7-4.4c1-1.2 1.6.4 3.1 8.9 1 5.7 1.8 13.3 1.7 16.9m8.5-24q.3 1-2 2c-3.8 1.4-4.5 1.3-4.5-1 0-1.5.7-2 2.9-2 1.7 0 3.3.5 3.6 1M119 369.4c0 1.3-1.1 5.7-2.4 9.7l-4.1 13.4-2.6 8.9c-.5 1.6-.9 4.1-.9 5.5s-.7 4.6-1.6 7.1a71 71 0 0 0-4.2 17l-1.1 8c-.6 3-1.4 8.8-1.7 12.9s-.9 8.4-1.4 9.7c-1.1 2.8.4 4.1 2.5 2.4 1.2-1 1.8-1 3 0 2.1 1.7 1.9 3-.5 3-2.6 0-2.6 1.6 0 3 2.7 1.4 2.6 5.3-.2 8.5-1.9 2-3.7 2.7-9.3 3.4l-10.2 1.6c-4 .9-4.4-.7-1-3.6 1.9-1.6 1.9-1.8.5-1.9-2.8 0-2.1-1.7 1.2-2.9q5-1.7 1.3-4c-1.6-.9-1.6-1.2-.3-2.1.8-.5 2.3-1 3.3-1 2.6 0 2.1-1.7-1-3.4l-2.8-1.5 3.3-.1c2.9 0 3.2.3 3.2 3 0 1.7-.7 4.5-1.6 6.2-1.6 3-1.2 7.8.6 7.8q.9-.2 1.6-2.8c1.1-5.3 1.2-5.4 3.4-4 1.7 1.1 2.2 1 3-.2 1.4-2.2 1.2-4-.5-4.6-.9-.4-1.7-2.6-2.1-5.5q-1-7.4-3.8-3.5-1.1 1.5-3.3.5c-2.9-1.1-2.9-2.7-.1-3.1 2.1-.3 2.2-.7 2-8.8-.1-5 .4-11 1.2-14.5 1.5-5.7 1.4-6.1-.4-7.4-2.1-1.4-2.8-5.1-1-5.1 1.9 0 4-4.7 4.5-10 1.2-12.1 4.6-27.3 6.4-28.5 1-.5.2-5.5-1.1-7.2q-1-1 1-1.7a6 6 0 0 0 2.8-2.9q.8-2.3 1.1 5.8c.3 6.9 0 9.3-3.1 18.5a191 191 0 0 0-7.6 33l-.6 13.7q-.5 11.2.5 11.3c2.1 0 2.8-3.8 3.5-16.8a169 169 0 0 1 9.7-47.9c.5-1.8 1.7-3.7 2.7-4.3q1.8-1.2.5-1.6c-2-.8-1.5-3.2.7-4.4q1.8-1.1 2-2.5c0-.9.4-2.3.9-3.3s1.2-2.5 1.5-3.5c.8-2.5 2.6-2.1 2.6.7m163.5-1.1c2.1 1.6.8 2.8-2.3 2.1q-2-.6-1.5-2c.6-1.7 1.4-1.8 3.8-.1m65.9 1.6c.5.8-4.1 2.4-5.9 2.2-1.4-.2-.3-1.7 1.7-2.3 3.4-.9 3.6-.9 4.2.1M245 372q-.1.9-1.1 1-.8-.1-.4-1 .6-1 1.1-1 .3 0 .4 1m48 .5q-.1 1.4-1.5 1.5c-1.6 0-2-1.2-.8-2.3 1.1-1.2 2.3-.8 2.3.8m-12.9 1.8c-1.3 1.3-2.6.3-1.6-1.2q.6-1 1.7-.5 1 .6-.1 1.7m65.4 1.8c-.8 1.2-3.5 1.2-3.5 0s2.2-2 3.3-1.4q.6.5.2 1.4M281 378q0 .9-1 1a1 1 0 0 1-1-1q.1-1 1-1t1 1m72.8 2.9c.3 1-.3 1.1-2.7.6a7 7 0 0 0-5.7 1q-4.3 2.8-2.8-.8c1-2.7 10.3-3.4 11.2-.8M177 383q0 .9-.4 1-.6-.1-1.1-1-.4-1 .4-1 1 0 1.1 1m109.3.6c.8.8-.3 3.4-1.4 3.4q-.8-.2-.9-2c0-1.9 1.1-2.6 2.3-1.4m-47.3 2q-.1.4-1.5.4c-1.4 0-1.5-.4-1.5-1q.1-.8 1.5-.4 1.4.6 1.5 1m4.6 2.1c-1.1 1.1-1.9-.6-1.1-2.4s.8-1.7 1.2 0c.3 1 .2 2.1-.1 2.4M301 385q0 .9-1 1a1 1 0 0 1-1-1q.1-1 1-1t1 1m-48 1q0 .9-1 1a1 1 0 0 1-1-1q.1-1 1-1t1 1m-71 .9c0 1.2-2 2.5-2.7 1.8s.6-2.7 1.8-2.7q.8 0 .9.9m74.8 4q.4 1.3-.9.9-1.2-.5-1.7-1.7-.4-1.3.9-.9 1.2.5 1.7 1.7m28.8 3.5q1.2 2.6.1 3.5-2.7 3-2.4-2.4.1-6.1 2.3-1.1m-100.6.7q0 .8-1 .9-.9-.1-1-1.6.1-1.3 1-.9 1 .6 1 1.6m48 .5q0 1.3-1 .9-.9-.6-1-1.6.1-.8 1-.9 1 .1 1 1.6m71 1.4q0 .9-1 1a1 1 0 0 1-1-1q.1-1 1-1t1 1m-34.5 1.8c0 1.8-2 1.5-2.3-.4q-.4-1.6 1-1.2 1.2.6 1.3 1.6m-82.5 1.3q0 .9-1 .4t-1-1.6q.1-.9 1-.4a2 2 0 0 1 1 1.6m64 1.6c0 2.4-2.5.9-2.8-1.7-.3-2.1-.2-2.2 1.2-1.1.9.7 1.6 2 1.6 2.8m-89-1.2q0 1.4-1 1.5-.8-.1-.4-1.5.7-1.4 1-1.5.3.1.4 1.5m120-.5q0 .9-1 1a1 1 0 0 1-1-1q.1-1 1-1t1 1m23.1 1.3c-1.3 1.3-2.6.3-1.6-1.2q.6-1 1.7-.5 1 .6-.1 1.7m-40.1.4c2.2 1.9 2.8 4.8.8 3.9l-3-1.2c-1.9-.7-2.5-4.4-.8-4.4.5 0 1.9.8 3 1.7m20.2.5q-1.1 1-1.2.2 0-1 .7-1.7t1.2-.2q.3.6-.7 1.7m-53.6 3.3c.3 1.4 1 2.5 1.5 2.5s.9.5.9 1.2q-.2.8-2.5-1.2c-2.5-2.4-3.3-5-1.5-5q.9.2 1.6 2.5m24.9-.2c0 2.6-2 2.5-2.3-.2q-.4-2.4 1-1.9 1.2.6 1.3 2.1m-164.8 3.9q-.5 1-.5-1.2c0-2.2.2-1.9.5-1.3.2.7.2 1.9 0 2.5m168.5-.7q-.1.9-1.1 1.3-1 .2-1.1-1.3c-.1-1.5.5-1.5 1.1-1.3q1 .4 1.1 1.3m-89.5 3.1c-.9.9-2.8-.6-2.1-1.8q.6-1 1.7.1 1 1 .4 1.7m78.3-1.2q0 .6-1 1.1-.9.4-1-.4.1-1 1-1.1 1 0 1 .4m34 1.7q0 .8-1 .9-.9-.1-1-1.6.1-1.3 1-.9 1 .6 1 1.6m-191 1.3c0 1.4-.4 2.8-1 3.1s-1-.7-1-2.4.5-3.1 1-3.1 1 1.1 1 2.4m145-.4q.1 1.8 1 2t1 1.5c0 2.4-1.4 1.7-2.7-1.2-1.6-3.3-1.6-4.3-.3-4.3q1 .2 1 2m14.5 0q.4.9-.4 1-1-.1-1.1-1 0-1 .4-1 .6 0 1.1 1m52.3 1.2q-.3 2.1-1.3 2.3c-.5 0-1.6.4-2.2.8q-1.2.7-1.3-.2 0-1 .9-1.1 1.3-.2 1.6-2c.9-2.7 2.7-2.5 2.3.2m-24.8 4.4q0 5.2 2.7 2.3 1.2-1.3.4 2.2c-.8 4.1-2.8 4.8-4.1 1.4-1.3-3.5-1.3-10.8 0-10 .6.3 1 2.2 1 4.1m-32.1 2.1c-.2 3.2-1.5 6.8-2.1 5.8-.8-1.4.2-7.5 1.3-7.5q.9.2.8 1.7m11.6-.7q.4.9-1 1c-1.4.1-1.3-.5-1-1q.6-1 1-1t1 1m-47.3 2.2q-1.1 1-1.2.2c0-1.4 1.2-2.6 1.9-1.9q.3.6-.7 1.7m91.2-1.4q.3.8-.4 2.2-.9 1.7-2.1.3-1-1.1-.5-2.2c.8-1.3 2.3-1.4 3-.3m-51.4 1.6c0 .8-.4 1.8-1 2.1q-.9.4-1-1.4.1-2 1-2.1 1 .1 1 1.4m-76 1q0 .6-1 1.1-.9.4-1-.4.1-1 1-1.1 1 0 1 .4m22 1.5q-.2.9-1.5 2.1-1.7 1.6-1.5-.2c0-.8.3-1.8.7-2.1.9-1 2.3-.9 2.3.2m56.5 2q.4.9-.5 1.6-.9.4-1-.9 0-2.7 1.5-.7m3.2 1.3q-.5 1.1-.6-.6t.5-1.3q.5.6.1 1.9m46.3-.2q0 1.8-1 2-.9-.2-1-2c-.1-1.8.5-2 1-2q1 .2 1 2m-27 .5q0 1.4-1 1.5-.9-.1-1-1.5c-.1-1.4.5-1.5 1-1.5q1 .2 1 1.5m23 2.5q0 .9-.4 1-.5-.1-1.1-1-.4-1 .4-1 1 0 1.1 1m-136.2 3.9q.4 2.4-1 1.9c-.7-.3-1.5-1.5-1.6-2.7q-.4-2.4 1-1.9c.7.3 1.5 1.5 1.6 2.7m114.9-.3c-.9.9-2.8-.6-2.1-1.8q.6-1 1.7.1 1 1 .4 1.7m-61.7-.9c0 1.4-1.9 3.8-2.5 3.2-.8-.8.5-3.9 1.6-3.9q.8 0 .9.7m37 .9q-.1 1.3-1 .9-1-.7-.5-1.6 1.4-2 1.5.7m48 5.2c0 2.7-.4 4.2-.9 3.6-1-1.1-2.2-8-1.4-8.8 1.3-1.3 2.3.8 2.3 5.2m-131-.2q-.1.5-1.5-.6c-1.4-1.1-1.5-.9-1.5-.4q-.1.6-1.1-.3-1-1-.4-2.3t2.6.9c1 1.1 1.9 2.3 1.9 2.7m48.3 1q-.6 1.5-1.5.6c-1.2-1.2-.1-3.5 1.2-2.7.5.3.6 1.3.3 2.1m38.4-2q-.6.5-1.9.1-1.1-.5.6-.6t1.3.5m14.3.4q-.1.9-1.5 1c-1.4.1-1.5-.5-1.5-1q.2-1 1.5-1c1.3 0 1.5.4 1.5 1m22.6 4.3c.1 1.8-.1 3.6-.4 4.2-.7 1-1.9-3.3-2.1-7.5q-.2-2.7 1.1-1.2c.7.7 1.3 2.7 1.4 4.5M187 440q0 .9-1 1a1 1 0 0 1-1-1q.1-1 1-1t1 1m75.3 2q1 4.2-3.1 1c-2.3-1.9-2.1-2.1 1.9-2.9q.7.1 1.2 1.9m16.7-1.6q0 .5-1 1.1-.9.4-1-.4.1-1 1-1.1 1 0 1 .4M170 443q-.1.9-1.1 1-.8-.1-.4-1 .6-1 1.1-1 .3 0 .4 1m16.3 1.4q.8 2.4-1.5 2.6-.7-.2-.8-2c0-2.3 1.5-2.7 2.3-.6m3.7 3.2q-.1 1.3-1.5 1.4c-1.5 0-2.1-2.1-.9-3.3 1-.9 2.4.2 2.4 1.9m40 .6c0 .7-.5 2-1 2.8q-1.1 1.9-1-1.3c0-1.5.5-2.7 1-2.7q1 .2 1 1.2m69 .5a7 7 0 0 1-.9 3.2q-.9 1.7-1.6-.8c-.7-2.2 0-4.1 1.6-4.1q.8.2.9 1.7m-123 3.9q0 1.3-1 .9-.9-.6-1-1.6.1-.8 1-.9 1 .1 1 1.6m16.5 1.4q-.8 1.2-1.7.2-.9-1.1-.3-2.2.8-1.1 1.7-.2.9 1.1.3 2.2m98.1 1.7c-1 1-1.9-.5-1-1.8q.8-1.7 1.2 0 .3 1.2-.2 1.8m149.3 8.2q1.7.9 2.3.6c.2-.2 2-.5 3.9-.6 1.8-.2 4-.7 4.6-1.2 1.4-1 7.3.9 7.3 2.4 0 .4 2 2.9 4.5 5.5 2.5 2.5 4.5 5.2 4.5 6 0 2.3-5.7-1.4-7-4.6a14 14 0 0 0-5.6-4.9l-4.6-2.5-4.3 2.4c-3.8 2.1-4.7 2.2-7.1 1.1-2.2-1-3-1-4.1.2-1.2 1.2-1.2 1.8-.2 3.4q1.2 2 .4 4.9c-.5 1.6-1 3.6-1 4.4l-.5 2.5c-.3 1.2-2.8-21.6-2.9-26.8l-.1-3.9 4 5.1a30 30 0 0 0 5.9 6m-218.7-6.7q-1.1 1-1.2.2c0-1.4 1.2-2.6 1.9-1.9q.3.6-.7 1.7m75.4-.1c.7 1.3-3.5 10.9-4.8 10.9q-.8-.2-.3-1.9c.3-1.1 0-2.9-.7-4-1-1.7-1-2.3.1-3.3q1.4-1.7.9.8-.1 1.9.7 2.2c.6.1.9-1.2.7-2.8q-.4-3 1.2-3a3 3 0 0 1 2.2 1.1m-70.6 1.7q-.2.7-2.5 1.8c-2.3 1.1-2.4 1.1-.8-1.2 1.3-2.1 3.3-2.5 3.3-.6m94 .3q0 1.8-1 1.4c-.5-.3-1-1.3-1-2.1s.5-1.4 1-1.4q1 .1 1 2.1m-123.5 1.7c0 1.8-2 1.5-2.3-.4q-.4-1.6 1-1.2 1.2.6 1.3 1.6M177 462q0 .9-.9 1-1-.1-1.6-1-.4-1 .9-1 1.5 0 1.6 1m50.9.4c.9 1.1.8 1.8-.4 3-2 2-4.5 2.1-4.5.2 0-1.2 2.5-4.6 3.4-4.6q.5.1 1.5 1.4m18.1.1q0 1.4-1 1.5-.9-.1-1-1.5c-.1-1.4.5-1.5 1-1.5q1 .1 1 1.5m-92.2 1.3q.2 1.1-1.2 1.2-1.5-.1-1.6-1.6c0-1.7 2.2-1.4 2.8.4m128.2.7.1 2.2q0 .7-1 1.1-1 .1-1.1-2.2c-.1-2.3.5-2.6 1-2.6q1 .1 1 1.5m-86 1.1q0 1.3-1 .9-.9-.6-1-1.6.1-.8 1-.9 1 .1 1 1.6m60-.2c0 .8-.4 1.8-1 2.1q-.9.3-1-1.4.1-2 1-2.1 1 .1 1 1.4m-70 .6q0 .9-1 1a1 1 0 0 1-1-1q.1-1 1-1t1 1m75.7 3.2q-.5 1-.5-1.2c0-2.2.2-1.9.5-1.3.2.7.2 1.9 0 2.5m17.3 1.4c0 3.7-1.5 4.6-2.5 1.4-.8-2.5.3-6.2 1.6-5.5.5.4.9 2.2.9 4.1m-43.4 2.3c.2 5.2 1.4 8.7 1.4 3.8 0-1.4.3-3.2.6-4.1.5-1.4.9-1.4 2.7-.1 2.6 1.8 2.9 8 .5 10.2-1 .9-1.8 2.2-1.8 3q0 1.2-1 1.3-.9-.1-1-1.6 0-1.6-1.5-1-1.4.5-1.5-1c-.1-1.5-.6-1.4-1.5-1q-1.4.4-1.5-.3.1-.9.8-1.3c.5-.2 1.2-1.6 1.6-3.1.5-2.3.4-2.8-1.1-2.5-2.5.4-3-4.4-.7-6.6q3.9-4 4 4.3m-7 2.7c-1.1 3-2.4 1.2-2.1-2.9.5-5.7.5-5.7 1.7-1.8.5 1.8.7 4 .4 4.7m37.3-4.4-.9 3.8c-.7 2.2-.8 2.1-.9-1.3-.1-2 .4-3.7.9-3.7q1 .2.9 1.2m22.5 1.4q-1.7 2.6-2.7 1.5-1.2-1 .9-2.6 4.4-3.3 1.8 1.1m-130.3.6q3.3 3.8.6 3.8c-1.9 0-3.7-2.1-3.7-4.2q-.1-3.6 3.1.4m42.6 0q-.5 1.1-.6-.6t.5-1.3q.5.7.1 1.9m53.3 2.4q0 3.3-1 2.9c-1.7-1-1.1-6.5.7-6.5.2 0 .3 1.6.3 3.6m21 .9q-.1.7-1-.5-1.2-1.8-1-2.5.1-.8 1 .5 1.2 1.8 1 2.5m19 1.4q0 1-1 1.6-.9.4-1-.9.1-1.5 1-1.6 1 0 1 .9m-45.8 7.1-2.2 2.1v-2.9q0-5.5 2.9-2.7c1.3 1.3 1.3 1.7-.7 3.5m205.2 3.7c-.6 5.4-.5 6.5.7 6.1.9-.3 1.7-2.7 2.1-6.3q1.2-9.6 3.9-6.8c.8.8.8 2.6-.1 6.7-.9 4.6-1.7 5.9-4 7.1-6.4 3.3-10-2.8-6.6-11q1.5-3.6 3.1-2.9c1.3.5 1.4 1.7.9 7.1m-177.2 6c-.3 4.6-.8 6.3-1.8 6.3-1.7 0-2-8.5-.3-9.6.6-.4.8-2 .4-4-.3-1.9-.2-4 .2-4.7 1.1-1.8 1.9 4.6 1.5 12m11.3-8.7q-.8 1.2-1.7.2-.9-1.1-.3-2.2.8-1.2 1.7-.2.9 1.1.3 2.2m16.5-.5c0 1.4-.4 2.5-.9 2.5-1.2 0-1.9-2.1-1.3-3.8.8-2.1 2.2-1.3 2.2 1.3m142.3 2.3c-.3 2-1.2 4.9-1.9 6.4-.8 1.5-1.1 3.4-.8 4.2q.8 1.7-2.1 1.6c-2.7 0-2.8-.1-1-2 2.2-2.4 1.3-5.9-1-4-.8.7-1.5 2.1-1.5 3.2s-1.1 3.3-2.5 5l-2.5 3v-6.1c0-5.4.2-6.1 2-6.1 2.5 0 2.7-3 .3-3.1q-2.1 0 .4-.9a7 7 0 0 0 3.3-3q1.1-2.1 3-1.5c1 .3 2.1.1 2.5-.5 1.3-2.1 2.4.1 1.8 3.8m-253.9-3.2c1.5.6 2.3 3.4 1 3.4s-4.4-2.1-4.4-3q0-1.7 3.4-.4m273 .9q.4 1.4-.9 1.5-1.4-.1-1.5-1.5c-.1-1.4.4-1.5.9-1.5s1.1.7 1.5 1.5m-357.8 6.2c2 4.5 1.8 6.3-.7 6.3-1.1 0-3.5 1.1-5.3 2.5a12 12 0 0 1-6 2.5c-5.1 0-12.9 4.6-16.9 9.9-2 2.8-3.7 5.5-3.7 6.1q0 .9-1 1c-1.4 0 0-6.1 2.2-9.2a42 42 0 0 1 6-6.3c3.2-2.7 3.9-3.8 3-4.7-1.7-1.7-8 2-11 6.4-2.7 3.8-4.6 4.9-3.4 2 .9-2.4 4.8-7.8 8.5-11.5 6.2-6.5 1-6.4-5.6 0-4.2 4.1-4.7 4.4-3.3 1.8 2.2-4.1 5.6-8 8.5-9.5 1.3-.7 7.4-1.8 13.5-2.4 12.3-1.4 12.4-1.4 15.2 5.1m135.4-3.2c0 3.4-1.2 4.6-2.5 2.4-.9-1.4.3-5.9 1.5-5.9.6 0 1 1.6 1 3.5m7.8.7c-.4 4.1-2.8 5-2.8 1 0-1.6.3-3.2.7-3.5q2.4-2.2 2.1 2.5m4.2-1.7q0 1.4-.9 1.5c-1.3 0-2.2-1.6-1.4-2.4 1.1-1.1 2.3-.6 2.3.9M152 491q0 .9-1 1a1 1 0 0 1-1-1q.1-1 1-1t1 1m103.8 3.6q-.4 2.9-2.1 3.2c-1.7.3-1.8-.1-1.2-3 .4-1.8 1-3.7 1.2-4.1 1-1.7 2.5 1.1 2.1 3.9m4.2-2.5q0 .8-1 .9-.9-.1-1-1.6.1-1.3 1-.9 1 .6 1 1.6m26.3.1q.9 3.6-1.3 3.8c-1.2 0-2.3-3.7-1.5-5q1.7-2.3 2.8 1.2M297 491q-.1.9-1.1 1-.8-.1-.4-1 .6-1 1.1-1 .4 0 .4 1m-124.3 1.7c.7 1.9-2.3 2.2-3.4.4-.9-1.5-.7-1.7 1-1.6 1.1.1 2.2.6 2.4 1.2m36.3.3q0 .9-1 1a1 1 0 0 1-1-1q.1-1 1-1t1 1m55 .6q-.1 1.3-1 .9-1-.7-.5-1.6 1.4-2 1.5.7m17.4.6c.8 3.3.8 3.8-.7 3.8-1.6 0-4-3.8-3.2-5 1.1-1.8 3.3-1 3.9 1.2m184.5 1.4c1.1 3 1.1 3.8 0 5-2.4 2.4-4.1.2-3.3-4.4.4-2.3 1-4.2 1.3-4.2s1.3 1.6 2 3.6M176 493.9q0 1-1 1.6-.9.4-1-.9.1-1.5 1-1.6 1 0 1 .9m71.4 1.2q-.6.8-1.5.3t-.3-1.5q.6-.8 1.5-.3t.3 1.5m12.6 1.6q0 2.8-1 1.7c-.6-.6-.8-1.8-.4-2.7q1.4-3.6 1.4 1m9.8-1.5c-.6 1.8-2.8 2.1-2.8.4q.1-1.5 1.6-1.6 1.4 0 1.2 1.2m-5.4 5.3c-.6 1.4-3.4 2.9-4.1 2.1q-.3-.5 1.3-2.5c1.9-2.1 3.7-1.9 2.8.4m5.6-.1a3 3 0 0 1-.9 2.1c-1.2.7-2.4-1.2-1.6-2.5.9-1.5 2.5-1.2 2.5.4m-151.5.5q.3.9-1.6 1.3c-2.7.4-5 3.8-3.1 4.5q1.5.5-.4 1.7c-.9.7-1.4 1.8-1 2.4q.5 1.1 7.2-1.4c6.9-2.6 8.4-2.5 8.4.7 0 1.6-.7 1.9-4.2 1.9-4.3 0-7.8 2.1-7.8 4.7 0 1.5.9 1.4 7.6-.9 3.3-1.2 6.4-.6 6.4 1.1 0 .6-1.8 1.5-4.1 2.1-5.2 1.4-4.6 3.5 1.2 3.6 6.5.1 6.7.2 3.4 2.9-2.5 2-2.8 2.6-1.5 3.4a4 4 0 0 1 1.5 2.8c0 1.5.7 1.7 4.3 1.5q6.9-.5 2.2 2.6-2 1.2-2 4.6c0 3 1.2 4.5 10.3 13.1a131 131 0 0 1 11.4 11.9c2 3.5 1.6 8.3-.9 10.1-2 1.3-2.1 1.8-1 3.6q2.9 4.5-3.5 1.6c-2.1-.9-7.1-2.6-11.1-3.8s-7.5-2.6-7.8-3.1c-.6-1-3.4.9-3.4 2.3q.2 1 2.3 1.9l3.7 1.9c2.2 1.3 16.3 5.6 17.8 5.5 1.6-.2 1.5.8-.5 5.1-1.6 3.3-3.3 4.6-3.3 2.5q0-1-1-1c-1.3 0-4.2 5.8-3.5 7q1.5 2.4 3.3-1.3l1.1-2.2v2.5c.1 4.3-1.1 5.2-4.7 3.5a54 54 0 0 0-19.7-1.4c-3.4 1-15.5-9.1-15.5-12.9 0-1.1-.6-2.2-1.4-2.5s-2.5-2.4-3.8-4.6q-4.6-7.9-4.2-.1c.6 8.4 1.9 10.3 13 19.1l7.9 6.3 10.2-.3c5.6-.1 11 .2 12 .8 1 .5 2.6 1.2 3.6 1.5s1.7 1.3 1.7 2.2 1.2 4.3 2.6 7.5 2.4 6.2 2.1 6.5c-.3.4-2.7-.6-5.2-2-4-2.4-4.4-2.9-3.4-4.7 1.2-2.4.8-7.4-.6-7.3-.5 0-1.2 1.3-1.5 3-.6 3.4-2.5 3-2.6-.6-.2-5.3-.4-5.6-1.9-3.6a8 8 0 0 0-1.5 3.9q0 1.7-1.2 1.4c-.7-.2-1.3-1.7-1.3-3.2-.1-1.6-.6-3-1.2-3.2-1.3-.5-2.7 3.2-1.8 4.6q.4 1-1.1 1.9c-4 2.2-19.7-8.6-30.5-21A73 73 0 0 1 77.6 545l-.6-6.5 3.8-2.8c2-1.6 4.6-3.4 5.7-4.2q2.2-1.4.9-2.5c-.9-.8-2.1-.7-4.9.4l-4.2 1.6c-.2 0 1-1.8 2.8-4 2.4-2.9 4.2-4.1 7.3-4.8 5-.9 5-2.5-.1-3.2-4.4-.6-3.1-2 2.7-3 4.3-.7 4.8-3.3.8-3.8-1.6-.2-2.8-.8-2.8-1.3 0-1.6 2.9-2.2 4.5-.9 1.8 1.5 6.5-.1 6.5-2.3 0-1.7 5-4.6 10.8-6.2 6.1-1.6 7-1.7 7.7-.6m336.7.8c1 .9 1.8 2.3 1.8 3.1 0 1.3-.3 1.3-1.8-.1-1-1-3.1-1.7-4.5-1.7q-4-.1-2-2.3c1.2-1.2 4.6-.7 6.5 1M217 505.5q0 1.4-1 1.5-.9-.1-1-1.5c-.1-1.4.5-1.5 1-1.5q1 .1 1 1.5m225.6-.1q1.9 1.5.9 2.4c-1.4 1.4-5.5-.4-5.5-2.3s2-1.9 4.6-.1m29.3 3.1q1.4 1.3.6 4.4-1.2 5.5-4 3.1-1.4-1-2.5-.5-.9.5-1-.4c0-.5.5-1.3 1-1.6 1.5-1 0-2.7-1.7-2.1-.9.4-2.2.1-3-.5-1.1-1-1.1-1.5.3-3 1.8-2 7.9-1.6 10.3.6M165 509.9c0 2.2-1.6 3.6-2.4 2.2-.8-1.2.3-4.1 1.5-4.1q.8.2.9 1.9m50.7 2.7c-.9.9-2.8-.6-2.1-1.8q.6-1 1.7.1 1 1 .4 1.7M227 511q0 .9-1 1a1 1 0 0 1-1-1q.1-1 1-1t1 1m220 2c0 1.2-2.8 2.5-3.6 1.7s.6-2.7 2.2-2.7q1.3.1 1.4 1m-227.2 1.1q-.4 1-1.3 1-1.2 0-1.3-1t1.3-1.1c1.5-.1 1.5.5 1.3 1.1m-56.8 2.3a3 3 0 0 1-.9 2.1c-1.2.7-2.4-1.2-1.6-2.5.9-1.5 2.5-1.2 2.5.4m288 1.6c0 1.2-4.2 5.1-4.8 4.5s3.7-5.5 4.5-5.5q.3 0 .3 1m-286 5.1q0 .8-1 .9-.9-.1-1-1.6.1-1.3 1-.9 1 .6 1 1.6m301.4 1.3q3.6.8 2.9 1.7-1 .8-4.3-.3l-4.7-1.4q-1.2-.4-1.3-1.4 0-1 1.8-.2c.9.5 3.4 1.3 5.6 1.6m-149.4.7q0 1.8-1 1.4c-.5-.3-1-1.3-1-2.1s.5-1.4 1-1.4q1 .1 1 2.1m-122 1.7q-.1.8-1 2.2c-.9 1.3-1.1 1.3-1.9 0q-1-1.4.1-2.7c1-1.2 2.8-.9 2.8.5m27 .6q0 .5-1 1.1-.9.4-1-.4.1-1 1-1.1 1 0 1 .4m66 0q-.1.4-1.6 1-1.3.5-.9-.4c.6-1 2.5-1.4 2.5-.6m-4.8 3.8q-1.1 1-1.2.2 0-1 .7-1.7t1.2-.2q.3.6-.7 1.7m33.5 0q-.5 1.1-.6-.6t.5-1.3c.3.3.4 1.2.1 1.9m134.3.6c0 1.4-2.3 3.2-4.2 3.2q-1.6 0-1.8-.4l-.6-2c-.5-1.3.1-1.6 3-1.6 2 0 3.6.4 3.6.8m11.5.8c1.4.9 2.5 2.6 2.4 3.8q.2 3-1-.2c-.7-1.8-1.4-2.2-3-1.7-2.2.7-4.3-1.1-3.3-2.7q1-1.9 4.9.8m-228.5 3c0 1.6-1.6 1.9-2.5.4-.8-1.3.4-3.2 1.6-2.5q.8.7.9 2.1m21.7 1c-.9.9-2.8-.6-2.1-1.8q.6-1 1.7.1 1 1 .4 1.7M200 536q0 .9-1 1a1 1 0 0 1-1-1q.1-1 1-1t1 1m69 .9q0 1-1 1.6-.9.4-1-.9.1-1.5 1-1.6 1 0 1 .9m-52 2.7q0 1.3-1 .9-.9-.6-1-1.6.1-.8 1-.9 1 .1 1 1.6m-15.8 2.6q-1.3 1.5-1.2-1.2c.1-2.7.3-2.1 1.2-1.2q1.3 1.2 0 2.4m251.6-1.5q-.4 1.6-1.8 1.8c-1.4.2-1.6-.8-1.8-1.8q-.4-1.7 1.8-1.7c2.2 0 2 .5 1.8 1.7m-220.8.2q0 1-1 1.6-.9.4-1-.9.1-1.5 1-1.6 1 0 1 .9m24.7 2.5q-.7 1.5-1.7 1.6c-1.1 0-1.4-3.3-.3-4.4 1.1-1 2.6 1.1 2 2.8m187.1-2.2c-.6 1.8-2.8 2.1-2.8.4q.1-1.5 1.6-1.6 1.4 0 1.2 1.2m-124.7 1.3c-.1 1.5-2.4 1.2-2.9-.3q-.4-1.4 1.2-1t1.7 1.3m-82.6.4c.7 1.2-1.2 2.4-2.5 1.6-1.1-.7-.4-2.5 1-2.5q.8 0 1.5.9M253 545q0 .9-1 1a1 1 0 0 1-1-1q.1-1 1-1t1 1m16 0q0 .9-.4 1-.5-.1-1.1-1-.4-1 .4-1 1 0 1.1 1m188 2.5c-.7.8-1.8 1.5-2.4 1.5q-1.2 0 0-.8c.6-.4 1.4-1.6 1.8-2.7q.9-2 1.3-.7c.3.7-.1 1.9-.7 2.7M199 546q0 .9-.4 1-.6-.1-1.1-1-.4-1 .4-1 1 0 1.1 1m3.7 1.2q-.5 1.1-.6-.6t.5-1.3c.3.3.4 1.2.1 1.9m245.8.6c0 1.8-2 1.5-2.3-.4q-.4-1.6 1-1.2 1.2.6 1.3 1.6M234 548q0 .9-1 1a1 1 0 0 1-1-1q.1-1 1-1t1 1m200.5 5q1 7.2-1.6 7c-.5 0-.9-2.7-.9-6 0-7.3 1.5-7.9 2.5-1m-210.7 1.8q.3 1.1-1.2.6c-.9-.3-1.6-1.1-1.6-1.6 0-1.3 2.3-.5 2.8 1m93.9 2.9q-.5 1.3-.5-1.7c0-3 .2-2.7.5-1.8s.2 2.6 0 3.5m136.3 1.1c0 1.3-1.2 2.2-2.2 1.6s-.1-2.4 1.3-2.4q.8.1.9.8M206 560q0 .9-1 1a1 1 0 0 1-1-1q.1-1 1-1t1 1m21.6 5.6c.1 1 .8 3.5 1.7 5.4 1.5 3.5 2.6 12.5 1.5 13.5-.4.5-1.6-3-2.3-7l-1.2-3.5c-.6-1.4-1.4-4.5-1.8-6.9-.6-3.4-.4-4.2.6-3.9q1.3.6 1.5 2.4m206 7.5q-1.3 3-1.5 1.7c-.1-2.3 2-7.5 2.6-6.2.2.7-.3 2.7-1.1 4.5m-115-.4c-1 1-1.9-.5-1-1.8q.8-1.7 1.2 0 .3 1.2-.2 1.8m-158.9 7.5q-.5 1-.5-1.2c0-2.2.2-1.9.5-1.3.2.7.2 1.9 0 2.5m159.2.5q.1 3.6-.9.8c-1.2-2.7-1.2-3.5 0-3.5.6 0 1 1.2.9 2.7M485 579q-.1.9-1.5 1c-1.4.1-1.5-.5-1.5-1q.1-1 1.5-1c1.4 0 1.5.4 1.5 1m-278 4q0 .9-1 1a1 1 0 0 1-1-1q.1-1 1-1t1 1m112.1 6.5c-.9 3-.9 3-1-1q-.1-3.9.9-2.9t.1 3.9m-161.5 6.1c-3.4 13.4-5.6 17-5.6 9 0-2.8 1.1-6.9 3.2-11.3 3.5-7.7 4.7-6.6 2.4 2.3m184.9-4.7c.3.5 1.9 1.2 3.5 1.6s2.8 1.1 2.4 1.6c-1 1.7-4.9.9-7.9-1.6-2.8-2.3-2.8-2.5-.8-2.5q2 0 2.8.9m91.5 2.6c-.7.8-1.8 1.5-2.4 1.4q-1 0 .2-.6c.6-.2 1.2-1.4 1.2-2.6q0-2.3 1.2-.9 1.3 1-.2 2.7m43.3-.4c-1.3 1.3-5.9.8-5.6-.6q.3-1 2.5-1.6c2.8-.7 4.7.6 3.1 2.2M197 594q0 .9-1 1a1 1 0 0 1-1-1q.1-1 1-1t1 1m122 6.7q0 5.1-1 3.3c-1.6-2.5-1.1-8 .7-8 .2 0 .3 2.1.3 4.7m116.9-1.6c-1.9 1.2-2.4.2-.8-1.7q1.3-1.7 1.7-.4t-.9 2.1m-221.5 1.1c.9 1.2 1.4 2.4 1.2 2.6-.7.7-4.6-2.3-4.6-3.5 0-2 1.7-1.5 3.4.9m113.1 4.5a80 80 0 0 0-1.8 21.1c.3 2.3.2 7.3-.3 11l-.8 6.7-.7-5c-.4-2.8-.8-10.9-.8-18-.3-19.9-.5-18.5 2.5-18.5 2.4 0 2.6.3 1.9 2.7m111.4 3.7q2.3 4.8 2.4 9.5c0 2.5.4 5.1.9 5.8 1.2 1.5.1 8.5-1.7 11-1.3 1.6-1.5 1.7-2.7.2s-1.7-1.5-4.6-.2c-2.6 1-3.2 1.8-2.7 3.1 1.6 3.9 2.5 9.3 3 19.2.6 10.3.5 10.7-3 19.2-4.3 10.7-4.9 19-1.4 20.9 1.9 1 2.1 1.7 1.5 5.9a30 30 0 0 0 1.4 12.6c2.4 9.3 2.5 11.6.5 15.4-1.9 3.6-3 3.7-6.1.7-1.9-1.8-2.4-3.2-2.4-7.7 0-3 .7-8.4 1.4-12 1.5-7.1 1.4-8-1.2-6.4-2.9 1.9-4.4 9.2-4.6 23.1-.1 7.2-.4 13.5-.8 13.8-2.9 2.9-7.6-5.7-6.1-11.2.4-1.5.6-3.6.4-4.6s.2-2.4.7-3a96 96 0 0 0 5.7-23.2 99 99 0 0 1 5.9-23.4c.6-.8 1.2-3.7 1.2-6.5l.9-14.8c.5-6.7.4-10.6-.4-13a79 79 0 0 1-2.1-24.4c.5-1.3.5-3.6 0-5.5-.8-2.6-.6-3.7.7-5.1q1.5-1.6 2.5-1.8c1.2 0 1 12.4-.3 13.7-1.5 1.5-1.4 9 .1 10.9q3 3.2 3-6.2c0-2.7.4-5.4.9-6s.6-3.6.2-7.4c-.8-6.7-.2-8.3 2.9-7.7.8.1 2.6 2.4 3.9 5.1M479 605c0 .5-1.2 1-2.7.9q-3.6.1-.8-.9c2.7-1.2 3.5-1.2 3.5 0m9 0q1.8 1-1.8 1-3.2 0-2.7-1c.8-1.3 2.6-1.3 4.5 0m-275.2 5.9q.4 2.4-1 1.9c-.7-.3-1.5-1.5-1.6-2.7q-.4-2.4 1-1.9c.7.3 1.5 1.5 1.6 2.7m7-1.1q.2 1.1-1.2 1.2-1.5-.1-1.6-1.6c0-1.7 2.2-1.4 2.8.4m271.2.3c0 1.5-4.7 3.2-6.7 2.5-1.7-.7-1.7-.8 0-2 2-1.5 6.7-1.8 6.7-.5m-274 6.2c0 .7-.9 2-2 3-1.8 1.5-2.1 1.6-2.7.2-.3-.9.2-2.2 1.3-3q3.5-2.7 3.4-.2m-8 3.3q0 1.3-1 1.4-.9-.1-1-2.1.1-1.7 1-1.4c.6.3 1 1.3 1 2.1m-68.3 3.7c1.7 1.5 2 2.3 1.2 3.4-1.7 2-2.7 1.6-4.4-1.7q-4.1-8.2 3.2-1.7m179.5 1.2q-.4 2.3-.8 2.5c-.4.2-.4-1.1-.4-2.5s.4-2.5.9-2.5.6 1.1.3 2.5m-169.9 4.9c-.1.5-1.6 1.4-3.4 2-3.8 1.3-5.1 3.6-1.9 3.6 2.6 0 6.1-1.8 7.7-3.9 1.6-2.2 2.2-1.2 2.5 4.4q.3 4.8-1 5.3-1.7.6-.3-1.6c2-3.8-.9-3.6-4.8.3q-3.6 3.7-2.3 4.2c1.5.6 1.6 2.9.1 3.9s-2.9-1.4-2.9-4.8a24 24 0 0 0-2-7.2l-1.9-4.6 3.2-1.4c3.5-1.6 7.3-1.7 7-.2m169.4 1.8q-.5 1-.5-1.2c0-2.2.2-1.9.5-1.3.2.7.2 1.9 0 2.5M51 632c1 .5 3.2 3.9 4.9 7.5 2.6 5.4 3.5 6.5 5.6 6.5a4 4 0 0 0 3.5-2.1 3 3 0 0 1 3.3-1.7c2.4.3 3.2 2.5 1.7 4.8q-.9 1.8-2.2.2-2.8-2.8-2.8 1.3 0 2.3-1 2.5-.9-.1-1-1.4c0-2.6-2.1-2.9-4.4-.7-1.2 1.2-2.8 2.1-3.5 2.1-2.6 0-7.1 3.2-7.7 5.4-1 3.9-7.2 3.9-11.6 0-2.4-2.2-1.1-4.4 2.6-4.4 2.3 0 3.8-.8 5.8-3.4 2.7-3.3 2.7-3.6 1.3-7-1.6-3.7-4.1-5.7-6.3-4.9-.7.3-2.5.2-3.9-.2q-2.9-.6-1.4-1.8C37 631.6 47.2 630 51 632m41.4 3.9c.3.4-.5 2.8-1.7 5.2q-2.1 4.4-4.9 5c-2.3.6-2.8.4-2.8-1.1 0-2.6 2.8-8.7 4.2-9.3 2.1-.9 4.6-.8 5.2.2m348.3 3.2q1 1 .2 4.2a30 30 0 0 0-.9 6.7c0 7.1-1.7 6.2-2.4-1.3q-1.2-14 3.1-9.6m-17.7 5.1c1.9 7.7-.3 30.5-3.2 33.3q-1 1-.4-1.8c.4-1.5.7-10.4.7-19.7 0-9.4.4-17 .9-17s1.4 2.3 2 5.2m-265 .8c0 1.3-4.8 3.6-5.6 2.7q-.5-.7.6-2.2c1.4-1.7 5-2 5-.5m-44.6 2.3c1.6 1.1 1.7 1.7.6 3.6-1.1 2.2-1.2 2.2-3.1.5-3.9-3.5-1.6-7.1 2.5-4.1m-10.1 5.8c-1.3 1.3-5.9.8-5.6-.6.1-.6 1.2-1.3 2.5-1.6 2.8-.7 4.7.6 3.1 2.2m363.7-.5c0 2.5-5.3 10.3-7 10.3-4.9 0-6.9-7.4-2.8-10.3 3.1-2.2 9.8-2.1 9.8 0m-396.6 3.7c.9 1.5.7 2.1-.9 3.3a6 6 0 0 1-3.5 1.2c-1.9-.4-2.5-3.5-.9-5.4 1.5-1.9 3.8-1.5 5.3.9m21.6-1.7c0 1.7-4.5 8.4-5.6 8.4-2 0-2.5-1.7-.9-3 .8-.7 1.5-1.8 1.5-2.4a4 4 0 0 1 1.2-2.4c1.3-1.3 3.8-1.6 3.8-.6M55.3 658q-.5 1.8-1.4 2c-1 0-1.2-3.3-.3-4.3 1.2-1.2 2.2.3 1.7 2.3m63.1-.2c.8 1.4-2.8 5-6.8 6.6-2.2.9-4.1 1.4-4.3 1.2-.8-.8 1.8-4.6 3.1-4.6.8 0 2.4-.9 3.7-2 2.6-2.1 3.5-2.4 4.3-1.2m9.6.7q-.1 1.3-1.6 1.5-2 .2-.4-1.5 1.2-1.3 1.6-1.5.3.2.4 1.5m-24.5.5q.4.9-.9 1-1.5-.1-1.6-1 0-1 .9-1t1.6 1m32.9-.4q1.5.6 1.6 1.5c0 1.4-2.6 1-4-.6q-1.8-2.5 2.4-.9m346.4 5.1c-.2 3.1-.7 3.9-2.7 4.1-2.1.3-2.3.1-1.7-2l1.1-3.8.4-1.8q.3-.2 1.7-.2c1.2 0 1.4.9 1.2 3.7m8.8 0q-.7 2-1.6.4c-1.1-1.9-.1-4.6 1.3-3.2.5.5.7 1.8.3 2.8m-465.1.3c1.4 2.7 1.4 3.1 0 3.6-2.9 1.1-6-3.7-3.8-5.9q1.7-2 3.8 2.3m9-1.7c1.7 1.3 1.7 1.4-.3 1.9q-2 .6-2.5-1.3-1-3.3 2.8-.6M96 662q0 .9-.9 1-1-.1-1.6-1-.4-1 .9-1 1.5 0 1.6 1m6 .6q-.1 1.3-1 .9-1-.7-.5-1.6 1.4-2 1.5.7m-28.4 1.9q.4 3-1.2 1.4c-1.7-1.4-1.8-3.9-.1-3.9.6 0 1.3 1.1 1.3 2.5m-28.6 2q0 1.3-1 1.5-.9-.2-1-1.5c-.1-1.3.5-1.5 1-1.5q1 .2 1 1.5m73.7 2.5c-.3 2.2-.1 4.3.4 4.6 1.2.7 1.2 3.4-.1 3.4-.5 0-1.2-1.6-1.6-3.5q-1.1-6-3.7-3.6c-1.5 1.5-2.7 1.4-2.7-.3 0-1.1 5.5-4.2 7.9-4.5.2-.1.1 1.7-.2 3.9m-32.3-2c1.4.5 2.6 1.6 2.6 2.4 0 2.9-2.3 2.8-5.3-.3q-5-5 2.7-2.1m17.9 2.8q3.2 5.3-1.7 5.2c-1.3 0-3.5.9-4.9 2-3.4 2.7-4.1 2.5-3.3-1.1.3-1.9.1-3.8-.5-4.6-1.4-1.6-1.5-1.4 3.1-3.6 4.3-2 5-1.8 7.3 2.1m359.1 2.1c.9 1.2.7 1.3-1.4.8-1.4-.4-3.3-.7-4.2-.7q-1.6-.1-1.8-1 .1-1 1.4-1c.7 0 2-.7 2.7-1.7 1.3-1.5 1.4-1.5 1.8.3.2 1 .8 2.5 1.5 3.3m-327.7-1.3c-.9.9-2.8-.6-2.1-1.8q.6-1 1.7.1 1 1 .4 1.7m-97 0c.3.8.1 2-.4 2.5-1.2 1.2-4.8-1.4-3.9-2.9 1-1.7 3.6-1.5 4.3.4m22.2-.1c4.8 2.4 6.5 10.9 3.1 15.1-1.6 1.8-3.4 1.8-2.6-.1.9-2.4-4.8-1.2-9.4 2-3.3 2.3-4.2 2.5-5.5 1.5-.8-.7-1.5-2-1.5-3s-.6-2-1.4-2.3c-2.1-.8-3.2-6.7-1.5-7.8q1.2-.8.6-.9c-1.5 0 1.5-4.1 3.6-5a24 24 0 0 1 14.6.5m377.3.7q-1.1 1-1.2.2c0-1.4 1.2-2.6 1.9-1.9q.3.6-.7 1.7m10.9-1.1c2.3 1.2 1.6 2.9-1.1 2.9-2.1 0-3.4-1.5-2.5-3 .8-1.3 1.2-1.2 3.6.1M74 671.5c0 2-3.7 3.9-4.3 2.2-.7-2 .4-3.7 2.4-3.7 1 0 1.9.7 1.9 1.5m53.4-.6q.3.9-1.9 1.3c-2.8.6-3.5-.8-.7-1.5l1.9-.6q.2 0 .7.8m356.2 2.2c.3.6-.6 2.3-2 3.8-2.9 3-3.4 6.2-1.1 8.1s1.9 3.3-1.8 6.8c-3.2 3.1-3.6 3.2-9 2.6-3.1-.4-5.7-.9-5.7-1.1s.9-1.6 2-3q3.1-4.2-.6-4.3-1.3-.1-.9-1c.7-1.2 5.7-.2 6.7 1.4q.7 1.1 1.9-.1c1-1 1-2.1 0-5.3-1.9-6.3-.2-8.1 8.1-8.9.9 0 2 .4 2.4 1m8.2 4.9c-.1 6.2-.6 7.1-2.9 4.4-1-1.2-1-2-.1-3.5a9 9 0 0 0 1.2-4.4c0-1.4.4-2.5.9-2.5s.9 2.7.9 6m-462.4-3.9c5.5 2.6 10.8 15.3 6.9 16.6q-1.2.3-1.3-1.4c-.1-2.8-2.6-6.8-3.4-5.4-1 1.6-2.6 1.4-2.6-.4q.2-1.5 1.5-2.2c1.4-.5 1.4-.8-.1-2.4-.9-1.1-2.5-1.9-3.6-1.9s-1.8-.7-1.8-2c0-2.3.9-2.5 4.4-.9m107.3 1.2c1.8 1.3.6 2.7-2.1 2.7-2.2 0-4.2-3.1-2.9-4.4.6-.6 3.3.3 5 1.7M8 678c0 2.4-2.6 3.8-4.2 2.2S3.6 676 6 676q2 0 2 2m79.3 1.8c3.4 3.2 3.4 4.5.1 7.1-2.8 2.2-4.9 2.8-3.9 1 .4-.5.1-2.4-.5-4q-1.3-3.2-2.4-1.9-1.2 1.1.4 2.3c1.1.9 1.5 3.1 1.5 7.9 0 7.4-1.1 9-8.9 12.2-4.4 1.8-5.6 2-5.6.6 0-.5 1.8-1.4 4.1-2 7.2-2 10.7-8.3 5.7-10.5-2.1-.9-3.9-4.7-2.1-4.4q3.2.5 3.3-1.6-.1-1.3-1.4-1.5c-3.3 0-2.7-6.2.7-7.7 2.9-1.3 5.6-.5 9 2.5m350.8 2.4-.9 3.3-.1-3.6c-.1-2 .2-3.9.6-4.3 1.3-1.2 1.5 1 .4 4.6m59.6-3q-.5 1.1-.6-.6t.5-1.3c.3.3.4 1.2.1 1.9m-39.2.8c1 1.1 2.6 2.2 3.7 2.6 1.9.6 1.9.7.2 2.5s-4.5 2.5-5.8 1.2a4 4 0 0 0-2.4-.8c-2.3 0-2.7-3.3-.6-5.6 2.1-2.4 2.7-2.4 4.9.1m-442 .1q-.8.8-2.6.9c-2.6 0-1.7-1.5 1-1.7q2-.1 1.6.8m97.4.3q1.3 1.4.1 2.1c-1.5.9-12.1-1.5-11.5-2.6 1-1.5 10.1-1.1 11.4.5M416.5 692l-3 16c-1.6 9.1-3.1 13.7-4.1 12.7s2.9-23.3 4.6-26.7c.9-1.9 2-4.8 2.4-6.4 1.3-5.3 1.4-2.1.1 4.4M26 687q0 .9-1 1a1 1 0 0 1-1-1q.1-1 1-1t1 1m69.5 3.2c-.9 5.3-2 6.8-5.1 6.8q-2.5 0-3.5-2.7c-.5-1.4-.6-2.9-.2-3.3 7.5-6.3 9.7-6.5 8.8-.8m11.8-3.2q1.6.1 1.7 2c0 2.7-2.3 2.5-5.7-.6l-2.8-2.6 2.5.6c1.4.3 3.3.6 4.3.6m13.7.6q0 1.3-1 .9-.9-.6-1-1.6.1-.8 1-.9 1 .1 1 1.6m-53.5 3.8c-1 .6-2.7 1.9-3.8 3-1.8 1.7-1.8 1.9-.3 3.4s1.8 1.4 4.2-1.1c2.4-2.6 2.8-2.7 4.7-1.4q4.4 3.2-.6 5c-8.6 2.8-15-6.6-7.4-11 2.8-1.7 3.3-1.8 4.1-.4q1 1.5-.9 2.5M56 694c0 3.2-.5 4.3-2.6 5.6-2.2 1.5-2.7 1.5-3.5.3q-2.3-3.6 1.6-7.4c3.4-3.5 4.5-3.1 4.5 1.5m434-2.5q0 1.3-1 1.5-.9-.2-1-1.5c-.1-1.3.5-1.5 1-1.5q1 .2 1 1.5m-470.4 2.7q.1 2.6-.7 2.8-.8-.1-.9-1c0-.6-1.2-1.5-2.6-2-3.1-1.2-2.5-2.6 1.2-2.5 2.2 0 2.7.5 3 2.7m10.6-1.5c.7 1 2.2 2.3 3.2 2.8 2.3 1.3 2.3 2.9-.1 3.4-2.1.4-8-2.6-8.7-4.6-1.3-3.4 3.3-4.7 5.6-1.6m14.2.2c.3.4-.1 1.7-.9 2.7-1.5 1.9-1.5 1.9-3 0Q38 692.1 42 692c1 0 2.1.4 2.4.9m-41.3 2.4c-1.3 1.3-2.6.3-1.6-1.2q.6-1 1.7-.5 1 .6-.1 1.7m440.9-.4q0 1-1 1.6-.9.4-1-.9.1-1.5 1-1.6 1 0 1 .9m-332 .5q0 .6-1 1.1-.9.4-1-.4.1-1 1-1.1 1 0 1 .4m326.1 1.1c-.1 1.5-2.4 1.2-2.9-.3q-.4-1.4 1.2-1t1.7 1.3m12.9.4c1.4 2.8 1.3 3.1-1.4 3.1-1.9 0-2.2-.4-1.8-2.5q1-4.5 3.2-.6m32.7 2.2c-.6 2.2 1.7 4.9 4.2 4.9 2 0 4.1 1.9 4.1 3.7 0 .8-.9 2.3-2 3.5-1.8 2-2 2-2.7.3q-.6-1.7.5-2.3c1.7-.5.4-2.2-1.7-2.2-1 0-2.4-.7-3.1-1.5q-1.1-1.6-3.2-.4-4.6 2.3-.3-2.9c1.4-1.7 2.5-3.4 2.4-3.9q-.4-2.7 1.2-1.7c.6.3.9 1.5.6 2.5m13 1.1q-.5 1-.5-1.2c0-2.2.2-1.9.5-1.3.2.7.2 1.9 0 2.5M101 698.6c0 2.3-2.4 4.4-5.1 4.4h-3l2.7-2.5c2.5-2.3 5.4-3.3 5.4-1.9m304.6 5.3c-2.6 18-2.5 17.9-5.7 18.3-2.7.4-2.9.2-2.9-2.5q0-4 6-18.5c1.5-3.4 3.2-1.6 2.6 2.7M474 700q0 .9-1 1a1 1 0 0 1-1-1q.1-1 1-1t1 1m-365.9 2.3c-1.3 1.3-2.6.3-1.6-1.2q.6-1 1.7-.5 1 .6-.1 1.7M41 702q0 .9-.9 1-1-.1-1.6-1-.4-1 .9-1 1.5 0 1.6 1m395.8 6.2q0 5.8-.8 2.8c-1.1-3.5-1.2-9.2-.1-8.6.4.3.8 2.9.9 5.8m28.4-3.8q1-.5 1.9.7 2 3-.8 2.9c-2.5-.1-5.3-2.4-5.3-4.4 0-1.6.1-1.6 1.6-.2.8.9 2 1.3 2.6 1m-431.4.3q.3 1.3-2.2 1.3c-2.6 0-4-1.2-2.9-2.4s4.6-.2 5.1 1.1m28.6-.4c1.7 1.2 1.7 1.4-.2 3.7q-1.9 2.3-3.6 1.7c-2.3-.9-3.1-3.4-1.6-5.2q2.1-2.7 5.4-.2m22.6-.5c0 .5-1.3 1.8-2.9 3-3.3 2.4-5 8.4-3 10.8q1.3 1.5.1 2.6c-1.4 1.4-8.4-.7-10.8-3.3-1.5-1.6-1.3-1.9 2.4-3.8 2.2-1.1 4.2-2.9 4.5-4.1q.5-1.9 2.6-2c1.1 0 2.6-.9 3.3-2 1.3-2 3.8-2.8 3.8-1.2m238.7 3.8c-.9.9-2.8-.6-2.1-1.8q.6-1 1.7.1 1 1 .4 1.7M48.5 707q.4.9-.4 1-1-.1-1.1-1 0-1 .4-1t1.1 1m43 2.7c-.9 1.7-2.2 3.6-3 4.3s-1.5 1.9-1.5 2.6c0 1.8-1.4 1.8-2.9 0-1.2-1.5-.4-7.3 1.2-8.3a27 27 0 0 1 7.5-1.8c.1.1-.5 1.6-1.3 3.2m-65-.6c.4 1.1.4 2.3 0 2.7-.7.7-2.5-1.7-2.5-3.6s1.8-1.4 2.5.9m14 0c-.4.5-1.8.9-3.3.9h-2.7l2.5-1.4c2.6-1.3 4.4-1.1 3.5.5m404.3-.4c-.5 2.6-3.8 2.9-3.8.4q0-2.2 2.1-2.1 2 0 1.7 1.7m-375.5.8c.1.6-1.1 1.6-2.6 2.3-2.2 1.1-2.6 1.7-1.7 2.7q1.2 1.3 0 2c-2.1 1.3-2.1-2.5 0-5.5 2.1-2.9 4-3.6 4.3-1.5m33.1 1.7c.8 2.4 0 8.5-2 15.5-.6 2.1-8.9 5.6-11.5 5-3.6-.9-6.9-4.4-6.9-7.2s.3-2.9 3.1-1.5c2.8 1.6 5.5-.3 6.9-4.7.7-2.1 1.8-4.5 2.5-5.3s1.5-2.3 1.8-3.3c1-2.8 5-1.8 6.1 1.5m357.5.4a9 9 0 0 1 2.1 4.5c0 2.2-3.7 4.9-6.7 4.9-2.6 0-6.9-3.7-7.8-6.7-.5-1.9 0-2.5 2.7-3.7 5-2.2 7.4-1.9 9.7 1M20 714.5q1.3 1.6 4.3.9c2.7-.5 2.9-.4 2.2 1.2a27 27 0 0 0-1.3 5.7c-.5 4.3-1.4 5.1-4.8 4.3-2.7-.7-6.4-5.9-6.4-9.2 0-3.9 3.7-5.7 6-2.9m31.3 1.5c6.9 5.4 4.2 18-3.8 18q-1.5-.2-1.3-1.2.6-1.2 2.3-1.3 1.8 0 2.1-2.8c.1-1.5-.2-2.7-.7-2.7q-.8.1-.9 1.4a3 3 0 0 1-1.1 2.2c-1.2.7-1-.8.7-6.6.7-2.5.7-2.5-1.3-.7-1.2 1-2.4 1.4-2.7.9s.1-1.6 1-2.3q1.6-1.3 1-4.1-1-5.1 4.7-.8m6.1.1q-.6.8-1.5.3t-.3-1.5q.6-.8 1.5-.3t.3 1.5m-23.4.8q-.2.9-1.5 2.1-1.6 1.5-1.5-.2c0-.8.3-1.8.7-2.1.9-1 2.3-.9 2.3.2m4-.5q0 .5-1 1.1-.9.4-1-.4.1-1 1-1.1 1 0 1 .4M7 718q0 .9-1 1a1 1 0 0 1-1-1q.1-1 1-1t1 1m476.4 0c2.8 1 3.7 5 1.2 5-1.9 0-4.6-2.7-4.6-4.6 0-1.7.1-1.7 3.4-.4m-445.3 5.3c-1.3 1.3-2.6.3-1.6-1.2q.6-1 1.7-.5 1 .6-.1 1.7m4 0c-1.3 1.3-2.6.3-1.6-1.2q.6-1 1.7-.5 1 .6-.1 1.7m-8-.3q.9 0 .4 1c-1 1.6-4.5 1.2-4.5-.6q0-1.6 1.6-1c.9.3 2 .6 2.5.6m295.9 0q0 .9-.4 1-.6-.1-1.1-1-.4-1 .4-1 1 0 1.1 1m-318 5.1c0 2.6-2 3.4-3.8 1.6-1.3-1.4-1.4-2.1-.3-4.4 1.2-2.7 1.3-2.7 2.7-.8.8 1 1.4 2.7 1.4 3.6m56.9 1.5c.1 1 1 2.7 1.9 3.6 1.4 1.7 1.3 1.8-1.1 1.8-2.9 0-10.7-2.8-10.7-3.9 0-.9 7.3-4.1 8.5-3.7q1 .4 1.4 2.2m267.1-1.1q-.1 1.3-1.5 1.5c-1.6 0-2-1.2-.8-2.3 1.1-1.2 2.3-.8 2.3.8m71.5 13.3c-.5 3.2-1.2 4.6-3.1 5.4q-5.5 2.5-1-4a14 14 0 0 0 2.6-7.8c0-2.3.3-4.4.8-4.8 1-1.1 1.5 6 .7 11.2M44 732.9c0 1.4-1.8 2.3-3 1.6q-1-.7-.5-1.6c.8-1.2 3.5-1.2 3.5 0m-26.3 3.5a21 21 0 0 0-4.7 6c-.8 2.2-1.3 2.5-2.7 1.7-4.3-2.5-6.6-4.9-6-6.4.5-1.3 1.1-1.4 3.6-.4 2.8 1 3.4.9 5.8-1.6 1.5-1.5 3.9-2.7 5.2-2.7 2.4 0 2.4.1-1.2 3.4m326.3-2q0 .5-1 1.1-.9.4-1-.4.1-1 1-1.1 1 0 1 .4m-16 2.6q0 1.8-.9 2c-1.4 0-2.3-1.8-1.6-3 1-1.7 2.5-1.1 2.5 1m-294.5 0c.3.5 1.7 1 3.1 1 3.4 0 3.1 2.6-.6 4.5-4.2 2.2-4.8 1.9-4.6-2.5q.2-6 2.1-3m-6.5.8c0 1.5-6.1 7.3-7.3 6.9-1.5-.5-1-3.7 1-6 1.6-1.7 6.3-2.4 6.3-.9m20.5 5.2c1.5 0 10 11.8 9.2 12.7s-4.5-1.6-5.2-3.6c-.3-1.2-1.9-2.1-4-2.5-4.1-.8-7-4.3-5.3-6.3.6-.8 1.8-1.1 2.5-.8.8.3 2.1.5 2.8.5m-23.1 5.1q-.6.8-1.5.3t-.3-1.5q.6-.8 1.5-.3t.3 1.5m15.3 2.1c4.9 5.2 5.7 7.5 3.8 10.4q-2.2 3.6-5.2 1.6c-1.8-1.1-3.2-5.5-2.6-8.3q.4-2.5-1.1-3.8-3.1-2.9.2-3.1c1 0 3.2 1.5 4.9 3.2m-22.7.4q.2 2-1.5.4-1.3-1.2-1.5-1.6.2-.4 1.5-.4c1.3 0 1.5.7 1.5 1.6m356.8 6.2q.9 2.8 0 4.5t.7 1.7c2.5 0 1.7 2.7-1.2 3.8a102 102 0 0 1-14.9 4.2q-2.2 0-.6-5.7c.4-1.2 2.6-4.2 5-6.7 5.3-5.6 9.4-6.3 11-1.8m-359 .3q.2 1.7-2.7 2.7-5.5 1.8-3.1-2.8c1.3-2.5 5.3-2.4 5.8.1m16.9-.5q.5 1.7-1.2 3-3.4 2.7-2.1-2.1c.7-2.8 2.4-3.3 3.3-.9m-9.5 2.6q-1.1 1-1.2.2c0-1.4 1.2-2.6 1.9-1.9q.2.6-.7 1.7m181.5 1.6c-2.1 2.1-2.7 2.3-2.7 1 0-1.7 4-5.2 4.9-4.2.3.2-.7 1.7-2.2 3.2m-186.7.6q0 .6-1 1.1-.9.4-1-.4.1-1 1-1.1 1 0 1 .4m210.5 1.3-1.5 4.8c-.4 1.6-1.3 4.3-1.9 5.8-1.1 2.8-1 5 1.1 18.4.8 5.6.8 7.6-.1 8.7-1.8 2.1 2.5 8.4 8.9 13.1q9.7 7.1-3 3.9c-8.3-2.1-9.6-3-12.2-8.2-1.9-4-2-4.9-.8-9.6 2.1-8.9-.3-25.6-4.5-31.1-3.7-5-2.9-7.6 1.7-5.5 1.8.9 3 .8 5.3-.4 4.2-2.2 7.9-2.1 7 .1m-192.8 1.7c-.3.7-.1 1.8.5 2.4q1 1-.1 1.6c-.5.4-1.5-.3-2.1-1.4q-1.2-2-2.6-1.6-1.3.4-1.4-.4c0-.8 2.1-1.6 4.9-1.9q1.2 0 .8 1.3M256 764q-.1.9-1.1 1-.8-.1-.4-1 .6-1 1.1-1 .3 0 .4 1m62 0q-.2.9-2.2 1-2.7.1-.8-1 3-2 3 0m-302.5 9.5c0 6.4-1 8.6-2 4.2-1.3-5.8-.9-10.7.8-10.7q1.2-.1 1.2 6.5m58.6 2.9c-.6.7-2.6 1.3-4.4 1.4l-3.3.1 4.1-4.2 4-4.3.3 2.9c.2 1.6-.1 3.4-.7 4.1m-36-2.3q1 2.1.2 3c-1.3 1.3-5.8-2.4-4.9-3.9 1.1-1.9 3.4-1.4 4.7.9M53 773q-.1.9-1.1 1-.8-.1-.4-1t1.1-1q.4 0 .4 1m6.4 5.5q2.4 1.7.4 1.5c-2.4 0-4.8-1.1-4.8-2.1 0-1.3 2.3-1 4.4.6m143.4-.3q-.6 1.2-2.4 1.7-2.3.6-.5-1.3c1.6-1.9 3.4-2.1 2.9-.4m-158.2 4.5a51 51 0 0 0-.6 8.2c.1 2.9-.1 3.2-1.4 2.2-2.4-2-3-7.3-1.2-11.4 2.2-5.4 4-4.8 3.2 1M29 780q-.1.9-1.1 1-.8-.1-.4-1 .6-1 1.1-1 .4 0 .4 1m27.5 5.1q.4.7-.5 1.4c-1.3.8-5.2-1.3-4.5-2.5.6-.9 4.3-.2 5 1.1m14.4 3.5q2.2 8.3-3.3 5.6c-2.3-1-2.4-1.4-1.5-4.9 1.6-5.9 1.8-6.5 2.8-5.9.5.3 1.4 2.7 2 5.2"/><path d="m237 62.1-6.9 1.8q-.4.2.5 1c.5.6 3.7.4 8.4-.5a113 113 0 0 1 15.8-1.5q8.5 0 7.9-1.2c-.6-2-18.2-1.7-25.7.4m7.8 4.8c-3.7 1-7.1 2-7.4 2.4q-2 2.1 4.6.5c2.5-.6 6.2-1 8.3-.9q3.8.3 3.7-1.3c0-2.3-2.1-2.5-9.2-.7M243 73q-1.8 1 1.8 1c1.7 0 3.2-.5 3.2-1 0-1.3-3-1.3-5 0m23.6 4.5c-1.5 1.4-2.6 2.8-2.3 3.1.2.2 2.6.7 5.3 1 4.3.5 5.2.3 7.2-1.9 2.6-2.8 2.2-3.4-3.4-4.3-3.3-.5-4.3-.2-6.8 2.1m-23.1-.5q-.4 1 1 1.6c1.9.8 3 0 2-1.5-.8-1.4-2.2-1.4-3-.1m3.5 8q.1.9 1 1 1-.1 1-1t-1-1a1 1 0 0 0-1 1m71 36.8c-3.3 1.7-5.2 4.2-3.1 4.2 1.7 0 8.2-4.8 7.3-5.4-.5-.3-2.4.3-4.2 1.2m16.1 18.5c-4.1 1.4-5.8 4.4-2 3.3 1.3-.4 4.1-1 6.2-1.3s3.6-1.1 3.4-1.7c-.5-1.6-3.7-1.7-7.6-.3m1.3 11.1q-1.7 1.3-1.2 2.1c.9.9 7.8-1.4 7.8-2.6 0-1.4-4.4-1.1-6.6.5m.1 6.5q-.4.9.3 1.5c1.2.7 5.2-.4 5.2-1.5s-4.7-1.2-5.5 0m.5 6.1q.1.9 1.1 1 .8-.1.4-1-.6-1-1.1-1-.4 0-.4 1m-189.2-28.3q-1.7.4-1.8 1.5c-.1 1.1 1 .8 2.3.4a28 28 0 0 1 5.5-.6c1.7 0 3.2-.5 3.2-1 0-1-5.9-1.2-9.2-.3m32.5.1c-4.5.6-2.2 1.9 4.4 2.5 4.1.4 7.1.3 7.8-.4 2.3-2.3-3.5-3.3-12.2-2.1m-3.3 7.1c0 1.1 8.6 2.5 10 1.6q1-.7.5-1.6c-.8-1.2-10.5-1.2-10.5 0m-.3 17.7q-.6.7-.7 1.6c0 1.3 5 .6 5.3-.7s-3.6-1.9-4.6-.9m-.2 6.5c-1 1.5.1 2.3 2 1.5q1.4-.6 1-1.6c-.8-1.3-2.2-1.3-3 .1m92.5 36.1c-8 2.5-9.3 3.1-9.1 4.3.4 2.3 17.6-2.1 17.6-4.5 0-2-1.4-2-8.5.2M245.5 173c1.9 2.1 5.5 2.7 5.5 1 0-1-4.1-3-6.2-3q-.9.2.7 2m-9.4 26.6c3 3.3 7.7 5.7 9.5 5 2.5-.9 1.5-2.1-3.9-4.9q-10.4-5.2-5.6-.1M370.5 225c-.9 1.4 2 6.5 4.8 8.3s4.7.7 4.7-2.9c0-3.7-7.8-8.2-9.5-5.4m16.7 8.6c-3.1 2.2-2.4 3.5 2.7 5 3.7 1.1 4.7 1 6.7-.3 3-1.9 3-2.7-.1-4.7s-6.4-2-9.3 0m-14.1 10.8c-1 1.2-.7 1.8 1.3 3.2 2.2 1.4 2.9 1.4 4.2.3 1.5-1.2 1.4-1.5-.6-3.1-2.7-2.2-3.4-2.2-4.9-.4m29.4 57.6q-.4.9.9 1 1.5-.1 1.6-1 0-1-.9-1t-1.6 1m-23.4 4.4c-1 1.2-.3 1.9 3.8 4.2 5.7 3.2 6.3 4.3 8.3 13.4 1.2 5.4 1.8 6.6 3.6 6.8s2.2 1 2.2 4.5c0 5.1 1.1 7 3.6 6.5 1.5-.2 2-1.4 2.2-5.4.4-6.2-1.2-10.8-3.3-10-1.6.6-2.4-.7-5.5-9.9-1.5-4.3-2.5-5.4-7.1-8.2-6.3-3.7-6.3-3.7-7.8-1.9m39.4 9.8c-.8 1.9 5.1 9.8 7.3 9.8s1.2-2.4-2.8-7c-3.2-3.7-4-4.2-4.5-2.8"/><path d="M401.8 318.6c-3.9 2.5-4.6 3.8-2.7 5 .6.3 3-1.2 5.2-3.5 4.6-4.6 3.3-5.4-2.5-1.5m-43.3 1.5q-.6 1-.2 1.6c.7.7 2.7-.6 2.7-1.8s-1.7-1.2-2.5.2m-3.4 6.3q-1.3 1.4-.1 2.1c1.7 1 3.7-1.2 2.4-2.5q-1.1-1.2-2.3.4m-1.4 7.3c-1.2 1.1-.8 2.3.8 2.3q1.4-.1 1.5-1.5c0-1.6-1.2-2-2.3-.8m35.8 2.7q-1.7 2.5-1.7 9.1c0 5.7-.2 6.4-1.8 6.2-2.6-.3-2.7 1.6-.1 2.8 3 1.4 2.6 2.5-.9 2.5-2.7 0-3.3-.7-6.2-6.6-3.4-6.9-4.4-7.7-14.2-11.8q-6.7-3.1-3.4 2.2c.8 1.5 2.1 4.5 2.8 6.7s1.7 4.6 2.3 5.3q1.5 1.6-1.3 1c-3.7-.5-3.5 2 .4 4.3 4 2.3 4.7 3.4 1.6 2.4-1.1-.3-2.5-.3-3 0-1.8 1.1.7 3.1 5.6 4.5 3.8 1.1 4.8 1.1 6-.1s1.1-2.1-.4-6.1c-1-2.6-2.1-5-2.5-5.4-1.4-1.4-.7-3.4 1.3-3.4q2.7-.2 2.1 3.8c-.4 2.5 2 8 3.7 8.7q1.6.4 2.8-.9c.6-.9 2.4-1.6 4.1-1.6 2.4 0 3.1.6 4.2 3.5 2.4 6.7-1.3 13.1-4.1 7-1.6-3.6-5.6-3.2-4.9.5l1.7 5c1 2.5 2 9.1 2.3 15 .6 9.6.8 10.5 2.6 10.5s2-.7 2.1-7.5c.1-4.1-.2-9.4-.6-11.8q-.7-4.1.3-4.9c1.9-1.2 3.5 2.9 4.3 10.5.6 6.4.4 7.7-1 8.7q-1.5 1.2-1.6 2.3c0 2.2 2.6 1.7 5.3-.9l2.8-2.8-1.1-12.8c-.7-7.5-2.2-16.5-3.7-21.8a69 69 0 0 1-2.8-17.3c-.1-4.5-.5-8.5-.8-8.8s-1.3.6-2.2 2m-17.7 9.3c.6 1.9-2.5 1.6-3.2-.3q-.6-1.6 1.1-1.2 1.5.4 2.1 1.5m45 1c-3.8 1-.8 3.6 3 2.6 1.1-.2 2.3 0 2.6.6.8 1.3 4.6 1.5 4.6.2 0-2.4-6.4-4.5-10.2-3.4"/><path d="M383.5 363.9c-.7 1.3 1.7 2.4 4 1.9.9-.1 1.6-.8 1.6-1.3 0-1.4-4.8-1.9-5.6-.6m26 .1q-.3.9 2.2 1.5l5.2 1.6c3.4 1.4 5.4-.7 2.7-2.7-2.2-1.6-9.2-1.9-10.1-.4m-43 3.9c-.8 1.4 2.7 3 8 3.7 3.7.6 4.5.4 4.5-.9q0-1.6-3.7-2.2l-6-1.1c-1.2-.2-2.4 0-2.8.5m43.4 3.1q-1.6.9 2.3 2.5c2.1.8 4.4 1.5 5.3 1.5 2.6 0 1.6-2.9-1.2-3.6l-3.9-.9q-1.1-.2-2.5.5m.1 13.5c0 1.8 4.8 3.1 6.2 1.7q1.3-1.1-1.6-2.2c-3.7-1.4-4.6-1.3-4.6.5m2.2 10.7c.5 1.5 5.7 1.8 6.1.3.1-.6-1.3-1.1-3.2-1.3q-3.5-.5-2.9 1m-35.2 2.2c0 1.8 3.1 2.9 4.4 1.6q1.2-1.1-.4-2c-2.2-1.4-4-1.2-4 .4m1.5 4.9q-1.6 1.3-.9 2c1.6.9 6.4-.5 6.4-1.9 0-1.8-3.1-1.8-5.5-.1m35.2 1.4q-2 2.1 1.8 2.3 2.5 0 2.5-1.5c0-1.5-3.1-2.1-4.3-.8m-14.2 6.9a385 385 0 0 0 1 43.4c.3 5.2.8 22.1 1.1 37.5.6 27.6 1.2 32.7 3.8 30.6 1.4-1.2 1.4-4.8.1-48.1-1.3-40.6-1.4-47.6-1.5-54.5q-.1-13.5-2.5-13.5c-.7 0-1.6 1.9-2 4.6m-21.3-2.5c.6 1.8 7 4 8.3 2.8q2-2-4.9-3.5c-3.1-.5-3.8-.4-3.4.7m-36.8 3q-1.4 2.3 4.9 3.4c3 .6 3.7.4 3.7-.9 0-2.9-7-5-8.6-2.5m73 2c-.8 1.4.5 2.9 2.7 2.9q1.7-.1 1.9-1.4c0-1.6-3.7-2.8-4.6-1.5"/><path d="M390.2 415.6c-.5 1-.7 3.5-.4 5.7.5 3.9.4 4-2.1 3.3-2.1-.5-2.7-.3-2.7 1q.2 1.5 2 2.1c1.1.3 2.3 1.6 2.6 2.9.7 2.6-.3 4.7-1.7 3.9s-2.9.4-2.3 1.9q.6 1.3 2.5 1.9c2.6.7 2.6 4.7 0 4.7-2 0-3.7 1.7-2.7 2.7.3.3 1.6.6 2.8.7 1.8.1 2.3.7 2.3 2.6 0 2.1-.5 2.5-3 2.5q-3 .2-3 1.5c0 1.3 1.3 1.7 3 2q3 .5 3.3 2.7c.3 1.8-.2 2.2-3.3 2.5-4.5.4-4.6 2.2-.1 2.6l3.4.3.7 7.2c.9 8.6.8 102.8-.1 113.9-.6 6.8-.5 7.8 1 7.8.9 0 2.1-1.2 2.6-2.6q1-2.7 2.8-1.9 3.7 1.6 4 0c.2-.6-1-1.4-2.7-2-2.4-.7-3.1-1.4-2.9-3s.9-1.9 3.6-1.7q3.4.4 3.2-1.2.1-1.7-3.5-1.6c-3.1 0-3.5-.3-3.5-2.5s.4-2.5 4-2.5c4.6 0 5.4-1.7 1.3-2.6-5-1-5.3-1.3-5.3-4.4 0-2.9.2-3 4.5-3 7.1 0 5.8-2-2-3.2-2-.3-2-1.1-2.1-41.3 0-22.6-.4-48.2-.8-57l-1.4-31.4c-.7-15.2-1.6-18.7-4-14.5m-8 .6c.5 1.5 5.8 2.4 5.8 1 0-1.1-2.4-2.2-4.7-2.2q-1.3.2-1.1 1.2m-41.5 2.5q-2 1.6 2 3.2c3.5 1.6 5.6-.2 2.7-2.4q-3.2-2.4-4.7-.8m73.9 2.2c-.3.4.3 1.6 1.3 2.5 2.1 1.9 3.7.7 2.7-1.9-.6-1.6-3.2-2-4-.6m-72.6 6.6q.1 1.4 1.5 1.5c1.4.1 1.5-.7 1.5-1.5s-.7-1.5-1.5-1.5-1.5.7-1.5 1.5m11.1 3.9c-.6.7-2.3 6.4-3.7 12.7-7.2 31.4-7.5 35.3-4.4 52.5a42 42 0 0 1 .9 18.3c-1.3 9 .5 27.9 2.8 28.8 3 1.2 3.4-1.3 2-11.6a54 54 0 0 1-.6-14.4c1.4-7 1-14.7-1.2-25.7-2.7-13.9-2.3-18.2 5-50 1.1-4.7 2-9.3 2-10.3.1-2-1.2-2.2-2.8-.3m-13.1 17c0 2.1 2 3 3.3 1.7q1.4-1.2-.3-2.1-3-2-3 .4m-2.3 5.3c-1 1 1.3 3.3 3.4 3.3 2.4 0 3.5-2 1.8-3.1-1.7-1-4.3-1.2-5.2-.2m-1.2 7.2c-.7 1.3 1.7 2.4 4 1.9q1.5-.4 1.6-1.3c0-1.4-4.8-1.9-5.6-.6"/><path d="M332.4 462.2c-.4.6-.8 2.6-.8 4.2-.1 2.3-.6 3.1-2.5 3.6-3.2.7-3.8 2.8-.9 3.2 3.2.4 3.9 4.8.8 4.8-2.5 0-6 1.7-6 3 0 .5 1.7 1 3.8 1.2 2.9.2 3.7.7 3.7 2.3q0 2-2 1.8c-2.3-.2-5.5 1.4-5.5 2.7 0 .5 1.7 1 3.8 1.2 2.9.2 3.8.8 4 2.4.3 1.9-.2 2.1-3.5 2-2.8-.1-3.8.3-4.1 1.6-.3 1.5.4 1.8 3.7 1.8 5.1 0 5.4 1.8.4 2.2-5.2.4-5.2 3.1 0 3.8 4.6.6 4.9 2.2.7 3.4-4 1.2-3.7 4 .5 4.1 2.3 0 3.1.5 3.3 2.2.3 2-.1 2.3-2.7 2.3-1.6 0-3.3.5-3.7 1.1-.9 1.5 1.6 3 3.8 2.3q1.9-.7 2.8 2.1 2.4 6.3-1.2 6.7-2.1.5-2.6 2-.6 2 2.6 1.8 4.1 0 4.2 4.1c0 .5-1.3.9-2.9.9-3.5 0-5.1 1.8-2.4 2.6 3.6 1.1 6.8 3.3 7.1 4.9.3 1.3-.3 1.4-3.7.9-3.3-.5-4.1-.4-4.1.9q.1 1.6 4.9 3.2c3.8 1.2 5.1 2.2 5.6 4.2.8 3.3.5 3.5-3.2 2.1-3-1.1-6.3-.6-6.3 1 0 1.3 8.4 3.2 9.5 2.1 1-1 6.5 13.7 6.5 17.4 0 2.8 2.5 1.4 2.8-1.6.3-2.3.7-2.6 3.7-2.4 4.9.3 4.7-1.5-.4-3.4-5.3-1.9-5.2-1.6-11.1-25.3-4.2-17.2-6.2-29.3-4.9-30.2q.8-.3 2.3.2c1.8.7 4.9-1.4 4-2.7-.3-.5-2.1-.9-4-.9q-4.9 0-2.7-2.3.6-.5 1.9.4c1.7 1.4 6.7.3 6.1-1.4-.2-.7-2.1-1.2-4.6-1.1-3.2.1-4.1-.2-3.6-1.3.3-.8.5-2 .5-2.7q0-1.4 2.4-.9c2.6.5 4.4-1.3 2.8-2.9q-1-1-3 .1c-2.6 1.4-3.2-.7-3.2-12.1 0-9.6.5-11.9 2.5-11.1q1.4.4 2.5-.2c1.6-1-.7-3.5-2.5-2.9-1.1.4-1.5-.7-1.7-4.7-.3-5.1-1.8-7.3-3.4-4.7"/><path d="M338.6 466.9c-.9 1.4.5 4.2 1.8 3.8 1.5-.5 1.4-3.9-.1-4.4q-1-.3-1.7.6m46.1 1.7c-1.1 1.2.3 2.4 2.9 2.4q2.4 0 2.2-1.3c-.5-1.3-4-2.2-5.1-1.1m1.3 7.9q0 1.6 1.8 1.3c2.1-.4 1.9-2.2-.2-2.6q-1.5-.2-1.6 1.3m-48.5 5.5q-.5 1 0 2c.8 1.3 3.5.1 3.5-1.6 0-1.6-2.6-1.9-3.5-.4m48 5.9q-.4.9.5 1.6c1.2.7 3-.2 3-1.6 0-1.2-2.7-1.2-3.5 0m-47.8 3.7q-.6.7-.7 1.6c0 1.3 5 .6 5.3-.7s-3.6-1.9-4.6-.9m49 3c-.8.8.1 2.4 1.4 2.4q.8-.1.9-1.5c0-1.5-1.2-2-2.3-.9m-49 22c-.9 1 .2 2.4 1.9 2.4q1.3-.2 1.4-1.5c0-1.5-2.1-2.1-3.3-.9m.8 7.5c-.9 2.8.8 4.5 2.5 2.5 1.3-1.7.7-4.6-.9-4.6q-1 .1-1.6 2.1m82.2.6q-1.8 1.8 1.2 2.6c2.4.6 4.6-.7 3.7-2.2-.8-1.2-3.9-1.5-4.9-.4m1.5 7.5c.7 2 4.8 2.3 4.8.4q0-1.6-2.6-1.6-2.5 0-2.2 1.2m-80.2 5.3q.1 1.3 1.5 1.5c1.4.2 1.5-.7 1.5-1.5s-.7-1.5-1.5-1.5-1.5.7-1.5 1.5m57 1q.2 1.3 2 1.5c1.8.2 2-.7 2-1.5s-.9-1.5-2-1.5-2 .7-2 1.5m-.4 6.4c-.9 1.4 2.2 3.4 4 2.7 1.3-.5 1.4-.9.4-2.1-1.4-1.7-3.6-2-4.4-.6m-53.2 2.6q-2 1.4-.8 2.5c1.3 1.3 4.4.3 4.4-1.5 0-2.1-1.5-2.6-3.6-1m52.6 5.3c0 1.2 2.4 2.2 5.2 2.2q1.8 0 1.6-1.3c-.5-1.4-6.8-2.3-6.8-.9m-50.8 6.4c.5 1.5 5.7 1.8 6.1.3.1-.6-1.3-1.1-3.2-1.3q-3.5-.5-2.9 1m-12.9 5.3c-.7 2-.5 2.1 3.5 3 2.5.5 3.2.3 3.2-.9 0-1.5-2.9-3.6-5-3.6q-1 .2-1.7 1.5m3.4 8.2q-1.9 1.6 1.4 3.4c3.1 1.6 5.2-.7 2.5-2.7-2.2-1.6-3-1.7-3.9-.7m28.3 18.7c0 .8.5 1.8 1 2.1s.8 1.5.5 2.5c-.6 1.7 1.7 5 3.5 5s2.2-2.3.6-3.2q-1.8-1-1.2-3.4.8-2.4-1.3-3.4c-2.6-1.3-3.1-1.3-3.1.4m30 1.6c0 1 3.2 3 4.9 3s1.3-2.7-.5-3.4c-2.3-.9-4.4-.7-4.4.4m-16 4.7c0 .4 1 1.7 2.1 3 1.7 1.7 1.9 2.5 1 3.6q-2.3 2.5 4.9 4.4c4 1.2 16.4 1.2 17.6 0 1.4-1.4-.4-1.8-9.9-1.8-9.8 0-11.9-.8-9.6-3.5 1-1.2.8-1.9-1.1-3.9-2.2-2.3-5-3.3-5-1.8"/><path d="M394.7 601.6c-1.1 1.2.3 2.4 2.9 2.4q2.4 0 2.2-1.3c-.5-1.3-4-2.2-5.1-1.1M237 259.9q-1 2 0 2.6c1.3.8 4-1.3 4-3.1 0-2.1-2.8-1.7-4 .5m7.3-1.2c-1.8.6-1.6 3.3.1 3.3 1.9 0 3.1-1.9 2-3-.5-.4-1.5-.5-2.1-.3m4.7 3.8q-1.4 1.6-.2 2.7c1.4 1.4 3.2.1 3.2-2.3 0-2.3-1.3-2.5-3-.4m6.1.9q-1 1.4-.2 2c1.3.9 4.3-.4 3.8-1.7-.5-1.7-2.3-1.9-3.6-.3m59.4 61.6c-.7 1.2.2 3 1.6 3 1.2 0 1.2-2.7 0-3.5q-.9-.4-1.6.5m11 83q.6.9 1.1 1 .4-.1.4-1-.1-1-1.1-1-.8 0-.4 1M103 515.5c-1.7 2.1-.8 14.2 1.3 16.2 2.7 2.7 3.9.6 3.1-5.1a77 77 0 0 1-.8-8.5c-.1-3.8-1.6-5-3.6-2.6m18 16.6a7 7 0 0 0-.5 4.7c.9 3.9 5.7 14.2 6.5 14.2.4 0 3.3 2.3 6.4 5q10 8.7 13.2 7.6c2.2-.9 1.6-3.2-1.2-4.5-1.4-.6-5.9-4.1-9.9-7.7-6.7-6-7.4-7-9.6-13.9a26 26 0 0 0-3.1-7.5q-.7.1-1.8 2.1m-38.3 7.7c-1.7 1.9-2.3 5.2-.9 5.2 1.2-.1 6.2-4.8 6.2-6 0-1.7-3.6-1.1-5.3.8m23.7 1.7q-2 5.1 10.1 17.2c9 9.1 15.8 13 24.8 14.2 2.9.4 6.2 1.4 7.4 2.1 1.8 1.2 2.5 1.2 3.5.2 1.1-1.1.8-1.8-1.5-3.8-1.5-1.3-3.6-2.4-4.5-2.4-11.2 0-28.6-12-34.7-24q-3.7-7.6-5.1-3.5m-22.8 9.1c-2.3 2.3-.6 4 2.4 2.4 2.1-1.1 2.3-3.1.3-3.7-.6-.2-1.8.4-2.7 1.3m18.9 1.4c-2.4 2.7-.6 5 1.9 2.5.9-.9 1.6-2 1.6-2.5 0-1.9-1.8-1.9-3.5 0m3.6 5.4c-2.7 2.9-2.3 6.8.5 4.5 2.3-1.9 3.7-5 2.7-6q-1-.7-3.2 1.5m-21.7 3c-.9 2.2.2 4.6 2.1 4.6q1.7 0 1.3-2.7c-.3-3-2.5-4.2-3.4-1.9m27.7 3.2c-2.3 3-2.8 6.4-.8 6.4 1.6 0 4.9-7.2 3.8-8.3-.5-.5-1.8.4-3 1.9m37.3 1.9c-.8 1.9.3 3.5 2.5 3.5q3.8 0 2-3.1c-1.2-2.3-3.7-2.5-4.5-.4m-30.9 2.9c-1.9 4.5-1.9 7.6-.1 7.6 1.5 0 2-1 3.1-6.7.9-4.5-1.2-5.2-3-.9m-30.8 2.2c-.8.8.1 2.4 1.4 2.4q.8-.2.9-1.5c0-1.5-1.2-2-2.3-.9m36.3 2c-1.3 3.2-1.3 5.4 0 5.4s3-3.4 3-5.9c0-2.9-1.9-2.6-3 .5m-10.6 14.9c-.8 2 .3 4.8 1.6 4s1.3-5.5 0-5.5q-1 .2-1.6 1.5m6 3.9c-.3 1.4-.3 3 .1 3.6 1.1 1.7 3.5-.8 3.5-3.6 0-3.2-2.8-3.1-3.6 0m14.8-1.1c-1.6 1.9-2.5 6.4-1.3 7.1s4.1-4.3 4.1-6.9c0-1.8-1.4-2-2.8-.2m-7.2 2.3c-1.3 3.3-1.3 4.1.1 5s2.9-1.4 2.9-4.9c0-3.4-1.7-3.5-3-.1m12 1c-1.2 3 0 5.3 1.7 3.2s1.9-5 .6-5.5c-.7-.3-1.8.8-2.3 2.3m-15.6 14.8c-.6 1.7.2 3.6 1.7 3.6 1.2 0 1.2-3.7-.1-4.5q-1-.4-1.6.9M103 200q.2.9 1.5 1c1.3.1 1.5-.5 1.5-1q-.2-1-1.5-1c-1.3 0-1.5.4-1.5 1m17.3 24.8c-3.1 2.4-3.5 6.6-.7 6.8 2.9.2 8.4-2.2 8.4-3.6 0-2.2-2.1-5-3.8-5-.9 0-2.7.8-3.9 1.8m17.9-.2c-4.1 2.9-2.4 6.4 3.3 6.4 3.5 0 5.1-6.2 1.9-7.4-2.2-.9-2.7-.8-5.2 1M114 235q.1.9 1 1 1-.1 1-1t-1-1a1 1 0 0 0-1 1m18.2 3.2c-1.8 1.8-1.5 3.6.8 4.3 2.6.8 6.2-1.2 5.8-3.3s-4.8-2.8-6.6-1m5.3 5.7c-.2.4-2.1.8-4.1.9q-8.3.4-2.9 4.8c5 4 10.1 2.6 10.7-3q.4-3-1.4-3.1t-2.3.4m-61.1 17.2c-.3.6.3 2 1.4 3.2 1.9 1.9 2.2 1.9 2.8.4 1.3-3.5-2.3-6.6-4.2-3.6m74.3 9.8a99 99 0 0 1-7 6.8c-1.2 1-3.8 4.3-5.6 7.3-1.9 3-4.4 6.7-5.6 8.2a17 17 0 0 0-3 6.4c-.3 2.1-2 6.4-3.6 9.7s-2.7 6.2-2.4 6.5c.9 1 2.8-1.9 8.2-12.2 2.5-5 5.7-10.8 7-12.9s2.2-4.1 1.9-4.5c-.8-1.4 2.7-5.8 9.7-12.2 6.2-5.8 7.9-8 5.9-8-.5 0-3 2.2-5.5 4.9m-70.6 4q-1.2 1-.7 2c.9 1.3 3.3 1.5 4 .2.9-1.4-1.8-3.1-3.3-2.2m342.7 3.2c-2.2 1.2-2.3 4.5-.3 5.3 1.8.7 5.8-3 5.2-4.7-.5-1.6-2.8-1.9-4.9-.6m-287.3 29.1c-2.7 7.6-3.8 11.4-5.1 17.8-1.8 9.5-1.8 10 .6 7.1 1.1-1.3 2-3.7 2-5.5s1.1-6.7 2.5-11 2.5-8.3 2.5-8.7c0-1.4-2-1.1-2.5.3m5.1 4.3c-.3.9-.4 2.1 0 2.6.3.5-.2 1.6-1 2.5-2.2 2.2-2 9 .3 12 1.1 1.4 2.2 2.1 2.4 1.7a61 61 0 0 0 .1-20q-1-.2-1.8 1.2m-22 11c-2.5 5.1-2.6 16.9-.4 19.2 2.6 2.5 4.6.4 3-3.2a27 27 0 0 1 .2-15.8c1.8-5-.5-5.2-2.8-.2m-7.1 26c-3.2 7.4-3.2 8.7.3 8.3 2.8-.3 3.2.8 1.7 4.4-1.2 3 1.2 2 3.3-1.4 2.5-3.8 1.4-7.1-2.1-6.6q-2.2.3-1.8-1.2 4-15.6-1.4-3.5m-8.4.1c-2.4 3.1-2.7 7.2-.7 10 1.3 1.7 1.6 1.7 2.9.4.8-.8 1.7-4.1 1.9-7.3q.9-9.6-4.1-3.1m345.5 100.3c-3.7 4.1 2.2 8.1 6.9 4.7 1.7-1.2 1.8-1.8.7-4-1.4-3.2-5.1-3.5-7.6-.7m.1 121.9c-1.6 1.7-1.6 2-.2 3.2 2.3 1.9 7 .1 7-2.5 0-2.8-4.5-3.2-6.8-.7m.5 11.4q-2.7 3 1.1 2.6 2-.4 2.2-1.7c0-1.9-1.8-2.4-3.3-.9m-110.5 21.4c-1.2 1.3-.7 5 1.2 9.5 2.7 6.1 3.6 18.2 3.3 40.4-.3 20.1 0 23.5 2.2 23.5 1 0 1.4-2.6 1.5-11.8l.3-18.7c.4-12.1-1.4-28.6-3.7-36-2.2-6.7-3.3-8.3-4.8-6.9M367 619q.1.9 1 1 1-.1 1-1t-1-1a1 1 0 0 0-1 1m120.7 1.6c-1.1 1.2-.8 4.1.6 5.2q1.2.9 3.5.1c3.3-1.2 2.7-5.3-.8-5.7-1.4-.2-2.9 0-3.3.4m-411.6 2.3c-1.6 1.1-.2 4.3 1.8 3.9q1.5-.4 1.9-1.9c.3-1.9-1.9-3.1-3.7-2m322.9 1.7c-1.3 3.4-1.3 12.4 0 12.4s1.7-1.2 2.4-8.8c.6-6.5-.6-8.4-2.4-3.6m52.4 8c-1.3 1.9-1.4 2.8-.5 3.7 1.5 1.5 4.5-.3 4.9-3 .5-3.2-2.5-3.6-4.4-.7m-433.6 1.5q-1.7 1-1.8 1.9c0 1.4 3.7 1.2 4.6-.1 1-1.7-.9-2.9-2.8-1.8m106 3.5q-4.3 2.3-1.9 3.8c1.4.9 8.3-2.4 7.8-3.7-.5-1.7-2.8-1.7-5.9-.1m334.9 0c-1.4 1.4-.7 3.5 1.1 3.2q1.5-.5 1.7-1.7c0-1.6-1.8-2.5-2.8-1.5m-437.4 6.1c-1.3.5-1.9 3.3-.7 3.3q.6-.1 2.5-1c3.4-1.9 1.9-3.8-1.8-2.3m75.1 1.4c-.9 1.6 1.8 3 3.3 1.7q1.1-1 .7-1.9c-.7-1.3-3.1-1.1-4 .2m-74 5c-.9 1.6 2.1 4.3 4 3.6.9-.4 1.6-1.6 1.6-2.7q0-2.1-2.4-2c-1.4 0-2.8.5-3.2 1.1M364.7 665c-.9 6.9-5.6 31.2-6.1 31.7-.2.3-.7-2.6-1.1-6.4-.9-9.7-.9-9.6-2.2-10.1-1-.3-1.3 2.1-1.3 9.7 0 10.2.7 12 3.8 8.9.9-.9 1.1.3 1 5.3-.3 9.1 2.2 24.9 3.9 24.9 2.4 0 2.6-3 .9-11.5a88 88 0 0 1-1.6-12.8c0-4.3 3.1-27.3 4.4-32.7.4-1.4.3-4.5-.2-7l-.9-4.5zM10 663c-1.2.8-1.2 1 .2 1.5 1.9.7 3.8-.1 3.8-1.6 0-1.2-2.1-1.1-4 .1m343.3 44.2c-.4.7-.8 5.1-.8 9.8a39 39 0 0 1-.9 10.2c-1.6 3.3 2.3 2 4-1.4 1.3-2.5 1.5-4.7.9-11.5-.7-8-1.5-9.7-3.2-7.1m109.4 16.4c-1.3 1.3-.7 6.2.9 7.8q3.2 3.1 7.4-.2c2-1.6 2.1-2.3 1.3-4.8s-1.5-2.9-4.9-3.2c-2.2-.2-4.3 0-4.7.4m-107 20.5c-1.7 2.3-1.3 4.4.8 5.3 1.9.7 3.7-1.8 3.3-4.5-.4-3.1-2.3-3.4-4.1-.8m-28.4 3.1c-2.7 1.3-3.5 4.3-1.6 5.9 1.2 1 2 .9 4.1-.3 1.5-.9 2.8-2.3 3-3.2.5-2.1-2.8-3.6-5.5-2.4m-282 18.5c-1.8.6-1.6 3.3.1 3.3 1.9 0 3.1-1.9 2-3-.5-.4-1.5-.5-2.1-.3m403.8 5.4c-4.9 1-9.4 5.9-9.5 10.3-.1 4-1.1 4.7-2.1 1.6-1.3-4-8-3.8-17.3.5-4.1 1.9-5.6 3.2-6.8 6.1a11 11 0 0 0-1 5.8c.3 1.2.1 2.8-.4 3.6-.9 1.3-1.3 1.2-2.8-.6q-3.5-4.5-9.6-4.4c-6.1.1-6.6 2.1-5.9 5q1 3.6-3.6.4-2.3-1.7-9-1.8c-5.7-.1-7.3.3-10.7 2.5a19 19 0 0 0-5.7 6c-1.4 3-2.1 3.4-5.4 3.5a43 43 0 0 0-17.2 4.8c-1.2 1.3-1.8 1.3-4.3 0-3.2-1.7-2.9-3.4.7-3.4 2.7 0 4.2-1.7 2.7-3.2-1.3-1.3-11.9 1.9-12.6 3.9-.7 1.8 1 4.3 2.9 4.3q1.2.1 2.3 1.3c.8 1 .2 2-2.4 4.1q-6 4.8-3.3-.6c2.4-5.4-3.6-10.1-9.1-7.3-2.8 1.5-5 4.2-5 6.4 0 .5.8 1.7 1.7 2.6 2.7 2.8.5 5-5 5a12 12 0 0 0-7.6 2.3c-2.5 1.8-3.4 2-5.5 1.1-4.9-2.3-12 2.8-11.4 8.2q.4 2.3-1.7 2.7-5 1-2.1 4.1c1.7 1.8 1.6 1.9-1.3 2.6-3.7.8-5.1.1-5.1-2.8 0-7.8-4.2-12.7-10.8-12.7-3.6 0-8 3.3-8.4 6.3-.2 1.8-.8 2.1-3.5 1.9-4.5-.5-7.7 2.7-6.3 6.4 1.2 3.1.5 4.3-1.2 2.6-.7-.7-1.1-2.8-1-4.7.6-6.8-5.3-9.1-11.9-4.5-2.2 1.5-2.8 1.6-4.4.4-2.7-2-6.9-1.7-11.2.8-3.1 1.9-5.4 2.3-11.9 2.4-9.1 0-13 1.7-13.6 5.6-.5 3.5-4.6 3.2-9.5-.8q-6.9-5.6-6.1-1.7c.7 3.6 12.9 9.1 14.7 6.6.3-.4 1.5-.8 2.6-.8q2-.1 3.3-2.7c1.1-2.4 1.9-2.8 5.3-2.8 3.9 0 3.9 0 3.9 3.8 0 5.9 4.5 8.6 7.2 4.2 1.2-1.8 1.3-1.8 3.1-.2 1.7 1.5 2.1 1.5 4.5.1 2.8-1.6 3.2-3.8 1.7-9.2-.5-2.1-.4-2.7.8-2.7 1.6 0 2.7 2.9 2.7 7.2 0 3.9 4 6.4 8.3 5.1 3.1-.9 3.2-1 3.2-6.9 0-7.6 1.9-8.8 2.3-1.4q.3 5.5 1.9 6.7c2.4 1.8 9.8 1.6 11.3-.2 1.2-1.4 1.6-1.3 3.7.7 2.7 2.5 4.3 2 7.7-2.5l2-2.7-2.2-4.5c-2.8-5.7-2.8-7.2 0-8.1 3.1-1 5.8 2.7 5.8 8 0 5.7 1.9 8 6.3 8 2.9 0 3.7.4 4.2 2.3q.6 2.3 2.9 2.3c2.9 0 4.8-2.1 3.6-3.9-1.3-2.2 3-8.1 6-8.1 1.4 0 3.4-.2 4.5-.5 1.5-.4 2.6.4 4.2 3 2.1 3.4 1.4 6-1 3.6a5 5 0 0 0-3.3-1.1c-2.6 0-8.4 4.5-8.4 6.5 0 3 2.4 6.5 5.5 8 4.3 2 7.5 1.9 10.5-.4 2-1.6 2.5-2.8 2.5-6.8v-4.8l4.5-.8 9.5-1.5c2.8-.4 5.5-1.1 6.1-1.5s2.2.2 3.5 1.3c2.9 2.6 6.2 3.4 8.6 2.2 2.8-1.5 13.3-1.1 13.3.5 0 .7 1.4 2 3.1 2.9 2.6 1.3 3.7 1.4 5.8.4 3.1-1.4 3.7-1.3 3.3.5-1 4.9 5.6 10.3 10.3 8.5 1.5-.6 5.1-1 8-1 4.4 0 5.7-.4 6.9-2.2l1.5-2.1 3.1 3.3c2.9 3.1 3.3 3.3 8.9 2.7 8.8-.8 17.1-5.6 15.7-9.2-.8-2.3-5.3-1.9-6.1.5-.8 2.5-5.5 5-9.5 5-2.3 0-3.3-.6-4.2-2.6-2.3-5-12-7.5-13.3-3.4-.6 1.9-.8 1.8-2.9-1.2-4.4-6.6-11.4-3.6-10 4.2q.6 3.1-.2 2.7c-.5-.5-1.3-3.4-1.9-6.5-.8-4.3-1.5-5.9-3.3-6.8-3.7-1.8-9.2-7.1-9.2-8.7 0-.9-2-3.2-4.5-5.3l-4.6-3.7-3.5 1.6c-1.9.9-4 2.8-4.6 4.2s-1.8 2.5-2.5 2.5c-2 0-.7-6.1 1.5-7.5 3.1-2 6.2-5.8 6.2-7.8 0-3 6.8-11.7 9.1-11.7.4 0 1.6 1.5 2.7 3.3q2 3.5 1 5a4 4 0 0 0 .2 3.7c1 1.8.7 2.2-1.9 3.1q-5.9 2.2-1.7 5.6c1.2 1 3.5 3.8 5.1 6.1q7.1 10.7 16 5.2l3.2-2 2.5 4.8c2.4 4.7 2.4 4.7 8 5 4 .2 6-.1 7.1-1.3q1.6-1.4 6.9-1.6c2.9 0 6.2-.4 7.3-.8q2-.7 4.8.6c1.9 1 4.5 1.2 9.2.7 6.3-.7 7.8-1.7 5.5-4q-1.2-1.2.4-2.3c1.3-1.1 2-.8 4 1.6 2.8 3.3 9.8 6.3 10.4 4.4q.4-1.2 1.7-.1t2.5-.5c1.1-1.4 1.4-1.3 2.7.5 1.7 2.4 5.3 2.6 9.2.5q2.9-1.3 4.7-6.6c1.3-3.6 2.7-5.5 4.7-6.6 1.6-.8 3.1-1.2 3.4-.9q.3.6-2.1 1.6c-3 1.1-3 3.3 0 3.8 3.4.4 8.1-3.3 8.8-7 .3-1.9 1.2-4.3 2-5.3 1.2-1.6 1.6-1.7 2.9-.6a8 8 0 0 1 2.2 4.2 8 8 0 0 0 2.8 4.4c1.9 1.3 2.3 1.3 3.6.1 1.2-1.3 1.2-2.1-.3-6-2-5.2-2.7-5.8-7.5-6.5-3.1-.5-3.4-1-3.8-4.3-.2-2.3.3-5.1 1.3-7 1.9-3.6 1.5-7.6-1.5-14.2q-2-4.8-4.1-4.6-2 0-3-2.4a8 8 0 0 0-2.7-3.5c-4.6-2.7-4.7-2.8-2.9-4.7 1.5-1.4 1.5-1.9.3-3.1-1.8-1.9-7.2 0-6.3 2.2q.8 1.7-2.9 1.5c-3.9 0-4.8-1.7-1.2-2.2q2.2-.3 2.5-2.6c.3-2.1-.5-2.7-3.5-2.3-.7.1-2.2-.3-3.4-1-2-1-2.1-.9-1.5 1.5.6 2.3.3 2.6-1.8 2.6-1.4 0-3.7.5-5.1 1.2-3.4 1.5-4.8.1-3.2-3.2.7-1.4 2.8-3 4.7-3.6 3.3-1.1 5.1-3.7 3.3-4.6-.4-.3-2.3-.1-4.2.3m-15.3 15.4c.4 3.4-1.8 5.5-5.7 5.5-1.4.1-4.3.7-6.4 1.4-4.3 1.6-4.9 1.1-3.9-3 .9-3.5 8-7.5 12.7-7.1 2.5.2 3.1.7 3.3 3.2m17.2 1.6c0 2.3-2.8 2.6-3.7.3-.6-1.6 1.5-3.7 2.9-2.8q.7.6.8 2.5m19.8 3.3c4.5 2.8 8.9 9.4 9.8 14.7.5 3.3.5 3.3-1.1 1.4l-3.7-4.4a11 11 0 0 1-2.2-4.5q-.2-2.1-2-2.1-1.8-.1-2.4-1.3-.4-1-1.7-1.2c-.7 0-1.9-1-2.7-2.2-1.5-2.2-1.6-2.2-4.2-.5-3.4 2.3-5.4 1.2-2.9-1.5 2.3-2.6 7.4-2 13.1 1.6m-28.3.7q.6 1 .2 1.5c-.7.7-3.7-.7-3.7-1.7 0-1.3 2.7-1.1 3.5.2m-8.9 5 1.9 2.1-3.1-.6q-3.2-.7-4.4.9c-1.2 1.4-1 2 1.6 4 1.6 1.3 2.6 2.7 2.1 3.1s-1.3.2-1.9-.4a4 4 0 0 0-5.8.2c-.9 1.2-.8 1.7.8 2.7 2 1.2 2 1.3-.2 3.1-2.1 1.8-2.1 1.8-.2 3.3a8 8 0 0 0 3.2 1.5c1.3 0 3.4 5.8 3.4 9.4q0 1.8-1.6 1.2l-2-.6q-.4-.1.6-2.1 1.2-2 0-3.4c-1.8-2.1-4.9-2.8-6.6-1.4-1.3 1-1.2 1.4.2 3 1.6 1.7 1.5 2-.7 3.8q-2.4 2-1.4 2.9c1.3 1.3 8.6 3.3 9.7 2.6q.7-.3.8 1.5c0 2.5 0 2.5-4.5.4-3.3-1.6-3.7-1.6-5.2 0-1.6 1.5-1.5 1.8.3 3.8q2 2.3.7 2.6-1.2.6-1.3 1.8c0 1.4 3 2.4 7 2.5l2.5.1-2.4 1.3q-7 3.9-16.9-12.5c-2.8-4.6-2.8-5.7.1-6.1 1.9-.3 2.2-.8 1.9-4.3-1-15.1-.1-19.3 5.5-23.9q4.6-3.9 12.4-4.5c.9 0 2.4.9 3.5 2m30.8 2.1c5 2.5 6.9 4.3 10.4 9.5 4 6 4.2 6.7 4.2 13.6 0 8.7-1.7 11.5-7 11.9q-6 .3-6-2.7.1-1.3 2.9-1.3c1.5.1 3.3-.2 4-.6 1.8-1.1 1.3-2.6-.9-2.6q-2 0-2-1.9c0-1-.8-2.2-1.7-2.5q-1.8-.6-.5-1.8 2.5-2.7-.4-2.8-1.6 0-.9-2 1-2-2.2-2.6c-5.4-1.1-5.5-1.2-4.1-3.4 1.1-1.8 1-2.3-.4-3.4q-1.8-1.3-.7-2.3c1.5-1.5.3-3.3-2.1-3.3-2.5 0-3.5-1.7-2-3.5 1.7-2.1 2.5-1.9 9.4 1.7m-60.4 4.4q0 2.5 1.5 1.8c1.8-.7 1.8-.5.4 5.1-.8 3.1-.8 5.3-.1 7.4.9 2.6.7 3.3-1.4 5.6-3.5 3.8-3 6.9 2.5 15.1 2.7 4 4.7 7.5 4.4 7.8q-2.3 1.9-6.8-2.4c-3.7-3.6-5.6-3.3-8.4 1.6s-7.1 4.1-7.1-1.4c0-6.7-5.2-8.2-11-3.2-4.2 3.5-5.3 3.7-8.1.8-1.8-2-2-3.1-1.5-7.8.7-5.9 3.5-9.8 8.9-12.6q4.6-2.2 1.2-8.3c-1.8-3.5-3.7-4.3-8.2-3.5l-3.5.7 2.1-4.1c1.2-2.3 3.1-4.7 4.3-5.3 3-1.6 11.9-.4 16.4 2.3 3.7 2.2 3.7 2.2 1.6 3.6-3 2-2.8 2.8 1.8 5.7 5 3.1 6.5 3.1 8.6 0 1.5-2.2 1.5-3.2.4-6.8-.6-2.3-1.6-4.7-2.2-5.4-.5-.7-.6-1.8-.2-2.4 1-1.7 4.4 2.6 4.4 5.7m43.4-4.7c.9 1 2.1 3.1 2.5 4.7l1.6 4.6q.9 2-1.3 1.8c-3 0-4.6 2.4-2.7 4 1.2 1 2.1 1 4.1.1 1.4-.6 3-.9 3.5-.6q2.4 1.8-1.7 2.1c-3.2.2-3.8.9-3 3q.6 1.7 3.1 1.2t2.5.7q-.1 1.2-1.8.8c-2.1-.5-4.7 2.1-3.7 3.7.3.5 2 1 3.6 1 3.8 0 3.4 2.4-.4 2.8-2.7.3-3.6 2.5-1.7 3.7.6.3 1 2 1 3.6 0 3.6 4 5.7 7.7 4q2.1-.9 2.8-.1c1 1.6-1.7 2.3-8.9 2.5-3.9.1-8.4.5-9.9 1-3.8 1-4.7-.2-1.1-1.6l2.9-1.1-3-2.4c-2.3-1.8-2.7-2.6-1.7-3.6q2.8-2.8-1.5-5.2c-2.5-1.4-2.6-1.5-.7-1.6 1.2 0 2.7-.7 3.4-1.5 1.1-1.3.8-1.7-1.9-2.6q-3.3-1-2.2-2.3c1.2-1.4-.4-3.6-2.6-3.6-1.6 0-1.7-5-.1-8.5.9-1.9.9-2.8 0-3.7q-2.4-2.6.2-2.8c2.2 0 2.9-1.9 1.4-3.7q-1.8-2 .7-1c1.1.4 2.7.2 3.5-.3 2.2-1.4 3.5-1.2 5.4.9m-73.6 18q.7 4.7-4.2 3.5c-3.2-.8-3.4-2.8-.4-4.8q4.1-3 4.6 1.3m-50.5 1.2q.4 2-.9 2.6c-2 .7-3.8-1.1-3.1-3.1.9-2.3 3.4-2 4 .5m17 5.1c.7 2.1-.4 3.8-2.3 3.8-2.3 0-3.4-1.6-2.6-3.5s4.3-2 4.9-.3m-16.7 5.9c1 1.7-1.3 3.6-2.7 2.2-1.2-1.2-.4-3.3 1.1-3.3q.9.1 1.6 1.1m-13.8 4.6c-.4 3.3-2.4 4.1-3.3 1.4q-1-4 2.1-4.1 1.6 0 1.2 2.7m22.7.3q.4.9-.4 1-1-.1-1.1-1 0-1 .4-1 .6 0 1.1 1m128.4.3q1 1.3.5 2c-1 .9-3.4-.4-3.4-1.9 0-1.8 1.4-1.8 2.9-.1m-165.1 4.3c-1.4 2.9-3.2 2.6-3.6-.6-.4-2.6 1.7-4.4 3.5-2.9.9.8.9 1.6.1 3.5m24.7-1.6c1.8.7 1.9.8.3 1.5-2.1.8-4.8 0-4.8-1.5q.2-1.8 4.5 0m111.2 3.6q-.6.5-1.9.1-1.1-.5.6-.6t1.3.5m-119.5 1.6c2.7 2.2 3.2 5.5.9 6.8-4.1 2.1-8.5-2.8-5.5-6.1 2-2.2 2.5-2.3 4.6-.7m13.5 1.4c.8 2.1-1.3 4.2-2.8 2.7-1.3-1.3-.5-4.3 1.1-4.3q1 .1 1.7 1.6m27.8-.6c.4.6-.1 2.2-.9 3.5-2 3-6.1 3.3-7.6.6-1.7-3.2-1.2-4 2.8-4.4l4.4-.5q.7 0 1.3.8m106.1 4.7c-1 1-1.9-.5-1-1.8q.8-1.7 1.2 0 .3 1.2-.2 1.8M339 848q0 .9-1 1a1 1 0 0 1-1-1q.1-1 1-1t1 1m-107.3 2.2q-.5 1.1-.6-.6t.5-1.3c.3.3.4 1.2.1 1.9M359 850q-.1.9-1.6 1-1.3-.1-.9-1 .6-1 1.6-1 .8 0 .9 1m-61 7c.6 1.1 1.8 2 2.6 2 2.3 0 1.1 2.4-1.4 2.8-2.3.4-5.8-4-4.7-5.8q1.6-2.4 3.5 1m165.6-85.1c-.8 1.2 2.1 3.4 3.4 2.6 1.7-1.1 1.1-3.5-.9-3.5q-1.9 0-2.5.9"/><path d="M351.8 821.1c-1 .5-1.8 2-1.8 3.2s-.5 2.8-1.1 3.4c-1.4 1.4-.3 3.3 2 3.3 2.9 0 5.3-3.4 4.9-7.1q-.3-5.2-4-2.8m128.6 20.7c-1.2.9-2.7 2.7-3.4 4-1 2-.9 2.7.6 4.3 2 2.3 7.2 2.5 10 .5 1.8-1.4 1.8-1.7.4-5.8q-2.5-7.4-7.6-3m-13.3 10.6q-6.4 4.4-3.6 9.5c3 5.9 10 6.1 14.4.5 3.9-5 2.2-9.9-4.1-11.3-3-.7-4.2-.5-6.7 1.3m7.7 4.9c.2 1-.4 2.7-1.4 3.8-1.6 1.8-1.8 1.8-3.6.3q-3.2-2.8-.6-5.2c1.8-1.8 5.2-1.1 5.6 1.1"/></svg>