<svg xmlns="http://www.w3.org/2000/svg" width="666.7" height="1170.7" viewBox="0 0 500 878"><path d="M93.6 3.7c-.9 6-.7 15.2.5 17.6.6 1.2 2.3 3.4 3.7 4.9 2.3 2.5 2.4 3 1.3 5.5-.7 1.4-1.5 6.3-1.8 10.8-.5 6.9-.3 8.6 1.6 12.2 1.1 2.3 3.6 5.4 5.5 6.8s3.7 3.7 4 5c.4 1.4 1.7 4 3 5.9s2.6 5.4 3 7.7q.7 4.1 4 7.5c2.9 2.9 4.1 3.4 7.9 3.4 4.9 0 6.7-1.2 9.3-6.2q1.5-3 .9-6.8c-.5-3.2-.3-4 1.4-4.9a11 11 0 0 0 3.4-3.7l1.4-2.6 2.2 3c2.3 3.3 7.7 5.7 10.4 4.6 3.1-1.2 7.7-10.8 9-18.9.8-5.4 1.7-8 2.9-8.6 1-.5 2.5-2.3 3.3-3.9 2.4-4.6 3.6-4.1 4.9 2 .7 3.6 4.2 7 7.1 7 1.3 0 3.1 1 3.9 2.1 1.9 2.7 4.4 1.9 5.7-2q1-2.8 4.8-4.3c4.2-1.7 7.5-7.1 7.3-12.2q0-3 1.9-4.4c3-2.1 5.8-9.3 6.5-17 .4-3.7 1.1-7.3 1.7-8 .5-.6 2.8-1.2 5.1-1.2 3.2 0 4.8-.6 6.5-2.4l2.3-2.5h-15.6L196.9 0l1.2 2.2c1.6 3 1.5 12.8-.1 13.8-.7.5-3.2 1.1-5.5 1.4-3.7.6-4.2 1-5.1 4.5-.9 3.1-.7 4.7.7 8.2 2.2 5.5 2.3 8.4.3 14.2-1.4 4.2-3.4 6.3-3.4 3.8q-.2-.9-1.8-1.6c-5.4-1.6-4.8-23.5.5-23.5q1.8 0 .6-.8c-.6-.4-1.5-2.3-2-4.2-.8-3.1-1.3-3.5-4.7-3.8q-6.4-.5-6.6 5.5c0 2.5-1.5 3.9-2.5 2.3q-.7-1-1.5-.5c-3 1.8-2-13 1.2-18.3l2-3.2H150l1.2 2.6c1 2 .9 3-.5 5.4-2.5 4.2-2.2 8.6.9 11.7 1.8 1.8 3.2 2.4 5.1 2s3.2.2 4.9 2.2c3.1 3.5 3 4.2-.5 3-3.1-1.1-5.5-.4-8.5 2.7-2.3 2.3-2 3.7 1.9 8q3.5 3.8 2.9 5.4c-.4.8-.7 2.6-.6 4q1 16.9-3.9 17c-1.6 0-1.8-.8-1.5-7.5.4-8.3-1.7-13.5-5.3-13.5-1.1 0-2.3-.5-2.6-1-1-1.7-4.4-1.1-5.7 1-2.9 4.5-3.8.7-1.3-5.3.8-2 1.9-3.8 2.5-4.2 1.6-1 1.3-10.5-.3-10.5-.7 0-2.3-1.1-3.5-2.5s-2.7-2.5-3.3-2.5-2.9 2-5.1 4.5-4.4 4.2-4.9 4c-1.1-.7-.1-11.9 1.1-12.3.5-.2.7-1.4.4-2.7-.3-1.2-.1-2.6.5-2.9q1-.6 1.1 1.3c0 2.5.1 2.5 4.6.6 3.8-1.6 4.3-3.9 1.2-5.9-1.3-.8-2.1-.6-3.6.7q-4 3.4-2.2-.2c2-3.9 1.3-5.1-3.3-5.1-3.9 0-4.4.3-5.7 3.2l-1.3 3.3-.4-3.3c-.4-2.9-.7-3.2-4-3.2-2.6 0-3.6.5-4 2q-.6 1.8-1.3 2c-.9 0-.7 8.4.3 9.1.5.3.4 2.1 0 4q-1 3.5-2.9 3.4c-1.6 0-1.9-.8-2.1-5.5-.1-3 .3-6.3.9-7.3q1.2-2.2-.2-1.2t-.8-2.9c.4-3.5.3-3.6-2.8-3.6-2.9 0-3.2.3-3.8 3.7M112 21q0 1.8-1 2-.9-.2-1-2c-.1-1.8.5-2 1-2q1 .2 1 2m93 2.9q-1.1 2-2.5 2.1c-2 0-1.9-.5.8-4.1q2.3-3.3 2.5-1.5c.2.8-.2 2.4-.8 3.5m-90 5.7c0 1.7 5.5 6.5 7.6 6.6 1 .1 2.9-.2 4.2-.6 2.3-.8 2.3-.8.7 2.9-.8 2.1-1.5 5.3-1.5 7.1 0 3.7-1.5 4.6-2.5 1.4s-6-5.3-8.8-3.9q-5.8 3.1-5 8.6c.5 3 .3 3.3-2 3.3s-2.5-.4-2.9-4.8c-.3-2.6-.2-5.1 0-5.6s.7-2.7.9-5l.7-5.6c.3-1.9 3.2-8.3 4.2-9.3.9-.8 4.3 3 4.4 4.9m83-2.7c0 1.1-2.6 2.2-3.4 1.4-1.2-1.2-.5-2.3 1.4-2.3q1.8 0 2 .9m-.1 10.6v2l-.9-2c-.5-1.1-.9-2.7-.9-3.5q-.3-2 .9 0c.5.8.9 2.4.9 3.5m-1.2 4.7q-.5 1.1-.6-.6t.5-1.3c.3.3.4 1.2.1 1.9M133 56.1c7.4.7 8 .7 8-.9q0-1.3.7-.9c.3.4-.2 2.5-1.2 4.7-1.7 3.7-2.1 4-4.6 3.5-4.5-1-6.4 3-6.4 13.4-.1 9.3-.9 10.6-5.6 8.1-2.1-1.2-2.1-1.6-1.4-8.9.4-4.2.7-8.8.7-10.3-.1-1.5.3-3 .8-3.3.6-.4 1-1.8 1-3.3s.3-3.7.6-4.9l.6-2.2 2.6 2.5c1.5 1.3 3.4 2.5 4.2 2.5"/><path d="M270 2.2c0 5.2 2.1 9.8 5 11.3 3.5 1.8 3.4 1.4 1.4 5.4-.9 1.9-1.4 4.6-1.1 6.4.4 3.1-1.5 8.5-3.6 9.9q-1.1.4-2.8-.5c-1.3-.8-2.3-.7-4.3.6-2.7 1.8-12 2.3-14.4.9-1-.7-.9-1.7.3-5.1.8-2.4 1.6-6.3 1.7-8.6.3-4.2.4-4.3 4.1-4.8 4.5-.6 5.2-1.1 4.4-3.2-.6-1.3-3.5-1.4-22.8-1-12.2.3-22.5.7-22.8 1-1.1 1.2 1.7 4 4.5 4.5 2.9.5 2.9.5 3.2 8.9.2 4.6-.1 8.8-.5 9.2-.5.5-2.3.5-4 0-4-1.2-6.4.9-4.2 3.5 1.2 1.5 3.5 1.6 19.6 1.1 10.1-.4 19.7-.4 21.3 0l3 .5v10.9c0 10.1.2 11.2 2.6 14.9a22 22 0 0 0 4.9 5.4q2.2 1.5 2.8 5.5c.3 2.2 1.5 5.4 2.6 7 2.6 3.6 4.9 3.2 8.5-1.7 2.3-3.2 2.5-3.2 3.1-1.2a4 4 0 0 1-.9 3.9c-1.3 1.5-1.5 5-1.4 25.2.1 12.9.1 27.9-.1 33.4a295 295 0 0 0 .7 41.5 1158 1158 0 0 1 2.9 72c.8 29.3.7 39.3-.4 61.5-.4 7.7-.7 15.6-.6 17.5l.6 57.5c.4 43.2.8 56 2.1 64l2.2 13.5c.5 2.8-.2 5-3.2 10.9q-7 13.9-2.5 19c2.2 2.6 2.7 5.1 1.2 6.6a135 135 0 0 0-9.8 33q-.9 11.4-5.1 11.5-1.8.2-6.1 7.6a27 27 0 0 1-11.1 11.9c-5.5 3.5-7.3 4.2-10.8 3.9-2.3-.1-4.5-.5-5-.8-1.4-.9-5 2.2-5.4 4.6-.2 1.6-1.8 2.8-5.8 4.4-3 1.2-6.8 3.4-8.5 4.9a84 84 0 0 1-12.9 7.9c-11.4 5.9-14 8.9-13 14.9.5 3.4.2 4.1-2.6 6.5-7.4 6.3-8 7.1-8 10.5q.1 3.5-2.3 5c-2.2 1.4-2.5 1.3-5.6-1.4-4.7-4-7.1-3.8-10.3.8l-1.5 2.3-1.9-3.5c-1-1.9-2.6-3.8-3.6-4.1s-2.2-2.3-2.8-4.5c-2.3-8.3-10.3-8.6-12.7-.4l-1.7 6.7c-.9 4.2-2.5 3.4-2.4-1.2 0-5-2.4-8.9-6.2-9.7-2.4-.4-3.1-1.2-3.6-3.9-.7-3.8-1.8-5-5.7-5.9q-5.2-1.3-.1 2.8c2.5 1.9 2.5 2.1.9 3.3-2.3 1.7-1.2 4.8 1.5 4.1 2.4-.6 2.6 1.1.4 2.7-1.8 1.4-.9 4.6 1.3 4.6q1.4-.2 2-2c.3-1.2 1.4-2 2.5-2 1.8 0 2 .5 1.4 3.1l-.6 4.1q0 1-1.2 0c-2.2-1.7-7.3-1.9-7.3-.2q.2 1.3 1.7 1.5c2.3 0 4.5 2.2 3.2 3.4-1.6 1.6-8.3 3-9 1.9q-.4-.9 1.5-1.5c1.2-.3 2.1-1.2 2.1-1.9q0-2.5-4-.4-2 1.3-1.3-1 .7-2.1-1.5-2-2 0-3.1-3.2c-.6-1.7-1-3.2-.9-3.2l2.3-1.4c1.1-.6 3-1.7 4.3-2.2 2.7-1.1 2.6-3.7-.1-5.4-1.5-.9-2.2-.6-3.8 1.6q-2 2.6-3.1 2.8c-.6 0-2.4 1.4-4 3.1q-5.6 5.5-2.1-.9 2-3.1.7-4.2-.9-1.1-5.1 3.9c-3.5 4.4-4.1 5.8-4.6 11.7-.7 6.9-.1 9.1 3.5 13.1l2 2.1-4.1 2.6q-4 2.6-4.1 4.6c0 1-.5 2.2-1 2.5a69 69 0 0 1-23.9-.1c-1.8-.8-4.8-1.4-6.6-1.4s-3.5-.3-3.9-.7a34 34 0 0 0-13.9-4.3c-2 0-5.4.9-7.4 2-2.3 1.2-5.7 2-8.7 2-4.6 0-5.2-.3-9-4.5-2.3-2.5-4.9-4.5-5.7-4.5s-3.4 1.2-5.7 2.7c-3 2-4.2 3.4-4.2 5.1 0 2.3.1 2.3 5-1.3l5-3.7 2.1 3.7c1.2 1.9 3.4 4.2 5 5 4.1 2.2 12.1 1.9 17.4-.6s6.4-2.4 22.5 1.9a55 55 0 0 0 21.8 2.5c6-.4 10.2-.2 10.2.4 0 .5-1.5 2.3-3.3 4.1-3.4 3.3-7.9 4.2-11.6 2.3-1.9-1.1-14.2.2-19.9 2q-3.4 1.2-4.6-.1-1.4-1-2-.2c-.3.5-3.2.7-6.3.5-17.6-1.3-25.8 0-35.9 5.7q-5.5 3.2-5.4 5.2-.1 2.3 1.4.9a83 83 0 0 1 8.7-4.8 33 33 0 0 1 24.4-2.6c6.6 1.7 8.2 1.6 10.3-.5 1.5-1.5 3.4-1.8 10.5-1.7a55 55 0 0 0 10.4-.6c1-.4 3.5.2 5.6 1.3 2.8 1.4 4.2 1.6 5.2.8.8-.6 3.3-.8 6.6-.4 4.7.5 7 .1 17.4-3.6 6.6-2.3 14.9-4.5 18.5-4.9s7.4-1.2 8.5-1.8a41 41 0 0 1 26.5-6.2c1.4.1 4.8-1.2 7.6-2.8a55 55 0 0 1 8.5-4.2c4-1.3 8.3-5.3 9.8-9.2.7-1.9 1.9-2.8 4.5-3.3 3.9-.7 4.3-1.2 5.6-5.7.8-2.6.7-2.9-.9-2.4-2.3.7-3.4-1.7-1.8-3.8.7-.9 3.1-2.5 5.5-3.8 4.2-2.1 4.3-2.1 5.7-.3 1.2 1.7 1 2.1-2.1 3.7-1.9.9-3.4 2.3-3.5 3l-.4 5.3c-.4 5.6.5 6.8 3.8 5.3 1.5-.7 2.7-2 2.7-3.1 0-2.2 1.3-2.3 3-.3 1.5 1.8 3.3 1.9 6.3.2q5.8-3.2 5.7-5.9c0-2.6-2.7-3.4-4.8-1.5q-1.7 1.6-3.2.7-1.4-.8-3.2.1-1.9 1.1-1.8-.5.2-1.2 1.5-2 1.5-.5 1.5-4.9c0-4 .3-4.6 2.9-5.6 1.5-.7 3.7-2.9 4.8-4.9s2.8-3.8 3.9-4c1.7-.2 1.9.2 1.7 3.5-.4 4.6 2.5 9 5.2 8 1.4-.6 1.6-1.8 1.3-6.9q-.3-6.3 1-6.5 1.2-.4 1.2 2.5c0 3.3 1.3 4.7 5.1 5.7 2.1.5 3 .2 4.3-1.6 2-2.9 2.1-5.8.1-6.4l-3.2-1.2a10 10 0 0 0-3.3-.4c-2.6.4 4.6-3.7 9.7-5.4 2.6-.9 5.7-2.2 6.8-2.9s3.5-1.6 5.3-1.9c1.9-.4 4.5-1.6 5.9-2.7 3.4-2.7 5.1-2.5 6.5.5q1.8 3.9 3.3 1.5c.3-.6 1.5-1 2.6-1q1.7-.1 1.9-1c0-.6 1.2-1.5 2.6-2 2.5-1 2.5-1.1 1-3.5-.9-1.3-1.6-3.5-1.6-4.7q0-6-4.2-4.1c-1.3.6-4.3 1.6-6.8 2.3-6.5 1.7-15 7.6-15 10.3q0 2.5-.9.8c-1.4-2.2-7.5-.2-7.9 2.7q-.4 4-2.7.5c-1.1-1.5-1.7-1.5-4-.5-1.5.7-2.9 2.1-3.2 3.2-.4 1.5-.8 1.7-2.3.8s-2.4-.8-4.4.5c-2.9 1.9-5.1 2.2-4.1.6q.5-1-1.3-1.6c-2-.5-1.9-.7 1.3-4 3-3.1 4.6-3.8 10.7-4.8 4-.7 9.6-1.9 12.5-2.7a53 53 0 0 0 26-23.5l2.7-5.8.5 6.5c1 11.4 8.3 20 16.9 20q3 0 3.5 2c.3 1.1 1.7 2.4 3.1 3 1.4.5 2.6 1.1 2.6 1.4a47 47 0 0 1-10.5 5c-1.7.5-2 .1-2.2-3.4-.2-6.1-3.4-8.9-6.3-5.5q-1 1.3-.2 1.5c.5 0 .9 1.4.7 3.1-.2 2.8-.8 3.4-4.6 4.9-2.4.9-6.3 2.8-8.6 4.3a23 23 0 0 1-5.2 2.7c-2.7 0-24.9 20.9-27.6 26q-3.2 6.3-.1 9.9c1.9 2.1 1.9 2.2-.3 6.2-2.1 3.7-2.2 4.1-.7 6.4a9 9 0 0 1 1.6 4c0 3 3 7.5 5 7.5q1.8.1 2 1.4c0 .8 2.3 3.8 5 6.6 5.4 5.6 6.1 7 3.1 7q-3-.1-7.9 9.5t-11.8 10.9c-3.4.6-10.4 5.5-10.4 7.2a31 31 0 0 0 6.5 9.8c.8.3 1.5 1.8 1.5 3.3 0 1.6.6 3.7 1.4 4.8s1.9 3.8 2.6 6 2 5.1 2.9 6.5a43 43 0 0 1 3.6 8.5c3.5 11.5 4.2 13 7 14.4l2.9 1.4-4.4 3.7c-3.9 3.4-4.5 4.3-4.5 8 0 3.6.6 4.6 4.3 8 4.6 4.3 5 5.6 2.7 10-.8 1.6-1.7 5.3-1.9 8.2-.3 2.9-1.5 8.7-2.7 12.8l-3.6 13c-.8 3-3.2 8.4-5.3 12q-11.3 19.2-10.4 21.4c1 2.6 6.7 5.5 14 7 3.8.8 8.3 2 9.9 2.7a75 75 0 0 0 15 3.5c5.6 1.1 13 .7 19-.9 3.3-1 8-1.9 10.5-2.2 8.3-.9 11.5-1.7 13.3-3.2 2.4-2.2 2.1-3.9-1.2-8.2a117 117 0 0 1-6.2-9.6 29 29 0 0 0-4.5-6.7c-.6-.4-1.5-2.5-1.9-4.5-.4-2.1-1.3-4.9-2-6.3-2.5-4.8-6.8-22.2-8.6-34.5l-1.4-9.6q-.4-2.7 1.1-4c.8-.7 2.2-2.6 3.1-4.2 1.2-2.5 1.3-3.7.3-7.4-.7-2.4-2-4.8-2.9-5.3-1.5-.8-1.4-1.3.2-5.7 1-2.6 3.1-9.1 4.7-14.2 1.6-5.2 3.6-10.9 4.4-12.5a90 90 0 0 0 6.2-17.1c.3-3 1.1-6.1 2.3-8.4 1.6-2.8 1.4-3.8-1.1-6.3q-2.8-2.7-.2-1.3c1 .4 6.2.9 11.4 1 7.6.2 10.8.8 16 3 3.6 1.4 10.6 3.7 15.5 5 15.5 4.1 23.9 6.7 27 8.3l5.8 2.9c1.5.8 3.2 1.1 3.7.8 1-.6 1.4.1 2.4 4.5.7 3.4 9.3 12.3 11.1 11.6q1.6-.6 1.5 2c0 1.6 1.9 4.7 5.3 8.5 2.8 3.3 5.2 6.7 5.3 7.7.2 2.9 1.5 6.2 2.5 6.2.5 0 .9.9.9 1.9 0 1.1 1 2.8 2.3 3.8s2.7 3 3 4.4c.8 3.3 7.1 9.7 10.3 10.5 2.4.6 8.4-1.2 8.4-2.6 0-.4 1.1-1.9 2.5-3.4q4.5-5.1.5-6.3c-2.3-.6-2.2 0-2.4-16.3l-.1-12.5-4.2-6.5a34 34 0 0 1-4.3-7.8c0-.7-.8-3.1-1.9-5.5-2.6-5.7-4.7-18.5-3.4-19.8.6-.6 2.8-1.2 4.9-1.5a146 146 0 0 1 20.2-1.9c9.3-.3 11.6-.7 16-2.9 2.8-1.4 5.7-2.6 6.4-2.6 2.2-.1 6.8-4.8 8.4-8.6a33 33 0 0 0 1.5-10.7v-9c0-1-.5-4.3-1.1-7.3-1-4.8-.9-5.8.4-7.3 2.4-2.7 2-7.5-1-11.1-2.6-3-11-8-13.6-8-.6 0-2.1-.8-3.2-1.9a78 78 0 0 0-14.9-8 8 8 0 0 1-3.8-3.4 9 9 0 0 0-4.5-4c-1.9-.9-3.4-2-3.4-2.4 0-.5 2.1-1.6 4.8-2.5q4.7-1.7 6.5-4.7c1-1.7 2.6-3.5 3.6-4.1a26 26 0 0 0 5.5-5.8l3.7-4.9 3.3 3.1c7 6.6 9.7 8.6 12.3 9.2 1.6.4 3.8 1.3 5.1 2q2.2 1.5 4 .6c.9-.5 2.2-.8 2.8-.5.6.2 1.7-.3 2.4-1.2q2.5-3.4 3.5 1.2c1.6 6.8 5.6 9.3 7.6 4.9 1-2.1 1.4-2.2 3.9-1.3 3.5 1.3 6 .3 6-2.4q0-2.2-1.5-1.5-1.5.5-3.1-2.5c-1.3-2.7-2-3-4.5-2.5-3.1.6-3.5-.1-4.1-6.9-.4-3.8-4.6-5-5.5-1.5a5 5 0 0 1-2.7 3.1c-1.1.6-3.2 1.6-4.6 2.5q-4.5 2.7-10.6-2.4-9-7.4-11.8-6c-1.4.8-1.6.4-1.2-3.7.2-2.5 1-5.3 1.8-6.3s2.5-6 3.7-11.2a70 70 0 0 1 3.6-11.5c2.7-4.5 3.2-10.2 1.9-26.5a82 82 0 0 0-5.4-28q-.1-1.9-1.7-2c-1.4 0-1.5-.2-.1-1.8 5.3-6-9.9-27-25.2-34.7l-9.5-4.8a41 41 0 0 0-14.3-5.5c-.9.1-2.8-.5-4.2-1.5-1.3-.9-3.6-1.7-5.1-1.7s-3.2-.7-3.9-1.5q-2.8-3.2-7.4-1.6L382 443l2 3.2c1.1 1.8 2 4.1 2 5.1 0 5.6-6.3 10.7-15 12.2-4.7.8-11.4 3.7-12.5 5.5-.9 1.4-2.5 1.2-2.5-.3 0-1.9-4-5.3-7.2-6.1-1.5-.3-3.9-1.6-5.4-2.9-2.2-1.9-2.5-2.7-1.6-4.3.6-1 1.6-3.4 2.2-5.2 1-2.5 1.7-3.1 3.1-2.7q2.6 1 2-3.3c-.3-2.1 1.6-1.3 2.2.9.7 2.6 5.3 2.3 5.1-.4q-.3-1.7 2.7-1.7 4.7-.2 1.7-2.7c-3-2.5-10.7-2.4-12.9-1.3-1.6.9-2.2.5-3.9-2.2a24 24 0 0 1-2.6-5.8c-.3-1.4-.9-3.2-1.4-4.1s-1.4-4.4-2.1-7.9c-1-5.2-1-6.3.2-7.1q1.6-.7.1-2.1c-1.4-1.4-1.6-7.4-.2-8.3q1-.4 1 1.9c0 3.6 1.6 3.2 2.9-.6 1-2.8 1.2-3 2.4-1.4.7.9 2.8 1.8 4.7 2s4.2.5 5 .9c3.3 1.2 6.5 1.6 7.4.8.6-.5 3-1.1 5.2-1.5 3.7-.5 4.2-.3 4.7 1.5q.6 2 1.9 1.7c1-.4 1.4 1.4 1.6 7.5q.1 8.3 1.6 8.9 1.2.7.9 3.3-.6 2.5 1.1 3.1c1.7.7 2.3 5.9.7 6.9-.5.3-1.2 1.9-1.6 3.6-.6 2.5-.9 2.8-2.2 1.8-1.2-1.1-2-.7-4.6 2.2-4.7 5.1-13.6 8.1-17.7 5.9-2.9-1.6-4.5-.2-2.4 2.1 1.2 1.4 3.1 1.9 6.7 1.9 4.8 0 7.5-1.3 12.9-6.2q4.4-4 6.9-2.5c1.4.9 1.4 1.2-.3 2.9-2.2 2.2-1.7 7.1.8 9.8 1.2 1.2 1.6 1.2 3-.2 2-2 2.7-9.8.9-10.4-1.4-.6-1.7-5.4-.4-5.4.5 0 .9-1.4.9-3q0-4.7 2.7-1.9c.8.8 1.9.7 4.1-.3 2.4-1.3 3.2-1.3 4.7-.2 2.6 1.9 5.9-.9 4.5-3.7-1.8-3.3-1.2-8.7 1.1-10.3 1.9-1.3 2-1.9 1.1-4.3-.6-1.5-1-4.2-.9-5.8.1-1.7-.2-4.5-.7-6.2-.7-2.9-.5-3.2.9-2.6q2 .9 1.1-1.3l-1.6-7.3c-.5-3-2.1-7.4-3.5-9.9a18 18 0 0 1-2.5-6.4q-.1-1.8-2.5-2.8c-1.4-.5-3-2.1-3.7-3.5-.9-2.1-.8-2.7 1.3-4.4 1.3-1.1 2-2.1 1.4-2.2l-14-1.4c-4.5-.4-8.7-1.4-9.7-2.2-1.4-1.3-2-1.2-4.7.2-1.8.9-3.5 1.3-4 1.1-1.5-1-1.8-6.6-.4-7.7 1.6-1.4 1.7-12.3.3-23.1-.5-4-1.5-19.9-2.1-35.3-1.2-29.1-1.3-31.3-1.1-53.5.1-7.4-.1-15.5-.4-18s-.6-23-.8-45.5c-.3-40.2-.4-41.1-2.6-46.8l-2.4-5.9 3.3-5.9c2.8-5.2 3.4-7.3 4.1-16.7q1.3-17.3 4.6-17.2c1.8 0 1.8 1-.2 7.7q-3 9.7 2.1 14.3c3.1 2.9 3.1 3.8.2 7.8a28 28 0 0 0-5.3 17.5c.8 4.5 4.5 8.9 9.1 11.1 3.3 1.6 3.5 1.9 3 5.4a14 14 0 0 0 7.2 13.2q3.3 1.4 4.4 5c2.5 7.7 8.8 10.4 13.6 5.8 3.5-3.3 3.9-1.4 1 4.5-2.9 5.5-3.6 13.1-1.7 16.7.6 1.1 2.8 2.4 5 3 4.7 1.3 5.1 3.3 2 10.1s-2.6 11.9 1.3 17.1c2.6 3.3 4.2 4.5 7.5 5.2 3.7.8 4.5.6 6.7-1.4 1.3-1.2 3.3-5.2 4.5-8.9 2.6-8.4 2.8-8.7 7.2-10.5 4.3-1.8 5-3.5 4.8-11.8 0-3.5.2-8.2.6-10.5.4-2.6 0-6.1-.9-9.3-1.5-4.9-1.4-5.2.5-6.8 4.8-4 6.5-11.7 4.7-21.6-.8-5-.8-7.1 0-7.9 2-2 1.2-7.4-1.5-10.7-2.3-2.7-2.5-3.4-1.5-5.6 1.9-4.2 1.3-9.6-1.9-15.3l-3-5.3 2-2.6c3.6-4.5 2.3-11.4-3.1-17.3-2.2-2.3-3.9-4.9-3.9-5.8q0-1.6 2.5 1.4a19 19 0 0 1 2.5 3.7c0 .4 1.4 1.4 3 2.3 2.3 1.2 3.5 1.3 5 .5 2.4-1.3 2.6-.9 3.4 7.4q.6 6 3.5 10.1c2.6 3.9 2.8 4.8 2.4 11.6s-.2 7.9 2.9 13.9c3.3 6.5 8.2 11 12 11 1 0 3-1.1 4.3-2.4 2.3-2.3 2.3-2.3 2.9-.2.3 1.1.6 2.9.6 3.9 0 6.6 8.9 14.7 16.1 14.7 5.1 0 10.2-3.5 12.8-8.8 2-4 2.1-5.9 2.1-28.6 0-23.4-.1-24.5-2.5-31.7-3.3-9.5-3.4-12.8-.6-21.4 3-9 3.8-23 1.6-25.5-1.2-1.4-1.3-2.3-.5-4.5.8-2.1.8-4.1-.1-7.5-1-3.9-.9-5.1.5-7.7 1.9-3.7 2.1-10.9.3-13.9-.7-1.1-2.5-3.7-4.2-5.7C491.9.5 491 0 487.1 0c-3.7 0-4.2.2-3.1 1.5q1.2 1.3 2.2.9c1.2-.8 3.8 1.5 3.8 3.4 0 .8.7 2 1.5 2.6C495 11 494.1 25 490.4 25c-1.9 0-1.8 2.4.1 4s1.9 8.9 0 11.4-1.9 4.6-.1 4.6c1 0 1.3 1.1 1 4.2l-.8 12.3c-.5 9.6-1.8 12.8-5.9 14.6s-4.2 4.3-.2 4.4c2.9 0 3.1.3 4.3 6 .7 3.3 2.2 9.1 3.5 13 1.8 5.7 2.2 8.9 2 17.8-.2 9.7-.1 11.1 1.9 13.7 2 2.7 2 3.3.9 7.2l-2.1 6.3-.9 2-.2-2c-.5-5.3-.7-6.3-1.3-7.4q-.6-1 1.3-1.1 4 0 .1-3.5c-4.3-3.9-9.8 1.1-6.6 6 2.9 4.5 1.2 18-2.2 17.3-2.2-.4-6-6.2-6.8-10.4a52 52 0 0 1 5.7-20.9c1.8-1.2 4-6.6 3.4-8.6a8 8 0 0 0-2.9-3.4c-1.9-1.3-2.6-1.3-5.9.2-3.6 1.7-4.9 4.4-2.6 5.8q1 .8-1.1 3c-1.8 2-2.6 2.2-4.1 1.2q-5-3.1-3-12.3a64 64 0 0 1 11.7-22.7c3.1-2.4 3.1-4.7 0-4.7q-2.3.1-5-4c-4.5-6.8-3.5-16.2 2.5-25.3 2.3-3.5 2.9-5.4 2.5-7.2-.7-2.7-3.4-3.3-5.4-1.3-3.3 3.3-4.4-6.9-1.2-11.7s2-12.7-2.1-14c-2.8-.9-7.5 2.1-8.9 5.7-2.6 7.1-3 7.8-4.4 7.8-2.6 0-3.9-3.9-3.2-9.3q1-7.2 7.7-20l2-3.7h-9.8l-3.6 7.2a42 42 0 0 0-5.7 19.9c0 3.7.7 5.4 3.6 9.2 3.2 4.1 4.1 4.7 7.5 4.7 2.1 0 4.1-.5 4.4-1 1.3-2.1 2.5-.9 2.5 2.5 0 4.2 1.9 8.5 3.7 8.5s1.7 4-.3 6.1c-2 2.3-3.8 13.6-3 19.3q.7 4.6 3.7 7.5l3 3-3.9 5.8a52 52 0 0 0-5.2 9.5c-.6 2.1-1.5 3.8-1.8 3.8a28 28 0 0 1-4.7-3.5l-4-3.4-.1-13.4a80 80 0 0 0-.8-14.5c-1.1-1.8-4-1.4-6.4.8-1.6 1.5-2.2 3.2-2.2 6.5 0 11.5-6.5 2.8-7.7-10.3l-.6-6.7 3.2 2.8c3.9 3.2 4.6 3.3 8.8.8l3.1-2 1.6 2.5c2 3 6.5 3.2 9.1.4 1.7-1.9 1.7-2.1 0-4.6a14 14 0 0 1-1.6-8c.1-7.9-3.1-10.4-8.2-6.4-2.4 1.9-2.5 2.5-2 7 .5 4.1.3 5-1 5-1.8 0-5.8-6.4-6.3-10.3-.2-1.5-.6-3.3-1-3.9-1.8-2.9-.2-14.6 3.2-23.8 3.7-9.8 5.5-17.5 4.7-19.7q-.7-1.2-5.5-1.3c-4.8 0-5 .1-4.4 2.4.3 1.4.2 2.7-.4 3.1q-.8.6-.3 2.1c.5 1.4-3.1 13-4.6 14.7-.4.4-1.5-2.3-2.6-5.9-2.3-8-8.2-15.4-12.4-15.4-3 0-7.1 2.5-7.1 4.3.1.7 2 2.4 4.3 3.9 4 2.5 4.4 3.3 7.6 13.2a37 37 0 0 1 2.8 14.2c-.3 2-.8 3.9-1.1 4.2-.9.9-4.5-4.2-4.6-6.4a8 8 0 0 0-1.4-4c-1.5-1.9-1.5-1.9-5.3.1-4.5 2.4-5.1 4.7-2.9 11.2 3.2 9.4 1.4 19.3-3.6 19.3q-2.2.1-1.5-2 .4-1.8-.4-2c-1.5 0-1-8.4.7-10.8a8 8 0 0 0 1.2-4.5c-.3-1.9-.9-2.2-4.1-2q-6.6.3-1.4-4.7 2.3-2.2.5-1.5-4.2 1.7 1.8-4.8c1.3-1.4.2-5.1-2.3-7.9-1.2-1.3-2-1.5-3.9-.6-3.4 1.6-3.8.6-2.3-4.9q1.4-4.8 6.2-9.7c2.6-2.8 4.7-5.1 4.7-5.3s-1.5-.3-3.3-.3c-2.7 0-4.3 1-8.8 5.7-6.3 6.5-8.9 11.4-8.9 16.6 0 2-.9 5.2-2.1 7.1-1.7 2.9-2.4 3.4-3.9 2.6a10 10 0 0 1-3-4c-1.1-2.7-1-3.8 1-8.8 2.8-7.2 2.8-9.9-.2-12.9l-2.5-2.4-3.9 2.2c-4.8 2.8-5 3.2-5.8 8-.3 2.2-1.1 3.9-1.6 3.9-1.3 0-.2-5.6 2.1-10.7 1-2.4 1.9-4.7 1.9-5.2s.6-1.2 1.3-1.4c.6-.3-1-.6-3.6-.6-4.4-.1-4.9.2-6.8 3.4-1.2 1.9-2.5 3.5-3 3.5s-1.1-1.6-1.5-3.5C350.8.2 350.5 0 347 0q-6.7.1-3.5 6.8c.8 1.5 1.6 3.5 1.9 4.4q.5 1.8 3.6 1.8c2.7 0 3 .3 3 3 0 2.3-.6 3.3-2.5 4s-2.5 1.7-2.5 4c0 3.4 0 3.4-3.5 1.8-2.3-1-3.3-3.7-1.9-5.1 1.2-1.1 1.2-7 .1-9.1L340 8c-.9-1.7-5.7-1.7-7.3-.1-.6.6-1.4 3.8-1.9 7.3q-.8 6.2-2.8 8.2c-1.9 1.9-1.9 1.9-3.2-1a44 44 0 0 1 .1-20.2l1.2-2.2h-20.3c-18.3.1-20.1.2-18.3 1.6 1.1.8 2 2.1 2 2.8 0 .8 1.7 3 3.8 5.1 3.5 3.4 5.2 8.3 2.5 7.2q-1.2-.4-1.4 2.2 0 2.2.3 1.3c.7-1.8 2.3-.4 2.3 1.9 0 1.9-.1 1.9-2.2.5q-4.3-3-7.2 0c-1.4 1.4-1.7 1.4-2.2 0a2 2 0 0 0-2.2-1q-1.3.4.4-.7c2.9-1.5 4.8-5.7 3.4-7.4-.6-.7-3.1-1.8-5.5-2.4-4.8-1.2-6.2-3.6-5.3-8.6.5-2.3.2-2.5-2.8-2.5-2.9 0-3.4.4-3.4 2.2m43.8 15.5c.1 2.6 1.1 6.2 2.2 8 1.7 2.9 1.8 4 .9 8.3-1.1 5.1-3.3 8.5-5 7.5q-.8-.7-.9-2.4c-.1-1.7-.3-2.1-.7-2.5-1.8-1.7-2.1-15.2-.4-16.9q1-1 0-2.9c-1.2-2.2-.4-3.8 1.9-3.8 1.3 0 1.8 1.1 2 4.7m-66.1 1.8c.3.9-.1 2.3-.9 3.3s-1.8 3-2.2 4.6l-.7 3-3-5.4a33 33 0 0 1-2.9-6.2c0-.4 2-.8 4.5-.8q4.6 0 5.2 1.5m-12.3 8c2 4.2 3.4 8 3.1 8.5s-2.4 1-4.6 1c-3.6 0-3.9-.2-4-2.8l-.5-7.7c-.7-9.9.8-9.7 6 1m133.6-5q0 1.4-1 1.5-.9-.1-1-1.5c-.1-1.4.5-1.5 1-1.5q1 .1 1 1.5m-12.1 1.9c.6.8 2.5 1.9 4.1 2.6 3.3 1.4 3.9 3.4 1.4 4.8-1.6.9-9.4 11.9-9.4 13.3s-8.2 13.2-10.5 15.1c-1.1.9-2.8 1.5-3.7 1.2s-2.6.1-3.7.8c-1.6 1-2.3 1-3.3 0-1.8-1.8-4-11.4-2.9-12.5.5-.5.7-1.7.4-2.6q-.3-1.1 2.3 2.2c2.8 3.6 3.1 3.8 7.8 3.4 4.1-.4 5.3-1 8.3-4.3 5.1-5.7 7-12.3 4.2-15.1-.8-.8-.4-2 1.5-4.5 2-2.7 2.3-3.7 1.4-4.6q-1.2-1.2-.1-1.2 1.1.1 2.2 1.4M335 27.3l-3 6.2q-2.8 5.9-3 3.8c0-1.2-.3-2.8-.6-3.7q-.6-1.5 2-2.7c1.4-.7 2.6-1.8 2.6-2.6q.1-1.2 1-1.3 1 0 1 .3m56 3-2 4.2c-2.4 4.8-2.5 7.3-.4 10.4 1.4 1.9 1.5 2.9.5 6.3-1 3.3-1.5 3.7-2.7 2.8-.7-.7-1.9-2.9-2.5-5-.9-3.1-.8-4.7.6-9.1 2-5.9 4.2-9.9 5.6-9.9q.8 0 .9.3m-104.8 3.4a29 29 0 0 1 3.8 11.4c0 .8-.9 2.5-1.9 3.8l-1.8 2.4-1.9-2.1q-3.8-4.9-6.8 1.9c-2.5 5.1-2.4 10.1.3 13.5 2.3 3 2.7 8.3 1 13.3-.6 1.8-1.6 3-2.2 2.8-1.8-.6-3-6.9-1.8-8.9 1.7-2.7 1.4-3.3-2.9-5.2-2.2-1-4.5-2.6-5.1-3.7-1.3-2.4-1.5-12-.4-17.8l.8-4.3 4.6.6c4.3.5 4.7.4 5.9-2.1.6-1.5 1.2-3.4 1.2-4.3s.3-2 .7-2.3c1.2-1.3 5-.7 6.5 1m56.5.9c2.6.7 3.5 3.7 2.2 7.2q-1.8 5-5.1 3.1c-1.8-1-2.5-6-1.2-9.3.7-1.8.9-1.8 4.1-1m27.5 3.7c.8 1.6.7 2.3-.7 3.3-.9.7-1.5 2.1-1.3 3.1q.3 1.8-2.7 3.3c-3 1.5-3.3 2.6-2.2 7.2.5 1.9.2 2.3-1.9 2.5-4.3.2-4.9 1.6-3.4 7.7 1.3 5.3.8 8.2-1.1 7-.6-.3-1.9.3-2.9 1.4-1.4 1.5-1.7 2.9-1.3 6 .3 2.2.3 5.2-.1 6.6l-.6 2.5-3.7-2.5-3.7-2.5-2.5 2.6-2.5 2.5 4.3 4.4c3.3 3.3 4.4 5.4 4.7 8.2.2 2 .1 4.1-.2 4.5-.7 1.2-6.1-1.7-7.4-4-.5-1.1-2.3-2.2-3.9-2.6q-3-.5-3.9-3.5c-.6-1.5-.8-3.1-.5-3.4q.5-.5-.5-.6-1.4-.3-2.6-3.2c-1.9-3.7-1.9-3.8-.6-3.8q1 .2 1 1.5c0 1.3.9 1.5 1.9 1.5 2.3 0 3.8-3.7 2.2-5.3-1.7-1.7-1.3-3.6.7-3 2.2.5 4.7-2.1 3.9-4.1-.3-.8.1-2 .9-2.6s1.4-1.9 1.4-2.6 1.2-2 2.8-2.8c4.4-2.4 11.9-10.2 12.6-13.3.4-1.5 2-4.8 3.5-7.3s3.5-6.2 4.4-8.2q2.9-6 5.9-.5M423 54.5c-.7 2.1-.8 5.7-.4 9.5l.7 6-3.4-3.1c-2.8-2.6-3.9-3-6.7-2.5-3.4.5-6.2 2.2-6.2 3.6 0 .5 1.3 1.3 2.9 1.8 5 1.7 7.8 9.4 4.9 12.9-1.5 1.8-.2 4.3 2.1 4.3 1.9 0 5.5 4 8.1 8.9.9 1.8.9 3.4 0 6.9-1.3 5.3-2.6 6.5-5.2 4.9q-1.8-1.3-3.5-.1c-2.4 1.5-3 3-4.4 11.2-1 5.9-1.7 7.7-3.7 9-3 2-3.9.8-4.7-6.3-.7-5.2.9-11.4 4-15.8 1.7-2.5 2-6.3.4-7.2-2.1-1.4-6.8 1.7-8.6 5.6q-2.9 6.4-3.5 2.1c-.3-3.2.2-5.3 2.1-9.5 3.3-7.3 3.5-8.7 1.3-8.7-1.1 0-3.1.9-4.6 2.1q-4.7 3.9-4.6-2.6c0-4.9 1.3-7.5 6.3-12.8q4.6-5 4-6.7-.6-2 1.1-2c2.4 0 10.1-3.8 13-6.5q2.5-2.3 3.1-6.9c.6-3.9 1-4.6 2.5-4.1 1 .3 2.2 0 2.7-.7 1.3-2.1 1.6 2.8.3 6.7m-107.6-5q-.8 1.4-3.1 1.5c-2.2 0-2.4-.2-1.3-1.5.7-.8 2.1-1.5 3.1-1.5q1.8 0 1.3 1.5m57.6 5.1q0 1.3-1 .9c-.5-.3-1-1.3-1-2.1s.5-1.2 1-.9 1 1.3 1 2.1m-67.9 6.7c-1.2 1.2-4.1-.8-4.1-2.9 0-1.2.5-1.1 2.6.2q2.6 1.6 1.5 2.7m90.5-1.6c.4 1.6 1.1 3.4 1.7 4q1.1 1.4-1.9 1.3c-2.7 0-2.9-.3-3-4-.2-4.7 2.2-5.6 3.2-1.3m-11.8.3q1.3 0 .6 2.2c-.4 1.3-.7 3-.7 3.8s-.8 2.7-1.8 4.2c-3.4 4.7-2.1 7.9 1.9 4.8 5-4 5.6-1.9 1.2 4.2-2.5 3.4-3 5.1-3 9.6s-.3 5.3-1.5 4.8c-2.3-.8-7.4 4.1-8.5 8.5-2 7.2-7 4-7-4.5 0-4.8 4.1-12 9.5-17 4.3-3.8 4.6-4.5 3.6-6.4-.6-1.2-1.8-2.2-2.6-2.2q-2.8 0-.1-5.1a34 34 0 0 0 2-5.3c.6-2.3 1.1-2.7 2.9-2.2 1.2.3 2.8.6 3.5.6m-87.5 7.1q1 1.4-1.3 4.9-2 3-1.6 1.7a6 6 0 0 0-.5-3.9c-2.1-3.9 1-6.4 3.4-2.7m29.4.5q.6 1.3 1.9 1.4t1.4 1q-.2 2-4.2-.1c-1.8-1-2.4-.8-4 1.2l-1.8 2.4-2-2.5c-2.6-3.3-2.5-3.4 1.3-4.6s6.7-.7 7.4 1.2M304.1 71c2.8 1.6 2.3 3.2-.6 1.8-1.4-.6-2.5-1.5-2.5-2 0-1.1.7-1 3.1.2M326 81.4q-.2.8-2-1.4c-2.6-3.3-2.5-5.2 0-2.1 1.1 1.3 2 2.8 2 3.5m-13.9 2.2c1.1 2.6 1.8 4.9 1.5 5.1-.8.8-4.6-5.5-4.6-7.6q-.1-5 3.1 2.5M323 89q0 .9-.4 1-.5-.1-1.1-1-.4-1 .4-1 1 0 1.1 1m-33 .8c0 1.1-3.7 3.2-4.4 2.5-.8-.9 1.4-3.3 3-3.3q1.3 0 1.4.8m17.7 4.9c1.6 1.5 1.7 4 .1 4.5-1 .4-.9 1.4.1 4.7 1.2 4 1.1 4.4-.8 5.8-1.2.8-2.1 2.1-2.1 2.9 0 2.2 4.7 6.5 6.3 5.8q1.4-.4 2 .9.5 1.5-1.5 2c-1.7.5-2 1.1-1.5 3.6.5 2.4.2 3.1-1.3 3.6q-5.8 1.9-1 8c1.6 2.1 2.7 4.2 2.3 4.9-1.9 3.4-2.5 3.5-5.4 1.4q-2.8-2.1-1.8-2.9c1.5-.9.2-2.9-1.9-2.9-1 0-2.8.7-4.1 1.7-2.3 1.5-2.3 1.7-.6 2.9 1.7 1.3 1.5 1.6-2.5 5.2-3.4 3-4.1 4.2-3.6 6 .7 2.2 3.6 3.1 3.6 1.2 0-1.6 3-1.1 3.7.6.3.9 0 2.6-.7 3.7-1 1.7-1 2.3.6 3.4 2.2 1.6 5 1.7 6 .1q.7-1.1 1.6 1.1c.8 2.2 1 2.2 3.1.8 2.2-1.4 2.3-2.2 2.6-12q0-6 3.9 2.1c2.8 6 3 10.6.4 9.8-3-1-4.6 3.3-3.8 10.1s1.4 15.2 2 27.9c.4 9.5.9 11.4 3 11.4.7 0 1.9 2.1 2.6 4.7 1.2 4.4 1.3 8.6.8 23.8q-.1 5 2 9.8c1.9 4.3 2.3 4.7 4.2 3.7q2.2-1.4 2 .5a9 9 0 0 1-1.6 4c-1.4 2.2-1.4 2.6.4 5.2 2.6 3.9 8.2 13.3 8.2 13.9q-.2.3-2.2-1c-2.9-2-6.4-2-7.2 0q-1.7 4 1.3 4.9c1.1.3 3.6 1.9 5.7 3.6q3.6 2.8 5.5 2.4c1.3-.4 2.4.5 4.3 3.8 3.2 5.3 3.2 6.4.5 6.3-3.6-.2-4.5 2.7-2.1 6.2 2.7 3.7 2.7 3.8.1 4.5-2 .5-2 .6.6 5.4a57 57 0 0 0 4.1 6.4c1.3 1.4 1.2 1.8-.1 2.9q-2.6 2.3-3.2-2.1a31 31 0 0 0-10-15.2q-1.4-.9-3.4.9c-2.5 2.3-2.4 2.7 1.1 6.6 1.7 1.8 3 3.7 3 4.3q0 1 1.2 2.3c1.3 1.3 3.9 8.4 3.3 9-.2.2-1.5-.4-3-1.4-2.6-1.7-2.8-1.7-4.1.1-1.8 2.5-1.8 3.7.4 5.6l4.5 4.7c1.5 1.8 3.1 3.2 3.7 3.2 1.5 0 2.9-3.5 2.4-5.7-.7-2.6 1.2-3.9 3.1-2.3 2.3 1.9 4.8 7.4 3.5 7.8q-.9.4-1 1.8c-.1 1.4-.7 1.4-1.6 1.4-1.9 0-1.4 3.5 1.3 8.7 1.6 3 1.6 3.3-.2 5.3-1.5 1.7-1.6 2.4-.6 4.6q1.8 4.2-1.3 4.4c-.6 0-3.3 1.3-5.8 2.9-3.3 2.1-4.9 4-5.8 6.7a13 13 0 0 1-3.6 5.6c-1.2 1-2.7 3.3-3.3 5.1-1.2 3.9-1.3 12.5 0 13.2q.7.6-.3 2.5c-1 1.6-.8 2.3 1.1 4.4s2.3 3.2 1.8 6.2c-.4 2.1-.2 4.3.3 4.9a16 16 0 0 1 1.6 6.1c.8 5.8 2.1 7.7 4.6 7.1q1.8-.6 3.5 2c1.7 2.5 1.6 2.6-1.9 5.7-6.1 5.2-9.5 7.6-11 7.6-.7 0-4 1.3-7.3 2.9-3.7 1.7-6.6 2.6-7.5 2.1-2.8-1.4-11.7 3.5-15.1 8.4q-5 7-4.9 1.2c0-1.2-.4-2.6-1-3.2-2.5-2.5-2.9-101.5-.4-100.6.5.2.8 1.3.6 2.5-.4 3.5.6 5.1 2.2 3.7q1.5-1.1 1.1-6.1c-.4-5.9-1.2-7.2-3.6-6.6-1.5.4-1.9 0-1.9-2.3 0-2.5.5-3.1 3.8-3.9 2-.6 4.7-1.1 5.9-1.1 4.7 0 4-5.7-.9-6.7q-3.5-.6-1.4-1.5c2.1-1.2 2-5.5-.2-6.7-.9-.5-3-.7-4.5-.4q-2.6.5-2.7-.6c0-.6 1.1-1.1 2.5-1.1q2.4-.1 3.2-1.6c.9-2.4-1.1-5-3.6-4.6-2.2.3-2.9-2-1.2-4.6q.9-1.6 1.4.7c.6 2.3 4.2 2.9 5 .8.2-.6 0-2.3-.4-3.6-.7-1.9-1.4-2.2-3.4-1.7-2.1.5-2.5.3-2.5-1.4q.1-2 1.3-1.9c3.6.5 4.8-.2 4.5-2.4q-.2-2.3-3-2.5-2.7-.4-2.8-1.8 0-1.6 2-.9c1.6.5 2 .2 2-1.9q0-2.5-1.5-2.6c-1.1 0-1.5-1.2-1.6-4.8l-.3-7.7-.6-20-.4-17 3.2-.3q3.3-.2 3.2-2.1c0-2.6-2.5-4.4-5-3.6q-1.8.6-2-.4.1-1 1.3-1.1c.6-.1 2.3-1 3.6-2.1 2.4-2 2.4-2.1.7-5-.9-1.6-1.4-3.5-1-4.1.4-.7 1-2.8 1.4-4.8.5-3 .9-3.5 3.7-3.8 3.7-.4 6.8-3.4 5.9-5.8q-.5-1.7-3.4-1.1a11 11 0 0 1-4.5-.2q-1.9-.7 4.5-2c3.5-.8 6.6-1.9 7-2.5s-.2-2.5-1.4-4.4c-1.9-3.1-1.9-3.4-.3-5.2 2.7-3 .3-5.3-4.9-4.8q-4 .4-7.4-1.4c-1.8-1-4-1.8-4.8-1.8-1.4 0-1.5-.9-.9-5.5.4-3.9.2-6.4-.8-8.7a23 23 0 0 1-1.5-15.3c.9-4.5.8-5.8-.5-7.8-1.4-2.2-1.4-2.4.4-3.5q2-1.3 1.9-4.6c0-2.8.4-3.5 2.2-3.8 2.2-.3 3.7-3.9 4.1-9.8.2-2.2-.3-2.6-3.8-3.1q-4-.6-1.4-.8c4.7-.2 6.3-5.2 2.5-7.3-1.6-.9-1.6-1.2-.3-2.6.9-1 1.9-2.9 2.2-4.5.4-1.5 1.1-2.7 1.5-2.7 1.5 0 1.7 5.9.2 7.3-1.2 1.2-1 1.7 1.3 3.6q5 3.8 4.3-1.9c-.1-1.5.3-3.4 1-4.2 2.4-3 2.6-7.4.2-9.8q-3.4-3.5.8-3.5c2.1 0 2.8-3.1 1.2-5a6 6 0 0 0-3.9-1.5l-2.6-.1 2.5-1.4c1.4-.7 2.6-1.8 2.6-2.4l.3-1.6c.1-.6 4 1.5 5.8 3.2m80.1 3.3c1.5 0 1.5.6 0 4.6q-1.2 3.3-.1 5.6c.9 2.1.6 2.5-3.4 4.5-2.3 1.2-4.3 1.8-4.3 1.3s.9-3.7 2.1-7q2-6 1.4-9.3c-.7-3.1-.7-3.2 1.2-1.5 1.1 1 2.5 1.8 3.1 1.8m-95.8 8.4q-.2 1.3-1.5 2c-1.7.6-1.8.4-.9-1.8.8-2 2.4-2.1 2.4-.2m41 1.6c0 2.3.4 2.4 2.9 1 1.4-.7 2.4-.3 4.2 1.6l2.4 2.5-2.5 1.9c-2.1 1.6-2.2 2-1 3.5q1.3 1.6 4.2 1c1.5-.4 2.8-.3 2.8.2 0 1.7-5.9 6.6-7.3 6-.7-.3-3.2-4.2-5.5-8.7-3.3-6.4-4-8.6-3.1-9.6 1.6-2 2.9-1.7 2.9.6m-15 3.6q0 1.3-1 .9c-.5-.3-1-1.3-1-2.1s.5-1.2 1-.9 1 1.3 1 2.1m107.8 5.7c1.9 6.4 1.3 11.1-1.5 11.5q-5.6.9-3.3-11c1.5-7.6 2.7-7.8 4.8-.5m-77.8-3.2c0 1.8-.2 1.9-1.5.9-1.5-1.2-1.2-3 .6-3 .5 0 .9 1 .9 2.1m45.4 7.5c-.5 6.4-.4 7.4 1.4 9.2l2 2-2.4 2.1c-2.8 2.5-6.4 3-4.5.7q1.3-1.5 0-2.2-1.2-.5-2.5 1.1c-1.2 1.7-1.4 1.7-2 .1-1-2.6.4-7.8 2.8-10.3 1.6-1.7 2.2-3.6 2.2-7.2.1-4.4.3-4.7 1.9-3.7s1.7 2 1.1 8.2m63.3-5.5c-.6 4.6 1.1 9.5 4.2 12.3 1.4 1.3 3.1 1.7 6.1 1.4l4-.3-1.5 4q-1.3 3.5-1.5 2.3 0-3.9-4.8-1.4c-3 1.5-3.7 1.3-6.5-2-1.3-1.6-1.9-4.5-2.3-11.3-.5-8.2-.4-9.1 1.1-9.1s1.7.7 1.2 4.1m-80.4 5c1.8.8 3 .8 4.7-.1 1.2-.6 2.4-.9 2.7-.6q.3.6-2.1 1.7a6 6 0 0 0-3.2 3.6q-.6 2.3-2.8 2.3-5.4.2-8.1 9.7-1.1 4.3-3.9.1c-3.4-4.8-1.2-14.5 4.6-20.5l3.2-3.3 1.2 3a9 9 0 0 0 3.7 4.1M326 119c0 .6 1 2.1 2.3 3.3 2.3 2.4 4.7 6.9 4.7 9 0 .7-.5 1.9-1 2.7-.9 1.3-1.1 1.3-1.9 0-.5-.8-.7-2.6-.4-4.2.4-2.2-.2-3.4-3.6-6.8a38 38 0 0 1-4.1-4.5q.2-.5 2-.5c1.8 0 2 .5 2 1m87.5 16q-3 3.4.3 4.7a47 47 0 0 1 14.6 13.1c2.2 4.3 3.4 14.6 1.7 15.6-.6.4-2.5-.4-4.2-1.8-3.7-3.1-4-3.1-7-.7-2.4 2-2.4 2-.6 5.1.9 1.8 1.7 3.6 1.7 4.2 0 .5 1.6 2.8 3.5 5.1 3.9 4.5 4.5 8.2 1.6 9.2-4.3 1.3-4.6 3.2-1.6 9.6s2.9 8.3-.8 10.1l-3.3 1.5c-1.5.8-5.3 10.2-5.4 13.5-.1 4.9-5.1 1.7-7.4-4.8-1.3-3.7-1.2-4.6.5-9.4 1-3 1.9-6.6 1.9-8 0-3.1-5.2-8.5-7.4-7.7-4 1.6-4.1-6.4 0-14.8 3.2-6.8 3.8-10.6 2.1-13-1.3-1.7-1.8-1.8-4.1-.7a13 13 0 0 1-4.6 1.2c-1 0-2.7 1.2-3.8 2.7l-2.1 2.8-1-2.8c-.6-1.6-1.1-3.5-1.1-4.2 0-3.1 3.5-10.2 7.2-14.8q6.8-8.1.5-8.2c-1.5.1-2.7-.3-2.7-.7q.1-.7 1.4-.8c.8 0 2.7-1.3 4.4-2.8 1.7-1.6 4.8-3.4 7-4s4.5-1.9 5.2-2.7c1.1-1.4 1.5-1.4 3.2.1 1.6 1.5 1.7 1.9.3 3.4m-68.5 5.1q0 2.7-1.3 2.9c-.7 0-1.8 1.3-2.4 2.9-.9 2.4-.8 3.2.6 4.5q1.8 1.8.4 2.4c-.7.5-1.5 2.2-1.9 3.8-.4 2.4 0 3.8 2.2 6.5l2.8 3.4-3.5-3a45 45 0 0 0-10.6-7.5c-.4 0-2.1 1-3.6 2.3q-2.9 2.2-2.7 5.2c.3 10.1.9 13.4 3.1 17.5 3.3 6.2 4 9 2.8 11.2-1.3 2.4-3.9 2.3-3.9-.1 0-1.1-.5-2.3-1-2.6q-1-.8-.5-2.6t-.9-2.5c-.9-.3-1.6-1.7-1.6-3s-.7-4.1-1.5-6.1c-1.4-3.4-1.4-4.2.1-9 1-3.1 1.5-6.9 1.1-9.2q-.6-4.2.7-3.5 2.4.8 4.3-5.1l1-3 .6 4.2c.6 3.3 1.3 4.5 3.9 5.7 4.1 2.1 4.6 2 6-.9.9-2.1.7-2.9-2.1-6q-5-5.6-1.8-5.5c.8 0 2.2-.9 3.2-2.1 1.6-1.7 1.7-2.5.8-4.9q-1.2-3 .1-3.4c1.8-.7 5.6 4.3 5.6 7.5m84.9-2.9c1.8 3.2.8 4.8-1.6 2.5-1-.8-3-2-4.6-2.6-4-1.5-3.4-3.3 1-2.9 2.8.2 4.1.9 5.2 3m-46 9.5c1.2 3.9 1.1 4.5-1.5 9.2-1.5 2.8-3 5.1-3.4 5.1-1.5 0-2.6-17.2-1.4-20.4 1-2.6 4.9 1.1 6.3 6.1m-62.3 3c-1 1-1.9-.5-1-1.8q.8-1.6 1.2 0 .3 1.2-.2 1.8m17.7 22q1.5.6 1.7 1.7c0 .6.9 2.2 2 3.6 2.3 2.9 2.9 10 .7 8.2a4 4 0 0 0-3.3-.6c-1.6.4-2.4-.4-4.1-4.3a46 46 0 0 1-2.8-8.7l-.7-3.9 2.4 1.7c1.3.9 3.1 1.9 4.1 2.3m3.2 22.6c3.8 5.4 4 5.7 2.2 5.7-.8 0-2 .7-2.7 1.5-1.8 2.2-2.6 1.9-4.9-2.1q-3.5-5.8-.9-8.2c1.9-1.9 3.1-1.4 6.3 3.1m-20.6 2.4c1.2 4.1 1 4.6-1.1 3.8-2-.8-4.2-5-3.4-6.4 1.4-2.2 3.5-1 4.5 2.6m-31.9 4.2c0 1.2-2 2.5-2.7 1.8s.6-2.7 1.8-2.7q.8 0 .9.9m9.4 3.7q.6 1.6-1.1 1.2-1.5-.4-2.1-1.6c-.6-1.8 2.5-1.5 3.2.4m39.3 3.6c1-.5 2.9-.6 4.3-.2 2.1.5 2.6 1.4 3.3 5.9.5 2.9.6 5.5.3 5.8-1.3 1.3-5.7-1.8-8.3-5.9l-4.7-6.8-2.1-2.5 2.7 2.3c2 1.8 3.1 2.1 4.5 1.4m-8.7 7.6c0 1 .5 2.3 1.2 3q1 1 .6 1.8c-.4.3-1.4-.8-2.2-2.5-1.9-3.5-1.9-4.1-.6-4.1q1 .2 1 1.8m5 8.2c1 .5 2.7 2.6 3.9 4.6 1.9 3.1 2.6 3.6 5.1 3.2s2.7-.2 1.8.9q-1.2 1.4 0 2.5c.7.7 1.2 2.3 1.2 3.6 0 2.1-.2 2.2-1.5 1.2-.8-.7-2.2-1-3-.6q-1.6.6-2.5-1.9-1-2.3-2-2.5-1 0-.4-1.2t-.8-2.2a22 22 0 0 1-4.8-8.1q0-1.2 3 .5m-6.7 11.2c.4 1.6 1.2 2.8 1.7 2.8q1 .1 1 1.4c0 .7.7 1.9 1.6 2.6 2 1.8 4.6 8 3.9 9.8-1 2.7 1.4 5.1 6 5.8 2.5.3 4.5 1 4.5 1.5s-.5.9-1.2.9-1.9.7-2.9 1.6c-1.6 1.5-1.6 1.8.7 6.9 2.3 5 4.9 16.4 3.9 17.3-.7.8-2.5-.9-2.5-2.4 0-.9-1.6-5.2-3.5-9.5-1.9-4.4-3.5-9-3.5-10.3 0-4.2-2.2-8.7-4.6-9.6-1.3-.5-2.4-1.6-2.4-2.4s-1.3-3.8-2.8-6.8a31 31 0 0 1-3.5-11.7l-.5-6.4 1.7 2.9c1 1.6 2.1 4.1 2.4 5.6m10.5 49.3q-.6.4-1.2-1.2-1-2 .5-.6 1.1 1.2.7 1.8M292 337.9q-.1.9-1.6 1.5c-2.2.9-2.4.8-2.4-.9q.2-1.4 2-1.5c1.8-.1 2 .4 2 .9m50 103.5q0 .5-1 1.1-.9.4-1-.4.1-1 1-1.1 1 0 1 .4m55 10.5c1.2 2.4 1.3 4.1.1 4.1-.5 0-1.4-1.4-2-3-1.1-3.3.2-4.1 1.9-1.1m-81.7 8.2q.4 2.3 2.7 1.4c2-.6 2.1-.4 1.5 2.9-.6 2.8-.4 3.7.9 4.2.9.3 1.6 1.6 1.6 2.8s1.9 4.5 4.3 7.2l7.7 9.6c1.9 2.5 5.8 6.1 8.7 7.9q5 3.4 5.3 5.4c0 1.1.4 2.5.8 3.1 1.2 1.8 5.3 3.6 6.8 3 1.2-.4 1.4.4 1.4 4.2-.1 2.6.1 6.3.4 8.2.2 1.9-.2 6-1.1 9l-1.8 6.5c-.3 1-7.1 1.2-8.1.2q-.3-.6 1.6-1.7 2.1-1.1 1.8-3.5-.2-2.3 2.1-4.2c4-3.3 1.9-4.3-8.9-4.3-8.9 0-10 .2-11.4 2.1q-3 4.3 3 5.5c3.2.6 3.2.7 1.9 2.8-.9 1.3-1.2 2.6-.9 2.9.8.7-.1 1.1-6.3 2.7-3.6.9-4.3 1.5-4.3 3.5 0 3.1-1.6 4.1-2.9 1.8-.7-1.4-.3-2.5 1.4-4.6 2-2.6 2.1-3.2.9-6.5-.7-2-1.3-4.9-1.4-6.4q0-2.8-3.1-5a27 27 0 0 1-5.6-6.6c-1.4-2.4-3.4-4.4-4.6-4.6-14-2.7-19.7-4.5-14.1-4.6 1.8 0 4.2-.8 5.5-1.9l2.3-1.8-5-2.3-4.9-2.4 5-.5c9.1-1.1 9.8-3 2.2-6.6-6-2.8-7.8-3-9.5-1.3q-2.6 2.6.6 6.1c1.7 2 1.7 2-1.1.2-1.5-1-2.6-2.1-2.5-2.4l2.2-5.7c1.8-5 2-5.1 4.7-4.1 2.7 1.1 5.9-.2 5.9-2.4 0-1.6-3.1-3.8-4.5-3.3q-3.6 1.6 2.1-7.6c5.3-8.7 7.5-10.3 14.5-10.9.9 0 1.9.8 2.2 2m103.6 5.9c1 0 2.4-.7 3.1-1.5 1.8-2.2 2.6-1.9 9 2.7 3.5 2.6 6.7 6 8 8.6 1.3 2.3 3.8 5.6 5.7 7.2 3.8 3.4 4 4 1.4 4-1.1 0-5.4 3.5-9.8 7.8-7.3 7.4-8 7.8-11.4 7.4-8-.9-15.9 6.1-20.9 18.3-5 12.5-5 12.5-12.3 12.5-3.4.1-10.5.7-15.8 1.4-8.4 1.1-10.2 1.7-13.8 4.6l-4.2 3.2.7-5.3c.7-5.7 1.4-7.7 1.4-4.1q0 2 1.5 2.2 1.5 0 1.5-2.9c0-4.5 2.8-10.5 4.3-9.2 1.8 1.4 6.2-1 6.2-3.4 0-2.8-3.9-3.2-5.8-.5-1.4 2-1.5 1.8-2-3.2q-.8-8 2.9-7.8 1.7-.2.3 1.9c-1.3 1.9-.6 5.1 1 5.1.5 0 2.2-1 3.7-2.3 2.5-2.1 2.5-2.4 1-4-1.5-1.5-1.4-1.8 1.4-3.8q4.7-3.7 1.9-6.6c-.8-.8.3-2.1 3.8-4.8 5.2-4 6.8-6 5.8-7.5q-1.6-2.7-7.2 2.6c-2.1 1.9-4.7 4-5.8 4.5-2 1 .5-1.4 12.8-12.5 6-5.5 12.1-12.5 15.4-18.1 1.7-2.8 1.6-1.1-.3 3.3a17 17 0 0 1-4.2 5.9c-2 1.6-2.4 2.4-1.6 3.3 1.7 1.7 5.5-1.1 8.3-6.1 2.1-3.7 2.4-3.9 4-2.5s1.9 1.4 3.8-.4c1.2-1.1 2.5-3 3-4.2q.9-3.3 1.1.9.2 3.4 2.1 3.3m-56.9 9q0 .9-.4 1-.5-.1-1.1-1-.4-1 .4-1 1 0 1.1 1m-9 2.2q0 2.6-.9.8-.9-1.4-.5-2.2 1.4-2 1.4 1.4m-10.4 13.5c4.5 4.2 4.5 4.3.8 1.5a44 44 0 0 1-5.4-4.7c-2.4-2.9-.3-1.5 4.6 3.2m24.9 7.9c-1.3 2-1.4 2.8-.4 4q1 1.3.2 1.4c-.5 0-1.6-1.2-2.4-2.6-1.2-2.3-1.2-2.7.6-4q4.7-3.2 2 1.2m-6.1 6c.9 2.3.7 3.6-.3 3-1.2-.8-2.1-4.6-1.1-4.6q.8.1 1.4 1.6m1.6 14.8c0 1.2-.4 2.7-.9 3.5q-1 1.6-.8-1c.1-1.3-.2-3.8-.6-5.4q-1.2-4 .8-1.1a8 8 0 0 1 1.5 4m29.9 20c.8.6 3.7 1 6.5.9 4.6-.2 4.8-.1 2 .7-4.3 1.4-5.9 3.4-3.9 5 1.2 1 2.1 1 4.1.1a14 14 0 0 1 4.6-1.1c1.7 0 1.9.2.7 1.6-.7.8-2.1 1.3-3.1 1.1-1.8-.5-9.1 1.3-10.4 2.6-1.2 1.2-4.4.8-7.5-1-2.4-1.5-3.5-1.5-7.6-.5q-10 2.5-11.5-1.9-2.2-6 2.5-6.6c1.6-.1 3.4-.6 4-1.2 2.7-2.1 16.8-1.9 19.6.3M295 541q-.1.9-1.1 1-.8-.1-.4-1 .6-1 1.1-1 .4 0 .4 1m56.5 36.2q1.8.4 1.8 1.6c-.2.6 1.3 3.7 3.2 6.7 3.2 5 3.4 5.5 1.6 5.5-3.5 0-4.4 3.3-3 11.1.7 3.9 1.7 7.3 2.2 7.6s1.9-.5 3-1.8c1.4-1.8 1.7-3.3 1.3-6.1-.5-3.1-.3-3.6.9-3.2q1.4.5 1.5-.6c.1-1.1 1.5-.1 3.4 1.4 1.9 1.4 4.7 3.1 6.2 3.6q3 1.1 1.6 2.2-2.6 2.4.6 3.2c1 .4 2.6 2.2 3.5 4.1 2.1 4.4 2.1 4.5-.2 4.5s-7.3 3.9-6.5 5.1 6.3.2 7.9-1.2c1.3-1.3 2.5-1.1 2.5.5 0 1.5-3 2.6-7.1 2.6-3.6 0-7.9 3.6-7.9 6.5 0 1.3-.4 2.7-1 3-1.7 1 2.7 8.5 5 8.5q2 0 2 1.9c0 2-3.2 3.9-3.8 2.2-.2-.6-1.9-1.8-3.8-2.7s-3.4-2.1-3.4-2.6.5-.6 1-.3q1.1.6 2.5.1c1.1-.4.6-1.4-2-4.3l-3.4-3.8-3.6 3.9q-5.4 6.1-2.3 9.4 1 1-1.9-.3c-4.2-2.1-4.5-2.6-2.8-5.9 1.7-3.2.9-5.3-2.9-8.3-1.3-1-3-3.2-3.9-4.8a60 60 0 0 0-13.6-14.5c-1.9 0-1.2 2.8.9 3.5 1.1.3 2 1.1 2 1.6 0 1.1-3.5-.5-4.5-2.1-.9-1.4-2.5-1.2-2.5.3q.2 1.3 2 2.5c2.1 1.3 2.7 3.2 1 3.2-.5 0-2.5-1.4-4.5-3.1-2.8-2.5-3.8-2.9-5-1.9q-2.4 2 1.9 6.9l2.1 2.4-2.3-1.2c-6.8-3.6-21.4-14.6-20.5-15.5.7-.7-.9-1.2-5.9-2.1-2.9-.4-3.8-.2-4.2 1.2-.7 2.1-7.6 4.6-9 3.3q-.9-.7-2.1-.4c-.7.3-2.9-.6-4.8-1.9q-3.7-2.5-6.3-1.9c-3.5.6-2.5-1.2 1.8-3.4 3.3-1.7 18.1-3 22.3-2 1.3.3 3.7 1.7 5.3 3.1 2.7 2.2 3 2.3 5.1.8q2.3-1.6 1.8-3.4c-.6-2.3-.3-2.3 2.8-.3 2.7 1.8 6.5.5 6.5-2.2 0-1.4.6-1.3 3.6.5 4.3 2.6 5 2.6 10.2.1 4.3-2.1 5.1-3.7 3-5.9-1.1-1-.8-1.6 1.1-3.2a9 9 0 0 1 4-1.9c2.1-.1 5.1-2.4 5.1-3.9 0-.6 1.2-3.4 2.6-6.2 2.3-4.6 2.7-5 4.2-3.6.9.8 2.6 1.7 3.7 1.9m10.9 17.3q.4 1.3-.4 1.5-1-.2-1-1.5c0-1.3.2-1.5.4-1.5s.6.7 1 1.5m-149.8 5c.2 1.9-.8 3.2-3.7 5.3q-3.8 2.7-3.9 4.9c0 2.2-1.6 4-2.2 2.4-.2-.5-1.3-.5-2.5 0q-2.4.7-2.4 4.1.2 4.5-1 .9c-.7-1.8-.6-2.8.6-4.1 1.7-1.9 2-4 .5-4-1.7 0-1.1-3.6.9-5.4 1.1-1 4.6-2.8 7.8-4.2l5.8-2.4zm187.2 6.4q2.6 0 1.7 2c-.8 2.5 2.2 4.3 4.8 3 1-.6 2.3-.8 3-.6q.9.5-1.6 1.2-4.8 1.5.4 4.2a18 18 0 0 1 4.6 3.9l2.1 2.7 2.6-2.8c1.4-1.5 2.7-2.4 2.7-1.9l.4 2.4q1.3 7.8 8.5 8c1 0 2.2.4 2.5 1q.4.9-1.4 1c-1.1 0-2.3.5-2.7 1.1-.6 1.1-3.2.9-6.9-.7q-2.4-1.2-.8.8c1.1 1.2.9 1.7-1.3 2.7-2.6 1.1-2.6 1.1-2.2-1.9.6-3.7-1.4-5.9-3.7-4-1.9 1.6-3.2.5-1.6-1.3 1.6-2 .3-5-2-4.4q-2 .6-1.9-1.3c0-2.9-4.6-7.3-7-6.7q-2.1.6-2-1.3c0-3-1.7-3.2-6.5-1.1-4.3 1.9-4.5 1.9-5.5.2q-.9-1.9.3-4.4c1.1-2.4 1.6-2.6 6.2-2.3zm-139.5 4.6q-.6 1.4-1 1.1-.4-.5.2-1.5c.9-1.6 1.5-1.3.8.4m29.3 4.2c-1 1-1.9-.5-1-1.8q.8-1.7 1.2 0 .3 1.2-.2 1.8m126.1-.1q-.6.5-1.9.1-1.1-.5.6-.6t1.3.5m-141 3.4q0 .7.8.8 1 0 .8-.9c-.5-1.4 1.3-1 2.7.6 1.7 2.1.8 2.7-3.9 2.9s-5.6-.6-4.2-3.3c1.1-1.9 4.3-2 3.8-.1m118.3-.6q0 .5-1 1.1-.9.4-1-.4.1-1 1-1.1 1 0 1 .4M250 620q0 .9-.9 1-1-.1-1.6-1-.4-1 .9-1 1.5 0 1.6 1m179.5 1.1c1 1.5.4 1.8-2.7 1.2-1.5-.3-2.5-.9-2.2-1.4.7-1.2 4.1-1.1 4.9.2M144 625.6c0 3.6 1.7 6.4 3.9 6.4 1 0 2.9.8 4.2 1.9 2 1.6 2.1 2.1 1 3.5-1.9 2.2-5.4 2-7.7-.5-1.9-2.1-4.6-11.7-3.8-13.1 1.1-1.7 2.4-.7 2.4 1.8m111.9 1.1c-.6 3.6 2.5 5.8 13.4 9.5 3.5 1.2 3.8 1.5 3.3 4.3-.8 4-.1 4.8 7.4 8.6 6.1 3.1 7.4 3.3 20 4 19.9 1 23.3 2.4 40.2 16.3 11.3 9.3 17.5 16 17 18.5q-.4 1.8.6.3.7-1.4 2.9 1.2c1.2 1.3 5.1 3.8 8.7 5.6s6.6 3.7 6.6 4.1q0 .8.8.7c.4-.1 2.5.4 4.7 1.1l4 1.3-.5 7.1c-.5 6.5-.3 7.7 2.2 12.4 3.2 6 3.3 6.3 1.6 6.3-1.3 0-5.8-6.2-5.8-7.9q-.1-.9-1.5-2.1c-.9-.7-1.3-2-1-2.7s-.3-2.2-1.2-3.1c-1.6-1.6-1.6-1.6-1.1.5q.6 2.2-.7 1.6c-.8-.2-1.6-1.1-1.9-1.8s-1.8-1.6-3.5-2-3.1-1-3.1-1.4q-.1-.6-2.1-.8c-1.2-.1-4.9-1.1-8.2-2.3l-18.7-5.6c-6.9-1.9-12.9-4-13.5-4.5s-1.9-.9-3.1-.9-2.5-.4-2.8-.9c-.5-.7-3.4-1.6-9.6-2.7-.8-.1-4-1-7-1.9a93 93 0 0 0-8.5-2.1c-1.6-.2-3.5-1-4-1.7-1.6-1.9-5.5-3.9-5.5-2.7 0 1.5-5.5-1.5-7.7-4.2a7 7 0 0 0-5.3-2.4 51 51 0 0 1-14.9-3.7c-3.7-1.8-8.1-6-8.1-7.7-.1-2-2.1-4.5-4.3-5.3-2.6-1-3.1-3.4-1.4-6.1 1.5-2.3 1.5-2.4-.8-3-1.3-.3-3-.4-3.7-.1-2.4.9-1.9-3.6 1-8.3 3.4-5.5 8.7-11.2 10.5-11.2q1.4-.2 2.5-2.5c1.1-2.3 2.3-3.4 2.1-1.8m-14.9 3.4c0 .3-.9 1.4-2 2.4-2.9 2.6-4.9.6-3-2.9 1.1-2.1 1.5-2.3 3.1-1.3q1.8 1.2 1.9 1.8m204.5-.6c0 2.2-.2 2.2-2.9 1.1-4.2-1.7-4.4-3.4-.4-3.4 2.8 0 3.3.4 3.3 2.3m-346 .5q.4.9-.4 1-1-.1-1.1-1 0-1 .4-1 .6 0 1.1 1m6 1.1q.2 1.3 1.7 1.4 4.5.2 2.6 4.6c-1.4 3.1-6.4 3.5-7.2.6q-.3-1.6.9-1.7c1.9 0 2.6-2.7.9-4-1.7-1.5-1.9-3.3-.1-2.8q1 .6 1.2 1.9M390 633c.9 1.8.8 2-1.5 2s-2.4-.2-1.5-2q1-1.8 1.5-2 .4.2 1.5 2m-290 1.4q0 .5-1 1.1-.9.4-1-.4.1-1 1-1.1 1 0 1 .4m284 0q-.1.4-1.6 1-1.3.5-.9-.4c.6-1 2.5-1.4 2.5-.6m64.2 1.5c.4.3-2.9.6-7.3.6-7.3.1-8.8-.3-7.4-1.7.8-.7 13.8.2 14.7 1.1m-36.2 0q0 1-1 1.6-.9.4-1-.9.1-1.5 1-1.6 1 0 1 .9m51 2.1c4.2 4.2.8 8-3.5 4-2-1.9-2.2-2.5-1.2-4.1 1.5-2.4 2.2-2.4 4.7.1m-365 2.2c0 2.6-1.3 1.6-1.7-1.3q-.3-1.9.7-1.4c.5.3 1 1.6 1 2.7m70.5-1.4c0 1.8-2 1.5-2.3-.4q-.4-1.6 1-1.2 1.2.6 1.3 1.6m-32.7.9c.5 1.6-2.2 2.7-4.4 1.9-1.3-.5-1.4-.9-.4-2.2 1.5-1.7 4.1-1.5 4.8.3m284.2 1.2c0 1.1-.4 2.3-1 2.6s-1 1.6-1 2.8c0 2.4-1.4 1.3-2.4-1.9q-.6-2.2.9-3.8 3.4-3.1 3.5.3M284.2 643q4.6 4.6-.2 2c-1.9-1-4.6-5-3.5-5 .4 0 2 1.3 3.7 3m118.8-1.1c0 1.4-11.9 6.8-16.5 7.5-3.3.6-2.6.1 3.9-2.8 4.4-2 8.4-4 9-4.6 1.2-1.2 3.6-1.3 3.6-.1m42.9.2c8.6 1.5 12.4 4.3 15 11.4 2.9 7.8 2.9 21.9.1 27.6-3 5.8-8.9 8.3-20 8.5-4.7 0-11.9.5-16 1s-8.7.7-10.2.6c-1.5-.2-3.5.1-4.5.6-1.3.8-2.4.5-4.2-.9-3.2-2.6-8.5-2.4-14.9.6-6.4 2.9-6.6 3-5.8.9q.8-1.8-1-1c-2.1.8-5.6-.2-4.9-1.5q.4-.7-.9-.3c-2.1.8-15.4-8.1-16.6-11.1-.5-1.4-1.6-2.5-2.4-2.5q-1.2-.1-1.9-1.9c-.2-1-3.3-3.5-6.8-5.6-5.6-3.2-5.9-3.6-2.9-3 6.9 1.4 14.1.5 22.5-3a81 81 0 0 1 32.8-6.5c10.8 0 15.2 1.3 18.4 5.4 2.4 3 3.8 3.2 6 1 2-2 .5-5.6-3.4-8l-3.2-2.1c-.8-.6 6.4-6.2 8-6.3.9 0 2.3-.7 3-1.6 1.3-1.6 4.4-3.2 6.3-3.3.5-.1 3.9.4 7.5 1M139 644.7q0 1-1 2.3c-1.1 1.8-2.5.7-1.7-1.5.6-1.5 2.7-2.1 2.7-.8m168 .8c1.6 1.9 0 1.9-2.6 0-1.6-1.2-1.6-1.4-.3-1.5.9 0 2.2.7 2.9 1.5m-184.6 6.7c-1.2 1.9-2.4.5-2.4-2.5l.1-3.2 1.3 2.5c.8 1.4 1.2 2.8 1 3.2m-11.4-2c0 1.9-.2 2-1.7.6-1-.9-2.5-1.8-3.3-2.1q-1-.5 1.8-.6c2.6-.1 3.2.3 3.2 2.1m231.5-1.2q.4.9-.4 1-1-.1-1.1-1 0-1 .4-1t1.1 1m31.1 3.9c-1.6 1.1-3.5 1.7-4.2 1.4-2.1-.8-1.7-1.1 1.9-2.2q7.2-2.2 2.3.8M105.1 654c1 .6 1.9 2 1.9 3 0 2.2-2 2.6-3.7.9q-1-1.3-4.2 1.2c-3.4 2.5-3.5 3.9-.3 5.5 1.9 1 1.7 1.2-3.4 3.7-6.3 3.1-6.4 3.1-6.4 1.3 0-.8 1-1.8 2.3-2.2 3.1-.9 3.7-2.2 3.7-7.6 0-3.4.5-5 1.8-5.7a9 9 0 0 1 8.3-.1m33.9 0q-.1.9-1.5 1c-1.4.1-1.5-.5-1.5-1q.2-1 1.5-1c1.3 0 1.5.4 1.5 1m-12 5c-2 1.3-3.3 1.3-2.5 0 .3-.6 1.4-1 2.3-1q2.2-.1.2 1m155.7 42.2c4.1-.2 6.4 1.1 4.6 2.9-.5.5-5.4 1.4-11 2-10.2 1.2-10.2 1.2-13.1-1.3l-3-2.5 2.7-1.1c1.5-.6 5.2-.8 9.1-.4 3.6.4 8.4.5 10.7.4m-29.4 11.6c2.3 2.1 15.3 2.5 22.2.7 2.7-.8 5.4-1 5.9-.5 1.7 1.7-4 3.2-14.1 3.8-8.8.4-10.3.7-10.1 2.1.4 2 7 2.6 15 1.3 6.3-1 8.2-.4 7.2 2.1-.7 1.8-4 2.6-12.9 3-4.6.1-6 .6-6 1.7s1.6 1.5 8.2 1.5c8.7 0 10.3.6 8.3 3q-1 1.5-6.9 1.3c-6.1-.2-8.1.5-8.1 2.7 0 1.7 4.3 2.7 8.6 1.9 3.3-.6 3.5-.5 3.2 1.7-.3 2-1 2.5-5 2.9-5.4.7-8.2 2.5-5.4 3.6.9.4 3.2.4 5.1.1q3.3-.6 3.8.7c.3.6-.7 4.8-2.2 9.3-2.2 7-3 8.4-5.8 9.7-3.1 1.5-3.2 1.6-2.6 6.8.6 5.7-.9 8.5-3.6 6.9-1-.7-1.1-1.3-.1-3.1.7-1.2 1-3.4.7-4.8a11 11 0 0 1 .4-5.1c1.2-3-.1-4.1-5.4-4.1-3.1 0-4-.5-5.7-3.3-1.1-1.7-2-3.8-2-4.4 0-1.2-4.7-12.5-10.2-24.3-2.5-5.5-2.5-5.4.4-6.1 2.3-.6 2.3-.6-.5-1.8-3.4-1.3-2.8-3 .8-2.3q2.3.3 2.5-.6c.2-.9-1.8-1.3-4-1.7-4.5-.8-5.4-2.5-1.3-2.5 2.9 0 2.1-1.6-1.1-2.2a3 3 0 0 1-2.4-1.7c-.7-2 20.6-.5 23.1 1.7m-.8 60.2c.4 5.3.9 6.8 2.7 8.2 6 4.5 6 4.4 5.4 13.1-.8 11.2-2.5 50-2.6 57.4 0 2.4-2.7 3.2-4.6 1.3-.9-.9-10.2-4-17.2-5.7-1.2-.3-2.9 0-3.7.7-2.5 2.1.8 4.7 8.9 7.1 3.9 1.2 8.3 2.7 9.7 3.5 2.2 1.1 2.9 1.1 4.7-.2 2-1.4 2.2-1.3 2.8 1q1.4 5.3-3.9 4.1c-4.4-.9-26-7.7-26.9-8.4-.7-.6 3.5-9.5 10.1-21.3 3.5-6.3 7-17.5 9.6-31.3a169 169 0 0 1 3.1-12.9c2.5-6.9 1.9-9.4-3.2-14.2-4.9-4.6-5.2-6.7-1.3-7.2 1.3-.2 2.8-.8 3.4-1.3 1.9-1.8 2.6-.3 3 6.1m20.3-3.8c1.5 2.6 1.5 2.8-.8 5.3q-4.3 4.5-3.3.5c.3-1.1.1-3.3-.5-4.9-1.7-5 1.7-5.7 4.6-.9M269 795q-.1.9-1.1 1-.8-.1-.4-1 .6-1 1.1-1 .4 0 .4 1m0 7q-.1.9-1.1 1-.8-.1-.4-1 .6-1 1.1-1 .4 0 .4 1m3.8 8.2c.3 2.2-.1 2.8-1.7 2.8-1.1 0-2.3.4-2.6 1-1.3 2-2.5.9-2.5-2.3 0-4.1.2-4.3 3.7-4.2 2.3 0 2.9.5 3.1 2.7m2.2 8.8c0 .5-1.2 1.2-2.7 1.6l-4.1 1c-2.2.7-3.4-.6-2.1-2.2s8.9-1.9 8.9-.4m2.9 8.2c1 2.8-.2 3.8-4.7 3.8-1.8 0-4.2.5-5.3 1q-2 1.4-2.6-.6c-1.3-3.5 1.5-5.3 10.5-6.3q1.2.1 2.1 2.1m2.9 11.1c.3 2.3-.2 2.7-4 3.7-5.6 1.5-6.1 1.9-4.8 3.5.7.9 2.2 1 5.3.5 4.3-.8 5.7-.6 5.7 1.1 0 .5-1.5.9-3.2.9-3.8 0-9.6 3.4-7.8 4.5 2 1.2 12.9-.6 14-2.3.8-1.5 1.1-1.5 2-.2q3 4.6-8.7 4.9c-5.3.1-9.3 1.6-9.3 3.5 0 2.5 1.8 2.8 9.1 1.6 5-.9 7.4-.9 8.2-.1q1.1 1-1.4 1.9a89 89 0 0 1-19.7 2.8c-.4-.2-.9-4.8-1-10.1l-.2-9.6 3-1c1.6-.6 3-1.7 3-2.5 0-1.7-2.2-1.8-3.8-.2q-1.2 1.3-1.8-.5c-1.1-2.9.4-5 3.1-4.5 1.3.3 4.1.2 6.2-.2 5.1-1 5.7-.8 6.1 2.3M293 859q-.1.9-1.1 1-.8-.1-.4-1 .6-1 1.1-1 .4 0 .4 1"/><path d="M288.6 159.5c-3.8 3.9.1 10.5 6.3 10.5q3.6 0 2.7-1.5-.8-1.7 1.9-.9t2.5-1q-.1-1.5-2-1.6c-1.1 0-3.8-1.6-5.9-3.5-3.6-3.3-4-3.4-5.5-2m.2 14.1c-1.1 2.4-.9 2.9 3 6.6 3.7 3.5 4.7 3.9 8.4 3.6 3.4-.2 4.5-.8 5.8-3 1.3-2.5 1.3-2.9-.2-4.4-1.4-1.4-2.1-1.5-4.6-.5-3.5 1.5-7.7-.1-8.5-3-.7-2.7-2.5-2.3-3.9.7m.7 12.4c-.8 1.3 2.2 5 4.2 5 .7 0 2.2.5 3.3 1.2 2.7 1.7 7.4-.1 7.8-3 .4-2.6-.2-2.8-8.5-3.7q-6.1-.6-6.8.5m8.4 39.1c-.9 1.7-.8 2.3.2 3 1.9 1.2 2.5 1.1 3.9-.6 1.5-1.8.6-4.5-1.4-4.5-.9 0-2 1-2.7 2.1m-5.7 29.6c.3 3.1 3 4.2 5.4 2.2 1.3-1 1.2-1.4-.2-3-1-1.1-2.6-1.9-3.6-1.9-1.5 0-1.9.6-1.6 2.7m1.5 17c-.3.4-.8 2.6-1.1 4.9-.6 3.1-.3 4.4.8 5.4 2.2 1.8 5.2-.5 3.5-2.7-.9-1.1-.8-1.7.7-2.8s1.7-1.7.8-3.2c-1.2-2-3.9-2.9-4.7-1.6m.5 17.4c.1 1.2.9 2.4 1.6 2.7q1.4.5 1-1.9c-.1-1.2-.9-2.4-1.6-2.7q-1.4-.5-1 1.9m40.8 5.4c-1.5 1.8-.6 4.5 1.4 4.5 1.8 0 3.5-2.9 2.9-4.8-.6-1.6-2.8-1.5-4.3.3m-3.2 49.1c-1.1 2.4-.9 2.9 1.7 5.1l2.9 2.5 1.8-2.2c1.8-2.3 1.8-2.4-.9-5.2-3.3-3.5-4-3.5-5.5-.2m1.3 10.6c-.5 1.3-.7 2.5-.5 2.7.7.7 3.4-2.1 3.4-3.5 0-2.2-2-1.6-2.9.8m-40.4 16.4c-1.1 1.1-.8 4.4.3 4.4 1.5 0 2.4-3 1.3-4.1q-.9-.7-1.6-.3m31.8 40.3c-.6 1.1.9 2.3 1.9 1.4s.7-2.3-.3-2.3q-1 0-1.6.9m20.8 102.2c-2.5.9-4 4.6-2.5 6.1 1.4 1.4 7.6.2 9.2-1.7 2.4-2.9-2.4-6-6.7-4.4M368 527c-2.3 2.3-2.6 4.6-.7 5.2.6.3 3.2.3 5.7 0 5.4-.4 9.6-3.2 8.7-5.6-1-2.5-11.1-2.2-13.7.4m2 78.1q.1.8 1 .4t1-1.1q0-.4-1-.4-.9.1-1 1.1m-16.5 15.5c-1.4 1.5-2.5 3.3-2.5 4q0 1.3-1 1.4c-1.4 0 3.9 7.4 5.8 8.1q4.6 1.5 4.4-8.3c-.1-3.3-.4-6.4-.7-6.9-1.1-1.7-3.6-.9-6 1.7m8.7 11.1c.5 2.5 2.8 2.8 2.8.4q0-2-1.6-2.1-1.4.1-1.2 1.7M249 656.1q.1.8 1 .4t1-1.1q0-.4-1-.4-.9.1-1 1.1m6 7.9q.1.9 1 1 1-.1 1-1t-1-1a1 1 0 0 0-1 1m54.5 6.1c-1 1.4-.1 2.1 1.9 1.3q1.4-.6 1-1.5c-.7-1.2-2.1-1.1-2.9.2m69.3 3.6q1.3.4 1.9-.1t-1.3-.5q-1.7 0-.6.6m-141.2 40.2c-.7 1 3.3 2.3 4.7 1.4 1-.6-1.1-2.3-3-2.3q-1 0-1.7.9m22.2 39.8c-2.1.5-2.4 2.9-.4 3.6 2.4.9 10.8-1.5 9.5-2.7-.7-.8-7.4-1.4-9.1-.9m-16.3 89.6q-3.3 2.6 2.4 4.5c2.4.8 3.2.7 4.3-.5 1-1.3.9-1.8-1.1-3.4-2.8-2.3-3.2-2.3-5.6-.6M497.6 2.2l2.1 2.7q.3.1.3-2.2c0-2.1-.5-2.7-2.2-2.7-2.1 0-2.1 0-.2 2.2m-313 8.1q.6 1.6 1.2 1.2.4-.6-.7-1.8-1.4-1.4-.5.6M125 15.6q.1 1.3 1 .9 1-.6 1-1.6 0-.8-1-.9-.9.1-1 1.6M91.4 345.4a52 52 0 0 0-18.9 11.5c-3.9 3.9-4 3.9-5.8 2-2.7-2.9-6.4-3.4-12.6-1.4-7.7 2.4-11.9 5.8-14.8 12.2-2.8 6.2-2.7 10 .7 17.4 2.7 6 2.6 7.9-.4 7.9-3.5 0-7.6 3.9-8.1 7.7-.4 3.4.6 4.7 4.5 5.6 3.7.9 5.4-.4 3.5-2.9q-3.6-4.7 1.9-6.9c1.9-.8 4.2-1.2 5-.9 1.3.5 1.3 1 .1 3.7-.7 1.8-1.7 5-2.2 7.2-.7 3.4-1.2 4-3.2 3.7a28 28 0 0 0-15.8 6.1 39 39 0 0 0-9.8 18.5c-.6 3.7-.2 5.3 2.4 10.6 4.5 9.3 13.6 14.8 20.6 12.7 1.6-.5 5.3-1.2 8-1.6 4.5-.6 5.3-.4 7.4 1.9 3.2 3.4 8.2 3.5 10.3.4l1.5-2.3 3.7 2.9a55 55 0 0 0 22.5 9.3c5.2.5 6.7.2 12.3-2.4 3.5-1.6 7.7-4.4 9.3-6.1 1.6-1.8 4-3.2 5.2-3.2a20 20 0 0 0 13.3-7.2c3.9-6.4 1.5-17.2-4.7-21.3-1.5-1-4.7-1.9-7.3-1.9a17 17 0 0 1-5.5-.8c-.5-.3-2.5-.9-4.2-1.3-2.7-.5-3.3-.3-3.3.9 0 .9-1.2 3.9-2.6 6.6-2 3.8-3.9 5.7-7.9 8-2.9 1.6-6.4 3-7.7 3-1.4 0-4.2.7-6.2 1.5a14 14 0 0 1-7.6.9c-4.2-.7-5.6-1.7-6.2-4.9-.2-1.1-1.7-2.6-3.3-3.4-5-2.3-8.4-6.2-12-13.7-3-6.3-3.5-8.2-3.5-14.7 0-8 2-15.1 4.8-17.4.9-.7 4.7-2.9 8.3-4.7 8.6-4.5 8.9-5 7.7-11.2-.9-4.7-.8-5.7 1.7-11.3 3.3-7.3 6-9.7 16-14.7l7.5-3.7 7.6 1.1a22 22 0 0 1 17.5 10.7q4.5 6.4 14.5 6.5c7.3 0 14 6.5 17.8 17.1 1.6 4.2 1.6 5 .2 8.3-1.9 4.6-5.1 4.9-5.9.6-1.6-7.8-16.9-9.7-34.6-4.2-5.9 1.8-8.3 4.5-8.6 9.5l-1 10.2c-.5 5.4-.3 7.8.9 10.7 2.4 5.6 4 4.9 3.2-1.4-.7-4.9.9-14.9 3.5-21.5 1.3-3.4 5.2-5.4 12.9-6.6 8.9-1.3 17.5.8 19 4.9.5 1.3 1.6 2.4 2.4 2.4 1.9 0 7.5 6.4 8 9.3l1.1 5.1c.5 2.4 0 3.4-3.8 7.1a19 19 0 0 1-20.1 4.5q-5-2-.1-7c3.5-3.7 2-5.7-3-4-2.7.9-4.1 2.1-5.1 4.6-3.8 9.1 8.2 17.8 17.3 12.4 3.3-1.9 3.7-2 5.4-.4 4 3.6 4.4 8.9 1 14.4-.5.8-1.2 2.3-1.5 3.2q-.5 1.8-3.4 1.8c-5 0-7.6 4.6-5.2 9.1.9 1.6 2.2 1.9 7.3 1.9 4.9 0 7 .5 9.7 2.3 3.3 2.2 16.9 7.1 26.8 9.7 3.3.8 4.2 1.5 3.8 2.8a247 247 0 0 1-7.4 33.7c-1.9 5.6-7.4 17-9.4 19.2l-2 2.1 7 10.9c3.9 5.9 7.8 11.8 8.9 13.1l1.8 2.3 8.5-2.4c8.6-2.4 23.5-6 30-7.2 7.4-1.4 14-3.7 14-4.9 0-.7-2.2-4.4-4.9-8.4-7.2-10.5-14.4-32-15.5-47.1l-1.2-11.2q-.7-4 .8-5.7c2.7-3.1 2.9-6.7.7-11.7l-2.1-4.8 2.3-4.1a63 63 0 0 1 4.1-6.5c2.4-3.2 2.3-7-.5-10.5l-2.4-2.9 3.8-10.5c2.1-5.7 5.5-13.9 7.5-18.1 4.2-8.8 4.2-8.7 8.8-20.7 5.9-14.9 4.6-18.9-6.9-21.9a141 141 0 0 0-47.3-2.4c-18.8 4.2-21.1 6.1-16.1 13 3 4.3 13.6 31 16 40.4a49 49 0 0 0 3.5 10.2q3.1 4.8-1.1 10.9c-1.4 2.1-2.3 4.4-2.1 5.3l1.1 3.8c.5 1.9 0 2.5-3.1 3.8-2 .8-5.6 1.5-8 1.5-3.9 0-4.9-.5-9.3-4.9-2.7-2.7-5.3-5-5.8-5.2a15 15 0 0 1-3.1-4.2l-2.1-3.7 4.2-4.5c4.3-4.4 4.3-4.5 4.1-11.1-.1-3.6-.7-7.1-1.3-7.7-1.4-1.4-1.4-7.7-.1-11.2 1.2-3.2-1.7-12.1-5.9-17.9a25 25 0 0 0-17.3-9.7c-6.9 0-9.8-.8-9.8-2.9s-7.3-9.1-11.6-11.3a64 64 0 0 0-17.5-3.6c-.8 0-3.3.6-5.5 1.3M226.3 359c2.6.7 5.4 2.2 6.3 3.4 1.3 1.9 1.3 2.2-.5 3.7-4.8 3.9-35.5 5.6-45.4 2.4-2.9-.9-6.1-2.3-7.2-3.1-1.7-1.3-1.8-1.6-.5-2.4 2.3-1.5 11-4 13.9-4a9 9 0 0 0 4-.9c2.1-1.3 23.7-.6 29.4.9m-164.6 3.3c1 1.3 2.4 2.6 3.1 2.8q1.2.4 1.7 9.5l.5 9.1-6.5 3.2c-3.6 1.8-7 4.1-7.5 5.2q-1 1.7-2.3 1.9c-1.9 0-5.3-6-7.2-12.4-1.5-5.5-1.5-6.2 0-10.1q2.9-7.5 9.8-10.1c4.9-1.8 6.4-1.6 8.4.9m120.8 9.1c3.3.8 9 1.7 12.8 2.1 6.8.7 7.6 1.2 5.5 3.3q-1.5 1.3 1.2 1.2c3 0 4.4.9 5.3 3.2.5 1.5 1.8 1.8 6.9 1.8 3.5 0 7.8-.4 9.5-.9q3.3-1 3.9.1c.4.6-1.8 6.1-4.8 12.2-7.5 15.1-8.8 18.3-8.8 20.9 0 1.2-.7 3.1-1.5 4.1-2.2 3-1.9 9.5.6 12.2l2.1 2.2-2.6 5.4c-1.4 3-2.6 6-2.6 6.7s-1.5.1-3.3-1.3a13 13 0 0 0-4.4-2.6c-.5 0-1.7-1.8-2.7-4.1l-1.8-4.1 2.8-2.9c2.3-2.4 2.5-2.9 1.1-3.5-.9-.3-3.1.3-4.9 1.3-2.9 1.7-3.9 3.4-5.4 9q-.4 1.1-1.9.7-1.7-.7-.5-1.9c.5-.7.7-2.6.4-4.2-.5-2.4-.1-3.4 1.5-4.5 1.8-1.3 1.9-2 1.2-6.4a243 243 0 0 0-13.3-38.1c-1.5-2-4.8-11.5-4.2-12.4.7-1.1.8-1.1 7.9.5m45.5 6q0 .6-1 1.1-.9.4-1-.4.1-1 1-1.1 1 0 1 .4M38.9 418.2c1.7 1.7 2.3 1.9 3.5.9 2.1-1.8 2.9-1 6.5 6.3 1.7 3.6 4.8 8 6.7 9.8 3.2 3.1 3.4 3.6 2.8 7.8-.4 2.5-1.4 5.4-2.3 6.4-5 5.8-20 7.6-28.2 3.3a12 12 0 0 1-6.3-7.1 13 13 0 0 1-.9-10q2.8-12.7 9-17.1c4.6-3.1 6.6-3.1 9.2-.3m83.7 17.3c3 3.2 3.2 3.9 3 9.5-.1 3.3-.6 6.4-1.2 7-2 2-11.2.8-12.7-1.6-1-1.8-5.3-1.8-6 0-.3.7.1 2.6.9 4.1 2.1 4.1 1.8 5-2.8 8.1-9.7 6.4-24.6 1.9-35.6-10.9-2.3-2.7-4.2-5.8-4.2-7 .1-2 .4-1.9 3.1 1.3l3 3.5 12 .3c11.9.3 12.2.2 16.8-2.7 2.5-1.6 6.7-3.9 9.3-5.2 3.6-1.7 5-3.1 6.1-6.1 1.9-4.8 4-4.9 8.3-.3m39.4 7.6c5.5 4.4 11 4.9 18.2 1.5 6.8-3.2 10.4-3.2 19.3-.1 6.8 2.4 9.5 4.5 9.5 7.2 0 1.2-.5 1.2-2.7 0-7.4-3.9-11.3-4.9-12.9-3.6-2.1 1.7-.7 2.9 3.2 2.9 2.6 0 4.7 1 8 3.7 2.4 2.1 4.4 4.2 4.4 4.7s-1.1-.1-2.4-1.3c-1.8-1.7-4.1-2.4-8.5-2.8-5.3-.5-6.1-.3-6.8 1.3a8 8 0 0 1-2.2 3.1c-1.4 1.1-1.4 1.4-.1 2.3.8.5 2.3 1 3.3 1 2.8 0 9.7 2.4 9.7 3.4 0 .5-1.9.5-4.2.1s-8.1-1-12.8-1.5a79 79 0 0 1-31-10.2c-3.1-2.4-3.3-2.9-2.2-5.3.7-1.4 1.2-3.8 1.2-5.4 0-5.2 3.3-5.6 9-1M61.3 455.9q3.1 5.2.3 5.1c-1.6 0-4.6-4.2-4.6-6.5 0-2.5 2.4-1.7 4.3 1.4m139 3.7c2.5.8 5 2.1 5.6 2.8 1 1.2-11.3-2.5-12.6-3.8-1.1-1.1 2.2-.6 7 1m-7 11.7c.2.7 0 5.5-.5 10.7a192 192 0 0 0-1.7 25c-.2 10.9-.8 12.8-3.9 11.1-2.1-1.1-5.2-.5-5.2 1 0 .5 1.5 1.5 3.4 2.3q6 2.5 3.8 4.8-1 .9-4-.6c-1.7-.9-3.8-1.6-4.7-1.6-2.8 0-1.6 3.1 1.8 4.5 4.4 1.8 6.9 4.6 5.7 6.5-.8 1.2-1.9.6-5.9-3.4q-5.1-5-6.6-4.2c-1.5.5-1.1 1.3 2.1 4.9 2.1 2.3 4.9 5 6.2 6.1q2.4 1.9 1.3 2.9-1.8 2.1-10.3-8.7c-3.6-4.5-3.8-5-2.4-7 3-4.2 8.7-16.9 11.6-26.1a71 71 0 0 0 4.6-20c.6-6.6 1.7-9.5 3.4-9.5q.7.1 1.3 1.3m13.7.8c0 .5-1.3 1.5-3 2q-5.8 2.3.2 3.1c3.1.3 3.1.4 3.4 6.4l.4 6.1-3.8.9c-4.9 1.2-4.3 2.9 1 2.9 4.1 0 4.2.1 5 4 1.1 5.3 4.1 14.8 6.7 21.4 2.6 6.3 2.2 8.1-1.6 8.2a58 58 0 0 0-9.8 1.8c-5.3 1.3-6.9 2.1-6.7 3.3q0 1.5-1.3 2.2-1.4.6-1 1.7.8 1 2.3.4l9.1-2.6c4.1-1.1 7.9-2.6 8.5-3.3 1.7-2.1 4.3-2.6 6.2-1.2 2.9 2.2 1.1 4.6-3.5 4.6a23 23 0 0 0-6.8 1.1c-1.5.6-6 1.9-10 2.8s-7.1 2-7 2.6q.3.8 1.2.8c5.1-.9 14.6-2.8 21.9-4.4 7.9-1.7 9.1-1.8 10.4-.5s1 1.5-2.4 2.1q-10.3 1.5-23.4 5-16.2 4.3-16 2.8.1-.9 1.8-1.9A34 34 0 0 0 196 530c0-2.2 2.3-3.4 9.9-5l6.9-1.5c2.3-.6 3.1-3.5 1-3.5-.7 0-4 .7-7.3 1.5s-6.8 1.4-7.8 1.5c-3.3 0-.8-1.8 3.4-2.5 5-.9 4.7-3.1-.5-2.8q-3.6.3-3.6-1.1.1-1.2 3.3-1.5c6-.3 11.2-1.6 10.7-2.6-.5-1.1-1.7-1.1-9-.4l-4.5.4-.3-4.5c-.2-2.5-.1-8.6.3-13.6.7-9.1.7-9.2 3.6-9.8 3.6-.7 3.8-2.3.4-3.2-2.2-.6-2.5-1.1-2.5-5.5V471h3.5c1.9 0 3.5.5 3.5 1.1m-2 59.9q-.1.9-1.1 1-.8-.1-.4-1 .6-1 1.1-1 .3 0 .4 1"/><path d="m219.5 384.5-4.7 1c-5.6.9-4.6 2 1.9 2.2 5.3.2 7.2-.6 7.3-3 0-.7-2.6-.8-4.5-.2m-14.2 45.6c-1.9.7-2.3 1.6-2.3 5.3q0 4.4 1.5 5c2.2.8 4.2-.3 4.9-2.7 1.6-5.9-.2-9.1-4.1-7.6M184.5 513c-.8 1.2 2 2.4 3.5 1.5.6-.3.8-1.1.5-1.6-.8-1.2-3.2-1.2-4 .1m18.5-10c-1.2.8-1.2 1 .3 1.6 2.2.8 5-.3 4.2-1.6q-1.4-1.9-4.5 0m152.7-90.3c-1.7 1.6-.2 2.1 6.3 2.2 5.5 0 7-.3 7-1.4 0-1.2-1.4-1.5-6.3-1.5-3.5 0-6.7.3-7 .7m-12.7 1.4c0 .6-.8 1.8-1.7 2.5-1.7 1.2-1.6 1.5 1.3 3.8a10 10 0 0 1 3.8 6.6q.7 4.1 1.9 3.7c1.9-.7 1.1-11.7-1.1-14.6-2.1-2.8-4.2-3.8-4.2-2m15 3.3c-1.6 1.6.8 4.6 3.8 4.6 3.3 0 6.8-2.2 5.9-3.7-.9-1.4-8.5-2.1-9.7-.9M348 434c0 2 4.8 3.4 7.5 2.2 4-1.8 2.9-3.2-2.5-3.2-2.7 0-5 .5-5 1m105 165.5q-1.4 1.6-.2 2.7c1.3 1.3 4.2-.6 4.2-2.8 0-1.9-2.4-1.8-4 .1m-211.2 3.6c-1 .5-1.8 1.9-1.8 2.9 0 2.8 4.6 2.7 6 0 1.9-3.5-.5-5.1-4.2-2.9m229.9.1c-2.9 2.2 2.2 6.5 5.5 4.7 2.4-1.3 2.3-3.6-.1-4.9-2.5-1.3-3.4-1.3-5.4.2m-20.5 2a10 10 0 0 0-1.4 3.3c-.3 1.8.2 2 4.2 1.7 5.1-.4 6.5-1.3 5.6-3.7q-.6-1.6-2.5-1-1.8.4-2.6-.5-1.3-2-3.3.2m-11.7 2.2c-1.6 1.2-1.7 1.6-.6 2.9 1.4 1.7 3.7 1.3 4.5-.8.8-2.3-1.8-3.7-3.9-2.1M110 611q.1.9 1 1 1-.1 1-1t-1-1a1 1 0 0 0-1 1m387.2.2c-1.1 1.5.2 5.8 1.8 5.8.5 0 1-1.6 1-3.5q0-5.4-2.8-2.3m-390.7.8q-.4.9.4 1 1-.1 1.1-1 0-1-.4-1-.6 0-1.1 1m-2.8.7q-.7.6-.7 1.7 0 .9 1.2-.2 1-1 .7-1.7-.6-.4-1.2.2m379.8 2.6c-2 1.6-1.3 3.7 1.4 3.7 2.3 0 4.1-1.9 3.4-3.6q-1.1-2.7-4.8-.1m-270.7 4.1c-2.3 1.7-2.3 2.9.2 5.1 3.5 3.1 6.3 0 4.4-4.9q-1.1-2.9-4.6-.2m276.2 1.9c-2.8 1.4-3.8 4.8-1.8 6.4.7.6 3.1 1.4 5.4 1.7 3.1.6 4.4.3 5.3-.8 1.8-2.2.7-4.6-1.8-3.9q-2.1.6-2.1-1c0-2.6-2.3-3.7-5-2.4m-24.9 2.6q-1.2 1-.8 2.5.6 1.8 3.4 1c3.8-.9 4.1-1.3 1.9-3-2.3-1.6-2.6-1.7-4.5-.5m-351.4 2.5c-.8 2 2 4.3 3.5 2.8 1.4-1.4.3-4.2-1.6-4.2q-1.2.1-1.9 1.4m362.6-.3c-1.7 1.7-.4 3.9 2.1 3.9 2.7 0 4.6-1.8 3.9-3.6-.6-1.7-4.5-1.8-6-.3M220 630.5c-1.9 2-2.1 2.7-1 4q2.7 3.3 5.6-1c1.3-2 1.4-2.8.4-4-1.7-2-2.3-1.9-5 1m-26.4 16.1q-1.9 1.4-3.2.4-1.2-1-3.8.1c-2.9 1.3-3.1 2.1-1.5 5 .8 1.6.7 2.5-.5 3.8-1.5 1.7-1.5 1.9 0 3.2 1.4 1.1 2 .9 4.3-1.9 1.4-1.7 3.8-3.6 5.4-4.1 2.1-.8 2.7-1.7 2.7-4q.2-5.4-3.4-2.5m9.2-.2c-2 1.5-2.4 4.1-.7 5.1 1.4.9 4.9-2.4 4.9-4.7 0-2.1-1.8-2.3-4.2-.4m279.5 4.1c-1.5 1.2-1.6 1.6-.4 2.4 1.6 1 5.1-.3 5.1-1.8 0-1.6-2.8-2-4.7-.6m-280.8 3.9c-1.8 1.3-1.6 4.6.3 4.6s4.5-2.8 3.9-4.4c-.8-2-1.7-2-4.2-.2m12.8.6q-2.1 1-2.3 1.7c.1 2 1.9 3.4 4.1 3.1q2.6-.1 2.4-2.7c0-2.8-1.1-3.3-4.2-2.1m-46.1 1.2c-1.5 1.5-1.6 4.5-.1 5.4 1.6.9 5.3-3.1 4.6-5s-2.8-2.1-4.5-.4m317.1 3.9c-2.4.9-3.1 4.3-1.2 5.4s5.9-.4 5.9-2.4c0-2.7-2.1-4-4.7-3m-335 2.6c-2 .8-1.5 4.1.7 4.8 2.5.8 5-1 5-3.6 0-1.9-2.7-2.5-5.7-1.2m342.1 1.8c-.8 2 .2 4.5 1.9 4.5 1.9 0 5-3.6 4.2-4.9-.9-1.6-5.5-1.3-6.1.4m-360.8.5q-2.1.7-.7 1.4c.7.5 1.8.3 2.4-.3q2-2.3-1.7-1.1m67.8 2.4c-1.2 3.1 0 5.1 3.1 5.1 2.7 0 3-.3 3-3 0-2.5-.4-3-2.8-3.3q-2.6-.3-3.3 1.2m-59.1.6c-2.7 1.1-3.2 5.7-.7 6.7s4.9-1.1 4.9-4.2c0-3.2-1-3.8-4.2-2.5m51.2 1.4c-1.9 1.4-1.9 1.5-.1 3.5 2 2.2 6 2.8 7.1 1.1.9-1.4-2.1-6-3.8-6-.7 0-2.2.6-3.2 1.4m-61.3 1.4a5 5 0 0 1-4.5 1.5q-4.7-.9-2.7 4.1c1.1 2.9 3.1 3.4 5 1.1a3 3 0 0 1 3-1c2.4.8 5.7-3.1 4.4-5.2q-2.2-3.7-5.2-.5m82.5-.7c-2.2 1.3-1.3 2.9 1.7 2.9q4.5 0 2.5-2.7c-1.3-1.5-1.8-1.6-4.2-.2m17.7.3c-.9 2.3 0 5.1 1.6 5.1q1.5 0 1.5-2.9c0-3.2-2.1-4.7-3.1-2.2m267.3-.7c-1.2 1.1-.8 2.3.8 2.3q1.3-.2 1.5-1.5c0-1.6-1.2-2-2.3-.8m-20.7 1.8c-1 1.3-.9 1.5.9 1.5 1.1 0 2.1-.4 2.1-.9 0-1.8-1.8-2.1-3-.6m-251.8.7q-2.4 2.5.4 5.2c1.9 2 3.4 1.2 3.4-1.8 0-3.1-2.2-5-3.8-3.4m-117.9 2c-4.4 2.1-1.5 8.4 3.3 7.2q2.3-.6 2.4.5c0 1.7 1.8 1.3 4-.9q4.5-4.6-1.4-3.4c-3 .5-3.5.3-3.8-1.7-.4-2.7-1.5-3.1-4.5-1.7m58.9.5c-1.2 2.4-.4 4.3 1.8 4.3s4.4-2.6 3.6-4.5c-.7-2.1-4.3-1.9-5.4.2m-7.8.7c-1.5 1.2-1.7 1.8-.8 3.3 1.4 2.4 4.7 2.8 6.4.8 1.1-1.3 1-1.9-.5-3.5-2.2-2.4-2.5-2.4-5.1-.6m20 0c-.3.8-.3 2 0 2.5.9 1.4 5.1-.3 5.1-2 0-2-4.4-2.4-5.1-.5m40.7 1c-.9 1.1-.9 2.2.3 5 2 4.9 4.6 4.8 4.6-.2 0-5.3-2.5-7.7-4.9-4.8M71.3 678c-3.1 1.3-2.9 3.8.4 4.6q2.7.8 4-1.2c2.5-3.4.1-5.2-4.4-3.4m27 1q-4.2 1.8-.3 4c2 1.1 7 .4 7-1 0-.7-3.4-4-4.1-3.9zm-74.1 1.7c-3.1 2.7-3.9 6.9-1.4 8.2 2.8 1.5 5-.6 5.4-5.3q.5-6.7-4-2.9m32 .4c-5.3 2.3-4.7 3.9 1.1 3.2q6.8-.8 6.7-3.9 0-2.9-7.8.7m434.3-1c-.4.5-1.8 1.4-3.1 1.9q-2.4 1-2.4 3.2c0 4.1 2 9.7 4.5 12.5 2.1 2.5 2.6 2.6 4.4 1.5 1.2-.6 3-1.2 4.1-1.2 1.8 0 2-.6 2-8 0-4.4-.3-8-.6-8-2.2 0-4.3 2.5-4.9 6.1-1 5.8-2.1 3.8-1.7-3.2.4-5.5-.6-7.6-2.3-4.8m-446.5.8c-3 .8-4 4.1-1.3 4.1 1.1 0 2.8-.6 3.9-1.4 2.4-1.9.8-3.5-2.6-2.7m44 .7c0 .9-.8 2.3-1.7 3-1.5 1.1-1.6 1.6-.5 3.4 1.7 2.7.4 4.8-1.4 2.2-1.9-2.8-6-1.7-7.9 2.1-1.9 3.9-1.9 4.4.4 5.7 2.7 1.4 6.7-.3 7.4-3.2.6-2.1.8-2.2 2.3-.7s1.9 1.5 4.6.2c2.4-1.2 2.8-2 2.3-3.7l-1.2-5.1c-.8-4.7-4.3-7.8-4.3-3.9m33-.1c-1 1.2-.9 1.6.5 2.1 1.9.8 4-.9 3.1-2.5q-1.4-2.3-3.6.4m15.4 0c-1.5 1.2-1.6 1.6-.5 2.4 1.5 1 4.8.4 5.7-1.1q.5-1-.7-1.9c-1.9-1.2-2.2-1.1-4.5.6m-103.3.4q-4.8 1.2-1.3 4.4c2.4 2.2 5.2 1.2 5.2-1.8 0-2.9-.8-3.4-3.9-2.6m198.3.5c-.9 2.4.4 4.8 2.3 4.4 2.4-.4 2.4-5.2 0-5.6-.9-.2-2 .4-2.3 1.2m-31.6.7c-1 .5-1.8 1.8-1.8 2.8 0 2.3 3.6 5.6 4.5 4.2q.5-1-.1-1.1c-.6-.1.1-.9 1.1-2 1.5-1.6 1.5-2.2.5-3.5-1.5-1.7-1.9-1.8-4.2-.4m275.9 1c-1.6 1-1.7 1.3-.3 3.3.8 1.3 1.9 4.1 2.5 6.4 2.6 9.4 8.7 9.6 7.2.2-1.4-9-4.8-12.6-9.4-9.9M5.1 685.3c-.8 1.1-.6 1.8.8 3.1 2.4 2.2 5.5 1.7 5.9-.8.7-3.2-4.4-4.9-6.7-2.3m105.9.2q-1.1 1.5-.7 2.1c1.1 1.1 5.7-.6 5.7-2.1 0-2-3.4-1.9-5 0m66 .1q0 1.6 1.6 1 1.5-.5 2.5-.6c1-.1.9-.5.9-1q-.2-1-2.5-1-2.4 0-2.5 1.6m36.7-.9c-1.3 1.3-.7 5 1.1 6.6q3.2 3 3.2-2.3c0-3.5-2.6-6.1-4.3-4.3m-150.6 1.7c-.9 1.1-.8 1.8.4 3 .9.9 2 1.6 2.4 1.6 1.5 0 3.3-3 2.7-4.5-.7-1.9-4-2-5.5-.1m91.7.7c-2.1 1.2-2.4 3.9-.4 3.9.7 0 1.9-.7 2.6-1.5 1.7-2.1.1-3.7-2.2-2.4m-12.3 1.3c-1.5 1.1-1.7 1.7-.8 2.7 1.7 1.7 6.5.3 6.1-1.9s-2.9-2.6-5.3-.8m-129.4 2q-1 1.4-.2 2c1.3.9 4.3-.4 3.8-1.7-.5-1.7-2.3-1.9-3.6-.3m86.5.9q-2 1.4-.7 2.1c1.5 1 5.3-.3 4.8-1.7q-1-2.5-4.1-.4m86 .3c-1.5 1.4-1.5 1.9-.3 3.1 1.9 1.9 7 0 6.5-2.5-.4-2.3-4.2-2.7-6.2-.6m280.1 2.1q-2.4 2.2 3.3 4.7 6 2.7 6-.9c0-2.9-7.3-5.9-9.3-3.8m-309.9.8c-.1.2-7.7.5-16.8.6-23.9.5-40.7 3.1-44.9 7-2.1 1.9-2 3.9.4 6.9 1.7 2.2 3.3 6.4 7.1 17.7a102 102 0 0 0 6.3 15.2c1.6 2.7 3.9 7.6 5.1 10.9s3.1 6.9 4.1 7.8q3.6 3.4-.1 6.9c-4 3.6-1.2 12.2 5.1 15.5 2.6 1.5 6.9.1 7.9-2.4.8-1.8.9-1.7.9 1.1.1 2.8-.3 3.3-2.1 3.3-3.4 0-4.5 1.1-5.1 5a183 183 0 0 1-9.8 41.5l-3.8 10.5a41 41 0 0 1-5.5 11.2c-1.4 1.5-2.6 3.1-2.6 3.7q-.1 2.4 12.1 6.9c4.1 1.5 9.4 3.8 11.9 5.2a25 25 0 0 0 7.3 2.6 9 9 0 0 1 4.6 1.8c1.6 1.4 2.3 1.4 7.7 0a70 70 0 0 0 10.9-3.9c2.8-1.3 6.8-2.9 9-3.5s4.7-1.6 5.5-2.1l4-2c7.1-3 9.5-4.8 9.8-7.1.3-2.8-3.2-7.8-5.6-7.8-1.7 0-4.5-4.7-9.8-16.3q-2.7-5.9-4.5-5.7-3.2-.2-.9-2.6.9-1-.5-3.8c-.8-1.6-1.5-3.6-1.5-4.6s-.7-3.1-1.5-4.6c-.8-1.6-1.5-3.9-1.5-5a25 25 0 0 0-1.6-6.5c-3.4-9.6-4.4-14.3-3-15.4 2-1.5 4.6-7.1 4.6-9.7 0-1.3-.7-3.4-1.6-4.6-1.4-2-1.4-2.7 0-6.5a142 142 0 0 0 3.2-11.2c.9-3.9 2.2-7.9 2.8-9 .7-1.1 2.1-4.5 3.1-7.5l2.5-7.1c.5-.9 1.4-5 2.1-9.1.9-5.5 1.6-7.5 2.6-7.1 2 .8 3.7-4.1 2.7-7.8-.8-2.7-1.8-3.5-6.9-5.4-5.7-2.1-12.9-3.7-13.7-3m12.4 7.3c3.1 3.1-4.6 5-20.9 5.1-10.9.1-13.3-.3-13.3-2.5 0-1.8 4.2-2.8 8.5-2q3.5.7 5.7-.8c2.6-1.9 18.1-1.7 20 .2m-49.5 8.2c5.5.5 12.4 1.2 15.1 1.6 2.8.3 11.2.1 18.6-.6s13.9-1.1 14.2-.7c.3.3-.4 4-1.6 8.4-2.4 8.8-2.5 9.3-7.6 22.3-2 5.2-4.4 12.4-5.4 16-2 7.9-3.4 8.8-13.5 8.9-6.6.1-7.4-.1-8.9-2.3a6 6 0 0 0-3.8-2.8q-2.1-.4-2.6-1.9c-.2-1.3.6-1.5 5.1-1.1 3 .2 5.7 0 6-.6 1.3-1.9-3.3-4.5-8.8-5-4.3-.3-5.8-.9-6.6-2.5-1.1-1.9-.9-2 7-1.5 5.8.3 8.1.1 8.5-.8.7-1.7-2.9-4.7-6.2-5-10.5-1.2-13.3-1.8-14.3-3-2.3-2.8.1-3.6 9.3-2.9 8.3.6 9 .6 8.6-1.1-.2-1.4-2.1-2.2-7.4-3.4-3.9-.9-8.5-1.5-10.2-1.4-4 .3-6.2-2-3.4-3.5q2-1 7.8-.1c7.1 1.2 18.2 1.1 19-.2 1.2-1.8-1.1-2.6-9.2-3.2-4.5-.3-10.2-1-12.8-1.5-4.9-.9-10-3.7-9.2-5 .3-.4 5.6-.2 11.8.6 12.3 1.5 19.9 1.4 20.5-.3.2-.7-5.6-1.8-16.1-3.1-15.6-1.9-20.4-3.3-19-5.5q.8-.8 2.8-.4c1.1.4 6.7 1.1 12.3 1.6m23.3 65.5c0 2-1.7 4.5-3.1 4.5-.8 0-1.9-8.1-1.2-9.3.8-1.4 4.3 2.4 4.3 4.8m-12.4-3.4c.7 1.2-1.4 5.9-2.7 5.9q-1-.2-2-2.2c-1-1.8-.8-2.4.7-3.5 2.2-1.6 3.1-1.6 4-.2m21.4 2c0 2-2.6 7.9-3.6 7.9q-.3-.2.6-1.9c.5-1.1 1-3.6 1-5.6q0-3.5 1-3c.6.3 1 1.5 1 2.6m-12.4 11c.4.7 2.2.9 4.4.6l3.8-.5 1 4.7a43 43 0 0 0 1.7 6.3c.5 1.4 0 2-2.1 2.8-1.6.5-3.7 1.5-4.6 2q-1.7 1-2.2 1c-.3 0-.6-3-.8-6.7-.3-5.9-.6-6.8-2.3-7.1-2.6-.5-3.9-1.8-3.1-3.1.9-1.4 3.3-1.4 4.2 0m-5.1 7q.6 1 .2 1.6c-.8.7-4.7-.7-4.7-1.8 0-1.3 3.7-1.1 4.5.2m-1.1 7.2c1.5 1.1 1.6 2.1.6 9.8-1 8.6-.6 50.1.6 53.2.8 2.3 3.1 2.8 4.9 1.1 1.7-1.8 2.2-16.6.5-20.8-.5-1.4-.5-2.8-.1-3.1.5-.2.7-3.6.4-7.4-.4-6.5-.3-6.9 1.9-7.4 1.3-.4 3.9-.7 5.8-.7 2 0 4.6-.7 5.8-1.6 1.2-.8 2.6-1.3 3.1-1 .8.5 6.1 11 6.1 12.1 0 .6-7.2 2.5-9.8 2.5-1.3 0-3.7 1-5.4 2.1-2.5 1.8-2.7 2.4-1.6 3.5s2.4 1.1 7.5 0c3.5-.7 7.1-2 8.1-2.9s2.1-1.7 2.4-1.7a40 40 0 0 1 4.2 7.2c2.1 4 4.9 8.3 6.3 9.4l2.5 2.1-2.6.5c-2.1.4-3.2-.1-4.9-2.3l-2.2-2.8-8.5 1.3c-12.3 2.1-14.1 2.6-13.8 4.4.2.8 1.4 2.3 2.8 3.4 2.6 1.9 2.7 1.9 7-.1 4.7-2.2 10-2.8 10-1.2 0 .5-1 1.2-2.2 1.6-1.3.3-3.2 1-4.3 1.5a54 54 0 0 1-18 4.5c-2.2-.1-5.8-1.1-8-2.2s-7.5-3.5-11.8-5.3c-4.5-1.9-7.6-3.7-7.4-4.4 3.2-7.8 4-9.6 4.8-9.6q.8 0 .9.9c0 .8 8.2 4.1 10.2 4.1.5 0 .8-1 .6-2.2-.2-1.7-1.6-2.7-5.5-4.2q-5.5-1.8-5.3-3.7c0-2.4.8-2.4 4.5.1s6.8 2.6 6.3.2c-.2-1.4-4.5-4.2-8.1-5.5-.5-.1-.2-2.3.6-4.7 4.9-15.2 5.8-18.7 6.3-22.9 1.1-9.6 1.5-10.2 4.8-7.8m19.4 5.9c-.2 1.9-1.1 2.4-4.5 2.9a14 14 0 0 0-5.7 1.8q-3.3 2.5-2.2-2.2c.4-1.9 1.6-2.6 5.3-3.4 7.3-1.6 7.5-1.5 7.1.9m2.2 6.5c0 .5.3 1.8.6 2.9.5 1.9 0 2.2-3.9 2.8-2.4.4-6.1 1.5-8.1 2.5l-3.6 1.9v-3.9c0-3.7.1-3.9 3.3-3.9 1.7-.1 4.3-.7 5.7-1.5 2.7-1.5 6-2 6-.8"/><path d="M125.6 823.7c-.7.7 2.3 4.3 3.6 4.3q.7-.2.8-1.5c0-1.6-3.4-3.8-4.4-2.8m21 6.7c-1 3.9 1.5 4.7 6.4 2.1 4.6-2.4 3.9-4.4-1.4-4.2-3.5.2-4.6.6-5 2.1m-23.6.1c0 2.1 4.6 4.9 6.7 4 1.6-.6 1.5-.9-1-3.1-3.2-2.7-5.7-3.1-5.7-.9m24.6 15.4q-5.3 1.1-2 4.5 1.6 1.8 4.5 1.1a28 28 0 0 1 5.9-.7c4-.1 4.9-1.7 2-4-2.2-1.8-5.1-2.1-10.4-.9m-31.6 6c0 2.9 11.3 8.2 13.2 6.3q2.4-2.7-6.2-5.6c-5.6-1.8-7-2-7-.7M25.5 697.1a167 167 0 0 0-23.1 5.1L0 703.3l.1 19.4c0 11.4.5 19.5 1.1 19.9q2.6 1.7.9-4.2c-1.4-5.1-.5-5.6 1.5-.8.9 2.1 4.7 10.3 8.5 18.2s6.9 14.6 6.9 15a16 16 0 0 1-3.5 4.2c-4.4 4.3-4.4 7 0 11.4 3.7 3.8 4 5.1 2.6 14.1-2.6 16.4-12 49.3-16.5 58-1.6 3.1-2.2 7.7-.8 7.3 1.3-.4 14.7 2.3 18.5 3.8 2 .8 5.3 1.4 7.2 1.4 1.8 0 3.6.4 3.9.9s3.2 1.2 6.3 1.6q5.8.7 7.6 2.6c2.6 2.7 3.9 2.4 9.3-2.4A86 86 0 0 1 74.5 862c1.1 0 3.4-3.3 3.5-4.9 0-.7-1.8-4-4-7.3s-4-6.7-4-7.4-.4-2.2-.9-3.2c-1.8-3.5-3.3-10-2.6-11.2q.7-1.2-.1-.7c-1.8 1.1-3.2-.8-5.2-6.8a45 45 0 0 1-1.8-6.2c.1-.2 1.7.3 3.5 1 2.9 1.1 3.4 1 4.6-.6.8-1.1 1.1-2.5.8-3.2-.4-1.1.3-1.3 3.1-.8 3.2.5 3.7.3 4.6-2.1 2.1-5.6-3.5-9.5-8.4-5.9-1.4 1-2.4 2.5-2.3 3.3q0 1.3-1.4 1.8c-1.9.3-1.9-4-.1-4.6q1.1-.4 1.2-1.3t-.9-.5c-.5.4-.4-.9.1-2.8 1.2-3.8.6-6.6-1.5-6.6-2.4 0-6.7 4-6.7 6.3 0 3.6-1.8.5-2.5-4.4q-1.1-7.1 4.4-7.4l3.9-.3q2-.3 2.2-1.7c0-1.9-3.2-3.3-3.8-1.7q-.4 1.1-1.9 1.2t-.8-2.1c.5-1.5-.2-3.2-2.5-6.1l-3.3-4 2.2-4.3c1.1-2.3 2.1-4.6 2.1-5.1s.6-2.1 1.4-3.6c.8-1.4 1.9-4.3 2.6-6.5 2.1-6.5 2.9-7.6 4.6-6.2 1.1.9 2.1.9 4 0 3.6-1.6 2.5-3.8-2.8-5.5-1.6-.5-1.6-.8.1-5.8a95 95 0 0 1 9.9-19.6c4.7-7.5 3.4-12.2-4.3-15.2-7-2.7-36.7-4.5-46-2.9m30.5 6.5q-.2.4-2.5.4c-2.3 0-2.5-.4-2.5-.9s1.1-.6 2.5-.3 2.5.6 2.5.8m12.8 1q4 2.7.3 5.8c-2.5 2.3-30.6 3.3-33.1 1.2-.8-.7-2.7-1.6-4.2-2-3.8-.9-3.5-2.6.5-2.7 7.6-.3 17.5.3 21.2 1.3 7 1.8 10 1.6 10-.7q0-2-2.2-2.3-2.1-.4-2.3-1.3c0-1.5 7.4-1 9.8.7m-.8 12c0 .3-2 4.8-4.5 10s-4.8 10.9-5.2 12.7c-.3 1.8-1.3 4.5-2.1 6.2l-5.7 13.4-4.1 10.3h-8c-13.2.1-13.6 0-13.2-2 .2-1.3 1.3-1.7 4.3-1.7 6.6 0 5.1-2.6-2.5-4.6a32 32 0 0 1-6-1.9l6.2-.3c3.1-.1 6.2-.7 6.9-1.4 1.5-1.5 1.2-1.6-8.9-3.4-6.2-1-10.4-3.1-9.1-4.3.2-.2 2.8 0 5.8.5 6.2 1 10.1.3 10.1-1.6q-.2-1.4-4.7-2c-7.9-1.1-14.3-2.9-14.1-4 .2-.6 3.5-.9 8.4-.6q8.3.3 8.9-.9c1.1-1.7-1.4-3-6-3-4-.1-15.2-2.4-16.2-3.4q-2.6-2.5 10.2-1.3c9.6 1 15.4 0 14-2.2-.5-.9-2.8-1.3-14.7-2.5q-7.7-.9-7.8-2.8 0-1 4.7-.2c2.7.4 8.2.8 12.3.8 6.3.1 7.5-.2 7.8-1.7.3-1.3-.3-1.7-3-1.7-4.6 0-24.3-3.1-25.9-4.1-2.9-1.8.5-2.2 8.8-1 13 1.8 31 2.5 35.2 1.3 2-.6 6.5-1.5 10.1-2l7.3-1.1q.7 0 .7.5m-26.7 56.5q6.7 3.5 6.7 8.5.1 6.6-3.1 6.4c-1.6 0-1.9-.8-1.9-4.7s-.5-5.2-3.2-8q-4.7-5.1 1.5-2.2m-14.3.6c-.1 1.1-2.6 4.3-3.4 4.3s-.8-3.5.1-4.3c.9-.9 3.3-.9 3.3 0m7.7 8.6c-.3 2.1-.4 2-1.5-.6-.7-1.6-.9-3.3-.6-3.9 1-1.6 2.6 1.9 2.1 4.5m-3.2 8.5c-1.2 1.2-5.2-1.1-6.7-3.9q-4.4-7.8 2.7-.9c2.4 2.4 4.3 4.6 4 4.8m7.5-1.4c.6.8 2.3 1.6 3.8 1.8 2.4.3 2.8.9 3.3 5 .4 2.5 1.6 7.3 2.7 10.5L52 817a87 87 0 0 0 3.7 9.8c1.3 2.9 2.3 6 2.3 7s.9 3.4 2 5.5c1.1 2 2 4.3 2 4.9s.7 2.6 1.5 4.2c.8 1.5 1.3 3.1 1 3.6-.2.4-2.5 1.3-5 2-4.7 1.3-7.1 3.2-6 5 .8 1.3 4.2 1.3 5 0 .9-1.4 8.3-4.9 8.9-4.2 1.1 1 .6 2.2-.8 2.2-.8 0-2.3 1.1-3.4 2.5S60.7 862 60 862a22 22 0 0 0-5.8 3.6c-4 3-5.3 3.5-8.7 3.1-6.8-.8-21.8-3.5-25.5-4.6-1.9-.6-4.7-1.1-6.2-1.1-2.4 0-6.5-3.7-5.3-4.8.2-.2 3.2.1 6.7.7l9.3 1.6 7.1 1.6c6.2 1.8 10.2-.6 5.3-3.2-1.9-1-11.8-2.9-23.2-4.6-3.1-.4-3.7-.9-3.2-2.2l1.2-3.6a107 107 0 0 0 4.9-15c2.3-8.9 3.2-10 6.8-8.4 2.3 1.1 2.9 1 4.3-.4 2-2 1.4-2.7-2.9-3.6-1.9-.4-3.4-1.4-3.6-2.4-.3-1.4.4-1.7 3.8-1.5 4.6.2 7.5-1.7 5-3.2-.8-.5-2.5-1-3.6-1-3 0-4.9-2.4-3.1-3.9q1.3-1 1.9-.6c.2.3 2 .6 3.9.8 3.2.2 3.4.5 4.1 4.7 1.5 10.1 1.8 13 2.8 24.5.8 8.6 1.6 12.3 2.7 13.2q1.4 1.2.9 3.1-.7 1.9 2.3 5.1c3.4 3.6 4.1 3.7 7.2 1.2 2.3-1.9 2.3-2 .5-3.9-2-2.3-1.3-4.7 1.1-3.7.9.3 2.7-.2 4-1.1 2.4-1.5 2.4-1.6.6-2.9-1.4-1.1-1.6-1.6-.5-2.6 3.4-3.6-.5-5.2-5.8-2.4-1.6.8-3.1 1.2-3.3.7a177 177 0 0 1-2.5-22.2c0-5.4-3.5-29.6-4.5-30.8q-1.1-1.2-2.2-.8t-2.6-.5c-1.2-.8-1.2-1 .1-1.9q3-2 5 .4m-7.2 6.8c-.5 1.5-6.8 2.4-6.8 1q-.1-2.2 4.3-2.2 2.8 0 2.5 1.2m-3 6.4q2 .7 2.2 1.6c0 1.4-6.3.5-6.8-1q-.7-2 4.6-.6m31.6 4.8c-1 4.8-2.3 6.7-2.4 3.4a17 17 0 0 0-.9-5.1c-.9-2.2-.7-2.3 1.5-1.9s2.4.8 1.8 3.6m-10 43c-.5 1.3-3.3 2.7-5.9 3q-.9 0-1-1.4-.2-1.8 6.7-2.9.6 0 .2 1.3m405.8-151.8c-3.1 2.2-2.6 5.8.9 6.2 2.2.3 2.7-.2 3.3-2.8q1.6-7.6-4.2-3.4m-251.8.5c-.3.6-.1 1.6.4 2.1 1.3 1.3 4.5-.8 3.6-2.3-.7-1.2-3.1-1.1-4 .2m-5.9.9q-.7.8-1.9.4c-.7-.3-1.8.1-2.4.9-1.6 1.9.9 5.4 2.9 4.1.8-.5 2.2-.7 3.2-.6q1.8.6 1.7-2.7c0-3-2.1-4.3-3.5-2.1m247.7 2.3c-1.5 1.7.1 4 2.4 3.5 2.7-.5 3.2-4.8.6-4.8-1.1 0-2.4.6-3 1.3m-27.2 3.2c-1.6 1.9.3 4.5 3.1 4.5 2.2 0 2.6-2.9.7-4.8-1.6-1.6-2.3-1.5-3.8.3m-233.8.7c.7 1.9 3.8 2.2 3.8.4q-.2-1.5-2.1-1.6-1.9 0-1.7 1.2m277.3.6a20 20 0 0 0-6 8.8l-1.2 3.7-.7-4.6c-.4-2.6-1.2-4.9-1.7-5.3-1.7-1-4.9 2.7-4.9 5.8v2.9l-3.8-4.1q-4-4-6.5-4-6 0-.6 5.6a20 20 0 0 1 4.4 7.7c1.4 5.7 4.5 5.9 6 .4q1-3.7 2-2.8c.6.5 2.1 1.1 3.5 1.3q2.6.1 3.6 3.6 1.9 6 4.9 4.8c1.4-.5 1.6-1.5 1-5.6-.8-6.1.7-11.3 4.1-13.4 3.4-2.3 3.2-5.6-.3-5.6-1.6 0-3.2.4-3.8.8m-157.7.8c-.4.3.5 2.2 1.8 4.1 1.3 2 2.4 4.1 2.4 4.8 0 1.9 2.7 2.6 4.3 1.2.7-.7 2.2-1.7 3.2-2.3 4.4-2.5 2.3-8-2.7-7-1.5.3-3 .1-3.3-.4-.7-1.1-4.8-1.4-5.7-.4m-91.4 1.8c-.7 1.9.3 3.6 2.2 3.6q1.5 0 1.2-2.2c-.4-2.6-2.6-3.6-3.4-1.4m-128.1 1.3q-1.2.5-1.3 1.9t-1.5 2c-1.7.7-2 3-.5 3.9q1 .5 2.3-.2c.6-.4 2.1-.6 3.3-.5 3.1.4 5-2.3 3.6-5.3q-1.7-3.6-5.9-1.8m237.7 2.7c0 2.8 2.4 4.1 4 2.1s.5-4.5-2-4.5q-2 0-2 2.4m159.4-1c-.6 1.7 2.3 6.6 4 6.6q1.1 0 2.5-.9c1.1-.7 1-1.4-.8-4-2.4-3.3-4.8-4-5.7-1.7m-299.1 2.2c-.7 1.8 2 4.9 3.5 4 .6-.3.9-1.4.7-2.4l-.4-2.5c-.2-1.4-3.2-.7-3.8.9m118.2-.6c-1 1.6 2.4 6.2 4.3 5.8 2.1-.4 2.8-3.4 1.2-5.3-1.4-1.7-4.6-2-5.5-.5m190 1.1c-.8 2.5.6 4.2 2.8 3.4 1.8-.7 3-3.2 2.1-4.6-1-1.7-4.3-.9-4.9 1.2m-288-.1q-.8 1-2.6.5c-5-1.6-4.2 3.2 1 5.8 3.6 1.8 4.1 1.4 4.1-2.9 0-3.4-1.4-5.2-2.5-3.4"/><path d="M431.5 716.2c-.8 2 3.8 10.2 5.9 10.6 4 .8 3.9-1.8-.3-9.8-1.1-2-5-2.5-5.6-.8m34.6.7c-1.8 1.1-.5 8.7 1.6 9.5 3.5 1.4 5.6-4.1 3.3-8.5q-1.6-3-4.9-1m-249 1.5c-.7.8-1 2-.6 2.6q.5 1.2-1.4 1.7c-2.4.6-2.8 2.8-.7 3.6 2.5 1 6.8-3.2 6.4-6.1-.4-3-2-3.8-3.7-1.8m-42.8 2.5c-.7 1-.9 2.2-.6 2.5q1.8 1.8 2.5-1.9c.6-3-.3-3.2-1.9-.6m19.7-.9c-1.3.8-1.3 1.1.2 2.7 1.4 1.3 2 1.5 3 .5 1.7-1.7-1.1-4.5-3.2-3.2m137.3 1.7c-1.5.5-1.7 4.1-.4 6.1.5.8 1.7 1.2 2.7 1 2.3-.4 3.1-4.3 1.4-6.4-1.3-1.5-1.7-1.6-3.7-.7m8 .9q-.5 1.7 1.2 3.1 4 2.7 4-1.8c0-4.5-4.1-4-5.2-1.3m15.7 3.7c0 2.8 1.7 4.7 4.2 4.7 2 0 2.3-2.1.8-5.1-1.5-2.8-5-2.5-5 .4m9.7-1.2c-2.1 1.2-2.2 4.2-.2 5.9 1.2 1 1.8 1 3 0 3.2-2.6.7-7.8-2.8-5.9m-156.9 6c-2.1 1.2-2.3 3.8-.5 6.1 1.1 1.5 1.8 1.5 6.2.4 4.3-1.1 5-1.7 5.3-4 .3-2.4.1-2.6-3-2.4-1.8.1-4-.2-4.8-.5-.8-.4-2.3-.2-3.2.4m-130.4 1.4q-.7 1.3-2.4 1.5-4.6.2-3.3 6.7c1.1 4.7 3.2 5.3 8.6 2.3 3.6-2.1 4.1-2.1 4.9-.6 1.1 2 4.2 2.1 5.8.1 1.1-1.3 1.4-1.3 2.5.2 1.2 1.7 1.5 1.7 4.9 0 4.1-1.9 4.4-2.7 1.6-4.4-1.4-1-2.7-1-4.7-.2-3.8 1.4-3.7 1.5-4.3-2.7l-.5-3.7-6.3-.4c-4.9-.2-6.4 0-6.8 1.2m227.3.3c-1 1-1.7 2.5-1.7 3.3q-.1 1.1-1.3-1.1c-1.3-2.4-4.5-3-8.4-1.6-1.7.7-1.7 4.7.1 7.2 1.4 1.8 1.6 1.8 4.4.1 4.1-2.3 5.9-2.1 6.6.7.6 2.4 3.1 4 4.7 3 .7-.4.7-6.4 0-12.7-.2-1.3-2.8-.7-4.4 1.1m125.3.7c-1 1.2-1 1.8 0 3 1.7 2.1 3.7 1.9 4.5-.5 1.2-3.7-2-5.5-4.5-2.5m-114.8 1.1c-4 2.8-2.4 6.4 3 6.4 1.7 0 1.9-.4 1.3-3.3-1-4.4-1.7-4.9-4.3-3.1m-136.1 1.9c-1.2 1.4-2.7 2.3-3.1 2-1-.6-6 1.5-6 2.5 0 1.5 2.6 3 5.2 3 1.6 0 3.7.6 4.8 1.2q2 1.5 3.7.2c1.4-.9 2.1-.8 3 .5 1 1.4 1.3 1.4 3.3-.4 3.2-2.9 5.4-7.5 4.2-8.7-1.9-1.9-6.3.1-7.4 3.3q-2.1 5.4-2.3-1.9c0-4.5-2.1-5.2-5.4-1.7m167.7-.4q-1.8 1-1.8 4.6v3.6l-3.5-3.6c-4-4.1-4.4-4.3-7-2.3-1.8 1.3-1.8 1.4.4 3.2 1.2 1.1 2.9 3.1 3.7 4.6 1.4 2.8 4.7 3.7 5.9 1.8.9-1.5 4.2-1.2 4.9.5.6 1.7 3.2 2 4.1.4.4-.5 0-1.8-.8-2.7s-1.7-3.7-1.9-6.1c-.3-4.7-1.2-5.6-4-4m104.7 1.4c-1.6 5.1-1.3 4.9-4 3.1-1.3-.9-3.6-1.6-5-1.6-3.3 0-3.4 3.2 0 5.4 1.4.9 2.5 2.3 2.5 3s.7 1.9 1.6 2.6c1.2 1.1 1.8 1 3.1-.3 1.2-1.2 2-1.3 3.4-.4s2.1.9 3 0c1.4-1.4 1.8-9.1.7-11.6-1.1-2.1-4.7-2.3-5.3-.2M220 739q.1 1.8 1.5 2c1.4.2 1.5-.9 1.5-2s-.7-2-1.5-2-1.5.9-1.5 2m137.6.6c-1.5 1.4-2.1 3.4-1.2 3.4l1.9.6c1.9.7 4.8-2.2 4.1-4.1s-2.9-1.9-4.8.1m-158.6.1c-1.7.6-4 3.2-4 4.5 0 1.6 5.7.8 7.3-1 3.1-3.4 1.4-5.2-3.3-3.5m87.6 1.6c-2.4 1.7-1.3 3.7 2 3.7 2 0 2.5-.4 2.2-2.2q-.6-4-4.2-1.5m193.4.2q-1.6 2 3.6 9.3c.1.2 2 .5 4.3.6 4.8.4 6.2-.9 6.4-5.6.2-2.7-.2-3.4-2.1-3.6q-2.4-.5-2.9 1.7c-.7 2.8-1.6 2.6-3.6-.9q-3-5-5.7-1.5m19.1.1q0 1.7.6.6.4-1.2-.1-1.9-.6-.5-.5 1.3m-35.6 2c-2.2 2.3-1.5 5.8 1.2 6.2q2.4.5 3.3-2.4c1.9-4.9-1-7.3-4.5-3.8m-27.8 4.8c-.7 1.7 1.9 5.6 3.7 5.6s2.8-2.7 2.1-5.1c-.7-2.2-5-2.6-5.8-.5m-65.4 1.2c-.7 2 2.2 4.5 4.4 3.7.8-.3 1.3-1.5 1.1-2.7-.4-2.7-4.5-3.5-5.5-1m-49.7.2c-1 1.6.5 7 2.3 8.6 2.8 2.6 4.4.5 3.4-4.5-.7-3.4-1.3-4.5-3-4.7-1.2-.2-2.4.1-2.7.6m42.8.7c-.7 1.7 1 6.5 2.3 6.5 2.6-.1 3.7-2 2.7-4.7-1.1-3.2-4.1-4.3-5-1.8m-65 2.1c-.9 3.5 1.8 6.3 4 4.4a3.8 3.8 0 0 0 .4-5.8c-1.9-1.9-3.7-1.4-4.4 1.4m-90.2 0c-1.2.8-2.7 1.2-3.3.9-1.6-1.1-5.6.3-6.3 2.1-1.5 3.8 4.3 8.1 7.1 5.3q1.2-1.2 1.7 0c.9 1.5 3.9 1.4 5.4-.1.7-.7 2.8-1.1 4.7-1 3.2.3 3.4.1 4-3.2 1.2-5.9-1-7.2-5-3.1l-2.5 2.4v-2.4c0-2.9-2.4-3.3-5.8-.9m80.2-.2c-.8 2.1 4.5 9.6 6.7 9.6q3.6.2-.1-7c-2.1-4.1-5.5-5.4-6.6-2.6m22.7-.5c-1.6 1-.8 4 2 6.9 3.6 3.9 6.4 2.1 4-2.6-.5-.9-1.2-2.5-1.5-3.5q-1-2.8-4.5-.8M0 758.5c0 3.2.3 5.5.7 5.2.3-.4 1.4 0 2.2.8 2.7 2.3 6.5-.2 6.9-4.5.3-4.7-.8-6.1-5.7-6.7l-4.1-.6zm7.5.5q.4.9-.4 1-1-.1-1.1-1 0-1 .4-1 .6 0 1.1 1m68.9-4.6c-1.1.8-3 1.2-4.5.9s-3 0-3.3.6c-.4.6-2 1.1-3.5 1.1s-3.6.6-4.6 1.4c-1.8 1.3-1.8 1.5.9 5.2 4.8 6.4 5.5 6.7 9.2 3.9 2.8-2.1 3.4-2.3 4.4-1q2.5 2.9 5.4-.1c2.9-2.8 1.7-13.4-1.4-13.4-.3 0-1.5.6-2.6 1.4m23.8.1c-1.9 1.4-2.1 2.2-1.5 6.3 1.1 8.9 7.3 11.5 7.3 3.1 0-2.6 1.3-2.4 2.5.3 1.4 3.2 4.7 2.9 5.9-.4 1.4-4-1.6-8.1-5.5-7.6q-3.1.6-4-1.4c-1.2-2.2-1.8-2.2-4.7-.3m83.6-.4c-2.2 1.2-2.3 2.9-.4 2.9q1.3.2 2.1 1.7c.3 1 1.8 3.3 3.3 5.2 2.2 2.6 3.3 3.2 5 2.7 3.5-1.2 2.8-5.2-1.7-9.7-4-4.1-5.4-4.5-8.3-2.8m149.3.2c-.8 1.1-.6 1.8.9 3.2 1.9 1.7 2.2 1.7 3.7.3.9-.9 1.3-2.4 1-3.2-.8-2-4-2.1-5.6-.3M225.3 757c-3.2 1.3-2.9 3.2.4 2.8q2.7-.4 3.1-2.1c.4-1.9-.2-2-3.5-.7m164.9.1c-2.2.8-2.3 1.3-1.9 6.2l1.2 8.5c.7 3 1 3.3 3.9 3 2.5-.2 3-.7 2.7-2.3-.2-1.1-.4-4-.5-6.5-.2-3.8-1.9-10.1-2.8-9.9-.2 0-1.4.4-2.6 1m-299.4 1q-1.6 1-1.8 2.2t-2 2.5q-4 2.6.6 4.2c3.7 1.5 8.4-2.3 8.1-6.5-.2-3.2-2.1-4.1-4.9-2.4m193.7.5c-1.5 1.5-1.5 1.9-.1 3.2 1.7 1.7 4.6 1 4.6-1.1 0-.8-.6-2-1.4-2.6-1.1-.9-1.8-.8-3.1.5m-113.3 1.7c-3.3 1.5-2.2 3.1 2.4 3.5 2.1.2 4.3.7 4.9 1.2.5.4 2.4 1 4 1.2 2.4.2 3.1-.1 3.3-1.8.5-3.5-9.6-6.4-14.6-4.1m182.5 0c-1.6 1.1-1.6 1.4-.3 3.2s1.6 1.9 3.2.3c.9-.9 1.4-2.4 1.1-3.2-.8-1.9-1.8-2-4-.3m15.6.4q-2.9 1.3 1.1 5.2c1.4 1.3 3 3.6 3.7 5.3 1 2.4 1.6 2.8 3.3 2.3l4.4-1.2c2.5-.6 2.7-1.9 1.1-7.4-1.9-6-6.7-6.5-5.5-.5l.6 3.1-3.1-3.8c-3.1-3.8-3.4-3.9-5.6-3m102.8 6.7c-1.6 1.9-.5 7.9 2 10.9 1.6 2 1.9 2 3.3.7 1.4-1.5 1.3-3-1-11.8-.5-1.6-2.9-1.5-4.3.2m-464.6.7q-.6 1-.2 1.6c.7.7 2.7-.6 2.7-1.8s-1.7-1.2-2.5.2m455.2-.5c-1.4 1.4-.7 4.3 2.4 10.3q3.1 6 4.9 6.1c2.9 0 2.9-2.1 0-9.5q-2.7-7.2-4.7-7.3c-1-.2-2.2 0-2.6.4m-120.3 1.9a15 15 0 0 0 0 6.1c.6 4.9-.8 5.3-1.8.4-.6-3.4-2.9-4.8-5-3.1-2.1 1.8 1.4 11.5 4.3 11.9 1.2.2 2.4-.3 2.7-1.2.7-1.8 3.5-2.1 5.1-.5 1.8 1.8 5.3.1 5.3-2.7 0-1.4.7-4.1 1.5-6.1q1.6-3.8.5-4.7c-1.6-1.6-4.2.5-5.6 4.5l-1.2 3.4-.6-3c-1.3-5.7-4-8.3-5.2-5m141 0c-1 2.5.8 3.6 3.5 2.2 3-1.5 2.9-3.1-.4-3.5q-2.5-.3-3.1 1.3m-258.9 2.2a10 10 0 0 0-3.1 1.4c-.5.4-2 .6-3.1.3q-2.2-.6-4.7 1.9c-2.5 2.5-2.5 2.5-3.8.5-1.2-1.8-1.9-1.9-4.4-1.1q-5.5 1.6-1.3 6.7c1.7 2.2 2.8 2.7 5 2.2q2.7-.4 3.9.9 2.5 2.8 5 0 1.2-1.5 2.9-.6t3.4 0c.9-.6 2.1-.8 2.6-.4 1.5.9 6.1-1.3 6.1-3 0-2.1-3-3.1-4.1-1.4q-.8 1.6-2 .2c-1-1-1-1.8-.1-3.8.7-1.4 1.2-3 1.2-3.5 0-1-.3-1.1-3.5-.3m76.8.5c-.6.7-1.6 3.1-2.3 5.2l-1.3 4-1.1-3.4c-2.4-7.2-7.2-6.5-6 .9.8 4.8 4.1 7.4 6.8 5.2 1.1-.9 1.5-.8 2 .4.7 1.9 5.5 2 6.2 0 .4-.8.1-2.1-.5-2.9s-.9-3.1-.5-6c.6-3.7.4-4.6-.8-4.6-.9 0-2 .6-2.5 1.2m152-.5c-1.8.7-1.6 3.8.2 5.3 2 1.7 4.7-.5 4.3-3.4-.3-2.1-2.2-2.9-4.5-1.9M63 774q.1.9 1 1 1-.1 1-1t-1-1a1 1 0 0 0-1 1m101-.3c-2.3.9-3 2.6-1.7 4.1.9 1.1.7 1.7-.8 2.8-2.8 2.1-.8 5 3.1 4.6l5.4-.3c1.4 0 4.1-.7 6-1.6s4.2-1.6 5.1-1.7c1.8-.1 5.9-4.6 5.9-6.4s-1.9-2.3-4.1-1.1c-1.6.8-2.7.8-4.5-.2-1.9-.9-3-1-4.9-.1q-2.6 1.2-4.5.2c-2-1.1-2.7-1.1-5-.3m146 1.3c-2.4 2.4-2.6 6-.5 10 1.7 3.2 4.5 3.9 6.5 1.5.9-1.1.8-1.9-.4-3.7a7 7 0 0 1-1-5.4c.7-4-1.7-5.3-4.6-2.4m15.2-.8c-1.8 1.8-1.5 4.1.4 3.4l2-.6c.8 0 .4-2.9-.4-3.4q-1-.4-2 .6M.1 779.5c0 4.6.1 4.8 1.4 3.1 1.6-2.2 1.6-2.2 3.3 1.6 1.3 3.1 4.2 3.8 4.2 1 0-1 .5-2.3 1.1-2.9q1.2-1-.1-3.3c-1-1.8-1.8-2.1-4.2-1.6-2.3.4-3.4.1-4.4-1.1-1.2-1.6-1.3-1.2-1.3 3.2m86.7-2.9c-1.6.8-2.8 1.8-2.8 2.3s-1.4.6-3 .3-3.6 0-4.3.6q-1.2 1.3-2.6-.9c-.9-1.6-1.8-1.9-3.9-1.4-3.8.9-4.3 1.7-3.6 5.3 1 4.7 3.8 5.9 6.8 2.9l2.5-2.5 1.1 2.9q2 4.4 5.9 2 1.3-1 4.6 2.5 5.2 5.5 7.3 1.9c.7-1.4 1.2-1.3 3.6.6 3.3 2.6 6.1 1.6 6.2-2.2 0-1.3.8-3.6 1.8-5.1s1.6-3.9 1.4-5.5c-.3-2.4-.8-2.8-3.7-3.1-6.3-.6-10.7 3.4-7.5 6.9 1.5 1.6 1.4 1.7-.5 1.2-2-.5-2.6-2.3-2.1-6.7.2-1.8-1.5-3.6-3.5-3.5-.5 0-2.2.7-3.7 1.5m104.4 0q-3.9 2.7-.6 4.1c.8.3 2.5-.4 3.9-1.7 3.8-3.6 1.2-5.6-3.3-2.4m168.9.7c-1.7 2.1-.3 4.9 2.3 4.5q2.2-.2 2.1-2.8c0-2.8-2.6-3.8-4.4-1.7m126.3 4.1c-.9 2.4 0 5.1 1.8 5.4s5.3-4.2 4.3-5.8-5.5-1.2-6.1.4m-100.6 4.7c-1 .5-1.8 2-1.8 3.2-.1 2-.2 2-1.6-.6-1.5-2.8-4.5-3.6-6.2-1.5-1.2 1.7 2.1 9.6 4.4 10.5.9.3 2.4.1 3.4-.5q1.8-1 2.8 0 2.4 2.3 4.2-4.2c1.7-6.3-.8-9.5-5.2-6.9m-274.1 2.2a4 4 0 0 0-1.5 3.8c.3 2.1.8 2.4 3.8 2.1 6.1-.4 8.2-6.4 2.5-7-1.7-.2-3.8.3-4.8 1.1m312.5-.1c-2.4 2.4-.6 10 2.6 11.3 2 .8 4.4-1.5 3.6-3.4-.4-.9-.7-3.2-.8-5.1-.1-2.7-.6-3.6-2.1-3.8-1.1-.1-2.6.3-3.3 1m-9.7 1.2c-1.5 1.1-1.6 1.5-.2 4.8 1.6 3.8 5.1 5.8 7 3.9q1.1-1-.8-5c-2-4.5-3.6-5.5-6-3.7m-202 2.7c-3.8 3.4-4.6 7.3-1.7 8.7 5.3 2.8 13.2 1.9 13.2-1.4 0-1.3-.7-1.5-3.6-.9-3.6.6-3.6.6-3.1-2.2l1.2-5.1c1.1-3.3-1.7-2.9-6 .9M436 794c0 4.7 2.4 6.5 4.6 3.5 2-2.7 1.7-4.5-.6-4.5-2.5 0-2.6-1.7-.2-2.3q1.5-.4-1-.6c-2.6-.1-2.8.2-2.8 3.9m-234.2-1.6q-2.7 1.4-3.4.5c-.7-1.3-5.6-.2-6.6 1.4-.7 1.2 1.5 6.1 3.2 7.2q1 .6 2.3-.2c.7-.5 3-1.1 5.2-1.2 4.6-.3 5.6-1.4 5.3-5.6q-.4-5.2-6-2.1m168.2.6c-2.3 1.5.8 6.5 4 6.5 3.1 0 3.8-2.9 1.4-5.6-1.9-2.1-3.2-2.3-5.4-.9m-203.8 1.6c-2.7 1.8-2.8 3.1-.5 5.7 1.7 1.8 1.7 1.9 0 2.8-1.9 1.1-2.1 1.8-.8 3.8.7 1.1 1.3 1 3.5-.4 1.4-1 2.6-2.3 2.6-3q.1-1.3 1.6-1.9 1.4-.6 1.1-2-.7-1.4 2-.8 2.6.5 3.9-1.3c2.6-3.5-1.1-5.9-5.6-3.5q-2 1-2.5 0-1.4-2.1-5.3.6m230.8-.1q-1.1 1.5-.7 2.1c1 1.1 3.7-.5 3.7-2.1 0-1.9-1.4-1.9-3 0M7.3 795q-2.1.9-2.3 1.8c0 1.5 2.4 3.2 4.7 3.2 1.8 0 2.3.6 2.3 2.4 0 5.7 3.3 3.6 4.4-2.8.7-3.6.6-3.8-1.3-3.3-1.1.3-2.5-.1-3.2-.9-1.3-1.6-1.6-1.6-4.6-.4m311.9 2.2c-.6.7-1.4 2.6-1.7 4.1l-.7 2.8-2.2-2a9 9 0 0 0-7.4-2.2c-2.4.2-.8 4.5 2.1 5.9q2.9 1.5 4.7 5.8c2.1 4.8 2.2 4.9 5.3 3.3 1.1-.7 3.7-1.2 5.7-1.3 3.3-.1 3.5-.3 3.8-3.6.2-2 1.4-4.6 2.9-6.2 4.2-4.5.1-6.8-5-2.8l-2.6 2-.3-3.2c-.3-3.5-2.7-4.8-4.6-2.6m-241.1 1.2c-1.4 1.7.2 3.2 3.9 3.8q2.7.2 2.8 3c.4 3.1 2.1 3.9 7.5 3.4 3.9-.3 7.7-2.9 7.7-5.3 0-1.2-.9-1.3-3.9-.8-3.6.6-4 .4-4.3-1.7-.2-1.8-.9-2.3-3.5-2.3-1.7 0-3.5-.3-3.9-.8-1.2-1.2-5.1-.8-6.3.7m209.6.3q-2 1.9 2 7.5 2.7 4 4.7 3.6 4.6-.6 0-7.6c-2.5-3.9-5.1-5.2-6.7-3.5m169.5.5c-1.4 1.4.2 3.8 2.6 3.8 2.7 0-.2 2.1-4 2.9-2.8.6-3.3 1.1-3.3 3.6 0 2.9-.2 3-5.5 3.6-3 .4-6.3 1-7.2 1.4-5.3 2.1 1.9 9.5 9.6 9.8 5.7.3 3.7 2.9-3.4 4.3-10.8 2.2-13.1 4.1-9.4 7.8 1.1 1.2 3.6 1.6 9.5 1.6q7.9 0 7.4 1-.7 1-1.8.8c-2.1-.4-9.1 1.3-11.4 2.7q-3.9 2.8 1.5 8.8c2.9 3 4 3.3 6.6 1.4 1.8-1.3 1.7-1.5-.9-3.9q-5.1-4.8 2.5-4.8h3.8l.6 5.2c2.3 23 2.7 24.3 6.1 23.6 3.6-.7 4-3.2 2.2-14-1-5.7-1.7-10.8-1.7-11.4q-.1-1.1 13.3-1c11.6.1 13.6-.1 16.7-1.9 4.7-2.8 5.3-6.7 1.3-8.3a79 79 0 0 0-24.3-3.1c-4.3.1-7.3-.2-7-.7s3.6-.8 7.3-.6c7.4.3 10.6-1 8.6-3.4q-1.1-1.5-8.5-1.4c-6.8 0-9.8-1-7.4-2.5a54 54 0 0 1 11.3-.7 38 38 0 0 0 11.5-1.1c2.2-1.7-.7-3.7-5.5-3.7-4 0-4.4-.2-3.8-2 .8-2.5-.1-2.9-8.6-3.8-5.1-.6-6.4-1.1-6.7-2.6q-1-4.3 5.3-2.1c3.5 1.3 4.4 1.2 7.5-.3 4.1-2 5.4-6.7 2.4-8.9-2.3-1.7-15.6-1.7-17.2-.1m9.8 3.8q1.8 1-1.8 1-3.2 0-2.7-1c.8-1.3 2.6-1.3 4.5 0m-15 15q-.1.9-1.5 1c-1.4.1-1.5-.5-1.5-1q.1-1 1.5-1c1.4 0 1.5.4 1.5 1m14.9.6c.2.2-1.2.4-3.2.4s-3.7-.4-3.7-1c0-.8 5.8-.3 6.9.6M452.5 833c-.3.5-1.3 1-2.1 1s-1.2-.5-.9-1 1.3-1 2.1-1 1.2.4.9 1m26.8 4.9c7.4 1 8.6 1.6 7 3.2a51 51 0 0 1-20.8 1.2c-4.9-1.1-6-3.9-1.8-4.6 4.9-.7 8.6-.7 15.6.2M0 804c0 5.1.6 6 2.8 3.8 1.9-1.9 1.5-6.6-.8-7.8-1.9-1-2-.8-2 4m492.6-2.4a5 5 0 0 0-1.6 3.1q0 1.6-2.1-1.1-3.3-4.2-5.7-1.3c-1.1 1.3-.4 3.1 3.7 8.4 1.9 2.6 2.9 3 5.8 2.8 4.6-.5 5.8-1.7 4.3-4.5q-1.3-2.2-.1-3.3c1.6-1.6 1.3-4.4-.5-5.1-2.1-.8-2-.8-3.8 1m-384.8 1.6q-4.7 1.7-1.2 5.2c2.7 2.7 6.4 1.2 6.4-2.5 0-2.6-2.1-3.8-5.2-2.7m391.4 3.8q0 3 .5 1.7c.2-.9.2-2.5 0-3.5q-.5-1.2-.5 1.8m-166.2-.1c-.7 1.5-.6 2.3.6 3.5.8.9 2 1.6 2.4 1.6 1.5 0 4.3-4.8 3.5-6-1.1-1.7-5.4-1.1-6.5.9m17.5-.9q-1.5 2.6 3.9 7.9 3.5 3.2 5 2.8 3.6-1.4-1.6-7.8c-3-3.8-6-5-7.3-2.9m-67 1.6c-1.5 1.5-1.5 1.8.1 3.5q3 3.3 5.2.6 1.3-1.3-.4-3.5c-1.8-2.6-2.7-2.7-4.9-.6m78.6 1.6c-1.1 2.9 1.2 7.8 3.7 7.8q4.7.1 2.7-5.8c-1.6-4.5-5-5.6-6.4-2m-153.3 1.5c-5.2 2.7-5.5 3.6-3.4 8.8 1.4 3.3 3.6 4.8 3.6 2.4q.1-1 1.7-.5c2.2.9 3.3-1.1 2.6-4.6q-.5-2.7.6-2.8c.6 0 1.1 1.8 1.1 4.3 0 5.4 2.3 7.9 5.9 6.6 1.8-.7 2.2-1.4 1.7-3.4q-.6-2.5.7-2.5c1.9 0 5.7-4.3 5.7-6.4q0-1.9-1.7-1.1c-4 1.8-8.7 1.2-10.6-1.2-2.2-2.7-1.9-2.7-7.9.4m164.9-.7c-3.2 2.6-3.5 5.6-.6 6.5 1.6.5 2.7 0 4.5-2.1 4.2-5.1 1.2-8.4-3.9-4.4m11.4 3.1q-5 5 .2 4.9c2.5 0 9-5.7 8.2-7.1-1.2-1.9-5.4-.8-8.4 2.2m-203.3.1c-.7.7-3 1.4-5.1 1.4-5.4.2-6.5 1.6-4.4 5.9 1.6 3.3 4.2 4.6 4.9 2.5.2-.6 1.8-.3 4 .8q3.6 2 5.3 1t2.9.7c1.7 2.4 7.1 1.7 7.1-1 0-1.7-.6-1.9-3.2-1.7-4.2.4-4.4-1.6-.3-2.5q3-.5 3.6-2.9c.9-3.4-.2-4.3-4.1-3.7q-3.5.6-3.5-.6c0-1.5-5.5-1.4-7.2.1m228.2 1.9c0 4.6 4.6 8 6.5 4.8q.7-1 2.5.6c1.5 1.4 1.9 1.4 2.9.1.7-.8 1.1-2.5.9-3.8-.2-1.9-.9-2.3-3.5-2.3-1.8 0-3.3-.3-3.3-.7 0-.5-1.3-.8-3-.8-2.4 0-3 .4-3 2.1m16.1 1.3c-1.3 1.6-.4 4.6 1.4 4.6.6 0 2-.9 3.1-2.1 1.6-1.7 1.6-2.2.4-2.9q-3-2-4.9.4M0 820.1q0 3 2.2 4.9c2 1.6 2.6 1.7 5 .4 2.9-1.5 3.9-5.4 1.4-5.4q-1.3-.2-2-1.5c-.3-.9-1.8-1.5-3.6-1.5-2.7 0-3 .3-3 3.1m82-2.1c-.8.5-2.8 1-4.3 1-3.5 0-6.7 1.6-6.7 3.4 0 1.9 8.6 9.6 10.7 9.6 2.9 0 4.4-1.5 3.7-3.5q-.8-1.8.7-1.3 1.3.5 1.2 1.7c-.4 1.4 4.3 4.5 6 3.8 1.4-.5 5-13.5 4.1-14.8-.6-1-7.8.1-8.2 1.2q-.4.7-1.9-.6c-1.7-1.7-3.2-1.9-5.3-.5m16.9 3.6q-1.4 1.5-.2 3.2c2.3 3.7 7.3 2 7.3-2.4 0-2-.5-2.4-2.9-2.4-1.6 0-3.4.7-4.2 1.6m207.8 6.7c-.3.7.8 4.2 2.5 7.6l3 6.2 4.6-.3c4.6-.3 4.7-.3 4.8-3.9.1-2 .4-4.1.8-4.7.6-1.1-1.9-4.2-3.4-4.2-1.3 0-4 3-4 4.3 0 .7-.8-.4-1.8-2.3-1.8-3.7-5.5-5.2-6.5-2.7m21.5-.1-2.6 4.5c-1.4 2.9-1.4 3.3 0 4.7 2 2.1 2.7 2 5.1-.7 2.9-3.1 4.5-6.6 3.9-8.3s-5-1.9-6.4-.2m-130.4.5q-1.6.5-1.8 1.4t-1.6.9c-2.5 0-7.4 3.9-7.4 6 0 2.8 3.2 6.2 5.3 5.5q1.5-.7 1.7-2.1c0-2.3 1.8-1.6 2.2.8.2 1.9 1 2.3 4.3 2.4 2.2.1 5.1.4 6.5.6 2.2.3 2.5-.1 2.8-3 .2-1.7.7-3.2 1.1-3.2 1 0 2.2-3.5 2.4-6.9.2-2.4-.1-2.5-6.8-2.6-3.8-.1-7.8 0-8.7.2m168.5 0c-1.8.7-1.6 4.9.2 7.7 1.3 1.9 2.4 2.3 6.2 2.2 4.1-.1 4.8-.4 5.3-2.6 1.1-4.2-2.8-6.8-5.8-3.8q-1.1 1.3-2.1-1.5c-1.1-2.7-1.5-3-3.8-2m-69.7 2.2q-1.4 2.5 3.5 5.5c4.3 2.6 5.8.8 2.8-3.3-2.2-3-5.2-4-6.3-2.2m85.9 1.6c-3 2.9-3.1 4.1-.6 5.4 2.1 1.2 3.8.1 6.4-4 2.7-4.5-1.7-5.6-5.8-1.4m21.8-.4c-1.3 1.3 1.3 7.5 4 9.7 1.7 1.5 4.7.5 4.7-1.4q0-1.6 1.8-.5c2.4 1.3 4.2-.4 4.2-3.6s-4.7-3.3-5.9-.1c-.8 2.2-.9 2.1-2.4-1.5-1.6-3.8-4.2-4.8-6.4-2.6m-50.5.6c-3.8.9-1.9 4.1 3.8 6.7 3.1 1.4 6 2.3 6.5 2 1.6-1 .9-3.2-1.6-4.8-5.6-3.6-7.1-4.3-8.7-3.9m-256.7 7.2c-2.1 1.4-.5 4.3 2.1 3.9q2.3-.3 2.3-2.3c0-2.2-2.2-3-4.4-1.6m-21 1c-1.1.7-1.1 1.5-.2 4.4 1.7 4.9 3.5 6.3 6.6 4.9q2.3-1.2 2.5-2.1c.2-.9.9-.7 2-.4a4 4 0 0 0 5-3.9c0-2.4-2.5-3.3-5.5-2-1.8.8-2.6.8-3.5-.4-1.4-1.6-4.8-1.8-6.9-.5M0 849.6c0 3 .2 3.4 1.4 2.5.8-.7 1.2-2.1.9-3.2-.9-3.5-2.3-3.1-2.3.7m390.4-.1c-1 2.5 1 3.9 3.6 2.5s2.2-3.4-.8-3.8q-2.2-.2-2.8 1.3m-35.7.2c-.4.3-.7 2.2-.8 4.2q0 3.2-.6 2.3c-.2-.6-1.8-1.2-3.5-1.2q-3.1 0-3.5 2c-.5 2-.6 2-2.5.3-1.5-1.3-2.3-1.5-3.6-.7q-4.2 2.6.8 8.7c3.6 4.2 5 4.5 9.1 1.7l2.8-2.1 1.3 2.1c1.5 2.4 2.6 2.5 4.9.4 1.4-1.2 2.1-1.3 3.7-.3 2.5 1.5 5.5.5 5-1.8-.3-1.3-1.3-1.8-4-1.8-2 0-3.8-.2-4.1-.5s-.2-2.6.2-5.1a19 19 0 0 0 0-6.8c-.8-2-3.8-2.9-5.2-1.4m-25.9 1c-2.2.5-2.4 4.1-.2 5 .8.3 2.3-.2 3.2-1.1 1.4-1.4 1.4-1.8.2-2.9a4 4 0 0 0-3.2-1m42.2.8c-.9 1.1-.8 2 .6 4.5 3.3 5.5 8.5 4.8 6.1-.9q-3.2-8-6.7-3.6m9.7-.9c-1.4 1.4-.7 5.1 1.3 6.9 1.8 1.6 2.2 1.7 3.5.4 2-2 .6-7.3-2.1-7.7-1.1-.2-2.3 0-2.7.4"/><path d="M471.2 851.3q-1.5 1.5.2 2.6c2 1.7 5.8.4 5.4-1.7-.4-2.2-4.1-2.7-5.6-.9m-42.9 2.7a6 6 0 0 0-2.8 2.9q-.6 1.9-2 1.5c-.7-.3-2.3-.1-3.4.6-1.6.8-2.1 2-2.1 5.4 0 2.6.6 4.8 1.5 5.6 2.1 1.8 3.7.2 3-3-.6-2.7 1.1-7 2.7-7 .4 0 .5 1.9.2 4.3-.5 3.4-.2 4.7 1.2 6.1 1.7 1.8 1.8 1.8 3.1 0 .8-1.1 1.1-3 .8-4.5s.1-4.4 1-6.5c1.9-4.5.5-6.8-3.2-5.4M200 856.6c-.6 1.4-1 3.4-1 4.5 0 1.9-.1 2-2.9.3a7 7 0 0 0-5.6-1c-2.2.6-2.6 1.1-2.1 3.1.5 2.1.3 2.4-2.3 2.3q-5-.1-5.1 2.5c-.1 2.6 6.8 8.7 8.4 8.7 2.3 0 3.7-2.7 3.1-5.7l-.7-2.8 2.9 3.2c2.3 2.6 3.5 3.1 7.3 3.2 2.4 0 5-.5 5.7-1q1.2-1.1 3.5.5c3.8 2.5 5.1.7 5.2-7.4s-.8-9.4-5.4-6.7c-3 1.8-4 1.4-4-1.8 0-4.7-5.4-6.2-7-1.9m204.4.7c-.2.7.2 3 1.1 5.1 1.3 3 2 3.6 3.5 3.1q2-.7 2 .8c0 .8.7 2.1 1.6 2.8 2.5 2 4.6-1.4 3.8-6.1-.9-4.7-2.1-6.1-4.9-5.4-1.3.3-2.6.1-2.9-.5-1-1.5-3.6-1.4-4.2.2m-10.4.7c-1.3.9-1.2 1.2.4 2.5 3.4 2.6 6.3 1.5 5-1.9-.7-1.8-3.2-2.1-5.4-.6m101.5 1c-.3.5-1.9 1-3.5 1s-3.1.4-3.5.9c-.7 1.2 3.4 4.1 5 3.5.6-.3 1.8.2 2.5 1.1 2.4 2.9 4 1.8 4-3 0-3.8-.3-4.5-1.9-4.5-1.1 0-2.3.4-2.6 1m-400.3 2.9c-.8.4-2.9.6-4.9.4-3.7-.4-6.7 1.2-5.9 3.2.3 1-.2 1-2.5.2q-3-1.2-4.6-.1c-2.9 1.8-2.6 3.2 1.4 6.9 4.2 3.9 8.2 4.6 9 1.6q.6-3.2 8.6-3.1c3 0 3.9-.5 4.7-2.4.5-1.3.7-3.2.5-4.2l-.4-2.7c-.1-1-4.3-.9-5.9.2m212.8.8c0 2.1 3.7 9.5 5.3 10.5a3 3 0 0 0 2.3.1c.8-.3 2.1.2 2.9 1.1 2.2 2.2 4.6 2 5.2-.4.5-2 .5-2 3 0 3.5 2.7 6.8 1.1 5.8-2.8a9 9 0 0 0-2-4.1c-1.7-1.8-6.2-.7-6.8 1.7q-.4 1.6-.6-1c-.2-5.2-5.6-7.3-6.3-2.5-.3 2-.5 1.9-1.8-.8-1.8-3.6-7-4.9-7-1.8m-86.2 2c-1 .2-1.9 1.2-1.9 2.1q-.5 8 4.1 8.2 4.5-.1 3.2-6.6c-.8-3.9-2-4.7-5.4-3.7m113.3 2.2c-1.9 1.2-.6 4.3 1.6 3.9q1.7-.5 1.8-2.2c0-2.2-1.4-2.9-3.4-1.7m-103.3 2.2c-2.4 1.3-2.3 4.2.2 6.4 3 2.7 5.2 1.2 4.8-3.2q-.5-6-5-3.2m-126.7 1.3c-1.6 1.9 1.2 4 4.4 3.2 3.7-.9 3.4-4.6-.4-4.6-1.6 0-3.4.6-4 1.4m279.9 1.4q.2 1.8-3.2 1.7c-2.6 0-3.3.4-3.3 2 0 1.5.8 2.1 3.4 2.3 2 .2 3.7-.2 4.2-1q1-1.5.9-.1.2 1.2 3.5 1.3c4 0 4.5-1.5 1.9-5.5-2-3.1-7.4-3.6-7.4-.7m-103.8.4c-.6.6-1.2 2.2-1.2 3.5 0 2 .5 2.3 3.9 2.3 3.8 0 3.8 0 3.2-3.3-.7-3.5-3.6-4.8-5.9-2.5m11.8.6c-1.6.5-4 3.1-4 4.4 0 .4 2 .8 4.5.8 3.8 0 4.5-.3 4.5-2 0-2.2-2.7-4-5-3.2m8.7.8c-.4.4-.7 1.6-.7 2.6 0 1.5.8 1.8 4.6 1.8 4.6 0 4.6 0 3.2-2.2-1.5-2.3-5.7-3.6-7.1-2.2m-289.5 1.6c-2.1 2.1-1.4 2.8 2.9 2.8 3.3 0 4-.3 3.7-1.8-.4-2.1-4.8-2.8-6.6-1m157.6.8c-1.8 2-1.7 2 2.8 2 3.8 0 4.5-.3 4.2-1.8-.5-2.5-4.9-2.7-7-.2m80.5-1.3c-2.8 1.1-1.3 3.3 2.2 3.3 2.8 0 3.5-.4 3.5-2 0-2-2.6-2.6-5.7-1.3m9 .9c-2.5 1.1-1.2 2.4 2.3 2.4q3.5 0 3.2-1.3c-.5-1.3-3.5-1.9-5.5-1.1m140.4.1q-2.3 2.3 3.4 2.3c3.6 0 4-.2 2.9-1.5-1.3-1.5-5.1-2-6.3-.8m40.6 0c-2.6 1-1.2 2.3 2.3 2.3 3.1 0 3.5-.2 2.4-1.5-1.3-1.5-2.5-1.7-4.7-.8M22 877q-1.8 1 1.8 1 3.2 0 2.7-1c-.8-1.3-2.6-1.3-4.5 0m45.5 0q-2.7 1 1.3.9c1.7.1 3.2-.4 3.2-.9q-.2-1.8-4.5 0m40.5 0q-1.9 1.1 1.3 1c1.6 0 2.6-.4 2.2-1-.8-1.2-1.6-1.2-3.5 0m231.5 0q-.4 1 4 1c4.4 0 4.4-.4 4-1-.3-.6-2.1-1-4-1s-3.7.4-4 1m-189.2.7c.9.2 2.5.2 3.5 0q1.2-.5-1.8-.5t-1.7.5m299 0c.9.2 2.5.2 3.5 0q1.2-.5-1.8-.5t-1.7.5"/></svg>