<svg xmlns="http://www.w3.org/2000/svg" width="666.7" height="1170.7" viewBox="0 0 500 878"><path d="M252 15.5c-1 1.3-1 1.9.4 3.4 1.5 1.7 1.5 2.2-1.1 7.9-1.6 3.4-3 6.1-3.3 6.2-.3 0-1.8-2.5-3.3-5.6-2.5-5.1-2.7-5.8-1.2-7.3q4.8-5.2-5.9-5.1-9.2-.1-3.7 5.5c1.7 1.6 4.4 6.4 6.2 10.5 2.5 6 2.9 7.8 2 9.2-1.8 2.8-.5 3.8 5 3.8 6.3 0 9.6-1.5 7.8-3.6-.9-1.1-.4-3.1 2.2-9.6 1.8-4.6 4.4-9.5 5.7-11q5.6-5.9-4.1-5.8-5.5 0-6.7 1.5M241 239c-3.8.4-8.7 1.6-11.4 3-5.7 2.7-11.6 7.6-11.6 9.5 0 .8-.8 2-1.7 2.7-6.1 4.6-7.7 8.7-9 22.9-.4 5.2-.2 5.9 2.7 9.2 1.7 2 5.7 5.1 8.8 6.8 7.5 4.3 11.4 7.5 13.1 11 1.2 2.7 1.1 3.2-1.2 6.2-1.4 1.8-3 5.2-3.6 7.5s-2.3 6.5-3.7 9.3q-3.8 7.3-6.4 28.9c-.5 4.1-1.4 9.7-1.9 12.5-.6 2.7-1.3 16-1.6 29.5a784 784 0 0 1-1.4 35c-.8 11.5-.6 64.1.4 78.5.3 4.9.6 15.4.5 23.2 0 8.5.4 14.4 1 14.8q.9.7.3 1.8c-.3.6-.7 2.7-.9 4.6-.9 16.7-1.6 37.7-1.6 47.8V616l-7.2-.6c-3.9-.3-9.6-1.3-12.6-2.1-5.1-1.4-5.3-1.6-3.2-2.6 1.7-.8 3.2-.7 5.5.2 1.8.7 4.1 1.3 5.2 1.2l4.9-.1c1.6 0 3.3-.5 3.8-1.2 2.5-4-1.1-9.4-5.7-8.6-2.9.6-2.9.5-1.4-3.7 1.4-3.8.8-7-2.5-11.7-1.3-2-2.7-5.1-3.1-6.9-1.3-6-4.4-11.9-6.1-11.9-.9 0-3.2 1.6-5.1 3.6q-5.9 6.3-3.5-1.2c1-3.2.9-3.6-1.3-4.4a9 9 0 0 1-3-1.9c-.3-.6-1.6-1.1-2.9-1.1s-2.7-.5-3.4-1.2c-.9-.9-1.6-.8-2.9.5-1.4 1.3-1.5 2.1-.5 4.2 1.8 3.9 1.5 4.4-2.2 3.8-4.6-.7-5.7 1.4-2.2 4.2 3.9 3.1 1.6 4.2-3.3 1.7-4.6-2.4-7.8-1.4-6 1.9.9 1.7 1.3 1.8 2.6.7s1.5-.7.9 4.5l-.7 5.7 3 .6c2.6.6 3.1 1.1 3.1 3.5 0 3.7-2.2 3.8-4.8.2-2-2.7-2.1-2.7-6.7-1.5-5.4 1.4-17.5.6-17.4-1.2 0-.6.4-2 .8-3.1q.7-2-.2-3.4c-.6-.7-1.2-4.9-1.2-9.1-.1-10.3-1.2-11.6-10.2-12.2-5.5-.3-6.9-.8-8.7-2.9-3-3.6-7.2-5-16.1-5.4-4.2-.2-7.9-.6-8.3-1-.9-.9-2.3-13.2-2.3-20.1.1-5.6-.2-6.2-3-8.3-1.6-1.2-4-2.3-5.2-2.3a7 7 0 0 1-3.5-1.2 51 51 0 0 0-17.5 0c-2.5.8-4.7 6.7-5.4 15.1s-2 10.7-1.9 3.3c.1-3.7-.4-5.4-2.2-7.3-6-6.4-15.3-2.9-19.8 7.3q-3.3 7.8-6.6 5.9c-1.5-.8-2.4-.5-4.7 2-1.6 1.7-3.6 3.1-4.5 3.1-2.1 0-3.6 3.1-3.6 7.7 0 2.2-.7 4.8-1.5 5.9q-1.3 2-.9 4.9c.5 2.8.2 3.1-2.8 4l-3.3 1-.3 19.3-.2 19.3 3.1-1.7c2.6-1.3 3.6-1.4 5.5-.3 2.1 1.1 3.2.8 9.1-2.2 5.1-2.6 6.9-4.1 7.7-6.4 1-2.8 3.3-6.1 9.2-13.3 1.9-2.3 2.4-2.4 3.8-1.3 2.5 2.1 1.9 4-2.9 8.7q-7.3 7-2.4 7.6c1.9.3 1.5.9-2.9 5.5-4.3 4.5-5.6 5.3-8.7 5.3-6.8 0-13.3 4.6-10.5 7.4q1 1.2 4.1-.7c1.7-.9 4.6-1.7 6.5-1.7 2.5 0 5-1.1 8.9-4 3-2.2 6.4-4 7.5-4s4.3-2.1 7-4.6q7-6.6 4.1-.6c-4.1 8-4.5 9.2-3.4 10.3.6.6 1.8.9 2.6.6 2.3-.8 7.6-9.7 8.3-13.6.3-2 1.4-5.2 2.5-7.2 1-2 1.9-4.4 1.9-5.3q.1-1.5 1.3-1.6c1.6 0 4.7 3.1 4.7 4.7 0 1.9 3 3.6 6.9 3.9s12.1 3.8 12.1 5.3c0 1-6.9 2.5-7.7 1.7-.3-.3-1.4-.1-2.3.4-1.4.8-2.7 0-6.3-3.6-4-4-4.8-4.4-6.7-3.4-3.1 1.6-3.4 3.5-1.6 8.1 1.4 3.5 1.5 4.1.2 3.6-1.8-.7-6.2 2.6-7.1 5.3-.3 1-2.8 3.3-5.6 5-4.8 2.9-5.7 5-2.1 5 .9 0 4.2-1.6 7.2-3.5s6.4-3.9 7.5-4.4c3.1-1.4 7.5-5.8 7.5-7.6s2.3-2 5-.3c1.6 1 2.3 1 3.6-.3q1.5-1.7 4.2-.8c3.6 1 15.9 3.1 19.9 3.3 1.8 0 3.8.7 4.4 1.3s2 1.3 2.8 1.3 2.3.7 3.3 1.7c1.5 1.3 2.3 1.4 4.3.5q2.4-1.2 2.5-3.2 0-2 2-2c1 0 2.8-.9 3.8-2.1 1.7-1.8 2.4-1.9 5.8-1 2.2.6 4.8 1.7 5.9 2.4 1.1.8 4.9 1.7 8.5 2 5.5.5 6.8.3 8.6-1.4 2-1.9 2.1-1.9 7 1.3 5.9 3.8 12.8 5.1 16.4 3.3 2.1-1.1 3.2-1.1 6.5.1 4.3 1.4 8.1 2 18.8 2.9 9.5.8 9.7.9 9.7 6.6 0 4-.3 4.9-1.7 5a569 569 0 0 1-40.8 4.4c-3.8.3-7.6 1.2-8.5 1.9-2.6 2.3-13.9 4.4-30 5.6-8.5.6-20.4 1.5-26.5 2.1-6 .5-18.2 1.4-27 1.9-13.1.7-16.8 1.2-20.2 2.9a18 18 0 0 1-6.5 2.1c-1.2 0-7.7 1.1-14.3 2.4l-21 4.1C2.6 660.8 0 661.9 0 664.8c0 2 .4 2.3 2.3 1.8 10.2-2.9 33.4-7.1 43.7-8a65 65 0 0 0 16.4-4.7c1-.6 8.8-1.5 17.5-2l21.6-1.4c11.1-.9 20-1.5 28.2-2 4.4-.2 11.4-1.1 15.5-2s8.3-1.5 9.6-1.5 4.8-1.1 8-2.4a70 70 0 0 1 15.2-3.5l16.2-2.1c3.7-.6 9.2-1 12.2-1 4.7 0 5.6.3 5.6 1.8s-1.8 2.1-12.7 3.6c-7.1 1-13.9 2.3-15.1 2.7-4.8 1.8-17 3.9-28.7 4.8-6.6.6-14.5 1.5-17.5 2s-9.1 1.2-13.5 1.5c-4.4.2-10.9.9-14.5 1.5a107 107 0 0 1-14.5 1.1c-10.6.1-35.8 3.4-41.5 5.5a160 160 0 0 1-29 8.1l-18.8 3.6c-5.9 1.1-6.2 1.3-6.2 4.1q0 3 1.4 2.4c.8-.3 5.2-1.1 9.8-1.7s10.3-1.7 12.8-2.4 5.1-1.1 5.8-.9 1.8.1 2.5-.5 3.7-1.2 6.7-1.6 6.4-1.3 7.5-2a79 79 0 0 1 24-6.8c4.4-.4 15-1.2 23.5-1.7s17.5-1.4 20-1.9 8.6-1 13.5-1c5-.1 10.4-.6 12-1.3 1.7-.7 7.3-1.5 12.5-1.9 12.8-1 22.8-2.6 28.1-4.4 2.4-.9 5.4-1.6 6.7-1.6a95 95 0 0 0 12.4-2.5c12-3 12.8-3 12.8-.7 0 1.4-1.9 2.2-9.7 3.9-5.4 1.2-12.7 2.7-16.3 3.3-3.5.7-7.6 1.8-9 2.5s-5.9 1.7-10 2.1c-9.9.9-12.3 1.8-11.5 4.4.5 1.6.2 2-1.9 2q-2.5.1-2.8-2.2c-.3-2-.9-2.3-4.8-2.2-2.5 0-8.3.6-13 1.3s-11.6 1.4-15.5 1.6c-3.8.1-9 .8-11.5 1.4s-9 1-14.6 1.1c-7 0-10.6.4-12 1.4q-1.6 1.4-1.2 2.1c2.7 2.7 23.7 2.6 29.1-.2 1.7-.9 5.2-1.3 9.5-1.1 3.7.1 9.6-.1 13.2-.5 5.9-.6 5.6-.5-3.8 1.8-5.6 1.3-13 3.6-16.5 5.1-3.4 1.4-8.2 3.3-10.7 4.1l-9.3 3.3-4.8 1.9-.9-2.2-1.4-3.9a8 8 0 0 0-3-3.3c-2.2-1.5-3.2-1.5-7.8-.5-10.5 2.5-16.7 7.4-22.7 18.2-2.4 4.3-4 5.9-5.9 6.3L30 700.6l-20 4.2c-8.5 1.5-9.5 1.9-9.8 3.9-.4 2.7-.6 2.7 8.3.8 3.9-.9 9.7-2 13-2.6 3.3-.5 8-1.8 10.5-2.8s6.5-2.2 8.9-2.6c5-.8 5-1.8.4 10.5-2.1 6-2.7 9.3-2.8 16.1v8.6l-4.3-1.9a19 19 0 0 0-14.7-.7c-1.6.6-6.6 1.7-11 2.3l-8 1.1-.3 3.4-.3 3.3 4.5-.6c5.8-.9 6.4.3 3.7 6.7-1.6 3.8-2.6 4.9-5.1 5.3l-3 .6v18.4c0 18.3 0 18.4 2.2 18.1 1.7-.1 2.3.5 2.8 2.8 1.2 5.4 4.2 10.6 7.1 12.1 1.6.8 2.9 1.9 2.9 2.4 0 1.5-3.8 2.2-6 1a11 11 0 0 0-5.3-.8l-3.2.3-.3 25.2C.1 849.6.2 861 .5 861c.4 0 2.1-1.1 3.9-2.5 2.8-2.1 4.4-2.5 10.2-2.5q11.3 0 11.4-4.9 0-3.6-5.5-4.3l-3-.4 3-.7c7-1.8 8-2.9 7.8-8.6-.4-7.8 1.9-6 3.4 2.8 1.6 9.9 4.9 22.3 6.6 25.8 2.5 4.7 12.4 12.3 16 12.3 2.9 0 35.4-25 45-34.5 5.9-5.9 8.1-7.5 8.9-6.7.7.7 2.7 1.2 4.6 1.2 2.6 0 4.3-.9 6.9-3.5l3.5-3.5h10.5c12.3 0 23.2 1.4 28.8 3.8 2.2.9 7.4 3.8 11.5 6.5 6.3 4 8.2 4.7 11.5 4.5l4-.3v-47l-3.2-4a29 29 0 0 1-6.3-15.9c-.1-1.7-.7-6-1.5-9.6-1.3-6.1-1.2-6.6.5-8.5q1.8-2.1 2.6-8.2l.6-6.2 14.9-.3 14.9-.3v5.8c0 5.7 0 5.8 3.6 7.3 2.2.9 6 1.4 9.3 1.3l5.6-.3v6.5c0 8.3 2.4 11.6 11.5 15.5a28 28 0 0 0 14.3 2.8l7.7-.2v2.8a6 6 0 0 0 1.8 4.2 37 37 0 0 0 13.3 5.8c2.9 0 7.9 4.9 7.9 7.7 0 1.4 1 4.1 2.1 6 1.7 2.8 1.9 3.9 1.1 5.6-.6 1.2-1.3 3.2-1.7 4.4-.8 3-5.1 5.5-10.1 5.8a22 22 0 0 0-5.1.8c-.5.3-4 1.3-7.8 2.1l-9.2 2.1c-1.3.3-3.5 2.4-5 4.6l-2.7 4.1 2.7 2.2c7.1 5.6 8.6 6.5 13.2 7.2 2.8.4 9.3.9 14.5 1l19 .7c5.2.3 9.9.2 10.5-.2s3.3-.8 6-.8c9.1.1 11.5-1.4 14.1-8.6.5-1.3 1.3-1.7 3.3-1.3 3.2.7 10.2-1.6 11.6-3.8q1-1.6-.5-4.8c-.7-1.8-1.3-5.3-1.2-7.8.1-3.6-.4-5.2-2.9-8.3-3-3.7-3-3.8-2.2-11.8l.8-8 10.2-.2 10.1-.2 4.9-4.1q8-6.8 3.9-12.9c-.9-1.4-1.6-4.2-1.6-6.3s-.5-4.3-1-4.8c-1.6-1.6 1.7-7.4 4.1-7.4 1.1 0 4-1.9 6.5-4.3 3.3-3.1 4.4-5.1 4.6-7.6.3-3.9 0-3.8 10.6-4.5 10.3-.7 10.1-1.6 4.1 17.4l-3.1 8a296 296 0 0 1-7.8 17c-8.1 15.2-8.4 13.7 4.5 19.6 5.5 2.5 7.2 2.8 19.4 3 7.4.2 14.2-.1 15.1-.6 3.8-2 3.8 1 0 11.8-5.7 16.2-16.5 35-24.4 42.6l-3.1 2.9 2.6 2a82 82 0 0 0 29.6 10.7c4.1 0 4.3-.1 4.3-3.1 0-1.7.4-2.8 1-2.4s2.2 0 3.7-.8 7.1-2.2 12.3-3.1c12.4-2.3 13-2.5 11-3.6-.9-.5-4.2-.2-8 .6-3.6.9-8.5 1.9-11 2.3-2.5.5-5.3 1.2-6.3 1.6q-3.1 1.2-.6-7.4c1.2-4 3.6-5.1 13.6-6.6 2.4-.4 4.6-1.1 4.9-1.7q.8-1-5.2-.3c-8.5 1.2-10.7 1.1-11.1-.1-.9-2.6 2.8-4.4 8.8-4.4 3.6 0 5.9-.4 5.9-1.1q0-1.1-6.7-.7c-5.7.2-6.8 0-7.1-1.4-.4-2.2 2.1-3.4 8.4-4.2 4.6-.5 5.3-.3 6.6 1.7.9 1.2 1.9 3.3 2.3 4.7a22 22 0 0 0 3.3 5.8c1.4 1.8 2.2 3.5 1.9 3.9a130 130 0 0 1-20.4 2.4c-2.6-.1-4 1.6-2.5 3.1q1.2 1.2 2.4.1a9 9 0 0 1 3.8-1.1c1.4-.1 6.3-.8 11-1.7l8.5-1.5 3.2 3.8c1.8 2 3.3 4.2 3.3 4.9s-1.9 1.7-4.3 2.3l-12.3 3.6a78 78 0 0 1-10.5 2.5c-1.3 0-3.3.4-4.4.9q-2 .9 6.7.9c12.5.1 30.8-4.6 30.8-8q.1-2.7-7-10.9c-8.1-9.4-11.2-17.1-15.4-37.4-1.5-7.5-1.3-9.1 1.5-10.7 2.1-1.1 5.9-7.9 5.9-10.4 0-.9-.9-3.3-2-5.5s-2-5.1-2-6.4c0-2.9 5.5-13.9 12-24 2.5-3.8 6.1-9.9 8-13.5 4.1-7.7 5.6-8.3 17.3-7.8l7.7.4V736h-18.1l-2-3.4c-1.9-3.2-8.1-6.6-13.4-7.2s-18.6-1.6-23.7-1.8c-7.2-.1-8.5-1.3-6.4-5.5.9-1.7 2.1-3.1 2.6-3.1.9 0 5-8.3 5-10.2 0-.5 2.7-6.4 6-13.2 9.8-20 12-29.6 8-34.4-3.6-4.3-13.3-6.3-37.5-7.7q-26.1-1.5-38.2 11.8c-2.9 3.3-3.4 4.5-3 7.1.6 3.9 8.1 19.3 11.7 24.1 2.3 3.1 11 21.6 11 23.4q-.1 2-1.6 2.8c-.9.3-2.2 2-2.9 3.6-1.1 2.6-1 3.6.3 6.4q1.5 3.3.6 4.2c-1.2 1.3-10 1.7-15.1.7-4.7-.8-5.2-1.9-5.8-12.1-.2-3.3-.9-8.7-1.4-12-3.7-21.8-5.6-51.3-3.6-54.5.3-.5 1.5-1 2.6-1 3.8 0 12-4.2 11.7-5.9-.3-1.2-1.5-1.6-5.3-1.6a48 48 0 0 0-7.9.9c-2.5.8-2.8.7-2.3-.8.4-1 .7-5.7.8-10.4 0-8.3.1-8.5 1.3-5.2 1 2.6 1.9 3.5 3.5 3.4 2.1-.1 2.1-.1.2 2q-3.5 3.6 2.1 4.9c2 .6 3.5 0 6.6-2.6 2.2-1.7 5.4-4 7.2-5 3-1.6 3.1-1.9 1.7-3.5s-1.4-1.8.9-2.9c2.1-1 2.6-.8 3.4.8.6 1 .8 1.9.5 1.9s.1 1.3 1 3c1.9 3.6 3 3.8 5 .6 1.3-2 1.5-3.9.9-9.8-.3-4-1.3-8.5-2-9.9s-1.1-2.9-.7-3.2q.3-.7-2-1.6c-2.3-.9-2.8-1.4-3.1-2-.9-1.4-9-2.4-13.1-1.7q-3.7.7-4.5 3a5 5 0 0 1-3.2 2.9 9 9 0 0 0-4.2 3.7c-1 1.8-2.2 2.8-2.7 2.3a80 80 0 0 1-1.3-28.5q.7-.8 2.8-.8c1.2 0 2.6-.4 3.2-1 .8-.8 12.2-2.1 20.4-2.2a221 221 0 0 1 50 6.9c10.1 3.3 26.2 12.8 25.8 15.3-.2.9-3 2.1-7.3 3.3-3.9 1-9 2.8-11.5 4.1l-4.6 2.4-4.1-3.8a17 17 0 0 0-17.5-3.9c-8.3 2.7-12 7.9-12 16.8-.1 8.9-1.1 9.8-14.8 13-2.5.6-5.4 1-6.5.8-2.9-.3-3.3 3.8-.5 5.3 4.1 2.2 20.3-1.6 25.3-5.9a17 17 0 0 1 6.7-3.6c9.1-1.8 11-2.6 11-4.5 0-1-.9-2.2-2.1-2.5q-2.3-.6-.9-2c.7-.8.9-2.3.5-3.5-.9-2.9 3-4.3 6.9-2.3 2.8 1.5 2.8 1.5.7 2.9-2.6 1.9-4.4 5.1-3.6 6.4.4.6 2.8-.8 5.7-3.2a64 64 0 0 1 17.4-11.8c.9 0 5.5-1.3 10.3-2.9 7-2.4 18.9-4.9 21.1-4.4 7.2 1.6 8 1.5 8-.5 0-2.6-3.5-3.4-12.8-3.1-6.8.3-7.1.2-12.3-3.8-5.4-4.1-18.8-11-24.4-12.4l-9-2.4c-14.4-4-39.8-5.4-57-3l-14 1.8c-3.1.3-4.5-9.6-4-27.1.4-11.7.2-15.1-1.1-18-.9-2.1-1.8-6.9-2-10.7l-.9-16.5c-.3-5.2-.7-18.3-1-29s-.9-25.6-1.5-33-1.2-20.7-1.5-29.5c-.2-8.8-1.1-23-2-31.5a644 644 0 0 1-2-33.5c-1-29.8-2.3-36.6-10.3-52-4.3-8.2-5-9-7.7-9.1-1.6-.1-4.6-.9-6.6-1.8s-6.7-1.8-10.5-2.2c-8-.8-11.4-3.1-11.4-7.6 0-6.1-6.8-8.6-14.7-5.3-2 .9-4.4 1.3-5.2.9q-1.9-.7 1.4-1.3c2.7-.6 3-1 2.7-4.1-.2-1.9-1.1-4.6-2-6a8 8 0 0 1-1.3-4.7c.2-1.9-.4-2.4-3.6-2.9-3.1-.5-4.8-1.7-8.8-6.5A41 41 0 0 0 241 239m14.5 7.5c5.2 2.4 6.6 3.5 5.9 4.6-.3.6-2 .1-3.7-.9a33 33 0 0 0-23.6-3.1q-1.2.3-1.8-.8c-.6-1.7 2.2-2.2 11.2-1.9q8 .3 12 2.1m-21.8 6.1q-.6.5-1.9.1-1.1-.5.6-.6t1.3.5m14.3.4q1.8 1-1.5.9c-1.6-.1-4.1-.5-5.5-.9-2.2-.7-2-.8 1.5-.9 2.2 0 4.7.4 5.5.9m7.1 1q1.7 1.1 1.9 1.9c0 1.3-5.3-.3-5.8-1.7-.5-1.5 1.3-1.5 3.9-.2m-3.3 7.2c4.4 1.1 5.7 2.1 4.8 3.7-.3.5-3.6-.2-7.3-1.5a47 47 0 0 0-9-2.4q-2.1-.1-2.3-1.1c0-1.1 6.6-.5 13.8 1.3m14.2.9q0 .9-1 .4t-1-1.6q.1-.9 1-.4a2 2 0 0 1 1 1.6m-27.7.4c3.1.4 6 1.2 6.3 1.7q.6 1-3.7.2c-9.7-1.9-20.2 0-25.1 4.6-2.2 2-4.8 2.7-4.8 1.2 0-1.4 9-7.2 11.3-7.3 1.2 0 3.1-.4 4.2-.9s2.9-.7 4-.5 4.6.7 7.8 1m35.3 5q3.3 2.3 2.1 2.5c-1.5 0-7.9-4.9-6.5-5 .4 0 2.4 1.1 4.4 2.5M245 273a73 73 0 0 0 16.9 5.9c8.7 1.4 10.7 3.4 2.6 2.6a49 49 0 0 1-20-7c-6.3-4.5-16.3-6-20.9-2.9-1.4.8-2.7 1.1-3 .6-1.4-2.3 6-5.4 10.9-4.6 1.7.3 7.7 2.7 13.5 5.4m7.8-3.4c6.8 1.7 9.2 2.9 9.2 4.6 0 1-.6.9-11.5-2.4-12.2-3.7-10.5-5.3 2.3-2.2m33.3-.1c.1 1.6-1.6 1.6-3.6 0-1.9-1.5-1.9-1.5.8-1.3 1.5.2 2.8.7 2.8 1.3m-69.5 5.7-2.3 4c-.6 2-1.9 2.3-2.8.9q-.4-1 .5-1.6 1.3-1 2-3.1c.7-2.1 1.7-2.4 2.6-2.4 1.5 0 1.5.2 0 2.2m26.4 4.5a37 37 0 0 0 14.5 5.1c7 .6 7.2 2.2.3 2.2-6.5 0-11.1-1.6-16.8-5.8a25 25 0 0 0-7.3-3.9c-3.4-.7-4.6-2.3-1.7-2.3a49 49 0 0 1 11 4.7m-12-.7c0 1.2-2.8 2.5-3.6 1.7s.6-2.7 2.2-2.7q1.3.1 1.4 1m71.6 2.6c0 1.6.6 3.9 1.2 5.1 1.7 3 .1 2.9-2.8-.2-1.3-1.4-3.1-2.5-4-2.5s-2.5-.6-3.5-1.4c-1.7-1.2-1.5-1.4 2.6-2.9 5.6-1.9 6.4-1.7 6.5 1.9m-65.1 3.4c1.6.7 1.4.9-1.5.9-1.9 0-4.2-.4-5-.9q-1.8-1 1.5-.9c1.7 0 3.9.4 5 .9m38.5 0q0 .9-.9 1-1-.1-1.6-1-.4-1 .9-1 1.5 0 1.6 1m19.6.5c.4.8.3 2.3 0 3.2-.6 1.5-.8 1.5-2.3.1-1.6-1.7-1.2-4.8.7-4.8q1 .1 1.6 1.5m-25.3.2c-.7.2-2.1.2-3 0q-1.3-.5 1.2-.5 2.6 0 1.8.5m19.1 1.9c.7 1.9-.1 3.4-1.9 3.4s-2.8-1.7-2.1-3.5c.7-2 3.2-1.9 4 .1m-67.9 2.4q.5.9-.4 1-1-.1-1.6-1-.5-1 .4-1a2 2 0 0 1 1.6 1m49 1.8c0 1.8-2 1.5-2.3-.4q-.4-1.6 1-1.2 1.2.6 1.3 1.6m-27.1 2.4-.3 4q-.2 1.6-.9 1.8-.8-.2-.6-2.3l.3-4q.2-1.5.9-1.7.8.2.6 2.2m-4.4 1.5c-.1 2.4-.2 2.6-1.1 1-.5-.9-.7-2.2-.4-2.7q1.5-2.5 1.5 1.7m7.7 1.5q-.5 1-.5-1.2c0-2.2.2-1.9.5-1.3.2.7.2 1.9 0 2.5m72.8-.6c1.1.8 2.7 1.4 3.6 1.4 1.8 0 6.3 4.9 5.4 5.8-.2.3-1.9-.6-3.7-2a23 23 0 0 0-14.9-4.1c-2.8.5-4.5-.9-3.4-2.8.9-1.4 10.3-.1 13 1.7M285 301q1.8 1-1.8 1-3.2 0-2.7-1c.8-1.3 2.6-1.3 4.5 0m-16.1 2.7c1.3.8 1.9 1.9 1.5 2.3-1 1-8.4-1-8.4-2.2 0-.5-1.9-.8-4.2-.8-3.3 0-3.9-.3-2.8-1.1 2-1.3 10.8-.2 13.9 1.8m8.3-1.5q-1.2 1.3-2.4 0-1.5-1.3 1.2-1.2c2.7.1 2.1.3 1.2 1.2m42.8.7q2.8 5.1-2 2.6c-1.6-.9-3-2.2-3-3 0-2.2 3.8-1.8 5 .4m-21.6 6.6A50 50 0 0 1 311 337c1.3 7.6 2.3 21.6 1.4 20.7-.5-.5-1.4-6-2-12.2-1.9-18.3-5.7-28-14.3-35.6q-5.3-4.9-3.8-4.9c1 0 3.7 2 6.1 4.5m39.1 8.4c1.5 3.8 2.5 7.7 2.3 8.7q-.5 2.3-1.3-1.1c-.4-1.7-2-5.6-3.6-8.8q-4.8-9.7-1.5-6.7c.8.6 2.7 4.2 4.1 7.9m-74.1-3.7c1.1 4.2.5 5.3-.9 1.9-1.8-3.9-1.8-4.1-.6-4.1q.8.2 1.5 2.2m61.6 14.5 1.9 22.3c1.1 10.1 1.5 29.7.6 28.8-.3-.3-.8-5-1-10.4-.4-10.1-3.1-45.7-4.1-52.9q-.7-4.5.6-2.3c.6 1 1.5 7.5 2 14.5m-83.9-2.1c-.6 3.3-1.1 10.6-1 16.4.1 14.8 0 18.2-.6 18.8-1.5 1.5-1.9-2.3-1.8-17.1a62 62 0 0 1 1.8-20.5c1-2.4 1.9-4.1 2.2-3.8.2.2-.1 3-.6 6.2m24.6 2.6q-.5 1-.5-1.2c0-2.2.2-1.9.5-1.3.2.7.2 1.9 0 2.5m-2.7 8.2q0 .5-1 1.1-.9.4-1-.4.1-1 1-1.1 1 0 1 .4m78.7 2.8q-.5 1.1-.6-.6t.5-1.3q.5.6.1 1.9m2.1 21.3c-.1 8.7-.1 8.8-.8 3-1.1-8.4-1.1-17.8 0-14.5.4 1.4.8 6.5.8 11.5m-76.9 1.7q0 .8-.9.8-.9-.2-.9-2.8-.1-3.5.9-.7c.5 1.1.9 2.3.9 2.7m-26.5 9.6c0 3.7-.3 15.7-.7 26.7l-1.1 37c-.5 21.3-.5 20.3-1.4 18.8-1-1.6-.9-88.5.2-90.1 1.7-2.7 3.1.8 3 7.6m105.3 19.4q-.3 1.8-.4-1.7t.4-2.3c.2 1 .2 2.8 0 4M351 414q0 2-2 2c-2 0-2-.7-2-2s.7-2 2-2 2 .7 2 2m-2 5.9q0 1-1 1.6-.9.4-1-.9.1-1.5 1-1.6 1 0 1 .9m1.7 5.6c.3.9-.1 2.1-1 2.8s-1.7 2.1-2 3.2-.5-.1-.6-2.8c-.1-3.6.3-4.7 1.4-4.7q1.5.1 2.2 1.5m-1.7 14q0 3.5 2.1 4.5 2.3 1.2.9 2.4a4 4 0 0 0-.4 3c.4 1-.1 2.5-1.1 3.6q-1.9 2-.8 3.2c1.6 2 1.3 9.8-.3 9.8-1 0-1.4-1.8-1.5-6.8l-.5-15.5q-.3-8.6.6-8.2c.6.3 1 2.2 1 4m-83.2 29.4c0 5.5-.5 10.5-.9 11.3-.5.7-.9-3.4-.9-10 0-6.2.4-11.2.9-11.2s.9 4.5.9 9.9m61.1 5.8c0 8.2.3 22.9.7 32.9.5 13.1.4 18.3-.5 18.8s-1.1-2.2-1.2-9.6l-.6-18.8c-.4-9.4-.4-8.8-.3-21.4 0-4.9-.2-9.7-.5-10.7-.5-1.6.9-5.9 1.9-5.9.2 0 .4 6.6.5 14.7m-89.2-8.5q-.3 1.8-.4-1.7t.4-2.3c.2 1 .2 2.8 0 4m113.7 2.7q.3 1-.8 2c-1.6 1.3-3.2-.2-2.1-1.9.8-1.2 2.2-1.3 2.9-.1m-113.7 5.8q-.5 1.3-.5-1.2 0-2.6.5-1.8c.2.7.2 2.1 0 3m116.9.4q.1.8-2.1 1.5-4.3 1.1-.9 3.2c2.1 1.2 1 3.2-1.7 3.2-1.6 0-1.9-.7-1.9-4.3 0-2.4.2-4.6.5-4.9.8-.7 5.4.3 6.1 1.3m-116.9 10.1q-.5 1.1-.6-.6t.5-1.3q.5.6.1 1.9m27.3 1.3q0 1.4-1 1.5-.8-.1-.4-1.5.6-1.4 1-1.5.4.1.4 1.5m84.4 2q-.6 1.4-1 1.5-.4-.1-.4-1.5c0-1.4.4-1.5 1-1.5q.8.1.4 1.5m-84.9 7.2c-.5 8.4-.4 8-1.4 6.3s-.2-11 .9-11c.4 0 .6 2.1.5 4.7m83.6 1.4c-1 2.3-1 2.3-1-.7-.1-1.7.2-3.4.7-3.8 1.1-1.2 1.4 1.8.3 4.5m8.9-1q0 .8-1 .9-.9-.1-1-1.6.1-1.3 1-.9 1 .6 1 1.6m-119.4 3.7c-1.2 1.1-1.8-.7-1-3l.8-2.3.4 2.3c.2 1.3.1 2.6-.2 3m119.2 1.3q-.4 1-1.1 1l-2.4-.1q-2.2.1-.3-1c2-1.3 4.3-1.3 3.8.1m-119.7 5.2q-1.1 1.2-1.1-.4c0-2 1.3-3.4 1.8-1.9q.3 1.2-.7 2.3m27.8 12.4c.2 9.5 0 11.4-1.1 10.6-.7-.6-1.3-2.9-1.2-5 .3-17 .5-19.7 1.3-18.5.4.7.9 6.5 1 12.9m92.6-6.6c0 5.9-.2 6.4-2.2 6.7-2.6.4-3.1-1.3-.7-2.2 1.5-.6 1.5-.8 0-2.5s-1.5-1.9-.1-3.1q1.6-1.2.4-2.6c-1.2-1.5-.3-3.7 1.4-3.1.8.2 1.2 2.8 1.2 6.8m-6-4.1q.4.9-.4 1-1-.1-1.1-1 0-1 .4-1t1.1 1M238 521.7c.3 16.7-.1 29.8-1.1 30.7-.5.6-.9-7.1-.8-21 0-13.4.4-21.1.9-19.7.5 1.1.9 5.6 1 10m120 1.8c0 1.6-3.5 2.1-4.4.6-.8-1.2.4-2.1 2.6-2.1q1.7.2 1.8 1.5M72.6 539.1a56 56 0 0 0 1.7 18.7l1.6 4.1 5.8-.6c3.2-.3 6.8-1.2 8.1-1.9 2-1.4 2.3-1.3 3.1.9 1.3 3.4.6 25.9-.9 28.6-1.1 2.2-1.2 2.2-2.5.4-1.9-2.5-4.8-.6-5.5 3.5-.4 2.5-.8 3-2 2.2-.8-.5-2.7-1-4.2-1-1.6 0-3.6-.9-4.5-2-1-1.2-3-3.3-4.5-4.7-2.1-2.1-2.5-3.2-2.1-5.9.6-3.6-.9-6.4-3.4-6.4-1.1 0-1.1.4-.3 2 1.4 2.7.3 6.3-1.7 5.6-.8-.3-1.9-.6-2.4-.6s-.7-3.3-.4-8.1c.6-7.4.5-8.3-1.6-10.5-2-2.1-2.1-2.9-1.5-10.1l1.4-17.3a64 64 0 0 1 1.4-10.5c.3-.6 3.7-1 7.5-1h6.8zm284.2-10.3q.2 1.1-2.2 1.2c-2.7 0-3.5-1.5-1.3-2.3q2.7-1 3.5 1.1m-91.3 10.4c-.2 2.9-.3 8.3-.4 12 0 3.8-.4 6.8-.8 6.8a97 97 0 0 1-.7-23.1c1.3-2.2 2.1-.5 1.9 4.3m92.3-.9c.3 1.6.1 1.7-1.7.7-2.5-1.3-2.8-3.3-.4-2.8q1.6.5 2.1 2.1M45 539q-.2.9-1.7 1-2.2.1-.3-1c1.9-1.2 2-1.2 2 0m306.5 1q-.6.9-1.6 1-.8-.1-.9-1 .1-1 1.6-1 1.3 0 .9 1m4.6 8.3c-1.4 1.4-1.7 1-2.6-3.3l-.7-3.5 2.2 2.8c1.7 2.1 2 3.1 1.1 4m-27.2 19.2c0 5.5-.3 8.5-.8 8-.9-1-1.5-17-1-27 .2-4.5.3-4.3.9 2.5.4 4.1.8 11.5.9 16.5m34.8-21.3q-.5 1.1-.6-.6t.5-1.3c.3.3.4 1.2.1 1.9m-5.4 7.5c-.7.2-2.1.2-3 0q-1.4-.5 1.2-.5t1.8.5m-121.6 10c-.2 1.6-.4.5-.4-2.2s.2-4 .4-2.8.2 3.5 0 5M38 560.9q-1 2-2.1 2.1-1.5 0 1.4-3.8c1.5-1.9 2-.7.7 1.7m67.1 3.3a106 106 0 0 1-.8 36.1c-1.5 4-2.2 4.9-5.4 5.8-5.9 1.8-9.8-1.2-6.6-5a90 90 0 0 0 7.9-28.1c0-1.4-.5-4.7-1.1-7.4-1.2-5.6-.9-6.6 2.4-6.6 2 0 2.5.8 3.6 5.2m253.5-2.2q1.3.1 1.4 1.1c0 1.5-5.3.6-5.8-1q-.5-1.5 1.2-.8c1 .4 2.4.7 3.2.7m-317.8 5.7c-2.5 5.7-7 12.3-8.4 12.3-1.7 0-1.8-1.2-.3-2.7.6-.6 1.6-2 2.3-3q5.5-9.3 6.7-9.3c.5 0 .3 1.2-.3 2.7m196.2 8.5c-.1 6-.3 7.8-1 6.6-.6-.9-.8-4.3-.6-7.5.5-7.5.5-7.3 1.1-7.3.3 0 .5 3.7.5 8.2m28-4.5q0 2.9-1.1 1.6c-.7-.7-.9-1.9-.6-2.7q1.6-3.5 1.7 1.1m95 2.9q-.1 1.4-1.7 1.2c-2.5-.5-2.8-2.8-.4-2.8q2 0 2.1 1.6m-238 2.9q2.4 1.4.9 1.5c-.8 0-2.4-.7-3.5-1.5-2.4-1.8-.7-1.9 2.6 0m-80.7 1q-.6 1.4-1 1.1-.4-.5.2-1.5c.9-1.6 1.5-1.3.8.4m223.4 1.7q-.5 1-.5-1.2c0-2.2.2-1.9.5-1.3.2.7.2 1.9 0 2.5M15 586.3q0 7.4-1 5.7c-1.1-1.7-.9-14 .3-13.3.4.2.7 3.7.7 7.6m301.3-6.8q-.6 1.4-1 1.1-.4-.5.2-1.5c.9-1.6 1.5-1.3.8.4m45.1 4.7c.3 1.3.7 4.2.9 6.6a28 28 0 0 0 2.6 8.2l2.1 4h-3c-2.5 0-2.9-.4-2.7-2.2s-.4-2.4-3.1-2.8c-4.1-.6-4.5-2.3-.7-3 2.8-.5 4.9-3 2.5-3q-1.2 0-.6-2.4c.6-2.4 0-2.8-.9-3.6q-1.8-1.3-.4-2.6 2.5-3 3.3.8m-96 1.6c.8 2.6.3 14.2-.6 14.2s-1.1-1.4-1.2-9.7c-.1-6.2.7-8.1 1.8-4.5m51.8 4.4c.4 5.5.1 7.8-1.1 7.8-.4 0-.8-2.9-.9-6.5-.2-7.7 1.4-8.8 2-1.3m12.8.8q-.1.8-1.5.4-1.3-.6-1.5-1 .2-.4 1.5-.4c1.3 0 1.5.4 1.5 1m-1.7 4.1c-.3 1.2 0 2.5.7 2.9q1 .8.5 2.9c-.3 1.2-1.1 1.9-1.6 1.6-1.2-.8-1.2-9.5 0-9.5q.8.1.4 2.1m-136.4 2.4c1.6-.9 1.3 1.1-.4 2.5-2.5 2.1-4.7.8-5.1-2.9l-.4-3.5 2.4 2.3c1.4 1.3 2.9 2 3.5 1.6m-12.4 2.1c.8 4.7.1 5.2-2.9 2.3-1.9-1.8-2.2-2.8-1.5-4.1 1.6-2.9 3.6-2.1 4.4 1.8m-25.5 1.2c1.9 1.2 5.2 2.4 7.5 2.7 4.9.8 11.4 6 9.6 7.8-.9.9-1.6.8-2.9-.1-.9-.7-5.4-3.1-10-5.5l-8.4-4.2-1.9 2.4-2 2.5-3.6-2c-2-1-4.2-1.8-4.9-1.6-1.5.3-2.7-1.5-2.1-3.1q.5-1.2 7.8-1.1c5.7 0 8.2.5 10.9 2.2m-27.5.2q.4.9-.4 1-1-.1-1.1-1 0-1 .4-1 .6 0 1.1 1m190.5.6q0 1.3-1 .9-.9-.6-1-1.6.1-.8 1-.9 1 .1 1 1.6M117 604c.8 1.5.6 2.1-1.1 3q-2 1.2-1.6 3.1c.7 2.7-.3 2.4-5.2-1.4-4.2-3.1-4.2-3.2-1.6-3.5 1.4-.2 2.9-1 3.2-1.8.8-2.1 5.1-1.7 6.3.6m213.7 6c.2 3.8-.1 5-1.2 5q-1.6.2-1.1-3.3c.3-1.7.5-4 .5-5q.1-1.5.9-1.7c.4 0 .8 2.3.9 5m33.3-2.4q.1 1.5-4 1.4c-2.2 0-4-.5-4-1s1.1-1 2.4-1c1.4 0 2.8-.5 3.1-1 .8-1.3 2.5-.3 2.5 1.6m-98.2 17.9c0 9.8-1 15.3-2.2 12.3a23 23 0 0 1 .2-7.8c.5-3.3.5-6.3 0-6.6-1-.6-1.1-15.8 0-16.8 1-1.1 2 8.2 2 18.9M317 608q0 1.8-1 2-.9-.2-1-2c-.1-1.8.5-2 1-2q1 .2 1 2m-133.2 1.1 2.7 2.1-3-.8c-3.9-.9-4.6-1.4-4-2.5.9-1.3 1.4-1.2 4.3 1.2M343 612q0 .9-1 1a1 1 0 0 1-1-1q.1-1 1-1t1 1m22.5 14.7c1.2 17.4 1 31.6-.3 32.1q-1.2.2-.1 3c1.2 3.2 1.9 11.6 1 12.9-.3.6-1.6 1.3-2.8 1.7q-2.4.8-2.3-.8c0-.8.5-1.8 1-2.1 2-1.2 1-3.5-1.5-3.5-3.6 0-3-2.9 1-4.4q1.7-.7 1-1.4a10 10 0 0 1-2.2-2.8c-.9-1.7-.8-2.4.7-3.6 2.1-1.9 1.6-6.8-.8-6.8-1.3 0-1.3-.3.2-1.9 1.5-1.7 1.5-1.9.1-2.5-1.5-.5-1.4-.9.5-3.6l2.1-3h-5.6l2.5-2c2.1-1.6 2.3-2.2 1.3-3.8-.6-1.1-.9-2.3-.5-2.7s.7-1.8.7-3.1c.1-1.9-.4-2.4-2.2-2.4-2.1 0-2.2-.2-1.1-2.3.7-1.2 1.9-3 2.7-4 1.3-1.5 1.2-2-.8-4l-2.1-2.4 2.2-1c3.6-1.7 4.4.5 5.3 14.4m-48.5-7.5c0 3.9-.3 6.8-.6 6.5-1.2-1.2-1.6-13.7-.4-13.7.6 0 1 2.8 1 7.2m81.2-.8c1.6 3.7.5 5.2-4.4 5.9-5.4.7-6.3-.2-4.7-4.7 1.1-3.1 1.7-3.6 4.6-3.6 2.6 0 3.6.6 4.5 2.4m-67.5 9.6c.1 7.4-.2 10.2-1.3 11.1q-1.5 1.5-1.5-1.7a86 86 0 0 0 .2-12.2c-.1-5.1.3-7.2 1.2-7.2s1.2 2.8 1.4 10m-95 2.2c-.2 1.8-.4.6-.4-2.7s.2-4.8.4-3.3.2 4.2 0 6m153.7-1.4c.5.8-5.5 4.2-7.2 4.2-.9-.1 5-5 6-5q.7.1 1.2.8M317 631q0 .9-.4 1-.5-.1-1.1-1-.4-1 .4-1 1 0 1.1 1m-81.9 13.2.1 12.8a869 869 0 0 1-2.3 71c0 9.7-.7 12.8-2.2 10.2-.3-.4-.1-5.7.4-11.7.5-6.1 1.1-24.3 1.3-40.5.5-30 1.4-51 2.2-51 .3 0 .5 4.2.5 9.2m30.8 16.9.1 26.6c.1 4.7-.3 8.4-.9 8.8-1.2.7-1.2.7-1.5-26-.3-19.9.3-31.4 1.5-29.3.5.8.8 9.8.8 19.9m62.8-13.4q-.5 1.3-.5-1.7c0-3 .2-2.7.5-1.8s.2 2.6 0 3.5m-12 5q-.5 1.4-.5-1.2t.5-1.8c.2.7.2 2.1 0 3m-104.4 1.2c-.3 1.3-2.3 2.3-7.3 3.5-3.7.9-8 1.6-9.5 1.6q-2.7 0-3.2 2c-.8 2.9-7.3 4.4-16.3 3.5-10.7-.9-10.9-1.6-1-3.9l11.5-2.6 14-3.2c5-1.1 9.4-2.4 9.9-2.9 1.4-1.3 2.5-.1 1.9 2m217.2 0c2.7.6 2.8.8 1.1 1.8-3.6 2-.7 2.8 10.3 2.7 8.3-.1 11.4.3 12.3 1.3 1.7 2-.5 5.8-4 7.1-2.7.9-2.9.8-2.5-.9.6-2.3-3.5-4.2-8.1-3.7s-4.2 2.4.6 3.4c2.4.5 4.2 1.4 4.1 1.9-.7 3.7-40.6 6.7-47.8 3.5l-4-1.5c-1.9-.7-1.9-.7.4-1.6q2.8-.9 1.3-2.1-1.1-1.2-1.2-2c0-1.1 5.6-3.8 6.3-3.1 1 .9 3.6-1.7 3.1-3.1-.4-1 1.5-1.3 8.1-1.2 6.7 0 8.9-.3 10.2-1.7 1.8-1.7 4.5-2 9.8-.8m-98.6 3.3.5 10.7q.4 8.3-.5 7.4a59 59 0 0 1-1-20.3q.8.2 1 2.2m56 4.4q-2.5 2.6-1.3-1 .6-1.4 1.6-1 .7.6-.3 2m-173.4 1.7c.8 3.2-.1 71.2-.9 72.6q-.8 1-14.7 1.1h-14l.5-3.3c2.5-16.3 2.8-20.7 1.7-22.1-.8-.9-3.5-1.2-9.3-.9-10 .4-17 1.9-20 4.3-3.9 3-9.7 4.2-19.4 4.1-10.8-.1-12.9-.8-13.7-4.9a18 18 0 0 0-3.2-6.1c-2.3-2.7-3.3-3.1-7.6-3.1-4.8 0-4.9-.1-13.1-8.6a62 62 0 0 1-8.3-9.7q.2-2 9-4.7c2.2-.7 7.2-2.8 11-4.6 4.4-2.1 9.2-3.5 12.9-3.9 3.2-.3 9.1-1.5 13-2.7 7-2.2 14.8-2.5 42.1-1.6 4.6.1 14.8-1.2 15.5-2.1q4.7-5.7 14.7-6c2.6-.1 3.4.4 3.8 2.2m-68.7 1.2c-.3.3-1.8.8-3.4 1.1q-3.2.5-1.4-.6c1.5-1 5.8-1.4 4.8-.5m307.2 7.6c0 .6-.7 2.6-1.6 4.5-1.4 2.8-2.2 3.4-4.8 3.4-1.8 0-3.6.4-4.1.8-1 .9-9.7 2.5-20.3 3.8-2.8.3-4.9 1-4.6 1.5 1.2 1.9 13.5.7 26.7-2.6q2.9-.8 2.7.7c0 3.4-2.5 4.8-11 5.9-11.5 1.6-12.8 3.2-2.2 2.7 6.2-.2 8.2 0 8.2 1 0 1.7-4.1 3.1-11.1 3.9-4.3.4-5.9 1-5.9 2.1s1.1 1.4 6.5.8c3.7-.4 6.5-.3 6.5.2 0 2.1-3.4 3.5-8.8 3.6-6.9.1-7.6 2-.9 2.4 5.3.3 5.6 1.1 3.2 6.9q-1.6 3.8-2.6 2.6-1.2-1.1 0-3.1c.6-1 .7-2.2.4-2.6-1.3-1.3-6.1-.5-8.6 1.4l-2.6 2-2.6-2.4q-2.7-2.4-1.3-2.9c1.5-.5-2-2.2-6.5-3.2a5 5 0 0 1-3.6-2.8c-.5-1.2-2.1-3.3-3.6-4.7a38 38 0 0 1-8.5-14.6 13 13 0 0 0-2.1-5.3c-2.4-3.9-1.5-5.6 2.2-4.3 1.3.6 8.3 1.3 15.4 1.7 7.2.4 13.9 1.1 15 1.6q2.5 1 .3.8-1.6.3-1.8 1.7c0 1.4.9 1.5 6.8 1 3.7-.4 9.3-1.4 12.5-2.3 4.8-1.3 5.7-1.9 5.2-3.4q-.7-1.9.7-1.4c.8.3 2.2-.1 3.3-.9q3.6-2.7 3.5-.5m-20.7 4.6a17 17 0 0 1-4.5 0q-1.8-.4 2.2-.4c4 0 3.5.2 2.3.4m-355.8.9c.9.4 2.3 2.3 3.1 4.4 1.4 3.4 17.9 20 20.1 20 .4 0 1.6 1.9 2.6 4.1l1.9 4-2.5 2.5c-1.4 1.4-3.3 4-4.2 5.9-1.3 2.9-2 3.4-4 2.9q-5.3-1.2-6.3 11.6c-.5 7.2-1.7 9-2.8 4.4-.9-3.3.3-13.4 1.8-15.1 1.7-2.1-.4-3.8-3-2.4-3 1.6-4.5 7.4-4 15.2.5 6.3.4 6.9-1.4 6.9-1.1 0-2.3-1.1-2.8-2.6-1.4-3.5-.5-11.1 1.4-13.3 1.8-2 2.9-12.8 1.4-13.7-1.6-1-3.8 1.8-4.9 6.2-.6 2.4-1.5 4.4-1.9 4.4-1.7 0-1.8-4.4-.2-8.6 1.9-5.1.9-7.4-2.6-5.5-1.5.8-2.4 3.2-3.7 10.3q-3 16.7-.1 22.7c1.4 2.7 1.4 2.8-2.2 4.4-2.8 1.3-3.8 1.4-4.4.4q-1.7-2.7.5-2.7c.7 0 1.8-.5 2.5-1.2.9-.9.8-1.6-.5-3-3.2-3.5-1.6-20.2 3.2-33.7 1.9-5.6 1.9-6.1-.4-6.1-2.7 0-3.5 1.5-5.9 11-3.4 13.5-4.2 19.4-3.3 24.9s-.2 7.1-1.4 1.8c-2.5-11 2-31.9 9.2-42.7q3.9-6 1-6c-2.9 0-5.1 3.7-7.6 8.7q-3.8 7.5-2.2 1.5a38 38 0 0 1 17-20.2c4.1-2.2 4.3-2.2 6.6-1.4M367 680c0 4-7 7-8.3 3.6q-.4-1.3 1.1-1.2 1.6 0 2-2.1c.5-3.6 5.2-3.9 5.2-.3m-1.4 8.5q-.6 1.5 1.4 1.5c1.6 0 2 .7 2.1 3.7a93 93 0 0 0 1.9 18.8c1.3 4.3 1.7 26.2.5 27.3-.5.6-2.1 1.3-3.5 1.6l-2.5.7 2.3-2q4-3.2.5-5c-1.6-.9-1.5-1.1.7-1.9q3-1 .9-1.7-1.6-.5-1.3-4.1c.2-3.3.1-3.5-2.2-3s-3.3-.7-1.4-1.9 1-2.6-1.2-2.3c-3.3.5-3.2-1.8.2-3.2 2.4-1 3-1.9 3-4.2 0-1.6-.6-3.9-1.2-5.1s-1.3-3.1-1.4-4.2l-.2-5.9c-.2-3.5-.4-3.8-2.7-3.2q-2.3.5-2.5-.3c-.2-.8 1-1.1 2.2-1.3 3.2-.5 3.5-2.8.4-2.8-3.2 0-3.4-1.7-.3-2.3 4.3-.8 4.9-.7 4.3.8m-144.2 17.6q-.6.8-1.5.3t-.3-1.5q.6-.8 1.5-.3t.3 1.5m44.8 27.1c.1 11.4-.2 21.1-.5 21.5-.4.3-.7-3.9-.7-9.4s-.2-16.2-.5-23.9c-.4-10.2-.3-13.3.5-11.5.6 1.4 1.1 11.2 1.2 23.3m73.3-24.2q.4.9-1 1c-1.4.1-1.3-.5-1-1q.6-1 1-1t1 1M117 713c1 1.8.4 5-.9 5-.3 0-1.5-.7-2.5-1.5a9 9 0 0 0-4.8-1.5q-4.9 0-1-3.2c3.6-3.2 7.1-2.7 9.2 1.2m216 0c0 2.2-.5 4-1 4s-.9-1.6-.6-3.8c.5-4.5.5-4.2 1.1-4.2.3 0 .5 1.8.5 4m-111 .6c0 1.4-2.1 1.9-3.3.7-.9-.9 1.3-3.4 2.4-2.7q.8.6.9 2m94.5 4.1c-1 4-1.7 2-.9-2.3q.8-3.7 1.2-2.1c.2 1 .1 3-.3 4.4m-134.2-.2L181 729c-1.6 16.5-2.1 17.3-9.3 15.4-2.9-.8-6.5-1.4-8-1.4s-3-.7-3.3-1.5c-.4-.8.3-5 1.5-9.3s2.1-9.5 2.1-11.6c0-4.7 2-5.6 11.5-5.3 6.4.2 7 .4 6.8 2.2M414 721l.1 3.7q0 .7-1 1.1c-1.5.5-3.3-3.6-2.6-5.8 1-3.2 3.5-2.4 3.5 1m8 1c0 1.6-.4 3-.9 3-1 0-2.1-4.7-1.3-5.5q2-1.8 2.2 2.5m7.7 1.4c-.9 2.6-2.7 1.5-2.7-1.6.1-3.1.1-3.2 1.5-1.3.9 1 1.4 2.4 1.2 2.9M111.5 722c1 1.1 2.6 2 3.7 2 1.7 0 2.5 2 1.2 3.3-.3.3-2.3-.5-4.4-1.9-3.9-2.6-9-3-9.7-.8-.2.7 2.1 2.6 5.2 4.3 3 1.7 5.5 3.5 5.5 4s.8 1.7 1.7 2.7c1.6 1.5 1.6 1.7-.2 3-2.2 1.6-11 1.9-10 .4.3-.6 1.7-1 3.1-1q2.3-.1 2.4-1.4c0-1.5-7.3-5.7-9.2-5.3-1.9.3-2.1-3.5-.3-7.6 1.4-3.4 1.9-3.7 5.4-3.7q3.8 0 5.6 2m223.5 0q0 1.8-.9 2c-.9.2-1.1-.9-1.4-2q-.5-2 .9-2 1.3.2 1.4 2m-178 1.9c0 6-1.2 9.3-3.1 8.8-2.5-.7-3.5.9-4.3 6.6-.6 3.8-.4 4.8.9 5.3 1.2.5 1.3.9.4 2-.6.8-1.8 1.4-2.5 1.4-1.1 0-1.4-2-1.4-8.9 0-9.2-.5-10.6-3-9.1q-1.5.9-3.1-.6c-3-2.7-4.9-.7-4.9 5.2 0 3-.4 5.4-1 5.4s-1-2.8-1-6.3c0-3.6-.5-6.8-1.2-7.5-.9-.9-.2-1.2 3.3-1.2 4.4-.1 15.6-2.3 16.7-3.4.3-.3 1.4-.6 2.4-.6q1.9-.1 1.8 2.9m65.5-.9q.4 1-1 1.6c-1.9.8-3 0-2-1.5.8-1.4 2.2-1.4 3-.1m118.2.6q-.6.5-1.9.1-1.1-.5.6-.6t1.3.5m-210.5 2.6c-1.2 1.2-3.5.1-2.7-1.2.3-.5 1.3-.6 2.1-.3q1.5.6.6 1.5m-61.4 2.4c-.5 2-.7 4.6-.4 5.8s.1 2.8-.4 3.6q-1 1.6-1-5.1c0-3.6.3-6.9.7-7.2q2.5-2.2 1.1 2.9m24.4 7.7q-.5.7-1.4-.1-1-1.1-.2-6.4l.9-5.3.5 5.5c.3 3 .4 5.9.2 6.3M426 727q0 .9-.4 1-.5-.1-1.1-1-.4-1 .4-1 1 0 1.1 1m-83 3q0 .9-.9 1-1-.1-1.6-1-.4-1 .9-1 1.5 0 1.6 1m107.5 1q-1.6 1.8-1.4 2.1l4.5.5c5.9.5 13.8 3.8 14.2 5.9.3 1.5-.1 1.7-3.3 1.1q-3.6-.7-5.1.5c-1.4 1.1-26.3 2-32.5 1.1-4.5-.7-3.4-2.2 1.6-2.2 3.7 0 4.5-.3 4.5-1.8a5 5 0 0 0-1.2-3c-1.7-1.7.9-3.5 3.7-2.6 4.2 1.2 5 .9 4.8-1.4-.3-2.1.1-2.2 5.9-2.2 6 0 6.1 0 4.3 2m14.6.2c2.2.6 3.9 1.5 3.9 2s-.8.7-1.9.3l-6.2-1.9q-4.6-1.4-2-1.5c1.3-.1 4.1.4 6.2 1.1M223 732.5q-.1 1.3-1.5 1.5c-1.4.2-1.5-.7-1.5-1.5s.7-1.5 1.5-1.5 1.5.7 1.5 1.5m112.6 5c.1 3-.2 5.5-.7 5.5s-.9-2.8-.9-6.2c0-7.5 1.2-7 1.6.7m29.2-5.3c-.6 1.8-2.8 2.1-2.8.4q.1-1.5 1.6-1.6 1.4 0 1.2 1.2M418 734q-.1.9-1.5 1c-1.4.1-1.5-.5-1.5-1q.1-1 1.5-1c1.4 0 1.5.4 1.5 1m-9 3q0 .9-1 1a1 1 0 0 1-1-1q.1-1 1-1t1 1m64 .9c0 2-1.7 3.7-2.7 2.8-.7-.8.7-4.7 1.8-4.7.5 0 .9.9.9 1.9m-130.3-.3q-.7.5-1.9.1t.6-.6q1.8 0 1.3.5m-201 8.1c-.2 1.6-.4.5-.4-2.2s.2-4 .4-2.8.2 3.5 0 5m79.8-4.6c1 1.5-.1 2.3-2 1.5q-1.4-.6-1-1.6c.8-1.3 2.2-1.3 3 .1m-178.8 4.3c6.7 4.7 23.8 14.7 30 17.5l5.1 2.4.4 5.6c.2 3.1 0 6.1-.4 6.7s-.7 2.1-.6 3.4c.2 1.8-.5 2.5-3.4 3.6-3.3 1.1-3.8 1.1-3.8-.2q.2-1.2 2-1.4c2.7 0 3.2-1.5 2.2-7-.8-5-2.9-6-4.8-2.3-.6 1.3-1.8 3.1-2.7 4.1-1 1.1-1.7 3.5-1.7 6 0 3.1-.4 4.2-1.5 4.2-1.4 0-1.5-1.2-.9-8.5s.4-8.5-.8-8.5c-2.4 0-3.5 2.1-4.2 8-1 7.6-2.5 13-3.7 13-.6 0-.8-1.4-.4-3.3.3-1.7.7-6.8.8-11.2.2-6.9 0-8-1.6-8.3-2-.4-3.5 2.7-1.8 3.8q1.5.7-.2 1.3c-1 .4-1.5 2.3-1.6 6.6 0 3.3-.6 7.2-1.1 8.6-1.4 3.7-1.2 7.1.5 8.5 1.1.9 2.9.5 8.9-2.4a49 49 0 0 1 15.1-5.2c5.2-1.7 5.3-1.7 10.8 1 8.2 3.9 13.8 3.2 15.7-1.8 1.1-2.9 9.2-5.1 15.3-4.2a70 70 0 0 1 19.9 4.3c.7.8 3.8 1.3 7.5 1.3 6.7 0 12.7 2.2 12.1 4.3-.6 1.8-13.4 8.3-21.8 11-12.4 4-12.9 4.1-13.9 1.4q-1.5-3.7-10.3-3.7c-4.9 0-9.3 3.1-8.3 5.7q.4 1.3-2.3 1.3c-2.5 0-29-6.5-37.2-9.1-1.9-.6-5.3-1.3-7.5-1.6a20 20 0 0 1-6.1-1.9c-2.3-1.5-2.3-.4.5-16.7 1.9-10.8-.6-19.5-4.4-15.6-1 1-1.1 2.5-.5 5.9.4 2.5.5 5.2 0 6s-1.3 6.1-2 11.7q-1.7 14.2-3.6 8.9c-.3-.8 0-4.8.7-8.8a83 83 0 0 0 1.1-19.4c-.2-2.1-.6-2.5-2.2-2.1-2.8.7-2.6-1.6.3-2.8 2.7-1.2 3.2-6.1.6-5.9-2.4.2-3.3-8.4-1.2-10.8 1.1-1.2 1.2-2.1.4-3.7q-1-1.9-1.1-2.5c0-1.5 3.5-.3 7.7 2.8m301.6.1q0 .9-1.5 1.3-1.7.3-1.8-1.3c0-1.7 3-1.8 3.3 0m28.3 1.2c-1 1-1.9-.5-1-1.8q.8-1.7 1.2 0 .3 1.2-.2 1.8m-244.1 1.2c3.6 2 6.4 6.6 5 8-.6.5-2.2 1.2-3.6 1.6-2.4.6-2.5.4-2.2-2.2.9-5.6-.4-5.8-28.4-5.8-13.9 0-25.3-.3-25.3-.8 0-.7.6-.8 8-1.3l11.5-1.1c11.4-1.4 31.5-.4 35 1.6m208.1 8.5c.5 7.7.4 9.7-.5 9.1-.7-.4-1-1.7-.7-3s.2-2.7-.4-3c-.5-.3-1-3.8-1-7.8 0-10.3 1.7-7.2 2.6 4.7M357 746q0 .9-.4 1-.5-.1-1.1-1-.4-1 .4-1 1 0 1.1 1m48.3.6c-.3.8.3 3 1.3 4.9 1.6 3.1 1.7 4.1.5 11.7-1.4 8.7-7.2 30-9.8 35.5-.9 2-2.3 3.3-3.4 3.3-2.8 0-10.9-4.2-10.9-5.7 0-.7 3.2-7.5 7-15 3.9-7.6 7-14.8 7-16.2 0-3.8 6.9-20.1 8.6-20.1q.3.1-.3 1.6m26.6-.1c8.9.2 12.7.7 13.9 1.8.9.8 3.1 1.8 4.7 2.2q2.6.8 1.8 1.2c-2.1.8-1.5 3 1 3.7 1.2.3 4.1.6 6.4.6s4.4.3 4.6.7c.3.5-2.9.8-7.1.8-4.7 0-7.7.4-7.9 1.1q-.3 1.1 5.1 1.2c6.3 0 7.8.7 7.4 3-.3 1.4-1.4 1.6-7.1 1.4-5.4-.3-6.7-.1-6.7 1.1q-.1 1.5 4.1 1.5c3.9.1 6.9 1.5 5.8 2.7-.3.3-3.4.8-6.8 1.1-7.3.8-8 3-.7 2.6 3.9-.2 4.6 0 4.6 1.7 0 2.7-2.3 4.2-6 3.9-4.3-.4-5.3 2-1.1 2.8 6.4 1.3 3.9 6.9-2.8 6.2-2.7-.3-3.9.2-6.4 2.6-2.9 2.9-3.1 3.5-2.8 8.8.1 3.2-.1 5.8-.6 5.8-1.1-.1-4.3-7.2-4.3-9.7 0-1.1.6-2.6 1.4-3.2 2.2-1.8.7-5.1-2.5-5.8q-3-.6-2.9-2.4c0-1.1-3.8-9.7-8.5-19.3-4.7-9.5-8.5-17.8-8.5-18.5 0-1 1.3-1.1 4.9-.6 2.6.3 10.3.8 17 1M166.4 748c1.8.6 1.7.8-1 2.5l-7.9 5a119 119 0 0 1-54.4 13.9c-.9-.8 2.2-2.4 4.7-2.4a112 112 0 0 0 45.2-17.4c4.6-3.4 7.5-3.7 13.4-1.6m55.6.1q-.2.8-2 .9c-1.9 0-2.6-1.1-1.4-2.3.8-.8 3.4.3 3.4 1.4m-203.9 3.6q-1.1 2.5-1.1-.8c0-1.4.3-2.9.8-3.3 1.2-1.2 1.4 2.2.3 4.1m344.6-1.5q-.5 1.1-.6-.6t.5-1.3c.3.3.4 1.2.1 1.9m-131.7-.3q0 1-1 1.6-.9.4-1-.9.1-1.5 1-1.6 1 0 1 .9m-201.8 1.7c1.1.7-1 21.1-3.6 36.1-1.5 8.3-5.5 16.3-8.1 16.3-.7 0-2.5-1.4-3.9-3-2.5-3.1-3.4-6.7-3.8-17.5-.3-5.6-.2-6 1.8-5.7 1.8.2 2.2-.3 2.6-3.5.3-2.1 0-4.6-.6-5.5-.7-1.2-.7-3.4.2-7.4 1.4-6.9 2.7-8.5 4.6-5.9 1.9 2.7 4.6 1.3 4.6-2.5 0-2.8.2-3 2.8-2.4zM70 751c0 1.8-4.9 3.5-6.2 2.2q-1.4-1.2 1.3-2.1 4.8-2 4.9-.1m300 2c-3.7 3.3-5 3.7-5 1.7 0-.7 1.7-2 3.8-2.9 5.1-2.3 5.2-2.2 1.2 1.2m98-1.5c0 1.1-1.2 1.5-4.9 1.5-2.7 0-5.7-.3-6.7-.7-1.6-.6-1.6-.7.2-1.4 1-.4 4-.8 6.7-.8 3.5-.1 4.7.3 4.7 1.4m-111 .5q-.1.9-1.1 1-.8-.1-.4-1 .6-1 1.1-1 .4 0 .4 1m-186.1 6.7 1.8 10.1c.5 3.1.4 3.3-1.8 3-2.1-.3-2.4-.8-2.4-4.3 0-3.3-.3-4-2-4s-2 .6-1.8 3.7c.3 4.4-.2 4.6-2.7 1.5-1.6-1.8-2.2-2-3.8-1-1.7 1-2.1.9-2.5-.8-.6-2.4-4.1-2.3-4.3.1l-.3 2.4c0 .5-1 .1-2.1-.9-2.7-2.4-4.4-.8-4.2 4 .2 4.6-1.5 4.5-2.4-.1-.5-2.8-1-3.5-2.8-3.2s-2.1.9-1.9 3.8q.3 4.3-.5 1c-1.1-3.6-3.9-3.8-5.4-.3-1.1 2.7-1.2 2.7-1.6.5-.6-3.7.4-5 4.5-5.8 2.1-.4 4.3-1.1 4.9-1.6s2.2-1.1 3.5-1.3a114 114 0 0 0 26-13.5c.4 0 1.2 3 1.8 6.7m52.1-3.6c0 1.2-3.7 1.2-4.4 0q-.5-.8 0-1.4c.8-.7 4.4.4 4.4 1.4m120 2.5q0 1.3-1 .9-.9-.6-1-1.6.1-.8 1-.9 1 .1 1 1.6M238 760q-.1.9-1.5 1c-1.4.1-1.5-.5-1.5-1q.1-1 1.5-1c1.4 0 1.5.4 1.5 1m-147 5q-.1.9-1.1 1-.8-.1-.4-1t1.1-1q.3 0 .4 1m322 2q0 .9-1 1a1 1 0 0 1-1-1q.1-1 1-1t1 1m-51.3 5.2q-.5 1.1-.6-.6t.5-1.3c.3.3.4 1.2.1 1.9M125 773.6q.2 2-1.5.4-1.3-1.2-1.5-1.6.2-.4 1.5-.4c1.3 0 1.5.7 1.5 1.6m223-.6q-.2.9-2.2 1-2.7.1-.8-1 3-2 3 0m-229.4 3c.1 3.8-2 3.5-2.4-.3q-.3-2.6 1-2.7c.8 0 1.3 1.3 1.4 3m-7.6-.1c0 1.1-.4 2.2-.9 2.5-1.1.7-2.3-2.2-1.5-3.5.9-1.6 2.4-1 2.4 1m41-.9q0 .9-1 1a1 1 0 0 1-1-1q.1-1 1-1t1 1m13 0q0 .9-.4 1-.6-.1-1.1-1-.4-1 .4-1 1 0 1.1 1m8 1q-.1.9-1.5 1c-1.4.1-1.5-.5-1.5-1q.1-1 1.5-1c1.4 0 1.5.4 1.5 1m247.2 4c1 1.9 1.8 4 1.8 4.6q-.1 1.1-8.1 1.2c-7.2.2-8 0-7.7-1.5q.1-1.9 4.3-2.1c9.6-.6 11.5-2.6 3.5-3.7-6.3-.9-6.5-2.1-.3-2 4.2.1 4.8.4 6.5 3.5m-325.8 3.5c-.9 2.2-4.1 3.8-4.9 2.4-.8-1.2-.8-1.2 2-2.7s3.5-1.5 2.9.3m253.9 2.6c-1.7 1.7-3.7.1-2.2-1.7q1.2-1.6 2.3-.4 1 1-.1 2.1M178.4 793c1.4 2.5 1.4 2.7-4.1 6.9a64 64 0 0 1-24.3 11.6l-11.5 3.5c-3 1.2-11.1 3-13.5 3q-2.3.2-1.8-2.2c.2-1.9 2.1-2.9 10.3-5.9 16-5.8 22.1-9.5 30.5-18l7.5-7.7 2.7 3.2c1.5 1.7 3.3 4.2 4.2 5.6m148.6-8.1c0 1.3-2.8 2.2-3.5 1.1-.3-.4.1-1.1.7-1.3q2.9-1.2 2.8.2m36 .6c0 .8-1.8 2.4-4 3.5-4.5 2.3-5 2.4-5 1q.2-1 2-1c1.8 0 2.7-1.1 3.6-2.5 1.8-2.8 3.4-3.3 3.4-1m-31 1c1.6 1.9.1 1.9-2.4 0q-2.4-1.7-.4-1.5c.8 0 2.1.7 2.8 1.5m-44.2 2.2c-1 .2-2.6.2-3.5 0q-1.3-.5 1.7-.5c3 0 2.7.2 1.8.5m59.9.9q-.7.5-1.9.1t.6-.6q1.8 0 1.3.5m71.6.8-.5 1.7c-.2.6-3.6 1.3-7.6 1.5-6.4.3-7.2.2-7.2-1.4 0-1 .2-2.1.4-2.3a52 52 0 0 1 14.9.5m-123.4 3.2c10.2-.4 10.5-.3 7.1 1.1-4.9 2.1-23 .7-23-1.8 0-.5 1.2-.4 2.6.1s7.4.8 13.3.6m17.6-.6q.3 1-1.9 1c-2.2 0-2.8-.5-3.1-1q-.3-1 1.9-1c2.2 0 2.8.4 3.1 1m111.2 3.2c.1 1.3.5 3.4.9 4.7q.8 2.6-.7 1.9c-1.5-.5-2.4-5-1.5-7.4q1.2-3 1.3.8m18.7.4c.3.9.6 2.6.6 3.9s.7 2.8 1.5 3.5c2.1 1.7.9 3-2.6 3-2.7 0-2.9-.2-2.2-2.8.4-1.5.8-4.2.7-6-.1-3.4 1-4.3 2-1.6m-33.9 3.4c-.8 1.3-5.3 1.8-6.4.7q-2.7-2.4 1.7-2.9c2.8-.4 5.5.9 4.7 2.2m7.3-.7q.5 1.8-2.1 1.7-4.7 0-2.5-2.7c1.5-1.8 4.2-1.2 4.6 1m-94.7 1c-1.3 1.3-2.6.3-1.6-1.2q.6-1 1.7-.5 1 .6-.1 1.7M185.8 808c.6 10-.9 28-2.3 28-2.2 0-3.6-8.9-3.2-20.6s.9-13.7 3.5-13.2c1.3.2 1.8 1.7 2 5.8m126.2-4.5q-.1 1.3-1.5 1.5c-1.4.2-1.5-.7-1.5-1.5s.7-1.5 1.5-1.5 1.5.7 1.5 1.5m10 7.2c0 4.7-.2 8.4-.4 8.2a52 52 0 0 1-.6-16.9c.6 0 1 3.4 1 8.7m-16.1-6.4q1.9 2.6-2.1 2.7c-1.8 0-2.5-2-1.1-3.3q1.4-1.5 3.2.6m96.6.7c-.3.5-1.3 1-2.1 1s-1.2-.5-.9-1 1.3-1 2.1-1 1.2.4.9 1m16.8-.4c1.1 1.2-.4 2.6-1.6 1.6a10 10 0 0 0-3.2-1.5q-2-.4 1.1-.6c1.7 0 3.4.2 3.7.5m-243.7 7.6c-.7 8-.9 8.3-3.1 7.5-1.2-.5-1.4-1.7-.9-6.4q1-8.5 3.7-8.3 1 0 .3 7.2M58 807a233 233 0 0 0 35.2 8.2c5.5 0 6.3.8 7.1 6.6.4 3.1.1 4.8-1.3 6.4-1.3 1.6-1.6 3.3-1.2 6 .6 4.9-1.2 4.9-2.4 0q-.9-3.9-2.9-3.7c-1.8 0-2 .7-2 6.9 0 8.7-2 10.1-2.8 2-.7-6.3-1.5-7.8-4.1-6.8-1.6.6-1.7 1.6-1.1 8 .4 4 .4 8.2 0 9.4-1.2 3.7-2.5 2.1-2.5-3.3 0-2.8-.3-6.9-.7-9-.5-3.1-.9-3.8-2.7-3.5-2 .3-2.1.9-2.1 11.4 0 7.8-.4 11.6-1.4 12.8-2 2.4-3.1 1-2-2.7q2-7-.8-22.4c-1.6-8.6-1.9-9.3-4.1-9.3-2.9 0-3.6 1.9-2.3 6.7 1.8 6.5 2.4 25.2.9 30.7-1.4 5.5-4.5 8.1-3.4 2.9a90 90 0 0 0-3.3-45.8c-4.1-11.4-4.4-12.5-4-12.5zm-27.9 3.2c-.6 3-1 3.3-4.8 3.6q-4.2.4-4.6-1.2-.9-1.6 3.6-2.7c2.3-.7 4.6-1.6 5.2-2.1 1.3-1.2 1.3-1.1.6 2.4m79.3-.6c2.4.9 1.9 2.9-1.1 4.3-3.3 1.5-4.7.2-2.7-2.7 1.7-2.5 1.6-2.4 3.8-1.6m325.5 3.4c1.4 0 1.4.3 0 7.6L430 849a234 234 0 0 1-5.6 23.9c-.6.7-22.4-8.2-22.4-9.2 0-.4 1.7-2.6 3.8-5 7.2-8 13.7-20.2 20.3-38 4.2-11.6 4.4-11.8 6-9.8q1.7 2 2.8 2.1m-385.5-.2a82 82 0 0 1 6.3 43.4c-.7 5.3-1 10.5-.6 11.6q.8 2.1-.8 3.3c-1.8 1.6-5.6-.2-8.4-4.1-2.3-3-8.4-24.4-9.5-32.6-.6-5.3-.5-5.8.9-4.6 2.8 2.3 3.6.5 3-7.3-.2-4.3 0-8.2.6-9.2.8-1.4 1-.5 1.1 3.9 0 5.1.2 5.8 2 5.8 2.2 0 2.3-.4 2-6.7-.1-3.9.5-6.3 1.5-6.3.3 0 1.1 1.3 1.9 2.8m264.3 1q.8 8-.9 10.9c-.8 1.7-.8 2.6.2 3.8s.9 2-.5 4.1c-2.1 3.3-.7 5 2.3 2.8 1.9-1.3 2.1-1.9 1.1-3-1.4-1.8.4-6.8 2.3-6.2 2.5.9 3.3 3.6 1.8 6.3-1.2 2.2-1.2 2.8-.1 3.4q1.4.7.6 5l-.7 4.1-2.5-2a9 9 0 0 0-4.2-2q-1.7 0-2.9-1.2-1.2-1.4-2.9.4-5.2 4.6-9.1.4c-2.5-3-3.5-3.2-5.2-1.1q-1.4 1.6-.2 2.7c1.4 1.4 1.6 2.8.3 2.8-.5 0-1.8-1.6-3-3.5-2.2-3.7-5.7-4.7-6.8-2-.5 1.4-.7 1.4-2.4 0q-1.7-1.8-3.5-.7c-.9.5-2.5.7-3.6.4-1-.2-2.8.4-3.9 1.4-2.5 2.2-12.6 2.5-13.9.3-2.5-3.9 6.3-8.8 17.2-9.5 15.2-1 21.7-3.6 21.8-8.6 0-2.8 3-3.8 6.6-2.1 2.7 1.3 3.5 1.3 6 .2q2.8-1.5 2.9-3.4c0-2.6-3.1-3.1-5.5-1-2.4 2.2-5.4 1.6-5.8-1.1-.3-1.8.4-2.2 4-2.8 2.4-.4 5.1-.7 6-.7q1.6-.1 2.4-1c.9-1.5 1.9-.1 2.1 2.9m-146.9.9c-.4 5.2-2.8 5.6-2.8.4q-.1-4.3 1.6-4.1c1.1 0 1.4.9 1.2 3.7m-8.1 2.5c-.4 4.4-2.8 6.1-3.5 2.5-.6-3 .7-6.7 2.4-6.7 1.2 0 1.4.9 1.1 4.2m286.3-1.7q-.1 1.3-1.4 1.5c-1.7 0-2.8-1.4-1.9-2.4 1.2-1.2 3.3-.6 3.3.9m-295 3q0 2.3-1 2.5-.9-.2-1-2.5c-.1-2.3.5-2.5 1-2.5s1 1.1 1 2.5m-32.1 1.2q4 3.5-1 7.9c-1.7 1.6-2.2 1.6-2.9.4-1.4-2.3-1.2-2.7 1.6-3.4q2.5-.7 2.2-2.4c-.3-1.4-1.3-1.6-6.2-1.3-4.3.2-5.7 0-5.1-.9 2-3.2 8.1-3.4 11.4-.3m24.5-.9q.3.8-.5 2.2c-.8 1.3-1 1.3-1.8 0-1-1.5-.6-3 .9-3q.8.1 1.4.8m302.4 2.9c-.4 2.2-4.8 3.1-4.8 1q0-2.8 3.2-2.7 2 0 1.6 1.7M7.5 824.1q-.1 1.2-1.9 1.7c-2.1.4-4.1-1.2-3.3-2.5.9-1.5 5.2-.8 5.2.8M166 824q0 1.8-1 2-.9-.2-1-2c-.1-1.8.5-2 1-2q1 .2 1 2m8.8.7q.2 1.3-1.7 1.3c-1.9 0-2.1-.6-2.1-1.6 0-1.8 3.1-1.5 3.8.3m150.6 1.5c.7 2.9.8 6.3 0 5.5-.3-.3-.9-2.2-1.4-4.1-.9-3.9.4-5.1 1.4-1.4m121 2.5q1.5 3.4-3.8 3.3c-4 0-4.8-.7-3.6-3s6.6-2.4 7.4-.3m-269.1 5.8c1.9.8 3.7 2.1 4 3 .5 1.2 0 1.1-3.1-.5-7.5-4-8.1-5.5-.9-2.5m270.7 2.4c0 1.4-1 2-4.7 2.4-5.4.6-6.4.3-5.7-1.8.6-1.4 8.1-3.6 9.7-2.8q.6.5.7 2.2"/><path d="M62.7 529.7c-.3.5-.7 2.9-1.1 5.4-.5 3.4-.3 4.9.8 5.8 2.5 2.1 5.6-2 5.6-7.4 0-4.1-.2-4.5-2.4-4.5-1.4 0-2.7.3-2.9.7m24.4 36.6q-2 2.6 2.6 2.7 2.3 0 2.3-2c0-2.3-3.1-2.7-4.9-.7m-9.7 1.1c-.9 2.4.4 4.8 2.3 4.4q1.8-.4 1.8-2.8c0-2.9-3.2-4.1-4.1-1.6m336.8 112.5q.4 1.1 1.1 1.2c1.2-.1.9-1.5-.3-2q-1.2-.2-.8.8M366.5 702q-.4.9.4 1 1-.1 1.1-1 0-1-.4-1t-1.1 1M51 763q.1.9 1 1 1-.1 1-1t-1-1a1 1 0 0 0-1 1m23 68q-2 1.1.8 1c1.2 0 2.2-.5 2.2-1q0-2-3 0m225.1-5.9c-2.8 1.1-2.1 2 2.7 3.9 2.8 1.1 3.5 1.1 4.2 0 1.2-1.9-.7-5-2.8-4.9-.9 0-2.8.5-4.1 1M485 658.7c-6.6.5-7.8 1.4-8.2 6.1-.2 3-.8 3.8-2.6 4-3 .5-5.8 5.7-4.1 7.9.7.8 2.3 1.3 3.6 1q2.1-.3 2.3.4c0 .4-1 .9-2.1 1.1a5 5 0 0 0-3.3 2.1c-.9 1.5-.7 2.2 1.3 3.8q2 1.7 1.2 1.9c-1.8 0-5.1 3.9-5.1 6 0 3.1 3 3.7 5 1 3.4-4.5 4.2-2.2 4.1 11-.1 6.9.2 13 .6 13.6 1.5 2.1 4.1 2.3 5.8.4 1.4-1.6 1.5-2.6.7-6.7-.6-2.7-.8-8.4-.5-12.7.7-8.5 1.6-9.7 6.2-7.9 1.5.5 4.3.8 6.4.5 3.7-.4 3.7-.4 3.7-5.2v-4.7l-8.5.4c-5.2.2-8.5 0-8.5-.6s2.8-1.1 6.2-1.3c3.8-.2 6.3-.8 6.6-1.6s-1.3-1.2-5.9-1.2c-3.4 0-6-.2-5.7-.5.5-.5 7.6-1.4 12.6-1.4 2.5-.1 3.2-.5 3.2-2.2q0-1.8-.7-1.6c-.5.3-2.6.1-4.8-.3l-4-.8 4.8-.1c4-.1 4.7-.4 4.7-2.2q0-1.8-.7-1.6-1 .4-2.8-.4-2.7-1 .8-.8c2.2-.1 2.7-.6 2.7-2.5 0-4.3-4.2-5.7-15-4.9m6.5 3.3q.4 1-3 1c-3.4 0-3.4-.4-3-1s1.7-1 3-1 2.7.4 3 1m-.8 5.4c.4.3-1.3.6-3.6.6s-4-.4-3.7-.8c.5-.9 6.4-.7 7.3.2m-4.4 4.3c-.7.2-1.9.2-2.5 0q-1-.5 1.2-.5c2.2 0 1.9.2 1.3.5m7.7 15.7c0 1-1 1.1-4.2.6-2.4-.5-4.6-.6-5-.4q-.8.4-.8-.5c0-.9 7.6-2 9.3-1.3q.6.4.7 1.6M60.5 669.7c-1.1.2-2.9.8-4 1.2l-7.3 3.1a45 45 0 0 0-9.6 5.4c-4.1 3.1-5 3.3-14.7 3.9a86 86 0 0 0-21.1 3.2c-3.1.5-3.8 1-3.8 2.9 0 2 .4 2.2 4.9 2.1 2.7-.1 5.7-.7 6.6-1.5 1.2-1 4.8-1.5 11.8-1.7 9.4-.2 10.3-.4 15.1-3.4a178 178 0 0 1 15-8.7c.6-.5 2.9-1.2 5-1.5 4.3-.7 7.2-2.9 6.2-4.6q-.7-1-1.4-1zm-22.6 19.8c-2 .7-5.1 2.1-7 3.1s-7.2 2-12.9 2.5c-16.6 1.4-18 1.8-18 4.5 0 2 .5 2.4 3.1 2.4 1.7 0 3.9-.5 5-1.1 1.1-.5 5.4-1.1 9.7-1.2 6.2-.2 9.2-.9 15.7-3.6 10.9-4.5 11-4.6 11.3-6.5q.7-2.9-6.9-.1"/><path d="M486 695c-2.1 1.3.1 3.3 3.1 2.8 3.2-.4 3.9-3.8.7-3.8-1.3 0-3 .5-3.8 1M115.5 847.8a147 147 0 0 0-22.7 5.3c-2.1 1.1-2.4 4.2-.4 5.8.7.6 3.1 1.7 5.2 2.5l3.9 1.5H93c-6.6.1-9.2.5-11.7 2.1-6.4 3.9-3.1 7.2 8.7 8.9 4.3.7 8 1.8 8.6 2.6 1.4 1.9 12.4 2.1 14.2.3 1.9-1.9 1.4-2.5-2.9-3.1a13 13 0 0 1-5.8-2.1c-1-.9-3.5-1.6-5.7-1.7-2.1 0-4.8-.4-5.9-.9-2.2-1-1.9-1 5.5-1.6 2.5-.1 6.3-.9 8.5-1.6 3.2-1 4.1-1.9 4.3-3.9.3-2.2-.2-2.9-2.9-3.8-1.8-.6-4-1.1-5-1.1q-1.8-.1-1.9-.8c0-1.7 16.7-3.9 27.5-3.7 16.9.3 43.8 1.6 45.8 2.1 2.9.9 1 2.2-4.1 2.9a126 126 0 0 0-24.3 4.8c-1.9 1.2-2.6 4.2-1.1 5.1.5.3 4.8.6 9.6.7 7.3.2 9.2.6 11.9 2.6 2.5 1.8 4.4 2.3 9.6 2.4 6.7 0 16.9 3.1 14 4.2-.8.3.5.6 2.9.6 4.5.1 5.9-1.9 2.5-3.8a83 83 0 0 0-19-4.4c-3-.2-4.7-.9-6.1-2.7-1.6-2-2.9-2.5-6.6-2.4-6.3.1-4.9-1.2 2.1-1.9 11.8-1.3 15.8-2.7 16.8-5.8.8-2.4 0-3.6-3.6-5.5-2.4-1.2-8-1.6-26.2-2.1a541 541 0 0 1-37.2-1.5m347 18.2q-.4.9.4 1 1-.1 1.1-1 0-1-.4-1t-1.1 1M1.3 877.7c.9.2 2.5.2 3.5 0q1.2-.5-1.8-.5t-1.7.5"/></svg>