<svg xmlns="http://www.w3.org/2000/svg" width="666.7" height="1170.7" viewBox="0 0 500 878"><path d="M208.3 23.8c-4 .4-6.9 3.8-5.1 6 .7.8 2.4 1.2 4 1 1.6-.3 3.2 0 3.7.6 2.2 2.6 10.1 19.8 9.6 20.6-.4.6-2.8 1-5.5 1-4 0-5.1.4-6 2.1-2.3 4.2-1.2 4.4 14.6 3.6 8.2-.4 19.6-.5 25.4-.1 13 .7 13.1.7 20.5.2 8.4-.5 10.2-1.9 6.9-5.2a6 6 0 0 0-3.8-1.6c-2.8 0-3.6-2.9-3.6-13.1 0-6.4.1-6.9 2.8-8.1q2.8-1.3 2.7-3.8v-2.5l-21.7-.2c-21.1-.2-21.8-.1-23.2 1.9q-1.6 2-.5 4c.7 1.3.5 3-1 6.3-1.1 2.5-2.4 4.5-2.8 4.5s-1.8-2.3-3-5c-2.1-4.9-2.1-5-.2-6a3.6 3.6 0 0 0 .7-5.8c-1.3-1-8-1.2-14.5-.4m32 17.8-.8 9.9h-4c-5.2 0-5.4-1.4-1.5-11.1q8.3-21 6.3 1.2m22-.6c.5 6.5.4 10.7-.2 11.3-1.2 1.2-1.7-.9-3.1-12.2-1-8.5-.7-10.5 1.3-9.8.7.2 1.5 4.4 2 10.7m-11.5-8.3c1.7 3.3 2.3 16.8.9 18.8-1.3 1.6-1.4 1.6-3.1-.1-1.4-1.3-1.7-2.7-1.2-5.3.3-2 .6-6.2.6-9.4 0-5.7 1.1-7.3 2.8-4M103.5 141a56 56 0 0 0-31 15.5 46 46 0 0 0-12.8 20.2 45 45 0 0 0-2.3 27.3 51 51 0 0 0 14.3 28.2 54 54 0 0 0 39.2 17.7c18.2.5 28.9-4.2 45.3-20.1a54 54 0 0 0 14.5-18.3 28 28 0 0 0 3.7-17.5 40 40 0 0 0-8.5-26.7c-5-6.4-9.9-10.5-16.5-13.6a142 142 0 0 1-9.9-5.5c-9.1-5.9-24.6-9-36-7.2m21.4 4.4q1.4.8-7.8 3.2a46.7 46.7 0 0 0-32 66.3 62 62 0 0 0 15.8 17.1c.6 0 2.7 1.1 4.7 2.5s4.3 2.5 5.1 2.5 3 .7 4.9 1.6c2.5 1.2 5.7 1.5 13.4 1.2 5.5-.1 10 0 10 .3a56 56 0 0 1-14.5 5.8c-2.2.6-7.3 1.1-11.4 1.1a52 52 0 0 1-38.8-87.2A45 45 0 0 1 95 146.6c6.6-2.4 8.7-2.6 18-2.4a54 54 0 0 1 11.9 1.2m17.9 8.7c14.2 4.9 22.4 13.7 27.5 29.4a39 39 0 0 1-1.1 23.2 42 42 0 0 1-68.6 15.3 40.8 40.8 0 0 1 42.2-67.9"/><path d="M109.5 174.4c-4 1.7-6.2 4.3-4.8 5.7q1 1.2 4.1-1.1c2.6-1.9 3.9-2.2 7.6-1.7q7 1 3.4-2.1c-2.3-1.8-7.2-2.2-10.3-.8m31.8.9q-6 2.2-4.5 4.4c.6.9 1.7.9 4.7-.2 5.4-1.9 6.8-1.8 9.8.5 2 1.6 2.7 1.7 3.6.6 1.3-1.5.5-2.4-4.6-5-3.7-1.8-4.6-1.9-9-.3m-23.3 8.3q-1.4 1.6-4.6 1.1c-1.8-.3-3.5-.3-3.7 0-.9.8.4 3.3 1.7 3.3.6 0 2.4.7 4 1.5 2.9 1.5 3.1 1.5 5.3-1.2 1.2-1.5 2.1-3.5 2-4.3-.3-2.1-3.1-2.4-4.7-.4m30.9 1c-1 1.2-2.3 1.4-5.1 1-3-.5-3.8-.3-3.8.9q.2 1.5 1.8 2.1c1.5.5 5.1 2.1 7.4 3.2.4.2 1.4-1.1 2.3-2.8 2.5-4.8.5-8.1-2.6-4.4M127.5 204c-.8 1.3.3 3 2 3 2 0 3-2.1 1.4-3.1-1.8-1.1-2.6-1.1-3.4.1m7.6.4q-1.3 1.4-.1 2.1c1.3.8 4.2-1.4 3.4-2.6q-1.3-2-3.3.5m-9.6 8c-8.5 3.2-6.9 4.3 6.2 4l11.2-.3q.2-.2-1.5-2.2c-1.5-1.7-2.6-2-5.6-1.5-2 .3-4 .2-4.3-.4-.7-1.2-2-1.1-6 .4m3.4 6.7c-1.2.8-1.2 1 .1 1.9 2.2 1.4 4 1.2 4-.4 0-1.8-2.3-2.7-4.1-1.5M396 306.7c-1.9.8-5.8 3.9-8.6 6.8-5.9 6.1-12.5 9.9-16 9.1-1.8-.5-3.2.3-6.6 4a68 68 0 0 0-6.1 7.4c-1.7 2.7-9.7 8-11.9 8-.5 0-2.1-.9-3.5-2s-3.7-2-5.2-2c-5.7 0-7.1 1.1-10.8 8.3a94 94 0 0 1-12.4 20c.2.1-.3 1.8-1.3 3.8-3.3 7.1-8.2 9.1-27.1 10.9-6 .6-11.6 1.7-12.3 2.4s-2.4 5.3-3.7 10.4a177 177 0 0 1-13.2 33.5 45 45 0 0 1-5.5 6.9 8 8 0 0 0-2.8 6.5c0 2.2-1 5.6-2.4 8a35 35 0 0 0-3.1 7.3q-.7 3-3 4c-2.7 1-5.5 4.7-5.5 7.1 0 1.3-1.2 1.9-5 2.4-2.7.4-5.3.4-5.9.1-.5-.3-2.3.5-4 1.9-2.4 2.1-3.1 3.5-3.3 7.3-.3 4.3-.6 4.8-3.8 6.3a32 32 0 0 1-7.6 2.3l-4.1.7-2.4-4.8c-1.3-2.6-3.2-4.9-4.1-5.1a36 36 0 0 0-13.6 6c-.2.5-1.7 1.5-3.3 2.4-2.9 1.5-3 1.4-6.8-2.5-3.4-3.6-4.2-3.9-7.3-3.4-2.9.4-3.8.1-5.2-1.8a9 9 0 0 1-1.6-4.6q-.2-5-10.4-10.2c-4.2-2.1-6.7-2.8-8.7-2.4-2.8.5-3.1.2-6-6.3-3.6-8-8.3-13.4-11.6-13.4-3.6 0-8.4 2.7-11.9 6.8l-3.2 3.6-3.2-2.7a13 13 0 0 0-4-2.7c-1.9 0-10.2-13.5-17.4-28.1-4.2-8.5-7.6-16-7.6-16.6s-2.5-3.8-5.5-7.2a41 41 0 0 1-5.5-7c0-.8-10.2-8.1-11.4-8.1-.4 0-2.8 1.7-5.3 3.7A55 55 0 0 0 32 402.5a37 37 0 0 1-5.7 8.5c-1.8 1.9-4.3 4.8-5.6 6.4-2.1 2.6-2.5 2.7-4.5 1.5-3.2-2-7.1.4-8.9 5.6-.7 2.2-2.7 5.7-4.3 7.7l-3 3.7v134.8l3.1.7q7.3 1.5 10.4-.8c1.6-1 6.6-1.3 23.5-1.1 17.4.2 21.9 0 23.8-1.2 4.1-2.5 1.1-4.3-7.7-4.4l-7.6-.1 6-1c3.3-.5 8.8-.6 12.3-.3l12.7 1.1q10.6 1 9-3.5c-.4-1.3.5-2 4-2.9 3.3-.9 4.8-1.9 6-4.1l1.5-3h16.5c14.8.1 19 .7 17.2 2.6-.3.3-6.8.5-14.4.5-15.2 0-17.3.3-17.3 2.3 0 2.8 4.1 3.8 14 3.2l9.6-.5 1.6 2.8c2.1 3.8-2 3.5 101.3 5.7l23.5.4c10.1-.3 25.8-1.2 26.8-1.6q1-.5 1.2-1.9c0-2.1-5.5-2.7-22.1-2.6-62.1.5-115.5-.3-115.2-1.6.5-1.9 14.6-2.6 36.3-1.6 12.4.5 26.1.6 30.5.1a56 56 0 0 1 11.7 0c2 .5 10.9.5 19.8 0s21.7-.4 28.4 0 14.8.6 18.1.4c4.9-.3 6.5 0 8.5 1.6 2.2 1.8 2.6 2.9 3 10.3.8 13.5.3 16.5-2.9 18.4a20 20 0 0 0-5.6 7.3 39 39 0 0 0-3.6 17.1 83 83 0 0 1-4.5 25.9c-1.7 4.2-1.8 4.3-5.4 3.7-2.9-.4-4.4-.1-6.3 1.5a34 34 0 0 1-7.4 3.6c-2.7.9-6.1 2.8-7.8 4.3-1.6 1.5-4 3.1-5.1 3.4a13 13 0 0 0-4.8 4.7c-2.6 3.8-7.8 7.9-10.2 7.9q-1.2-.2-1.9-2.3c-.6-1.9-.8-1.8-1.4 1.5-1.7 8.3-7.1 9.3-7.1 1.2 0-1.4 1.4-3.6 3.5-5.5 4.7-4.3 4.9-9.7.6-15l-2.9-3.5 2.3-5.8 2.7-6.1c1.3-1.4 21.8.2 21.8 1.6 0 .5-2.4.9-5.4.9q-5.3 0-6.5 1.4c-2.1 2.6.9 3.1 15.9 2.7 15.2-.3 19-1.1 16.9-3.7-.6-.8-2-1.4-3-1.4s-2.1-.5-2.4-1q-.4-1 2.5-1 6.9-.2 7-4.5c0-3.6-3.3-6.5-7.5-6.5-3.6 0-9.2-2.3-11-4.5s-9-2.5-12.4-.4c-3.2 1.9-8.1 2.6-8.1 1 0-.8 4.5-9.7 5.9-11.6.4-.6 1.3-2.4 1.8-4l5.4-14.3 4.2-11.3-2-2c-3-3-7.2-3.6-27.5-4-38.8-.7-57 .5-61.4 4.2-2.1 1.8 1.4 13.4 4.6 15.4 1.5.9 1.2 5.5-.3 5.5-.8 0-3.3-1.3-5.5-3s-5.3-3-6.7-3c-3 0-3.1-.5-.5-6.5 2.5-5.9 2.5-7-.1-9.4-2.7-2.5-5.9-2.9-28.4-4.1-24.8-1.2-53.6.3-60.2 3.1-5.6 2.4-6.4 3.4-5.2 6.6.5 1.4.9 3.4.9 4.5s1.1 3.6 2.5 5.4c3.1 4.1 3.2 5.4.1 5.4-1.9 0-2.5-.6-2.8-2.7a6 6 0 0 0-2.9-4.2c-1.5-.9-4.3-2.9-6.3-4.5q-3.6-2.8-8-3.3c-3.7-.5-4.6-.2-6 1.8l-1.6 2.3-4-3.9-4.1-4h-9c-8.7 0-9.2.1-11.3 2.7Q5.5 581 2.7 581C0 581 0 581 0 588.5v7.5h9.3c8.8 0 13 1 11.4 2.7-.5.4-5.3.9-10.7 1.1l-10 .4v4.4c0 4.1.2 4.3 3.4 4.9 1.8.4 7.7.1 13-.5 8.9-1.1 10-1 12.4.7s5.6 1.9 25.5 2.3l22.8.5 5 9.5 8.6 16c3.2 5.9 3.4 6.6 1.8 7.5-7 4.2-8.7 8.1-5.9 14 .9 2 2.4 3.9 3.3 4.2q4.8 1.4 4.3 3.9c-.7 3.6-2.1 3.7-5.6.6-3.4-3-9.5-5-11.4-3.8-.5.3-5.4.8-10.9 1.2l-10 .6-.5-3.1a10 10 0 0 1 0-3.6c.3-.3 2.6-.5 5.2-.5 6.9 0 9.9-4.2 4-5.5-1.7-.4-3-1.1-3-1.5 0-1.3 7-3 9.6-2.4 3 .8 9.2-1.3 10.3-3.4Q84 642 78 642c-6 0-7.4-2.4-8.5-6.1-.4-1-2.8-2.4-6.2-3.5l-5.6-1.8-2.3 2.7-3.3 4.4c-.9 1.7-1.2 1.7-3.8.2-1.5-.9-5.2-1.9-8.1-2.3-3-.4-6.1-1.1-7-1.5q-9.3-4.5-17.9-4.3c-4.7.2-7-.2-9.5-1.8-1.8-1.1-3.9-2-4.5-2-1 0-1.3 7.5-1.3 33.9 0 33.1.1 34 2 34.6 2.6.8 2.6 3.1 0 4.7q-2 1.3-2 4.6v3.2l4-2c6.2-3.2 19.4-2.3 23.2 1.6 1 1-5.1 4.7-6.7 4-.7-.2-4.3-.1-8.1.4-6.1.8-7.2 1.3-9.6 4.1-2.9 3.4-3.9 8.5-1.5 7.6.7-.3 2.1.1 3.2.9 2.6 1.9 7.5 1.8 7.5-.1 0-.9-1.1-2-2.4-2.5q-5-1.7-1.9-4.1c1.7-1.5 3.9-1.6 39.3-2.4 23.8-.5 28.6-.8 31.4-2 1.7-.7 1.9-.5 1.3 2.3a32 32 0 0 1-3.1 7.1l-2.5 3.9H58.6c-23.7.1-34.8 1.9-41.3 6.8q-5.1 3.8-2.1 8.3c2.4 3.8.4 5.1-7.7 5.1-6.6 0-7.5.2-7.5 1.8s1.2 2 11.3 2.6c6.1.4 11.4 1.1 11.5 1.6a47 47 0 0 0 3.6 5.8c1.8 2.6 5.4 8.5 8.1 13.2s6.5 11 8.6 14.1l3.8 5.6-2.9 2.1a12 12 0 0 0-3.5 5.1c-.7 3.5 1.5 8.5 4.5 10.1q4.2 2.2-.6 12.7c-1.4 3.2-4.4 10.7-6.5 16.8-3.9 11-12.4 29-16.7 35.4a19 19 0 0 0-2.2 4.2c0 .5 18.2.9 40.5.9 31.1 0 40.5-.3 40.5-1.2 0-.7-2.3-4.5-5.1-8.6-7.5-10.9-14.8-28-18.5-43.2-1.5-6.2-1.8-13-.6-13s5.2-9.7 5.2-13c0-1.7-.5-3.9-1.2-4.9-1.5-2.4.7-8.5 6.3-17.1 2.2-3.4 6.2-10.6 8.9-16 2.7-5.3 5.6-10 6.5-10.4a41 41 0 0 1 8-.6h6.3l3 5.2a138 138 0 0 1 6.6 15.3 170 170 0 0 0 7.7 17.3c3.9 7.4 4.7 10.6 2.9 11.7-1.7 1-1.1 4.5 1.6 9.4l2.5 4.7-4.1 10.9c-2.2 5.9-4.9 12.4-6 14.4a89 89 0 0 0-3.9 10.2c-1.2 3.5-3.1 8-4.3 9.9l-6.9 11.2-4.7 7.8h39.9c21.9 0 39.9-.2 39.9-.4s-2.2-3.3-4.8-6.8a122 122 0 0 1-18.6-50c-.6-5-.5-5.7 1.2-6.2 3.3-1.1 5.6-7.7 4.8-14-.7-5.9-.6-6.3 7.8-23.9 2.5-5.4 4.6-10.2 4.6-10.6a58 58 0 0 1 7.3-13.8c1.8-2 3-2.3 9.4-2.3h7.3l5 9.8a856 856 0 0 0 17.6 32.9c1.9 3.2 1.9 3.2-.4 5.6-2.7 2.9-2.8 4.6-.2 9.3l2.1 3.6-3.5 11.1a184 184 0 0 1-20.5 44.3l-7.1 10.9 42.7.3c23.4.1 42.8 0 43.1-.2.2-.3-3-4.3-7.1-8.9a51 51 0 0 1-13.9-23.7c-4.2-12.1-4.5-14-3.6-19 .4-2.4.6-5.8.2-7.5-.4-2.5 0-3.6 3.1-6.5 3.4-3.3 3.6-3.8 3.4-9.5a46 46 0 0 1 3.2-17.5 585 585 0 0 0 15.3-32.3c.4-1.3 1.6-1.7 5.4-1.7 2.6 0 5.5.6 6.4 1.3 3.1 2.5 12.1 19.4 14.5 27.2.4 1.1 2.4 5.3 4.5 9.3 3.9 7.4 4.6 10.2 2.7 10.2-1.5 0-4.1 6.8-3.4 9.1.4 1 1.8 3.3 3.2 5l2.6 3-3.1 11a195 195 0 0 1-15.1 36.9l-5.1 9.5-1.8 3.7c-.2.5 17.7.8 39.7.8H379l-2.2-4.2-6.5-11.3a154 154 0 0 1-14.5-35.8l-2.3-8.8 3.1-2.4c4.3-3.4 4.9-6.5 2.3-12.2l-2.1-4.6 4.3-8.1c2.3-4.5 5.9-11 7.9-14.6 6.4-11.1 8.2-14.3 10.7-19.3 2.1-4.1 2.9-4.8 4.6-4.3 1.2.3 3.2.6 4.4.6 1.6 0 2.4.9 3.4 3.7.6 2.1 1.5 4.2 1.9 4.8 1.6 2.1 8 15.1 8 16.3 0 .7 1.5 4.4 3.4 8.1 5.1 10.3 5.4 12.9 2.1 15.5-2.5 2-2.7 2.7-2.1 6 .5 2.7 1.5 4.2 3.7 5.4 3.2 1.9 3.5 3.1 1.5 7-.7 1.5-3 7.6-5 13.7s-7.3 18.2-11.6 27a309 309 0 0 0-8 16.8c0 .4 17.3.7 38.5.7h38.6l-5.7-10.8c-3.1-5.9-6-11.2-6.5-11.7a123 123 0 0 1-8.9-26.9l-1.7-8.9 3.7-3.7c3.1-3.1 3.9-3.5 5.4-2.5.9.7 3.8 1.6 6.4 2q7.5 1-2 2.9c-2.4.6-2.8 1.1-2.8 4.1a8 8 0 0 0 2 5.5c4 4 9.2 1.1 5.5-3-1.9-2.2-1.5-3.6.8-2.7 1.4.5 2 6 3.2 26.2l.4 6.2c.2 2.1 3.9 1.5 5.4-.8s1.4-9.7-.3-13c-.6-1-1-5.4-1-9.8v-8h12.7c16.9-.1 22.1-1.9 19.3-7.1-1-1.9-8.8-5-12.8-5-1.4 0-3-.7-3.7-1.7-.9-1.2-2.8-1.6-7.4-1.6-3.3 0-6.1-.4-6.1-.9s3.9-.8 8.8-.8c8.8 0 12-.9 10.8-2.9-.5-.7-4.4-1.1-10.6-1.1-5.9 0-10.1-.4-10.5-1.1-1.1-1.7-.2-1.9 8.4-2.1 5-.1 8.6-.6 9.2-1.4 1.7-2.1-1-2.8-10.1-2.9h-8.5l.3-2.6c.3-3.1-2-4.4-4.9-2.9q-1.8 1.1-1.9 4c0 2.5-.5 3-3.4 3.6-1.9.3-4.2 1.4-5.1 2.4-1.6 1.8-1.6 2 .9 4.4a9 9 0 0 0 5.8 2.7q3.3.1-2.6 1c-3.3.5-6.2.7-6.4.4a15 15 0 0 1-.6-4.7c0-5.2 5.9-19.6 11.6-28 2.1-3.2 3.8-6.1 3.8-6.5s2-3.3 4.4-6.4a91 91 0 0 0 6.5-9.6c2.3-4.5 2.9-4.8 16.4-5.9 8.3-.6 8.7-.8 8.7-3.1s-.3-2.4-5.7-2.1c-9.1.4-9.9-.9-6.1-10.9 1.9-5.3 2-6.4 1-14.4-1.6-11.5-1.6-27.6 0-28.5a17 17 0 0 1 6-.5c4.7.2 4.8.1 4.8-2.7 0-4.2-2.8-4.7-20-3.9a59 59 0 0 1-12-.4c-4.4-1-10.8-1.2-18-.5-5.8.5-17.7-1-19.6-2.6q-1.4-.7-6.5 1.2l-5.3 2-3.3-3.2-3.2-3.1-6.8 1c-3.8.6-7.1.8-7.5.6-1.8-1-.6-5.8 2.1-8.9 4.3-4.9 5.3-9.5 3.3-14.9-1.4-4-1.5-4.6 0-6.2.8-1 3.6-5.6 6.2-10.3 2.5-4.7 7.9-13.9 11.9-20.5l7.2-11.9 7-1.3c8.9-1.7 13.1-1.6 16 .3q2.2 1.4 2.9.5t3.4.5c1.5.7 4.1 1.4 5.9 1.4 1.7 0 3.4.4 3.8 1q.6.8 2.1.3 1.4-.5 1.2.3c-.2.5.5 2 1.4 3.3 1.9 2.7 4.4 2 2.8-.8-.8-1.6-.4-1.9 3.5-2.5 2.5-.3 8.3-.3 13 0l8.5.6v-2.6c0-1.4-.4-2.6-.9-2.6-10.2 0-33-2.5-38.6-4.2a48 48 0 0 0-11.2-2.1c-2.4.1-4.5-.3-4.8-.8-.9-1.4-4.1-1.1-5.5.6-1.4 1.6-5.6 2-6.4.6-.3-.5.1-2.8.9-5.1s1.5-5.5 1.5-7c0-2.5-.6-2.9-5.9-4.6-5.9-1.9-6-1.9-5.6-5.4.2-1.9.4-5.7.4-8.3q.1-5 1.4-4.4 1 .5.9 2.2c-.5 2.4 4.6 7.5 7.4 7.5 1.3 0 3.5.5 5.1 1.1 2.7 1.1 9 1.1 39.8.3 21.4-.6 21.5-.6 21.5-2.6 0-3-4.1-3.9-10.1-2.2-8.4 2.2-46.7 1.8-53.3-.5-5.3-1.8-7.9-4.7-3.2-3.5l5.3.9c1.5.1 5.1.8 7.8 1.5 8.5 2 46.1-.2 51.8-3.2.9-.5 1.7-2 1.7-3.3 0-3-.7-3.1-3.4-.6-1.7 1.5-5 2-18.6 3l-17 1.4c-.9.2-13.4-1.3-19-2.4-3-.5-8.1-2.2-11.2-3.7-5.8-2.7-5.8-2.7-5.8-7.2 0-2.5.3-6.2.7-8.4.6-3.6 1-4 7.7-7.2 6.5-3.1 7.8-3.4 16.6-3.4 17.3 0 26.7 2.6 36.5 10 3 2.3 6.7 4.1 9.3 4.5 4 .6 4.2.6 4.2-1.9q.1-2.7-1.9-2.6c-1.1 0-2.7-.7-3.6-1.6s-2.2-1.3-3-1q-1.4.5-.8-1 .4-1.3-1.1-1.4c-2 0-5.8-2.1-6.9-3.8-.4-.6-1.9-1.2-3.2-1.2s-3.4-.4-4.7-.9c-13-4.9-35.2-5.2-42.3-.4a8 8 0 0 1-3.7 1.3c-1.4 0-1.5-.5-.7-3.2 1.1-3.9 2.4-4.8 7.2-4.8 2.6 0 5.2-1 8.7-3.5 6.6-4.6 10.9-5.6 11.7-2.7.4 1.6 2 2.6 6.2 3.7 3.1.9 6.3 2.3 7.1 3 1 .9 4.9 1.2 12.7 1.1 12.4-.1 14.8-1 12.4-4.7-1.2-2-1.1-2.1 2.3-1.7l3.6.4v-4.1q0-4.1-.9-2.6-1 2-2.6-2.7c-2.4-6-15-14.1-19.6-12.7q-5 1.7 3.8 5.5 5.6 2.5 8.5 6.4c3.5 4.9 3.5 6.4.1 6.8-2.2.2-2.8.8-2.6 2.5.3 2.1-.1 2.3-5.1 2.2-3.1-.1-8.2-1.3-12.2-2.8-5.7-2.2-7.1-3.2-7.9-5.6-1.6-4.8-2.4-5.5-6.6-5.5-6.8 0-10-3-6.4-6 .8-.7 2-3 2.5-5.1q2-7.7 10-6.5l8.2 1.2c2.3.4 5.4 1.4 6.8 2.4s5.5 2.6 9.3 3.5c5.7 1.5 7.2 2.4 10.1 6a20 20 0 0 1 3.9 6.6c.2 1.3.5-31.8.6-73.6l.1-76-4.7-2.5a33 33 0 0 1-9.2-8.3 47 47 0 0 0-9.3-8.8 15 15 0 0 1-7-7.8c-1.8-4.5-2.6-5.1-8.9-8.1-4-1.8-9.9-3.6-13.7-4.1a101 101 0 0 1-33.8-9.4c-7.8-3.8-11.8-4.2-17.4-1.8m-.3 12.6c0 4.8-.2 5.3-3.1 6.8-3.3 1.6-12.6 1.5-12.6-.2q.1-.8 1.3-.9c.8 0 4-2.5 7.3-5.5s6.2-5.4 6.5-5.5.6 2.4.6 5.3m17.8-3.3q.5.9-.4 1c-.5 0-1.3-.5-1.6-1q-.5-1 .4-1a2 2 0 0 1 1.6 1m22.5 4.2a67 67 0 0 1 21 5.1c3.8 1.8 4.5 2.6 4.2 4.7-.2 2 .9 3.5 5 7.1 2.9 2.5 6.3 5.1 7.5 5.8 2.3 1.2 5 5.1 3.6 5.1a44 44 0 0 1-7.3-5.8c-6-5.4-6.8-5.8-11-5.7-3.2.1-5.1-.4-6.6-1.7-2.3-2.1-5.4-1.5-5.4 1 0 .8 2.3 3.9 5 6.8s5 5.8 5 6.3c0 2.1-1.9 1.1-4.6-2.4-1.4-1.9-3.4-3.5-4.4-3.5s-3.4-2-5.5-4.5c-2-2.5-5-5.2-6.6-6-1.6-.9-4.6-3.9-6.7-6.8-5.8-7.9-5.8-7.9-2.5-7.1 1.5.3 5.7 1.1 9.3 1.6m-9 12.3q-.2.7-2-1.5c-1.8-2.2-2-3-2-3.5q.2-.7 2 1.5c1.8 2.2 2 2.9 2 3.5m-34 9.4c0 2.2-1.3 3.9-2.6 3.4q-1.4-.4-2.8.6-1.4 1.4-2-.4-.4-1.6 1.2-2.1c.9-.3 2.4-.9 3.2-1.4q3-1.8 3-.1m-37.2 3.8q-.5 1.6-3.8 2.4-7 1.6-.9-2c4.1-2.5 5.1-2.6 4.7-.4m85.7 6.3q.4.9-.9.4-2.7-1.2-.7-1.4 1 0 1.6 1m-47.6 4.9c1 .6 1.1 2.1.6 6.1-.9 6.2-2.1 5.5-2.7-1.8-.5-5.3-.3-5.8 2.1-4.3m66.1 9-.1 3.6-2.9-5.8c-3.7-7.3-3.7-7.8 0-4.2 2.3 2.2 3 3.8 3 6.4m-74.6-6.3c1.2.5 1.6 2 1.6 6.3 0 5.6 0 5.6-1.8 3.3q-1.7-2.5-4.7-2c-2.5.2-3.1 1-4.1 4.3l-1.1 4-1.3-2.8c-1.9-3.9.8-9.7 4.4-9.7 1.5 0 3-.8 3.6-2 1.2-2.2 1.2-2.2 3.4-1.4m91.5 6.5c3 4.4 4.1 7.1 4.1 9.8-.1 3.4-.2 3.3-2.2-2.4a36 36 0 0 0-4.4-8.8c-2.2-2.6-3.1-4.7-2-4.7a47 47 0 0 1 4.5 6.1m-53.5-.8q.6 2.8-.4 2.2c-.5-.3-1-1.8-1-3.2q0-4.7 1.4 1m24.3 2.8c1.6 3.3 2.8 4.5 4.9 4.9s3 1.4 4.4 5.5c1.2 3.7 2.2 5 3.6 5q1.9 0 2.2-2.3c.2-1.2.6-2.2 1-2.2 1.2 0 3.3 4 2.7 5-.3.5.1 3.3 1 6.2 2.3 8 1.8 10.1-1.1 4.6-3-5.9-6.8-8.7-9.5-7-2.5 1.6-2.4 1.7-3.8-2.8-.7-2.3-3.1-6-5.6-8.6-4-4-4.5-5.1-4.5-9.1q.1-8.4 4.7.8m-89.7-.5q5.3 6-.4 3.3c-2.2-1-2.9-.9-4.5.5-1.1 1-1.8 2.3-1.5 3s-.4 2.1-1.6 3.1c-1.1 1-2 2.5-2 3.3q.1 1.8-1.5.2c-2.1-1.8-4.4-.5-6 3.4-1.3 3.1-5.7 7.6-7.5 7.6-1.6 0 6.3-13.7 9.6-16.5 4.1-3.6 4.5-6.5.9-6.5-1.5 0-4.2 1.5-6.6 3.7l-4.1 3.7 1.6-3.9c.9-2.1 1.9-4.1 2.2-4.4.5-.6 14.5-3.8 17-4 .7-.1 2.6 1.5 4.4 3.5m-1.6 11.2c.3 1 .5 4 .4 6.8-.1 4.5-.5 5.3-3.3 7.2q-6.7 5-1.5-2c3.1-4.3 3.9-9.2 2-12.8q-1.2-2.2.4-1.4 1.5.6 2 2.2m19.3 6.9q-.5 1.4-.5-1.2t.5-1.8c.2.7.2 2.1 0 3m-13.1 2.8c-.9 1.4-2.1 2.5-2.7 2.5s0-1.3 1.3-2.9c2.8-3.4 3.7-3.2 1.4.4m-14.6-1.8c0 1.2-5.2 8.3-6.1 8.3q-2.3-.2 1.7-5.6c2.4-3.1 4.4-4.4 4.4-2.7M61.8 397.9c2.7 3.4 3.1 4.5 2.2 5.6-.7.8-.9 2.6-.6 3.9.3 1.4.2 2.8-.4 3.1q-.9.4-1-.3a27 27 0 0 0-3-5.4c-2.2-3.3-2.9-5.3-2.5-7q.7-2.4-1.4-4.2c-1.2-1.1-2.1-2.9-2.1-4 .1-2.3 1-1.4 8.8 8.3m342.9-2.7q-.3 1.8-.4-2.2c-.1-4 .2-3.5.4-2.3a17 17 0 0 1 0 4.5m-11.7-2.8a3 3 0 0 1-.9 2.1c-1.2.7-2.4-1.2-1.6-2.5.9-1.5 2.5-1.2 2.5.4m-64 2.1q-1.2 1.4-1.7 1.1c-.7-.7.7-2.6 1.9-2.6q1 0-.2 1.5m34 1q-.2.5-2.2 1.6-3 1.8-.9-.4c1.3-1.6 3.1-2.3 3.1-1.2m118.9 7.8c-.1 4-.4 9.7-.8 12.7-.7 5.4-.7 5.4-1.4-4.2-.8-9.9-.2-17.2 1.4-16.2.5.3.9 3.8.8 7.7m-24.2-3.1q-.5 1.1-.6-.6t.5-1.3q.5.6.1 1.9m-87.4 2.3q-.6 1.4-1 1.1-.4-.5.2-1.5c.9-1.6 1.5-1.3.8.4m64.7 3.2q.1 3.2-1 1.3c-1.3-2-1.3-4 0-4 .6 0 1 1.2 1 2.7m2.9 5.8q1-.4 1.1 1c0 1.2-.9 1.5-3.7 1.4a22 22 0 0 0-6.5.5q-2.8.8-2.8-.3.2-1 2.5-1.7c2.3-.7 3-1.2 3.6-2 1-1.3 1.4-1.2 3 .2 1 .9 2.3 1.3 2.8.9m-10.9 7.4c0 2.6 3.2 4 7.5 3.4 7.6-1 5.3 2.4-2.7 4.1-4.2.9-3.6 3.6.8 3.6s3.6 1.7-1.2 2.6q-3.6.6-4.6 3c-1.1 2.3-6.8 6.4-8.9 6.4-1.2 0-.3-8.5 1.3-11.7a6 6 0 0 1 3.4-2.7c2.7-.7 4.3-5.1 2.5-6.9-1.5-1.5-1.4-2.7.4-2.7q1.3 0 1.5.9M48.7 434.4c4.6 2.2 5.3 2.9 5.8 6.3 1.3 7.6 2.7 10.3 7.1 13.9a41 41 0 0 1 11 19.7 99 99 0 0 0 4.1 12.7l4.5 12.5a43 43 0 0 0 6.7 13.5c2.3 0 3.9-4.1 3-7.8q-1.6-8 1.7 1c1.8 4.8 2.2 5.3 4.9 5.2 3.1 0 5.4 1.9 5.5 4.7 0 .9.7 2.2 1.5 2.9 1.2 1 1.8 1 3.1-.1s1.5-2.4 1-6.7q-1.4-10 4.9.1c1.7 2.6 3.7 4.7 4.6 4.7s2.2.7 2.9 1.5 1.9 1.5 2.6 1.5c3.9 0 .4-17.8-6.1-30.4a23 23 0 0 1-2.5-6.7c0-2.6 1.9-3.3 3.9-1.5 2.4 2.2 3.3 2 6.6-1.4l2.8-2.9 2.8 2q4.1 3 5.1 10.9.2 2.6 2.5 2.5c2.2 0 8.3 6.7 8.3 9.1q0 1.3.9 1.4c1.1 0 3 7.2 3.3 12.5.3 3.7.5 4 3.1 3.8 1.5-.1 2.7.1 2.7.5s.7 3.9 1.6 7.7c1.5 6.8 3.3 16.9 3.7 21q.1 1.9-1.3 2c-1.4.1-1.4-.8-1.3-2a76 76 0 0 0-3.3-21.2c-1-1.4-1.7-1.6-3.1-.7-1.6 1-1.8 2.4-1.4 12.3l.3 11.1h-3.6q-5.9.2-1.9-2.5c6-4.4-7.5-6.9-23.7-4.4-3.8.6-15.3 1.1-25.7 1.2l-18.8.2.2 2.6c.1 2.2-.4 2.8-2.5 3.2-1.5.3-3.4 0-4.2-.8a16 16 0 0 0-6.5-1.8c-3.7-.3-7.2-1.8-13.5-5.6-11.2-6.9-16-12.8-16-20 0-5.5-.8-7.1-3.6-7.1-3.4 0-5.8 5.9-4.4 10.9 2.1 7.5.5 8.3-3.4 1.7-3.3-5.6-3.2-6.4.3-13.1l3.4-6.7q.5-1.3 4.6 2.7c4 3.8 4.3 3.9 5.6 2.2s.9-2.5-2.5-7c-7.3-9.7-8.8-13.4-9.5-23.7-.5-7.6-.4-9.1.6-7.5.6 1.1 2 2.9 2.9 4 1 1.1 2.7 4.7 3.9 8s3.5 8.4 5.2 11.2c2.7 4.9 2.9 6.1 3 16 .2 12.6 1.6 16.7 4.9 13.8 1.8-1.6 1.9-1.5 3 2.4 1.8 6.8 6.3 4.8 5.3-2.4q-.6-4.3 1-6.6c1.1-1.9 1.3-3.6.7-7.9a77 77 0 0 1-.9-10.5c-.1-3.9-1.3-7.4-6-17-9.3-19-11.6-26.9-10.6-37.5l.7-9.5c0-3.8.8-6.5 2.1-6.5a35 35 0 0 1 6.4 2.4m-14.9 8.3c-.4 3.2-.8 7.8-.7 10.3.3 14.6-.9 15.9-2.2 2.3q-.7-8.7.3-10c.6-.7.7-2.5.4-3.9q-.7-2.7.6-3.5c2.3-1.5 2.5-1 1.6 4.8m396.5 10.8c-2.5 21.6-3 22.7-2.5 5 .5-15.7 1.3-20.1 3.3-17.7.3.4 0 6.1-.8 12.7m34.7-11.6q0 1-1 1.6-.9.4-1-.9.1-1.5 1-1.6 1 0 1 .9m-397.5 10c-.3.2-1.8-.4-3.3-1.6a7 7 0 0 1-3-5.4l-.3-3.4 3.5 4.9c2 2.7 3.4 5.2 3.1 5.5M22 445.2c0 2.7-1.3 5.8-2.1 5.2-1-.6-1.2-4.8-.2-5.7 1-1.1 2.3-.8 2.3.5m101.5 6.8c1.8 3.5 1.9 4 .3 4-2.7 0-4.1-1.8-3.4-4.4.8-3.3 1.2-3.3 3.1.4m-36 2q.4.9-.4 1-1-.1-1.1-1 0-1 .4-1 .6 0 1.1 1m-72.3 10.5c-.3 4.3.2 8.3 1.7 13.8 2.3 8.1 2.2 14.8-.3 18.3-2.9 4-5.2-23-3.2-37.1.7-4.8 1-5.5 1.6-3.5.4 1.4.5 5.2.2 8.5m64.5-6.8q.3 1-1.6.6t-1.5-1.5c.7-1.1 2.6-.6 3.1.9m38.3 1.8c0 1.6-3.5 2.1-4.5.6q-.6-1.2 3.8-2 .7.1.7 1.4m22.6 13q5.3 4 8.1 1.4 1-1.2 1.7 2.5c.4 1.9 1.8 4.9 3.2 6.6q2.8 3.1 1.1 3c-.8 0-2.4-1.6-3.6-3.5-2-3.5-4.4-4.5-5.7-2.4-.4.6-2.4-.8-5-3.8-6-6.7-5.9-8.5.2-3.8m101.1.7q-.5 1.1-.6-.6t.5-1.3q.5.6.1 1.9m-16.5 9.5c-.4 6.6-.2 7.8 1.4 9s1.7 1.5.4 2.3c-.8.5-2 1-2.7 1-1.6 0-2.6-7.1-1.4-10.4.6-1.5 1.1-4.3 1.1-6.2s.3-3.4.8-3.4.6 3.5.4 7.7m-123.6 10.8c1.2 8.4-.2 7.8-3-1-5.1-16.6-5.3-18.4-1.1-10.1a52 52 0 0 1 4.1 11.1M44 484.6c1.7 3.1 3 5.7 2.8 5.9q-.5.3-2.3.7c-2.4.4-4.2-2.9-4.8-9-.6-5.2.2-4.8 4.3 2.4m381.6 2.4q-2.4 7 0-5.5.9-4.6 1.1-1.5c.2 1.4-.3 4.5-1.1 7m-317.3 1c1.8 5.1 3.2 11.8 2.3 10.9s-5.6-13.8-5.6-15.6c0-2.5 1.4-.4 3.3 4.7m62 4.2c1 1.4 1.7 3.4 1.5 4.3q-.4 2.6-7.2-8.5c-1.6-2.5 3.5 1.2 5.7 4.2m254.2 6.8-1 8.8-.9 8.7c-.4 3.3-.8 6.7-1.1 7.5-.2.8-.9 7.1-1.5 14-2.2 26.5-3.6 34-6.2 34q-1 .1-.3-5.8l1-8.7a497 497 0 0 1 8-55.5c1.4-10.1 3.1-12.7 2-3m-373.8 8.6c.4 5.7.2 9.3-.4 9.7-1.2.7-2.1-7.5-2.2-17.8-.1-9.3 1.9-3.2 2.6 8.1m102.7-11q.5 1.3-.4.9-1-.6-1-1.6.2-2 1.4.7m61.1 4.2c1.7.9 1.7 1-.3 1.6a3 3 0 0 0-.9 5.4c1.3 1.1 15.7 2.2 37 2.7 7.5.2 14.1.6 14.6.9s.3 2.8-.4 5.8c-.8 2.8-1.7 8.7-2 13.2-.5 6.4-.3 8.6 1.1 11.2 2.3 4.2 1.3 7-1.8 5.3-1.3-.7-2.9-2-3.5-2.9-.7-1-2.5-2.1-4-2.5-4.1-1-5.3-2.4-5.3-5.9 0-5.4-1.1-6.1-9.2-5.9-4 .1-10.3.5-14 .8-6.3.6-6.7.5-8.3-1.9-.9-1.3-2.1-5.8-2.7-9.8-1.3-9.7-2.7-11.1-12.7-12.7-4.3-.6-9.6-.9-11.7-.5-3.4.5-4.3.2-6.7-2.1a13 13 0 0 1-2.7-3.4c0-1 31.6-.4 33.5.7m-37.7 4.7q-.6.4-1.2-1.2-1-2 .5-.6 1.1 1.2.7 1.8m266.7 4.5q-.2 1.2-2.3 2.8c-2 1.3-2.2 1.3-1.7-.2l1-3.2c.6-1.8 3-1.4 3 .6m-281.1 5.7c.9 2.5 1.4 4.8 1.2 5-.4.5-4.6-8.3-4.6-9.7 0-2.4 1.9.3 3.4 4.7m6.9 1.3q.5 1.8-.3 1.5-.7-.6-1.3-2.5-.4-1.8.3-1.5.7.6 1.3 2.5m12.2 7.3c.8 2.6 1.1 4.7.7 4.7-1.1 0-7.1-11.7-6.4-12.4 1.1-1.2 4.3 3.1 5.7 7.7m27.2-3.1q-.5 1.1-.6-.6t.5-1.3c.3.3.4 1.2.1 1.9m-34.1 8.8c.9 3.8 1.5 4.6 3.8 4.8 1.4.2 3.1 1.2 3.6 2.3s2.7 2.7 4.8 3.8 4.5 2.8 5.5 3.9c1.8 1.9 1.7 2-3.9 2.4q-5.6.5-6.9 2.1-1.2 1.8-5.8 1.7c-5.5 0-6.3-1.1-7.8-10.1a42 42 0 0 0-3.1-10.5q-2-4.6-1.1-5.5 1-1 1.7 1.5c1.1 4.5 5.6 2.6 5.6-2.4.1-2.4.1-2.4 1.2-.5.7 1.1 1.7 4 2.4 6.5m235.9 7.2-1 9c-.4 6-.5 6.8-1.4 6.8-1.4 0-1.1-11.1.5-16.8.8-2.8 1.7-5.2 2-5.2s.3 2.8-.1 6.2M38 540.3c0 1.3-2.9-1.2-4.2-3.7-1-1.9-.8-1.8 1.6.3 1.4 1.4 2.6 2.9 2.6 3.4m327.8-4.4c2.1 1.3 1 4.3-2.3 6.2-5 3-5.5 2.5-3-3.5 1.5-3.6 2.9-4.3 5.3-2.7m-10.4 12.7q3 1 .1 7.7a21 21 0 0 0-1.5 6c0 1.3-1.5 3.7-3.5 5.7-1.9 1.9-3.5 4.2-3.5 5.1 0 1-.9 2.1-2.1 2.4q-4 1.4-1.9-2.4c.6-1.2.8-2.5.5-3s.2-3.6 1.1-6.8 1.9-7.4 2.3-9.4c.4-1.9 1.1-4.1 1.5-4.7.8-1.3 4.4-1.6 7-.6M241 551q1.9 1.1-1.2 1c-1.6 0-2.8-.5-2.8-1 0-1.3 2-1.3 4 0m-178.3 4.7c.5 1.5-3.5 1.9-29.7 3.3-28.3 1.4-31 1.3-31-.4 0-1.1 3.4-1.5 16.8-2.1 9.2-.4 18.7-1 21.1-1.4 7.5-1 22.4-.7 22.8.6m275.9 5c-2.6 9.5-4.2 13.3-5.3 13.3q-1.2.2-1.3 1.7c0 1.7-2.8 5.3-4.1 5.3-2.3 0 3.5-18.5 6.4-20.5s5-1.9 4.3.2m69 .9c-.3.9-.6 2.2-.6 3 0 1.3-1.2 1.4-7.2.8-9-.8-13.2-2.2-7.2-2.3a25 25 0 0 0 7.5-1.6c4.7-2 8.3-2 7.5.1m-81.6 1.2c0 1.2-6.7 14.2-8.7 16.8a13 13 0 0 0-2.3 4.8c0 1-.9 2.9-2 4.3s-2 3.2-2 4c0 1.2-1.8 4.8-6.8 13.9-2.8 5.1-15.2 4.7-15.2-.5 0-2.8 3.7-11.1 5-11.1 2.9 0 12.2-5.6 13.9-8.4 2.5-3.9 1.9-4.7-3.1-4l-4 .7.6-9.9.6-10.4c0-.6 24-.8 24-.2m-315.7 4.7c-.4 1.5-7.6 1.2-8.1-.3-.3-1 .7-1.2 3.9-1 2.4.2 4.3.7 4.2 1.3m386.2 3.1c5.5.9 10.2 1.7 10.3 1.9 1.5 1.5-2 2.2-9 2-4.6-.2-13-.4-18.8-.4l-10.5-.1 4.2-2.4q6.8-4 11.8-2.9zm-30.5 3q-.1.4-2.1.4-1.8 0-1.4-1c.5-.8 3.5-.3 3.5.6m-156.8 2.1c.8.6 3.9.7 8.3.1 14.1-1.6 28.5-.6 28.5 2.1 0 1.7-3.2 2-22.6 1.8s-22.4-.8-22.4-4.3c0-1.5 6.1-1.3 8.2.3m-93.2 2.7c0 2.5-16.9 3.3-17.7.9-.5-1.5 1.9-2 10.5-2.2 5.6-.1 7.2.2 7.2 1.3m301.5 3c2.2.7 3.8 1.6 3.5 2.1-.6 1.1-39.7 1.1-40.8 0-1.2-1.2 2.3-2.6 5.6-2.2 1.8.2 5.9-.2 9-.9 6.1-1.3 16.2-.8 22.7 1m-225.7 2.4c7.9.1 12.1.6 11.7 1.2-.3.5-1.9 1-3.6 1q-2.9 0-2.9 1.5c0 1.8 2.7 2.5 11.2 2.8 9.3.4 10.8 2.2 2.7 3.1-6.9.7-7.8 1.1-6.1 2.8.6.6 4.1 1 8.7.9 9.9-.3 9.1 1.5-1 2.4-4.1.4-7.5 1.1-7.5 1.6 0 1.5 4.1 3.1 6.6 2.5 1.3-.4 4.3-.3 6.6.1 3.8.6 4 .7 1.8 1.4-1.4.4-4.4.7-6.7.8-3.2.1-4.3.5-4.3 1.6 0 2.4 2.4 2.8 10.5 1.8 4.1-.5 7.5-.6 7.5-.2 0 1.2-6.6 3-13.7 3.7q-6.6.8-7.1 2.1c-.4 1.2 1 1.3 8.4.8a60 60 0 0 0 11.7-1.6q2.6-1 2.7-.1 0 1.2-1.4 1a4 4 0 0 0-2.5 1.3 26 26 0 0 1-9.6 2.6c-4.7.7-8.8 1.7-9.1 2.2-1 1.7 2.9 2.2 7.8.9 2.7-.6 5.2-1 5.4-.7 1.2 1.2-4.6 3.7-10.4 4.5-6.5.9-8.2 1.7-6.6 3.1.5.5 4.2.2 8.6-.7 7.3-1.5 10.3-1.3 8.2.7-.5.5-3.8 1.5-7.4 2.2s-6.9 1.6-7.4 2.1q-2.9 2.6 7.3.7c3.9-.7 7.4-.9 7.7-.6 1.7 1.7-4.4 4.6-10.9 5.3q-9.9 1-7 3.5c.6.6 3.5.4 7.7-.6 3.8-.9 7.1-1.3 7.4-1 1.3 1.2-2 2.8-6 2.9-3.5.1-4.3.4-4.2 1.8q.4 3.1-7.7.8c-3.1-.9-3.6-1.4-3.2-3.4.6-3.1-3-12.2-12.8-32.1a201 201 0 0 1-9.9-21.7c-1.1-2.3-2-4.4-2-4.8s1.9-.5 4.3-.5c2.3.1 9.7.3 16.5.3m-68.8 1.4c-1.4.6-7.3 1.2-13.2 1.2-5.9.1-11 .5-11.4.9-3.1 3 13.4 5.4 26.4 3.8 5.1-.6 6-.5 5 .6-.7.7-4.4 1.6-8.1 2-3.7.5-6.7 1.2-6.7 1.8.1 1.8 4.9 2.4 11.3 1.4 7.9-1.1 8.3-1.1 7.2 0A52 52 0 0 1 117 601q-3.1 0-2.7 1.2t6.1 1.4q5.8 0 7.3 1.7c1.9 1.9 1.8 2-6.2 4-6.5 1.6-7.6 4.2-1.4 3.4 2.4-.3 6.2-1 8.4-1.6l4-1-2.3 1.9c-1.2 1-4.8 2.4-8 3-8.3 1.7-9.4 2-8.9 3.3.4 1.4 9.7 1 13.6-.4 2.6-1 4.3-.3 2.3 1-.7.4-4.2 1.4-7.8 2.1-6.7 1.4-9.9 3.5-7.1 4.6.8.3 3.2.1 5.4-.5 4.7-1.3 6.3-1.4 6.3-.2s-5.3 2.3-12.2 2.5c-3.1.1-6 .5-6.4.8-1.6 1.6 1.2 2.8 6.7 2.8q8.6 0 4.7 2.7c-.7.4-4.2 1-7.8 1.3-4.9.4-6.5.9-6.5 2s1.2 1.4 6 1.2a58 58 0 0 0 7.9-.9q1.8-.5 1.4.8c-.3.8-2.9 1.7-6.4 2.2-8.8 1.2-9.1 1.3-6.4 4.2l2.3 2.5-2.6.1-3.8.3c-1.7.2-11.1-16-17.4-29.9a169 169 0 0 0-13.4-26l-4.1-6 21.8-.5c38.6-1 36-1 33.2.2m88.7-.6q-.7.5-1.9.1t.6-.6q1.8 0 1.3.5m144.6 4.9c3.1.4 5.5 1 5.2 1.5s-2.7.6-5.4.3q-4.8-.4-5.5.6-1.8 2.5 12.7 3.4c7.8.4 8.8.3 8.5-1.2q-.4-1.5-3.3-1.9c-5.1-.6-5.3-2.2-.3-2.2 2.7 0 5 .6 5.8 1.4.6.8 1.7 1.3 2.4 1s2.1.6 3 2c1.3 2 2.5 2.6 5.4 2.6 5.4 0 7 1.4 3.4 2.9-1.7.7-4 1.1-5.3.9-3.2-.4-3.5 1.8-.4 3.8 2.2 1.4 4.3 1.6 14.3 1.1a107 107 0 0 0 14-1.3q2-.5 2.2.4c0 2.6-21.3 4.8-29.5 3.1-2.9-.6-3.1 2.7-.3 4.2 1.4.7 6.6 1.3 13 1.3 6 .1 10.8.4 10.8.7q-.1.8-1.4 1.8c-1.4 1.2-5.5 1.6-17.3 2-3.9.1-5.3.5-5.3 1.6 0 3.3 15.4 4.7 23 2 4.7-1.7 5.6-1.5 4.6 1.1q-.6 1.6-2.8 1.1-2.3-.6-4.1 1.1c-1.5 1.3-3.8 1.7-9.6 1.7-7.4 0-7.6.1-7.6 2.5v2.5l9.4-.3c7-.3 9.2 0 8.9.9-.2.6-2 1.3-3.8 1.5-7.3.6-15.6 1.6-16.9 2q-1.7.3 0 2c1 1.2 2.5 1.4 7.6.8 3.8-.4 6.3-.3 6.3.3 0 1.6-4.8 3.3-9.4 3.3q-7-.1-4.5 2.6 1 1.3 6.5.8 8-.7 4 2.5c-1.1.9-4.7 1.1-13.3.6-10.4-.6-12-1-13.6-2.9-3.6-4.2-6.7-9.6-6.7-11.5 0-4-2.9-12.9-7.3-22.7-2.5-5.4-5.1-11.7-5.8-13.9s-1.9-4.9-2.6-6c-1.9-2.9-1.6-3.4 2-3 1.7.3 5.8.7 9 1m-215.7 5.1-.6 2c0 .7-3.6.4-4.4-.3q-.3-.8 1.6-2 4.5-2.6 3.4.3m266.9 3.5c-2.5 1-16.1 1.1-15.1.2s10.3-1.9 14.1-1.4q3.7.3 1 1.2m-90.7 4.2c2.5 6.8 1.1 16.7-2.4 16.7-1.7 0-5.8 2.4-9.1 5.3-4.1 3.6-4.8 1.3-.9-3 2.7-3 3.9-5.5 4.5-9 .7-4.4 4.8-13.3 6.1-13.3.4 0 1.1 1.5 1.8 3.3m103.2 1.1q0 .5-1 1.1-.9.4-1-.4.1-1 1-1.1 1 0 1 .4m-345.4 2.7c1.3 2.2-1.2 2.9-6.7 2-3-.5-4.3-.9-2.9-1s3.2-.6 4-1.1c2-1.3 4.7-1.3 5.6.1m-13.8 1.6c-1 .2-2.6.2-3.5 0q-1.3-.5 1.7-.5c3 0 2.7.2 1.8.5m90.7 3.2c2.9.7 2.9.7.8 1.5-2.8.9-3 3.2-.3 4.8q5.3 3.5-4 2.4c-5.8-.7-6.2-.6-9.1 2.3-1.7 1.7-2.8 3.5-2.4 4q.3 1-1.2 2c-2.8 1.5-.4 3.1 5.2 3.3 2.8.1 13.1-.1 23-.6 13.6-.6 18.3-1.1 19.1-2.2 1.7-2.1 2.1-1.8 3.5 2.3.6 2.1 2 5.4 2.9 7.3 2.9 5.8 3.3 8 1.7 8-1.8 0-6.7 5.6-6.7 7.5 0 .8 1.4 3 3 4.8 3.3 3.8 3.6 5.3 1.7 7.9-1.2 1.5-1.5 1.5-3.7-.3-1.4-1-3.3-1.9-4.3-1.9s-2.8-.6-4-1.2-5.1-1.8-8.7-2.4c-3.6-.7-8.4-1.8-10.7-2.4-5.5-1.6-9.3-.7-9.3 2.3q-.2 5.5-6.5 8.8a51 51 0 0 0-9.2 7.2c-2.9 2.8-5.6 4.7-6 4.3-.9-.8-3.2-9.3-3.3-11.9q0-1.6.9-1.3c1.2.8 5.9-4.9 6.7-8q1.3-5.7-3.7-10.5l-3-2.8 3.9-8.3 8.6-18.1 4.7-9.7 3.7.1c2 .1 5.1.4 6.7.8m263 3c-.8 1.3-4.5 1.5-4.5.2q.2-.9 2.3-1.3c2.7-.5 3.1-.3 2.2 1.1M226 621.5c0 1-2.4 5.5-2.9 5.5-.3 0-.6-1.4-.7-3-.1-2.3.3-3 1.7-3q1.8 0 1.9.5m125.6 8.2 7.7 13.1 3.9 6.3-2.1 2.3c-1.1 1.2-2.1 3-2.1 4 0 2.3 2.4 6.7 4.9 9 2.2 2 2.7 5.1 1.1 7.6-.7 1.2-1.2 1.1-3-.5s-2.6-1.8-6.6-.7c-6.2 1.7-6.2 1.7-5.6-3.7q.4-5-.9-5.7c-1.5-1-20.9-1.3-20.9-.3q-.2.5-1.2.7l-10.7 1c-8.6.8-9.5 1.1-12.3 4.1q-4.6 4.8-11.2 2.2c-1.9-.7-7.4-.1-10.6 1.3q-1.6.6-2.5-1.6-2.7-5.9-14.9 0-11 5.3-5.8-.1c2.7-2.9 2.8-5.1.2-7.7-1.1-1.1-2-2.9-2-3.9q-.1-2 2-1.4 2 .6 2-1.1 0-1.4.8-1.4c1.3.3 6.1-2.1 8.1-4.1 1.6-1.6 2.2-1.7 3.1-.6.6.7 1 2.1.8 3.1-.3 1.8 1.3 2.3 8.8 2.9 2.3.1 4.7.5 5.3.9q1 .5 1.7-.8c.3-.9 1.5-1.6 2.6-1.6s3.9-.9 6.2-1.9c16-7.4 19.4-9.1 21.4-11 1.2-1.2 2.2-2.5 2.2-2.9 0-2-3.3-5-6.9-6.2q-6.9-2.1-1.9-5.4 4.7-3.2 4.8.3c.1 3.5 3.5 5.1 6.4 5.1 1 0 4.1-1.3 6.7-3q7.5-4.6 12.1-2.5 1.8.8 2.4-.9c1.1-2.8 2.2-1.8 6 5.1M19.5 634q.4.9-.4 1-1-.1-1.1-1 0-1 .4-1t1.1 1m44.1 3q1.3.1 1.4 1.1c0 1.5-5.3.6-5.8-1q-.5-1.5 1.2-.8c1 .4 2.4.7 3.2.7m-36.1 4.4c3.4 1.2 4.2 1.2 6.2-.1 2.1-1.4 2.3-1.4 2.3 0 0 2-2.1 6.7-3 6.7q-.8-.2-2.5-2a7 7 0 0 0-5-2c-3.1 0-5.2-2-3.8-3.4.9-.8 1.2-.8 5.8.8m16-.4q.5.9-.4 1-1-.1-1.6-1-.5-1 .4-1a2 2 0 0 1 1.6 1m168.6 10.5c1.1 2.5 1.8 5.3 1.5 6.3-.8 2.4-8.7 6.5-10 5.2-.5-.5-1.8-1-2.9-1-2.4 0-10.7-7-10.7-9.1 0-.9.9-2.4 1.9-3.3q3.7-3.1 3.2 4.1c-.2 2.5.3 3.5 2.3 4.8 2.7 1.8 5.6 1.1 3.7-.8-1.5-1.5-1.4-5 .1-6.5 2.1-2.1 2.7-1.3 3 3.5.3 4 .6 4.8 2.3 4.8 1.8 0 2-.7 2-6.3 0-3.4.4-6.2.8-6.2s1.7 2 2.8 4.5m-115 .6c-2.4 8.3-3.8 9.5-5.5 4.6-.8-2.1-.6-3.1.9-4.7 2.1-2.3 5.2-2.2 4.6.1m27.5 1.4c1.5 2.2 1.5 2.8-.1 6.9-1.5 3.8-2.2 4.5-5.2 5.1-2.8.5-3.4 1-3.1 2.8.3 1.9-.1 2.1-3.3 1.9-4.2-.4-6.1 1.5-3.5 3.4 1.6 1.1 1.6 1.3-.6 1.6q-2.3.3-2.3 2.3c0 1.6.9 2.1 4.5 2.6 7.1 1 10.3-1.8 4.6-4.1q-3-1 .6-.9c3.2-.1 3.4.2 4.2 5.4l.7 4-6.7-.3c-3.9-.2-7.1.1-7.7.7-1.9 1.9 1 3.6 6.1 3.7 6.8.2 7.2.3 7.2 1.4 0 .6-2.8 1-6.4 1s-6.8.5-7.2 1.1q-2 3.4 9 3.1c5.4-.2 7.6.1 8.5 1.2q3 3.8-4.3 2.5c-6.5-1.2-13.1.1-13.1 2.6q-.2 2.2 2.5 1.8l9.4-.5 6.8-.4 1.9 4.4c1.1 2.4 1.9 4.7 1.9 5.2s-5.2.9-11.6.9c-12.1.1-13.4.3-13.4 2.7 0 1.1 2.1 1.3 11.8 1.1a65 65 0 0 0 12.8-1q1.2-.6 1.9 2c.9 3.8 5.3 13.2 7.6 16.4 3.6 5.2 3 5.5-10.3 6.2-19.4 1.1-42.4.8-45.2-.5-3.5-1.5-4.3-4.6-1.8-6.4 1.1-.8 2.8-3.5 3.7-6.1l3-8.3c.8-1.9 2.1-6.2 3.1-9.5s3-8.8 4.6-12.3c1.5-3.4 2.8-6.7 2.8-7.2 0-2.9 7.7-19.9 10.2-22.6 3-3.2 4.8-8 4.8-12.6q.1-2.6.8-2.8c1.4 0 4.2 5.7 4.2 8.5q-.1 2.9 1.8 2.3c1.3-.3 1.7-1.3 1.6-4.3a20 20 0 0 0-.8-5.8c-1.3-2.7 2.1-2.1 4 .8m-16.6-.1c0 .8-.5 3.7-1.2 6.5l-1.1 5-2.9-2.7c-3.2-3.1-3.5-4.8-1.2-8 1.7-2.5 6.4-3.1 6.4-.8m263.5.3c-.4 1-1 3.3-1.4 5.2-.6 3.3-.7 3.4-2.4 1.7-3.2-3.2-1.6-8.6 2.6-8.6q2-.1 1.2 1.7m21.6.3c.7 10.1-.5 12.8-4.2 9.4-2.1-1.9-2.4-4-.9-7.8.9-2.5 4.9-3.8 5.1-1.6M221 657.9q-1 2-2.1 1.6c-1.3-.8-1.1-2.9.3-4.3 1.8-1.8 3.2.2 1.8 2.7m161 1c0 2.2.3 4.6.6 5.5.9 2.3-2.2 2-4.6-.4-2.5-2.5-2.7-7.7-.2-8.3 3.8-1 4.2-.7 4.2 3.2m-225 5.6c.7.8 2.1 1.5 3.1 1.5s2.6 1.2 3.6 2.6 3.4 3.7 5.6 5.1c6.6 4.2 3.5 3.5-5.9-1.3-10.4-5.3-10.7-5.5-9.8-7.7q1.1-3.1 3.4-.2m39.6 1.1c-.8 2-7.3 26.6-9.7 36.4a141 141 0 0 1-10.9 30.2c-1.2 3.2-2.6 6-3.1 6.4-1.4.8-5.9-3.5-5.9-5.6 0-.9 1-2.6 2.3-3.8 2.1-1.9 6.6-11.3 12.7-26.2l5-11.5c1.8-3.9 4.3-11.6 5.8-17.3a31 31 0 0 1 3.5-10.2q.8.1.3 1.6m140.1 4.6c-1.3 10.7-2.6 14.2-7.4 19-6.9 7-13.1 9.6-25.2 10.4-7.4.5-10.5.4-11.5-.6-1.1-.8-4.7-1.1-12.1-.8-5.8.1-10.5 0-10.5-.4s1.3-1.6 2.9-2.7a42 42 0 0 0 10.8-16.1l.9-3.5 10-.6c5.4-.3 10.2-.3 10.6 0s.3 2.3-.1 4.3c-.6 2.7-.5 4.2.5 5.5 1.3 1.7 1.5 1.7 2.9-.1.8-1 1.7-5 2.1-8.9q.7-7.3 1.4-5.1c.7 1.7 0 12.5-1 15.9-1 3.7 2.2 4.9 4 1.4a20 20 0 0 0 1.5-6.2l1-8.9c.7-5.2.6-5.1 13-6.1l5.4-.5q1.4-.5.8 4M4.9 672.6c.1 1.1.7 2.9 1.5 3.9 1.4 1.9 1.5 1.9 3.3.2 1.1-.9 2.5-1.7 3.1-1.7 1.1 0 5.7 5.8 5.1 6.4-.2.2-3.6.7-7.5 1.1-5.2.5-7.4.3-7.9-.5-1-1.6-.9-12.5.1-14.1s2.2 1.2 2.3 4.7m174.9-1.7q.6 1.4-2.2 0c-1.4-.7-2.6-1.6-2.6-2 0-1.2 4.3.6 4.8 2m36.2-.8c0 1.7-.4 2-2.2 1.5-4.7-1.4-9.6-1.8-10.2-.8q-2.3 3.7 6.7 4.9c4.9.6 6.3 1.2 6.5 2.7q.6 2-1.3 1.2c-3.5-1.3-14.3-1.8-15-.6-1.1 1.7 1.5 4 4.4 3.8 1.4 0 4.5.2 6.7.6q4.1.8 4.9-.3c1.1-1.8 2.5-.2 2.5 2.8v2.8l-8.1-.5c-7.5-.4-8.1-.3-7.7 1.4.3 2 .6 2 13 2.3l4.6.1 2.2 7.1c2.3 7.7 1.8 9.9-1.7 8-3.2-1.6-14.9-2.6-15.8-1.2-1.2 2.1 1.6 4.3 4.7 3.7 1.6-.3 5.1-.1 7.9.5 3.6.8 5.3.8 6.3-.1 1.7-1.4 1.8-1.3 5.5 8.9 1.7 4.6 3.5 8.9 4.1 9.7.7.7 1 2.3.8 3.6-.2 1.2.2 2.3.7 2.3 1.6 0 3.4 1.5 4.5 3.6.9 1.6.7 2.1-1.2 2.8q-2.4 1-4.1-.7c-1.5-1.3-5.1-1.7-19.8-2-10.8-.2-20 .1-23 .7-2.9.6-6.7.9-8.6.5-3.2-.6-3.4-.8-2.7-3.8.3-1.7 1.7-5.1 3-7.6 3.4-6.6 6.2-14.7 9.4-27.3a800 800 0 0 1 7.7-29.4c.5-2 1.3-2.3 7.2-2.6l7.4-.5q.6 0 .7 1.9m164 1.8q-.1 1-1.1 1.6c-2.5 1.6.1 3 5.6 3 8 0 8.7 2.3.8 2.7-4.4.2-5.8.7-5.8 1.8s1.4 1.6 5.5 1.8c7.6.4 9 2.2 1.6 2.2-4.9 0-5.7.2-5.4 1.7.2 1.4 1.5 1.9 5.3 2.1q7.6.4 7.5 3.7c0 1-2 1.2-8.5.7-7.3-.4-8.5-.3-8.5 1.1 0 2.3.7 2.5 10 2.9 8.5.3 10 .9 10 3.9 0 1.4-1.5 1.6-10.7 1.5-8.9-.1-10.8.2-10.8 1.4s1.9 1.5 10 1.7a34 34 0 0 0 11.2-.9c1.6-1.3 1.6-1.2 4.7 11.2a76 76 0 0 0 10.1 24.3c2.7 4.6 3 4.8 5.9 4.1a87 87 0 0 1 21.9.1c4.5.5 5.7.3 5.7-.8 0-2.8-3-3.9-11.7-4.4-14.3-.9-13.1-2.2 2-2.3q28 0 35 7.7c1.4 1.7 1.5 2.5.6 5.2-2.4 6.8-15.3 9.7-40.7 8.8-8.6-.3-16.7-.8-17.9-1.2-1.3-.4-2.9-2-3.6-3.5-1.9-3.8-.3-5.9 4.1-5.2 2.5.3 3.2.1 3.2-1.2q-.1-1.5-2-1.6-2.7-.2-5.2-1.6c-2.6-1.3-7.1-1.7-23.2-2a279 279 0 0 0-33.2 1.3c-.1-.1 1-2.9 2.6-6.2s4.3-10.5 6-16a196 196 0 0 1 6.4-18c.9-2.2 3.4-10 5.6-17.3s4.2-13.7 4.5-14.2c.8-1.3 2.5-1.3 2.5-.1m-106.5 3.3q-2.4 10.6-15.4 17.2c-7.7 3.9-19.6 4.3-12.4.5 3.8-2 9.5-9.8 8.7-12.1q-.8-2 1.9-1.8c1.3 0 3.7-1 5.2-2.2 2.7-2.1 8.8-4.7 11.3-4.8q1.5-.1.7 3.2M74 673.5c0 .3-.7 2.2-1.5 4.2A19 19 0 0 0 71 683c0 3.9-8.3 7.7-12.5 5.8-1.4-.6-2.5-1.5-2.5-1.9 0-.5 2.3-2 5-3.4 3.8-1.9 5-3.1 5-4.8q.1-2.2 2.8-3.9c2.7-1.7 5.2-2.3 5.2-1.3M23 675q0 .9-.4 1-.5-.1-1.1-1-.4-1 .4-1 1 0 1.1 1m129.1 1c2.1 1.7 2.2 2.1.9 3-2 1.3-8.7 1.3-9.5-.1s2.4-4.9 4.5-4.9c1 0 2.8.9 4.1 2m201.2 1.7c1.4.8.7 3.3-1.3 4.5-2.3 1.5-2.6 2.8-.6 2.8.7 0 1.9.7 2.6 1.5 1.2 1.4 1.5 1.4 3 0 1.7-1.5 4-2 4-.8s-3.2 11.7-4.5 14.8l-2.9 6.7c-1.5 3.8-4 4.9-6.2 2.9a29 29 0 0 0-8.9-1.5 62 62 0 0 1-18.8-2.6c-.5-.4 1.3-2.5 4-4.6a54 54 0 0 0 14.7-15.9 47 47 0 0 1 3.9-6.8c1.8-2.6 2.3-2.8 6.1-2.2 2.2.4 4.4.9 4.9 1.2M41 679.6q0 1.4-1.2 1.2c-1.8-.6-2.1-2.8-.4-2.8q1.5.1 1.6 1.6m371.6 2.9c3.9 3.9 3.9 4.4 1.1 18-.8 3.8-1.4 8.3-1.3 9.9.1 2.3-.6 3.3-3 4.7l-3.2 1.7-1.7-6.6a200 200 0 0 1-6.1-28.9c.3-.6 2.2-1.4 4.3-1.6l5.1-.5c.7-.1 2.8 1.4 4.8 3.3m52.9 2.5c1.1.4 4.9.8 8.4.9 3.6.1 6.8.4 7.3.7 1.2.7.8 23.2-.5 27.7l-1 3.8-5.6-.7c-6.8-.8-11.3-1.7-21.1-4.3-9.1-2.5-11.4-2.6-14.5-.5q-2.2 1.6-6 .8c-3.5-.6-3.6-.8-3.1-3.8.3-1.7.8-7.2 1.2-12.2.3-5.1.9-9.6 1.3-10.2a39 39 0 0 1 11.1-1.5c5.8-.3 11.6-1 13-1.5 2.4-1 5.1-.7 9.5.8m-41.8 2.2L422 696c-1.1 6.1-3.5 11.8-4.6 10.7-.3-.3-.1-2.2.5-4.4l2.7-10.6c.9-3.7 2.1-6.7 2.7-6.7q.8.2.4 2.2m-391.4.3c2.3.9 2.2 2.2-.3 3-1.1.4-3.4 1.8-5.1 3.2-3.5 3-4.1 2.9-16.9-2.9-4.8-2.1-6.1-3.1-5-3.8 1.6-1 24.6-.6 27.3.5m46.7 5c1.2 3 2.4 3.1 5.8.4 2.7-2.1 2.7-2.1 3-.1.5 3.5-2.5 8.2-5.4 8.2-1.3 0-2.7-.7-3-1.5-.6-1.4-.8-1.3-1.9.2-1.2 1.6-3.3 1.8-23.4 1.6a220 220 0 0 1-23.1-.8c-2.8-1.7 5.7-8.5 10.7-8.5 1.4 0 7.2.7 12.8 1.5l10.3 1.6 4.9-2.5c6.3-3.1 8.1-3.2 9.3-.1m187.8 3.5c.1 2.8-.1 3-3.9 3q-7.2 0-.6-3.8c4.3-2.7 4.4-2.7 4.5.8m-29.5 4.7c-.7.2-1.9.2-2.5 0q-1-.5 1.2-.5c2.2 0 1.9.2 1.3.5m-4.6.9q-.7.5-1.9.1t.6-.6q1.8 0 1.3.5m56.9 1.5q.5 1 12.1.5c10.2-.6 11.4-.4 10.3.9-.7.8-2.1 1.5-3.2 1.5s-2.9.5-4.1 1.1c-1.9 1.1-13.2 3-18.2 3.1-1.1 0-5.8-.6-10.5-1.5s-13.8-1.7-20.2-1.9c-6.5-.2-11.8-.6-11.8-.9 0-.9 12.3-2.9 14.5-2.4 1.1.3 5.8.1 10.5-.4 12.4-1.2 19.8-1.2 20.6 0m-216.5 2.8q8.7.1 9.2 1.3c.3 1-2.9 1.3-14.2 1.3-8 0-17.7.4-21.5.9-7.2.8-15.8-.6-14-2.4.8-.8 22-1.8 29.4-1.4zm101.4 1.3c-1.3 4.4-2.2 4.6-15.5 3.6-12-.8-19.3-1-23.5-.5q-1.8.1-2.3-1.6c-.3-1.6 1.1-1.7 17-1.9l19.5.1c1.2.1 2.4-.3 2.8-.9 1.2-1.9 2.6-1 2 1.2m66 4.7c.6 1-6.3 3.7-7.2 2.8-.5-.5 4.5-3.6 5.9-3.7q.7 0 1.3.9m36.3 2.1c7.2 2 8.9 2.1 12.3 1.1 2.2-.7 6.1-1.1 8.7-1s5.7-.3 6.8-.9c5.4-2.9 44.4-.5 44.4 2.7 0 .3-1.7 3.5-3.7 7.1l-3.8 6.4-11 .2c-18.9.2-34.5 5.6-34.5 11.9 0 1.2-.7 2.5-1.5 2.8-1.9.8-2.6-.5-1.4-2.3q2.6-4.3-2.6-8.9c-2-1.7-4.5-3.3-5.8-3.6-6.5-1.6-14.8-2.3-29.2-2.4-17-.2-17.8-.4-19-5.2-.6-2.2-.2-2.7 3.2-4.1 7-2.8 10.9-3.8 15.4-3.8 2.4 0 5.5-.7 6.9-1.5 2.9-1.6 3.6-1.5 14.8 1.5m-115.6 1c8.6 0 8.8 0 8.8 2.4 0 3-5.3 13.2-8.8 16.8-2.3 2.5-3.3 2.8-9.3 2.8-6.3 0-6.9-.2-8.7-2.8a73 73 0 0 1-9.2-18.4c0-2 .3-2.1 9.2-1.4 5 .3 13.1.6 18 .6m260.4 2.1c1.4 1.6 2.5 1.9 4.9 1.4 1.6-.3 5.3-.9 8-1.2a18 18 0 0 0 6.2-1.5c1.6-1.3 11.6-.2 15.8 1.7a62 62 0 0 0 17 3.8c3 .2 3.9.6 3.6 1.7q-1.5 5.5 1.5 5.8c2 .3 3.6-2.3 5.8-9.1.7-2.2 3-1.8 3.4.6.2.9-1.3 5.2-3.2 9.7s-3.6 8.8-3.6 9.5c0 2.2-5.6 1.9-8.8-.4-1.5-1-5.2-2.4-8.2-3.1s-6.6-1.7-8-2.2c-2.6-1.1-36.4-1.2-40.5-.2-2 .5-2.7 0-4.4-3.4-2.7-5.2-5.1-12.2-4.2-12.2q.8.1 1.7 1c1.3 1.3 5.4-.1 7.3-2.4s3.4-2 5.7.5m-65.5 12.2q-1.4 1.4-.5-.6.6-1.6 1.2-1.2.4.6-.7 1.8m-284.5 3.2c.9 1.4 3.4 4.4 5.5 6.7s3.5 4.6 3.1 5c-.4.3-7.9.8-16.8.9-15 .2-16.4.1-20.8-2-2.6-1.3-4.5-2.5-4.3-2.7s3-.9 6.3-1.4q11.3-2.1 11.4-4.5c0-.7 1.2-1.6 2.8-1.9l10.4-2.5c.4 0 1.5 1 2.4 2.4m281.1 4.2c-2.2 4.3-5.7 7-5.7 4.5 0-1.4 7.1-10.4 7.7-9.8.3.3-.6 2.7-2 5.3m-70.7-3.1c4.9 2 6.8 4.8 4.8 7.1-2.6 3.1-6.1 4-22.3 5.8-9.9 1.1-24.7 1.7-27.2 1l-2.8-.7 3.4-1.4c1.8-.8 4.4-1.4 5.7-1.4 1.4 0 2.7-.7 3-1.5q.6-1.5 1.8-.6c1.7 1.4 11.6.1 11.6-1.5q-.1-1.3-2.4-1.4c-2.7 0-4.3-1.5-2.3-2.2.6-.2 4.6-.4 8.7-.3 5.4.1 8.4.6 10.7 2 2.7 1.6 3.5 1.7 4.5.6 1.7-1.6-1.1-3.8-5.9-4.7-1.8-.3-3.6-1-3.9-1.5-.9-1.5 8.3-1 12.6.7m-31 3.8q-.1.4-1.5 1-1.3.4-1.5-.4.2-1 1.5-1c1.3 0 1.5.2 1.5.4m169 1.6q-3 2-3 0 .2-1 2.3-1 2.6-.1.7 1m-76.3 7.5c4.7.8 9.9.8 22.6-.2 6.9-.6 10.2-.5 10.8.3 3.7 4.5-17.3 6.3-45.9 3.8-8.2-.7-8.3-.7-9.7-4-1.3-3.1-2.4-3.9-4.7-3.5q-.8 0-.8-.8c0-1.5 5.1-2.2 11.5-1.6q6.4.7 7-.5.7-1.1 3.1 2.3c1.7 2.6 3.3 3.7 6.1 4.2m-188.9-5.8c-1 .2-2.8.2-4 0q-1.8-.4 1.7-.4 3.5-.1 2.3.4m13 1.9c1.2.8 2.6 1.2 3.2.9.5-.3 3.3-.3 6.1.1 4.9.7 5.1.8 2.8 2-2.9 1.6-31.4 2-32.4.4-.4-.6 1.7-1 5.4-1 5 0 6.3-.4 7.3-2 1.5-2.4 4.5-2.6 7.6-.4m37 .6c-.5 1.6-4.1 2.2-7.4 1.4-4.2-1.1-2.6-2.6 2.7-2.6q5.2 0 4.7 1.2m-157.4 8.7a18 18 0 0 0 6.3 2.1l4.8.8-4.7.1c-9.9.2-6 4.2 4.8 4.9 7.7.5 8.6 2.2 1.2 2.2-6.5 0-5.5 3.7 1.1 3.8 3.6.1 5.8 1.2 2.3 1.2-1.1 0-2.3.4-2.6.9-1.1 1.8 2.2 3 8.9 3.3l7 .3-3.4 1.9a11 11 0 0 1-7.7 1.2c-4.5-.6-6.5.7-4.5 2.7s1.2 2.8-2.3 2.2c-3.8-.8-5.4.6-3 2.6.9.7 2 2.3 2.5 3.6.7 2 1.5 2.3 6.5 2.3q5.7 0 5.2 1.2t-2.9 1.3c-12.9.6-14 1-11.5 4.6 2 2.9 2 4.7 0 9.4l-1.5 3.8-4-3.9c-2.1-2.1-3.9-4.3-3.9-5s1.4-2.4 3-3.7c4.4-3.7 4-7.3-1.4-14.4-2.4-3.2-6.2-9.2-8.4-13.5a191 191 0 0 0-7.2-12.2c-1.7-2.5-2.9-4.9-2.6-5.4a44 44 0 0 1 18 1.7m83.8-.7c2.2.6 6.7.8 10.8.5 5.3-.4 7-.3 6.7.6-.2.7-1.7 1.3-3.3 1.5-4.1.4-9.6 3.1-9.1 4.5q.6 1.9 11.2 3.5c4.4.6 5 1 5 3.2 0 2.5.1 2.5 7.5 2.2l7.5-.3-2.5 2c-2.5 2-9.5 3.2-18.3 3.1-4.1-.1-4.8.2-4.5 1.7.4 2.2 6.3 3.4 12.8 2.7q4.5-.6 3.5.5c-.5.5-5 1.4-9.9 1.8-5.7.5-9.1 1.3-9.4 2q-.3 1.3 3.5 1.3c2.1 0 4.5.5 5.3 1q1.9 1.1-1.2 1c-1.5 0-3 .5-3.3 1-1 1.6 1.4 4 4 4a9 9 0 0 1 4.6 1.9l2.4 2-2.3.8a18 18 0 0 1-6.8.3c-3.8-.4-4.7-1-6.4-4-4.2-7.6-7-13.9-9.8-21.5a83 83 0 0 0-6-12.9 32 32 0 0 1-3.2-5.7c0-.9 6.1-.2 11.2 1.3m100.8-.6c4.1.3 8.1.7 8.8.9 2 .7 1.4 2.5-1.4 3.5-3.7 1.4-2.4 3.4 2.4 3.8 4.5.3 5.7 1.8 2 2.4q-2.4.2-2.6 3c-.4 3-1.3 3.4-4.1 1.9-1-.6-2.3-.6-3.1-.1-2.1 1.3 1.3 4.7 5.4 5.5 1.7.4 4.2 1.4 5.5 2.2 1.9 1.2 4.3 1.4 11 1 6.2-.4 7.9-.3 6.1.4-1.3.5-6 1.3-10.3 1.6s-8 1-8.3 1.5c-.9 1.4 1.3 3.2 3.9 3.3 3.6 0 3.5 1.7-.3 2.9-1.9.6-3.6 1.9-3.8 2.8-.3 1.5.4 1.8 3.7 1.8 2.3 0 4.1.5 4.1 1.1s1.1 2 2.5 3.1c3.3 2.6 3.2 3.6-.7 4.6-2.8.7-3.5 1.5-4.3 4.9q-1.8 8-3.4 2.9a6 6 0 0 1 .1-5.2c1.1-2.3.9-2.8-1.2-4.5a10 10 0 0 0-4.6-1.9c-1.6 0-3-1.7-5.7-6.8-4.2-7.9-7.9-15.3-10.1-20.2l-5.1-10c-1.9-3.6-3.5-6.9-3.5-7.4s2.1-.6 4.8-.2 8.1.9 12.2 1.2m84.5 2.7q4.9 1.2 5 2.7c0 1.2 1.9 1.7 8.5 2.2 4.7.5 9.4 1.2 10.5 1.7q2.6 1.2 14.8 2 .7.2.1 1.2c-.4.7-3.6 1-8.8.8-7.6-.4-8.1-.3-8.1 1.6q0 2 2 2.2l8.8.8c9.5.9 7.4 2.6-2.9 2.4-9-.2-10 .1-9.1 2.6q.6 1.5 4.9 1.7l6.3.3 5.5.4c5.7.3 1.5 1.8-7.2 2.6-6.8.6-7.8.9-7.8 2.6s.8 1.9 8.3 2.1l9.5.1q1 0 1.2.7c0 .4-3.3 1.1-7.2 1.5-9.5.8-10.8 1.3-10.8 3.4 0 1.6.9 1.8 6.5 1.8 6.9.1 8.1.4 7 2.3q-.7 1-5.6.4-7.7-1-7.9 3.1c0 1.3 4.2 3.5 6.7 3.5 2.8 0 8.3 4.9 8.3 7.4 0 2.7-2.5 6.4-3.7 5.3-.4-.5-1.2-2.9-1.8-5.5-.9-4.1-1.3-4.7-4.5-5.4-1.9-.5-4.3-1.3-5.3-1.9s-3.1-.7-4.7-.4c-2.2.5-3.2 0-5.4-2.5a13 13 0 0 1-2.6-4.2c0-1.5-12.7-29.4-15.7-34.5-2.2-3.8-2.4-6.4-.5-6.3zm-57.1 4.9c-.3.4-1.9.8-3.5.8s-2.8-.4-2.5-.8 1.9-.9 3.5-.9q2.8 0 2.5.9m148.8 2.5c6.4 1.4 7.7 2 7.3 3.4-.8 2.5 1.3 3.5 10.1 4.9 6.9 1.1 8.1 1.6 7.7 3-.7 2.5.4 2.9 8.8 3.2 4.1.1 7.8.4 8.3.7 1.2.6-9.8 2.9-14.2 3-2.6.1-3.3.5-3 1.8.3 1.5 1.7 1.9 7.8 2.3q7.3.5 6.2 1.4c-1.5.9-8.2 1-11.1.1-2.3-.7-4.9 2.1-3.3 3.7.5.5 3.1 1.3 5.7 1.5 5.5.7 5.5 2.6-.1 3.3q-4 .5-3.7 2c.4 2.1-5 4.3-8.4 3.6-1.6-.4-4.5-.7-6.6-.8-3.8-.1-6.7-2.5-6.7-5.5 0-.7-1.3-4-2.9-7.5l-6.2-14.3a83 83 0 0 0-4-9c-1.1-1.1-1.2-2.5-.1-2.5.4 0 4.2.7 8.4 1.7m25.4 3c-1 1-4.9 1.2-6.6.2q-1.5-.8 2.9-.9c2.4 0 4.1.3 3.7.7m-161.2 4.4c-2.7 1.1-3.4 1-3.4 0 0-1.1 3.1-2 4.4-1.3q.7.6-1 1.3m186.6-1.6c0 1.4-8 3.5-12.9 3.4-4.8-.1-5.2-.2-2.6-.9 2.9-.8 11.8-2.6 14.3-2.9q1 0 1.2.4M257 768c0 1.2-4.7 1.2-7.5 0q-2.4-.9 2.8-.9c2.6-.1 4.7.3 4.7.9M74 782a9 9 0 0 1-4 1q-2.9.1-1-1a9 9 0 0 1 4-1q2.9-.1 1 1m183.8.1q-.4 1-1.3 1-1.2 0-1.3-1t1.3-1.1c1.5-.1 1.5.5 1.3 1.1m.2 7.9q0 .9-1 1a1 1 0 0 1-1-1q.1-1 1-1t1 1m-192.5 7.1c1.5 2.8 1.5 3.4-.2 7.5-1.9 4.6-4 5.4-3.5 1.3l.9-7.2c.3-2.6.7-4.7.9-4.7s1.1 1.4 1.9 3.1m9.3 2a7 7 0 0 1-1.2 4.4c-1.4 1.9-1.5 1.7-1.6-2.8 0-3.5.4-4.7 1.3-4.5q1 .6 1.5 2.9m71.2 0c0 .6-.5 2-1.1 3.1-.9 1.6-.7 2.6 1 4.9 2.9 3.9.4 3.9-3.2.1-2.9-3-3.5-6-1.5-8 1.5-1.5 4.8-1.6 4.8-.1m20.8 1.3c.6 3.1-.8 8.6-2.9 10.7-2.2 2.2-8.2 2.5-11.8.5-2.3-1.3-2.3-1.4-.5-2.4 1.6-.9 1.7-1.3.5-3.6-1.1-2.1-1.2-2.8-.1-4.1 2.2-2.7 4-1.8 4 2q0 3.5 1.5 4.1c2.3.9 4.5-1.5 4.5-5.1 0-1.7.3-3.5.7-3.9 1.2-1.2 3.8-.1 4.1 1.8M440 799q-.1.9-1.5 1c-1.4.1-1.5-.5-1.5-1q.1-1 1.5-1c1.4 0 1.5.4 1.5 1m-201.2 3.2c-.3 3.6-3 4.6-3.6 1.5-.5-2.6.5-4.7 2.3-4.7 1.2 0 1.5.8 1.3 3.2m25 1.2c.2 1.6-.1 3.3-.7 3.9q-1.1 1.2-1.1-.9c0-1-.3-3-.7-4.3q-.6-2.6.8-1.9c.8.2 1.5 1.7 1.7 3.2m65.6 1.6a7 7 0 0 0 1 5.5c1.4 2.1 1.4 2.5.2 2.5-1.5 0-6.6-5.9-6.6-7.6s2.3-3.4 4.2-3.4c1.4 0 1.6.6 1.2 3m-73.1 5c-.3 1.7-.9 3-1.4 3-1.1 0-1.2-6.1-.2-8.6.6-1.5.7-1.5 1.4.5.5 1.1.6 3.5.2 5.1m82.7-5.6c0 2.5-1.2 4.6-2.5 4.6-1.8 0-2.4-2.1-1.3-4.3 1-2 3.8-2.3 3.8-.3m82 2.6q-2 4-3.5 3.4c-1.4-.6-1.7-1-1.9-3.5-.1-.6 1.5-1.7 3.4-2.4l3.8-1.4zm12 1.4c0 1.9-2.6 5.6-4 5.6-.4 0-1.5-1.1-2.4-2.4-1.5-2.4-1.4-2.6 1.1-5.7 2.5-2.9 2.7-3 4-1.3.7 1 1.3 2.7 1.3 3.8m9.8-.3c.4 3.3-2 6.4-4.3 5.6q-1.6-.8-1.1-2.3c.3-.9.6-2.9.6-4.4 0-2.6.2-2.8 2.3-2.1q2 1 2.5 3.2m-296.6 12.1c-.7 2.4-1.6 8-2.2 12.5-1.6 12.2-8 29.8-14.3 39-2 3-2.7 3.3-7.3 3.3-2.8 0-5.3-.3-5.6-.6s1-2.9 2.9-5.7c5.1-7.6 9.6-16.8 16.9-34.9 7.9-19.5 8.3-20.3 9.6-19q1.2 1 0 5.4m195-2.1 4.2.3q1.8.2 2.3 1.3t-3.9 1.5c-5.2.4-6.2 3.1-1.3 3.6 5.4.5 7.5 1.2 7.5 2.6q.2 1.5-4.7 1.3c-3.7-.2-4.8.2-4.8 1.3q0 1.5 5.3 2.5c3 .6 5.7 1.7 6.2 2.5s2.2 5.8 4 11 3.5 9.9 4.1 10.4q.8 1 .9 2.3c0 1.1-2.7 1.2-13.9.7q-14-.8-14.5.4c-1.4 2.2 2 2.7 30.1 4.1 1.1.1 5.7 6.8 5.8 8.6 0 .5-2.5 1-5.5 1.1-3 0-14.4.4-25.2.9-14.8.6-19.8.5-19.8-.3a75 75 0 0 1 3.9-9.9c2.1-4.9 4.2-9.9 4.6-11.3s2.6-7.9 5-14.5c2.3-6.6 4.6-14.9 5-18.5.6-5.1.9-6 1.6-4.3q.9 2.2 3.1 2.4m-280.3-1.9c.6.7 2.6 1.3 4.4 1.3q3.3 0 3.5 1.7c.3 1.5-.5 1.8-5.2 1.8-6 0-6.8-.5-5.9-3.8q.7-3.7 3.2-1m424-.3q2.3.7 2.9 1.9c.3 1-1.9 1.2-9.7 1-10.7-.3-13.6-1.9-5.4-2.9 6.6-.8 9.4-.8 12.2 0m6.8 1.7q-.6.5-1.9.1-1.1-.5.6-.6t1.3.5M257 818.9c0 .5-2.7.9-6 .8s-6-.4-6-.9 2.7-.8 6-.8 6 .4 6 .9m176.5.2c1 1.5.4 1.7-3.4 1.2q-3.4-.5-2-1.4c1.9-1.2 4.7-1.1 5.4.2m-273 .9q1.7 2.8-4.4 2.2c-5.6-.5-5.7-3.2-.2-3.2 2.2 0 4.3.4 4.6 1m257 1.7a70 70 0 0 1-5 15.8 55 55 0 0 0-3 8.5c-1.1 5.7-12.8 27-14.1 25.7-.2-.2 2.1-5.3 5.1-11.4s7.5-17.1 10-24.4c4.7-13.5 6.2-16.9 7.1-16.9.2 0 .2 1.2-.1 2.7m-87.7 3.5c-.9 4.2-2.8 7.5-2.8 5s2.4-10.1 3.1-9.6c.4.2.3 2.3-.3 4.6m-259 1.6c1.8 2.4 1.5 4.5-.5 3.7-1-.3-4.8-.9-8.5-1.2-5.5-.5-6.8-.9-6.8-2.3 0-2.6.6-2.8 7.8-2.3q6.6.6 8 2.1m183.6-1.9q.3.8-1.9.8c-1.4 0-2.8-.3-3.1-.8q-.3-.8 2-.9c2.3-.1 2.7.4 3 .9m180 .7c.9.3 1.6 1.2 1.6 1.9 0 1-1.3 1.2-5.5.8-5.1-.5-5.5-.4-5.5 1.5s.7 2.1 5.8 2.4c4.3.2 5.7.7 5.7 1.8q-.2 1.4-1.2 1.4l-8.6-.3-7.4-.1 1.6-5 1.6-5h5.2c2.8 0 5.8.3 6.7.6m-272.8 1.5q.4 1-.2 1.8c-1.2.9-11.8-1.2-10.8-2.2 1.2-1.1 10.2-.8 11 .4m72.4 8.6c-6.9 24.2-12.3 35.3-19 38.8q-6.3 3.3-.5-4.9c3.7-5.2 12.6-22.9 17.1-33.9 1.5-3.7 3.1-6.7 3.5-6.7s-.1 3-1.1 6.7m19-4.6q5 1 5 2.6.1 1.6-2.2.6c-1.3-.4-4.9-.8-8.1-.8-5.9 0-6.5-.3-4.5-2.3 1.5-1.5 3.3-1.5 9.8-.1m-180.2 4.8c-.3 1.3-1.9 1.6-9.3 1.6-7.1 0-9 .3-9 1.4 0 2.2 5.2 3.2 13.2 2.5 6.4-.6 7.2-.4 8.2 1.4.6 1 .7 2.2.4 2.6-1 1-10.7.7-16.3-.5-5.9-1.2-8.3-.2-6 2.6.9 1.1 3.1 1.5 7.9 1.5 3.6 0 9 .3 11.9.7l5.3.6 3 6.6a78 78 0 0 1 3.2 7.5c.1.6-6.5.9-16.4.7-14-.2-16.8 0-17.9 1.3-.7.9-2.1 1.6-3.2 1.6s-1.8.5-1.5 1.2c.3 1 5.6 1.3 21.7 1.4 19 0 21.5.2 22.4 1.8q1.2 1.7-.1 2.4c-1.4.9-47.5.6-51-.3-3.2-.8-2.9-2.6 1.8-13 5.1-11 5.2-11.2 8.4-20.4l2.9-8c.3-.4 5-.2 10.6.3 8.4.7 10 1.2 9.8 2.5m85.6-3.3q4.5.7 4.6 2.1t-2.2.9c-1.3-.3-4.4-.8-7.1-1.1s-4.5-1-4.2-1.6c.7-1.1 2.6-1.1 8.9-.3m167.5 4.3c-.6 1.8-1.4 3-1.7 2.7-.2-.3.1-1.9.8-3.6 1.6-4 2.3-3.3.9.9m-76 .5c3.9.3 6.9.2 7.6-.4q1.4-1.4 2.1 2.7l.8 4.7c.1.5-3.7 1-8.4 1-7.2.1-8.5.4-8.8 1.8-.3 1.6.5 1.8 6.1 1.8 3.5 0 6.7.3 7.1.7.4.5 2.2.8 3.8.8 1.8 0 3.3.6 3.6 1.4.4 1.2-1.5 1.3-11.7.7a39 39 0 0 0-12.1.2c0 2.3 3.4 3.1 14.3 3.4 9.6.2 11.7.6 11.7 1.8s-1.4 1.4-7.7 1.2l-9.3-.4h-5.2c-2.9.2-3.8.6-3.8 2 0 1 .5 2.3 1.1 2.9q1.2 1.1-.9 1.7c-1.6.5-2 1.4-1.9 3.9.2 1.8.5 3.7.9 4.2s7.7 1 19.2 1c10.2 0 18.6.3 18.6.7 0 .5-1.2.8-2.7.9-7.6.3-48.9-.3-49.5-.7-.4-.3.3-2.2 1.6-4.2 5-8 8.6-16.9 14.2-35.1q.4-1.4 1.7-.3a27 27 0 0 0 7.6 1.6m176.8 1.1c9.8.5 12 1.6 14.3 7.1 1.1 2.5 2 5 2 5.5 0 .7-3.8.8-10.4.3-10.1-.6-13.2.1-10.3 2.4 1.6 1.2 19 2.2 20.9 1.1 1.2-.7 2.3 1 5.2 7.7a38 38 0 0 1 3.2 9.3c-.3.5-10.9.9-23.6 1-18.9.1-23.1-.1-23.6-1.2-.3-.8 1-4.3 2.9-7.8s5.2-11 7.3-16.6 4.1-10 4.6-9.7c.4.2 3.8.6 7.5.9m-261.6 4c.7 2.2 2.1 5.7 3.1 7.8 1.1 2.1 1.8 4.3 1.6 4.9-.3.7-4.5 1-11.6.9-9.4-.2-11.2 0-11.2 1.3 0 2.4 1.5 2.7 13.3 2.8 11 0 13.7.7 13.7 3.4 0 1.2-2.6 1.4-14.1 1.3-7.7-.1-14.3.1-14.6.4q-.5.7 0 2.2c.5 1.2 2.7 1.5 11.9 1.5 6.2 0 13-.4 15-.9 3.5-.8 3.8-.7 5.7 2.5 1.1 1.8 1.7 3.5 1.3 3.8-1.5.9-44.2 1.5-44.7.6-.3-.5.8-3.3 2.4-6.2s4.6-9.7 6.7-15.1c4.2-10.8 3.9-10.6 13.4-8.7 2.7.5 4.9.5 5.5-.1 1.7-1.7-1.3-3.2-7.6-3.8-3.6-.3-6.4-1.1-6.7-1.8-.3-1 1.6-1.2 7.6-1l8 .2zm156.3 7.6c-1.8 6.1-9.8 22.4-11.4 23.4-2.5 1.5-1.8-.6 3.2-10.6l7.2-14.7c2.4-5.8 3-4.8 1 1.9M39.5 852q-.7 1.9-1.2 1.7c-.3-.3-.2-1.5.2-2.7q.7-1.9 1.2-1.7c.3.3.2 1.5-.2 2.7m-4.4 8.3q-1.4 1.4-.5-.6.6-1.6 1.2-1.2.4.6-.7 1.8m-3 6.6a17 17 0 0 0-2.1 5.6q-.1 1.3-2.1 1.5c-2.2 0-2.3.1 2.4-7.2 3.6-5.7 4.7-5.6 1.8.1m230.3-3c3 1.1.7 1.8-5.4 1.6-9-.3-10-.5-10-1.5 0-1.2 12.5-1.2 15.4-.1m6.7.6q-.2 1-2.3 1.3-2.7.8-.9-1.2c1.5-1.7 3.3-1.8 3.2-.1m-8.8 6.2c-.7.2-1.9.2-2.5 0q-1-.5 1.2-.5c2.2 0 1.9.2 1.3.5"/><path d="M95 709.4c-2.1 5-2.6 7.7-1.2 6 1.4-1.4 4.3-9.6 3.8-10.2-.3-.3-1.5 1.6-2.6 4.2m10.1-2.5q-1.2 1-.7 2.6c.5 1.3 1.3 1.6 3.7 1.1 1.8-.3 6-.6 9.5-.6 4.8 0 6.4-.3 6.4-1.4q-.1-1.4-1.6-2c-2.4-.9-15.7-.7-17.3.3m-15.5 17.6q-.4 1.3.4 1.5 1-.2 1-1.5c0-1.3-.2-1.5-.4-1.5s-.6.7-1 1.5m-2.9 4.1c-.8.8.1 2.4 1.4 2.4q.8-.2.9-1.5c0-1.5-1.2-2-2.3-.9m5.4 3.3c-2.4 1.5-.5 4.1 3.1 4.2 20.1.7 35.9.6 36.4-.3 1.4-2.3-2.2-2.9-17.2-3.2-8.8-.2-17-.6-18.4-1-1.4-.3-3.1-.2-3.9.3m113-35.7q-2.7.7-1.2 2.2c1.3 1.6 13.6 2.1 14.6.7 1.4-2.4-8.8-4.6-13.4-2.9M187 733.4q.1 1.4.8 2a312 312 0 0 0 43.2.7c3.2-2.2-1.3-2.9-22.2-3.5-18.6-.5-21.8-.4-21.8.8m194-20.9c-1.5 1.8-.7 2.1 7 2.8l6.9.9c2.1.5 2.5-1.9.4-3a34 34 0 0 0-7.4-1.6c-4.4-.4-5.9-.2-6.9.9m-20.4 23.3c-.3.5-.4 1.6-.1 2.4.4 1 5.2 1.4 22 1.6 19 .3 21.6.1 22.1-1.3q.6-1.5.1-2.1c-1-1.1-43.4-1.7-44.1-.6M341.5 835c-.8 1.4 1.1 3 3.7 3 .9 0 2.2.2 3 .5 1.9.7 4.5-1.2 3.3-2.4-1.7-1.7-9.1-2.5-10-1.1m-1 6c-1.1 1.8.5 3 4 3 3.7 0 5.6-1.7 3.4-3.1-1.9-1.2-6.6-1.1-7.4.1m-8 7.9c-.8 1.3 2.1 2.7 7.2 3.5 4.7.7 6.7-.9 3.8-3.1-2.1-1.5-10.1-1.8-11-.4m-5.3 18.9c.4 2.1 5.7 2.8 23.9 3.3 9.6.3 13.3.1 13.6-.8.8-2.3-3.4-3-20.5-3.6-15.8-.5-17.3-.4-17 1.1M51.4 856.3c-.3.9-.4 2-.1 2.4.8 1.3 29 1 29.4-.3.6-1.8-1.6-2.2-15.6-3-11.4-.6-13.1-.5-13.7.9M424.1 844c-2 .9-2.1 1.3-1.1 2.6.7.8 1.9 1.3 2.7 1 .7-.3 3.4-.1 6.1.4 5.3 1 7.6-.1 5.2-2.4-1.9-1.9-9.8-2.8-12.9-1.6m1.6 13.6q-1.7.6-1.5 2c.4 1.9 19.8 2.7 19.8.8q-.2-1.2-1.7-1.9a62 62 0 0 0-16.6-.9m-276.5-9.8q-6.7 2.3 5.3 3.3t8.8-2.2c-1.3-1.3-11-2.1-14.1-1.1m350-314.3q0 2.6.5 1.2c.2-.9.2-2.3 0-3q-.5-.8-.5 1.8m-217.5 29.2c-.4.3-.7 1.4-.7 2.4 0 2.6 3.6 3.4 6.6 1.4 2-1.3 2.3-1.9 1.3-3.1-1.2-1.4-6-1.9-7.2-.7m189 19.3c-2.1.4-4.8 1.2-6 1.7s-4.9 1.6-8.2 2.3q-9.6 1.9-9.5 4.7c0 2.3 2.2 2.5 7.4 1 12.7-4 19-4.8 32.5-4.2l13.2.6-.3-2.3q-.4-2.2-2.3-2.5l-11-1.2c-10-1.2-10.4-1.2-15.8-.1M448 605c2 1.3 3.3 1.3 2.5 0-.3-.6-1.4-1-2.3-1q-2.2-.1-.2 1m15 1.5q0 1.3.4 1.5c.4.2.6-.7 1-1.5q.4-1.3-.4-1.5-1 .2-1 1.5m33.5 3.5q.6.9 1.1 1 .4-.1.4-1-.1-1-1.1-1-.8 0-.4 1m-53.4 2.6q0 1.7.6.6.4-1.2-.1-1.9-.6-.5-.5 1.3m55.5 14.2q-.4.8.5 2.2 1 1.9.9-.8 0-3.5-1.4-1.4M453 640.5q.1 1.3 1 1.5 1-.2 1-1.5c0-1.3-.4-1.5-1-1.5q-.9.2-1 1.5m12.3 1.2q1.5 1.5 2.3 1.1c1-1-.6-2.8-2.4-2.8-1.5 0-1.5.1.1 1.7m-33.1 1.4q.4 1 1.3 1 1.2 0 1.3-1t-1.3-1.1c-1.5-.1-1.5.5-1.3 1.1m28.6-.4q1.3.4 1.9-.1t-1.3-.5q-1.7 0-.6.6m-21.1 1q-.6.6-.7 1.7 0 .9 1.2-.2 1-1 .7-1.7-.6-.4-1.2.2m58.1 1.1q-1.6.4-1.8 1.3 0 1.7 3-.1c1.8-1.1 1.1-1.8-1.2-1.2m-33.1 2.2q.6 1.8 1.9 2c1.7 0 1.8-1.2.2-2.8q-2.9-2.7-2.1.8m33.3 30.9q.1 1 1 1.6 1 .4 1-.9 0-1.5-1-1.6-.9 0-1 .9m-34.7 104.2c-2 2 1.2 5 4.1 4 1.1-.5 3.9-.5 6.1-.1l4 .8-3.7.1q-3.8.1-3.8 1.5c0 1.8 2.2 2.6 7.4 2.6 4.7 0 7.6-2.2 7.6-5.7 0-2.7-1.2-3.1-11.7-3.9-6.6-.4-9.1-.3-10 .7m7.1 46.4c-.4.9 0 2.3.8 3.1 2 2 5 .7 4.6-2-.4-2.6-4.5-3.5-5.4-1.1"/></svg>