<svg xmlns="http://www.w3.org/2000/svg" width="666.7" height="1170.7" viewBox="0 0 500 878"><path d="M260.7 21.6c-.3.3-11.5.7-24.9.7-23.6.2-24.3.3-24.3 2.2 0 1.6.8 2.1 4.5 2.5l4.5.5v18l-3.8.3c-3 .3-3.7.7-3.5 2 .3 1.5 2.9 1.7 26.3 1.9 26.8.3 31-.2 27.1-3.2A8 8 0 0 0 263 45c-.9 0-3.1-1.8-5-4.1l-3.2-4.1 2.9-4.1c1.6-2.3 4.6-5 6.6-6s3.7-2.1 3.7-2.7c0-1.9-5.8-3.9-7.3-2.4m-16.9 10.1 3.1 4.7-2.1 3.6c-1.2 1.9-2.7 4-3.4 4.6-2 1.6-11.6 1-12.7-.8-.6-.8-.7-4.7-.2-9.1l.7-7.7h11.6zm-23.6 92.4c-7.1 1.2-13 4.4-14.3 7.7-.8 2-.7 4 .4 7.7 2.1 7 8.7 23.5 13 32.8 4.1 8.8 4.2 9.4 2.2 12.1-2.1 2.8-1.8 7.9.6 11.1 2 2.4 2.1 3.5 1.6 11.3a77 77 0 0 1-2.7 15.5l-2.1 6.8-5.7-.6c-3.1-.3-8.6-.2-12.2.3-5 .8-6.8.7-7.9-.3-1.3-1.3-2.7-6.1-5.9-20.2-1.6-7.2-1.6-7.3.6-9.6 2.8-2.9 2.8-7 .1-10.7l-2.2-2.9 3.8-10.8c2.1-5.9 5.1-13.5 6.7-16.8 1.5-3.3 2.8-7.4 2.8-9.2s.5-4.3 1.1-5.7c1.4-2.9-.4-6.4-4.6-9.2a77 77 0 0 0-27.5-3.8c-17.3.7-24 2.4-28.5 7.4-1.9 2.1-1.9 2.3-.2 6.9l1.7 5.3c0 .3-1.5.3-3.2.1l-3.3-.4 2.4 2.1c1.4 1.2 3.1 1.8 4.1 1.5 1.5-.5 2.3.8 4.5 6.7 4 10.6 9.7 23.1 11.2 24.4 1.7 1.5 1.7 3.1-.1 3.7-2.4.9-4.1 7.9-2.6 10.7.9 1.8 1.8 2.1 4.1 1.6 2.6-.5 2.8-.3 2.1 1.2-.5.9-.8 6.4-.5 12.2.2 5.8-.1 12.8-.7 15.6l-1.1 5.1-7.7 1c-4.2.7-10.3 1.7-13.5 2.4-6.8 1.6-7 1.4-8.8-6.9-1-4-1-5.7 0-7.5 2.8-5.3 1-20.7-2.5-20.7-1.8 0-1.8-1.7 0-2.7 1.5-.8 10.6-21.1 10.6-23.6a32 32 0 0 1 3-7.2c1.7-3.1 3-6.5 3-7.5 0-2.7-1.8-3.5-3.8-1.7-2.3 2-9.2 4-12.2 3.5-2.1-.4-1.7-.7 2.2-1.7 5.2-1.5 9.2-5 8.2-7.4-.5-1.4-4-2.5-13.4-4.1-1.4-.3.5-.4 4.2-.2q11.3.4 1.4-2.4a113 113 0 0 0-23.3-.8c-20.4.4-23.5 1.2-27 6.4-1.5 2.3-1.5 2.8-.1 5.2 1.7 3 2.2 11.2.7 11.2-.5 0-2.4-.6-4.2-1.4a89 89 0 0 0-27.1-2.8 46 46 0 0 0-24.3 6c-2.4 1.8-4.5 9.7-3.6 13.3.5 1.7 0 1.9-4.5 1.9-2.8 0-7.3.5-10.1 1.2L0 188.3v10.2l5-.3c4.1-.3 5-.7 5-2.2q0-1.8-1-2.5c-1.8-1.1-1-2.6 1.2-2.3q2.4.2 2 2.5c-.4 2.6 1.9 3.9 8.8 4.8q8 1 6.7 3.8c-.8 2.1-9.9 3.1-19.9 2.4l-7.8-.6v3.4c0 3.5 0 3.5 4.5 3.5 3.9 0 4.5.3 4.5 2 0 1.1.7 2.3 1.5 2.7 1.4.5 1.4.8-.1 2.4-2.1 2.3-3.6 2.4-7.4.4l-3-1.6v3.8c0 3.7.1 3.8 3.6 4 4.5.2 7.7 2.8 6.4 5.2-1.1 2.1-.3 3.3 3.8 5.6 1.7 1.1 3.2 2.4 3.2 3.1 0 .6.9 1.9 2 2.9 1.9 1.7 2.7 4.5 1.4 4.5q-.7-.1-1.9-1.7c-2-2.7-3.5-.5-3.5 5.1 0 4-.5 5.7-2 7.1-1.8 1.6-2 1.6-2.6.1-.3-.9-.3-3.6.1-6.1.5-3.7.3-4.6-1.1-5.2q-3.4-1.1-4.8 6.8c-.4 2.2-1.1 3.7-1.6 3.4-1.5-1-1.2-7.1.6-10.9 1.6-3.3 1.6-3.8-.8-11.3l-2.6-7.8-.1 18.3c0 14.1.3 19 1.4 21.1 1.1 2.3 1.2 4.4.4 11.2C.4 287.6-.3 311.9.8 310c.5-.8 1.5-5.8 2.1-11 1.3-10.1 1.5-10.6 4.6-11.2 2.8-.5 2.8-5.3 0-5.3q-1.8-.2-2.3-1.7-.4-1.7 2.5-2c3.6-.4 3.9-3.9.5-4.8-3-.7-3-2.3 0-3s3-4.2.1-5.5c-3.1-1.3-2.9-2.5.5-2.5 4.4 0 5.2 1.6 5.2 10.6 0 11 4.6 29.2 10.1 40.1s5.2 11.9-3.1 11.5c-3.6-.1-9.8-.8-13.7-1.6-6.9-1.3-7.3-1.3-7.3.4 0 2 .5 2.1 19.4 5.5l8.9 1.6 2.6-2.5a31 31 0 0 1 13.8-6.6c3.3 0 5.6-5.6 3.7-8.7a9 9 0 0 1-1.4-2.9c0-1.1 15.9.5 19.4 1.9 4.2 1.7 5.9 1.2 19.1-5.6 4.4-2.3 8.1-4.9 8.3-5.8s-1.5-3.9-3.8-6.8c-3.2-4.1-3.7-5.1-2.2-5.1 2 0 4.8 1.8 10.6 6.7 4.3 3.6 6.7 4.1 8.5 1.9 1-1.2 8.4-3.2 10.5-2.7.4.1 2-.6 3.5-1.6 1.4-1 4.4-1.9 6.6-2l12.3-1c8.2-.8 8.3-.8 10.4-4.5l2.1-3.7-5.1-5.2a31 31 0 0 1-7.2-10.8l-5.1-13.2c-3.5-9.1-3.6-9.9-.5-9.9 1.4 0 6.2-.9 10.8-2 11.4-2.7 11.2-2.8 10.4 2.2-1.1 6.9-4.5 16-6.7 18.1-1.5 1.4-1.9 2.9-1.7 6l.3 4.1 7.1 1.2c4 .7 10.1 2 13.5 2.9 3.5 1 9.3 2.2 12.8 2.7 6 .9 6.5.8 9-1.6 1.4-1.3 6.3-4.3 10.9-6.6 4.5-2.2 8.2-4.5 8.2-5s-.8-1.4-1.7-1.9c-1.5-.9-1.6-1.2-.4-2q1.4-.9 3 .9c1.8 2.2 12.4 4.4 30.6 6.6 11.6 1.3 12.1 1.3 14.5-.6l7.2-5.3c4.8-3.2 5.8-5.3 3.6-7.5q-1-1.2-3.2 0-2.7 1.6-.7-.5c.7-1 2.6-1.7 4.2-1.7q5.2 0 1-5.8c-3-4.3-6.3-11.3-5.6-12 .8-.9 22.8-.2 23.8.7 1.4 1.4-6.2 17.7-11 23.5q-4 4.7.3 5.4c1 .2 3.3.9 4.9 1.6s5.9 1.7 9.5 2 10.4 1.6 15.2 2.7c4.8 1 10.2 1.9 11.9 1.9s7.1-2 12-4.5c10.1-5.1 11.1-4.5 5.7 3.2l-3.1 4.6 2.1 1.8c1.2.9 2.2 2.4 2.2 3.2 0 2 1.5 2.5 11.8 3.7 4.8.6 12.5 1.7 17.1 2.6 9.1 1.6 17.2 1.2 19.1-1.1.6-.8 3.8-3.3 7.1-5.7 6.8-4.9 6.7-4.4 2.2-15.3a66 66 0 0 1-6.2-18c.3-.3 4.6.9 9.5 2.6a57 57 0 0 0 13.7 3.8c1.3.2.8 3.9-1.2 8.3l-3.8 8.8c-1 2.4-4.2 7.9-7 12.2a45 45 0 0 0-5.3 9c.1.7 3.5 5.1 7.8 9.7l7.7 8.3 18.8-1.2c10.3-.7 19-1 19.3-.7s-1.3 4.5-3.5 9.3a43 43 0 0 0-4.1 11.8c0 1.7-.5 3.8-1 4.6q-1 1.8-1-1.7c0-2.9-.4-3.3-3.9-4.3-2.2-.6-6.5-3.1-9.5-5.6-5.5-4.4-5.6-4.4-8.5-2.9-3.7 1.8-9.3 2-9 .2.4-3.3-.2-3.8-3.8-3.5-2.9.2-3.9.8-4.1 2.3-.2 1.1-.8 3-1.4 4.2s-.8 2.6-.5 3-.1 1.5-1 2.5c-1.3 1.5-1.5 2.3-.6 3.6s2.6 1.7 7.9 1.8c3.7.1 7 .6 7.1 1.1.5 1.5-2.5 3.7-6.6 4.8-2.9.9-3.6 1.6-3.6 3.5 0 2.3.4 2.5 3.8 2.3 3.1-.2 3.7.1 3.7 1.7s-.8 1.9-4.7 2.2c-4.2.3-4.8.6-5.1 2.6-.3 1.8.2 2.5 2 3 2 .6 1.9.7-1.2 1.2s-3.6.9-3.8 3.4l-.4 2.9 6.6-.5q9.4-.7 5.4 1.8c-.6.4-3 .8-5.2.8q-4.2.1-4.3 1.6c-.7 3.7 3 5.3 9 3.7 2.1-.6 2.7-.4 2.7.8 0 1.5-1.8 1.9-7.3 1.5-1.7-.1-3.4.5-4.1 1.6-1.3 1.7-1.4 1.7-2.4-.2a85 85 0 0 1-3.8-19.2c-.5-4.5-1.2-6.5-2.4-7.2-1.1-.6-2-2.7-2.4-5.4-.8-5-3.2-10.6-4.7-10.6s-1 3.4 1.1 8.2c1 2.4 2.2 6.4 2.5 8.8 3.1 22.6 3.6 24.1 11.1 36.2 2.8 4.6 3 4.7 7.9 4.8 4.5 0 4.8.1 3.4 1.6-.9.8-4.1 1.8-7.3 2.1-6.1.6-7 1.2-5.9 3.8.5 1.5 1.6 1.7 7 1.2 6.3-.5 8.7.7 3.6 1.9-1.6.3-3.4.7-4.1 1-.7.2-2.2 0-3.5-.5q-4.5-1.6-4.7 1.9c0 3.2 2.6 4.3 9.5 3.8 3.6-.2 6.5-.1 6.5.4s-3.7.8-8.2 1c-8.2.3-8.3.3-8.6 3l-.3 2.8h8q12.8.1 5.4 3.1-2.7 1-7.1-.1c-4.8-1.2-6.2-.7-6.2 1.9 0 3.3 2.6 4.4 9.5 3.9 4.7-.3 6.5-.1 6.5.8 0 1.3-6.2 2.4-11.5 2.1-3.5-.2-4.5 2.2-1.9 4.8 1.4 1.4 2.8 1.5 7.6 1 6.1-.7 7.7.3 3.4 2.3q-2.4 1-6.2.2c-4.4-1-5.4-.6-5.4 2.1 0 2.6 4.3 4.2 9.8 3.6 3.1-.3 4.2-.1 4.2.9 0 2.5-3.6 3.5-8.4 2.4-2.5-.5-5.2-.7-6-.4-2.5 1-1.9 4.3 1 5.7l2.7 1.2-2.4.5q-2.5.5-2.4 3c0 2.4.3 2.5 6 2.6 7.9.1 8.3.2 6.3 1.7q-1.6 1.3-7.6.7c-7.2-.7-8.2-.4-8.2 2 0 2.7 1.7 3.4 9.5 4 5.2.4 7 .9 7 2s-1.6 1.4-8.2 1.2c-8.1-.2-8.3-.1-8.3 2.2 0 3 1.6 3.6 9.6 3.6q6.7 0 5.8 1.1-.6 1.1-7.4.5c-7.3-.8-8.8 0-7 3.3.8 1.7 2.3 2.1 8.3 2.3 6.4.3 7.2.5 7.2 2.3s-.5 2-5 1.6c-9.9-.8-10-.8-10 1.9 0 2.3.5 2.5 7 3.5 5.1.7 7 1.4 7 2.5s-1.5 1.6-6.5 1.8c-9.6.3-11.2.9-10.8 3.5.3 2.1.8 2.2 8.3 2.2h8l.3 2.8q.6 6.3-5.4 5.3c-1.7-.4-4.4-.2-5.9.4-2.1.8-2.6 1.5-2.2 3.2.4 1.2.1 2.8-.4 3.4s-.8 2.2-.4 3.4c.6 1.7 1.5 2 7.1 2 5.2 0 6.4.3 6.4 1.6s-1 1.5-5.7 1.2c-5.7-.3-5.8-.2-6.1 2.4-.3 2.7-.2 2.8 4.5 2.8s4.8 0 5 3.5c.1 3.1-.1 3.5-2.3 3.5-2.8 0-4.4 2.8-2.3 4.1.8.5 2.3.8 3.4.6q2-.2 2 1.8c0 1.8-.6 2-6.1 1.7-4.7-.3-6.3 0-6.7 1.2-.9 2.3 1.4 3.5 7.8 3.8 4.5.2 6 .7 6 1.8s-1.6 1.6-7.5 1.8c-8.2.3-10.1 1.2-8 3.8 1.2 1.3 2.5 1.5 7.6.9q6.2-.6 6.9.5c1.2 1.9-.1 2.3-7.5 2.4q-11.2.3-7.7 4.4c.9 1.1 2.8 1.3 8.5.8l7.3-.7-.3 2.8c-.3 2.7-.5 2.8-6.3 3.1-7.5.3-8.5.7-8.5 3.1 0 2.6 1.4 2.9 7.8 1.8 5.9-1 7.5-.2 7 3.8-.3 1.8-.9 2-6.6 1.7q-10.6-.6-8.2 3.7c.7 1.4 1.9 1.7 6.7 1.3 4.5-.3 6.2 0 7.2 1.2q2.7 3.3-6.9 2.3-8.7-.9-5.6 3.8c1 1.4 2.2 1.7 5.6 1.2 4.6-.6 8.5.7 7.4 2.4-.4.6-3.2.9-6.8.7-5.9-.3-6.1-.2-6.1 2.2s.3 2.5 6 2.5c4.9 0 6 .4 6.3 1.8.3 1.5-.5 1.7-6.2 1.7-6.8 0-8.1.7-7.1 4 .6 1.9 1.2 2 6.5 1.4q5.9-.7 6.5.6c1 1.7.6 1.9-6.2 2.1-7.4.3-8.7.9-7.9 3.7.7 1.9 1.2 2.1 7.1 1.5 5.5-.5 6.6-.3 7.1 1.1.9 2.3.7 2.4-6.6 3.3-5.6.7-6.5 1.1-6.5 2.8 0 1.8.6 2 6.8 1.7s6.7-.2 6.7 1.7-.6 2.1-5.7 2.1c-6.6 0-8.7.9-8.1 3.6.4 2 1.9 2.2 7.8 1.1 4-.8 7.1.6 5.4 2.3-1 1-8.6 1.6-11.3.9-2.1-.6-2.5 2.6-.6 4.5 1.2 1.1 2.8 1.4 6.3 1l4.7-.5-2.9 1.6c-1.6 1-4 1.5-5.4 1.2q-5.3-1-5.2 2.8c0 2.1-2.7 5.5-4.4 5.5-.5 0-.5-3.1-.1-6.9q1.7-17-4.1-24.9a94 94 0 0 1-11.4-21.3c-1.5-5.4-3.9-7.1-9.6-6.7-4.1.3-4.9.6-4.9 2.3 0 1.5 1 2.2 4 3 5.1 1.3 6.5 2.2 5.9 4-.3.7-.1 2.3.5 3.4 1 1.8.8 2-2.6 2.3-3.3.3-3.8.6-3.8 2.8 0 2.4.3 2.5 5.5 2.5h5.5l1.8 5.5c1 3 2.3 5.9 2.8 6.5q2.2 2.4-1 2.5c-1.1 0-2.3-.9-2.6-2-.6-1.8-1.4-2.1-5.8-1.8-5.9.3-5.5-.7-4.4 11.8q.6 6.4-.3 3.5c-1.1-4.2-4.8-25.8-5.5-32.5a63 63 0 0 0-7.9-23.8 48 48 0 0 0-13.9-12.7c-1.7-.8-6.4-4.6-10.4-8.4a37 37 0 0 0-9.5-7.3c-1.8-.2-2.3-.9-2.3-3.3 0-2.6.5-3.2 4.1-4.4 4-1.4 4.3-1.4 7.4 1.2q5.8 5 13.7.7c2.1-1.1 4.5-2 5.4-2q6.3 0 14.8-10.2c3.4-4 6.4-8.4 6.7-9.8s2-5.4 3.7-8.9a24 24 0 0 0 3.1-14c0-11.3-.9-14.2-5.7-19.3a55 55 0 0 1-7.1-10.4c-1.6-3.3-4.6-8.8-6.8-12.3-2.9-4.9-3.6-6.6-2.6-7.2.7-.5 1.3-1.9 1.3-3.1 0-1.9.5-2.3 3-2.3 2.4 0 3-.5 3.5-3 .4-1.7 1.2-4 1.8-5.2s.8-2.4.3-2.7c-.9-.6-1.9-15.1-2.7-38.6-.3-8-.8-19.9-1.3-26.5a494 494 0 0 1-.2-35.5l.5-29.2c0-5.6 0-5.6 3.4-6.3 1.9-.3 3.6-.4 3.9-.1 1.1 1 4.3-1.5 4.3-3.4 0-2.6-3.5-4.3-7.2-3.6-2.4.5-3 .2-3.8-1.9-1.2-3.2-3-3.2-6.4 0q-2.7 2.6-4.7 2-2-.8-1.9 1.4c0 1.1-1 3.2-2.3 4.8s-3 4-4 5.5c-.9 1.4-4.3 4.5-7.7 6.9-3.3 2.3-6 4.9-6 5.7q.2 1.6-2.7.8c-6-1.5-24.6-1.8-31.6-.7-6.2 1.1-7.8 1-11.7-.4-2.4-.8-5.4-2.5-6.7-3.7-2.4-2.2-4.9-1.9-6 .8q-.7 1.7 3.1 4.9l3.7 3.1-3.9 2.5c-3.3 2.2-5.6 2.7-14.8 3.4-6 .5-14 .9-17.9 1s-8.5.5-10.4.9l-3.3.8.6-13.3c.3-7.4.8-17.4 1.2-22.2.5-7.5.4-9.1-1.1-10.7-.9-1-2.3-1.6-3.1-1.3q-1.3.4-1.4-.6c0-2.7-4-3.2-13.7-1.6-5.4.9-11.6 1.8-13.8 2s-6.7.9-10 1.4l-14.8 2.5c-9 1.5-14.2 3.8-13.4 5.9q.9 2.6 22.2-1.8c4.4-.8 11.6-2 16-2.5l12.3-1.5c3.7-.7 4.2-.5 4.2 1.2 0 3.1-3.7 9.9-6.7 12.3a98 98 0 0 0-9.2 9.8l-8.8 10c-2.3 2.2-2.2 5.2.3 5.2a42 42 0 0 0 8.5-8.3c3.9-4.5 9.8-10.7 12.9-13.7 4.7-4.5 6.1-6.5 7.4-11.3 1.7-5.8 4.1-8.2 5.7-5.6 1.3 2 1.1 2.3-1.3 3.4-2 .9-2.3 1.9-2.5 7-.5 9.9-1.1 12.5-3.4 12.5-2.1 0-3 1.6-5.4 10.2-.8 3.1-2 6-2.5 6.3s-1 1.3-1 2.1-1.4 3.5-3.1 6q-4.5 6.5-.4 6.4c2.1 0 5.7-6.2 9.5-16.3 3.6-9.6 5.7-12.4 4.6-6.1l-1.2 5.7c-.7 2.4 2.5 3.5 4.1 1.4 1.8-2.5 2.3-2.1 2.7 2.3.3 3.8.2 4-3.2 5.1a31 31 0 0 0-16.5 11.3c-5.2 8.9-2.3 23.3 5.8 28.5 3.5 2.3 3.7 2.7 3.7 7.7 0 4.8-.3 5.6-3.1 7.6-6.1 4.6-8.5 11.1-5.4 15.5 1.4 2 1.2 2.1-5.6 4.3a32 32 0 0 0-17 12c-.9 1.5-6.3 7.2-11.9 12.6a65 65 0 0 0-13.2 15.9 64 64 0 0 1-4.8 8.2c-1.7 2.1-1.7 2.1-3.4.2-.9-1.1-1.4-2.4-1.1-2.9s.2-1.6-.1-2.5c-.5-1.3-1.7-1.6-5.3-1.3-4.1.3-4.6.1-4.9-1.9-.3-2.2-.1-2.2 4.2-1.7 3.7.5 4.7.4 5.2-1 .8-2.1-1.4-4.8-3.5-4.2l-3.9 1.1c-2 .6-2.3.4-2-1.6s.9-2.2 5.3-2.3c4.6-.1 5-.3 5-2.6s-.5-2.5-4.9-3c-4-.4-5-.9-5.8-2.9s-.6-2.2.9-1.6c1 .5 2.9.8 4.3.9 2.3.1 2.5-.2 2.5-4.4 0-4.4-.1-4.5-3.5-4.8-4.6-.4-6.4-2.2-2.3-2.2 3.7 0 5.8-2.1 4.1-3.8-.7-.7-2.5-1.2-4-1.2-1.6 0-2.8-.5-2.8-1.3q0-1.3 3.3-.9c3.7.4 6.5-1.8 5-4-.4-.7-.8-2.7-.8-4.3 0-2.8-.2-3-3.7-2.9-2.1.1-3.8-.1-3.8-.5l-.4-24.1a718 718 0 0 0-1.1-32.4c-.6-6.7-.5-8.7.3-8.2.7.4 1.2 3.5 1.2 7.8 0 3.9.4 8.7.9 10.7l3.1 14.6 4.1 19.1a85 85 0 0 1 1.9 16.6q0 8.4 1.3 10.3c2.3 3 2.9.2 2.9-12.3 0-9-.5-13.2-2.1-18.2-2.9-9.2-3-9 4-9 6 0 6 0 5.7-2.8-.3-2.5-.6-2.7-4.8-2.6a21 21 0 0 0-6.2.8q-1.8 1-2.4-1.9c-.3-1.4-.3-2.9.1-3.3a23 23 0 0 1 7.3-.7c5.7 0 6.7-.3 7-1.9.6-2.9-1-3.7-7.9-4.1-8.4-.4-7.9-.3-7.9-1.9q-.2-1.6 5.3-1.8c4.8-.3 5.2-.5 5.2-2.8s-.4-2.5-5.4-3c-6.1-.6-8.1-2.7-2.9-3.2 2.5-.2 3.4-.8 3.6-2.6.4-2.3-1-3.3-5.2-3.6-2.8-.1-3.2-2-3.5-16.6-.1-5.2-.4-9.6-.6-9.8s-1.8.8-3.6 2.2q-5.2 4.7-5.7-.5-.3-2.5 2.3-4.9a8 8 0 0 0 2.5-6.1c0-2.1-.4-4-.9-4.3-1.6-1-4.2.6-5.4 3.3l-1 2.6-.6-3.5c-.8-4.4-1.4-4.3-15.3 1.2-2.6 1-6.3 1.8-8.3 1.8-3.3 0-9 2.9-14 7.1-1.1.9-4.5 2.9-7.5 4.4l-7 3.6c-.8.5-7.3 3.8-14.5 7.3-28 14-46.5 25.8-46.5 29.8 0 2 .1 2 1.8.5 2.7-2.5 4.4-2.1 8.2 1.8 2.8 2.9 3.1 3.7 2 4.9-1 1.3-1 2.5.1 6.2q2.3 8 5.7 5.8c2.7-1.6 10.5-1.8 10-.2-.3.7-1.8 1.4-3.4 1.6q-7.6.6-7.4 2.5c0 .7-1.8 2.3-3.9 3.5-5.1 2.9-6.3 7.1-3.2 11.3 2.1 2.8 2.2 3.7 1.5 14.2-.4 6.1-.6 12.8-.6 14.7l1.3 23.5c1.4 25.8 1.6 35.9.7 41.5-1.1 6.6-2.5 23.8-3.9 47.7A198 198 0 0 1 7 560q-.8-.2-2.5-2c-1.7-1.9-1.7-2.1-.1-3.9 1.4-1.5 1.5-2.3.5-4.5-1-2.1-1-3.1.1-5.1 1-2 1.1-2.8.2-3.7-.8-.8-1.2-6.3-1.2-17.5 0-9-.3-16.3-.8-16.3s-1.3 1.4-2.1 3.1C0 512.6-.1 527.6.5 597.3l.7 86.2-.7 15.7c-.8 15-.6 15.6 4.3 11.8q2.6-2 3.6-1c1.5 1.5 5.7 1.2 9.6-.8 2.6-1.2 3.9-2.9 5.1-6.2 1.5-4.1 1.9-4.5 6.8-5.6 2.9-.6 6.2-2.1 7.5-3.3q2.3-2.2 9-3.2c9.1-1.2 12.8-3 16.6-7.8 1.8-2.3 3.9-4.1 4.5-4.1 2.7 0 5.8-5 6.3-10 .2-2.7.6-5 .7-5l4.3 1.4c4.5 1.6 5.3 1.2 7.1-3.6.8-2.2 1.9-2.8 5.6-3.4 2.5-.3 4.9-.3 5.3.1s.6 3.8.4 7.6c-.2 5.4.1 7.1 1.2 7.5 1.2.5 1.3 1 .3 2.5s-.7 2.4 1 4.7c1.9 2.6 2.2 4.6 2.7 23.3l1.2 38.4c.3 9.9.7 18.7.9 19.5.8 2.6 6.2 5.5 9.7 5.1 1.8-.1 9.4-.4 16.8-.4l13.5-.2.7-5.5.7-9.7c.1-4-.2-4.4-3.9-6.3a21 21 0 0 0-4.9-2c-.6 0-1.1 3.6-1.3 8.2l-.3 8.3-3 .1c-1.6 0-6.4.4-10.6.8s-8.7.4-10.1.1l-2.7-.7v-23.1c0-12.8-.3-27.7-.7-33.2l-.8-14.8-.3-4.7h3.4c1.9 0 3.3.3 3.1.7l-1.8 3.6c-1.1 2.2-1.1 3.5-.3 6 .9 2.4.8 5.4-.1 11.7l-1.3 8.5 2.9 3.6c2.9 3.7 3 3.9 3.3 17.6l.4 14.6q.3.8 2.4.5c2.1-.3 2.2-.8 2.7-12 .3-6.4.8-12 1.2-12.3s1.5-.5 2.4-.1c1.3.5 1.5 1.3.9 4.4-1.2 5.7-1.1 12.5.1 12.9 1.8.6 4.4-2.6 4.4-5.5v-2.6l2.8 2.6c6.3 5.8 23.3 13.9 27.6 13.1 1.5-.3 4.6 0 6.9.6l4.2 1.2v6.2c0 5.2-.5 6.9-3 10.7-2.2 3.1-3.9 4.6-6.2 5.1-4.8.9-15.5 8.9-17.5 12.9-.9 1.9-3.9 5.7-6.7 8.5-6.3 6.1-6.8 9.9-2 13.9 3.6 3 4.4 3.1 16.6 1.1a45 45 0 0 0 25.8-12.5c6.6-6.1 8.3-7 16-7.7 5.3-.5 6.9-1.1 9.1-3.4s2.5-3.3 1.8-5.6c-.4-1.5-.9-4.4-1-6.3a50 50 0 0 0-3-18.1q-3.9-3 3.4-2.9c5.3-.1 17.2-2.9 19.4-4.7 2.3-1.9 12.5-2.8 14.3-1.3 1.2 1 4.3 1.1 12.4.7a44 44 0 0 0 17.3-3.2c8.6-3.7 10.2-3.7 10.6-.2.4 3.2 5.2 6.7 9.2 6.7 6.2 0 9.3 6.6 5 10.5-2.1 1.9-2.6 5-1 6 .6.3 1 2.4 1 4.5 0 8.8 4.4 12.3 16.7 13.3 4.2.3 8.8 1.4 11.2 2.6 8.8 4.5 35.3 7 41.7 3.9 3.8-1.7 4.6-7.4 1.4-10.3-1.1-1-2-2.6-2-3.6 0-2.8-10.5-11.7-14.8-12.4-5.1-.9-9.3-2.6-8.7-3.6a20 20 0 0 1 7.3-.2c11.2.9 11.1 1.1 10.9-16.8-.2-11.2.1-15.3 1-16.1.7-.6 1.3-1.7 1.3-2.4q.1-1.3 1.5-1.4c1.8 0 2-6.3.5-15.5-.6-3.3-1.2-9.3-1.6-13.3-.5-7.1-.4-7.3 1.5-6.7q2 .5 2.2-.2l.5-4.3.9-14.5c.8-15.8.7-15.5 6-15.5 2.4 0 4.6-.4 5-.9.5-1 2.3-.8 14.8 1.1 5.8.8 6.7 1.3 6.1 2.7-1.9 4.4-1.5 6.6 1.5 9.5 2.9 2.8 3.7 3 14.8 3.7 6.4.5 13 1.1 14.6 1.5 1.7.3 4.7.6 6.8.6 2.1-.1 4.1.3 4.4.9q.7.8 2.5.9 3 .1 3 5.1c0 2.9 4.4 6.9 7.7 6.9 1.5 0 5.5.9 8.8 1.9 6.6 2.1 6.6 2.2 5.2 10.5-.6 3.7-.3 4.3 3.1 7.5a31 31 0 0 0 19.9 7.1c3.7 0 5.4.5 6.8 2q3.5 3.7 3.5.1c0-3.1-4.7-6.1-9.6-6.1-7.8 0-13.6-4.8-6.1-5.1l4.7-.4 6.3-.4c3.9-.1 4.7-.4 4.7-2s-.9-2-7.7-2.4c-4.3-.2-8.6-.6-9.7-.8-2-.4-3.2 1.1-4.1 5.4-.6 2.7-.7 2.8-2.8 1.4-2.6-1.7-3.6-5.8-2.6-10.7.4-1.9 1-10.7 1.3-19.5s1.4-19.2 2.2-23c1.3-6.2 2-15.2 3.8-53l1.2-23.5c1-19.4 1.5-42 1.2-50a235 235 0 0 1 2-24c.6-3.6 1.1-10.3 1.1-15 .1-4.6.3-9.1.6-10 .2-.8.6-4.9.9-9 .8-12 2.7-33.3 3.2-35.6.3-1.9.9-2.1 4.9-1.6s4.5.3 4.5-1.7q0-1.9-.7-1.9c-.5.1-2.5-.2-4.5-.6-3.5-.8-3.8-1.1-3.8-4.2 0-3.3 1.2-4.5 2.5-2.4.4.6 2 .9 3.6.8 2.3-.2 2.9-.7 2.9-2.6 0-2.3-.3-2.4-4.5-1.9s-4.5.3-3.9-1.7c.9-3 1.2-3.1 4.6-1.8 1.8.6 3.4 1 3.6.7 1-1-.9-3.4-3.7-4.6-3-1.3-3-1.5-2.8-7.4l.3-6 3.2.3c2.6.2 3.2-.2 3.2-1.8q-.1-1.8-1.3-2c-1.9 0-4.7-3.3-4.7-5.3q0-2.8 4.1-.7c1.7 1 1.9.7 1.9-3.5 0-2.5-.5-4.5-1-4.5q-1.1-.2-2.2-2.5c-1.2-2.6-3.6-3.3-5.5-1.4-1.6 1.6-2.8-.8-1.3-2.6 1.7-2 5.9-1.9 8.2.2 1.7 1.5 1.8 1.5 1.8-.9 0-1.9-1.9-4.3-6.8-9-13.4-12.7-30.8-25.2-34-24.6q-1.5.4-2 2.1t5 4.1c5.5 2.4 10.4 6.6 7.7 6.6-.8-.1-3.2-.7-5.4-1.5s-5.5-1.5-7.2-1.5c-2.9 0-3.3-.3-3.3-2.8 0-3.2-1.6-5.3-3.6-4.5-1.5.5-.8 13.4.9 16.8.6 1.1.9 4.6.8 7.8s.3 6.4.9 7.1c.6.8 1.3 4.4 1.5 8.2.4 5.4.1 7.2-1.2 8.7-2.3 2.5-.6 5.2 3.3 5.2 2.6 0 2.9-.3 2.7-3-.5-5.1.2-5.7 4.2-3.4 3.1 1.9 3.6 1.9 4.1.5q.5-1.7-3-5.6-5.3-6-2.8-6c.5 0 1.4 1.1 2 2.4q1 2.5 4.7 3.2c4.6.8 6.5-.7 4.7-3.6-1.5-2.5-.1-2.6 2.8-.2l2.3 1.9-3.7 7.4a174 174 0 0 1-20.3 30c-2.4 2.4-3.3 4.2-3.4 6.8 0 2-.4 4.5-.8 5.6-.7 1.7-1 1.5-2-1.8q-1.9-5.8-3.8-2.3c-.4.7-1.9 1.3-3.3 1.2-2-.1-2.5.4-2.5 2.4q-.2 2.7 2.2 2.5 2.1 0 2.3.7c.1 4.7 0 5.2-1.2 4-1.7-1.7-16.2-1.6-17.6.1-2.4 2.9.3 4 9.7 4q9 0 9.1 1.1-.2 1-6.5 1.1c-4.7 0-6.9.5-8.1 1.7-1.4 1.3-1.5 2-.5 3.1s.8 1.6-.4 2.1q-1.6.6-1.3 3.3c.3 2.3 0 2.8-1.8 2.5-3-.4-5.1 2.3-3.3 4.4 1 1.2 2.6 1.4 7.5 1.1q12.4-.9 13.2 2.7c.4 1.8-.1 1.9-6.9 1.2-13.6-1.3-13.4-1.3-13.4.9q-.1 2 3.5 3.1l3.4 1.1-3.2.7c-3.6.8-4.4 1.7-3.3 3.4.9 1.5 7.5 2.1 13.5 1.2 4.3-.6 4.7-.5 4.4 1.3s-1 2-9 1.8c-6.9-.2-8.8.1-8.8 1.1 0 2.7 2.5 3.8 8.4 3.9 3.4 0 7 .4 8.1.9 2.6 1.1 2.4 1.1-6.3 1.4q-12.4.4-7.1 4a18 18 0 0 0 8.4 1.7c4.8.1 5.4.3 3 .9a48 48 0 0 1-7.7.9q-7.6.2-4.9 3.5c.6.7 1 2.4.9 3.7-.3 2.1.2 2.4 3.2 2.7q9.3.8 1.5 2.6c-4 .9-5 1.5-5 3.1 0 1.8.6 2 5.3 1.7 5.1-.3 5.2-.2 4.6 2.2-.4 1.8-.1 2.7 1.5 3.6 2.5 1.3 2.7 3.5.5 4.4-2.8 1.1-3.4.7-3.4-2.5v-3l-5.2.3c-4.5.3-5.3.6-5.3 2.3s-.7 2-3.3 2.1c-1.8.1-3.8.6-4.4 1.3-2.1 2 .7 3.4 6.3 3.2 2.9 0 5.8.4 6.6 1q1.2 1.3 3.7-.4c2.2-1.5 2.5-1.5 4 .2q1.5 1.7 1.6 2.5c0 .5-3.8.5-8.5.1-6.2-.5-9-.3-10 .5-2.6 2.2 0 3.8 5.1 3.2 2.5-.2 5.5 0 6.7.6s3.3 1.2 4.7 1.4 2.4.7 2.2 1.3c-.1.5-3.9.8-8.8.6-7-.2-8.9 0-10.5 1.5q-4.6 4.3 6.8 3.7c3.8-.2 8-.5 9.6-.8q2.8-.5 2.7 1c-.1 1.5-.9 1.2-3.6.8-3.4-.6-3.6-.5-3.2 2.3.3 2.5.8 2.9 3.6 3.2q3.2.4 2.9 1.5c-.7 2.1-3.8 2-5.3-.1-1.1-1.6-3-2.2-9.1-2.7-6.7-.7-7.8-.5-8.9 1-1.9 2.6-.9 3.5 4 3.5q10.3 0 10.9 3.2c.5 1.8.2 1.9-7.2 1.2-7-.6-7.9-.4-8.5 1.2q-1.5 4.3 8.5 4.4 5.6 0 6.9 1.4c.6.8 2.7 1.6 4.6 1.8s3.5.7 3.7 1.3c.3 1.4-4.8 1.8-7 .6a33 33 0 0 0-8-1.6c-5.7-.7-6.1-.6-6.8 1.5-.9 2.8-.7 3 5.6 3.7 3 .3 5.9.9 6.4 1.3s3.1 1.1 5.6 1.5c4.2.6 4.5.9 4.1 3.1-.6 3.4-5.6 3.3-8.8-.1-2.7-3-8.7-3.4-12.2-.9q-5.7 4.2 2.8 4.4c3.9 0 5.2.4 6 1.9s2.3 2.1 5.7 2.3c2.8.2 4.8.8 5.1 1.7.7 2-10.2 1-12.6-1.2-2.6-2.4-6.9-2.2-7.7.3q-1.2 4 2.8 4c1.3 0 3 .8 3.9 1.9 1.1 1.4 3 1.9 7.4 2 6 .1 9.1 1.5 6 2.7-1 .4-4.9.4-8.7.1q-11.6-1.1-6.3 4.4c1.6 1.8 2.8 2 8.6 1.7 3.8-.2 6.8 0 6.8.4 0 1.3-7 2.1-13.2 1.5q-10-1-5.2 4.4c1.7 1.9 2.8 2 10.1 1.7 6.2-.2 8.3 0 8.3.9q-.2 1.2-1.7 1.3c-.9 0-3.1.5-4.9 1.2-2.5.9-4.5.9-8.1 0-5.9-1.3-8.2 0-5.8 3.4s8.6 3.8 17.3 1c2-.7 2.2-.4 2.2 3.1 0 7.1-.6 7.9-7 9.1q-6 1-9.5.1c-3.8-1.1-6.5 0-6.5 2.7 0 1.4 1.3 1.9 7.1 2.9l3.6.7-2.4 2.4c-2 2-3 2.3-6.3 1.8s-4-.3-5 1.5-.8 2.3 2.4 3.6c4.1 1.7 13.2 2 17.1.5 3-1.2 4.7-.6 3.9 1.4-.8 2.1-7.1 2.5-14.4 1-5.5-1.2-6.6-1.2-7.9 0-2.1 2.2-.7 4.3 3.6 5.1q6.2 1.2 6.3 3.7c0 .6-1.5.8-3.7.4-7.1-1.2-8.5-1.1-9.7.7-1.5 2.5 1.3 4.5 7.4 5.3 3.6.5 4.6 1 4.6 2.5 0 1.7-.8 1.9-6.1 1.9-3.7 0-6.9-.6-8-1.4-1.7-1.2-1.8-1.8-.8-4.8.6-1.9 1.1-10.7 1.2-21.3.2-44 .9-64.5 2.1-66 1-1.3 1.1-2 .1-3.9-.9-1.7-1.1-5.7-.7-14.2l1.2-32.4c.3-11.3.8-22.5.9-25l1.8-29c.8-13.5 1.8-25.2 2.1-26s.7-25.4 1-54.5l.4-53 3-5.6 3-5.7 2 2.1c2 1.9 2 2.1.4 3.3-2.4 1.8-.4 4.7 3.9 5.6l6.2 1.4c1.5.3 3.3.2 4-.4a4 4 0 0 1 3.3-.6c2.8.7 5-2.2 5.7-7.5.8-6.2 2.5-7.5 9.4-7.3 3.2.2 7.7.5 10.1.8 3.5.5 4.2.3 4.2-1q-.1-3.4-10.4-3.4c-3.2 0-6.2-.4-6.8-1-.8-.8-.2-3.3 2-8.9 1.7-4.3 4.3-12.1 5.7-17.3s3.2-11.5 4-13.9c1.1-3.7 1.1-4.8 0-6.5-2.6-4.2-2.8-8.3-.5-10.6q4.4-4.3 2 2.9c-1.6 5.1.2 9.4 4.3 9.9q4.6.8 1.1-4.3a6 6 0 0 1-.9-5.4c.4-1.7.3-3.6-.1-4.3s-.9-2-.9-2.8q-.1-1.4-1.7-1.5c-2.1 0-5.6-3.2-6.4-5.9l-4.6-12.9c-2.2-5.9-3.8-11-3.5-11.3s3.1-.1 6.3.5 10.4 1.1 16 1.1c9.9 0 10.2.1 11.9 2.6 1.4 2.1 2.2 2.5 4.6 2 1.6-.3 2.9-.1 2.9.3 0 1.8-7.7 3.6-15.7 3.6q-12 0-9.9 3.4c.4.6 2.1 1.1 3.7 1.1 2.6 0 2.8.2 2 1.9q-1.2 2 .3 3c1.2 1 1.1 1.8-.6 5.3-2.4 4.9-1.6 5.8 5 5.8 3.9 0 4.1.1 3 1.9-.9 1.5-1.6 1.7-3 1-1.4-.8-2.2-.2-4.3 3-2.5 3.8-2.7 7.6-.5 10.6.4.5 1 3.7 1.3 7 .7 8.3 4.2 26.7 7.8 40.8a65 65 0 0 1 2.4 12.8c-.7 1-25.8.1-29.6-1.1a15 15 0 0 0-6-.1c-2.8.6-3.4 1.1-3.4 3.1 0 2.5 0 2.5 15.5 3.7 8.5.6 18.5 1.2 22.1 1.2l6.6.1 3.7-4.8c4.2-5.3 4.3-4.3-.9-19.1-3.6-10.4-6.9-25-5.9-26 .3-.3 3.3 2.4 6.7 5.9 6.2 6.4 6.2 6.4 6.5 3.6.3-2.4-.8-4-6.9-10.2l-7.2-7.2.7-5.9a90 90 0 0 1 8.8-35.3c4.8-11.2 4.9-11.7 4.6-20.4-.3-8.4-.5-9-3-10.9-2.2-1.6-4.7-2.2-11.5-2.5-8.8-.4-28.3 1-31.5 2.3-1.5.6-1.2-.5 1.2-6.1 1.7-3.8 4-8.7 5.2-11 2-3.9 2-4.1.3-7.8-2-4.2-4.6-5.8-13.4-8.1-7.6-1.9-30.8-1.9-38.6 0-2.7.7-6.5 1.2-8.3 1.1-3.3-.1-3.3-.2-2.5-3.6 1-4.8.7-10.5-.7-14.1-3.2-7.5-15.2-9.7-42.8-7.6-11 .9-13.5 1.4-15 3-2.6 2.9-2.1 10.8 1.2 19.2 1.4 3.8 3.3 10.2 4.1 14.1 1.6 8.2 6.8 19.4 9 19.4 1.9 0 1.9.5 0 3.3q-1.4 2.2-1.3 9.2c.1 8.2-1.9 15.8-3.9 15.1-2.1-.8-13.3-2.6-18.3-2.8l-4.4-.3-2.8-8.4c-1.5-4.6-3.2-11.7-3.7-15.7-.9-7.7-.4-24.2.9-25.9.5-.6 1.3-3 1.9-5.5 1-3.8 7.4-18 14.2-31.2 1.7-3.4 1.8-4.1.6-7-1.8-4.2-2.9-5-10.2-7.8-13.9-5.1-49.7-3.2-54.7 3.1-2.6 3.1-2.3 5.5 1.7 13.4 1.9 3.8 4.2 9.7 5.1 12.9 1.5 6 3.5 10.8 7.5 17.9 1.9 3.3 2 4.1.9 6.8-1.6 3.8.1 10.6 3.3 13.1q2.3 1.6 1 3c-.6.7-1.3 6.9-1.6 13.8-.9 17.1-1 17.3-6.1 16.5-2.2-.4-8.6-.8-14-1s-10.3-.8-10.7-1.2c-.8-.8-1.6-4.7-5-23.6-.9-5.2-.8-6 1.1-8.4 2.8-3.6 2.5-7.2-1-12.5l-3-4.5 5.9-11.9c11.6-23.8 13.5-34 7.1-39.7-3.3-2.9-8.6-3.7-10.8-1.5-1.9 1.9-1.4 2.7 2.8 4.4q8.5 3.6-1.1 6.7-9.7 3.2-8.6.2c1-2.3-1.2-2.9-9.9-2.6a25 25 0 0 1-8.8-.7c-.8-1.3 4.3-2.2 13-2.2 6.4 0 7.5-.3 8.5-2.1q2.2-4.2-5.7-5.9a75 75 0 0 0-23.2.1m105 11.3q7.4 3.3 4.7 6.1c-4.5 4.4-38.8 4.5-44.7.1-2-1.4-.9-2.9 2.4-3.2q12.1-1.2 11.8-3.7c-.2-1.6.8-1.7 11.1-1.2a66 66 0 0 1 14.7 1.9m-141.2-.3c5.7 1.2 10.8 4.8 9.5 6.8-1.4 2.4-7.4 4.1-13.9 4.1-5.4 0-6.4-.3-6.9-1.9s-1.8-1.9-9.6-2.3c-5.1-.3-9.5-.9-9.9-1.2-1.2-1.3 2.3-2.6 5.4-2q3 .6 4.3-1c.8-.9 2.6-1.6 4.2-1.6 1.5 0 3.1-.5 3.4-1 .8-1.3 7.1-1.3 13.5.1m43.5 9.1c3.3 0 7.9.2 10.3.5 4 .4 4.2.6 3.5 3.1a7 7 0 0 1-2.2 3.8c-1.2 1-1.3 1.5-.3 2.7q1.2 1.5.3 2.1-1 .8-.4 2.1.4 1.5-.6 2.9-2.2 2.6 3.2 2.6 3.2 0 2.3 1.5c-.3.8 0 1.8.7 2.2 1.7 1.1 3.7 5 3 5.7a5 5 0 0 1-2.5.6c-2.5 0-3.6 3-1.5 4.1 2 1.1 1.1 4.6-1.5 6q-2 1.2-3.1 0-2.4-2.4-5.7.9c-2.4 2.4-2.7 8.2-.5 10 2.1 1.7 5 .8 4.8-1.5-.4-3.2.7-6.6 1.8-5.9.7.4.9 2.2.6 4.3-.4 2.2-.1 4.3.7 5.4 1 1.3 1.1 2.8.4 5.9-.7 3.4-.5 34.1.5 54.5.1 2.3-.2 4.5-.6 4.9-.7.7-20.7-2.3-24.4-3.7q-2.3-.8-1.7-2.4.7-1.5 1.8-.7c2.6 2 17.2 4.7 18 3.3 1-1.6-2.2-3.2-7.8-4-5.3-.7-8.6-2.4-8.6-4.2 0-.5 1.4-.2 3.1.6 3.6 1.9 7.4 1.6 7.4-.5q0-1.4-4.5-2.3a27 27 0 0 1-4.8-1.2c-.4-.4 2.5-10.7 5.3-18.5a70 70 0 0 0 5.4-23.5c.8-8.6.7-9.1-1.5-11.8q-4.2-5-.9-7.7c2.2-1.9 1.8-7.1-1-12.3-3-5.7-11.5-27.3-11.5-29.3 0-1.1.8-1.3 3.3-.9 1.7.3 5.9.6 9.2.7m75.5 5.2c8.5 0 17.3-.4 19.5-.8 3.2-.6 3.8-.5 2.8.5-.7.7-5.9 1.5-13 2-13.5.8-12.3.6-12.3 1.8 0 1.5 12.8 3.4 18.7 2.7 4.2-.5 5.4-.3 5.1.6-.6 1.8-10 3-19 2.5-6-.4-7.8-.2-7.8.8 0 1.8 3.1 2.5 14.3 3.2q9.8.6 8.8 1.6c-1.4 1.4-13.2 1.9-18.1.8-3.1-.7-4.2-.5-5.2.6s-.9 1.6.2 2.3a58 58 0 0 0 18.3 2.4q1.6-.4 1.7.4c0 1.6-8.1 2.5-11.3 1.3-3.4-1.3-7.7-.4-7.7 1.5q.1 1.3 1 1.4t1 1q-.1.9-1.9 1c-1 0-2.1.9-2.4 2-.5 2-2.7 2.8-2.7 1a31 31 0 0 0-3-5.9 62 62 0 0 1-5.5-13.2l-3.4-11.1c-1.2-3.6-.5-4 3.3-2.1 2.5 1.3 6.3 1.6 18.6 1.7m-137 .6c5.8.6 13.9.9 18 .5 8.2-.7 9.1.2 1.4 1.3q-5 .7-5.2 2.4t2 2c2.2.4 2.2.5-.5 1.6-1.5.6-5.5 1.5-9 1.9-5.9.8-6.2 1-5.8 3.3.4 3.4 1.6 3.9 9.1 4.1l6.5.2-7.2 1-7.2 1 .1 3.1c0 1.7.5 3.6.9 4.2 1 1.3-1.5 3.8-4.8 4.8-2 .7-2.7-.2-6.7-8.6a132 132 0 0 1-9.1-23.2c-.7-1.7-.4-1.8 3.1-1.3 2.1.4 8.6 1.1 14.4 1.7m-53 0q-3 2-3 0 .2-1 2.3-1 2.6-.1.7 1m-8 2.9c0 1.5 1.1 1.9 7.3 2.4 3.9.3 8 .9 9.1 1.3 1.7.6 1.7.8.1 1.6a205 205 0 0 1-37.5.8c-1.1-.7-1.1-1.3.3-3.4 1.9-2.8 3.6-3.4 11.7-3.9l7.3-.5q1.7-.1 1.7 1.7m151 1.1c0 .6-2.6.9-6.2.8l-6.3-.1 5.5-.7 6.3-.8q.6-.1.7.8m132.5 4.3c2.1.2 3.3 3.3 1.8 4.8-.4.4-4.9 1.5-10 2.4a40 40 0 0 1-15.9.5c-8.4-1.3-13.5-3.1-13.1-4.5.4-1.2 6.4-2.4 13-2.4 2.6-.1 5.7-.6 7-1.3l3.7-1.8c.8-.4 3.7-.1 6.5.7s5.9 1.5 7 1.6M250 164q-.1.9-1.1 1-.8-.1-.4-1 .6-1 1.1-1 .3 0 .4 1m-151.2 1.9q2.2.2 3.2 2.5 1.4 4.3 9.4 3.7c4.8-.2 9.8.8 9.1 1.9-.3.4-3.1 1.1-6.3 1.5-7 .8-9.2 1.9-7.5 3.6.7.7 3.9 1.1 8.2 1 4.4-.1 7.1.2 7.1.9l-.2 1.1-6.3.5c-6 .5-9.3 2.3-8.1 4.3q.8 1 2 1.1c1.2.1 1.2 1 1.2 2.2-.1 1.9.5 2.4 3.2 2.6 2.5.3 3.5 1 4.3 3 .8 2.1.7 2.9-.7 3.9q-1.7 1.2-2.5 1.3-.7.1-1.4 1.9c-.5 1.7-1 1.8-5.3.7-4.1-1.1-4.7-1.6-5-4.2-.2-1.6-1-3.6-1.7-4.4a81 81 0 0 1-4.9-8.5 251 251 0 0 0-7.2-12.5c-1.9-3-3.4-6-3.4-6.6q.1-2.4 7-1.8c1.9.2 4.5.3 5.8.3m-38.1 2.2c9.6 1.3 16 3.6 17.9 6.3 2 2.9 1.8 4.3-.3 1.7-2.4-2.9-10.4-5.6-20.7-7.1a58 58 0 0 1-8.6-1.6c0-.7 3.5-.5 11.7.7m299.3 3c1.9.5 5.2.9 7.2.9s4 .4 4.3 1 4.4.7 10.3.3c8.7-.5 9.6-.4 8.2 1-2.3 2.3-20.9 3.8-27.2 2.2-2.4-.6-2.8-.4-2.8 1.3 0 2.8 1.7 3.2 14.8 3.2 11 0 11.5.1 9.9 1.7-1.9 1.9-6.7 2.2-15.9.9-5-.8-5.8-.7-5.8.7 0 2.4 3 3.6 11 4.3 13.4 1.3 3.1 3.1-11.5 2.1-3.9-.3-4.8 2.9-1.1 4.3q2.6.9 2 2.5c-.8 1.9 3.3 3.5 9.2 3.5 2.4 0 4.4.4 4.4 1s-1.9 1-4.3 1-4.8.5-5.4 1.1-2.2 1.7-3.5 2.3c-1.8.9-2.4 2.1-2.6 5.9q-.3 4.8-1.5 4.4t-.9-4.5c.3-3.1 0-4.4-1.2-4.8q-1.3-.6-1-1.8c.3-.7-.5-3.5-1.7-6.2a76 76 0 0 1-5.4-18.3c-.4-2.4-1.4-5.9-2.1-7.7a19 19 0 0 1-1.4-4c0-.7 9 .3 14 1.7m-316.4 1.5q-1.4 3 6.9 3c8.7.1 17.7 1.4 19.2 2.6 2.6 2.1-.4 3-10.7 3.3-5.7.2-10.7.8-11.3 1.4-1.4 1.4-5.4 1.4-6.3 0q-.7-1-5.8-.5c-6.8.8-11-.4-11.4-3.3-.5-3 1-4.6 6-6 3.9-1.2 4.3-1.1 5.8 1 2 2.5 5 2 5-.9 0-1 .3-2.2.6-2.5 1.1-1 2.6.4 2 1.9m132.1 5q-.7.5-1.9.1t.6-.6q1.8 0 1.3.5m-82.9 12.7 4 7.8-.5 9.7c-.5 9.6-.5 9.8 2.7 14.4 3 4.6 3.1 4.9 2.1 10.4-.6 3.2-1.1 7.3-1.1 9.1 0 2.7-.4 3.3-2.2 3.3-2 0-18.8 4-25 5.9-2.2.7-2.8.5-3.2-.8-1-3.2-1-9.2 0-9.9 1.8-1.2 4.4-5.6 4.4-7.3 0-1-1.2-3.2-2.6-4.9-2.1-2.4-3.4-3.1-5.8-2.9-1.7.1-4.3-.2-5.9-.6q-2.7-.7-4.2.5-1.4 1.2-6.9.5l-5.5-.7-2.6-6.5-2.5-6.4 2-2.6c3.9-5 1.6-17.3-3.3-17.3-1.4 0-3.5-.8-4.8-1.9-2.3-1.8-2.2-1.9 9.8-1.9 11.7 0 12.2.1 13.7 2.3 1.4 2.1 1.4 2.4-.7 3.9-2.2 1.5-2.2 1.6-.2 3.1 1.1.9 3.1 1.5 4.5 1.4 5.2-.3 6.3.3 2.1 1.2q-8.4 1.6-5.9 4.6c1 1.2 2.8 1.4 8.3 1q6.8-.6 4.5.3c-1.4.4-3.9.8-5.6.9-3.8.1-6.2 2.5-4.5 4.5q1 1.4 6.2.8c4.6-.4 5.1-.3 4.7 1.4q-.3 2-3.7 2.4c-4.5.7-5 2.5-1.2 4.5 1.7.8 3.1 2 3.1 2.5 0 1.5 3 1.2 3.5-.3l2.9-9.7c6.5-22.1 8.1-26.7 10.5-29.7 3.1-4 3.5-3.7 8.9 7M450 182c4.9 2.5 6.6 5.3 4.4 7.1a58 58 0 0 1-22.4 1.7c-1.9-.4-5.4-.8-7.8-.8-3.3 0-4.8-.6-6.6-2.5-1.4-1.4-3.4-2.5-5-2.5q-2.4-.1-2.6-1.4c0-1.7 3.8-2.8 5.9-1.6 2.6 1.3 26.8.7 28.3-.8s1.2-1.6 5.8.8m-278.9 6.3q-2.2 4.6-1.5 7.2c.6 2.6.5 2.6-1.6 1.5-1.8-.9-2-1.7-1.4-3.8.4-1.5.7-3.6.8-4.7.1-2.5 3.8-6.5 5-5.4.5.4-.1 2.7-1.3 5.2m78.4 3.7c-2.2 2.4-2.9 1.7-3.9-4.5l-.7-4 3.2 3.2c3.2 3.2 3.3 3.2 1.4 5.3m46.9-6.1c1 1.1 1.5 2.5 1.1 3q-.3 1 2 2.1 2.8 1 2.3 3.2c-.4 3.2-2.9 3.3-6.1.4-2.8-2.6-4.3-6.6-3.3-9.1q1-3 4 .4M400 197.1c1.1 3.4 3 7.9 4.1 9.8 2.8 4.7 7.2 17 7 19.6l-.1 13.3.1 11.3-3.8-2a67 67 0 0 0-16.3-6.2c-3-.7-5.9-1.7-6.5-2.1-2.4-2.2-4.5-24.1-2.4-25.4q1-.7.5-4.5c-.5-3.4 0-4.9 4.4-12.6a72 72 0 0 0 5-9.8q0-1 1.2-2.3c1.5-1.5 4 2.5 6.8 10.9m-87.4-7.7c.9 3.7.1 6.1-2.1 6.1-1.6 0-1.9-.6-1.7-3 .5-5.9 2.6-7.6 3.8-3.1m-130.5.8c2.4 3 2.4 4-.5 6.7l-2.4 2.2-1.6-2.2c-.9-1.3-1.6-3.8-1.6-5.6 0-2.7.4-3.3 2.1-3.3 1.1 0 2.9 1 4 2.2m228.5 3.4q5 1.5 22.2 2.1c9.4.3 17.2.9 17.2 1.4s-4.9 1.1-11 1.4c-8 .6-11 1.1-11 2.1q0 3 10.5 1.9 6.3-.7 6.5.3c0 1.2-5.9 2.2-14.1 2.2-3.6 0-6.9.3-7.2.7-1.1 1 1.4 3.3 3.7 3.3 1.1 0 2.8.5 3.6 1.1q1.8 1.2-2.8.5c-3.4-.5-4.4-.3-4.9 1-.3.9 0 2 .7 2.4s1 1.5.7 2.4c-.8 1.9.2 2.5 6.7 4.2 4.6 1.2 4.7 1.3 1.1.9-2.2-.2-4.7 0-5.5.5-1.2.7-1.1 1.2.5 2.9 1.8 2.1 1.8 2.2-.3 4.4-1.2 1.3-2.2 3.1-2.2 4q0 1.5-.9 2.2c-1.8 1-2-1.1-.5-4q3-6.1-2.5-5.2c-2.7.6-3.1.2-5.1-4.1a84 84 0 0 1-3.5-8.3l-4.3-10c-3.3-7.1-4.7-11.9-3.4-11.9.5 0 3.1.7 5.8 1.6m-341.9 5c-.3.3-1.2.4-1.9.1q-1.1-.5.6-.6t1.3.5M248 202c0 1.6.7 7.5 1.6 13s1.4 10.3 1.3 10.4c-.2.2-1.4.7-2.6 1-2.2.7-2.3.5-2.4-5.1v-6.6l.3-8.7c.1-4.3.5-7.7 1-7.4s.8 1.8.8 3.4m-73.4 17.2c.2 9.5.8 18.6 1.3 20.3 1.3 4.1 3.1 19.7 3.1 26.7 0 5.8-.4 6.4-3.4 5.2-1.3-.5-1.4-.9-.5-2.1 1.3-1.5.1-3.5-2.3-3.9-5.9-.9-14.4-2.7-15-3s-.1-1.8.7-3.4 1.7-4.7 2.1-6.9c.6-4 .8-4.2 3.5-3.6 2.4.6 2.9.3 2.9-1.3q0-3.9-3.1-2.1c-1.7.9-1.9.6-1.9-2.3 0-1.8.6-6.7 1.4-10.8a188 188 0 0 0 2.1-18.8c.6-8.7 1-11.2 2.1-11.2q1.4-.2 2-1.5c.5-1.3.9-1.3 2.6 0 1.9 1.3 2.1 2.6 2.4 18.7m5.4-16.4c0 1 .9 5.2 2 9.3l2 8c0 .6-3.7.5-4.4-.2-.8-.8-1.2-18.9-.4-18.9q.7.2.8 1.8m133.4-.6 2.1 10.8 2.2 10.5c.3 1-6.4 4.1-7.2 3.3-.6-.7-2.5-24-2-24.9.9-1.3 4.5-1.1 4.9.3m-9.6 6.3c.2 5 1.4 15.9 3.8 35.7.5 4.1 3.5 14.6 5.5 19.5 1.7 4.1 1 4.7-3.2 2.9q-3-1.4-2.1-1.6c1.5 0 1.6-3.2 0-4.8a5 5 0 0 0-3.1-1.2q-2 0-1.3-1.6a3 3 0 0 0-.3-2.8 9 9 0 0 1-1.3-3.6q-.1-2.7-3.1-2.8c-1.6-.2-3.6-.1-4.5.3-1.5.6-1.4.9.7 2.6l2.4 2-4.4-.3c-3.6-.3-4.4 0-4.1 1.4q.1 1.5-.8 2.3c-1.7 1.1-1.1 4.3 1.2 5.9q2.2 1.6.8 1.6c-2.5 0-8.9-2-9.5-3-.3-.5.9-3.8 2.8-7.2 6.6-12.3 12.7-35.5 11.3-43.6-.3-1.8-.1-4.5.4-5.8.9-2.2 1.5-2.5 4.7-2.2l3.8.3zm69.5.1c.3.3.1 1.6-.5 2.8l-1.7 3.4c-1.5 3.4-4.3-.9-3.3-5.1.4-1.6 4.2-2.4 5.5-1.1M123.5 210c.8 1.3-.4 5-1.6 5s-2.2-2.7-1.5-4.5c.6-1.7 2.2-2 3.1-.5m316.3-.3c-1 .2-2.8.2-4 0q-1.8-.3 1.7-.4t2.3.4M114 213c0 2.1-2.5 4.4-4 3.5-1.3-.8-1.3-3.8.1-5.2s3.9-.5 3.9 1.7m-10 1.4c0 1.2.5 2.7 1.2 3.4q1.4 1.3-.5 1.2c-2.1 0-4.2-4.2-3.3-6.5.8-2.2 2.6-.9 2.6 1.9m388-2.2c4.1 1.3 5.2 3.6 2.8 5.5-3.5 2.8-33.6 4.5-37.9 2.3-2.9-1.6-1.6-2.5 7.3-4.5 4.2-1 7.9-2.4 8.2-3.1.7-1.8 14-1.9 19.6-.2M29.5 216q.4 1-3.2 1-4 0-2.3-1c2-1.3 4.7-1.3 5.5 0m8.4 9.7c1.2 2.7 1.5 5.1 1 8.3-.6 4.2-.4 4.8 2.7 8s3.5 4.3 4 11.3l.7 7.8-2.5-.6q-2.5-.8-9.9 2.5l-7.3 3.2-2.1-2.6q-2.1-2.7-3.8-2-1.8.8-1.7-1.5c0-1.8.3-1.9 2.5-.9 1.9.9 2.9.7 5-.6 3.6-2.4 4-3.9 2.1-9.5-2-6.2-2-6.8.2-9.6 1-1.3 2.9-5.9 4.3-10.3s2.6-7.9 2.8-7.6zm147.2 1.5c-.3.4-1.8 1-3.3 1.3-2.2.6-2.8.4-2.8-.9q.1-1.5 1.4-1.6c.7 0 2-.7 2.7-1.6 1.2-1.4 1.4-1.4 2 .3.4 1 .4 2.1 0 2.5m181.3 5.8c.4 5.5 1.8 17.6 3.1 26.7 1.3 9.2 2.3 16.8 2.1 17s-2.2.1-4.5-.3c-3.4-.5-4.1-1-4.1-2.9 0-3.2-1.9-4.4-8.9-5.3-4.5-.7-6.4-.5-7.2.4-1.2 1.5 2.4 4.4 5.6 4.4a8 8 0 0 1 3.5 1q1.9 1-1.5 1a10 10 0 0 1-4.4-.9c-2.3-1.4-5.3.6-4.6 3q1 2-1.7 1.9c-1.3 0-3-.5-3.8-1-1.3-.8-1.3-1.2.1-3.7.9-1.5 4.6-9.3 8.2-17.3 4.7-10.4 7-17 8.2-23.5.9-4.9 1.9-9.3 2.1-9.7s2-.8 3.8-.8h3.3zm-244.3-3.6a303 303 0 0 0 15.6 45.3c.9 1.8 1.5 3.4 1.2 3.7s-2.7.9-5.3 1.2c-4.7.7-4.8.7-3.5-1.4q2.6-4.4-3.4-2.4c-1.9.7-4.7 1.2-6.3 1.2-1.7 0-3.9.7-5 1.5-1.8 1.4-1.8 1.6-.2 2.8q3 2.6-2 2.7c-2.1 0-2.3-.3-1.7-2.3 3.9-12.1 4.7-17 5.1-32.6a93 93 0 0 0-.6-19.7c-1.4-4.1-.8-5.3 2.5-4.7 1.9.4 2.7 1.5 3.6 4.7m325.7.8c1.2 2.4 2.8 7 3.8 10.3s2.8 8.2 4.1 10.9c2 4 2.3 5.3 1.4 7.3-.6 1.3-1.1 3.6-1.1 5 0 2.8.5 2.8-9-.6l-5.5-2-.6-8.8c-.5-8.1-.3-9.1 1.9-12.5 1.9-2.9 2.1-4 1.3-5.7-1.2-2.2-1.5-6.4-.4-7.4 1.3-1.4 2.2-.6 4.1 3.5M320 229c0 .9-6.6 5-8.1 5-2 0-.8-1.8 1.6-2.4 1.4-.4 3-1.5 3.7-2.6 1.1-1.8 2.8-1.8 2.8 0m55.8 1.9c1.6 5.2 1.5 7-.4 7.8q-3.4 1.3-3.4-7c0-5.9 2.2-6.4 3.8-.8m-350.6-1.3c.8.8-.3 4.4-1.3 4.4q-.8-.1-.9-1.5 0-1.5-2.9-1.5c-1.7 0-3.3-.5-3.6-1-.6-1 7.7-1.5 8.7-.4m40 1c1.6 1 .7 3.1-2.3 5.3s-3 2.3-1.2 4.3c1.8 2.1 1.8 2.1-.5.9-2.6-1.4-4.2-4.9-4.2-9.3 0-3 .1-3 3.7-2.3 2.1.4 4.1.9 4.5 1.1M47 235c1.3 5.5 3.4 8 5.2 6.2.9-.9.8-2-.5-4.7-.9-1.9-1.2-3.7-.7-4s1.4 1.4 2.1 3.7 2.1 5.1 3.1 6c2.1 1.9 2.7 3.9 3.4 11.3 1 10.8 5.3 31.1 9.1 42.9.6 1.7.2 1.8-4 1.2q-4.5-.7-5.2.5c-.9 1.4 1.2 2.9 4.3 2.9 1.2 0 2.2.3 2.2.7 0 .5-4.2.5-9.2.2-5.1-.3-9.9-.4-10.5-.1q-4.1 1.6 8.4 3.1c15.2 2 16.3 2.3 16.3 3.2s-5 .6-13.5-.7c-9-1.4-14.3-1.6-14.9-.5q-1.7 2.5-3.6-.9c-.8-1.5-.6-2.8 1.3-5.7a62 62 0 0 0 6.1-19.3l1.5-9.5 1.1-6.7c0-.4 1.5-.8 3.3-1q3.4-.2 3.2-2.3c0-1.6-.6-1.9-2.8-1.7-2.5.3-2.8 0-2.5-2 .2-1.9.8-2.2 3.2-2 2.7.4 2.9.2 2.3-2.6-.3-1.6-.1-3.4.5-4 1.7-1.7.2-4.1-2.1-3.5q-1.9.5-6.5-3.3c-4.6-3.8-5.6-6.6-4-10.8q1.6-4.2 3.4 3.4m206-3.8c0 1.7-5.8 5-6.5 3.7-.4-.5.5-1.3 1.8-1.8s2.8-1.5 3.2-2q1.4-2.2 1.5.1m164.5 2.6c-.5 1.4-.7 1.4-1.5.2q-.7-1.5.3-2.8c1.4-1.7 2.2 0 1.2 2.6M188 232c0 1.2-7.1 4.3-7.9 3.4q-.4-.6.4-1.1l3.5-1.7c3.1-1.7 4-1.9 4-.6m247.5.6q5 3.1-.7 5.8c-4.5 2.3-5 2-4.2-2.2 1.1-5.9 1.2-6 4.9-3.6m-219.8 4.1c-.9 5.1-7.3 18.3-9 18.3-.8 0-2-.6-2.6-1.4-1.2-1.5-8.1-17.4-8.1-18.8 0-.4 4.2-.9 9.3-1.1 5-.1 9.6-.4 10.1-.5s.6 1.4.3 3.5m104.3-.2c0 .2-1 1.3-2.2 2.5-2.3 2.1-5.8 2.7-5.8 1q.1-1 1.9-1c1 0 2.4-.7 3.1-1.5 1.2-1.4 3-2 3-1M110.7 238q1.3.1 1 1.2c-.4 1.2-2.5 1.3-5.5.3q-1.1-.6-.7-1.6c.4-.6 1.4-.8 2.2-.5s2.1.6 3 .6m79.3.4c0 1.7-4.6 5.6-6.6 5.6-2.8 0-2.3-2 1.3-4.4 4.3-3 5.3-3.2 5.3-1.2m155.5 1c3.8.1 3.6 1.6-1.1 10.9a38 38 0 0 0-3.4 8.4c0 2.5-2.5.8-2.7-1.9-.1-1.5-1.6-4.6-3.3-7-2.7-3.7-6-10-6-11.5 0-.3 3-.2 6.8.2zm141.3.1c-1 1-9.7 1.4-10.3.5-.4-.6 1.6-1 5.1-1 3.2 0 5.5.2 5.2.5m-65.2 13.9c-.8 12.1-5.2 31.2-8.6 37.6-1 1.9-1.2 1.9-5.3.3-7.2-2.7-7.4-3.5-3.4-8.7 3-4 3.7-4.4 4.5-3 .5.9 1.8 1.4 2.8 1.2 2.7-.5 3.3-7.4.8-9.3-1.7-1.2-1.6-1.7 1-8.8 1.5-4.1 3-10.1 3.3-13.2.7-6.3 3.1-10.3 4.7-7.7.5.8.6 6 .2 11.6M248.5 243q-.7.9-1.6 1-.9-.1-.4-1a2 2 0 0 1 1.6-1q.9 0 .4 1m75.3.2c-.6 1.7-8 5.8-9.2 5.1s5.4-6.2 7.7-6.3q1.7 0 1.5 1.2m-68.8 2.3c-1.3 1.4-2.6 2.3-2.8 2-.7-.7 2.9-4.5 4.1-4.5q.8.2-1.3 2.5m-61.7-.1c.7 1.8-.6 2.9-5.7 5-4.7 2-4.6 1.9-4.6.1q.1-1.4 1.3-1.5a11 11 0 0 0 4.2-2.5c3.5-2.9 4.1-3 4.8-1.1m242.1 3.8 1.2 9.8c.6 4.2.5 4.4-.9 2.5-1.3-1.6-1.9-1.8-3.4-.9-2.9 1.8-2.1 4.5 2 6.6q7 3.8.2 3.8c-4.3 0-4.9 2.7-.7 3.6 4.4.9 5.2 1.3 5.2 2.3q-.2.8-1.2.8c-6.7-.2-10.8.4-10.8 1.8q.2 1.4 2.8 2.1l3.6.8c.6.1-1.1.8-3.7 1.5-2.6.8-4.7 1.8-4.7 2.2 0 1 2.3 1.1 11.3.9 4.6-.1 5.7.2 5.7 1.4q0 1.6-3.2 1.7c-5.7.2-14.1 2.4-14.6 3.8-.4 1.1 1.3 1.3 9.7.8 5.9-.3 10.1-.2 10.1.3 0 1.1-2 1.6-9.5 2.5-10 1.3-15 3.3-11.2 4.8.6.2 5.5.1 10.9-.3 10.8-.8 14.8-.4 14.8 1.6 0 1.7-.5 1.7-2.9.2-1.4-.8-4.8-.9-14.2 0-6.8.6-12.5 1-12.7.8s.1-2.1.7-4.3c2.1-8.1 3.7-17.2 6.8-37.3.3-1.9.9-4 1.3-4.5a24 24 0 0 0 1.5-7c.9-7.1 1.1-7.5 3.4-7.5 1.5 0 2 1.1 2.5 5.2m-323.6-2.3q.8 1.6-2.9.7c-5.1-1-6.2-2.8-1.5-2.4 2.3.2 4.1.9 4.4 1.7M23 252.3c0 3.3-2.5 1.1-2.8-2.4-.3-3.2-.3-3.3 1.2-1.4a8 8 0 0 1 1.6 3.8m237-3.3q-.1.9-1.1 1-.8-.1-.4-1 .6-1 1.1-1 .4 0 .4 1m66.8 0c-.2.6-2.7 2.4-5.6 4-4 2.3-5.2 2.7-5.2 1.5 0-.8 2.1-2.6 4.8-3.9 5.2-2.8 6.5-3.1 6-1.6m52.8.2c.7 1-2 3.8-3.8 3.8-1.2 0-1-2.4.4-3.8q2.1-2.3 3.4 0m-284.1 12c-1.4 4.5-3.7 10.4-5 13.1a25 25 0 0 0-2.5 6.1c0 1-3.4 4.6-4.4 4.6-.6 0-4.1-6.2-5.3-9.5l-3.7-9.7a50 50 0 0 1-2.6-8q-.1-1.5 11.3-4.3a136 136 0 0 0 12.7-3.6q3.8-1.8-.5 11.3m16.5-8.6q-.1 1.3-1 .9-1-.7-.5-1.6 1.4-2 1.5.7m84.5.4q.4.9-1.2 1-2.5.3-6.3 2.1c-3.8 1.8-4 1.5-3.3.8 1.1-1.1 8-4.6 9.5-4.8q.7 0 1.3.9m134.5 2a41 41 0 0 1-11.4 6.9c-2.4 1 1.6-3.3 5-5.4q6.4-3.9 6.4-1.5m-73 4c-3.7 2.8-5 2.4-1.5-.5 1.6-1.3 3.2-2.2 3.4-1.9.3.3-.5 1.4-1.9 2.4m124-2c0 1.3-4.9 4.4-5.7 3.6-.9-.8 2.7-4.6 4.4-4.6q1.2 0 1.3 1m-271 1.2c0 .5-1.8.8-4 .8s-4-.5-4-1 1.8-.9 4-.8c2.2.2 4 .6 4 1m86.4.7c-.5.5-3.5 2.4-6.8 4.2-5.1 2.8-5.7 3-4.7 1.2 1.1-2.1 11-7.7 12-6.8q.3.6-.5 1.4M68 260.4c0 1.1-1.9 1.5-2.5.6q-.4-.9.9-1 1.5 0 1.6.4m136.5 1.6q.5.9-.4 1c-.5 0-1.8.3-2.8.7q-2.3 1-.4-1 2.3-2.9 3.6-.7m278.5 3.9c0 1.9-1.9 4.1-3.5 4.1-2 0-3.7-4.9-2.5-7.1 1-1.8 1.2-1.8 3.5-.3 1.4.9 2.5 2.4 2.5 3.3m-440 9.7q-3.6 21.4-7.1 22.2c-1.9.3-5.2-6.7-7.4-15.7-2.6-10.2-2.2-11 6.3-13.9 4-1.3 7.8-3.2 8.5-4.3q1-1.6 1.5-1.4c.2.1-.6 6.1-1.8 13.1m60.5-12.7c1.1.5 2.5.4 3.2-.1s2-.7 2.9-.4c1.3.5 1.5 1.5 1 4.8-.8 5.1-1.4 6.2-2.9 5-1.8-1.4-7.1-2.2-8.6-1.2-2.4 1.4-.3 3.9 4.4 5.1 4.5 1.1 5.9 3.7 1.7 3.1-2.8-.4-3.7 1.5-1.8 3.7 1.4 1.5 1.4 1.9 0 3.9-1.9 2.7-3.4 2.8-8.3.2q-7-3.3-3.1-6.5c1.1-1 3.4-5.5 5.2-10.1s3.5-8.4 3.8-8.3zm281.5 0c0 1.3-6 5.5-6.7 4.7-.9-.8 3.7-5.6 5.4-5.6q1.2 0 1.3.9m-83.7 1.1q1.5 0 1.7 1c0 1.2-9.1.1-10.5-1.3q-1-1 3-.3c2.2.3 4.8.6 5.8.6m-52.3 1.5c-1.2 1.5-3 1.2-3-.6 0-.5 1-.9 2.1-.9 1.8 0 1.9.2.9 1.5m203.4 2.9c2 .8 3.9 2.2 4.3 3.1a92 92 0 0 1-4.3 23.5l-1.7 5.5-2.9-9a88 88 0 0 1-5.4-24c.6-1.6 4.8-1.3 10 .9m-283.9.6q2 .9.5.9a7 7 0 0 1-3-.9c-1.8-1.2-.2-1.2 2.5 0m219.5-.1c0 .8-6.6 7.1-7.5 7.1-1.8 0-1-2.4 1.7-4.9 3.2-3 5.8-4 5.8-2.2m-315.4 4.2c.9 1.6-1.2 3.3-3.1 2.5-1.4-.5-1.5-.9-.5-2.1q2.2-2.7 3.6-.4m407.7 6.4q-1.2 3.2-1.3-.6 0-1.8 1-1.4.8.6.3 2m-338.8 5.1c-.9.6-4.1 1.4-7.3 1.8a232 232 0 0 0-16 2.7 59 59 0 0 1-10.8 1.6c-1.4-1.3 1.1-3.5 3.9-3.5 6.1.1 27.2-4.2 28.1-5.6.8-1.2 1.2-1.2 2.3.2s.9 1.9-.2 2.8m234.8-2.4c2.5 2.6 2.1 4.1-.5 2.4-1.3-.8-4-1.8-6-2.1-4.7-.9-4.2-2 .9-2 2.3 0 4.5.7 5.6 1.7M23 283.4q-.1 1.4-1.5 2.6c-1.2 1-1.6.9-2.1-.4-.7-1.8 1.3-4.9 2.7-4q.8.6.9 1.8m99.7-1.8c-.3.3-1.2.4-1.9.1q-1.1-.5.6-.6t1.3.5m317.3.4q-.2.9-1.7 1-2.2.1-.3-1c1.9-1.2 2-1.2 2 0m-366.1 3.9c-1.3 1.1-2.8 1.7-3.2 1.4-1.3-.8 1.4-3.3 3.5-3.3 1.9 0 1.9.1-.3 1.9m8.1 5.3q-.2 1-2.5 2c-4.6 2.1-2.4 5.4 2.4 3.6q2.3-.7 3.7.3c2.4 1.9 1.6 3.3-2.9 5.1-5 2.1-5.7 2.2-5.7.5 0-.6-1-2.8-2.2-4.7-3.1-5-3.2-6.7-.2-7.4 1.4-.4 2.7-1.3 3.1-2.2.5-1.3.8-1.3 2.4.2 1.1.9 1.9 2.1 1.9 2.6m-59-.8c0 1.1-1.9 1.5-2.5.6q-.4-.9.9-1 1.5 0 1.6.4m382.4 5.5c1.1 1.2 2.5 2.1 3.3 2.1q2.5 0 0 3.4c-1.2 1.7-1.7 1.4-6-3.6a40 40 0 0 1-4.7-6.2c0-1.1 5.3 2 7.4 4.3m-377.9-1c.6 1.1-3.3 3.6-4.2 2.7-.7-.7 1.6-3.6 2.8-3.6q.7 0 1.4.9m43 7c-.9 1.6-2.5.3-1.8-1.5q.6-1.5 1.5-.6c.9.9.7 1.5.3 2.1m-40-.2q.6 1.8-1.6 3.6c-2.2 1.8-2.4 1.8-3.6.1s-1-2.1.9-3.6c2.9-2.2 3.4-2.2 4.3-.1m311.2 4.1c.4 7-.8 20.3-1.8 19.6-.5-.2-1.8 0-2.9.6l-2.1 1.1 2.1-3.8c2.4-4.5 2.5-5.7.6-7.2-1.2-1-2.1 0-5.1 5.3-2 3.6-4 6.6-4.5 6.6s-2.6-1-4.8-2.3l-4-2.2 5.6-4.6c3.2-2.5 7.8-7.6 10.6-11.7 2.6-4 5.1-7.1 5.4-6.7s.7 2.7.9 5.3m-309.1 3.7q-3.5 2.6-3.6.6c0-1.1 1.8-1.9 4-2q1.7-.1-.4 1.4m76.4 4c0 2.6-.5 4.7-1.4 5.2-3 1.8-3.9 5.7-3.7 16.1.1 5.8.4 10.8.6 11.3.3.4 0 1.9-.7 3.4-.9 1.9-.9 2.8 0 3.7 1.3 1.3 1.6 6 .5 7.1q-.6.6-1.8-.3c-1.4-1.2-.8-47.9.7-49.8.6-.6 2.1-1.2 3.4-1.2 2.2 0 2.4.4 2.4 4.5m-70.2 3.1c.8.6-5.9 3.4-6.8 2.9-1.6-1-1.2-3.3.7-4.4 1.5-.8 4.2-.2 6.1 1.5m50 2.1c2.5 6.5 4.3 28.8 4.3 53.3 0 10.2.4 26.6.9 36.5l1.5 31c1.4 35.3 2.1 146.8.9 155.5-.6 4.3-.4 4.9 2.1 6.8l2.6 2.1-5.7 8.3-6.3 9c-.3.4-.5-25.9-.3-58.5.6-114 .3-169.4-1.2-194-1.4-23.3-1.5-23.8-4-26.4-2.5-2.4-2.5-2.6-.7-4.2 2.4-2.1 3.7-16.3 1.6-18.1-1.7-1.4-4.5 1.3-4.5 4.5 0 3.4-1.8 4-4 1.3-1.4-1.8-1.6-2.6-.7-3.5A59 59 0 0 1 87 316c.4 0 1.2 1.2 1.8 2.7M71 325.9q0 1-1 1.6-.9.4-1-.9.1-1.5 1-1.6 1 0 1 .9m340 1.1q0 .9-1 1a1 1 0 0 1-1-1q.1-1 1-1t1 1m-7.7.7c-.7.2-1.9.2-2.5 0q-1-.5 1.2-.5c2.2 0 1.9.2 1.3.5m-69.7 4.1A55 55 0 0 1 325 347c-.4 0-1.3-.6-1.9-1.4-1-1.2-.9-2 .4-4 1-1.4 2.1-2.6 2.6-2.6s2.5-2.5 4.5-5.5 3.8-5.5 4-5.5-.3 1.7-1 3.8m-275.2 2.3c-.3.5-2.4.9-4.7.8l-4.2-.1 3.5-1.2c3.6-1.4 6.4-1.1 5.4.5m281.5 1.8c-1.1 1.6-1.1 2.7-.2 5.1s.9 3.2 0 3.4c-8.1 2.1-9 3.3-5.3 7.1l2.5 2.5h-2.6c-1.5 0-3.5.7-4.5 1.7-1.7 1.5-1.8 1.5-1.8-.4 0-1 1.4-4.6 3.1-7.9l5.7-10.7q2.4-4.7 3.4-3.9.9 1-.3 3.1m-260.6.1q.7 2.1-1.4 2c-1.8 0-2.6-2-1.2-3.3q1.7-1.8 2.6 1.3m-33.1.2c-.7.7-1.2 2-1.2 3 0 1.7.6 1.8 5 1.2 5.6-.7 6-.2 3.5 4.6-1.3 2.6-1.8 2.8-3.4 1.8-2.2-1.4-5.1-.4-5.1 1.7q0 1.5 3.1 1.5c3.4 0 3.4.9-.2 8.5-1 2.3-2 6.3-2.1 9-.3 4.4-.1 5 1.7 5q2 0 2.9-3c1.2-3.8 3.3-8.6 8.7-20 3.3-7 4.3-8.5 4.7-6.7.2 1.3-.3 3.1-1.1 4s-1.8 3-2.2 4.7l-2 7.5-3.1 12.3a34 34 0 0 1-6.1 13.9c-4.7 6.7-5.1 8.3-2.7 9.2q1.6.6 5.5-3.6c4.6-5 7.4-10.4 8.9-17.3l3-11.5c1-3.6 2.2-8.2 2.5-10.2.6-3.1 3.1-7.1 3.6-5.7 2.1 6.1 2.8 117.4.8 119.4q-1 1-.8-7.5c.3-13.9-1.2-51.3-2.2-54.1q-.9-2.6 0-8.5c1.1-7.5-.7-11.8-3.6-8.2-1.4 1.8-2.6 15.5-1.4 16.2.5.3 1 5.6 1 11.7.1 6.2.4 11.5.7 12 .6 1.1.5 67.1-.2 72.9-.3 2.5-.4 13.3-.3 24 .3 22.8.3 23.4-1 36.5-.6 5.5-1.3 32.5-1.6 60s-.7 51.3-1 52.9-2.1 4.9-4.1 7.3c-2.9 3.5-4.2 4.3-6.8 4.3-1.9 0-5.3.7-7.6 1.5-5.7 2-6.2 1.9-5.8-1.2.2-2.1 1-2.9 3.3-3.5l7.2-1.8c3.2-.8 4.3-1.6 4.3-3 0-2.4-.4-2.4-8.1-.3-5.9 1.6-6.2 1.6-7.5-.2-1.9-2.6-.9-3.2 6.4-3.8 7.1-.5 10.1-2.2 8-4.4-1.1-1-2.5-1.1-6.8-.3l-7.2 1.6c-1.5.4-1.8-.1-1.8-2.8v-3.3l5.8.3c4.3.3 6.2 0 7.1-1.2.7-.8 1-2 .6-2.6-.9-1.5-8.8-1.2-11.2.5-1.9 1.3-2.2 1.3-2.7-.1q-1.9-4.8 8-4.2c6.8.3 9.9-1.1 7.6-3.4q-1.3-1.3-8.8-1c-5.9.2-7.5 0-7.2-1 .3-.8 2.4-1.4 5.4-1.6 8.9-.4 11.4-1.1 11.4-3.2q.1-2.1-2.5-2c-1.4 0-2.9-.8-3.6-2.1-.9-1.7-1.8-2-5-1.7-2.1.2-3.9.1-3.9-.3 0-.3 3.2-.9 7.1-1.3 8.2-.7 8.9-1 8.9-3.7 0-1.8-.5-1.9-6.7-1.3-3.8.4-7.6 1.1-8.5 1.5-1.9 1-3.3-.4-2.4-2.6.4-1 2.2-1.3 7.9-.9 5.9.3 7.7.1 8.8-1.2 1-1.2 1-2 .2-3.4q-1.2-1.8-.1-2.8t.5-2.6c-.5-1.2-2.2-1.5-8.7-1.3-6.7.3-8 0-8-1.3s1.3-1.5 7.8-1.2c8.1.4 10.9-.8 9.7-3.9-.4-1.1-2.5-1.3-9-1-7.2.3-8.5.1-8.5-1.3 0-1.2 1.6-1.6 8.3-1.8 8-.3 8.2-.4 8.2-2.8 0-2.5 0-2.5-8.3-2.1s-8.4.3-8-2c.3-2.2.9-2.4 7.3-2.7 8.9-.4 9.7-.7 9.3-3.4-.3-2-.8-2.2-3.8-1.9-6.7.8-12.3.6-12.7-.5-.9-2.6 2.8-4.4 8.8-4.4q5.9 0 6.1-1.3c.2-2.2.5-3.2 1.2-4.9 1.6-3.6.2-4.3-8-4.3-7.4 0-7.9-.1-8-2.2-.1-1.8.6-2.3 3.8-2.8 2.1-.4 6-.4 8.7 0 4.1.5 4.9.4 5.5-1.1 1.2-3-2.1-4.6-8.4-4.1-3 .2-6.3.8-7.2 1.2-1.6.6-1.8.1-1.8-3.4s.3-4.1 2.6-4.7a29 29 0 0 1 7.5-.2q8 .7 6.5-3.8c-.5-1.2-2-1.5-8.1-1.3-4.1.1-7.8-.1-8.2-.4-.7-.8 3.5-1.1 8-.8 1.6.1 3.4-.3 4.2-.9q1.3-1.2 3.4.2t3.2.1c1.3-1.3.6-2.7-5.8-12.4a43 43 0 0 1-4.3-7.7c0-.6 1.5-1.2 3.3-1.4 2.4-.2 3.3-.8 3.5-2.6.4-2.8-2.1-3.9-5.5-2.3-2.1 1-2.9.9-4.3-.4-.9-.8-2.2-1.5-2.8-1.5q-1.2-.1-1.2-5.1c0-4.4.2-5 1.5-3.9 1.9 1.6 4.5.6 4.5-1.8s1.7-3.9 5-4.4q2.7-.1 2.5-2.8c0-2.3-.3-2.5-4.2-2.3s-4.3 0-4.3-2.3c0-2 .5-2.4 2.9-2.4 3.1 0 5.7-2.3 4.6-4.1-.4-.6-.2-2.2.5-3.5 1-1.8 1-2.6.1-3.8s-.8-1.6.9-2.1c1.6-.5 2-1.3 1.8-3.3-.3-2.7-.3-2.7-7.5-2.4-9.8.5-9.4-1.3.5-2.4 7.5-.9 7.7-1 8-3.8l.4-2.9-6.7.7-7.9.9q-1 0-1.1-1.8 0-2 2-2.2l8.8-.8c6.6-.7 6.8-.7 6.5-3.3s-.4-2.6-8.3-2.6c-9.9-.1-10.8-2-1-2.2l8.3-.3c1.5-.1 1.6-4.3 0-5.9q-1.5-1.3 1.4-1.2c3 0 5.3-2.3 4.1-4.2-.4-.7-.8-2.8-.8-4.7 0-2.9-.4-3.6-2.5-4.1q-3-.6-.7-1.3c1.9-.7 2.3-4.2.6-5.2q-1-.7.4-2.3c1.8-2 .6-6.2-1.7-6.2q-1.5 0-1-1.5c.4-.8.1-2.2-.6-3-1-1.1-.9-1.8.4-3 2.3-2.3.3-5.9-2.7-5.1a48 48 0 0 1-15.2 2.3c-3-1.2-.9-3.2 4.6-4.2 6.6-1.3 7-2.6 3.5-10.4a48 48 0 0 1-3.2-11.3c-.8-6.7-1.6-8.3-3.9-7.4-1.3.5-1.6 1.6-1.3 5.3q.3 4.7-.9 5c-1.5.5-1.7-5.3-.7-13.1.6-3.7.9-4.4 2-3.5 2.5 2.1 4.7.2 4-3.4-.3-1.7-.8-8.2-1.1-14.2-.4-9.1-.2-12 1.3-16.2q2.9-8.3 5.5-8.3 1 0-.1 1.2m66.5 8c1 1.2 3.6 14.9 2.9 15.5q-.5.3-2.6-.5c-2.2-.8-2.3-1.4-2.6-12.3q-.3-11 .5-7.7c.4 2 1.2 4.3 1.8 5M31 348q-.1.9-1.6 1-1.3-.1-.9-1 .6-1 1.6-1 .8 0 .9 1m-9 1.5q0 1.4-2.4 1.5-4.4 0-2.6 2.9.6 1.4 5.5.9c3.5-.4 4.8-.2 5.2.9 1.3 3.4-6.1 3.9-9.8.7a5 5 0 0 0-2.7-1.4c-2.7 0-2-2.1 1.5-4.4 4.3-3 5.3-3.2 5.3-1.1m450.6 9.5q4 1.8 5.5.9c2.2-1.4 2.8-1.1 7 3.1 3.7 3.7 5.1 7 2.9 7q-.9-.2-1-2c0-1.7-.7-2-4.2-2-2.4 0-6.7-.9-9.7-2a36 36 0 0 0-10.2-2.3c-2.7-.1-4.9-.3-4.9-.4l1-2.8c.9-2.5 1.3-2.6 5.2-2 2.3.4 6.1 1.5 8.4 2.5m-135.8 1.2c4.3-.5 4.6-.4 3.3 1.1q-1.3 1.8-6.1 1.7c-5.5 0-8.1 2-6.3 4.8.8 1.3 2.5 1.7 7.2 1.6q6-.1 6.1 1c.1 1.1-.8 1.2-1.7 1.3-1 0-4.6.5-8 1l-6.1.9-1.1-3.9c-.9-3.7-.7-4.3 2.2-7.8 2.7-3.2 3.4-3.6 4.5-2.5q1.3 1.4 6 .8m-255.4 1.4q1.5.8 1.6 3.5c0 2.6-.4 2.9-3 2.9s-3-.4-3-2.8c0-4 1.1-4.9 4.4-3.6M34 363q0 .9-.9 1-1-.1-1.6-1-.4-1 .9-1 1.5 0 1.6 1m-11 1.6c0 .2-1.2.4-2.6.4q-2.3 0-2-.9c.6-.8 4.6-.4 4.6.5m93 8.1c0 4.9-.4 8.3-.8 7.6q-.9-1.2-6.7-1c-5.4.2-6 0-6-1.8 0-1.7.9-2.1 5.4-2.7 5.9-.7 7.5-1.7 6.9-4.4-.3-1.6-1.3-1.9-6.3-1.9-4.8 0-6-.3-6.3-1.7s.7-1.8 6-2.1l7.1-.5c.4-.1.7 3.7.7 8.5m346.6-5q2.4.7 1.4 2.9c-.7 1.6-1.5 2-3.4 1.7-2.8-.6-4.1-3.2-3.1-6.4.6-1.8.8-1.8 1.8-.5.7.8 2.2 1.9 3.3 2.3m-214.1 1.2c3.2.7 3.3 1.8.1 1.2-.4-.1-1.4.5-2 1.4-1.5 2.1-6.6 2.7-6.6.9q.1-1.3 1-1.4t1-1c0-1.9-2.8-1-3.3 1s-3 2.6-6.1 1.4q-3.7-1.6 1.7-3.3c4-1.2 9-1.2 14.2-.2M27 370.5c0 1.4-.9 1.7-5.5 1.9q-1.4 0-1.7-.9c-.3-.8 2.2-1.7 6.5-2.4q.6.1.7 1.4m450.3.2c1.5.3 2.7 1.2 2.7 1.9 0 1.9-1.4 1.8-6-.6-4.4-2.2-5.3-3.7-1.7-2.5 1.2.4 3.4.9 5 1.2m-220.6.8c.9 2.5-.4 2.9-1.7.6q-1-2.2 0-2.1t1.7 1.5m-173.7 5c0 1.8-.4 2.1-2.5 1.7q-4.3-.7-3.2-3.6.6-1.4 3.1-.9 2.7.5 2.6 2.8m196-1.6c0 1.2-2 2.5-2.7 1.8s.6-2.7 1.8-2.7q.8 0 .9.9m-40.3 5.3q-.5 1.1-.6-.6t.5-1.3q.5.6.1 1.9M341 379c0 .5-1.8 1-4 1s-5.6.6-7.4 1.4c-2.8 1.2-3.4 2-3.9 5.7-.3 2.4-.3 4.8.1 5.4.3.5.5 2.2.3 3.8-.3 3.3.5 3.7 10.7 4.6.6 0 1.2.8 1.2 1.6 0 1.7-1.6 2-2.5.5-.4-.6-3-1-5.8-.8-4.5.3-5.2.6-5.5 2.5-.4 2.8 3.1 6.3 6.2 6.3 1.4 0 3.2-1 4.1-2.3l1.7-2.2-.7 2.5a39 39 0 0 1-3.2 6.9c-2 3.5-2.3 4.5-1.2 5.2q2.7 1.9 4.5-2 3-6.1 4-1.7c1 4.2-.1 5.6-4.4 5.6q-7.6.2-4.7 4.7c.8 1.2 1.2 2.9.9 3.7-1 2.6 1.5 4.8 4.8 4.1l2.9-.7-.2 9.7-.1 9.7-2.4-2.8a73 73 0 0 1-5.5-8.6c-4.7-8.5-22.6-25.8-26.9-25.8-.6 0-2.7-1.1-4.8-2.4-2-1.4-5.7-3.2-8.2-4.2-5.7-2.2-5.5-2-4-3.9.7-.9 1.3-3.3 1.2-5.4-.2-3.2.2-4 2.5-5s2.8-1 3.5.3c.5.9 2 1.6 3.3 1.6a4 4 0 0 1 3.5 2q1.8 3.4 6 .8c1.6-1 2.4-1 4 0 2.9 1.8 4.8 1.5 7.6-1.3 2.3-2.3 2.5-3.1 1.9-7.4-.6-4.6-.5-5 3.4-9.1 2.5-2.6 4.5-4.1 5.4-3.7s2.8.2 4.4-.3c3.9-1.2 7.3-1.2 7.3 0m65.8 1.2c-.4 3-5.2 3.7-7.9 1.2-3-2.7-2.3-3.4 3.2-3.4 4.7 0 5 .2 4.7 2.2m78.4.8c-.2 1.7-.8 3.3-1.3 3.6s-.9 1.8-.9 3.4c0 3.7-1.8 7.7-3.8 8.5-2.7 1-2.6-.5.6-6.8 1.8-3.4 3.2-7.1 3.2-8.3 0-1.1.3-2.4.7-2.7q2.1-2 1.5 2.3M242 380q0 .9-1 1a1 1 0 0 1-1-1q.1-1 1-1t1 1m19 0q-.1.9-1.1 1-.8-.1-.4-1 .6-1 1.1-1 .4 0 .4 1m-177.3 4.3c-.4 1.4-4.2 2.1-6.3 1.3-2.5-1-.6-2.4 3.1-2.4q3.5 0 3.2 1.1m200.6 3.9c-.7 6-.8 6.2-2.2 5.3-1.2-.7-1.5-8.7-.4-9.8q.6-.6 1.9-.7c1 0 1.2 1.3.7 5.2M27.5 401c.2 9.1.6 19 .9 22q.6 6.2-.3 1.7c-1-4.7-1.8-5.5-3.7-3.6-1.2 1.3-1.6 5.5-1.9 23-.6 25.5-1.1 30.5-3 28.9-1-.9-1.2-6.5-.9-28.8l.6-32.7c.1-2.8-.1-9.8-.5-15.7-.7-10.6-.7-10.7 1.5-11.1 1.3-.3 3.4-.4 4.7-.3l2.3.1zm89-10.9c.9 11 1.2 94.9.4 109.4-.5 9.5-.4 15.3.2 16.1 1 1.2.2 9.1-1.1 10.9-.9 1.2-2.1 14.2-2.6 29.5-.5 14.2-1 18.6-1.8 18.2l-5.2-.2c-4.1 0-4.5-.2-4.2-2.2.2-1.8 1.2-2.4 4.1-2.9 4.4-.7 5.2-1.3 4.4-3.4q-.7-1.4-4.2-1.5-3.5 0-4.2-1.5c-.8-2.1 0-2.7 4.4-3.4q3.8-.6 4.1-2.4c.3-1.4-.4-1.7-4.3-1.7-5.6 0-5.8-2.3-.2-2.8 3.7-.3 6.3-2.4 5.2-4.2-.3-.5-2.6-1-5.1-1q-4.3 0-3.9-1c.3-.6 2.1-1 3.9-1 3.3 0 5.6-1.5 5.6-3.7q0-1.3-4.5-1.3t-4.5-1.4c0-1.1.9-1.3 3.5-.9 4.2.7 7.2-1.2 5.4-3.3-.6-.8-2.3-1.4-3.8-1.5-2.4 0-2.3-.1.9-1.2 5.2-1.8 4.5-4.1-1.4-4.7-6.5-.7-7.5-3-1.3-3 5.9 0 7.7-.8 7.7-3.2 0-1.8-.6-2-5.7-1.6-5.6.3-5.8.2-5.8-2.2 0-2.3.3-2.5 5-2.5 3.8 0 5-.4 5.3-1.6q.3-2.8-7.6-2.9-3.1 0-2.7-1c.3-.6 1.8-1 3.3-1 5.6 0 10.6-4.6 6.3-5.7q-2-.6-2-1.7c.3-2.9-.4-3.5-4.3-3.8-6.6-.5-6.1-2.8.7-2.8 5.3 0 5.6-.1 5.3-2.3-.3-1.9-1-2.2-5.5-2.5s-5.3-.6-5.3-2.2.9-1.9 5.3-2.2c4.8-.3 5.2-.5 5.2-2.8 0-2.4-.3-2.5-5.3-2.3-3.9.2-5.2-.1-4.9-1q.5-1.1 6.1-1.2 9.2-.2 6.6-4.4c-.6-1-2.4-1.3-7-.8-5.8.5-6.1.4-5.8-1.6.3-1.9 1.3-2.4 6.5-3.2 6.8-1.1 8.9-2.5 7.9-5.1-.7-1.7-1.2-1.7-11.3.2-3 .6-3.3.4-3.3-1.8 0-2 .5-2.5 2.8-2.6a37 37 0 0 0 10.4-1.8q.7-.7.8-2.5c0-2.5-3.4-2.5-9.4.1-5 2.1-5.7 1.8-4.9-2.2.5-2.6.9-2.7 6.7-3 5.5-.3 6.1-.5 6.4-2.7s.2-2.3-6.5-2c-5.5.3-6.8.1-6.8-1.1 0-1.6 3.7-2.7 9.8-2.9 3.4-.1 3.8-.4 3.5-2.4s-.9-2.2-6.3-2.3c-7.9-.2-8.1-.2-6.8-1.5.6-.6 3.8-1.4 7-1.8 5.4-.6 5.8-.8 5.8-3.1s-.4-2.5-3.5-2.2c-1.9.1-5 .5-6.7.8-3.1.5-3.3.3-3.3-2.5 0-2.9.2-3 5.8-3.6 6.5-.7 8.7-1.6 8.7-3.6 0-1.1-1.7-1.3-7.7-1.2-7.1.3-7.8.1-7.8-1.6 0-2.4 1.9-3.1 8.5-3.1 4 0 5.4-.4 5.9-1.6q2-5-8.2-3.8c-5.9.6-6.4.5-6-1.2.3-1.6 1.5-2 7.3-2.4 6.7-.5 7-.6 7-3 0-2.5-.1-2.5-7.7-2.1-6.5.3-7.8.1-7.8-1.2 0-2.3 1.8-3 6.6-2.9 6.1.3 9.6-1.3 9.2-4.1-.3-2.1-.7-2.2-7.8-2-7.2.3-7.4.2-4.5-1.2 1.7-.7 5.2-1.4 7.8-1.3s5.1-.2 5.4-.6c1-1 1.3-.1 1.8 5.5M254 386q-.1.9-1.1 1-.8-.1-.4-1 .6-1 1.1-1 .3 0 .4 1m37.8 3.6c-1 1-2.8-.6-2.8-2.4 0-1.5.1-1.5 1.7.1q1.4 1.5 1.1 2.3M241 388q0 .9-.9 1-1-.1-1.6-1-.4-1 .9-1 1.5 0 1.6 1m18.1 11.7c-.9 2-.6 2.5 2 3.8l3 1.6-2.7 3.2c-3.8 4.5-6 5.9-10.1 6.2-1.9.2-4.3 1.1-5.2 1.9-1.9 1.8-5.7 2.1-6.6.7-.7-1.2 2.7-3.1 5.5-3.1q2.3 0 1.6-1.5-.4-1.4.4-1.5 1-.1 1-1.1.2-2 4.5-4.5 2-1.2 1.8-3.8-.1-2.4 1-2.3t.9-3.8c-.4-6.4.9-7.6 2.5-2.5q1.4 4.6.4 6.7M84 398.9q-.2 1.5-1.7 1.7c-1 0-2.8.4-4 .8-2.5.8-3.2-1.1-1.2-3.1 1.8-1.8 6.9-1.3 6.9.6m393 5.1q-.1 1.7-2.1 2.3-2.2.5-1.7 2.9c.2 1.8 1 2.4 3.6 2.6 5.5.5 3.1 2.6-4.4 3.7-6.4 1-6.9 1.2-7 3.5-.1 1.4-.5 3.3-.9 4.2-1.4 3.4.1 4.8 5.5 4.8s5.5-.1 3.8 6.8c-.8 3.6-1.7 5.3-3.5 6.1-1.2.6-2.3 1.7-2.3 2.6 0 1.2 1.4 1.5 7 1.5 5.7 0 7 .3 7 1.6s-1.2 1.5-7.2 1.2c-6.9-.3-7.3-.2-7.6 1.9-.3 2.2 0 2.3 6.7 2.3q10.3-.1 7.2 3.4c-1 1.2-7.5 1.3-11 0-1.8-.6-4.1 1.4-4.1 3.7 0 1.7.8 1.9 6.8 1.9 7.3 0 8.4.4 7.5 2.6-.4 1.1-1.7 1.3-5.4.8-4-.5-5.3-.3-6.9 1.1-3.8 3.5-2.6 4.6 4.7 4.3 5.9-.3 6.8-.1 7.1 1.6.4 1.7-.1 1.8-8.1 1.1-7.5-.6-8.5-.5-9.1 1.1-1.1 2.9 1.2 3.9 9.4 3.9h8v5.7l-7.2-.3c-8-.4-9.8.2-9.8 3.1 0 1.7.9 2 7.5 2.2 9.4.4 10.4 2.2 1.4 2.6-5.1.2-7.1.8-8.4 2.2-2.5 2.8-.4 3.3 8 2.2 5.4-.7 6.8-.6 7.2.5 1 2.5-1 3.1-7.7 2.3q-10.1-1.3-10 2.5c0 1.2 1.5 1.5 6.8 1.5q6.7 0 8.8 1.4c3.4 2.6.5 3.4-7.5 2.3-6.7-.9-7.5-.8-8.7.8-1.9 2.6-.9 3.5 3.9 3.6 6.9.1 12.2 1.3 12.2 2.8 0 1.1-1.5 1.5-5.6 1.5-5.6.1-8.9 1.6-8.9 4.2 0 2 1.3 2.3 5.6 1.4 2.1-.5 5-.6 6.4-.3 2.3.6 2.3.7.5 1.4-1.1.4-4.1.8-6.6.8-5.5.1-7.1 1.6-6.3 6l.7 3.1h6.8c5.5 0 6.9.3 6.9 1.5s-1.5 1.5-7.4 1.5-7.5.3-8 1.7c-1 2.5 1.3 3.4 8.4 3.1 5.4-.1 6.6.1 6.8 1.5.4 2.1-.9 2.6-7.8 3-6.2.3-8 1.1-8 3.4 0 1.3 1.2 1.4 7.9.9 4.3-.3 8.1-.3 8.3 0s.3 1.6 0 2.9c-.4 2.4-.8 2.5-7.2 2.5-4.8 0-7.1.4-8 1.5q-1.1 1.5-.9 2c.3.2 3.9.5 8.2.7 9.4.4 10.3 1.6 1.2 1.7q-10.4 0-10.5 3.6c0 1.2 1.7 1.5 8.5 1.5 5 0 8.5.4 8.5 1 0 1.2-1.3 1.3-9.8 1q-9.3-.4-9.2 3.6c0 1 2.2 1.4 8.7 1.6 7.3.3 8.8.6 9.1 2 .3 1.5-.8 1.8-8 2-7.8.3-8.3.4-8.6 2.6s0 2.3 3.5 2.2c2.1-.1 5.9-.2 8.6-.1 4.4.1 4.7.2 4.7 2.8 0 2.7-.1 2.8-6.8 3.1-4.8.2-7.1.8-7.9 1.9-2.8 3.6-1.3 3.9 13.2 2 2.5-.3 2.9 1.8 2 9.9l-.7 6.4h-7.3c-5.1 0-7.6.4-8.5 1.5-2.6 3.1-.7 4 7.9 3.6 5.8-.2 8.1 0 7.7.8-.4.6-3.8 1.1-8 1.1-7.3 0-10.2 1.1-10.8 4-.2 1.2 1.2 1.5 8.7 1.5 7.7 0 9 .2 9.3 1.7.3 1.6-.5 1.8-7.2 1.8-6.6 0-7.7.3-9 2.2-2.1 3-.5 5 3.2 3.8 1.5-.5 4.8-1 7.5-1.3 4.3-.4 4.8-.2 5.3 1.9 1 4-.3 4.7-8.4 4.2-6.5-.5-7.7-.3-9.4 1.4-1.1 1.1-1.6 2.4-1.1 2.9s4.9.9 9.8 1.1c7.2.2 9 .6 9 1.8s-1.7 1.5-8.8 1.7c-8.8.2-11.7 1.1-11.7 4 0 1.2 1.6 1.4 9.5 1.1 9.4-.3 9.5-.3 9.5 2s-.2 2.3-8 1.8c-6.4-.4-8.3-.1-9.5 1.1-2.7 2.7-1.1 3.6 7.1 4 4.3.2 8.3.8 8.7 1.3.5.4.6 1.8.2 3-.7 2.4-1.1 2.4-11.7.4-3.1-.5-3.8-.3-4.8 1.6-1.6 3-.4 3.7 8.2 4.5 4.8.5 6.8 1.1 6.8 2.1 0 1.7-2.3 1.8-9 .2-4.4-1-5.3-.9-6.7.4-.9.9-1.3 2.3-1 3.1.7 1.7 12.7 3.9 14.4 2.5 1.5-1.2 2.6.7 1.8 3.2q-.7 2-1.8 1.3c-2.5-1.6-12.2-3.1-13.4-2.1-2 1.6-1.5 4.8 1 5.8 1.9.8 1.7.9-1.5.9-2 .1-4-.4-4.3-.9a858 858 0 0 1 .6-77.5c1.3-17 1.4-20.1 2.3-56 .7-27.1 1.1-33 2.6-38a588 588 0 0 0 1.4-44l.5-43.8q.2-2.6 1.5-2.7c1.7 0 6.1-5.2 9.6-11.1q6.3-10.9 8.6-8.8a4 4 0 0 1 1.4 2.9m-254.4 1.3c2.1 4 .8 4.7-2.1 1.2s-3-4.2-.9-4.2c.8 0 2.2 1.4 3 3m-139 1.6c-.3.5-1.9 1.4-3.6 1.9-2.4.9-3 .8-3-.3q-.1-1.7 5.8-2.4 1.1 0 .8.8m40.8-.3c2.2.8 2 2.1-.4 2.7q-2.1.6-2-1.4c0-2.1.1-2.2 2.4-1.3m109.6 3.6c0 .4-1.1.8-2.4.8-2.2 0-2.3-.2-1.3-2.5 1.1-2.3 1.3-2.3 2.5-.8q1 1.6 1.2 2.5m107.6.5c-1.1 1.1-1.9-.6-1.1-2.4s.8-1.7 1.2 0c.3 1 .2 2.1-.1 2.4m-124.7.7q1.3.9.7 5.9c-.7 4.7-.6 4.9 3.6 8.7 2.4 2.3 5.4 4 7.1 4.2s3.5 1.1 4.1 2c.8 1.4.4 2.4-2.2 5.1-1.7 1.8-3.2 3.8-3.2 4.4s2.5 2.4 5.6 3.9a20 20 0 0 1 7.5 5.8c2.3 3.8 2.6 9.6.4 9.6q-2.9-.1-4.6 9.8c-2.7 15.1-3.1 18-3.2 22.6-.3 7.1-1.9 7.7-10.2 4-6.2-2.7-6.8-3.3-8.2-7.4-2.1-6.1-.5-15.6 5.7-33.7 3.2-9.1 4.5-14.5 3.9-14.9-1.5-.9-2.1.1-6 9.8l-3.4 8.8-.3-4.3a27 27 0 0 1 2.8-11.9c3.2-8.2 3.6-10.3 2-11.3-1.5-.9-4 1.4-4 3.7 0 1.1-.6 3.4-1.4 5.1A36 36 0 0 0 209 456c0 3.7-1.6 9.8-3 11.3-.4.4-.5-2.5-.2-6.5.3-5.9.1-7.6-1.2-8.7-2.3-1.9-4.6-.6-4.6 2.6l-.1 2.8-1.5-2.8q-1.5-2.8-4-2.7c-2.4 0-2.6.3-1.8 2.7 1.3 4.6 1 18.4-.5 24.5s-1.8 6.4-8.6 4.9q-3-.6-1.7-1.4 3.1-2.2-2.3-5.6a15 15 0 0 1-5.6-6.5c-2.4-5.1-9-11.6-11.8-11.6-1 0-2.4.6-3 1.4-1 1.1-.4 2 2.8 4.3 2.4 1.7 5 4.8 6.5 7.9 2.6 5.3 7.6 10.4 10.2 10.4q4.7 0-6 5.4c-8.6 4.3-10 5.7-9.2 9 .5 1.9.1 2.8-1.4 3.6s-2 2.1-2 5.5c0 5.7-1.9 5.9-4.2.5q-3-7.2-9.4-1.7l-2.7 2.4 2.6 5.7c3.5 7.5 3.5 10.3.1 11.8-2.4 1.1-2.8.9-5.9-2.8l-3.4-3.9-2.7 2.7c-2.3 2.2-2.8 3.8-3.2 8.8q-.4 6-1.6 5.7c-.6-.2-1.1-1.4-1-2.6q0-2-1.7-2.1-2.8-.2-2.9-5 0-2 2.7-2.2c3.9-.4 4.2-2.8.4-2.8-2.7 0-3.1-.3-3.1-2.9 0-4.3 2.3-5.6 10.4-5.6 5.8-.1 7.1-.4 7.4-1.7.5-2.8-8.5-3.7-14-1.3-2.8 1.1-2.3-3.1.7-6.1 2.2-2.2 3.3-2.5 7.8-2.3q9.4.4 6.6-2.7c-1.4-1.7-9.1-1.9-12.1-.3-2.8 1.5-3.2.6-1.6-4.3 1.7-5.1 3.5-5.7 10.5-3.3q4.8 1.6 9.6 6.6 7 7.3 8.5 3.1c.2-.8-2-3.8-5.1-6.7-4.1-4-6.8-5.7-11-6.9-3-.9-6.2-1.6-7.1-1.6q-3 .2 0-3.8c1.1-1.6 2.5-2.2 5.3-2.2 2.1 0 4.1-.3 4.4-.7 1-1-1.3-3.3-3.4-3.3-2.6 0-3.3-1.8-1.7-4.1 1-1.5 2.6-2.2 6-2.4q8.8-.5 12.7 7.3 1.9 3.9 5.9 5.6c6.4 2.9 8.8-.4 3.1-4.4-1.6-1.2-4.1-4-5.5-6.2-3-4.8-8-7.1-14.2-6.6q-6.8.5-4.3-3.1.7-1.4 2.8-.2c2.5 1.3 7.8 0 7.8-2q0-1.4-3.8-1.4c-2 0-3.7-.3-3.7-.7 0-3.5 14.4-19.5 21-23.3a16 16 0 0 0 5.2-5.5c2-4.4 4.6-6.6 12.7-11.4a48 48 0 0 1 21.6-6.5c6.3-.7 8.1-.5 10.4 1.3m63.9 1.1c2.9 1.4 5.4 2.5 5.8 2.5s4.7 2 9.7 4.4c9.4 4.6 18.7 11.5 15.6 11.6-1.7 0-7.9 6.3-9.9 9.9-.9 1.8-.8 2.2.6 2.8q1.8.6 2.8-1.2c2.3-4 8.8-10.4 10.1-9.9.8.3 2.1 1.7 3 3.1 1.6 2.4 1.6 2.5-2.3 5.9-4.6 3.9-9.2 13.8-7.4 15.6s3.8-.6 5.1-5.5q2.1-8.3 7.4-8.9c2.2-.2 3.2.4 4.8 2.9l2 3.2-2.9 1.5c-3.4 1.7-5.4 4.5-7.1 9.9-1.2 3.5-1.4 3.7-3 2.3q-1.7-1.5-2.3-1.6c-1.2 0-6.8 6.1-6.8 7.5 0 2.4 4.1 1.7 7.2-1.2q3-3 2.8-1.1c0 .9-1.6 3-3.6 4.6-3.9 3.2-4 6.1-.1 4.1q7-3.6 9.4-11.9c2.9-10.1 5.8-12.3 10.3-7.5 1.8 2 2.1 2.8 1.2 3.7-2.2 2.2-1.4 4.1 1.2 3.4 1.9-.5 2.9 0 4 1.6q3.3 4.5-.6 5-2.1.4-2.6 2.2c-.3 1.6.1 1.7 3.6 1.1s4.2-.4 5.2 1.4.8 2.2-.7 2.7q-4.9 1.4-4.8 3.5c.1 2.1.9 1.5 5.5.4 2.2-.6 3.2.2 7.3 5.5 4.9 6.3 6.7 9.7 7.2 14 .2 1.4.6 3.5 1 4.7q.8 2.4-.7 2.3c-1.9 0-3.8-2-3.8-4.2q-.1-3.6-3.5.2c-1 1.1-4.3 2.7-7.4 3.6-9.6 2.8-10 3-9.8 6.1.2 3.2-1.9 3.8-3.6 1.1-.8-1.2-.6-2.7.8-5.8l1.9-4.2-3.2-2.9c-1.8-1.6-4-2.9-5-2.9-2.9 0-6.2 2.9-6.2 5.5 0 4.2-4.2 6.9-6.8 4.3q-3-3.2 2-3.3c3.6 0 5-2.4 1.9-3.2s-2.8-4.3.4-4.3c3.8 0 10.2-2.9 11.9-5.4a7 7 0 0 1 4.5-2.9c3.3-.7 4-2.1 1.5-3.1-1.8-.7-8.1 1.8-10.9 4.4-2 1.9-9 4.6-13.5 5.2q-2.5.4-2.8-1.4c-.2-1.3.8-2 4-2.8 8.6-2.2 10.5-3.1 13.4-6.1 2.4-2.5 2.6-3.1 1.4-3.9q-1.5-.9-3.5.5a30 30 0 0 1-11.8 5.5c-7.4 1.5-13.7 4.2-14.8 6.1q-2 3.6-5.4-.1-4.5-5 4.8-4.2 5.3.4 6.2-.7c1.1-2-1.5-4.1-5.1-4.1-3.3 0-4.5-1.2-2.4-2.5 2-1.2.9-4.3-2.4-6.9-1.9-1.4-4-2.6-4.6-2.6-1.3 0-6 9.6-6 12.3q.1 1.8 1.8 2.3c1.3.4 1.7 1.6 1.7 5.6 0 4.6-.3 5.2-2.6 6-2.8.9-7.9-.5-7.9-2.2 0-1.3 2.7-1.3 3.5 0 1 1.6 3.5-.8 3.5-3.1q-.1-1.8-1.5-1.9c-2.3 0-3.2-3.4-4-14.5-.8-11.5-2.8-24.2-4.7-30q-1.3-4.2-3.3-4c-2.4 0-2.4 1.3-.1 10.2.9 3.4 2 12.7 2.6 20.5a150 150 0 0 0 2.9 22.2c-.3.3-3.1-.4-6.3-1.5-6.3-2-9.3-2.3-14.3-1.3-2.5.5-3.3.2-4.2-1.5-1.5-2.8-3.2-2.7-6.5.4-1.5 1.4-3.1 2.5-3.6 2.5-1.9 0-2.2-5.3-.7-11.3.9-3.4 1.9-8 2.3-10.2s1-5.5 1.6-7.2c.9-3.1 1.1-3.3 4.8-2.7s3.9.4 5.6-2.7c1.6-3.3 2-8.4 1.2-20.4-.3-4.8-.2-5 2.2-4.7 2.1.2 2.7-.3 3.5-3 .8-2.6 1.7-3.4 4.5-3.9q7-1.5 9.1-12.2c.6-3.1 1.7-5.7 2.3-5.7.7 0 3.6 1.1 6.4 2.5m-53.3-.5q.3.9-1.4 1-2-.1-2.1-1 .1-1 1.4-1c.8 0 1.8.4 2.1 1m5.2 1.6q-.6.5-1.9.1-1.1-.5.6-.6t1.3.5m33.3.8q-.1 1.3-1.5 2-1.5.6-1.5-1.4.1-1.8 1.5-2c1.4-.2 1.5.6 1.5 1.4m-182 1.9q0 2.3-1.7 2.3c-1 .1-2.6.4-3.5.9-1.5.6-1.8.2-1.8-1.8 0-2.5.9-3 5.8-3.6q1 .1 1.2 2.2m172 2.2c0 .8-5.9 3.5-7.7 3.5q-2 .1 1.2-2c2.7-1.8 6.5-2.7 6.5-1.5m7 1.1q-.1 1.3-1 .9-1-.7-.5-1.6 1.4-2 1.5.7m-34 2.9q0 1.4-1 1.5-.9-.1-1-1.5c-.1-1.4.5-1.5 1-1.5q1 .2 1 1.5m246.3-.8c-.7.2-1.9.2-2.5 0q-1-.5 1.2-.5c2.2 0 1.9.2 1.3.5M236 424.5c0 1.9-2 2.9-3.2 1.7-1.5-1.5-.2-4.3 1.7-3.6q1.4.6 1.5 1.9m23.4-.4q-.6.8-1.5.3t-.3-1.5q.6-.8 1.5-.3t.3 1.5m-174.4 4c0 3.6-.7 4-4.6 2.2q-6.4-3.1-.2-5.8c3.7-1.5 4.8-.7 4.8 3.6m170 .3c0 1.9 0 1.9-2.1 0-2-1.8-2.1-1.8-3.5 0-.7 1.1-1.7 1.7-2 1.3s-1.4-.1-2.2.5c-1.1 1-1.6.8-2.4-.5q-.9-1.8-3-1.1-2.2.6-1.6-.7.6-1.4 7.1-2c3.7-.3 7-.9 7.4-1.2.9-.9 2.3 1.3 2.3 3.7M48 428q-.2.9-1.7 1-2.2.1-.3-1c1.9-1.2 2-1.2 2 0m-7.7.7c-.7.2-2.1.2-3 0q-1.4-.5 1.2-.5t1.8.5m11.4 6.9c-3.2 1.7-12.6 2.2-14.8.8-1.3-.8 5-1.8 14.6-2.2l3-.1zm192 1.6q-.5 1.1-.6-.6t.5-1.3q.5.6.1 1.9m-159.5 2.2c.4.6.8 2 .8 3 0 1.9-.1 1.9-2-.2-1.2-1.2-3-2.2-4-2.2q-1.9-.1-2-1.6c0-1.2.7-1.4 3.3-.9 1.7.4 3.5 1.3 3.9 1.9m154.8 3.1c0 1-.7 1.1-3.5.2-3.8-1.1-4.5-3-1.7-4.6 1.3-.8 2.1-.6 3.5 1 .9 1.2 1.7 2.7 1.7 3.4m243-2.5c0 1.2-.8 1.2-3.5 0q-2.8-1 .8-.9c1.5-.1 2.7.3 2.7.9m-397 9.6c0 3.6-.3 4.4-1.2 3.6-.7-.5-2.4-1.2-3.8-1.4q-2.5-.2-2.8-2.6c-.3-1.8.1-2.2 2.2-2.2 1.4 0 2.8-.5 3.1-1 1.4-2.3 2.5-.7 2.5 3.6m354 .8c0 .2-1.6.6-3.5.8s-3.5 0-3.5-.4 1.6-.8 3.5-.8 3.5.2 3.5.4m-354 9.2c0 3.1-.2 3.5-1.5 2.4-.8-.7-2.5-1-3.8-.6-1.3.3-2.7.3-3-.1-1.2-1.1 1.4-3.3 3.9-3.3 1.2 0 2.6-.5 2.9-1q1.6-2.8 1.5 2.6m357-1.6c0 1.2-.8 1.2-3.5 0q-2.8-1 .8-.9c1.5-.1 2.7.3 2.7.9m-313 1.5q-.2.3-2.5.7-2.4.5-2.5-.7 0-1.2 2.5-.7 2.3.4 2.5.7m6.8 5.2c-.3 1.5-1.4 1.8-6.2 1.8-3.2 0-6-.3-6.3-.8s1.8-.7 4.6-.7 5.3-.5 5.6-1c1-1.7 2.7-1.1 2.3.7m-107.1 2.5q-.5 1.1-.6-.6t.5-1.3q.5.6.1 1.9m420.4 1 .4 6.8c.8 10.2.6 30-.4 38a319 319 0 0 0-.9 46.4c-.5.3-.7 4.2-.4 8.6a34 34 0 0 1-.6 10.3c-2.6 5.8-3.8 21.1-4.7 65.2-.3 15.7-.6 18.1-2.1 19.2-3.6 2.6-3.7.8-1.8-35.2.2-5.5.6-10.7.9-11.5.8-2.9 1.5-18 2.5-51.9.6-18.9 1.2-34.7 1.5-35.1.2-.4.7-7.6 1-16.1s1-21.2 1.6-28.3l.9-15.8c0-3.3 2-3.8 2.1-.6m-364.3.9q-.4 1-1.1 1L80 470c-1.6 0-3-.5-3-1s1.8-1 4.1-1q3.9 0 3.7 1.1m-54.8 3q0 1.7-1 1.9c-.5 0-1-1.2-1-2.6s.4-2.3 1-1.9 1 1.5 1 2.6m99 0q1.5 0-.5.9c-3.2 1.4-5.5 1.1-5.5-.6q-.1-1.8 2.3-1zm-45 6.7q.1 2.6-1.6 1.8c-.9-.3-2.7-.6-4-.6q-2.5 0-2.4-2c0-1.7.6-2 4-1.8 3.5.1 4 .4 4 2.6m-55 17.6q-1 1.2-1-7c0-11.9 1.4-14.8 1.8-3.5.2 5.6-.1 9.8-.8 10.5m-9.1 0c-1 18.9-.5 42.8 1.1 53.6.5 3.5.8 9.6.6 13.5l-1.1 24c-.4 9.3-1.1 17.6-1.5 18.4-1.2 2.3-2.3-19.2-1.6-30.6.5-6.5.4-10.9-.3-11.6-1.1-1.4-1.8-28.3-.8-29.4.4-.3.7-9.2.7-19.7 0-12.5.5-22 1.5-27.6l1.5-8.9q0-.3.5 0c.2.3 0 8.5-.6 18.3M125.5 481c-2 2.2-3.1 2-2.2-.5q.8-1.4 2.3-1.5c1.6 0 1.6.2-.1 2m78.7 5.5q.4 1.9 2.3 2t2.3 1.8c.4 2.1-.2 2.1-3.9 0-2.2-1.3-2.9-2.5-2.9-4.7 0-3.2 1.5-2.6 2.2.9M84 488.6c0 3.1-.2 3.5-1.5 2.4q-1.5-1.1-4.1-.6c-2.2.6-2.5.4-2.2-1.6.2-1.7 1.1-2.4 3.8-2.9l3.8-.8c.1 0 .2 1.5.2 3.5m40.1 1.1q-1.2 2.6-1.1-1.2 0-3 1.1-1.8c1.1 1.2.8 1.6 0 3m-82.9-1.2c.7-.3 2.7-.1 4.3.3 2.9.8 2.8.9-1.8 1.5-4.9.7-9.3-.6-8.2-2.4q.6-.9 2.5.1c1 .5 2.5.8 3.2.5m146.8.5c2.4.7 2.3.7-1.2 1.5-4.1.8-6.8.2-6.8-1.5 0-1.1 4.2-1.2 8 0m11.2 7.6c-.4 2.3-.6 2.4-2 1.1-1.2-1.3-1.2-1.7-.1-3q3-3 2.1 1.9M84 498.3c0 3.2 0 3.2-4.6 2.9-5.7-.5-5.7-3 .1-4.8l4.3-1.3c.1-.1.2 1.4.2 3.2m122.5-1.3q.5.9-.4 1-1-.1-1.6-1-.5-1 .4-1a2 2 0 0 1 1.6 1m95.6 4.6q1.1 1 3.1.7c1.8-.5 1.9-.4.9 1.6-1.3 2.3-2.7 2.6-6.4 1.2-3.1-1.2-8.2.1-8.2 2q.2 1.3 2 1.5c3.9.2 6.5 1.6 6.5 3.4 0 3.5 4 3.3 5.3-.4q.6-2 2.5-1c2.2 1.1 9.2 1 11.6 0 1.7-.9 1.7-.7.2 2.2-.9 1.7-1.6 3.6-1.6 4.2 0 1.6 3.1 1.2 5.2-.7 1.7-1.5 1.9-1.5 3.8.2 2.7 2.4 2.6 2.9-1.5 7.4-3.6 4-5.9 5.2-13.2 7.1-3.2.8-4.3 1.6-4.3 3q-.2 1.9-1.2 2.2c-15.6 1.8-19.3 2-23.1.8q-4-1.2-5-.1c-.6.6-3.9 1.1-7.4 1.1-5.4 0-6.4.3-7.5 2.2-1.2 2.2-1.3 2.2-1.8-1.2-.4-2.9-.9-3.5-3-3.5-1.4 0-4.4-1.3-6.7-2.9-3.1-2-4.9-2.7-6.8-2.2-2.3.6-2.4.5-1.3-1.9 1.4-3.1 3.8-2.8 12 1.3 5 2.5 6.1 2.7 18.3 2.6a56 56 0 0 0 19-2.1c3.3-1.2 8.5-2.6 11.5-3.2s6.5-1.9 7.8-2.7c2-1.3 2.3-1.3 2.8.1.8 2.1 2.4 1.9 5.9-.9 2.7-2.2 2.8-2.5 1.1-3.2-1-.4-2.7-.2-3.7.4-2.5 1.6-2.8 1.5-2.2-.8.7-2.8-2.5-2.6-6.6.4a21 21 0 0 1-7.8 3.1c-2.6.4-7 1.6-9.7 2.7-3 1.2-7.8 2.1-11.6 2.1-6 .2-6.5 0-6.8-2.1-.4-2.8-3.8-3-4.7-.2s-3.7 2.6-3.5-.3c.4-3.8.1-4.7-1.5-4.7-.9 0-2 1.2-2.6 2.7q-1.8 4.6-3.2-2.5l-.6-3.2 4.7-.1 7.1-.2c3-.2 4.1-2.7 1.2-2.7-4.5 0-1.8-1.9 5.2-3.5q7.1-1.8 9.4-4.2c1.2-1.2 3.1-2.3 4.2-2.3q2.1-.2 3.6-3c.9-1.7 2.2-3 2.9-3s2-.7 2.7-1.7c1.3-1.5 1.4-1.4 1.7.8.2 1.3.8 2.9 1.3 3.5m-58.7-1.9c-.8 2.6-.8 5.5-.1 14.7q.6 6.6 3.7 3.1c1.4-1.6 4-2.1 4-.6q-.1.8-1.5 1.5t-1.5 2c0 1.9-3.6 3.9-5.6 3.2q-1.4-.6-.8-3 .5-2.3-.8-3.3c-.8-.4-2.4-3.1-3.6-6-1.9-4.4-2-5.6-1-8 2.4-5.7 8.7-8.8 7.2-3.6m-173.2 8c-.2 5.4.2 16.3.8 24.3 1.4 18.6 1.7 59.7.7 86.5-.5 11.5-.9 21.1-1.1 21.2-.1.1-1.2-.4-2.4-1.3-1.8-1.2-2-1.9-1.2-3.5q1-1.9 0-3.8c-1.5-2.8-1.3-35.2.5-72.1.8-17.3 1.4-34.7 1.4-38.5-.3-13.8.1-22.5.9-22.5.4 0 .6 4.4.4 9.7m99.3-7.7q-.6.9-1.6 1-.8-.1-.9-1 .1-1 1.6-1 1.3 0 .9 1m268.5 0c0 .5-1.6 1-3.6 1q-3.3 0-2.9-1c.3-.6 1.9-1 3.6-1 1.6 0 2.9.4 2.9 1m-226.2 1.3q1 1 1.2 2.6.1 3.1-8.3 3.1a34 34 0 0 0-9.9 2.5c-6.7 2.7-7.8 3-7.8 1.6s9.6-5.7 14.1-6.5c3-.5 3.6-1 3.2-2.6s0-1.8 2.9-1.6c1.8.1 3.9.5 4.6.9m58 0q1-.4 1.2.6.3 1.3 2.8 1.1l2.7.1-3.5 1.9c-3.7 2-10 2.7-10 1.1q0-1 .9-1.5c.5-.3.7-1.5.4-2.6-.5-1.8-.2-1.9 1.8-1.2 1.3.5 3 .7 3.7.5M104.5 503q-.6.9-1.6 1-.8-.1-.9-1 .1-1 1.6-1 1.3 0 .9 1m151.5.5q-.1 1.4-1.5 1.5-1.3 0-.9-1.5.7-1.4 1.5-1.5c.8-.1.9.7.9 1.5m5.8-.3c-.6 1.8-2.8 2.1-2.8.4q.1-1.5 1.6-1.6 1.4 0 1.2 1.2m-232.8 1c0 .7-.5 2-1 2.8q-1.1 1.9-1-1.3c0-1.5.5-2.7 1-2.7q1 .2 1 1.2m55 10.6v8.7l-4.5-.3c-4.3-.4-4.5-.5-4.5-3.6 0-2.7.5-3.3 3.3-4.1 2.5-.8 3.2-1.5 3.2-3.5 0-2.2-.4-2.5-3.2-2.2-4.9.3-4.4-2.6.5-3.1l4.5-.5c.4-.1.7 3.7.7 8.6m88-6.9c0 1.2-3.9 2.5-4.8 1.6-.7-.7 1.7-2.5 3.6-2.5q1 0 1.2.9m53.6-.1c.6.4 1.2 2.6 1.2 5 .1 2.3.8 5.8 1.6 7.6 1.3 3.1 1.3 3.6-.3 5-1 .9-2.1 1.6-2.4 1.6-1.1 0-.8-3.5.5-4.8 1.7-1.7-1.7-2.8-5.1-1.6s-4 4.8-1.2 6.6q2 1.2 2.1 1.9c0 .7-12 10.3-16.2 12.9-1.8 1.1-4 2-4.8 2s.3-.9 2.4-2.1c5-2.7 15.7-12 15-13.1-.3-.4-1.4-.8-2.4-.8-1.4 0-2-.9-2.2-3.7q-.2-4-2-4.1c-1.5-.3-1.8.5-1.8 5.2v5.6l-2.1-2.1c-1.6-1.6-2.3-1.8-3.5-.8a4 4 0 0 0-.3 5.6c1.3 1.3.5 4.3-1 4.3q-.8-.2-1.4-2c-.5-2.1-3.1-2.7-4.2-1-.4.6-.1 1.8.6 2.7 3.2 3.8-6.6 5.9-23.3 4.9a46 46 0 0 1-11.3-1.7q-1-1 1-.9c3.5.4 4.2.1 5.3-2.5 2.5-5.5.7-7.2-3.5-3.3-2.2 2.1-2.3 2.1-2.3.2a15 15 0 0 1 2.6-5.7q2.5-3.7 1.9-5.7c-1-3.1-2-2.4-6 4.1-3 4.8-4 5.7-4.7 4.5-1.4-2.5-3.2-1.9-6.7 2.4-3.2 3.9-3.2 4.2-1.6 6.6 3.1 4.8 11.2 6.7 27.8 6.7 7.5-.1 13.7 0 13.7.2 0 1-8.2 3.8-13.1 4.5-4.8.7-7.2.5-12.7-1.2-3.7-1.1-8.3-2.3-10.3-2.7-3.8-.8-12.4-6.4-13.3-8.7q-.5-1.3 2.2-1.1c2.4.2 2.7-.1 2.4-2.8-.2-1.7-.8-3.2-1.3-3.3-1.8-.7-.8-2 1.9-2.5 6.2-1.3 9.2-6.6 6.7-12.1-.7-1.7-.5-1.8 1.7-1.3q2.6.5 6.3-1.3c4.7-2.4 6.8-2.5 8.5-.5 1 1.2 3.2 1.4 10.6 1.2 5.2-.2 9.4-.1 9.4.2s-.7 1.5-1.5 2.5c-3.1 4.2-1 12.7 2.3 9.4q1.1-1.2 2.8.3c1.4 1.2 1.9 1 3.4-.9 1-1.2 2.8-2.2 3.9-2.2q2.1 0 4.7-4.3c1.4-2.3 3.6-4.9 4.7-5.8l2-1.7-2.4-1.2c-2.2-1.3-1.9-1.4 5.6-3l8.5-1.8q.6 0 1.6.6m126.7 3.3c-1.7 1.7-9 4.8-9.7 4.1-.3-.3-.6-1.5-.6-2.8 0-3 7.7-6 10-3.8q1.5 1.4.3 2.5m-171.4-.5c-.6.8-1.8 1.4-2.7 1.4-1.3 0-1.2-.3.3-2 2-2.2 4.3-1.7 2.4.6m18.1.8-3.5 6.2c-3.1 5.2-5.1 6.2-2.4 1.3q1-2-.1-3.4c-.9-1.1-.5-1.7 1.7-2.9q4.3-2.2 4.3-1.2m202.8.8c-.5 1.5-6.2 2.3-8.6 1.2q-2-.8 1.8-1.4c5.6-1.2 7.2-1.1 6.8.2m-46.3 3.4c1.9 2 1.5 3.9-.9 3.9-1 0-2.3.8-3 1.8q-2.2 3.2-6.4.1c-2.6-1.8-2.9-3.4-.4-3.4.9 0 3.1-.9 4.7-1.9 3.8-2.4 4-2.5 6-.5m-327.6 8.3a1695 1695 0 0 1 1 111.3c-.3 39.2-.4 40.8-2.2 40.8-1.7 0-1.7-.1-.2-1.6s1.5-1.8-.4-3.8q-3.7-4-.6-6.6c1.4-1.2 1.4-1.5 0-3q-1.6-1.6-1-6.1c.9-8.8 2-68.2 1.8-103.4-.1-23.2.2-35.2.8-33.6.5 1.3.9 4 .8 6m229.1-5.3q-.2.4-2 1.4c-1.7.9-2 .8-2-.9q-.1-2 2-1.4 1.8.5 2 .9m80.7 3.4c.7 1 3.1 2.4 5.3 3.1q4 1.2 4 3c0 2.9-1.9 6.9-5 10.9-2.6 3.3-3.6 3.8-8.8 4.4q-9 1-9.2-1.5c0-.5 1.4-.9 3-.9 6.1 0 14-5.9 14-10.5q.1-4-6.6 3-4.3 4.4-6.7 4.5c-2.3 0-9.7-2.6-9.7-3.4a35 35 0 0 1 5.5-3.5c3.2-1.8 6.5-4.7 8.1-7.1 3-4.5 4.3-4.9 6.1-2m-98.9 3.2c-.3 2.5-2.5 3.3-4.8 1.8-1.3-.8-1.2-1.1.5-2.4 2.9-2.2 4.7-2 4.3.6M84.5 531q0 1.5-2.5 1.1l-4.5-.6c-2.7-.3-2.7-.3-2-1.5 1-1.7 9-.8 9 1m20.5.4q0 .5-1 1.1-.9.4-1-.4.1-1 1-1.1 1 0 1 .4m-68.3 1.8c.6.7 1.5 2.8 2.1 4.6 1 3 .9 3.3-1.8 4.7-3.4 1.8-4 .8-4-6.1 0-4.5 1.6-5.9 3.7-3.2m191.3 1.3c0 .9-1.1 2-2.4 2.4q-3.6 1.4-3.6 6.1c0 1-.4 2.1-.9 2.5s-.9-1-.8-3c.2-2.6 1.1-4.2 3.7-6.5 4.1-3.5 4-3.4 4-1.5m-68.6 2.5c1.3 2.7 1.3 3-.2 3-.9 0-2.3-.4-3-.9-1.2-.7-1.2-1.2-.1-3l1.6-2.1zm-35.4 1.7c8.2 8.1 10.7 10.2 13 10.8a64 64 0 0 0 18.5 6.6c9.4 2 13.9 2.1 20.3.3 3.5-1 2.6 1.2-1.5 3.7-2.1 1.2-5.9 4.3-8.4 6.8s-7.3 6.5-10.7 8.8a23 23 0 0 0-9 10 86 86 0 0 1-10.8 20 60 60 0 0 0-9.1 17.8c-.5.6-6.6 1-14.8 1-13.3 0-14 .1-14 2s.8 2 12 2.5c6.6.3 12.4.2 12.9-.2q2.4-1.7 2.6.7c0 .8-1.4 1.7-3.4 2-5 1-28.4.1-29.5-1q-1.2-1 1.5-4.8l2.6-3.8 14 .2c11.1.2 14.2-.1 14.9-1.2 1.9-3.1-1.5-4.2-12.3-4-5.7 0-10.9-.3-11.5-.7-1-.6-.7-1.7 1.2-4.3 2.5-3.3 2.8-3.4 9.3-3.4 5.8 0 6.7-.2 6.6-1.8q-.2-1.8 2.5-1.7c6 0 6.2-5 .2-5.1q-7.7-.2-6.1-2.8c1.2-2 8.3-2.8 16.3-1.7 6.3.8 7 .7 8.9-1.2 1.8-1.8 1.9-2.3.8-3.7-1-1.2-2.8-1.6-6.9-1.4-5 .3-5.6.1-5.6-1.7q0-1.9-2.4-2.2c-2-.3-2.3 0-1.9 2.1.5 2.4.2 2.5-5.6 3.1-10.1 1.1-16.6.3-16.6-2 0-1.6 3.6-1.9 4.5-.4.7 1.1 8.7 1.3 12.3.4q2-.8 2.2-2.3c.2-1.5.9-2.2 2-2.9q4.5-2.8-1.7-3.4-3.6-.4-3.7-1.6l.3-6.7c.1-5.1.3-5.5 2.5-5.5 1.4 0 2.8-.5 3.1-1 .9-1.5-1.4-4-3.6-4-2.9 0-2.4-3.8.6-5.2 1.4-.6 2.5-1.9 2.5-3q.1-1.9-2.5-1.8c-4.2 0-3.1-3.6 1.8-5.8 3.2-1.4 3.1-3.8-.2-3.5-1.7.2-2.1-.3-2.1-2.7 0-3.7.5-3.7 4-.3m-40 .5c0 1.4-.9 1.8-4 1.8q-4 0-4-1.3c0-2 .5-2.2 4.4-2.2 2.8 0 3.6.4 3.6 1.7m154-.7c3.1 1.6 3.9 3.8 1.9 5.1s-.5 16.7 2 20.8c2.7 4.3 10.2 7.6 12.6 5.6q3.3-2.5-1-4-2.4-1-2.5-3c0-1.2-.5-3-1.1-4.1-.8-1.5-.7-3.4.2-7 1.2-4.7 1.5-5 3.9-4.4 3.4.9 3.4.9 2.1 4.6-1.5 4.4-1.5 4.6 1.4 6.5 2.1 1.4 2.8 1.4 4.1.3 1.4-1.1 1.5-.9 1 2.2-.4 1.9-.2 4 .3 4.8q2.6 4 5.6-6.8c1.1-4 2.5-7.1 3-6.9s1 3.2 1 6.8c-.1 7.2.7 6.4-11.1 11.4a34 34 0 0 1-10 2.6c-5.6 0-11.4-1.9-12-3.8l-2-4.7c-.9-1.6-2-7-2.5-12l-1.5-12.3c-.7-3.7.2-4 4.6-1.7m75 .5q-.1.9-2.1 1-1.7-.1-1.4-1c.3-.6 1.3-1 2.1-1s1.4.4 1.4 1m-20.7 2.5c3.7 0 6.7.3 6.7.7 0 1-7.6 2-13.3 1.7-2.8-.2-6.3.1-7.6.5-2.2.8-4-.4-4.1-2.6 0-1 6-1.5 9-.9 1.4.3 5.5.6 9.3.6m-77.1 8.7c.4 8.1.3 8.7-1.4 7-1.3-1.3-2.3-10.4-1.5-12.7 1.4-3.4 2.6-1.1 2.9 5.7m14.2-5.6c.3.9.6 4.6.6 8.3s.7 8.9 1.6 11.5 1.4 4.9 1.2 5.2c-.3.2-1.9.1-3.7-.2-2.6-.5-3.7-1.6-5.7-5.5a21 21 0 0 1-2.3-8.1c.1-3.1.2-2.9 1.6 1.7 1.7 5.7 2.9 7.5 5 7.5q1.6.1.8-2.3a58 58 0 0 1-2.1-17.2c.7-2.8 2.1-3.3 3-.9M45 548.7c0 1.1-1.2 1.3-5.2 1.1-4.3-.2-5.3-.7-5.7-2.3q-.6-2.4 1.2-.6c1.3 1 2.1 1 4.4-.1 3-1.5 5.3-.7 5.3 1.9m39.5-.8c-.2.5-1.5.9-2.7.9s-2.7.1-3.3.3q-.9.2-1.3-.6c-.1-.6 1.2-1.3 3-1.6q5.4-.9 4.3 1m163-.9q-.6.9-1.6 1-.8-.1-.9-1 .1-1 1.6-1 1.3 0 .9 1m-43.5 2q0 .9-1 1a1 1 0 0 1-1-1q.1-1 1-1t1 1m18 0q0 .9-.4 1-.6-.1-1.1-1-.4-1 .4-1 1 0 1.1 1m60.2 5.5c-.7 6-4.4 7.6-4.1 1.7.3-4.7.7-5.4 2.7-5q1.8.3 1.4 3.3m7.8-.5q0 1.8-1 2-.9-.2-1-2c-.1-1.8.5-2 1-2q1 .2 1 2m-86 3.6c1.4 1.3 4.7 3.3 7.3 4.4 8.6 3.8 4.2 3.2-5.4-.7-7.6-3.1-9.5-4.3-9.7-6.1-.3-2.1-.2-2.1 2.5-1 1.5.6 3.9 2.2 5.3 3.4m-119 3c0 5.6-.2 6.5-1.6 6-.9-.3-2.7-.6-4-.6-2.2 0-2.4-.4-2.4-5.4 0-5.8-.2-5.6 6.8-6.5q1.2-.4 1.2 6.5m351-2.6c0 .5-1.2 1-2.7.9l-2.8-.1 2.5-.8 2.8-.9q.2 0 .2.9m-250.5.9c.6 1.1-3.3 3.6-4.2 2.7q-.5-.6 0-2.1c.7-1.7 3.3-2 4.2-.6M8 563.6c1.4 3.5.1 5.4-2.7 4.3q-4-1.4-.6-5.1c2.1-2.3 2.2-2.3 3.3.8m297.8-1.4c-.5 1.5-5.8 2.4-5.8.9q.2-1.7 4.3-2 1.7 0 1.5 1.1M192 563.7c0 .5-1.3 1.7-2.9 2.8-1.7 1-4.5 4.4-6.3 7.3q-6.8 11-10.8 11.2c-1.2 0-4.7.7-7.7 1.6s-5.6 1.4-5.9 1.2c-.6-.7 7.6-5.8 10.4-6.4 3-.7 8.2-5.1 8.2-7s10.9-11.4 13.1-11.4q1.7 0 1.9.7m104.2 4a56 56 0 0 1 7.7 14.3c3.1 7 8.1 20.3 8.1 21.8 0 2.7-1.9 0-2.6-3.6a60 60 0 0 0-9.1-19.3l-6.6-9.8c-2.9-4.3-4.7-5-6.7-2.6-1 1.2-.8 2.1 1.4 4.9q4.3 5.7 1.2 5.6-2.8-.1-4.1-5.3c-.4-1.5-1.2-2.7-1.7-2.7s-.8-.4-.6-1c.3-1 7.9-6.9 9-7 .3 0 2.1 2.1 4 4.7M177 564.9c0 1.1-2.9 3.5-3.5 2.9-1-.9.7-3.8 2.1-3.8q1.3 0 1.4.9m21.8.8q-.4 1.6-2.1 2.1c-1.6.3-1.7.1-.7-1.7 1.3-2.5 3.3-2.8 2.8-.4m107.2 3.4q0 .8-1 .9-.9-.1-1-1.6.1-1.3 1-.9 1 .6 1 1.6m-100 2.1c0 1.3-3.2.6-3.7-.9q-.4-1 1.6-.6 2 .6 2.1 1.5m112.4 1.2c5.7 3.9 9.6 8.5 9.6 11.6 0 1.1.9 2.5 2.1 3.2 2.4 1.5 6.5 8.8 4.9 8.8-.6 0-2.4-.7-3.9-1.5-2.9-1.5-7.6-8.9-6.6-10.5.3-.5-.8-1.8-2.5-3s-3-3-3-4.1q-.1-1.7-1.4-1.9c-.8 0-2.4-1.4-3.6-3-2.7-3.9-2-3.8 4.4.4M9 573.7c0 2.2-.3 2.4-2.7 1.8-3.9-.9-4.1-1.4-1.3-3.5q4.2-3.4 4 1.7m75.6 17c-.7 1.7-7.9 1.8-7.3 0 .2-.6 1.5-1.2 2.8-1.2q2.6.2 2.7-2.6c.3-2.2-.2-2.8-2.5-3.4l-2.8-.7 2.8-1c4-1.4 3.7-5.2-.5-6.7-3.5-1.2-3.2-2.1 1.5-3.6l3.2-1 .3 9.4c.1 5.2 0 10.1-.2 10.8M280 573.8c0 1.5.7 3.8 1.6 5 1.7 2.4 1.4 3.9-.5 2.7-.6-.3-1.1-1.4-1.1-2.4 0-4.3-5-5.5-6.8-1.6-1.3 2.9-4.2 3.4-4.2.7 0-1.7 1.7-3.1 7-5.9 3.5-1.8 4-1.7 4 1.5M170.5 575c-1 1.2-3.1 2-4.8 2-2.9 0-3-.1-1.3-1.9s6.3-3.2 7.5-2.4q.2.5-1.4 2.3m21.9-2.2c.3.5-.4 2.1-1.5 3.8-1 1.6-1.9 3.5-1.9 4.3 0 1.8-5.9 11.1-7.1 11.1-2 0-.7-6.2 2.7-12.1 4.1-7.3 6.4-9.4 7.8-7.1m22.4 1.9c.3 2.1-1.5 5.8-4.6 9.5-1.8 2.2-4.2 1.2-4.2-1.8 0-1.9.5-2.4 2.4-2.4 3.3 0 4.2-1.7 2.1-4s-1.1-4.2 1.8-3.8q2.2.4 2.5 2.5m-12.4 1.9c.7 1.8-.9 2.7-3.4 1.9-1.9-.6-2.6-2.5-1.4-3.7.9-.9 4.2.3 4.8 1.8m24.3 1.1c2.3 1.5 5.1 1.8 17 1.8H258v4.2c0 2.5.9 5.7 2.1 7.8 1.2 1.9 1.8 4.2 1.5 5-.7 2-8.7 5.4-15.6 6.6-9.3 1.7-16 2.6-16 2.2 0-.2.6-1.4 1.4-2.6a68 68 0 0 0 5-19.8c-1-1.7-3.1-.9-4.2 1.5-.5 1.2-2 6-3.2 10.5-2.3 8.3-3.4 10.1-5.2 8.3-1.2-1.2 1.6-13.5 3.6-16.1 1.2-1.5 1-5-.4-6.4-.4-.5-1.8-.4-3 .3-2.9 1.6-5.4-.3-3.9-3.1q1.6-3.5 6.6-.2m88.8 4.6c5.7 8 5.9 8.6 3 9.7-1.5.6-3 1-3.4 1s-2.2-3.2-4-7.1c-2.4-5.4-2.9-7.4-2-8 1.8-1.1 3.1-.2 6.4 4.4M8.9 590.2c.1 17.2 1 37.5 2.2 49.1.8 7.3.7 10.2-.1 11.3-.7.7-1.4 5.9-1.6 11.6L8.8 675c-.1 1.4.4 4.4 1 6.7 1 3.2 1.9 4.4 3.8 4.9 2.4.6 2.4.7.7 2.6-1.4 1.5-1.7 3.3-1.5 8.4.3 5.5.1 6.5-1.5 7-1 .3-2.6 1-3.5 1.5-2.4 1.2-2.8 1.1-2.8-.5q.2-1.3 2-1.9c2.5-.6 3.7-3.6 1.9-4.7-.7-.5-2.1-.4-3.2.2-2.8 1.5-3.4.1-.8-2.3 2.1-2 2.1-2.2.5-4-1.4-1.6-1.5-2.1-.3-3.6.8-1 2-2.3 2.7-2.8 1.9-1.6.4-4.5-2.4-4.5q-4.5-.1-.3-4.6c2.2-2.3 1.9-4.4-.7-4.4-1.9 0-1.8-1.9.3-4.2 1.3-1.5 1.5-2.3.6-3.7s-.8-2.2.5-3.4c1.4-1.5 1.4-1.8-.1-3.5-2.1-2.3-2.1-3.1 0-5.4 1.5-1.7 1.5-1.9-.2-3.2-1.4-1-1.6-2-1.1-5q.7-3.8-.5-5.3c-1.1-1.2-1-1.7.4-2.4 2-1.2 2.3-4.5.5-5.2-1-.3-1-.9 0-2.7 1.1-1.9 1.1-2.5-.4-4.1-1.7-1.8-1.3-4.9.6-4.9q.9-.2 1-2c.1-1.8-.4-2-1-2-1.4 0-1.3-4.3.2-5.8q1.3-1-.2-2.7c-1.1-1.3-1.1-2 0-4.1 1.1-1.9 1.1-2.7.2-3.6-1.7-1.7-1.5-3.8.3-3.8q1.3-.2 1.5-2c.2-1.8-.6-2-1.4-2-2.6 0-2.9-2.1-.6-4.2l2.2-2.1-2.3-1.8c-2.5-1.9-2.3-2.4 1.3-4.5l2.4-1.3c.1-.1.2 5.4.3 12.1M161 578.7c0 1.5-4.5 5.3-6.2 5.3-2.8 0-2.1-1.8 1.5-4 3.4-2.1 4.7-2.5 4.7-1.3m-47.5 3q1.6 2.5.4 1.5c-1.6-1.5-7.3-1.6-10-.2-1.6.9-1.9.7-1.9-1.5s.3-2.5 4.9-2.5c4.2 0 5.1.4 6.6 2.7m162.6 1.5c1 1.8.8 2.4-1.1 4a8 8 0 0 1-3.1 1.8c-1.3 0-1.1-5.4.3-6.8 1.7-1.7 2.6-1.5 3.9 1m-78.4.4q.6 1.7-1.8 3.5c-1.3 1-2.4 2.4-2.5 3.1l-.2 3.6q-.2 2.2-2.7 3.2c-2.9 1.1-3 1.7-1.1 3.9 3.2 3.7-2.7 8.4-6.1 5-1.5-1.5 1.1-8.5 6.4-17.4q5.9-9.8 8-4.9m98.3 1.9c0 .6-1.8 1.7-4 2.4q-7.1 2.3-3.5 4.5c3.7 2.2 6.8 5.3 6.2 6.2-.3.6-2.2.8-4.1.6q-3.6-.3-4.2-2.6c-.4-1.1-1.5-3.2-2.5-4.5-2.6-3.3-2.4-4.4 1.2-6.5 6.1-3.6 10.9-3.7 10.9-.1m-75.6-.2c1.5 1.1 1.6 1.8.6 5.7q-2.6 9.6-6.8 8.5c-3-.9-2.8-3.9.3-5.3 2.4-1.1 2.5-1.3 1-3.5-1.3-2.1-1.3-2.5.1-4.5 1.8-2.5 2.4-2.7 4.8-.9m-14.6 3c1.9 2 2 2.7 1 6.4q-1.8 7.3 1.9 7.3c1 0 3.1 1 4.6 2.3 2.6 2.1 2.7 2.3.9 3.4-1.7 1-2.6.5-6.8-3.4a36 36 0 0 0-8.2-6c-4.8-2-4.1-4.9 1.1-4.5 4.2.4 4.6-.3 1.6-3.4-2.1-2.3-1.9-4.4.5-4.4.7 0 2.2 1 3.4 2.3m61.2 3.4q-.1 3.2-1.9-2c-1-2.9-.9-3 .4-1.3a8 8 0 0 1 1.5 3.3m-90.9.7c.5 1.7 1.5 3.4 2.4 3.8 1.8 1.1 2 2.9.4 4.5q-1 1.2-4.1.1l-2.9-1 2-2q4-3.7.2-3.8-4.8 0-6.1 3.5-.8 2.1-5.7 3.7a12 12 0 0 0-7.4 5.4c-5.2 7.7-6.1 12.4-6.9 35.3-.5 11.8-.6 22-.3 22.7.3.8 1.4 1.4 2.4 1.4 1.8 0 1.9-.7 1.6-10.3-.2-5.6 0-16.1.4-23.2a49 49 0 0 1 3.3-19.4c3.7-9.1 4.4-9.7 11.6-9.5 3.3 0 6.4.4 6.8.8s-.8 2.1-2.7 3.8c-4.3 3.9-3.5 5.5 4.2 8.1 6.1 2 7.8 4.9 3.6 6.2-1.9.6-2 1.3-1.8 11.3.3 11.2 1 15.9 2.4 15.4.4-.1.7-4.7.6-10.2-.2-10.8.4-13.6 2.3-9.8.6 1.2 1.8 2.3 2.6 2.3 1.2 0 1.4-1.2 1.2-5.7-.3-4.5 0-6 1.6-7.6a11 11 0 0 0 2.4-3.3c.4-1.1 1.1-.9 2.9.7 1.3 1.1 4.5 3.2 7 4.7 2.5 1.4 6.8 4.6 9.5 7.1 4.9 4.4 4.9 4.4 3.4 7.3-2.1 3.7-1.3 10.6 1.3 11.1 1.8.4 2.2-1 1.8-6.1-.3-3.8 1.9-3.4 4.9 1 6.1 8.9 7.9 12.7 7 14.3-1.2 2.3 1.4 30.1 3.4 36.7.9 2.8 2.1 8.7 2.7 13l1.6 11.3c1.1 7.7-.3 18.3-2.8 20.6-1.7 1.6-1.9 1.5-2.8-.7a356 356 0 0 1-6.7-55.9l-1-19.3c-.6-12-.9-13.8-2.3-13.5q-1.6.3-2.5 5.5c-.8 4.1-1.4 5.3-3 5.5-2.8.4-2.7 2.2.2 2.6 1.8.3 2.2 1 2.2 3.8s-.4 3.4-2 3.4c-3.1 0-2.4 2.8.8 3.2 2.1.2 2.8.9 3 3 .3 2.5 0 2.8-2.8 2.8-3.5 0-3.8 2.2-.4 2.9 6 1.1 4.7 5.2-1.3 4.2l-3.8-.6-.7-9c-2.3-31-2.6-37.8-1.7-40.2q1.6-4.2-1.7-4.3c-3.1 0-3.7 4.3-2.4 18.7.7 7.6 1.6 20.3 2 28.3.5 8 1 15.4 1.3 16.5.2 1.1 1 9 1.6 17.5l2.1 26c.5 5.8.5 10.9.1 11.3-1.4 1.4-12 2.4-16.9 1.6l-12.6-2.1c-7.6-1.2-9.4-2.3-8.3-5.2.4-1 1.6-1.1 5.4-.5 8.2 1.5 8.8 1.5 8.8 0q0-1.5-7.5-3.1l-7.5-1.6.1-13.7c.2-15.2.8-16.9 5.8-16.7 4.6.3 5.6.1 5.6-.9 0-.6-2.1-1.1-4.7-1.3-4.4-.3-4.8-.5-4.8-2.8s.5-2.5 3.8-2.8c4.3-.4 5.1-2.2.9-2.2-3.7 0-5.4-1.7-4.1-4.2q1-1.8 4.4-1.8c5.6 0 5-1.9-.7-2.2-4.7-.3-5.2-.6-5.9-3q-1.2-5.2 4.8-4.7t4.3-3.2c-.9-1.6-.7-2.1 1.5-3.1 4.3-1.9 4.9-.2 3.8 10.4-.6 5.4-.7 12.5-.2 16.8.4 4.1.8 11.2.8 15.7.1 10.3 2.1 22.3 3.7 22.3s2.3-6.8.9-11.5c-1.5-5.6-1.2-92.1.4-99 1.7-7.2 1.8-8.7.4-9.2-4.4-1.5-7.5 15.6-6.4 35.7.4 8 .3 15-.1 15.7q-1 1-3.6.4c-3.5-1-4.1-4.4-1.1-6.5 2.3-1.5 2.3-1.6.4-3-1.5-1.1-1.9-2.4-1.6-5.5.1-2.3-.2-4.1-.7-4.1-1.1 0-2.2 8.2-2.2 17 0 3.8-.5 7.1-1.2 7.8-1.5 1.5-4.5 1.6-5.3.2-1.3-2.1-.3-55.9 1.1-58.2.9-1.4-1.9-2-3.2-.7-1.1 1.1-1.4 6.7-1.5 26.9-.2 27.6.5 39.1 2.7 45.8 1.2 3.7 1.2 5.9-.1 16-.9 6.4-1.5 17-1.4 23.5s0 11.9-.2 12l-3.4 1.3c-2.6.9-4.2.6-10.4-2-8.7-3.7-12.4-7.5-9.9-10.3.8-1 1.8-2.6 2.2-3.7 1.1-3.3 3.6.1 3.6 5 0 3.5.3 4.4 1.8 4.4 1.6 0 1.7-1.5 1.5-19.2-.1-11.2-.9-24.1-1.9-30.7-.9-6.7-1.3-13.2-.9-15.9.6-4.3.6-4.5-1-3.2-1.5 1.3-1.7 2.8-1.1 12 .3 5.8 1 14.3 1.6 19 1 8.8.3 23-1.1 23-2.3 0-3.6-4.9-3.4-13.3 0-4.8-.2-8.7-.5-8.7-1.6 0-2.5-6.5-2-14.9.4-7.8.2-9.8-1.2-12-2.2-3.2-2.3-8.1-.3-15.8 1.5-6.2 1.7-16 .3-16.9q-3.5-2-3.6 9.2c0 4.2-.5 8.1-1.1 8.7-1.9 1.9-2.3.1-1-4.2 1.1-3.6 1-4.4-.4-5.8-.8-.9-2.2-1.3-3.1-1-3.4 1.3-4.8 5.6-5.7 17.2a81 81 0 0 1-1.5 12.6c-.3.5-.7 3.3-1 6.2l-1.2 12.6c-.9 8.2.2 10.6 4.4 9.8q3.7-.7 2.6 5.1c-.4 1.8-.7 2-1.8 1.1s-1.8-.8-3.2.5c-1.7 1.5-2 1.4-4.5-1.2-2.9-3-3.3-5.7-1.8-12.5.6-2.3 1.7-10.3 2.6-17.8 1.6-14.3 7.2-37.1 10.2-41.5 1.2-2 1.7-5 1.7-11.8.2-15.2 4.1-21.6 20.4-33 2.9-2 6.4-4.1 7.8-4.6l2.4-1-2.1 3a12 12 0 0 1-3.6 3.4c-1.6.6-1.8 3.6-.2 3.6 1.9 0 10.9-6.3 10.9-7.6 0-.7-.8-1.8-1.7-2.4-1.4-.8-.9-1 2.6-.8 4 .3 4.5.6 5.2 3.2m103.9 2.8c3.7 5 3.7 6.1.3 7.7-3.1 1.4-3.6 1-5.2-4.7-.9-3.4-1-4.7 0-5.8 1.6-1.9 1.5-1.9 4.9 2.8m20.9-1.8c.9 1.1 2.6 7.1 3.4 12.5.4 2.7-1.9 2.1-3-.9q-1.2-3-3.2-3c-3 0-3.7 2.7-1.6 6.2 1.6 2.7 1.6 3.1.2 4.6s-1.7 1.4-2.3-.1c-.8-2.1-4.3-2.2-5-.3-.6 1.5 1.9 7 3.5 8.1.6.3 3.2-1.5 6-3.9 4.8-4.3 8.7-6.4 9.8-5.2 1.1 1.1-.7 3.7-3.8 5.4-6.7 3.7-6.2.7-6.4 37.3-.2 18.4-.8 37.4-1.4 42.4s-1.4 13.3-1.7 18.5c-.5 5.8-1.2 10-2.1 10.8q-2.6 2.7.2 3.8 1.5.6 1.5 4.7c0 2.4.7 4.8 1.7 5.9 2.8 3.1.2 4-3.5 1.2-2.8-2.2-3.2-3.1-3.2-7.2 0-2.6.6-8.3 1.4-12.7s1.5-12.2 1.5-17.4a299 299 0 0 0 1-30.7c0-30.3.1-32.4.7-39.2.6-5.8.5-6.2-1.4-6.2-2.4 0-4.7 5.7-3.7 8.9q.7 2-1.5 3.1c-2.6 1.4-2.6 3.7.1 4.5 3.4 1.1 1.5 3-3.5 3.3-3.8.3-4.7.6-4.4 2s1.6 1.8 5.1 2l4.7.3.1 4.2c.2 21.7-1.6 56.4-3.9 72.1l-.7 5-5.5 1.7c-3 .9-8.6 2.8-12.4 4.3a36 36 0 0 1-12.5 2.6h-5.6l.3-8.7c.2-4.9 1-11.1 1.8-14 1.8-6.4 1.8-8.3 0-8.3-.8 0-1.8-.4-2.1-1a57 57 0 0 1 6.1-17.7c1.2-1.6 1.4-1 1.5 4.7.4 17.2.4 20.6-.3 22a56 56 0 0 0 2.3 18.4c.5.6 1.5-.6 2.4-2.7q1.5-3.6 4.1-4.3 5-1.1 2.5 2.7-2.3 3.8 1.9 2.4c1.8-.6 2.1-1.2 1.6-3.5-.6-3.2.6-4 6-4 2.9 0 3.4-.4 3.9-2.8l1.6-4.5c.8-1.4.6-2.3-.5-3.6q-3-3.5-.1-6.1c1.4-1.2 1.3-1.6-.7-3.7q-3.5-3.5 1.6-4.5c3.2-.5 3-2.8-.3-3.4-3.9-.8-4.2-4-.5-5.4 3-1.2 2.7-3.4-.4-3.8-2.9-.4-3-4.7-.2-6.2s2.5-3.9-.6-5q-2.7-.9-2.2-3.3c.2-1.8.9-2.2 3.7-2.2 5.9 0 4.7-4-1.4-4.7l-3-.3v-8.3c0-6-.4-8.5-1.4-9.1-1.6-1.1.8-5.8 9.6-18.3a86 86 0 0 0 5.3-8.2c0-.4-1.8-2.5-4-4.8l-4-4.2 2.5-2.6c2-2.1 2.4-3.3 1.9-5.7-.6-3-.4-3.2 3.3-4.3 2.2-.7 5-2 6.3-3 2.3-1.8 2.4-1.9.7-3.8-.9-1-1.7-2.4-1.7-3 0-1.6 2.5-1.5 3.9.2M108 595.8c0 .5-1.1 1.9-2.4 3.1-2.1 1.9-2.4 2-3 .6-1.3-3.4-.6-4.5 2.4-4.5 1.7 0 3 .4 3 .8m212 2.7c0 2 .7 5 1.6 6.7 1.3 2.6 1.4 3.8.6 6.3a155 155 0 0 0-1.2 25.8c-.1 19-.4 22.7-1.6 22.7-1.9 0-1.8 1.6.2 2.4 1.5.6 1.6 2.8 1 22.9l-1.1 37.7-.5 15.5-6.7-.3q-10.9-.6-12.1-4c-.3-.9 1.5-1.2 6.7-1.2 3.8 0 7.3-.5 7.6-1 .8-1.2-.2-1.5-8-2.6-5.5-.8-6-1.1-6-3.4s.5-2.5 5-3 5-.8 5.7-3.5c1.1-4.3 3.6-87.8 2.8-95.3q-.6-6.3.6-7.3c.9-.7.9-1.7.1-3.9-1-2.5-.8-3.3 1.2-5.4s2.1-2.8 1.2-6.2c-1.5-5.4-1.4-6.4.9-6.4 1.6 0 2 .7 2 3.5m-236.3 0q1 .5.8 1.8-.7 1.3-4 .9-3.7-.3-3.5-2.3c0-1.9 1.5-2 6.7-.4m258.2 2.9c.6 2.5 1.1 6.6 1 9.3l-.1 4.8-1.2-3.9q-1.3-3.9-3.5-4.7c-1.9-.7-2-1.2-1.1-3 .6-1.1.9-2.7.6-3.6-.7-1.8.1-3.3 1.8-3.3.8 0 1.9 2 2.5 4.4m-71.2.6c1 2.6.9 3.2-.8 4-1.6.9-2.1.7-3-1.6-.5-1.5-.8-3.3-.5-4.1.9-2.3 3.1-1.4 4.3 1.7m-70.9 2.3 2.2 2.1-2.6 2.7c-2.2 2.3-3 2.6-5 1.7-1.9-.9-2.2-1.6-1.7-4.2 1.1-5.9 2.5-6.4 7.1-2.3m61.6 1.2q.6 1.6-2 2.5c-6 2.3-8.9.1-3.1-2.4 4.2-1.9 4.4-1.9 5.1-.1M84 608.3c0 1.5-.3 1.6-2 .7-1.1-.6-2.5-.8-3-.5q-1 .4-2 0c-1.9-1.1-.2-2.2 3.4-2.1 2.8.1 3.6.5 3.6 1.9m249.5 1.2c4.3 3.7 4.3 6-.1 2.6a10 10 0 0 0-4.5-2.1q-1.9 0-1.9-2c0-2.9 1.9-2.4 6.5 1.5m-153.8-.5c.3 1.1 1.6 2.3 2.9 2.6q2.5.5 2.4 3c0 3.1-.7 3-5.3-.9q-4-3.3-3.1-5c.8-2.3 2.5-2.1 3.1.3m101.3 3.2q-4.4 3.6-3.8-.4a6 6 0 0 1 2.8-3.5c2.2-1.1 2.6-1 2.9.4.2.9-.7 2.5-1.9 3.5m-59.2-3.6c2.5.7 2.9 2.6.8 4.3s-4.6.3-4.6-2.5c0-2.6.3-2.7 3.8-1.8m-15.1 6q-2.2 2.4-3.4 1.2c-1.7-1.4-1.6-2.8.4-5 1.5-1.7 1.8-1.7 3.4-.2 1.8 1.6 1.8 1.8-.4 4m24.4 1.7c-2.1 7.7-2.6 8.6-5.7 9.7-2.9 1.1-3.1 3-.5 3.7q1.8.6 1.4 1.9c-.7 2-1.7 1.8-5.3-1.2l-3.1-2.7 2.6-2.7c1.4-1.4 2.3-2.9 1.9-3.2-1-1.1 6.8-11.8 8.6-11.8s1.7.3.1 6.3m41.2-2.1c.4 1.2.4 2.5.1 2.8-.8.7-3.4-3.1-2.8-4.1.9-1.6 2.2-1 2.7 1.3m-53.3 3c0 .5-1.2 2-2.7 3.3q-2.7 2.4-4.3 1.4c-4.3-2.5-4.3-2.5-2-5.7 2.2-3 2.3-3 5.6-1.4 1.9.8 3.4 2 3.4 2.4m46.1-3.2c-.2.3.1 1.5.8 2.8 1 2 .9 2.3-1.4 3.4-2.2 1-2.8.9-3.6-.3-1-1.7-1.2-5.3-.2-6.3.8-.8 5-.4 4.4.4m-181.3 1.7c-.3 1.4-1.1 1.7-3.8 1.5-4-.4-4.4-.7-3.5-2.1.3-.6 2.2-1.1 4.1-1.1 2.8 0 3.5.4 3.2 1.7m172.5 2c-.7 4.5-1.6 5.8-3.7 5-2.3-.9-2.2-7.4.2-8 3.8-1 4.1-.8 3.5 3m74.3-.2c.3 1.4.3 3.2 0 4.1-1 2.7-3.1.9-3.4-2.9-.2-2.8.1-3.7 1.2-3.7q1.5.2 2.2 2.5m-92.1.5q.4 1-1.5 2.2c-2.8 1.8-2.5 4.4.8 5.6a44 44 0 0 0 18 .8l4.4-.8-1.7 2.6c-1.5 2.3-1.7 4.4-1.2 14.4.6 13.5 2.2 19.7 5.2 19.7 2.3 0 2.3-.7.6-10-.6-3.3-1.1-10.8-1-16.6l.1-10.7 7.2-2.1c3.9-1.2 8-2.8 9-3.6 2.9-2.2 3.2-2 5.6 3l2.2 4.4-4.6 5.6a39 39 0 0 0-5.1 7.5c-1.6 5-3.4.5-3.8-9.5-.2-4.3-.5-5-2.2-5-1.9 0-2 .6-1.7 8 .2 4.4 1 9.4 1.7 11.2 1.6 3.8 1.3 4.9-6.5 20.8l-7 14.8c-1.2 2.6-2.6 4.5-3.1 4.1-.5-.3-.9-3-.9-6 0-5.2-.2-5.5-2.2-5.2-2.1.3-2.3.8-2.3 6.1.1 5 .4 6.1 2.4 7.6l2.3 1.8-2.1 4.8c-1.7 3.9-2.3 4.5-3.5 3.6-2.6-2.2-8-31.1-5.9-31.1q1.1.2 2.8 2c1 1.1 2.3 2 2.8 2s-2-2.7-5.7-6.1a29 29 0 0 1-6.6-7.5c0-.8-1.1-2-2.5-2.6-2.8-1.2-3-1.9-1.4-3.5.8-.8-.1-3-3-7.8-2.3-3.7-3.8-7.2-3.4-7.8q.7-.9 1.4 1.1c1.2 3.3 3.3 2.7 5.2-1.5 1.2-2.7 1.3-4 .6-5s-.5-2.8 1.2-6.8q3.2-7.9 5.4-4.5m7.5 1.5c0 3-2 3.3-4.3.7q-3-3.2 2-3.2c1.8 0 2.3.5 2.3 2.5m63.4 4c1 5 .8 48.7-.2 69a583 583 0 0 0-.8 22l.1 5-3.9.3c-2.1.2-4.2 0-4.6-.5s0-7.1.8-14.8c1.4-14 2.7-47.2 2.5-65.9-.1-9 .1-10.1 2.1-11.7 1.8-1.6 1.8-1.8.4-1.9-2.8 0-3.2-2.2-.7-4.1 2.9-2.2 3.5-1.8 4.3 2.6m28.3-.3q-.5 1-.5-1.2c0-2.2.2-1.9.5-1.3.2.7.2 1.9 0 2.5m-255.2 5.7a65 65 0 0 0-.7 10.6c.2 4 0 4.6-.9 3.2q-1-1.8-3-1.2-3.8 1.1.4-2.6l2.2-2-2.2-1.5c-2.9-2.1-3.1-5.4-.3-5.4 2.6 0 4.4-3.4 2.6-4.9q-1.4-1.1-2.2-1-2.6.4-2-.9c.3-.5 1.9-.7 3.7-.4l3.1.5zM43.1 625q3.8 0 3.4 1c-.7 1.1-11.8 1.4-12.8.4-.3-.3-.3-1.2 0-1.9q.3-1.5 3-.4c1.3.5 4.2.9 6.4.9m304.5 14 2.5 18a975 975 0 0 1 4.9 46.1c0 3.3-.2 3.6-3 3.7-3.6.1-3.9-1.4-.5-3 2.8-1.3 2.3-3-.8-2.6-2.7.4-3.6-3.2-1.2-5.2 1.4-1.2 1.3-1.5-.7-3.7-2.2-2.4-2.2-2.5-.5-5.5 1.5-2.7 1.6-3.3.4-4-1.5-.8-1.7-10.7-.2-14.1.4-.9.3-2.3-.3-3-1.2-1.4-2.9-15.9-3.7-31.2-.6-13.6 1-11.3 3.1 4.5m-16.8-6.9c.3 4.5.2 4.6-2.3 4.2-2.1-.5-2.5-1.1-2.5-4.2 0-4.2.7-5.3 3-4.9q1.5.2 1.8 4.9M340 669c1.8 20.7 2.5 36.5 2.5 51.1-.1 13.6-1.1 18.4-3.9 17.3-1-.4-1.4-10.3-2-49.8-.4-27.1-.3-51.3.1-53.7.6-3.6.9-2 1.5 8.6A843 843 0 0 0 340 669m30-33c-.6 1.2-1 4.2-.8 6.8.2 3.8.6 4.7 2.1 4.6 2.6-.3 2 1.3-.8 1.8-2.5.5-2.5.5-2.5-6.7 0-7 .4-8.5 2.2-8.5q.7.2-.2 2m62.5-1q.4 1-4.2.9c-3.9-.1-4.3-.3-2.3-.9q5.4-1.7 6.5 0m-71.1 6.7q-1.4 13.6-1.4.5c0-4.3.4-7.2 1-7.2q1 .1.4 6.7M90 638.8c.1.9.7 3.4 1.4 5.5.8 2.2 1 4 .4 4.3s-1.3 1.7-1.9 3.1c-1 2.8-3.3 2.1-2.4-.8.4-1.1.7-4.9.7-8.4 0-3.6.4-6.2.9-5.9q.8.6.9 2.2m37-.6q0 2.4-1.1 1.1-1-1.1-.5-2.2 1.6-2.5 1.6 1.1m-6.1 4c-1.1 4.8.2 9.5 2.2 8.3q.8-.5.9 1 0 1.8-1.6 1.1c-.9-.3-2.3-.6-3.1-.6-1.3 0-1.4-1-.9-6.2.7-5.4 2.2-9.6 3.2-8.6.1.2-.2 2.4-.7 5m-15.9-2.7q0 1.3-1 1.5-.9-.2-1-1.5c-.1-1.3.5-1.5 1-1.5q1 .1 1 1.5m8 .7q.1 2.7-1 .8-2-3 0-3c.6 0 1 1 1 2.2m217.8 1.6c.4 2.5-2.3 4.1-4 2.4q-1-1 .2-3.2c1.4-2.6 3.4-2.2 3.8.8m99.3-.7c-2.5 1-6.5.8-7.7-.4-.4-.4 1.7-.7 4.7-.6 4.5 0 5 .2 3 1M70.4 652.5c-.6 8.6-1.1 9.9-3.3 8.6-1.2-.8-1.2-1.4-.1-4.1 1-2.3 1-3.4.2-4.2q-1.3-1.2.5-3c1.5-1.6 1.5-2.2.4-4s-1-2.2 0-2.9c2.3-1.4 3 1.3 2.3 9.6m10.6-5.1c0 .7-1.1 1.6-2.5 1.8q-2.4.6-2.5-.8.2-1.2 2.3-1.7l2.5-.6q.2 0 .2 1.3m249.8 3c-.4 2.5-3.6 3.4-4.4 1.2-.8-2.1 1.3-4.6 3.2-3.9.8.3 1.4 1.5 1.2 2.7m-233.4 1.5c-.8.9-2.2-1.2-1.7-2.6s.7-1.4 1.3.3c.4 1 .6 2.1.4 2.3M396 651c0 .5-1.2 1-2.6 1s-2.3-.4-1.9-1 1.5-1 2.6-1q1.7 0 1.9 1M18.3 667.8c-.3 8.1-.9 15.1-1.4 15.6s-.7-3.5-.5-9.5l.5-16.2c.1-3.5.5-5.6 1.1-5.2s.7 6.2.3 15.3M83 656.2q0 .8-1 .8-.9-.2-1-2.3-.1-2.6 1-.7.9 1.4 1 2.2m247.8 1.1q.3 1.7-1.6 1.7-4-.1-2-2.7c1.4-1.7 3.2-1.2 3.6 1m100.4-.7c1 .6.2 5.3-1.1 6.7-.5.4-2 .5-3.5.1-2.5-.6-2.6-.8-1.1-2.3 2.1-2.4 1.9-2.8-1.5-3.5-1.6-.3-3-1-3-1.4 0-1 8.6-.6 10.2.4M275 670.4q.9 6.9-.1 8.8t-.1 3.1c.5.7 1.2 2.5 1.4 4 .5 2.3.1 3-1.9 3.8-3 1.1-4.6 1.2-3.9.1.3-.5.1-6.7-.3-13.8-.8-12.1-.8-13.1 1.3-16.9l2.1-4 .3 4c.1 2.2.7 7.1 1.2 10.9m86.5-1.9c-.1 12-1.9 13-3.4 1.7a148 148 0 0 1-1.1-11.7v-2.9l2.3 2.2c1.9 2 2.2 3.3 2.2 10.7M118.3 658c1.5 0 2.7.5 2.7 1 0 .7-3.3 1-9 .9-4.9-.1-9-.5-9-1 0-.9 7.4-1.8 10.5-1.3 1.1.2 3.2.4 4.8.4m117.1 1.6c2 2.1 2.3 3 1.5 4-2.2 2.7 2.6 30.7 6.1 35.1 3.2 4.1 3.4 8.1.6 15.8-1.5 3.8-2.6 7.1-2.6 7.2q0 .3-.9.3c-.4 0-1.6-5.3-2.5-11.8-.9-6.4-2.6-16-3.7-21.3-2-9.6-3.9-28.3-3.1-30.7.6-1.8 1.6-1.5 4.6 1.4m95.8 4.2c.8 2.9-1 6.4-2.9 6-1.9-.3-2.9-3.8-1.9-6.4.8-2 4.3-1.7 4.8.4m-196.3 1.1c.9.6 1.5 2.8 1.7 5.6a12 12 0 0 0 1.9 6.5 4 4 0 0 1 1 3.9c-1 3.1-2.5 2.5-2.5-.9q0-3-2.5-5.2c-1.9-1.7-2.5-3.1-2.5-6.5 0-4.4.4-4.9 2.9-3.4m-66.8 2.4-.1 3.2c0 1.4-.4 2.5-1 2.5s-1-1.6-1-3.6q0-3.3 1.1-3.2 1 .4 1 1.1m364.1 2.2c.6 2.9-.9 4.5-1.8 2.1q-.7-1.5-3.9-1.6c-6.3 0-7.4-1.5-1.5-2.1l6.1-.7q.7 0 1.1 2.3m-320.9 1.2c-.7.2-2.1.2-3 0q-1.3-.5 1.2-.5 2.6 0 1.8.5m155.1 10.8 1.2 12.3q.6 4.3-.7 6.8c-1 2-1 2.9-.1 4.4 1 1.7.8 2.2-1.8 3.5-1.6.8-3.3 1.5-3.8 1.5-.8 0-.7-17.1.1-20q0-1-1.6-2.2c-1.7-1.2-1.6-1.7 1.5-8.5 1.8-4 3.6-6.9 4-6.5s.9 4.3 1.2 8.7m65-7.9q.5 1.7-1.1 2.9c-1.6 1.2-1.6 1.5-.2 3.2 1.2 1.3 1.6 4.6 1.8 13l.3 11.3-2.6 1c-3.1 1.1-3.4 2.6-.7 3.5 2.1.6 3.6 8.2 2 10.1q-.8 1.2.1 6.2c.5 2.9.7 5.8.4 6.6s-.1 2.9.4 4.8c.8 3.1.6 3.8-2.1 6.8-2.3 2.6-4.1 3.5-8.1 4.1-3.8.7-5.4.5-6.5-.5-1.6-1.7-.7-3.6 1.7-3.7.9 0 3.1-.5 4.9-1.2l3.2-1.2.4-33.2c.3-18.2.8-33.6 1.1-34.2 1.1-1.7 4.3-1.3 5 .5M117 676.5c0 1.3-1.1 1.5-6.5 1.2-9.4-.5-10.1-2.1-1-2.5 6.3-.2 7.5 0 7.5 1.3m15.4 9.7c-.4 4.6-.8 8.5-1 8.6q-.3.2-1.4-1.8c-.8-1.6-.8-3 .1-5.8.7-2 1.2-4.9 1-6.5s.2-2.7.8-2.7q1.2-.2.5 8.2M29 683q.1 2.1-2.5 2c-2.6-.1-2.5-.5-2.5-2s.7-2 2.5-2 2.5.5 2.5 2m438.2 4.2q-1 .9-4.8-1.1l-3.9-2 3-.1c1.7 0 3.7-.5 4.5-1q1.6-1.1 1.8 1.1c.2 1.2-.1 2.6-.6 3.1m-247.4 3c.3 2.7.2 2.8-4.2 2.8s-4.6-.1-4.6-3.1c0-2.9.1-3 4.3-2.7 3.8.3 4.2.6 4.5 3m-80.8.9q0 1.7-1 1.9c-.5 0-1-1.2-1-2.6q0-2.3 1-1.9c.6.3 1 1.5 1 2.6m-110.6-1.5c2.5 1 1.9 2.6-.6 1.9-3.1-1-4.7-2.5-2.6-2.5.9 0 2.3.3 3.2.6m192.1 8.9c0 1.5-.9 2.1-3.7 2.6-4.4.7-4.8.4-4.8-3.1 0-2.5.2-2.6 4.3-2.1 3.3.5 4.2 1 4.2 2.6M276 697c0 2.1-3.3 2.9-4.5 1-.9-1.5.4-3 2.6-3q1.9 0 1.9 2m-144.3 4q-.5 4.2-2.7 1.5c-1-1.2-1-1.8 0-3 1.5-1.9 3.1-1 2.7 1.5m6.3.4c0 .8.3 2.1.6 3q.6 1.6-1 1.6c-1.6 0-1.6-.9-1.6-3 0-1.7.5-3 1-3q1 .1 1 1.4m138 3a3 3 0 0 1-1.1 2.2c-1.4.8-3.3-1.1-2.5-2.5 1-1.6 3.6-1.3 3.6.3m-55 .5.6 4c.5 2.5.3 3.1-1 3.1-1 0-2.7.6-3.9 1.2-2.1 1.2-2 1.3 1.7 1.8 4.1.5 6.8 3.2 5.1 4.9-.6.5-2.8 1.1-5 1.3l-4 .3-.9-7.2a34 34 0 0 1-.3-8.7c.7-1.7 7.7-2.3 7.7-.7m135.2 11.3q.7 10.6-2.1 10.8-.8-.1-.4-1.9t-1.6-2.4c-2.8-.7-2.6-2.5.4-3.9 3.2-1.4 2.7-3.2-.8-3.6-3.3-.4-3.5-2.5-.5-4.6 3.9-2.8 4.5-2 5 5.6m-79.4-3q-.4 2.1-1.8 2.3c-1.4.2-1.6-1-1.8-2.3q-.5-2.4 1.8-2.2c2.3.2 2.1.5 1.8 2.2m-137.3 3.5c0 2.3.7 4.9 1.6 5.9a6 6 0 0 1 1 4.8l-.6 3-2.7-3.3c-2.4-2.8-2.8-4.2-2.8-9.3s.2-5.9 1.8-5.6c1.3.2 1.7 1.3 1.7 4.5m128.3-2.5q-.3 2.1-3.2 2.9c-4.4 1.2-5.3-.1-2-2.8q5.7-4.4 5.2-.1m-20.8 6.5c-.5 2.1-1 7.6-1.2 12.3-.3 6.5-.8 8.5-1.8 8.5q-1.4-.2-1.8-2c-.2-1.1-1.1-2.7-1.8-3.6-1.3-1.4-1.2-2.2.9-6 1.3-2.5 3.1-6.4 4-8.7q3.2-7.8 1.7-.5m30.8.7c.5 2.4-1 3.8-3.1 3-1.7-.6-2.3-3.5-1-4.8s3.8-.1 4.1 1.8m-9 1.7c.2 1.9-.3 2.8-2.3 3.7-4.2 1.9-5.5 1.5-5.5-1.8 0-5.1 7.2-6.8 7.8-1.9m-44.4 1.8c.9 1.3-1.4 2.8-5.6 3.5q-5.8 1-4.2-2.8c.7-1.8 8.8-2.3 9.8-.7m122.8 4.2c-1.2 3-2.5.8-1.6-2.7q.7-3 1.5-1.1c.5.8.5 2.5.1 3.8m-121.2 3c0 1.2-3 2.6-7.3 3.4-3.3.6-3.7.5-3.7-1.2 0-1.5 1-2.2 4.3-3q6.6-1.5 6.7.8m1.2 7.4q-.4 2.6-2.7 2.5c-1.2 0-3.7.3-5.5.6-2.7.6-3.2.4-2.9-1.1.4-1.8 5.6-4.3 9.5-4.4 1.7-.1 2 .4 1.6 2.4m126.2 4.7c-.9 12.4.1 11.4-11.5 12.2q-10.2.6-11.5-.5c-.7-.6-2.1-.9-3.1-.7-1 .1-2.4-.1-3.1-.6-1.8-1.1 5.1-4.8 7.5-4q1.9.6.5-.3c-2.2-1.7 1.1-3.7 3.7-2.3 3.9 2 9.4-.4 13.7-6 2.1-2.8 3.9-5 4.1-5s.1 3.3-.3 7.2m-44-2.4c1 1.7-.7 5.2-2.4 5.2-2.5 0-5.1-2.7-4.4-4.5.6-1.6 5.9-2.1 6.8-.7M185 764q0 .9-1 1a1 1 0 0 1-1-1q.1-1 1-1t1 1m121.9 2.4c.2.6 1.7 2.3 3.2 3.9 2 2 3.7 2.7 6.1 2.6 5-.2 6.8-.9 6.8-2.5 0-2 1.8-1.7 2.4.4q1.6 4.8 10.8 8c5 1.8 6.1 1.8 9.5.7 2-.7 3.9-1.7 4.1-2.3s-2.6-2.4-6.1-4.2c-5.1-2.5-6.8-2.9-8.8-2.1-2.2.8-3 .5-5.2-1.9q-5.4-5.8.7-2.1c1.8 1.2 4.3 2.1 5.5 2.1s4.5.8 7.5 1.9c5.8 2 13.1 8.8 14.2 13.1.4 1.4 1.1 3 1.6 3.7 3.1 3.9-14.6 4.2-23.7.3l-6-2.6c-1.6-.7-4.1-1-5.5-.7q-2.6.4-6.2-2.1c-3.2-2.2-4.2-2.4-6.8-1.4-3.6 1.2-9.3.3-11.4-1.7-1.1-1.1-1.3-2.9-.9-6.9q.6-5.2-.6-6-1-.7-1.1-1.6c0-1.3 9.4 0 9.9 1.4m10.6.2c1.9.7 1.9.8-.3 1.2-2.3.4-5.2-1.3-5.2-2.9q.2-.7 1.8 0zm-138.6 2.3c1.2.8 1.1 1.3-1 3-3.7 3.1-5.3 2.7-3.4-.9 1.7-3.2 2.2-3.5 4.4-2.1m7.1 4.8c0-1.8 2.5-2.3 3.5-.7.4.6 2.1.8 4.1.4 2.1-.4 4-.2 4.9.6q3.5 2.9-1.7 2.6c-2.7-.1-3.3.3-3.2 2q.2 2.3-2.1 1.6c-3-.5-5 2.1-3 3.8 1.4 1.1.9 1.8-3.7 5.1-4.1 2.9-5.7 3.5-7.1 2.8-2.9-1.6-6-.1-5.3 2.6q.6 2.3-.9 2.9-1.3.6-1.3 1.6c.2.6-1.7 1.9-4.2 2.9l-8 3.4c-1.9.8-6.6 1.7-10.5 1.9-7 .3-7 .3-7.3-2.5-.3-2.2.7-3.8 4.3-7.5 2.6-2.6 5.4-6.1 6.2-7.7 1.6-2.9 4.1-5.4 5.6-5.5q.6.2-.5 2c-1.1 1.7-1 2.2.2 3q3.4 2.3 4.9-.9c.6-1 2.8-2.6 5-3.4 2.1-.9 4.8-2.8 5.9-4.2s2.6-2.4 3.1-2c1.7 1 6.8-2.2 7.4-4.7.6-2.2.7-2.2 2.1-.3 1.4 1.8 1.5 1.8 1.6.2m13 11.5q0 .9-1.5-.2-1.4-1.2-1.5-1.6.1-.3 1.5.2 1.4.7 1.5 1.6"/><path d="M225.1 232.9c-1.7 1.1-.7 4.1 1.3 4.1 1.9 0 2.8-1.4 2-3.4-.7-1.8-1.3-1.9-3.3-.7m-.7 10.2c-.3.6.1 1.8.9 2.7 1.3 1.3 1.9 1.3 3.2.2 1.2-1 1.3-1.6.4-2.6-1.4-1.7-3.5-1.8-4.5-.3m-59.7 9.5c-1.1 1.1 1.3 3.4 3.5 3.4q2 0 1.6-1.8c-.3-1.7-3.8-2.9-5.1-1.6m-3.2 6.3c-1.7 1.6 2.9 4.1 7.6 4.1 2.4 0 3-.4 2.7-1.8-.2-1.2-1.6-1.8-5.1-2.2-2.6-.4-5-.4-5.2-.1m192.2 3.8q-2.2 1.8 2.8 3.9c4 1.6 5.5 1.2 5.5-1.6 0-2.5-6.3-4.3-8.3-2.3m-233.4 8c-2.6 1-1.3 3.3 1.8 3.3 2.4 0 3-.4 2.7-1.7-.3-1.8-2.4-2.6-4.5-1.6M405 285.3c0 2.7 3.3 6.2 4.9 5.2s1.3-3.3-1.1-5.5q-4-3.9-3.8.3m-304-18.5c0 1.1 6.1 3.2 7.3 2.5 1.4-.9-2.2-3.3-5-3.3q-2.1.1-2.3.8m-58.8 91.4c.2 1.2 1 2.3 1.8 2.3 2.2 0 1.9-3.9-.3-4.3q-2.1-.7-1.5 2m-1.3 162.4c-1.1 1.4-1 1.8.6 3 4.1 3 10.2.6 8.8-3.4-.7-1.8-7.8-1.5-9.4.4M459 599.5c-2.1 2.5-.1 3.5 7 3.5 5.1 0 6.9-.4 7.4-1.5.8-2.1-2.4-3.5-8.2-3.5q-4.8 0-6.2 1.5M204.5 415c-.8 1.3 2.4 6 4.1 6s1.8-2.4.4-5.1c-1.1-2-3.5-2.5-4.5-.9m-10 1.7a10 10 0 0 1-5.1 1.4c-2.4-.2-8.4 4.4-8.4 6.5 0 1.8.7 1.8 3.5-.4 1.2-1 4.2-2.4 6.6-3.1 7.2-2.2 9.1-3.1 8.7-4.3q-.7-2.7-5.3-.1m7.1 8.2q-.4 1 .8 2 1.5 1.4 2-.5l.6-2c0-.8-2.9-.4-3.4.5m6.1 1.8c-.4.3-.7 2.4-.7 4.6s-.5 5.7-1.2 7.9c-.9 2.9-.9 4.1 0 5 2.1 2.1 4.2-1.4 5.5-8.5.9-5.2.8-6.9-.2-8.1q-2-2.6-3.4-.9m-15.4 6c.8 6 3.4 15.4 4.6 16.6q1 1.2 2.3-.1c.9-.9.9-2.5 0-7-2.3-11.2-3.2-13.2-5.4-13.2-1.8 0-1.9.5-1.5 3.7m-19.6-.2c-1.9 1.8-1.3 4.1 1.5 5.6 2.9 1.5 4.3-.2 3.1-3.7q-1.6-5-4.6-1.9m9-.3c-.2.7.7 3 2.1 5.1s3.3 6.1 4.2 9c1.7 5.3 4.2 7 4.8 3.1.4-2.7-3.3-12.5-5.9-15.8-2.2-2.8-4.5-3.4-5.2-1.4m-20.7 8.3c0 2.1 4.3 3.9 7.5 3.1q2.7-.7 2.3-2.4c-.4-2.4-9.8-3.1-9.8-.7m11.1 4.9c-.9 1 .3 2.8 5.8 8.5q7 7.1 8.5 6.5t1.6-1.9c0-2.1-7.8-11.3-11-13-3.5-1.8-3.5-1.8-4.9-.1m-18.4 3.4c-2.3 2.5-1.3 3.2 5 3.2q5.4 0 5.3-1.3c0-3.8-7.4-5.1-10.3-1.9m69.7 4.6c-1.4 3-2.9 8-3.4 11-.5 3.1-1.2 6-1.5 6.6-1 1.6-1.8 22-.9 22 2.5-.1 3.5-2.1 3.8-8.6.5-7.5 3.6-21.8 6.6-30 1-2.9 1.6-5.5 1.3-5.8q-2.5-2.6-5.9 4.8m8.8-1.1c-.6.7-1.5 3.1-2.1 5.2l-3.4 13.1c-3.3 12-3.7 21-1.3 24.7 1 1.5 2.3 2.6 2.9 2.4.5-.1 1.1-4.3 1.3-9.2a115 115 0 0 1 3.7-22.1 94 94 0 0 0 2.9-14.3c-.5-1.5-2.7-1.4-4 .2m-63.5 4.4q-2 1.7 2.2 3.8a29 29 0 0 1 7.1 7.3q5.6 8.2 10.5 8.2c2.7 0 2.1-2.6-1.4-6.7l-7.4-8.7c-3.1-3.7-4.4-4.6-7.1-4.6-1.8 0-3.6.3-3.9.7m-20.3 21.7c-.7 1.8 7.4 10.2 11.2 11.6 2.1.8 3.1.8 4-.2 1.1-1.1.1-2.4-5.2-7.1-6.6-5.8-9-6.8-10-4.3m-8.7 37.2c-1.7 1.8-.6 3.5 2.1 3.2q2.5-.4 2.7-1.8c0-1.6-3.6-2.6-4.8-1.4m136.8-99.3c-.8 1.3-2.5 5.3-3.8 8.9a38 38 0 0 1-3.7 8.3q-1.4 1.6-.3 2.6c1.3 1.3 7.3-3.6 7.3-6.1a41 41 0 0 1 4.5-12.1c2.4-4.3-1.3-5.7-4-1.6m9.8 5.2q-.4 1.5 0 2.2c1 1 3.7-.6 3.7-2.2 0-2-2.9-2-3.7 0m9.5 4.2c-3.2 3.9-5.7 9.2-4.6 9.9q1.3.5 2.2-1l3.4-5.3c1.2-1.8 2.2-3.8 2.2-4.3 0-1.6-1.6-1.2-3.2.7m5 4.2c-4.7 3.8-10.3 17.9-8.2 21.2 1 1.7 3.4-1.1 3.4-4.1 0-4.4 2.9-11.3 6.1-14.6 3.4-3.6 2.5-5.4-1.3-2.5m-19.2-.1c-1.2 2 4.7 17.7 6.4 16.7q2.4-1.5-1.4-11-3.5-8.6-5-5.7m-26.3 7.9c-2.1.7-1.5 3.3.7 3.3q1.8-.1 2-1.4-.2-2.7-2.7-1.9m20.2 3.5c-.3.7.6 5.6 1.9 10.8 1.8 7 2.8 9.5 4 9.5 1.5 0 2.3 1.4.9 1.6q-2.9.3-3.6 6-1 7 1.8 6.9 2.5 0 2.5-6.7c0-3.4.1-3.5 1.8-2 1 1 2.3 1.7 2.8 1.7s1.8.9 2.7 2.1c1.5 1.6 2.1 1.8 3.3.9 1.7-1.5 1.7-4.9 0-11.5-1.1-4.1-1.7-5-3.5-5-1.2 0-2.6-.7-3.1-1.5s-1.9-1.5-3.1-1.5c-1.9 0-2.5-1-3.8-5.9-1.6-5.8-3.6-8.1-4.6-5.4m-17.7 8.3c-.9 2.1-.9 3.5.1 6.8.7 2.3 1.5 8.6 1.8 13.9.5 10.1 1.6 12.7 4.9 11.4 1.5-.6 1.6-1.8 1-10.3a53 53 0 0 0-1.7-11.4c-.5-1-1.2-4.1-1.7-7-.8-5.9-2.6-7.3-4.4-3.4m40.9 4.3c-2.1 2.3-2.2 5.2-.2 5.2 1.8 0 4.9-4.5 4-6q-1.2-2.2-3.8.8"/><path d="M254.6 464.9c-.4.5-.9 5.7-1.3 11.5l-.6 10.6h2.5c2.5 0 2.5-.1 3.2-10.5.4-5.8.4-11 .1-11.5-.8-1.3-3.2-1.3-3.9-.1m70.7 1.7c-.7.3-2.8 2.7-4.7 5.4-3.4 4.8-5.8 6.1-13.2 7.4-3.1.5-3.1.5-3.7-4.6-.7-5.7-1.8-7.4-4.1-6.5-1.5.6-2.2 4.2-1.7 9.6.3 3.4 3.9 6 8.3 6.1 5.5 0 14.3-3.6 17-7 5.8-7.5 6.8-8.9 6.8-9.9 0-1.1-2.5-1.3-4.7-.5m-81.3 1.9c-1.7 2.1-.5 4.5 2.3 4.5 3.2 0 4.9-1.8 3.6-4.2-1.2-2.2-4.2-2.4-5.9-.3m-.7 11.5c-2.7 1.1-3 3.2-.8 5 1.2 1 2.1 1 4 .2q4.1-2 1.3-5c-1.4-1.4-1.5-1.4-4.5-.2m18.7 6.5q-1.4 1.6-.2 2.7c1.5 1.5 4.4.2 4-1.9-.4-2.3-2.2-2.7-3.8-.8m82 3.4c-.8.5-3.8 1.4-6.7 2.1-6.1 1.4-9.5 3.5-7.5 4.8.7.5 4.1-.1 8.2-1.4 8.1-2.7 11-4.1 11-5.4 0-1.2-2.9-1.2-5-.1m1.5 7.6-3 2.4 3.1.1c3.1 0 7.1-3 5.7-4.3-1.2-1.2-2.7-.7-5.8 1.8m-11 3.8c-2.5 1.9-.4 3.1 4.1 2.3 3.6-.7 4.4-2 1.8-3-2.4-.9-3.8-.7-5.9.7m-43.2 9.4c-.7.2-1.3 1.5-1.3 2.9 0 1.8-.7 2.5-2.7 3-5.6 1.2-7.7 2.1-8.1 3.3-.3 1 .9 1.1 5.4.6 9.9-1.2 14.3-4.8 10.8-8.6-1.8-2-2.1-2.1-4.1-1.2m-132.8 9.9c-1.5 1.5-1.5 1.8-.1 3.3 1.5 1.4 1.7 1.4 3.2-.1 1.7-1.6 1.3-4.8-.5-4.8-.5 0-1.7.7-2.6 1.6m-38 51.4c-1.1 1.7 1.5 4 4.4 4 3.2 0 5.2-1.7 4.4-3.6-.6-1.7-7.9-1.9-8.8-.4m7 9q-.3.9 1.4 1 2-.1 2.1-1-.1-1-1.4-1c-.8 0-1.8.4-2.1 1m122.7 3.2c-1.5 1.5-1.6 9.2-.2 11.9.6 1 1.9 1.9 3 1.9 1.7 0 1.9-.7 1.7-6.3-.4-8.1-1.7-10.3-4.5-7.5m-9.3 2.5c-1.4 3.7-3 13.4-2.3 14.4 1 1.7 3.5.9 4.4-1.5s2.2-9.5 2.4-13.1c.2-3.2-3.2-3.1-4.5.2m-95.2 18a44 44 0 0 0-5.3 8.8 28 28 0 0 0-2.8 14.7q-.1 8.8 1.2 10c2.4 2.3 4-1.6 4.1-9.9.1-9.2 1.2-13.5 5.1-19.6q4.2-6.7 1.1-6.7c-.4 0-1.9 1.2-3.4 2.7m14.8 6.8c-4.2 9-4.4 41.6-.4 72.5 1.3 10.2 1.5 25.2.7 38.9q-1.2 19 2.8 19.1 1.8 0 .8-1.8c-.5-.9-.9-13.6-1-28.2s-.6-32.1-1.3-39c-3.1-30.7-2.4-53.5 1.9-60.7 2.5-4.2 2.5-4.3.1-4.3q-1.9.1-3.6 3.5m38.8 14.7c-1.6 2.1-4.5 17.5-5 27.3a155 155 0 0 0 1 22.5c1.6 13.7 2.6 28.4 3.2 49 .4 14.2.9 18.6 2.6 20.6 1.1 1.3 1.4 1.3 2.6.1s1.2-2.5.4-7.3c-.6-3.2-1.3-12.4-1.7-20.4l-.9-23.5c-.2-5-.9-12.4-1.6-16.5a130 130 0 0 1 1.7-50.3c.7-2.8-.6-3.6-2.3-1.5m10.1 21.9q-.5 1 .4 2.1c1.3 1.3 3.2.2 3.2-1.8 0-1.6-2.6-1.9-3.6-.3M175 715.9c0 .9 6 1.9 7.9 1.3q1-.4.5-1.3c-.7-1.2-8.4-1.2-8.4 0m.7 7.7q-2.7 2.5 4.4 2.4 5.2 0 4.7-1.3c-.5-1.3-7.9-2.2-9.1-1.1m-.2 8.4c-.9 1.4 2.2 3 5.9 3.2 3.9.1 7.2-1.7 4.5-2.6-3-.9-9.9-1.4-10.4-.6m14.9 12.4c-.7 1.9.3 3.6 2.2 3.6q1.5 0 1.2-2.2c-.4-2.6-2.6-3.6-3.4-1.4m91-84q-2 1.5-.9 2.5c1.6 1.6 5.9 2.2 7.5 1.1 1.3-.9 1.2-1.3-.9-3-2.8-2.4-3.2-2.4-5.7-.6m-3.8-32.9c-.9 2.5-.8 2.7 1.7 2.3q2-.5 2.2-1.8c0-2.1-3.1-2.4-3.9-.5m-40.6 2c-.6.8-.9 1.9-.6 2.4s-.9 2.6-2.9 4.5a21 21 0 0 0-3.5 4.1c0 .4 1.4.3 3.1 0 2.9-.7 3.1-.5 2.7 1.6l-1.2 4.1c-.8 1.7 1.8 5.1 4.4 6q1.5.3.1 2.6c-1.1 2-.9 2.2 1.3 2.2 1.4 0 2.8.5 3.1 1q.7 1.1 2.1-.1c1.7-1.4 1.7-1.4 3 2.6 1.2 3.9 5 4.3 4.7.5-.2-1.4-.5-8.8-.9-16.5-.3-7.7-1-14.5-1.5-15-1.8-1.8-3.9 2.6-3.9 8.1 0 4.7-.3 5.5-2.9 7.3l-2.9 2.1-.1-8.6c-.1-10.4-1-12.6-4.1-8.9m9.1 22.8c-1.2 3.2-2.7 3.5-3.4.7-.3-1.2.4-3.1 1.6-4.7 2.1-2.6 2.2-2.6 2.5-.7a12 12 0 0 1-.7 4.7m146.3-400.9c-.8 2.1.7 5.1 2.6 5.1 2.1 0 2.1-1.8 0-4.5-1.7-2.3-1.9-2.4-2.6-.6m-174.1 31.2q-.4 1.5.9 3.1c1.2 1.2 5.6 1.5 22.4 1.9 33.5.7 55.3 2.3 71.3 5.4 10.6 2 14.1 1.6 14.1-1.5q0-2.7-7.5-3.8l-14.5-2.1c-14.7-2.1-31-3.1-68.3-4-15.3-.4-17.9-.3-18.4 1m9.7 8.2c0 1.5 2.7 4.5 3.7 4.1 1.6-.6-.3-4.9-2.2-4.9q-1.4.1-1.5.8m9.7 1.3q-1.5 1-1.7 1.9c0 1.3 16 17.4 18.6 18.8 2.2 1.1 4.4 0 4.4-2.3a118 118 0 0 0-17.5-18.3 4 4 0 0 0-3.8-.1M7.1 293c-1.7 1-.7 4 1.4 4q1.4-.2 1.5-1.9-.2-3.7-2.9-2.1m247 3.3c-1.2 1.6.3 3.1 8.7 9 5.7 4.1 7.9 4.6 8.9 2 .7-1.9-4.8-7.1-10.9-10.3-4.4-2.4-5.2-2.4-6.7-.7m-120.1.8q.1.8 1 .4 1-.6 1-1.1 0-.4-1-.4-.9.1-1 1.1m54.2.1q-1.1 1.1-1.2 2c0 .4-3 3.8-6.7 7.6-8 8.1-18.2 15.2-21.7 15.2q-2.7-.1-2.6 2c0 1.6.7 2 3.4 2 2.4 0 5.1-1.3 9.7-4.7 8-5.8 18.8-15.7 21.3-19.5 2.6-4 .9-7.7-2.2-4.6m41 2.5q-1 1.6.4 4.9c.8 1.8 1.4 6.7 1.4 10.7q0 13.5 4.1 13.7 2.7 0 1.9-3.5c-.1-.6-.6-6.3-1-12.8a50 50 0 0 0-2-13.2c-1.6-2-3.7-1.9-4.8.2m-104.4.4c-4.2 2.4-.1 6.8 4.3 4.6 3.3-1.7 3.2-5.1-.1-5.4a7 7 0 0 0-4.2.8m242.5 3.2c-.5.8.4 1.1 5 2.1 1.5.4 2.7 1.1 2.7 1.6 0 2.3-10.6.3-12.1-2.2q-.8-1-3 .6a9 9 0 0 1-4.2 1.6c-1.6 0-1.8.6-1.5 3.2q.6 3.3-1.1 4.4c-1.2 1-1.3 1.7-.4 3.5.6 1.3 1.8 4.6 2.6 7.4l1.4 5 7.2.3c3.9.2 7.1.7 7.1 1.1 0 .9-5.8 2.1-10.1 2.1-3.1 0-4.5 2.5-2.7 4.7.9 1.2 2.6 1.4 7 1 3.2-.3 5.8-.1 5.8.4s-2.4.9-5.4.9c-6.1 0-8.8 1.9-6.9 4.8.8 1.4 2.4 1.6 7.3 1.4 4.7-.2 6.1 0 5.8 1-.3.8-2.5 1.4-5.5 1.6q-9 .4-6.3 5.1c1 1.9 1.7 2 6.5 1.5 5.2-.6 5.5-.5 5.5 1.5 0 1.7-.6 2.1-3.6 2.1-6.3 0-9.4 3.1-5.9 6 1.1.9 1.2 1.6.3 3-2.5 4 1 6.2 6.6 4 2.6-.9 2.6-.9 2.7 4.3 0 2.8.2 6.5.4 8.2 2 20.2 2.5 29.4 2 43.5l-1 35c-.3 10.2-.7 20.1-1 22-1.1 7.1-1.3 40.1-.4 59.5.5 11 1.2 27.6 1.4 37 .6 21.7 1.2 26 4 29.3 2.1 2.5 2.3 2.5 3.2.6.6-1.2.7-5 .2-9.9-.4-4.4-1-16.6-1.3-27a887 887 0 0 0-1.5-31.5c-.8-8.8-.7-19.6 0-36.5.7-13.2 1.3-29 1.4-35l1-34.5c.8-28.6.8-29.7-1-43.5-1.9-15-2-69.7-.1-74 1.5-3.3 1.3-3.5 4.2 5.5 3.8 12.2 7.9 19 10.4 17.5 1.7-1.1 1.2-3.2-3.5-14.2A62 62 0 0 1 386 316c0-1.6-.4-3.2-1-3.5q-1-.3-1 1.6v2.2l-2.4-2.3-2.5-2.3-3 3c-2.7 2.7-3 2.8-3.5 1.1-.3-1.5.4-2.3 2.9-3.4 1.9-.8 3.8-1.4 4.3-1.4s1.7-.9 2.8-2.1c1.9-2.1 1.8-2.1-.5-4-1.3-1-3.1-2-4-2-5.2-.5-10.3-.3-10.8.4m4.6 64.1c-.2.2-1.7.2-3.4-.2-3-.6-3-.6-.5-1.2 2.3-.6 5 .4 3.9 1.4m-235.7-59.8q.3 2.2 11 6.9 3.8 1.7 6.3.8 5.8-2.1-1.2-3.5c-2.4-.4-6.2-1.8-8.6-3.2-5-3-8-3.4-7.5-1m-10.9.1c-2.2.8-1.4 4.8 1.5 7.5 4 3.7 12 8.1 13.7 7.4q3.4-1.2-4-5.9a42 42 0 0 1-7.3-6.2c-1.5-1.8-3.3-3-3.9-2.8m332.4 4c-1.3 1.3-.7 3.2 1.3 3.8 2.9.9 4.2-.2 3-2.6-1.1-1.9-3.1-2.5-4.3-1.2M7.2 313.1c.5 1.6 5.8 2.5 5.8 1q-.1-1-1.4-1.1c-.8 0-2.2-.3-3.2-.7q-1.7-.6-1.2.8M3 318q.1.9 1.3 1l9.1 1.5c4.4.8 8.6 1 9.4.6 2.1-1.2.3-1.9-7.4-3.1-8.8-1.2-12.4-1.3-12.4 0m446.1 7.4q-2.5 3 2.7 3.2l13.2.7c11.3.6 14.3 0 12.1-2.7q-1.2-1.4-6.4-1.4c-2.9 0-8.6-.3-12.7-.7-6.4-.6-7.8-.5-8.9.9M130 333a109 109 0 0 0 19.6 26.5c3.8 2.5 9.2 3.5 12.1 2.4 3.4-1.3 2.3-3.4-1.9-3.5-6-.3-11-4.9-20.8-19.3q-4.5-6.5-6.7-6.9-2.1-.2-2.3.8m286 7.5c-1.8 2.2-.5 4.5 2.7 4.6q3.9-.1.6.9c-3 1.2-2.9 4.2.1 7.7 2 2.3 3.4 2.8 9 3.3 3.6.3 7.5.2 8.6-.2q2.2-.8 2.7.8c.9 2.4-.3 2.8-7.2 2.6q-10.5-.4-6.4 4.4c1.1 1.3 2.6 1.5 8 1.1 6.2-.5 6.7-.4 7.3 1.6.7 2.8-1 3.8-5.9 3.5-3.1-.2-4.1.1-4.3 1.5-.2 1 .2 2.5.9 3.3.7.9 1.3 2.8 1.4 4.2 0 2.5.4 2.7 5 3.2 4 .4 5.1.9 5.3 2.5.3 1.1 1.3 2.8 2.3 3.8 1.1 1 1.7 2.2 1.4 2.8q-.5.8.4.9c1.4 0 1.4-.1-.3-10.1-.8-4.6-1.7-12.2-2.1-16.9-.7-9.8-2.2-16.8-4.2-19.1a6 6 0 0 1-1.3-3.3c0-2.3-3-3.2-13.6-4-7.5-.5-9.3-.4-10.4.9m25.7 36.1q-.7.5-1.9.1t.6-.6q1.8 0 1.3.5"/><path d="M362.3 376.6c-1.6 4.1 4.1 6.2 7.6 2.9 1.2-1.2 1.2-1.7.1-2.9-1.7-2.1-6.9-2.1-7.7 0m2.9 8.6c-1.6 1.6-1.5 2.3.4 4.2 1.2 1.2 2 1.3 3.5.6 2.4-1.4 2.4-3.6 0-5s-2.4-1.3-3.9.2m65 4.5q.2 2.9 2.3 2.9c3.8.3 4 .5 2.3 1.5-1 .5-1.8 2.2-1.8 3.6 0 2.2-.3 2.4-2.4 1.9-2.7-.7-7.4 2.4-6.3 4.1.4.6 2.8.8 5.7.5q5-.5 5 .7c0 .6-1.7 1.1-3.9 1.1-4 0-6.8 2-5.6 4.1q.8 1 5.6.6c2.7-.3 5.1-.2 5.4.4 1 1.5 9.1 1.1 10.5-.6q2.4-3-3.4-3.7c-2.3-.2-3-.8-3.1-2.8-.1-1.4.7-3.1 1.9-4.1 1.7-1.4 1.8-1.9.7-3.2a6 6 0 0 0-3.4-2q-2.9-.4.4-.6c1.5 0 3.2-.8 3.9-1.7q3-3.7-7.8-4.8l-6.3-.7zm-306.1.2c-1.9 1.2-.6 4.1 1.8 4.1 2.6 0 3.6-1.7 2.1-3.5-1.4-1.7-2-1.8-3.9-.6"/><path d="M446 395c-1.3.8-1.3 1.2-.1 3.2l3.3 6c1.9 3.9 4.4 4.8 6.6 2.6.8-.8.5-1.9-1.4-4.2l-4.7-5.8q-2.2-3-3.7-1.8m-11.1 21c-1.3 1.9-1.7 1.9-6.1.6s-4.8-1.3-6.3.4q-1.4 1.7-.8 2.3c1.2.7 10.5 2.1 12.4 1.9.8-.2 2.1.9 2.7 2.3.9 1.8 1.9 2.5 4.1 2.5 3.7 0 5.9-2.4 4.1-4.5-1-1.1-.9-1.8.4-3 2.6-2.7.9-4.5-4.4-4.5-3.6 0-5.1.5-6.1 2M.7 421.7c-.4.3-.7 14.6-.7 31.7l.1 31.1 2.4-4c1.4-2.2 2.4-4.7 2.4-5.5a9 9 0 0 1 .6-3.4 4 4 0 0 0-.2-3.5q-1-1.6.1-3.4c.9-1.5.7-2.1-.8-3.3-1.9-1.4-1.9-1.4.5-4l2.4-2.6-2.2-1.5c-2.6-1.8-3-5.1-.8-5.9 1.9-.8 1.9-4 0-4.8-1.2-.4-1.3-1.1-.5-3.2q1.2-2.7-.1-4.1t-.1-2.5c1.4-1.4 1.6-5.4.3-6.2-.4-.3-.6-1.7-.3-3.1.4-2.4-1.4-3.5-3.1-1.8m425.5 5.6c.2 1.8 1 2.3 4.6 2.5 3.1.2 4.4-.1 4.8-1.3.8-2.1.8-2.1-4.9-2.8-4.6-.6-4.8-.6-4.5 1.6m65.2 35.8c-1.1 1.9 1.2 3.1 5 2.4 5-1 4.8-3.5-.3-3.5-2.2 0-4.3.5-4.7 1.1m1.4 7.6c-2.2.6-2.3 2.9-.3 3.7 2.8 1 7.5-.5 7.5-2.5 0-1.9-2.8-2.4-7.2-1.2m2.2 7.2c-3.9 1.1-3.2 3.6 1 3.6 2.9 0 3.6-.4 3.8-2.3.4-2.3-.4-2.5-4.8-1.3m.1 7.1q-7.2.8-3.7 3.9c2.9 2.4 9.8-.6 8.4-3.6-.1-.4-2.3-.6-4.7-.3m-494 8.6a19 19 0 0 0-1.1 6.2l.1 3.7L2 500c2-3.7 2.6-7.5 1.1-8.4q-.8-.3-2 2m488.4 1.4c-1 1.6 1.4 4 3.9 4 3.7 0 6.6-1.2 6.6-2.6q0-1.3-.7-1.5l-5-.5c-2.4-.3-4.4 0-4.8.6m6 7.2-4.2 1.4c-1.8.5-1.6 2.3.2 3 .8.4 3.1.3 5 0 2.9-.6 3.5-1.1 3.5-3.1 0-2.7-.1-2.8-4.5-1.3m-2 7.8q-1.5 2.8 3.5 2.2c3.9-.6 4-3.2.1-3.2-1.7 0-3.3.4-3.6 1m3 5c-4.3.7-4.7 4-.5 4 1.8 0 3.3-.6 3.6-1.5q1.5-3.5-3.1-2.5m-1 8c-.9 1.5.4 3 2.6 3q1.9 0 1.9-2c0-2.1-3.3-2.9-4.5-1m-2.1 20.5c-.4.9-.2 2.1.4 2.7 1.5 1.5 4.4.1 4-1.9-.4-2.3-3.6-2.9-4.4-.8m-2.9 12.5c-1 1.6 1.4 4 4.1 4 2.5 0 4.1-1.7 2.8-3-1.6-1.5-6.2-2.2-6.9-1m3.9 10.1c-.3.6-1.7.9-3 .6-2.6-.5-5 1.5-3.9 3.3 1 1.5 8.1 1.2 9.5-.5 1.3-1.6.7-4.5-.9-4.5q-1 .1-1.7 1.1m-.6 17.7c-3.1.9-5.9 1.9-6.1 2.2-1 1 2.8 7.5 4.6 7.8.9.2 3.1-.2 4.7-1 3.7-1.6 4.1-4.1.6-3.2-3.7.9-4.3-1.5-.7-2.9q3-1.1 3.1-2.9 0-1.7-.2-1.7zm2.7 12.8c-1.6.7-3.7 1.1-4.7.8-2.1-.6-3.3 1.3-1.9 3 2 2.4 10.6-.7 10-3.6-.3-1.3-.8-1.3-3.4-.2m-2.2 7.1c-1.5.5-1.8 4.3-.4 4.3 2.4 0 6.1-2.1 6.1-3.5 0-1.5-3-1.9-5.7-.8m1.1 7.8c-.8 2 .4 3.5 2.7 3.5q2 .1 1.9-2.5c-.1-2.6-.5-2.5-2-2.5-1.1 0-2.3.7-2.6 1.5m.9 9.2c-2.2.4-3.1 3.1-1.7 4.6 1.1 1.1 5.4-1.6 5.4-3.5q0-1.6-.7-1.7zm-83 1.5c-1.5 1.7-.2 4.1 2.4 4.3l6 .9q8.6 1.4 8.1-2.7c-.2-1.8-1-2.2-4.3-2.3a57 57 0 0 1-7.5-.9c-2.6-.5-3.9-.3-4.7.7m78 7.4c-.9 2.5 1.2 3.7 5.1 3 2.7-.5 3.6-1.2 3.6-2.6 0-1.7-.7-2-4-2q-4.2 0-4.7 1.6m.4 7.1c-1.7 1.6-.5 3.3 2.2 3.3q6 0 6.1-2.6c0-1.5-7-2.1-8.3-.7m-3.3 6.4c-1.4 2.3 1.9 3.8 6.4 3q7.3-1.4 4.2-3.1c-2.1-1.3-9.7-1.2-10.6.1m-.1 6.5q-1.6 4.1 6.5 2.3 5-1.1 5.2-2.5c0-2.1-10.8-2-11.7.2m8.8 9.3c-2.6 2-2.1 4.1 1 4.1 1.4 0 1.9-.7 1.9-3 0-3.5.2-3.5-2.9-1.1m-6.1 11.6q-2.8 3.5 4.8 2.7c3.3-.3 4.2-.8 4.2-2.3s-.7-1.9-3.9-1.9c-2.3 0-4.4.6-5.1 1.5m-.9 6.7c-2.1.7-3.6 2.6-2.8 3.5.3.3 3.3.2 6.6-.2 5.1-.6 6.1-1 6.1-2.6s-.6-1.9-4-1.7c-2.3.2-4.9.6-5.9 1M484 687q-1 2-.8 2.5c.2.3 4.1.7 8.7 1.1 7.8.7 8.3.6 7.9-1.2-.2-1.5-1.5-2-5.8-2.5-3-.3-6.3-.9-7.2-1.3q-1.6-.8-2.8 1.4m.5 7.7c-1.1.2-3.1 1.3-4.5 2.4l-2.5 2 10-.5 11.3-.6q1-.2 1.2-1.5c0-1.1-1.2-1.5-4.7-1.5-2.7 0-5.7-.2-6.8-.4s-2.9-.2-4 .1m-29.6 84.5c-2.4 2-3.9 5.3-3.9 8.7 0 2.7-.4 3.1-3.7 3.6-8.3 1.4-10.3 2.5-10.3 5.4 0 3.8 1.7 5.1 6.8 5.1q4.1 0 3.7 1c-.3.5-1.7 1-3.1 1-2.9 0-8.4 2.6-8.4 4q0 2.3 10.7 4.3c9.1 1.6 9.2 3.3.3 4.2q-11.6 1.3-6.5 5.1c1.6 1.2 2.2 1.2 4 0 1.2-.8 3.7-1.6 5.6-1.8l3.4-.3v17.6c0 13.5.3 18 1.4 19.3q1.4 1.7 2.6.6c1.9-1.6 2.8-6 1.5-7.5q-1.1-1.2-.4-15.7l.7-14.5 12.7.5c10.5.4 13.2.2 15.9-1.2 2.4-1.3 3.1-2.3 2.9-3.9-.5-3.3-5.7-4.6-19.5-4.6-7.5-.1-12.3-.5-12.3-1.1s3.5-1 8.4-1 8.8-.4 9.1-1.1c1.1-1.8-.1-2.1-6.9-2-3.6 0-6.8-.4-7.1-1-1.1-1.6-.2-1.9 6.3-2.3s8.6-1.2 7.6-2.7c-.4-.6-4.2-.9-9.3-.8-9.5.3-12-.4-10-2.7.9-1.1 2.8-1.3 8.2-.9 3.9.4 7.4.8 7.7 1 1.3.8 3.5-1.4 2.5-2.4a52 52 0 0 0-17.4-2.7q-.9.4-2.1-.9c-1-1.2-.8-2.1.7-4.7 2.4-4.1 5.4-5 5.1-1.6-.3 2.1.1 2.3 4.9 2.6 4.5.3 5.3 0 6.3-1.9 1-1.7.9-2.4-.3-3.7-2.1-2-15.6-2.8-17.8-1m-4.1 18.5q.2 1.3-1.6 1.3c-3 0-5.3-1.1-4.6-2.2.8-1.3 5.7-.6 6.2.9M452 808q-.1.9-1.5 1c-1.4.1-1.5-.5-1.5-1q.1-1 1.5-1c1.4 0 1.5.4 1.5 1m32.5 6.2q.6.7 0 1.7a81 81 0 0 1-23.9.5c-2.1-.8-2-2.2.2-2.6 3-.7 23-.3 23.7.4"/><path d="M466.5 825c-.9 1.5.3 3 2.5 3 1.8 0 3.4-2.3 2.3-3.4-1-1-4.1-.7-4.8.4"/></svg>