<svg xmlns="http://www.w3.org/2000/svg" width="666.7" height="1170.7" viewBox="0 0 500 878"><path d="M228.2 8.7c-1.1 2.1-.5 4.3 1.1 4.3.7 0 3.6 2.2 6.6 4.9l5.4 4.8-4.1 5.6c-2.4 3.2-5.1 5.7-6.3 5.9a6 6 0 0 0-3.3 2c-1.7 2.7 1.1 4.7 5.7 4.1 3.5-.5 4-1 6.8-6.4 1.6-3.3 3.6-5.9 4.3-5.9 2.1 0 7.6 7 7.6 9.6s1.7 3.4 6.6 3.4c5.5 0 5.1-2.2-2-9.3-3.8-3.7-6.6-7.4-6.6-8.5 0-2.6 4.7-8.2 6.9-8.2 2.4 0 4.1-2 4.1-4.7 0-1.8-.6-2.2-2.7-2.2l-6.3-.3c-3.4-.3-3.5-.2-3.2 3.3.2 2.6-.3 4.1-1.8 5.4-2 1.8-2.1 1.8-4.3-.3a8 8 0 0 1-2.2-5.3c0-3-.1-3.1-5.7-3.5-4.7-.4-5.9-.2-6.6 1.3m3.5 44.9c-.9.9-.8 14.6.1 19.8q1.1 6.7 4.6 3c1.3-1.2 1.5-2.5 1-4.8-.4-1.7-.9-6.5-1.3-10.6-.4-5.6-1-7.6-2.1-7.8q-1.5-.2-2.3.4m26.4 2.6c-1.1 3-3.1 13.7-3.1 17q0 2.7 2.1 3.3c2.7.9 3.3.2 3.6-4.2.1-2 .7-4.9 1.3-6.3 1.7-4.1.9-11.4-1.2-11.8q-1.7-.3-2.7 2m8.4.1c-.2.6-1.1 5-1.9 9.7-1.5 7.8-1.5 8.6 0 9.7.9.6 2.2.9 2.9.7 1.4-.6 3.9-16.2 2.9-18.7-.7-2-3.4-3-3.9-1.4m10.8.9a71 71 0 0 0-4.2 17q0 2.6 1.8 3.8c3.3 1.7 4.1 1.2 4.1-2.8 0-2.2.7-6.1 1.5-8.8s1.5-5.7 1.5-6.6c0-2.3-3.6-4.3-4.7-2.6m-61.5.9c-1.5.8-1.8 2.3-1.7 8.2.1 9.2 1 12.1 3.5 12.5 3.6.5 4.2-1.6 3-11s-2.1-11.2-4.8-9.7m69.8.1-2 6.9c-2.3 7.8-2.1 13.5.3 14.2q4 .8 4.1-4.8c.1-1.6.7-5.7 1.5-9 1-4.2 1.1-6.3.3-7.2-1.3-1.7-3.8-1.7-4.2-.1m-61.5 3.2c-1.6 1.9-1.1 14.4.6 15.8 2.4 2 5.3-1.9 5.3-7.1 0-7.2-3.2-11.9-5.9-8.7m68.4 7.7c-3 9.7-3 9.6-.4 10.9 2.8 1.5 4.9-.3 4.9-4.4 0-1.7.7-5.1 1.6-7.6 1.4-4.1 1.4-4.5-.2-5.7q-1.7-1.2-2.5-1.3c-.5 0-2 3.6-3.4 8.1m-87.1-5.7c-.3.8-.2 5 .3 9.3.8 7.9 1.9 9.5 5.1 7.4 1.7-1 1.8-8.2.2-13.9-.8-3.2-1.6-4.2-3.1-4.2q-1.8.1-2.5 1.4m34.3 2.3c-1 .9-.8 8.6.2 10.1.5.8 1.7 1.2 2.7 1 3.6-.6 2.7-11.8-1-11.8-.7 0-1.6.3-1.9.7m7.9.1c-.3.5-.8 2.7-1.2 4.8-.5 3.2-.2 4.3 1.5 5.8q5 4.3 4.8-4.1c-.1-2.6-.6-5.4-1-6.1-.9-1.4-3.3-1.6-4.1-.4m-51.1 1.3c-.7 1 .1 8.8 1.2 11.5.3.8 1.9 1.4 3.5 1.4 3 0 3.1 0 2.5-4.3q-1.3-9.8-4.6-9.7c-1.1 0-2.3.5-2.6 1.1m107.9.6c-.3 1-1.4 3.5-2.4 5.5-2.6 4.9-2.6 8.5.1 9.3s3.4.1 5.3-6.7c2-7.1 2-7.5-.4-8.8-1.7-.9-2.1-.8-2.6.7m-123.3.2q-1.4.8-.7 4.2l1.2 7.7c.8 5.1 1.9 6 4.5 3.6 2.3-2.1 2.4-4.2.2-11.1-1.7-5.3-2.6-6.1-5.2-4.4m-19.8 1.2c-.8.8-.7 2.1.3 4.7l2.9 9.4c.8 3.2 1.9 5.8 2.4 5.8s1.6-.9 2.6-2c1.6-1.8 1.6-2.2-.5-9.2-2.9-9.6-4.7-11.7-7.7-8.7m11.3.2c-1.7 1.3-1.8 1.9-.6 8 1.7 8.5 2.2 9.2 4.9 7.8 2.7-1.5 2.8-6.8.4-12.8-2-4.8-2.1-4.9-4.7-3m16.8-.3c-1.2 1.2-.6 11 .7 12.4q1 .8 2.9-.9c2-1.8 2.1-4.4.3-10.8-.5-1.9-2.4-2.2-3.9-.7M312 75.6c-2.5 5.8-2.5 7.1 0 7.9 2.8.9 3.6.2 5-5 1-3.6 1-4.8 0-6-1.9-2.3-2.8-1.8-5 3.1m-168.3-1.1c-1.2 1.1-1.4 2.2-.7 4.3l2.5 8.4c1.6 5.9 3.2 7.1 5.4 4.4 1-1.1.6-3.1-1.5-9.3-3.1-9.2-3.6-9.9-5.7-7.8m9.8.4a30 30 0 0 0 2.6 12.2c1.1 2.2 3.2 2.5 4.8.6 1.7-2.1-2.5-13.7-4.9-13.7q-1.7 0-2.5.9m168.7 4.6c-1.3 2.9-2.1 5.9-1.7 6.4.5.9 6.5 1.7 6.5.8l1.5-4.9c1.2-4.2 1.2-4.9-.1-6.3-2.5-2.5-3.8-1.7-6.2 4m10.9-4.1c-.7.8-1 2-.6 2.6.3.5-.3 2.3-1.4 3.9-2.7 3.7-2.7 7.7-.2 9.1 2.9 1.5 3 1.4 5.2-3.7 3.4-8 1.2-16.9-3-11.9m-199.5 3.4a55 55 0 0 0 5.2 17.4c1 1 1.6.9 2.9-.5 1.5-1.5 1.6-2.3.5-6.3-2.2-8.1-3.9-11.4-6.1-11.4q-1.8.1-2.5.8m207.6 5.4c-3.5 4.6-4.2 8.3-1.4 9 2.8.8 4.1-.2 6.3-4.4 4.1-8.1.5-11.6-4.9-4.6m-217.9-2.1c-1.3 1.3 2 11.6 5.1 16.5 1.7 2.5 1.8 2.5 3.7.8 2.2-2 2-2.8-2.2-12.2-2.8-6.1-4.4-7.3-6.6-5.1M350 86.9c-3.4 6.8-3.7 8.6-1.5 9.5 2.5.9 4.3-.4 6.5-4.9 3-6.2 3.1-9.9.3-10.3-1.8-.3-2.8.8-5.3 5.7m-234.9 1.4c-.8 1.1-.3 3.1 2.2 8.5 3.3 7.4 4.1 8.1 7.1 5.9 1.7-1.2 1.6-1.6-.7-6.8-2.3-5.3-5-8.9-6.6-8.9q-1 .1-2 1.3m6.3 8.2.6 3-2-3.5c-2.3-4.1-2.6-6-.6-4 .7.8 1.6 2.8 2 4.5m93.1-8.4c-4.4.5-8.4 1.4-8.9 1.9q-1 1 .3 1 1.6-.2.1 1.5-3.8 4.2 8.5 2c5.9-1.1 8.4-1.9 9.4-3.5 1.4-2 5.5-2.8 6.5-1.1q.3.8-1.4 1.4-1.8.6-2 1.7c0 .9 1.9 1.1 7.3.6l7.2-.6-3.5 2.2a40 40 0 0 1-6.5 3.3c-2.3.7-3 1.6-3 3.5 0 2.4.3 2.5 5.2 2.3l5.2-.2-1.4 3.2c-1.1 2.8-2 3.3-6 3.9-6.7 1-7.7 1.5-7.3 4 .3 2.1.8 2.3 5.1 2.1 4.1-.3 4.8 0 4.5 1.5-.2 1.3-1.6 1.8-5.3 2.2-4.6.5-5 .7-4.7 3q.4 4.2 4.2 3.3c1-.3 2.1 0 2.4.6q.6 1-2.3 1.1-3 0-4.2 2.2-1.1 2.2-1.1 2.8t-1 .5q-1.2 0-1-3c.2-1.7-.8-5.6-2.2-8.8-3.1-6.9-3.2-7.7-.7-7.7q4.3-.2 1.8-4.4c-1.4-2-1.4-2.5-.1-3.8 2-2 .8-4.6-2.4-5q-2.6-.4-2.7-1.8 0-1.5-3.5-1.8c-6.3-.5-8.1-1.2-9.1-3.9q-1-2.8-2.1-1.5c-.8.8.9 5.3 6.7 16.9 4.2 8.7 8.4 16.6 9.3 17.6 1.2 1.3 1.3 2.2.5 4q-1.2 2.3.2 4.7c1 1.9 1.1 4.6.5 10.5-1.4 13.3-9 33.8-10.7 28.7a119 119 0 0 1-13.2-20.7c-4.8-8.9-6-12-5.5-14 .4-1.5.1-3.7-.6-5.1-1.1-2-1-4.8.3-16.1 1.9-15.5 2.1-21.1.7-23.3-1.8-2.9-12.7-1.6-24.5 3-11.2 4.3-15.6 6.5-17.5 8.5l-2.3 2.4 4.7 6.9a35 35 0 0 1 4.6 8.5q.1 1.5 1.3 1.7c.7 0 4 3 7.2 6.7 4.6 5.2 5.9 7.3 5.7 9.4q-.3 2.8 1.5 3.7c1.4.9 1.8 2.2 1.7 6.9-.2 6.5-3.6 23.5-6 29.1-1.4 3.3-1.3 3.7.5 5.6q3.4 3.3 20.4 3.5c8.5.1 10.4-.7 16.7-6.6a18 18 0 0 1 4.1-3.3c.4 0 3.3 1.3 6.5 2.9 6.6 3.2 7.6 3.2 24.7-.8 11.2-2.7 12.9-2.6 19.5.5 6 2.8 9.7 2.8 15.4-.1 6.5-3.2 10.1-3 16.5.8a61 61 0 0 0 9.6 4.6c2 .7 3.9 1.7 4.2 2.2q.7.8 2.5-.1c1-.5 3.1-1 4.7-1 1.5 0 4.9-.7 7.5-1.5 4.2-1.2 4.9-1.2 6.3.1q1.3 1.5 1.5 2.5c0 2.3 8.3 6.7 14.7 7.9 3.8.7 9.2 2.1 12 3.2s6.7 1.8 8.5 1.6c3.2-.3 3.3-.4 2.8-4.3-1.8-14.1 1-31.4 6.3-39.8 1.7-2.6 7.1-8.2 12-12.5 8.6-7.4 9.7-8.2 13.4-10 2.5-1.2 3.7-3.7 2.9-5.8-.7-1.7-.9-1.6-2.2.8q-1.5 2.8-3.7 2.7h-2.2l2.3-.9c2.4-1 3.1-4 .8-4-.7 0-1.9.7-2.6 1.5-1.4 1.6-4.6 2-5.4.6-.3-.5-3.1-2.1-6.2-3.6q-5.8-2.7-4.5-3.8 1-1.1 5.1.8c4.1 1.9 4.4 1.5 5.1.8 1.2-1.2-6.9-6.7-11.4-7.8-3.8-1-4.8-3-1.1-2.2q3.3.8-1.6-1.5a25 25 0 0 0-8.9-2.2c-4.3-.1-4.4-.1-5.6 4.4q-3 11.1-4 22.5c-.3 3.9-1.2 7.7-2.1 8.6a8 8 0 0 0-1.4 4.4c0 1.5-1.4 5-3.1 7.6-3.6 5.7-22.9 24.3-24 23.2a87 87 0 0 1-2.2-26.3c.5-8 .7-8.7 3.5-10.9 2.6-2.1 2.9-2.9 2.5-5.8-.5-3.1 0-4.2 4.8-10.1 3-3.6 5.5-7.1 5.5-7.7s2.5-3.5 5.5-6.5 5.5-6 5.5-6.6c0-1.6-5.9-5.9-6.7-5q-.4.7 1.5 2.2c2.9 2 2.8 5.2-.1 6.5-2.4 1.1-8.7-.4-13.4-3.1a116 116 0 0 0-14.4-6c-2.2 0-.5 1.8 3.6 3.8s4.4 2.4 3.4 4.1c-2.4 3.8 1.6 7.1 8.9 7.4q5.2 0 1.7 2.7c-1.2 1-2.3.9-5.5-.4-5.4-2.1-7.7-2-8.3.4q-.7 3.4 6.2 5.5 2.4.7 1.2 1.8-1 1-3.6-.1c-4-1.8-6.1-1.4-7.3 1.3q-1.2 2.3-2.5 1.9c-1.1-.4-1.5-4-2-15.1a73 73 0 0 0-1.6-15.6 3.5 3.5 0 0 1 .7-5.6c1-.5 3.6-.6 6-.1 6.5 1.1 6.4 2.2-.1 1.4-4.7-.6-5.7-.4-5.7.8 0 2.4 2.6 4.1 4.6 3s7.7.2 10.9 2.4c2.3 1.6 7.1 1.9 8 .4.3-.6 1.6-1 2.8-1q5.5 0-8.9-5.4c-12.3-4.6-17.7-5.3-20.3-2.7-2 2-2 2.8-1.4 18.9.5 14.7.4 17.1-1.1 19.4-1.3 1.9-1.4 3.1-.7 5.1q2.1 5.4-6 19-12.3 21-15.9 13.7a174 174 0 0 1-7.3-33.1c.3-1.3 1.2-3.1 2-4a7 7 0 0 0 1.1-4.5c-.2-2.8 7.8-22.3 12.3-29.9l2.2-3.6-2.3-2.4c-3.2-3.4-18-6.3-18-3.5q0 1.1-7.5.4c-6.5-.6-7.5-.5-8.1 1.1q-.5 1.6.6 2.5c1.1.7 1.1 1.4-.2 4q-1.6 3.5-2.1 1.6c-.4-.9-.4-2.3-.1-3.1q.5-1.5-1-2.1-1.7-.6-1.4-3.8t-1.2-3.1q-1.5 0-1.8 3.5c-.4 4.6-2.2 6.5-2.2 2.4 0-5.2-2.6-6.5-13.2-6.9a138 138 0 0 0-17.3.6m69.9 6.9q1 1-.1 2.1c-1.4 1.4-23.9.7-25.4-.8q-1.1-1 7.6-.7c7 .2 8.7-.1 9.2-1.3q.4-1.6 4.1-.9c1.9.3 4 1 4.6 1.6m-101.9 2c-2.8 1.2-6.7 1.2-6 0 .3-.6 2.3-1 4.3-.9q4.3 0 1.7.9m-7.9 1.7c-.1 1.4.6 1.7 3.3 1.5 6.1-.6 2.9 2.1-7.3 6.1-10.9 4.2-21.1 5.6-21.1 2.7 0-.8 2-2.5 4.5-3.7a73 73 0 0 1 15.4-6.3c.8 0 1.8-.5 2.1-1 1-1.7 3.3-1.1 3.1.7m89.3 2.2c.8 1.5 2.5 2 8 2.3 3.9.2 7.3.7 7.7 1.1q2.3 2.2-7.2 2.2-6.3 0-6.4 1.1 0 2.4 7 2.4c2.1 0 4.2.4 4.5 1 .4.6-2 1-6.3 1-5.1 0-7.1.4-7.5 1.4-.9 2.4 1.6 4.5 5.8 4.8 5.1.4 4.3 2.3-1 2.3a15 15 0 0 0-5.3.8c-1.9 1.3.4 4.7 3.2 4.7 1.3 0 2.7.7 3 1.6.9 2.4.7 5.4-.4 5.4q-.9-.2-1-2c0-1.6-1.1-2.6-2.2-1.8q-.5 0-2.5-1-2.2-1.2-4.3-8l-2.1-6.7 2-1.4c2.2-1.4 2.8-5.5 1.1-6.6-.5-.3-1-1.9-1-3.6q-.1-3.1 2-2.9c1 0 2.4.8 2.9 1.9m62.6.2c1.6 1.6-2 1-4.1-.7q-2.9-2 .6-.8c1.4.3 2.9 1 3.5 1.5m-79 2.1c.4 1.7 1.3 3.8 2 4.5.8.7 1.7 3.9 2.1 7a29 29 0 0 0 2.1 8.6c1.3 2.6 1.3 3.1-.2 4.7-1 1.1-1.5 3-1.3 4.7.3 2.7.5 2.8 6.3 2.8 5.5 0 6 .2 7.5 2.8 1.4 2.6 1.4 2.9-.2 4.1-2.2 1.6-2.3 4.5-.3 5.2 2.2.9 1.8 2.4-.5 2.4q-2 0-2 1.9c0 2 2.7 4.8 3.7 3.8 1.2-1.3 3.3 1.6 3.3 4.5q0 3.2-1.4 2.5c-2.4-.9-3.8 1.7-2.2 3.9 1.2 1.5 1.7 1.7 2.7.6q2.9-2.7 2.9.8 0 2-2.2 2a8 8 0 0 0-3.7.9c-2.3 1.5-.2 3.1 4 3.1 5.1 0 5 1.6-.2 2.5-3.6.6-6 2.7-4.7 4 .3.3 3.1-.4 6.3-1.5 5.5-1.9 8-2 5.9-.1-.5.4-3.2 1.6-6 2.6-5.1 1.8-5.3 1.8-10.5-.3-3-1.1-6.5-2.4-7.7-2.7-2.7-.8-2.8.3 1.7-16.2 3.6-12.8 5.3-23.4 4-24.7-.4-.5-1.9-.2-3.3.8-2 1.3-2.6 2.5-2.6 5.4a95 95 0 0 1-6.4 24.7c-1.2 0-6.2-14.9-8-23.5-1.2-5.5-1.2-6.8 0-8.5 1.8-2.6 1.8-4.4-.3-6.7-1.5-1.7-1.4-2.5 1.5-12.1 1.7-5.6 3.5-11.6 3.8-13.2 1.3-5.6 2.9-6.2 3.9-1.3m-62.5.5-1.4 10.3q-3 19.8-.7 23.9c1.1 2 1 2.6-1.3 5-1.4 1.5-2.6 3.2-2.6 3.9 0 1.4-2.6 1.6-3.5.3q-.3-1 1.4-2.1 2-1 1.4-2.6-.6-1.5 1.6-2.1 2.4-.5 1-1.9-1-1.1-2.4-.8c-.7.3-2.2-.7-3.4-2.2-1.8-2.3-2.6-2.5-5.6-2-3.3.6-3.5.5-3.5-1.9q0-4 2.6-1.6c.5.5 1.9.5 3.3 0 2.2-.9 2.2-1.1.9-3.2q-2.9-4.1-9-1.6-3 1.3-4 .1c-1.3-1.3-.5-1.7 5.3-2.6 1.9-.4 4.4-1.3 5.5-2.1 1.6-1.3 1.7-1.6.4-2.5-2.2-1.4-4-1.2-4 .5q.1 1.8-1.6.7-1.7-.8-4.9.1c-3.5 1-6.5.5-6.5-1.3 0-.5 1.8-1 3.9-1 2.2 0 4.3-.5 4.6-1s1.8-1 3.3-1c6.3 0 9.7-2.8 5.5-4.5-1.5-.6-1.3-.9 1.2-2.3a72 72 0 0 1 11.8-5.1q.7 0 .7.6m180.6 21.9c2.1 1.5 6.8 4.2 10.4 6.1 7.1 3.8 8.7 5 7.8 5.9-.4.3-3.3-.6-6.7-2.1-6.2-2.8-8.1-2.7-8.1.4 0 2.3 1.4 3.5 6.3 5.2 2 .7 3.7 1.6 3.7 1.9q.2 2.8-6.1-.6c-2.6-1.5-5.5-2.4-6.3-2.1-2.8 1.1-1.8 4.2 1.9 6 1.9.9 3.5 2.1 3.5 2.7 0 1.3.1 1.3-4.5-1-4-2-6.5-1.4-6.5 1.6 0 1.6-1.8 1.8-3.8.5-2.4-1.5.8-27.1 3.3-27.1.7 0 3 1.2 5.1 2.6M259.5 130q.4.9-.4 1-1-.1-1.1-1 0-1 .4-1t1.1 1m-27 10.1c-.2 5.7-.8 9.5-1.5 9.9-1.9 1.2-.7 4.4 2 5.1l2.5.6-2.7 1.1c-2.6 1.1-2.7 1.5-2.4 6 .5 6.7 1 7.3 5.4 6.6 3.6-.6 3.8-.5 6 4 1.3 2.5 2.1 5 1.7 5.5-.3.5-3.1 1.3-6.3 1.6s-7.9 1.3-10.5 2.2c-2.7.8-5 1.3-5.3 1.1-.2-.3.1-2.9.7-5.9l1.3-6.9c.1-.8.5-2.2.8-3s.9-7.3 1.3-14.4c.5-11.4.4-12.8-.9-12.3q-1.5.6-1.6.2c0-.9 3.6-4.1 5.3-4.8.9-.3 1.9-1.8 2.3-3.2 1.3-5.2 2.2-2.2 1.9 6.6m75.8-2.3c-.6 2.4-2.3 3-2.3.9 0-1.3 2.1-3.9 2.6-3.4.2.2.1 1.3-.3 2.5m9.2-1.8q.4.9-.4 1-1-.1-1.1-1 0-1 .4-1t1.1 1m-143.9 6.1q0 3.6-2.1 1.9c-1.6-1.3-.8-4.3.9-3.7q1 .4 1.2 1.8m146.8.4q-.7 1.3-1.5 1.5-.7-.2-.3-1.5.7-1.4 1.5-1.5.7.1.3 1.5m-8.7 2.9q-.5 1-2.5 1.4c-2.4.4-2.5.2-1.6-2.1.6-1.7 4.7-1.1 4.1.7m-124.2 8.1c8.9 16.3 9.7 17.5 11.6 17.5s2.3.4 3.3 5.2c.7 3.2-.9 3.8-1.9.8-.8-2.4-3.2-2.6-6.2-.5-2 1.4-2.3 1.4-3.1-.2-1-1.8-8.2-27.3-8.2-28.8s1.7.8 4.5 6m35.2 5.4c-.8 11.4-1.3 13.1-3.6 13.1-2.8 0-2.9-.6-.6-7.7 1.3-3.8 2.6-8.7 3-11.1 1.2-7.4 1.8-4.5 1.2 5.7m86.8-.9c-.4 3-.9 5.8-1.2 6.2s-1.7.1-3.3-.7c-3.3-1.7-4.3-.9-3.9 3.3.2 1.5-.1 3.3-.5 4.1-1.2 1.8 3.2 5.7 4.7 4.2q1-1-.1-2.3c-.8-1.1-.6-1.7.9-2.6 1.8-1.2 1.9-.9 1.9 5.5v6.6l-2.8-2.7a19 19 0 0 0-6.2-4.1l-5.2-2q-2-.9-1.8 1.4c0 1.5 1.5 2.9 6 5.1 3.3 1.7 6 3.4 6 4 0 3.2-6.5 1.1-12.3-4l-3.7-3.2 3.3-3.8c1.9-2 5.3-6.5 7.7-10q4.3-6.2 5-5c.4.7 1.5 1 2.4.7 1.8-.7 2.1-3.2.6-4.2-1.7-1-1.1-2.1 1.1-2.1 1.9 0 2 .4 1.4 5.6m-129.1-3.5q.7 1.6-1.9 1.5c-2.5 0-3.9-1.2-2.8-2.4s4.1-.6 4.7.9m177 1.5c1.4 0 1.4.3.4 2l-1.3 2.1-1.7-2.2a8 8 0 0 1-1.8-3.8c.1-1.4.2-1.4 1.4.1.7 1 2.1 1.8 3 1.8M184 168.3c1.1 4 3.4 9.8 5 13 2.3 4.7 2.5 5.9 1.4 6.4-2.5.9-20.3-.2-21.5-1.4-.8-.8-.6-2.6 1-6.7 1.2-3.1 2.1-7 2.1-8.6q0-5.2 4.1-3c1.1.6 2.7.9 3.5.6 2.1-.8 0-4.4-3.2-5.6-3.5-1.4-2.3-2.7 1.9-2.2 3.4.4 3.6.6 5.7 7.5m169-7.1c0 1.8-13.1 21-18.8 27.7-2.2 2.5-2.2 2.6-3.7.7a8 8 0 0 1-1.5-3.3c0-.7 4.1-5.2 9-9.9a87 87 0 0 0 11.2-12.6c2.2-3.8 3.8-4.9 3.8-2.6m6.5.7c.3.5-.5 2.9-1.7 5.2a31 31 0 0 0-2.6 13.9c-.4 10.1-.9 11.4-3.5 10.4-1.3-.5-1.4-.9-.4-2.5.9-1.5.8-2.2-.5-3.5-2-2.1-4.8-1.2-4.8 1.6q0 2-1.9 2c-2.4 0-4.5 2.5-3.7 4.5.3.9 1.6 2 2.8 2.5 2.7 1 1.3 1.2-3.1.4-1.7-.4-3.1-1.2-3.1-1.8s3.6-6.3 8-12.6 9.1-13.6 10.3-16.2c2.2-4.8 3.1-5.6 4.2-3.9m-123 1.1q-.6.9-1.6 1-.8-.1-.9-1 .1-1 1.6-1 1.3 0 .9 1m76.2 6.2q-.5 1-.5-1.2c0-2.2.2-1.9.5-1.3.2.7.2 1.9 0 2.5m-93.7 10c0 1.2-3.8 1-4.5-.2-.4-.6-.4-1.8-.1-2.7.6-1.4.9-1.4 2.6.2 1.1 1 2 2.2 2 2.7m-21 3.8q-.1.9-1.1 1-.8-.1-.4-1 .6-1 1.1-1 .3 0 .4 1m117 .9c0 1.4-1.8 2.3-3 1.6q-1-.7-.5-1.6c.8-1.2 3.5-1.2 3.5 0m40.5 14.1q.4 1-2.2 1-3.2.1-1.3-1c1.9-1.2 2.7-1.2 3.5 0"/><path d="M258.3 160.6c-.8 2.1 1.3 4.2 2.8 2.7 1.3-1.3.5-4.3-1.1-4.3q-1 .1-1.7 1.6m-2 9q-.5 1.7 1.2 3.1c1.6 1.1 2.1 1.1 3.4-.1s1.2-1.8.1-3c-1.6-2.1-3.9-2-4.7 0m-23.5 3.1q-6.6.8-5.3 5.4c.6 1.8 1.2 2 4.5 1.5 6.3-1 9-2.4 9-4.6q0-1.8-.9-2l-2.3-.3c-.7-.2-3-.2-5 0m-61.3 7.3q-1.7 2.9 7.9 4.9c6.1 1.1 7.6.9 7.6-1.4 0-2-2.7-3.2-9.1-4q-5.8-.7-6.4.5m189.7-87.4c-3.4 4.5-4 6-3 7.1.6.8 2.3 1.3 3.7 1.1 3.5-.4 9-10 7.1-12.3-2.1-2.5-3.5-1.7-7.8 4.1m13.7 3.9c-5.1 6.4-5.5 8.6-1.7 9.6 3.1.8 3.2.7 7.8-7.5 2.6-4.7 3-6 1.9-6.7-2.5-1.6-3.5-1-8 4.6m-269.8-2.2c-.8 1-.2 3.1 2.7 8.5 3.8 7.4 5 8.3 7.2 5.7 1.1-1.3.8-2.5-1.5-6.8-3-5.5-5.3-8.7-6.5-8.7q-.8.1-1.9 1.3m281 6.7c-6.1 7.7-6.3 10.9-.8 11 1.6 0 9.7-11 9.7-13.1 0-.8-3.2-2.9-4.4-2.9-.3 0-2.3 2.3-4.5 5M96 99.5c0 .8 1.7 4.2 3.8 7.5 2.7 4.5 4.2 6 5.7 5.8q5-.8-1.5-9.4c-4.1-5.2-8-7.1-8-3.9m-7 4.4q.1 1 .8 1.1c.9 0 3.2 4.4 3.2 5.8-.1.4-1.6-1.1-3.5-3.3s-3.7-3.7-4-3.3c-.6.6 4.5 9.7 7.3 13 1.8 2.2 2.3 2.2 4.7.5 1.7-1.3 1.6-1.7-2.4-7.5q-6.2-9.2-6.1-6.3m307.1 5.3-4.5 6.1 2.3 1.8c3.1 2.5 3.6 2.4 6.5-1.4 3.8-5 5.8-10.1 4.4-11.5-2.3-2.3-4.3-1-8.7 5m-58.9-.1c.1 1.3.8 2.3 1.3 2.1 1.5-.3 1.2-3.5-.3-4q-1.4-.5-1 1.9M76 112.3a39 39 0 0 0 9.1 13.7c1.8 0 .8-2.1-3.7-7.8-5.8-7-5.4-6.7-5.4-5.9m331.6 5.3a28 28 0 0 0-4.6 6.9c0 .6 1.1 1.7 2.4 2.3 2.2 1 2.8.7 6.1-2.9q6.4-7.1 5.2-10.3-2-4.5-9.1 4M82 114.5c0 .4 3.7 6.6 5.7 9.4q.4.3.9-.2c.4-.4-.6-2.5-2.1-4.7-2.7-4-4.5-5.7-4.5-4.5m30.7 6.6c-5 2-8.3 4.2-17.2 11.4-10.8 8.8-12.8 12.2-8.2 14.6 1.2.7 3.8 2.6 5.8 4.3s7.3 5.8 11.8 9.1c7.1 5.2 8.1 6.3 7.8 8.4-.4 1.8.3 3.2 2.4 5.2 1.7 1.6 2.9 3.7 2.9 5.1s.9 5.1 2 8.3c2.3 6.6 2.8 21.3.8 23.3q-1.4 1.2.3 1.6 8 2.3 14.6 3.2l5.1.6 10.9-11.2c5.9-6.1 10.9-11.5 11-11.8.2-.4-2.6-2.5-6.2-4.7s-9.7-7.2-13.6-11.2c-6.6-6.7-7.1-7.4-6.1-10 1.2-3.7-.1-7.1-3.2-8.3-2.9-1.1-4.1-3-5-8.5-4.9-27.3-5.2-28.3-6.6-29.9-1.6-2-3.4-1.9-9.3.5m7.9 5.6c.1 6.8 2.3 21.7 3.9 26.7 1.4 4.6 1.4 5.1-.2 6.9-2.7 2.9-7 4.9-7.9 3.6q-.5-1.2 1-2.1c2-1.1 2.1-3.2 0-4.9-1.3-1-2-.9-4.6.5-2.7 1.7-3.1 1.7-4.6.3s-1.1-1.8 3.1-3.8q7.8-3.7 2.2-6.1c-2.2-1-3.1-.8-7.1 2.1-3.6 2.5-4.9 2.9-6 2-1.9-1.5-1.1-2.5 3.4-4 6-2 11.6-5.9 10.3-7.2-.8-.8-1.8-.4-3.9 1.6-1.5 1.5-3.8 2.7-4.9 2.7a10 10 0 0 0-5.1 2.5c-3.4 2.8-5.4 3.1-7.1 1.1-.9-1.1-.6-1.8 1.6-3.5 2.6-1.9 2.7-2 .6-2.1-1.2 0-2.5.4-2.8 1-1 1.5-3.5 1.2-3.5-.5q0-1.4 2.5-1.5c2.1 0 5.2-1.4 8.4-3.7q.2-.5-1.4-2.3-1.9-2-.8-3.1t3.1 1.1l2 2.1 5.4-3a48 48 0 0 0 12.2-10.1zm8.4 41.4a11 11 0 0 1-3.1 2.8c-3 2.2-3.2 3.1-1.4 7.3q.6 1.7-.4 1.8c-.6 0-1.4-1.4-1.8-3a8 8 0 0 0-2.6-4.5c-2-1.4-2-1.6-.4-3.2q1.7-2 2.9-.5c2.1 2.1 4.1 1.4 3.6-1.2-.4-2.1-.3-2.3 1.4-1.3q1.6 1.1 1.8 1.8m7.7 8.5c3.4 4.1 13.8 12.9 18.9 16 1.8 1.1 1.7 1.3-1 4.3-2.9 3-5.1 3.6-2.6.6 1.6-1.9.6-4.5-1.9-4.5-2.4 0-11.3 9.7-10.9 11.9q.5 1.5 2.6 1.9c2.7.4 2.8 1.8.3 3.1s-3.7-.1-4.6-5.9c-1.1-7.1-5.5-21.1-8.2-25.8s-2.4-6.2 1.2-6.2q2.3 0 6.2 4.6m-7.9 11.9c1.4 3.1 1.6 6.5.2 6.5-1.1 0-2.5-2.5-3.4-6.3-.8-3.6 1.6-3.7 3.2-.2M132 200c0 1.2-2.8 2.5-3.6 1.7s.6-2.7 2.2-2.7q1.3.1 1.4 1m17 3q-.1.9-1.1 1-.8-.1-.4-1 .6-1 1.1-1 .3 0 .4 1m-16.7 5.1q-1 1.2-3 0c-1.6-.9-1.4-1 1.2-1.1q3 0 1.8 1.1M418.6 125c-4.6 4.8-5.6 6.3-4.7 7.4 2.7 3.2 5 2.5 10.1-3.1 2.8-3.1 4.9-6 4.7-6.6a7 7 0 0 0-2.3-2.4c-1.9-1.2-2.5-.8-7.8 4.7M73 120.6c0 .6 1.4 2.8 3 4.9s3 3.2 3 2.4c-.1-1.7-5.9-8.9-6-7.3m267.1 5.6c.1 3.7.2 3.9.9 1.8 1.2-3.6 1.2-6 0-6-.5 0-1 1.9-.9 4.2m-270.1-2c0 1.8 3.7 6.8 5.1 6.8 1.8 0 .8-2.7-2.1-5.5q-3-3-3-1.3M57.5 126c-.8 1.3 6.7 12.4 8.6 12.7.8.2 2.1-.1 2.9-.6 1.1-.8.5-2.1-3.6-6.7-5.4-6.2-6.8-7.2-7.9-5.4m373 5.2c-6.8 6.5-7.7 8.5-4.6 10.5 1.5 1 2.4.6 5.4-2.5q10.3-10.6 9.3-12.7c-1-2.7-3.4-1.6-10.1 4.7m-382.1 3.2c-.6 1.5 4.1 9.1 7 11.5 2 1.7 4.6.7 4.6-1.7 0-1.7-8.9-11.2-10.5-11.2q-.5.2-1.1 1.4m389.9 4.5c-2.9 2.6-5.3 5.4-5.3 6.2 0 1.8 1.9 3.9 3.5 3.9 1.8 0 10.7-12 10.1-13.6-.9-2.3-2.9-1.5-8.3 3.5M39 144.3c0 2.2 8.7 10 10.4 9.4q3.9-1.5-2.4-7.1c-4-3.6-8-4.8-8-2.3m370.7-.7c-.4.4-.7 3-.7 5.9 0 2.8-1.2 9.1-2.6 14s-2.6 9.7-2.7 10.8-1.3 2.7-2.7 3.5c-3.4 2.2-4 3.2-4 6.8 0 2.5-1.1 3.9-6.5 8.2a55 55 0 0 1-6.9 5.2c-.2 0-2.8 1.6-5.7 3.5s-5.9 3.5-6.7 3.5-2.6.7-4.3 1.5c-2.5 1.3-2.8 2-2.3 4.3.4 1.5 1.3 3.8 2.2 5.2a30 30 0 0 1 2.7 6.4c1.1 3.8 1.4 4 9.6 6.6 4.6 1.6 10.2 3.7 12.4 4.9 5.8 3.1 7.5 2.8 7.5-1.2 0-4.8 3.6-16.9 7.7-25.8 3-6.6 3.4-8.1 2.3-9.4q-1.3-1.7-2.4-.5c-1.5 1.5-3.6 1.2-3.6-.5 0-2.5 3-3 6.5-1.1 3.9 2.1 7.1 1 8.1-2.9q1-4.3 14.9-10.6c3.9-1.8 8.9-4.5 11.2-6.1l4.3-2.9-1.9-3.8c-2.4-4.6-19-20-24.6-22.9-4.7-2.3-10.7-3.7-11.8-2.6m5.8 4.6c-.8 3 8.4 12.4 11.1 11.4q1.7-.6 4 1.5c1.2 1.1 2.7 1.8 3.3 1.5s2.1 0 3.4.9c2.9 1.8 5.1 6.1 3.6 7-1 .7-13.7-7-22.1-13.3-6.4-4.8-8.8-11.2-4.2-11.2q1.5 0 .9 2.2m13.6 6.5q2 2.4-.3.4-1.6-1.2-1.8-1.7 0-1.2 2.1 1.3m-8.2 6.6c3.6 2.9 9 6.8 11.9 8.6 2.9 1.9 5 3.6 4.7 3.9s-3.2-1.3-6.4-3.6c-5.8-4.1-6-4.1-8.2-2.3s-2.2 1.8-.3 3.7l4.8 4.2c4.4 3.4 2.6 3.6-2.8.2-5.3-3.4-6.8-3.7-8.7-1.4-1.1 1.4-.8 2.1 2.4 5 2 1.9 3.7 3.6 3.7 3.9 0 1.3-2.9.3-4.5-1.5-2.2-2.5-6.1-2.6-7.4-.3q-1.7 3.4-2.3-2.2c-.3-2.7 5.1-23.5 6.1-23.5.2 0 3.4 2.4 7 5.3M404.5 183q.4.9-.4 1-1-.1-1.1-1 0-1 .4-1t1.1 1m-7.6 12.3c-3.5 2.9-9.9 8.6-14.2 12.6-6 5.8-7.5 7.7-6.6 8.7 1.6 1.9 4.1.4 12.5-7.7 4-3.8 7.8-6.9 8.4-6.9q1.3 0-.3 1.8c-2.3 2.5-2.1 4 .5 6.2 2.1 1.7 2.1 2 .8 6.1l-1.7 5.1c-.2.3-3-.3-6.2-1.5-5.8-2.1-6-2.1-8-.3-1.2 1.1-2.1 2.3-2.1 2.8 0 1 3.7 2.6 10 4.3 2.6.7 4.5 1.8 4.5 2.6 0 1.6-.1 1.5-10.3-1.9q-7.3-2.6-6.8-3.8.4-1.4-1.4-2.7c-2.5-1.7-5.4-8.1-4.7-10.1.4-.9 1.7-2.1 2.9-2.6 3.9-1.6 14.3-8.2 20.8-13.3 8.4-6.4 9.8-6 1.9.6m49.1-47.4c-4.7 4.2-5.3 5.1-4.1 6.5.7.9 1.9 1.6 2.6 1.6 2.2 0 9.6-8.3 9.3-10.4-.5-3.3-2.3-2.8-7.8 2.3M29 153c0 .5 2 3 4.4 5.6 3.5 3.6 4.9 4.4 6.5 3.9 3.2-1 2.5-3-2.3-6.9-4.1-3.4-8.6-4.8-8.6-2.6m429.4 1.2a68 68 0 0 0-6.1 5.2c-3.1 2.8-3.2 3.1-1.6 4.8.9 1 2 1.8 2.5 1.8 1.9 0 12.7-11.2 12.1-12.6-.8-2-3.6-1.7-6.9.8m-400.9 5.4a61 61 0 0 0-22.3 23.5l-2.2 3.7 7.4 4.1c4.1 2.3 8.1 4.1 8.9 4.1 2.3 0 23.1 11 26 13.7 1.5 1.5 3.6 4.6 4.8 7 2.1 4.4 7.8 23.5 7.9 26.4 0 2.1 1.9 2.9 4.5 1.8 1.1-.4 4.3-.8 7.1-.8 2.7-.1 5.7-.7 6.5-1.4 1.6-1.2 11.7-17.8 14-23 1.6-3.5.7-4.4-5.9-5.7a38 38 0 0 1-9-2.9 83 83 0 0 1-20.1-16.5L82 189c-2.4-3.6-7.3-16-9-22.8-1-4-2.4-8-3-8.7q-3-3.6-12.5 2.1m10.3.6c1.8 1.8 1.5 3.7-1.2 6.9A123 123 0 0 1 48.3 183q-1 .1-2.3 1.5c-.7.8-2.2 1.5-3.4 1.5-2.1-.1-2.1-.1-.1-1.3 1.1-.7 4.4-3.4 7.3-6.1s6.1-5.6 7.2-6.3q1.8-1.4 2-2.4c0-1.7-3.9-.9-7.6 1.6q-7.5 5-3.2-.8a41 41 0 0 1 13.3-10.2c3.7-1.8 4.8-1.8 6.3-.3m-3.7 15.9c-2.4 3.3-2.1 6.9.7 6.9.9 0 2.8-1.2 4.3-2.6s2.9-2.1 3.3-1.6-.3 1.7-1.4 2.7c-2.2 2-2.7 6-.9 7.1q1.1.4 2.2-.5 2.5-2.7 4.9 1.7 1.9 3 .6 4-1.2 1.1.3 2.8c1.3 1.6 1.2 1.7-.7 1.2-3-.8-5.3.7-3.6 2.4.6.6 1.2 1.6 1.2 2q.2 2.3-6.4-2.3c-4.2-3-4.4-3.3-3-5.4 1.3-2 1.2-2.4-.6-4-2-1.8-2.1-1.8-4.8.8-2.2 2.1-3.1 2.4-4.6 1.5-1.8-1-1.7-1.3 1.4-3.8q3.4-2.7 2.7-4.4c-1-2.6-4.4-1.9-8.6 1.9-3.4 3.1-4 3.3-5.1 2-1.6-1.9-1-2.6 5.5-5.9 2.8-1.3 7-4.5 9.5-7.1 4.7-4.8 6.8-4.4 3.1.6M91 204.5a77 77 0 0 0 14.7 9.5c4.6 2.2 8.3 4.5 8.3 5.1s-1.3 2.8-2.8 4.8-3.9 5.3-5.2 7.3c-2.6 3.8-10.9 8.4-13.5 7.4-1.4-.5-2.9-7.1-2-8.6.3-.6 1.6-1 2.7-1 2.1 0 2.1.1.3 2-1.7 1.8-1.7 2.2-.4 3.5 1.8 1.8 7.8 1 8.6-1.1.6-1.6-7.9-17.6-13.6-25.4-2.6-3.6-5.1-6-6.2-6-1.9 0-2.5-1.1-1.2-2.3 1.6-1.6 4.4-.3 10.3 4.8m-5.6 6.3q4.1 6 1.6 6.2c-.9 0-6-7.9-6-9.3 0-1.8 2-.3 4.4 3.1m6.1 11.3q-.2 1.2-1.7 1.7c-1.8.3-2.5-1.8-1.1-3.2 1-1 2.8-.1 2.8 1.5"/><path d="M104.6 219.1c-4 4.8-4.7 9.9-1.2 9.9.7 0 2.7-1.8 4.5-4 3.1-3.9 3.2-4.2 1.7-6.5a9 9 0 0 0-2-2.5 17 17 0 0 0-3 3.1m-85.2-57c-.8 1.4 8.5 10.9 10.8 10.9q5.2 0-1.8-7.1c-7-7.1-7.6-6-9-3.8m446.5 6.9c-5.2 2.7-6.3 4.4-4.7 6.9 1.9 3 3.2 2.6 8.3-2.4 6.4-6.1 4.3-8.7-3.6-4.5m-452.6.6c-.6 1.7 7.2 10.4 9.4 10.4 3.2 0 2.4-3.3-1.8-7.6-4.6-4.7-6.6-5.4-7.6-2.8m-5.9 8.6c-.5.7 1.1 2.9 4.1 5.5 4.5 4.1 4.9 4.3 6.6 2.7 2.3-2 1.4-3.4-4.3-7-4.2-2.7-5.4-2.9-6.4-1.2m466.6 2.7c-5 3-5.9 5-3.5 7.5 2.4 2.4 3.4 2 7.7-2.6 6.3-6.9 3.8-9.8-4.2-4.9m-15.2 9.8c-2.5 3.1-5.1 7.5-10.3 17.7-4.2 8.1-5.7 10.1-7.9 10.7q-5.5 1.6-5.6 4.9c0 1-1.1 2.7-2.5 3.8a120 120 0 0 1-32.7 11.8c-2.6.7-3.2 4.1-1.3 7 .9 1.4 1.4 2.8 1.1 3.1s3.1 4.4 7.5 9a78 78 0 0 1 9.9 12.4c2.3 4.3 4 4.8 8.8 2.3 2-.9 3.4-2.6 3.8-4.2a46 46 0 0 1 11.5-24.2c3.5-4.2 4.7-4.9 8.2-5.2 3.3-.2 4.3-.8 5.7-3.3 1.7-3.1 6.5-5.1 26-11 6.8-2 7.5-2.5 7.2-4.6-.1-1.3-1.6-3.5-3.2-4.9s-3-3-3-3.5-2.5-3.9-5.5-7.4-5.5-7.3-5.7-8.4c-.3-2.4-7-4.7-7.6-2.8q-.4 1-1.3.5c-1.6-.9 1-3.4 2.9-2.8q2 .8-.2-1c-2.5-2.1-3.9-2-5.8.1m3.3 10c.5 1.4 2.3 4.1 3.9 6 3.4 3.8 3.6 4.8 1.5 5.7-2 .7-1.9 4 .1 5.6.8.8 2 2.3 2.5 3.4s-.5.4-2.4-1.7c-1.9-2-4.2-3.7-5.1-3.7-2.6 0-3.1 3-1.2 6.4l1.8 3.1-2.6-2.4c-2.5-2.4-2.6-2.4-4.7-.5-1.2 1-2.9 1.8-3.9 1.6s-2.1.2-2.5.8c-1 1.6-2.5 1.2-2.5-.9 0-1 2.3-6.4 5-11.9a91 91 0 0 0 5-10.9c0-1.1 2.1-3.3 3.2-3.3.5 0 1.3 1.2 1.9 2.7m7 1.9c.7.9 1.8 2.6 2.4 3.8s1.9 2 2.8 1.8q1.8-.3 1.7 1.8.2 2.1 2.9 3.8c3.3 1.8 7 8.2 4.8 8.2-1.6 0-8.7-7.3-12.1-12.5l-4.2-6.3c-1.9-2.5-.4-3.1 1.7-.6M442 224.5q-1.2 1.4-1.7 1.1c-.7-.7.7-2.6 1.9-2.6q1 0-.2 1.5m3.2 5.7q-1.1 1-1.2.2c0-1.4 1.2-2.6 1.9-1.9q.3.6-.7 1.7m-1.2 3.1q-.2.5-2.2 2.3l-2.3 1.9 1.9-2.3q2.6-3.1 2.6-1.9m-22.5 6.4a74 74 0 0 1-16.7 6.3q-1.6 0-1.8-.9 0-2.4 7.3-3.5a48 48 0 0 0 8.5-2.1c5.1-1.9 6.3-1.8 2.7.2m11.5 1.1c-2.7.8-4 3.2-2.8 5.2.9 1.4.8 2.7-.4 5.7l-2.5 6.2c-.9 2.3-1.1 2.2-5.7-3.8a34 34 0 0 1-4.4-6.7 83 83 0 0 1 16.3-7.5q.7.5-.5.9m-20.5 9.1c-.5.9 6.8 12.3 10.8 16.8q1.8 2.1 1 2.3c-.6 0-1.8-1.1-2.7-2.5a118 118 0 0 0-7.8-9c-4.9-5.3-5.9-6.8-4.7-7.6 1.8-1.2 4.2-1.2 3.4 0M1 191.9c0 4.3 7.9 9.3 9.3 5.8.7-1.7 0-2.7-4-5.5-3.9-2.7-5.3-2.8-5.3-.3m242.2-.8c-2.3.9-2.3 1-1.6 12.6.3 6.5.9 12.1 1.3 12.4.3.4 1.7.3 3-.2 2.4-.9 2.4-.9 1.7-12.6-.3-6.5-1-12-1.4-12.4s-1.7-.3-3 .2m11.1 1.1q-1 1.4-.2 3.3c.4 1.1.8 4.3.8 7.1.1 5.8 2.1 8.5 4.9 6.7 1.3-.8 1.6-2.2 1.4-6.7-.5-8.2-1.5-11.1-3.9-11.4-1.1-.2-2.4.3-3 1m12.4.5c-.2.5-.3 5-.2 10.1.2 9.9 1.2 12.5 4.3 10.6 1.3-.9 1.8-2.9 2-9.5.3-7.6.1-8.6-1.9-10.2q-3.4-2.7-4.2-1m-59.2 1.7c-1.6 1.1-1.7 2.2-1.1 8.7.9 8.8 2.5 15.7 3.8 16.5q1 .5 2.9-1.2c1.7-1.8 1.8-2.3.4-7.4-.8-3-1.5-7.8-1.5-10.6q0-9-4.5-6m26.2.4c-2.3 2.5-2.5 16-.2 16.8 3.4 1.3 4.6-1.5 4.3-9.9s-1.3-10-4.1-6.9m46-1.1c-.9 1.5-.5 18.8.4 20.5 1.4 2.6 3.8 2.2 4.9-.8 1.6-4.1 1.2-15.6-.6-18.2-1.5-2.2-3.9-2.9-4.7-1.5m202.9 1.2q-6.4 3.7-3.4 6.7c2.3 2.3 6.1 1.1 8.8-2.6 3.8-5.3.7-7.7-5.4-4.1m-259.6.7c-.8.8-1.4 3.7-1.4 6.2-.1 4.1.2 4.7 2.1 5q3.9.6 3.1-8.3-.6-6.5-3.8-2.9m-7.8.7c-.6.7-1.3 2.9-1.4 4.8-.3 2.9.1 3.4 1.9 3.7q2.4.4 2.8-2.1c1.4-5.3-.8-9.4-3.3-6.4m-17.6 1.6c-.9 1.4.5 6.9 2 8.2 3.4 2.8 5.9-2.5 3.4-7.2-1.1-2-4.5-2.6-5.4-1m97.7 1.3a54 54 0 0 0-2.7 17.9c.9 1.6 4.3 1 5.3-1 1.9-3.4 3.3-15.2 2-16.7-1.4-1.7-3.3-1.8-4.6-.2m-269 2.6c-.2 1-1.8 2.3-3.5 3-3.5 1.3-5.3.6-2.5-.9q1.5-1 1.7-2c0-.6-1.3-.1-3 1.1s-3 3-3 4.1-.7 1.9-1.5 1.9q-1.3 0-.9 1.5.6 1.4-1 1.5C10.5 212-.2 228.4.2 231.2c.2 1.7.8 1.1 2.7-2.8 1.3-2.7 4-6.5 6-8.4s4.6-4.9 5.8-6.5l2.2-3 2.6 3 2.5 3 2-2.5a23 23 0 0 0 3.1-5.8c.6-1.7 1.4-3.2 1.9-3.2s.8 1.5.7 3.2c0 2 1.7 7 4.2 12.3 6.5 13.7 6.4 16.8-.9 19-2.4.7-2.5.7-.7-1.2 1.9-2.2 1.5-4.8-1-5.7-2.1-.8-3.3.1-4.9 4q-2.4 5.5-4.1 1.8c-.3-.9.8-3.4 2.7-6.1 2.6-3.5 3.1-4.9 2.3-6.2q-1-1.5-2.3-1.6c-1.4 0-9.3 9.1-10.2 11.6-.5 1.2-.9 1.2-2.8.1s-2.5-1.1-3.9.2q-3.7 3.3-6.5-.6c-1.6-2.2-1.6-2.2-1.6-.1 0 3 2.1 4.3 8.9 5.3 3.3.5 6.5 1.1 7 1.5s3.1.6 5.7.7c3.6 0 5.3.6 6.9 2.4a11 11 0 0 0 4.8 2.9c4 1.1 13.4 17.3 15.2 26.2a17 17 0 0 0 2.6 5.8c1.7 2.1 2.9 2.5 7 2.5q9.9.1 14.4-6.7C75.4 272.2 86 253 86 252c0-.3-.9-1.6-2-2.8-1.5-1.6-3.3-2.2-6.3-2.3-2.3 0-7.8-1.3-12.2-2.8-15.9-5.6-15.9-5.6-16.6-9.1-.7-3.1-3.3-5.9-5.6-6q-1.2-.1-1.3-1.3c0-.8-1.7-4.9-3.9-9.3l-5.9-12.5c-2.3-5.1-5.1-7.1-5.9-4.1m28.7 43a96 96 0 0 0 20.3 5.7c1.5.3 2.7 1.1 2.7 1.8 0 2.3-3.8 9.3-7.5 13.7a70 70 0 0 0-5.8 8.2c-2 3.5-5.4 5.5-4.4 2.5.6-1.8-2.6-10.4-6.7-17.6-2.7-4.8-3.4-6.7-2.5-7.7 1.6-1.9-.6-5.2-3.7-5.6-3.2-.4-5-2.8-4-5.3.6-1.6.8-1.6 2.4-.2.9.9 5.1 2.9 9.2 4.5m-17.4 0c-.9.9-3.7-.8-3.1-1.8q.7-1.2 2.1.1 1.3 1 1 1.7m15.3 22.8c3.2 6.8 3.8 9.4 2.2 9.4-.5 0-1.7-2.1-2.7-4.8l-3.1-8.1c-1.5-4-1.6-4.4-.4-3.7.5.4 2.3 3.6 4 7.2"/><path d="M59.1 254.7c-.8 1.5-1.2 1.6-2.2.5-.7-.6-1.7-1.2-2.1-1.2-1.6 0-.7 2.6 2.1 5.9 3 3.7 4.6 3.5 6.2-.6q.9-2.4-.1-4.4-2-3.6-3.9-.2m6.9 4.5-4.5 6.4q-1 1.4.7 3.1c1.7 1.6 2 1.5 5.2-2.3 5-5.6 6.2-8.2 5-10.2-1.8-2.8-2.8-2.3-6.4 3m105.2-57.9c-.9 1.1-.9 2.3.1 5.3.8 2.1 2 6.4 2.7 9.4s1.9 6.3 2.8 7.2c1.5 1.8 4.7 2.4 5.5 1 .3-.4-1.2-5.9-3.2-12.2-3.7-11.5-5.4-13.7-7.9-10.7m12 0q-1.2 1.2-.1 5.1c.8 3 1.5 3.7 3.1 3.4 2.7-.4 4-3.9 2.4-6.9-1.4-2.8-3.8-3.5-5.4-1.6M0 204.5c0 3.1.3 3.5 2.5 3.5 3.6 0 4.4-2.8 1.4-5.1-3.4-2.6-3.9-2.4-3.9 1.6m307.6-.8c-1.8 6-2.8 15.5-1.7 16.6 1.5 1.5 4.2-.1 5.9-3.5 2-4.1 2.7-11.5 1.2-13.3-1.7-2-4.7-1.9-5.4.2m13.6 1.5a55 55 0 0 0-4.2 16.3c0 2.3.4 2.6 2.7 2.3 2.5-.3 2.9-1 5.1-8.6a34 34 0 0 0 1.8-9.8c-.7-1.7-4-1.8-5.4-.2m-161.1 2.2c-2.2 2.6 2.9 7.9 5.9 6.1 1.6-1 1.2-4-.8-5.8-2.3-2.1-3.6-2.1-5.1-.3m327.8 1.5c-2.3 1.9-2.4 1.9-.5 4 2.5 2.7 3.7 2.6 6.6-.3 4.3-4.7-1-7.9-6.1-3.7m-156.1.4c-2.5 2-6.9 15.8-5.6 17.4q4.3 5 8.7-9.1c2.5-8.2 2.5-7.3.2-8.5q-1.9-1.1-3.3.2m-179.2 4c-1.5 1.1-1.6 1.8-.8 3.3.6 1 1.8 4 2.8 6.6s2.3 4.9 3.1 5.3c2 .7 4.3-1.2 4.3-3.5 0-3.8-4.9-13-7-13-.3 0-1.4.6-2.4 1.3m188.1 1.5c-1 1.1-2.7 4.5-3.8 7.7-1.8 5.1-1.9 6-.5 7.3.8.8 2.2 1.2 3.1.9 2-.8 7.8-13 7.3-15.4s-4.1-2.8-6.1-.5M.2 216q0 2.2.5 1.2c.2-.6.2-1.8 0-2.5q-.5-.9-.5 1.3m143.8 2.8-2.2 1.8 2.1 5.3c2.2 5.9 6.6 13.1 8 13.1 2.1 0 4.1-1.3 4.1-2.6a93 93 0 0 0-8.9-18.8c-.5-.3-1.9.2-3.1 1.2m-123.9 2.1a11 11 0 0 0-2.1 3.9c0 .5-.7 1.5-1.5 2.2q-1.4 1.2-1.1 1.8c.3.2 1.8-1 3.3-2.8 4.5-5.4 5.4-6.8 4.4-7.4-.5-.4-1.9.7-3 2.3m475.1-2c-2.2 1.3-1 4.4 2.1 5.2 2.5.7 2.7.5 2.7-2.1 0-1.6-.7-3-1.6-3.4-1.9-.7-1.6-.8-3.2.3m-371.1 3-2 2 4.9 10.2a52 52 0 0 0 6.3 11q1.4.9 3.2-1.1c2-2.2 2.1-1.9-4.8-15.8-4-8.1-5-8.9-7.6-6.3m8.3.5c-.6 1.6 3.4 8.6 4.9 8.6q4.3-.3 3.3-4.6c-.4-1.6-1.2-3.5-1.8-4.1-1.4-1.7-5.7-1.6-6.4.1m218.3.4c-2.9 3.2-5.7 10.5-4.5 11.9q4 4.8 9.8-6.5c1.8-3.4 2-4.5 1-5.7-1.7-2-4.3-1.9-6.3.3m9.4 10.1c-3.8 5.9-4 10.4-.4 10.9 1.7.3 2.9-.8 5.3-4.5 2.9-4.6 4.6-9 3.9-9.8-.2-.2-1.6-.6-3-1-2.3-.6-3-.1-5.8 4.4m139.2-1.4q0 3.5.4 1.7c.2-1.2.2-3 0-4q-.5-1.2-.4 2.3m-23.7 1.5a18 18 0 0 1-6.6 4c-.9 0-2.5.9-3.6 2.1-1.9 2.1-1.8 2.1.5 4s7.6 2.6 8.3 1.1c.2-.4 2.9-2.9 6.1-5.7 6.1-5.2 6.8-6.8 3.8-8.5-2.9-1.5-3.2-1.4-8.5 3M6.5 231.1q-.6 1-.2 1.6c.7.7 2.7-.6 2.7-1.8s-1.7-1.2-2.5.2m111.1 1.4c-2.2 2.2-2.1 2.6 1.5 7.1q4.8 6.3 7.3 2.2c.8-1.4.4-2.6-1.9-5.9-3.5-5-4.7-5.6-6.9-3.4m368.9 4.7c-4.4 2.5-10.3 8-12 11.2-1.6 2.9-1.7 3.7-.6 5q1.4 1.5 2.7 1.6c.7 0 5-3.5 9.5-7.9l8.1-7.8-2.3-1.7c-2.7-1.9-2.8-1.9-5.4-.4m-116.3 3c-6.8 11.2-7.4 13.3-4 14.4 1.8.5 3-.1 6-3.5 3.9-4.4 6.4-10.2 5.4-12.6-1-2.8-5.3-1.7-7.4 1.7m129 .8q0 2.2.5 1.2c.2-.6.2-1.8 0-2.5q-.5-.9-.5 1.3m-390.8 4.1c-1.8 2-1.8 2.1 3.9 7.6 5.2 5 6 5.4 7.4 4.1 1.2-1.3 1.3-2 .3-3.9-1.3-2.6-8-9.9-9-9.9q-.8.2-2.6 2.1m-107.1-.4c-3.1 1.2.1 5.5 6.5 8.7 2.6 1.4 3.7 1.5 4.8.5 2.3-1.9 1.7-3.3-2.8-6.7-4-3.1-5.9-3.6-8.5-2.5m451.1 2.2c-6.4 4.7-11.7 10.8-11.1 12.5 1.3 3.2 5.2 1.5 12.7-5.5 7.1-6.7 7.4-7.1 5.6-8.5-2.6-1.9-2.7-1.8-7.2 1.5m-72.6 2.8c-4.5 4.6-6.3 8.9-4.7 10.9 2.2 2.7 4.8 1.4 8.8-4.3 4.6-6.3 4.9-7.8 2.2-9.3-2.6-1.3-2.2-1.5-6.3 2.7m108.4.8c-2.2 1.9-4.2 3.2-4.6 3q-.5-.4-.1.1c.2.4-.4 2.3-1.5 4.3-1.9 3.8-1.7 4.6 1.1 6.8 1.3 1.1 2 .9 4-.8 2.2-1.9 2.4-1.9 2.7-.4.2.9-.1 2.2-.7 2.8-1.5 1.5-1.4 7 .1 8.5q3 3 7.2-2.1l2.6-3.2v5.7c0 4.8-.3 5.8-2 6.3-2.4.8-2.7 5.3-.4 6.2.9.3 2 1.5 2.4 2.7.6 1.3.9-3.5.9-12.7l.1-14.7h-3.3c-1.8 0-4.1-.6-5.1-1.3-1.7-1.2-1.5-1.6 2.3-5.8 6-6.6 6.1-6.7 6.1-8.1q0-1.5-.9.1-.7 1.5-2.9.2c-3.1-1.6-3.8-1.4-8 2.4m-397.5.7c-.9 2.7 12.1 16.8 15.5 16.8 4 0 2.8-2.9-4.4-10.4-7-7.3-10.1-9.1-11.1-6.4m11.5 1q-2.8 3 1.3 5c2.1.9 2.9.9 4-.3 1.3-1.3 1.3-1.7-.1-3.7q-2.5-3.7-5.2-1M0 255.1c0 1.2.8 2.8 1.8 3.6 1.6 1.4 1.6 1.4 0 .9-3-.9-2.1 2 1.3 4.2 3.7 2.3 8.4 2.4 8.4.1 0-.9-2.6-3.7-5.7-6.3-5.2-4.2-5.8-4.5-5.8-2.5m451.6 6.9c-6.6 5.4-8 7.4-7.2 9.6 1.1 2.8 4.7 1.3 12-5.4 5.5-5 7.2-7 6.4-8-1.9-2.3-5.3-1.2-11.2 3.8m-62.9.9c-4.2 5.4-4.6 7.6-1.7 9.1 1.6.8 2.6.4 5.5-2.1 2-1.8 4.3-4.6 5.2-6.2 1.4-2.8 1.4-3.2-.3-4.4-3-2.2-4.8-1.5-8.7 3.6m48.3-.4c0 1.9 3.2 3.6 5 2.5 1.1-.7 1.1-1.1.1-2.4-1.7-2-5.1-2.1-5.1-.1m-350.3.2c-1.5 1.5-.4 3.6 4.1 7.8q7.4 7 8.9 2.8c.5-1.2-.9-3-4.6-6.5-5-4.6-7-5.6-8.4-4.1m-65 4q-2 2.1 2.1 5.8c1.5 1.3 3.3 2.5 4 2.5q1 0 1.2 1c0 .5 1.6 1.7 3.6 2.5 3.6 1.5 6.4.8 6.4-1.5 0-1.3-13.3-11-15.1-11-.9 0-1.9.3-2.2.7M0 269.9c0 3.5 2.7 4.9 4.9 2.6 1.5-1.5 1.4-1.8-.8-3.6-3.2-2.6-4.1-2.4-4.1 1m398-.3c-3.6 3.1-6.4 8-5.6 10 1.2 3.2 5.4 1.5 10.1-4.1 4-4.6 4.5-5.8 3.5-7q-2.6-3.3-8 1.1m60.4.3c-7.7 5.8-8.6 6.8-8.3 8.6a5 5 0 0 0 2 2.8c1.3.8 2.9 0 7.8-4.3q9-7.8 4.5-9.4c-2.1-.8-1.6-1-6 2.3m-376.8 3c-1.6 1.7-1.5 2 1.8 4.9 3.5 3 8.7 4.9 10.6 3.7 1.7-1.1 1.1-3.4-1.2-4.6-1.3-.7-3.6-2.3-5.1-3.5-3.4-2.9-3.9-2.9-6.1-.5m-65.2 3.8c-1.6 1.6-1.4 1.9 2.2 4.9a45 45 0 0 0 8.6 5.5c3.9 1.8 5 2 6.3.9q1.3-1.2 1.5-1.9c0-.7-15.4-11.1-16.4-11.1q-.6.2-2.2 1.7m447.2 3.2c-5.5 4.3-7 6.5-6.2 8.7q1.4 3.6 9.6-2.7c6-4.8 7-6.7 4.5-8.5-2.5-1.9-2.3-1.9-7.9 2.5M0 280q0 2.1 4.5 4.8l11.8 7.3c10.7 6.8 13.8 8.2 14.9 7.1 1.6-1.6.3-3.9-3.2-5.7-1.7-.9-5.4-3.4-8.3-5.5a22 22 0 0 0-6.8-4c-.9 0-4.2-1.4-7.3-3-5.3-2.9-5.6-2.9-5.6-1m407 2.9q-6.3 6-.9 7.6c2.2.7 7.1-2.6 8.9-6.1 1.1-1.9 1.1-2.6 0-3.9-1.9-2.3-3.6-1.8-8 2.4m-329.3-1.8q-4.6 2.8 3.4 7.9c4 2.4 5.4 2.8 6.5 1.9 2.2-1.8 1.7-3.5-2.3-6.6-5.3-4.1-5.6-4.3-7.6-3.2m346.2 5.5c-.8.9-2.8 2.3-4.5 3s-4.6 2.7-6.4 4.4c-3.2 3-3.2 3.1-1.5 5 1 1.1 2.4 2 3.1 2s4.4-2.6 8.4-5.7c5.3-4.2 7-6.2 6.8-7.7-.4-2.7-4-3.3-5.9-1m46.2 2.9c-6.8 5.5-7.8 7.2-5.7 9.3 1.4 1.4 1.9 1.4 4.3.1 1.5-.8 5-3.6 7.8-6.2 4.8-4.6 4.9-4.9 3.1-6.3-2.8-2-3.5-1.8-9.5 3.1m-405.9-2.3c-2.6 2.6-1.8 3.5 10.3 9.7 6.3 3.3 8.5 3.4 8.5.3 0-2-2.9-4.4-10.6-8.5-5.8-3.1-6.5-3.2-8.2-1.5M0 290.8c0 2.1 17.2 16.2 19.7 16.2.3 0 2.1 1.2 4 2.6 2.7 2.1 3.7 2.3 4.8 1.4 2.8-2.3 3.7-1.5-17.4-15.7A82 82 0 0 0 .9 289q-.8.2-.9 1.8m431.5 3.1c-5.2 2.4-13.5 9.8-13.5 12 0 2 1.9 4.1 3.7 4.1.7 0 3.2-1.7 5.6-3.9 2.3-2.1 5.6-4.6 7.4-5.5 3.6-1.8 5.7-5 4.9-7.2q-1-2.8-8.1.5m-374.8 1.8c-1.7 1.6-.3 3.4 4.7 6.2 6.3 3.7 12.8 4.6 13.4 1.9.2-1.3-1.6-2.7-6.7-5.3-6.8-3.4-10.1-4.2-11.4-2.8m420.4 4.3c-5.9 4.7-7.5 7.2-5.9 8.8 2.3 2.3 5.4 1.1 11.3-4.2 5.2-4.7 5.8-5.5 4.6-7-2.1-2.5-4.5-1.9-10 2.4m-35.8 4.1c-1.8.5-3.3 1.4-3.3 1.9q-.2 1-1.9 1c-2.4 0-10.1 9-10.1 11.8 0 1.1.7 2.5 1.5 3.2 1.1.9 2 .8 4.6-1 1.7-1.3 3.9-3.6 4.8-5.1 1-1.6 3.3-3.9 5.2-5.2q3.4-2.3 3.7-5c.4-2.9.3-3-4.5-1.6M0 306.7c0 1 1.3 2.7 2.9 3.8 16.8 11.8 17.1 11.9 18.9 10.1 1.6-1.6 1.5-1.9-1.4-4.4a49 49 0 0 0-6.5-4.7c-11.8-7-13.9-7.7-13.9-4.8m46.7-1c-1.4 1.4-.6 3.3 1.4 3.3a27 27 0 0 1 8 3.5c3.3 1.9 6.4 3.5 6.9 3.5 1.8 0 2.2-4.1.5-6-3-3.3-14.8-6.3-16.8-4.3m435.5 7.1a24 24 0 0 0-5.2 5.9c0 1.2 2.7 4.3 3.7 4.3a55 55 0 0 0 13.3-11.6c0-1.4-3-3.4-5.2-3.4-.8 0-3.7 2.2-6.6 4.8m-446 3.5q-2.3 2.7 4.3 4.3c1.7.4 5.5 1.9 8.6 3.5 5.6 2.8 7.9 2.6 7.9-.6 0-1.5-3.5-4.7-4.6-4.3-.5.1-2-.5-3.4-1.4-3.7-2.4-11.3-3.3-12.8-1.5m403.6 4.7c-5.2 5.4-5.9 7.4-2.8 9 1.6.8 2.6.6 4.7-.8l8.1-5.3c4-2.5 5.2-3.8 5-5.3-.3-1.8-1.1-2.1-5.3-2.3-4.8-.2-5.2 0-9.7 4.7M0 320c0 3.3 10.8 11.8 15.1 12a4 4 0 0 0 2.8-1.4c1.4-1.6-1.5-4.1-11-9.4C.2 317.4 0 317.4 0 320m488.1 3a43 43 0 0 0-6.1 5.6c0 .5 2 4.6 2.6 5.3.6.6 13.2-9.9 13.8-11.5.7-1.9-1-4.4-3-4.4-.7 0-4 2.3-7.3 5m-456.3 4.6c-2.6 2.5.4 4.4 10.5 6.5 5 1.1 6 1 6.8-.2 1.3-2 .6-3.2-2.5-4.8-3.3-1.5-13.8-2.7-14.8-1.5M449 331c-.6 1.1-1.9 2-2.8 2-4.1 0-5.7 5.1-2.2 7 2.1 1.1 6-.2 6-2 0-.6 1.4-1 3.1-1 5.8 0 8.9-3.6 5.7-6.8-2-2-8.6-1.5-9.8.8M0 333.5c0 2.1 1 3 5.5 5.2 5.3 2.6 5.6 2.6 7.3.9 1.6-1.6 1.6-1.8-.7-3.7-1.3-1-3.5-2.2-5-2.5-1.4-.3-3.6-.9-4.8-1.4-2-.8-2.3-.7-2.3 1.5m490.2 3.2c-1.1 1-2.3 3.5-2.6 5.5q-1.5 7.4 6.4.2c3.8-3.5 4-3.8 2.4-5.5-2.1-2.4-3.6-2.4-6.2-.2m-460.4 1.9c-1.2 2.5-1 2.9 3.2 6.6 4.9 4.4 6.9 4.5 8.8.5 1.4-3 .3-5.7-2.3-5.7-.7 0-2.4-.9-3.8-2-3.3-2.6-4.5-2.5-5.9.6M458 340q-12 2-12 9-.2 4.5 5.8 1.1a44 44 0 0 1 7.5-3.1c2.1-.7 3.7-1.8 3.7-2.7q0-1.4-1.5-.9l-3.2 1.1c-1.9.6-2 .7 3.4-3.1 2.2-1.5.5-2.1-3.7-1.4M0 345.4c0 2 .6 2.5 4 3.1 2.1.4 4.4.4 5 0 2-1.2 1-3.3-2.1-4.4-5.1-1.8-6.9-1.4-6.9 1.3m28.2 4.8c-1.6 1.6-1.6 5.3.1 6.6 3.8 3.2 9.7 2.1 9.7-1.8 0-3.6-7.3-7.3-9.8-4.8m427.8 2.3c-2.7 1-3.6 1.9-3.8 4-.4 3.5 1.2 5.3 3.2 3.6.9-.7 2.1-1.1 2.8-.8 1.5.5 6.8-2.3 6.8-3.6q-.2-.7-2-.2c-2.3.7-2.8-1.3-.5-2.1q1.4-.7 1.5-1.5c0-1.2-3.7-.9-8 .6m33 2.2c-2.4 3.1-1.3 5.1 1.8 3.4 1.1-.6 3.7-1.1 5.6-1.1 3.2 0 3.6-.3 3.6-2.5s-.4-2.5-4.4-2.5c-3.6 0-4.8.5-6.6 2.7M0 357c0 1.7.7 2 3.9 2 3.7 0 6.8-1.9 5.4-3.3-.3-.4-2.6-.7-5-.7-3.6 0-4.3.3-4.3 2m29.2 3.2c-1.9 1.9-1.5 6.5.7 7.1 4.3 1.1 6.8-3.5 3.5-6.7-1.9-1.9-2.6-2-4.2-.4m463.3 1c-4.4 2.5-4.9 6.4-.7 5.4 5.1-1.3 8.2-3.1 8-4.6-.4-1.9-4.6-2.4-7.3-.8m-32.5 1.2a6 6 0 0 1-3.3 1.8q-2.3.2-2.5 3.2-.8 6 4.5 3.3c1.5-.8 4-2 5.6-2.6 3.7-1.5 3.5-3.4-.3-2.6-3.6.8-4-.2-.5-1.5 1.4-.5 2.5-1.4 2.5-2 0-1.5-4.6-1.2-6 .4M1.6 364.2c-2.6 1.4-2 4.4.8 4.3s5.8-2.3 5.1-3.5-4.1-1.8-5.9-.8m494.2 5.7c-2.2 2.2-2.3 4.1-.3 4.1q1.4-.2 1.5-2c.1-1.8.5-2 1-2q1-.1 1-1-.2-2.2-3.2.9m-466.1.8c-1.3 1.3-.7 6.1.9 6.7q3.4 1.2 3.4-2.8c0-3.2-2.7-5.6-4.3-3.9m431.3 2.4c-5.5 5.8-4.9 11.2.8 6.5 1.6-1.4 3.9-2.6 5-2.6s2.5-.7 3.2-1.5c1.3-1.6.9-1.8-3-1.6-2.3.2-2.4.1-.7-1.2q3.5-2.8-.4-2.7c-1.2 0-3.4 1.4-4.9 3.1M4.5 375q-.4.9.4 1 1-.1 1.1-1 0-1-.4-1-.6 0-1.1 1m489.2 5.1c-1.7 2.3-1.3 4.9.8 4.9 1.8 0 3.7-2.6 3.3-4.6-.5-2.6-2.4-2.8-4.1-.3m-33.2 6.9c-1.4 2.8-1.4 3.1.1 3.7 3.4 1.3 7.3-3.9 4.2-5.8-2.1-1.4-2.6-1.1-4.3 2.1m-429.9-1.3c-.9 1-.7 4.3.3 4.3 1.1 0 2.1-3.9 1.1-4.5q-.7-.3-1.4.2m427.3 11c-.5 1.5-.6 3-.1 3.5 1.3 1.3 4-.1 4.7-2.3 1.4-4.3-2.9-5.5-4.6-1.2m-427.9.9q.1 1.3 1 .9 1-.6 1-1.6 0-.8-1-.9-.9.1-1 1.6m430.4 6.9c-.3 1.4-.3 2.9.1 3.3.8.8 3.7-2.8 3.2-4.2-.7-2.1-2.7-1.6-3.3.9M71.7 502.7c-.4.4-.4 2.2-.1 4 .6 3.1.4 3.3-2 3.3-2.8 0-7.4-2-11.7-5.2-2.7-2.1-7.3-1.7-8.2.6-1.5 3.9 7.3 14.7 14.9 18.3 3.4 1.7 5.3 5.1 4 7.2-1.1 1.7 2.3 7.1 4.4 7.1 1.7 0 1.9.5 1.4 4.3-.6 4.1-.4 4.6 5.4 11.5 3.4 4 6.3 8.1 6.7 9.1.8 2.6 7.3 7.4 9 6.7q1.4-.4 1.5.2c0 .5 2.1 3 4.8 5.7q4.8 5 8.2 5.5 3.6.5 3.8 2.5c.8 6.1 3.7 18 6 24.8 1.9 5.7 2.3 8 1.4 8.9-1.7 1.7-4.2.2-5.4-3.2q-2.3-7-11.1-4.2-8.5 2.6-5.7-2.8c1.5-2.8.6-6.3-3.1-11.7-2.9-4.2-3.1-4.3-8.1-4.2-4.7.2-5.4-.1-7.8-2.9-5.3-6.4-14.2-3.1-15.6 5.7-.4 2.3-1.1 4.1-1.6 4.1a15 15 0 0 1-4.5-3c-3.6-3.2-4.9-3.5-7.2-2.1-1.2.8-.8 1.7 2 5a165 165 0 0 0 23.4 23.7l3 1.3-4.3.1q-4.3 0-4.9 1.6c-.9 2.4.7 3.3 9 4.6 7.1 1.1 7.8 1 9.8-.8 1.8-1.6 3.5-1.9 10-1.7 4.3 0 9.4.6 11.2 1.2q6.6 2.1 6.7-2.5c0-2.8 2.5-4.3 4.3-2.5q1.3 1-1 2.6c-2 1.4-4.7 10.7-5.5 19-.3 2.4-.9 3.1-3.8 3.8-5.9 1.4-14.1 2.5-23.5 3.1-24.1 1.6-28.4 2.4-28.5 5.7 0 .4-5.1 1-11.2 1.4-25.2 1.7-27.4 2.2-31.2 6a13 13 0 0 1-8.4 3.9c-7 .9-8.2 1.5-8.2 3.8q0 2 1.5 1.4c.8-.3 4.6-.8 8.3-1.1 10.2-.9 11.2-1.3 12.3-4.4.9-2.6 1.5-2.9 8-3.5l19-1.3c10.1-.5 12.5-1 14.7-2.7 2.7-2.2 19.1-4.9 27.7-4.7a72 72 0 0 0 12.5-1.4c10.8-1.9 10.3-1.9 9.4.7-.8 2.9-.8 2.9-3.6 3.2-3.7.4-13.1 2.8-15 3.8-1 .5-1.8 1.8-1.8 2.8 0 1.1-.9 2.5-2 3.2a5 5 0 0 0-2 4c0 2.6-2.8 4.6-4.7 3.5-1.3-.8-24.9 3.1-28.8 4.7-2.8 1.2-3.5 2-3.5 4.3 0 3.8.9 4.9 4.7 5.8 7.9 1.7 4 3.9-8.7 4.9-10.9.9-31.1 4.5-32.8 5.8-.6.6-1.2 1.7-1.2 2.4 0 1.6-4 3.4-7.6 3.4q-2.3 0-2.4-1.6 0-1.6-1.6-1l-2 .6c-.2 0-.4 1.5-.4 3.4 0 3 .3 3.4 3.3 4 1.8.3 4.7.2 6.3-.3s4.6-1.2 6.6-1.6c2.9-.4 3.9-1.2 4.4-2.9q.5-2.4 4.2-3.4c4.5-1.4 17.7-3.1 25.2-3.3 7-.3 14.2-2.3 16.4-4.8 2.7-3 1.8-7.4-1.9-8.5-6.5-1.9-7.8-2.7-6.7-3.8 1.4-1.4 9.2-2.6 21.7-3.4 11.1-.6 14.8-2.2 15.3-6.6.3-2.1.7-2.5 2.4-2q2.4.8 1.5-1.2c-1.5-3.9 3.6-7.6 10.4-7.6q3.1-.1 2.2 1.6c-.3.8.4 2.8 1.6 4.4 1.1 1.6 2.1 3.4 2.1 4 0 .5 1.1 2 2.5 3.2s2.5 2.7 2.5 3.4q.1 1.4 1.9 2.3c1 .6 2.1 2.5 2.4 4.3a369 369 0 0 0 6.7 24.7 30 30 0 0 1 1.6 7.8c-.3.3-11.7.5-25.3.6s-25.8.3-27 .8-3.6.4-5.5-.1-19.4-1-39-1.2L0 718.4v3.8c0 3.8 0 3.8 4.3 3.9l62.7.5 62 .7c3.3.2 3.5.4 4.3 5.2.4 2.7 1.3 5.5 1.9 6.2q1.2 1.3-.6 3.1c-2.4 2.7-2 7.2 1 10.3 2 2 2.8 4.5 3.9 11.5l1.5 9.6c0 .4-1.4 2.3-3.1 4.2-2.5 2.9-3.5 3.4-5.8 3q-5.8-1-8.5 4.9c-1.2 2.9-1.1 3.4.6 5.3s3.5 2.3 14.1 2.9a74 74 0 0 1 13.2 1.5c.6.4 2.6 1.1 4.5 1.5 3.1.7 3.7.4 6.5-2.9 2.6-3.1 3.8-3.7 8.3-4.3a17 17 0 0 0 7.3-2.2c2-1.6 2-1.7.1-6.1a23 23 0 0 0-4.6-6.9 8 8 0 0 1-2.6-5.9 45 45 0 0 1 4-18.7c3.1-3.6 3.1-6.3-.1-9.9-2.5-2.9-2.9-4.2-2.9-9v-5.7l3.2.3c3 .3 3.3.6 4.9 7.1 1.7 6.8 4.1 10.7 6.5 10.7 1.6 0 2.7 3.9 5.4 19.9 1.1 6.8 2.3 12.8 2.6 13.3s1.6.8 2.9.8 4 1.5 6.1 3.5c4.3 4.1 7.6 5.2 11 3.6q2.3-1 2.4-.1c0 1.5 7.1 9 8.4 9 .7 0 4 1.3 7.4 3 7.2 3.5 8 3.6 11 1.4q2.2-1.5 2.2-4.6v-3.1l5.2.7c2.9.4 5.8 1.2 6.4 1.7 2.1 1.7 7.1 2.8 8.2 1.7q1-1 4.4 0c11.6 3.6 13.3 3.6 12.5-.5-.4-2.3-.3-2.4 3.3-1.8q3.9.8 6.3-1c2.1-1.3 3.2-1.4 7.3-.4a36 36 0 0 1 6.6 2c2.4 1.2 4.8 1.1 4.8-.1 0-4.2-6.8-12-10.4-12-.8 0-2.4-1.3-3.6-3a27 27 0 0 0-6.8-5.7 95 95 0 0 1-9.7-6.4c-2.7-2.1-7-4.6-9.5-5.7-6.2-2.6-7.7-4.6-6-7.7 1-1.9 1-3.2-.3-7.2-1.9-5.6-4.7-17.5-4.7-19.7 0-1.4 3.7-1.5 29.8-1.4 32.8.1 43.8 1.2 49.2 4.6a14 14 0 0 0 5.6 2.2c1.7 0 2.2 1 3.3 6.5 1.1 6.2 1 6.8-.9 9.2a19 19 0 0 1-4 4c-1.6 1.1-1.8 2.4-1.5 9.3.2 7.6-.6 11.8-3.3 16.6-3.5 6.3 15 15.6 25.6 12.8 1.2-.4 2.2-1.1 2.2-1.6s-2.2-3.5-4.9-6.8c-4.7-5.6-4.8-6-4.1-10.2.5-2.3 1-7.2 1.1-10.8.3-5.9.1-6.8-2.4-9.4-2.1-2.3-2.4-3.2-1.6-4.8q1-2 0-5-2.8-8.5 1.4-10.6 5.2-2.4-1-5.5c-3.6-1.7-4.8-5-2.2-6q1.3-.5 1.1-5.6c-.1-2.8.3-5.4.7-5.7.5-.3.9 2.1 1 5.3s.4 6.7.8 7.7c.7 1.8.8 1.8 1.4.2q.8-1.4 1.7-1.1c1.5.9 4-1.4 4-3.5 0-2.4 4.4-7.6 7-8.3q1.8-.4 2 .4c.2.8-.5.9-1 .9-2 0-6 5.3-6 7.9 0 1.4-.9 3.9-2 5.6q-3.5 5.4-.5 5.5c2.2 0 3.8 3.8 3.1 7.9l-1.5 9.9c-.5 3.5-1.4 6.9-2 7.5q-3.7 3.7 4.2 11.4c2.8 2.8 6.3 5.6 7.8 6.1 3.4 1.3 7.9.4 7.9-1.7-.1-2.7-2.7-9.1-4.5-11.1-2.1-2.3-1.2-7.5 1.5-9 .9-.5 2.5-3.3 3.4-6.2s2.3-6.7 3.1-8.3l2.9-6.8c1.3-3.2 1.9-3.7 4.8-3.7s3.5.5 4.6 3.2.9 4-.5 7.8c-.9 2.5-2.4 5.4-3.3 6.5-3.8 4.5-3.5 6.7 1.1 9 4.2 2.2 6.1 1.9 13.6-2.4 7.2-4.1 9.5-4.1 10.8-.2a5 5 0 0 0 2.3 2.6c3 .9 6.2 11.1 5.8 18.5l-.6 7.5q-1 3.3 2.5 4.7c2.1.9 3 .7 6.5-1.7 2.3-1.6 4.8-4.1 5.5-5.5 1.9-3.7 2.3-18.3.6-20.4q-1.3-1.6-.7-5.1c.6-2.8 1.7-4.2 5.6-6.8 6.2-4 8.9-8.5 7.2-12.1-1.4-3.2-.5-3.8 5.6-3.6l22.5.1 17.7-.1v-3c0-1.7-.5-3-1.2-3l-21.8-.6a486 486 0 0 1-27.1-1.3q-2.6-.1-3.2-2.1c-.5-2.1-5-2.9-6.2-1-1.1 1.8 2.4 12.2 4.9 14.9 3.4 3.6 3.3 4.5-1 7.7-3.3 2.5-4.4 2.8-12.7 2.9-11.1.1-12.7-.4-17.5-5.3-2-2.2-4.4-4.3-5.3-4.8-2.6-1.5-8.2-12.3-7.6-14.7 1.1-4.4 3.4-9.8 4.9-11.3 1.3-1.3 1.9-1.4 3.6-.3 1.6 1 2.6 1 5 0 2.8-1.2 3-1.7 3-6.3.1-2.8.5-5.4.9-5.9s3.3.2 6.3 1.3 6.7 2.3 8.3 2.5c1.5.3 2.7 1 2.6 1.7-1 8.5 1.7 16.5 5.2 15.1 1.2-.5 1.6-2.2 1.7-7.2.1-5.3.6-7.1 2.3-8.9 2.5-2.7 4.2-9 4.1-15.2-.1-4.1 0-4.4 2.2-3.8 3.7.9 7.6-2.7 7.6-7.1 0-2.6-.5-3.6-2-4q-3.9-1.1.1-3.3c2-1.1 1.9-1.3-1.8-4.5-13.8-12.1-17.1-13.3-25-9.2a63 63 0 0 1-6.5 3.1c-1 .3-1.9 1.6-2 2.8l-.3 4c0 .9-.4 2-.8 2.4q-3 3.2 4.9 10.2c3.2 2.8 5.1 5.3 4.5 5.6-.6.4-4.9.4-9.6.1-5.1-.3-9.4-.1-10.5.5-1.5.8-2.1.6-3-1q-1.2-1.9-3.8-2a10 10 0 0 1-5.2-2c-2.6-2.1-6.5-2.6-7.4-1.1q-.4.9.9 1.5c1.4.5 1.4.8-.1 3.1-.9 1.4-1.2 2.5-.6 2.5s1.4-.5 1.8-1.1q.6-1.2 1.5.2t.9 1.9c0 .9-9 3.3-9.7 2.6-.4-.3.6-1.9 2.2-3.6 3-3.1 2.9-6-.3-6q-1.9-.2-3.1-2.6c-1.1-2.4-1.3-2.5-3.4-1.1-1.8 1.2-2.1 2.2-1.9 5.7q.8 7.7-5.1 4.2c-2.2-1.3-2.7-2.3-2.4-4.2a14 14 0 0 0-.3-5l-.8-2.5-.1 2.8c-.1 3.7-2.1 2.5-2.1-1.3 0-1.6-.4-3.2-1-3.5q-1-.4-1 4.9c0 4.3-.3 5.6-1.5 5.6s-1.5-1.3-1.5-5.8c0-5.9-1.4-10.1-2.4-7.2l-.9 3.5q-.4 1.5-.6-2.3c0-2.3.1-4.2.3-4.2 1.4 0 7.6 2.8 10.4 4.7 3.8 2.5 6.7 2.9 7.8 1.1 1-1.5-3.9-5.3-10.3-7.9-5.8-2.3-7.2-4.5-2.3-3.5 2.3.4 3.5.1 4.9-1.5l2.7-3c.5-.6 1.8-1.6 2.8-2.3 1.7-1.2 1.8-1.7.7-4.4-1.1-2.5-1-3.5.4-6.1 2.2-4.3.4-7.9-4.8-9.6-2.1-.7-4.6-2-5.6-2.9q-1.8-1.6-7.7-1.6a15 15 0 0 0-10.4 3c-2.5 1.7-6 3.7-7.8 4.5q-6 2.6-3 6.3c.8.9 1.9 2.9 2.6 4.4q1.1 2.8 3.3 2.8c1.1 0 3.8 1.8 6 4s5 4 6.2 4.1h2.2l-2.3.9c-1.8.8-2.1 1.5-1.6 3.5q.8 2.7-.9 2.5c-.9 0-2.2 1.2-2.9 2.7-2.2 4.5-4 4.1-3.7-.8.4-7.3-1.5-5.5-2.6 2.3-1 6.4-1.2 6.9-1.8 4q-.6-3.5-2.4-3c-3.5.6-.2-7.2 5.1-12.1 1.4-1.4 2.6-2.8 2.6-3.3 0-2-3.5-.4-7.9 3.7-4.1 3.8-5 5.4-6.1 10.4a61 61 0 0 0 2.6 26.4c1.8 7.1 1.1 8.6-6.9 14.5a85 85 0 0 0-7 5.9c-1.7 1.9-1.7 2.2-.2 3.7 1 .9 1.4 2.3 1.1 3.1-.6 1.6-4.4 1.8-44.1 1.6-15.3-.1-21.1-.5-21.7-1.4-.4-.6-1.2-3.4-1.8-6-.5-2.6-1.7-5.8-2.5-7.1-1.3-1.9-1.3-2.9-.4-5.2a77 77 0 0 0-.4-28.6c-.9-4.2-1.9-11-2.2-15l-.5-7.3 4.3-.1c6.5-.1 9.2-1.1 10.7-3.9 1-1.9 1.1-2.8.2-3.7s-1.7-.7-3.5 1c-1.3 1.2-2.6 2-2.8 1.7-.3-.2-3-.5-6.1-.6-4.9-.2-5.8-.5-6.7-2.6q-2.9-6.2 1.4-3.9c2.9 1.5 7.4 1 8.2-.9.6-1.6 12.6-1.3 14.6.3.7.6 2.4.9 3.8.6q2.8-.7-1.4 1.7c-4.1 2.5-5.6 6.1-3.7 8.4 1.8 2.2 3.6 1.8 6.7-1.3 1.5-1.6 5.5-3.9 8.8-5.1 3.3-1.3 6.5-3 7.1-3.7q1-1.3 4.7-.5 5 1.2 16.6-1.9c2-.5 5.4-1.1 7.5-1.4 4.5-.6 9.7-4.9 8-6.6q-1-1-4 0c-1.6.6-5.8 1.4-9.4 1.9s-8.6 1.5-11.2 2.1c-3.4.8-8 .9-16.3.2-6.4-.6-12.9-.6-14.5-.2-3.7 1.1-4.2.4-2.5-3 1.5-2.9 3.3-4 6.5-4a5 5 0 0 0 3.2-1.4c.8-.8 2.3-1.6 3.4-1.8q1.9-.4 2.4-3.3c.5-2.8.9-3.1 6.8-4.1a26 26 0 0 0 6.9-1.8c.4-.3 1.7.4 2.9 1.5q2.4 2.3 3.6 1.2c1.6-1.3 17-.8 19.6.6q1.8.9 3.3 0c.7-.5 2.6-.7 4-.4 3.5.8 5.3-1.4 3.9-4.9-1.6-4.4-1.1-5.4.9-1.9q3.7 6 8.4 3c1.2-.8 3.4-1.5 4.7-1.5s5.2-.7 8.5-1.6c9.7-2.6 14.8-1.9 20.1 2.9a11 11 0 0 0 6 2.1c2.8.1 4.3.8 6 2.9q4.2 5 11.8.7c3.2-1.9 3.3-1.9 4.4-.1.7 1.1 2 1.9 3 1.9s2.3.5 2.8 1q1 1.1 4.7-.5c6.5-2.7 6-5.6-1.2-5.7-4.2 0-10.9-3.5-10.3-5.3.4-1.7 8.1-.8 12.8 1.4 2.4 1.2 5.9 2.1 7.8 2.1s3.8.5 4.1 1.1a11 11 0 0 0 3.3 2.1c2.5 1 2.6 1.1.7 1.8-1.1.5-3.6.9-5.6.9-2 .1-4.2.8-4.9 1.6s-2.3 1.5-3.7 1.5a11 11 0 0 0-4.4 1.1c-1.6.8-3 .7-6-.5a18 18 0 0 0-18.1 1.6c-2.7 1.9-4.7 4-4.5 4.8.4 2.5 4.6 2.3 8.2-.4 3.6-2.8 6.8-3.2 11.2-1.5 2.7 1 2.5 1.2-4.6 3-9.9 2.5-11.7 4.1-8.5 7.3 2.1 2.2 5.3 2 7.9-.4 2.6-2.5 5.8-2.7 11-.9 4.6 1.7 12.5 2.3 14 1.2.6-.5 1.8-2 2.7-3.4q1.6-2.6 5.5-3.3c2.1-.3 4.5-1 5.3-1.6 1.3-.8 1.3-1.1-.1-2.5-2.5-2.6-11.6-1-15.2 2.6-2.5 2.5-3.3 2.8-6.4 2.1l-3.7-.8 3.8-2.2c2-1.2 4.8-2.2 6-2.2a9 9 0 0 0 4.9-2.1c2.2-1.6 3-1.8 4.8-.9 1.1.7 6 1.2 10.7 1.1l15.2.1 8 .1c.8 0 2.2-.2 3-.4q1.6-.5 1.2 1.8-.2 2.2 1 2.4c6 .4 11-.2 13.6-1.5 1.7-.9 5.4-1.6 8.2-1.6 4.3 0 5-.3 5-2 0-1.8-.7-2-8.4-2-6.8 0-8.8-.4-10.9-2s-3.4-1.9-7.1-1.4c-5.4.8-9.6-.9-9.6-3.8 0-2 2.1-2.4 4.8-.7s7.7-1.3 10.1-5.9c6.1-11.9 4.5-17.9-6.6-25.5a41 41 0 0 0-8-4.7c-.5 0-2-1.1-3.3-2.5a9.7 9.7 0 0 0-16 2.3c-.9 1.8-3 4.1-4.7 5.2-4.8 2.9-6.9 6.6-5.6 9.9.5 1.5.8 5.2.5 8.2-.3 4.6-.1 5.7 1.7 7.3a8 8 0 0 0 5.5 1.8c2.4-.1 3.9.6 5.6 2.5q2.6 2.9.5 2c-.9-.4-3.5-1-5.8-1.3s-5.8-1.5-7.7-2.4c-1.9-1-4.3-2.1-5.4-2.4-1.6-.6-1.8-1.4-1.4-7a20 20 0 0 0-.9-9.7c-.8-1.8-1.1-4.4-.8-5.7.5-1.9 0-2.5-2.7-3.6s-3.8-1.2-6.8 0c-1.9.8-4.8 2.4-6.4 3.5a12 12 0 0 1-5.9 2.3c-2.5.1-3.5-.6-5.8-3.9a46 46 0 0 1-6.3-15.5c-.6-2.6-6.4-7-9.1-7-.9 0-2.5 2.3-4 5.5l-2.4 5.5h-33l-1.6-2.9c-4.3-8.5-20.4-13.8-28.6-9.5q-3.3 1.5-2.4 3.4c.5 1.6-.4 2.6-4 4.7-7.4 4.4-7.6 4.6-8 9.3-.6 6.1-5.1 10-10.7 9.3-3.3-.5-3.9-.3-4.9 2.1-1.7 3.6.1 5.7 3.2 3.8 1.8-1.2 2.4-1.1 4.3.7 1.6 1.5 2.5 1.7 3.9 1q1.5-1.1 1.7-2.2c0-.7.9-2 2-3s2-2.8 2-4.1 1-3 2.2-3.8c2-1.4 2.4-1.3 4 .6 1.3 1.7 2 1.9 3.5 1 1-.6 1.9-2.2 2.1-3.6.2-1.5 1.3-3 2.8-3.6 1.3-.7 2.4-2 2.4-3s1.2-2.2 3-2.9q3-1.1 3-3.2 0-2-1.2-2.1-1 0-.5-.6c.3-.3 2 .4 3.8 1.7a16 16 0 0 0 4.8 2.4c5.7.7 6.6 3.5 1.9 5.6q-3.3 1.4-3.3 3.4c0 1.8.6 2 6.6 1.7 5-.3 6.8 0 7.8 1.2q1.4 1.5 2.6 1.6c1.9 0 4.8 8.5 4 11.9-.6 2.9-4.3 7.6-5.2 6.7q-.4-.6.7-2.1c1.8-2.2.5-4.9-2.1-4.2q-2.2.6-2.6-1.4c-.3-1-1.3-1.9-2.3-1.9s-2.1-.6-2.3-1.3q-.5-1-.6.5c-.1 1.6-1.9 2.3-4.5 1.9-.4-.1-1.4.4-2.2 1-1.7 1.4-4.3-.4-4.5-3 0-.9-.5 0-1.1 1.8-.5 1.9-1.7 4.1-2.6 4.8-1.6 1.2-1.5 1.3.4 1.1 2.1-.3 8.7 4.5 7.7 5.6-.4.3-2.5.6-4.7.6-5.1 0-8.9-2.4-8.1-5.1q1-2-2-1.9c-1.4 0-2.4.4-2.1.9s-.3 1.9-1.3 3.2c-1.8 2.3-2 2.3-3.8.6-2.4-2.1-4.1-2.2-6.4-.1-3 2.7-8.6 1.1-11.1-3.1-1.7-2.9-2.3-3.3-3.9-2.5-1 .6-1.9 2.1-1.9 3.4 0 3.2 6.2 8.6 9.8 8.6 3.2 0 5.9 1.5 4.4 2.4-.6.3-3.2.9-5.9 1.2-9.2 1-9 1-17.8 9.2a24 24 0 0 1-9.6 5.2q-1 0-.5-3.8c.4-2 .7-4.7.7-6 .1-1.3 1.1-3 2.4-3.8 3-1.9 6-9.7 4.7-12.1q-1-1.7-.1-4.1 1.7-4.1-3.1-6.5a7 7 0 0 1-3.1-4 9 9 0 0 0-2.6-4.3c-4.1-3.1-10.3-.5-10.3 4.4q0 2-2.1 2.7c-2.9 1-3.8 4.2-3.6 13.3.3 8.6 1.2 10.7 5.5 11.5 3.4.7 6.2 5.3 6.2 10 0 4.3-1.9 5.2-9.8 4.8-3-.1-5.9.3-6.6.8-1 .9-1.2.1-.8-3.8.6-7.1-.1-9-5.8-14.6-4.4-4.4-5-5.5-5-9.2 0-5.9 3.8-15.3 6.6-16.3a8 8 0 0 0 3.4-2.9c.5-1.1 2.8-2.5 4.9-3.1a13 13 0 0 0 5.7-3.1c1-1.2 5.1-4.3 9.1-7a66 66 0 0 0 7.8-5.9c.3-.5 1.4-1 2.4-1s3.3-1.6 5.2-3.6c1.8-1.9 5.5-4.9 8.1-6.6 3.9-2.4 5-3.8 5.8-7.1 1.4-5.8 2.1-6.8 7.1-10.4a38 38 0 0 0 12-12.6c1.6-3.7.7-4.3-4.3-2.8-3.7 1.2-4.3 1.1-5.5-.4-.7-1-1.4-2.3-1.6-2.8s-2.4.3-4.9 2.1a18 18 0 0 0-6.7 7.9 50 50 0 0 1-3.3 6.4c-.9 1.2-.6 2.3 1.2 4.7 1.9 2.6 2.1 3.4 1 4.7q-1.2 1.4-2.6 1.5c-.7 0-2 1-2.8 2.2-1.7 2.4-1.7 2.4-3.5-1.6-1.1-2.7-1-3.1 1.6-5.2 2.1-1.7 2.5-2.5 1.7-3.4s-1.9-.8-4.3.4c-1.7.9-3.1 2.1-3.1 2.6s-1 1.2-2.2 1.5c-5.8 1.7-12.6 5.6-13.1 7.4-.5 2.1-1.1 2.1-11 .6q-2.7-.4-4.7 1.5c-1.1 1.1-2.6 2-3.4 2-5.5 0-6 3.5-.8 5.6 4.1 1.7 8.2 5.1 8.2 6.8q-.2.8-2.3-1.8c-2-2.4-2.8-2.7-5.4-2.2-2.8.6-3.2.4-4.1-2.3-1.3-3.8-2.5-3.9-7.5-.4-3.7 2.6-3.9 2.9-3.3 7 .5 3.5.2 4.6-1.7 6.5-2.7 2.8-5.4 15.2-3.7 17.3q1.1 1.2-.6 2.6c-1.3 1.1-1.9 1-3.7-.1a78 78 0 0 0-8.4-4.5c-.2-.1.6-1.9 1.7-4a20 20 0 0 0 2-5.2q.1-1.2 1.1-1.3 1 .1.5 1.6c-1.6 4.1-1.6 6.1-.2 7.3.8.7 2 1 2.7.6 1.9-1.3 3.9-7.2 3.9-12 0-2.5.4-4.5.9-4.5s1.7-.7 2.6-1.6c2.2-2.2.2-4.6-3.1-3.8q-2.3.6-2.4-.6-.1-1-2.7-.8c-3 .3-3.1.7-1.8 8.3q.8 4.3-.4 2.5a7 7 0 0 1-1.1-3.5c0-3.2-3.7-8.5-5.9-8.5-3 0-3.3 1.4-1.1 6.2 1.8 4.2 1.8 4.6.2 10.6-.9 3.4-1.9 6.2-2.3 6.2s-1.9-1.4-3.3-3.1c-2.2-2.6-3.2-3-5.6-2.5q-3 .6-3.1-.7c-.2-3.1-.9-5-2.5-6.8s-1.6-1.9.5-1.9c1.7 0 2.7-1 3.8-4 2.3-5.7 9.4-10.4 14.6-9.6a24 24 0 0 1 5.7 1.8c2.1 1.4 5-.3 5-2.9q0-1.6 1.8-.7c3 1.4 14.5.4 16.5-1.4a13 13 0 0 0 3.7-12.7c-.5-2.4-.7-6.5-.3-9 .6-4.5.4-4.8-3.8-9.1-4.1-4.1-4.6-4.4-9.8-4.4a23 23 0 0 0-15.7 6.1c-1.9 2.1-2.3 8.8-1.2 21.3l.3 3.9-5 1.2c-2.7.6-6.4 1.9-8.1 2.7-4.4 2.4-9.5 7.9-10.1 11-.7 3.4-1.1 3.4-4.6.4a15 15 0 0 0-5.7-3.1 8 8 0 0 1-4-2c-.7-.8-2.6-1.4-4.3-1.3-3.6.1-11.7-4.7-11.7-6.9q.2-1.3 1.8-1.9c.9-.3 2.4-1 3.2-1.5l3.8-1.9c2.2-.9 3-3.4 1.3-4.4-.4-.3-1.1-3.5-1.4-7.1-.6-8.2-4.7-15.5-9.2-16.9-1.7-.4-3.8-1.2-4.7-1.7-2.4-1.2-2.8-1.1-2.8.6q-.2 1.4-1.5 1.5c-1.8 0-1.8.5-.5 3 .8 1.5.6 2.4-1 4a9 9 0 0 0-2.1 5.2c-.1 3.1-.1 3.1-.9.8q-.8-2.5 1.3-5.9c1.7-2.7 1.8-3.5.6-4.2q-1.4-.8-2.4-.9-.8-.1.6-1.3c1.8-1.4 1.4-3.7-.6-3.7-1.9 0-7.5 4.9-7.5 6.6q-.2 1.4-1.5 2-1.4.8-1.5 2.9c0 1.2-.6 2.8-1.4 3.4-1.1 1-1.2 1.9-.4 4.2.8 2.2.7 3.3-.3 4.5-1.1 1.3-1 1.7.4 2.5q1.5 1 1.7 2.4c0 .8.9 2 2 2.7 5 3.1 0 9.5-5.5 7-1.4-.6-3.2-.9-4-.6s-2.9.1-4.5-.6c-2.4-1-3.3-1-4.6.1s-1.7 1-2.6-.4c-1-1.9-9.8-6.7-12.3-6.7q-1.4-.1-1.5-1.8c-.1-1.7-3.4-5.2-7.5-9.4-5.4-5.5-7.5-8.3-7.5-10.2 0-3-4.5-13.6-5.8-13.6q-.9 0-1.5.7m4 8.5q-.5 1.1-.6-.6t.5-1.3q.5.6.1 1.9m-9.2.2c2.1.8 4.1 1.9 4.3 2.5.7 2-3.2 1.1-6.3-1.4-3.5-2.8-3.3-2.9 2-1.1m227.5 4.1c0 1.1 1 1.4 4.8 1l4.7-.5-3.3 1.5c-2.5 1.2-3.2 2-2.7 3.3.8 2.7-3.6 6.4-7.1 6q-5.9-.7-.9-8.7c2.6-4.2 4.5-5.3 4.5-2.6m-225.2 2.3c.6 1.8-1.5 1.4-2.2-.4q-.5-1.5.6-1.2c.6.2 1.4 1 1.6 1.6m84 3.5q-.2 2.3-3 2.5-4.6.5-1.8-4.9c.9-1.6 1.5-1.7 3.1-.8q2 1 1.7 3.2m-20.8 4.8q0 1.8-1 1.4c-.5-.3-1-1.3-1-2.1s.5-1.4 1-1.4q1 .1 1 2.1m-46.4 9.3q-.1 2.1-.5 2-.4-.3-1.8.8c-2.4 2-2.7-.1-.3-2.7 2.9-3.1 2.8-3.1 2.6-.1m7.4 2.5q0 1-1 1.6-.9.4-1-.9.1-1.5 1-1.6 1 0 1 .9m177 5.3-.1 4.3-1.4-4c-1.8-4.9-1.8-4.5 0-4.5 1.1 0 1.5 1.1 1.5 4.2m-182.3-1q-.5 1.1-.6-.6t.5-1.3c.3.3.4 1.2.1 1.9m55.2-.5c4.2 2.4 3.9 3.7-.6 3q-6.3-1.1-4.9-3.6c1-1.5 1.9-1.4 5.5.6M95 545q0 .9-.4 1-.6-.1-1.1-1-.4-1 .4-1 1 0 1.1 1m116.7-.4q-.6.5-1.9.1-1.1-.5.6-.6t1.3.5m40.4 2.5c4.7 1.6 5.1 2.1 3.8 5.6-.8 2.6-3.7 5.2-4.3 4.1a34 34 0 0 0-6.6-8.8 1 1 0 0 1-1-1c0-1.3 3.9-1.3 8.1.1m10.6 1.1q-.5 1.1-.6-.6t.5-1.3c.3.3.4 1.2.1 1.9M99 547.9q.2.8 2 .4c2.2-.6 2.3-.3 1.4 2.1q-.6 1.5-2 1.6c-1.4.1-1.4.6-1.5 1.2q-.2 1-.9-1.2c-1.1-3.6-1.1-5 0-5q1 0 1 .9m11.1 3.8c-.9 1.7-1 1.7-1.6 0-.4-.9-.4-2.5 0-3.5.6-1.6.7-1.6 1.6 0q1 1.8 0 3.5M92 554q0 9 2.9 4.2c.9-1.4 1-1.2 1.1 1.5q-.1 6.5-3.8 1.5c-2.5-3.5-3.4-13.2-1.2-13.2.6 0 1 2.7 1 6m13.8 1c-.1 6.6-1.2 9.1-2.4 5.2l-1.5-3.4q-.9-1.7.6-3.2c.8-.8 1.5-2.1 1.5-2.9 0-1.2.9-2.7 1.6-2.7.2 0 .3 3.1.2 7m32 17.4c-.3 19.9-.7 25-2.2 23.5-.9-.8.7-45.9 1.6-45.9.5 0 .7 10 .6 22.4m-21.9-14.7c0 6.7-1.1 11.5-2.1 9.7a50 50 0 0 1 1.3-16.4c.5 0 .9 3 .8 6.7m27.3-5.5a42 42 0 0 1-.4 17.5c-1.1 1.4-1.3 1.3-1.8-.6a55 55 0 0 1 1-18.1q.8.1 1.2 1.2m8.3.7q.4.9-.5 1.6-.9.4-1-.9 0-2.7 1.5-.7m-21.2 6.8q-1.2 13.6-1.3.5c0-4 .4-7.2 1-7.2s.7 2.7.3 6.7m-9.7 2.4c-.5 6.7-1.6 7.6-1.6 1.2q0-6.4 1.6-6.3c.2 0 .2 2.3 0 5.1m5 8.9a45 45 0 0 1-1.2 13.3c-1.1.2-1.8-17-.9-23.1 1.2-8.2 2.3-3 2.1 9.8m42.3-11.7c1.4 1.8.2 3-1.5 1.6-1.4-1.2-1.8-.7-2.7 3.6q-.3 2.5-1.1.4c-.9-2.1 1-6.9 2.8-6.9a4 4 0 0 1 2.5 1.3m4.2 2.9c.1 1.3 0 3.1-.1 4.2s.3 1.5.9 1.2q1-.8 1.1-2.3 0-1.5.5-1.1c1 .9 1.5 13.8.6 13.8s-2.1-3.5-2.1-6.8q0-2.1-.9-1.8c-1 .7-2.1-2.7-2.1-6.7 0-3.2 1.9-3.7 2.1-.5m-62.1 3.4c0 1.9-.4 3.4-1 3.4s-1-1.8-1-4.1q0-3.8 1-3.4c.6.3 1 2.2 1 4.1m41.9 4.1c.1 5-1.8 7-2 2.1a60 60 0 0 1 .1-9.8c.3-2.6 1.8 3.3 1.9 7.7m4.5-4.3c-.3 1.4-1 2.6-1.5 2.6-1 0-1.2-5.3-.2-6.4 1.3-1.2 2.4 1.1 1.7 3.8m3.6-2.4q0 .9-.4 1-.6-.1-1.1-1-.4-1 .4-1 1 0 1.1 1m0 4q0 .9-1 1a1 1 0 0 1-1-1q.1-1 1-1t1 1m8 1.1q0 1.8-1 1.4-.8-.6-.3-2 1.2-3.1 1.3.6m12.6 1.1c2.5 2.4 3.4 9.1 1.4 10.3-.6.4-1-1.2-1-4 0-3.8-.3-4.5-1.7-4.3q-1.8.4-2.1-2-.2-2 .3-2.2c.4 0 1.8 1 3.1 2.2m129.4-1.4q-.2.8-2 2c-1.8 1.1-2 1-2-.8q0-2 2-2 1.8 0 2 .8M164 569q0 .9-1 1a1 1 0 0 1-1-1q.1-1 1-1t1 1m-8 3.6q0 3.3-1 2.9c-1.7-1-1.1-6.5.7-6.5.2 0 .3 1.6.3 3.6m4 11.7.3 19.1c.1 3.9-.2 7.1-.8 7.3s-1-2.4-1.1-6.4c0-7-2-21.9-2.3-17.1-.2 5.2-2.1 2.8-2.1-2.7 0-4.4.4-5.6 2-6.5q2-1 2-4.1c0-1.7.4-2.8.9-2.4s1 6 1.1 12.8m7.7-11.1q-.5 1.1-.6-.6t.5-1.3c.3.3.4 1.2.1 1.9m289.1.4q.4 2.2-2.3 2.8c-4.1 1-4.8 0-3.6-5.2q.3-.3 2.9 0 2.8.2 3 2.4m-313.2 3.6-.5 7.2c-.2 4.3-1.5.2-1.7-5.2-.2-6 .1-7.2 1.7-7.2.6 0 .8 2.1.5 5.2m20.4-.1q0 1.8-1 1.4-.8-.6-.3-2 1.2-3.1 1.3.6m27.8 6.3c.2 3.6 0 4.7-1 4.4-.8-.3-1.4-2.4-1.6-5.2-.2-3.6 0-4.7 1-4.4.8.3 1.4 2.4 1.6 5.2m-39.8 4.3c-.1 4.9.1 9.8.5 10.9.4 1.3.2 2.5-.4 2.8q-1 .6-1.2-.1l-.6-2.8a53 53 0 0 1-1.2-8.4q0-1.6-1.6-.1c-1.3 1.1-1.5.8-1.5-1.8q0-3.3 1.4-2.6c1.4.6 3-2.2 2-3.7-.7-1.1.4-2.9 1.7-2.9.7 0 1 3.3.9 8.7m12.6 6.3a57 57 0 0 1-.7 13.6c-.9.5-1.1-1.8-1.2-14.1q-.2-14.2 1-13.2c.3.4.8 6.6.9 13.7m-42.6-9.4q0 1.3-1 1.4-.9-.1-1-2.1.1-1.7 1-1.4c.6.3 1 1.3 1 2.1m354-1.1a13 13 0 0 1 1.5 5.2q.2 3.3-.2 2.1c-.2-1-1.8-3.1-3.4-4.9a22 22 0 0 1-2.9-3.5c0-1.1 3.9-.2 5 1.1M200.8 585c2.2 1.1 4.6 2 5.2 2 1.6 0 1.2 1.8-.9 3.2q-1.9 1.2-2.3 7.1c-.4 5.3-.3 6 1.6 6.7q1.8.8.9.9-1.2.2-1.3 1.1c0 2.1 2.4.9 6-3 2-2.2 4.2-4 4.8-4s1.6 1.3 2.4 3c1.3 3 4.3 4 5.1 1.7.4-.9.7-.9 1.8.1 1.2 1.1 1.2 1.4-.1 2.2-.8.6-2 .8-2.7.5q-1.2-.3-1.8.5c-.9 1.5-2.5 1.2-2.5-.5 0-2-1.4-1.9-8.4.6q-5.8 2-8.8 1.3c-2.8-.6-3-.8-2.4-4.3l.7-6.6q-.1-4 .9-.8 2.1 5.6 2-3.3c0-4.8-.2-5.5-1.6-5-2.1.8-4.4-1.1-4.4-3.5s.6-2.4 5.8.1m240.2-.4q-.1 1.3-1 .9-1-.7-.5-1.6 1.4-2 1.5.7m-176 3.9q-.1 1.3-1.5 2.5c-1.4 1.2-1.5 1.8-1.5 2.5s.7 1.8 1.5 2.5q2.8 2.5 0 6.7c-1.3 1.9-1.8 2-5.4.9-5.3-1.5-5.9-2.3-3.3-4.2 2.1-1.4 2.1-1.7.7-4.4q-3.4-6.8 1.1-9.3c2.3-1.2 3.1-1.2 5.5 0 1.6.8 2.9 2 2.9 2.8m102-1.5q-.1.8-1.5.4-1.4-.6-1.5-1 .1-.4 1.5-.4c1.4 0 1.5.4 1.5 1m43.5.2c2.2-.1 5.5 2.5 5.5 4.5 0 1.6-.2 1.6-5.4.1-6.4-1.8-11-6.7-4.8-5.1 1.5.3 3.6.6 4.7.5m50.5 1.4q1.4 1.5 4.9 1.2c2.7-.2 3.6.1 3.9 1.4q.5 1.9-2.1 1.8c-1.4 0-3 .7-3.7 1.5-1 1.2-1.6 1.3-3.8.1-2.9-1.5-8.5-.5-11.5 2.2-.9.8-2 1.2-2.4.9q-.4-.7.7-.7 1.5 0 .7-.6c-.3-.3.7-1.7 2.3-3.1 1.6-1.3 3.2-3.3 3.5-4.3.8-2.5 5.7-2.7 7.5-.4m-328.3 2.6q-.5 1-.5-1.2c0-2.2.2-1.9.5-1.3.2.7.2 1.9 0 2.5m10.6.4a5 5 0 0 0 .6 3.2q1.1 2-.2 3.7c-1.2 1.5-1.4 1.5-2.6.2-.9-1.2-1-2.1-.1-3.7.6-1.1.8-2.5.5-3.1-.4-.5-.4-1.7 0-2.7q.6-2 1.5-.3c.4.8.6 2 .3 2.7m24.4-1.4q-.5 1.1-.6-.6t.5-1.3c.3.3.4 1.2.1 1.9m5.5.3q-.1.9-1.1 1.3-1 .2-1.1-1.3c-.1-1.5.5-1.5 1.1-1.3q1 .4 1.1 1.3m36.4 2.1q-.6 1.8-1.7.7c-.5-.5-.7-1.7-.3-2.7q.6-1.8 1.7-.7c.5.5.7 1.7.3 2.7m9-.9c-1 1-1.9-.5-1-1.8q.8-1.7 1.2 0 .3 1.2-.2 1.8m182.4 1.5c0 1.1-11.8 1-12.5-.2q-.3-.9 2.2-1.6c1.5-.3 3.9-.9 5.3-1.4 2.4-.7 5 .9 5 3.2m-328.6 1.6c-.8 1.8-2 3.2-2.5 3.2-1.4 0-1.1-.8 1.3-4q4.2-5.5 1.2.8M366 593c.7.4 1 1.6.8 2.6-.4 2-4.1 3.1-13.8 3.9l-5.5.5 3-2.2c1.6-1.3 3.6-3.1 4.4-4 1.5-1.8 8.7-2.3 11.1-.8m-178.2 1.8q.3 1.1-1.2.6c-.9-.3-1.6-1.1-1.6-1.6 0-1.3 2.3-.5 2.8 1m25.2-.8q0 .9-1 1a1 1 0 0 1-1-1q.1-1 1-1t1 1m-56.1 6.8c0 8.5-1.5 9.6-2.2 1.5-.5-6.9-.2-8.7 1.3-7.8.5.3.9 3.1.9 6.3m-81.2-3.6q-.5 1.1-.6-.6t.5-1.3c.3.3.4 1.2.1 1.9M222 596q0 .9-.4 1-.6-.1-1.1-1-.4-1 .4-1 1 0 1.1 1m-13 2q0 1.8-.4 2c-.4.2-.6-.9-.9-2q-.4-1.8.4-2c.8-.2.9.9.9 2m200.5-1q-.6.9-1.6 1-.8-.1-.9-1 .1-1 1.6-1 1.3 0 .9 1M137 598.5q0 1.3-1 1.5-.8-.2-.4-1.5.7-1.3 1-1.5.3.2.4 1.5m286-.6q-.2 2.4-3.8 1.4c-3.2-.8-2.7-2.3.8-2.3 1.7 0 3 .4 3 .9m-227 2.7q0 2.3-.9 2-.8-.4-1.4.6-.4 1.5-1.7.2c-.9-.9-.9-1.6.2-3.3 1.8-2.9 3.8-2.6 3.8.5m-48 .9c0 1.4-.3 2.5-.7 2.5-.5 0-.8-1.1-.8-2.5s.3-2.5.8-2.5.7 1.1.7 2.5m171 3.1c0 .2-2 .4-4.5.4-4.3 0-4.5-.1-4.5-2.9v-3l4.5 2.6c2.5 1.3 4.5 2.7 4.5 2.9m80-.6c0 2.7-.4 5-.9 5-2.2 0-8-4.6-8.1-6.5q0-2.2 1.2-.7a3.6 3.6 0 0 0 5.8-.8c1.6-3 2-2.5 2 3m76-3.6c0 1.6-2.8 4.2-3.6 3.3-.8-.7 1.4-4.7 2.6-4.7q1 .1 1 1.4m-381.9 4.5c-1.7 3.2-3.1 2.5-1.8-.9q1-2.7 2-2.1c1 .6.4 1.8-.2 3m44.8 1.9c0 4.3-1.5 10-2 7.7s-.5-11.1-.1-12.2c.9-2.7 2.2 0 2.1 4.5M70 603.9c0 1.1.5 2.3 1 2.6q1 .6 1 1.8c0 .6-1.2 0-2.6-1.5-1.5-1.4-2.3-3.1-2-3.7 1.1-1.8 2.6-1.3 2.6.8m56-1.5q0 .5-1 1.1-.9.4-1-.4.1-1 1-1.1 1 0 1 .4m16.5 1.5q.4.9-.5 1.6-.9.4-1-.9 0-2.7 1.5-.7m9.4 7.5q-.8 1-1 .5c-1-5.7.1-10.3 1.2-4.9.4 1.9.3 3.9-.2 4.4m29.5-4.7c-.4 1-1.2 6-1.7 11s-1.3 9.3-1.8 9.3c-1.2 0-1.1-8.4.1-12.9l1.5-6.4c.3-1.5 1-2.7 1.6-2.7q1 .1.3 1.7m-32.9 4c0 2-.6 3.8-1.2 4-1.4.5-1.9-5.8-.6-7q2-2.2 1.8 3m-55.9 0c-1 1-1.9-.5-1-1.8q.8-1.6 1.2 0 .3 1.2-.2 1.8m-4.2-1.1q1.3.6.9 2.1-.6 1.4 1 1.1 2.4-.5 1 2.9c-.6 1.4-2.9 1.7-3.6.5s-1.9-7.2-1.4-7.2zm129.9.6c.2.7-.1 2-.6 2.9-.7 1.1-.1 4.3 2.1 11 5.5 17 7.9 35.2 8.5 63.1.2 13.3.2 13.7-2 14.7q-2.1 1-3.1 5.3l-.9 4.3-1.6-3.6c-3.7-8.4-4.9-16.9-4.5-33.4.7-34.5 0-42.5-3.8-42.5-1.6 0-4.1-4.6-3.1-5.7.4-.3 1.5.1 2.5 1 2.5 2.3 4.2.5 4.2-4.4 0-4-1.9-6.3-4.4-5.3q-1.5.4-1.6-.5c0-.7-1-1.6-2.2-2-2.2-.9-2.2-.9.7-2 1.7-.6 4.1-1.7 5.5-2.5 3.2-1.8 3.7-1.9 4.3-.4m-61.3 2.5q-.1 1.9 1.5.3c1.3-1.1 1.5-.6 1.5 3.1 0 3.4-.5 4.7-2.1 5.7q-2 1.2-2.4 1a72 72 0 0 1-.6-11.6c.1-1.8 2.1-.4 2.1 1.5m-4.5 2.6c0 2.6-2 2.5-2.3-.2q-.4-2.4 1-1.9 1.2.6 1.3 2.1m82.9-.7c.9.8 1.6 2.3 1.6 3.2q0 2.1-2-.7c-3-3.5-2.6-5.6.4-2.5m-154.6 1.2q.2 1.1-1.2 1.2-1.5-.1-1.6-1.6c0-1.7 2.2-1.4 2.8.4m121.4-.8c2.6 0 2.9.2 1.8 1.5-.9 1.1-1 2.2-.2 4.2.6 1.6 1.4 11.9 1.7 23.1a169 169 0 0 0 2.2 26c.8 3.1 1.8 9.3 2.3 13.7 1.2 11.6 3 21.4 5 26.6 1.9 4.7 2.4 8.1 2.2 13.6-.2 2.7-.6 3.3-2.5 3.3-2.1 0-2.6-1.1-5.2-9.8-2.5-8.1-3-11.6-3.1-21.7-.2-17.1-.2-17.2-2-19-1.5-1.5-1.8-1.5-3.4 0-2 1.8-3.9 11-4.1 19.1-.1 4.8-.1 4.9-1 1.4-1-4.4-3.8-25-3.6-27 .1-.8-.2-8.3-.7-16.6-.5-10.6-.4-16.3.4-19.3.6-2.4 1.2-7.9 1.3-12.3l.2-7.9 2.9.5c1.6.3 4.2.6 5.8.6m-93.8 1.6q1.8 4.5-1.8 4.4c-3.6 0-8.6-1.2-8.6-2 0-.4 1.1-.5 2.4-.3q2.5.5 4.2-1.6c2.2-2.5 3-2.6 3.8-.5m39.7 2.7c-1.3 1.3-2.6.3-1.6-1.2q.6-1 1.7-.5 1 .6-.1 1.7m-5.1.3q-.1 1.3-1 .9-1-.7-.5-1.6 1.4-2 1.5.7m-13 .3q-.1.9-1.5 2.1c-1.3 1-1.5.9-1.5-.9q0-2 1.5-2.1 1.4 0 1.5.9m-42.2 3c1.9 1.2-.8 2.2-3.8 1.4q-2.3-.5-.8-1.4c1.7-1.1 2.9-1.1 4.6 0m74.5 1.1c.3 1.1.1 2.3-.4 2.6q-.8.3-.9-2 .1-4.7 1.3-.6m-11.2 9.3q-1.1 1.3-1.1-3.9c0-6.6 1.4-8 1.8-1.9.2 2.6-.2 5.3-.7 5.8m-16.9-5.1q-1.1 1-1.2.2 0-1 .7-1.7t1.2-.2q.3.6-.7 1.7m35.8-.1q0 .8-1 .9-.9-.1-1-1.6.1-1.3 1-.9 1 .6 1 1.6m14.7 2.1q-.5 1-.5-1.2c0-2.2.2-1.9.5-1.3.2.7.2 1.9 0 2.5M139 629q-.1.9-1.1 1-.8-.1-.4-1 .6-1 1.1-1 .3 0 .4 1m9-.6q0 .5-1 1.1-.9.4-1-.4.1-1 1-1.1 1 0 1 .4m-5 3c0 1.4.4 2.7.9 3 .5.4.3 1.9-.6 3.6-1.9 3.9-3.6 2.8-2.8-1.9.3-2 .6-4.4.6-5.4q0-1.5 1-1.7c.5 0 .9 1.1.9 2.4m9 6.8q.1 2.7-1 .8-2-3 0-3c.6 0 1 1 1 2.2m88.1 6.8c1.1 4.1 2.6 10.8 3.4 14.9l2.5 12.6a88 88 0 0 1 .5 27.5l-1.1 5.5-1.7-11c-.9-6.1-1.8-16.4-1.9-23-.2-11.5-1.7-20.8-3.7-22.8-1.6-1.6-4.1.1-4 2.5 0 1.3.6 5.4 1.3 9.3 1.2 7.1 2.3 47.5 1.2 46.4-1.7-1.6-3.5-18.4-3.2-28.9.4-11.8-.9-29.2-2.5-34.4-.9-2.9-.9-2.9 1.1-1.1 2.7 2.4 5 1.3 5-2.6 0-4.5.7-3.3 3.1 5.1m-101.9 2.7c-.4 9.9-.7 11.2-1.9 10a68 68 0 0 1 .3-17.9c1.3-4.3 2-1.1 1.6 7.9m-7.2-6.5q0 2.4-1.1 1.1-1-1.1-.5-2.2 1.6-2.5 1.6 1.1m26 .4q0 1.3-1 .9-.9-.6-1-1.6.1-.8 1-.9 1 .1 1 1.6m27.7 2.1q-.5 1.4-.5-1.2t.5-1.8c.2.7.2 2.1 0 3m-13.1 6.2c.4 3.4 1.4 6.9 2.2 7.7q1.5 1.5.3 2.8c-1.5 1.7-.7 9.1 1.3 12.1 1.4 2.1 1.4 2.5.2 2.5q-1.2.2-1.9 2.2c-.9 3.2-2 1.4-2.3-3.5q-.4-6.3-3.6-11c-1.1-1.5-1-2 .4-3 1.7-1.4 1.5-6-.5-8.5q-1-1.3.1-2.4c.7-.7 1.2-2.6 1.2-4.2 0-5.3 1.9-1.4 2.6 5.3m-29.4-3.4c-.2 1.4-.8 2.5-1.3 2.5-1 0-1.2-4.3-.3-5.3 1.3-1.2 2.1.3 1.6 2.8m-15.1 2.8c-1.3 1.3-1.5-1.1-.4-4q.8-2.5 1.1.6c.2 1.3-.1 2.8-.7 3.4m3.5-1.6c-1 1-1.9-.5-1-1.8q.8-1.6 1.2 0 .3 1.2-.2 1.8m81.4-.5c0 .7-.5 2-1 2.8q-1.1 1.9-1-1.3c0-1.5.5-2.7 1-2.7q1 .1 1 1.2m155.7 1c-.4 1.4-3.6 1.2-5.1-.3q-.8-.8 2.3-.9 3.3 0 2.8 1.2M153 652.7q-.2 4.8-.9 3.3c-.8-1.4-.4-8 .5-8 .2 0 .4 2.1.4 4.7m12.2 7.3q.5 14-1.6 8.4c-1-2.5-.7-18.4.3-18.4.5 0 1.1 4.5 1.3 10m-38-.6c0 4.2.4 7.6.9 7.6s.9-.5.9-1.2c0-2.2 1.8.6 2.5 3.9.5 2.5.2 3.6-1.5 5.3-1.2 1.2-2.7 1.9-3.3 1.7-1.2-.4-1.3-1.6-.9-17.4.2-10.5 1.4-10.4 1.4.1M143 661c0 4.5.5 8.2 1.1 8.5q1 .7-.7 1.9c-1.3 1-1.4 1.7-.5 3.4 1.5 2.9 3.7 2.8 3.6-.1 0-3.6 2-3.1 2.6.8.9 5.4 1.9 5.4 2-.1l.1-4.9.9 3.5c1.5 5.5 1.5 6.2-.3 7.3-1.1.8-3.1.7-7.1-.3-5.5-1.3-8.7-1-8.7.9 0 1.4 5.4 4.1 8.3 4.1 1.3 0 3.3.9 4.5 2 2.1 1.9 2.1 2.7 1.8 16.8-.3 13.8-.1 15 2.1 19.2 3.1 6.1 3 8.8-.4 9.6a31 31 0 0 0-6.1 2.7c-5.2 3.1-6.4 1.2-6.7-11-.3-9.4-1.8-16.5-7.2-33.1-1.4-4.6-1.5-5.8-.4-8.9s1.2-3.8-.4-4.9c-2.2-1.6-1.1-3.4 2.1-3.4q2.6.1 2.4-2.1c0-2.7 2.4-1.9 2.8.9.5 3.1 1.9 2.7 2-.6.2-4.9.2-6.6-.4-12.5-.6-6.2 0-9.2 1.6-8.2.5.3 1 4.2 1 8.5m30.7-6.8q-.5 1.1-.6-.6t.5-1.3c.3.3.4 1.2.1 1.9m-26.3 3.2q-1.7 8.4-2.9 1.8-1.2-7 2.1-5.5 1.6.4.8 3.7m209.6 6.8c0 4.5-.3 5.9-1.1 5.1-1-1-.4-11.3.7-11.3.2 0 .4 2.8.4 6.2m76-3.8q-.1.4-1.5 1.6-1.6 1.6-1.5-.4.1-1.5 1.5-1.6c1.4-.1 1.5.2 1.5.4M135 668c0 1.6-.4 3.2-1 3.5q-1 .4-1-3.5c0-3.9.4-3.9 1-3.5s1 1.9 1 3.5m14-1.6q0 .5-1 1.1-.9.4-1-.4.1-1 1-1.1 1 0 1 .4m291.2 3c1 1.5-.1 2.3-4.3 3.1-3.5.7-3.6.6-3.5-2.4s.2-3.1 3.6-2.5c1.9.4 3.8 1.2 4.2 1.8m-270.3 8.8q.2 3-1.7 2.8c-1 0-2.3.5-2.9 1.1s-2.4.8-4.2.4q-5-1.2-1.6-2.9 1.4-.4 1.5.4.1 1 1 1 1-.2 1-2c0-1.8.5-2 1-2q1 .1 1 1.1c0 1.6 2.5.5 2.6-1.2l.4-5.4.2-4 .9 4c.4 2.2.8 5.2.8 6.7m191.1-7.6q0 1.3-1 1.4-.9-.1-1-2.1.1-1.7 1-1.4c.6.3 1 1.3 1 2.1m-14 4.4c0 1.6-.4 3-1 3-1.1 0-1.4-4.3-.3-5.3 1.1-1.2 1.3-.8 1.3 2.3m98-1q-.1.9-1.1 1-.8-.1-.4-1 .6-1 1.1-1 .4 0 .4 1m-92 3.5q.9 2.5 2.5 1.9c1.3-.5 1.5-.2 1 1.9-.4 1.3-.2 2.8.3 3.1q.9.3 1.5-1.5.6-2 1.9-1.3c.7.5 2 .7 2.9.6 1.6-.3 3.9 3.6 3.9 6.5 0 1.9-4.7 6.4-6.3 6.2-.7-.1-2 .1-2.9.5q-4.7 2-4.8-3.9c0-1.9-.3-3.5-.7-3.5-.5 0-.8 4.5-.8 10s-.3 10-.7 10-.8-3.9-.8-8.6c0-6.4-.4-9-1.4-9.8-.8-.6-1.8-2.8-2.1-4.9-.7-3.5-.6-3.7 1.6-3.5 2 .3 2.4-.2 2.7-3q.4-5.7 2.2-.7m49.3 2.5q.6 2.1-1.3 2c-2.8 0-3.4 1.8-1.6 4.5 1.3 1.9 2.3 2.3 5.5 2 2.1-.1 4.4-.6 5-.9 1.7-1.1 3.5.4 2.2 1.7-.6.6-1.1 2.7-1.1 4.7 0 3.4-.2 3.6-4.5 4.8-4.8 1.3-9.3 6.2-11.7 12.8-2.7 7.6-10.8 3.7-10.8-5.3 0-3.5-.5-4.6-3.4-7q-3.4-2.7-4.1-6.8c-.4-2.2-1.2-4.6-1.8-5.4q-1.7-1.7 1.3-.6a32 32 0 0 0 14.4.7c1.1-.6 2.9-1.3 3.9-1.6s2-1.4 2.4-2.3c.7-2.2 3.3-5.3 4.3-5.3q.7.2 1.3 2m40.5 1.5c.2 1.1.8 2.4 1.3 2.9 1.3 1.4 1.1 5.6-.3 5.6a5 5 0 0 1-2.7-1.4c-1.8-1.6-6.1-2.4-7.7-1.3q-1.2.5-2.4-.8-1.3-1.8-2.6-.4-1.5 1.4-2.8 0-1.4-1-2.2-1c-3.2.6-5.4-.3-5.4-2.1 0-3 2-3.5 13.7-3.5 9.9 0 10.8.2 11.1 2m-29.8 1q0 2.3-1 2.5-.9-.2-1-2.5c-.1-2.3.5-2.5 1-2.5s1 1.1 1 2.5m-248 8.4c1.4 1 2.9 3.3 3.4 5.1 1.2 4.2-.6 17.5-2.8 19.9-2 2.2-2 4.4-.2 7.9.7 1.5 1.6 4.9 2 7.6.5 4.1.4 4.7-1 4.2-.9-.3-2.4-.6-3.5-.6-1.5 0-1.9-.7-1.9-3.8 0-2-1.1-5.7-2.4-8.2-2.2-4.2-2.4-5.7-2.4-19.9l-.1-15.3 3.2.6c1.8.3 4.3 1.5 5.7 2.5m12.8 19.6c-.3 6.9-.3 7-3.2 7.3-2.5.3-2.8.1-2.3-2l1.2-7.3 1.7-12 1.2-7 .8 7c.5 3.8.7 10.1.6 14m192.2-17q0 2.3-.9 2.5c-1.2 0-2.3-2.9-1.5-4.1 1-1.8 2.4-.9 2.4 1.6m-180 1.7q0 .8-1 .8-.9-.2-1-2.3-.1-2.6 1-.7.9 1.4 1 2.2m155 2.7c0 1.6-1.1 5.1-2.4 7.7l-2.4 4.8.3-7 .4-7.7q.3-.7 2.1-.7 2.1-.2 2 2.9m3 .5c0 1.4-.4 2.8-1 3.1s-1-.7-1-2.4.5-3.1 1-3.1 1 1.1 1 2.4m15 4.1q0 1.3-1 1.5-.9-.2-1-1.5c-.1-1.3.5-1.5 1-1.5q1 .2 1 1.5m-4.4 4.4c-.2 7-1.6 7.6-1.6.8 0-3.2.4-5.7.8-5.7s.8 2.2.8 4.9m-27.6.6q-1.2 1.4-1.8 1-.3-.5.8-2 1.2-1.4 1.8-1 .3.5-.8 2m-136.8 7.6-.8 4.4-1.2-5.9c-1.6-7.9-1.5-8.3.8-5.4 1.6 2.1 1.8 3.3 1.2 6.9m-7.8-1.9c.9 3.6.7 9.6-.4 10.3q-1 .4-1-4.4c0-2.7-.3-5.6-.6-6.5q-.5-1.5.4-1.6.9.2 1.6 2.2m16.1.5c1 3.3 1.3 30.3.4 30.3-1.1 0-2.9-7.4-3.1-12.5-.4-9.7.2-20.5 1.1-20.5.5 0 1.2 1.2 1.6 2.7m178.4-.6c2.5 2.3 2.5 2.9.5 17.4-1.1 8.5-5.9 11.5-8.2 5-1.1-2.8-1-3.9.2-6.3.8-1.6 2.2-3.4 3-4.1 2.3-2 2-3.5-1.4-5.9-3.4-2.6-3.7-3.8-1.3-6.4q3-3.6 7.2.3m-38.3 4.9c1.7 0 2.3.8 2.7 3.2.6 4.2.3 4.4-3 2.2a9 9 0 0 0-5-1.5c-2.8.3-10.6-3.7-10-5.2.2-.7 1.6-1.1 3-.9 1.4.1 2.8-.2 3.2-.7q.6-.8 3.8.9c1.8 1.1 4.2 2 5.3 2m-147.1 24q.4.9-.4 1-1-.1-1.1-1 0-1 .4-1t1.1 1m208.4.9c1.1.7 1 1.1-.7 2-2.2 1.2-3.9 0-2.7-1.9.8-1.2 1.6-1.2 3.4-.1m-26.6 4c-.5 1.9-3.9 3.5-5.5 2.5-1.8-1.1-.6-3.3 2-3.7l3.4-.6q.5.2.1 1.8m-222.8 7.2c.6.6.9 6 .7 14.2-.3 10.5 0 13.8 1.2 16.2q4.4 8.3-4.2 5.4c-2-.7-4.7-2.4-5.9-3.8-2.1-2.4-2.2-2.4-4.8-.7-3.9 2.5-5.5.5-1.9-2.3 5.3-4.2 7.7-9.9 6.4-15.4-1.3-5.9-1.2-13.1.3-14.6 1.3-1.3 6.4-.8 8.2 1m11.6 11.1c-.1 10.6 1.6 17.4 4.3 17.2 2.6-.3 1.3 1.9-1.7 2.9-3.7 1.2-5.3.4-7.2-3.3-1.4-2.7-1.5-4.7-.6-15.1 1.1-13.3 1.6-14.8 3.8-12.6 1.1 1.1 1.5 3.8 1.4 10.9m186.7-9.9q.3 1.7-1.7 1.7c-2.3 0-3.5-1.5-2.6-3.1 1-1.5 3.9-.6 4.3 1.4m16.7-.3q-.6.9-1.6 1-.8-.1-.9-1 .1-1 1.6-1 1.3 0 .9 1m65.5 1.2q0 2.6-.9.8-.9-1.4-.5-2.2 1.4-2 1.4 1.4M347.5 777c.3.5 1.7 1 3 1 2 0 6.1 3.7 5.1 4.7-.6.6-10.6-4.9-10.6-5.8 0-1.2 1.7-1.1 2.5.1m-134.7 2.1q-.4 1-1.3 1-1.2 0-1.3-1t1.3-1.1c1.5-.1 1.5.5 1.3 1.1m11.9 5.1q-.5 1.1-.6-.6t.5-1.3c.3.3.4 1.2.1 1.9"/><path d="M212.5 602.6c-1.8 1.4-1.8 1.4.2 1.4 2.3 0 3.9-1.5 2.6-2.3-.5-.3-1.7.1-2.8.9m-13.5 3.3q.1 1 1 1.6 1 .4 1-.9 0-1.5-1-1.6-.9 0-1 .9m-42.4 9.9q-.3.8.5 2.2 1 1.9.9-.8 0-3.5-1.4-1.4M39.3 549.7c-3.4.6-6.5 5.1-5.8 8.3.9 4.1-.8 7.2-4.6 8.4-4.8 1.6-4.9 4.5-.5 11.2 3 4.5 4.1 5.4 6.6 5.4 1.6 0 3.2-.5 3.5-1 1.3-2.2 3.3-.8 3.8 2.7.8 4.9-.3 6.4-5.4 7.8-2.4.7-5.2 1.5-6.1 2q-1.9.8-1.8-.9c0-.8-1.3-3.1-3-4.9s-3-3.9-3-4.4-1.1-2.2-2.5-3.7c-4.6-5-14.6-2.9-13.7 2.8.2 1.2.8 2.6 1.4 3.3q1 1.1-2.9 5.4c-3.2 3.5-3.8 4.9-3.8 8.5 0 2.4-.3 4.4-.7 4.4-.5 0-.8 1.4-.8 3.1 0 1.6.3 2.8.8 2.5s1.8.2 3.2.9l2.5 1.4-3.3 1.1c-2.4.9-3.2 1.8-3.2 3.6q0 2.3 1.5 2.4c1.5.1 1.5 1 1.5 2.6q0 2.8-1.5 2Q0 624 0 626.2c0 2.1 0 2.1 2.3.2 1.2-1 2.6-2.5 3-3.1q.7-1.5 2.6-.2c1.7 1.1 2.1 1 10.5-3.8q4.6-2.5.1 4.6c-2.7 4-8.7 7.7-10.5 6.6-.6-.3-2.6-.1-4.5.6q-3.6 1.3-3.5 3.4c0 1.9.4 2 6.3 1.5 7.6-.6 13.1-3.8 17.8-10.3 3.4-4.8 9.7-10.2 10.6-9.3.4.3-.4 1.7-1.7 3.1q-2.4 2.5-.9 2.5c.8 0 3.8-2.7 6.8-6 7.1-7.8 9.4-14 9.2-24.3l-.2-7.7h4.3c5.4 0 8.5-2.1 10.9-7.4q5.3-11.6-5.1-15.4c-1.9-.7-2.5-1.7-2.6-4.2-.1-1.8-1-4-2-5-1.9-1.8-9.8-3-14.1-2.3m8.6 6.2q2 1.3-1.1 7.8c-1.7 3.5 1 9.8 4.2 9.8 2.1 0 2.5-.5 2.5-3.1q-.1-3.4 1.7-2.6c3.6.9 4.1 2.9 1.7 7.2-1.2 2.2-3.1 4.1-4.1 4.1l-3 .3q-1.2 0-1.3-1.8c0-1-.7-2.2-1.5-2.6-7.4-3.7-10-3.7-10 0 0 2.9-2.5 2.5-3.9-.8-1.2-2.6-1.1-2.9 2.9-6.4 3.6-3.2 4.1-4.2 4-7.5-.1-2.1-.2-4.1-.1-4.6.1-1 6.3-.9 8 .2M17 586.2q0 2.9 2.5 5.3c3.6 3.2 2.6 7.5-1.6 7.5q-2.8 0-3.9 2c-1.3 2.5-1.8 2.5-5.4-.4-2.4-2-2.7-2.6-1.7-4.5.7-1.1 2-2.1 3.1-2.1 2.6 0 3.3-1.5 3.6-7.4l.3-5.5q.3-.2 1.6.9c1.3 1.1 1.5 2.6 1.5 4.2M42 598q-.1.9-1.4 1c-.7 0-3 1.3-5.1 3-5.4 4.3-6.6 3.7-2-1 3.6-3.7 8.5-5.4 8.5-3m-19 8q0 .9-1 1a1 1 0 0 1-1-1q.1-1 1-1t1 1m284.2-24.8c-1.4 1.4-1.6 3.8-.3 3.8.5 0 1.1-1.1 1.3-2.5.6-2.9.6-2.9-1-1.3m9.3 5.7c-1.9.8-1.9.8.3 2 1.9 1 2.2.9 2.2-.9q0-1.9-.2-1.9zm-9 1.1q.6.9 1.1 1 .4-.1.4-1-.1-1-1.1-1-.8 0-.4 1m33.8 32c-2.6 1-3.1 3.8-.9 4.6 2 .8 7.6-2.3 7.6-4.1s-3.2-1.9-6.7-.5m103 2.6c-1 2.7 1.3 3.6 10.9 4.4 8.9.6 12.8 0 12.8-2 0-1.8-3.6-2.7-13.3-3.3-8.3-.6-9.9-.4-10.4.9M330.5 627c-1.6 1.6-3.6 3-4.6 3-2.2 0-4.1 2.4-3.4 4.2q1 2.8-8.1 2.8c-4.6 0-8.3 2.3-8.8 5.5-.2 1.1-1.6 2.5-3.3 3.2-2.9 1.1-3.1 1.1-2.6-.7q.7-2-2.1-3.2c-2.2-1-3.7-.9-7.9.5-2.9.9-6.8 1.6-8.7 1.5-2.5-.1-5.5 1-10.6 4-5.4 3.3-8 4.2-11.5 4.2-2.5 0-5.4.6-6.4 1.4-1.9 1.4-1.9 1.4 0 3.6 1.7 1.8 2.6 2 6.9 1.5 2.7-.4 8-2.3 11.8-4.3 4-2 8.9-3.6 11.4-3.8s4.9-.6 5.3-.9q1-.3 2.5 2c1.2 1.8 2.5 2.5 4.9 2.5 5.9-.1 16.7-6.3 16.7-9.7q.1-1.2 1.3-1.5l2.2-.3c.6-.2 3-.3 5.4-.4 3.5-.1 4.9-.7 7.5-3.5 6.1-6.7 10.6-12.8 10.1-13.7-1.2-1.9-5.2-.8-8 2.1m-270.7.2q-4.7 1.8-1.4 4.7c2.7 2.2 8.5-2.1 6.4-4.6-1.2-1.5-1.3-1.5-5-.1m-33.1 6.9A54 54 0 0 0 19 641c0 1.3-7.2 2-9.2.9-1.1-.6-3.7-.8-5.9-.4-3.8.7-3.9.8-3.9 4.6v3.9l4.2-.6a34 34 0 0 0 6-1.5c.9-.5 3.5-.9 5.8-.9 3.5 0 4.8-.7 10.3-5.8l9.6-8.3c3.5-2.6 3.6-4.9.2-4.9-.9 0-5.2 2.8-9.4 6.1m47.3-2.2c-4.2.6-4.6 1-4.1 4.1 0 .5 2.5 1 5.4 1 2.8 0 5.8.4 6.6.9s2.5.5 4.2-.1c2.2-.7 3.8-.4 8.2 1.6 5.5 2.7 13.8 3.5 16.6 1.7 2.5-1.6-.5-3.8-5.7-4.3-2.6-.3-6.3-1.2-8.2-2.1s-6-1.8-9-2-6.4-.7-7.5-.9-4-.3-6.5.1m-31.5 3.2-10.7 4.6c-3.6 1.5-5.1 4.4-2.9 5.7.4.3 4.2-.8 8.2-2.6l11.4-4.5c5.9-2.2 7-2.9 7-4.4 0-2.5-5.7-1.9-13 1.2m358.9-.1c-6.4.9-14.4 4.5-14.4 6.3 0 .8.7 2 1.5 2.7 1.3 1.1 2.2 1 5.3-.7 2-1.2 6.4-2.4 9.7-2.8 6.8-.8 9.5-2 9.5-3.9 0-2.6-2.5-2.9-11.6-1.6m-26.7 33.6c-1 1.1-.9 7.2.2 7.8 1.3.8 2.4-5 1.4-6.9q-.9-1.4-1.6-.9m37.6 1.8c-3.1 2.7-2.5 4.6 1 2.8l5-2.2c1.5-.5 2.7-1.4 2.7-2 0-1.9-5.9-1-8.7 1.4m9.2 24.6c-.7 1.1.2 9.7 1.2 11.4 1.2 1.8 2.2-2.1 1.6-6.4q-1-7.5-2.8-5m-12.6 11.6c-4.8 2.5-5.5 4.1-3.1 7.3q2.1 3 1.9 6.9c-.1 3.3.4 4.6 2.6 6.6 1.5 1.4 2.7 3 2.7 3.6 0 1 5.7 5 7.2 5q.8-.2 1.8-2c.8-1.5.5-2.5-1.8-5.2-2.8-3.2-5.2-7-5.2-8.3 0-.3 1.1-.3 2.4.1 5.2 1.3 5.1-7.3-.2-12.9-2.8-3-4.4-3.2-8.3-1.1"/><path d="M423.3 717.2c.4 2.9.2 3.5-1.1 3.4-3-.2-2.4 3.8 1.3 8.7 3.6 4.7 7.1 7.4 8.3 6.2.3-.3.1-1.5-.6-2.5-.6-1.1-.9-2.6-.6-3.4s0-2.5-.8-3.8c-.7-1.3-2-4.3-2.8-6.7-1.9-5.7-4.6-7-3.7-1.9M291 794.5q-1.4 1.6-.2 2.7c1.5 1.5 4.4.2 4-1.9-.4-2.3-2.2-2.7-3.8-.8m177.3.1q-5.4 2.2-5.3 7.7c0 3.2-1.5 4.3-6.9 5-8.3 1-9.3 5.4-1.9 8.6l4.3 1.8-5.1.6c-8.2 1.1-12 5.2-7.3 7.8 1.2.6 5.4 1.5 9.3 1.9 6 .6 6.4.8 2.4.9q-7.8.2-7.8 5.6c0 3.9 3.9 4.4 6.7.9 2.1-2.7 2.4-2.8 3.9-1.2 1.4 1.4 1.7 3.7 1.6 14.4-.1 14.6.5 16.7 5.1 16.2 2.6-.2 3.1-.7 2.9-2.3-.5-2.7-.5-7.3-.2-18.8l.2-9.7 8 .6c12.6 1.1 18.9-3 14.4-9.1-1.2-1.7-3-2-12.2-2.4-8.8-.4-10.1-.6-6.9-1.2 2.2-.4 6.1-.8 8.6-.8q4.5-.2 5.9-1.6 1-1.3.5-1.5t.9-1.9c3-3.4 1.1-4.1-10.5-4.1-6.8 0-10.9-.4-10.9-1s2.6-1 6.6-.9q9.8.2 8-3c-.4-.6-1.9-1.1-3.3-1.1h-2.7l2.8-2.9c2.7-2.8 2.8-2.9 1-5.6s-5.2-4.6-7.7-4.4c-.7 0-2.6.7-4.4 1.5m5 5.1c-.7.2-2.1.2-3 0q-1.3-.5 1.2-.5 2.6 0 1.8.5M461.5 811q.4.9-.9 1-1.5-.1-1.6-1 0-1 .9-1t1.6 1m16.7 6.2q-1 1.2-3.4 0c-2.2-1-2.1-1.1 1.2-1.1q3.7-.2 2.2 1.1m-16.9 5.9c-.5.5-2.5.6-4.4.2l-3.4-.7 3.5-.6c3.9-.7 5.6-.2 4.3 1.1m24.2 5.9c0 1.2-1.5 1.5-7.7 1.5-7.8 0-9.5-.5-8.3-2.5.4-.7 3.5-1 8.3-.8 6.1.2 7.7.6 7.7 1.8"/><path d="M473 842.4c-1 1.3-.9 1.7.3 2.2 2.4.9 5.2 0 5.2-1.6 0-2.1-3.9-2.4-5.5-.6"/></svg>