<svg xmlns="http://www.w3.org/2000/svg" width="666.7" height="1170.7" viewBox="0 0 500 878"><path d="M282.5 109.2a35 35 0 0 1-16 3.9c-19.9 1.6-30.8 4-40.8 9-4.4 2.3-6.7 2.9-9 2.4-6.2-1.2-8.8-2.8-12.3-7.6-4.6-6.3-9-9.9-12-9.9-5.4 0-9.4 4.3-7.4 8 1 1.8.7 2.1-1.8 2.6-1.6.3-4 2-5.3 3.7-2.9 3.7-6.3 12.2-5.5 13.6.4.5-.4 2.2-1.7 3.8-6.2 7.3-6.3 11-.4 15.3 2.3 1.7 5.2 3.3 6.5 3.7 1.9.4 2.2 1 1.8 2.8s.1 2.8 2.2 4.4l2.7 2-2 3.8c-1.1 2.1-2.9 3.9-4 4.1-2.7.5-7.5 5.2-7.5 7.3 0 .9 1.6 3.1 3.6 4.9 2.7 2.4 4.3 3 6 2.6 6-1.5 7-1.6 8.3-.7 1.3.8 1.2 1.4-.4 4.4q-3.4 6 2.3 7.8c1.6.5 3.2 2.1 3.8 3.8 1 2.6 1.6 2.8 8.3 3.4q7.2.7 9.1-.5c2.9-1.8 4.1-6 2.8-10.4-.5-2-.7-4.6-.4-5.7s-.4-4.2-1.5-6.8q-3.9-8.8 1.1-8.1c10.9 1.1 12.2 1.5 13.2 3.8.9 1.8.8 3.1-.3 5.1l-1.7 3.5c-.6 1.3 5.3.9 6.7-.5q1.6-1.6.8 1.1c-.4 1.7.3 3 2.5 5.1 2.6 2.4 3.7 2.8 6.8 2.4 3.2-.5 4-.1 6.1 2.6 5.3 6.8 6.9 8.9 6.9 9.4s-3.3.3-7-.7q-2.5-.7-6.5 1.4c-2.1 1.1-4.4 2-5 2a25 25 0 0 0-5.3 2.8c-4 2.7-4.5 2.8-10.3 1.9-5-.8-6.9-.7-11.4.8-6.7 2.3-12.6 7.4-11.8 10.3q.5 2.1-2.6 5.9c-2.2 2.7-3.1 4.8-3.1 7.5 0 2-.9 5.2-2 7.1-2.2 3.8-2 7.8.7 10.8 1.1 1.3 1.2 2.5.2 6.5l-2 8.4a29 29 0 0 1-14.5 14.8q-8.6 2.6-10.4 9c-.8 3-1.7 4-4.5 5-7.3 2.7-9.9 10-4.5 13 3.3 1.8 3.4 2.4 1 9.2-1.9 5.3-2.5 6.3-3.5 5.9-1.2-.5-1.1-1 1.1-7.2 1.9-5.5 1.2-6.7-3.7-6.7-3.5 0-5.7 2.5-3.3 3.8q1.5 1 1 2-.6 1.2-5.1-1.3c-5.4-3.1-7.4-3.1-11-.3l-2.7 2.1-2.7-3.1-5-6.3-2.4-3 3-3.2c4.6-4.8 5.4-8.4 3.1-13-1-2.1-2.4-3.6-3.1-3.4-1.2.4-1.2 1.2-.1 5.9.9 4-.8 3.4-2.8-1-2-4.2-1.5-7.3 2-13.2 1.2-1.9 3.3-6.7 4.7-10.5 1.5-3.9 6.4-14.8 11.1-24.2 4.6-9.5 8.4-18 8.4-18.8s-1.1-2-2.4-2.5q-4.8-1.8-2.1-4a51 51 0 0 0 8.6-20c.4-4.3.3-4.5-2.6-5-1.7-.3-3-1.2-3-2q-.2-4.2-4.3-3.4a52 52 0 0 0-27 13.6c-1.8 1.5-4.1 2.8-5.1 2.8-2.4 0-11 3-11.6 4.1-.3.4.3 2.7 1.5 5.1q2 4.2.9 4.8c-.6.4-6.3 1-12.7 1.4-21.4 1.2-26.3 2.3-27 5.8-.4 2.2 5.6 14.7 11.6 23.8l6.8 10.5 7.5 13 5.6 10-4.3 4.1c-3.7 3.4-4.4 4.6-4.4 7.9 0 3 .7 4.4 3.6 7.2s3.4 3.6 2.4 4.8c-.7.8-1 2.9-.7 4.7q.4 3.3-1 5c-1.3 1.4-1.2 2 .2 4.8.9 1.7 1.3 4 1 5.1s0 3 .9 4.4a11 11 0 0 1 1.6 5.3c0 1.6.7 3.5 1.5 4.2 4.8 4-2.9 32-11.1 40.8a21 21 0 0 0-4.4 5.8c0 3.1 8.9 6.2 20 6.9 4.7.3 12 1 16.2 1.6 6.7 1 8.1.9 11-.6a49 49 0 0 1 14.3-6.5c4.9 0 6.1-5.6 1.9-8.9a67 67 0 0 1-15.8-30.5l-.1-4.1 5.3-.3 5.2-.3v3.1q0 3.1 2.9 6.1c4.1 4 8.6 3.9 16.5-.4q6-3.4 12.3-4.1l6.1-.7 6.7 6.7a39 39 0 0 0 25.7 13.1c5.7.5 7.1.3 8.8-1.2s2.4-1.6 4.6-.7c3.3 1.6 9.3 1.5 12.4-.1a8 8 0 0 0 3.4-4.5c1.3-4.5 2.6-4 2.6 1q0 4.3 2.5 8.3c1.4 2.4 2.5 5.6 2.5 7.8q0 7.3 5.9 11.2c1.7 1.1 3.1 2.6 3.1 3.3s-3.6 5.3-8.1 10.2c-7.9 8.9-13 15.2-27.1 34-17.9 23.8-31.8 45-31.8 48.6 0 .8 1.5 4.5 3.4 8.2 2.6 5.2 3.2 7.2 2.5 9-1.1 3 0 5.1 4.6 8.6 2.6 2 3.5 3.5 3.5 5.6s1.1 3.8 4.6 6.9l4.6 4-1.5 7.3-2 9.8-2 10c-.8 4.1-1.8 10.1-2.2 13.2-.6 5.4-3.4 15.1-6.9 24.3-.8 2.2-1.5 7.2-1.6 11a53 53 0 0 1-1 10.5c-.6 1.9-1.4 8.6-1.9 14.9-1.2 15.2-1.4 15.5-12.3 10.9-33.4-14.1-54.9-14.8-93.3-3.3-17.8 5.3-23.3 6-51 6.1-30.7.2-28.5.1-28.5 1.8 0 2.1 39 2.1 54 .1 10.9-1.6 30-5.8 40.5-9.1 2.8-.8 10-2.2 16-3.1a63 63 0 0 1 25 .5c13.7 2 21.6 4.4 35.1 10.8 2.8 1.3 5.8 2.4 6.7 2.4 2.1 0 3.4 2.3 1.7 2.8-.8.3-2.5 1.6-3.8 2.9l-2.4 2.4-10.2-5c-32.1-15.8-37.5-16-91.1-3.5-35.6 8.3-56 10-69.2 5.9-2-.6-2.3-.4-2.3 1.8 0 3.2 2.2 3.8 15.5 3.8 17.9.1 24.3-1 77.5-13.8a90 90 0 0 1 26-2.7c13.4 0 15 .2 21.6 2.7 4 1.5 10.7 4.7 15 7 4.4 2.4 10 5.2 12.6 6.3s4.4 2.2 4.1 2.7a79 79 0 0 0-3.3 19q0 4.8-1.4 5.3c-.8.3-5.2-1.2-9.8-3.4a236 236 0 0 0-48.9-17.1 76 76 0 0 0-30.1 1.3 196 196 0 0 1-34 4.6c-3.5 0-7.9.5-9.8 1.1a154 154 0 0 1-31.1 3.3c-3.1-.5-3.9-.3-3.9.9 0 .8.7 1.8 1.6 2.1a63 63 0 0 0 21.9-1c3.9-.8 14.2-2.1 23-2.9a316 316 0 0 0 28.5-4 91 91 0 0 1 34.2-1.4c8 1.7 28.8 9 43.5 15.3 7.3 3.1 14.1 5.6 15.1 5.6 4.1 0 4.6 2.3 2.8 12.6-2.4 14.4-1.1 13.4-18.4 13.5-41.8.1-116.8.2-131.7 0-9.4-.1-17.8-.2-18.7-.1-2.1 0-2.4 2.5-.5 3.3.7.2 37.2.4 81.2.2 44-.1 80.6 0 81.3.2q1 .6 1.2 2c0 1.2-9.2 1.4-70.7 1-40.6-.3-73.6 0-77.3.5-3.6.5-8.9.9-11.7.9-4.6 0-5.3.3-5.3 2 0 2 .4 2 16.3 1.3 8.9-.4 21.8-.7 28.7-.7l63.4.3c28.1.1 51.4.3 51.8.6 1 .7-1.9 6.4-3.3 6.4-.6 0-2.4 1.1-4 2.5a38 38 0 0 1-9.8 4.5 39 39 0 0 0-10.6 5c-2.1 1.7-4.7 3-5.9 3.1-8.6.5-15.5 3.1-19.6 7.4-2.9 3.1-1.9 5.6 2.6 6.6 5.7 1.3 29 .9 38.9-.7 10.4-1.6 16.4-1.4 37.1 1.1 10.7 1.3 14.4-3.2 13.9-17-.2-4.4.1-8.8.8-10 .6-1.1 1-3.6.8-5.7-.1-3.2.1-3.7 2.7-4.3 1.6-.3 4.1-.1 5.6.5 1.9.7 11.7.7 31.9 0 16.1-.5 35.6-1 43.5-1H299l.1 6.7c0 3.8.4 7.7.8 8.7.4 1.1.4 3.8 0 6q-1.3 7.6 3.6 9.6c1.4.5 2.8 1.8 3.2 2.7.3 1 3 4.6 6 8a36 36 0 0 0 18.8 12.3l9.5 2c4.7 1 16.2 2 26.3 2.2 1.6 0 3.5-.6 4.4-1.4 1.3-1.4 1.2-2-.8-5.9a57 57 0 0 0-7.8-10.4 53 53 0 0 1-7.5-9.8 34 34 0 0 0-10.2-9.8c-4.9-3.5-8.4-6.8-8.7-8.1s-1.3-4.3-2.2-6.7-1.2-4.8-.7-5.3c1.1-1.1 68.2-1.5 91.2-.6 9.6.4 30.4 1 46.3 1.4 25.5.6 28.7.5 28.7-.8s-2.3-1.7-13.2-2.3a219 219 0 0 0-15.8-.4c-1.4.2-7.7 0-14-.4-20.9-1.2-58-2.1-91-2.2-28.2 0-32.5-.2-32.5-1.5s4-1.5 29-1.7l82.8-.6c29.6-.3 54-.6 54.2-.9a411 411 0 0 0-43.9-1.8 89 89 0 0 1-30.1-3.7c-1.1-.6-5.6-1.6-10-2.3s-9.4-1.8-11.1-2.5c-6.5-2.6-21.5-6.4-35.3-9-14.6-2.7-24.4-2.9-30.7-.5-1.9.8-2.6.6-3-.5-.8-2 1.3-4.5 3.8-4.5 1.1 0 2.7-1.4 3.9-3.5 1.2-1.9 2.4-3.5 2.7-3.5 5.8.2 20.3 2.4 28.4 4.4 38.2 9.4 45.6 10.6 63.8 10.6 19.9 0 29.6-1.2 39.5-5.1a88 88 0 0 1 15.3-4.2q7-1.1 7.2-2.4 0-1.2-.7-1.3c-3.4 0-20.2 3.6-25.8 5.5-8.5 2.8-15.9 3.6-34 3.6-12 0-16-.5-28-3.2l-18-3.9c-2.2-.5-6.9-1.8-10.5-2.9-9.5-2.9-21.4-5.2-30.5-6l-8-.6.1-6.7c0-3.8.4-7.1.8-7.5.3-.4 5-.1 10.3.5 6.8.9 11.8 2.2 17.2 4.6 7.6 3.4 18.4 6.4 40.1 11 22.8 4.9 52 4.4 69.5-1.2 3.3-1.1 8.6-2.5 11.8-3.2 4.5-1 5.7-1.7 5.7-3.2q0-1.8-.9-1.3c-1.1.6-15.7 4-26.6 6.1a179 179 0 0 1-62-3c-3.3-.9-11.2-2.7-17.5-4.2s-14.4-4.1-18-5.9a49 49 0 0 0-16.3-4.5c-10.3-1.4-14.3-3.7-13.5-7.7.3-1.5 1.2-1.8 5.3-1.5a149 149 0 0 1 36.5 9c3 1.1 11.6 2.8 19 3.7 19.8 2.5 51.6 1.3 46.3-1.8-.4-.2-6 0-12.3.5-19.3 1.5-37.7-1-60-8.1-6.9-2.1-17.5-4.7-23.5-5.7-10.5-1.6-13.5-2.6-13.5-4.5 0-2.4 8.4-1.8 32 2.5 12.1 2.2 27.5 1.3 41.5-2.2 6.6-1.7 14.5-4.2 17.5-5.5 7.1-3.1 16-5.2 28.7-6.8a61 61 0 0 1 35.6 5.6q1.8.8 1.7-.8c0-2.3-8.6-5.4-18.5-6.8-16.1-2.1-35.8.4-50.7 6.4-9.6 4-14 5.2-26.2 7.2-12 2-19.5 1.9-30.7-.6-9.5-2.1-30.5-4.3-32-3.3-.5.2-1.1 2-1.5 3.9s-1 3.2-1.5 3c-.9-.6-1-3.4-1.3-21.5-.1-11.4-.1-11.5 3.7-18.8a131 131 0 0 0 7.6-22.5c4.1-15.9 6.5-23.5 8.6-27.7.7-1.4 1.5-4.6 1.9-7.1 1-6.5 2.5-8.2 8.2-8.8 4.5-.5 5-.9 6-3.9a9 9 0 0 1 4.5-5c1.9-.9 4.1-3.1 4.9-4.9a9 9 0 0 1 4.4-4.4c3.9-1.7 8.6-5.8 8.6-7.5 0-.7-1.3-4-3-7.2q-5-10-1.5-8.8c1.8.6 5.3-2.9 6.2-6.2.7-2.8-1.5-8-11.9-28.7-10.3-20.4-9.6-18.9-15.8-32.9-3-6.5-6.3-13.2-7.5-15-3.1-4.7-4.8-9.4-4-11.3.6-1.6.8-1.5 1.6.6q1.8 4.2 5-3.2c.7-1.8 2.1-4.5 3.2-6 1.8-2.7 2-2.7 4.4-1.2 3.5 2.4 7.3 1.6 9.3-2 .9-1.6 3.4-3.8 5.6-5 4.2-2.2 7.4-7.2 7.4-11.7 0-3.7 3.8-10.8 5.9-10.8 2.4-.1 6.1-3.5 6.1-5.7 0-1 1.4-3 3-4.5 1.8-1.5 3-3.6 3-5q0-2.4 4.8-7.1c4.8-4.8 4.9-4.8 9.9-4.1q5 .6 7.4-.6c4-2.1 7.9-6.3 7.9-8.5 0-1.2.9-3 2-4s2-2.4 2-3.1 1.8-3.4 4-5.9c3.7-4.3 4-5 4-10.9 0-4.6-.6-7.5-2.4-11a64 64 0 0 1-3.1-7.3c-.3-1.3-4-5.9-8.3-10.1A89 89 0 0 1 429 266a82 82 0 0 0-7.5-10.6c-3.8-4-14.3-9.7-21.7-11.8-4.6-1.3-5.8-2.1-5.8-3.7 0-2.8-2.3-6.9-5.5-9.9a33 33 0 0 1-4.6-5.7c-2.6-4.2-24-15.1-31.9-16.2-3-.4-6.9-1.5-8.6-2.4l-3.1-1.6-.7-12.8c-.4-7-1.1-15.6-1.6-19.1-1.2-8.6-5.5-22.3-9.5-30.2-1.8-3.6-3.6-7.6-4-8.8a61 61 0 0 0-8.9-14.1 96 96 0 0 0-24.1-12.4c-2.2-.5-4.6.2-9 2.5m-83 7.7c5.2 6.5 10.2 10.1 13.9 10.1 2.6 0 1.8 2.4-1.9 6-3.2 3.1-3.7 3.2-5.9 2.1-2.1-1.2-3-1.1-6.7 1-2.3 1.3-4.4 3-4.7 3.6-.6 2.1 2.7 2.7 4.7.9 2.5-2.2 5.6-2.2 4.6.1-2 4.6-4.4 12-4.5 13.5q0 1.7-1.2 1.8-1.7.3-3.5 2.7c-2.1 2.6-2.2 2.7-2.3.7 0-1.2 1.3-4.7 2.9-7.7 1.6-3.1 2.7-5.8 2.3-6.1q-1.5-1.7-3.4 1.8l-3.6 6.5c-3 5.4-5.6 5.6-4.6.3.3-2 1.5-4.7 2.7-5.9 2.5-2.8 1.7-5.9-1.2-4.3a20 20 0 0 0-4.8 4.4q-2.9 3.5-4.2 2.7-1.4-.9-.2-1.5c1.7-1.1 1.3-3.6-.5-3.6-.9 0-2.9.8-4.5 1.7q-5.4 3.1-2.9-2.7c1.6-3.8 7.2-8.8 10.8-9.5 5.9-1.3 8.2-4.8 4.1-6.3q-2.2-.9-1.1-1.6c.7-.4 1.2-1.8 1.2-3.2 0-1.9.7-2.8 3-3.5q4.8-1.7 1.9-7.1c-.9-1.6-.8-2.3.2-2.9 2.6-1.6 3.8-.9 9.4 6m95-4.9a61 61 0 0 1 19.8 11.2c1.6 2.2 2.2 4.7 2.5 11.5.4 8.8-.3 13-3.3 21.3-1.5 4.1-1.5 4.8-.1 7.7 1.9 4 5.8 6.2 7.9 4.4.8-.6 1.7-2.6 2.1-4.3.7-3.3 2-3 2.3.5l1.1 13.7c.5 6.3.5 12.2.1 13.1s-1.3 6.3-1.8 12a86 86 0 0 1-2.2 13.7c-.6 1.8-.9 5-.5 7.1.5 3.3 0 4.6-3.9 10.5a32 32 0 0 0-4.5 8.1c0 3.5 3.3 1 8.2-6.3 4.3-6.4 5.2-8.4 5-11.7-.1-2.2.5-7.2 1.3-11a60 60 0 0 0 1.1-21.2q-.7-2.2 1-4.8c1.4-2.2 1.6-4.2 1.1-12.8-.5-9-.4-9.8.8-7.2 1.9 4.5 3.7 26.6 3 37.5a83 83 0 0 1-31.5 59c-4.2 3.3-4.8 3.5-14.1 3.8-10.6.5-10.1.6-30.6-7.9-9-3.7-11.2-5.1-19.2-12.5-7-6.4-9.8-8.4-12.8-8.9-2.1-.4-5.5-1.3-7.6-2.1s-6.1-1.4-8.9-1.4c-4.9 0-5-.1-3.5-1.8q3.3-3.4-.2-3.2c-1 0-2.2-.7-2.5-1.6q-1.4-3.5.7-3.4c.8 0 2.2-.9 3.2-2s3.1-2 4.6-2c3.6 0 12.9 2.4 16 4.2 3.9 2.2 9.1 6.8 7.6 6.8-.8 0-2.2-.9-3.1-1.9-3.7-4-12-3.8-11.4.2q.2 2.3 3.2 2.5a158 158 0 0 1 23.6 7.7c1.4.7 5.7 1.6 9.5 2 3.9.4 9.3 1.6 12 2.6 2.8 1 8.2 1.9 12.2 2.1 6.4.2 7.5 0 9.8-2.2 1.4-1.3 2.5-3 2.5-3.7s2.8-4.8 6.1-9.1a42 42 0 0 0 11.2-25.5 27 27 0 0 1 1.9-8.7c.4 0 .8 1.1.8 2.4 0 2.7 2.4 5.3 3.5 3.7.3-.6.7-3.8.7-7.1.1-5-.5-7.3-3.6-13.5-2-4.1-5-11.6-6.7-16.7-2.8-8.9-2.9-9.4-1.4-13.8a28 28 0 0 0-.8-21c-4.1-8.6-8.2-12.9-15.5-16.1-5.6-2.5-6.3-3.1-5.1-4.5q1.3-1.5 3.3-.9zm-11.5 5.8 5.3 1.7c4.4.9 10.2 6.9 13.2 13.6 2.3 5.2 2.7 7.1 2.2 11.9-.4 5.2-2.3 10-3.8 10q-.5-.2-.5-2c.1-1.9-1.2-3-7.7-6.2q-1.9-.9-3.3.3c-1.1.9-1.4.7-1.4-1.5 0-2.9-2-3.5-4-1.1-1.1 1.3-1.4 1.3-2.7 0-2.3-2.4-5-1.8-5.7 1.1-.7 2.8-2.2 2.3-2.8-1-.1-1.1-1.2-2.1-2.3-2.2l-6.1-.9c-3.2-.6-4.2-.4-4.7.9-.3.8-.2 1.8.3 2.1 1.7 1 1.1 2.5-1 2.5-1 0-2.8-.9-3.9-2.1-1.4-1.6-2.5-1.9-4.3-1.3-1.2.4-3.1.7-4 .5q-1.7 0-1.8 1.1c0 .7-.5 2-1 2.8-.8 1.3-1.1 1.2-2.4-.5-1.1-1.5-1.7-1.7-2.8-.7q-1.3 1-2.1.6c-1.2-1.2-5.7 2.9-5.7 5.2 0 2-.4 2.3-2.3 1.9q-2.2-.7-4.6 1.9c-2.1 2.3-2.3 2.9-1.3 5.2 1.1 2.3 1 2.5-.7 1.9q-1.8-.5-2.5.3c-.6 1.1-5.5.4-7.3-1q-1-1-2.6 1.3c-1.5 2.1-1.6 2.1-2.3-1.6-1-5.4.3-14.9 2.6-19.4a53 53 0 0 1 9.5-10.8c8.6-7.8 13.6-9.9 31.3-13.2 15.3-2.9 28.2-3.4 33.2-1.3m-102 12.7c-1.4 1.6-4 2-4 .6 0-1 1.7-1.9 3.9-2q1.6-.3.1 1.4m91.7 23.8c1.5 1.4 2.7 4 3 6.5.3 2.4 1.5 5 2.8 6.2 2.4 2.2 4.5 2 4.5-.5 0-1.4 3.7-3.1 4.7-2.2 1.2 1.2-1 4.7-2.9 4.7q-2.1-.1-1.3 1.7c.4 1 .9 3.4 1.2 5.3s1.2 4.4 1.9 5.5a10 10 0 0 1 1.4 5c0 4.5 3.4 13 7.2 17.7 1.8 2.3 3.1 4.9 3 5.8q-.5 1.6 2.1-.9 2.4-2.3 2-3.8-.6-1.6.8-1.1c2.2.7 2.2 4.2-.1 7-3.1 4.1-17.1 8.7-29.9 9.9-6.7.6-11.4.6-13 0l-5.2-1.5c-4.5-1-4.4-3.4.3-4.6q4-1.2 4.6-3.2c.3-1.2 2.3-2.8 4.9-3.9 2.4-1 4.6-2.6 5-3.6s2.2-3 4-4.6 3.3-3.3 3.3-3.8c0-2-3-.7-5.7 2.5-3 3.5-12.2 8-14.6 7.1-1.5-.7-5.1-7.5-4.2-8.3.2-.3 1.4.3 2.4 1.2 2.4 2.2 5.2 1.8 6.6-1 .6-1.2 2.4-3.2 4-4.7 1.7-1.4 2.7-2.8 2.3-3.2-.3-.4-3.4.3-6.7 1.5s-6.5 1.9-7.1 1.5-1.8.3-2.9 1.4c-2 2-2 2-7.5-3.1a42 42 0 0 1-8.1-10.5q-2.8-5.4-5.2-6.4c-2.4-.9-2.5-1.2-1.9-6.1.8-6 2.7-8.7 8.1-11.8 6.3-3.7 12.1-4.8 23.4-4.5 9.5.3 10.6.5 12.8 2.8m50 .3c.7 1.8-1.7 3.8-3.1 2.4-1.1-1.1-.1-4 1.4-4q1 .1 1.7 1.6m-130.8 17.8c-1 7.3-1.5 8.6-3.1 8.6q-3.3-.2-.2-4.8c1.8-2.6 1.2-5.2-1.1-5.2-2.1 0-1.9-.9 1.1-5.4 3.8-5.5 4.8-3.6 3.3 6.8m6.5 4.2c.3 10.3.8 15 2.1 18.2 1.4 3.5 1.5 4.8.6 6.8-1.4 3.1-3.3 2.2-2.5-1.2.5-2 0-3.1-2.4-5.2l-3.1-2.7 2.2-15.3c1.1-8.3 2.2-15 2.4-14.8s.5 6.6.7 14.2m23.9-3.6c-.6.6-4.3-3.8-4.3-5.2 0-.5 1.1.4 2.4 1.9s2.2 3 1.9 3.3m-14.9 13.7c1.6 3.2 1.4 8.3-.4 8.3-1.3 0-4-6.6-4-9.8 0-1.6.3-5.1.7-7.8l.7-4.9.7 5.5c.3 3 1.3 7 2.3 8.7m-25-7.5q-3.6 11.5-4 2.5-.3-4.7 3.4-4.7 1.3 0 .6 2.2m125.6 1a28 28 0 0 1 1 18.3c-.9 2.4-1.4 2.6-3.8 1.9-1.5-.4-4-.9-5.7-1l-3.7-.3c-.5-.1-2.8-5.6-2.8-6.8q.2-.3 2 .2c2.5.8 3.8-1.8 2-4-1.8-2.1-.6-4.5 1.9-3.8 2.5.6 3-2.1.6-3.1-2.6-1-1.6-2.6 1.5-2.6 1.7 0 3-.5 3-1 0-2.1 2.1-.9 4 2.2M139.8 200c2.4 2.2 3.2 3.8 3.2 6.3 0 6.8-4.7 9.5-11 6.2-4-2.1-3.8-3.1.9-3.9 6.6-1 8-5.1 2.9-8.9-2.5-1.9-2.8-1.9-5.2-.3a8 8 0 0 0-3.2 4.2q-.6 2.6-2.8 2.2c-2.7-.4-2.7-2.7-.1-4.2 1.1-.6 3.1-1.9 4.4-2.9q5.2-3.8 10.9 1.3m70 1.6q-.4 2.8-2 3.2-3.2.4-.6-5.3c1.4-3.2 3.1-1.9 2.6 2.1m133.2 10q-.1 1.3-1.5 1.4c-1.5 0-2.1-2.1-.9-3.3 1-.9 2.4.2 2.4 1.9m9.5.4c1.1 1.8-.6 9.1-2.2 9.7-2.2.9-4.5-2.6-3.8-5.7 1.1-4.4 4.4-6.6 6-4M107 214.9q-.2 1-2.5 2.5c-2.4 1.6-2.5 1.5-2.5-.2 0-1 .3-2.2.7-2.5.9-1 4.3-.8 4.3.2m9 2.3c0 1.3-2.3.5-2.8-1q-.3-1.1 1.2-.6t1.6 1.6m247.5-.2c2.5 2.7.9 4.5-2.8 3.1-2.6-1-3.5-3-2-4.4q2-1.7 4.8 1.3m-20.6 6.6c2.5 3.6 2.9 4.9 2.1 6.5-1.8 3.2-4.7 2.3-6.9-2.2-1.5-3-1.8-4.7-1.1-6.5 1.3-3.4 2.4-3 5.9 2.2M239 220.9q0 1-1 1.6-.9.4-1-.9.1-1.5 1-1.6 1 0 1 .9M111.5 222q.4.9-.9 1-1.8 0-2.1-1t.9-1q1.8 0 2.1 1m20.5 1c0 1-1.4 3.5-3 5.4-2.5 2.8-4 3.5-8.3 4a69 69 0 0 1-21.2.6c-.4-.6 1.1-1 3.4-1q6.7-.1 4.1-3.5c-2.2-2.6.6-1.6 2.9 1.1 2.5 2.8 4.5 2.7 4.9-.3q.1-2.2 2.8-1.5 2.5.5 2.4-1.1c0-.9-.4-1.9-1-2.2-2.4-1.5-.8-2.6 2.8-2.1 2 .4 4.4.2 5.2-.4 2.5-1.6 5-1.2 5 1m228.3.6c.8.9-2.1 6.4-3.4 6.4-.5 0-2.1-.7-3.5-1.6-2.3-1.6-2.4-1.8-.8-3.5 1.6-1.8 6.4-2.6 7.7-1.3m10.3 1.5c1 1.7-2.3 4.6-3.7 3.2-.7-.7-.9-1.9-.6-2.7.7-1.8 3.3-2.1 4.3-.5m-128.9 2.5c-.9.9-2.8-.6-2.1-1.8q.6-1 1.7.1 1 1 .4 1.7m138.3-1q0 1.3-1 .9-.9-.6-1-1.6.1-.8 1-.9 1 .1 1 1.6m-286.2 5.1c-.3 1.6-1.8 1.8-10.8 2.1-10.1.3-15.8-.3-14.7-1.4.9-1 10.7-2.1 18.5-2.3 6.5-.1 7.3.1 7 1.6M248 231q0 .9-.4 1-.6-.1-1.1-1-.4-1 .4-1 1 0 1.1 1m42.8 5.4c.4 4.3-1.2 6.8-4.1 6.4-3.1-.4-3.2-2.7-.3-3.8 2.2-.8 2.5-1.3 1.9-4.1-.5-2.5-.3-3.1.8-2.7.8.3 1.5 2.1 1.7 4.2m62.1-2.5c1 .7.6 2.3-2.1 7.9l-3.4 7.1.1-6.7c0-8.7 1.4-10.8 5.4-8.3m-15.7 3.8c1.9 3.1 1.9 3.2-.9 8.4-2 3.9-2.9 7.3-3.3 12.9s-.9 7.5-2 7.5q-1.4-.2-1.8-2c-.1-1.1-1.5-4.6-3-7.8l-2.7-5.9 2.3-3.6c1.3-2.1 3.3-5.9 4.5-8.5 2.4-5.5 4.2-5.7 6.9-1m25.8-2.3a3 3 0 0 1-.9 2.1c-1.2.7-2.4-1.2-1.6-2.5.9-1.5 2.5-1.2 2.5.4m-160.6.4c.3.5-.8 2.2-2.4 3.7l-3 2.9v-2.5c0-3.7 3.8-6.6 5.4-4.1m60.4.9q.2 1.3-1.7 1.3c-2.1 0-3.5-1.3-2.4-2.4 1-1 3.6-.3 4.1 1.1m10.2.8q-1.2 1.4-1.8 1-.4-.5.8-2 1.2-1.4 1.8-1 .4.5-.8 2m-141.6-.5c-1.4 1.4-8.2 2.6-6.9 1.2.9-.9 2.8-1.5 7-2.1q.8 0-.1.9m151.6 1.4c0 .7-.7 1.9-1.5 2.6-1.2 1-1.8 1-3 0-.8-.7-1.5-1.8-1.5-2.4q0-1 .9.2c.6 1 1 1 2.1-.3 1.6-1.9 3-2 3-.1m-172 .7 6.5.2-5.6.7c-6.1.8-8.2 1.6-7.4 3 1.1 1.7 22.3-.2 27.8-2.5 2.4-1 2.2-.1-1.7 9.4-4.8 11.8-6.6 13.9-11.8 14.3-2.4.2-4.2.7-4 1.3.2.5 1.9.9 3.7.8s3.5.2 3.5.7c0 .6-1.1 1-2.4 1-1.4 0-2.8.4-3.1 1q-.4.9.9 1c2.8 0 2.7 2-.9 9.5-2.8 6-4.2 7.9-7 9.2s-3.9 1.4-5.7.4L98 286l-3.5-1.9 3.3-.1q3.2 0 3.2-1.5c0-1.5-1-1.5-2.9-1.5-4.4 0-4.7-1.8-.4-2.2 2-.2 3.8-.9 4.1-1.6q.5-1.3-2.9-1.1c-5.7.4-9.9-.1-9.9-1.1 0-.6 1.8-1 3.9-1 4.2 0 6.4-1.6 3.7-2.6-.9-.3-3.7-.7-6.3-.8-7-.2-7-2.6.1-2.6 4.3 0 5.6-.3 5.6-1.5q0-1.5-3.2-1.5c-5 0-10.8-1.2-10.8-2.1 0-.5 2.4-.9 5.4-.9 4.9 0 7.7-1.2 6.3-2.7-.4-.3-4-.8-8.2-1.2-8.6-.7-10.2-2.6-2.1-2.6 5.6 0 8-1 5.7-2.4a34 34 0 0 0-8.4-1.5c-11.7-1.1-10.5-2.6 2-2.6 8 0 11.4-.4 12.2-1.3q2.4-2.7-3.8-2.8-3.8-.2-1.1-.6c6-.9 7-1.4 7-3.2 0-2.1 2.3-3.1 5.5-2.5 1.1.2 4.9.4 8.5.5m261 .4q0 1.4-1 1.5-.9-.1-1-1.5c-.1-1.4.5-1.5 1-1.5q1 .2 1 1.5m-281.2.2c-1.6.2-4 .2-5.5 0-1.6-.2-.3-.4 2.7-.4s4.3.2 2.8.4M209 241q0 .9-1 1a1 1 0 0 1-1-1q.1-1 1-1t1 1m12.6 2.1c5.6 2.6 7.1 4.4 5.4 6.4-1.9 2.2-5 1.8-7.2-1-1.1-1.4-2.5-2.5-3.2-2.5-2.1 0-4.9-2.6-4.2-3.8 1.1-1.8 4.5-1.4 9.2.9m162.7-.7q.8 2.4-1.5 2.6-.7-.2-.8-2c0-2.3 1.5-2.7 2.3-.6m-303.5 2.3c-1 .2-2.8.2-4 0q-1.8-.3 1.7-.4t2.3.4m276.2.7q0 1.4-.9 2c-1 .7-2.3-1.9-1.4-2.8 1.1-1.1 2.3-.6 2.3.8M202.5 247q-.6.9-1.6 1-.8-.1-.9-1 .1-1 1.6-1 1.3 0 .9 1m194.4.1c1.7.6 3.1 1.7 3.1 2.5 0 1.6-2.6 1.9-3.5.4q-.6-1-2.5-1-1.6-.1-2.4-1.5c-.6-1.8.9-1.9 5.3-.4m-55.9 5.4c-1.5 5.3-3 6.8-3 3 0-2.7 3-8.9 3.8-8 .3.2-.1 2.5-.8 5m7-2.1q0 .6-1 1.1-.9.4-1-.4.1-1 1-1.1 1 0 1 .4m59.5.8c1.4.6 2.5 1.5 2.5 2q.2.7 2.3.8c1.3 0 3.3 1.4 5 3.6 2.9 3.5 2.9 3.5 1.3 8.2-1.5 4.5-1.5 4.8.4 6.4 2.3 1.9 2.4 2.8.9 8-.9 3.5-3.9 5.5-3.9 2.7q0-1.2-1.2-.1c-1.6 1.2-5.2 1.2-13.5 0-5.5-.9-6.3-1.3-6.3-3.2 0-2.9 3.2-11.6 4.3-11.6q.6 0 .2 1t.9 1c1.3.1 1.7-.4 2.1-.9q.6-1 3.8.1c4.5 1.5 5.8 2.8 5.2 4.9l-1.1 4.1q-1 2.9.9.9 1.5-1.2 1.1-2.2c-.5-.8.6-5 2.7-10.6 1.1-2.9-.8-4.1-2.5-1.7-1.8 2.3-3.9.9-3.2-2.2.4-1.3.2-2.4-.3-2.4s-1.1.9-1.4 2.1c-1 3.6-3.2 1.6-2.9-2.6q.3-3.7-1.3-5.5c-1.6-1.8-1.3-4 .5-4 .5 0 2.1.5 3.5 1.2m-211.8 3.5c-1.6 1.6-1.7 1.6-1.7-.3 0-2.6 1.1-3.7 2.4-2.4q1 1-.7 2.7m44.7 1.4c2.5 2.2 4.6 4.4 4.6 4.9 0 1.5-4.1 1.9-4.7.4q-.5-1.4-2.9-.8-2.6.8-2.4-.9-.2-1.5-2-2.2c-2.1-.7-2.4-1.4-1.4-3.9q1.5-4 8.8 2.5m127 1c2.2-1.9 4.2 1.4 2.8 4.4-1.5 3.2-3.2 3.2-3.2 0q.1-2.7-1.7-1.8-1.8.8-1-1.1c.4-1 .8-3 .9-4.4q.1-3.4.5.6c.3 2.6.7 3.1 1.7 2.3m-14.2-.9c-1.5 1.5-2.6.4-1.8-1.8q.6-2 1.8-.6c1.2 1.4.9 1.5 0 2.4m39-1.7q-.1.9-1.1 1.3-1 .2-1.1-1.3c-.1-1.5.5-1.5 1.1-1.3q1 .4 1.1 1.3M213 256.1q0 .8-1 .9-.9-.1-1-1.6.1-1.3 1-.9 1 .6 1 1.6m12.8 1.6c-.2 2-.8 3.8-1.4 4-.9.3-1.2-4.5-.5-7.5l1.2-.2c.6 0 .9 1.6.7 3.7m97 1.8c1.5 4.7 1.2 10.1-.5 9.7q-1.2-.1-1.3 2.9 0 3.1-1.2 2.5l-3-1.2c-4.9-1.7-1.9-19 3.2-18.1.8.1 2.1 2 2.8 4.2m74.8-2.1c.3 2.2-.5 4.6-1.6 4.6-.9 0-2-5.2-1.3-6.3.8-1.3 2.6-.2 2.9 1.7m-168 .8c-.3 1.3-.6 2.9-.6 3.5q0 1.2-1 1.3c-.5 0-1-1.6-1-3.5 0-2.6.4-3.5 1.6-3.5q1.8-.1 1 2.2m150.6 1.8c-.6 1.1-1.2 3.3-1.2 4.9 0 3.5-.9 6.1-2.1 6.1-1.4 0-1-5.2.6-8.4.8-1.5 1.5-3.8 1.5-4.9q0-2.4 1.2-.9c1 1 1 1.7 0 3.2m-170.6 2.7c7.6 8.5 13.3 22 10.5 24.8-.5.6-1.1 2.3-1.3 4q-.4 2.9-1.8 3c-2.1 0-2.4-3.2-.6-6s2.1-6.5.5-6.5q-1-.1-.5-2.5.5-2.3-.3-2.5c-.8-.2-1.3 1.5-1.6 3.2s-1 3.7-1.4 4.3a22 22 0 0 0-2.7 11.2q.8 2.1-1.5 2.6c-3 .8-1.5 2.5 1.7 1.9 1.5-.3 2.9-1.3 3.2-2.4.2-1 1-1.7 1.6-1.5 1.7.6 1.9 3.7.3 5.5-.7.9-1.4 3.5-1.4 5.6q-.1 4 .8 2.5a7 7 0 0 0 .9-3.1c0-1.8 1.8-3.4 2.7-2.4q.5.6-.3 2.3c-.8 1.8-1.1 2.9-1.3 5 0 .6-1.1 1.3-2.3 1.5-1.3.2-2.9 1.5-3.6 3-1.4 3-2.8 3.6-3.4 1.6-.5-1.5-2.8-.1-2.8 1.8q.1 1.3 1.4 1.4 3.3.1 1.5 4.4-2.2 4.5-3.6.8a8 8 0 0 0-1.9-2.7 9 9 0 0 1-1.7-3.8c-.4-2.5 0-3 4.2-5.2 3.7-1.8 5-3.1 5.8-5.9.6-2 .9-3.6.6-3.6s-3.2 1.4-6.5 3l-6 3.1.7-3.3c.8-4 3.2-12 5-16.8a54 54 0 0 0 2-7.7q.6-4.3 3.7-6.8c2.6-2.2 2.9-2.9 2-4.8-.6-1.2-1.2-2.9-1.5-3.7q-.4-1.2-2.1 2.5c-1.5 3.5-1.8 3.8-2.8 2.2-.5-1-.8-2.7-.5-3.8.4-1.6.2-1.9-1.5-1.3-2.2.7-2.2 0-.2-6.5q.9-2.6-.7-1.9c-.8.3-1.8 1.8-2.3 3.4l-1.6 4.9c-.5 1.1-1.4 4.2-2.1 7s-2.3 7.3-3.5 10.1c-2.3 5.3-4.1 12.4-3 12.4.9 0 3.6-5.8 3.6-7.8 0-1.1.6-2.5 1.4-3.1s1.9-3.8 2.7-7c1.3-6.1 3.4-10 4.6-8.8.4.4.2 2.2-.5 4s-1.2 4.8-1.3 6.7-.9 4.3-1.7 5.3-1.8 3.4-2.1 5.5c-.5 3-1.3 4.1-4.4 5.7-2.8 1.5-4.2 3.3-5.9 7.2-1.2 2.9-2.8 5.3-3.6 5.3q-1.5 0-.9-2.1.7-2.2-.9-1.5c-2.5.9-1.5-1.9 1.6-4.6 1.7-1.4 3-3.2 3-3.9q0-1.3-1.7.3c-1 .9-2.7 1.8-3.8 2q-2 .3-2.3 3.3c-.6 5.4-8.3 11.1-9.8 7.2-.6-1.7 2.3-8.7 3.7-8.7q1 .1.4 2.1-.7 2.2.6 1.7c.6-.2 2.2-3.7 3.4-7.7 1.7-6 2.7-7.6 5-8.9 1.6-.8 3.7-2.4 4.8-3.6l1.8-2.1-.5 2.5c-.2 1.4-.8 3.5-1.1 4.7q-.6 2.1.2 2.3c1.4 0 3.2-4.3 3.9-9.3a48 48 0 0 1 3-9.4c1.2-2.8 2-5.4 1.7-5.7s.5-3 1.8-6.1c2.2-5.4 2.5-5.6 5.4-5.1 1.8.4 4.6 2.4 7.1 5.3m133.6.8c-.9 4.3-2 5.1-4.5 3.2-2.2-1.5-1.3-4.9 1.2-4.5q1.5.1 2.6-2c1.3-3 1.7-1.4.7 3.3m31.7-3.1q1.3 1.4.1 2.1c-.5.3-1 1.5-1 2.5 0 1.9-1.7 3.6-2.6 2.7-.7-.7.8-8.7 1.6-8.7q.8.1 1.9 1.4m28.1 1.2q-.1 1.3-1.5 1.4c-1.4.1-1.5-.9-1.5-2q0-2 1.5-1.4 1.4.7 1.5 2m20 5q-.1 1.3-1.5 1.4c-1.5 0-2.1-2.1-.9-3.3 1-.9 2.4.2 2.4 1.9m-34.9 1c1.2 3.2.3 6.4-1.8 6.4-1.5 0-1.5-1.2.2-5.3q.6-1.6-.3-1.7c-.9-.1-1.3.9-1.7 1.9a7 7 0 0 1-2 3.1c-2.3 1.9-3.1-1.5-1.1-4.5 2.2-3.3 5.4-3.2 6.7.1M313 267q0 .9-1 1a1 1 0 0 1-1-1q.1-1 1-1t1 1m42 .5q0 1.4-1 1.5-.9-.1-1-1.5c-.1-1.4.5-1.5 1-1.5q1 .1 1 1.5m-118 .5q0 .9-.4 1-.6-.1-1.1-1-.4-1 .4-1 1 0 1.1 1m25.8.2q-.5 1.1-1.6 1.6-1.1.3-.6-1.2c.7-1.8 2.8-2.2 2.2-.4m100.2 1.3c0 1.4-.4 2.5-1 2.5s-1-1.1-1-2.5.5-2.5 1-2.5 1 1.1 1 2.5m32.5-1.5c.4.6.1 2.7-.6 4.8s-1.3 4.5-1.4 5.4q-.2 3.7-3.1 2.4c-1.3-.5-1.5-1.4-.9-4.3 1.3-6.8 4.3-11 6-8.3m-122.4 2.5c3.4 1.8 3 3.5-1 3.5-2.9 0-5.1-1.6-5.1-3.7 0-1.7 2.4-1.6 6.1.2m63.3-.9c4 1.5-.8 4.9-5.5 3.9-3.5-.8-3.4-2.6.2-3.6 3.4-1 3.5-1 5.3-.3m-29.5 1.3c1.2.8 1.3 1.2.1 2.5-1.2 1.5-1.4 1.5-3.1 0q-1.8-1.7-1.9-2.6c0-1.1 3.1-1 4.9.1m-23.7 4.3c-1.5 1.5-2.6.4-1.8-1.8q.6-2 1.8-.6c1.2 1.4.9 1.5 0 2.4m83.2 1a50 50 0 0 1-1.5 7.2c-1.2 3.8-.1 7.9 1.9 7.1 1.2-.4 1.3.1.8 2.7s-.1 3.9 2.2 6.7c2.9 3.7 4.5 7.8 3.4 8.5-.4.2-1.7 0-2.9-.5q-2.4-.9-2.3-3.4c0-1.4-.4-3.3-.9-4.3a33 33 0 0 1-3.8-19.2l1.4-6.3c.9-4.4 2.4-3.1 1.7 1.5M241 274.7c0 1 1 4.7 2.1 8.3 2.7 8.3 4.1 21 2.6 22.9q-1.3 1.3.6 2.6c1 .7 2 3.2 2.3 6.1.4 2.7 1.1 5.7 1.6 6.6 1.5 3.1-.6 2-3.6-1.8-1.6-2-4.3-4.2-6.1-5l-3.2-1.3-.8-11.3c-.5-6.2-.9-14-.9-17.3-.1-3.3-.7-7-1.3-8.2-1.9-3.1-1.7-3.3 2.7-3.3 3.1 0 4 .4 4 1.7m58 .3a8 8 0 0 1 2 5.1c0 4.4 1.5 6.6 6 8.9l4 2 .1 13.8c.2 18.3 0 20.4-2.1 22.7a27 27 0 0 0-3.9 6.6c-2.8 6.3-4 7.2-8 5.8-1.8-.6-5.2-.9-7.6-.6-2.5.4-4.7.2-5-.3-1.2-1.9 1.8-8.5 6.1-13.9 5.5-6.6 6-8.8 4-14.8-2.2-6.5-2.1-7.1 2.1-10.9 2.8-2.6 3.4-3.7 2.6-4.5-.9-.9-2.8-.6-7.5 1.1-3.5 1.3-7 2.9-7.9 3.7-.8.7-2 1.3-2.5 1.3-1.1 0-7.2-7.2-7.6-9-.2-.6 1.8-1.9 4.4-3 7.6-2.9 16.8-10.6 16.8-14.1q.1-3.7 4 .1m52.8.8q.3 2.1-1.2 2.2c-1.9 0-2.9-1.7-2.2-3.6.8-2.2 3-1.2 3.4 1.4m-62.7 2.5c-1.7 1.7-2.4.1-1-2.5 1.2-2.1 1.4-2.1 1.7-.4.2 1-.1 2.3-.7 2.9m136.2-.4c-.1 3.3-1.8 6.1-3.6 6.1-.9 0-.2-7.3.9-9.2s2.9 0 2.7 3.1m-96.3-1.4c1.5 1.8.7 5.3-2.1 8.8-2.2 2.9-4.8 3.4-6.7 1.5-.9-.9-.5-1.7 1.4-3.5q2.6-2.3 1.9-4.3c-.3-1.1-.3-2.4 0-3 .9-1.5 4.1-1.2 5.5.5m11.3-.9c.3.3.3 1.3 0 2.1q-.5 1.8-1.4.1c-1.5-2.3-.4-4 1.4-2.2m20.3 4.1c-1.1 1.1-1.7-.4-.9-2.3q.9-2.7 1.1-.1c.2 1 .1 2.1-.2 2.4m-155.8.8c-1.1 2.5-2.8 3.4-2.8 1.4 0-.6.5-1.9 1.1-3 1.5-2.8 3.1-1.3 1.7 1.6m227.6-.4c2.1 2.4 2.4 3.4 1.5 4.5-1.3 1.6-2.9.9-2.9-1.4q.2-2.1-1.3.3c-2.2 2.9-3.6 1.1-2.3-3 .6-1.9 1.4-3.5 1.8-3.5a13 13 0 0 1 3.2 3.1m-98 16.4c-1.3 16.3-3.2 25.7-3.3 16.6-.1-5.5 1.9-32 2.6-34.1.4-1.3.5-1.3 1.2 0 .5.8.2 8.7-.5 17.5m41.6-18.1q0 .6-1 1.1-.9.4-1-.4.1-1 1-1.1 1 0 1 .4m-7.3 5.8q-.5 1.1-.6-.6t.5-1.3q.5.6.1 1.9m-53.7.6c2.2 1.7 2.3 2.8 2.6 14.3.3 16.5-.6 33.1-1.9 32.6-.6-.2-.9-7.7-.8-20.9.2-19.7.1-20.8-1.8-22.7-2.1-2.1-2.8-5.1-1.2-5.1a8 8 0 0 1 3.1 1.8m64.5 4c-.8 2.6-1.5 5.7-1.5 6.9q0 2.1-.9 2.3c-1.5 0-1.1-10.3.5-12.8 2.4-3.6 3.4-1.6 1.9 3.6m4.9-2.2c.5 2.2.3 4.1-.4 4.9s-1 2-.7 2.7c.6 1.7-1 4.8-2.5 4.8q-1-.1-.3-2.3c.7-2.4 1.6-7.9 1.8-11.5.3-3.4 1.4-2.6 2.1 1.4m-9.9-.4a21 21 0 0 0-.6 5.1q.1 2.8-1.1 2.5c-2.8-.9-2-9.8.8-9.8q1.8-.1.9 2.2m15.7 5.8c-.2 3.6-1 7.5-1.8 8.7a9 9 0 0 0-1.4 4.3c0 1.2-.7 5-1.6 8.5-3.3 13.1-5 4.7-1.9-9l2-10c1.3-8.6 1.6-9.6 3.3-9.3 1.4.3 1.6 1.4 1.4 6.8m-44.2-4.6c0 .8-.4 1.8-1 2.1q-.9.3-1-1.4.1-2 1-2.1 1 .1 1 1.4m52.9-.5c2.1.6 2.2.8.8 1.9-1.3 1.1-1.7 1-2.5-.4-.7-1.3-1.1-.9-1.7 2.2q-1.2 6.2-3.6 6.4c-1.4 0-1.1-3.8.6-6.9.8-1.6 1.1-3.1.8-3.5-.8-.8 2.4-.6 5.6.3M202 288q-.1.9-1.1 1-.8-.1-.4-1 .6-1 1.1-1 .3 0 .4 1m212.9 0c2.8 0 3.2.3 2.6 1.7-.4 1-.7 2.6-.7 3.5q0 1.7-.9 2.3c-.5.4-.9 1.6-.8 2.8v2.2l1.6-2.3q3.8-5.2 2.8 2c-.7 4.5-2.9 7.8-5 7.8-.7 0-1.8 1.3-2.5 3-1.3 3.1-2 3.5-8.8 4.5-4 .7-4.7.4-7.7-2.5q-3.6-3.4-2.6-4.9c.5-.9.6-2.1.4-2.8s.3-2.3 1.2-3.6 1.3-3.1 1-3.9c-.4-.9.2-2.4 1.2-3.3 1.7-1.7 1.8-1.7 2.1-.1a4 4 0 0 1-.7 3c-.6.8-.8 2.1-.5 3 .4 1-.1 2.5-1 3.5-1.3 1.4-1.5 2.6-.8 5.7l.9 3.9 1.1-4c.6-2.2 1.4-5.9 1.8-8.3.4-2.3 1.1-4.5 1.5-4.8.5-.3.9-2 .9-3.8 0-4.4 1.7-5.9 6-5.2 1.9.3 5 .6 6.9.6m23.3 2.2c-1.5 1.5-2.6.4-1.8-1.8q.6-2 1.8-.6c1.2 1.4.9 1.5 0 2.4m-180.2-.7c.7.8 2.9 1.5 4.9 1.5 5.6 0 6.1.8 4.4 6-2.2 6.6-3.4 7.6-7.3 6-2.7-1.1-3.4-1.1-4.7.3s-1.2 1.7 2.7 3.7 4.2 2.4 3.6 5.3q-.5 3.2.9 6.1 2.7 5-1.3 2.7c-2.2-1.2-3.5-5.1-2.6-7.6q.6-1.7-2.4-4.8-6.3-6.5-1.9-8.2c2.3-1.1 2.4-1.5 1.3-8.3q-.9-6.5 2.4-2.7m163.8.7c-.6 1.8-2.8 2.1-2.8.4q.1-1.5 1.6-1.6 1.4 0 1.2 1.2m-200.1 3q-.5 1-.5-1.2c0-2.2.2-1.9.5-1.3.2.7.2 1.9 0 2.5m105.9-1c-.3 1.3-.9 11.3-1.2 22.3-.7 18.6-1.1 21.4-3.5 21.5-.9 0-1-1.7-1.1-23.9-.1-17.8 0-19.5 1.7-20.7 2.9-2.2 4.8-1.8 4.1.8m-236 2.7c-1.4 1.5-2.6 3.7-2.6 5 0 2.8-2.4 2.3-2.8-.6-.4-2.4 5.2-8.8 6.9-7.8q1 .8-1.5 3.4M175 293q-.1.9-1.1 1-.8-.1-.4-1 .6-1 1.1-1 .3 0 .4 1m174-.6q0 .5-1 1.1-.9.4-1-.4.1-1 1-1.1 1 0 1 .4m88.4 2.7q-.6.8-1.5.3t-.3-1.5q.6-.8 1.5-.3t.3 1.5m3.4 3q.1 4-1.1 3.6-1.1-.4-1.1-1.5l.3-3.7c.2-4.1 1.9-2.8 1.9 1.6M112 297c1.1 2.1.4 6.6-1.2 7.6q-.7.3-.3-1.8.5-3-.4-5.1c-1.2-3.2.3-3.7 1.9-.7m318 3.6c0 6.7-2.7 11.5-6 10.7q-2-.5-2 1c0 2.1-1.9 3.2-3.2 1.9-1.5-1.5.7-5 3.4-5.4q2.1-.3 2.9-3.2l.8-2.8-2.4 2.2c-3.3 3.1-4 2.1-2.5-3.9 1.3-5.3 3.6-6.8 4.3-2.9.3 2.2.4 2.2 1.5-.5q3-6.4 3.2 2.9M169.5 297q.4.9-.4 1-1-.1-1.1-1 0-1 .4-1 .6 0 1.1 1m52.5 1q-.1 1.8-1.5 2c-1.4.2-1.5-.9-1.5-2s.7-2 1.5-2 1.5.9 1.5 2m9.6-.5c1.1 2.7-.2 3.7-1.4 1.1q-1.1-2.5-.1-2.6.9.1 1.5 1.5m-132.3 4c1.4 4.6 1.4 4.6-.6 3.2q-4.4-3-3.4-6.1 1.6-4.2 4 2.9m260.7 2.3c0 1.3 1 3.7 2.1 5.4 2.2 3.1 1.8 4.4-1.5 5-1.6.2-2-.4-2.2-3.2l-.5-5v-4.5q0-3.4 1.1-1.5c.5.8 1 2.6 1 3.8m89.7.6c-1.1 2.7-2.7 1.7-2.7-1.6 0-3 .1-3.1 1.6-1.6.9.9 1.4 2.4 1.1 3.2m-172 1.2c3.1 3.4 4.3 5.4 4.3 7.7 0 2.9 0 3-2 1.2-1.1-1-2-2.5-2.1-3.4q0-1.6-.6-.4c-.7 1.9-2.3 1.6-2.4-.5q0-2.4-.6 0-.5 1.7-1.7 1.8-1.7.3-3.1 2-1.8 1.9-2.7 1.2c-1.3-1.3 1.3-6.4 2.9-5.8q1.5 1 .7-2.9-1.8-10.3 7.3-.9m-88.3 9c-.9 2.4-2.1 4.4-2.5 4.4-1.1 0 0-8.8 1.4-11.5.6-1.1 1.2-2.5 1.3-3q.6-4.4 1.1 1.3c.3 2.5-.3 6.1-1.3 8.8m34.6-11.4c0 .7.3 2.3.6 3.5q.8 2.4-.9 2.3c-.8 0-1.8.8-2.1 1.7q-.7 1.8-1.8.5c-.9-.9-.7-1.6.5-3 .9-1 1.7-2.8 1.7-4q.1-2 1-2.2 1 .2 1 1.2m64.5.8c-.4 1.1.1 4.3 1 7.1 1.4 4.1 1.5 5.5.5 8-1.7 4-2.9 3.6-2.7-.9q.4-13-1.8-13.2c-2.1 0-1.9-1.8.3-2.3 3.1-.8 3.3-.7 2.7 1.3m103.5 1.4c0 3.5-1.5 5.5-2.9 4-1-1.1.6-7.4 1.9-7.4.6 0 1 1.5 1 3.4m41.2-1.2q-1.1 1-1.2.2c0-1.4 1.2-2.6 1.9-1.9q.3.6-.7 1.7m-87 1.3q-.1.9-1.1 1.3-1 .2-1.1-1.3c-.1-1.5.5-1.5 1.1-1.3q1 .4 1.1 1.3m92.4 1.7-1.2 6c-.6 3.8-2.9 6.7-4.1 5.4-.4-.3-.1-2.1.5-3.9.7-1.9 1.2-4.2 1.2-5.3 0-2.1 1.7-4.4 3.3-4.4q.8.2.3 2.2m-276.3-.6c.3.3.2 1.4-.3 2.3s-1.1 2.4-1.4 3.3c-1 3.3-2.8 2-2.1-1.5q1.4-6.8 3.8-4.1m4.3 1c-.3.9-.6 2-.6 2.5s-.4.9-1 .9c-1.1 0-1.4-3.3-.3-4.3 1.2-1.3 2.5-.7 1.9.9m65.7 10.4c.5 8.1.3 9.5-1.6 12.8-5.3 9.2-8.5 5.1-4.8-6.2 2.5-7.6 2.6-8.8.6-6.2-2.4 3.2-2.8 1.1-.9-4.1q5.6-15.5 6.7 3.7m201.1-7.3a27 27 0 0 1-1.6 4.6 5 5 0 0 0-.3 3.6c.8 2.5-2.3 5.1-3.6 3-.5-.8-.7-2-.4-2.7q.2-1.1-1.5-1.2c-2.9 0-2.5-2.9.5-4q2.3-1 2.5-2.3c0-1.7 2-3.7 3.7-3.7q1.4 0 .7 2.7m-225.4-.3c0 1.6-1.8 3.1-2.7 2.2-.8-.8.5-3.6 1.7-3.6q.9.1 1 1.4m132.1 3.8c.6 2.4 2 6.3 3 8.8 1.7 4 1.9 6.2 1.5 18.7-.6 15.9-1.5 18.5-5.9 18.1l-2.8-.3-.3-10c-.2-5.8.1-10.6.7-11.3q1.1-1.3 0-3.1-1-1.6-.2-13.1c.9-13.5.7-12 1.9-12 .5 0 1.4 1.9 2.1 4.2M416 312q0 .9-1 1a1 1 0 0 1-1-1q.1-1 1-1t1 1m-213.2 1.2c-.6 1.8-2.8 2.1-2.8.4q.1-1.5 1.6-1.6 1.4 0 1.2 1.2m-86.5 3c2.6 3.4 1.5 4.9-1.6 2.1a24 24 0 0 0-5.7-3.7l-3.5-1.5 4.4.2c3.5.2 4.8.8 6.4 2.9M96.5 315c.4.6-.7 1-2.5 1s-2.9-.4-2.5-1 1.5-1 2.5-1 2.2.4 2.5 1m292.1 2.2c-.3 1.3-.6 2.9-.6 3.5q-.1 1.2-1.5 1.3c-1.8 0-1.9-.9-.5-4.4 1.2-3.2 3.5-3.5 2.6-.4m55.4 3c0 2.7-5.7 9.8-7.9 9.8-2.1 0-1.1-2.5 2.1-5.3q3.2-2.7 1.1-1.8c-3.8 1.9-3.8-1.8-.1-6.6 1.6-1.9 4.8.7 4.8 3.9m-228.6-3.3c.3.5-.1 2.3-1 4s-1.3 3.8-1.1 4.6c.3.7-.1 1.6-.9 1.9s-1.4 1.4-1.4 2.4c0 2.4-2.6 5.9-3.6 4.9-1.3-1.2 5-18.7 6.7-18.7q.7 0 1.3.9m185.1 3.1q3 0 4.3 2 1.2 1.9 2.3 1.4c.6-.3 2.2-.3 3.5 0q2.8.6 1.5 1.9c-1.3 1.6.9 8.6 3.1 9.8s.9 8.3-1.6 8.7c-1.7.4-1.8 0-1.2-3.9.7-4.2.6-4.3-.9-2.1-2.1 2.9-3.8 1.8-3-1.9q.6-2.8-.4-2.9c-.6 0-1.1 1.5-1.1 3.3s-.9 4.9-2 7q-2 3.7-1.4 6.2.8 2.7-1 2.5c-1.3 0-1.5-.9-.9-6.3.3-3.4 1-7 1.4-7.9 1.2-2.2 1.1-4.8 0-4.8-.5 0-1.1 1.5-1.5 3.2l-1 5.8a48 48 0 0 1-3.1 13c-.5.8-.9 2.4-1 3.5q-.1 1.8-1.7 2.3c-1.8.3-1.8-2.2 0-15.5.7-5.8.7-6.1-1-4.7-2.5 2.3-4.3.8-2.4-2.1.8-1.2 1.7-5.7 2-10.1l.6-7.9-1.6 5.5c-.8 3-1.9 5.9-2.4 6.4s-.6 2.2-.4 4q.8 5.4-3.2 6c-1 .2-2.1 1.1-2.2 2.2q-.5 2.3.9.6 3.5-3.5 2.3 3.4-.8 5 .5 4c.6-.4 1.1-1.7 1.1-3 0-2.3 3.2-6.1 4.2-5a56 56 0 0 1-3.7 15.2q-.7.5-1.9-1-2.4-3-2.6 1.5 0 1.8-1.2 1.4t-1-1.6c.4-1.8-2.3-1.3-5.2 1q-5 4.1-2.6-2.5 1.1-3.4 2.4-3c1 .4 1.7-1.3 2.5-6.2a46 46 0 0 1 2.8-9.8c1.4-2.7 1.7-2.8 2.3-1.2.8 2.4 2.6-3.2 4-12.2 1.2-8.2 2.2-9.5 5.8-7.6 1.5.8 4.1 1.4 5.7 1.4m-230.4-1q1.8 1.1 1.9 3.9c0 2.5-3.6 15-4.6 16-.2.3-1.1-.4-1.8-1.5-1.4-1.8-1.5-1.8-3.4 0-1.2 1-2.5 1.5-3 1.2-1.1-.7 1.8-13 3.5-14.7 1.8-1.8 2.9 1.6 1.4 4.7a13 13 0 0 0-1.1 3.9c0 2.5 2 1.7 3.1-1.3l2.1-4.8c1.1-2.3.2-6.4-1.6-7.6s1.2-1 3.5.2m72.7 2.9a14 14 0 0 1 3.2 6.2c0 1.2.5 3.9 1.1 6 .9 3 .9 4.2-.1 5.4q-3 3.6-3.2-4.8-.1-7.3-.5-1c-.2 2.4-.8 4.3-1.2 4.3-.9 0-2.1-4.9-2.1-8.7 0-1.4-.7-3.7-1.6-5.3-1.6-2.7-1.4-6 .4-6 .5 0 2.3 1.8 4 3.9m111.7-2.9c1.1 1.7-.5 3.2-2.1 1.9q-1.1-1-.8-2c.7-1.2 2.1-1.1 2.9.1M222 320.4a3 3 0 0 1-.9 2.1c-1.2.7-2.4-1.2-1.6-2.5.9-1.5 2.5-1.2 2.5.4m55.3.1q.5 1.4-.3 2-1 .4-1-1.4.1-3.7 1.3-.6m86.7 0q-.2 1.4-2 1.5c-2 0-2.6-1.1-1.3-2.3 1.2-1.3 3.3-.7 3.3.8m-82.2.6q-.4 1-1.3 1-1.2 0-1.3-1t1.3-1.1c1.5-.1 1.5.5 1.3 1.1m95 .6c.9 1 2.8 2.5 4.1 3.4l2.4 1.5-2.6 4.5a21 21 0 0 0-2.7 6.1c0 .8-.9 2.7-2.1 4.2q-2.2 2.7-1.5 5.2c.5 1.9 0 3.3-1.9 5.5a13 13 0 0 0-2.5 3.9c0 .4-1.6 2-3.5 3.4l-3.5 2.7-1.1-2.5c-.9-2-.8-4.4.6-11.3 1.5-8 2.1-9.3 6.6-14.4 4.2-4.8 4.9-6.3 4.9-9.8 0-4.6.3-4.8 2.8-2.4m-215.8-.2c0 .4-.8 2-1.7 3.8q-1.8 3.5-2.1 1.5c-.4-2 1.4-5.8 2.8-5.8q1 0 1 .5m-61.2 2q-.5.8-2.3.8c-9-.9-11.5-2.6-3.2-2.1 3.2.2 5.6.7 5.5 1.3m12.6 12.3c.4.7 1.6 5.9 2.6 11.6 2 10.9 7.1 23.5 13 32 1.7 2.6 2.8 5.1 2.5 5.6-1 1.7-3.2 1.1-3.8-1-.7-2.5-3.8-2.6-6.8-.1-2.2 1.8-2.3 2-.6 2.7q2.1.7.6 1.5c-1.8 1.1-3.9-.9-3.9-3.6q0-2.2 2-2.8c2.9-.7 2.5-2.5-.7-2.9-2-.2-2.9-1-3.5-3.3-1.6-6.1-4-23.4-4.7-35.3a56 56 0 0 0-1.9-13.4q-1.3-1.2.6-3.1c1.6-1.8 1.7-1.7 2.7 4.5.6 3.5 1.4 6.9 1.9 7.6m36.8-10.6q-1.2 1.2-.5-1.3.6-2 1.1-1c.2.7-.1 1.8-.6 2.3m29.8-1.8a3 3 0 0 1-.9 2.1c-.5.3-.9 1.9-.9 3.6.1 1.6-.4 3.5-1 4.1-.7.7-1.2 2-1.2 3s-.7 1.8-1.5 1.8c-2 0-2-5 0-7.6.8-1 1.5-2.8 1.5-4 0-2 1.7-4.4 3.2-4.4q.7.1.8 1.4m90 .1c2.5 1.3 4.2 4.5 2.4 4.5-1.4 0-4.5-2.2-5.4-4-1.3-2.4-.8-2.5 3-.5m100 0q0 1.4-1 1.5-.9-.1-1-1.5c-.1-1.4.5-1.5 1-1.5q1 .2 1 1.5m-247.5 1.2c.3 1 2.1 3.5 4.1 5.6 3.2 3.4 3.6 3.6 5.1 2.2s1.7-1.4 3.2 0q3.7 3.1 2.8-.5-.4-1.9.3-2.5c1.4-.9 3 2.1 3.6 6.7.7 4.9-.8 7.2-2.5 3.9q-1-2-4.3-1.8c-3 .2-3.3.5-3.3 3.2q.1 3-1.9 3.3c-1.5.3-1.8 0-1.3-1.9.4-1.6-.3-3.3-2.3-6-1.7-2-3-4.2-3-4.8q0-1-1-1.1c-1 0-3-6-2.3-7.3s2.1-.8 2.8 1m63.2-.1c.3.8.1 2-.6 2.7-.6.6-1.1 2.1-1.1 3.3 0 2.5-2.5 5-3.4 3.5-.8-1.3 2.3-11.1 3.5-11.1q1 .1 1.6 1.6m72 9.9c.4 11.2-.2 13.5-3.8 13.5q-1.9 0-1.9-2c0-1.7-.4-1.9-2.6-1.4q-2.8.8-2-.5.8-1 2-1.1c2.5 0 4.6-4.7 4.6-10.5 0-5.3 1.5-10.3 2.7-9.1.3.3.7 5.3 1 11.1m-65.2-9.5q.4.9-.9 1-1.5-.1-1.6-1 0-1 .9-1t1.6 1m93.5 1q-.1.9-1.6 1-1.3-.1-.9-1 .6-1 1.6-1 .8 0 .9 1m-5.9 3.3c-.1 1.2-1.5.9-1.9-.4q-.4-1 .8-.8 1 .5 1.1 1.2m85.4-.3q.4.9-.9 1-1.5-.1-1.6-1 0-1 .9-1t1.6 1m-167.7 3q.8 3-1.2.7c-1.9-1.9-2.1-4-.3-3.5.6.3 1.4 1.5 1.5 2.8m-40.3 2.9c-1.7 3.5-4 3.3-2.9-.2 1-3.3 2.6-4.9 3.6-3.9q.9 1-.7 4.1M115 332q-.1.9-1.1 1-.8-.1-.4-1t1.1-1q.3 0 .4 1m74.4 2.1c-.8 1.4-3.4 1.1-3.4-.4q0-1.4.7-2c.9-.9 3.4 1.3 2.7 2.4m29-1.5q.9 2-.9.4-2.5-2-.6-2 .9.1 1.5 1.6m51.5-.7c2.5 1.6 3.9 6.3 2.9 9.8-.5 2-.5 4 .1 5.1s.7 2.9.4 4.1 0 6.4.6 11.4c1.9 14.2 1.9 14.4 1.1 15.7-.4.6-1.8 1-3.1.8-2.2-.3-2.5-.9-3.6-10.3l-2.8-21.5c-2-15.4-2-16 .8-16a8 8 0 0 1 3.6.9m80.5 10.8c-.8 12.6-2 13.9-1.7 2 .2-12.2.2-11.7 1.3-11.7q1.1 0 .4 9.7m-115.9-6c1.2 4.3.5 9.5-1.7 13.1-1.6 2.6-2.4 3.1-4.2 2.6-2.9-.9-3.1-1.3-1.8-2.6.7-.7 1.2-2 1.2-3 0-2.5 4-12.8 5-12.8.4 0 1.1 1.2 1.5 2.7m79.1-.9c2.9 2.4 4.4 5.5 3.5 7q-.7 1.3-2-1.4-1.2-2.9-2.3-1.6c-1.9 1.9-2.4 1.4-2.5-2.3-.1-4 .3-4.2 3.3-1.7m117.1.8c-.9.9-2.8-.6-2.1-1.8q.6-1 1.7.1 1 1 .4 1.7m-70.5.7c-.8 1-1.8 3.7-2.1 6q-.5 4.3-2.5 4.5c-1.7.4-1.8-.1-1.1-5.5.4-3.2.8-6 1-6.3s1.7-.5 3.3-.5c2.9 0 3 .1 1.4 1.8m-148.5.9q-.5 1.1-.6-.6t.5-1.3q.5.6.1 1.9m7 0q-.5 1.1-.6-.6t.5-1.3q.5.6.1 1.9m88.9 5c-.9.5-1.6 1.8-1.6 2.8 0 2.2-1.6 2.7-2.3.7-.6-1.7 1.2-4.9 2.4-4.2.5.4.9-.5.9-1.8 0-3.5 1.4-4.4 1.8-1.1q.3 2.7-1.2 3.6m20.8-1.6c-1.7 2.5-3.4 3.2-3.4 1.2 0-1.6 3.1-4.9 4.1-4.2.5.3.2 1.6-.7 3m-135-.4c.3 1.3.6 2.7.6 3.3-.1 1.5-3-2.7-3-4.2 0-2.2 1.7-1.5 2.4.9m-72.2 1q-1.1 1-1.2.2c0-1.4 1.2-2.6 1.9-1.9q.3.6-.7 1.7M135 341q0 .9-1 1a1 1 0 0 1-1-1q.1-1 1-1t1 1m143.9 6.7-.2 7.8-1-6.2c-.9-5.6-.6-9.3.8-9.3.3 0 .4 3.5.4 7.7m-121.4-3.5c.7 1.8 1.1 3.7.7 4.3q-.7.6-1.9-2.3-1.3-3.2-2.8-2.6t-1.5-1c0-3 4-1.8 5.5 1.6m27.5.3c0 1.9-.4 3.5-1 3.5s-1-1.6-1-3.5.5-3.5 1-3.5 1 1.6 1 3.5m-14.2 1.6q-.5 1-1.1-1-.7-2.5.5-1.3c.5.5.8 1.6.6 2.3m40.2.6q-.1 1.2-1.5 1.3c-1.5 0-2.1-3.1-.8-4.3.8-.8 2.3 1.2 2.3 3m104-1.7q0 .9-1 1a1 1 0 0 1-1-1q.1-1 1-1t1 1m9.4 2.2c1 3.8.7 7.3-.8 9.3-1.2 1.6-1.4 1.2-1.8-4.1-.3-3.2-.4-6.2-.1-6.7.8-1.4 2.1-.7 2.7 1.5m6.5 3.5q0 6.1-.9 3.8c-1.2-2.8-1.2-9.5 0-9.5.6 0 1 2.5.9 5.7M105.7 354l2.2 13.5c3.9 23.3 6.2 29.8 9.4 26.6.6-.6 2.5-1.1 4.2-1.1h3l-3 1.9c-2.7 1.8-3.6 1.8-8.3.7-2.9-.6-5-1.5-4.6-1.9 1.4-1.4-2-3.7-5.6-3.7-2.1 0-5.7-.7-8-1.5s-5.8-1.5-7.6-1.5c-1.9 0-3.4-.5-3.4-1q.2-.9 2.3-.6c6.3 1.3 11.7 1.6 11.7.7 0-1.4-3.4-3.1-6.2-3.1-4.6 0-5-1.2-2.4-7.1 1.3-3 3.6-10.5 5.1-16.7 2.2-9.2 3.2-11.5 4.9-12.2 4.2-1.7 5-.8 6.3 7m35.7-6.2-.2 4.7c-.1 1.9-.7 3.5-1.3 3.5q-1-.2-.8-2.3c.2-1.2-.2-3.2-.9-4.3q-1-2-.5-2.8c1.1-1.1 3.8-.2 3.7 1.2m146.4-.5c.6.7 1.5 3.3 2.1 5.7 1.7 7.6 8.4 14 14.7 14 4 0 4.7 1 4.7 6.5 0 4.9-.8 6.5-3 6.5-2 0-8.3-6.4-8.3-8.4 0-4.6-6.2-1.6-8 3.9-2.1 6.3-3.4 3.5-4.8-10q-2.5-24.3 2.6-18.2m-83.8.7q0 .9-1 1.5c-.5.3-.7 2-.3 3.6s.2 3.4-.3 3.8c-1.5 1-3.8 6.4-3.5 8.3q0 1.5-.8 2.3c-1.5.8-5.1-1.3-5.1-3q0-1.4-1.5-.9-1.4.5-1.5-.8c0-2 3-5.9 4-5.3q1 .3 2-1.5t1.8-1.7c1 .3 1.3-1 .6-2.8-.4-.8-.1-2.1.4-2.8 1.2-1.5 5.2-2 5.2-.7m38 0q0 .9-1 1a1 1 0 0 1-1-1q.1-1 1-1t1 1m21.1 15c.5 6.3 1.3 14 1.9 17 1.4 7.9 1.7 13 .8 13-1.7 0-2.6-4.2-3.7-16.5-.6-7.2-1.7-16.2-2.3-20.1s-.7-7.8-.3-8.5q2.1-3.3 3.6 15.1m31.6-11.3q-.5 1.3-.5-1.7c0-3 .2-2.7.5-1.8s.2 2.6 0 3.5m-85.9 1.2c-.5 2.4-3.8 2.7-3.8.3q0-1.7.6-2.5c1.1-1.1 3.5.5 3.2 2.2m6-.7c-.4 2.7-2.8 3.6-2.8 1q0-3.1 2.2-3.2.8.2.6 2.2m34.2 3.2c-1.3 1.4-3-.3-3-3.1v-2.5l1.9 2.3c1.1 1.3 1.6 2.8 1.1 3.3m66.5-3.4a2 2 0 0 1-1.2 1.7q-1.2.4-1.3-1.7 0-2 1.3-1.8 1 .6 1.2 1.8m-165.3 2.2c-.6.6-1.5.8-1.9.4q-.5-.7.7-1.6c1.9-1.2 2.7-.3 1.2 1.2m70 .5c1 .9 1.8 2.6 1.9 3.7q0 1.8.6.8c.2-.6 1.4-1.2 2.4-1.2 1.8 0 2 .6 1.7 4.7-.3 4.5-2.7 7.5-2.9 3.6q0-2.4-.6-.1c-.5 2.2-1.1 2.2-5.7.3-3.8-1.6-4.8-2.8-1.9-2.3q1.6.2 2.1-1.5.2-1.6-1.2-1.7c-1.8 0-2.1-3.2-.6-6.1 1.3-2.3 1.8-2.4 4.2-.2m86.1 6.4c.8 2.9-1.9 3.6-5.1 1.2-2.4-1.8-4.7-7.5-3.4-8.7.9-.9 7.9 5.3 8.5 7.5M408 354q0 .9-1 1a1 1 0 0 1-1-1q.1-1 1-1t1 1m-164.7 8.2c3.2 10.1 4.3 22.8 2.1 22.8q-1.4.1-1.4-3.7 0-3.6-2.5-7.4c-1.4-2-2.8-5.2-3.2-7.2-.6-4.2.4-12.7 1.6-12.7.5 0 2 3.7 3.4 8.2m112.2-7.2c.3.5.1 2.7-.6 4.9-1 3.4-.9 4.4.5 6.6 2 3.1 1.8 8-.4 8-1.1 0-1.8-2.2-2.6-9-1.1-8.3-1.9-9.3-1.5-1.8.2 3.2-1.1 4.4-2.5 2.2q-.6-1.2-1.5.2c-1.4 2.3-1-4.2.4-7.1a11 11 0 0 1 3.7-3.7c3-1.5 3.7-1.6 4.5-.3m-168.7 3.2c-.6 1.8-2.8 2.1-2.8.4q.1-1.5 1.6-1.6 1.4 0 1.2 1.2m18.7.8a2 2 0 0 1-1.2 1.7q-1.2.4-1.3-1.7 0-2 1.3-1.8 1 .6 1.2 1.8m6.9-.3c.9 2.2-1 4.1-2.5 2.6-1.3-1.3-.5-4.3 1-4.3q.9.2 1.5 1.7m107.6-.2q1.6 1.6-.4 1.5-1.5-.1-1.6-1.5c-.1-1.4.2-1.5.4-1.5s.9.7 1.6 1.5m-131 1.1q-.1 1.3-1 .9-1-.7-.5-1.6 1.4-2 1.5.7m143.5.5c-1 1.5-2.5 1-1.9-.6q.7-1.3 1.5-.9.8.6.4 1.5m-80.7 2.6c1.7 4.2 2 18.3.5 18.3-1.6 0-2-2.2-2.7-12.8q-.7-12.7 2.2-5.5m76.2-.9c0 .4-.5 1.3-1 1.8q-2 2.3-.7 18.4c.7 8.3.6 8.5-1.9 10.3-1.4 1.1-2.8 1.7-3 1.4s-.6-6.7-.7-14.3l-.1-13.7 3-2.3q4.4-3.7 4.4-1.6m73.5.2q.4.9-.4 1-1-.1-1.1-1 0-1 .4-1t1.1 1m-13.2 6c-.7 2.6-1.1 2.9-1.9 1.9s-.7-2.3.4-4.9c1.8-4.1 2.8-2.1 1.5 3m-50.2-4c1 .6 1.9 1.8 1.9 2.7 0 .8 1.4 3.1 3 5 3.7 4.1 3.7 5.1.5 5.9s-3.4.6-4.3-4.7q-.8-4.6-2.7-4.7c-2.6-.5-4.5-2.1-4.5-3.8s3.3-1.8 6.1-.4m-134.6 2.1c.8 2.3.1 3.4-1.4 2.4-1.3-.8-1.5-4.5-.2-4.5.5 0 1.3.9 1.6 2.1m6.5-.2a3 3 0 0 1-1.5 2.5c-1.5.5-2.2-2.4-.8-3.7 1.2-1.3 2.3-.7 2.3 1.2m69.7 1.3q-.5 1.1-.6-.6t.5-1.3q.5.6.1 1.9m36.2 8.7c.5 4.5.6 9.4.2 10.9-.6 2.1-.9 1.1-1.4-4.3a47 47 0 0 1-.2-15.4c.2.3.9 4.2 1.4 8.8m56.5 1c1.9 1.9 1.9 2.1.3 3.9q-1.7 1.9-1.1 4.9c.5 2.6.1 3.5-2.6 5.9a35 35 0 0 0-5.2 5.9l-1.8 3 .6-3.5c.4-1.9 1.2-3.8 1.8-4.2q1.2-.8-.1-.8-1.2-.1-1.3-1.5c-.1-1.4-.4-1.5-1-1.5-1.4 0-1.3 1.7.1 2.6q1.2.7-1.2 2.4c-1.9 1.5-2.1 2.1-1 3.4.7.8 1 1.9.7 2.4-.9 1.6-5.1.2-6.1-2a9 9 0 0 0-2.5-3 25 25 0 0 0-8.5-2.9q-.7.1.3-1c1.7-1.8 1.5-3.9-.5-3.9-.9 0-3.1 1.1-5 2.6-5.2 3.9-3.9 1.4 2.5-4.8 5.2-5.1 6.2-5.6 11.2-6.1a33 33 0 0 0 9.5-2.6q6.7-3.4 10.9.8m-73.4 4.5c2.1 3.2 3 5.6 3 8.5 0 5.1-1.7 5.4-2.5.3q-1.7-9.8-1-1c.6 6.2-1.1 8.2-2.2 2.7-.3-1.8-1.4-3.4-2.3-3.6-1-.3-2.3-1.6-2.9-3-1.1-2.3-.9-2.9 1.5-5.4l3-2.9c.2 0 1.7 2 3.4 4.4m85-.9c0 1.5.7 3.9 1.5 5.5 1.7 3.4.7 4-1.9 1.1-.9-1-1.4-2.5-1.1-3.4q.5-1.4-.4-2.2c-1.6-.9-1.3-3.5.4-3.5q1.4 0 1.5 2.5m-51 2.6c0 1.6-.4 2.9-1 2.9s-1-1.6-1-3.6q0-3.3 1-2.9c.6.3 1 1.9 1 3.6m-49.8-.4c1.9 1.7 1.4 4.5-.7 3.7q-1.2-.5-1.9 3.1c-.4 1.9-1.1 3.3-1.6 3-1.1-.7-2.4-10.1-1.6-11.4.8-1.2 3.4-.4 5.8 1.6m-7.2.3q0 .9-1 1a1 1 0 0 1-1-1q.1-1 1-1t1 1m34.4 4.2c1 7.3 1 11.1.2 16.5-.8 4.7-1 5.1-3 4.3-1.1-.5-2.9-1.1-4-1.4-1.5-.5-1.6-.9-.6-2.1 1.6-1.9.2-3.8-2.4-3.1-1.7.4-1.6 0 1-2.2 3.8-3.3 5.8-8.2 5.1-12.1q-1-4.3 1.9-4.1c.7 0 1.5 1.8 1.8 4.2m-176.9 1.7c-.3.6-1.4 1.1-2.3 1.1-1.5-.1-1.5-.2.2-1.5 2.1-1.6 3.2-1.3 2.1.4M84 390.5c.7.9 3 1.5 5.4 1.5 4.4.1 11.9 2.8 8 2.9-3 .1-13.6-1.9-15.7-3q-1.6-1-1.2-2 1.4-2 3.5.6m189 1.3c0 .9 1.4 3.1 3.2 4.9 3.2 3.3 2.1 4.7-1.6 2-1.8-1.3-4.2-10.2-2.5-9.1q.8.6.9 2.2m15.5 4.3q-.2 1.3-2 1.4-2.1.1-2.3-2.9c-.4-2.9-.3-2.9 2-1.4 1.2.8 2.3 2.2 2.3 2.9M332 394c0 1.3-2.8 2.5-3.8 1.6q-.4-.7.8-1.6 3-1.9 3 0m45 0q0 .9-1 1a1 1 0 0 1-1-1q.1-1 1-1t1 1m-35.7 3.2c-1.4 2.8-1.8 3-2.1 1.4-.2-1.1.4-2.5 1.4-3.3 2.6-1.9 2.6-1.7.7 1.9m-17 3.1c1 .6 1.9 2.6 2 4.2.2 2.4-.2 3.1-2.1 3.3-2 .3-2.2 0-2-3 .1-1.9-.2-3.9-.6-4.6-.9-1.6.6-1.5 2.7.1m-59.6 8.8c4.3 2.3 9 5.2 10.5 6.4s4.9 3.1 7.5 4.1 5 1.9 5.2 2.1-1.1 1.6-2.9 3.2c-3.4 2.8-3.4 2.8-1.7 5.5q1.8 2.5 4.2 2.6c1.3 0 2.6.3 2.8.7.6 1.1-2.1 7.3-3.2 7.3-1.7 0-6.1-6.2-6.1-8.6q0-2.3-1.5-2.4c-.8 0-2.4-.6-3.6-1.3-1.7-1-2.2-.9-3.9 1.3-1.8 2.3-2 2.3-2 .5 0-1.1.7-4.2 1.5-6.9s1.5-5.5 1.5-6.3c0-1.8-2.5-1.7-4 .2-1.1 1.3-3.8 12.9-5.7 24.2-.4 2.6-1 3.3-2.7 3.3-3 0-6.6 2.7-6.6 5.1 0 1.1 1.1 4.2 2.5 6.9 3.3 6.5 3.2 8.3-.5 9.7-2.6 1-3.2.9-4.5-1-1.7-2.5-2-8-.4-10.8.7-1.5.7-2.4-.2-3.5-1.8-2.2-3.9-1.7-7.3 2-2.8 3-9.6 7.4-9.6 6.2l1.1-3.3c.6-1.5 2.4-7.1 3.9-12.3 3.7-12.8 9.7-27.6 13.1-32.4 1.5-2.1 2.5-4.4 2.2-5.2q-1.5-3.7 10.4 2.7M317 406q0 .9-1 1a1 1 0 0 1-1-1q.1-1 1-1t1 1m33 .4q0 .5-1 1.1-.9.4-1-.4.1-1 1-1.1 1 0 1 .4m-34 8.5q0 1-1 1.6c-.5.3-1 1.7-1 3.1q0 2.2-1 1.9c-.9-.5-.5-4.7.7-6.8.6-1 2.3-.9 2.3.2m-75 5.7c-1.1 2.1-3.4 7.6-5.2 12.2a28 28 0 0 1-4.8 9.2c-.9.5-3 4.3-4.6 8.5-3.2 8.4-5.7 11.8-8.2 11.3-3.3-.7-1.3-6.4 7.1-20 6.7-10.8 17-25.8 17.5-25.4.1.2-.7 2-1.8 4.2m112.4.8c-.9 1.4-2.3 2.6-3 2.6-2.1 0-1.7-1.1 1.3-4.2 3.1-3.3 4.3-2.2 1.7 1.6m-121 2.4c.5.8-5 9.5-6.4 10-2.3.8-1.8-2.3 1.1-6.3 3.2-4.5 4.3-5.2 5.3-3.7m111.6 1.1c0 .5.3 1.6.6 2.4.9 2.4-3.2 3.1-6.6 1-3.8-2.2-3.8-3.1.3-3.6l4.5-.5q1-.1 1.2.7m-14 .9q-.2 1-1.2 2.5c-1.6 2-4.4.7-3.5-1.7.6-1.6 4.7-2.3 4.7-.8m25.3 4.4c3.7 7.7 4 9.3 2.1 10.8-1.3 1.2-1.7 1.1-2.5-.1-.5-.8-.7-2.5-.4-3.8q.9-2.6-1.1-1.7c-5.1 1.9-7.5-2.9-3.7-7.4 1.4-1.7 2.6-3 2.8-3zM320 427q-.1.9-1.6 1-1.3-.1-.9-1 .6-1 1.6-1 .8 0 .9 1m41.5 2.1c.9 1.7 1.4 3.6 1.2 4.2-.4 1-3.7-5.1-3.7-6.8 0-1.3 1.1-.2 2.5 2.6m-58 6.6c-.3 4.3-1 10.5-1.6 13.8a100 100 0 0 0-.7 14c.3 7.5.2 8-1.8 8.3-2.8.4-3.2-1.5-4.3-19.8a132 132 0 0 0-1.6-16.2q-.8-1.8 1.8-2.3c1.4-.4 3.5-1.8 4.8-3.1s2.6-2.4 3.1-2.4.6 3.5.3 7.7m5.5 13.8c-.6 9.1-.8 17.4-.5 18.5.3 1 .2 2.1-.3 2.4-2.3 1.4-2-29.5.4-37.3 1.3-4.2 1.4 1.6.4 16.4m14.4-15.8c.3 1 .7 4.5 1.1 7.8a460 460 0 0 0 3.1 25.5l.6 3.5-3.2-3a28 28 0 0 1-4.6-5.8 7 7 0 0 0-4.5-3.4l-3-.6.6-11.5c.3-6.3 1-12.1 1.6-12.8 1.7-2.1 7.7-1.8 8.3.3m14.3.3c1 1.1 2.3 2 3.1 2 .7 0 1.9 1.5 2.7 3.4s2.6 4.8 4.1 6.5q2.6 3 1.2 3.1c-2.8 0-5.8-3.2-7.3-7.8q-2-6.3-1-1c.3 2.1.2 3.8-.2 3.8-.9 0-6.3-9.5-6.3-11 0-1.6 1.9-1.1 3.7 1m-60.1 3.2c.9 1.8 2.8 4.5 4.2 6 2.3 2.5 2.4 3.1 1.3 5.4-.6 1.5-.9 2.9-.6 3.2 1.1 1.1 4-1.5 4.3-3.9.5-2.9 2.1-5.1 3.3-4.3 1.7 1 .9 6.1-1.2 8-1.7 1.5-2 2.7-1.6 6.1.4 4.2-.9 8.1-2 5.5-1-2.6-7.6-9.7-8.7-9.3-3.5 1.2-5.6.7-8.2-2l-2.7-2.9 1.9-4.2c2.7-6.2 5.7-10.8 7.1-10.8.7 0 2 1.5 2.9 3.2m87.8 1.6q.3 1-1.5 2.6-2.1 1.8-1.5 3.9 1.2 5.1-4.5 4.5c-3.8-.3-4.6-2.1-1.1-2.6q2-.4 2.2-1.3l1.4-4.4c1.4-3.3 3.8-4.6 5-2.7M220 443.5c0 .8-1.3 3.6-2.9 6.2a53 53 0 0 0-3.6 7q-.6 2.1-1.4 2.3c-.6 0-4.1-5.3-4.1-6.3 0-.4 4.4-6.4 7-9.5 1.5-1.7 5-1.5 5 .3m111 3.7q0 5.6-1.3-1-.6-3.2.3-2.7c.6.3 1 2 1 3.7m39.9.8c2.1 4.2 2.7 7 1.3 7-1.1 0-3.4-4.1-4.3-7.7-1-4.5.5-4.1 3 .7m-29.5 2.8q3 1.7 4.1 6.2c6.5 23.5 6.5 23.1 4.8 25.7-1.3 1.9-1.5 4-.9 9.9.7 9.1 1.4 10.4 5.7 11.9q3.4 1.1 3 2.5c-1.5 5.6-1.3 7 1.3 8q4.1 1.7 1.6 3.5c-.5.3-1 1.4-1 2.4 0 3.3-3.4 6.3-8 7.1-5.5 1-6.6.2-7.5-5.3-.4-2.3-2-8.1-3.6-13-2.9-8.7-4-20.5-1.9-19.2.6.3 1 1.8 1 3.3s.7 5.2 1.6 8.2c.8 3 2.2 8.8 2.9 12.9 1.5 8.2 1.7 8.6 4.1 7.7 1.4-.5 1.5-1.4.9-5.4l-1-8.1c-.2-1.8-.8-4.5-1.4-6-1.1-2.9-2.7-10.9-3.6-18.9-.6-4.4-1.1-5.5-3.1-6.2q-4.4-1.8-.4-6 3.6-3.5.4-4.7-1.3-.6-1-1.8c.2-.7-.2-3.9-.9-7.2-2.4-9.8-2.1-10.6 2.9-7.5m-81.4.8q0 1.3-1 .9-.9-.6-1-1.6.1-.8 1-.9 1 .1 1 1.6m92 2.6c0 .7.3 2.4.6 3.8l.5 2.5-1.5-2.5c-1.8-2.9-2-5-.6-5q1 .2 1 1.2m-16 14q0 .8-1 .8-2.4 0-3.3-9.5l-.6-6 2.4 7c1.3 3.8 2.5 7.3 2.5 7.7m29.7-12.5c.2.6-1.1 1.8-2.8 2.7-2.6 1.3-3.4 1.4-4.1.4-1-1.6-1-3.3-.1-4.2 1.1-1.1 6.6-.3 7 1.1m-96.9 3.5c1.4 1.8 2.5 7.8 1.5 7.8-1.6 0-5.5-6.1-4.9-7.6q1.2-2.6 3.4-.2m-61.9 2q1 2.3-1.3 6.6c-1.5 3.3-1.8 4.7-1 6q2.5 4 3.5-2.2c.4-2.2 1.5-4.6 2.5-5.3 1.9-1.4 6-1 7.7.6.9.9-8.3 20.1-9.6 20.1-.5 0-.7-1.2-.4-2.7s.3-3.3 0-4c-.6-1.6-4.5-1.7-6-.2-1.7 1.7-4.3.3-4.3-2.4 0-1.2 1.6-4.7 3.5-7.7s3.5-6.7 3.5-8.2q.1-5.1 1.9-.6m170.6.8c.8 1.6 1.5 3.4 1.5 4 0 1.6-3 1.2-3.6-.5-.6-1.4-.8-1.4-1.8 0-.9 1.2-1.5 1.3-3.6.2-4.8-2.4-2.4-6.2 4.2-6.6 1-.1 2.4 1.2 3.3 2.9m-132 3.7c2.7 5.8 2.8 8.2 1 17-.7 3.2-.7 3.2 1.9 2 1.8-.9 2.8-2.4 3.6-5.9q2.2-8.8 5.6-5.6c1.9 1.9.9 6.4-1.6 7.8-1 .5-2.1 2.3-2.5 3.9-.8 4-2.7 5.3-6.7 4.9-2.9-.3-3.3-.7-3.6-3.6-.3-2.6-1-3.5-3.6-4.6-8.6-3.6-10.2-14.5-2.5-17.6a12 12 0 0 0 4-2.6q1-1.3 1.4-1.4a40 40 0 0 1 3 5.7m-16.5 1.9c-1.6 4.2-1.1 8.9 1.1 11.8 2.2 2.8 2.2 2.8.2 4.8s-2 2-4.9-.5c-2.8-2.5-2.8-2.5-1.5-7.6.7-2.9 1-6.7.6-8.7q-.6-3.5.6-5.1c1.2-1.3 1.5-1.3 3.1.7 1.3 1.6 1.5 2.7.8 4.6m132.9-1.7q-.5 1-1.8.2-1.1-.9-.6-2.1c.9-1.4 2.9.2 2.4 1.9m-82.5 11.9c2.2 15.8 3 29.8 1.8 30.6-1.7 1-2.3-2.5-2.7-15.4-.2-6.9-.9-15.7-1.4-19.5-1.3-9-1.4-10.6-.1-8.5.5.9 1.6 6.6 2.4 12.8m77.5-11.9q1.3 1 1.5 7.1.1 6.3 1.7 7.3c2.2 1.7 3.2 4.7 1.5 4.7q-3.2 0-5.9-11.5c-2.2-9.3-2.2-9.7 1.2-7.6m-35.4 5.7c2.1 2.9 3.5 5.9 3.6 7.8.2 6.6.4 7.1 2.4 7.1 1.5 0 2.1-.9 2.6-3.7.3-2.1.1-4.2-.4-4.7q-1-1 .3-2.6c1.5-1.8 4.1-2 3.4-.2-.2.7.2 2.9 1 4.9 1.4 3.2 1.4 3.7.1 4.8-.8.7-1.5 2-1.5 2.9 0 3.5-7.7 5.7-10.4 3q-1-.8-2.6-.9c-.9 0-3.5-1.6-5.8-3.6-3.6-3-4.2-4.1-4.2-7.3 0-3.8 4.8-12.1 7-12.1.5 0 2.5 2.1 4.5 4.6m-32.7-1.6c1.7.8 3.4 2.1 3.7 3 1.1 4.1 4.9 31.1 6.1 43.8q.7 7.3 2.1 7.9 1.4.5 1.8.1c.2-.2-.1-6.1-.6-13.1s-.8-13.5-.4-14.5c.6-1.6.7-1.6 2 .1 2.6 3.5 4.3 29.5 2 30.3-.7.3-4.1-.2-7.5-1q-6.2-1.6-8-.6-4.2 2.6-1.5-2c.8-1.6 1.5-4.5 1.5-6.4s.4-3.7 1-4.1c1.5-.9 0-3.4-2.3-3.7-2.6-.4-3.5-4.7-3.6-16.5-.1-4-.6-10.6-1.2-14.7-1.1-7.2-.8-11.2.9-10.4.4.3 2.2 1.1 4 1.8m82.4 3.2c2.2 3.9 8.8 19.1 10.7 24.6 1.2 3.5 2.8 7.4 3.7 8.7 1.4 2.1 1.3 2.4-1.2 4.4a10 10 0 0 1-3.8 2.1c-1.2 0-3.6-6.7-3.6-10.1 0-1.2-1.5-5.1-3.2-8.5-2.9-5.8-3.1-6.7-2-9.6q2.2-6.2-3.2-4-2.5 1.2-3.4-.1a20 20 0 0 1-1.8-10.6c.8-1.2 6.8 1.1 7.8 3.1m-100.5-.9c.7.7 1.5 4.7 1.7 8.9a51 51 0 0 0 1 8.6c.3.5.8 4.6 1.1 9.1.5 6.5.3 8.2-.7 7.9-.8-.3-1.4-2.6-1.6-6-.5-9.1-4-10.2-8.7-2.8-1.4 2.2-3 4-3.5 4-1.8 0-.7-13.7 2.2-26.8 1.1-5.3 1.2-5.4 4.2-4.8 1.7.4 3.6 1.2 4.3 1.9m34.7 8c.7 3.9 1.6 5.5 5.2 8.5 2.4 2 4.4 4.4 4.4 5.3s.7 2.2 1.5 2.9c2.5 2 1.7 3.3-1.5 2.7-3.6-.8-12.9-7.6-12.9-9.7-.1-.8-1-2.8-2-4.4q-2-2.9-1.1-5l1.4-3.9c1.1-3.6 4-1.5 5 3.6m-109 5c2.4 1.7 2.5 2 1.2 4.5-.8 1.5-2.7 4-4.4 5.5-2.5 2.5-3 2.6-4.2 1.2q-1.6-1.6.3-1.5 5.1-.1 1.8-7.5c-2.5-5.4-2.5-5.4-.4-8.5l1.7-2.4.7 3.4a10 10 0 0 0 3.3 5.3m190-5.1a9 9 0 0 1 1.6 4c0 1.5-.5 1.7-2.7 1.2-3.5-.8-3.2-.5-3.9-4.2-.6-2.8-.4-3.2 1.4-3.2 1.2 0 2.8 1 3.6 2.2M216.9 497l-3.8 12c-1.1 3.7-6.2 3.6-7.5-.2-.8-2.2-.3-4.3 2.9-11.5 2.1-4.8 5-10.8 6.3-13.1l2.5-4.4 1.3 3.8c1.2 3.6 1.1 4.7-1.7 13.4m21.5-11.1c.9 1.5-2.3 3.6-3.6 2.3-.5-.5-.7-1.5-.4-2.1.9-1.3 3.3-1.4 4-.2m122.1 6.9q3.2 6.6 4.9 2.6c.7-1.9 2.6-.9 2.6 1.5 0 1 .9 3 2.1 4.5s2.8 5 3.6 7.9l1.9 6.8c.7 2.1-2.4 3.3-4.3 1.8-.7-.7-2.6-1.2-4-1.3q-5.4-.4-.7-4.9c2.6-2.5 2.6-4.7-.1-4.7-.8 0-1.9-.9-2.4-1.9s-3.1-2.9-5.5-4-4.7-2.9-5-3.7c-.8-2.1-.8-9.9.1-10.7 1.2-1.3 4.8 1.9 6.8 6.1m-154-1.9c.3.5-.6 3-1.9 5.5s-2.7 5.1-2.9 5.8q-.5 1.4-2.7-1.1c-1.8-2.1-1.9-2.6-.6-4 .8-.9 1.9-2.8 2.5-4.4 1-2.7 4.3-3.7 5.6-1.8m22.2 7c-.3 3.1-1.6 9-2.9 13.1-2.2 7.1-2.6 7.5-5.5 7.8-2.8.3-3.2 0-3.8-2.8-1-4.4 1.1-11.4 3.7-12.5 1.3-.6 2.6-2.7 3.4-5.3 2.6-9 6-9.2 5.1-.3m25.5 4.3c-.6 2.4-1.4 3.4-3.3 3.6-2.6.4-5.5 2.6-7 5.5q-1 1.7.5 4.9a14 14 0 0 1 1.6 4.8c0 1 .7 2.3 1.5 3q1.7 1.3.6 2.3c-1.5 1.5-14.4-5.2-13.7-7l3.7-12.1c3.5-12 4.4-13.5 7.3-12.8a15 15 0 0 0 5.6-.7c3.5-1.2 3.5-1.2 3.8 1.9.2 1.8-.1 4.7-.6 6.6m-17.2-6.9c0 1.3-.6 3.7-1.4 5.3s-2.2 6.2-3.1 10.1c-1 4-2.2 7.3-2.6 7.3-1.4 0-1.1-1.7 1.5-10.4l3.1-11.4c.8-3.7 2.5-4.3 2.5-.9m93.3 10.3a66 66 0 0 0 4.9 20c.5.3 1.6 0 2.4-.7 1.7-1.4 2.9-.6 2.1 1.5-.8 2-7 3-10.7 1.7q-3.1-1-5.5.1-5.4 2.3-5.5-3.4c0-2.9.1-3 1.4-1.3 2 2.7 4.6 1.2 4.7-2.7l.1-3.3 2 4.4c1.8 3.9 2.1 4.2 3.5 2.8s1.3-2.4-.6-9.9c-2.2-9-2.6-17.1-.7-16.5.6.2 1.5 3.5 1.9 7.3m-63.3-.8c0 .9 1.4 3.5 3 5.6 3.3 4.4 3.5 5.4 1.9 9-.9 2-1.8 2.5-4 2.2-4.4-.4-7.7-3.2-8.4-7-.9-4.4.1-7.3 3.2-10.2q4.2-3.8 4.3.4m70.9 7.7q.2 2.4-.9.5a9 9 0 0 1-.9-4q-.1-3.3.9-.5c.5 1.1.9 2.9.9 4m-24.4 12.2c.4 2.5.2 3.3-.8 3.3-1.2 0-1.5-2-1.5-9.8v-9.7l.9 6.5c.4 3.6 1.1 8 1.4 9.7m-60-11.3.7 4.1c.2 1.1 1.8 2.9 3.5 4 1.8 1.1 3.2 2.6 3.3 3.2 0 1.7-.1 1.7-5.2-1.2-3.7-2-4.6-3.2-5.6-7-.7-2.6-1-5-.7-5.5.9-1.5 3.5.1 4 2.4m70.5.4q.1 3-1 1.2c-1.3-2-1.3-5.3 0-4.5.6.3 1 1.8 1 3.3m40-2.8q0 .9-.4 1-.5-.1-1.1-1-.4-1 .4-1 1 0 1.1 1m-46 6q.1 2.9-1 1a9 9 0 0 1-1-4q-.1-2.9 1-1a9 9 0 0 1 1 4m-33.2 1.7c.2 5-1.1 7.3-2.1 3.5q-.5-2-.6.6a4 4 0 0 1-2.3 3.2c-1.3.5-3.3 1.7-4.5 2.6-2.1 1.5-2.3 1.5-2.3.1q.1-1.5 1-2.2c.6-.3 1-1.7 1-3.1 0-3.8 4.9-10.6 7.4-10.2 1.8.3 2.1 1.1 2.4 5.5m-18.3 9.3q.4.9-.4 1-1-.1-1.1-1 0-1 .4-1t1.1 1m-44.7 11.8c.2.7-1.5 5-3.7 9.6a60 60 0 0 0-4.1 9.5c0 .6-1.1 2.9-2.5 5.1a26 26 0 0 0-2.5 4.5 61 61 0 0 0-7 14.3c-1.3 4-2.8 7.6-3.3 7.9-1.8 1.1.3-7.9 3.9-16.7 3.7-9.1 4.4-12.6 1.5-7.1-1.8 3.3-1.9 3.4-2.6 1.2-.5-1.6.5-4.6 3.7-10.9 2.4-4.8 5-10.7 5.8-13.1s2.2-4.6 3.3-5c2.9-1.1 7-.7 7.5.7m-11.4.1c.8 1.3-1.7 7.1-3.1 7.1q-2.4-.2-.1-5.5 1.8-4 3.2-1.6m20.6.1c0 2.2-4.4 14-8.1 21.5-4.5 9.3-5 11.9-1.6 8.7q2.3-2.3 3.4-1.1 1 1.1 2.2-1.8c1.7-3.9 5.9-8.9 6.7-8 .9.9-4.4 12.7-6.4 14.4q-1.4 1-2.8.6t-2.5 2.4c-.6 1.5-1.7 4-2.5 5.5-.8 1.4-1.4 3.4-1.4 4.3q-.2 2.1 2-.8c1.1-1.4 2-3.4 2-4.5 0-2.1 2.6-4.9 3.6-3.9.4.3-.3 2.2-1.5 4.2s-2.1 4.4-2.1 5.4-.8 2.9-1.9 4.2-1.6 2.9-1.4 3.6c.2.6-.5 2.8-1.6 4.9s-2.1 4.3-2.1 4.8-.6 1.7-1.3 2.5c-1.5 1.8-4 11.1-3.2 11.9s1.4-.2 3.6-6.2c1.1-3.2 3.3-8.5 4.8-11.9a83 83 0 0 0 3.6-8.7c.4-1.4 2.5-6.2 4.6-10.8 2.1-4.5 3.9-8.8 3.9-9.6s.7-1.9 1.5-2.6q1.3-1.2 1.5-2.5c0-2.2 6.9-16.5 7.9-16.5.5 0 1.1 1.2 1.3 2.7l.3 2.7 1.6-2.4c.9-1.4 2-4.1 2.4-6 .7-3.4.7-3.5-1.2-1.8q-3.4 3.2-3.3.5 0-4.4 4.8-2.5c3.1 1.2 4.1 3.4 2.3 5.3a35 35 0 0 0-2.6 6.3 59 59 0 0 1-4 9.5 34 34 0 0 0-3 7.3c-.6 3.3-3.9 7.1-4.8 5.7-.3-.5.8-3.9 2.3-7.6 1.6-3.7 2.5-6.7 2.1-6.7q-2-.1-4.4 7c-1.3 3.9-3.4 8.7-8.5 20l-2.1 4c-.6.8-2.4 5.5-4.2 10.5a61 61 0 0 1-4.7 10.7q-1.3 1.7-.9 3.1c.2.7-.1 2.1-.9 3.1q-1.4 1.8-.2 3.5c.8 1.3.5 2.9-1.1 6.7l-2.3 5.4c0 .3-.9 2.2-1.9 4.2-1.1 2.1-1.5 3.8-.9 3.8 1.3 0 3.3-4.1 5.5-11.3 1.6-5.3 3.7-7.9 5.1-6.5.3.3-.2 2.5-1.1 4.9l-4.1 11.8q-3.6 11-6.7 11.1c-.5 0-.7-1.4-.3-3.3l.6-3.2-2 2.5a10 10 0 0 0-2 4.6c0 2.6-3.6 7.4-5.6 7.4q-3 0 .7-5.1c1.1-1.6 1.9-3.7 1.7-4.7q-.4-1.9-2.1 2.1c-.9 2-2.4 4-3.4 4.4-1 .3-2.5 1.4-3.3 2.5-1.3 1.5-2.1 1.7-4 .9q-2.2-.9-1-1c2.2-.1 4.2-7.7 3.4-12.8-.6-4.1 1-6.9 2.6-4.4 1.1 1.9 2.3-.4 5.4-10.4a110 110 0 0 1 4-11.5c2.9-5.8 3.9-10.9 2.7-12.4q-1-1.5-.5-2.8t-1.9.4c-3.3 2.3-3.7 2.2-3.7-.1 0-1-.9-2.1-2-2.4-1.5-.4-2-1.4-2-4 0-4 .8-6.7 2.1-6.7.4 0 .3 1.4-.3 3.1-1.2 3.6-.3 5.3 1.1 1.8l5-11.3c3.1-6.5 4.5-8.6 5.3-7.8q1.3 1-.6 3.6c-.9 1.4-1.6 3.4-1.6 4.4s-.9 3.1-2 4.5c-2 2.6-2.7 6.7-1.1 6.7.5 0 1.2-1.2 1.6-2.7.3-1.5 1.5-3.9 2.6-5.4 1-1.5 1.9-3.5 1.9-4.5s1.1-3.7 2.5-6.1c2.6-4.3 2.5-4.7-.7-4.4-2.6.3-2.2-2.6.7-6.5 1.4-1.8 2.5-4.1 2.5-5.1 0-2.5 4.2-9.1 4.7-7.5.3.7-.6 3.4-2 6a36 36 0 0 0-3 8.2l-.7 3.5 2-2.5c2.1-2.7 2.9-4.3 5.6-11l4.1-9.8a60 60 0 0 0 3.8-9.6c1.4-3.3 3.5-4.9 3.5-2.6m-6 1.5q-1 1.4-.5 2.5c.3.5-.5 2.8-1.8 5.1s-2.8 3.6-3.1 3.1c-.8-1.3 4.4-12.2 5.7-12.2q.8.2-.3 1.5m11 .2c0 2.9-2.3 8.2-3.8 8.8-1.2.4-1.4-.2-.9-3.5.5-4.1 2.1-7 3.8-7q.8.2.9 1.7m6 .2c0 1.2-2 2.5-2.7 1.8s.6-2.7 1.8-2.7q.8 0 .9.9m56.2 4.3q-1.1 1-1.2.2 0-1 .7-1.7t1.2-.2q.3.6-.7 1.7m52.4.6c-.8.9-1.9 1.3-2.2.9-1-.9 1.6-3.8 2.8-3.1q.9.7-.6 2.2m6.4-1.1c0 2.4-4.3 13.3-5.2 13.3-1.3 0-.9-4.2.7-9.8q1.6-5 3-5.2 1.3.2 1.5 1.7m-118 4.7c-1.3 3.9-5 7-5 4.1 0-.9.9-3.4 2.1-5.7 2.6-5.1 4.8-3.9 2.9 1.6m17.4-4.6c.6 1-3.3 7.2-4.5 7.2q-2 0 .6-5 2.3-4.5 3.9-2.2m33.3 4.2a217 217 0 0 1 3.3 18.5c1 7.7 2.6 17 3.5 20.8.8 3.7 1.6 11.5 1.7 17.5.2 13.1-1.7 19.9-6.8 24-1.9 1.5-3.4 3.2-3.4 3.9s-1 2.7-2.2 4.6c-2.1 3.1-3.4 3.8-11.8 6.2-5.2 1.5-10.6 3.3-12 4-3.6 1.9-17 4.5-22.8 4.5h-4.9l-.7-22.1-.7-22.1 7.7-15.1 16.1-31.7 8.4-16.5 10.2-.6 11.6-.5c.8.1 2 2.1 2.8 4.6m12.3 2.6c-.7 1.9-.9 3.8-.6 4.1q.6.3 1.1-1.3c2.1-7 6.3-11 8.8-8.5 1.2 1.2-.9 4.4-2.4 3.6-1.1-.7-2.5 2.1-3.2 6.5-.6 3.2-.6 3.4.8 1.6a8 8 0 0 0 1.5-2.8q.1-.7.8-.8c.5 0 .5 2.1.1 4.7-1.1 6.5-1.1 8.5 0 7.9.4-.3 1.1-2.8 1.5-5.6.8-6.2 2.2-10 3.6-10q1 .1.6 4.7c-.6 4.6-.5 4.7.5 1.3.6-1.9 1.5-4 1.9-4.6.5-.5.7-1.9.4-3.1-.5-1.8-.1-2 3.5-2h4.1l-.6 4.1q-1.5 10-3.9 13.1c-1.3 1.7-1.6 1.8-2.5.5q-1.1-2-1 .8 0 2.4 1.7 2c1.5-.2 1.7.3 1.5 3.2s0 2.8 1.7-2c1-3 2.4-7.8 3.1-10.7 1.3-5.6 3.4-9.3 4.6-8 .4.4.3 2.2-.3 4s-1.9 6.8-2.9 11.2-2.1 8.4-2.6 8.9-.8 2.1-.8 3.5c0 2.5-.8 5.3-5.2 18.4-1.1 3.2-1.7 6.2-1.3 6.5.8.9 2.5-1.8 2.5-4.1 0-1 .7-3.2 1.6-5 1.5-2.8 3.4-9.3 8-28.3.8-3.4 2.1-7 2.9-8 1.3-1.8 1.4-1.8 2.1-.1.3 1-.1 3.7-1 6.1s-1.4 5-1 5.9-.1 2.6-1 3.9a10 10 0 0 0-1.6 4.8 78 78 0 0 1-4.7 17.6c-.7 1.2-1 2.4-.7 2.7.3.2-.1 2-.9 3.9-2 4.7-3.1 12.8-1.8 12.8q1-.2 1.6-2.5l1-5q.6-2.3 1.9-2.5c1 0 1.1 1.1.6 4.5-.8 5.6.6 4.9 2.1-1.1.6-2.4 1.5-4.4 2-4.4 3.6 0-3.5 14.6-7.3 15.2-1.8.2-2.4 1-2.6 3.5-.3 2.7-.7 3.3-2.8 3.3q-2.4 0-2.4 1.7c0 1-.9 3.2-2 5-1.1 1.9-1.5 3.5-1 3.8q2.4 1.6 3.5-4.1c.5-2.9 1-3.5 2.5-3.1q2 .5 2.5-1.4c1-3 2.1-2.2 1.9 1.3q-.2 3-3.3 6c-1.7 1.6-3.4 4-3.7 5.4-.6 2.2-.7 2.3-1.9.8-1.2-1.6-1.3-1.6-2.2.2-.6 1-1.3 3.4-1.6 5.2-.6 2.9-.4 3.3 1.1 2.8s1.7-.1 1.4 2.9c-.5 3.8-2.2 4.9-2.2 1.4 0-1.8-.2-1.9-1.5-.9-1.3 1.1-2 .9-4-1-1.4-1.3-2.5-3.3-2.5-4.5a6 6 0 0 0-1.9-3.7c-1.7-1.4-1.9-2.6-1.5-7.8.4-6.1 4.3-18.1 6.8-21 2.2-2.5 3.6-7.9 3.6-13.6q-.1-8.3-3.3-5.5c-3.4 3.4-5.5-2.4-3.2-9 .8-2.3 1.5-5.1 1.5-6.3-.1-1.9-.2-1.9-1.1-.3-1.5 2.5-2.9 1.1-2.9-2.9 0-2-.5-4.4-1-5.5-.8-1.4-.7-3.1.5-6.4q3.3-10.1-.6-5.5l-2 2.5.3-3.8c.2-2 0-3.7-.4-3.7s-.8-.9-.8-2 .6-2 1.4-2 1.8-1 2.2-2.3c.3-1.2 1.2-2.8 1.8-3.6 1.7-2.1 2 2 .6 6.5m-43.3-4.4q-.5 1.1-.6-.6t.5-1.3c.3.3.4 1.2.1 1.9m87.1 3.4c-.8 1.6-1.3 3.7-1 4.7.5 2.4-2.7 7.2-4 5.9q-.9-1 .5-4.3a24 24 0 0 0 1.5-6.6q.2-6.8 2.9-4c1.3 1.3 1.3 1.8.1 4.3M335 549q0 .9-1 1a1 1 0 0 1-1-1q.1-1 1-1t1 1m14.7 4.9c-.9 1.6-1.7 4.2-1.7 5.8s-.7 3.8-1.5 4.9c-1.3 1.8-1.4 1.7-1.5-1.8 0-2 .4-3.9.8-4.2s.9-1.9 1-3.6c.1-3.8 2-6.6 3.6-5q1 1-.7 3.9m-10.2.3c-.4 2.4-1.4 5-2.2 5.8-1.4 1.3-1.5 1.1-.9-2.5 1-5.9 1.6-7.5 2.8-7.5q.9.1.3 4.2m-5.5-.3q0 1-1 1.6-.9.4-1-.9.1-1.5 1-1.6 1 0 1 .9m-103.7.7c.7.8-4.2 10.4-5.4 10.4q-2 0 .5-3.5c.7-1.1 1.6-3.2 2-4.8q1-4 2.9-2.1m20.7 3.9c0 .2-.6 1.9-1.4 3.7l-4.1 9.8-4 9.5-2.6 6.5c-.7 1.9-3.1 7.3-5.5 12-2.3 4.7-4.7 10.4-5.3 12.5-1.1 4.1-5 10-5.1 7.7 0-2.1-1.8-1.3-2.2 1q-.4 2.1-1.9 2.6c-1.2.2-1.5-.4-1.1-2.7.3-2.2 1.2-3.2 3.3-4 2.3-.8 2.9-1.6 2.9-3.8a93 93 0 0 1 7.4-17.8c4.1-8.3 8.4-17.5 9.6-20.5 4.2-10.6 7.4-17 8.7-17q1.2 0 1.3.5m1.5 4.5c-.9 1.6-1.8 3-2.1 3-.2 0 .2-1.4 1.1-3s1.8-3 2.1-3c.2 0-.2 1.3-1.1 3m84.7 4.5c-.7 1.4-1.2 3.8-1.2 5.4 0 1.5-.7 3.6-1.5 4.7-.8 1-1.5 2.8-1.5 3.9s-.9 4.9-2 8.4c-1.2 3.8-1.7 6.8-1.2 7.3s2.8-1 5.4-3.6q4.6-4.7 5.6-3.4c1.1 1.1 1.5-.3 5.8-16.7 2.1-8 3.2-10.5 4.4-10.5 1.4 0 1.4 0-2.5 13.9a160 160 0 0 0-3.5 14c0 2.2-5 14.4-6.7 16.3-2.7 3.1-4.6 1.1-4.1-4.4.3-2.6.3-4.8 0-4.8s-2 1.1-3.8 2.5c-3.1 2.4-5.4 3.2-5.4 1.9 0-3 4.4-18.5 5.6-19.4q1.3-1.3.8-3.6c-.3-1.3.1-3.7 1-5.5s1.6-4.4 1.6-5.9c0-3.1 1.9-5.5 3.4-4q.9 1-.2 3.5m5 1.1c-.2 1.3-.8 2.7-1.3 3s-.9 1.8-.9 3.4-.5 4.1-1.2 5.7a17 17 0 0 0-1.2 3.8c-.2 2.1-2.9 7.5-3.7 7.5-1.3 0-1-3.2.6-6a15 15 0 0 0 1.5-5.7c0-1.7.4-3.4.9-3.7s1.1-2.6 1.3-5.1c.6-4.9 2.6-8.4 3.8-6.5.4.6.5 2.2.2 3.6m2.8 2.9q0 2.3-1 2.5c-1.1 0-1.4-3.3-.3-4.3 1.1-1.1 1.3-.8 1.3 1.8m-1 6.4c0 1.9-2.3 7.1-3.1 7.1-1.2 0-1.1-2.2.1-5.4.9-2.4 3-3.6 3-1.7m-109 4c0 1.9-5 12.1-6 12.1-1.3 0-1.3-3.7 0-4.5.6-.3 1-1.4 1-2.3 0-1 .7-2.8 1.6-4 1.5-2.2 3.4-2.9 3.4-1.3m-7 16c0 2.1-1.3 4.1-2.6 4.1-1.7 0-1.7-.5-.4-3.1 1.1-2 3-2.6 3-1m77 6.7c0 4.1-1.6 7.7-3.1 6.8-.9-.5-.6-3.7.7-8.7.9-3 2.4-1.8 2.4 1.9m-109.9 5.7c-1.3 1.3-2.6.3-1.6-1.2q.6-1 1.7-.5 1 .6-.1 1.7m140.2 1.7c-.5 1.9-2.3 2.9-2.3 1.2 0-.7 2-3.2 2.6-3.2q.2.2-.3 2m-137 2.5c-.5 1.6-3.3 2.1-3.3.7 0-1.3 2.2-3.2 3.1-2.6q.8.5.2 1.9m4.7-.8c0 1.4-1.9 3.8-2.5 3.2-.8-.8.5-3.9 1.6-3.9q.8 0 .9.7m129.6 10-.9 8.2c-.1 1.9-.8 3.6-1.5 3.9-1.1.3-1.2-1-.8-6.7.7-7.9 1.3-10.1 2.8-10.1q1 .1.4 4.7M200 621.4q0 .5-1 1.1-.9.4-1-.4.1-1 1-1.1 1 0 1 .4m28.4 4.3 1.2 8.5c.5 2.9.2 3.9-.9 4.4q-4.4 1.7-2.2-5.1c.7-2.5 1-4.5.5-4.5s-1.1 1.4-1.6 3.2c-1.1 3.8-4 5.4-3 1.7l1.1-4.9q.8-3.6-.7.2c-1.5 3.5-4.3 3.9-3.2.5 1.7-5.6 2.5-6.9 3.8-6.4q1.4.4 2-.9c1.1-2.8 2.4-1.3 3 3.3m-33.4-1.3c0 .8-.9 2.4-2 3.7q-3 3.7-1.4-2.9c.7-2.4 3.4-3.1 3.4-.8m133 1c0 1.4-.4 2.7-.9 3s-1.1 3-1.4 6.1-1.2 6.8-2 8.5a8 8 0 0 0-1 5c.5 1.9.6 1.9 1.9.3 1.2-1.7 1.4-1.7 3.3.4 2.2 2.4 2.7 4.3 1.1 4.3q-.9-.1-1-1.1 0-.8-1-.4c-.5.3-1 1.7-1 3.1 0 4.6-1.6 6.3-5.7 6q-6.3-.6-2.8-4c2-1.9 3.9-1.1 3.1 1.3q-.7 1.8.9-.3c.8-1.1 1.5-3 1.5-4.3 0-2-.3-2.2-1.9-1.4-2.6 1.4-3.4.2-1.6-2.6q1.3-2.1.6-2.3-.9.2-2.4 2.2c-.8 1.3-1.8 2-2.2 1.6-1.2-1.1.5-4.7 2.6-5.3 2.2-.7 2.6-3.5.4-3.5-1.8 0-2-1.6-.4-2.6q1.1-.5 1.9.6c.7 1.2 4.3-7.3 4.6-11 .4-5.2 3.4-8.3 3.4-3.6m-130.9 5.5c-1.2 2.2-3.1 2.8-3.1 1 0-2.3 2.2-5.1 3.2-4.1q1 1-.1 3.1m22.9 5.3c0 1.9-1.8 4.3-2.5 3.6-.9-.9.4-4.8 1.6-4.8q.8.2.9 1.2m-26 2.8q0 .9-1 1a1 1 0 0 1-1-1q.1-1 1-1t1 1m137.6 5.8c-1.1 1-1.5-.4-.8-2.8l.7-2.5.3 2.3c.2 1.3.1 2.6-.2 3m-104.2-2.9c.3.4-.1 1.7-.9 2.7a9 9 0 0 0-1.5 4.7c0 3.7-1.7 6.7-3.6 6.7-1.7 0-1.3-2.1 1.2-7.4.8-1.6 1.4-3.7 1.4-4.6 0-2.7 2.2-4.1 3.4-2.1m100.2 2.8c-1 1-1.9-.5-1-1.8q.8-1.6 1.2 0 .3 1.2-.2 1.8m-112 2c-1 1-1.9-.5-1-1.8q.8-1.6 1.2 0 .3 1.2-.2 1.8m5.9-.7c.3.5 0 2.2-.8 3.7l-3.1 6.5c-.8 2.1-2 3.8-2.5 3.8-1.9 0-2.2-2-.8-4.7l3.2-6.6q2.5-5.5 4-2.7m62.3 4.2c-.2 2.7-.8 3.4-2.8 3.6-1.4.2-4.7 1.1-7.5 2.2-7.3 2.7-25.2 7.1-31 7.6l-7 .6q-2 .4-2.3-2.1c-.5-3.4.8-4.2 7.9-4.7 9.1-.7 14.8-2 27.9-6.4 14.6-4.9 15.2-4.9 14.8-.8m11.7 1.8q1.6 1.8.9 2-.7 0 .4.9c1.1.6 1 1.1-.3 2.5-2.5 2.4-4.9 1.6-5.3-1.7-.7-5.6 1.2-7.1 4.3-3.7m37.4 6.5c-1.1 3.8-1.6 4.3-3.8 4-2.9-.3-3.7-3.1-.8-2.9q1.7.2 1.7-2c0-1.2.8-3.3 1.7-4.6 1.6-2.2 1.8-2.3 2.1-.7.2 1-.2 3.8-.9 6.2m-15.9-4.1c0 1.6-1.8 3.1-2.7 2.2-.8-.8.5-3.6 1.7-3.6q.9.1 1 1.4m-110 3.5c0 2.1-1.3 4.1-2.6 4.1-1.7 0-1.8-2.2-.2-3.8 1.4-1.4 2.8-1.6 2.8-.3m98.5 3.1c1 1.2 2.4 1.9 3 1.6s3.2.5 5.6 1.6c3 1.4 7.1 2.1 13.3 2.4 4.9.2 9.5.9 10.2 1.5 1 .8 1.4 3.9 1.4 11.5 0 10.9-.5 12.1-4.7 11.5q-2.1-.1-2.3.8c0 1.4-5.7 1.5-6.5.1q-.6-.8-2-.3c-.9.3-2.9 0-4.5-.7-2.3-1-2.9-1.7-2.5-3.1q.5-1.8-.3-1.9-1 0-1.4 1.2-.5 1.1-4-1.5a17 17 0 0 0-4.2-2.7c-.4 0-1.6-1-2.6-2.2-1.3-1.7-1.8-4.2-1.9-10.5-.1-4.6-.4-9-.7-9.8-.9-2.2 2-1.8 4.1.5m-20 2.5c0 2.9-.3 3-6 4.1a67 67 0 0 0-25.2 8.8 105 105 0 0 1-27.8 10.6c-1.3 0-1.1-.6.8-3.3 1.5-1.9 2.8-5.3 3.2-8.4.9-6.9 2-7.7 9.9-6.8 6.6.7 11.1-.3 32.1-6.5 3.3-1 7.6-1.8 9.5-1.7 3.2.2 3.5.5 3.5 3.2m-61.5 1.4c0 .5-.6 1.6-1.3 2.3s-2 2.5-3 4c-1 1.6-2.4 2.8-3.2 2.8q-1.4.2-2.5 2-1.4 2.2.5 2c2.2 0 1.9 4.6-.5 7-1.6 1.6-2.5 1.8-4 1-2.4-1.3-3.3-4.2-3.3-10.7q0-5.3-1.4-5.7c-2.2-.9-.7-2.3 3.4-3.1 6-1.2 8.7-1.2 9.5-.1q.7 1 2.5-.7c1.9-1.9 3.3-2.2 3.3-.8m-42.6 2.7q3.2 1-.4 3.2c-1.8 1.1-2 1-2-1.3 0-2.7.1-2.8 2.4-1.9m18.6 1.3c0 .9-2.4 2.1-4.2 2.1q-1 0 .2-1.5c1.4-1.6 4-2 4-.6m-11.5 2.8 2.3 1.8-2.3 2c-1.3 1.1-2.6 3-3 4.2q-.9 2.5 1.4 2.3c1.6 0 1.9.6 1.6 3.6-.2 1.9-.5 3.7-.7 3.9-1 1-8.9.8-10-.3-.9-.9-.5-1.8 1.6-3.9 2.5-2.5 2.6-2.8 1.1-3.9s-1.5-1.3.5-2.4q2.1-1.1 1.5-3c-.7-2.1 1-6 2.6-6 .6 0 2.1.8 3.4 1.7m98.6 3.8c1.2 1.9 2.7 3.5 3.5 3.5q1.3.1 1.4 1.1 0 .8-.7.6c-2.9-1.8-28.6 5.6-43.2 12.5-14.2 6.6-32.3 12.8-37.6 12.8q-3.5-.1 1.6-8.2c2.7-4.1 3.6-4.8 6.3-4.8 7.3 0 34-8.1 46.3-14.1a66 66 0 0 1 18.6-6.8c1-.1 2.6 1.4 3.8 3.4m21.2 15.4 6.3 3.7c1.3.9 5.3 1.9 8.8 2.1 7.8.7 8.3 1.6 6 11.3a61 61 0 0 0 .2 26.5c.7 3.3 1.4 7.2 1.4 8.7 0 2.3 1.3 3.5 8.5 8.2 7.6 5 14.5 12.1 14.5 14.9 0 .6 2.7 3.9 6.1 7.4q5.9 6.2 5.7 8c-.2 1-1.1 1.7-1.9 1.5s-5.1-.5-9.7-.7c-9-.4-20.2-2.7-26.8-5.6a47 47 0 0 1-15.9-16.5q-1.3-3-4.4-4.2l-3.1-1.1.5-7.3 1-12.8a16 16 0 0 0-1-8q-3-5.6.5-6.7c2.8-.7 2.5-3.9-.6-6.8-2.4-2.2-2.5-2.6-1.3-5.9 1.2-3.2 1.1-3.9-.9-6.5a43 43 0 0 1-6.2-15.2c0-2 .1-2 4.3.4zm-107.5-4.2c-.2 1 1.1 2.6 3.2 4 1.9 1.3 3.6 2.8 3.8 3.2s-2.4 6.2-5.6 12.7c-3.3 6.5-6.7 14.4-7.7 17.4s-2.4 6.3-3.2 7.2c-1.3 1.5-1.3 1.9 0 3.8 1.5 2.2 1.4 4.8-.6 8.8-.9 1.8-.7 2.6 1.1 4.5 2.5 2.6 3 9.5 1 11.5-1.7 1.7-13.4 1.5-18.7-.4-4-1.3-5.9-1.3-19 .1-8 .8-17.7 2.1-21.6 2.7a56 56 0 0 1-20.8-.1c-2.1-.8-2-.9 1.2-2.9 1.8-1.1 6.1-2.3 9.5-2.7 6.4-.8 8.8-1.6 12.1-4.5a61 61 0 0 1 11.5-5c12.7-4.4 15.6-6.3 17.1-10.8.6-2 2.4-5.1 3.9-6.7 1.7-1.9 3-4.5 3.3-7 .9-7.1 4.9-22.9 6.5-25.3 1.3-1.9 2.3-2.2 8.6-2.2s7.5-.3 9.4-2.3c1.1-1.2 2.4-3.4 2.7-5 .8-2.9 2.8-3.8 2.3-1m91.2 5.9c1.4 3.9 3.3 8.1 4.2 9.4 2.4 3.2 1.1 4.8-5.3 7.2a121 121 0 0 1-46.6 6.9c-14.3 0-16.3.2-17.2 1.7-.8 1.4-2.4 1.6-12.3 1.3-6.2-.1-11.6-.5-12-.8-.5-.2-.1-1.7.7-3.2 1.2-2.3 2.3-3 6.2-3.6 7.9-1.2 35.5-11 53.8-19 6.5-2.9 22.1-7.5 24.5-7.2.9.1 2.5 3.1 4 7.3m74.1 12.3c5.7 1.1 11.7 2.4 13.2 3 1.6.6 4 1.1 5.5 1.1 1.4 0 6.5 1.3 11.2 2.9a87 87 0 0 0 13 3.5c2.5.4 5.2 1.1 6 1.6 1.6 1-10.4 1.3-55.5 1-14.3-.1-26.4-.5-26.8-.9-1.3-1.3 1.7-9 4.2-10.7 5.4-3.9 14-4.3 29.2-1.5m-68.7 10.6q1.8 1.4 1.4 2c-.3.3-4.3.5-8.9.3l-8.4-.3 5-1.6c6.3-2.1 8.5-2.2 10.9-.4m-.6 6.9c3.1 1.9-1.2 2.6-17.1 2.7-9.5 0-26.2.4-37.2.8-20.6.7-41.8-.5-41.3-2.4.2-.6 8.3-.9 22.3-.7 12.1.1 26.5-.2 32-.7a233 233 0 0 1 41.3.3"/><path d="M235 129c-2.6 2.6-2.5 3.6.5 6.5q4.4 4.5 8.5.5c2.4-2.4 2.5-3.8.4-6.8-1.9-2.8-6.7-2.9-9.4-.2m5.5 3q.4.9-1 1c-1.4.1-1.3-.5-1-1q.6-1 1-1t1 1m16.8 27.5c-4.2 2.6-6.2 6.5-2.5 5 3.1-1.3 6.6-2.4 9.5-3q2.9-.6 2.5-2.3c-.5-2.7-4.9-2.5-9.5.3m2.5 4.6c-2.6 1-4.2 3.4-3.3 4.9.8 1.3 5.9 1.9 7.7.9.9-.5 1.5-1.6 1.2-2.3a2 2 0 0 1 .5-2.1c1.5-.9.4-2.5-1.7-2.4-.9 0-2.9.5-4.4 1m-28.8 1.4q-2.7 3.6 4.2 2.8 4.3-.7 3.4.5t-2 1.2q-1.7.3-3 1.9c-1.6 1.8-1.6 2 .6 3.5 3.2 2.3 6.9 2.1 7.5-.4.8-2.9 2.6-2 3.9 1.8.5 1.8 1.6 3.8 2.3 4.5 1.1 1 1.3.4.8-3.6-.5-5.3-3.9-11-7.5-12.6-3.3-1.6-8.8-1.3-10.2.4m21.2 21.2c-3.1.6-2.2 2.7 1.1 2.6 4.5-.2 4.7-.2 4.7-1.8 0-1.5-1.3-1.7-5.8-.8m163.6 88.5c-.3.7-.1 2.4.3 3.8s.8 1.8.8 1l.7-3.8c.7-2.3-1-3.2-1.8-1m-17.1 2.5q-.6.6-.7 1.7 0 .9 1.2-.2 1-1 .7-1.7-.6-.4-1.2.2m-81.4-13.2q0 3.5.4 1.7c.2-1.2.2-3 0-4q-.5-1.2-.4 2.3m93.7 31.7c0 1.4-.3 3.5-.6 4.5s.2.6 1.1-1c1.1-2 1.3-3.2.6-4.5q-1.1-2.3-1.1 1m-182.4 29.5-1.1 5.3-.6 2.5 1.4-2.5c1.9-3.3 3-8 1.8-8-.4 0-1.1 1.2-1.5 2.7M366 377.5q-1.6 1.6.3 1.5c1.9 0 3.1-1.6 1.8-2.4q-.9-.4-2.1.9m-13 12.4c0 1 1.9 2.5 2.5 2q.1-.5-1.1-1.7c-1.2-1.2-1.4-.8-1.4-.3m-97.4 23.7c-3.9 3.8-12.2 26.1-10.5 27.9 1.1 1.1 4.9-2.7 4.9-4.9 0-2.5 6.3-17.2 8.3-19.4 1.9-2 1.9-2.4.5-3.8s-1.7-1.4-3.2.2M244.2 473q0 2.2.5 1.2c.2-.6.2-1.8 0-2.5q-.5-.9-.5 1.3m20.8 42.9c0 1.1.5 2.3 1 2.6q1 .4 1-1.9c0-2.3-.4-2.6-1-2.6q-.9.2-1 1.9m-50 27.6c-.6 1.5-.8 3-.6 3.3s1-.8 1.6-2.3.8-3 .6-3.3-1 .8-1.6 2.3m-3.8 7.7a5 5 0 0 0-1.2 2.9c0 .9-.7 2.2-1.5 2.9-1.6 1.3-2.1 4-.7 4 1 0 5.5-8.7 5-10q-.3-1.1-1.6.2m30.3 5.8q-.4.9.4 1 1-.1 1.1-1 0-1-.4-1-.6 0-1.1 1M215 577q-1.7.9-.2 2.2 1.3 1.5 2.2-.2.9-1.4 1-2.3-.1-1.5-3 .3m-2.1 7.7c-.9 1-2.1 3.6-2.7 5.9s-2.3 5.3-3.7 6.8a9 9 0 0 0-2.5 5.9l.1 3.2 1.9-2.4c1.1-1.3 2-3.1 2-4.1s1.6-4.7 3.6-8.4c3.5-6.7 4.2-10.4 1.3-6.9m.8 10.9c-1 1.9-1.7 4.2-1.7 5.1s-.9 3-1.9 4.7c-1.2 1.9-1.7 3.7-1.2 4.5q.9 1.3 2.6-4.5c1-3.3 2.7-7.3 3.7-9.1s1.5-3.4 1-3.7-1.6 1.1-2.5 3m-10.4 30.9c-.9 2.5.4 2.9 1.7.6q1-2.2 0-2.1t-1.7 1.5m4.4 2.2c-.4.3-.7 1.6-.6 2.7q-.2 3 1-.3c1-2.4.8-3.6-.4-2.4m-6.2 4c-1.3 3.3-3.3 12.5-2.5 11.6a22 22 0 0 0 2.3-5.3l2.2-6.3q.6-1.5-.3-1.7-1 .2-1.7 1.7m2.8 5.3c-.6 1.9-1.4 4.8-1.7 6.5q-.7 3.7 1.5-1.4c1.1-2.5 1.8-5.4 1.7-6.5q-.3-2.5-1.5 1.4m115.3-87.2q-.4.8.5 2.2 1 1.9.9-.8 0-3.5-1.4-1.4m-9.4 20.7c-1.4 3.1-3.2 3.2-3.2.2-.1-2.2-.1-2.2-1.4.3l-2.1 4.9c-.7 2.1-.5 2.3 1.7 1.8 1.4-.4 2.7-.4 3-.1.7.6-1.4 6.8-3 8.7-.8.9-1.2 3.1-1 4.9.3 2.9.7 2.2 3.5-5.7 4.1-11.6 5.9-22.6 2.5-15m5 4.5q0 2.2.5 1.2c.2-.6.2-1.8 0-2.5q-.5-.8-.5 1.3m3.1 2.7c-.7 1.5-1.3 3.5-1.3 4.5s-.7 1.8-1.5 1.8-1.5-.5-1.5-1.1q0-.8-1-.4c-.5.3-1 1.9-1 3.5q0 3.2 1.5 2.4 1.6-.6 1.6 1.7c0 2.2.1 2.2 1.4-.6a36 36 0 0 0 3.4-12.8q-.4-2-1.6 1m-5.6 18.9c-.4.4-.7 2.5-.7 4.6 0 2.2-.5 4.8-1.1 5.9-.5 1.1-.9 3-.7 4.2q.3 2.5 1.7-2.3l2.3-7.8c1-3.3 0-6.1-1.5-4.6m3.4 12.2c-1.3 2.5-1.4 4.2-.2 4.2 1 0 2.5-5 1.7-5.7q-.4-.3-1.5 1.5m22.5-13.3c-.3.9-.6 2.4-.5 3.3q.1 1.3 1-1.2c.9-3.2.6-4.8-.5-2.1m140.8 51.7c-3.9.4-10.2 1.9-14 3.3l-12.1 4.5a121 121 0 0 1-37.1 4c-11.1 0-14.3.3-13.9 1.2.6 1.9 24.2 2 37.5.2a93 93 0 0 0 28.7-8c6.2-2.4 8.4-2.7 19.2-2.8a57 57 0 0 0 12.3-.8c0-1.8-11.1-2.6-20.6-1.6M59 683.7c-3.1.4-17.6 2.9-40.5 7-4.4.7-10.4 1.1-13.2.8-5.1-.5-5.3-.4-5.3 2s.2 2.5 6.3 2.5c3.4-.1 9.6-.7 13.7-1.4l22.5-4.2c10.2-1.8 18.5-2.7 26-2.8 10 0 11.9.3 20 3.2 5 1.8 12.9 5.4 17.8 8.1a93 93 0 0 0 31.7 10.8c18 3.1 28 3.3 28 .4 0-1.4-3-2.2-10.5-2.7-12.1-.8-32.2-4.8-37.5-7.4-1.9-.9-6.7-3.6-10.7-5.9s-10.9-5.6-15.5-7.3c-7-2.6-9.9-3.1-18.8-3.3-5.8-.2-12.1-.1-14 .2m404 50.6c-1.5.7-2.8 2.7-3.5 4.9a15 15 0 0 1-1.6 4.2c-.3.3-3.1.8-6.3 1-6.2.4-10.9 2.8-10.4 5.4q.3 1.6 6.2 3l5.8 1.5-5.3 1.8a27 27 0 0 0-6.2 2.8c-1.7 1.7.1 4.1 4.4 6l4 1.8-2.8.7c-3.1.8-7.3 4.3-7.3 6.1 0 2 3.1 5.4 4.5 4.9.7-.3 1.5-2 1.7-3.7l.3-3.2h13l1.1 12 1.3 12.2q.3.3 2 .3c1.7 0 2-1.1 2.6-9.3.4-5.1.5-10.4.4-11.7l-.4-2.5h10.6c9.1 0 11-.3 12.8-1.9 5-4.5 2.1-6.1-12.6-7.1-8.6-.5-11.3-1-11.3-2.1 0-1.7 10.5-2 15.7-.5q3.2 1 3.9-.1c1.1-1.7-1.2-3-6-3.5-4.9-.6-6.5-2.3-1.8-2q2.7.2 2.7-1.3c0-1.1-1.8-1.7-7.4-2.2-7.8-.8-9-1.3-7.5-2.8.5-.5 3.4-.3 7.4.5 6.8 1.4 8 1.3 8-1 0-1.5-1.5-2.1-7.5-3-6.8-1-8.5-1.5-8.5-2.4 0-.4 2.5-.6 5.5-.3 6.2.5 10.5-1.5 10.5-4.8 0-4.2-12.1-6.7-18-3.7m11 3.7c0 .5-1.9 1-4.2 1q-4.6 0-2.8-1c2-1.3 7-1.3 7 0m-16.5 11.1q.6 1 .2 1.6c-.8.8-6.7-.7-6.7-1.8 0-1.3 5.7-1.1 6.5.2m.2 6.5q-.7.5-1.9.1t.6-.6q1.8 0 1.3.5m1.6 5.9c-.5 2.2-10.3 1.6-10.3-.6 0-.6 2.1-.9 5.3-.7 2.8.2 5.1.7 5 1.3m20.4 5.5q5.6 0 5 1.2-.5 1.3-3.8 1l-7.9-.6c-6-.4-6.2-.4-5.4-1.7.4-.6 1.9-.9 3.6-.5 1.7.3 5.5.6 8.5.6"/><path d="M473.4 777.5c-.4 1 0 2.4 1 3.3 1.6 1.6 1.8 1.6 3.2-.3q2.7-3.6-1.4-4.3-2.2-.2-2.8 1.3m-176.7 33.1c-.2.2-67 .5-148.5.6-140.9.3-148.2.4-148.2 2 0 1.8 7.8 2 109.5 2 375.7 0 390.5-.1 390.5-2.2 0-2-.7-2-27.7-2-15.3.1-61-.1-101.5-.3-40.6-.3-73.9-.3-74.1-.1M59.4 828.2q-.5.8.1 1.8c1.1 1.8 1.6 25.9.6 27.9-1.6 3 .9 4.4 6.3 3.6 4.9-.8 5.5-1.5 3.1-3.5-1.9-1.6-2-8.4-.1-9.9.8-.7 3.8-1.4 6.8-1.6 4.5-.3 5.8-.9 8.6-3.9 4-4.5 4.3-9.2.8-12.5-2.2-2.1-3.5-2.3-14.1-2.5-6.4-.2-11.8.1-12.1.6m17.4 3.4c2.9 2 2.9 6.7 0 9.4-2.4 2.2-4 2.5-6.9 1-1.4-.8-1.9-2.1-1.9-5.3 0-2.4.5-4.8 1.2-5.5 1.7-1.7 4.9-1.5 7.6.4m61.2-3.7c-5.3 1.1-7.6 2.7-11 7.5-2.2 3.4-3 5.6-3 9 0 6 1 8.4 6 13.4l4.1 4.4 7.7-.7c4.2-.4 8-.9 8.5-1.2s.7-2.9.7-5.9V849h-5.5c-5.5 0-7.6 1.6-3.5 2.7 2.3.6 2.7 4.1.5 4.9-2.8 1.1-8.4-1.6-10.6-5.2-1.8-2.9-2.1-4.5-1.6-8.7.5-4.3 1.3-5.8 4.2-8.5 3.3-3 3.9-3.2 8.4-2.6 5.3.7 7.1-.5 4.5-3-1.6-1.7-3.6-1.8-9.4-.7m17.6-.1c-.2.4 0 3 .5 5.7s1 9.9 1.1 16 .5 11.5 1 12.1q.8 1.2 4.6.3c2-.5 5.6-.9 7.9-.9 4.7 0 4.9-.1 5.8-5.3.6-3.1.5-3.7-1.1-3.7-.9 0-2.9 1.4-4.3 3-2.4 2.8-2.8 2.9-5.1 1.7-2-1-2.6-2.1-2.8-5.9s.1-4.9 1.7-5.7 2.3-.7 3.5.4c2.2 2.2 4.5 1.8 5.2-.9.6-2.6-1-6.6-2.7-6.6-.6 0-2.2.9-3.6 2s-3 2-3.4 2c-1.2 0-1.1-5.3.1-8.4 1.3-3.4 6.1-3.6 8.2-.4 1.3 2 1.7 2.1 3.2.9 1.9-1.6 2.1-4.2.4-5.9a53 53 0 0 0-20.2-.4m168.6.4q-1.4 1.2.7 3.2c1.5 1.7 2.1 4.3 2.7 12.1a47 47 0 0 0 2.1 12.8c3 5.9 11.2 8.4 17.4 5.1q3-1.5 6-.9c1.8.4 3.6.2 4.4-.5 1.2-1 1.2-1.5-.1-3.5-1.1-1.6-1.5-5.3-1.7-12.8-.1-9 .2-10.9 1.7-12.6 2.2-2.4 1.8-2.7-6.4-3.5-5.7-.6-9.3.5-7.5 2.3.6.5 2.1 1.1 3.5 1.3 2.5.3 2.5.4 2.8 11.8.3 13.3-.2 14.5-6.5 15.4-3.7.5-4.4.3-6.7-2.5-2.4-2.8-2.6-3.8-2.6-12.5 0-5.3.5-10.4 1-11.4q1.7-3-3.5-3.7l-4.1-.8c-1.1-.2-2.6.1-3.2.7m44.4-.4c-.2.4.1 6.8.6 14.2a54 54 0 0 1-.1 15.8c-1.3 2.7-.7 3 5.9 3.4 5.1.3 5.2-.1 2.8-8q-2.2-7.4 3.3-8 8.8-1 11.8-5.1 4-5.5.2-10.2c-1.7-2.1-2.7-2.3-13-2.5-6.1-.1-11.3.1-11.5.4M385 831c1.1 1.1 2 3 2 4.3 0 6-7.4 9.5-8.6 3.9l-1-4.1c-.6-1.9 2.3-6.1 4.1-6.1.8 0 2.4.9 3.5 2m-291.7-.8c.6 2.2-3 16.3-6.4 25.2-2.4 6-1.6 7.1 4.5 6.2 4.7-.7 7.3-2.6 3.6-2.6q-4.5.1-1.5-7.6 2.7-7.6 9.9-5.7c1.7.4 3.5.7 4.1.7a35 35 0 0 1 6.5 10.9q-.2.9-2 1.4-2 .6-1.8 2.2.4 1.5 1.1 1.3l6.7-.2c4.7 0 6-.3 6-1.5q-.2-1.3-1.5-1.5c-1.7 0-1.9-.4-7-14l-4.6-12.1c-1.4-3.5-4.8-4.9-12.1-4.9-5.7 0-6 .1-5.5 2.2m10.9 5.5c.9 2.5 1.5 5 1.2 5.5-.7 1-7.1 1.1-7.8 0-.6-1 1.3-8.1 2.7-10 1.3-1.6 1.8-1.1 3.9 4.5m189.9-6.7c-5.1 1.2-11.1 7.8-12.2 13.3-1.2 6.9 1.1 13.9 5.6 16.7a30 30 0 0 0 20.7 3c2.3-.7 4.7-1.7 5.2-2.2 1.7-1.4 0-1.7-3.6-.6-5.4 1.6-11.9-.5-16.3-5.3-4.5-5-5.1-7.9-3-13.4 1.8-4.8 5.9-8.5 9.4-8.5 3.4 0 7.1 2.9 7.1 5.6 0 1.9.5 2.4 2.4 2.4q4.1.1 5.2-5.7c.6-2.9.4-3.1-4.4-4.7a29 29 0 0 0-16.1-.6m112.2 0c-4.3 1.8-5.8 9.4-2.7 13.8 1.2 1.8 2.5 2.2 7 2.2 6.3 0 6.6.4 6.8 8.3l.1 5.2-5.5-.3c-4.2-.3-6.1-.9-8.2-2.9q-4.8-4.5-7.9 1.5l-1.4 3.5c0 .4 5.5 1 12.2 1.3 12.1.5 12.3.5 15.8-2.1 4.1-3.2 5.2-7.3 3.6-13.3-1.3-4.7-2.7-5.4-10.1-5.1-5.6.3-7-.7-7-5.2 0-6 5-7.7 7-2.4 1.2 3 4.6 3.1 6.4.2q3.2-5-7.5-5.4c-3.5-.1-7.4.2-8.6.7m-180.1 5.6c-3.1 2.2-2.8 5.3 1.7 14.2 2.1 4.2 4.1 9.1 4.5 10.8.9 3.9-.7 8-3.3 8.9-1.2.3-2.1 1.1-2.1 1.6 0 1.6 5.4 1 8.6-1 4.1-2.5 5.2-7.9 3-13.3q-1.6-3.7-.5-4.3 1-.6 1.6-.1c1 1 4.3-1.4 4.3-3.2 0-3.3-3-6.3-5.8-6q-2.8.3-2.4 2c.5 2.9-2.2 2-4.2-1.3-1.9-3.2-1.9-3.2.4-4.9 4.8-3.6-.8-6.9-5.8-3.4"/><path d="M213.3 848.5c-6.5 2.8-6.9 9.5-.6 12.1 4.3 1.8 7.6 1.2 10.9-2.1 2.9-2.9 3.1-6.8.4-9.5-2.3-2.3-6.2-2.5-10.7-.5m5.6 3.9c.9 1.1 1 2 .1 3.5q-2 4-4 0c-2.1-3.9 1.2-6.8 3.9-3.5m226.6 2.6c-3.6 1.4-4.8 3.6-3 5.4 3.3 3.2 10.6 1 9.2-2.8a5 5 0 0 0-6.2-2.6"/></svg>