<svg xmlns="http://www.w3.org/2000/svg" width="666.7" height="1170.7" viewBox="0 0 500 878"><path d="M102 53.1c-7.7 1.5-63.6 6.1-71.1 5.9-8.4-.2-7 5.7 1.7 7 2.8.5 6.8 1.6 9 2.6 2.1 1 5 2.1 6.4 2.4 4.7 1 2.1 2.5-6.7 3.8Q11 79.2 6.1 84.4q-5 5 3.5 6c2.6.3 5.3 1.1 6.1 1.8a17 17 0 0 0 6.8 1.4c3 .2 6.4.8 7.5 1.4 1.3.7 6.1 1 12 .9 8.6-.2 10.2 0 12.1 1.7 1.5 1.4 3.7 1.9 7.8 2 3.1 0 8.4.4 11.9.9 5.6.7 7 .5 13.3-2l7-2.9 5 1.8c3.5 1.3 6.6 1.7 10.2 1.3 6.2-.6 12.4.9 13.8 3.5.8 1.4.5 2.7-1 5.1-8.4 13-10.5 22.6-7.1 32.8 1.8 5.2 1.8 6.3.6 14.2A38 38 0 0 1 110 170c-3.9 6.7-4.1 7.4-2.9 10.2q1.3 3 5.2 4.8c3.5 1.6 4.5 1.6 10 .4 3.3-.8 7-2.2 8.2-3.2l5.9-4.6c2-1.6 4-2.5 4.4-2.1s-.3 1.4-1.5 2.2q-2.4 1.5-2.3 4.8c0 3.6-2.1 6.7-8.9 13.2-5.2 5-7.1 9.6-7.1 17.6a29 29 0 0 1-1.6 9.5c-1 2.4-1.8 8.3-2.1 16.5-.6 12-.5 13 1.5 15.7 1.2 1.6 2.2 3.4 2.2 4s.7 2.4 1.5 4.1 1.7 5.8 1.9 9.3.8 7.2 1.4 8.2c1.6 3.2 4.1 20.2 4.7 32.8.3 6.6 1 12.7 1.5 13.6q1 1.7-1 5.6c-1.1 2.1-2 4.4-2 5.1 0 .8-1.1 3.9-2.4 7.1a53 53 0 0 0-3.1 10.7 58 58 0 0 1-3.7 15.9q-.8 1-1.9-.1c-.8-.8-.5-2.3 1.1-5.3 2.3-4.6 2.3-8.9 0-10a32 32 0 0 0-17-2c-8.6 1.2-10.4 3.1-11 11.8l-.5 6.7-6.5-.3q-6.5-.3-11.5-2.7c-7.2-3.5-24.3-8.8-32-9.9a129 129 0 0 0-17 .3Q.1 361.6 0 367.7c0 2.2.1 2.3 2.3.9A54 54 0 0 1 12 365c6.6-2 9-2.2 20-1.7a79 79 0 0 1 35.9 8.9c13.2 6.7 22 15.6 23.5 23.8a99 99 0 0 1-3.6 29.5c-1.8 5.7-2.6 8.7-4.7 18.7-1.2 5.9-2.6 26.7-2.3 35.8.2 5.2 1.2 10.2 3.3 16.3 5 14.6 8.5 19.6 16.4 23.3 8.1 3.8 8.8 4.6 7 8q-1.3 2.5-1.5 1.3c0-.8-.6-2.4-1.4-3.5-1.4-1.8-1.6-1.8-3.1-.3s-1.6 2.4-.6 6.8c1.3 6.3 1.4 10.4.2 9.7-.5-.3-1.2-2.2-1.6-4.3s-1.5-5.4-2.6-7.5a18 18 0 0 1-1.9-6.2c0-2.7-2.8-4.4-3.6-2.1q-.5 1.4 0 2.4c.7 1.1-.3 4.1-1.4 4.1-.4 0-1.3-1.4-1.9-3.2-1.1-3-1.2-3.1-3.1-1.3-2.6 2.4-2.5 4.3.5 8.7 3.6 5.3 4.9 12.3 3.6 19.4-1.8 9.5-4.7 14.2-14.8 24.1A117 117 0 0 1 44.6 597c-3.5 1.9-7 4.1-7.8 4.7s-3.2 1.2-5.4 1c-3.7-.2-3.9-.1-3.6 2.5.3 3-1.4 3.8-3.5 1.7-2-2-4.6-.2-3.9 2.5.8 3.3-1.2 4.4-3 1.7-.8-1.2-2.1-2.1-2.8-2.1-2.2 0-2.7 2.8-.9 4.6 1.6 1.5 1.5 1.8-1.2 4.1C2 626.3 0 628.3 0 630.1q0 1.7.8 1.9c.4 0 3.4-2.4 6.7-5.3s8.7-7 12-9.2l13-8.6c3.9-2.6 9.9-6.2 13.5-8.1a152 152 0 0 0 10.9-6.4l7.4-4.7c4-2.4 16.5-12.7 19.8-16.3a45 45 0 0 0 9-15.3c1.6-5.4 3.3-6.1 6.7-2.8q5.3 4.7 12.3 6.1c2.1.4 4.8 1.5 6.2 2.6s3.1 2 3.9 2a16 16 0 0 1 4.8 3c1.9 1.7 4.6 3 6 3s3.9.9 5.5 2c1.8 1.2 4.7 2 7.4 2 3.7 0 4.9-.5 7.5-3.3 4.4-4.7 6-8.1 5.2-11.1-.8-3.3-4.1-3.5-7.3-.4-2.2 2-2.5 2.1-3.9.6-2.6-2.6-1.1-7.3 7.6-24.4 11.2-22 13.7-33.5 8.4-38.5-2.1-2-2.5-3-1.9-5.9.3-1.9.6-4.9.5-6.5-.2-10 .3-16.8 1.9-22.5a70 70 0 0 1 14.5-26.9c5.2-5.1 7.2-5 2.8 0a79 79 0 0 0-11.8 18.9l-2.5 10.1c-1.7 6.1-2 9.6-1.6 18.5.4 10.1 2.1 17.4 3.9 17.4 1.4 0 .9 3-1.3 7.1-1.8 3.7-2 5.6-1.8 24.2.2 20.7-.7 28.4-4.8 42.9-1.5 5-2.3 6.1-6.7 9.1-2.8 1.9-8.9 5.4-13.6 7.7l-11 5.6c-1.4.7-4.5 2.3-7 3.4-14.2 6.5-18.3 9.9-14.8 12.2.7.4 5.1.8 9.8.8s10.2.3 12.3.6q3.7.6 5.3-.7c.9-.7 3.4-1.2 5.7-1s5.7-.4 7.7-1.2c7.3-3.1 14.3-4 19.6-2.7 2.7.7 7.3 1.3 10.3 1.4 7.4.1 7.6 2 .6 4.1-5.7 1.6-16.5 8-16.5 9.7 0 .4.6 1.7 1.3 2.9 1 1.7.9 2.2-.8 3.6-2 1.5-2 1.5 0 1.1 1.1-.2 2.6-1.5 3.3-3q1.2-2.8 5.5-3.8c2.3-.5 5.6-1.5 7.4-2.1 3.5-1.1 8-.6 15.6 1.8a16 16 0 0 0 15.4-2.1c4.3-3 8.1-3.4 9-1 .3.9-.1 5.6-1.1 10.3a283 283 0 0 0-4.2 30.6c-.4 3.8-1.1 7.8-1.6 8.7q-.8 1.8.2 3.9c.9 1.6.8 2.4-.3 3.7-2.9 3.3-4.8 11.4-4.6 19.2a24 24 0 0 1-1 9.9c-1.2 2.2-1.7 2.3-8.5 1.8-3.9-.3-9.1-.1-11.5.5-3.4.9-8.3.6-23-1.1a213 213 0 0 1-22.6-3.6c-8-2.8-14-2.8-23.1 0-1.6.5-3.6-.6-8.7-5-12.3-10.4-18.4-11.2-29.3-3.6a52 52 0 0 1-28.9 10.2l-12.4 1.1c-1.9.2-3.2-.9-6.5-5.7-2.2-3.3-8.9-11-14.8-17.2S6 673.3 4.6 671.1C1 665.4 0 665.2 0 670c0 4 .5 4.8 11.7 16.1 6.4 6.5 13.1 14 14.8 16.6 1.6 2.6 4.5 6.8 6.4 9.3 6.7 9.1 7.5 11.6 6.2 19-1.2 6.4-1.1 6.8 1.9 13.9a82 82 0 0 1 6.6 23.8c-.7 1.7-7.9-.9-13.1-4.7-4.3-3.2-11.9-7-13.9-7-.7 0-2.3-1.1-3.6-2.5-3.4-3.6-1.6-4.8 4.5-3q10 3 5.6-1.8c-3-3.2-2.6-4 1.3-3.3 3.8.7 6-1 3.2-2.6a33 33 0 0 1-4.6-4.1q-3-3.1-5.6-3.2c-1.5 0-3.2-.8-3.8-1.8-.9-1.5-.6-2.3 2.2-4.7q5.3-4.9 1.6-5c-2.5 0-7.5-6-6.9-8.1.7-2.2.2-2.3-2.5-.9-2.4 1.3-3.7-.5-1.9-2.6 1.5-1.8.3-3.2-1.3-1.6-1.9 1.9-4.8 1.4-4.8-.8q.1-1.8 1-2 1 0 1-1.2 0-1-1.8.5c-1.4 1.3-2.1 1.4-3 .5s-1.2-.2-1.2 3c0 2.3.4 4.2.8 4.2 1.3 0 6.2 7.2 5.6 8.2-.3.4-1.8.8-3.5.8-2.4 0-2.9.4-2.9 2.5 0 2.3.4 2.5 4.6 2.5 2.7 0 4.3.4 3.9 1s-2.4 1-4.6 1c-4 0-5.2 1.3-2.3 2.4.9.3 2.8.6 4.2.6q3-.1 1.2 1c-.8.5-2.7 1-4.2 1q-2.6 0-2.8 1c0 .5 2.5 1 5.5 1s5.5.4 5.5 1-2.5 1-5.5 1-5.5.4-5.5.9c0 1.4 2.1 1.8 8.5 1.6 11.8-.5 14.1 2.3 4.6 5.5-6 2-7.1 3.1-7.1 7.6 0 5.5-1.2 9.4-2.8 9.4-1.3 0-1.3.2.1 1.8 2.1 2.3 2.1 4 .2 8.6l-1.6 3.7 6.7 6.5c3.6 3.6 8.5 7.4 10.8 8.3l9 4.1c7.5 3.4 14.9 5 23 5 10 0 11.2-1.3 9.5-10.1-.6-3.5-1.8-8.6-2.6-11.2-.7-2.7-1.8-6.7-2.2-9-.9-4.1-1.4-5.9-7.4-22.5a37 37 0 0 1-2.5-8.7c.9-1 32.4 1.8 36.1 3.1a38 38 0 0 0 19.1.3c4.6-1.3 12.9-.3 12.3 1.4-.2.7-2.7 2.2-5.6 3.3-3 1.2-6.2 2.9-7.2 3.8-1.8 1.5-1.8 1.8-.3 4.1.8 1.3 3.6 3.4 6 4.5 4 2 6.2 2.2 22.7 2.3 10 .1 30.5-.2 45.5-.7 25.6-.9 27.2-.8 27.2.8 0 1-1.8 6.1-3.9 11.4-6.3 15.8-7.2 19.4-5.4 22.8.8 1.6 2.1 3.3 3 3.8 3.9 2.2-3.8 2.5-44.7 1.9l-45.5-.5c-27.7.5-72.9 0-74.5-.8a4 4 0 0 0-3.8-.1c-.9.5-7.5.8-14.5.8L0 804.5v5.4h250c222.6.1 250 0 250-1.4q0-1.3-.9-1.5-1.3-.5-3.2-3.6c-3-4.9-11.3-8.7-27.6-12.6-19-4.5-21.1-5.6-16.3-8.6 4.6-2.8 1.2-8.5-6.3-10.7-7-2-43.1-6.6-59.4-7.5-7.2-.4-13.6-1-14.1-1.4s-3.3-.7-6.4-1c-6.8-.7-11-2.1-8.7-3 .8-.4 2.8-.2 4.3.4 2.1.8 3.2.7 4.9-.5a9 9 0 0 1 9-.3 38 38 0 0 0 22.2 2.1c3.9-.8 13.3-1.5 21-1.6l14-.2 1.7-3.4c1-1.9 2.4-3.9 3.2-4.3 2.9-1.6 8.3-1.1 13 1.2 4.2 2 5.9 2.2 15.5 1.8 11.7-.4 14.1-1.3 14.1-5.5a31 31 0 0 1 5-9.6q5-7.2 7.1-14.7c1.2-4.1 2.8-8.8 3.6-10.3 1.8-3.5 1-4.7-3.2-4.7-2.5 0-4.3 1-7.5 4-3.4 3.3-4.5 3.8-6.1 3-1.5-.9-1.9-2.2-1.9-7 0-3.3.4-6 .9-6s1.6-.3 2.5-.6q1.5-.6 2.7 2c1 2 1.9 2.6 4.4 2.6 3.2 0 6.4-2.4 5.1-3.8-.4-.4-1.4.2-2.2 1.2-1.4 1.9-1.4 1.9-1.4-.2 0-1.2.9-4.1 1.9-6.5 2.8-6.2 3.2-8 3.2-15 0-3.6.7-7.6 1.5-9.2a15 15 0 0 0 1.4-6c0-1.8.7-4.6 1.5-6.1 1.5-2.9 1.2-7.7-.7-10.1-.6-.7-.5-4 .3-9 .6-4.3 1.3-17.4 1.6-29.1l.4-21.4-2.6-1.9c-1.5-1.2-2.5-3.1-2.5-4.5q0-5.4-5-7.9c-5.7-3-14-.9-14 3.5 0 2.7-4.7 7.8-8.6 9.5-5.2 2.1-4.5 7.6 1 8.6 3 .6 2.4 2.4-.8 2.4a7 7 0 0 0-4.8 2.4c-2.3 2.9-1.9 4.7 1.1 4.3 1.9-.3 2.2 0 1.9 2.5-.3 2.8-.3 2.8-7.5 2.8-8 0-10.1 1.1-8.4 4.3.9 1.7.4 2.8-3.2 7.4a44 44 0 0 0-6.1 10c-2.3 6.4-3.7 7.3-7.5 5.3-2.8-1.4-3.4-1.4-6.3.1a84 84 0 0 0-21.5 16.7c-9.4 9.9-11.3 10.8-21.7 10.6-4.5-.1-9.1.3-10.2.9a28 28 0 0 0-10.3 12.4c-.6 2.9-1.5 3.7-8.1 7a68 68 0 0 1-8.2 3.8c-1.7 0-.6-2.2 2.7-5.8q3.5-4 2.9-5.9-.8-3.6 7.9-14c1.9-2.4 4.6-6 5.8-8 1.3-2.1 3.8-5.8 5.7-8.2 1.8-2.5 4.7-7.2 6.4-10.5 1.6-3.4 4-7.2 5.3-8.6 2.2-2.5 9.6-16.5 13.1-25a31 31 0 0 0-.1-21.3c-2.3-4.9-20.3-21.1-35.4-32l-13.8-9.6c-2.9-1.5-2.9-2.9-.2-19.3a45 45 0 0 0 1.1-15.6c-2.4-7.3 5.7-22.2 12.2-22.2 1.5 0 3.6-.5 4.7-1q1.7-1 1.9-.2c0 1.5-3.3 4-6.2 4.7-3.7.9-8.8 6.9-8.8 10.2 0 1.5 1.1 3.9 2.7 5.5 2.1 2.2 2.4 3 1.4 4.2s-.8 1.7.9 2.6 1.9 1.4.9 2.7c-1.1 1.3-1 1.7.5 2.9q2.1 1.4.8 2.7-1.8 2.6 1.6 2.7c.9 0 2.4.7 3.4 1.7 1.7 1.5 1.9 1.5 3.7-.1s2-1.7 3 .3a9 9 0 0 1 1.1 3.4c0 .7 1.1 2.3 2.5 3.5s2.5 2.7 2.5 3.2c0 3.4 20.7 8.4 23 5.7l3.1-3.9c1.2-1.6 3.7-3.2 6.2-3.9 2.3-.6 5.9-2.5 8-4.1 3.7-3 3.8-3.2 3.2-7.9-.6-4.5-.4-5.1 4-11.6 2.6-3.7 5.8-7.9 7-9.3s3-4 4-5.9c2.6-5.2 19.6-22.4 20.9-21.1 1.8 1.8 4.6 1 7.6-2.3q8.1-8.7 8.2-16.4.1-9.1 3.9-5.7c2.1 1.9 3.9 1.1 3.9-1.7 0-3.8 2.1-5.9 9-9.4l7-3.5v-4.9c0-2.7.9-7 2-9.6 1.7-4.1 2-6.9 2-22.1 0-16.4-.6-19.8-2.7-16-.4.8-2.8 2.9-5.2 4.6-4.6 3.4-6 3-6.1-1.5-.1-6.3-14.3-37.3-20-43.9-1.7-1.8-3-3.9-3-4.5a26 26 0 0 0-9.1-7.1c-.4 0-4.1-2.5-8.1-5.5a74 74 0 0 0-40.3-16.1 97 97 0 0 0-26-.4c-19.2 1.5-32.5 4.7-32.5 7.6 0 1.8 1.7 1.8 6.6 0 6.4-2.2 27.2-4.9 38.1-4.8 11.7 0 31.3 2.9 32.9 4.9.6.7 2.6 1.9 4.5 2.7 4.4 1.9 12.1 7.1 12 8.1 0 .5-3.2 1.6-7 2.6s-8.7 2.9-10.8 4.4a71 71 0 0 0-15.7 17c-3 4.3-3.2 3.7-1.2-3.7a46 46 0 0 1 9.6-19.5c5.9-8.5 6.5-10.3 3.2-10.3-2.1 0-11.3 5.2-13.1 7.4-1.6 1.9-3.1 2.1-3.1.3q0-1.2-1.2-2.5c-1.6-1.6-8 2.1-12.2 7.3a56 56 0 0 0-9.6 18.3c0 1-1.1 2.9-2.5 4.2-3.1 2.9-3.1 1.8 0-7.5a77 77 0 0 1 12.7-23q3.6-4.8 2.8-5.9c-1.6-1.6-6.2 3.7-13 14.9a59 59 0 0 1-6.8 10.1c-.2-.3 1.2-3.7 3.2-7.7 3.7-7.2 3.9-9.2.8-7.3-4.5 2.9-13.2 21-13.2 27.6 0 1.4-.7 4.7-1.5 7.4s-1.5 6.2-1.5 7.7c0 1.6-.4 2.6-1 2.2-1.7-1-1.1-11.2 1.1-20.9 2.5-10.6 7.6-21.5 11.6-24.5l5.3-4.1c1.9-1.4 2.2-2.1 1.3-3.1-3-3.1-12.5 4.3-17.6 13.9A84 84 0 0 0 354 365q0 9.6-1 8a83 83 0 0 1 0-24.5c.8-3.5.7-4.2-1.2-5.6l-2.1-1.7 2.1-3.6 2.2-3.7-2.4-3.2c-5.3-7-9.3-21.3-9.7-34.7-.2-6.9.2-9.7 2.2-14.9l2.4-6.4-2.3-1.5c-1.8-1.2-2.2-2.4-2.2-6.3 0-4.1.4-5.3 2.9-7.5 6.3-5.6 6.5-13 .5-18.3-3.8-3.4-5.1-3.7-8.8-2l-2.5 1.2 1.8 3.6c1.4 2.6 1.8 5.3 1.6 9.6l-.4 11.1-.1 5.2-4.6.7c-6.1.9-7.4-.4-7.4-7 0-5 .1-5.3 3-5.9 2.9-.5 4-2.8 2.1-4-.6-.4-.5-2.1.1-4.2 1.2-4.7.3-8.6-2-8.2-1.4.3-1.7 1.5-1.7 6.6 0 5.7-.2 6.2-2.1 6.2-4.6 0-6.3-7.2-2.7-11.2 1.5-1.7 1.5-1.9 0-3.6-1-1-1.7-2.9-1.7-4.3a64 64 0 0 0-5.5-16.9q-1.8-3.2-.6-4.3 1-1 2 1.5c1.9 4.9 4.5 4.4 5.3-1 .6-4.1-.9-5.4-6.6-5.4-4.3 0-4.4-.1-6.4-4.8-1.1-2.6-1.7-5.2-1.3-5.8s2.4-.9 4.6-.8c3 .1 4-.3 4-1.4q0-1.5-5.5-2.7l-5.5-1.1 5.2-.1c5.7-.1 7-1.1 5.1-4-.9-1.5-.9-2.3.2-3.6 1-1.3 2.9-1.5 9.4-1.3 8 .3 8.1.3 8.4 3q.2 2.9 2.9 3.4c3.1.8 16.2-.3 20.3-1.8q3.3-1.2 4.3.1c2.1 2.1.5 2.5-14.5 3.7q-7.8.7-8.2 2.1c-.9 2.1 1.8 2.6 11 2 4.6-.2 8.4-.2 8.4.1l-2.2 6.4c-2.1 5.9-2.2 6-5.2 5.2-5.5-1.3-9.1-1-9.1.6q0 1.5 3.5 1.8c5.6.6 8.7 4.3 3.3 3.9q-2.8-.2-2.8 1.3.2 1.3 1.8 1.4c2.1-.2 2.2 1.9.1 3.7-1.4 1.1-1.9.9-3.6-1.4-2-2.8-5.1-3.6-6.3-1.6-.4.6.3 2.2 1.6 3.5 2 2.1 2.1 2.7.9 3.5-.8.5-3.4.8-5.7.5-4.8-.6-7.4 1.2-4.8 3.4 2 1.7 10.5.4 12.1-1.8 1.7-2.3 3-.8 1.7 2-.8 1.9-1.8 2.2-7.2 2.4-3.4.1-6.8.7-7.4 1.3-1.9 1.9.8 2.9 5.9 2.3 2.7-.3 5 0 5.8.8q1.5 1 2.5.6c.5-.4 6.2-11.1 12.7-23.9l14.1-27.8c1.3-2.5 2.6-6.2 3-8.2.5-3.3.2-4.1-3.1-7.2-4.8-4.5-8.2-5.4-26.6-6.9a120 120 0 0 0-36.4 1.3c-11.8 1.6-18.5 6.6-17 12.7.4 1.6 3 6.5 5.9 10.9s5.9 10 6.8 12.5a134 134 0 0 0 7.9 18.7 92 92 0 0 1 6.8 18.5c0 1-1 2.3-2.2 2.9q-6.9 3.5-6.8 8.6c0 4.5 1.4 7.1 5.8 10.9l3.5 3.2-3.4 1.7c-1.9 1-6.2 4.6-9.6 8.1q-6.4 6.5-8.7 6.4c-3.2 0-4.2 1.7-2.4 3.8 1.1 1.3 1.4 4.5 1.4 12.2-.1 5.8-.5 10.5-1 10.5s-1-4.5-1.1-10a63 63 0 0 0-.9-11.6c-1-2.3-7.4-3.1-15.3-1.9-12.5 1.9-23.3 1.9-27.2.2-5.1-2.3-8.1-5.2-8.1-7.7 0-1.2-.8-3-1.9-3.9s-2.1-3.5-2.5-5.7c-.8-5-4.5-14.2-9.6-23.9-2.2-4.1-5.1-10-6.5-13-3.7-7.8-10.5-18-12-18-.7 0-2.4-1.5-3.8-3.3a53 53 0 0 0-8.6-7.8c-6.1-4.4-6.1-4.4-5.5-8.4.3-2.2.8-4.2 1-4.4.3-.3 2.6-.5 5.3-.6 6.3-.1 9.7-2.4 11.2-7.6 1.4-4.6.7-6.7-3-8.5-4.1-2.1-4.5-3.1-2.7-5.8.9-1.5 2.3-2.6 3-2.6 3.4 0 3.8-2.7 1.6-11.1-2-7.7-2-8.4-.5-12.2.9-2.2 3.6-5.8 6.1-8 2.4-2.1 4.9-4.8 5.5-5.8q2.2-4.4-5.6-7.9c-2.3-1-4.6-2.3-4.9-2.9-.4-.5.6-3.2 2.1-5.9l2.7-4.9-5.4-6.1a48 48 0 0 0-9.6-8.4l-4.2-2.2-4.2 4.3c-5.1 5.2-6.4 4.7-2.1-.7a16 16 0 0 0 3.1-5.5c0-2-7.7-9.7-12.2-12.1l-3.6-2-4.2 4a88 88 0 0 0-9.1 10.6c-4.6 6.3-5.2 6.8-8.7 6.8-2 0-5.8.7-8.3 1.4-5.2 1.6-6.9.8-6.9-3 0-1.2-1.1-2.9-2.5-3.8-2.4-1.6-2.5-1.9-2.3-11.9.3-9.8.2-10.5-2.5-14.6a15 15 0 0 0-5.3-5.1c-3-1.2-15.1-1.1-21.4.1m20.6 5.3c2.8 2.8 3.4 4.2 3.5 7.7l.3 10.1c.3 6.8-.9 6.8-1.8.1-1.2-8.2-2.6-12.1-5.3-15.3l-2.6-3.1-12.6.6c-6.9.4-17.8 1.3-24.1 2-20.2 2.4-25 2.7-25 1.7 0-.5 3.9-1.3 8.8-1.6 14.1-1.1 36.5-3.7 39.7-4.6 1.7-.4 5.9-.9 9.4-.9 5.9-.1 6.5.1 9.7 3.3m-82.1 4.2c9.3.6 9.6.8 1.5 1.4-8.5.6-12.6-.2-11.4-2.1q.8-1 3.3-.3c1.4.4 4.4.9 6.6 1m71.8-1q.6.7.2 1.4c-.6.9-6.5 0-6.5-1.1 0-1 5.3-1.2 6.3-.3m-9.1 4.1c2.5 2.4 5.3 6.3 7.1 10.3 1.6 3.6 4 8 5.4 9.7 1.3 1.8 1.9 3.3 1.4 3.3-1.2 0-7.6-8.7-10.5-14-1-1.9-3.3-4.8-5.2-6.3L98 65.8 91.8 68c-6.2 2.1-22.9 6-25.8 6-3.5-.1 2.2-2.8 7.2-3.4 2.8-.4 7.1-1.6 9.4-2.7 2.4-1 4.9-1.9 5.6-1.9.7-.1 2.9-.9 4.8-2 4.8-2.6 5.4-2.5 10.2 1.7m15.3-1.6q.7 2.2-.6 3c-1.9 1.1-2.9-.2-2.3-2.9.8-2.8 2.1-2.8 2.9-.1M77 65.5c-3.5 2-6.2 1.9-3.6 0a8 8 0 0 1 4-1.5c1.9.1 1.9.2-.4 1.5m20 6c0 .8-5.8 3.5-7.5 3.5-2.1 0-.9-1.9 1.9-3 2.3-1 5.6-1.3 5.6-.5m23 1q0 1.3-.9 1.5c-1.3 0-2.2-1.6-1.4-2.4 1.1-1.1 2.3-.6 2.3.9m61.4 3.8c3.1 2.9 5.6 5.8 5.6 6.5 0 .6-2.9 4.4-6.5 8.4-6.8 7.5-7.8 10-4.6 11.7 1.6.9 2.9-.1 9.1-6.9 4.3-4.8 7.9-8 9.1-8 2 0 10.3 7 12 10.1.7 1.5-.1 2.4-4.8 5.6a278 278 0 0 0-27.1 21.7 10 10 0 0 1-4.4 2.8q-2.1.3-2.9 3.2c-.8 2.8-4.5 7.6-6 7.6-.4 0-1-1.4-1.4-3-1.4-6.2-8.1-7.5-13.2-2.8q-4.3 4-.2 9.2c1.6 2 2.9 2.6 6 2.6 2.1 0 3.9.4 3.9.8 0 1.1-4.5 3.2-6.8 3.2-3 0-7.9-3.7-8.6-6.5-.8-3.2 2.5-9.7 6.2-12.1 2.1-1.3 2.3-2.1 1.9-5.1-.5-2.9-.1-4.2 1.8-6.5 3.1-3.6 3.1-3.6 0-7.8-2.4-3.2-2.4-3.5-.8-5.9l6.2-10.1 7-11a69 69 0 0 1 12.2-13 41 41 0 0 1 6.3 5.3M82 75.8c0 .9-6.6 2.7-13.9 3.8q-4.5.7-3.7-.5c.4-.6 1.7-1.1 2.9-1.1s4.5-.7 7.2-1.4c6-1.7 7.5-1.9 7.5-.8m20 .2q-.2.9-1.5 1c-1.3.1-1.5-.5-1.5-1q.2-1 1.5-1c1.3 0 1.5.4 1.5 1m-61.5 3c-.3.5-1.6 1-2.8 1q-2.6.1-.7-1c2-1.3 4.3-1.3 3.5 0m53.1 2.5q-3.5 2.6-3.6.6c0-1.1 1.8-1.9 4-2q1.7-.1-.4 1.4M58 82c0 1.7-6.2 4.2-8.9 3.7-1.4-.3-3.7.1-5.1.8q-4.9 2.7-5 .2c0-2.2 7.4-5.1 11.3-4.4 1.9.3 4 .1 4.8-.4q2.8-1.7 2.9.1m23 .4c-3.4 1.8-8 2.8-8 1.8s5.5-2.9 8.5-3q2.6-.3-.5 1.2m14.5 5.3c-2.2 1.6-4.5 1.7-4.5.3s4.1-3 5.4-2.2q.7.6-.9 1.9m13.6.6c-.1 1.2-1.5.9-1.9-.4q-.3-1 .8-.8 1 .5 1.1 1.2m21.8 3.8c1.2 2.8 1.2 3.3-.7 5.1-3 3-5.3 1.8-4.5-2.4.6-3.3 2-5.8 3.2-5.8.3 0 1.2 1.4 2 3.1M100.5 91c-.3.5-1.3 1-2.1 1s-1.2-.5-.9-1 1.3-1 2.1-1 1.2.4.9 1M86 93.5c-5.7 3.3-7 3.7-8.7 3.1s-1.6-.9.7-2.6c1.5-1.2 4.1-2 6.5-2 4 0 4 0 1.5 1.5m-18.4 1c-2.6 1.9-4.2 1.9-2.6 0 .7-.8 2-1.5 2.9-1.5 1.3.1 1.3.3-.3 1.5m42.9.5c-.3.5-1.5 1-2.6 1-1 0-1.9-.5-1.9-1s1.2-1 2.6-1q2.3 0 1.9 1m40 1c.2.4-.9 2.8-2.5 5.4-3.6 5.6-3.7 6.8-.9 10.5l2.1 2.9-2.6 3.5c-2.1 2.7-2.4 3.9-1.8 5.8.8 2 .2 3.3-3.4 7.7-4.6 5.6-5 7.4-3.4 13.3 1.2 4.4 7.1 8.9 11.7 8.9 7.1 0 11.6-3.8 19.7-16.5a93 93 0 0 1 18.1-19.4l9.2-7.5c1-.5 4.2.8 7.3 3.2q.3.3-1 1.2c-1.3.9-1.1 1.2-.7 1.6.3.4 1.4.1 2.2-.6q1.5-1.3 2.6-.3.8 1-6 5.5c-6 4-7.1 4.4-8.2 3.2q-1.2-1.6-2.3-.4-1 1 .2 2.2c1.9 1.9-1.5 5.1-4 3.7-1.5-.8-2.3-.8-3.2.1q-1.3 1.3.2 1.7 3.4 1.3-3.2 6.6-4.3 3.7-5.4 2.5c-1.6-1.6-3.6 0-2.1 1.8.9 1.1.9 1.7-.1 2.9q-2.4 3.2-3.4-.7-.5-2.6-1.8-1c-1.3 1.6-1 1.7 0 3.2q2 3.7-3.6 3.1c-2-.2-2.2.1-1.6 2.3.7 3-1.7 4.6-4.1 2.6-2-1.6-3.6-.3-2.9 2.4.4 1.7-.1 2.5-2 3.4-2.3 1-2.6.9-2.6-.8q-.1-1.8-1.4-2c-2.3 0-3.1 2.2-1.2 3.5 1.5 1.2 1.4 1.5-1.1 3.4-9 7-16 10.9-18.6 10.4q-2.8-.6-2.7 1c0 .8.7 1.8 1.6 2.1q4 1.4-6.1 4.1c-6 1.7-6.6 1.7-9 .1-1.4-.9-2.5-2.6-2.5-3.7 0-1.8.4-2 3.2-1.4 1.8.4 4 1.2 4.9 1.8s2.4.7 3.3.4c2-.8 1-3.7-1.4-3.7-1 0-2.3-.7-3-1.5s-1.9-1.5-2.6-1.5c-1.8 0-1.8-1 .1-3.8 2.3-3.1 4.5-11 4.5-15.9 0-2.3.5-4.5 1.1-4.9.6-.3.8-1.6.4-2.8a61 61 0 0 1-2.4-20.6c.4-2.6 2.7-8.2 5.1-12.5a35 35 0 0 1 18.2-16.7c3.7-1.4 8.1-1.3 9.1.2m53.5 33.1c0 2.9-.7 5-2.5 7.1-3 3.6-3 3.9-.5 7q1.8 2.5 2.2 7.9c.3 5.1.2 5.4-2 5.1q-2.4-.5-2.9 1.7c-.5 2-4 3.3-7.8 2.8q-2-.2-2 1.8c0 1.7.6 2 3.6 1.7q7-.7 2.3 4.1c-2.4 2.7-2.5 2.7-6.2 1.1-2-.9-5.3-2.1-7.2-2.6s-5.1-1.8-7-2.8-4.6-2.2-6-2.8c-2.4-.9-2.4-1 1.7-2.1q4.3-1.1 4.9-3.4c.3-1.2 2.1-3.4 4-5a17 17 0 0 0 4.5-6.5c1.3-4.2 3.6-7.2 5.5-7.2.7 0 2.6 1.3 4.2 3 3.7 3.6 4.2 3.7 4.2.7 0-1.3 1.1-3.3 2.5-4.5s2.5-2.6 2.5-3.2q-.2-1.1-2.5-2.2c-3.1-1.4-3.1-2.2-.3-4.2 3.7-2.6 4.8-2 4.8 2.5m-35.4 37.5c11.4 4.5 28 9.4 32.1 9.4q5.6-.2 1.3 3.5c-1.6 1.4-3.7 1.8-10.5 1.7-4.7 0-9.1-.4-9.8-1a32 32 0 0 0-12.8-2.7c-2.6-.2-6.2-.6-8-1-2.7-.6-2.9-.9-1.6-1.7 2.5-1.3 2.3-6.8-.3-7.5-2-.5-2.6-2.3-1.3-3.6 1-1 1.3-1 10.9 2.9m188.9-.7q8.7 1.5 8.5 5.6c0 1.3-.4 2.7-1 3q-.9.3-1-1.3c0-2.7-5.7-3.6-7-1.1-.6 1-.7 2.4-.4 3.3 1 2.6-2.7 3.4-17.7 4.2-17.1.8-36.2-.2-35.6-1.9q.4-1.2 13-1.5c11.4-.2 12.7-.4 12.7-2q0-4.2 6.2-4.2 3.6 0 4.6 1.7 1 1.5 2.6 1t1.6.8c0 2.7 3.8 3.8 7.5 2.1q5.4-2.6 3.5-5.6c-.7-1.1-1.1-1.1-2.5 0s-1.9 1-4-1c-2.8-2.7-4.4-2.8-28.5-1.6-10.3.5-18.8 1.4-20.7 2.2-3.4 1.4-4.3 4-2.1 6.2q1.4 1.3-.4 1.2c-2.7 0-4.1-2.6-2.8-5q2.3-4.1 15-6.7c6.9-1.3 40.7-.9 48.5.6M157 178.7l9 1.3c6.5.8 15.7 3.7 19.8 6.3 1.8 1.2 1.5 4.4-.5 5.6-1.6.9-1.5 1.3 1.2 3.5 1.7 1.3 2.7 2.8 2.3 3.2-1.1 1-8.6-1.6-11.2-3.9-2.1-1.8-2.1-1.8 1.3-1.1 2.6.5 3.2.3 2.9-.7-.3-.8-1.4-1.3-2.4-1.2a38 38 0 0 1-6.8-.8c-8.4-1.6-25-1.3-28.5.5q-6.8 3.6-5.6-.7c.4-1.2.9-3.9 1.2-5.9s1.1-4.2 1.9-4.9c2.9-2.4 10-3 15.4-1.2m208 2q-.2 4-4.4 2.2-2.8-1.3-1.4-2.1c1.6-1 5.8-1 5.8-.1m-8.3 1.9q-.7.5-1.9.1t.6-.6q1.8 0 1.3.5M345 184c0 .5-1.8 1-4.1 1-2.4 0-3.8-.4-3.4-1s2.2-1 4.1-1 3.4.4 3.4 1m-171.8 21.2c-1.8 1.9-4.2 1.8-4.2-.1 0-1.1 4.3-3 5.4-2.4q.5.7-1.2 2.5m-11.7 2.9c4.8 2.1 15.3 8.4 19 11.4 2.3 1.8 5.7 6.3 7.9 10.4 3 5.4 5 7.7 8.3 9.6 4.8 2.9 5.3 4.3 2.3 7-1.5 1.4-2.9 1.6-6.4 1.1-6.2-1-10.4 1.2-10.8 5.5-.3 3.5-.6 3.7-9 6.9-5.6 2.2-14.8 10-14.8 12.6 0 3.1-3.1 1.6-8.2-3.7l-5.6-5.9 6.1.6c6.8.6 11.7-.6 11.7-3.1 0-1.7-.9-1.9-4.2-.6-3 1.1-14.8-1-18.4-3.4-2.6-1.7-6.1-1.4-4.9.5q.4.9-1 1c-1.4.1-2.2-1.5-3-3.3-1.9-4.5-2.6-4.9-4.8-3-1.8 1.7-1.9 1.7-3.2-.1-1.7-2.3-.9-5.2 1.1-3.5 2.2 1.8 3.6 0 2.9-4l-.6-3.6 2 3.1c4.1 6.6 14.3 12.1 23.8 12.9q9.4.8 8-2.9c-.5-1.2-1.6-1.4-4.9-1-3.5.5-5.7 0-11.1-2.4a47 47 0 0 1-9.1-5.5c-3.2-3.2-4.9-9.6-4.7-17.5.1-6.2-.5-7.2-2.7-5s-2.2-.1.2-5.6c2.2-5 3.1-5.9 7.8-8.1 4.9-2.3 6-2.5 14.8-1.9 5.2.4 10.4 1.1 11.5 1.5m36.1.3q1.7 1.4 1.4 1.9c-.3.3-1.6-.3-3-1.3-2.9-2.2-1.4-2.7 1.6-.6m-5.2 7.5c1.1 1.7-.5 4-2.2 3.4-2.6-.9-4.2-2.4-3.6-3.4.7-1.2 5.1-1.2 5.8 0m7.6 6.1c1.3.9 1.1 1.3-1 3-3.8 3-6.8.9-3.5-2.4 1.9-1.9 2.5-1.9 4.5-.6m15.4 9.5 2.6 5-2.7.5c-2.1.4-2.7 1.1-2.6 2.5l.5 4.5c.4 3.8-2.7 3.8-4.7 0a25 25 0 0 0-6.5-6.6c-2.8-2-5-4-5-4.5 0-1.6 5.8-3.9 9.7-3.6 3.3.2 3.8-.1 4.1-2.2.4-2.8 1.2-2.1 4.6 4.4m102.1 12.1c-2.9 4.3-3 5.2-.9 8.2 1.5 2.2 1.1 4.7-.7 3.6a28 28 0 0 1-4.9-9.4c0-1.8 4.8-6 6.9-6 2 0 1.9.1-.4 3.6m25.8.1c1.5 5.4 1.6 7.4.5 9.7-1.3 2.9-4.5 3.7-3.3.8 1.4-3.6 1.7-8 .6-10.1-1-1.7-.9-2.1.3-2.1.8 0 1.7.8 1.9 1.7m-145.7 14a234 234 0 0 0 15.2 14.7l8 6.9-4.7 6.1-9.5 13.3q-6.6 9.9-6.6 6.5c0-.4 1.1-2.4 2.5-4.4s2.5-4.4 2.5-5.2c0-2.4-2.1-3-2.7-.7-.5 2.1-5.9 5.5-6.7 4.2-.3-.4 1.3-3.3 3.4-6.5 6.2-9.1 3.1-11.9-4.5-4-5.1 5.2-6.3 3.6-1.5-1.9a16 16 0 0 0 3-4.1c0-.3-1.4-.6-3-.6-2.6 0-3.6.8-6.2 5-1.7 2.7-3.5 5-4 5-.9 0 1.2-4 4.9-9.5q2.8-4.4-.7-4.5-2 0-2-2c0-3.6-4.7-2.4-6.9 1.8q-1.2 2.1-1.8 1.8c-.3-.3.7-2.4 2.2-4.6 3.2-4.6 2.4-7.1-1.5-5-1.2.6-2.3 1-2.5.8a21 21 0 0 1 1.9-4.8c1.6-3.5 2.7-4.6 4.9-4.8 3.3-.4 6.1-4.3 5.2-7.1-.3-1.2-.3-2.5 0-3.1 1.4-2.3 4.2-.6 11.1 6.7m4.8-3.5c2.4 3.4 1.9 4.4-.9 1.8-1.4-1.3-2.5-2.7-2.5-3.2 0-1.6 1.9-.8 3.4 1.4m20.9.5c3.2 2.4 6.2 7.9 5 9.2-.2.3-2.1-1.4-4.4-3.7-2.2-2.3-4.7-4.3-5.7-4.4l-3.2-.4-2.4-.3q-.7-.3.4-1.6c1.9-2.3 6.3-1.8 10.3 1.2M322 263c0 2.9-.5 4.2-2 5q-1.8 1.1-2 1.9c0 1.6 6.1 3.1 12.4 3.1 6.2 0 11.2 1.7 10.5 3.5-.2.5-2.5 1-5.1 1-8 0-9.3 4-1.5 4.7 4.2.3 5.5 2.2 1.7 2.5-3.6.2-8 2.1-8 3.3 0 .6 1.6 1 3.8.8 5.4-.4 4.9 2.2-.6 3.6-5.3 1.3-5.9 3-1.4 3.4q3.2.4 2.9 1.5c-.5 1.6-16.6 1.4-19.6-.2-1.1-.7-2.1-2.1-2.1-3.2 0-1.8-.4-2-2.5-1.5q-2.7.7-2.5-.9c0-2.1-3-3.1-4.1-1.4q-.9 1.5-.9-2a9 9 0 0 0-1.5-5.1c-1.3-1.4-.7-2.3 5.8-8.7 4-3.9 8.6-7.8 10.3-8.6 1.8-1 3.4-2.7 3.8-4.2 1-3.9 2.6-3 2.6 1.5m-100.7 3.4c1.5 1.9 2.7 3.7 2.7 4 0 1.5-2.9.4-5-1.9-1.3-1.4-3.2-2.5-4.2-2.5-2 0-2.4-2-.6-3.8q2.2-2.3 7.1 4.2m-84.3 4.8c0 1.3-2.3.5-2.8-1q-.3-1.1 1.2-.6t1.6 1.6m98.8 4.6a18 18 0 0 1 1.4 6.2c0 7.9-.9 15.1-2 16.2-.9.9-.8 1.6.4 3 1.6 1.6 1.5 1.8-1 2.7-2.7 1.1-3.6 3.1-1.2 3.1 1.8 0 3.6 2.3 2.8 3.6-.4.6-2 1-3.7 1-4.1-.1-3.9 2.6.3 3.8 4.4 1.2 4.1 2.6-.6 2.6q-7.4 0-3 3.2l2.3 1.8h-2.7c-3.8 0-4.5 1.8-1.2 3 3.6 1.4 5.9.9 5.8-1.3-.3-2.6 1.3-2 2 .8.8 3.3-.9 10.7-2.8 12.1a29 29 0 0 1-8.3 1.8c-6.5.7-6.7.6-9.7-2.4-3.3-3.3-2.6-3.4 4.1-.4 3.3 1.5 11.3 1 11.3-.8 0-1.1-1.4-1.5-8-2.3-4.8-.5-5.7-1-7.2-3.5-1.3-2.3-2.4-3-4.8-3-1.6 0-3-.4-3-.9a47 47 0 0 1 3-7.3q2.9-6.5 5-7.1c1.8-.5 1.9-.8.9-2.5-1.1-1.7-.8-2.7 1.9-6.9a43 43 0 0 1 6.2-7.6c1.6-1.5 3.6-4 4.5-5.8q1.7-3.3 3.6-2.6c3.1.8 4-2.2 1.8-6.2-1.9-3.6-2.5-7.2-1.2-8.4.9-1 1.4-.2 3.1 4.1m-97.5 1.8c2.8.6 3.8 2.4 1.3 2.4-2.4 0-7.6-2.2-7.6-3.2q.2-.8 1.8-.4zm91 1c1.2 1.2-4.5 10.7-9.9 16.4a77 77 0 0 0-7 7.9c-1.7 2.3-3.4 2.8-3.4.8a89 89 0 0 1 13-21c3.9-4.4 5.9-5.5 7.3-4.1m-76.3 4.5c0 1.2-7.6 5-8.4 4.2-1.2-1.2-.6-4.2 1-5.1 1.8-1 7.4-.3 7.4.9m134.6 3.9c.9 2.6.8 4.1-.1 6.5a14 14 0 0 0-.9 6q.8 4-.6.7c-1.3-3-3.4-2.3-4 1.3-.7 4.2-2.5 3.6-2.8-1q-.6-7.2-3.7-4.5-1.4 1.4-1.5 5.7c0 5.6-2.1 5.4-3.3-.3-.4-2.1-1.2-4.3-1.7-4.8-1.7-1.7-3.4 1.1-3.4 5.4-.1 5.2-2 5.7-2.4.5q-.6-7-3.8-5.8c-.8.3-2.1 0-2.9-.7a4 4 0 0 0-3.4-.5 6 6 0 0 1-3.9-.6c-1.7-1.1-1.8-1.7-1-4.3 1.5-4.5 1.7-4.6 9.3-5 14.2-.9 26-1.9 26.4-2.2 1.1-1 2.7.5 3.7 3.6m-149.2-.4q1.6 4.3-1.3 4.4c-2.2 0-3.4-3.3-1.8-4.9q2.2-2.3 3.1.5m104.6.8c0 .8-.4 1.8-1 2.1q-.9.3-1-1.4.1-2 1-2.1 1 .1 1 1.4m-73.2 2c1.6 1.7 1.6 1.8-.4 1.2-5.8-1.7-14.2.1-18.5 4-1.9 1.7-6 1.6-6.6-.2-.2-.7.9-1.6 2.4-2.2 1.5-.5 3.9-1.8 5.2-2.9 3.3-2.7 15.2-2.6 17.9.1m71.9 5.8q-.5 1-.5-1.2c0-2.2.2-1.9.5-1.3.2.7.2 1.9 0 2.5m-74.8-.1c5.9 1.2 6.5 1.9 5.6 5.9-.8 3.5-1.7 3.7-5.5 1-5.8-4.2-16-1.8-16.8 3.9-.3 1.8-.9 2.2-3.5 1.9-3-.3-3.2-.5-3.2-4.3 0-3.9.1-4 4.3-4.7 2.4-.4 5.8-1.6 7.5-2.7 3.8-2.3 5.1-2.4 11.6-1m138.1 6.5c0 1.1-7 19.3-9.6 25-.7 1.5 12 14.4 14.1 14.4s1.9.2-1 5.8a38 38 0 0 0-3.5 23.9c.6 4.3 1.9 9.6 2.9 11.8 5.7 11.9 8 19.8 8.1 26.7 0 2-.4 4-1 4.3q-1 .4-1-3.3c0-2.8-1.8-7.3-6.5-16.6-7.1-13.8-8.9-19.9-8.6-29.1.2-4.5.9-7.3 3.2-11.2 3.3-5.9 3.6-7.8 1.4-8.7-1.9-.7-4 1.5-7.2 7.8-6 11.6-4.7 22.1 5.2 41.4 5.4 10.5 6.6 13.8 7.1 19.2.3 3.6.9 6.9 1.4 7.4 1.1 1.1.1 3.6-1.5 3.6-2.4 0-5.2-5.3-5.8-11q-.6-5.5-5.6-15.5a61 61 0 0 1-8.6-31c-.2-5.5-.6-10.9-1-12-.5-1.7.2-2.5 3.7-4.5 2.4-1.3 6.3-4.4 8.8-6.9 3.5-3.7 4.1-4.6 2.7-4.9-1-.2-3.9 1.6-6.9 4.3A62 62 0 0 1 285 350c-6.8 3.4-21 7.4-22.2 6.2-.5-.5-.5-2.7.1-5.3 1.2-5.2 1.3-15.8.2-21.6q-.8-4.1-3.7-6.6c-1.6-1.4-2.6-2.9-2.2-3.3.5-.4 5.2-1.1 10.5-1.5 5.4-.4 10.6-1.1 11.6-1.5s2.8-.1 4 .5c3.2 1.7 9.6.1 11.8-2.9a15 15 0 0 0 2-7.5c.1-2.8.6-5.5 1-6.1 1.2-1.5 6.9-.5 6.9 1.2m34.4 10c1.4 5 3.5 11.3 4.6 13.9 3.3 7.8 3.1 8.1-7.5 9-26.9 2.5-25.5 2.5-25.5 0 0-1.9 5.5-3.2 17.5-4 10-.6 12.3-1.4 11.1-3.4-.5-.8-4.8-.9-13.8-.5l-13.1.6.7-4.3c1-6 2-6.9 8.3-6.9q9.1 0 9.3-3.6c0-1.2-.7-1.3-3.7-.7-6.4 1.2-12.1.3-10.8-1.8.4-.6 1.9-.7 3.6-.4 3.6.8 6.9-.2 6.9-2.1q.1-1.4-4-1.4-4.2 0-4-1.5t2.3-1.6q12.8-.7 13.5-1.4c1.1-1 2 1.1 4.6 10.1m-29.4-3.9q0 .9-.9 2.2t.4 3.5c1.7 2.8.3 6.6-2.5 6.6q-3.5 0-.8 2.8 1.4 1.3-1 1.2-4.2.1 0 4.7 2.1 2.3 1.2 3.3t-3.8-1.9l-2.9-3 2-4.3 4.4-10c2.1-5 3.9-7.4 3.9-5.1M138 312q0 1.8-1 2-.9-.2-1-2c-.1-1.8.5-2 1-2q1 .2 1 2m105.1.2.8 6.1c.6 3.6.4 5-.6 5.9-1.2 1-1.2 1.3.2 2 1.9 1.1 1 2.8-1.6 2.8-1.5 0-1.9-.7-1.9-3.8 0-6.2 1.2-14.2 2.1-14.2q.8.2 1 1.2m-86.5 5.8c2.2 0 2.3.2 1.4 2-.6 1.2-1 3.3-.8 4.8.2 2.3.7 2.7 3.1 2.5q2.7-.2 2.7 1.3 0 1.4 3.1 1.4c1.7 0 2.8.4 2.4 1s-2.5 1-4.7 1c-4.4 0-8.8-2.9-8.8-5.8 0-.8-1.1-2.8-2.5-4.4-2.6-3-2.5-5.4.2-4.4.8.3 2.6.6 3.9.6m48.4-.6q0 .5-1 1.1-.9.4-1-.4.1-1 1-1.1 1 0 1 .4m-34 2.1q-1.2 1.4-2.2 1.5-.9-.1.2-1.5c1.1-1.4 1.7-1.5 2.2-1.5q.9.1-.2 1.5m29.1 8.8c-1.7 1.7-2.4.1-1-2.5 1.2-2.1 1.4-2.1 1.7-.4.2 1-.1 2.3-.7 2.9m-30.6-2.3c-.3.5-1.3 1-2.1 1s-1.2-.5-.9-1 1.3-1 2.1-1 1.2.4.9 1m85.1 1.8c1.2.9 2.5 2.7 2.8 3.9.6 1.7 0 2.7-3.1 4.7a17 17 0 0 1-5 2.6c-2.3 0-1.4-3 1.2-4 3.3-1.2 4.3-3.9 2.2-5.5-1.7-1.2-2.3-3.5-.9-3.5.4 0 1.7.8 2.8 1.8m145.5 1.6c-1.3 1.4-4.1 6-6.2 10.3s-3.7 6.6-3.4 5.1a50 50 0 0 1 8.8-17.3c3-2.1 3.4-.9.8 1.9m-212.7-.8c1.4 1.4 1.4 1.8.1 4.4a16 16 0 0 0-1.5 6c0 3.4-1 3.7-4.4 1.5-2.3-1.5-2.3-1.6-.8-6.3 2.4-7.3 3.7-8.5 6.6-5.6m212.9 11.2a40 40 0 0 1-5.2 8.6c-.6-.5 3.8-10.2 6.6-14.7 4.4-6.9 3.5-3.2-1.4 6.1m-246.9-6.4q2.9 2 8.3 2.2 9.1.4 6.1 3.1a66 66 0 0 1-23.5-6.2c-.5-1.8 6.1-1.1 9.1.9m296-1.4a52 52 0 0 1 17.6 18.6c1.3 2.7 4 7.8 6.1 11.4s4.1 8.2 4.4 10.3c.7 3.7.7 3.7-2 2.7-1.4-.5-4-1-5.6-1s-2.9-.2-2.9-.4l-.7-2.1c-.5-1.5-.1-1.6 2.5-1.1 3.9.9 4.4-.1 2.6-5.5-1.7-4.9-3.7-6.9-7-6.9q-4.4 0-2.4-4c.9-1.7.7-2.8-1.1-5.6-3-4.9-5.8-6.4-11.8-6.5-6-.2-14.4 3.5-23.8 10.4-4.4 3.3-6.7 6-9.7 11.5-2.2 4-4.1 7-4.3 6.9-.5-.6 3.2-10.7 6.1-17 1.6-3.2 4.5-7.2 6.9-9.3 5-4.3 13.3-7.5 16.5-6.3 2.4.9 3.7-.3 2.8-2.6-.7-2-2.1-1.9-10.1.6a35 35 0 0 0-18.7 14.7c-1.2 2-2.4 3-2.6 2.4-1.2-3.6 11.8-17.1 19.2-20a31 31 0 0 1 18-1.2m-205.4.9c0 1.2-2.9 2.3-4.1 1.5q-.8-.6-.4-1.5c.8-1.2 4.5-1.2 4.5 0m-36.6 4q3.9 4 3.4 6.2c-.3 2.2-.7 2.4-5.3 2.1-7.3-.5-7.3-.4-4-11 .7-2 1.9-1.4 5.9 2.7m182 .3q-1.6 2.9-2.2 2c-.4-1.4 2.6-6.7 3.5-5.9.2.3-.3 2-1.3 3.9M137 335q0 .9-.4 1-.6-.1-1.1-1-.4-1 .4-1 1 0 1.1 1m210 2.5c0 .2-1.1 3.9-2.5 8a28 28 0 0 0-2 8.5c.3.5 0 2-.6 3.4-.9 1.9-.9 6.1.1 17.8 1.8 20.9 1.8 23.3 0 23.3-1.2 0-2-3.4-3.7-15a93 93 0 0 1 1.3-42.8c.7-2.2 7.4-5.1 7.4-3.2m-111.7 3.2c1.1 1-1.3 3.2-2.8 2.7-.7-.3-2.2-.1-3.3.5-1.5.8-2.1 2.6-2.6 8.1-.4 3.8-1.1 7-1.5 7-1.8 0-3.3-3.1-3.8-8.3-.5-4.9-.3-5.6 1.8-7.1 1.3-.9 3.5-1.6 4.9-1.6a9 9 0 0 0 4-1c1.8-1.2 2.4-1.2 3.3-.3m10.2.3c-.3.5-1.3 1-2.1 1s-1.2-.5-.9-1 1.3-1 2.1-1 1.2.4.9 1m82 .7a76 76 0 0 0-2.8 39.8c5.4 29.3 5.7 34.6 2.3 42.3q-2.3 5.4-3.9 5-1.6-.3-1.3-3.3c1.4-14.6 1.3-18.6-.3-24.1-.9-3.3-2-6.4-2.5-6.9s-2.7-6.5-5-13.3c-3.8-11.1-4.2-13-3.9-20.1.3-6.1 1-9 3.4-13.8 3.1-6.4 3.6-6.7 11.9-7.1 2.3-.2 2.7.1 2.1 1.5m7.3-.6q-.4 1-1.3 1-1.2 0-1.3-1t1.3-1.1c1.5-.1 1.5.5 1.3 1.1m-200.2 4.3a51 51 0 0 0-2.7 8.7c-1.6 7.2-3.4 7.8-2.4.8.9-6.4 4.3-14.5 5.6-13.2q.9 1-.5 3.7m120.4-2c-4.3 2.8-8 4.1-8 2.7s3.3-3.1 5.9-3.1q2-.1 2.1-1t1.7-1q1.8 0-1.7 2.4m116.6 2.7q-1.4 3-1.6 1.7c0-2.3 2.2-7.5 2.6-6.2.3.6-.2 2.6-1 4.5m-224.8-.5c2 .8 6.1 2 9.1 2.5s5.9 1.3 6.4 1.8c1.2 1.2-2.8 9.7-4.9 10.5s-3.1.1-5.4-4.4c-2.2-4.2-4.3-5.3-9.5-4.9-4.4.4-5-.3-3-4 1.8-3.6 2.2-3.7 7.3-1.5m26.7-.3c2.7.7 4.5 1.6 4 1.9-1.3.8-10.9-.8-13.2-2.1q-2.4-1.1 1.2-1.1c1.7 0 5.2.6 8 1.3m274.9 1.5c.3.5-2.3 2.1-5.7 3.8a65 65 0 0 0-16 12.4l-9.9 9.4 3.8-7.3a24 24 0 0 1 9.8-11.4c8-5.5 16.8-8.9 18-6.9m-258.2 1.3c1.2.6 5 1.1 8.4 1.1q6.4 0 7.6 1.5c1.1 1.4.5 1.5-5.2.9-8.9-1-17-2.7-17-3.8 0-1.2 3.8-1 6.2.3m68.3 1.4c-.1 1.4-5.3 3.8-6.6 3-1.6-1.1 2.2-4.6 4.5-4.3q2 .4 2.1 1.3m-78.7 3.4q1.6.8-3.5 3.2c-3.5 1.8-4.9 3.1-5.1 4.9-.3 1.9-1.6 3.1-5.5 4.9a70 70 0 0 0-7.8 4.3c-1.9 1.5-3.1 1.7-5 .9-4-1.5-10.2-8.3-10.5-11.4-.2-2.8 0-2.7 4.5 2.2 4 4.3 5.3 5.1 8.3 5.1 5.1 0 9.4-2.5 10.7-6.3 2.1-6.1 9.8-10.4 13.9-7.8m275.7.1c1.2 1.9-1.5 3.9-4.3 3.4-3.6-.7-14.8 4.4-20.2 9.2a44 44 0 0 0-6.6 7.9 30 30 0 0 1-4.3 5.9c-1.6 1.4-1.5.9.6-3.4 4.6-9.7 21.3-23.2 28-22.8 1.8.1 3.5-.1 3.9-.5q1.7-1.5 2.9.3m-124.7 10.2c0 7.1.6 13.5 2.1 20.5a92 92 0 0 1 2 13l-.1 2.8-.9-3c-3.4-11.3-6.3-40.8-4.2-42.8 1.2-1.3 1.2-.8 1.1 9.5m-126-5.7c6.3 1.4 3.1 3.5-5.2 3.5-4.4 0-5.7-.4-7.7-2.6l-2.4-2.6 6 .5c3.3.3 7.5.8 9.3 1.2m52.3-.2-.1 4.7c0 2.2-.4 4-1 4s-1-2.3-1-5.1q0-4.9 1.1-4.7 1 .4 1 1.1m22.4.9a30 30 0 0 0-1.2 18.5c.8 3.7 1.3 7 1.1 7.2-1.1 1.1-2.9-2.3-3-5.7l-.9-11c-.7-6.2-.5-7.5 1-9.2 2.4-2.7 3.9-2.5 3 .2m-29.5 1.6c0 3.3-2.2 6.8-3.8 5.8q-1-.6.5-4.6c1.9-4.7 3.3-5.2 3.3-1.2m153.6 4.4c-1.3 15-3.1 19.1-10.3 24.1q-8.7 5.8-3-1.6a94 94 0 0 0 5.7-8.2 77 77 0 0 0 7.6-21.5c.4 0 .4 3.3 0 7.2m-219.5-4.4 5.3 3.6c2.1 1.5 4.2 1.8 9.3 1.7q10.3-.3 7.1 3.6-2.5 3-13.1-1.2a26 26 0 0 0-11.2-2.3c-4.1.3-5 0-5.3-1.5-.4-2 2.4-5.7 4.2-5.7.6 0 2.3.8 3.7 1.8m-72.1.1q-.2.8-2 .4t-2-.9q.2-.4 2-.4c1.8 0 2 .4 2 .9m157.5.1c.7 1.1-1.2 5-2.4 5s-3.1-4.6-2.4-5.4c1-.9 4.1-.7 4.8.4m-55.5 3.1c1.8 6.6 2 7.9 1.1 7.9s-4.1-8.1-4.1-10.3c0-1.8 2.4 0 3 2.4m237-1.7q-.1 4.5-3.4 4.6c-4.5 0-12.3 5-17.6 11.3-4.5 5.3-12.7 11.6-15.2 11.7-1.8 0-.6-1.9 1.5-2.6a24 24 0 0 0 11.9-11.1c3.5-6.2 7.4-9.7 14.3-12.9q8.5-4 8.5-1m-346.9 2.3c7.2.6 8.4 1.9 8.1 8.9-.2 4 .3 6.5 1.6 8.8 1.5 2.5 1.8 4.2 1.3 8.6-.4 3-1.1 5.4-1.6 5.4l-3.4-.9q-2.4-.8-1.9.6c.3.8 1.8 1.6 3.4 1.9 2.4.4 2.9 1 3 3.5.1 5.9.4 6.6 4.6 11.1 3.8 4.2 4 4.6 2.8 7-1.2 2.2-1.1 3.1 1.9 8.9s3.3 7 2.6 11.7c-.8 6-.8 49.2.1 55.3 1.2 8.6 2.4 11.4 5.4 13 3.6 1.9 3.7 3.2 1 17.3a83 83 0 0 0-1 30.2c.6 1.9 2.3 4.9 3.9 6.6 2.5 2.8 3.7 3.3 10 3.9 3.9.4 7.1 1 7.1 1.4s-1.1 1.8-2.4 3c-2.5 2.4-3.5 2.4-12.1.5a43 43 0 0 1-10-5.3c-6.3-4.2-7.1-5.1-8.4-9.6a93 93 0 0 1 0-32q1.4-4.1 3.6-4.3c2.3-.3 3.5-2.3 2.5-3.8-.7-1-13.8-6.7-17.9-7.9-2.3-.6-3.9-3.8-2.8-5.5.4-.6-.1-2.3-1-3.7q-4.7-7-1.5-11.3c2.4-3.3 2.5-4.9.6-7.6-1.1-1.5-1.2-3-.6-6 .5-2.1 1-5.6 1-7.8 0-2.1.5-5.6 1.2-7.7 1-3.3.9-4.2-.6-5.8-1.9-2.1-1.9.2.3-34.6a121 121 0 0 0-1.5-34.3c-.6-1.9-.3-2.2 2.5-2.2 4.3 0 3.9-1.8-.6-2.5-6.1-1-6.7-1.3-5.4-2.9.6-.7 2.2-1.1 3.6-.8q2.3.3 2.5-.5c0-1.2-4.5-3.3-7-3.3q-1.8-.2-2-1.5c0-1.1 1-1.3 4.9-.8 6.8.8 7.2-1.1.6-2.7-4.5-1.1-5.5-1.7-5.5-3.4q0-2.3.9-.7c.5.7 3.3 1.5 6.2 1.8M462 375.3q2.4 11.5-1 16c-2.2 2.8-2.6 5.2-.9 6.3q1 .6.2 1.5c-.8.8-9.3-1.8-10.9-3.4-.4-.3-.1-1.4.6-2.2.8-1 1.3-3.8 1.1-7.3-.1-3.2.5-7.6 1.3-10.1a25 25 0 0 0 1.6-6.5c0-1.2.6-2.8 1.3-3.5 1.8-1.8 5.4 3.1 6.7 9.2m-332-5.7q0 1.3-1 1.4-.9-.1-1-2.1.1-1.7 1-1.4c.6.3 1 1.3 1 2.1m38.1 2.6c-2.5 1.9-5.1 2.4-5.1.8 0-1.3 5.3-4 6.4-3.2q.6.6-1.3 2.4m115.9-.5q0 3-.9 1.4-.8-1.4-.4-2.8 1.3-3 1.3 1.4M145.6 373c1.9 1.6 4.7 3.3 6.2 3.6 3.2.8 4.2 2 4.2 5.4 0 2.5-1.6 5-3.1 5-.4 0-1.3-1.6-1.9-3.5-1.1-3.4-1.9-3.9-7.5-4.7-2-.3-3.6-4.8-2.7-7.6.6-1.7 1-1.6 4.8 1.8m242.8 2.7c-2.8 4.5-3.8 5.2-10.3 6.9q-1.6.3-.1 1.9c1.9 2.2 4.2 1.8 8-1.5 1.9-1.6 3.9-2.9 4.3-3 1.3 0-5.6 9.1-7.6 10.2-3 1.6-6.3.1-7.7-3.3-1.6-3.7-.4-6.3 2.8-6.5 2.9-.2 6.6-2.7 9.9-6.8 3.8-4.8 4.2-3.6.7 2.1m-142.2.9c-.6 6.7-2.1 7.5-2.2 1.1 0-4.3.3-5.7 1.3-5.4q1.1.4.9 4.3m192.8-2.1c-1.3 1.4-2.8 2.5-3.4 2.5-1.1-.1 4-5 5.1-5 .4 0-.4 1.1-1.7 2.5m-229.9 1.2c1.8 4.7 2.3 13 1 16.2-.8 1.7-2.3 3.2-3.8 3.5q-2.4.7-3.9 4.2c-1.7 4-2.8 4-5.1.3-1.5-2.4-1.4-2.8 1.9-7.7q6.5-9.2 3.4-15c-1.8-3.4-1.3-4.2 2.6-4.2 2.2 0 3.1.6 3.9 2.7m-73.1 2.4c0 1.7-2.3 2-3.8.6-1.3-1.4-1.3-1.8-.2-3.2 1.3-1.6 1.5-1.5 2.7.1q1.2 1.7 1.3 2.5m94 7.3c9.4 10.5 11.9 16 12.4 27.4.4 7.3.5 7.7 2.7 7.7 1.3 0 3.6.8 5.1 1.9 2.7 1.7 5.8 1.6 5.8-.2 0-.5-.9-1.7-2-2.7-2.5-2.3-2.5-4 .1-12.7 1.3-4.3 2.5-6.6 3.1-6q2.1 2.2-.1 8.8c-.9 2.9-1 5.4-.3 9.3.9 4.7.1 11.1-1.3 11.1-.2 0-2.4-1.4-4.9-3.1a28 28 0 0 0-8.1-3.6c-2.9-.5-4-1.3-5.4-4.2a12 12 0 0 1-1.4-6.8q.6-3.1-2.1-8.5a89 89 0 0 0-8.9-14.9c-3.7-5.5-6.2-13.6-3.9-12.8.6.2 4.7 4.4 9.2 9.3m31.5-8.4q.4.9-.4 1-1-.1-1.1-1 0-1 .4-1t1.1 1m-7.5 2.9c0 2.3-2.9 6.2-3.1 4.1a16 16 0 0 1 .6-5.8c.6-1.8 2.5-.5 2.5 1.7m225.9.2c.6 1.8 1.1 4.4 1.1 5.8 0 1.5.5 3.2 1.1 3.8s1.1 3 1.3 5.5q.2 4.4 2.4 6.6c4.5 4.5 1.5 17.4-4.7 20.6-1.6.9-3.8 1.6-4.9 1.6-3.4 0-11.7 3.2-13.4 5.2a8 8 0 0 0-1.8 4.4c0 3.3-1.5 3-3-.6-1.1-2.5-1-3.4.5-5.7 3.5-5.6 5.7-7.2 10.4-7.9 6.3-.9 8.8-2.7 10.1-7.4.9-3.2.8-5.4-.4-10.1-1.4-5.4-1.4-6.2 0-8.4 1.6-2.4 1.1-5.6-1.9-12.2-.9-2.1-.3-4.3 1.3-4.3.4 0 1.3 1.4 1.9 3.1m-37.5-.6a3 3 0 0 1-2.6 1.5q-2.4.1-.8-1.5c.7-.8 1.9-1.5 2.6-1.5q1.2 0 .8 1.5m28.6-.5q0 .9-.9 1-1-.1-1.6-1-.4-1 .9-1 1.5 0 1.6 1m-374.8 2.7c1.9 2.4 4.1 9.9 3.4 12.1-.3 1-.8 7.8-1 15.2q-.5 13.6-2.1 18c-1.4 3.7-1.7 10.3-2.2 37.7-.3 23.8-.1 34.3.7 36.8.6 2 3.7 6.2 6.9 9.5 4.9 5.2 6.1 6 9.3 6q6.3.2 3.5 2.9-1.4 1.2-3.3-.4c-1-.8-3.2-1.5-4.8-1.5-3.5 0-8.9-3.2-11.5-6.8A97 97 0 0 1 87 491c-3-11.5-.6-42 4.5-58.5 3.4-11.1 5.5-23.6 5.5-33.2 0-5.7-2.7-12.8-6.1-15.9-1-.9-1.9-2.1-1.9-2.6 0-1.5 5.7-.8 7.2.9m259.2-.2q.4 1.3-.4 1.5-1-.2-1-1.5c0-1.3.2-1.5.4-1.5s.6.7 1 1.5M137 388.6q0 2.4-2.9.5-1.2-1-.7-2.6c.5-1.4.9-1.5 2.1-.5.8.7 1.5 1.9 1.5 2.6m303-2.3c0 1-8.1 4.7-10.4 4.7-3 0 6.4-5.8 9.7-6q.6.1.7 1.3m-314.5.7q.4.9-.9 1-1.5-.1-1.6-1 0-1 .9-1t1.6 1m151.6 4.5q1 2-1.5-.8c-1.4-1.5-2.6-3.3-2.6-4 .1-1.3 2.6 1.6 4.1 4.8m79.9-1.8q0 1.2-1 1.3-.9-.2-1-2.8-.1-3 1-1.2a7 7 0 0 1 1 2.7m141.9 5.2.2 8.1h-2.9q-2.9 0-5-3a16 16 0 0 1-2.2-3.5c0-1.2 8.3-10.4 8.9-10 .4.2.8 4 1 8.4M253 389.6q0 1.3-1 .9-.9-.6-1-1.6.1-.8 1-.9 1 .1 1 1.6m222 2q0 1.3-1 .9c-.5-.3-1-1.3-1-2.1s.5-1.2 1-.9 1 1.3 1 2.1m-228 3.5c0 4.2-1.4 5.2-2.5 1.8-.9-2.6.2-7.2 1.5-6.4.6.3 1 2.4 1 4.6m156.2-2.9c1.3 1.9 1.8 2 4.6 1 1.8-.6 3.2-.7 3.2-.3 0 1.3-10.7 5.4-11.9 4.6-1.5-.8-1.4-4.8.1-6.3 1.7-1.7 2.3-1.5 4 1m-208.4 0c-.6 1.7-6.5 5.1-7.9 4.6-.6-.2.7-1.5 2.8-3 4.3-2.9 5.7-3.4 5.1-1.6m246.2-.3c0 1.4-1.8 2.3-3 1.6q-1-.7-.5-1.6c.8-1.2 3.5-1.2 3.5 0m-220.6 1.8q.7 1.7-2 3.8l-2.7 2.2 5.6 6.1c3.2 3.4 5.7 6.8 5.7 7.5a24 24 0 0 0 3 6.1c1.7 2.6 2.8 5.1 2.5 5.5s-3 2.1-6 3.6a55 55 0 0 0-8.3 4.9 14 14 0 0 1-6.1 2.9c-2.9.6-3.2.5-2.6-1.1 1.2-3.1 1-3.5-1.4-4.1-2.1-.6-2.2-.8-.7-2 .9-.7 1.6-2 1.6-2.7 0-2.2-3.7-1.6-8.6 1.2-2.5 1.5-4.8 2.3-5.2 1.9q-.5-.7.3-1.1a64 64 0 0 0 13.3-8.2c.5-1.7-3.3-1.5-6.9.4-5.1 2.6-4.3.9 1.1-2.6q7.5-4.9 1.9-5c-2.3 0-2.3.2 0-5.4 1.5-3.4 2.9-4.9 5.5-6s4-2.6 5.2-5.5c1.7-4.3 3.7-5.3 4.8-2.4m247.6.4q-.1.8-1.5.9c-1.5 0-2-1.2-.9-2.3.8-.8 2.4.1 2.4 1.4m-179.9.9c1.8 0 7.6 8.7 8.5 12.8.5 2.4 0 2.1-4.1-2.3s-10.7-14.8-7.4-11.8c.7.7 2 1.3 3 1.3m105 3.1c.4 2.4.4 4.5 0 4.7a37 37 0 0 0-12.8 11.4c-7.5 9.3-8.4 10.9-8.1 14.9.3 3 .1 3.2-3.7 3.6a32 32 0 0 0-23.6 17.9c-1.8 3.5-3.5 6.3-4 6.2a51 51 0 0 1-12.9-11.4c0-1.2 6.1-13.6 7.6-15.2.1-.2 2.6.1 5.5.7l5.3 1.2 3.8-3.8c2.2-2.1 4.8-5.3 6-7.1a16 16 0 0 1 4.9-4.8 38 38 0 0 0 12-16.4l1.5-4.5 7.1-.5c3.9-.3 7.5-.8 7.9-1.3q2.5-2.2 3.5 4.4m31.4-3c1.1 1.7-1.6 6.9-3.5 6.9-2.6 0-5-1-5-2.2s5.1-5.8 6.6-5.8c.7 0 1.6.5 1.9 1.1m-299.6 2.1-.9 5.3-.7 3-1.1-2.8c-1.9-4.5-1.5-7.7.8-7.7q2-.1 1.9 2.2m16.1-1.3c0 2-3 3.3-6.2 2.6l-3.2-.8 3.4-1.2c4.4-1.6 6-1.7 6-.6m122.7 2.3q-.5 1.1-.6-.6t.5-1.3q.5.7.1 1.9m182.2.3c10 2.7 14.1 4.7 18.1 9q2.5 2.5 1.3 3.6c-.8.8-2.4.2-6-2.2a21 21 0 0 0-11.8-4.1c-10-1-17.5-3.4-17.5-5.7 0-3.9 2.9-4 15.9-.6m-87.9 3.7c0 1.8-.5 4-1 4.8q-1 1.8-1-3.3c0-2.6.5-4.7 1-4.7s1 1.5 1 3.2m52.5-.1c.9 2.6.4 3-7.5 6.5a70 70 0 0 0-10 5.1c-3.4 2.3-7 3-7 1.5 0-1 6.4-7.1 11.2-10.6 6.3-4.7 12.3-5.8 13.3-2.5m-138.5-.2c0 1.6-1.2 4.1-2 4.1-.4 0-.5-1.1-.2-2.5.4-2.3 2.2-3.6 2.2-1.6m25 16.1a359 359 0 0 0 27.3 30.9c1.4.4 23.8 19 24.9 20.5q.6 1-.2 2c-1.2 1.2-12.3-5.7-17.4-10.8a494 494 0 0 1-40.6-47.1 60 60 0 0 0-6.9-8.9c-1.1-1.1-2.1-2.4-2.1-3 .1-1.3 4.4 3.4 15 16.4m-104.5-13c.8 1.6 2.4 3.4 3.5 4q1.8 1 1.5 2.1c-1 1.4-4.5-.9-5.5-3.7-.5-1.3-1.7-2.7-2.5-3-1.9-.8-2-2.4 0-2.4.8 0 2.1 1.3 3 3m57.5 2.4c-.5 1.5-1.4 2.5-2 2.1-.5-.3-.2-2 .8-4.2 1.9-4 2.9-2.3 1.2 2.1m199.8 1.5c2.9.1 7.9 3 8.7 4.9.3.8-1 4.7-2.9 8.6a22 22 0 0 0-3.1 14.6l.3 7.4 3.3.9c3.2.8 3.6.6 9.4-5.7 4.6-5.2 6.6-6.7 8.8-6.6 3 0 3.7 1.9.8 2.7-2.1.5-8.7 8.2-10 11.5q-.8 2.3.4 5.9c1.2 3.2 1.1 4-.8 7.4-1.8 3.1-3.3 4.2-7.6 5.7a27 27 0 0 0-7.2 3.4 4 4 0 0 1-3.9.9c-1.7-.5-2.9 0-5.1 2.5-1.6 1.7-2.9 3.5-2.9 4s-.9 1.4-2 2q-2.2 1.1-1.5 3.1c.6 1.7.3 1.9-2 1.3-2.6-.6-2.7-.5-2 2.5.6 3 .6 3.1-2.4 2.5-2.6-.6-3.1-.3-3.1 1.3a5 5 0 0 1-1.2 3.1c-.9.9-.9 1.8 0 3.7q2.7 5.9-6.3-2.4A41 41 0 0 0 395 484c-5.1 0-5.7-1.4-3.2-7.7 1.8-4.4 5.5-13.7 12.8-32.8 3.4-9 17.2-36.3 19.4-38.5 1.6-1.6 2.4-1.5 12.6 1.1 6 1.5 12 2.8 13.2 2.8M179 405q-.1.9-1.1 1-.8-.1-.4-1 .6-1 1.1-1 .3 0 .4 1m-42.8 2.6c1 2.1.9 2.7-.3 3.5q-3.4 2.1-4.2-1.3c-.6-2.2.7-4.8 2.4-4.8.5 0 1.5 1.2 2.1 2.6m17.3 1.4q.4.9-.7 1l-5 .6q-3.7.6-3.8-.4 0-1.4 7.2-2.1c.9 0 2 .3 2.3.9m30-.4c.9.4 2.5 2.4 3.6 4.5q2 3.8 4.5 4.5c2.3.6 2.4.8 1.1 2.2-2 1.9-4.1.5-9-6q-5.8-7.4-.2-5.2m231.5 1.8c-.5 1.4-3.2 6.9-5.9 12.4a105 105 0 0 0-6.6 14.5c-.8 1.6-2.4 5.7-3.4 9a548 548 0 0 1-9.3 25.7c-1.1 3-2.6 6.1-3.3 6.9-2.6 2.7-3-1.6-.7-7.2a403 403 0 0 1 22.5-53.4c3.9-7.7 5.2-9.4 7.4-10.2zm79.1 5.6c-1.9 8.7-7.5 14.4-13.8 14.2l-7.8-.1c-5-.1-3.1-1.4 4.3-3 10.3-2.2 14.5-6.1 15.8-15 .6-3.9.8-4.2 1.5-2.3.5 1.3.5 4.1 0 6.2m-321.6-3c3 1.3 5 3.1 6.8 6.3 1.5 2.5 3.6 4.9 4.7 5.2q3.8 1.3 0 3.5-4 2.3-8.5-5c-3-4.7-5.7-6.6-10.7-7.5-4-.8-6.4-2.8-5.3-4.5.9-1.4 7.4-.4 13 2m299.9 1.1c-.9 1-2.7 1.9-3.8 1.9-1.8-.1-1.6-.4 1.4-3 3.7-3 5.5-2.3 2.4 1.1m-68.6-.3-2.2 5.5c-1.6 4.1-2.2 4.7-4.8 4.7-1.6 0-4.3.7-5.9 1.6-1.7.8-3.5 1.4-4.1 1.2s1.6-1.7 4.8-3.4c4.4-2.2 5.8-3.4 5.6-4.7-.4-2.4 2.5-5.7 5-5.7q1.8 0 1.6.8m-251.5 3.7c.2 1.2-9 2.8-11.1 2-2.4-.9-.2-2.3 4.3-2.8 5.3-.5 6.6-.4 6.8.8m162.3 8.2c-1.4 2.8-1.4 2.8-.9-1.7.7-6.3 1.6-8.2 2.1-4.3.2 1.8-.3 4.5-1.2 6m-184.4-5.2c1.2 2.6.4 4.6-1.1 2.9a9 9 0 0 1-1.6-3.2c-.9-3.1 1.2-2.9 2.7.3m217.2 3.2c-1.8 3.7-5.4 5.8-5.4 3.2 0-1.4 6.1-8.1 6.8-7.4.2.2-.4 2.1-1.4 4.2m-177.7 1.5c1.5 2.4 3.5 5.2 4.5 6.3 1.7 2 1.7 2.2-.8 4.8-2.8 3.1-3.2 3.2-5.6 1.3-2.2-1.6-2.3-5.2-.3-6 2.3-.8 1.8-4-1-6.6q-4.2-4-1-4c.8 0 2.7 1.9 4.2 4.2m94.1.3c1.6 3.4 1.5 5.6-.3 7.9-3 3.9-1.2 16.9 2.7 19.8 4.4 3.4 4.7 3.8 4.2 5.3q-1.5 3.6-6.9-1.8t-5.5-16a49 49 0 0 1 4-17.7q.7.2 1.8 2.5M157 426q-.1.9-1.4 1c-.7 0-1.9.6-2.5 1.4-.9 1.1-.8 1.8.4 3 1.5 1.5 1.5 1.6 0 1.6-1 0-2.6-1.1-3.7-2.5s-2.7-2.5-3.6-2.6q-1.5-.1 1.3-1.4c3.5-1.6 9.5-1.9 9.5-.5m-17.7 1.7c-.7.2-2.1.2-3 0q-1.3-.5 1.2-.5 2.6 0 1.8.5m99.1 2.7c-.4 1.8 0 2.8 1.7 4 3 2.1 3.4 2 5.8-.6l2-2.1 1.1 2.9c.6 1.6.8 4.6.4 6.8l-.6 4-1.5-2.7c-.7-1.5-1.9-2.7-2.6-2.7-3 0-3.5 2.2-3 12.9q.7 15.5-2.6 24.5c-1.1 2.8-1.2 2.8-3.2 1-2.1-1.9-2.2-1.9-3.8.5-3.3 5-4.8 6.4-6 5.7-.9-.6-.8-1.3.3-3.2 1.6-2.3 2.2-9.5.9-10.7-1.2-1.2-4.2 2.5-4.9 5.9-.7 3.7-1.9 5.1-2.9 3.4-.4-.6.1-2 1-3q1.6-1.7 1.3-6.1c-.3-3.9-.6-4.4-2.5-4.2q-2.4.4-2.3-1.7c0-4.5-5.8-3.1-6.1 1.4q-.2 1.5-.8-1.9c-.6-3.7-.8-4-3.9-4.1-3.4-.1-7.6-3-6.6-4.6.3-.5 2.2-2 4.2-3.3L214 445c3.6-2.8 9.1-6 12.3-7.2q9.7-3.6 2.5-3.9h-3.3l2.4-1.7c2.6-1.8 7.8-4 9.9-4.1q1.2-.1.6 2.3M286 429q0 .9-.9 1-1-.1-1.6-1-.4-1 .9-1 1.5 0 1.6 1m110.8.7q-.4 1.8-3.8 2.3c-2 .4-4.2 1-5 1.5q-2 1.3-.1-.8c.7-.9 1.9-1.7 2.6-1.7s1.8-.7 2.5-1.5c1.7-2.1 4.2-1.9 3.8.2M273 431.1q0 .8-1 .9-.9-.1-1-1.6.1-1.3 1-.9 1 .6 1 1.6m51.8 2.1c-.5 1.3-6.7 3.3-7.5 2.4q-.4-.6 0-2.1c.8-1.9 8.1-2.2 7.5-.3m160.8 2.4c-1.5 1.4-3.1 2.3-3.4 2-.9-.9 3-4.6 4.7-4.6q1.8 0-1.3 2.6m-350.3-.9c-.7.2-1.9.2-2.5 0q-1-.5 1.2-.5c2.2 0 1.9.2 1.3.5m64.7.8c-.7.8-1.8 1.5-2.4 1.5q-.8-.1.8-1.5 3.9-2.8 1.6 0m129 .2c0 .5-.9 2.3-2 4.1-1.7 2.8-2.3 3.2-3.6 2.1-1.3-1-1-1.6 1.8-4 3.7-3.1 3.8-3.2 3.8-2.2m-61 1.8q0 1.4-1 1.5-.8-.1-.4-1.5.6-1.3 1-1.5.4.2.4 1.5m106.2 7.5c-.1 4.7.2 12.3.7 17s.6 8.8.4 9.2-2-.4-4-1.7c-4.2-2.9-5.7-3-9.7-1-3.8 2-3.6 2-9-2-3.8-3-4.6-4.1-4.6-6.9 0-8.6 11.3-21.6 18.7-21.6 1.7 0 3.5-.5 3.8-1.1.4-.5 1.4-.9 2.2-.7 1.3.2 1.6 1.8 1.5 8.8m19.8-8.2c0 1.5-2.4 3.2-4.5 3.2a6 6 0 0 0-3.4 1.2q-1.6 1.6-.6 0c.7-1.4 6.4-5.2 7.8-5.2q.6.1.7.8m-204.9 2.5c-1.3 1.3-2.6.3-1.6-1.2q.6-1 1.7-.5 1 .6-.1 1.7m88.7.6q.4 1.3-.9.9-1.2-.5-1.7-1.7-.4-1.3.9-.9 1.2.5 1.7 1.7m15.2-.9q-.1.9-1.1 1-.8-.1-.4-1 .6-1 1.1-1 .4 0 .4 1m-8.9 3.3q-1.1 1.2-1.1-.4c0-2 1.3-3.4 1.8-1.9q.3 1.2-.7 2.3m-73.1-.4c0 1.3-13.8 12.1-15.5 12.1-2.9 0-1.4-1.9 6.2-7.4s9.3-6.4 9.3-4.7m-72 .4c0 1.6-3.4 6.6-4.1 6.2q-2-1.5.8-4.7c1.4-1.6 3.3-2.4 3.3-1.5m250.8 4.2c-1.1 2.5-4.4 4.2-5.6 3-.7-.7 4.6-5.5 6-5.5q.5.2-.4 2.5m-204.4 3.8c2.8 3.8 1.1 5.4-3.8 3.6-4.1-1.5-4.2-1.6-2-4.7 1.9-2.7 3.1-2.5 5.8 1.1m105.7 1.1c-2.5 2.4-4.7 1-3.6-2.3.5-1.7.9-1.9 3.1-.9l2.5 1.2zm10.9 1.7q-.1 2.6-2.5-2.4l-1.6-3.2 2.1 2.4c1.1 1.3 2 2.7 2 3.2m-44.5 2.5c2.6 4.9 8.4 8.7 12.7 8.2 3.9-.4 5 2.2 2.2 5.3-1.6 1.7-1.9 1.8-2.6.4-1.3-2.3-3.7-1.8-5 1s.2 5.5 2.8 5.5 10.4-8.5 10.4-11.3c0-1.4.4-2.8.8-3.1s4.6 5.3 9.1 12.4a106 106 0 0 0 30.8 33.6q8.5 5.5 7.9 7c-.3.7-.8 3.7-1.2 6.6s-1.1 5.9-1.7 6.5c-.5.7-3.1 1.3-5.7 1.3-8.2 0-10.6 2.2-5.2 4.8 6.7 3.3 10.5 4.2 13.7 3.3 2.7-.7 3.7-.4 7.1 2 5.6 4 20.6 14.4 29.2 20.2a139 139 0 0 1 28 25.2 18 18 0 0 1 1.6 18c-.8 2.2-2 5.5-2.5 7.3-.6 1.9-1.9 4.8-2.9 6.5l-4.5 7.7c-6.1 10.7-15.9 22-19.1 22q-3.9 0-1.2 2.8c1.9 1.9-.9 4.4-3.4 3.1-3.2-1.7-4.5.4-2.4 3.6q3.2 5-1.9 2.5c-3.6-2-5.5 0-2.6 2.9 2.6 2.6 1.8 5.5-1.5 4.7-2.6-.7-4.2 1-2.5 2.7 1.3 1.3-.4 3.7-2.5 3.7-1.7 0-1.7.5-.2 2.9 1.7 2.8-.6 5.4-4.3 4.6s-4.6 1.1-1.8 4.1q3.6 3.7-1.6 4.6c-1.5.3-2 1.1-2 3.5 0 1.9-1.2 4.9-3.1 7.5-2.5 3.5-4.1 4.7-7.7 5.8-2.6.7-5.3 1-6.2.7-2.1-.8-4.5.2-4.5 1.9 0 1.8-1.4 1.8-3 0-1-1.3-1.7-1.2-5.2.6a14 14 0 0 0-4.5 3.4q-.6 1.3-2.3 1.4c-3.1 0-3.9 2.1-2.8 7.3.8 4.1.7 5.1-.8 6.8-.9 1-2.6 1.9-3.6 1.9q-2-.1-1.3 1.9c1.3 4.3-10 7-14.5 3.3-1.6-1.3-2.3-3.2-2.7-7.8-.5-5.4-.2-6.9 3.2-14.8a75 75 0 0 1 7.2-12.9c2.5-3 3.3-4.7 2.8-6.4q-.7-2.4 1.2-2.3c2.4 0 5.3 3 5.3 5.5 0 3.2 2.4 4.9 4.8 3.6 4.3-2.3 7.2-7.1 7.2-11.7 0-4 .5-4.9 4.7-8.9 2.6-2.5 5.1-4.5 5.6-4.5s3.8-2.8 7.3-6.2l8-7.8a173 173 0 0 0 17.4-28.5c5.5-11.2 5.6-12.6 1.7-19.3-1.8-3-1.9-3.9-.8-8.9.7-3 1-5.7.7-6s-.1-1.4.5-2.4q1-1.9-.2-4.2c-1.7-3.3-1.7-3.3-4.8-.3-3.6 3.5-6 2.6-3.1-1.1 2.4-3 2.6-5.3.5-5.3-1.7 0-3.5 3-3.5 5.9s-4.2 2.8-19.3-.8c-6.7-1.6-15.9-3.7-20.4-4.5l-16.3-3.2c-4.5-.8-8.8-1.3-9.8-1-5.3 1.7-14.1-10-12.7-17a9 9 0 0 1 2-4.4c2.2-1.8 1.8-3.2-.7-2.8-2.9.4-6.8 6.3-6.8 10.3 0 4.3 4.9 11.7 10.3 15.4 3.5 2.3 5.7 3.1 9.1 3.1 3.6 0 4.8.4 5.6 2.1.7 1.1 1 2.2.8 2.4s-6.8-1.8-14.8-4.5l-14.5-4.8.3-4.4c.3-4.1.1-4.5-3.2-6.1-2.7-1.2-3.6-2.3-3.6-4.1 0-2.6-3.3-5.6-6.2-5.6-.9 0-2-.5-2.4-1.1s-.8-7.4-1-15.1-.8-16.5-1.4-19.6a144 144 0 0 1-1.1-15.7c-.1-6.9-.6-10.7-1.6-12.3-2-3.2-1.3-4.3 5-8.5q10.8-7.1 12.7-14.9c.5-2.4 1.4-5.7 1.9-7.3l1.6-6.5c1.5-8.3 2.1-8.7 5-3.4m128.5 1.3q-1 2-2.6 2.1t-.4-1.9c.9-1.8 3.1-3.2 3.8-2.5.2.1-.1 1.2-.8 2.3m-74.6-1q.4.9-1 1.5-3.6 1.5-3.4-.9c.2-2.4 3.5-2.1 4.4-.6M196 460.1q0 .8-1 .9-.9-.1-1-1.6.1-1.3 1-.9 1 .6 1 1.6m90-1.1q0 .9-.4 1-.5-.1-1.1-1-.4-1 .4-1 1 0 1.1 1m5.5 0q-.7.9-1.6 1-.9-.1-.4-1a2 2 0 0 1 1.6-1q.9 0 .4 1m16.5 3.5c5.5-.8 7.8.9 2.4 1.8-5.3.9-10.8-1.2-11.2-4.3l-.4-2.5 2.2 2.8c2.1 2.6 2.6 2.8 7 2.2m-120.4-1.9c2.1-.6 2.4-.3 2.4 2.3 0 2.7-2.7 5.5-6 6.3-1.3.3-4.2-8-3.4-9.4q.6-.6 2.6.3c1.1.6 3.1.8 4.4.5m-45.3 6.7c1.4 2.1 1.3 2.3-.7 2.4-1.1.1-3.3 1.6-4.7 3.2s-3.1 3.1-3.9 3.1q-1.5 0 .3-1.8c1-1 1.7-2.3 1.7-2.9 0-1.3 3.9-6.3 5-6.3q.8.2 2.3 2.3m187.3 3.4c-.7.7-2.6-.7-2.6-1.9q0-1 1.5.2 1.4 1.2 1.1 1.7m-15.9-.9c.6.4 1.6 2 2.2 3.5 1 2.5.7 3.2-2.4 6.5-3.7 4-4.9 2.6-1.5-1.8 2.4-3 2.5-4.4.5-6-2.6-2.1-1.6-4 1.2-2.2m-160 4.4c1.5 1.7 1.5 1.8-.5 1.8-1.2 0-3.6-1.3-5.4-3l-3.3-2.9 3.7 1.1c2.1.6 4.5 2 5.5 3M368 472c0 .5-1.1 1-2.5 1s-2.5-.5-2.5-1 1.1-1 2.5-1 2.5.4 2.5 1m-171.9 2.1c.9 1.7.8 2.5-.6 3.8-1.5 1.5-1.8 1.4-3.6-.8-1.5-1.8-1.7-2.7-.8-3.7 1.7-2 3.7-1.7 5 .7m18.6 2.1q-.5 1.1-.6-.6t.5-1.3q.5.7.1 1.9m82.1.7q.4 1.3-.9.9-1.2-.5-1.7-1.7-.4-1.3.9-.9 1.2.5 1.7 1.7M145 479.5c1.9 2 4.8 3.7 6.7 4.1 3.9.7 4.5 3.4.9 3.4a21 21 0 0 1-7.1-2.4c-3.8-2.1-5.1-2.3-7.5-1.4-1.7.5-3.3 1.4-3.6 1.9-.8 1.3-2.4 1.1-2.4-.3s7-8.8 8.5-8.8c.6 0 2.6 1.6 4.5 3.5m220-1.5q-.1.9-1.5 1c-1.4.1-1.5-.5-1.5-1q.1-1 1.5-1c1.4 0 1.5.4 1.5 1m-65.9 2.3c-.1 1.2-1.5.9-1.9-.4q-.4-1 .8-.8 1 .5 1.1 1.2m33.7.9c.7.7 1.1 3.6 1 6.7q-.1 6-.5 2.1a13 13 0 0 0-2.5-5.7c-2.8-3-.9-6 2-3.1m-144 3.1q2.3 4.7-1.8 4.7c-2.2 0-3.4-3.1-2.5-6.1.8-2.6 2.6-2 4.3 1.4m161.1-1c1.2 1.5.5 2.7-1.6 2.7q-1.2-.2-1.3-2c0-2.3 1.3-2.6 2.9-.7m-128.3 9.3c1.3 2.3 2.2 4.8 1.9 5.6-1.1 2.7-4.6 25.2-5 32.3-.6 7.9-2.2 21.7-3 25.5-.3 1.4-.8 6.3-1.2 10.9-.6 7.8-.5 8.5 1.6 10 2.1 1.6 2.1 5.1.1 5.1-.5 0-3.9 2-7.6 4.5a61 61 0 0 1-6.9 4.3c-.2-.2-.5-8.2-.9-17.9-.6-16.9-.5-17.7 1.5-20.3 2.1-2.6 2.1-2.7.3-4.8-1.7-1.9-1.9-3.7-1.7-21.7.4-27.3 1.4-37.5 4.2-40.5l2.2-2.4 6 2.6c4.8 2 6.6 3.5 8.5 6.8m-24-5.9c-1.3 6.6-1.5 9.4-1.7 23-.1 12.4-.3 14.6-2 16.7-2.3 2.9-2.4 4.2-.5 4.9 2.2.9 3.1 15.8 1.6 26.1-.7 4.7-1.6 8.6-2 8.6-1.2 0-2.9-11.1-2.5-16.1.1-2.4 0-4.8-.3-5.3-1-1.8-1-7.1.1-8.5.9-1 .7-1.6-.7-2.7q-1.8-1.3-1.2-3c.4-1 .1-2.1-.6-2.5q-1.5-.8-.1-2c.6-.6.9-1.8.6-2.5-.3-.8 0-2.1.6-2.8q1.5-1.5-.6-2.5c-1.7-1-1.6-1.2.7-3s2.3-2 .6-2.7c-1.7-.6-1.7-.8-.2-1.6 1.3-.8 1.5-1.3.5-2.4s-.8-1.5.5-2c1.8-.7 2.1-3.5.6-5-1.3-1.3.4-7.8 2.9-10.5 1.1-1.2 2.1-3 2.1-3.9 0-1.6.8-3 1.7-3 .3 0 .2 1.2-.1 2.7m122.4-1.2c1.3 1.6.4 5.8-1.3 5.2s-3.1-3.3-2.4-5.1q1.3-3 3.7-.1m62 3.3q0 2.2-1.2 2c-1-.4-1.4-3.2-.9-6.6.3-1.6 2.1 2.4 2.1 4.6m-10.8-.6q-1.1 1-1.2.2 0-1 .7-1.7t1.2-.2q.3.6-.7 1.7m-227.6 2.9c3.2 2.6 4.5 3 7.7 2.6q3.9-.6 3.7.8c0 1.8-.7 2.2-5.1 3-3.2.6-4.1.3-7.3-2.6-3.3-2.8-4-3.1-6.2-2-5.6 2.5-6.2.1-.6-2.8l3.8-2.1zm260.2.9a71 71 0 0 1 11.3 5.6c2.2 2 4.4 7.3 3.4 8.2q-.7.6-1.2-.5c-.8-2.4-9.9-8.1-18.6-11.8-4.8-2.1-9-4.1-9.3-4.6-1.2-2.1 5.5-.6 14.4 3.1m-59.4-2.1c.4.5.1 2.2-.5 3.8-1 2.7-1.1 2.7-2.5.9-2-2.8-1.8-5.6.5-5.6q1.9 0 2.5.9m20.4 4.4c-2 1.8-3.8 4.3-4 5.7-.4 3.3-3.2 3.3-3.6-.1-.4-3.3 2.6-7 6.9-8.5q7.1-2.5.7 2.9M398 497c6.7 2.9 12 6.1 14 8.5 1.2 1.5 1.2 1.8-.2 2.6q-1.5 1-1.1 3c.5 1.8.3 2-1.5 1.4q-6.2-1.6-.7 4.7c4.1 4.4 4 6.2 0 3-2.2-1.7-3.1-1.9-5.5-1-4 1.3-3.9 3.8 0 3.8q3 0 3 1.6c0 1.2-.7 1.4-3 .9-2.9-.6-3-.5-2.5 1.8.8 2.9-.5 3.4-10.5 4.3-5.5.4-7 .2-9.8-1.6-3.1-1.9-3.3-2.4-2.7-5.9.3-2 .1-5.8-.6-8.4s-.8-5.4-.5-6.3c.6-1.5.8-1.5 2.7.2a13 13 0 0 1 4.4 7.9l.4 2.7c0 .4 1 1.2 2.1 1.8 2.5 1.3 8.4-.9 9.9-3.9 2.4-4.3-2-14-6.9-15.6a16 16 0 0 0-5.9.4c-4 .9-4.1.8-4.1-1.7a9 9 0 0 1 2.5-5.2c2.3-2.4 3.1-2.6 6.8-2 2.3.4 6.7 1.7 9.7 3m-73-1.1c0 2-3 3.3-5.7 2.5l-2.8-.8 2.5-.4c1.4-.2 2.9-.8 3.5-1.3 1.2-1.1 2.5-1.2 2.5 0m-187.1 3.5c.6.8 2.5 1.9 4.1 2.6q3 1.3 3 3.1c0 1.8-.2 1.9-2.9.5-1.6-.9-3.1-2.2-3.4-3.1-.4-.8-1.6-1.5-2.7-1.5-2 0-2.6-1.1-1.3-2.3q1.4-1.6 3.2.7m204.1 3-1.1 3.6-1.2 3.3-1.8-4.9c-2.5-6.5-2.4-6.9 1.1-4.4 1.7 1.2 3 2.3 3 2.4m-183.4-.3c1.4 2.3-3.7 3.8-6.6 1.9-1.3-.9-1.3-1.1 0-2 2-1.3 5.7-1.3 6.6.1m172.8 2.5c.3.9.6 2.3.6 3.1q.1 1.9-1.5.3c-1.6-1.3-2.1-5-.6-5q.9.1 1.5 1.6m39.9 13.8c-1.1 1.7-5.3-4.4-5.3-7.7v-3.2l3 5c1.6 2.7 2.6 5.3 2.3 5.9M152 510q0 .9-1 1a1 1 0 0 1-1-1q.1-1 1-1t1 1m7 1.2c0 .7-.8 4-1.8 7.3-1.7 5.6-2 6-4.6 5.7-1.5-.2-3.8.4-5.1 1.2a11 11 0 0 1-3 1.6c-1.1 0-.4-3.8 1-5 1.3-1 1.1-1.6-1-4.4a12 12 0 0 1-2.5-5.1c0-1.8.1-1.7 2.3.1 3.4 3 7.1 4.6 9.8 4.2 1.9-.2 2.5-1 2.7-3.6.3-3 2.2-4.7 2.2-2m68.2 15.1q-.4.6-1.6-.3c-1-.8-1.1-2-.2-5.8l1.1-4.7.5 5c.3 2.7.4 5.4.2 5.8m-87.2-4.7q-.1 1.3-1 .9-1-.7-.5-1.6 1.4-2 1.5.7m201.2-.1c.7.7-1.1 11.8-2.1 12.8q-.8.6-1.5-1.6a8 8 0 0 0-3.1-4.1c-3.2-2.1-3.2-3.8 0-3 2 .5 2.7.1 3.6-2q1.6-3.7 3.1-2.1m-189.5 11.1c.9 2.4-1.8 4.3-5 3.7-4.8-.9-2.4-4.4 3.6-5.2q.7 0 1.4 1.5m77.3.5q0 1.8-1 1.4c-.5-.3-1-1.3-1-2.1s.5-1.4 1-1.4q1 .1 1 2.1M142.1 550q.8.1.9 1.1c0 1.5-4.3.7-4.8-1q-.5-1.5 1.2-.8c1 .4 2.2.7 2.7.7m98.4 14.8c0 1.8-2 1.5-2.3-.4q-.4-1.6 1-1.2 1.2.6 1.3 1.6m-11.2 2.4c1.7.9 2.4 2.8.9 2.8q-1 .1-2.5 1.2c-1.6 1.2-2.6 7.1-5.2 33.4-.7 7.1.8 9 7.4 8.7 2.8-.1 5.3.2 5.6.7q1.4 2.5 4.7-1.5c3-3.5 3.7-3.1 3.1 1.7-.7 5.3-1.4 5.8-6.4 4.7-2.1-.5-6.9-1.2-10.6-1.7l-6.8-.7-.3-5.8q-.5-9.7 3.4-32.1c1.6-9.2 1.6-10 .1-11.1-3.5-2.5 1.7-2.8 6.6-.3m-45.3 1q.1 2.7-1 .8-2-3 0-3 1 .2 1 2.2m11.4 6.5c1.2 10.3 1.1 18.7-.3 20.8q-1.6 2.9-.8-.2c.3-1.2-.1-2.8-.9-3.4-1.6-1.3-1.8-15.5-.2-17.5q.8-1.2-.8-1.8c-1.3-.5-1.4-.9-.4-2.1 2.1-2.5 2.8-1.7 3.4 4.2m46.1-2.7q.5.9-.4 1-1-.1-1.6-1-.5-1 .4-1a2 2 0 0 1 1.6 1m5.3 3.5q-.6.4-1.2-1.2-1-2 .5-.6 1.1 1.2.7 1.8m-10.7-.5c2.8 1.6 2.3 3-1 3-3.1 0-4.7-1.3-3.6-3q1-2 4.6 0m8.9 8.4c4.1.8 12.4 3 18.4 5s11.5 3.6 12.2 3.6q1.3 0 1.4.9c.1.9-5.7.6-12.7.4-12-.5-13.5-.4-24.2 2.5a62 62 0 0 1-12.2 2.6c-.4-.2-.3-1.9.2-3.7.5-1.7.9-5.3.9-7.9V582h4.3c2.3 0 7.6.7 11.7 1.4m-73.5 1.6c3.1 1.9 6.5 6 6.5 7.7 0 .4-1.8-1-3.9-3.1-5-4.9-5.1-4.9-25.1 5.7-17.4 9.2-27.9 13.9-29.2 13.1-.5-.3-2 .1-3.3 1a9 9 0 0 1-4.2 1.6c-3 0 .5-2.4 8.2-5.5 3.9-1.6 12.2-5.5 18.6-8.7s12.2-5.8 12.7-5.8 2.6-1.3 4.4-2.8c6.7-5.8 10-6.5 15.3-3.2m44.3 1.7c-.2 1-1.7 2.4-3.3 3.2a29 29 0 0 0-6.7 4.9c-3.4 3.2-5 3.5-3 .6a67 67 0 0 1 12.5-10.4q.7.2.5 1.7m96.2 4.4c8 1.6 17 3.2 20 3.5 6.3.6 7.2 1.2 7.6 5.1.9 9.1 1.7 13.1 3.1 15.3 3.2 4.9 2.1 10.4-4.6 23.7-3.4 6.8-6.6 12.3-7.1 12.3s-3.9 3.8-7.6 8.5a60 60 0 0 1-12.5 12.6c-7.7 5.2-10.9 9.9-10.9 16.1 0 3.6-.4 4.8-1.5 4.8q-1.4-.2-1.5-1.5c0-2.1-4.8-4.9-8.9-5.2-2-.1-6-.8-8.9-1.4-5.1-1.3-9-.8-15.6 1.7-1.5.6-1.7.4-1.1-1.5.4-1.2-.1-4.5-1.1-7.6-1.4-4.6-1.5-6.2-.5-9.7.6-2.4 1.8-7.5 2.5-11.3 1.8-8.9 5-17.3 11.6-30.5s21.2-38 22.3-38zm-143 1.3c0 1.5-1.8 3.1-2.6 2.3-.7-.7.7-3.7 1.7-3.7q.8.1.9 1.4m46.8 5.6c-.2 3.3-.7 6.2-1 6.5s-2.2-.4-4.2-1.5l-3.6-2.2-1 2.6-2 5.2q-1 2.4-1.7 2.1c-1.2-1.3 3.1-10.2 7-14.4 5.6-6.1 7-5.8 6.5 1.7m70-2.3q.2 1.2-1.8 1.3c-1.2 0-3 .5-4.1 1.1-3.6 1.9-4.3.3-.8-1.9q5.5-3.5 6.7-.5M174 598.5c0 1.6-2.7 3.2-3.7 2.2q-.5-.7 0-2.2c.8-2 3.7-2 3.7 0m21.3 3.5c-.6 2.2-3.3 2.8-3.3.7 0-1.6 2.1-3.8 3.1-3.2q.6.6.2 2.5m-36.7 2.1q-1.4 3.3-1.5 1.6c-.1-2.1 1.8-6.1 2.5-5.4.3.3-.2 2-1 3.8m114.5-2.2 2.1 1.9-3.1.7c-4.4.9-3.8 2.3 1.1 2.7 5.1.4 6.6 2.8 1.5 2.6a11 11 0 0 0-4.6.6c-1.6 1-.4 2.6 2 2.6 2.5 0 3.6 2.7 2 5.1-5.3 8.6-16 37.4-18.2 49-1.1 6-1.2 8.2-.7 18.2.2 3.2-.4 4.4-4.8 9a44 44 0 0 0-12.2 22.2 167 167 0 0 0-5.2 26.8c0 1.4-.4 2.9-1 3.2s-1 1.8-1 3.2-1.3 5-3 7.9-3.4 7-3.9 9.1l-3.3 12c-2.2 7.2-2.3 8.5-1.1 10.3q1.5 1.8.7 6.7c-.5 4.1-.3 5.1 1.5 6.7 1.1 1 1.8 2.2 1.6 2.7-.3.4-4.6.8-9.7.8l-9.1.1-4.3-4.4q-4.4-4.3-4.4-7 .1-5.6 3.5 1.6 2 4.4 4.4 4.6c2.1.3 2.3.1 1.7-2-1.8-6.4-1.8-7.8.3-11.1 2.1-3.4 1.5-5.7-1.6-5.7q-2.4.1-.2-8.5c.9-3.4 1.9-4.8 4.1-6l3.1-1.5-.8 5.3c-1.1 7.6-1.1 8.6 0 8.7.6.1 1.5-2.5 2.2-5.7 4.2-21.5 5.2-27.4 5.2-31.8 0-2.8.8-7.3 1.9-10.2 2.2-5.7 1.6-7.3-2.7-7.4-2.3 0-2.1-.2 1.2-1.6 4.5-1.8 4.4-3.6-.3-4.3-3.4-.5-5.5-3-2.6-3q1.5-.1 1.6-1-.1-1.5-3.8-1.1c-2 .3-2.4-2.5-.8-5.8.9-1.6 1.5-3.8 1.4-4.8-.4-4.8.2-6.1 3.3-6.7q3-.5 2.3-1.7c-.3-.6-1.7-.9-3-.6q-2.4.4-2.4-.9c0-1.3 1.1-1.4 3.1-1.4 3.8 0 3.5-2.4-.4-2.8-1.5-.2-2.7-.7-2.7-1.2 0-1.3 3.5-3 6-3q2 0 1.7-1.3-.5-1-2.5-1.2c-3.3-.1-3.1-1.9.2-2.5q5.5-.9 1.6-4.5c-3.9-3.6-2.5-3.2.5-3.9 3.7-.9 3.2-3-.6-2.2-2.5.5-3 .3-2.7-1.2q.3-1.7 4.1-2c4.6-.4 4.8-1.9.5-3-4.9-1.2-4.3-3.7.9-3.7 5.4 0 5.8-1.7.7-3.1-5.2-1.4-5.1-3.8.1-4.2q8.8-.9 1-3.2c-6.3-1.8-5.8-4.3 1-5 4.9-.6 5-.6 2.2-1.8-1.6-.7-3.4-1.2-4.1-1.2q-3 0-1.6-3c.7-1.3 2.1-1.7 6-1.6 2.7.1 5-.2 5-.6 0-1.4-5-2.8-7.6-2.2-2.6.7-3.4-1-.8-2 .9-.3 3.6-.6 6-.6 4.4 0 5.8-1.2 2.8-2.4-.9-.3-2.7-.6-4.1-.6q-2.3 0-2-1.3.2-1.2 8.3-1.3c10.4-.2 10.6-.2 9.9-1.5-.4-.6-.2-3 .5-5.5.9-3.2 1.8-4.4 3.1-4.4 2.5 0 2.4-1.6-.1-2.3-5.2-1.4.4-6.8 8.9-8.6 2.6-.5 5.7-1.4 7.1-2 3.7-1.4 4.9-1.3 7.1.8m8.7 1.7c-2.4 2.4-4.4.7-2.2-1.7q1.8-2 2.8-.9 1 1-.6 2.6m201-2.4c-.3.7-1.7 6.1-3.3 12-2.6 10.3-2.7 10.9-1.1 13.3 1.7 2.6 4.2 4.2 5.2 3.3.6-.6 3-10.6 3.9-16.2.8-4.9 1.7-4 1.9 2q0 4.7 1.8 5.8c2.4 1.5 3.2.2 3.8-6.2.4-4.2.9-5.7 2-5.7s1.6 1.6 1.8 7.2c.2 5.8-.1 8-1.9 11.5a86 86 0 0 0-8.3 32.3c-.5 10.6-.8 12.1-1.5 9.5a4 4 0 0 0-3.1-3c-2.4-.6-2.5-1-2.6-8.3-.2-8.2-1.2-10.4-4.7-10.9-1.7-.2-2.3-1.2-2.7-3.8-.5-3.5-1.5-4-5.2-2.5-2.7 1.1-2.2-1.2.7-3.7 1.9-1.6 2.5-3.1 2.5-6.1 0-2.1.8-6.7 1.7-10.2 1.6-6.1 1.6-6.3-.5-9-2.7-3.4-2.7-4.4.1-7.5 3-3.4 10.4-6.3 9.5-3.8m-332.5 6c-1.7 3-6.3 5.2-6.3 3 0-.8 6.8-6.2 7.8-6.2.2 0-.5 1.5-1.5 3.2m47.5 4.5c-.6.7-2 1.3-3.1 1.3-1.9 0-1.9-.1.4-2.3 2.4-2.3 4.8-1.4 2.7 1m-70.3-1.7c-.3.5-1.4 1-2.3 1q-2.2.1-.2-1c2-1.3 3.3-1.3 2.5 0m8.5.5c-.7.8-1.9 1.5-2.7 1.5q-1.9.2-.3-1.5c.7-.8 1.9-1.5 2.7-1.5q1.9-.2.3 1.5m52.5 9.3c-.4.5-19 4.1-19.3 3.7-.8-.7 8.6-5.5 10.9-5.5 1.3 0 3.1-.4 3.9-1q1.5-1 3.1.8 1.4 1.5 1.4 2m277.8-1.6c.2.7.2 4.8-.1 9.1-.3 5.9-.9 8-2.2 8.7-.9.5-2.4 3.7-3.4 7.4-1.6 5.7-2.1 6.6-4.6 7.1-1.5.3-3.8 1.7-5.1 3.1-2.4 2.5-2.4 2.6-.5 4q3.6 2.4 5.1.4c.9-1.5 4.5-1.2 4.5.4 0 .7-.6 1.9-1.4 2.5a9 9 0 0 0-2.1 4.4 11 11 0 0 1-3.4 5.4c-2.3 1.9-2.6 2.8-2.7 9-.1 3.7-.7 9.9-1.4 13.8a103 103 0 0 0-1.4 11c-.1 3.4.3 4.1 2.7 5.3 3.1 1.5 3.2 2.1 1.5 9.1q-1.1 5-3.3 6.5c-1.2.8-2.8 2.8-3.5 4.6-1.3 3.1-1.3 3.1-2.4.8q-1-2.4-4.8-2.6t-4.3-2.3c-1-3-5.8-2.5-9.4 1.2-3.7 3.6-4 7.2-.9 9.3 2.5 1.8 8.4 2.1 9.3.6.3-.6 1.3-1 2.1-1q4 0-5.8 4.8c-5.1 2.5-7.1 3-10.5 2.5q-4.2-.6-8.3 1.1c-2.2.9-4.4 1.6-4.9 1.6s1.3-5 4.1-11.1a59 59 0 0 0 4.6-12.5q-.9-4-5.2 2.6-5 7.3-2.6-2c1.2-4.6 5.1-7.3 7.2-5.2 3.4 3.4 6.9-1.6 4.8-6.8-1-2.4-1-3.3 0-4.6 1.8-2.1 6.2-1.4 6.6 1 .4 3.2 2.2 4.2 4 2.4 1.2-1.2 1.6-3.5 1.6-8.4 0-5.6.2-6.6 1.2-5.1 2.7 4.4 3.4 5 5 4.4 1.4-.6 1.6-1.5 1-5.4-.9-6.4-1-6.5-5.2-5.7-5.2.9-7.2 2.2-7.2 4.4q.2 4.1-5.5 1.9c-2.6-1-4.5-1-7.5-.3-2.3.7-4.3.7-4.8.2-1.5-1.5-11.9-1.5-13.4 0-1 1-1 1.6.1 3.3 2 3.2 0 4.1-4.2 1.9a18 18 0 0 0-4.9-2c-2 0-9.8 8.6-9.8 10.7 0 2.5 1.9 4.3 4.5 4.3 1.6 0 2.1.6 2 2.7 0 2.3.5 2.9 2.9 3.1 2.8.3 2.8.5 2.3 5-.3 2.6-1.5 6.7-2.6 9.2a25 25 0 0 0-2.1 6.3q0 1.8-1.7 1.5-1.6-.5-1.5-1.8.2-1.2-1-2.2-1.5-.8.2-1.7c1.2-.9 1.2-1.4-.2-4.5-.9-1.9-2.6-3.7-3.8-4.1l-2.1-.7 2.1-3.2c3.4-5.6 2.2-10.6-2.5-10.6-1.2 0-4 1.6-6.2 3.5a25 25 0 0 1-4.8 3.5c-.4 0-1.8.9-3.1 1.9-2.2 1.7-6.4 1.9-6.4.2 0-.3 2.3-2.6 5.1-5s5.8-6 6.6-7.9a55 55 0 0 1 3.8-7.1c1.2-2 2.6-5.8 3-8.6s1.3-6.2 2.1-7.8c1.3-2.4 1.3-2.8-.1-3.3-2.3-.9-1.8-3.6 1.4-7.2 3.2-3.4 3.3-3.4 12.6-3.6q6-.2 10.4-2.4c3.9-2.1 4.5-2.1 6-.7 2.4 2 4 1.9 6.7-.6l2.3-2.2 1.2 2.6c1 2.2.8 3-1.6 6.1-3.1 4-5.7 4.5-9.4 1.7-1.9-1.5-3.7-1.7-10-1.4-9.8.6-10.7.8-9 2.9 1.1 1.3 2.6 1.5 9.2.9l8-.7-.7 2.6c-.8 3.1 1.1 3.4 6.7 1.1l4.2-1.5q.5.2.5 1.5c0 1.9 2 1.9 4.8-.1q3.9-2.8.7-3.6c-1.2-.2-1-1 1-3.9 1.5-2 3.7-4.2 5.1-4.9 3.3-1.8 3.2-4.4-.2-3.7l-2.5.4 2.3-2.6c3.3-3.7 3.9-4.1 7.5-4.1 4.1 0 5.1-1.7 1.9-3.1a7 7 0 0 0-5.5-.1c-1.7.6-3.3.7-3.6.2s1.4-1.5 3.7-2.1c4.2-1.2 7.2-2.9 5.3-2.9-10.4-.5-12.2-.4-11.8.7.3.7-.7 1.5-2.1 1.9s-4.2 2.8-6.2 5.5a27 27 0 0 1-5.2 5.4c-2.5 1 12.6-15.8 17.9-19.8q5.7-4.4 9.8.7c.7.9 1.7 1.6 2.1 1.6 2 0 8.8-8.1 10.4-12.4 2.5-6.5 9.2-14.6 13.6-16.1 4.7-1.7 6.7-1.7 7.3-.3m1.1 30c-.6 6.3-2.4 8.9-2.4 3.6 0-3.6 1.5-8.8 2.5-8.8.2 0 .2 2.4-.1 5.2m8.5 5.1c.7 1 .8 3.1.1 7.3-1.3 7.9-1.3 17.1.1 18 .6.3.8 1.6.4 2.8l-2 7.6-2.4 9.5c-.6 2.2-.8 6.6-.5 9.7.5 6-.8 10.1-4.8 14.5-4.8 5.2 1.6 8.5 7.6 4 1.8-1.4 4.9-2.7 7.2-2.8 2.1-.2 4.3-.9 4.7-1.4 1.2-1.5-.4 4.7-1.9 7.5l-3 6c-.9 1.9-2.8 5.1-4.2 7a13 13 0 0 0-2.7 6c0 2.5 0 2.5-9.5 2.5-7.9 0-10.3-.4-14.3-2.4-4-1.9-5.9-2.3-10.4-1.8-6.2.7-7.9 1.7-9.8 6.4-1.6 3.7-2.1 3.8-11 2.3q-6-1-13.8.1c-7.2.9-8 .9-9.3-.8-1.2-1.7-1.3-1.7-1.4-.1 0 1.9-1.5 2.4-2.4.9-.6-.8 3-2.8 9.9-5.4a57 57 0 0 1 18-4.2c4.1-.4 8.8-1.6 11.5-3l12.8-6.4c6.1-3 8.2-4.6 8.2-6 0-3.4 4-12.5 6.5-14.6 1.6-1.4 2.5-3.5 2.9-7.2.6-4.5.4-5.3-1.3-6.3s-1.9-1.4-1-3.8a18 18 0 0 1 2.3-4.2c1.5-1.6 4-16.6 3-18.1q-.6-.8-2.1-.9c-1.2 0-1.4-.7-.9-3.2.8-4.1 2.9-5.5 3.6-2.5q.6 2 2 2.2c2.4 0 4-4.7 4-12.1q-.1-12.2 3.9-7.1M460 675q1.5 1 .3 1c-1.2 0-1.3 1.4-1.3 3.4 0 4.5-1.6 5.5-2.4 1.5-1.3-6.6-.3-8.3 3.4-5.9m25.9 14.2q-1.7 12.9-3.9 11.3c-.8-.5.5-7 1.9-9 .4-.6.6-2.4.5-4-.2-2.8 1.5-8 2.3-7.1.3.2-.1 4.2-.8 8.8m-203.7-.1c1.6.9 1.5 1.4-1.6 5.7-1.8 2.6-5.4 9.3-8.1 15-4.4 9.6-4.7 10.8-4.3 16.8.2 3.5.2 6.4-.1 6.4q-.5-.1-2.2-1.6c-2.3-2-4.6-1.2-5.1 1.7-.6 4.2-2.8 3.4-2.8-1q0-4-1.3-4.1-3.7 0-3.7 7.2c0 2.9-.4 4.8-1.1 4.8q-1.2.1-.7-8.1l.5-8-2.4.6c-2.3.5-2.4.4-1.8-2.6.7-3 .6-3.1-1.9-2.5-3.3.8-3.3-.4-.5-8.1a34 34 0 0 1 13.4-17.9c8.6-5.7 17.9-7.4 23.7-4.3m175.8.8a3 3 0 0 1-1.5 2.5c-1.5.5-2.2-2.4-.8-3.7 1.2-1.3 2.3-.7 2.3 1.2m-98.5 4.3a109 109 0 0 1-11.7 22.2c-1.4.9-2.1.6-3.3-1.2q-3.1-4.2-11-.2c-2.2 1.1-4.8 2-5.8 2q-2-.1-1.2 1.7c2 4.9 1.9 5.6-.5 5-1.3-.3-3-.1-3.7.5q-1.2 1-1.3.1-.3-1.4-2.6-3.9-2.6-2.8-1.5-3.2c.7-.2 1.6-1.4 2-2.6.5-1.2 2.5-2.7 4.6-3.4 3.2-1.2 3.9-1.2 5.6.4 1.9 1.7 2 1.7 3.4-.3q1.5-2 3.4-1.6c2.4.6 9.7-3.1 11.1-5.6.5-1.1 1-3.1 1-4.4q-.2-3.7 5.9-6.4 6.6-3 5.6.9m-260 5.9c6.2 3.5 8.1 5.5 4.4 4.6-8.3-2.1-15.9-4.4-16.5-4.9q-.5-.7.1-1.7c1.2-2 6.5-1.1 12 2m243.5-.6c0 .9-1.1 2.7-2.5 4-4.6 4.7-6.4 2.1-1.8-2.7q4.4-4.7 4.3-1.3m-205.3 9.1c3.2.9 5.2 2 5 2.7s-1.3 1-2.3.9c-1-.2-3.7-.3-6-.3q-4 .1-5.4-1.4-1.2-1.3-2.2-.9t-2.6-.1c-1.4-.5-1.4-.7-.2-1.5 2.2-1.4 7.5-1.2 13.7.6m28.6 4.5c3.1.7 5.7 1.6 5.7 2 0 1.2-.7 1.1-4.6-.3q-3.3-1.2-5.6-.1c-2.8 1.2-4.8.7-4.8-1.3 0-1.7 1.9-1.8 9.3-.3m222.7.7c1.9.9 4.4 3.2 5.5 4.9s3 3.6 4.3 3.9c3 .8 2.8 2.6-1.1 8.2a57 57 0 0 0-4.7 8.2c-2.7 7-7 9.5-7 4 0-1.6.6-4.7 1.4-6.7a56 56 0 0 0 4.3-17.8 3 3 0 0 0-2.3-1.5c-2 0-6.6-3.5-5.7-4.4.9-.8 1.3-.7 5.3 1.2m-199 2.7c1 1.3.9 1.5-.9 1.5q-2 0-2.1-1.5 0-1.3.9-1.5c.9-.2 1.4.7 2.1 1.5m9 2.5q0 .9-.4 1l-2 .6q-1.8.8-1-1c.7-1.7 3.4-2.2 3.4-.6m-101.2 5.7c.6 7.5 4.1 7.8 8.4.8l1.8-3v3c.1 6.6 4.4 7.4 5.6 1q1-6.4 4.3-3.1c1 .9 2.3 1.6 2.9 1.6q1.1.1 1.2 1.8c.1 1.7.5 2.3 1.2 3 2.4 2.4-.9 3.3-12.3 3.4-16.1.1-38.8-1.3-39.5-2.4q-1.8-3 8.8-3.3c5.2-.2 7.8.2 9 1.3 3 2.5 5.1.7 4.5-3.8q-.5-3.8.7-4.4c2.2-.9 3.1.1 3.4 4.1m107.2-3.6q.1.8 1 .4t1 .4c0 1.3-.3 1.3-2.4.5-1.8-.7-2.2-2.4-.6-2.4q1 .1 1 1.1m4.4.4q.4 1.3-.4 1.5-1-.2-1-1.5c0-1.3.2-1.5.4-1.5s.6.7 1 1.5m-124.8 1.3c-.2.4-1.9.9-3.6 1q-3 .3-2.5-.8c.3-.5 2-1 3.6-1s2.8.4 2.5.8M53 724q1.9 1.1-1.3 1-2.6 0-2.2-1c.8-1.2 1.6-1.2 3.5 0m10.8 2.6c1.2 2 1.9 4 1.6 4.6-.8 1.2-11.5.5-15.4-1.1q-3.8-1.2 1.1-1c1.9-.1 4 .4 4.7 1.1 1.7 1.7 4.2-.8 4.2-4.3q-.2-5.7 3.8.7m93.6-.4q-.8 2 2.2 4.4c2.2 1.7 2.6 2.5 1.8 3.4s-1.7.9-3.3.1c-1.7-1-2.1-2.1-2.1-6.2q0-4.9 1-4.4c.6.4.8 1.6.4 2.7m-25.6 2.4q-.4 2.9-2.1 3.2c-1.7.3-1.8-.1-1.2-3 .4-1.8 1-3.7 1.2-4.1 1-1.7 2.5 1.1 2.1 3.9m10.6-1.4q4 5.4-2.1 4.6c-4.3-.3-5.8-3.3-2.7-5.5 2.4-1.8 3-1.7 4.8.9m216.6.8q-.1.9-1.1 1-.8-.1-.4-1 .6-1 1.1-1 .4 0 .4 1m-4 1.5q0 1.4-1.5.9-1.4-.7-1.5-1.5c-.1-.8.7-.9 1.5-.9s1.5.7 1.5 1.5m-205.3 1.7q-.5 1.1-.6-.6t.5-1.3c.3.3.4 1.2.1 1.9m153.5 0q-1.1 1-1.2.2c0-1.4 1.2-2.6 1.9-1.9q.3.6-.7 1.7M362 730q0 .9-.4 1-.5-.1-1.1-1-.4-1 .4-1 1 0 1.1 1m-190.5 3.4c.2 1.1.6 3.2.7 4.6q.3 2.5 2.3 2.6c1.1.1 2.8.5 3.8.9 2.6 1.1 4.7-.2 4.7-2.9 0-3.8 5.1-7 9.8-6.2l7.3.9c2.1.1 4.6 1 5.7 2 1.8 1.6 1.8 2.2.7 6l-1.2 4.2-25.8.3c-16.4.3-26.1 0-26.7-.6q-1-1 2.4-2c1.9-.5 5.3-2.1 7.6-3.6 3.3-2.1 4.2-3.2 4.2-5.4a8 8 0 0 1 .6-3.5c1.1-1.1 3.4.5 3.9 2.7m125.8 2.7c-2.2 3.9-9.8 8.9-13.5 8.9-1.5 0-3 .5-3.3 1.1q-.7 1-2.4-.5-1.7-1.4-2.9-.7c-.7.4-3.4.6-6 .4q-4.8-.5-8.2 1.4c-3.9 2-8.5 1.6-8.5-.7 0-1.5 8.8-6.9 14.3-8.8 2.6-.9 3.5-.8 5.6.9 4.7 3.7 18.3 1.6 22.6-3.5.7-.9 1.9-1.6 2.7-1.6 1.1 0 1.1.6-.4 3.1m52.5 1c-1.1 3.2-3.1 3.4-3.6.5-.4-1.8 2.7-4.8 4-4 .4.2.2 1.8-.4 3.5M73 735.5c6.9.3 27.7.8 46.3 1s34.2.7 34.8 1q2.7 2-5.7 3.1a15 15 0 0 0-6.9 2.1c-1.7 1.6-1 3.8 1.3 4.9.9.4 14.8 1 30.9 1.3s29.5.9 29.9 1.4.3 2.7-.2 5.2l-.9 4.6-16.5.5c-9.1.2-24.1.8-33.3 1.2-29.4 1.2-47.7-.6-47.7-4.8 0-.5 2.1-1.8 4.7-3 5.8-2.5 8.3-4.7 8.3-7.2 0-3.3-4.6-4-27-4.3q-21.6-.4-29.5-1.9a79 79 0 0 0-11.2-1.6c-4.5 0-6.3-.9-6.3-3.2 0-1.9.5-2 8.3-1.4zm169.9 8c.8.3 2-.1 2.7-.9q1-1.5 2.3-1.6c2.2 0 1.1 1.6-2.5 3.5-4.1 2.2-6.9 1.2-6.7-2.3.1-3.6.4-3.8 1.5-1.5.6 1.2 1.8 2.5 2.7 2.8m156.1-1.1c0 1.5-4.9 7.1-5.6 6.3-.6-.6 3.8-7.6 4.9-7.7q.6.1.7 1.4m-88.3 2.2q-.6.5-1.9.1-1.1-.5.6-.6t1.3.5m38.1 4c-1 1-2.8-.6-2.8-2.4 0-1.5.1-1.5 1.7.1q1.4 1.5 1.1 2.3m-25.7 2c1.1 3.1 2.5 3.7 5.1 2.3a10 10 0 0 1 5.1-1 7 7 0 0 0 4.6-1.3c1.5-1.4 2.1-1.3 6.6.9 2.6 1.4 5.6 2.5 6.6 2.5s2.1.4 2.4 1q.4 1-3.2 1c-2.2 0-4.4.5-5 1.1-.8.8-3.1.8-8.4 0l-15.9-2.2a53 53 0 0 1-10.1-2 6 6 0 0 0-4.3.1c-3.7 1.4-11.7-1.5-10.3-3.7.3-.5 6.3-.9 13.3-.9 12 .1 12.7.2 13.5 2.2m62.6 1.9c-1.5 3-2.8 3.6-6.7 2.8-5.2-1-3.4-3.3 3.5-4.4l4.2-.8zM257 753c11.5 1.1 38 3.1 47.5 3.6 12.3.6 20.2 1.5 26.5 3 3.6.9 9.9 1.6 14 1.6 4.1.1 8.4.7 9.5 1.4s5.7 2 10.3 2.9c4.5 1 8.2 2.2 8.2 2.8q-.1.8-1.6.3c-.9-.3-10.2-1.1-20.7-1.6a627 627 0 0 1-28.2-2.1c-56.9-6.6-78.3-8.4-80.1-6.6-1.4 1.4 1.9 2.7 7.1 2.7 2.8 0 13.1.9 23 2 20.5 2.3 58.1 5.9 70 6.7 4.8.3 8.3 1.1 8.7 1.8s3.6 1.5 7 1.9c17.1 1.8 31.2 5.5 32.3 8.4.9 2.3-3 5.2-6.9 5.2s-12 4-12.4 6.2c-.8 4.1 6.7 7.6 20.8 9.7 4.1.7 9.3 1.6 11.5 2.2 5.9 1.5 6.7 1.5 7.2.3q1-3-22.7-6c-6.2-.7-11.5-3.5-11.5-5.8s5-4.4 10.1-4.5c3.8-.1 8.4-3.5 8.4-6.2s-6.4-6.6-13.9-8.3c-3.4-.8-6.6-1.8-7-2.2-.8-.8 21 .5 26.4 1.6a97 97 0 0 1 19.7 5.8c1.2 1.2-.5 4.2-2.4 4.2s-8.8 6.4-8.8 8c0 2.6 4.1 5.8 9.3 7.1q5 1.1 5.9 3.5c.6 1.3 2 2.7 3.2 3.1 3.8 1.3-7.7 2.1-32.4 2.2-24.1.1-28.8-.4-32.4-3.8-1.2-1-5-3.1-8.6-4.6a39 39 0 0 1-8-4.1c-1.3-1.4-1.3-1.7.3-2.8.9-.7 4-1.6 6.8-1.9 6.3-.8 9.9-3 9.9-6 0-7.2-15.9-11.4-57.5-15.2-9.3-.8-25.2-2.4-35.3-3.5a495 495 0 0 0-26.8-2.1c-4.7-.2-8.8-.7-9.1-1.1s.3-2 1.1-3.3q1.5-2.5 1-5c-.6-2.4-.5-2.5 4.7-2.5 2.9 0 10.1.4 15.9 1m-233.8 8.6a36 36 0 0 1 8.2 4.8c2.5 1.9 7.1 4.2 10.1 5.1 3.1.9 6.4 2.4 7.5 3.5 2.4 2.4 4.6 10.4 5.4 19.3.6 5.7.4 6.8-1 7.4-1.9.7-13.5-2-20.7-4.8l-7.7-3.1-2.5-1 2.3-.9c1.2-.4 2.2-1.4 2.2-2.2 0-1.6-5.2-5.4-12.7-9.4q-5.2-2.7-5.3-4.5c0-2.5 1-2.3 6.5 1.7 3.5 2.5 5.2 3.1 6.1 2.4q1.1-1.1.7-2.5c-.6-1.7-9.6-8.4-11.2-8.4q-1-.2-1.1-1.5c0-1.9 2.7-1.9 6 0 2.6 1.5 9 2 9 .7-.1-.9-5.6-4.4-9.7-6.1-7.5-3.1-.2-3.6 7.9-.5m233.8 6.9c8.8.5 30.6 2.3 41 3.4l24 2.5a130 130 0 0 1 30.5 5.9c4.8 1.4 6.3 5.3 2.3 6.1a48 48 0 0 0-14.4 4c-1.6 1.2-1.6 1.7-.4 4.5q2.1 5 14 9.1c2.5.8 4.5 1.9 4.5 2.5s-4.3 1.1-10.3 1.3c-10.1.3-10.2.2-11.2-2.3-1.3-3.4-5-3.5-5-.1v2.5h-25.9c-22 .1-26-.1-27.1-1.4q-1.2-1.5-2.5-.5c-.6.5-8.2 1-16.8 1.1-15.2.1-15.7 0-18.5-2.3-2.5-2.1-2.7-2.7-1.8-4.8a8 8 0 0 1 2.3-3.3 3 3 0 0 0 1.3-2.2c0-1.9-2.9-1.9-3.6 0-.3.8-1.5 1.7-2.6 2.1-1.6.5-1.9 1.2-1.5 3.4 1.1 5.4-3.4 6.6-8.4 2.2-2.9-2.6-3.1-3.3-3.4-10.7a56 56 0 0 1 4.5-24q.8-1 11.7-.2zm120.3.2c-.7.2-1.9.2-2.5 0q-1-.5 1.2-.5c2.2 0 1.9.2 1.3.5M430 773c16.4 2.7 22.4 6.3 15 8.9-1.6.5-3 1.5-3 2 0 1.9 7.4 6 13 7.1 20.1 4.1 33.9 8.7 37.1 12.6 2 2.5 0 3.2-11.4 3.9l-10.7.7.2-2.3q.4-2.4-2.4-3.6a82 82 0 0 0-26.1-4.4c-8.8 0-24.8-3.5-25.4-5.5-.2-.7 1.9-2.6 4.7-4.3 4.6-2.9 5.1-3.5 4.8-6.4q-.7-6.5-16.1-8.8c-10.3-1.5-9-3.3 1.7-2.4 4.4.4 12.8 1.5 18.6 2.5m19 30.1c8.9 1.2 15 2.9 15 4.1s-32.2-.1-33.4-1.3c-1.8-1.6 1.3-3.4 6.1-3.6 2.6-.1 8.2.3 12.3.8"/><path d="M196 119.5q.1 1.5 1.1 1.3 1-.4 1.1-1.3 0-1.2-1.1-1.3-1-.2-1.1 1.3m-20 18q.1 1.4 1.5 1.5c1.4.1 1.5-.7 1.5-1.5s-.7-1.5-1.5-1.5-1.5.7-1.5 1.5m-38 28.1q0 1.4 1.2 1.2c1.8-.6 2.1-2.8.4-2.8q-1.5.1-1.6 1.6m-6.9 3.8c-.9 1-.8 1.6.4 2.6 1.9 1.6 4.1-.1 3.2-2.4q-1.3-3-3.6-.2m31.9 4.1q.1 1.5 1.1 1.3 1-.4 1.1-1.3 0-1.2-1.1-1.3-1-.2-1.1 1.3m168.5-.6q-.4.9.5 1.6.9.4 1-.9 0-2.7-1.5-.7m-150.8 70.5c-3.1 1.3-6 2-6.3 1.5-.9-1.5-3.4-1-3.4.6q.1 1.4 1.5 1.5c1.4.1 1.5.9 1.5 2 0 2.6 2.6 2.6 4 0 1.5-2.9 6.5-5.1 11.8-5.3 2.6-.1 4.7-.7 5-1.5.7-2.1-7.8-1.4-14.1 1.2m32.3 75c0 1.7 2.7 2.9 3.5 1.6q.5-1 0-2c-.9-1.5-3.5-1.2-3.5.4m-3 2.9c0 .8.9 2.2 2 3.2 1.6 1.5 2.3 1.6 3.3.6s.7-1.6-1.2-3.2q-4-3.3-4.1-.6m13.4 8.8q-1.2 2.5 4.1 3.1c4.4.3 6.3-1.1 4-2.9-2.3-1.6-7.1-1.7-8.1-.2m111.1-10.9c-1.6.5-6 .7-9.7.6q-11.1-.4-7.3 3.2c1.3 1.1 3.4 1.1 10.7.2 5-.6 9.6-1.6 10.2-2.2 1.7-1.7-.6-2.8-3.9-1.8m-228 67.8q-.4 1 1 1.6c1.9.8 3 0 2-1.5-.8-1.4-2.2-1.4-3-.1m2.7 14.1q.5 1.2 1.7 1.7 1.3.4.9-.9-.5-1.2-1.7-1.7-1.3-.4-.9.9m-1.7 5.9q-.4.9 1.5 1c1.9.1 1.8-.5 1.5-1q-.6-1-1.5-1-1.2 0-1.5 1m.5 7q.2.9 2.3 1 2.6.1.7-1-3-2-3 0m6 2q.1.9 1 1 1-.1 1-1t-1-1a1 1 0 0 0-1 1m-4.3 5.1q1.2 1.1 1.8.7.4-.6-1.2-1.2-2-1-.6.5m3.8 1.9q.6.9 1.6 1 .8-.1.9-1-.1-1-1.6-1-1.3 0-.9 1M439 412.5c-1.7 2-.8 5 1.5 5 1.5 0 2.1-.8 2.3-3.3.4-3.5-1.6-4.4-3.8-1.7M418.5 423c-.3.5.1 2 .9 3.1 1.3 2 1.3 2.5-.1 5.3-.9 1.7-1.5 4.8-1.5 7.1.3 10.1.4 10.3 3 11 2.2.5 2.3.9 1.7 4.3-.4 2-1.3 4.1-2.1 4.5-1.8 1-.9 2.7 1.4 2.7 2 0 5.2-3.4 5.2-5.5q.2-1.3 2-1.5 2 0 2.5-2.8l1.5-5.8a31 31 0 0 0 1-8.2c0-4.9-.2-5.3-4.2-8.2a29 29 0 0 1-5.5-5c-1.5-2.1-4.8-2.7-5.8-1m8.6 9.5c-.1 1.5-2.4 1.2-2.9-.3q-.4-1.4 1.2-1t1.7 1.3m-10.5 32.4q-.5.9.3 1.5t1.5-.3q.5-.9-.3-1.5t-1.5.3M309 583.6q.1 1.3 1 .9 1-.6 1-1.6 0-.8-1-.9-.9.1-1 1.6m8.1-.2q-1.6 1.8-.3 2.8 1.1 1.3 1.8-.5c1-2.7 0-4.1-1.5-2.3m9.1-.2c-1.5 1.5-1.6 3.8-.2 3.8 1.2 0 2.3-2.5 1.8-4q-.3-1.1-1.6.2m7.8 2.3c-.7.8-.9 2.3-.5 3.2.6 1.7.7 1.7 2.1-.1 2.6-3.6 1.2-6.4-1.6-3.1m93.5 90.1L424 678q-1.3.9-1.2 3.9.3 3.1-1.2 3.1c-.7 0-1.9.7-2.6 1.5-1 1.2-1 1.8 0 3 1.8 2.2 3.8 1.9 7.6-1.3l6.4-5c3.1-2.5 3.9-5.9 1.8-8-1.6-1.6-4.9-1.5-7.3.4m-45.3 7.1c.2 1.4 1.5 1.9 5.6 2.1 5.2.3 8.8-1.1 7.6-2.9-.3-.5-3.4-.9-7-.9-5.7 0-6.5.2-6.2 1.7m21.2.7c-1.7 1.3-1.7 1.5-.2 2.1 2 .8 6.1-1.2 5.3-2.6q-1.5-2-5.1.5m-23.4 3.9q0 1.5 4.9 2.7c4.9 1.2 9.1.7 9.1-1 0-1.4-1.2-1.8-7.8-2.6-5.2-.5-6.2-.4-6.2.9m2 6.1c0 .7 1.2 1.6 2.7 1.9 3.2.6 4.3.1 4.3-1.9q0-1.4-3.5-1.4t-3.5 1.4m-129.9 80c-1.2 1.4-.5 2.6 1.6 2.6 1.5 0 1.8-2.6.4-3.4q-1-.4-2 .8m7.4-.4c-.8 1.3.4 3.2 1.6 2.5s1.2-3.5 0-3.5q-1 0-1.6 1m-15.3 5.1q.4 1 1.3 1 1.2 0 1.3-1t-1.3-1.1c-1.5-.1-1.5.5-1.3 1.1m31.3 3c-1 1.5.3 2.5 1.6 1.2q1-1 .1-1.7-1-.4-1.7.5m17.7 1.1c.6 1.8 2.8 2.1 2.8.4q-.1-1.5-1.6-1.6-1.4 0-1.2 1.2m-34.1 1.2q-1.4 1.3.3 2.5 1.3 1.3 2.5-.3 1.3-1.3-.3-2.5-1.3-1.3-2.5.3m54.9-.4q.1.9 1 1 1-.1 1-1t-1-1a1 1 0 0 0-1 1m22.5 0c-.7 1.2.2 3 1.5 3 .5 0 2.1-.5 3.7-1.1q3.1-1 1.3-1.9c-2-1.3-5.7-1.3-6.5 0m-30.4 2.4q-1.3 1.4-.1 2.1c1.7 1 3.7-1.2 2.4-2.5q-1.1-1.1-2.3.4m-56.6.6c-1 1.7 1.2 3.7 2.5 2.4q1.2-1.1-.4-2.3-1.4-1.3-2.1-.1m48.9 1.1c-1 1.7 1.3 3.6 2.7 2.2 1.2-1.2.4-3.3-1.1-3.3q-.9.1-1.6 1.1m-60.8 1.6c-1.1 1.1-.6 2.3.9 2.3q1.4 0 1.5-.9c0-1.3-1.6-2.2-2.4-1.4m25 1.2q-.4 1 .8 2 1.3 1.3 2.5-.2 1-1.4.4-2c-.9-1-3.1-.9-3.7.2m63.9 1.1c-.8 1.4.3 3 2.1 3q1.3.1 1.4 1.4c0 2.2 1.9 3 3.6 1.6 1.1-1 1.2-1.6.3-2.7q-1.1-1.2-1.7-.8t-1.9-1.5q-2.4-3.3-3.8-1m-35.9 1.9c-.9 1.5 2.3 3.6 3.6 2.3.5-.5.7-1.5.4-2.1-.9-1.3-3.3-1.4-4-.2m16.4.6q0 1.3.9 1.5c.9.2 1.4-.7 2.1-1.5 1-1.3.9-1.5-.9-1.5q-2 0-2.1 1.5m-59.9.4c-1.7 1.1-.7 4.1 1.3 4.1 2.2 0 3-2 1.5-3.6q-1.4-1.2-2.8-.5m68.5-.2c-1.1 1.1-.6 2.3.9 2.3q1.4 0 1.5-.9c0-1.3-1.6-2.2-2.4-1.4m-36.1 1.3q-.6 1.2.3 2.2c1.4 1.4 4.5.2 4-1.5s-3.4-2.1-4.3-.7m21.6-.1q-1.2 1-.7 2c.9 1.3 3.3 1.5 4 .2.9-1.4-1.8-3.1-3.3-2.2m20.4 4c-.8 1.5.3 3.1 2.1 3.1q1.4-.1 1.2-1.7c-.4-2-2.4-2.8-3.3-1.4m-70.2 2.3q.5 1.2 1.7 1.3c1.2.1 1.5-.6 1.8-1.3q.2-1.1-1.8-1.2c-2-.1-2 .5-1.7 1.2m8.1-.1c-1 1.7 1.3 3.6 2.7 2.2 1.2-1.2.4-3.3-1.1-3.3q-.9.1-1.6 1.1m8.2-.2q-.4 1 .8 2 1.3 1.3 2.5-.2 1-1.4.4-2c-.9-1-3.1-.9-3.7.2m23.4 1.5q.1 1.5 1.6 1.6c1.7 0 1.4-2.2-.4-2.8q-1.1-.2-1.2 1.2m19.8.3c-2 .5-2.4 1.9-.6 2.5 2.1.7 6.9-.4 6.5-1.6s-3.2-1.7-5.9-.9m29.2.7q.1 1.5 2.1 1.6c2.4 0 2.1-2.3-.4-2.8q-1.6-.2-1.7 1.2m.4-603.3c-1.2 2 1.3 3 6.7 2.7 4.2-.2 5.5-.7 5.7-2.1s-.5-1.7-5.7-1.7c-3.3 0-6.3.5-6.7 1.1m-273 375c-.3.6-.1 1.6.4 2.1 1.3 1.3 4.5-.8 3.6-2.3-.7-1.2-3.1-1.1-4 .2M56 578.5c-1 1.3-1 1.9.5 3.5 2.2 2.4 5.3 2.6 6.2.5.6-1.7-2.3-5.5-4.2-5.5q-1.2.2-2.5 1.5m-10 6c-1.1 1.3-.8 2.1 1.5 4.5 3.4 3.6 4.1 3.7 5.6.8 1-1.9.8-2.5-1.5-4.5-3.2-2.7-3.9-2.8-5.6-.8m-9 2.5q-2.7 1.8 3.3 6.4c2.6 1.9 2.8 1.9 4.5.2 1.6-1.6 1.5-1.9-1.6-4.7-3.5-3.2-4-3.3-6.2-1.9m-2 9.5c-1 1.2-.9 1.6.5 2.1 1.9.8 4-.9 3.1-2.5q-1.4-2.3-3.6.4M6.3 615.6c-.7 1.8 1.1 3.9 2.6 3 1.7-1.1 1.3-4.6-.4-4.6q-1.5.1-2.2 1.6m54.2 135.3c-.7 1.2 1.2 2.4 2.5 1.6 1.1-.7.4-2.5-1-2.5q-.8 0-1.5.9m-5.8 1.7c-1.3 1.3-.7 2.4 1.4 2.4q1.8 0 1.7-1.2c-.5-1.4-2.2-2.1-3.1-1.2m426.6 3.5c-2.4 1.1-4.4 2.5-4.4 3.2l-.3 3.7c-.1 2.1-.7 2.6-3.6 3-4.7.7-5.3 3.7-1.1 5.3 3.9 1.4 3.9 2.2 0 3.6-4.1 1.4-3.5 4.2 1.1 5.5l3.5 1-4 .5c-3.2.5-4.1 1.1-4.3 2.8-.4 2.7 1 3 2.8.7 1.9-2.2 6.5-1.4 6.6 1.1l.3 3.2c.2 2.4 3.2 1.3 4.2-1.6 1-2.7 1.2-2.8 6.6-2.5 5.8.3 11.3-1.6 11.3-3.9s-2.3-3.7-5.7-3.7c-2.7 0-3.3-.4-3.1-1.8s-.6-1.8-4.2-2.2l-4.5-.5 3.4-.8c1.8-.4 4.9-.7 6.7-.7 1.9 0 3.4-.4 3.4-.9 0-1.3-2.9-2.2-5.4-1.5-1.7.4-2.5-.1-3.4-2q-1.2-2.5-3.2-2.6-2 0-1.6-.9c.3-.4 1.6-.6 3-.4 2.8.6 6.6-1.2 6.6-3 0-1.3-5.1-6.8-6.1-6.6zm4.7 3.9q-.1.9-1.5 1c-1.4.1-1.5-.5-1.5-1q.1-1 1.5-1c1.4 0 1.5.4 1.5 1m-1.8 9.2c-1.2 1.2-3.5.1-2.7-1.2.3-.5 1.3-.6 2.1-.3q1.5.6.6 1.5m1.8 7.8q-.1.9-1.5 1c-1.4.1-1.5-.5-1.5-1q.1-1 1.5-1c1.4 0 1.5.4 1.5 1m8.6 4.1c1.1 1.9-1.8 2.8-6.6 2.2-5.2-.7-5.4-.8-4.5-2.2.8-1.4 10.2-1.4 11.1 0M2.4 756.4c-.8 2.2.3 3.3 1.8 1.8q1.4-1.2 0-2.4-1.2-1.4-1.8.6M60.5 767c-.7 1.2.2 3 1.6 3 1.2 0 1.2-2.7 0-3.5q-.9-.4-1.6.5m34.2 3.6c-1.4 1.4-.7 3.5 1.1 3.2q1.5-.5 1.7-1.7c0-1.6-1.8-2.5-2.8-1.5m88.8 1.4q.6.9 1.6 1 .8-.1.9-1-.1-1-1.6-1-1.3 0-.9 1m-114.2 1.6c-.3.8.1 2.2.9 3 1.3 1.3 1.6 1.3 2.7 0 .7-.9 1.1-2.3.7-3.1-.7-2-3.5-1.9-4.3.1m104.9-.4c.5 1.5 2.8 1.8 2.9.3q-.1-1-1.7-1.3t-1.2 1m-95.4 1.9c-2.1 1.2-2.4 3.9-.4 3.9.7 0 1.9-.7 2.6-1.5 1.7-2.1.1-3.7-2.2-2.4m90.7.9c-1.1 1.7.5 3.2 2.1 1.9q1.1-1 .8-2c-.7-1.2-2.1-1.1-2.9.1m14 5q-.6 1.2.3 2.2c1.4 1.4 4.5.2 4-1.5s-3.4-2.1-4.3-.7M89 782q-1.6.9-.3 2.1c1.3 1.3 3.3.4 3.3-1.7q0-2.5-3-.4m-27.8 1.2c.7 1.9 3.8 2.2 3.8.4q-.2-1.5-2.1-1.6-1.9 0-1.7 1.2m77.8 1.3q-1.4 1.7-.2 2.7c1.5 1.5 4.8-1.4 3.8-3.1q-1.4-2.3-3.6.4m-5.5.5c-.7 1.2.2 3 1.6 3q.8-.2.9-2c0-2.1-1.5-2.7-2.5-1m21.5.9c-1.2 2.3-.3 5.1 1.6 5.1 1.6 0 3.7-4.6 2.8-6.1s-3.3-1-4.4 1m-80.8.4c-1.6 1.8-.3 5.9 1.7 5.5 2.1-.4 2.6-4.1.8-5.6q-1.5-1.4-2.5.1m106.1-.6c-1.6.6-1.7 3.9-.2 4.9.6.3 1.8-.1 2.7-1 1.4-1.4 1.4-1.8.2-3-.8-.7-2.1-1.2-2.7-.9m-75.1 1.5a4 4 0 0 0 .1 5.7c1.6 1.3 3.7-.4 3.7-3 0-2.5-2.4-4.1-3.8-2.7m7.8.7c0 2.5 2 3.8 3.1 2 1.5-2.3 1-3.9-1.1-3.9q-2 0-2 1.9m-31.7 1.7c-.3.8-.1 2 .5 2.6 1.6 1.6 4.2.2 4.2-2.2s-3.8-2.8-4.7-.4"/><path d="M487 790q.1 1.8 1.5 2c1.4.2 1.5-.9 1.5-2s-.7-2-1.5-2-1.5.9-1.5 2m-422 1q0 .9.9 1 1-.1 1.6-1 .4-1-.9-1-1.5 0-1.6 1m107 .5q0 1.5 1.8 1.3c2.1-.4 1.9-2.2-.2-2.6q-1.5-.3-1.6 1.3m-14 2c-1.9 2.2-.5 4.2 3.2 4.7 6.4 1 8-1.9 2.6-4.6-3.8-2-4.2-2-5.8-.1m-156.3.1c-.9 1 .2 2.4 1.9 2.4q1.3-.2 1.4-1.5c0-1.5-2.1-2.1-3.3-.9m81.7 2.5c-1 1.7 1.3 3.6 2.7 2.2 1.2-1.2.4-3.3-1.1-3.3q-.9.1-1.6 1.1m31.3-.4c-1.2 1.2-.7 4.1.7 4.6 1.9.7 4-1.8 3.2-3.8-.6-1.5-2.8-2-3.9-.8m7.5 2.5c.3 2.5 3.4 3.6 5.1 1.9 1.4-1.4-.9-4.1-3.5-4.1q-2-.1-1.6 2.2m-112.6-.5c-1.1 1.1-.6 2.3.9 2.3q1.4 0 1.5-.9c0-1.3-1.6-2.2-2.4-1.4m65.1-.1c-1.4 1.5-.6 3.4 1.4 3.4q2 0 1.7-1.7c-.3-1.8-2-2.7-3.1-1.7m74.3.9c-1 1.2-.9 1.6.3 2.1 1.7.6 3.7-.2 3.7-1.6s-2.9-1.9-4-.5m30.5 1.5c-1.6 1.8-1.7 2.3-.5 3 1.8 1.1 5.5-1.1 5.5-3.1 0-2.2-3-2.1-5 .1m-113.8-.4c-.8.8.1 2.4 1.4 2.4q.8-.2.9-1.5c0-1.5-1.2-2-2.3-.9m28.8 1.3c-.7 1.2 1.2 2.4 2.5 1.6 1.1-.7.4-2.5-1-2.5q-.8 0-1.5.9m43.5.1q.1.9 1.1 1 .8-.1.4-1-.6-1-1.1-1-.3 0-.4 1M37.7 822.2q-1 .6 1.4 2.6c2.4 2 2.4 2.3 2.4 17.6V858h4.6c5.6 0 6.3-.6 3.8-3.1-2.3-2.3-2.6-10.5-.5-13.4 1.3-1.8 1.6-1.7 6.7 2.8 18 15.6 16.8 14.8 20.6 14.5 4.3-.4 5.4-2.3 2-3.2-2.5-.6-16.3-11.3-20.6-15.9-1.2-1.4-2-3-1.7-3.6 1.4-2.3 14-10.2 16.7-10.5 5.8-.7 4.9-3.6-1.2-3.6-3.2 0-4.6.7-8.1 4.2-4.2 4-12.4 9.8-14 9.8-1.3 0-.9-10.5.4-11.8q1.3-1.2-.3-1.6a32 32 0 0 0-12.2-.4m50.3 1.6c0 .4.5 1.3 1 1.8 1.6 1.6 2.6 29.9 1.1 30.8-2.6 1.7-.9 2.8 3.4 2.3 5.6-.6 6.3-1.2 4.2-3.5-1.3-1.4-1.7-3.9-1.7-10.7 0-7.8.2-8.6 1.6-7.4.8.7 2.2 2.6 3.1 4.3a52 52 0 0 0 10.5 14.7c3.7 2 8.6 2.1 9.6.2.8-1.9.7-32.1-.1-33-.3-.3-1.4-.2-2.5.1-1.8.6-1.9 1.4-1.4 14.8.4 10.4.2 13.9-.6 13.4a60 60 0 0 1-6.3-11.2 77 77 0 0 0-8.4-13.9c-2.9-3.1-3.8-3.5-8.4-3.5-2.8 0-5.1.4-5.1.8m43.7-.1q-2 .4-1 2.1c.4 1 .8 8.1.8 16 0 11.6.3 14.4 1.5 15.2 2 1.3 5.7 1.2 6.5-.1.4-.6.8-7.4.9-15.2s.5-15.2 1-16.5c.8-2.1.6-2.2-3.5-2.1-2.4.1-5.2.3-6.2.6m24.3-.1c-3.3 1.4-8.1 7-9.1 10.8-.6 2.2-.7 6.1-.4 9 .6 4.3 1.5 5.8 5.5 9.8 4.5 4.6 5 4.8 10.3 4.8 9.2 0 10.4-.9 10.9-7.7l.3-5.9-6.5-.5c-5.2-.3-6.5-.1-6.5 1.1q.2 1.4 2.5 2 2.4.7 2.8 2.8c.8 5.3-7.9 3.2-10.3-2.6-.8-1.9-1.5-5.8-1.5-8.7 0-4.3.5-6 2.6-8.5 2.3-2.7 3.2-3.1 6.8-2.8 3.4.2 4.2.7 4.4 2.5.4 2.5 2.1 3 4 1.1a3.6 3.6 0 0 0-.8-5.8 39 39 0 0 0-15-1.4m24.1.8q-1 1.4-.3 2c.6.3.8 6.7.4 15.6l-.5 15h9l-.5-6.8c-.6-9.2.5-11.2 6.2-11.2 2.4 0 4.8.6 5.3 1.2s1.3 4.6 1.7 8.7.9 7.7 1.2 8.2 2.1.9 4.1.9c3.2 0 3.5-.2 2.9-2.3-.3-1.2-.6-8.9-.6-17v-14.8l-4.7.3-4.8.3v12h-10l-.3-6.1c-.3-5.4-.6-6.3-2.5-6.8-3.5-.9-5.4-.7-6.6.8m32.8 1.5c-2 1.6-2.2 2.3-1.3 3.8.9 1.4 2.2 1.7 5.2 1.5 3.7-.3 4.2-.1 4.8 2.2.3 1.4.4 7.2.2 12.9l-.3 10.5 5.5.5c3 .2 5.7.3 5.9.1s-.4-1.3-1.3-2.3c-1.4-1.6-1.8-4.2-2.1-12.8-.1-5.9.1-11.6.7-12.6 1.2-2.4 4.3-2.1 6 .5 1.8 2.7 4.8 1.8 4.8-1.5 0-3.6-3.7-4.7-15.4-4.7-8.8 0-10.7.3-12.7 1.9m107.8-.5a17 17 0 0 0-11.8 17.2c0 5.6 1.6 10.2 4.1 11.5a55 55 0 0 0 14.3 5.9c3 0 12.7-5.7 12.7-7.5q.2-3.7-6.1-.4c-14.3 7.3-26.9-9.4-14.8-19.6 5.3-4.4 14.6-2.7 12.1 2.2-1.2 2.2-.5 4.3 1.4 4.3 1.5 0 7.4-7.5 7.4-9.4 0-2.3-1.9-3.9-4.7-4.1-1.5-.2-4.6-.5-6.8-.9-2.5-.4-5.5-.1-7.8.8m47.6-.7q-4.1 1-.7 3.1c1.4.8 1.6 2.4 1.2 11.6-.3 5.9-.9 11.1-1.5 11.7a13 13 0 0 1-4.6 1.6c-3.5.5-3.8.4-5.2-3a35 35 0 0 1 0-19.7q2.7-5-4.6-5-6.6.2-3.4 3c1.2 1 1.5 3.7 1.5 11.9.1 12.9 1 15.1 7.2 16.6 3.2.8 5.2.8 8-.2a19 19 0 0 1 8.3-.6c5 .6 5.6 0 2.3-2.7-2-1.6-2.3-2.9-2.7-10.6-.2-5.4.2-10.2 1-12.6 1.7-5.3.2-6.4-6.8-5.1m15.9 1q-1.3.5-.3 1.7c1.6 1.9 1.9 25.2.4 26.7q-4.2 4 4.1 3.8 10.4-.3 5.9-3.6c-1.8-1.2-2.3-2.5-2.3-5.7 0-4.8 1.3-6.6 5-6.6 3.4 0 11.8-5.4 12.9-8.2 1.1-3.1-.1-6-3-7.5a75 75 0 0 0-22.7-.6m15.6 2.5c.7.7 1.2 2.5 1.2 4 0 4.5-5.6 8.8-7.6 5.7-1.1-1.9-.6-9.2.8-10 1.9-1.2 4.2-1.1 5.6.3m17.4-.5q-5 4.3-1 10.3c2.2 3.3 2.7 3.5 8.3 3.7l7.3.2c.7.1 2 1.7 2.9 3.6 1.6 3.3 1.6 3.7 0 7q-1.6 3.6-4 3.5a25 25 0 0 1-11.2-6.9c-1.2-2-3.3-1.1-5.4 2.3-2.9 4.6-2.7 5.7 1.2 5.5 1.7-.1 7.1.2 11.8.6 10 .9 13-.4 14.9-6q2-6.6-2.8-10.6c-2.3-1.7-3.5-1.9-8.3-1.4-4.5.5-5.9.3-7.2-1-1.6-1.5-2.4-8.5-1.2-9.7 1-.9 6.5.5 6.5 1.7 0 2.1 2.7 3.7 5 3 1.7-.5 2-1.3 1.8-3.8l-.3-3.2-8.1-.3c-6.6-.2-8.5.1-10.2 1.5M266 831.2c-2.5 1.3-4.6 3.1-4.8 4-.2 1 1.4 3.4 3.6 5.6 3.2 3.1 4.3 5.2 5.5 10.5 1.5 6.7 1 13.4-1.3 17.6-1.5 2.8-1.3 3.3 1.2 2.9 4.8-.7 7.2-10.3 5.5-21.1-.8-4.7-.8-4.8 1.6-4.2 3.8 1 5.2-1.6 2.6-4.9-2.5-3.1-4.7-3.4-5.7-.6-.7 2-1 1.9-4.7-1.3-4.4-3.8-4.3-6.4.2-6.9 1.6-.2 2.8-.9 2.8-1.7 0-2.3-1.8-2.3-6.5.1"/><path d="M253 843.7c-8.5 3.2-5 14.5 4 12.8q7-1.3 7-6.7c0-5.1-5.4-8.1-11-6.1m4.3 4.4c.6.9.7 2.4.3 3.4-.6 1.7-.7 1.7-2.6 0-2.5-2.2-2.7-5.8-.4-5.3a5 5 0 0 1 2.7 1.9m199 4.5c-1.8.8-1.6 4.1.3 4.8a9 9 0 0 0 4 0c3.4-.9 3-4.8-.6-5.1-1.4-.1-3.1.1-3.7.3"/></svg>