<svg xmlns="http://www.w3.org/2000/svg" width="666.7" height="1170.7" viewBox="0 0 500 878"><path d="M258.2 116.1c-2.3 1.7-4.9 2.8-5.7 2.5-2.9-1.1-28.5 4.5-38.3 8.3-4.3 1.7-5 1.7-7.5.4s-3.1-1.2-6 .4a10 10 0 0 0-4.1 4.9c-.5 1.6-1.6 4.3-2.4 6-2.3 4.7-1.1 11.3 3 17.1a101 101 0 0 1 6.1 9.5c2.7 4.7 2.7 4.7.6 5.8-1.1.6-3.7 1.3-5.8 1.5a444 444 0 0 0-51 18.5c-3.1 1.5-10.8 5.7-17.1 9.5l-21.5 12.3a90 90 0 0 0-30.7 29.3c-4 7.8-4.1 18-.4 24.3 7.5 12.8 21.8 13.7 38.3 2.5 2.3-1.6 4.8-2.9 5.7-2.9 1.9 0 6.6 7.8 6.6 10.9 0 1.3-1.5 3.7-3.5 5.5-2.8 2.7-3.5 4.1-3.5 7.1 0 4.1 2.6 9.2 7.4 14.3l3.1 3.3-3.5 6.4c-1.9 3.6-6.8 10.7-10.8 15.8A243 243 0 0 0 91.7 367a96 96 0 0 0-13.2 34.5c-.4 3.3-1.3 6.7-2 7.5a54 54 0 0 0-4.5 10 90 90 0 0 1-6.6 13.5 81 81 0 0 0-5.7 10.4c-3.2 6.8-2.4 9.3 5.1 16.9 5.4 5.3 5.5 5.7 5.3 10.5-.1 2.7-1.5 8.6-3.1 13-5.2 14.2-6.8 29-3.6 33.9 1 1.5 2.7 3 3.8 3.4 2 .6 2.1 1.2 1.5 10.3-.3 5.3-1.7 17.2-3.1 26.6-1.3 9.3-3 22.1-3.6 28.3-1.2 10.8-1.4 11.3-3.4 10.7a44 44 0 0 0-20.5 0c-7.2 1.8-14.6 6.4-15.6 9.6-.6 1.9-1.2 2.1-5.3 1.5-6.4-.9-7.2-2-3.9-5.4 2.6-2.7 3.4-5.2 2.1-6.4-.3-.4-2.2.5-4.1 1.8-2 1.3-5.3 2.7-7.5 3-4.5.8-5 2.2-.8 3 1.7.4 3.2 1.5 3.6 2.6.7 2.3 4.3 3.8 9 3.8q3.3 0 2.9 1c-.9 1.4-6.1 1.2-12.5-.5L.3 609q-.3.1-.3 1.9c0 1.5 1 2 4.7 2.6 5 .7 9.8 2.3 9.2 3-.3.2-2.5-.1-4.9-.6-4.4-1-9-.5-9 .9 0 1 6 3.2 8.7 3.2 4.6 0 14.8 5.9 13.1 7.5-.3.3-2.5-.3-4.9-1.3a43 43 0 0 0-10.6-2.5c-5.7-.5-6.3-.3-6.3 1.4s.7 1.9 4.6 1.9c2.8 0 6.6 1 10 2.6 4.3 2 5.4 3 5.4 5q.2 2.5-2.3 2.4-5.2 0-1.4-3c2.4-2 2.4-2.1-4.6-3.9-2.3-.6-5-.6-6.9-.1-1.7.5-3.5.7-3.9.4q-.8-.3-.9 1.6c0 1.7.4 2 2 1.6l3.9-1.1c1.9-.6 8.4 1.5 6.6 2-.5.2-3.6.6-6.7 1l-5.8.6v3.5c0 3.5 0 3.6 4.3 3.3 2.4-.2 4.9.1 5.6.5s1.8.3 2.4-.3c2.9-2.9 11 1.2 20.2 10.3 7.9 7.8 13 10.5 19.5 10.6 4.1 0 4.3.1 2.8 1.6-1.4 1.5-2.3 1.5-6.5.5-8.5-2.1-15.1-6-17.8-10.6-3.1-5.4-6-7.2-14.5-9.1-6-1.4-7.7-1.4-11.5-.3q-4.6 1.3-4.5 3.1c0 1.5.6 1.7 4.4 1.2 4.9-.7 10 .2 9.1 1.6-.3.4-3.4 1.2-7 1.5-6.2.7-6.5.8-6.5 3.4s.3 2.7 3.1 2.3c3.4-.5 13.7 1.6 14.5 3 .3.5-1.2.6-3.3.2q-3.8-.6-8.8 1.4c-4.4 1.7-5 2.4-5.3 5.1-.4 3.6.6 3.9 4.1 1.1 1.8-1.5 4-2 8.1-2 5.3 0 5.6.1 5.6 2.5 0 2-.7 2.6-4.2 3.5-7.1 1.8-9.5 3-10.8 5.6-.8 1.3-1.7 2.4-2.2 2.4q-.7.2-.8 2c0 1.9.5 1.7 5.7-1.6a37 37 0 0 1 23.8-6.7c9.5-.1 10.4 0 17 3.3 4.3 2.1 9.1 5.5 12.5 9 3 3 7.5 6.9 10 8.6 2.7 1.7 4.6 3.9 4.8 5.2.6 4.3-4.4 2.2-12.9-5.3a75 75 0 0 0-13.9-9.3 31 31 0 0 0-16.5-4c-8.4-.4-9.7-.2-16.6 2.7-6.7 2.8-15 9.3-13.7 10.7.7.7 3.8-.7 3.8-1.7 0-1.1 8.6-5.4 15.5-7.8 4-1.4 6.5-1.6 12.6-1 9.8.9 18.3 5.1 26.6 13 3.4 3.3 7.7 6.6 9.5 7.4q2.9 1.3 1.7 1.5c-2.3 0-10.8-4.8-14.4-8.1a48 48 0 0 0-9.1-5.8c-10.6-5.2-22-4.4-36.6 2.9a28 28 0 0 1-8.9 3.4q-.8-.3-.9 1.3c0 1.6.9 1.8 10.8 1.4 19.8-.7 23.7-.4 29.1 2.3 3.8 2 5.5 3.7 8 8a29 29 0 0 0 20.5 14.2c3.1.4 5.8 1 6 1.3s-.6 1.8-1.8 3.4l-2.2 2.7-9.8-4.9a79 79 0 0 1-13-7.9 57 57 0 0 0-17.7-11.3 42 42 0 0 0-18.6-3.6c-9.5-.5-11.3-.4-11.3.9q-.1 1.5 2.9 1c6.4-.9 24.2 3.2 28.1 6.4a45 45 0 0 0 6.5 3.9c2.8 1.5 7 4.6 9.5 7 4.1 4 16.2 10.5 19.6 10.5 1.7 0 1.8 2.2.3 3.7q-1 1.1-4.1-.4A70 70 0 0 1 38 727.2C24.1 717.2 18.5 715 6.6 715c-5.9 0-6.6.2-6.6 2q-.2 2.1 2.8 2.1c1.5 0 6.2.4 10.5.8 6.7.7 8.6 1.4 13.5 4.7a88 88 0 0 1 8.8 6.9 54 54 0 0 0 24.6 11.9c3.6.1 4.4.4 3.6 1.3-2 2.5-12.1 1.6-19.1-1.7a42 42 0 0 0-7.6-3c-.6 0-3.5-2.1-6.5-4.8A37 37 0 0 0 10 724.4c-9.9-1.8-10-1.8-10 .9 0 1.8.8 2.5 4.8 3.5l8.1 2.1c1.8.5 3.9 1.5 4.5 2.2q1.3 1.3-.9.5c-1.1-.4-5.3-1.3-9.2-2-6.9-1.2-7.3-1.2-7.3.5q0 2 2.1 1.9c1.1 0 5.5 1 9.6 2.2 6.2 1.8 8.5 3.1 12.6 7a43 43 0 0 0 23 11.4c7.5.8 7.3 2.4-.4 2.4-7.4 0-13.2-2.5-25.6-11.3-9.4-6.7-13-8.5-17.8-8.9-2.4-.2-3.1.1-3.3 1.7s.7 2.5 3.4 3.8c2 1 5.7 3.5 8.3 5.7a53 53 0 0 0 31.8 12.4c7.1.1 7.3.1 7.9 2.9.3 1.6.1 3.4-.6 4.2q-1.5 1.6-.1 1.5 1 .1.6 1.1-.7 1-2.1.5-1.2-.4-1.9.4c-1.8 3-21.9-.5-27.1-4.6A68 68 0 0 0 3.5 756L0 753.8v3.1c0 2.3.7 3.4 2.8 4.5 1.5.8 3.5 2.3 4.5 3.3 1.5 1.8 4.5 3.3 15.5 7.9 1.8.8 4.9 1.4 6.9 1.4s3.4.2 3.1.5c-.6.6-10 1.5-23 2.1-8.9.5-9.8.7-9.8 2.5 0 1.7.8 1.9 9.3 1.8 5 0 11.5-.4 14.2-.9l12.7-2c4.3-.6 10.8-2 14.5-3.1a57 57 0 0 1 35.8 1.5c6 2 11.6 4.3 12.5 5.1.8.7 6.7 3.3 13 5.6l11.4 4.2 13.1-.6c14.8-.6 25.3-2.5 37.5-6.9 14.6-5.2 21.3-6.8 27.5-6.8s18 2.4 19.9 3.9c3.3 2.7 20.2 10.3 25.7 11.6 8 1.8 19.6 1.9 27.3 0 3.2-.7 10.3-3.7 15.8-6.5 15.5-8 23.6-10.3 33.1-9.6 9.1.6 14 2.9 17.6 8.1q4.5 6.8 22.6 10.6c20 4.2 38.2.5 56.7-11.6 9.6-6.3 10.1-6.5 18.9-7.5 7.6-.9 10.2-.8 15.8.6 7.5 1.9 9.5 2.7 13.5 6.1a34 34 0 0 0 22.2 8l9.4.6v-37.4l-6-9-6-9.3c0-.3 1.9-.7 4.3-1.1 6.4-1 7.7-1.5 7.7-3 0-1.2-1.5-1.4-7.3-1-11.6.7-13.8-2.8-2.5-4 7.7-.8 9.8-1.4 9.8-2.6 0-.6-3.7-.7-9.5-.3-7 .5-9.8.4-11-.6q-3.6-3 1.8-3c5.8 0 18.7-3.4 18.7-4.9 0-1.1-1-1.2-4.7-.6l-11.7 1.4c-6.7.7-7.1.6-10.3-2.2-1.8-1.6-3.3-3.2-3.3-3.7s2.1-1 4.6-1.4 6.7-1.3 9.3-2.2a22 22 0 0 1 10.4-.9c4.6.5 5.7.3 5.7-.9 0-2.5-10-3.2-17.4-1.2-7.5 2.1-16.9 1.8-17.4-.4-.2-1.1 2.6-2.4 10.3-4.9 10.9-3.6 14.5-4.1 20.8-2.8 4.6 1 5-.7.6-2.2-5.3-1.8-11.7-1.2-22.2 2.1-9 2.9-10.2 3-12.5 1.7q-6-3.3 1.2-3.5a44 44 0 0 0 12.1-2.9c7.3-2.6 7.8-2.7 15.6-1.5 4.5.6 8.3.9 8.5.7.3-.2-1.3-1.2-3.6-2.1-5.4-2.2-13.4-2-21.1.4-7.4 2.2-14.7 3-15.1 1.5-.2-.6 1.5-1.3 3.7-1.6s8.4-1.9 13.9-3.4c9.6-2.6 16.2-3 21.1-1.1q2.5 1.1-.5-1.4c-2.3-2.1-3.2-2.2-12.6-1.7q-10 .6-15.5 2.6c-6.5 2.5-10.9 2.7-10.9.6q0-1.5 3.1-1.5c1.7 0 6.3-1.1 10.2-2.4 13.6-4.5 14.9-4.7 20-3a17 17 0 0 0 6.4 1.2q2.2-.1-1.3-2.3c-4.6-3.1-16.6-2.8-27.1.8a41 41 0 0 0-8.9 3.8c-.8 1.4-4.4-2-4.4-4.1 0-2.6 1.7-3.6 10-5.8 10.7-2.9 14-3.2 18.3-1.7s5.9.3 2.5-1.9c-4.2-2.6-8.9-2.8-17.3-.5-12.4 3.3-12.5 3.3-12.5 1.7q0-2.1 11-5.4c1.4-.4 4.1-.8 6-.8 4.2-.1 4.9-2.6 1-3.7q-2.4-.6-.7-.8 1.5-.3 1.7-1.6c0-3.8 4.2-.8 13.6 9.6 4 4.4 9.4 7.6 9.4 5.6 0-.8-1.8-2.7-4-4.2s-4-3.2-4-3.7c0-1.7-8.5-10-12.3-12a48 48 0 0 0-18.6-4.1c-2.3.6-3.3-.8-2.1-2.7 1.7-2.7 14.4-1.9 22.5 1.4 8.6 3.5 8.9 3.7 11.5 9 2.2 4.6 5.6 8.3 6.6 7.3.4-.3-1.1-4.1-3.2-8.3a32 32 0 0 0-8.7-11.5 34 34 0 0 0-17.6-6.9c-1.4 0-3.3-.5-4.1-1q-1.8-1 3.5-1.1c7.2-.2 8.5 0 13.5 1.8a58 58 0 0 1 16.2 10.7q.8.9.8-1c0-3-7.9-10-14.8-13.2-4.9-2.3-7.1-2.6-16.1-2.7q-10.4 0-10.8-1.2c-.5-1.5 1.1-2.4 9-4.9 10.1-3.3 13.7-2.1 25.5 8.3 6 5.4 7.2 6.1 7.2 4.4 0-1.4-3.2-5.3-8.4-10.6l-8.5-8.5h-5.8c-3.2 0-7.4.4-9.3.9-8.2 2.1-9 2.2-9 .7 0-2.8 4.7-4.6 11.8-4.6q11.9 0 15.5 4.3c2.7 3.1 13.1 9.7 13.5 8.6.7-1.9-5-8-11.1-11.9-3.4-2.2-5.9-4-5.6-4 1.9 0 9 3.7 12.7 6.7 3.4 2.8 4.2 3.1 4.2 1.6q-.1-2.6-9.8-8.4c-1.8-1.1-3-2.4-2.7-2.9 1-1.6 2.1-1.2 7.4 3l5.1 4v-13.6c0-11.3-.3-14.1-1.6-15.5-1.5-1.7-1.5-2 0-4.3a41 41 0 0 0 .6-20.6q-1-2 0-2.5c.6-.4 1-5.5 1-12V534l-2.2.9c-3.1 1.2-6.8-.4-6.8-2.8 0-1.1.5-3.2 1-4.6l1-2.7 3.5 2.2c4.6 2.8 4.8.5.4-3.4-2.7-2.5-3-3.3-2.6-6.5 1.9-11.8 2-14.1.6-14.1-.8 0-2.1 1.5-2.9 3.2s-2.3 3.6-3.3 4.2c-1.5.9-2.3.6-4.2-1.8l-2.3-2.9-1.2 2.2q-1 2.3-3.2 1.5c-1.8-.5-2-.3-1.5 1.8s.1 2.6-2.7 3.6a14 14 0 0 1-4.6 1c-2.2-.5-2.2 2-.1 2.7 2.7.8 2.6 2.3-.2 5.6-4.1 4.9-9.7 6.2-9.7 2.4 0-.9 1.2-3.8 2.6-6.6 2.5-4.9 2.5-5.5 1.8-17.3-.7-12.9-.3-14.7 3.9-19.3q3.6-4.1-1.8-2.9c-1.9.5-3.2 2-4.7 5.3-1.9 4.2-2 5.9-1.4 16.3a46 46 0 0 1-.6 15.1c-2 5.3-11 16.9-13.7 17.6-3.4.9-15.4-1-15.9-2.5-.3-.9 2-1.2 9.3-1.2s9.6-.3 9.3-1.3q-.5-1.2-9-1.7c-7.9-.5-8.9-.8-14.3-4.5-7.9-5.4-8.9-8.1-8.1-21 .6-9.5.5-10.3-2.2-15.4-2.6-5.4-5.4-8.2-6.8-6.9-.3.4.3 2.6 1.4 5 1.2 2.3 1.9 4.4 1.7 4.7-.3.2-2.3-1.3-4.5-3.4-5-4.9-5.3-8.5-1-14.3 4.8-6.7 4.8-6.7 32-6.7 21.2.1 25.3.3 30.3 1.9q9.9 3.1 9.7 10.3c0 4.6-2.1 8.4-7 12.6-5.2 4.4-3.7 5.6 2.1 1.7q7.7-5 8.3-12.8c.5-8-1.8-11-17.3-22.7-9-6.7-22-17.7-22.5-19.1a8 8 0 0 1 1.8-8.7c3.3-3 4.7-9 4.7-19.7 0-8.2-.3-9.6-3.3-15.7-3.2-6.6-3.3-7.1-3-17.7.2-9.9.5-11.4 2.7-14.6 2.9-4.2 3.1-5.3 1.1-7-1.9-1.5-1.8-10.7.1-13.8.7-1.2 1.6-5.5 1.8-9.5.5-7.5.4-7.4 7-12 3.6-2.6 3.5-7.9-.2-9.6a56 56 0 0 0-21.8-4.2c-18.2.1-26.7 2-28 6.2-.8 2.4-1 2.1 8.6 9.9 2.8 2.3 3.1 3.1 3.3 9.2a21 21 0 0 0 2 9.3 7 7 0 0 1 1.1 5.5 9 9 0 0 0 .3 4.7q1 1.8-.4 3.8c-1.9 2.6-1.8 4.8.7 7.8 2.5 3.3 3.5 8.7 2 11.6-1 1.8-1.5 1.9-3.2 1-2.8-1.5-4.9.5-4.9 4.7 0 3.7-1.4 5.3-2.5 2.6a107 107 0 0 0-19.5-44c-3.5-3.3-3.5-3.3-3.8-13a86 86 0 0 1 8.1-37.9c5-11.5 5.3-11.6 17.8-8.5 11.9 3 22 1 28-5.5 4.1-4.4 5-8.4 3.9-16.5a46 46 0 0 0-10.2-22.2 227 227 0 0 0-59.7-43.6 265 265 0 0 0-30.6-12.6c-2.7-.8-7.9-2.5-11.5-3.9s-10.3-3.4-15-4.6a34 34 0 0 1-9.9-3.5c-1.3-1.2-1.2-1.7.6-3.6 1.2-1.3 2.5-3.7 2.9-5.3.4-1.7 1.3-3.9 1.9-5 .7-1.1 1.9-4.5 2.6-7.5s2.3-6.6 3.6-8.1c2.9-3.2 2.9-3.8-.2-7.2-2.8-2.9-4.5-3.3-6.2-1.6-.8.8-2 .5-4.5-1.4-4.2-3.2-7.4-4.5-16.5-6.3-5.4-1.2-7.7-1.2-9.3-.4s-2.5.7-4.2-.5a12 12 0 0 0-5.4-1.5 7 7 0 0 1-4.9-2c-2.5-2.8-5.4-2.5-10.3 1.1m7.8 1.4q-.1 1.3-1.5 1.5c-1.4.2-1.5-.7-1.5-1.5s.7-1.5 1.5-1.5 1.5.7 1.5 1.5m-18 5c0 1.9-3.1 3.5-6.8 3.5-1.6 0-5 .6-7.6 1.4q-4.8 1.5-7.3.5c-2.8-1-2.2-2.9 1-2.9 1.2-.1 4.7-.9 7.7-2 6.8-2.4 13-2.6 13-.5m52 1.4c3.4 1.2 4.6 2.3 4.8 4 .5 3.1-1.7 5.4-2.4 2.6-.6-2.3-8-5.7-12.8-5.9q-3.1-.2-3.4-1.8c-.3-1.6.2-1.7 4.5-1.1 2.6.3 6.8 1.3 9.3 2.2m-93 8.2q-.2.9-1.9 1.8c-2.8 1.5-4.8-1.1-2.5-3.3 1.2-1.3 1.9-1.4 3-.5q1.3 1 1.4 2m110.5-2.2q.4 1-1.4 2-4 2.5-2.1-.9 1.9-3.3 3.5-1.1m-22.4 5.2c2.1 1.8 2.1 2 .4 1.4l-3.7-1.2q-1.6-.6-1.2-1.4c.8-1.4 2-1.1 4.5 1.2m-61.1 1.8c0 1.2-2 2.5-2.7 1.8s.6-2.7 1.8-2.7q.8 0 .9.9m56.4 1.9q.3.8-2.5 1c-1.6 0-2.7-.4-2.4-.9.8-1.1 4.2-1.2 4.9-.1m-18.1 8.2c-1.3 1.2-2.9 1.6-5.9 1.3l-4.1-.5 2-3.9 2-4 1.8 3.1c2.1 3.3 4.4 3.2 3.3-.2q-.6-2 .7-2.9c2.3-1.4 2.4 5 .2 7.1m-19.3-6q0 .9-.4 1-.6-.1-1.1-1-.4-1 .4-1 1 0 1.1 1m6.7 3.7q-.5 1.3-.5-1.7c0-3 .2-2.7.5-1.8s.2 2.6 0 3.5m35.4-3q2 2.4-.3.4-1.7-1.2-1.8-1.7 0-1.2 2.1 1.3m-60.5 5c-1 1-1.9-.5-1-1.8q.8-1.6 1.2 0 .3 1.2-.2 1.8m16.1-.1c.9 1.5 3.2 3.3 5.1 4.1 2.8 1.1 3.2 1.6 2.2 2.8-1.8 2.2-2.8 1.9-5.7-1.5-4.6-5.5-13.3-3.2-13.3 3.5q-.2 6-3 3c-1-1.1-.8-2 .9-4.1 1.2-1.5 2.1-3.9 2.1-5.3 0-3.7 1.7-5.1 6.2-5.1 3 0 4.1.6 5.5 2.6m43.5.6c2.8 3.7 4.3 8.4 2.9 9.2-.5.3-1.8-1-3-2.9-3.8-6.5-11.2-7.3-13.3-1.4-1.3 3.8-4.1 5.4-5.9 3.3s0-4.8 3.5-5.2a6 6 0 0 0 3.8-2.5c1.5-3 2.7-3.7 6.4-3.7 2.4 0 3.8.8 5.6 3.2m-63.4 4.4q.3 2.2-2 2.8c-3.7 1-4.8.7-4.8-1.2 0-4.3 6.2-5.7 6.8-1.6m-11.2 2c.9 3.5-1 5.3-2.6 2.4-1.2-2.3-.7-5 .9-5 .6 0 1.4 1.2 1.7 2.6m-7.7 1.8c1.2 1.8 2.1 3.8 2.1 4.4 0 1.8-2.9 2.2-4.5.6-2-2-2-8.4.1-8.4.1 0 1.2 1.5 2.3 3.4m57.9-.9q.5 2.4-.9.7a6 6 0 0 0-3.3-1.2q-2.5.1-.6-1c2.2-1.5 4.4-.8 4.8 1.5m19.9-.9c.2.7-1 1.4-2.7 1.6-2.9.4-4-.9-2.3-2.6 1-1 4.6-.3 5 1m15.3 1.5q-1 1.7-2.1 1.9-.9 0-.6-.8l1-2.5q.7-1.6 1.7-1.2 1 .6 0 2.6m-52.9 1.5c2 2.1 3 2.5 6.2 2.1 4-.6 4.9.6 1.7 2.3q-4 2.1-9.2-2.8c-2.2-2-3-2.3-4.2-1.3-1.8 1.5-3.7.6-2.9-1.4.9-2.4 5.7-1.8 8.4 1.1m20 2.1q2 2.4-.3.4-1.7-1.2-1.8-1.7 0-1.2 2.1 1.3m11.9.1c0 1.3-6.6 3.1-8 2.2q-1-.7 1.5-.8c1.4 0 3.2-.5 3.8-1.1 1.3-1.3 2.7-1.4 2.7-.3m-49.3 3.2c1.8 1.6 2.8 3 2.2 3-.7 0-2-.7-3-1.6-2.5-2.2-4.9-1.1-4.9 2.3-.1 1.5-1.1 4.1-2.5 5.7l-2.3 2.9-3.6-3.1c-2.1-1.8-4.2-2.9-5.1-2.6-1.9.8-2-1-.1-2.5 1-.8 1.9-.6 3.9.9 1.4 1.1 3.2 2 4 2 2.5 0 4.9-3.1 4.3-5.3-.5-2.2.9-4.7 2.6-4.7.6 0 2.6 1.3 4.5 3m20.9 3 2.9.8-3 .1c-1.7.1-4.5.5-6.3 1l-3.3 1 .6-3.2c1.1-4.8 1.5-5.1 4-2.7 1.2 1.1 3.5 2.5 5.1 3m14.8-2.5c2.3 1.8 1.3 2.2-5.6 2.7q-8.5.4-1.5-2.7c4-1.8 4.7-1.8 7.1 0m19.7.2c2.6 1.6 2.9 1.6 4.7 0 2.8-2.5 5.2-2.2 5.2.7 0 4.7-.9 5.7-3.8 4.2-1.5-.7-4.8-1.9-7.4-2.6-5.5-1.4-6.2-3-2-3.9.2-.1 1.7.7 3.3 1.6m-67.1.3q-.1.9-1.1 1-.8-.1-.4-1 .6-1 1.1-1 .3 0 .4 1m21 0q-.1.9-1.1 1-.8-.1-.4-1 .6-1 1.1-1 .3 0 .4 1m-7.9 6.5q-.2.9-2.1 1.3c-2 .3-2.7-.8-1.3-2.2 1-.9 3.4-.3 3.4.9m46.5.6c7.6 3.3 11.2 7.4 6.2 6.8-2.8-.3-9.8 3.8-9.8 5.7 0 .8.7 5.5 1.6 10.4.8 5 1.3 9.4 1 9.9s-2 .6-3.8.2q-3.4-.6-3.6-2.9c-.4-2.6-2.9-2.6-4.5-.1-1.5 2.4-.1 4.8 3.3 6 4 1.5 3.8 3.5-.5 4.3s-5.1 2.1-3.5 5.1q1.3 2.3 4.9 3c2 .4 4.2 1.1 4.9 1.7q1.3 1.2 1.2-.6c0-.8 1.3-2.2 2.9-3.1 4.1-2.1 4.5-3.1 2-5.6l-2.1-2.1 2.1-1.4c2.2-1.6 2.8-5.8 1.1-6.9-1.2-.7-.3-7.4 1.1-8.9q1-.8 3.4 1.4c2.2 2.1 2.5 3 2 6.5q-1 5.8-3.7 14a31 31 0 0 0-.8 8.2c0 2.8-.4 5.4-1 5.8q-.9.4-1-.9c0-2.3-2.1-2-2.7.3-.3 1.1-1.2 2.2-2.2 2.3-2.2.5-8.8-1-12.7-2.8-1.7-.8-3.5-1.4-4-1.3-3.2.7-10.2-1.8-13.4-4.8a15 15 0 0 0-4.9-3.3c-2 0-2.3-4.7-.6-8.3 1.2-2.7 1.4-4 .6-5.5-.6-1.1-.7-2.3-.3-2.6s.7-4 .8-7.9q.2-23 28.5-24.6c1.5 0 4.8.9 7.5 2m34.1 2a116 116 0 0 1 12 3.4 258 258 0 0 1 64.7 28.2c18.8 12.4 35.5 26.9 41.7 36.2 2.9 4.4 3.9 7.8 1.9 6.6-2.1-1.3-2.9.6-1.6 4.3 1 2.9 1.8 3.6 3.5 3.4 1.9-.3 2.1.1 2.1 4.8 0 4.4-.3 5.3-2.1 5.7-1.5.4-2 1.2-1.7 3.3.1 1.5-.3 3.5-1.1 4.3-1.8 2.2-11.1 4-16.8 3.1-5.9-.8-12.3-3.9-12.3-5.9 0-1.7 4.8-5.1 5.8-4.1q.5.8-1.1 1.7-1.5 1-1.7 2.6c0 1.2.6 1.4 2.7.8 4.2-1 5.5-2.5 4.8-5.4a13 13 0 0 0-1.6-3.7c-1.4-1.7-6-.5-10.2 2.8a15 15 0 0 1-4.1 2.7l-1.9-3.1q-1.8-2.6-3.2-2.2c-2.3.9-1.8 3 1.2 5.4 2.4 1.8 2.5 2.2 1.1 3.6s-1.8 1.3-4.5-.2q-2.9-1.7-4.9-1c-1.7.7-1.6 1 1.6 3.6q6.1 4.8-1.3 1.5c-3-1.2-3.7-1.2-4.7 0s-.4 1.9 3 4c4.9 3.1 4.5 5-.6 2.9-2-.8-4.6-1.4-5.8-1.2-3.5.5-2.4 3.2 1.9 4.6 4 1.3 6 3.1 4.7 4.4-.4.4-2.7.1-5.1-.8-3.4-1.1-4.6-1.2-5.8-.3q-2.7 2.6 4.6 4.6c5.6 1.4 5.2 3.5-.5 3.1-3.8-.2-4.9 0-4.9 1.2 0 .8 1.5 2 3.3 2.6q6 2 4.8 4.3-.7 1.1-3.2-.5c-2-1.4-2.7-1.4-4-.3-1.4 1.2-1.4 1.4.2 2.6 1 .7 2.6 1.3 3.6 1.3 2.6 0 2.3 3.4-.4 5.3-2.3 1.5-2.3 1.5-.3 3.6 1.6 1.9 1.7 2.5.7 4.2q-1.4 2-.2 3.9 1 2 .1 2c-1.3 0-4.1-5.3-4.1-7.9 0-1-1.1-4.3-2.5-7.3a25 25 0 0 1-2.5-8.1c0-1.5-1.1-4.4-2.4-6.5-1.4-2-3.7-7.6-5.1-12.4-3.5-11.3-4.3-12.3-9.4-12.1-4 .2-4.1.1-8.6-7.1-4.8-7.7-14.8-18.1-16.5-17.1q-1 .3-2-1.5c-.6-1.1-3.4-4.5-6.3-7.5l-10.2-11c-2.7-3-6-5.9-7.2-6.5-3-1.3-3.2-6.9-.3-9.5 2.6-2.4 2.5-4.9-.4-8.8-1.8-2.5-2.7-5.5-3.7-13.5l-1.2-10.3 4.3-4.4c2.4-2.5 4.5-4.5 4.6-4.5zm-98.4 2.6c-.7.2-1.9.2-2.5 0q-1-.5 1.2-.5c2.2 0 1.9.2 1.3.5m-9.3 3.5c5.2 5.8 7.5 13.8 7.3 25.6l-.1 10.3 3.4 4.5 3.5 4.5-1.6 3.7c-1.6 3.6-1.8 3.7-7 3.8q-9.7.1-11.2 6.4-1 4.6-3.8 2.1c-2.6-2.5-48.6 21.1-50.2 25.7-1.3 3.5-11.1 11.2-14.2 11.2-.5 0-2.3-2.8-4-6.3a63 63 0 0 0-8.1-12c-5.1-5.6-5.3-5.7-10.1-5.6-4.1.2-5.3-.2-6.5-1.9q-3.2-4.5-5.9.8-2.9 5.8.1 10.5c1.4 2.1 1.4 2.5.2 2.5-3 0-5-2.7-5.5-7.2-.4-3.8 0-5.6 2.1-9.4q2.6-4.7 1.7-5.7c-1.4-1.4-2.9 0-5.7 5.5-2.1 4.1-2.5 6-2 9.1.8 4.5 4.5 9.5 8.7 11.6 1.6.7 2.6 1.7 2.3 2.2-.8 1.3-4.2 1.1-5.1-.4a53 53 0 0 0-6-5.6c-4.8-3.9-5.3-4.6-5.3-8.4 0-5.5 4.9-15.8 9.6-20.1 3.5-3.2 3.9-5.6 1-5.6-2.2 0-9.2 8.3-11.5 13.6a42 42 0 0 0-2.8 10.9c-.5 5.5-.3 6.3 2.3 9.7 1.6 2 4 4.4 5.4 5.3l2.5 1.6-3.4-.5c-7.1-1.2-10.6-7-9.9-16.5.6-8.6 3.4-13.9 12.4-23.9 7.4-8.1 10.1-9.9 36.7-25.3a190 190 0 0 1 27.7-14.6l14.5-5.7c10.9-4.2 23.9-8.4 28-8.9 6.7-.9 7.5-.7 10.5 2.5m32.5 1.8c-.8 3.2-1.2 8.5-.9 14.7.6 12.3-1.3 18.6-6.6 22.1-2.8 1.8-4.2 2.2-7.5 1.7-5.8-1-6.8-2.7-5.9-10.5.8-7.2.7-14.7-.4-20-1.3-6.1-.5-7.8 4.1-9.1l8.2-2.4c2.2-.8 5.4-1.4 7.2-1.4l3.1-.1zm58.7 29.2q-2 2-2.6 1.7c-.6-.5-1-7.5-.8-11.9l.2-3.5 2.7 5.8 2.6 5.8zM244.5 226q-.8 1.2-2.6-1.9-4-6.6.7-1.9c1.5 1.5 2.3 3.1 1.9 3.8m-11.6-2.1c1 .7 1.1 1.3.2 3-1.6 2.9.3 5.5 9.2 12.8 8.6 7.1 9.4 7.6 10.7 6.8 1.8-1.1-.8-4.3-6.5-8-3-1.9-5.5-3.8-5.5-4.1 0-.4 1.8-.4 4 0 2.3.3 4.9.2 6-.4 1.4-.8 2.8-.5 5.5 1 2 1.1 5.4 2 7.9 2 5.3 0 6.1.7 3.3 3.1q-2.4 1.8-1 2.9c1.7 1.8 8.4.3 13.8-3.1 5.3-3.4 5.5-3.4 5.5-1.4q.1 1.4 1.3 1.5c1.5 0 4.7-5.1 4.7-7.3 0-2.6 1.9-2.9 4.6-.8q2.7 2.1 1.1 2.1c-2 0-7.7 6.6-7.7 9 0 3.2 2.9 2.3 5.1-1.5 1.7-2.9 2.7-3.5 5.5-3.5 3.4 0 3.8-.6 3.5-4.3q-.5-3.2 3.1 0c2.9 2.6 2.2 4.1-3.2 6.8-5.7 2.9-8.1 6.5-6.3 9.5 1 1.4.8 2.1-.5 3.3a68 68 0 0 1-15.8 7.7c-.6 0-3.9 1.2-7.5 2.6-4.9 2-7.4 2.5-10.7 2s-4.4-.2-4.8.8q-.7 2.1-12.6-4.5c-2.3-1.2-4.5-1.2-5.3.1-1 1.7 1.3 3.8 4.8 4.5 1.8.4 5.1 1.6 7.5 2.8 3.3 1.6 4.5 1.8 5.4.9.7-.7 3.7-1.2 6.8-1.2 3-.1 6.6-.7 8-1.5 4-2.3 7.3-1.9 8.7 1 1 2.4.8 2.8-4.4 7.3-4.8 4.1-6 4.7-10.1 4.8-3.7 0-5.2-.5-6.9-2.3-2.5-2.7-4.8-2.2-7.9 1.5l-2 2.5-4.7-2.8c-4.5-2.6-8.3-2.8-7.5-.3.2.6 3.1 2.6 6.4 4.3 11.7 6.2 10.6 5.3 8.8 8a6 6 0 0 0-1 4.9q.6 2.6-1.5 6.6c-2.2 4.2-2.6 4.5-4.7 3.1-1.1-.7-1.1-.9.2-1.4 2.9-1.1 1.7-3.8-2.4-5.5q-7-3.1-1.1-3.2c3.7 0 4.8-1.6 2.7-3.9-.9-1-1.6-2.5-1.6-3.3 0-2.4-2.9-4.2-6.6-4.1-2.9.1-3.5-.3-4-2.5a29 29 0 0 0-2.2-5.7l-1.5-3 2.5 2.2c3.2 3 3.7 2.9 6.8-.8l2.6-3.2 4.1 2.2c5.2 2.6 5.3 2.6 5.3.1 0-2-6.3-7-8.8-7-.8 0-2.3-1.1-3.4-2.5s-3.7-3.4-5.8-4.5c-3.9-2-13-10.4-13-12.1 0-2.2 5.1-.6 9.1 2.9 5.1 4.4 11.3 8.2 13.5 8.2 2.3 0 2.8-2.9.8-5.1-1.5-1.7-.9-1.5 4.2.8 5.6 2.6 6.6 2.8 18.8 2.6a45 45 0 0 0 14-1.3c2.1-2.1-1.7-3.1-10.1-2.6-12.5.7-23.2-2.9-29-9.7q-5.4-6.5-8.4-3.1c-1.2 1.5-.8 2.2 3.4 5.8 8 7.1 5.1 7.1-3.4 0-2.4-2-5.3-4-6.4-4.4-5.9-2.2-6.4-2.2-9.2.6-2.5 2.5-2.7 2.6-4 .8-1.2-1.7-1.1-2.1 1.4-4.1a10 10 0 0 1 3.9-2.3c.5 0 3.1-1.3 5.7-3 4.1-2.6 4.7-3.4 4.7-6.3q-.2-6.6 3.9-3.8m81.3 29q-8 5.3-8.2 8.5c0 1 3.9.6 4.5-.4 1.1-1.7 5.1-1.1 7 1 1 1.2 2.5 1.8 3.3 1.5s2.3.2 3.3 1.1c1.6 1.4 2.1 1.4 5.1.1 3.8-1.8 9.7-2.7 10.3-1.6q.3.6-1 1.9c-2.7 2.2-1.8 4.2 1.7 3.8 3.4-.3 5 1.6 2.1 2.5-6.4 1.9-14 5.1-15.3 6.3-1.3 1.4-1.3 1.7.3 2.9q1.8 1.4 4.7.5c4-1.1 12.1-6 12.7-7.7.7-1.8 3.3.3 3.3 2.7 0 1.9-11.2 8.3-16.7 9.5-4.1.8-6.3 3.2-4.2 4.6 2.4 1.6 7.9.2 15.2-4.1 9.1-5.3 10.7-4.7 2.3.8-9.1 6-15.3 8.6-28.6 12.2l-16.5 4.5c-13.4 3.7-16.6 3.3-18.3-2.2-1.1-3.9-2.5-10.6-2.8-13.3 0-.8-.7-2.7-1.4-4.3s-1-3-.7-3.3c.9-.9 3.7 1.5 3.7 3.2 0 2.5 2.2 2.6 4.8.2a69 69 0 0 1 7.5-5.7 20 20 0 0 0 5.5-4.9c.3-1 1.9-2.9 3.5-4.5 2.3-2.1 2.8-3.3 2.4-5.5-.4-2 .4-4 2.9-7.9 3.4-5.1 4.7-5.9 10.8-6.2 2.6-.1 2.3.3-3.2 3.8m-207.8 3.8c4 1.9 3.8 3.3-.4 3.3-2.8 0-5.7-2.9-4.3-4.4.8-.8.7-.8 4.7 1.1m228.7.9q1.9 2-.5 1.3-1.8-.5-2.4-1.7c-.5-1.7 1.3-1.5 2.9.4m-47.5 6.3c-.3.5-1.6 1.1-2.8 1.4q-3.2 1-.4-.8c2.2-1.7 4-2 3.2-.6m11.9 1.1q.4.9-.4 1-1-.1-1.1-1 0-1 .4-1 .6 0 1.1 1m-63.5 5.6q0 1.3-1 .9-.9-.6-1-1.6.1-.8 1-.9 1 .1 1 1.6m57.8 2.1c.2 1.6-.8 2.7-5.2 5.1-3 1.6-5.8 2.7-6.1 2.4-1.5-1.6 0-4.5 3.7-7.2q7-5.1 7.6-.3m-141.4 7.2c.9 1.5-2.3 3.6-3.6 2.3-.5-.5-.7-1.5-.4-2.1.9-1.3 3.3-1.4 4-.2m105.1 1.1c.8 1.3-.4 5-1.6 5-.5 0-.9-1.4-.9-3 0-3 1.3-4 2.5-2m-94.3 4.2q-3 3.1 1.9 9.1c2.3 2.8 3.6 3.6 5.2 3.2 1.8-.4 2.8.4 5.4 4.3a57 57 0 0 0 21.1 16.8c6.9 2.7 5.4 4.1-5.5 5a349 349 0 0 0-18.8 1.8q-23 2.6-25 11.5c-1.2 5.5 5.2 20.4 12 27.7 3.9 4.2 10.8 16.1 10 17.4-1.1 1.7-2.7 1.1-6-2.3l-4.9-4.5c-.9-.7-1.6-2.7-1.6-4.4 0-3.5-3.5-9.8-5.4-9.8-2.1 0-4.6 3.4-4 5.5.9 3.6-1.8 5.4-12.1 8-5.5 1.3-11 2.5-12.1 2.5a35 35 0 0 0-9.2 3.6c-7.5 3.7-12.7 8.8-13.5 13.2-.5 2.6 1 7.2 2.4 7.2s3.9 3.1 3.9 4.6q.1 1.5-2.5.8c-4.1-1-3 2.1 1.7 4.9q6.8 4 5.5-.4-.4-1.8.4-1.9c1.9 0 2.1-3.1.4-5s-1.5-5 .5-5c.5 0 2.4 2.5 4.1 5.6 2.3 4 3.7 5.4 4.9 5.1q1.9-.6 1.2 1.9c-.5 2.8-1 2.9-3.3.8-1.4-1.2-2.2-1.3-3.9-.4-1.9 1-2 1.7-1.4 5.8 1.5 9.6.1 14.5-4.9 17.6-2.5 1.6-4.2-1.3-1.9-3 1.4-1 1.5-1.5.5-2.5s-1.6-.9-2.8.7c-1.3 1.8-1.4 1.8-1.5.1 0-1 1.4-3.2 3-4.9 1.7-1.6 3-3.3 3-3.8 0-3.3-7.4-.5-9.2 3.5q-1 2.3-4.2 2.8-5.2.9-2.8-1.5c1.3-1.6-.6-10.6-2.7-13.2-.7-.9-3.1-1.9-5.2-2.2-2.3-.4-3.9-1.2-3.9-2 0-1.8.9-1.8 5.5.2q3.8 1.5 4.8.5c1.5-1.5-.9-3.9-5.4-5.8-2.1-.8-4-2.2-4.3-3-.9-2.3.1-2.8 2.1-1 2.9 2.5 7.4 4 8.7 2.7q1.3-1-2.4-4l-3.5-3 3.2 1.2c3.8 1.4 3.9 1.4 4.8-3.4.6-3.4.5-3.8-2.4-5.3-3.7-1.9-3.3-3.2 2.3-8.3q3.7-3.3 5.5-2.7c2.4.7 4.7-1.9 2.9-3.4-6.8-5.4-8.1-6.9-7.5-8.5s1-1.4 3.1 1.1c1.9 2.1 2.7 2.5 3.6 1.7 1.7-1.7.8-4.8-1.8-5.9-1.2-.5-2.2-1.3-2.2-1.7 0-1.6 2.1-1.8 4.4-.3 2.7 1.8 4.6 1.3 4.6-1.1q.1-1.3 1.2-1.4c1.7 0 8.8-8.1 8.8-9.9 0-.8-1.2-2.8-2.7-4.3q-2.7-2.8-1.7-3.8t2.9 1c2.5 2.7 4.5 2.5 4.5-.5q.1-2.4 1.4-2.5c2.4 0 2.9-1.9 1.2-4.5-1.8-2.7-.6-3.5 1.4-1q2.5 2.9 5.1-.1c1.1-1.4 1-1.9-.9-3.4-1.2-1-2.2-2.3-2.2-2.9 0-1.9 2.9-1.2 4 .9q1 1.8 2.6 2c2.5 0 2.7-2.8.5-6.5-2.1-3.6-1.5-5 .7-1.5 1.4 2.3 5 2.7 5.8.5.4-.9 1.9-1.5 3.5-1.5q5.7 0-.1-6.7c-2.6-3-4-6.3-2.5-6.3.3 0 1.8 1.4 3.4 3.2q2.8 3.1 4.4 2.5c2.4-.9 2.1-2.2-1.4-6.2-1.8-2-2.9-3.9-2.5-4.3s1.5.3 2.4 1.5c2 2.5 5.8 3.8 6.7 2.3.3-.5 1.5-1 2.6-1s2.2-.7 2.5-1.5q.8-1.4 2.4-1.5c3.3 0 3.4-2.1.4-7.5-2.4-4.6-2.7-5.6-1.6-7.9.6-1.4 1.7-2.6 2.4-2.6q1.3 0 0 1.2m102.8 7.2c0 .7-.7 1.9-1.5 2.6q-1.6 1.2-.4 3.1 1.1 2-.6 1.9-1.3 0-1.6-.8c-1-7.2-.8-8.2 1.7-8.2q2.3.1 2.4 1.4m8.4.7c0 .8-.4 3.3-.8 5.6-.5 3.8-.4 4.3 1.3 4.3 2.5 0 3.1 2.1 2.6 9-.5 6.1-6 18.2-10.1 22.1-2.9 2.7-4.2 1.9-2-1.3q3.6-5-1.4-9.7c-2.3-2-2.7-3-1.8-3.9q1.4-1.1-1.6-2.2c-2.4-.9-2.7-1.4-2.4-5.2.3-4.2.4-4.3 3.4-4 2.6.2 3.6-.3 5.3-2.7 1.2-1.6 2.1-3.3 2.1-3.8q.2-1.1 2-2.8c1.6-1.4 1.9-2.6 1.4-4.8q-.8-3.1.7-2.5 1.3.6 1.3 1.9M157 295c1 1.8.9 1.9-1.4.8q-2.3-1.1-2-1.9c.9-1.5 2.3-1 3.4 1.1m-5.3 4.2q-.5 1-.5-1.2c0-2.2.2-1.9.5-1.3.2.7.2 1.9 0 2.5m106.3 4.2q0 .5-1 1.1-.9.4-1-.4.1-1 1-1.1 1 0 1 .4m185.5 7.2q7.5 1.2 7.5 3.9c0 1.9-7.3 7.5-9.8 7.5-1.2 0-2.8 1-3.7 2.2l-1.6 2.3-1.9-2.5-1.8-2.4-2 2.4c-1.7 2-2.3 2.3-3.3 1.2a8 8 0 0 0-3.8-1.3q-2.3 0-1.3-.6c1.8-.7 1.5-5.3-.3-5.3-2.2 0-7.5-2.8-7.5-4 0-1 6-2.8 13.5-4 4.9-.8 7.8-.7 16 .6m-71 5.4c.8 2.4-1 5-3.3 5-1.3 0-1.3-.3.2-1.9s1.5-1.9.1-3.1c-1.2-1-2.1-1-4.4 0-3.7 1.5-4.6 3.7-2.1 5.2q2 1.1.8 2.6c-1.9 2.2.5 3.6 4.1 2.4 3.9-1.4 5.1.2 2.1 2.6-2 1.6-2.1 1.9-.6 3.1 1.4 1.2 2 1.1 4-.8l2.3-2.2 2.9 4.3c1.6 2.4 3.1 5.6 3.4 7.3.4 2.5 1 3 3.4 3 1.6.1 3.1.6 3.4 1.3q.2 1.1-1.2 1.2c-1.9 0-4 3.6-2.6 4.5s5-.4 5-1.6c0-2.2 2.1-.6 4 3.2 1.6 3.1 1.9 4.4 1 5.4-1.6 1.9-.3 3.7 2.1 3q2-.7 1.9.9-.2 1.5-1.5 1.6-1.4 0-1.5 2.4c0 1.8-.7 2.5-3.1 3-5.3 1-7.8.7-9.9-1.4a8 8 0 0 0-4.7-2.1c-2.8 0-2.8 0-.5-1.1q4.6-2.2-2.4-4.3c-3.1-.9-4.5-.9-6.7.2-1.5.8-3.6 1.1-4.7.8-1.9-.6-3.7-3.8-2.3-4.2 2.2-.8 3.5-2.2 2.9-3.2-.9-1.4-4.9-1.4-6.4.1-1.3 1.3-11-.6-13.9-2.7-1.3-1-.8-1.2 2.8-1.3q9.9-.4 9.9-2.8c0-1.1-1.7-1.4-7.9-1.4q-16.3 0-6-2.7 8.7-2.2 6.3-4.2c-.5-.6-3.1-.6-6.4 0-5 .8-24.7-.5-25.9-1.7-.3-.2.5-1.3 1.7-2.4 1.2-1.2 2.2-2.6 2.2-3.2 0-1.6 1.8.2 3.4 3.4 1 1.9 1.8 2.2 5.1 2q7.2-.6 4.6-3.5c-1-1.2-.4-1.6 3.4-2.2 3.6-.5 4.8-1.2 5.5-3.1q.9-2.5 3.7-2.4c3.8 0 8.8-3.2 10.5-6.6q1.3-2.8 4.3-3.4c1.7-.4 3.9-1.1 5-1.7 2.4-1.4 5.1-.1 6 2.7m-233.5-.5q1 1.4.2 1.5-.9-.2-1.6-1.5-.5-1.4-.2-1.5c.3-.1.9.7 1.6 1.5m199.8 9.2q2.6.5 1 1.4c-2.1 1.4-4.8 1-4.8-.6s.4-1.8 3.8-.8M200.3 329c.7 2.6 3.3 2.6 4.7 0 .9-1.7 1.8-1.9 5.8-1.4 9.1 1.1 14.5 2.4 17.3 4.5 3.6 2.5 3.7 4.4.2 6.6-2.2 1.5-6 1.9-20.8 2.5-10 .3-19.7.3-21.6-.1l-3.4-.7 3.3-.7q3.6-.6 3-2.4c-.3-1.5-1.3-1.8-6.8-1.5-10.2.4-5.2-1.5 5.9-2.3 5.3-.4 9.9-.9 10.4-1.2s.3-1.2-.3-2.2q-1.3-2.9 1.1-3.1.6.2 1.2 2m242.3 3.4q-1.5 7-3.4 1.7c-.8-2.2-.7-3.4.5-5.1 2.1-3 3.7-1.1 2.9 3.4M185.5 329c-.3.5-4.1.9-8.3.8-7.3-.1-7.4-.2-2.7-.8q12-1.7 11 0m240.4 5.7c-1.5 3.9-4.1 5.1-4.7 2.1-.2-.9.7-3.1 1.9-4.8 3.1-4.1 4.7-2.4 2.8 2.7M436 336c2 5.1 2 5.5.4 6.7q-3.7 2.7-6.9-.7c-1.7-1.9-1.7-2.2.5-7.5 1.3-3.1 2.6-5.3 3.1-4.8s1.7 3.3 2.9 6.3m-274.5-3.1a21 21 0 0 1-6.5 2.4c-1-.9 8.1-5.1 11-5.1.8 0-1.2 1.2-4.5 2.7m148.9-2c.8 1.3-.4 4.2-1.5 3.5s-1.2-4.4 0-4.4q1 0 1.5.9M275 334q0 .9-1 1a1 1 0 0 1-1-1q.1-1 1-1t1 1m-103.7 1.7c-.7.2-1.9.2-2.5 0q-1-.5 1.2-.5c2.2 0 1.9.2 1.3.5m103.7 5.2q3.8 1.8 4.8.9c2-2 3.5.4 2.9 4.7-.4 2.3-.3 4.5 0 4.9.4.4.8 2.7 1 5.2.3 6.4 1.6 7.6 7 6.8q4.3-.6 4.3.5c0 .7-2 1.1-5 1.1-4.2 0-5 .3-5 1.9 0 2.3 1.9 3.1 7.1 3.1 2.1 0 3.9.4 3.9 1s-1.2 1-2.7 1c-5.9 0-7 .9-7 5.1 0 4.6 2 6.2 6.8 5.7q4.8-.4 4.9 4.4c0 1.4-.9 1.8-4.3 1.8-5 0-6.2.7-4.6 2.7.7.8 3.2 1.3 6.1 1.3 6.3 0 6.1 2.3-.2 3-2.4.3-4.5 1-4.7 1.6-.5 1.6 3.1 2.4 7.4 1.7 5.1-.9 3.9 1.9-1.3 3.1-7 1.5-6.9 1.5-5.2 3.2 1.3 1.4 2.4 1.4 6.4.5 4.2-.9 5.1-.8 6.2.7q3.3 4-4.6 3.4c-5.5-.3-7.7 1.3-4.7 3.4q1.7 1.2 7.6.8c3.3-.2 5.9 0 5.9.5 0 1.6-3.9 2.3-9.1 1.6-3.9-.6-4.9-.4-4.9.8 0 .8.7 2 1.5 2.7s1.5 1.9 1.5 2.7 1.2 1.9 2.8 2.6q2.5 1.2 2.7 3.2c0 1.8.7 2 7.5 2.1 8.2.2 9.7 1.5 2.9 2.6-5.1.9-5.6 1.3-3.8 3.4q1.2 1.6 4.8 1c8.1-1.2 8.5-1.1 8.9.6.3 1.5-.4 1.8-3.6 1.8-2.1 0-4.2.3-4.5.7-.9.8 2.2 4.3 3.8 4.3q1.2.2 1.8 2c.9 3.4 7.7 2.3 7.7-1.2 0-1.8.5-1.6 4.8 1.5a24 24 0 0 1 6 6.1c1.9 3.7 3.5 3.3 2.7-.7-.4-1.9-1.9-4.2-3.7-5.7-6.9-5.5-15-15-19.4-22.5-11.2-19.2-13.2-23.8-16-36.5-1.6-7.2-4-32.8-3.1-33.6q.7-.7 10.6 2.2 1.5.4.4 1.5-1 1-3.6-.2c-1.4-.6-3.3-.9-4.3-.5-1.5.6-1.5.8 0 2.4 1.2 1.4 1.3 2.1.4 3-1.6 1.6 2.8 6.4 5.6 6 1-.2 2.1.3 2.3.9q.3 1.3-1.9 1.3c-3.5 0-4 1-2.3 3.7 1.4 2 1.4 2.4.1 2.9q-1.6.4-.9 4.2.8 6.3 6.5 6.2c1.5 0 2.8.4 2.8 1s-1.8 1-3.9 1c-2.2 0-4.2.4-4.6.9-1 1.8 2.6 4.1 6.6 4.1 4.5 0 5.2 1.7 1.2 2.6-5.4 1.1-5.3 1-3.7 5.1.9 2.1 2.1 4.3 2.9 4.8s1.4 1.9 1.6 3q.3 2 4.4 2.5c3.5.5 3.7.7 1.7 1.4-3.2 1.1-2.4 4 1.2 4.6s4.5 2.6 1.7 3.5-2.6 3.3.3 4.6q2.2 1.2 2 2.4c-.7 1.7 1.5 3.3 5.1 3.7 2.6.3 3 .7 2.7 3q-.3 4.6 5.8 4.8 1 0 1 1.2c0 1.8 3.1 4.8 5.1 4.8.9 0 3.2 1.8 4.9 4 4 5 7 6.6 15.1 8 13.6 2.2 17.1 3.6 21.6 8.7a27 27 0 0 1 4.9 7.7c.3 1.6 1.4 3.1 2.5 3.3 1 .3 1.9 1.3 1.9 2.2s.7 3.4 1.4 5.6c1.4 3.9 1.4 4.1-1.2 6.8l-2.7 2.9 2.2 1.8 2.3 1.8-2.1 4.6c-2.4 5.6-1.6 9.7 2.2 10.6 3.3.8 3.5 3.4.4 4.8-2.4 1.1-2.5 1.4-2.7 12.4-.3 18.1-.5 21.9-1.7 29.7a38 38 0 0 0-.6 9.2c.4 1 .3 2.4-.1 3.1s-.8 2.1-.9 3.2-.5 2.9-1 3.8q-.7 1.8.9 2.4c2.2.8 4.9-1.5 4.3-3.8q-.8-2 2.2-1.8c3.5 0 5.5-1.8 4-3.7a6 6 0 0 0-3.5-1.3c-3.3 0-3-1.4.8-3.1 4.3-1.9 4.7-3.8.8-4.5l-3.1-.7 2.2-2.3c2.1-2.2 2.1-2.5.6-4.2-2.3-2.5-2.1-3.2.7-3.2 2.3 0 2.5.4 3.2 8.7.4 4.9.6 11.3.6 14.3-.1 3 .3 8.9.8 13s1.5 13.8 2 21.5c1.2 14.4 4.3 40.8 6 50.5l5.7 31.1c.7 3.5-1.9 5.9-6.5 5.9-3.4-.1-3.5-.2-1.8-1.5 2.3-1.8 1.1-3.8-2-3.2-3.8.7-3.7-.8.1-2.6 5.1-2.4 4.5-4.1-1-3.4-5.2.8-5.9-.3-1.4-2 3.8-1.4 3-3.3-1.4-3.3-3-.1-3.1-.2-1.3-1.5 1-.8 1.6-2.1 1.3-2.9q-.5-1.5.3-2.1c.6-.4 1-1.5 1-2.5s.5-2 1.2-2.2c2-.7-.2-2.8-2.8-2.8-2.9 0-6.4-1.6-6.4-3 0-.6 1.8-1 3.9-1 4.2 0 6.3-1.6 3.6-2.6-1.4-.6-1.4-.8.1-1.9 1.8-1.2 1.2-3.5-.9-3.5-3.3 0-8.7-2.2-8.7-3.6 0-1.1.9-1.3 4.4-.9 4.8.7 7.1-.9 4.3-3q-1.5-1.2-1.1-3.3c.5-1.7-.1-2.3-3.5-3.3q-7.6-2.3-.4-2.4c7.2-.1 5.2-2.5.6-3.7-4.4-1.1-5-2.6-1.1-2.4 4.8.2 5-2.8.4-4.4-2-.6-3.6-1.6-3.6-2.1q.1-1.7 2.9 0c1.5 1 4.1.4 4.1-.9 0-.5-.7-1.6-1.6-2.5-1.3-1.3-1.4-1.8-.3-3.1 1.2-1.4.9-2-1.6-4-2.8-2.2-2.8-2.4-.8-2.4 3.2 0 3.9-2.1 1.5-4.1-1.8-1.4-1.9-1.8-.7-2.3 2.3-.9 1.8-3.5-.9-4.2a9 9 0 0 1-4.2-2.5c-2.4-2.6-8-2.6-9.4.1-.9 1.7-.7 2.2 1.5 3 1.5.6 3.8 1 5.3 1 2.6.1 2.6.1.7 1.6a7 7 0 0 1-4 1.3c-4-.3-4.6.1-4.3 2.3.2 1.8 1.1 2.4 3.8 2.8 3 .4 3.5.9 3.8 3.4s.1 2.8-1.5 2.1q-5.6-2.4-7.2-.1c-2.2 2.7-.6 4.6 3.9 4.6 3.2 0 4 .4 4 1.9 0 1.6-.6 1.8-4.3 1.4-3.2-.4-4.6-.1-5.6 1.1q-1.6 1.8-.3 2.8 1.4 1.1-.4 2.9-3.4 3.9 4.1 3.9c2.4 0 4.7.4 5 1q.4 1-3.4 1-4 0-5.8 1.8c-1 1.1-2.6 2.2-3.5 2.5-2.2.8-2.3 3-.3 4.7 1.2 1 1.7.7 2.7-1.4q1.1-2.6 2.6-2.1c.7.3 3.1.5 5.3.5 2.9 0 3.9.4 3.9 1.6 0 1.4-.7 1.5-4.1 1q-4.1-.7-6.3.7c-1.1.8-3.3 1.7-4.8 2.1-3.2.7-3.7 3.1-.9 4.5q1.9 1.3 3.2-.5c1.5-1.8 13-1.6 13.6.2q.5 1.2-4.1.7-7.6-.9-7.6 3.8c0 1.6.6 1.8 6.3 1.2l6.3-.6 1.2 5.4 1.8 9.9a141 141 0 0 0 5.9 22.1c.8 2 1.1 3.9.8 4.2-1.1 1.1-6.3-2.3-6.3-4.1q.1-4.3-6.9-4.2c-4.4 0-4.5-.1-2.1-1.3 3.3-1.7 3.2-3.9-.3-5.5-2.2-1.1-2.6-1.8-2.1-3.8q.6-2.2-.5-2.5c-12.6-.8-15.9 1.6-6.3 4.5q4.1 1.4 2.5 1.5c-3.2.1-5.7 2.9-4.2 4.7.6.8 1.8 1.4 2.6 1.4q1.9-.2.2 1.6c-1.1 1.4-.9 2 1.4 4 2.5 2.2 2.6 2.5 1 3-4.7 1.4-13.4 6-19.2 10.2a47 47 0 0 1-27.2 9.3c-13.9 1.3-36-.3-39.8-2.8-1.4-.9-6.2-5.4-10.7-10-9.9-10.3-11.8-11-22.7-8.4-4.2 1-7.7 1.5-7.7 1.2 0-.9 8.2-6.1 9.6-6.1.7 0 2.5.5 4 1 4 1.6 5.7-.5 2.5-3.1-4.1-3.3-7.9-2.5-17.2 3.9-6.9 4.7-8.4 6.2-8.3 8.2.3 4.1-8.3 11.1-15.4 12.6l-8.4 1.9q-3 .9-2.8-.8.1-1.4 1.6-2.8a22 22 0 0 0 5.1-9.2c.7-3.1 1.9-13.2 3.3-28.2a323 323 0 0 1 7.2-46c1.7-7.7 3.3-17.6 3.4-22 .5-14.2 1.3-28.7 2.3-40.5.5-6.3.6-11.9.1-12.3s-1.6-.4-2.7.1q-1.8 1-3.6-.3c-2.5-1.8-2.2-3.8.4-3q3.8 1.1 3.9-4.6a5 5 0 0 1 2.5-4.3 8 8 0 0 0 3.1-4.4c1.2-5 4.2-9.8 6.8-11q4.2-2 1.4-5c-1.8-1.8-3.3-1.5-6.7 1.3a19 19 0 0 0-4.7 7.8q-2.6 8-4.7 5.8c-.9-.9 2.3-8.1 6.3-14.6 1.8-2.9 2-3.9 1-4.5-.7-.5-1.9-.6-2.7-.3-1.8.7-1.7-1.2.2-2.7q1.3-1.2 1.5-2.6-.2-4.5-6.6 2c-4.6 4.8-5.9 5.3-2.4.9q2-2.5 1.1-4.2-1.1-1.5 1.1-3.8c2-2.1 2-2.3.3-2.9-2.2-.9-9.5 3-13.2 6.9-2.5 2.6-2.6 2.8-1 4.4s1.8 1.5 4.2-.7c2.1-2 1.9-1.3-1.2 3.3-2.9 4.5-4.3 5.7-6.3 5.7-5.2 0-7.9 5.6-8.6 18l-1.3 26-1.6 33c-.4 6.3-.2 17.6.3 25s.7 14.1.4 14.8q-.6 1.2-2.4.8a10 10 0 0 0-4.4.4c-1.9.8-2.4 1.7-2.4 4.4 0 1.8.6 3.6 1.3 3.9 2.5.9 12.2-.4 13-1.9.4-.7 2.1-1.4 3.7-1.4q3 0 3-1.4c0-1.8-2.9-2.9-4.5-1.6-.6.5-1.5.7-1.8.3-.7-.7-1-15.3-.3-15.3l2 .6c1.2.5 1.3.9.3 2.5s-.9 2.3.7 3.4c1.7 1.3 1.7 1.5.3 2.1-2.1.8-2.2 3.3-.2 4 2.2.9 4.7-1.5 4-3.7q-.5-1.8.4-1.9c1.9 0 1.2-2.8-1.1-4.4l-2.2-1.6h2.4a9 9 0 0 0 4-1c1.3-.9 1.3-1.2-.3-2.4-1.7-1.3-5.7-1.5-9.7-.5q-1.5.5-1.8-2.6-.5-3.4.9-1.8c1.6 1.6 10.5 1.7 11.4.3q.6-1.1-.5-2.5-1.4-1.4.7-2.4c1.5-.8 1.6-1.3.6-2.9q-1.2-2-.1-3c1.4-1.4.1-3.2-2.5-3.3q-3 .1.6-1.1c4.7-1.7 3.1-4.2-2.9-4.6-6.3-.4-7.8 1-6.4 5.8q.9 3.2 0 5.1c-.8 1.4-.5 2.1 1 3.2 2 1.4 2 1.4-.4 2.5-2.3 1-2.3.9-2.8-4.6a81 81 0 0 1-.1-11l.6-5.2h5.7c3.6 0 6.2-.5 6.9-1.4 1.9-2.3-1.2-3.8-6.9-3.4-2.7.1-5 0-5-.5s1.7-.7 3.8-.7 4.3-.4 5.1-.9c2.2-1.4.5-4.1-2.6-4.2q-3.1 0 2.5-1.5c3-.8 5.8-1.2 6.3-.8s.9 1.9.9 3.6c0 2.2.5 3.1 2.1 3.5 2.1.6 2.2.9 1.6 13.7a130 130 0 0 1-2.1 19.6 297 297 0 0 0-5.6 33c-1.2 8.5-2.2 16-2.4 16.6-.3.6-1.8.9-3.5.6-4.2-.6-4.3 2.5-.1 4.1 3.6 1.4 3.7 2.8 1.6 16-1.2 7.5-2 9.6-5.2 13.7-3 3.9-4.1 4.7-5.4 4-1-.5-2-1.6-2.3-2.4-.8-2.1-8.4-4.3-9.9-2.8-1.4 1.4.5 4 3.9 5.3 2.6 1 3.1 2.9.7 2.9-2.7 0-8.4-4-9.9-7.1q-1.7-2.7-3.6-2.9c-1.1 0-3.7-.9-5.9-2-5.3-2.7-7.6-2.5-11.2 1a22 22 0 0 1-4.9 4c-1 .6-1.9 2-1.9 3q-.1 1.8-1.1 2c-1.2 0-6.2-5.3-7.9-8.6-1.6-3 .1-5.4 3.7-5.4 3 0 13.5-9.8 18.9-17.6 3.2-4.7 3.9-5.2 4.9-3.7 1.6 2.2 6.8 1 6.3-1.5q-.3-1.7-3.2-1.5c-2.7.2-2.7.1-1.2-1.6.9-1 1.6-3.1 1.6-4.7s.7-4.2 1.5-5.8a40 40 0 0 0 2-11l1.7-17c1-8 1.5-9.4 4.6-12.8s3.3-4.2 2.8-7.5c-1.1-6.2-1.4-40.5-.4-44.8 1.5-6.7 1.5-6.9-1.6-7.5-3.4-.6-3.7-2.4-.3-2.5 2.9 0 2.9-2.9 0-3.3q-2.4-.3-2.3-2.5 0-2.3.9-.9c.5.8 1.7 1.2 2.7 1 1.8-.3 1.9-1.6 2.1-17.8.5-37.3.7-41.3 2.1-41.8.8-.2 2.8-1.7 4.5-3.2s4.2-3 5.5-3.4a7 7 0 0 0 3.2-2.5c.5-1 2.4-2.1 4.1-2.5 6.4-1.3 7.3-3.7 3.2-8.6l-2.6-3.2 2.9-2.3c1.6-1.4 3.4-2.4 4.1-2.5 1.8 0 2.7 2 1.4 3.3a4 4 0 0 0-1.1 2.4c0 1.6 4.7 4.7 7.4 4.9 3.9.2 9.6 1.6 10.1 2.4 1 1.7-2.7 1.9-6.5.4-3.9-1.6-3.9-1.6-12.6 2.8-9.1 4.5-11.4 6.8-13.6 14-.9 2.9-.8 4.1.2 5.3 1.2 1.4 1.9 1.1 6.1-3.1 4.4-4.3 4.7-4.9 3.4-6.4-1.9-2.1-1.1-2.8 5.9-5.9 6.4-2.8 11.6-1.5 6.6 1.7-2.1 1.3-2.7 4.7-1 5.7.6.4 2.6-.7 4.6-2.4 4-3.5 9.9-4.2 15-1.7a27 27 0 0 0 5.6 2c1.4.2 3.6 1 4.9 1.6q2.4 1.2 8.6.7c5.7-.6 6.4-.4 6.1 1.1q-.1 1.8-3.4 1.4c-3.4-.3-6 1.8-5 4.3.3.8 1.7 1.5 3.2 1.5 4 0 12 4.8 14.7 8.9 1.3 2 3.3 5.7 4.5 8.3 2.1 4.7 6.9 8.8 10.4 8.8 1 0 2.9 2.3 4.8 5.4q4.6 8 8 6.1.9-.5 1 .4c0 .5 1.2 2.4 2.6 4.1s2.5 3.2 2.3 3.3l-2.4 1.3c-1.5.8-2.1 2.3-2.3 6-.4 5.5-2.5 8.4-8.2 11.4-1.9 1-5.8 4-8.7 6.7-5.4 5-5.7 5.6-5.4 14.5a11 11 0 0 0 3.3 7.4c3.1 3.5 3.4 3.6 8.9 3.1 8.6-.8 14.1-3.7 19.1-10.1 5.9-7.6 12.8-19.9 11.8-21-1.3-1.3-2.7 0-5.7 5.2-1.5 2.6-5.1 7.9-8 11.9-5.5 7.4-6.3 8-16 9.9-2.6.5-3.7.1-5.9-2.1s-2.6-3.2-2.2-7.6c.6-5.9 3.8-9.8 11-13.5 5.2-2.7 11.8-10 11.8-13.3q0-2.2 2.5-3.1c2-.8 2.5-1.6 2.5-4.3 0-1.9-.9-4.6-2-6-2.5-3.1-2.5-3.3 0-4a4 4 0 0 0 2.7-2.4q.9-1.7 3.3-1.8c2.4 0 2.5-.3 2.2-4.8-.3-3.7-.1-4.7 1.2-4.7 2.8 0 2.6-1.8-.9-10-3.6-8.4-4-10-2.7-10 .4 0 1.6 2.1 2.7 4.6 2.5 5.7 4 7.1 6 5.4q1.4-1.2.8-4.2c-.5-2.5-.3-2.9 1.3-2.6q2 .5 1.9-2.2 0-2.6 2-3c2.5-.7 3.1-4.3 1-6-1.4-1.1-2-1.1-3.7-.1-1.6 1-2.3 1-3.7-.3-1.6-1.4-2.1-1.4-5.7.5l-6.7 3.6a42 42 0 0 1-20.9 2.4c-4.8-1.5-5.5-2.8-2.9-5.2q3.8-3.4.5-4.6c-.8-.3-2.5.4-3.8 1.6l-2.3 2.2-1.6-2.3c-1.3-2-1.8-2.1-3.6-1.1-1.1.7-2.8 1-3.7.6-2.4-.9-3.6 1.8-1.7 3.9 2.1 2.3 3.2 2.3 4.1-.3l.8-2 1.8 2c1.8 2 1.7 2-1.5 3.4-3.1 1.2-3.6 1.1-6.9-1.1q-3.6-2.4-3.1-4.5c.4-2.6 1.9-3.7 3.7-3 2 .8 20.4-5.6 24-8.2 3.9-3 30.4-12.5 34.7-12.5 1.7 0 3.8.4 4.6.9 2 1.3 4.1.2 4.1-2 0-5.2-12-4.9-25.1.5-1.2.5-1.6 0-1.6-2.3 0-3.6 2.3-4.8 4.7-2.6 1.5 1.4 1.9 1.3 3.5-.5s2.7-2 11-1.5a54 54 0 0 1 11.9 1.5c1.5.5 3.7 1 5 1s4.3 1.3 6.8 2.9 5.6 3.2 6.9 3.6q5.6 1.8 3.9 4-1 1.2.4 3.1c1.2 1.6 1.7 1.7 3.9.5 3-1.6 4.7-.8 4 1.8-.6 2.4 1.3 3.6 3.2 2.1q4.6-4-3.6-10.5c-4.6-3.7-5-4.3-4.4-7.3.5-2.7.3-3.2-1.4-3.2-1.1 0-2.5.9-3.1 2q-1 1.8-2 1.5c-.6-.4-.3-1.7.7-3.1q1.7-2.5.5-3.6c-1.6-1.6-4.2-.2-4.2 2.2q-.1 1.8-1.4 2c-2.1 0-3.4-2.3-2.5-4.5 1.2-3.1 1.1-3.5-1.1-3.5-1.1 0-2.3.7-2.6 1.5-1 2.5-4.3 1.8-5.4-1.1q-1-2.7-2.8-1.9-4.7 2-4.6-.8.2-3-2.3-.6-1 1.2-4.1-.5c-2.7-1.4-3.5-1.4-7.2-.1a26 26 0 0 1-20.4-1.4l-12.7-6a24 24 0 0 1-11.1-9.2c-4.3-5.8-5.9-9.9-10.4-26.9-.3-.8-1.3-2.6-2.4-4l-2-2.5-1.8 2.4c-1.5 1.9-2.4 2.2-4.3 1.5-1.3-.5-3.2-.9-4.1-.9q-1.6-.1-1.8-1c.1-.6 1.7-.9 3.8-.7 5.3.5 7.8-2.3 6.3-7A240 240 0 0 1 275 370c-2.8-24.7-3.7-28-8.1-28-1.8 0-1.9-.2-.9-1.5 1.7-2 4.3-1.9 9 .4m-100 .1c0 .5-1.3 1-3 1s-3-.5-3-1 1.4-1 3-1 3 .4 3 1m86.7 3.3c1.7 2.8 1.8 3.5.6 4.6-1.1 1-1.1 1.6-.2 2.7q1.1 1.4.1 1.4c-.6 0-2.7-1.9-4.7-4.2s-4.6-4.9-5.8-5.6q-3.3-1.6.9-.7 3.1.6 4.4-.9c1.5-1.9 2.3-1.5 4.7 2.7m30-1.1c1.2 1.3 2.3 3.2 2.5 4.3q.4 2 2.5 2c3.1 0 2.4 1.7-1.5 3.7-2.8 1.4-3.1 1.4-2 .1 1-1.3.9-1.8-.7-3-1.1-.7-1.9-2.3-1.7-3.3q.4-2-2.2-2.6-3.9-.9-1.9-2.7 1.8-1.9 5 1.5m43.1.4c1.8.5 2 .9 1.1 2a4 4 0 0 1-2.8 1.4c-1.7-.1-5.1-2.3-5.1-3.4 0-.8 3.8-.8 6.8 0m-115.7 2.5c-2.5.3-4.6 1-4.8 1.5-1.1 3.2-2.2 3.8-4.7 2.6-2.8-1.2-7.6-.1-7.6 1.7 0 1.1 3.4 3.2 4.7 3q3.2-.5 3.3 1.6c0 1.2-1.4 1.5-6.3 1.5-6.2 0-11.1 1.9-9.4 3.6.4.5 3.4.9 6.5.9 4.6 0 5.7.3 6 1.7.3 1.5-.4 1.8-4.3 1.8-8.1 0-11.8 3.6-4.2 4.2q4.3.3 4.2 1.8c0 1.1-1.5 1.6-5.5 2s-5.5.9-5.5 2 1.4 1.6 5.8 1.8c5.6.3 7.3 1.4 4.1 2.6-.9.4-2.5.4-3.6 0-2.1-.6-5.1 1.3-4.2 2.7.3.5 1.8.9 3.4.9s3.2.4 3.5 1q.3.9-1.3 1c-2.2 0-4.6 2.3-3.5 3.3.3.4 1.5.7 2.5.7 1.4 0 1.8.8 1.8 3.8 0 4 2.3 8.3 3.7 6.9q.7-1 .8-2.5t1.6-2c1.8-.3 3.3 3.8 2.4 6.7-.8 2.7-6 5.3-9.1 4.5q-2.8-.8-4 1.1c-1.5 2-1.2 2.2-2.9-3.1-.5-1.4-1.5-1.6-5.9-1-4.3.5-5.5.3-6-.9-1.3-3.4 2.4-6.6 5-4.4 1.9 1.6 4.4.4 4.4-2.1q-.1-1.8-.8-2t-.8-2.3q.2-2.2-1.5-1.9-1.7.1-4.7-5c-1.6-2.9-5.5-8-8.6-11.3a56 56 0 0 1-9.9-13.8c-1-1.4-.9-1.9.2-2.6 1.9-1.2.5-3.1-2.4-3.1q-3.9 0-4.6-5.9l-.4-2.4 28-.3a415 415 0 0 0 38-1.5c.6.3-1 .8-3.4 1.2m206.9.9q0 .9-.4 1-.5-.1-1.1-1-.4-1 .4-1 1 0 1.1 1m-175.5 2q.4.9-.4 1-1-.1-1.1-1 0-1 .4-1 .6 0 1.1 1m188.3 5.2c3.8 1.9 2.8 4.1-1.5 3.4-8.3-1.2-11.7-2.2-12-3.3-.8-2.3 8.8-2.3 13.5-.1m-181.8 2a17 17 0 0 1 2 8.7c0 5-.1 5.3-2.2 4.7-1.3-.3-3.1-.6-4-.6q-1.6-.1-1.8-1.4 0-1.3 1.8-.9c1 .2 2.4-.2 3.1-1.1 1-1.2.9-1.7-.8-2.8q-2-1.2-1-2.5c1.5-1.8.2-3.3-2.9-3.3h-2.7l2.5-2c3.3-2.6 3.7-2.5 6 1.2m11 3.8q-.1.9-1.5 1c-1.4.1-1.5-.5-1.5-1q.1-1 1.5-1c1.4 0 1.5.4 1.5 1m167.8 2.2c1.2 2.4 1.1 27.5-.1 29.4-.8 1.4-7.9.3-8.5-1.4q-.2-1.1 1.7-1.2c2.8 0 2.7-2.7-.1-3.6-2.1-.6-2.1-.7-.2-2.1s1.8-1.4-.5-3.2-2.3-1.8-.2-2.4q4-1.2-.1-3.5l-2.3-1.1h2.3c2.3-.1 3-1.5 1.2-2.6q-1.2-.7.2-2.3 1.5-1.6.1-1.9c-1-.4-1-.9 0-2.6q3.8-6.4 6.5-1.5M310 364q0 .9-.4 1-.5-.1-1.1-1-.4-1 .4-1 1 0 1.1 1m-40 2.9c0 .9-4.1 2.3-4.8 1.6q-.3-.4.3-1.4c.8-1.3 4.5-1.5 4.5-.2m134.5 5.6c.9 2.5 1.4 5.3 1 6.3q-.6 2-2.5-3.8c-2.2-6.3-2.3-7-1.1-7 .4 0 1.6 2 2.6 4.5m-144 6.2c1.4 13.9 8.1 45.1 11.2 52 3.8 8.3 10.9 19.8 14.8 23.7 6.5 6.6 20 12.3 21.2 8.9.2-.6-.8-2.2-2.3-3.6q-2.6-2.5-1.4-3.2c1.7-1 5.6.2 14.3 4.6 4.3 2.1 8.9 3.9 10.2 3.9 5.2 0 2.1 1.8-6.1 3.5-8 1.7-9.1 1.7-16.6.2-8.7-1.7-12.1-1.1-11.7 2.1.2.9-.5 3.4-1.4 5.6s-1.4 4.2-1.1 4.7c.9 1.6 4.5-1.1 5.6-4.2q1-2.8 2.8-2.9c1.7 0 1.6.4-.7 4.5s-2.3 4.6-.7 5.2c2.1.8 6.4-3.8 6.4-6.8q0-2 2.1-1.9 2.3-.1 1.4 1.7l-1.3 4.1c-.4 2-.1 2.3 1.9 2q2.4-.2 3.5-3.8c.7-1.9 1.5-3.5 2-3.5 1.2 0 2.5 5.9 1.4 6.3-.6.2-3.2 1.9-5.9 3.8a45 45 0 0 1-29.2 7.7q-21.1-.1-27.4-7.4c-2.9-3.6-3.1-4.7-.9-7.7.9-1.3 1.4-3.2 1.1-4.3-.6-2.2.1-2.3 3.9-.9l2.7 1.1-3.4 1.8c-3.6 2-5 5.5-2.5 6.4q1.6.5 4.3-2.8c1.6-1.9 3.6-3.5 4.6-3.5 2.1 0 2.1.4.2 3.4-1.4 2.1-1.4 2.5.1 3.7 1.4 1.2 1.9 1 3.8-1.4 2.7-3.4 4.6-3.5 4.6-.2q0 3.9 3.9 1.6 1.7-.9.3-2.4c-.9-1.1-.6-1.8 1.8-3.5q2.8-2.1 2.4-.8t.7 2.2c1.5.9 4.9-3 4.9-5.6 0-2.7-3.9-3.2-6.8-.9s-5.8 2.5-6.6.4q-.6-1.4-2.2-.8t-3-1.2c-1-1.3-2.1-1.6-4.6-1.1-4.4.8-8.4-1.3-8.1-4.2q.3-2.3-1.6-2.2c-3.9 0-8.8-2.9-9.3-5.4l-.5-2.5 4.6 2.6 6.6 3.8c3.2 1.9 7.3 2.6 8.1 1.4.9-1.5-5.5-7.9-8-7.9-2.2 0-10.6-4.7-10.6-5.9 0-.5 4.2.9 9.3 3a65 65 0 0 0 11 3.9c3.3 0 1.2-2.5-3.9-4.5-7.1-2.9-15.6-8.4-14.8-9.6q.6-1 2.2.5a15 15 0 0 0 5.5 2.1c5.6 1.1 4.9-1.8-1-4-6.2-2.3-6.3-2.4-5.5-6.4.7-3.2 1.1-3.5 4.2-3.5 3.4-.1 3.5-.2 3.5-4.1 0-3.2-.5-4.2-2.2-5q-4.7-1.8.7-2.9c3.7-.7 3.9-2.3.5-3.6-3.5-1.3-3.1-3 .6-3q3.3.1 2.7-1.7c-.2-.9-1.4-2-2.8-2.4-2.4-.7-2.4-.7.8-1.4q6-1.3 0-3.9l-3.1-1.3 3.7-1.3c4.4-1.4 4.3-3.4-.2-3.8-3.7-.4-4.4-2.2-.8-2.2 2.4 0 5.3-2.5 3.9-3.3l-3.5-1.1c-3.9-.9-3.7-3.6.2-3.6q3 0 3-1.5-.2-1.5-3-2.2c-3-.5-4.2-2.3-1.7-2.3.7 0 2.2-.7 3.3-1.5 1.6-1.3 1.7-1.6.4-2.5-.8-.5-2.5-1-3.7-1-3.5 0-2.7-1.8 1-2.3l4.4-.5q1.1 0 1.8 6.5m9.5-3.2q-.2 1.4-2 1.5c-2 0-2.6-1.1-1.3-2.3 1.2-1.3 3.3-.7 3.3.8m91 2.7c0 .5-2.3 3-5 5.6-2.9 2.8-4.8 5.5-4.6 6.3s-.6 2.7-1.9 4.3c-2.2 2.8-2.6 2.9-4.9 1.6s-2.4-1.4-.8-2.6c2.3-1.7.8-2.9-3.6-2.9-2.8 0-3.6-.4-3.3-1.5.2-.8.5-2.6.6-4q0-2.6 2.6-2.8c1.3-.2 3-.9 3.7-1.4 1.4-1.2 3.8.4 4.7 3.3.4 1 1.2 1.9 2 1.9 1.9 0 2.7-3.3 1.5-6.4-.9-2.5-.8-2.6 1.4-2 1.8.4 2.7 0 3.6-1.6 1.1-2.1 1.2-2.1 2.5-.3q1.4 1.7 1.5 2.5m5-2.2q-.1.9-1.1 1-.8-.1-.4-1 .6-1 1.1-1 .4 0 .4 1m53 10.3c0 4.5.2 9.5.3 11.2q.2 3-1.2 2.7c-.7-.2-2.2.5-3.2 1.4-1.6 1.5-1.7 1.5-1.2-.5q.6-2 1.9-2.1c1.9 0 3-3 1.5-3.9-.6-.4-1.3-3.4-1.6-6.6-.3-3.3-.8-6.8-1.1-7.8-.8-2.5 1.4-5.1 3.2-3.6q1.2 1 1.4 9.2m-269.7 1.6a55 55 0 0 1 5.7 7.2c0 .4-1.5 1.2-3.2 1.9-10.7 4.2-14 7.5-16.3 16.2-1.9 7.4.8 12.8 5.6 11.3q2-.6 1.5.3c-.3.5.1 3.1.9 5.8q1.4 4.8.5 5.8-1 1.1-1 2.8c0 2.3-1.9 2.3-2.6 0l-1.5-3.5q-1-1.9.2-3.3c.9-1.1.8-1.8-.6-3.4-1-1.1-2.3-2-2.8-2s-2.1-1-3.4-2.2c-3.3-3.1-2.9-7.3 1.2-13.8 3.9-6 4.2-7 2-7-.8 0-3.3 2.8-5.5 6.2s-4 5.7-4 5c0-2.7 4.2-9.3 9-14 2.7-2.7 4.7-5.2 4.4-5.5-.4-.3-2-.3-3.8 0l-3.1.6 3-3.3 3-3.2-3.1.4c-2.4.3-3.1 0-3-1.1q0-1.5-1.9-1.6a8 8 0 0 1-3.3-.9q-1.4-.8-4.2 1.3l-2.9 2.1-3.6-2.1c-2-1.2-3.3-2.5-2.8-2.9a66 66 0 0 1 19.6-5.4c7.1-1.1 8.3-1.1 9.2.2zm237.6-3.4q3.5 6 4.8 1.5l.6-2.1 1.8 2c1.1 1.2 2.6 1.8 3.5 1.4 1.5-.5 3.3 1.1 3.4 2.9 0 .5-1.2.8-2.7.8-4 .1-10.4 3.2-15.2 7.5-2.9 2.6-5.6 7-9.6 15.3-9.1 18.9-15.7 23.8-24.2 17.9a12 12 0 0 1-3.3-2.8c0-.3 3-1.1 6.6-1.9 8.3-1.6 10.7-3.8 16.8-15.3 5.5-10.1 4.7-11.9-2.8-6.8a22 22 0 0 1-5.4 3.1c-.6 0-1.9 1.2-3.1 2.7-1.9 2.6-2.1 2.7-3.7 1.1-1.4-1.4-1.5-2-.5-3.2 1-1.1.9-1.9-.1-3.5-1.8-2.9 0-4 2.1-1.3 2 2.7 2.2 2.5 6-4.8q4.2-7.8 8.5-10.2c1.5-.8 2.5-.3 5.2 2.3 2.6 2.5 3.7 3 4.6 2.1s.8-1.6-.5-3c-1.8-1.9-2.3-4.2-.9-4.2.4 0 1.9 1.4 3.4 3.2q2.8 3.4 3.7 2.3 1.2-1-1.4-4.7c-2.8-4.2-3.1-5.8-1.1-5.8.8 0 2.3 1.6 3.5 3.5m-115.8-1c0 1.3-4.1 1.9-4.1.7s2-2.2 3.3-1.8q.8.3.8 1.1M215 387q0 .9-.4 1-.6-.1-1.1-1-.4-1 .4-1 1 0 1.1 1m-104 2.5c1 1.2.9 2-.4 4-.9 1.4-2.3 2.5-3.2 2.5-1.2 0-1.4-.7-.9-3.3 1.2-5.2 2.2-6 4.5-3.2m161 1.9c0 .6-1.1 1.1-2.5 1.3q-2.7.6-2.5-1.6c0-1.6.5-1.8 2.5-1.3 1.3.4 2.5 1.1 2.5 1.6m134-.4q-.1.9-1.1 1-.8-.1-.4-1 .6-1 1.1-1 .4 0 .4 1m-77.2 5.6q-.7.3-1.8-1.8-2-3.1.6-.6 1.6 1.6 1.2 2.4m28.9-1.7c1.4 2.3.5 3.5-1.4 2-1.4-1.2-1.8-3.9-.5-3.9.4 0 1.3.9 1.9 1.9m45.6 1.8c1.1.6-1.2 4.3-2.8 4.3-.7 0-1.7-.9-2-2q-.6-1.8-1.4-2c-1.6 0-3.1 2.8-2.5 4.4q1 3.2-2.8-.1c-2.7-2.4-2.3-3.1 3-4.6 4.2-1.3 6.1-1.3 8.5 0m39.4 1.5c2.4 2-2.2 3-9.9 2.3-7-.7-7.7-1.2-5.5-3.4 1.5-1.6 13.2-.8 15.4 1.1m-171.7-.8q0 .6-1 1.1-.9.4-1-.4.1-1 1-1.1 1 0 1 .4M123 400q0 .9-.9 1-1-.1-1.6-1-.4-1 .9-1 1.5 0 1.6 1m7 .2c0 .7-1.1 2.6-2.5 4.3l-2.5 3 1.1-3c1.5-4.4 3.9-7 3.9-4.3m87.8 1.2q.5 1.9-1.4 1.4t-2.2-2.2q-.5-1.9 1.4-1.4t2.2 2.2m170.2.9c0 1.2.7 3.3 1.6 4.5 2.6 3.8.5 4-2.6.2-2.1-2.6-2.6-3.9-1.9-5.2 1.3-2.5 2.9-2.2 2.9.5m20 .7c-.5 1-1 3.2-1 4.8 0 1.7-.9 3.7-2.4 5.1a16 16 0 0 0-3.5 6.7q-2 7.6-3.5-.1c-.6-2.8-.1-4.8 2.1-9.2a43 43 0 0 1 5.1-8c2.5-2.8 4.8-2.3 3.2.7m-258.2 1.7c-1.4 1.6-4 5.4-5.7 8.6-4.5 8-6 6.4-2.6-2.8 1.3-3.2 6.7-8.5 8.9-8.5 1.8 0 1.8.2-.6 2.7m181.2-1.2c3.2 1.6 4 3.5 1.5 3.5s-6.5-2.3-6.5-3.7c0-1.7 1.4-1.7 5 .2m-55.9.5q1.8 0 1.4 1c-1.1 1.7-6.5 1.2-6.5-.6q0-1.6 1.6-1c.9.3 2.5.6 3.5.6m167.7 1.2c.7.7 1.2 2 1.2 3 0 1.5-.9 1.8-4.7 2l-6.3-.1-4.3-.2c-2.4 0-2.6-.3-1.6-1.5.6-.8 2.1-1.4 3.3-1.4s3.1-.7 4.2-1.5c2.3-1.8 6.6-1.9 8.2-.3m-46.7 5.7a19 19 0 0 0-2.1 7.8c0 5.1 3.8 12.7 6.6 13.1 1.2.2 3 1.2 4 2.3s2.3 1.9 3 1.9c1.5 0 7.4 3.3 7.4 4.1 0 1.2-9.5 6.7-12.7 7.4-1.8.4-3.3.4-3.3.1s1.8-2.2 4-4.3c4.1-3.6 4.9-6.8 1.8-6.8-.9 0-2.6-.9-3.7-1.9-2-1.8-2.3-1.8-8.4-.2-5.3 1.4-9.7 1.4-9.7 0 0-.2 1.8-2.2 3.9-4.4 3.9-4.1 4.4-5.3 5.6-14 .6-4.7 4.5-12.4 5.2-10.3.2.6-.5 3-1.6 5.2m-229.3.1c1.5 0 1.4.3-.4 1.8a10 10 0 0 0-2.8 3.5c-.9 2.6-4.4 1.8-6.4-1.5-1.3-2.2-1.4-3.1-.4-5.2l1.2-2.6 3.5 2c2 1.1 4.3 2 5.3 2m222.2 7.4c0 1.3-.8 3.4-1.8 4.6l-1.7 2.1-2.4-2.5-2.4-2.5 2.7-1c3.2-1.3 3.2-1.6.1-5.3-4-4.8-2.9-6.2 1.5-1.8 2.4 2.4 4 4.9 4 6.4m-202.3-7.2c1.5 1.2 1.8 3.8.4 3.8q-.9-.1-2.2-1.6-1.2-1.5-3.7-.9c-2.4.6-4.1-.6-4.2-2.9 0-1.1 8 .2 9.7 1.6m23.3 1.9q-.2.8-2 .9c-1.9 0-2.7-2-1.3-3.3.7-.8 3.3 1.1 3.3 2.4m-9.2 1.9c2.3 3.4 2.9 6 1.3 6-.5 0-1.4-1.3-2.1-3s-1.8-3.5-2.6-4.1-1.4-1.6-1.4-2.1c0-1.8 2.5-.1 4.8 3.2m-50.7-.7q-1.4 1.4-.5-.6.6-1.6 1.2-1.2.4.6-.7 1.8m187.4-1.3q-.6.9-1.6 1-.8-.1-.9-1 .1-1 1.6-1 1.3 0 .9 1m105.3 2.7c-.2 1-1.4 2-2.7 2.1a13 13 0 0 0-4.6 1.8c-1.9 1.2-2.4 1.2-3.4 0s-.5-1.8 2.1-3.5c4.2-2.6 9.1-2.9 8.6-.4m-167.3 2c1 1.6 3.1 3.9 4.7 5.2 2.3 1.8 2.6 2.6 1.7 3.7-1.7 2-.3 4.4 2.6 4.4s3.3 1.7.8 3.5c-1.7 1.2-1.6 1.5.3 5.2 1.2 2.1 2.4 5.4 2.7 7.3l.7 3.5-2-2.4a100 100 0 0 1-12.5-24.3c-.7-2.9-1.7-6.1-2-7.1-1.1-2.7 1.1-2 3 1m-82.3-.3q1-.5.4.4c-1.1 1.8-2.6 1.4-2.5-.6q0-1.5.6-.4c.2.6 1 .9 1.5.6m-68.3 5.7c2.7 5 2.7 6.9.1 3.6a9 9 0 0 1-2-4.3c0-.9-.8-2.7-1.7-3.8q-2.4-2.6-.1-.8c.9.8 2.6 3.1 3.7 5.3m293.8-1.4c-1.1 1-3.7-1.2-3.7-3.1.1-2.1.1-2.1 2.1.3 1.1 1.3 1.8 2.6 1.6 2.8m-204.5-.4c1 1.6 1 3.7 0 3.7-2.3 0-6.2-2.7-6.2-4.4 0-1.5.5-1.7 2.7-1.1 1.5.3 3.1 1.2 3.5 1.8M311 420c0 1.3-4.1 2.2-8.1 1.7q-5-.5.8-.5c2.3-.1 4.5-.7 4.8-1.2.8-1.3 2.5-1.3 2.5 0m-145.1 2.9c.9 1.5.7 2-.9 2.4q-2.2.8-2-1.9c0-2.9 1.5-3.1 2.9-.5m149.4 2.6c.1.6-1.4 1.1-3.3 1.3l-3.5.2 2.5-1.5q4-2.2 4.3 0M441 425c0 1.4-3.9 3.2-5.6 2.6-1.9-.7-1.8-2.4.4-2.9 3.1-.8 5.2-.7 5.2.3m-356.6 4.6c-.2 6.7-.4 7.4-1.9 7.4-1.6 0-2.1-5.3-.9-9.8 1-3.6 2.9-1.9 2.8 2.4m334.6-1.1c0 3.9 0 3.9-3.5 2.3-2.9-1.3-3.2-3.3-.7-4.7 3.1-1.9 4.2-1.3 4.2 2.4m-231-.9c0 .8-1.9 1.3-2.4.6q-.4-.8.9-.9c1.3-.1 1.5.2 1.5.3m28.8 4.4q.6 1.3-2.9.5-5.8-1.2-4.5-3.4c.8-1.2 6.8 1.1 7.4 2.9m165.7-1.9c-1 1.5-2.5 1-1.9-.6q.7-1.3 1.5-.9.8.6.4 1.5m-215.5.5c0 1.7-2.2 1.4-2.8-.4q-.2-1.1 1.2-1.2 1.5.1 1.6 1.6m37.3 1.6c.6 2.1.2 3.6-.7 2.7-1-1.1-1.6-4.9-.8-4.9q.9.2 1.5 2.2m173.6-1.3q1.4.9.2 1.5c-1.3.8-3.1-.1-3.1-1.5q.1-1.7 2.9 0m-255.7 2.7c1 2.2.9 3.2-.9 6.5q-4 7.5 2.2 1.9l3.2-3.1 3.8 3.1a16 16 0 0 0 10 4.2c3.1.5 2.4 3.2-.8 3.6s-6.1 4.3-7.8 10.5c-1.3 4.9 1.1 11.6 5.3 15.2 2.9 2.5 4.9 2.4 7.9-.2 1.5-1.2 1.6-1.1 1.2 1-.3 1.4 0 2.8.6 3.1q1.1.7-.4 3.6c-1.7 3.2-2 8.7-.6 10.9q1 1.5-.5 3.5c-1.6 2.3-1.9 8.6-.4 8.6q1 0 1 1-.1.9-1.4 1c-1.9 0-4 2.6-2.6 3.5.5.3.7 1.7.4 3-.5 1.9 0 2.5 2.3 3.2 2.8 1 2.8 1 .5 1.7q-2.2.8-2 2.4c.3 1.3 1.4 1.7 5.1 1.6 5.7 0 6.2 1.2.8 2.1-4.3.7-6.7 2.7-5.6 4.5.7 1.1 3.7.9 11.6-.6q2.7-.5 3.2 1 .8 1.6-2.1 1.4c-1.5 0-4.9.8-7.5 1.7-5.5 2-6.1 4.6-1.2 5.6l3 .6-2.8 1.1q-2.8 1.2-2.5 3c.4 2 4.3 1.9 9.7-.4 1.9-.8 4.1-1.2 4.8-1 2 .8.4 3.3-2.5 3.9q-12.7 2.4-12.7 5.3c0 1.6.6 1.9 3.5 1.7 1.9-.2 5.4-.8 7.8-1.4 2.3-.7 4.6-.9 5-.5 1.3 1.4-3 3.5-8.4 4.2-2.9.3-5.9 1.2-6.5 2-1.4 1.7-.2 2.2 6.6 2.6l5 .3-4 .8-6.2 1.3c-2.5.5-3.1 2.9-1 3.7.8.3 4.2.2 7.6-.2 7.2-.9 8.1.9 1 2.2-8.1 1.4-8.9 1.7-8.9 3.3 0 1.4 1.1 1.6 7 1.2 9.5-.5 8.9 1.4-1.2 3.6-2.9.7-3.8 3-1.4 3.9.7.3 3.3.3 5.6 0 6-.8 4.9 1.7-1.6 3.8-7.1 2.3-6.6 4.5.9 4.1 5.1-.2 5.8 0 5.5 1.5q-.4 1.7-4.3 2.6c-6.7 1.4-6.9 1.5-5.5 3.2.8.9 3 1.5 5.6 1.5 6.5 0 5.3 1.7-1.8 2.7-4.6.6-6.3 1.2-6.3 2.3 0 1.2 1.4 1.5 6.5 1.6 3.5.1 6.6.6 6.8 1.2s-2.4 2-5.8 3.3c-6.5 2.3-7.8 3.5-6.2 5.1q1 1.1 4.9.1l5.2-1.4q1.3-.2 1.8 1.3c.3 1.3-.8 1.9-5.1 2.9-6.8 1.5-8.1 2.3-7.2 4.4q.5 1.8 3.2 1.1 2.3-.6 2 .3c-.4.5-2 1.2-3.6 1.6-6.2 1.4-4.3 4.9 2 3.9l5.3-1.1q1.5-.3 1.7.5c.2.8-3.4 1.9-7.5 3.1q-7.6 2.3-7.5 3.8c0 1.3.9 1.4 5.7.8 3.1-.4 6.3-.9 7.1-1.2q1.5-.6 1 1.2-.3 1.9-5.8 3.5-11.2 3.3-9.2 5.2 1 1 6.6-.2c5.9-1.2 7.8-.8 7 1.5-.3.8-3.5 1.8-7.7 2.6-11.3 1.9-13.1 4.9-3 4.9q9.9-.1-.3 2.3c-6 1.5-7 4.3-1.4 4 3.9-.3 3.8-.3-5.3 3.5-4.3 1.8-4.4 3.8-.1 3.5 2.8-.2 2.7-.1-.8 1.5-5 2.2-4.2 3.8 1.6 3.4l4.7-.3-4 3.7c-2.3 2-4.1 4.3-4.1 5 0 2.4 3.7 1.5 5.5-1.3 1.7-2.5 1.9-2.6 2.5-.8.4 1.1 1.9 2.2 3.3 2.5l2.6.5-2 5.5c-3.2 9.2-2.9 8.7-4.4 6.7-1.1-1.6-2.1-1.8-5.7-1.2-5.2.9-7 2.2-6.3 4.6.6 1.9-2 3.9-5.1 3.9q-2 .2-.4-1.5c1.8-2.2-.2-4.2-5.1-5-5.7-1-4.9-2.7.9-1.9 3.7.5 5.1.2 6.1-.9 1-1.3.9-1.7-.7-2.6-1.1-.6-3.8-1.3-6.1-1.7-5.8-.9-5.7-3.6.2-2.8 3.2.5 4.6.2 5.6-1 1.1-1.3.9-1.7-1.4-2.6-2.4-.9-2.5-1.1-1-2.6 1.9-2 1.1-3-3.3-4.1-3.2-.8-4.5-2.7-1.9-2.9 3.3-.3 3.7-.5 3.7-2q-.2-1.5-2-2.1c-2.4-.6-2.6-2.8-.4-3.7.9-.3 1.4-1.5 1.2-2.8q-.3-2.3 1.7-3.3c2.1-1.1 4.1-9.3 2.7-10.7-1.2-1.2-4.2.1-4.2 1.8s-3.6 3.7-5 2.9c-1.2-.7-.3-13.5 1.5-21 2.6-11.5 2.7-13.2.7-15.2-1-1-2.2-2.6-2.5-3.6-.8-2.2-3.5-1.9-5.1.5-.8 1.3-.5 2.4 1.2 4.8l2.3 3-2.1 8.4c-1.1 4.6-2 9.8-2 11.5q0 5-3 1.6c-1.1-1.3-1-1.8.4-2.8 2.1-1.5 1.6-7.5-.8-9.2-1.3-1-1.6-3.4-1.6-15.4 0-13.3.1-14.1 1.9-14.1 3.1 0 3.7-2.1 1.1-4.2l-2.3-1.9 2.1-1.5q4.4-2.8-.4-4.4-4.7-1.8 2.2-4c4.7-1.6 4.3-4.5-.6-4.5-3.3 0-3.5-.2-3.5-3.4q0-3.4 1.5-3.9 1.9-.8.2 1.1c-1.7 2-.8 3.7 1.9 3.7s3.7-3 1.4-4.3c-1.8-.9-1.8-1 0-2.3 2.3-1.7 1.3-4.9-1.3-3.9-3.9 1.5-3.3 5-5.2-30-.5-10.5-1-22.7-1-27.3 0-7.9-.1-8.3-2.5-9.2q-2.3-1-2.5-2.5-.2-1.6 2.5-.9c2 .5 2.5.2 2.5-1.3 0-1.6.5-1.9 3-1.5 2.3.3 3 0 3-1.2q-.1-1.5-1.2-1.7c-1.8-.2-2.1-.1-4 .6-1.3.5-1.9-.4-3.1-4.7-2.8-10-3.3-28.8-.8-28.8 1.6 0 3.8 13.3 2.8 16.7-.6 1.7-.6 4-.2 5 .5 1 .9 3.4.9 5.3.1 3.4.2 3.5 4.1 3.5q4.2 0 4-1.5c0-.8.4-2.1.9-2.8q1.6-2.4-2.6-2.7l-3-.4c-.4 0-.4-3-.1-6.6.4-4 .1-8.6-.7-11.9-1.1-4.8-1-5.6.8-9.2a33 33 0 0 1 5.9-7.4q8-7.4 5.5-11.1-1.2-1.9-.2-1.9c.6 0 1.6 1.2 2.2 2.6m313.1-.6c.5.4.7 3.1.5 6.1-.3 4.7-.6 5.4-2.6 5.7q-2.1.3-2-.9t-2.2-1.8c-2.5-.6-3.3-3.2-1.7-5.8q.7-1.2-1.5-2.4c-2.2-1.2-2.2-1.2-.3-2 2.2-.8 8.5-.1 9.8 1.1m-361.6 1.6c-.9.9-2.8-.6-2.1-1.8q.6-1 1.7.1 1 1 .4 1.7m35.8 6.1q3.8-.6 3.2.6t-2.8 1.5c-1.3.2-2.8.8-3.3 1.3-1.3 1.2-3.9 1.2-3.1 0q.3-1.1-1.3-2.8a10 10 0 0 1-2.5-4.2c-.5-2.2-.4-2.2 2.8.9 2.9 2.8 3.9 3.2 7 2.7m42.4-2.2q-1.5 1.2-3.4.5c-1.8-.6-1.7-.8 1-2.3 3.2-1.6 4.8-.5 2.4 1.8m202.4 6.5c2.9 2.5 6.6 5.2 8.2 5.9 4 1.8 1.8 2.5-2.6.9a49 49 0 0 1-10.9-9.3q-11.2-11.8 5.3 2.5m-136.5-5.1q.3 2-1.1 2.1c-2.8 0-4.7-1.2-4.7-3 0-2.8 5.4-2 5.8.9m156.8 1.6c-4.4 3.1-6.5 2-2.9-1.5 2.1-2.2 3.1-2.5 4.4-1.7 1.5.9 1.3 1.3-1.5 3.2m-303.4-1.8q1.6 1.6 1.8 2.5c0 1.1-4.9-2.4-5-3.5q.1-1.7 3.2 1m121.3.1q-.6.4-1.8-.7-1.4-1.5.6-.5 1.6.6 1.2 1.2m190.5.2q0 .9-.4 1-.5-.1-1.1-1-.4-1 .4-1 1 0 1.1 1m-176 4.7q0 1.2-1 1.3-.9-.2-1-2.8-.1-3 1-1.2a7 7 0 0 1 1 2.7m-17.4 1c-.7.7-2.6-.7-2.6-1.9q0-1 1.5.2 1.4 1.2 1.1 1.7m257.4 1.5 10.4 9.1c3.1 2.7 5.6 5.1 5.6 5.5s-10.8.7-24 .7-24-.3-24-.7c0-.9 5.7-2 11.7-2.2 2.7 0 4.7-.5 4.5-1.1-.3-1.2-12.1-.9-15.5.4q-2.3.8-4-.1c-1.3-.7-3.3-.1-7.7 2.3-3.3 1.8-6.4 2.9-6.8 2.5-1-1.1 4.8-5.6 8.1-6.3 1.5-.3 2.7-.9 2.7-1.4q0-2.3-7.2 1.6c-5.2 2.7-5.8 2.9-5.8 1.6 0-.8 10.6-8.1 11.9-8.1.3 0 2.6-1.4 5.1-3a32 32 0 0 1 5.2-3c.3 0 1.8 2 3.2 4.5l2.7 4.5h6.9c6 0 7.1-.3 8.4-2.2a10 10 0 0 0 1.6-4.9q0-3.7 1.8-3.9c.3 0 2.6 1.9 5.2 4.2m-375 1c0 1.5-1.7.8-4.1-1.9l-2.4-2.6 3.3 1.9c1.7 1 3.2 2.2 3.2 2.6m112.2.6c1.7 1.7-.1 3.2-3.2 2.5-3.7-.7-4 1.1-.7 3.8l2.2 1.8-2.7.1c-3.3 0-3.7 1.9-.7 2.7q2 .5 1.7 2.7c-.2 1.6-.9 2-3 1.8-3.2-.3-3.8 1.7-.8 2.5 2.4.6 2.7 4.1.4 5-.9.3-3-.1-4.7-.9-3.1-1.5-5.7-1.4-5.7.1 0 .5 2 1.6 4.5 2.5 4.4 1.7 6.4 4.3 2.6 3.3-1-.2-2.5-.1-3.2.4s-2.3.2-3.6-.6a9 9 0 0 0-3.8-1.5c-2.7 0-1.6 3 1.9 5.1 1.9 1.1 3.7 2.7 4 3.5.5 1.3.1 1.3-2.2-.2-4.4-2.9-8.2-6.1-8.2-6.9 0-.5 1.5-2.7 3.4-4.9 3.3-4.1 7-11.8 9.6-20.1l1.6-4.6c.5-.9 9.4.7 10.6 1.9m32.3.2q-.8 1.1-1.7.2-.9-1.1-.3-2.2.8-1.2 1.7-.2c.6.6.7 1.6.3 2.2m219 0c-.3.5-1.8 1-3.3 1q-3 .1-1.2-1c2-1.3 5.3-1.3 4.5 0m-368.1 2.1c2.8 2.2 3.5 4.9 1.2 4.9-1.3 0-5.6-4.9-5.6-6.4 0-1.2 1.8-.6 4.4 1.5m230.4 2.5c-1.3 1.3-1.9 1.4-3.7.2q-4.3-2.5.7-3c3.6-.5 5 .8 3 2.8M79 454c0 1.6-.4 3-1 3s-1-1.4-1-3 .5-3 1-3 1 1.3 1 3m115.8-1.8q2.5 2.7-.4 2.8c-2.3 0-1.1 2.4 1.5 2.8 3.5.5 12.3-2.8 12.8-4.9s2.3-1.5 2.3.9c-.1 2.7-6.8 6.3-12.7 6.9s-7 1.4-4.9 3.2q1.3 1.2 6.7.3c3-.4 6.8-.5 8.4-.2 2.9.5 2.7.6-2.4 2.3-2.9.9-6.6 1.7-8.2 1.7-2.7 0-4.7 1.5-3.6 2.7.3.3 3.7.5 7.4.5 6.5 0 6.6.4.9 2.2-1.5.5-1.6.9-.5 2.2 1 1.2 2.5 1.5 6.2 1.1 9.3-.8 3.1 1-7.3 2.2q-16.1 1.9-16 5.6 0 2.8 4.4 0 2.4-1.6 12.7-2.1l14.2-.8c6.8-.7 3.8 1.1-4.7 2.7a74 74 0 0 0-12.8 3.6c-2.4 1-7.1 2-10.6 2.3-5.2.4-6.5.1-7.9-1.4-1.4-1.6-1.5-2.5-.6-5.6 9.9-33.8 9.3-32.2 11.7-32.2 1.2 0 2.7.5 3.4 1.2m10.2-.7c0 1-5.2 2.5-6.3 1.8q-1-.6.9-1.4c2.3-.9 5.4-1.1 5.4-.4m10.7 3.7q-.5 1.1-.6-.6t.5-1.3q.5.6.1 1.9M164 457q-.1.9-1.1 1-.8-.1-.4-1 .6-1 1.1-1 .3 0 .4 1m-68 1q0 .9-.4 1-.6-.1-1.1-1-.4-1 .4-1 1 0 1.1 1m313 3.7c0 .8-7.3 5.3-8.4 5.3-1.7 0-.2-2.3 2.7-4 3.3-2 5.7-2.6 5.7-1.3M88.1 467q1 .3-1.4 1.6c-2.4 1.3-2.7 2-2.2 4.4.4 1.6.2 3.1-.5 3.5q-1.2.6.5 2.5c1.3 1.4 1.3 1.8.2 2.3q-1.4.6-1.4 5c-.1 3.6.3 4.7 2 5.5q2.3 1 .6 1.1c-3.4.2-4.7 5.1-1.3 5.1q2.9.1-.3 2.5c-2.6 1.9-.6 3.5 4.5 3.5 2.6 0 5.3.4 6.1.9q1.5.9-4.3.9c-4.1 0-6.2.4-7.4 1.6-1.5 1.5-1.5 1.8-.2 2.6.8.5 3.3 1 5.5 1.1 7.6.1 8.5 1.6 1.5 2.3-7.7.8-9.5 1.7-8.6 4.1.3 1 .1 2.4-.5 3.1-1.4 1.7-.3 3.4 2.4 3.5q2.5 0-2.1 2c-4.5 2-4.8 3.9-.6 3.9 3.1 0 3.1 1.4-.2 2.9-2.1.9-2.4 1.4-1.4 2.6.7.8 2.2 1.5 3.4 1.6q2.7-.1-.7 1.1-2.7 1-2.5 2.7c.3 1.3 1.4 1.5 5.5 1.3 7-.4 7.6 1.4.8 2.8q-8 1.7-6 3.8c.3.3 4.2.7 8.6.8 8.4.2 10.5-.9 7.9-4.1q-1.5-1.7.4-1.5c1.6 0 2.1 2.5 1 5.4-.5 1.2-2.1 1.6-6.6 1.6q-9.7 0-9.8 3.5 0 1.3.8 1.5l7.4.3c4 .1 7.2.7 8 1.5 1.1 1.2.1 1.3-6.2.8-7.9-.7-10.7.1-9.7 2.8q.7 1.5 3.9 1.6c4.1 0 12.5 2.5 11.2 3.3q-1 .5-2.4-.4a24 24 0 0 0-13 .1c-2.4 1.6 1.5 4 6.9 4.2l4.6.1-5.5.6c-4 .4-5.6 1-5.8 2.3s.8 1.8 5 2.5l5.3.9-5.7 1.7-5.6 1.7-.7 5.1c-.9 6.3-.1 6.9 7.6 6.6 4.4-.2 6.2.2 7.8 1.7 2.6 2.4 1.3 4.3-1.7 2.7-2.9-1.6-10.5-1.4-12.8.3-2.3 1.8-2.1 1.8 9.1 3.8 6.3 1.1 8.1 1.8 8.3 3.2q.6 2.1-1.4 1.1c-5.3-2.3-15.4-1.6-15.4 1q0 1.5 3.3 1.5l3.2.1-4 1.8c-4.6 2.1-4.1 2.4 5.9 4a45 45 0 0 1 7.1 1.3c.1.2.5 3.8.8 8.2l.6 7.8-3.2-.7c-3.4-.8-12.5-.7-13.9.1-1.4.9.2 2.4 2.4 2.4 1.2 0 4.9.5 8.4 1.1l6.2 1.1.4 4c.3 2.9-.2 4.8-1.5 6.5-1.6 2-1.8 3.4-1.3 8.4s.5 5.9-.9 5.9-1.4-.4-.4-2.1q2.1-4.4-5.8-5.6c-4.1-.5-7 1.3-6 3.9.2.7 0 2.1-.5 3.1-1.4 2.7 4.6 8.1 7.3 6.6 1.9-1 7.5-.2 6.4.9-.3.4-2 .5-3.8.4-1.8-.2-4.1.4-5.2 1.2-2 1.6-2 1.6-.1 3.1 1.1.8 3.2 1.5 4.8 1.5q2.8 0 2.8 1.4c0 2.2-3.9 2.4-9.9.4-3-1-6.9-1.8-8.7-1.8-4.4 0-11.8-3.3-13.8-6.1-1.8-2.7-2.1-11.3-.6-22.7.5-4 1.9-20.5 3-36.5 1.1-16.1 2.7-33.5 3.6-38.7s2.8-21.4 4.4-36c4.1-36.8 6.6-55 7.9-58.3.6-1.6 1.1-4.3 1.1-6.1q-.2-6.3 3.5-2.6c1.2 1.1 2.8 2 3.6 2m236.5 9.3c.9 2.1.7 2.4-2.1 3.3l-3.1 1 1.5-3.3c1.8-3.9 2.3-4 3.7-1M155 490c-3.2 2.5-4 2.5-4 0 0-1.6.7-2 3.3-2h3.2zm54 .4c0 .3-1.9 1.6-4.2 3q-4.2 2.5-5.8 1.6c-2.7-1.4-5.3 1.1-5.5 5.4s-1.5 6.2-1.5 2.3c0-2.5-.8-3.1-3.6-2.8-.8.1-1.7-5.4-1-6l20.9-3.8q.6 0 .7.3m-49.5 3.6q-.6.9-1.6 1-.8-.1-.9-1 .1-1 1.6-1 1.3 0 .9 1M70 505q-.2.9-1.5 1c-1.3.1-1.5-.5-1.5-1q.2-1 1.5-1c1.3 0 1.5.4 1.5 1m125 5.1q0 .8-1 .9-.9-.1-1-1.6.1-1.3 1-.9 1 .6 1 1.6m207.4 0q-.6.8-1.5.3t-.3-1.5q.6-.8 1.5-.3t.3 1.5M301.5 513c.4.6.2 1.7-.5 2.4-.6.8-.8 2.6-.4 4.1.5 2.2 1.1 2.6 3.1 2.1 2.1-.6 2.6-.1 4.3 4 2.1 4.8 1.9 7.1-.3 4a14 14 0 0 0-3.7-2.9c-1.4-.7-3.7-3.5-5.2-6.2-2.5-4.6-2.6-5.1-1.1-6.7q2.6-3.1 3.8-.8m-141.1.9c.3.4 1.7.6 3.1.3 2.9-.5 3.4 1.3.5 2.1-3.7.9-2.3 3.6 2.2 4.3 3.8.7 4 .8 2.2 2.1-1.5 1.1-1.7 1.7-.6 3.3a9 9 0 0 1 1.2 3.5c0 .8 1.2 1.8 2.6 2.1 2.4.6 2.5.8.9 1.7-1.8.9-1.8 1 0 2.3 2 1.5 2.2 1.2-3.1 2.9-1.3.4-1.4.8-.4 2 .7.8 2 1.5 2.9 1.6q1.7 0-.6.9c-2.5 1-3.1 2.9-1 3.1 2.6.2 9.3-.2 11-.7 3.3-1 1.9-3.4-2-3.5h-3.8l4.5-1.5 4.7-1.4-.4 3.7c-.7 5.1-2.4 6.6-8 7.3q-5 .5-4.8 2c0 1.2 1.2 1.5 5.8 1.3 6.7-.2 8 2 2 3.4q-3.6 1-3.8 2.3 0 1.5 3.8 1.8c2.9.3 3.7.7 3.7 2.3q.1 2-2.7 1.9c-4.3 0-7.3 1.1-7.3 2.6 0 1.6 4.2 2.9 7 2.1q1.8-.4 1.4.4c-.3.5-2.4.9-4.8.9-4.9 0-6.1.7-4.5 2.7.7.7 3.2 1.3 6 1.3 6.2 0 6.4 1.6.3 2.3q-7.5.8-5.9 3.7c.7 1.1 4.5 1 9.5-.1q1.4-.4 1.5 1.5c0 1.7-.9 2-6 2.4-6.3.4-8.2 1.3-7 3.2q.6 1.3 7.1.7l6.4-.5v2.7c0 2.6-.2 2.8-5.1 2.9-5.7.1-6.4.4-5.6 2.7.7 1.7 5.8 2 8.7.5 2.2-1.2 3.4.1 2.5 2.9q-.5 1.7-3.3 1.9c-4 .1-9.1 1.3-9.8 2.3-.3.5-.2 1.5.3 2.1s.6 2.1.5 3q-.2 1.7 1.2 1.8 1.5 0 1.6.9c0 .9-8 2.5-8.8 1.6-.3-.2-.7-18.6-1-40.7-.4-39.7-.4-40.4-2.7-45.6-1.8-3.9-2.9-5.2-4.5-5.2q-1.9 0-1.5-1.1c.4-.5-.1-1.9-1.1-3-1.6-1.8-1.6-1.9 0-1.9.9 0 1.9-.7 2.2-1.5.7-1.7 2-2 2.8-.6m326.4.3c.7.7 1.2 2.3 1.2 3.7a43 43 0 0 1-6.9 15.9c-1.4.5-.1-3.1 2.8-7.9 2.3-3.8 2.6-4.9 1.1-4.9-.6 0-1.5 1.1-2 2.4q-2.7 6.7-2.6-2.2c.1-7 3.1-10.3 6.4-7m-165.3 4c.3 2.4.9 5.1 1.2 6.1q.5 1.9-1.6 2.4a3 3 0 0 0-2.1 2.6q0 2.3-1.1 1c-1.1-1.3-.7-2.6.6-6.7 1-3 1.5-6.4 1.2-7.6q-.4-1.8.3-2c.5 0 1.1 1.9 1.5 4.2M188.8 517c1.2 1.2 2.2 2.9 2.2 4 0 1 .3 2.7.7 3.7s-1-.6-3-3.6a45 45 0 0 1-3.7-5.7c0-1 1.8-.2 3.8 1.6m9.4 1.2c-1.3 1.3-3.2.2-3.2-1.8 0-1.2.4-1.3 2.1-.3q2.1 1 1.1 2.1m114.8 1q0 5.5-1.4-.5-.5-2.5.4-2.7c.5 0 1 1.4 1 3.2m177.1 6.7c-2.2 9-2.4 9.6-4 8.7-.6-.4 0-3.5 1.6-8.4l3.1-9.2q.4-1.2.8-.4c.3.6-.4 4.8-1.5 9.3M477 518q0 .9-1 1a1 1 0 0 1-1-1q.1-1 1-1t1 1m-.9 6.3c-1.3 1.3-2.6.3-1.6-1.2q.6-1 1.7-.5 1 .6-.1 1.7M177 527q1.9 1.1-1.2 1c-1.6 0-2.8-.5-2.8-1 0-1.3 2-1.3 4 0m153.9.4c1 1.1.9 2.4-.2 5.8-1.7 4.7-1.4 5-3.2-3.6-.7-3.5 1.2-4.8 3.4-2.2m91.2-.4c2.2 1.3 2.4 2 .6 4.4q-1.3 1.7-3 1c-2.1-.8-2.2-2.4-.2-2.4s1.9-1.7-.2-2.9c-2.4-1.4.2-1.4 2.8-.1m-186 4.7c-1.1 2.1-2 3.5-2.1 3.1 0-1.2 3.3-7.8 3.8-7.4.2.2-.6 2.1-1.7 4.3m-142.2-2.1c2.8.6 3.1 1 3.1 4.5 0 2.2-.4 3.9-1 3.9q-.8-.2-.3-1.5c.7-1.9-2.1-4.1-5.9-4.9-1.6-.3-2.8-1-2.8-1.6q0-1.7 6.9-.4m134.6 3.7c-1.3 3.2-3.5 5.1-3.5 3 0-.9 4.4-7.3 4.7-6.9.2.2-.4 1.9-1.2 3.9m227.6-1.6c.2 12.1-.2 64.3-.5 66.1-.3 1.2-.8 11.3-1.1 22.5s-1 20.6-1.5 21c-.4.5-2 .7-3.6.5l-2.9-.3V606c0-32.5.5-49.3 1.6-52.9.8-2.8-2-2.1-3.6.9-1.3 2.5-1.6 6.4-1.4 22.3l-.1 48.4-.1 29.3 2.5 2.3c1.4 1.4 2.6 2.8 2.6 3.3s-1.6 2-3.6 3.3c-3.3 2.3-3.8 2.4-6.7 1.1s-7.6-1.5-15.7-.8c-2.9.2-3.5 0-3.5-1.6q0-1.8 4.2-3.5c6.2-2.4 8.4-4.8 8.2-9-.1-2 .2-10.4.6-18.6s.9-22.4 1-31.5c.5-43.4.2-39.6 3.2-42.4 2.5-2.4 2.7-2.8 1.5-5.8-1.5-4.1.3-6.7 3.6-4.9 1.1.6 2.8.8 3.6.5s2.3 0 3.2.7c1.2 1 1.8.9 3.1-.3 1.3-1.3 1.3-2.1.3-5.1-1.2-3-1.1-4 .9-8.1q4-7.8 4.2-1.9m-273.4.8q.5 1.5-.1 2.2c-.7.7-3.6-1.6-3.6-2.8 0-1.5 3-1 3.7.6m291.3-1c0 .3-.7 1.7-1.6 3-1.5 2.3-1.8 2.3-3.7 1a9 9 0 0 0-3.9-1.5c-1.8 0-2.4-1.1-1.1-2.3.8-.8 10.3-.9 10.3-.2m-151.8 7.3c-.7.2-1.9 1-2.6 1.8-2.1 2-3.1-1.4-1.1-3.6.9-1 1.3-2.5.9-3.6q-.3-1.4 1.7 1.5 2.4 3.5 1.1 3.9m-162.8-1.7c-.2.4-1.3.7-2.4.6-1.8-.1-1.8-.2-.3-1.9q1.7-2 2.4-.6.7 1.2.3 1.9m33.3-2.5q-.6.5-1.9.1-1.1-.5.6-.6t1.3.5m210.8 1.3q.4.9-.5 1.6-.9.4-1-.9 0-2.7 1.5-.7m25.1 3.1 1.4 3.1c0 1.4-6.2 3.5-9 3.1-4.2-.6-3.8-2 .7-2.4 4.9-.4 5.3-2.4.6-3.3-7.1-1.3-6.6-3.2.8-3 3.3.1 4.4.6 5.5 2.5m14.9 1c0 3.4-3.9 3.9-7.1.9q-4.7-4.3 2.9-3.7c3.7.3 4.2.6 4.2 2.8m51.5-1.3a35 35 0 0 1-11 11.1q-1.4-.3 2.3-4.5a18 18 0 0 0 3.7-5.1c0-1.1 1.6-2 3.8-2.1q1 0 1.2.6m-12 1.1c0 1.2-3.9 4.7-4.5 4.1-1.1-1.2.9-4.9 2.6-4.9q1.8.1 1.9.8m-79 6.8c0 4.5-2.4 4.2-2.8-.4q-.4-3.4 1.2-3.2 1.7-.2 1.6 3.6m23.3 4.2c4.2 3.8-.8 10.3-6.7 8.8-3.8-.9-2.7-3 1.9-3.6 4.1-.5 5-1.6 3.5-4-.8-1.2-1.4-1.3-4.2-.2-4.1 1.5-6.4-.1-3.3-2.4 2.3-1.7 6-1.1 8.8 1.4m63.7-1.4q0 .5-1 1.1-.9.4-1-.4.1-1 1-1.1 1 0 1 .4m-23 2q0 .5-1 1.1-.9.4-1-.4.1-1 1-1.1 1 0 1 .4m-270.3 3.8q-.5 1-.5-1.2c0-2.2.2-1.9.5-1.3.2.7.2 1.9 0 2.5m-6.7-.2q0 .9-1 1a1 1 0 0 1-1-1q.1-1 1-1t1 1m29 0q-.1.9-1.5 1c-1.4.1-1.5-.5-1.5-1q.1-1 1.5-1c1.4 0 1.5.4 1.5 1m9.4.6q.5 1.5-.6 1.2c-1.5-.5-2.3-2.8-1-2.8.5 0 1.3.7 1.6 1.6m267.6.8q0 .5-1 1.1-.9.4-1-.4.1-1 1-1.1 1 0 1 .4m-13.5 7.5c-2.8 4.1-7.5 7.9-7.5 6.2 0-1.2 9.3-11.1 9.9-10.5.2.2-.8 2.2-2.4 4.3m-291.5.5c0 2.5-.5 4.8-1.2 5.2q-1 .8-.5-.9c.3-.8-.1-2.1-.9-2.7-2.6-2.2-1.5-5.6 1.9-5.9.4-.1.7 1.9.7 4.3m-89 6.9q0 9.3-1 7.7c-1.1-1.8-.9-18.1.2-17.4.4.3.8 4.7.8 9.7m117-9.4q-.1 1-1 1.6c-1.9 1.2.8 3.3 3.5 2.7q2.4-.3 2.5.7c0 .6-1.3 1.1-2.9 1.1s-3.6.3-4.5.6c-1.3.5-1.6-.1-1.6-2.8 0-1.9.3-3.8.7-4.1 1-1 3.3-.8 3.3.2m277 1.2q-.1.8-1.5.9t-.9-1.5c.6-1.5 2.4-1.1 2.4.6m-68 28.1q0 27.6-1.1 28.3-1 .8.4 1.8c1.2 1 1.3 2.5.6 8-.4 3.7-1.1 7.2-1.3 7.6-.7 1-5.4.2-6.2-1-1-1.6-2.4-.9-2.4 1.2q0 2-1.7 1.7c-2.2-.4-3-7.2-1.2-9.4.9-1.1.8-1.9-.7-3.5-1.8-2-1.8-2.1.1-3.5a6 6 0 0 1 4.3-.9c1.2.3 2.2.1 2.2-.5s-1.4-1-3-1c-3.4 0-4.9-2.2-3-4.5.6-.8.9-2.3.5-3.5-.7-2.2.3-2.9 5.1-3.4 4.1-.5 4.1-.5 2.4-1.6-.8-.5-2.7-1-4.2-1q-2.7 0-2.8-1.4c0-1.4 2.9-2.6 6.8-2.6 1.2 0 2.2-.5 2.2-1s-2-1-4.5-1q-4.6 0-4.5-1.4.2-2.5 5.6-2.6 2.2 0 1.9-1c-.3-.6-2.2-1-4.1-1-3.4 0-4.6-1.6-1.9-2.6 1.2-.5 1-1-.8-2.4q-4.3-3.6 4.1-4.2c5.8-.4 5.8-2.2 0-2.6-5.5-.4-6.6-2.6-1.8-3.7 4.2-.9 4.2-4-.1-3.1q-3.1.6-2.7-.7c.3-.6 2-1.5 3.9-1.8l3.4-.5-3.8-.8c-4.3-1-4.4-2.8-.1-3.7q4.3-.9.3-.8c-2.6-.1-5.4-2.3-4.4-3.3a26 26 0 0 1 6.5-.4l6 .1zm36.4-24.3c-1.8 3-4.4 4.2-4.4 2.1 0-1.4 5-6.4 5.7-5.7.3.3-.3 1.9-1.3 3.6m31.4 5.2c-.2 5.9-2.5 7.1-3 1.7-.5-4.3.6-7.3 2.3-6.2.5.3.8 2.3.7 4.5m-265.1 1.6q-.5 1.3-.5-1.7c0-3 .2-2.7.5-1.8s.2 2.6 0 3.5m-9.6-1.7c1.6 0 2.9.4 2.9 1s-1.5 1-3.4 1q-6 .2-3.6 3.5 1.6 1.7-.9 1.5-2.3.1-2.1-2.4c0-3.7 1.1-5.8 2.7-5.2.8.3 2.8.6 4.4.6m-119.4 20c.2 6.1-.1 10-.7 10-1.1 0-1.4-18.3-.3-19.3l.7-.7zm-5.7-6.8q0 2.6-.9.8-.8-1.4-.5-2.2 1.4-2 1.4 1.4m128-1.2c0 .5-1.9.9-4.2.9-4-.1-4.1-.2-1.3-.9 4.4-1.1 5.5-1.1 5.5 0m-28.6 12.4c-.6 1.6-6.2 2.7-7 1.4-1-1.6.8-2.8 4.1-2.8q3.6 0 2.9 1.4m-141 2.6c4.8 1.8 3 3.1-3.1 2.5-6.8-.8-9.2 0-18.2 5.9-7.1 4.7-11.1 6.4-11.1 4.7q0-1 .9-1.1 1.2-.3 1.3-2.7c.4-3.2 6.6-8 11.9-9.3a49 49 0 0 1 18.3 0m140.1 5c-.3.5-1.1 1-1.6 1q-.9-.1-.4-1a2 2 0 0 1 1.6-1q.9 0 .4 1m-141.2.6c4.6.8 4.9 2.4.5 2.5-5.3.1-13.2 3.3-14.3 5.7q-1 2.2-2.8 1.6c-1-.3-2.6.1-3.6 1-2.6 2.4-14 4.6-16.6 3.3-1.7-.9-1.4-1.2 3-2.2 5.1-1.2 8.9-3 18.5-9.1 5.5-3.4 8.2-3.9 15.3-2.8m128.4 14.1-1.1 13.3h-2.7c-2.6 0-5.4 2.1-4.3 3.3.3.3.1 1.4-.5 2.5-1.5 2.7.9 4.6 4.7 3.7 2.7-.6 3-.4 3.5 2.7.6 4.4.3 4.8-4.7 4.8q-7 .1-4.5-2.6c1.4-1.8-1.6-6.2-4.8-7-3.4-.9-5.4 1.3-3 3.1 1.6 1.2 1.5 1.4-1.3 2.3-1.6.6-3 .9-3 .6l1.1-4.8c1-4.2 1.2-4.3 4.9-4.2 4.4.1 5.5-.6 4.7-2.9q-.7-1.5-4.3-1.5c-3.7 0-3.7 0-3.1-3.6.8-4.6 1-4.8 4.4-3.6q3.4 1.2.7 1.1c-2.9.1-4.9 2.5-3.2 3.9s7.4.4 8.9-1.5q1.6-1.5-.9-2-4.1-.9-.1-3.1c3.2-2.1.8-4.1-4.1-3.5q-4 .6-4-.6c0-.6 1.6-1.1 3.5-1.1 2 0 5.3-.9 7.4-2 3-1.5 3.9-2.5 3.9-4.5q0-2.7-2.1-3.4c-2-.8-2-.9.8-2.4 1.7-.8 3.3-1.2 3.7-.9.4.4.2 6.7-.5 13.9M463 607.9q-.1.9-1.6 1.5c-2.2.9-2.4.8-2.4-.9q.2-1.3 2-1.5c1.8-.2 2 .4 2 .9M97 609q0 .9-1 1a1 1 0 0 1-1-1q.1-1 1-1t1 1m-40.5 1q2.4.9-2.5.9c-4.9 0-4-.3-2.5-.9l2.5-.9c.3 0 1.4.4 2.5.9m46 1q.4.9-.4 1-1-.1-1.1-1 0-1 .4-1 .6 0 1.1 1M58 617.5c1.5 1.7 1.3 1.8-7.5 3.6-5.4 1-6.5 1.7-11.3 6.8l-7.9 8.4q-2.7 2.9-1.6 3.8 2.7 3 9.6-6.1c5.3-6.8 8.1-8.9 13.1-9.7 4.3-.7 7.3 1.1 5.5 3.3-.6.8-2.1 1.4-3.3 1.4s-3.3.8-4.7 1.8A72 72 0 0 0 36 643.9c0 .6 1.2 1.1 2.7 1.1 1.9 0 4.2-1.6 8.5-6 6.2-6.5 9.8-7.8 9.8-3.6q.2 2.5-2.7 3.1c-3.3.8-7.3 4.2-7.3 6.2 0 .8-1.6 2.1-3.5 2.9S40 649.5 40 650q-.1 2.9-6.4-2.8c-2.2-2-5.4-4.7-7.1-5.9l-3-2.2 3.7-3.4c2-1.9 4.5-5.2 5.6-7.3 2.2-4.4 5-7.2 10.2-10.3 4.3-2.5 13.1-2.9 15-.6m44.9 23.2c.1 8.4-.2 15.3-.6 15.3-.5 0-.9-9.1-1-20.3 0-11.9.2-18.2.7-15.2.4 2.7.8 11.9.9 20.2M32 620.8c0 1.7-3.9 4.4-5.5 3.9-2.5-1-1.7-3.5 1.3-4l3.5-.6q.6 0 .7.7M181 636q-.1.9-1.1 1-.8-.1-.4-1 .6-1 1.1-1 .3 0 .4 1m244.7 5.6c.3 1-6.6 2.8-7.4 2q-.2-.5 1.3-2c1.8-1.8 5.5-1.8 6.1 0m-237.2.3q.4.9-.5 1.6-.9.4-1-.9 0-2.7 1.5-.7m-131.7 3.8a6 6 0 0 1-2.9 4.2l-6 3.8c-4 2.7-5.2 2.8-6.9.8-1-1.2-.9-1.6.6-2.1 6.4-2.3 8.4-3.5 10-6.3 2.4-4 5.7-4.2 5.2-.4m53.9 4q-.5 1.4-.5-1.2t.5-1.8c.2.7.2 2.1 0 3m315.3-1.6c0 1.2-3.7 1.2-4.4 0s1.4-2 3.2-1.3q1 .4 1.2 1.3m27-1.1q1.3.9.8 1.5c-.9.9-4.8-.4-4.8-1.6s2.1-1.1 4 .1m-280.3 5.6c6.7.1 8.8.4 8.8 1.5 0 1.9-9.2 3.6-11.7 2-2.7-1.7-5-1.4-4.6.6.4 2.1 3.6 3.1 10.6 3.2 2.8.1 5.2.5 5.2 1 0 .8-1.7 1.4-9 2.9-2.7.6-3.5 1.2-3.3 2.9s-.3 2-3.6 2c-3.7 0-3.8 0-3.7-4.1.1-3.4-.2-4.1-1.9-4.1-1.5 0-2.3 1.1-3.2 4.6-1.3 4.4-1.5 4.6-3.7 3.6-2.8-1.4-2.4-4.1 1.1-6.4q2.6-1.6 1.9-3.8c-.4-1.7 0-2.5 1.9-3.3q2.4-1.1 3.1-4.9l.7-3.8 1.3 3 1.2 3zm295.8-1.6q2.4.8.5 1.3a27 27 0 0 1-10.2 2.1c-1.2-.8-1-3.2.5-3.7 1.9-.8 7-.7 9.2.3m-446.7 2.6q4.6 3.3-.8 3.4-2.9 0-3.9-1.9c-1.8-3.3.9-4.2 4.7-1.5m402-.4c-.5 1.5-5.8 2.4-5.8 1q0-2.2 3.8-2.2 2.2 0 2 1.2m28.3-.2c1 .6 1.9 1.7 1.9 2.5 0 1.9-.5 1.9-3.5-.1-4.1-2.7-2.7-4.7 1.6-2.4M55 656c0 2-2.5 3.8-3.7 2.6-.5-.5 2.4-4.6 3.4-4.6q.2.2.3 2m417 .8c0 .5-2.6 1.6-5.7 2.6-3.2.9-6.4 1.9-7 2.2q-1.2.4-1.3-1c-.1-1.4 1-1.8 2.3-2.1 11.4-2.7 11.7-2.7 11.7-1.7m-69.3 4.8q-.7.5-1.9.1t.6-.6q1.8 0 1.3.5M109 664q0 .9-.4 1-.6-.1-1.1-1-.4-1 .4-1 1 0 1.1 1m344.8 2.1q.2 1.7-3.4 3.8c-3 1.8-4.2 2-6.1 1.2-3-1.4-2.9-2.5.4-5.1s8.6-2.4 9.1.1m-351.5.2c.3.8.1 2-.4 2.8q-.9 1.6-.9-1.4 0-4.5 1.3-1.4m335.2 4.2c5.6 5.8 7.6 6.5 11.3 3.9 2.5-1.7 3.7-1.3 4.5 1.6.9 3.6-8.9 8.1-10.8 5-.3-.6-1.9-1-3.6-1q-2.9 0-5.2-2.7c-7.2-8.6-7-8.5-9.9-7.4q-2.8 1-3.4-.1t.2-1.5l3.4-1.7c5.1-2.8 7.9-2 13.5 3.9M179 667.9c0 2-1.3 4.2-3.1 5.2s-1.9.7-1.3-1.8l1.1-3.6c.6-1 3.3-.9 3.3.2m-118.4 4.2c1.3 1.3 1 1.5-1.9 1.1q-3.4-.3-4.6 1.2c-1.7 2-3.2 2-7.5-.1q-7.5-3.7 5.3-3.7 7.2 0 8.7 1.5m48.4.8c1.4 2.7 1.3 3.1-1 3.1q-2.1.1-2-2.5c0-3 1.5-3.3 3-.6m44.1 1.4c-1.6 1.6-2.6 0-1-1.9q1.4-1.6 1.7-.4c.2.6-.1 1.7-.7 2.3m9.3-1.4q.4.9-.9 2.1c-1.3 1-1.5.9-1.5-.9 0-2.1 1.4-2.8 2.4-1.2m265.7 4.3c2.9 4.1 4.9 5.7 7.1 5.8 1 0 3.3.8 5.2 1.7 3.3 1.5 3.8 1.5 7.6-.2 3.2-1.4 4.3-1.6 5.3-.6q1.3 1 .1 2.9c-.9 1.3-2.9 1.8-9.4 2l-8.3.3-2.8-3.4a21 21 0 0 0-6.9-5.1c-3.2-1.3-4-2.1-4-4.1 0-3.6 3.3-3.2 6.1.7m-348.3.7c.8.5 1.2 1.7 1 2.7-.3 1.7-1.1 1.9-6.7 1.5-6.1-.3-6.3-.2-5.9 2q.2 2.5 3.6 3.4c3.5 1 3.9 2.1 1.9 4.9-1.2 1.6-1.8 1.1-7.5-5a46 46 0 0 1-6.2-7.6c0-.4 2.4-.6 5.3-.2 3.9.4 5.7.2 7.2-1 2.2-1.7 5.3-2 7.3-.7m83.8 2.6c1.7 1.9 2.6 3.5 1.9 3.5-2 0-3.6 2.5-2.4 3.7q1.3 1-2.6 2.3c-2 .7-3.9 1-4.2.7s.2-2.7 1.1-5.3 1.6-5.6 1.6-6.6c0-2.6.9-2.3 4.6 1.7m9.4-1.5q0 .9-.4 1-.5-.1-1.1-1-.4-1 .4-1 1 0 1.1 1m-65 3q0 .9-1 1a1 1 0 0 1-1-1q.1-1 1-1t1 1m-17 5.5a52 52 0 0 1-9.1 11.9l-2-.3c-.6 0-.1-1 1.2-2 2.1-1.7 2.2-2.2 1.1-4.1s-1.1-2.1 1.5-1.8c2.1.2 3-.3 3.8-2 .8-1.8 3.5-3.2 3.5-1.7m9.8.7q-.6 1.2-1.8 1.3c-1.2.1-1.5-.6-1.7-1.3q-.3-1.1 1.7-1.2t1.8 1.2m327.8 2-.5 3.7q-.2.2-1.5-.8c-1.6-1.4-.9-6.1 1-6.1q1.5 0 1 3.2M92 699.1l-2.2 4.2 2.1 1.7q2.3 1.6 1.5 3.3c-.3 1-.1 2.4.6 3.2 1.1 1.3.8 1.5-1.4 1.5a14 14 0 0 0-5.7 1.6c-3.7 1.9-5.2.9-2.2-1.4 1.6-1.3 2.2-3.1 2.5-7.4s1.2-6.6 3.3-9.4c3.5-4.6 4.4-3 1.5 2.7m75.4-5.2c1 1.6-3.9 5-8.1 5.7-6.4 1-9.5 5.7-6.8 10.4l3 5.7c2.4 5 7.1 6.6 18 5.9 9.6-.6 11.5 0 21.5 6.3 3 1.9 4.5 2.1 11 1.8a214 214 0 0 0 41.2-6.3q4.1-1.3.9 7.2c-1.2 3-2.1 7-2.1 8.8a48 48 0 0 0 5.5 17.2c.8 1.3 1.1 2.5.7 2.7-.8.6-16.7.8-58.7.9-38 .2-35.7.2-44.5-.7-4.1-.4-20.1-.8-35.5-1q-47-.6-50.8-2.1c-2.5-.9-2.1-2.1 2.4-8.1l4.1-5.3h12.4c6.8 0 12.4-.4 12.4-.9a33 33 0 0 0-9.9-1.4c-5.5-.3-10.5-.8-11.1-1.2-2.4-1.5.6-2.5 7.6-2.5 8.7 0 9.8-1.6 1.9-2.5-7.3-1-6.9-3.1.5-2.6 4.1.2 5.1 0 4.8-1q-.6-1.4-2.9-1.7c-4.4-.6-4.5-2.2-.1-2.2q7-.2 2.1-3.1l-2.1-1.1 2.2-2.3c1.2-1.3 3.9-2.7 6-3q3.9-.6 9.2-5.6t9-5.5c2-.4 4.5-1.5 5.4-2.5 2-2.2 3.5-2.3 8.1-.7 2.8 1 3.8.9 7.8-1.1a88 88 0 0 1 21.5-6.6c1.9-.3 5.1-.8 7-1.4 4.7-1.2 5.8-1.3 6.4-.2m-125.1 2.7a47 47 0 0 1 9.1 6.2c4 3.5 15.2 9.2 18.3 9.2 4 0 4.6 1.5 2.4 5.6a17 17 0 0 0-2.1 5.1c0 2.4-4.5 1.3-10-2.5a29 29 0 0 1-8.7-9.4 27 27 0 0 0-6.5-7.6 44 44 0 0 0-22.3-3.9q-11 1-2.7-2.6a26 26 0 0 1 22.5-.1m69.5 1.2c.3 2.8 0 3.2-2.1 3.2-2.3 0-2.4-.2-1.3-3.5 1.3-4.2 3-4 3.4.3m344.2 3.7c-1.1 1.3-.9 1.5 1.3 1.5 2.9 0 10.7 9.9 24.9 31.5a214 214 0 0 0 12.6 17.7c3.4 4 3.9 5.2 3.3 7.5-.7 2.6-1.1 2.8-5.7 2.7-12-.3-29.5-1.8-30-2.6-.3-.5-.3-1.6 0-2.5.6-1.4.9-1.4 2.6.2 1.9 1.7 2.1 1.7 3.8.2q1.8-1.7 7.1-1.7 9.1 0 9.1-4-.2-3.8-7.7-4.1-3.7-.1-1.5-.6c4.3-.8 1.7-2.7-3.2-2.4-3.7.2-4.7-.1-4.4-1.1.3-.8 2.1-1.3 4.6-1.3 4.2 0 5.9-1.7 2.2-2.3a5 5 0 0 1-3-2.3q-1.1-1.8-4.3-2l-3.2-.1 3.2-.9c1.8-.5 3.7-1.8 4.3-2.9.8-1.6.6-2.2-1.4-3.5-1.4-.9-3.9-1.5-5.8-1.3-3 .3-3.4.7-4.4 4.8-.9 3.9-1.4 4.5-4 4.8q-6.6.8-2.5 4.3c1.3 1 3.3 1.9 4.4 1.9 2.8 0 1 1.7-2.3 2.2-4 .5-3.7 3.4.5 4.8 4 1.3 3.8 3-.5 3q-6 0-6 2.7-.2 1.7 2.8.9c5.8-1.5 6.7-1.2 7 1.6l.3 2.8-10.8.2-17.8.4c-42 .9-76.5.6-77.9-.5-1.2-1-8.1-1.2-31.2-1-25.6.4-29.8.2-30.4-1.1-4.2-8.7-8.6-34.9-6.1-36.4.5-.3 3.7.3 7.2 1.5 8.1 2.6 31.7 3 56 1 9.1-.8 18.8-1.1 21.5-.8a92 92 0 0 1 17.8 3.6c1.7.7 6.8 1.6 11.5 2.1s12.2 1.6 16.6 2.4c11.1 2.1 12.4 2 13.4-.7.8-1.8.2-2.9-3.2-6.5-2.3-2.4-6-5.3-8.2-6.4a34 34 0 0 1-6.7-4.5c-2.3-2.2-2.5-2.9-1.6-4.9.6-1.4 2.3-2.6 4.2-3 1.6-.4 4.3-2.1 6-3.8l2.9-3.1 12.6.2c6.9.1 14.2-.2 16.1-.6 4.1-.9 5.9.1 4 2.4m-181.7 2.6c.7.1-.6.5-2.8.9s-4.4.5-5 .2c-1.2-.8 3.5-2.2 5.3-1.6q1.4.4 2.5.5m118.5 4.4.3 3-2-2.5q-3.7-4.5-.3-3.8 1.7.4 2 3.3M271 712.4c0 1.5-1.8 3.1-2.6 2.3-.7-.7.7-3.7 1.7-3.7q.8.1.9 1.4m128 1.6q0 .9-1 1a1 1 0 0 1-1-1q.1-1 1-1t1 1m-5.5 3q-.8 1.1-1.7.2-.9-1.1-.3-2.2.8-1.1 1.7-.2.9 1.1.3 2.2m-314 1.1q-.7.8-2.2.9-1.9.2-.3-1.5c1.3-1.5 3.5-1.1 2.5.6m326-.1q-.6.9-1.6 1-.8-.1-.9-1 .1-1 1.6-1 1.3 0 .9 1m-6.5 3.2c0 1-4.4 1-5.3.1q-.5-.6 1.6-1.8 3.4-1.6 3.7 1.7m-129.2.7q.4 1.3-.9.9-1.2-.5-1.7-1.7-.4-1.3.9-.9 1.2.5 1.7 1.7m-55 1.3c-.2 1.9-1 2.3-4.3 2.6l-4 .2 3.3-1.5c1.7-.7 3.2-1.9 3.2-2.5q.1-.9 1.1-1 1 .2.7 2.2m191.7-.2q.4 1-1 1.6c-1.9.8-3 0-2-1.5.8-1.4 2.2-1.4 3-.1m12.5 2c0 2.2-1.6 3.5-2.5 2-.9-1.4.4-5.2 1.6-4.5.5.4.9 1.5.9 2.5m-153.8.1a5 5 0 0 0 3.8 2.3c1.3 0 2.5.6 2.7 1.2.5 1.6-4.3.5-5.8-1.2-.6-.8-2-1.4-3-1.4-1.9 0-2.5-1.1-1.2-2.3q1.5-1.9 3.5 1.4m15.2.5c1.1 2.8.6 5.2-1 5.8q-4.6 1.7-1.8-1.5c1.8-2 1.8-2.2.2-3.3q-1.6-1.3-1.1-1.9c1.2-1.2 3.1-.7 3.7.9m145.6 3c0 1.6-2.6 1.9-3.5.4q-.5-1 0-2c.8-1.3 3.5-.1 3.5 1.6m-167.4 2.3a3 3 0 0 1-2.2 1.1c-1.2 0-1.3-.4-.3-2.1q1-2.1 2.1-1.1.9 1 .4 2.1m208.9.1q-.6.9-1.6 1-.8-.1-.9-1 .1-1 1.6-1 1.3 0 .9 1m-193.8 2.9a7 7 0 0 0 4 2.4q3.7.4-.7.6c-3.7.1-6-1.3-6-3.6 0-1.9 1.3-1.6 2.7.6m-13.3 1.6c-.7 1.6-2.4 2.1-2.4.6q-.2-1 2.7-2 .2 0-.3 1.4m19.4 4.7c1.9 1.9 1.5 2.3-2.8 2.3q-6.7 0-1.7-2.3c2.9-1.4 3.1-1.4 4.5 0m-250.3.8q.4.9-.4 1-1-.1-1.1-1 0-1 .4-1t1.1 1m228.3.2q-.6 1.2-2.1 1.6-1.7.4-1.1-1.2c.7-1.9 3.8-2.2 3.2-.4m10.7 3.8c-1 1.1-2.3 2-2.8 2q-.8-.2.8-2c1.6-1.8 2.3-2 2.8-2q.8.2-.8 2m-8 1q.4.9-1 1c-1.4.1-1.3-.5-1-1q.6-1 1-1t1 1m-219.2 1.6c4.6 1.6 6.9 4.2 2.5 2.8a28 28 0 0 1-8.8-3.8c0-.9 1.3-.7 6.3 1m243.7 3q0 2.3-1.5 2.4c-1.5.1-1.2-.6-.9-1.5.4-.8.1-2.1-.5-2.9q-1-1.3-.4-1.9c1.1-1.2 3.3 1.4 3.3 3.9m-226-.2q0 .5-1 1.1-.9.4-1-.4.1-1 1-1.1 1 0 1 .4m207.3 3.2q3.4 4 .8 2.2c-1.2-.7-2.1-1.7-2.1-2.1q-.2-.7-2-.2c-2 .6-2.9-1.3-1.3-2.8 1.1-1.2 1.7-.8 4.6 2.9m216.5-1.9c-.3 1.5-1.6 1.8-8 2.1-7.6.3-12.4-.9-11.3-2.9.4-.5 4.9-.9 10.1-.9 8.6 0 9.5.2 9.2 1.7M277 754.6c0 1.7-2.2 1.4-2.8-.4q-.2-1.1 1.2-1.2 1.5.1 1.6 1.6m8.5 2.4q-.7.9-1.6 1-.9-.1-.4-1a2 2 0 0 1 1.6-1q.9 0 .4 1m-20 2q.4.9-.9 1-1.5-.1-1.6-1 0-1 .9-1t1.6 1m-173.7 4.2c.6.6 1.2 1.7 1.2 2.4 0 2.5 3 1.5 4.2-1.4l1.1-2.7.6 3c.7 3.5 3.5 4.1 3.9.7.6-4.1 2.2-2.2 2.2 2.6 0 5 1.9 9 3.8 7.8q1-.7.3-3.4c-.9-3.2-.3-9.2 1-9.2 1 0 1.6 2.4 2.3 10.2.7 6.8 1.5 9 3 8.5q1-.5 1.1-9.7 0-9.3 1.2-9.7t1.9 5.6q.6 6.2 2 6.1 1.5.2 1.4-4.9c0-2.8.6-5.3 1.3-6q2.6-2 2.7 2.6c0 3.3 1.9 2.9 3.1-.7 1.4-3.8 4.6-4 5.9-.5 1.2 3.2 2.8 3.2 4-.1q1-2.5 2.8-2.2c1.4.3 1.8 1.7 2.2 8.3.3 4.4.9 8.6 1.3 9.3 1.6 2.5 2.7 0 2.7-6.3 0-9.3 1.7-9.7 3.5-.8.6 3 3.3 6.5 3.7 4.7l.2-6.3c.1-3.4.6-5.6 1.4-5.8q1-.3 1.2.9c0 .8.7 2.3 1.5 3.4 1.4 1.8 1.6 1.8 2.9.1.7-.9 2.3-1.7 3.5-1.7q2.2 0 2.1-2.1c0-2.3 2.4-2.1 2.6.2.2 3.3.5 3.9 1.4 3.9.6 0 1.3-1.4 1.6-3 .9-4.4 3.4-3.9 3.4.7 0 2.1.4 4.4.9 5.2 1.5 2.4 3.1.1 2.9-4.1-.4-5.8 1.8-6 2.7-.3.8 5.8 2.8 5.5 3.5-.6.4-3.5.9-4.4 2.5-4.4s2 .7 2 4.3c0 2.4-.4 4.7-1 5.2s-3.7 1.7-7 2.8l-14.7 5.1a125 125 0 0 1-38.2 6.1c-9.8 0-10-.1-24.6-6.7-12-5.6-30.9-11.6-38.2-12.2-1.4-.2-.8-3.1.5-3.1.8 0 2.2-.9 3.3-2.1 1.7-1.9 2.6-2.1 9.9-1.4a32 32 0 0 1 9.3 1.7m116.5 4.5q.7 7-2.8 4.3c-1.8-1.5-2-7.1-.3-8.8 1.6-1.6 2.5-.5 3.1 4.5m12-3.7c.5.4.9 2.9 1 5.6.2 4.3 0 4.9-2 5.2q-6.4 1-6.3-6.7c0-2.6.3-5.1.6-5.4.8-.8 5.5.2 6.7 1.3m68.7-.2c0 2.2-1.9 4.2-3.9 4.2-1.2 0-1.1-.3.2-1.8 1-1 1.7-2.4 1.7-3q.1-1.1 1-1.2 1 .1 1 1.8m59.9-.5c2.3 1.1 2.5 1.7 2.2 7-.3 6.7 1.4 12.7 3.6 12.7 1.2 0 1.4-1.3 1.2-7.3-.4-6.7-.2-7.2 1.6-7.2s2 .8 2.3 6.2c.2 4.5.7 6.3 1.6 6.3q1.4-.1 2-1.6c1-2.7.7-10.9-.6-12.2-.6-.6-1-1.4-.7-1.6.8-.8 34.4-1 35.7-.2q1.4.6-.4 3.1c-1.9 2.9-1.5 8 .6 8q1.3-.2 2.5-4.3c1.2-5.1 3.8-6.9 10.5-7.2 7.5-.4 8-.3 8 2.8 0 3.2 2.4 7.1 3.7 5.9.4-.5.8-2.5.8-4.5.1-4.6 1.7-5.1 3.2-1.1 1 2.7 1.5 3 2.7 1.9.9-.6 1.4-2.2 1.3-3.3-.2-1.8.4-2.3 3.2-2.5 4.1-.4 4.7.2 5.6 5 .7 3.6.6 3.8-1.7 3.8-4.3 0-13.4 3.5-18.4 7.2A67 67 0 0 1 358 790c-6.7-2-8.2-3-13.5-8.5-7.1-7.4-12.5-9.5-24.2-9.5H313v-3.5c0-4 1.1-4.5 2.5-1.3 1.3 3 3.9 2.9 4.3 0 .2-1.3 1-2.6 1.8-2.9a236 236 0 0 1 22.9-2.1c1.1-.1 3.1.4 4.4 1.1M200 767.6c0 3.8-.3 4.5-1.7 4.2-3.2-.6-3-8.8.2-8.8 1.1 0 1.5 1.1 1.5 4.6m51.7-3.8c.6.4 1.4 2.5 1.8 4.7 1.2 7.4 1.5 8.5 2.8 8.5 1 0 1.2-1.5.9-5.9-.3-3.5 0-6.1.7-6.5 1.2-.8 10.5 3.7 11.8 5.6.4.7 1 4.6 1.3 8.7q.6 7.3 1.7 7.9c.9.2 1.3-1.4 1.2-6.1-.1-3.6.2-7 .5-7.6.4-.6 3.4-1 6.9-.9 7.4.2 8.2-.2 10.4-5q3.2-7 1.8 6.4-.6 6.5-2 6.4c-.8 0-2 .9-2.8 2-1.6 2.3-8.1 5.2-15.6 7a74 74 0 0 1-24.1-.4c-2.1-.9-2.8-23.5-.8-24.7 1.6-1.1 2-1.1 3.5-.1M236 766c0 2.6.8 2.5 3.7-.2 1.3-1.2 2.6-1.9 2.9-1.5s.9 5.3 1.1 11.1c.4 7.9.3 10.6-.6 10.6-1.6 0-4.1-6.1-4.1-10 0-1.6-.5-3-1-3-1.3 0-3.2 4.9-2.6 6.6q.4 1.3-.3 1.9c-1.3.8-3.2-13.5-2-15.7 1.3-2.4 2.9-2.3 2.9.2m217.2 1.2c.4 4.3 3.1 4.4 3.8.3.6-3.6 4.4-4.4 4.6-1 .2 4 .4 4.5 1.8 4.5.8 0 1.6-1.2 1.8-2.7.5-4.5 2.6-3.9 3 .9.4 6 3.1 6 3.8-.1.8-7.1 3-6.4 3 .9 0 6 1.2 10 3 10 .5 0 1-3.3 1.2-7.3.2-5.6.6-7.2 1.8-7.2 1.1 0 1.7 1.9 2.3 8 .9 8.3 1.6 10.6 3.4 11.2.8.3.9-2.6.6-9.6-.5-8.7-.4-10.1.9-10.1 2.1 0 2.4 1.1 2.7 9.9.3 8.2 1.5 12.5 3.4 11.8q1.3-.2.7-6.3c-.8-11.4-.6-14.9 1-14.9 1.2 0 1.5 1.9 1.5 11.5v11.5l-6.1-.2c-7.3-.3-11.3-1.9-18.5-7.3a52 52 0 0 0-20.9-8.2c-2.2-.3-2.5-.7-2.2-3.8.2-1.9.6-3.8.9-4.3 1-1.7 2.2-.5 2.5 2.5m-6.8 4.9c-1 1.6-3.2-.9-2.9-3.4.4-4.1.7-4.2 2.1-.9.8 1.8 1.2 3.8.8 4.3m-218-3.9c.8 3 .8 9.8 0 9.8-1.4 0-3.3-3.6-3.4-6.2 0-5.3 2.2-7.8 3.4-3.6m74.8 0c.2 1.8.9 2.2 3.1 2 3.6-.4 3.7 3 .1 4.7q-5.4 2.4-5.4-5c0-4.2 1.6-5.4 2.2-1.7"/><path d="M255.6 179.5c-4.4 1.5-6.5 3.8-4 4.3.8.2 2.3-.2 3.2-.9q1.3-1-.8 1.4c-1.9 2.2-2.2 3.2-1.4 4.5 1.7 2.6 5.4 2.8 5.4.3 0-2.7 1.6-2.7 3.1.1l1.2 2.1 1.2-2.4c.8-1.3 1.7-2.4 2.2-2.4.4 0 2.1-1.2 3.6-2.7l2.9-2.7-3.1-1.5q-5.6-2.9-13.5-.1m161.8 53.7c-.4.6.4 1.9 1.9 3a42 42 0 0 1 12 24.6c.3 3.7 3.1 3.5 3.5-.2.8-6.6-3.7-17.3-10-24.2-4.1-4.5-6.1-5.3-7.4-3.2"/><path d="M417.4 247.5q-.5 1.5 2.5 4.4 6.1 5.7 6.1 15c0 5 1.2 7.2 2.6 4.9.5-.7.8-4.2.8-7.8 0-5.3-.5-7.3-2.7-10.7-3.2-5.1-8.4-8.3-9.3-5.8"/><path d="M415.6 253.9c-.4.6 0 2.1.8 3.3a33 33 0 0 1 2.7 6.6c1.5 5.2 4.5 5.6 4.3.5-.3-6.5-5.8-13.7-7.8-10.4m-5 1.8c-1.1 1.1-.6 2.3.9 2.3q1.4 0 1.5-.9c0-1.3-1.6-2.2-2.4-1.4m-6.6 3.2c0 2.1 2.6 3.6 3.6 2 .9-1.5-.3-3.9-2.1-3.9q-1.4.2-1.5 1.9m-295.5-11q-.4.9.5 1.6c1.2.7 3-.2 3-1.6 0-1.2-2.7-1.2-3.5 0m9.7 2.2q.4 1 1.3 1 1.2 0 1.3-1t-1.3-1.1c-1.5-.1-1.5.5-1.3 1.1m5.8 2.4c-1 1.2-.9 1.6.3 2.1 2 .7 3.7-.3 3.7-2.2 0-1.8-2.4-1.8-4 .1m6.7 1.7c-2.8 2-3.7 5.8-1.4 5.8.7 0 2.6-1.3 4.1-2.8 2.1-2.3 2.4-3.1 1.4-4s-2-.5-4.1 1m3.5 6.1q-5.2 3.8-1.8 5.3c1.6.6 6.2-2.2 7-4.3 1.1-2.6-2-3.3-5.2-1m1.8 5.5c-2.2 1.8-2.4 5.2-.3 5.2 1.9 0 7.4-4.2 7-5.3-.6-2-4.2-1.9-6.7.1m188.1 4.9c-2.1 1.7-2.1 2-.7 3.2 1.2 1 2.3 1 5.3.1 3.9-1.3 6-2.6 5.2-3.4-.2-.2-2-.7-3.9-1.1-2.7-.5-4.2-.2-5.9 1.2M101 413.8c0 .5.9 1.7 2 2.7 2.6 2.3 5.2.6 3-2-1.3-1.6-5-2.1-5-.7M272 306q.1.9 1.5 1c1.4.1 1.5-.5 1.5-1q-.1-1-1.5-1c-1.4 0-1.5.4-1.5 1m-4.9 2.4q-1.3 1.4-.1 2.1c1.7 1 3.7-1.2 2.4-2.5q-1.1-1.2-2.3.4m-5.1 3.7c0 2.4 2.3 2.1 2.8-.4q.2-1.6-1.2-1.7-1.6.1-1.6 2.1m9.6 1.6c-1.1 1.1-.6 2.3.9 2.3q1.4 0 1.5-.9c0-1.3-1.6-2.2-2.4-1.4M265 318q.1.9 1.5 1c1.4.1 1.5-.5 1.5-1q-.1-1-1.5-1c-1.4 0-1.5.4-1.5 1m4.2 4.1q.4 1 1.3 1 1.2 0 1.3-1t-1.3-1.1c-1.5-.1-1.5.5-1.3 1.1m150.3-9.2q-.4.9.5 1.6c1.3.8 8-.5 8-1.6s-7.7-1.2-8.5 0m16.5-.1c0 .9 11.8 3.1 12.5 2.3q.4-.5-.6-1.8c-1.2-1.4-11.9-1.9-11.9-.5m6 4q.1 1 1.6 1.6 1.5.5 1.2-.6c-.5-1.5-2.8-2.3-2.8-1m-101.8 18.3q.4 1 1.3 1 1.2 0 1.3-1t-1.3-1.1c-1.5-.1-1.5.5-1.3 1.1m49.5 17.5c-1.4 1.4-.7 3.5 1.1 3.2q1.5-.5 1.7-1.7c0-1.6-1.8-2.5-2.8-1.5m-99.1 32.3q-.4 1 .8 2c1.6 1.3 3.2-.2 2.1-1.9-.8-1.2-2.2-1.3-2.9-.1m36.9 65.1c-1.6 2.6 5.7 6.2 7.9 4q1.3-1-1.4-3c-2.8-2.2-5.5-2.6-6.5-1m39.6 29.4c-1.4 1.7-.7 4.8 1.3 6.5 2.1 1.8 4-1.2 2.9-4.6q-1.7-4.9-4.2-1.9m-7.7 2c-.9 2.4 0 5.8 1.8 7 2.7 1.7 4.1-.4 3.1-4.5-1-3.6-3.9-5.1-4.9-2.5m14.8.4c-1.7 1.2-.4 4.2 1.8 4.2 2.5 0 3.5-1.8 2-3.5-1.4-1.7-2-1.8-3.8-.7m-23.2 2.9q-5.4.9-4.5 5.2.9 3.7-.5.3c-2.4-5.5-6.9-3.5-5 2.2q2 6.8 4.9 3c.9-1.1 2.4-1.8 3.4-1.6q1.8.3 2.4-1.7c.6-2.4.8-2.5 3.3-1.1 3 1.6 4.7-1.3 2.6-4.5-1.7-2.5-2-2.6-6.6-1.8m-16.3 5c-1.3 1.3-.7 7.2.9 8.8 2.4 2.4 4.7.1 3.8-3.9-.9-4.6-3-6.7-4.7-4.9m37.3 2.2a10 10 0 0 0-4.5 3.8 20 20 0 0 1-4.7 4.8c-3.5 2-6.5 6-11.3 15a76 76 0 0 1-5 8.5 157 157 0 0 0-12.8 27c-1.4 4.1-3.4 11.1-4.4 15.5-1.6 7.1-2.1 8-4 7.8-3-.3-5 2.2-3.3 4.2q1 1.5.5 2.3-.7.5-1.2-.4c-.2-.6-1-2-1.8-3-1.1-1.5-1.7-1.7-3.2-.8q-1.6 1.3-1.7 2.8.2 1.6-2.2 1.6t-3.5 2.7c-1.2 3.3-.6 5 2.5 6.4 5.3 2.4 19.5-8.1 21.5-15.9.6-2 2-8 3.2-13.2a90 90 0 0 1 11.3-29l8.2-14c2.3-4.1 5.4-9.1 6.7-11.1 3.3-4.8 9.9-7.9 16.6-7.9 2.9 0 6.1-.5 7.2-1 2.1-1.2 2.5-4 .7-5.8-1.3-1.3-10.6-1.5-14.8-.3M316.5 583q.4.9-.4 1-1-.1-1.1-1 0-1 .4-1t1.1 1m12.2-90.3c-.4.3-.7 1.5-.7 2.6 0 1.8-.1 1.8-1.8-.3-1.5-1.9-2.2-2.1-3.9-1.2-1.1.6-2.3.8-2.7.5-.3-.4-1.6-.1-2.9.5s-3.1 1.2-4.2 1.4c-2.4.4-3.2 4.2-1.4 6.4q1.3 1.3 2.8.9t3.2 1.6c2 2.7 4.9 2 4.9-1.2 0-1.8.2-1.9 1.5-.9 1.2 1 1.8 1 3.2-.1.9-.8 2.6-1.4 3.7-1.4 2.3 0 3.2-2.9 2.2-7.1-.6-2.3-2.5-3.1-3.9-1.7m34-.1c-.9 1 .2 2.4 1.9 2.4q1.3-.1 1.4-1.5c0-1.5-2.1-2.1-3.3-.9m-4.2 6.3c-1 1.7 1.2 2.1 2.5.6q1.6-1.6-.3-1.5-1.5 0-2.2.9m-111.7 1.8c-4 1.7-3.5 4.9.7 4.6 8.6-.7 14.9-1.9 15.3-3 .9-3-9.9-4.1-16-1.6m106.2.7c0 2.9 1.9 4.4 3.1 2.5s.6-4.3-1.4-4.7q-1.7-.6-1.7 2.2"/><path d="M377.3 504.5q-.4 1.5 0 2.2c1 1 3.7-.6 3.7-2.2 0-2-2.9-2-3.7 0m-157.5 7.2c-5.8 6.1-7.1 10.1-4.5 13.7q1.2 2 4.1 1 2.8-.7 1.7-1.7c-2.9-2.9-.4-9.8 4.5-12.5 1.9-1.1 1.2-4.2-.9-4.2-.7 0-2.9 1.7-4.9 3.7m153.7-2.5c-4.6 2.5-10.3 10.2-8.5 11.3.7.4 3-1.1 5.4-3.6 2.4-2.4 5-5 6-5.7q1.4-1.2 1.1-2.3c-.8-1.1-1.5-1.1-4 .3m-27.5 8.2q.1 1.5 1.6 1.6 1.4 0 1.2-1.2c-.6-1.8-2.8-2.1-2.8-.4m-46.4 19.1a6 6 0 0 1-4.2.9c-4-1-4.3 1.6-2.5 21.1 1.3 14.5 1.9 18 3.1 18s1.6-1.8 1.8-8.7c.3-8.6.4-8.8 3.2-10.3 3.3-1.7 8-7.4 8-9.8 0-.9-.6-2-1.4-2.4a3 3 0 0 1-1.4-2.3c.2-2.2-2.5-8-3.7-8-.5 0-1.9.7-2.9 1.5m.4 6.3q-.1.8-1.1 1.9c-1.5 1.5-.3 3.3 2.3 3.3 2.1 0 2.1 0-.2 2.5q-4.2 4.8-4-4.3c0-3.1.4-4.2 1.5-4.2q1.4.1 1.5.8m15.7 4.9c-1.2 1.1-.8 2.3.8 2.3q1.4-.2 1.5-1.5c0-1.6-1.2-2-2.3-.8"/><path d="M304.5 557.7c-4.5 5.8-5.3 7.7-3.6 8.8 1.3.8 7.8-5.1 9.7-8.7 1.6-3 1.3-5.8-.6-5.8-.5 0-3 2.6-5.5 5.7m4.1 7.2q-6.8 7-2.2 7.1c2 0 5.9-3.4 7.8-6.8 1.5-2.4 1.5-3.2.5-4.1s-2.5.1-6.1 3.8m90.8 19.3q-1.9 2.4-4.7 2c-3.6-.4-6 1.4-4.8 3.7q1 1.6-.7 3.4c-1.6 1.8-1.5 2 .7 3.8q4.2 3.3 6.9.7c1.8-1.8 1.4-3.8-1-4.7-2.1-.8-2.1-.8.5-1.5 1.5-.3 2.7-1.2 2.7-2 0-.7 1.4-1.9 3-2.6q3-1.3 2.8-2.9c-.5-2.5-3.4-2.4-5.4.1m1.7 8.2q-1.3 1.4-.1 2.1c1.3.8 4.2-1.4 3.4-2.6q-1.3-2-3.3.5m-52.4.3c-1.1 1-.8 4.1.4 4.9.6.3 2-.3 3.1-1.4s1.7-2.5 1.4-3.1c-.8-1.2-3.9-1.5-4.9-.4m54 7c-1.3 1.2-.7 3.3.8 3.3q1.4-.2 1.5-2c0-2-1.1-2.6-2.3-1.3m-56.2 1.7q-1.7 1.3-1.2 3c.8 2 3.1 2.1 5.2 0 1.2-1.2 1.3-1.9.4-3-1.4-1.7-2-1.7-4.4 0m-25.5 3.1c-2.5.6-5.8 1.7-7.3 2.5-2.6 1.3-3.3 1.2-7.3-1-4.1-2.1-4.6-2.2-6.1-.7-1.3 1.3-1.4 1.9-.4 3.1.7.9 1 2.3.7 3.2s.1 2.5 1.1 3.6c1.6 1.8 1.6 2.1.1 3.2-.9.6-2.1 3.8-2.7 7-1.2 6.6-.5 15.2 3.5 41.1 3.9 25.4 4.5 28.8 5.5 31.6 1.5 3.8 13.3 11.9 17.4 11.9 1.7 0 2.1-3.5.5-4.5q-3.4-2.2 4.8-2.7c4.3-.2 5.7-.7 5.7-1.8q-.1-1.4-3.5-2.1-4-.7-.9-.8c3.2-.1 6.4-2.4 5.5-3.9q-.6-1-7-.5c-3.5.3-7.7.1-9.2-.4-1.7-.6-4.2-.6-5.9-.2-3.2.9-5.1-.1-4.2-2.4.4-1.1 1.7-1.2 6.4-.6 5.7.9 5.9.8 8.4-2.1 1.4-1.7 3.3-5.6 4.2-8.8 2-7.6 5.2-20.5 6.6-26.7l3.5-15.5c2.7-11.4 3.9-22.7 2.6-23.5-1.5-.9-3.9 2.5-4.5 6.3-1.8 11.9-3 18.1-4.2 21.6-.7 2.1-1.8 6.8-2.4 10.5a88 88 0 0 1-4.4 16.8c-.1.2-1.9-.6-4.1-1.6a36 36 0 0 0-7.6-2.6c-3.8-.7-8.4-3.4-6-3.5.7 0 4 .9 7.3 2 6.2 2.1 9.9 1.9 9.9-.4 0-1.5-12.8-7.2-18.2-8.1-2.1-.3-3.8-.9-3.8-1.4q-.1-2.6 4.9-.5a72 72 0 0 0 9.5 3c5.2 1.3 6.2 1.3 7.4 0 1.2-1.2 1.1-1.6-1.3-3.2-2.7-1.8-2.7-1.8-.5-2.6q2.3-.7 1.5-2.8c-.4-1.2-.1-2.7.5-3.5 1.4-1.7-1.3-3.6-9-6-3-1-6.8-2.5-8.5-3.3a10 10 0 0 0-4.2-1.4q-1.2.1-1.3-1.8c0-2.4-.3-2.4 4.9.1 5.8 2.8 15.8 4.6 17.2 3.2 1.8-1.8.2-3.1-5.9-5l-5.7-1.8 4-.5c5-.6 6-3.5 1.9-5q-3-1.1-1.6-2.2 3-2.9-2.4-5l-3.5-1.4 3.3-1.6c8.9-4.1 11.2-5.4 11.5-6.4q.8-2.7-6.7-.9m-14 35.4q-.1.8-1.5 1.5-1.4.4-1.5-.9.1-1.3 1.5-1.5c1.4-.2 1.5.4 1.5.9m8.5 30.1c5.5 2.1 1.3 2.3-5.7.4q-1.6-.6-1.8-1.6.1-1.5 7.5 1.2m11.5 2.7c0 1.2-3 9.3-4.1 11.5-.5 1-1.7 1.8-2.7 1.8-1.5-.1-1.5-.3.3-1.6 1.9-1.5 1.9-1.6.2-2.9-1.1-.7-4.1-1.9-6.8-2.6-9.7-2.5-4.1-3.6 6.7-1.4 4.2.9 5.5-1.2 2.3-3.6l-2.4-1.9h3.3c1.7 0 3.2.3 3.2.7m-5.1 27.2q-2.4 2-4.1 1-5.2-2.9 1.8-2.9h4.6zm-118.6-59.4c-1.5 1.1-1.6 1.6-.5 2.7 1.3 1.3 4.2.2 4.9-1.9.6-1.7-2.4-2.3-4.4-.8m15.8 14.9c-1.4 1.7-.7 3.6 1.4 3.6 2.2 0 2.9-2 1.3-3.6-1.3-1.3-1.6-1.3-2.7 0"/><path d="M340.5 655.9c-.7 1.2 1.2 2.4 2.5 1.6 1.1-.7.4-2.5-1-2.5q-.8 0-1.5.9m-135.2 1.8c-1.2.2-4.2 2.6-6.7 5.3-4.8 5.1-5.3 7.1-4.9 19.1 0 2.1-.7 2.8-4.7 4.2-4.8 1.7-11 7.4-11 10.2 0 3.1 2.4 2.6 5.9-1.3 4.2-4.8 9.1-6.6 9.1-3.4a3 3 0 0 1-1.5 2.6q-1.3.6-1.5 2.2a6 6 0 0 1-1.5 3.4c-1.3 1.5-1.2 1.9 1.6 4.6s3.1 2.8 4.3 1.1c.7-.9 2-1.7 2.9-1.7s3-1.4 4.7-3c3-2.8 3.2-3.3 2.1-5.6a10 10 0 0 1-.5-5c.5-2.1.3-2.4-2-2.4-2.4 0-2.6-.4-2.8-4.8-.4-7.4.2-14.6 1.2-15.6q1-.9 3.3.3c1.3.7 3.9 1.1 5.8.9 2.6-.2 3.5-.8 3.7-2.6s-.2-2.3-2.7-2.8c-3.5-.7-3.2-2.4.5-2.4q2.5.1 2.4-2c0-2-2.1-2.4-7.7-1.3m168.7 4.8c-1 1.3-1 1.9.4 3.4 1.7 1.8 1.7 2-.3 3-1.6.9-1.9 1.8-1.4 4.4.9 5.3 7 8.6 10.1 5.5 1.4-1.4-.2-3.8-2.7-3.8q-1.7 0 1.7-2.9c3.9-3.4 4-4.8.5-6.4a11 11 0 0 1-4.1-2.9c-1.6-2.2-2.6-2.3-4.2-.3m-35.5 2.5c-.3.5-.3 1.5 0 2 .7 1.2 4.5-.5 4.5-2 0-1.3-3.7-1.3-4.5 0m49.7.2c-1.8 1.8-1.5 2.6 1.8 4.3 2.8 1.4 3.1 1.4 3.6 0 .4-.9-.2-2.5-1.1-3.5-2.1-2.3-2.7-2.4-4.3-.8m-170.8 2q-.5 1 .9 2.3 1.5 1.2 1.4 4.1-.2 3 1.3 2.9c1.5 0 1.6-1.2.4-7.3-.6-3.2-2.6-4.2-4-2"/><path d="M201 671.5q-2.6 3.4 4 3.5 5.5 0 4.3-3.8c-.6-1.7-6.8-1.5-8.3.3m137.7-.8c-1.4 1.3-.6 3.3 1.2 3.3 2.1 0 4.5-2.3 3.4-3.3-.8-.9-3.8-.9-4.6 0m-2.1 6.7c-4.7 1.5-5.7 3.3-2.5 4.4 2.2.8 2.1.9-.9 2-3.9 1.3-4.2 3.2-.4 3.2l2.7.1-2.7 1.5c-5.9 3.1-1 4.8 5.7 2 3.6-1.5 4.8-4.6 1.8-4.6-1.5 0-1.5-.1-.1-1.3 1.9-1.4 2.9-7.9 1.3-8.2-.5-.2-2.8.3-4.9.9m-136.2 2.1q-1 3.3 3.1 3.5c2.9 0 4.1-1.6 2.5-3.5s-4.9-1.9-5.6 0m15.1 5.5c-.4.6-.1 1.7.5 2.5q1.2 1.5.6 4.9c-.5 2.8-.3 3.7 1.3 4.5 2.2 1.2 4.8-1 3.6-3-.4-.6-.1-2.2.6-3.6 1.2-2.3 1.1-2.7-1-4.4q-4-3.2-5.6-.9m70 3-5.7 1.4q-2.6.7-2.8 2.1c0 1.9 3.2 2.7 7.5 1.9 2.9-.5 4.1-.2 7.1 2.1 3.5 2.7 6.4 2.8 6.4.1 0-1.3-8-8.8-9.1-8.5zm-72.1 10.2c-.8 1.2 3 4.8 5.2 4.8 2.5 0 2.7-2.3.3-4.1q-4.1-3.3-5.5-.7m128.6 2.5c-2.8.6-5 2.1-5 3.5q.2.9 3.7.3c4.8-.9 7.5-2.3 6.8-3.6-.6-.9-1.2-1-5.5-.2m25.5.8c-1.6.7-5.7 1.6-9 2-4.2.5-6.8 1.5-8.9 3.2-2.7 2.3-3.6 2.5-8.7 1.9-4.5-.4-6-.2-7 1-1.8 2.2-.1 3 6.9 3.3 4.8.2 6.5-.3 9.6-2.4a24 24 0 0 1 10.1-3.4c6.7-1 11.6-2.9 12.2-4.7s-1.9-2.2-5.2-.9m-82.4.8q-2 2.6 2.4 2.7c1.4 0 3.3 1.4 4.9 3.5 1.5 1.9 3.4 3.5 4.4 3.5.9 0 4.3 1.9 7.5 4.1 5.7 4 6.2 4.2 14.8 4.5s11.3-.6 9.1-2.8c-.6-.6-4-1.2-7.6-1.4-5.1-.2-7.7-1-11.1-3.1l-8.4-4.8a20 20 0 0 1-6.1-4.8c-2.4-3-7.9-3.8-9.9-1.4m-77.2 2.6c-3.7 3.4-3.4 5.3 1.1 7.6 3.6 1.8 6 1.4 6-1.1 0-.9.8-2.3 1.8-3 1.6-1.3 1.5-1.6-1.1-3.9-3.5-3.1-3.9-3.1-7.8.4m33.7-1c-.3.5-2.6 1.8-5.2 3-3.8 1.8-4.4 2.4-3.4 3.6.7.8 2.1 1.5 3.1 1.5 2.6 0 9.4-6.3 8.5-7.8-.9-1.4-2.3-1.5-3-.3m-73.3-341.8q-2.1.6.8 1.2c4.5 1.2 12.9.8 12.9-.6 0-1-1.7-1.3-6-1.3-3.3.1-6.7.4-7.7.7m11 4.6q-5.5.4-5.3 1.9c.2 1.5 1.4 1.4 5.4 1.4 3 0 6.1-.3 7-.6 2.2-.8 2-3.4-.1-3.2zm-2.3 7.2q-3.4 2.2 4.6 2.4c3.8.2 4.9-.1 4.9-1.3 0-1.8-7.1-2.6-9.5-1.1m5 6.3c0 .7.9 2.4 2 3.8 2.5 3.3 4.7 1.6 2.9-2.3-1.2-2.7-4.9-3.8-4.9-1.5m12.6 15.6c-.5.9 1.1 7.1 2.1 7.4 1.3.5 2.3-5.5 1.1-6.9q-1.9-2.3-3.2-.5m53.6 39.9c.3 1.9 6.7 3.7 8.1 2.3 1.2-1.1-3.2-4-6.1-4q-2.5 0-2 1.7m64.3 25.3q-.4 1 1 1.6c1.9.8 3 0 2-1.5-.8-1.4-2.2-1.4-3-.1M287 475c-2.3 2.3-2.3 5.5 0 5.5 2.1 0 4.8-5.1 3.3-6.6-.8-.8-1.6-.6-3.3 1.1m-171.5-29.1c-.6 1.1.9 2.3 1.9 1.4s.7-2.3-.3-2.3q-1 0-1.6.9m22.3 237.7c-2.8.9-4.8 2.1-4.8 2.9q-.2 3.3 5.1 1.4c8-2.7 7.6-6.6-.3-4.3m-56.4-66.2q-1.7 1.3-1.4 1.9c.3.2 3.8.8 7.8 1.1 6.1.6 7.2.5 7.2-.8q-.2-1.5-3.7-2.5c-5.1-1.5-7.6-1.4-9.9.3m.9 5.2c-.7.3-1.3 1.2-1.3 1.9 0 1.8 11.7 3.2 13.3 1.6 1.5-1.5-.7-3.1-4.3-3.1-1.4 0-3.4-.2-4.5-.5a7 7 0 0 0-3.2.1M83 637q-3.3 2.3 6.2 3.4 9.6 1 4.6-2.8c-2.5-1.8-8.5-2.1-10.8-.6m.5 7.3q-4.2 2.9 4 3.1c5.2.2 7.6-.7 5.9-2.4-1.9-1.9-7.7-2.3-9.9-.7M420 614.4q.2.4 2 .9t2-.4c.2-.8-.9-.9-2-.9s-2 .2-2 .4m.8 14.3c.6.2 1.8.2 2.5 0q.9-.5-1.3-.5t-1.2.5M176 644.5c-1 1.2-.9 1.6.5 2.1 1.9.8 4-.9 3.1-2.5q-1.4-2.3-3.6.4M68 748c0 .5 2.5 1 5.5 1l6.2.1q.7 0 1.1-1 .2-1-6.2-1.1c-3.7 0-6.6.4-6.6 1m-1.7 4.4c1 .8 2.7 1.2 3.7.9 2.9-.8 1.3-2.3-2.3-2.3-2.9.1-3 .2-1.4 1.4m276 13.6q-4.4 2 .1 4.2c3.3 1.5 5.6.4 5.6-2.7 0-2.7-1.6-3.1-5.7-1.5m48.8 1.9c-1.3 2.4-1.5 15.8-.2 16.5q2.7 1.8 3.2-9.8c.4-8.2-.8-10.9-3-6.7m21.1 2.3q.3 3.2 1.8 3.3c1.5.1 1.6-1.2 1.8-3.3.3-2.7 0-3.2-1.8-3.2s-2.1.5-1.8 3.2m-29.5.4c-1.3 1.4-.7 9.1.8 10.4q3 2.5 2.3-6.1c-.3-4-1.6-5.8-3.1-4.3m-5.7 8.8q0 1.4.9 2c1.1.7 3.3-1.8 2.4-2.7-1.2-1.2-3.3-.7-3.3.7m-115.6-10c-.8 2-.1 4.7 1.1 4.9.6.1 1.1-1.3 1.3-3.1.3-3.2-1.4-4.5-2.4-1.8m16 7.1c-1 2.4.5 6.5 2.2 6.5q1.8.1 1-2.3c-.3-1.2-.6-3-.6-4 0-2.1-1.8-2.3-2.6-.2m162-279.7c-3.1 2.1-8.4 14.7-8.4 20 0 3.9 1.7 1.5 4-5.6 1.2-3.7 2.8-7.3 3.6-8.1 1.4-1.5 1.5-1.3 7 12.1 1 2.7 2.2 4.8 2.6 4.8s1.6-1.4 2.8-3 3-3 4.1-3q1.8 0 1.9-2-.1-1.8-1.5-2c-1.4-.2-2 .9-2.7 2-1.4 2.1-3.8 2.7-3.8 1 0-.6.7-2.4 1.5-4q1.6-3 4-3c3 0 3.4-2.5.6-4q-3.1-1.6-6.2 4.2c-.9 1.7-1.3 1.8-2.3.7-.7-.8-1.8-3.3-2.4-5.5q-2-6.4-4.8-4.6m-17.2 5.4c-2 2.6-4.3 8-3.7 8.6.7.7 2.8-1.6 5.1-5.4 1-1.5 1.4-1.7 2.5-.7q2.7 2.5 2.9-.2c0-1.4-2.9-3.5-4.8-3.5q-1 .2-2 1.2m.2 10.3c-.9 1.4-1.4 2.8-1.2 3.1.8.8 6.8-3 6.5-4.1-.7-2.1-3.6-1.5-5.3 1"/><path d="M436.7 513.7q-2.4 6.3.5 3.5c.7-.7 2-1.2 3-1.2q3 .1.8-4.1c-1.6-2.8-2.6-2.4-4.3 1.8M23 558.4c-11.9 1.9-23 8.1-23 12.8 0 2 .1 2 1.8.5 1-1 2.2-1.7 2.6-1.7s1.9-.9 3.3-2q4.7-3.7 3.6-.1-.5 2 1.6 3.2 2.1 1.4 1.5 3.6c-.6 2.3 1 5.3 2.8 5.3q1-.2.5-2.2c-.4-1.2-.1-2.8.5-3.5.8-1.1.6-2.1-1-4.3-1.2-1.6-1.9-3.6-1.6-4.4.8-2 1.3-2 3.5 0 1.6 1.5 2 1.3 4.6-1.6 2.7-3 3.2-3.1 6.4-2.2 1.9.5 4.4.6 5.5.1 2.6-.9 6.1.8 8.7 4.3 4.6 6.2.8 16.7-5.6 15.4a9 9 0 0 0-4.8.4c-1.4.8-2.9.6-5.9-1-3.4-1.8-4-2.5-4-5.3 0-1.8.5-3.8 1.2-4.5q1.3-1.2.1-2.3-2.1-2.4-4.9 3.4c-1.5 2.9-1.5 3.3.1 6.3.9 1.7 2.8 3.7 4.1 4.4s2.4 2.2 2.4 3.3q.1 2.3-1.5.7c-.8-.7-2.3-.9-3.2-.5-2.4.8-2.9.7-2.5-1.1.4-1.7-3.9-1.9-5.6-.2q-1.1 1.3-2.1-1.4c-1.6-4.2-2.8-4.1-5.8.3-1.5 2.3-3.6 5-4.5 6a7 7 0 0 0-1.8 4.1c0 2 .4 1.8 4.3-1.9l4.2-4.1 6.5 1.4c14.3 3.2 23.4 2.2 26-2.6.6-1.1 1.9-2 2.8-2 5.2 0 7-13.3 2.7-20.5-4.2-7.3-8.7-8.4-23.5-6.1M33.5 587c1.8 1.9 1.7 2-.3 2q-2 0-2.2-.4l-.6-2c-.9-2.2.9-2 3.1.4"/><path d="M31 572.5c-2.9 3.6 1.9 7 5.3 3.7 1.7-1.7 1.8-2.3.7-3.6-1.6-2-4.4-2-6-.1m-24.6 2.6c-.7 1.2 1.2 2.9 3.4 2.9 1.9 0 1.4-1.8-.7-3q-2-1-2.7.1m35 1.3c-.8 2.2.3 3.3 1.8 1.8q1.4-1.2 0-2.4-1.2-1.4-1.8.6M2 585q.1.9 1 1 1-.1 1-1t-1-1a1 1 0 0 0-1 1m492.5 156q-.4.9.4 1 1-.1 1.1-1 0-1-.4-1t-1.1 1M.2 747.3q.3 3.2 2.3 3.6a44 44 0 0 1 13.5 9c0 .5 3.4 2.6 7.6 4.7 6.4 3.2 8.9 3.9 15 4.2 5.2.3 7.9 0 9-.9 1.4-1.2.6-1.5-6.1-2.5a51 51 0 0 1-27.3-12.5 62 62 0 0 0-11.5-7.8c-2.8-1-2.8-1-2.5 2.2m61 32.2c-2.9.8-6.6 2.2-8.2 3a162 162 0 0 1-20.7 5c-14.8 3-19 3.4-25 2.9-6.7-.6-7.3-.5-7.3 1.2 0 1.5.8 1.9 3.3 2a64 64 0 0 0 22.5-1.1l14.7-2.9 4-.6-5 2.3c-4.8 2.3-13.8 4.2-31.3 6.8-8.5 1.3-11 2.9-4.4 2.9 3.5 0 14.4-1.6 27.2-3.9 3-.5 8.9-2.2 13-3.6a74 74 0 0 1 27.7-5.1c7.5.1 8.4.4 21.3 6.8a129 129 0 0 0 18.3 7.9c4.6 1.1 7.3 2.9 4.4 2.9-3.3 0-16.8-4-23.1-7a45 45 0 0 0-35.1-2c-6.5 2.4-14.9 4.8-29 8.6A68 68 0 0 1 9.8 808c-7.6 0-9.8.3-9.8 1.4s5.4 1.4 27.8 2c39.8.9 475 1.6 461.2.7a67 67 0 0 1-21.7-4.4c-12.6-4.5-17-4.6-28.3-.7-5 1.8-10.4 3-13.4 3-6.1 0-5.4-.6 5.4-5 7.6-3.1 9.4-3.5 17.5-3.4 7.4.1 10.7.7 18.5 3.3a62 62 0 0 0 20.6 3.8c7.8.4 11.3.2 11.8-.6s-.7-1.1-4.1-1.1c-7.3 0-19.2-2.4-26.3-5.3a45 45 0 0 0-37.6-.3 82 82 0 0 1-37.9 5.7l-3-.2 2.5-1.1c1.4-.5 5.6-1.4 9.4-1.9 7.9-1 16.3-4.5 21.2-8.9 4.8-4.2 12.9-6.3 22.3-5.8 6.6.4 8.4.9 13.5 4.1 6.5 4 11.7 5.7 25.1 8.2 8.7 1.6 15.5 1.4 15.5-.5 0-.6-1.8-1-4-1-8.2 0-22.3-3.9-32.5-9-11.8-5.9-17.1-6.8-27-4.6-9.6 2-11.7 2.9-17.5 7.5-5.1 4-5.6 4.2-24 7.7a79 79 0 0 1-33.6-.6 65 65 0 0 1-20.9-8c-3.3-3-14.2-8-17.5-8-1.7 0-7.2 1.8-12.3 3.9a216 216 0 0 1-33 11.1c-13.7 2.7-41.8-2-52.5-8.9-11.5-7.4-19.8-9.2-30.5-6.7-3.7.9-8.4 2.4-10.5 3.5-7.4 3.8-21.6 7.8-37.5 10.6-10.3 1.8-19.3.4-34.4-5.3a42 42 0 0 1-8-4c-1.6-1.1-7.2-3.8-12.5-6a47 47 0 0 0-30.6-3.7m21.9 5.4c2.4 1.2 3.5 1.9 2.4 1.5a45 45 0 0 0-20.6-1.7c-4.6.5-8.5.9-8.7.8-.2-.2 1.6-1 4-1.9a37 37 0 0 1 22.9 1.3m134.3 5.6c16.2 8 19.6 11.1 6.9 6.3a76 76 0 0 0-39.3.7 135 135 0 0 1-35.2 6.5c-8.8 0-9.7-1.4-1.5-2.5 10.9-1.4 30.2-7.2 38.7-11.5q14.6-7.5 30.4.5m-114.2 3.3a29 29 0 0 1 6.4 4 86 86 0 0 1-18.3-9.1c-1.3-1.4 4.9 1.3 11.9 5.1m228.9-.2a54 54 0 0 1 6.5 4 57 57 0 0 0 19.8 7.4c3 .6 5.8 1.6 6.1 2.1 1.4 2.1-7.3.6-18.2-3.2-23.8-8.2-30-9-41.3-5-7.7 2.7-38.6 7.4-45 6.8-2.5-.2-6.7-.9-9.5-1.6l-8.8-2.3c-2.2-.5-3.7-1.2-3.4-1.4a94 94 0 0 0 25.7 1.9c15.2-.1 17.3-.3 26.5-3a131 131 0 0 0 15.5-5.8 25 25 0 0 1 26.1.1m-253.7 4.9c2.7.3 7.7 1.8 11 3.4 3.4 1.5 7.5 3.2 9.1 3.7 2.7.8 2.3.9-3 1.2-4.7.2-6.2 0-7.2-1.4-2.3-3.2-16.3-4.4-23.8-2-3.8 1.2-3.4 1.3 6.5 1.2 10.3-.1 13.6.6 12.5 2.5-.7 1-12.4 1.2-20.3.2q-5.4-.6-4.8-1.8c.5-1.5-2.8-.9-5.9 1.1-1.4.8-3.9 1-8.5.5-3.6-.4-5.8-1-5-1.4 5-2.2 29-8.4 31.5-8.1zm143.2 1.6c3.8 1.1 10.3 3.3 14.4 4.9a67 67 0 0 0 17.5 3.8l10 .9H253c-5.8 0-10.9.1-11.5.2-.5.2-3 .3-5.3.2-3.5-.1-4.5-.5-4.9-2.1a4 4 0 0 0-2.7-2.4c-17.7-3.5-22.3-4.1-26.5-3.5a114 114 0 0 0-25.5 6.3c-1.9 1.2-5 1.6-13.1 1.6-11 0-13.5-1.3-4.7-2.5 4.3-.6 14.1-3.1 30.2-7.6a68 68 0 0 1 32.6.2m110.2 3.8a145 145 0 0 0 12 4.1c2.3.6 4.2 1.6 4.2 2.2 0 1.8-10.9.2-13.4-2-3.1-2.7-12.4-4.5-17.2-3.3l-17.4 4c-1.9.4-10.2.8-18.5.9-16.8.2-16.4-1.1 1-2.8 10.6-1.1 24-3.6 26.5-5.1 3.5-2 14.9-1 22.8 2m-195-.2c-1 .2-2.6.2-3.5 0q-1.3-.5 1.7-.5c3 0 2.7.2 1.8.5m79.5 3.3c2.2.6 3.7 1.3 3.4 1.6-.2.2-8.1.6-17.5.7l-17.2.2 7.8-2.2a41 41 0 0 1 23.5-.3m-91-.4c2 .4 3.7 1 3.7 1.5 0 .9-6.8 0-9-1.2q-2-.9 0-.9zM143 808q-.1.9-1.5 1c-1.4.1-1.5-.5-1.5-1q.1-1 1.5-1c1.4 0 1.5.4 1.5 1m184.5.6c3.6.7 3.8.8 1.5 1.4-1.4.4-5.7.4-9.5 0-6.9-.6-7-.6-3.5-1.7 1.9-.7 4.4-1 5.5-.8zm48-.6q.5.9-.4 1c-.5 0-1.3-.5-1.6-1q-.5-1 .4-1a2 2 0 0 1 1.6 1m12.3-.3c-1 .2-2.8.2-4 0q-1.8-.4 1.7-.4 3.5-.1 2.3.4m72.2.7 3.3 1.3-3.4.4c-4.8.6-19.7-.6-17.9-1.3 3.3-1.4 4.7-1.6 9.6-1.7 2.9-.1 6.6.5 8.4 1.3M38.7 833.2c1.2 6.8.8 25.5-.6 27.2-1.1 1.3-.9 1.6 1.1 2 1.2.3 3.9.2 5.8-.2 3.4-.8 3.5-.9 3.8-6.2.1-3 .5-6.1.8-6.9.7-2.2 12.3 9.6 11.7 11.9-.4 1.5.3 1.9 4.9 2.2 6.4.4 10-.1 9.6-1.2-.2-.5-2.2-2.1-4.4-3.7A56 56 0 0 1 57 841.9c.1-1.9 9.3-8 13.3-8.8 5.2-1.1 4.1-3.5-1.8-3.9-4.2-.3-5.3 0-7 2-3.2 3.8-10.4 9-11.5 8.3-1.5-.9-1.2-4.7.5-7.1q1.2-2 .8-2.8c-.3-.3-3.5-.6-7-.6H38zm43.7-3c-.3.5.1 1.7.9 2.6 1.1 1.3 1.5 4.6 1.5 14.6 0 11.5.2 13.1 1.8 14.3 1.1.8 2.8 1.2 3.9 1.1 2.1-.3 2.7-2.8 4-17.8.4-3.5 1.3-8 2.2-9.8 1.2-2.5 1.3-3.6.4-4.5-1.4-1.4-13.9-1.9-14.7-.5m20.1-.2c-.4.6-.6 7.4-.5 15.3.1 7.8 0 15-.2 16.1-.3 1.5.4 1.8 4.7 1.9l5 .2-.3-8.7c-.1-4.8.1-8.9.6-9.2s3.1 2.4 5.8 6c4.4 5.8 12.6 13.4 14.5 13.4.4 0 1.7-.9 3-1.9 2.2-1.8 2.4-2.5 2.1-10.8-.1-4.8-.4-10.7-.7-13-.3-3.5 0-4.6 1.8-5.8 3.3-2.3.9-3.7-5.9-3.3-4.4.2-5.9.7-5.9 1.8 0 .8 1 1.6 2.1 1.8 2 .3 2.1.9 2.3 9.8.1 7.3-.2 9.5-1.1 9.2-.7-.2-4.5-5.1-8.3-10.9a60 60 0 0 0-9.5-11.6c-3-1.5-8.6-1.7-9.5-.3m55.6 0c-5.3 1.1-11.4 5.1-13 8.6a25 25 0 0 0 .7 16.4c2.5 5.1 8.8 8 17.2 8 8.9 0 11-1.5 11-7.9 0-6.2-1.3-7.3-8.7-6.9-4.3.2-5.8.7-5.8 1.8q.2 1.4 2.9 2c3.7.6 5.5 3.2 3.7 5.4q-2.6 3-8.1.1c-3.7-1.9-5.3-7.4-4.4-14.6q1.2-9.8 11.4-8.4c5.2.6 9.4-1.4 7.3-3.5-1.5-1.6-8.8-2.1-14.2-1m126.4 2.9c-9.5 1.7-15 7.5-14.9 15.8q.2 14.6 17.2 15.9c5.9.5 10.1-.8 11-3.5.3-1-.4-1.2-3.7-.6-5.3.9-10.4-.8-13.6-4.6-6.4-7.7.8-22.8 9-19.1 2.3 1.1 2.5 1.6 1.9 5.2q-1.2 8.2 6-.4c3.5-4.4 4.8-8.2 2.4-7.4-.7.3-3.3-.1-5.7-.9-2.4-.7-4.7-1.2-5-1.2zm47.2-.2c-.4.3 0 1.4.9 2.4 1.3 1.4 1.6 4 1.5 12.4-.1 5.9-.4 11.1-.7 11.6s-2.5.9-4.9.9c-3.2 0-5-.6-6.4-2.1-2.3-2.4-3.5-10.9-2.6-17.4 1-6-.4-7.5-6.6-7.5-5.6 0-6.5 1.6-2.3 4 2.5 1.4 2.6 2 2.8 10.1.2 9.6 1.5 12.6 6.9 16 3.6 2.2 9.4 1.9 13.5-.7 2-1.3 2.5-1.3 4.4.1 2.7 1.8 6.8 2 6.8.2 0-.7-1.1-2.3-2.5-3.5-2.3-2-2.5-2.8-2.5-11.4 0-7.1.4-9.6 1.6-11 1.4-1.4 1.4-2 .4-3.3-1.3-1.5-9-2.1-10.3-.8m20.8.3a63 63 0 0 1 1.5 16.3c0 10.7-.1 11.6-2.2 13-2 1.4-2.1 1.8-.8 2.6 2.2 1.6 9.6 1.3 10.9-.3q1-1.4.3-2c-1.3-.8-2.1-7.6-1.1-10.2.6-1.6 1.8-2.2 5.3-2.6 5.6-.7 9-2.8 11.2-6.9q3-6.4-2.6-9.4c-3.3-1.7-21.5-2.2-22.5-.5m15.3 3.2c3.1 3.1.1 9.8-4.3 9.8-2.5 0-3.5-1.7-3.5-6s5-6.6 7.8-3.8m24.1-2.9c-5.2 1.7-6.9 3.5-6.9 7.3q0 8.6 12.4 7.5c4.2-.3 8.2 6.1 6.6 10.4-1.2 3.2-5.2 3.3-13.7.3-5.1-1.9-6.4-2-7.7-.9-1.8 1.5-2.1 4.7-.6 5.6.6.3 5.6.7 11.3.7 13 .1 17.3-1.4 18.2-6.6.8-4.1-1-10.2-3.3-11.5a23 23 0 0 0-7.8-.8c-7.2 0-8.4-.5-8.4-4.2 0-5.1 5-6.9 8.5-3.1 2.1 2.3 4.8 2.6 6.4.6 1.8-2.2.3-4.3-3.7-4.9l-5.7-1.1c-1.1-.2-3.6.1-5.6.7m-175.5 2.5c-1.5 1-3.4 4.7-3.4 6.8 0 .9 2.1 4.8 4.7 8.5 3.8 5.6 4.7 7.9 5.1 12.3.4 5.2.3 5.7-2.9 8.5-3.2 2.9-3.2 3.1-1 3.1 3.3 0 8.8-5.9 9.6-10.3.4-2.1.3-5.6-.3-7.8-1-3.8-.9-4.1 1.4-4.9q4.2-1.5.8-6.5-3.2-4.6-5.4-.4c-1.1 2-1.2 2-3.2.2-4-3.6-4.7-9.5-.8-7.1 2.2 1.4 4.8-.2 3.6-2.1-.8-1.2-6.5-1.5-8.2-.3"/><path d="M202.4 850.4q-3.3 3.4-3.4 6c0 3.6 4.1 7.6 7.8 7.6 3.6 0 9.6-3.9 10.1-6.5.5-2.7-2.6-8.1-5.5-9.4-3.9-1.7-5.3-1.4-9 2.3m9.4 5c.5 2.4-1 3.8-3.1 3-2-.7-2.2-2.5-.5-4.2 1.6-1.6 3.2-1 3.6 1.2m216 4.3c-2.1 2.5-1.2 4.3 2.2 4.3 3 0 5.1-2.4 4.3-4.8-.7-1.8-4.8-1.5-6.5.5"/></svg>