<svg xmlns="http://www.w3.org/2000/svg" width="666.7" height="1170.7" viewBox="0 0 500 878"><path d="M297.2 158.2a124 124 0 0 0-66.5 28.6 127 127 0 0 0-42.2 112.7 115 115 0 0 0 14.9 41.5c2.5 4.4 4.6 8.3 4.6 8.7s-3.1 2.4-6.8 4.3-8.6 5-10.9 6.8a55 55 0 0 1-8 5.3 225 225 0 0 1-41.9 12.7c-1.1-.2-1.6-2.1-1.8-7.9-.2-6-.8-8.6-3.1-12.7a67 67 0 0 0-14.8-16.4c-1.7-1.3-1.7-1.6.3-7.3a39 39 0 0 0 1.7-22.8l-1.5-4.8 5-5.7a78 78 0 0 0 18.7-35.3c4-15.7 1.8-36.4-5.3-51.3a91 91 0 0 0-31.9-35 100 100 0 0 0-29.7-9.4 86 86 0 0 0-33.4 3.4l-23.4 7.9C1.1 188.1 0 188.8 0 194v4l4.3-2.7c2.3-1.5 6.2-3.2 8.7-3.9 4.3-1.1 4.2-1.7-.5-2.7-1.7-.3-1.6-.6 1-1.7 1.7-.7 5.4-1.5 8.2-1.8 5-.4 5.5-.2 9.5 3.4 6.5 5.7 8 8.6 7.9 15 0 6.1-1.6 9.4-5.6 12-2.3 1.5-2.7 1.5-4.9 0a8 8 0 0 1-3.1-4.6c-.7-3.2-2.9-4-3.9-1.4-.9 2.2 1 5.1 4.4 6.9 5.9 3.1 11.5.9 15.6-6.1q5.3-9.2-1.4-19-5.2-7.6 1.7-1.8a10 10 0 0 1 3.7 6.5c.9 5.3 2.9 4.4 2.8-1.1-.1-3.7-.7-4.9-4.4-8.3-5.4-5.1-4.8-6.3 4.6-9.6 6.2-2.2 8.5-2.4 23.4-2.4 16.3 0 16.6 0 24.1 3.2a71 71 0 0 1 24 15.6c7.8 7.7 14.6 18 18.6 28.5 3.6 9.3 4.1 13.8 1.8 14.6q-3.2 1.1.6 5.7c1.5 2 1.9 3.8 1.7 6.9-.2 2.4-.8 4.3-1.5 4.3-2 0-2.2.9-2.4 10.8-.2 6.2-.7 10.4-1.5 11.5-1.2 1.6-1.3 1.5-1.4-.6 0-4.3-2.4-1.7-3.5 3.9a55 55 0 0 1-10.8 20.7c-2 1.9-2.7 2-5.5 1q-6.7-2.4-1.3 3.2 5.6 5.7 4.9 15l-.3 4.5-1.8-3.3c-1.8-3.4-5.7-4.8-4.1-1.5a40 40 0 0 1-.3 17.9c-1 .9-2.6.8-7.5-.8a49 49 0 0 0-48.1 12.5A35 35 0 0 0 48 365c-1 3.1-2.2 5.4-2.9 5.2-3.3-.7-17 4.7-22.9 9.2-2.9 2.1-3.8 2.3-6.3 1.4-4.1-1.4-4.6-2.8-1-2.8q6.7-.2 1.2-4.9c-3.5-2.9-4.1-5.2-1.1-4.4 1.7.5 2 0 2-2.7 0-2.3.9-4 3.1-6.1 1.8-1.6 2.9-3.3 2.5-3.7-1.2-1.1-5.9 2.1-8.3 5.7-1.9 2.8-2.4 3.1-2.9 1.7-1-2.7 1.2-6.4 5.1-8.8 2-1.1 3.4-2.3 3.1-2.5-1.1-1.1-5.7.9-9.1 3.8-3.2 2.8-3.5 3.6-3.5 8.4 0 3 .4 6.5.9 7.9q1 2.5-.1 2.8c-2.1.7.4 4.9 4.3 7.4 2.1 1.3 3.9 2.8 3.9 3.2s-1.1 2.4-2.6 4.5A55 55 0 0 0 8 412.9c0 3.8 3.5 15.3 6.3 20.7 2.8 5.5 14 16.3 19.7 19.2 6.1 3 7.5 5.6 3.7 6.6a40 40 0 0 0-22.1 32.5A57 57 0 0 0 31.7 540 60 60 0 0 0 59 557c7.6 2.5 9.8 2.8 20 2.6s12.2-.5 17.2-2.9l5.7-2.6 1.6 3.3c2.4 5.1 4.9 7.2 11 9.5 8.1 3 20.2 2.9 27-.3q15.8-7.2 17.1-21.5c.5-4.6 1.1-6 2.5-6.4 2.4-.6 2.6-5.5.4-9.7-1.5-2.9-1.5-3 2.4-4.9a36 36 0 0 0 14.3-13.5 32 32 0 0 0 5.8-24.8c-1-10.2-2.5-13.3-10.7-21.9-4.6-4.9-5.1-5.8-3.6-6.4l13.3-4.6 11.5-3.9 11.5 2.5 14 2.9c17.7 3.5 32.6 7.4 42 11.1a58 58 0 0 0 9.5 2.5c3.3.6 7.1 1.5 8.5 2l11.1 3.5c8.3 2.5 8.7 2.5 14.4 1 3.2-.8 6.5-2.1 7.4-2.9s3-1.8 4.6-2.2c1.7-.4 4.1-1.5 5.5-2.4 4.7-3.2 16.5-8.7 22.5-10.4l13.7-4.2c4.2-1.3 8.3-2.4 9-2.4 2.9 0 19-5.9 22.3-8.1 4.4-3 7.2-7.3 17.5-27.4 16.4-31.8 19.2-37.7 20.5-44a30 30 0 0 1 3.3-9.2 52 52 0 0 0 7.2-15.2c0-1.1.5-2.3 1.1-2.6 1.6-1 11.9-22.6 11.9-25 0-5.1-2.1-9.3-5.3-10.8-3.4-1.6-6.3-1.3-13.5 1.3-1.8.7-3.5 1-3.8.8-.2-.3.3-4.5 1.1-9.4 1.8-10.1 2.1-26.9.6-39.5a69 69 0 0 0-7.1-24.6 122 122 0 0 0-48.5-59.9c-13.5-7.8-17-9.3-28.5-13.1a134 134 0 0 0-49.8-5.1m33.3 5.8c15.7 2.9 31.5 9.3 45.7 18.7 7.6 5 24 21.7 30 30.6a129 129 0 0 1 19.4 48.7c4.6 28.2-2.3 60.3-17.9 83.5-12.1 18-30.4 35.5-37 35.5-3.4 0-12.7-4.4-12.7-6a122 122 0 0 0 25.8-19.4 110 110 0 0 0 31.9-70.1c.9-16.1-2.7-34.6-9.9-50.4a122 122 0 0 0-35.8-42.3 105 105 0 0 0-129.8 8.4 88 88 0 0 0-21.9 26.8 101 101 0 0 0-14.4 54.5c.1 21 5.3 38.3 16.7 55.7 3 4.5 5.4 8.4 5.4 8.8a17 17 0 0 1-5.7 1.7c-7 1.3-7.1 1.2-13.7-12.2a118 118 0 0 1-7.6-93 109 109 0 0 1 16.7-33 116 116 0 0 1 96.8-48c6.6.2 14.7.9 18 1.5m-5.1 16.1c17 3.2 30.4 8.9 43.9 18.7 19 13.7 32.5 34.1 38.6 58.4a102 102 0 0 1-50.4 111.9c-12.1 7.1-14.3 7.3-32.6 2.9s-19.4-4.8-31.2-10.7c-6-3-14.5-6.7-19-8.3a28 28 0 0 1-8.5-3.8 31 31 0 0 1 7.5-6.8l21-15.7 13.3-10 5.2 3.7 17.8 12.7c20.4 14.6 22.6 16 24.4 15.3 2.1-.8 1.8-2.6-3.6-18.9a447 447 0 0 1-10.6-37l39.6-29.4c11.8-8.6 11.8-8.6-22.1-8.4l-28.8.2-1.4-3.2c-.7-1.8-4.6-14-8.6-27.2-7.4-24.1-9.8-29.2-12.3-26.4-.7.8-2.9 7-5 13.9a615 615 0 0 1-13.5 42.3c-.5.4-13.6.8-29.3.7-23.9 0-28.7.2-29.8 1.4q-1 1.5-.5 2.6c.5.8 16.3 12.8 42.3 32.1 2.3 1.7 4.2 3.7 4.2 4.4 0 .6-3.4 12.2-7.5 25.8a311 311 0 0 0-7.3 25.9c.2 1-2.5 1.2-13.2 1l-13.5-.3-4.2-4.7a113 113 0 0 1-17.3-31.6 99 99 0 0 1-1.4-56.3c6.9-20.5 14.1-33 26.3-45.3a97 97 0 0 1 43.6-26.9c13-3.9 32-5.2 43.9-3m-7.5 53.3c3.3 10.9 5.8 20.2 5.6 20.6-.5.8-25.3 1.2-27.7.4q-1.6-.6-1.8-1.6c0-1.9 11.9-39.1 14.7-45.8.7-1.7.7-1.7 9.2 26.4m10.5 33.9 4.6 15.5c1.2 4 2 7.8 1.7 8.5-.4 1-12.7 10.7-25.3 19.9-.9.6-22.3-13.7-26.3-17.6-1.1-1.2-.6-3.8 3.4-16.7 2.6-8.5 5.2-15.9 5.7-16.6 1-1.3 19.2-2.2 29-1.5l4.7.4zm48.6-8.1c-.1.7-3.8 4.1-8.3 7.5l-18.2 13.7c-5.7 4.3-10.3 7.2-10.8 6.7-1.4-1.4-8.7-24.1-8.7-27.1 0-1 5.6-1.4 29.3-1.8 13.2-.2 16.7 0 16.7 1m-90 1.2c0 2.2-8 26.9-9.1 28-.5.6-2.5-.1-5.1-2l-34.7-24.9c-1.6-1.5 4-2 24.8-2.3 21.2-.3 24.1-.2 24.1 1.2m56.5 57.1c3.5 11 6.6 20.8 7 21.7q.6 1.7-.5 1.8c-.9 0-24.6-16.4-36.3-25.2-1.8-1.3-1.5-1.7 4-5.8l6.8-5.2q9.6-7.8 11.4-7.5c.9.1 3.7 7.4 7.6 20.2m-55.3-14.8 11.4 8.2 4.8 3.3-3.5 3.2c-4.5 4-32.5 24.6-33.4 24.6q-.6-.2-.2-2.3a816 816 0 0 1 12.2-40.5c.7-2 1.8-1.5 8.7 3.5m157 8.5c.8.7 1.8 2.8 2.2 4.5.5 3 .3 3.3-1.8 3.3-3.7 0-9 6.9-11.6 14.9-1.7 5.4-1.9 7.3-1.1 8.9 2 3.8 1.1 7.4-3.5 15.1-2.6 4.2-6.7 11.6-9.3 16.5-6.6 12.9-6.9 13.3-12 21.9l-7.6 13c-8.2 14.5-11.6 17.4-23 20.1-6.7 1.7-11.4 4-10.3 5.1.3.3 5.4-1 11.5-3 9-2.9 11.5-4.2 14.4-7.3a86 86 0 0 0 12.3-16.5c1.5-2.7 3-4.7 3.2-4.4q1 1-8.3 19.2c-6.5 12.9-9.4 17-13.2 18.9A83 83 0 0 1 367 448c-1.5 0-4.7.7-7.1 1.6-2.4.8-8.5 2.6-13.5 3.9a92 92 0 0 0-27.6 12.1c-9.5 5.8-14.3 7-20.5 5.1-2.6-.8-11.1-2.9-18.8-4.7s-19.7-5-26.7-7.2c-7-2.1-15.8-4.6-19.5-5.4l-10.8-2.3-9.2-2c-2.9-.6-9-2-13.5-3.2-12.1-3.1-12.6-3.2-14.4-2.5-1.4.5-1.4.9-.3 2.2 2 2.5-.3 3.4-21.4 8.8-5.4 1.4-10.5 3-11.3 3.7q-4 3.6 4.3 4.4 13 1 20.3 14.4c2.2 4.3 3 15.8 1.4 21.8-1.6 6.3-8 16.2-12.7 19.6-7.2 5.3-17.7 8-27 7-4.8-.5-5.7-.3-5.7 1 0 2.2 5.4 3.1 14 2.5 6.1-.5 7.1-.3 8.8 1.6 4.6 5.1 3.3 8.1-1.4 3.5-2.8-2.7-3.6-3-4.9-1.9s-1.1 1.7 2.1 5.3 3.6 4.3 3 8.3c-1.1 8-7.9 16-16.3 19-8.9 3.1-23.3.6-27.9-4.8-4.1-5-4.1-7.4-.1-11.6 6.5-6.8 8.7-11 8.7-16.7s-2.5-9.3-5.5-8.2c-1.7.7-2.1 2.7-.5 2.7s3.1 5 2.4 8.7c-1 5.2-9.8 14.2-18.1 18.4-6.5 3.2-7.3 3.4-17.3 3.4a54 54 0 0 1-28.7-7.1A61 61 0 0 1 22 516.5a35 35 0 0 1-2.3-15.5c.1-5.2.6-11.7 1.2-14.4a50 50 0 0 1 12.2-20.1 54 54 0 0 1 17.6-9.5c1.9 0 7.3-2.9 7.3-3.9 0-.5-4-.6-9-.3-8.6.5-9.3.3-15.4-2.7a40 40 0 0 1-10.6-7.7 54 54 0 0 1-10.9-21.6c0-2.3 0-2.3 1 .2 1.3 3.2 4.9 7.1 6 6.4.5-.3-.1-2.4-1.2-4.7-1.9-3.6-2.1-5.3-1.6-13.2.3-5.2 1.1-10.2 2-12A41 41 0 0 1 35 382.6c3.7-1.1 4.2-1.5 2.6-2.1-1.9-.8-5 .5-12.9 5.3q-6.8 4.2-3.1-1.3a32 32 0 0 1 15.1-9.1c6.5-2 8.8-.4 9.6 6.5a92 92 0 0 0 7.8 24.7c1.1 1.8 4.7 5.7 8 8.8a28 28 0 0 0 12.8 7.6c7.7 2.3 12.2 2.5 15.3.9 1.2-.6 4.4-1.3 7.2-1.6 5.5-.5 6.7-1 4.8-2.2q-1.3-.7 1.9-3a23 23 0 0 0 7.6-18.5c-1-9.4-6.7-18.8-12.2-20.2-3-.7-9.6 1.8-13.3 5-3 2.7-2.6 6.5 1 8.5 2.2 1.3 2.9 1.3 4.3.1 1.5-1.3 1.5-1.5-.6-3-2.6-2-2-3.4 2.4-5.6 2.9-1.5 3.3-1.5 6.4.1 4.3 2.4 8.3 10.3 8.3 16.4-.1 6.1-4.3 13.8-9 16.2a31 31 0 0 1-26.8 1.2c-5-2.4-13.4-11-16-16.4-4.4-9-5.3-35.6-1.5-41.7A38 38 0 0 1 77.4 341c6-2 8-2.2 16.2-1.6 5.2.4 12.4 1.6 16.1 2.6 6.1 1.6 7.4 2.5 12.5 8a46 46 0 0 1 11.3 23.8c.9 5.8-2.3 12.2-8 16.2-5.1 3.5-8.5 8.6-8.5 12.7 0 2.3-.6 3.3-2.7 4.2q-5.1 2.2 4 4c12.7 2.3 25.9 18.9 27.3 34.2a37 37 0 0 1-12.7 31.6c-3.7 3.5-5.7 4.5-12.9 6.3a48 48 0 0 1-27.2-.6 20 20 0 0 1-12.3-6.5c-2.9-2.7-6.1-4.9-7.3-4.9-2.3 0-4.5-3.3-5.7-8.8q-.6-3.3-2.5-3.2c-2.7 0-2.9.9-1.2 6.8 1.2 4.3 2.4 6.1 6.1 9 2.5 2 6.1 5.3 8.1 7.3 6.9 7.2 18.2 10.5 32.5 9.6 12.4-.8 18-3.4 25.9-11.7a45 45 0 0 0 13.6-24.1 46 46 0 0 0-26-47.9q-3.8.2-2.5-5.6c.4-2.6 2.5-5.3 8.2-10.8 6.2-6 8.5-7.5 12.7-8.6a448 448 0 0 0 36.5-11.7 60 60 0 0 0 14.6-7.8c6-4.9 16.4-10 24.7-12.1 4.9-1.3 8.3-1.3 21.5-.4 24.9 1.7 33.1 3.7 49.4 11.9 7.6 3.9 15.6 7.3 17.6 7.7 2.1.3 7.6 1.9 12.3 3.5a44 44 0 0 0 15.5 2.9c11.7 0 37.5 6.5 35.9 9.1-.2.4-1.5.4-2.8-.1-4.3-1.6-13.8-3-15.2-2.2-1.9 1-5.4 8.1-5.4 10.7.1 3.1 2.2 5.3 7.4 7.6 5.4 2.3 14.6 2.9 16.9 1.1 2.4-2 4.7-7.7 4.7-11.6q0-3.7 1.5-3.6c2.2 0 1.8 3.7-.9 9.7-3.6 7.6-5.3 8.4-18.2 8.2h-20.2c-7 .2-10.7-.2-15.5-1.8-13.9-4.5-28.1-4.9-33.1-1-3 2.4-3.2 2.4-8.2-.3q-4-2.1-6-1.4c-1.8.7-1.8.8.2 2.4l4 2.8q4.1 2.6-6.1 4.7c-3.1.7-5.5 1.6-5.3 2.2.3 1 11.7.9 17.1-.1 2.3-.5 2.9-.2 3.4 1.5.6 2.3 1.5 2.6 4.3 1.1s3.3.2 1.5 5.2a28 28 0 0 0-1.5 6.2c0 1-1 3.6-2.2 5.7-1.6 2.9-1.9 4.2-1.1 5 .9.9 2-.1 4.2-3.7 1.7-2.6 3.1-5.8 3.1-6.9s1.6-4.2 3.6-6.8c3.2-4.1 4.4-4.8 11.7-7.1 15-4.6 35-6.4 44.1-4 2.8.8 7.3 1.4 10 1.4 4.6 0 5.3-.3 9.2-4.6a33 33 0 0 0 8.4-18.3c0-2.4-.6-3.1-3.2-4.1l-3.3-1.1 4.5-3.7c8.9-7.4 24.4-23.9 29.1-31 5.1-7.7 11.7-20.8 14-27.7q2.3-6.9 3.8-6.1c.3.2 2.4-.7 4.6-2 4.4-2.6 9.2-3.1 11.7-1.2m.8 12.6c0 1.8-8.2 16.2-9 15.7-1.2-.7 1.4-8.6 4.5-13.4 2.2-3.6 4.5-4.7 4.5-2.3m-81.1 64c8 2.3 9.1 3.8 6.4 8.3-1.9 3.4-1.9 3.4-9.2 3.3-10.6-.3-13.3-3.3-9.1-10.2 2.3-3.7 3.3-3.8 11.9-1.4M18 392q-1 2-1.7 1.7-.3-.6.8-2.6c1.7-2.6 2.4-1.9.9.9m290 12.5c6.4.6 10 1.8 8.9 3a45 45 0 0 1-17.3 3.5c-3-1.3-5.6-3.5-5.6-4.8 0-1.6 3.2-3.2 5.5-2.7 1.1.2 4.9.7 8.5 1"/><path d="M88 346a37 37 0 0 0-16.6 8.1c-1.5 1.6-1.5 1.9-.2 1.9q1.5-.1 2.9-1.6c.7-.8 3.1-2.5 5.3-3.7 3.6-1.9 5.5-2.2 15.8-2 6.5.1 12-.3 12.3-.8q.5-.9-.7-1.3A80 80 0 0 0 88 346m-24.8 10.5c-7.8 6.9-10.6 18.6-7.4 30.2 2.2 7.9 3.4 10.4 5.6 12.3q1.8 1.6 1.6-.3c0-.9-.5-2.8-1.1-4.4-2-5.2-3.9-13.4-3.9-17 0-7 3.1-15.4 7.1-19.4 4.9-4.9 3.2-6.1-1.9-1.4m209.2 23c-1 2.5.7 4 2.3 2a8 8 0 0 0 1.3-2.7c0-1.4-3-.9-3.6.7m.6 6.9c0 1.8.6 2.2 4.8 3.1 4 .8 4.2-.5.3-2.8q-5.2-3.2-5.1-.3M27.5 392c-2.8 3.1-.8 3.7 2.3.7q2.8-2.9 1.1-2.7c-.9 0-2.4.9-3.4 2m71.5 2c0 .6.8 2.2 1.7 3.6 1.6 2.5 1.6 2.8-.7 7.1q-5.2 9.7-11.5 8.6c-2.7-.4-3.5-.2-3.5 1 0 4.5 10.8 2 15.7-3.6a23 23 0 0 0 4.2-7.5c1.3-4 1.3-4.5-.6-7-2.1-2.8-5.3-4.2-5.3-2.2"/><path d="M93.9 398.2c-.1.7 0 2.3.1 3.6q.2 2.4-1.9 2.9c-2.5.6-2.7 2.1-.5 3 1.9.7 6.4-3.4 6.4-5.8 0-2.8-1.1-4.9-2.6-4.9q-1.3.2-1.5 1.2M66 407.3c0 .9 1.4 2.3 3.2 3.1 3.8 1.9 3.8 1.9 3.8.3 0-1.2-1.2-2.1-6.2-4.5q-.8-.2-.8 1.1m8.7 5.4c-1.2 1.1 1.4 3.3 3.9 3.3 3.2 0 3.1-1.8-.2-3-3-1.2-2.9-1.2-3.7-.3M362 435c-.8.5-7.3 2.8-14.5 5.1-23.1 7.2-27.5 8.9-35.3 13.6-7.5 4.4-7.8 4.5-10.7 3a9 9 0 0 0-7-.8c-2.2.4-3.3 1-2.5 1.3 10.4 3.6 12.1 3.6 18 .2 9.6-5.6 16.5-8.6 26.2-11.4 12.7-3.7 28.8-9.9 28.8-11.1q0-1.7-3 .1m-337.4 2.8q-.5 1-.1 2.4A20 20 0 0 0 33 446c1.9 0 1-2.9-1.2-4.1-1.3-.6-3.3-2-4.4-3.1q-2-1.7-2.8-1m36.2 1.8c-1.3 2-2.1 11.4-1 11.4.6 0 1.4-2 1.7-4.4.8-4.8.3-8.7-.7-7m40.5 5.9c-1.7.7-3.4 2.2-3.7 3.3-.7 2.2.7 6.6 2.4 7.7q1.7 1.2-.7-5.1c-.7-1.8 5.2-5.4 8.7-5.4 4.8 0 9 4.7 9 10 0 9.1-4.8 14-15.2 15.3-11 1.5-18.8-7.6-17.6-20.4.4-4.2.3-4.7-1-3.7-2.3 2-1.1 10.8 2.6 17.8 1.7 3.3 2.7 6 2.3 6s-2.6-1.6-4.8-3.5c-4.7-4-7.3-8.9-7.3-13.8 0-2-.5-3.9-1.2-4.3-2.1-1.3 0 9.5 2.7 14.1 3 5.3 8.8 10.2 13.5 11.6 2.7.8 5.4.7 11.4-.5 15.1-3.2 18.2-6.8 16.2-19.1-1.6-9.9-8.4-13.9-17.3-10m-35.6 1.2c-1.1 1-.8 6.1.3 6.8q1 .4 1-3.4c0-4.2-.2-4.6-1.3-3.4m-20.4 14.9c-3.2 1.4-4.9 3.1-4 4.1s9.7-2.9 9.7-4.3c0-1.7-1.5-1.7-5.7.2m7 5.7c-4.1 2-5.6 3.7-3.3 3.7 1.8 0 10-4.2 10-5.1q.1-2.1-6.7 1.4m108.7.3c0 .4 2.2 3.1 4.9 5.9 5.3 5.6 6.8 9.8 5.8 16.1-.8 4.6 2 4.7 2.8 0q1.3-6.7-4.3-14.8c-2.7-3.9-9.2-9-9.2-7.2m-30.5 3.4a38 38 0 0 1-13.9 7c-1.9 0-2.1 1.7-.4 2.2 3.4 1.2 10.5-1.6 14.6-5.5 2.3-2.3 4.2-4.5 4.2-4.9 0-1.5-2.7-.8-4.5 1.2m-100.8 2.7a49 49 0 0 0-5.4 8.8c-4.1 8.9-3.6 17.4 1.9 32.6 2.6 6.9 8.7 16.3 11.4 17.3 5 1.9 6-.7 1-2.8-4.2-1.7-7.7-7.5-11.3-18.3-4.6-14.3-3.2-25.6 4.7-35.1 1.6-2 3-4 3-4.4 0-1.7-2.8-.7-5.3 1.9m22.8.1a35 35 0 0 0-11.1 12.8c-.8 1.9-1.4 5.3-1.4 7.6 0 5.8 2.3 14.1 4 14.6q1.4.5.6-1.4c-1.8-4.4-2.9-15.5-1.8-18a35 35 0 0 1 12.4-14c2.1-.9 3.8-2.1 3.8-2.6 0-1.4-3.4-.9-6.5 1"/><path d="M165.7 485.4c.5 4.5.1 6.3-2.2 11-3.3 6.7-2.5 8.5 1.6 3.7a17 17 0 0 0 2.9-15.5c-1.8-5.6-2.9-5.2-2.3.8m-131.8-.7c-3.5 4.2-4.2 7.1-3.5 14.1 1.2 11.8 5.5 23.2 8.8 23.2a52 52 0 0 1-6.3-24.6q-.2-5.5 2-8.9c1.2-2 2.1-4 2.1-4.6 0-1.5-1.6-1.1-3.1.8M134 512c0 1.4 4.5 2.3 7.5 1.6 4.2-1.1 2.8-2.6-2.5-2.6-2.7 0-5 .4-5 1"/><path d="M124 514.4c0 2 10 5.6 15.3 5.6 6.4 0 17.4-4.7 15.5-6.6-.4-.3-4 .6-8.2 2-6.6 2.3-8.1 2.5-12.2 1.6-2.5-.6-5.9-1.7-7.5-2.6-2.5-1.3-2.9-1.3-2.9 0m-80.4 4.8a26 26 0 0 0 7.3 10.2c4.4 4.2 3.8 2.2-.9-3.2a24 24 0 0 1-4.6-6.9q-.6-2.1-1.6-2.3-.8.2-.2 2.2m57.9 5.8c-1.1 1.7.5 3.2 2.1 1.9q1.2-1 .8-2c-.7-1.2-2.1-1.1-2.9.1M48 532.9c0 1.6 8.9 8.2 14.7 10.8 6.7 3.1 17.9 4.5 17.1 2.2-.3-.8-1.4-1.3-2.4-1.2-4.5.5-23.3-7.5-26.3-11.1-1.5-1.7-3.1-2.1-3.1-.7m58.1 1.3C104 539.7 89.9 549 83.8 549q-2.8 0-2.8 1.6c0 2.3 7.2 1.4 13.4-1.5 6-2.9 14.6-11.1 14.6-13.8 0-3.1-1.8-3.8-2.9-1.1m40.9 14.2c0 4.2-10.3 11.6-16.1 11.6a23 23 0 0 1-11.9-4.2c-1.1-1.1-2.6-1.8-3.2-1.6-1.4.5 2.6 4.4 6.5 6.4 1.5.8 5 1.8 7.6 2.1 5.4.6 9.4-.9 15.4-5.8 3.1-2.6 3.7-3.7 3.7-7 0-2.1-.4-3.9-1-3.9s-1 1.1-1 2.4"/><path d="M120 550.3c0 1.9 3 4.5 6.7 5.8 2.5.8 3.8.7 6.3-.6q6.2-3.1-2.8-2.6c-3.8.2-5.2-.2-6.6-1.8q-3.4-3.6-3.6-.8M16.5 197.5c-4.9 1.8-9.2 6.2-7.5 7.9q1 1.3 3.2-1.7c3.1-4.3 7.4-6.1 10.9-4.7a13 13 0 0 1 4.4 3.6c1.7 2.7 3.5 2.4 3.5-.5 0-4.7-7.7-7.1-14.5-4.6"/><path d="M13.2 207.6c-2.3 1.6-2.9 4.8-1.2 5.9q1 .4 1-1.1c0-1 1-2.8 2.2-4.1 2.5-2.6 1.3-3.1-2-.7m3.3 39.7L9 249.1c-6.8 1.6-7.6 3.3-8.4 16.4-.5 9.7-.4 12.2.9 14.1.8 1.3 1.5 3 1.5 3.7 0 2 3.3 4.7 5.7 4.7 1.2 0 3.5-.8 5.2-1.7 1.6-1 3.3-1.5 3.6-1.1s-.5 2.9-1.9 5.7a55 55 0 0 0-5.4 26.2c.3 7 .7 8.2 5 15.2l4.6 7.6-4.8 1.6c-9.5 3.1-12.8 7.6-13.7 18.4-.5 6.6.9 14.1 2.6 14.1.5 0 .8-3.8.8-8.4 0-6.9.4-9.3 2.4-13.3 4-8 12.2-11.3 19.2-7.6a27 27 0 0 0 18.7-.1c6-3.1 8-5.5 8-9.9 0-8.1-9.1-12.7-14.5-7.2-2.2 2.1-2.4 2.7-1.3 5 1.2 2.8 5.3 4.4 7 2.7 1.3-1.3.2-3.2-1.8-3.2q-1.3-.2-1.4-2c0-2.6 3-2.6 5.8 0 2.7 2.5 2.9 7.1.5 9.2a21 21 0 0 1-12.5 3.8c-3.3 0-4.7-.7-8.6-4.5l-4.7-4.6 3.8.7c4.7.8 4.9-.9.5-3.2-8.6-4.4-11.8-9.3-11.8-17.8 0-2.8 1.4-3.5 2.4-1.1 1.2 3.3 2.5 1.3 2.2-3.3q-.4-4.8-2-5c-2-.4-2 .3.4-7.2a49 49 0 0 1 11.5-19.9 37 37 0 0 1 16-8.6l4-.6-5.5 3a33 33 0 0 0-7.4 5c-2.4 2.6-1.3 2.7 2.2.2 4.1-2.7 12-5.1 17.4-5.1 5.1 0 6.3-1.5 2.6-3-1.9-.7-1.7-.9 1.8-.9 5.1-.1 13.1 2.4 16.4 5.1 2.6 2.1 1.8 2-4.2-.6-4.7-2-6.2-.3-1.8 2.2 1.8.9 4.7 2.7 6.5 3.9 3.2 2.1 3.4 2.1 5 .3.9-1 2.8-2.1 4.1-2.4q2.5-.7 4-4.1c1.9-4.7 4.7-6 9.4-4.6 7.4 2.2 10.8 9.8 6.4 14.1a25 25 0 0 1-7.4 3.7c-5.3 1.7-5.5 2-5.8 5.6-.2 2.2.3 4.8 1.2 6.1 1.8 2.8 9.2 5.1 13.5 4.1q5.5-1.4-.9-2.9c-3.9-.7-10-5.6-10-7.9 0-1.8.4-2.1 5.4-3.2 1.6-.3 4.4-2.1 6.3-4 4.8-4.8 4.6-9.4-.6-14.6-3.5-3.6-4.3-3.9-9.3-3.9-5.9 0-10.1 2.2-11.3 6-.8 2.5-2 2.5-7 .1a60 60 0 0 0-39-2.1 60 60 0 0 0-7.2 3.2c-2.1 1.7-3.3 0-2.1-3.2 2.1-6.1-1.8-12-9.1-14-3.4-.9-5.3-.8-9.8.5-3 .9-5.8 1.3-6.2 1-1.3-1.4 4.2-4.5 7.9-4.5 2.1 0 4.3-.7 5-1.5s2.8-1.5 4.6-1.5c1.9 0 3.4-.5 3.4-1 0-1.2-5.1-1.1-10.5.3m6.8 10.2c5.8 2.4 6.2 6.8 1.7 19-.7 2-2.5 3-12.1 7.3-3.9 1.7-5 1.9-6.4.8-.9-.7-1.6-2.1-1.3-3.2.2-1.4 1.4-2 4.8-2.4 6.1-.7 6.7-1.3 6.7-6 0-4.3-2.1-5.6-3.2-1.9-1 3.2-4.7 2-6.6-2.1-1.6-3.4-1.6-3.6.7-7.5 1.3-2.2 3.1-4.3 4.1-4.7 3-1.1 7.9-.9 11.6.7M13.5 276c-.3.5-2.2 1-4.1 1s-3.4-.5-3.4-1 1.8-1 4.1-1q3.8 0 3.4 1"/><path d="M27 250.8c0 .6 1.3 1.5 2.9 2s3.5 2 4.1 3.2q1.2 2.3 2.2 1.2c1.4-1.4-.7-4.9-3.4-5.7l-4-1.1q-1.6-.4-1.8.4m8.4 13.6c-.8 2.2.3 3.3 1.8 1.8q1.4-1.2 0-2.4-1.2-1.3-1.8.6m36.3 17.3a16 16 0 0 0-2.2 5.8c-.4 2.2-1.6 4.7-2.7 5.5-1.7 1.4-1.8 2.1-.9 6q1.5 7 7.5 11.4c3.4 2.6 14.8 3.3 22 1.4 6.9-1.8 7.2-3.8.7-3.8a35 35 0 0 1-10.6-2.1 15 15 0 0 1-9-7.2c-3.9-5.7-4.7-11.8-2-15.3.8-1 1.5-2.2 1.5-2.7 0-1.3-2.7-.7-4.3 1m4.1 23A20 20 0 0 0 83 309q7.3 2 .6 2c-1.8 0-4.8-1-6.7-2.3-3.8-2.5-7.9-8.2-7.8-10.6q0-1.7 1.7.9c.9 1.4 3.1 4 5 5.7m-58.2 15.2c-1 1.5 2 6.1 3.9 6.1 2.1 0 1.9-1-.8-4.4q-2.4-3-3.1-1.7m339.6 274.8c.4 2.1 3.3 2.5 3.3.3q-.2-1.4-1.8-1.8-2-.5-1.5 1.5m-10.2 5.7c-.8 2.3-1.2 2.5-3 1.4-2.5-1.6-5.2.4-3.2 2.4 1.7 1.7 1.5 4.5-.5 5.7-1.4.7-2.6.4-5-1.5-1.8-1.4-3.4-2-3.8-1.4q-.6.9-2.3.1c-7.8-4-10.9-4-10.4-.3.2 1.3-.3 2.5-1.2 2.8s-1.6 1.3-1.6 2.1q0 1.5-1.9.8c-2.5-.8-3.9 1.5-1.7 2.7q3.7 2-1.8 4.3c-3.9 1.7-4.7 2.6-5.1 6.2-.1 1.4-.8 2.9-1.4 3.3q-1.1.8-.6 3.2c.6 2.1.1 2.8-3.9 4.9a17 17 0 0 0-4.6 3c0 .9 3.3 3.5 5.3 4.2q1.5.7 1.7 1.7c0 1.3-2.7 1.3-3.5 0-1-1.7-3.2-1.1-3.8 1q-.5 2-3.2 2-2.6 0-2.2 1.2.5 1.2 2 1.3c.8 0 2.5 1.3 3.7 2.8l2.1 2.7H295q-2.2 0-2.7 2.1-.5 2.3-2.9 1.6c-3.5-.6-5 1.7-2.4 3.6 2.3 1.6 2 2.1-2.4 3.1q-2.9.7-3.7-.5c-1.1-1.9-3.8-.3-3.2 1.9q.5 2-1.7 2.5c-2.6.7-1.8 2.7 1.1 2.7a15 15 0 0 0 5.2-1.6q3.2-1.7 2-.3c-.7.7-1.3 2.1-1.3 3.1s-.7 1.8-1.7 1.8-2.5.8-3.6 1.7c-1 1-3.8 2.5-6 3.4s-4.8 2.7-5.4 4q-2.1 4-4.8.2-1.1-1.6-3.9-.9c-2.2.5-2.8.2-3.8-1.9-.6-1.3-2.2-3.2-3.6-4.1-2-1.3-2.3-2.2-1.9-5 .6-3.4.6-3.4-3.4-3.4-3.4 0-3.9.3-3.5 1.7.3 1-.1 3.1-.9 4.7q-2.7 5.3 1.7 2.7c1.8-1.1 2-1.1 1.5.3q-.8 1.8 1.9 2.6c3.5 1.4 2.1 3-2.6 3q-6.7-.1-5.3-5.8c.4-1.7-.1-2.2-2.2-2.8-3.3-.8-5.4.9-3.6 3q2.5 3-2.9 3.8-3.3.6-2.6-.9.4-1.4-.7-1.8c-2.2-.9-7.2 1.1-7.6 3-.2 1.5.2 1.7 2.5 1.2 2.7-.5 2.9-.3 3 2.5.1 2.5-.2 2.9-2 2.4-1.2-.3-2.9-.6-3.8-.6q-1.7-.1-1.8-1.6c0-1.2-.7-1.4-3.1-.9-2.5.6-3.1.4-3.6-1.4-.6-2.5-3.6-2.7-7.7-.6-1.5.8-3.2 1.3-3.6 1-1.4-.8-4 .6-4 2.2q0 1.4 2.7 1.1c1.4-.2 2.8.2 3 .8.5 1.5-6.5 2.3-7.7.9-.9-1-8.7-1.1-9.7-.1-1.4 1.4.9 3.6 3.7 3.6 1.6 0 3 .4 3 1 0 1.6-5 1.2-6.6-.5q-1.5-1.6-3.4-.5-2 1-2.5 0-.3-1 1.9-2c1.4-.5 2.6-1.7 2.6-2.5 0-2-2.8-3.1-4.3-1.6-.6.6-2.1 1.1-3.3 1.1-1.3 0-2.6.5-3 1.1q-.7 1-2.6-2.5c-1-2-2.6-3.6-3.6-3.6s-2.6-1.1-3.6-2.5c-2-2.7-4.5-3.2-6.4-1.3q-1.2 1.1-.1 3c1.1 2.1.4 3.8-1.7 3.8q-1.3 0-1.4 1c0 .5-1 1-2.2 1s-2.9.7-3.9 1.6c-1.6 1.4-1.8 1.4-2.3-.4-.4-1.1-1.3-2.3-2.1-2.6q-1.3-.6-1.5-2c0-1.9-3.6-3.9-5.6-3.2-1.3.5-1.2 1.1.1 4.3l1.5 3.8-2.5-3q-2.4-3-1.9-5.2.9-2.5-1.4-2.3c-2.5 0-3.8 1.8-2.4 3.2q1 1.1.2 2.8c-.5.9-.5 2.2 0 3s.6 1.9.3 2.7q-1.5 3.4-1.9-2.2c-.1-4.5-2.2-7-3.1-3.7-.8 3.1-2.5 2.3-3.5-1.6-1-3.8-3.2-4.1-5.4-.7-1.3 1.9-2 2.3-3 1.4-1.5-1.3-5.8.6-4.8 2.2.3.5.3 1.7 0 2.6-.6 1.4-.9 1.3-2.2-.6-1.5-2-1.4-2.4 1-5.6 1.4-1.8 2.6-3.6 2.6-3.9 0-1.1-3.6-.6-4.8.6-1.4 1.4-6 2-6.7.7-.4-.5.5-.9 1.9-.9 3.2 0 4.2-1.7 2.2-3.9-.9-1-1.6-2.3-1.6-2.9 0-1.6-2.2-1.5-4.6.3-1.1.9-4.2 1.4-7.6 1.5-5.1 0-5.8.2-5.8 2 0 2.1 3.9 4.3 6.7 3.8.9-.2 2.3 1.2 3.4 3.1 1 1.9 2.2 3.7 2.7 4s1.3 2.1 1.7 3.8c.6 3.1.5 3.3-2.3 3.3-4.3 0-5.7-2.1-3-4.4 1.9-1.6 1.9-2 .7-3a7 7 0 0 1-2.2-2.9c-.9-2.4-1.9-2.2-5.2 1.3-2.4 2.5-2.6 3.2-1.5 4.5.7.8 1 1.8.7 2.1-.9.9-2.7-.6-3.7-3.1s-6.3-3.9-9.2-2.4c-1.8 1-4.8.2-4.8-1.1 0-.5 1.7-1 3.8-1.2 3-.2 3.8-.7 4-2.7.3-2.1.1-2.3-2.2-1.7-2 .5-2.8.2-3.3-1.1-.3-1-1.5-2.6-2.7-3.6l-2.1-1.8 2.5.6c1.4.4 3.1 1.4 3.7 2.3q2.7 3.5 2.9-4.9 0-4.9-1.1-4.9c-1.7 0-3.7 2.5-2.8 3.4q.5.6-1.1 0-1.9-.7-3 .7c-1.5 1.9-4.4 2.3-6.2.8s-4.4-.5-4.4 1.5q-.1 1.3-1.9 1.9c-1 .2-2.1 1.7-2.4 3.3-.6 3.5-.2 4.4 2.2 4.4 2.7 0 4.5 2.4 2.8 3.9-1.1.8-1.8.6-3.2-.9s-2.6-1.9-4.6-1.5c-2.4.5-3 .2-4.3-2.4-1.9-3.6-2.9-4.3-5-3.5q-2.8 1.2-.4 5.4c1.8 2.9.1 3.7-2.5 1.2-2.4-2.3-5.2-2.9-6.1-1.3-1.1 1.8-5.5-.1-6.6-3q-1.3-2.7-3.1-2.9c-1.8-.2-1.9-.5-1.9-1q0-1 .9-1c.8 0 4.1-5.4 4.1-6.6q-.1-.3-1.6.3-1.6.5-3-1.1c-1.3-1.9-3.4-1.4-3.4.8q-.2 1.3-2 1.9c-3 .8-2.4 2.7.8 2.8q3.8-.1.5.9c-2.8 1.1-3 4-.3 4.7 1.1.3 2.6 1.8 3.4 3.3 1.2 2.5 1.2 2.9 0 3.4-.8.3-2.3-.3-3.4-1.4-2.2-2.2-4.6-2.5-8.4-1L0 686v127h250c221.6 0 250-.2 250-1.5l-.2-1.7-21.6-.7c-21-.6-21.3-.6-19.8-2.6 1.3-1.9 1.5-1.9 3.3-.2 2.1 1.9 4.8 2.2 5.8.7.3-.5-1.3-2.8-3.6-5.1-3.5-3.5-4.5-4-5.8-3l-3.8 2.2c-2.6 1.4-3.7 3.9-2.3 5.3 2 2 .9 2.6-5.1 2.6h-6.1l2.3-2.5c1.3-1.3 3-2.5 3.7-2.5 2.4 0 6.4-4.9 5.7-6.9-.8-2.7 3.3-4 5.1-1.6a3 3 0 0 0 3.4 1.2q2-.5 3.5 1.6c1.2 1.7 1.9 2 3.2 1.1s2-.6 3 1.3c.7 1.3 1 3 .7 3.7s.2 1.9 1.1 2.6c2.3 1.9 4.5-.5 4.5-5 0-3.6.1-3.8 3.1-3.6 3.8.1 4.9-1.8 1.9-3.4q-2.2-1.2-3.4 0-1.4 1.3-2-.5c-.5-1.3.9-1.5 9.4-1.5 9 0 10-.2 11.4-2.2 2.2-3.1.5-5.5-4.4-6.3-3.4-.6-3.9-.9-2.9-2.1.9-1.1.9-1.7 0-2.8s-.7-1.5 1.1-2l2.3-.7-2.2-1.6c-1.3-.8-2.3-2.1-2.3-2.9q0-1.2-5.7-1.9c-8.3-.9-8.5-1.1-1.8-2 7.3-.9 9.5-2 9.5-4.5q0-4-8.7-3.9c-7.4.2-9.1 1-11.7 5.9-1.3 2.5-3.2 4.6-4.3 4.8-2.2.3-4.9-4-5.1-8.4-.2-2.5.3-3.3 3-4.5 3.5-1.5 3.6-3.3.3-3.5s-3.5-.3-2.5-3c.8-2.1.6-3.4-1.2-6.5q-4.4-7.6-3.3.5c.5 3.2.3 5-1 6.9-.9 1.4-1.7 3.8-1.8 5.4-.2 2.3-.7 2.8-3.2 3.1-5.3.5-6 1-4.1 3 1.5 1.8 2.3 6.2 1 6.2q-.7-.2-1.9-1.7c-1.1-1.5-1.5-1.5-2.9-.4-1.9 1.6-1.2 3.1 1.5 3.1 2 0 2.7 3.4.9 4.5s-1 3.5 1.5 4.1c2.9.7 2.9.8 1.3 3.4-1 1.5-1 2.2-.1 3.1q2.8 2.9 5.8-6.7c1.8-5.8 1-9-1.5-5.9-1.6 1.9-3 1.9-3 0 0-.8 1.1-2.2 2.4-3q2.3-1.6 1.9-3.4c-.2-.9.3-2.4 1.3-3.2 1.6-1.3 1.7-1.2 1.1 1q-.7 2.4 1.9 5.3c2.7 3.3 3.1 5.8.9 5.8q-1.4.1-1.5 1c0 1.7 3.1 2.4 5 1.3 1.8-1.2 7-.6 7 .8 0 .5-1.3.9-2.8.9-3.4 0-6.5 3-5.6 5.4q.7 1.6 3.9 1.6c3.7 0 5.4 1.4 2.9 2.4s-5.8.6-7.8-.9c-1-.8-2.2-1.2-2.7-1q-.6.3-.2-1.5c.9-3.3-2.4-2.4-4.3 1.1q-1.6 3.3-3.4 2.6c-3.5-.9-4.5.9-2.1 3.8 1.1 1.5 2.1 3.1 2.1 3.5 0 1-4.7 4.1-7 4.5-1 .2-2.9 1.3-4.2 2.5l-3.9 3.5q-1.6 1.5-8.2 1.5c-6.3 0-6.7-.1-6.4-2.2q.3-2.4-1.8-2.3-2 0-2 2c0 2-.7 2-60 2.1-33 .1-59.2 0-58.2-.3q1.5-.5 1.7-1.9c0-1.4-1.6-1.6-17-1.9-3.6 0-7.4-.6-8.6-1.2s-2.6-.8-3.3-.4c-2 1.3-.9 4.4 1.9 5.2 3 .8 5.7.8-68.5 1.1-55.5.3-57 .2-56.7-1.6.2-1-.1-2.2-.8-2.6-1.3-.8-.3-9 1.1-9 .5 0 1 1.5 1.1 3.2l.2 4.5c.3 3.4 6.4 4.8 12.3 2.9 1.3-.4 3.4-.1 5.3.9 4.3 2.2 5.3 1.6 5.6-3.4.2-3.6-.2-4.4-2.4-5.8l-3.1-2q-.3-.3.8-1.7c1.6-1.9-3.6-12.7-5.9-12.5a9 9 0 0 1-3.4-.6q-1.8-.7-2.7.6-.8 1.3-.9.7c0-.4.9-2.2 2-4a10 10 0 0 0 1.5-6.3c-.6-3.4.7-6.1 2.4-5.1q1 .6-.1 2.5c-.9 1.5-.8 2.9.6 6.6q3 7.4 5.9 4.6c.9-.9.7-2-.7-4.6-1.5-2.8-1.7-3.7-.6-5q1.2-1.3 2.6-1.5c2.9 0 2.6-2.5-1.1-8.9-1.8-3.2-.8-4.9 1.2-2.1l1.5 2.1 2.3-2.1c1.3-1.2 2.9-2 3.7-1.8q1.2.5-1.5 2.2c-3 2-3.5 4.3-1.1 5.3 1.3.5 1.2.8-.5 2.5-2.5 2.2-2.6 3.1-.7 4.7 1 .8 2.1.7 4.5-.5 2.8-1.4 3.2-2.1 2.9-4.5-.3-1.7.1-3.4.9-4.1 2.4-1.9 3.2.4 1.7 4.7-1 2.9-1.2 6.3-.7 12l.6 10.8q-.1 2.9 1.6 2.5 1.6-.4 1.5-3.6c-.2-2.5.2-3.2 1.7-3.2 1 0 1.9-.5 1.9-1.2q0-1.4 1.2 0c.9.9.8 2.1-.4 5-1.3 3.5-1.4 4.3-.1 7.3 1.1 2.6 1.2 3.8.3 5.3-1.5 2.3-.2 3.3 5.5 4.1 4.9.7 10-.6 10-2.6 0-1.8-4.2-2.4-6.1-.9-1.2 1-1.8.3-3.8-4.1q-2.4-5.4-1.4-6.6t-.1-3.1c-.5-1-.8-2.8-.5-3.9s.1-3-.5-4.1c-.8-1.5-.7-2.3.4-3.2q1.6-1.2.4-3.2c-.8-1.5-.7-2.2.6-3.2 1.6-1.1 1.5-1.5-.8-4.2l-2.5-2.9-1.1 2.8c-.6 1.6-1.1 3.7-1.1 4.7 0 1.8-1.7 3.6-2.6 2.7-.2-.2-.1-3.6.2-7.6.6-5.8.9-6.9 2-6 1.6 1.4 1.7.9.5-2.5-.8-1.8-1.5-2.3-3-1.9-2.4.6-2.6 0-1.1-2.7 1.1-2 .4-7-.9-7-.4 0-1.6 1.9-2.7 4.2-1.8 4-2.1 4.3-5.4 4q-3.3-.5-5-2.5-2.6-3.6 1.1-2.9 1.8.1 3.5-2.4c1-1.5 3.3-3.3 5.1-4q3.4-1.4 3.3-3.7l.1-2.2 1.9 2.4q2 2.3 2 7c0 2.5.7 5.5 1.5 6.5.8 1.1 1.5 3 1.5 4.3q0 2.2 1.5 2.3 1.3-.1 1.5-1.3c0-1.9 3.9-4 5.4-2.8 1.4 1.1 17.2.4 19.8-1 .9-.5 2.8-.9 4.2-.9s2.9-.7 3.4-1.6c.8-1.5 1-1.5 1.5 0 .7 1.8 4.2 2.2 5.2.6.3-.5 1.6.2 2.8 1.6 2.1 2.4 2.6 2.5 7.2 1.7 3.2-.6 8.1-.5 13.5.3 4.7.6 9.2.8 10 .4.8-.3 3.6-.7 6.3-.8s5.5-.6 6.5-1.1q1.8-1 3.5.1c1.5.8 1.9.6 2.4-1 .9-3.8 7-1.5 8.6 3.2q.3 1.2 2.9-.3c1.4-.7 4.1-1.4 5.9-1.5 4.2-.3 10.1 2.3 9.5 4.1-.7 1.6 1.3 2.8 4.1 2.5 1.1-.2 2.4.1 2.7.6.8 1.4 6.6.2 6.6-1.4q0-1.4 3.5-1.4a8 8 0 0 0 5.5-2c2.4-2.4 4.6-2.6 5.3-.6q.5 1.4-1.4 2.1-2 .7-1.6 2.6c.4 1.5-.2 1.9-3.7 2.4-6.1.9-13.8.9-16.3.1q-2.4-1-2.3.7c0 .8.6 1.9 1.3 2.5 1.3 1.1 26.2 1 27.3-.1q.5-.7-.5-2.1c-1-1.2-.8-1.7.8-2.6q2.1-1.1 2.1-4c0-2.3.4-3 2-3q2 0 3.1-2.7c.9-2.3.7-3-1.3-4.5-1.3-.9-4.2-2-6.5-2.4-3.5-.5-4.6-1.2-5.8-3.7-.9-1.9-1.3-4.2-1-5.9.8-3.6 2.3-3.6 2.7-.1.4 3.8 3.2 3.7 3.5-.1.2-3.5-1.7-5.2-6.9-6-4.6-.8-5.1-1.5-3.2-5.1 2-4 1.5-8-1.1-8q-2 0-2.3 2.2c-.4 3-1.8 2.9-2.6-.2-.4-1.4.1-3.8 1-5.9 1.8-3.7 1.2-7.8-.8-5.8q-1.2 1.1-2 1.2c-1.5 0-.8-2.7 1.1-4.4 1.1-1 2.1-3 2.3-4.4.2-2 1-2.8 3.4-3.3 1.7-.3 3.7-.9 4.4-1.4 1.8-1.1-1.5-2.8-4-2-3.1 1-2.3-1.1.9-2.5 1.6-.6 4.1-2.5 5.7-4.1q5-5 7.3-1 2 3.6-4.4 4.3c-4.1.4-4 3.2 0 3.6q3 .3 7-2.5c2.2-1.6 6.6-4.1 9.7-5.6 6.1-3 9.8-6.2 13.8-12 3-4.3 4.5-4.6 7.6-1.2 1.2 1.3 3.5 2.7 5.1 3 7.8 1.6 10.3 5.8 4.9 8.3-2.4 1.2-2.8 1.8-2.3 4.6.4 2.5.1 3.5-1.4 4.4-1 .7-1.9 1.9-1.9 2.7 0 2.2 4.2 6.5 7 7 1.3.3 3.3 1.4 4.4 2.5l2 2h-2.1c-1.2 0-2.6-.7-3.1-1.7-1.3-2.2-4.7-.9-3.8 1.4.4.9.1 2-.6 2.4-1 .7-1.1 1.2-.1 2.8q1.2 2 .3 2.6c-1.8 1.1-1.1 3.5 1 3.5 2 0 2.6 1.1 1.3 2.3-.3.4-1.2.2-1.8-.3-1.7-1.4-4.5-.2-4.5 1.9 0 .9.9 3.4 2 5.5 2.1 4.1 1.8 6.5-.6 4.5-1.1-.9-1.8-.8-3 .2-1.4 1.2-1.4 1.4.3 2.6 1.5 1.2 1.6 1.5.3 2.3q-3.1 1.9-4.5 0c-.3-.5-1.8-1-3.3-1q-2.9 0-1.4-1.2 2.7-2.7-1.2-2.8-2.4.1-4.1 2.6c-1.6 2.5-1.6 2.7 0 3.6 1.5.9 1.5 1.1 0 2.8a4 4 0 0 0-1.1 3.8c.6 1.6.3 1.9-1.9 1.4-2.6-.5-3.3.6-1.4 2.5 2.1 2.1-.1 3.5-4.6 2.8-4.9-.7-6.8.8-3.9 3 2.4 1.8 9.3 1.7 12.1-.1 1.2-.7 2.9-1.1 3.7-.8 1.4.5 1.3.9-.2 3-1 1.4-2.4 2.1-3.4 1.8-2.1-.6-3.5 1.5-1.7 2.7s7.9 1.1 7.9-.1c0-.6 1.1-1.6 2.5-2.2 3.1-1.4 3.2-3.2.3-4.5-2.1-.9-1.7-1.2 3.6-2.7 3.2-1 6-1.5 6.3-1.2 1.1 1-.9 4.5-3 5.2-2.7.8-6.7 4.5-6.7 6.1 0 1.7 3.5 3.4 5.4 2.7 2-.8 2.1.5.1 2-1.4 1-1.4 1.5 0 4.4 1.9 3.8 4.1 4.1 5.6.8.6-1.3 2-2.7 3-2.9 2.5-.7 2.4-1.9-.6-5.1-2.7-2.9-3.3-6.6-1.1-6.6.7 0 1.9-.7 2.6-1.5q1.3-1.8 2.6-.4c.8.7 2.7.9 4.6.5q3.1-.6 4.7.8c2.2 1.9 8.2.9 8.8-1.5.6-2.2.7-2.2 3.1-1 .9.5 6.3 1.5 11.9 2.2q16.6 2 14.7-2.6-.7-1.5 1.5-1.5 2 0 2.1-1.5c0-1.5-3.2-3.7-5.3-3.4q-3.9.6-3.7-2.1 0-2-1.9-2c-2.3 0-4.5-2.5-3.8-4.3.3-.8 1.9-1.7 3.5-2s5.4-2.6 8.4-5c4.2-3.4 5.9-4.2 7.5-3.6 1.2.4 2.4 1.2 2.8 1.8.8 1.4 4.5 1.4 4.5 0q.2-1 2.8-.7c3.5.4 3.7 3.3.2 3.3s-3.2 2.8.5 3.6l7.6 2.2q4.5 1.5 6.2.5t2.3.7c.9 2.1-2.2 6.5-4.6 6.5q-2 .1-3.2 2.5c-.6 1.4-1.9 2.5-2.9 2.5s-2 .4-2.3.9c-.7 1.1 4.9 2.5 6.3 1.7q.9-.4 1.4 1.4c.6 2.2 3.7 2.8 3.7.6 0-2.5 2.6-3.9 5-2.6 1.6.9 3.3.8 6.9-.1 4.5-1.1 5.1-1 8.5 1l3.6 2.3v-45.5c0-42.4-.1-45.5-1.7-46-1-.3-3-1.4-4.6-2.4-2.1-1.4-3.1-1.5-4.5-.7-.9.6-2.4.8-3.2.3l-3.2-1.3q-1.9-.4-1.8-4.4c0-4.5-2.3-7.2-6.3-7.2-3.4 0-4.3-1.7-2.1-4.1 1.6-1.8 1.6-1.9 0-1.9-2.1 0-6.6 2.9-6.6 4.3 0 .6-.7 1.9-1.6 2.9q-1.9 1.8-.5 3.1c.8 1.1.6 1.9-1.2 3.8a29 29 0 0 1-4.2 3.5q-1.7 1-1.1 2.3.8 1.3 2.1.1 1.4-1 2.5-.5 1.1.7-.9 2.2c-1.2.8-1.9 1.9-1.6 2.4 1 1.5-1.7 1-3.7-.7-1.4-1.4-2-1.4-3.3-.4-1.4 1.2-1.4 1.5 0 3.6 2.2 3.4.2 6.4-4.2 6.4-2.8 0-3.2-.3-3-2.2q.3-2.5-2.3-2.6c-1.4-.2-2.9-1-3.3-1.8-1.3-2.2-3.7-1.7-3.7.8 0 1.3-.5 3-1 3.8-.9 1.3-1.4 1-3.4-1.4q-2.4-3-4.5-2.3c-2.5.6-2.5.8-.5-4.4q1.6-4 .7-4.7a6 6 0 0 1-1.6-2.6q-.7-1.6-2.2-1.2c-2.3.8-2.9-1.3-.9-3.5 2.5-2.8.7-4.1-3.9-2.8-3.2.9-4.1.7-6.4-1-2.4-2-2.5-2.1-.4-2.1 1.1 0 2.1.4 2.1 1 0 1.5 3.4 1.2 5.6-.5 1.6-1.3 1.7-1.6.4-2.4-4.2-2.6-5.2-4-5.7-7.9-.6-4.1-.7-4.3-3.4-3.7-3.1.7-3.8-.5-1.4-2.5 1.9-1.6.9-3.3-1.5-2.5-1 .3-2.1.1-2.5-.5s-1.5-1-2.6-1-1.7-.5-1.4-1 1.7-1 3-1c3.1 0 4.3-2 1.6-2.7-2.1-.5-3-2.3-1.1-2.3q1-.1 1-1.6 0-1.7-2-1.1t-3-1.4q-1.1-1.7-2.5-1.9c-2 0-1.9-.7.5-3.7 1.9-2.4 2.7-5.3 1.4-5.3q-.6.1-2.5 1-1.9 1.1-4 0-2-1.2-3.3-.1t-2.4-.1q-1-.9-2.9-.3-4.2 1.8-8.3-2.1c-2.5-2.3-7-2.5-7-.2 0 .5-1.9.8-4.2.6-3.8-.2-4.3 0-4.6 2-.4 2.6-.6 2.6-3.3.9-1.7-1-2.2-.9-3.3.5q-1.2 1.6-2 1.8c-1.2 0-.6-2.8.9-4q3.3-2.8-1-3-2.7.1-2.2-2.1c.3-3.2-2.1-3.5-3.3-.5m27 7c0 1.7-2.5 3.8-3.3 2.9-1.4-1.4-.6-3.9 1.3-4q1.8 0 2 1.1m5.5 2.6q.4.9-.9 1-1.5-.1-1.6-1 0-1 .9-1t1.6 1m10.5 1.5q-.1 1.4-2.2 1.5c-2.2-.1-2.3-.1-.4-1.5 2.5-1.9 2.6-1.9 2.6 0m-63 1.5q-.1.9-1.1 1-.8-.1-.4-1 .6-1 1.1-1 .4 0 .4 1m9.4 3.2c2.1 4.1 2 4.2-.9 1.6-1.4-1.2-2.5-3-2.5-4 0-2.5 1.5-1.5 3.4 2.4m38.6-1.1q0 .8-1 .9-.9-.1-1-1.6.1-1.3 1-.9 1 .6 1 1.6m19-.1q0 .9-.9 1-1-.1-1.6-1-.4-1 .9-1 1.5 0 1.6 1m-40 2q3.6 3.4.4 4.4t-3.4-2.3c0-.9-.5-2.2-1.2-2.9q-1.4-1.3.5-1.2c.9 0 2.6.9 3.7 2m-25 2.6q-.1 1.3-1 .9-1-.7-.5-1.6 1.4-2 1.5.7m17-1.2q0 .5-1 1.1-.9.4-1-.4.1-1 1-1.1 1 0 1 .4m-24 3.1q-1.2 1.3-2.1 1.5c-.9.2-.1-.9.8-2s1.9-1.7 2.1-1.5q.3.5-.8 2m27 2.9c0 1.4-.5 2.8-1 3.1-1.3.8-2.4-2-1.6-4 .9-2.4 2.6-1.7 2.6.9m30.4 1.5q.4 1-.8 2-1.3 1.5-2.9-1.3c-.9-1.3-1.3-2.6-1-3 .6-.6 3.9.9 4.7 2.3m-14 1c.7 1.1-1.4 2-3.1 1.3q-1.2-.4-1.3-1.3c0-1.2 3.7-1.2 4.4 0m24.6 3.2q-.1 1.9-1.1 1.7-1-.4-1-1.1l.1-2.3q.1-1.3 1-.9c.6.3 1 1.5 1 2.6m-65.3 2.3c-2.3 3.3-4.5 3.3-3.9-.1s2.2-4.6 3.9-3.1c1.1.9 1.1 1.5 0 3.2m29.8-1c-1 .7-1.6 2-1.2 2.9.5 1.3 1.1 1.3 4.6-.5 4.7-2.3 9-1.8 9.8 1.2q.8 3.5 3.2.6 1.5-1.5-.6-2.5c-2.5-1.4-.3-3.7 2.3-2.3 1.1.5 2.5.7 3.2.5 1.5-.6 1.6.9.1 2.4-1.6 1.6-.1 3.6 2.2 3 2.7-.7 3.4 1 1 2.3q-1.9 1-1.4 2.6c.3.8-.2 2.1-1.3 2.9s-1.6 1.7-1.2 2.1q1 .5 2.6-.9c1-1 2.5-1.7 3.3-1.7 1.4 0 5.9 5 5.9 6.6 0 .3.9 1.8 1.9 3.3 2.7 3.7 1.7 8-2 9.5-4 1.5-3.6 3 .5 2.2l3.4-.7-.1 4.1c-.2 3.3-.5 4-2.3 4-1.2 0-3.3-1.1-4.8-2.5-3.8-3.5-8.2-5.6-10.1-4.9-.9.4-3.6 3.7-6.1 7.5s-4.9 6.9-5.4 6.9-2.6 1.1-4.6 2.5-4.2 2.5-4.9 2.5c-.6 0-3-1.6-5.2-3.5a32 32 0 0 0-4.6-3.5c-.3 0-2.9 2.2-5.8 4.9-5.4 5-12.3 9-13.6 7.7-.4-.3-.1-1.2.5-1.8s1.2-2.2 1.2-3.4q0-2.2 2.5-2.8c4-1 3.1-3.4-1.5-3.8-2.2-.2-3.9-.8-3.8-1.3q.5-1 2.3-.8c4 .3 4.9-.5 3.1-3.2-1.9-2.9-1.1-5.5 1.7-5.5 2.2 0 5.7-2.6 5.7-4.3 0-.5-1.5-.7-3.5-.4-2.7.4-3.5.2-3.5-1q-.2-1.4-2-2c-2.7-.7-2.5-2.7.5-4.7 1.4-.9 2.5-2.6 2.5-3.8s.7-3 1.7-4c1.3-1.5 1.4-2.3.5-4.3-1.3-2.8-1.3-2.9 2.4-1.5 2.4.9 3.1.7 5.5-1.6 2.2-2.1 2.6-3 1.7-4.1-1.3-1.6-1.4-1.4 3.7-3.6 4.3-1.7 6.8-2.4 9.9-2.6 1.9-.1 1.9-.1.1 1.3m-18 4.5q-.6 1-1.7 1.1-1 0 .2-1.5c1.4-1.7 2.6-1.3 1.5.4m51.2.7q-.7.5-1.9.1t.6-.6q1.8 0 1.3.5m-3.7 2.8q0 .5-1 1.1-.9.4-1-.4.1-1 1-1.1 1 0 1 .4m7.9 4.3c-2 2.3-3.8 1.5-3.5-1.5l.5-3.1c0-.2 1 .4 2.1 1.4 1.5 1.4 1.7 2.1.9 3.2m4.6 5.4q1.5 2.3-2.4 1.2-2.5-.5-.9-1.4c1.8-1.2 2.6-1.1 3.3.2m10.5.9q0 .9-.4 1-.5-.1-1.1-1-.4-1 .4-1 1 0 1.1 1m-94.1 4.8q4.9-1.6 1.6 2.2c-2.6 2.9-6.3 2.6-7.5-.6-1.4-3.6-1.3-3.8 1.3-2.2a4 4 0 0 0 4.6.6m160.9.5q2.3 0 1 1.4c-.9 1.1-1.4 1-2.9-.3-1.1-1-1.9-2.2-1.9-2.8q0-1 .9.2c.4.7 1.7 1.4 2.9 1.5m16.6 13.6c-.7.9-2.4-1.3-2.4-3.2 0-2.1.1-2.1 1.3.3.8 1.4 1.2 2.7 1.1 2.9m-82.7-.5c-.6 1.7-4.1 1.3-4.5-.5q-.5-1.8 2.3-1.1 2.3.5 2.2 1.6m64.8.6c1.1 1.7-.5 3.2-2.1 1.9q-1.3-1-1.4-2c0-1.2 2.7-1.1 3.5.1M305 673q0 .9-1 1a1 1 0 0 1-1-1q.1-1 1-1t1 1m98.3 1.5q3.5 4.7-2.3 3.7c-2.3-.3-3-.9-3-2.6 0-4.3 2.6-4.8 5.3-1.1M294.5 676a2 2 0 0 1-1.2 1.7q-1.2.3-1.3-1.7 0-2 1.3-1.8 1 .6 1.2 1.8m-236.6 4.2q1.9 3 1 3.7c-1.4.4-5.9-3.9-5.9-5.6 0-2.4 2.8-1.3 4.9 1.9M437 679q0 .9-1 1a1 1 0 0 1-1-1q.1-1 1-1t1 1m7.8 4.8q.3 1.1-1.2.6c-.9-.3-1.6-1.1-1.6-1.6 0-1.3 2.3-.5 2.8 1m15-.6c-.6 1.8-2.8 2.1-2.8.4q.1-1.5 1.6-1.6 1.4 0 1.2 1.2M320 684.5q0 1.3-1 1.5-.9-.2-1-1.5c-.1-1.3.5-1.5 1-1.5q1 .2 1 1.5m151 5.2c0 1.3-2 1.9-2 .5l-.6-3.2c-.5-2.4-.5-2.4 1-.6a7 7 0 0 1 1.6 3.3m-370.5-2.8c.3.5-.4 1.3-1.6 1.6-2.3.8-3.4.1-2.4-1.4.8-1.3 3.2-1.4 4-.2m62.5 5q.2 1.9-2.1-.6-2-2-1.4-3.4t2.2.6a8 8 0 0 1 1.3 3.4m136.1-3.4c-.1 1.5-2.4 1.2-2.9-.3q-.4-1.4 1.2-1t1.7 1.3m190.9 2c0 1.6-3 4.8-3.8 4.1q-.3-.6.7-2t1-2.2q-.4-2.7 1.1-1.9 1 .6 1 2m-263-.5q-.1.9-1.1 1-.8-.1-.4-1 .6-1 1.1-1 .3 0 .4 1m13.5 0q.4.9-.4 1-1-.1-1.1-1 0-1 .4-1 .6 0 1.1 1m16 0c-.3.5-1.6 1-2.8 1q-2.6.1-.7-1c2-1.3 4.3-1.3 3.5 0m48.5 0q0 .9-1 1a1 1 0 0 1-1-1q.1-1 1-1t1 1m128 .9q0 1-1 1.6-.9.4-1-.9.1-1.5 1-1.6 1 0 1 .9m-387.2 1.3c-.6 1.8-2.8 2.1-2.8.4q.1-1.5 1.6-1.6 1.4 0 1.2 1.2m7 .7q.4 1.3-.9.9-1.2-.5-1.7-1.7-.4-1.3.9-.9 1.2.5 1.7 1.7m19.7-.9q.4.9-.9 1-1.5-.1-1.6-1 0-1 .9-1t1.6 1m132.6 1.3q-1.4 1.4-.5-.6.6-1.6 1.2-1.2.4.6-.7 1.8m10.1.9q-1.2 1.2-.5-1.3.6-2 1.1-1c.2.7-.1 1.8-.6 2.3m31.3-2.2q.5.9-.4 1-1-.1-1.6-1-.5-1 .4-1a2 2 0 0 1 1.6 1m193.1 1.7c-1 1-1.9-.5-1-1.8q.8-1.7 1.2 0 .3 1.2-.2 1.8m-405.1-.3c1.1 0 2.3.8 2.6 1.6 1.1 2.5-.2 3.2-2.2 1.4-1.7-1.5-2.4-1.6-5.4-.5-2.6.9-4 .9-5.6.1q-1.8-1.2-1.5-1.7.6-.4 2.1.7c1.8 1.5 4.5.6 4.5-1.6q0-1.7 1.8-.9c.9.4 2.6.8 3.7.9m87.5.1c1.1 1.3.8 1.5-2 1.5-2.9 0-3.2.2-2.8 2.5q.9 4.5-2.7.5c-1-1.1-2.4-2-3.2-2q-1.2-.1-1.3-1.1 0-1.2 3.5-.6t4.8-.8c1.6-1.8 2.2-1.8 3.7 0m-60 0c0 .2-1.1 1.5-2.5 2.9-2.4 2.4-2.5 2.4-3.5.5-.9-1.6-.7-1.9 1-1.9q1.8-.1 2-1t1.5-1c1.3 0 1.5.2 1.5.5m92.4.1q1.5.6 1.6 1.5c0 1.4-2.6 1-4-.6q-1.8-2.5 2.4-.9m16.6 2c0 1.6-.2 1.6-2.4.8q-1.9-.5-.5-2c1.3-1.6 2.9-.9 2.9 1.2m222 .4q-.1.9-1.1 1.6c-1.2.7-3.1-1.5-2.3-2.8.6-.9 3.4.1 3.4 1.2m-137-.1q-.1.8-1.5 1.5c-1.5.5-2-.5-.8-1.7.9-1 2.3-.9 2.3.2m-147.2 1.5q.3.6-.3 1.6-.7 1.2-2.6-.6c-1-.9-2.5-1.4-3.4-1q-1.6.6-.9-.5c.6-1 6.1-.6 7.2.5m103.6.1c-.7 1.6-2.4 2.1-2.4.6q-.2-1 2.7-2zm-166.3.5c3.4 0 3.8 1.5.8 3.1-1.8.9-2.4.8-3.1-.5a4 4 0 0 0-2.9-1.6q-1.8 0-1.4-1.1.8-1 2.2-.5c.8.3 2.8.6 4.4.6m92 1.7c-.9 3.5-2.7 4-3.3.9-.6-2.9-.2-3.6 2.3-3.6 1.4 0 1.6.5 1 2.7m64.6-1.2q.4 1.5.1 2c-.7.8-6.8-1.6-6.8-2.6 0-1.6 6-1 6.7.6m20.7-.7c.5.8-6.3 4.7-6.9 4-.6-.5 2-3.5 3.5-4.1 2.2-.8 2.8-.8 3.4.1m17.5.9c-.1 1 .2 2.8.6 4q.6 2.2-.3 2.3c-1 0-2.2-3.2-2.2-6.3q0-1.5.9-1.7 1 .2 1 1.7m40.1-.2q0 1.3-1 1.5-.9-.2-1-1.5c-.1-1.3.5-1.5 1-1.5q1 .2 1 1.5m11 1.1c0 2-3 3-4.1 1.3-1.3-2-1.1-2.7.9-3.2q3.2-.8 3.2 1.9m169.5-1.1q.9.2 1.3 1.7c.4 2.1-2.7 2.5-4.5.7-1.4-1.4-.5-4.1 1.1-3.2q1 .7 2.1.8m-395.1.4c.9 1.4-2.2 3.4-4.1 2.6-1.7-.6-1.7-.7.1-2.1 2.3-1.6 3.3-1.8 4-.5M163 700c0 2-2.5 3.8-3.6 2.7-.7-.6 1.8-4.7 2.8-4.7q.8.2.8 2m13.5 0c-.3.5-1.3 1-2.1 1s-1.2-.5-.9-1 1.3-1 2.1-1 1.2.4.9 1m131.5 2c0 2.3-1.8 3.6-3.2 2.2q-1-1 .2-3.1c1.3-2.4 3-1.9 3 .9m15.3.2c-.6 3-2.7 3.8-3.6 1.4-.4-1.1 3.2-4.9 4-4.2zm77.7-1.7q0 1.3-.9 1.5c-1.3 0-2.2-1.6-1.4-2.4 1.1-1.1 2.3-.6 2.3.9m72-.5q-.1.9-1.1 1-.8-.1-.4-1 .6-1 1.1-1 .4 0 .4 1m10.5 0c.7 1.1-4.2 3.7-5.1 2.7s1.5-3.7 3.2-3.7q1.3 0 1.9 1m-405.4 1.2c.6 6.5.3 8.1-1.8 8.9-1.7.6-2.2 1.7-2.5 6.4-.1 3.1.1 5.9.6 6.3 1.6.9 5.4-4.5 6.1-8.8l.7-4.2 2.9 2.8c2.8 2.7 2.9 2.7 4.9.9q1.8-1.5 2-.8-.1 1-1.5 1.7c-2.6.9-1.7 2.6 1.4 2.6 3.7 0 5 1.9 2.6 3.6q-1.9 1.3-1.7 5.2c.1 2.8-.4 4.4-1.8 5.7-2.5 2.3-4.9.6-4.3-2.9.7-3.3-.8-3.8-5.9-1.9-2.5.9-5.3 1.3-6.2 1-2.9-1.1-3.1-.8-3.1 5.6-.1 3.4-.4 6.8-.9 7.5q-.7 1.4 1.5 3.8c2.3 2.5 2 4.6-.4 2.6q-2.6-2.2-2.7 2.5 0 2.4 2.5 3.3 4.6 1.7.3 3.5c-2.9 1.2-3.4 4.7-1.2 6.9 1.5 1.6 1.5 1.8 0 3.5-1.3 1.5-1.5 2.6-.8 5.9.8 3.4.7 4.1-.8 4.5s-1.6 1.5-1.2 8.8c.2 4.9 1 9.4 1.9 10.7 1.1 1.8 1.2 2.7.3 3.8q-2.8 2.9-3-3.1 0-3.1-1.5-3.9c-1.4-.5-1.4-.9-.2-3.3 1.1-2.1 1.2-4.2.6-8.3-.4-3-.8-6.3-.8-7.3q-.2-1.5-1.3-1.7A48 48 0 0 0 52 784.2q.2.7 2.1 1.3c1.9.6 1.9.8.4 2.5-1.9 2.1-.6 3.5 2.5 2.5 2.8-.9 2.6 1.6-.5 5.3-3.2 3.8-3.2 5.2.3 5.2q2.8 0 1.3.9c-1.3.9-1.2 2.4.4 6.4.7 1.6-.1 1.7-12.1 1.5-12.1-.3-12.9-.4-12.9-2.3q.1-2-2.8-2.3-6-1-1.3-6.1c2.4-2.5 2.5-2.9 1-4.2-1.8-1.5-3.8-5.8-3.5-7.5 0-.6-.6-1.7-1.4-2.4a5 5 0 0 1-1.5-3.4c0-1.2-.7-3.2-1.7-4.5s-1.9-3.8-2.2-5.5c-.8-3.5-3.6-4.7-4.5-1.8-.4 1.1-.1 3.2.5 4.8 1.2 3.2 1.6 18.4.6 20.1-.4.6-.4 1.8-.1 2.7q.6 1.6-.8 1.6c-1.1 0-1.5-1.4-1.4-5.9.1-4.2-.4-6.4-1.6-7.8q-1.8-1.8-.7-3.6c.6-.9.8-2.5.5-3.5a83 83 0 0 1-.3-19c.4-7.5.3-8.2-1.4-8.2-2.3 0-2.5-1.3-.4-3 2.3-1.9 1.8-3.3-1-2.6-2.1.5-2.7.2-3.5-1.9-2-5.3-.1-11.3 2.2-7.1 1.2 2.2 3 1 2.3-1.6q-.6-2 1.2-4c1.8-2 1.7-2.1-.4-3.5-2.2-1.5-3.4-4.1-1.2-2.8.5.4 1.9-.1 2.9-1q2-1.7 3.7-1c1.7.6 1.7.7.1 1.9-2 1.5-2.4 3.6-.7 3.6q1 0 .5 2.4c-.5 2.4 0 2.8.9 3.6.9.7 1.3 2.1 1 3.1q-.5 1.8.2 1.9c1.7 0 3.3-2.4 3.3-5 0-3.4.4-3.7 4-3.2q3 .4 3 2.3.2 1.9 2.6 2.9c2.1.8 2.4 1.3 1.4 2.5-.6.8-1 3.1-.8 5.2.2 3.2 0 3.8-1.7 3.8q-1.9-.1-2.3-2c-.7-3.5-1.8-3.7-6.3-1.5-5.5 2.8-5.2 2.5-5.5 5.7l-.9 7.5q-1.1 7.6 3.2 7.8c2.2 0 2.7-2.9.7-5.1-1.3-1.5-1.5-2.2-.6-3.1q1.3-1.5 1.2 1c0 2.9 5.5 5.9 7.6 4.1 1.2-1 1-1.6-1.8-4-1.7-1.6-2.9-3.1-2.7-3.4.5-.5 4.2-.6 17.4-.5l12 .1c1.6 0 3.6.6 4.5 1.4s2.2 1.5 2.8 1.5q2.8.1-1.3 4c-2.8 2.7-2.3 4.4 1.1 3.6q4.5-1.2.2 2.4c-2.3 1.8-2.3 1.9-.3 2.5l3.9 1.7c2.6 1.4 4.5-.6 2.9-3-.6-1-.9-3-.6-4.5q.4-2.6-.6-2.7-1.2 0 .3-2.2c3.3-4.7 1.1-9.2-3.3-6.8q-2.1 1-2.1.1c0-.9 1.8-2 4-3.1 4.3-2.2 5.2-4.9 1.9-5.7-2-.6-2.1-1.4-.4-5.6q.8-1.7-1.1-1.7c-1.7 0-1.6-.3.4-1.8 2.1-1.6 2.2-2 .8-3.1q-1.6-1.3-5.2-.8-7.1 1.1-5.9 5.4c.5 2.1.3 2.3-2.2 1.7-4.3-1-5.5-2.4-4.8-5.6q.8-3-.9-2.8c-2 0-3.1-1.9-1.7-3.3 1.5-1.5 1.4-2-.9-4.7-2.4-2.8-2.8-5.9-.5-4 .8.7 1.5 1.9 1.5 2.6 0 2.3.2 2.2 7.1-3.5 3.9-3.3 4.9-3.1 4.9.9a7 7 0 0 0 2.3 4.7c3 2.8 8.5 5.5 9.1 4.5.8-1.3-2.3-5.2-4-5.2-2.2 0-1.7-1.8 1.2-3.6 1.9-1.3 2.8-1.4 3.7-.5 3.2 3.2 3.6-.7.7-6.3q-3.6-6.8 2.5-5.8c2 .3 2.5 0 2.5-1.5 0-3 2.9-4.9 3.1-2.1m-67.8 4.1c-.6 1-2.1 0-3.4-2.5-1.1-2-1.1-2 1.4-.2q2.3 1.8 2 2.7M32 702q0 .9-1 1a1 1 0 0 1-1-1q.1-1 1-1t1 1m180.6 1.7c-.7.7-2.6-.7-2.6-1.9q0-1 1.5.2 1.4 1.2 1.1 1.7m56.2-1.5q1.1 1.3 1.2 2.5c0 1.9-2.7.4-3.3-1.8q-.7-3.3 2.1-.7m-243.9 2.5q3.5 1.5 2.2 2.6c-.6.6-1.1 2-1.2 3.1q-.1 2-1-1.1c-.7-2.4-1.9-3.7-4.4-4.7-1.9-.8-3.5-1.7-3.5-2 0-.7 4.1.4 7.9 2.1M197 704q-.1.9-1.1 1-.8-.1-.4-1 .6-1 1.1-1 .3 0 .4 1m28 0q0 .9-1 1a1 1 0 0 1-1-1q.1-1 1-1t1 1m73.4.6c2.1.8 2 2-.1 2.8-1.7.7-3.6-1.2-2.7-2.6.6-1 .8-1 2.8-.2m-115.3 3.3q-2.2 1.7-1.5 3.4.4 1.6-.5 1.7c-1.4 0-1.4-5.3 0-6.7.6-.6 1.8-.9 2.6-.6 1.3.5 1.1.9-.6 2.2m75.2-2.3c.9 1-.4 3.4-1.8 3.4-1.7 0-2.8-1.7-2-3 .7-1.1 2.8-1.3 3.8-.4m21.7 3.6c0 1.4-1.9-.1-3.1-2.5-1.2-2.2-1.2-2.2 1-.3 1.1 1.1 2.1 2.3 2.1 2.8m134-3.2q0 .9-.9 1-1-.1-1.6-1-.4-1 .9-1 1.5 0 1.6 1m-208.2 2.2q-.6 1.2-1.8 1.3-1.6 0-1.7-1.3-.4-1.1 1.7-1.2 2 0 1.8 1.2m33.2 2.7q-.1.9-1.6 1.5c-2.2.9-2.4.8-2.4-.9q.2-1.3 2-1.5c1.8-.2 2 .4 2 .9m70 .1q0 .9-.4 1-.6-.1-1.1-1-.4-1 .4-1 1 0 1.1 1m108.3 2.4q-3.2 4.3-3.3 1.2c0-1.5 4-4.9 4.8-4.1.2.2-.4 1.5-1.5 2.9m74.7-.9q0 1.4-1 1.5-.9-.1-1-1.5c-.1-1.4.5-1.5 1-1.5q1 .2 1 1.5m-458.7 1c-.3 2-3.3 3.1-4.3 1.5q-.8-1.4-.3-2.3c.7-1.1 4.8-.4 4.6.8m261 2.8c-.7 1.1-2.3-1.2-2.3-3.3q0-1.8 1.5.4c.8 1 1.2 2.3.8 2.9m-84 1-1.6 3.2-.9-2.4c-1-2.7.6-5.3 2.7-4.4 1.2.4 1.2 1-.2 3.6m75.1-2.8c1.6 1.2 1.7 1.8.7 2.8s-1.5.8-2.7-.7c-2.6-3.6-1.5-4.7 2-2.1m-90.4-.1q-.2.5-1.7 1.7-2.4 2-.4-.4 2-2.5 2.1-1.3m8 1.6c-1.6 1.1-4 1.3-4 .5s4.4-2.4 5-1.8q.3.4-1 1.3m26.4-.5q-3.6 2.9-3.4 0 0-1.5 2.7-1.5c2.6 0 2.6.1.7 1.5m87.6-.5q-.1.9-1.1 1-.8-.1-.4-1 .6-1 1.1-1 .4 0 .4 1m166.2 1.5q-.1.9-1.1 1.3-1 .2-1.1-1.3c-.1-1.5.5-1.5 1.1-1.3q1 .4 1.1 1.3m-335.1 1.2c2.2.3 3.9.1 4.3-.6 1-1.6 7.2 4.8 6.8 6.9q-.2 1.8 1.8 2.3 2.3.5 1.8 2.9-.4 2-1.3 2.2l-4.4-.8c-3.1-.5-3.7-.2-7.5 4-4.1 4.5-4.1 4.5-3.7 11.7.1 4 .8 7.8 1.3 8.4 1.5 1.9 4.9 1.6 6.4-.5 1.8-2.3 1.7-.2-.2 4.3-1.1 2.8-1.2 4-.4 4.9q1 1.3 3.6-1.7c2.1-2.5 2.4-2.6 2.4-.8 0 1.1-.6 2.4-1.4 2.8s-1.9 1.8-2.5 3.1c-1 1.9-1.5 2.1-2.7 1.1q-2.8-2.1-5.4 4.1c-1.6 3.8-.7 6.8 1.5 5 .9-.8 1.3-2.1 1-3.1-.8-2.3 1.7-2.6 3.5-.4 1 1.2 1 2.1.2 4-.9 2-1.8 2.5-4.4 2.3-2.9-.3-3.3 0-3.3 2.2s.5 2.5 4 2.8c3.4.2 4.3.8 5.4 3.3s1.1 3.3-.3 5.5q-2.8 4.3 1.5 4.4c2.5 0 2.4 1.6-.2 3-2.5 1.4-2.2 1.6-3.8-4l-1.9-7c-.4-1.4-2-3.1-3.5-3.8l-2.7-1.3v-12.1c0-10.3-.2-11.9-1.5-11.4q-1.7.8-.9-1.8.6-2.5-1.2-3.4c-1.5-.9-1.7-1.5-.8-3.9.8-2.2.7-3.3-.5-5.2-.8-1.3-1.5-3.5-1.6-4.9 0-2-.8-2.8-3.3-3.6q-7-2.5-3.2-6.6c1.9-1.9 1.9-2.2.5-4.4-1.7-2.6-1.1-5.6 1.3-5.6.8 0 3.2 1.8 5.3 4s4 4 4.3 4c.8 0 4.2-7.7 3.8-8.8-.2-.7-1.4-1.2-2.7-1.2s-2.7-.5-3-1c-1-1.6.5-3.2 2.4-2.5.9.4 3.2.9 5.2 1.2m323.9-1.3q0 .5-1 1.1-.9.4-1-.4.1-1 1-1.1 1 0 1 .4M243.4 721c2 .1 2 .1.3 1.5-3.3 2.4-8.9-1.3-6.5-4.3 1.1-1.2 1.4-1.1 2.6.7.8 1.1 2.4 2.1 3.6 2.1m186.3-2.3q.2 1-1.3 1.7-3 1.3-1.8-1.8c.7-1.8 2.5-1.7 3.1.1M193 723q.9.2 1 2c.1 1.8-.3 2-.8 2-1.4 0-7.2-7.1-6.6-8.1.3-.6 1.6.1 2.9 1.6 1.3 1.4 2.9 2.5 3.5 2.5m28.5-4.1c1.1.2-2.8 5.1-4 5.1-1.7 0-3.8-2.7-3.2-4.2.3-1 4.6-1.6 7.2-.9m46.5.1q2 1.1-.2 1c-.9 0-2-.5-2.3-1-.8-1.3.5-1.3 2.5 0m155 .1c0 1.7-3.4 2.7-5.7 1.6q-5-2.2 1.7-2.3c2.2-.1 4 .2 4 .7m-15 1.4c2 2.4.6 2.8-1.5.5q-1.5-1.8-.8-2 1 .2 2.3 1.5m-201.5.5q-.7.9-1.6 1-.9-.1-.4-1a2 2 0 0 1 1.6-1q.9 0 .4 1m57.7 6.9c-1.2 3.4-.3 7.4 2.1 8.8 1 .6.6 1.4-2 3.6-3.1 2.7-3.3 2.7-3.3.9 0-1.2.5-2.4 1-2.7 1.6-1 .4-14.8-1.5-16.1q-1.3-1-.8-1.8c.4-.4 1.8.4 3.1 1.8 2.2 2.1 2.3 2.8 1.4 5.5m57.8-6.4c-.4 1-7 3.7-7 2.9 0-.2.8-1.3 1.8-2.4 1.7-2 6.1-2.4 5.2-.5m156-.5q0 .9-1 1a1 1 0 0 1-1-1q.1-1 1-1t1 1m-252 2.3c0 1.3-.9 3.2-2 4.2-1.9 1.7-2 1.7-2.6 0q-.7-1.7.9-2.7c1-.5 1.7-1.6 1.7-2.3q.1-1.3 1-1.5c.6 0 1 1.1 1 2.3m74.7.4c-.9.9-2 1.3-2.4.9q-.5-.8 1.1-2.2c2.5-1.8 3.5-.8 1.3 1.3m-185 .5q-.5 1.1-.6-.6t.5-1.3c.3.3.4 1.2.1 1.9m137.3-1.8c0 1.1-1.9 1.5-2.5.6q-.4-.9.9-1 1.5 0 1.6.4m186.8 4.6c-.1 2.8-1.8 3.3-1.8.5 0-.8-.8-1.9-1.7-2.4-1.6-.9-1.6-1.2-.3-2 2.1-1.4 3.9.5 3.8 3.9M308 723.4c0 1.1-1.9 1.5-2.5.6q-.4-.9.9-1 1.5 0 1.6.4M200 725q0 .9-1 1a1 1 0 0 1-1-1q.1-1 1-1t1 1m89.5 0q.4.9-.4 1-1-.1-1.1-1 0-1 .4-1t1.1 1M182 729.9c0 .8 1.5 2.8 3.3 4.4q3 2.7 1.4 2.3c-1-.3-2.2-.6-2.7-.6-1.2 0-4-5.9-4-8.4q-.1-2.5 1-.6c.5.8 1 2.1 1 2.9m217.5-2.9q.4.9-1.4 1c-1.1 0-2.5 1-3.2 2.1-1.3 2.6-3 .9-2.2-2.2.6-2.1 5.7-2.7 6.8-.9m16.4 2q3-1.4 3.1 1.6.2 1.5-3.2.2l-5-1.5c-1.5-.4-1.8.1-1.8 2.8 0 3.1-.1 3.2-1.7 1.6s-1.5-1.8 1.2-4.7 2.9-2.9 4.2-1c1.1 1.5 1.8 1.8 3.2 1m-201.2.6c-.9.9-2.8-.6-2.1-1.8q.6-1 1.7.1 1 1 .4 1.7m274.1 2.6q1.3 1.7.8 1.8c-.7 0-4.6-1.9-5.4-2.5-.2-.2.3-1.3 1-2.4 1.2-2 1.3-2 1.7-.4.1 1 1 2.6 1.9 3.5M249.5 729c1.1 1.8-2.6 2.3-4.3.6-1.5-1.5-1.4-1.6 1-1.6 1.5 0 3 .5 3.3 1m60.5-.5c0 .6-6.1 3.2-9.2 3.9q-3 .8-2.8-.8.1-1.5 3.8-2.1l4.7-1c1.5-.5 3.5-.6 3.5 0M102 730q-.1.9-1.1 1-.8-.1-.4-1t1.1-1q.3 0 .4 1m126.5 3.2c-.8 3.6-2 5.5-2.7 4.1-.6-.9 1.9-7.3 2.8-7.3.3 0 .3 1.5-.1 3.2m264.7-1q-1.1 1-1.9.4-.6-.7.7-1.6c1.9-1.2 2.7-.3 1.2 1.2m-411.6.5q3 4-.6 2.1-1.8-1.2-2-2.5.1-2.6 2.6.4m95.9 1.5q1 .9-1.9.6c-1.6-.2-3.1-.9-3.4-1.7q-.6-1.4 1.9-.6c1.3.4 2.9 1.2 3.4 1.7m30-1.2c.4.6 0 2.2-.9 3.5a10 10 0 0 0-1.6 4.5q0 2-2 2c-1.1 0-3.9 1.8-6.2 4.1-4.6 4.5-6.5 3.6-2.8-1.3l2.2-3-3.6-3.7c-2-2.1-3.4-4-3-4.3.3-.4 3.7-.4 7.5-.1 5.8.5 7 .3 7.5-1.1.7-1.8 2-2.1 2.9-.6m194.5-.4q-.2.8-1.7 2c-1.7 1.3-1.7 1.5-.1 2.7q1.6 1.4 1.1 2c-1.1 1.1-3.3-1.4-3.3-3.8q0-3.1 3.3-3.4.6 0 .7.5m-124.5 1.9c0 .5-1.9 1.1-4.2 1.3-3.6.3-4.2.1-3.7-1.3q.6-1.7 4.3-1.3c2 .2 3.6.7 3.6 1.3m115-.5q.4.9-.4 1-1-.1-1.1-1 0-1 .4-1t1.1 1m-295.7 2.6c.8 1.5.9 3.2.3 4.1-1 1.8-1.6 1-2.6-3.5-.8-3.8.7-4.3 2.3-.6m161-.9q-.5 1.7-2.3 2-1.7.2-.7-.3t1.2-2c.2-1.4.5-1.4 1.1-1.4q1 .2.7 1.7m64.2.3q0 .9-.4 1-.5-.1-1.1-1-.4-1 .4-1 1 0 1.1 1m-158 2.3q-.1 4.5 3.1 2.6 1.8-.8 1.9-.2c0 .5-1.8 1.6-4 2.6q-6 2.5-3 5.3 1 1-1 2.9c-2 1.8-2 1.7-2.6-1.3-.4-1.8-1.3-3.2-2-3.2q-1.3-.1-1.5-1.3l-.4-3.5c-.3-2.9 1.1-3.8 1.8-1.2q1.2 4.4 4-1.5c1.9-4 3.7-4.6 3.7-1.2m251.8.1q.5 1.9-1.4 1.4t-2.2-2.2q-.5-1.9 1.4-1.4t2.2 2.2m-324.3.9c.9 1.4 1.5 4.3 1.4 6.8-.1 2.4.1 5.5.6 6.9l.7 2.5-2.8-2.8c-2.6-2.6-2.7-3-1.3-4s1.5-1.4-.2-5.5c-1-2.4-1.9-4.8-1.9-5.3 0-1.7 2-.9 3.5 1.4m16.1 2.6c1.4 2.3 2.4 4.8 2.2 5.4s.6 3 1.6 5.2c.9 2.1 1.5 4.6 1.4 5.4-.4 1.8-2.8 2.7-2.8 1 0-2.8-4.3-5.9-8.2-5.9-2.1 0-3.8-.4-3.8-1s1.1-3.5 2.5-6.6 2.5-6.3 2.5-7.1c0-2.5 2.1-.9 4.6 3.6m223.9-2.8c-.8 1.2-5.5 1.2-5.5 0 0-1 3.9-2 5.3-1.3q.6.4.2 1.3M485 738q0 .9-.9 1-1-.1-1.6-1-.4-1 .9-1 1.5 0 1.6 1m-174.7 2.6 1.9.3q1.3 0 .1 1.2-1.2 1-3 .4c-1-.5-2.4-.7-3-.6q-1.2.1-1.3-.8c0-1.2 2.2-2 3.5-1.2zm65.7.9q0 1.3-1 1.5-.9-.2-1-1.5c-.1-1.3.5-1.5 1-1.5q1 .2 1 1.5m-241 3.7c.7 1.8 1.5 3.6 1.8 4q.1.8-2.1.8c-2.2 0-2.4-.4-2.3-4 .1-4.8.7-5 2.6-.8m96.8-2c.5.7.6 2.1.3 3.2-.7 1.7-.9 1.6-2.4-.7-.9-1.5-1.7-2.9-1.7-3.2 0-1 2.8-.5 3.8.7m16.2-.2q-.1.9-1.1 1-.8-.1-.4-1 .6-1 1.1-1 .3 0 .4 1m161.5 7.7c-.9 2.1-1.1 2.1-2.2.6-.7-.9-1.3-2.5-1.3-3.5s-.5-1.8-1.2-1.8q-.9-.1.7-2.1c1.9-2 1.9-2 3.5 1.3 1.1 2.5 1.3 3.9.5 5.5M151 745.6q0 1.3-1 .9c-.5-.3-1-1.3-1-2.1s.5-1.2 1-.9 1 1.3 1 2.1m66.6 3.1q-.7.5-2.2-.1c-1.6-.6-1.5-.8.2-2.1 1.6-1.2 1.9-1.2 2.2.1q.3 1.5-.2 2.1M255 746c1.3.9 1.2 1.2-.4 2.5q-3.7 3-3.6-.3 0-4.7 4-2.2m-216 1.4q-.2.4-1.5 1-1.3.4-1.5-.4.2-1 1.5-1c1.3 0 1.5.2 1.5.4m203.4 3.1q-.6 1.3-.9 1.5-.3-.2-.9-1.5-.5-1.4.9-1.5c1.4-.1 1.2.6.9 1.5m25.3 0q.9 3.1-2.1 2.2a2 2 0 0 1-1-2.2c.8-1.9 2.3-1.9 3.1 0m51.3 3.4q.1.9 1.5 2.1c2.1 1.7 1.9 3-.5 3q-2.1.1-2-2.5a5 5 0 0 0-1.9-3.7c-1-.6-1.7-1.7-1.4-2.4q.4-1.4 2.4.7c1 1 1.9 2.3 1.9 2.8m-234.6.2q1.2 8.9 3.3 10.4c1.6 1.2.8 4.1-1.4 4.9-2.1.8-8.3-3.2-8.3-5.4 0-.9.6-2.3 1.4-2.9s1.6-3 2-5.3q1.8-10.4 3-1.7M430 752q0 .9-.4 1-.5-.1-1.1-1-.4-1 .4-1 1 0 1.1 1m-294.6 3.2c1.3 5.9 1.2 9.8-.2 9.8q-1.3.2-1.9 2l-.6 2.1-1.4-2.1c-.8-1.1-2.5-2-3.9-2s-2.4-.5-2.4-1q.1-1 1.9-1 3.8 0 4.8-6.4c.6-4 3-4.9 3.7-1.4m192.9-.8q3.4 2.7-.3 1.9c-2.5-.7-4.9-3.3-2.9-3.3.8 0 2.2.7 3.2 1.4m-201.8 1c1.7 1.2 1.8 1.7.7 4.1l-1.2 2.7-1.9-2.4c-2.5-2.9-4.1-1.5-3.4 3q.6 3.2 2.9 4.9c1.3.8 2.4 2.2 2.4 2.9 0 2.5 4.2 3.7 8.6 2.5 5.4-1.5 6.3-.2 3.7 5.3-1.6 3.2-1.9 4.6-1.1 5.4q1.2 1 .1 3.5c-.9 1.9-.8 2.8.4 4 1.4 1.4 1.4 1.7-.1 3.8q-3.6 5.4.9 4.5 2.6-.8 1.9.7c-.3.8-.6 3.1-.7 5.3q-.3 3.9-1.7 3.9-1.4-.2-1.5-1.5c0-2.4-4.2-2.4-5.5-.1-.9 1.8-2 2.1-7 2.1-6 0-7-.6-4.8-2.8 1.5-1.5.4-2.6-1.8-1.8-.9.3-1.4 1.3-1 2.1.7 2-1.2 2.9-3 1.4-1.2-.9-2-.9-3.9.1-2.5 1.4-6 .7-5-1 .3-.5 1.7-1 3.1-1 1.3 0 2.4-.5 2.4-1.1 0-1.8-6.1-8.7-8.3-9.3q-2.5-.5-1-1.7c.7-.7.9-2.4.6-4q-.5-2.8.6-2.9c1.2 0 1.2-4.9-.1-6.6-.4-.6-.6-2.7-.4-4.7.4-2.9.1-3.8-1.9-5.1A9 9 0 0 0 96 770c-1.2 0-1.4 4.3-.3 5.4.5.4.9 4.4 1 8.9s.3 10 .6 12.1l.6 3.9-2.1-2.1q-2-2-1.3-3.9c1.3-3.1-.6-19.3-2.6-21.9-.5-.6-.3-1.9.5-3 .7-1 1.7-4.7 2.1-8.2q1.2-9.7 2.8-4c.4 1.3 0 2.9-.9 3.9-2.2 2.4-1.4 5.8 1.9 8.2 2.2 1.7 3 1.8 4 .8s.8-1.5-1-2.9c-2.7-2.1-2.2-5.7 1-6.6 3.1-.8 3.8.2 3.1 4-.6 3-.4 3.4 1.6 3.4 1.2 0 3 .4 4 1q1.8 1.1 3-.5c1-1.2.9-1.6-.2-2-.8-.3-1.9-.5-2.4-.4q-3.9.7.6-2.6c1.9-1.4 3.5-3.3 3.5-4.3s1.6-2.4 3.5-3.4c4.3-2.1 5.1-2.2 7.5-.4m-49 .6q.4.9-.4 1-1-.1-1.1-1 0-1 .4-1 .6 0 1.1 1m86.6 6.2q1.8 3-.4.9-1.6-1.2-1.7-2.2.2-2.2 2.1 1.3M483 764q0 .9-.4 1-.5-.1-1.1-1-.4-1 .4-1 1 0 1.1 1m-404 9c1.2 2.2 4 2.6 5.7.9.6-.6 2.1-.9 3.4-.7l2.4.3-2.3 2.3c-1.7 1.7-3.1 2.3-5 1.9a8 8 0 0 0-4.5.4c-1.5.9-1.7.7-1.2-1.4.4-1.4.2-2.8-.4-3.1q-1-.7-1.1-1.7c0-1.6 1.9-1 3 1.1m-72.9 3.3q-1.1 1.2-1.1-.9c0-2.7 1.4-4.1 1.8-1.9.2.9-.1 2.2-.7 2.8M479 774q-.1.9-1.5 1c-1.4.1-1.5-.5-1.5-1q.1-1 1.5-1c1.4 0 1.5.4 1.5 1m-292.4 6.7c-1 1-1.9-.5-1-1.8q.8-1.7 1.2 0 .3 1.2-.2 1.8m297.9-1.7q-.6.8-2 .3-3.1-1.2.6-1.3 1.8 0 1.4 1m-394.9 2.9c-1.4 1.6-1.5 2.3-.5 3.8.9 1.6.8 2.5-.6 4.7-1 1.5-2.6 3.1-3.6 3.7q-3.7 2 .2 5.5c1.8 1.6 1.9 2 .5 3-.9.6-2.7.9-4.1.6-2.8-.5-4.4-2.2-2.2-2.2 2.1 0 2.8-2.6 1.1-4.1-.8-.7-2-2.1-2.5-3.2q-1.5-2.2 1-1.2 2.1.6 2.8-1 .5-1.7-.4-2.4a5 5 0 0 1-1.6-2.5q-.7-1.9-3.1-1.4c-2.5.5-6.4-1.7-5.2-2.9.4-.4 1.6-.2 2.7.5 1.7 1.1 2.5 1.1 4.3-.1a7 7 0 0 1 4.8-1 7 7 0 0 0 4.9-1.1c2.9-2 3.8-1.2 1.5 1.3m390.1 1.7q-.6.5-1.9.1-1.1-.5.6-.6t1.3.5M162 790.1c0 1 .5 2.1 1 2.4a2 2 0 0 1 1 1.7c0 1.3-3.8-2-5.1-4.5-.6-.9-.7-2.2-.4-2.8.9-1.4 3.5.9 3.5 3.2m328-1.9c0 .4-2 .8-4.5.8s-4.5-.4-4.5-.8 2-.9 4.5-.9 4.5.4 4.5.9m-348.8 3q-1.1 1-1.2.2c0-1.4 1.2-2.6 1.9-1.9q.3.6-.7 1.7m328.5 4q-.5 1.1-.6-.6t.5-1.3c.3.3.4 1.2.1 1.9M165.2 801c2.7 1.6 2.9 2 1.5 2.6-1.7.6-5.7-2-5.7-3.8 0-1.2.6-1 4.2 1.2M9.5 805c-1.9 2.1-4.5 2.7-4.5 1 0-1 5.2-4.1 5.9-3.4.2.2-.4 1.3-1.4 2.4m86.3 0c1.3 1.7 2.1 3.4 1.7 4-.8 1.3-14.5 1.3-14.5 0q.1-1 1.3-1.1l3.4-.4c3-.3 5.5-2.5 4.9-4.2-.9-2.2.8-1.3 3.2 1.7M27 808q1.8.9-1.4 1.6c-2.2.5-3.3.2-4.9-1.6l-2.2-2.2 3.5.7c1.9.4 4.2 1.1 5 1.5m-11.2.2c-.5 1.5-4.8 2.4-4.8 1s1.2-2.2 3.3-2.2q1.7 0 1.5 1.2m60-.2q5.7.1 4.2 1c-2.5 1.4-12.3.7-12.8-.9q-.5-1.5 1.2-.8c1 .4 4.3.7 7.4.7m213 .7c-1 .2-2.8.2-4 0q-1.8-.4 1.7-.4 3.5-.1 2.3.4"/><path d="M345.4 636.4c-1.5 1.2-1.6 1.7-.7 2.7s1.5.9 2.8-.1c1.6-1.3 2.1-4 .7-4a7 7 0 0 0-2.8 1.4m14.1-.4c-.3.5-1.5 1-2.6 1q-1.7.2-1.9 1.5c-.2 1.3.7 1.5 1.5 1.5 1.9 0 6.5-2.9 6.5-4.1s-2.7-1.1-3.5.1m20 10.9c-.7 1.2 1.2 2.4 2.5 1.6 1.1-.7.4-2.5-1-2.5q-.8 0-1.5.9M377 653q.2.9 1.8 1 2.2.2 2.9 1.1 1.2 1.2 1.7 0c1.1-1.8-.3-3.1-3.5-3.1-1.6 0-2.9.4-2.9 1M31 757.5c-1 1.2-.9 1.6.5 2.1 1.9.8 4-.9 3.1-2.5q-1.4-2.3-3.6.4m11.5-.6c-4.3.9-4 3.6.5 3.6q6 0 6-3.1c0-1.5-1.5-1.6-6.5-.5m-12.3 7.3q-2.7 2.8.8 2.8 2 0 2-2 0-3.5-2.8-.8m-8.7 1.8q-.6 1.2.3 2.2c1.4 1.4 4.5.2 4-1.5s-3.4-2.1-4.3-.7m31.2.6c-1.3 1.3-.7 2.4 1.4 2.4q1.8 0 1.7-1.2c-.5-1.4-2.2-2.1-3.1-1.2m-26.3 3.6c-.9 1.5 2.7 4.1 3.9 2.9 1.3-1.3.1-4.1-1.7-4.1-.8 0-1.8.5-2.2 1.2m6.6.8c-1.3.8-1.3 1.1.2 2.7 2.1 2 4.5.5 3.5-2.1-.7-1.8-1.6-2-3.7-.6m9.3 2.2q.5 1.2 1.7 1.3c1.2.1 1.5-.6 1.8-1.3q.2-1.1-1.8-1.2c-2-.1-2 .5-1.7 1.2m9.2 1.8c-1.1 1.7.5 3.2 2.1 1.9q1.2-1 .8-2c-.7-1.2-2.1-1.1-2.9.1m-14.4 1.9q-1.2 1-.7 2c.9 1.3 3.3 1.5 4 .2.9-1.4-1.8-3.1-3.3-2.2m-11.7 3.2c-.8 1.4 1.4 2.9 3.3 2.2q1.2-.6 1.3-1.9c0-1.7-3.6-1.9-4.6-.3m6.6 6.3c-1.9 2.3-.5 5 2.3 4.2 1.2-.3 3.2-.6 4.5-.6q2.2 0 2.2-2c0-2-.7-2-2.4-2-1.3 0-3.1-.2-3.9-.5s-2 .1-2.7.9m12.2 1.3c.4 2.2 4.3 2.5 4.3.3 0-.8-1.1-1.6-2.3-1.8-1.9-.3-2.3 0-2 1.5m-9.8 8.5c-1.5 2.3-1.5 5.6 0 6.1 2 .8 3.8-1.7 3.4-4.4-.4-2.6-2.3-3.6-3.4-1.7m11.3-.6c-1.4 1.4-.7 3.5 1.1 3.2q1.5-.5 1.7-1.7c0-1.6-1.8-2.5-2.8-1.5m-1.2 7.4c-.3.6-1.6.8-2.9.4-2.9-.7-5.8 2.2-3.1 3.2 1 .4 2.5.2 3.4-.3q1.8-1.1 3.5-.1c2.2 1.2 4.1-.3 3.3-2.6-.7-1.8-3.3-2.1-4.2-.6m7 2.9q-.4.9.5 1.6c1.2.7 3-.2 3-1.6 0-1.2-2.7-1.2-3.5 0m85.1-74c-.3.4.6 1.8 1.9 3.1 2.2 2 2.5 2.1 3.1.6 1.1-2.9-3.4-6.3-5-3.7m9.4 30.6q.1 1.3 1 1.5 1-.2 1-1.5c0-1.3-.4-1.5-1-1.5q-.9.2-1 1.5m-40.8 10.7c-1.7 1.7-1.5 4.5.3 5.2.8.3 2.1-.4 2.9-1.6 2.5-3.5-.2-6.6-3.2-3.6m17.4 7.7c-.9 1.4.4 4.1 1.9 4.1q1.3.1 2.5 1.4c1.8 2.3 3.6.9 3.7-2.9.1-3.4 0-3.5-3.7-3.5-2.2 0-4.1.4-4.4.9m-18.2 1.2c-1 1.7 1.3 3.6 2.7 2.2 1.2-1.2.4-3.3-1.1-3.3q-.9.1-1.6 1.1m10 2c-.9 1.5 1.2 3.3 3 2.6q1.5-.7 1.6-2.2c0-1.7-3.5-2.1-4.6-.4m-9 9.4c-.8 2 .4 3.5 2.7 3.5q2 .1 1.9-2.5c-.1-2.6-.5-2.5-2-2.5-1.1 0-2.3.7-2.6 1.5m8.1.9c-1.6 1.1-1.6 1.4-.3 2.7.8.7 1.3 2.1 1 3.1-.5 2.2 2.5 3.5 4.1 1.9.9-1 .8-1.5-.5-2.5q-1.6-1.2-.7-2.8c1.3-2.4-1.2-4.2-3.6-2.4m6.8 2.1q-.5 1.5 0 2.2c1 1 3.7-.6 3.7-2.2 0-2-2.9-2-3.7 0m11.1 3.6c-.9 1.6 1.2 3.3 3.1 2.5 1.4-.5 1.5-.9.5-2.1q-2.2-2.7-3.6-.4m-49-14.6q-.5 1.5 0 2.3c.9.8 4.2-1.2 3.9-2.4-.4-1.6-3.3-1.6-3.9.1m275.7-186.1q-1 1.4-.3 2 1 .3 2.1-.8 1-1.4.3-2-1-.3-2.1.8m20.2 1.8q.5 1.2 2.2 1.3 1.7-.1 2.3-1.3.3-1.1-2.3-1.2t-2.2 1.2m-52.3 1.3q.1 1.3 1 1.5 1-.2 1-1.5c0-1.3-.4-1.5-1-1.5q-.9.2-1 1.5m136.4 30.9c-.3.8.4 3 1.7 4.7l2.3 3.2-2.2 1.5c-2.5 1.7-2.9 3.2-.8 3.2 1.8 0 6.6-4.3 6.6-5.8 0-.6-.8-1.7-1.9-2.4s-2-2.2-2.2-3.2c-.5-2.5-2.7-3.2-3.5-1.2m8.6 3.6q.1.9 1.5 1c1.4.1 1.5-.5 1.5-1q-.1-1-1.5-1c-1.4 0-1.5.4-1.5 1m8.3.2q-4.3 2-1.7 5.7c2.2 3.1 8.1 2.9 9.5-.3 2.3-5-2.2-8.1-7.8-5.4M425 649.6q0 1.4 1.2 1.2c1.8-.6 2.1-2.8.4-2.8q-1.5.1-1.6 1.6m-177.8 5.2c-3.7 3.1-4 4.7-1.1 6.2 1.6.9 1.8 1.4.8 2.6q-1.3 1.5-.1 2.6c.9.9 1.8.6 3.7-1.2 3-2.8 3.2-4 .5-4.7q-3.5-.8-.6-3.2c1.8-1.5 2.7-5.1 1.3-5.1-.7 0-2.7 1.3-4.5 2.8m-161.9 4.9c-.3 1-1.7 3-3.1 4.5l-2.5 2.7 4.2 4.2 4.2 4.2 2.4-2.3q5.3-4.8-1.2-5.2-3.8-.3-3.8-1.8c0-1.1.9-1.4 3.7-1.2 4.4.3 5.8-1.3 3.2-3.8-3-2.8-6.3-3.5-7.1-1.3m-49.1 4.5q-1 1.3-.2 2.8t-.1 3.2c-.7 1.3-.4 2.1 1.7 3.4 2.4 1.6 2.8 1.6 5.2.1 3.7-2.2 3.4-4.1-.8-4.8-3.2-.6-3.3-.7-1.2-1.4q2.2-.8 2-2.4c-.4-2-5.1-2.7-6.6-.9m32.3-.3c-.7 1.2 1.2 2.4 2.5 1.6 1.1-.7.4-2.5-1-2.5q-.8 0-1.5.9m183 5.2q-.6 1-.2 1.6c.7.7 2.7-.6 2.7-1.8s-1.7-1.2-2.5.2m195.8 2.5c-.8 2.1 1.3 4.2 2.8 2.7 1.3-1.3.5-4.3-1.1-4.3q-1 .1-1.7 1.6m-373.8.5c-1 1.5.3 2.5 1.6 1.2q1-1 .1-1.7-1-.4-1.7.5m150.9 1.4c-1.6 2.5-1.3 5.5.6 5.5 1.1 0 3-4.1 3-6.6 0-2.2-1.8-1.7-3.6 1.1m25.6 1q-1.4 1.6-.2 2.7c1.5 1.5 4.4.2 4-1.9-.4-2.3-2.2-2.7-3.8-.8m-91.3.7c-.7 2.3.4 4.5 2.9 5.8 2.9 1.6 4.3.6 2.6-1.8a13 13 0 0 1-1.8-3.5c-.7-2-3-2.3-3.7-.5m42.8.7c-.3.5-.1 1.3.5 1.6q1 .8.5 2.6-.9 2 1.7 1.9c2.4 0 4.8-1.6 4.8-3.2q-.2-.7-2-.8c-1.8-.1-2-.7-2-1.5 0-1.6-2.5-2.1-3.5-.6m-70 3.1q-.5 1 0 2c.8 1.3 3.5.1 3.5-1.6 0-1.6-2.6-1.9-3.5-.4m123.5 0q.1.9 1.5 1c1.4.1 1.5-.5 1.5-1q-.1-1-1.5-1c-1.4 0-1.5.4-1.5 1m-65.8 4.2c-1.7 1.7-1.5 4.8.3 5.4 1.6.6 7.5-3.5 7.1-5-.3-1.4-6.1-1.7-7.4-.4m-40.7 2.8c-.8 1.3.4 3.2 1.6 2.5s1.2-3.5 0-3.5q-1 0-1.6 1m190 40q-.4 1 1 1.6c1.9.8 3 0 2-1.5-.8-1.4-2.2-1.4-3-.1m29.5 3.4q.1 1.5 1 1.6 1 0 1-.9t-1-1.6q-.9-.4-1 .9m81.4 2.3-1.6 4.5c-.9 2.4-.3 10 .9 12.1q.6.7 2.4-.9 2-1.7.9-3.3-1-1.7.7-3.3c1.5-1.7 1.4-1.8-.5-1.8-2.3 0-3.2-3.3-1.2-4.5 1.3-.8 1.3-4.5 0-4.5q-1 .2-1.6 1.7m.3 19.1q-3.3 3.4.2 3.2c2.2 0 4.5-2.5 3.6-4q-1.2-2.2-3.8.8m40 3.8c-1.4 1.4-.7 3.5 1.1 3.2q1.5-.5 1.7-1.7c0-1.6-1.8-2.5-2.8-1.5m-40.9 1.5c-2.1 1.2-2.4 3.9-.5 3.9 1.7 0 3.7-2 3.7-3.7q.1-2.3-3.2-.2M245.5 759q-1.2 2.3 2.5 3.3 2.1.5 2.7-1c1-2.4-3.8-4.6-5.2-2.3m144.9.1c-.8 1.4 2.1 4.3 3.5 3.5 1.9-1.2 1.3-4.6-.8-4.6-1.1 0-2.3.5-2.7 1.1m18.9.7c-3 3-.9 8.2 3.3 8.2 2.4 0 8-7.2 7-8.9-.9-1.4-8.6-.9-10.3.7m27.1-.3c-.4.9-.2 2.1.4 2.7 1.5 1.5 4.4.1 4-1.9-.4-2.3-3.6-2.9-4.4-.8m-240.4.9c0 1.9 2.3 3.6 3.8 2.7.7-.4 1-1.5.6-2.4-.7-2-4.4-2.3-4.4-.3m88-.4c-.8.5-2.9 1-4.7 1-1.7 0-3.4.4-3.8.9-.9 1.5 3.3 3.3 5.8 2.5 3.1-1.1 7.1-.5 8 1.2s3.3 1.9 4.2.4c1-1.6-1.4-5-3.5-5-1 0-2.2-.5-2.5-1-.8-1.2-1.6-1.2-3.5 0m117.4.5c-.4.9-1.7 2.1-3 2.5-3.2 1.2-2.1 4 1.6 4q4.7 0 5.2-5c.4-2.9-2.9-4.1-3.8-1.5m-193.9.4c-.6.5-2.1 1.1-3.4 1.3-2.9.4-4.1 2.8-1.3 2.8 1 0 2.2-.3 2.6-.7s1.9-.7 3.4-.8q2.6 0 3-1.8c.4-1.8-2.6-2.4-4.3-.8m17.8-.2c-2.1.7-1.5 3.3.7 3.3q1.8-.1 2-1.4-.1-2.7-2.7-1.9m70.7.9q-1.5 1.5-.3 3.2c1.7 2.7 3.8 2 3.8-1.2 0-3.4-1.6-4.4-3.5-2m169-.6q-1.6.9-.4 2.7c1.5 2.4 3.3 2.8 4 .8.9-2.3-1.6-4.7-3.6-3.5m-212 2.4q-.1 2.2 3.8 1.7 1 0 1.2.9c0 1.3 4.7 1.3 5.6-.1q1.6-2.5-5.9-3.5c-3.9-.6-4.7-.4-4.7 1m49.4.1c-.8 2.1.3 4.5 2 4.5 1.8 0 4-3.6 3.1-5-.9-1.5-4.5-1.2-5.1.5m119.1.5c-.8 2.5 1.1 5.1 3.1 4.3s1.4-5.7-.8-6.1q-1.6-.2-2.3 1.8m6.8.6c-.8 2.1 1.3 4.2 2.8 2.7 1.3-1.3.5-4.3-1.1-4.3q-1 .1-1.7 1.6m-32 5.3q-.6 1.9-3.2 2.3c-3.1.4-3.6 3.1-.6 3.6 1.1.2 2.7 1 3.6 1.8s2.4 1.2 3.3.8c1.8-.7 2.1-2.9.6-3.9q-1-.8-.9-2.3.4-4.4-1.2-4.2-1 .2-1.6 1.9M245 770c-1.3.9-1.3 1.1 0 1.9 1.7 1.2 3 .5 3-1.5q0-2.5-3-.4m26.5 0c-.9 1.5.4 3 2.6 3s2.6-2.5.3-3.4c-2.1-.8-2.2-.8-2.9.4m24.6.4q-1.4 1.3.4 2.6c1.9 1.6 4.1-.1 3.2-2.4q-1.3-3-3.6-.2m10.2 1.3a8 8 0 0 1-2.2 2.9c-1.2 1-1.3 1.5-.3 2.7.7.8 1 2.2.6 3.1-.9 2.3 2 3 4.9 1.1q2.5-1.6 5.1-.9 2.5.6 2.6-.5-.2-1-1.2-1.1c-.7 0-2.6-1.1-4.3-2.5-2.9-2.4-2.9-2.4-.7-2.5 3.4 0 2.5-3.4-1.1-3.8q-2.7-.4-3.4 1.5m97.7-.2c0 2.1 3 3.1 4 1.4q1.6-2.7-2.1-2.9-1.7.2-1.9 1.5M214 774c0 2.5 2.5 3.6 4.5 2q1.5-1.4 2.9-.1c1.4 1.1 4.6.5 4.6-.9 0-1.9-2.9-3.1-4.9-2.1q-2 1.1-2.6.1c-1.2-1.9-4.5-1.1-4.5 1m16.4-.9c-.9 1.5 1.2 3.3 3 2.6q1.5-.7 1.6-2.2c0-1.7-3.5-2.1-4.6-.4m34.1-.1c-.8 1.3 2 2.4 4.1 1.6s.9-2.6-1.6-2.6c-1 0-2.2.5-2.5 1m168.1-.1c-.9 1.5 2.3 3.6 3.6 2.3.5-.5.7-1.5.4-2.1-.9-1.3-3.3-1.4-4-.2m-234.9 1.9c-1 1.5-.3 8.2.9 8.6.7.3 2.7-.8 4.4-2.4l3.3-2.9-2.7-1c-1.4-.6-2.6-1.5-2.6-2.1 0-1.2-2.7-1.4-3.3-.2m91.4.2c-1.6.9-.6 3 1.5 3 1.5 0 2-2.5.6-3.4-.4-.2-1.4-.1-2.1.4m-116.6.9c-1 1.7 3.1 3.3 4.4 1.7q1-1.3.4-1.9c-1-1-4.1-.8-4.8.2m254.5.6c-1.1 1.3-1.1 1.9.3 3.3 2 1.9 4.1.5 3.5-2.4-.4-2.4-2.2-2.8-3.8-.9m-9.5.5c-.3.6-1.7.7-3.1.4-2-.5-2.6-.2-3.1 1.5q-.5 2.1-2.9 2.1c-3 0-3.1 1.6-.3 3 1.6.9 2.8.8 5.4-.4 1.8-.9 4.3-1.6 5.4-1.6 2.6 0 3.8-2.5 2.1-4.5q-2.1-2.6-3.5-.5m17 2c-.8 1.2 2 2.4 3.5 1.5.6-.3.8-1.1.5-1.6-.8-1.2-3.2-1.2-4 .1m-46.8.6c-.4.4-.7 1.5-.7 2.4 0 2.4-3 4.9-6.8 5.6-4.4.9-6 3-3.9 5.1 1.6 1.6 1.9 1.5 4.6-.5 2.6-1.9 3-1.9 3.5-.5.5 1.2 1.6 1.4 4.6 1q4-.5 4.4.9.6 1.3 2 1.4t1 1.4q-.3 1.4 2.6 3.2c2.9 1.7 2.9 2 1.3 3.2-1.7 1.3-1.7 1.4.1 2.7q1.9 1.5 3.8.4 2-1 3.3.1c1.8 1.5 5.5.3 5.5-1.7 0-1.2-.8-1.5-3.9-1-4.7.6-7.5-.8-4.8-2.4.9-.5 1.7-1.9 1.7-2.9s.5-2.2 1-2.5a2 2 0 0 0 1-1.7c0-1-4.1-.7-7 .6q-1.7.9-1.5-2.1c0-2.5-.3-2.8-3-2.6-1.6.1-4.1-.1-5.4-.3-2.2-.5-2.3-.6-.8-2.1 1.3-1.3 1.9-1.4 3.1-.4 2.1 1.8 6 1 6.4-1.3.4-1.6 0-1.8-2.8-1.3-3.3.7-5.5-.6-5.5-3.3 0-1.6-2.6-2.5-3.8-1.4m-113.3 2.5c-.9 1.5 3.6 5 6 4.6 3.2-.4 2.9-2.4-.5-4.1-3.8-1.9-4.6-2-5.5-.5m11 1.1c-.9 1.5 2.7 4.1 3.9 2.9 1.3-1.3.1-4.1-1.7-4.1-.8 0-1.8.5-2.2 1.2m-115.2 3c-1.7 1.7-1.5 3.8.6 4.5.9.4 2.2 1.4 2.9 2.2.9 1.3 1.6 1.4 3 .5 2.5-1.5 2.3-3.8-.3-4.2a4 4 0 0 1-2.7-2.3q-1-3.3-3.5-.7m142.3-.2q-.5 1 0 2c.8 1.3 3.5.1 3.5-1.6 0-1.6-2.6-1.9-3.5-.4m108.2.3c-.8 2.1.8 3.9 2.9 3.5 2.7-.5 2.5-4.2-.2-4.6-1.2-.2-2.4.3-2.7 1.1M251 787c-.8.5-2.5.7-3.6.4-2.4-.6-4.2 1.2-2.7 2.7 1.4 1.4 9.3-.1 9.3-1.7 0-1.8-1.3-2.4-3-1.4m36.4 1.4c-1.5 1.2-1.7 1.7-.6 2.7 1 1.1 1.5 1 2.9-.4 2.4-2.3.4-4.3-2.3-2.3m82.3-.8c-1.6 1.6-.6 3.5 1.6 3.2q2-.5 2.2-1.8c0-1.6-2.6-2.5-3.8-1.4m70.6 1c-.3.8-.1 2 .5 2.6 1.6 1.6 4.2.2 4.2-2.2s-3.8-2.8-4.7-.4m-227.9.5c-.9 1.6 2 4.1 3.9 3.3 2.1-.8 2.2-3 .1-3.8-2.3-.9-3.2-.7-4 .5m45.3-.4c-1.6 1.5-.6 3.4 1.5 3.1 2.9-.4 3.8-3.8 1-3.8-1 0-2.2.3-2.5.7m-33.2 1.3q-.6 1.2.3 2.2c1.4 1.4 4.7.6 4.7-1.2s-4-2.6-5-1m78.6-.1c-.8.5-1.1 1.6-.8 2.4.5 1.3 1.2 1.4 3.9.6l3.5-.9q.3-.2.3-1.5c0-1.7-4.6-2.1-6.9-.6M203 791.5c-1 1.2-.9 1.6.4 2.1 1.8.7 4.9-1.3 4-2.7-.8-1.4-3-1.1-4.4.6m208.1-.6c-1.2.8-1.2 1.2-.2 2.5 1.6 1.9 5.1 2.1 5.1.3 0-1.3-1.9-3.7-2.9-3.7q-.7 0-2 .9m7.9.1c-1.1.7-1.1 1.1-.1 2.4 1.8 2.2 4.1 2 4.1-.3s-2.1-3.3-4-2.1m14.5 0q-.6 1.2.3 2.2c1.4 1.4 4.5.2 4-1.5s-3.4-2.1-4.3-.7m-8 1q-.6 1.2.3 2.2c1.4 1.4 4.7.6 4.7-1.2s-4-2.6-5-1m-111.7.7c-2.9.7-2 2.3 1.3 2.3q3 0 2.7-1.2-.6-2-4-1.1m-62.8 1.6q.1 3 2.6 2c2.1-.8 1.7-3.3-.6-3.3q-1.8.1-2 1.3m-67.3 2.4a10 10 0 0 0-1 4.5q.3 1.7-.4 1.8c-.5 0-1.8.6-2.9 1.4-1.8 1.4-1.8 1.5 1 2.6 4.6 1.7 6.3.6 6.3-4.3 0-2.3.3-5.2.7-6.5 1.1-3.3-2-2.9-3.7.5m43.7-.6c-.6 1 1.1 2.9 2.6 2.9q.6 0 1.9-.9c1.7-1.1.5-3.1-1.9-3.1-1 0-2.2.5-2.6 1.1m51 2.4c-.8 1.9 1.2 3.6 3.3 2.8 1.9-.7 1.2-3.7-1-4.1a2 2 0 0 0-2.3 1.3m26.1.4q.7 2.1-.9 2.7-4 1.4 2.4 3.4c3 1 4.6 1 6.4.2 1.4-.6 5.6-.8 10.6-.5 6.1.5 8.1.3 7.6-.5-.4-.7-2.5-1.2-4.6-1.2q-4 .1-4.9-1.9-1-1.8-6.2-2.5l-8.2-1.3c-2.6-.5-2.9-.4-2.2 1.6m76.5-.4q0 1.5 1.8 1.3c2.1-.4 1.9-2.2-.2-2.6q-1.5-.3-1.6 1.3m-95.6.6c-.3.6-.1 1.6.4 2.1 1.3 1.3 4.5-.8 3.6-2.3-.7-1.2-3.1-1.1-4 .2m6.1-.1c-.9 1.5.3 3 2.4 3s4.4-2.3 3.4-3.3c-1-1.1-5.1-.8-5.8.3m-83.9 1.9c-.9 1.4 2.9 5.5 4.2 4.7.7-.4 1.2-1.8 1.2-3.2 0-1.9-.5-2.4-2.4-2.4-1.4 0-2.7.4-3 .9"/><path d="M388.5 801c-.3.5-1.7 1-3.1 1q-2.2.1-2.4 1.4c0 2.1 3.8 3 5.6 1.5 1.3-1.1 1.8-1 2.5.4 1.1 1.8 4.4 2.3 5.4.7.3-.5-.2-2.1-1.1-3.5-1.7-2.5-5.7-3.4-6.9-1.5m40.5.5c-2.7 3.3 4.7 5.6 7.5 2.5 2.2-2.4 1.8-3-2.8-3.6q-3.5-.4-4.7 1.1m-183.7 1.2c-.7.2-1.3 1.1-1.3 1.8 0 1.8 2.1 2.4 4.3 1.3 1.5-.7 1.6-1.2.6-2.4-1.2-1.5-1.6-1.6-3.6-.7m6.2.3q-.6 1.2.3 2.2c1.4 1.4 4.7.6 4.7-1.2s-4-2.6-5-1m9.9.1c-.9 1.5 1.2 3.3 3 2.6q1.5-.7 1.6-2.2c0-1.7-3.5-2.1-4.6-.4m222.5.5c-1.5 1.9.8 4.8 3 3.8l2.9-.8a5 5 0 0 0 2.4-1.4q1.4-1.2-.3-1.6c-3.8-1.2-7-1.2-8 0m-268.4.4q-.6 1.2.3 2.2c1.4 1.4 4.5.2 4-1.5s-3.4-2.1-4.3-.7m13.7.1q-2.1.9-1.8 1.8c1 1.6 4.5 1.9 6.2.6s1.6-1.3-.2-2.3a6 6 0 0 0-4.2-.1M90.9 823.2c-1.4 1.1-1.5 2.5-.8 8.8a88 88 0 0 1-.2 26.2q-1 1.8-.7 2.2c.2.2 6.7.6 14.6 1 12.5.5 14.2.4 14.2-.9 0-.9 1-2.9 2.2-4.5 3.2-4.4 1.2-5.8-3.6-2.5-3.2 2.2-4.8 2.5-9.5 2.3l-5.6-.3-.3-5.9c-.2-3.2 0-6.6.3-7.5.6-1.4.9-1.3 2.6.8 2.6 3.2 4.9 1.3 4.9-4 0-4.6-1.7-6-4.1-3.1q-4.3 5.7-3.7-3.6c.3-5.1.5-5.7 2.7-6 4.6-.7 9.1.7 9.1 2.8 0 2.6 3.6 2.6 5 .1 1.2-2.4 1.2-3.2.1-4.9-1.2-2-25-2.8-27.2-1m382-.2c-4.2.7-10.4 4.4-11.3 6.6q-2 5.2 2.5 9.6c2.7 2.8 3.4 3 7.4 2.5q9.2-1.3 10.2 8.4 1.2 8.5-6.6 7.7c-3.3-.3-3.6-.6-4.1-3.7-.7-4.5-3.5-6.4-5.6-3.7a9 9 0 0 0-1.4 4.5c-.1 1.4-.7 3.7-1.5 5.1-2.2 3.8-1.8 4.2 2.5 3.5 2.3-.4 6.3-.2 9 .5 4.5 1.1 5.3 1 8.2-.8l3.1-2 1.7 2c1.3 1.6 2.3 1.9 4.4 1.4 3.2-.8 4.3-3 2.5-5.2-1.2-1.5-2.3-1.5-6.4.2-1.9.8-1.9.7-.4-1.6 3.8-6 3.4-13.2-1.1-18-2.3-2.5-3.6-3-7.3-3-5.9 0-9.5-2.7-7.8-5.8 1.5-2.9 7.2-3 11.2-.1q5 3.8 4.9-2.4c0-3-.3-3.3-5.3-4.7a24 24 0 0 0-8.8-1m-455.1.7c-3.7.6-3.6 2 .2 2.8 1.7.4 3 .8 3 1.1a366 366 0 0 0-8.5 22.4c-.9 3.1-2.8 6.4-4.2 7.6s-2.2 2.7-1.9 3.3c.8 1.3 11.2 1.5 12 .2.3-.4-.5-1.8-1.8-3l-2.3-2.2 2.2-6.2 2.1-6.2 6.2.1c3.4 0 6.5.3 6.8.7a62 62 0 0 1 2.3 8.9l1.7 8.3 6.2.3q11 .4 2.8-4.7c-3.1-1.9-3.5-2.8-4.5-8.9-.7-3.7-1.6-8.1-2.1-9.7-1.7-5.6-2.1-10.7-.9-12.2.7-.7.9-1.7.5-2-.8-.8-15.5-1.2-19.8-.6m11.8 9.4c.7 2.9 1 5.7.8 6.1-.7 1.1-8.2 1-8.8-.1-.3-.4.2-2.8 1.1-5.2 3.3-8.7 5.1-8.9 6.9-.8m33.2-9.2c-4.8 1-11.4 5.4-13.7 9.2a24 24 0 0 0-2.5 8.2c-.6 4.4-.3 5.8 2.1 10.6 2.3 4.4 3.7 5.9 7.6 7.9 6.2 3 13.8 3.3 19.1.6 8.4-4.1 7.3-8.4-1.3-5.4-4.9 1.6-5.7 1.7-9.8.3-9.4-3.2-13.3-14.4-7.6-21.9 3.7-4.9 7.5-6.7 12.4-5.9 3.7.7 4 .9 3.4 3.4-.8 3.8 1.6 5.8 5 4.3 5-2.3 3.6-11-1.7-11-1.3 0-3.9-.2-5.8-.5s-5.2-.2-7.2.2m108.7 0c-.3.5.5 1.7 1.7 2.6 2.2 1.5 2.3 2.2 2.4 16.6.2 12.2-.1 15.3-1.3 16.5q-3.6 3.8 5.8 2.7l5.4-.8-.5-3.5-.5-9c0-6-.6-5.5 10-8 5-1.1 9.2-4.2 9.5-7 .7-4.9-.1-7.1-3.2-9-2.8-1.7-5.1-2-16-2-7 0-12.9.4-13.3.9m23.6 3.1c1.4.8 1.9 2.1 1.9 5q0 7.4-8.7 6.8l-3.8-.3v-11l4-.6c2.2-.3 4.1-.7 4.3-.8zm15.2-3c-2.8 1.2-2.9 2.6-.3 3.3 1.9.5 2 1.4 2.2 13.4.1 15.8-.1 18.6-1.5 19.5q-4.5 2.9 13.4 2.1c12.5-.6 12.5-.6 14.2-3.4.8-1.6 1.2-3.1.7-3.4-1.2-.8-3.8.4-4.4 2.1-.4 1-2.3 1.4-7 1.4h-6.4l-.4-4c-.2-2.2-.2-5.8 0-8 .3-3.3.8-4 2.5-4 1.1 0 3.1.9 4.3 2.1q4.4 4.3 4.4-3.6-.1-8.3-4.4-3c-1.7 2.1-2.7 2.6-4.4 2.1-2-.7-2.2-1.4-2.2-7.2V827h4.3q4.5 0 6.7 2c1.7 1.5 2.6 1.7 3.7.9 1.8-1.6 1.7-5.6-.3-6.3a111 111 0 0 0-25.1.4m66-.3c-4.7.4-5.2 1-2.7 2.7 1.2 1 1.7 3.8 2.1 13.4.4 8.5.2 12.2-.5 12.2a22 22 0 0 1-5.2-5.9 37 37 0 0 0-5.1-6.6A40 40 0 0 1 257 826c0-1.8-.6-2-5.5-2-5.3 0-7 1.1-4.1 2.7 1.1.6 1.5 4.4 1.7 16.6.4 14.2.2 16-1.3 17.1-2.8 2.1-2.2 2.6 3 2.6 5 0 8.2-1.2 6.3-2.4-1.2-.8-1.4-6.9-.5-14 .6-3.9.9-4.4 2.1-3.4.8.6 2.3 2.8 3.4 4.7 3 5.6 12.1 14.9 14.9 15.3l2.5.3.6-15.5c.7-16.4 1.3-19.8 3.8-21.7 1.4-1.1 1.4-1.4.1-2.3q-1.4-.8-2.5-.8zm15.1.3c-2.4.4-2.9 1-2.9 3.4 0 3.4 1.6 4.3 3.8 2.1 1.8-1.7 8.2-2 9.3-.4 1.1 1.8.6 30.1-.6 31.3-2.1 2.1-.8 2.6 5.9 2.6 7.6 0 9.3-1.1 6.4-4.2-1.6-1.7-1.8-3.8-1.8-16.2v-14.1l4.4-.3c3.7-.3 4.8.1 6.2 2 2.2 2.9 4.2 1.4 3.7-2.8l-.3-2.9-15.6-.5a175 175 0 0 0-18.5 0m43 .5c-1.8 1.4-1.8 1.5.4 2.1 2.7.8 2.5 2.7-.7 9.9-2.1 4.6-6.2 14.5-8.1 19.3-.7 1.8-2.6 4-4.2 4.8-4.1 2.1-2.7 3.2 3.4 2.6 6.3-.5 6.7-.8 4.3-2.6-1.7-1.2-1.7-1.5-.2-4.2.9-1.6 2.5-5 3.5-7.5l2-4.6 7.5-.2q7.4-.1 8.4 1.1a61 61 0 0 1 4.6 14.3c0 .5-.4 1.8-.8 2.7-.6 1.6 0 1.8 5.6 1.8a24 24 0 0 0 7.9-1c1.3-.8 1.1-1.3-1.1-3.2a26 26 0 0 1-6.5-12.3 128 128 0 0 0-3-10.4c-1.3-4-2.4-8.4-2.4-9.7 0-3.2-1.3-3.7-10.5-4-6-.3-8.7.1-10.1 1.1m12 5.2c.7 1.6 1.7 4.7 2 6.9.7 3.7.5 4.2-1.6 4.8-4.3 1.1-8.8.7-9.5-1-.7-2 4.6-13.4 6.4-13.4.7 0 1.9 1.2 2.7 2.7m34-5.6c-7.7 1.8-15.4 10.5-15.4 17.3 0 5.7 2.3 12.9 5.2 16.1 3 3.5 10.7 6.5 16.7 6.5 3.9 0 8.1-1.9 8.1-3.8q0-1.5-1.7-.6c-2.9 1.4-10.1.8-12.9-1.1q-5-3.5-5.6-13.7c-.4-9.5 7.3-19 13.9-17.3 2.2.5 2.4 1 1.9 3.9-.7 3.9 1.4 6.7 3.7 4.7 1.6-1.3 4-8.8 3.3-10-.3-.5-2.2-1.1-4.3-1.4l-6.3-1.1a20 20 0 0 0-6.6.5m22.1-.6c-.6.3-.9 7.9-.8 20.2l.2 19.8 11.3.3a61 61 0 0 0 12.3-.5c1.2-.9 4.5-7.1 4.5-8.4 0-1.9-3.2-.8-5.8 2-2.1 2.3-3.7 3-7.4 3.2-2.6.2-5 0-5.4-.3-.3-.4-.7-7.7-.9-16.3l-.3-15.6 2.4-.9c2.8-1.1 3.2-3 .7-3.1l-5.8-.4c-2.2-.2-4.4-.2-5 0m27.6.9q-1.8 2.5 2.2 2.6c1.9 0 1.9.5 1.2 16.2-.4 9-1.2 16.9-1.7 17.5a3 3 0 0 0-.5 2.7c.5 1.2 2.6 1.3 11.4.9 5.9-.3 11.6-1 12.6-1.5 2.4-1.3 5.2-7.7 3.9-9-1.4-1.4-3.1-.2-4.2 2.8-.8 2.1-1.6 2.4-6.4 2.4-3 0-5.7-.3-5.9-.8s-.6-3.8-.8-7.7c-.4-6.2-.2-7 1.5-7.3 1.1-.2 2.5.4 3.2 1.3 2.2 3 4.4 1.1 4.4-3.9 0-5.2-1.7-6.9-3.8-3.8a5 5 0 0 1-3.9 2.2c-2.4 0-2.4-.2-2-6.1.4-7 1.9-8.5 7.2-7.5q3.3.6 3.8 2.7c.9 3.3 4.2 2 4.2-1.6v-3l-12.7-.2c-9.2-.1-13 .2-13.7 1.1m-283.9 14.8c-3.9 2-3.7 4.8 1.2 14.3 5.8 11.2 6 14.3.9 19-2.9 2.6-3.3 3.5-2 3.5 2.9 0 8.5-2.7 9.5-4.7a18 18 0 0 0 .7-13.7q-2.6-6.4.9-3.7c1.9 1.6 3.6.6 3.6-2 0-3.4-1.9-5.9-4.5-5.9-2 0-2.5.5-2.5 2.5q-.2 5-4-.8c-2.5-4-2.2-6.3.9-5.9q2.4.3 1.9-1.5c-.4-2.1-3.4-2.6-6.6-1.1"/><path d="M133.9 851.5c-3.5 1.9-4.3 5.1-1.8 7.6 3.6 3.6 12.9 1.5 12.9-2.9 0-5.3-5.6-7.7-11.1-4.7m5.1 4q0 1.3-.9 1.5c-1.3 0-2.2-1.6-1.4-2.4 1.1-1.1 2.3-.6 2.3.9"/></svg>