<svg xmlns="http://www.w3.org/2000/svg" width="666.7" height="1170.7" viewBox="0 0 500 878"><path d="M241.7 14.8c-2.4.3-2.8.7-2.5 3s.7 2.6 2.7 2.4c1.3-.2 3.4-.1 4.7.2 2.2.6 2.4 1.2 2.4 6 0 2.9-.3 7.4-.6 10l-.7 4.6h-5.3c-5 0-5.4.2-5.4 2.4 0 3.1 3 3.6 23.6 3.6 13.3 0 16.4-.3 17.4-1.5 1.9-2.2.3-3.4-5.9-4.4-2.8-.4-5.5-1.1-5.9-1.5-1.2-1.3-.2-18 1.1-18.8.7-.4 3.1-.8 5.5-.8 4.7 0 6.4-1.9 4.1-4.6-1.1-1.3-3.7-1.5-16.8-1.2-8.6.2-16.9.4-18.4.6m18 6.4c1.4 1.7.7 16.6-.8 18.4-3.4 4.2-6.3-.9-5.7-10.2.5-8 3.6-11.9 6.5-8.2M283 146.9c-8.4 2.6-12.8 6.1-20.4 16.1a273 273 0 0 0-10.4 14.4c-3.1 4.9-8.3 12.3-10.6 14.8-1.8 2-10.6 17.2-10.6 18.3a69 69 0 0 1-7.2 8.7c-7.7 8.6-16.3 14.8-20.4 14.8a13 13 0 0 0-9.6 5.2c-2.8 4.4-3 7.7-.7 11.4l2.1 3.4-3.1 3.5c-3.3 3.8-4 8-2 11.7.9 1.6.8 2.4-.5 3.6-1.4 1.4-1.8 1.4-4.1-.8-2.2-2.1-2.5-2.1-3.1-.6q-.6 1.6 1.4 3.9c2.4 2.6 2.5 9.2.2 9.2q-1.5 0-1.3-2.8c.2-3-1.7-3.6-3.7-1.2-1.6 2-.5 6.2 2 7.5 1.1.6 2 2 2 3.1 0 2 .4 2.3 5.3 3.3 2.2.5 2.7.3 2.7-1.3 0-3.1 1.8-3.4 2.2-.4q.3 2.8 3.1 4.1 5.4 2.8-.7 5.8c-3.5 1.7-8.6 8.6-8.6 11.6 0 3.4-2.8 7.3-6.8 9.6-6.6 3.7-7.2 3.3-14.2-8.6a164 164 0 0 0-30.5-39A185 185 0 0 0 98 247.5c-6-3-20.6-7-30.8-8.5a64 64 0 0 0-42.3 9.3 68 68 0 0 0-23.5 32.6 109 109 0 0 0 .1 35.6A93 93 0 0 0 37 369.9a250 250 0 0 0 48 25.8c.3.3.5 7.7.5 16.6 0 14.7.2 16.6 2.2 20.2 1.1 2.2 3.5 4.8 5.1 5.8 1.8 1 3.9 3.7 5.2 6.5a195 195 0 0 0 11.8 22.6c1 1 3.6 2.9 6 4.3 3.6 2.1 6.1 2.6 16.4 3.3a78 78 0 0 0 21.4-1c6 0 9.3-2 13.5-8.1a35 35 0 0 0 4.5-8.9c.4-1.6 1-3 1.3-3s1.5 2.2 2.5 4.9 2.8 6.4 4.2 8.2c3.7 5 2.9 11.5-2 16.9-3.7 4-11.2 18.9-13.9 27.5-5 15.9-6.7 23.2-8.6 36.5-1.8 13.1-2.8 16.6-5.3 20.2-1 1.5-.8 2.7 1.7 7.2 2.9 5.4 2.9 5.6 1.2 8.5-2.1 3.6-2.1 3.8.1 5q1.8 1.1 4.7-.5c2.2-1.1 3.5-1.2 5.5-.4s3.3.7 5.6-.5c2.6-1.4 3-1.3 4.2.2a9 9 0 0 1 1.2 4.3c0 6.4 14 35.8 20.6 43.2 3.2 3.6 9.4 15.7 15 29.1l4.5 10.3c1 2.2 1.9 5.3 1.9 6.8s.8 5.6 1.7 9 1.4 7 1 7.9-4 3.1-8.1 5-9.5 4.9-12.1 6.7a143 143 0 0 1-27.4 13.5c-6.1 2-7.8 2.2-14 1.4-8-1-16.5-3.5-18.1-5.4q-1.8-2.3 4.3-3.9c4.1-1 2.3-2.6-2.9-2.6-4 0-4.4-.2-4.4-2.4 0-2.3 3.3-10.6 7.1-17.8 1.9-3.6 1.8-6.5-.2-5.3-.8.6-3.7 6.4-8.1 16.4q-1.9 4.6-2.9 3.4-1.1-1 2-7.1c1.7-3.4 3.1-7 3.1-8 0-2.3-1.9-4.2-4.2-4.2-2.2 0-2.3-1.3-.3-3 .8-.7 1.5-2.3 1.5-3.7 0-1.3.6-3.9 1.4-5.8s1.2-3.6.9-3.9c-.9-.9-3.3 1.4-3.3 3.1 0 .8-.6 2.9-1.4 4.6l-2 4.9q-.7 1.6-2.2 1.8c-1.6 0-1.6-.1.3-6.4 1-3.2-1.5-.9-3.7 3.4-1.6 3.1-2.4 3.7-4.1 3.3s-2.9.3-5.4 3.3c-3.1 3.7-3.2 4.1-1.9 6.6s1.3 2.8-.1 2.8c-.9 0-2.5-.5-3.6-1.1a72 72 0 0 0-42.9-2.1 67 67 0 0 0-10.5 5.7c-22.2 15.7-30.4 19.2-48.7 21-5.1.5-6.8 1-6.8 2.2s1.1 1.4 7.3.8c13-1.2 17.8-2.4 25.5-6.7 7.4-4 10.7-6.1 25-15.8 8.2-5.5 13.5-7 25.1-7 14.6 0 28.9 4.8 35.6 12 3.5 3.8 19.7 16 24 18.2a59 59 0 0 0 39.7.5c3.7-1.4 11.1-5.6 16.5-9.3 7.4-5.1 10.9-6.9 14.3-7.3 3.6-.5 4.6-1 4.8-2.8s-.3-2.2-2.5-2.5l-2.8-.3 3.2-1.8c1.8-.9 3.4-1.7 3.7-1.7.2 0 2.1 3.3 4.2 7.2 2 4 4.8 9.1 6.2 11.3 4.1 6.5 12.1 22.8 11.6 23.7q-1.3 2-6.6-1.2a14 14 0 0 0-12.8-.5c-1.6.9-5.4 1.4-10.5 1.4h-8l3.5-1.6c1.9-.8 4.2-1.9 5-2.4l5.5-3c2.2-1.3 6-2.5 8.5-2.8q4.6-.6 4.5-2.1c0-2.4-9.6-1.7-14.1.9a92 92 0 0 1-9.8 4.7c-7.3 3.1-7.2 3-5.7 4.7.9 1.2-1.3 1.5-14.1 2-13.1.6-55 1-70 .8-4-.1-4.7-.4-5-2.2-.2-1.7-1.6-2.5-6.8-3.9l-12-3.4c-6.6-2-12-1.4-21 2.1a39 39 0 0 1-8 2.6c-.8 0-2.2.6-3.2 1.4q-1.7 1.5-7.5 1.3l-29.5-.1C.1 742 0 742 0 744.2s.1 2.1 16.5 1.4c18.6-.8 70.3-.9 71.5-.1 3.1 1.9 19 2.7 51.5 2.4 78.8-.8 102-.5 102 1.1 0 1.3-2.3 1.5-16 1.2-11.2-.2-15.5.1-14.3.8.9.5 8.4 1.2 16.8 1.4s15.4.6 15.6.9c.3.2.9 2.9 1.3 5.8.7 4 .5 6.1-.5 8.1a14 14 0 0 0-1.4 5.5c0 1.6-1.1 4.4-2.3 6.3a37 37 0 0 0-3.4 6.4q-1 3-7.7 7.7a65 65 0 0 0-10.8 9.5A89 89 0 0 0 207 824c0 1.9 8.7 1 22.1-2.4 23.1-5.9 27-8 35.6-19.4q2.2-2.9 7.7-4.6c3.5-1.1 6.5-2.9 8.1-4.7 3.3-4 3.1-4.6-6.1-29.4-.9-2.2-2-4.4-2.5-5s-.9-1.7-.9-2.7c0-1.6 1.1-1.8 10.4-1.8 5.6 0 13-.3 16.3-.6l6.1-.7 9.8 10c12 12.1 14.2 13.1 32.9 14.3 7.1.4 13.3.6 13.7.4 3.6-2.3-4.8-16.1-12-19.8-4.7-2.4-8.1-6.9-12.7-17.1l-2.6-5.7c-.5-1-.9-2.4-.9-3.2 0-.7-.7-1.9-1.5-2.6q-4.3-3.4 3.8-4.3 11.9-1.5 18.9-7.6c2.4-2.1 5.1-4.2 6-4.7s4.3-3.3 7.5-6.2a162 162 0 0 1 27.9-21.6 54 54 0 0 1 25.1-4.5c6.2.9 12.8 3 17.3 5.8 12.3 7.3 20 14 27.8 23.8q3.2 4.1 9.9 7.5c5.8 2.8 8 3.4 15.5 3.6l8.8.4v11.4l-7.3-.7a78 78 0 0 1-41.2-21.9 70 70 0 0 0-30.4-17.5c-4.9-1.1-15.1 1.4-24.6 6a58 58 0 0 0-19.5 14.8c-13.3 13.1-23 19.1-32.5 20.2-6.4.7-8.9 2-6.5 3.5 1.4.8 7.4.3 13.2-1.1 6.1-1.6 20.7-12.1 30.1-21.8a50 50 0 0 1 18.1-13.5c12.3-5.9 16.9-6.5 26.5-3.2a65 65 0 0 1 24.5 15.7c9.2 8.2 21.9 16.3 29.4 18.8 3.3 1.2 9.2 2.4 13.1 2.7l7.1.7v8.7l-15.5-.5a112 112 0 0 1-17.3-1.4c-.9-.5-5.6-1.9-10.3-3a74 74 0 0 1-16-6.1c-15.5-8.6-17.8-9.4-25.4-9.2-9.7.3-15.7 2.5-24.8 9.3a56 56 0 0 1-11.8 7.1c-2.3.6-4.3 1.8-4.6 2.5-.6 1.4-16.3 1.9-16.3.5 0-1.6 2.5-3.2 5.1-3.2 3.9 0 13.5-6.9 20.6-14.9a62 62 0 0 1 25.6-17c10.5-3 23.3 2.4 34.6 14.5 5.9 6.3 8.3 8.1 15.6 11.5a67 67 0 0 0 24.8 6.9c6.3 0 3.9-2.4-3.1-3.2-3.3-.4-9.1-2-12.9-3.6-3.7-1.6-7.8-3.3-9.1-3.7a60 60 0 0 1-11-9.4c-15.8-15.8-28.7-20.1-44-14.7a78 78 0 0 0-21.2 14.2c-7 7.4-8.8 9-13 11.9a52 52 0 0 1-10.8 5.1q-6.7 2.3-7.4 4.4-.8 1.9-2 1.9h-5.1c-3.1.1-3.8.5-3.5 1.8.3 1.6 2.2 1.7 22.3 1.4a2719 2719 0 0 1 132.8.6c5.3.8 4.9 3.3-.5 3.4l-150.5 1.3c-2.3 2.2 4 2.5 48.5 2.2 26.2-.2 61.1-.5 77.5-.5l29.7-.1v-35.7l-5.7.3c-6.4.4-15-1.6-20-4.7-1.7-1.1-9.2-8.7-16.7-16.8-14.2-15.7-18.9-19.2-30.2-23.1a40 40 0 0 0-11.1-2c-5.4 0-5.4 0-7.3-4.3-2.5-5.4-2.5-5.7.4-9.9 1.8-2.8 2.4-5.2 2.8-12.4.6-10.9 1.8-13.5 5.7-13.2 2.8.2 6.7-1.9 5.6-3-.3-.3-2.3-.6-4.4-.6-2.2-.1-4.3-.5-4.7-.9q-3.4-3-5 5.3a7 7 0 0 1-2.2 3.8c-1.4 1.1-2.1.8-4.7-2.2-3.7-4.2-8.7-6.8-12.3-6.4s-3.5 3.1.3 3.8c7.5 1.6 10.5 5 11.5 13.2.4 3.5.5 6.8.3 7.5-.7 1.8-7.6 4.2-10.6 3.6q-2.6-.6-2.7-2.2c0-.9-.9-3.5-2.1-5.6a20 20 0 0 1-2.2-5.9c-.2-1.5-1.3-1.9-7.2-2.3-3.8-.2-7.4-.9-7.9-1.4-1.8-1.7-5-.9-7.8 1.8-3.5 3.4-3.7 1.5-.2-2.6 2.7-3.3 7.4-4.3 7.4-1.7 0 2.8 1.6 2.4 8.9-2.5 4.1-2.6 7.8-5 8.4-5.2q1-.5.4-2.1c-.6-1.6-.9-1.6-2.9-.2-3.3 2.3-4.3 2-5.7-2s-.2-6.9 2.1-4.6q1.2 1.1 1.8 1.2c.7 0 10-8.7 10-9.5 0-1.4-4.2-.2-6.7 1.9q-2.9 2.5-5.5 1.9c-1.4-.3-2.9 0-3.2.6s-1.6 1.1-2.7 1.1c-2.8 0-2.5 4.5.6 8.2 1.4 1.6 2.5 3.8 2.5 4.9 0 2.3-4.4 3.6-6.4 2a5 5 0 0 0-3.8-.9c-2.9.4-3.6-1.3-1.1-2.7l2.3-1.3c.3-.2-.8-1.4-2.4-2.7l-2.8-2.2 1.6-5.5c1.8-6.3 1.5-7.8-3.9-18.8a124 124 0 0 0-12.5-22.1c-2.1-2.6-2.6-3.9-1.9-5.2q1-1.7-.1-3.6c-.8-1.6-.5-2.3 2.5-4.1 6.3-3.9 5.5-9.5-1.6-10.6-3-.5-4.7-1.6-6.6-4.1A17 17 0 0 0 329 542c-1 0-2.8-1.2-4-2.8a64 64 0 0 1-8.8-14.2c.2-.5 5.5 1.4 11.8 4.2 29.6 13 38.6 15.6 56 16.5q23.8 1.1 48.4-14.2a51 51 0 0 0 20-21.5 71 71 0 0 0 8.6-26.5 72 72 0 0 0-5.2-41.8 66 66 0 0 0-38.3-43c-12-6-26-10.7-37-12.4a480 480 0 0 0-46.2-3.8c-1 .2-5.2.6-9.4.9l-7.6.6-3.6-5.8c-2-3.2-4.5-8.2-5.7-11.2-1.1-2.9-3-6.6-4.1-8.1s-2.4-5.1-2.9-8.1c-1.6-8.2-1.6-8.3-9.8-14.7-9.4-7.6-14.3-9.2-28.9-9.8-6.7-.3-11.6-1-12.2-1.7a28 28 0 0 1-.2-9.6l.6-8.5 4.3.3c3.7.3 4.7-.1 7.1-2.7a16 16 0 0 0 3.5-6.1c1.1-5.7 4-10.4 9.5-15.6l5.5-5.1.1-12.4c0-12.2.1-12.5 3.6-19.9 4.4-9 7.5-15.7 12.4-27 2-4.7 5.7-12.7 8.1-17.8a80 80 0 0 0 6.8-34.9c.1-8.4-1.3-10.9-8.8-16.1-4.2-2.8-5.6-3.2-11-3.1-3.3 0-7.2.4-8.6.8M198.5 241q-1.7 1.8-2.3 1.5c-.7-.6 1.8-3.5 3.1-3.5q.7.2-.8 2m-124.7 2a76 76 0 0 1 29.1 10.7 187 187 0 0 1 29 22.2c4.8 4.9 18 20.4 22.2 26.1 4 5.5 13.9 22.6 13.9 24.2 0 .8-1.2 2-2.6 2.7-3 1.3-1.4 2.9-15.9-16a236 236 0 0 0-29.1-33.4L114 274a94 94 0 0 0-17-12.4 60 60 0 0 1-8-4.7A58 58 0 0 0 56.9 246a54 54 0 0 0-34 15.7 47 47 0 0 0-13.4 45c2 10.7 6.6 21.7 13 30.9a158 158 0 0 0 30 29.6l11.5 6.9c8.7 5.2 29.6 11.8 48.5 15.4 32.6 6 28 5.3 62.5 9.9 10.7 1.5 20.1 2.8 20.8 3.1.7.2 1.7 1.5 2.2 2.7s1.5 3.1 2.2 4c1.7 2.3 1 2.7-5.3 3-11.4.5-35.5-2.4-51.9-6.3l-23.5-5.5c-6-1.3-12.6-2.9-14.5-3.4s-6.7-1.7-10.5-2.5c-6.1-1.2-19.2-6.1-25.1-9.3l-11.3-5.7q-16.4-8.1-24.1-14.9a94 94 0 0 1-28.3-40.4A60 60 0 0 1 2.2 302c-.5-16.6.9-23.2 7.1-32.9 6-9.2 10.1-13.6 17-18.3a73 73 0 0 1 22.7-9.1c6-1.1 15.9-.6 24.8 1.3m-5.3 9.4a46.5 46.5 0 0 1 35.1 40.3 47 47 0 0 1-10.3 32.9A68 68 0 0 1 80.6 336c-.5 0-2 .8-3.4 1.8-2.7 1.9-7.4 2.4-23.8 2.6-6.3.1-7.9-.4-14.7-3.7a45 45 0 0 1-24.9-33.4 46 46 0 0 1 24.4-47.6c8.9-4.5 21-5.8 30.3-3.3m161.4 5.3c-1.8 5.2-2.5 5.9-3.8 3.5-1-2-.6-3.6 2.3-8 1.7-2.8 2.8.5 1.5 4.5m10.4 2.7c-.2 3.1.1 3.8 2.4 4.7 2.1.8 3.1.5 5.8-1.6 3.8-2.8 4.7-2.2 6.2 3.5q1 3.6 3.1 3.8c3 .5 4 2.8 3.4 8l-.4 4.4-2.7-3.3c-5.1-6.1-10.2-1.8-12 10.1-.6 4.5-.7 4.5-4.4 4.2q-5.6-.5-2.6 2.5 1.2 1-2.5 1.7c-3.4.7-3.5.8-3.3 4.9.5 7.3 2.9 8.5 8.1 4.2 2.6-2.1 2.8-2.7 1.9-4.8-1.1-2.3-.9-2.5 1.7-3q2.8-.5 3.8-3.6c.8-2.4 1.7-3 4.4-3.3 2.9-.3 3.3-.7 3.6-3.6q.4-3.1 1.8-3.2c2.3 0 1.6 3.3-1.5 7-1.5 1.9-3.6 5-4.5 6.8a39 39 0 0 1-12.3 14.5c-3.4 1.8-3.8 1.8-7.9.2-2.5-.9-6-3.3-7.8-5.2q-3.4-3.7-5.1-3c-1.4.6-1.1 1.4 2.1 5.3a30 30 0 0 0 6.8 6.1c6 3.1 5.9 4-.6 10.9-5.7 6.1-6.2 6-8.7-1.2-2.1-5.9-4.9-8.1-12.6-9.5-3.3-.7-6.3-1.5-6.7-1.8-1.4-1.2 3.5-27.7 5.6-30q1.7-1.7.5-2.8c-.6-.6-.9-2.3-.7-3.9l.4-2.9 1.2 2.7q2 4.8 5.7-.8c.8-1.3 2.5-2.4 3.6-2.4s2.7-1.2 3.7-2.9c1.4-2.4 2.1-2.9 4.3-2.4s3.1 0 4.6-2.3a28 28 0 0 0 2.8-5.8c.7-2.3 1.7-3.2 3.8-3.4q2.5-.4 2.7-1.8c.2-1.4.6-1.4 1.3-1.1s1.1 1.9 1 4.1M193 263q-.1.9-1.1 1-.8-.1-.4-1 .6-1 1.1-1 .3 0 .4 1m30 1.8c0 1.3-1.2 2.2-2.2 1.6s-.1-2.4 1.3-2.4q.8.1.9.8m-11 3.1q0 1-1 1.6-.9.4-1-.9.1-1.5 1-1.6 1 0 1 .9m-102 7.6c7.9 6.3 15.1 13.4 20.6 20 7.5 9.3 23.6 30.9 24.7 33.2 1.2 2.7.3 4-6.7 9.5-4.9 3.9-9.1 9-11.9 14.4-1.6 3.1-3.7 15-3.7 20.8 0 3.1-.3 3.6-2.2 3.6q-4.8 0-13.9-9a52 52 0 0 0-7.9-6.5c-1.5-.7-6-5.2-10-9.9s-7.7-8.6-8-8.6a11 11 0 0 1-3.4-2.1l-2.6-2.1 7.3-7.2c15.6-15.4 19.6-33.3 11.8-52.9-4.6-11.6-4.7-11.6 5.9-3.2m81.5 5.3c0 1.8-2 1.5-2.3-.4q-.4-1.6 1-1.2 1.2.6 1.3 1.6m64.3 3.1q.4 1.3-.9.9-1.2-.5-1.7-1.7-.4-1.3.9-.9 1.2.5 1.7 1.7M197 306.5c0 1.6-2.7 3.2-3.7 2.1-.7-.7 1.6-3.6 2.8-3.6q.8.1.9 1.5m-.9 13.9a12 12 0 0 0 5.8.9q2.4-.7 1.5 1.1c-.3.9-.2 2.2.4 2.9.5.6 1.5 3.2 2.2 5.7l1.8 6c.4.8.7 3.5.7 6 0 4.3.1 4.5 2.9 4.5 1.6 0 3.1.6 3.3 1.2q.6 1.2 2 1.3c1.2 0 1.4.7.9 3.4q-1.4 7.3 3 9.7c1.9 1 2.4 1.8 1.9 3.4-1.8 5.6-1.7 6.4 1.1 9.3 1.6 1.6 3.6 3.1 4.4 3.4 1.3.4 1.3.8-.2 2.4-2.9 3.4-3.2 6.9-.7 9.3 1.2 1.1 3.1 2.3 4.1 2.7 2.1.6 2.4 2.2.6 2.9-.7.3-4.3.7-8 .9-5.8.3-6.9.1-8.6-1.8a423 423 0 0 1-35.5-57.7l-4.7-8.7 6.9-4.1c4.9-2.9 7.1-4.8 7.5-6.7.6-2.3.9-2.4 1.9-1.1.7.9 2.8 2.3 4.8 3.1m71.1 9c2 .2 6.1 1.6 9.2 3s5.8 2.6 6.2 2.6 2.8 1.7 5.3 3.8 5.3 4.1 6.2 4.4 2 2.3 2.3 4.3c.9 4.4-.3 19.3-1.5 20.1q-.8.3-.9-1.9c0-4.2-2.1-8.8-3.9-8.5q-1.7.3-1.4 3.8l.9 15.2.7 11.7-2.4.5a404 404 0 0 1-48.4 7.2c0-1-2.6-4.2-3.8-4.8l-3.4-1.7c-2.7-1.2-2.8-5-.3-7.6q2.2-2.4 1.7-4.5c-.4-1.7 0-2 2.8-2 6.3 0 8.6-5.2 3.9-8.9-3.5-2.8-4.5-2.7-7.9.9-2.5 2.6-2.7 3.3-1.7 5.5s.9 2.5-.7 2.5c-3.3 0-4.3-2.4-3.6-8.4.7-5.4.6-5.6-1.9-6.6-2-.7-2.6-1.6-2.6-4.1 0-3 .1-3.1 1.8-1.6 1 1 2.3 1.7 2.9 1.7q1 .1 2.3 1.5 2.7 3.6 6-2c2-3.2 2-3.6.5-6.5-1.9-3.7-3.6-4.5-6.4-3.1-1.9 1.1-2 .9-1.4-2.1.7-4.1 1-4.5 2.5-3s5.1 1.5 6.6 0 1.6-6.4.2-7.3-.3-2.5 1.6-2.5c1.2 0 1.4.7.9 3q-.6 3 .5 4.5c1.4 1.6 6.6 2 7.4.6s1-5.3.2-8.3l-.8-2.6 8.4.4zm-243.5 1.8c1.3 1.2 2.3 2.8 2.3 3.7q0 1.6-3-1.4-4.4-4.4-2.3-4.5c.4 0 1.7 1 3 2.2m149.6 3.4c1.1 1.6 6.4 11 11.9 20.9a277 277 0 0 0 21.3 35c3.3 4.6 8.6 12.4 11.8 17.2A290 290 0 0 0 244 441c3.4 3.6 6.9 7.7 7.8 9.1 6.9 10.4 9.9 14.2 16.4 20.5a241 241 0 0 0 28.3 24.2c3.3 2.2 7.1 5.2 8.4 6.6s3 2.6 3.8 2.6a25 25 0 0 1 6.6 3.4 41 41 0 0 0 9.3 4.5c3.9 1.1 5.4 1.9 13.7 7.7 4.7 3.4 19.5 9.2 28.7 11.5 10 2.4 34.2 1.1 38.5-2.1a15 15 0 0 1 3.5-1.5c8.2-2.4 14.8-7 24.2-16.8 7.6-7.9 9.7-10.8 9.6-12.8-.1-1.4 1-4.1 2.6-6.1a51 51 0 0 0 3.2-46.8l-3-5.6a63 63 0 0 0-18.1-17.3 66 66 0 0 0-10.3-4.5 49 49 0 0 1-8-3c-4.2-2.4-22.6-9.4-27.4-10.5-18.1-4.2-23.9-5-36.8-5.6a226 226 0 0 0-46.5 3.4l-18 2.9-24.5 4c-13.2 2.3-29.6 2.8-31.6 1.1-3.2-2.7-1.5-3.7 7.4-4.2 11.2-.7 29.4-3.5 30.6-4.7q.9-1-.2-2.3c-1-1.2.3-1.7 7.5-3 4.9-.8 10.6-2 12.8-2.7 9.4-2.6 52.7-6.9 66.5-6.5 9.3.2 22.5 2.3 29.5 4.5 3.3 1.1 9.8 2.7 14.4 3.6s11.7 3.1 15.8 5 8 3.4 8.6 3.4c2.6 0 14.9 9.4 18.6 14.3l6 7.9c1.2 1.4 2.1 3 2.1 3.5s2.2 5.2 4.9 10.5a61 61 0 0 1 7.7 24 69 69 0 0 1-9 47.3c-3.1 5.2-6 9.5-6.4 9.5s-4.1 2.7-8.2 6.1c-8 6.5-11.8 8.8-16.5 10l-13 3.4c-23.9 6.5-42.4 2.8-78.2-15.5a150 150 0 0 1-32.8-20.7l-18.3-14.5a236 236 0 0 1-36.7-40.9c-1-1.9-4.3-6.4-7.4-10.1s-8.1-10.1-11.1-14.3l-8.6-11.8c-1.8-2.3-6.7-10.1-10.9-17.2l-10-16.6a1075 1075 0 0 0-17.4-31.9l-7.1-12.4 2.2-1.3c3-1.6 3.9-1.3 6.1 2.3m-8.8 10.1c3.9 5.8 7.5 11.6 8.1 12.7 2.2 4.3 6.3 11.4 10.1 17.7a109 109 0 0 1 10.9 22.6c-.3.3-2.5.2-5-.1l-4.5-.7-2.2-6.7c-5.3-16.1-10.9-24.9-19.7-30.6a66 66 0 0 1-8.7-6.6c-1.3-1.5-3.1-2-6.7-2-2.8 0-4.8-.5-4.8-1.1 0-1.4 13.2-15.8 14.6-15.9.5 0 4.1 4.8 7.9 10.7m80-9.8q.4.9-.5 1.6-.9.4-1-.9 0-2.7 1.5-.7M33.1 341c1.1 2.9 9.3 9 12.2 9 .8 0 4.2-1.4 7.7-3.1 3.4-1.6 8.7-3.5 11.7-4.1 4.9-1 5.7-.9 8.3 1.1 3.9 2.9 9 3.9 9 1.8 0-.8-.8-1.8-1.7-2.1-1.5-.6-1.5-.8.1-2.4s1.8-1.6 3.7.7c1.6 1.9 1.8 3.4 1.4 7.8-.5 5.6-2.5 10.8-3.3 8.5-.6-1.8-2.2-1.5-2.2.4q.1 1.8-4.4-2.4a17 17 0 0 0-7.8-4.6c-9.7-1.5-12.4-1.6-15.7-.5-4.6 1.5-5.8 2.6-4.4 4 .9.9 1.9.8 3.9-.6 2.1-1.3 4.2-1.6 9.6-1.3 6.6.4 7.2.6 10.4 4.1 1.9 2 3.4 4.7 3.4 6.1q-.2 2.4 3 3.6c1.7.7 3.1 1.8 3.2 2.4l.3 3.9a7 7 0 0 0 2.1 4.3c1.8 1.5 1.8 1.5-.6 1-6-1.2-14.8-5.1-23-10.2-10.5-6.5-15-10-15-12 0-.7-.9-1.8-2-2.4a35 35 0 0 1-12.4-13.8c-1.1-3.4 1.3-2.7 2.5.8m12.7 3.1q2 .9 1.7 1.9c-.9 1.4-1.5 1.3-6-1.5-3.8-2.4-3.8-2.5-1-1.9zm176.3 3.2c-1.3 1.3-1.5-.1-.4-3q.8-2.6 1.1.1c.2 1-.1 2.3-.7 2.9m-123.4 9c1 1.2 3.6 3.6 5.8 5.2s6 4.9 8.5 7.4 6.3 6 8.3 7.7c3.6 3 4.9 6.4 2.5 6.4-1.6 0-4.8-3-4.8-4.6a28 28 0 0 0-7-6.9c-10.2-8.1-17-14.6-17-16.1 0-2.1 1.6-1.7 3.7.9M83 363.5q0 1.4-1 1.5-.9-.1-1-1.5c-.1-1.4.5-1.5 1-1.5q1 .1 1 1.5m154.5 6.5q.4.9-.4 1-1-.1-1.1-1 0-1 .4-1 .6 0 1.1 1m-77.6 7.3 1.1 3.2-2.5-3c-1.4-1.7-2.5-3.6-2.5-4.4 0-2.3 2.7.6 3.9 4.2m12.1 1.1q-.1.8-1.5-1a7 7 0 0 1-1.5-2.8q.1-.8 1.5 1a7 7 0 0 1 1.5 2.8m129.2 1.8c-.7.7-1.2 2-1.2 3s-.4 1.8-1 1.8q-.9-.2-1-1.7c0-1.8 3-5.6 3.8-4.8q.4.6-.6 1.7M163 383.4c0 1.5-1.8 3.1-2.6 2.3-.7-.7.7-3.7 1.7-3.7q.8.1.9 1.4m14.4 6c1.9 5.7 1.9 6.6.6 6.6-.5 0-1.2-1.7-1.6-3.8s-1.3-4.6-2-5.7a7 7 0 0 1-1.4-3.4c0-2.8 2.6 1 4.4 6.3m-12-.8c.6 2.4.2 4.3-.8 3.3-1.1-1-1.7-5.9-.8-5.9.5 0 1.3 1.2 1.6 2.6M93 400q-1 1.8-2 2-1-.2-1-2 0-2 2-2c1.8 0 1.9.3 1 2m165.3-1.3c-.7.2-2.1.2-3 0q-1.3-.5 1.2-.5 2.6 0 1.8.5m-153.1 1.8c1.5.2 4.4.8 6.5 1.4l11.8 2.7c4.4.9 10.5 2.3 13.5 3.1 9.2 2.5 17.3 4.2 22.2 4.8 5.4.7 5.5 1.8.5 5.2-4.1 2.8-5.1 2.9-4.4.3.9-3.5-1.2-3.3-4.5.4-4.3 4.9-8 4.9-4.3 0 2.1-2.8 1.9-4.3-.6-3.7q-2.1.7-2.6-1.6c-.4-1.7-1-2-2.7-1.4-1.1.4-3.4.6-5.1.5-2.4-.2-3.7.6-6.1 3.4-1.7 2-3.7 3.5-4.4 3.2q-1.2-.3 1.4-3.5c1.4-1.7 2.6-3.8 2.6-4.7 0-1.8-2.5-2.2-3.5-.6s-3.5 1.2-3.5-.5q0-1.6-2.4-.9-2.4.6-3.4-1.2c-1-1.8-1.1-1.8-2.9-.1-2.5 2.2-3.3 2.2-3.3-.3 0-2.8-.9-2.5-5.2 1.7-4 3.9-6.1 4-3.4.1q3.3-4.5-.6-3.5c-1.9.5-2.6-.1-4.1-3l-1.8-3.5 3.8.7c2.1.4 5 .9 6.5 1m258.8 4c12.8 2 23.3 4.7 30.5 8l6 2.8-4 .8a73 73 0 0 0-19.8 7.3 53 53 0 0 0-22.3 27.6c-1.7 0-6.4-4.7-6.4-6.4 0-3.7-3.7-8.6-6.5-8.6q-2.6.1-2.5-2c0-1.2-.9-3.8-1.9-5.8-1.7-3.4-9.1-24.3-9.1-25.9 0-1 25.5.5 36 2.2m-40.4-.7c.6.4 1.4 1.8 1.8 3.2l2.1 7.7 1.4 5.2-5.9 8.8c-7 10.5-10.9 15.3-11 13.4 0-1.5 6.7-13.6 10.6-19 1.3-1.9 2.2-3.7 1.8-4q-.6-.4-1.4.9c-2.1 3.7-7.1 10-8 10-1.7 0 .8-4.9 5.5-10.9s5.5-8.1 3-8.1c-.9 0-2.3 1.7-3.2 3.7-1.9 4.1-5.1 8.3-6.5 8.3-.5 0 .5-2 2.2-4.4 3-4.4 3.9-7.6 2.1-7.6-.6 0-2.2 2.2-3.7 5s-3.1 5-3.6 5c-1.3 0-.9-1.1 1.5-4.4a66 66 0 0 0 6.7-11.2q-.1-.4-1-.4c-.6 0-2.4 2.2-4.1 5-3 4.9-6.2 7.2-3.7 2.7q3.3-6.5-1.3-1.6l-3 3.4.4-2.8c.5-2.9-.1-3.2-6-2.8q-3.4.3-3.3-1.3.1-1.5 1.3-1.7c4.5-.4 7.8-.9 12.2-1.7 6.4-1.2 11.7-1.4 13.1-.4m-34.6 5.5q-.2 1.3-2.2 2.2c-3.1 1.3-3.6 4.5-.9 4.5q4 0 .1 3.5c-3.9 3.5-2.6 4.5 0 4.5s1.5 2.8-1.3 3.2c-3 .4-3.6 3.8-.7 3.8 1.8 0 2.1.4 1.6 2.2-.3 1.3-.6 2.9-.6 3.5q-.1 1.2-1.4 1.3t-2 1.5c-.3.8-1.7 2-3.1 2.5-3.5 1.3-2.1 3.4 1.7 2.6s2.7 1-1.1 1.9c-3.4.7-5.8 3-4.2 3.9.6.4 2.2.4 3.7 0q2.8-.8 2.2.7c-.3.8-2.7 1.8-5.6 2.2q-5.4.8-5.2 2.4c0 1.3.8 1.5 4.6.9l4.6-.6-.7 4.3c-.4 2.4-1.6 4.9-2.7 5.8q-2.1 1.6-.9 2.3c1.6 1 1.4 2.6-.3 2.6-.8 0-4.2-3-7.5-6.8-5.8-6.4-6.1-6.9-5.5-10.8.5-3.5.3-4.4-1.7-5.7a6 6 0 0 0-4.9-1c-2.2.4-3.1 0-4.6-2.2l-5.1-6.2c-3.7-4.1-4-5.3-1.7-8.8.9-1.4 1.4-3.4 1.1-4.5-.4-1.7 0-2 2.8-2q6 .1 5.3-6.1l-.3-3.3 9.5-1.7 14.5-2.7c7.7-1.4 12.5-1.4 12.5.1m-173.5 4.5a28 28 0 0 0-5 6.4c-1.8 3.5-4.2 5.5-5.3 4.4-.2-.3 1-2.3 2.7-4.4s3.1-4.5 3.1-5c0-1.4 4-4.2 6-4.2q1.5.1-1.5 2.8m-7.7-.6q-.5 1.1-1.6 1.6-1.1.3-.6-1.2c.7-1.8 2.8-2.2 2.2-.4m-8.4 2.3q-.7 1.4-1 1.5-.4-.1-.4-1.5c0-1.4.4-1.5 1-1.5q.8.1.4 1.5m72.6-.5c0 1.3-2 1.3-4 0q-1.9-1.1 1.3-1c1.5 0 2.7.4 2.7 1m-50 .9c0 1.3-2.6 3.2-3.3 2.4-.8-.7 1.1-3.3 2.4-3.3q.8 0 .9.9m83.7 1.7c1 1.4 3.7 4.9 6.1 7.7 2.4 2.9 5 6.5 5.9 8.1 1.4 2.7 9.6 12.8 15 18.6l7.9 9.1c4.7 5.8 5.4 7.2 5.4 10.9 0 4.5 2.2 8.2 4.4 7.4.7-.3 2.5.7 4 2.1s3.2 2.3 3.7 2q.8-.5.9.4c0 1.9-3.6 2.1-9 .5-9.2-2.6-10.6-2.7-14.5-.8-3.3 1.6-3.9 1.6-6.3.2-1.5-.8-4.2-1.8-6-2.1s-6.4-2-10.2-3.7c-3.7-1.6-7.9-3-9.2-3-2.8 0-13.7-3.7-15.6-5.3q-1.7-1.2.9-1.9c3.1-1.2.9-3.3-3.3-3.3-2.8 0-3.3-.5-4.9-4.5-2.5-6.6-4.2-16.7-3.1-18.6s2.7-.1 1.8 2.1c-.2.7.2 1.9 1 2.6 1.2 1 1.2 1.3-.2 2.3s-1.3 1.4.5 3c1.7 1.5 1.9 2.2.9 3.4s-.4 2.1 3.2 5.3c2.5 2.1 5.4 3.8 6.5 3.8 1.6 0 1.3-.6-1.8-3.2-3.8-3.3-4.8-5.1-2.2-4.1 2.4 1 1.7-.8-1.7-4.4l-3.3-3.4 3.3.7c4.3.9 4.2-1-.3-3.6q-3.8-2.2-2.5-3.4 1.1-1.1-.5-4.8c-.8-2-1.3-4.8-1-6.4l1.5-9.4 1.2-6.6 9.8-.1c9.6-.2 10-.1 11.7 2.4m28.1 1.4.2 3.5-2.5-3c-3.1-3.7-3.1-4.7-.2-4.3 1.7.2 2.3 1 2.5 3.8m7.4-.5c.4 3.9.4 3.9-2.3 2.5s-2.6-6 0-6q2-.2 2.3 3.5m-106.2-.8c0 2-2.8 5.3-4.7 5.3-1.8 0-1.7-.7 1-4q3.7-5 3.7-1.3m113-.2q0 1.4-1.5.9-1.4-.7-1.5-1.5c-.1-.8.7-.9 1.5-.9s1.5.7 1.5 1.5m-144 1.3c0 1.3-1.2 2.2-2.2 1.6s-.1-2.4 1.3-2.4q.8.1.9.8m194 2.3q-1.1 1.8-1.7 1.5-.4-.6.7-2.1 2.8-3.1 1 .6m-135-.1q-.1.9-1.5 1c-1.4.1-1.5-.5-1.5-1q.1-1 1.5-1c1.4 0 1.5.4 1.5 1m249.1.4a39 39 0 0 1 20.9 11.2q14.9 14 15 32.8a44.4 44.4 0 0 1-31.8 43.1c-5.1 1.5-5.7 1.5-6.7.1s-1.5-1.2-3.5 1.1c-2.2 2.6-2.4 2.6-3.1.7q-.6-1.8.5-2.9c.7-.6 1.8-2 2.5-3.3s1.6-2.2 2.1-2.2q1 .2 1 2.2c.1 2.2.1 2.3 1.5.4 3.4-4.4.3-8.5-3.7-5-2.1 1.9-2.1 1.9-1.4-.9q.8-2.8-1-3.4c-2.3-.9-8.3 2.3-9.6 5.2q-1.8 3.9-3.3 1.5c-1.5-2.4-3.7-1.1-6.2 1.2-2.2 2.1-2.3 2.1-6.3.3a46 46 0 0 1-17-18.9 43 43 0 0 1 8.1-50.4 42 42 0 0 1 20.9-12.4c8-2.1 12.6-2.2 21.1-.4M117.5 423c-1 1.1-2.2 1.7-2.7 1.4-1.2-.8 1.1-3.4 3-3.4 1.3 0 1.2.3-.3 2m6.2.7c-.6 1.5-1.9 3.5-2.8 4.4s-1.9 2.3-2.1 3q-.5 1.2-1.2.8c-.8-.8 1.4-6.9 2.5-6.9q.8-.1.9-1.4.2-2 3.2-2.5c.4-.1.2 1.1-.5 2.6m176.9.9q-1.7 2.2-2.3 2.1c-.2-.3.3-1.7 1.3-3.1s1.9-2.4 2.2-2.2c.2.3-.3 1.7-1.2 3.2m-146.4-.4c-.6.6-1.5.8-1.9.4q-.6-.7.7-1.6c1.9-1.2 2.7-.3 1.2 1.2m-7.8.6c-.6.4-1.4 1.6-1.9 2.7-.8 2-.8 2-1.3.1s2.6-5.2 3.7-4q.4.5-.5 1.2m94.4 2.5c.6 3-1.6 2.6-4.2-.8l-2.6-3.4 3.2 1.4c1.8.7 3.4 2 3.6 2.8m-103.1-1.6q-1.5 1.4-2.3 1.1c-1-1 .6-2.8 2.4-2.8 1.5 0 1.5.1-.1 1.7m166.5.5q-1.1 1-1.2.2 0-1 .7-1.7t1.2-.2q.3.6-.7 1.7m28.8 3.5c1.5 4.1 1.9 6.5 1.3 8.1-1.2 3.4-11.7 17.4-12.1 16.2-.2-.6.1-1.7.7-2.4 1.7-2 9.1-15.8 9.1-16.9q-.1-.7-1.6.4c-1.3 1.1-1.7 1-2.6-.5-.8-1.5-1.7-.6-5.9 6.1-2.8 4.3-6.7 10.7-8.7 14.3-3 5.3-3.8 6.1-4 4.2-.2-1.3 1.3-4.8 3.7-8.7 2.3-3.5 4.1-7.2 4.1-8 0-.9 2-3.8 4.5-6.4s4.5-5.6 4.5-6.6c0-1.9 2.7-5.5 4.1-5.5.4 0 1.7 2.6 2.9 5.7m-226-2.3c0 1.6-1.8 3.1-2.7 2.2-.8-.8.5-3.6 1.7-3.6q.9.1 1 1.4m6.5-.5q.4.9-.5 1.6-.9.4-1-.9 0-2.7 1.5-.7m11.9 6.8c-3.2 6.3-7.6 11.3-8.1 9.6-.2-.6.8-3.1 2.4-5.5l2.8-4.8c0-.3 1.1-2 2.5-3.6 3.5-4.4 3.8-2.1.4 4.3m10.5-4c0 .5-.9 2.1-2 3.8-1 1.6-2.3 4-2.8 5.2-.5 1.1-1.4 2.4-2 2.7q-1 .7-.7 1.9.2 1.1-.1.4-.6-.6-1.9-.7c-1.1 0-1-.9.7-4.3q4.9-9.5 7.5-9.7 1.3 0 1.3.7m5.4 3.3c-.6 2.1-2.1 3.5-2.9 2.7-.2-.2 0-1.6.6-3.1 1.1-3.1 3.1-2.7 2.3.4m22.1-.9q-.6.8-1.5.3t-.3-1.5q.6-.8 1.5-.3t.3 1.5M104 432q-.1.9-1.1 1-.8-.1-.4-1t1.1-1q.3 0 .4 1m6.6.2-1.2 3c-.6 1.6-2.4 2.6-2.4 1.4 0-1.7 2.2-5.6 3.1-5.6q1 .2.5 1.2m196 7.7c-.9 1.7-2.5 3.5-3.6 4.1-3 1.6-2.8 1.1 2.7-7.8 1.4-2.1 1.8-2.3 2.1-1 .2.9-.4 3-1.2 4.7m-152.5-2.6c-1.3 1.3-2.6.3-1.6-1.2q.6-1 1.7-.5 1 .6-.1 1.7m-40.9 3.9q-1.1 1-1.2.2c0-1.4 1.2-2.6 1.9-1.9q.3.6-.7 1.7m228.6 3.2q.3 4 2.2 4.3c1.4.4 1.8 1.3 1.6 4.6-.1 2.2-.8 4.3-1.4 4.5q-1.1.3-1.2-.8 0-1-1-.5t-1-1c0-.8.7-1.8 1.5-2.1 2.1-.9 1.9-2.4-.4-2.4q-1.8 0-2.3-1.2c-.7-2-9.6 11.9-14.7 22.9-1.4 2.9-3 5.3-3.8 5.3-2.6 0-2-1.4 10.4-23.2 2.3-4.1 5.1-8.3 6.2-9.3s1.8-2.2 1.5-2.7-2.1.5-4 2.3q-6.5 5.8-2-1.2c1.8-2.7 3.1-3.5 5.2-3.4 2.6 0 2.9.4 3.2 3.9m-198.4-2.5q.4 1-.8 2c-1.6 1.3-3.2-.2-2.1-1.9.8-1.2 2.2-1.3 2.9-.1m13.6.1q0 .9-1 1a1 1 0 0 1-1-1q.1-1 1-1t1 1m152.3 1c-.6 2.2-2.3 3.8-2.3 2.1s1.2-4.1 2-4.1q.8.2.3 2m-159.3-.2c0 1.3-1.2 2.2-2.2 1.6s-.1-2.4 1.3-2.4q.8.1.9.8m172.9 3.9c-1.2 3.1-3.8 6.3-5.1 6.3-.8 0 1.5-5.3 3.4-7.8 1.8-2.2 2.8-1.3 1.7 1.5M155.5 448q-.6.9-1.6 1-.9-.1-.4-1a2 2 0 0 1 1.6-1q.9 0 .4 1m-20.5 1.4q0 .5-1 1.1-.9.4-1-.4.1-1 1-1.1 1 0 1 .4m217 10c0 .7-.7 1.9-1.5 2.6s-3.1 3.9-5.1 7.1c-3.5 5.9-6.1 8-4.5 3.6 1-2.6 5.9-11.7 7.4-13.5 1.3-1.6 3.7-1.5 3.7.2m.9 8.9c0 2.9.5 7.3 1.1 9.9 1 3.9.9 5-.5 7.2-2.1 3.1-3.9 3.4-3 .5q.5-2-.4-2.9-1.3-.6-.1-3.6c1-2.9 1-2.9-2 .6q-5.7 6.7 0-4.3c1.7-3.1 2.9-5.7 2.7-5.7-.4 0-5.9 8.5-7.6 11.7-.6 1.3-1.6 2.3-2.1 2.3-1.5 0-1.2-2.6.5-4 .8-.6 2.6-3.7 4-6.8 5.3-11.6 7.4-13 7.4-4.9M300 468c-2.4 1.5-3.7 1.1-1.6-.5q1.9-1.3 2.5-.9.4.5-.9 1.4m34 2.9q-.1 1-1.1 1.6c-.6.4-.7 1.9-.4 3.5.3 1.5.2 3.1-.3 3.4q-.9.3-.6-1.6.3-1.8-2 2.2c-2.3 4-2.5 5.6-2.6 7v2.4l-1.5-2.1c-1.4-2.1-1.4-2.6 1.1-7.5l4.2-7.6c1.5-2.2 3.2-3 3.2-1.3m-81 6.4q-.2.8-2-.8c-1.8-1.6-2-2.3-2-2.8q.2-.8 2 .8c1.8 1.6 2 2.3 2 2.8m46.2 1.9q-1.3 1.5-1.2-1.2c.1-2.7.3-2.1 1.2-1.2q1.3 1.2 0 2.4m38.4 3.5c-1 1-1.9-.5-1-1.8q.8-1.7 1.2 0 .3 1.2-.2 1.8m-150.1 3.7c1.1.7 7 3.3 13 5.7s11.2 4.4 11.4 4.6-.9 1.7-2.4 3.5c-5.5 6.4-6.9 13.2-4 18.9 1.9 3.6 1.1 9-1.6 11.5q-3.4 3-.4 5.4c2.1 1.8 8.4-.7 9.1-3.7a49 49 0 0 1 2.5-6c1-2.1 1.9-5.5 1.9-7.7 0-3.3.7-4.5 4-7.8 3.5-3.2 4.8-3.8 8.4-3.8q4.3 0 4.9-1.3c.4-1 2.1-1.1 6.8-.6 5.8.6 6.6.4 9-1.7 2.1-2 3.6-2.4 8.5-2.4 3.4 0 8.2-.6 10.8-1.4 5.9-1.8 6.4-1.6 18.2 7.1 13.3 9.9 28 23.9 31.6 30.1 3.1 5.5 6.9 8.5 12.5 10.1 1.7.5 4.8 2.7 6.8 5 2.7 3 4.5 4.1 6.6 4.1 3.3 0 4.5 1.5 2.9 3.5-1.6 1.9-4.9 1.9-7.4 0-2.6-2-9-1.9-10.6 0-1.1 1.3-.9 2 .9 3.9q2.3 2.4 1.1 3.1-3 1.7-5.5-4.2c-1.7-4.1-3-5.3-5.9-5.3-1.1 0-3.2-1.2-4.7-2.6a12 12 0 0 0-7.1-3.1c-4.4-.5-4.4-.5-6.1 3.8-1.6 3.9-1.6 4.5-.1 6.8.9 1.4 3.4 4.2 5.5 6.2 2.2 2 3.9 4.1 3.9 4.6 0 1.6-5.5 4.1-8 3.6q-2.6-.5-4.5 1.7c-1.7 1.9-1.8 2.5-.6 7.1 1.7 6.6.7 7.7-4.7 5a19 19 0 0 0-6.2-2.1c-4.3 0-6-1.8-6-6.3 0-2.3-.7-5.3-1.6-6.5-2-2.9-6.4-2.9-9.2.1-2 2.1-2.1 2.4-.6 5.2 1.9 3.5 2 13.7.1 16.9-.6 1.1-1.2 4.1-1.2 6.6v4.5l-5 .1c-4.5 0-5.4-.4-8.4-3.5a27 27 0 0 0-5.5-4.6q-3.2-1.5-3.5-9.5c-.1-1.9-.8-4.4-1.6-5.4-.8-1.1-1.5-3-1.5-4.2 0-4.9-4.1-6.2-8.2-2.6-1.6 1.3-1.6 1.7-.1 4.5 1.3 2.7 1.4 3.8.3 8.2-1.8 7.3-5.3 11.6-9.3 11.4a13 13 0 0 0-4.8.5c-2 .9-3.3-.7-4.9-5.9-.7-2.2-1.7-4.6-2.3-5.3q-1-1.2.2-7.1c1.2-6.3.9-8.4-2.2-11.9q-3.8-4-7.9-.5-3.3 3-.2 6.4c2.5 2.8.9 7.3-4 11.4-2.5 2-5.4 3.5-6.9 3.5s-3.2.9-4.1 2.2l-1.5 2.1-2.1-2.4c-1.6-1.9-1.9-3.3-1.4-6.8.4-3.2 0-5.9-1.7-10.3-2.1-5.7-2.1-6.1-.5-9.4q4.6-9.5-5.1-9.4-5.4-.2-5.3 5.5c0 1.9-.8 3.9-2 5-2.1 1.9-2.6 5-1 6 1.5.9 1.2 5.1-.5 6.5-2.3 1.9-9.5-.6-9.5-3.2 0-1.1-1.1-3.5-2.4-5.4l-2.4-3.5 1.8-5.7c1-3.2 2.5-11.3 3.4-18.1 1.6-11.9 4.6-25 8.8-37.6 2.6-7.7 11-21.7 14-23.1 3.2-1.6 3.1-1.6 5.3 0m56.7 2c.4.6.8 2 .8 3.1s.5 2.6 1.1 3.2.9 2.1.7 3.4c-.2 2-1 2.4-4.5 2.7-4 .3-4.3.2-4.3-2.3 0-2.2.3-2.4 1.9-1.6 2.5 1.4 3.1.5 3.1-4.6s-1.3-5.5-4-1.1c-1.8 3-2 3.1-2 1 0-4 1.8-6.4 4.3-5.6 1.2.4 2.5 1.2 2.9 1.8M367 499.9a43 43 0 0 0 9.4 7.6c2 1 3.6 2.1 3.6 2.6 0 1.6-6.4 1-9.1-.9a85 85 0 0 1-12-8.6c-.7-.9.9-6.6 1.8-6.6.3 0 3.1 2.7 6.3 5.9m34 .1c0 2.6-2.4 11.8-3.5 13.6q-2 3.1-10.9 3.7c-4.6.3-4.5 2.7.1 2.9 11.8.5 16.3.3 21.1-.8 5-1.2 8.2-1 8.2.5 0 1-6.5 4-13.5 6.2a79 79 0 0 1-32 .5c-6-1.7-22.4-7.6-28-10.1-7.1-3.1-6.9-5.5.5-5.5 3.7 0 5.5-.6 7.8-2.5 4-3.3 7.4-3.1 13 .7a37 37 0 0 0 16.9 7.8c2.8 0 3.5-.5 4.7-3.5.9-2 1.3-4.2 1-4.9q-.4-1.4.5-2.1 1-.5 1.1 3.4c0 7.2 5.6 4 9-5.2 1.9-5 4-7.5 4-4.7m34 4.8c0 1.1-8.5 7.2-9.9 7.2q-3.4 0 4.2-4.7c6.2-3.7 5.7-3.5 5.7-2.5M422 515q4.6 3.7-2.1 2c-1.8-.6-4.9-1-6.6-1-3.7 0-4.5-1.6-1-2.3 4.7-.9 7.3-.6 9.7 1.3m-17.9 1.5c-.1 1.5-2.4 1.2-2.9-.3q-.4-1.4 1.2-1t1.7 1.3M319.4 562c1.6 0 4.4 4.5 3.4 5.5-.6.7-8.7-2.2-10.5-3.6-.7-.6-1.3-2.3-1.3-3.6v-2.5l3.4 2.1c1.8 1.2 4.1 2.1 5 2.1m-141.5 16.8q0 2.3-1.1 2c-1.5-.5-2.2-4.3-1.3-6.6.6-1.5.8-1.5 1.5.3.5 1.1.9 3 .9 4.3m130.6 4.2c-.3.6-1.7 1-3.1 1-3.3 0-2.4-1.5 1.1-1.8q2.4-.1 2 .8M181 586.8q0 1.1-1 .7c-.5-.3-1-1.6-1-2.8q-.1-2.6 1-.7c.5.8 1 2.1 1 2.8m30.4-2q.3.8-.5 2.2c-.8 1.3-1 1.3-1.8 0-1-1.5-.6-3 .9-3q.8.1 1.4.8m-4.8 8.7c-.7 2.9-6.6 7-11.4 8-2.9.6-3.3.5-3-1.2.3-1.3 1.1-1.7 3.2-1.5 2.2.2 3.5-.6 6.8-4.3 4.3-4.9 5.4-5.2 4.4-1m8.1 10.2c-.7.7-2.3-2.6-3-6.2q-.9-3.8 1.4 1.3c1.1 2.4 1.8 4.6 1.6 4.9m68.7-1.5 17.8 13.6c5.4 4 10.1 7.8 10.4 8.4.4.5-2.9 4.3-7.3 8.4-10.6 9.7-12.6 14.1-12.6 27.9 0 7.2.6 12.4 2.2 18.5 5.1 19.2 5.3 21 3.5 29.7-.6 3.2-3.5 2.9-7-.8-3-3.2-13.2-8.9-15.8-8.9-2.4 0-4.6-3-4.6-6.2q0-9.2-9.8-22.3c-5.9-8-6.5-9.3-7.3-15.6-.4-3.7-.8-11-.9-16.1a71 71 0 0 0-1-13.3c-1.5-6-1.3-18.8.3-18.3.6.3 1.8 1.7 2.5 3.2 1.7 3.4 3.6 4.2 6.8 2.7 2.1-.9 3.1-.8 5.4.5 1.5 1 3.4 1.5 4.2 1.2 1.8-.7 4.1-10.7 3.3-14.1-.7-2.5-.1-4.7 1.2-4.7.3 0 4.3 2.8 8.7 6.2m-52.9 5.8c-.3.5-1.4 1-2.3 1q-2.2.1-.2-1c2-1.3 3.3-1.3 2.5 0m128.6 28.3q-1.2 1.2-1.1-.4c0-2 1.3-3.4 1.8-1.9q.3 1.2-.7 2.3m-4.1 8.6q.1 1.8 2.1 2.4c1.9.5 1.7 1.1-3.1 6.7-2.8 3.4-5 6.9-4.8 7.8s2.4 2.1 5 2.9c2.8.8 5.2 2.2 5.9 3.4 1.6 3 .3 3.6-2.4 1.1-1.3-1.2-2.9-2.2-3.6-2.2-1.8 0-9.9 5.2-10.5 6.7-.3.6 1.6 3.1 4.2 5.5 2.6 2.3 5.2 5.2 5.8 6.3q1 2 3.8 1.7c1.6-.2 3.6.4 4.7 1.4 1 .9 2.7 1.4 3.9 1.1 3.4-.9 3.3 1.1-.2 4.6l-9.5 9.9a50 50 0 0 1-17.7 12.3 46 46 0 0 1-12.5 5c-1.7-1-1.3-9.4.9-17.8 1.1-4.2 5.7-15.4 10.1-24.9 8-17 14-30.6 15.2-34.1.8-2.3 2.7-2.2 2.7.2m24.5.7c1.9.8 4.5 5.5 4.5 8.4 0 1.2.8 2.4 1.8 2.6s2.2 1.6 2.9 3q1.3 2.7 0 2.1c-.7-.3-3.8.9-7 2.6a24 24 0 0 1-6 2.6l-2.5-4.8c-2-4-2.1-4.6-.6-6.2 1.9-2.1.1-3.7-2.1-1.9-.8.7-2 1-2.6.8s.8-1.9 3.4-3.7 4.8-4 5.1-4.7c.6-1.6.8-1.6 3.1-.8M368 662q0 .9-.4 1-.5-.1-1.1-1-.4-1 .4-1 1 0 1.1 1m20 4q0 .9-.4 1-.5-.1-1.1-1-.4-1 .4-1 1 0 1.1 1m-5.6 2.9c.8 1.2-3.4 4.8-6.5 5.6-2.6.6-5.9-1.4-5.9-3.6 0-1.2 1.7-1.2 2.5.1 1 1.6 4.1 1.1 6-1q2.9-3.2 3.9-1.1m6.6 7.3q-.2.7-2 .8c-2.1 0-2.4-.8-1.3-3.6.6-1.6.7-1.6 2 .2q1.2 1.7 1.3 2.6m34.3.5c-.7.2-2.1.2-3 0q-1.3-.5 1.2-.5 2.6 0 1.8.5M261 681.5q-.1.7-1-.5-1.2-1.8-1-2.5.1-.8 1 .5 1.2 1.8 1 2.5m116.8-1.3c-.3.7-1.9 1.3-3.6 1.3q-5.6.2-.9-1.5 5-2 4.5.2m-256 10c1.7 1.7 1.5 5.8-.2 5.8-1.5 0-2.6-2.1-2.6-5.1q.1-3.3 2.8-.7m10 .7c1 .6 1.1 2.2.6 5.9-.3 2.9-.8 5.2-1 5.2s-1.5-.5-2.9-1.2q-2.9-1.2-2-3.2l1.1-4.9q.9-4.1 4.2-1.8m241 4.6c-.9 3.1-25.5 21.9-31.2 23.8q-8.5 2.7-.8-.9a85 85 0 0 0 22.2-16.8c4.1-4.2 8.1-7.5 8.8-7.4q1.2.4 1 1.3m-92.9 9.1c2.5 1.2 6.4 4.1 8.6 6.3 3.5 3.7 3.8 4.3 2.4 5.7-1.4 1.3-2.1 1.1-6.5-2.5-2.7-2.3-6.8-5-9.1-6.1-4.4-2-4.8-2.6-3.7-5.4.6-1.6 1.3-1.5 8.3 2m-2.3 10.4 7.7 5.5c4.3 2.9 4.7 5.5 1.7 10q-4.2 6.5.8 10.4l2.7 2.1-8.2-.1c-9.2-.1-11.6.7-8.8 2.8 2.1 1.4 13 1.7 20.7.4 4.2-.7 5-.5 6.9 1.5 1.1 1.2 1.7 2.4 1.2 2.7s-8 .7-16.8.8l-16 .4-.3-5.9c-.4-8.6-.2-8.9 5.3-6.6 5.7 2.4 5.5 2.4 5.5.1q0-3.9-7-4.8c-4-.6-4-.6-4-5V725l4.3 2.1c2.3 1.2 5 2.8 5.9 3.6s2.2 1.2 2.7.8c3-1.8-.5-6-7.2-8.6-4-1.6-4.2-1.9-4.5-6.3-.3-4 0-4.6 1.6-4.6 1 0 3.7 1.3 5.8 3m-84.9 2c-3.1 2.4-11.6 6.2-13 5.7a57 57 0 0 1 14.6-7.7q.7.2-1.6 2m106.6 6.6c1.8.9 5 2.9 7.2 4.4 6.2 4.3 11.4 7 13.3 7 2.4.1 5.3 4.3 4.1 6.1-1.5 2.5-1 4.9 1.4 5.8a11 11 0 0 1 3.7 2.5q1.3 1.8 4 1.1c2.4-.5 2.8-.2 3.6 2.7.8 2.8 2 3.8 8 6.7 7.6 3.7 8.7 4.8 9.9 10q.8 3.5-.4 2.7c-.6-.4-5.5-.9-10.9-1.2-12.3-.5-14.2-1-14.2-3.3 0-2.6-2.2-4.2-4-3.1q-3.3 2.3-2.3-1c.3-1.1 1.4-2 2.4-2 2.8 0 2.3-2.9-.6-3.6-1.4-.3-2.5-1.2-2.5-2 0-1.6-4.6-1.9-5.5-.4-.3.5-1.3 1-2.2 1-1.3 0-1.2-.5.6-2.4 2.5-2.7 1.5-4.2-2.2-3-2.2.7-2.2.6-.3-1.4 1.1-1.2 1.6-2.8 1.2-3.8-.6-1.5-.8-1.5-3.1 0s-2.5 1.5-3.9-.6c-.7-1.3-1.7-3.6-2-5.1q-.7-3-2.2-2.3c-2.3.9-3.7-.3-2.4-1.9.9-1.1.3-1.7-2.5-3a17 17 0 0 1-4.1-2.6c-.5-.9 1.4-8.9 2.2-8.9.3 0 1.9.7 3.7 1.6m129.7 6.7c4.1 2.1 9.3 4.9 11.5 6.2s7.1 3.2 11 4.2l7 1.8-11.5.8c-25.7 1.8-54.2-1.6-32.2-3.9a24 24 0 0 1 10.8.9c7 2.2 11.4 2.8 11.4 1.7 0-1.4-3-2.5-11.3-4.5-7.9-1.9-10.8-1.6-23.8 2.6-6.3 2-11.2 2.9-15.8 2.9h-6.6l5.5-3.1a56 56 0 0 0 8.5-5.9c9.7-8.9 22.3-10.2 35.5-3.7m-329.5 9.9a85 85 0 0 1 9.4 3.4c.9.8-18.4-.9-19.6-1.8-.7-.6-4.9-.7-10.2-.3-10.3.8-12.1-.4-4.3-2.9 9.5-3 11.1-2.9 24.7 1.6M319 760.5q-1.2 1.3-2.1.9c-1.3-.8-.1-2.4 1.8-2.4q1.9-.2.3 1.5m-43.8 15c2.1 6 2.2 6.5.5 6.5-1.6 0-6.7 5.4-6.7 7.2 0 .8.6 2 1.3 2.8q.9 1.2-1.1-.5c-2-1.6-2.5-1.7-3.2-.5q-.8 1.4.1 2.7c1.7 1.9.1 3.5-2.2 2.3-2-1.1-2.1-1-2.3 3q0 2.6-2.1 2.6c-3.7.2-4 .5-2.2 1.8q4.1 3-5.1 7.2a80 80 0 0 1-19.7 6.4c-3.3.7-7.6 1.8-9.5 2.5a37 37 0 0 1-7 1.6c-4.1.4-4.1-.1-.2-7.9 3.8-7.6 10.4-14.2 14.1-14.2 2.2 0 3.8-1 6.4-4.1a21 21 0 0 0 4.2-6.7 33 33 0 0 1 3.2-6.9c2.2-3.8 2.8-4.2 5.1-3.7q6.2 1.7.9 1.9-3.2 0-3.2 1.5c0 .8-.8 2.1-1.8 2.9s-1.6 2-1.3 2.8c.4.9-.2 2.3-1.2 3.2s-2.6 2.8-3.6 4.3c-1.7 2.5-1.6 2.7.5 4.7 2.9 2.7 5.4 2 10-2.8a15 15 0 0 0 4.4-7.9c.5-3.1 1.1-4.2 2.5-4.2q1.8 0 2.3-2.8c.4-1.5 1-3.2 1.4-3.7 1.5-2 10.8-7.5 12.3-7.2.8.1 2.2 2.5 3.2 5.2M245 795q0 .9-1 1a1 1 0 0 1-1-1q.1-1 1-1t1 1"/><path d="M57.2 265.7c-.5 1-2.2 5.7-3.7 10.5s-3.4 9.3-4.3 10q-1.5 1.3-11.5 1.3-15.5 0-8.2 3.3C34.3 293 43 300.2 43 302c0 1-1.6 6.4-3.6 12s-3.4 10.3-3.1 10.7 3.4-1.9 6.9-4.9c11.6-10 13.2-10.5 18.8-6 7 5.7 13.2 10.2 14.1 10.2 1.7 0 .9-4.9-2.1-13.2-1.6-4.5-3-8.8-3-9.4 0-.7 3.4-3.5 7.5-6.1 10.1-6.5 9.9-7.6-1.5-7q-9 .5-9.9-.7c-.5-.6-2.3-6-3.9-12.1-2.9-10.9-4.3-13.2-6-9.8m4.5 13.3c1.1 4.4 1.6 8.3 1.2 8.6-1.4.8-1 2.4.6 2.4 1.2 0 3.5 5.5 3.5 8.7 0 1-8.5 7.3-10 7.3-1.7 0-9-6.2-9-7.5 0-.9.7-3.1 1.4-5 1.3-3.1 1.9-3.5 5.1-3.5q3.5 0 3-1c-.3-.6-1.5-1-2.6-1q-1.7 0-1.9-.7c0-1.5 5.5-16.3 6.1-16.3.3 0 1.5 3.6 2.6 8m-14.9 12.4c.4 1.7-1.5 5.6-2.6 5.6-1.7 0-10.3-6.1-9.7-6.9.3-.5 3.1-.8 6.3-.6 4.1.3 5.8.8 6 1.9m30.6-.5c.6 1-4.9 6.1-6.5 6.1-.9 0-2.9-4.2-2.9-6.1 0-1.2 8.7-1.2 9.4 0m-5.8 19.3c1.2 3.7 2 6.9 1.7 7.1-.2.3-2.8-1.2-5.6-3.4a40 40 0 0 0-5.9-3.9q-.8-.1-.8-1.5c0-1.6 5.9-5.7 7.4-5.2.5.2 2 3.3 3.2 6.9m-22.1-4.6q5.3 3.3-1.3 7.4l-5.1 3.5c-1.2.8-1.3.4-.7-2.6.6-3.7 3.3-9.9 4.2-9.9.3 0 1.6.7 2.9 1.6M232 270.5q.1 1.4 1.5 1.5c.9 0 2.6.7 3.9 1.6 3.1 2 4.5.1 2-2.7-2.1-2.3-7.4-2.6-7.4-.4m-1.3 4.2c-.4.3-.7 1.9-.7 3.4 0 2.2.6 3 2.5 3.5 2.9.7 5.5-1 5.5-3.7s-5.4-5.1-7.3-3.2m2.8 3.3q.5.9-.4 1-1-.1-1.6-1-.5-1 .4-1a2 2 0 0 1 1.6 1m2.1 103.2c-2.2 3.2-2 6.4.6 8.2 4.4 3.1 8 1.7 9.3-3.6 1.4-5.5-6.7-9.2-9.9-4.6m5.4 3.8q0 .9-1 1a1 1 0 0 1-1-1q.1-1 1-1t1 1m7.1 47.6c-2.7 3.4-2.6 4.9.1 6.8 4.5 3.2 9.8.5 9.8-4.9 0-5-6.5-6.2-9.9-1.9m5 2.7c-.1 1.2-1.5.9-1.9-.4q-.4-1 .8-.8 1 .5 1.1 1.2m27.9.7q.1.9 1.5 1c1.4.1 1.5-.5 1.5-1q-.1-1-1.5-1c-1.4 0-1.5.4-1.5 1m-10 25.4c-1 1.3-.9 1.7.4 2.2 2.2.8 4.9-.3 4.4-1.9-.7-1.8-3.3-2-4.8-.3m130.2-27.2q-1.1 1.2-1.2 2.9c0 .9-1.6 5.1-3.5 9.3l-3.6 7.6-10.2.2-11.6.2q-5.2.6 5.1 7.2c11.8 7.5 11.2 6.1 6.7 17-3.9 9.3-4.6 12.4-3.1 12.4a90 90 0 0 0 15.7-9c2.2-1.6 4.6-2.9 5.3-3 .8 0 5.6 3.2 10.8 7.1 11.7 8.7 14.3 8.5 11.2-1-1.3-4.2-4.4-12.9-5.3-15.2-.4-1.1 1.6-2.9 8-6.8 4.7-2.9 8.4-5.8 8.2-6.4s-2-1.3-4.1-1.5c-3.3-.3-3.7-.1-3.2 1.6.5 1.5-.4 2.6-4.4 5.2-5.4 3.5-6.4 3.3-7.5-1.2-.7-2.6-.5-2.7 4.9-3.3 7.8-1 7-2.5-1.3-2.5h-6.8l-3.2-9.9c-1.7-5.4-3.1-10.4-3.1-11 0-1.5-2.3-1.4-3.8.1m2.4 6.9c0 .8.6 3.7 1.3 6.6 1.4 5.8 1 7.3-2.2 7.3-4.5 0-5.2-1.4-3.4-6.2.9-2.4 1.7-5.6 1.7-7.2 0-2.8 2.4-3.3 2.6-.5m5.3 18.7a19 19 0 0 1 2.6 5.4c.6 2.3.1 3-3.6 5.4l-4.3 2.7-4.4-2.4c-6.6-3.6-6.8-4.2-3.2-9.4 2.8-4 3.5-4.5 7-4.5 3.1 0 4.3.6 5.9 2.8m-18.3-.7q.4 1-.8 2.6c-1.3 1.2-1.9 1.2-5.1-.3-2.1-1-3.7-2.1-3.7-2.6 0-1.2 8.8-1 9.6.3m25.9 19.4c1.1 3 1.6 5.7 1.2 6.1-1.1 1.2-11.7-6.7-11.7-8.7 0-.4 1.4-1.6 3.2-2.7 4-2.6 4.9-1.9 7.3 5.3m-22-4.9c1.4.9 2.5 2.1 2.5 2.8 0 1-7.9 6.6-9.4 6.6-1.1 0-.7-2.8 1-7 1.8-4.5 2.4-4.7 5.9-2.4M70.4 710.4a65 65 0 0 0-18.2 9.7A56 56 0 0 1 16 732c-9.7 0-16 .9-16 2.1 0 1.5 21.2 1 29.8-.6a58 58 0 0 0 24.7-10.6 71 71 0 0 1 20.1-10.3 59 59 0 0 1 27.9 4.8c5.8 2.9 24.5 11.5 37 17.1s21.9 6 51.9 1.5c7.8-1.1 11.4-2.7 24.1-10.4 3.3-2 7-3.6 8.3-3.6 2.5 0 3.1-2.7.8-3.6-1.8-.7-9 2.5-14.2 6.2a78 78 0 0 1-15.9 8c-1.1.4-3.3.8-5 .9-1.6.1-7 .7-12 1.5a73 73 0 0 1-25.5-.1c-3.9-1.2-22.5-9.2-28-12-19-9.8-29.2-13.4-41-14.4-5.4-.4-7.6-.1-12.6 1.9"/><path d="M74.5 720.4a93 93 0 0 0-19.1 9.2 46 46 0 0 1-10.1 4.5q-6.1 2-6.3 3.4c0 3.4 11 .4 19.9-5.5 16.6-11 30.7-11.9 49.1-3.2 3 1.5 7.3 3.9 9.5 5.3a55 55 0 0 0 21.8 7.6c4.8.5 5.7.3 5.7-1q0-1.6-4.2-2.7a79 79 0 0 1-19.1-6.8l-10.1-5.5a53 53 0 0 0-37.1-5.3m-57 27.7-17.2.7q-.3.3-.3 1.8c0 1.4 1.1 1.5 9.1.9 12.3-1 48.5-.8 58.4.3 4.4.5 14.1.9 21.5 1 13 0 13.2-.1 5.5-.9L78 750c-4.7-.5-15.3-1.2-23.5-1.5l-17.5-.8c-1.4-.1-10.1 0-19.5.4m149 2.9c-15.8.5-15.1.6 9.5.7 14.6 0 27.5-.2 28.8-.5 2.9-.9-15.7-.9-38.3-.2m-41 1c-7.1.3-11.9.7-10.5.9 4.7.7 29.5-.1 31-1 1.6-.9 1.4-.9-20.5.1m-19.2.7c.9.2 2.5.2 3.5 0q1.2-.5-1.8-.5t-1.7.5m358.4 35.5c-1.3 1-1.7 2.5-1.5 6.2l.3 5-7 1.6c-8.1 1.9-9.5 2.5-9.5 4.6q.1 2.8 9 3.3c2.4.1 4.7.4 4.9.7 1 .9-2.4 2.4-5.5 2.4-4.3 0-9.4 1.9-9.4 3.5 0 2.6 4.3 4.5 10.3 4.5 5 0 5.8.2 5.5 1.7s-1.8 1.9-7.7 2.5c-4 .3-7.8 1.1-8.4 1.7-1.6 1.6.3 4.5 3.2 4.9 1.7.3 2.1-.1 1.9-2-.3-2.2 0-2.3 5.2-2.3h5.5l.8 9 1 16c.2 5.5.6 6.9 1.8 6.7 2.9-.7 3.3-2.1 2.1-8.5-1.6-8.8-1.6-22.6.1-23.2.6-.2 5.3-.6 10.3-.9 12.9-.7 17-2.9 13.8-7.5-1.4-1.9-2.4-2.1-13.5-2.1-9.2 0-12-.3-11.7-1.3.3-.8 3.6-1.3 10.7-1.5 7.2-.2 10.1-.6 9.9-1.4q-.2-1.2-10.7-.9c-8.1.2-10.2 0-9.9-1q1-2.6 10.1-2.8c7.7-.2 5.4-2.1-2.5-2.1-8.6 0-8.2-1.7.5-2.2 7.6-.4 7.3-2.2-.4-2.8l-6.2-.5-.1-4.5-.1-4.5 4.3-.3c2.5-.2 4.2.1 4.2.7s-1.3 1.1-3 1.1c-3.2 0-4.1 1.7-1.4 2.7 2.3.9 9.1-1.5 9.9-3.4q.6-1.7-1.1-3c-2.3-1.7-13.5-1.7-15.7-.1m-3.7 16.9c0 .5-1.7.9-3.7.9-3.8 0-3.6-1.4.2-2.2q3.5-.8 3.5 1.3m.5 9.9c.8 1.2-1.4 2.2-5.6 2.4-3.5.1-5.1-1.9-2.2-2.7 3.3-.9 7.2-.7 7.8.3m27 5c0 2.3-6.1 3.9-14.8 3.9-7.6.1-7.8 0-7.5-2.2.4-2.6 4.4-3.5 15.3-3.3 5.5.1 7 .4 7 1.6"/><path d="M471.4 830.1c-.8 1.4 1.8 3.1 3 1.9.9-.9 0-3-1.4-3q-.9.1-1.6 1.1"/></svg>