<svg xmlns="http://www.w3.org/2000/svg" width="666.7" height="1170.7" viewBox="0 0 500 878"><path d="M179.8.7A40 40 0 0 1 167 8.5c-1.7-1.1-5 .6-5 2.5 0 2.8-14.1 10.1-21 10.9-4.9.5-5.5.9-5.5 2.9q.2 2.2-6.2 7l-13.5 10.3c-4 3.1-8.8 6.4-10.5 7.3-1.8.9-3.3 2.2-3.3 3C102 54 67.2 84 65.3 84q-1.3 0-.7-2.4c.8-3.5-.4-6.6-2.6-6.6-1.6 0-1.9.7-1.8 3.5.2 4.3-1.7 6.7-4.7 5.9-2.6-.6-4.3 1.2-2.6 2.9.5.5 2.7 1 4.6.9 2-.1 3.5.3 3.3.8-.8 2.3-25.2 26-26.4 25.6-.7-.3-1.4-2-1.6-3.8-.2-2.5-.8-3.3-2.3-3.3-1.8 0-2 .6-1.7 4.9.5 7.4-1.3 8.8-10.8 8.4-6.1-.2-7.5 0-7.5 1.2s1.6 1.6 7 1.8c9.9.4 10 .5 6.6 5.2a74 74 0 0 1-10.6 12q-.5-.2-.5-2c0-1.8-.4-2-.9-2q-2.7.2-3.7 7.6c-.8 5.8-2.3 9.1-5.8 12.3-1.4 1.4-2.6 3.5-2.6 4.7v2.3l2.6-2.4a694 694 0 0 1 130.9-127c3.9-3 7.5-5.5 8-5.5s2.8-1.2 5-2.7a203 203 0 0 1 11.5-6.9 460 460 0 0 0 20-11.8L190.4 0h-5.1c-2.8 0-5.3.3-5.5.7"/><path d="M207.2 1.6c-1.2.8-4.6 2.3-7.4 3.4a281 281 0 0 0-46.2 24.7 26 26 0 0 1-5.8 3.3c-1.6 0-21.9 15.1-33.7 25a740 740 0 0 0-77 74.2c-4.7 5.4-9 9.9-9.7 10.2s-6 6.9-11.8 14.8L2.5 174.6a12 12 0 0 0-2.5 6v2.8l1.7-2.4c.9-1.4 4.4-5.9 7.8-10.1s7.8-10.2 10-13.4 8.5-10.7 14-16.5 11.6-12.4 13.5-14.7a626 626 0 0 1 52.1-50.8l12-10.1c12-10.1 32.9-25.5 39.1-28.8 2.9-1.5 9.4-5.2 14.3-8.3 11.9-7.2 10.2-6.3 25.5-13.8 23.5-11.6 20.5-11 50.9-10.7 25.3.2 26.8.4 33.4 2.7a44 44 0 0 0 8.4 2.5 6 6 0 0 1 3.2 1.3c.9.7 5.7 3.1 10.6 5.2 9.8 4.3 28.8 13.9 43 21.7A426 426 0 0 1 401 84.3c14.5 12.8 47.5 46 55.8 56.2l16.2 19.1a271 271 0 0 1 22 27.9c4.7 6.5 5 6.8 5 3.9q0-3-6-11.9c-14.3-21.6-21-30-39.1-49L438 112.6c-3-3.2-9.6-9.5-14.6-14l-19.2-17.1c-5.5-5-12.1-10.6-14.8-12.5s-7-5.4-9.6-7.7-7.2-5.8-10-7.8c-2.9-1.9-7.2-5-9.4-6.8a144 144 0 0 0-10-6.7c-3.2-1.9-9.6-6-14.4-9.1-4.7-3.1-13.4-8-19.5-11a228 228 0 0 1-14.5-7.5c-1.9-1.3-7.9-4.2-13.2-6.5-5.4-2.3-9.8-4.5-9.8-5S263.5 0 244.2 0c-29.8 0-35.1.2-37 1.6"/><path d="M291.1.4c.2.3 6.4 3.4 13.6 7 16.8 8.3 28.3 15 46.4 26.8l16.6 10.7a93 93 0 0 1 10.1 7.9c4.4 3.7 10.8 8.8 14.3 11.4 13.9 10.3 29.2 25 58.5 55.9 28.2 29.8 37.4 40.6 43.9 51.4 5.4 8.9 5.5 9 5.5 5.2 0-4.4-1.5-7.7-7.6-16.5a35 35 0 0 1-4.4-7.6q0-1.4 6-2t6-2.1c0-.7-1.2-1.5-2.7-1.7-2.6-.3-2.9-.7-3.5-5.7-.3-2.9-1-5.7-1.5-6.2-1.6-1.6-3.1 1.2-3.5 6.1-.3 4.1-.5 4.5-3.6 5.1s-3.6.3-12.6-10l-13.9-15.5c-4.7-5.1-5.1-6.6-1.6-6.6q2 0 1.7-1.8-.1-1.7-5.6-2.6c-5-.8-6-1.6-18.4-13.6-13.1-12.6-13.2-12.7-10.8-14q2.5-1.4 14.9-1.4c12.9-.1 14.2-.6 12.5-4.4a74 74 0 0 1-.8-21.8l.6-9.2 4.4-.7c2.4-.3 4.4-1 4.4-1.4s-6.4-1.2-14.3-1.8c-7.9-.5-14.9-1.3-15.5-1.7-.7-.4-1.2-2.5-1.2-4.6s-.5-4.2-1.1-4.6c-1.6-.9-4.2 2-4.5 5.2-.4 4.1-1.7 4.8-10.2 5.4-5.9.4-7.7.8-7.7 2s1.8 1.6 9.4 1.8c5.6.2 9.8-.2 10.6-.8q1.2-1.1 5.6-.1c2.4.6 6.5 1.1 9.1 1.1 4.4 0 4.7.2 5.7 3.3 1.3 3.9.7 20.9-.9 25.4l-1.3 3.4-14.8.6-14.7.5-5.8-4.3a258 258 0 0 1-23.2-19c-5.1-4.6-6.2-6.2-5.7-7.8q.6-2.1 3.1-2.1c2.1 0 2.5-.4 2.2-2.3-.3-2.1-.7-2.2-9.4-2-8.2.2-9.4 0-12.7-2.3-3.6-2.4-4.7-4.7-2.7-5.9q2.4-1.6-1.2-3.6c-1.8-1-2.4-.8-3.8 1.1l-1.7 2.3-4.5-3.1a46 46 0 0 1-5.6-4.5c-.7-.7-3-2.2-5.2-3.2-4.5-2-5.3-4.5-1.5-4.5 1.4 0 2.5-.4 2.5-.9 0-.8-2.3-1.4-11.3-2.7-4.4-.7-5.6-2.4-5.9-8.8-.3-4-.6-4.6-2.6-4.6s-2.2.5-2 3.5c.1 1.9-.1 3.7-.4 4-.3.4-4.2-1.2-8.7-3.4A27 27 0 0 0 295.4 0c-2.6 0-4.5.2-4.3.4"/><path d="M380.4 5.9c.6 5.2.5 6-1.1 6.4q-6 1.8-19 1.9c-10.4.1-13.1 1.4-8.9 4.2q4.5 2.8 8.5.6a79 79 0 0 1 24.5-2c2 2 6.3 1.1 8.1-1.6 2-3.1 1.7-3.5-2.7-3.9-3.3-.2-3.3-.3-3.6-5.9-.3-5.5-.3-5.6-3.4-5.6h-3.1zm77.5-4.2c-.2 6.2-1.9 7.9-8.5 8.9-2.6.4-4.4 1.2-4.4 1.9 0 2.3 5.6 2.7 12 .9 5.4-1.5 7.3-1.6 15.8-.5 7 .9 10.2 1.7 11.7 3.1 2.7 2.5 4.7 2.5 6.9.1 1-1 3.3-2.2 5.2-2.5q3.4-.7 3.4-2.5c0-1.5-1.1-1.7-10.2-1.7a181 181 0 0 1-18.8-1l-8.5-.9-.9-3.8c-1-3.8-3.5-5.2-3.7-2m-49.1 11.4q-.8.8-.6 2.5c.3 1.6 1.3 1.9 6.6 1.9 5 0 6.5.4 7.3 1.7 1.3 2.4 3.6 2.3 4.9-.2q1.1-2 4-2 5.1.1 1.2-3.4c-1.6-1.3-3.7-1.6-12.1-1.4-5.7.2-10.7.6-11.3.9m-196.8.7a88 88 0 0 0-23 6.2c-1.4 1-5.1 3-8.2 4.4-3.2 1.5-6 3.2-6.4 3.7-.3.6-9 6.6-19.3 13.5a341 341 0 0 0-35 24.8c-4.1 3.3-9.6 7.7-12.3 9.7a826 826 0 0 0-70.3 67.5C14.6 170.3 3.2 185.1.1 192.5c-1.5 3.4 11.7-11.6 18.4-21.1 11.1-15.6 40-47 55.5-60.3 4.1-3.6 12.7-11.3 19-17.3s13.6-12.3 16.1-14c2.6-1.8 9.1-7 14.5-11.6s14.4-11.3 19.9-14.8L166 38.8c14.1-9.2 32.1-18.8 35-18.8 1 0 2.1-.4 2.4-.9.6-1 24.8-.7 26.5.3.7.5 1.1 4.1 1.1 9.6 0 10.5 1.1 9.8-15.1 10.2-10.4.3-10.6.4-13.8 3.6-1.8 1.7-3.7 3.2-4.3 3.2-3.8 0-49.3 31.3-61.1 42.1-4.3 3.9-9.9 8.8-12.5 10.9s-6.9 5.8-9.6 8.4a22 22 0 0 1-6.2 4.6c-.7 0-2.1 1-3.1 2.3s-6.5 6.6-12.3 11.9a785 785 0 0 0-43.9 45.4L39.6 182c-2.9 3-6.7 7.5-8.6 10l-9.5 11.6C5.2 223 0 230.8 0 235.7c0 2.4.8 1.5 5.7-5.7 3.1-4.6 9.5-13.3 14.2-19.3l10.6-13.5a504 504 0 0 1 41.1-45.3l16.5-16c20.9-20.4 61.5-55 74.6-63.6 4.8-3.1 10.4-6.9 12.4-8.4 4.5-3.6 19.5-12.3 28.1-16.5l6.6-3.3 34.5-.6 34.6-.6 3.8 2.4a454 454 0 0 1 75.2 57.2l18.6 17c6.1 5.5 13.5 12.5 16.5 15.6a1074 1074 0 0 1 57.2 61.6 369 369 0 0 1 44.5 61.7c4.4 7.6 5.3 8.6 5.3 6.2 0-3.6-10.1-23-18.3-35.1a901 901 0 0 0-53.1-65.7A144 144 0 0 0 408 143l-18.5-17c-23.6-22.2-52.6-48-65-57.8-2.7-2.1-12.2-8.7-21-14.7a458 458 0 0 1-18.1-12.6c-1.7-1.6-3.6-1.9-11.1-1.9q-9 0-10.1-1.3a31 31 0 0 1-1.1-10.4l-.1-9.1 8.3-.4c10.2-.4 18.2 2.3 32.7 10.8l18 10.2a311 311 0 0 1 41.9 27.7 514 514 0 0 1 45 40.9c2.4 3.1 4.8 5.6 5.2 5.6 1.7 0 28.3 27.7 40.3 41.8a628 628 0 0 1 38.7 48.7q6.3 8.8 6.7 7.3c.4-2.1-3-7.6-12.2-19.8-4-5.2-9.2-12.4-11.6-16a143 143 0 0 0-9.6-12.5 726 726 0 0 0-54-57.2l-13.9-12.9a721 721 0 0 0-51.2-43.3l-27.4-16.5-11.9-6.9-15-8.6-6.5-3.5-35.5-.1c-19.5 0-37.1.1-39 .3m43 6.7c1.6 2 .4 17.5-1.5 17.5-1.5 0-2.7-10-1.8-15.3.6-4 1.4-4.5 3.3-2.2M243.5 29c0 7.8-.2 8.5-2 8.5s-2-.8-2.3-8.8c-.3-8.7-.3-8.8 2-8.5s2.3.7 2.3 8.8M45.7 16.6q-.5.8.4 2.6c2 3.8.4 5-6.4 4.8-19-.8-23.2 1.4-4.8 2.5a44 44 0 0 0 13.9-.4q2-1 6.4-.3c6.1 1.2 12.8.4 12.8-1.5 0-1.1-1.2-1.4-4.7-1.3-9.7.3-10.2.2-12.4-3.5q-3-5-5.2-2.9m63.6 5.3c-.4 1.5-1.8 1.9-8.1 2.5-4.2.3-9.2.2-11-.3-6.2-1.8-8.7 1.6-3.3 4.4 2.5 1.2 3.1 2.3 3.6 6.2l1 8.1c.3 2.6-.2 4-2 5.8-1.3 1.3-2.9 2.4-3.5 2.4q-.9.2-1 1.5-.2 1.6 4 1.5c3.4 0 4.2-.4 5.6-3.2 1.3-2.6 1.5-4.9 1-11.7-.3-5-.2-9.2.4-10.1q.8-1.5 7.2-1.7c8.2-.2 16-1.5 16.5-2.8.3-.9-7-4.5-9.1-4.5q-.7.1-1.3 1.9m380.6 6.7c-.8.9-1.6 4-1.9 6.8l-.5 5.1-5.2.9c-5.7.9-7.5 3.6-2.6 3.6 4.7 0 20.3-3.5 20.3-4.5 0-.6-1.5-1.7-3.3-2.5-2.9-1.3-3.2-2-3.5-6.3-.3-5-1.1-5.7-3.3-3.1M28.5 43.1c-.4.5-.4 2.1-.1 3.3.3 1.4 0 2.8-.7 3.4a39 39 0 0 1-17.3 2.5c-4.2-.7-5.2.4-4.6 4.7.5 3.5 1.9 4 2.4.8.3-2 1-2.2 7.3-2.4 3.9-.2 10.1-1.2 14-2.3 3.8-1.2 8.7-2.1 10.8-2.1 5.5 0 4.3-2.4-1.4-2.8-4.9-.4-6.9-1.6-6.9-4.3 0-2-2.5-2.6-3.5-.8"/><path d="M263.7 46.7c-1.5 1.4-.4 2.3 7.6 6.3 9.2 4.7 18.9 10.7 35.4 21.9l14.5 9.8a803 803 0 0 1 89.9 78.8c2.4 1.9 7.7 7.7 20.7 22.8 3 3.4 6.2 7.9 7.3 10s3.5 5.5 5.3 7.5c1.9 2 4.7 5.8 6.2 8.3a799 799 0 0 1 23.5 35.1l16.4 26c2.2 3.5 5.2 7.9 6.7 9.8l2.8 3.5v-2.7c0-1.5-.8-4.2-1.8-6s-4.1-7.3-6.7-12.3a218 218 0 0 0-17.1-27.6A230 230 0 0 1 459 215q-.1-.8-1.5-2c-.8-.6-4.7-6-8.7-11.8a323 323 0 0 0-38.2-44.1 541 541 0 0 1-26.6-25 278 278 0 0 0-33-28.6l-21.9-17.8a216 216 0 0 0-30.6-21.1l-19.4-11.7c-10.9-6.5-13.9-7.8-15.4-6.2m-44.2 1.7c-5.6 1.8-21.8 10-29.5 15.1l-13.9 9a557 557 0 0 0-53.5 41.8c-9.5 8.5-15.7 14.4-38.1 35.8A433 433 0 0 0 53.8 182c-.9 1.4-4.5 6-7.9 10.3a295 295 0 0 0-22.4 29.6c-6.7 10-15.2 22.2-21 30a13 13 0 0 0-2.5 6.5v3l1.7-2.4A2269 2269 0 0 0 32 217.5a110 110 0 0 1 9-11.1c3-3.4 9.1-10.8 13.5-16.4a375 375 0 0 1 33.8-37.9c20.7-21 48.3-45.9 59.7-53.9 5.8-4 15.1-10.9 20.7-15.2 5.7-4.4 10.7-8 11.2-8s5.1-3.1 10.2-7c9.7-7.2 27.4-17 30.7-17 1.1 0 3-.9 4.3-2 2.3-1.8 2.3-1.9.4-1.9-1.1 0-3.8.6-6 1.3"/><path d="M240 50.6a307 307 0 0 0-43.6 22.1 62 62 0 0 1-9 5.3c-.9 0-9 5.7-29 20.5a95 95 0 0 0-9.8 8c-1.7 1.6-6 5.4-9.6 8.4a401 401 0 0 0-17.6 16 313 313 0 0 1-16.7 15c-3 2.4-7.7 6.9-10.4 9.9-2.6 3-10.6 11.8-17.8 19.5a331 331 0 0 0-43.9 56.2c-1.6 2.7-5.9 9-9.6 14a228 228 0 0 0-18.4 28.2L0 281.9v21.6C0 316.7.4 325 1 325a425 425 0 0 1 50.2-48.6c1.2-.3 3.6-2.1 5.3-3.8s6.4-5.6 10.4-8.6l11.8-9.1c6.1-5 10.4-6.2 15.1-4.2l3.7 1.5-4.5 1.5c-2.5.8-5.2 2.1-6 2.8s-3.1 2-5 2.8A206 206 0 0 0 52.5 281c-2.2 2-6.7 5.6-10 8a53 53 0 0 0-8 7c-1.1 1.4-5.4 6.2-9.6 10.7C9.3 323.3-2.2 338 .3 338a92 92 0 0 0 13.4-14.2 299 299 0 0 1 55.8-50.9c2.8-1.8 6.7-4.8 8.7-6.6a28 28 0 0 1 16.9-7.7c10.6 0 36.8 19.9 55.7 42.4 7 8.3 20.2 26 20.2 26.9a112 112 0 0 1 14.1 20.9c3.5 6.5 8.2 14.9 10.5 18.7 16.5 28.1 36.6 80.3 37.6 98 .2 3.9 0 5-1.2 5-1.6 0-2.5-2.7-5.4-15a260 260 0 0 0-15.1-44.5l-6-14-7-15-7.2-14.5a297 297 0 0 0-27.1-41.8 194 194 0 0 0-34.8-39.4c-14.3-12.8-23.8-19.3-31.5-21.7l-5.6-1.8-5.9 3.8-9.4 5.9a178 178 0 0 0-30.4 22.6A374 374 0 0 0 1 344.2c-.7.2-1 1.7-.8 3.3.3 3 .4 3 4-2.5 5.8-8.9 48.9-51.8 55.6-55.4 1-.5 4-2.8 6.7-5a173 173 0 0 1 14.3-10c9.2-5.7 9.5-5.8 14.8-5.2 5.7.7 10 2.9 18.9 9.9 7.8 6.1 22.2 20.2 25.9 25.5 1.9 2.6 5.2 6 7.3 7.6 3.4 2.7 10.6 12.6 27.8 38.6 9.2 13.8 11 16.9 14.4 25l4.6 10a365 365 0 0 1 21.7 50c2 4.9 3.6 11 2.8 11a11 11 0 0 1-3.3-2c-3.5-2.8-11.6-2.7-17.5.2a46 46 0 0 0-15.7 16.4c-3.5 6-4.5 15.2-2.1 18.9q1.4 2.3.7 2.5c-1.2 0-6.1-8.1-6.1-10 0-.7.6-2.1 1.3-2.9a20 20 0 0 0 2.6-6.1c1.2-4.2 1.2-4.5-.9-6.2-2.7-2.2-2.1-3.4.8-1.9q2 1 2.6 1.1c1.1 0 .6-4-.6-6.1-1.2-1.8-.9-2.4 2.7-5.5 5.5-4.6 9.4-5.8 18.1-5.1 4.2.3 7.6.1 8.2-.5 1.1-1.1-.7-10.5-3.3-17-4.6-11.8-17-37-19.4-39.6-1.2-1.2-1.9-2.7-1.6-3.3.4-.6 0-1.8-.8-2.7s-2.7-4.2-4.2-7.2a196 196 0 0 0-24.4-36.8c-2.5-2.6-6.6-7.5-9.1-10.8a178 178 0 0 0-42.3-39.1c-1.6-1.3-3.5-2.3-4.4-2.3-.8 0-2.6-.9-3.9-1.9-3.8-3-8.6-1.7-18.9 5.2a248 248 0 0 0-63.8 61.2c-3 4.4-7.3 12.3-9.6 17.5L0 372.5v188.3C0 672.7.4 749 .9 749s4-1.4 7.7-3.1a294 294 0 0 1 32.2-12.2c3-.6 3.2-.5 2.6 1.7-.8 3.3.9 6.1 4.8 7.6 1.8.7 4.5 2.6 6 4a16 16 0 0 0 5.8 3.4c3.7.7 5.4 4.3 4 8.2-.8 2.1-.6 2.9 1.5 5q4.7 4.8 18.4-.1a37 37 0 0 1 10.3-2.4c3.9.1 13.1-1.6 15.8-3.1 2.5-1.3 3-1.3 3 .4s-1.8 2.9-18.8 12.2c-17.6 9.7-20.8 10.8-28.9 9.9-3.5-.4-7.8-1.1-9.6-1.6-3.8-1.1-12.2-2.5-27.7-4.4l-19.4-2.4a34 34 0 0 0-8.4-.6q-.4.5.1 1.9.8 1.4 7.9 2.5a608 608 0 0 1 24.8 4.7c16 2.8 33.6 6.6 34.5 7.6 1 1-.6 11.9-1.6 11.2-.5-.3-.7-1.5-.4-2.7s-.1-3.1-.8-4.2c-1.2-1.6-1.7-1.7-3-.6-.9.7-1.8 2.2-2 3.4q-.5 2.7-.6-.6c-.2-4.4-1.9-6.9-4.5-6.5-1.3.1-3.1-.3-3.9-1.1-2.3-1.8-4.7-.7-4.7 2.3 0 3.4-1 5.6-2.5 5.6q-1.4.1-.8-3.8c.6-4.3-1.6-7.3-4-5.4-1.3 1.1-5.3.6-7.3-1-.7-.5-2.5-.8-4-.7-1.6.2-3.9-.1-5.2-.5-2.1-.7-2.2-.5-2.2 3.8 0 2.5-.4 4.6-1 4.6s-1-2-1-4.4q0-4.5-1.6-5c-2.5-1-3.4.2-3.4 4.6 0 2.3-.3 3.8-.7 3.4-.5-.4-.8-2.8-.8-5.4v-4.5l-5.7-1.2-5.8-1.1v6.1c0 3.3.5 6.6 1 7.1q1 1 .1 5.7c-.9 4.8-.7 15.3.4 18.7.3 1 .1 2.1-.5 2.5-1.4.9-1.2 5.6.5 8.5 1.8 3.2 1.8 4 0 4-2.1 0-1.9 2.2.5 4.7 1.7 1.9 3.2 2.2 10.7 2.3l13.2.4c4.7.1 6.7-1.7 2.9-2.8-1.3-.3-5.3-.6-8.9-.6-4.7 0-7-.4-7.9-1.5q-1.1-1.5-.9-1.9c.2-.2 6.5 0 13.9.4 10.7.6 14.1.5 16.2-.6 2.7-1.4 4.3-3.2 3.6-4-.8-.7-21-3.4-26.3-3.4-4.6-.1-4.9-.2-3.1-1.5 2.5-1.9 12.3-1.9 22.6-.1q7.6 1.5 9.3.4c2.4-1.2 1.6-2-3.6-3.5l-4.2-1.2 6.5.2 6.5.2-.3 9a234 234 0 0 1-1.6 18.3c-1.3 9.1-1.3 9.4.8 10.7 1.2.7 3.1 1.6 4.4 2 3.2.9 4-2 1.4-4.8-2.4-2.6-2-7.2.9-8.8 2-1 2.7-4.9.9-4.9-.5 0-1-1.3-1-2.9 0-2.4.3-2.8 1.9-2.4s2.1-.2 2.6-3.1c.4-2.1.3-4.2-.3-4.9q-1-1.2.4-3.1a8 8 0 0 0 1.5-4q0-2.5.6-.4.5 1.6 1.7 1.8c1.9 0 2.6 9 1.5 18.6-1.3 11.5-1.9 13.7-4.2 15.6q-2.4 1.7-1 2.9a2 2 0 0 0 2.5.3c.7-.5 2.4-.9 3.7-.9q2.4.2 5.7-4.5c3-4.2 3.2-5.2 3.9-16l.9-15.5c.1-3.9.2-4 3.5-4 4.4 0 5.3-2.3 1.2-3.1-1.7-.4-3.4-1.1-3.8-1.7q-.7-1 8-.4c4.9.4 8.8.3 9.1-.2.7-1.2-4.1-2.8-11.2-3.8-2.9-.5-5.4-1.2-5.5-1.7-.2-1 10.8-1 17.9 0q4.1.6 4.9-.6c1.1-1.8-.1-2.3-9.3-3.7l-8.7-1.2 12.8.5c10.9.4 12.8.3 13.3-1.1.3-.8 1.7-1.5 3-1.5q2.3-.1 2.4-1.4.2-1.4-6.5-2.1c-3.6-.4-6.8-1.1-7.1-1.6-.7-1.2 1.5-1.1 11.1.5q11.2 2 9.1-1.2c-.3-.5-3.3-1.5-6.6-2.1s-6-1.5-6-1.8 3.5-.2 7.7.2c12.2 1.1 14.6 1.1 15-.2.3-.7-1.1-1.5-3.4-1.9-2.1-.3-4.5-1.1-5.3-1.6-1.5-.9.1-.8 15.8.8 5.1.5 6.2.4 6.2-.8 0-1.1-2.3-1.8-9.1-2.8-9.6-1.4-16.8-3.4-15.3-4.2 1-.6 12.9.8 22.9 2.7 4.2.8 7.4 1 7.9.4 1.5-1.4.2-2-9.1-4.5-8.1-2.1-8.5-2.2-4.3-2.3 2.5 0 8.5.6 13.3 1.4 8.5 1.4 11.7 1.2 11.7-.6 0-.9-.7-1.1-10.5-3q-15.9-3.2 2.3-2.3c9.7.5 11.2.4 11.2-.9 0-.8-.6-1.8-1.2-2-2.4-1 1.4-2.5 4.8-2 1.8.3 4.1.3 5-.1 2.5-1-.2-3.6-3.7-3.6-1.6 0-2.9-.5-2.9-1 0-1.3 5.5-1.3 14.2.2 6.1 1 7.2.9 8.2-.4.6-.8 2.1-2 3.3-2.7q2-1.1 1.7-2.5c-.5-1.4 2.2-3 3.6-2.1a14 14 0 0 1 1.5 5.1c.7 4.9 4.1 9.4 7.1 9.4 3.6 0 .1 1.5-4.7 2-6.9.7-5.7 2.5 1.6 2.5 5 0 6-.3 5.9-1.7-.1-1.5.5-1.6 4.1-1.1q8.2.9 2.9-5.7c-2-2.3-3.1-2.9-5-2.4-1.3.3-2.4.2-2.4-.4 0-1.3 3-2 6.8-1.4 2.6.3 3.3 1 3.8 3.8.3 1.8.7 19.2.8 38.6l.1 35.3 3.8.3q3.8.2 5.3 2.8c.9 1.3 2.4 2.4 3.3 2.4s3.6 1.4 5.9 3.1c3.6 2.6 4.8 3 8.1 2.4 2.2-.3 4.9-1.7 6.2-3.1 1.2-1.3 3.3-2.4 4.5-2.4s2.6-.4 2.9-1 3-1 5.9-1c4 0 5.7-.5 7.1-2 2-2.2 6.9-2.8 6.3-.8a6 6 0 0 1-2.6 2.3q-5.2 2.5 2.4 2.5c5.8 0 9-1.6 7.3-3.6q-1.2-1.4 0-1.4 1 .1 1.1 1c0 .6 1.1 2.2 2.5 3.5 2 2 3.4 2.5 7.8 2.5 6.3 0 15.6 2.5 16.3 4.5.6 1.6-1.8 5.7-5.9 10.2-3.3 3.5-3.2 6.9.1 9 5.4 3.3 26.7 3.8 33.7.8 1.7-.7 4.3-1.6 5.9-2 2.7-.6 14.9-7.9 20.9-12.5l2.7-2.2v4.9c0 2.6-.5 6.8-1.1 9.3s-1.2 6-1.3 7.7l-.2 3.3h46.4l1.1-6.3c.6-3.5 1.1-9.7 1.1-13.9 0-10.5 1.2-13.4 5.8-14.2a29 29 0 0 0 16.8-7.7c3.6-3.7 3.9-4.5 4.4-11 .3-3.8.2-10.7-.2-15.2-.8-8.2-.9-9.2-.6-12.5l-.7-19.3c-.5-11.4-.4-17.8.2-18.2.5-.4 11.3-.7 23.9-.7 23.2-.1 29.4-.6 29.4-2.1 0-.4-12-.7-26.7-.6l-26.8.2-.3-3.7-.3-3.7 14.3-.3c8.6-.2 14.3-.7 14.3-1.3 0-.5-1.3-1.3-3-1.6-2.8-.6-2.8-.7 1-.9h15.8l11.7.2V397.5l-9.3-18c-7.9-15.2-14.5-26-27.4-45.1l-8.3-12.7a71 71 0 0 0-7.2-9.7c-.4 0-3.3-3.3-6.4-7.3-7.9-10-25.4-26.9-30.6-29.4-7.3-3.6-9.4-3.5-18.3.9a107 107 0 0 0-14.9 8.8c-1.5 0-12.9 8.8-22.8 17.6a243 243 0 0 0-39.9 45.9 242 242 0 0 0-20.3 38.8c-.8 1.2-4.4 10.3-8 20.2a201 201 0 0 0-12.3 52.3c-.5 7.9-.9 9.5-2.6 10.3-3.1 1.7-3.7-.1-2.6-7.6 3-20.2 6.1-38 6.8-39.4.5-.9 1.6-4.8 2.6-8.6 2.1-8.3 4.3-13.6 10.8-26.5 2.7-5.2 6-12.2 7.4-15.4a235 235 0 0 1 25.4-42.1 168 168 0 0 1 23.2-28 279 279 0 0 1 36.5-28.7c14.3-8.9 15.2-9.5 18.8-10.2 2.9-.6 3.8 0 12.6 8.1 5.2 4.8 13.1 11.9 17.6 15.7 10 8.5 15.1 13.8 23.3 24.4a452 452 0 0 1 43.3 65.7l2.5 4 .1-3.5c0-6.8-19.6-38.2-42.7-68.2a249 249 0 0 0-40.8-40.6c-13.9-10.8-14-10.8-26-4.7a238 238 0 0 0-69.1 57.5 333 333 0 0 0-45.9 88.5l-3.6 10c-2.4 5.5-7.2 30-8.5 43.3-.6 6.1-1 7.5-2.7 8.1a83 83 0 0 1-20.6-.3c-.5-.3-1.2-3-1.6-5.9-2.9-24-18.7-65.2-37.8-98.7l-12.5-22c-3.5-6.3-8.3-13.8-10.6-16.5-2.3-2.8-7.1-9-10.6-13.9-8.8-12-22.5-27.2-32.9-36.3-10.2-9-23.6-19.1-27.1-20.5-5.5-2.3.2-1.7 6.6.6 3.8 1.4 9.2 3 11.9 3.6s8.6 2.1 13 3.4c39.5 11.7 67.7 15.2 117 14.3 33.4-.6 46.1-2.2 86-10.7 8.7-1.9 32.5-10.4 47.5-17a190 190 0 0 1 14-5.6l4.5-1.3 9.1 6.9a453 453 0 0 1 61.1 64.9L486 328c2.3 3 6.2 9.1 8.8 13.5l4.7 8 .3-22 .3-22-3.1-7a353 353 0 0 0-15-29.5c-1-1.4-2.1-3.6-2.5-5s-2.1-4-3.6-5.8a13 13 0 0 1-2.9-4.4 25 25 0 0 0-3.8-6.2 99 99 0 0 1-6.2-9.1c-2.6-4.3-3.5-5.7-10.8-15.2l-11.7-15.9c-8.8-12.1-20.4-26-28.7-34.4-9.9-10-45.3-42-54.9-49.7-8.9-7-14.8-12-25-21.1a28 28 0 0 0-7.3-5.2c-.8 0-4.1-2.3-7.3-5.1s-9.8-7.7-14.8-11l-18.8-12.5a180 180 0 0 0-16-9.9l-13.2-6.9c-3.8-2-7.4-3.6-8-3.5-.5 0-3.5 1.2-6.5 2.5m14 5c4.1 2 10.4 5.5 14 7.8l17 11a254 254 0 0 1 57.6 48.2c7 8.8 28.4 40.8 28.4 42.6a509 509 0 0 1 34.3 71.1c1 3.5.9 4-.8 5.3-1.1.8-3.1 1.7-4.5 2.1-1.4.3-7 2.3-12.5 4.5a294 294 0 0 1-79.8 22.2c-7.4.9-4.7-.9 3.5-2.3a456 456 0 0 0 74.1-22.4c4.8-2 10-3.8 11.6-4.2 3.6-.8 5.5-2.9 4.8-5.2a405 405 0 0 0-40.3-82.5l-8.9-14c-2.2-3.4-4.6-7.2-5.5-8.3-2-2.7-27.7-29.2-31.4-32.4-10.5-9.2-36.4-28.1-38.5-28.1-.4 0-3.6-1.8-7-4a92 92 0 0 0-25.2-12.2c-1.4 0-6.5 2.1-11.2 4.6a62 62 0 0 1-9.8 4.6c-2.3 0-21.2 12.5-32.2 21.4-27 21.7-34.6 29-45.8 44.1L133.7 146c-5 6.6-18.9 34.1-25.2 50-2.4 6-5.8 16.9-7.2 23-.3 1.4-1.2 3.2-1.9 4-2 2.3-4 8.7-4.8 15.2s-.8 6.5 9.2 9.8a284 284 0 0 1 23.8 8.8c2.8 1.7-.2 1.4-5.1-.4l-16.2-5.5c-6.6-2.2-12.8-4.6-13.7-5.2s-1.7-2.6-1.7-4.2a73 73 0 0 1 4.7-19.3 17 17 0 0 0 1.4-5.6c0-1.3.9-4.3 2-6.7s2-5.2 2-6.1c0-4.4 17.3-41.2 23.9-51.2l5.5-8.5a208 208 0 0 1 32.5-38.9c8.6-8.5 17.9-17.1 20.6-19.2A303 303 0 0 1 235 56.6l6-3.1c3.6-2.1 4.6-1.9 13 2.1m-3.7 6.3c.5.5-1.2.9-4 .9-6.9 0-21.6 6.6-37.3 16.7l-9.3 5.9c-1.6.9-3.6 2.5-4.6 3.4l-8.2 7.4a361 361 0 0 0-42 44.3l-5.6 8.6a149 149 0 0 1-13 22.4c-1.8 2.7-4.8 8.6-6.7 13a612 612 0 0 1-8.9 20.3q-1 2.1-1.4 1.5c-.4-1.1 8.4-23.4 12.7-32.2 11.2-22.9 29.8-49 44.5-62.6l19.4-18a116 116 0 0 1 13.1-11l8-4.6c27-15.8 39-20.3 43.3-16m-2.9 4.6a34 34 0 0 0 7.1 3c7.2 2 32.8 19.1 43 28.6a37 37 0 0 0 6.7 5 118 118 0 0 1 24.3 22.4c2.9 3.9 6 7.7 6.8 8.3s3.9 5 6.7 9.5l10.5 16.2a253 253 0 0 1 15.7 27l4.6 9c.7 1.1 2.1 4.2 3.2 6.9q2 5 3.1 3.9 1-1-.6-4.9c-.9-2.2-2.4-6.1-3.2-8.9-.8-2.7-2.4-6-3.4-7.4-1-1.3-1.9-2.8-1.9-3.2s-1.6-3.3-3.5-6.3-3.5-5.8-3.5-6.2-5.6-9.1-12.4-19.3c-19.3-28.8-35.9-45.5-69.1-69.3-8.5-6.1-9.1-6.7-4-3.9a239 239 0 0 1 40.8 29.8c14.3 12 21.2 20.8 46 58.5 4.6 6.9 10.1 16.6 12.2 21.5s5.5 12.4 7.6 16.8c4.6 9.6 12.1 30.3 11.7 32.3-.6 3-58.3 22.8-71.8 24.7a443 443 0 0 0-20 4c-3.6.7-11.2 1.8-17 2.4-12.4 1.3-50.6 2.1-48.9 1 1.1-.7 20.7-2 37.4-2.5 7.9-.2 23.9-2.6 33-4.9a656 656 0 0 0 78.9-23.2c2.4-1.3 2.7-1.9 2.3-4.6a82 82 0 0 0-4.6-14.2c-.5-1.1-1.2-3.1-1.5-4.5-.7-3.2-2.3-5.6-3.1-4.8-.7.6 1.5 8.1 4.7 16.5 2.5 6.5 1.5 8.8-4.5 10.3-2.3.6-6.4 2-9.2 3-16.3 6-19.4 7.1-23.5 7.9-2.5.5-9.9 2.3-16.5 4A346 346 0 0 1 218 262.8c-15.4-.8-27.9-2.2-33.8-3.7a503 503 0 0 1-52-11c-12.9-3.3-26.2-9.2-26.2-11.5 0-4.2 5.6-22.3 9.9-32.1l8.2-19c1.9-4.4 6.1-12.7 9.5-18.5a279 279 0 0 0 8.8-16.5c1.5-3.2 3.7-7.3 5-9 1.3-1.6 2.9-4.2 3.7-5.7A220 220 0 0 1 190.5 97c10.4-9.7 47.6-32 53-32 1.1.1 2.9.7 3.9 1.5m20.6 5.1q-.2.3-2-.6c-1.8-.9-2-1.3-2-1.6q.2-.3 2 .6c1.8.9 2 1.3 2 1.6M102.9 232.4c-1.3 7.7-.9 9.2 2.8 10.7q2.5 1 1.6 1.6c-1.7.6-8.3-2.4-8.3-3.9a71 71 0 0 1 4.7-15.4c.2.2-.1 3.3-.8 7m26.6 19.1c12.4 3.2 17.5 4.9 17.5 5.7 0 1.1-.4 1-8.4-1.3a128 128 0 0 1-20.6-7.1q-1.8-1 .5-.3zm6.5 7.5q1.9 1.1-.7 1-2.1-.1-2.3-1 0-2 3 0m17.3-.3c-.7.2-2.1.2-3 0q-1.3-.5 1.2-.5 2.6 0 1.8.5m15.1 1.8 16.6 3c4.1.8 12.5 1.7 18.5 2 25.1 1.2 33.5 2.2 31.3 3.6a54 54 0 0 1-20.3-.1l-28-3.5c-20.4-2.6-27.6-3.9-30.4-5.5q-3.8-2.1 12.3.5m1.6 7.5q2 1.2 0 .9c-.8 0-2.4-.4-3.5-.9l-2-.9h2c1.1 0 2.7.4 3.5.9m13.8 1.5c3.4.4 6.2 1.1 6.2 1.7 0 .8-3.5.6-12.7-.8-1.8-.3-3.3-1-3.3-1.5q.2-1 1.8-.5c.9.2 4.5.8 8 1.1M300 271q-.2.9-1.2 1.1l-3.8.5a401 401 0 0 1-67.7 2.5c-3.7-.9-3.7-.9 2.2-1.1l13.5-.6 25-.9c9.6-.3 20-.9 23-1.4 7.9-1.2 9-1.2 9-.1m-93.7 1.2c5.9.6 10.4 1.5 10 1.8-.9.9-24-1.3-25-2.3s2.7-.9 15 .5m16.2 1.8q.4.9-1.5 1c-1.9.1-1.8-.5-1.5-1q.6-1 1.5-1 1.2 0 1.5 1M65 328.2q.1 2.7-1 .8-2-3 0-3 1 .2 1 2.2m-17.2 4c.4 2-1.5 6.8-2.8 6.8-1.1 0-1.4-7.3-.3-8.4 1-1 2.8-.1 3.1 1.6m41.4 1.5c6.1.5 9.4 2.7 6.7 4.3-1.1.8-1.2 1.3-.1 3 1.6 2.5 1.5 3-.2 3-2.2 0-2.8 1.7-1.6 4 .9 1.7.8 2.7-.4 4.5-.9 1.4-1.6 3.2-1.6 4.2s-.4 2.4-.9 3.2c-.7 1.1-1.2 1.1-3.1-.2-1.6-1.1-3-1.3-5.3-.6-3.6 1-4.7 2.4-4.7 6.1q-.1 2.6-2 3.8a4 4 0 0 0-2 3.5q-.1 2.4-1.4 2.5c-.7 0-1.6 1.4-2 3.2l-.6 3.2-1.6-2.2c-.8-1.2-2-2-2.5-1.7-1.3.9-1.1 4.5.2 4.5q1.2.1 2.3 1.5c1.8 2.4 8.4.8 10.1-2.4l1.4-2.6.9 2.5c1.4 3.7 0 4.6-7.9 5.3-5.8.5-7.6.3-9.8-1.1-1.4-1-3.5-2.3-4.6-2.8-1.4-.8-2.1-2.3-2.3-5.3-.4-4.8-2.5-6.4-4.7-3.5-1.4 1.8-1.4 1.8-1.5-.8 0-1.4-.3-3.4-.7-4.4q-.6-1.7.4-1.1c1.4.9 4.5-2.1 4-3.6q-.5-1-2.8-1.7-2.4-.5-1.1-1.4c.6-.4 1.2-2.7 1.2-5 0-5 3.6-10.3 9.8-14.5a14 14 0 0 0 4-3.3c1.1-2.6 11.8-6 16.2-5.1 1.4.3 5.1.7 8.2 1m-51 3.7c-.2 2-.8 3.6-1.3 3.6-1 0-1.1-2.5-.3-5.7.9-3.5 2.1-1.9 1.6 2.1m74.8 1.5q0 1-1 1.6-.9.4-1-.9.1-1.5 1-1.6 1 0 1 .9m12 3.5q0 .5-1 1.1-.9.4-1-.4.1-1 1-1.1 1 0 1 .4m-21 6.1c1.6 4.7.7 6.5-3 6.5-3 0-4-1.3-1.9-2.5.6-.4 1-1.9.9-3.3-.3-3.8-.2-4.2 1.4-4.2.8 0 2 1.6 2.6 3.5M34.5 354c-1.6 4.4-1 6.8 2.4 10.7 2.5 2.9 6.1 3.1 6.1.3q0-1.8.9-2l2.4-.6c2.4-.9-1.9 7.2-7 13.3a19 19 0 0 0-4.9 9 49 49 0 0 1-7.7 17l-4.7 2c-5.1 1.8-5.8.7-4.8-8.2q.7-7.6-.3-9.7c-.6-1.2-.8-3.8-.4-6.3.5-3.4.3-4.5-1-5.2-1.5-.9-1.5-1.1-.1-2.2 1.8-1.5 2.1-3.8.6-4.3s1.6-8.2 3.4-8.6q1.5-.2 1.6.7c0 2.1 2.8 1.1 3.3-1.2.4-1.2 1.3-3.1 2.1-4.2 1.3-1.8 1.4-1.5.9 3.9-.5 5.3-.4 5.8 1.3 5.4q1.9-.1 2.6-4.8c.8-4.8 2.6-9 3.9-9 .5 0 .2 1.8-.6 4m128 2q-.6.9-1.6 1-.9-.1-.4-1a2 2 0 0 1 1.6-1q.9 0 .4 1m-37.4 4.7q-1 2.2-1.1.2c0-1.7 1-3.2 1.8-2.5q.3.6-.7 2.3M157 359q-.2.9-2 1c-1.8.1-2-.5-2-1q.2-1 2-1c1.8 0 2 .4 2 1m-57.5 1c-.3.5-1.3 1-2.1 1s-1.2-.5-.9-1 1.3-1 2.1-1 1.2.4.9 1m40.5 2.4q0 .5-1 1.1-.9.4-1-.4.1-1 1-1.1 1 0 1 .4m-34 2.8c0 1.3.9 3.8 2 5.6 2.6 4.2 2.5 5-.2 5.4q-2.3.3-2.6 2.5c-.2 1.2-1 2.7-1.8 3.4-1.3 1-1.2 1.5.8 3.6 2 2.2 2.1 2.5.6 4-1.6 1.5-2.1 1.5-7.5-.2-6.4-2-8.9-3.7-9.9-6.9-.4-1.1-1.6-3.3-2.7-4.8-2.4-3.3-2-3.8 4.6-6.2 3.8-1.5 4.9-2.4 5.4-4.6.5-2.8.5-2.8 3.9-1.4q5.5 2.4 5.4-1.2.1-1.3 1-1.4 1 .2 1 2.2m9.7 5q-.5 1.1-.6-.6t.5-1.3q.5.6.1 1.9m-109 5q-.5 1.1-.6-.6t.5-1.3q.5.6.1 1.9m136.7 3.3c-.9 1.4-1.9 2.4-2.1 2.1-.7-.7 1.6-4.6 2.8-4.6.5 0 .2 1.1-.7 2.5m-132 .9c-.6 1.6-2.4 2.3-2.4.8 0-1 2.2-3.3 2.7-2.8q.3.5-.3 2m103.6.3c0 1-.4 2.4-.9 3.1q-.8 1.7-1.3-.5c-.3-1-.3-2.4-.1-3.1.7-1.8 2.3-1.5 2.3.5m20.4 2a25 25 0 0 1-1.8 5.8c-1 1.7-1.1 1.5-1.4-2.3-.3-4.1 1-7.2 3-7.2.5 0 .6 1.6.2 3.7m13.1.2q.4.9-.5 1.6-.9.4-1-.9 0-2.7 1.5-.7m-22.3 4.1c-.4 4.3-2.2 6.6-2.2 2.8 0-3 1.1-6.8 1.9-6.8.4 0 .5 1.8.3 4m-72.5-1.4c.3.8.1 2.5-.5 3.7l-1.5 3.7c-.3.8-.6-.9-.6-3.8-.1-5 1.3-7 2.6-3.6m125.8-.6q-.7.9-1.6 1-.9-.1-.4-1a2 2 0 0 1 1.6-1q.9 0 .4 1m-67.6 9.4q-1.3 1.3-.5-.7c.3-1 .7-2.6.7-3.5q.2-1.3.6.7c.3 1.3-.1 2.8-.8 3.5m-29.5-3.5c-.5.6-2.9 1.1-5.4 1.3q-4.7.2-4.5 1.8c.2 1.6.9 1.4 3.5 1.3 2.9-.3 2.5 0-2.4 1.6-4.4 1.5-6.4 1.7-8.1.9a5 5 0 0 0-4.4.1c-2.5 1.4-2.7.3-.3-2.4q2.5-3 8.2-4.8c2.8-1 14.4-.7 13.4.2m265.8.7c2.4 1 5.7 3 7.4 4.6 3.5 3.3 7.2 9.4 6.2 10.3s-6.1-2.1-10.7-6.5c-2.5-2.4-4.9-3.9-5.7-3.6q-1.3.4-1.4-.4-.2-1-1.2-1c-2.1-.1-5.1-2.8-4.3-3.9.9-1.6 4.8-1.3 9.7.5m-303.5 3.6q-.5 1-.5-1.2c0-2.2.2-1.9.5-1.3.2.7.2 1.9 0 2.5m129.1-1c-.3.8-7.4 3.7-9.5 3.8q-.3-.1-.3-1.4c0-.9 1.7-1.9 4.3-2.4 5.8-1.3 5.9-1.3 5.5 0m229.1 2.1 6.4 3.5a17 17 0 0 0 5.5 2.2c1 0 2.5 1.2 3.4 2.7s4.5 6.7 8.1 11.4a41 41 0 0 1 9 18.5q3.8 14.7 3.9 19.4l.1 15c.1 27.9 0 53.9-.2 64.5-.1 6 .2 15.5.7 21s.6 10.8.4 11.7c-.5 2-2.4 2.5-2 .5a21 21 0 0 0-.5-4.8c-.6-3-1.1-3.6-2.6-3.2q-1.9.5-1.8-.9c.2-5.5-.4-8.8-1.8-8.8-3.3 0-3.6 2.6-6.5 45-1.8 25.9-5.1 57.4-6.2 58.1-1.6 1-5.1.5-5.6-.9q-.2-1 1.3-1.2c3 0 1.1-3.2-2.7-4.5-4.8-1.6-6.3-.1-6.2 6.3 0 3.4.5 4.9 2.3 6.3 3.4 2.8 7.5 2.4 10-.8l2.1-2.8-.5 10c-.4 5.5-1 14.9-1.6 21-.5 6-.9 17.2-.9 24.7s-.3 14.3-.6 15.2c-.8 2-3.3.9-4.5-2q-.7-2.5-3.7-2.4-6.6.2-.6 3 3.6 1.8 2.4 2.5t-2-.5q-.8-1-2.9-.5c-1.8.6-2.1 1.2-1.7 5.6.2 2.8.8 5.5 1.5 6.2.6.6 3.2 1.1 5.9 1.2h4.7l.6 6c.3 3.3.4 12.5.2 20.5-.1 8-.3 19.1-.2 24.7 0 9.1-.2 10.3-2 11.3-1.7.9-2 2-2 8.1 0 4-.3 7.5-.8 8s-2.2.5-3.8.1c-1.7-.5-7.6-1-13.3-1.1-11.4-.2-15.8 1.2-16.4 5.1q-.3 2.3-2.3 2.3c-1.8 0-2-.7-2-7.4 0-6.6.2-7.4 2-7.7q1.8-.2 2.6.8.6 1 3-.3 2.3-1.2 1.1-1.7c-.6-.2-1.2-1.7-1.2-3.2q0-5.6-4.5-2.6c-3 2-3.5 2-3.5.2 0-.8 1-1.6 2.2-1.8s2.4-.9 2.6-1.7q.6-1.4-1.6-.9-3.2 1.1-3.2-6.5c0-4.1-2.4-2.9-3.1 1.6-.3 2.1-.9 4-1.2 4.3-.9.9-25.5-12.2-31.4-16.7-8.6-6.7-11.9-11.1-18.8-25.2-3.6-7.3-6.5-13.7-6.5-14.3s-2-2.9-4.5-5.1c-3.5-3.1-4.5-4.7-4.5-7.1q0-3.1-3-6.5c-3.6-4.2-4.1-7.4-.9-5.7 1.2.7 3.7.9 6 .5 4.5-.8 4.3-1.1 7.9 12.5 3.3 12.2 9.6 26.6 14.6 33.1A92 92 0 0 0 345 778q1-.2 2-2c1.3-2.5 3.4-1.6 2.7 1.1-.6 2.1 2 4.2 9.4 7.7 5.3 2.6 6.9 2.7 6.9.8 0-1.7-5.3-6-9-7.4-2-.7-2.5-1.6-2.5-4.3q.1-3.6-1.9-3.7c-1-.2-2.2.2-2.7.9-.6 1.1-1.5.7-3.8-1.5a13 13 0 0 1-3.3-4.8c-.4-2.5-2.3-2.3-2.2.2q0 1.8-.2 2c-.2.2-1.8-1.5-3.7-3.3-4.2-3.9-8.7-12.1-5.7-10.2q1 .4 1-2.8c0-2.6-1-4.7-3.6-7.9-4.7-5.6-4.6-5.5-3.8-3.5q.4 1.5-.3 1.7c-1.1 0-5.8-11.6-6.8-16.8q-.6-3.2.5-4.7c1-1.2.9-2-.6-4.1-2.9-4.1-3-4.4-4.9-11.9l-3.1-11.9c-1.7-6.2-4.2-25.1-4.8-37.5-.5-8.7-.4-9.3 1.5-9.8s1.9-1.1 1.3-4.7c-.6-4.1-2-7.6-3-7.6q-.6 0-2.3 1-1.9 1.1-3.5-.9c-1.4-1.5-1.7-3.8-1.7-10.4 0-4.7.3-9.6.6-10.9s.1-3.7-.5-5.2c-.7-2.1-.7-3.2.1-4.2.6-.8.8-2.6.4-4.4-.6-2.6-.4-3 1.4-3q2 .1 2.6-2.8c1-4.7 2.8-10.5 5.2-16.4 2.1-5.4 3.1-11.8 1.7-11.8-2.4 0-12.4 21.9-12.4 27.2q-.2 1.8-2.5 2.8c-2.4.9-2.6 1.6-2.9 7.4q-.2 1.8-1.4 2.4c-1.1.3-.9-3.6.5-7.8.2-.8.8-6.6 1.3-12.8.4-6.8 1.3-11.8 2-12.5q1.4-1.6.5 1.8c-1.5 5.4-1.2 8.9.8 9.3 1.8.4 2.2-.4 6.1-11.1 2.8-7.5 6-10.7 10.7-10.7 3.2 0 4.1-.5 5.1-2.5.6-1.4 1.7-2.5 2.4-2.5 1.1 0 1.1.5.2 2.6-1 2.2-1 2.8.3 3.8.9.6 1.8 1.8 2.1 2.6q.6 1.5 1.8-1.7c1.3-3.6 3.2-3.7 2.2-.1q-.7 2.3 1 1.5c.9-.3 2.1 0 2.7.6 1.8 1.8 3.9-.8 2.4-3.2-.9-1.4-.8-2.2.4-3.4 1.5-1.4 1.5-1.8-.1-4.1-.9-1.4-2.3-2.6-3-2.6-3.6 0-1.1-16.1 2.6-16.8q1.8-.4 1.1 1.7c-.6 2.4 1.2 2.9 2.1.6 1.1-2.8 2.5-1.5 1.9 1.9-.5 3-.2 3.4 2.1 3.8 2.8.6 3.4-.5 3.9-6.7.2-2.8 0-3-3-2.9-2.7.2-3.3-.3-4.2-2.7-.8-2.5-.7-2.9.8-2.9.9 0 2.2.5 2.9 1.2 1.5 1.5 2.4.6 1.6-1.6-.3-.9-1.5-1.6-2.5-1.6q-3.4.1-.4-3.6c.8-1 1.5-2.8 1.5-3.9q.1-4.4 5.1-4.5c2.1 0 2.8-.6 3.3-3 .3-1.7 1-3 1.6-3q.9 0 0 2.6c-1.3 3.3-1.3 3.4.4 3.4q1.3.1 1.9 1.2.3 1.5 2.1-.1c3.2-2.7 3.8-4.9 2-8.2-1.5-3.1-1.5-3.2 1.1-5.6 2.8-2.7 2.9-4 .2-5.7-1.2-.8-2.3-.5-4.4 1.2-3.7 2.9-7.2 4.7-7.9 3.9q-1.5-1.5 5.9-7.2c4-3 4.7-4.1 4.5-6.6-.2-2.4.5-3.6 3.2-5.7l6.5-5.4c3-2.8 3-2.8.7-3.4-2.9-.8-1.3-3 3-3.9 2.6-.6 3.4-.2 5.7 2.6q2.8 3.3 3.5 2.1c1.2-1.9 2.5-1.4 1.9.8q-.7 2.1 1.5 2c1.1 0 2.5.7 3.2 1.5q3.1 3.6 5-2c1.1-3.2.9-3.8-1.6-6.8-2.7-3.2-4.5-3.7-13-3.7-1.2 0-2.7-.7-3.4-1.5s-2.9-1.5-5.1-1.5c-5.2 0-4.9-1.5.5-3 2.5-.7 5.4-2.2 6.6-3.5 2.3-2.4 4.4-10.2 5.6-20.2l.6-6.2 5.2.2c4.6.2 5.1 0 5.1-2 0-1.1.3-2.5.8-2.9 1.3-1.4.7-4.5-1-5.1-1-.3-2.8-1.7-3.9-3.1q-2.2-2.5-3.5-1.6c-1.7 1-6 .6-7.3-.7-.6-.5-2.5-.9-4.3-.9-5.4 0-5.7-4.7-.8-10.5q2.2-2.6 1.9-1.2c-.7 2.1 3 6.2 4.7 5.2.5-.4 1.6-.2 2.4.5q1.3 1.1 2 0c.3-.5 1.9-1 3.5-1 3.8 0 5.6-3 4.2-7-.6-1.6-.7-3.1-.4-3.5 1-1.1 12.1.3 15.1 1.8m-313 .3c-1.1 1.4-.9 1.5 2.1 1.8l6.3 1c4.1.7 4.7 1.1 4.1 2.8-.8 2.6 1.3 4.8 4.5 4.8a25 25 0 0 1 8.4 3.4 62 62 0 0 0 9.2 4.7 33 33 0 0 1 14.1 14.6c1.7 4.8 1.7 5.8.1 4.5-1.6-1.4-10 .2-14.1 2.6q-3 1.8-3.2 4.1c-.1 1.2-1.6 3.8-3.5 5.7-3.1 3.2-3.4 3.3-4.1 1.4q-1.6-4.1-4.2.7-1.3 2.5-1.5 1.8c0-3.5 7-11.2 12.4-13.6q4.7-2 4.3-3.7c-.3-1.3-1.5-1.7-5.7-1.7-4.6 0-5.6.3-7 2.5-.8 1.4-3.2 4.5-5.1 7-5 6.2-6 9-6 16.5 0 4.9-.3 6.5-1.4 6.5q-1.3-.1-1.8-1.1c-.5-1.6-14 .2-14.6 1.9q-.2 1.3 1.7 1.9 3.4 1.1 1.1 2.8-.9.7-1 2.2c0 1.3.9 1.5 5.7.9 5.8-.7 7.5-1.8 6.6-4.3s.6-1.3 2.2 1.6c1.7 3.4 1.7 3.4-6.7 4.6-5.3.7-6.6 1.8-4.7 4.1.9 1.1 2.3 1.3 5.1.9 4-.7 4.4-.3 3.2 4.3-.6 2.2-.8 2.2-2.5.6-1.6-1.4-2.4-1.5-4.5-.5-3.3 1.5-2.8 4.5.9 4.9 2.4.3 2.6.6 1.6 2.4-.9 1.6-.8 2.4.5 3.6 1.4 1.4 1.9 1.2 5.5-2.7 2.2-2.4 4.3-5.7 4.6-7.3q.7-3.1 1.7-2c1.4 1.4-.5 6.2-5.1 12.6-3 4.2-3.6 4.6-4.6 3.2q-2.2-3-5.7.1-3.5 3.3-3.1-3.7c.2-4-.4-4.5-4.2-4.1-.6 0-1.1-1.9-1.2-4.4-.2-6.3-.8-6.8-6.4-6.1-2.7.4-4.9.3-4.9-.2s1.9-1.2 4.1-1.5q7-.9 5.6-4.1-1.4-3-7.1-.1c-3.6 1.9-3.6 1.9-3.6-.5q0-2 1.6-1.3c2.2.8 6.4-1.7 6.4-3.9 0-2.4-2.5-2.3-5.9.2l-2.8 1.9-1.2-3.8a30 30 0 0 1 .3-16.9c1-2.1 1.1-4.4.3-10.7-.5-4.4-1.4-8.3-2-8.6-.5-.4-3.9.6-7.5 2.2s-6.7 2.8-6.9 2.5c-.6-.6 3.9-4.6 5.1-4.6 2.5 0 7-5 9-10.1 2.4-5.8 5.5-8.1 14.4-10.7q4.4-1.2 4.2-3.1.2-1.8 2.1-2.4 2.2-.6 1.5-2.2c-.3-.9-.6-2.5-.6-3.6s-1-2.4-2.2-2.9c-1.8-.7-1.3-.8 2.5-.8 3.9 0 4.5.3 3.6 1.4m34.1.4q0 .9-1 1a1 1 0 0 1-1-1q.1-1 1-1t1 1m192.3 1.5q-.6 1.4-1 1.1-.4-.5.2-1.5c.9-1.6 1.5-1.3.8.4M140 401.8c-.1 1.5-.7 5.2-1.5 8.2l-1.3 5.5-.1-5.6c-.1-6.8.8-12.1 2-11.3.5.3.9 1.7.9 3.2m185.5-1.9c.3.6 1.9 1.7 3.7 2.5 2.3 1.2 3.4 1.3 4.5.5q1.5-1.4.8.4c-.7 1.7 1 3.3 2 1.7s2.8-1.2 2.1.5q-.5 1.6 1.9 2.5c1.4.5 2.5 1.6 2.5 2.4a3 3 0 0 0 1.5 2.3c1.8 1.1 2.2 7.1.6 10.2-1.8 3.2.1 5.1 2.7 2.8 1-.9 2.4-1.7 3-1.7 2 0 1.3 2.2-.8 2.7q-1.8.6-2 1.9-.1 1.4-1.4 2-1.3.5-.8 2.6.6 2.2-.7 1.4c-.6-.4-1.8-.2-2.6.4s-2.9 1.5-4.7 1.9c-1.7.4-3.3 1.2-3.5 1.8-.7 2 3.5 2.5 7.2.7 3.5-1.6 3.7-1.6 5.7.3l2 2.1-2.3.7c-1.3.4-4.7 1.8-7.4 3.1-5.7 2.5-10.5 3.9-10.5 3 0-.4 1.1-1.1 2.5-1.6s2.5-1.4 2.5-2c0-1.5-3.6-1.2-9.6.7-4.9 1.5-5.6 1.5-9.6 0q-8.3-3.3-6.5-10.7c.5-1.9 1.3-6.2 1.9-9.5 1.2-7.5 3.6-15.7 3.7-12.9.1 1.2.8 2.8 1.7 3.5 1.4 1.1 1.8 1 3-.6 2.9-3.9 1.4 1.1-1.6 5.6-1.6 2.4-3 5.6-3 7s-.9 3.4-2 4.4-2 2.8-2 4.1c0 2.9 3.8 5.8 5.7 4.3q1.1-1 .7-2c-.8-1.3 1-1.1 2.4.3q1.2 1.3 2.4 0c.9-.9.5-1.9-1.7-4.2l-2.9-3h2.7c3.5 0 3.6-2.7.2-4-3.5-1.3-3.1-2.9 1.8-7.1 3.9-3.4 4.2-4 4.1-8.3-.1-3.7-.7-5.3-2.9-7.6-2.8-2.9-2.8-3-.9-4.5 2.3-1.7 3.1-1.8 3.9-.6M117 404.7c0 .7-3.9-1.7-4.6-2.8q-.3-.8 2 .6c1.4 1 2.6 1.9 2.6 2.2m15 .1c0 3.3-1.4 5.7-2.8 4.9-.8-.6-.7-4.1.4-7.5.7-2.2 2.4-.3 2.4 2.6m-90-.3a20 20 0 0 1-6.5 3.5c-1.3 0 .8-2.2 2.9-3q3.7-1.5 3.6-.5m-19.7 3.8c4.1-.1 4.7.2 4.1 1.6-.4.9-.9 2.7-1.1 4.1-.3 1.5-1.4 3-2.5 3.5-3.9 1.8-5.9 16.1-2.7 18.1 1 .6 1.2 5.4.3 5.4q-.6-.1-2.1-1.5c-2.4-2.5-3.7-1.3-4.7 4.1-.7 4.3-.5 5.7 1.8 10.4l2.6 5.6c0 .2-1.5.6-3.4 1-4.5.8-6.2-.2-4.2-2.5 1.5-1.7 1.3-2.2-2.9-6.7s-4.6-5.2-4.3-9.8c.3-5.8 2.8-7.8 2.8-2.3 0 2.1.7 4.1 1.9 5.1 2.7 2.5 4.3 1.2 3.5-2.9q-.6-3.4 1-6.6c1.7-3.5 2.1-6.9.8-6.9-.5 0-1.9 1.1-3.1 2.4-1.9 2.1-2.7 2.3-4.6 1.4-3.4-1.6-3.9-8.3-.8-10.8 3.1-2.4 3-4.4-.2-3.6-2.3.6-2.5.4-2.5-2.6.1-6.1 3.2-8 11-7 2.5.3 6.7.5 9.3.5m296.7-.9q-.2.4-2 .9t-1.4-.4c.5-.9 3.4-1.3 3.4-.5m53.8 10.3c2 1.3 2.3 2.1 2.2 7.6-.2 7.2-1.8 18-3.2 21.9-1.3 3.5-2.9 4.8-7.2 5.8q-6.9 1.7-4.6-3.5c1.3-3.5.7-6.7-2.2-10.6l-2.2-2.9 2.2-4.5c1.7-3.6 2.7-4.5 4.7-4.5 3.2 0 4.3-2.5 2.1-4.9-4.9-5.4 1.3-8.8 8.2-4.4m-192.4 7.2c-.4 2.8-1.1 5.1-1.6 5.1q-.9-.2-.4-2.6l1.3-5.6c.9-4.7 1.5-2.5.7 3.1m-18.5.4q0 1.6-.9 1.2c-.5-.3-1-2.1-.9-3.8q0-3.9.9-1.2c.5 1.1.9 2.8.9 3.8m11.4-1.1q-1.2 8.9-1.3.5c0-2.6.4-4.7.9-4.7s.7 1.9.4 4.2m-115.6-2.6q-.6.5-1.9.1-1.1-.5.6-.6t1.3.5m85.5 2c-.4 2.2-.6 2.4-1.4 1-.9-1.6-.3-3.6 1.1-3.6.5 0 .6 1.2.3 2.6m6.5.6q-.5 1.1-.6-.6t.5-1.3q.5.6.1 1.9M54 424q0 .9-.4 1l-4 1.5q-6.7 2.8-.3-1.4c3.6-2.3 4.7-2.6 4.7-1.1m103 5.1q0 .9-1 .4c-.5-.3-1-1.1-1-1.6q.1-.9 1-.4a2 2 0 0 1 1 1.6m-113.5.9c-.3.5-1.1 1-1.6 1q-.9-.1-.4-1a2 2 0 0 1 1.6-1q.9 0 .4 1m123.2 2.2q-.5 1-.5-1.2c0-2.2.2-1.9.5-1.3.2.7.2 1.9 0 2.5m-15.7-.1q0 .8-1 .9-.9-.1-1-1.6.1-1.3 1-.9 1 .6 1 1.6m10.8 2.9c.4 2.2-5.8 6.7-6.8 5-.9-1.4-.3-3.7 1.3-5.8 1.3-1.7 5.1-1.1 5.5.8m14.5.4q3.5 2.7-.7 2.6c-1.2 0-3.8 1-5.7 2.3-2.8 2-3.4 2.9-3.1 5.6.1 1.8.9 3.9 1.7 4.8 1.8 1.7 1.8 1.3.1 8.3-.9 3.9-1.9 5.8-3.5 6.6-2 1-2.7.7-6.1-3-3.3-3.5-3.7-4.3-2.5-5.6.7-.8 2-4.1 2.8-7.2 1.6-6.2 4-9.8 8.9-13.5 3.6-2.6 5.5-2.8 8.1-.9m-116.6 2.2-2.6 1.8c-1 .6-3.5 2.4-5.5 4s-3.9 2.6-4.3 2.3c-.7-.8 3.6-4.4 8.1-6.9 3.1-1.7 5.5-2.4 4.3-1.2m77.9 2q3.4 2.7 3.4 5.1c0 2.2-.2 2.4-1.5 1.3-2.2-1.9-2 1.1.3 4.1 4.3 5.5 5.2 13 2.7 21.3-2.6 8.6-1.3 11.4 2 4.3 1.4-3.1 1.4-3.1.9 2.5-.5 4.6-.3 6.4 1.2 8.5 3.2 5 1.1 18.8-3.8 24-2.7 2.9-1.4 4.8 2.4 3.4 2.7-1 6-6.9 6.3-11.3l.3-6.3c.1-1.9.6-3.5 1.2-3.5s.7 1.3.4 3c-.4 1.6-.3 3.7.1 4.7 2.8 6.5-2.7 15.6-12.2 20.1-1.9.9-3.3 2.3-3.3 3.4q-.1 1.6-1.6 1.8c-2.8 0-13.6-6.3-15.7-9.2-1.1-1.5-2.7-2.8-3.4-2.8-4.1 0 2.5 9.6 8.9 13 4.3 2.2 4.6 2.7 5.3 7.4l2 29.6c1.2 18 .9 82-.3 83.2q-1 1.1-1.6-3.8a64 64 0 0 0-4.6-19.8c-1.1-2.3-2-5.2-2-6.3q0-5.5-8.6-20.5a55 55 0 0 1-8-21.5c-1.3-6.5-2.3-14-2.4-16.6a40 40 0 0 0-2-10.6 36 36 0 0 1-1.8-10.4c.2-4.7-1.4-7.9-3.7-7.1q-1.4.3-2.8-2.3c-.9-1.5-4.1-5.4-7.3-8.6l-5.7-5.8 2.7-2.8c1.5-1.6 4.1-3.1 5.6-3.5 3.5-.7 10.4-6.7 13.8-12 2.3-3.7 2.5-3.9 3.8-2.1q3.1 4.4-1.1 4.5-2.4.1-2.5 1.4c0 1.8 6.1 3.9 8.4 3 1.9-.7 3.6 1 3.6 3.8a23 23 0 0 0 3.1 6.7c3.2 5.1 8.7 8.8 11.5 7.7q3.4-1.5-2-4.2c-5.7-2.8-10.1-13.1-7-16.5 1.3-1.5 1.2-2.1-1.1-5.4-2.9-4.4-3-5.1-1-5.9 1.9-.7 1.9-3.9 0-7.6-1.3-2.4-1.3-4.5-.4-13.2 1.4-13.7 1.9-17.1 2.5-16.5a91 91 0 0 1 2.7 23c-.7 4.5 1.3 12 3.8 14.2 2.9 2.7 4 1 2.3-3.7-.7-2.2-1.4-7-1.4-10.6 0-8.2-1.9-28-3-30.8-1-2.6-.2-4 3-5.3 3.6-1.4 3.8-1.4 7.6 1.5m40.8 3.3c.3.5-1 2.1-2.9 3.5l-3.5 2.7v-3c0-1.6.6-3.2 1.3-3.4 2-.9 4.5-.8 5.1.2M60 445.7c-.1 1.1-9 6.6-9.6 6-.3-.2 1.2-1.5 3.3-2.8s4-2.7 4.1-3.1c.5-1 2.2-1 2.2-.1m241 1.4q-.2 1-2 1.6c-2.3.6-2.4 1.1-1 4.7 1.1 3-.3 4.4-2.5 2.6-2-1.7-1.9-5.9.2-8.2 1.8-2 5.3-2.5 5.3-.7m53-.2q-.2.9-2 1.4-1.9.6-2 2.6c0 1.9-.2 2-2.1.9-1.7-1-2.3-1-2.6-.1-.2.7-1.1.9-1.9.6s-2 0-2.8.6-1.6.8-1.9.4q-.7-.4-2.1.6-1.4 1.1-2 .2c-.8-1.3.5-2.1 8.9-5.3 7.4-2.8 10.5-3.4 10.5-1.9m-205 1.8c0 .9.7 2.5 1.6 3.5 1.4 1.4 1.4 2 .4 3.3q-1.2 1.4-2.1 1.5c-1.1 0-3.2-7.8-2.4-9 1-1.6 2.5-1.2 2.5.7m64.2 1.2c2.7 2.4 3.2 3.6 3.6 8.7.7 10.3-5 19.9-15 25-4.7 2.4-13.4 3.6-9.5 1.3 1.8-1.1 2.3-5.4.8-7.8q-.8-1.3-3-.6c-2.5.8-2.7-.4-.9-7.1 1.1-4.2 1.1-4.7-.6-6s-1.7-1.6 1.9-6a39 39 0 0 1 8.4-7.5c5.9-3.8 10.1-3.8 14.3 0m100.6-.2c.6.9 1.2 2.9 1.2 4.4s.3 3.4.6 4.3q.6 1.6-1 1.6-1.5-.1-1.6-2t-.8-2c-.5 0-1.4-1.6-2.2-3.5s-1.7-3.5-2.2-3.5q-.7-.1-.8-1.1c0-1.6 5.2-.2 6.8 1.8m9.8 2.3c2 0 1.7 2.4-.4 4.3-2.2 2-4.2.6-4.2-3.1q-.1-2.6 1.6-1.8c.9.3 2.2.6 3 .6m-215.3 2c.3 1.1.1 2.3-.4 2.6q-.8.3-.9-2 .1-4.7 1.3-.6m223.7 3.2q0 2.4-1.1 1.1-1-1.1-.5-2.2 1.6-2.5 1.6 1.1m-274.6.1c-.5 1.4-7.3 5.1-8.1 4.4-.6-.7 5.7-5.7 7.2-5.7q1.3.1.9 1.3m58.2 9.9c-.4 4.6-1.2 8.7-1.8 9.3q-1.1 1.1-.4-1.8c.4-1.6.7-5.7.7-9.3.1-3.8.5-6.4 1.1-6.4q1.1 0 .4 8.2m-102-2.5 5.4-.6 2.1 4c1.1 2.2 1.7 4.4 1.4 4.9-1.2 1.9-8.8 1-14.2-1.6-5.2-2.6-5.3-2.7-5.3-7.2v-4.5l2.6 2.8c2.3 2.5 3 2.7 8 2.2m146.6 4c2.3 2.5 3.2 7.4 1.8 9.3-1 1.3-1.3 1.3-2.3-.4-4.2-6.5-5.3-8-6.4-8.4-2.3-.7-2.6 2.8-.5 5.1 2.3 2.5 4.1 12.7 2.3 12.7-.6 0-1.6-1.1-2.1-2.4s-1.3-2.5-1.8-2.7c-1.9-.7-3.2-17.5-1.6-20 .6-1 7.8 3.7 10.6 6.8m69.2 5.3a18 18 0 0 1 5.9 2.8c1.5 1.3 2.2 1.4 3.7.4a21 21 0 0 1 8.1-1.2c7 0 25.2-2.6 28.7-4 1.7-.8 2.2-1.5 1.7-3-.7-2.3 1.3-2.8 3.3-.8s1.4 3.3-3.5 9.2c-5.7 6.8-7.9 7.6-22.8 8.5-15.7.9-13.7 2.6 3 2.6q21.8-.1 7.5 3.2c-8.7 1.9-30.4 2-31.6.2-.3-.5-1.8-.9-3.4-.9-3.6 0-6-.9-6-2.2q.1-1 5.8-.4c3.2.4 6.1.3 6.5 0 1.2-1.3-1.5-3.4-4.3-3.4a20 20 0 0 1-11.7-4.3c-2.4-2.1-3.1-4.7-1.3-4.7.6 0 1-1.4 1-3s.4-3.8.9-4.8l1.7-3.7c.6-1.5 1-.8 1.7 3.1.9 4.9 1.1 5.2 5.1 6.4m69.4-7.6c3 5 9.7 9.1 17.9 11 4 .9 8.4 1.6 9.8 1.6 3.2 0 4.3-2.5 2.1-4.9s-2.2-4.9-.1-3.1q1.6 1.4 2.7.2 1.1-1 2.5-.5c.8.3 1.9 0 2.3-.8q.9-1.1 1.6-.6.5.8-1 2.6c-1.6 1.8-1.6 2 .4 3.4 1.8 1.3 1.9 1.5.5 2.1-.9.3-2.6.6-3.6.6q-2.3-.1-1.4 1.9.4 1.8-.5 2.6c-1.3.8-1.3 8.2.1 9 .6.4 2.1-.3 3.4-1.5 2.3-2.1 2.4-2.1 3.4-.3.9 1.7.2 2.5-5.5 6.4-3.6 2.4-8 5.2-9.8 6.1-4.2 2.2-16.6 3.6-16.6 1.9q.1-1 1.5-1.1c1.4-.1 1.5-.6 1.5-1.4q-.1-1.4-5.5-2.7-5.5-1.2-5.5-2.7 0-1.4 1.8-.7a78 78 0 0 0 15.8 2.5 10 10 0 0 0 4.8-1.3c1.6-1.2 1.6-1.8.4-6.7-1-4.4-1.7-5.5-3.3-5.5-1.7 0-2 .6-1.9 4.2q.1 4.4-1.3 4.3-1.2 0-1.4-.3l-.6-4.7q-1-8.3-3.9-5.9c-1.7 1.4-1.8 7.1-.2 8.7 2 2-1.9 2.6-5.6.8-3.9-1.8-14.1-11.1-11.3-10.2 1 .3 2.4.6 3.2.6q1.2.2 1.8 2a4 4 0 0 0 2.4 2.7c1 .4 2.4 1.5 3.1 2.5 2.3 3.1 4.4.4 4-5.1-.3-4-.6-4.6-2.5-4.5q-2.2 0-2.9-1.8-.6-1.6-2.5-1.8c-1 0-1.9-.6-1.9-1.3s-.8-2-1.7-2.9c-5-4.6-5-5.2-1.1-7.4l2.5-1.3zM59 464.9c0 .5.3 1.6.6 2.4q.5 1.5-4.2 4.1l-5 2.6c-.2 0-.4-1.1-.4-2.3q0-2.4 3.7-5c4-2.9 5.3-3.3 5.3-1.8m298.4 3c-.7.7-3.4-2.1-2.8-3.1q.6-.7 1.9.9c1.3 1.6 1.2 2 .9 2.2m-69.4-1c0 1.2-2 2.5-2.7 1.8s.6-2.7 1.8-2.7q.8 0 .9.9m95.6 3.9c-1.4 1.4-1.6 1.4-1.6.1 0-2 2.3-4.4 2.9-2.8.2.6-.4 1.8-1.3 2.7m-64.6 1.4q0 .8-1 .8-.9-.2-1-2.3-.1-2.6 1-.7c.5.8 1 1.8 1 2.2m4-.2q0 .9-1 1a1 1 0 0 1-1-1q.1-1 1-1t1 1m-219.3 2.2q-.5 1.1-.6-.6t.5-1.3q.5.6.1 1.9m67.3 2.4c1.8 2.9 2 4 1.2 5.7a50 50 0 0 0-1.4 11.7c-.3 9.1-.2 9.5 1.9 9.8 1.7.3 2.4-.3 3-2.5 1.3-4.7 2.1 5.8 2.2 28.4.1 21.1.2 20.3-3.6 20.3-.4 0-.6-3.8-.4-8.4q.3-8.4-.9-9.1c-2.3-1.4-3.5 1.8-4.1 11.3-.7 9.6-.2 11.6 2.6 10.6q2.7-1.2 1.8 11.2c-.5 5.9-.8 7.2-1.9 6.3-2.6-2.1-3.4.2-3.5 10.4q0 10-.9 8.2c-.5-1.1-.9-3.2-.9-4.6-.1-1.5-.7-3.2-1.5-3.8-2-1.7-3.9 1.2-3.4 5.4.4 3.3.3 3.4-1.4 1.8q-1.7-1.4-2.6-.9c-.4.4-1.2 4.2-1.9 8.4-1 6.7-1.1 3.4-1-25 .1-18-.2-33-.5-33.4-.4-.3-1.4-.4-2.2-.1-1 .4-1.5 2.9-1.7 9.2-.4 8.2-.2 93.8.2 98 .2 3-1.3 14.5-2 14.9-.3.2-.5-7.9-.3-18.1.3-18.4-.2-22.3-2.9-19.6-1.2 1.2-1.9 60.3-.7 60.3q.7 0 1.3-1c.8-1.3 2.5-1.3 2.5 0 0 1-5.2 4-7 4-.8 0-1-7-.9-23.3.2-29.3.9-46.7 2-46.7q.8.2.9 2.5c0 2.5 2.3 3.5 3.5 1.5.4-.6.5-7.2.4-14.8-.4-25.7.7-71.5 1.8-74.7.6-1.9.7-1.8 1.3.5.9 3.8 4.3 3.3 5.1-.8 1.3-6.4 1.9-4.4 2 6.9.1 6.3.4 14.5.8 18.4.6 6.5.8 7 2.9 6.8q2.1-.2 2.2 1.3c.1 1.5-.6 1.3-1.9.9-3.1-.9-4.2 1.7-3.9 9.2.3 6.2.5 6.8 2.6 7.1s2.2 0 2.2-5.6c0-5.7.1-5.9 2.5-5.5 3 .6 3.7-1.6 3.2-10.2-.3-5.6-.5-6-2.8-6h-2.4l-.2-13.5c-.2-13.3-.2-13.5 1.6-11.1 3 3.9 4.1 1.8 4.1-7.7q0-14.7-3.5-9.8a8 8 0 0 0-1.5 3.9q-.1 1.6-1 1.2-1-.7-.1-2.3c.9-1.8 2.3-11.7 2.4-16.5q0-2.8 1.8-2.7c2.4 0 2.9-1 3.3-6.7q.5-8.1-2.9-8.3c-1.8 0-2-4.1-.3-5.8 1.8-1.8 2.4-1.5 4.8 2.4m-165.6.5-.4 3.4c-.6 5.1 0 9.5 1.4 9.5 1.2 0 1.3.6.4 3-1.2 3.5-.5 6 1.6 6q3.6 0 6-11.4c.8-3.7 1.9-7.3 2.5-7.9 1.5-1.5 1.4-.1-.4 5.9-2.3 7.5-3 16-1.4 16.9 2.2 1.4 5.6-4.1 6.2-10.3q.6-5.5 2.6-7.6c1.8-1.8 2.1-1.8 2.7-.3.7 1.8.4 2.6-2.5 7.2a12 12 0 0 0-2 5.5c-.1 1.4-1 6.7-2.1 11.8-1.6 7.4-1.7 9.7-.8 11.8.9 2 .9 3.3-.1 5.7-1.8 4.6-2.9 103.1-1.1 104.2 2.6 1.6 3.3-1.6 3.2-14.7 0-8.4.2-12.7.8-11.7.5.9 1 8.7 1.1 17.3.1 12.6.4 15.8 1.5 16.3.8.3 2.1 0 2.9-.7q1.5-1.1 1.9-.9c1.2 1.2.7 9.8-.6 12.4-1.3 2.4-1.5 6.1-1.3 19.5.5 26.4 1.6 60.3 2 63.2.4 2.3 0 2.9-2.1 3.4-1.4.4-2.7.5-2.9.3-.8-.9-2.1-41.2-2.9-91.9-.1-8.8-.3-9.5-2.1-9.5s-2 .7-2 14.5c.1 26.2 1.4 81.4 2 85.5l.7 4.1-5.4 2.2c-6.6 2.7-6.9 2.7-5.9-.1.5-1.2.5-4.7 0-7.7s-.8-17.4-.8-32c-.1-14.6-.5-39.2-1.1-54.5L5.6 605c-.2-6.9-.9-14.3-1.6-16.4-1.6-5.2-1-53.7.6-55.7a45 45 0 0 0 2.3-12.2c.7-5.9 1.4-11.3 1.6-12 .7-1.7-1.1-4.1-2.4-3.3-.6.4-1.1 2.7-1.1 5.2 0 2.4-.4 4.4-1 4.4s-1-7.4-1-20.1c0-15.6.3-20 1.3-19.6q1 .4 1.1 1.8M61 477c0 .8-1.7 1.7-6.3 3-3.4 1.1-2.7-.4 1.6-3q4.5-2.7 4.7 0m-28 1.6q0 1.3-1 .9-.9-.6-1-1.6.1-.8 1-.9 1 .1 1 1.6m254.5-.6c.8 1.3-.5 1.3-2.5 0q-2-1.1.2-1c.9 0 2 .4 2.3 1m-170.9 11.2c-.9.5-1.6 1.6-1.6 2.3q-.1 1.4-1.1 1.5-.8 0-.4-1c.3-.5-.1-2-1-3.4-1.4-2.1-1.4-3.1-.4-6.8l1.2-4.3 2.5 5.4c2.2 4.8 2.3 5.5.8 6.3m164-7c-1.8 2.6-2.2 1.7-.5-1.4q1-1.7 1.6-1.5c.3.3-.2 1.6-1.1 2.9m56 1.6q-.7.4-1.9-.7-1.4-1.2.3-2.1t1.8.6q.3 1.5-.2 2.2m7.6 3.9c-.7 1.2-1.1.9-2.1-1.7-1.5-4.3-1.4-4.3.9-2q2.2 2 1.2 3.7m-280.5-3.1c.3 1-5.7 4.4-7.7 4.4-2.1 0-.9-2.1 2.3-4 3.3-2 4.8-2.1 5.4-.4m227.7 2.5q7.5 6.8 1.8 7.4-2.5.2-1.9-1.5.3-1.8-2.5-4.1a18 18 0 0 1-3.9-4.2c-1.8-3.1 1.6-1.9 6.5 2.4m-254.7 1.1c2.5 7.3 2.5 7.3-.7 7.3q-3.1 0-2.5-1.3 2.1-5.7.5-7.7-1.5-1.6.2-1.5c.8 0 1.9 1.5 2.5 3.2m140.4 5.5q-1.2 2.5-1.1-.8c0-1.4.3-2.9.8-3.3 1.2-1.2 1.4 2.2.3 4.1m110.1 6.5c-1.8 1.8-7.3-2.2-8.8-6.4-.7-2-.9-3.9-.6-4.3s2.9 1.7 5.6 4.5c3.4 3.6 4.6 5.4 3.8 6.2m-210.5-9.6c-.3.3-1.2.4-1.9.1q-1.1-.5.6-.6t1.3.5m176.6 5.8q18.6-.2 4.9 2.6c-4.9.9-12.8.7-22.7-.6l-5.5-.5c-2.6-.1-4.1-.8-3.6-1.7.3-.5 3.8-.6 7.8-.3s12.6.5 19.1.5m16.4-.8q-.6.5-1.9.1-1.1-.5.6-.6t1.3.5M29 501.4c0 3.1-1.4 5.5-2.5 4.4-.8-.7.7-7.8 1.6-7.8.5 0 .9 1.5.9 3.4m42.8-2.3c-1 .5-1.8 1.6-1.8 2.4 0 1.2-.5 1.2-2.5.3-4.2-1.9-2.6-3.3 4-3.6 1.8-.1 1.9-.1.3.9m-36.6 3.7c-.3 3-.1 3.2 2.7 3.2 3.1 0 4.3-2.1 2.1-3.5-.5-.3-1-1.3-1-2.1q.1-1.2 3.5 2c1.9 1.9 6.1 4.8 9.2 6.3 3.3 1.6 5.9 3.6 6.1 4.5.4 2.2-1.7 2.3-3.3.2-1-1.4-1.4-1.5-3.3-.3a7 7 0 0 0-2.8 3.4 37 37 0 0 1-6.9 8.2q-6.3 6-8.5 11.7c-2.5 5.8-4.7 7.7-3.5 2.8a100 100 0 0 0 3.5-28c0-9.5.3-12.3 1.3-11.9.7.2 1.1 1.7.9 3.5M269 501c0 2.1-3.3 9-4 8.5-1.4-.9-.6-7.5 1-8.5q3-1.8 3 0m64.6 1.9a39 39 0 0 1-8.9 5.9c-10.7 5.2-13 5.8-14.8 3.5-.7-.7-2-1.1-3-.8q-2 .6-1.9-.8c0-1.2.9-1.4 3.8-1 2.4.3 5 0 6.8-1a32 32 0 0 1 6.4-2.1c1.9-.3 5.5-2 8-3.6 5.7-3.8 7.2-3.8 3.6-.1m-103.2-1.1c.2.4.7 14.6 1.1 31.4.5 25.9.4 31.1-.9 33.9-.8 1.9-1.8 6-2.1 9.1-.4 3.2-1.1 6.1-1.7 6.4-.8.5-.9-10.5-.5-39.5.4-22.2 1-40.7 1.3-41.2.7-1.1 2.1-1.2 2.8-.1m6.5 15.7c0 8-.4 14.3-.8 14a109 109 0 0 1-.2-28.5c.7 0 1 5.4 1 14.5m13.1-13 2.5 1.3-.4 17.8-.3 17.8-4.7 4.2c-2.5 2.3-4.9 4-5.2 3.8a245 245 0 0 1-.8-23.4l-.2-23h3.3c1.8.1 4.4.7 5.8 1.5m9.3 15.4c-.2 15.2-.5 18.2-1.8 16.9-.3-.3-.8-8-1.1-17.2-.5-15.8-.4-16.7 1.3-16.4s1.8 1.7 1.6 16.7m76.7-9.1c0 1.5-3.8 4.4-4.9 3.7-.6-.3-1.1-1.5-1.1-2.6 0-1.4.7-1.9 3-1.9 1.7 0 3 .4 3 .8m-176 5.1c-.1.9-2.6 4.1-3.4 4.1s-.8-4.5 0-5.3c.7-.7 3.4.2 3.4 1.2m109.7.3q-.5 1.1-.6-.6t.5-1.3c.3.3.4 1.2.1 1.9m47.6 4.7c6.9 4.2 9.5 10.8 6.6 16.4-1 1.8-1.2 1.9-2.1.4-1.1-2-2.9-2.2-4.5-.6-1.5 1.5.8 6.3 3.4 7.3 1.4.6 1 1.3-2.7 4.6q-4.5 3.8-7.3 4c-5.1 0-10.6 3.7-12.9 8.5-1.7 3.4-2.6 4.4-3.9 4q-4.8-1.6-8.5 21.6c-1 6-2 11.2-2.3 11.7s-1.9 1.2-3.6 1.6c-2.8.7-2.9.7-1.2-1.2.9-1 1.7-2.4 1.7-3 0-2.4-3.7-1.1-7.9 2.8-2.4 2.3-4.6 3.8-5 3.4-.3-.3 2.4-3.4 6-6.8 5.1-4.8 6.9-7.2 8.2-11.3 1.5-4.5 1.5-8.3 0-8.3-.2 0-2.9 1.6-5.9 3.6-7.4 5-9.2 3.2-2.1-2.1a52 52 0 0 1 9-5.7q5.4-2.5 2.9-4.2c-1.9-1.2-8.7 1.8-12.9 5.7-2.5 2.3-5.4 4.1-6.3 3.9q-1.9-.2-8.6 7.3a76 76 0 0 1-7.5 7.5c-.4 0-.9-1.1-1.3-2.3-.3-1.3-1.7-3.5-3.1-4.9l-2.5-2.5 3.8-4c2-2.2 4.5-4.3 5.5-4.6 2.5-.9 2.1-2.7-.7-2.7-1.7 0-3.9 1.7-7.6 6.2-4.4 5.3-4.9 6.3-3.5 7.1 1.7.9 6.5 10.1 6.5 12.5 0 3-2.3.3-5.8-6.8-2.2-4.4-4.4-7.6-5.4-7.8-2.4-.5-2.3 2.3.1 5.6 3 4.3 7.2 15.4 6.5 17.5q-1 2.3 1.6 1.2c1.9-.6 2.1-.5 1.1 1.3q-2.3 4.6.6 5.4 1.7.5 1.8 2.2t1.3 2.3c1.6.6 1.7-5.8.1-7.4-1.8-1.8-.2-4.5 2.3-4.1 2 .3 2.3-.2 2.3-2.8q0-3.1 4-7.9c5.6-6.6 6-7.3 5.1-8.2-.4-.4-2.8 1.4-5.2 4-5.3 5.9-5.8 5-.8-1.3l5.5-6.9 1.9-2.4 2.2 2.2c2.1 2.3 3.7 2.4 9.8.5 2-.6 1.2.6-3.8 6-8.6 9.2-12.6 17.8-17.3 37.6a94 94 0 0 0 .5 32c.8 4.1 1.1 7.9.6 8.4-1.3 1.3-9-9.4-14.5-20l-5-9.7.3-13.1.5-19.6c.1-5.3-.5-8-3.1-14.4-3.6-8.7-3.8-11.9-.7-12.4 2.9-.6 5.1-2.8 11.7-11.6 4.9-6.7 5.8-7.6 5.8-5.3 0 7 3.6 9.8 14.3 11 4.5.6 5.7.4 5.7-.7 0-1.9-2.2-2.6-8.6-2.6-6.7 0-7.1-.8-5.7-9.9q2-12.8 6.4-16.4c1.3-1.1 2.4-2.7 2.4-3.6 0-2.3 22.7-13.2 24.3-11.7.2.2-.2 1.3-.9 2.4-1.6 2.6.2 5.2 3.6 5.2q5.7 0-.4 4c-9.7 6.3-10.9 14-2.3 14 1.8 0 6.7-1.1 10.8-2.5 5.7-1.9 8-2.3 9.4-1.5 1.7.9 2 .7 2-.8q0-5.7-7.2-2.1c-6.2 3.1-14.7 5-17 3.8q-3.4-1.7 0-4.4A133 133 0 0 1 304 534q1-.1 1-1.1-.2-1-1.7-.5c-5.2 1.5-6.9 1.6-8.7.3-1.9-1.4-1.9-1.9.8-6.4 1.8-3.2 8.7-8.4 10.5-8 1 .1 1.5 1.2 1.4 2.5-.4 3.1 2.5 1.7 3.4-1.7s2.7-4.7 3.1-2.1c.2 1 1.8 2.8 3.5 3.9m-245.6 1.3q-.5 1.1-.6-.6t.5-1.3c.3.3.4 1.2.1 1.9m79.5 2.8q-1 6-1.2-.6c0-1.9.4-3.3.8-3s.7 1.9.4 3.6m175.8-3q0 .9-1 1a1 1 0 0 1-1-1q.1-1 1-1t1 1m-270 8.4q-.2 1.3-1.5 2-1.5.6-1.5-1.4.2-1.8 1.5-2c1.3-.2 1.5.6 1.5 1.4m85.7 1.8q-.5 1-.5-1.2c0-2.2.2-1.9.5-1.3.2.7.2 1.9 0 2.5M26 542.6a193 193 0 0 0-.8 42.2c1 11.9 1 12.4-1 14.4l-2 2.1.4-25.9c.5-23.5 1-44.2 1.3-45.4q.3-.2 1.7 1.2c1.4 1.3 1.4 2.7.4 11.4m64.8-9.5c.2 1.3.8 2.8 1.3 3.3s.9 2 .9 3.3 1.4 3.8 3 5.7c2.5 2.8 3.2 4.6 3.7 9.9q.6 6.4-.6 7.1c-1.2.7-.8 1.3 0 2.9a42 42 0 0 1 1.5 11.6c.7 18.1 2.3 41.6 3 43.5.5 1.4.2 1.4-2.6.5-2.3-.9-3.8-.9-5.6 0-1.4.6-3 1.1-3.6 1.1-1.8 0 1-2.7 4.2-4 3.3-1.4 3.9-3.4 1.3-4.8q-1.7-1-4.7.3c-1.7.8-3.9 1.6-4.9 1.9-2.9.9-3.3 3.7-.8 5.7q1.9 1.7 1.1 2.4c-1.3.8-5-1.3-5-2.8 0-.7-1.1-2.8-2.5-4.7-4.4-6-2.9-16.9 1.5-11.5.7.9 2.1 1.3 3.1 1q1.8-.5 1.9.3c.1.8-.9 1.2-2 1.5q-2 .5-2 3.5 0 5.8 4.5 2.8a10 10 0 0 1 4.3-1.6c3 0 4.8-2.6 3.2-4.5-1.1-1.3-1-1.8.4-2.8 2.4-1.8 1.1-4.5-2.8-5.6l-3.1-.9 3.1-.1c1.7-.1 3.7-.8 4.4-1.6 2.1-2.6-.5-4.5-6.1-4.5-4.7 0-6.2-1.1-3.7-2.6.7-.5 2.4-.7 3.9-.6 3.3.3 4.6-2.4 2.4-4.8-1.4-1.6-1.4-1.8.5-2.3 2.4-.6 2.7-4.5.4-5.4-1.5-.5-1.5-.7 0-1.5 1.9-1.1 2.1-3.9.4-5.6q-1.2-1 .2-2.7c1.1-1.3 1.1-1.9-.3-3.2-1.2-1.2-1.3-2-.4-3.4.9-1.5.9-2.4 0-3.9-.7-1-1-2.5-.7-3.3q.3-1.4-1-2.6-1.5-1.3-.9-4.2t-1.1-3.5c-1.2-.5-1.3-1-.5-2.6q1-2-.1-3.3-1-1.4-.5-2.5.6-1.5-.7-2.7-1.7-2 .2-1.1c.8.2 1.7 1.5 1.8 2.9m146.1 1.1c0 .7-.4 2.2-.9 3.3q-1 2.7-.9-1.3c-.1-1.7.4-3.2.9-3.2q1 .2.9 1.2m-193.1 1.6q.2 1.1-1.2 1.2-1.5-.1-1.6-1.6c0-1.7 2.2-1.4 2.8.4m11.6 2.1c1.9 2.1 1.5 2.5-2.6 3.5-3.1.7-3.2.7-1.8-2.8 1.1-3.1 2.1-3.2 4.4-.7M66 537q-.1.9-1.1 1-.8-.1-.4-1t1.1-1q.3 0 .4 1m-26.6 2.5q-.6 1.3-1 1.5-.4-.2-.4-1.5c0-1.3.4-1.5 1-1.5q.8.2.4 1.5m103.6 3c0 1.9-.4 3.5-1 3.5s-1-1.6-1-3.5.5-3.5 1-3.5 1 1.6 1 3.5m114.2 3.8a20 20 0 0 0-3.3 6c-.8 2.2-2.3 4.4-3.4 4.9s-2.6 1.9-3.3 2.9-4.1 5.1-7.5 9q-11.2 12.9-3.1-3.6a48 48 0 0 1 12.8-16.2c6.8-6.3 9.2-8.1 9.4-6.8.2.9-.5 2.7-1.6 3.8M66.5 545q.4 1-1 1.6c-1.9.8-3 0-2-1.5.8-1.4 2.2-1.4 3-.1M51 547.1q0 .8-1 .9-.9-.1-1-1.6.1-1.3 1-.9 1 .6 1 1.6m25 3.1q0 .8-1 .8-.9-.2-1-2.3-.1-2.6 1-.7.9 1.4 1 2.2m-36 .6c0 1.3-1.2 2.2-2.2 1.6s-.1-2.4 1.3-2.4q.8.1.9.8m102.3 11.8-.2 25.4c-.1 10.1-.4 14-1.1 13-.6-.8-1-5.1-.8-9.5a350 350 0 0 0-.6-21.1c-.6-8.4-.5-13.4.1-13.7.6-.4.8-1.8.5-3.3q-.6-2.8.9-2.2c1.1.4 1.4 2.8 1.2 11.4m-87.7-7.5q.3.8-1.6.9c-1.2 0-3 .5-4.1 1-1.6.9-1.9.7-1.9-.9 0-1.5.7-1.9 3.5-1.9 1.9 0 3.8.4 4.1.9m271.1 1.1q-.5 1.1-.6-.6t.5-1.3c.3.3.4 1.2.1 1.9M31 560q-.1.9-1.1 1-.8-.1-.4-1 .6-1 1.1-1 .4 0 .4 1m7 0q-.1.9-1.1 1-.8-.1-.4-1t1.1-1q.4 0 .4 1m9.5 2c.3.5 1.8 1 3.3 1.1q3.8 0-.7.9c-1.8.4-3.7 1.4-4.2 2.1-1.2 2 1.9 4.9 5.3 4.9 1.5 0 2.8.5 2.8 1.1q-.1 1-3.2.6c-1.8-.2-4.4 0-5.7.4-2.5 1-2.5.9-.5-9.4q1-4.3 2.9-1.7m393.4 52.2-.3 75.5c-.1 24.3-.4 32.5-1.3 33.4q-1.5 1.7-1.3-.9c0-1.1-.8-2.9-1.9-3.9-1.4-1.3-2-3.9-2.5-9.8-.8-8.9-.2-11.5 2.3-11.5 3.4 0 1.1-16-2.5-17.4-2.5-.9-1.5-26.6 1-26.6q1-.1 2.3-1.9c1.9-3 .2-15.1-2.3-17.2-.8-.6-1.4-2.2-1.4-3.5 0-3.1-1.5-3.8-3.6-1.7-1.5 1.5-1.6 3.3-1 16 .6 13 .5 14.2-1 13.6s-1.6-2.4-1-18.2c.4-10.1 1.2-19.5 2-22.1 1.3-4.1 1.6-4.5 4.4-4.3s3.1-.1 4.6-4.8c1.6-4.8 1.6-5.2-.2-8.2-1-1.8-2.7-3.4-3.8-3.5s-2.2-.7-2.7-1.1c-1.4-1.3.9-20.8 2.6-22.6 1.5-1.5 1.7-1.5 1.7-.1 0 2.7 2.1 1.8 3.3-1.4q1.2-2.8 2-2.1c.8.7.8 19.5.6 44.3M78.5 572.1q.6 1 .3 1.4c-.7.7-4.8-.7-4.8-1.6 0-1.3 3.7-1.1 4.5.2M68 578.2c0 1.9-.2 2-1.7.6-1-.9-2.5-1.8-3.3-2.1q-1-.5 1.8-.6c2.6-.1 3.2.3 3.2 2.1m-22.2.4 2.3.7-2.3 1.1q-2.3 1.2-2.1 3.8 0 2.6-1.4 3.2c-1.3.5-1.4.1-.9-2.5.3-1.7.6-4 .6-5 0-2.1.4-2.2 3.8-1.3m6.7 1.4q.4.9-.9.4-2.7-1.2-.7-1.4 1 0 1.6 1m27.9 11.2q.9 3.8-.3 3.8-1-.2-1.1-2c0-1-1-2.8-2.2-3.9-2-1.9-2-2.2-.5-3.9.9-1 1.8-2.9 1.8-4.3q.2-1.8.9 2.1zm-12-5.6q1.7 4.1-1.3 2.4c-1.1-.5-2.9-1-4-1q-2-.2-2.1-1.5c0-2.1 6.6-2.1 7.4.1m-34.9 2.6c-.8 3.5-1.2 4.4-1.9 3.7s.6-6.9 1.6-6.9q.9.2.3 3.2m140.2.5q-.5 1.4-.5-1.2t.5-1.8c.2.7.2 2.1 0 3m58.7 8.9 2.7 9.5-1.4 12.7c-2.3 19.6-2.7 68.3-1.3 159.8.9 53.9.8 56.1-.9 56.8-4.7 1.7-4.5 5.5-5-124.9-.3-67.6-.2-123.8.1-124.9.6-1.8.7-1.8 1.9-.3.7 1 2.4 6 3.9 11.3m-58.7-4.4q-.5 1.1-.6-.6t.5-1.3c.3.3.4 1.2.1 1.9m-104.3 3.3c.3 1.6.7 5.4 1 8.4.4 4.2 1.1 6 3 7.5 3.1 2.6 5.1 7.5 3.7 8.9q-1 1-2.6-.3c-1.4-1.1-2-1.1-3.7-.1-1.8 1.1-2.4 1-4.6-1.4-2.1-2.3-3-2.6-6.2-2.1-2.7.4-5 0-8.6-1.8-7.3-3.5-14.6-1.6-9.4 2.6l2.2 1.8h-2.1q-4-.2-2.7-5.5c.6-2.4 1-2.5 7.6-2.5 5.9 0 7.1.3 8 2 1.2 2.3 5.2 2.6 11.1.8 4.1-1.2 5.1-3.5 2.5-5.7a3 3 0 0 1-.9-3c.3-1 0-2.2-.7-2.6q-1.2-.6 0-2c1.6-1.9-.5-5.5-3-5.5-1.8 0-2.6-1.1-1.6-2.1.2-.2 1.8-.4 3.5-.4 2.7 0 3.2.4 3.5 3m40.6 1.6q0 .9-1 .4t-1-1.6q.1-.9 1-.4a2 2 0 0 1 1 1.6m-59.2 1.5c1.7.3 3.2.9 3.2 1.5s-.4.8-.9.4c-.5-.3-3.9-.6-7.5-.6-5-.1-6.6-.5-6.6-1.5 0-1.4 1.2-1.4 11.8.2m112.5 8.4c.7 0 1.8-.5 2.5-1.2.9-.9 1.2 0 1.2 4.2 0 4.9-.1 5.2-1.4 3.4-3.1-4.1-3.9-.4-4.2 17.8l-.3 24.5c-.1 4-.5 7.3-.9 7.3s-.7-12-.5-26.8l.4-30.2c0-3.1.1-3.2.9-1.3q1 2.1 2.3 2.3m118 9.6-.8 11.9-.5-8c-.7-9.9-.1-18 1.2-16.7.6.6.6 5.5.1 12.8m-13.4-2.9c-.5 4.3-1.1 13.6-1.5 20.8-1.1 22.9-2.2 21.2-2.3-3.7-.1-21.5.1-23.8 1.6-24.7q1.7-.8 2.3-.6c.3.2.3 3.9-.1 8.2m-113-1.5-.2 5.3-.7-4.5q-1-6.2.6-6c.2 0 .3 2.4.3 5.2m135.6-3.2q-.7.9-1.6 1-.9-.1-.4-1a2 2 0 0 1 1.6-1q.9 0 .4 1m-172.7 3.5c.2 1.6.8 3.5 1.3 4.1.7.9 3.8 9.8 3.9 11.1 0 1.1-3.4-.1-5.1-1.8-2-2-2-2.1-.2-3.4 1.4-1.1 1.6-1.7.7-3.2a4 4 0 0 0-3.3-1.6l-4.2.5c-1.2.2-2.4-.3-2.6-1q-.3-1.1 1.4-1.2c1.1 0 2.8-.6 3.9-1.4 1.6-1.3 1.7-1.8.6-3.6-1.2-2-1.1-2.1 1-1.8q2.4.2 2.6 3.3M291 617c0 2.3-.5 4-1.1 4q-1-.1-.5-1.7c.4-.9.1-2-.5-2.4-1.4-.8-.5-3.9 1.1-3.9.5 0 1 1.8 1 4m-118.3 6.7q-.5 1.4-.5-1.2t.5-1.8c.2.7.2 2.1 0 3m-144 5c-.2 1.6-.4.3-.4-2.7s.2-4.3.4-2.8c.2 1.6.2 4 0 5.5m85.8-4.7q.5.9-.4 1c-.5 0-1.3-.5-1.6-1q-.5-1 .4-1a2 2 0 0 1 1.6 1m40.2 5.2q-.3 1.8-.4-1.7t.4-2.3c.2 1 .2 2.8 0 4m134.9-4.4c.9.6 2.1 13.7 3.6 40.2.2 3.7-.4 4.8-3.1 5.2s-2.9.3-3.5-4.6a378 378 0 0 1 0-39.9c.6-1.8 1.3-2.1 3-.9m-183.1 3.8c2.3 2.5 2.5 3.5 2.5 11.8 0 6.3-.5 10-1.6 12.1-.8 1.6-2 5.2-2.6 8-.5 2.7-2.8 11.3-5 19S95.2 696 94.5 699c-1.4 6.2-1.7 6.3-10 3.4l-6.1-2c-1.5-.3-3.7-20-2.9-26 1.2-8.6 3.4-15.2 5.3-15.8s7.2-7.9 7.2-9.8c0-.6-.6-1.6-1.4-2.2s-2.1-4-3-7.6l-2.1-8.5c-.6-1.8-.1-2 5.8-2.1 3.6-.1 7.3-.7 8.3-1.3 3.5-2 8.3-1.3 10.9 1.5M259 639.5c-.5 11.7-.5 11.9-1.6 7-.6-2.8-1-7-.7-9.5 1.3-15.5 3-13.7 2.3 2.5m-85.3-8.3q-.5 1-.5-1.2c0-2.2.2-1.9.5-1.3.2.7.2 1.9 0 2.5m-98.2-1.1a54 54 0 0 1 3.5 17.6c0 4.9-.4 6-3.4 9.3-5.3 5.9-6.2 11.9-5.3 36.7.2 5.8.1 6-3.1 6.5-2 .3-2.6-.4-4.3-5.2s-1.9-7.5-1.6-21.1c.4-13 .8-16.3 2.5-20.2 1.8-4.1 2-5.5 1.1-10.7-.5-3.3-1.4-7.1-1.9-8.6-1.8-4.7-1.4-5 5.5-5.2 3.6 0 6.7.4 7 .9m205.5 7.1c0 2.7-.4 4.8-1 4.8s-1-2.7-1-6.3q0-6.5 1-4.7c.5.8 1 3.6 1 6.2m-159.4-3.6a8 8 0 0 1-3.5 1.4q-1.2-.1 1.4-1.9c3.4-2.1 5-1.7 2.1.5m46.4 2.9q0 2.3-1 2.5c-1 .2-1-1.1-1-2.5s.5-2.5 1-2.5 1 1.1 1 2.5m106-.5q0 .9-1 1a1 1 0 0 1-1-1q.1-1 1-1t1 1m-149 1.7q0 1.5-.6 1c-.4-.3-2 .1-3.6.9s-3.5 1.3-4.1 1q-1.1-.5.3-.5c.8-.1 2.6-1 4-2.1 3.1-2.4 4-2.5 4-.3m-69 1.7c0 1.1-1.9 1.5-2.5.6q-.4-.9.9-1 1.5 0 1.6.4m70 9.3c0 5.2.5 8.3 1.7 10.4q3 4.8-1.5 3.2-2-.6-2.2-2.4c0-2.4-2.3-2.4-7.9.1-5.1 2.4-5.1 2.4-5.1.7 0-.7 2-1.9 4.5-2.6 4.8-1.4 7.1-3.4 6-5.1q-.8-1-2.8-.5-3 1-.3-.7l4.5-3.5c2.3-1.9 2.4-2.2.9-2.8-1-.4-2.9.1-4.6 1.4q-4.1 2.8-4.2 0c0-.5 2-1.7 4.5-2.8s4.5-2.5 4.5-3.1q.1-1 1-.5c.6.3 1 4 1 8.2M47.5 644q.4.9-.9.4-2.7-1.2-.7-1.4 1 0 1.6 1m226.5.5q0 1.3-.9 1.5c-1.3 0-2.2-1.6-1.4-2.4 1.1-1.1 2.3-.6 2.3.9M168.2 659l.3 13.5 2.8 1.3c3 1.4 2.8 3.2-.4 3.2-5.2 0-5.4-.6-5.1-17.5.4-19.2 2-19.5 2.4-.5m68.5-8.3q-.5 1.3-.5-1.7c0-3 .2-2.7.5-1.8s.2 2.6 0 3.5m-189.9-.1c.8.7-7.6-.3-9-1.2q-.7-.5-.8-1.4c0-.9 8.7 1.3 9.8 2.6m253.1 13.9a292 292 0 0 0 2.8 23.4c1.8 9.3 2.2 8-4.5 13q-2.4 1.7-2.9 5.8c-.3 2.3-1.4 5-2.4 5.9-2.6 2.4-2.4 5.1.9 9.3a60 60 0 0 1 7.5 18.6c.1 1.1.5 2.5 1 3.1q.6 1.2-1 1.8t-.5 1.8q1.3 1.1 0 2.6c-1.6 1.8.8 3.3 4.1 2.5q2.5-.6 1.7.6c-.4.6-1.6 1.1-2.7 1.1q-1.9 0-1.7 1.2c.3.8 2.6 1.4 5.4 1.6 6.7.4 8.2 2.2 1.8 2.2-5.8 0-6.9.7-6.9 4 0 2.3.4 2.5 5.8 2.8 7.8.4 7.2 2-1 2.4q-6.5.4-7.1 1.5-.6 1.3 5.1 1.3c3.1 0 6.2.3 7.1.6 3.2 1.2 1.5 2.4-3.5 2.4-6.7 0-6.2 2.3.7 2.9l4.9.4-5.8 1.1c-3.2.6-5.9 1.5-6 2.1-.1.5 2.7 1.2 6.3 1.5l6.5.4-6.9.6c-4.3.3-7.1 1-7.4 1.7-.3 1 1.5 1.3 6.7 1.3 8.8 0 10.4 1.8 1.9 2.2-5.1.2-6.3.6-6.3 2 0 .9-.4 2-.8 2.4-1.7 1.7-.3 2.2 5.6 2 5.2-.2 6.2-.5 5.9-1.9q-.2-1.5.8-1.7c.5 0 1 1 .9 2.2-.1 4.7-1.1 5.3-7.6 5.3-3.7 0-6.2.4-6 1 .1.5 3 1 6.5 1 7.3 0 7.9 1.7.7 2.1-5.8.4-7.5.9-7.5 2.5q0 1.2 3.5.6c1.9-.3 3.7-.1 4 .4.6.8-.2 1-6 1.4q-2.1 0-1.7 2.5c.1 1.4.8 2.9 1.6 3.5.7.5 1.1 1.6.9 2.2q-.4 1.2.9 1.8c1.9.7 7.3-.9 7.4-2.3.3-2.5.5-2.6 1.5-.9q3 5.3-5.4 5.9c-3.8.2-5.2.7-5.2 1.8s1.1 1.5 4 1.6c9.6.1 10.1 1.5.8 2.1q-9.2.8-6.8 3.2c.6.6 3.4.7 7 .2 3.3-.5 6.1-.8 6.3-.6s.4 4.5.2 9.2c-.1 3.1-3.2 4.6-7.2 3.4q-3.9-1-1-1c2.8-.1 6.2-1.8 6.2-3.1s-12-1.3-14 0c-1.2.8-1.2 1 .3 1.6q1.5.6 1.7 1.5c0 1.5-3.7 1-4.3-.6-.4-.8-.6-9-.5-18.2.1-16.3-.5-41.2-1.8-71.6-.6-12.8-.9-14.7-2.3-14.7-1 0-2.6.7-3.7 1.5-1.8 1.4-1.8 1.6-.1 2.9 2.1 1.6 2.2 5.5.2 6.2-1.8.7-2 3.4-.3 3.4q.9 0-.5 1.8-3.4 3.8.3 2.9c3-.8 3.5 1.1.6 2.5-3.4 1.5-3.4 3.8 0 3.8 1.4 0 2.3.4 1.9 1q-.7 1-1.5.5c-1.3-.8-4 .6-4 2.1 0 .8.9 1.4 1.9 1.4 3.1 0 3.4 1.8.4 2.2-3.9.4-3.7 3.3.2 3.3s4 1.7.1 3-3.2 3.1 1.2 2.8q3.3-.3 3.2 1.3c-.1 1.6-.6 1.4-1.6 1-1.8-.7-5.4 1-5.4 2.6q0 1 3.6.5c2.9-.5 3.5-.3 3.2 1.1q-.4 1.6-3.1 2c-3.8.5-3.6 3.2.3 3.2 4.2 0 4 2.8-.2 3.2q-3.4.3-3.6 2.2c-.4 1.6 0 1.8 3.3 1.2s3.6-.5 3.3 1.1q-.2 1.9-4.2 2.3c-5.8.7-5.9 3-.2 3 2.5 0 4.6.4 4.6 1s-1.4 1-3.1 1c-3.5 0-6.9 1.6-6.9 3.2q0 1 5.3.4c5.8-.8 5.5.4-.6 2.4-5.1 1.6-4.3 3.6 1.3 3.2 3.2-.3 4.1-.1 3.8 1q-.6 1.2-2.4 1.6c-5.5.8-6.6 1.3-6 2.9.4.8.2 2.1-.4 2.8q-1.1 1.3-.1 1.9c1.2.8-3.8 8.5-5.5 8.6q-1.1-.2-1.7-2c-.8-3.1 1.3-48.4 2.8-62 .6-5.3 1.6-30.6 2-55.4a462 462 0 0 1 1-26.5c.3-.2.5 1.3.5 3.5a63 63 0 0 0 3.3 18.8 12 12 0 0 1 1.2 4.6c0 3 3 3.5 3 .5.1-1.1.4-2.6.8-3.2s.4-3-.2-5c-1.3-5.4-2.3-20.3-1.3-20.3 2.5 0 4.4 3 4.9 7.6.7 6.4 2 8 4.4 5.8 1.6-1.4 1.8-2.9 1.4-12.3a93 93 0 0 0-2-16.7c-2.4-9.2-2.1-22.6.5-19.7a98 98 0 0 1 1.9 15.8m-26.5-12.4q-.6.8-1.5.3t-.3-1.5q.6-.8 1.5-.3t.3 1.5m-217-.5q1.5.6 1.6 1.5c0 1.4-2.6 1-4-.6q-1.8-2.5 2.4-.9m97.5 8.8q-1.3 1.4-.5-2.3l.8-5q.2-1.2.5 2.3c.3 2.2-.1 4.3-.8 5m-38.4-6.4c-.3.5-1.2 1-1.8 1q-1 0 .3-1 2.8-1.8 1.5 0m121.3 11.7-.1 11.8-.7-9c-.6-8.1-.4-14.5.6-14.5.2 0 .3 5.3.2 11.7m-63.1-7.5q-.5 1-.5-1.2c0-2.2.2-1.9.5-1.3.2.7.2 1.9 0 2.5m-138.2 1.9q1.6 3 .6 4.2c-.6.8-.8 8.6-.6 20.7.6 25.4 1.7 37 3.5 37 .5 0 .8-12.3.7-27.4s.1-27.8.6-28.2c1.6-1.6 2.2 1.2 2.3 11.9.1 15.8 2.5 47 3.6 48.2q.9 1 2.1-.5c.7-.8 2.2-1.5 3.5-1.6l2.2-.1-2.1 2.3q-2.2 2.4-4.4 1.8c-1.2-.3-3.9.2-6 1-7.1 3-7.5 2.7-7.6-6.7l-.4-13.2a651 651 0 0 1-.9-50.8c.8-2.3 1.1-2.2 2.9 1.4m213.1 5.9 3.2 3.5.6 32.5c.8 45.3.9 141.8.1 143-.9 1.4-7.1 1.2-8.2-.3-.6-.7-1.1-18-1.2-42.7-.2-22.8-.4-45.6-.6-50.5-.3-7.6-.7-86.1-.5-92 .1-1.8.3-1.8 1.8.5.9 1.4 3.1 4.1 4.8 6m25.2-6.8c-.6 1.8-2.8 2.1-2.8.4q.1-1.5 1.6-1.6 1.4 0 1.2 1.2M148 671.5l-.7 7-.2-6.6c0-3.6.2-6.9.6-7.2 1.1-1.1 1.1-.5.3 6.8m125.5-4.4q-.2 1.2-1.7 1.7c-1.8.3-2.5-1.8-1.1-3.2 1-1 2.8-.1 2.8 1.5m-139 23.1c-.5.4-1.4.6-1.9.5a59 59 0 0 1 .7-21.5c1-2.3 1.2-1 1.7 8.8.3 7.3.2 11.8-.5 12.2m20.1-18.4q-.6 3.6 1 5.3c1.4 1.6 1.4 1.8-.5 2.8-1.1.6-2.2.8-2.4.4-.9-1.6.5-13.3 1.5-12.7.6.4.8 2.3.4 4.2M49 671.2l.5 9.3c.3 3.8.5 11 .6 16 .1 11.1.4 12.4 3.5 13.5 2.8 1.1 3.2 2.8.7 2.6q-1.9-.2-1.6 2.1c.1 1.1-.4 2.7-1.2 3.3-.8.7-1.5 1.9-1.5 2.6q0 1.3-1 1.4c-.5 0-1.1-2.4-1.1-5.3a606 606 0 0 0-1.3-24.5c-.8-10 .1-23.2 1.5-23.2q.8.2.9 2.2m6.6 11.8c.2 6.1-.1 11-.5 11-1 0-2.4-20.8-1.5-22.2 1.3-2 1.8.6 2 11.2m219.4-8.7c0 .6-.8 1.9-1.7 3-1.7 1.8-1.7 1.9 0 3.2q3.5 2.7-.5 2.3c-1.9-.2-2.4-1-2.6-4.2-.2-2.1-.1-4.4.2-5.1.6-1.5 4.6-.8 4.6.8m-15.1 82.2c.3 74.8.2 83.5-1.2 83.5q-1.4-.1-2-2.8c-.3-1.5-.5-38.4-.6-82.1-.1-77.1.1-82.1 2.8-82.1.3 0 .8 37.6 1 83.5m-138.8-80.3c.2 4.4-.3 15.1-1 17.4-.4 1.5-1.3 3-2.1 3.2-1 .4-1.2-1-.6-7.4.9-10.5 1.6-14.4 2.7-14.4q.8.2 1 1.2m6.9.7c0 1.1-.4 2.3-1 2.6q-1 .4-1-1.9c0-2.3.5-2.6 1-2.6q1 .2 1 1.9M5 678.1q0 1.8-1 1.4-.8-.6-.3-2 1.2-3.1 1.3.6m107.5 18.6c-.3 2.4-1.1 4.3-1.7 4.3-1.1 0-.1-19.6 1.1-21.5.9-1.4 1.4 12.1.6 17.2m314.1-16.9c1.1.7 1.9 20.2.8 20.2q-.6-.1-2.6-1.1c-1.7-.9-1.9-1.9-1.7-8.7.4-11 .8-12.2 3.5-10.4M173 682.1c5.2 1.2 33.9 5.8 42 6.8 9.9 1.1 8.8 2.2-19 19.4l-19 12.2c-5.2 3.4-15.3 9.7-22.5 14a660 660 0 0 0-22.7 14.2c-11.2 7.3-14.6 8.9-11.1 5.3 2-2.2 2.1-2.4.5-4.9-.9-1.4-2.4-3.2-3.2-3.8a31 31 0 0 0-13-3.9c-1.9-.1-5.6-1-8.2-1.9-4.7-1.7-4.8-1.8-4.8-6.1 0-3.6.5-4.6 2.9-6.3 1.6-1.2 3.5-3.8 4.1-5.9a22 22 0 0 1 2.1-4.7c.5-.5.9-1.8.9-3 0-2.7 3.6-4.9 33.5-19.8 26.1-13.1 28.3-13.7 37.5-11.6m64.4 29.4c1.5 77.1 1.8 127.2.7 127.9q-1 .6-1.1-1.1l-.6-79.8c-.4-42.9-.4-77.8-.2-77.5s.8 14 1.2 30.5M5 683.6q0 1.3-1 .9-.9-.6-1-1.6.1-.8 1-.9 1 .1 1 1.6m100.7.6q-.5 1.1-.6-.6t.5-1.3c.3.3.4 1.2.1 1.9m20.9 1.5c-1.1 1.1-1.7-.4-.9-2.3s.8-1.8 1.1-.1c.2 1 .1 2.1-.2 2.4M106 692c0 2.7-.3 5-.8 5s-.7-2.1-.6-4.8c.2-5.3.2-5.2.9-5.2.3 0 .5 2.2.5 5m167-4.1q0 1-1 1.6c-1.8 1.1-1.1 3.5 1 3.5q1.8 0 2 .9c.2.9-.9 1.1-2 1.4-2.6.7-2.6 3.7-.1 3.7 2.7 0 3.8 2 1.7 3.2q-1.5 1-1.6 2.3c0 .8-.9 1.9-2 2.5-1.9 1-2 .8-2-8.8 0-5.4.3-10.2.7-10.5 1-1 3.3-.8 3.3.2m-145.3 4.4c-.6 1.9-2.2.6-2.5-2-.2-2.7-.2-2.7 1.3-.8.8 1 1.4 2.3 1.2 2.8M5.3 700.2c.5 1.8-.3 4.8-1.4 4.8-.5 0-.9-1.4-.9-3 0-3 1.5-4.1 2.3-1.8m51.8 2.1q-2.5 2.4 1.2 3.7 2.1.9.6.9c-.9.1-2.4-.8-3.4-1.9-1.7-1.9-1.7-2.1.1-4.1q1.8-2 2.2-.9.3 1.2-.7 2.3m244.9-.6q0 1-1 2.3c-1.1 1.8-2.5.7-1.7-1.5.6-1.5 2.7-2.1 2.7-.8m0 6.2c-1 2-3 2.9-3 1.4 0-1 3.3-4.4 3.7-3.9.3.2 0 1.4-.7 2.5M3.7 712.2q-.4 1.8-.4-2.2c0-4 .2-3.5.4-2.3a17 17 0 0 1 0 4.5m76.8-4.6c1.7.4 5 1.8 7.4 3.1 2.4 1.2 5.1 2.3 6 2.3.9.1.1.7-1.6 1.5-3.8 1.6-4.3 3.9-1.2 5.5 1.7 1 1.8 1.4.7 2.7s-1.6 1.1-4-1.7c-1.9-2.4-3.2-3.1-4.7-2.7q-2 .4-2.1-.6c0-2.2-3.4-4.7-6.4-4.7q-3.3 0-1.8-1.2c.7-.7 1.2-2.3 1.2-3.6q-.1-2.5 1.8-1.8zm345.9 2.9a8 8 0 0 1-2.6 1.5c-1.6 0-.7-1.9 1.4-3.5 2.8-1.9 3.9 0 1.2 2m-360.4-1c-.7.8-1.7 1.5-2.2 1.5q-.9-.2.2-1.5c1.1-1.3 1.7-1.5 2.2-1.5q.9.2-.2 1.5m240 1c-1.4 1.7-4 2-4 .4q.1-1 1.5-.5 1.5.4 2.2-1 .6-1.3 1.1-1 .3.6-.8 2.1m-31 1.5q-.1.9-1.4 1c-.8 0-2.1.3-3 .6q-1.6.6-1.6-1c0-1.6.9-1.6 3-1.6 1.7 0 3 .4 3 1m151.7 2.1c-2.2 1.3-2.2 3.1.1 2.7 1.5-.3 1.7.9 2 10.7l.3 11-2.8 1.2c-1.5.7-3 1.3-3.4 1.3s-.7-5.7-.6-12.6c.2-12.1.3-12.6 2.7-14.4 1.4-1 2.7-1.6 3-1.4q.3.6-1.3 1.5m-423 4.1q-.5 1.1-.6-.6t.5-1.3c.3.3.4 1.2.1 1.9m58.4.8q1 3.2 3.4 3c2.1 0 2.3.3 1.8 4.2-1 9.9-2.4 18.3-3.1 19-.4.3-1.9.4-3.4.1-3.1-.6-3.5-2.4-1.4-6.2 1.4-2.6 1.1-5.1-.6-5.1-.6 0-2.1 1.2-3.5 2.6-2.6 2.8-6.6 3-7.1.3-.5-2.5 2.7-5.1 5.4-4.5 1.2.3 2.6.1 2.9-.4q.7-1.1 2 0c3.5 2.9 4.4-1.5 2-9.4q-2-6.5.1-6.6c.3 0 1 1.3 1.5 3m210.1-.1c-2.1 1.3-1.7 3.6.5 3.6 3.5 0 3.2 1.8-.4 2.6-3.1.6-3.3.4-3.9-2.7-.7-4.1 0-5.4 2.7-4.7q1.8.6 1.1 1.2m-188.8 6.6c2.7 2.7 2.8 3.2 2.4 9.7-.6 8.2.6 10.8 4.3 9.1 3.1-1.3 7.3.1 9.4 3.3q2.8 4.6 4.5-.2c.8-2 1.4-2.4 3.3-1.8 4.8 1.5 6.3 2.2 7.6 3.8 1.1 1.4 1.1 1.6-.4 1.6-1 0-3.3.9-5.1 2.1-2.5 1.5-5.1 2-10.6 2.1q-7.3 0-14.3 2.3a37 37 0 0 1-14.2 2.6c-1.7-.1-1.6-5.5.1-11.7.8-2.7 1.7-7.8 2.1-11.4.3-3.6 1.1-7 1.7-7.7s.8-2.6.6-4.2c-.4-2.6-.2-2.8 2.6-2.6a11 11 0 0 1 6 3M4.2 730c.2 2.2 0 4-.4 4s-.8-1.8-.8-4 .2-4 .4-4 .6 1.8.8 4m435.4 17.3c.1 22.5 1.1 46.1 1.9 48.8.7 2.2-1 2.6-1.8.5-.3-.8-1.6-1.6-2.9-1.8-2-.3-2.4-1.1-3.1-5.8-.9-7.2 0-16 1.9-16.7s1.8-2.3-.1-2.3c-1.8 0-1.9-1.2-.4-2.7 1.6-1.6 2.2-8.3.6-8.3-1 0-1.4-3-1.6-12-.2-10.4 0-12.1 1.4-12.6q1.4-.7 1.1-2.1c-.6-1.5 1.5-5.6 2.4-4.7.3.3.5 9.2.6 19.7m-166.2-17.5c.3.5-.8.9-2.4 1-1.7 0-3-.4-3-.9 0-1.1 4.7-1.2 5.4-.1M412 735q0 .9-1 1a1 1 0 0 1-1-1q.1-1 1-1t1 1m-137.2 1.7q.3 1.3-3.2 1.3-3.7.1-3.6-1.6c0-1.9 6.1-1.6 6.8.3M5.2 743.2c-1.5 1.5-2.6.4-1.8-1.8q.6-2 1.8-.6c1.2 1.4.9 1.5 0 2.4m269.3-1.3c1.5.2-.8 1.8-3.6 2.5-3 .7-4.3-.2-2.9-1.9.9-1.1 2.2-1.2 6.5-.6M216 743q0 .9-1 1a1 1 0 0 1-1-1q.1-1 1-1t1 1m-15 3.4v3.4l-4.2-.5c-5.6-.7-7.3-2.3-2.6-2.3 2.8 0 3.8-.5 4.3-2 1-3.2 2.5-2.3 2.5 1.4m266.7-.8c-.7.7-14.8.6-15.5-.1-.3-.3 3.2-.5 7.8-.5s8.1.3 7.7.6M275 749.4q0 1.5-3.5 1.3-3.4-.2-3.5-1.4.1-1.2 3.5-1.3 3.5 0 3.5 1.4m-88.3 3.2q-.6.5-1.9.1-1.1-.5.6-.6t1.3.5m30.8 1.4a2 2 0 0 1-1.2 1.7q-1.2.3-1.3-1.7 0-2 1.3-1.8 1 .6 1.2 1.8m209.3-.7c2.1-.5 2.2-.3 1.7 3.8-.3 2.4-.2 7.5.3 11.4 1.1 8 .3 9.7-4 8.8-2.8-.5-2.8-.6-2.8-8.4 0-4.5-.5-8.1-1.1-8.5q-1.2-.5 0-1.7c.6-.6 1.1-2.4 1.1-4q-.1-3.3 1.3-1.9c.7.6 2.3.9 3.5.5m-152 3.3c-.3 1.6-.4 1.6-4.8.8s-3.7-2.4 1.1-2.4c3.1 0 4 .4 3.7 1.6m-.4 7.5c-.6 1.1-7.4-.4-7.4-1.6 0-2 6.3-2.4 7.1-.5.4.8.5 1.8.3 2.1m-.4 3.9c0 1.1-.7 1.4-5.2 2.4q-3 .7-2.8-.8.2-1.4 3.3-1.9l4-.5q.6 0 .7.8m-130.2 1.8c.4 1.4-3.4 1.6-4.2.3-.6-1 1.3-2.1 2.8-1.7q1 .3 1.4 1.4M331 782.7c0 .6 2.4 2.3 5.3 3.7 4.7 2.3 4.9 2.5 1.7 2-1.9-.3-4.6-1.3-5.9-2.1q-2.3-1.6-3.4-.4c-2.6 2.6 3.4 5.2 18.8 8 8.3 1.5 9 1.9 9.4 4.1.4 2.9 1.7 4 4.9 4q2 .1 2.2.8c0 .5-1.3.7-2.9.4s-3.2.1-3.6.8q-.7 1-1.8.2c-1.9-1.6-29.7-2.1-29.7-.6q0 1.8 20 2.7 5.7.1 5.8 1.7c.2 1.3-1.5 1.5-11.3 1.4-9-.1-11.5.2-11.5 1.3 0 .7 1.1 1.3 2.5 1.3q2.6-.1 2.5 1.9c0 2.8 1.2 3.3 9.6 4 4.1.3 7.4 1 7.4 1.6s-4 1.1-9.5 1.3c-14.4.4-11.6 4.2 3.1 4.2 5.6 0 7.5.3 7.1 1.2q-.1 1.4-10.3 1.5l-10.9.3c-.5 0 .1 1 1.4 2q2.2 2 7.5 2.2c4.3.1 4 .2-2.4.7-5.7.5-7.5 1-7.5 2.1q.2 1.3 1.8 1.8a8 8 0 0 1 3.6 2.1c1.3 1.3 3.3 1.6 8.1 1.5 3.8-.1 6.6-.6 6.8-1.3.5-1.6 2.2-1.4 2.2.3 0 1.9-8.1 3.6-17 3.6-5.6 0-7 .3-7 1.5q-.2 1.6 4.3 1.6c2.3 0 5.1.4 6.2.8 1.9.8 1.9.8-.2 1.5-3.3 1.1-10.4-.3-14.9-2.8l-3.9-2.2-.2-16.4c-.1-9.1.4-23.4 1.1-32 1.1-12.8 1-15.8-.1-17.1-.7-.8-1.3-3.3-1.3-5.5v-3.9l6 6.5c3.2 3.6 5.9 7 6 7.7m-57.5-7.7q0 1.5-3.7 1.8c-3.3.3-3.8 0-3.8-1.8s.5-2.1 3.8-1.8q3.7.3 3.7 1.8m-139.2-.3c-.7.2-1.9.2-2.5 0q-1-.5 1.2-.5c2.2 0 1.9.2 1.3.5m138.7 6.5v1.8c0 .5-1.6 1-3.5 1-3.7 0-5.1-2.5-1.7-3.2 2.6-.6 5.2-.4 5.2.4m-156.7 3.5c-.7.2-1.9.2-2.5 0q-1-.5 1.2-.5c2.2 0 1.9.2 1.3.5M7 789.1q0 .8-1 .9-.9-.1-1-1.6.1-1.3 1-.9 1 .6 1 1.6m266-.2c0 .5-1.3 1.1-3 1.3q-3 .4-3-.9.1-1.2 3-1.3c1.7 0 3 .4 3 .9m155 0c0 1.2-2 2.5-2.7 1.8s.6-2.7 1.8-2.7q.8 0 .9.9M37.5 793q.4.9-.4 1-1-.1-1.1-1 0-1 .4-1t1.1 1m15.5 2.2q0 .8-1 .8-.9-.2-1-2.3-.1-2.6 1-.7.9 1.4 1 2.2m373.2 11.5c-3.3 2.8-7 3.9-8.4 2.5q-1.1-1 1.1-2.4c1.7-1 2.1-2.3 2.1-6.5 0-5.1.1-5.3 3.3-6.1l3.2-.8.7 5.5c.6 5.2.4 5.8-2 7.8M272 794.9c0 .4-1.1.6-2.5.3s-2.5-.6-2.5-.8 1.1-.4 2.5-.4 2.5.4 2.5.9m0 7.7c0 4.3-.2 4.6-2.2 4-1.3-.3-3-.6-3.8-.6q-1-.2 1.8-1.5c3.6-1.6 3.5-3.5-.1-3.5-2.2-.1-2.2-.1-.3-1.5 3.5-2.6 4.6-1.9 4.6 3.1M6.9 812l-.1 5.5-1.4-6.5c-.8-3.6-1.1-7.8-.7-9.5l.7-3 .7 4c.4 2.2.8 6.5.8 9.5m7.3-9.8c.3 6.5.5 8.6 1.1 10.2s-.8 3.3-1.6 1.9c-1.1-2-1.8-15.3-.8-15.3.6 0 1.2 1.5 1.3 3.2m17.4.4c1.2 2.7 1.2 3.9.4 4.8q-1 1.3-2.6-.8c-1.9-2.7-1.8-7.6.3-7.6.2 0 1.1 1.6 1.9 3.6m-9.2 4.4q.7 4.3-.2 3.5a14 14 0 0 1-1.7-5.5q-.7-4.5.3-3.5c.5.5 1.2 3 1.6 5.5m30.7 1.6c.9 1.2.4 1.4-3.2 1.4-5 0-8.2-1.5-6.2-2.8 1.8-1.2 8-.2 9.4 1.4m310.6-1q-.7.5-1.9.1t.6-.6q1.8 0 1.3.5m71.5 1.7c-1.2 1.3-1.9 2.7-1.5 3 1.3 1.4 6.4.7 7-.9 1.2-3.2 2.3 1 2.3 8.9v7.8l-3.7-.6a45 45 0 0 1-6.6-1.7c-2.6-1-2.8-1.4-2.2-4.2.4-1.7.8-5.2.8-7.8s.3-4.5.7-4.3 1.6-.2 2.6-1q4.2-3.1.6.8M41.5 813c2.7.7 2.5.8-1.7.9-2.7 0-4.8-.4-4.8-.9q0-1.7 6.5 0m227.3-.4c1.9.6 2.2 1.3 2.2 6.3a48 48 0 0 1-.9 9.3c-.7 3-.5 4 .8 5.3 1 .8 2.3 1.5 2.9 1.5 2.1 0 1.3 1.7-1 2.4-3.6.9-6.6.7-7.4-.5-.4-.7-.9-6.5-1.1-13-.5-12.7-.6-12.6 4.5-11.3m83.2.5c0 1.2-6.1 1.9-10.1 1.3-6.4-1.1-4.4-2.5 3.1-2.2 3.8.2 7 .6 7 .9m-323.3 3.5q-.6.5-1.9.1-1.1-.5.6-.6t1.3.5m367.3 7.5q0 1.7-1 1.9c-.5 0-1-1.2-1-2.6q0-2.3 1-1.9c.6.3 1 1.5 1 2.6m7 .6c0 4.7-.9 8.3-2.1 8.3-1 0-1.2-4.4-.3-8.9.9-4.3 2.4-3.9 2.4.6m-343 0q-.1 1-1 2.3-1.1 2-1-.8.1-2 1-2.2 1 0 1 .7m303.9 1.9c-.7.9-1.4 2.3-1.5 3.2q-.1 1.6-.5 2.7c-.2.5.2 2.4.8 4.1 1 2.7 1.7 3.2 5.7 3.8 5.9.9 6 2.5.1 1.8-3.7-.4-4.5-.2-4.5 1.2 0 .9 1 2.1 2.3 2.6 1.9.8 1.7.9-1.5.9-3.3.1-3.7-.1-3.7-2.7l-.4-9.2c-.4-7 .5-10 3-10q1.9-.2.2 1.6m32.5 5q.9 2-.9.4-2.5-2-.6-2 .9.1 1.5 1.6m12.6-1.2q0 .5-1 1.1-.9.4-1-.4.1-1 1-1.1 1 0 1 .4M6 833.5q-.2 1.3-1.5 1.5c-1.3.2-1.5-.7-1.5-1.5s.7-1.5 1.5-1.5 1.5.7 1.5 1.5m408.9 6.5c-.6 4.1-.6 9.1.1 13.6.6 4.9.6 9.1-.1 13.5-1.3 7.6-2.4 9.2-4.5 6.4-1.7-2.3-1.3-11.7.6-14 .9-1.1 1-2.6.2-5.7-.6-2.4-1.4-6.8-1.7-10-.7-5.3-.6-5.7 1.9-7.3 1.4-1 2.6-2.4 2.6-3.3q0-1.5.9-.7c.5.6.5 3.7 0 7.5m-31.6-1.3c-.7.2-1.9.2-2.5 0q-1-.5 1.2-.5c2.2 0 1.9.2 1.3.5m12.4 2c-.2 2.5.2 2.8 2.7 2.8 4 .1 4.4 2.2 1.1 4.9-2.5 2-2.6 2.4-1.6 6.1.6 2.1.9 3.9.8 4l-5.2 1.1c-6.3 1.1-6.9 3.7-1 4.4q4 .5 4 2c0 1.5 1.1 1.5 3.5 1.5 3.3 0 3.5.2 3.5 3.5v3.5H392c-6.3.1-11.9-.1-12.3-.3q-.6-.5.3-1.7c.7-.8.9-1.9.5-2.4-.3-.6.1-2.1 1-3.5 1.5-2.2 1.5-2.9.1-7.7-2.1-7-2.1-9.3 0-8.5 2.3.9 5.4-.2 5.4-2q0-1.4-2.9-1.4c-2.5 0-6.7-2.9-4.5-3.1l6.4-.2c4.1-.2 5.5-.6 5.5-1.7q0-1.5-3.3-1.8c-4.9-.5-2.8-2.2 2.8-2.2 4.7 0 4.9.1 4.7 2.7m-46 5.9q-.7.5-1.9.1t.6-.6 1.3.5m9.1 5.4c4.5 1.1 4.5 1.3 1.1 3.2-2.8 1.7-3 1.7-5.4-1-2.9-3.1-3.2-4.7-.7-3.7.9.4 3.2 1.1 5 1.5m-6.8 8.1c0 2.6-3.4 0-4.6-3.6l-1.4-4 3 3.3c1.7 1.8 3 3.7 3 4.3m-22.5-4.2q.4 1-.5 1.6-1.1.7.1 2.1 1.5 1.5-1.1 1.4c-2.6-.1-2.1.4-1.7 2.2.6 2.2.3 2.3-4.8 2.5-6.5.2-6.8-.6-2.5-5.9 3.3-4 9.1-6.1 10.5-3.9m13 3.7c1.7 4.1 1.9 5.4.8 5.4-.8-.1-4.3-6.9-4.3-8.3 0-2 2.2-.2 3.5 2.9"/><path d="m235 71.9-11 4.8c-4.1 1.9-11.3 7.7-23 18.7a49 49 0 0 0-13.6 27.3c-.7 8.3.9 18.9 3.2 21.4 1.8 2 6.9 2.5 9.3 1q1.7-.9-.5-1.9c-1.5-.9-1.6-1.2-.5-2.6.8-.9 2.1-1.5 3-1.4 1.4.3 1.6-1.1 1.8-8.7.3-8.2.6-9.7 4.3-17.1a40.4 40.4 0 0 1 42.4-23.5c12.3 1.5 21.1 6 27.6 14.3 6.9 8.7 10 16.5 10 25.5 0 4.2.4 5.4 2 6.3 2.8 1.5 2.5 3-.6 3-4.2 0-2.7 3.4 1.6 3.8 3.1.3 3.8-.1 5.5-3 1.6-2.8 1.9-4.8 1.7-13.8-.5-16.7-4.3-24.5-19.2-38.7a156 156 0 0 0-34.1-17.7c-2.5-.5-5.1.1-9.9 2.3"/><path d="M230 100.1a27 27 0 0 0-10.8 8.4c-4.9 6.1-8.2 13.3-6.5 14.3.6.4 6 .5 11.9.2l10.8-.5 4.1-10c2.2-5.5 4.4-10.6 4.8-11.3 1.3-2-1.2-4.2-4.7-4.1-1.7 0-6 1.4-9.6 3m20.4 2.4c.3 3.1 1.9 8.9 3.4 12.8l2.8 7.2h21.9l-.2-3.6c-.5-8.9-12.2-19-24.7-21.3l-3.9-.7zm-7.7 12.7a58 58 0 0 0-2.7 7c0 .5 2.3.8 5 .8 4.1 0 5-.3 5-1.8a32 32 0 0 0-3.6-11.9c-.5-.2-2.2 2.5-3.7 5.9m-76.2 11Q152 141.4 152 144.8c0 1.9 7 1.1 16.6-2.1l6.9-2.2.2-9.8c0-5.3.4-10.4.7-11.2q2.1-5.9-9.9 6.7m144.9-5c.3 1.3.6 4.6.6 7.5v5.2l5.8 1.7c6.7 2 12.2 2.5 12.2 1a104 104 0 0 0-18.1-17.6q-1 0-.5 2.2m-92.7 6.4c-.3.4 1.9 2.2 5 4.1 6.2 3.7 8 3.3 8.5-1.7.3-2.4.1-2.5-6.2-2.8-3.6-.2-6.9 0-7.3.4m19.8 1.7a11 11 0 0 0-3.1 5.4c-.6 3-.4 3.3 4.5 5.8l5.2 2.6 5.5-2.7c3-1.4 5.4-3 5.4-3.6 0-1.9-4.1-8.8-5.3-8.9l-5.4-.5c-3.3-.3-4.8.1-6.8 1.9m21.4-.7c-1.1 1.3.6 6.8 2 6.2 4.9-1.9 11.1-5.5 11.1-6.4 0-1.6-11.8-1.4-13.1.2m-48.9 4.6c.1 6.2 8.4 21.5 11.2 20.6 1.1-.4 5.8-11.3 5.8-13.4 0-.6-2.5-2.4-5.5-3.9-3-1.6-6.2-3.6-7.1-4.7-2.6-2.8-4.4-2.3-4.4 1.4m60.6 1.4c-9.1 4.4-9.3 4.7-7.4 8.8.9 1.9 2 5 2.3 7q1.6 7.8 5.5 3.5c5.6-6.6 10.6-21.6 7.5-22.5-.5-.1-4.1 1.3-7.9 3.2m-17.4 9.4c-1.2 1-2.2 2.2-2.2 2.7 0 1.1 10 7.5 10 6.4 0-1.5-3.8-9.8-4.7-10.4-.4-.3-1.8.3-3.1 1.3m-23.7 2.6c-.8 2-1.2 4-1 4.5.7 1.1 9.5-3.2 9.5-4.6 0-1.1-4.1-3.5-6-3.5-.6 0-1.7 1.6-2.5 3.6"/><path d="M282.5 151c-3.5 7.9-15.6 16.9-26.2 19.7a45 45 0 0 1-47.2-20.5c-1.3-2.5-3.9-2.8-6.7-.8-1.8 1.4-1.8 1.5-.1 2.2 1.5.5 5.7 7.1 5.7 8.9 0 1.1-8.4-.7-10.1-2.1q-3.8-3.2-3.9 1.5c0 2.7.4 3 7.3 5.1 6.6 2 17.7 8.9 17.7 11 0 .4 1 1.8 2.3 3.1 2.6 2.7 5.1 6.8 6.8 11.4 1 2.8 1.2 2.8 2 1 4.4-10.7 4.9-11.5 8.8-13.9a16 16 0 0 1 7.5-2.6c7.8 0 16.2 6.2 18 13.2.9 3.7 2.3 3.5 3.1-.5 1.2-5.4 4-9.9 9.9-16 5.1-5.2 13.9-10.7 17.4-10.7q1-.2 1.2-1.8c0-2-2.9-6.4-3-4.5 0 .7-1.9 2.2-4.2 3.3q-6.7 3.2-6.8 1.2c0-1.7 5.2-7.7 7.7-9 2-1.1 2.3-1.6 1.2-2.3a9 9 0 0 0-4-.9c-2.1 0-3 .8-4.4 4m20.3-3.4c-2.1.6-3.8 5.3-2.8 7.9 1.1 3 4.6 4.3 12.5 4.8a40 40 0 0 1 35 41.2l.1 10h4.8c4.1 0 5-.4 6.4-2.8 1.9-3.2 2.3-3.3 4.7-.7 1.8 1.9 1.7 2-.3 2q-3.5-.2-1.2 4.1c1.4 2.5 5.6 2.5 9.8-.1 3.6-2.2 4.1-4.6 1.7-8.8-.8-1.5-3-6.5-5-11.2a128 128 0 0 0-21.8-34.4 47 47 0 0 0-20.6-10.9 116 116 0 0 0-23.3-1.1m-129.8 2c-3 .8-10.1 3.7-15.7 6.5a60 60 0 0 0-28.6 26.8c-2.1 4-3.7 8.3-3.7 9.4s-.9 4.6-2.1 7.7c-1.8 5-1.9 6.3-.9 10.1 1.5 5.6 7.5 11.6 9.7 9.7 1.3-1.1 1.2-1.4-.6-2.9q-4.1-3.1.4-2.9a4 4 0 0 1 3.6 2.2l1.2 2.2.8-2.2c.8-2.1 1.3-2.3 5.1-1.7l4.3.7v-11.9c0-10.9.2-12.2 2.8-17.3 1.5-3.1 4.7-7.6 7.1-10.1 4.8-5 17.3-11.8 23.5-12.8q3.6-.6 3.6-2.3c0-2.7 1.4-3.3 2.9-1.3 1.2 1.6 1.6 1.7 3 .6 2.3-1.9 2-5.5-.7-8.6-2.8-3.3-8.3-4-15.7-1.9"/><path d="M241.5 150.7c-5.9 3-12.5 7.5-12.5 8.4 0 .6 2.1 1.9 4.6 2.9 7.3 3.2 24.8 2.4 27-1.2.4-.6-.3-2-1.6-3a134 134 0 0 0-14.3-8.8zm55.3 17.4c-7.5 1.8-16 9-21.3 18.2q-2.8 4.9-1.7 5.6c.6.3 5.5.8 11 .9 7.2.2 10.1 0 10.9-1a133 133 0 0 0 7.3-22.9c0-2.1-.6-2.1-6.2-.8m14.9-.4c-1.4 1.4-.6 8 1.8 13.8 1.4 3.3 2.5 6.6 2.5 7.2 0 3 3.5 4.8 8.8 4.7 15.9-.4 15.2-.3 15.2-2.2 0-2.8-7.3-13.6-11.2-16.5-5.2-4-15.8-8.4-17.1-7m-131.2 2.6c-12.6 4.1-17.5 7.5-23 15.9-3.8 6-4.2 9.7-.7 8.3 2-.8 2.2-.9 8.5-.7 2.6.1 4.7.7 4.7 1.3q-.2 1-5 .8c-9.5-.5-9.4 3.7.2 6.9l6.3 2.1 1.8-2.1c.9-1.1 1.7-3.2 1.7-4.7s1.6-5.7 3.5-9.3c2-3.7 4.4-9.1 5.5-12.2 2.2-6.4 1.3-7.9-3.5-6.3m12.2.4c-.6 1 3 16.8 4.9 21.2 1.4 3.1 1.7 3.3 4.9 2.7 4.3-.8 4.6.8.5 2.3-2.4.8-3 1.6-3 4 0 3.9 1.5 4.7 5.3 2.8 1.8-.9 4.7-2.1 6.5-2.7 4-1.6 4.5-5 .6-5q-2.4 0-1.8-1.1c.3-.6 2.8-.9 5.8-.7l5.1.3-.3-3.5c-.5-4.8-9.5-14-17.1-17.3q-10.3-4.7-11.4-3m111.4 9.5c-4.4 11.6-4.2 12.8 1.9 12.8h5.1l-.7-3.5c-1-5.4-3.1-10.9-4.3-11.3q-1-.1-2 2M184.7 186c-1.6 3.8-2.6 7.4-2.2 8 .9 1.4 7.8 1.3 9.7-.3 1.5-1.1 1.4-1.8-.4-8-1.2-3.7-2.6-6.7-3.2-6.7s-2.4 3.2-3.9 7m55.6-1a7 7 0 0 0-3.3 3c-.9 1.8-.7 2.2 1.7 3.1q5.6 2 5.8-3.6c0-3.2-1-3.8-4.2-2.5m8.9 3.2c.2 2.7.8 3.4 2.9 3.6a5 5 0 0 0 3.8-1.1c.9-1.2.7-1.9-1.5-3.6q-5.8-4.6-5.2 1.1m27.7 7.9c-1.1.8-.8 1.5 1.6 3.4 1.7 1.4 3.4 2.5 3.8 2.5.5 0 2.2.9 3.8 2.1 3.6 2.5 5.3 2 7.4-2.1s1.3-5-4.3-5c-2.6 0-6.1-.4-7.8-.9-1.9-.5-3.7-.5-4.5 0m-38.9.9c-1.2.8-1 1.4 1.5 4q5.4 5.7 5.5.2c0-4.5-3.3-6.5-7-4.2m11.7-.4c-1 1.1-.9 8.4.2 8.4.5 0 2.3-1.2 4-2.6 3.2-2.6 4.1-5.4 1.9-5.4-.7 0-2.2-.3-3.3-.6s-2.4-.2-2.8.2M320 198c-1.1.7-1.2 1.5-.5 3.6 1.4 3.7 4 5.3 6.3 3.7.9-.7 3.9-2.4 6.5-3.8s4.5-3 4.2-3.5c-.8-1.3-14.5-1.3-16.5 0m-142 4c-1.1 2.1-2 4.5-2 5.2s2.2 2.8 4.9 4.7l5 3.3 5.5-3.1c3-1.7 5.6-3.7 5.9-4.4a11 11 0 0 0-.7-4.5c-1.2-4-3.7-5.2-11.1-5.2-5.3 0-5.5.1-7.5 4m38.9-.1a74 74 0 0 0-8.9 6.1c-4.1 3.4-4.2 3.7-3.2 7a54 54 0 0 0 6 14.8c1.4.4 7.8-7.7 10-12.8 1-2.5 2.2-7 2.6-10.1 1-7.6-.4-8.6-6.5-5m80.5.7c-2.1 5.1-1.5 7.4 3.1 10.6 5 3.4 7.5 3.5 12.5.3 4.3-2.7 4.6-3.5 2.9-8.6-1.7-4.9-3.5-5.9-10.6-5.9-6.4 0-6.4 0-7.9 3.6M152.5 201c-.9 1.5.4 10.5 2.2 14.8 2 4.9 6.1 11.2 7.3 11.2 1.1 0 6.4-10.1 7.3-14 .5-2.1-.1-3.1-4-6.3-2.5-2.1-5.8-4-7.2-4.4-1.4-.3-3.1-1-3.8-1.5q-1.1-.9-1.8.2"/><path d="M230 205.9c0 6.8-1.6 12.1-5.7 19.2a39 39 0 0 1-18.1 16.2 35 35 0 0 1-16.3 3.5c-9 .4-10.6.2-17.5-2.3a32 32 0 0 1-14-9.2 48 48 0 0 1-8.5-10.8c-2.2-4.9-3.7-5.6-5.7-2.4q-1.3 2-3.2 1.4c-3.8-1.2-4.2.7-.8 3.5 2.8 2.4 3.1 3.1 2.2 4.7-2 3.2-4.2 2.8-4.6-.9-.4-4-2.8-4.5-3.8-.8-3 11.3 8.7 18.3 39.5 23.6 22 3.8 23.6 3.8 36.8-.7a50 50 0 0 0 20.2-11.1 40 40 0 0 0 13.4-21.1c1.4-6.6 1.1-7.3-2.9-8.2-1.8-.4-4.6-2.5-7-5.3l-4-4.7zm103.3-.8-7.5 6.4-2.8 2.3 2 5.8c2.8 8.1 3.6 8.6 7.2 4.4 4-4.6 7.6-12.5 8.4-18.3.9-6.1-.7-6.2-7.3-.6"/><path d="M261.2 206.1a18 18 0 0 1-5.8 4.4c-1.9.8-3.4 2-3.4 2.8a48 48 0 0 0 22.1 31.8c4.9 3.3 7.4 4.2 14.2 5.3 9.4 1.6 25.2.6 32.1-1.8 2.2-.8 8.2-2.7 13.1-4.1 16.7-4.9 26.5-10.5 26.5-15.4 0-1.5-.5-3.2-1.1-3.8-1.6-1.6-4.9-.4-4.9 1.8q-.1 1.8-1.4 1.9c-2.4 0-2.9-1.9-1.1-4.6 1.6-2.4 1.5-2.6-.7-4.8a19 19 0 0 1-3.3-4.1c-.9-1.5-1.5-.9-4.3 4.8-3.5 7.1-11.5 15.3-16.1 16.3-1.4.4-3.9 1.4-5.6 2.4a33 33 0 0 1-17.3 3.1 42 42 0 0 1-38.7-34.9c-.4-2.3-1-4.2-1.3-4.1-.4 0-1.8 1.3-3 3"/><path d="M272 204.8c0 6.3 8 21.2 11.4 21.2.7 0 2.2-3 3.5-6.6 2.1-6.3 2.2-6.7.5-8.5-.9-1-2.3-1.9-3-1.9a24 24 0 0 1-6.1-3c-5.5-3.5-6.3-3.6-6.3-1.2m-100.9 14.1-2.1 5.5q.1 2 7.3-2.6l5-3.2-2.7-2.3c-3.9-3.3-5.1-2.9-7.5 2.6m23.7-2.3c-1.6.8-2.8 1.9-2.8 2.3 0 1.5 10.1 7.4 11 6.5s-2.9-9.6-4.5-10.1c-.5-.1-2.2.5-3.7 1.3m97 2.5c-2 3.5-2.4 8.9-.6 8.9.6 0 2.2-1 3.4-2.1 1.3-1.2 3.3-2.7 4.5-3.3 2.9-1.5 2.7-2.7-.7-4.8-4-2.3-4.7-2.2-6.6 1.3m21.4-.8c-2.3 2.5-2 3.4 2 6q8.2 5 5.7-4.3c-1.4-4.7-4.3-5.4-7.7-1.7m-201.7 7c-3.2 6.7-.3 10.7 7.8 10.7 4.1 0 4.9-1.1 6.2-8.3.7-3.3.6-3.4-3.2-4l-6.5-1.3c-2.3-.5-2.8-.1-4.3 2.9m67.2.6a64 64 0 0 0-7.9 4.9q-2.8 2.9 7.8 5.8c5.6 1.5 7.7 1.6 14.6.7 12.3-1.7 12.6-2.8 1.9-9.6-4.8-3.1-9-5.7-9.2-5.7zm195-2.9c-2 .4-4 1-4.3 1.3-.7.7 1.5 9.5 2.5 10.2.9.5 10.4-1.5 11.4-2.4.4-.4.2-2.9-.5-5.4-1.3-5.1-1.6-5.2-9.1-3.7m-75.4 3.7c-3.5 1.9-6.3 4.1-6.3 4.8 0 2.9 12 5 19.9 3.4 7.5-1.4 9.3-2.6 6.8-4.2-9.7-6.3-12-7.7-13-7.6-.7 0-4 1.6-7.4 3.6m-51.1 5.5c-.5.7-1.7 2.9-2.5 4.9a53 53 0 0 1-11 14.9c-1.2 1-1.8 2.2-1.4 2.7 1.1 1.1 36.7 1.7 36.7.6 0-.5-2.5-3.3-5.5-6.3-3.1-3-7.2-8.3-9.1-11.8-3.5-6.1-5.2-7.4-7.2-5m148.5 168.6c-2.1 2.3-4.8 8.8-4 9.6 1.2 1.2 4.2.6 5.2-1.2q1-2.1 1.5-.2.7 1.5 5.1 1.8c3.5.2 4.6-.1 5.4-1.7q1.2-2-.4-3.1c-.8-.7-1.5-2-1.5-2.9s-.5-2.2-1.2-2.9c-1.8-1.8-8.2-1.5-10.1.6m19.5 14.2c-2 .9-2.3 1.6-2 5.7.3 4.4.6 4.9 3.8 6.5 4.5 2.2 5.7 2.2 6.3 0 .2-.9.8-2.5 1.2-3.5q.8-1.7-.7-1.7c-.8 0-1.8-1.6-2.4-3.7-1-4-2.5-4.8-6.2-3.3m-18.4 9.7c-.7 1.6-1.8 3.6-2.6 4.5-1.5 1.8-.9 3.8 1.3 3.8.8 0 3.5.7 6.1 1.6 5.6 1.9 6.6 1.2 6.8-4.6 0-3.3-.4-4.6-2.3-6.1-3.6-2.9-7.9-2.5-9.3.8m26 9.4c-2.9 2.1-3.7 5.4-1.6 6.1 2 .7 0 2.5-3.6 3.2-4.2.8-6 2.8-7.5 8.7-1.1 4-1.1 5.1.3 7.7.9 1.7 1.6 4.1 1.6 5.4s.7 3.4 1.6 4.7c1.6 2.2 1.6 2.3-.2 1.5-3.4-1.6-6.7-.9-8.6 1.7-1.9 2.5-1.9 2.6.4 7.6 2 4.7 2.5 5.1 6.2 5.6q9.3 1.3 5.2-6.5c-1.5-2.9-1.1-7.2.6-6.1 1.7 1 7.5 14.5 8.2 19.1q.6 4.3-.8 6.3c-3.8 5.5 4 15.7 8.6 11.2 1.5-1.5 1.6-2.5.8-5.1-.5-1.8-.6-4-.3-4.8q.6-1.5-1.1-.8c-2.4.9-1.9-1.2.7-3.2 2.2-1.6 2.2-1.6-1-1l-3.3.5v-4.8c0-2.7-.3-5.7-.7-6.7-.5-1.4-.2-1.6 2.1-1 3 .7 5.6-.7 5.6-3q-.2-1.4-2.7-1.4l-2.8-.1 3.2-2.7c2.7-2.3 3-2.9 1.8-4q-1.4-1-2.5-1.2-.9-.1-1-1.5t-2.2-1.2c-1.8.2-2.5-.8-4.5-6.3-2.2-6.5-3.1-15-1.4-15q1 .2 2.2 2c1.2 1.6 1.9 1.9 4.4 1.2 2.7-.8 3-1.3 2.7-4.3-.1-1.9-.9-3.9-1.7-4.5-.9-.6-1.3-1.8-1-2.6.9-2.3-1.3-6.8-3.2-6.8-1 0-3 1-4.5 2.1m5.7 2.9q.5.9-.4 1c-.5 0-1.3-.5-1.6-1q-.5-1 .4-1a2 2 0 0 1 1.6 1m-39.5 3.9c-1.3 2.5-1.3 6.1 0 6.1q1 .1 1 1.1c0 1.7 4.9 5.9 6.9 5.9.9 0 2.6-.6 3.6-1.4s2.6-1.1 3.5-.9c3.7 1 3.2-5.5-.6-8.8a22 22 0 0 0-11-3.9c-1.3 0-2.8.9-3.4 1.9m12 3.5q0 .5-1 1.1-.9.4-1-.4.1-1 1-1.1 1 0 1 .4m-22.9 10c-4.4 4.4-5.1 5.7-3.8 6.2.9.3 3.9-.7 6.9-2.3 4.6-2.4 5.3-3.2 5.3-5.8 0-4.7-2.5-4.1-8.4 1.9m-19.7 28.2c-1.2 3-1.3 4-.2 6.4 1 2.4 1.7 2.8 3.8 2.3 1.3-.3 3.3-1.6 4.3-2.7 1.8-2.1 1.8-2.1 1.3 1.2-.7 4.1 1.4 4 2.8-.1 1.2-3.3-.7-7.3-4.6-9.3-4.2-2.2-5.8-1.7-7.4 2.2m7.6 0q-.1.6-1.1 2.5c-1 2-1.1 2-2.4.2-.7-1-1.1-2.1-.9-2.5.6-.9 4.4-1.1 4.4-.2m20.4 1.8c-.3.9-.2 2.2.4 2.9.5.7.6 2.1.1 3.2-1.1 2.8-1.1 5.7 0 5q.9-.4 1.6.5 1.9 2.5 3.1-1.5a8 8 0 0 1 2-3.6q2.7-2.4 0 2.7c-1.7 3.2-1.1 5.1 1 3.3q1.5-1.4 1.4 1 0 3.9 3.3.3c2.8-3.1 2.2-8.1-1.5-11.4-1.7-1.5-4.2-2.8-5.4-2.8s-2.9-.3-3.8-.6q-1.5-.5-2.2 1m2.6 24.1c-1.9 5.1-2.9 23.2-2.5 49.3.2 19.6 0 25.8-.7 23.4-.6-1.7-1.4-3.2-1.9-3.2-1.1 0-2.6 5.7-3.3 12.6-.4 3.3-1.5 8.4-2.6 11.2-1.1 2.9-2 6.3-2 7.6 0 3.1-7.4 13.9-12.8 18.7a31 31 0 0 1-8.4 5.1q-7.3 2.2-4.8 5.2c.9 1.1 1.8 1.2 3.7.5s2.8-.5 4.4 1.3c1 1.3 1.8 2.9 1.9 3.5 0 1.5 5.2 1.4 6.2-.2q.8-.9.8.7c0 2.2 1.3 2.3 3 .3s4-1.9 4 0c0 2-3.1 8-6.4 12.4-2.6 3.5-3.4 7.1-1.6 7.1s9.2-10.9 12.6-18.7l3.4-7.8v5.5c0 3-.5 10-1 15.5s-1.5 17.1-2 25.7a273 273 0 0 1-2 20.5c-1.5 7.4-2.8 21.6-4.5 48.3-.8 13.5-1.7 25.3-1.9 26.2-.6 2.4 2.8 5.3 4.2 3.6 1.2-1.6 3.2-19 3.3-29.6 0-4.2.4-8.6.9-9.7q.8-1.8.9-1.1.4.6 2.5-1.3 2.3-2 3-1.3c.3.6-.8 2.1-2.4 3.4-2.7 2.1-3 2.7-2.1 5.1q1.8 4.7 7.9 4.7c2.5 0 3-.5 4-3.9 1.4-4.3 1.5-9.1.4-10.6-1-1.5-4.9-3.5-6.7-3.5-.8 0-2.5 1.1-3.7 2.5-3.6 4.1-4.1 3.1-3.4-6.3.9-11.1 2.7-19.4 4.5-20q1.3-.5.6 1.7t.9 2.1q1.5.1 1.6.8c.1.7 1.8.8 4 .9 3.6.1 4.2-.3 5.6-3.2.8-1.8 2.4-3.5 3.6-3.8q1.8-.6 1.3-1.7c-.4-.7-1.6-.9-2.6-.7q-2 .5-3.5-1.8c-1.8-2.7-6-4.7-9.4-4.3q-2.3.2-2.3-.7l.7-12.5c.3-6.3.8-13.3 1.1-15.5s.7-6.9.9-10.5c.7-11.7 2.6-33.4 3.2-37.2a8 8 0 0 1 2.8-5.2c2.6-1.6 4.1-5.6 2.2-5.6a4 4 0 0 0-2.4 1.2q-1.3 1.4-1.2 0 .2-1.1 1.9-2.2c2.2-1.1 2.3-4.2.2-8-2-3.5-.9-40.7 1.2-42.4.8-.6 1.7-1.8 2.1-2.6q.5-1 .1 2.6-.5 4 .9 5.9c1.6 2.2 3.6 1.2 3.6-1.8 0-1.2 1.1-3.9 2.5-5.9s2.5-4.3 2.5-5-2.1-2.4-4.6-3.7c-3.7-2-4.9-2.3-6.4-1.3q-3.6 2.4-2.1-6.8c.6-4.2.8-4.5 3.6-4.3 2.4.2 3.4-.4 5.3-3.2 1.2-1.9 2.2-4.6 2.2-6 0-3.2-4-7.3-7.8-8.1-2.8-.6-2.8-.6-2.4-7q.4-6.3-.8-7.9-2.5-3.2-4 1m13.7 49q-.7 1.3-1.7 1.5-1 0 0-2.1c1.3-2.3 2.6-1.9 1.7.6m-16.6 40c-.6 2.4-1.1 7.9-1.1 12.1 0 10.5-1.8 20.4-3.7 20.4-.8 0-2 1.5-2.8 3.4-1.6 3.9-3.5 5.5-3.5 3.2q-.2-1.5-1.5-1.6c-1.3-.1-1.5-.7-1.5-1.5s-.9-1.5-2-1.5c-2.8 0-2.6-.5 2-5.7 2.2-2.5 4-5.1 4-5.7s.9-1.9 1.9-2.8c1.1-.9 2.3-3.4 2.6-5.5a137 137 0 0 1 4.1-16.8c2-6.7 3.3-5 1.5 2M372 639.1q0 1.8-1 1.4-.8-.6-.3-2 1.2-3.1 1.3.6m18.6 69.7c-.6 3-1.8 5.2-2.9 5.2-.5 0-.2-.9.7-1.9q1.9-2 .5-2.3-1.2-.5-.6-2.2c.8-2.1 2.8-1.1 2.3 1.2m-5.6-1.4q0 .6-1 1.1-.9.4-1-.4.1-1 1-1.1 1 0 1 .4m4.4 33.7q-.6.8-1.5.3t-.3-1.5q.6-.8 1.5-.3t.3 1.5m2 2.1c-.8 1.8-6.4 6.2-6.4 5 0-.9 5.6-6.2 6.5-6.2q.4.1-.1 1.2m-19.1-235c-.6.7-1.5 2.8-2.1 4.6-1 3.1-1 3.4.8 3.9q1.8.6 2 2.5c0 3.4 4.1 1.8 5.8-2.1 1.2-3.1 1.2-3.3-.2-2.2-.8.7-1.8 2.1-2.1 3.2q-.7 1.8-1.6 1.4c-.5-.4-.3-1.9.6-3.5s1.5-3.7 1.5-4.6c0-1.4-.2-1.5-1.7-.3q-2 2.1-1.1-1.4c.6-2.9-.3-3.5-1.9-1.5m29.4 2.5c-2.4 3.4-2.5 3.9-1.2 6a9 9 0 0 1 1.5 3.7c0 1.9 2.7 2.8 5 1.6q1.8-1.1 2.4.5c1.3 3.4 5.6-1.9 5.6-6.9 0-1.3-.7-2.9-1.5-3.6a5 5 0 0 1-1.5-3.1c0-1.5-.8-1.9-3.8-1.9-3.3 0-4.3.5-6.5 3.7m7.3 5.7q-.1.4-1.5 1.6-1.8 1.7-.9-.4c.5-1.4 2.4-2.3 2.4-1.2m-28.4 2.8c-.9 2.1-1.6 5.2-1.6 7l.1 3.3 2.5-4.9c2-3.8 2.4-5.4 1.6-7-.9-2-1.1-1.9-2.6 1.6m-26.4 2.6c-.7.2-2.2 2.2-3.3 4.3-1.7 3.4-1.8 4-.4 4.5.8.3 1.5 1.4 1.5 2.4 0 2.1 3.4 3.2 4.9 1.7 1.3-1.3 4.1 2 3.4 4q-.4 1.2.5 1.3c.8 0 4.2-6.9 4.2-8.5 0-.3-1.3-.5-2.9-.5q-3 0-3.6-2c-.5-1.6-1-1.8-2.5-1q-4 2.3-2-1.1c.9-1.6 1.7-1.9 4.3-1.4 1.8.4 3.9 1.3 4.8 2.1q3 2.7 2.9 0c0-2.4-8.9-6.8-11.8-5.8m71.9 5.2c-3.3 2.8-3.8 6-.8 6 .7 0 1.7 1.5 2.2 3.2q1 3.5 2.8 3 2.1-.6 1.2 1.7-1.2 3.2 2.9 1.5c1.6-.6 2.2-3.5.9-4.7-1-1.1-1.2-5.6-.2-6.2q.8-.8.9-3.1.1-2.5-2-2.4-1.8-.1-2-1c0-1.8-2.4-1-5.9 2m-15.7 9.9c-3.9 2.3-5.9 5-2.4 3.1q4.1-2.2 2.1 1.8-2.2 4 .3 2.9 1.4-.5 2.1 1.4c.9 2.7 4 4.2 6.4 3 2.7-1.5 3.6-5.9 1.6-8-.8-1-1.5-2.3-1.5-2.9 0-1.1-3.1-3.2-4.7-3.2-.4 0-2.2.9-3.9 1.9"/><path d="M366 545.4c-1.5 1.5-1.2 3.6.4 3.6 1.3 0 1.3.4 0 2.7-.7 1.6-1.4 3.8-1.4 5 0 5.3 9.3 5.1 12-.3.8-1.6 1.8-3.1 2.3-3.2q2.2-1-2.4-5.4c-3.2-3.2-8.8-4.5-10.9-2.4m4 10.1c0 1.4-.4 2.5-1 2.5-1.1 0-1.4-3.3-.3-4.3 1.1-1.1 1.3-.8 1.3 1.8m-25.2-4.3c-2.1 3.2-3.1 6.8-1.9 6.8.5 0 1.3-.9 1.6-2q.6-1.8 1.5-2 .9.2-.1 2.7-1 2.7.2 3.4 1 .8.5 1.8c-.7 1 3.4 3.3 5.2 2.9q.8-.1 2.5.7c2.3 1 2.7.5 3.3-4.1l.5-3.9-2.3 2.7c-2.7 3.2-4.3 3.7-2.8.9s1.2-4.4-.5-3.7q-1.5.5 1-2.8l2.6-3.4-3.6-.6c-2-.4-4.2-.9-4.9-1.2s-2 .5-2.8 1.8m58.8 12.7q-.6 1.2-.2 1.8c.9.9 1.9-.4 1.4-1.8q-.4-1.6-1.2 0m9.5 6c-2 1.6-2.4 2.6-2.3 6.7.3 7.4 3.2 9.2 11 6.8 2.2-.6 1.4-5.4-1-6.3-2.3-.9-2.3-.9.5-2.1 3.2-1.5 3.3-2.2 1-4.2-3-2.6-6.6-2.9-9.2-.9m-103.4.8c-.3.5-.8 4.5-1.1 9.1-.6 6.8-.5 8.8.8 10.8 2.7 4.1 5.2 3.1 4.6-1.9-.1-1.5.4-1.7 2.7-1.1 1.5.4 3 1 3.3 1.5 1.1 1.6 5.7-3.7 6.3-7.3.7-4.5-.7-6.5-5.8-8.2-4.4-1.6-5.5-1.3-5.5 1.2q-.2 1.2-1.5-1.6c-1.3-3.1-2.9-4.1-3.8-2.5m8.2 9.5c0 1.3-.4 3.2-.8 4.2-1 2.7-2.1-.1-1.4-3.7.6-3.3 2.3-3.6 2.2-.5m46.4-7c-1.1 1.3-1.4 3-1.1 6.3.4 3.4.1 5.1-1.3 6.8a54 54 0 0 0-4.3 8c-2.2 5.1-3 5.9-8.6 8.7-5.4 2.7-7 3.1-12.4 2.8-3.4-.2-6.7-.7-7.3-1.1-.7-.4-2.2-3.5-3.4-6.8-2.4-6.6-4.2-8.1-6.6-5.6-1.4 1.4-1.4 2.1.7 7.2 3 7.4 5.6 10.5 8.6 10.5 4.4 0 11.4 2.2 11.4 3.5q.1 1.2 1.3 1.8 1.5.3 0 2.6c-1.4 2.3-1.8 7.1-.5 7.1 2.2-.1 6.4-6 4.2-6q-1-.2-1-2c0-1.8.5-2 1-2q1 0 1 1.2.1.9 1.5-.8c.8-1 1.5-2.9 1.5-4 0-2.5 2.4-4.9 4-3.9q2.3 1.5-.9 4.3c-3.3 2.8-6.6 15.2-4.1 15.2.6 0 1-.9 1-1.9 0-1.1.5-2.3 1-2.6q1-.3 1 1.3c0 1.1.6 2.5 1.4 3.1 1.2 1 1.6.6 2.4-2.1.4-1.8.7-5.2.4-7.6-.5-4.7.2-5.1 3.3-2.2 1.9 1.8 2.4 1.8 6 .6 5.6-2 7.4-8.2 3.5-12.3-1.6-1.8-1.7-2.2-.5-2.7q3.4-1.2-1.5-3.4l-3-1.4 1.6-3.6c2.1-5.2 3.8-6.6 7.9-6.5 3.2.1 3.8-.3 5.6-3.8 1.6-3.3 1.7-3.9.4-3.9q-1.4-.1-1.5-1.3c-.1-.6-.8-2.1-1.8-3.3-2.2-2.6-8.6-2.7-10.9-.2m5.8 6.1q-1.1 1.2-1.1-1.4c0-3.3 1.4-4.7 1.8-1.9.2 1.2-.1 2.7-.7 3.3"/><path d="M334.5 576c-.2.4.2 1.9 1 3.4.8 1.4 1.2 3.3.9 4q-.3 1.3 1 1.9 1.5.8 1.6 2.3 0 1.5.7 1.1c.3-.4 1.2-.2 1.8.3 2.1 1.7 7.5-2 7.5-5-.1-3.2-3.1-6.9-6.2-7.4-1.2-.3-2.3-.5-2.3-.7 0-.5-5.7-.4-6 .1m65.1 9.4c-2.1 4.4-2.2 14.9-.1 16.6 1.6 1.3 4.5.7 4.5-1 0-.6-.9-1.8-1.9-2.7-1.6-1.3-1.8-2.1-.9-3.6.5-1.1.8-3 .5-4.3-.3-2 0-2.4 2-2.4q2.3 0 3.2 2.2c.8 2 1 2.1 1.6.6.8-1.9-3.9-8.8-6-8.8-.7 0-2 1.5-2.9 3.4"/><path d="M403.5 596q-.4.9.4 1 1-.1 1.1-1 0-1-.4-1t-1.1 1m-100.3 3.2c-2.1 2.1-1.9 3.3 3.3 25.3 2.3 9.7 9.1 30 11.6 34.7.7 1.2.3 2.9-1.3 6-2 3.8-2.3 4-2.6 2a8 8 0 0 1 1.3-4.8c.9-1.4 1.5-2.8 1.2-3-.6-.7-5.7 8.1-5.7 9.8a7 7 0 0 0 1.6 3.3c1.8 2.3 2.7 1.4 4.6-4.8.6-2 1.5-3.7 1.9-3.7 1.4 0 1.5 3.5.2 6q-2.7 5.4.7 6.3 2 .5 2-.9.1-1.3 1.4-1.4 1.4 0 .9 2-.4 1.9.7 2 1.2 0 .8-3.4-.2-3.2.7-3.2c1.5.3 7.7 3.7 10.8 5.9q2.7 2.2 3.8 1 3.1-3.1-5.1-7.9c-3-1.8-7-4.9-8.7-7-4.8-5.5-12.1-21.5-11.1-24.4q.5-.9 3.2.5c4.7 2.4 7.2 1.9 8.5-1.6 1.4-4.1 1.4-9.2 0-10.6-.6-.6-1.5-2.9-2-5.1a92 92 0 0 0-5.4-13.6c-3.5-7.3-5.1-9.6-6.6-9.6q-1.9.1-2.9 2.5c-1.2 3.2-3 3.2-3 .1 0-1.3-.7-2.7-1.6-3-2-.8-1.8-.8-3.2.6m3.3 3.5-.4 3.6q-.2.7-1.1.2c-1.1-.7-1.4-4.8-.3-5.8q2.2-2 1.8 2m3.5 4.3q0 .9-1 1a1 1 0 0 1-1-1q.1-1 1-1t1 1m2.9.2q-.5 3.8 1.4 3.8c1.3 0 5.7 7.9 5.7 10.3 0 1.3-6.8 7.2-7.5 6.5-.3-.2-1.2-3.3-2.1-6.7-1.2-4.9-1.3-7-.5-8.8a13 13 0 0 0 1.1-4.3q.1-1.8 1-2 1 .2.9 1.2m9.4 24.4c-.7 1.8-2.8 1.3-2.8-.7q-.2-1.3-1.3-1.2c-1.6.4-1.5-1 .1-2.6 1-1 1.5-.8 2.9.9.9 1.2 1.4 2.8 1.1 3.6m86-25.9c-2.4.5-2.6 1.2-2.3 7.8.2 5.7.7 7.1 3.4 8.3 3.2 1.5 5.4-.2 7.6-5.9 1.9-5.2 1.2-8.1-2.6-9.8-1.4-.6-2.8-1-3.2-1zm4.6 3.6q1.2 1.4-.1 2.5-2.8 2.8-2.8-1.3c0-4.1 1.2-3.2 2.9-1.2m-15.7 16c-3 2-3.2 2.5-2.7 6.2l.7 5.7c.3 2.4 3.9 2.3 6.7-.1 2.9-2.5 2.7-9.8-.1-9.3-2.2.4-2.4-1.4-.2-2.2q1.3-.6.9-1.6c-.8-1.3-1.4-1.2-5.3 1.3"/><path d="M331 632.5c-.7.8-1 2.2-.6 3 .7 2 15.4 11.5 17.7 11.5 2.7 0 2.4-3.7-.3-5.1-1.3-.7-4.8-3.1-7.8-5.3-7.6-5.7-7.6-5.8-9-4.1m71.2 5.7c-1.9 1.9-1.4 3 .8 1.8q1.8-1 2-2c0-1.4-1.4-1.2-2.8.2m-62.5 11.5c-.4.3-.7 2.8-.7 5.5 0 3.5.6 5.4 2 6.8 3.5 3.5 4.7 2.5 6-4.6 1.1-5.5 1-6.8-.1-7.5-1.7-1-6.3-1.2-7.2-.2m3.3 8.5q0 1.6-1 1.8c-.5 0-1-1.5-1-3.3q0-3.5 1-1.7c.5.8 1 2.3 1 3.2m6-3.3c0 2.1.6 5.1 1.4 6.6l1.4 2.7 1.2-2.2c1.3-2.5.5-9.1-1.3-10.2-2.2-1.4-2.7-.8-2.7 3.1m45.2 9.4q-4.2 4.3 0 2.9c2.2-.5 2.2-.4-.5 2.7a14 14 0 0 0-2.7 4.1c0 2.8 11.8 5 12.7 2.2q.3-1.1-1.6-1.2-3.5-.1-1.1-2.6c1.1-1.1.2-5.4-1.1-5.4q-.8-.1-.9-1.4a4 4 0 0 0-1.3-2.5c-1.1-.8-1.9-.5-3.5 1.2m-27.2 4.6c-.5 1.1-1 2.8-.9 3.8q0 1.6.6.5c.9-2.3 2.3-1.2 1.7 1.3q-.7 2.6.9 2.5 1.4.2 2.1 2.2l.5 2.3 2.2-2.2c1.9-1.8 2-2.5 1.1-5.3-1.1-2.9-4.7-6.9-6.4-7q-.7.2-1.8 1.9m-8.4.7c-.9 2.4-.7 6.2.4 6.9.6.3 1 1.3 1 2.1 0 1.3 3.4 5.4 4.5 5.4s.4-2.9-1.1-4.1c-1.6-1.3-1.6-6 .1-10.2q1-1.8-1.8-1.7c-1.4 0-2.8.7-3.1 1.6m49.8 15.1q-.7 3.1-1.1 1-.9-3.6-3.7.8c-2.1 3.2-2 7.1.2 9.3.9.9 1.6 2.5 1.4 3.4q-.4 1.6 2.7 2.3c4 .9 5.1 0 5.1-3.8 0-1.8.7-4.2 1.5-5.4 1.7-2.4 1.2-4.7-1.8-8.1-2.6-2.9-3.3-2.8-4.3.5m-68.4-.9c-2.4.7-5 3.4-5 5.1 0 2.3 4.2 8.8 4.7 7.3.6-1.7 2.3-1.5 2.3.3q.2 1.4 2.2 2.6 2.4 1.4 1.5-.3-.7-1.6 2.4-1.5c3.8 0 4.7-.9 5.5-6.1.8-5-.9-5.7-2.5-1-1.5 4.2-2.5 2.9-1.3-1.6.6-2 .7-3.6.4-3.6l-4.7-.9c-2.2-.4-4.7-.5-5.5-.3m7.8 5q.2 2-.7 2.2c-.9.2-1.1-.4-1.1-.9s-.3-1.7-.7-2.7q-.6-1.7.8-1.2c.8.2 1.5 1.4 1.7 2.6m-31.8 2.1c-3 4.3-2.4 7.4 2.3 12.3.9 1 1.7 2.3 1.7 2.8s1.1.3 2.4-.5q2.5-1.7 3.1-.5c.6 1.2 1.1.8 2.1-.1 1.5-1.2 2-7.9.5-7.9q-.6-.2-.4-2.3c.5-2.8-2-5.2-6.4-6-2.7-.5-3.5-.2-5.3 2.2m11.5 9.1q.4.9-.4 1-1-.1-1.1-1 0-1 .4-1t1.1 1m39.1-1.3c-.7.8-1.2.9-5.3 1.1-1.9.2-2.2.6-1.7 3.1.3 1.6.2 3.1-.4 3.5-1.3.8-.2 5.6 1.3 5.6a2 2 0 0 1 1.7 1.2q.3 1.4 2.9-.4c2.3-1.5 2.6-1.5 3.6 0s1.2 1.4 2.2-1.1c.6-1.5 1.7-2.7 2.6-2.7q1.4-.1 1.5-1.5c0-2.3-4.7-1.9-5.5.5-.6 1.9-.6 1.9-2.7 0-2-1.8-2.2-1.8-3.4-.2q-2.7 3.4-1.2-2.6 1-3.4 2.3-2.8 1.4.4 2.1-.5c.3-.5 1.5-.7 2.7-.3 2.2.7 2.2.6.3-1.5-2.2-2.4-2-2.3-3-1.4m-25.4 18.5a5 5 0 0 0-1.2 3c0 2 2.6 2.5 3.3.5q.5-.8.6 1.7c.1 1.6-.6 3.4-1.4 4-1.2.9-1.3 1.5-.2 3.6 1.6 3.2 5.3 3.6 9.5 1 2.6-1.6 3.2-2.6 3.2-5.4 0-1.9-.6-3.9-1.4-4.3s-1.5-1.7-1.7-2.8c-.3-1.6-1.3-2.1-4.9-2.3-2.6-.2-5 .2-5.8 1m-18.5 10.1c-.6 1.5 1 3.7 2.6 3.7 1.2 0 .4-4.3-.9-4.7q-1-.2-1.7 1m31.3 18.4c0 .5 1.5 2.4 3.4 4.2 3.9 3.8 6.1 2.5 2.9-1.7-1.9-2.6-6.3-4.3-6.3-2.5m13.2 6.4q.5 1.2 1.7 1.7 1.3.4.9-.9-.5-1.2-1.7-1.7-1.3-.4-.9.9m35.2 4.6c-2.7 1.3-3.1 2-3 5.7.2 5.3 2.2 9.2 4.1 7.6q1.3-1.2 2 0c.8 1.3 4.5 1.3 4.5 0q-.2-1-1.7-1c-1.4 0-1.3-.3.5-2.3 2.6-2.8 2.8-4.9.6-8.2s-3.3-3.5-7-1.8m-20.9 16.6c-2 1.5-2.9 6.3-1.4 7.2q.8.8.9 2.7c0 1.1.8 2.2 2 2.5s2 1.2 2 1.9c0 1.8.3 1.8 5-.6 4.6-2.4 4.9-3.9 1.5-7.6-1.4-1.5-2.5-3.3-2.5-4 0-1.3-3-3.4-4.7-3.4a8 8 0 0 0-2.8 1.3m10.5 9.2q0 1.3-.7 1.5l-3.3.6-2.5.6 2.5-2.1c3-2.5 4-2.6 4-.6m7.8 5.2c-2.1 2.5-2.9 5.1-1.7 5.9q1 .6 0 1.8c-1.2 1.4 1.4 4.3 5.6 6.5 2 1 2.1.9 1.8-2.1-.3-1.7 0-3.7.5-4.4 1.5-1.8.9-7.6-.8-6.9q-1.2.3-1.8-1-1-3-3.6.2M72 413.7q-4.7 1.6-2.9 4.4c1.2 2.4 2 2.4 5.3-.2 2.1-1.7 2.4-2.4 1.5-3.5-1.2-1.5-1.6-1.6-3.9-.7m62 12.1c0 1.9 1.2 4.2 2.2 4.2 1.4 0 .5-4.3-.9-4.8q-1.2-.2-1.3.6m-17.9 16.6q-1 1.4-.3 2 1 .4 2.1-.8 1-1.4.3-2-1-.3-2.1.8M334 414.7c-1.9.7-6 4.4-6 5.5q.1.7 1.6.8t1.1 1.4c-.7 1.7 2.8 5.2 3.7 3.8.3-.6.3-1.8-.1-2.7-.6-1.6-.4-1.6 2 0 2.5 1.6 2.7 1.6 2.7 0 0-.9-.5-2.5-1-3.6q-1-2 0-1.9.9 0 1 .8c0 .4 1 1.3 2.1 2.1 3 1.8 4.2-.4 2.3-4.1-1.2-2.2-2.1-2.8-4.7-2.7a18 18 0 0 0-4.7.6m-200.6 78.7c-1 2.6 0 5.1 2.1 5.1 1.6 0 2-.7 2-3 0-3.3-3-4.9-4.1-2.1m-8.4 7.1c-1.1 1.3-.9 2 1 4 1.3 1.4 2.8 2.5 3.4 2.5.5 0 1.9.9 3.1 2 2 1.9 2.3 1.9 3.6.4 1.2-1.4 1-1.9-1.6-4l-4.6-3.7c-2.9-2.5-3.7-2.7-4.9-1.2m-19.3 4.2q-2.2 1.8 2.6 3.1l5 1.7q1.8.8 1.7-1.2c0-2.9-7.3-5.7-9.3-3.6m-18.4 8c-2.1.8-1.5 3.3 1 4.2 2.6 1.1 5.3-.9 4.4-3.3-.6-1.6-2.9-2-5.4-.9m20.2 1.2c-.6 1.1 3.5 4.2 4.7 3.5 1.4-.9.9-3.1-.8-3.8-2.2-.8-3.2-.8-3.9.3m217.1-28.4q-1.7 1.8-1.1 4.4c.8 3.3 3 5.6 4.4 4.7 1.5-1 1.4-6.8-.2-9-1.3-1.7-1.4-1.7-3.1-.1m-153.9 23.1c-.4.4-.7 3.8-.7 7.5 0 6.9 1.5 9.4 4 6.4 1.7-2.1.9-13.9-1-14.3q-1.5-.2-2.3.4m-158.1 0c-1.2 3-2.5 25.5-3.2 53.9-.5 24.8-.4 28.2.9 29.4q1.5 1.1 2.5.7c.4-.2.9-10.1 1-21.8.2-21.8.6-30.8 2.2-50.7.5-6.3.7-11.8.4-12.2-.9-1.5-3.1-1-3.8.7m-1.8 98.6c-1.2 9.4-1.1 48.3.2 58.1.7 4.5 1.3 22.3 1.4 39.5.2 25.6.5 31.5 1.6 32.2 1.5.9 4.3-.7 3.5-2-.2-.4-.7-9.2-.9-19.6s-1-28.8-1.6-40.9c-1-22.2-2-53.5-2-63.3 0-2.8-.4-5.2-1-5.2q-.9.2-1.2 1.2m24.6-96.7c-.7 1.8 1.3 4.5 3.3 4.5s2.8-2.7 1.3-4.5c-1.6-1.9-3.9-1.9-4.6 0M314 523.7a18 18 0 0 0 4 4.7c3.2 3.1 4.3 3.7 5.3 2.7s.4-2-2.8-4.7c-3.8-3.2-6.5-4.3-6.5-2.7m-15.5 5.3c-.8 1.3 2.5 1.3 4.5 0q1.9-1.1-1.2-1c-1.5 0-3 .4-3.3 1m11.8 5.3q-7.2 5.6-1.7 4.3c3.4-.9 8.4-4.6 8.4-6.3q0-3.1-6.7 2m-33.7 3.6q-.5.9.3 1.5t1.5-.3q.5-.9-.3-1.5t-1.5.3m-7.9 5.6c-2.1 1.9-4.4 5-5.2 7-1.8 4.3-1.9 9.9-.2 11.3 1.9 1.6 13.7 1.7 18 .1 4.6-1.6 4.9-3.3.5-2.3-5.3 1.2-13.6 1-14.9-.3-1.8-1.8-.6-2.5 2.2-1.5 3.3 1.2 9 .4 11.8-1.7 2.3-1.8 2.3-1.9.8-5-1.3-2.5-1.4-3.7-.5-5.7.6-1.3.8-2.7.5-3.1-1.3-1.2-5.7 1.6-5.7 3.7q0 3.5-2.8.8c-.9-.9-1.9-.5-4.3 2.2q-2.7 3-2.3 2a41 41 0 0 1 6.9-9.2q2.3-1.8.5-1.8c-.8 0-3.2 1.6-5.3 3.5m10.8 9.5a2 2 0 0 1-1.2 1.7q-1.2.3-1.3-1.7 0-2 1.3-1.8 1 .6 1.2 1.8m-8 0c1.1 1.7-.5 3.2-2.1 1.9q-1.1-1-.8-2c.7-1.2 2.1-1.1 2.9.1m42-10c-.8 1.3.3 3 2.1 3s1.8-1.4 0-2.9q-1.4-1.2-2.1-.1M271 566.9c0 1.1 2.1 1.9 3.8 1.4 2.1-.8 1.3-2.3-1.3-2.3-1.4 0-2.5.4-2.5.9m-31 49q-1 2 0 2.6c1.3.8 3-.3 3-2 0-2.3-1.8-2.7-3-.6m8.5 8.1q-.5.9.4 1 1-.1 1.6-1 .5-1-.4-1a2 2 0 0 0-1.6 1m-6.5 4q.1.9 1 1 1-.1 1-1t-1-1a1 1 0 0 0-1 1m6 2q.1.9 1 1 1-.1 1-1t-1-1a1 1 0 0 0-1 1m-5.6 3.1c-.3.6-.1 1.6.5 2.2s1.1 2.1 1.1 3.4c0 2.4 1.4 3.1 2.5 1.3.7-1.2-1.5-8-2.6-8q-.7.1-1.5 1.1m4.1 11.1c-.8 2.1 0 4.8 1.4 4.8 1.6 0 2-2.8.6-4.7-1.3-1.7-1.4-1.7-2-.1m40 75.8q-.5 1 0 2c.8 1.3 3.5.1 3.5-1.6 0-1.6-2.6-1.9-3.5-.4m1 7q-.5 1 0 2c.8 1.3 3.5.1 3.5-1.6 0-1.6-2.6-1.9-3.5-.4m0 5c-.3.5-.3 1.5 0 2 .7 1.2 4.5-.5 4.5-2 0-1.3-3.7-1.3-4.5 0m15 100.4c-1.7 1.2-1.7 1.6-.5 2 2.1.8 11-.7 11.3-1.9.3-1.7-8.6-1.8-10.8-.1M38 724q.1.9 1 1 1-.1 1-1t-1-1a1 1 0 0 0-1 1m122.5-39.4c-2.9 2.4-2.9 2.5-1.1 3.9 1.1.8 3 1.5 4.2 1.5 2.7 0 7.4-2 7.4-3.1a23 23 0 0 0-7.1-4.9zm39.3 6.5c-2.7 1.5-2.1 3.6 1.3 4.8 4.6 1.6 6.3 1.4 8.5-1 1.6-1.7 1.6-2.2.4-2.9-2.3-1.5-4-1.2-4 .6q-.2 1.4-1.2 1.1a2 2 0 0 1-1.3-1.7c0-1.8-1.6-2.2-3.7-.9m129.8 103.7c-1 1.6.6 2.1 8.6 3.2 11.1 1.4 15.8 1.3 15.8-.5q0-1.5-3.2-1.7c-4.3-.2-7-.4-14.4-1.3q-6.1-.7-6.8.3M58.9 51.1c-1.2.8-1.1 1.2.3 2.2.9.7 1.6 2.2 1.5 3.3-.3 2.7 2.7 2.4 3.1-.4.3-2 .8-2.2 4.8-1.8 4.6.3 9.5-1.7 6.4-2.8s-14.8-1.3-16.1-.5M6 75.6c-.6 1.4-1 4.1-1 5.9 0 3.2.3 3.5 4.3 4.6 2.3.7 7.6 1.5 11.7 1.8 7.4.6 7.5.6 7.6 3.4.1 2.9 2.3 5.2 3.6 3.9.3-.4.8-2 1-3.7.3-2.8.5-3 4.3-2.7 4.4.3 7.1-1 6.1-2.7-.5-.7-5.4-1.1-13.9-1.2-7.4 0-14.7-.5-16.7-1.2-3.3-1.1-3.5-1.5-3.8-6-.3-5.2-1.7-6.1-3.2-2.1m490.5.4c-.8 1.4.3 3 2.1 3q1.3-.2 1.4-2c0-2.1-2.4-2.8-3.5-1m-15.5.7a14 14 0 0 0-5 2.3c-2 1.5-2.3 2.1-1.2 3.1.6.7 1.2 2.6 1.2 4.1 0 4 2.5 3.6 5.4-1 1.3-2.1 3.6-4.6 5-5.6 4.4-2.8 2.1-4.1-5.4-2.9m-3 32.3q-1 2-4.6 2c-3.2 0-5.6 2.1-4.1 3.6.2.3 4.1.5 8.5.6 7.3.1 8.1.3 9.3 2.5 1.8 3.3 4.5 3 5.3-.7.5-2.7 1-3 4.1-3s3.5-.3 3.5-2.6-.3-2.5-2.2-2c-1.3.4-5.3.9-8.9 1.3-6.1.5-6.6.4-7.2-1.6-.7-2.6-2.3-2.7-3.7-.1m-75.7 140.7c-2.2.8-1.4 2 3.5 5.2 30.1 19.2 69.6 63.6 90.4 101.6 4.5 8.4 5.1 5.9 1-4.1a231 231 0 0 0-28-43.4c-13.3-15.7-36.8-40.1-41-42.4a231 231 0 0 1-12-9.3c-10-8-11.3-8.7-13.9-7.6m-13.9 6.4a102 102 0 0 0-8.4 4.9c-1.4 1-4.5 2.8-7 4-9.4 4.7-34 24.2-45.1 35.7-8 8.3-16.5 19.3-21.5 27.6a88 88 0 0 1-6.6 9.5 14 14 0 0 0-2.8 4.3 21 21 0 0 1-2.8 5.2 71 71 0 0 0-5.1 9.5 77 77 0 0 1-5.1 9.9 20 20 0 0 0-3 6.2c0 .9-2.4 6.4-5.4 12.2-2.9 5.8-6.7 15-8.5 20.5l-4.3 12.9c-.5 1.6-1.4 5.2-1.8 8s-1.5 7.7-2.3 11c-3.4 13.2-5.3 31-3.5 32.1 2.1 1.3 3.8-2 3.8-7.4a96 96 0 0 1 3.6-23.2c.9-3 2-8 2.5-11a177 177 0 0 1 16.9-45.9c1.5-2.6 3.1-5.9 3.5-7.2a256 256 0 0 1 19.1-35.9c14.1-21.2 19.4-28 29.9-38.3a215 215 0 0 1 48-36.1c1.7-1.2 5.6-3.7 8.8-5.5 3.1-1.8 5.7-3.9 5.7-4.7 0-2.1-2.1-1.7-8.6 1.7"/><path d="M333.4 276.4c-3.9 1.7-20.8 6.2-34.4 9.1l-18 3.9c-5.7 1.3-13.1 1.7-31.5 1.8-13.2.1-26-.1-28.5-.4-12.6-1.5-15.9-2-21-3.3l-12-2.9-19.5-5a91 91 0 0 0-13.7-3c-1.4.9-.8 3 1.3 5 2 1.8 20.7 24.6 28.9 35.3 2 2.5 5.2 7.3 7.2 10.6a1658 1658 0 0 1 23.3 42.5l6.6 13.2a141 141 0 0 1 6.8 15.2l5.1 12.1c1.7 4.4 4.5 10.7 6 14 1.6 3.3 3.6 9.1 4.5 13a41 41 0 0 0 2.7 8.3c1.8 2.1 3.5-.4 4.2-6.1.7-4.9 2.2-10.7 6.1-23.7.9-3 3.7-9.6 6.2-14.5l9.6-19a614 614 0 0 1 25.7-49.1c0-.5 6.4-10.6 13.3-20.9 5.5-8.2 14.4-18.6 23.5-27.2q7.7-7.2 6.9-8.7c-.8-1.9-5-2-9.3-.2m-2.4 6.4c0 .5-3.9 4.8-8.6 9.8-12.1 12.4-18.7 22.3-34.4 50.9-23.3 42.5-36.9 73.5-38.5 87.2-.7 6-2.5 8.9-2.5 4 0-8-21.2-56.8-35-80.7l-5.5-10.2c-9.9-19.1-15.3-27-31.9-47.2a109 109 0 0 1-10.1-13.4c.3-.3 2.2 0 4.2.6 28 8.4 44.4 10.9 72.3 11.3 18.2.2 42.8-1 45.2-2.2.9-.5 5.2-1.4 9.5-2s13-2.5 19.3-4.4l15.8-4.4q.2 0 .2.7"/><path d="M301 294.6a43 43 0 0 1-10.1 2.3c-2 .1-4.6.9-5.7 1.8-2.3 1.9-6.5 12.1-5.6 13.5.7 1.1 3.8 1 5-.2.9-.9 7.9.2 9.2 1.4.3.4-1.8 3.1-4.8 6.1-5 5-5.8 5.5-9.5 5.2l-4-.2-.3 6c-.3 4.8-.8 6.5-2.9 8.7-1.8 1.9-2.3 3.2-1.8 4.7.8 2.6-3.5 10.4-7 12.7-2.7 1.7-7.4 1.2-11.2-1.2-4.7-2.9-4.1 1.7 1.3 10.7 4.3 7.1 5.2 11 2.9 12.9-.9.7-2.2 2.8-3 4.7-1.7 4-3.5 4.3-3.5.5q0-2.7-3-5.4-5.2-4.4-1.4-13.3c.8-2 1.4-5.1 1.2-6.9-.3-3.3-1.1-3.5-8.6-2-6.5 1.3-11.1-5.7-8.4-12.9 1-2.7.9-3.2-1.4-4.9-3-2.4-5.5-8.1-5.2-11.7.3-2.4-.1-2.6-4.2-3.1-2.5-.3-6-1.5-7.7-2.8-2.9-2.1-5.3-2.8-5.3-1.7a166 166 0 0 1 10.2 18.8 162 162 0 0 0 8.2 15 795 795 0 0 1 17.6 31.2c1.5 2.7 3.3 6.7 4 8.8.6 2.1 1.9 4.1 2.8 4.4 1.7.7 5.2-3 5.2-5.4q0-2 9-22.3l4.1-9.8c.6-1.8 2.4-5 3.8-7a420 420 0 0 1 39.6-55.2c2-1.6 1.9-4.6-.1-5.4-1.9-.7-1.4-.8-9.4 2"/><path d="M187 293.8c0 .4 1.8 2.6 4.1 4.7 2.2 2.2 5.1 5.9 6.4 8.1 2.4 4.2 4.6 5.4 9.7 5.4 3.2 0 10.8 3.7 11.5 5.6.8 2.1 8.1 4 9.5 2.6q1.3-1.1-1.4-2.1c-4-1.5-6.6-5.7-7.3-11.6-.4-3-1.2-6.1-1.9-6.9-1.6-2.3-30.6-7.7-30.6-5.8m35.6 5.1c-.4.5 1.3 2.3 3.7 4q7.7 5.3 7.7 10.4c0 1.4.6 3 1.4 3.6 1.1.9 1.9.6 3.7-1.6 4.6-5.4 7.9-7.3 12.6-7.3q8 0 10.8 6.7c2.1 5 3.7 4.1 6.6-3.7.8-1.9 2.9-5.2 4.8-7.3s3.1-4 2.8-4.3-4-.1-8.2.5c-13.6 1.9-37.2 1.2-43.6-1.4q-1.7-.5-2.3.4m51.9 19.1q-2.9 5.9 2 3.8c2.9-1.3 3.9-3.6 2.4-5.4-1.7-2.1-2.7-1.7-4.4 1.6m-22.3 4.2c-1.6 1.6-1.5 5.3.1 6.5 1.3 1.1 9.7.5 9.7-.6 0-1-4-4.6-6.6-5.9q-2.1-1.2-3.2 0m-10.9 2.2q-5.8 3.8-.9 5.2c4.5 1.1 6.1.2 6.1-3.5 0-4.2-1-4.5-5.2-1.7m.3 10.6c-2.2.3-4.1 1-4.3 1.6-.6 1.7 6 8.3 9.1 9 2.7.6 2.9.5 2.3-1.7a23 23 0 0 1-.7-5.5c0-3.7-1-4.2-6.4-3.4m11.4 0q-1.4 1-1.6 5.5c-.1 3.7.2 4.5 1.7 4.5 3.1 0 7.9-4.9 7.9-8.1 0-2.6-.3-2.9-3.2-2.9-1.8 0-4 .5-4.8 1m232.8 412.5q-.6.7-.1 2.1.7 1.5-2.6 1.4c-1.7 0-3.1.4-3.1.9 0 1.7 12.9 2.8 17.8 1.4 3.3-.8.8-2.2-4.3-2.4-4.1-.1-3.7-.3 2.8-1.4 2-.3 3.7-.9 3.7-1.3a39 39 0 0 0-14.2-.7m-38.2 4.3c-1 1.7.6 2.1 9.8 2.3 5.4.1 9.2-.3 9.9-1 .8-.8-.7-1.1-6-1.1-3.9 0-8.4-.3-10.1-.6s-3.2-.1-3.6.4M5 756.3q-4.7 2.3-5 5.9c0 2.5.9 2.2 5.5-1.7 4.3-3.7 4-6.2-.5-4.2m449 6.6c0 .5 9.9.9 23 1 13.8 0 23-.4 23-1s-9.2-.9-23-.9c-13.2 0-23 .4-23 .9M189.5 765c-1 1.6-.6 1.8 4.5 2.2 3.5.2 4.5 0 4.5-1.2 0-1.8-7.9-2.7-9-1m-14 3.1c-1 1.5-.2 2 4.4 2.6q4.2.6 4.1-.6-.1-1-1.2-1.5c-4.1-1.3-6.8-1.5-7.3-.5m-112.4 1.3c-1 1.2-.5 2 2.7 4.1 3.6 2.4 4.4 2.5 8.1 1.5 3.1-.8 4.1-1.6 4.1-3.1 0-1.8-.4-2-4.3-1.4-3.3.5-4.6.3-5.6-.9q-2.7-3-5-.2m414.2-.2c1.5 1 23.3 1 22.3.1-.3-.4-5.8-.7-12-.7-6.3-.1-10.9.2-10.3.6M449 772c0 .5 1.7 1 3.8.9q4.3 0 1.7-.9c-2.8-1.2-5.5-1.2-5.5 0m-263.5 2.1c-.7 1 .1 1.1 14 3.3 16.1 2.4 18.9 2.6 20.5 1.7q3.8-2.3-6.7-2.7c-3.8-.2-8.6-.7-10.8-1.3-5.7-1.4-16.4-2.1-17-1M474 776q.2 1 13.3 1c7.9 0 12.6-.4 11.8-.9-2-1.3-25.1-1.4-25.1-.1m-304.3 2.6q-2 2.3 5.9 2.4c3 0 5.4-.5 5.4-1s-1.8-1-3.9-1c-2.2 0-4.6-.2-5.3-.5q-1.3-.5-2.1.1m286.9 2.3q-1 1.1 6.1 1.3c3.7 0 7.9.2 9.3.4a131 131 0 0 0 26.4.7c1.3-.7-2.3-1.2-12.6-1.6l-21.4-1.3q-7.2-.7-7.8.5m-260.4 1.3c.9 2.5 17.6 3.7 17.1 1.3-.2-.6-2.9-1.1-6-1.2-3.2-.1-7.1-.5-8.6-.8q-2.9-.5-2.5.7m13 6c.5 1.5 5.7 1.8 6.1.3.1-.6-1.3-1.1-3.2-1.3q-3.5-.5-2.9 1m281.3.7c1.1.5 3.8.5 6 .1 3.8-.7 3.6-.8-2-.8q-6-.1-4 .7M196 791q.1.9 1.1 1 .8-.1.4-1-.6-1-1.1-1-.3 0-.4 1m-16 1.1q.1.8 1 .4t1-1.1q0-.4-1-.4-.9.1-1 1.1m288.7.1c-.9.7-2 3.1-2.5 5.3-.7 3.6-1.2 4-4.3 4.5-7.3 1.2-7.2 4.3.2 5.5q7.1 1.3.6 4.5c-4.5 2.1-4.4 5.4.1 5.8s5.1 2.7 1.8 5.7c-3.1 2.8-3.7 8.5-1 8.5.9 0 2.2-.8 2.9-1.7 1-1.4 1.3-.8 1.9 4.1.4 3.2.5 8.4.1 11.5-.7 6.3.6 11.1 3 11.1 1.4 0 1.6-1.9 1.4-15.5-.1-8.6 0-15.8.3-16 .3-.3 4.8-.7 10.1-.9 10-.4 12.7-1.4 12.7-4.7 0-3-3.3-3.9-13.9-3.9-8.3 0-10.1-.3-10.1-1.5q-.1-1.6 3.8-1.5c2 0 5.5-.3 7.7-.7 3.6-.6 3.8-.7 1.5-1.4-1.4-.4-4.8-.4-7.6-.2q-5.2.5-5.9-.7c-1.3-2.2 1.7-3 11.3-3 5.4 0 9.2-.4 9.2-1s-4.2-1-10.6-1c-6.1 0-10.3-.4-9.9-.9.3-.5 2-.9 3.8-.9 5.9.1 8-.2 7.4-.9-.4-.3-3-.7-5.7-.8s-5.3-.5-5.6-.8c-1.4-1.4 1.1-2.7 5.1-2.7 5.8 0 9.1-3 6.3-5.8-1.6-1.6-12-1.5-14.1 0m9.3 1.8q-.1 1-1.5 1.6c-2 .8-4.8-.3-4-1.6s5.5-1.3 5.5 0m13 25.5c0 1.2-1.7 1.5-9.5 1.5-8.7 0-10.7-.5-8.8-2.3a36 36 0 0 1 9.5-.7c7.2 0 8.8.3 8.8 1.5m4-24.5q.2.9 1.9 1c1.1 0 2.3-.5 2.6-1q.4-1-1.9-1c-2.3 0-2.6.4-2.6 1m-295.5 7q-.4.9 1 1c1.4.1 1.3-.5 1-1q-.6-1-1-1t-1 1m-102 22q-.4.9.4 1 1-.1 1.1-1 0-1-.4-1-.6 0-1.1 1"/><path d="M476.1 827.1c-2 .8-2.1 1.2-1.1 2.5 1.6 1.9 5.4 1.4 5.8-.7s-1.7-2.9-4.7-1.8m-283.4 5.6c.9.7 2.3 1.3 3.1 1.3s2 .7 2.6 1.5c.8 1 3.3 1.4 8.6 1.5 10.5.2 11.2.1 10.5-1-.3-.6-3.1-1-6.1-1q-5.3 0-4.9-1c.3-.6 2.8-1 5.6-1s4.9-.5 4.9-1-4.8-.9-13-.8c-10.8.2-12.8.5-11.3 1.5m5.3 7.3q.1.9 1.5 1c1.4.1 1.5-.5 1.5-1q-.1-1-1.5-1c-1.4 0-1.5.4-1.5 1m10.4.9c-1.7 1.7 1 2.1 10.8 1.9q11-.3 11.5-1.5c.3-.8-2.7-1.1-10.7-1a97 97 0 0 0-11.6.6m-202.8 1c-3 1.2-.8 1.9 7.8 2.7 6.5.6 7.8.5 7.4-.7-.8-2.3-11-3.7-15.2-2m220.6 2.8c-8.7.5-6.8 2.3 2.4 2.3 5.6 0 7.5-.3 7.2-1.3-.5-1.4-1.1-1.5-9.6-1m56.7-.3c-.2.2-6 .7-12.8 1s-12.6.8-13 1.1c-1.6 1.7 3.4 1.9 18.6.9 19.2-1.4 17.3-1.1 17.3-2.4 0-.9-9.2-1.5-10.1-.6M5 849q0 2.2 1.8 1.8 1.5-.5 1.7-1.8c.2-1.3-.8-1.6-1.7-1.8q-1.9-.4-1.8 1.8m189.5 2q-.4.9.4 1 1-.1 1.1-1 0-1-.4-1-.6 0-1.1 1m42.1-.2c-.3.6 3.4 1.3 8.9 1.7 5.2.4 9.8 1.2 10.4 1.8q.9 1.2 12.3 1.1c14.8-.2 14.8-.2 14.8-1.4 0-.6-3.6-1-8.8-1q-8.7 0-10-1.2a86 86 0 0 0-27.6-1m-157.1 2.1c-.8 1.4 1 2.2 3 1.5q2-.6.3-1.5-2.4-1.7-3.3 0m19.5.1c0 1.2 5.7 1.2 8.5 0q2.4-.9-3.2-.9c-2.9-.1-5.3.3-5.3.9m194.5 1q-.4.9.4 1 1-.1 1.1-1 0-1-.4-1t-1.1 1M29 857q.2.9 2.3 1 2.6.1.7-1-3-2-3 0m2 4q-1.8 1 1.8 1 3.1 0 2.7-1c-.8-1.3-2.6-1.3-4.5 0m255 0q.1.9 1.1 1 .8-.1.4-1-.6-1-1.1-1-.4 0-.4 1m-268.2.7c1.2.2 3.2.2 4.5 0q1.6-.4-2.3-.4c-3.9 0-3.5.2-2.2.4m24 0c1.8.2 4.5.2 6 0s0-.4-3.3-.4-4.5.2-2.7.4m10 0q1.3.4 1.9-.1t-1.3-.5q-1.7 0-.6.6M136 864q.1.9 1 1 1-.1 1-1t-1-1a1 1 0 0 0-1 1m158.6 1.6q-.7 2.7.5 3.5c1.8 1.1-11.2 2.2-19.7 1.7q-7.7-.6-7.1.6a186 186 0 0 0 40.1-.4q1-1-1.3-2.9c-1.7-1.4-3.1-1.8-6.2-1.4-3.5.5-4 .3-3.7-1.2.5-2.9-1.9-2.8-2.6.1m-83.1-.6c-.5.8 7.9 2.4 10.1 1.9h3.4q2.6 0 1.2 1.3c-.7.7-7 1.3-17.9 1.6-20.1.6-18.3 2.2 2.5 2.3 12.2.1 13.5-.1 15.3-2 1-1.1 1.9-2.5 1.9-3.1 0-.5 2.3-1 5.3-1 2.8 0 5.9-.5 6.7-1q1.4-.9-13.3-.9a87 87 0 0 0-15.2.9m-188 1q-.4.9 1 1c1.4.1 1.3-.5 1-1q-.6-1-1-1t-1 1m341.7.1q.4 1 1.3 1 1.2 0 1.3-1t-1.3-1.1c-1.5-.1-1.5.5-1.3 1.1m-91.2 1q.1.8 1 .4t1-1.1q0-.4-1-.4-.9.1-1 1.1m-196.2 2q-1 .8-.8 1.2c.9.6 18-.5 18-1.2 0-1-15.6-1-17.2 0m22.2-.1q.1.9 1 1 1-.1 1-1t-1-1a1 1 0 0 0-1 1m50.9-.5c-.3.3-9.5.8-20.5 1.1s-20 .7-20.2.9c-1.4 1.3 7.5 1.7 23.7 1l20.6-.7c5 .1 15.5-1.1 15.5-1.8 0-.9-18.3-1.4-19.1-.5m-105.8 1.6c-12 1.1-11.4 2.2.9 1.5l13.2-.6c1.5-.1 3-.5 3.3-1q1-1.7-17.4.1m19.3-.4c1.1 1.2 9.4 1.4 10.1.3q.5-1-5.1-1c-3.2 0-5.4.3-5 .7m166.1.3q-1.4 2 6.5 2.2c4.5.1 7.1-.6 5.9-1.6-1-.8-11.9-1.4-12.4-.6m20.3-.3c-7.2.6-5.8 2.3 1.8 2.3 4.8 0 6.5-.3 6.2-1.3-.5-1.4-1.5-1.5-8-1"/></svg>