<svg xmlns="http://www.w3.org/2000/svg" width="666.7" height="1170.7" viewBox="0 0 500 878"><path d="M222.8 9.3q-3.5.9-1.7 1.8c.8.4 2.1.6 3 .4q1.6-.3 3.1 1.2c2.5 3 9.8 17 9.1 17.7-.4.3-3.9.6-7.9.6-6.5 0-9.8 1-7.7 2.3 1.3.8 61 1.8 63.8 1.1 5.8-1.5.9-3.9-7.2-3.5-6.4.3-7.3-1-7.3-10.7 0-8.3.9-9.4 7.1-8.7 4.3.6 8.1-.7 6.6-2.2-1.1-1-56.8-1-60.9 0m27.1 3.9c-.1 3.2-5.2 15.3-6.4 15.2a40 40 0 0 1-8.1-15.9c.4-1.1 2.3-1.5 7.6-1.5 6.6 0 7 .1 6.9 2.2m12.3 7.2c-.1 10.9-.3 11.2-6.2 11.2s-6.1-.3-2-9.4c6.3-13.7 8.2-14.2 8.2-1.8M59 40.2A73 73 0 0 0 32.3 52a72 72 0 0 0-14.4 21.2c-3 7.6-3.7 20.7-1.5 28.3a75 75 0 0 0 10.9 21.4 53.4 53.4 0 0 0 63.9 10.9 49.2 49.2 0 0 0-1.6-88.3c-8.2-4-24.5-6.8-30.6-5.3m21.8 6.3a46 46 0 0 1 30.9 35c1.4 5.8 1.5 8 .5 14.9a41 41 0 0 1-12.7 25.2 46 46 0 0 1-63.2 2.7C23 113.7 17.1 92.1 23 75.8a46.6 46.6 0 0 1 57.8-29.3"/><path d="M65.4 57.7c-.3 1-1.2 3-2 4.5-.8 1.4-1.4 3.2-1.4 3.9s-.8 2.9-1.7 5c-1.8 3.7-1.9 3.8-9.1 4.4-4 .4-9.5.4-12.3.1-3.8-.5-4.9-.4-4.9.7 0 .8 1.2 1.9 2.7 2.6s5.5 3.5 9 6.3l6.2 5.1-1.9 3.6c-5.1 9.3-9 19.5-8 20.5.7.7 4.7-1.5 13.1-7.3 10.7-7.3 12.3-8.1 13.9-6.9 1.1.7 6.2 4.6 11.4 8.6 11.9 9.2 14.3 8.6 9.2-2.2-3-6.4-6.1-13.6-6.9-15.8Q81.7 88 93.8 80q7.7-4.9 4-5.1l-2.3-.4c-.5-.1-5.1-.3-10.1-.3l-9.1-.2-2.8-7.8a55 55 0 0 0-3.8-9c-1.4-1.8-3.7-1.5-4.3.5m4.1 8.4c2.3 4.3 1.6 8.3-1.3 8.7-5.4.8-5.5.3-1.7-10.6.7-1.9 1.3-1.5 3 1.9m18.3 10.7c3.4.3 2.6 2.4-1.8 4.9-5 2.9-5.5 2.9-7-.6-1.9-4.6-1-5 8.8-4.3m-12.1 4.7c1.2 2.2 2.3 4.3 2.3 4.7s-2.5 2.6-5.6 5l-5.6 4.2-3.4-1.9c-7-3.8-7.7-6.4-3.4-13.3 2-3.2 2.2-3.3 7.7-3s5.8.4 8 4.3M56 79.7c-.1 1-.6 3.1-1.3 4.6l-1.2 2.9-4.8-3.7c-2.6-2-4.7-4-4.7-4.5s2.7-1 6-1c5.1 0 6 .3 6 1.7m3 13.5c3.6 2.6 3.8 5.3.8 6.9-1.3.7-3.9 2.4-5.8 3.9s-4.3 2.9-5.2 3.3c-1.4.5-1.6.2-.8-1.8 1.5-3.9 7-14.5 7.6-14.5.2 0 1.8 1 3.4 2.2m20.8-1a152 152 0 0 1 7.2 16.4c0 1.5-3.6-.2-7.5-3.6a43 43 0 0 0-6.6-5c-2.7-1.5-2.4-4.5.9-6.9s4.6-2.6 6-.9m163.7-50.1a49.7 49.7 0 0 0-41.3 53.4c.3 9.4.6 10.8 4.1 17.8A55 55 0 0 0 231 138l8.5 4.4 13 .1c11.3 0 13.7-.3 18.7-2.3a55 55 0 0 0 29.4-29.9c2.4-6 2.8-8 2.7-17.3 0-8.2-.5-11.9-2.2-17a51.5 51.5 0 0 0-57.6-33.9m24.8 5.8c7.7 2.7 7.8 2.8 16.1 11 13 12.7 17 26.1 13.2 43.3a47 47 0 0 1-33.5 35.3 46 46 0 0 1-55.4-31 48 48 0 0 1 3.1-36.8A51 51 0 0 1 243 46.4c7.1-1.6 18.1-.9 25.3 1.5"/><path d="M250.2 59.2c-.7.7-1.2 1.9-1.2 2.7s-1 4.5-2.2 8.3l-2.2 6.8h-5.3c-2.9 0-5.3.4-5.3 1s2 1 4.4 1 4.7.4 5 .9c.7 1.1-1.2 7.1-2.8 8.8-.8.9-2.1.5-5.6-1.8q-12-8-4.9-7.9c1 0 1.9-.5 1.9-1.1 0-1.3-11.3-.6-11.7.8-.2.5 1.8 2.2 4.4 3.7 7 4 13.4 8.6 14 10.2.2.7-1.7 6-4.2 11.8-3.9 8.7-4.5 10.9-3.5 12.1 1.8 2.2 2.8 1.9 8.4-2.8 2.8-2.3 6.4-5.2 8-6.2l4.2-3c.9-.6 3.5 1.1 9.4 6.4 7.9 7.2 11 8.4 11 4.4 0-1-1.4-6.2-3.1-11.5-3.8-11.6-4.3-10.6 8.7-19.4 4.7-3.2 8.3-6.2 8.1-6.8-.2-.7-5.3-1.3-13.2-1.6l-12.9-.5-2.7-7.6c-3.6-10.5-4.2-11.2-6.7-8.7m4.7 11.9c1.6 4.6 1.4 4.9-1.9 4.9-1.6 0-3-.4-3-.9 0-1.8 2.2-7.1 3-7.1.4 0 1.3 1.4 1.9 3.1m.8 7.9c1.7 0 2.5 1.1 3.8 5.4 2.1 6.8 1.8 8.2-2.7 11.8-4.1 3.4-5.5 3.2-10.7-1.1l-3.4-2.8 2.3-5.9c3.1-7.6 3.9-8.7 6.4-8 1.2.3 3.1.6 4.3.6m18.4 0c1.6 0 2.9.4 2.9.9 0 1.5-10.2 9.2-11.8 8.9s-4.5-7.6-3.7-9.7c.4-1 1.7-1.2 5.2-.7 2.5.3 5.9.6 7.4.6m-28 19.1c1.6 1.1 2.9 2.6 2.9 3.4s-2.3 3-5.2 5.2l-7 5.2c-2.5 1.9-2.4.2.6-6.2 1.3-2.9 2.6-6.2 3-7.5.9-2.7 2-2.8 5.7-.1m19.5 5.7c1.2 4 1.8 7.4 1.4 7.7-1.2.7-11.6-8.6-11.2-10s5.6-5.5 6.7-5.1a23 23 0 0 1 3.1 7.4m163.9-62.1a51 51 0 0 0-42.6 38.5 36 36 0 0 0 .2 22.8c6 21.9 22 36.4 44 39.9 6.7 1.1 21-.8 25.8-3.4 1.4-.8 4.4-2.2 6.6-3.1 9-4 20.8-19.9 24.4-32.9 2.3-8.4.7-22-3.6-31.4a64 64 0 0 0-15-19.5 52 52 0 0 0-39.8-10.9m25 7.3a48 48 0 0 1 27.9 45.5c0 7.9-.3 9.8-3 15.5a46 46 0 0 1-18.2 20.9c-13.6 8.2-26.1 10-38.6 5.6a51 51 0 0 1-31.3-34 54 54 0 0 1 4.3-31.7c3-6 14.4-17.3 20.9-20.6a59 59 0 0 1 38-1.2"/><path d="M435.6 57.5c-.8 1.9-2.3 6.3-3.2 9.7-.9 3.5-2.1 6.8-2.7 7.5q-1 1.2-13 1.5c-9.9.2-12.2.6-12.4 1.8-.2.9 3.5 4.4 8.6 8.5 5 3.8 9.2 7.7 9.4 8.6.3 1-1.1 6.1-2.9 11.5a52 52 0 0 0-3 11.1q.4 1.4 5.6-1.4c2.7-1.4 5-2.9 5-3.3s2-2.4 4.5-4.4c5.1-4.2 6.6-4.1 11.8.3 3.7 3.2 12.1 9.2 15.5 11 2.5 1.3 4.6.6 3.5-1.2a185 185 0 0 1-5-13.7l-4.2-12.5 2.2-2.3c1.2-1.3 4.4-3.8 7.2-5.6a58 58 0 0 0 7-5.6c3-3.3.5-4.1-11.1-3.6a52 52 0 0 1-11.3-.3 43 43 0 0 1-3.7-10.9c-2.2-8.2-3.1-10.2-4.5-10.2q-1.9.1-3.3 3.5m5 10.5c.8 3.5 1.2 6.5 1 6.7-.3.3-2 .6-3.8.6-3.2.2-3.3.1-3.1-3.3.2-3.7 3.1-11.6 3.9-10.7.3.3 1.2 3.3 2 6.7M428 79.4c0 .5-.8 3.3-1.7 6.3q-1.7 5.2-2.9 4.9c-2.5-1-12.3-9.1-12.3-10.3q-.3-1.8 12.2-1.8c2.6 0 4.7.4 4.7.9m18.3 5.1 2 5.9-5.2 4.8c-2.9 2.6-6 4.8-6.9 4.8-2.1 0-8.2-5.4-8.2-7.2a58 58 0 0 1 4-12.8c1-1.8 1.9-2.1 6.7-1.8l5.6.3zm14.7-5.6c0 1-7.5 8.1-8.5 8.1-1.4 0-4.8-6.8-4-8a33 33 0 0 1 12.5-.1m-8.9 23.1 2.5 9c.8 2.5.7 2.5-1.7.8l-7.6-5.3c-2.9-2-5-4.1-4.7-4.8.6-1.6 7.7-6.7 8.8-6.4.5.2 1.7 3.2 2.7 6.7m-22.6-2.4q5.3 3.3-1.3 7.8c-5.2 3.5-6.3 3.4-5.1-.7 1.1-4.1 3-8.7 3.6-8.7.2 0 1.5.7 2.8 1.6M56 176.1a54 54 0 0 0-11.8 4 56 56 0 0 0-17.3 13.5 65 65 0 0 0-10.4 21.2 50 50 0 0 0 13.6 46 51.3 51.3 0 0 0 74.2-2.6 49.7 49.7 0 0 0-34.8-82.7c-4.9-.2-11 0-13.5.6m23.8 4.8a46 46 0 0 1 32 47.7c-.4 7.6-1 10-4 16.4a47 47 0 0 1-38.1 26.6A48 48 0 0 1 25 246a46 46 0 0 1 9.6-53.9 36 36 0 0 1 17.1-10.6 48 48 0 0 1 28.1-.6"/><path d="M63.5 191.1c-1 4.6-7.2 21-8.3 22.1-.6.6-6.1 1.1-12.3 1.2-10.6.2-11.4.4-11.4 2.2 0 1.4 2.2 3 8.5 6.1 4.7 2.3 8.6 4.8 8.8 5.5.1.7-1.2 4.9-2.9 9.3-4.8 12.4-5.3 14.5-4.3 15.4.5.5 6.4-2.4 14.1-7.1l13.3-8 11.4 7.1a97 97 0 0 0 12.5 7.1c2.1 0 1.1-6-2.4-14.7-1.9-4.8-3.5-9-3.5-9.4s3.4-3.3 7.5-6.5c6.3-4.7 7.4-5.9 6.3-7.1-.9-1.2-3.3-1.4-11.2-1.1l-10.1.3-3.5-7-6-12.5c-3-6.5-5.5-7.6-6.5-2.9m8 14.7c3.7 8 3.6 8.2-4.3 8.2-3.8 0-7.1-.2-7.4-.5s.8-4.1 2.5-8.5c2.9-7.6 3.1-7.9 4.9-6.3a30 30 0 0 1 4.3 7.1M95 217.4c0 .7-2.1 2.8-4.7 4.5l-4.8 3.1-1.7-2.1c-1.8-2.2-2.3-5-1.1-6.2.3-.4 3.3-.7 6.5-.7 4.3 0 5.8.4 5.8 1.4m-44.6.2c2.1.8 2.1 5.3 0 6.1-2 .7-9.4-2.6-9.4-4.3 0-.7 1.6-1.4 3.8-1.7l3.9-.5q.2-.1 1.7.4m28.7 3.8c1 2.4 1.7 5 1.4 5.8s-3.1 2.9-6.1 4.8c-5 3-5.8 3.2-7.7 2-1.2-.8-4.4-2.5-7.2-4-5.7-2.9-6.5-5-3.5-9.8l2-3.2h19.1zm-19.7 11.4a18 18 0 0 1 5.3 3.8 63 63 0 0 1-18.5 10.9c-1.4-1.3 5.1-17.5 7-17.5.7 0 3.5 1.3 6.2 2.8m26.8 5.3 2.8 7.7c0 1.2-14.2-6.6-16.8-9.3-.6-.6 9.2-6.5 10.3-6.1.5.1 2.2 3.6 3.7 7.7M427.5 176c-1.1.5-3.1.9-4.4.9-3.3.1-17.1 9.2-21.9 14.5a55 55 0 0 0-12.2 26.4 47 47 0 0 0 7.8 33.9 49 49 0 0 0 41.7 22.4 48 48 0 0 0 40.6-20.1 39 39 0 0 0 5.9-8.7c0-.7.8-2.6 1.7-4 2.7-4 3.1-22.3.8-29.5A51 51 0 0 0 450 176a70 70 0 0 0-22.5 0m19.6 4.5a45.4 45.4 0 0 1-11.5 89.9 48 48 0 0 1-38.6-29.1c-2.8-6.7-3.3-9-3.3-16.3 0-10.1 1.8-16.4 7.3-24.9a53 53 0 0 1 20.9-17.2 46 46 0 0 1 18.1-3.3z"/><path d="m434.7 192.7-4.4 11.3-2.8 7.5-11.5.5c-13.7.6-15.2 1.9-6.8 6.3q11.6 6 11.8 8.7c0 .9-1.6 5.3-3.5 9.9-3.6 8.5-4.2 11.5-2.5 12.6 1 .6 12.4-6.3 19.1-11.6 2-1.6 4.2-2.9 4.9-2.9 2.9 0 16.2 7.2 20.3 10.9q11.9 10.9 2.6-7.3c-2.3-4.5-5.1-9.4-6.2-11l-2-2.9 3.4-2.9c1.9-1.5 5.5-4.3 8.2-6q6.6-4.4 3.9-6.2c-.4-.3-5.3.1-10.8.8-5.4.7-10.3 1-10.7.6a129 129 0 0 1-7.7-20.6c0-3-3.7-1.3-5.3 2.3m8.7 18.4c-.8 1.4-11.4 1.1-11.4-.4 0-1 1.9-6.5 4.7-13.7q.6-1.3 3.9 5.8c1.9 4.1 3.2 7.8 2.8 8.3m18.6 2.6c0 .5-2.1 2.4-4.6 4.3-4.5 3.3-4.7 3.3-6 1.5q-3-4.4 2.1-5.6c4.4-1 8.5-1 8.5-.2m-16.7 1.7c.8.8 2 2.8 2.7 4.6 1.2 3 1.1 3.2-2.1 6-1.9 1.6-4 2.9-4.6 3-2.1 0-14.3-5.9-14.3-7 0-.6.7-2.4 1.5-4 1.4-2.7 2-2.9 7.8-3.3l6.9-.5q.8 0 2.1 1.2m-19.9.5c.3.5-.2 1.9-1.2 3.1-1.8 2.2-1.9 2.2-5.3.5-4.5-2.3-4.6-2.4-2.9-3.5 1.9-1.2 8.7-1.3 9.4-.1m28.5 15.2c1.7 2.8 3.1 5.2 3.1 5.5 0 1.1-3 .1-7.5-2.7l-4.9-3.2 2.8-2.3c1.5-1.3 2.8-2.4 3-2.4s1.7 2.3 3.5 5.1m-22.1-1.1c2.3 1 4.2 2.3 4.2 2.7s-1.5 1.8-3.3 3l-7.6 5.2c-5.3 3.7-6.5 3.9-5.7.8 1.2-4.9 5.6-13.7 6.8-13.7.7 0 3.2.9 5.6 2m-209.2-36.5c-1.1.5-2.3 2.3-2.8 4a31 31 0 0 1-2.5 6.2c-1.7 3.1-1.6 3.3.4 5.5 1.1 1.3 2.3 3.6 2.7 5.1.6 2.5.3 2.9-3.1 4.4-2.1.8-4.8 2.5-6 3.7l-4.8 4.6q-5.5 5.3-5.5 14.9c.1 8.7 5.6 19.1 10.2 19.1 1.1 0 4 2.2 6.6 4.9a18 18 0 0 1 6 11.3c1.8 8.9 3.1 11.1 7.1 11.9 1.9.4 4.3 1.8 5.3 3.1 1.9 2.5 2.4 6.3.8 7.3-.5.3-1 2-1 3.6 0 2.7-.6 3.3-5.5 5.5-3.1 1.3-6 2.4-6.5 2.4s-3 1.3-5.5 2.9c-7.2 4.6-10.2 9.6-13 21.9l-4.1 17.7c-1.8 7.4-5.7 17.9-9.8 26a23 23 0 0 0-2.6 7.7c0 2.6-3.8 10.5-6.5 13.8-1.3 1.5-7.6 14.7-9 18.5-.3 1.1-.8 4.7-1.1 8-.2 3.2-1.1 6.6-1.8 7.5a25 25 0 0 0-3.2 5.5c-1.1 2.2-3 4.5-4.2 5.1s-2.9 1.7-3.5 2.3-2.4 1.1-3.9 1.1c-3.3 0-7.5 3.9-8 7.3-.2 1.2.3 3.4 1.1 4.8 2.5 4.5 0 6.8-12.5 11.8q-15.6 6-15.4 9.6a26 26 0 0 1-3 5.8c-4.5 7.1-4 11 1.1 8 2.2-1.3 3.2-1.4 4.1-.5 1.3 1.3.9 2.3-4.7 11-3 4.8-3.2 5.7-2.3 8.5 2 6.1 3.1 6.4 9 2.5 5.8-3.8 12.2-5.8 16.1-5.1q2.6.5 4.3-1.6c1-1.2 2.4-2.1 3-2.1 2 0 10.3-10.6 12.5-15.8l2-4.9 3.4 1.1c1.8.7 4 1.7 4.8 2.5a8 8 0 0 0 3.4 1.5c1.5.3 1.8 1.2 1.7 5.7-.2 12.8-1.6 29-3.1 37-.9 4.7-1.4 9.3-1.1 10 1.1 2.7 18.6 10.3 20.5 8.8q1-.9 1.7-.1c.6.9 1.1 37.3.8 51.6-.1 4.4-.6 8.4-1.2 9s-1 3.4-1 6.3-.4 5.3-1 5.3c-1.6 0-1.2 2.7.5 3.4 1.8.7 1.9 3.9.3 6.7-1.1 1.8-1 2.3.6 3.3 4.8 2.9 8.6 6.9 8.6 9.3 0 1.4 1.2 3.6 2.8 5.1a16 16 0 0 1 3.5 4.4c1 2.7 3.7 2.2 3.7-.6 0-1.4.4-2.8 1-3.1q1-.4 1 2.3c0 3.1 2.2 5.8 3.9 4.7.6-.3.8-1.9.4-3.5-.4-2.3-.2-3 1.1-3q1.6 0 1.6 2.1c0 2.9 1.8 5.9 3.6 5.9 1.3 0 1.5-.7 1-3.5-.4-1.9-.3-3.5.2-3.5s1.2 1.3 1.5 3c1 4.6 3.9 4 3.7-.8-.3-5.7-.1-5.9 2-2.4 2.2 3.6 4 3.5 4-.4q0-2.2 1-1.9c.6.3 1 1.7 1 3s1 5.4 2.1 8.9l2.1 6.4-2.8 3.5q-4.5 5.9-4.4 0c0-3.2-5.6-10.3-8.1-10.3-1.1 0-3.3.7-4.9 1.5-2.3 1.2-3 2.2-3 4.6 0 1.6-.6 3.2-1.4 3.5-2.4.9-5.6-1.5-5.6-4.1 0-4.9-8-7.4-11.5-3.5-1 1.1-2.6 2-3.6 2-2.3 0-7.2 5.9-6.5 7.9 1.8 5.8 1.8 6.1 0 6.6-1.1.3-3.2 1.2-4.7 2-2.6 1.4-2.8 1.3-3.7-1.1-1.4-3.5-9.6-11.4-12-11.4q-1.8 0-2-1c0-1.7 4.3-5 6.6-5 1.2 0 3.3-.9 4.8-2.1 2.1-1.6 2.4-2.4 1.6-3.4-.9-1.1-.4-1.7 2-3q5.6-3-.7-4.7c-1.8-.5-3.3-1.6-3.6-2.8-.5-1.9-1.1-2-7.9-1.4-4 .4-7.7 1-8.3 1.4-.5.4-1.8.4-2.9.1s-4.7-.3-8.2.2c-7.2 1-11.4.4-11.4-1.8 0-2 4-3.5 9.3-3.5 6.5 0 17.8-3 21.5-5.8 1.9-1.3 4.8-3.9 6.6-5.7 1.8-1.7 4.4-3.5 5.9-3.9q2.8-.6 2.7-3.1c0-2.2-.4-2.5-4-2.5-3.5 0-3.9-.3-3.7-2.3.1-1.7-.3-2.1-1.8-2-7.2.9-34.6.9-35.1.1-.4-.6.7-2.1 2.4-3.4 4.5-3.6 6.6-11.4 3-11.4-.6 0-2.5 1.3-4.3 2.9A53 53 0 0 1 127 619c-.3-.3-.5-1.6-.6-3a165 165 0 0 0-6.5-33.5 42 42 0 0 0-10.2-18.1l-2.9-3.2 2.3-1.6a9 9 0 0 1 3.5-1.6c2.9 0 3.6-3.2 3.7-17.2.2-13.5.1-14.5-2.1-17.2a49 49 0 0 1-4.8-11.1c-2.3-7.5-3-8.5-7.4-11.9l-4.9-3.7-2.8 1.8-2.7 1.8 3.6.3c3.1.3 9 4.5 7.7 5.6-.2.2-2.8.6-5.8.9-5.2.6-5.3.6-4.9-1.8.5-2.4.4-2.5-3.6-1.9-2.3.4-4.7 1.2-5.5 1.9-1.9 1.9-.4 3.8 2.5 3.1q5.3-1.4-1.8 3a76 76 0 0 0-22.1 25.6c-2.4 5-3.7 4.8-2.4-.2.6-2.2 1.7-4 2.3-4q1.2-.2 2-2.3c.3-1.2 1.6-3.5 2.6-5 2.4-3.4 2.1-3.9-2-3.1q-2.9.7-3.5 2.5-.5 2-2.2 1.3-1.7-.5-2.6.7-.9 1.6-1-1.1c-.2-4.1.2-5.4 2.2-7.3 1.1-1.1 1.8-2.4 1.6-3-.4-1.3 1.6-3.7 3-3.7.5 0 1.7-.9 2.6-2.1q1.8-2.2 4.3-1.5 2.3.5 2.4-.4 0-1-1-.5t-1-.4q.2-1 1.5-1.1 1.8-.2 1.6-1l.3-2c.3-2.4 7.6-5.2 7.6-2.9q-.1 1.3 1.4 0c.7-.6 2.1-.9 3-.5q1.5.4 1.6-.6t1.8-.9c2.8.4 7.3-1.2 6.9-2.5q-.6-1-1.4-.9l-9 .7c-6 .4-9.3 1.2-12.8 3.1a22 22 0 0 1-6.4 2.5c-2.1 0-11.5 8.9-13.4 12.7-.8 1.5-1.8 4.4-2.2 6.3s-1.2 4-1.7 4.7-.7 2-.4 3-.5 5.4-1.9 9.8c-3.1 10.1-3.2 12.8-.1 15.2 1.3 1 2.7 2.8 3.1 4 .5 1.8 0 2.5-3.2 4.2-7.5 3.8-23.6 24.6-30.4 39a115 115 0 0 1-12.6 23.3c-2.2 2.1-3.3 5.5-1.4 4.4 1.3-.9 10.4-14.3 12.8-19.1L19 598a66 66 0 0 1 8.5-13.5c1-1.7 5-6.4 8.8-10.6 6.1-6.6 8.9-8.7 17.8-13 .9-.4 2.2-.3 2.9.1q1.3.8 2.2.4c.4-.3 3.5.8 7 2.4a28 28 0 0 1 11.7 9.6c5 6 10.1 14.6 10.1 17.1 0 .5 1.6 4.8 3.7 9.5s4.6 13.4 5.9 20a999 999 0 0 0 40.7 125.5c5 10.8 6.3 21.1 3.1 24.6-.9 1-1.8 2.7-1.9 3.7s-1 3-2 4.6c-2.6 3.9-3.1 12.7-1 20.5.9 3.5 1.4 6.5 1.2 6.7q-.5.2-2.3-1c-1.5-1.1-1.9-2.7-1.9-6.8 0-4.2-.3-5.3-1.7-5.6-2.3-.4-2.4-5.2-.2-9.4 1.2-2.3 1.4-3.6.6-4.8-1.6-2.5 2.9-9.5 7-10.9 2.4-.9 2.9-1.4 2-2.3-1.9-1.9-6.3.3-10 5.1q-3.3 4.4-2.6 6 1.7 4.3-1.2 8.5c-2.2 3-3.6 3.3-3.2.8q.2-1.6-1.2-1.7-1.5 0-1.7 3.9c-.2 4-1.9 7-3.4 6q-.8-.6.1-2.4t-.4-2.9c-2-1.6-3.8 1-3.4 5 .4 3.9-2.7 6.5-4.3 3.6-1.5-2.6-2.9-2-2.9 1.2 0 3.8-2.8 5-5 2.1-1.7-2.3-3-1.8-3 1.1q-.1 1.8-2.4 2.5c-2.7.6-6.7 4.4-4.7 4.4.6 0 2-.5 3-1.2a5 5 0 0 1 3.5-.5c1.5.6 1.6.9.2 2.8-.8 1.1-3.1 3.2-5.1 4.6s-3.4 2.7-3.2 3c.5.5 10.8-4.7 14.4-7.3 2.2-1.5 2.3-1.5 3.2.8 1.5 3.9 1.7 9.1.4 9.5q-1 .1-1.8-2.6c-.8-3.6-3.1-5.9-4.6-4.4q-1 1 0 4.9l1.1 4.6c0 1.5-2.1.8-2.7-1q-1.5-4.4-4-3.5c-1.1.4-1.3 1.4-.8 4.1.5 2.9.4 3.4-.9 2.9q-1.6-.5-7.2 4.3-8.7 7.7-7 3.3c1.1-2.7-1.3-8.3-3.5-8.3q-1.8 0-1.9 2c0 2.4-4.1 5.3-7.6 5.3q-2.7-.1-4.3 2.8c-2.2 4-4.9 3.8-5.3-.3-.4-4.2-2.6-4.8-3.4-.9-1.2 5.8-2.6 3.2-2.2-4.1q.3-7.3-.9-7.5-1.2-.4-1.5 3.9-.3 4.4-1.8 4.4c-.8 0-2.5.4-3.8.8q-2.4 1-4.4-1c-1.8-1.8-2-1.8-2.9-.1-1.2 2.1-2.9 2.2-2.9.2 0-2.4-2-1.7-3 1.1-1.1 2.9-3.3 2.8-3.8-.2-.6-3.2-2.2-4.1-3.7-2-1.7 2.3-3.5 1.3-3.5-2q0-4.7-3.9.3l-2 2.8-.1-3.8c0-4.3-1.5-4.8-3.2-1.2q-2 4.8-3.8-.1c-1-2.6-3-2.5-3 .2 0 2.6-2.9 1.5-3.3-1.4-.2-1.5-.5 2.6-.6 9L0 844l6.3.2c3.4 0 7.3.3 8.7.5 3.3.4 21.2 2.2 27.5 2.7 7.4.6 28-3.4 35-6.9 3.3-1.6 7.9-4.7 10.3-6.8a18 18 0 0 1 10.5-5.3c3.4-.7 8-1.9 10.2-2.8s5.6-1.5 7.7-1.6c2 0 6-.9 9-1.9 2.9-1.1 6.5-2.2 8-2.5 1.4-.3 4-1.8 5.7-3.2 3.7-3 4-6.6 1.5-15.9a33 33 0 0 1 2.3-24.3c2.4-4.2 2.7-5.6 2.6-12.7-.1-6.3-.7-9.2-2.8-14a65 65 0 0 1-7.7-30.5l-.3-11.5 48-.1c56.3-.1 57.3 0 57.7 2.9q.5 2.1 3.5 3.7c4 1.9 5.7 6.3 7.8 20l2 11c.8 4.1 1.7 9.7 2.1 12.5.7 5.7 2.7 13.4 4.3 16.4.9 1.7.6 2.3-1.8 4.1a10 10 0 0 0-3.7 4.3c-1.2 4.1-6.5 8.7-10 8.7q-3.3 0-6.2 3c-3.6 3.6-7.5 5.2-10.6 4.4a17 17 0 0 0-7.9 2c-4.3 1.9-5.8 3.1-6.3 5.1-.4 1.5-.2 3.1.4 3.7 1.3 1.3 9.8 2.9 12.6 2.3 1.1-.2 5.3-.7 9.1-1 3.9-.3 9.7-1.2 13-2 6.2-1.4 32.1-1.4 36.6 0 3.2 1.1 10.8-1.5 12.6-4.1 1.1-1.8 1.4-4 .9-9.1-.6-7-.9-31.9-.7-57l.1-14.3 3.9-2.4c2.2-1.4 5.5-3.9 7.5-5.6l3.5-3.1.7 3.6c.4 2.3-.1 7.4-1.5 13.9a77 77 0 0 0-.6 32.1l1.5 9.1c0 .6 1.2 2.3 2.6 3.7 2.2 2.2 2.9 4.5 4.8 16.1 2.1 13.2 3.9 17.6 7.1 17.6.7 0 3.4 2.6 6.1 5.8s5.5 6.1 6.4 6.7a63 63 0 0 0 19.9 6.1c3.6.4 8 1.3 9.9 2.1l3.3 1.4-.3 12.8c-.3 12.4-.2 13 2.1 15.5 1.4 1.5 5.2 3.4 9.2 4.6 7.3 2.3 22.6 2.9 44.9 1.9 15.3-.7 18.3 0 27.8 6.5l8.1 5.6H500v-4.6c0-3.8-.3-4.5-1.7-4.2q-1.8.3-1.8 3.3v3l-8.5-.4c-4.7-.2-8.9-.6-9.4-.8-.7-.5-.6-3.5.6-11.5q.3-1.5-.7-1.8c-.5-.1-1.6 2.8-2.4 6.4s-1.7 6.6-2.2 6.6c-.7 0-.5-2.7.6-10.3q.5-2.8-1-2.7c-1.9 0-3.5 4-3.5 8.5 0 1.9-.4 3.6-.9 3.9s-.7-2.5-.4-6.4q.5-7.1-.6-7c-1.5 0-3.1 4.3-3.1 8 0 3.3-1.5 4.7-3.4 3.1q-1.5-1.1-.6-4.6t-.3-4.2c-.9-.6-3.2 1.6-4 4.1q-.5 1-2.3-.5c-2.3-2-10.7-5.9-12.8-5.9-.8 0-1.8.4-2.1 1-1.1 1.8-3.5 1.1-3.5-1 0-2.6-3-2.6-3.7 0-.9 3.2-3.3 2.4-3.3-1.1 0-4.4-3.4-3.7-3.8.9-.4 3.5-3.2 4.6-3.2 1.3 0-2.9-1.1-5.1-2.5-5.1q-2.6.2-1.8 5.3.6 2.9-1.1 2.7c-1.2 0-1.6-1-1.6-4.5 0-3.3-.4-4.5-1.5-4.5-1.8 0-3.5 3.1-3.5 6.4 0 1.4-.5 2.6-1.1 2.6q-1-.1-.5-1.8c1.2-4.3 1.7-11 .8-11.6-1.2-.7-2.8 1.1-3.5 3.9q-.5 2.3-.6-.8 0-2.8-2-2.7-3 .1-3.1 5c0 1-.5 3.1-1.1 4.7-1.7 4.6-3.1.6-2.1-6.2.6-3.4.5-5.8 0-6.1-1.8-1.2-3.9 2.2-4.5 7.5-.3 2.8-.9 4.8-1.4 4.4s-.3-3.2.3-6.1c.9-4.4.8-5.6-.3-6.3-1.9-1.1-3.2.4-4.6 5.4l-1.1 4.2-.1-3.7c-.1-2 .4-4 .9-4.3 1.9-1.2 1-3.4-1.9-4.8-2.6-1.3-3.1-1.3-4.5.1s-1.5 1.2-.9-2.4l.8-4.2c.2-.2 1.6.3 3.2 1.2 4.7 2.4 16.5 4.8 17.7 3.6q2.5-2.6-7.7-5.1c-5.3-1.3-6.2-1.8-5.9-3.6q.3-2-3.5-4.9c-2.1-1.6-4.8-4-6.1-5.3-2.1-2.3-3.2-2.5-12.5-2.8-5.5-.2-10.6-.8-11.2-1.2a13 13 0 0 0-4.5-1.6c-4.1-.9-12.7-7.1-13.6-9.8-.3-1-2.1-2.5-4-3.3-5.6-2.3-8.3-11.5-8.6-29.7-.2-10.8-1.3-14.8-3.7-13.3a8 8 0 0 0-2.1 3c-1.6 4.2-3-3-3-15.2.1-13.7.6-16.4 5.5-29.7l5.2-14.5c1.7-5 5.4-12.5 7.6-15.4 1.3-1.7 1.4-1.5 1.3 2.4-.2 7.3 2 6.2 4.8-2.4 1.4-4.1 1.4-.7.1 3.6-1.1 3.7-1.1 4.9-.1 5.7 1.6 1.3 3.6-.5 3.6-3.4.1-1.1.7-3.1 1.6-4.5 1.4-2.4 1.4-2.3 1.2 3-.2 4.3 0 5.5 1.2 5.5 2.1 0 3.6-7.3 2.1-9.8-1.5-2.3-2-1.8 5.5-5.5s11.3-8 14.4-15.8a40 40 0 0 1 4.7-8.7c2.8-3.5 3.1-7.7.5-7.7q-1.9 0-3.5 4c-1.7 4.5-3.7 5.3-3.7 1.5 0-7 4.9-21.5 7.3-21.5 1.6 0 11.3-9.7 10.4-10.6-1.3-1.3-5.3.6-7.2 3.6q-2 3-4.7 3c-3 0-4.4 1.9-7.3 10.5-2.3 6.7-3.9 22.4-2.4 24.1 1.2 1.5-.8 6.1-3.7 8.5q-2.2 2-.9-.6a90 90 0 0 0 1-16.5c.1-15.2.6-17.7 10-51a44 44 0 0 0 1.5-8.7c0-4.2 7.3-12.3 11.2-12.3q2.4 0 3.5-2.3c1.4-3.1 14.7-9.4 25.7-12.2a29 29 0 0 1 25.8 3.4c7.2 5.3 12.9 15.7 7.9 14.4q-1.9-.5-2.6 1.6c-.3 1.2-1.1 2.1-1.6 2.1-1.3 0-1.1 3.7.2 4.5.5.4 1.4 1.7 1.9 3s2 2.5 3.7 2.8c1.7.4 3.8 2.1 5.3 4.3l5.1 6.7c1.4 1.8 5.4 9 8.8 16.2 6.2 12.9 9 17.1 19.5 29.5 3.1 3.6 7.6 9.5 10.2 13.3 2.5 3.7 4.8 6.7 5 6.7s.4-23.9.4-53.2v-53.2l-2 2.2a17 17 0 0 0-3 4.7c-.5 1.4-1.6 2.5-2.4 2.5-1.6 0-2.9-2.7-2-4.2.4-.6.1-2.9-.6-5.2-2.5-8.5-2.3-8.2-9.4-9-9.5-1-10.6-.1-10.6 8.1v6.6l-2.7-3.7c-2.4-3.1-3.2-3.6-5.8-3.1-1.6.3-3.9 1.5-5.1 2.6-2.1 1.9-2.2 3-2.2 15.1 0 7.1-.3 13.2-.6 13.6-.3.3-.6-1-.6-2.8 0-1.9-.4-4.7-.9-6.4l-2.6-9a24 24 0 0 0-6.1-10.6c-2.4-2.6-4.4-5.6-4.3-6.6q0-2.5.9.3c1.3 3.1 4.5 3.1 3.5 0a77 77 0 0 1-1.4-10.2c-.5-7.1-.8-7.7-1.9-5.8-.6 1.2-1.2 3.9-1.3 6l-.1 3.8-1.1-3.3c-1.5-4.9-3.2-3.3-3 2.7.2 4.5 0 5.2-1.5 4.7-.9-.3-3.3-.8-5.4-1.1-3.3-.6-3.6-1-4-4.6q-.3-3.7.7-3.6c.5.2 1 1.7 1 3.3 0 4 2.7 3.8 4.1-.4.5-1.7 1.5-3.7 2.2-4.4 1.7-1.7 1.4-8.6-.7-13.8a22 22 0 0 0-6-7.8c-3.6-3-4.2-3.2-4.7-1.7q-.8 1.7 2.6 4.3 6 4.8 6 13.3v4.2l-4.5-.5c-3.9-.5-4.5-.3-5.2 1.6-.4 1.1-.6 3.9-.4 6.2l.3 4.1-5.9.6c-3.2.3-8.5 1.8-11.6 3.2a18 18 0 0 1-5.7 1.9c0-.3-1.3.4-2.9 1.5-3.7 2.7-5.1 2.6-5.1 0 0-9.1-6.7-15.9-16.1-16.1-1.7-.1-3.3-.7-3.6-1.5a2 2 0 0 0-2-1.3q-1.9.2-.3-1.5 1-1.3.5-1.5c-.5-.2.4-1.1 1.9-2.5a8 8 0 0 0 2.6-5.3 13 13 0 0 1 2.5-6.2c1.4-1.9 2.5-3.9 2.5-4.6 0-1.9 4.9-7.3 8.1-9 2.3-1.1 2.9-2.1 2.9-4.7 0-3.8 3.8-8.2 8-9.2 4-.9 17.2-1.2 20.4-.3 2.2.6 3.5.3 5.4-1.3a9 9 0 0 1 6.1-1.7c1.9.1 3.6-.2 3.8-.9.5-1.4-6.7-2.7-9.9-1.8l-4 1.1q-1.6.4-1.8-.5c0-1.3 7.2-3.3 10.7-2.9q2.9.3 2.8-1.2c0-1.6-6.4-1.9-11.9-.5-2.8.8-2.9.7-2.1-2.1s1.5-11 1.9-20.4c.1-2.7 1-5.9 2.4-8 2.3-3.7 2.9-8.4 1.2-9.5q-2-1.2.1-26.8c.9-10.7.9-16 0-22.5a237 237 0 0 1-1.7-14.1c-.3-3.1-.8-5.9-1-6.3-.3-.4-6.2-.5-13.2-.2-12.7.5-12.8.5-15.6-2.1a9 9 0 0 0-5.7-2.5c-3.4 0-3.5.4-1.1 3.5 2.1 2.6 1.9 7.7-.4 9.6-.8.6-1.4 1.6-1.4 2.1 0 1-4.1 6.3-8 10.3-1.1 1.2-2 2.5-2 3 0 1.7-3.2 4.4-4.6 3.8-1.6-.6-1.9-4.3-.4-4.3q1-.2 1-2c0-1.8.6-2 1.3-2s3-2.3 5.2-5.1 5-6.2 6.3-7.5c1.2-1.4 2.2-3.2 2.2-4 0-2.9-3.4-1.3-7.9 3.7-4.4 4.8-4.7 5-6.6 3.5q-2.4-1.9-.2-1c1.9.7 5.6-3 5.7-5.8 0-2 6.9-10.4 8.3-10 .5.2 1.8-.5 2.8-1.4 2.2-2 4.9-1.2 4.9 1.5q.1 1.9 1.3 2.8c.6.4 7.5.6 15.3.4l14.1-.3.6 3.9q1.3 7.8 8.9 7.8c3.4 0 4.5-.6 6.9-3.4l2.8-3.4 10.6.2c5.9.1 11.8.6 13.2 1.2 2.2.8 2.5 1.3 1.9 4.2a307 307 0 0 0-2.1 19.2 173 173 0 0 1-5.8 34.3c-2 7.3-.7 10.2 4.6 10.2q3.8 0 3.7-1.5.1-1.3 1-1.5 1 .2 1 1.5c0 2.7 6.5 4.8 13 4.2 3.3-.3 6-.2 6 .2 0 1.2-9.3 4.1-13.2 4.1-4.7 0-9 1.9-8.4 3.7 1.2 2.9-7.3.2-13.1-4.3-4.4-3.3-4.4-6.2 0-6.6 4.2-.4 4.1-2.2-.1-2.6-6.9-.7-8.1 3.7-2.7 9.7 4 4.4 13.6 8.1 20.9 8.1 5.3 0 16.1-2.8 20.1-5.2 3.1-1.7 8.5-8.4 8.5-10.3 0-.5.7-1.7 1.7-2.7 1.5-1.7 1.5-1.8-.8-1.9-1.3-.1-4.1 0-6.1.1-3.2.1-3.9-.2-4.7-2.3-1.4-3.7-5.6-22.2-9.7-43-3.8-19.7-3.8-19.8.8-22.1a5 5 0 0 0 2.6-3.7c.3-2.7-3.1-7.9-5.2-7.9-2.4 0-5 2.8-5.1 5.6l-.2 2.9-8.9.1a166 166 0 0 1-17.4-1l-8.4-1.1-.7-3.5c-.4-1.9-1-8.9-1.3-15.5l-.6-12 7.1-6c8.2-6.9 9-8.1 7.7-11.5-.5-1.4-1.2-5.4-1.4-9-.4-4.8-1.1-7.1-2.6-8.7a25 25 0 0 1-3.2-4.5q-2.6-5-9.7-.3-7.2 4.8-7.7-.8c-.3-2.3.2-3 3-4.1 2.8-1.2 3-1.6 1.5-2.2q-1.9-.5-4.5 1.3c-2.3 1.7-2.7 2.8-2.6 6.4.1 4.9-.3 5.4-6.1 7-5.5 1.5-7.3 3.4-9 9.3-2.2 7.8-2.3 14-.4 14.4 1.3.2 1.8-.9 2.3-5.5 1.7-14 3.2-15.8 13.8-16.9q11.9-1.2 8.7 2.2-1.2 1.7-5 1.1-7.8-.9-9.4 9.8c-.3 2.7-1.3 6-2.1 7.2a9 9 0 0 0-1.4 4.3 13 13 0 0 1-1.5 4.9c-1.2 2.5-1.2 3.1-.1 4.1q1.5 1.4 2.4-.7c1.6-2.7 2.3-1 .9 2-1.4 3.1-3.2 3.5-4.1 1q-.7-1.5-1.4-.8-.8 1-2.2 1-1.4.2-1.8 2.2-.4 2.1-1.8 2.3c-1.9 0-1.8-4.6.1-5.4 1.1-.4 1.3-1.6.8-5.3-.7-5.6-.9-6.1-2.5-4.5-.7.7-2 1.2-2.9 1.2s-2.2.7-2.9 1.5-2 1.5-2.9 1.5c-1.4 0-2.1-2.4-4-12.8-3-16.5-6.2-23.5-14.3-31.5-3.5-3.4-8-7-10.1-8l-6.9-3.2a34 34 0 0 0-9.3-1.8c-5.5-.3-6-.5-6.3-2.8-.7-6-6.1-10.9-12.1-10.9-2.4 0-3.4-.6-4.1-2.4-1.2-3.3-4.3-4.8-8.4-4-4.6.8-6.8-.1-8.9-3.5-1-1.7-2.6-3.3-3.7-3.6q-1.8-.7-2-1.7c0-.6-1.1-3.4-2.4-6.2l-5.6-12.5-3.1-7.4 3.1-2.9c2.8-2.5 3.1-3.3 2.7-7.1-.6-5.7-4-17-6.1-20.2-2.7-4-6.9-5.3-18.5-5.3-16.1-.1-19.7-.8-21.1-4.3-2.2-5.2-6.4-6.9-17-6.6-5.1.1-10.3.6-11.4 1.2m9.5 61.5c1 .6 1.9 1.9 1.9 2.9s.7 3.3 1.7 5.1c1.5 3 1.7 3.2 2.9 1.6s1.4-1.3 2.4 2.5q3 12.3 9.5 9.5 1.4-.5 1 .3c-.6 1 1.3 2.6 3 2.6.5 0 1.6 1.2 2.3 2.7s2 2.8 2.8 2.8q1.9 0 1.6 3.1c-.1.4 1.7.3 4-.3 3.6-.8 4.4-.6 6.5 1.3 1.8 1.8 2.6 2 3.5 1.1 1.5-1.5 3.8-1.6 3.8-.1 0 1.2-6.1 3.9-9 3.9q-1.9 0-2-1.8c-.1-1.8-.6-.7-2 1.5-1.9 3.2-5.7 5.9-6.8 4.9q-.4-.5.5-.6 1.2-.2.6-2t-.9-2c-.2 0-2 1.7-3.9 3.9q-6 6.6-8.8 3.4l-3.5-4-2.2-2.4 2.2-1.9a9 9 0 0 1 4.1-2c2.1 0 2.2-2.3.1-4.1-1.3-1-2-1-4.4.5-2.4 1.3-3.3 1.4-4.9.5q-1.7-1.2-1.4-2.5c.8-2.2-1.4-2.4-4-.4-1.4 1.1-2.7 2-3 2-.7 0-4.7-12.9-4.7-15 0-.9-.9-2.5-2-3.5-3.2-2.9-2.5-6.9 1.7-11 3.9-3.8 4.5-4 7.4-2.5M438 315.4c0 3-1.6 4.2-3.4 2.7-.7-.6-2.1-.9-3-.5q-1.5.6-1.6-.8c0-2.2 2.2-3.8 5.2-3.8 2.3 0 2.8.4 2.8 2.4m-149 1.5c-1.1 2.2-7.6 34.3-8.5 42.4-.4 3.2-.9 12.4-1.1 20.5l-.8 18.2c-.2 1.9-.6 18.3-1 36.5-.3 18.1-.9 35.6-1.2 38.8s-.1 6.4.4 7c3 3.9 2 9.7-1.7 9.7-1.5 0-1.7-1-1.6-6.1.2-6.6-1.6-10.7-3.5-7.9-.5.8-1 4.1-1 7.2 0 5.8-1.3 7.7-2.3 3.5-.4-1.2-.9-9.8-1.2-19.2-.4-9.3-.9-17.3-1.2-17.8q-.6-.6-1.6-.4c-.9.3-1.2 6.1-1.2 20.2 0 20.6-.7 23.9-3.8 17.8-2.9-5.6-4-14.7-3.9-33.1 0-16.4-.2-18.3-1.6-18-2.6.5-3.4 7.7-2.8 25.8q.5 16.4 2 21.5 2.5 8.1-2 5.7c-2-1.1-1.8.8-2.9-34.7-.4-13.6-.3-24.7.3-27.1 1-4.4.1-7.4-2.3-7.4s-3 6.7-2.9 33.5c.1 20.6-.1 25.3-1 22.5-.6-2-2.2-5-3.5-6.9-2-2.8-2.2-3.6-1.1-5.6q1.1-2.2.4-3.7a87 87 0 0 1-1.1-16.3c-.1-8.3-.5-21.8-.8-30-.4-8.3-.2-21 .4-28.5l1.5-22c.2-4.7.9-10.6 1.5-13.2a236 236 0 0 0 2.6-14.7c1.7-11.7 3.2-15.6 5.1-14q1.3 1.2.7 4-.7 3 .9 2.9c1.7 0 4.1-4 3.6-6-.2-1 1.1-1.2 5.7-1 7.4.4 7.5.4 15.3-1a26 26 0 0 1 6.7-.8c.1.2-.1 5-.6 10.8a62 62 0 0 0-.3 10.9c1.3 1.3 2.6-2.5 3.4-10 1.4-13.1 1.9-14.7 4.9-15.7q5-1.8 3.1 1.7m154.7 3.7c.9 2.5-.8 4.5-6.8 8.1-7.3 4.4-8.6 4.3-5.8-.5 4.5-7.3 11.1-11.4 12.6-7.6m1.1 9.1c.2 1.1-.3 2.4-1 3a29 29 0 0 1-11.5 4c-.8-.9 2.6-4.7 4.2-4.7.6 0 2.2-1.1 3.5-2.5q4.1-4.3 4.8.2m-21.8 7.9c0 1.3-.4 2.4-1 2.4s-1-1.4-1-3.1.4-2.8 1-2.4 1 1.7 1 3.1m5.8-.4c.6 1.3 1.1 6.3 1 11.3-.2 11.5 2 36.7 3.2 37.9 3 3-.8 8.6-5.7 8.6-3.2 0-5.9-4.4-4.5-7.3.6-1.2 1.1-6.9 1.1-12.7s.5-15.9 1.1-22.5 1.2-13.2 1.2-14.8q.3-5 2.6-.5m17.2-.3c0 2.5-1.7 3.8-6.1 4.6-4.9.9-6-1-1.6-2.9 1.9-.8 3.8-1.9 4.1-2.5 1.1-1.8 3.6-1.3 3.6.8m-24 11.8q0 4.7-1.4-1-.6-2.8.4-2.2c.5.3 1 1.8 1 3.2m14-2.8q-.1.9-1.5 2.1-2.3 2.1-.9-1.4c.6-1.7 2.4-2.2 2.4-.7m-21.8 5.3q-1.3 1.5-1.2-1.2c.1-2.7.3-2.1 1.2-1.2q1.3 1.2 0 2.4m3.8 1.3q0 1.4-1 1.5-.9-.1-1-1.5c-.1-1.4.5-1.5 1-1.5q1 .1 1 1.5m-18 .2c0 .4-1.2 1.7-2.6 2.8-2.2 1.7-2.6 2.9-2.7 7.5-.2 4.9 0 5.5 1.8 5.5 1.1 0 3.9 1.4 6.2 3.1a18 18 0 0 0 15.9 2.4q5.9-2.2.5 2.9c-1.7 1.6-3.1 3.6-3.1 4.5q.1 2.9 2.8.4c1.5-1.5 3.7.4 2.9 2.6-.5 1.2-1.8 1.4-6.4.9-3.2-.3-6.3-1.2-6.9-1.9-.6-.8-1.7-1.4-2.3-1.4-2.3 0-7.6-3.3-10.8-6.7a21 21 0 0 1-4.6-15.5c.6-3.4 4.9-7.8 7.4-7.8q1.8 0 1.9.7m20.9 14.7c-1.2 2.6-3.3 3.4-4.4 1.6q-.4-1 .9-1 1.8-.1 2.6-2.1c1.6-2.9 2.3-1.7.9 1.5m-7.5 3.4c-.9.2-2.8 0-4.2-.4-2.7-.7-2.7-.8.8-1.3 3.4-.6 6.6 1 3.4 1.7m-21.9 6.4c.4 1.8.7 3.8.6 4.5q0 1 2.9 1.1c1.7-.1 3.6.4 4.2 1q1.5 1.3-2.8 1.2c-3.3 0-4.4-.5-6.2-3-3.5-4.7-5.7-5.4-8.3-2.8q-2.2 2.4-1.6.7a3 3 0 0 0-.6-2.8c-1.2-1.2-1.3-1.1 5.1-1.7 1.9-.1 3.6-.5 3.9-.8q1.9-2 2.8 2.6m86.1 7.7q-.7 1-1.5 1.1c-1.1 0-2.1-3.7-1.3-4.5.9-.9 3.5 2.2 2.8 3.4m-8.6 4.4c1.9.9 2.6 2.3 3.1 5.7 2.7 17.7 4.5 27.3 7.4 40 1.8 8 3.5 16.1 3.7 18l.3 3.5-7.3.9c-8.8 1.1-9.5.6-9.6-6.6a935 935 0 0 1 2.9-57c1-2.4.2-2.6-16.4-3.5-9.3-.5-14.6-1.2-14.8-1.9-.5-1.6 27.2-.7 30.7.9m-80.7 15.9c.5 11 .3 12.4-1.4 14.6-1.8 2.3-1.7 4.8.1 3.7q.8-.2 1.2 1.9.4 2.3-2 5.2l-2.5 2.9.6-16.5c.7-17.2 1.5-24 2.7-24 .4 0 1 5.5 1.3 12.2M399 394q-.1.9-2.1 1-1.7-.1-1.4-1c.3-.6 1.3-1 2.1-1s1.4.4 1.4 1m7.8.8q.3 1.1-1.1.6-1.6-.6-3.2 2.5c-.8 1.7-1.9 3.1-2.4 3.1s-1.1.9-1.4 2.1c-.8 3.1-2.7 1.3-2.7-2.7q-.1-3.5 1.6-3.4c.9 0 2.7-.9 4.2-2q4-3.2 5-.2m-12 12.3a110 110 0 0 1 2.2 14.3c0 2.1.4 4.5.9 5.4s1.1 3.9 1.4 6.7c.5 4.6.5 4.7-.5 1.7-.6-1.7-1.5-3.2-2.1-3.2-.5 0-.6-1.1-.3-2.5q.7-2.6-.8-2.5-1.3.2-1.9 1.2-2 5.5-2.5-17c-.3-10.5-.1-16.3.5-15.7a62 62 0 0 1 3.1 11.6m11.6-6.3c.6 1-4.1 11.4-5.7 12.4-3.2 2-2.4-3.2 1.6-10q2.7-4.7 4.1-2.4M380 416q-1.3 2.3.2 1.8 1.3-.2 1.6 3.3c.3 3.1-.4 4.5-4.9 9.8-2.9 3.4-5.7 6-6.3 5.8-2.3-.8-1.6-3.8 1.7-7.9 4.8-6 7.1-9.8 5.9-9.8a22 22 0 0 0-5.2 5.6l-4.2 5.6-2.9-2.8q-5.3-5.1-.5-4c2.1.5 3-.2 6.3-5.2l6.3-9 2.5-3.4.3 4.1c.2 2.2-.2 4.9-.8 6.1m-189-7.1c0 1.9-2.5 3.5-4 2.6-1.3-.8-.1-3.3 1.8-3.8l2-.6q.2.2.2 1.8m274.3 3.1c.3 1.1.1 2.3-.4 2.6q-.8.3-.9-2 .1-4.7 1.3-.6m-263.3.6q.3.7-.7 2.2l-5.5 8.7a138 138 0 0 1-17.3 21.7q-1 .7-2 .4c-1.9-.6-.3-4.1 4.1-8.8a21 21 0 0 0 4.4-5.9c0-1.9 4.1-7 6.5-7.9 1.7-.7 2.1-1.4 1.7-3.8-.2-1.8.3-4 1.4-5.7 1.4-2.1 2.2-2.5 4.3-2zm5.9 5c1.1 2.4.8 3-2.9 7-2.2 2.4-4 4.8-4 5.5 0 .6-4 5.1-9 10.1-7 7.1-9.1 8.8-9.6 7.5-.6-1.6 2.6-6.4 8.9-13.2 1.6-1.6 3.5-4.4 4.4-6a44 44 0 0 1 9.7-13.5c.7 0 1.8 1.2 2.5 2.6m256.6 19.1c-.6 14.2-1 17.7-2.4 19.5-1 1.2-2.3 1.8-2.9 1.4-1.7-1-1.5-4.9.7-15.2 1-4.9 2.5-13 3.2-17.9q2.7-18.6 1.4 12.2m-277.1-15.5-2.4 3.3c-1 1.1-2.1 3.1-2.5 4.5-.8 2.8-2.4 5-3.5 5-1.7 0 2.4-8.7 5.3-11.2 3.6-3.1 4.1-3.3 3.1-1.6m25 5.9c1 2.3 1.3 4.5.9 4.9l-6.8 5.2c-3.3 2.6-8.6 7.4-11.8 10.8s-6.3 6-7 5.7c-2.7-.9-1.5-3.7 3.8-9.3 3.1-3.2 8.4-9.4 11.6-13.7 3.3-4.2 6.4-7.7 6.8-7.7.5 0 1.6 1.9 2.5 4.1m190.2-1.4c-1 1-1.9-.5-1-1.8q.8-1.7 1.2 0 .3 1.2-.2 1.8m-8.1 8.5c-.2 1.8.2 3.8.6 4.4q.9 1.2-.5 1.7t-2-.9c-.8-2.1-.8-7.9 0-8.7 1.3-1.3 2.1.3 1.9 3.5m-16.5 2.3c-1.1 2-1.1 2.7 0 4 .9 1.1 1.1 3.5.6 8.6-.8 8.5-1.1 9.2-3.7 7.6-1.6-1-2.1-.9-2.9.3q-1 1.5.5 2.6 1.4 1 1.5 1.8c0 .4-1.3-.3-3-1.5-2.2-1.7-2.8-2.8-2.4-4.5q.6-2.2-1.3-3.3c-1.7-1-1.7-1 0-1.1q1.5-.1 1.7-1.5c.2-1.4.7-1.5 1.5-1.5 2 0 1.9-2.9-.1-3.7-.8-.3-2-.1-2.7.6-2 2-3.1 1.2-1.2-.9 1.5-1.6 1.6-2.2.5-3.5-1.7-2.1-.7-2.9 1.8-1.6q4.7 2.3 5.9-.7c.8-2.3 3.5-5.3 4.1-4.7.3.3-.1 1.6-.8 3m11 .6c0 1-1 2.4-2.2 3l-2.2 1.2 2.2 1.5c2.6 1.7 3.1 7.2.7 7.2-2 0-1.9 1.7.1 2.8 1.4.8 1.4 1 0 2.1q-1.5 1.4-1.6 2.5c0 1.3-3.5 3.7-4.3 3-1-1.1.6-9 2.1-10.2q1.8-1.2.4-2.4c-.7-.7-1.2-3.9-1.2-7.3v-6.2l3 .5q3 .4 3 2.3m-175 5.5c0 5.6-.3 7.4-1.2 7.1-.7-.2-3 1.1-5 3.1-3.2 3-10.6 6.8-11.5 5.8-.2-.2 2.3-2.3 5.4-4.8 9.3-7.3 11.7-9.8 10.5-11q-.8-1.2-11.3 8c-5.7 5-10.6 8.9-11.1 8.6-1.8-1.1-.5-3.2 6-9.5 5.4-5.4 16.9-14.9 18-14.9.1 0 .2 3.4.2 7.6m-39.8-3.6c-.9 1.6-2.1 3-2.5 3-.5 0 0-1.4 1-3s2.1-3 2.5-3-.1 1.3-1 3m220.8 5.1q0 .8-1 .9-.9-.1-1-1.6.1-1.3 1-.9 1 .6 1 1.6m-215.2 6.7 3.2 2.5 2 5.7c1.1 3 2 7.9 2 10.8 0 4.8-.2 5.3-1.9 4.7s-2.2.1-3 3.2c-1.4 5.1-5.7 10.3-7 8.4-.5-.8-1.8-1.2-3-.8q-3.7 1-.7-2.2c2.5-2.8 3.4-10.2 1.8-14.1-3.8-9.6-14.7-14.9-19.3-9.4q-2.8 3.3-2.9-1.4c0-3.6 3.2-6.7 6-5.9q2 .4 4.7-1.7c3.7-3.2 13.4-3.1 18.1.2m-14.9 12.8c1.2 1.5 2.1 3 2.1 3.5 0 1.3-5 8.3-6.6 9.2s-2 4.7-.5 4.7c.5 0 1.4-1.3 2-2.8 1.5-3.6 6.4-8.9 6.9-7.4.8 2.6-9.9 14.7-11.7 12.9q-1-.8-2.5 1.9l-1.5 2.9-.1-3.3q-.2-6-3.8.3l-2 3.4q-.3.3-1.4-.7-1.3-1.2.6-1.8c2.2-.8 5-6.4 3.9-7.5-.5-.5-2.5 0-4.6 1.1s-4.5 2-5.4 2q-6.8 0-14.8 7.1c-5.6 4.9-8.8 6-4.8 1.6 1.1-1.2 2.4-3.3 2.8-4.7s1.2-3.1 1.8-3.8a79 79 0 0 1 18.4-9c4-1.4 6.2-3.1 9.4-7 5-6.1 8.4-6.9 11.8-2.6M367 462c-2 1.3-3.3 1.3-2.5 0 .3-.6 1.4-1 2.3-1q2.2-.1.2 1m-170.3 3a10 10 0 0 1-3.4 2c-1-.1 3.9-3.9 5.1-4q.6.2-1.7 2m191.2 2.4c.8.6 2.8 1.1 4.4 1.1 2.3 0 3.1.5 3.3 2.1q.3 2.1-1.4 2.8c-.9.3-2.4 1.1-3.3 1.7-2.3 1.7-7.7.4-13.3-3.4q-8.5-5.4-3.4-5.9c3.8-.6 12.2.4 13.7 1.6m-248.6 21.1q0 1-2.5 1.3c-3.1.4-3.9-1.4-1-2.1q3.3-1 3.5.8m18.3 1.2c-1 1-1.9-.5-1-1.8q.8-1.7 1.2 0 .3 1.2-.2 1.8m-26.2 1.8q-.8 1.4-2.1 1.5-1.9.1-.3-1.5 1.2-1.4 2.1-1.5c.9-.1.6.7.3 1.5m14.6 2.9q-.1 1.3-1.5 2c-1.5.5-2.1-1.4-.8-2.7 1.1-1.2 2.3-.8 2.3.7m6.6 6.4c-3.2 3.3-3.6 3.4-3.6 1.5 0-1.2 1.4-3.3 3.2-4.8 4.6-3.9 4.9-1.2.4 3.3m-7.8 2.9c-.1 1.6 0 3.5.3 4.3q.3 1.4-1.1 1.5c-1.7 0-2.4-2.7-1.6-6.1.9-3.3 2.6-3 2.4.3m-8.2 7c-1.1 1.1-1.7-.4-.9-2.3q.9-2.7 1.1-.1c.2 1 .1 2.1-.2 2.4m-30 0c1.6 1.6 1.5 1.8-1 2.6-1.4.5-2.6 1.4-2.6 2 0 2.1 1.7 4 2.9 3.3.6-.4 2-.2 3.3.5 1.9 1 2 1.3.5 2.4-1.9 1.3-1.9 5.5 0 5.5 2.3 0 1.5 3.8-.9 4.2-3.1.4-3.4 2.6-.4 3.8 3.6 1.3 3.4 4-.2 4-2.8 0-8.7 2.4-9.6 3.9-1.2 1.9 1.3 3.4 4.7 2.8q3.6-.6 4.8.9c.7.8 2.1 1.9 3 2.5 1.7.8 1.8.6 1.2-2.2q-.7-3.3.5-2.5c1.5.9 1.6 9.3.1 10.2-.6.4-4.1.8-7.8.9-3.6.1-9.2.8-12.5 1.5-5.4 1.3-6 1.2-7.2-.4-1.9-2.6-4.9-1.4-3.4 1.4a9 9 0 0 0 3 3c1.6.9 1.8 1.5 1 2.9-.7 1.4-.6 2.2.6 3.2 1.8 1.5 1.6 9-.3 9.6-1.6.6-2.8-4.4-1.5-6q1-1.2-.4-3.1c-1.4-2-1.4-1.9-1.4 0q0 5-3.7.8c-2.4-2.8-2.9-5-1.4-5.6.5-.2 1.1-4.6 1.4-9.9.3-6.7.9-10.3 2.1-12.2a19 19 0 0 0 2.4-7.3c.4-2.6 1-4.5 1.3-4.3s1.6-.4 2.7-1.4c1.6-1.4 2.5-1.6 4-.8q1.9 1.2 3.8-.4 3-2.4-2.1-3.8-2.3-.5.8-.6c1.5 0 2.7-.7 2.7-1.4 0-2.7-2.6-6.7-4.2-6.7q-1.6 0-1.8-.9c0-1.2 4.7-2.9 9-3.4l4.2-.5q.8 0 2.4 1.5m22.8-.9c.6 1-4.7 5.2-6.5 5.2-.7 0 .1-1.3 1.7-3 3.1-3.1 4-3.5 4.8-2.2m113.3 7.8.3 3.9-1.5-4c-1.8-4.9-1.8-4.8-.2-4.3.6.3 1.3 2.2 1.4 4.4m7.4.6c.3 14-.2 29.2-1 33.5-.6 2.9-1 18.9-1.1 35.7 0 16.8-.3 33-.6 36.1q-.7 5.4.5 6.9c1.5 1.8-.2 3-3.2 2.2-2.9-.7-5.1-5.7-4.2-9.6.5-2.3.3-3.2-.9-3.6-1.4-.5-1.4-.8-.3-1.8 1.5-1.2 3-7 2-7.9a18 18 0 0 1-.9-5.3c-.2-2.6-.6-5.7-.9-6.8-.6-2.1-.6-2.1 1-.2q1.5 2.2 2.7.8c1.4-1.4 1.6-4.1 2.3-32.7l1-33 .5-14.3q0-3.2 1.5-3.2c1.5 0 1.5 1.1 1.6 3.2m-166.5.2q-.5 2.4.6 2.8 1.3.4-.5 2.8l-1.7 2.4v-2.2q0-2-1-1.7c-1.6 1-1.1-3.2.6-4.9q3.2-3.4 2 .8m9.4-1q-.2.4-1.5 1.6-1.7 1.6-1.5-.4.2-1.5 1.5-1.6c1.3-.1 1.5.2 1.5.4m167.3.3c.4.3 0 1.4-.9 2.4-1.3 1.4-1.6 7.3-2 41-.3 21.6-.7 39.6-1 40-.7 1.2.7 3.9 2.1 3.9s2.3-8.6 2.8-30.3c.2-7.5.6-13.9.9-14.2 1.2-1.2 1.8 24.4 1.2 46.4l-.7 23.7-6 .1-6 .2.7-35.7c.4-19.6 1.2-40.2 1.8-45.7s1-14.7 1-20.5.2-10.8.5-11.3c.5-.9 4.7-.9 5.6 0m17.5 9.4c-.1 2.5.2 5 .6 5.7s.5 2.1.1 3.1c-.3 1.1-.2 2.2.3 2.5 1 .6.8 6.1-.3 8.8-.4 1-.2 3.2.4 4.9.8 2.4.8 3.6 0 4.6q-1.4 1.3.5 3.1c.9 1 1.4 2.1 1.1 2.4-.9.9-2 21.5-1.3 25q.2 1.5-.7 1.8c-1.6.1-2.2-6.4-3.5-38a341 341 0 0 0-2.1-31.2q-1.2-1.7 1.4-2 4-.7 3.5 9.3m-8.1-2.3 1.7 31.2c3.1 53 3.7 67.6 2.9 73-.7 4.9-1.1 5.5-3.2 5.5q-2.5.1-3.2-2.6c-1.1-4.4-.6-113.7.6-113.3.5.3 1.1 3 1.2 6.2m-27.2 5.9q-.6 2.1-1.6 1.7-1.1-.6 0-1.7c.6-.6 1.2-2.7 1.2-4.7q.2-4.6.6-.6c.3 1.5.2 3.9-.2 5.3m21.4-2c-.1 3.2-.4 9.8-.8 14.8-.8 8.8-.8 8.6-.9-5.8-.1-9.2.2-14.7.8-14.7s1 2.5.9 5.7m107.4 2.1q-.4 2.6-1.9 1.1c-1.2-1-1.1-1.4.3-2.4 2.2-1.6 2.4-1.5 1.6 1.3M80.5 536q-.7 1.9-1.2 1.7c-.3-.3-.2-1.5.2-2.7q.7-1.9 1.2-1.7c.3.3.2 1.5-.2 2.7m161.3 2.9c.4 2.4.3 2.4-1.9.9-3.3-2.1-3.7-4-.8-3.6q2.5.3 2.7 2.7m.2 6.1c0 1.8-.3 1.9-2 1q-1.8-1-2-2 .2-1 2-1 2 0 2 2m-185.1 4.6q-1 2.6-1.6 1.7c-.5-1.3 1.6-5.8 2.3-5 .3.2-.1 1.7-.7 3.3m21.1-2.2q0 .5-1 1.1-.9.4-1-.4.1-1 1-1.1 1 0 1 .4m163.7 3.2q-.6.5-1.9.1-1.1-.5.6-.6t1.3.5m-165.3 1.9q-.7 1.3-1.6 1.5t-.4 3.1c.5 2.7.4 2.8-.9 1.5-1.9-1.9-1.9-3.5.2-5.8 2-2.2 3.5-2.4 2.7-.3m-5.8 3.9c.3 2.7-2.3 4.4-3.2 2.2-.6-1.6 1.4-6.1 2.3-5.2.4.3.7 1.7.9 3m170.1 2.2q-.6.5-1.9.1-1.1-.5.6-.6t1.3.5M100 562.4a6 6 0 0 1 .5 4.3q-.8 1.8-1.2.5c-.3-.6-2-1.2-3.9-1.2-2.8 0-3.4.4-3.4 2.1q0 1.8-1.1 1.4-1-.8-.5-2.2.7-1.5-1.3-.8c-1.4.4-1.8.1-1.7-1.7s.9-2.4 3.9-2.9c2-.3 4-.9 4.4-1.2 1.3-1.4 3-.6 4.3 1.7m141.7 3.8q-.5 1.1-.6-.6t.5-1.3c.3.3.4 1.2.1 1.9m-132.9 2.5c2 2.9 6.2 10.8 6.2 11.8q0 .5-1.2.5c-.6 0-2 .7-3 1.7q-1.7 1.4-1.8.6.1-1 1.5-2.3t1.5-2.6c0-2.4-2.1-2.6-4.5-.4-2.9 2.8-4.1 1-1.5-2.3 2.4-3 2.7-7.2.5-6.3q-1.5.6-1.5-1.4.2-4.1 3.8.7m371 2.5c.3 2.2 0 2.6-1.6 2.1-2.3-.6-3.9 1.4-2.4 2.9q1.1 1.2 2.5 0c1.2-1 1.5 1 2 12.4a80 80 0 0 0 1.8 15.5c.8 1.7 1.9 2 6.3 1.8 6.2-.3 7.6.4 7.6 3.6 0 1.2.7 2.5 1.5 2.9 2.4.9 2 9.8-.5 12.1q-3.6 3.1-.3 6.7c1.5 1.7 1.5 2 .1 3.4-1.5 1.5-1.7 1.4-2.7-.5-1.4-2.4-4.3-2.8-6.1-.6-1.4 1.7-4.6 2-5.5.5q-1.1-1.7-6.6 2.2c-3.2 2.2-3 2.4-9.4-10.2-2.6-5.2-5.8-10.9-7-12.5-2.1-2.7-2.3-4.2-2.4-15.6-.1-10.4.1-12.9 1.4-13.9q2-2 1 1.2c-.4 1.5-.2 2.9.5 3.3 1.4.9 1.8.5 2.4-2.6.7-3.7.7-3.7 1.6.1.5 1.9.6 6 .3 9.1-.5 4.6-.3 5.7 1.1 6.2 1.3.5 1.6 2.3 1.6 10.3s.3 10.2 2.1 13c1.1 1.9 2.5 3.2 3 2.8.5-.3.9-8.5.9-18.2.1-22.9.6-38.8 1.5-40.2 1.3-2.2 5-.7 5.3 2.2m-381.7 2.1q-1.2 1.2-1.1-.9c0-2.7 1.4-4.1 1.8-1.9.2.9-.1 2.2-.7 2.8m143.3 6.4c-.3 5.3-.7 9.9-.9 10.1q-.6.3-2-.8c-1.4-1.2-1.4-1.5.1-3.1 1.1-1.3 1.5-3.3 1.3-7.1-.3-7.4 0-10 1-9.4.5.4.7 5 .5 10.3M92 572q-.1.9-1.1 1-.8-.1-.4-1t1.1-1q.3 0 .4 1m-2 6q0 .9-.4 1-.6-.1-1.1-1-.4-1 .4-1 1 0 1.1 1m5 2.1q0 .9-1 .4c-.5-.3-1-1.1-1-1.6q.1-.9 1-.4a2 2 0 0 1 1 1.6m6.4 1.9c.3 1.6.3 4.4-.1 6l-.6 3.1-1.8-3.1c-1.9-3.1-2.5-7.1-1.2-8.3 1.5-1.5 3.1-.5 3.7 2.3m13.6 5.5c-2.1 2.6-3.1 1.6-1.3-1.1.9-1.5 1.9-2.1 2.1-1.5s-.2 1.8-.8 2.6m354.7-.3q-.5 1.1-.6-.6t.5-1.3c.3.3.4 1.2.1 1.9m-351.5 7c-1.5 1.5-2.6.4-1.8-1.8q.6-2 1.8-.6c1.2 1.4.9 1.5 0 2.4m122.8-.7q0 1.3-.9 1.5c-.9.2-1.1-.7-1.5-1.5q-.5-1.4.9-1.5 1.4.2 1.5 1.5m205.5 1.3c-.8.8-2.5-1-1.9-2q.6-.9 1.5.3.6 1.2.4 1.7M103 598.5q2-.7 2.6 1.2l1.5 3.8a92 92 0 0 1 1.4 15.2c.2 7.2.7 14.3 1.1 15.7q.5 2.4-.4 2.6c-1 0-1.5-1.9-3.7-14a109 109 0 0 0-8-28q-1-3.2 1.4.8c1.6 2.5 2.6 3.2 4.1 2.7m391.6-2.2q-.2 2.3 2.2 2.5t2 2.5c-.2 1.8-1 2.2-4.3 2.2-3.8 0-4-.2-4.3-3.2-.4-3.8 1.3-7.4 3.1-6.7.8.3 1.3 1.5 1.3 2.7M121 602.1c0 2-1.5 2.6-2.5.9-.9-1.5.3-4.3 1.5-3.5.5.3 1 1.5 1 2.6m159 .8q0 1-1 1.6-.9.4-1-.9.1-1.5 1-1.6 1 0 1 .9M122 611q0 1.8-1 2-.9-.2-1-2c-.1-1.8.5-2 1-2q1 .2 1 2m22.5 4c-.3.6-3.1 2.9-6.1 5.1a21 21 0 0 0-7.5 8.6c-2.3 5.4-2.3 5.3-.4 5.3s1.9.1-1 5.6a23 23 0 0 0-2.5 6q0 2.5-7.2 3.8c-2.3.4-4.2 1.5-4.9 2.7q-2.9 5.2-.2-5.9c1.2-5.3 2.2-7.3 3.8-8 2.9-1.3 8.9-8.7 10.7-13.2 1.1-2.4 2.8-4.2 5.9-5.7 2.4-1.3 5.5-3.2 6.9-4.2 2.5-2 3.7-2.1 2.5-.1m27 10c-.3.5-1.2 1-1.8 1q-1 0 .3-1 2.8-1.8 1.5 0m-27 1q.6 1 2.6 0c2.3-1.3 2.6.2.4 2q-1.6 1.5-2.7.2c-.6-.6-1.7-.8-2.4-.5q-1.3.4-1.4-1.1c0-1.8 2.5-2.2 3.5-.6m21.5 0c-.8.5-2.2.7-3 .5-.9-.3-3-.1-4.8.4s-3.2.6-3.2.1c0-1.3 2.1-1.8 7.5-1.9q5.3-.1 3.5.9m-14.3 5c-1.1 2.9-2.7 4.1-2.7 2 0-1.4 2.3-5 3.2-5 .3 0 .1 1.3-.5 3m30.1-2.2c1.3.9-6.9 3.2-11 3.2q-2.4.1-.8-1.4c1.6-2.1 9.5-3.2 11.8-1.8M145 632q-.2.9-2 1c-1.8.1-2-.5-2-1q.2-1 2-1c1.8 0 2 .4 2 1m11.3 2.2-.2 3.7q-.3.1-2.2-2.3-3.2-4.4.9-4.6c1.3 0 1.7.8 1.5 3.2M141 636q-.1.9-1.1 1-.8-.1-.4-1 .6-1 1.1-1 .3 0 .4 1m26 1q-.1.9-1.6 1-1.3-.1-.9-1 .6-1 1.6-1 .8 0 .9 1m312.5 2c-1.4 1.6-1.6 2.3-.7 3.2q1.1 1.4 3.2-.7 1.9-1.6 2.5-1.3c.7.7-1.7 9.8-2.6 9.8s-5.9-7.8-5.9-9.4c0-.8.8-2 1.8-2.5q4.4-2.4 1.7.9m14.2 1.5c-.4 2.7-.1 3.8 1.3 4.8 1.8 1.3 1.9 1.9.8 10-.6 4.8-1.6 8.7-2.2 8.7-1.7-.1-8.1-8.9-7.9-10.8l1.9-9c1.6-6.5 2-7.2 4.2-7.2s2.4.3 1.9 3.5m5-.3q-.5 1.1-.6-.6t.5-1.3c.3.3.4 1.2.1 1.9M170 641c0 .5-1.2 1-2.7.9q-3.6.1-.8-.9c2.7-1.2 3.5-1.2 3.5 0m-39.5 2q-.6.9-1.6 1-.9-.1-.4-1a2 2 0 0 1 1.6-1q.9 0 .4 1m20.1 1.7c-1 1-1.9-.5-1-1.8q.8-1.7 1.2 0 .3 1.2-.2 1.8m-13.2 5.1a21 21 0 0 1-1 7.3c-1.6 2.5-6 4.8-8.3 4.2q-2.2-.6-5.4 2.3c-3 2.7-7.1 5.4-8.2 5.4q-.5-.1-.5-1.6c0-.8 1.5-2.1 3.3-2.9 4.4-1.8 9.9-8.2 14.1-16.2q1.6-3 3-2.7 1.4.4 2.1-.5c1-1.7 1-1.5.9 4.7m31.3 4.8q-.7.5-1.9.1t.6-.6q1.8 0 1.3.5M127 663q-.1.9-1.1 1-.8-.1-.4-1t1.1-1q.3 0 .4 1m50.5 2q-.6.9-1.6 1-.8-.1-.9-1 .1-1 1.6-1 1.3 0 .9 1m-11.5 2q-.1.8-1.5.4-1.4-.6-1.5-1 .1-.4 1.5-.4c1.4 0 1.5.4 1.5 1m-32.5 3q.4.9-1.4 1-2-.1-2.1-1 .1-1 1.4-1c.8 0 1.8.4 2.1 1m3.5 0q0 .9-1 1a1 1 0 0 1-1-1q.1-1 1-1t1 1m172.3 6.5c.8 3.9 1.4 7.1 1.3 7.2l-4.9-.4c-3.7-.4-4.7-.9-4.3-2 .4-.8.6-3 .6-4.9 0-2.8.5-3.6 2.5-4.4 1.4-.5 2.5-1.5 2.5-2.1 0-2.7 1 .1 2.3 6.6m-101.5-5.3c.7.7 1.2 2.3 1.2 3.5q0 2.4 3 4.1c3.3 1.9 3.7 4.2 1.6 8.2-1.1 1.9-2.2 2.4-5.7 2.5-2.4.1-4.7-.3-5.1-.9s-1.8-1.1-3-1.1c-2 0-2.3-.5-2.3-3.6 0-2-.6-4.3-1.4-5.2-2-2.4.3-4.7 4.3-4.4 2.5.2 3.2-.2 3.4-2.1.4-2.4 2.1-2.9 4-1m22.9 2c1.5 3 2.4 9.2 1.5 11.1-.2.4-1.3 0-2.5-.8-2.8-2-3-1.9-6.5 1q-6.5 5.2-1.2-5.2c1.7-3.1 2.9-6.2 2.6-6.9q-.8-2.4 2.5-2.4c1.1 0 2.6 1.4 3.6 3.2m118.8 3.3c-.9 4.6-2.7 5.7-10.5 6.3-6.4.4-7.5.8-10.7 3.8-3.8 3.6-8 4.7-6.9 1.8q.5-1.5.6-2.8.2-1.1 2.3-1.2c2.5.1 3.4-2.9 1.7-5.4-.9-1.3-1.2-1.3-2.4.3-1.2 1.5-1.4 1.6-2 .2-.8-2.2-2.5-1.8-3.6.7-.7 1.9-.9 1.4-.9-2.5-.1-2.6.1-4.7.3-4.7l3.9 1.5q3.6 1.5 4.2.4.7-1 1.9 0a45 45 0 0 0 17.5-.4c.6-.3 1.1-1.3 1.1-2.1 0-1.2.3-1.2 2.1-.2 1.6 1 1.9 2 1.4 4.3M122 673c-2 1.3-3.3 1.3-2.5 0 .3-.6 1.4-1 2.3-1q2.2-.1.2 1m43.5.9c-1.6 1.4-5.5 2.3-5.5 1.2q-.2-1.1 5.5-2 .9 0 0 .8m129-.1c.6.4 1.2 2.6 1.4 4.8l.2 4.2-8.3.1c-7.2.1-8.5.4-10.1 2.3s-1.6 2.4-.4 4.2c.8 1.2 3 3.2 5 4.5q6 3.9 1.8 6.1-4.8 2.6-7.2-1.9c-1.4-2.4-2.1-2.7-5-2.3q-6.8 1-6.9 6.4c0 4-3.2 3.8-5.1-.5-1.2-2.8-2-3.2-5.5-3.5q-4-.3-5.4 1.3c-1.4 1.7-3 2-3 .5 0-.6 1.1-1.5 2.5-2q2.6-.9 2.5-3.6c0-1.5.3-2.5.6-2.1.8.7 6.4-1.3 6.4-2.3q-.2-.9-1.7-1.9c-1.4-.7-1-1.1 2.2-1.6a119 119 0 0 0 29.7-10.8c5-2.9 5-2.9 6.3-1.9m-147.3 3.4c6.5 1.8 8.6 1.9 12.3 1.1 4.8-1.1 6.5-.4 4 1.7-.8.7-1.5 1.9-1.5 2.6s-1.1 2.1-2.5 3c-2.3 1.5-2.7 1.5-4.3.1-.9-.8-3.6-1.8-5.9-2.2-3.9-.6-4.3-.4-7 2.9q-2.8 3.8-5.5 3.6c-2.6 0-2.8-.3-2.8-4.4a53 53 0 0 0-.6-7.5c-.6-3-.5-3.1 2.6-3.1 1.8 0 6.8 1 11.2 2.2m10.1-1.5c-.7.2-1.9.2-2.5 0q-1-.5 1.2-.5c2.2 0 1.9.2 1.3.5m15.1 2.8a12 12 0 0 1 2.1 3.4c.3 1 1.5 2.1 2.5 2.4 2.4.6 2.6 3.8.4 7.2q-3.3 5.4 2.5 4.7 3-.4 3.1.8c0 .9-5.4 1-22.7.4-22.4-.7-29.8-1.5-24.3-2.7 1.4-.3 3.6-.5 5-.4q2.7.4 2.8-2c.4-3 2.9-5 4.4-3.5.7.7 1.8 1.2 2.5 1.2.8 0 2.4 1.2 3.7 2.7 2.4 2.8 4.6 2.5 4.6-.7 0-2.5 1.7-3.5 3.6-1.9 2.4 1.9 4-.4 2.8-3.8-.8-2.4-.6-3.3 1.5-6 2.9-3.7 3.4-3.9 5.5-1.8m73.3 2.1c-.9.9-2.8-.6-2.1-1.8q.6-1 1.7.1 1 1 .4 1.7M130 681q0 .9-1 1a1 1 0 0 1-1-1q.1-1 1-1t1 1m179.9 7.9c2.1 2.1 5.5 4.4 7.7 5.1l4.5 1.6c.3.2-.2 2.7-1.2 5.6-1.4 4.4-2.2 5.4-4.3 5.6-2.6.3-3.5-1.1-1.6-2.3 1-.6 1.4-4.5.5-4.5-.3 0-1.8 1.3-3.4 2.9a16 16 0 0 1-5 3.6 9 9 0 0 0-3.8 3.1c-2.4 3.7-4 1.4-1.7-2.4 1.5-2.6 1.5-3.3.4-4.6-1.6-2-4-.4-4 2.8q.1 2.5-1 .6c-.9-1.3-1.2-1.3-2.3 0q-1.2 1.5-6.7 1.6c-3 0-10 .4-15.5.8-9.1.6-9.7.6-6.9-.7 1.7-.8 6.5-1.9 10.7-2.5 5.6-.7 9-1.8 12.7-4.1 2.8-1.7 5.5-2.9 6-2.6.9.6 5.1-5.5 4.5-6.6-.3-.3-3.8-.9-7.8-1.2-8.6-.8-10.7-1.4-10.7-3.3 0-2 7.9-1.8 10.2.2q1.7 1.8 3 .7c1.8-1.4 6.9-3.1 9.6-3.2q2.3 0 6.1 3.8m8.1-2.4q0 1.3-1 1.5-.8-.2-.4-1.5.6-1.3 1-1.5.4.2.4 1.5m-188 .5q-.1.9-1.5 1c-1.4.1-1.5-.5-1.5-1q.2-1 1.5-1c1.3 0 1.5.4 1.5 1m62.4 1.6c.9.3 1.6 1.4 1.6 2.4q0 5 3.7 5 2.1 0 1.8 1c-.7 1.2-10.5 1.4-10.6.2l-.4-4.2c-.4-4.9.3-5.8 3.9-4.4m39.1 1q5.5 1 5.5 6.3c0 1.9-.6 2.1-6.8 2.1-7.4 0-9.7-1.2-8.1-4.2q.8-1.7.3-1.8t1.1-2c1-1.2 2.4-1.9 3.1-1.6s2.9.8 4.9 1.2m-47.8 1.6q-.5 1.1-.6-.6t.5-1.3c.3.3.4 1.2.1 1.9m-54.2 1.8q.4.9-1 1c-1.4.1-1.3-.5-1-1q.6-1 1-1t1 1m1 7q-.6.9-1.6 1-.8-.1-.9-1 .1-1 1.6-1 1.3 0 .9 1m88.3 1.9A81 81 0 0 1 238 703c0 1.3-102.6 1.4-103.4.1q-.5-.7-.2-1.2c.3-.2 15-.3 32.8-.2zm54.2.1q-.1.9-1.6 1-1.3-.1-.9-1 .6-1 1.6-1 .8 0 .9 1m-16 5.1q-.1.8-1 1.4c-1.1.7-3.1-3.5-2.2-4.9.5-.9 3.2 2.1 3.2 3.5m-125.6-.5c1.1 2.8.7 14.1-.4 12.4-1.9-2.8-5-12.1-4.5-13.1 1-1.5 4.2-1 4.9.7m117.6 1.5q0 1.9-1.8 1.9-4.3-.2-1.4-3 3.1-3 3.2 1.1m62.7.1q-.5 1.1-.6-.6t.5-1.3c.3.3.4 1.2.1 1.9M292 711q-.2 1-1.2 1.4l-7 2.1a28 28 0 0 1-8.4 1.3l-2.8-.3 2.5-1.1c8.2-3.8 16.9-5.5 16.9-3.4m27 .9c0 2.3-1.6 3.6-2.5 2.1-.9-1.4.1-4 1.5-4q.9.2 1 1.9m-56 1.1 5.5.6-5 .8c-6.7 1.1-10.1 3.2-8.4 5.2q4 5 13.1 4c5.4-.7 5.8-.6 5.8 1.4q.1 1.8 1 2t1 2c0 1.8.5 2 1 2s1.5 1.1 2 2.5q1.4 3.6 8.9 2.5c2.2-.3 6.1 1 6.1 2 0 .5-3 .6-7 .3-6-.5-7-.4-7.6 1.2-.7 1.7 1.3 3.8 2.8 2.9.5-.3 3.3-.2 6.3.1q5.6.7 5.5 2.2t-2.1.8a42 42 0 0 0-13.7-.1q-.3.6.1 2.1c.5 1.1 2.1 1.5 6.4 1.5 3.2 0 6.5.5 7.3 1q1.4.9-4.2.3c-4.9-.5-5.9-.3-6.4 1.2q-1.4 3.6 6.4 3.1c4.4-.2 6.2.8 4.4 2.6q-1 .9-3.1-.3c-1.6-1-2.3-1.1-3.2-.2-1.5 1.5.6 4.4 2.6 3.7 2.3-.9 5.4 1.4 4.8 3.6-.5 1.7-.7 1.8-1.7.7-1.5-2-5.7-2.8-7.3-1.5q-1.4 1-.3 2.3 1.2 1.3 0 2-.9.6-1 2.2c0 1.3.9 1.5 4.9 1 6.5-.8 7.5.5 1.4 1.8-5.1 1.1-6.7 3.7-2.5 4.3 3.7.6 2.4 3.8-1.4 3.4-3.3-.3-6.4 2-4.4 3.3q1.2.6 0 2c-1.1 1.4.1 5.8 1.9 7 .6.3 3.1.7 5.6.9 5.1.3 6.1.9 7 4.8.6 2.4.2 2.9-3.4 4.8-2.3 1.1-4.6 1.8-5.2 1.4a171 171 0 0 0-37.9.2 119 119 0 0 1-28.9 2.5l-3.3-.6 2.2-2c1.9-1.8 4.6-2.2 13.8-2.4 1.2-.1 3.8-1.7 5.8-3.6 2.8-2.8 4.2-3.5 7.5-3.5s4.3-.5 5.6-2.8c.9-1.6 2.6-3.3 3.7-3.8s2.4-2.4 2.8-4.2c.8-2.9 1.8-3.7 4.2-3.3.4.1 1.4-.3 2.1-.9 1.4-1.2 1.2-2.2-2.1-11-.9-2.5-2-7.9-2.5-12a201 201 0 0 0-5.1-28.5c-2.5-9.8-3-13.5-1.8-13.5q.9-.2 1.5-2 .7-2 1.8-1.3c.7.4 3.7 1 6.7 1.3m30.9 3.5c-1.7 1.8-7.5 3.6-8.4 2.7-.3-.3 1.4-1.4 3.7-2.3 5.4-2.2 6.6-2.3 4.7-.4m-2.1 7.1c3.7 1 1.9 2.9-2.4 2.5-4.4-.3-4.9-.6-3.9-2q1.1-1.8 6.3-.5m1.7 7.3c.9 1.5-1.4 2.4-2.9 1.2-.7-.6-2.2-.9-3.2-.5q-2.3.8-.4-.5c1.8-1.3 5.7-1.4 6.5-.2m0 56.2q1.3 2.5-2.6 1.4-2.5-.7-.8-1.6c1.9-1.2 2.6-1.1 3.4.2m-167.8 5.1q-.5 1.1-.6-.6t.5-1.3c.3.3.4 1.2.1 1.9m2.9 5.3c-.7 2.7-2.6 3.4-2.6 1 0-2 2.4-5.8 2.8-4.5.2.6.1 2.2-.2 3.5m-7.6-.1c0 1.7-1.4 2.9-2.3 2s.3-3.4 1.4-3.4q.8.1.9 1.4m-6.5 4.7c-.8 1.2-3.5 1.2-3.5 0s2.2-2 3.3-1.4q.6.5.2 1.4m9.7 4.2q3.9 10 1.2 11.1c-2.4.9-3 .1-4.4-6.3-1.9-9.2.2-12.5 3.2-4.8m7.8 1.5q1.4 4 3.4 4.4c1.9.3 1.8.5-.7 2.1-2.7 1.7-2.7 1.7-3.7-.8-.6-1.5-1-3.7-1-5s-.4-2.7-1-3c-1.4-.9-1.2-2.7.3-2.3.6.3 1.9 2.3 2.7 4.6m-15 3.4 1.7 6.5q.4 1.3-2 1.3c-2.7 0-2.7 0-4.2-9.3-.5-3.2-.3-3.7 1.3-3.7 1.4 0 2.1 1.3 3.2 5.2M10 830.4c0 1.5-1.4 3.5-2.1 3-1.5-.9-1-3.4.6-3.4q1.4 0 1.5.4m5.7 4.2c-.9.9-2.8-.6-2.1-1.8q.6-1 1.7.1 1 1 .4 1.7m62.1-.8c.4 1.4-4.4 3.7-10.2 4.7-5.3 1-4.5-1.2 1.5-4.2 4.7-2.4 8-2.6 8.7-.5m-55 4.6q.4 3.9-.9 3.4c-.6-.2-1.3-2.1-1.5-4.2q-.3-3.8.9-3.3c.7.2 1.3 2.1 1.5 4.1M9 839q0 .9-1 1a1 1 0 0 1-1-1q.1-1 1-1t1 1m22 .1q.1 1 2.9.4c4.2-.9 10.1.4 10.1 2.2q.1 1.7-2.2.9a47 47 0 0 0-7.6-1c-5.7-.4-6.8-.9-5.7-2.5.8-1.4 2.5-1.4 2.5 0m20 2.5q0 1.3-1 .9-.9-.6-1-1.6.1-.8 1-.9 1 .1 1 1.6"/><path d="M226.3 264.2c-1.8 2.1-1.9 2.6-.7 5.3.7 1.6 1.3 2.6 1.4 2.2 0-.5 1.3.1 2.8 1.2l2.9 2 1.7-4q3-6.6-1.2-3.8c-1.1.7-2.7.9-3.8.4q-2.2-.7-.4-1.3c1.9-.6 3-2.3 2.4-3.4-.9-1.4-3-.8-5.1 1.4m22.7 20.7q.1 1 1 1.6 1 .4 1-.9 0-1.5-1-1.6-.9 0-1 .9m15.2 38.3c-1.4 1.4-1.6 15.8-.3 15.8s1.8-1.9 2.6-9.2q1-9.9-2.3-6.6m5.8.8c-1.4 2.6-.2 15.2 1.4 14.7 1.4-.5 2.1-16.7.7-16.7q-1 .2-2.1 2m-14.8 1.3c-2.6 3.1-4.9 34.6-2.6 35.4q1 .2 1.8-10c.3-5.8 1.3-13 2.1-16.1 1.7-6.5 1.9-9.2.6-10q-.9-.4-1.9.7m-10.6 7.9c-.6 2.7-1.4 8.3-2.2 15.4q-.6 5.2.6 5.9c1.9 1.2 2.4-.2 3.1-8.8.4-4.5 1.1-9.7 1.4-11.5.6-2.6.4-3.2-.9-3.2-.8 0-1.8 1-2 2.2m25.2 14.8c-.4.8-.9 7.8-1.1 15.5s-1.2 20.1-2.1 27.5a513 513 0 0 0-3.6 45.2c0 5.5.3 6.8 1.6 6.8 1.2 0 1.5-1 1.3-4.8-.4-8.5 1.2-33.4 3.1-49.2 1-8.5 2-19.8 2.2-25 .4-9.9-.4-18.6-1.4-16m-9.2 2.2c-.2.7-1 8.3-1.6 16.8a417 417 0 0 1-5.9 54.8c-1 5-.3 9.4 1.3 8.9.6-.2 1.2-1.9 1.4-3.8l1.7-14.4c1.9-14.7 5.9-55.2 6-61.4 0-1.9-2.4-2.6-2.9-.9m16 6.9c-.7 2.5-3.5 28.2-4.1 37.9a113 113 0 0 1-1.5 13.5c-1.7 6.6-2.5 37.1-1.1 38q1.2.6 1.8.1c.3-.3.8-7.4 1-15.8s.8-18.5 1.3-22.3 1.5-12.6 2-19.5 1.4-16.7 2-21.9q1.2-9.5.1-10.4t-1.5.4m-33 14.6c-.7 6-2.9 32.4-3 37.8q-.2 4.2 1.4 4c1.2 0 1.7-2.6 2.6-12.5 2.2-24.3 2.5-34 1-34q-1.4.1-2 4.7m7 .5c-.9 7.8-1 27.7-.3 28.5 1.8 1.8 2.6-2.4 3.1-17.5.5-13.5.4-16.2-.8-16.2q-1.4 0-2 5.2m19.1 77.5c-.4.3-.7 3.7-.7 7.5 0 5.2.3 6.8 1.4 6.8q1.5 0 2.1-5.4c.9-7.1-.4-11.3-2.8-8.9M426 388.5c-1.4 1.6-.5 3.5 1.6 3.5 1.5 0 2-3.5.5-4.4q-.9-.4-2.1.9M410.5 378q.6.9 1.1 1 .4-.1.4-1-.1-1-1.1-1-.8 0-.4 1m-37.3 64.7c.4 2.1 3.3 2.5 3.3.3q-.2-1.4-1.8-1.8-2-.5-1.5 1.5m-.8 7.4c-.9 1.6 1.2 3.3 3.1 2.5 1.4-.5 1.5-.9.5-2.1q-2.2-2.7-3.6-.4m103.1 135.8c-.7 1.2 1.2 2.4 2.5 1.6 1.1-.7.4-2.5-1-2.5q-.8 0-1.5.9m9.2 28.8c-1.4 1.3-.6 5.3 1.2 6.2 1.4.8 2.3.6 3.6-.9 1-1.1 2.4-2 3.2-2q1.2-.2 1.3-2c0-2.1-2.4-2.7-3.6-.9q-.5 1.2-1.7 0c-1.2-1.2-3-1.4-4-.4M304 679q0 2 1.3 1.7 1-.5 1.2-1.7c.2-1.2-.6-1.5-1.2-1.8q-1.2-.2-1.3 1.8M63 309.1a49 49 0 0 0-43.3 29.8A49.3 49.3 0 0 0 39.9 402a50 50 0 0 0 27.7 7.3 34 34 0 0 0 16.9-3.4 65 65 0 0 0 21.2-14.8 50.3 50.3 0 0 0-23-79.3 33 33 0 0 0-19.7-2.7m21.8 8.5a45.5 45.5 0 0 1 23.8 57.8 33 33 0 0 1-9.5 14.6 45 45 0 0 1-22.9 13.4 41 41 0 0 1-36.7-7.5A44 44 0 0 1 21 359.5a45 45 0 0 1 63.8-41.9"/><path d="M64.2 322.7 60.1 333 56 343.7c-.9 2.1-1.6 2.3-12.7 2.5s-11.8.4-11.8 2.3q0 2 6.5 6.2c11.9 7.8 11 6.7 9.5 11.6-.7 2.4-2.5 6.8-4 9.6-2.6 5.3-3 9.1-.9 9.8.6.2 5.9-2.8 11.7-6.7 5.8-3.8 11.3-7 12.3-7 1.7 0 7.9 3.4 10.2 5.7.7.7 1.7 1.3 2.2 1.3.4 0 3 1.8 5.6 4 5.4 4.4 6.2 4.7 7.1 2.5.5-1.5-2.8-12.8-6.1-20.6-1.9-4.4-1.4-5.1 6.9-10.7 7.1-4.7 9.2-6.9 7.9-8.2-.5-.5-6.1-1.1-12.3-1.2l-11.4-.3-1.7-5c-2.8-8-7.8-18.5-8.9-18.5q-1 .2-1.9 1.7m5.2 12.8c1.4 3.6 2.6 7.1 2.6 7.9 0 1.9-10.6 3.7-12.2 2.1-.7-.8 5.2-16.5 6.2-16.5.4 0 2 2.9 3.4 6.5m25 13.4c.5.8-9.8 8.1-11.5 8.1-.8 0-2.9-4.7-2.9-6.5q0-1.3 4.8-1.8l6.9-.5c1.2-.1 2.4.2 2.7.7M77 353.6a30 30 0 0 1 2 5.8c-.1.6-2.5 2.7-5.4 4.7l-5.3 3.6-7.2-3.4c-5.6-2.7-7.2-3.9-6.7-5.1 3.3-10.3 2.6-9.8 14.3-10.1l6.2-.1zm-24.8-3c1.1 1-1.6 6.4-3.2 6.4-1.9 0-9-4.7-9-6 0-1 11.3-1.4 12.2-.4M83.6 370c1.4 3.5 2.3 7 2.2 7.8q-.4 1.2-7.6-3.9c-4-2.8-7.1-5.3-6.8-5.6 2-2.1 7.3-5.2 8.5-5 .7.1 2.4 3.1 3.7 6.7m-25.3-3.1c2.6 1.2 4.5 2.6 4.2 3.1-.8 1.3-14.3 10-15.5 10-1.3 0-1.4.2 1.4-6.6l3-7.7q.5-1.7 1.4-1.5zM426 311.5q.1 1.4 1 1.5 1-.1 1-1.5c0-1.4-.4-1.5-1-1.5q-.9.1-1 1.5M75.6 510c-.3 2.2-1.1 4-1.6 4q-1 .2-.9 1.7 0 1.7.6.5c.2-.6 1.1-1.2 1.8-1.2 2.5 0 3.6-3.5 2.1-6.4l-1.3-2.6zm346.1.7q-1.9 2.1 1.6 2.3c2.5 0 4.2.9 12.1 6.4a28 28 0 0 0 16.9 5.6c6.3 0 4.1-1.7-2.9-2.3-6.3-.5-6.9-.7-11.8-5.5-5.9-5.8-13.6-8.9-15.9-6.5m-23.4 4.8q-.5 1.5.1 2.2.5.6-.6 2c-1.7 2.1.4 3.7 4.7 3.5 4.8-.2 5.7-.9 4.5-3.2q-1.1-1.9 1-2.3c2.7-.7 2.5-2.3-.2-3.1-4.3-1.1-8.8-.7-9.5.9M58.5 521q.5.9 1.1 1 .4-.1.4-1-.1-1-1.1-1-.8 0-.4 1m67.2 1.8c-3.3 3.4-3.3 3.7-.2 5.8 2.3 1.5 2.7 1.5 4.9 0 3-1.9 4.2-5.2 2.6-7.1q-2.8-3.4-7.3 1.3m4.3 1.1c0 1.2-2 2.5-2.7 1.8s.6-2.7 1.8-2.7q.8 0 .9.9m270.2 1.8q-2 .5-1.6 1.4c.3.6.3 2.2-.1 3.6q-.5 2.8-1.8 1.4c-1.5-1.5-2.7-1.4-2.7.4q-.1 1.3-.8 1.5c-.5 0-2 1.8-3.5 4.1q-4 5.8-2.1 10.3c1 2.6 2.7 1.8 2.2-.9-.6-2.9.7-4.2 2.6-2.6q1.3 1 1.9.5c1.2-1.3-.2 5.8-1.5 7.3-1.4 1.7-1.2 5.2.2 6.7q.9.6 1.5-1.7c.4-1.5 1.5-2.9 2.5-3.2a4 4 0 0 0 2.5-2.6c.7-2.1 2.5-2.6 2.5-.7q0 1.3 1.2 0 2.6-2.5 2.9.5.1 1.6 1.4-1.3c2-4.5 10.5-11.6 10.5-8.8q-.1.7-1.6 1.9c-.9.6-2 3.2-2.4 5.6s-1.4 5.8-2.1 7.6-1 3.5-.6 3.9c.9.9 5.7-2.4 5.7-3.9 0-2.5 2.4-6.4 4.5-7.3 3-1.3 2.4-7.8-1-11-1.4-1.3-2.5-3-2.5-3.7s-.8-2.5-1.8-3.7c-1.6-1.9-2.4-2.2-5.6-1.6-3.5.7-6.2 3.6-3.9 4.3.6.2-.3 1.8-1.8 3.4-1.6 1.7-2.9 4.2-2.9 5.5q0 2.3-1.5 2.4-1.6.2-1.5-4.4c0-2.5.5-4.8 1.1-5.1q1-.7.5-2.1c-.5-1.4 1.4-3.9 3.6-4.6 1.2-.4.4-3.9-.9-3.7zM414 537c0 .9-1.1 2.2-2.5 2.8-3.6 1.7-3.8 1.5-2-1.2q1.8-2.5.4-3.1-1.2-.8.2-1.6c1.7-1 3.9.8 3.9 3.1m27-9.2q0 .8.9 1.7c.5.6 1.3 2.5 1.8 4.3 1 4.2 2.9 3.8 2.6-.6-.2-3.1.9-4.3 2.2-2.2.7 1.2 3.5 1.3 3.5.2 0-1-7.1-4.2-9.3-4.2q-1.6.1-1.7.8m-315.2 6.3c-2.2 1.2-2.3 3.8-.2 6.7 1.9 2.8 5.3 2.8 8.2.2 2.6-2.5 2.7-2.9.6-5.8-1.6-2.4-5.6-2.9-8.6-1.1m5.7 3.9c0 2.2-2.9 1.8-3.3-.3q-.5-2 1.5-1.5 1.7.5 1.8 1.8m315.1 7.1-1.6 11.1c-1 7.8-1 10.1 0 11.3 1.6 2 3.3.8 2.7-1.9-.3-1.1-.2-6.2.2-11.1.4-5 .4-9.4 0-9.9q-.8-.7-1.3.5m-72 5.1c-.3 1.7-.2 3.6.4 4.2q1 1 1-3.2 0-7.5-1.4-1m8.9 2.8q-.4.9.4 1 1-.1 1.1-1 0-1-.4-1t-1.1 1"/><path d="M399.4 556.5c-1.1 2.7.2 3.7 1.4 1.1q1.1-2.5.1-2.6-.9.2-1.5 1.5m-349.9 9.2c-3.8 2-7.5 5.3-7.5 6.8 0 .6-1.3 2.4-3 4-3 2.8-3.9 5.5-2 5.5s1 2-1.2 2.9c-4.3 1.7-7.9 6.7-10.3 14.2l-4.4 13.1q-3.5 9.5-1.1 8.6a58 58 0 0 0 5.4-13.4c5.2-15.5 6.3-17.5 9.1-16.8 1.7.4 2.5-.4 4.5-4.3 1.3-2.6 2.4-5.5 2.3-6.4s1.3-2.4 3.3-3.5c2.7-1.5 3.4-2.4 3-4.1-.5-1.8.1-2.4 3.9-4 2.5-1 4.5-2.4 4.5-3.1 0-1.6-2.9-1.5-6.5.5m410.6.5c-.9 2.4.4 5.2 2 4.2 1.2-.7 1.1-5.1-.1-5.9q-1-.4-1.9 1.7m-406.6 3.9q-.6 1-.3 1.4c.8.8 13.8-.8 13.8-1.6 0-1.3-12.8-1.1-13.5.2m1 5.8q-.4 1 .2 1.4c1.3.7 8.3-.5 8.3-1.4 0-1.2-7.7-1.2-8.5 0m356.5 1.7c-.6 1.4-1 3.2-1 4q0 1.3-1 1.4c-.5 0-1-1.3-1-2.9 0-5.4-3.1-4.6-4.5 1.2-.9 3.2-1.6 3.4-3.3.6-1.1-1.6-1.6-1.8-2.7-.9q-1.4 1.2-.9 3.5.6 2.2-1.1 2.9t-2.2-1.4q-.7-3.4-3.1-.8c-2.1 2.1-1.4 4.8 1.5 5.9 2.2.8 3.6.6 6.9-1 2.3-1.2 5.7-2.1 7.6-2.1s3.9-.5 4.6-1.2q1.3-1.4 1.2.8c0 1.1 1.1 3.1 2.4 4.3 2.4 2.2 2.7 2.3 7.6 1q8-2 5.1-5.2-1.1-1.3.9-3c2.3-2 2.7-5.7.6-5.7-.8 0-2 1.5-2.7 3.4-1.1 3-1.5 3.3-3.2 2.4-1.6-.8-2.3-.6-3.6 1-1.4 1.8-1.9 1.9-3.3.8-1.8-1.4-2.4-3.6-1-3.6.4 0 1.3.5 1.8 1 1.5 1.5 3.1-.6 3.9-5.3.6-2.9.4-3.7-.8-3.7q-1.4.1-2.8 1.6c-1.1 1.4-1.3 1.4-2.1 0q-2-3.5-3.8 1M47.5 580q-.4.9.4 1 1-.1 1.1-1 0-1-.4-1t-1.1 1m14 1q-.4.9.4 1 1-.1 1.1-1 0-1-.4-1t-1.1 1m67.2 1.8c-2.2 2.4-2.1 5.5.1 7.5q3.6 3.3 6.5-.1c2.3-2.5 2.2-6.9-.2-8.2-2.8-1.5-4.6-1.2-6.4.8m4.6 4.3c-1.7 1.7-3.7.1-2.2-1.7q1.2-1.6 2.3-.4 1 1-.1 2.1m298.7-3.2q-2.1 4 .5 4.1c1.7 0 3.9-3.6 3-5q-1.6-2.3-3.5.9m4 4.2c-.7 1.1-.9 2.4-.5 2.7.9.9 4-1.3 4.3-3.2.5-2.3-2.5-2-3.8.5m-53.5 1.9c-.4 1.1-.4 3.8 0 5.9.6 3.6.4 4-2.3 5.3s-3 1.3-3.9 0c-1.1-1.8-3.3-.8-3.3 1.4q.1 1.3 1.6 2.1c.8.3 2 1.6 2.5 2.9 1.6 4.5 5 2.2 9.1-6.1 2-4 1.1-12.8-1.4-13.3q-1.6-.2-2.3 1.8m-342 1.1q-.6 1-.2 1.6c.7.7 2.7-.6 2.7-1.8s-1.7-1.2-2.5.2"/><path d="M376.7 591.6c-1.3 1.3-.7 4.1 1.2 6.5 2.7 3.3 4.6 1.5 3.4-3.2-.9-3.2-3.1-4.8-4.6-3.3m-345.5 7.7a12 12 0 0 0-1.8 4.2 32 32 0 0 1-2.1 5.9 61 61 0 0 0-4.3 15.3q-.1 1.9 1.5.3c.8-.7 1.5-2 1.5-2.9 0-1.6 1.3-5.4 5-15.1l2.7-7.3c.6-2-1-2.3-2.5-.4m99.5 1.5c-4.6 5.1 1.4 11.3 6.7 7.1 3-2.3 3.3-5 1-7.3a5.4 5.4 0 0 0-7.7.2m5.3 2.5q0 1.4-.7 2c-.9.9-3.4-1.3-2.7-2.4.8-1.4 3.4-1.1 3.4.4M10.7 625.7c-.4.3-.7 1.6-.7 2.8s-.8 3-1.9 3.9-2.6 4.2-3.6 7.3-2.4 6.8-3.1 8.2c-1.9 3.5-1.8 6.2.1 5.5q1.3-.7 1.5-1.5.3-1.3 2.1-4.1l2-3.3-.6 5c-.4 2.7-1.3 8.5-2.2 12.7q-2.5 12.7.6 13.6c1 .3 1.2-.2.9-2.3-.3-1.5-.2-4.1.3-5.7s.9-5.3 1.1-8.1c.1-2.9.5-5.7.9-6.2s1-3 1.4-5.5 1.6-6.7 2.6-9.4q3-8.3-.7-4c-1.7 2.1-1.6 1.6.9-3.9q2.5-5.5-.2-5.7-.8 0-1.4.7m356 2.3q.6 1.8 1.4 2c1.1 0 1.1-.3.3-2.4-.9-2.3-2.3-2-1.7.4m-348 5.7c-1.1 2-1.6 6.3-.8 6.3.7 0 3.1-5.1 3.1-6.6 0-.7-1.9-.4-2.3.3m362.6 16c-2 .7-1.5 3.1.7 4.3s4 .6 4-1.5c0-1.7-3-3.4-4.7-2.8m-3 6c-2.2.8-1.4 3.1 1.3 3.7 3.4.9 5.2-.7 3.4-2.9-1.3-1.5-2.5-1.7-4.7-.8m-.9 8.4c-.3.6-.1 1.6.4 2.1 1.3 1.3 4.5-.8 3.6-2.3-.7-1.2-3.1-1.1-4 .2m-3.2 4q.4 1 1.3 1 1.2 0 1.3-1t-1.3-1.1c-1.5-.1-1.5.5-1.3 1.1m-5.5 5.5c-1.4 1.4-.7 3.5 1.1 3.2q1.5-.5 1.7-1.7c0-1.6-1.8-2.5-2.8-1.5m-5 7.8c-.7 1.9 1.8 4.2 2.8 2.6.8-1.3-.1-4-1.4-4q-.9.1-1.4 1.4m-6.4 5.2c-.8 2.1 2.3 5.2 3.8 3.7q1.2-1 0-3.2-2.3-3.8-3.8-.5m-344 1.9q-.6 1.4-1.9 1.1c-2.2-.8-6.4 1.8-7 4.4-.3 1.4-.9 3.3-1.5 4.2-1.2 2.4-1.2 2.8.6 2.8q1.4 0 1.5 2.4c0 3 2.6 5.4 4.2 3.8q1-.9 2.3-.6c.7.3 2-.4 2.8-1.6l1.5-2.2.7 2.1c.9 2.9 2.5 2.6 2.5-.3 0-1.3.6-2.6 1.3-2.9q1.3-.4-.8-2.1c-1.9-1.5-1.9-1.7-.2-2.7q3.4-2.1-.5-3.3l-2.3-.6 2.3-1.9c2.4-2.1 2.2-2.5-2.1-3.5q-2.8-.7-3.4.9m.7 6q0 1.3-.9 1.5c-1.3 0-2.2-1.6-1.4-2.4 1.1-1.1 2.3-.6 2.3.9m1 5.5q0 .9-1 1a1 1 0 0 1-1-1q.1-1 1-1t1 1m336.4-10.7c-1 2.8 0 8.2 1.6 8.2 2.1 0 2.6-6.8.6-8.4-1.3-1.1-1.7-1.1-2.2.2m-19.2 10.9q-2.6 2.7.6 2.8 3.6 0 2.5-2.6-.8-2.6-3.1-.2m-297.5 6.4c-.4.4-.7 3-.7 5.8 0 3.8.7 6.3 2.8 9.7 3.7 6.3 7.7 10.9 9.6 10.9 2.3 0 2-.6-2.3-5.8-4.7-5.8-5.3-7.2-6-14.6q-1-8.3-3.4-6m292.9 2.3c-.9 1.5 2.3 3.6 3.6 2.3.5-.5.7-1.5.4-2.1-.9-1.3-3.3-1.4-4-.2m-.6 5.1q-1.6.9-.4 2.7c1.5 2.4 3.3 2.8 4 .8.9-2.3-1.6-4.7-3.6-3.5m-2.7 8.2c.7 2.7-1 5.2-4.1 6.2-2.5.8-2.9 2.4-.7 3.2s1.8 3.3-1 4.4-3.4 3-.9 3c1.2 0 1.4.8.9 4.7-.4 2.7-.9 5.7-1.2 6.8-.4 1.1-.7 3.8-.7 6q-.2 4.2 1.4 4 1.4.2 3.3-7.5l3.4-14a67 67 0 0 0 1.8-10.8c.2-2.3.5-4.6.9-4.9 1.3-1.4.5-3.3-1.5-3.3q-2.4-.2-1.6 2.2M30.5 722q-.4.9.4 1 1-.1 1.1-1 0-1-.4-1t-1.1 1m86.8 1.7c-2.3 1.5-3.1 4.3-1.4 4.3.5 0 1.9-.9 3.2-1.9 3.1-2.5 1.4-4.6-1.8-2.4m-85.8 2.6q-2 1.5-.6 2.2 1.3.6 3.4-1.4 2.5-2.2.6-2.1a8 8 0 0 0-3.4 1.3m3.9 3.1q-1.6 1.4-1.1 2.2c.5.8 1.5 0 2.4-.9 2.2-2.1 1.2-3.1-1.3-1.3m295.2-.6q-.4 1 .5 1.7c1.5 1 2.5-.3 1.2-1.6q-1-1-1.7-.1m-210.9 3c-2.5 2.6-3.5 5.2-2.1 5.2s7.4-5.4 7.4-6.6c0-2.3-2.4-1.6-5.3 1.4m-81.2 2.3c-1.2 1.9.5 2.3 2.2.6 1.6-1.6 1.6-1.7.1-1.7-.9 0-2 .5-2.3 1.1m288.6.3q-2.1 2.6 3.2 2.6c3.3 0 3.3-1.9 0-3.1q-2.1-.7-3.2.5m-205.5 3.5q-1.8 1.9-1 4.5.9 4.4 3.4 1.1c.7-.8 2.1-1.5 3.1-1.5q3.8.2-.5-3.8c-2.9-2.7-2.9-2.7-5-.3M45 742.5c-1.8 3.4-.3 4.5 2 1.5s2.5-4 .7-4c-.8 0-2 1.1-2.7 2.5m9.5-1.6c-.3.5 1.5 2.6 4 4.7 4.3 3.5 4.5 3.8 2.9 5.5-2.6 2.9-1.2 4.3 1.9 1.9 1.6-1.2 3.1-1.9 3.5-1.6.3.4-.7 1.8-2.3 3.1q-3.2 2.4-1.9 3.5c.8.8 1.9.4 4.2-1.5 2.5-2.1 3.5-2.4 5-1.6 3 1.6 3.2 3.5.6 6.7a17 17 0 0 0-2.4 3.6c0 1.5 2.4.8 4.7-1.4 2-1.9 2.5-2 3.3-.8 1.5 2.3 1.2 3.6-1.5 6.8-2.9 3.5-2.1 5.1 1.1 2.1 1.2-1.2 2.7-1.9 3.2-1.5s2.1 3.9 3.6 8c2.6 7.1 5.1 10 6.2 7.2.6-1.5-4.1-13.6-8.5-22.4-3.3-6.4-6.3-9.5-17-17.6-7.4-5.5-9.4-6.5-10.6-4.7m271.5.5c0 1.5 3.7 2.9 5.2 2 1.3-.9-1.2-3.4-3.3-3.4q-1.8.1-1.9 1.4m-274.5 4.7c-1 1.5.3 2.5 1.6 1.2q1-1 .1-1.7-1-.4-1.7.5m74.8 1c-3.3 2.1-4.3 3.9-2.2 3.9 1.7 0 7.9-4 7.9-5.1 0-1.5-2.3-1-5.7 1.2m198.4.5c-1.1 1.2.3 2.4 2.9 2.4 2.7 0 3.2-1.5.8-2.4-2-.8-2.9-.8-3.7 0M131 751.7c-2.3.8-7 5.5-7 7 0 1.7 1.7 1.7 2.7-.1a15 15 0 0 1 4.6-3.6c5-2.9 4.8-5.2-.3-3.3m193.7 2.9c-1.3 1.3-.7 2.4 1.4 2.4q1.8 0 1.7-1.2c-.5-1.4-2.2-2.1-3.1-1.2"/><path d="M67.7 758.8c-3 3.1-3.3 4.2-1.4 4.2 1.6 0 5.7-4.2 5.7-5.8q0-2.9-4.3 1.6m63.2 2.4c-5.5 3.9-6 4.6-5.7 8.3.4 4.1 2 3.5 3.6-1.2a10 10 0 0 1 5.2-6.2c4-2.2 5.2-4.1 2.7-4.1-.8 0-3.4 1.4-5.8 3.2m-52.1 17c-2.6 1.8-3.8 4.8-2 4.8 1.4 0 5.4-4.8 5.1-5.9-.2-.5-1.6-.1-3.1 1.1m387.2 1.3c-1.5 1.8-1.4 1.8 7.4 1.5q7-.2 6.2.9c-.4.6-3.3 1.1-6.5 1.1-6.6 0-8.9 1.3-9.3 5.5-.3 2.5-.8 3-4.2 3.7-8 1.7-8 4.7 0 6.7q8.4 2.1-.9 4.8c-2.5.7-4.9 1.8-5.3 2.5-1 1.5 3.2 4.8 6.2 4.8 1.3 0 2.4.4 2.4 1q-.1.9-2.1 1c-4.9 0-8.8 4.5-6.9 8 1.8 3.3 4.2 2.5 3.8-1.2-.3-2.7.1-3.3 2.4-3.9q2.6-.6 3.6.4c.4.7.8 9.2.7 18.9 0 9.8.3 17.8.7 17.8 1.6 0 2.1-3.2 2.5-19.3.3-9.5.7-17.4.9-17.6s5.9-.5 12.5-.7c10.6-.2 12.5-.5 14.2-2.2 1.9-2 1.9-2-.4-3.3-1.5-.9-7-1.6-14.4-1.9s-11.8-.9-11.5-1.5 2.1-.9 4-.7c1.9.1 4.6 0 5.9-.3 4-1 .8-2.8-4.8-2.8q-5.1 0-5.1-1.2 0-2.5 13.9-2.5c7.1-.1 7.5-.2 5.6-1.6-1.5-1.2-3.9-1.5-10-1.2-4.9.2-8-.1-8-.7s2-1 4.5-1c6.3 0 6.2-1.8-.2-3-4.3-.8-5.3-1.4-5.3-3s.9-2.1 6.7-2.6q13.3-1.1 8.2-6.3c-2.1-2.2-15.6-2.3-17.4-.1m-2 15.9c0 1.1-1.9 1.5-2.5.6q-.4-.9.9-1 1.5 0 1.6.4m-1 11.6q-.2.9-2 1c-1.8.1-2-.5-2-1q.2-1 2-1c1.8 0 2 .4 2 1m26.4 5.1a61 61 0 0 1-21.4-.1c0-1 11.9-1.7 18.2-1.1 2.1.1 3.5.7 3.2 1.2m-101-26.8c-2.7 1.7-4.9 3.9-5 4.7s-.4 2.2-.8 3c-.3.9.3 4.2 1.4 7.4s2 6.7 2 7.6c0 1 .7 2.3 1.5 3 2.7 2.3 3-1.9.6-9.4-3.1-9.5-3-9-1.7-10.6a20 20 0 0 1 8.4-5c1 0 1.1.4 4.2 11.5l2.9 10.2c.9 3.1.8 3.3-3.5 5.4-3.5 1.6-4.8 1.9-5.9.9-1.6-1.3-3.5-.5-3.5 1.5 0 5 11.8 2.6 15.1-3 1-1.7 1.8-4 1.8-5.3.1-1.3 1.5-3.5 3.2-4.9 4.3-3.7 5.3-6.6 3.3-10.6-4.1-8.6-4.9-9.7-6.3-9.7-.8 0-2.6 1-3.9 2.2l-2.4 2.3-1.5-2.3c-2.1-3-4.2-2.8-9.9 1.1m-309.7 1q-5.8 4.8-2.4 4.7c1.7 0 8.1-6.6 7-7.3-.4-.3-2.5.9-4.6 2.6m-.6 8.8c-3.4 3-3.9 3.9-2.4 3.9 2.1 0 9-6.5 7.6-7.3-.4-.3-2.8 1.3-5.2 3.4m6.4 23.9c-.8 1.3.3 5 1.5 5 .5 0 1.4-.8 1.9-1.8 1.5-2.7-1.8-5.8-3.4-3.2"/><path d="M472.1 819.6c-2.6 1.9-2.7 3-.2 4.4 1.5.7 2.3.6 3.5-.6 3.4-3.3.6-6.5-3.3-3.8M443 850q-1.2 2.2-.2 3.2t2.2-1.2.2-3.2-2.2 1.2m4 4.1c-.6 1.1-1 3-.8 4.2.3 2 .6 1.9 2.5-1.2q3.1-5 .3-5.1-1 .1-2 2.1m5.4 4.4c-.4 1.4-.3 2.9.1 3.3.8.8 3.5-2.6 3.5-4.5 0-2.4-2.9-1.4-3.6 1.2m30 5.9c-.9 2.3 0 6.9 1.4 7.4q1.2.5 1.2-4.2c0-4.4-1.5-6.2-2.6-3.2m6.3 4.3c-1.3 1.2-.7 3.3.8 3.3q1.4-.2 1.5-2c0-2-1.1-2.6-2.3-1.3"/></svg>