<svg xmlns="http://www.w3.org/2000/svg" width="666.7" height="1170.7" viewBox="0 0 500 878"><path d="M406.1 2.7c2.3 6-2.3 11.4-14.6 17.1a52 52 0 0 0-28.6 30.8 51 51 0 0 0 14.3 53.8 54 54 0 0 0 24.9 13.5c3.8 1 7.4 2.2 8 2.8s1.2 6.4 1.6 13.1c.5 10.5.3 12.2-1 12.2-2.9 0-17.3 8-22.4 12.5a57 57 0 0 0-17.8 44.9 67 67 0 0 0 18.1 34.7c3.9 3.5 13.8 9 19.9 11l5 1.6-.1 12.8v12.8l-6.1 2.3a60 60 0 0 0-35.8 40.6c-2 7.6-1.7 25 .5 30.3 7 16.8 17 28 30.6 34.6l8.2 4 .4 4.7a86 86 0 0 1 0 8.8c-.3 3.8-.6 4.2-5.6 6.6a53 53 0 0 0-27.1 59.3 55 55 0 0 0 33.2 37l.7 22.8.6 22.7-4.8 2.4a53 53 0 0 0-26.7 58.1 54 54 0 0 0 26.2 34.3l6.2 3.3v19.4c-.1 10.8-.5 19.5-1 19.5s-.9-.6-.9-1.4c0-2.3-2.1-3.1-9-3.2l-14.3-.3-7.8-.1.6-5.4c.6-4.2.3-6.1-1.3-9.2-3.6-7.1-7.8-9.1-20-9.7-3.9-.2-7.3-.6-7.3-.8-.1-.2.3-2.2.9-4.4s.9-6.5.7-9.5c-.8-13-1.8-14.9-7.8-15.3-2-.2-4-.6-4.4-1.1-.4-.4-.8-3.8-.8-7.4 0-6.6 0-6.7-2.9-7-1.5-.2-4-.1-5.3.3-2.4.6-2.5.8-1.9 5.8 1.5 11 2.2 9.9-7.9 12.4a40 40 0 0 1-11 1.8c-1.1-.2-4.8-2.8-8.2-5.7-5.6-4.6-6.3-5.6-6.3-8.8 0-4.3-2.7-8.9-7.4-12.5q-3.5-2.8-3.6-4.9c0-1.2-.7-3.1-1.5-4.3-1.4-2-1.3-2.4 1.1-4.8 2.2-2.2 2.5-3.2 2.1-6.3-.4-1.9-.1-5.5.5-7.9.9-3.7.8-4.9-.7-7.7-1.7-3.1-1.7-3.6-.3-6.7.9-1.9 3.3-8.6 5.4-14.9 4.3-13 5.5-15 9.5-15 3.6 0 7.6-1.8 8.4-3.8.9-2.4-.2-2.6-1.5-.3q-1.1 2-2.5 2.1c-2 0-2-4.9.1-7.8 2.1-3.1 4.4-2.8 4.4.5s1.5 2.1 2.5-1.8c.6-2.3.1-2.9-3.9-5.3a19 19 0 0 0-6.4-2.6c-1 0-2.7-.9-3.7-2q-1.8-2-6-2c-2.2 0-4.6-.5-5.1-1-1.4-1.4-7-.1-8.9 2-2.8 3.1-3 9.1-.5 12.2 1.2 1.6 3 2.8 4.1 2.8 2.5 0 2.5.2-1.4 10.1-1.8 4.6-4.1 11.2-5.1 14.6-1.1 3.5-2.2 6.3-2.6 6.3-1.1 0-3-4.8-2.5-6.2.2-.7-.7-3.1-2-5.3A66 66 0 0 1 264 532c-1.2-3-3.1-6.5-4.2-7.7-2.6-2.8-1.3-5.2 4.7-8.4 3.5-1.8 5.3-3.6 7.1-7.1 2.5-4.9 3.1-5.3 11-6.1 3.1-.4 5.2-1.5 8.2-4.4l4.1-4-.3-9q-.2-9.3 1.1-10.9c1.9-2.6 1.6-6.8-.7-8.9-1.1-1-2-2.5-2-3.3 0-4.3-6.2-9.9-12.4-11.1-2.4-.5-3.2-1.3-3.4-3.4-.4-3.4-6.7-8.7-10.3-8.7-1.5 0-4.2-.6-6-1.4q-3.3-1.5-5.5-.4a4 4 0 0 1-4 0c-1.1-.6-4.8-.8-8.4-.6-7.8.5-13.3 3.5-18.7 9.9-3.2 3.9-4.2 4.5-7.5 4.5-4.6 0-7.8 2.8-7.8 6.8q.1 3-2.5 4.2a12 12 0 0 0-5.9 12.9c.7 4.9 3.7 9.1 6.4 9.1.9 0 2.9 1.3 4.5 3 2.8 2.9 2.8 3 1 5-1.5 1.7-2.9 2-8.3 1.8l-6.5-.3-2.1 3.9c-2.5 4.8-3.8 5.3-5.1 2.4a6 6 0 0 0-3.5-2.9q-2.3-.6-2.1-2c.3-.8.5-2.8.5-4.4.1-2.6-.3-3-2.9-3.3q-5.8-.6-7.9 5.9c-.9 2.6-1.8 3.5-4.5 4-3 .6-8 5-8.1 7.1s4.1.4 6.1-2.3c2.3-3.3 3.4-3 4.4 1.3.6 2.3.4 2.8-1.1 2.8-4.4 0-19.5 9.8-23.8 15.5-2.9 3.7-6.2 5.3-7.9 3.6-1.9-1.9-4.6-1.2-6.3 1.5-1.3 1.9-2.3 2.4-4.1 1.9a16 16 0 0 0-6.3.5q-7.5 2-.8 7l3.1 2.3-2.6 1.9c-1.5 1.1-2.7 2.8-2.7 3.9 0 1.4-1 2-4 2.5-6.7 1.1-4.7 2.8 2.3 2 5.6-.5 6.6-.4 8.2 1.4s1.7 2.3.5 4.6c-.8 1.4-2.5 3.6-3.8 4.9a42 42 0 0 0-8.7 17.5c-2 6.8-2.5 7.5-5.1 8a6 6 0 0 0-4.2 3.3c-.7 1.5-1.9 2.7-2.7 2.7s-2.6 1.1-4.1 2.4c-2.7 2.3-2.8 2.4-1.1 5q1.7 2.6 4.4 2.6c2.6 0 2.6 0 .8 2.1-1.5 1.6-2.6 1.9-5.6 1.4-3.5-.6-6.9 1.1-6.9 3.5 0 1.7 2.1 2.2 3.7.8 1.9-1.5 8.5-1.8 9.5-.3q.8.9 2-.3c.6-.6 1.5-1.2 1.9-1.2 1 0-1.7 10-3 11.3-.6.6-1.1 2.5-1.1 4.2s-.4 3.5-.9 4a50 50 0 0 0-5.1 15.1c0 1.2-1.5 4-3.3 6.1-3.8 4.7-4.7 7.3-8.3 25.3-1.4 7.4-3.1 14.6-3.6 15.9-.8 2.4-.9 2.4-2.2.5-.9-1.2-1.7-7.6-2.3-18-.8-14-1.3-16.6-3.2-19.8q-3.7-6-4.8-1.6-.5 1.8-1.4 2c-1.1 0-1.1.4.1-6 1.1-5.5.5-9.5-1.1-8.5-.5.4-.9 2-.9 3.7 0 3.4-3.7 9.8-5.7 9.8-1 0-1.3 3-1.3 11.7 0 6.5-.3 14.2-.6 17.1-.7 5.1-.7 5.2-4.1 5.2-1.8 0-4.1-.4-5.1-1s-2.9-1.4-4.3-1.9c-2.2-.8-2.6-1.6-2.7-5.5-.1-2.5.3-5.5 1-6.6 1.5-2.4 1-2.9-3.9-4-3.2-.8-4.1-.6-6 1.2a7 7 0 0 0-2.3 4.5q.2 2.5-2.5 2.3c-2.7-.2-2.6-.7-3.1-2.7-1-4.9-1.3-5.3-3.6-5.3-1.3-.1-3.4-.7-4.8-1.5-4-2.3-5.8-1.8-6.5 1.6-.6 2.7-.2 3.6 2.9 6.8 2 2 3.6 4.1 3.6 4.7s-1.3 2-3 3.2c-3.3 2.5-3.9 4.7-1.4 5.6.9.3 5.8.6 11.1.6 10 0 11.6 1.1 6 3.8-3.9 1.9-3.4 3.8.9 3.3 1.3-.2 2.8 4.5 1.9 5.9q-.6.9-3.2-.1a37 37 0 0 0-7.6-1.4c-4.1-.3-5.7-1.1-8.7-4-3.6-3.5-8.2-4.7-9.5-2.5-1.6 2.6-2.5-.8-2.5-9.1v-9.1l4.5-5.8c2.5-3.2 4.5-6.3 4.5-6.9q-.2-3.7-6 1.7l-4 4v32.3l3-1.6q5.6-2.9 6.6 0c1.1 2.6 6.8 5.2 12.9 5.8 3.3.3 8 1.5 10.4 2.7 3.1 1.6 5.3 2 7.7 1.5 4.3-.8 5.5 1.4 2.5 4.6-1.2 1.3-2.1 2.8-2.1 3.5 0 2.8-4 5.8-9.9 7.4s-6.2 1.7-8.7-.2a11 11 0 0 0-4.8-2.2c-2.1-.1-2.5-.8-2.9-4.8-.8-6.7-2.2-8.8-5.7-8.8-1.7 0-3-.4-3-.8 0-.8-4.3-3.2-5.5-3.2-.3 0-.5 1.5-.5 3.4 0 4.3 2.4 7 5.6 6.2 2.7-.7 3.1.5.9 2.4-1.9 1.6-2 6-.1 6 1.7 0 2.8 3.8 1.2 4.3-.6.2-1.1 1.7-1.2 3.3a14 14 0 0 1-.8 4.6q-.7 1.6 1.2 2.7c1.6.8 2.6.6 4.7-1.1 2-1.5 2.9-1.8 3.8-.9.6.6 2.1 1.1 3.3 1.1 2.8 0 3.4.9 2.3 3.7-.8 2.1-1.3 2.2-10.9 2-8.8-.2-10-.1-10 1.4s1.1 1.7 9.8 1.4a68 68 0 0 1 14 .7c3.1.8 4.6.7 5.6-.1 2-1.6 17.3-1.2 18.8.6q1 1.3.5 1.9c-.5.6-11.4.5-24.6.5C.9 746.9 0 747 0 748.8s.8 2 16.8 1.8c9.2-.2 20.3 0 24.7.3l8 .6v3.5c0 5.1 1 6 6.8 6 7.9 0 8 .3 5.8 10.1-1 4.6-3 12.2-4.4 16.9s-4.2 15.7-6.2 24.5-4.1 17.3-4.6 18.9c-1.8 5.6-1.2 7.6 2.8 9.3 4 1.6 14.6 1.5 16.2-.3.5-.5 2.8-7.6 5-15.9 2.3-8.2 4.5-15.3 4.9-15.7.5-.5 4.2-.3 8.4.3 14.8 2.4 19.3-2.8 22.3-26.1.8-6.1 4.2-17.9 5.7-19.5a350 350 0 0 1 39.1-1.3c21-.1 39.8-.3 41.7-.4 10.3-.4 15.7 1 9.6 2.6-3.9 1-5.6 3.4-5.6 8 0 4.3-.4 5-7.7 14.7-1.8 2.3-3.3 5-3.3 5.9 0 2 10.4 9.9 13.4 10.2l11.1.3c5 .1 11.5.9 14.5 1.8l9.4 2.7c3.9 1.2 7.6 1 19.6-.9 3.6-.6 9.4-1.1 13-1.2 5.8-.2 7.4.3 14.6 3.9q11.7 5.9 16.4 14.7c1.1 2.1 1.2 3.4 0 7.8-2.7 10.8-.4 16.8 8.2 21.1 4.3 2.2 6.6 2.6 13.5 2.6 8 0 8.6-.2 17.9-5a82 82 0 0 1 16.3-6.6 57 57 0 0 0 24.3-11.2c4-3 7.5-6 7.7-6.5a23 23 0 0 1 3.2-4.1c1.7-2 2.9-4.6 3-6.7.4-5.8 1-5.5-17.1-7.5-4.5-.5-6.8-.1-12.4 2-5.3 2-8.6 2.6-15 2.6h-8.2l-1.8-4.1c-2.5-5.6-9.7-7.9-13.6-4.4-1.6 1.4-2.1 1.1-6.1-4.1a154 154 0 0 0-7.5-9 17 17 0 0 1-3.8-5.9 130 130 0 0 0-10.1-19l-2.5-4.7c-.1-1.7 14.8-2.8 32.5-2.3a551 551 0 0 0 62.3-1c.2.1-.3 3-1.1 6.4-2.5 10.6 1.2 24.9 9.9 38.6a55 55 0 0 0 44.1 22.5c12.1 0 21.8-3.5 32-11.7 4.7-3.8 4.1-4.2 5.7 3.7a48 48 0 0 0 5.5 16.7c3.1 2.4 9.1 3.5 12.2 2.2l2.9-1.1v-17.2c0-14.6-.4-18.9-2.6-29.1a269 269 0 0 1-5-30.8c-.5-2.2-.3-2.6 1-2.1.9.3 2.7.3 4.1 0l2.5-.6V0h-33.7c-18.6 0-33.2.4-32.5.8 2.1 1.4.4 4-2.4 3.4-2.1-.4-2.4-.1-2.4 2.5 0 1.6.9 3.9 2 5.1s2 3.1 2 4.2c0 3.2-3.7 1.6-8-3.3-4.7-5.4-5-6-4.2-8.8.6-2.3.6-2.3 1.2.6.8 4.3 3.3 3.9 4.1-.8l.6-3.7H405zm34.9-.5c0 2.4-1.2 5.8-2 5.8-1.3 0-1.8-3.6-.8-5.4 1.1-1.9 2.8-2.1 2.8-.4m5.3 1.8q-1.2 4.1-1.3-.6 0-2.3.9-2c.5.3.7 1.5.4 2.6m18.6.7c1.9 3.8 2.4 8.4 3.7 31.9.6 10.6.5 12.2-1 12.7q-1.5.7-1.6 3.9c-.1 3-.2 2.9-2-2-2.8-7.8-6.6-14-12-19.7l-4.8-5 .7-9.1c.6-6.8 1.3-10 3-12.7 2.1-3.4 2.6-3.7 7.2-3.7s5 .2 6.8 3.7m8 0a206 206 0 0 1 1.4 23.3c.5 19.6 1.3 26 3.4 26.7.8.3.9-3.9.5-15.4-1.1-29-.9-37.8.8-37.8 1.2 0 1.5 2.3 1.7 13.5l.8 46.5c.4 18.7.3 35.4-.3 38.5-.8 4.8-.9 3.7-1.2-9-.1-8-.2-17.4-.1-21s-.3-7.9-.9-9.5c-1.1-2.8-1.2-2.9-2.3-1-.7 1.4-1 12.1-.8 34.6.1 18-.1 33.9-.5 35.3-1 4.1-2.2 3-2.2-1.9.1-2.5-.4-5.1-1-5.7s-.8-1.8-.3-2.7q1-1.8 1.3-43.1c.1-8.3-.2-11-1.1-11-.5 0-1.2 6.5-1.6 14.5-.6 10.9-1.1 14.5-2 14.5s-1.7 1.5-2.1 3.2c-1 4.6-.7 34.5.5 45.7 1.3 12.3.2 18.3-2.9 14.7-.9-1.1-.9-2 0-3.7q1.2-2.2.5-7.3c-.8-5.6-.7-40.9.1-44.1q1-2.7-1.4.4c-1.6 2-2.1 5.2-3 20-.6 9.7-.9 20.4-.7 23.8.5 6.2-.5 8-2.4 4.5-.5-.9-.7-13.3-.5-28.4.3-25.8.4-26.8 2.6-30.7 1.3-2.3 2.5-4.1 2.8-4.1s.4 2 .2 4.5c-.5 6 1.4 5.9 2.9-.1.7-2.5 1.8-4.8 2.5-5.1 1.1-.4 1.4-3.4 1.4-13.3 0-9.2.4-13.1 1.3-13.8 2-1.7 1.5-45.9-.7-53.2L468 1.2q.2-.2 2-.2 2-.2 2.9 3.7m15.7 8.3.5 33.2c.2 11.9 0 22-.4 22.4s-.7 2.4-.7 4.5c0 3 .3 3.7 1.5 3.3q1.6-.8 1.5 2.1c0 2.2-.3 2.5-2 2q-2-.6-2 .6t-.5.7c-.3-.3-.7-18.6-.8-40.7-.2-35.7-.1-40.1 1.3-39.9 1.2.3 1.5 2.3 1.6 11.8m8.1-7.3a393 393 0 0 0-.6 54.7c1.1 2.9.9 3.8-1.2 7.3l-2.4 4-.3-34.4c-.1-18.9 0-34.9.3-35.4q.8-.8 2.7-.9c1.9 0 2 .4 1.5 4.7m-85.3 5.9q1.1 3.3-2.3 3.4-3.8 0-2-3.1c1.2-2.3 3.5-2.5 4.3-.3m9.4 3c-1 1-2.8-.6-2.8-2.4 0-1.5.1-1.5 1.7.1q1.4 1.5 1.1 2.3m21 6.2c2.2.3 3.2 2.2 1.2 2.2-1.4 0-9-3.9-9-4.6q.1-.4 1 .1c.6.4 1.6-.8 2.3-2.7l1.2-3.3.5 4c.4 3.2 1 4.1 2.8 4.3m-10 5.7A45 45 0 0 1 454.5 50a35 35 0 0 1 3 17 42 42 0 0 1-25 40.3 45.3 45.3 0 0 1-62.6-53.1 41 41 0 0 1 21-25.7 43 43 0 0 1 40.9-2m64.9 48.2q-.5 1.4-.5-1.2t.5-1.8c.2.7.2 2.1 0 3m-31.3 10q-3.5 2.8-1.6-2.9l1.8-6.3c.8-2.7.9-2.4 1.2 2.5.2 4.3-.1 5.7-1.4 6.7M488.5 98c.8 0 1.8-1.2 2.1-2.7.7-2.5.8-2.5 2.1-.7.7 1 1.1 2.4.9 3s-.1 8.1.3 16.6c.5 8.7.5 15.7 0 16.2q-.8.8-1-1.5a164 164 0 0 1-1.7-16.9c-.6-7.7-1-9.5-2.3-9.8q-1.7-.3-2.7 2.5c-1 2.6-1 2.4-1.1-2.2 0-2.8.3-6.1.7-7.5l.7-2.5.3 2.7q.4 2.6 1.7 2.8m-35.1 7.2c-.3 1.2-.6 9.7-.6 19s-.1 16.8-.4 16.6a97 97 0 0 1-.9-10.9l-1.1-17c-.4-4.2-.2-7.5.6-8.8 1.4-2.6 3.3-1.7 2.4 1.1m33.6 4.4q-.1 1.3-1 .9-1-.7-.5-1.6 1.4-2 1.5.7m-40 .4q0 .9-1 1a1 1 0 0 1-1-1q.1-1 1-1t1 1m-4.1 27.2q.2 6.5-2.8 1.5c-2-3.1-2.7-23.3-.9-25.4 1.1-1.4 1.5.1 2.5 9.3.6 6 1.2 12.6 1.2 14.6m3.5-22.7q.4 1.4-.4 1.5-1-.1-1-1.5c0-1.4.2-1.5.4-1.5s.6.7 1 1.5m40.9 12.8c-.1 6.1-.5 11.2-.8 11.5s-.5-5.5-.4-12.9.4-12.5.8-11.5c.4 1.1.6 6.9.4 12.9m-4.9 6.2c.6 15.8.5 17.8-.8 16.2-1.1-1.5-1.5-5.6-1.5-19 0-9.5.3-16.6.8-16.1s1.2 9 1.5 18.9m-48.1-11.8c.4 3.2 1 6.8 1.3 8 .9 3.2-.8 2.8-2.9-.6-1.7-2.8-2.4-11.1-1-12.4 1.5-1.5 2-.4 2.6 5m13.1 6.3c.7 12.6 1.7 16.6 3.9 16.4q1.7-.2 1.7 2.2c0 2.8-.5 2.9-5.5.8-3.5-1.4-3.6-1.6-2-3.4 1.5-1.6 1.5-3 .5-13.5-.9-9.9-.7-14.7.5-13.3zm-23.8-7.5q.7 1.3 2 1.5c1.3.2 1.4.9 1.4 2s-.7 2-1.5 2-1.5-.9-1.5-2c0-2.6-2.7-3.7-5.2-2.1q-3.6 2-2.5-1.4c.8-2 6.6-2 7.3 0m45.5 2.8q-1.2 1.2-1.1-.4c0-2 1.3-3.4 1.8-1.9q.3 1.2-.7 2.3M418.6 135c.2 3.9-.1 7-.7 7s-.9-1.9-1-4.3c0-2.3-.4-5.1-.8-6.2-.8-1.9.6-5.1 1.7-4 .3.3.7 3.7.8 7.5m76 2.7q-.7 2-1.6.4c-1.1-1.9-.1-4.6 1.3-3.2.5.5.7 1.8.3 2.8M429 140c2 2.8 2 3 .3 3q-1.8-.1-3-3c-.6-1.7-.7-3-.3-3 .5 0 1.8 1.3 3 3m5.8-.5q-.6.4-1.2-1.2-1-2 .5-.6 1.1 1.2.7 1.8m40.9 2.7q-.5 1-.5-1.2c0-2.2.2-1.9.5-1.3.2.7.2 1.9 0 2.5m-3.8 6.6q0 2-.9 1.7c-.5-.3-.9-2.7-.9-5.3.1-4.2.2-4.4.9-1.7.4 1.6.8 4 .9 5.3m-27.9 4.4c19 8.1 30 23.6 30.1 42.4a49 49 0 0 1-10 31.5 48.5 48.5 0 0 1-73.7 2.6 46 46 0 0 1-8.1-53.7 53 53 0 0 1 35.2-25.8c8.6-1 20.1.2 26.5 3m32.7 1.5q-.5 1.3-.5-1.2 0-2.6.5-1.8c.2.7.2 2.1 0 3m11-1.5q-.5 1.1-.6-.6t.5-1.3q.5.7.1 1.9m-14.8 8.9c-.2 5-1.6 5.6-2 .9-.4-4.4.1-7.1 1.1-6.5.6.4 1 2.9.9 5.6m23.1 21.4c.4 10.1-.1 18.1-.9 16-.5-1.1-.9-9.7-1-19.1s-.4-18.1-.6-19.3-.1-3 .3-3.9c.6-1.5 1.6 10.4 2.2 26.3m-8.1-19.8q-.1 6.4-.8 2.8c-.6-2.9-.3-8.5.5-8.5.2 0 .3 2.6.3 5.7M478 160q0 .9-1 1a1 1 0 0 1-1-1q.1-1 1-1t1 1m.4 14.5c.6 3.8.6 3.9-.7 1.5a8 8 0 0 1-.9-4.3c.6-2.3.8-2 1.6 2.8m11.1 17c-.2 4.4-.3 10.8-.3 14.3-.1 3.9-.7 7-1.6 8.4-1.8 2.5-2.1 6.4-.6 7.3 1.4.9 1.2 2.2-.4 2.8q-1.5.4-3.1-1.9c-1.3-2-1.3-2.8-.3-4.7.6-1.2 1.3-3.6 1.4-5.2l.9-10c.7-7.5 1.1-14.9 1.5-26l.3-7 1.2 7a102 102 0 0 1 1 15m-6.7 6c-.4 11.9-.9 15-2.7 18.7a23 23 0 0 0-2.1 6.6c0 2.3-1.8 3.9-3 2.6-.4-.5.6-4.3 2.3-8.4 3-7.1 3.2-8.2 3.2-21.1 0-11.2.2-13.6 1.4-13.1s1.3 3.2.9 14.7m11.9 9.2q-.5 1.3-.5-1.2 0-2.6.5-1.8c.2.7.2 2.1 0 3m0 13c2.6 3.9.9 4.5-2 .8-2.5-3.1-2.7-3.8-1.5-5.2s1.3-1.4 1.7.3c.2 1 1 2.8 1.8 4.1m-1.8 10.7-.1 3.1-1.3-3.5c-1.9-4.9-1.9-7.1 0-4.6a9 9 0 0 1 1.4 5m-9.9 2.8q0 1.7-2 1.1-2.1-.6-2 1.3c0 1-.8 2.7-1.9 3.8q-5.2 6-4.8 19.4c.5 10.5-.9 11.7-1.8 1.6-.9-9.4 1.3-19.5 5-23.4 1.4-1.4 2.5-3.2 2.5-3.9s.5-2.1 1.1-3.2c1-2 1.1-2 2.4-.2.8 1 1.5 2.5 1.5 3.5m-10-1.5c0 1.4-.7 3.4-1.5 4.3s-2.1 3.4-2.9 5.6q-1.6 4.4-1.5 1.6c-.1-1.3.6-3.9 1.5-5.8s1.4-3.7 1.1-4.1c-.8-.8 1.1-4.3 2.3-4.3.6 0 1 1.2 1 2.7m16 6.7c-.1 3.9-.3 4.7-1.1 3.4-1.3-2.2-2.8-10.6-2-11.3 1.3-1.4 3.1 3.2 3.1 7.9m5.1 3.8c-.8 1.8-1 1.2-.9-3.2 0-5 .1-5.2.9-2.3q.8 3 0 5.5m-29.6-2c-1.1 5.7-1.6 6.8-2.6 6.3-1.5-1-1-5.7.8-7.7 2.3-2.5 2.6-2.3 1.8 1.4m19.5 2.1q0 2.2-3.1 3.9c-3 1.8-3 1.8-2.3-.5.9-3 3.7-6.6 4.7-6 .4.2.7 1.4.7 2.6m-25 10.9.5 20.7q.4 10.3-.5 9.5c-.9-.9-2.1-14.1-2.4-26.6-.1-5.8-2.3-7.9-2.8-2.6-.2 1.8 0 8.2.3 14.3.6 11.9.4 13.2-1.6 11.5-1-.8-1.3-4.5-1.3-14.1.1-7.1-.2-13.2-.6-13.6-1.2-1.2-.6-5.1 1-6.3 1.3-1.1 1.6-1 2.1.8.8 3.2 2.3 2.7 2.3-.8q0-3 1.5-3c1.2 0 1.5 1.8 1.5 10.2m29.3 16c-.8 3.8-1.7 6.8-2 6.8s-.3-3.3.1-7.3l1-10.7c.9-12.7.9-12.7 1.7-4 .5 6.3.3 10.3-.8 15.2m5.4-20q-.5 1.1-.6-.6t.5-1.3q.5.7.1 1.9m-46.6 1.1-.1 3.3q0 2.3-1 1.9c-1.4-.8-1.3-6.8.1-6.3q1 .4 1 1.1M442 254c0 1.6-.4 3.1-.9 3.4-1 .7-2.4-5.2-1.5-6.5 1-1.7 2.4.2 2.4 3.1m36.7 16.5-.2 4-1-4.3a53 53 0 0 1-.6-12l.5-7.7.8 8c.4 4.4.7 9.8.5 12m-57.7-9.3q0 9.4-1 7.8c-1.8-2.7-1.2-17 .7-17 .2 0 .3 4.2.3 9.2m15.8-.1c.2 7.7.1 8.2-1.3 6.5-1.9-2.5-2.2-16-.3-15.4q1.3.5 1.6 8.9m-10.8-5.7c0 1.4-.4 2.8-1 3.1s-1-.7-1-2.4.5-3.1 1-3.1 1 1.1 1 2.4m5 .7c0 1.7-.4 2.8-1 2.4s-1-1.7-1-3.1c0-1.3.5-2.4 1-2.4s1 1.4 1 3.1m63.5 15.6c-.2 3.5-1 7.1-1.7 8.2-.9 1.5-.9 2.3.1 3.5.7.9 1.7 1.3 2.2 1s.9 4.3.9 10.5q0 10.8-1.1 11.7c-.9.5-1-1.9-.5-9 .6-9.4.5-9.8-1.5-10.3-2.1-.6-2.1-.9-1.5-14.2.4-7.5 1-14.5 1.3-15.6 1.1-3.3 2.4 7.1 1.8 14.2m-12.4-.4q-1.1 1.2-1.1-1.4c0-3.3 1.4-4.7 1.8-1.9.2 1.2-.1 2.7-.7 3.3m-57.4-2.1q-.5 1.1-.6-.6t.5-1.3q.5.6.1 1.9m47.1 14.6c-.3 1.4-.7 1.2-2.1-.9-1-1.5-1.5-3.4-1.1-4.4.6-1.5.9-1.4 2.1.9.8 1.5 1.3 3.5 1.1 4.4m12.2-3.9c0 2-1.7 3.7-2.7 2.8-.7-.8.7-4.7 1.8-4.7q.8.2.9 1.9m-5 1.1q0 1.8-1 2-1-.2-2-2c-.9-1.7-.8-2 1-2q2 0 2 2m-40 2.5c6.6.7 17 6.6 23.1 13.1a50.6 50.6 0 0 1 3.8 67.7 49 49 0 0 1-53.4 16.3 50.8 50.8 0 0 1-30.6-69.8 56 56 0 0 1 16.7-19.8c1.6-.8 4.6-2.6 6.7-3.9 7.6-4.9 14.8-5.6 33.7-3.6m49.6 8.4q-.6 9 .9 17.7a147 147 0 0 1 1.1 30.2c-.3 11.8-.7 21.6-.9 21.9-1.1 1.1-2.4-25.5-2.7-54.6a73 73 0 0 0-1.3-17.2c-.8-1.3-.7-2.3.6-4.3 1-1.4 2-2.6 2.3-2.6s.3 4 0 8.9m-21-3.9c2.7 0 4.7 2.3 4.2 5-.3 1.9-.8 1.5-4.8-2.7-2.5-2.6-3.8-4.2-3-3.5.7.6 2.4 1.2 3.6 1.2m10.1 7.8c.1 4.5 0 8.2-.2 8.2l-2-2.6c-1.6-2.4-1.6-2.6 0-3.8 1.4-1 1.5-1.7.6-3.4-1.5-2.9-1.4-7.5.2-7q1.2.4 1.4 8.6m5.8-6c0 1.8-2 1.5-2.3-.4q-.4-1.6 1-1.2 1.2.6 1.3 1.6m-.2 15.2c.2 4.7.6 8.9.7 9.5s.2 2.1.1 3.5l-.2 2.5-1-2.5c-1.6-3.8-1.8-23.4-.3-21.8zm12.4 20.2q-.3 1.8-.4-1.7t.4-2.3c.2 1 .2 2.8 0 4M485 355c-.5 6.3.2 29.6 1 30.4q1 .9 3.6-1.5l2.6-2.4-.8 3c-1.3 5.4-2.6 8.1-3.2 6.6a28 28 0 0 0-9.3-8.3c-2.1-.8-2.2-1.3-1.9-7.3.3-7 2-7.7 1.8-.7-.1 6.7.3 7.8 2.7 6.9 1.2-.5 1.5-2.4 1.5-9.5 0-4.9-.4-11.3-1-14.1-.7-3.8-.6-6.3.3-9.2l1.2-4 .8 4.3c.5 2.4.8 5 .7 5.8m-6 7.2a8 8 0 0 1-.9 3.7c-.7 1.1-1.1.9-2.1-.8s-.9-2.6.1-3.7q2.7-3 2.9.8m14.9 3.1q0 4.8-.9 2.2c-1.2-2.8-1.2-7.8 0-7 .6.3 1 2.5.9 4.8m-4.2 2.4q-.5 1.3-.5-1.2 0-2.6.5-1.8c.2.7.2 2.1 0 3m-16.7 5.1c0 2.6.5 5.3 1.2 6q1.4 1.3-.6 1.2c-1 0-3 .9-4.4 2.1l-2.6 2-.9-2.3c-1-2.9-.5-7 1-7.5q1-.2 1.5 1.9t1.8 2.3c2.1 0 2.6-4.3.6-5.1-1.9-.7-2.1-2.5-.4-4.2 2.1-2.1 2.8-1.3 2.8 3.6m-10 7.1c0 2.8-1.1 5.2-2.1 4.5-1-.6-1.2-4.8-.2-5.7 1.2-1.3 2.3-.7 2.3 1.2m-5.9 7.3-.4 4.3-.8-3.5c-.9-3.7-.4-6.5.9-5.6.4.2.6 2.4.3 4.8m17.4-1.7a15 15 0 0 1-2.8 4.5l-2.8 3.5.7-4c.4-2.2.9-4.4 1.1-4.8.7-1.1 3.8-.4 3.8.8m-21.6 1.7c0 1.3-.4 3.2-.8 4.2-.6 1.7-.9 1.5-2-1.2q-2.1-5 1.5-5.2 1.3.1 1.3 2.2m-5.6 1.5c.8.7-1.1 3.3-2.4 3.3q-.8-.2-.9-2c0-1.9 2-2.7 3.3-1.3m-6.5 6.4c.3 4.8.1 5.2-1.2 3.9-.8-.8-1.5-3.1-1.6-5-.3-4.8-.2-5.2 1.3-4.8.7.3 1.3 2.7 1.5 5.9m43-3.2c.2 1.3-.1 2.8-.7 3.4q-1.2 1.2-1.1-1c0-1.2-.3-2.9-.7-3.9q-.6-1.7.8-1.2c.8.2 1.6 1.5 1.7 2.7m-64.8.7q0 2.3-1 1.9c-1-.4-1-1.5-1-2.6q.1-1.7 1-1.9c.6 0 1 1.2 1 2.6m4.7 3.6q-.4 1.8-.4-2.2c0-4 .2-3.5.4-2.3a17 17 0 0 1 0 4.5m10.8-5.2q.4.9-.9 1-1.5-.1-1.6-1 0-1 .9-1t1.6 1m27.2 9.7c-.2 1.6-.4.5-.4-2.2q0-4.4.4-2.8c.2 1.3.2 3.5 0 5m-31.7-.1q0 1.3-1 1.4-.9-.1-1-2.1.1-1.7 1-1.4c.6.3 1 1.3 1 2.1m19.7 4.1q-.5 1.3-.5-1.7c0-3 .2-2.7.5-1.8s.2 2.6 0 3.5m29.9 3.1q-.7.4-1.8-.6c-.9-.9-.8-1.8.2-3.9l1.4-2.8.4 3.3c.2 1.9.1 3.7-.2 4m-5.3-2.4q.8 2.4-1.5 2.6-.7-.2-.8-2c0-2.3 1.5-2.7 2.3-.6m-3.1 7.7q1 .7-.1 2.7-1.1 2.1-.1 2.7c.5.3 1 2 1 3.8v3.2l-2.5-3.7c-2-2.9-2.5-4.9-2.5-9.5l.1-5.8 1.6 3c.9 1.6 2 3.3 2.5 3.6m19.1.8q-3 2.9-1-2.8c1.1-3.1 1.2-3.1 1.8-.9.3 1.3-.1 2.9-.8 3.7m-4.8-3c0 1.6-3.1 3.8-4 2.9-.4-.4-.4-1.6 0-2.8.7-2.3 4-2.4 4-.1m-21.8 3.3q-.5 1-.5-1.2c0-2.2.2-1.9.5-1.3.2.7.2 1.9 0 2.5m-16.7 1.6a42 42 0 0 1 20.8 22c2.5 5.2 2.7 6.8 2.7 17.7 0 11.7-.1 12.2-3.5 18.9a42 42 0 0 1-55.8 20 51 51 0 0 1-20.6-20.4 37 37 0 0 1-3.7-24.3 43 43 0 0 1 28.7-35.6c4.7-1.7 7.9-2.1 15.4-1.9 8.5.3 10.2.7 16 3.6m30 4.2c-.4 3.1-.9 4.4-1 3-.4-3-.2-6 .5-7.9 1.1-2.8 1.3-.4.5 4.9m7.2 28.2c-.1 15.6.2 29.9.6 31.8s.5 5.1.1 7q-.6 3.1-.8 1.4c0-1.2-.8-2.4-1.6-2.8q-1.5-.6-1.5-4.3c0-4.5-1.3-6.9-3-5.8q-1.2.8-.6 4.5c.7 4.5-.2 7.9-1.5 5.8-.5-.7-.9-2.4-.9-3.7 0-2.9 4-14.1 5-14.1q2.3-.2 2.1-23.9c0-15.5.6-25.7 1.6-24.7.3.3.5 13.3.5 28.8m8.1-26.7q-3.2 4.1-3.3 1.2c0-1.7 2-3.7 3.7-3.7q1.6-.2-.4 2.5m-15.3 8.7q0 3.8-1 1.6a4 4 0 0 1-.4-3.2q1.4-3.7 1.4 1.6m13 15c0 4 .1 10 .4 13.3s.8 19 1.1 35 .8 32.9 1 37.7 0 9-.6 9.3-.9-3.5-1-9.7q-.1-24.1-2.5-62.3c-.5-8 .4-30.5 1.3-30.5.2 0 .4 3.3.3 7.2m-229-4.7c3.3 1.7 5.6 5 4.1 5.9-.5.4-2.5-.9-4.5-2.8q-7.5-7.1.4-3.1m-18 4.5q-.2.9-1.5 1c-1.3.1-1.5-.5-1.5-1q.2-1 1.5-1c1.3 0 1.5.4 1.5 1m-15.4 5.5c-2.1 1.6-3.2 1.3-2.1-.4.3-.6 1.4-1.1 2.3-1.1 1.5.1 1.5.2-.2 1.5m-10.9 4.2c.4 1.1-2.6 2.7-3.5 1.9q-.3-.6.2-2.1c.6-1.8 2.7-1.6 3.3.2M236 458q0 .9-1 1a1 1 0 0 1-1-1q.1-1 1-1t1 1m15.7 4.2q-.5 1.1-.6-.6t.5-1.3q.5.6.1 1.9m-44.8 5.4c-1.4 1.8-2.4 1.1-1.5-1.1q.6-1.4 1.6-1 1.2.7-.1 2.1m87.1 3.5q-.1.8-1.5.9c-1.5 0-2-1.2-.9-2.3.8-.8 2.4.1 2.4 1.4m-33.4 3.4c1.7 1.7 7 2 7.9.5 1.4-2.2 3.5-.8 4.5 3 .6 2.1 2 4.6 3.2 5.4q2 1.5 1.4 3.2c-.8 2.1 1.1 4.4 3.7 4.4 1.9 0 1.9.1.2 2-1.6 1.7-1.9 1.8-4 .4-3.5-2.3-5.5-.6-9.9 8a32 32 0 0 1-4.6 7.6q-.7-.1-1.3-2.1t-2.4-1.7c-2.6.5-2.9 3.8-.5 4.5q2 .6 1.5 1.9c-.7 1.9-5.3.8-7.5-1.8-2.6-2.9-7.2-2.1-7.6 1.4q-.6 3 1.5 2.2c2.6-.7 6.1 3.2 4.5 4.8-.7.7-1.2 2.2-1.2 3.5 0 1.8-.6 2.3-2.6 2.3-3.4 0-12.2-7.4-14.1-11.7-.7-1.8-1.8-3.3-2.3-3.3q-1-.2-1-1.8 0-2 .9-.3.8 1.2 1.5.3.4-1-.5-1.7-.8-.8-.5-2c.2-.7-.2-2.1-.9-3.2-1.3-1.7-1.5-1.7-3-.2-3.3 3.3-1.1 17.4 3.8 24 2.3 3.2 1.9 6.3-.9 6.7-1.6.2-2.3-.7-3.7-5.1-.9-3-1.7-6.1-1.7-7.1s-1.2-3.9-2.6-6.7c-2.1-4.3-2.3-5.3-1.2-6.7q1.7-2.2-.3-.4c-1.5 1.1-2.2.7-5.2-2.9-3.5-4-3.9-6.9-1.1-6.9q1.3.2 1.4 1.7c.1 1.8 2.2 5.3 3.3 5.3q.6-.1.1-1.3c-.3-.8 0-2.5.5-3.9.7-1.9.6-2.9-.4-3.9q-1.4-1.4-.5-2.9c.8-1.3 1.1-1.2 2.4.5 1.3 1.8 1.5 1.8 2.1.3.5-1.3 1.4-1.6 3.7-1.1 3.4.7 4.7-.6 4.9-4.7l.1-2.5.7 2.5c.5 2 1.6 2.7 5.5 3.4 5.7 1.2 7.7.2 9.1-4.2q.8-3.2 2.9-3.2c2.2 0 5.6-2.7 5.6-4.5 0-1 1.9-3.5 2.8-3.5q.4.2 1.8 1.5m-22.9 2.7q-.5 1.1-.6-.6t.5-1.3q.5.6.1 1.9m4.3-.8q0 .6-1 1.1-.9.4-1-.4.1-1 1-1.1 1 0 1 .4m10.7.2q-.7.5-1.9.1t.6-.6q1.8 0 1.3.5M472 488.5c0 1.4-.9 3.5-2 4.7l-2 2.2v-3.5c0-3.3 1.4-5.9 3.2-5.9.4 0 .8 1.1.8 2.5m-290.8 6.3c-1 2.3-2.2 3.9-2.5 3.5-1.3-1.2-.7-5.6 1-7.5 2.6-2.9 3.5-.5 1.5 4m282.3 5.4c-.4 3.5-.8 6.4-1 6.6s-.6-2-1-4.8q-.7-5 .5-6.5c2-2.4 2.1-1.9 1.5 4.7m-254.3.5a15 15 0 0 1 3.4 4.7c.3 1.2 1.8 3.7 3.2 5.5a45 45 0 0 1 7.2 22.3c0 5 .3 6 2.5 7.4 3.1 2 7.1 1.2 8-1.6a9 9 0 0 1 3.2-3.7 10 10 0 0 0 3.4-4q.9-2.2 3-2.3c2 0 2 .1-.5 3-2.5 3-3.3 5.8-3.8 13-.3 3.3-.6 3.5-4.2 4-4.3.5-5.2 1.6-6.1 7.3-.7 4.2-2.5 4.1-2.5-.2q0-5.6-5.5-6.3c-3.9-.4-4.8 2.8-1.1 4.2q2.7.9 2.6 3.6c0 2.6-.1 2.7-2 .9-1.1-1-2.8-3.3-3.9-5.1-1.6-2.7-1.7-3.3-.5-3.8 1.9-.7 1.8-2.9-.4-5.7-2.8-3.6-4.3-8.5-5.6-18.4-1.1-8.3-1.4-9.1-3.9-10.3-2.2-1.1-2.7-2-2.7-5.1s-.6-4.2-2.5-5.5c-1.4-.9-2.2-2.3-2-3.1l1-3.1c.8-2.4 6.2-1.1 9.7 2.3m66.3-1.7q.4.9-.4 1-1-.1-1.1-1 0-1 .4-1t1.1 1m182.5 1.6q-.1 1.3-1 .9-1-.7-.5-1.6 1.4-2 1.5.7m37.7 3.1q-.5 1.3-.5-1.7c0-3 .2-2.7.5-1.8s.2 2.6 0 3.5m-309.1-2.1-.6 2q0 .5-1-.1c-1.1-.7-.2-3.5 1.2-3.5q.9.1.4 1.6m266.3 1.1q0 1-.9 2.8-1 2.8-.9-.8c-.1-1.5.4-2.7.9-2.7q1 0 .9.7m28.8 2.5q-.5 1-.5-1.2c0-2.2.2-1.9.5-1.3.2.7.2 1.9 0 2.5M446 513l-.6 6.5-.8-6.2c-.4-3.4-.5-6.7-.1-7.3 1.5-2.4 2.1.7 1.5 7m39.7-4.3q-.5 1.3-.5-1.2 0-2.6.5-1.8c.2.7.2 2.1 0 3m-65.7-1q-.1 1-1 2.3-1.1 2-1-.8.1-2 1-2.2 1 0 1 .7m7 1.2c0 2.6-1.6 3.5-2.4 1.5q-1.5-3.6.9-3.4 1.4.2 1.5 1.9m13-.3q-.1 1.3-1 .9-1-.7-.5-1.6 1.4-2 1.5.7m-241.8 4.8c1.5 3.1 3.6 5.7 4.7 6.1q2.1.6 2.1 3.1c0 3.3-.9 3-5.1-1.5q-3.7-3.8-4.7-8.5c-.5-2.5-.7-4.6-.3-4.6s1.9 2.4 3.3 5.4m236.1-4.7c.9.9-1.3 3.4-2.4 2.7-1.4-.8-1.1-3.4.4-3.4q1.4 0 2 .7M290.7 515a8 8 0 0 0 2.5 3.1c2.1 1.4 5.6 1 6.6-.7q.8-1.6 3.4-.9l2.6.7-2.1 4.4c-2 4.1-2.4 4.4-5.2 3.8-1.6-.3-4.8-.8-7-1s-5-.9-6.2-1.5c-5-2.6-3.2-12.9 2-11 1.2.4 2.7 1.8 3.4 3.1m197.5 32q.2 1.4-.7 1.8c-1.3.3-2.2-9.8-2.4-24.9-.2-18.1 1.3-15 2.1 4.3.4 9.5.9 18 1 18.8m-191.7-33q.4.9-.4 1-1-.1-1.1-1 0-1 .4-1t1.1 1m136.2 8.7q-.5 1.3-.5-1.7c0-3 .2-2.7.5-1.8s.2 2.6 0 3.5m-13.5 13.6c.2 5.9 0 10.7-.3 10.7-1.1 0-1.7-10.7-1.1-19.1.7-9.3 1-7.7 1.4 8.4m53.5-8.6q-.5 1.3-.5-1.7c0-3 .2-2.7.5-1.8s.2 2.6 0 3.5m6-2.5q-.5 1.1-.6-.6t.5-1.3c.3.3.4 1.2.1 1.9m-33 5q-.5 1-.5-1.2c0-2.2.2-1.9.5-1.3.2.7.2 1.9 0 2.5m-7.2 2.5c-.9 3.7-1.8 2-.9-1.9q.7-2.9 1.1-2c.3.7.2 2.4-.2 3.9m-145.7 1.6c-.1 3.1-3 11.7-4.1 11.7q-.6.1-.2 1.1c.8 1.2-1.5 7.3-2.3 6.4-1.3-1.3 0-11.1 1.8-13 1-1.1 2.1-3.6 2.3-5.5.6-4.4.5-4.2 1.6-3.5.6.3.9 1.5.9 2.8m-108.5.8c4.9 1.3 11.3 7.1 12.6 11.2.5 1.8 1.3 5.4 1.7 8.2s1.3 6.5 2.1 8.4c1.3 3.1 1.3 3.6 0 4.6-1.2.8-1.7 4.2-2.3 13.4l-.7 12.3-4.4-.5c-3.7-.4-4.9 0-7.4 2q-5.9 5 .2 12l3 3.5-5.6 5.9a32 32 0 0 0-10.1 20.5c-.3 3.2-1 7.1-1.6 8.6-.8 2.2-.7 3.3.6 5.3 1.9 2.9 2.9 3.1 5.1.9 1.4-1.5 1.4-1.8 0-3.4-.8-.9-1.2-2-.8-2.4s.8-3.8.9-7.5c.2-9.3 2.6-14.3 10.8-21.9a46 46 0 0 1 7.6-6.2q1-.1 1-1.3c0-1.8 3.9-5.3 6.8-6.2 1.9-.5 1.3.6-3.2 6.2-10.1 12.4-14 23.1-11.3 30.8 1.4 3.9 1.4 3.9-1.6 5.5a9 9 0 0 0-4.2 5.2c-.7 2.1-1.1 3.8-.8 3.8q.3.1-.2 1t-2.5 0c-1.9-1-2.1-.7-2.5 0-2.1 3.4-11.5-3.4-11.5-8.4a15 15 0 0 0-1.1-5c-.9-1.9-.8-3.7.5-8.3 3.6-12.5 5-15.9 8.1-19.8 4-5 7.4-14 5.8-15.6-1.8-1.8-3-.3-4.7 5.4-1.6 5.4-5 10.6-6.1 9.5-.3-.3-.2-3.4.2-6.9 1.1-8 .5-16.1-1.1-15.6-.7.2-1.3 4.5-1.7 11.4-.4 6-1.6 14.3-2.7 18.4-1.9 6.9-3.4 17.6-3.3 22.6s-6.9 1.4-10.4-5.3c-1.5-2.7-1.7-3.8-.7-4.1q1-.6 1.2-3.1c0-1.4.8-3.4 1.8-4.5 1.4-1.6 1.6-3.5 1.4-11.2-.3-10 .5-13 5.1-19.8 1.4-2 2.8-5.6 3.2-8q.8-4.2 3.6-6.9 3-2.7 2.9-5.7c0-1.7.7-4.9 1.6-7.1.9-2.3 1.3-4.4.9-4.8-1.3-1.4-5.3 4.7-5.9 9.2q-.7 4.6-2.2 4.6c-1.6 0-2.2 1.4-4.9 10.5-1 3.3-2.6 6.7-3.6 7.6q-5.1 4.6-4.2 19 .6 8.8-.4 8.9c-2.7 0-3-10.5-.6-24 .9-5.2 1.7-14.5 1.7-20.5l.1-11 4.3-7.1c4.1-6.8 6.4-8.9 10.7-9.6 2.3-.4 3.3-3.7 1.4-4.9-.8-.4-2.4-.6-3.6-.2q-2.5.8-2.3-1.5c0-2.8 5.3-7 9.8-7.7l4.7-1q3.1-1 8.8.6m45.7.9q0 .9-1 1a1 1 0 0 1-1-1q.1-1 1-1t1 1m214.9 3.3c1.7 2.2 2.7 8.1 1.1 7.5-.9-.3-3.9-6.6-4-8.6 0-.7 1.9 0 2.9 1.1m8.1 1.4q.1 1.9-1.5.3-1.3-1.2-.9-2.1c.8-1.3 2.4-.1 2.4 1.8m-19.3.5q-.5 1.1-.6-.6t.5-1.3c.3.3.4 1.2.1 1.9m47.3 2.5q0 6.4-1.3-.5c-.4-1.8-.2-3.2.3-3.2s1 1.6 1 3.7m-41.9-.4q-1.4 1.4-.5-.6.6-1.6 1.2-1.2.4.6-.7 1.8m-13.4.9q-.5 1.1-.6-.6t.5-1.3c.3.3.4 1.2.1 1.9m47 1.5q-.5 1.4-.5-1.2t.5-1.8c.2.7.2 2.1 0 3m-205.3 1.5c2 3.3 3 15.2 1.4 16.5a40 40 0 0 1-6.1 2.9c-5.2 2-8.4 5.4-13.1 13.9-3 5.2-7.4 10.5-8.8 10.5-1.7 0-.7-3.8 1.6-5.9a40 40 0 0 0 8.5-21.6c1-8.5 2.5-11.3 8.3-15.5 4.9-3.6 6.3-3.7 8.2-.8m225.6.2c0 .8-.4 1.8-1 2.1q-.9.3-1-1.4.1-2 1-2.1 1 .1 1 1.4m-26.3 5.8q-.5 1.1-.6-.6t.5-1.3c.3.3.4 1.2.1 1.9m-24.6-.2c27.3 5.2 44.8 35.8 34.9 61a46 46 0 0 1-40.5 30.7 45 45 0 0 1-38.1-16 30 30 0 0 1-8.6-14.5 45 45 0 0 1 8-45.4 46 46 0 0 1 15.3-10.8c.7 0 2-.7 2.9-1.5a44 44 0 0 1 17.1-4.4c2-.1 6 .4 9 .9M135 556c0 1.1-.9 3.5-2 5.5s-2 4.9-2 6.5-.4 3.1-.9 3.4-1.2 2.2-1.5 4.1c-1.3 6.6-9.8 16.6-12.2 14.2-.7-.7 1.4-11.2 3.2-15.5.7-1.8 1.9-3.1 2.6-3s2.3-2 3.6-4.7c5.7-12.1 9.2-16.1 9.2-10.5m103-2.2c0 .5-1.1 1.9-2.5 3.2-2.6 2.4-3.3 1.4-1.5-2.1 1.1-1.9 4-2.7 4-1.1m47.6 2.8c-.3.9-.6 2-.6 2.5q0 .9-1 .4t-.3 1c.5 1.6-1.1 3.4-2.9 3.5-1.2 0-1-1.3.7-5.4 1.5-3.5 5.4-5.4 4.1-2m205.1 3.6q-.5 1.1-.6-.6t.5-1.3c.3.3.4 1.2.1 1.9m-5.2 3.5c-.1 2.6.2 6.7.6 9.2.9 6 0 14-1.4 11.6-1.4-2.6-.8-25.5.7-25.5zm9.4 3.7q-1.3 1.3-.5-.7c.3-1 .7-2.8.7-4q.2-2.4.6.7c.3 1.6-.1 3.4-.8 4M481 570c0 1.6-.2 3-.5 3-.9 0-2.6-4.1-2-5 1.2-2 2.5-.9 2.5 2m-202-1.1c0 1.2-3.7 2.4-4.9 1.7-.7-.5-4.4.8-9.1 3.3q-1.4.9-1.5 2.2.1 1.3 1.5 1l4.5-.8c1.7-.3 5.5-1.3 8.5-2.4 5.5-1.9 9.4-1.7 8.7.4q-.5 1.2-2.2 1.5-1.6.4-1.1-.7c1-1.5-.4-1.4-2.3.3-.9.8-4.5 2-8.1 2.8q-6.5 1.5-6.5 2.9.1 1.3 2 1.2c1-.1 2.7.3 3.7.8q1.8 1 5-.4c1.9-.8 4.2-1.1 5.3-.7 1.7.6 1.4 1-2 2.5a41 41 0 0 1-7.7 2.2q-3.6.6-3.8 2 0 3.8 9.8.4c6.7-2.3 8.4-2.2 6.2.4q-1.3 1.5-3.6 1.1-2.3-.7-2.7 1.3c-.2 1.1-2.1 2.4-4.3 3.1s-5.9 3.4-8.5 6.1-5.7 4.9-6.8 4.9-2.3.4-2.6 1c-1.3 2.1-3.2 1-2.7-1.5q.5-2.7-1.2-2.5-1.6 0-1.2.9c.9 1.5-.5 4.3-1.9 3.7-1.9-.7-4.6 2.6-3.5 4.3q1 1.4-1.6 3.3c-1.3 1.1-2.4 2.5-2.4 3.3 0 3.5-24.2 18.5-29.9 18.5-2.4 0-2.8-2.9-.9-6 1.6-2.4.4-3.7-1.8-1.9-1.5 1.2-1.6 1-.9-3.1a67 67 0 0 1 6.1-18.8 31 31 0 0 1 14.8-7.2c3.2 0 10.8-3.2 14.3-6a68 68 0 0 0 8.7-11.3c4.7-7.3 6-8.7 7.6-8.2q1.9.6 2-.5 0-1-1-.5t-1 .1c0-.8 6.2-3.8 9.5-4.7 4.4-1 9.5-1 9.5 0m216.3 45.8c-.3 7.9-.9 14-1.4 13.7-.4-.2-.9-5.1-1-10.7-.2-15.2-.2-17.5.7-21.5l.7-3.7.8 4c.5 2.2.6 10.4.2 18.2M196 598q-.2.7-1.7 1.3c-1 .4-2.8 1.4-4 2.3-2.1 1.5-2.3 1.5-2.9 0q-1.8-4.7 4.6-4.4c2.2.1 4 .5 4 .8m87 2.4c0 1.3-.7 2.6-1.5 3-1.6.6-2-1-.9-3.8.9-2.4 2.4-1.9 2.4.8m-72-1q-.1.4-1.6 1-1.3.5-.9-.4c.6-1 2.5-1.4 2.5-.6m63.4 3.8c-.8 2.4-1.9 5.2-2.4 6.3-2.2 4.9-2.2 6.6-.1 7.2q2 .6 2.1 2 .1 1.6-2.2.9l-3-.6q-.8-.2-.8-2-.1-2-2.5-3c-3.7-1.4-3.1-3.6 2.8-9.6 6.5-6.6 8-6.9 6.1-1.2m213.9 4c.4 1.2.1 2.9-.6 3.7q-1.4 1.5.1 1.8c1.6.6 1.6 4.8-.1 6.1q-1.3 1.3-2.5-.9c-1.1-1.6-1.1-3.2-.1-7.5q1.9-8.6 3.2-3.2m-369.5 6.1c2.4 7.4 2 13.7-.9 12.8-.8-.3-3.2-.6-5.4-.7-5.2-.2-7-2.7-3.7-5.2 1.8-1.4 2.2-2.4 1.7-4.5-.4-1.4-.2-4.2.5-6.2.9-2.9 1.6-3.5 3.3-3.3s2.7 1.8 4.5 7.1M209 612q-1 1.9-1.7 1.7c-.2-.3.1-1.5.7-2.7q1-1.9 1.7-1.7c.2.3-.1 1.5-.7 2.7m84.5 2.1q3.1 5.6-1.4 2-2.4-1.8-1.8-3.5c.9-2.3 1.4-2 3.2 1.5m-91 2.6a90 90 0 0 1-2 9.3c-.7 2.5-1.6 6.3-2 8.5-1.3 8.6-2.7 9.7-5 4.2-1.5-3.7-.8-8.5 2.2-15.3a49 49 0 0 1 6.9-11.4c.3 0 .2 2.1-.1 4.7m82-1.7q-.1 4.5-6.6 2c-3.6-1.5-3.3-3.3.7-4.1 4.6-1.1 5.9-.6 5.9 2.1m-28.9.2c-7.1 9.8-8.5 13.3-8.6 20.5q0 3.3-1.4 3.3c-2.2 0-8.6-6.5-8.6-8.6 0-1.2 3.5-5 9-9.7 9-7.6 12.8-9.8 9.6-5.5m83.4.8q-.2.9-2 1c-1.8.1-2-.5-2-1q.2-1 2-1c1.8 0 2 .4 2 1m-79.6 12.5c-1.6 3-3.3 5.5-3.8 5.5-1.3 0 .4-7 2.7-11.2 2-3.4 2.3-3.6 3.1-1.8.6 1.4.1 3.4-2 7.5m29.7-6.4c1.6 1.1 2.9 2.7 2.9 3.4 0 .8 1.2 2.2 2.6 3.2 6.3 4.4 10.4 8.6 10.4 10.9 0 3.5 1.8 3.9 4.5 1 1.3-1.4 3.3-2.6 4.3-2.6 1.1 0 2.5-.7 3.2-1.5s2.9-1.5 4.9-1.5 5.1-.9 6.9-2c4.2-2.6 5.4-1.8 5 3.3-.4 4.6-.7 4.7-8.5 3.1-4.1-.8-5.8 2-2.7 4.3 2 1.5 6.4 1.3 15.2-.5 2.3-.5 4.2-.6 4.2-.1 0 1.6-5.9 3.9-9.9 3.9-3.1 0-4.7.7-7.1 3-1.7 1.6-3.5 3-4.1 3q-.9.1-.3 1.1c.8 1.4 5.4.2 7.9-2.1 2.8-2.6 4.9-1.1 5.2 3.8l.3 4-3.8-.9c-2-.5-6-.9-8.8-.9-3.7 0-6.1-.7-8.6-2.4-2-1.3-5.8-2.6-8.8-3-8.1-1-18.4-3.7-19.6-5.2-.6-.7-5.3-2.4-10.5-3.8-5.8-1.5-9.5-2.9-9.7-3.8s.6-3.5 1.6-5.9c2.2-5.2 11-12.5 15.7-13.2l3.8-.6c.5 0 2.2.8 3.8 2m192.4 3.6c-.8 5.6-1.7 6.9-3.4 4.9-1-1.2-.8-2.3.9-5.5 1.1-2.3 2.3-4.1 2.6-4.1s.3 2.1-.1 4.7m-214.7 1.1c-1.4 1.5-3.3 4-4.1 5.7q-1.4 2.6-1.7 1.7c0-2.1 3.9-9 5.7-10.1 2.8-1.5 2.9-.3.1 2.7M134.5 629q.8 2-1.5 3.8c-2 1.6-2 1.9-.7 3.1 1.2.9 2.1 1 3.6.1q2.1-1 2.1-.1c0 2.3-5.6 2.4-13.4.1a55 55 0 0 0-14.8-2.1c-4 .1-6.9-.2-7.3-.9-.9-1.5 2.4-5.2 3.9-4.3.6.4 2.9.7 5.1.8 2.2 0 6 1.1 8.5 2.3 2.6 1.2 5.6 2 7 1.7 2.6-.5 5-3 5-5.2 0-2 1.8-1.5 2.5.7m71.3 13.8q-.7 12.7-4 9.4c-.9-.9-.9-1.8.1-3.8q1.3-2.7.1-3.9c-1.1-1.3-.1-10.2 1.7-16 1.2-3.7 2.5 5.5 2.1 14.3m144.3-11.2c1.1 1.3 1.1 2-.2 4.2-1.8 3.3-4.5 3.6-4.2.5q.2-2.2-1.7-3.3t-1.5-2.1c1-1.5 6.1-1 7.6.7m144.9 7.1c0 4.7-.2 8.4-.5 8.1-.8-.8-1.6-14.8-.9-15.9 1.2-1.9 1.4-.6 1.4 7.8m-14-4.8q0 1-1 1.6-.9.4-1-.9.1-1.5 1-1.6 1 0 1 .9m-7.4 3.2-.6 5q0 1.8-1 1.9c-1.1 0-1.4-5.9-.4-8.4 1.1-2.9 2.7-1.7 2 1.5M120 638.8c9.1 3.1 10 3.5 10 4.2 0 .4-3 1.1-6.6 1.5-9.7 1-24.8-3.4-22.8-6.7.3-.5 2-.6 3.7-.3 1.8.4 4.3.2 5.7-.4 1.4-.5 3.2-.7 4-.4zm107.6 2.4q-1.2 9-5.8 12.2c-4.1 2.9-5.1 1.7-1.8-2.1 3.7-4.2 6-9.1 6-12.8 0-1.4.5-2.5 1.1-2.5q1.2-.1.5 5.2m123.1 4c-2.4 4.6-8.9 9.8-9.6 7.7-.2-.7.8-2.1 2.3-3.1 1.4-1.1 2.6-2.5 2.6-3.2 0-1.9 4.8-6.8 6-6.1.5.3-.1 2.4-1.3 4.7m117.3 1.4c0 4-.3 5.4-1.2 5.1q-1.1-.5-1.1-2.2 0-2.4-.8-4.3-1-2.4.2-3.8 2.9-3.4 2.9 5.2m-255.4-2.5q.8 1 4 .4c3.3-.6 3.4-.5 2.3 1.9-2.6 5.6-10.9 8.6-9.5 3.3.3-1.2.6-3.2.6-4.5 0-2.3 1.4-3 2.6-1.1m250.4 6.5q-.1.3-1.4-.2-1.4-.4-2.6 1.5-1.1 2-2.2 2.1-1 0 .2-1.5c.7-.8 1-2.5.6-3.9q-.6-2.6 1.1-3.5c1.4-.8 2-.4 3 2.1zm-357.7-4c2.5.6 2.7 1 2.7 5.3 0 2.5 1 6.6 2.1 9.1 1.8 4 2.2 4.3 3.3 2.8s2-.8 8.4 7.1c4 4.9 7.2 9.4 7.2 10s1 1.6 2.2 2.2a60 60 0 0 1 7.3 5.9 43 43 0 0 0 18.1 11c3.2 1.1 6.7 2.6 7.8 3.3 4.6 2.9 22.4-.6 31.5-6.2 2.8-1.6 8.4-4.3 12.5-5.9 6.9-2.7 8.1-2.9 14.8-2.2 4.6.5 9.3 1.8 12.6 3.4 2.9 1.5 5.7 2.4 6.2 2.1s3.1-.7 6-1c2.8-.3 6-.9 7-1.5 1.1-.6 3.7-.8 5.8-.4q4 .6 7-1c3.2-1.7 3.5-2.3 4.7-13.1.6-6 3.8-15 6.1-17.6.9-1 1.4-2.5 1.1-3.3-.7-1.8 1.7-5.1 3.1-4.3 1.7 1.1.3 8.5-3.8 20.2-2.2 6-5 14.1-6.2 17.9s-2.8 7.1-3.5 7.3-2-.5-3-1.6q-3.4-4-7.2-.2c-3 3-5.6 3.4-22.6 3.5-15.4.1-16.3.3-24.1 3.3-16.4 6.4-21 8.9-28.5 15.9-12 11.2-12.5 11.4-20.2 10.4a33 33 0 0 1-13.7-4.5q-6.1-3.6-10.4 1.6c-1.4 1.7-2.6 3.7-2.6 4.5 0 3-4.8 3.5-11.7 1.4-3.6-1.1-7.7-2-9.2-2-4.2 0-18.2-9.7-20.7-14.4-1.9-3.4-2.1-5.1-1.8-15 .4-14.4 2.1-37.5 2.9-40.4 1.1-3.4-2.1-2.9-3.9.7-2.5 4.7-4.3 51.1-2.2 55.3 1.4 2.9-5 2.5-6.5-.4a89 89 0 0 1 1-27.3q1.3-4.2 6.3-28c.9-4.2 2.2-7 4.5-9.6 1.8-2 3.3-4.2 3.3-4.8q.1-1.1 1.8-.7zm91.5 4.3c-.1.9.1 2.1.5 2.7 1 1.8-2 3.7-4.7 3-1.3-.3-3.4-1.5-4.7-2.6l-2.4-2 3.5-2.9c3.2-2.7 3.6-2.8 5.7-1.3 1.3.8 2.3 2.2 2.1 3.1M472 655q-.9 1.5-.9-3.5c.1-4.8.1-4.9.9-1.5.5 1.9.4 4.1 0 5m-17.8-4.8q.6 3.8-3.3 12.3c-1.6 3.7-1.8 3.8-1.8 1.3-.1-1.5.4-3 .9-3.3 1.2-.8 1.3-9.5.1-9.5-.5 0-1.6 1-2.4 2.2l-1.6 2.3v-2.7c-.1-2 .6-2.9 2.7-3.6 4.1-1.6 5-1.4 5.4 1m-102.2 2c0 2-7.3 8.8-9.4 8.8-1.6 0-1.1-1 2.9-5 5-5.1 6.5-6 6.5-3.8m69 1.9c0 1.7-.4 2.8-1 2.4s-1-1.7-1-3.1c0-1.3.5-2.4 1-2.4s1 1.4 1 3.1m7.5-2.1c.4.6.1 1.8-.6 2.6-1.2 1.4-1.4 1.4-2-.3-1-2.9 1.1-4.7 2.6-2.3m14.3 18.4c.3 13.8.1 18.7-.7 18.2q-1.1-.8-1-13.9c0-7.3-.3-15.6-.7-18.6-.5-4.2-.4-5.3.6-4.9s1.4 5 1.8 19.2m-6.8-15.9c0 2.8-1.5 3.4-2.4.9q-1.5-3.6.9-3.4 1.4 0 1.5 2.5m-182-.5q0 .9-.4 1-.6-.1-1.1-1-.4-1 .4-1 1 0 1.1 1m209 3q0 1.8-1 2-.9-.2-1-2c-.1-1.8.5-2 1-2q1 .2 1 2M71.6 670.1c.1 7.4.6 15.2 1.3 17.4 1.4 4.9 1.4 5.8.1 5-1.5-.9-2.2 1.7-2.4 8.7l-.1 6.3h-4c-3.7 0-4-.2-4-2.9-.1-2.8-4.3-7.6-6.6-7.6-1.3 0-6.4 5-7.1 7-.4 1.2-.9 1.2-3.5.1-1.8-.7-4.1-1-5.2-.6q-4.2 1.4-4.4-9.8l-.2-6.2 4.8-.9q4.6-1 7 .2a35 35 0 0 0 14 1.6c.9-.3 1.1-4.4.9-15.8l-.3-15.5 3.8-.4c2.1-.2 4.3-.3 4.8-.2s1 5.5 1.1 13.6M305 657q2 1.1-.2 1c-.9 0-2-.5-2.3-1-.8-1.3.5-1.3 2.5 0m162.4 3.2q-.8 1.2-1.4-.8c-1-2.5 0-4.1 1.2-2 .5.9.6 2.1.2 2.8M240 660c0 .5-1.5 1-3.2.9-3.1-.1-3.2-.1-.8-.9 3.5-1.1 4-1.1 4 0m219-.2c0 .5-.7 1.7-1.5 2.8-1.4 1.9-1.4 1.9-1.5-.2 0-1.1.3-2.4.7-2.7.9-1 2.3-.9 2.3.1m-22.9 14.7c.4 13.9.4 13.9-1.8 13.8l-4.8-.2c-2-.1-2.5-.6-2.5-2.9.1-2.3.2-2.4 1.1-1 .5 1 1.8 1.8 2.9 1.8 2.6 0 4.2-5.6 4-14.3s-.1-12.2.4-11.6c.2.2.5 6.7.7 14.4m-107.7-11.6a52 52 0 0 1-14.8 6.2c-.3-.4-.2-2.1.3-3.7.7-2.8 1-2.9 7.7-3.4 7.4-.5 8.3-.4 6.8.9m41.4-.5q5.6 2.8 7.2 8.6c1.6 5.6.2 9-6.6 15.6-5.7 5.6-9.6 8.3-25.9 18-5.5 3.3-18 8.4-26.5 10.9l-8.6 2.5a64 64 0 0 1-21.9 0c-2.2-.5-4.8-1.9-5.9-3.2-2.6-3.3-1.8-11.4 1.7-16.7 2.7-4 5.2-5.6 4-2.5-1 2.6 1.1 3 9.6 2 4.5-.5 8.4-.6 8.8-.3.8.8-2.4 11.5-4 13.5q-1 1.3.1 2.4c.9.9 2.2.6 5.4-1.2 5.6-3.1 14.2-9.4 19.5-14.1 4.3-3.9 4.9-4.1 19.3-5.9a37 37 0 0 0 9.2-1.8c1.4-1.4-1.5-4-6.2-5.5-2.4-.8-4.6-1.9-4.7-2.4s2.1-2.6 5.1-4.7c3-2 5.6-4.6 5.9-5.8q.6-2 2-1.5 1.5.4 3.1-1.2c1.4-1.6 1.5-2 .2-3-1.1-1-2-1-3.6-.1s-2.5.9-3.3.1c-1.4-1.4-3-1.4-2.2-.1.9 1.5-4.3 3.6-5.7 2.2q-1.3-1 2-4.1c2.9-3 3.4-3.1 11.2-3.1 5 0 9.1.5 10.8 1.4m107.1 1.8q0 4-.9 1.3-1.8-4.4 0-4.5c.6 0 1 1.5.9 3.2m-13.3 4.5q-.6 1.2-1.6 1.3c-1.1 0-1.4-5.3-.3-6.4.9-.9 2.5 3.4 1.9 5.1m8.8-2c.8 5.3.6 16.4-.4 18.8q-1 2.6-1-2c0-2.2-.3-7.7-.6-12.3-.6-8.4.8-11.5 2-4.5M344 664.4q0 .5-1 1.1-.9.4-1-.4.1-1 1-1.1 1 0 1 .4m-8.2 4.7c.3 3.3 0 3.7-3.6 5.3-3.5 1.6-4.4 1.6-8.8.4-2.7-.7-4.9-1.9-4.9-2.7 0-1.7 11.4-7.1 14.5-6.8 2.1.2 2.5.8 2.8 3.8m151.2 3.4q0 1.3-.4 1.5c-.4.2-.6-.7-1-1.5q-.4-1.3.4-1.5 1 .2 1 1.5m8 14c-.4 5.5-.5 5.2-1-4-.3-5.5-.3-10.5 0-11 .8-1.6 1.5 8.5 1 15m-144-13.9c0 1-4.5 4.2-5.2 3.7q-2-1.3 1.5-3.1 3.8-1.8 3.7-.6m126.7 1.6q-.5 1.1-.6-.6t.5-1.3c.3.3.4 1.2.1 1.9m-162.7-.4q0 .9-.7 1.6c-.5.4-1.2 2.6-1.8 4.9-1 4.1-1.2 4.3-9 7.4-9.3 3.8-10.5 3.9-10.5 1.5 0-1.9 3.2-5.3 6-6.6.8-.3 4.2-2.6 7.5-5q8.6-6.4 8.5-3.8m106 6.4c0 3.9-.3 6.8-.7 6.5-.9-1-1.1-13.7-.1-13.7.4 0 .8 3.2.8 7.2m11.7-2q-.5 1.1-.6-.6t.5-1.3c.3.3.4 1.2.1 1.9M322 678c1.6 1 1.5 1.2-2.2 2.8q-4.5 1.8-3.2-2.2c.7-1.8 3.1-2.1 5.4-.6m16 .6q0 1.6-1.6 1l-2-.6q-.4-.1.1-1c1-1.6 3.5-1.2 3.5.6m139.7 2.1q-.5 1.4-.5-1.2t.5-1.8c.2.7.2 2.1 0 3m-11 .5q-.5 1-.5-1.2c0-2.2.2-1.9.5-1.3.2.7.2 1.9 0 2.5m-133.6 1.4q5.3 2.7-.1 6.4c-3.2 2.3-20 3.7-20 1.8 0-2.3 1.4-3.6 7.5-6.6 7.1-3.5 8.6-3.7 12.6-1.6m118.4 2.4c.7 2.1 0 4-1.6 4-.5 0-.9-1.4-.9-3 0-3.4 1.5-4 2.5-1m26.5 1.6q0 1.3-1 .9-.9-.6-1-1.6.1-.8 1-.9 1 .1 1 1.6m-132.2 1c1.5.6 1.5.7-.3 1.4-4.9 2.1-9.9.5-5.8-1.8 1.6-1 2.3-.9 6.1.4m33.2-.6q-2 1.1.3 1 1.5-.1 1.7-1c0-.6 1.8-1 4-1 4.4 0 4.7.7 2.5 5q-1.6 3-3.1 2.3c-1.6-.6-1.6-.7 0-1.8 2-1.5 2.1-4.5.1-4.5q-1.4.1-1.5 1c0 1.5-6.2 5-8.9 5q-2.1 0-1.7-.7a4 4 0 0 1 2.4-.8c.9 0 1.8-.7 1.8-1.5l.3-2.8c0-.6.9-1.2 1.9-1.2q2.1-.1.2 1m25.7 1.4c-.2.6-1.7 1-3.3.8-3.3-.4-3.8-.7-3-2s6.8-.2 6.3 1.2m-8.6.1c.1 1.7-1.8 1.7-2.5 0q-.6-1.6 1-1.3 1.4.4 1.5 1.3M309 691c0 1.3-2.8 2.5-3.8 1.6q-.4-.7.8-1.6 3-1.9 3 0m83 1q-.1.9-1.5 1c-1.4.1-1.5-.5-1.5-1q.1-1 1.5-1c1.4 0 1.5.4 1.5 1m-109 1q-.1.9-1.6 1-1.3-.1-.9-1 .6-1 1.6-1 .8 0 .9 1m135.5.1q.5 1-1.1 2.4c-1.2.8-2.4 3.6-3 7.2l-1.2 5.8-.1-8.3c-.1-8.1-.1-8.2 2.3-8.2 1.4 0 2.8.5 3.1 1.1m60-.1q-.4 1 2 2c3.6 1.4 6.9 4.6 6 6q-.5 1.2 1.4 2.6 5 3.3-2.9 3.2c-4.2 0-5-.3-5-1.9 0-2.7-1.5-2.3-2.9.7-1 2.2-.8 3.4 1.3 7.8 2.6 5.4 2.5 9.6 0 9.6q-1.4-.1-1.4-2.8a7 7 0 0 0-2.1-4.8l-2.2-1.9.5 3.7c.2 2.1 0 3.8-.4 3.8s-.8.7-.8 1.6q0 1.3-.9 1c-.5-.3-.7-2.4-.4-4.5.5-3.4.3-4-1.8-4.6-1.3-.4-3.9-1.4-5.7-2.3-2.9-1.3-3.5-1.3-4.3-.1-1.1 1.8-3.9.2-5.4-2.9-.7-1.7-1.5-2-4-1.5-1.6.3-3.6 1.1-4.3 1.6q-1.6 1.4-1-1.3c.3-2.3.6-2.5 5.3-2.2 4.3.3 5.4 0 7.4-2.2 3.2-3.3 2.4-5.4-1.1-2.7-1.5 1.2-2.9 1.7-3.2 1.3-.6-.9 3.6-4.3 6.9-5.6q2-.9.7-1.3c-.7-.3-1.9 0-2.6.6q-1.5 1.4-1.8 0c-.2-.6-2.4.9-4.8 3.3-3.5 3.5-4.5 4-4.8 2.5q-.4-1.5-1.8-1.7c-1.4-.2-1.4-.5-1.4-1q.1-1 1.5-1c1.4 0 1.5.4 1.5 1q.1.9 1.6 1 1.8.1 1-2.4c-.8-3.1.8-3.7 11.4-4.3a99 99 0 0 0 14-1.1q5.1-.3 4.5.8m-400.3 1.9c2.6 1.3 2.7 1.6 2.1 8-.6 7.7-1.2 8.6-3.8 6.7-2.7-1.9-4.2-17.7-1.7-16.4zm347.6-.7c-.5 1.4-4.8 3.1-4.8 1.8q.1-1 1.5-1c1.4 0 1.5-.5 1.5-1q.1-1 1.1-1t.7 1.2m68.8 5.6c-1.2 1.1-1.6-.6-.9-3.9l.8-3.4.3 3.3c.2 1.9.1 3.6-.2 4m-58.7-3.2c-1.1 3-.3 4.6 1.2 2.4q1.2-1.7.4.7c-.8 2.4-.2 2.3.9 2.3q1.5-.1 1.6-1t1-1c.6 0 1 1.2 1 2.6q0 2.3-.9 2c-.4-.3-1.7.1-2.7.9-1.8 1.4-1.8 1.4.4 1.5q2 0 2.2 1 0 .9-1 1t-1 1.5c-.1 1.4-.7 1.5-1.5 1.5s-2.6.9-3.8 2.1c-2.2 2-2.2 2.1-.3 3.5q3.7 2.7 3.6 0c0-1.6 1.8-3.1 2.6-2.3q.4.6-.8 2.6c-1.3 2.1-5.8 3-5.8 1.1 0-.6-1.2-1-2.6-1-2.1 0-2.4-.4-1.9-2s.3-1.9-1.1-1.3q-2 1-1-1.3t-.5-.7q-2.8 2.6-2.9-.3.1-1.9-1.4-.5-1.4 1.3-2.1.1c-.8-1.3.3-3.2 1.5-2.5q.8.4 1.5-.4c.6-1.1 3.6-.3 4.7 1.3q.7.8 1.6-1.4 1.3-3.1 3.1-4.4 2.1-1.9 2.1-5.6c0-3.6.6-5 2.1-5 .5 0 .4 1.2-.2 2.6m5.1-1.6q-.1.9-1.5 1c-1.4.1-1.5-.5-1.5-1q.2-1 1.5-1c1.3 0 1.5.4 1.5 1m-161 1.5q-1.2 1.3-2.1.9c-1.3-.8-.1-2.4 1.8-2.4q1.9-.2.3 1.5m44-1c0 .3-3.7 3.3-8.2 6.6-9.2 6.8-10.5 6.5-7-1.5 1.7-3.8 2.5-4.5 5.4-4.9 5.4-.6 9.8-.7 9.8-.2m46.6 2.3c.6.4 1.1 2.4 1.2 4.5.1 2 .6 4.6 1.2 5.8q1.1 2 .2 3.2c-.6.7-1.2 2.3-1.4 3.7q-.1 2.7-3.1 2.8c-2.4.3-3-.2-4-2.7-1.3-3.6-2.7-4-2.7-.8 0 1.2.9 2.8 2 3.5 2 1.2 2.8 5.2 1 5.2q-.9-.2-1-1.5c-.1-1.3-.4-1.5-1-1.5q-.9.1-1 1.5c-.1 1.4-.9 1.5-2 1.5-2.3 0-2.7-2.2-.7-3.8 1.9-1.6 1.6-6.6-.5-7-1.4-.3-1.8.4-1.8 3.2 0 4-1.5 5.6-2.3 2.4-.8-3-2.1-1.4-2.2 2.5q0 3.3-1.5 3.2-1.4 0-1.2-1.8.5-2.3-3.4-1.8c-1.3.1-2.3-2.7-1.7-4.7.7-1.8 3.1-1.5 2.9.4 0 .9.5 1.9 1.2 2.1q1.1.3 1.2-1.5c.1-1.8.7-2.2 1.5-2.6 2.9-1.1 1.5-2.3-2.2-1.9l-3.8.3 4-2.3 5.9-3q2.2-1 .7.7-1.4 1.5.6 1.8c3.1.8 4.5-.2 2.7-2-1.5-1.4-1.2-1.9 3.2-5.8 5-4.4 6.1-4.9 8-3.6m59.8.7q-.6 1.3-1 1.5-.3-.2-.4-1.5c-.1-1.3.4-1.5 1-1.5q.8.1.4 1.5m-47.4 1.6q-.1 1-1.5.5-1.5-.4-2.1.8t-3 .8q-3.6-.6-1.7-2.5c1.1-1.2 8.3-.8 8.3.4m6-.1q0 .9-1 1a1 1 0 0 1-1-1q.1-1 1-1t1 1m5.4.5c-.6 1.6-2.4 2.1-2.4.7 0-1.1 1.1-2.2 2.1-2.2q.8.1.3 1.5m-117.6 1.3q.4 1.4-1.4 1c-.9-.1-1.9-.9-2.2-1.6q-.4-1.4 1.4-1 1.5.4 2.2 1.6m143.6.1q.4.9-.9 1.4-1.4.6-.8-.9.8-2.4 1.7-.5m-34.4 1.3q0 1.3 1.2 0c1.5-1.5 4.8.3 4.8 2.8 0 1 .5 2.2 1 2.5 1.3.8 1.3 7.2 0 8q-1.1.6-.4-1.9c.7-2.8-.4-3.4-2.4-1.4-1.5 1.5-1.6 6.5 0 7 1.4.5.4 3.8-1.2 3.8q-.9-.2-1-2.1t-2-2.6q-1.8-.6-2-1.9 0-1.2-1.7-.7-1.8.8-1-1 .7-1.7-2.3-3.2c-3.6-1.8-3.9-3.3-.7-3.3 1.2 0 3.2-.3 4.4-.7 1.9-.6 2.2-.4 2 2-.3 4 2 4.2 2.8.3.4-1.8 1.1-3.8 1.5-4.3 1.3-1.5-7.5-1.2-9.4.4-1.4 1.2-1.6 1.1-1.6-.8q0-2.1 1.9-2.1c1.1 0 2.3-.5 2.6-1 .9-1.4 3.5-1.3 3.5.2m39.8 1q1.3 1.5 2.2-.2.9-1.2 1.6-.7c1.1 1.1-.7 2.4-4.3 3.2-3.5.7-3.7.6-2.7-1.9q1-2.8 3.2-.4M397 707q-.1.9-1.1 1-.8-.1-.4-1 .6-1 1.1-1 .4 0 .4 1m-338.5 2c.3.5-2.1 3.5-5.4 6.6S47 722 47 723c0 2-9.9 8-13.1 8-1 0-2.2.7-2.6 1.5-1.2 2.1-5.3 2.3-6.6.3q-2.6-3.8 7.9-6.4c8.1-2.2 8.8-2.7 11.3-7.9 1.7-3.6 3.1-5 6.5-6.5 2.4-1 4.7-2.3 5-2.9.9-1.4 2.3-1.4 3.1-.1m217.5 4.5q0 1.3-.9 1.5c-1.3 0-2.2-1.6-1.4-2.4 1.1-1.1 2.3-.6 2.3.9m67.4.3c-1.1 1-1.9 2.3-1.6 3q.2 1-.6 1.2-1-.1-1.4-1c-.4-1.2-4.1 1.9-5.6 4.6-1.1 2-4.4 1.2-3.7-.8.5-1.1 13-8.7 14.5-8.7q.3.1-1.6 1.7m-282.7 3.7-6.6 10.3c-2.6 3.9-4.4 7.7-4.3 9.2l.2 2.5-1.3-2.5a10 10 0 0 0-3.5-3.6c-3.1-1.5-2.9-2.3.9-4.3 1.8-1 3.6-2.4 3.9-3.2 2.7-5.9 4-7.6 6.9-9.6q7.7-5.1 3.8 1.2m318.7-2.7c.9 1.6-1.5 8.2-2.9 8.2q-1.4-.1-1.5-1 .1-1 1.1-1t.4-1c-.3-.5-.3-2.1.1-3.5q1.1-3.9 2.8-1.7m39.6 1.3q0 .9-1 .4t-1-1.6q.1-.9 1-.4a2 2 0 0 1 1 1.6m35-1.1q-.1.9-1.1 1-.8-.1-.4-1 .6-1 1.1-1 .4 0 .4 1m43 6.6c0 3.6-.4 6.4-1 6.4q-.9-.2-1-1.9.2-2.2-2.2-1.3l-2.2.5 2.2-3.7c1.2-2 2.2-4.6 2.2-5.7q.1-1.7 1-1.4c.6.3 1 3.5 1 7.1m-81.9.9q-.5.7-.9-.8c-.5-2.3-3.7-1.8-3.7.5 0 2.1-3.2 5.5-4.2 4.4q-.6-.7.3-1.4a16 16 0 0 0 2.9-4.2c3.1-6.1 3.7-6.5 5-2.8.6 1.8.9 3.7.6 4.3m-336.4-4.3q1.5 1 .2 2.4c-1.5 1.9-7.3 1.1-7.7-1s-1.4-2-4.6.5c-3.5 2.7-4.6 1.7-1.5-1.5 2-2.1 3-2.3 7.3-1.9 2.8.2 5.6.9 6.3 1.5m316.9 1c-.3 3.3-2.6 5.3-2.6 2.4 0-1.4 2-5.6 2.7-5.6.2 0 .1 1.4-.1 3.2m26.4-.4q.1 2.2-1 .2c-1.3-2-1.3-3.3 0-2.5.6.3 1 1.4 1 2.3m46.4-.9c-.3.9-.7 2.1-.7 2.8 0 1.3-2.8.5-4-1.1q-.6-.8-.5 1.4c.2 2-.1 2.4-1.7 2.2-4.5-.7-4.7-1.1-2.3-4 1.8-2.3 3.1-2.9 6.1-2.9 3.1 0 3.7.3 3.1 1.6M280 720c0 2.9-1.7 3.3-2.2.5-.3-1.3-.3-2.7 0-2.9.9-1 2.2.5 2.2 2.4m172-2.6q-.1 3.3-3.6 2.8-2.7-.3-1.3-1.8c1-1.3 4.9-2 4.9-1m-8 1.6q-.1.9-1.1 1-.8-.1-.4-1 .6-1 1.1-1 .4 0 .4 1m-101 .9c0 3.7-3.6 5.3-7 3.1q-2-1.1 0-1.1h2.3q.7 0 1.3-1.4c.7-1.6 3.4-2.1 3.4-.6m30 1.1c0 1.9-2 2.7-3.3 1.3-.8-.7 1.1-3.3 2.4-3.3q.8.2.9 2m53.5-1q.4.9-.4 1-1-.1-1.1-1 0-1 .4-1t1.1 1m-135.8 4.2q1.2.8 2.1.5c.4-.3 1.4-.2 2.1.2 1 .7.8 1.4-1 3.2-1.3 1.3-2.3 3-2.1 3.7q.3 1.5-1.7.7-2-.5-2.1.4t-1 1.1q-1 0 .1-2.1c.6-1.2.7-2.5.2-2.9-1-1-5.3.6-5.3 2q0 1-1 .5c-.5-.3-1-1.7-1-3 0-2.5 3.4-4 6.4-2.9s1.6-1.4-1.4-2.6c-1.6-.7-3-1.6-3-2.1 0-.9 6.7 1.7 8.7 3.3M80.5 723c-.9 2.8.2 4.1 2.8 3.1 3.1-1 5.7-.3 5 1.5-.6 1.7 1.8 1.9 3.4.3.6-.6 1.7-.9 2.5-.6q1.1.5-1.9 1.8c-1.7.7-3.4 2.1-3.6 3.1q-.6 1.6-1.6 1.8-1-.2-.5-1.5c.8-2-1.9-4.6-3.7-3.4-.8.5-3.3.9-5.6.9-4.1 0-5.5 1.1-3.2 2.6.6.3 1.5.1 1.9-.6.8-1.3 3-.6 3 1.1 0 1.1-6 1.2-7.6.1-2.4-1.5-2-3.8 1-6C74 726 76 725 76.7 725s1.8-.9 2.5-2q2.4-3.7 1.3 0m244.5-.5c0 .9-1.1 2.7-2.4 4q-2.2 2.3-1.5 3.7c1.4 2.1 1 4.8-.6 4.8q-1.5-.2-2.1-1.5t-1.5-.9q-.8.6-.4 1.3c.2.5-2.1.9-5.1 1-5 .1-5.5-.1-4.4-1.4q1.1-1.5.6-2.2-.7-.6-1.4.2c-.8 1.1-11.5 1.7-11 .6l1.7-3.4c1.6-3.1 3.2-3.6 2.4-.7q-.6 2 1.1 2 1.6-.1 1.2-.8-1.5-2.4 6.4-4c3-.6 6.4-1.4 7.4-1.8q2.2-1 1.3.9c-.7 1.9 1.7 2.4 2.8.7q.5-1-.6-1c-1.8 0 .1-1.7 2.6-2.3 3.3-.8 3.5-.8 3.5.8m158.5.4q-.6 2 1.2 3 2.6 1.4-.2.8-1.8-.3-2.3-1.2c-.4-1.4.5-4.5 1.3-4.5q.5.2 0 1.9m-8.1 3c.3.4-.3 1.6-1.3 2.5-2.2 2-4 .4-2.1-1.9q2.2-2.6 3.4-.6M19.5 727q.4.9-.9 1c-1.3.1-1.8-.5-2.1-1q-.4-1 .9-1 1.8 0 2.1 1m385.8.4q.6 1.5-.7 1t-2 1.2c-.5 1.4-.9 1.4-2.2.3-1.5-1.2-1.4-1.5 1.2-2.6l3-1.3zm43 .7a46 46 0 0 1 37.5 37.2 54 54 0 0 1-4.3 27.6c-8.8 17.5-31 28.8-49 25.1a58 58 0 0 1-25.4-13.7c-4.7-5-9.1-12.5-9.1-15.5 0-1-.7-3.3-1.6-5-2.6-4.9-2.1-16.5 1.1-26.4a49 49 0 0 1 35.2-29.3c6.7-1.2 7.5-1.2 15.6 0m-348.9 2.5c.4 1-.1 2.5-1 3.5-1.8 2-6.4 2.6-6.4.8q.2-.9 2.2-.7 2.3.3 2.4-1.2c.2-3.4.4-4 1.3-4q.9.1 1.5 1.6m235.7-.6c2.6 1.4 2.4 2.3-.8 3.7-3 1.3-10.3 1.4-10.3.2 0-.7 6.6-4.5 8.3-4.8q1 0 2.8.9m19.9 0q.1.9 1.6 1 2-.2.4 1.5-1.2 1.3-2.1 1.5c-.9.2-.6-.7-.3-1.5q.6-1.4-1-1.5-1.5.2-1.6 1.5c-.1 1.3-.9 1.5-2 1.5s-2-.5-2-1q-.2-1-1.9-1c-2.6 0-5.2-1.1-4.7-1.9.7-1.1 13.6-1.2 13.6-.1m7 0q0 .9-1 1a1 1 0 0 1-1-1q.1-1 1-1t1 1m16.8 2.6q-3.6 3.6-3.8 1.6c0-1.5 4.1-5.3 5.1-4.6.5.3-.1 1.6-1.3 3m7.2-1.6q-.1.9-1.6 1-1.3-.1-.9-1 .6-1 1.6-1 .8 0 .9 1m-18.7 2.4c-.4 2-.9 2.3-2.6 1.7-3-1.1-3.2-2.9-.5-3.4l2.9-.6q.5.2.2 2.3m24.3.5q-.8.9-2.3.4c-1.5-.6-1.4-.7.3-1.3q3.3-1.4 2 .9m-284.2 0q.4.9-1 1.5-3.2 1-1.9-1.3c.8-1.3 2.2-1.4 2.9-.2m266.6-.5q0 .5-1 1.1-.9.4-1-.4.1-1 1-1.1 1 0 1 .4m-336 3.2c1.3 3.4 1.3 3.4-1.5 3.4-2 0-2.5-.5-2.5-2.3 0-4.4 2.5-5 4-1.1m78.7-1c-.3.3-1.2.4-1.9.1q-1.1-.5.6-.6t1.3.5m375.5 1.6q-1.1 1-1.2.2c0-1.4 1.2-2.6 1.9-1.9q.3.6-.7 1.7M43.5 739c-.3.5-1.1 1-1.6 1q-.9-.1-.4-1a2 2 0 0 1 1.6-1q.9 0 .4 1m273.2 4.2q-.5 1.1-.6-.6t.5-1.3c.3.3.4 1.2.1 1.9m11.9.4q-.7 1.5-1.1 1.2-.5-.6.1-2.2.7-1.5 1.1-1.2c.3.3.3 1.3-.1 2.2m12.1-.4q-.5 1.1-.6-.6t.5-1.3c.3.3.4 1.2.1 1.9m-254.4.3q-.6 1.4-1 1.1-.4-.5.2-1.5c.9-1.6 1.5-1.3.8.4m98.7.2c0 1-.8 2.7-1.7 3.8q-2 2.6-.9.2c.3-1 .6-2.7.6-3.8q.1-1.7 1-1.9 1 .2 1 1.7m7 1.2q0 1-1 1.6-.9.4-1-.9.1-1.5 1-1.6 1 0 1 .9m300.1 8.4q-1.1 1.3-1.1-3.4c0-5.9 1.4-7.3 1.8-1.9.2 2.4-.2 4.8-.7 5.3m-376.3-7.1q-.5 1.1-1.6 1.6-1.1.3-.6-1.2c.7-1.8 2.8-2.2 2.2-.4m4.9 1q-.5 1.1-.6-.6t.5-1.3c.3.3.4 1.2.1 1.9m6.5 1.8q-.8 2-1.4 1.4c-.3-.5-.1-2 .4-3.4 1.3-3.1 2.2-1.2 1 2m33.8-3.2c0 .5-.7 1.7-1.5 2.8-1.5 1.9-2 .8-.9-2 .6-1.7 2.4-2.2 2.4-.8m-76 .9c-.1 1.1-2.6 4.3-3.3 4.3q-.5-.2.5-2.5c1-2.3 2.8-3.5 2.8-1.8m10.2 1.5q-1.1 1-1.2.2c0-1.4 1.2-2.6 1.9-1.9q.3.6-.7 1.7m70.5 0q-.5 1.1-.6-.6t.5-1.3c.3.3.4 1.2.1 1.9m10.9 2q-2.8 4-.5-1.9 1-2.4 1.6-1.6c.2.7-.3 2.3-1.1 3.5m27.1-2q-.5 1.1-.6-.6t.5-1.3c.3.3.4 1.2.1 1.9m170.4.5q-1 2.2-1.1.2c0-1.7 1-3.2 1.8-2.5q.2.6-.7 2.3m6.5 2c-1 2.6-1.8.8-.9-2.3q.7-3.1 1.1-1.1c.2 1 .1 2.5-.2 3.4m-278.5 1c-1.1 2.1-2 3.3-2.1 2.7 0-1.5 3.1-7.6 3.7-7.1.2.3-.5 2.2-1.6 4.4m44.5-2.1q-.7 1.5-1.1 1.2-.5-.6.1-2.2.7-1.5 1.1-1.2.5.6-.1 2.2m-81.4.6q-1.1 1-1.2.2c0-1.4 1.2-2.6 1.9-1.9q.3.6-.7 1.7m75.8-1.4q-.1 1-1.5 2.8c-1.5 1.9-2 .8-.9-2 .6-1.7 2.4-2.2 2.4-.8m-54.9 4.5c-1 2.7-3.1 4.5-3.1 2.7 0-1.3 3.1-6.2 3.7-5.7.2.2-.1 1.6-.6 3m268.9-1.8q0 1.3-1 1.5-.9-.2-1-1.5c-.1-1.3.5-1.5 1-1.5q1 .2 1 1.5m-131.6 1q-.7 1.3-1.5 1.5c-.8.2-.9-.7-.9-1.5s.7-1.5 1.5-1.5q1.3 0 .9 1.5m-107.7 2.7q-.5 1.1-.6-.6t.5-1.3c.3.3.4 1.2.1 1.9m77.3-1.8q0 .6-1 1.1-.9.4-1-.4.1-1 1-1.1 1 0 1 .4m-31.7 3.1q-.6 1.4-1.4 1.5c-1 0-1.2-2.4-.3-3.3 1.1-1.1 2.4.3 1.7 1.8m37.7-1.1q0 .6-1 1.1-.9.4-1-.4.1-1 1-1.1 1 0 1 .4m6 0q0 .6-1 1.1-.9.4-1-.4.1-1 1-1.1 1 0 1 .4M108 770q-.1.9-1.1 1-.8-.1-.4-1t1.1-1q.3 0 .4 1m-27 4q0 .9-.4 1-.6-.1-1.1-1-.4-1 .4-1 1 0 1.1 1m163.8 8.3c1.8 3.4 3.2 6.6 3.2 7.1s-1.7.5-3.7.2c-4.1-.8-7.3-3.7-7.3-6.7 0-2 2.7-6.9 3.9-6.9.3 0 2.1 2.8 3.9 6.3M79 780q0 .9-1 1a1 1 0 0 1-1-1q.1-1 1-1t1 1m417 12.7q3 16.8 1.9 18.5c-.4.6-1.5-2.5-2.4-6.8-2.2-10.5-2.2-10.5-4-9.8-1.9.8-1.9-.6 0-3.2.8-1 1.5-2.7 1.5-3.7 0-4.1 1.8-1.2 3 5m-424-5c0 2.4-2.2 8.3-3.1 8.3q-1-.1-.5-1.8l1.2-4.5c.5-2.4 2.4-3.9 2.4-2m5 .2c0 1.2-2 2.5-2.7 1.8s.6-2.7 1.8-2.7q.8 0 .9.9m-15.9 5.2q-.9 2.1-1 1.2c-.1-1.5 1-4.5 1.5-4 .3.2 0 1.5-.5 2.8m30.2.1c-.5 2.6-2.3 4-2.3 1.8 0-1 2.3-5.1 2.6-4.7.1.1 0 1.4-.3 2.9m-17.1 3c-1.5 1.5-2.6.4-1.8-1.8q.6-2 1.8-.6c1.2 1.4.9 1.5 0 2.4m11.4 8.4c-.6 1.6-4.6 1.9-4.6.4 0-.6 1-2.5 2.3-4.1l2.2-3.1.3 2.7c.2 1.5.1 3.3-.2 4.1M69 802.1q-.2.8-1.5.9c-1.5 0-2-1.2-.9-2.3.8-.8 2.4.1 2.4 1.4m4 1.5q0 1.3-1 1.4-.9-.1-1-2.1.1-1.8 1-1.4c.6.3 1 1.3 1 2.1m21.8 2.1c-1.2 1.5-4.4 1.7-5.3.3-.3-.5-.1-1.9.5-3 1-2 1.2-2 3.4-.3q2.6 1.8 1.4 3m398.6-1.1c.8 2.2-.4 4-1.5 2.3s-1.1-3.9 0-3.9q.9.1 1.5 1.6M65.1 814.8l-2.1 6.9c-1.1 4.4-3 5.9-3 2.4 0-2 3.5-13.5 4.7-15.4s1.6 3.1.4 6.1m6.5-4.1c-.3 2.9-3.6 4.7-3.6 2 0-2.6 1.2-4.7 2.5-4.7q1.4 0 1.1 2.7m413.9-.7q-.6.9-1.6 1-.9-.1-.4-1a2 2 0 0 1 1.6-1q.9 0 .4 1m-429.2 3q-.5 1.8-.9 2-.4-.2-.4-2c0-1.8.4-2 .9-2s.7.9.4 2m4.7-1.7-3.5 11.3c-1.9 6-3.5 11.7-3.5 12.6 0 2.5-2 3.3-3.7 1.5-1.3-1.3-1.3-2.4.6-9.6 2.2-8.8 4.1-13.2 4-9.6 0 1.1-.6 3.8-1.4 6s-1.5 5-1.5 6.3c0 4.2 1.8 1.3 3-4.6 1.4-7.2 3.9-14.2 5.1-14.2q.8 0 .9.3m432.7 2.9q-.5 1.1-.6-.6t.5-1.3c.3.3.4 1.2.1 1.9M68 819.6c0 3.1-5 17.4-6 17.4-.7 0 1.4-9.6 3.6-16.8.3-1.2 2.4-1.7 2.4-.6m431 8.6c0 4-1.3 2.7-2.8-2.8q-2.6-9.2.8-3.6c1.1 1.8 2 4.7 2 6.4"/><path d="M452 5.2c-2.4 3.9-2.8 12.9-.6 14.7q2.6 2.4 2.6-6.7c0-5.2 1.2-7.8 2.9-6.8q1 .7.6 1.6t1.1 1.8c2.4 1.3 3.6 9.6 2.8 20.1-.5 7.7-.4 9.3.7 8.9 1.6-.5 2.7-7.2 2.8-17.3.1-11.4-.7-14.3-4.8-17.1-4.7-3.1-5.7-3-8.1.8"/><path d="M456.7 12.6c-.4.4-.7 2.2-.7 4q0 6.4-2.6 6.4c-1.5 0-1.8 2.7-.8 5.4.3.9 1.4 1.6 2.4 1.6s2 .5 2.2 1.2q.5 1 1.7.4c.9-.6 1-3.1.6-9.4-.6-8.4-1.4-11-2.8-9.6m7.3 31.3c0 3.4 1.5 4.9 2.4 2.5 1.1-2.8.6-5.4-.9-5.4q-1.5 0-1.5 2.9m-55.3-8.7c-1.3 2.4-3.7 7.1-5.2 10.5s-3.3 6.3-3.9 6.4l-11.3-.1c-11.8-.2-12.7.6-5.7 4.8 2.5 1.5 6.6 4.2 8.9 5.9l4.3 3.3-4.4 10.4c-4.7 11.2-5.3 14.3-2.9 15.3 1.7.6 11.4-4.9 18.2-10.4 2.3-1.8 5-3.3 6-3.3s6.2 3.2 11.6 7.1a41 41 0 0 0 11.5 6.7c2.6-.6 1.7-5.9-2.3-14.5-1.9-4-3.5-8-3.7-8.9q-.3-1.6 7.2-6.3c11.2-7 10.9-7.4-8.9-9.8l-6.3-.8-4-10.3c-2.3-5.8-4.5-10.2-5.3-10.2s-2.4 1.9-3.8 4.2m6.1 8.8c1.3 3.8 2.1 7.4 1.7 8-.6 1-9.4.3-10.7-.9-.4-.3-.1-2 .7-3.6l2.9-6.8c.8-2 1.9-3.7 2.3-3.7s1.8 3.2 3.1 7m-16 12.5c.1.1-.2 1.4-.7 2.9l-1 2.6-4.6-2.2c-6.3-3.1-6-4.9.8-4.1 2.8.3 5.3.7 5.5.8m17.5-.9c3 .6 4 1.3 5.1 3.9 3 7 3 7-2.6 10.4-6.1 3.8-7.6 3.6-13.9-1.9-4.5-3.8-4.6-4.1-3.5-7.2.6-1.8 1.5-3.9 1.9-4.6.9-1.3 6.8-1.6 13-.6m20 1.1q4.3.9-2.9 4.4l-4.5 2.4-2-2.4c-3.2-3.9-2.5-5.1 2.9-5 2.6 0 5.5.3 6.5.6m-31.8 14.5a16 16 0 0 1 4.5 3.9c0 1.7-16.7 12.5-17.7 11.5-.4-.4 2.2-7.9 5.7-16.4 1.3-2.9 2.1-2.8 7.5 1m22.3 1a64 64 0 0 1 4.2 11.9c0 1.7-2.1.9-8-3.2-3.3-2.2-6-4.7-6-5.5 0-1.1 6.1-5.2 8.1-5.4.3 0 1.1 1 1.7 2.2m-3.2 89c-.8 1.3-3.1 6.6-5.1 11.8s-4.2 10.1-4.9 10.8q-1.4 1.2-11.7 1.7c-5.7.2-10.4.7-10.4 1.2 0 1.5 7.8 7.9 12.3 10.2q4.1 2.1 4.2 4.1c0 1-1.8 5.7-4.1 10.4-3.9 8.3-4.8 13.5-2.3 14.3.6.2 3.7-1.4 7-3.5l11.9-7.4 6-3.6 6 3.1a126 126 0 0 1 15 9c7.6 5.1 8.1-.6 1.4-15a33 33 0 0 1-2.9-8.1q0-2 6.6-6.3c12.3-8 12.1-8.9-2.1-8.9h-10.3l-5.1-10.4c-2.8-5.7-5.1-10.8-5.1-11.3 0-1.1-3.3-4.3-4.3-4.3-.4 0-1.3 1-2.1 2.2m5.1 7.5 4 9c1.3 2.9 2.2 5.7 1.8 6.3-1 1.6-14.5 1.3-15.1-.3-.8-2.3 5.5-18.7 7.3-18.7.2 0 1.1 1.7 2 3.7m8.8 20.6a21 21 0 0 1 2.1 5.3c.7 3.4-.5 4.7-8.2 8.9l-5.2 2.7-5.8-3.4c-6.6-3.8-7.7-6.4-5-11.7 1.8-3.4 3.2-3.8 13.3-4 6.5-.1 7.4.1 8.8 2.2m15.8-.8c-.1.5-2.2 2.1-4.8 3.5-3.9 2.2-4.7 2.3-5.5 1q-3.1-4.7 2.8-5.3 8-.9 7.5.8m-41.7 2.7c-.3 1.8-1 3.5-1.4 3.9-1 1-11.3-5.1-10.6-6.2.3-.5 3.2-.9 6.6-.9h6.1zm9.3 16.4c1.9 1.7.9 2.8-5.7 6.5a63 63 0 0 0-7.9 5.2q-5.6 5.1-.2-7c4.6-10.8 4.5-10.7 8.8-8.1 2 1.1 4.2 2.7 5 3.4m22.5-2.2c1.9 3 5.7 12.8 5.1 13.4-.5.5-15.3-8.6-16-9.9-.6-.9 6.2-5.7 8.1-5.8.7-.1 1.9 1 2.8 2.3m-17.1 103.3-6 10.8-12.3.5q-12.4.5-12.7 1.7c-.4 1.2 1.2 2.8 8.6 8.5 7.2 5.4 7.2 5.7 1.6 14l-8.3 11.6c-3.9 5.2-3.7 7.7.5 6.1 1.5-.5 8.2-3.7 14.8-7s12.6-5.9 13.2-5.9c.7 0 4.2 2.7 8 6a50 50 0 0 0 12.5 9c2.2 1.6 5 3 6.1 3 1.7 0 1.9-.5 1.3-4-.3-2.2-1.2-5.4-2-7.2a126 126 0 0 1-3.9-11.1l-2.6-7.7 3.2-2.4a137 137 0 0 1 9.7-6.4c5.1-3.1 6.5-4.4 6.5-6.3 0-2.4-.1-2.4-12.5-2.9l-12.4-.5-.9-4-1.7-7.5-1.5-6.3c-.3-1.5-1.2-2.7-1.9-2.7-.8 0-4.1 4.8-7.3 10.7m8.1 2.9c1 3.1 1.4 6 .9 6.4-1.2 1.1-10.1 2.1-10.7 1.2A44 44 0 0 1 432 306c.4 0 1.4 2.5 2.4 5.6m2 11.3c1.9.8 2.7 2.1 3.6 6.5.6 3.1.9 6 .5 6.6-.3.5-3.5 2.6-7.1 4.6-7.2 4-7 4.1-14.7-2.7l-3.8-3.4 3.4-5.5c3.2-5.4 3.4-5.5 8.8-6.1l6.1-.7a9 9 0 0 1 3.2.7m21.9 0q3 .5-5.5 5.7c-3.4 2.1-6.6 4.1-7 4.2-1.1.5-4-6.7-3.4-8.4.6-1.5 9.5-2.4 15.9-1.5m-41.5 1.6c.2.1-.7 1.9-1.9 3.9l-2.1 3.6-3.7-2.1q-12.6-7.7 1.2-6.3zm1.6 17.8c2.4 2 3.6 3.8 3.2 4.5-1.4 2.3-18.6 9.5-18.6 7.8 0-1.4 9.4-15.6 10.3-15.6.7 0 3 1.5 5.1 3.3m24.6-2.8c0 1.8 4.3 16.2 5.6 18.6q1.5 3 .3 2.9c-2 0-14.5-9-16.7-12l-2.1-2.8 2.2-2c3.8-3.4 10.7-6.4 10.7-4.7m-16.8 83.7c-1.6 2.4-4 6.8-5.2 9.8-3.5 8.2-3.1 8-13.5 8-7.2 0-9.5.4-10.6 1.6s-.6 2.1 3.2 5.5c2.4 2.1 5.6 4.7 7.1 5.6s2.9 2.2 3.2 2.8c.4 1.1-3.6 11.8-7.1 19.2-1.8 4-1.4 6.7 1.2 7.1 1.1.1 6.4-2.7 12-6.3a70 70 0 0 1 11.2-6.5c.6 0 3.8 1.8 7 4 11.7 8.1 12.8 8.8 14.9 9.4a5 5 0 0 0 3.6-.6c1.4-1.2 1.2-2.2-2.4-10.8-7.1-16.8-7-15.6-1.3-20.7a47 47 0 0 1 8.3-5.9q9.4-3.8-8.6-4.2l-11.2-.3-2.6-8.7c-4.5-15.3-4.7-15.5-9.2-9m6.1 10c1.4 4 2.3 7.6 1.9 7.9s-3.3.4-6.4.2c-4.2-.4-5.8-1-5.8-2 0-1.9 6-13.3 7-13.3.4 0 1.9 3.3 3.3 7.2m-18.2 12.4c.9.5-.9 6.4-2 6.4-1.3 0-8.1-5.1-7.7-5.8.5-.9 8.5-1.4 9.7-.6m22.2.3q1 0 3.1 6.8c.6 1.9-.3 2.9-5.5 6.8a40 40 0 0 1-7.2 4.5c-.6 0-3.2-1.7-5.9-3.8-5.3-4-5.6-5.4-2.9-12.5l1.1-2.9 8.3.6zm13.7 0c0 1.1-5.4 5.1-6.8 5.1s-2.5-3.6-1.7-5 8.5-1.3 8.5-.1m-4.5 21.1c6.1 13.9 5.7 14.7-4 7.5l-8.4-6.1-2.5-1.8 4.5-3.8c2.4-2.1 5-3.7 5.7-3.6s2.8 3.7 4.7 7.8m-25.7-3.2 3.3 2.5-2.2 2.3c-1.3 1.3-2.7 2.4-3.2 2.4s-2.5 1.1-4.3 2.5c-3.9 3-5.9 3.3-4.9.7l2.1-5.2c3.7-10.3 2.9-9.9 9.2-5.2m-162.9 19.5c.7 1 2 1.7 2.7 1.7q1.3.1 1.4 1.5.2 1.8-1.9.5c-3.5-1.8-4.1-1.2-4.1 4.5 0 3 .2 5.5.5 5.5.4 0 7.3-3.2 10.8-5.1 1.4-.8 2.2-.6 3.3.8 1.3 1.7 1.3 1.7 1.4-.5q0-2-1-2.2-.9-.1-1-1.3c0-2.5-4.5-5.6-9-6.3-4.1-.7-4.4-.6-3.1.9M251 495q.1.9 1 1 1-.1 1-1t-1-1a1 1 0 0 0-1 1m183.6 64.7c-.9 1-6.8 13.6-9.1 19.5-1 2.7-2.3 4.9-2.9 5l-10.1.2c-11.5.1-11.8 1.2-2.5 9.1 3.8 3.3 7 6.7 7 7.6 0 1.7-5.5 18.1-7.1 21.1-1.3 2.3-.2 5.8 1.7 5.8.8 0 6.1-3.6 11.9-8.1q10.7-8.1 12.3-7.5c1 .4 4.7 3.1 8.3 6.1 3.5 3 8.7 6.7 11.6 8.2 8.2 4.4 8.4 3.1 2.3-14.2-2.9-8-4.9-14.9-4.5-15.3.3-.4 3.6-3 7.3-5.7q6.7-5 7-7.4l.4-2.3-10.4.3-10.3.4-4.2-8.5c-2.3-4.7-4.5-10-4.9-11.8-.6-3-2.2-4.1-3.8-2.5m4.8 14.4c2.1 4.5 3.4 8.5 2.9 9-1.2 1.2-12.1 1.5-13.3.3-.9-.9-.2-3.4 4.1-14.7.6-1.5 1.4-2.7 1.9-2.7s2.4 3.7 4.4 8.1m4.3 12.7c.7.4 1.9 2.8 2.8 5.2 1.5 4.1 1.4 4.4-.5 6.5-1.2 1.2-4 3.6-6.4 5.3l-4.2 3.1-6.2-4.1c-6.5-4.3-6.9-5-4.8-10.8 1.3-3.4 1.4-3.5 9.2-4.6l8.4-1.2q.6 0 1.7.6m16.3.1a30 30 0 0 1-8.3 7.1c-.9 0-2.7-6.2-2.1-7.1.7-1.2 10.4-1.2 10.4 0m-39 3.2a11 11 0 0 1-1.1 4.1c-1.1 2-1.2 1.9-4.5-1.3a15 15 0 0 1-3.4-4.1c0-.4 2-.8 4.5-.8 3.9 0 4.5.3 4.5 2.1m29 11.4 3.4 9.9c1.9 5.3 3.1 9.8 2.6 10.1-1 .6-16-11-16-12.4 0-1.1 7.7-8.1 9-8.1q1 0 1 .5m-20.4 7.6c1.2 1.3.8 1.9-3.4 5q-10.2 7.3-10.9 6.6c-.5-.6 4.4-13.7 5.8-15.4.9-1 1.7-1 4.1.5a21 21 0 0 1 4.4 3.3m-176.9-23.2q-.7 3.5 1.4 2.5c1.2-.7 1.2-4.4 0-4.4q-.8.2-1.4 1.9m-4.7 9.6q-1.6 1.7.3 1.5c1.9 0 3.1-1.6 1.8-2.4q-.9-.4-2.1.9m10.1.6q-2.8.9-1.2 2.2c1.3 1.3 4.2 0 4.9-2.1.4-1.4-.4-1.4-3.7-.1m-18.6 2.9q.6.9 1.6 1 .8-.1.9-1-.1-1-1.6-1-1.3 0-.9 1M213 619.1q.1.8 1 .4t1-1.1q0-.4-1-.4-.9.1-1 1.1m2.1 7.5q0 1.7.6.6.4-1.2-.1-1.9-.6-.5-.5 1.3M282 630q.1.9 1.5 1c1.4.1 1.5-.5 1.5-1q-.1-1-1.5-1c-1.4 0-1.5.4-1.5 1m23 16.8c0 1.8 3.7 4.2 6.4 4.2q1.4.2 2.6 1.5 2.5 3 3.2-.3.6-1.7-4.6-4.5c-5.8-3.2-7.6-3.4-7.6-.9m-205.3 4q-3.2 3.6-.1 6.3c1.8 1.5 1.5 5.4-1 15.9q-2.7 10.3 1 19c.8 1.9 2.4 7.8 3.5 13s2.4 10.5 2.9 11.7c1.7 4.1 8 7.2 17.5 8.8 8.6 1.4 10.5 1.3 10.5-.5 0-2.2-3.3-3.8-9.1-4.4-3.5-.3-8.2-1.5-10.5-2.6-3.6-1.8-4.4-2.8-5.8-7.1a86 86 0 0 1-2.5-9.2c-.5-2.3-1.9-7.7-3.2-11.9l-2.3-7.7 1.9-7.8a136 136 0 0 0 2.9-17c.6-2.9-1.1-7.4-3-8-.6-.2-1.8.5-2.7 1.5"/><path d="M112.4 667.4c-1.6 4.1 4.5 13.4 16.2 25 6.4 6.4 14.2 11.9 15.5 11 1.4-.8-3.7-6.1-8.2-8.4a69 69 0 0 1-20-25.5c-1-3.6-2.6-4.5-3.5-2.1m78.1 34.9-14 8.9c-8.8 5.7-9.1 5.9-14.2 5.2-4.4-.5-5.3-.4-5.3.9 0 1.5 4.8 3.7 8.2 3.7 1.1 0 5.2-2.1 9.1-4.7 4-2.5 9.7-6 12.7-7.6 7.4-4 12.2-7.6 11.5-8.8-1-1.4-2.6-.9-8 2.4m-48.2 14.2c-.7 2.1-.6 2.1 4.9 2.8q7.7 1 4.8-2.8c-1.7-2-8.9-2-9.7 0m-77-56.9c-.7 1.8.8 4.9 2.3 4.9.5 0 1-1.5 1.2-3.3q.4-3.4-1.3-3.2-1.4.1-2.2 1.6m-.2 17.8q-1.3 1.4-.1 2.1c1.7 1 3.7-1.2 2.4-2.5q-1.2-1.2-2.3.4m-24.7 14.1c-.7 1.7.4 3.7 1.7 3s1.2-4.5-.1-4.5q-1 .2-1.6 1.5m429.3 3.1c-.4.4-.7 2-.7 3.6q-.1 3 1.9 2.8c1.5 0 1.8-.7 1.7-3.2-.1-3.1-1.5-4.6-2.9-3.2m-5.3 1.9c-.3.8-.3 1.9.1 2.5 1.1 1.8 2.5 1.1 2.5-1.5 0-2.7-1.7-3.4-2.6-1m15.6 4.6q.1.8 1 .4t1-1.1q0-.4-1-.4-.9.1-1 1.1m-16.8 4.1c.5 1.5 2.8 1.8 2.9.3q-.1-1-1.7-1.3t-1.2 1m6.8 5.9q.1.8 1 .4t1-1.1q0-.4-1-.4-.9.1-1 1.1m-37.5-2.8c-.4 1-.5 2.1-.1 2.4 1 1 1.8-.4 1.3-2.4-.4-1.7-.4-1.7-1.2 0m-65.1-8.9c-.6 1.7.2 3.6 1.7 3.6 1.2 0 1.2-3.7-.1-4.5q-1-.4-1.6.9m-4.7 3.2c-.3.3-.3 1.3 0 2.1q.5 1.8 1.4.1c1.5-2.3.4-4-1.4-2.2m5 4.9q-.7 1.5 1.4 1.5 1.9 0 1.7-1.2c-.6-1.8-2.5-2-3.1-.3m.1 5.6c-2.3 1.3-2.3 3.2-.1 2.7q1.5-.4 1.9-2.1l.1-1.7zm71.9 22.7c-1.6 1.7-2.9 4.7-8.7 19.2l-1.8 4.5-8.4.1c-11.6.2-11.8.3-11.8 1.6 0 1.5 5.1 5.8 9.8 8.2 1.8.9 3.5 2.3 3.8 3 .6 1.4-5.6 20-7.8 23.5q-1.2 2-.2 3.1c.7.7 4.5-1.3 12.3-6.5 6.1-4.1 11.6-7.5 12.1-7.5 1.1 0 18.6 11.6 21.5 14.2 1 1 2.4 1.7 3 1.5 2.1-.7 1.4-5.6-2.5-16.7l-4-11.5 2.7-2.3a38 38 0 0 1 13.9-8.2c2.6 0 5-2.5 3.4-3.5-.6-.3-5-.2-9.8.4-8.2.9-14.8.9-15.5 0-.2-.2-1.9-5.1-3.7-10.9-4.6-14.9-5.2-15.7-8.3-12.2m5.5 14.4a31 31 0 0 1 2.2 9c-.3.4-3.4.8-7 .8-7.5 0-7.6-.2-3.8-9.3 2.6-6.3 4.1-8.7 5.3-8.7.4 0 1.9 3.7 3.3 8.2M426.5 764c.7 1.1-1.1 5-2.3 5-.4 0-2.3-1.3-4.2-3l-3.5-2.9 4.7-.1c2.6 0 5 .4 5.3 1m23.3.3c.6.7 1.6 2.5 2.1 4 1 2.6.7 2.9-5.1 7.2a34 34 0 0 1-7.2 4.5c-1.7 0-11.6-7.3-11.6-8.6 0-.7.9-2.9 2.1-4.8l2.1-3.6h8.3q8.3 0 9.3 1.3m13.2-.5c0 .4-1.6 1.6-3.5 2.6-2.6 1.4-3.9 1.6-4.7.8-2.1-2.1-.1-4.2 4.2-4.2 2.2 0 4 .3 4 .8m-5.6 20.1c1.6 4.5 2.6 8.5 2.2 8.8a56 56 0 0 1-14.8-8.5c-1-.8-1.5-1.9-1.2-2.4 1.1-1.8 8.8-6.8 9.8-6.5.6.2 2.4 4 4 8.6M435 783c0 1-11.3 8-12.9 8q-1.2-.1-.7-2l1.2-4.2 2-5.5 1.5-3.4 4.4 3.1c2.5 1.7 4.5 3.5 4.5 4M224 15c-26.7.5-27.5.6-27.5 2.5 0 1.7.8 2 5.2 2.3q5 .3 5.7 1.7c.3.8 2.8 4.5 5.5 8.3s5.1 7.5 5.1 8.1c0 .7-2.3 1.1-5.9 1.1-3.3 0-6.3.5-6.7 1.1-1.6 2.6 1.8 3.1 18.8 2.9l36.5-.4c10.6-.2 19.6-.6 20-.9q1.6-1.5-3.9-2.6l-3.3-.7-.2-8.7c-.3-7.7-.1-8.8 1.6-9.7 1.1-.5 2.8-1 3.9-1s2.5-.6 3.1-1.4c.9-1.1.8-1.5-.6-2.2-2.2-.9-21-1.1-57.3-.4m10 5.8c0 1.5-5.9 10.3-9.1 13.7-.9.9-7.1-4.9-10.4-9.8-3.1-4.8-1.7-5.7 9.5-5.7 8.9 0 10 .2 10 1.8m12.6-.5c.2.7.6 5.1.7 9.7l.2 8.5-8.5.5c-4.7.3-8.8.3-9.2 0s1.2-3.5 3.5-7.1c2.3-3.7 5-8.1 5.9-9.8q1.6-3.2 4.3-3.1c1.4 0 2.8.6 3.1 1.3m9.3 2.7c.3 1.9.5 6.2.6 9.5 0 5.3-.2 6-2 6s-2-.8-2.5-8.8c-.6-10-.4-10.9 1.8-10.5q1.5.5 2.1 3.8m12.4 5.2c.1 4.8-.1 8.9-.4 9.2s-1.6.7-3 .8c-2.3.3-2.4 0-2.1-4.2.2-2.5-.1-6.5-.7-8.9-1.2-5.5-.8-6.3 3.1-5.9l3 .3zM7 673.4q0 1.4.9 2c1.1.7 3.3-1.8 2.4-2.7-1.2-1.2-3.3-.7-3.3.7m12.8 16.2c-.3.3-.4 1.4-.1 2.5.8 2.8 3.3 2.4 3.3-.6 0-2.3-1.8-3.4-3.2-1.9M128 814.1a96 96 0 0 0-25.7 4c-7 2.3-14.7 7.1-17 10.6-1.2 1.9-1.4 3.9-.9 9.4 1.2 13.3 9.4 20.3 29.6 25.2 11.3 2.7 26.7 4.7 37 4.8 9.9.1 26-1.1 27.8-2.1 1-.4 4.6-1.9 8.2-3.1 10.2-3.6 18.9-13.9 19-22.4 0-4.3-5-10-11.9-13.4a180 180 0 0 0-32.1-12c-8.2-1.5-24.4-2-34-1m19.5 4.9c19.7 1.3 30.3 4.3 41.5 11.5 7.5 4.8 9.5 6.9 10.4 10.8 1.5 6.1-6 13.7-16.8 16.9-1.7.4-10.6 1.1-19.7 1.5-16.3.6-25.8-.3-44.3-3.8A72 72 0 0 1 89.5 841c-3-3.3-2.6-9.2.9-12.9 5.8-6 16-8.6 39.6-9.9 1.4-.1 9.3.3 17.5.8"/><path d="M148.3 823.1a40 40 0 0 1-14.6 5.4 94 94 0 0 0-22-1.6c-.5.5 1.3 2.1 4.4 3.9l5.2 3-7.1 3.6c-5.3 2.7-7.2 4.1-7.2 5.6 0 2.4 2.7 2.5 18.1.9 5.7-.6 12-1.1 13.9-1.2 3.6-.1 12.3 3.4 13.6 5.4.9 1.6 11.4 6 12.5 5.4 1.5-1 1-3.8-1.1-7-3.9-5.9-2.1-7.5 10-9.2q5.6-.9 5.5-2.3 0-1.5-3.5-1.8c-17.8-1.3-22-2.8-22-7.8 0-3.7-2.2-4.5-5.7-2.3m2.5 11c4 1.5 2.6 3.6-2.9 4.2-4 .5-6 .2-9.3-1.5-5.2-2.6-5.3-2.7-3.6-3.9 1.6-1 12-.2 15.8 1.2m-19.2 3.3q1.6 1.4 1.3 2c-1 1-16.5 2-15.6 1 1.1-1.2 8.8-4.3 10.8-4.3.8-.1 2.4.5 3.5 1.3m25.4 5.7q2.1 4-1.9 1.9-3.2-1.7-1.4-3.3 1.7-1.8 3.3 1.4m301-13.9c-4.2 1.2-4.6 1.5-5.4 5.1-.5 2.3-.2 2.9 1.6 3.6 2 .7 1.5 1-3.4 2-3.1.7-6.2 1.9-6.8 2.7-2 2.3.6 4.4 5.6 4.4s6.8 1.7 2.7 2.6q-14.2 3.1-11.2 7 1.2 1.4 7 1.4c4.6 0 5.9.3 5.9 1.5q.2 1.6-4.4 1.5c-5.6 0-9.7 2.9-8 5.7 1.1 1.8 5.4 3.1 5.4 1.7 0-.4-.7-1.6-1.7-2.6-1.5-1.7-1.4-1.8 3.5-1.8h5.1l.6 5.5c.4 3 1.1 5.5 1.5 5.5 1.6 0 2.9-2.7 3.2-7l.3-4.5 14.5-1.6c8-.9 15.3-1.9 16.2-2.3 2.7-1.2 2.9-3.5.5-4.8-2-1.1-6.9-1.2-27.1-.4-2.3 0-4.1-.4-4.3-1.1-.3-.9 1.9-1.3 7.9-1.5 10.4-.4 10.6-2.2.3-2.6-12-.5-8.8-2.2 4-2.2 9.6 0 11.5-.3 11.5-1.5s-1.9-1.5-11-1.5c-6.2 0-11-.4-11-.9s2.1-1.1 4.7-1.3c6.8-.4 6.9-2.8.1-2.9l-5.3-.2 4.2-.6c4.4-.7 8.3-3.4 8.3-5.7 0-4-6.9-5.5-15-3.2m9.5 3.7q1 2.2-3.7 1.4-2.4-.6-2.2-1.4c.7-1.2 5.1-1.2 5.9 0m-12.8 10.7q-.7.5-1.9.1t.6-.6q1.8 0 1.3.5m-.2 10.4c-.3.5-2.4 1-4.6 1s-3.9-.5-3.9-1 2.1-1 4.6-1c2.7 0 4.3.4 3.9 1m32.1 3.7c-.5.5-21.1 3.2-25.3 3.3q-2.2 0-2.3-1.5c0-1.9 2.3-2.4 14.5-3.3 8.9-.7 14.7 0 13.1 1.5"/><path d="M465.3 865.1c-2.4.9-3.1 3.3-1.2 4.4s5.9-.4 5.9-2.4q-.2-3.5-4.7-2"/></svg>