<svg xmlns="http://www.w3.org/2000/svg" width="666.7" height="1170.7" viewBox="0 0 500 878"><path d="M228.5 14a30 30 0 0 0-8.3 1.4c-2.1 1.3-.2 2.6 3.8 2.6 3.5 0 4.1.3 4.7 2.7.4 1.6.8 6.4.8 10.7v8l-4.3 1c-2.4.6-4.4 1.5-4.5 2.1-.3 1.3 3 1.4 18.8.4l25.8-1.3c7-.3 13.2-.8 13.7-1.1 2.1-1.3-.2-2.3-5.2-2.3l-6.6-.1c-.7-.1-2.6-2.2-4.2-4.8l-3-4.6 2.2-3.6c3.3-5.6 6.8-9 9.7-9.3 1.4-.2 2.5-.8 2.3-1.3-.2-1.1-33.5-1.4-45.7-.5m30.5 3.7c-.1 1.3-3.8 5.3-4.9 5.3-.5 0-1.7-1-2.5-2.2-1.2-1.7-1.3-2.4-.3-3 1.5-1 7.7-1 7.7-.1m-12.2 5.8 4.3 5.6-4.2 4.9c-6.6 7.9-8.6 7.5-9.3-1.7-.3-3.4-.6-6.5-.8-7-.1-.4.1-2.3.5-4.1q1.7-7.6 9.5 2.3m10.9 13.9c-.8 1.9-3.7 2.1-3.7.3q0-1.2 1.2-2.5c1.5-1.5 3.3.1 2.5 2.2m93.8 110.1-1 3c-.2.8-1.1 1.2-1.8.9-2-.7-2.7 2.7-1.6 7.3q1.9 8.3-.5 8.3c-2.4 0-6.4 4-7.1 7-.7 3.2 3.3 13.4 6.2 15.7 1.4 1.1 1.4 1.5.2 2.9-.8 1-1.5 3.8-1.5 6.3l-.8 10.6c-1 8 1 11.7 8.9 17.1l6 4 .3 6.2c.3 6.1.2 6.2-2.3 6.2-6.2 0-16.7 10.5-18 18-.8 4.9-.2 6 3.6 6q2.9 0 2.9 1.4c0 2.1 3.8 4.5 6.1 3.9 2-.6 2.7 1.5.9 3.3q-.9 1 2.6 3.8c3.1 2.4 3.8 2.6 6.6 1.7 4.3-1.5 4.8-1.4 4.8 1.2a51 51 0 0 1-9.2 18.5c-2.3 2.1-2.9 2.2-7.1 1.2a14 14 0 0 0-7.1 0c-2.2.8-3 .4-6.6-3.7a20 20 0 0 0-8.7-6.2c-4-1.4-4.8-2.1-5.7-5.3-.6-2.1-1.8-4.6-2.7-5.5a255 255 0 0 0-18.5-16.6c-.8-.5-6-1-11.7-1.3-15-.7-17.3-1.2-18.6-4-2-4.5-.7-8.9 2.9-9.6 1.1-.2 1.5.7 1.5 3.6 0 4.5 2.4 6.8 5.3 5 2.3-1.5 2.8-4.4.8-4.4q-1.5 0-1.6-.5c0-1.1 4.3-8.5 5.6-9.6.8-.6 1.4-2 1.4-3 0-1.1 2.8-4 7.3-7.3 12.4-9.5 19.7-20.6 20.5-31.7.5-7.6-1.5-12.6-7.6-18.7a84 84 0 0 0-28.1-14.2 57 57 0 0 1-9.5-3.5 59 59 0 0 0-25.4-3.1c-13.5 1.1-28.4 9.1-33.6 18-2.7 4.7-3.2 8-1.7 13l2 7.9c.6 2.6 1.9 6 2.8 7.4 2.1 3.1 1.8 6.9-.8 12.9q-2 4.5-1.4 7.5a44 44 0 0 0 14.2 16.5c2.2.6 2.4 1.1 2.1 5.8-.2 4.2-.6 5-2 4.8-1-.1-3.5.6-5.7 1.8-2.2 1.1-5.6 2-7.6 2-10.1 0-27.8 15.2-33.7 29-5 11.6-4.1 10.6-10.5 10.4-3.2-.1-7.7-.7-10-1.4-5.1-1.6-8.3-.8-12.7 3-4 3.5-4.5 3.6-9.6 1-5.3-2.7-6.6-2.6-13.2 1.5a41 41 0 0 1-11.5 4.7c-3.2.5-7.3 1.6-9.1 2.4-4.3 1.8-6.2 1.8-7.7-.2-1-1.4-3.4-1.7-13.6-1.9-12.4-.3-19-1-22-2.6-1.3-.7-1.6-3-1.7-13.6-.2-16.3.6-20.7 3.6-21.1 1.2-.2 2.2.1 2.2.7 0 1.6 6.1 5.1 8.7 5.1 1.1 0 4-1.6 6.3-3.5s4.6-3.5 5.1-3.5c2 0 4.5-8.9 5.4-19.5l.4-4.2c0-.6 1-1.5 2.1-1.8 4.1-1.3 5.3-5 5.5-16.3.1-5.9.8-12.6 1.5-14.9s1-5.6.6-7.9c-.8-4-5.4-9.4-8.1-9.4-2.2 0-5.9-8.6-5.6-13.2.1-3.2-.5-4.4-4.7-8.7-2.8-3-5.7-5.1-6.9-5.1s-4 1.6-6.3 3.5c-5.7 4.8-7.2 4.6-6.4-.5.5-3.1.3-4.5-1.1-6-1-1.1-2.3-3-2.9-4.3a6 6 0 0 0-3.7-2.5c-3.6-.4-10.1 7.7-9.3 11.7.5 2.3 0 3.1-3.5 5.4-3.2 2.1-4.1 3.4-4.1 5.5 0 1.5-.7 3.8-1.6 5.1-1.3 1.8-1.4 2.8-.5 4.8.6 1.3.9 2.9.6 3.4-.9 1.4-4.1 1.1-5.5-.6q-3.2-4-6 3.1c-1.6 3.5-1.9 6-1.5 11.6.4 6.4.8 7.5 3.7 10.5 3 3.1 3.1 3.5 1.8 5.6-4.8 7.5-5.9 12.1-3.9 15.9 1.4 2.7.1 4-5.4 5.3-3.7 1-4.2 1.4-4.5 4.2-.4 3.8 3.4 13 5.9 14.3.9.6 4.5.7 7.8.4 5.3-.6 6.1-.5 6.1 1q.1 1.5 1.5 2.3c.9.3 2.2 1.8 3.1 3.4q2.5 5 6.6 1.2c1.7-1.5 1.8-1.5 1.8.3 0 1 .5 5.9 1.1 10.9 1.3 11.5.8 13.8-2.9 12.9a16 16 0 0 1-3.7-1.4c-4.3-3.1-15.4-1.9-20 2.1-1.8 1.6-4.1 2.9-5.2 2.9s-3.2 1.4-4.9 3.1a47 47 0 0 1-6.1 5.1l-3.3 2 .1 144.6v144.7l2-6.4A26 26 0 0 1 9.8 582c8.6-8.5 13.5-10.5 25.7-10.5 8.2 0 10.9.4 14.8 2.2a37 37 0 0 1 21.4 26.4 36 36 0 0 1-10.4 34.1c-2.6 2.6-7.5 6-10.8 7.5-8 3.7-19.9 3.9-28.7.4a41 41 0 0 1-19.2-17.4l-2.5-5.2-.1 67.8q0 67.6 1 67.2c.6-.3 1-1.5 1-2.5 0-3.2 4.5-12.3 8.4-16.7a43 43 0 0 1 21.4-11.4 36 36 0 0 1 40.5 20.9 27 27 0 0 1 3.2 15.7c0 7.8-.4 9.7-2.8 14.6-3.9 8-9.7 14.1-16.4 17.4-8.3 4.1-9.1 4.3-15.7 4.8-9.6.6-21.4-4.3-28.7-12-7.2-7.7-9.7-13-10.9-23.8-.4-3.3-.8 9.9-.9 29.2C0 821.5.2 826 1.5 826q1.3-.1 1.5-1t1.8-1c1.7 0 2.3-.5 3-1.2s3-1.1 5.2-1q7.6.5 2.8-5.8c-2.3-3.1-2.3-3.2-.4-4.6 2.5-1.8 4-1.8 5.6.1.7.8 2.8 1.5 4.6 1.5q3.6 0 2.8 1.5c-.3.7.6 3 2.1 4.9 2 2.6 3.6 3.6 6.8 4.1 9.4 1.4 20.1.3 23.7-2.5a33 33 0 0 1 4.7-3 6 6 0 0 0 2.8-3.2c1.4-4.5 2.5-5 5.9-2.9 5.1 3.2 12.6 2.8 12.6-.6 0-1.2-.8-1.3-4.1-.8-3 .5-4.5.3-5.8-.9-3.5-3.2-11.1-1.8-11.1 2 0 2-.8 1.7-3.5-1.3l-2.4-2.8-2.7 2.7-2.8 2.8 2.2 2.9c2.2 3 2.2 3 .3 4.1-2.3 1.2-3.5-.1-2.7-2.8.4-1 0-2.7-.8-3.7-1.2-1.6-1.9-1.8-4.3-.9-2.3.8-2.8 1.5-2.8 4.4 0 4.4-1.9 4.6-2.2.3-.1-1.8-.8-4.2-1.6-5.3-1.3-1.9-1.4-1.9-4 .6-1.5 1.4-2.7 3.4-2.7 4.6 0 1.7-.2 1.8-1.5.8q-4-3.5 2.5-7c4.1-2.1 4.9-3.7 2.8-5.8-2.4-2.4 2.5-2.9 20.5-1.9 7.9.4 12 .2 15.5-.8 5.9-1.9 8.6-1.9 10.1-.1.7.8 2.8 1.7 4.9 2l7.4 1.2c2.9.5 4.6.1 7.3-1.5 4.3-2.5 5.3-2.6 9.3-.6 5.2 2.6 17.4-.8 18-5 .2-1.7 6.7-5.5 9.5-5.5.4 0 .7 2.8.7 6.2s.5 7.6 1.2 9.5c1 2.8.9 3.8-1 7.2-2.6 4.6-2.8 7.9-.6 8.8.8.3 7-.9 13.7-2.7 15.8-4.2 22.1-5 27.2-3.4 14.2 4.4 24.3 6.2 40.7 7 8.7.5 14.2.3 17.5-.5a353 353 0 0 0 19.3-5.3c7.8-2.2 13.8-2.6 30-1.6 11.2.7 14.8 1.5 17.5 3.8 4.6 4.1 14.2 7 22.5 7 16.6-.2 23.6.2 31.5 1.5 6.7 1.2 13.1 1.4 25.6 1q16.7-.5 19.5.6a539 539 0 0 0 61.7.3l5.8-.7-.4 4.9c-.4 3.8-.9 5-2.3 5.2-9.3 1.4-14.8 4.8-12.4 7.7 1.4 1.7 7 3.4 11.5 3.6 2.9.1 3 .1.5.9-1.4.4-4.6.8-7.1.9q-7.7.3-6.3 4.5 1.4 3.6 10.9 3.6c3 0 5.7.4 6 1q.4 1-3.7 1.1-16.3.2-15.6 5.2c.4 3 4.3 3.5 5.8.8.9-1.8 2-2.1 7.4-2.1 6.3 0 6.4 0 7 3 .4 2.4 1.1 3 3.2 3 2.3 0 2.5-.3 2-2.4-.8-3.1.3-3.7 4-2.7q3.4.9 1.2 1.6c-2.9 1.2-2.2 3.7 1 3.3 2.1-.2 2.7-.8 2.6-2.6q0-2 1.4-2.2c.8 0 2.9-.7 4.8-1.6l3.4-1.6v-20l-2.5.6q-2.6.7-2.5-.8c0-1.5-5.6-3.6-9.7-3.6-1.2 0-2.5-.5-2.8-1q-.6-1 3.4-.4c5 .8 9.1-1.5 9.1-5.1 0-2.7-3.3-5.5-6.7-5.5q-2.1 0-2.3-.9c0-2.1 3.4-4.1 7-4.1 2.1 0 4.5-.3 5.4-.6 1.5-.6 1.6-22.8 1.6-242.1q0-241.2-1-240.8t-1-.9q0-1.8 1-2.1c.6-.3 1-4 1-8.1 0-4.4-.4-7.3-.9-6.9q-.9.3-1.6-1.5c-.4-1.1-2.5-3-4.7-4.1-5.3-2.7-8.8-1.5-8.8 3.1 0 1.6-.5 3-1 3q-1-.2-.4-3.8c.7-4.6-1.5-7.3-4.6-5.5-.9.7-3.4 1.5-5.4 1.8-4.8 1-4.9-1.5-.1-4.4 1.9-1.1 3.5-2.5 3.5-3.1s-1.4-2.4-3.2-4c-2.9-2.6-3-3.2-2-5.5.7-1.4 1.2-4.3 1.2-6.3 0-2.1.7-4.7 1.4-5.8a23 23 0 0 0 1.8-8.5c.3-5.7.5-6.4 2.5-6.7 1.7-.3 2.2.3 2.5 2.4.4 3.7 2.5 4.2 3.9 1q2.5-5.6 3.1 1.6c.3 3.7.8 4.6 4 6.7 3.2 2 3.6 2.8 3.1 5.2-.9 4.7.4 8.1 3 7.7 2-.3 2.2-1 2.5-6.4.2-5-.1-6.3-1.7-7.8-1.7-1.5-1.8-2.2-.8-4.4a9 9 0 0 1 2-3.3c.4-.3.4-3.8-.1-7.7s-.5-7.2 0-7.2.8-1.1.8-2.5c0-2.3-.4-2.5-4.2-2.5q-4.2 0-6.5 2.2l-2.3 2.1-1.5-3.6c-.8-2-1.5-4.1-1.5-4.7 0-1.7-3-1.1-3.6.7a59 59 0 0 1-7.6 13.6c-2.8 3.6-2.9 4.2-2.7 12.1l.3 8.4-3.7 4.1-3.7 4.1v-22.5c0-20.6.2-22.6 1.8-23.2.9-.3 3.4-2.2 5.5-4.2 3.3-3.1 4-3.4 5.7-2.3 3.1 1.9 4.2 1.5 9.4-3.4l4.8-4.6-.6-5.6c-.3-3.1-.8-7.4-1.2-9.5s-.2-4.3.4-5c1.7-2.1-.4-11.7-3.3-14.7q-4.2-4.3-1-8.4c2.3-3.1 1.9-9.8-.9-13.9a18 18 0 0 1-2.8-5.9c-.2-1.7-1-2.4-3.3-2.6-3.3-.4-9.5-6.1-9.5-8.7 0-2.2-4.3-9.5-5.5-9.5-.5 0-3.5 1.8-6.5 3.9-4.4 3-5.6 4.4-5.8 7-.3 2.4-1 3.4-3.5 4.5a30 30 0 0 0-13.1 14.7c-1.1 3.5-1.8 4.5-4.4 5.1-4.4 1.2-9.9 8-11.1 14-2.2 10.1-1.2 14.7 3.9 17.3 1.6.8 3.1 2.4 3.5 3.5s1.3 2 2.1 2q2.8 0-.2 4.5c-3.2 4.8-3.8 15.8-1.1 19.9 1.8 2.7 1.9 2.7 9.7 2 7.6-.6 8-.5 13.5 2.6l5.8 3.3-.5 17.9c-.3 9.8-.7 18-1 18.3-1.2 1.2-18.1 1-19.7-.2-3.5-2.7-6.8-1.5-12.3 4.3-7 7.4-12.8 10.7-18.7 10.8-3.4.1-5-.4-6.3-1.9-2.4-2.9-2.6-1.8-3.2 21-.8 27.9-1.1 29.4-5.2 31.1-5.1 2.1-9.6 1.7-16.1-1.5q-12.7-6.2-13.8-16.3a44 44 0 0 1-.5-6.8q.6-4.1-1.3-4c-2.8 0-3.7-2.2-2.1-5.2a18 18 0 0 0 1.3-7.8c-.2-4.4.2-5.6 4-10.7 2.3-3.2 4.8-7.3 5.7-9.1 1.6-3.5 3-4 6-1.7q4 3 3.2-.8a5 5 0 0 0-2.5-3.2q-2.1-1-2.3-1.7c0-1.2.5-1 4.4 1.3s6 1.8 5.1-1.2q-.7-2 .8-1.3c.8.3 2.7-.5 4.2-1.8 8.7-7.2 9.3-9.2 3.2-9.5-2.1-.1-4.5-.6-5.4-1.1a30 30 0 0 0-14.7.9q-1 .8-2.4.9-1.7.1-.2-1.5 1.3-1.4 2.2-1.5c1.2 0 7.8-5.3 7.8-6.3 0-1.7-6.9-.4-12.2 2.2-3.2 1.6-5.8 2.5-5.8 1.9 0-1.9 4.9-5.7 8.9-6.9 4.8-1.4 6.9-4.2 5.1-6.5-.9-1-2.6-1.2-6.9-.8-7.1.8-9.2 2.2-11.6 7.3-1.8 4.1-3.5 5.4-3.5 2.6 0-.8 1-3.5 2.2-6 1.8-3.6 3.2-5 6.7-6.6s4.7-1.7 5.8-.7c1.2 1 1.8.9 2.9-.7 1.3-1.7 1.5-1.8 3.3-.1s2 1.7 2.9 0 1.3-1.6 6.3.5a28 28 0 0 1 14 12.3c2.2 4.2 2.6 10.8 1.6 26-.4 5.5-.3 9.9.2 10.3 1.5.8 2.1-.8 2.7-7.4.4-3.4 1.1-6.1 1.5-6.1 1.5 0 3.1-7.8 2-9.9-.6-1-1.5-3.9-2-6.3-.6-2.5-1.3-5.3-1.7-6.4-.6-1.7-.5-1.7 1.7.3s2.9 2.1 6.1 1.2c2-.5 4.9-2.4 6.4-4.2 1.4-1.8 3.5-3.5 4.5-3.9a3 3 0 0 0 1.9-2.8c0-2.4-5.6-8-8-8-1.5 0-16.1-14-19.8-19-1-1.4-2.6-4.5-3.6-7-3-7.6-4.6-10.3-8.1-14.5-5.1-6.1-8.8-9.5-10.3-9.5q-4.6 0 3.8 8.9c5.9 6.1 10 12.5 10 15.5 0 .8-.9 1.8-2 2.1q-3.4 1-.9 5.8c.7 1.2-.7.1-3-2.6a20 20 0 0 0-5.4-4.7q-1.2 0-2.6-.9c-1.3-.8-1.3-1.2-.1-2.6s1.2-1.8-.1-2.6c-2.1-1.3-4.4-.6-4.1 1.4q.2 1.5-1 1.7c-2 0-8.8-4.9-8.8-6.3q.1-1 1.1.5 2 3.6 7.3-.5c3.5-2.9 2.7-5.2-1.5-4.3q-3.1.7-2.2-.9.4-1.5-.6-2.9-1.3-1.3.3-2.5c.8-.7 1.2-2.7 1.1-5.1-.1-2.2.2-4 .6-4q.8.2.9 1.5c0 1.6 3.5 2.1 4.5.6.3-.5 2-.7 3.8-.4q6.1.8 5.5-5.4c-.3-2.4-.7-2.8-3.4-2.7l-3.1.2 1.3-3.7q4-11-5.2-14.7c-4.1-1.7-4.2-2.7-.9-6 3.8-3.8 2.9-5.8-1.6-3.4-3.8 2.1-.8-5.3 3.6-8.8 1.4-1.1 2.5-2.3 2.5-2.7 0-1.2-5.3 2.5-7.7 5.4-2.6 3-3.1 1.2-.7-2.5s.9-4-2.5-.3c-3.6 3.9-4.9 3.4-2.7-1 2-3.9 2-4.1-.4-4.1-1.1 0-2.3.7-2.5 1.5m110.8 10.9c.3.8.3 3 0 4.9-.6 4 1.6 6.8 4.7 6q2-.5 2 .9a7 7 0 0 0 1.3 3.2c1.2 1.6 1.7 1.7 3.7.6 1.8-1 2.4-.9 3.1.1q.6 1.2.2 2.2c-.2.4.7 2 2.1 3.4s2.6 3.6 2.6 4.9c0 2.5-1.5 4-2.5 2.4-.6-1-6.5 1.4-6.5 2.7 0 .4.9 1.7 2.1 2.9q3.8 3.7-1.8 4.7a14 14 0 0 0-4.8 2.1c-1.9 1.4-1.9 1.6-.3 3.2 1.5 1.5 2.2 1.6 5.6.6 5.5-1.7 9.9-1.5 10.6.4 1.1 2.8.6 3.4-2.7 3.4q-3.4 0-5.3 2.1c-1.8 2-1.8 2.1.4 3.8 1.2.9 3 3 3.9 4.6 6 11.1 6.6 14 3.2 15-2.4.8-2.2 1.1-4-4q-1.5-3.8-3.4-4.4a6 6 0 0 1-3-1.7c-.9-1.2-1.8-1.2-6.4 0-2.9.7-5.7 1.9-6.1 2.6-1.2 1.9-.5 8.7 1 10.5 2.1 2.5 0 3.6-4.3 2.4-3.3-.9-3.7-1.3-3.7-4.3 0-6.5-5.5-9.1-9.8-4.8a13 13 0 0 1-4.7 2.8q-2.4.7-2.5 2.5c0 2.4-2.5 3.5-4.4 1.9a9 9 0 0 1-2.2-4.3c-.5-2.6-.2-3.4 2.1-5.3 2-1.6 2.5-2.7 2-4.3q-.6-2.2.8-2.1c2.7 0 3.7-2.4 2.7-6-.5-1.9-1.5-3.7-2.1-4.1-1.8-1.1-5.7 1-6.3 3.4-.5 2-.6 2-2.4.4-1-.9-2.6-1.7-3.4-1.7-2.3 0-2.6-1.7-1.4-10.2 1.4-9.1 3-11.3 9.2-12.3 5.3-.8 8.5-3.4 7.7-6.4-.4-1.6.1-2.3 2.1-3.1q2.5-1 2.6-2.9 0-2 3.3-3.7 6.6-3.4 6.7-9.1c0-2.4.7-3.6 3.3-5.1 4-2.5 4.3-2.6 5-.8m-409.6 4.8a22 22 0 0 1 2 5c.9 2.9.8 3.9-.5 5.1-2.2 2.3.1 7.7 3.4 7.7 1.2 0 2.5-.4 2.8-.9s1.5-.7 2.5-.4c1.5.4 2.4-.5 4-3.6 2.7-5.3 5.2-5.3 10.2-.2 3.4 3.6 3.7 4.4 3.2 7.8-.3 2.1-.7 4-.9 4.2s.8 2.1 2.2 4.2c2.9 4.7 3 5.5.4 6.9q-4 2 .5 6c2 1.9 2.7 2.1 4 1 .8-.7 1.5-2.1 1.5-3.1 0-2.7 1.5-3.1 3.6-.8s2.5 9.9.6 12.1a39 39 0 0 0-2.1 9.2c-1 6.9-.9 8.1.5 9.7 2.3 2.6 1.2 4.5-4.3 7.1-4.3 2.1-4.8 2.6-4.5 5.3.6 6.8.8 16.1.4 17.7q-.6 1.7-2.8 1.8-2.5 0-2.4 1.8c0 4-7.7 7.5-10.1 4.6-1-1.3-.5-2.1 3.4-5.7 2.5-2.3 5.2-5.3 6.1-6.7 2.1-3.4.7-5.5-3-4.6q-3.9 1-1-.9a8 8 0 0 1 2.8-1.5c1.3 0 3.8-5.8 3.2-7.4-.9-2.3-3.5-2-4.1.4q-.5 2-3.4 2c-1.5 0-3.1.4-3.4 1-1.3 2.1-3.7.9-5.1-2.5-.8-1.9-1.8-3.5-2.2-3.5-1.5 0-3.2 2.4-3.2 4.7q0 2.1-1 2.3-.9-.1-1-1.5c0-1.6-3.5-2.1-4.5-.6-.3.6-2.3.5-5-.3q-7.4-2.4-5.8 3.2c.5 2 .3 2.1-2.6 1.6-3-.6-3.1-.5-3.1 2.9 0 4-2.4 6.7-4.2 4.9a3.6 3.6 0 0 0-5.8.8c-1.5 2.8-2.6 2.5-5.5-1.7q-5.1-7.7.3-8.8c4.1-.9 11.2-4.5 11.2-5.7 0-.6-1.2-2.1-2.6-3.5-2.1-1.9-2.4-2.9-1.9-5.6.9-4.5 3.7-8 7.1-9.1 1.6-.4 3.7-1.3 4.8-1.8q1.9-1 4.3.3c1.8 1 2.6 1 3.5.1.7-.7 2.4-1.2 3.9-1.2 5.8 0 3.9-3.6-2.5-4.7-1.9-.3-5.5 0-8 .6-5.3 1.3-7.4.7-7.8-2.2q-.2-2.2-3.3-2.7c-2.8-.5-2.9-.7-3.2-6.5-.1-3.3 0-6.8.3-7.8.8-2.6 3.4-2.1 3.4.7q.1 6 5.4.4c1.7-2 3.9-3.8 4.9-4.2 2.3-.7 2.2-3.3-.3-4.6-2.6-1.4-2.6-4.5.1-6.4q2.2-1.4 1.4-3.5c-.5-1.6.1-2.4 3.2-3.8 3.6-1.7 3.8-2.1 3.8-6.4 0-2.6.7-5.6 1.8-7.2 1.9-3 3-3.3 4.4-1.5M259 188.1c0 1.7 3.9 2.9 6.4 2q2.5-1.2 3.7.5c.6.8 2 1.2 3 .9s2-.1 2.4.5 1.5 1 2.5 1c3.1 0 9 4.5 8 6-1.2 2-.1 3.3 1.6 1.9q1.4-1.2 1.4 0-.1 1-1 1.1t-.4 3.4c.3 1.9.4 3.9 0 4.4-.3.5-2.9.5-5.8.1-5.5-.7-9.8.7-9.8 3.4 0 .6-1.8 5.2-4 10.2l-4 9.3c0 .2 1.2.2 2.7 0 2.1-.2 3-1.1 3.7-3.3.5-1.7 1.6-4.5 2.3-6.4l1.3-3.4 2.3 2.1c2.7 2.5 5.5 2.9 6.3.8.9-2.2-1.3-5.3-4.1-6-2.9-.7-2.4-2.6.7-2.6 1.6 0 3.6.8 8.7 3.7.9.5-2.5 6.8-6 11-2 2.5-4.5 6.2-5.5 8.2-3 5.9-11.4 14.1-14.5 14.1-2.8 0-12-4.2-15.2-6.9-2.2-1.9-6.7-10.6-6.7-13.1s-1.7-3.5-3.5-2c-2.2 1.8-1.7 4.8 1.8 11.4 2.4 4.5 4.2 6.5 7.4 8.2 2.4 1.2 5.8 3.2 7.6 4.3 2 1.2 5.1 2.1 7.5 2.1 4 0 5.2 1.1 5.2 4.7 0 .8.8 3.1 1.7 5 1.5 3.3 1.5 3.7 0 4.7a665 665 0 0 0-20.9 14.9c-6.8 5.2-7.2 5.3-20.3 3.5-9.4-1.3-14.9-3.2-15.3-5.3-.6-3 3-9 7.2-12.1 10-7.2 10.6-7.3 8.6-.5q-1 3.5.2 4.8 2.5 2.8 4.7-5c1.1-4.4.9-26-.3-28.9-.5-.9-.1-2.7.9-4.2 1.9-2.9 1.3-6.1-1-5.2q-1.4.5-1.5-.9.2-1.4 1.5-1.5c1.3-.1 1.5-.4 1.5-.9s1.6-3.2 3.5-6.1q3.4-5.2 4.1-10c.4-2.8 1.3-5.5 2-6.1.8-.6 1.4-2.2 1.4-3.5s.5-2.6 1-2.9 1-2 1-3.6c0-2.4.4-2.9 1.8-2.5q3.4 1.1 5-3.5c.8-2 1.7-2.6 4.1-2.6 1.7 0 3.1.4 3.1.8m34.1 4.2c-.1 1.2-1.5.9-1.9-.4q-.4-1 .8-.8 1 .5 1.1 1.2m59.4 7.7c.3.6-.3 2.2-1.4 3.6-3.2 4-2.9 11.3.6 15.5 2.4 2.8 2.5 3.1.6 2-3.7-1.9-5.3-5.2-5.3-10.9 0-7.3 3.4-13.6 5.5-10.2m2.5 9.4c0 .8-.4 1.8-1 2.1q-.9.3-1-1.4.1-2 1-2.1 1 .1 1 1.4m-139 16.7q0 .8-1 .9-.9-.1-1-1.6.1-1.3 1-.9 1 .6 1 1.6m7 1.7c0 .5-.9 1.7-2 2.7q-2.2 2-2 .4c0-1.6 1.9-3.9 3.2-3.9q.7.1.8.8M367.8 239q-.4 2.3-2 2.8-2 .6-1.8-2.6c0-1.7.3-3.8.7-4.8.6-1.6.7-1.5 2 .2.8 1 1.3 3 1.1 4.4m40.9 13.4c3.9 2.3 5.4 4.6 2.9 4.6-.9 0-2.3 1.1-3.2 2.5-2.1 3.2-3.1 2.5-6-4.1q-3.6-8.4-4.9-3.4-.7 1.8-1.6 1.4c-.5-.3-.3-1.5.6-2.7 2.3-3.3 1.9-4.2-4-10.3-8.7-9.1-6.4-8.1 3.5 1.3 5 4.8 10.7 9.6 12.7 10.7M284 235q0 .9-1 1a1 1 0 0 1-1-1q.1-1 1-1t1 1m-59 3.6q0 1.3-.9 1.4c-1.1 0-2.2-2.6-1.4-3.4.9-.9 2.3.3 2.3 2m155.9 5.9c3 3.1 5.1 5.8 4.8 6.1s-3.2-.7-6.4-2.3c-5-2.6-5.8-3.4-6.1-6.1-.5-4.7 1.5-4.1 7.7 2.3m11.1 3.1q0 1.3-1 .9c-.5-.3-1-1.3-1-2.1s.5-1.2 1-.9 1 1.3 1 2.1m-36.1.8c1 1.1.5 2-2.6 4.3a30 30 0 0 0-4.9 4.3c-3.7 4.8-5.3 6.4-5.9 5.8-1.3-1.3 1.6-7.6 5.4-11.7 4-4.3 6.1-5 8-2.7m97.6-.5c1 1.7-1.2 2.1-2.5.6q-1.6-1.6.3-1.5 1.5 0 2.2.9m-400.8 9.3q-.5 1.1-.6-.6t.5-1.3q.5.7.1 1.9m8.3 1.2c0 1.5-1.8 3.1-2.6 2.3-.7-.7.7-3.7 1.7-3.7q.8.1.9 1.4m298.6 4.1c-2.6 1.9-4.2 1.9-2.6 0 .7-.8 2-1.5 2.9-1.5 1.3.1 1.3.3-.3 1.5M483 262q0 .9-.4 1-.5-.1-1.1-1-.4-1 .4-1 1 0 1.1 1m-440.9 7.3c-2.1 2.1-3.2-.7-1.3-3.3l1.7-2.5.3 2.4c.2 1.3-.1 2.8-.7 3.4m244.4-2.3a50 50 0 0 0-16.9 6.3q-1.9 1-1.1-.3c.4-.6 3-2.2 5.8-3.4 7.2-3.3 7.8-3.4 11.2-3.5q3.7 0 1 .9m-82.5 1q-.2.9-2.1 1-1.7-.1-1.4-1c.3-.6 1.3-1 2.1-1s1.4.4 1.4 1m97 2q0 .9-.4 1-.5-.1-1.1-1-.4-1 .4-1 1 0 1.1 1m-115 23.7c0 13.6 1.8 20.8 9.2 37.3 1.1 2.4 4.8 7.3 8.1 10.7 8.6 9 9.8 8.9 22.1-2.8 5.2-5 11.8-12.1 14.5-15.9a82 82 0 0 1 36.7-27.1 37 37 0 0 1 18.3-4.3c8-.1 8.5 0 9 2.1.7 2.6 3.2 5.8 5.2 6.6q1.6.4-1.7 3.4c-10.5 9.5-15.3 22.7-10.8 29.2 1.5 2.1 1.5 2.5-.3 4.9-3.6 4.9-4.3 6.9-7.2 20.9a119 119 0 0 0-3 30.2c-.2 13.5.1 16.8 1.4 18.8 1.4 2 1.7 6.7 2 29.6.2 15 .6 31.2.9 36.2.7 8.8.6 8.9-.9 5.5-1.5-3.2-1.7-3.4-3-1.7-1.2 1.6-1.4 1.1-1.7-4.5-.2-3.5 0-12.3.5-19.6.9-15.4.7-22.4-.9-22.9-1.3-.4-2.4 14.6-2.8 39-.2 8.7-.7 14.2-1.4 14.9-1.6 1.6-1.5 4.7.2 8 .8 1.4 1.4 5.3 1.5 8.5a2879 2879 0 0 1 3.1 102.5c0 16.9 1.2 23.8 4.6 27.5a9 9 0 0 1 2.4 5.3c0 5.1 7.8 14.6 15.4 18.7 1.8 1 3.5 4.9 8.5 20.5 5.3 16.1 25.3 45 38.7 55.8a110 110 0 0 0 26.1 16.6c6.3 2.9 24.7 9.4 34.8 12.2 3.7 1 9 5.1 12.1 9.4 4.5 6.2 10.3 9.4 21.5 11.7 15.1 3.1 20.7 6.4 23.5 13.7.9 2.4 3.2 5.8 5.1 7.4 2.8 2.5 4.2 3 8.7 3 7.1 0 10.2 2.4 11.2 8.6.3 2.5.3 4.9-.2 5.4s-4 1-7.9 1.2l-7 .3-.1-4.5c-.2-7.3-.3-7.6-2.9-8.8q-6.8-3.1-11.6 1.7c-3.2 3.2-3.6 5.7-1.6 8.5 1.4 1.9 5.9 1.9 9.8.2q1.5-.8 2.9 1.9c1.2 2.3 1.2 2.8-.6 4.4-1.6 1.6-4.5 2.1-17.4 2.9a547 547 0 0 1-31.8 1.1c-15.4.1-16.6 0-21.6-2.4-2.9-1.4-6-2.5-6.9-2.5q-1.6 0-1.7-1c0-1.6 3.4-2.9 8.5-3.1 8-.5 11.8-6.3 9.3-14.7-1-3.5-2.4-5.4-6.3-8.3-2.7-2.1-6.4-4.9-8-6.3-1.8-1.4-7-3.5-12.5-5-26.1-7-32.8-10.2-45.5-22-4.1-3.8-4.5-4.7-4.5-8.8 0-3.6.5-4.9 2.3-6.1 2-1.4 2.1-1.6.4-2.2-4.3-1.8-7.2 7.1-4.4 13.6a68 68 0 0 0 20.2 18.6c5.4 2.8 27 9.9 32.3 10.8 4.6.7 15.8 7.7 20.5 12.7 2.4 2.6 2.8 3.6 2.5 8.1-.3 5-.4 5.2-3.4 5.5-3.5.3-4.9-1-5.7-5.5-.5-2.6-.2-3.5 1.3-4.3 2.2-1.2 2.7-3 .8-3-2.1 0-5.8 4.3-5.8 6.7 0 2.7-.1 2.7-3.4 1.1q-2.6-1-3.1-4.7c-1.2-7.1-1.6-8.1-3.8-9.5-2.3-1.5-5.1-1.9-13.2-1.7-7.6.2-8.4 1.2-5 5.8 6.6 8.9 8.5 10.3 14 10.3 4 0 5.6.5 7.8 2.6 2.5 2.3 2.7 2.8 1.4 4.3-.8.9-1.7 2.5-1.8 3.6s-2 2.8-3.9 3.7c-7.5 3.8-33 1.5-31.3-2.8.9-2.4-2.4-2.6-15.4-.9Q317.6 824 310 818a22 22 0 0 0-9.3-3.9c-7-1.3-8.3-1.9-6.8-3.4.6-.6 1.1-2.4 1.1-3.9 0-3.9-2.5-3.6-6.6.7l-3.3 3.5-7.3-.6c-4-.3-9.1-.1-11.3.4l-19 5.1a62 62 0 0 1-23 3.6c-16-.8-27.7-2.4-30-3.9-1.3-.9-5.9-2.4-10.1-3.3a28 28 0 0 1-10.4-4c-3.3-2.7-5.2-2.8-11-.8-5.1 1.8-12.6 2-13.6.3-.8-1.2-.6-20.7.2-21.9.2-.4 2.6.2 5.3 1.3 4.8 2.1 8.1 6 6 7.3-1 .7 2.7 6.5 4.2 6.5.5 0 .9-1.3.9-2.9 0-2.3.5-3 2.3-3.3 2.1-.3 2.2-.5 1.8-10.9q-.3-10.7.8-11.3 1-.7 1.1 3.1c0 5.2 2.5 14.6 5.5 20.8 3.1 6.5 11 14.4 12.7 12.7.8-.8.4-2.1-1.8-5.3a75 75 0 0 1-10.5-18.2c-2-5.4-2.1-6.9-1.6-23.5.8-22.6 2.5-45.2 3.8-51 1.3-5.9-.2-7.5-2.6-2.6-1.2 2.5-2 7.9-2.6 17.3-.8 13.7-2.5 28.1-3.4 29-1.8 1.7 2.3-47.5 4.5-55.9.6-1.9 1-5 1-6.9 0-1.8.5-5.1 1.2-7.3.9-2.9.9-4.1 0-5-1.4-1.4-1.5-7.4-.3-13.3.8-3.9.9-3.8 1 2.1.1 3.8.6 6.6 1.4 7.3 2.1 1.7 2.7.3 2.7-5.8 0-5.4 2.4-20.3 3.6-22.3.3-.5.3-2.1-.1-3.5q-.5-2.7-2.5-2c-1.8.5-2 0-2-5.1a816 816 0 0 0 2.5-56.7c.6-38.4 1.9-62.1 3.5-64 .6-.7.8-2 .4-2.9-.3-.9.1-7.1 1-13.9l2.7-21.7a576 576 0 0 0 1.9-57.3q-.8-.5-2.1.9c-1.1 1.3-1.6 7.5-2.1 26.8-.6 26.1-2 44.2-3.5 45.7-.4.4-2.5.2-4.6-.4l-3.9-1.2.6-7c.3-3.9 1.1-15.3 1.6-25.5.6-10.4 1.7-20.6 2.5-23.3.9-3 1.1-5.5.6-6.5s-.5-4.2 0-7.2.8-10.6.8-16.8c.1-6.1.5-11.2.9-11.2 1.6 0 5.6 5.1 6.9 8.8 1.7 5 1.7 5.2-1.1 5.2-2.9 0-4.2 2.6-1.8 3.5.9.3 3.7 1 6.2 1.5 4.2.8 4.7.7 7.6-2.1l3.1-3 .7 4c.4 2.4.1 5.7-.8 8.3a94 94 0 0 0-2.5 14.3l-2.7 20a554 554 0 0 0-5.9 64c-.3 7.1-1 14.8-1.5 17-.5 2.3-1.4 9.8-2 16.9a131 131 0 0 1-1.4 13.4c-.2.4-.7 5.9-1 12.2s-1.1 14.9-1.6 19c-1.3 9.4-2.7 33.8-2.2 36.7.5 2.6 2 3 2.7.8 1.6-5.1 1.5-4.9 3-3.4 1.6 1.6 1.8 3.6.9 11.6-.5 4.5-.3 5.3 1.4 6.2 2.3 1.2 3.8 0 2.9-2.3-.3-.7.2-2.4 1.1-3.8a38 38 0 0 1 12.5-9.8q.9-.1-.5-1.1c-1-.5-3.6-.7-5.8-.4-3.6.5-4 .4-4-1.6 0-2.1-.1-2.1-1.8-.6-2.3 2.1-3.2 2.1-6-.3-2.2-1.8-2.3-2.4-2-13.2.5-13.5 5.3-67 6.8-74.8.6-3 1.7-15 2.5-26.6s2.9-31.6 4.5-44.5c5.4-42 8.3-69.7 7.6-71.6-.7-1.7-.8-1.7-2.2.2a6 6 0 0 1-4.2 2.2c-1.6.1-3.7 1.4-5 3-2.2 2.7-2.3 2.7-3.7.9-2.1-2.8-1.9-3.2 2.3-5.3 3.4-1.7 3.7-2.2 4-6.5.3-4-.1-5.2-2.2-7.3-2.9-2.9-7.6-3.3-11.6-1-1.4.8-2.8 1.4-3.3 1.5-.4 0-.7-6.5-.6-14.5l.2-14.5 3.3-1.9c4.3-2.6 5.3-6.4 2.7-9.9a8 8 0 0 0-4.6-3q-5.1-.7-2.3-10.2c2.1-6.9 3.1-18.6 1.8-19.4-1.8-1.1-4 3.5-5.1 10.9-.6 3.8-1.7 9.2-2.6 12a28 28 0 0 0-.5 16 103 103 0 0 1 1.2 27.8 22 22 0 0 0-.1 8.7c1.1 10.4 1.1 25.8 0 26.4-1 .7-2.4-4.1-1.6-5.4 1-1.6-4.6-11.4-9.3-16.3-5.4-5.5-3.6-6.5 1.9-1.1 2.1 2 4.1 3.4 4.6 3.1s.9-5 .8-10.4c0-8-.3-9.8-1.5-9.8-.8 0-2.1 1.2-2.8 2.7q-1.8 4-3.4 2.2c-.4-.3.1-2.6.9-5 1.4-4 1.3-4.7-.1-6.9-.9-1.4-2.5-2.5-3.5-2.5s-2.4-.6-3-1.3c-2.6-3.2-7.7-.4-8.7 4.8q-1.5 8.1 4.2 11.6c1.9 1.2 3.8 1.9 4.1 1.5.7-.7 3.3 1.3 3.3 2.6q-.2.8-2 .3-2.1-.8-2 1c0 1.4-.6 1.6-2.7 1.1-1.6-.4-5.8-.9-9.5-1.3-5.8-.5-7.1-.3-10.3 1.7-6.1 3.8-3.9 5.1 5.7 3.4 5.9-1 15.5 2.7 20.5 7.9q12 12.6 4.3 12.7c-4 0-7.5 1.8-9 4.6-1.1 1.9-1 3 .1 6.1 1.4 3.7 3.5 5.3 9.2 7.3 2.1.8 2.7 1.6 2.7 4 0 1.6-.2 3-.4 3-2.3 0-7.1-3.5-10.9-8-7.4-8.5-8.7-9.7-14.6-12.9-8.5-4.5-14.2-5.7-18.2-3.7-1.8.9-3.3 1.5-3.4 1.4l-.8-3.6c-.6-2.9-.3-3.4 3.2-5.7 4.6-2.8 5.1-4 3.7-7.8-1-2.7-.8-3.1 2.5-6 2-1.8 5.1-5.8 6.8-9a382 382 0 0 1 11-18.8c1.1-2 2.9-3.9 4.1-4.2 3.3-.9 2.5-3-1-2.4-4.3.9-5.5-1.7-2.8-6.1 1.9-3 1.9-3.4.4-5.1-.9-1-1.6-2.4-1.6-3.2q.2-1.4 2 1l2 2.3v-4c0-4.1 1.3-6.3 2.4-4q.6 1.5 1.2 0c.8-1.7 2.4-1.5 2.4.3q-.1 1.4-1.3 1.5-1.3 0-.9 2.9.6 2.8-1.9 5l-2.3 2.1 2.4 2.5q2.4 2.5 3.4 1.5c.5-.5 2.7-1 4.7-1 3.4 0 3.7-.3 4.2-3.3.3-1.9-.3-5.4-1.5-8.4l-1.9-5.2 2.5-3.8c1.4-2.1 2.6-4.6 2.6-5.6s.9-3.5 1.9-5.6c1.1-2.1 3.2-8 4.6-13.1 1.5-5.1 3.4-10.8 4.1-12.7l2.8-6.8q3.7-9.2 3.6 6.2m37.4-1.3c4.9.7 9.7 1.1 10.8.8 2.2-.5 2.5 2 .3 3.8-1.9 1.5-14.8.9-21.3-1-3.5-1.1-4.2-1.8-4.2-3.8 0-2.1.3-2.4 2.8-1.8 1.5.4 6.7 1.3 11.6 2m90.7.6c1.5.9 1.7 1.5.9 3-1.9 3.5-7 1.9-7-2.2 0-2 3-2.4 6.1-.8m114.9 1q0 .9-1 1a1 1 0 0 1-1-1q.1-1 1-1t1 1m-106.3 2.6c.9 1.4 2.8 3 4.2 3.6l2.6 1-3 1.5c-1.6.8-4 2.5-5.2 3.6-2.1 1.9-2.2 2.2-.7 3.8 1.4 1.6 1.3 1.7-1.8 1.4l-4-.4c-1.2-.1-.9-3.6.4-4.9.6-.6 1.3-2.6 1.4-4.4l.3-5.6c.2-3.1 3.6-2.9 5.8.4m123.5-.1q-.4.9-1.7.7c-.7-.1-1.6.5-1.9 1.5-.6 1.5-.8 1.5-1.6.3q-2.8-4.3 2.3-3.8c1.7.2 3.1.7 2.9 1.3m3.8 2.1q0 1.3-1 .9c-.5-.3-1-1.3-1-2.1s.5-1.2 1-.9 1 1.3 1 2.1m-409.5 2.9c4.5 2 5.5 2.8 5.5 4.9 0 2-.4 2.4-2.2 2.2q-4.3-.5-8.8-3.6c-4.1-2.7-11.3-1.1-20.2 4.7-1.5.9-3 1.4-3.4 1-1.1-1 2.6-4.7 4.7-4.7 1 0 3.3-1.3 5.1-2.9 4-3.4 8.5-5.2 11.6-4.5 1.2.2 4.7 1.5 7.7 2.9m426.5-1.4c0 .6-.9 2.4-2 3.9q-3.7 4.8 3.3 3.8 3.4-.4 3.5 1.5.5 1.7-2.7 2.3c-2.5.5-3.3 1.3-4.1 4.5-1.1 4-2.9 5.3-3.1 2.1-.7-11.1-.5-13.8 1.3-16.5 2-2.8 3.8-3.6 3.8-1.6m-252.5 2.3c0 2.5-1.6 3-3.9 1.3-2.4-1.7-1.2-3.9 1.7-3.5q2.1.3 2.2 2.2m-54.5 0c7.1.9 11.5 2.2 11.4 3.4-.3 4.2-.4 4.2-2.4 2.2-1.6-1.6-3.3-2-7.9-2-3.3 0-6.3.5-6.6 1q-.7 1-1.5.5c-.9-.6-5.9 2.1-7.1 3.8q-.8.8-2 .5-1.4-.4-2.6 1.1c-1.3 1.8-2.9.7-3.5-2.4q-.2-1.9 1.2-2.1 5-.2 8.1-4.6c1.9-2.6 2.6-2.9 5.8-2.4zm69.9 1.2c.2.2-.4 1.3-1.3 2.3-1.7 1.9-2 1.9-4.2.4-3.9-2.5-3.1-4.5 1.4-3.7 2 .4 3.9.8 4.1 1m-97.5 1.7c2.1 1.2 3.8 2.6 3.7 3l-.1 4.7c0 2.2-.4 4-1 4s-1-2-1-4.4v-4.3l-4.7-.1c-2.7-.1-6.6.7-9.1 1.8s-5.4 2-6.6 2c-1.2-.1.5-1.2 3.9-2.6 3.3-1.4 6.9-3.4 8-4.5 2.4-2.3 2.1-2.3 6.9.4m198.1 2.6c-.6.4-2.6 1.3-4.5 1.9l-3.5 1.2 2.4-2c2.2-1.9 7.6-3 5.6-1.1m127 11.2c.5 7.5.3 8.5-1.7 10.6-1.8 1.9-2 2.7-1 4.8s.8 2.9-1.4 5.5c-1.4 1.7-2.3 3.7-2 4.5.8 2.1-3.6 3-8.6 1.7-2.3-.6-4.5-.9-4.9-.7-.3.3-.9-1.2-1.2-3.3s-.9-4.7-1.3-6c-.6-2.1-.4-2.2 4.7-2.2 5-.1 5.7-.4 9.8-4.5l4.5-4.4.2-7.8c.2-9.9.3-10.2 1.5-8.1.5 1 1.2 5.4 1.4 9.9m-146-6.5c3.3 3.5 3.4 3.7 1.9 6.6-.8 1.6-2.4 6.6-3.4 11.1-5.4 23.6-7.4 29.7-9.2 29.1-.9-.3-2.7 0-3.9.6-2.1 1.2-2.1 1.1-1.5-2.4a91 91 0 0 1 2.5-8.8l3.6-10.3c1-2.8 2.8-7.2 4.1-10 2.9-5.9 1.8-8.2-2.1-4.5l-2.5 2.3v-2.8c0-3.7 5-14.5 6.7-14.5.2 0 2 1.6 3.8 3.6m26-1.6c.3.5 2.1 1 3.9 1 3.5 0 6.2 2.1 5.1 4-.3.5-1.2 1-1.8 1s-3.9 2.2-7.2 5-6.3 5-6.7 5c-1.1 0-1-4.8 0-5.2 1.3-.4 2.4-5.8 1.3-5.8-.5 0-1.8 1.2-2.9 2.7-1.8 2.4-2.2 2.6-3.7 1.3-1.6-1.4-1.7-1.2-1.1 1.7l.7 3.2-3.8-.6c-2.1-.3-4-.8-4.3-1-2.2-1.9 12.8-12.3 19.2-13.2q.7 0 1.3.9m66.5-.2q-.2 2.3-2.6 1.5-1.2-.6-.8-1.4c.7-1.1 3.4-1.2 3.4-.1m-345.3 2.4q-.5 1.1-.6-.6t.5-1.3q.5.6.1 1.9m12.8-.8c5.4 1.2 5.7 1.4 3.2 2.1-1.5.4-3.7.5-4.9.2-1.2-.4-2.8-.1-3.5.5q-1.2 1.1-3.8-.6c-5.5-3.6-1.8-4.5 9-2.2m34.7.2c.3.3.4 1.4.1 2.4-.4 1.6-.8 1.7-2.5.7s-2.2-.9-3.4.7c-.7 1.1-1.7 1.6-2.1 1.2s.5-1.9 2-3.2q4.2-3.5 5.9-1.8M86.5 314c.3.5 1.5 1 2.6 1 1 0 1.9.4 1.9 1 0 1.5-6.6 1.2-7.9-.4q-1.4-1.5.1-1.9c2-.8 2.6-.8 3.3.3m45 2q.4.9-.4 1-1-.1-1.1-1 0-1 .4-1 .6 0 1.1 1m-4.5 1q0 .9-1 1a1 1 0 0 1-1-1q.1-1 1-1t1 1m-116 1.4q0 .5-1 1.1-.9.4-1-.4.1-1 1-1.1 1 0 1 .4m335 1.1c0 .3-2.6 3.4-5.8 6.8a72 72 0 0 0-10.2 14.9 43 43 0 0 1-5.2 8.8c-1.5 0-.8-4.6 1.5-10.3 1.8-4.8 3.6-7 10.7-13.1 8.9-7.8 9-7.9 9-7.1m76.1 3.2q-1.8 2.8-.5-1.2.7-1.4 1.1-1.1c.3.2 0 1.3-.6 2.3m-383.1.7c.5 1.3.8 9.4.8 18l-.1 15.6h-2.8q-4.5 0-2-2.6c.6-.5.1-2.7-1.5-5.7-2.8-5.6-2.9-6.7-.9-6.7.8 0 1.9-.8 2.4-1.9 1.3-2.3 1.2-14.9-.1-15.7-1-.6.9-3.4 2.3-3.4.5 0 1.4 1.1 1.9 2.4m-11.6 2.1c-2.6 1.8-2.4 11.8.3 17.7 1.8 3.8 1.9 4.7.7 5.2-.8.3-1.4 1.3-1.4 2.2q-.2 1.8 2.5 1 4.1-1.2 1.2 2.8c-4.1 5.7-8.3-6.6-7.6-22.2.4-8.6 1.8-11.3 4.6-9 1.1.9 1 1.3-.3 2.3m465.5-.6a24 24 0 0 1 .7 15.6c-.9 1.6-1.6 3.4-1.6 3.8 0 .5-.9 2.2-2 3.7l-2 2.8 2.9 2.1c1.6 1.2 3.4 2.1 4.1 2.1 2 0 .6 3.3-2.2 4.9a18 18 0 0 0-7.2 8.7 14 14 0 0 1-3.4 4.7l-2.8 2.7-2.7-2.8c-2.5-2.6-2.6-3.1-1.4-5.4 1.1-2.1 1.5-2.3 2.6-1.1 1 1.1 1.6 1.1 2.7.2 1.7-1.4 1.8-5.1.3-6.6-1.6-1.6-3.9-.4-3.9 2.1-.1 1.9-.1 1.9-1.1.3-.8-1.4-1.8-1.6-4.4-1.1-4.9.9-5.1-1.1-.3-4.3 2.3-1.5 4.3-3.3 4.5-4 .5-1.5-4.8-4.3-8.2-4.3q-2.4 0-2.5-1.6c0-.9-1.3-2.8-3-4.4-2.9-2.7-2.9-2.8-.9-4.6 1.1-1 4.3-2.1 7.2-2.5 4.5-.6 5.5-.4 7.3 1.5 1.9 1.8 2.1 2.8 1.5 8.2-.9 8.3-.2 10.6 3.4 11.6 3.7 1 7.8.2 7.2-1.5-.2-.7-1.7-1.4-3.3-1.7-4.9-.9-4.6-7.4.6-12.8 3.5-3.7 4.1-6.6.7-3.4-2.4 2.3-4.7 2.9-4.7 1.2 0-.5 1.1-1.7 2.5-2.6s2.5-2.1 2.5-2.6.7-3.4 1.6-6.3q2.3-8.3 5.3-2.6m-92.4 0q-.6 1-1.7 1.1-1 0 .2-1.5c1.4-1.7 2.6-1.3 1.5.4m46.2 3.8c-.3.2-1.5-.1-2.7-.7-2.1-1.1-2.3-3.5-.2-3.5q1-.1 1.9-.8.7-.6 1.1 1.8c.2 1.5.1 2.9-.1 3.2m21-3.1c-.9.9-2.8-.6-2.1-1.8q.6-1 1.7.1 1 1 .4 1.7M32 326q0 .9-.4 1-.5-.1-1.1-1-.4-1 .4-1 1 0 1.1 1m318 3a10 10 0 0 0 2.6 3.8c.8.5 1.8 3.7 2.3 7.8 1 7.8 2.1 10.5 5.9 14.7q2.7 2.7 1.6 3.7c-1.7 1.7-8.2-5.4-8.6-9.2-.4-4.1-3.4-5.1-4.4-1.4-.3 1.3-.3 3.4.1 4.6 1 3 7.4 10 9.2 10 2.6 0 .9 3.3-3.5 6.7-4.8 3.7-7.8 4.1-12.3 1.7q-3-1.5-4.3-.5a6 6 0 0 1-3.1 1c-1.1-.1-3 .2-4.2.6-1.9.6-2.4.1-3.8-3.1-1.6-3.7-1.5-4.3.5-11.9 2.2-8.1 6.4-18.5 7.5-18.5.3 0 .5 2.7.4 6-.2 5.7 1.3 9.6 3.1 8.5.5-.3.9-4.1.9-8.6s.5-8.8 1.1-9.7c.7-1.2.9.2.8 5.3-.1 8.2 1.2 14 3.2 14 1.8 0 2.6-6.3 1.1-7.8q-2.5-2.6.8-2.7c2.9 0 3.7-2 1.1-2.7-2-.5-2.1-1-1.5-5.5.7-4.8.6-5-1.5-4.3q-3.7 1.3.8-3.8c2.1-2.4 2.8-2.2 4.2 1.3m-273.7.2c.4 1.5-.3 2.9-2.8 5.2A60 60 0 0 1 59.6 345c-2 0-3.6 2.4-2.7 3.9 1.3 2.1 5.5.6 11.6-4q10.2-7.6 9.8-.1c-.1 4.2-.2 4.3-5.9 5.3-2.7.5-6.7 2.4-9.7 4.6s-6 3.6-7.2 3.5-2.7.4-3.4 1.2c-1 1.2-.9 1.7.8 2.8 2.5 1.5 2.7 4.3.5 5.2q-1.5.7-1.1 2.6c.3 1.1.1 2.3-.4 2.6s-.9 1.8-.9 3.4-.4 3.2-1 3.5-1 1.5-1 2.6q0 2 2.4 1.9 2.3 0 3.1.9c.6 1.1 6.4.9 8.2-.2 1.4-.9 4.3.1 4.3 1.5 0 .6-.8 1.7-1.7 2.4-1.7 1.2-1.6 1.5 1 4.2 3.8 3.9 3 7.6-2 9.3-1.9.6-4.2 2.4-5.2 3.9l-1.7 2.9-1.6-3.2-2.4-6.2c-.7-2.3-1.6-3.1-3.9-3.3-4.6-.5-5.3-2-1.7-3.3q3.1-1.1 3.2-2.9c0-2.1-3.6-5-6.2-5-.9 0-2.8-.5-4.2-1.2-2-.9-2.3-1.4-1.5-2.5.6-.7 2.2-1.3 3.5-1.3 4.3 0 6.5-4 4.4-8-.7-1.4-.5-1.9.9-2.3 1.5-.4 1.9-1.3 1.7-4.5-.1-2.3-.5-4.4-.9-4.8-1.1-1.1-.8-5.2.3-5.9 1.5-.9 1.2-3.6-.7-5.7-1.4-1.6-1.5-1.8 0-1.8q1.5.1 2.3 1.1t4-2.6c1.8-2.1 4.4-4.3 5.6-4.9 1.3-.6 3.3-3.1 4.4-5.5q3.6-7.6 7.4-6.4 1.8.4 2-.6c0-2 1.7-1.2 2.3 1.1m59.3 2.6c-1.1 1-1.5-.4-.8-2.8l.7-2.5.3 2.3c.2 1.3.1 2.6-.2 3m189.7-2.9q1 1-.6 4.3c-6.8 14.5-11.3 38.1-15.2 80.3l-1.9 18.2-2.8-.4-2.8-.5.1-8.7c0-4.7.5-15.1 1-23.1l1.1-17c.2-9.6 5.2-35 8.3-42.3.8-2 1.5-4.8 1.5-6.2s.5-3.6 1.1-4.7c.9-1.7 1.8-1.9 5.1-1.5 2.2.3 4.5 1 5.1 1.6m-214.6 3.5c-.2 6.5 4.5 8.7 8.2 3.8l2-2.7.1 2.8q0 2.7-2.5 4.9c-1.4 1.2-2.5 2.8-2.5 3.5s-1 3.3-2.2 5.6l-2.2 4.2-.9-6.5c-.4-3.6-1.5-7.5-2.3-8.8-1.1-1.6-1.2-2.7-.4-4.1.5-1.1 1-2.9 1-4q0-2 .9-2.1c.9-.1.9 1.5.8 3.4M464 331q-.1.9-1.5 1c-1.4.1-1.5-.5-1.5-1q.1-1 1.5-1c1.4 0 1.5.4 1.5 1m-432.8 5.2c-.9.9-1.2.4-1.1-2.3 0-3.2.1-3.3 1.1-1.1q1.2 2.4 0 3.4m28.8-2.7q0 1.4-1 1.5-.8-.1-.4-1.5.6-1.4 1-1.5.4.1.4 1.5m421.5-.5c-.3.5-1.1 1-1.6 1q-.9-.1-.4-1a2 2 0 0 1 1.6-1q.9 0 .4 1m-75.7 3.1q2 1 2.2 2.8c0 1.1.5 2.3 1 2.6 3.2 2-4.2 3.4-9.7 1.9-1.9-.5-2.3-1.3-2.3-4.3 0-2.1.3-4.1.6-4.4.7-.7 4.1-.1 8.2 1.4m25.8 7.9c.4 6.2.1 7.9-1.5 9.9q-1.8 2.4-3.5 1.8c-1.5-.6-1.5-1.1.5-4.9 2.1-4.2 2.3-10.2.3-15.3-.8-1.9-.7-1.9 1.5-.5 2 1.3 2.4 2.6 2.7 9m-417-5.4q-.7 1.9-1.8.6-1-1.1-.4-2.8.7-1.9 1.8-.6 1 1.1.4 2.8m408 5.1c-1.1 2.8-2.3-.1-1.7-4.4l.4-3.8 1 3.2c.5 1.8.7 4 .3 5M6 338c-2 1.3-3.3 1.3-2.5 0 .3-.6 1.4-1 2.3-1q2.2-.1.2 1m84.5.4c3.2 1.4 3.3 1.6 2.2 4-1.4 3-3.1 3.5-2.2.6q.8-2.1-.8-1.4-1.4.3-2-1c-.4-.9-1.8-1.6-3.2-1.6q-2.3-.1-2.5-1c0-1.5 4.5-1.2 8.5.4m325.9 10.7-.6 6.7 4.4 3c3.9 2.7 9.9 8.5 7.1 6.9-1.7-1-6.3 1-6.3 2.8q0 1.5 3.3 1.5h3.3l-.3 6.7c-.4 7.5-1.2 14-1.9 16.3q-.5 1.8-2-1.3-1.5-2.7-3.9-2.7-5-.2-1.5-3.5c2.2-2 2.7-8.5 1-12.9-.9-2.4-7.4-6.6-10.2-6.6-.7 0-1.9-.4-2.6-.9-2-1.2.5-5.7 4.5-8.1 3.5-2.1 3.6-2.1 3.6-14 0-6.3.1-6.4 1.4-3.5q1.3 3 .7 9.6m-330.2-3.9q-1.3 1.5-1.2-1.2c.1-2.7.3-2.1 1.2-1.2q1.3 1.2 0 2.4m38.7-1c-.1 1.3.2 3.1.6 4.2.7 1.6.6 1.7-1.3.7q-3.8-2-2-5.4c1.2-2.4 2.8-2.1 2.7.5m-106 1.9c.6 1.8 1.1 4.5 1.1 6.1 0 2.5-.2 2.7-1.9 1.8-1.1-.5-2.8-1-3.9-1-1 0-2.7-.9-3.7-2-1.4-1.6-2.6-1.9-4.8-1.4-2.6.5-2.8.4-2.5-1.7.4-2.6 5.1-4.4 7.8-2.9q1.7 1 3.6-.5c2.7-2 3.1-1.9 4.3 1.6m87.1 5c0 4.7-.3 5.3-4.6 9.2a36 36 0 0 0-6 6.9c-1.3 2.6-4.4 3.9-4.4 2 0-1 7-9.4 8.7-10.5 1.8-1.1 4.3-7.4 4.3-10.9q0-2.7 1-2.3c.6.3 1 2.9 1 5.6m-7-2.7c0 1.5-1.4 3.5-2.1 3-1.5-.9-1-3.4.6-3.4q1.3 0 1.5.4m87 1.2c1.1 1.2 1.1 1.8-.2 3.1-2 2-3.8.9-3.8-2.3 0-2.7 2.1-3.2 4-.8m212 1.9q0 2.3-.4 2.5c-.4.2-.6-1.1-.8-2.5s-.1-2.5.3-2.5.9 1.1.9 2.5m58.7.9.8 4 .8 3.8-3.2-.6-6.1-1.2c-2.5-.5-3-1-3-3.3 0-1.5.2-3 .5-3.3.5-.4 9.5.1 10.2.6m-327.3 3.3c2.4-.4 5.9-.4 7.9 0 3.1.5 3.5.8 2.7 2.4-.6 1-2.6 2.1-4.8 2.4-6.6 1.1-7.7 1.4-9.6 2.8q-2 1.4-1.1 3.3c.4 1 .8 3 .9 4.4q.1 2.4 3.1 3.9l4.8 2.3c1 .5 2.2.6 2.7.3 2.4-1.5.7 2.7-2.4 5.9-3.3 3.5-3.4 3.6-6.4 2.1-1.6-.9-3.5-2.2-4.2-2.9q-1.1-1.5-4.6-.9c-2.6.4-3.4.2-3.4-.9 0-.9-1-2.2-2.2-3q-2-1.4-1.4-2.7.8-1.4 2 .5c1.8 2.4 9.1.7 9.1-2.1q0-2-2.2-2.3-2.1-.4-2.3-.7l3.1-5.6c2.2-3.7 2.7-5.5 1.9-6.3q-2.4-2.4-7.1 5.5c-2.8 4.8-6.9 6.6-6.9 3.1 0-1.1-.3-2.7-.6-3.5-.7-2 2.2-4.6 4.6-4 1.9.5 2.7-.5 4.4-6 .6-1.8.8-1.7 4.2.3a10 10 0 0 0 7.8 1.7m-44.4 0c0 3.1-3.1 5.3-7.4 5.3-8 0-15.7 4.3-12.9 7.1.8.8 2 .8 4.8-.1 5.1-1.7 9.4.1 8.7 3.6-.4 2.2-.8 2.4-6.8 2.4q-11.5 0-11.4 4.7c0 2.9-1.8 3-2.9 0-2.1-5.7-2.2-7.7-.3-7.7 2.3 0 4.2-1.9 4.2-4.2 0-1.1 1.1-2.3 2.5-2.8s3.1-2.1 3.7-3.6c1.5-3.1 5.6-5.4 10-5.4 1.8 0 4-.4 4.8-.9 1.7-1.2 3-.5 3 1.6m7 2.9q0 1.3-1 1.4-.9-.1-1-2.1.1-1.7 1-1.4c.6.3 1 1.3 1 2.1m307.4 4.5c.7 5 .7 5.1 6.4 7.5 8.1 3.6 8.7 3.9 9 5.9.8 3.7-1.5 3.9-8.8 1-6-2.4-7.6-2.7-10-1.8-1.6.6-3.1.9-3.4.6-.7-.7.5-7.6 1.5-8.8.5-.5.9-2.2.9-3.8 0-3.3 1.7-7 2.9-6.3.5.3 1.1 2.8 1.5 5.7m-18.1-1.6q1.5.8 1.7 2c0 .6.8 1.9 1.8 2.8 1.6 1.5 1.9 4.3 1.3 12.4q-.3 1.1-1.7.6c-.8-.3-2.5.3-3.7 1.5-1.9 1.7-11.6 4.6-12.5 3.8-.1-.2-.5-5.5-.8-11.9-.4-9.9-.2-11.7 1.1-12.4 1.6-.9 9.6-.2 12.8 1.2M20 369.6c0 1.9-.6 1.8-4-.7l-2.9-2.2-4.2 2.2c-4.6 2.4-4.4 2.4-5.3-.5-.6-1.8-.3-2 2.3-1.6 2.3.3 3.7-.2 5.8-2.4l2.8-2.9 2.8 3.4c1.5 1.9 2.7 4 2.7 4.7m25.6-7.5c.3.6-.3 2-1.4 3.2-2.1 2-2.2 2-4.2.2q-4.6-4.4 1.4-4.5c1.9 0 3.8.5 4.2 1.1m345.4.4q0 1.4-.9 1.5c-1.3 0-2.2-1.6-1.4-2.4 1.1-1.1 2.3-.6 2.3.9m-356 4.6q-.2.8-1.5.9c-1.3.1-1.5-.6-1.5-1.4s-.3-2.3-.6-3.3q-.7-2.2 1.5.6c1.2 1.3 2.1 2.7 2.1 3.2m415.8-3c7.7 1.1 9.2 1.6 9.2 3.1q0 1.7.3 2.5c.1.4-1.8 1.1-4.2 1.5s-5.9 1.9-7.8 3.4c-3.2 2.4-3.4 3-3.1 7.3l.2 4.6-5.2.5c-7 .7-7.9 1.8-5.8 7 2.4 5.9 2 7.5-2.4 11.9-2.4 2.3-4 4.9-4 6.3 0 1.9-.4 1.6-2.3-1.8-3.1-5.3-3.8-8.3-2.6-10.6s2.9-2.4 2.9-.3c0 1.6 2.5 2.1 3.5.6.3-.6.7-4.9 1-9.8l.4-8.8 3-.3c4.7-.5 5.6-6.2 1-6.2q-2.2.1-1.7-2.2c.2-1.7 1-2.3 3.3-2.4 5-.2 5.5-.3 5.5-1.9q-.2-1.4-2.5-2.1c-1.4-.3-2.5-.9-2.5-1.3 0-1.3 2.4-3.2 3.5-2.7.6.2 5.2 1 10.3 1.7M298 367.3c0 2.1-3.4 8.7-4.5 8.7-1.3 0-.4-9 1.1-10.4 1.9-2 3.4-1.2 3.4 1.7m-135 .6c1.5 2.9 1.3 9.1-.4 9.7-2.3.9-7.1-1.9-7.4-4.3q-.2-2.2 2.2-4.8c3-3 4.2-3.1 5.6-.6m158-.2a13 13 0 0 1-1.5 4.3c-1.3 2.2-1.4 2.3-1.5.5 0-3 1.1-6.5 2.1-6.5q.8.2.9 1.7m43 1.1q0 .9-.5 1.4c-.3.3-.8 10.8-1.1 23.4s-.9 24.7-1.3 26.9l-.8 4-1.2-2.9c-.9-2.1-.9-5.4 0-13.5a90 90 0 0 0-.7-26.2c-.4-3.6-.1-5.8 1.5-9.3 1.7-4 4.1-6.2 4.1-3.8m-332 3.7q-.2 1.3-2 2c-1.8.6-1.9 1.4-1.6 9.3.2 4.8.7 10.8 1.1 13.4q.8 4.8-.5 6.3c-2.6 3.1-2.7 2.2-2.2-23.1l.2-10.1 2.5.5c1.4.2 2.5 1 2.5 1.7m8.8-.9c3.1 2.1 2.8 4.4-.5 4.4-1.4 0-3.5.7-4.5 1.7q-1.7 1.4-2.5.9c-.4-.3.3-1.5 1.5-2.6s2.2-3 2.2-4c0-2.4.8-2.5 3.8-.4m457.9.6q-.5 1.1-.6-.6t.5-1.3c.3.3.4 1.2.1 1.9m-390 1.5c.5 1.5-10.1 4.7-12.5 3.8-1.2-.5-.7-1.1 2.4-3 4-2.6 9.4-3 10.1-.8m-91.9 3.7q4.5 4.6 3.6 16.8c-.5 6-1 7.8-2.2 7.8q-1.6.2-.9-2.9c.7-3.5-.2-4.4-6.6-6.1-5.3-1.4-6.1-4-1.7-5s3.8-4.4-1-6.5c-5.4-2.5-5.7-3.2-1.8-4.9s8.5-1.4 10.6.8m283.2-1.5c0 2.3-1.3 7.1-2 7.1-1.3 0-1.9-5.4-.8-6.8 1.2-1.4 2.8-1.6 2.8-.3m-213.6 3c1.7 1.9 1.7 2-1.6 2.3-4.6.4-4.3 2.8.8 5.3q7.6 3.6 7.4 6.1-.1 1.3-1.5 1.4c-2.5 0-7.5 2.9-7.5 4.3 0 2.8 2.1 3.5 5.1 1.8s3-1.5 4.9.9q2 2.6 1.4 4.5c-1.2 3.8-.8 12.3.6 13.9q3 3.5 3.7-5.2l.5-7.7c.1-1.7-.1-5-.5-7.5-.6-3.6-.6-4.3.4-3.3a5 5 0 0 0 3 1.3c.9 0 2.8.6 4.2 1.3 2.3 1.2 2.4 1.4 1 4.1-1.5 2.9-.5 5.6 2.3 5.6 1.3 0 3.4 3 3.4 4.9 0 .6-1.1 1.1-2.4 1.1-3.7 0-7.6 1.8-8.2 3.7-.3 1-1 2.8-1.6 3.9q-1 2.2.1 4.2c1.6 3 1.4 5-.8 7.8l-1.9 2.4-1.6-2.5c-.9-1.4-2.3-2.5-3.1-2.5-1.7 0-3.7-4.3-3.3-6.9q.5-1.7-3-1.9c-4.3-.4-6.1-4.2-3.7-7.9 3.6-5.5-1.4-12-7.1-9.4-2.7 1.2-5.4.1-5.4-2.1 0-1.8 4.4-6.8 6.1-6.8 2.5 0 4.9-2.8 4.2-4.8-1-3-5.6-7.2-7.7-7.2a14 14 0 0 1-5.6-2.2l-3.5-2.2 3.4-.7c1.9-.4 4.8-.5 6.5-.2s4.2 0 5.6-.6c3.4-1.4 3.5-1.3 5.4.8m412.6.1q-.1.9-1.1 1-.8-.1-.4-1 .6-1 1.1-1 .4 0 .4 1m-92.2 3.2c1.7 1.1 3.2 2.3 3.2 2.6-.1 1.3-2.5 3.9-4.7 5.1-1.3.6-2.3 1.7-2.3 2.3 0 .7-1 2.2-2.1 3.4q-2.3 2.3-1.5 4.7c1.2 5 6.6 4 6.6-1.2 0-1.5.7-3.7 1.6-4.9 1.3-1.9 2.2-2.2 4.7-1.6 5.3 1.1 6.7 2.5 6.4 6.1-.2 1.8-.6 3.6-1 3.9-.3.3-3.1.7-6.2.7-4.6.2-6 .6-7.6 2.6-2.6 3.2-4.4 2.1-6.8-4.4-2.6-6.9-2.7-20.1-.1-21.5 1.9-1.1 5.6-.3 9.8 2.2m80.6-1.2q2.4 1 2.6 2.8c0 1.6-.6 1.9-3.1 1.6-4.3-.5-5.1-1.2-3.9-3.5s1.1-2.2 4.4-.9m-193 4.6c.7 1.9-.2 3.7-1.5 2.9-1.2-.8-1.2-4.5 0-4.5q.9.1 1.5 1.6m95.7-.3c-.1 1.2-1.5.9-1.9-.4q-.4-1 .8-.8 1 .5 1.1 1.2M37 388.2q-1.8.8-2 2c0 2-2-1.3-2-3.4 0-1.4.4-1.5 3-.5 2.7 1 2.8 1.2 1 1.9m347.6 8.3c-.2 3.3-.7 7.2-1.1 8.7-.5 2-.2 2.9 1.3 3.7q1.9 1 3-.1 1.3-1.4 1.2.8c0 2.5 1.8 4.4 4.3 4.4 3.2 0 1.3 2.5-2.4 3.1-1.9.3-4 .9-4.7 1.3-1.8 1.1-4.4 7.8-3.9 9.8a3 3 0 0 1-.9 2.9c-3.8 3.1-6.2-7.1-2.8-11.9 1.5-2.2 1.4-2.3-1.5-3.3-3.1-1.1-4.3-3.9-1.8-3.9.7 0 2.5-1.2 3.9-2.8 2-2.1 2.7-3.9 3-8.2l.3-5.5-3.7-.3q-3.7-.2-5.2-2.7c-1.5-2.3-1.5-2.5.3-3.5 1.1-.5 2.9-1 4-1s2.3-.5 2.7-1.1q.6-1.2 2.5 1.2c1.5 1.9 1.8 3.7 1.5 8.4m-260.7-7.8c1.7 1 3.1 2.1 3.1 2.5 0 .9-8 4.5-11.7 5.2-2.5.4-3.3.1-3.8-1.4q-.6-1.9-4.5-2.5c-2.2-.4-4-1-4-1.5q.1-.7 1.9-.3c1 .2 3.6-.4 5.7-1.6q7.3-3.7 13.3-.4m-23.5 1.2q2 2 .4 2.4c-.7.2-2.1-.6-3.1-1.9-1.4-1.9-1.5-2.4-.4-2.4.8 0 2.2.8 3.1 1.9m94.3.3c4.3 4 1.5 10.1-2.8 6.2q-2.9-2.6-1.3-6.8c.8-2.1 1.3-2 4.1.6m103.4 3c.2 4-.2 26.6-.5 32.6q-.3 4.3-2.5 6.5l-2.3 2.2.4-14.7c.4-10.7.1-15-.7-16q-1.2-1.3-.8-7.6c.5-6.1.6-6.2 3.4-6.2 2.6 0 2.9.4 3 3.2m16.5 21.8c-.8 6.3-1.8 16-2.2 21.5-.4 5.9-1 9.2-1.4 8-.7-2 2.1-38.9 3.6-48l.9-5 .3 6c.2 3.3-.4 11.2-1.2 17.5M499 397.1c0 2.6-.9 2.8-5.1 1-4.3-1.8-4.8-2.8-2.2-4.6 1.3-1 2.2-.9 4.5.4 1.5.9 2.8 2.3 2.8 3.2m-462-2.6q1.5 1.6.1 2.8-1.2 1.4-2.1-.3c-2.2-3.4-.4-5.4 2-2.5m334 4.8c0 2-2.5-.1-2.8-2.4s-.2-2.3 1.3-.5a8 8 0 0 1 1.5 2.9m-328.6 2.8c-.3 4.4-1.4 4.9-1.4.6 0-2.1.4-3.7.8-3.7s.7 1.4.6 3.1m6.8.9c.3 1.7.1 3.3-.4 3.6q-.7.3-.8-1.5c0-1-.3-2.6-.6-3.5q-.5-1.5.4-1.6c.5 0 1.2 1.4 1.4 3m68.8.1q-.2.8-2 .9c-1.9 0-2.6-1.1-1.4-2.3.8-.8 3.4.3 3.4 1.4m-82.3 1.1q-.5 1.1-.6-.6t.5-1.3q.5.7.1 1.9m-29.7.2.6 2c.7 1.8-1.2 2.1-3.5.7-1.6-1-.6-3.1 1.5-3.1q1.3 0 1.4.4m61 2.5q-.2.9-1.5 2.1-2.3 2.1-.9-1.4c.6-1.7 2.4-2.2 2.4-.7m304.1 1.2q-2.5 2.2-3.2.7-1.6-2.7 2.9-2.8l2.7.1zm127.4 2.8c.5 4.4.4 4.6-2.3 3.2-.9-.6-3.9-1.3-6.6-1.6-3.6-.5-4.5-1-3.7-1.8a39 39 0 0 1 11.9-4.1c.2.1.5 2 .7 4.3m-419.8-.2q-.6.4-1.7-.2t.2-2.2c1.2-1.5 1.3-1.4 1.6.1q.3 1.7-.1 2.3M43 408.9q-.2.9-1.5 2.1-2.3 2.1-.9-1.4c.6-1.7 2.4-2.2 2.4-.7m-27.2 1.3c1.4 1.4 1.6 6.4.3 7.2q-.8.4-.4-1.4c.7-2.8-1.6-5.3-4.4-4.7-2.4.4-3.2-.8-1-1.6s4.3-.7 5.5.5m11.6 2.3q.4 1.4-.4 1.5-1-.1-1-1.5c0-1.4.2-1.5.4-1.5s.6.7 1 1.5m453.8 3.7c-.4.3-2.5 1-4.7 1.4l-4 .7 2.8-2.6c1.5-1.4 2.7-3.1 2.7-3.8q.2-.8 1.9 1.2c1.1 1.3 1.7 2.7 1.3 3.1m-59.2 0q0 .7-1 .8-.9 0-1-.9l-.6-2.8q-1-2.4 1 .1 1.5 1.9 1.6 2.8m-378.5 0-.9 3.8q-.4 2.1-2.4 7.2c-.4.9-2.3 2.8-4.2 4-5.1 3.4-4.7 6.1 1 6.9 2.5.4 5.6 1.1 6.9 1.6l2.4 1-2.9 2a23 23 0 0 1-5.7 2.7 5 5 0 0 0-3.7 3.1c-.5 1.4-1.6 2.5-2.3 2.5s-2.3.9-3.6 2.1c-2.7 2.6-1.5 4.6 3.2 5.1l3.2.4-2.7 1.2q-2.7 1.2-2.8 3-.2 2.5-1.5 4.9c-1.3 2.7-1.3 3.5.4 8.4 3 8.5.7 9.4-2.9 1.1-1.2-2.6-3.3-6-4.8-7.5-2.3-2.4-3.1-2.7-6.9-2.1-5.6.8-6.5-1.2-3.3-7.3 2-3.8 2.1-4.6.9-5.4q-1.3-.8-2.1-.9-.6-.2-1.3-1.9a4 4 0 0 0-2.5-2.4c-1.8-.5-1.9-1.1-1.1-7 0-.5 2.3-.6 5-.2q4.8.6 5.6-.4c.3-.6 1.8-.8 3.3-.5 4 1 5.1 2.4 1.7 2.4q-6.3.2-6.5 7.1c0 3.8 2.3 7.4 4.1 6.4q.8-.8.9-2.5c.1-1.7.9-2.2 2.1-2.5a6 6 0 0 0 3-2.9c.6-1.2 3.1-3.4 5.5-4.9 4.4-2.7 5.2-5.4 1.2-4.1-1.8.5-1.9.3-1.4-4.8.8-6.2 0-7.8-4.3-8.7l-3.2-.6 2.3-3.4c1.3-1.8 3.4-3.9 4.8-4.6 2-1 11.8-3.8 15.4-4.4q.6.1.1 2.1m370.5-.1q0 .8-1 .9-.9-.1-1-1.6.1-1.3 1-.9 1 .6 1 1.6m-246.1 2.3c3.6 5.7 2.2 9.2-2.5 6.1-2.9-1.9-4.9-5.7-4.1-7.9 1.1-2.7 4.4-1.8 6.6 1.8m-28.3 1a53 53 0 0 1 26.4 34.5c.5 3.1 1.2 12.5 1.5 21s.8 15.8 1.1 16.3q.6.7 2.1.8c1.3 0 1.4.9.8 5.6-.4 3.1-1 12.4-1.5 20.7a826 826 0 0 1-5.9 67c-1.8 1.8-2.3-13.6-2.6-68.3-.2-33.9-.7-58.5-1.3-61.6a71 71 0 0 0-8.2-20.5c-1.5-2.5-3-5.4-3.1-6.4-.5-2.1-12.4-9.5-15.5-9.5-3.2 0-7.4 2.1-7.4 3.7q0 1.3 3.3 1.3c4.5 0 4.9.7 2.1 3.5s-3.4 9.2-.9 10.1c1.4.6 6.5 8.2 6.5 9.7 0 .4-1.1.7-2.4.7q-2.3 0-5-3.9-4.7-6.7-9.9-3.9c-3.1 1.7-9.7 1.9-9.7.3 0-1.8 3.9-6.5 5.5-6.5.7 0 1.7-1.4 2-3.2s1.6-4.4 2.7-5.9 1.8-3.3 1.6-4.1c-2-5.5 7.6-6.3 17.8-1.4m356.2.8c.7.7 1.2 1.8 1.2 2.5q.2 1.6-2.5-.3c-1.4-.9-2.5-2-2.5-2.5 0-1.3 2.4-1.1 3.8.3M8.2 426.3c-1.8 1.7-2.3 1.8-3.7.7s-1.3-1.5 1.7-3c3.9-1.8 4.9-.7 2 2.3m102.6-3.1c2.8 2.8-.6 7.8-4.4 6.4-2.8-1.1-1-7.6 2.1-7.6q1 0 2.3 1.2m260.2-.3c0 1-2.8 4.1-3.6 4.1q-.3-.2-.4-2.5-.1-2.6 2-2.5 1.8 0 2 .9m37.9 2c2.5 1.6-.6 4.4-3.8 3.6s-3.3-.9-2.5-2.9c.7-1.7 4-2.1 6.3-.7m28.1 1.3c0 1.6-7.2 6.2-12.2 7.7-5.6 1.8-6.4 3.5-3.1 6q3.1 2.1 1.1 2.1c-.9 0-2-.5-2.3-1s-1.7-1-3.1-1c-2.1 0-2.4-.3-1.8-2.7q.8-2.6-.9-3.8-2.3-1.3 1.3-1.3 5.8 0 4.7-3.4c-.6-2.2 1.7-3.5 3.6-2 1.5 1.3 7.6.9 10.3-.6 2.4-1.4 2.4-1.4 2.4 0m-296.5 6.2c1.6 7.4-.1 10.5-2.5 4.7-.6-1.6-1.8-3.2-2.6-3.5-2.6-1-1.5-3.3 1.6-3.3 2.3 0 3.2.6 3.5 2.1m-116.5.1c0 1.1-.7 1.3-2.9.9-3.3-.7-7.1 1-7.1 3.2 0 1.2-1.1 1.4-5.2 1.2-5-.3-5.3-.5-5.6-3.2-.3-2.4-.1-2.8 1.5-2.2q6.3 2.6 9.4.2c3-2.1 9.9-2.2 9.9-.1m463 1.4a45 45 0 0 1-12.6 16c-1.4.6-2.4 1.7-2.1 2.4.5 1.8 4.7 3.7 8.2 3.7h2.9l-2.2 1.6c-2.7 1.8-2.6 5.3.1 6.5l3.3 1.6c3 1.5.8 2.8-4.7 2.8-5 .1-5.7-.1-5.7-2 0-3.9-3.1-9.5-5.2-9.5q-2 0-3.4-3.3c-1.3-3.1-1.7-3.4-5.7-3.3-3.8 0-4.9-.5-8-3.7-3.7-3.7-8.9-5.1-10.4-2.7-.4.6-2.1-.2-4.1-2-1.9-1.6-4.6-3-5.9-3-3 0-3.3-1.5-.6-3 3.1-1.6 13.9 1.1 20.7 5.3 3.3 2.1 6.8 3.7 7.8 3.7s3-1.3 4.5-2.9a14 14 0 0 1 5.6-3.7c1.6-.4 3.5-2 4.7-4 1.9-3.2 2.3-3.4 7.8-3.4h5.9zm-128 9.8-2 11.8c-1.6 11.3-5 30-6.1 33.2-.9 2.8-1.5 3.3-4.2 3.3-2.6.1-3.7.8-5.8 4.2q-4.5 7 1.2 11.6l2.1 1.8-3.2 5.7c-3.4 6.1-4.8 6.7-10.9 4.6-3.8-1.3-5.8-4.4-4.1-6.4.8-1 .5-2-1.3-4.1-3.7-4.4-4.7-6.9-4.7-11.1l.1-3.8 2.2 4.4c1.2 2.5 2.8 4.7 3.4 4.9s4-2.5 7.3-6q6-6.1 7.9-6c2.4.4 4.2-2.5 7.8-13.3 3.3-9.6 8.3-32.3 8.3-37.5 0-1.7.6-4.1 1.2-5.3l1.3-2.2.3 2.2c.2 1.2-.2 4.8-.8 8m45.5-8.7q.4.9-.4 1.1c-4 .4-5.5.2-5.9-.9-.5-1.5 5.4-1.7 6.3-.2m-99.3 3.1c.6 3.8-2.6 8.6-3.7 5.6-1-2.5.4-8.7 1.9-8.7.8 0 1.6 1.4 1.8 3.1M104.3 440c.6 2.4-.8 3.6-1.7 1.4q-1.2-3.4.3-3.4.8.2 1.4 2m45.7 1.7a79 79 0 0 1 5 14.8c3 11.8 3.1 13.2 2 58-.2 11.8-.4 13.1-1 8-.4-3.3-.9-10.5-.9-16-.4-18.5-6.1-49.8-11.1-59.4-2.8-5.5-1.2-5.2 2.2.4 1.5 2.5 3.2 4.5 3.7 4.5q3.3.1-1-6.5c-1.7-2.6-2.8-5.4-2.5-6.1.8-2 1.2-1.8 3.6 2.3m-95.3-2.1c-.3.3-1.2.4-1.9.1q-1.1-.5.6-.6t1.3.5m321.9 1.2a18 18 0 0 1 4.4 6.4q-.1.8-1.4.8c-.7 0-2 1-2.8 2.2-1.9 2.9-3.6 1.7-7.2-5.3L367 440h4.2c2.4 0 4.8.4 5.4.8m32.4 1.9c-.1 2.1-2.2 3.7-5.2 3.9-1.8.1-3.8.3-4.4.5q-1.1.3-1.3-.4c-.4-2.9.2-3.6 3.2-4 5.9-.7 7.7-.7 7.7 0m-235 2.6c1.3.4 1.4 2.1.8 11.8-.9 15.5-2 27.1-2.3 26.7-.2-.2-.8-8.4-1.4-18.3s-1.4-19.1-1.7-20.3c-.6-2.1-.5-2.3 1.2-1.4 1 .6 2.6 1.3 3.4 1.5m318.2-1.2q3-.3 2.2 1.4c-.7 1.7-4.6 2-7.5.4-2.3-1.2-1.5-3.4 1-2.3.9.4 2.8.6 4.3.5m-57.6 3.4c1.8 4.4 1.9 4.2-1.6 4.2-3.1 0-3.2-.2-3.4-5-.2-4.1 3.1-3.6 5 .8M119 446c0 .5-1 1-2.2 1-1.9 0-1.5.8 3.1 5.4 4.3 4.3 5.5 6.3 6.2 10.2 1 5.4.8 6-1.9 4.5q-2-1.1-3.7.3c-1.7 1.2-1.6 1.4.6 3.5s2.3 2.2.6 5c-.9 1.6-1.7 3.7-1.7 4.6q.1 2-1.5.5a6 6 0 0 1-1.5-3.7c0-3.8-4.6-9.1-8.6-9.9-3.1-.6-3.3-.8-2.7-3.8.3-1.7 1.5-4 2.6-5 1.5-1.5 1.8-2.8 1.4-6.2-.2-2.3-.2-4.7.2-5.2 1.1-1.7 9.1-2.8 9.1-1.2m176.8.6c1 1.8.5 5.4-.8 5.4-1 0-2-2.6-2-5.1 0-2.3 1.6-2.5 2.8-.3m124.3 3.5q-4.5 6.4.9 6.1l2.3-.7q1.8-1 1.7 1.7c0 1.3.6 3.3 1.4 4.3 1.3 1.8 1.4 1.8 4.7-.1 1.8-1.1 3.6-3 3.9-4.2.5-2.2.5-2.2 3 .6l2.6 2.9-2.6 3c-1.4 1.7-4 3.4-5.8 3.8s-5.2 2.4-7.4 4.6-4.2 3.9-4.4 3.9.2-13 .6-14.5q.2-1 .1-2c-.2-1.8-6.9-3.7-10.1-3-1.7.4-3 .3-3-.1 0-2.2 2.6-7.4 3.7-7.4.6 0 1.6-.6 2-1.4.9-1.6 7.6-2.6 8.2-1.3.2.5-.6 2.2-1.8 3.8m-371.7-2c2.1 1.6 2.4 2.4 1.6 3.9-1.3 2.4 1.2 5.2 6.5 7.4 1.9.8 3.5 1.9 3.5 2.5 0 1-3.4 3.2-8.2 5.2-1.7.6-2.8 1.9-2.8 3q0 3.4 6 .4 5-2.8 1.6 3.3c-2.1 3.9-3.7 9.3-3 10.3q.6.8 1.9.9c1.3 0 2.4-2.3 5.6-11.8.9-2.9 2.9-6.8 4.3-8.7s2.6-3.8 2.6-4.4c0-1.4-2.3-1.4-3.7 0q-1 1.3-2.3-1.1a9 9 0 0 0-4.1-3.2c-2.7-.9-5.7-4.4-4.6-5.4a28 28 0 0 1 6-.8c5.7-.4 5.7-.4 5.7 2.5 0 1.7 1.2 4.1 3 6.2 1.6 1.9 2.7 3.7 2.4 4s.1 1.6 1 2.8c1.4 2.1 1.4 2.4-.9 4.5-1.9 1.8-2.3 2.9-1.8 5.7.5 3.3.3 3.5-3.2 4.7-3.9 1.3-8.5 6.7-11.2 13-.8 1.9-1.7 3.7-1.9 3.9-.2.3-2-1.1-3.9-2.9-4.7-4.5-4.7-7.9.1-11.7 3.7-3 4-6.3.4-6.3-.9 0-3.1-.5-4.9-1.1q-3.3-1-3.1-3.5c0-2.5.3-2.8 5.4-3.9 2.5-.5 2.7-.9 2.1-3.3l-1.2-5.4c-.3-1.4-1.6-3.7-2.9-4.9-3.5-3.3-3.1-7.3.7-7.8.4-.1 1.8.8 3.3 2m401.8 3.8c2.2 3.1 6.4 4.7 8.3 3.1 1.4-1.2 1.8-1.1 2.6.1.5.8.9 2.6.9 4.1 0 2.3-.4 2.8-2.5 2.8q-2.6 0-2.5 1.8c0 1.1 1.1 2.4 2.5 3s2.5 1.8 2.5 2.5c0 2.4 2.1 3.7 4.2 2.6 1.5-.8 1.8-1.7 1.2-4.7l-.6-3.7 2.5 3q2.4 3 1.6 3.9c-.5.6-.9 1.9-.9 3 0 1-1.7 3.5-3.9 5.5-2.1 2-4 4.3-4.3 5.1-.8 2.5-3.6-.6-4.9-5.4-2.8-10.7-3.4-11.8-6.1-12.8-3.2-1.1-3.2-1.2-1.7-4 .9-1.6.7-2.4-1.2-4.4-1.2-1.3-3-2.4-4-2.4q-3 0-2.9-6.1V446l3.9 2c2.2 1.1 4.6 2.8 5.3 3.9m-143.6-1.8c-.3 1.7-.6 3.8-.6 4.6q0 1.4-2.2 1.1c-1.8-.2-2.3-1-2.5-3.7q-.6-5.2 4.1-5.1c1.5 0 1.7.5 1.2 3.1m59.4 3.3c-1.4 1.4-2.4 0-1.6-2.1.6-1.5.8-1.5 1.6-.3q.8 1.5 0 2.4m-224.6 1.5c3.3 6.8 8.8 40.3 6.8 42.3q-1 .8-3.4-.1c-2.3-.9-2.6-1.6-3.3-8.7q-1.2-12.9-3.5-12.2c-.6.2-1.1-3.4-1.4-9.2-.2-5.2-.7-10.9-1.1-12.6-.7-3-.6-3.1 1.9-2.7a6 6 0 0 1 4 3.2m260.6-1c-1.9 3.7-4.7 4.9-9.3 4-3.5-.6-4.6-.4-6.3 1.2-2.1 2-2.1 2-3.8-.5-2.2-3.4-2.1-3.6 1.6-2.9 2.3.4 3.4.2 4.4-1.1 1.2-1.7 1.4-1.6 3.4.4l2.1 2.1 4.2-2.6c5.1-3 5-3 3.7-.6m94.6 4.6c-3.1 2.9-3.4 6-.6 7.5 1.7.9 2 2.1 2 8 0 6.8-.1 7-2 5.8-1.1-.7-2-2.1-2-3 0-1-1-2.8-2.1-3.9-2-2-2-2.3-.5-3.1a3.3 3.3 0 0 0 0-5.6c-1.9-1-1.5-1.9 3-7.6 2.5-3 3.1-3.4 3.9-2.1q1 1.6-1.7 4m-185.6-.3q0 2.4-1.1 1.1-1-1.1-.5-2.2 1.6-2.5 1.6 1.1m-14.7 2.1c.3.8.8 4.5 1.2 8.3 1.7 17.8 6.6 35.4 12.6 45.1 2.8 4.5 1.8 5.3-1.4 1.1a72 72 0 0 1-11.6-24.9c-2.3-9.9-3.9-30.9-2.3-30.9q.9.1 1.5 1.3m10 13.4c.4 7.1.9 14.1 1.2 15.8l.5 3-1.4-3.1c-1.6-3.3-4.6-20.2-4.6-25.4 0-2.3.5-3 1.9-3 1.6 0 1.9 1.2 2.4 12.7m59.7-10.2q-.1 1.4-1.4 1.5c-1.7 0-2.8-1.4-1.9-2.4 1.2-1.2 3.3-.6 3.3.9m20.2 4.3q1.7.2 2.9-1.6c1.2-1.9 1.3-1.9 4.8.5 6.6 4.5 6.6 7.4 0 6.6-2.4-.4-5-.1-6.4.7-2.1 1.1-2.6 1-4.7-1.4-1.3-1.5-4-3.3-6.1-4-4.7-1.6-4.5-3.2.4-2.8q3.6.4 5-1.4c1.3-1.5 1.4-1.5 1.9.7.3 1.3 1.3 2.5 2.2 2.7M313.5 481c.8 5.2 1.5 10.8 1.4 12.5 0 2.9-.1 2.9-1.5-1a74 74 0 0 1-3.4-27.3c.4-1.2 1.9 5.7 3.5 15.8m-203.3-7c2.6 3.2 2.3 8.2-.8 11.5-2.4 2.6-3 2.7-8.3 2.2-3.2-.2-6.4-.1-7.2.3s-2.5 1-3.9 1.2-2.9.8-3.5 1.5c-1.1 1.2-8.6 3.5-9.3 2.8-.2-.2 2.5-1.8 5.9-3.6 6.8-3.4 8.8-5.3 8.9-8.3 0-1.8-.6-1.9-6-.5q-1.3.2-1.5-1.1c-.2-1.3 3.2-3.2 7-5.2 6-3.3 7.7-3.8 11.9-3.4 3.6.2 5.5.9 6.8 2.6m-35.5 1.2q-.5 1.1-.6-.6t.5-1.3q.5.6.1 1.9m297.8-.2q-.6.9-1.6 1-.8-.1-.9-1 .1-1 1.6-1 1.3 0 .9 1m38.5 0q0 .9-.4 1-.5-.1-1.1-1-.4-1 .4-1 1 0 1.1 1m18.7 1.2q-.5 1.1-.6-.6t.5-1.3q.5.6.1 1.9m-61.4 1.8c-.4.4-2.5 1-4.5 1.3q-4 .6-3.8-.8.1-1.4 3.8-1.7 6.4-.5 4.5 1.2m-361.8.6c1.5.6 1.4.8-.1 2.5q-3.7 3.8 5.9 5.9a40 40 0 0 1 7.4 2.2c1.2.6 3 .7 4 .4 1.6-.7 1.5-1-1-3.2-1.5-1.3-3.7-2.4-4.9-2.4-2.4 0-9.1-3-8.3-3.8.2-.3 2.9-.6 5.8-.7 5-.1 5.5.1 6.6 2.6s6.3 5.9 9 5.9c.6 0 1.7-1.1 2.3-2.5 1.8-4 5-2.9 6 2q1 4 5 8.2c5.1 5.2 4.3 6.8-4 7.8-8.1 1-10.4 2.7-9.6 7 .6 3.5.6 3.5-3 3.5-2.7 0-4.4.7-6.1 2.6-1.4 1.5-2.5 3.3-2.5 4q0 1.3-.9 1.4c-1.2 0-2.4-7.4-1.6-9.9q.4-1.8-.5-2.6a8 8 0 0 1-2-3.1q-1-2.2-3.7-3c-1.5-.3-3.9-.9-5.3-1.4-2.4-.7-2.4-.8-.5-1.5 1.1-.4 2.7-1.7 3.7-2.8 1.3-1.7 1.9-1.9 3.1-.9q1.5 1.2 5.8.6c3.7-.6 4.1-.5 3.6.9-1.5 3.8-1.9 11.5-.7 12.2 1.9 1.2 3-.8 4.7-8.1 1.5-6.8 1.5-6.8-.8-8.7q-3.5-2.7-10.5 0-1.4.4-1.4-1.1c0-1.5-1.8-2.4-4.5-3.6-4.4-1.9-4.5-2-4.5-6.5s.5-5 3.5-3.9m375.5 2.1q-.1.9-1.3 2.4c-1.1 1.4-1.5 1.4-4.2-.3l-3-1.9 3.3.6q3.1.6 3.2-.4t1-1.1q1 0 1 .7m17.1 5.1c1.6 4.2.3 3.5-2.1-.9-1.7-3.4-1.8-4-.5-2.9.9.8 2.1 2.5 2.6 3.8m-325.3-2.6q3 2.9-2.1 2.8c-1.8 0-4.9 1.1-7.1 2.6-3.2 2.2-3.6 2.3-2.7.7q1.7-3.2 6.5-5.9c2.8-1.6 4-1.6 5.4-.2m211.9 6q-.3 1.8-.4-2.2c-.1-4 .2-3.5.4-2.3a17 17 0 0 1 0 4.5m207.3-4.7c.7.8 1 2.5.6 4-.5 1.9 0 3.5 1.9 5.9 2.5 3.2 3.5 9.9 1.7 11-1 .6-5.6-1.7-7.7-3.8a9 9 0 0 0-2.5-1.8q-1.4-.3-.8-13.1c.1-3.3.4-3.7 2.9-3.7a6 6 0 0 1 3.9 1.5m-355.6 17.6q-.6 8.7.5 9.3c.6.4 1.1 1.6 1.1 2.7q.1 2.2-2.2 1.7c-2.2-.3-2.3-.8-2.6-9.3-.2-5 .2-12.2.9-16l1.3-7 .8 5c.5 2.7.6 8.9.2 13.6M413.5 486q.4.9-.4 1-1-.1-1.1-1 0-1 .4-1t1.1 1M115 493.9c0 3.2-2.5 6-4.1 4.4-1.2-1.2 1.7-8.6 3.1-7.8.6.3 1 1.9 1 3.4m177.6-1.4q1 4.5-1.5 3c-1.4-.8-1.4-5.5-.1-5.5.5 0 1.2 1.1 1.6 2.5m147.2 2.5a15 15 0 0 0 4.2 3q1 0 .1 1.7c-1.3 2.5-1.7 6.6-.8 8 .4.7.3 2.2-.4 3.4l-1.1 2.1-1.1-2.2a10 10 0 0 0-3.2-3.4c-3.1-1.7-3.5-2.7-3.5-8.7 0-7.9 1-8.6 5.8-3.9M184 503.2c0 2.5-1.9 3.2-4.6 1.7-1.9-1-2.4-2.1-2.4-4.9 0-2 .3-4 .7-4.4 1-1 6.3 5.4 6.3 7.6m104-3.9c-.1 2.1-.1 2.1-1.5.3-.8-1-1.2-2.3-.9-2.8.9-1.4 2.4.2 2.4 2.5m124-2.3q0 .9-1 1a1 1 0 0 1-1-1q.1-1 1-1t1 1m-64 1.7c0 2.8-1.7 5-2.9 3.8q-1.2-1.1.5-3.3 2.5-4 2.4-.5m-255 .8c4.9.2 14 3.4 14 4.9s5.4 5.6 7.3 5.6c2.8 0 3.5 2.7 4.2 16 .3 7.4 1.1 15.8 1.7 18.6s.8 6.3.4 7.7c-1 4.1-10.8 14-17 17.1s-16.3 4.6-19.9 2.8c-1.2-.6-4.5-1.8-7.3-2.8a36 36 0 0 1-24.7-34.5c0-8 4.7-21.3 9.2-26.2 6.1-6.5 16.9-11 24.1-10zm-35-.1q-.2.5-1.7 1.7-2.4 2-.4-.4t2.1-1.3m236.8.7q-.4 1-1.3 1-1.2 0-1.3-1t1.3-1.1c1.5-.1 1.5.5 1.3 1.1m-146.7 3c2.3 2.3 2.2 5.7-.2 7.2q-4.8 2.7-4.9-4.8 0-7.6 5.1-2.4m256.4-.1q1.8 2 6.2 2c5.8 0 5.3 1.4-2 6.3l-5.7 3.8v7.6c0 6.9.3 8 2.6 10.4l2.5 2.6-3.7 3.1-3.7 3.1-2.3-2.2q-2.2-2.2-1.3-3.2a3 3 0 0 0-1.2-5q-2-.7-1.4-2.3c1.6-3.7 1.6-5 .2-5.5-.8-.3-2.3.1-3.4.8-1.6 1.2-1.6 1.6-.4 3.6 1.2 2.1 1.1 2.5-1.8 5.1-5 4.4-6.5 3.5-3.6-2.2.9-1.7 1.2-3.1.8-3.1l-4.3-.4c-1.9-.1-7.2-.7-11.8-1.4s-9.2-.9-10.3-.6c-2.4.8-2.4 0 .2-3.7 2.6-3.6 6.3-5.2 8.9-3.8q2 1 3.8-.1c2.6-1.6 7.8-.3 6.3 1.5s.3 3.1 5 4q3.8.7 4.8-.8 2.6-3-3.4-4.2-6.5-1.4-.5-2.9c1.6-.4 3.3-1.2 3.7-1.9s1.8-1.8 3.1-2.5c1.2-.6 2.2-1.9 2.2-2.8 0-2.2 4.9-7.3 7-7.3.9 0 2.5.9 3.5 2M301 510.5c0 .6 2 3.8 4.4 7.1 3.8 5.3 9.2 9.4 12.3 9.4.4 0 2.5 1.1 4.5 2.5s4.3 2.5 5.1 2.5c2.6 0 7.5-3 8-4.9q.6-2 4.6-3.1c3.1-.8 4.9-2.1 6.9-5 1.5-2.2 3-3.9 3.4-4 .8 0 .1 4.9-1.3 9.4-.5 1.6-.9 4-.9 5.3 0 1.5-1.2 3.5-3 5.1-1.7 1.5-3 3.6-3 5 0 1.2-.7 2.5-1.6 2.9q-1.4.6-.9 2.1.9 2.7-3.9 13.7l-3.2 7.2c-.5 1.2-4 4.4-7.9 7.2-5.7 4.2-7.7 5.1-11.1 5.1s-4.6-.5-6.2-2.7c-1.1-1.5-2.4-2.3-3-1.9q-2.8 1.8 1.3 5.6c3.3 3.1 3.2 4.3-1 6.3-5.3 2.5-6.4 5.7-3.7 11.1 1.6 3.3 2.9 4.7 5.6 5.6q3.4 1 4.5 4.1c.9 2.7.8 3.1-1.2 3.8-1.8.7-2.9.2-6-2.8a33 33 0 0 1-9.6-19.2c-1.9-12.1-3.4-41-2.8-52.7.4-6.4.4-12.7.1-14-1.1-3.9-2.9-1.8-3 3.4q-.4 19.9-1.5 5.9c-1-12.8-1-24.5-.1-24.5.5 0 1.7.9 2.7 2 2.6 2.9 4.9 2.6 4.1-.4-.9-3.6 2.3-4 5.1-.7a9 9 0 0 1 2.3 3.6m186.4-3.6c1.5 1.7 1.5 1.9.1 2.5-2.5.9-1.6 6.2 1 5.9 2.4-.2 9.5 3.6 9.5 5.1q0 1.7-7.3 5.4c-3.3 1.6-3.1 3.7.4 3.7 3.8 0 4.6 2.1 4.1 9.9-.3 5.8-.1 7.4 1.2 8.5 3.5 2.9.6 13.1-3.6 13.1-.6 0-2 .8-3.1 1.7-2 1.8-2 1.7-1.3-2.4.3-2.3.2-5.3-.4-6.8q-1-2.6.1-6.8c2.4-9.2 2.3-9.6-.6-10.7-1.4-.5-3.9-1-5.4-1s-3.6-.8-4.5-1.9c-1.6-1.8-1.5-1.9 2.8-3 3.5-.9 4.7-1.7 5.2-3.5.3-1.4 1.2-2.7 2-3 1.7-.6 1.9-4.6.3-4.6-1.7 0-5.9-4.9-5.9-6.9s2.2-7.1 3.1-7.1c.3 0 1.4.8 2.3 1.9m-440.8 1.8c-1 1-1.9-.5-1-1.8q.8-1.7 1.2 0 .3 1.2-.2 1.8m332.2 0c-.4 2.2-6.7 4.4-9.8 3.6-2-.5-1.8-.8 2.1-2.8q8.4-4.2 7.7-.8M184.2 513c-.9 2.4-.9 2.4-2 .4-.8-1.6-.8-2.4 0-3.2 1.8-1.8 3 .1 2 2.8m-144.4-1.8q-.6 1.2-2.3 1.3-1.7-.1-2.2-1.3-.4-1.1 2.2-1.2t2.3 1.2m138.5.2q.8 2.4-1.5 2.6-.7-.2-.8-2c0-2.3 1.5-2.7 2.3-.6m256.4.3c1.2.2 2.4 1.5 2.7 2.7 1.2 4.7 8.6 5.1 8.6.5 0-2.7 1.8-3.1 6.5-1.5 3.7 1.3 4 1.7 3.7 4.8-.2 1.8-.8 5-1.3 7-.8 3.3-1.5 3.9-5.2 4.8-7.3 1.9-7.6 2.2-5.9 4.5 1.2 1.6 8 6.5 9.1 6.5.5 0-.1 1.1-1.4 2.4q-2.4 2.4-4.5 1.9c-2.5-.7-7.7 1.4-8.4 3.4-.6 1.4 5 9.3 6.6 9.3q.9-.2 1.4-1.5.7-1.3 1.9-1.5 1.7-.3 3.2-2.6 1.9-2.6 3.6-1.8c2.1.8 2.3 2.4.3 2.4-1.4 0-10.6 10-10.6 11.4 0 .4 1.2.6 2.7.4 2.2-.2 4 1 9.6 6.4 3.8 3.8 7.2 6.8 7.7 6.8 1.7 0 2-3.4.4-5.8-1.5-2.3-1.5-2.5.1-1.9.9.4 3.2.7 5 .7 3.1 0 3.4.2 3.3 3.2 0 1.8-.7 4.6-1.5 6.1-1.3 2.6-1.2 3.2.6 6.3 2 3.4 1.9 6.4-.3 6.4s-5.6-3.1-5.6-4.9c0-.9-1.7-3.3-3.7-5.3-2.9-2.8-4.8-3.8-7.8-4-3.4-.3-4-.7-4.3-2.8-.6-4.1-1.9-4.5-5.6-1.7-3.5 2.7-6 3.7-3.8 1.5s1.2-3.1-2.8-2.4c-3.2.5-4.6.2-7-1.6-2.3-1.6-4.2-2.1-8.2-2l-5.3.2 3-2.5c1.6-1.3 4.2-2.7 5.7-3 1.5-.4 3.8-1.5 5.1-2.5 2.4-1.9 2.5-1.9 4.1-.1 1.7 1.8 1.6 2-.3 2.6-2.8.9-1.7 2.5 1.6 2.5 5.1 0 8.7-6.1 4.2-7.3a4 4 0 0 1-2.6-2.6c-.6-2.4-2.3-2.7-4.2-.9q-1.6 1.7-.7-.8.6-2.1-1.4-3.9-3.6-3.2-.4-6.6c1.4-1.6 1.4-2-.1-4.2-.9-1.4-2.8-3-4.3-3.6s-4.7-2.4-7.2-4-5.6-3-6.9-3c-1.3-.1-2.2-.4-1.9-.7 1.2-1.1 7.5-1.3 10.7-.3 2.7.9 3.6.8 4.9-.4s1.3-1.9.2-3.2-1.1-2 0-4q2.6-5-5.2-6.1c-4.2-.7-5.3-1.7-4.4-4.1.5-1.3 1.7-1.4 7.4-.8 3.7.3 7.7.9 8.9 1.2m62.9-.2c2.4 1.8.7 1.9-2.6 0q-2.4-1.3-.9-1.5c.8 0 2.4.7 3.5 1.5m-449.6 3q-.2 1.3-1.5 1.5c-1.3.2-1.5-.7-1.5-1.5s.7-1.5 1.5-1.5 1.5.7 1.5 1.5m101 1.4c0 .5-1.1 1.6-2.5 2.5-2.4 1.6-2.5 1.5-2.5-.3q0-2.9 3.8-3 1 0 1.2.8m29 4.2q0 3.4 2.8.7 1-1 1.7-.6c.7.7-1.1 51.6-2.5 69.8a522 522 0 0 0-1.9 31.4l-.1 3.8-3.5-.6q-6-1.2-1.5 2.9 3.9 3.5-.3 7.3l-2.4 2.2-1.8-2c-1.6-1.7-1.7-2.5-.7-5.7.6-2 1-3.8.8-4s-1.4.6-2.8 1.7l-2.6 2-.5-2.1a6 6 0 0 1 .8-4.3c.7-1.1 1.6-4.8 2-8.1l3-23a524 524 0 0 0 4-41.5l1.5-16.5c.6-6.6 1.3-13 1.6-14.3.5-2.7 2.4-2 2.4.9m-135.5.9q.4.9-.4 1-1-.1-1.1-1 0-1 .4-1t1.1 1m97.9 6.7c.8 5.4.7 9.3-.3 9.3s-4.1-10.4-4.1-13.4c0-3.3 3.7.1 4.4 4.1m9.8-1.5c.6 2 .9 55.3.3 54.6-.3-.3-1-5-1.5-10.4l-2.6-25.6c-1.7-15.2-1.7-15.8.1-17.8q3-3.4 3.7-.8m7.1 11.8c.3 4.1.2 9.1-.2 11-.6 2.7-.9 1.1-1.3-7-.5-9.3-.3-12.8.7-11.8.2.2.5 3.7.8 7.8m-135.8-6q.4.9-.9 1-1.8 0-2.1-1t.9-1q1.8 0 2.1 1m-12.2 2.5q-1.2 3.1-1.3-.6 0-1.8 1-1.4.8.6.3 2m453.1-1c.3.8 1.7 2 3.1 2.7 2 .9 2.8.8 4.4-.6s2-1.5 3-.2c.7.8 3.4 2 6.2 2.7q7.5 2 3.3 3.6-1.6.5-1 3 .7 2.3-1.4 4.5c-2.8 3-4.5 1.2-2.5-2.6q2.8-5.2.2-6.2c-2.4-.9-10.9 1.6-13.9 4.1-3.6 3-5.2 2.4-3.3-1.2 1.2-2.4 1.2-3-.6-5.5-2.2-3-1.9-5.8.5-5.8q1.2.2 2 1.5M43 534.9c0 1.2-2 2.5-2.7 1.8s.6-2.7 1.8-2.7q.8 0 .9.9m-12.4 1.6c.3.8 1.5 1.7 2.6 2.1 6.3 2 7.2 8.1 1.8 11.2-1.7.9-3 2.3-3 3 0 1.5 5.8 5.2 8.2 5.2 2.8 0 3.3 2.2 1 4.1-1.2.9-2.2 2.4-2.2 3.3q.1 1.8-2.4 1a47 47 0 0 0-20.2 4.2c-5.5 2.6-8 2.9-10.4 1.4q-3.4-2.1 6.3-4.4c3.3-.8 6.1-.9 7.1-.4 1.9 1 5-3.1 4.1-5.5-1.3-3.2 1.9-3 4.7.3 2.6 3.2 2.9 3.3 4.5 1.7s1.6-1.8-.4-3.9c-3-3.4-3.8-9-1.7-13.4 1.3-2.7 1.4-3.8.5-4.7-1-.9-1.8-.6-3.6 1.5a35 35 0 0 0-3.3 4.5c-.9 1.5-1.3 1.5-5.8 0-4.8-1.5-5-1.5-7.2.6l-2.4 2.2-2.9-3.3c-3.1-3.4-3.5-6.8-.9-6.5.8.1 2.9.6 4.5 1.1 11 3.7 12.5 3.7 12.5.3 0-1 .7-2.4 1.5-3.1s1.5-1.9 1.5-2.6c0-1.9 4.9-1.8 5.6.1m110.4 3.7c0 1.3.3 3.3.6 4.5 1 3.8-1.4 2.6-3.1-1.4-1.2-2.9-1.3-3.8-.3-4.5q3-2 2.8 1.4m282.9.2 3.9 2.5-2 4c-2.3 4.8-5.5 5.8-11.3 3.7-7.3-2.6-9.5-3.9-9.5-5.8 0-1.4.8-1.8 3.8-1.9 2.2 0 5.1-1 7.2-2.4 1.9-1.3 3.6-2.4 3.8-2.4.1-.1 2 1 4.1 2.3m-73.4 2.6q-.7 1.9-1.2 1.7c-.3-.3-.2-1.5.2-2.7q.7-1.9 1.2-1.7c.3.3.2 1.5-.2 2.7m-.5 4.9c0 1.1.9 2.6 2 3.4 1.6 1.1 1.8 1.6.8 2.5-2.2 1.8-5.8-1.7-5.1-5.1.6-3.1 2.3-3.7 2.3-.8m121-.5.5 1.9q.6 1.4-5.5 5.2c-6.2 3.9-8.1 7.5-3.9 7.5 1.8 0 2 .4 1.4 3.2a17 17 0 0 1-1.1 3.7c-.7.8-9.4-6.4-9.4-7.9 0-2 2.6-4.5 5.8-5.4q2-.7 2.2-2.1c0-.7 1.9-2.5 4.3-3.9q5.9-3.6 5.7-2.2m-450.1 6.2c.7.6-3.4 8.3-4.5 8.4-2.1 0-11.4-3.1-11.4-3.9 0-.4 1.6-1.4 3.5-2.1 2-.8 4.1-2 4.7-2.7 1-1.2 6.3-1 7.7.3m122.7 9.4c.5 7.1.4 9.2-.5 8.4-.7-.6-1.3-5-1.5-10.3-.4-11.9 1.1-10.5 2 1.9m339.9-4.9c0 2.7-.4 3.4-2 3.4s-1.9-.5-1.6-3c.4-3.7 1-4.7 2.4-4.2.7.2 1.2 1.9 1.2 3.8m-136.2 5.2q-3 3.5-1.7-2.2c.6-2.8.8-3 2-1.4 1 1.5 1 2.1-.3 3.6m-8.7-.6q-2.8 4.8-.6-1.3 1-2.4 1.6-2.1c.3.3-.1 1.8-1 3.4M420 560q0 .9-.4 1-.5-.1-1.1-1-.4-1 .4-1 1 0 1.1 1m-362.7 7.5a18 18 0 0 1 3.3 4.5c-.3 0-3-.9-6.1-2.1l-5.5-2 1.8-2.4c.9-1.4 1.9-2.5 2.2-2.5s2.3 2 4.3 4.5m302.2-.8c-.3.8-.5 3-.5 4.9 0 3-.2 3.3-1.8 2.5-2.6-1.4-6.9-.2-10.4 3-2.8 2.7-3 3.3-2.4 7.7.7 5.4-1.2 9.7-3.4 7.5-1.5-1.4.7-19 2.4-20.4l4.5-3.7c2.6-2.2 4.4-2.9 7.8-2.9s4.3.4 3.8 1.4m138.5 3.7q.1 2.2-1.5.6a6 6 0 0 1-1.5-3.8c0-2.5.1-2.5 1.5-.6.8 1 1.5 2.7 1.5 3.8m-370 .6q2 1.1-.2 1c-.9 0-2-.5-2.3-1-.8-1.3.5-1.3 2.5 0m271.6.6q-.6 1.6 4.4 7.2l4.9 5.7-3.2.6q-7.1 1.4-9.7 4.4c-.7.9-2.2 2.1-3.2 2.6-1.8 1-1.8.9-.3-2.8.9-2.1 1.5-4.9 1.4-6.3s.7-4.1 1.9-6 2.2-4.3 2.2-5.3q.1-1.5 1.1-1.7 1 .1.5 1.6m-66.2 3.4c-.5 2.3-.3 3 1 3q1.5-.1 1.6-.8c0-.5.6-1.7 1.4-2.7 1.6-2.3 1.8-4-1.4 14.5-1.1 6.3-2.4 13.2-3 15.2-2.1 7.5-13.6 21.8-17.5 21.8q-2.7.2-.3 2.8 1.5 1.3-1.4 1.2c-2.8 0-5.3 2.3-4.3 4 .8 1.3 4.6 1.3 7.9 0 3.9-1.4 3.4 1.5-.5 3.5-2.9 1.5-3 1.8-1.5 3.4.9 1 1.3 2.1 1 2.4q-.5.7.6 2.2c1.6 1.9 0 4-3.7 5-6.7 1.7-22.4-15.6-16.9-18.7 2.2-1.2 2-2.8-.3-2.8-1 0-2.9-.8-4.2-1.9-2.2-1.7-2.4-2.7-2.6-12.7l-.6-18.2c-.1-3.9.1-7.2.5-7.2q.8.2.8 1.5a41 41 0 0 0 10.3 19.4c3 3.1 6 7.3 6.8 9.4 1.7 4.9 4.4 4.7 4.4-.3 0-4.6 3-5.4 3.8-1 .4 1.6 1.1 3 1.6 3 1.6 0 3.3-4 2.8-6.1-.3-1.1.2-2.7 1.2-3.7s2.3-3 2.9-4.6c1.1-2.5 1-3.1-.8-4.8-2.1-2-2.5-1.7-3.2 2.6q-.4 1.8-1.5 2.3-1 .4-.6-1.7.7-2.2-1-1.4c-.9.3-2.3.1-3.2-.4-1.4-.7-1.1-1.2 1.9-3 3.2-1.9 3.6-2.6 3.6-6a11 11 0 0 0-2.1-6.6c-2.8-3.5-2.1-4.9 3.5-6.4 2.9-.8 6.3-2.7 8.9-5.2l4.4-4c.1 0 0 1.3-.3 3m-188.8 3.7c-1.3 1.3-2.8-1.5-2-3.8l.7-2.4 1 2.8c.5 1.6.6 3.1.3 3.4m269.1-4.6c.6.6 3.7.9 7.2.7 5.8-.3 6.2-.2 5.5 1.7-.4 1.1-.9 4.2-1.1 6.8-.4 3.9-.9 5-2.9 5.7-1.3.5-3.3 1.9-4.4 3-1.6 1.6-2.9 2-4.7 1.5-2.3-.5-2.4-.7-1-2.3.9-.9 2-3 2.6-4.5 1-2.6.8-3.3-2.9-7.4a26 26 0 0 1-4-5.4c0-1.3 4.4-1.1 5.7.2m-339.2 3.2c6.3 1.8 13.5 6.5 13.5 8.8a4 4 0 0 1-1.4 2.8q-1.5 1.5-2.1-.8c-.8-2.6-6.7-4.6-9.3-3.2-1.7.9-2.3.6-3.7-1.7a51 51 0 0 0-4.4-5.6l-2.6-2.9 2.5.6zm292.5.2c0 2.2-2.7 8.5-3.7 8.5-1.5 0-.9-8.5.7-9.2 2.4-1.1 3-.9 3 .7m-10.2.7c1.5 1.5 1.6 5.8.2 5.8q-.9-.2-1-2c0-2.5-3.5-2.7-4.9-.3q-.9 1.6-1.5 1.2c-1.1-1 .4-3.6 2.7-4.7 2.9-1.4 3.1-1.4 4.5 0M133 579.8q4.6 1.7 5.1 4.2a130 130 0 0 1 3.7 16.5c-.2.2-2.5.5-5.3.6-4.8.3-5.1.2-6.7-3.1-.9-1.9-1.7-4.4-1.8-5.5 0-2.4-3.6-8.5-4.9-8.5-1.6 0-4.7 4.7-7.1 10.7a49 49 0 0 1-3.2 6.9c-.4.6-4 1.5-7.8 1.8s-7.2 1.1-7.5 1.6q-.9 1.9 6.5 6.1c4.6 2.6 4.7 3.4 2 11.5-4.3 13-2 14.8 8.1 6.4 3.9-3.3 7.5-6 7.8-6 .4 0 4.3 2.9 8.6 6.5s8.1 6.5 8.6 6.5c2.1 0 1.8-2.7-1-11.1-1.7-5-3.1-9.7-3.1-10.4s1.6-2.3 3.5-3.5a16 16 0 0 0 4.4-3.8q.9-1.5 1.5-1.1c.8.8.9 3.1.8 19.1l-.2 14.7-4.4 3a45 45 0 0 1-20.5 6.1 36.5 36.5 0 0 1-34-28 36 36 0 0 1 20.9-40.6 42 42 0 0 1 26-.6m-38 .2q0 .9-1 1a1 1 0 0 1-1-1q.1-1 1-1t1 1m394.7 2.4h7.1l-2.9 3.5c-3.5 4.3-3.6 5.7-.5 8.2a10 10 0 0 1 3 5.6c.4 2.1.9 4.6 1.2 5.5q.6 1.8-1 1.8c-2.4 0-6.6-2.2-6.6-3.5 0-.7-.9-2-2-3s-2-2.6-2-3.6c0-2.6-3.4-4.3-5-2.4q-1.2 1.3-.1 3.3c.9 1.6.6 2.3-1.2 3.5-1.2.8-3 2.8-3.9 4.5-1.6 2.7-1.6 3.1-.2 4.3 1.7 1.4 1.4 1.7 6.4-5.1 1.5-2.1 2-2.2 3.4-1.1q1.5 1.4 1.1 3.2c-.4 1 .1 3.5 1.1 5.4q3 6.4-1.8 3.1-4.5-3.3-9.2.5c-2.6 2.1-2.8 2.1-4.1.3a7 7 0 0 1-.8-4.6c.3-1.6 0-3.5-.7-4.3-1.5-1.8-.5-3.5 2-3.5 2.8 0 6-4.7 6-9 0-2-.3-4-.7-4.4-.4-.3-.8-2.7-.9-5.2-.1-4.5-.1-4.5 2.5-3.8 1.4.4 5.8.7 9.8.8m-344.8 3.8c-.1 4.1-.1 4.2-1.1 1.5a8 8 0 0 1-.4-4.2q1.6-3.9 1.5 2.7m163.4 1.5c-1.8.6-1.6 2.8.2 4.3 2.2 1.8 2 6-.4 6-2.1 0-5.1-4-5.1-6.9 0-1.9 4.9-5.3 6-4.3q.3.5-.7.9m50.2-.8q.4.9-.5 1.6-.9.4-1-.9 0-2.7 1.5-.7m45.9 3.5c-.6 1.6-3.4 2.9-4.3 2-.6-.6 2.7-3.4 4.1-3.4q.6.1.2 1.4m37.8 1c5 .1 5.8.4 6.8 2.5 1.4 3 .9 3.4-2.6 2a65 65 0 0 0-21.6-.6c-4.4 1.2-3.2-.6 2-3 2.9-1.4 5.6-2 7.2-1.6 1.4.3 5.1.6 8.2.7m-317.1 8.1c.3 1.6-.2 2.1-2.5 2.3-4.1.5-4.6-.7-2.4-5.8l2-4.5 1.3 3c.7 1.6 1.5 3.9 1.6 5m237.5 1.3c1.6-.3 3.7-.9 4.7-1.3 1.4-.6 1.7-.2 1.7 2.4q0 3.2 2.7 5.7l2.8 2.6-2.7-.7c-6.2-1.6-14 4.1-15.4 11.3q-1 5.6-2.9.9c-.7-1.6-1.8-2.2-4.2-2.2s-2.9-.3-2.3-1.5c.5-.9.5-2.2 0-3-1-1.7-.3-3.3 1.1-2.4.5.3 2.2-.2 3.7-1.2q2.7-1.8 1.5-.3c-1.8 2.2.1 4.7 2.4 3.3 2.9-1.8 7.6-10.5 6.3-11.8q-1-1-2.7.7c-1.6 1.5-1.8 1.4-3-2.1q-2.8-8 1-2.8c1.9 2.3 2.9 2.8 5.3 2.4m-203.9-1.6q-.5 1.1-.6-.6t.5-1.3c.3.3.4 1.2.1 1.9m-76.7-.5q-.1 1-1 2.3c-.9 1.3-1.1 1.3-2 0q-2.3-3.2 1-3 1.8 0 2 .7m70.5 6.1c-1 2.6-2.2-.3-1.7-4.1l.5-3.2 1 2.8c.5 1.5.6 3.5.2 4.5m257.8-5.8c2.3 0 2.2 1.7-.2 2.5-2 .6-6.1-1.3-6.1-2.9q.2-.7 2.3-.2c1.2.3 3 .6 4 .6m47.7 0q-.2.9-1.5 1c-1.3.1-1.5-.5-1.5-1q.1-1 1.5-1c1.4 0 1.5.4 1.5 1m-116 .5c0 .3-.9 1.5-2 2.7-2 2.1-2 2.1-2 .2 0-1.2.3-2.4.7-2.7.8-.8 3.3-.9 3.3-.2m104.3 2.2a48 48 0 0 1 21.7 18c2.8 4.9 3.3 7 3.8 14.5.2 4.7.1 9.5-.3 10.5s-.9 3.2-1.1 5c-.8 8.4-10 19.5-19.7 23.9-5.4 2.5-7.4 2.8-16.2 2.9-9 0-10.6-.3-16.3-2.9a44 44 0 0 1-18.1-17.5 38 38 0 0 1 6.2-43.7 38 38 0 0 1 40-10.7m18.7-1c-.1 1.8-1.9 3.5-2.9 2.8q-1.3-.7.6-2.1c2.1-1.6 2.3-1.6 2.3-.7m-113.7 1.5c.6 1.7-1 5.8-2.3 5.8-.5 0-1-1.6-1-3.5 0-3.5 2.2-5 3.3-2.3m40.9 6.5c-.6 1-.8 3.1-.5 4.6.8 4.2-.5 3.2-1.7-1.3-.6-2.2-2-4.4-3-5-2.8-1.5-2.5-3.2.3-2.5q2.4.6 3.8-1.1c1.3-1.6 1.4-1.5 1.7.9a9 9 0 0 1-.6 4.4M161 607.6q0 2.2-1 1.9c-.5-.3-1-1.7-1-3.1q0-2.2 1-1.9c.6.3 1 1.7 1 3.1m242-1.6q0 .9-.4 1-.5-.1-1.1-1-.4-1 .4-1 1 0 1.1 1m-274.1 3c.9 2.7.7 3.3-1.7 5.5-3.8 3.5-5.7 3.9-8.9 1.8-1.5-1-3-1.6-3.3-1.3s-.6-.9-.8-2.6c-.5-4.6 1.9-6.4 8.3-6.4 5 0 5.4.2 6.4 3m8.1-2.1q-.1.9-1.6 1.5c-2.2.9-2.4.8-2.4-.9q.2-1.3 2-1.5c1.8-.2 2 .4 2 .9m-27.2 1.3c-.6 1.8-2.8 2.1-2.8.4q.1-1.5 1.6-1.6 1.4 0 1.2 1.2m44.9 13a91 91 0 0 1 .4 30.2q-2.2 16-3.5 8.6a71 71 0 0 1-.5-20.3q.9-3.2-.1-3.5c-1.1-.4-1.4-26.4-.3-27.6 1.5-1.5 2.7 1.9 4 12.6m228.3-5.6c1.1 1.2-2.1 3.9-5.7 4.9q-7.3 1.8-7.3 5.7c0 2.3 4.8 6.7 7.3 6.8 2 0 2.3 3.2.5 4.8-.7.6-2.6.8-4.1.5q-3-.5-2.2-2.3.5-1.9-2-4.6l-2.5-2.9c0-1.8 3.5-7.7 5.1-8.5q2-1.1 1.4-2.7-.4-1.5.7-2.5c1.2-.8 7.7-.2 8.8.8m-16.3 3.2c-1.5 1.5-2.7 3.5-2.7 4.3s-.7 2.4-1.5 3.5c-1.5 1.8-1.6 1.7-1-1.6 1.2-6.7 2.5-9 5.3-9h2.6zM117 620.6c0 .6-1.6 2.4-3.6 3.9l-3.7 2.8.7-3.9c1-5.3 2.2-6.6 4.7-5.1 1 .6 1.9 1.7 1.9 2.3m16.2 1.7q3.3 8.4-4 1.6c-3.3-2.9-3.3-3.1-1.6-5 2.4-2.7 3.6-2 5.6 3.4m216.1 4.7c.9 1.1 2.3 2 3.1 2s2.3 1.8 3.4 3.9c2 3.8 2 3.9.2 4.4q-2 .4-4.6-2.4c-1.5-1.6-3.8-2.9-5.1-2.9-2 0-2.3-.3-1.7-2.8 1.2-4.9 2-5.3 4.7-2.2m-9.4 4.4c1 1.2.8 1.7-.8 2.6-3.7 1.9-9-.8-6.4-3.3 1.2-1.2 6-.7 7.2.7m-265.1.5 3.6 1.6c1.8.5 1.8.6.1 1.9q-1.7 1.3-1.2 3 .5 1.5-.3 1.6-1-.1-1-1.4c0-.8-1-2.3-2.3-3.3s-2.2-2.4-1.9-3.1c.4-1.4.7-1.5 3-.3m93.5 7.6c3.5 2.2 3.9 4 2.2 8.2-1.8 4.3-1.8 4.3-.1 4.3 2.1 0 2.8-1.6 3.5-7.8.6-5.7 2.7-8.1 3.3-4 .2 1.3 0 3.6-.3 5.3-.9 3.5-1.6 8.3-2.8 18.5l-3.2 25.7-2.3 18.3h-3.8c-2.9 0-4.1.6-5.4 2.5-2.3 3.5-3.7 3.2-3-.8l2-12.2a76 76 0 0 1 2.9-12.5 42 42 0 0 0 2.1-10.1c.3-3.6 1.2-8.6 2-11 2-5.6 2-6.9 0-6.9-1.8 0-4.1 5.2-5.6 12.8-1.2 6.2-2.8 9.2-2.8 5.1 0-1.3.7-6.9 1.5-12.4l2.5-18.8c1.4-11.4 1.9-12.8 3.6-8.9.7 1.7 2.4 3.8 3.7 4.7m197.6-4.6c1.5 2.3 1.4 2.3-.9 1.6-2.8-.8-4.2-2.4-3.3-3.8.8-1.2 2.5-.4 4.2 2.2m-279.8 1.9a5 5 0 0 1-2.9-.3c-1.4-.5-1.4-.7-.2-1.5q1.5-.7 2.8.3 1.5 1.1.3 1.5m-77.8 3.6c2.8 2.5 3.4 3.6 2.5 4.3-4.3 3.3-7.8 1.4-7.8-4.3 0-1.9.3-3.4.8-3.4.4.1 2.4 1.6 4.5 3.4m315.2-1.4q-.6.9-1.6 1-.9-.1-.4-1a2 2 0 0 1 1.6-1q.9 0 .4 1m49.6 5a33 33 0 0 1 22.5 25.3c3 14.4-3.1 27.8-16.2 35.7-5.6 3.4-6.1 3.5-15.8 3.5-8.7 0-10.7-.3-14.6-2.4a33 33 0 0 1-16.2-15.9 25 25 0 0 1-3.3-14.7 32 32 0 0 1 23.8-32q9-3 19.8.5m-39.9.7q3.5 3-.1 5c-2.5 1.6-6.1 9.2-6.1 13.1 0 1.7-.4 3.4-1 3.7s-1 2.4-1 4.6q0 4-1.4 3.9-1.4.2-2.6-7.3c-.6-3.9-1.6-8.3-2.1-9.6-.8-2-.6-2.8 1.5-4.8 1.4-1.3 2.6-3 2.6-3.8 0-1.2 6.2-6.2 7.9-6.4q.6 0 2.3 1.6m-152.1 8.4-1.1 3.4.5-3.4c.3-1.8.6-4.8.7-6.5l.1-3.1.4 3.1c.2 1.8-.1 4.7-.6 6.5M90.6 649a44 44 0 0 1 19 18.5c2.6 5.4 2.9 7 2.9 16 0 9.3-.2 10.5-3.3 16.7a39 39 0 0 1-22.5 20 39 39 0 0 1-47.2-20.8c-2.7-5.3-3-6.8-3-15.4s.3-10.1 3.2-16.2a40 40 0 0 1 26-21.8c6.7-1.6 18.1-.3 24.9 3m-52 .5c6 0 8 .3 7.7 1.2-.7 1.7-6.5 2.6-11.7 1.9-3.9-.6-4.6-.4-5.6 1.5s-1.4 1.9-2.5.8a9 9 0 0 1-2-4.1c-.7-2.7-.6-2.8 2.6-2 1.9.4 7.1.7 11.5.7m106.5 2.2.4 6.6c.5 6 1.5 8.8 4.6 12.2 1.7 1.9 1.7 2.5.2 11a51 51 0 0 1-2.3 9.9c-.4.4-2.7.5-5 .1-3.3-.6-4-1-3.4-2.3 2.9-6.8.8-10.1-4.9-7.7q-3.6 1.5-4.2.4c-.4-.5-1.8-1.4-3.2-2-3.4-1.3-2.8-4.9 1-6.2 2.3-.7 3.1-.6 4.2.9 1.3 1.8 1.5 1.8 4.4.1 2.5-1.5 3.3-1.6 5.1-.5 1.1.7 1.8 1.9 1.5 2.6-1.2 3.2 3.3 6.9 5 4.1 1.1-1.6-.4-5.9-2-5.9q-1.4.2-.8-3.4c.8-5.4-.3-8.6-3.1-8.6q-5-.1-4-5.9c.8-3.7 6.2-8.2 6.5-5.4m-22 10.5c2.8 3.1 2.8 3.3 1 3.6-3.2.5-7.6-2.1-7.9-4.6-.5-3.4 3.3-2.8 6.9 1M24 662q0 .9-.4 1-.5-.1-1.1-1-.4-1 .4-1 1 0 1.1 1m10 3q0 .9-.4 1-.5-.1-1.1-1-.4-1 .4-1 1 0 1.1 1m-3 1q-.1.9-1.1 1-.8-.1-.4-1 .6-1 1.1-1 .4 0 .4 1m108.9.6q.3.6-.7 1.6c-.9.9-1.7.9-3.4.1-1.3-.7-3.6-1.6-5.3-2.2-2.5-.9-1.9-.9 3-.4 3.3.3 6.2.7 6.4.9m266.1 4.6c3.2 2.3 4 4.8 1.5 4.8-1.8 0-6.5-4.3-6.5-6q.1-2.4 5 1.2m49 7.8c0 .6-1.2 1.5-2.7 2.1s-3.4 1.5-4.1 2.2c-.9.7-4.5 1-9.6.8q-8-.2-12.5 1.3c-5.2 1.9-5.9 2-4.3.4q1.1-1.2 1.2-3.1c0-1.5.4-1.7 2.3-1 4.2 1.5 17.9.3 24.2-2 4.9-1.9 5.5-2 5.5-.7m20.4 1.8c.2.4.2 2.6-.1 4.8-.4 3.2-1.1 4.3-3.4 5.3-3.8 1.7-3.7 2.6.9 4.8a12 12 0 0 1 5.5 5.6c1.9 4.1 4.9 4.8 5.5 1.2a5 5 0 0 1 5.9-3.9c1.3.4 3 .1 3.9-.6 2.3-2 3.7.2 3.7 5.4-.1 6.4-1.1 7.5-3.7 4.3l-2.2-2.7-3.2 2.3c-2.7 1.8-3.1 2.7-2.6 4.9 1 4.9-3.9 3.2-6.3-2.1-2.7-6-8.9-13.5-13.8-16.5-2.6-1.7-4.2-3.3-3.7-3.8 1-1 4.2 0 4.2 1.3q.1.8 1 .9 1-.1 1-1.5c0-.7.6-1.8 1.4-2.2 1.8-1.1 2.9-5 1.6-5.8-.6-.3-.8-1.1-.5-1.6.7-1.1 4.2-1.2 4.9-.1m-63.8 3c.6.4 1.7 1.8 2.4 3.1q1.8 3.8-2.7 4.1c-.6 0-1.9 1-2.8 2.2-1.6 2.3-1.6 2.3-3 .4-2.6-3.5-1.3-8.4 2.5-9.9 2.1-.8 2.4-.8 3.6.1m-288 6.3q-5.7 4.7-5.6-2v-3.8l4 1.9 4 2zm296.1-2.5q-.7.5-1.9.1t.6-.6q1.8 0 1.3.5m34.3 5.6a40.5 40.5 0 0 1 16.9 59.3 37 37 0 0 1-28.6 17.3c-7.2.5-7.3.4-10.5-3-13-13.8-12.9-13.7-21.1-16.5-9-3.2-9.7-4.1-11.7-14.4-3.8-19.1 10.1-39.9 29.7-44.9a47 47 0 0 1 25.3 2.2m-312 3.6c5.3.9 7.4 3.6 4.5 5.8-2.2 1.7-4.9 1.5-5.1-.4l-.3-2.3q-.2-1-3.6-.5c-3.3.6-3.5.5-3.5-1.9 0-2.1.4-2.5 1.9-2zm-18 .9c0 .3-.8 1.5-1.7 2.5-2.4 2.6-.6 5.3 3.5 5.4q5.8 0 2.7 2.4c-.8.7-1.5 2.3-1.5 3.5 0 2.1-.4 2.3-6.2 2.3-6 .1-6.2 0-4-1.5 2.6-1.9 3-5.3.5-5.3-3.2.1-5.6 2.7-5.1 5.5q.7 2.7-1.3 2.5-4 0 .9-9c1.6-2.9 3.4-5 4.4-5s2.2-.9 2.8-2c1-1.8 5-2.9 5-1.3m-90.2 3.5q-.6 1.2-1.8 1.3-1.6 0-1.7-1.3-.4-1.1 1.7-1.2 2 0 1.8 1.2m366.5.4c.4.4-.9 3.4-2.7 6.8a52 52 0 0 0-4.6 11.3 14 14 0 0 1-4.1 7.7c-3.4 3.1-3.5 3.6-.9 6.9q4.3 5.5-4.5.7c-3.6-1.9-5.3-3.6-6.1-5.9-1.7-5.1-3.9-6.7-7.4-5.4-2.2.8-3.8.8-6.4-.1-4.5-1.6-6-3.1-2.1-2.2 6 1.5 7.5 1 14.2-4.4 5.9-4.8 9.3-6.2 9.3-4 0 2.1-3.1 7-4.4 7a4 4 0 0 0-2.5 1.3c-.8 1.1-.6 1.8 1 3.3 2 1.8 2.1 1.8 3.4.1.7-1 2.1-1.7 3.1-1.5q1.9.4 2-1.7c.1-1.1.8-3.5 1.7-5.2 1.1-2 1.5-4.3 1.1-6.1q-.6-2.9.8-4.1c6-5 7.7-5.9 9.1-4.5M167 715.5c0 5.7-.8 7-4 6-4.8-1.5-4.5-9.6.4-11.5 3.1-1.2 3.6-.4 3.6 5.5m-27-4.6q0 1-1 1.6-.9.4-1-.9.1-1.5 1-1.6 1 0 1 .9M31.4 714c2.1.1 2.1.1-.3 2-1.3 1.1-2.9 2-3.6 2s-3.8 1.1-6.9 2.5c-7 3.1-7.8 3.1-6.7.3.5-1.3 2.1-2.6 4-3a9 9 0 0 0 4.4-2.9c.9-1.5 1.9-1.9 4.1-1.5 1.6.3 3.8.6 5 .6m114.6.9c0 1.2-2 2.5-2.7 1.8s.6-2.7 1.8-2.7q.8 0 .9.9m12.9 8a15 15 0 0 1 1.9 6.2c-.6 1.7 1.8 6.9 3.2 6.9.6 0 .8-2.2.4-5.6-.6-5.1-.5-5.6 1.2-5.2 2.2.4 2.2-1.1.4 28.8-1.3 22.3-1.4 22.7-3.5 21q-1.6-1.2-7.1-.8l-5.6.5.7-9.1 1-11.6 1.4-16.5c1.3-15.3 1.9-19.5 2.9-19.5.4 0 1.8 2.2 3.1 4.9m-21.9.1c9.1 4.6 10 5.6 10 11.3 0 2.9-.3 6.8-.6 8.7l-.6 3.6-6.6-.4c-3.7-.2-7-.7-7.5-1.1s-1.6-3.8-2.6-7.5-2.4-7.3-3-7.9q-3-3-7.5 8.1l-2.8 7.2h-8.3c-6.1 0-8.6.4-9.5 1.5-1.6 2-.4 3.4 6.3 7.6l5.6 3.5a62 62 0 0 1-3.4 10c-3.3 8.4-3.5 9.8-2.3 11 1.3 1.3 2.6.7 10.3-4.6 8.3-5.6 9-5.9 10.9-4.5 8.5 6.1 17.6 9.6 16.4 6.2l-3.4-9.5-2.9-8.3 5-4.4c2.8-2.4 5.1-3.9 5.3-3.4s-.1 4.8-.7 9.6a173 173 0 0 0-1.1 17.5v8.8l-4.1 2.1a37 37 0 0 1-40.7-4.5c-13.6-12.4-16.9-31.7-7.5-45.3A44 44 0 0 1 111 722a39 39 0 0 1 26 1m-44.2 3.9c-3.8 4.3-4.5 4.7-5.9 3.5-2-1.8-2.8-1.8-4.9.1-1 .9-2.5 1.3-3.4.9-4-1.5-.9-3.9 8.3-6.3a54 54 0 0 0 9.3-3.1c.6 0-1 2.2-3.4 4.9m-86 2.8-2.2 2.4-.8-2.2q-1.7-4.1 2.7-3.1l2.6.5zm482.8.3c1.9 0 2.4.5 2.4 2.6 0 2.7-.1 2.7-5.2.2-2.9-1.4-4-4.5-1.2-3.4.9.3 2.7.6 4 .6m-364.1 12.2c.6 2.5.5 2.8-1.9 2.8-2.9 0-3.1-.6-1.6-4.6q1.9-4.6 3.5 1.8m366-1.3q.3.9-2.2 1.3-2.9.3-2.8 2.3c0 1.7.8 2.1 5.5 2.5l5.5.5v7c0 6.4-.2 7-2.1 7.1-1.7.1-2.1-.5-2.1-2.9 0-4.1-4.5-7.7-9.5-7.7-4.2 0-4.2 0-2.7-5.3q1-3.8 2.9-3.7c1 0 2.2-.5 2.5-1 .8-1.3 4.2-1.3 5-.1m-97.7 1.9c.6 1.8-1.5 1.4-2.2-.4q-.5-1.5.6-1.2 1.1.5 1.6 1.6m-257.1 8.5c-.6 2-2.7 1.9-2.7-.2q0-2.1 1.5-1.4 1.4.6 1.2 1.6m-23.7-.5c0 1.9-2.3 3.1-4.2 2.1-2.7-1.5-2.2-2.9 1.2-2.9 1.7 0 3 .4 3 .8m16.6 2.9c.6 3.3.4 3.9-2.7 6.4a21 21 0 0 1-3.9 2.9c-.3 0-2.3-1.5-4.4-3.3-3.6-3.1-3.8-3.5-2.6-5.8 1.8-3.4 2.8-3.9 8.2-3.9 4.6 0 4.7.1 5.4 3.7m-12.2 9.4c1.4 1.1 2.4 2.4 2.1 2.9-.6 1-9.7 6.2-10.1 5.8-.5-.6 3.8-10.8 4.5-10.8.5 0 2 .9 3.5 2.1M134 766c.7 2.2 1 4.3.7 4.6-.6.7-7.7-3.3-7.7-4.4s3.3-4.2 4.5-4.2c.6 0 1.8 1.8 2.5 4m37.7 1.2q-.5 1-.5-1.2c0-2.2.2-1.9.5-1.3.2.7.2 1.9 0 2.5m-75 21.5c2.3 1.8 6 4 8.2 4.9 3.8 1.5 5.5 3.4 3 3.4-.6 0-2.4 1.1-4.1 2.5-3.5 3-3.9 3-6.7.6-1.2-1.1-3-1.7-4.1-1.4q-2 .6-2-1-.1-1.4-1.4-2a53 53 0 0 0-15.1 2.9c-1.9.7-1.8.6.3-1.8 1.2-1.3 2.2-2.9 2.2-3.4s1.6-2.5 3.5-4.4q5.6-5.3 2.1-6.6c-1-.4-.9-1.3.7-4.4l1.9-4 3.7 5.8c2.1 3.1 5.6 7.1 7.8 8.9m62-10.5c2.6 2.5 3 6.3.7 7.2-2.2.8-2 .9-4.9-2.8-4.2-5.5-.8-9.1 4.2-4.4m6.3 10.3q0 1.3-1 1.5-.9-.2-1-1.5c-.1-1.3.5-1.5 1-1.5q1 .2 1 1.5m-154.7 4.7a69 69 0 0 0 11.5 6.6c3.9 1.9 7.2 3.8 7.2 4.3s1.1 1.4 2.5 1.9c3.9 1.5 2.9 3-1.9 3q-4.4 0-5-1.5T20 806c-2.2 0-4.9-.6-6-1.2-1.5-1-2.5-1-3.8-.2s-1.7 2.4-1.6 7.2c.1 5.3-.2 6.1-2 6.6-2.4.6-3.8-1.1-2.8-3.3.4-.9.7-5.8.6-10.9-.1-8.2.1-9 1.3-7.2 1.7 2.4 4.1 2.6 5 .5.7-2.1-2.7-5.7-4.8-5.2q-1.8.4-1.2-.9c.7-1.9.7-1.9 5.6 1.8m377.1 5.1q4.6 6 .7 7.2c-2.6.8-6.5-1.2-9-4.6l-2.1-2.8 2.8-1.4c4-2.2 4.9-2 7.6 1.6m-261.8-.1c.4.5-1.3.8-3.9.8s-4.8-.3-5-.8 1.4-.7 3.8-.7 4.7.3 5.1.7m-96.6.2q0 .6-1 1.1-.9.4-1-.4.1-1 1-1.1 1 0 1 .4m448.8 10.8c1.6 1.6 1.5 5.8 0 5.8-.7 0-2.3.3-3.5.6-1.8.5-2.5 0-3.4-2-1.1-2.3-1-2.8.7-4.1q3.6-2.7 6.2-.3m-310.3 4.7c-1.2 1.1-19.3 6.3-20.6 5.9-.5-.2.3-1.6 1.7-3.2 2.3-2.4 3.2-2.7 6.3-2.3 2 .3 5.2.2 7.1-.2q7.3-1.8 5.5-.2m319.8 22.8c-.7.2-1.9.2-2.5 0q-1-.5 1.2-.5c2.2 0 1.9.2 1.3.5m-12.8 10.2c.9 1.6-1.4 2.3-4.8 1.5l-3.2-.8 3-.7c4.4-1 4.3-1 5 0m14.4 1q1.4.9-2.5 1.4-3.8.4-5.4-.9c-1.2-1.2-.9-1.4 2.5-1.4 2.2 0 4.6.4 5.4.9m6.4 4.8c-.7.2-2.1.2-3 0q-1.3-.5 1.2-.5 2.6 0 1.8.5m-7.5 1c-1 .2-2.6.2-3.5 0q-1.3-.5 1.7-.5c3 0 2.7.2 1.8.5m2.4 4.6c-5.3.7-7.6.7-8.5-.2-.8-.8 1-1.1 7.4-1l8.4.2zm-16.9.4a17 17 0 0 1-4.5 0q-1.7-.4 2.2-.4c3.9 0 3.5.2 2.3.4m22.7 4.1c0 .5-.9 1.7-1.9 2.6-1.6 1.5-2.8 1.6-7.3.9-5.5-.8-6.6-2.3-2.6-3.5 3.4-.9 11.8-.9 11.8 0"/><path d="M456 202.1q.1.8 1 .4 1-.6 1-1.1 0-.3-1-.4-.9.1-1 1.1m-4 4.9q.1.9 1.1 1 .8-.1.4-1-.6-1-1.1-1-.4 0-.4 1m-203.8-6.8c-1.9 1.9-1.4 2.5 2.2 3.2a17 17 0 0 1 6.1 2.8q2.6 2 3.6 1.1c1.6-1.6-.1-4.3-4.2-6.3-4.4-2.3-6-2.5-7.7-.8m-.8 8c-.4.6-.2 1.4.5 1.6s2.2 1.5 3.5 2.8q4 4 6.7-.7c.9-1.7.5-2.2-2.5-3.4q-6.6-2.7-8.2-.3m10.1 19.8q-.6 1.2.3 2.2c1.4 1.4 4.5.2 4-1.5s-3.4-2.1-4.3-.7m-9 5q-1.6 2.3 4 4c2.7.9 3.4 1.6 3.2 3.3s.4 2.3 2.6 2.5c1.5.2 2.7-.1 2.7-.6s1.3-.7 2.9-.4 3.2-.1 3.6-.7c.9-1.6-3.6-6.1-6.1-6.1q-2-.1-2.8-1.5c-.6-1.7-9.1-2.1-10.1-.5m26.7 65.2c-4.4 4.4 4.1 13.8 9.8 10.8 2.4-1.3 2.6-5 .5-9-1.3-2.5-2.2-3-5.3-3-2.1 0-4.3.5-5 1.2m7.8 4.8c1.2 2.3.6 4-1.5 4-1.7 0-3.8-3.6-3-5 1-1.7 3.4-1.1 4.5 1m7.7 1.4c-3.5 3.4-6.4 11.3-5.4 14.1 1 2.4 3.7 1.8 3.7-.8 0-3.7 2.9-11.3 5.1-13.3 1-.9 1.9-2.1 1.9-2.6q-.2-2.4-5.3 2.6m-39 16.5a37 37 0 0 0-7.6 19.4q-1.6 11.5 1 9c.4-.4 1.7-5 2.8-10 1.8-8.3 5.7-17.3 8.2-18.9 1.4-.8 1.1-2.4-.5-2.4-.8 0-2.5 1.3-3.9 2.9m13.8 6.6q-4.8 4.5 1.1 10.6 2.7 2.7 2.2 5.5c-.3 2.7-.5 2.9-4.4 2.6-2.4-.2-4.5.1-4.9.8-.8 1.2 2.1 5 3.9 5q.9 0-.2-1.2c-1.6-1.6-1.5-3.8.1-3.8s4 3.8 3.2 5q-.4 1 1.4 1c1.1 0 2.4.7 2.9 1.6.8 1.5 1 1.5 1.5 0 .4-.9 1.7-1.6 3-1.6 2.9 0 6.7-3.9 6.7-6.8q-.1-4.5-6 .8c-4.9 4.5-5.7 4-4.4-2.8q.6-3.1 4-5.1c2.8-1.7 3.4-2.6 3.4-5.4 0-7.9-7.8-11.4-13.5-6.2m7.9 1.4c3.5 3.9-.1 9.3-3.9 6.1-1.5-1.3-2-6.1-.8-7.3q1.9-1.7 4.7 1.2m4.6 21.2q-1.1 1.8-1.7 1.5c-.8-.8.5-3.6 1.7-3.6q1 0 0 2.1m-89 13c0 2.6 5.6 8.3 7.1 7.3q1.4-.7-.3-1.8c-.8-.6-2.3-2.6-3.3-4.4q-3.4-5.6-3.5-1.1m26.2 2.2c-3 3.1-2.9 8.1.1 11 1.3 1.2 2.9 3.7 3.5 5.5 1.2 3.6 1 3.8-3.8 4.4-3.1.4-3.7 2.8-1.3 5.5 2.5 2.9 11.3 3.9 11.3 1.4 0-1 1.2-2.8 2.6-4.2 7-6.5 6.2-13.5-1-7.8-5 3.9-6.3-.1-1.6-5.1 3.5-3.8 3.8-6.7.9-10.4a7 7 0 0 0-10.7-.3m7 2.4c2.1 1.9 2.4 6.3.4 6.3-.8 0-2.1.3-3 .6-2.3.9-4.2-3.7-2.7-6.5 1.4-2.5 2.8-2.7 5.3-.4m-4.7 22.4c1.2 1.9-.5 2.3-2.2.6-1.6-1.6-1.6-1.7-.1-1.7.9 0 2 .5 2.3 1.1m-75.8 3.9c-3.5 1.1-5.9 2.9-5.1 4.1.3.5 2.9.9 5.7.9 4 0 6.7.8 11.6 3.5 3.5 1.9 6.8 3.2 7.2 2.9 1.8-1.1.9-5.4-1.4-6.9a70 70 0 0 0-14.6-5.4zm-10 9.6q-6.2 3.6 3.7 3.9 6 .2 6.3-1.3c1.2-3.1-5.6-4.9-10-2.6m118.5 5.7c-3.4 3.6-2.9 7.9 1.3 11.6 2 1.7 4.4 3.1 5.4 3.1q3 .2 3.1 5-.1 4.1-4.3 1.5c-2.3-1.4-5.7-1.2-5.7.5 0 1.4 3.5 3.8 6 4.2q2.6.2 2.8 2.8c.2 1.4.8 2.9 1.2 3.4 1.3 1.3 11-7.2 11-9.6 0-1.7-.6-1.9-4.2-1.6-4.2.3-4.3.2-4.9-3.2q-.5-3.5 1.2-6.5c3.1-5.5 3.1-7.1.3-10.4-2.1-2.6-3.3-3.1-6.8-3.1-3.2 0-4.8.6-6.4 2.3m8.2 1.6a9 9 0 0 1 1.9 4.7c.2 2.5-.2 2.9-2.5 3.2q-5 .4-4.1-6.6 1-5.4 4.7-1.3m19.1 14.3c-2 9.1-2.3 11.4-1.5 12.2 1.2 1.2 3-3.5 3.7-9.7q.6-4.7-.5-4.7c-1.1 0-1.4 1-1.7 2.2m-2.9 17c-.3 1.7-1.1 8.3-1.6 14.6a100 100 0 0 1-1.6 12.3 1034 1034 0 0 0 1.1 90.4l1 45.8c.6 24.3 3 68.5 4.5 82.8.9 8.4 3.5 20 9 40.2 2.1 7.7 5.9 15.7 7.7 16.4 3 1.2 3.1-1.1.3-9a177 177 0 0 1-4.5-15.2c-.9-3.9-2.5-9.9-3.6-13.5-1-3.6-2.3-12.8-2.9-20.5l-1.5-18.3q-.3-4.2.8-4.2c2.3 0 3.5 1.5 4.7 5.6 1.1 3.6 1 4.5-1 8.3-2.7 5.3-1.7 6.6 1.8 2.4 1.5-1.7 3.7-3.4 4.9-3.8 1.9-.5 2.3-.1 2.9 2.2l1.4 5.8a66 66 0 0 1 2.8 18.6c-.3 1.8.1 4.4.8 5.8s1.4 3.9 1.4 5.5q0 4.2 4.6 20.2c.7 2.8 1.4 5.8 1.4 6.8s1.3 2.2 2.9 2.9c4.6 1.9 10.7 11.8 14.1 22.7 3.5 11.1 4.1 12.3 6.9 12.5 1.1.1 2.9.9 3.9 1.8s4.7 3.1 8 4.7c7.1 3.4 9.1 6.1 11.7 15.6 1.5 5.5 2.6 7.3 7.5 12.3 7.1 7.1 16.3 12.2 18.2 10.3 1.4-1.5 1.7-1.2-7.6-8.2l-7.5-5.7a39 39 0 0 1-7-12c-4.5-10.4-9.9-16.8-15-17.9-1.4-.2-3.9-1.1-5.4-1.9s-3.5-1.5-4.3-1.5c-1.8 0-4.5-5.6-7.2-14.6-1.2-4-3.8-9.4-5.7-12-2-2.7-4.2-6.4-5-8.2-.9-1.7-2.1-3.2-2.9-3.2s-1.6-1.2-1.9-2.8l-2.6-10.2a250 250 0 0 1-4.2-19.5c-1.1-6.6-3.2-16.7-4.6-22.4a59 59 0 0 1-2.1-17c.3-5.8.1-6.6-1.4-6.3-1.4.2-1.8-.4-1.8-2.8 0-2.3-1.2-4.4-4.6-8-5.1-5.5-6.8-6-8.4-3-1.9 3.6-2.8 1.3-3.4-8.8l-1.6-20.7c-1.6-18-2-28.5-2.5-58.9-.3-15.8-.8-29.2-1.1-29.7-1-1.7-.7-63.3.4-68.9a60 60 0 0 0 1.4-20.4c-.5-.3-1.2.9-1.6 2.6m14.8 210.9c2.9 3.4 3.4 7 1.2 8.8-3.5 3-8.9-4.7-6.8-9.4 1.5-3.3 2.5-3.1 5.6.6M296 665q0 2.9-2 4c-3.2 1.7-3.8-1.6-.9-4.5 3-3 2.9-3 2.9.5m-1.2 8.1q-.4 1-1.3 1-1.2 0-1.3-1t1.3-1.1c1.5-.1 1.5.5 1.3 1.1M219.3 449c-2.7 1.6-3.3 2.6-3.3 5.6 0 2.1.8 4.6 2 6.1 2.4 3.1 3.7 9 2.1 10.6q-1.2 1 .6 2.9c1.3 1.4 1.6 4 1.7 11.6 0 8.1-1 58.4-1.3 60.3q-.3.7-2.3 1.2c-1.8.5-1.9.8-.8 2.2q1.4 1.6.2 2.7c-1.6 1.6-5.9-2.5-6.7-6.3-.5-2.3-.1-3.3 2.1-5.3 3.4-2.8 3.8-7.9 1-12.1-1.6-2.4-2.2-2.7-5.8-2.2q-8 1-8.1 8.2c-.1 4 2.8 7.5 6.2 7.5q1.7 0 2.7 4.2c.6 2.4 1.5 5.2 1.9 6.2.7 1.7.5 1.8-1.6 1.1-1.3-.4-4.2-1-6.3-1.2-3.8-.5-3.9-.4-2.3 1.1q1.5 1.7 1.7 2.6c0 1.3 5.4 4 8 4q1.8 0 2 1c0 2.3 2.8.8 3.4-1.8a9 9 0 0 1 3.1-4.5l2.5-1.8v2.8a772 772 0 0 1 3 38.8c.5 9.3 1.3 20.6 1.7 25s.7 11.8.6 16.5c-.6 21.4 4.4 64.8 9.3 81.5 2.3 8 5.8 14 8.2 14.3 2.8.4 2.8-1.5.2-4.3-2.7-2.8-5.5-11-7.4-21.5-.8-4.7-2.2-11.4-3-15-2-9.1-4.7-38.6-5.1-57-.3-8.5-.8-22.3-1.3-30.5a165 165 0 0 1-.5-16.2c.4-1-.9-12.1-2.3-19.3-.9-4.4-1.4-58-.7-72.8l.6-14.3 2.9.6c4.1.9 8.4-1.1 9.9-4.6q2.5-6.5-4.7-4c-4.2 1.5-5 1-5.9-4.6-.6-3.8-.4-4.3 2.4-6.4 2.5-1.8 3.1-3 3.1-6 0-7.9-6.7-11.2-13.7-6.9m6.7 2.9c1.5 2.8 1.2 7.7-.4 9q-2.3 2.3-4-5.1c-1.2-5.1 2.1-8.1 4.4-3.9m10 24.6c0 2-3.9 4-5.3 2.6q-1-1 .3-2.6c1.6-1.9 5-2 5 0m-25.7 53.7c2.4 2 3.1 6.2 1.2 7.8-2.1 1.7-6.5.3-7.5-2.5-1.7-4.8 2.4-8.2 6.3-5.3m-1.3 26.9q-.1.8-1.4.9c-1.5 0-2.8-2.4-1.9-3.4.7-.7 3.3 1.3 3.3 2.5"/><path d="M217 475.1q.1.8 1 .4 1-.6 1-1.1 0-.4-1-.4-.9.1-1 1.1m31.5 39.4c-4.8 4.7-2.7 11.6 4.1 13.4 2.5.6 2.9 1.3 3.2 5l.3 4.3-3.3-.7-4.3-.9c-1.3-.1-.9 5.2.6 7 .6.8 2.2 1.4 3.5 1.4 1.4 0 3.4.6 4.5 1.2 1.9 1.2 2.5.8 6.5-3.5 6.3-7 5.5-9.9-1.6-6.2-2.9 1.5-3 1.5-3-.8 0-1.3-.5-2.8-1.2-3.5-.9-.9-.5-1.6 1.5-3.2 2.2-1.7 2.7-3 2.7-6.4 0-8.7-7.8-12.9-13.5-7.1m8.4 3.1c2.6 3.3 2.6 4.6.3 6.7-1.6 1.5-2 1.5-4 .1-5.5-3.8-5-8.3 1-9.3.4 0 1.6 1.1 2.7 2.5m-2.9 21.3q1 2 0 2.6c-1.3.8-4-1.3-4-3.1 0-2.1 2.8-1.7 4 .5m-13.5 41.4q-6 6.1-1.5 10.7c1.1 1.1 3.4 2.3 5 2.7 1.7.3 3 1.1 3 1.7s.3 2.1.6 3.3c.6 2.1.3 2.3-3.6 2.3q-4.2 0-3.7 1.2c.2.8 1.7 1.2 3.5 1 1.6-.2 3.3.2 3.7.7q.5 1-2.2 1.2-3.6-.1-.8.9c1.1.5 3.2.9 4.7.9 1.5.1 3.1.9 3.7 1.8.8 1.5 1.2 1.4 3.8-1.4 1.6-1.6 3.9-3.3 5.1-3.7 2.7-.9 4.8-5.4 3.3-6.9q-1-1-1.6 1.6c-.7 2.7-3.2 5.4-4.1 4.4-.3-.3 0-1.5.6-2.7 1.8-3.5.1-3.8-2.6-.5l-2.5 3-2.4-2.8c-3.1-3.5-3.2-6.1-.1-9.8 2.9-3.4 2.4-7.3-1.5-10-4.8-3.4-6.7-3.3-10.4.4m6.2.5c1.8 1.2 3.5 6.4 2.4 7.5-1.3 1.3-7.8-1-8.5-3-.7-1.7 2-5.3 3.8-5.3q1 .1 2.3.8m-49.5 30.8c-1.7 1.2-2.2 2.5-2.2 5.8 0 7.9 5.1 11.4 12.4 8.6 2.3-.8 2.6-1.5 2.6-5.6q-.1-10.2-7-10.4c-2 0-4.6.7-5.8 1.6m8 2.1c3.4 4 2.1 10.3-2.1 10.3-4 0-6.4-6.9-3.6-10 2.2-2.5 3.7-2.5 5.7-.3m45 28.3c-2.3 1-5.2 6.4-5.2 9.7 0 2.2 5.6 8.3 7.6 8.3s6.4 4.5 6.4 6.5q.2 1.6-3.8 1.5-7 0-5.1 4.2c.5 1 1.6 1.8 2.4 1.8 1.3 0 1.3-.3.3-2-.7-1-.9-2.2-.6-2.6 1.3-1.2 6 .7 6.5 2.6q.6 1.8 2 2c1.4.2 1.9 1.3 2.4 3 1.7 4.7 3.2 3.7 2.6-1.6-.5-4.8.4-6.4 4.8-8.9 1.5-.9 1.7-1.8 1.1-4.8-.8-4.3-2.3-4.7-5.6-1.2-2.7 2.8-4.2 3.1-6 1.1-.9-1.2-.7-2.1.9-4.3q5.2-7.5-1-13.4c-3.2-3-5.7-3.5-9.7-1.9m6.6 2.9c2 1.2 3.2 7.9 2 10.7q-2 4.6-7.7-.2-5.7-5-.5-9.3c2.9-2.3 4.2-2.5 6.2-1.2m9.8 20.9c-1.5 1.5-1.6 1.5-1.6-.4 0-2.8 2.4-5.2 2.8-2.8.2.9-.3 2.4-1.2 3.2m-28 4.5c-2.1 3.2-3.1 13.3-1.6 15.2 1.6 1.9 3 1 3-2q.1-8 3-.8c7.6 20.9 9.2 24.9 10.7 26.5 2 2.3 3.9.9 2.4-1.8-1.8-3.2-9.8-24.7-10.6-28.4q-3-14.9-6.9-8.7m-40.1 20.1a25 25 0 0 0-3.5 11.7c0 2.7 3.7 6.9 6.1 6.9 2.2 0 3.9 2.1 3.9 4.7q.1 2.4-2.3 2.3c-2.3 0-6.7 2.5-6.7 3.8 0 1.5 8 4.2 10.8 3.6 1.7-.4 3.2-.1 3.6.5a3 3 0 0 0 2.2 1.1q1.4 0 .9-.9c-.3-.5.3-2.4 1.4-4.3 2.1-3.6 1.4-7.8-1.2-7.8-.8 0-2.1 1-3 2.2q-2.5 3.8-4.2-1.9c-.5-1.8-.1-2.5 1.8-3.2 1.3-.5 3.4-2.2 4.6-3.8 3.2-4 2.2-7.8-3.5-13.1-5.3-4.8-8.6-5.4-10.9-1.8m6 1.2c1.9.8 5.5 7.5 5.5 10.3 0 3.5-7.1 5.6-9.8 2.9-1.6-1.6-1.5-6.1.2-10.3 1.6-3.8 1.6-3.8 4.1-2.9m9.5 24.3c0 2.1-1.3 4.1-2.6 4.1s-1.9-3.1-.7-4.3c1-1 3.3-.8 3.3.2m-8.5 3.2c1 1.5-.1 2.2-2.4 1.4q-2-.6-1.6-1.6c.8-1.2 3.2-1.1 4 .2"/><path d="M239.6 690.6c-1.1 2.8-.7 6.2 1.4 11.6 2.6 6.8 6.4 11.7 8 10.2q1.3-1-1.4-4c-3.2-3.9-6-12.6-5.2-16.4q.7-3.1-.8-3-1.4.1-2 1.6m84.1 20.2c-7.6.7-9.1 10-2.5 15.4s7.8 6.8 7.8 8.3q-.1 1.4-2.2 1.6-2 0-1 .6c1.9.8 1.4 3.3-.7 3.3-2.6 0-3.6-1.7-2-3.6 1.1-1.4 1-1.5-1.1-1.2-6.1.8-2.2 6 5.1 6.8 5 .5 5.4.7 5.7 3.3.5 4 2.2 2.2 2.2-2.4 0-3.2.4-3.9 1.9-3.9 2.6 0 3.5-4.2 1.7-8.5-1.6-3.7-4-3.9-5.1-.4q-.7 1.7-1.5 1.9-3.1-.2.1-6.4c2.6-5 2.2-8.3-1.9-12.4-2.2-2.2-3.4-2.7-6.5-2.4m4.8 5.2c1.4 2.7 1.4 3.3 0 6-.9 1.6-2.2 3-2.9 3-2 0-6.8-5.9-6-7.3 3.1-5.4 6.6-6.1 8.9-1.7m7.6 18.3q-1.1 1.2-1.1-.9c0-2.7 1.4-4.1 1.8-1.9.2.9-.1 2.2-.7 2.8m-85.3-12.8c-1 1 1.1 10.6 3 13.3 1.1 1.5 3.3 5.6 5 9.2s4.9 8.7 7.1 11.5c2.2 2.7 6.5 8.6 9.6 13 7.6 11 7.5 10.9 12 13.7 6 3.7 16.4 6.7 28.8 8.1 2 .3 4.4 1 5.1 1.6 2.9 2.4 2.8-1.1 0-4.1-4.4-4.5-7.8-5.9-21.2-8.4-13.8-2.5-14.2-2.7-21-12.4l-9.2-12.5a48 48 0 0 1-6-9.5c-.7-1.9-2.1-4.4-3-5.5a33 33 0 0 1-7-13.9c-.5-3.6-1.8-5.4-3.2-4.1"/><path d="m274.2 722.8-2.3.3 2.5 2c3.2 2.5 5.2 8.4 3.6 10.4-2.8 3.4-7-.2-8-6.8l-.7-4.2-1.2 3c-1.9 4.5-.3 8.6 4.3 11 4.1 2.2 7.4 7.9 5.7 9.9q-1 1.2 1 2.4c1 .7 1.9 1.9 1.9 2.7 0 1.9 4.5 1.3 4.6-.6a37 37 0 0 1 2.3-6.2c1.3-2.7 2-5.6 1.6-6.7-1-3.1-4.2-2.4-6.1 1.2-1.7 3.3-1.6 3.3.3 1.5 2.6-2.3 3.3-2.2 3.3.5q.2 6.7-4.8 2.1c-3.4-2.9-4.1-6.3-1.7-8.3 1.8-1.5 2.9-7.1 2-9.9-.8-2.6-5.2-4.8-8.3-4.3m89.1 28.1c-1.8 1.5-2 2.3-1.3 5.5.9 3.9 3.2 7.1 6.3 8.8 2.8 1.5 12.7-1.9 12.7-4.4 0-3-3.9-9.8-5.6-9.8-1.2 0-1.3.4-.4 2 .6 1.2 1 3.5.8 5.3-.3 2.9-.7 3.2-3.9 3.5-3 .3-4.1-.2-5.8-2.4q-4-5.2-.1-7.4 1.8-1 2-2c0-1.6-2.3-1.1-4.7.9m-90.7 0c-.5.7-.3 1.8.3 2.4q2.3 2 1.1-1.7-.7-2.2-1.4-.7m31.7 3.7c-2.1 2.2-2.5 3.2-2 6.6.7 5.1 1.4 5.8 7.4 6.9q7.1 1.4 7.3 5.6 0 1.3-3 .6c-4.3-.8-3.7.5 1.3 2.7 5.7 2.6 6.1 2.5 8-1.5 1.6-3.4 1.6-3.5-.4-3.2q-2.1.1-4.2-2.5c-1.9-2.5-1.9-2.9-.4-5.1q1.6-2.4 1-6.5c-.5-3.4-1-4.3-3.6-5.1q-7.4-2.7-11.4 1.5m7.7.6c3.4 2.5 3.9 6 1.4 9.6-2 2.9-2.8 2.8-5.9-.5-2.9-3.2-3.1-5.4-.9-8.8 2-3 1.8-3 5.4-.3m77.5 2-.7 3.3c-.3 1.6-1.1 2-3.8 1.8l-3.5-.3 2.4 2c1.3 1.1 2.2 2.2 2 2.3l-3.1 2c-3.1 1.9-3.6 4.2-1.2 5.1 3 1.2 6.1.6 8-1.5q1.8-2 4.2-1.4c2.1.5 2.3.3 1.6-1.2-.4-1-.9-4-.9-6.6-.1-3-.7-5.2-1.6-5.8q-2.7-1.8-3.4.3m2.8 4.1q-.6.7-1.4-.4-.6-1.2-.2-2.2.6-.7 1.4.4.6 1.3.2 2.2m-4.3 8.6c0 1.2-2 2.5-2.7 1.8s.6-2.7 1.8-2.7q.8 0 .9.9m-152.2-11.3c-.6.5-.2 6.5.7 10.9.7 3.3 4.3 6.5 7.4 6.5 2.8 0 6.1 2.6 6.1 4.8 0 .7-1.3 1.2-2.9 1.2-4 0-4.8 1.6-1.9 4 2 1.7 10.8 4.4 11.6 3.6.1-.2-.2-1.5-.7-2.9-1.1-2.8-.1-7.9 1.7-8.5s2.6 2.6 1.2 4.3q-1.1 1.5-.7 2.1c.9.9 3.9-4.3 3.5-6.2q-.7-4-5.6.1a15 15 0 0 1-3.5 2.5c-.2 0-1-1.4-1.7-3.1-1-2.2-1-3.3-.1-4.2.6-.6 1.1-2.8 1.1-4.9 0-2.9-.7-4.5-2.6-6.3-3.3-3-5.4-2.1-2.4 1 2.8 3 2.4 7.5-.9 9.1-1.3.7-2.9 1-3.5.8-2-.8-4.8-7-4.4-10 .2-2.4.7-2.9 2.8-2.7q2.7.3 1-.6c-2.4-1.4-5.6-2.2-6.2-1.5m-39.3 4.4c-6.1 4-6.1 9.5 0 15.4q7.7 7.5 2.1 7.6c-5.5 0-7.2 2.3-3.8 5.2 2.2 1.9 6 2.9 6.8 1.7.9-1.5 3.7-1 6.4 1.1 3 2.3 4 2.5 4 .6 0-.8 1.2-2.8 2.6-4.5 3-3.6 3.2-10.3.2-10.9-2.1-.4-5.1 3-5.8 6.5-.8 4-2.8 3.9-4.7-.3-1.7-3.5-1.7-3.7.1-4.8 4.7-2.8 5.8-4.3 5.9-7.8.1-3.8-2.4-7.8-5-7.8-1.6 0-1.6.3-.2 5.1 2.1 6.9-3.1 9-7.8 3.2-3-3.7-2.9-4.7 1.1-8 1.9-1.5 3.2-3.1 3-3.5-.8-1.2-1.6-1-4.9 1.2m18.2 19.6c.7 1.8-1.2 6.4-2.7 6.4-1.1 0-1.4-6.3-.3-7.3q1.8-1.7 3 .9m-14.6 6.4q.8 0 .9 1c0 1.6-2.6 1.2-4.1-.7q-1.9-2 .4-1c1 .4 2.3.7 2.8.7m224.9-6.5c-1.2 3.1-.4 7.3 1.9 10.4 1.3 1.6 3.1 2.5 6.5 2.8q8.8 1.3 8.6-6.8c0-5.2-4.7-8.9-11.4-8.9-4 0-4.8.3-5.6 2.5m10.6 2.6c2.6 2.4 3.6 6.5 2 7.8q-1.2.8-5.5-1.3c-3.3-1.5-4.7-2.9-5.2-5-.5-1.6-.6-3.4-.2-3.9.8-1.4 6.4.1 8.9 2.4m-112.5 10.3c-2.9 4.6-2.6 7 1.1 10.1 2.6 2.2 3.8 2.5 6.5 2 6.1-1.1 9.4 1.5 5.8 4.5-2 1.6-1.9 4.6.1 5.4 3.2 1.2 5.3.5 7.4-2.4 1.2-1.7 2.7-3 3.4-3 .8 0 1.3-1.2 1.3-2.8.1-1.5.4-4.6.8-6.8q.8-4.2-.5-4.9c-1.6-1-6 3.8-6 6.6q-.1 1.7-1.5 1.9c-1.7 0-3.9-3.6-3-5s-2.2-6.8-4.4-8c-1.1-.5-3.5-1-5.5-1-2.8 0-3.8.6-5.5 3.4m8.4.2c2.2 2.3 1.6 7.8-.9 8.3-3.6.6-6.2-5.9-3.4-8.7 1.6-1.6 2.3-1.5 4.3.4m10.3 18.6c-.7 1.9-3.8 2.2-3.8.4q.1-1.5 2.1-1.6 1.9 0 1.7 1.2m107.4-18.9c-1.2.7-2.9 2.3-3.8 3.5-1.2 1.8-2.2 2.2-4.4 1.7-3.9-.8-9 3.5-7.4 6.2 1.5 2.4 5.9 2.8 9 .8s3.7-1.5 7 3.7q2.7 4.2 3.7 2.9c.8-.8.4-2.4-1.2-6l-2.3-4.9 2.2-3c1.3-1.7 2-3.8 1.7-4.6-.8-1.9-1.5-1.9-4.5-.3m1.4 3.6c-.8 1.3-3.6 1.5-3.6.3q0-.8 1.2-2c1.4-1.4 3.4 0 2.4 1.7m-9.6 6.6c0 1.5-4.3 1.2-4.8-.3q-.5-1.5 2.2-1 2.4.4 2.6 1.3m3.1-469.1c-1 1.2-.8 1.9.9 3.6s2.4 1.9 3.6.9c2.1-1.7 1.3-5.3-1.2-5.7a4 4 0 0 0-3.3 1.2m25.1 4.9q-2.2 2.6 2.5 2.7 2.6 0 2.1-1.7c-.4-2.2-3.1-2.8-4.6-1m-121.9 19.3c-1.1 2.8 6.8 7.7 9 5.5q1.1-1-2.3-4.1-5.4-5-6.7-1.4M57.2 391.2c-1.7 1.7-1.5 4.8.4 5.5.8.3 2.2-.1 3.1-.9 1.2-1.2 1.3-2 .4-3.7-1.3-2.4-2.2-2.6-3.9-.9m-37.5 66.1c-.7 1.9 2.6 8.2 4.3 8.2 1.9 0 1.6-4-.5-7.2q-2.6-3.9-3.8-1M121 430.5c-1.6 2-1.1 2.4 3.4 3.2 4.1.7 4.8-.8 1.4-3.1-2.8-2-3.2-2-4.8-.1m348.2 11.6q-6 4.6-3.3 6.3c1.3.9 10.5-5.6 10.9-7.7.5-2.7-2.9-2.1-7.6 1.4M27.5 492.9c-.9 1.5 2.3 4 6 4.7 6.8 1.2 7.7-2.6 1-4.4-5.4-1.4-6.2-1.5-7-.3m.9 6.2c-.8 1.4 1.1 3.3 2.5 2.5a3 3 0 0 0 1.1-2.2c0-1.6-2.6-1.9-3.6-.3m408.7.3c-1.4 1.6-.9 4.6.7 4.6q1-.1 2.2-1.6c1.1-1.2 1.1-1.8-.2-3-1.3-1.3-1.6-1.3-2.7 0M84.2 511.2c-1.1 1.8-2.5 5-3.2 7.1l-1.2 3.8-8-.2c-8.3-.2-9.7.5-9.8 4.3 0 1.4 3.4 4.2 9.2 7.3 2.4 1.3 2.3 3-1.1 12.6-4.3 12.1-3.2 12.7 8.5 4.3 4.3-3.1 8.4-5.8 9-6.1 1.8-.7 5 1.2 12.6 7.3 3.7 3 7.1 5.4 7.7 5.4 2.7 0 1.2-6.1-3.3-14-4.5-7.8-3.5-10 6.4-14.8q3.5-1.7 3.5-3.7c0-1.8-.8-2-9.4-2.5l-9.4-.5-1.9-4c-4-8.3-4.4-9-6-9.3-.9-.2-2.4 1.1-3.6 3m5.5 7.8c1.3 3.4.7 4.2-2.5 3.3-2.4-.6-2.5-.7-1.6-4.1.9-3.1 2.8-2.8 4.1.8m-13.1 8.1c1.3 2.1-1.4 3.4-4.1 1.9q-2.3-1.2-2.5-2.2c0-1.2 5.8-1 6.6.3m17.9 2.9c1.8 3.5 1.5 4.5-2.5 6.5-2.4 1.2-3 1.3-4 0-.6-.8-2.7-1.9-4.6-2.5-3.6-1.2-4-2-2.4-5.1.9-1.5 2.2-1.9 6.5-1.9 5.1 0 5.6.2 7 3m8.5-1.5c-.7.8-1.9 1.5-2.6 1.5q-1.3-.2-1.4-1.5.1-1.5 2.6-1.5c2.2 0 2.5.2 1.4 1.5m-21 10c1.7.9 3 1.9 3 2.4 0 .7-4.2 3.9-9.7 7.4-2.3 1.4-2.2-1 .2-6.1 1.3-2.9 2.7-5.2 3-5.2s1.9.7 3.5 1.5m17.3 3c1.9 4 1.6 4.2-2.4 1.8-3-1.8-3.8-3.8-1.6-4.6 2.1-.9 2.3-.8 4 2.8M395.6 513q-5.4 4.8-2.6 6.5c1.4.9 10.2-6.3 9.7-7.9-.7-2.2-3.6-1.7-7.1 1.4m-101 2.5c-1.7 4.6-.5 9.3 4.5 17.5 6.5 10.7 8 12.7 13.2 16.4 4.7 3.4 5.7 4.5 5.7 6.4 0 1-.7.9-2.9-.4-3.8-2.2-8.3-.7-7.4 2.4.5 1.9 6.1 5.2 8.8 5.2q1.4.1 1.5.8c0 .5.6 1.7 1.4 2.7 2.1 2.9 4.6.3 4.6-4.7 0-2.8.7-4.6 2.5-6.3 1.3-1.4 2.8-2.5 3.3-2.5 1.3 0 6.3-8 5.6-9.1-.9-1.6-4.6-1-8.9 1.5q-4.1 2.5-5.5 1.6c-1.1-.7-1-1.2.8-2.7 1.3-1 2.5-3.4 2.8-5.4.5-2.8.1-4.1-2.1-6.7q-5.6-6.6-13-.1c-2.1 1.8-4 2.8-4.4 2.3l-4.6-5.8c-3.2-4.3-3.6-5.6-3.3-9.4.3-4.5-1.3-6.9-2.6-3.7m23.3 20.8c1.9 2.2 2 2.5.6 3.7-2.1 1.7-6.5-.2-6.5-2.8 0-3.9 2.7-4.3 5.9-.9m129.3-18.2c-3.4 2-9.5 1.8-10.8-.2q-.6-.8-2.5-.9c-2.9 0-2 3.2 1.4 4.8 2.3 1.1 2.7 1.9 2.7 5.3 0 3.8-.1 3.9-3.2 3.7-4.7-.4-4.4 2.4.3 3.5 3.6.8 3.7 1 3.2 4.6q-.5 3.7.7 4.6 3.3 2 3.6-8.3c.2-9.4.7-10.5 6.4-13.6 4.9-2.7 6.7-5.7 3.3-5.5-1 0-3.3.9-5.1 2m34.3 68c-.8 1.2 3.3 5.9 5.1 5.9 2.7 0 2.7-2.4 0-4.7-3-2.5-4.2-2.8-5.1-1.2m-49.3 22.6c-.6 1.6-1.4 4.4-1.8 6.3-.3 1.9-1.5 5.9-2.6 8.9l-2 5.4-9.4-.5c-7.1-.4-9.8-.2-11.4.9-2.4 1.7-1.8 3 1.9 4.7 1.4.6 5.2 2.6 8.3 4.4l5.7 3.3-1.9 5.2c-1 2.9-2.4 6.5-3.1 8.1-1.2 2.5-1.1 3 .5 4.2 1.6 1.1 2.2 1 4.5-.7 5.6-4.4 13.5-9.9 14.1-9.9.4 0 5.5 2.8 11.4 6.1 10.3 5.9 13.2 6.7 11 3.1a77 77 0 0 1-8.4-19.5c0-1.6 5.9-6.6 10.8-9.1 3.8-1.9 4.6-5.2 1-4.1-1.3.3-5.6.9-9.6 1.2l-7.2.6-4-8.7c-2.2-4.7-4-9.5-4-10.6 0-2.9-2.6-2.4-3.8.7m5.1 13c1.6 4.8.8 6.3-3.5 6.3-3.1 0-3.3-.7-1.7-5.9l1.6-5q.9-3 3.6 4.6m12.7 10.8q-2.3 2.5-3.3 1.6c-1.7-1.7.1-4.1 2.9-4.1h2.7zm-8 1.5c1.5 3.6 1 5.2-2.7 7.7-2.6 1.8-3.2 1.9-7.6.6-5.5-1.6-6.4-3.1-4.7-7.3 1.2-3 1.2-3 11.6-3.8q2.2-.2 3.4 2.8m-18.6-1.1c.3.4 0 1.6-.7 2.5-1 1.3-1.8 1.5-3.8.8a11 11 0 0 1-3.8-2.6c-1.2-1.4-.9-1.6 3.2-1.6 2.5 0 4.8.4 5.1.9m23.5 12.8 1.8 5q1 3.1-5-1.8c-3.6-3-3.7-3.2-2.1-5 2.5-2.8 3.8-2.3 5.3 1.8m-19.4-.5c1.4.6 2.5 1.6 2.5 2.2 0 1.1-7.2 6.6-8.5 6.6-.8 0-.1-3.3 1.5-7.5 1.1-2.9 1.1-2.9 4.5-1.3m-67.9 3a8 8 0 0 0-1.6 3.6c0 .7-.7 3.6-1.6 6.3-1.9 5.7-3.1 6.3-13.4 6.2q-11.4-.1-7.3 3.9c.9 1 3.1 2.6 4.7 3.4s4.4 2.5 5.9 3.8l2.8 2.2-2.7 8.2c-4 12.5-2 16.6 4.7 9.6 1.8-2 5.1-4.9 7.1-6.5l3.7-3 9.7 6c7.4 4.6 10.1 5.8 11.1 4.9 1.9-1.5 1.6-4.6-.6-7.7a63 63 0 0 1-4.6-8.6l-2.6-5.9 2.8-2.2a35 35 0 0 1 6.6-4c2.8-1.3 3.7-2.3 3.7-4.1 0-2.3-.3-2.4-5.7-2.3-14.1.4-13.5.6-16.2-5.2a32 32 0 0 1-2.5-7.7c-.1-3.3-2.1-3.7-4-.9m2.9 12.6c0 1.8-2 1.5-2.3-.4q-.4-1.6 1-1.2 1.2.6 1.3 1.6m5.3 9.8 1.7 3.6-4 3.3c-3.7 3.2-4.1 3.3-6.6 1.9-3.8-1.9-4.1-2.6-2.5-7 1-3 2-4 4.2-4.5 5-1.1 5.4-1 7.2 2.7m9.2-2.1c-.7.8-2.1 1.5-3.1 1.5q-1.8-.2-1.9-1.5 0-1.5 3.1-1.5c2.7 0 3 .2 1.9 1.5m-24.3 1q.2 1.1-.9 2.8c-1.2 1.5-1.5 1.5-4.8-.6l-3.5-2.2 3-.6q5.6-1.4 6.2.6m21.8 14.7c1.4 2.8 2.4 5.3 2.1 5.5-.5.6-5.3-2-8.6-4.6l-2.5-2 2.4-2.5c1.3-1.4 2.8-2.3 3.2-2s2 2.8 3.4 5.6m-17.6-1.8c.9 1.1.3 2-2.9 4.6-4.3 3.4-4.8 2.9-2.6-2.5q2.5-5.6 5.5-2.1M72.8 658.2a50 50 0 0 0-3.8 8.3c-2 6.2-2.4 6.5-11.1 6.5-6.9 0-8 .2-8.9 2.1-1.7 3-.7 4.5 4.8 7.3 6.7 3.4 7.7 4.7 5.9 8.3-2.3 4.7-4.1 12.3-3.1 13.3 1.2 1.2 7-1.8 13.3-6.6a21 21 0 0 1 5.3-3.4c.4 0 3.4 1.3 6.6 2.9 10.5 5.2 16.7 8.1 17.5 8.1 1.5 0 .5-3.8-3.3-12.5-2.2-4.9-4-9.5-4-10.2s2.5-2.9 5.5-5c3.1-2 5.4-4.1 5.2-4.7s-3.5-1.1-8.3-1.1h-7.8l-3.3-7-4.2-8.5q-2.5-4.4-6.3 2.2m6.6 7.5a36 36 0 0 1 1.6 5.5c0 .4-2.1.8-4.6.8h-4.6l.7-3.3c1-4.4 3.4-8.9 4.4-8.2.5.3 1.6 2.6 2.5 5.2M93 675.9c0 1.4-1.8 2.3-3 1.6q-1-.7-.5-1.6c.8-1.2 3.5-1.2 3.5 0m-8.1 2.8c.7 1.4.8 2.9.4 3.3l-5.1 3.9-4.3 3.3-4.4-2.3a15 15 0 0 1-4.9-3.5c-.2-.6.4-2.5 1.5-4.3 1.8-3 2.1-3.1 8.7-3.1s7 .2 8.1 2.7m-20.9-.4q0 1.4-.6 2c-1 .9-4.6-1.2-3.9-2.4.9-1.4 4.5-1.1 4.5.4m26.7 13c1.4 3.1 2.4 6 2.1 6.3-.8.7-12.8-5.4-12.8-6.5 0-1.3 6.1-6.2 7.2-5.9.5.2 2.1 2.9 3.5 6.1m-22.2-1.1q2.3 1 2.5 1.8c0 .9-7.6 6-9 6-1.3 0-1.3-.2.6-5 1.8-4.4 2.1-4.5 5.9-2.8m365.1 9.1a59 59 0 0 0-2.1 6.8 40 40 0 0 1-2.1 6.7l-1.4 3.4-9.4-.7c-6.6-.5-9.6-.4-10.1.4-.4.7 2.5 4.1 7.1 8.4l7.7 7.3-3.2 9.3q-3.2 9.4-2.3 10.3c1.1 1.1 11.5-4.5 15.8-8.4 2-1.8 2.2-1.7 12.2 6.2a92 92 0 0 0 11.1 8c1.6 0 .5-8.7-1.9-15.5-3.7-10.3-3.7-10.6 1.1-14.5 2.4-1.9 5.6-4.1 7.2-4.8 2.7-1.1 2.8-1.4 1.5-3.3-1.3-2-2.2-2.2-10.4-2-4.9.1-9.4-.2-10-.6-.6-.5-1.7-2.6-2.4-4.8s-1.9-4.9-2.6-6c-.6-1.1-1.5-3.5-1.9-5.2q-1.4-6.9-3.9-1m4.7 15.9c-.2.5-1.5.8-2.9.8-2.7 0-3-1.3-1.3-5.7l1.1-2.8 1.7 3.5c1 1.9 1.6 3.8 1.4 4.2m-12.1 7.3c-.6 3.5-2 3.9-5.1 1.4-4.1-3.3-3.8-4.1 1.2-3.7 3.6.3 4.2.6 3.9 2.3m16.2 2.9 2 4.9-3.4 2.9a15 15 0 0 1-4.5 2.8c-.5-.1-2.5-1.4-4.3-2.9-3-2.6-3.3-3.2-2.6-6.7 1-5.5 2.1-6.5 6.7-6.2 3.8.3 4.2.6 6.1 5.2M456 722c0 .6-1.5 1.9-3.2 3-3.1 1.9-3.4 1.9-4.5.3-2.4-3.2-1.6-4.3 3.2-4.3 2.5 0 4.5.5 4.5 1m-25.6 14.9c2.1 2.3 1.5 3.6-2.4 5.6q-5.5 2.9-2.6-4c1.7-4 2.6-4.3 5-1.6m19 4c1.4 3.2 2.6 6.4 2.6 7s-2.7-1-6-3.6l-6-4.6 2.2-2.4c1.2-1.3 2.7-2.3 3.3-2.3.7 0 2.4 2.6 3.9 5.9M84.8 788.6c-3.2 1.7-4.1 6.1-1 4.9.9-.4 3.2-.9 4.9-1.2 3.6-.6 5.8-2.6 4.8-4.3-.9-1.5-5.5-1.2-8.7.6m287.5-569.9c-1.8.7-1.6 3.3.2 3.3q1.4 0 1.5 1t2 1c2.3 0 2.7-2.9.8-4.8-1.3-1.3-2.4-1.4-4.5-.5m-4.8 80.2c-.8 1.5.3 3.1 2.1 3.1q1.4-.1 1.2-1.7c-.4-2-2.4-2.8-3.3-1.4m111.7.7c-3.5 2.4-2.6 5.6 1.8 6.6 5 1 7.1-1.1 5-5-1.9-3.3-3.8-3.8-6.8-1.6m14.3 1c-.9 1-1.4 2.4-1.1 3.3 2.3 7.4 3.6 9.6 5.5 9.9s2.1-.2 2.1-3a10 10 0 0 0-1.5-5.2 8 8 0 0 1-1.5-3.7c0-2.6-1.6-3.2-3.5-1.3m-459.6 279c-.8.9-2.3 5.1-3.5 9.3l-2 7.6-8.5.1c-10.7.1-10.9.1-10.9 1.8s6.8 7.9 10.9 10.1c3.8 1.9 3.8 3.4.5 12.5-1.7 4.5-2.3 7.5-1.7 8.1 1.5 1.5 10.2-.1 10.8-2.1.6-1.9 7.7-7 9.7-7 .7 0 4.4 2.5 8.1 5.6 9.6 7.7 10.6 6.7 5.6-6.1l-3.1-7.9 4.4-4.1c2.4-2.2 5.7-5 7.3-6.1 2.5-1.9 2.8-2.5 1.9-4-1.2-2-3.3-2.2-12.9-1.3l-5 .4-2.2-4.5a19 19 0 0 1-2.3-7c0-3-2.5-7-4.4-7-.8 0-2 .7-2.7 1.6m4.8 13.8c.6 3.5.4 3.8-1.8 3.4-2-.2-2.4-.8-2.2-3.2.5-7 2.9-7.1 4-.2m13.8 9.6c-3.4 3.5-4.1 3.7-5 1-.9-2.9.2-4 4.2-4h3.7zm-26.5.6q-.1 3.3-5.1 1.4c-4.7-2-3.3-4 2.3-3.2 1.5.2 2.8 1 2.8 1.8m17 0c1.8 4.6 1.2 7.1-2.2 9.3-3.1 1.9-3.4 1.9-6.2.3-3.9-2.3-5-4.3-4.2-7.6q1-4.4 8.4-4.5c2.6-.1 3.4.4 4.2 2.5m-12 11.9c1.1 1.3.9 2-1 4-2.7 2.8-5.6 3.4-4.6.9l1.2-4c.7-2.7 2.6-3.1 4.4-.9m17.3 3.5c.7 2.5-1.4 2.6-3.6.2-1.3-1.4-1.4-2.1-.5-3 1.4-1.4 3.3-.1 4.1 2.8M37.7 733.2c-1 1.8-2.5 5.5-3.5 8.3-2 5.7-3.1 6.2-14 6.4-5.8.1-6.3.3-6 2.2q.3 2 4.2 3.4c2.2.8 5.1 2.5 6.4 3.9l2.5 2.5-2.5 5.8c-6 13.7-6.1 16.9-.2 13.8a70 70 0 0 0 10.5-5l6.2-3.6 2.6 2.4c5.2 4.7 11.5 8.7 12.4 7.8.5-.5.3-2.1-.6-3.7-.7-1.6-1.9-5.5-2.6-8.7-1.2-5.6-1.2-6 1.1-8.4 1.2-1.3 4.4-3.9 7.1-5.6Q73 747 54.6 747h-7.5l-2-6.5c-2.3-7.3-3.8-10.5-5-10.5-.4 0-1.5 1.5-2.4 3.2m3.7 9.7c.9 1.6 1.2 3.1.9 3.5-1 1-5.3.7-5.3-.4 0-1 2.2-6 2.6-6 .2 0 1 1.3 1.8 2.9m-11.4 10c0 2.9-1.8 3.6-4.1 1.5q-4.1-3.5 1.1-3.4c2.3 0 3 .5 3 1.9m15 2.8c1.3 4.5 1.3 4.7-1.4 7-3.5 2.9-4.7 2.9-8.6-.3-3.2-2.8-3.3-4.5-.4-9.2 1.1-1.6 2.4-2.2 5.3-2.2 3.7 0 3.9.1 5.1 4.7m9.5-1.2c-4.3 3.6-4.9 3.6-5.9-.8-.6-2.7-.6-2.7 4.6-2.7l5.3.1zm-20.6 10.9 2.2 2.4-3.8 3.1c-3.4 2.8-6.3 4-6.3 2.5 0-1.3 4.3-10.4 4.9-10.4.4 0 1.8 1.1 3 2.4m16.1 6.5v2.5l-3-2.9c-2.9-2.8-3-3-1.3-4.3 1.5-1.1 2-1 3 .5a8 8 0 0 1 1.3 4.2m82.3 34.8q-2.1.5-2.3 1.9c0 1.1 1.5 1.4 6.5 1.4 5.7 0 8-.9 5.7-2.4a24 24 0 0 0-9.9-.9m-15.6 1c-1.4 1.3-.6 3.3 1.3 3.3q2 0 2-2c0-1.9-2-2.7-3.3-1.3m.4 10.2q-8.4.6-8.9 1.9c-.3 1 1.9 1.2 10 1 8.3-.2 10.3-.6 10.3-1.8 0-1.8-.6-1.8-11.4-1.1m-37.5 3c-.9 1.4.3 1.9 5.4 2.2 3.5.3 4.5 0 4.5-1.1 0-1.8-8.9-2.7-9.9-1.1m-64.3 4.8c-2.4.9-1.3 2.4 1.5 2.1 1.5-.2 2.6-.8 2.5-1.3-.2-1.2-2.3-1.6-4-.8m54.2 5.3-15.3.8q-.2.2.3 1.2c1.2 2 33.9.6 33.2-1.4-.5-1.4-.2-1.4-18.2-.6m195 0q-.4 1 .7 1.5c2.4.9 12.2-.1 12.6-1.3.5-1.5-12.4-1.7-13.3-.2m-242.7.8c-4.2.4-5 1.6-1.5 2.6 3.8 1 27.5.7 28.2-.4q.4-1-.8-1.5c-1.6-.7-20.5-1.1-25.9-.7m128.7 0c-1.1.2-2.4.8-2.9 1.3-1 .9 10.7 1.3 47.1 1.3 14.8.1 19.3-.2 19.3-1.2q-.2-1.1-3.2-1.2l-30.8-.3c-15.1-.1-28.4-.1-29.5.1m81.5.2c0 .5 1.6 1.1 3.5 1.2l5.2.2q1.5 0 2.1-1.2.6-1.3-5.2-1.2c-3.1 0-5.6.4-5.6 1m-102.3.7c-1.5 1.4-.5 2 3.8 2 4.5 0 5.9-1 2.9-2.1-2.1-.8-5.9-.8-6.7.1M0 835.5c0 2.2.4 2.5 3.9 2.5 4.3 0 6.4-1.6 3.4-2.6-1-.3-2.6-1-3.5-1.5q-4-2.4-3.8 1.6m0 8.6c0 2.9.1 3 3.3 2.4q7.1-1.4 1.6-3.9c-4.4-2.2-4.9-2.1-4.9 1.5m14.5-.1c-.8 1.2 1.7 2.3 4.1 1.8a3 3 0 0 0 2.2-1.6c.5-1.5-5.4-1.7-6.3-.2m19 1.1c-1 1.5-.5 1.8 4.8 2 5 .3 7-.6 4.7-2.1-2-1.3-8.7-1.2-9.5.1m59.5 2.6c-3.4 2.3-4 3.3-4 7 0 2.7-.4 3.4-2.7 3.9-6.3 1.4-7.8 2.1-7.8 4 0 2.5 3.8 3.1 13.5 2.3l15.8-1.2c4.6-.2 8.7-.8 9.2-1.3s1-2.5 1.2-4.4c.2-3 0-3.5-1.7-3.3-1 .1-2.7-.3-3.7-.8-1.3-.7-2.3-.4-3.8 1.1l-2 2v-2.1q0-4.7-5-7.4c-3.8-1.9-6-1.9-9 .2m6.7 9.7c-.7 1.7-2.7 2.2-2.7.7q.1-1 1-1.6 1.2-.7-.1-2.3-1.8-2.4.5 0c1.1.9 1.6 2.3 1.3 3.2m-73 2.7c-2.8 1.6-1 2.9 4.2 2.9s6.6-.7 5-2.7c-1.3-1.5-6.6-1.7-9.2-.2m170.5 4.6c.4 2.1 3.3 2.5 3.3.3q-.2-1.3-1.8-1.8-2-.5-1.5 1.5m51.1 4c-3.6.7-2.7 2.3 1.3 2.3q3.5 0 3.2-1.2c-.5-1.4-1.5-1.7-4.5-1.1m19 0c-2.8 1-1 2.4 3 2.2 2.3-.1 14 0 26 .1s22.1 0 22.5-.4c1.9-2-4.4-2.6-26.3-2.5-13.2.1-24.6.3-25.2.6"/></svg>