<svg xmlns="http://www.w3.org/2000/svg" width="666.7" height="1170.7" viewBox="0 0 500 878"><path d="M207.5 86.7c-7.5.8-15 2.6-17 3.9-1.8 1.1-2.8 1.2-5.1.3q-5.9-2.2-16.4 3.1a27 27 0 0 1-8.7 3c-1.6 0-4.6.9-6.7 2.1-2.9 1.6-5.4 2-10.9 1.8-13.2-.4-17.9 2.2-22.8 12.4-3.6 7.4-3.4 9 1.2 11.4 1.3.7 2.2 1.9 2.1 2.5-2.8 9.9-1.7 22.1 2.3 27.4 3.6 4.8 5.9 5.7 13.7 5.5 6.6-.1 6.8-.1 6.8 2.3 0 1.4-.7 3.1-1.5 4a18 18 0 0 0-3 4.9c-1.8 4.3-.6 5.7 5 5.7q7.6 0 7.5-7.2c0-1.9.3-3.8.6-4.1.4-.4 3.3 1.8 6.5 4.7 4.8 4.5 6.8 5.7 11.5 6.6 4.1.9 5.9.9 6.7.1q2.9-3.1 2.5 3.1c-.3 3.9-.1 4.3 2 4.1q2.3-.4 2.2 1.7c0 2.2 3.4 2.8 4.5.9q.8-1 2.6.7c2.5 2.3 2.4 3.3-.6 4.4a7 7 0 0 0-3.7 3.6c-1 2.2-.9 3.1.5 5.6 3.1 5.5 1.2 6.6-3.5 2.1-2.6-2.5-3.6-2.7-10.6-2.8s-8.4.4-15.7 4.2c-14.2 7.2-16.1 10.3-20.3 33.3a39 39 0 0 0-1 16c.5 3 .9 6.4.9 7.5-.4 6.4 0 73.3.5 74.7.3 1 1.7 2.1 3.1 2.4 2.6.7 2.6.3.6 10.4-.3 1.9.4 3.3 2.8 5.8 2.9 3 3.1 3.5 2 5.9s-.9 2.9 1.4 5.1c2.1 1.9 2.6 3.2 2.4 7 0 2.6.7 6.9 1.6 9.7l2.1 6.2q.4 1.2 5.4 1.3c4.1 0 5-.3 5.1-1.8 0-.9.4-4.1.8-6.9s.4-5.8-.1-6.5q-.7-1.3 1.4-2.9c2.1-1.6 2.1-1.7.9-22.5-.7-11.5-1.5-22.4-1.8-24.2q-.7-3.4 1-3.2c.9 0 2.4 2.7 4.1 7.3a78 78 0 0 0 13.9 23c3.4 4.2 4.2 5.9 5.2 12.5 1.4 8.9 1.1 10.6-2.2 12.7-1.3.9-3.3 3.6-4.3 5.9s-3.4 6.5-5.3 9.2a201 201 0 0 0-23.7 46.9 382 382 0 0 1-6.9 17.6 318 318 0 0 1-12.2 28.2 58 58 0 0 0-3.9 9.1c0 2.1 4 6.6 5.9 6.6 1 0 3.2 1.4 4.9 3 4.6 4.4 6.9 3.9 3.7-.7-2-2.9-.9-7.8 5-21.7 2.5-5.9 6.5-16.7 8.7-23.9 2.3-7.3 5.6-15.9 7.4-19.2 1.8-3.4 5.1-10.8 7.3-16.4 4.3-10.7 12.9-30 14.2-31.4 1.2-1.5 4.9.3 4.9 2.4 0 1.1-1.3 3.9-2.9 6.2s-4 6.9-5.5 10.2l-8 17.5a518 518 0 0 0-31.2 92.2c-.7 2.4 3 5.8 6.4 5.8l2.7-.1-2.6-2.3c-2.5-2.2-2.6-2.6-1.8-7.1.5-2.6 2.7-10.4 4.9-17.2a145 145 0 0 0 4-13.9c0-5.3 26.8-70 35.3-85.1 3.4-6.1 5.1-7.3 6.1-4.8.4 1.1-1.3 4.7-4.7 9.8-5.3 8-8.4 15.6-21.2 51.2a573 573 0 0 0-13.4 41.8c-7.5 25-7.6 32-.6 34 1.7.5 5.1 2 7.7 3.3 2.6 1.4 6 2.4 7.5 2.2 2.4-.3 2.8 0 2.6 2.2l-.4 28c-.2 29.4-.6 31.2-8.5 43a67 67 0 0 0-10.9 21.3c-.9 3.2-2.4 6.1-3.5 6.7-2.9 1.6-7.3 13.7-6.6 18.5.9 5.9-.8 13.6-3.5 15.8-2 1.6-3.4 1.8-10.4 1.2-9.3-.8-11.4-2.1-9.9-6.2q.8-2.7 4.4-3.6a16 16 0 0 0 5.8-3c2.2-2 2.3-2.7 1.8-11.2-.2-4.9-.8-10.9-1.1-13.2-.4-2.5-.2-5.6.4-7.5 1.1-3.1 1-3.5-2-6-2.6-2.2-3.1-3.2-2.6-5.5.7-3.9-2.4-7.8-7.7-9.6-4.5-1.6-7.3-1.3-14.5 1.3-3.3 1.3-3.5 1.2-7.2-2.9-4.2-4.6-7.7-5.3-12.9-2.6-2.7 1.4-3.2 1.4-6.2-.5-1.8-1.1-4.1-2-5-2s-3.1-1.7-5-3.8-4-4.1-4.9-4.4c-2.6-1-11.2 1.2-14.6 3.8-2.8 2.1-4.3 2.4-16.2 2.8-13.9.4-18.1 1.7-18.1 5.5 0 1-.9 3-2 4.4a10 10 0 0 0-2 5.1c0 4.2-3.6 10.1-8.5 14.1-5.3 4.4-6.1 6.8-4.5 13.3 1.4 5.6 6.9 11.8 11.4 12.7 4.7 1 11.5 3.9 12 5.1.2.6.2 3-.1 5.2-.6 4.4-3.1 6.2-8.3 6-2.3-.1-7 .5-15.7 1.8l-3.3.5v17.8l8.3-.5c4.5-.3 11.2-1.4 14.9-2.5 3.6-1 7.5-1.9 8.5-1.9 1.1 0 3.2-1.3 4.7-2.8 2.4-2.6 2.5-3 1.1-4.2-1.3-1.1-2.6-1.1-6.7-.1-5.3 1.2-6.5 1-5.3-.8.3-.6 2.3-1.1 4.5-1.1q3.8 0 4.4-1.6c.5-1.4.8-1.4 2.3.1.9 1 2.6 1.5 4 1.2 1.9-.3 2.7.1 3.3 1.9 1.1 2.8 2.2 3 5.6.7 2.1-1.4 3.1-1.4 5.8-.5a27 27 0 0 0 8 1.2 60 60 0 0 1 20.8 5.9c2.4 1.1 7 2.8 10.2 3.8 3.3 1 6.2 2.4 6.4 3.2q.7 1.6-1.9.7c-1.3-.3-5.5-.9-9.4-1.2-3.8-.3-9.1-1.3-11.6-2.1-7.7-2.6-10.9.6-4.6 4.6 2.7 1.8 2.9 2.1 1.1 2.1-1.2 0-3.2.8-4.4 1.8l-2.2 1.8 2.6 1.7c1.5 1 3.2 1.4 3.9 1s3.2-.8 5.7-.8c4.1 0 4.5-.2 4.8-2.5q.6-6.2 9.5-3.8c2.9.7 6.3 1.8 7.6 2.4 1.3.7 3 1 3.7.7 2-.7 2.7-3.9 1.4-6.3-1.7-3.2-.9-3.3 4.6-.4 3.4 1.8 7.6 2.8 13.4 3.5 11.5 1.2 18 2.1 18 2.3l-5.1 10.5c-5.1 10.1-6.5 16-4.2 16.8 2 .7 18.3-35.1 18.3-40.5 0-3.4 1.5-4.4 5.4-3.7 3 .6 3.6 1.1 3 2.7-.4 1.5.2 2.2 3.6 3.5 3.7 1.5 4 1.8 2.1 2.5-2.7.9-2.7 2.5-.1 3.3 2.1.7 2.8 2.5 1 2.5a1 1 0 0 0-1 1q.2.9 1.8 1c2.7 0 3.4 1.1 1.6 2.4-1.2.9-1.3 1.7-.5 4s.8 3.2-1.1 5.6c-1.3 1.6-3.1 2.9-4 2.9-2.8.1-3.1 2.1-.7 4.8 2.2 2.4 2.2 2.5.4 1.8-3.2-1.2-8.8-1.1-9.2.2-.3.7.7 1.5 2 1.8a12 12 0 0 1 4.6 3.1c1.1 1.3 2.6 2.4 3.2 2.4 1.4 0 .7 7.2-.8 7.7-.7.3-1.5-.8-1.9-2.4-.9-3.8-3.1-6.1-8.1-8.4-4.5-2-8.8-2.5-9.8-1-.7 1.2 2.2 4.1 4.1 4.1s1.8 1.6-.1 2.4c-1.3.5-1.3.9-.3 2.5 1.8 2.9.2 3.8-2.5 1.4-3-2.7-8.2-3.7-9.7-1.7-2.7 3.1.8 13.4 4.5 13.4 1.7 0 2.5 2.3 1.5 4.1-.5.7-2.1 1.4-3.6 1.4q-5.2.5-1.8 3.9 1.6 1.6 3.7 1 2.3-.9 1.4 1.1c-.4.9-.7 2.1-.7 2.6 0 1.4-3.4-.3-6.2-3.3-4.4-4.7-5.9-3.4-3.7 3.1.8 2.3 1.7 3.1 3.5 3.1 2.4 0 3.2 1.4 1.4 2.5s-1 4.2 1.6 5.5c3.5 1.9 7.8-.6 8.2-4.9.3-3 .4-3 2.6-1.6 2.1 1.4 2.5 1.4 3.6 0s.9-1.9-.9-3.8c-2.8-3-2.7-4.4.8-9.9s8.6-9.5 13-10.4c5.4-1.1 6.9-5.3 7.5-21.1q.2-5 1.9-7.1a4 4 0 0 0 1.1-4.6c-.5-2-.1-3.3 1.4-4.9 1-1.2 2.2-2.9 2.4-3.7q.4-1.5 4.2-1.2c3.2.3 3.7.1 3.4-1.5q-.4-1.7-3.1-2.1c-1.5-.2-2.5-.8-2.2-1.3 1.3-2.1 23.5-.2 23.5 2 0 .5-2.2.6-5 .3s-5.7-.2-6.6.2c-2.8 1.1 0 2.9 4.9 3.1 2.4.2 5.4.8 6.6 1.5 6.8 3.6 15.2 4.2 12.4.8-.9-1-.3-1.3 3.3-1.3q7.1-.1 2.3 3.9c-1.7 1.4-2 2.5-1.5 5.5.3 2.1.2 5.2-.4 6.9a24 24 0 0 0 0 8.5c.8 5.3-.2 15.1-2.1 19.9q-1 2.6 0 4.5c.7 1.4.6 2.7-.5 4.9a10 10 0 0 0-1 6.3c.4 2.7.2 3.4-1.4 3.8q-3.7 1-.1 5.4c1.6 2 2.1 2.1 3.5 1 .9-.7 1.6-2.2 1.6-3.3q.1-1.6 1-1.3c.6.3.7 1.7.4 3.1-.8 3 1.9 4.3 4.4 2.2.9-.9 2.8-1.8 4.2-2.1l4.8-1.2q2.4-1 1.6.8c-.5 1.5 4.4 4.7 7.3 4.7q2.9-.1-.9 3.1c-3 2.4-3.8 2.3-6.7-.6-4.6-4.9-12.8-1.8-15 5.7-1.3 4.2-1.3 4.3 1.8 6.9q6.1 5-.5 4.9a15 15 0 0 0-5.6 1.1q-1.8 1-2.5.5c-.3-.2 1.1-1.2 3.1-2 4.3-1.8 4.8-4.7 1-6.5q-2.6-1.2-2-2.7c.8-2.1-1-5.1-3.5-5.9-2-.7-2-.8-.3-2.6s1.6-2.1-1.2-5c-2.6-2.7-3.4-3-7.3-2.6-5.8.6-7.6 2.7-7.6 8.5 0 4.5-.1 4.7-3 5-5.6.5-7.4 1.2-8 3.3a4 4 0 0 0 .6 3.5c1.5 1.9-.1 3.7-2.7 3.2-2.8-.5-3.1-5.9-.4-8.3 1.1-1 2-2.6 2-3.5 0-2.1-3.1-5-5.3-5q-1.5-.2-1.9-2.3a3 3 0 0 0-2.4-2.5c-2.6-.4-3.8 2.2-2.3 5 .9 1.6.7 2.3-1 3.5-1.2.8-2.1 2.3-2.1 3.3q0 1.9-2.5 2.2c-2.9.3-3.4 1.8-1.1 3.3q1.6 1 3.4-.2c1.4-.8 2.3-.7 4.1.6 1.9 1.4 2.1 2.1 1.2 4.4-1.3 3.4-2.3 3.4-5.6.1-2.1-2.1-3.2-2.5-5.8-2a13 13 0 0 0-4.9 2.2c-1.6 1.5-1.9 1.5-4.3 0-2-1.3-2.9-1.4-4.4-.5-4.7 3-6.7-2-3-7.1 2.1-2.8 2.1-3 .5-5.5-2.1-3.3-4.1-4-6.9-2.7-2.2 1-2.2 1 .6 2.1 3.2 1.2 3.5 3.6.8 5.1-1.7.8-2 .6-2.3-1.3-.4-3-4.8-3.8-4.8-.8q0 1.8.9 2.6c1.6.9 1.1 8.5-.6 8.5q-1.3-.2-1.2-1.7c.2-1-.1-3.3-.5-5q-.7-3.5-2.8-3.3c-1.6 0-1.9.5-1.6 2.5q.5 2.4-1.3 4.1t-2.2 1.3l-2-3.1c-1-1.6-2.2-2.8-2.7-2.8-1.3 0-1.3 6.7 0 7.5 1.8 1.1 1.1 2.5-1.3 2.5-2.7 0-5.7 2.8-5.7 5.3q-.2 1.5-1.5 1.7c-1.5 0-2.1-3.1-.8-4.3.3-.4.7-3.1.8-6.2.1-3.9-.3-5.6-1.3-6q-3-.9-3.2 2.4 0 1.9-3 2.3l-3 .5.6-4.7c.7-5.4-.7-7.2-2.9-3.9-.8 1.1-1.8 1.6-2.1 1.1s.4-2.2 1.5-3.6c1.2-1.5 1.9-3 1.5-3.3q-.4-.7 1-2.4c1.5-1.7 1.7-1.7 4.5.3 1.6 1.2 4.4 2.2 6.4 2.2 1.9.1 3.5.6 3.5 1.2 0 1.6 2.8 2.5 3.6 1.2s-5.5-6.7-8.1-6.8q-6 .2-1.5-6.4c1.6-2.3 3.2-5.5 3.6-7.1s1.8-4.5 3.2-6.4c1.3-2 2.8-4.5 3.3-5.6 2.1-4.4 3.6-6.4 7.9-10.4 3.2-3 4.1-4.4 3.3-5.2q-2.4-2.4-8.4 5.5c-2.9 4-3.8 4.5-6.2 4-3.3-.7-4.6 1.6-2.8 5 1.1 1.9.9 2.8-.9 5.9q-3.2 5.3-8.5 3.6a21 21 0 0 0-4.7-.1c-3.3.1-3.8-.1-3.8-2 0-3.2 4.9-12.8 6.5-12.8 2.1 0 1.8 1.8-.5 3.2-3.1 2-2.5 4.7 1.5 6.4 1.9.7 3.8 1.4 4.4 1.4 1.6 0 2-6.4.5-9.4-.8-1.6-1.4-4.2-1.4-5.7 0-4.4-3.3-6-9.1-4.7q-8 1.8-7.9-1.9c0-.9-1-2.7-2.2-4-2.3-2.5-1.8-4.4.7-2.3 1.2 1 1.6.9 2.1-.3a5 5 0 0 0-.5-3.5c-.9-1.8-.8-1.9 1.2-1.5 1.2.3 2.8 1.3 3.5 2.2q1.2 1.8 2.9.5 1.5-1 2-2.1c.6-1.6-6.5-5.6-8.8-5-1.1.3-3.3-.2-4.8-1.1-2.6-1.5-3-1.5-5.5.1-1.5 1-2.4 2.2-2.1 2.7q.4 1-1.7 1.9c-3.3 1.2-4.8 3.3-5.5 7.5-.4 2.8-.2 3.7 1.2 4.2q1.5.5 2.5-.6.7-1.2 1.4-.1c1.4 2.2 3.5 1.1 3.8-2.2.3-3.2.3-3.2 1.6 1.3l2.2 7.2q1.7 6-4.6 1.3c-2.9-2.2-4.3-2.6-7.1-2.2q-3.5.6-5.8-.9c-2-1.3-2.4-1.3-3.4 0-1.4 1.7-.7 3.6 1.3 3.6.7 0 2.1.9 3.1 2q1.8 2 5.5 2c4.2 0 8 3.3 8 6.8 0 1.9-.4 2.1-2.4 1.6-3.1-.7-4.1 1-2.2 3.8a9 9 0 0 1 1.6 4.1c0 .9.7 2 1.5 2.3.8.4 1.5 1.8 1.5 3.2v2.5l-2.6-2.8c-2.3-2.5-2.7-2.6-4.1-1.2s-1.3 1.9 1.6 5.5c2.5 3.3 2.8 4.1 1.6 4.6s-1.4 1.4-.9 4.3l.7 3.8-2.6-2.4a11 11 0 0 0-6.7-2.6c-3.4-.3-4.6.2-7.5 2.9-4.2 4-4.3 4.9-1 7 1.4.9 2.5 2.3 2.5 3.1 0 2.5-6.9 4.7-13.9 4.3-7-.3-9.4 1.4-4.6 3.2 2 .8 2.5 1.5 2.3 3.7-.3 2.4 0 2.8 1.9 2.6q2.2-.2 3.4 1.8c.8 1.7 1.7 2 4 1.5 4.3-.8 3.8 1.8-.6 3.1-2.8.9-3.8.8-5-.3a6 6 0 0 0-3.8-1.7c-3.3-.3-8.7-6.8-8.7-10.3q0-7.3 3.3-7.2c5.2-.1 10.7-2.3 10.7-4.3 0-.5-1.1-1.5-2.4-2.4-2.1-1.4-2.6-1.4-5.2 0-3.7 1.9-4.5 1.9-8.9-.2-3.9-1.9-4.4-3.7-1.8-6.6 1.7-1.8 1.7-2-.6-3.8q-4.4-3.6-8.1.1c-2.4 2.4-2.5 3.8-.6 5.9.8.9 1.7 2.9 2.1 4.6q1 4-.9 1.1c-1.1-1.3-2.4-1.7-5-1.4-3.3.4-3.4.2-3.9-3.2a23 23 0 0 0-1.1-5.2q-1-1.8 1.7-2.7 5-2.1 6.2-9.2c.5-3.3.2-3.8-4.1-7.2q-7.9-6.1-12.3-3.7c-1.7.8-2.1.8-2.1-.3 0-.8.7-2 1.5-2.7 1.4-1.2 1.4-1.5 0-3-2.1-2.3-2-4.4.3-3.5 3.1 1.3 6.2 1.8 6.2.8 0-.5-.7-1.9-1.6-3.2-1.2-1.7-2.2-2.1-4-1.7-2.2.6-2.4.3-2.4-2.8 0-2.6.5-3.6 2.1-4.1 2.5-.8 1.9-3.1-.7-2.7-4.2.8-4.1-.2-4.8 35.7-.2 16 0 20.4 1.1 22.2q1.4 2.1.8 5.6a44 44 0 0 0 0 17.3c.5.8 2.5 1.6 4.3 1.9s4.7 1.3 6.5 2.5l3.2 2.1-7-.6a29 29 0 0 1-8.2-1.7q-1.4-1.3-1.3 1.5c0 2.3.4 2.6 5.3 3.1l19.2 2.1c31.6 3.4 59.6 3.7 257.5 3.1l205.8-.6H500v-2.6q0-2.3-1-1.9c-1.4.8-1.3-.8.1-2.2 2-2 .3-4.1-3.3-4.2l-5.7-.3c-1.3-.2-2.6.2-2.8.8-.6 1.8 2.5 4.4 5.2 4.4 5 0 3 1.5-2.1 1.6q-5.5.2-5.4-1.1c0-2.1-3.3-2.8-4.6-1-1.2 1.6-14.1 1.8-104.2 1.5-4.6 0-8.1-.4-7.8-.9s2.5-.7 5-.5c5.7.4 7.3-1.2 6-6.4-.7-3-1.3-3.7-3.4-3.7q-2.7-.1-2.4 2c0 1.7-.5 2-2.9 1.7-2.5-.4-2.8-.2-2.5 1.9q.2 2.2-.9 2.5l-2.4.3q-1 .2-.6 1.5.6 1.3-2.6 1.8c-1.8.3-32.2.6-67.7.7l-64.5.2-2.2-2.9-2.2-2.9 4-1.3c3.6-1.2 4.4-1.1 8.9 1 4.4 2 5.2 2.1 8 1 2.6-1.1 3.3-1.1 4 0q.8 1.2 4.1.6a35 35 0 0 1 6.2-.6c1.6 0 3-.6 3.3-1.5.5-1.3.9-1.3 2.7 0q2 1.5 5.8.9c2-.3 4.5-.1 5.6.4 2.9 1.6 12.1-1.6 12.5-4.3.2-1.1 1.4-2.5 2.7-3.1a9 9 0 0 0 3.1-2.5q.9-1 2.6-.5c1.8.7 1.8.9-.4 2.6-2.9 2.4-2.8 3 .6 3 3.1 0 6.2-2.7 6.2-5.3 0-.9-1.1-2.4-2.5-3.3-2-1.3-3.3-1.4-6.5-.6-4 1-4 1-4-1.9q0-2.8 1.9-3.9c2.8-1.4 3.5-1.3 4.6 1.2 1.5 3.2 4.3 4.7 5.5 2.8.5-.8.7-2.4.4-3.5-.4-1.7 0-2.1 2.2-2 1.5 0 2.9-.6 3.1-1.2.6-1.7-2.2-2.7-4.4-1.7-2.7 1.1-7.3 1-7.3-.2 0-.6-.9-2.3-2.1-3.8-2.7-3.4-2.3-9.1.6-9.1q2 0 2.3 2.2c.5 3.2 2.8 4.9 4.7 3.3 1.8-1.5 2-4.6.3-5.4q-1.3-.5.6-1.7c1.1-.7 3-2.3 4.3-3.7 2.6-2.9 4.1-2.4 2.2.6-1 1.7-1 2.3 0 3.6 1.5 1.8 8.6 2.2 9.6.6.4-.6 2.2-1.7 4.1-2.5 5.9-2.4 3.8-8.9-3.1-9.7-3.6-.4-4.6-3.3-1.6-4.3 4.8-1.5 4.6-8.8-.2-10-2.7-.7-10.3 1-11.2 2.5-1 1.7.5 4.9 2.6 5.5q4.1 1.5-1.2 5.6l-3.1 2.2-2.7-2.1a50 50 0 0 0-6.5-3.6c-2-.8-3.6-1.8-3.6-2.1q.2-.4 1.9.5c3 1.6 5.1-1.1 4.4-5.6-.5-3-.3-3.6 1.6-4.1 1.1-.3 2.1-.9 2.1-1.4 0-1.8-3.1-2.1-5.5-.5q-2.7 1.9-1.9.2c.8-2.1-1.4-2.9-3.9-1.4-2.2 1.4-9.2 1.7-10.4.4s-5.3-.6-5.3.9c0 1.8 3.4 3.7 5.3 2.9q1.4-.4 1.9 1.4c.5 1.9.4 1.9-5.1.2-9.9-3-20.2-10.9-20.7-16-.6-5.6-.4-9.7.9-18.7.8-5.6 1.8-10.6 2.1-11.2q.7-1 3.4-.1a82 82 0 0 0 11.2 1.4c11.9.8 16 1.6 16 3.2q0 1.3 5.3 1.6c2.8.2 5.1.7 4.9 1.3s-2.1.8-4.5.5c-7.7-.9-29.2-.6-29 .5.3 1.9 7.3 2.8 11.4 1.6 3-.9 4.4-.9 6.1 0 1.3.7 4.6 1.8 7.3 2.5s4.1 1.3 3 1.3c-1.1.1-2.7.6-3.5 1.1-2.7 1.8 1 3.1 7 2.4 3.4-.4 8.4 0 13.2 1l8.5 1.7q.4 0-1.5 1c-1.3.5-2.2 1.5-2 2.1.3.9 4.2 1.5 12.6 1.9 13.2.7 28.2 2.7 28.2 3.8q0 .7-1.2 1.9c-.8.8-.5 2 1.3 4.7 1.3 1.9 2.8 3.5 3.2 3.5q.7 0 .2 1c-.3.5-1.5 1-2.6 1s-2.2.7-2.6 1.5c-.8 2.2.4 3 2.1 1.6.8-.7 1.9-1 2.4-.7s5.8.8 11.8 1.1 13.2 1.3 16.1 2.1c2.8.8 6.2 1.4 7.5 1.4s3.2.7 4.2 1.5a9 9 0 0 0 4.4 1.5c2.4 0 2.4.1.9 1.8-1.3 1.4-1.4 2.1-.5 3 1.9 1.9 4.8 1.5 4.8-.7 0-1.1.4-2.3 1-2.6 1.3-.8 20.5.6 22.1 1.6 1 .6 1 1.1-.1 2.3-2.2 2.7-.4 3 7.6 1.1 7.2-1.7 8.4-1.7 24.7-.1a639 639 0 0 0 25.5 1.9l8.2.2V730h-2.6c-1.5 0-3.2.7-3.8 1.6-.9 1.2-2.1 1.4-5 .8-3.2-.5-3.6-.8-2.1-1.6q1.7-1 1.1-3.3c-.7-2.7.4-3.2 7.3-3.3q6.6-.1 4.7-1.9a44 44 0 0 0-17.9-.4c-2.6 1-2.8 1.4-2.2 4.4.7 3.1.7 3.1-1.1 1.6-1.1-.9-3.3-2-5.1-2.4-2.7-.5-3.1-1-2.8-3.4.4-3.2-.2-4.4-3.2-6-3.8-1.9-7.2-1.4-8.3 1.4-.9 2.4-1.2 2.5-11.2 2.5q-10.4 0-13.1 1.5c-1.5.8-3.4 1.2-4.2.8q-1.3-.4-1.5.6-.2 1.3-1 1.1t-1-1.8q-.1-1.7-3.2-3c-2.7-1-3.6-.9-6.5.8q-6.4 3.9-9.6-.1c-2-2.2-3.9-2-9.5 1.2-4.4 2.5-6.7 2.4-7.9-.4-1.7-3.6-6.9-2.5-9.5 1.9-1.1 1.9-3 3.6-4.2 3.9-5 1.1-6.6.9-7.8-.8-1-1.3-4.2-2.1-12.8-3.2-12.8-1.7-17.2-2.9-19.1-5.1-2-2.5-8.2-5.2-12.9-5.8-3.9-.4-9.3-3.6-6.2-3.6q1.1.1 1.2 1t2.1-.2q2.4-1.5 2.6-.1.4 1.5 1.9-.2c1.2-1.2 4.7-1.3 19.3-1a263 263 0 0 1 32.1 2q9.5.5 10.2 2c1.4 2.5 19.1 3.1 74.7 2.6 15.9-.1 18.5.1 19.5 1.5.9 1.2 3.5 1.7 9.9 2.1 7.6.5 8.7.4 8.7-1.1 0-1.2-1-1.6-4.5-1.6q-4.4 0-6.2-1.9c-1.6-1.6-4.1-1.9-21.8-2.5-22-.7-31.5-1.5-31.5-2.7 0-.4 3.5-1 7.8-1.4 14.7-1.4 15-4.7.3-4.6-5.3.1-14.8-.3-21.1-.8-15.5-1.3-45-1.4-45-.2 0 1.9 2.2 2.2 16.9 2.4 11 .2 15.3.6 16.5 1.6q1.8 1.6 2.8.3c2.1-2.1 8.1-1.3 12.2 1.6 4.8 3.3 6 5.8 2.5 4.9a146 146 0 0 0-18.1-.7c-13.1 0-15.8-.2-15.8-1.4 0-2.2-1.1-2.6-10.7-3.1q-20.1-1.1-20.3-2.5.2-.6 1.8-.4c.9.3 3.5.1 5.7-.5q3.5-.8 2.3-1-1.7-.3-2.8-2.1c-1.1-2.1-.9-2.2 13.5-5.9 5.5-1.5 6.2-1.4 6.8 1q.6 2 1.9 1.3c.7-.5 4.2-.9 7.8-1 3.6-.2 8.8-.8 11.5-1.4 2.8-.6 8.2-1.3 12-1.4 3.9-.2 9.5-.6 12.5-1.1 8-1.1 5.2.9-4 2.9-4.8 1-9.3 1.4-12.5 1-3.9-.5-4.8-.4-3.8.6 2.1 2.3 17.1 1 27.6-2.4 11.6-3.8 20-4.5 37.2-3.2l9.3.6q1 0 1.2.7c0 .5-4.2.9-9.4.9-6.8.1-10.3.6-12.7 1.9l-7.1 3.7c-3.8 1.8-5 3.8-2.5 3.8.8 0 3.4-1.1 5.8-2.5 7.8-4.4 9.2-4.7 21.7-4.7 7 .1 12.2-.3 12.2-.9q0-.8-1-.9t-1-1.4c0-2-2.3-2.6-9.5-2.6-4.5 0-6.6-.4-7.6-1.6-1.1-1.4-2.5-1.5-8.9-.9-4.1.4-11 .9-15.3 1-4.2.2-10.7.8-14.5 1.5-7.8 1.3-22.3 1.9-21.7.9s8.9-2.9 12.6-2.9c1.8 0 5.2-.9 7.5-2 5.6-2.8 18.7-3.6 30.4-2 5 .6 9.4.9 9.8.6 2-2.1-10.2-7.5-22.8-10-10.9-2.3-13-2.8-13.4-3.5-.8-1.2 10.7-.4 18.3 1.3a72 72 0 0 1 14 4.7c3.7 1.7 9.5 3.5 13.1 3.9 3.6.5 7.3 1.2 8.3 1.6q1.6.4 1.7-.5c0-1.5-4.3-3.1-8.1-3.1a38 38 0 0 1-10-3c-3.8-1.7-11-4-16-5a103 103 0 0 1-9.9-2.5c-.4-.3-8.8-.8-18.7-1.1-19.9-.6-27.5-1.1-31.5-2q-2.7-.5-2.8.4.2 2.3 8 2.8c16.3 1 29 2.1 26 2.3-1.9.1-4.2.6-5 1.1-1.8 1.2-2.2 1.1 7.4 1.6 4.4.2 8.4.8 9 1.4s2.6 1 4.5 1c4 0 12.8 2.2 15.7 3.8 1.5.9 0 1.1-6.8 1.2-7.4 0-8.6-.2-8.2-1.5 1-2.5-14.1-2-21.9.6a57 57 0 0 1-9.2 2.5 46 46 0 0 0-16 3.2c-1.6.8-3.3 1.9-3.6 2.4-.9 1.4-7.6 2.7-13.4 2.8-2.7 0-9.7 1.4-15.4 3-11.8 3.4-25.1 4.2-25.1 1.5 0-.7-.8-1.9-1.7-2.4-1.9-1.1-2.2-1 6-1.6 3.9-.3 4.4-1.2 1.9-3.8q-2.2-2.2-3-1.1c-.4.6-5 1.4-10.2 1.8s-13.4 1.6-18.2 2.7c-9.5 2.1-18.8 2.5-18.8.9 0-.6 1.5-1 3.3-1.1q8.2-.3 7.9-3.3-.2-1.8 1.7-2.3 2-.6 2.1-1.5-.2-1-5.7-.3c-8.4 1-11.1 1-28.2.1-15.1-.9-15.3-.9-14.7 1.1q.7 2.1-.9 2.7c-2.1.8-6.5-.3-6.5-1.5 0-1.9 3.3-6 4.5-5.5.7.2 7.3 0 14.6-.5 7.4-.6 18.4-1 24.6-.9 8.3.1 12.2-.3 15-1.5 5.8-2.5 22.3-5.3 22.3-3.8 0 1.1-8.8 3.3-13.1 3.3-1.6 0-2.9.4-2.9 1q.1.9 1.5 1c3.3 0 1.3 1.8-2.6 2.3-4.5.6-5.4 1.1-4.5 2.5.3.5 2.1.6 4.3.1l11.8-2.4c4.4-.9 9.6-2.5 11.7-3.5s5.4-2.2 7.5-2.5a96 96 0 0 0 22.8-12.5c2-1.7 10.2-6.2 14-7.6 1.8-.7 1.7-.8-.8-1.2-2.7-.3-10.6 3.6-18.6 9.4a22 22 0 0 1-6 3c-1.4.4-5.3 1.9-8.6 3.5s-7.7 3.2-9.7 3.5c-3.1.5-3.6.4-3.5-1.2.2-1.5-.6-2-3.3-2.3-3.3-.5-3.2-.5 1.5-1 4-.5 4.9-.9 4.7-2.4q-.3-1.8 1.9-1.7c3 0 15.6-6.2 20.4-10 2.2-1.8 6-4.2 8.5-5.5s6.7-4.6 9.3-7.4 5.7-5.5 6.8-6.1c2.6-1.5 4.5-.3 14 9 6.9 6.6 10 8.3 11.4 6 .9-1.5 10-.1 16.5 2.5 9 3.7 31.7 7.8 39.2 7.1a58 58 0 0 1 17.6-.4q3.4 1 3.2-.7c0-2-9.2-2.9-17.2-1.6-9.7 1.6-24.8-1.1-44.3-7.8-3.3-1.2-9-2.4-12.7-2.7l-6.8-.6-6.8-6.8a35 35 0 0 0-9.5-7.5q-6.5-1.7-14.1 7c-3 3.5-6.9 6.6-10.5 8.5a59 59 0 0 0-8.9 5.4c-6 5.2-16.2 9.3-24.4 10-4.3.4-11.7 2-16.5 3.5-9.1 3-15.4 3.6-47.3 4.3l-11.5.3.4-11.1c.2-9.1 0-11.2-1.3-12.3-1.7-1.5-1.8-.9 2.1-17.6a200 200 0 0 1 10.6-37c1.4-3.4 2.3-8.9 2.8-17.5 2.1-33.1 2-32.5 7.9-33.3 9-1.2 11.9-5.7 10-15.2-.7-3.3-1.5-12.8-1.7-21-.2-8.3-.8-16.4-1.2-18-1.1-4.4-1.2-25.6-.2-22.5.5 1.4 1.9 9.9 3.1 19 2.4 18.4 4 26.3 6.6 33.2 1.6 4.1 1.7 4.9.4 7.4-.8 1.6-2.3 3.7-3.3 4.7-2.3 2.3-.9 4.2 2.1 3.3 3.1-1 7.2-5.6 7.2-8.1a46 46 0 0 0-3.3-10.2 66 66 0 0 1-4-11.3 622 622 0 0 1-3.9-32.5A141 141 0 0 1 301 449c-.6-8-1.6-16.3-2.1-18.5-3.9-15.2-4.5-21-3.9-37.5.3-9.1.3-17.1-.1-17.9s0-3.3.9-5.5c1.2-3.2 1.5-7.5 1.4-19.1-.1-8.2-.5-15.8-.8-16.8-.6-1.8-.4-1.8 2.2.2 3.4 2.4 11.7 3.1 15.1 1.3 2.9-1.6 5.3-5.1 5.3-7.7 0-1.2 1.8-3.8 4.3-6.1 6.4-5.7 8.6-12.4 10.3-31.4.8-8.5 1.5-17.7 1.5-20.4.1-2.8.9-6.5 2.1-8.7q3.6-7-1-7.7-2-.4-2.2-1.9c0-1.2.8-1.4 3.3-1 5.4.8 6.7-.6 6.7-7q0-5.7-1.7-7.5c-1.5-1.7-1.5-2 .9-4.6 1.3-1.5 3-4.6 3.7-7 1.5-5.4 5.1-7.7 13.3-8.6 7.2-.7 10.1-2.8 12.9-9.4 1-2.4 3.3-6.4 5.1-8.9a17 17 0 0 0 3.4-10.1c.4-7.5-.8-10.4-4.1-9.6-4 1-3.1-1.8 2-5.6 20.3-15.2 22.4-47.8 4.3-67.5a49 49 0 0 0-37.3-16 43 43 0 0 0-26.4 7.6 38 38 0 0 0-14.7 17.7 47 47 0 0 0 9.9 55.9l4.9 5.1-2.2 1.9c-12.9 10.5-14.1 11.9-16 20.1-.6 2.9-2.3 6.8-3.6 8.8s-3 5.9-3.6 8.7c-1.2 6.1-3.4 10.7-4.9 10.7-.6 0-3.2-1.7-5.8-3.8a40 40 0 0 0-8-5.2l-3.3-1.3.6-6.4c.4-3.5 1.1-7.5 1.6-8.9 1.3-3.2 1.3-28.8.1-36.8-1.6-10.2-3-22.5-3.9-34.8-.7-9-1.5-12.5-3-15a64 64 0 0 1-3.8-6.7 43 43 0 0 0-18.1-14.2 80 80 0 0 0-38.8-5.2M366.9 97a42 42 0 0 1 24.1 31.9c1.6 8.4.1 19.1-3.7 26.8a51 51 0 0 1-23.9 21.3c-7.6 3.1-8 3.2-10.7 1.6-2.2-1.2-3.3-1.3-4.9-.5q-5 2.7-18.5-4.1a42 42 0 0 1-23.3-27 31 31 0 0 1-1.7-14.5 36 36 0 0 1 7.3-21.5c5.2-8 7.3-10 14.9-13.9a40 40 0 0 1 23.8-4.6c8 .4 9.7.9 16.6 4.5m-145.4 20q.4.9-.9 1-1.8 0-2.1-1t.9-1q1.8 0 2.1 1m-5.5 1c-.8.5-2.2 1-3 1q-2 .2 0-1c.8-.5 2.2-1 3-1q2-.2 0 1m-94.5 2q.4.9-.4 1-1-.1-1.1-1 0-1 .4-1t1.1 1m125 2q.4.9-.4 1-1-.1-1.1-1 0-1 .4-1t1.1 1m-25 3c.8 1.3 6.1 1.3 8.4 0 2.6-1.4 11.1 1.6 15.7 5.6l3.9 3.3-3 2.5c-2.9 2.3-2.9 2.5-1.7 7 .6 2.5 1.5 7 1.8 10.1.7 5.9 2.7 7.4 4.3 3.2.8-2 1-2 1.6-.4.8 2 .4 5.7-2 15.2-2.9 12.1-2.7 11.8-9.3 11a42 42 0 0 1-18.4-5.2c-3.6-2.5-5.8-2.4-5.8.1 0 .7 3.1 3.4 6.9 6 8.9 5.9 12.1 9.7 12.1 14.2q0 3.4-1.5 4.1c-2.5.9-4.7 6.1-4 9.4q.8 3.1-.8 2.9c-1.9 0-4.1-6.3-3.3-9.5.5-2-.2-2.9-5.2-6.2a42 42 0 0 0-17.4-7.3c-2.4 0-2.3-2 .4-9.3l2.2-5.9-2.2-1.7q-2.2-1.6-1.6-3.7.7-2-2-3.2-4.4-1.8-1.1-7.8c.8-1.6 1.5-4.2 1.5-5.8 0-2.3.4-2.7 2-2.3 3.6.9 5.2-1.5 6-9.4q1.2-12.8 6.5-14.9a10 10 0 0 0 3-1.9c.8-1.4 2.2-1.4 3-.1m30 16q.3.9-1.4 1-2-.1-2.1-1 .1-1 1.4-1c.8 0 1.8.4 2.1 1m-.7 5.8c.6 1.8-1.5 1.4-2.2-.4q-.5-1.5.6-1.2c.6.2 1.4 1 1.6 1.6m-117.3 10c-.3.3-1.6-.5-2.8-1.7l-2.2-2.3 2.8 1.7c1.5 1 2.5 2 2.2 2.3m31.9 12.2 3.1 3.5-3-2.5c-4.2-3.5-5.5-5.1-5.5-6.9q0-1.8 1.2.4c.6 1.1 2.5 3.6 4.2 5.5m14.1 4q.4.9-.4 1-1-.1-1.1-1 0-1 .4-1 .6 0 1.1 1m140.4 7.2c-.7 1.3-3 4.4-5.2 7-4 4.8-4.4 7.3-1.5 9.2 2.2 1.4 7.5-.4 14.5-4.9 2.8-1.9 6.6-4.1 8.5-4.9 4.1-1.9 9.3-4.9 11.3-6.6q1.5-1.3 1.5-.1 0 1-.9 1.1c-1.5 0-20.1 19.2-19.5 20.1.7 1.3 3.4 1.1 3.4-.2 0-2.2 12.5-14 16.9-16 2.4-1 4.6-1.7 4.9-1.4.3.2-2.8 3.5-6.9 7.2-11.6 10.6-14.9 14-14.9 15.2 0 .7 4.3-2.7 9.6-7.4s10-8.5 10.4-8.5c2.7 0 .9 2.5-7.6 10.4a71 71 0 0 0-9.4 9.7c0 2.1 2.4.6 9-5.6 4-3.8 7.5-6.3 8.3-5.9 2.8 1 7.5-2 15.5-10.2 9.8-10.1 12.5-10.5 3.1-.6-3.5 3.8-7.2 8-8.1 9.4a8 8 0 0 1-5.3 3.2c-3.6.7-4.6 2.2-2.1 3.2s8.6-2.7 11.6-7c1.5-2.2 4.7-5.9 6.9-8.1 3.6-3.5 4.1-3.7 4.1-1.8 0 1.3-1.4 3.3-3.6 4.9-2 1.5-5.1 5.1-6.9 7.9l-3.3 5.2-8.1.9-8 1 2.1-2.3c2.8-3 1.5-4.3-1.5-1.5l-5.4 4.4-10.5 7.9c-4 3.1-9.5 7.1-12.3 8.9a60 60 0 0 0-9.1 7.7l-4.1 4.5-6.6-4.7-6.7-4.6 2-3.9c1.1-2.2 2-5 2-6.2a33 33 0 0 1 3.1-8.8c1.7-3.6 3.3-8.8 3.6-11.5.6-4.6 1.2-5.6 7.5-11.8q10.8-10.4 7.7-4.5m13.4.3c2 .8 3.7 1.9 3.7 2.3 0 .6-7.7 5.2-17.6 10.5-6.5 3.5-6.6-.2-.1-7.3 2-2.3 4.2-5.1 4.8-6.2 1.2-2.1 2.7-2 9.2.7m35.7 2.1c-1.9 2.2-5.5 4.1-4.5 2.2q2.3-4 4.2-3.8 1.9-.2.3 1.6m-9.5 2.4c-1.7 1.7-3.1 2.6-3.3 2-.5-1.5 2.7-5 4.6-5q1.7 0-1.3 3M250 189c0 2.9-2.1 7-3.7 7-1.9 0-1.6-5 .4-7.2q3.2-3.5 3.3.2m112.5.3c-1.4 2.2-6.5 5.4-6.5 4.1a23 23 0 0 1 7.1-6.4c.5 0 .3 1.1-.6 2.3m12 7.5-2.8 2.7 2.3-3.3c1.2-1.8 2.5-3.1 2.8-2.7s-.7 1.8-2.3 3.3m-163.5.9c5.3 1.8 10 5.9 10 8.6 0 1 .5 2.8 1.1 3.9 1 1.9.9 2-1.7 1.4-1.6-.4-4.2-1.6-5.9-2.7-5.8-3.7-12-6-16.5-6.2-4.3-.2-4.5-.3-4.8-3.5-.3-3-.2-3.2 2.2-2.6 1.3.3 3.3.1 4.3-.5 2-1.1 4.5-.7 11.3 1.6m34 3.3q-.1.9-1.1 1-.8-.1-.4-1 .6-1 1.1-1 .3 0 .4 1m126.3 1.7c-.2 1-1.6 3.6-3.1 5.7-2.6 3.8-3.1 4.1-11.5 5.7-9.8 1.9-13.1 4-14.3 9.3-.7 3.3-5 10-8 12.7-2.7 2.3-10.7 3.3-13.3 1.7-2-1.2-2-1.4 1.7-5.2q3.6-3.8 2.5-4.3c-3-1.1.1-5 7.8-9.8q6.4-4 10.3-7.4 2.8-2.6 3.3-1.4c.6 1.7 3.1 1.6 6.5-.1 1.4-.8 4.9-1.7 7.8-2.1 4-.6 5.5-1.3 7.2-3.6 2.4-3.3 3.8-3.8 3.1-1.2m-129.3 4c-.1.5-1.2 2.1-2.5 3.8-2.8 3.5-5 2.4-3.9-1.9.5-2.1 1.2-2.6 3.5-2.6 1.6 0 2.9.3 2.9.7m-55.1 13.6c3.6 1.8 9.1 5.2 12.2 7.5 6 4.5 21.7 12.3 28.7 14.1a79 79 0 0 0 22.9.4 48 48 0 0 0 18.6-18c1.2-5.3 1.9-5.6 7.3-2.7 6.6 3.6 7.9 5.2 5.8 7.6-1.4 1.5-1.5 2.2-.4 4.8 1.2 3 1.2 3.2-5.9 10.1a39 39 0 0 0-7.1 8.5c0 2.6 3.8 1.4 5.8-1.9 3.3-5.2 12.6-12.7 15.9-12.7 2.9 0 6 3 7.6 7.2q.6 1.7 2.2 1.2 1.4-.4 1.5.5 0 1.2-.9 1.1c-2 0-7.4 9.5-7.6 13.4-.2 2.9-1 4.6-2.7 6l-4.6 3.8c-1.3 1-1.9 2.4-1.6 3.3.8 1.9-1.7 6-6.2 10.2q-6.2 6-.8 8.5c2.3 1.1 2.9 1 4.6-1.2 1-1.3 1.6-3 1.4-3.7-.8-1.9 1.6-6.2 5.3-9.7q5.2-5 1.4-5.9-2.2-.3 1-1.5c1.5-.7 3-2 3.4-2.9.3-1 1.9-3.2 3.6-5 2.3-2.4 2.8-3.7 2.3-5.7a11 11 0 0 1 .5-5.3l1.1-2.8 1.9 2.4c1.9 2.3 1.9 2.4 0 5-1 1.4-3.9 7.1-6.3 12.6s-7.1 14.5-10.5 20c-3.3 5.5-6.8 11.7-7.8 13.8-2.3 4.9-6.2 6.9-14.7 7.4-7.6.5-8.4-.4-3.8-3.7 3.2-2.3 3.9-4 1.5-4-2.2 0-8.3 5.8-8.7 8.2-.6 3.9-4.7 5.8-15.2 6.9-8.9.9-9.9.8-11.1-.8-1.1-1.5-1.8-1.6-4.7-.6-4 1.5-19.3 1.2-20.8-.3q-1.1-1 .8-2.7c1.6-1.5 2-1.5 4.7-.1 2.3 1.2 5 1.5 11.8 1.1 9.4-.5 11.9-1.5 9.7-4.1-1.4-1.8-1.9-1.5 7.5-4.1 6.3-1.8 9.9-3.9 15.2-8.8 2.4-2.3 3.7-2.8 5.7-2.3 1.4.3 2.8.1 3.1-.5.8-1.2-2.2-4.9-4-4.9-.6 0-3.6 2.2-6.6 4.9-9.1 8.1-12.8 9.6-24.3 9.8-9.8.1-9.9.1-12.3-2.8-1.4-1.6-3.1-2.9-3.8-2.9-2 0-2.7-1.7-1.7-3.7 1.5-2.9 0-5-5.7-8-3-1.5-5.6-3.3-5.8-3.9-.6-1.9 6.1-1.1 7.5.8.7 1 2.4 1.8 3.8 1.8s2.7.7 3 1.5c.8 1.9 4.8 1.9 6.4 0 1.2-1.5.6-3.5-1.1-3.5-.6 0-1.9-1-2.9-2.3-1.5-1.8-2.1-2-3.1-1q-3 3-2.1-1.2c.6-3.3-2-4.3-5.3-2.1q-4.3 2.8-4.5-1.3c0-1-.3-2.1-.7-2.4-1-1.1-4.3 2.4-4.3 4.5 0 1-.7 3-1.6 4.3-2.1 3.2-1 4.5 5.5 7.4 6.2 2.6 7.6 4.3 6.1 7.2-1.1 1.9-.9 2.4 1.5 4.3q2.8 2.1 2.3 4.6c-.4 3.3-3.5 3.9-4 .8q-.3-2.3-2.5-2.6-2.1-.4-2.3-1.6c0-.7-1.1-2.7-2.5-4.6a13 13 0 0 1-2.5-5.2c0-2.2 0-2.2-3.6-.3-2.1 1.1-3.1 2.6-4.1 6.6-1.2 4.6-1.2 5.4.3 7.1 1 1 2.6 1.8 3.6 1.8s2.2 1 2.8 2.4c1.5 3.9 3.9 4.2 5.3.6q.5-1.4.6.9c.1 1.4-.6 3.2-1.4 4.1-1.1 1.3-1.3 2.4-.7 4.1 1 2.6.1 6.2-1.9 7.5-2.1 1.2-4.1-2.7-3.4-6.7.5-2.6.2-3.9-.9-4.9q-1.5-1.2-1.6-2.5c0-.8-1.8-2.9-4-4.8q-4-3.3-4.6-6.8a25 25 0 0 0-9.7-14 56 56 0 0 1-14.3-18.3q-1.9-3.7-3.4-3.1-1.7.6-2.8-2c-.6-1.4-1.9-2.5-2.8-2.5q-1.6 0-1-1.6.5-1.5.6-2.3c0-.4 1-1.8 2.3-3.1a9 9 0 0 0 2.2-6.7 18 18 0 0 1 1.5-6.7c1.2-2.3 1.1-2.8-.4-4.5-1.7-1.8-1.7-2 .3-4 1.2-1.2 2.1-2.6 2.1-3.2 0-.5 1.4-1.5 3-2q4.7-1.7 1.9-4.6c-1.1-1.1 2.3-3.1 9.1-5.6 4.6-1.7 12.3-.6 18.9 2.6m109.3 11.9c7.8 4.2 13.8 10.9 13.8 15.5s-3.1 4.2-4.1-.5c-.8-3.8-4.5-8.2-6.9-8.2-.9 0-2.5-.9-3.5-2s-3-2-4.5-2c-3.2 0-5.5-2.3-4.6-4.5.8-2.2 3.2-1.8 9.8 1.7m21.3-.5c-.3 1.6-1.3 3.5-2.1 4.4q-1.5 1.7-.8 4.3c.8 3.3-.9 3.4-2.4.1-1.7-3.6-1.6-4 1.9-8 3.7-4.2 4.3-4.4 3.4-.8m22.3 10.5c-.3 3.1-.6 3.4-5.5 4.3-6.2 1.2-6.8 1.7-5.1 4.5 1.2 1.9 1 2.3-1.4 4.1q-5.4 4.2.2 5.6c1.7.3 3.3 1 3.7 1.6 1.2 2-.1 28.6-1.6 31.4-.5 1-1.4 5-2 8.9-1.5 10.3-3.4 14-8.1 16.4-3.8 2-6.5 5.1-5.3 6.3s-.7 5.4-2.9 6.3c-2.3 1-8.7-.1-10.4-1.9-.4-.4-1.6-.7-2.6-.7-2.7 0-2.2-2.7.9-4.2 3.7-1.8 5-6.8 2.6-10.5-1-1.6-2.4-3.3-3.2-3.9-2.5-1.9-.4-3.4 2.6-1.9 2.3 1.2 3.1 1.2 4.8.1q4.5-3-.5-5.8c-3.5-2-3.9-3.8-1-3.8 4 0 3.6-3.1-.8-6.9-2.3-2-4.2-3.9-4.2-4.3s1.5-.4 3.4-.1c2.5.4 3.5.1 4-1.2.7-2-1-4.5-3-4.5-1.9 0-1.8-2 .2-3.4.9-.7 2-3 2.4-5.2.8-4.2 4.6-17.1 6.2-21.6.9-2.3 1.4-2.6 3.9-2.1 3.1.6 4.2-1.3 1.4-2.3-2.4-1-1.7-2.7.9-2 2.8.7 4-.2 2.4-2.1s-.8-2.2 4.9-1.1c4.6.9 5.5.8 8-1 4.1-3.1 5.5-2.8 5.1 1m-167.9 53.7c1 1.4 2.1 4.4 2.4 6.6q.5 4 3.9 6.9c4.1 3.8 6.9 9.1 7.4 14.1.8 9.6 1 10 3.5 10.3 3.2.4 11.9-7 11.9-10.1 0-2.1.4-2.2 11.9-2.3 10.9 0 11.7.1 10 1.5-1.5 1.4-1.7 2.3-.8 7.6.5 3.3 2 9.6 3.3 14 3.4 11.1 6 22.5 5.3 23.1-1.1 1.1-2.6-.7-5.5-7-3.1-6.7-8.2-25.5-8.2-30.5 0-3.1-2.2-5.7-4-4.6-.5.3-1 2.3-1 4.3 0 4.7 5 24.1 7.8 30.6 2.5 5.6 2.5 5.6 1.2 5.6-2 0-14-27.4-14-32 0-3.6-1.7-4.8-3.8-2.6-1.8 1.7-2 .9 5.7 21.1 5 13.1 4.3 13.3-4.4 1.1-2.2-3.1-4.5-5.6-5.2-5.6-1.8 0-1.6.9 1.2 5.5 1.4 2.2 2.5 4.4 2.5 4.9 0 1.2-9.8-9.6-12.3-13.5-1.1-1.6-2.5-2.9-3.3-2.9-2 0-1.8.4 1.9 6.3 4.8 7.6 5.2 8.6 1.7 4.7-7.6-8.5-16-23.4-16-28.4a10 10 0 0 0-1.9-4.8 53 53 0 0 1-6.7-20.8c-.2-3.3-1-5.9-1.9-6.6a4 4 0 0 1-1.5-2.8c0-1.4.6-1.2 3.5 1 2 1.5 4.4 3.9 5.4 5.3m108.5-6.4q-.7 1.3-1.5.9c-1.4-.8-1-2.4.6-2.4q1.3 0 .9 1.5m11.6 1.9q0 1.4-.7 1.9c-1 .6-.8 14.5.2 25 .5 5.1.3 11.9-.5 19.2-1.3 11-1.3 11.4.8 14q4 4.9.5 16.7l-1.7 5.8-5.1.1c-14.5.2-18.6-.1-31-2.6-2.7-.6-4.2-4.3-6-15-1.9-11-2.1-11.5-4-11.5-2.4 0-2.9 2.7-1.1 5.5q1.5 2.3.6 3c-.7.4-.8 3.6-.4 8.7.6 6.8.5 8-.7 7.5-7.1-2.9-7.5-3.6-10.4-16.2-.8-3.9-2.5-9.9-3.6-13.4-2-6-3-15.4-1.7-16.7a33 33 0 0 1 12.6-2.4c2.4 0 6.7-1.1 9.5-2.4a36 36 0 0 1 16.9-4.6c5.3 0 11.7-3.3 14.1-7.2l5.7-9.6q6-10.3 6-5.8m-100 9.7q0 1.8-1 1.4c-.5-.3-1-1.3-1-2.1s.5-1.4 1-1.4q1 .1 1 2.1m31 8.9c-2 1.3-11 1.3-11 0 0-.6 2.7-1 6.3-1q6.5 0 4.7 1m-24.2 53.3c.5 2.4-1.5 2.1-2.8-.4-1-1.8-.9-2 .7-1.7q1.6.4 2.1 2.1m16.7 5.6c1 1.7 13.6 5.3 19.8 5.7 4.9.3 6.5.8 8.3 2.7 1.2 1.4 3.9 2.8 5.8 3.1 4.5.9 14.6 7 12.3 7.4-.9.2-5.4-1-10-2.7a92 92 0 0 0-9.2-3.1c-1.3 0-13.6-4.9-17.5-7-1.9-1-6.1-2.6-9.2-3.5-3.2-.9-5.8-2.1-5.8-2.6 0-1.2 4.7-1.2 5.5 0m-11 4.1c.3.5 1.5 1 2.6 1s5.7 1.8 10.4 4 9 4 9.7 4c1.6.1 24.5 8.1 32 11.2 3.1 1.4 7.2 3.7 9 5.2l3.3 2.7-4.2-.6c-4.6-.6-12.7-3-15.5-4.5a45 45 0 0 0-20.8-4.6c-10.4-.3-22.2-1.8-27-3.4a76 76 0 0 0-12.7-2.9c-2.1-.2-1.6-4.1.5-4.1q4-.2 4.2-5.3 0-2.6 1-2.2c.5.3 1.8.1 2.7-.4q3.5-2 4.8-.1m69.2 5.5q20.6 1.5 14.9 8.8c-.8 1-1.2 2.6-.9 3.7q.5 1.8-1.7 2.5c-1.7.5-3 0-5.4-2.3a62 62 0 0 0-12.8-7.7c-10.7-5.1-12.5-6.5-7.5-6zm-91.1 18.2c-2 3.7-5.4 11.3-7.7 16.8s-6.1 14.3-8.6 19.5-6.3 15.1-8.4 22-5.8 17-8 22.5l-6.1 15.7c-1.2 3.2-2.4 5.8-2.8 5.8-1 0-5-4-5-5.1a772 772 0 0 0 17.9-41.4 403 403 0 0 1 17.9-41.5c4.8-8.6 13.5-22 13.9-21.6a25 25 0 0 1-3.1 7.3m30.7.8c-.3 3.9-6.3 34.8-8.7 44.8-4.4 18.7-6.5 29-9.6 47.2a342 342 0 0 1-8.7 39.5c-.4 2.4-.9 2.6-6.4 2.8-4.7.2-6.6-.2-8.9-1.8-1.5-1.1-4-2-5.3-2-3.4 0-4.1-1.3-3.9-7.7.2-6 2.2-13.7 11.9-44.3 3.2-10.3 9.2-25.8 9.3-24.1 0 .8-.5 4.1-1.2 7.3-.9 4.4-.9 6.1 0 7 1.9 1.9 4.2-.9 4.2-5.1a149 149 0 0 1 9.4-32.8c2-5.1 3.6-9.6 3.6-10 0-.3 2.6-5.8 5.7-12 4-8.1 6.1-11.3 7.2-11.1q1.5.5 1.4 2.3m25 6q-.2 7 1.5 9.7c1.3 2.3 1.4 3.6.4 9.5-.6 3.7-1.6 10.2-2.1 14.3s-2 13.1-3.4 20-3.1 16.1-3.7 20.5l-1.1 8 2.7 2.3c3 2.6 3 1.7-1.1 19.7-1.4 6-3.1 13.8-3.7 17.2-1 5.1-1.5 6.2-3 6-1.4-.1-2.4 1.2-4.1 5.3-1.8 4.4-2.7 5.6-4.7 5.8a56 56 0 0 0-6.9 1.4c-4.3 1.1-4.3 1.1-7.6-2.8-3.1-3.6-3.4-3.8-6-2.6-1.5.7-3 1.1-3.2.8-1.3-1.2-2.2-9.8-1.3-12.1a405 405 0 0 0 8.5-40c2-11.8 12-56.5 14.1-63.4.2-.7 1.1-1.1 1.8-.8 2.1.8 3.3-1.1 4-6.8 1-7.3 3.6-15.7 5.4-17.8 1.3-1.4 2.8-1.7 7.6-1.5l6 .3zm14.5-2.1c4.2 1.4 8.8 2.7 10.2 3 2.3.5 2.5.9 2.7 7.3l.4 10.3c.2 1.9.1 6.2 0 9.5-.2 3.3-.3 21.1-.2 39.5.1 43.8-.6 65.9-2.5 76.5-.5 2.9-.7 3.1-5.2 2.9-3.5-.2-4.7-.6-5.3-2.2a546 546 0 0 1 3.2-58.5c1-6.3 1-8 0-8.6-1.4-.9-1-5.7 1.6-17.9 1.2-5.7 1.3-7.6.4-8.5-2-1.9-3.7 1.6-4.5 8.8-.9 9.1-1.7 12.5-2.8 12.5q-.8-.2-.4-1.8c.3-.9.8-10.9 1.1-22.2s1-21.9 1.4-23.5c.5-1.7 1.2-5.7 1.6-8.9s1.1-6.9 1.6-8c1-2.4.2 14.5-1.1 23.4-.8 5.3-.6 10.8.4 11.8q.6.3 1.9-.1c1-.4 1.6-3.3 2.1-9.9.3-5.1 1-13.1 1.5-17.8.9-9.4.6-11.2-1.8-10.8-.9.1-2.2-.1-2.9-.6-2.8-1.7-4.4 2.1-6.3 14.6-1 6.7-2.1 19-2.4 27.3-1.1 33.7-2.6 61.5-3.6 69-1.8 13.2-5 29.9-6 31.1-1.6 1.9-5.9 2.3-7.5.7a6 6 0 0 1-1.4-4c0-6.1 3.3-27.6 5.4-35.3 2.2-8 3.3-13.7 7.2-40l2.3-15.4c.8-4.3.6-4.9-1-5.3q-1.9-.5-1.9-2.9c0-1.9.5-2.3 2.3-2.1 2 .2 2.2-.3 2.4-4.3.2-2.5.7-7 1.3-10 .5-3 1.2-9.1 1.5-13.5s1.1-8.7 1.6-9.7c1.7-3.1 1.1-5.1-1.3-4.5-2.2.6-5.8-1.6-5.8-3.5 0-1.2 1.4-1 9.8 1.6m38.2.1c0 1.4-.4 2.5-1 2.5q-.9 0-1-.9l-.6-2.5q-.6-1.6 1-1.6t1.6 2.5m-13.7 6a60 60 0 0 1 9.3 5.7c5.2 3.9 5.5 4.3 3.3 4.8s-2.4.9-2 8c.1 4.1.5 7.9.8 8.3.2.4.3 6.7.2 14-.5 24 .3 78.1 1.1 82.7q.9 4.5-.3 5.2c-1.9 1.2-4.4.9-4.9-.5-.2-.6-.2-17.4.1-37.2.5-46.3.2-82.8-.7-83.7-.4-.4-1.4-.3-2.1.2-1.1.6-1.4 2.9-1.1 10.2.2 5.1.3 17.4.3 27.3l-.2 49.3c-.1 31-.6 36.7-3.6 40.6-1.3 1.7-2 1.8-5.2 1q-3.8-1-3.5-2.4c.5-1.8 1.3-69 1.2-93 0-9.6.5-21.5 1.2-26.3 1.1-8.1 1.1-9-.5-9.8-1.7-1-2.3-4-1-5.2q1.7-1.6 7.6.8m13.2 1.5q.4.9-.9.4-2.7-1.2-.7-1.4 1 0 1.6 1m6.9 40q.6 11.3-.3 9.5a94 94 0 0 1-.7-21.4c.3.2.7 5.6 1 11.9M185 445.7q-1.5 2.5-.6 0l.7-3q0-1.3.5 0c.3.7 0 2-.6 3m108.7 26c-.2 2.1-.4.6-.4-3.2s.2-5.5.4-3.8.2 5 0 7m-57.5 5.5q-1.1 1-1.2.2c0-1.4 1.2-2.6 1.9-1.9q.3.6-.7 1.7m14.5 3q-.5 1.1-.6-.6t.5-1.3q.5.6.1 1.9M296 508c.6 9.6 1.6 19.2 2.1 21.3 1.2 4.6.4 7.9-1.9 7.5-1.3-.3-1.8-2-2.4-7.7-1-12-1.8-48.7-1-49.5.9-1 1.6 5.9 3.2 28.4m-105.6 36c1.2.4 3.4.6 4.8.3q2.7-.5 5 1.6 5 4.6 9.7 1.9c1.6-.8 4.7-1.3 7.9-1.2q5.1.3 5.3-.9c0-.7.5.4 1.1 2.3 1.2 4.2 4.5 8 7 8 2.4 0 2.3 1.5-.6 7.7-1.4 2.9-3.6 9.4-5 14.6-4 14.6-5.3 17.6-9.9 23.1q-8.9 10.6-12.1 18.5c-1.5 3.9-1.5 4.6-.2 5.9 1.2 1.3 1.2 2 0 5.4a60 60 0 0 1-10.8 17.7c-1.4 1.4-2.6 3-2.6 3.7 0 1.9-3.7 3.7-4.5 2.3q-.8-.9-3.8-.3c-1.8.5-6.1.8-9.6.9-6.5 0-9.3 1.7-5.2 3 1.2.3 2.1 1.3 2.1 2 0 .8 1 1.9 2.1 2.6 1.7.9 3.6.6 9.3-1.1a39 39 0 0 0 8-3.1c.6-.5 2.5-.9 4.4-.9h3.5l-5.9 5.5c-4.6 4.3-5.6 5.7-4.6 6.7s1.8.6 4-1.5c1.5-1.5 3.3-2.7 3.9-2.7q1-.2 2.3-1.5c2.8-3.4 1.8-.4-1.6 4.6-3.8 5.7-10.3 9.9-15.3 9.9-1.5 0-3.2.5-3.8 1.1-.8.8-2.4.6-5.7-.5-2.6-.9-5.3-1.6-6-1.6q-1.1-.2-1.2-2.2.1-2.2-2.6-3.6c-3-1.4-4-3.9-1-2.7q6.1 2.6 6.2.1c0-.9-.9-2.1-1.9-2.8-1.8-1.1-1.8-1.3-.3-2.5 1.6-1.2 1.5-1.5-1-3.6-1.6-1.2-2.8-2.7-2.8-3.1q.2-.7 1.5.4 4 3.4 2.5-7.1c-.6-4.1-.6-8.8 0-12.5 1-6.1 6.8-18.7 12-25.9 7.9-10.9 9-16.4 8.9-43.5-.1-17.1.4-32.9 1.1-35 .1-.3.9 1.7 1.7 4.3q1.5 4.8 3.7 5.7m54.1 2.6c-.3 1.9-1 3.4-1.5 3.4-1.2 0-1.2.2.2-6.2q1.3-5.6 1.6-2.9a19 19 0 0 1-.3 5.7m37.5 1.7a219 219 0 0 0-1.4 21.4c-.5 15.9-.9 18.8-2.9 24A117 117 0 0 0 270 620c-1.6 7.4-3.8 16.6-4.9 20.4a71 71 0 0 0-2.3 10.8l-.2 4.1-11-.7c-11.5-.8-15.2-1.8-20-5.8-2.5-2.1-3.1-3.6-4.2-10.8-1.7-10.4-.7-14.7 5.3-24.8 6.8-11.2 10.1-22.7 6.4-22.7-1.4 0-3.6-5.5-4.6-11.7-.4-2.1-1.1-4-1.6-4.4-1.4-.9-1.1-3.5 1.4-9.4 3.5-8.5 4.6-10 7.1-10q3.2.2 7.1-5.5c1.4-2 1.4-2 1.5.1 0 3.2 1.9 4.1 8.9 4.2 6.8.2 9.1-.8 9.1-3.9 0-1.6.8-1.9 4.3-1.9a12 12 0 0 0 6.7-1.9q4.6-3.9 3 2.2m-48.4 38.2c3.7 9.9 3.3 12.7-4.1 27-5 9.8-6.5 13.7-6.5 16.9q0 4.3-2 6.1c-3 2.7-4.1 7.4-3.7 16.8q.4 8.7 2.1 11.2c1 1.4 1.6 3.6 1.4 4.8-.3 2.1-.8 2.2-12 2.5-10.8.2-13.9-.4-10.9-2.2 2.8-1.8 9.7-27.8 8.5-32.2-.3-1.1-.1-3.7.5-5.9l1.9-7.7c.5-2 1.9-5 3.1-6.6 1.1-1.7 2.1-4.3 2.1-5.8s.9-3.7 1.9-4.8c3-3.2 8.7-14.5 10.7-20.9 2.3-7.4 4.1-7.2 7 .8M69 597.3q0 1.4-.6 2c-1 .9-4.6-1.2-3.9-2.4.9-1.4 4.5-1.1 4.5.4m-5.9 5.8c1.6-.9 2.4-.9 3.5 0s1.9.8 3.5-.7c2-1.8 2.1-1.8 3.5 0 .8 1.2 3.1 2.2 5.6 2.5q7.1.9 3.7 6.7c-1.1 2.1-.9 2.6 1.5 4.5 5.7 4.5 8.5 8.9 5.6 8.9-1.3 0-1.3 3.3 0 4.6.9.9 0 5.1-2 9.4-1.7 3.7-11.7 5.1-10.3 1.4.7-1.8-2.5-12.4-3.7-12.4-.5 0-.6-3-.3-6.8l.5-6.7-4-4.5c-3.6-4-4.4-4.5-8.3-4.5s-4.4-.3-4.8-2.5l-.3-2.5 2.2 2c1.8 1.6 2.4 1.7 4.1.6m-35.3 2.6c-.2.9 1.3 2.5 3.6 3.8s4.3 3.2 4.7 4.4c1.1 2.8 3.3 2.7 5.3-.4 1.5-2.3 1.5-2.6.1-3.1-2.8-1.1-1.7-3.2 1.7-3 2.5.1 3.5-.4 4.3-2.2.5-1.2 1.8-2.2 2.7-2.2 2.4 0 2.3.8-.8 3.7-2.1 1.9-2.4 2.6-1.4 3.8q1.3 1.5 2.4.5c1.8-1.4 14.4-1 15.7.6q1.1 1.3-1 1.9a3 3 0 0 0-2.1 2.6q0 1.9-1.9 1.9c-2.4 0-4.5 2.5-3.7 4.5.7 1.9 3.5 1.9 4.2 0q.8-1.3 2.5-1.5c1.7-.2 2.5-1.2 3.3-2.8l1.5-2.7.1 3.3c0 1.9-.8 4.7-1.7 6.3-1.6 2.8-1.6 2.9.7 5.4q3.8 4-1.3 4-2.4-.2-2.2 2.5c0 2 .5 2.5 2.3 2.3 2.5-.3 2.9 1.4.9 4.1-1.8 2.5-9.6 3-11.9.9a5 5 0 0 0-4.5-1c-2.1.4-3.9-.3-7.5-3-2.7-1.9-4.8-4.3-4.8-5.3s-.6-2.3-1.4-2.9c-1.1-.9-1.2-1.8-.3-4q2.3-6.1-3.6-6.1c-4.5 0-5.1-.9-2.6-3.6 2.2-2.3 1.9-4.4-.6-4.4-1.7 0-5.5-7.8-4.8-9.7.7-1.7 2.4-.6 2.1 1.4m72.3 1.5c1.3 1.8 2.8 3.7 3.4 4.1q.9.8-1.2 2.4c-1.3.8-2.3 2.1-2.3 2.9 0 2.2 2 2.7 4 .9 1.7-1.6 1.9-1.5 2.9.3a5 5 0 0 0 3.3 2.4c2.7.4 8.2 8.7 7.2 11.1-.3.9-1.5 1.5-2.7 1.4-2-.2-2.2.3-2.2 6 0 3.6-.5 6.7-1.2 7.4s-1.3 2.5-1.3 4q0 5-3.8 2.8c-1.5-.9-2.7-.9-5.2 0a14 14 0 0 1-3.6.9c-.9-1-.5-7.7.5-9.7q1.2-2.3.3-3.3c-1.5-1.5-5.2.9-5.2 3.2q0 2-2 2-3.7-.2-.4-3.1c2.9-2.4 5.4-9.8 5.4-15.8 0-5.1-.4-6.1-3.5-9.5-2.8-3.1-3.4-4.4-2.9-6.5q1.1-4.8 4.9-6.1c3-1.3 3.2-1.2 5.6 2.2m26.6 4.4c2.8 1.7 3.7 4.8 2.3 7.4-1.2 2.3.1 5 2.5 5 .7 0 1.8.7 2.5 1.5 1 1.2 1 1.8 0 3q-1.2 1.5-.6 6c.7 4.1.5 4.6-1.8 5.6-2.1 1-2.5 1.8-2.3 5 .1 3.4.4 3.9 2.4 3.9 1.3 0 2.6-.7 2.9-1.5.8-2.1 2.1-1.9 2.9.5.6 2-2.5 10.2-4.3 11.4-1.8 1.1-8.2-2.3-8.2-4.4q0-2-2-2c-1.4 0-2.2-1.1-3-4.3l-2-6.9c-.7-2.1-.5-2.9 1.2-4 3-2 3.9-8.8 1.8-13.6a23 23 0 0 0-9.2-9.5q-1.3-.5 1.2-2.3 6.8-5.2 13.7-.8M25 613.7q-.1.9-1.5 2.7-1.5 1.8-.5 3.7c1.4 2.6 1.3 2.9-1.7 2.9q-3 0-1.5-1.2c.7-.7 1.2-2.9 1.2-5 0-3.1.4-3.8 2-3.8q1.8 0 2 .7m-7 17.1c0 1.8-3.6 4-7.2 4.4-3.2.3-3.5.2-2.7-1.4.5-1 2.2-2 3.7-2.4l3.7-.9q2.6-.9 2.5.3m12 2.1c.5 1.1 1 2.9 1 4q.1 2 2.8 3.5 6.5 3.3 4.2 6.1c-1.5 1.8-3 1.1-3-1.6 0-2.1.1-2.1-5.4-2.4-2.9-.2-4.6-1-6.3-2.9-1.3-1.5-2-3.2-1.6-3.8q.6-1 1.4 1c.9 2.3 3.3 2.9 4.4 1.2.4-.6.2-1.7-.4-2.4-1.2-1.4-.5-4.6 1-4.6.4 0 1.3.9 1.9 1.9m-11.4 9.3c.4.5-.7.8-2.4.8-4 0-4.3 2.4-.4 4.4l2.7 1.5-2.7.1q-2.6 0-5.2-3.1a15 15 0 0 1-2.6-3.8c0-.9 9.6-.8 10.6.1m65.8 6.3c-1.6 2.5-4.2 3.6-2.8 1.2q2.2-3.6 3.5-3.7.7.2-.7 2.5m-55.9 3.3c-2.6.6-4.5-.6-4.5-2.8 0-2 0-2 3.1.2q3.5 2.5 1.4 2.6m10.5-1.2q-.1 1.3-1 .9-1-.7-.5-1.6 1.4-2 1.5.7m193.7 4.4c3.4 2 15.7 4 25 4 4 0 5.3-.4 5.3-1.5q.1-1.4 2.1-1.5c3.8 0 1.8 3.4-2.4 4.1-4.4.7-5.2 1.3-4.3 3.4q.4 1.8 2.5.5c2.8-1.4 5.1-1.3 5.1.4q-.1 1.4-4 2.1c-4.6.8-5.4 2.5-1.1 2.5 2.7 0 2.8.1 1.8 2.4-1.1 2.2-1.8 2.5-6.2 2.3-4.3-.2-5 0-4.8 1.7.1 1.6-.4 1.7-3.9 1.2-6.4-1-13.8-5.1-20.3-11-5.9-5.5-7.4-8.9-1.7-4.1 3.4 2.9 5 3.1 5.9.9q.5-1.6-3.3-5.5c-3.7-3.8-3.7-3.9-1.4-3.9 1.4 0 3.9.9 5.7 2M45 656.7c.2.2.4 2.7.5 5.6 0 5.1 0 5.2-3 5.2-2.9 0-3-.2-3.5-5.3-.3-2.9-.1-5.7.4-6.2.9-.9 4.3-.5 5.6.7m31.8 0c3.4 2.9 3 10.4-.6 11.8-2.5 1-4.2-2.2-4.2-8.2 0-5.8 1.2-6.7 4.8-3.6m20.7 8.6c.3 5.7.2 5.8-2.4 5.5-2.3-.3-2.6-.8-2.9-4.7-.4-5.7.3-7.3 3-6.9 1.9.3 2.2 1 2.3 6.1m12.7 1.4c-.2 2.4-.8 4-1.3 3.7-1-.6-1.2-7.7-.2-8.8 1.3-1.3 2 1 1.5 5.1m232.4-1.1c-2.2.8-4.1 1.2-4.4.9-.7-.6 3.9-2.4 6.3-2.4q1.5.2-1.9 1.5m-17.6 6.5-6.4 3-23.6.4c-13.6.3-22.9.1-22-.4 1.7-1 10.9-1.8 34.5-3.1 8.8-.4 17.4-1.3 19-1.8q8.4-2.7-1.5 1.9m-273.5.8q3.8 0 1.2 1.2c-2 1.2-11.2.4-13.7-1.1-1.3-.8.3-.8 12.5-.1m8 2.1c-.3.5-1.3.6-2.1.3q-1.8-.5-.3-1.4c1.5-.9 3.2-.2 2.4 1.1m21.9.7c1.5 1.2 3.6 2.5 4.7 2.8 2.6.9 1.3 2.7-1.4 2-8.7-2.3-9.7-2.8-9.7-5.2 0-2.8 2.4-2.7 6.4.4m67.4.4q-.4 1-1.1 1l-4.9-.2-4.3-.2 4-.7c6.1-1.1 6.7-1.1 6.3.1m198.2-.2c0 .9-8.4 3.1-11.7 3.1-2.9 0-.5-1.2 4.9-2.6 6.7-1.6 6.8-1.6 6.8-.5m-125 3.5q0 5.5-4.5 3.5-2.7-1-.2-.8 1.7-.3 1.5-1.4c-.7-2-22-2.2-25.7-.2-4.4 2.2-6 1.8-2.8-.9 2.6-2.1 3.9-2.3 15.5-2.5 6.9-.1 12.8-.4 13.1-.6 1.5-1.6 3.1-.1 3.1 2.9m14.7-.4c2.1.1 6.5.7 9.8 1.5s7.7 1.2 9.8.8c3.2-.5 3.7-.3 3.7 1.4a22 22 0 0 1-1.4 5.9c-.7 2.2-1.6 7.5-2 11.9a139 139 0 0 1-1.7 12.4c-1.1 5.1-2.2 14-2.3 18.8 0 2.3.8 4 3 6a67 67 0 0 0 20.9 11.8c3.2 1 7.1 2.8 8.9 4 1.7 1.1 5.2 3 7.9 4 2.6 1.1 6 3 7.5 4.2 2.7 2.3 2.7 2.3.7 3.9q-2 1.5-5.8 1.1c-4.8-.7-5.4-1.3-3.9-3.7q1.3-2.1.1-2-1.2-.2-2.4-1.7c-1.1-1.4-1.6-1.5-4.4-.3-1.7.7-4.2 2.6-5.4 4.2q-2.4 3-4 2.2c-2.2-.8-2.2-2.1.1-2.9.9-.3 3.1-1.7 4.7-3.1l3-2.6-3.5.7c-9.4 1.9-14.3 1.5-13.3-1.1q.5-1.4-1.5-1.4c-2.5 0-3.9 1.9-2.2 3 2.2 1.3.7 4.4-2.2 4.7-1.5.1-3-.2-3.3-.7-.9-1.5 2.4-7.7 4.5-8.3 2.3-.6 2.8-2.7.6-2.7q-1.3 0-.9-2 .9-4-4.8.1c-2.8 2-3.9 4.9-1.9 4.9.5 0 .2 1.6-.7 3.5-1.7 3.6-5.2 5.1-3.8 1.7 1.3-3.4.9-3.7-4.8-4-5.5-.3-6-.1-9.1 3.1a28 28 0 0 1-6.1 4.9c-2.8 1.5-3 1.4-6.3-1.8l-3.4-3.3 1.7-4.4c.9-2.4 1.5-5.2 1.3-6.3q-.4-2 2.6-2.4c3.6-.6 5-3.3 1.5-2.9-1.3.2-2.5 0-2.6-.4q-1.2-2.9 2.7-2.7c3.4 0 3.4.1 2-3.4q-1-2.5-3-2.6-1.8-.1-2-1 .2-1 2.5-1 2.5 0 2.5-1.5-.2-1.3-2-1.5c-2.4 0-2.7-2.8-.3-4.5 1.8-1.3 1-3.5-1.3-3.5q-1.3-.1-1.4-1c0-.6 1.1-1 2.4-1 3.3 0 4.2-4.5 1.2-6.6-2-1.5-1.9-1.5 2-.9q4.1.6 4.9-.5c1-1.7 0-2.3-4.8-2.9s-5.4-2.8-.7-2.3c3.4.4 5-1.9 3-4.3-1-1.3-.8-1.5 1.3-1.5 1.4 0 2.9-.5 3.2-1 .8-1.3-1.9-5.8-4.9-8.2q-1.8-1.6-.9-1.8c.6 0 1.5.4 1.8 1 1 1.5 5.5 1.2 6.1-.5q.7-1.5 4.5-1.5c5.3 0 4.9-1.5-.8-2.9a49 49 0 0 1-16.3-7.4c0-.4 1.3-.1 3 .8s4.6 1.5 6.7 1.5m25.5-.8q-1.2 1.4-2.4 0-1.5-1.3 1.2-1.2c2.7.1 2.1.3 1.2 1.2m-251.4 2.1q.6 1.8-2.2 1.7c-2.9 0-4.4-1.9-2.5-3.1s4.3-.6 4.7 1.4m435.7-.3c.6.1-1.5.8-4.5 1.6s-5.9 1.9-6.4 2.4-2.6 1-4.5 1-6.1.7-9.3 1.6c-4.7 1.4-5.6 1.9-4.7 3q1.4 1.5-1 1.4-2 0-1.7-.9c.8-1.2-1.7-2.1-5.7-2.1l-3.2-.1 3.5-1.9q3.5-1.9 9.5-2a40 40 0 0 0 12.7-2.4c5.7-2 9.3-2.3 15.3-1.6m-345.9 3.1c1.3 1.3 2.4 2.7 2.4 3.3q-.2.7-2-1.2a12 12 0 0 0-6-3.2c-5-1.3-5.2-2.5-.4-1.7 2 .4 4.7 1.6 6 2.8M138 681c0 .5-1.3 1-3 1s-3-.5-3-1 1.4-1 3-1 3 .4 3 1m-9.5 4.6c1.9.7 1.9.8-.4 1.2-1.2.2-3.4.1-4.8-.3q-2.9-.5-1.3-2 1.2-1.4 2.8-.5zm17.7 3.5c-.6 5.2-1.9 6.2-7.2 5.5-2.5-.4-7.6-.8-11.5-.9-4.3-.2-8.2-.9-10.2-2q-7-4-.5-2.6c6.5 1.6 18.2 2.1 18.2.8q0-1.1 1.8.4c2.4 2.2 7.2 2.3 7.2.2q-.1-1.3-1.5-1.5c-1.5 0-2.1-2.1-.9-3.3q.8-.6 2.8-.3c1.7.3 2 .9 1.8 3.7m67.3-3.4c6.1.6 6.5.8 3.4 1.3-2 .4-6.7.3-10.5-.1s-9.5-.5-12.6-.2q-5.9.6-5.8-.6c0-1.3 14.2-1.5 25.5-.4m67.5.3q-.1.9-1.5 1c-1.4.1-1.5-.5-1.5-1q.1-1 1.5-1c1.4 0 1.5.4 1.5 1m-51 1.6q-.1.4-1.5.4c-1.4 0-1.5-.4-1.5-1q.1-.8 1.5-.4 1.4.6 1.5 1m114.4 4.3a40 40 0 0 1-15.4.1c0-.5 2.1-1.2 4.8-1.5l5.7-.9c1.4-.4 5.6 1.6 4.9 2.3m-123.9.6q.2 2.1-2.4 1.7c-2.7-.3-5.1-1.9-5.1-3.4 0-.5 1.7-.8 3.8-.6 2.9.3 3.7.8 3.7 2.3m63.7-1.2q.9 1.4.8-.1 0-1.2 4.9-1.2c4.1 0 5.1.4 5.6 2 1 3.2 3.9 4.1 14.2 4.2q17.2.2 12.7 4.9c-.9 1-3.6 2.1-5.9 2.5-5.2.7-7.4-.2-4.8-2.1 2.5-1.9.8-3.1-2.1-1.5-2 1-3.6 1-8.8 0a101 101 0 0 0-11.3-2c0-.3-5.8-.7-10.2-.9-2.6-.1-3.1-.4-2.6-1.9q1.1-2.2-1.7.3l-2.3 2 .7-2.8q.6-2.8-.4-2.2t-1 2q0 2.6-5.5 1.6c-2.3-.5-3.1-1.2-3.3-3.1l-.3-2.5 10.3-.2c7.2-.2 10.4.1 11 1m-54.2 2.8q-.1.8-1.5.9-1.4-.1-1.5-2.1c0-1.8.2-1.9 1.5-.9q1.4 1.2 1.5 2.1m178-2.1c0 .5-1.7.9-3.7.9-3.8-.1-3.8-.1-.8-.9 4.3-1.1 4.5-1.1 4.5 0m-75.8 8.2c1.4 2.1 1.8 2.1 10.1 1.2 6.7-.7 8.7-.7 8.7.3q-.2 1-1.7 1.2c-16.6.3-19.8 0-21.5-1.9-1.8-1.9-1.6-2.2 2.3-2.9q.8.1 2.1 2.1m22.8 2q0 1.9-.7 1.4c-1.1-1-1.2-3.6-.2-3.6.5 0 .9 1 .9 2.2m93 25.3q0 1.3-.9 1.5c-1.3 0-2.2-1.6-1.4-2.4 1.1-1.1 2.3-.6 2.3.9m3.6 3.2c-1 1-1.9-.5-1-1.8q.8-1.7 1.2 0 .3 1.2-.2 1.8m-31.6-.1c0 1.7-2.2 1.4-2.8-.4q-.2-1.1 1.2-1.2 1.5.1 1.6 1.6m51.9 2.3c-1.4.4-3-1.9-2.2-3.3q.6-.7 2 1 1.4 1.9.2 2.3m-14.9-1.4q1.6 1.6-.4 1.5-1.5-.2-1.6-1.5c-.1-1.3.2-1.5.4-1.5s.9.7 1.6 1.5m-32.9.8c-.1 1.2-1.5.9-1.9-.4q-.4-1 .8-.8 1 .5 1.1 1.2m4.9 2.3q0 1.3-1 1.4-.9-.2-1-2.1.1-1.8 1-1.4c.6.3 1 1.3 1 2.1m33 .5q0 .9-1 .4t-1-1.6q.1-.9 1-.4a2 2 0 0 1 1 1.6m14-1.1q0 .9-.4 1-.5-.1-1.1-1-.4-1 .4-1 1 0 1.1 1m-62 1q0 .9-.4 1-.5-.1-1.1-1-.4-1 .4-1 1 0 1.1 1m19.8 1.3q.2 1.6-1.2 1.7-1.5-.2-1.6-2.1c0-2.4 2.3-2.1 2.8.4m-28.8.8q0 .9-1 .4t-1-1.6q.1-.9 1-.4a2 2 0 0 1 1 1.6m33.3 1.5q-.6 1.3-1.3 1.4c-1.4 0-2.2-2-1.6-3.7.5-1.2.9-1.3 2.1-.3.7.6 1.1 1.8.8 2.6m14.2-2.6q.4.9-.9 1-1.5-.1-1.6-1 0-1 .9-1t1.6 1m14.5 0q0 .9-1 1a1 1 0 0 1-1-1q.1-1 1-1t1 1m-376.2.7c-.1.5.3 1.8 1 3 1.1 1.9.9 2.9-.6 6l-1.9 3.6-.6-3.4c-.5-2.9-.4-5.6.2-9.2q.2-.6 1.1-.7t.8.7m62.2 3.1c0 1.3-.3 1.2-2-.3-1.1-1-1.7-2.2-1.4-2.7.8-1.2 3.4 1.1 3.4 3m238.5-2c0 1.8-2 1.5-2.3-.4q-.4-1.6 1-1.2 1.2.6 1.3 1.6m17.5.7q0 1.3-1 1.5-.9-.2-1-1.5c-.1-1.3.5-1.5 1-1.5q1 .1 1 1.5m33.3-.9c.8.8-.3 3.4-1.4 3.4q-.8-.2-.9-2c0-1.9 1.1-2.6 2.3-1.4m14.7 1.5q0 .9-1 .4t-1-1.6q.1-.9 1-.4a2 2 0 0 1 1 1.6m-314 .7c0 1.3-1.2 2.2-2.2 1.6s-.1-2.4 1.3-2.4q.8.1.9.8m271.8 2.1q.4 2.4-1 1.9c-.7-.3-1.5-1.5-1.6-2.7q-.4-2.4 1-1.9c.7.3 1.5 1.5 1.6 2.7m33.2.3c0 2.6-2.4 1.8-2.8-1q-.4-2.3 1.2-1.6c.9.3 1.6 1.5 1.6 2.6m-19-.2q0 .9-.4 1-.5-.1-1.1-1-.4-1 .4-1 1 0 1.1 1m52.8.8q.4 1.4-1.4 1-1.5-.4-2.2-1.6-.4-1.4 1.4-1 1.5.4 2.2 1.6m-61.8 1.7q-.1 4.3-3 1c-1.4-1.6-.6-3.5 1.6-3.5q1.3.1 1.4 2.5m13.8-.1q.5 1.9-1.4 1.4t-2.2-2.2q-.5-1.9 1.4-1.4t2.2 2.2m18.7-.4a2 2 0 0 1-1.2 1.7q-1.2.3-1.3-1.7 0-2 1.3-1.8 1 .6 1.2 1.8m-303.5.4c0 1.8-1.6 2.9-3 2.1s-.1-3.5 1.6-3.5q1.3.1 1.4 1.4m255.5-.4q.5.9-.4 1c-.5 0-1.3-.5-1.6-1q-.5-1 .4-1a2 2 0 0 1 1.6 1m82.5 1.1q-.1.8-1.5.9c-1.4.1-1.5-.7-1.5-1.5q0-1.4 1.5-.9 1.4.7 1.5 1.5m-63 1.5c0 1.6-1.6 1.9-2.5.4-.8-1.3.4-3.2 1.6-2.5q.8.8.9 2.1m13.5.2c0 3.1-1.9 2.8-2.3-.4q-.5-2.7 1-2.2 1.2.6 1.3 2.6m20-1.8c.3.5 1.5 1 2.6 1 1.4 0 1.9.7 1.9 3 0 3.3-1.9 4.1-2.7 1.1q-.5-1.8-2.3-1.4c-2.1.5-3.4-1.1-2.6-3.2.6-1.7 2.2-2 3.1-.5m14.5 0q0 .9-1 1a1 1 0 0 1-1-1q.1-1 1-1t1 1m-29.7 1.6c.8.8-.3 3.4-1.4 3.4q-.8-.2-.9-2c0-1.9 1.1-2.6 2.3-1.4m48.7 1.3c0 1.1.3 2.6.6 3.5q.5 1.5-.4 1.6c-1.2 0-3.3-5.6-2.5-6.4 1.2-1.2 2.3-.6 2.3 1.3m-200.2 1.6c1.1 2.3 1 2.4-.8 1.3q-1.8-1.2-2-2.5c0-2.2 1.6-1.4 2.8 1.2m190.2.1c0 1.6-1.6 1.9-2.5.4-.8-1.3.4-3.2 1.6-2.5q.8.8.9 2.1m-34.5-.6q.4.9-.4 1-1-.1-1.1-1 0-1 .4-1t1.1 1m20.2.6c.8 2.1-1.3 4.2-2.8 2.7-1.3-1.3-.5-4.3 1.1-4.3q1 .1 1.7 1.6m-380.4 2.8q1 2.5-2 2.6-1.2-.2-1.3-2c0-2.3 2.5-2.7 3.3-.6m385.2-.4q.4.9-1 1c-1.4.1-1.3-.5-1-1q.6-1 1-1t1 1M107 760.5q-.1 1.3-1.4 2.5a6 6 0 0 0-1.8 3.2q-.4 2-4 3.3l-3.8 1.3v-4.5c0-3.6.6-5 3-7.4 2.8-2.9 3-2.9 5.5-1.3 1.4.9 2.5 2.2 2.5 2.9m135-.5q0 .9-1 1a1 1 0 0 1-1-1q.1-1 1-1t1 1m-227.5 2c-1 1.1-2.5 2-3.4 2q-1.8 0 .9-2c3.3-2.6 4.8-2.6 2.5 0m255.6 3.1-1 2.4v-2.6c-.1-1.4.2-2.9.6-3.3 1.2-1.2 1.4.9.4 3.5m16.7-1.9-1.5 2.7q-.3.2-1.3-.4-1.2-.7.6-2.6c2.4-2.6 3.7-2.4 2.2.3m36 1.1q.2 1.6-1.1 1.7c-1.8 0-3.9-2.4-3-3.4 1.2-1.2 3.8-.2 4.1 1.7m-69 1.3q2.2.6 2.2 3c0 2.4 2.6 4.5 4.8 3.7q1-.6 1.2-2.6 0-1.8.6-1.5.5.7.6 1.5c0 3.2 7 4.6 8.6 1.7.8-1.4 1.2-1.4 3-.3q4.5 2.9-.6 2.9c-3.5 0-7.2 2.6-7.2 5.1 0 1.7-.3 1.8-2.1.7s-2.3-1-4.5 1.7c-1.3 1.6-2.4 2.8-2.5 2.5l-.3-3.1c-.2-3.5-3.3-7.9-5.4-7.9-1.4 0-1.8-.9-1.9-4-.2-4.2-.1-4.3 3.5-3.4M5.5 767.9q.4.9-.5 1.6-.9.4-1-.9 0-2.7 1.5-.7m201.9 2.8c.9 2.2-.5 3.4-3.2 2.7-2.1-.6-2.9-2.4-1.5-3.7 1.2-1.3 4.1-.7 4.7 1m80 .5c1.7 5.3 1.6 6.7-.5 7.3-3 1-8.7-4.8-6.9-7 1.5-1.8 6.9-2 7.4-.3M83 774.1c.1 6.4-.2 8.9-1.1 9.4-1.5 1-2.3-2.6-1.1-4.6.7-1 1.2-3.3 1.2-5.1s.2-2.9.5-2.6.5 1.5.5 2.9m-74 .5c0 .3-.9 1.7-1.9 3-2.1 2.7-3.5 1.3-1.9-1.9.8-1.6 3.8-2.5 3.8-1.1m61.5 1c1.5 1.5 1.4 1.8-.7 4.1-2.5 2.6-5.5 2.7-7.2.1-.8-1.3-.6-2.2.8-3.7q3.6-3.8 7.1-.5m108.5 2.3c0 2-1.3 3.5-2.3 2.5-.7-.8.4-4.4 1.4-4.4q.8.2.9 1.9m72.5.2c1.6 1.6-.9 4.4-4.2 4.7q-2.9.3-4.4-1.4c-1.2-1.4-1-1.9 1-3.5a6 6 0 0 1 7.6.2m-162.8 1.1q-.5 1.1-.6-.6t.5-1.3c.3.3.4 1.2.1 1.9m189.5 3q-1.3 1.5-1.1-2.3c0-3.2.1-3.3 1.1-1.1q1.2 2.4 0 3.4M12 781.4q0 .5-1 1.1-.9.4-1-.4.1-1 1-1.1 1 0 1 .4m280.4 1.1c.7 2-.3 4.5-1.9 4.5-1.8 0-4.8-3.7-4-4.9.9-1.6 5.2-1.3 5.9.4M33 785.2c0 4.7-1.1 7.9-2.4 7.5-1.6-.5-1.9-4.5-.6-7.8 1.6-3.8 3-3.7 3 .3m41.1 3.7c-.6 1.1-.8 2.7-.5 3.5q.4 1.5-.5 1.6c-.9.1-1.1-1.6-1.1-3.5q0-3.4-1.7-4.4-2.3-1.2-.2-1.1c.9 0 2.3-.8 3-1.7 1.3-1.5 1.4-1.4 1.7 1a10 10 0 0 1-.7 4.6m126.9 1.2q-1.2 2.1-2.2 1.1t.8-5.3l1.9-4.2.3 3.1c.2 1.7-.2 4.1-.8 5.3m-179.2-5.9c1.9 1.9 1.4 3-.8 1.8q-1.8-1-2-2c0-1.4 1.4-1.2 2.8.2m172.3 1q1.7 3-.4.9-1.6-1.2-1.7-2.2.2-2.2 2.1 1.3m49.9 1.2c2.3.1 2.3.3.7 4.6-1.3 3.3-4.3 4.3-3.2 1.1.7-2.2-1.9-4.1-5.4-4.1-2.7 0-2.7-1.4.2-3.3 2-1.3 2.4-1.3 3.9 0 1 .9 2.7 1.6 3.8 1.7m26.3-.9q5.1 4.5-2 4.5a9 9 0 0 0-5.7 1.9c-2 1.8-11.8 3.6-13 2.4-.3-.3.1-1.4.8-2.5a5 5 0 0 0 .9-3.8c-.8-3 1.4-3.2 4.1-.3 2.2 2.4 2.9 2.6 4.4 1.5l4-2.2c1.2-.5 2.2-1.6 2.2-2.5 0-2.1 1-1.8 4.3 1m-57.5 1.1c2.1.6 3.2 3.4 1.3 3.4-2.3 0-6.2-2.1-5.6-3 .7-1.2 1.2-1.2 4.3-.4m71.7 1.4q1.6 1.8 1.4 2.1c-6.5.9-7.9.7-7.9-1 0-3.6 3.6-4.3 6.5-1.1m-263.7 1.9c1.7.7 3.2 1.7 3.2 2.2 0 1.2-.6 1.1-3.1-.4-1.8-1-2.3-.9-4 1.5q-3.7 4.9-3.9 1c0-2 2.9-6.5 3.8-5.9zm123.2 4.4q0 .7-1 .2c-.5-.3-1-1.4-1-2.3q-.1-2.2 1-.2c.5.8 1 1.9 1 2.3m-88.5.9c-.4 3.8-.5 3.9-1.5 3.3-1.1-.7-1.4-4.8-.4-5.8 1.2-1.1 2.1.2 1.9 2.5m74.5.9c0 2-1.5 2.6-2.5.9-.9-1.5.3-4.3 1.5-3.5.5.3 1 1.5 1 2.6m56-1.7c0 .8-.4 1.8-1 2.1q-.9.4-1-1.4.1-2 1-2.1 1 .1 1 1.4m17 .6c0 .4-1.8 1.5-3.9 2.3-2.2.9-4.2 2.1-4.6 2.7-.9 1.5-2.2 1.2-2.9-.6-.9-2.4 1.2-4.4 4.5-4.4 1.5 0 3-.4 3.4-1 .6-1 3.5-.2 3.5 1m6.4-1.1c.8 1.3-.3 1.9-2.4 1.4q-1.7-.5-1.4-1.4c.7-1.1 3.1-1.2 3.8 0m60.3 1.6q.4 1.5 0 2.1c-.7.8-4.7-1.5-4.7-2.6 0-1.6 4-1.1 4.7.5m-118.6 3.8q-1 1-3.8-.2c-2.7-1.2-2.7-1.3-.9-2.7 1.7-1.2 2.2-1.2 3.8.3q1.8 1.7.9 2.6m-71.9 2.5c1.2 3.1.8 4.2-1.6 4.2-3 0-3.4-.6-4.1-6l-.5-4.2 2.7 2.2a13 13 0 0 1 3.5 3.8M223 797q0 .9-1 1a1 1 0 0 1-1-1q.1-1 1-1t1 1m-133.2.8c1.6 1.1.1 5.7-2.3 6.5-2 .8-2.9-1.4-2.1-4.8q1-3.9 4.4-1.7m82.2.7q2.7 2.9-4.3 3.9c-3.4.6-3.8.5-3.5-1.1.2-.9 1.4-2.3 2.8-3 3.2-1.6 3.5-1.6 5 .2m113 .4q.9 2 .1 2.6c-.9.5-3.1-2.4-3.1-3.9 0-1.4 2-.4 3 1.3m-266 2q0 5.4 3.9 3.1 2-1.1 4.5.2 5.2 2.3-.6 3c-2.5.2-3.4.8-3.6 2.5q-.4 3.4-4.6 1.7c-1.3-.5-1.4-.9-.4-2.1s.9-1.7-.3-2.7c-2.2-1.6-3-4.5-1.9-6.7 1.6-2.8 3-2.3 3 1m15-1.4c1.1 1.3.8 1.5-1.3 1.5-2.6 0-4.2-1.2-3-2.4 1.1-1.1 3-.7 4.3.9m90 0q1.4 1.6.3 2.6t-2.3-.6c-.7-.8-1.9-1.5-2.6-1.5q-1.3-.1-1.4-1c0-1.6 4.6-1.2 6 .5m19.4 1.7c1.4 1.9 1.4 2.3-.2 3.4-1.3 1-1.4 1.5-.5 2.5 1 1 1.6.9 3.1-.5 1.6-1.3 2.4-1.5 4.8-.6 2.2.9 3.1.8 3.9-.3s1.6-1.1 3.8-.2c2.7 1.1 6.1 5.8 4.9 6.9-.3.3-8 .6-17.2.5-15.8 0-16.6-.1-16.6-2 0-2.1 3.5-3.6 6.1-2.6 2.3.9 4.8-2.2 4.1-5.3-.8-4.4 1.3-5.4 3.8-1.8m97.4-.5q-.3 1.8-2.8 1.8-2.4 0-2.8-1.8c-.3-1.3.3-1.7 2.8-1.7s3.1.4 2.8 1.7M134 801q0 .9-1 1a1 1 0 0 1-1-1q.1-1 1-1t1 1m51 0q0 .9-1 1a1 1 0 0 1-1-1q.1-1 1-1t1 1m23.4.1c1.9.9 2.9.9 3.9.1s2.4-.8 5.2-.1c2.1.6 5.1.8 6.7.5 1.5-.3 2.8-.1 2.8.4s-1.5 1-3.4 1c-4.1 0-6.8 2.6-4.6 4.4 1.4 1.1 4 5 4 6.1 0 .3-2 .5-4.3.5-3.6 0-4.6-.4-5.5-2.4a8 8 0 0 1-.5-4.6c.5-1.9.2-2.1-2.3-1.8-2.7.3-2.9.6-2.8 4.6.1 3.8-.1 4.3-2 4q-2-.2-2.6-3.3c-.4-2.2-1.1-3.1-2.9-3.3-3.5-.5-4.8 1.3-2.6 3.8 1.8 2 1.8 2-2.6 2-3.5-.1-4-.3-2.6-1.1 2.7-1.6 2.2-4.9-.8-4.9-2.9 0-5 3.1-3.3 4.8.9.9-.7 1.2-6.7 1.2-7.7 0-7.8 0-6.1-1.9 1-1.1 2.3-1.8 3-1.5s2.5-.7 4-2.1c2.2-2 3.5-2.5 5.6-2q2.6.6 3.9-.9c1.1-1.3 1.7-1.3 4.6 0 2 .8 4.7 1.1 6.4.8 4.1-.8 4.1-3.4 0-3.4-1.7 0-2.8-.4-2.4-1 .8-1.3 4.8-1.3 7.9.1m55.6.8c1.4 2.7 1.4 2.8-2 2.7-1.6-.1-3-.2-3-.4 0-1.1 2.2-4.2 3-4.2q1 .2 2 1.9m-195.2 1.9c.4 2.9-2.6 4.2-4.4 1.8-1.7-2.4-.6-4.8 2-4.4q2 .4 2.4 2.6m212.9-.2c-.6.6-4.7-.9-4.7-1.7q.2-.7 2.5.3c2.3 1 2.4 1.3 2.2 1.4m-184.7.6c0 .6.7 2 1.7 3 1.9 2.2.9 3.7-1.5 2.2-1.9-1.2-2.9-6.4-1.3-6.4q1 0 1.1 1.2m81.4-.3q.4.9-1 1.5-3.2 1-1.9-1.3c.8-1.3 2.2-1.4 2.9-.2m-135.7 2c2.2 2.3 9.5 3.3 12 1.7 1.4-.9 2.6-.9 5.2 0 3.2 1 3.3 1.2 1.5 2.1a57 57 0 0 1-13.9 1.1l-12 .1-.1-2.9c-.1-4.1 4.2-5.3 7.3-2.1m70.9-.7c.8 1.3-2.2 3.8-4.8 3.8-2.3 0-2.3-2.6 0-3.9q3.5-2.1 4.8.1m13.4 1.7c0 1.1-6.9 2-7.6 1q-.2-.7.8-1.2c2.2-.9 6.8-.7 6.8.2M81.5 810q.4.9-.9 1-1.5-.1-1.6-1 0-1 .9-1t1.6 1m11.5 1.5c2.4 1.4 2.4 1.4-2.2 1.5q-6.6 0-4.1-2.3c1-1.1 3.6-.8 6.3.8m78.6 0c1.8 1.4 1.7 1.4-1.3 1.5-2.5 0-3.1-.4-2.7-1.5.8-1.9 1.5-1.9 4 0"/><path d="M344.1 105.2c-2.8 7.2-5.4 14.7-5.8 17.1-.7 3.6-3.2 4.6-13.2 5.3-10.8.8-12.1 1.1-12.1 3.4 0 2.4 2.6 4.1 10.7 7 8.4 3 9 3.8 6.8 9.7-3.2 9.1-4 13.2-2.6 14.6q1.2 1.2 2.5.2l10.6-7.3c8.8-6 9.3-6.2 11.8-4.8a91 91 0 0 0 16.8 6.6q3 0-3-11.4l-3-5.8 3.4-2.9 7.8-6c4.4-3.2 5.1-4.9 2.8-6.8-1.1-.9-3.3-1-9.1-.2-4.2.6-8.5 1.1-9.6 1.1-1.9 0-6-5.4-7.4-10-.4-1.4-1.6-3.6-2.6-4.9a8 8 0 0 1-1.9-4.2c0-2.8-1.9-3.3-2.9-.7M349 118c2.9 5.7 2.6 7-1.4 7-1.9 0-3.7-.4-4.1-.9-.7-1.2 1.7-10.1 2.7-10.1.4 0 1.7 1.8 2.8 4m21.8 10.2c-.3.7-2.2 2.5-4.4 4l-3.9 2.7-1.7-2c-3.6-4.2-2.1-5.6 6-5.8q4.5-.1 4 1.1m-14.4 5.2 1.9 3.9-2.4 1.9c-1.3 1-4 2.7-6 3.8-3.4 1.8-3.6 1.8-7.6 0-5.2-2.3-5.5-2.8-3.9-7.3 1.6-4.8 2.4-5.5 6.6-6 7.8-1 9.4-.5 11.4 3.7m-22 2c-.8 3.2-1.8 3.2-8 .4l-4.9-2.3 5.2-.5c2.8-.3 5.5-.9 5.9-1.3 1.4-1.3 2.5 1 1.8 3.7m28.2 10.8q3 6-3.9 3.3c-4.8-2-5.2-3-2-5.3s3.8-2.2 5.9 2m-21.4-.6 3 1.6-2.3 2.5c-2.2 2.3-6.9 5.3-8.4 5.3q-1-.2 2.1-7.8c1.5-3.7 1.5-3.7 5.6-1.6m-117.1-11.7c-1.4.4-2.7 1.3-2.9 2q-.7 1.6 2.5.8c1.7-.3 4.3-.3 5.9.2 2.7.7 2.8.8.6 1.3-2.5.7-3 3.6-.7 4.4 1.9.8 4.8-1.5 4.1-3.1-.2-.7.1-1.8.7-2.4.9-1 .7-1.6-.7-2.7q-3.3-2.3-9.5-.5"/><path d="M221.7 140.4c-.7 1.7 1.1 3.6 3.4 3.6q1.7.2 1.1-2.5c-.5-2.7-3.6-3.5-4.5-1.1m19.6 15.1q-.5 1.5 0 2.2c1 1 3.7-.6 3.7-2.2 0-2-2.9-2-3.7 0m-4 8.2c-4.9 1.7-5.6 3.3-1.4 3.3 1.5 0 4.3.5 6.1 1.1 2.7 1 3 1.3 1.6 2.1-2.1 1.2-1.1 2.8 1.6 2.8q2 0 1.5-1.4c-.3-.7.3-2 1.4-2.9q3.9-3.5-.6-5.5c-3.3-1.5-4.9-1.4-10.2.5m-37 71q-3.4 1 2.9 4.2c5 2.5 6.9 1.5 4.4-2.3q-2.6-3.8-7.3-1.9m11.2 4.3c-1 1.6 1.2 3.8 5 5.1 1.9.7 3.6 2.1 3.8 3.1.3 1 2.1 2.5 4 3.3s3.7 2.2 4.1 3.1q.6 1.5.4 1.8l-3.4 1.7c-3.1 1.6-3.2 1.6-4.3-.7q-2-4.6-6.1.1-4.7 5.1-3.4-1c.5-2.8.3-3.5-1-3.5-.8 0-2.3 1.2-3.3 2.7s-3 4-4.5 5.5c-4.6 4.3-3.4 8.8 2.3 8.8q1.8 0 1.9 2c0 3.2 3.2 4.2 6.7 2 3.6-2.2 4.3-1.4 4.3 4.6 0 3.7 1.8 4.5 4 1.9 1-1.2 1-2.4-.1-6.1-1.8-5.9-3.2-7.1-6.6-5.5-2.2 1-2.7.9-4-.9-.8-1.1-2.5-2-3.9-2q-2.3 0-2.4-1.6c0-1.3.7-1.5 3.9-.9 2.2.4 4.8.2 5.9-.4q2-1.2 3.1.3 3.2 3.6 8.4.2c4-2.8 11.1-3.9 16-2.5 2.6.7 4 1.9 5.4 4.9 2 3.9 2 3.9-.1 5.9-2.6 2.7-1.4 3.8 1.9 1.7l2.5-1.6v4c0 2.2.1 4.3.3 4.7q0 .8-2.3 1.1a9 9 0 0 0-4.5 2.3c-1.2 1-3.5 2.4-5.3 3s-3.1 1.6-2.9 2.2c.6 2 2.3 1.8 6.1-.8a14 14 0 0 1 6.5-2.5c4.3 0 7-3.6 6.8-9.2-.2-3.6.3-5.2 2.1-7 2.6-2.9 2.8-4.8.5-4.8q-1.9 0-.5-1.2c1.5-1.5 4.9 1.4 5.4 4.6q.3 2 2.3 2.1c1.7 0 2-.6 1.7-4.5-.2-2.4.3-5.5.9-6.8 1.8-3.2-.3-5.3-2.9-2.8-1.1.9-3.3 1.8-5 2.1-1.7.2-4.5 1.2-6.2 2.2-3.1 1.8-3.1 1.8-4.8-.3-2.2-2.7-10.7-5.4-15.1-4.7q-3.5.6-2.7-.6.8-1 1.7-.6c1.5 1 2.3-2.4 1.1-5-.6-1.4-2.6-2.8-4.9-3.5-2.1-.7-4.3-1.7-5-2.2a68 68 0 0 0-12.5-4.8q-.7.1-1.3 1m44.5 27.5q-1.2 1.3-2.1.9c-1.3-.8-.1-2.4 1.8-2.4q1.9-.1.3 1.5m-25 46c-1 1.2-.9 1.6.4 2.1 2.6 1 8.6-.5 8.6-2.1 0-2-7.3-2-9 0m-58.3-2.4c.6.6.9 1.7.7 2.4-.6 1.4 4.9 19 7.3 23.9 2.2 4.2 4.1 1.8 2-2.6a63 63 0 0 1-4.7-14.6c-.1-2.8-3.8-10.2-5.2-10.2q-1.3 0-.1 1.1m34.8 281.8c-.8 1.7-1.8 5.2-2.1 7.8-.5 3.9-1.5 5.7-5 9.3a42 42 0 0 0-6.4 9.4c-1.8 4.3-1.9 5.1-.6 6.4s1.8.7 4.6-4.7q3-6.1 4.3-5.5 1 .6.5-.1c-.4-.4.6-2.1 2.3-3.9s3.4-4.9 3.9-7.1 1.5-5.4 2.1-7q2.6-6.8-.3-7.3-1.7-.2-3.3 2.7M74.2 608.3q-2 2.5 2 2.7 2 0 1.6-1.7c-.4-2.2-2.2-2.7-3.6-1m2.5 10.4c-1.1 1-.8 4.1.4 4.9 1.6.9 4.3-2.1 3.6-4-.7-1.6-2.8-2.1-4-.9m5.7 2.8c-.7 1.8.3 3.5 2.1 3.5 2.1 0 2.8-1.9 1.5-3.5q-2.5-2.8-3.6 0m-2.7 9.2c-1.2 1.1-.8 2.3.8 2.3q1.3-.2 1.5-1.5c0-1.6-1.2-2-2.3-.8m5.5 3.5c-1.4 1.4-1.6 2.8-.2 2.8q1-.2 2-2c1.2-2.2.1-2.7-1.8-.8m-35.1-18.3c-.8 1.4-.6 2.2.8 3.5 1.6 1.5 1.9 1.5 3.6-.4 1.4-1.6 1.5-2.2.5-3.5-1.7-2-3.7-1.9-4.9.4M39 617.5q-1.5 1.6-.1 2.8c1.4 1.4 4.6-.2 4.6-2.4 0-2-3-2.3-4.5-.4m8.6 9c-1.8 1.9-1.9 2.5-.7 4.3 1.2 2 4.5 1 4.9-1.4.4-3.1-2.2-4.9-4.2-2.9m-7.9 2.9c-.9 2.3 1.9 4.1 3.8 2.6q1.8-1.3.4-2.6c-1.5-1.8-3.5-1.8-4.2 0m5.3 6.4c0 .5 1.3 2.1 3 3.7 2.4 2.3 3 2.5 3.5 1.2 1-2.5-1.3-5.7-4-5.7-1.4 0-2.5.4-2.5.8m48.7-25.1c-1.3 1.2-.7 4.4.9 5 2.3.9 4.8-2.5 3.3-4.4-1.2-1.4-3.2-1.7-4.2-.6m7 21.9c-1.4 1.4-.7 3.5 1.1 3.2q1.5-.5 1.7-1.7c0-1.6-1.8-2.5-2.8-1.5m52.5 177.1c.2 1 1.4 1.9 2.6 2.1q2.7.5 2-1.5c-.2-1-1.4-1.9-2.6-2.1q-2.7-.5-2 1.5m243-171.5c-.7.7-1.2 2.2-1.2 3.4 0 2.5-2 4-16.5 13.1a57 57 0 0 1-20.4 9.3c-1.9 0-4.5 2.3-3.6 3.2.8.8 17.8-5.1 19.9-7 2.1-1.8 4.1-3.1 17.4-11.6 4.3-2.7 7.2-5.2 7.2-6.3a6 6 0 0 1 1.7-3.5c1.5-1.7 1.5-1.8-.8-1.8-1.4 0-3 .5-3.7 1.2m-21.3 31.6a99 99 0 0 1-18.2 10.3c-5.1 1.8-4.1 3.5 1.9 3.1 5.6-.4 6.5-.9 4.4-2.2q-1.2-1-.4-1c.5 0 3.7-1.6 7-3.6s7-4 8.4-4.3c2.8-.8 3.4-3.4.9-3.9-.8-.1-2.6.6-4 1.6M409 672a94 94 0 0 0-8.4 3.5c-6.7 3.1-12.6 4.3-12.6 2.6q.1-1 1-1.1t1-1c0-2.1-7.9-1-13.5 2-3.1 1.6-6.5 3-7.5 3q-1.8.1-2.6 1.1c-1.2 2.1 8.2.4 11.2-2 3.5-2.7 4.4-2.7 4.4.3 0 2.1-.9 2.8-6 4.7q-10.4 3.8-2.2 2.5c4.8-.9 9.4-2.7 10.7-4.2.6-.7 3.9-2 7.5-3a55 55 0 0 0 9.3-3.1 40 40 0 0 1 19.1-4.6q4.9.6 3.7 1.6-2.4 2.3.9 3c2.3.6 4.8-1.7 3-2.8q-1.2-.7.7-2.1c1.6-1.2.6-1.3-7.7-1.3-5.2 0-10.6.4-12 .9"/><path d="M414 676.5c-6.6 1.5-17 6.1-17 7.5s.5 1.3 5.8-1.5a56 56 0 0 1 16.5-5c1.5-.3 2.7-1 2.7-1.5 0-1.2-1-1.2-8 .5m-363.3 5.2c-3 .8-.8 2.3 3.4 2.3q4.1 0 3.7-1.3c-.5-1.3-4.1-1.8-7.1-1m434.9 3.1c-.2.4 2.1 1.3 5.1 2q8.4 1.8 5.7-.7c-1.3-1.3-10.1-2.4-10.8-1.3m-162.9.9q-2.2 2.5 3 2.1c4.8-.4 5.7-2.8 1.1-2.8-1.9 0-3.8.3-4.1.7m161.3 12c-3.5.5-6 1.8-6 3.3 0 .4 1.7.2 3.8-.6 2-.7 7-1.3 11-1.4s7.2-.4 7.2-1c0-1-8.8-1.1-16-.3M39.2 700c-3.6 1.6-5.1 1.8-8.5 1-6.4-1.5-10.7-1.2-11.4.6-.3.8.1 2.1.8 2.8a40 40 0 0 0 14.3 4.6c2.6 0 8 3.9 5.5 4-.9 0-2.9.7-4.5 1.5s-4.3 1.2-6.8.9c-4.7-.6-7.2.7-6.3 3q.7 1.6 4.2 1.6 3.4 0 3 1c-.4.6-3.7.9-8 .8-6.6-.3-9.7.4-8.3 1.7.2.3 4.7.6 9.9.7 10 .2 13.9-.9 13.9-4q.2-4 5.3-4.2c3.8 0 6.7-1.7 6.7-3.9 0-1 1.2-2.3 2.7-3q2.8-1.2 1.5-2.3c-.8-.8-3-.8-8.2.2-5.9 1.1-7.4 1.1-9.5 0-2.5-1.4-2.5-1.4 3.7-3.7 5.8-2.2 6.8-2.3 12.6-1.2A20 20 0 0 0 67 700c0-1.6-3.4-2-6.7-.9-2.4.8-4.2.8-6.5 0a20 20 0 0 0-14.6.9m459.9 5.6q0 1.7.6.6.4-1.2-.1-1.9-.6-.5-.5 1.3m-338.4 3.1c-1.8 1.7 1 3.7 3.8 2.7q1.8-.6.4-2c-1.2-1.5-3.1-1.8-4.2-.7M301 726.5c-1.7 2.1.9 6 4.7 7 2.2.5 3.1.2 4.5-1.5q4.7-5.7-2.4-5.1-1.5 0-2.3-.9c-.9-1.5-3.1-1.2-4.5.5m-108.9.4c-.8.5-2.9.7-4.7.4-2.9-.5-3.5-.2-4.5 2-2.2 4.8 1.7 8.1 4.2 3.5 1-1.9 1.2-1.9 2.1-.5 1.4 2.7 4.4 2 6.6-1.5 1.1-1.8 1.8-3.6 1.6-4-.7-1.1-3.6-1-5.3.1m69.9.6c-1.6 1.9-.5 4.7 1.7 4.3q1.7-.4 1.8-2.7c0-2.9-1.7-3.7-3.5-1.6m64.7.9c-.9 2.2 1.8 4 3.3 2.2q1-1.5.5-2.6c-.9-1.5-3.2-1.2-3.8.4m-9.9.7c-2.4 1.4-2.3 4.9.1 4.9s4.5-2.5 3.7-4.5c-.6-1.7-1.4-1.8-3.8-.4m16.7-.1q-.5 1 0 2c.8 1.3 3.5.1 3.5-1.6 0-1.6-2.6-1.9-3.5-.4m-291.9.9c-1.1 1.7 3.5 6.1 6.2 6.1 1.5.1 4.4.7 6.4 1.4 3.1 1.1 4.1 1.1 5.5 0 1.7-1.2 1.6-1.3-.9-2.3-2-.8-2.8-1.7-2.8-3.6 0-3.2-3.2-3.4-5.5-.3l-1.6 2.3-1.6-2.3c-1.6-2.2-4.7-3-5.7-1.3m69.4.5q.2 1.5 2.1 1.6c2.4 0 2.1-2.3-.4-2.8q-1.6-.2-1.7 1.2m182.5-.4c-.7 1.1 1.2 5 2.4 5 1.5 0 3.3-2.9 2.7-4.5s-4.1-2-5.1-.5m-262 1q.6.9 1.6 1 .8-.1.9-1-.1-1-1.6-1-1.3 0-.9 1m238.8.6q-.5 1.7 1.2 3.1c1.6 1.1 2.1 1.1 3.4-.1s1.2-1.8.1-3c-1.6-2.1-3.9-2-4.7 0m-253.9.9c-.9 2.1.3 4.5 2.1 4.5 2.1 0 3-2.7 1.5-4.5q-2.5-2.8-3.6 0m182 0c-.4.9-.2 2.1.4 2.7 1.6 1.6 4.7.5 4.7-1.7 0-2.6-4.2-3.4-5.1-1m80.3-.8c-1.3 1.2-.7 3.1 1 3.7 1.8.7 4.7-2 3.7-3.5-.6-1.1-3.8-1.2-4.7-.2m61.7 2.7c-1.6 1.2-1.7 1.8-.6 5.5q1.3 4.1 3 4.1c1 0 2.4.6 3.1 1.2 1 1.1 2.1.3 5.6-3.7 2.4-2.8 4.4-5.5 4.5-6.2 0-2.2-2.3-2.6-4-.7-1.5 1.8-5.4 4.4-6.5 4.4-.3 0-.5-1.1-.5-2.4 0-2.9-2.2-3.9-4.6-2.2m-129.3 1q-1.2 1.3.2 2.5c1.7 1.3 5.4-1 4.3-2.7-1-1.6-3.1-1.5-4.5.2m97.4.6c-.8 2.6.7 4.5 3 3.6 2.1-.8 1.6-5-.7-5.4q-1.6-.2-2.3 1.8m23.8.5c-1 .8-2.8 1.5-4 1.5-2.6 0-3 2.2-.8 4 1.2 1 1.8 1 2.9.1q1.5-1.3 3.4-.2 3.4 2.1 3.2-3c0-3.2-2.1-4.3-4.7-2.4M32 737q.1.9 1 1 1-.1 1-1t-1-1a1 1 0 0 0-1 1m148.5.9c-1 1.7.4 3.1 3.1 3.1q2.8 0 2.2-1.8c-.4-1.9-4.3-2.9-5.3-1.3m138.2-.3c-1.4 1.4-.7 2.5 1.3 2.2q2-.4 2.1-1.3c0-1.2-2.4-1.8-3.4-.9m-301 3q-.5.8.4 2.6c.8 1.5 1.3 1.7 2.5.7 2-1.6 1.7-3.9-.4-3.9-1 0-2.2.3-2.5.6m152 0c-1.6 1.6-.6 3.4 1.9 3.4q2.8 0 2.2-1.7c-.3-1.9-2.9-2.9-4.1-1.7m34.3 1.1c-1.4.3-2.9.9-3.4 1.3-1.3 1.3 1.4 4.2 3.1 3.5.8-.3 2.1.2 2.9 1q3 2.7 5.3-2.1c1.9-4.2-.1-5.1-7.9-3.7M66 745q0 2 1.3 1.7 1-.5 1.2-1.7c.2-1.2-.6-1.5-1.2-1.8q-1.2-.2-1.3 1.8m125.5-1c-1.1 1.8 1.3 3.6 3.1 2.5q1.4-1 1.7-2c.3-1.4-4-1.8-4.8-.5m-141.7 4.4c-.5 2.3.7 4.6 2.2 4.6.4 0 1.2-1.1 1.8-2.4q1-2.4-.1-3.5c-1.8-1.8-3.4-1.3-3.9 1.3m280.6-1.3c-.9 1.5 1.2 3.3 3 2.6q1.5-.7 1.6-2.2c0-1.7-3.5-2.1-4.6-.4m39.1-.1c-.9 1.5.4 3 2.6 3q1.9 0 1.9-2c0-2.1-3.3-2.9-4.5-1m7 0q-.6 1.2.3 2.2c1.4 1.4 4.5.2 4-1.5s-3.4-2.1-4.3-.7m-18.4 1q-1.2.8-.7 1.9c.9 1.3 4.3 1.5 5.1.2s-2.8-3.1-4.4-2.1m-315.6 1c-.7 1.2 2 6 3.4 6 1.8 0 2.9-2.5 2-4.8s-4.3-3-5.4-1.2m342.7.2c.5 1.5 2.8 1.8 2.9.3q-.1-1-1.7-1.3t-1.2 1m-327 .9q.4 1 1.3 1 1.2 0 1.3-1t-1.3-1.1c-1.5-.1-1.5.5-1.3 1.1m-34.6.8q-.6 1.2-.2 1.8c.9.9 1.9-.4 1.4-1.8q-.4-1.7-1.2 0m8.9.1q-.5 1 .5 2.6 1.3 1.7 2.6.3 1.6-1.2.3-2.5-2-2.5-3.4-.4m126.1-.1c-.4.5-.2 2.1.4 3.6.8 2.2 1.5 2.6 3.5 2.2 3.1-.5 4.2.8 1.8 2.1-1.4.9-1.5 1.3-.4 2.6 1.5 1.8 5.6 2.2 6.6.6.3-.5-.3-1.7-1.4-2.6-1.9-1.7-1.9-1.7.1-4.5 2.1-2.8 1.8-4.9-.8-4.9-.7 0-1.9.9-2.6 2s-1.6 2-1.9 2q-.7-.2-1.2-2c-.5-2-3.1-2.7-4.1-1.1m38.2.8c-.9.2-2.4 1.6-3.3 3l-1.7 2.5-1.4-2.1c-2.4-3.3-7.9-2.2-5.7 1.1.4.7.8 2.6.9 4.1.1 1.6.6 3.3 1.2 3.9 1.2 1.2 7.9 0 9.5-1.7.9-1 1.6-.9 3.4.2 2.1 1.4 2.4 1.3 4.8-1.3 1.4-1.5 2.5-3.1 2.5-3.6 0-1.6-3.1-2.1-5.7-.9-2.7 1.2-2.6 1.4-.7-3.3.6-1.5-1.2-2.4-3.8-1.9m135.3 2.6c-.9 1.1-.7 2 .8 3.8 1.9 2.3 2 2.3 3.8.6 1.4-1.3 1.5-2.1.7-3.5-1.5-2.2-3.8-2.6-5.3-.9m25.4.1c-1.6 1.2-1.8 1.7-.7 2.8 1.5 1.5 4.7 0 4.7-2.2 0-2-1.8-2.2-4-.6m11.5 0q0 1.4 1.2 2.2 1.1.7-1.1 1.6-2.3.8-1.9 3c.4 2.8 4.5 3.8 5.4 1.3.6-1.4.8-1.4 2.5.1 2.3 2.1 4.9 1.2 4.9-1.7 0-1.2.7-2.7 1.7-3.4 2.3-1.7 1-4.7-1.9-4.3q-2.4.2-2.1 2.4t-2.2 3.2c-2.7 1.3-4.5-.2-2.6-2.1s1.2-3.7-1.4-3.7q-2.4.1-2.5 1.4m-28.6 2.1c-.7 2.7.9 5.5 3.1 5.5 1.9 0 3.6-5.5 2.2-6.9-1.9-1.9-4.6-1.2-5.3 1.4m47.8-1.2c-1.9 2.2-1.8 5.8 0 7q3.5 2.3 4-4.3c.3-3.7-1.9-5.3-4-2.7m29.8.3q.1 1.4 1.7 1.2c2.5-.5 2.8-2.8.4-2.8q-2 0-2.1 1.6m-266.4 1.2c-.3.5.4 2.2 1.5 3.7 2 2.4 2.3 2.5 3.8 1.1 1.2-1.3 1.3-2 .5-3.4-1.2-1.9-4.9-2.8-5.8-1.4m197.4.7c-1.6 1.9-.6 4.5 1.9 4.5 1.9 0 5.5-4.3 4.4-5.4-1.2-1.1-5.1-.6-6.3.9m-289 1q-1.1 1.2.2 2.3c1.6 1.3 7.5.9 9-.6 1.1-1.1.4-1.3-6.4-2.7q-1.7-.1-2.8 1m116.5-.4c-.8 1.3 3.3 5.9 5.2 5.9 2.2 0 2.7-2.9.8-5-2-2.2-5-2.6-6-.9m220.6 1.5q-3.5 4.5.1 5.2c2.2.4 4.5-2.2 4.3-4.9-.2-3.3-2-3.4-4.4-.3m26.2 1c-.9 2.3 1.3 4 3.2 2.4.8-.7 1.5-1.9 1.5-2.6 0-1.9-3.9-1.8-4.7.2m-397.3.1c0 1.1 6 3.7 6.7 2.9q.5-.7-.3-1.5c-1.3-1.2-6.4-2.3-6.4-1.4m93.7 0c-.4.3-.7 1.8-.7 3.1 0 2.4.1 2.4 1.8.9 2.6-2.4 3.2-2.1 3.2 1.6 0 2.4-.6 3.5-2.2 4.2-2.9 1.3-3.5 3.5-1 3.5 1 0 3.1 1.1 4.6 2.5 3.1 2.8 4.4 3.1 7.1 1.2 1.4-1.1 1.6-2.1 1.1-4.3-.4-1.6-.7-4-.7-5.4q0-6.2-2.4-4c-1.2 1-1.6.8-2.5-1.4-.8-2.1-1.6-2.6-4.3-2.6-1.9 0-3.7.3-4 .7m9.3 10.4q0 .9-1 .4c-.5-.3-1-1.1-1-1.6q.1-.9 1-.4a2 2 0 0 1 1 1.6m-89.6-8.6c-1.2 3 .1 5 3 4.8 1.6-.1 4.2.5 5.8 1.3 3.1 1.6 6.8 1.1 6.8-1.1q-.1-1.2-2.1-1.8-1.9-.6-1.5-1.5c1-1.7-1.8-3-6.7-3q-4.8-.2-5.3 1.3m373.6-.6c-2.7.7-3.8 3.7-2.1 5.4q1 1 2.7-.4c.9-.7 2.5-1.8 3.7-2.4 5.1-2.5 2.1-4.4-4.3-2.6m30.3.7c-.3.9.2 2.3 1.1 3.2 1.5 1.5 1.7 1.5 3.3 0 1.5-1.6 1.7-1.6 2.9 0 1 1.3 1.7 1.5 3.1.6a4 4 0 0 0 1.8-3c0-1.6-.9-1.9-5.8-2.1-4.4-.2-5.9.1-6.4 1.3m25.1 0q-1 .6-.6 5.4c.2 2.8.1 5-.4 5l-6.9.6c-11.6 1.1-11.1 6 .8 7.1 7.1.6 10.2 2.3 4.5 2.3-5.8.1-14.3 2.5-14.6 4.2-.4 2 4.6 3.8 10.9 3.8 4.5 0 7 1.2 5 2.4-.5.4-3.7.9-7 1.2q-6 .7-7.7 2.5c-1.6 1.8-1.6 2.1.6 4.5 3.3 3.4 6.6 2.9 6.2-.9-.3-2.6-.2-2.7 4.5-2.7h4.9l-.4 4c-.5 4.4 1 7 3.9 7 1.9 0 2.7-1.8 3.1-8 .2-2.8.7-3.5 2.3-3.3a89 89 0 0 0 19.9.9c2.3-.6 2.6-1.2 2.6-4.6 0-2.2-.4-4-.9-4s-1.1-1-1.3-2.2c-.3-2.6-4.3-3.6-13.8-3.8-3 0-6.2-.5-7-1.1-1.1-.7 1.5-.9 8.7-.7 5.6.1 10.5 0 10.8-.4 1.4-1.4-.7-2.8-4.2-2.8-2.9 0-3.3-.3-2.4-1.4q2.7-3.3-7.9-3.8c-5.9-.3-6.5-.5-7-2.8-.4-1.4-.5-3.1-.2-3.8.5-1.4 9.2-1.7 9.2-.2 0 .5-1.6 1-3.6 1-5.5 0-3.7 2.4 2 2.8 3.5.2 5.3-.2 6.7-1.4 2.4-2.1 2.4-5 .2-5.9a100 100 0 0 0-20.9-.9M485 778q3 .8-3.7.9c-3.6.1-6.3-.3-6.3-.9 0-1.2 6.4-1.2 10 0m6.4 9.9q1.8.2 1.4.7c-.8.8-16.8-.7-16.8-1.5 0-.4 3-.4 6.8 0zm6.4 4.6c2 .7 1.4 2.5-1.3 3.5q-2.6.9-11.2-.2c-8.5-1-11.8-2.2-10.8-3.8.4-.7 20.8-.3 23.3.5M457.5 764c-1.1 1.8 1.3 3.6 3.1 2.5q1.5-1 1.7-2c.3-1.4-4-1.8-4.8-.5m39.5 1q0 .9.9 1 1-.1 1.6-1 .4-1-.9-1-1.5 0-1.6 1m-432 1q.2.9 1.5 1c1.3.1 1.5-.5 1.5-1q-.2-1-1.5-1c-1.3 0-1.5.4-1.5 1m6.7-.3c-1.2 1.1-.8 2.3.8 2.3q1.3-.2 1.5-1.5c0-1.6-1.2-2-2.3-.8m421.3.8q.1 1.3 1.5 1.5c1.4.2 1.5-.7 1.5-1.5s-.7-1.5-1.5-1.5-1.5.7-1.5 1.5M189.3 768c-2.6 1.1-2.7 1.4-1.3 4.1 1.3 2.3 5.5 2.5 6.4.3.6-1.6-.9-5.4-2.2-5.3-.4 0-1.7.4-2.9.9m146.2-.1q-.4 1 .2 1.4c1.5.9 6.8 1.1 8.1.3 2.1-1.3.3-2.6-3.8-2.6-2.1 0-4.1.4-4.5.9m47-.2c-4.9 1.2-6 5.1-2.3 7.7q3.6 2.3-1.6 1.6c-1-.1-3.1.4-4.7 1-5.2 2.2-3 7.3 3.6 8.6 1.8.3 3.8.3 4.4-.1 1.3-.8 1.4-2.5.2-2.5-.5 0-2.2-.5-3.7-1q-2.8-1.1-1.7-2.1c1.3-1.3 5.3 1 9.5 5.3 1.4 1.6 3.1 2.8 3.7 2.8q1 .2 1.1 2c0 2.1-1.5 2.7-2.5 1-1-1.6-4.5-1.2-5.2.6-.3.9.4 2.6 1.9 4.1 2.1 2.1 3.1 2.3 6.2 1.7 3.9-.7 6.2-4 5.3-7.5q-.2-1.5 1.4-2.8c1.1-.6 1.9-2 1.9-3s.7-2.4 1.6-3.1c.8-.8 1.4-2.5 1.2-3.9-.2-2.1-.9-2.7-3.4-2.9-1.8-.2-4.9.4-7 1.3-4.3 1.8-5.8 1.2-2.6-1.1 2.7-1.9 2.9-6 .3-7.4-2-1-4.2-1.1-7.6-.3m4.5 4.4q0 .8-1 .9-.9-.1-1-1.6.1-1.3 1-.9 1 .6 1 1.6m10.3 8q-1.1.8-2.8.3c-1.8-.7-1.8-.8.1-1.4 2.3-.9 3.9-.1 2.7 1.1m-3.8 4.9q.4.9-.9 1-1.5-.1-1.6-1 0-1 .9-1t1.6 1m34.9-16.9c-.9 1.5 1.2 3.3 3 2.6q1.5-.7 1.6-2.2c0-1.7-3.5-2.1-4.6-.4m-277.1.6a4 4 0 0 0-2.9 2.7c-.6 2.6 1.1 7.6 2.6 7.6q1 .2.8 4.1c-.4 4.9 1.6 6.4 2.5 1.9.4-1.6 1.1-3 1.7-3s2.7-1.2 4.6-2.6q6.7-5.2 0-9.3c-3.3-2.1-4.8-2.3-9.3-1.4m8.7 5.4c0 2.4-2.3 2.1-2.8-.4q-.2-1.6 1.2-1.7 1.5.1 1.6 2.1m5.6-4.2c-.8 1.3.3 3.8 1.9 4.5 1.8.6 3.9-2 3.1-3.9-.6-1.6-4.1-2.1-5-.6m184.4.1q-1.7.9-.3 2.1c1.4 1.4 4.6.4 4.1-1.3q-1-2.4-3.8-.8m9.3 1.7c-.9 2.2 1.2 3.7 3.3 2.5 1.4-.8 2.1-.6 3 .6 1.2 1.6 1.4 1.6 3 0 .9-.9 1.4-2.3 1.1-3.1-.8-2-9.7-2-10.4 0m-318.1 1.5c.5 1.5 3.7 1.8 4.1.3.1-.6-.9-1.2-2.2-1.3q-2.4-.4-1.9 1m289.6 1.6c-1.9.4-2.5 4.2-.7 4.2 1.6 0 4.9-2 4.9-2.9 0-1.2-2.1-1.8-4.2-1.3m86.9-.2c-1.4 1.4-.7 3.5 1.1 3.2q1.5-.5 1.7-1.7c0-1.6-1.8-2.5-2.8-1.5m24.6.1q-1.2.6-1.3 1.8c-.1 1.2.6 1.5 1.3 1.8 1.4.5 4.7-1 4.7-2.2 0-1.1-3.1-1.9-4.7-1.4m54.7 1.7q.1 1.5 1.6 1.6c1.7 0 1.4-2.2-.4-2.8q-1.1-.2-1.2 1.2m-175.4.9c-1.5 1.1-1.5 1.5-.3 3.1 1.7 2.3 4.7 1.5 4.7-1.3 0-2.4-2.3-3.3-4.4-1.8m-214.2.8c-1 1.7 1.3 3.6 2.7 2.2 1.2-1.2.4-3.3-1.1-3.3q-.9.1-1.6 1.1m206.8.8c-1.8 1.1 2.4 8.3 4.7 7.9 2.6-.5 2.6-5.3-.1-7.2-2.6-1.8-2.8-1.9-4.6-.7m17.8 3c0 3.6 2.7 9.1 4.5 9.1s3.2-2.3 1.7-2.8c-1.7-.5-1.5-2.2.3-2.2 1.7 0 3.9-3.6 3.2-5.4-.3-.6-2.5-1.2-5.1-1.4-4.4-.1-4.6-.1-4.6 2.7m20.8-1.8c-2.6 1.5-2.2 3.9.6 3.9 3.1 0 5.6-2.8 3.5-4.1-1.7-1.1-2-1.1-4.1.2m66.2-.2c-.8.6-2.6.7-4.1.4-3.3-.6-4.7 1.3-2.5 3.5 1.9 1.9 8.4 2.6 10.3 1 .7-.6 1.3-2.1 1.3-3.4 0-2.5-2.2-3.2-5-1.5m9 2.6q-1.4 1.7-.2 2.7c1.5 1.5 6.2-.5 6.2-2.7 0-2-4.4-2-6 0m-372.3.2c-1.3 1.2-.7 2.3 1.3 2.3q1.8-.2 2-1.5c0-1.5-2.1-2.1-3.3-.8m60 1c-1.3 1.2-.7 4.3.8 4.3q1.3 0 1.5-.9l.6-2.5c.6-1.6-1.6-2.3-2.9-.9m325.9 3.2c-1 1.5.4 3.9 2.7 4.5 2.9.7 4.5-.9 3.1-3.2-1.3-1.9-4.9-2.8-5.8-1.3m-80.1 1.1c-1.3 2.1 1.5 3.8 5.8 3.6 3.4-.2 4.2-.6 4.2-2.1 0-1.6-.9-2-4.7-2.2-2.6-.2-5 .2-5.3.7m72.5 1.5c0 .8.9 2.4 2 3.5 3.8 3.8 7.4 1.8 4.6-2.5-1.9-2.8-6.6-3.5-6.6-1m-110.7.2c-1.8.7-1.6 6 .3 7.1 2.2 1.2 8.5-.9 8.2-2.8q-.5-1.3-2.1-1.5-2.2-.3-2.8-1.8c-1-1.8-1.5-1.9-3.6-1m24.1.8c-.4.9-.2 2.1.4 2.7 1.6 1.6 4.7.5 4.7-1.7 0-2.6-4.2-3.4-5.1-1m24.6 2.8c0 2 2.6 3.9 4.7 3.5q1.6-.5 1.8-2.3.2-2.1-3.2-2.3-3.4-.4-3.3 1.1m28.6.3c-2 1.9-1.2 3.4 1.8 3.4 2.5 0 4.6-1.7 4.6-3.7 0-1.8-4.5-1.6-6.4.3m-95.6.8c0 2.2 2.8 3.9 4.7 3 1-.4 2.5-.9 3.3-.9l2.8-.4q1-.2 1.2-1.6c0-1.2-1.3-1.5-6-1.5-4.4 0-6 .4-6 1.4m108.2-.2c-1.3 1.3.2 3.8 2.3 3.8s3.6-2.5 2.3-3.8q-1.2-1.1-2.3-1.2t-2.3 1.2m-66.2 3.2q-.9 1.3.6 3.5c1.3 1.8 2.2 2.1 4.7 1.5q6-1.2 5.5-4.3c-.4-2-9.2-2.5-10.8-.7m15.5 2.6q-.6 1.2.3 2.2c1.4 1.4 5.7.6 5.7-1.2s-5-2.6-6-1m64.1-.1c-.8 1.3.8 5.4 2.8 7.1 1.5 1.1 1.9 1.1 3.3-.2s1.3-2 .1-4.4c-1.3-2.9-5.1-4.4-6.2-2.5m8.9-.1c-1 1-.5 5.8.7 7 1.5 1.5 4.8 1.6 4.8.2q.2-1 2.3-1c1.3 0 2.8-.5 3.5-1.2 1.6-1.6 1.5-4.8 0-4.9-7.9-.5-10.8-.6-11.3-.1m-104.8 1.6c-.3.8.1 2.2.8 3.3 1.3 1.7 1.5 1.7 3.6-.3 1.2-1.2 1.8-2.7 1.5-3.3-1-1.6-5.3-1.4-5.9.3"/><path d="M478.2 800.8c-1.7.5-1.5 2.9.4 3.6 1.7.6 5.4-.9 5.4-2.3 0-1-4-1.9-5.8-1.3m-161.7 2.1c-1.6.3-3 1.2-2.9 1.9l.3 3.1c.2 2.5 3 3.5 5 1.7.9-.8 2.5-1.6 3.6-1.8q2-.3 2.3-3.1c.3-2.4 0-2.7-2.5-2.6-1.5.1-4.1.4-5.8.8m-12.7 2q-1.1 2-3.8 1.4-2.6-.4-3.8 1c-.7.8-2 1.3-3 1.1-2.2-.5-4.7 1.1-3.8 2.5.8 1.3 4.2 1.5 5 .3.3-.5 1.9-.7 3.5-.4q3.2.5 3.7-1.1c.5-1.3.9-1.4 2.6-.4 1.6 1 2.2.8 3.9-1.2 1.1-1.3 1.8-2.9 1.6-3.5-.7-2-4.5-1.8-5.9.3m81.5-1.2c-1.9.7-1.6 4 .4 4.7.9.4 2.3 0 3.1-.8 1.3-1.2 1.3-1.8.2-3-1.3-1.7-1.7-1.8-3.7-.9m14.2.3c-.8 1.3 1.3 4 3 4 2.1 0 3.6-2.5 2.3-3.8-1.5-1.5-4.5-1.6-5.3-.2m-6.8.7c-1 1 1.3 3.3 3.4 3.3 2.6 0 3.3-1.7 1-2.9q-3.2-2-4.4-.4m24.8.3c-.9 1.5 1.4 4 3.6 4 2.4 0 3.3-1.8 1.9-3.5s-4.6-2-5.5-.5m-66.9 1.8c-.2.4-.1 1.4.3 2.1 1.1 1.8 4.5 1 4.9-1.2q.6-1.8-2.2-1.7c-1.4 0-2.7.4-3 .8m60.4.1q.1.9 1.5 2.1c1.2 1 1.8 1 3 0q1.3-1.2.9-2.1c-.7-1.2-5.4-1.2-5.4 0m-71.5 1.2c-.9 1.3 1.3 3 3.5 2.6q1.4-.3 1.5-1.7c0-1.8-4-2.6-5-.9M11.2 827.8c-5.2.2-6.3.6-5.8 1.8.3.9.6 8.6.6 17.2v15.7l6.5.2c7 .2 7.5-.3 5-4.7-1.8-3.1-2-10.9-.2-11.4q20.2-5.4 13-14.5c-2.3-2.8-10.8-4.7-19.1-4.3m9.6 9.3q.3 4.6-1.2 5.8-3.7 3.2-3.6-5.5c0-5.2.2-5.5 2.3-5.2 1.9.3 2.2 1 2.5 4.9m86.2-8.8c-.3.3-3 .7-6 .8-6.9.3-7.3.5-5.6 3.2 1.1 1.6 1.5 5.8 1.5 15.9 0 7.6.2 14.1.4 14.5s5.4.8 11.4.8h10.8v-5c0-4.7-.2-5-2.5-5q-2.6 0-2.8 2.1-.2 2.3-3.3 2.6c-1.6.3-3.1.2-3.4 0s-.5-2.8-.5-5.6c0-3.9.3-4.7 1.2-3.8.7.7 2.3 1.2 3.6 1.2 2.1 0 2.3-.4 2-4.3-.3-4.2-.3-4.2-4.1-4.1l-3.8.1.3-5.6c.3-5.2.5-5.6 2.8-5.6 2 0 2.6.6 3 3 .7 3.9 3.6 4.5 5.2 1 .9-2.1.9-2.9-.4-4.1-1.5-1.5-8.8-3.1-9.8-2.1m95.6.4c-.4.4.3 1.5 1.6 2.5 2.2 1.6 2.3 2.2 2.1 14.8-.1 7.9-.6 13.7-1.3 14.5-1.5 1.8-.6 2.1 6.8 2.9 5.2.6 6.3.4 6.8-.9q.5-1.5-1-2.8c-1.3-1-1.6-2.5-1.4-6.7l.3-5.5 5.8-.9c6.8-1 12.7-5.6 12.7-9.8 0-2.8-3.2-6.2-7.3-7.7-3.1-1.2-24-1.5-25.1-.4M225 833c.5.9.7 2 .3 2.4s-.9 2.3-1.2 4.3c-.5 3-1.1 3.9-3 4.1-1.3.2-2.7 0-3.2-.5-1.3-1.3-2-11.6-.8-12.3 1.7-1.1 6.9.2 7.9 2m10.5-3.9q-.4.7.4 1.4c.6.3.8 6.3.5 14.9-.2 7.9-.1 15.1.2 16.1.5 1.2 1.9 1.6 5.8 1.5H253c6.5 0 8.3-1.6 7.8-7-.3-3.1-.6-3.5-3.5-3.8-2.4-.2-3.3.1-3.8 1.7-.3 1.2-.3 2.5 0 3.1.3.5-.6 1.5-2.1 2-4 1.5-5.4-.2-5.4-6.6 0-5.6.8-6.6 3-3.9a4 4 0 0 0 3.4 1.3c1.6-.2 2.2-1.1 2.4-3.9q.5-7.6-5.8-4.5l-3.1 1.5.3-5.7c.3-5.6.4-5.7 3.2-5.7 2.3 0 3 .5 3.3 2.4q1 5.2 4.7 4.9c1.6-.2 2.2-1.1 2.4-4.1.5-6.1-.5-6.7-12.9-6.5-6 0-11.2.4-11.4.9m29.2-.4q-1.7 1.7 1.3 2.8c1.8.6 1.9 1.4 1.6 14.2-.3 11.5-.6 13.8-2.1 14.9-1.6 1.2-1.5 1.3.2 2.2 2.3 1.3 9.4 1.2 11.1-.1q1.5-1-.6-2.3c-1.6-1.1-2-2.8-2.1-9.9-.1-4.7.2-8.5.6-8.5s2.4 3 4.3 6.7c1.9 3.6 4.8 8.4 6.3 10.5 2.5 3.4 3.2 3.9 5.5 3.3 1.5-.3 3.7-1.3 4.8-2 2.1-1.3 2.1-1.9 1.6-14.4-.4-11.5-.3-13.1 1.2-13.7q3.7-1.4-1.5-3.3c-3.8-1.3-9.6-1.4-10.3-.2-.3.5.5 1.6 1.8 2.4 2.1 1.4 2.4 2.3 2.5 9.7.2 10.6-1.1 10.2-6.5-1.9a45 45 0 0 0-5.5-10.2c-1.6-1-13.2-1.2-14.2-.2m53.6.3c-8.3.3-15.4.8-15.8 1.2-1.2 1.1.6 8.8 2 8.8.7 0 2.2-1.1 3.2-2.6q1.9-2.5 3.6-1.8c1.6.6 1.8 2.1 1.6 14.3l-.1 13.6 5.8.6c6.8.7 8 .3 6.2-1.8-.9-1.1-1.3-5.3-1.3-14.2v-12.6l2.8-.3c2.2-.3 3 .1 3.4 1.8q.4 2.3 3.2 1.8c2.1-.2 2.7-.9 2.9-3.3.6-5.7-.6-6.1-17.5-5.5"/><path d="M35.6 831.7c.3 1.8-.1 4.5-1.1 6.9-.9 2.1-2.5 7.5-3.7 11.9-3.5 13.9-3.5 12.6.3 12.4 1.9-.1 4.9.1 6.7.5 3.8.9 4.3-.7 1.1-3.3-2.2-1.7-2.2-1.8-.4-7.4 2.1-6.8 3.3-7.9 7.6-7.5 3 .3 3.5.8 5.6 6.3 1.3 3.3 2.1 7 1.8 8.1-.4 2 0 2.2 5 2.9 8.6 1 9.2-.2 4.7-9.3-1.6-3.1-4.2-9-5.7-12.9s-3.6-8-4.6-8.9q-1.8-1.6-9.8-2.1l-8.1-.6zm11.2 6.2c1.2 3.3-.5 5.8-3.2 4.8-1.2-.5-1.2-1.2-.4-4.1 1.4-4.4 2.3-4.5 3.6-.7M341 830q-1.6.9-.2 2.2 1.2 1.5.3 4.9-3.1 12.9-3.6 16.1l-1 5.9c-.6 3.2-.5 3.7 1.6 4.2 3.9 1 5.2-.6 5.3-6.5.1-6.4 1.7-8.8 5.8-8.8 2.6 0 3.2.7 6.1 7 2.8 6 3.7 7.1 6.6 8 3.6 1 9.1.3 9.1-1.1q-.1-.8-1.4-.9c-2 0-3.6-2.4-6.3-8.8-3.7-9-5.5-16.4-4.9-19.4.5-2.7.4-2.8-3.7-2.9-2.3 0-6-.2-8.3-.4s-4.7.1-5.4.5m8.9 11.2c1.2 3.4.1 5.1-2.6 4.1-1.4-.6-1.6-1.6-.7-5.1q1.3-4.7 3.3 1m27.4-9.2c-5 3.7-6.7 8.1-6.1 15.5.7 8.6 6.4 14.1 15.7 15.2 5.2.6 11.1-1.6 11.1-4.2q0-2.7-6.6-.3c-3.9 1.4-5.6.4-8.5-5.4a12 12 0 0 1 1.3-13.3c1.5-2 2.3-2.3 3.3-1.5.8.6 1.2 1.7.9 2.4s.2 1.8 1 2.5c1.3 1.1 2.1.9 4.4-1.1 3.2-2.5 7.2-7.8 7.2-9.5 0-1-12.2-3.3-17.3-3.3-1.3 0-4.2 1.4-6.4 3m28.3-1.7q-2 1.3-.9 3.1a74 74 0 0 1-1.4 25.9c-.8 1.6-1.2 3.1-.9 3.5.7.7 22.2.3 25.3-.5 3-.7 6.9-7.3 5.1-8.4-2-1.2-5.9.1-10 3.3-2.8 2.2-3.9 2.6-4.3 1.6-.7-2 0-23 .9-25.5.7-1.9.3-2.3-3.1-3.2q-7.5-2.2-10.7.2m-331.6.4a14 14 0 0 0-9.8 9.1c-1.7 5.6-1.5 8.7.8 13.2 3 5.9 8 8.7 16.7 9.3s10.3-.5 10.3-7.5c0-4.5-.1-4.5-3.7-5.2-9.8-1.6-18 .2-8.7 2 3.9.7 7.4 4.8 5.7 6.5-.6.6-3 .9-5.4.7l-4.4-.3-1.3-6.3c-1.8-8-.9-14.8 2-16.3a14 14 0 0 1 6.9-.6q8.3 1 4.3-3.4c-1.7-1.9-6.9-2.4-13.4-1.2"/><path d="M434 830.5c0 .3.7 1.7 1.6 3s1.3 2.9.9 3.5-.7 6-.7 11.8c0 8.2-.4 11.1-1.5 12.4-1.3 1.5-1.3 1.8-.2 2.2s21.4.2 24.2-.3c.4 0 .7-2.2.5-4.8-.3-4.1-.6-4.8-2.5-5.1s-2.2-1.1-2.5-4.4c-.4-4.9-2.7-7-5.8-5q-1.8 1-2.1.5l-.4-4.3q-.8-7.1 2.6-7c1.5 0 1.9.7 1.9 3.4 0 2.6.5 3.6 2 4.1 1.2.4 2.7.1 3.5-.5 1.6-1.3 2.1-7.5.7-8.4a144 144 0 0 0-22.2-1.1m16.3 22.2c2.3.7 2 6.1-.5 7.6-2.6 1.7-4.8-.9-4.8-5.5 0-3.4.3-3.9 1.8-3.3.9.4 2.5 1 3.5 1.2m17-21c-3.4.7-4.6 2.8-3.8 7.2.8 4.6 1.5 5.4 7 7.1 6.5 2 8.4 4.3 7.5 9.1-1.3 6.8-4.5 7.8-7.2 2.2-.7-1.5-2.1-2.9-3-3.1-2.6-.5-6 3.5-5.6 6.6l.3 2.7 11.4.3c14.5.3 15.5-.3 14.9-9.6-.5-7.4-2.2-9.6-8.7-10.9-5.1-.9-7.2-3.3-5.5-6.1 1.4-2 6-1.8 8.5.4 1.9 1.7 4.1 1.8 5.7.2a3.6 3.6 0 0 0-.7-5.8 74 74 0 0 0-20.8-.3m-307.2 3.4c-6.2 2.5-6.6 7.4-1.1 13.6 7 8 7.5 15.8 1.4 19.8q-4.8 3.3.6 3.5c3.5 0 9.2-4.6 11-9 .9-2.1.9-3.7.2-5.9q-1.8-5.5 2.9-3.1c3.8 2.1 4.6-.4 1.4-4.9-3-4.5-5.2-5.5-9.3-4.6-3.3.7-6.8-2.4-5.8-5 .4-1.2 1.4-1.4 4.6-.9 4.5.7 5.3-.6 1.8-3-2.5-1.8-4.2-1.9-7.7-.5"/><path d="M144.3 848c-3.5 1.4-4.6 4.5-2.8 8 2.6 5.1 7.8 6.4 13.5 3.5 4.7-2.4 4.9-6.5.4-10.9-1.7-1.7-7.5-2-11.1-.6m6.9 4.5q1.2 2.7 0 3.7c-2.3 2.3-6.1-1.4-4.8-4.7.9-2.3 3.5-1.8 4.8 1m341.2 9c-.4.9-.2 2.1.4 2.7 1.5 1.5 4.4.1 4-1.9-.4-2.3-3.6-2.9-4.4-.8"/></svg>