<svg xmlns="http://www.w3.org/2000/svg" width="666.7" height="1170.7" viewBox="0 0 500 878"><path d="M124.5 92.3c-7.6 4.5-8.5 5.3-8.5 7.6v2.4l-2.3-2.1c-2.7-2.6-4.5-2.7-7.3-.8q-2 1.5-3.5.5c-2.4-1.5-3.7-1-5.5 2.1q-1.7 3-4.8 3.2c-3.4.3-4.9 2.8-1.7 2.8q2 .1 2.1 1.4c0 .7.6 1.9 1.4 2.5 2.4 2 5.6-.4 5.6-3.9 0-1.7.5-3 1-3q1 .1 1 1.2c0 .7.5 2 1 2.8.9 1.2 1.5.9 4-2l2.9-3.5.1 2.7c0 3.5.9 5.8 2.4 5.8 2.8.1 3.8 1.7 2.6 4-1.1 2.1-1.3 2.1-2.2.7-.5-1-1.7-1.7-2.7-1.7-2 0-5.4 3.3-4.4 4.3q.3.7-1.1.7c-1.5 0-1.7-.6-1.2-3.6.6-3.1.5-3.5-1.1-3.2-1 .2-2.6 1.9-3.5 3.8q-1.7 3-1.8 1.8c0-1-1-2.6-2.2-3.8-1.9-1.8-2.3-1.8-3.8-.5-2.2 2-4 1.9-4-.1q.2-1.5 2-2.1c2.6-.7 1.5-2.3-1.5-2.3-2.6 0-4.8 3-4.3 5.7.2.9 2.1 2.6 4.2 3.7 3.8 2 5 4.4 1.9 3.8-1.8-.4-6.6 3.9-9.4 8.5-2.3 3.7-1.6 5.9 2.7 8.7l2.6 1.8-2.6 2.7c-3.2 3.3-3.3 4.7-.4 7.1l2.2 1.8-3.9 1.8q-7.2 3.5-.7 6.3 3.3 1.4 3.2 3.7c0 2.6 2.3 4.7 4.7 4.2 1-.2 2.7-1.8 3.8-3.5 1.1-1.8 2.8-3.2 3.7-3.3 2.4 0 5.8-3.9 5.8-6.5 0-1.2 1.3-3.1 2.9-4.3 2.8-2 3-2 4.5-.3a8 8 0 0 1 1.6 4.7c0 6.5 5.5 9.7 8.5 5a9 9 0 0 1 3.2-3c1.8-.7 3.5 1.2 2.8 3.1-.2.7.3 3.4 1.1 6 4 12.5 3.6 18.1-2.1 30.1-4.3 9.1-4 12.2 1.2 12.2a15 15 0 0 0 5.6-1.1c3.1-1.6 9.7-8.1 9.7-9.5s4.2-2.6 5.4-1.4q.8 1-2.3 2.7c-2.5 1.4-3.1 2.4-3 4.8.2 5 0 5.4-2.9 6.9-1.6.8-4.4 4-6.3 7.1s-4.9 7.6-6.7 10c-4.2 5.7-5 8-5.8 16.8-2.1 21.3.2 44.9 6.1 64.7a76 76 0 0 1 3.7 38.5c-1.6 11.8-1.6 11.8-5.2 11-1.6-.4-3-.4-3-.1s5.9 3.5 13 7.1c9.4 4.7 13 7 13 8.3a5 5 0 0 0 1.3 3.1q1.6 1.6-1.3.6c-1.4-.4-3.2-1.3-4-2s-5.1-3-9.4-5c-4.4-2.1-9.6-4.8-11.7-6.2a18 18 0 0 0-9.5-2.8c-3.2-.2-6-.8-6.2-1.4q-.4-1-1.2-1.1c-1.8 0-3 7-3 18.1 0 6.5-.4 12-1 12.4-.5.3-2.7-.3-4.9-1.5a20 20 0 0 0-7.4-2c-1.8 0-3.7-.4-4.2-.9s-8.9-2.1-18.5-3.5L47.6 381l-2.9-3.6c-3.6-4.4-7.2-4.4-9.7 0-1.4 2.6-2.4 3.1-8.7 4.2-9.2 1.5-13.5 3-20.6 6.8l-5.8 3.1.3 117.6c.2 89 .6 117.5 1.4 117.2 1.5-.5 7.9-8.1 12.6-14.8 1.9-2.8 6.6-8.2 10.4-12.1l9.5-10q5-5.6 13.7-10.1c9-4.8 10.7-5.8 12.7-7.5 1.1-.9 3.7-2.4 5.7-3.3 2.3-.9 5.3-3.6 7.9-7 2.3-3 4.8-5.5 5.6-5.5q1.2-.1 2-1.8c.3-.9 1.3-2.5 2.1-3.4 1.3-1.6 1.7-1.5 5.6 1.6a66 66 0 0 0 22 11.5l8.1 2.6.6 7.5c.4 4.1.8 13.1 1 19.9l.3 12.4-3.1 1.5c-1.7.8-3.8 3-4.6 4.8-1.6 3.2-1.5 3.4.3 4.4 1.1.6 2 1.8 2 2.6s.6 2.8 1.4 4.2l3.2 6.4c2.9 5.9 9.4 6 9.4.2q0-2.5 1.9-2.4c1 0 2.5-.7 3.2-1.6 1.1-1.4 1.1-1.8-.5-2.9-1.6-1.2-1.6-1.5-.1-4.4.8-1.7 2.2-3.1 3.1-3.1q1.4-.1 2-1.4c.6-1.7-2-7.2-4-8.3-1.1-.6-1.5-4.5-1.7-17.2l-.4-16.5 2.5-.6c1.4-.3 5.2 0 8.5.7 9.3 1.9 15.2 1.7 16.5-.7q1-1.8 2-2c1.5 0 4 5.6 4.1 9.2l.2 3.3.6-3.8c.3-2.1 1-3.7 1.6-3.7 1.7.1.1 17-1.6 17q-.8.1-.9 1.4c0 2.1 4 4.6 7.3 4.6 2.6 0 2.8.2 2.2 3.4-.5 2.4-.1 4.5 1.4 7.4 1.7 3.3 2.1 6 2.1 13.5 0 9.1.1 9.4 3.1 12.5 1.7 1.8 3.5 3.2 3.9 3.2s1.9 3.2 3.4 7.1c2.4 6.5 2.6 8.2 2.6 23.3 0 15 .2 16.4 2 18.1 2.5 2.2 10.9 3.2 14 1.5 1.8-1 2.8-.9 5.5.6q6.4 3.5 9.9-4c2.2-4.8 3.2-5.1 4.8-1.9 1.8 3.8 7 4.4 10.4 1.2 1.9-1.8 2.7-2 3.6-1.1 3.6 3.6 8.8-.3 8.7-6.4-.1-2.1.4-7.7 1-12.4.6-4.9.8-11.7.4-16a96 96 0 0 1 .1-20.8c.2-.2 2 0 4 .4l3.6.6-2.4 2.3a12 12 0 0 0-3.1 5.8c-.6 3-.2 4.1 3 8.3l3.7 4.8-.7 9c-.4 4.9-1 9.9-1.5 11-.4 1.2-1.3 7.3-2 13.6s-1.9 12.4-2.6 13.6a28 28 0 0 0-2 9.7c-.4 4.2-1 7.7-1.5 7.7s-1 1.8-1.4 4c-.9 5.1-3.9 7.5-10.5 8.4-4 .5-5.4.3-6.7-.9-1.3-1.4-3.6-1.5-15.7-1.1-7.7.3-17 .8-20.6 1.1-5.8.6-7.4.4-13-2a40 40 0 0 1-8.7-4.7c-1.8-1.7-2.9-1.9-7-1.3-2.6.4-6.8 1.6-9.3 2.7-4.1 1.9-5.6 2-16 1.3-6.3-.4-16-.9-21.5-1a112 112 0 0 1-29.6-3.5c-7.7-2.4-12-2.5-16-.5-2.6 1.4-3.4 1.4-7.7 0-2.6-.9-7-2.7-9.9-4.1a29 29 0 0 0-6.6-2.4c-.8 0-2-.7-2.7-1.5-1.4-1.7-6-1.9-11-.5-3.8 1.1-4.1.9-8.6-6.8-1.1-2-2.5-3.7-3.2-4-.6-.2-3.5 2.2-6.3 5.2-2.9 3.1-6 5.6-6.9 5.6s-2.3.7-3 1.5-1.9 1.5-2.7 1.5c-3.2 0-7.3 3.1-7.3 5.4v2.4l8.6-3.6a63 63 0 0 0 12.9-7.4c4.6-4 5-4 7 .9 1.9 4.4 5.5 6.1 8.6 3.9 2.5-1.7 7.4-2.2 8.3-.7.3.5 2.6 1.4 5.1 2s6 2 7.7 3.1 3.9 2 4.6 2c.8 0 3 .7 4.9 1.6 3.2 1.6 3.7 1.6 6.9 0 4.6-2.1 8.8-2 17.7.4a94 94 0 0 0 21.7 2.5c24.6.9 30.3 1.2 35.6 1.9 4 .6 6 .4 8.5-1 6.4-3.3 12.8-2.8 23.1 1.8l9.3 4.1 9-1.3c5-.7 13.7-1.4 19.5-1.6 13.7-.5 12.2 1.2-3.1 3.3a98 98 0 0 1-26.9.4c-24.3-2-60.1-3-65.6-1.9-2.9.5-11.4.6-20.9.2-8.8-.5-20.6-.7-26.2-.6-7.4.2-10.9-.1-12.5-1.1a46 46 0 0 0-21.5-4.1 103 103 0 0 1-37-2.1l-5.3-.7V818h5.3l14.2.5c25.3 1.1 64.6 1.6 162 2s144.4.9 183 2l74.8 1.1 60.7.7v-5.9l-12 .4c-9.1.3-12 .1-12-.8q.1-1.4-1.6.1c-1.2 1-5.8 1.3-19.2 1.1-15.5-.2-18.1-.5-21.9-2.3a20 20 0 0 1-4.8-2.9c-.3-.5-1.3-.6-2.1-.3-1.3.5-1.5-.1-.9-4.1.8-4.9-.5-6.3-2.5-2.7-.5 1.1-2 2.1-3.2 2.3q-2.1.4-2.8 2.7c-.9 3.8-2.5 3.5-5.9-.8-1.7-2.1-5-4.9-7.4-6.1a83 83 0 0 0-17.7-8 44 44 0 0 1-14.4-6.9c-.3-.5.8-1.4 2.4-2q2.9-1 3-2.7 0-1.5.8-1c.4.4.7 2.2.7 3.8 0 3.9 1.8 4.6 3.2 1.5.9-1.9 1.8-2.3 4.3-2.2s3.4-.3 4.1-2.1q.9-2.2 2.2-1.8t3-3.7c1.8-4.5 1.4-6.7-.8-4.9q-1.3 1.2-2 0c-.3-.6-1.1-.8-1.6-.5q-.8.4-.9-1.9c0-2.5-2.2-3.6-3.4-1.7-.9 1.5-4.7 0-4.4-1.7.4-1.9 16.7-5.5 18.4-4.1q1.1.9 2.4-.6c.7-.9 1.9-1.4 2.6-1.1s1.6.1 1.9-.5q.8-.9 1.8-.8c.7.1 1.9 0 2.7-.4 1.9-.7 7.2-2.1 8.5-2.2q1 0 2.3-.9c.7-.4 1.9-.2 2.7.4q1.6 1.3 1.5.1c0-.6 1.3-1.1 2.9-1.1 1.7 0 3.3-.5 3.6-1.1s1.4-.8 2.2-.5 2.1.2 2.8-.4q1.1-1 3 1c2.4 2.6 3.3 2.5 4.7-.5 1.3-2.9 3.5-3.2 5.3-.9 1 1.4 1.3 1.3 2.9-1.1q1.9-3 2.6-1.4c.7 1 1.2 1 2.6-.1 1.9-1.7 8.4-2.4 8.4-.9q-.1.8-1.3.9c-.7 0-1.7 1.9-2.3 4.2-.9 4.2-1 4.3-5.9 5.1q-7.4 1.2-7.5 3.8c0 2 4.2 4.9 7.3 5s3 .1-1.5 1.7c-6.5 2.3-7.6 3.6-5.3 6.2 1 1.1 3 2 4.4 2q3-.1 1.1 1c-.8.5-2.5 1-3.8 1q-4.6-.1-1.7 6.6c1.7 4 3.7 3.7 3.9-.7q0-2.4 3.4-3.3 6.5-2 4.1 4.3c-1.1 3.1-.6 20.7.6 21.9q.5.3 2-.1c1.2-.5 1.5-2.6 1.5-11.2 0-14.7-.1-14.6 11.4-13.8q14.5.9 14.6-1.7c0-.6-2.4-1-5.4-1a51 51 0 0 1-17.6-2.1c0-.5 5.4-.9 12.1-.9 9.2 0 12-.3 11.7-1.3-.3-.6-1.9-1.3-3.7-1.5-2.9-.3-3.2-.6-2.7-2.7.5-1.9.1-2.5-2.2-3.3-2.6-1-2.6-1 1.1-1.1 3.1-.1 3.8-.4 3.5-1.9q-.2-1.7-4.8-2.2c-3.6-.4-4.4-.9-4.2-2.2.3-1.9-1.6-2.6-8.1-3-5.8-.4-4.4-2.3 1.9-2.4 3.4-.1 6.2-.8 7.1-1.7 1.3-1.3 1.1-1.7-1.1-3.5q-5-4 .2-4.2c2.3 0 7.3-.2 17-.9 2.1-.1 2.2-.5 2.2-9.5 0-10.3-.2-10.7-6.1-10-1.8.2-4.1.1-4.9-.2-1.9-.9-5.3-1-6.5-.2-2.2 1.3-6 .1-6-1.8 0-2.3 3.3-2.6 11-1.3l8.8 1.4 3.7.4v-33.7l-6-2.9c-7.7-3.6-7.6-5.5.3-6.7l5.7-.9v-4.5c0-4-.4-4.9-4-8-2.3-1.9-5-5.2-6-7.3-2.5-4.8-4.8-6.1-8.9-4.9-3.4.9-12.1 9.2-12.1 11.4 0 1.6-3.2 2.6-5.8 1.9-1-.2-2.3-1.7-2.9-3.3a6 6 0 0 0-3.8-3.6q-2.7-.7-2.2-2.5c.7-2.6-3.4-6-8-6.5-5-.6-8.8 1.4-8.9 4.7 0 4.1-1.1 5-5.4 4.3-6.5-1.1-10.5 5-5.9 9.2l2.1 1.9-2.8 2.1q-2.7 2.2-2 3.9c.5 1.5 1.5 1.7 7.5 1.1 4.3-.4 7.2-.3 7.5.3q1 1.7-12.9 4c-8.4 1.4-25.7 5.1-26.7 5.7-.4.3-6.3 2-13 3.9s-19.3 5.6-27.8 8.3c-17.3 5.6-18 5.8-31.2 7.7-5.1.7-10.1 1.6-11 2q-2 1-1.8-1.8c0-1.4.4-2.8.8-3.1.9-.5 2.1-5.8 4.3-18.1.7-3.8 2.2-9 3.5-11.5 5.1-10.1 5.7-21.4 1.5-27.1l-2.2-2.9 3.5-10.3c3-8.9 6.8-24.6 8.3-34.2.2-1.7.7-3.7 1-4.5l2.2-5.9c1.5-4.2 2.2-4.8 10.6-9.1 14.2-7.2 23.1-13.7 22.2-16.3-.3-1.1-8-2.9-17.6-4.2l-5.3-.7.6-3.2c.3-1.7 1.5-4.3 2.6-5.8s2-3.2 2-3.7 2.5-2.6 5.5-4.6 6.8-5.2 8.4-7.1c2.7-3 6.1-11.5 6.1-15.1 0-.7 1.6-2.7 3.5-4.5 6.3-5.7 7.9-9.2 7.9-17.7q-.1-7.5-2-13.3c-1.9-5.1-1.9-6-.6-9.3 1.3-3.2 1.3-4.1-.3-8.3-1-2.6-2.9-6.7-4.4-9.2-5.8-10.1-12.4-25.6-11.5-27.1.8-1.3 7.3 3.1 13 8.7 4.5 4.3 5.4 5.8 5.4 8.7 0 1.9.9 4.6 2 6q5.4 7 2.5 11.3c-2.2 3.3-.7 5.1 2.6 3.3a9 9 0 0 1 3.9-1.1c2.4.3 4.4-1.4 3.4-2.9-1.7-2.7-1.3-9.3.6-11.4 1-1.1 2.3-4.6 2.9-7.7 1-5.8 3.3-11.2 5.1-12.3.5-.3 1-1.4 1-2.4s1.2-2.7 2.7-3.6c2.4-1.6 2.7-1.6 3.8-.1q1.2 1.5 2 1.6c.4 0 1.6 1 2.7 2.2 1.9 2.3 2 2.3 3.4.4s1.4-1.8 1.4 1c.1 2.8.1 2.8 1.5 1s1.5-1.8 1.5-.3q.2 3.8 3.2-1.3c2-3.4 3.8-3.9 4.5-1.1.5 2.1 6 3.4 7 1.7q.5-.9-.4-1.3c-2.4-.8-4.3-3-4.5-5.2-.5-3.9 1.9-3.5 4.8.8 3.1 4.8 5.4 5.2 9.6 1.6 1.6-1.4 3.6-2.5 4.5-2.5q1.4-.1 1-1.4c-.3-.8 0-2 .8-2.6q1.3-1.1.9-2.5-.4-1.2.5-2c.6-.3 1.1-2.5 1.1-4.8 0-2.5.9-5.6 2.1-7.6 1.8-3 1.9-4 1-7.5-2-7.8-2.2-10.5-1.1-12.5.7-1.5.7-3.4-.1-6.8-1.4-5.6-2.6-7.4-4.6-7.1-1.7.3-3.8-4.8-5.8-14.2a53 53 0 0 0-6.8-18.2q-1-.8.9-.8c2.4 0 3.8-2.2 2.4-3.6-.6-.6-.3-2.7.5-5.1 1.9-5.6 1-9.7-3-13.2-2.6-2.3-3.4-3.8-3.6-7.1-.3-3.6 0-4.4 2-5.5 1.3-.7 3.3-1 4.3-.7 2.4.6 6.1-2.7 5.2-4.7-.3-.9-1-3-1.4-4.7-.7-2.9-.6-3 2.9-2.9 2 .1 4.6.7 5.9 1.4q5.3 3 8.5-3.2c1.1-2.2 2.6-3.7 3.7-3.7 2.8 0 6-4.7 6-8.8 0-3-.3-3.4-2.2-2.9a19 19 0 0 0-4 1.2q-2 .9-1.8-1.4c0-2.9-2.5-3.7-5.3-1.8-2.1 1.4-2.4 1.3-3.5-.4q-2.4-3.6-6.2.1c-1.5 1.5-1.8 2.7-1.3 5.1.5 2.9.4 3.2-1.3 2.5-1-.4-2.4-.9-3.1-1-2.3-.4-2.5-1.4-.8-4q3-4.7-1.8-6.5c-2.4-.9-2.8-3.1-1.3-8.4 1-3.3-.7-5.7-4-5.7-1.9 0-2.4-.5-2.4-2.4 0-1.3-.7-2.9-1.6-3.7q-3.6-2.8-6.5 5.5a20 20 0 0 1-4.3 7.2c-2.1 2-2.4 2.9-1.6 4.4.6 1 1.5 2.2 2 2.5 1.8 1.1 0 2.5-3.1 2.5-3.5 0-4.6-2.2-5.9-11.3-1.4-9.5-5.2-13.4-8.4-8.5a37 37 0 0 0-4.9 21.2q.6 6.8-.5 6.6c-1.7 0-2.5-4.3-2-11.5.3-5.1.1-6.5-1-6.5-1.5 0-6-2.9-11-7.2a9 9 0 0 0-7.5-2.5q-7.7.3-2.3 6.8c3.1 3.7 3.1 3.9.5 8.3-1.9 3.3-2.5 3.6-6.8 3.6-2.6 0-5.1.4-5.6.9s-2.8.6-5.5.1q-4.5-.7-8.7.3c-2.3.6-4.6.8-4.9.4-1.2-1.2 3.7-5.6 7-6.3a46 46 0 0 0 25.5-21.8 47 47 0 0 0 2.8-34.9 50 50 0 0 0-47.5-34.7 48 48 0 0 0-48.2 40.6 44 44 0 0 0 6.6 31.6l2.7 3.9-2.8 2.9c-1.6 1.7-3.7 3-4.8 3a132 132 0 0 0-24.4 8.2c-.8.6-2 2.6-2.8 4.3-1.3 3.3-4.1 4.5-11.7 5.1a12 12 0 0 0-5.2 1.8c-2.9 1.8-5.3 1.2-6.1-1.5q-.7-1.8-3-1.9-3.5.1-3.5-7c0-1.4-.6-3.4-1.4-4.5s-1.9-3.8-2.6-6a93 93 0 0 0-19.3-27.8c-1.5-2-4.4-5.2-6.3-7.1-3.4-3.3-3.5-3.6-2.5-7.2q1-3.8.1-4.8-3-2.7 3.3-2.6c9.8 0 21.7-12.7 21.7-23.2 0-2.2-.8-3.3-3.5-4.9-3.8-2.3-4.3-3.4-2-4.3 2-.7 1.9-3.5-.4-9.4-2.5-6.3-1.9-8.5 3.8-14.7a36 36 0 0 0 6-8.2c1.2-2.9 1.1-3.7-.9-7.8-2.8-5.8-16-17.6-18.9-16.8q-2 .5-3-1.5c-.6-1.1-2.6-2.3-4.7-2.7-2.1-.3-7.1-2.6-11.3-5.1a36 36 0 0 0-9.9-4.4c-2.2 0-6.8 3.7-8.8 7.1-.6 1.1-3.1 1.8-8.6 2.2l-7.8.7v-2.9c0-3.7-2.4-5.9-4.5-4.1-1.3 1-1.5.9-1.5-.9 0-3.4-6.1-9.1-9.8-9.1-1.7 0-3.4-.5-3.7-1s-1.7-1-3.1-1c-1.3 0-2.4-.6-2.4-1.3 0-1.5-3.1-4.7-4.6-4.7-.5 0-1.8.6-2.9 1.3m3.5 5.1c0 1.3-.9 3.1-2 4.1q-3.6 3.3-.9-4.3c1.2-3.5 2.9-3.4 2.9.2m8 5.6c0 1.4-5 6.4-5.7 5.7-.6-.7 3.8-6.6 5-6.6q.6 0 .7.9m6 .4q0 .5-1 1.1-.9.4-1-.4.1-1 1-1.1 1 0 1 .4m-18 3.1q.2 1.4 2.5 2.1c2.5.6 3.2 1.8 1.6 2.8-.4.3-2.3 0-4.2-.6l-4.9-1.5q-1.7-.3 1-2.3c3-2.4 4-2.5 4-.5m24 2.1c0 .3-.9 1.7-2 3.1-1.5 2-1.7 2.9-.9 3.9 1.6 1.9 2.9 1.7 5.6-.8 1.9-1.8 2.3-1.9 2.3-.5 0 1.9-2.9 3.7-6 3.7-1.1 0-3.1 1.1-4.3 2.3-3.3 3.6-5.3 2.2-2.2-1.4 1.3-1.7 3-4.8 3.6-6.9s1.8-4 2.6-4q1.2 0 1.3.6m44.8 6.1c6.7 3.4 8.5 5.4 6.3 6.8-.5.3-1.2 1.8-1.6 3.4-.9 4.3-3.2 5.9-5 3.5-1.3-1.9-1.4-1.9-4.9 0-1.9 1-4.5 2.9-5.7 4.2-1.9 2.1-2.1 2.9-1.3 6.1q1 3.6 2.6 4.1c1.8.4 11.5-6.8 19.1-14.2 6.2-6 9-6.1 15.8-.4 2.7 2.2 4.9 4.5 4.9 4.9s-2.4 1.9-5.2 3.1a203 203 0 0 0-32.1 23.1l-5.7 4.9-3.2-3.1a14 14 0 0 0-3.9-3.1q-.5-.2-.6-2.5c0-3-2.9-6.5-5.2-6.5-.9 0-3.1.9-4.9 2-3.9 2.4-4.2 2.4-4.2.5q.2-1.4 2-1.5c1.8-.1 2.6-1 3.3-2.3l6.5-10.5c2.9-4.6 5.2-8.8 5.2-9.3s-.9-.9-2-.9-2-.3-2-.6c0-.7 6.9-13.3 8.2-15q1.8-2.5 13.6 3.3m-64 1.3c1.6 2.6 4.4 2.6 6.7 0q1.7-1.8 2.3-1.5c.3.3-.7 1.6-2.3 3-2.5 2.4-2.6 2.7-1.1 4.4 1.6 1.7 1.4 2-2.4 5.5-2.2 2-4.2 3.6-4.5 3.6-1.3 0-.2-2.2 2.5-5.4l3.1-3.4-2.2-1.6a7 7 0 0 0-5-.9c-3.3.6-3.9-1-1.2-3.9 2-2.3 2.5-2.3 4.1.2m39.5 2.2c1.6 1.2 1 2.5-6.2 13.4a88 88 0 0 1-9.5 13.1c-2 1.1-3.3 22.9-1.3 23.7q1 .4-.4.5c-.9.1-2.1.7-2.7 1.3-1.3 1.7.3 5.8 2.3 5.8q1.4 0 1.5 1 0 .9-.4 1l-2 .6q-1.6.6-1.6-1c0-.8-1.1-2.3-2.5-3.2-2-1.3-2.8-1.4-4-.4q-1.6 1.5-1.5 0c0-.6 1-2 2.3-3 2.1-1.8 2.1-2 .5-4.7a38 38 0 0 1-2.2-25.6c.5-2.1.3-2.7-1-2.7-.9 0-2.6 2.3-4.2 5.6-2.2 4.8-2.6 6.4-2 11 .6 5 .5 5.4-1.4 5.4s-2-.4-1.4-4.3c1-7.1 3.1-13.4 5.8-17.4 2.2-3.2 2.4-4 1.2-5.8-1.7-2.6-1-4.5 1.6-4.5a14 14 0 0 0 5.7-2.8c4-3.1 10.1-6 15.2-7.2s6.3-1.1 8.2.2m-57.3 4.7c1.4 2.6 1.3 8.8-.1 9.7-1.1.7-3.7.8-12.1.5-4.5-.1-5.3-2.8-1-3.3 2.3-.3 2.7-.7 2.4-3.2-.4-3.5 2-3.1 2.8.5.7 3 4.5 3.8 5.9 1.2q.9-2 0-3.4c-1.2-1.9-1.1-3.9.1-3.9q1 .2 2 1.9M89 128q0 .9-.4 1-.6-.1-1.1-1-.4-1 .4-1 1 0 1.1 1m33.4-.1q1.7.7 1 1.3c-.5.4-1.8 0-2.9-.8q-2.9-2.3 1.9-.5m-34.8 6c1.4-1.1 1.8-1 3.1.6 1.3 1.9 1.2 2-1.7 2.3q-6 .7-6-2.4-.2-2 1.5-.4c1.2 1 1.8 1 3.1-.1m38.4 1.9c0 1.6-.7 3.7-1.6 4.8-1.5 1.8-1.5 1.8-1-.7q.6-2.7-1-4c-1.4-1.2-1.4-1.4.3-2 3-1.2 3.3-1 3.3 1.9m-23 3.6q-.2.5-1.7 1.7-2.4 2-.4-.4t2.1-1.3m-6.5 2.7q1.3 2.5-2.6 1.4-2.5-.7-.8-1.6c1.9-1.2 2.6-1.1 3.4.2m131.5 3.5c0 2-2.9 3-4.3 1.5-.9-1-.8-1.6.7-2.6 2.1-1.6 3.6-1.1 3.6 1.1m-102 1.7c0 .7-.6 2.2-1.4 3.3-1.4 1.8-1.5 1.8-2.1.1s1-4.7 2.6-4.7q.8.1.9 1.3m87.5 2.3c.3 2 .5 3.7.3 3.9s-2.7 0-5.6-.2l-5.3-.6 3.2-3.3c4.3-4.5 6.5-4.4 7.4.2m-117.9 5.5c.5.8-2.4 1.4-5.3 1-.7-.1-2.3.3-3.5.9q-2.6 1.4.6-1.2c2.8-2.4 6.9-2.7 8.2-.7m70.9-.1q.4.9-.4 1-1-.1-1.1-1 0-1 .4-1 .6 0 1.1 1m36.7 1q3.1.1.7 2.7c-.9.9-.4 1.9 1.9 4.2q4.8 4.8 6.7.3c.5-1.3 1.4-.4 4.1 3.8 3.6 5.7 3.4 7.4-.9 7.5q-2.1 0-3.5 2.7t-3.5 2.8c-3.2 0-5.1 1.5-4.3 3.5.5 1.4.2 1.6-2.1 1.2L194 183c-9.2-1.8-10-2-10-2.9 0-.4 1.1-1.4 2.5-2.1s2.5-2.2 2.5-3.2q-.2-2.2 1.9-.9c2.4 1.3 3.1.5 3.1-3.5q-.1-3.3 2-3.7c1.7-.4 2-1.4 2-5.9q0-8.5 2.4-5.8c.5.5 1.8 1 2.8 1m-88.2 2.2q0 2.7-.9.8c-.6-.8-.7-1.8-.5-2.2q1.4-2 1.4 1.4m45-1.2q-.1.9-1.1 1-.8-.1-.4-1 .6-1 1.1-1 .3 0 .4 1m10.7 5.6c.2.5-1.7.9-4.2 1-5.2.1-6.1-1.3-1.2-1.9 4-.5 5-.3 5.4.9m-9.7 5.9a11 11 0 0 1-2.7 3c-2.5 2.1-2.9 2.2-3.4.7q-.7-1.7 2-2.9 4.3-1.9 4.1-.8m9.9 1.7c0 1.3-1.4 2.5-16.4 13.8l-11.5 8.8c-1.9 1.5-5.4 3.9-7.8 5.4s-4.7 3.9-5.1 5.2c-1.3 3.4-8.1 4.7-8.1 1.6 0-.5 1.5-1.7 3.3-2.6s5.5-3.5 8.2-5.8c2.8-2.4 7.2-5.8 9.9-7.7l20.9-14.4c2.1-1.4 4-3.2 4.4-4 .6-1.8 2.3-2 2.2-.3m-36.7 5.3c1.1 1.4 2.8 2.5 3.7 2.3s2.9.7 4.4 1.8c2.8 2.3 2.6 2.9-2.1 5.3-2.1 1.1-2.2 1.1-1.1-.8 1.7-2.6-.5-5.4-3.7-4.8-1.6.3-2.5-.4-3.6-3-1.8-3.9-.4-4.4 2.4-.8m41.6 6.9c3.6 1.8 18.3 5.4 25.7 6.2 9.7 1.1 10 2.4.5 2.3-6.6-.1-10.4-.8-17-3.1-4.7-1.7-10.6-3.5-13.2-4-2.7-.6-4.8-1.5-4.8-1.9 0-1.4 5.8-1.1 8.8.5m171.1 1.1a43.7 43.7 0 0 1 32.6 55.1c-2 7.4-7.9 16.2-13.9 20.8-3.4 2.5-4 2.7-6.2 1.5-1.9-1-4.4-1-11.6-.2-7.8.9-9.7.8-12.5-.5-4.1-1.9-4.1-3.1-.3-5.7 1.6-1.1 3.2-2.6 3.5-3.4.9-2.4-.5-5.1-2.8-5.1s-2.1-.1.3-2c1.4-1.1 3.1-2 3.9-2s4.4 2 8.1 4.5q16.9 11.3 9.1-5.5a41 41 0 0 1-3.1-9q-.1-2 7-6.6 11-7 8.1-9.7c-.6-.6-5.5-1-11.6-1-9.8 0-10.7-.1-12-2.1-2.6-4-5.5-13.8-5.5-18.8q0-5-1.5-5.4c-2.3-.9-4.5 1.5-4.5 4.7a17 17 0 0 1-.9 5.1l-2.7 8.8c-1 3.6-2.2 7.1-2.7 7.8-.7.9-3.9 1.2-11.6 1.1-14.7-.4-16.3.8-8.3 6.3 2.6 1.8 7 4.4 9.7 5.9 6.2 3.2 6.6 5.3 2.8 12.9-2.7 5.2-3 5.5-7.4 6.1-2.5.4-6 1.4-7.7 2.3-3 1.6-3.1 1.5-5.3-1.5-7.7-10.9-7.8-34.4-.2-44.9 9.3-12.7 18.5-18.4 32.3-20l7.5-.8c.6-.1 3.9.5 7.4 1.3m-211.1 1.7q1.1 1.2 1.2 2.1c0 1-6.1 6.7-7.2 6.7-.8 0 3.4-9.9 4.3-10q.6 0 1.7 1.2m76.7-.2c-.3.5-1.5 1-2.6 1-1 0-1.9-.5-1.9-1s1.2-1 2.6-1 2.3.4 1.9 1m10.5 4c-2.7 2.1-5.5 2.6-6.5 1-.4-.6.6-1 2.2-1a10 10 0 0 0 4.3-1c2.6-1.7 2.6-1 0 1m-47.9.1c1.9 1 1.9 1.2.5 2.8s-1.5 2-.2 3c1.1.9 1.8.7 3.3-1.2 1-1.3 2.5-2.2 3.3-2 4.2 1.2 4.3 1.3 3 2.8q-1 1.4-.5 2.5c1 1.6 3.4 1.2 4.7-1q1.2-2 5.1-2c3.4 0 3.8.2 3.2 2-1 3 2.4 4 4.3 1.2 1.7-2.5 6-2.9 6.8-.7.9 2.1 4.2 1.9 5.6-.5 1.3-2.1 3.3-2.6 4.2-1.1 1 1.6-.6 4.2-2.3 3.8-.9-.2-2.9.3-4.4 1-2.6 1.3-3 1.3-4.2-.4-1.4-1.7-1.6-1.7-5.3.4q-3.7 2-5.2 1.3c-.8-.5-2.1-.5-2.9-.1-2.5 1.3-31.9 1.2-32.7-.1q-.7-1 .8-.5t2.3-.1c.3-.4 1.4-.7 2.3-.7q1.5-.2 2-1.8.3-1.7-1.7-1.7t-2.1-1.6 1.6-1c2.1.8 4.4-1.1 4.4-3.5q-.1-3.2 4.1-.8m-14.4 9.1q-.5 1-.5-1.2c0-2.2.2-1.9.5-1.3.2.7.2 1.9 0 2.5m10.9 8q.3.7-.2 2.2c-.5 1.3-2.2 1.6-8.5 1.7l-9.1.3q-1.2 0-1.3-1.9c0-1.6.9-2.1 5-2.6 5.2-.7 13.2-.5 14.1.3m167.9 2.4c2.3 5.5 2 6.4-2 6.4-3.8 0-4-.5-2.4-6.3q1.8-7 4.4-.1m-161.6 1.1c-1.5 1.8-3.4.1-2.5-2.2.5-1.4.9-1.5 2.1-.5s1.3 1.6.4 2.7m9.3 2.5c-1.5 1.5-2.4.6-1.6-1.6q.7-1.8 1.7-.7 1.2 1-.1 2.3m-3.1 3.9c3.4 1.7 7.2 4.2 8.6 5.5s2.8 2.2 3.3 1.9c1.8-1.1 17.1 14.8 15.6 16.2-.4.4-3-1.6-5.9-4.5a104 104 0 0 0-27.9-18.3c-3.2-1.2-5.8-2.5-5.8-3 0-1.9 6.3-.8 12.1 2.2m-31.1-.2q0 1-8.5 4.8-.5.1 2.5-2.6c3.3-3 6-4 6-2.2m-15.4 3.7q-1.7 2.3-2.3 2c-.3-.3.2-1.7 1.1-3.2q1.7-2.3 2.3-2c.3.3-.2 1.7-1.1 3.2m218.9 2.9a20 20 0 0 1-4.8 3.5c-.4 0-1.3-1.2-1.9-2.6-1.5-3.3 0-4.4 6.2-4.3h4.5zm-11.5-.6c1.6 3 1.2 7.6-.7 9.3-4.5 3.9-6.2 4.1-10.5 1.3-3.9-2.6-4-2.8-3.4-6.8.8-5.1 1.7-5.7 8.3-5.7 4.2 0 5.4.4 6.3 1.9m-21 1.7c0 1.4-.3 2.4-.7 2.2-7.5-3.6-8.2-4.8-2.8-4.8 3.1 0 3.5.3 3.5 2.6M151.5 226c-1 1.1-2.1 1.7-2.4 1.4q-.3-.6 1.3-2 4.2-3 1.1.6m28.2-.8c5 2.2 11.3 7.1 11.3 8.9 0 1-.9 2.1-2 2.4-4.1 1.3-13.1 11.4-16.5 18.7a31 31 0 0 1-5 8.1c-2 1.1-1.9-.2.2-2.5 1.3-1.4 1.7-3.4 1.5-7.3-.1-2.9.5-7.9 1.3-11.1 2-7.7 2-10.6-.1-10.2q-1.7.3-3.3 6.8a60 60 0 0 1-2.9 8.5c-1.1 1.9-1.1 1.9-1.2-.5 0-2.7 3.3-16.1 4.4-17.9.4-.6 1.8-.8 3.2-.5 2.1.5 2.5.3 2.4-1.2q-.2-1.8-.1-2.7c.2-1.1 3.7-.8 6.8.5m-16.7.7q-.2 1-1.8 2.3c-.9.7-1.8 2.6-1.8 4.3A65 65 0 0 1 157 249c-.8 0-2.1-5-2.4-8.5q-.2-1.8-1.6-2c-1.2 0-1.6 1.7-2 7.5l-.5 7.5-.7-7.9c-.7-8.8.4-12.6 4.5-14.7 1.2-.7 3.2-2.3 4.4-3.6 2.3-2.4 4.3-3 4.3-1.4m167.8 9.7c3 2 2.8 2.8-1.3 5.9q-6.9 5.3-3.8-3c1.7-5 1.9-5.2 5.1-2.9m20.9 2.9q3.3 6.6-3.2 2.5c-3.4-2.1-3.5-2.3-1.9-4.1 2.4-2.7 3.2-2.4 5.1 1.6m-151.4 4.3c4.6 5.3 8.1 12.4 6.9 13.7-.3.3-1.6.5-2.9.5-6.1 0-15 6.6-22 16.4-4.4 6.1-8.4 10.6-9.5 10.6q-.7-.2-.8-2.3c0-1.8.5-2.3 2.8-2.2s2.7-.4 2.5-2.6q-.1-2.5 2-3.5c1.6-.7 2.4-2.1 2.9-5.7.5-3.5 2.1-6.8 6.3-12.7q8.3-12 2.5-9-1.8 1-4.5-.4l-2.6-1.4 3.4-3.6c4.9-5.2 7.2-4.8 13 2.2m15.7-.3q1 1.3.2 1.5c-.5 0-1.5-.7-2.2-1.5q-1-1.4-.2-1.5 1 .1 2.2 1.5m-77.9 6.2c-1 1.7-1 1.6-1.1-.3 0-2.3 1.3-4.1 1.8-2.5.2.6-.1 1.8-.7 2.8m43.4 1.3c-.9 1.6-1.8 3-2.1 3-.2 0 .2-1.4 1.1-3s1.8-3 2.1-3c.2 0-.2 1.3-1.1 3m36.5 5.9q0 2-1.6-.4l-3.4-4.3c-3.3-3.7-2.3-3.8 1.5-.2 1.9 1.9 3.5 4.1 3.5 4.9m112.5-5.9c.7 1.1.8 1.1-8 3.5-3.3.9-6.7 2-7.6 2.5a8 8 0 0 1-4.2.3c-2.2-.4-2.7-.2-2.7 1.5 0 2.7-1 5.2-2.1 5.2q-.8-.1-.9-1.6c0-3.4-2.6-.5-3.9 4.4-.8 2.9-1.8 5.2-2.2 5.2-1.3 0-1.1-3.4.3-4.8 1.7-1.7 0-2.8-2.2-1.4a10 10 0 0 1-4.5 1.2c-1.9 0-2.6.7-3.3 3.2-.9 3.5-2.7 4-2.7.8 0-1.1-.6-2.5-1.3-3.2-2-2-1.4-2.7 2.6-3.3 6.2-1.1 8.8-2.4 14.8-8 3.2-3 6.9-5.6 8.3-5.8 5.6-.9 19-.7 19.6.3m-193.8 3.2q-.5 1.1-.6-.6t.5-1.3q.5.7.1 1.9m.3 3.5c0 1-.5 2.5-1 3.3q-1 1.8-1-1.8c0-1.7.5-3.2 1-3.2q1 .2 1 1.7m15.1 12.5c1.7 4 .7 4.4-3.9 1.3q-6.1-4.1-6.2-10.9c0-1.7.7-1.3 4.4 2.3 2.5 2.4 5 5.7 5.7 7.3m177.6-7.6c3.7 2.5 4.1 2.6 14.1 2q10-.6 10.2.3c.2.9-1 1.3-2.2 1.6-15.9 3.6-15.5 3.6-19.2 1.8-1.9-1-3.7-2.6-4-3.7q-.5-1.6-1.6-1.1t-2.5-.5c-1.1-1-1.5-.7-2.1 1.4-.7 2.9-2.4 3.5-2.4.9 0-2 2.8-5.3 4.6-5.3.7 0 3 1.2 5.1 2.6m-18.6.7q-1.4 1.4-.5-.6.6-1.6 1.2-1.2.4.6-.7 1.8m-106.3-.1q2.3 2.2-.1 3.1c-1.7.6-5.1-1.9-4.2-3.2s2.8-1.4 4.3.1m238.2 1.7c0 1.1-.5 2.3-1.1 2.7-.6.3-.9 1.4-.6 2.4a5 5 0 0 1-.4 3.2c-1 1.8 1.1 4.1 3.1 3.6 2.6-.6 2 2.2-.6 3.3q-3 1-3.2-.1c-.9-2.6-3.3-4-5.3-3q-2 1.1-1.9 0 .2-1 2.5-2c5.1-1.9 1.7-7-3.5-5.2q-3 1-3.6.1c-1.1-1.9 1.8-3 7.9-3q2.6-.1 4-1.9c1.5-2.5 2.7-2.5 2.7-.1m-306.3 7.8q-1 2.2.2 6.9c.7 2.5 1 4.9.7 5.1-1.2 1.2-3.5-13.3-2.8-17.8l.5-3.3 1.1 3.5q1.2 3.4.3 5.6m40.3-3.5c0 4.1-1.8 4.3-2.5.4-.8-4 .2-6.7 1.6-4.5.5.8.9 2.6.9 4.1m103.5-.5q-2.5 11.7-3.7 10.5c-.4-.4-.3-2.2.3-4.1.6-1.7.9-3.5.6-3.8-1.2-1.1-3.7.7-3.7 2.7 0 2.3-2.2 2.7-4 .5-1.6-1.9-.7-3.1 4.8-6 6-3.1 6.4-3.1 5.7.2m-84.5-.9c0 1.2-11.2 14.4-11.7 13.8a43 43 0 0 1 10.2-14.6q1.3.1 1.5.8m19 1.3q0 .9-1 .4c-.5-.3-1-1.1-1-1.6q.1-.9 1-.4a2 2 0 0 1 1 1.6m-7.8 1.9c-1.8 1.1-3.7 2-4.2 2s-1.4.9-2 2c-.9 1.7-.8 2 1.2 2a8 8 0 0 0 4.2-1.5 8 8 0 0 1 3-1.5q.8.2-1.4 2-2.7 1.9-1.4 3 .8 1.2 5.9-2.6l4.8-3.7 2.4 2.9c1.2 1.6 2.3 3.4 2.3 4 0 1.2-6.2 11.6-9.6 16.1-3.2 4.2-5.6 4.4-4.8.4 1-4.9-1.3-4.4-5.1 1.3-3.5 5.3-6.5 8.6-6.5 7.1 0-.4 1.8-3.2 4-6.4 6.1-8.7 4.8-11.2-2.4-4.4-3.8 3.6-3.9 3.7-2.2.8a45 45 0 0 1 3.7-5.1c2.1-2.3 2.5-5.4.7-5.4-.6 0-2.3 1-3.6 2.2l-2.4 2.3 1.3-2.8c1-2.1 1-3.3.2-4.7q-2.5-3.6 7-9c5.7-3.3 10.1-4.2 4.9-1m112.8-.3q-.1 1-1 2.3-1.1 2-1-.8.1-2 1-2.2 1 0 1 .7m-36.4 3c-1 1-1.9-.5-1-1.8q.8-1.7 1.2 0 .3 1.2-.2 1.8m-113.6.2c.5 1.1 1 2.7 1 3.6 0 1.4-.3 1.4-3 0a14 14 0 0 0-5-1.5c-2.5 0-1.7-1.8 1.4-3 3.3-1.4 4.4-1.2 5.6.9m123 3q0 1-1 1.6-.9.4-1-.9.1-1.5 1-1.6 1 0 1 .9m67.6 1.5q1.6 1.4 1.3 2.1c-.8.7-5.9-1.5-5.9-2.7s2.4-1 4.6.6m-195.4 6.1c-.2.9.4 2.6 1.4 3.6 1.5 1.7 1.5 1.9.1 1.9-1.7 0-2.8-1.6-5.9-8.4l-1.8-3.9 3.2 2.6c1.9 1.4 3.2 3.2 3 4.2m115.9-2.1c-1.1 2.7-2.4 3.7-1.6 1.1l1-3.1q.6-1.5 1.1-1.2c.2.3 0 1.7-.5 3.2m5.9-2.4q0 .9-1 1a1 1 0 0 1-1-1q.1-1 1-1t1 1m98 1c0 1-3.1 2.2-3.8 1.6q-.3-.6.1-2c.6-1.5 3.7-1.2 3.7.4m-152.2.2c1.8 1.8 1.5 3-2.4 9.4a44 44 0 0 0-4.1 8.7 7 7 0 0 1-2.4 3.8 3 3 0 0 0-1.9 2.9c0 1.9 3.2 3.6 5 2.5q.9-.4 1 .8.1 3.7-4 .7c-3.4-2.4-4.4-2.5-6-.5-1 1.3-.9 1.9.6 3.7l1.9 2.1-3.4-1.8c-3-1.5-3.5-1.5-4.9-.1-1.2 1.2-1.3 1.8-.3 2.9.9 1.2.7 1.6-1.4 2.1-2.9.7-3.3 3.3-.7 5.2 1.5 1.2 1.6 1.3 0 1.4-2.4 0-7.8-4.9-7.8-7.1 0-3 2.4-7.1 9.4-16.2 3.5-4.5 7.6-10.5 9.1-13.2a73 73 0 0 1 4.3-6.8c1.7-2 6.2-2.3 8-.5m90.5-.2q2.6 0 2.3.9c-.9 1.4-8.9.8-9.4-.8q-.6-1.4 1.9-.8c1.3.4 3.7.7 5.2.7m29.2 0q.4.9-1 1c-1.4.1-1.3-.5-1-1q.6-1 1-1t1 1m105.9.5q-.6 1.4-1 1.5-.4-.1-.4-1.5c0-1.4.4-1.5 1-1.5q.8.1.4 1.5m-62.7 1.1q-.7.5-1.9.1t.6-.6q1.8 0 1.3.5m46.3 3.6c0 1.3-2.7.9-4-.7-1.9-2.3-.1-3.9 2.1-1.9 1 .9 1.9 2.1 1.9 2.6m-52.2-2a32 32 0 0 1 3.3 15.6c-.6 2.3-.9 1.8-1.4-3.1-.3-3.2-1.5-7.6-2.6-9.8-2-3.7-1.5-5.3.7-2.7m84.3 4.1c-.6.6-3 1.1-5.4 1.2-4.2 0-4.2 0-4.2 3.7q-.1 7.7-2.9 1.4-2.6-6.2-6.1-1.4c-1.3 2-1.7 2.1-2.5.8-1.4-2.2-1.2-4 .4-4 .8 0 2.4-1.2 3.5-2.6 1.6-2 2.4-2.4 3.4-1.5q1.3 1.2 3.2-.3c1.6-1.2 2.2-1.2 4.1 0 1.9 1.3 2.4 1.2 4.5-.5 2.4-1.9 2.4-1.9 2.7.1.2 1.1-.1 2.5-.7 3.1M259 284q-.1.9-1.1 1-.8-.1-.4-1 .6-1 1.1-1 .4 0 .4 1m30.7 2.2q-.5 1-.5-1.2c0-2.2.2-1.9.5-1.3.2.7.2 1.9 0 2.5m-13.2-1.3q.4.9-.5 1.6-.9.4-1-.9 0-2.7 1.5-.7m40.2.7c.2.6-1.6 1.6-3.9 2.2-2.5.7-5.6 2.4-7.3 4.2q-5.5 5.6-3.4.2c2-5.1 5.7-8 10.2-7.9 2.2.1 4.2.7 4.4 1.3m21.3-.6c0 .5 1.1 1.7 2.5 2.6 2.1 1.4 3.1 1.5 5.1.6 2.2-1.1 2.6-.9 3.4 1.2a9 9 0 0 0 1.9 3.1c1.5.9 1.4 4.7-.2 6.9-1.2 1.6-1.5 1.4-4.1-2.4-2.1-3.1-3.2-4.1-4.7-3.7q-2 .6-3.4-2.2c-.7-1.5-2.1-3.3-2.9-4q-3.2-2.9.4-3.1 1.8 0 2 1m46.6 4.6c1.9 6.6 1.3 8.3-.9 2.2l-2.2-6.1q-.6-1.6.4-1.7c.6 0 1.8 2.5 2.7 5.6m45.4-3.5q0 .8-1 .9-.9-.1-1-1.6.1-1.3 1-.9 1 .6 1 1.6m-289 2.7c0 .8 1.6 5.9 3.6 11.4 3.9 11 4.4 17.9.6 9.6a173 173 0 0 1-7.2-24.2q.1-.7 1.5.4c1.4 1.1 1.5 1.9 1.5 2.8m11-2.8q0 .9-.4 1-.6-.1-1.1-1-.4-1 .4-1 1 0 1.1 1m29 3.4c0 3.1-1 3.7-4.9 3q-5.7-1-.3-3.8c3.9-2.2 5.2-1.9 5.2.8m153.7 5.9q3.2 6.1-3 .8c-2.7-2.4-4.4-3.1-7.6-3.1-6.1 0-5.3-2.5 1.3-4q5.3-1.1 9.3 6.3m20.8-6.3q.4.9-.4 1-1-.1-1.1-1 0-1 .4-1t1.1 1m78.5-.6q0 .6-1 1.1-.9.4-1-.4.1-1 1-1.1 1 0 1 .4M242.5 290c.5.8-6.4 6-8 6-1.1 0-.4-3 .8-3 .6 0 2.3-.9 3.7-2 3-2.3 2.7-2.2 3.5-1m182.5 2.3c0 2-.1 2-1.6.5-.9-.9-1.3-2.1-.9-2.7 1-1.6 2.5-.3 2.5 2.2m-151 1.3q-.1 1.3-1 .9-1-.7-.5-1.6 1.4-2 1.5.7m98.4 1.6c-1.4 4.7-2.3 6.6-3.3 7.2-.8.6-.2-3.3 1.4-8.2.8-2.3 2.7-1.3 1.9 1m-85.4 1.3q0 1.4-1 1.5-.9-.1-1-1.5c-.1-1.4.5-1.5 1-1.5q1 .2 1 1.5m-35 .5q-.1.9-1.6 1-1.3-.1-.9-1 .6-1 1.6-1 .8 0 .9 1m60.5 2c2.1 2.2 3.4 2.8 5.2 2.4 2.6-.7 4.3 2 2.4 3.9q-1 1.3-3.3-.9a29 29 0 0 0-6.1-3.7c-3.7-1.7-3.9-1.6-6.7.5-3.5 2.5-3.5 2.6-1.4 4.9s2.2 10 .4 15.4l-1.4 4-.7-7.8c-.6-7.1-1-8.1-3.8-10.6-3.4-3.1-3.8-4.1-1.6-4.1.8 0 2.9-1.3 4.7-2.9 3-2.6 5.2-3.6 8.4-4 .5 0 2.3 1.2 3.9 2.9M194 297.4q0 .5-1 1.1-.9.4-1-.4.1-1 1-1.1 1 0 1 .4m43.2 2.8q-1.3 1.5-1.2-1.2c.1-2.7.3-2.1 1.2-1.2q1.3 1.2 0 2.4m-64.7-1.2q-.7.9-1.6 1-.9-.1-.4-1a2 2 0 0 1 1.6-1q.9 0 .4 1m189.4 1.2q-5.5 10.9-8.6 10.8c-1.9 0-2.3-.5-2.3-3.3q0-6.3 2.7-2.9c1.2 1.4 1.5 1.5 2 .2.7-1.7 5.8-7 6.8-7q.5.2-.6 2.2m-207.2 1q-.5 1.1-.6-.6t.5-1.3q.5.6.1 1.9m112.1 6.3q.1 2.4-1.3-1c-.8-1.7-1.4-4.1-1.4-5.5 0-2.2.2-2.1 1.4 1 .7 1.9 1.3 4.4 1.3 5.5m137.2-4.7c0 2.5-.3 2.8-3.5 2.8-2.7 0-3.5-.4-3.5-1.9q0-1.6 1-1.2c.5.3 2-.1 3.2-.9 2.9-2 2.8-2.1 2.8 1.2m-147.6 5c2.9 7.5 3.2 10.2 1.4 10.2-.7 0-2.4.3-3.8.6l-2.5.6 2.3-1.7c2.5-1.9 2-3.9-.9-3.2q-1.8.4-1.9-.4 0-1 1-.9c1.7 0 1.1-2.8-.7-3.9-1.7-.9-1.7-1 0-1.6 2.5-1 2.1-3.5-.5-3.5-2.2-.1-2.3-.1-.4-1.5a8 8 0 0 1 2.7-1.5c.4 0 1.9 3 3.3 6.8m177.6-5.9c0 2.5-10.2 6.2-11.5 4.1q-1.4-2.5 4.7-4 6.9-1.6 6.8-.1m14.6 3.7q-.7 1.9-1.8.6-1-1.1-.4-2.8.7-1.9 1.8-.6 1 1.1.4 2.8m-29.8.1c-.2 1-1.4 2-2.8 2.1a7 7 0 0 0-3.6 1.9q-1.1 1.9-1.9.3-.7-1.3 2.1-3.6c3.5-2.8 6.7-3.2 6.2-.7M135.3 307q.4 1.8-.4 1.4-.8-.6-.9-2 .2-3 1.3.6m101.7-.9c0 .6-.5 1.9-1.1 3-.7 1.5-.7 2.4.2 3.5s.9 1.7-.1 2.9q-3.6 4.3-2.5-3.8c.4-2.8.9-5.5 1.2-6 .6-1.1 2.3-.9 2.3.4m-49.4 2.6c-1 1-1.9-.5-1-1.8q.8-1.7 1.2 0 .3 1.2-.2 1.8m191.9.5c-.4 1.8-1.1 3.9-1.6 4.8l-3 6.5c-2.4 5.6-3.7 4.6-1.8-1.2a47 47 0 0 1 6.5-13.3c.3 0 .2 1.4-.1 3.2M272.3 313q-.6 3 1.1 4.9c1.6 1.7 1.5 2.1-1.8 7-1.9 2.9-4.5 7.3-5.8 9.7-2 3.9-2.6 4.4-4.8 3.9a7 7 0 0 1-3.6-2.1c-.7-.8-3.1-1.8-5.5-2.2-4.3-.7-6.7-3.2-3.1-3.2 1.7 0 10.5-3.4 15.1-5.9q1.5-.8 1.6-5.5c0-3.9.5-5.1 3-7.1 3.9-3.2 4.6-3.1 3.8.5m134.7 1q3.4 3.3.9 4.6-1.2.5-2.1-1a7 7 0 0 0-3.4-2.7q-2.2-.9-1.9-1.9c1-1.6 4.4-1.1 6.5 1m-117.6 3.2q-1.6 3.1-2.2 2c-.2-.7.4-2.2 1.4-3.3q3.7-4.1.8 1.3m77.5.5c0 1-.9 3.6-1.9 5.8l-1.9 4V324c0-1.9.2-4.5.5-5.8.7-2.6 3.4-3 3.3-.5M346 330.8c-1 8.8-2.4 3.7-1.4-5.6.7-7 .8-7.3 1.4-3.9.4 2.2.4 6.4 0 9.5m-126.2-9.2c.2 1.3-1 3.6-3 5.8s-3.5 5.2-3.8 7.3c-.8 6-2.8 5.1-3.2-1.4-.3-6.2 1.6-9.8 4.7-8.7 2 .8 3.1-2.2 1.4-4.2-1.1-1.4-1-1.5 1.1-1.2q2.4.3 2.8 2.4m93.2-.6q-.1.9-1.1 1-.8-.1-.4-1 .6-1 1.1-1 .4 0 .4 1m-53.1 1.7c-.4 1-6.9 3.3-6.9 2.4 0-.6 6.2-3.8 6.8-3.5q.3.3.1 1.1m134.4 3.5a88 88 0 0 0-5.6 7.8c-3 4.7-11.7 13.9-11.7 12.3 0-1.2 11.2-17.6 14.2-20.8 3.7-3.8 6.7-3.1 3.1.7m46.5-.6c2.8 4.3 2.1 5.6-1.3 2.4-1.8-1.7-3.1-2.1-5.3-1.7q-5.7 1.1-2.5-2.5c2.7-3 6.5-2.3 9.1 1.8M231.5 328c-1 1.1-1.9 3.6-2.1 5.6-.3 3.4-.2 3.6 2.2 3.1l2.6-.5-2 2.1c-1.7 1.7-2.4 1.8-3.6.8-.9-.8-2.7-1-4.5-.6-3.5.7-7.9-1.1-6.3-2.7q1-1 4.2.1c1.8.6 3.6.9 4 .6s1.3-2.6 2-5.2q2.2-8.5 4.3-6.4 1.1 1-.8 3.1m13.8-1.5c.1.6-1.8 1.1-4.3 1.2l-4.5.2 3.5-1.4c3.8-1.5 5.1-1.5 5.3 0m164.7.5q0 1.8-.9 2c-1.4 0-2.3-1.8-1.6-3 1-1.7 2.5-1.1 2.5 1m-124.7 9.3c-.3.5-2-.5-3.7-2.2s-3.5-2.8-3.9-2.5q-.6.5-.7-1c0-1.3.6-1.5 2.6-1 2.1.5 2.6.2 3.1-1.7.6-2 .9-1.6 1.9 2.5.7 2.8 1 5.4.7 5.9m16.4-5.1q-.3 1.8-.4-1.7t.4-2.3c.2 1 .2 2.8 0 4m127.3-4.9c0 .2-1.3 1.3-3 2.5-2.3 1.7-3 1.9-3 .8q0-1.7 5.8-3.5.2-.1.2.2m-25 3.8c0 1.1-2.7 1.2-3.4 0q-.4-.8 0-1.4c.8-.8 3.4.3 3.4 1.4m-259.7 3.7c1.9 4.4 2.2 6.6.6 5.7-1-.7-1.9-2.6-3.3-7.3-1.2-3.7.9-2.5 2.7 1.6m180.6-2.6c0 .7-.4 2.2-.9 3.3q-1 2.7-.9-1.3c-.1-1.7.4-3.2.9-3.2q1 .2.9 1.2m113.3.5q4.3 4-2 1.9-3.8-1.4-5.5-.4t-1.7-.2c0-1.1 3.4-2.8 5.9-2.9.8-.1 2.3.6 3.3 1.6M160.4 340c.4 2.3 1.3 4.3 2.2 4.7 1.5.5 1.5.7 0 1.5-.9.5-2.2.6-2.8.2-.7-.4-2.6-.7-4.3-.6-3.9.2-6-1.1-5.1-3.3q.6-1.7 2.4-1c3.2 1.2 3.7 1 4.6-2.3q1.9-6.4 3 .8m110.5 1.6c-1.7 2.1-2.1 1.1-.8-2.2q1.3-3.3 1.6-1.1a4 4 0 0 1-.8 3.3m162.1.6c0 2.2-2.9.4-3.9-2.4l-1.1-3.2 2.5 2.4c1.4 1.3 2.5 2.7 2.5 3.2m-182.6-2.6c.9.8 1.6 3 1.5 4.7v3.2l-1.6-2.3c-.8-1.2-2.1-2.2-2.8-2.2-2.1 0-3.6-2.5-2.3-3.8q2.4-2.4 5.2.4m48.6-.6q0 .9-.4 1-.5-.1-1.1-1-.4-1 .4-1 1 0 1.1 1m4 .6q0 1.3-1 .9-.9-.6-1-1.6.1-.8 1-.9 1 .1 1 1.6m-99.2 5.6q1 1.2 2.6-.1c.9-.7 3.4-1.1 6.5-.8 9.7.8 7.7 3.5-2.2 3.1-5.9-.2-16.2.5-34.7 2.5-9.2 1-10.8.8-6.5-.9 9.3-3.5 32-6.1 34.3-3.8m37.2-.3q-.1.8-1.5 1.5c-1.5.5-2-.5-.8-1.7.9-1 2.3-.9 2.3.2m196 .1q0 .9-.4 1-.5-.1-1.1-1-.4-1 .4-1 1 0 1.1 1m-36.5 1c-.3.5-1.1 1-1.6 1q-.9-.1-.4-1a2 2 0 0 1 1.6-1q.9 0 .4 1M234 347q-.1.9-1.1 1-.8-.1-.4-1 .6-1 1.1-1 .3 0 .4 1m27.4-.1c.3.4-.3 1.6-1.4 2.6s-2 2.4-2 3.2q-.1 1.2-1.5 1.3c-2 0-1.9-.6.5-3 1.1-1.1 2-2.7 2-3.5 0-1.6 1.6-2 2.4-.6m11.6 3q0 1-1 1.6-.9.4-1-.9.1-1.5 1-1.6 1 0 1 .9m9.6 3.9c-1 1-2.9-1.5-2.1-2.8q.8-1.4 1.7.4t.4 2.4M442 351c0 1.3-2 1.3-4 0q-1.9-1.1 1.3-1c1.5 0 2.7.4 2.7 1m-70.3 6.3c-3.1 5.2-5.7 7.7-5.7 5.5 0-.8.9-2.3 2-3.3s2-2.3 2-2.8c0-1.3 3.2-4.9 3.8-4.3.2.3-.7 2.5-2.1 4.9m-190.2-.2q-.2 1.2-1.7 1.7c-1.8.3-2.5-1.8-1.1-3.2 1-1 2.8-.1 2.8 1.5m21.3-.2q.4 1.3-.9.9-1.2-.5-1.7-1.7-.4-1.3.9-.9 1.2.5 1.7 1.7m94-.7q-.6 1.2-1.8 1.3c-1.2.1-1.5-.6-1.7-1.3q-.4-1.1 1.7-1.2 2 0 1.8 1.2m147.7-.2q2.8 1-.7.9-2.6 0-2.8-.9c0-1.2.8-1.2 3.5 0m-230.1 3.5c2.5 2 4.6 4.3 4.6 5.2q.2 1.7-3.9-1.8c-2.2-1.9-5-4.2-6.3-5.1q-2.5-1.8-.7-1.8c.9 0 3.7 1.6 6.3 3.5m47.7 0c0 1.1-14 4.5-14.6 3.5-.9-1.5 2.5-3.2 7.7-4 6.1-.9 7-.8 6.9.5m27.1 1.5c7.7 2 31.2 10.4 42.3 15.2a370 370 0 0 1 33.1 14.6c-.5.4-30.8-10.6-38.1-13.9-6.2-2.7-22.5-8.9-27.5-10.4-7-2-13.4-5-15-7.1q-2.1-2.5.2-.6c1 .8 3.2 1.8 5 2.2m-20.1 2.3q-1.1 1.2-1.1-.4c0-2 1.3-3.4 1.8-1.9q.3 1.2-.7 2.3m125.9-1.9q-.2.5-1.7 1.7-2.4 2-.4-.4 2-2.5 2.1-1.3M186 366q0 1.8-1 2-.9-.2-1-2c-.1-1.8.5-2 1-2q1 .2 1 2m100.4 4.2q1.1 1.8-.1 2.9c-.9.9-2.1.6-5.3-1.5-3.5-2.3-3.9-2.9-3-4.7 1.1-2 1.2-2 4.2-.2 1.7 1 3.6 2.6 4.2 3.5m-61.9.6q-.6.4-1.8-.7-1.4-1.4.6-.5 1.6.6 1.2 1.2m34.9-1q.2.8-1.5 2-2 1.5-1.9-.1c0-2.4 2.3-3.6 3.4-1.9m-62.5 3.2c2.2 1.1 5.8 2.2 8 2.6q7.3 1.4 3.1 2.7c-3.8 1-16-3.9-16-6.4 0-1.3.6-1.1 4.9 1.1m45.5 1q.9.9-.5 1.5c-1.6.6-11.2-2.8-10.4-3.7.8-.8 9.7 1 10.9 2.2m55.6 2q0 .9-1 1a1 1 0 0 1-1-1q.1-1 1-1t1 1m-79.6 4q1 1-2.1 1c-1.7 0-3.7-.8-4.4-1.7-1.3-1.5-1.1-1.6 2.1-.9 1.9.3 3.9 1.1 4.4 1.6M41 382.4c0 1.8-1.7 2.9-3 2.1q-1.2-.7.1-2.1c1.5-1.8 2.9-1.8 2.9 0m155-1q0 .5-1 1.1-.9.4-1-.4.1-1 1-1.1 1 0 1 .4m257.5 1.6c0 .8-1.3 1.7-3 2s-4 1.2-5.3 1.9a38 38 0 0 1-12.9 3.7c-1-1 1.6-3.3 5-4.6 1.8-.6 4.1-1.6 5.2-2.2 5.3-2.9 11-3.3 11-.8m-406.5.2c0 .7 1.1 2.8 2.4 4.7s2.7 4.7 3 6.1q1 3.4-.6.5a42 42 0 0 0-4.4-4.8c-2.3-2.1-3-3.4-2.6-5.3.4-2.4 2.2-3.4 2.2-1.2m217 4c0 1.7-2.9.7-4.4-1.4q-3.6-5.3 1.4-1.6c1.7 1.2 3 2.5 3 3m52.2-3.6q3 1.5 2 2.6c-1.1 1.1-4.1-.1-6.2-2.6-1.7-2.1.1-2.1 4.2 0M33 383.4c0 .9-3 1.4-3.5.6q-.4-1 1.4-1 2 0 2.1.4m174.3 1.5c6.3 1.7 7.4 1.8 17 .3 16.2-2.4 21.2-2.1 27.7 1.3 4.7 2.6 5.7 3.6 7 7.5.8 2.5 2.3 5.7 3.3 7s1.7 3.3 1.7 4.3 1.5 3.2 3.3 4.8c3.1 2.9 3.2 3 1.2 4.4a51 51 0 0 0-11.2 12.3c-3.2 4.6-4.1 5.2-6.2 4.7-1.8-.5-3.2.1-5.7 2.6-5 4.9-4.1 1.6 1.1-4 2.5-2.6 4.5-5.1 4.5-5.5 0-1.9-3.5 0-7.9 4.3-2.8 2.7-5.1 4.5-5.1 4 0-1.3 4.9-8 7.3-10q1.9-1.6 1.2-2.9t-5.6 3.6c-5.3 5.2-6 4.5-2.9-2.5q3.3-7.1-.5-4.1c-2.1 1.7-2.9.7-1.5-2 1.7-3.1.4-3.7-2.4-1.1-2.7 2.5-4.3 1.4-2.6-1.8 1.5-3-.5-3.5-3.1-.9l-2.1 2.3 1.1-2.3c1.5-2.8.5-4.8-1.6-3.1-.8.7-2.3 3-3.5 5.2q-2 4.2-3.1 2.8c-.8-.8-.6-2 .6-4.6 2.1-4.3 2.1-4.5.2-4.5-.8 0-2.4 1.5-3.5 3.2-2.3 3.8-2.7 2.1-.5-2.2 1.6-3.1.3-5.2-1.8-3.1-1.8 1.8-2.8 1.2-2.1-1.4s-.8-3.5-2.1-1.5c-.3.5-1.3 1-2 1q-1.6.1-.8-3c.6-3.2-1.2-4.1-3.5-1.8-1.9 1.9-2.7 0-.9-2a6 6 0 0 0 1.7-3.6q.2-2-2-.6c-2.2 1.2-2.7.1-.9-1.7q1-1.2.5-2.9c-.6-1.5-1.1-1.3-4.3 1.7-3.1 2.9-3.4 3.1-2.3.9 2.1-3.9 4.2-7 4.9-7zm-55.6 15.3q.7 8-.5 7.8c-1.1 0-1.5-1.9-2.7-10.5-.2-2.2-.8-5.5-1.1-7.2s-.3-4.1.1-5c1.1-2.7 3.4 5.6 4.2 14.9m224.5-13.7c1.6 1.4 3.5 2.5 4.3 2.5 1.5 0 3.7 2.5 2.9 3.3-.7.7-10.2-2.7-11.6-4.1-.8-.8-.1-4.2.9-4.2.3 0 1.8 1.1 3.5 2.5m47.9 1.5c1.1.6 1.9 2.1 1.9 3.5 0 3.1-.7 3.1-4.4.1-4-3.3-2.1-6 2.5-3.6m-151.2 6c.7 0 5.1 8.5 5.1 9.8-.1 1.2-4-3.9-4-5.2 0-.7-1.8-2.7-4-4.5s-4-3.7-4-4.2 1.4.1 3.1 1.5 3.4 2.6 3.8 2.6m66-2.4c.2.2-1.2.4-3.2.4s-3.9-.5-4.2-1.1q-.8-1 3.2-.3c2.1.4 4 .8 4.2 1m51.1 1.3c0 1.4-1.8 2.3-3 1.6q-1-.7-.5-1.6c.8-1.2 3.5-1.2 3.5 0m-41.7 1.6c3.2 1.3 5.8 3.5 4.2 3.5-1 0-8.5-4-8.5-4.5 0-.7.4-.6 4.3 1m35.4 2.7c2.9 1.1 5.5 2.4 5.9 2.9.9 1.6-4.6-.1-10.6-3.3q-8.6-4.5 4.7.4M77 396q2 1.1-.2 1c-.9 0-2-.5-2.3-1-.8-1.3.5-1.3 2.5 0m-22.3 3.7 7 22.3c1.1 3.8 4.4 22.1 5 27.5 1 10.5-1.4 4.9-3.6-8.5a149 149 0 0 0-3.6-16.5 31 31 0 0 1-1.5-6.1c0-1.2-1.1-4.1-2.4-6.5q-2.5-4.4-1.6-5.9.9-1.8-.5-3.6c-1.6-2.1-2-5.4-.6-5.4.5 0 1.3 1.2 1.8 2.7m59.4-.6c2 2 2 2.3.5 3.1q-3.1 1.9-3.8-2.7-.9-4.6 3.3-.4m310.7.7q.2 1.1-1.2 1.2-1.5-.1-1.6-1.6c0-1.7 2.2-1.4 2.8.4m-136.1 1.8c-.9.9-2.8-.6-2.1-1.8q.6-1 1.7.1 1 1 .4 1.7M125.5 403c.6.4 2.8 1.1 5 1.5 4.7.8 7.5 2.2 7.5 3.6s-5.2.5-11.6-1.6a14 14 0 0 0-6.3-.8q-2.2.8-2.1-1.5c0-1.7.6-2.1 3.3-2 1.7 0 3.7.4 4.2.8m-24 1.8c2.8 1 4.9 2.2 4.8 2.7-.4 1.7-5.4 1.7-6.6.2a6 6 0 0 0-3.1-1.9c-2.2-.3-3.4-2.8-1.4-2.8.7 0 3.6.8 6.3 1.8m-37.7 3.9c.6 1.8.9 3.3.7 3.3-.7 0-3.5-5.8-3.5-7.2 0-1.9 1.6.3 2.8 3.9m237.2 2.7q-.9.8-1.2.5l-2.5-3.5c-3-4.3-1.4-5.3 1.9-1.3q2.7 3.3 1.8 4.3m91-5.4c10.8 2.7 21 6.4 21 7.7 0 1.9-4.4 2.6-8.2 1.4a105 105 0 0 1-19.3-10.7zm-192-.6q0 .5-1 1.1-.9.4-1-.4.1-1 1-1.1 1 0 1 .4m-157 2.7q0 .9-1 .4t-1-1.6q.1-.9 1-.4a2 2 0 0 1 1 1.6m337.8 1c7 3.5 8.1 5.5 2.5 4.6q-3.7-.7-7.2-4.2c-4.4-4.3-3.2-4.4 4.7-.4m79.2-2.3c0 .5-.9 1.7-2 2.7a10 10 0 0 0-2.5 3.6q-.7 1.8-1.6 1.9c-.9 0 1.3-5.2 3.3-7.8 1.2-1.4 2.8-1.6 2.8-.4m-302.1 10.3q2.4 6.9-.7 2.8c-2.7-3.5-3.4-5.9-1.8-5.9.8 0 1.9 1.4 2.5 3.1M291 417c0 1.4-1.4 1.2-2.8-.2-1.9-1.9-1.4-3 .8-1.8q1.8 1 2 2m104.3-.4c6.4 3.2 6.5 3.3 4.8 4.4-1.5.9-10.1-2.3-11.3-4.3-2.2-3.5-.3-3.5 6.5-.1M424 415c0 .5-1.4 2.5-3 4.4-2.2 2.4-3.6 3.3-5.1 2.9q-2-.7-5.4 3.2c-3.6 3.8-4.9 3.9-5.8.5q-.6-2.1 1.1-2.7c5.1-1.7 12.2-5.7 12.2-6.8 0-.7.6-1.6 1.3-1.8 2.1-.9 4.7-.7 4.7.3m-145 1.7c.2.2.5 2.7.6 5.5.2 4.5.5 5.2 3.4 6.9q3.2 2 2.8 4.1c-.3 2.4-2.8 3.7-2.8 1.5 0-1.2-1-1.4-4-1.1-2.3.2-5 .9-6.1 1.5q-2 1.1-3.1.1-1-1 3-3.1c5.3-2.7 5.9-3.9 3.3-6.4-1.7-1.8-2.1-1.9-2.1-.5 0 .9-.7 1.9-1.6 2.2-2.3.9-2.4.8-2.4-1.2 0-1-.3-2.2-.7-2.6-.7-.7-8.3 6.3-8.3 7.7 0 3-12.2 13.8-13.8 12.2q-.6-.6.4-1.3a50 50 0 0 0 13-13c1.5-2.6 4.5-6.8 6.7-9.5 3.8-4.4 4.3-4.7 7.6-4.1 2 .4 3.8.9 4.1 1.1m156.8.8q2 4.6.4 4.5c-.5 0-1.3-1.6-1.9-3.5-1.3-4-.2-4.7 1.5-1m-229.8-.6q0 1-1 1.6-.9.4-1-.9.1-1.5 1-1.6 1 0 1 .9M33.9 432.4q.1 8.1-2.5-4c-1.7-8.6-1.7-8.9.6-3.9 1 2.2 1.9 5.8 1.9 7.9m135.1-8.8c2.2 1.5 4 3 4 3.5s1.3 2.3 2.8 4.1c1.6 1.8 3.4 4.9 4.1 6.8 1 3 .9 3.6-.9 5.4l-2 2v-2.7c0-1.5-1.3-5.7-2.9-9.2-2.2-4.9-3.5-6.5-5-6.5-1.8 0-5.1-3.4-5.1-5.2 0-1.3.8-1 5 1.8m160.8 1q-.7.3-1.8-1.8-2-3.1.6-.6 1.6 1.7 1.2 2.4M41 432.4c0 3.4-1.8.4-2.4-3.9l-.6-4 1.5 3c.8 1.6 1.4 3.9 1.5 4.9m171.8-1.9c15.5 4.5 23.6 9.5 15.4 9.5a14 14 0 0 0-9.6 5.6c-.7 1-1.8 3.7-2.5 6-1.2 3.7-1.1 4.6.9 9.2q5.2 12.2 15.6 11.3 2.2 0 4.8 3.1c1.4 1.8 3.7 4.4 5 5.8a7 7 0 0 1 2.3 6.2c-.1 3.5-1.7 5.6-1.7 2.3 0-1.7-1.6-2-2.5-.5-.8 1.3-2.5 1.3-2.5 0q.2-1.1 2.3-1.9c2-.8 2-1 .4-1.6-1-.4-1.6-1.4-1.3-2.1.5-1.4-3.1-4-4.2-3-.3.4-.1 2.1.6 3.9s.9 5.8.7 8.9c-.4 4.8-.2 5.8 1.1 5.8q1.5.2 1.1 1.2-.4 1.2-2.1 1-1.5-.2-1.6.8.1.9 1.6 1 1.4 0 .8 1.2a69 69 0 0 0-1 13.2c-.2 13.5-.9 17.6-3 17.6-1.8 0-1.8 1.6 0 2.3 2.4.9-.6 8.3-3.2 7.9-3-.4-5.1 3.2-4.6 8.1q.3 3.6-.2 2.2c-.3-1.1-1-2.4-1.5-2.9-1.3-1.4-3.9 1.3-3.9 4.3 0 1.4-.5 3.3-1.1 4.1q-1 1.8-.8-3c.1-2.5-.1-5.5-.5-6.8q-.7-2.3.4-3.7c.9-1.1.9-2.3.1-4.6-.6-1.8-1.1-4.5-1.1-6.1s-.4-3.8-1-4.8-1.2-8.5-1.5-16.5q-.5-14.7-2.7-24.9c-3.6-16.2-3.1-35 1.3-52q1.8-6.9-2.8-4.8-3.6 2-4.9 19.7c-.4 5.2-1.1 9.8-1.5 10.1-1.1.6-1 1.3-1.8-17.1-.5-13.6-.8-15-2.5-15.3-1-.2-2.2.2-2.7 1q-.9 1.3-.9-2.1v-3.4l4.3.7c2.3.4 7.9 1.8 12.5 3.1m-140.8.1q0 1.3-1 .9c-.5-.3-1-1.3-1-2.1s.5-1.2 1-.9 1 1.3 1 2.1m56 4.3q-.1 4.7-1.4-1.9-.6-3.7.4-2a9 9 0 0 1 1 3.9m227-2.1q.1 2.2-1 .2c-1.3-2-1.3-3.3 0-2.5.6.3 1 1.4 1 2.3m-305 2.7q0 1.4-.4 1.5c-.4.1-.6-.7-1-1.5q-.4-1.4.4-1.5 1 .1 1 1.5m272.8 3.8c1.6 7 1.5 7.7-.8 7.7s-2.4-.4-1-3q1.1-1.8-.5-3c-1.2-1-1.3-1.6-.3-2.8q1.6-1.6 0-1.9-1-.6-.6-1.4 1.5-3 3.2 4.4m-248.1.9q-.5 1.1-.6-.6t.5-1.3q.5.6.1 1.9m213.3.9a83 83 0 0 1 5.1 19.9c.3 4.3-1.7 8.4-3.7 7.6q-1.4-.4-2 .9c-.9 2.3-7.1 3-9.3 1.1-1-.9-2.7-1.6-3.8-1.6s-2.8-1.1-3.6-2.3c-2.1-3.2-12.5-7.1-16.6-6.2-2.4.5-3.1.3-3.1-.9s1-1.6 3.8-1.6c2 0 4.5-.6 5.4-1.3s3.2-1.1 5.3-.9c3.3.4 3.6.7 3 2.9-.5 2.1-.3 2.4 1.7 2.1 1.9-.2 2.4-1 2.6-4 .4-4.7-1.2-5.3-14-5q-9.9.3-9.8-.8 0-1 2.1-.5c3 1 6.9-.3 6.9-2.1 0-1.3-.7-1.5-3.2-1q-3 .6-2.3-.2a31 31 0 0 1 11.5-3.7c.4.3 3.6-.6 7.1-2 8.2-3.1 15.4-3.3 16.9-.4m-259.6 4.1q.4 2.6-.3 2.8c-1 0-2.1-4.7-1.3-5.5.7-.7.8-.5 1.6 2.7m141.1-1c1.4.6 2.4 1.6 2.2 2.2-.7 2-2.5 1.6-4.1-.9-1.9-2.8-1.7-3 1.9-1.3m22.5 4.1q0 2.8-1.2 2.5c-1.5-.5-2.2-4.2-1.3-6.6.5-1.4.7-1.4 1.5-.2.6.8 1 2.8 1 4.3m-151.3.9q-.5 1-.5-1.2c0-2.2.2-1.9.5-1.3.2.7.2 1.9 0 2.5m45 .5q-.5 1.3-.5-1.2 0-2.6.5-1.8c.2.7.2 2.1 0 3m112.8 11q.4 8-.6 8.9c-1.8 1-3-1.8-2.4-5.4q.6-3.4-.8-3.2c-.8 0-1.8-.7-2.1-1.6q-.9-2 .9-.4c2.3 1.9 2.8.7 2.7-6.2-.1-5.4.1-5.9.9-3.3.5 1.6 1.1 6.7 1.4 11.2M234 449q-.1.9-1.6 1-1.3-.1-.9-1 .6-1 1.6-1 .8 0 .9 1m-10 1q0 .9-1 1a1 1 0 0 1-1-1q.1-1 1-1t1 1m19 1c0 2.1-1.5 2.7-2.5 1-.7-1.2.2-3 1.6-3q.8.2.9 2m74-.5c-1.3 1.6-4 2-4 .7q0-2.1 3.3-2.2 2.3-.1.7 1.5m-240 1.4q0 1-1 1.6-.9.4-1-.9.1-1.5 1-1.6 1 0 1 .9m-35.3 3.8q-.5 1.3-.5-1.2 0-2.6.5-1.8c.2.7.2 2.1 0 3m133.3-1.9c0 1.3-1.2 2.2-2.2 1.6s-.1-2.4 1.3-2.4q.8.1.9.8M52 458q0 1.8-.4 2c-.4.2-.6-.9-.9-2q-.4-1.8.4-2c.8-.2.9.9.9 2m64.9 2.8c0 1.5-.4 3.6-.9 4.7q-.9 2.4-.9-3.3 0-5.1.9-4.7c.6.3 1 1.8.9 3.3m202.6-2.9q.4 1-1.4 2.1c-2.1 1.1-3.7-.2-2.6-2 .8-1.3 3.2-1.3 4-.1m-73 1.1q.4.9-.9 1-1.9.3-3.6 2.2c-2.5 2.7-2.6 1.6-.2-1.7 1.8-2.6 3.7-3.2 4.7-1.5m-74.7 4c.6 1.6.7 3 .3 3-.8 0-3.1-4.4-3.1-6.1 0-1.9 1.8.1 2.8 3.1m6.6-.5q.4 1.4-.4 1.5-1-.1-1-1.5c0-1.4.2-1.5.4-1.5s.6.7 1 1.5m81.8 5.4q10.4 3 3.7 3.1c-1.9 0-4.9-.9-6.7-2s-4.1-2-5.1-2c-2.8 0-5.2-1.1-4.6-2 .3-.5 2-.4 3.8.2zm-193.5.3q-.5 1-.5-1.2c0-2.2.2-1.9.5-1.3.2.7.2 1.9 0 2.5m122.8 5c.4 4 .7 10 .7 13.2-.1 3.3.5 7.1 1.4 8.7.7 1.5 1 3 .5 3.3-1.9 1.2-3.2-2.7-3.6-10.6l-1.1-15.7q-.6-7.5.4-6.7c.5.3 1.3 3.9 1.7 7.8m62.9 1.9c2.4 3.5 2.5 3.9.7 2.9a7 7 0 0 0-4.5-.4q-4.6 1-2.5-4c1.7-3.6 3.2-3.3 6.3 1.5m40.6-2.6c1.6 2 1.7 8.2.1 9.8-1.1.9-1.4.9-1.8-.1-.7-1.7-2.7-1.5-4.6.6-1.4 1.5-1.5 2.4-.5 5.5 1 3.3.9 4-1 6-4.5 4.7-1.3 7.8 3.7 3.7 1.9-1.7 2.3-2.7 1.8-5.5-.3-1.9-.2-3.7.3-4 .9-.6 1.7 3.3 2.5 13.5.7 7.2 5.4 30.7 9.9 49.4l2.2 8.9-2.5 4.8c-2.2 4.2-2.4 5.1-1.3 6.9q1.1 2 .6 3.1c-1.1 1.9 2.7 4.9 6.3 4.9 2.6 0 3.3.4 3.3 1.9 0 2.1-3.9 3.6-5.4 2.1-3.3-3.3-4.8 2.4-2.6 9.9q2 6.3-2 2.3c-1.6-1.5-2-2.9-1.8-6.2.2-2.4-.1-4.4-.7-4.6-1.4-.4-5.7 6.6-5.1 8.2q.4 1.3-.4 1.9c-.6.4-1.5-.6-2-2-.9-2.3-1.4-2.6-4.1-2-2.9.7-3 .5-2.7-2.1.2-2.3 1.4-3.4 6.3-5.9 6.7-3.6 7.9-6.1 2.8-5.9-3.4.2-4.4-1-1.8-2q1.4-.6 1.5-2.2c0-1.3-.6-1.5-3-1.1q-6 1.2.5-1.7c5.2-2.2 4.5-4-1.2-3.2-2.7.4-5.6.9-6.5 1.2-3.2.9-1.9-1.6 1.7-3.3 4.4-2.1 4.5-4.1.3-4.5l-3.3-.4 2.8-1.2c3.8-1.6 2.9-3.8-1.4-3.5l-3.4.3 2.3-1.9q4.4-3.7-.5-4.3c-3.2-.4-8.2-8-7.5-11.4.4-2.4-2.3-4-4.3-2.4q-1.1 1.2-2.4-1.6c-1-2.3-.9-3 .9-4.9 2.5-2.7 2.5-3.5-.1-3.5q-2.5.2-.9-1.5c1.6-2 .2-3.8-2.6-3.2s-3.1-.8-.4-2.3c3-1.6 2.5-4-.8-4-1.5 0-3.3.5-4 1.2q-1.3 1.4-1.2-.3c0-.8 1.5-1.9 3.2-2.4 4.3-1.3 5.1-4.5 1.1-4.6-2.8-.1-2.8-.1.5-1 2.8-.8 3.2-1.2 2.1-2.5q-1.2-1.5-4.1-.9c-4.1 1-3.4-1 .9-2.3 2.9-.9 4-.9 5.3.2a42 42 0 0 0 13.4 4.6c1.8 0 4-3.6 3.1-5-.3-.6-1.7-1-3.1-1-3.2 0-8.5-2.3-10.3-4.4-1.2-1.4-1.1-1.9.4-3.6 1-1.1 1.5-2.8 1.2-3.9s0-2.2.6-2.4-2.2-2.1-6.3-4.3c-8.4-4.5-10.3-6.9-4.6-5.9 2 .4 4.4.4 5.3-.1 3.1-1.3 7.6-1.2 9.9.2 2.6 1.8 6.8.5 10.2-3.2 2.6-2.8 3.5-2.9 5.2-.9m-97.3 9.2q-.5 1.3-.5-1.2 0-2.6.5-1.8c.2.7.2 2.1 0 3M71 483.1q0 1.7-1 1.9c-.5 0-1-1.2-1-2.6s.4-2.3 1-1.9 1 1.5 1 2.6m182.8 2.5q-.3 2.2-1-.9-.5-2.8.4-1.9.9 1.1.6 2.8m-215.9-.9q0 1-.9 2.8-1 2.8-.9-.8c-.1-1.5.4-2.7.9-2.7q1 0 .9.7m224.3 4.8q.6 2.5-.9 2.5c-1.7 0-2.7-2.5-1.9-4.6s2.2-1 2.8 2.1m34.7 1.2c.5 2.1 2 8.3 3.1 13.8 2.3 10.2 9.3 40 11.1 46.8 1.1 4 .6 5.8-1 4.1-.5-.5-2.1-5.9-3.5-11.9a789 789 0 0 0-6.1-24.4c-3-11.2-6.5-28.1-6.5-31.2 0-2.5 2-.4 2.9 2.8m15.6-1.7c-2.7 1.2-4.3 1.2-2.5 0a7 7 0 0 1 3-.9q1.5 0-.5.9m-116.8 3.2q-.5 1.1-.6-.6t.5-1.3q.5.7.1 1.9M37 493.6q0 1.3-1 .9c-.5-.3-1-1.3-1-2.1s.5-1.2 1-.9 1 1.3 1 2.1m45.7 1.3c2.2.6 6.3.9 8.9.6 5.6-.7 25.9 1.2 28.6 2.6 3.2 1.7 1 2.9-5.3 2.7-4.3-.1-6.3-.6-6.9-1.7-.7-1.3-1.2-1.4-2.9-.4-2.5 1.6-8.7 1.7-9.7.2-.4-.6-2-.8-3.8-.5s-3.5.3-3.9 0c-1-1-10.1-1.2-12-.2q-1.8 1.1-3.7-1.4-4.1-4.7.9-3.3 2.8.6 3.6-.5t1.4-.2c.3.5 2.5 1.5 4.8 2.1m-74.1 6.9c-1.3 1.2-1.7-.8-1-4l.9-3.3.3 3.3c.2 1.9.1 3.6-.2 4m50.2-5.6c-.3.7-2 1.6-3.9 1.9-1.9.4-5.1 1.4-7.1 2.3-2.1.9-5.2 1.6-7 1.6q-3.3 0-5.7 2.6c-1.8 1.9-3.1 2.4-4.9 1.9q-2.4-.5-4.1.9a56 56 0 0 1-22.7 1.4q-.4-1 .9-2.6c1.3-1.2 1.9-1.3 3.1-.3 2.6 2.2 17.6-.2 17.6-2.9 0-.5 1.1-1 2.4-1q2.4.1 3.4-2.8 1.2-3.5 1.1-.5c.1 3.3 1.4 3.5 7.8 1.4 3.2-1.1 7.7-2.3 10-2.6 2.4-.4 4.5-1.1 4.9-1.6.8-1.4 4.6-1.1 4.2.3m112.5 5c.3 3.2.2 5.8-.2 5.8-1 0-2.1-8.8-1.4-10.7.8-2 1-1.4 1.6 4.9m26.8 7.3c.4 4.9 1.1 10.2 1.5 11.7.8 3.4-1.2 3.8-2.5.5-1.2-2.9-2.8-20.5-2.2-23.6l.4-2.5 1 2.5c.5 1.3 1.3 6.4 1.8 11.4m65.2-10.9c1.2 1.3-.3 2.1-2.8 1.7q-2.1-.6-1.9-1.4c.6-1 3.8-1.2 4.7-.3m-72.8 6.5q-.9 2.3 1.2 1.7 1.8-.3 2.1 1.9.4 3.9-2.7 1-1.4-1.6-.9 1.1c.1 1.2.8 2.2 1.3 2 1.1-.2 2.2 3.9 2.4 8.9.1 3-.2 3.3-2.8 3.3q-2.8 0-3.6 1.7c-.6 1.6-.8 1.5-1.7-.7a9 9 0 0 1-.4-4.6c.4-1.3 0-2.7-.9-3.4-2.2-1.8-1.9-6.7.5-8.2q1.8-1.2 2-2c0-.4.4-1.9 1-3.3 1.1-3 3.4-2.4 2.5.6m119.5 1.4c-.6 1.5-1.3 2.5-1.7 2.1s0-1.7.7-3.1q1.2-2.2 1.7-2.1c.2.2-.1 1.6-.7 3.1m36.5-1.5q-.6.9-1.7 1c-.6 0-2 .7-3 1.7s-2.1 1.3-2.4 1c-.4-.3.9-1.5 2.7-2.6q5.7-3.5 4.4-1.1m-170.8 2.2q-.5 1.1-.6-.6t.5-1.3q.5.6.1 1.9m174.3 2.4c0 .5-12 8.4-12.8 8.4-.4 0 1.6-2.1 4.3-4.8 3-2.8 5.7-4.6 6.8-4.3q1.5.3 1.7.7m-175.3 2.6q-.5 1.1-.6-.6t.5-1.3q.5.6.1 1.9m6.1 22.8c.1 2.2 0 2.3-1.1.8-.8-1-1.1-3.2-.8-5.5l.5-3.8.7 3c.4 1.6.7 4.1.7 5.5m19.2-7.6q0 .5-1 1.1-.9.4-1-.4.1-1 1-1.1 1 0 1 .4m52.7 4.8q-.5 1-.5-1.2c0-2.2.2-1.9.5-1.3.2.7.2 1.9 0 2.5M58 532q-.1.9-1.1 1-.8-.1-.4-1t1.1-1q.4 0 .4 1m137.5 11.1a20 20 0 0 0-3.5 4.7c0 2.4 5.8 4.5 6.1 2.2l.3-2q.2-1 1.1-.8 1 .5.7 2.3l-.5 4a9 9 0 0 1-1 3.2q-.6 1 .4 1.5c.6.2 1.3 2.6 1.5 5.3l.3 5-1-4.8c-.7-2.8-1.7-4.7-2.5-4.7s-1.4-1-1.4-2.1-1.1-3.2-2.5-4.5-2.5-3.3-2.5-4.5c0-2.3 6-9.8 7.3-9.2.4.3-.8 2.2-2.8 4.4m-11.3 0c-.4 1.3-1 9.6-1.2 14.9q0 3.5-1 .4c-1.2-3.1 0-17.6 1.4-17.1q1 .6.8 1.8m72.9 11.6q-1.2 2.5-1-1.7c.2-4.2.1-3.2 1-1.8q1 1.8 0 3.5m-84.1-1.9c0 1.3-1.2 2.2-2.2 1.6s-.1-2.4 1.3-2.4q.8.1.9.8m85.3 26.4c-1.1 9.3-2.3 4.6-2.2-8.5l.2-13.2 1.3 8.5c.7 4.7 1 10.6.7 13.2m-79.1-12.8q-1 7.2-1.2-.5c0-2.2.4-3.8.8-3.5s.6 2.1.4 4m133.8-3.5q0 1-1 1.6-.9.4-1-.9.1-1.5 1-1.6 1 0 1 .9m-93 5.5q-1 1-.9-2.5-.2-4.6 1-1 1 2.4-.1 3.5m-36.3 1.8q-.3 1.8-.4-2.2c-.1-4 .2-3.5.4-2.3a17 17 0 0 1 0 4.5m17 5q-.3 1.8-.4-1.7t.4-2.3c.2 1 .2 2.8 0 4m14.4-2.9c-1.3 1.3-2.6.3-1.6-1.2q.6-1 1.7-.5 1 .6-.1 1.7m146-1.3q1.7 1 1.9 1.8c0 .4-2.4 2-5.3 3.5-4.6 2.4-5.8 2.6-8.2 1.7-3.3-1.3-8.2-.4-10.7 1.7-1 .9-2.4 1.3-3.2 1s-2.2 0-3.2.7-2.5 1.1-3.4.9-2.4.3-3.3 1.1q-1.6 1.5-2.2.6c-1.2-2-3.6-.9-5 2.2l-1.4 3.3-.2-4-.3-6c-.1-2.5 2.7-3.9 12.9-6.1 15.3-3.3 28-4.2 31.6-2.4m-138.6 9.9a35 35 0 0 1 1.1 8.9c-.6.6-1-.4-2.5-7-1.1-4.8-1.5-11.5-.6-10.6.3.2 1.2 4.2 2 8.7M285 576q0 .9-.4 1-.5-.1-1.1-1-.4-1 .4-1 1 0 1.1 1m-56 1q0 .9-.4 1-.6-.1-1.1-1-.4-1 .4-1 1 0 1.1 1m7.6 12.1c-.6 5-.6 5.1 1.8 4.5l2.4-.6-2.5 7.3c-2.1 6.2-5.7 11.6-7 10.4-.9-.9 1-3.5 2.9-4q2.3-.4 1.3-2.4c-.9-2-.8-18 .1-19.4q1.8-3 1 4.2m76.4.8c0 2.5-.3 2.8-2.5 2.3q-4.4-.8-.7-3.8c2.6-2 3.2-1.7 3.2 1.5m11.7-.7q-.5 1.1-.6-.6t.5-1.3c.3.3.4 1.2.1 1.9M263 591q-.1.9-1.5 1c-1.4.1-1.5-.5-1.5-1q.1-1 1.5-1c1.4 0 1.5.4 1.5 1m-59.9 9.5c.4.5 1 4.1 1.4 7.9.6 5 .5 6.7-.4 6.2-.6-.4-1.1-2-1.1-3.5s-.7-5-1.5-7.7-1.4-6.3-1.4-7.9l.1-3 1.2 3.5c.6 1.9 1.4 3.9 1.7 4.5m110.9-2c0 3.2-.2 3.5-3 3.5-3.7 0-4.1-3-.7-5.3 3.2-2.3 3.7-2.1 3.7 1.8m-51.7-1q0 .9-1.8 1-2.1-.1-1.8 2.2t-1.6 2.3c-1 0-3.4.2-5.2.5q-4 .8-1.4-.5c1.1-.5 3.1-2.3 4.5-4 2.4-2.9 6.8-3.8 7.3-1.5m9.7 0q1.1-.5 1.7 1.4c.5 2.1.6 2.2 12.8 2.6q3 .2 3 1.5c0 1.1-1.5 1.4-6.5 1.3-6.1-.2-6.7 0-9.3 2.9q-3 3.3-3.7 1.9a9 9 0 0 0-3.1-2.5c-2-1-2.3-1.8-2.1-4.6.4-3.9 3-6.4 4.9-4.8q1.2.8 2.3.3m-24.7 5.6q-1 1.2-3 0-2.6-1.1 1.2-1.1 3 0 1.8 1.1m65.1 2q1.4-1.3 2.1-.1c.7 1.2 1.1.8 2.1-.1q1.4-1 2.1-.5c1.1 1.1-3 4.4-6.4 5.1-2.9.6-3.4.3-4.3-1.9-.8-2.3-1.2-2.4-3.9-1.5-1.7.6-3.6.9-4.3.6q-1.5-.5.2-.9l4.5-1.5c2.3-.7 3.4-.6 4.7.5s2.1 1.2 3.2.3m-51.7 3.5c.5 1.4-9.6 2.5-11.7 1.3q-1.8-.9.7-.9c1.2 0 2.5-.5 2.8-1.1.9-1.3 7.7-.8 8.2.7m-14.7.4q1.8 1-1.8 1-3.2 0-2.7-1c.8-1.3 2.6-1.3 4.5 0m14 7c0 2.3-.4 2.4-3.1.9-2.3-1.2-1.6-2.9 1.2-2.9q1.8 0 1.9 2m-40 .5q-.1 1.3-1.5 1.5c-1.6 0-2-1.2-.8-2.3 1.1-1.2 2.3-.8 2.3.8m27.5-.5q.5 1-2.7 1-3.6 0-1.8-1c1.9-1.3 3.7-1.3 4.5 0m-56.4 7.6q.9 1.2-.5 2.3-2.6 2.2-2.5-5.7l.1-3.7 1 3c.6 1.6 1.5 3.5 1.9 4.1m56.7-.4c-.4 1.1-6.8 1.8-6.8.7q0-1.8 4.3-1.9 2.7 0 2.5 1.2m-27.4 5.6a6 6 0 0 1-3.5 4.6q-2.8 1.3-2.9.4-.1-1.2-1.5.2c-1.8 1.5-1.8 1-.5-2.4q1-2.4 2.8-2.6c1.1 0 2.4-1.2 3.1-2.7 1.6-3.4 3.3-1.7 2.5 2.5m12.6.1c0 1-5 2.5-5.7 1.7q-.4-.5.2-1.5c.8-1.3 5.5-1.5 5.5-.2m7 0c0 1.8-1.7 2-3.6.6-1.8-1.4-1.8-1.4.9-1.5 1.5 0 2.7.4 2.7.9m4.2 11.1q-.7 14.4-2.4 13.4c-.6-.4-4.2-.6-7.9-.5-4.3.1-6.9-.2-6.9-.8 0-1 5.6-1.6 10.1-1.2 2.6.3 4.4-2.6 2.9-4.4-.7-.8-2-1.5-2.9-1.5-1.4-.1-1.4-.3.2-1.5 3.4-2.5 1.7-4.9-3.8-5.5-4.3-.5-4.6-.7-2.2-1.3 6-1.5 7.7-1.7 7.7-.7q.1.9 1 1 1-.1 1-1.6 0-1.4 1.8-1.2c1.4.3 1.7 1.3 1.4 5.8m-26.6-1q2.3 0 2.4 1.5-.1 1.4-1.5 1.5-1.5.1-2.1 1.4c-.5 1.2-1.1 1.3-3 .4-2.5-1.2-2.8-1.9-1.8-5.5.5-2 .8-2 2.1-.8.8.8 2.5 1.5 3.9 1.5m42.1.7q-.5 1.3-.5-1.2 0-2.6.5-1.8c.2.7.2 2.1 0 3m-58.2 3.3q-.6.9-2 1c-1.4.1-1.7-.5-2-1q-.4-1 2-1c2.4 0 2.4.4 2 1m31.8 1.7a17 17 0 0 1-4.5 0c-1.3-.2-.3-.4 2.2-.4s3.5.2 2.3.4m-11.9 16.4a66 66 0 0 1-.5 17.9c-1.4 4.5-2.1 4.8-4.9 2-1.1-1.1-2.9-2-3.9-2-1.1 0-2.3-.5-2.6-1s-2.7-1-5.1-1c-7 0-5.2-2.5 1.8-2.6 7.4-.2 9-.9 8.6-3.6-.3-2.1-.9-2.3-8-2.6-9.9-.4-10.2-2.2-.4-2.2q12.7 0 8.2-4.8c-2-2.3-2-2.9-.1-4.8q5.7-5.9-9.3-4.9c-3.8.3-6.2.1-6.2-.5 0-1.1 4.8-1.5 11.7-1.2 3.3.2 4.3-.1 4.7-1.6q.6-2 3-1.5c2.2.5 2.3.9 3 14.4m-11.7-2.5c-1 1-9.7 1.2-9.7.3 0-.5 2.3-.9 5.2-.9 2.8 0 4.9.3 4.5.6m23.3 1.6c0 1.3-4.3.6-4.7-.8q-.2-1.1 2.2-.7 2.3.6 2.5 1.5m9-.7q0 1.4-1 1.5-.9-.1-1-1.5c-.1-1.4.5-1.5 1-1.5q1 .2 1 1.5m-3.3.1q-.7.5-1.9.1t.6-.6q1.8 0 1.3.5m48.5 7.6q-1.1 1-1.2.2c0-1.4 1.2-2.6 1.9-1.9q.3.6-.7 1.7m-47.2-.8c0 2.5-1.4 3.1-6.5 2.8q-7.2-.5-5.1-2.3c.6-.6 11.6-1.1 11.6-.5m-2.5 8.6c.3.5.2 1.7-.3 2.6-.8 1.4-1 1.2-1.4-1-.5-2.6.5-3.5 1.7-1.6m229.5 7.4 6.8.5q4.4 0 4.2 1.6c0 1.3-1.8 1.4-11.7 1.1l-15-.5q-3.4-.1-3.3-1.7-.2-1.7 2.8-1.2c1.5.3 4.1.1 5.7-.3s4.1-.5 5.5-.3 3.6.7 5 .8m-181.5 6.3c.3 2.1.1 6.9-.5 10.8l-1.7 11.3c-.3 2.3-1 4.5-1.4 4.8-.5.3-.9 1.6-.9 2.9 0 2.3-1.6 4.2-2.6 3.2-.3-.2.2-2.3 1-4.6s1.2-5.4 1-6.9c-.4-3.4 2.7-25.2 3.7-25.2.4 0 1 1.7 1.4 3.7m195 2.9c3.3.8 6.5 2 7 2.6q1 1.1-1.5.4c-16.3-4.1-39.4-3.5-67 1.8a334 334 0 0 0-24 5.2c-4.1 1.3-33.7 8.4-35 8.4-2-.1 4.6-2.6 17-6.5l21.5-7a138 138 0 0 1 16.5-4l13.5-2.6c6.6-1.4 45-.2 52 1.7m-59.7 11.5q-.4 1-1.3 1-1.2 0-1.3-1t1.3-1.1c1.5-.1 1.5.5 1.3 1.1M357 711q-1.4.9-2.5 1-.7-.1.5-1 1.8-1.2 2.5-1 .8.1-.5 1m-5 2q-1.4.9-2.5 1-.7-.1.5-1 1.8-1.2 2.5-1 .8.1-.5 1m-5 1.5c0 .6-17.9 6.2-22.5 7l-4 .6 5-2.5c2.8-1.4 5.9-2.6 7-2.6s4.3-.7 7-1.4c5.4-1.5 7.5-1.9 7.5-1.1m60 .9c0 1.6-2.4 3.8-3.3 3-.8-.9 1.1-4.4 2.3-4.4q1 .1 1 1.4m4.4.1q-.7 1.3-1.6 1.5-.9 0 .2-1.5 1.2-1.3 1.6-1.5.3.2-.2 1.5m71.4.8a44 44 0 0 1 15.8 2.8c.6 1.1-7.6.6-9.4-.5q-1-.5-1.7.4t-1.5.5c-1.3-.8-24.1-.9-27.9 0q-3.2.7-2.7-.3c.6-1 6.8-2 16.7-2.7 2.8-.2 5.4-.6 5.6-.9q.7-.5 2.2.3c.9.5 2.2.6 2.9.4m-118.1.3q-.6.5-1.9.1-1.1-.5.6-.6t1.3.5m37.3.9q-.2 1.2-1.5 1.9-1.4.4-1.5-.5c0-1.3-3.9-.2-6.3 1.9-.9.8-2 1.2-2.4.9q-.6-.6-1.9.4c-.8.6-2.1.8-3 .5s-2.3-.1-3 .5q-1.5 1.2-1.4.1c0-2.4 10.7-6.8 16.8-6.9q4.2-.2 4.2 1.2m51.7 2c-.2.5-1.8 1-3.5 1.1-1.7 0-3.4.3-3.8.6-.3.4-1.7.2-3.1-.3-1.9-.7-3-.6-4.2.4-1.8 1.6-10.6 1.7-10.6.2 0-.6 2.9-1.5 6.5-2.1 8-1.4 19.2-1.4 18.7.1m-135.6 2.6q1.1.2-1.1.8c-3.2 1-4 .5-4-2.1 0-2 .1-2 1.8-.5 1 1 2.5 1.7 3.3 1.8m-62.7 1.9c-.5.4-1.8.4-2.9 0q-3-1 .3-.9 2-.2 2.3-1.4 0-1.3.6.1.4 1.3-.3 2.2m170.6-1.6q-.2 1.4-1.7 1.5c-1 0-2.5.1-3.3.3q-1.4.2-1.8-.7c-.1-.6 1.2-1.3 3-1.6l3.6-.8q.2 0 .2 1.3m-47 1.1q-1.2 1.3-2.1 1.5c-.9.2-.9-.7-.9-1.5q.1-1.4 2.1-1.5c1.8 0 1.9.2.9 1.5m-86.5 9.9c.2 4.7 0 8.8-.5 9.1s-.9-3.8-.9-9.1c-.1-11.8.9-11.8 1.4 0m48.1-7.8c-.3.9-.6 2-.6 2.5s-.7.9-1.6.9q-1.6 0-1-1.6.5-1.5.6-2.5c.1-1 .7-.9 1.6-.9q1.6 0 1 1.6m32.5.7c-1.3 1.3-2.6.3-1.6-1.2q.6-1 1.7-.5 1 .6-.1 1.7m42.9-.3q-1 1.8-1.5 2-.5-.2-.5-2c0-1.8.7-2 1.5-2q1.9-.2.5 2m-46.8.5q-.1.9-1.1 1.3-1 .2-1.1-1.3c-.1-1.5.5-1.5 1.1-1.3q1 .4 1.1 1.3m41.8-.5q-.1.9-1.1 1-.8-.1-.4-1t1.1-1q.3 0 .4 1m63.5.1c.9 1.3.7 1.5-2.7 2.3-2.4.5-2.8.3-2.8-1.4q0-2.1 2.4-2c1.4 0 2.8.5 3.1 1.1M279 727.5q0 1.3-.9 1.5c-1.3 0-2.2-1.6-1.4-2.4 1.1-1.1 2.3-.6 2.3.9m129-1.1q0 .5-1 1.1-.9.4-1-.4.1-1 1-1.1 1 0 1 .4m57.9 2.3q.1 3.6-.9.8c-1.2-2.7-1.2-3.5 0-3.5.6 0 1 1.2.9 2.7m-137.4-.7q-.7.9-1.6 1-.9-.1-.4-1a2 2 0 0 1 1.6-1q.9 0 .4 1m35.5 0q0 .9-.4 1-.5-.1-1.1-1-.4-1 .4-1 1 0 1.1 1m39-.2c0 1.2-2.8 4.8-3.3 4.2-.8-.8 1.1-5 2.3-5q.9.1 1 .8m59.3 1.3c-.7 2.5-2.3 3.5-2.3 1.5 0-2.4-1.7-1.9-2.5.6q-.8 3-1.2.5-1.3-4.2 3.5-4.4c2.5-.2 2.9.1 2.5 1.8m-446.3.4c4.2.4 8.3 1 9 1.6 2.2 1.3-12.5 1.1-17.1-.3-4.1-1.2-5.5-3.2-1.6-2.4 1.2.3 5.6.8 9.7 1.1m32.7.5c1.4 0 4.9 1.1 7.7 2.3 4.5 2.1 6.8 2.4 18.9 2.5 8.6.1 16.1.8 19.7 1.7 5.9 1.5 18.2 1.6 55.5.1 10.2-.3 12.6-.2 9 .4-17 3.2-43 4.5-56.6 3-5.2-.6-15-1.6-21.9-2.1a445 445 0 0 1-50.5-5.8c-3.6-.7-3.7-.8-1.5-1.4a39 39 0 0 1 14.8-1.5c1.3.4 3.5.8 4.9.8m400.3-1.3c0 .5-.9 1.9-2 3.3l-2 2.5v-2.4c0-2.3-.1-2.4-2-.6s-2 1.7-2-.3.8-2.3 6.8-3.1q1 0 1.2.6m5-.3c0 1.6-2.1 5.6-3 5.6-1.1 0-1.4-4.3-.3-5.3.7-.8 3.3-1 3.3-.3M320 731q0 1.8-.9 2c-.9.2-.7-.9-.4-2q.5-1.8.9-2 .4.2.4 2m36.2-.5q-.1.9-1.1 1.3-1 .2-1.1-1.3c-.1-1.5.5-1.5 1.1-1.3q1 .4 1.1 1.3m31.9 1.8q-1.2 1.2-1.1-.4c0-2 1.3-3.4 1.8-1.9q.3 1.2-.7 2.3M385 731q0 .9-1 1a1 1 0 0 1-1-1q.1-1 1-1t1 1m54 0c0 .6-1.2 1.5-2.7 2.1a9 9 0 0 0-3.9 2.7c-1.2 1.6-1.3 1.5-1.4-.5q.1-2.3-2-1.6c-3 .8-2.4-1.4.8-2.5 3.6-1.4 9.2-1.5 9.2-.2m-198 .5c0 .9-4.4 2.3-5.4 1.7q-.7-.6 1-1.3c2.3-.9 4.4-1.1 4.4-.4m141 .9c0 .7-.6 2.1-1.4 3.1-1.3 1.8-1.4 1.8-3.1.2-1.3-1.4-2-1.5-3.1-.6-.7.6-1.8.8-2.4.4s-1.8.1-2.6 1.1q-1.6 2.2-2.1.6-.4-1.5-2.8.8-2.3 2.2-3 1c-.9-1.5 3.5-6.2 5.2-5.6q1.2.4 1.9-.5t2-.5c.7.3 1.6.2 1.8-.3.9-1.3 9.6-1.1 9.6.3M279.5 734c.3 1.1.4 2.9 0 4-.5 1.6-.9 1.8-2.6.7-2.2-1.3-2.5-3.7-.7-5.5q2.4-2.6 3.3.8m68.5-1q0 .9-1 1a1 1 0 0 1-1-1q.1-1 1-1t1 1m77 1.6c0 .7-.4 1.6-1 1.9q-.9.4-1-.6c-.1-1-.8-.5-2 .6-1.1 1-2 2.4-2 3s-.7 1.9-1.7 2.6c-1.5 1.3-1.6 1.1-1.1-1.4.3-1.5.1-2.7-.3-2.7s-1.5 1.2-2.3 2.7l-1.5 2.8.2-3q.2-2.9-1-2.8-1.2.3-1.3-.7c0-1.2 8.3-3.7 12.2-3.7q2.6.1 2.8 1.3m-86 .4q-.1.9-1.6 1-1.3-.1-.9-1 .6-1 1.6-1 .8 0 .9 1m-121 1c0 .5-1 1-2.2.9q-3.2.1-.3-.9l2.3-.9q.2 0 .2.9m5.3-.3c-.7.2-1.9.2-2.5 0q-1-.5 1.2-.5c2.2 0 1.9.2 1.3.5m213.7-.3q0 .6-1 1.1-.9.4-1-.4.1-1 1-1.1 1 0 1 .4m-104 1q0 .6-1 1.1-.9.4-1-.4.1-1 1-1.1 1 0 1 .4m20.7 3q-.7 1.5-1.7 1.6c-1.1 0-1.4-3.3-.3-4.4 1.1-1 2.6 1.1 2 2.8m5.3-2.5c0 2.1-1.3 4.1-2.6 4.1-1.7 0-1.7-.5-.4-3.1 1.1-2 3-2.6 3-1m114 .1c0 1.8-4.4 9.4-4.8 8.2-.2-.6.1-2 .7-3.1s1.1-2.9 1.1-4q.1-2 1.5-2.1c1.4-.1 1.5.4 1.5 1m7.5 0q.4.9-.4 1-1-.1-1.1-1 0-1 .4-1t1.1 1m-73.7 1.7c-.9 1-1.9 2.8-2.2 4-.8 2.4-2.6 3.2-2.6 1.2q-.1-.8-2.1 1.2c-1.9 2.2-2 2.2-1.6.4l.8-3q1-1.6-3.1-1.5-2 .2-3 2.4c-1.3 3.5-3.2 4.4-2.4 1.2.9-3.6-.8-3.2-3.1.6-1.9 3.2-2 3.2-2.3 1s-.4-2.3-1.8-.5-1.4 1.6-1.2-1.2c.3-3 .5-3 10.3-5.1 5.5-1.2 11.3-2.2 12.9-2.3 2.7-.1 2.8 0 1.4 1.6m56.1.4q-2.6 1.3-1.4-1 .6-1 1.7-.5.9.6-.3 1.5m5.1-.2c-1.5 2.9-3 3.5-3 1.3s.8-3.2 2.7-3.2q1.5-.1.3 1.9m16.9-1.2q0 1-.9 2.8-1 2.7-.7-.8c.1-1.5.5-2.7.9-2.7s.8.3.7.7m-240 2.9c-1.4 1.8-2.4 1.1-1.5-1.1q.7-1.4 1.6-1 1.2.7-.1 2.1m104 .6q-1 1.8-1.8 1.1c-.3-.6-1.3-1.2-2.1-1.5q-1.7-.5 1-1.6 5-2 2.9 2m107.7 2.5c-1.4 2.6-2.5 4-2.6 3.1 0-3.2 3.6-9.6 4.8-8.3.2.1-.8 2.5-2.2 5.2m-2.6-3.8q0 1-1 1.6-.9.4-1-.9.1-1.5 1-1.6 1 0 1 .9m-181 1.2q.1 1 2.5.7 2.9-.7 1.5 1.2c-1.2 2.3-3.5 3.1-4.9 1.7s-1.5-4.7-.1-4.7q1 .1 1 1.1m69 .1c-.1 1.8-2.5 4.8-3.9 4.8-1.8 0-1.3-4.8.7-5.3 2.9-.8 3.2-.7 3.2.5m108-.3c0 1.8-2.6 3.1-3.8 1.9q-1-1.3-2.3 1.6c-1.1 2.3-1.4 2.5-2.2 1.1-.8-1.5-1-1.5-2.7 0s-1.9 1.5-2.8-.1c-1-1.7-1.2-1.7-3.1.6l-2 2.5-.1-2.3c0-1.2.6-2.4 1.3-2.6l6.2-1.8c5.8-1.7 11.5-2.1 11.5-.9m-118.4 2.2c.3.6-.1 1.8-1 2.7-1.5 1.5-1.6 1.4-1.6-1.1 0-2.7 1.3-3.6 2.6-1.6m-4.2 2q-.6.8-1.5.3t-.3-1.5q.6-.8 1.5-.3t.3 1.5m52.4 1.1c-1.6 4.7-3.2 6.1-2.5 2 .6-3-.5-4.4-1.8-2.2-.9 1.5-2.5 1.2-2.5-.4q0-2.2 5.7-2.5c2-.1 2.1.1 1.1 3.1m-88.7.1c-1.3 1.3-2.6.3-1.6-1.2q.6-1 1.7-.5 1 .6-.1 1.7m32.7-.8c.9.9-.2 1.3-5 1.8q-7.2.8-5.2-2.4c.6-1.1 9.1-.6 10.2.6m105.2.6q-1.1 2-2.4 1-1.2-1.1-2.5 1.1c-1.1 1.7-1.5 1.8-2.2.7-1.4-2.2-1.1-2.5 2.4-3.7 5.2-1.6 5.9-1.5 4.7.9m-63.6 2q-.6.8-1.5.3t-.3-1.5q.6-.8 1.5-.3t.3 1.5M459 747q-.1.9-1.1 1-.8-.1-.4-1 .6-1 1.1-1 .4 0 .4 1m-219.4 1.6c-.3.9-.6 2.2-.6 3 0 2.2-1.7 1.6-2.3-.8q-1.1-3.8 2-3.8 1.5 0 .9 1.6m4.3 1.4c-.6 1.6-1.5 3-2 3-.9 0-.1-2.8 1.4-4.8q2.3-3 .6 1.8m34.1 0c-1.2 1.6-2.4 3-2.6 3-.7 0 .5-2 2.4-4.3 2.4-2.7 2.5-2 .2 1.3m83.3 0q-.5 1.8-.9 2-.3-.2-.4-2c-.1-1.8.4-2 .9-2s.7.9.4 2m53.9.2q-1.1 1-1.2.2c0-1.4 1.2-2.6 1.9-1.9q.3.6-.7 1.7m-126.8 6.4q-1.7 4.4-2.7 3.5t.7-3.2a10 10 0 0 0 1.6-4.5c0-2.6 1.4-4.1 1.8-2 .2.9-.4 3.7-1.4 6.2m64.6-4.5c-1.2 2.2-3 2.5-3 .6 0-1.7 2.1-3.8 3.2-3.1.4.3.3 1.4-.2 2.5m58-1.6q-1.2 1.4-1.7 1.1c-.7-.7.7-2.6 1.9-2.6q1 0-.2 1.5m-63 2q0 1.3-1 1.5-.9-.2-1-1.5c-.1-1.3.5-1.5 1-1.5q1 .2 1 1.5m124-1.1q0 .5-1 1.1-.9.4-1-.4.1-1 1-1.1 1 0 1 .4M343 753q0 .9-1 1a1 1 0 0 1-1-1q.1-1 1-1t1 1m-5 1q0 .9-1 1a1 1 0 0 1-1-1q.1-1 1-1t1 1m-64.9 2.7q-1 2.2-1.1.2c0-1.7 1-3.2 1.8-2.5q.2.6-.7 2.3M323 755q3.5 1 0 1.4c-.5 0-1.6 1-2.4 2.1q-1.5 1.7-1.6.7t-1.5-1.2c-1.4-.2-1.5-.6-1.5-1.3q-.2-4.1 7-1.7m6-.6q0 .5-1 1.1-.9.4-1-.4.1-1 1-1.1 1 0 1 .4m58 .7c0 1.3-3.9 7.9-4.6 7.9-.5 0 .6-7 1.3-8.3.7-1.1 3.3-.8 3.3.4m5-.5c0 .3-1.2 2.2-2.6 4.2s-2.4 2.9-2 1.9l1.2-4.3c.5-2 3.4-3.6 3.4-1.8m-10.4 1.5q.4 1.1-.5 2.2-1.2 1.4-2.1-.3c-.9-1.5-.4-3 1-3q.9.1 1.6 1.1m96.9-.2q1.3 2.4-6 1.4-4.6-.6-3.3-1.4c1.8-1.2 8.5-1.1 9.3 0M377 757.5q0 1.3-1 1.5-.9-.2-1-1.5c-.1-1.3.5-1.5 1-1.5q1 .2 1 1.5m-129 .5q0 .9-1 1a1 1 0 0 1-1-1q.1-1 1-1t1 1m117 1q0 .9-1 1a1 1 0 0 1-1-1q.1-1 1-1t1 1m32 0q-.1.9-1.1 1-.8-.1-.4-1 .6-1 1.1-1 .4 0 .4 1m-41.4 4.7c-.6 1.4-.8 1.4-2-.2-1.3-1.8-1.4-1.8-2 .3-1.1 3.2-2.5 2.7-2.4-.9.1-2.5.5-3 2-2.6 1 .3 2.1 0 2.4-.5 1-1.5 2.7 2 2 3.9m-12-1.1c-.3.9-.6 2-.6 2.5s-.4.9-1 .9q-.9-.2-1-1.5c0-2-1.7-1.9-2.9.2-1.4 2.5-2.5.9-1.1-1.6 1.4-2.6 7.6-3.1 6.6-.5m-9.3.9q-.6 1.4-1 1.1-.4-.5.2-1.5c.9-1.6 1.5-1.3.8.4m-7.3-.1q0 .5-1 1.1-.9.4-1-.4.1-1 1-1.1 1 0 1 .4m4 0q-.1.4-1.5 1.6-1.8 1.7-.9-.4c.5-1.4 2.4-2.3 2.4-1.2m-39.3 3.8q-.5 1.1-.6-.6t.5-1.3c.3.3.4 1.2.1 1.9m171-.6q-.7.5-1.9.1t.6-.6q1.8 0 1.3.5m12.3.4c0 .5-1.6 1-3.5 1s-3.5-.5-3.5-1 1.6-1 3.5-1 3.5.4 3.5 1m-329.6 2.5c2.3 1.5 7.6 1.5 25.1 0 10.7-1 15.1-1.1 18-.4l9 2c4.3 1 6.7 2.1 8.3 4 1.2 1.5 4.3 3.5 6.8 4.5 6 2.3 4.2 3.2-6.5 3.5-6.2.2-8.9.7-10.5 2-3.4 2.8-1 3.8 10.4 4.4a88 88 0 0 1 23 3.2c3.9 1 7.8 2.8 9.8 4.5a13 13 0 0 0 4.6 2.8c.7 0 3.5 1.2 6.2 2.6 3.5 1.9 5.7 2.4 8.1 2l6.9-1.2c2-.4 6.1-.1 9.1.7 6.4 1.5 8.6.6 9.1-3.5.5-3.9 3.2-4.9 6.3-2.2 2.9 2.5 4.1 5.9 4.3 12.6l.1 4.5h-79c-43.4.1-89.5-.1-102.2-.3-22.4-.3-23.3-.4-23.3-2.3 0-3-11.9-8.2-18.8-8.2-4.3 0-5.2-.3-4.7-1.5.7-1.9-1.2-4.2-3.6-4.2q-1.8-.1-1.9-1.1c0-.8 2.3-.9 8.3-.3 15.4 1.6 29 .8 31.3-1.7 2-2.2 4-2.5 4.6-.7q.4 1.2 3.3-1a10 10 0 0 1 4.4-2.2c.9 0 3.4-1.1 5.6-2.5 4.4-2.7 7.2-3.1 10.9-1.4 2 1 3.3.8 7-1a16 16 0 0 0 4.8-3.2c.2-.5 2.6-1.6 5.3-2.3q4.9-1.2 5.3-2.9c.4-1.8-1.6-2.5-9-3.1-2.6-.1-5.3-.8-6-1.4s-2.6-1.2-4.3-1.4c-3.3-.5-2.9-.7 5-3.1 6.5-2 6.2-2 8.9-.2m234.4 1.5c-1 3-2.8 5-2.8 3.1 0-2 2-6.1 2.9-6.1q1 0-.1 3m-24.8 2.9c0 .3-.5 1.3-1 2.1-.8 1.3-1.1 1.3-1.9.1q-.9-1.7-1.6.8c-.3 1.1-1.1 2.1-1.6 2.1-1.7 0-.9-3.5 1.3-6.3 2.1-2.6 2.3-2.7 3.5-1.1q1.2 1.7 1.3 2.3m17.6-2.6q.8.6 2-.4 1.3-1.2 1 .8c-.2 1-1.3 1.9-2.4 2.1q-2 .4-2.2 1.3c-.2.9-.7.9-1.5.9s-1.5-.5-1.5-1.1q-.1-1-1.7-.4-2.3.8-3.5.7-1.6 0-1.8.9c0 1.7-2 .9-2.1-.9q0-2.4-.6 0c-.7 2.8-2.3 2.1-2.3-1 0-1.6.2-3.1.5-3.4.8-.8 15.3-.3 16.1.5m-44.6 1.6c0 .3-1.8 1.4-4 2.3-3.8 1.6-4 1.6-4-.1 0-.9.5-2.2 1-2.7 1.1-1.1 7-.7 7 .5m-88 .3c0 2.5-1.2 5.8-2.1 5.8-.5 0-.9-1.6-.9-3.5q0-3.6 1.5-3.5 1.3.1 1.5 1.2m96 .2c0 .7-.7 1.9-1.5 2.6-1.3 1.1-1.5.8-1.5-1.4q0-2.5 1.5-2.6 1.3.1 1.5 1.4m146.4 2.2c3.8 1.4 1 2.4-6.9 2.4-12.3 0-11-2.3 1.7-2.8 2-.1 4.3.1 5.2.4M284 776.8c0 .4-1.7 3-3.7 5.8l-5.6 7.4-1.8 2.5.7-2.5a42 42 0 0 1 7.8-11.7c2.1-2.5 2.6-2.8 2.6-1.5m179 .2q-.2.9-1.9 1c-1.1 0-2.3-.5-2.6-1q-.4-1 1.9-1c2.3 0 2.6.4 2.6 1m-334 1c2 1.2 1.3 1.6-4.4 2.4l-4.8.6 2.3-2c2.6-2.1 4.6-2.4 6.9-1m98 4q1.8 1-1.8 1-3.2 0-2.7-1c.8-1.3 2.6-1.3 4.5 0m-132 1c0 .6-1.3 1.9-3 2.8s-3 2.2-3 2.8c0 2 2.8 3.6 5.2 3q1.8-.4-1.2 1c-2.7 1.3-5.1 1.5-11 .9-16.1-1.4-19.7-2.1-21.4-3.8q-1.8-1.7-6.9-1.8c-2.9-.1-6.5-.5-8.2-.9s6.9-.6 19-.6c21.2.1 22.2 0 25.5-2.1 3.9-2.5 5-2.8 5-1.3m19 2.2a64 64 0 0 1-16.4 5.8c-1.4 0 3.7-6.2 5.8-7 1.1-.5 4.5-.8 7.4-.7 5.3.1 5.3.2 3.2 1.9m-86 .3c-.8 1-.6 1.8 1 3.3q3.5 3.3 20.3 3.4c7 .1 7.9 1.4 1.7 2.7q-3.1.5-5.3 4.4c-2.2 3.8-2.2 3.9-.3 5.3 1.1.8 3.5 1.4 5.3 1.4 2.7 0 3.5.5 4.3 2.6.9 2.3 1.4 2.5 4.4 2 1.8-.4 4.4-.2 5.8.3a5 5 0 0 0 4.2-.1q1.7-1 4.8.3c2.8 1.2 2.9 1.3 1.2 2.6-1.3.9-5.9 1.3-16.8 1.3H43.7l-4.2-4.4c-3-3.1-4.4-5.5-4.9-8.4-.4-3.1-1.4-4.6-3.4-5.9A63 63 0 0 1 19 784.9c0-.4 2.3-.7 5-.7 4 0 4.8.3 4 1.3m322-1.1q0 .5-1 1.1-.9.4-1-.4.1-1 1-1.1 1 0 1 .4m12 .3q-.1 1-1 2.3-1.1 2-1-.8.1-2 1-2.2 1 0 1 .7m-121.6 3.8q.5 1.4-.9 1.5-1.4-.2-1.5-1.5c-.1-1.3.4-1.5.9-1.5s1.1.7 1.5 1.5m41.9 0q-.6 1.5-1 1.1-.4-.5.2-1.5c.9-1.6 1.5-1.3.8.4m12.9 1.7q-1.1 1-1.2.2c0-1.4 1.2-2.6 1.9-1.9q.3.6-.7 1.7m-49.2.8q1.3.9.9 1.5c-.8.8-3.9-.5-3.9-1.6s1.1-1.1 3 .1m34.1 2.3q-1.5 1.4-.5-.6.6-1.6 1.2-1.2.4.6-.7 1.8m67.2-1.4c1.8.2-.4 1.9-3 2.4-2.5.5-6.3-1-6.3-2.5 0-.3 1.9-.5 4.3-.3zm6.2 1.1c.8 1.3-1.5 1.3-3.5 0q-1.9-1.1.7-1c1.2 0 2.5.4 2.8 1m-16.9 5.7c.9 1.6 3.9 6.1 6.6 10.2 3.6 5.3 4.6 7.7 3.8 8.5q-1 1.2-1.7-1.3c-.5-2.1-1-2.3-7.2-2.1-3.6.2-8.2.2-10.1.1l-3.5-.3 2.8-1c3.3-1.2 3.5-3.3.5-4.2-2.1-.5-1.9-.8 2-2.8 4.3-2.2 5-3.6 3.1-5.5-1.3-1.3-.5-4.3 1-4.3.6 0 1.8 1.2 2.7 2.7m41.9 1.8a41 41 0 0 1 17 8.5c1.1 1.3 3.5 2.9 5.3 3.7 3.8 1.6 4.2 4 .8 5.3-2.1.7-29 .5-39.1-.4l-5.7-.4q-2.6-.3-2.8-1.5c-.2-1.2-2.2-4.5-5-8.4a86 86 0 0 1-5-7.6c0-2 27.1-1.4 34.5.8m-73 3.5c.4.6-.7 1-2.4 1s-3.1-.5-3.1-1 1.1-1 2.4-1c1.4 0 2.8.4 3.1 1"/><path d="M175.6 121.2c-2 2.8-2.1 4.8-.2 4.8 1.7 0 3.3-1.9 3.8-4.4.5-2.8-1.8-3.1-3.6-.4M222 531q0 .9.9 1 1-.1 1.6-1 .4-1-.9-1-1.5 0-1.6 1m4 4.5q0 1.3.4 1.5c.4.2.6-.7 1-1.5q.4-1.3-.4-1.5-1 .2-1 1.5m-36.4-16.6c-1.7 1.9-1.7 1.9.2 1.4q2-.6 2.6-1.9c.8-2-.8-1.7-2.8.5m76.8 84.2c-.3.6-.1 1.6.4 2.1 1.3 1.3 4.5-.8 3.6-2.3-.7-1.2-3.1-1.1-4 .2M202 791.8q-4.6 1.6-2.9 3.8c.8 1 2.7 1.2 6.6.9 7.2-.6 17.8 1.6 26.3 5.6 7 3.2 10.5 3.3 9.4.4-1.4-3.5-16-8.9-26.9-10l-8.5-.9a10 10 0 0 0-4 .2"/><path d="M218.3 801q-5.2 2 2.3 3.8c2.5.7 6.4 2.1 8.7 3.2 4.5 2.2 6.3 2.5 7.2 1.1 1.3-2.2-4.8-5.7-15-8.7-.5-.1-2 .1-3.2.6m24.2 7q-2.2 3 7.1 3c4.8 0 6.4-.3 6.4-1.4q-.1-1.4-1.6-2c-2.5-1-11.2-.7-11.9.4m-129-449q-.4.9.4 1 1-.1 1.1-1 0-1-.4-1-.6 0-1.1 1m276.9 118.1q-.5 1 .4 2.1c1.3 1.3 3.2.2 3.2-1.8 0-1.6-2.6-1.9-3.6-.3M472 790.5c-1 1.2-1 1.8 0 3 2 2.5 5.5 1.5 5.5-1.5s-3.5-4-5.5-1.5m-466 41c0 .8.9 1.5 1.9 1.5 2.7 0 3.1 1.8 3.1 15.3 0 9.6-.3 12.4-1.6 13.8q-3.6 3.6 3.9 3.7c4.5.2 8-1.9 5.7-3.3-1.1-.7-1.4-12.3-.4-14.9s1.9-1.9 5.7 4.3c2 3.2 4.3 6.4 5.2 7.1.8.7 1.5 2.5 1.5 4.1 0 2.8.2 2.9 4.8 2.9 2.7 0 5.2-.3 5.5-.6.4-.4-1.4-2.8-3.9-5.4A53 53 0 0 1 26 842.4c0-2.4 5.2-6.3 8.5-6.4q6-.2 5.2-3.4c-.5-1.2-2-1.6-5.8-1.6-4.2 0-5.2.3-5.6 1.9-.5 2.1-8.7 8.4-9.7 7.4-1.6-1.6-.5-5.4 1.9-6.3 1.4-.5 2.5-1.4 2.5-1.9 0-1.5-2.8-2.1-10.1-2.1-5.5 0-6.9.3-6.9 1.5m229.3-.7a28 28 0 0 0-8.3.9q.1.8 1.4 2.2c1.1 1.2 1.5 5 1.7 15.1.1 7.4 0 14.2-.2 15-.5 2 12 3.4 13.9 1.5 1.2-1 1-1.6-.6-3.1q-2-1.8-2.6-7.9l-.7-6.1 4.8-1.2q9.2-2.6 9.3-8.4c0-3.1-3.9-7.8-6.4-7.8q-1.4 0-2.8-.3c-.7-.1-5-.1-9.5.1m7.4 3.4c1.6 2 2.3 6.2 1.4 7.7-1.6 2.5-4.6.8-4.9-2.8-.5-5.4 1.2-7.8 3.5-4.9m-199.4-2.5c-2 .7-1.5 2 .8 2.6 2 .5 2 1.1 1.8 15.9l-.2 15.3h7.2c6.9 0 9.7-1.4 4.9-2.5-2.2-.6-2.3-1.1-2.3-8.7-.1-9.6.7-9.6 5.5 0q7.6 15.3 15.4 12.1c1.8-.7 2.2-4.9.6-5.9-.6-.4-1-5.7-1-12.5s.4-12.1 1-12.5c.6-.3 1-1.3 1-2.1 0-1-1.4-1.4-5.5-1.4-3 0-5.5.4-5.5 1q.2.9 1.5 1c1.2 0 1.5 1.8 1.5 10.7l-.1 10.8-2-2.5a83 83 0 0 1-6.5-11.3 39 39 0 0 0-5.7-9.2 46 46 0 0 0-12.4-.8m40.4 0c-2.8.4-2.8.5-1 2.5 1.5 1.7 1.8 3.9 1.9 16.4.1 8 .3 14.6.5 14.8s1.6.6 3.1 1c4.4 1 5.5-1.1 5.2-9.8-.1-4.2.1-7.6.5-7.6s1.2 2 1.9 4.5 2.7 6.2 4.6 8.3l3.5 3.7 8.1-.2a45 45 0 0 0 9-.8c.6-.3 1-3 1-5.9v-5.4l-4.5-.6c-2.4-.4-5.2-.3-6.1.2-1.6.9-1.5 1.1.4 2.1 2.5 1.3 3 4.1.7 4.1-.8 0-2.4-.9-3.6-2.1-1.6-1.6-2-2.9-1.5-5.1.3-1.7.6-4.8.6-6.9 0-4.6 2.7-7.9 6.5-7.9 2.1 0 2.5.5 2.5 3 0 3.4.6 3.6 3.8 1.4 1.8-1.2 2.2-2.4 2-5.2l-.3-3.7h-7c-10.7 0-16.9 3.7-19.9 12-1.5 4-1.5 4-1.6 1a17 17 0 0 1 0-4c.6-2.5.7-8.6.1-8.9-1.3-.7-7.7-1.3-10.4-.9m60.9 0q-.4.8 1.2 2.3c1.6 1.2 1.8 2.3 1.3 6.5s-1 5-2.9 5.3q-5.8 1-5-7c.3-2.6 0-5.2-.6-5.8-1.4-1.4-10.3-1.3-11.2.1q-.5 1.2 1 2.1c1.3.8 1.6 2.9 1.6 13.8 0 7.5-.4 13.1-1 13.5-2.5 1.6-.6 2.6 4.3 2.3l5.2-.3.5-7.5.5-7.5 3.8-.3 3.7-.3-.2 7.6c-.2 8.9.8 10.6 4.7 8.1 2.5-1.7 2.5-1.7 1.9-12.4-.3-5.9-.2-12.6.4-14.9q1-4.2-.1-5.2c-1.2-1.2-8-1.5-9.1-.4m20.7.3c-4 .3-7.6.9-7.9 1.3-.4.3-.1 2 .6 3.7 1.5 3.6 4 3.7 5.5.2 2.2-5 3-2 2.9 11.2 0 11.2-.3 13.6-1.7 15.1-2.6 2.6-1.2 3.4 5.3 3 7.1-.4 9-1.3 6.7-2.9-1.7-1.3-2.3-7.6-1.9-21.4.2-8 .3-8.2 2.7-8.2q2.6-.1 2.5 1.9c0 2.6 1 3.1 3.8 2 2.4-.9 2.9-3.8 1-5.7-1.3-1.3-7.5-1.4-19.5-.2m91.9-.4c-1 .5-1.1 3.7-.6 15 .6 13.1.5 14.6-1.1 16.4-1.8 2-1.7 2 9.1 2 6 0 11.4-.4 12.1-.8s1.7-2 2.3-3.6c.9-2.4.8-3.2-.4-4.4q-3.3-3-6.2 3.3c-1.5 3.6-2.1 4-4.2 2.7-1.7-1.1-2.9-11.2-1.3-11.2q1 0 1.1 1c0 1.7 3.7 1.1 4.4-.6.4-.9.4-3.2 0-5q-.6-3.6-2.5-3.4t-2.5 1.5c-1.3 3.4-2.5 1.1-2.2-4.3.3-5.3.5-5.7 2.9-6q2.8-.5 3.2 1.8c.7 2.5 3.4 2.4 5.1-.2q1.1-1.8-.1-2.9a54 54 0 0 0-19.1-1.3"/><path d="M301.8 831.7c-3.3.5-3.4 1-1.1 3.5q1.8 1.8 2 8.6l.3 6.7-2-4.4a88 88 0 0 0-5.2-9.2l-3.1-4.9h-5.9c-5.9 0-6.6.6-4.9 3.8.4.9 1.1 7 1.5 13.4.6 11.2.5 11.8-1.6 13.7-2.7 2.6-2.1 3.2 3.5 3.4 5.3.2 6.6-.7 4.9-3.3-1.3-2.2-1.7-16-.4-16 .8 0 2.8 4.1 5.2 10.4 2.3 6.1 4.7 8.3 9 8.3q4.2 0 5-1.8c.6-1 1-7.3 1-14.1 0-9.8.3-12.8 1.6-14.7s1.4-2.5.3-3.2c-1.4-.9-5.1-.9-10.1-.2m14.8 1.2a7 7 0 0 0-1.4 5.2c.4 4.6 3.2 5 5.3 1 .8-1.7 2.3-3.1 3.2-3.1 1.3 0 1.5.9 1 5.7-.3 3.2-.3 10 0 15.1l.6 9.2h3.4c4.6 0 5.3-2.4 4.6-15.4-.4-7.8-.3-10.9.7-12.1 1.9-2.2 3.9-1.8 5 1q1 2.5 3 2.5c1.9 0 2.1-.5 1.8-4.7-.3-4.7-.4-4.8-4.3-5.5-2.2-.4-7.9-.7-12.6-.7-7.2-.1-8.9.2-10.3 1.8"/><path d="M347.5 831.9c-.4.7.1 2.1 1 3.1 1.7 1.9 1.5 2.5-3.4 13.7a72 72 0 0 1-7.2 13.5c-3.2 2.7-2.3 3.8 3.6 4l7.2.2q1.5 0 2.1-1.2.3-1.1-2.2-1.2c-3.8 0-4.2-2.3-1.5-7.7 2.6-5.1 4.1-5.9 9.6-4.8 2.9.5 3.7 1.3 5.4 5.1a26 26 0 0 1 1.9 6.9c0 2.6 1.4 3.3 7.2 3.7q7 .3 3.2-2.7c-1.3-.8-2.5-3.6-3.3-7.2-.8-3.2-2.6-9.2-4.1-13.5-2-5.5-2.5-7.9-1.7-8.7q3-3-9-3.8c-5.7-.4-8.2-.2-8.8.6m9.9 9.8 1.2 4.5c.4 1.5-.1 1.8-2.9 1.8-1.8 0-3.6-.3-4-.6-.8-.8 3-8.4 4.2-8.4.5 0 1.2 1.2 1.5 2.7m50.3-8.6c-1.7 1-1.7 1.2-.2 2.9s1.7 4.1 1.6 17l-.2 15.1 10.3-.4c10.1-.3 10.3-.4 11.6-3.1 1.7-3.3.9-5.6-1.8-5.6q-2 .1-3 2.6c-.8 2.1-1.5 2.5-4.2 2.2l-3.3-.3.1-13.5c.1-7.4.3-14.4.5-15.5.4-1.8-.2-2-4.6-2.2-2.7-.2-5.8.2-6.8.8m57.6.4c-1.1.8-3 3.3-4.2 5.5-1.9 3.7-2 4.3-.7 6.9 1.9 3.5 8.5 6.6 12.5 5.8 3.2-.7 6.1 1.2 6.1 3.8 0 6.8-5.7 8.7-10.7 3.5-1.5-1.6-3.4-3-4.1-3-2.1 0-3.4 4.3-2.5 8.1l.9 3.4 8.8.3c12.6.4 16.4-2.7 14.9-12-.9-6.1-4.6-9.5-11.8-11.1-5.4-1.1-6-1.5-6-3.7s.5-2.5 4.3-2.8c3.1-.2 4.4.1 4.8 1.2 1.1 2.9 4.2 1.8 5.4-2 .7-1.9.9-3.8.6-4.2-.4-.3-4.1-.7-8.4-.9-5.6-.2-8.4.1-9.9 1.2"/><path d="M435.6 833.9q-7 1.3-2.7 4.3c1.9 1.2 2.1 2.2 2.1 13.5 0 10.6-.2 12.3-1.7 13.2-2.9 1.6-.9 2.3 7.9 2.5 11.9.3 14.1-.3 14.9-4.2 1-4.7-1.3-6.2-4.4-2.8-2.3 2.5-7 3.5-8 1.9-.3-.5-.7-2.6-.8-4.8-.4-3.6-.2-4 2.1-4 2.1 0 2.5-.5 2.5-3 0-2.3-.7-3.3-2.7-4.3-2.2-1-2.8-2-2.8-4.6 0-5.9 5.5-7.4 6.2-1.8q.3 2.8 2.3 2.7c1.6 0 2.1-.8 2.3-3.8q.3-3.7-1-4.1a57 57 0 0 0-16.2-.7m-50.1.8c-4.5 1.1-10.5 9.5-10.5 14.8 0 3.8 2.7 9.6 6.2 13.2 2.4 2.5 4.1 3.3 8.7 3.8 5.8.7 11.1-.6 11.1-2.5q-.1-1-2-.5c-3.7 1.2-9.9-1.3-11.6-4.7-2.4-4.7-2.2-15.2.3-18.6 3-4 5.6-3.9 8.8.2 2.3 3 3 3.4 4.6 2.5 2.2-1.1 2.6-5.8.7-7.7-1.2-1.2-12.1-1.5-16.3-.5m-182 7.3c-2.1 2.3-1.7 3.5 4 11.4 4.2 5.8 4.8 12.1 1.5 15.1-2.3 2.1-1.1 3.6 2.1 2.8 3.1-.8 4.9-4.4 4.9-9.5 0-4.7.1-4.8 3-4.8 3.6 0 4-2.5 1-6.1l-2-2.4-2.1 2.5-2.1 2.4-2.9-3.4c-3.7-4.6-3.9-7.5-.4-6.6 3.3.9 5-.1 3.4-2-1.8-2.1-8.3-1.8-10.4.6"/><path d="M189 853q-4 4.3.5 9.4 4.3 4.8 11 .6c3.9-2.4 4.9-4.4 3.5-7-2.7-5.1-11.2-6.8-15-3m9.5 5q.1 2.6-2.3 2.8c-2.4.4-3.8-1.8-2.8-4.4.3-.9 1.5-1.4 2.8-1.2q2.4.2 2.3 2.8m292.5 5.5q-1.3 1.5-.3 2.6c1.4 1.4 4.5 0 4.1-1.9-.4-2.2-2.3-2.5-3.8-.7"/></svg>