<svg xmlns="http://www.w3.org/2000/svg" width="666.7" height="1170.7" viewBox="0 0 500 878"><path d="M250.9 21.2a50 50 0 0 0-8.3 11.8c-1 1.9-2.1 6.8-2.4 11-.5 6.8-.6 7.2-1.4 4l-1.7-7.5c-1-5.6-1.6-6.3-5.9-7.1-2-.4-4.3-1.1-4.9-1.6s-3.2-.7-5.8-.4c-4 .6-4.8 1.3-8 6a23 23 0 0 0-3.5 7.1q0 2.5 6.5 9.7 1.3 1.7 1.5 2.2c0 .7-6.2 2.7-12.3 4-4.8 1.1-5.9 1-6.9-.1-1.9-2.3-7-4.6-10.1-4.5q-2.7 0-3.4-1.6a9 9 0 0 0-8.4-6.2c-2.1 0-4.1-.5-4.4-1-1.6-2.5-8.6-.5-10.5 3-.9 1.6-.5 2.4 2 4.6 4 3.7 4 5.8-.1 5.2a28 28 0 0 0-14.7 3c-2.6 1.7-6.6 8.8-5.7 10.2q.7.8 3.1 0c3.2-1.3 10.4-1.3 10.4-.1 0 .5.7 1.7 1.6 2.5 1.4 1.5 1.4 1.6-.3 1.6-2.3 0-12.2 4.6-14.5 6.7-1 .9-1.8 2.4-1.8 3.4s-1.2 2.6-2.6 3.6-4.7 3.6-7.1 5.8c-3.8 3.4-4.6 4.8-5 8.7q-1 8.3 4.1 3.3c3.6-3.4 5.2-3.2 2.6.3-3.3 4.5-5.3 13.6-4 17.8.9 2.8 1.7 3.4 3.3 3.2 1.2-.2 2.3-1.2 2.5-2.3s1.4-3.1 2.7-4.5c1.2-1.4 3.1-4 4-5.9 1.7-3.3 1.8-3.4 3.1-1.6.8 1 1.4 2.3 1.4 2.8q.2.8 2-.8c2.9-2.6 4.2-7.4 3-11.4a15 15 0 0 1-.4-5.8l.6-2.3 2.4 2.5q4.4 4.5 8.8.6l2.1-2 .2 6.5.1 6.4h-2.9c-3.6 0-9.4 5-10.8 9.3-.9 2.5-2.3 3.8-6.3 5.7a14 14 0 0 0-7.5 6.5c-2.7 4.7-2.9 8.3-.7 9.2 1.3.5 1.3.8-.4 2.7a17 17 0 0 0-4.6 9.9q-1.5 7.7 2.9 7.7c2.8 0 9.2-6.8 10.1-10.7q2-9 4.2-11.6c1.5-1.7 1.7-1.5 2.9 2.7q1.3 4.4 3.4 5.1c2.3.8 4.9-1 4.9-3.4 0-.9.8-2.6 1.8-3.8 1.3-1.6 2.2-1.9 4-1.2 2.8 1.1 2.8 2-.3 6.5-2.8 4.2-3.2 7.6-1 9.4 1.2 1 2 .9 4-.4q2.7-1.8 2.5-.3c0 1.8-2.6 5.3-9.7 13.1-6.8 7.4-7.6 9.8-4.7 15.5q2.6 5.4 5.1 0c.7-1.3 2.7-3.9 4.4-5.6l3.2-3.3 2.3 2.6c1.8 1.8 2.4 3.7 2.4 7 0 4.2-.2 4.5-5 7.5-5.6 3.4-7 5.4-7 9.7 0 1.6-.9 3.7-2 4.7-2.8 2.5-5.3 11.1-3.9 13.6 1.8 3.4 4.6 2.2 9.6-4.2q7.7-9.8 3.9.6c-1 2.4-1.8 5.4-2 6.7s-.7 3.4-1.3 4.8-1.4 4-1.7 5.7c-1 4.3-2 4.8-4 1.8q-3-4.7-7.9-.1c-3 2.8-2.7 5.2 1 9.2l2.4 2.6-2 6.1q-3.2 9.1-1.5 13.1 1.2 3.4 6.3-.9l3-2.6-.1 2.3c0 1.3-.5 3.8-1 5.5-.8 2.9-1.4 3.3-4.2 3.3-3.9 0-6.9 2.9-6.4 6.1.5 3.3 3.1 4.6 6.8 3.2 2.4-.9 3-.9 3 .3 0 4.9 6.6 17.6 9.8 18.9 2.6 1 4.5-2 4.8-7.6.3-4.3-.2-6.1-2.6-10.4a27 27 0 0 1-3-6.4c0-.7 1.3-2.4 3-3.7q2.8-2.6 3.6-6.2c.4-2 .9-3.1 1.1-2.4.8 2.2 4.3 3.5 5.9 2.1 2.2-1.8 1.7-11.4-1-18.1-1.4-3.3-1.8-5.4-1.1-5.2s1.8-.2 2.5-1.1c2.7-3.2-1.3-16.5-6-19.8-3.4-2.4-2.6-16.2 1.1-18.5 1-.7 1.9-1.1 1.9-1l-.9 3.6c-1.1 3.6-.1 7.4 2.6 10.4q3.6 3.8 4.6-4.2c.3-2.7 1.4-6.5 2.4-8.5l1.9-3.6 2.2 4.6c2.6 5.4 4.5 6.4 7.2 4 3.9-3.5 1.8-17.9-3.5-23.5a32 32 0 0 1-4.5-7.3c-1.2-2.6-2.6-4.7-3.1-4.7s-.9-.9-.9-2c0-2.9-2.8-8.1-5.5-10.5s-4.4-9.5-2.1-9.5c1.9 0 3.6-5.2 3.6-10.9v-4.6l2 2.5c1.6 2 2 4.1 2 11.1 0 9.8 1.4 14 5.8 18.2 3.3 3.2 6.6 3.1 7.7-.2.8-2.6-2-13.7-5-19.4-3-5.9-3.1-7.3-.5-8.7 2.9-1.5 2.5-3.8-1-5.8-1.7-.9-3.3-2.7-3.6-3.9-.8-3.1-6.9-8.2-10.5-9q-4.6-1-1.9-2.8c.6-.4 1.8-.1 2.6.6 3.9 3.3 6.9-8.7 4.1-16.6-1.3-3.7-1.2-4.2.6-6.7l2.1-2.8-2.4-2.5c-1.3-1.4-2.9-2.5-3.5-2.5s-2-.6-3-1.4c-1.7-1.2-1.7-1.5 1-4.9s3-3.5 4.2-1.7c.8 1.1 1.1 3 .8 4.3-.5 1.9 0 2.9 2.2 4.4 1.5 1.1 3.5 2.2 4.4 2.6s1.9 2.1 2.3 3.9a16 16 0 0 0 9.8 10.3c4.4 1.1 5.1 2.7 4.3 10.2-.4 3.8-1.1 7.3-1.5 7.8-2.3 2.8-2.8 6.3-1.4 9 .8 1.5 1.4 3.7 1.4 4.8 0 2.3 4.6 10.7 5.9 10.7 2.7 0 5.3-9.3 5-18a65 65 0 0 1 1.1-12.6l1.3-6.2 3.1.9c1.7.5 5.1.9 7.6.9 7.8 0 7.4-2.1 6.6 34.6l-1.1 43.9c-.2 6-.7 26.3-1 45a6784 6784 0 0 1-2 97l-1 39c-.7 29.8-1.4 47.9-2.5 66.3l-.9 14.2-3.1 2.6c-2.6 2.2-3 3.1-2.5 5.6.5 2.2.2 3.5-1.3 5.1-1.1 1.2-2.9 6-4.1 10.6-3 12.2-3.5 12.8-11.7 12.9-9.8.2-31.7-3.1-53.3-7.9-2.4-.5-4.6-.7-5-.4-.3.4-.9 9.3-1.3 19.8l-.8 21.2c0 1.1.8 2.7 1.9 3.6 1.8 1.5 2.7 1.5 6.8.4 4.5-1.2 7.2-1.8 21.3-4.4 10-1.9 19.4-2.5 18.6-1.3q-.8 1.1-2.6 1.2c-2.4 0-11.6 7.1-22.4 17.5a61 61 0 0 1-10.1 8.5c-.7 0-1.5-1.3-1.8-2.9-.8-3.7-6-8.9-11.3-11.3l-4.2-1.8.5-6.1c.6-6.4-.2-9-4.4-14.2-2.4-3-2.3-3.3 1.1-8 1.7-2.3 2.1-4.4 2.1-11.5 0-10.1-1.4-13.8-7.2-19.4-3.7-3.5-12.5-7.4-14.4-6.3-1.3.9-1.1.1 1.5-5.9 3.1-7.1 5-19 4.3-26.9a58 58 0 0 0-10.2-25.5l-3.7-4.7 2.9-.5c5.5-1 9.1-3.8 11.8-9.5 3.2-6.5 2.9-10.8-1.3-19.5-2.3-4.6-3.6-5.9-8.7-8.7l-6.9-3.6c-.5-.2-.1-2.4.8-4.9 1.4-3.7 1.7-6.7 1.3-16.5-.4-11.2-.7-12.4-3.7-18.1-4-7.6-11.7-15-20.1-19.4-6.2-3.2-6.8-3.3-17.4-3.2a44 44 0 0 0-43.4 27c-1.1 4.1-1.3 4.3-4.1 3.9l-6-1c-6.5-1-17 6.5-17 12.2v2.5l2.8-2.9c4-4.4 8.6-6.4 14.6-6.4q13.3 0 16.7 12.3c1.1 3.8 1 5.2-.1 7.5l-1.4 2.8-.6-4c-1.2-7.9-7-13-14.8-13-4.9 0-5.6.3-8.8 3.7C5 348.9 4 352 6.1 352c.6 0 2-1.1 3-2.4 3.7-4.7 13-4.2 16.3.9 1.8 2.8 2.1 7.7.6 10.5-1.3 2.4.5 3.7 2.5 2q1.6-1.5 1.5.5c0 2.8 3.3 1.3 5.2-2.3.9-1.8 2.4-4.2 3.3-5.2 3-3.3.5-11.3-5.7-19.1-2.5-3.1-2.8-4.2-2.3-7.3 1.6-8.1 9.8-16.4 22-22.1a46 46 0 0 1 29-2c14 4.6 25.7 17.2 26.1 27.9.2 2.8.5 7.8.9 11.1a24 24 0 0 1-.4 8.5c-.9 2.3-1 2.2-1-1.6-.1-4.6-2.1-8.1-4-6.9q-1.3.5-.6 6.5c.7 6.2-.9 11.2-4 12.3q-1.3.8-1.5 2.3-.1 1.7 2.5 1.2c3.2-.7 3.1-.1-.5 4.9a28 28 0 0 1-20.4 10.2l-5.1-.1 5.3-.9c6.2-1.1 9.6-2.7 13.7-6.5 3-2.9 3-2.9.7-3.2q-2.3-.4-1.8-1.7c.9-2.4-1.2-2.7-3.5-.4-1.7 1.7-2.9 2-6.2 1.6-2.2-.3-4.9-1.4-6-2.5-1.9-2-1.9-2 0-3.9 1.1-1.1 2.8-2.3 3.8-2.6 1.4-.6 1.7-1.5 1.2-5.3-.5-5.2-2.4-7.6-8.2-10.4-6.8-3.3-13.4-1.1-18.5 6-2.9 4-4.7 13.9-3.3 18.3l1 3.4-6.3-3.2a41 41 0 0 0-12.5-3.9c-5.4-.5-6.9-.3-11.8 2.1-8.7 4.1-10.8 6-15.7 13.4-3.5 5.3-4.7 8-5.1 12.4-.3 3-.3 5.5 0 5.5.4 0 2.4-3.7 4.6-8.3q10.7-22.2 31.1-18.5c3 .5 7 1.9 8.8 3 4.4 2.7 9.2 9.4 9.2 12.9q0 5.8 2.6 5.9c1.7 0 1.9-7.4.4-11.4-1.2-3.2-1.1-3.2 5 0 4.4 2.3 6.3 2.6 13.8 2.6 13.6-.1 20.4-3.5 27.9-14l3.6-4.9c.7-.7 5.7 1.6 5.7 2.7 0 .5-1.3 1-2.9 1s-3.1.6-3.4 1.5c-.7 1.6-.3 2 3.5 2.9 1.5.3 3.7 2 4.9 3.7 1.8 2.6 2.1 4 1.6 9.2-.3 3.8-1.1 6.5-2 7.2l-3.4 2.2c-1.6 1-1.6 1.3-.3 2.2q1.5 1 .5 2c-1 1-3.3-.6-8-3.9a36 36 0 0 0-26.8-6.5q-27.2 2.5-37.3 22.7c-2.4 4.6-2.7 6.6-2.8 14.8-.1 8.5.2 10 2.6 14.7l2.8 5.2-4.8 2.4c-3.9 1.9-5.2 3.4-7.7 8.3s-3 7-2.9 12.9c0 3.8.4 7.9.8 9.1.7 1.9.3 2.2-4.6 2.8-7.7 1.1-14.3 5-18.9 11.5L0 501.3v40.6l3.7 3.1c2.1 1.7 6.4 4.3 9.5 5.8s5.7 3.2 5.7 3.8c.1.6-.8 3.2-2 5.8a83 83 0 0 0-3.7 12.7c-1.7 8-1.8 8.1-5.5 9.4-7.7 2.6-7.9 3.2-7.5 19 .3 13.8.4 14.1 3.7 20.3a23 23 0 0 0 15.8 13.1l5.8 1.7.6 9.5c.7 11.1 3 17.8 8.4 24.4a38 38 0 0 0 41.1 10.4l7.5-2.5q1.6-.4 3.2 1.9c2.5 3.9 7.8 5.2 13.5 3.4 4.1-1.4 5.4-1.4 10.7-.1a54 54 0 0 0 33.6-3c8.9-4.2 20.9-18.4 20.9-24.6 0-3.5.9-3.7 9.4-1.5 7.2 1.9 43.1 3.1 49.2 1.7 4.1-.9 4.1-.9 5.2 2.6q1.1 3.5.1 5.3a31 31 0 0 0-1.5 7.6c-.6 5.5-.5 6.1 2.7 10.3 5.1 6.6 9 8.5 17.4 8.5 8.2 0 12.1-2.1 15.1-8.2a24 24 0 0 0-.4-18.1q-1.7-3.7-1.1-6.2c.4-1.4.7-4.2.8-6.3l.1-3.7h8.8c12.3 0 18.1-1.8 24.4-7.5 5.3-4.7 8.3-9.7 7.4-12.2q-1.7-3.4-4.2 2.7c-2.3 5.7-10.6 12.8-15.8 13.5-5.1.7-30.6 1.7-40.5 1.6-4.1 0-9.5-.7-12-1.5-6.1-2-16.7-2.3-21.4-.7s-4 3 1 2.5c9.2-.9 21.8.9 24.7 3.6 3.7 3.5-42.4 5.4-53.9 2.2l-13-3.3a93 93 0 0 1-10-2.7c-1.3-.8-9.6-.9-10.1-.1-.6 1.1 2.4 3.1 3.6 2.4.8-.5 6.7.9 8.8 2.1.8.5-3.4 10.9-5.7 14.3-7.6 11.2-12.4 14.6-23 16.6-4.5.9-9.2 1.3-10.4.9-1.1-.4-3.7-.8-5.7-.9-6.1-.3-12.2-4-14.8-8.7l-2.2-4.9c0-1 5.3.2 7 1.6 2.5 2.1 8.2 4.5 10.5 4.5 3.2 0 12.4-4.9 14.1-7.5 2.3-3.6 2.8-11 1-14.7-.9-1.7-1.4-3.3-1.2-3.6.3-.2 4.1-.4 8.5-.3 6.6.1 8.1-.2 8.1-1.4 0-2.2-.9-2.4-15-2.9-13-.4-25.3-2.7-28-5-.8-.8-3.4-2.2-5.6-3.1-4.2-1.7-6.7-5.2-9.3-13.4A72 72 0 0 1 89 593c1.1-3.6 2-7.5 2-8.7s.9-3.7 2-5.6 2.4-6 2.8-9.1l.7-5.6 22-.5c12.1-.2 23.7-.8 25.8-1.4l3.8-.9-.7 3.1-.6 3.2 2.8-2.5 16.9-16.5c23.6-23.5 21.4-21.9 36.7-26.9 7.1-2.3 12-3.3 15.7-3.2l5.5.1.1 4.7c0 4-.3 4.8-1.7 4.8q-1.7.1-1.8 1.4c0 1.6 11.9 6.6 13.5 5.7.6-.3 17-.6 36.6-.6h35.6l7.7 3.9c9.7 5 10.6 6.3 9.9 14.3-.7 7.1-1.6 8.3-8.7 10.7-5.9 1.9-10.3 2.1-10.9.3q-.2-1.4-2.6.1c-3.1 1.8-4.1 1.5-4.1-1.3q0-2.4-1.5-2.5-1.3.1-1.5.8c0 .5-.7 1.7-1.5 2.8-1.4 1.7-1.4 1.6-.9-2.4.5-3.3.4-4.2-.9-4.2-.8 0-2 1.3-2.7 3-1.5 3.6-3.5 5.4-5 4.5q-1.2-.7.8-2.9c1.1-1.1 2.2-3.3 2.6-4.9 1-4.1-2.2-3.5-4 .8q-2.4 5.7-5.3 4c-.7-.3-.1-1.5 1.4-2.8 1.4-1.2 2.8-3.5 3.1-5.2.8-4.5-.4-9.5-2.3-9.5-1.2 0-1.4.7-.9 3.1.6 3.2-.9 10.9-2.2 10.9q-.8.2-2.6 1.5c-1.6 1.2-1.7 1.8-.7 4.3l1.2 2.9 15.7.1c8.6.1 18.4-.2 21.7-.7 7-1 9.3-.2 12.5 4.2 2 2.7 2.2 3.7 1.6 10.4-.3 4-1.3 8.7-2.1 10.3-2.5 4.8-7.6 6.6-10 3.3-1.3-1.8-3.5-1-3.5 1.3 0 2.4-3.5 1.2-3.8-1.4-.4-2.8-2.2-2.9-2.9-.2-.8 2.9-3.9 2.1-3.5-.8s-1.6-2.8-2.8.3c-1.4 3.6-2.4 3.1-1.7-1 .8-4.9-.8-5.3-3.3-.8l-2.1 3.8.6-4.3c.7-5.3-.8-5.5-3.5-.5l-2.1 3.8.7-4.4c.6-4 .5-4.3-1.4-3.7-1.1.4-2.3.2-2.7-.4-.8-1.4-3.5.6-3.5 2.6 0 3.9-2.5 6.4-9.1 9.1a28 28 0 0 0-6.9 3.4c0 1.5 3 1.6 5.6.2 4.3-2.2 39.7-3.4 41.7-1.4 1.3 1.3-.8 13.1-3.2 18.5-1.9 4.4-2.2 4.6-6.2 4.6-3.6 0-4.1-.2-3.6-2 .6-2.4-2-2.8-2.9-.5-1.1 2.7-2.4 1.6-1.7-1.5.8-4-1.5-4-3 0-.6 1.6-1.5 3-1.9 3-1.1 0-1-2.8.2-5.1q1.3-2-.5-1.9c-.9 0-2.3 1.6-3.1 3.5Q283 622 281 622c-2.4 0-2.5-1.1-.5-5 .8-1.6 1.1-3.1.6-3.4q-1.7-1-4.5 5.6c-1.4 3.2-2.1 3.6-6.2 4.3-2.5.3-4.8.4-5.1.1s.6-2.1 2.1-4a15 15 0 0 0 2.6-4.5c0-1.8-1.7-1.2-3.4 1.2l-1.7 2.2.5-2.2c.6-3.2-1-3.8-2.8-1.1-1.7 2.3-2.1 5-.8 4.5q1.2-.4 1.2 2.8 0 1.4-2.5 1.5-2.3 0-2.5 1c0 1.7 4.9 2.3 12.3 1.4 4-.4 13.6-.8 21.4-.9 13.6 0 14.2-.1 16.7-2.4 3-2.8 5.2-9.3 6.2-18.1.6-5.2.9-6 2.8-6 1.1 0 3.9-1.1 6.1-2.3 3.5-2 4.2-3 5.7-8.2.9-3.3 1.7-8.4 1.7-11.4.1-4.5-.4-5.9-3-9.2-3.1-3.9-3.1-4-1.5-7.3 1.7-3.6 2-9.1 1-14.5-1.2-5.8-18.3-14-29.4-14.1-3.3 0-3.6-.3-4.9-4.4-.7-2.4-2.2-5.4-3.3-6.6s-1.8-2.3-1.7-2.4 4.9.2 10.4.9l21 2.5c7.9.9 14 2.3 21.6 5 5.8 2.1 11 3.5 11.6 3.2 1.6-1.1 2.2-3.9 3-14.2.9-11.2.6-28.3-.5-32.5-.5-1.7-1.6-3.1-2.4-3.3-.9-.2-5.6 1.7-10.6 4.1-9.9 4.9-16.1 6.3-33.2 7.2l-17.1 1.1c-4.1.4-6.9.2-7.3-.4-.3-.5-1.1-4.5-1.7-8.9-1.6-11.6-1.7-12.1-4.2-14.3-1.6-1.5-2.2-3.3-2.2-6.3 0-3.8-.3-4.3-3.3-5.6l-3.3-1.5.6-24.5c.3-13.6.8-89.6 1.1-169.1s.7-144.6.9-144.8 4.2-.7 8.9-.9l8.6-.6v9c0 7.5.3 9.5 2 11.6 1.1 1.4 2 3.9 2 5.5 0 4 .9 4.5 5.6 2.9 2.9-1 4.1-2.2 5-4.8 1.9-5.1 1.7-7.2-1.1-10.9-2.1-2.8-2.5-4.5-2.5-10.1v-6.7l4.9-2q7.4-3.4 11-11.9 1.4-3.2 5-5c3.1-1.5 3.6-2.3 3.7-5.3.2-5.7.3-5.9 3.5-8.7 2.2-2 2.9-3.3 2.5-4.9-.4-1.3.2-3.2 1.5-4.8 2.2-2.8 4.6-3.6 3.1-1-.5.9-.3 5.7.6 11.7 1.9 13.9 1.9 35.4-.1 51.7-.9 7.5-2 16.9-2.3 21s-1.4 13.7-2.5 21.3c-3.7 26.9-2.5 38.9 6.6 66.2 12.8 37.8 13.5 50.7 4 69.2-5.7 11-6.1 13.4-4.4 25.7 1.2 9.1 1.6 10.3 4.3 12.8 3.8 3.5 4.4 3.5 5.7 0a138 138 0 0 0 4.9-25c0-1.9.7-4.3 1.6-5.3s2-3.3 2.5-5.1q1-3.7.2 2.2c-1 9.1-.9 10.5.7 10.5s7.1-10.4 9.3-17.6c1-3.5 1.1-6.7.5-12.8-.9-7.9-.8-8.3 1.5-10.1 1.4-1.1 3.2-4.6 4.7-9.4 2.2-7 2.3-8.2 1.2-14.9-.6-4-1.4-8.2-1.7-9.3-.6-1.7-.5-1.7 1.2.2 1 1.2 2.3 3 2.9 4 1 1.6 1.3 1.7 2.8.5 3.2-2.7 1.5-16.8-3.2-27.1a28 28 0 0 1-2.6-11.5c-.2-5.2-.8-7.2-5-14.5a240 240 0 0 0-11.1-17.6 52 52 0 0 1-9.5-20.6c0-2.1 2.1.7 5 6.6 3.9 7.8 8.8 12.9 12.1 12.4q2.5-.2 2.7-3c.3-2.3.8-2.6 3.4-2.6q6.6 0 2.2-5.5c-2.6-3.1-5.8-8.7-4.9-8.7.2 0 1.9.9 3.7 2q10.6 6.6 1.3-7c-4.5-6.9-6.9-13-4.6-11.6 1.9 1.2 4.1-1.4 4.1-5 0-4-3.1-12.3-6.2-16.4-2.4-3.3-1.8-5.2.9-2.8 2.7 2.3 7.9 4.8 10.3 4.8 2.8 0 2.5-2.2-.6-5.1-3.6-3.3-8.4-10.4-8.4-12.4 0-1.4.6-1.2 3.1.9q5.2 4.4 7.9 1.1c2-2.5.2-6.7-5.2-11.8l-5-4.7h3.9c4.9 0 7.7-1.8 6.7-4.4-.9-2.4-12-7.6-16.1-7.6-5.3 0-4.6-1.6 1.5-3 3.1-.8 6.7-2 8-2.8 3.3-2.1 2.5-5.4-1.6-6.4-4.4-1.2-4.9-3.1-1.8-6.9q4.5-5.2 1-8c-1.2-1-2-1-3.4-.1-2.3 1.4-3-.1-3-6.7 0-6.2-3.2-9.7-8-8.7-2.8.5-3.1.4-2.5-1.5.8-2.4-.3-9.9-1.5-9.9-.5 0-1.8 2-3 4.4s-2.8 5-3.6 5.6c-1.2 1-1.4.8-1.4-1.7 0-4.5-1.5-5.4-6.9-3.7-4.3 1.3-4.7 1.3-6-.6-1.4-2-4.1-2.8-4.1-1.1 0 .5-1.6-.7-3.5-2.6-4.7-4.7-6-4-6.2 3.7a25 25 0 0 1-.7 6.7c-.2.3-1.4-.5-2.6-1.7-3-3-4.4-2.1-5.1 3.1-.3 2.4-1.3 6-2.1 7.9-4.9 11.7-4 11-9.8 8-4-2-5.3-4-2.6-4 2.1 0 5.5-4.7 4.9-6.9-.3-1 0-2.2.6-2.5 2.5-1.6 1-5.6-3.9-10.6-5.5-5.4-8.7-6.3-12.8-3.4-1.3.9-3.5 1.7-4.9 1.9-5.4.6-7.5 6.7-5.1 14.7 1 3.3.9 4.1-.3 4.9-2.6 1.6-2.9 1-2.9-6 0-10.9-.5-11.9-9.1-19.4-8-6.9-9.5-7.6-12-5.5m2 18.9a93 93 0 0 1-.4 13.8c-.2.5-1.9.6-3.7.2l-3.3-.7v-8.3c-.1-7.2.2-8.8 2.7-13.2 1.6-2.7 3.2-4.9 3.7-4.9s1 5.9 1 13.1m9.2-9.9c4.8 3.8 5.8 7.1 5 16.8l-.6 7.5h-9l-.3-13.8c-.1-7.5 0-13.7.3-13.7.4 0 2.4 1.4 4.6 3.2m30.7 4.5q.4 2.1 1.6 2.3c.7 0 2.1.9 3.2 2.1 1.8 2 1.8 2.1-.1 3.5q-2 1.5-2 5.2c0 3.6-.1 3.7-3.7 4-2.1.2-3.8.8-3.8 1.3 0 1.7 2 4.9 3 4.9.5 0 2.6 1.1 4.6 2.5 6.6 4.5 24.1 7.7 30.2 5.5 1.8-.6 3.6-1 3.8-.7.3.2-.5 2-1.6 4-1.1 1.9-2 3.9-1.9 4.3q.8 3.4-2.7.9c-2.9-1.9-6.1-3-14.4-5l-13-3.3a85 85 0 0 0-13.5-2.5l-15-1.8a189 189 0 0 0-53.5 3.2l-8 1.4c-3.6.6-18.5 5.2-20.9 6.5-1.7.9-2.2.8-2.7-.4-.3-.8-.3-1.9 0-2.4s-.9-2.3-2.7-4c-4.6-4.4-5.3-5.5-4.9-7.4.4-1.8-3.3-4.8-6.1-4.8-1.8 0-3.4-2.6-2.3-3.7.4-.4 1.9 0 3.4.9 2 1.2 3.2 1.4 4.5.6 2.8-1.5 5-.2 4.3 2.6-.3 1.4-.2 2.8.4 3.1.5.3 1 1.7 1 3s.8 2.9 1.9 3.5c5.4 2.8 33.9-1.6 38.6-6 2.9-2.8 3.2-5 .7-5q-3.6 0-2.5-2.6.6-1.4 2.5-.8c2.4.7 7.5-1.3 8.2-3.3.3-.8.1-2.3-.4-3.3-.8-1.5-1.9-1.8-5.2-1.5-4.2.4-5.8 1.7-5.8 4.7q.2 2-2.2.9c-2.8-1.1-2.7-4.8.1-6.8a6 6 0 0 0 2.3-3.6c.4-3.1 5.3-3.7 6.1-.8.5 2.2 3.1 2.8 4.2 1.1.3-.6 1.3-1 2.1-1q1.5 0 1.4 3.9c0 2.2.5 4.3 1.1 4.7.6.3.9 1.9.5 3.4-.6 3.5 1.3 5.4 8.1 8 4.1 1.5 7.1 1.8 16.9 1.5 13.9-.4 20-1.7 23.2-5.1 1.3-1.3 3.3-2.4 4.5-2.4 2.9 0 6.7-2.7 6.7-4.7 0-2.1-2.9-5.3-4.8-5.3-.7 0-2.7.9-4.3 2.1-2.2 1.6-2.8 2.6-2.4 4.2.6 2.2.6 2.2-.9.3q-3-3.8 0-5c1.5-.6 1.5-.8 0-2.4-1.8-2-.5-4.2 2.4-4.2.9 0 2.5-.7 3.6-1.5 2.7-2.1 5.8-1.5 6.2 1.2m47.2 6.9c0 2.3.3 2.5 2.5 2q2.6-.7 2.5.9 0 1.4-2.4 1.5c-1.4 0-3.6.4-5 1-3.1 1.1-3.1.9-.9-4.2q3.2-6.7 3.3-1.2m-9.3.6q-.5 1.1-.6-.6t.5-1.3c.3.3.4 1.2.1 1.9m-8.6 6.9c-1.1 2.3-1.8 4.6-1.5 5 .8 1.3 4.8 1.1 6.2-.3q1.3-1.4 1.2.3c0 .9-.9 2.4-2 3.4s-1.9 2.5-1.8 3.4c.2 1.3-.5 1.6-3.7 1.4-2.2-.2-5-.5-6.2-.8-2.1-.5-2.1-.5.6-3.4a47 47 0 0 0 5.6-8.7c1.7-3.3 3.1-5.7 3.3-5.3s-.6 2.6-1.7 5M352 52c-4.8 5.7-6 6.7-6 4.7 0-.7 1.1-2.3 2.5-3.5s2.5-3.1 2.5-4.2q-.1-2.1 2.6-2c2.6 0 2.6 0-1.6 5m-9-1.3c-.1 1.8-3.8 5-6.3 5.5-2.4.5-2.8.2-2.5-1.6q.2-2.2 2.4-1.8c1.2.1 2.7-.4 3.4-1.3 1.3-1.6 3-2 3-.8m19.3 1.8q-.6 1.4-1 1.1-.4-.5.2-1.5c.9-1.6 1.5-1.3.8.4M190 60q1.9 1.1-1.3 1c-1.6 0-2.6-.4-2.2-1 .8-1.2 1.6-1.2 3.5 0m148 1q0 .9-1 1a1 1 0 0 1-1-1q.1-1 1-1t1 1m19 1.5c0 .2-2 1.3-4.5 2.4-7.9 3.5-5.1 7 5.7 7.2 3.5 0 7.9.6 9.8 1.4l3.5 1.3-2.5 1a48 48 0 0 1-7 1.7c-2.5.4-5.4 1.3-6.5 1.9-1.1.7-3.2 1.6-4.7 2Q348 82 348 84c0 2.7 1 3.1 9.7 3.1q7.7 0 10.7 1.7c1.7.9 4 2 5.1 2.4 2.6 1-1 .4-7.8-1.2-5.2-1.3-13.5 0-14.9 2.3-1.3 2.1 1.4 3.7 6.1 3.7s11.4 2.7 11.2 4.5c0 .6-2.9 1.1-6.3 1.3-8.8.4-11.4 3.9-5.3 7.2 2.4 1.3 4.3 4.9 4.3 8.5.1 3.4 2.3 11.5 3.2 11.5 1.1 0 5.6 7.8 6.4 11.2.3 1.6.5 2.8.3 2.8s-2.1-2.7-4.2-6.1c-5.4-8.8-13.3-17.9-15.4-17.9q-5.5 0-2.8 7.8a886 886 0 0 1 8.4 33.2c.9 3.6 2.9 8.9 4.4 11.9s2.7 5.6 2.5 5.8c-.8.8-7.5-11.6-9.2-16.9-.9-2.9-2-6-2.4-6.9-.5-.8-.6-2.7-.3-4.2.3-1.6-.1-3.7-1.1-5.2-1.9-2.9-5.6-3.4-5.6-.7 0 1-.5 2.3-1.1 2.9q-1.3 1.2-.1 4c.6 1.5 1.3 5.7 1.5 9.3a47 47 0 0 0 7.8 23.7c2.1 3.2 3.9 6.3 3.9 7q0 1 .8 1.5a57 57 0 0 1 10.5 15.2c4.1 8.2 3.9 11.7-.4 6.5-1.6-1.9-2.9-4.2-2.9-5.1s-.7-2.3-1.5-3.2q-1.4-1.4-1.5-2.3c0-.9-8.2-14.1-13.4-21.6-2.1-3-3.2-3.8-5.3-3.5-5.8.7-5.1 5 3.2 17.8 3.1 4.8 15.9 19.5 22.3 25.6a56 56 0 0 1 9.5 21.6c.3 2.7.3 4.8-.1 4.8s-3.8-5.8-7.5-12.9c-3.8-7-9.2-15.9-12.2-19.7l-7.5-9.7c-1.2-1.5-3.1-2.7-4.2-2.7-2.3 0-5.8 2.7-5.8 4.4s4.1 9 5.9 10.2l4.1 3.3c2.2 1.9 2.2 2.1.5 1.7-6.7-1.7-8 8.7-2.4 19.4 2.9 5.7 3.4 7.6 3.9 17.1.5 7.4 1.2 11.3 2.3 13 2.2 3 2.1 3.5-.3 3.5-2.1 0-2.9-1.7-5.1-11.6-1.3-6-7.4-24.5-8.9-27.2a118 118 0 0 1-6.1-24.7c-1.3-9.4-.8-24.1 1.5-40.1.8-5.8 2-16.6 2.6-24l2-20.5c2.1-15.9 2.2-25.1.5-41-.9-8.8-2.1-16.7-2.6-17.6q-1-1.7 1.8-3a9 9 0 0 1 4.2-1.2c.9.2 3.6-.4 6.1-1.1 5-1.6 6-1.8 6-1.1m-197.5 1.2a7 7 0 0 0-3.3 2.4c-1.6 2.4-7.4 2.7-6.6.4.7-1.6 5.5-3.3 9.4-3.3q3 0 .5.5M275 66q23 3.3 35.1 8.6c4.6 1.9 8.9 4 9.6 4.6 1.8 1.5 1.7 3.9-.2 3.2-2.5-1-6.5 2.3-6.5 5.4 0 1.6.5 3.3 1.1 3.9q1 1 .4 2.3t-2.9-.8c-8.3-7.7-24.5-10.6-59.6-10.6-27.3-.1-41.1 2-49.2 7.6a10 10 0 0 1-4.2 1.8c-1.9 0-2.1-2.1-.5-3.7s.3-5.8-2.6-7.3c-2.1-1.1-2.8-1.2-3.4-.1-1 1.5-4.5-3.4-3.8-5.3.5-1.3 11-4.7 20.2-6.6 20-4.2 49.7-5.5 66.5-3M154.6 83.1c-1.4 1.1-3.6 1.9-4.8 1.7-2.1-.4-1.9-.6 1.2-2 5-2.3 6.7-2.2 3.6.3m5.4 4.4q0 2.3 2 3 1.8.6 2 1.6c0 1.2-2.7 1.1-3.5-.2-.4-.6-1.9-.7-3.6-.4-2.8.6-2.9.6-1.8-2.1 2.1-5.7 4.9-6.7 4.9-1.9m11.2.7q-1.3 1.5-1.2-1.2c.1-2.7.3-2.1 1.2-1.2q1.3 1.2 0 2.4m95.4-1.9c1.5 1.5.2 366.4-1.3 368.9q-1.2 2.4-3.7-2.9c-1-2.1-3.1-5.4-4.8-7.5l-2.9-3.8.2-21.2.4-29.3c.1-4.4.5-56.2.8-115 .8-121.9 1.6-188.5 2.4-189.8.5-.9 8-.4 8.9.6m-26.6 1c0 .7-.6 2-1.2 2.9-1.1 1.4-2.1 1.5-7 .6-7.8-1.4-7.7-2.4.5-4.1 3.8-.8 7.7-.5 7.7.6m12 1.4c.3 13.9-.9 238.9-1.4 263.3 0 4.1-.5 8.1-.9 8.8q-.8 1.3.4 2.8c.9 1.1.9 1.8-.4 3.2s-1.4 2.1-.4 3.1q1.4 1.2-.3 2.1c-1.2.8-1.2 1.1.3 2.8 1.8 1.9 2.2 4.7.9 5.6-.4.2-.7 5.5-.6 11.8.1 6.2-.3 11.9-.8 12.5q-1 1.3.2 2.8c1.1 1.3 1 1.8-.4 2.8-1.6 1.2-1.6 1.4-.2 2.6 2 1.7 2.1 6.1.2 6.1-2.3 0-3.1 2.2-1.3 3.5 2.2 1.6 2.2 3.7.1 3.3-2.5-.4-2.8 1.9-.5 3.2q2 1 2.1 2.1 0 1-.9.5c-1.4-.9-4.1.5-4.1 2 0 .8 1 1.9 2.3 2.4 2 .8 1.9.9-1.2.9-3 .1-3.3.3-2.7 2.6.4 1.4.3 2.5-.1 2.4q-3.4-.6-3.3 2.1-.1 1.8-1.1 2t-.6 1.9q.5 2-1.5 2.4c-1.8.5-1.9.2-1.4-2.6.6-3.6 1.3-22 2.1-52.7l1.5-51.5 1.5-61.5 1-52.5 2-96.5 1.1-27.3.7-19.7h3.8c3.6 0 3.9.2 3.9 2.7m28.3-1.7 9.6 1.6c2.4.5 2.4.5-.9 2.5-2 1.3-5.9 2.3-10.1 2.6l-6.9.6v-4.2c0-2.2.3-4.1.6-4.1zm-57.4 5c2.7 2.3 2.9 2.8 1.2 2.3-1.2-.3-2.4-.9-2.7-1.4q-.7-.8-2.5-.9c-1 0-1.9-.7-1.9-1.5q.1-3.4 5.9 1.5m77.1 1.4c0 1.1-.8 4.1-1.7 6.6q-1.7 4.5-1.7 14c-.1 5.5-.5 9.6-1.1 9.7-.5.2-1.1-1.6-1.2-4-.1-5.2 1.5-26.1 2.3-28.1.8-2.1 3.4-.8 3.4 1.8M146.5 92q-.6.9-1.6 1-.9-.1-.4-1a2 2 0 0 1 1.6-1q.9 0 .4 1m66.4 1.7c3.3 8.3 3.3 32.3 0 32.3q-1 0-.3-4.3c1.3-7.4.7-24.2-1.1-27.6-.8-1.7-1.1-3.1-.6-3.1s1.4 1.2 2 2.7M142 94c-2 1.3-3.3 1.3-2.5 0 .3-.6 1.4-1 2.3-1q2.2-.1.2 1m41.5.1c1.1 1.7-.1 2.1-1.5.4q-1.2-1.4-.2-1.5 1 .1 1.7 1.1m23.5 1.8c1.2 2.3 1.4 8.1.3 8.1-3-.1-5.8-5.3-4.3-8q2-3.7 4-.1m103 4.4c0 2.3-5.2 7.7-7.5 7.7q-1.4 0-1.2-1.3c.3-.6 1.4-3.8 2.3-6.9l1.8-5.7 2.3 2.1c1.3 1.2 2.3 3 2.3 4.1m-135.1-3.2c1.4.2 2.7 1 2.9 1.8q.5 1.5-1.2.8t-4.3 2.1-2 .9c.4-1 .7-3.3.7-5q.1-2.8.8-2.1c.4.7 1.8 1.4 3.1 1.5m112 .3c-5.3 2-13.6 3-14.4 1.7-.6-1 3.2-1.6 7.6-1.2.8.1 2.6-.3 4-.8s3.3-1 4.4-1q1.8.1-1.6 1.3M135 100.1c-1.2 1.6-2.5 2.8-2.8 2.5-.5-.6 3.6-5.6 4.5-5.6.3 0-.5 1.4-1.7 3.1m95.3-.4c3.7 1.1 7.2 2.4 7.8 3q1 1.2.4 5.3c-.6 3.3-1 4-2.3 3.5-1-.4-4.8-1.3-8.6-2.1a66 66 0 0 1-7.1-1.6c-.1-.2-.5-2.7-.7-5.6-.6-6.1-1.7-5.8 10.5-2.5M290 105c0 2.2.1 4.3.3 4.7q0 .9-2.3 1.1c-1.4.2-2.9.8-3.5 1.3-.5.5-3.5.9-6.8.9h-5.8l.3-4.3c.3-3.9.5-4.2 3.8-4.9l8-1.6 5.3-1.1c.4 0 .7 1.7.7 3.9m-107.6 6q.6 4.4-.2 2.5c-1.2-2.8-2.3-10.4-1.3-8.5.5.8 1.2 3.5 1.5 6m183.6-1.3c0 1.7 1.4 4.6 3.5 7.2q5.5 7 2.1 4.2c-4.2-3.5-9.2-14.1-6.7-14.1.6 0 1.1 1.2 1.1 2.7m-230.5 9q-1.4 2.4-1 .8c.4-1.1.9-3.4 1.3-5q.6-3.7 1-.8c.2 1.2-.4 3.4-1.3 5m27.5-2.3c0 .3-1.4 1.5-3.2 2.7q-4.4 3.1-.5-1.9c.9-1.1 3.7-1.7 3.7-.8m12.1.9c-.1 1.2-1.5.9-1.9-.4q-.4-1 .8-.8 1 .5 1.1 1.2m-4.2 5.2q-1 1-1.9-.5-2.2-3.7 1-1.8 2 1.3.9 2.3m-2.1 6.8q.2 1.6-1.2 1.7-1.5-.2-1.6-2.1c0-2.4 2.3-2.1 2.8.4m132 3.7q1 8.5-3.8 2.7c-4.8-5.8-3.6-4.7-1.9-6.4 2-2 5.4.1 5.7 3.7m-149.2-3.1c-.6.8-6.6 2.1-6.6 1.4 0-.5 4.3-2.2 5.8-2.2q1.1 0 .8.8m61.4.6c2.1 2.5 2.2 10.5.1 10.5-1 0-4.1-7.9-4.1-10.3 0-2.1 2.3-2.2 4-.2m143 1.4c0 1 1 2.6 2.1 3.7 1.2 1 3.2 4.1 4.4 6.9l7.3 16c.3.5-.9-.3-2.6-1.9s-4-5.1-5.3-8a22 22 0 0 0-3.1-5.7 23 23 0 0 1-2.8-7.3c-1.1-3.7-1.5-6.4-.9-6.1q.8.8.9 2.4m-176.4 8.6q1.3 4.3.6 6.6c-.8 2-1.2 1.4-3-4.6l-2.8-10-.6-3 2.2 3.3c1.1 1.9 2.7 5.3 3.6 7.7M173 145q-.1.9-1.1 1-.8-.1-.4-1 .6-1 1.1-1 .3 0 .4 1m-33.9 7.3c-1.3 1.3-1.5-.1-.4-3q.9-2.6 1.1.1c.2 1-.1 2.3-.7 2.9m57.4 8.6c.9 3.5 1.4 6.5 1.2 6.7-.9.9-4.7-8.7-4.7-11.8 0-4.7 1.6-2.4 3.5 5.1m-58.8-4.7q-.5 1.1-.6-.6t.5-1.3q.5.6.1 1.9m34.8 9.1c-.7 2.8-3.5 5.8-3.5 3.8 0-2.2-2-1-2.7 1.6-.3 1.6-1.9 4.1-3.5 5.6q-4.5 4.2-1.7-1.6a67 67 0 0 1 11.6-12.3c.2.2.1 1.5-.2 2.9m190.9-.7q.5 1.5-.6 1.2c-1.5-.5-2.3-2.8-1-2.8q1 .1 1.6 1.6m-180.9 4.2c.3 1.5 0 4.2-.7 5.9-1.3 3-1.3 3-1.4-2.8-.1-6.2 1-7.8 2.1-3.1m187.9 3.9q1.4 3-2.5-1.3c-2.3-2.5-2.3-2.6-.2-1.3 1.3.7 2.5 1.9 2.7 2.6M181 182.6c0 .8 1.1 2.5 2.5 3.8 2.2 2.1 2.3 2.6 1.4 6.2-.6 2.1-1.8 5.2-2.6 6.8l-1.5 3-1.2-3.5c-1.3-3.8-.9-19.2.5-18.3q.8.6.9 2m175 18.5 1.3 2.4-2.7-2.5a22 22 0 0 1-3.9-4.6l-2.8-5c-.9-1.6-2-4-2.4-5.4-.7-2.3 7.8 9.8 10.5 15.1m-158.3-.8q.4 6.6-.6 4.6c-.6-.9-1.3-4.5-1.6-8-.4-5-.3-6 .6-4.6.6 1.1 1.3 4.7 1.6 8m-28.2-2.3q-1.7 1.8-2.3 1.5-.3-.7 1.3-2.5c1.6-1.8 2-1.8 2.3-1.5q.3.7-1.3 2.5m19.5-1c0 1.6-5.1 11.3-5.6 10.7-.7-.6 3.9-11.7 4.9-11.7q.6.1.7 1m-24.1 14.9a19 19 0 0 1-3.7 6.3c-1.4 1.2-1.5.9-.8-2.2.7-4 5.7-12.1 6.3-10.3.2.6-.6 3.4-1.8 6.2m186.6 2.3 5 5.1-4.3-3.2c-3.5-2.7-7.2-7.1-5.9-7.1.1 0 2.5 2.3 5.2 5.2m7.6 9.5q2 2.4-.3.4-2.6-2-1.4-2.1.5.2 1.7 1.7m-181.7 7.1c1.3 2.6 3 10.9 2 9.9a48 48 0 0 1-2.9-7.1c-2.4-6.5-1.8-8.2.9-2.8M356 236c0 .8.7 2.4 1.5 3.4 1.7 2.3 2 5 .5 4.1s-6-10.1-6-12.2c0-1.5.4-1.4 2 .7 1.1 1.4 2 3.2 2 4m-184.5 4.5q.2 2.3-.6 2.5c-.8.2-.9-1.4-.9-3.2 0-3.6 1.1-3.1 1.5.7M370.2 253c2.4 7.2 2.9 15.4 1 18.5q-1.6 2.8-.6-.8c.4-1.6 0-4.5-1-7a276 276 0 0 1-6.6-24.5c.1-1.8 5.2 8 7.2 13.8m-209.7 1.4c-.8 5.1-3.4 9.7-3.5 6.1 0-2.2 3.2-11.7 3.8-11.1.2.2 0 2.5-.3 5m9.8 8.9c.2 3.7 0 7-.5 7.3q-.7.4-.8-.8l-.5-10.8c-.3-6.8-.2-8.5.5-6 .5 1.9 1 6.6 1.3 10.3m8.6-6.8c-.1 3.5-.2 3.7-.9 1.5-.4-1.4-.8-3.9-.9-5.5q0-3.3.9-1.5c.5.8.9 3.3.9 5.5m180.8 8.9c.2 5.5.1 6.6-.7 4.8-.5-1.3-.7-2.8-.4-3.3q.4-1-.4-2.2c-.5-.7-.9-3.1-.9-5.4.2-6.7 1.9-2.2 2.4 6.1m5 6.8q-.4 1.8-.4-2.2c0-4 .2-3.5.4-2.3a17 17 0 0 1 0 4.5m-3.6 11a42 42 0 0 1 2.9 21.1q-1 3.1-.9-.9c-.1-1.7-1.2-6.6-2.6-10.8-2.3-6.9-3.3-13.6-2-13.6.2 0 1.4 1.9 2.6 4.2m-191.3 9.5-.4 2.8-1.3-3a37 37 0 0 1-1.8-6l-.5-3 2.2 3.2c1.3 2 2 4.3 1.8 6m185.6 1c.6 5.2.3 7.1-1.4 10.9-1.1 2.6-2 5.7-2 7a6 6 0 0 1-1.4 3.7c-1.6 1.6-2.4 6.6-1.3 8.4.5.7.4 2.1-.1 3a51 51 0 0 0-2.2 8.8c-2.3 13.7-3.1 13.5-5-1.1-1.2-9.1-1.1-10.6.5-15.5 1-3 2.6-6.6 3.7-8.1a38 38 0 0 0 6.8-20.1c.1-7.6 1.5-5.8 2.4 3M74.8 353.2c3.2 3.1 3 7.4-.5 8.3-6.4 1.6-7.1 5.7-1.8 10.4 4.4 3.8 2.2 4.2-3.5.6a11 11 0 0 1-5.5-9c0-1.8-3.3-1.6-3.9.2-1.4 4.5 3.1 12.5 8.7 15.5 4.6 2.4.6 2.3-4.1-.1-7.4-3.8-10.2-8-10.2-15.2 0-3 .6-4.4 2.7-6.2l5-4.4c4-3.8 9-3.8 13.1-.1m43.6 19.3c3 2 6.6 10.2 6.6 15.1 0 4.5-3.2 9.9-7 11.9q-7.2 3.5-1.7-1.8c3.4-3.1 5.7-8.7 5.7-13.5 0-3.1-1.6-6-5.3-10-3.2-3.4-2.3-4.3 1.7-1.7m-21.5 27c2.8 1.4 8 5.4 11.4 8.8 5 4.9 7 7.8 9.5 13.9 4.4 10.7 4 13-.7 3.3-5.4-11.4-14.4-19.5-21.6-19.5-4.1 0-3.7 1.7 1 4a41 41 0 0 1 14.1 14.2 88 88 0 0 1 4.8 26.7 37 37 0 0 1-3 8.1q-2.3 4.4-1.4 5.4c1.3 1.3 3.1-.6 6.5-6.9 2.6-4.8 2.7-4.8 2.1-1.5-.3 1.9-2 5.4-3.6 7.8s-3 4.6-3 5.1c0 1.4 3.1 3.5 5.3 3.6l4.8.3c3.6.3 10.5 5.9 13 10.7a24 24 0 0 1-1.4 21.8c-2.8 3.7-5.5 4.8-6.1 2.4-3.3-11.5-6.4-15.3-14.8-18a27 27 0 0 0-15.8-.8l-6.2 1.5c-3.5.8-12.5 8.3-28 23.2q-4.6 4.5-11.3-.8c-5.1-4-7.3-15.5-4.1-21.7 3.1-6 13.7-13.6 20.3-14.7 5.1-.8 12.3 2.3 15.5 6.7 2.5 3.3 4.8 3.8 4.8.9 0-2.7-5.6-8.8-9.9-10.6a46 46 0 0 0-22.6-1.4 35 35 0 0 0-15.1 13.7c-1.6 3.8-1.9 11.9-.4 12.8.6.3 1 2.3 1 4.3 0 7.5 7.8 15 16.5 16l4.5.5-.4 6.1c-.4 5.7-.6 6.1-2.8 5.8a61 61 0 0 0-20.2 4.6c-1.7.9-6.4 4.3-10.3 7.4s-7.9 5.8-8.6 5.8-3.6-1.6-6.6-3.5a32 32 0 0 0-6.2-3.5c-2.2 0-4.9-8.5-4.9-15.4q0-6.9.9-5.7t3.5.9c2.4-.5 2.6-.2 2.6 2.8 0 6.8 6.8 17.2 10.3 15.8q3.2-1.1.2-5c-2.8-3.7-1.5-3.8 1.6-.1q3.1 3.9 5.2 3.5 4.8-.5-.4-6.2c-1.7-2-3.2-4.6-3.3-5.8-.1-2.9-2.1-3.3-4.5-.9l-2 2-.7-3.5c-.9-4.6.2-12.2 2.1-15.1 3-4.5-1-6-4.4-1.7-1.7 2.2-2.1 2.3-2.1.8 0-5 8.8-12.4 14.8-12.4 3.7 0 6.2-.9 6.2-2.2 0-.5 1-1.8 2.2-2.8 2.2-1.7 2.2-1.7.3-4.6a41 41 0 0 1-5.4-15.4c-.1-3.1 4-12 6.5-14.1 1-.9 3.5-2.4 5.4-3.3 3.3-1.6 3.6-1.6 6.1.3a26 26 0 0 0 15 5.1c6.3 0 7.1-1.6 1.3-2.5a37 37 0 0 1-16.5-7.8 42 42 0 0 1-4.6-7.1c-2.3-4.5-2.5-5.9-2.1-13.5.5-9.8 1.6-12.4 8.2-19.8q11.5-12.8 33.8-11.8c6.8.3 9.7.9 13.7 3m24.8 44.2c-.2 1.6-.4.3-.4-2.7s.2-4.3.4-2.8c.2 1.6.2 4 0 5.5m133.2 6.2c2.3 5.9 1 7-6.6 5l-4.2-1.1 2.5-3.8c2-2.9 3-3.6 4.9-3.3 1.4.3 2.8 1.6 3.4 3.2m17.4 11c.5.5.6 1.5.2 2.1-.6.9-5.9 1.1-21.9.5-11.6-.4-21.4-.9-21.8-1.2s-.8-1.1-.8-1.9c0-1.3 3-1.4 21.7-.9 11.9.3 22.1.9 22.6 1.4m-17.8 6.6c21.1.5 19.9-.3 22.3 15.5l1.3 8c.3 1.2-1.4 1.4-10.6 1.2-20.4-.4-29.7-1.3-29.1-2.8s-2.1-3.3-5-3.3c-1 .1-3.2-.4-4.9-1-2.8-.9-2.7-1 1.8-.9 5.8.2 8.3-1.6 4.3-3.2-1.5-.5-4.4-1.1-6.4-1.1-2-.1-.1-.6 4.3-1.1 8.7-1 9.4-1.3 7.7-3-.7-.7-4-1.2-8.2-1.1-5.4.1-7-.2-7-1.3s1.8-1.4 7.9-1.4c4.6 0 8.3-.5 8.6-1.1 1.1-1.7-.1-2.2-6.1-2.7q-5.6-.5-4.2-1.3c.7-.5 2.4-.7 3.8-.4s10.2.7 19.5 1M31.4 489.7c.4.4-2 1.3-5.3 1.9a28 28 0 0 0-21.2 17.6l-1.8 5.3v-6l-.1-5.9 5.8-5.7c6.1-5.9 10-7.6 17.8-7.8 2.2-.1 4.4.2 4.8.6m135.6 2.1c7 1.6 36.4 3.1 73 3.8l39 .8c17.5.8 53.1-2.2 64.7-5.6 2.3-.7 4.5-.9 4.8-.6s.8 2.3 1.2 4.4c.5 3.7.5 3.8-1.1 1.9l-1.6-2-1.6 2a7 7 0 0 0-1.1 4.7q.6 3.1-1 1.6-1.3-1-2.2-.2c-1.3 1.4-2.4 14.1-1.3 14.8 1.2.7 2.8-1.1 3.5-3.9q.5-2.4.6.7c.2 4.7 3.2 4.3 4.4-.7.2-1.1.5.6.6 3.7 0 3.2-.2 5.8-.5 5.8l-5.7-1.5c-5.3-1.5-26.9-5-36.7-6-49.2-4.7-104.7-2.5-139.9 5.5-7.4 1.7-14 2.9-14.7 2.6-2.1-.8-1.7-2.8.5-2.1a3 3 0 0 0 3-.9c.7-.8 1.9-1.2 2.6-1 1.7.7 3.5-2.5 3.6-6.8q.1-4.4.6-.6c.9 5.9 4.9 2.3 4.8-4.2 0-3-.3-3.5-2.2-3.4q-2.4.2-2.3-2.2c0-2.9-1.6-3.9-3.5-2.4-1.3 1.1-1.5.7-1.5-2.3 0-4-1.4-5.5-3.5-3.7-1.3 1-1.5.8-1.5-1.5 0-2.6.1-2.7 5.3-2.2 2.8.3 7.2.9 9.7 1.5m66.7-1.2q-.6.5-1.9.1-1.1-.5.6-.6t1.3.5M106.5 495c.4.6-1.1 1-3.7 1-5.6 0-13.2 3.7-13.6 6.6-.4 2.6 2.8 4.2 4.3 2.1 1.6-2.2 7.1-4.7 10.5-4.7 3.7 0 10 4.4 10 7 0 2.9 2.5 4.3 4.4 2.5.9-.9 1.6-2.3 1.6-3.1 0-1.7-5-6.6-9.5-9.5-3.8-2.4-1.2-2.6 4.6-.3 6.3 2.6 10.9 11.8 10.9 22.2 0 4.9-.7 5.6-3.6 3.3-5.8-4.5-14.6-3-18.3 3-2.9 4.7-1.2 10.9 3 10.9 2.3 0 3.5-1.8 2-3.3s-1.4-5 .1-6.5c2.1-2.1 8.2-1.4 10.7 1.2 2.3 2.4 2.6 5 1.9 13.7q-1 13.5-18.2 16.9c-6.8 1.4-7.4 1-8.7-5.1-1.8-8.1-12.8-16.7-23.6-18.4-4.1-.6-4.3-.8-4.5-4.3-.2-5.9.2-8.5 2.2-12.7l1.9-4-.1 3.5c-.2 4.5 1 8.2 2.5 7.7.7-.2 1.5-2.7 2-5.6.4-3 1.4-6.8 2.3-8.6 1.7-3.6 11.4-13.9 12.2-13 .3.3 1.5-.1 2.7-.9 3.6-2.4 12.9-3.4 14-1.6m238.2 13.2q-.5 1-.5-1.2c0-2.2.2-1.9.5-1.3.2.7.2 1.9 0 2.5m-193 3q-.5 1.1-.6-.6t.5-1.3q.5.6.1 1.9m-17.6 4.8c2.6 1.5 4.9 6.2 4.9 10.4 0 3.7-3.5 8-7.5 9.2-1.1.4-2.8 1.3-3.8 2.2-1.7 1.5-1.8 1.4-1.1-2.9.8-5.3 1.7-6.4 5.2-6.4 5.3 0 5.6-8.5.3-9.3q-2-.4-2.1-2.3-.1-3.1 4.1-.9m135.5 5.1c-.3 1.7-.6 4.9-.6 7 0 3.8-.1 3.9-3.7 3.9-3.4 0-3.5-.1-1.7-1.4 1.8-1.4 1.8-1.5-.9-2.5a35 35 0 0 0-10.3-.8c-10.7.3-9.1-1 2.1-1.8 7.1-.6 9.5-1.1 9.5-2.1q-.1-1.3-1.5-1.4c-2.9 0 1.8-3.8 4.9-3.9 2.7-.1 2.8.1 2.2 3m14.7.1c4.2 4.2 6.9 8.6 6.2 9.8-.3.6-4.2 1-8.6 1-9.2 0-9.5-.2-8.4-8.5.6-5.5.7-5.5 4.1-5.5 2.6 0 4.3.8 6.7 3.2m-43.3.4q-.2.4-2 .4c-1.8 0-2-.4-2-.9s.9-.7 2-.4q1.8.5 2 .9m-1.3 10q-.6.5-1.9.1-1.1-.5.6-.6t1.3.5m17.1.1a47 47 0 0 1-7.5 0c-2.1-.2-.4-.4 3.7-.4s5.8.2 3.8.4m-203.1 4.9q-.6.5-1.9.1-1.1-.5.6-.6t1.3.5m93.3 2.1q8.2 4.5 8.3 11.9.1 6.5-7.6 7.9l-3.7.7 1-2.8c3.1-7.9-4.8-14.6-11.1-9.5-1.8 1.5-2.1 2.2-1.3 3.1s1.7.9 3.4 0c4.1-2.2 6.9 3 3.4 6.5s-11.6-1.2-11.2-6.5c.1-1.4-.1-3.1-.5-3.7-1.4-2.2 1.3-5.4 6.6-7.9 6.5-3 6.9-3 12.7.3m-80 .8c.7.8 2.3 1.5 3.5 1.5 2.8 0 7.4 3.5 8.5 6.6q1.5 4.1 4.3.9c1.3-1.2 1.7-1.2 2.9.3 3 3.4 5.1 13.2 2.9 13.2-1.5 0-3.6 11.3-2.2 11.8q3 1-2.9 8.8a17 17 0 0 1-8.5 6.9c-8.6 3.4-19.2.3-23.9-7-1.1-1.7-1.4-3.7-.9-7q1.3-9.4 7.8-9.5c4 0 4.4.5 3.8 4.6q-.5 3.1-2.9 4.3c-4.4 2-1.9 5 3.1 3.7 4.4-1.1 7-7.9 5-13.1-.7-1.9-.7-1.9 1-.4 2.5 2.4 2.3 8.3-.3 11.9-2 2.7-2.1 3.1-.7 3.6q1.7.6 5.1-2.7 6-5.9 1.4-13.7c-1.1-1.8-2-3.9-2-4.7 0-2.1-5.3-4.5-9.8-4.5-6 0-13.5 2.7-16.6 5.9-2.8 2.9-2.8 5.8 0 4.7q1.3-.4 1.4.9c.1 1.3-.4 1.5-1 1.5-2.2 0-2.9 3.8-1.9 9.8 1.4 8 3.7 11.3 10.2 15 5.9 3.3 8.8 3.8 14.9 2.7l3.7-.7-2.6 7.3a44 44 0 0 0-2.7 18.9 43 43 0 0 0 15 36.4c3.5 3.4 6.4 6.9 6.4 7.8s-1.8 3.6-4.1 6.1c-4.9 5.6-10.7 7.7-21.4 7.7a28 28 0 0 1-13.7-2.9c-6-2.8-14.8-9.9-14.8-12.1 0-1.6 1.1-1.2 5.4 2.3 9.2 7.3 16.1 9.8 24.1 8.7 7.8-1.1 15.5-5.4 15.5-8.6q-.1-3.9-5.6.8c-3.3 3-4.2 3.2-10.4 3.2a20 20 0 0 1-12.4-3.4 29 29 0 0 1-12.1-11c-2-3.8-2.9-11.4-1.6-13.9 1-1.7.9-2.2-.5-2.8-2.2-.8-4.7.8-5.8 4-.7 1.9-.4 4.9 1.1 10.9q2.1 8.1.9 6.5c-3.9-5.2-4.5-21.7-1-27.6 2-3.4 3.3-3.4 11.4.2 6.2 2.8 18.4 3.5 20.9 1.3s1.7-7.6-1.3-7.6c-2.4 0-8.3-3.7-15-9.3-3.3-2.9-4.9-3.6-6.1-3-1.4.8-1 1.8 3 6.6 2.5 3.1 4.2 5.7 3.6 5.7-.5 0-3.5-2.4-6.7-5.2-6.2-5.7-10.4-13.2-10.4-18.5q0-6.2-4-2.3-1.8 1.8-2.1 1.2a73 73 0 0 1 .1-18.6c1-4.8 0-6.6-2.6-4.5-1.6 1.3-1.7 1.2-1.1-.5l1.8-6.4c1.3-6.1 2.4-7.9 7.7-13.4 4.8-5 5.1-6.3.9-5.3-3.6.9-8.4 6.1-11.7 12.5-3.5 6.7-3.9 6-.6-1.3 1.2-2.9 3.6-6.5 5.2-7.9 11.3-10.5 18.7-14.7 27-15.5q5.4-.6 5.4-1.9c0-2 7.4-1.8 9 .1m60.3 19.2 2 2.3h-16.6l4.6-3.1c2.6-1.7 5-3.6 5.3-4.1q.7-.9 1.7.8c.5 1.1 1.9 2.9 3 4.1m-62.4 1.7c1 1.1.4 1.3-3.2.9-2.3-.3-5.9-.1-8 .5q-7 1.8-.4-1.3c4.1-1.8 10.1-1.9 11.6-.1M21 584.6a19 19 0 0 0-1 6.1c0 2-.3 3.4-.6 3.1-1-1.1-.6-8.8.6-10.3q2.7-3.4 1 1.1m-9 2.5c0 1.1-.9 2.8-2.1 3.8-6.9 5.6-4.5 19.8 4.4 26.5 2.5 1.9 2.8 1.9 4.4.4 1.5-1.5 1.3-2-1.9-5.8-3.8-4.3-5.8-12.4-4-15.7 1.1-1.8 1-1.9 3.2 6.4 1 4.1 8.1 15.5 12.8 20.5l2.5 2.7-2.4 3c-1.3 1.6-3.1 3-3.9 3-2.6.1-12.8-5.6-15.4-8.6A33 33 0 0 1 3 602.1c0-6.3 1.8-12.1 4.7-15.3 2.2-2.4 4.3-2.3 4.3.3m72 7.6c-1 2.7-2.1 7.8-2.5 11.5-.5 5.5-.9 6.6-2.2 6.1-2.4-.9-4.3 2.5-4.3 7.6 0 5.5 1.1 7.4 3.6 6.9q2-.2 2.4-4.3l.6-4 .8 4.5c1.1 5.8 2.9 9.3 7.9 15.3 5.8 7 9.2 8.3 23.7 9.2 9.1.5 11.4 1.6 12.9 6.2 1 3 1 4.8.1 8.2-.9 3.6-1.8 4.5-5.3 6.2-5.8 2.6-8.2 2.4-2.9-.2 2.4-1.2 4.9-3.4 5.8-5 1.3-2.7 1.3-3.3-.4-7.2-2.4-5.4-4.6-7.1-8.9-7s-8.4 3.6-6.5 5.5c.9.9 1.7.8 3.8-.2 3.7-2 7.9.4 7.9 4.5 0 3.4-5.1 7.5-9.4 7.5-6-.1-23.3-9.6-25.7-14.2l-3.7-5.1a52 52 0 0 1-7.8-20.9c-1.6-10.2 2.7-30.3 7.4-34q5.8-4.7 2.7 2.9m-53.6 20.8a27 27 0 0 1-4.4-10c.1-1.7 2.4 3.5 4.4 10m224 36.1c.9.3 1.6 1.6 1.6 2.8 0 1.9-.6 2.1-6.5 2.4q-6.5.3-6.5-.9 0-1 2.5-.5c2.7.7 6.5-.8 6.5-2.4 0-.6-2.1-1-4.6-1q-4.4 0-3.9-1c.6-1 7.7-.6 10.9.6m-.1 11.6c4.1 2.1 6.2 13.3 3 15.9-4.2 3.5-7.1 4.3-10 2.9l-2.8-1.3 3.8-.7c7.1-1.3 6.1-3.4-2-4.5-4.1-.5-5.3-.4-5.3.7q-.3 1-1.6-1.5c-1.6-3-2.4-3.3-4.3-1.5-2.9 2.8.2-5.8 3.2-9 3.1-3.2 3.4-3.3 8.7-2.6 3 .4 6.3 1.1 7.3 1.6M93 671.5a3 3 0 0 0 1.3 2.2c.6.4 2.3 2 3.6 3.6q2.6 2.8 1.4 3.8c-.9.9-2.1.6-4.7-1q-5.7-3.4-4.1-8.1c.7-2.3 2.5-2.7 2.5-.5m149 11.9q7.2 4.2.3 1.4c-3.4-1.4-8.3-5.8-8.3-7.2q.2-.8 1.8 1.1c.9 1.2 3.7 3.3 6.2 4.7"/><path d="M256.3 68c-.6 2.2-1.8 2.6-2.8 1-1.2-1.9-3.5-1-4.6 1.6-1.5 4 1.1 7.4 5.6 7.4s7-3.4 6-7.9c-.8-3.6-3.5-5-4.2-2.1M215 71.5c-1.5 1.8-1.6 6.3-.2 7.7.5.5 2.8 1.2 4.9 1.5 3.4.4 4.3.2 5.6-1.7 2-2.9.8-7.5-2.1-7.5-1.1 0-2.4-.4-2.8-.8-1.2-1.2-4.1-.8-5.4.8m70.8-.4c-2.1 1.2-2.4 6.9-.6 8.7 1.9 1.9 8.2 1.5 10.2-.7 2.4-2.6 1.3-6.1-1.8-6.1-1.3 0-2.9-.7-3.6-1.5-1.5-1.7-1.9-1.8-4.2-.4M74 402.4c-2 2-.8 2.6 5.4 2.6 6.4 0 9.2-1.4 6.5-3.1-1.8-1.1-10.7-.7-11.9.5M58 406c-2 1.5-2.2 2.1-1.3 3.1s1.8.8 3.8-1.1c1.3-1.2 2.2-2.7 1.9-3.1-.8-1.3-1.6-1.1-4.4 1.1m-10.4 10a27 27 0 0 0-2.3 27.2c3.2 5.5 7.9 9 11.5 8.6 2.9-.3 4.6-3.8 1.8-3.8-3 0-8.3-6.4-10-11.9-1.4-4.9-1.4-5.9 0-11.4.8-3.3 2.2-6.9 3-8.2 1.3-2 1-3.5-.7-3.5-.4 0-1.9 1.4-3.3 3"/><path d="M63 415.8c-7.3 3.9-10.6 12.9-7.3 19.8 3.6 7.6 12.1 10.5 18.8 6.4q5.3-3.2 3.9-6.5c-.9-2.4-3.2-1.8-4.6 1.2-1.2 2.4-1.9 2.8-5.8 2.8s-4.7-.4-6.7-3.4c-4.4-6.5-1.7-15.4 5.2-16.7a17 17 0 0 1 17.9 7c3.2 4.3 2.9 15.7-.6 21.1a33 33 0 0 1-4.2 5.4c-.9.7-1.6 1.7-1.6 2.2 0 2 2.9.7 6.3-2.7 8.3-8.4 8.6-24.7.5-32-6-5.5-16.1-7.6-21.8-4.6"/><path d="M65.5 425.5c-1.4 1.3-2.5 3.1-2.5 4 0 2.8 3.1 6.5 5.6 6.5 3 0 4.2-2 2.1-3.5s-2.2-4.9-.2-6.5q1.3-1.2.9-2.1c-1-1.6-3.4-1-5.9 1.6m38.1 4.4c-.6.9 1.9 11.3 3.4 14.1 1.8 3.3 1 10.3-2 18-3.2 8-3.6 10-2 10 2.3 0 4.7-2.4 4.2-4.2-.2-1 0-2.4.5-3.1a36 36 0 0 0 4.6-15.6c.1-6.4-1.7-14.5-3.7-17.5-1.6-2.6-4-3.4-5-1.7m-29.4 26.7c.4 2.1 2.2 2.3 2.6.1q.3-1.6-1.3-1.7c-1.6-.1-1.5.6-1.3 1.6m-33.7 2.6c-6.7 5.8-9.3 14.2-6.6 21 1.1 3 4.5 3.8 5.4 1.5.3-.8 0-3.2-.6-5.4-1.3-5.2 1.2-12.5 5.1-15.1 4.5-2.8 5.5-5.2 2.2-5.2-1 0-3.5 1.4-5.5 3.2"/><path d="M44.4 464.4c-4.4 4.3-6.1 9.6-3.1 9.6 1.8 0 3.7-2.1 3.7-4.1 0-.9 1.6-3 3.7-4.6q3.3-2.9 2.9-4.1c-1.2-2-2.7-1.4-7.2 3.2m8.4.7c-2 1.1-2.4 3.9-.7 3.9 2 0 4.9-2.1 4.9-3.5 0-1.7-1.7-1.9-4.2-.4m66.9 10.6c-1.3 1.3-.7 2.3 2.6 3.9 4 2 7.6 6.2 7.7 8.9.1 4 1.3 6.5 3 6.5 3.6 0 4.1-6.6.9-11.7-3.5-5.7-11.8-10.1-14.2-7.6m-59.2 5.7c-1.6.8-4.8 3.2-7 5.5-3.9 4.1-4 4.4-4 11.2s.2 7.2 3.3 10c5.6 5 10.1 2.6 5.1-2.7-2.9-3.1-3.6-10.1-1.5-14.2.9-1.8 3.5-4.4 5.7-5.9 5.6-3.7 4.4-6.6-1.6-3.9"/><path d="M120.7 483.6c-.3.4.6 2.1 2.1 4 2 2.5 2.9 3 3.9 2.2 1.6-1.3 1.7-4 .1-5.6-1.3-1.3-5-1.6-6.1-.6m-61.5 10.6c-2.4 2.4-1.1 7.8 1.8 7.8q3 0 2.7-6c-.2-2.7-2.6-3.7-4.5-1.8m-33.5 4.5c-1.4 1.3-.6 2.4 1.5 2.1 2.7-.4 3.6-2.8 1.1-2.8-1.1 0-2.3.3-2.6.7M5.2 531.2c-.9.9-.6 2 1 5 2.9 5.1 6 7.1 8.3 5.4 1.6-1.2 1.5-1.6-2-6.4-3.8-5.3-5.2-6.1-7.3-4m13.2 12.9c-.8 1.3 1.5 3 3.6 2.6q1.4-.3 1.8-2 .6-1.7-2.2-1.7c-1.4 0-2.8.5-3.2 1.1m316.8-38.8c-.6.6-1.2 2.3-1.5 3.7q-.4 3.3-.6-.8-.1-5.3-3.1-1.7c-.7.8-2 1.5-3 1.5-2.2 0-3.5 2.9-2 4.4q1 1.3 2.6-.8c1.4-1.9 1.4-1.9 1.4.2 0 2.4 1.9 2.9 3.8 1q1.3-1.5 1.2 1c0 2.5 2.5 3 3.4.6s.7-9.2-.3-9.8q-.9-.4-1.9.7M169 509.4c-1.4 1.8-.6 5 1.3 4.4 1.5-.6 2.2-3.7 1-4.9q-1-.9-2.3.5m6 .1q-1.4 1.6-.2 2.7c1.5 1.5 4.4.2 4-1.9-.4-2.3-2.2-2.7-3.8-.8m144.4-.4q-.5 1 .4 2.1c1.3 1.3 3.2.2 3.2-1.8 0-1.6-2.6-1.9-3.6-.3M112 529.3c0 1.4 5.2 5.7 7 5.7s1.1-4.9-.9-6c-2.7-1.4-6.1-1.3-6.1.3m4.3 8.4c-.7.2-1.3 1.6-1.3 3 0 1.5-1.1 4.1-2.5 5.9a13 13 0 0 0-2.5 4.3c0 2.2 3.9 1 6.9-2.1 2.7-2.7 3.1-3.9 2.9-7.2-.3-3.9-1.2-4.9-3.5-3.9m20.5 2.4c-4.1 2.4-1 5.2 3.2 2.9 2.2-1.2 9 2.3 9 4.6q.2 1.3 2 1.4t2-1.8c-.1-5.7-10.7-10.4-16.2-7.1M48.4 656.5c-.8 2 0 3 4.9 6.3 7.1 4.9 17.1 5 22.9.3 3.7-3.1 1.1-4.6-3.7-2.1a19 19 0 0 1-6.7 2c-2.9 0-9-3-12.4-6.1q-3.8-3.4-5-.4M77.5 630c-1.8 2.9 12.3 24 16 24 .7 0 2.6.7 4.1 1.5 3.6 1.9 7.4 1.9 7.4.1q-.2-1.4-2.5-2c-3.4-.9-9.6-5.2-12.1-8.4a67 67 0 0 1-7.3-13.5c-1.1-2.7-4.3-3.7-5.6-1.7M98 325.6c-1.1 1.2-.9 2 .8 4.4 1.2 1.6 2.2 3.9 2.2 5.2 0 3 1.5 5.2 2.9 4.4 1.7-1.1 1.3-6.3-.9-10.6-2.4-4.7-3.4-5.4-5-3.4m-85.7 25.1c-2.9.6-7.5 6-7.1 8.5.4 2.8 2.1 2.4 3.9-.8 1.2-2.3 2.4-3 5.3-3.2q3.7-.3 5.5 1.2 3 2.6 3.1-1.4c0-3.9-4.2-5.6-10.7-4.3m164.2 7a36 36 0 0 0-.4 15.5c.5 2.1 2.7 5.6 4.8 7.8 3.3 3.5 4.3 4 8.4 4 3.7 0 4.9.5 6.6 2.6s2.6 2.5 4.9 1.9c2.4-.5 3-1.3 3.9-5.2 1.8-7.9-2.2-16.6-9-19.4a16 16 0 0 0-7.4-1.7q-2.1-.3-4.2-3.7c-2.3-3.9-6.3-4.8-7.6-1.8m12.9 9.3c4.8 0 11.6 7.9 11.6 13.5 0 2.9-.7 3.1-3.4 1-1.1-.8-3.7-1.5-5.7-1.5-6 0-8.5-1.4-10.3-5.9-1.6-4.3-2.1-8.3-1-9.4.4-.3 1.9 0 3.5.8 1.5.8 3.9 1.5 5.3 1.5m115.6-4.1c-.5 1.1-1 5.3-1 9.4 0 6 .4 8 2.3 10.8 3 4.5 8.3 7.9 12.2 7.9 4.2 0 9.2 1.8 9.9 3.6q1.3 3.3 6.1-1.6c2.5-2.6 2.7-3.4 2.2-7.9q-1.2-9.4-5.9-11.8a83 83 0 0 0-17.2-6.5q-1.7 0-2.9-2.9c-1.3-3.3-4.1-3.8-5.7-1m7.5 6.1c.9 1.5 8.5 5.2 11.9 5.9 3.6.8 6.6 4.7 7.5 9.8 1.1 5.6.4 6.7-2.6 4.3a11 11 0 0 0-6.3-2c-6 0-9.9-1.9-12.6-6.1-2.2-3.6-2.3-4.3-1.3-8.4q1.6-6.5 3.4-3.5M31 376c-4.2.9-11 4.9-11 6.5 0 2 .9 1.9 6.3-.5 3.6-1.6 5.7-1.9 10.6-1.4 5.2.6 6.1.4 6.1-.9q-.1-1.5-.8-2.1A25 25 0 0 0 31 376m70.1 2.8c-1.5 2.2-1.7 3.2-.9 4 1.7 1.7 4.8 1.5 4.8-.3s1.6-2 2.6-.3c.4.6 1 2.5 1.3 4.1.8 3.8 2.4 4.4 3.8 1.4 2-4.3-3-11.7-7.9-11.7-.9 0-2.6 1.3-3.7 2.8m-80.2 9a41 41 0 0 0-6 4.8 52 52 0 0 0-7.4 15.1c-1.3 6.5 1.5 4.1 5.9-5 5.4-11.2 7.3-12.8 16.8-13.5 5.8-.4 6.8-.7 6.8-2.3s-.8-1.9-5.8-1.9c-4.7 0-6.7.6-10.3 2.8m26.3-1.6c-.8.8-.8 1.7.3 3.7.7 1.4 1.6 3.4 1.9 4.4.8 2.7 3 1.5 3.4-1.7.3-2.6-2-7.6-3.6-7.6q-.8 0-2 1.2"/><path d="M20.3 396.6q-1.2.6-1.3 1.4c0 .5-1.2 2.1-2.6 3.5-2 2.1-2.4 2.9-1.5 3.8 1 .9 1.6.7 2.7-.7a7 7 0 0 0 1.4-3.2c0-.7 1.5-1.4 3.3-1.6q3.1-.3 3.2-1.8c0-1.5-3-2.3-5.2-1.4m157.7 6.9c-1.9 2.1-2.1 2.7-1 4 .8 1 1.3 3.6 1.1 6.4-.1 3.9.3 5.4 2.4 7.9a12 12 0 0 0 5 3.6c4.5 1.2 9.3 4.7 11 8.1 1.3 2.8 2.2 3.5 4.5 3.5 2.4 0 3.1-.5 3.5-2.8l1.7-6.5c1.2-4.1-.1-11.6-2.5-14.6-2.5-3-9.1-7.1-11.4-7.1-1.3 0-3.6-.9-5.1-1.9-4.5-3.2-6.6-3.4-9.2-.6m9 6c.7.9 2 1.3 2.9 1 2.3-.7 7.8 2.9 10.1 6.7 1.2 1.9 2 5.1 2 7.5q0 6.6-3 2.8c-.7-.8-4-2.8-7.4-4.4q-11-5.1-8.4-12.2c1.1-3.3 2-3.6 3.8-1.4m-46.8 2.9c-2.4 3.1-2.9 13.3-.8 17.3q3.8 7.4 9 7.3c2.4 0 4.5 1 7.8 3.9q12.1 10.8 12-3.4c0-5.3-.8-8.1-3.3-11.7a29 29 0 0 0-12.4-7.8 17 17 0 0 1-5.4-4c-2.2-2.2-4.3-4-4.5-4s-1.3 1.1-2.4 2.4m5.3 6.7c.4.5 3 2.1 5.8 3.5 7.9 3.8 10.3 6.4 12.2 13.1.8 2.9-1 3.8-3.3 1.5-1.6-1.6-8-4.4-12.7-5.7-1.9-.5-5.5-8.6-4.9-11.1q1.2-3.9 2.9-1.3m200.4-7.9v2.2l.8 10c.8 13.4 5.3 20.6 12.8 20.6 1.8 0 4.4.9 5.8 2a11 11 0 0 0 3.2 2c.4 0 2.4-1.8 4.5-4l3.8-4-1.2-4.8a42 42 0 0 0-2.4-6.8c-1.6-3-7.6-7.3-12.6-9a13 13 0 0 1-7.1-5.5c-2.8-3.9-7.3-5.5-7.6-2.7m13.3 12.3c8 3.7 11.2 8 11 14.8-.3 5.4-.9 6-3.9 3.7a10 10 0 0 0-4.8-2c-5.6 0-10.4-8.2-9.1-15.4.4-2 .8-3.6 1-3.6zm-62.5-9.7q-11 12 2.2 23.6a13 13 0 0 0 4.9 3.2c4.4.7 6.7 1.7 8.4 4 2.3 2.9 3.8 3 6.7.6 2.6-2.1 3.7-9.8 2.1-14.7-1.1-3.4-5.7-7.6-11.4-10.5-1.5-.8-4.5-3.1-6.6-5.1l-3.8-3.7zm6.6 7.7c2.8 1.9 5.7 3.5 6.4 3.5.6 0 2.5 1.2 4.2 2.6 2.7 2.2 3.1 3.2 3.1 7.5 0 4.8-1.1 6.3-2.7 3.5q-1.3-2-10.6-4c-3.8-.9-6.7-5.9-6.7-11.9 0-2.6.2-4.7.5-4.7s2.9 1.6 5.8 3.5m-45.9 123.9c-.8 2.2 0 8.1 1.1 8.1.6 0 1.1-2.1 1.3-4.8.3-4.5-1.2-6.5-2.4-3.3m-4.8 2.1c-.9 2.6-.7 7.3.4 8q1.8 1.3 2.2-5.4c.3-3.6-1.5-5.3-2.6-2.6m-5.9 2.1c-1.1 1.1-.8 5.2.4 6 1.4.8 3-1.5 2.7-4-.3-2.1-2-3.1-3.1-2m-5.4 4c-.8 2 1.3 4.2 2.7 2.8 1.2-1.2.3-4.4-1.1-4.4q-.9.1-1.6 1.6m-4.8 3.3c-.7 1.2 1.2 2.4 2.5 1.6 1.1-.7.4-2.5-1-2.5q-.8 0-1.5.9M225 562q.1.8 1.5.4 1.4-.6 1.5-1-.1-.4-1.5-.4c-1.4 0-1.5.4-1.5 1m44 7.5q-1.3 1.7-2.6.4c-1.1-.9-1.5-.7-2 .5-.8 2.1-.7 2.2 3.2 3 2.7.6 3.2.4 3.7-1.6.8-2.9-.6-4.3-2.3-2.3m-10.8 2.6q.4 1 1.3 1 1.2 0 1.3-1t-1.3-1.1c-1.5-.1-1.5.5-1.3 1.1m10.7 12.6c-1.8 4.7-2.2 8-1 8.8 1.4.8 4.1-5.2 4.1-9 0-3.3-1.8-3.2-3.1.2m5.5-1-1.6 4.5c-1.1 3-.3 6.8 1.1 5.2 1.3-1.4 4-10.2 3.3-10.8-1-1.1-2.3-.6-2.8 1.1m-15.2 1.5c-.5.7-1.3 2.7-1.6 4.4-.7 2.9-.5 3.2 2.3 3.6 3.5.5 6.1-2.3 6.1-6.7 0-2.9-1.4-3.3-2.9-.8-1 1.7-1 1.7-1.1 0 0-2-1.3-2.2-2.8-.5m-5.6 2q-1.7 6 .9 3.8c1.6-1.3 2.1-6 .6-6q-.8.2-1.5 2.2m-4.9.5c-.4.3-.7 1.5-.7 2.5 0 2.6 2.4 1.7 2.8-1 .3-2.1-.8-2.9-2.1-1.5m-8.2 3.3q-.4.9.9 1 1.8 0 2.1-1t-.9-1q-1.8 0-2.1 1m11.1 24.5c-3 4.6-.9 5.1 2.4.5 1.6-2.3 1.8-3 .7-3-.8 0-2.2 1.1-3.1 2.5m4.5.6c-1.3 1.7-2 3.3-1.7 3.6.8.9 5.6-3.8 5.6-5.4q-.1-3.2-3.9 1.8m-11.6-1.1c-.3.5-1.9 1-3.5 1s-3.2.4-3.5 1c-.9 1.4 6.8 1.3 8.3-.2q1.1-1.2 1.2-2c0-1.1-1.8-1-2.5.2m22.5 19.3q.2 2.7-1.8 2c-3.1-.8-6.9 1.4-7.4 4.1q-1.2 5 3.8 2.1c1.6-.8 3.6-1.5 4.5-1.5 2.4 0 4.1-2.5 3.7-5.6-.4-3.6-2.8-4.5-2.8-1.1m11-.2q.1.8 1 .4t1-1.1q0-.4-1-.4-.9.1-1 1.1m-6 .9q.1.9 1 1 1-.1 1-1t-1-1a1 1 0 0 0-1 1m-114.4 2.6c-2.2 1.2-4.5 1.5-9.5 1-11.9-1.1-15.1-1.1-15.3-.2q-.5 1.8 12.7 3.5c5.9.7 7.8.5 12.3-1.1 2.9-1.1 5.2-2.6 5.2-3.4q0-2.7-5.4.2m76.9 1.6c.9 4.1 1.2 4.5 2.7 3q1-1.3 2.4.6c2 2.7 3.9.2 2.7-3.4-.8-2.4-1.6-2.9-4.7-3.2l-3.8-.2zm-6.3-1q.7 1.3 2.2 1.6 1.8.4 1.4-1a3 3 0 0 0-2.2-1.6q-1.8-.4-1.4 1m18.1 1.4c-.8 2.2.5 4.7 1.9 3.7a8 8 0 0 1 3.3-.8q2 0 2-2c0-1.6-.7-2-3.3-2.2q-3.2-.1-3.9 1.3m-94.1 12c-1.2.8-2.2 2.3-2.2 3.3 0 2-1.3 4.8-4.4 9.4a33 33 0 0 1-15.5 10.3c-5.4 1.3-6.6 3.4-2.1 3.4 6.4 0 18.9-7.6 23-14 5.6-8.7 6.3-16 1.2-12.4"/><path d="M139.7 659.7c-3.6 4.9-3.6 7.4.1 5.4 2.8-1.5 6.2-6 6.2-8.2 0-3.3-2.7-2.1-6.3 2.8m274.8 77.9a64 64 0 0 1-6.9 6.5c-2.4 1.9-3.2 2-4.9.9-1.7-1-2.2-1-3.4.6-.7 1-1.3 2.3-1.3 3 0 3.2-13 11.7-24.5 15.9a30 30 0 0 1-16.2-.4c-3.1-1.6-5.4-1.4-7.7.8q-2.1 1.8-10.6 3l-14.2 2.1c-4.5.8-17.3.8-17.3 0l-4.9-.6a24 24 0 0 1-6.8-1.5c-1.1-.6-3.7-.8-5.7-.4q-3.8.6-7.6-.9c-5.3-2.2-9.3-2-13.4.8A29 29 0 0 1 258 771l-14.5 2.1c-8.5 1.2-25.7 1.2-29.1-.2-1.4-.5-4.7-.9-7.2-.9-4.9 0-5.2-.2-16.3-8.6a41 41 0 0 0-18.4-7.9c-2.1-.4-5.6-1.5-7.6-2.5-2-1.1-3.9-1.7-4.2-1.3s-3.9-2.7-7.9-6.7-8.2-7.6-9.3-8c-6.1-2.3-18.5 1.7-18.5 5.9 0 3.5-8.1 16.7-9.4 15.4a43 43 0 0 0-8.5-2.3q-13.1-2.6-14.5 1.8c-.3 1-2.1 2.6-3.8 3.6-1.8 1-4.4 2.9-5.8 4.2-4.3 3.9-7.1 4.4-17.9 3.4-8.2-.8-10.7-1.4-14.7-3.9-4.4-2.7-5.8-3.1-14.4-3.3l-9.5-.3-6.3 4.7A38 38 0 0 1 1.8 774c-1.4 0-1.8.8-1.8 4 0 3.4.4 4.2 2.5 5 1.4.5 2.5 1.4 2.5 1.9s.9.7 2 .4q2.1-.7 2 1.6c0 1.1-.5 2.1-1.2 2.1q-1.1 0 .4 1.7c1.3 1.2 2 1.3 3 .5.7-.5 1.8-1 2.3-1 .6.1 1.6-1.2 2.4-2.7q1.3-3 2.1-1.4.8 1.4 2.2.1c.8-.6 3.2-1.5 5.3-2.1 2.2-.5 8-2.4 12.9-4.1 7.6-2.7 9.7-3.1 14.3-2.5 4.4.5 6.1.3 9.4-1.4 2.2-1.2 5.3-2.1 7-2.1a32 32 0 0 0 17.9-6.6c2.1-1.9 4.2-3.4 4.7-3.4s2.2-1.3 3.7-2.9l2.8-3 3.6 1.9q3.5 2 5.3 1c2.4-1.3 4.9-1.3 4.9.1 0 2.3-6.2 8.8-9.4 9.9-1.8.6-4.4 2.2-5.6 3.5a8 8 0 0 1-5.1 2.5q-2.9 0-6 3.1c-2.8 2.7-6.1 4.5-24.4 12.9a50 50 0 0 1-19.1 5.9c-3.9.5-8.4 1.5-10 2.3a47 47 0 0 1-7.9 2.8 31 31 0 0 0-6 2.1c-.5.5-4.9.9-9.7.9H0v6.3l249.8-.6 250-.7c.1 0 .2-12.1.2-27v-27l-2.7-.6c-1.6-.3-5.5-1.4-8.7-2.5-7.5-2.4-8.7-2.4-11.9.1-5.3 4.2-21.3 1.8-23.3-3.5-.7-1.7-8.5-7.4-12.7-9.3-4.3-1.9-6.6-1.5-7.9 1.3-1.3 2.9-3.6 3.3-4.4.7-.3-.9-1-2.4-1.5-3.2l-2.6-4.8c-2.3-4.3-4.8-4-9.8 1.4m-271.6 4.3 2.5 1.9-2.9-.6c-2.4-.4-2.7-.2-2.2 1.2q.8 1.8-1.1 1.4-1.5-.2-1.4.9t-.7 1.3q-.8-.1-1.4-1.3c-.4-1-.7-1-1.8 0-2.6 2.5-4.1 1.6-3.4-2 .4-1.7.9-3.5 1.2-4 .9-1.5 8.8-.6 11.2 1.2m271.1 7.4c0 .7-1.6 2.7-3.5 4.6a18 18 0 0 0-3.5 4.2q-.2.8-1.7.9c-1.6-.1-1.6-.2.1-1.5 1.1-.8 1.7-1.8 1.3-2.1q-.5-.6.4-1.8c.5-.6 1.9-2.3 3-3.9 2-2.6 3.9-2.8 3.9-.4m8 3.8q-.1.8-1.5.9c-.9 0-2 1.1-2.5 2.4-1.1 3-2.9 4.1-4.2 2.8q-1-1 .7-2.3c.9-.8 2.7-2.3 3.8-3.5q3.5-3 3.7-.3m16 .4c0 .3-.9 1.5-2 2.7q-3.4 3.5-1-1.3c1-1.7 3-2.7 3-1.4m-301.6 3.6c-.6 1.1-2.4.2-2.4-1.1q.1-.8 1.5-.4 1.3.7.9 1.5M147 756q-.1.9-1.1 1-.8-.1-.4-1 .6-1 1.1-1 .3 0 .4 1m20.3 2c3.1 1.1 6.3 2 7 2 2.5 0 11.2 4.8 16.1 8.9 2.6 2.3 4.3 4.1 3.8 4.1q-1-.1-1.7-1t-1.6-.5-2.5-.9c-1.9-2-4.4-2.1-4.4-.2 0 2.1-3.7.8-4.3-1.6q-.6-1.8-1.6-1.3t-1.1-.4c0-.6-1.1-1.1-2.4-1.1-1.4 0-2.7-.4-3-.9s.7-.6 2.2-.3q2.8.4 1.7-.6c-1.5-1.6-6.5-2.6-6.5-1.3q-.2 1-2.5 1.1c-2.3.1-2.5-.5-2.5-1.1q.2-1 2-.4 2 .8 2-.9-.1-1.5-1.4-1.6c-1.3 0-6.8-3.9-5.6-4zm-17.3 2q-.1 1.8-.8 2c-.7.2-.8-.9-.9-2q-.1-1.8.8-2 .8.2.9 2m8.9-.4q1-.6 1.1.8 0 1.5-1.5 1-1.4-.6-1.5.4 0 1-2.5-.1c-2.6-1.3-3.5-3.3-1-2.4q1.4.5 2.1-.5.6-1 1.4.2.8 1 1.9.6m322.1-.9c0 .5-.7 1.7-1.5 2.7q-1.5 2.2-2.7.8-1.2-1 .2-2.7c1.3-1.5 4-2.1 4-.8m-33.8 3.3c3.2 0 1.4 1.2-2.1 1.4q-3.1.2-3.1-1.2t1.6-.8c.9.3 2.5.6 3.6.6m43.2-.4c2.5 1 1.9 3.1-1 3.8-3.1.8-4.9-.5-4.1-2.8q1.1-2.5 5.1-1m-59.4 1.3q-.1.8-1.5 1.5-1.4.4-1.5-.9.1-1.3 1.5-1.5c1.4-.2 1.5.4 1.5.9m-20 2.1q0 .9-.9 1-1-.1-1.6-1-.4-1 .9-1 1.5 0 1.6 1m-365 3.8c5.3 2.5 5.5 4.4.2 2.4-4.8-1.9-9.2-2.4-9.2-1.2q0 1.2-2 0-1.8-1-1.5-2.1c.9-1.4-2.4-1.1-3.9.3-.8.7-2.2 1.9-3.2 2.5l-6.9 4.8q-8.6 6-13.4 3.5c-2.8-1.4-1.8-3 1.9-3 3.4 0 15.7-5.7 18.7-8.7 2.8-2.8 11.8-2.1 19.3 1.5m393.5-1.8c-1 1.1-2.1 1.8-2.3 1.5q-.4-.6 1.4-2 4-3 .9.5M171 768.6q0 1.4-1.2 1.2c-1.8-.6-2.1-2.8-.4-2.8q1.5.1 1.6 1.6m293-.6q0 .9-1 1a1 1 0 0 1-1-1q.1-1 1-1t1 1m-349 1.5q-1.2 1.4-1.7 1.1c-.7-.7.7-2.6 1.9-2.6q1 0-.2 1.5m249.8.6c3.7.1 5.8.4 4.7.6-1.1.3-2.5 1-3.2 1.5q-1.2.8-2.3.3c-2-1.2-6.5.6-10.4 4.2a29 29 0 0 1-12.5 7.4c-.9.2-4.7-.1-8.6-.6s-7.3-.8-7.7-.7l-4.7.7c-2.2.2-6.2 1-8.8 1.6a97 97 0 0 1-13.5 1.4c-7.6.3-9.1 0-11.3-1.7-1.4-1.1-3.2-1.8-3.9-1.5-.8.3-2.2-.3-3.2-1.4q-3.5-4-11.7 2.1c-4 2.9-9.9 4.1-11.1 2.1-.9-1.3-5.6-2-8.5-1.1q-2.6.8-10.1-1.6a51 51 0 0 0-10.5-2.4c-1.6 0-5.2-.6-8-1.4l-5-1.3 12.5-.6c6.9-.3 14.1-.8 16-1l9.5-1.1c8.4-1 15.6-2.7 18-4.2 2.9-1.8 5.4-1.9 10.4-.5 2.4.7 5.7 1.1 7.5 1s4.9.1 7.1.5c10.6 1.8 20 2.3 27.3 1.4 8.6-1.1 13.5-1.6 20.3-2.2 2.6-.2 5.9-1.1 7.5-1.9q2.9-1.5 5.2-.6c1.3.5 5.3 1 9 1m-185.8.5c0 .2-1.7.4-3.7.3q-4.8 0-1.3-.8c2.3-.7 5-.4 5 .5m-20.5.4q.4.9-.4 1-1-.1-1.1-1 0-1 .4-1 .6 0 1.1 1m276.5 1q-.1.9-1.1 1-.8-.1-.4-1 .6-1 1.1-1 .4 0 .4 1m-266.5 5q-.6 1-1.8 1t0-1.1c.6-.6.9-1.9.6-2.8q-.6-2 .7.2c.6.9.8 2.2.5 2.7m-6.4 1.3q-1.2 1.2-1.1-.9c0-2.7 1.4-4.1 1.8-1.9.2.9-.1 2.2-.7 2.8m16.4-2.4q-.6 1-1.7 1.1-1 0 .2-1.5c1.4-1.7 2.6-1.3 1.5.4m-74.8 1.6c-1.1 2.3-2.7 3.4-2.7 1.8 0-.6 3-4.3 3.6-4.3zm91.3-.8q-.1 1-1 2.3-1.1 2-1-.8.1-2 1-2.2 1 0 1 .7m169 3.5c2.3 1.7 4.6 2.2 10.2 2.4 10 .3 17.9 1.5 17.2 2.5-.3.5-2.2 1.6-4.2 2.5-4.6 1.9-54.9 3.2-59.7 1.5-2.3-.9-.7-1 7.1-.6 10.1.5 10.2.5 13.9-2.5 2.1-1.7 4.3-3 5-3 .6 0 2.2-1.1 3.5-2.5 2.9-3 3.3-3.1 7-.3m-257.6 1.4q.5 1.3-.4.9-1-.6-1-1.6.2-2 1.4.7m37.6.8c0 2.8-1.7 4.3-3.2 2.8q-1-1 .1-3.1c1.6-2.8 3.1-2.7 3.1.3m43-1.4q-.2.9-1.5 1c-1.3.1-1.5.4-1.5 1q-.2.9-1.5 1c-1.3.1-1.5.4-1.5 1q-.2.9-2.2.9h-2.3l2.3-.9q2-1 2.2-1.7.2-.9 2.3-1.9c2.9-1.5 3.7-1.6 3.7-.4m261.6.2c.4.7.9 2.7 1.1 4.5.3 3 .1 3.3-1.9 2.9l-8-1.6a17 17 0 0 1-6.3-2q-.6-1 9.5-4.4c2.7-.8 4.9-.6 5.6.6m-291.6.6c0 1.3-4.1 5.4-4.8 4.8-.3-.4.5-1.7 1.8-3.1 2.5-2.7 3-3 3-1.7m50 .2q0 .9-.4 1-.6-.1-1.1-1-.4-1 .4-1 1 0 1.1 1m-45 2.9a7 7 0 0 1-2.2 2.7q-1 .7-.3-.7c2.1-3.7 4.4-5.5 2.5-2m301-.5q0 .6-1 1.1-.9.4-1-.4.1-1 1-1.1 1 0 1 .4m-324.4 2.1q-.4 1.4.3 1.5c1.4 0 2 3.7.8 4.9-1.7 1.7-2.9 1.3-1.8-.7 1.1-2.1-.3-4.2-2.6-4.2-1.9 0-1.6-1.8.5-2.3 3.1-.8 3.4-.7 2.8.8m6.7 1.5c-.9 1.6-2.1 3-2.5 3q-1.9.2 1-3.5c2.5-3.5 3.6-3.1 1.5.5m78.7-2.6q0 .6-1 1.1-.9.4-1-.4.1-1 1-1.1 1 0 1 .4M123 788q0 .9-.4 1-.6-.1-1.1-1-.4-1 .4-1 1 0 1.1 1m84.3-.3c-.7.2-1.9.2-2.5 0q-1-.5 1.2-.5c2.2 0 1.9.2 1.3.5m12.1.2c.3.4-.6 1.3-1.9 1.9q-4.2 1.6-1.3-1.6 2.1-2.1 3.2-.3M189 789q1.3.9.5 1c-.5 0-1.7-.5-2.5-1s-1-1-.5-1q1.1.1 2.5 1m-90 2q0 1-3.8.1-.3-.2.3-1.1c.6-1 3.5-.2 3.5 1m49-.4q-.1 1.3-1 .9-1-.7-.5-1.6 1.4-2 1.5.7m9-.1q-1.2 1.3-2.1.9c-1.3-.8-.1-2.4 1.8-2.4q1.9-.2.3 1.5m69-.5q-1.4.9-2.5 1-.7-.1.5-1 1.8-1.2 2.5-1 .8.1-.5 1m54-.6q-.1.4-1.5 1-1.4.4-1.5-.4.1-1 1.5-1c1.4 0 1.5.2 1.5.4m-186.3 1.2c-.3.3-1.2.4-1.9.1q-1.1-.5.6-.6t1.3.5m58.3-.2q0 .5-1 1.1-.9.4-1-.4.1-1 1-1.1 1 0 1 .4m53.5.6c-.3.5-1.3 1-2.1 1s-1.4-.5-1.4-1q.2-1 2.1-1 1.7 0 1.4 1m5 0q-.6.8-2 .3-3.2-1.2.6-1.3 1.8 0 1.4 1m34 0q-.7.9-1.6 1-.9-.1-.4-1a2 2 0 0 1 1.6-1q.9 0 .4 1m-134.8 3.2q-.2 3.3-1.7 3.3c-.8 0-1.9 1-2.5 2.2-1.4 3.2-2.7 2.9-1.9-.5l.7-2.7-2.5 2.2c-3.4 3.2-4.3 2.8-1.8-.7q2.1-2.8 4.3-3c1.2 0 2.8-.9 3.5-2q2.4-4.3 1.9 1.2m63.1.1c-2.3 2.3-4.9 2.8-6.4 1.3q-3.4-3.3 2-2.2c2.7.5 3.5.3 4.1-1.1q.8-1.8 1.2-.6c.3.7-.1 1.9-.9 2.6m95.2-2.7q-.2.8-1.7 2c-2.1 1.6-6.3 1.8-6.3.4q0-1.5 3.7-1.1 1 0 1.8-.9c.7-1.1 2.5-1.4 2.5-.4m-194.1 3.3c-1.5.5-2.2-.6-1.4-1.9q.8-1.4 1.6.1.7 1.3-.2 1.8m11.8.5c.8.4 2.2.1 2.9-.5q3.9-3.2 2.5 6-.2.4-1.4-1.4c-1.3-1.7-1.5-1.6-2.6 1.6q-1.2 3.4-2 2.1c-.4-.7-1.5-1-2.4-.6-2 .7-2.2 2.1-.4 2.7q1 .4.6 1.1c-1.1 1.1-3.8-.5-3.2-2q.4-1.3-.6-1.4-1.3 0-1.1 1.4a3 3 0 0 1-1.1 2.2q-1.2.7-.4-1.5c.6-1.9.3-2.1-4.3-2.1-3.1 0-5.2-.5-5.5-1.3q-.4-1-1.3-.3c-.9.7-.4 1.1.4 1.3q1 .6 1.2 1.8.3 1.6 1.3 1.8.7.5-2.3.2l-4.9-.4q-1.7 0 .4-2.1c1.8-1.9 1.7-2-.3-2-4.7 0-1.6-4.3 4.7-6.5 3.7-1.3 4-1.3 4.6.6.4 1 .3 2.4-.1 3.1q-.5.9 1.6-.5c1.8-1.2 2.7-1.4 3.7-.5.7.6 1.7.7 2.1.3q.6-.7-.5-1.2c-1.3-.5-.6-3.3.8-3.3q.7.2.3 1.5c-1 2.5 1.4 1.7 3.3-1.2q2-3 2.1-1.1.4 1.5 1.9 2.2m341.6-.1c-.7 1.1-2.3-.2-2.3-1.9q-.2-1.7 1.4-.2 1.3 1.2.9 2.1m-306.6-.1q-.5 1.1-.6-.6t.5-1.3c.3.3.4 1.2.1 1.9m14.3-.8c1.7 2.1.9 6-1.4 6.4s-6.8-1.7-6.1-2.9q.3-.6-1.5-.2-2 .6-2-1c0-1.6 3.5-1.7 5.9-.3q1.2.7 1.8-1.3.8-3.7 3.3-.7m48 1.3q0 2.8-1 1.7c-.6-.6-.8-1.8-.4-2.7q1.4-3.6 1.4 1m58.7-2.1q-.6.5-1.9.1-1.1-.5.6-.6t1.3.5m27.6 2c-2.7 2-3.9 1.7-1.8-.6 1-1.1 2.2-1.7 2.7-1.4q.7.6-.9 2m25.4-2q-.6.5-1.9.1-1.1-.5.6-.6t1.3.5m13 0q-.6.5-1.9.1-1.1-.5.6-.6t1.3.5m-211.3 1.9q.6 1.5-1.6 1.5c-1.7 0-1.8-.2-.8-1.5l1.5-1.5q.3.1.9 1.5m57.6-.3q0 2.2-1.2 2.1-.6 0-1.7 1.1c-.7.8-2.1 1.2-3.1.9-1.9-.5-1.9-.6.2-2.8s5.8-3 5.8-1.3m-38.6 1.3q-.7 1.3-1.5 1.5-.7-.2-.3-1.5.7-1.4 1.5-1.5.7.1.3 1.5m30.6-.1q0 .5-1 1.1-.9.4-1-.4.1-1 1-1.1 1 0 1 .4m96.5.6q-.6.9-1.6 1-.8-.1-.9-1 .1-1 1.6-1 1.3 0 .9 1m242.6 2.3q-1.2 1.2-1.1-.4c0-2 1.3-3.4 1.8-1.9q.3 1.2-.7 2.3M160 799q0 .9-1 1a1 1 0 0 1-1-1q.1-1 1-1t1 1m13.6-.1q1.4-1.2 1.4-.1c0 1.6-1.6 2.3-3.4 1.6q-1.4-.6-.9-1.7.7-1.1 1.1.1.3 1.5 1.8.1m25.7.8q-.9 1.8 1.5 1.1c2.3-.6 3.9.6 2.2 1.7-1.6 1-1.2 2.4.8 2.4.9 0 3.5.4 5.7.9q4.6 1 1.5 1.2c-1.4.1-2.9.2-3.5 0l-4-.2c-1.6-.1-3.6-.8-4.2-1.7-1.1-1.4-1.3-1.3-1.9.7s-1.2 2.2-6.5 2q-5.8-.3-5.9-1.5t-1.6-2.1c-2-1.1-.8-3.6 1.3-2.8.9.4 2.2.1 2.9-.5q1.3-1 1.4-.3c.1.7.4.2 1-.6q1-1.3 1.7-.6c.4.4-.3 1.7-1.7 2.9q-2.4 1.9-.7 1.4t1.7.9c0 2.1 1.9.7 3-2.2.5-1.3 1.6-2.4 2.5-2.4q1.4-.1 1.5-1 0-1 1-1 .8.1.3 1.7m294.8-.7c.5 0 .9 1.6.9 3.5v3.5h-5.3c-4.6 0-5.3-.3-5.3-2q0-2 1-1 1.1 1 2.8 1 2.5 0 1.8-4.9-.2-1.4 1.5-.7c.9.3 2.1.6 2.6.6M114 800q0 .9-1 1a1 1 0 0 1-1-1q.1-1 1-1t1 1m4 0c-2 1.3-3.3 1.3-2.5 0 .3-.6 1.4-1 2.3-1q2.2-.1.2 1m91 .4c0 .8-.4 1.8-1 2.1q-.9.4-1-1.4.1-2 1-2.1 1 .1 1 1.4m-151.6 1q-.6 1.3-2.3.9-1.9-.5-2.5 2.1T50 807c-1.7 0-1.6-.3.8-2.9 1.5-1.6 3.6-3.1 4.7-3.4l2.2-.6zm155.9.6q-.6 2-1.1 1.6c-.5-.6.5-3.6 1.2-3.6q.3.2-.1 2m9.4 2.7q-.5 1.3-.5-1.7c0-3 .2-2.7.5-1.8s.2 2.6 0 3.5M168 802q0 .9-1 1a1 1 0 0 1-1-1q.1-1 1-1t1 1m50 .1c0 1.6-2 4.9-3 4.9-.5 0-.4-1.3.1-3 1.1-2.9 2.9-4.1 2.9-1.9m54-.1q-.2.9-2 1c-1.8.1-2-.5-2-1q.2-1 2-1c1.8 0 2 .4 2 1m140 .8q-.1.7-2.1.9-2.4.4-.9-1.2c1.2-1.4 3-1.2 3 .3m7.3-.4q.6 1.5-.8.9t-.9-1.4q1-1.9 1.7.5m-155.6 1.2q.1.9-1.7 1.1c-2 .2-2.6-.8-1.3-2.1.9-.8 2.6-.3 3 1m55.3-.6q.1-.9 1.4-1 1.3.1 1.3 1.8 0 2-3.4 2c-2.7.1-3.3-.2-3.3-1.9s.3-1.8 2-.9q2 1 2 0m-273 2c0 1.8-.7 2-7.7 2l-7.8-.1 4-1.8a21 21 0 0 1 7.8-2c3.1-.1 3.7.2 3.7 1.9m69 0c-.8.5-1.7.7-1.9.4q-.4-.5.9-1.4c.8-.5 1.7-.7 1.9-.4q.4.5-.9 1.4m135 .5c3.4 2.5 3.4 2.5.8 2.5-1.5 0-2.9-.6-3.2-1.3q-.6-1.5-1.2 0c-.6 1.3-4.4 1.9-4.4.7 0-1.5 2.2-4.4 3.3-4.4.7 0 2.8 1.1 4.7 2.5m7-2q-.2.5-2.2 1.5-3.2 1.7-.4-.4c2.1-1.7 2.6-1.9 2.6-1.1m72.7.1q-.6.5-1.9.1-1.1-.5.6-.6t1.3.5M179 805.4c0 2.4-1.6 2.7-3.5.6-1.8-1.9-1.7-2 .8-2q2.6 0 2.7 1.4m250.5-.4q.4.9-.4 1-1-.1-1.1-1 0-1 .4-1t1.1 1m25.5 0q0 .9-.4 1-.5-.1-1.1-1-.4-1 .4-1 1 0 1.1 1m-288 1q0 .9-.4 1-.6-.1-1.1-1-.4-1 .4-1 1 0 1.1 1m5.2 1.2c-1.2 1.2-3.5.1-2.7-1.2.3-.5 1.3-.6 2.1-.3q1.5.6.6 1.5"/><path d="M0 786q.1.9 1.4 1c.8 0 1.8-.5 2.1-1q.4-1-1.4-1-2 0-2.1 1m38 1.4c0 .9 3 1.4 3.5.6q.4-1-1.4-1-2 0-2.1.4m-9.5 3.6q-.4.9 1.4 1 2-.1 2.1-1-.1-1-1.4-1c-.8 0-1.8.4-2.1 1m-3 1q-.4.9.4 1 1-.1 1.1-1 0-1-.4-1t-1.1 1m-10.8 2.7c-1.5.8-2.5 1.8-2.2 2.3.7 1.1 6.8-1.4 7.3-2.9s-1.7-1.2-5.1.6M5 799q.2.9 1.5 1c1.3.1 1.5-.5 1.5-1q-.2-1-1.5-1c-1.3 0-1.5.4-1.5 1m-3.8 1.5c-1.1 1.3-1 1.5.7 1.5q2.1 0 1.5-1.5c-.7-1.8-.6-1.8-2.2 0M322.1 823c-7.4 4.1-7.6 4.3-9.5 10.4-2.5 7.8-1.4 13.4 3.4 18.9 5.3 6 12.8 8.6 19.3 6.7 12.5-3.5 19.8-15.8 15.6-26.7-2.3-6.2-10.2-11.3-18.3-11.9-4.3-.4-6 .1-10.5 2.6m15.2 5.8q5.2 5.8 3.9 14.7c-1.2 7.2-3.3 9.5-8.7 9.5-6.8 0-10.5-5.3-10.5-14.9 0-5.5.2-6.1 3.3-8.5 3.9-3.1 9.6-3.5 12-.8m120.8-6.7c-7.1 2.6-9.9 7.7-7 13 1.6 3.1 9.6 6.1 14 5.4q7.1-1.3 8.3 4.5c1 5.3-3.9 11.9-6.8 9-.5-.5-1.8-1-2.8-1-1.1 0-2.3-1.1-2.8-2.5q-2.1-5.8-7.1-.9-3 2.7-2.9 5.9v3.2l10.9.7c11.5.7 14.2.2 17.9-3.3 4.1-4 2.2-16.4-3-18.8s-8-3.3-10.4-3.3c-3.4 0-8.4-3-8.4-5 0-4.5 4.8-5.1 10.3-1.4 4.7 3.1 6.7 2.8 8.4-1.4 1.2-3 1.2-3.3-.9-4.1a31 31 0 0 0-17.7 0m-158.4-.1c-2.1.3-3.8.8-3.7 1.2v1.8c0 .5 1.1 1 2.4 1q4.7.1 2.6 3.7l-3 6.7-2.1 5-4.5-5.2c-3.9-4.4-5.1-5.2-8-5.2-4.9 0-6.8 1.2-8.9 5.9-1 2.3-2.1 4.1-2.4 4.1-1 0-8.5-13.1-9.1-15.9-.5-2.2-1-2.4-7.6-2.7q-7-.5-8.9 1c-2.6 1.9-.9 3.7 3.2 3.4l3.5-.3 6.9 13.5c3.7 7.4 6.8 14 6.9 14.6q-.2 1.1-2.5 2.2c-4.2 1.9-3.2 4.1 1.8 4a34 34 0 0 1 6.8.4c1.4.3 3.2.3 3.8-.2 1.7-1 1.9-8.2.3-8.8-.7-.2-1.7-1.3-2.3-2.3-.8-1.6-.4-3.1 2.1-7.4 1.7-3 3.6-5.5 4.1-5.5s1.8 1.9 3 4.2 3.3 5.7 4.6 7.5c3.2 4.2 2.8 7.7-.9 8.1-3.2.4-3.7 2.7-.9 4.2 2.5 1.3 13.8 1.3 14.6 0q.4-1-1.2-1.7c-4.3-1.6-4-3.7 2.4-20.3a58 58 0 0 1 6.4-13.2c2.7-2.3 2.4-4-.9-3.7a8 8 0 0 1-3.7-.2c-.6-.3-2.7-.2-4.8.1m56.8-.2q-.2.6.4 2.1c.5.9 1.2 8.5 1.6 16.8.7 13.6.6 15.3-.9 15.9-.9.3-1.6 1.5-1.6 2.5 0 1.7.8 1.9 6.5 1.9 5 0 6.7-.4 7.2-1.5q.4-1.5-1.1-2.8c-1.3-1-1.5-2.3-1-7.5.6-5.4.9-6.2 2.8-6.2 2.1 0 6.8 5.1 10.5 11.5 2.5 4.3 8.2 7.2 11.8 5.9q2.8-.9 3.1-3.4c.2-2.1-.6-3-5-5.6a23 23 0 0 1-6.8-5.6c-1.3-2.5-1.3-2.9.7-5 4.4-4.9 5.3-14.9 1.5-18-1-.9-5.6-1.3-15.4-1.4-7.6 0-14 .2-14.3.4M379 827c1.1 2 .4 6.6-1.3 8.7-.5.7-2.9 1.3-5.3 1.3H368v-12h5c3.9 0 5.2.4 6 2m20-5.3c0 .4.7 1.5 1.7 2.5 2.3 2.6 2.1 30.3-.3 32.9-.9 1-1.3 2.2-1 2.7s5.4.7 11.3.4c13.8-.6 20.9-3.8 25.6-11.5 2.3-3.6 2.7-14 .7-17.7-1.7-3.1-7.2-7.9-9.2-8-.9 0-2-.4-2.3-1-.6-1-26.5-1.3-26.5-.3m22.8 6.5c8.5 5.2 8.6 18 .1 24-2.2 1.6-5 2.8-6.4 2.8-2 0-2.5-.5-2.6-2.8l-.4-14.2c-.1-6.3-.1-11.9.2-12.3.7-1.2 5.1 0 9.1 2.5m-202-4.7c-2.8 1.6-5.8 6.2-5.8 8.9 0 .8 1.1 2.7 2.4 4.2 2 2.4 3.3 2.9 9.6 3.5 8.2.7 10 2.1 10 7.5q0 3.1-2.5 5.6c-2.1 2.2-3 2.4-6.3 1.8-6.8-1.4-9.1-2.7-10-6.1-1.3-5.4-2.7-4.9-9.3 3-.8.9-2.8 2.6-4.4 3.8q-3.1 2.2-2 3.2c.7.6 7.8 1.2 17.5 1.5 15.9.4 16.5.3 20.1-2 2.1-1.3 4.3-3.2 4.9-4.3 1.5-2.8 1.2-8.7-.5-12.1-2-3.9-9.2-7.1-14.4-6.4-4.3.5-7.4-1.5-6.9-4.5.2-1.2 1.6-1.7 5.1-1.9 3.9-.3 5.1.1 6.6 1.9q1.8 2.2 3.7 1.5c2.3-.7 5.9-6.9 5-8.5-.4-.6-2.8-1-5.4-.9s-6.9-.1-9.7-.5c-3.7-.5-5.7-.3-7.7.8m-151.3 1.2c-6.1 2.5-9.4 5.1-11.4 9.1-5.2 10.3-2.6 19.6 7 24.9 4.3 2.3 21.6 2.6 24.2.4q3.6-3-3.8-3.1c-8.1 0-16.5-6.8-16.5-13.4q0-8.1 4.1-10.1c4.2-2.2 6.6-1.8 9.1 1.5 1.2 1.6 2.7 3 3.4 3 1.6 0 3.6-2.6 5-6.7 1.1-3.1 1-3.5-1.2-5-3.6-2.3-14.9-2.7-19.9-.6m-46.5.5c-2.4.9-2.5 1.7-.4 3.3 1.5 1 1.2 2-2.5 9.8A93 93 0 0 0 15 848c0 2.3-5.3 10.5-6.8 10.5q-1.5.2-2 1.7c-.3 1.5.4 1.8 3.5 1.8 4 0 8.4-2.2 6.6-3.3-.6-.4.4-3.5 2.3-7.6l3.3-6.9 5.8-.4c8.6-.6 8.4-.8 9.8 9.3.7 4.4.6 4.7-2 5.3-1.4.4-2.5 1.2-2.2 1.9.5 1.6 16 2.2 18.7.7 2.3-1.2 2.7-4 .6-4q-1.4-.1-2-1.8c-2.4-8.5-5.6-21.4-6.1-24.4-.3-2.1-1.4-4.2-2.3-4.7a68 68 0 0 0-20.2-.9m11.3 7c.3 1.8.8 4.1 1.2 5 .6 1.6.1 1.8-3.8 1.8-2.5 0-4.8-.4-5.1-.9-.6-.9 1.6-7 3-8.4 1.9-1.8 4.2-.6 4.7 2.5m66.1-7.1q-.5 1.3 1.1 2.5c1.4 1.1 1.8 3.4 2.3 14.3.3 9.7.2 13.4-.8 14.6-.7.8-1 2.2-.6 3 .4 1.2 2.8 1.5 13 1.5 6.9 0 13.6-.4 15-1 3.1-1.1 8.2-8.8 6.8-10.2s-5.1.8-6.3 3.9c-.7 2-1.4 2.4-3.2 1.9-1.2-.3-4.6-.6-7.4-.6H114v-6.5q.1-10.3 3.2-4c1.8 4 4.2 2.7 4.9-2.5.4-2.5.3-5.2-.2-6.2-1.1-2.1-4.6-1.3-5.4 1.3-1.2 3.7-2.5 1.8-2.5-3.7v-5.5l4.7.3c4.7.3 4.8.4 5.4 4.1.7 4.6 1.5 5.4 3.7 4.1 1.3-.8 1.7-2.5 1.7-6.5v-5.4l-14.7-.3c-10.4-.2-14.9.1-15.4.9m73.8 6.7c-2.4 2-3.2 3.5-3.2 5.8 0 3.3 3.5 10.7 7.7 16.2 3.4 4.5 2.7 9.6-1.8 13.3-3.2 2.6-3.3 4.9-.3 4.9.8 0 3.2-.9 5.2-1.9 6.3-3.2 7.8-9.4 4.2-16.6q-3.4-6.8 1-3c1.9 1.7 2.2 1.7 3.6.3 1.8-1.8 1.2-5.1-1.6-8.8-1.6-2.1-2.2-2.3-3.7-1.4q-1.6 1.3-1.7 2.8c.3 2.9-2.2 1.6-4.9-2.6-2.2-3.6-2.2-3.8.8-3.8 3.6 0 4.2-2.6 1.5-5.6a12 12 0 0 0-2.9-2.4 20 20 0 0 0-3.9 2.8"/><path d="M161 845.7c-6.3 2.5-6.9 9.8-.9 12.8 3.9 2.1 5.3 1.9 8.8-1.1 3.4-2.8 4.3-8.2 1.7-10.3a14 14 0 0 0-9.6-1.4m4.8 6.1q.4 3.7-2.6 1c-1.8-1.8-1.5-4 .6-3.6q1.5.5 2 2.6m321.9 2c-3.2 3.5-1.1 7.7 3.5 7 3-.4 3.8-5.6 1.2-7.5-2.3-1.7-2.8-1.6-4.7.5"/></svg>