<svg xmlns="http://www.w3.org/2000/svg" width="666.7" height="1170.7" viewBox="0 0 500 878"><path d="M217.4 19.4c-1.2 3.1 4.3 6.4 6 3.7.3-.5 2-.6 3.8-.2l3.3.7v17.9l-4.5.3c-7.2.4-9 1-9 3.2s-.5 2.1 14.5 2.5l23.3.5c13.7.3 15.7-.1 15-3.6-.2-1.5-1.5-2-5.8-2.4l-5.5-.5-.3-6.5c-.5-10.2-.1-11 5.8-11 3.9 0 5.2-.4 6-1.9q1-2-.1-2.7c-.6-.3-12.5-.8-26.5-1.1-22.5-.4-25.5-.2-26 1.1m31.7 4.5c.3.1.5 4 .4 8.8l-.1 8.8-5.2.3-5.2.3V23l4.8.4zm104.4 63.4a52 52 0 0 0-15.8 9.6c-5 4.5-9.3 15.1-6.2 15.1q1.4 0 1.5-1c0-1.9 6.4-8.1 9.8-9.5 11.2-4.7 26.9 1.9 29.3 12.3.9 4.3-.2 11.2-2.5 14.7a29 29 0 0 1-12.9 7.5c-.7 0-2.2.6-3.3 1.4-1.5 1.2-1.6 1.7-.7 2.7s3.1.9 10-.5c9.4-1.8 11.2-2.7 17.5-8.4 7.7-7 11.1-18.9 7.6-26.9A34 34 0 0 0 374.5 89a34 34 0 0 0-21-1.7m15.9 5.8c16.2 6 19.5 29.2 5.6 39.4-6.6 4.8-9.3 4.7-5-.2q9.4-10.6 4-22.6c-2.4-5.5-9.9-12.4-13.7-12.6a78 78 0 0 0-16.3.5l-4.5.7 1.9-2.2c4.5-5 18.7-6.5 28-3"/><path d="M494.5 88.9c-7.5 2.4-8.6 3.3-13.5 11.1a357 357 0 0 1-28.6 42 95 95 0 0 0-8 10.7l-11.3 16.5a656 656 0 0 1-20 26.6c-7.5 9.6-14.3 18.3-15.1 19.6a677 677 0 0 1-14.9 20.6c-.7.5-5.3 6.5-18.1 23.5l-10.2 13.3c-2.1 2.6-3.8 5-3.8 5.4 0 .3-1.2 2-2.7 3.6a170 170 0 0 0-11.8 15.1l-6.2 8.4a37 37 0 0 0-4.3 6.3c0 .4-1.5 2.4-3.2 4.5l-7.3 8.9-6.6 8.4c-1.4 1.7-4.3 5.6-6.4 8.6s-4.4 5.9-5.1 6.5c-.8.5-2 2.6-2.8 4.6s-2.2 4.2-3.1 4.9c-1.4 1.1-2 .9-4.8-1.7l-6.3-5.1c-2.9-2-3.2-2.8-3.9-9.4-1.6-15.6-1.5-21 .5-23.8 1.8-2.6 1.8-2.8-.4-12.1a65 65 0 0 0-3.7-11.7c-1.7-2.7-7.5-6.6-8.8-5.8-.5.3-2.2-.1-3.8-.9-2.6-1.3-3.6-1.3-8 0-4.2 1.3-5.9 1.3-12 .1q-18.3-3.5-25.3 11.1c-3 6.4-3.5 11.1-1.7 15.5 1.4 3.2 1.4 3.8.1 4.9q-1.5 1.2-1.3 6.3c.1 2.8-.2 8.3-.6 12.3-.6 5.9-.5 7.7.9 9.7 1.6 2.5 1.6 2.6-3.5 6.6-2.8 2.2-5.4 4-5.7 4-.4 0-2-1.9-3.7-4.1a21 21 0 0 0-4.7-5q-1.7-1-1.8-2.2c0-.7-2.2-4-4.8-7.4a656 656 0 0 1-18.7-25.7 4380 4380 0 0 1-37.2-52.3L90 201.5l-7.9-11c-1.7-2.2-6.7-9.3-11.2-15.8a402 402 0 0 0-18.2-24.9 2512 2512 0 0 0-40.6-54.5c-1.3-1.9-5.4-4.1-6.7-3.6q-1.5.4 4.9 7.8c7.1 8.4 12.4 15.4 18.2 23.6 16.1 23 33.2 47 39.7 55.9a1995 1995 0 0 1 45.1 63.7l23.2 32.9 24.9 35.3 13.7 19.4c5.5 7.5 9.9 14.2 9.9 14.7s-.9 1.4-1.9 2c-2.2 1.1-3 .4-12.6-13.5l-13-18.4-23.3-32.9-11.1-15.7-8-11.5-11.3-16.5c-4.5-6.6-11.7-16.9-16-22.8s-10-14-12.5-18c-2.6-4-8.2-12-12.5-17.9a98 98 0 0 1-7.8-11.7q-.2-1-2-2.1-1.8-1-2-2.3c0-.7-1.5-3.1-3.3-5.4A1070 1070 0 0 1 24.8 126c-3.2-4.7-8.4-11.7-11.6-15.5-6.6-8-11.1-15.4-10.5-17.3q.4-1-1.1-1.2C.3 92 0 93.2 0 98.3c0 8 3.6 15.8 14.5 31.2a2509 2509 0 0 1 33.7 49L74.6 218c2.7 4.1 7.4 11.2 10.6 15.7s6.8 10 8 12.1a1479 1479 0 0 0 44.6 67.2c1 .7 7.2 9.9 7.2 10.6 0 .3 2.2 3.8 4.9 7.7 2.6 4 6.6 9.9 8.6 13.2 2.1 3.3 4.9 7.3 6.2 8.9 1.8 2.1 2.2 3.6 1.8 5.7-.5 2.2-.1 3.4 1.9 5.4a13 13 0 0 1 2.6 3.2c0 .3 1.6 2.6 3.6 5 4.3 5.2 4.5 4.7-7.2 14-11 8.7-11.4 10.1-3.9 17 3.1 2.9 6.4 5.3 7.3 5.3 1 0 4.1-2.1 7-4.6 5.4-4.8 6.2-4.7 3.7.3a39 39 0 0 0-2.1 10.6c-.5 5.8-1.1 7.8-2.3 8.2-.9.3-9.5.4-19.1.3-13-.2-19.8.2-26.5 1.4-23 4.3-28.8 5.1-35.9 4.5-5-.5-8.6-.2-12.1.8-2.7.9-8.7 1.8-13.4 2.1s-10.4.9-12.7 1.4-14 1.2-26 1.5C11.6 436 0 437.3 0 439c0 .4 7.6.6 16.9.6 11 0 17.4.4 18.2 1.1q1.5 1 19.7 1.1c15.3 0 18.4-.3 18.9-1.5q1.5-3.2-7.7-3.4l-5.5-.2 6.5-.7c8.1-.9 17.9-2.8 20.3-4.1q1.7-1 6.7.7c3.2 1.1 7 1.5 10.5 1.2 4.3-.4 5.5-.2 5.5.9s.8 1.3 3.3.8q3.4-.8 2.1.4c-.6.7-7.7 1.3-19.3 1.6-10.1.3-18.7.8-19.2 1.1q-.8.6-.9 2c0 1.3 6.2 1.4 52 .9 51.7-.7 52-.6 52 1.4 0 1.1-.4 3.1-1 4.5-1.6 4.4 7.5 29.1 11.6 31.4q2.1.9-1.6 1.5c-3.6.8-3.6 2.8.1 3.8q4.7 1 4.9-1.6-.2-1.5 2.8-.6c1.5.4 3.2.6 3.8.4s2.4.1 3.9.7c2.7 1 2.8 1.1 2 6.8-.4 3.1-.7 7.3-.6 9.3.1 2.6-.5 4.1-2.4 5.9-2.8 2.6-3.1 5.3-1.3 11.1 1 3.6.9 4.4-2.2 10.3-2.3 4.7-4.1 6.8-6.2 7.7-2.4 1-3.1 1-3.8 0-1.1-1.8-5.4-.9-5.8 1.1q-.6 1.9 2.2 1.8c3 0 3 0 1.5 3.7a16 16 0 0 0-1 5.8 21 21 0 0 1-2.6 8.2c-2.2 4.1-2.6 5.7-1.7 7 .9 1.4.5 2.1-1.9 3.8-5.6 3.8-6.8 6.4-7.4 16.4l-.6 9.3-4.6 3.6c-2.5 2-7 6.1-9.9 8.9a36 36 0 0 1-6 5.3c-.4 0-2.8 1.9-5.4 4.2l-4.7 4.3.2 10 .2 10.1-5 .1q-5.3.3-2.9-.7c2.5-1 3.9-2.8 2.9-3.8-.3-.4-3.3-.5-6.5-.4-5.1.3-5.8.1-5.6-1.5.1-1.7-1.3-1.8-21-1.9-21.2-.1-26.8-.6-30.8-2.6l-3.5-1.8a3 3 0 0 1-1.8-1.7q-.4-1 16.9-.9c16.8.1 17.3 0 17.6-2s.9-2.1 9.2-1.9c9.5.2 11.6-.4 10.7-2.9-.6-1.4-2.1-1.6-11.1-1.1-8.7.5-10.5.3-10.9-1q-.7-1.4-2.2-1.5c-2.5 0-1.7-1.8 1-2.2 4.2-.5 2.8-2.3-1.7-2.3-3.6 0-4.3.3-4.1 1.9.1 1.8-.7 1.8-18 1.2a601 601 0 0 1-29.9-1.5c-5.1-.1-6.8-.5-6.8-1.5 0-3.5-3.4-5.6-9.3-5.7-10.2-.3-6-1.5 6.1-1.7 7.2-.1 11.2.1 10.3.7s-1.1 1.6-.8 2.4c.5 1.3 3.7 1.5 22.2 1.4 12.8 0 21.8-.5 22.2-1q.4-1-1.2-2.3c-1.2-.9-4.8-1.2-13.1-.9-11.5.5-16.6-.4-16.2-2.7q.2-1.2-3-1.6c-2.8-.3-3.1-.6-2.6-2.7.5-2 .1-2.5-2-3.1-3.7-.9-5.9.2-5.3 2.7.5 1.8.1 2-4.6 1.9-2.9-.1-6.1.1-7.3.5q-2 .6-3.3-.9c-1.1-1.3-.8-1.6 2.1-2 1.8-.3 4.9-.7 6.8-.8q3.4-.4 3.2-1.6c-.2-1.4-1.6-1.3 23.9-1.7 21.8-.2 26.3-1 22.5-4-1-.8-3.8-1.4-6.1-1.3a150 150 0 0 0-22.8-1.6c-9.2-.3-17.5-.9-18.5-1.5a45 45 0 0 0-17.5.4c-1.6.7-1.8.4-1.5-2.1.3-2.7 0-2.9-4.2-3.6-5.4-1-7.1-.5-6.7 1.9q.1 1.7-.8 2c-.5.2-1-1.1-1-2.8q-.2-5.7-7.2-5.9c-4.5 0-4.2 2.1.8 4.4 2.2 1 3.8 2.3 3.6 3q-.6 1-1.8.7c-4.8-1.3-5.9-1.3-5.9.3 0 1.9 5.1 4.7 10.5 5.7l10.2 1.9q6.3 1.2 9 .3c5.8-2 7.3 1 1.8 3.3-2.6 1-6.6 1.4-13.8 1.2-9.1-.2-10.6 0-13.9 2.1q-4 2.3-3.8 4.7v2.4l4.4-2.5c2.5-1.4 5.3-2.5 6.4-2.5 3.3 0 8.2 3 8.2 5.1 0 2.3-1.5 2.5-2.4.4-.3-.8-1.6-1.5-2.9-1.5-1.4 0-3 .7-3.7 1.5S8.1 602 7.4 602q-1.3 0-1.4 1c0 .5-1.3 1.6-3 2.5l-3 1.6v81.4h22.3l76.2-.4 53.9-.4.9 3.3c.4 1.8.6 3.4.3 3.7s-32.6.5-71.8.4-73.7.2-76.5.5c-4.1.5-5.3 1-5.3 2.4 0 1.6 3.9 1.7 65.8 1.6 36.1-.1 70.7 0 76.9.2l11.2.4.5 3.6c.3 2.1.8 8.6 1.2 14.7s.9 11.3 1.2 11.7c.4.4 8.8 1 18.7 1.3l20.9.8c2.1.2 3.4 1 4.6 3.2q1.7 2.8 4.8 3.7c4.1 1.1 3.5 2.2-2.6 4.4-6.4 2.4-9.7 6-8.4 8.9.9 1.9 2.1 2.3 9.1 2.9 9.7.8 9.4.8 29.7-6 15.7-5.2 16.1-5.3 22.3-4.3 7.5 1.2 13.3.5 21.6-2.4s18-2.9 22.1 0c1.7 1.2 7.3 4.3 12.4 6.8 10.3 4.9 16.1 5.7 22.5 3.1 4.4-1.9 4.8-5.6.9-8.3-1.4-1-3.3-2.5-4.1-3.4-9.4-10.1-9.3-10.2 8.7-10.7 8-.2 14.8-.7 15.2-1 1.2-1.3-.4-10.2-1.8-10.2q-1.3.2-1.4 1.9c0 4.9-.5 5.1-13.1 5.1-6.5 0-11.9-.4-11.9-.8 0-.9 7.9-6.5 12.6-9 2.9-1.6 3.1-4.4.8-9.8-2.5-5.9-4.4-17-4.4-25.9 0-5.1-.5-8.6-1.2-9.3-1-1-1-1.7-.1-3.1.7-1.1 1-4.7.8-9-.3-6.4-.2-7.1 1.5-7.1 1 0 2.2-.4 2.5-1s2.5-.8 4.8-.6l6.2.5c2 .1 2 .8 2 31.4 0 17.1.4 31.8.9 32.4 1.7 2.5 2.3 1.2 3-6.4a36 36 0 0 1 1.1-8.1c.3-.3 31.7-.6 69.8-.7s70-.3 71-.4q1.5-.1 1.7-1.5c0-2-9.5-2.4-61.5-2.7a3501 3501 0 0 1-66.6-.8l-15-.1.3-2.8.3-2.7H395c87.3-.1 105-.4 105-1.9 0-1.2-3.1-1.5-18.7-1.5l-30.8-.2-12-.2 11-.8c6-.5 12.3-1.4 14-2.1 1.6-.6 7.5-1.5 13-2 21-1.7 23-2.1 23.3-4.5s-1.1-3-8.1-3.5c-5.9-.5-4.8-2.2 2.1-3.2 6.2-.9 6.2-1 6.2-4.3V661l-5.2-.1h-6.6c-.6.1-1.7-.9-2.3-2.3-.7-1.4-3.4-3.7-6-5.1q-13-6.7-20.4 4.9c-3.2 5.1-4.4 5.6-14.3 5.6-6.6 0-7.4.2-7.9 2.1-.5 1.8-1.1 2-5.2 1.5-7.5-1-24.9-1.2-25.7-.3-1.3 1.2 1 2.7 5.7 3.7 4.1.9 3.9.9-1.6.4a20 20 0 0 1-7.2-1.6c-.7-.5-5.5-.8-11-.7s-15-.1-21.4-.5c-9.1-.7-11.8-.6-12.4.4q-.7 1.3.9 2.5c1.5 1.2 1.5 1.3-.4 1.8s-2 .1-2-7.8c0-4.6.5-9.6 1.2-11 1-2.2 1.7-2.5 5.9-2.5 4.9 0 7.2-1.5 4.8-3.1-.8-.5-3.5-.8-6.2-.7-2.6.2-4.7.1-4.7-.1s1.3-1.8 2.9-3.6c5.3-6.1 7.1-21.1 3-26.1-.4-.5-.6-1.9-.3-3q.9-3.3-11.2-15.5c-5-5-7.4-8.6-8.8-13.2q-.5-1.4-7.7-2.1c-4-.3-7.5-.9-7.8-1.2s-.5-4.3-.4-8.7c.3-9.4-.7-13-5.4-20.4q-4.6-7.3-8.2-7.3c-1.8 0-1.2 2.6.9 4.5 3.4 3.1 2.2 3.6-2.6 1-2.6-1.4-5.1-2.2-5.6-1.9s-3.7.5-7.1.5c-8.5-.1-14 2-21.9 8.2l-9 6.8q-2 1.6-1.6 2.4c.9.9 6.7-2.2 11-6.1 2.1-1.8 5.9-4.4 8.6-5.8 4.3-2.2 5.9-2.4 15.1-2.2l10.4.2 4.1 4.5c2.3 2.5 4.9 4.8 6 5.2 1.6.7 1.8 1.5 1.2 8-.4 3.9-.3 8.5.1 10 1.1 3.7.4 11.5-.8 9.6-.5-.8-.9-2.6-.9-4.1s-.7-3.4-1.6-4.2q-1.4-1.5-.9-2.6c1.1-1.8-5.9-8-11.8-10.4-6.4-2.6-10.9-2.3-11.5.7-.3 1.5.2 1.7 3.6 1.1 5.5-.9 12.5 2.3 15.3 7 1.2 2 2.6 3.6 3.1 3.6q1 .2.5 2c-.7 2.8 1.1 9 2.9 9.7 1.1.4 1.4 3.2 1.4 14.2a309 309 0 0 0 3.5 47.6c2.8 14 3.3 16.1 4.3 19 .6 1.6 1.6 7.6 2.2 13.2s1.9 13.1 2.9 16.7l1.8 6.5-4.6 2.4q-7 3.5-7.1.5.1-1 1.4-.5c2 .8 5.1-1.7 4.1-3.2-.4-.7-1.6-1.1-2.6-.8-2.8.8-3.2-.9-.8-3.2 2.8-2.5 1.7-4.2-2.4-3.5-3 .5-3.1.4-1.3-1 1-.8 2.4-1.7 3-1.9q1.2-.3-.1-2.5c-1-1.6-.9-2.1.2-2.6q1.3-.6 1.5-1.6c0-1.5-6.3-1.2-8.5.3-2 1.5-1.3 3.7 1.2 3.7q1.8-.2.3 1.5a4 4 0 0 0-.5 3.4c.9 2.8 1 24.9.1 25.8-.4.4-3.5 1.1-6.9 1.4-3.4.4-8 1.2-10.2 1.9a87 87 0 0 1-9.5 2 146 146 0 0 0-25.5 5.4c-8.2 3.5-25.6.6-33.7-5.6a27 27 0 0 0-7.8-4.3c-3.6-.8-9.7 1-12.6 3.7-1.9 1.7-2.6 1.7-6.6.7l-4.4-1.2-3.8-20.1c-2.2-11.1-4.3-24.6-4.8-30.1s-1.3-11.4-1.9-13c-.6-1.7-1.3-7.5-1.6-13s-.9-10.7-1.4-11.6-1-4.5-1.3-8l-1.2-14.4c-.6-8.2-1.7-11.5-3.6-11.5q-1-.2-.5 8.1c.3 4.4.3 7.8 0 7.5a159 159 0 0 1-2.2-23.1c.4-4.8.1-7.3-1.6-11.5a31 31 0 0 1-1-18.6c.7-1.8 2.7-4 4.3-4.8 3.3-1.7 4.6-5 2.7-6.6-1-.8-1.1-1.8-.3-4 1.1-3.2 5.7-6.4 10.9-7.5a12 12 0 0 0 5.1-2.3c1.4-1.1 3.2-1.3 7.8-.9 5.5.5 7.5-.2 5-1.8a66 66 0 0 0-22.4 1c-2.8.8-2.9.7-2.2-2.1.8-3.1 3.3-6.4 4.9-6.4.6 0 3.1-1.3 5.6-2.9 6.5-4.1 10.1-4.6 17.7-2.5q12.7 3.5 5.1-4.1c-3.2-3.2-4-3.5-9.2-3.5s-5.6-.1-5-2.1q.6-2.1-2-7.4c-1.4-3-2.4-5.9-2-6.5 1-1.6 4.3-1.2 5.3.6a37 37 0 0 0 7.4 5.8c12.2 7.7 14.7 9.9 14.8 12.7 0 3.3 1.6 4.6 5.9 5.1 4.5.4 5-1.4.9-3.3q-3.2-1.4-3.6-3.5c-.2-1.3-2.6-3.8-6-6.2-3.1-2.2-6.6-5-7.7-6.2a24 24 0 0 0-5.7-4.1c-5.1-2.6-6.8-5.6-7-12-.1-6.4 1-13.7 2.3-14.5.5-.3.9-1.5.9-2.8 0-2.1 2.1-4.8 4.5-5.7a74 74 0 0 0 17.8-13.4c5.1-6.1 6.7-5.9 6.8.7l.4 7.3.3 6a15 15 0 0 0 1.2 5.5c2.8 4.2 3.2-6.9.9-21.5-.8-5.6-.8-6.1 1.3-7.8 2.2-1.9 2.3-1.9 3.8.3q4 5.9 10.9 9.1c2.5 1.2 5.7 3 7.1 3.9 1.4 1 3.9 2.1 5.6 2.4 1.7.4 4.1 1.8 5.3 3.1 1.1 1.4 2.9 2.5 3.9 2.5 1.1 0 3.5 1.6 5.5 3.5 3.1 3 3.4 3.6 1.9 4.4s-1.5 1.1-.1 2.8c1.6 1.8 3.4 7 3 8.7-.1.4.5 1.9 1.4 3.3 2.4 3.6 1.5 7.4-2.2 9.8-3.4 2.2-7.8 8.9-6.8 10.5s2.5 1.2 2.5-.4c0-.8 1-2.7 2.3-4.2 2-2.2 2.8-2.5 5.6-1.9 3.9.8 5 3.1 2.5 5-2.3 1.6-1.2 3 2.4 3 2.1 0 2.8.6 3.5 3.5 1.5 6.1 2 10.3 1.1 9.8l-3.7-1.8c-2.5-1.2-3.2-1.2-6.3.5-3.6 1.9-4.4 4.5-1.9 6.5 2.1 1.8 4.8.5 4-2q-1-3.4 3.5-1 1.8 1 1.3 3c-.4 1.5.2 2.2 2.1 3q2.4 1 2.2 1.9c-.9 1.3 4 5.3 6.1 4.9 2.3-.5 2.2-6.1-.2-8.8-.9-1-2.1-4.4-2.6-7.6l-1.5-9.3c-.7-3.5-3.9-9.1-7.1-12.4a9 9 0 0 1-2-5 68 68 0 0 0-5.6-21.8c-.5-.4.8-1 2.9-1.4 6.2-1.1 7.1-2.1 11.8-11.8 5.3-11.1 6.6-15.6 6.6-22.5 0-5 .1-5.2 2-4.2 1.1.6 2.4.9 2.8.6 2-1.2 18.4-1.6 67.2-1.4l57 .1c29.1-.2 47.3-.5 51.3-1l4.7-.5v-5.1c0-5.2 0-5.2-4.3-7-2.3-.9-5.6-1.7-7.2-1.7-3.5 0-19.9-3.4-23.5-4.8a55 55 0 0 1-7.9-4.6c-6.4-4.4-11.5-4.7-24.2-1.5a33 33 0 0 1-13.9 1.3 97 97 0 0 0-29.6.9c-2.7.9-8.8 1.9-13.6 2.3l-8.6.6-5.7-3.7c-11.9-8-17-8.3-29.2-1.9-4.8 2.5-9.1 5-9.4 5.6q-.6 1-1.3-.1c-.4-.6-2-1.1-3.5-1.1-2.8 0-2.9-.2-3.9-7.2-.6-4-.9-7.4-.7-7.7q.6-.2 2.3 1.2c1 1 2.4 1.7 3 1.7 1.8 0 9.2-8 10.7-11.6 1.9-4.5 1-6.8-3.8-10.1a78 78 0 0 1-7.5-5.8l-3.3-3.1 2.5-3.4a916 916 0 0 0 16.3-23.2l14.4-20.5c12.9-18 39.8-58.3 42.4-63.3 1-1.9 2.3-3.8 3-4.2.6-.4 6-7.8 11.9-16.5l15.3-22.3a972 972 0 0 0 29.3-43.4c5.3-8.8 5.2-8.7 18.1-27.1 3.1-4.4 6.8-10.3 8.3-13 1.4-2.8 4.9-7.9 7.5-11.5 2.7-3.6 7.3-10.3 10.3-15 4.7-7.6 5.3-9.2 5.6-15.1.6-9.9.6-9.8-5.3-8m.5 3.7c0 .3-.9 1.8-2 3.2-2.1 2.7-3.7 5.1-20.5 29.7a3088 3088 0 0 0-34 49.2c-5.5 8.1-16.7 23.9-25 35.2l-21.2 29-18.5 25.4-22 30.5-20.1 27.7-15.2 20.6-4.8 6.6-3.3-1.9c-2.9-1.7-3.2-2.2-2.1-3.7l43.4-57.6c6.8-8.9 13.6-18 21.3-28.5l28.9-39 14.5-19c2.4-3 7-9.3 10.3-14 11.7-16.8 35.5-49.5 47.3-65 2.7-3.6 12-17.7 15.9-24.2 1.2-2 2.7-3.9 3.4-4.2 1.7-.7 3.7-.7 3.7 0m.2 9.5a92 92 0 0 1-13.5 21.7c-4.4 5.9-9.1 12.7-10.5 15.2a74 74 0 0 1-5.3 8 73 73 0 0 0-4.6 6.6c-2.6 4.4-24.8 37.7-34.8 52.4l-11 16-13.2 19.3-17.1 25.5c-3.4 5.3-7.1 10.6-8.1 11.7-2.3 2.5-23.7 32.5-35.2 49.5-16.8 24.5-19.2 28-19.9 28-.4 0-1.7-1.1-2.9-2.4l-2.3-2.5 2.8-3.9 9.6-13.3 12.3-16.9 14.4-20c8.4-11.7 24.1-33 27.6-37.5 3.4-4.3 13.2-18.3 16.5-23.5 1.9-3 5.5-8.2 8-11.6l14.8-20.5 16.8-23.4c3.6-5 10.5-15.1 15.4-22.5 4.8-7.4 9.9-14.9 11.3-16.5 1.3-1.7 3-4.1 3.7-5.5s2.7-4.1 4.4-6.1 4.6-6.1 6.4-9l5.1-7.9c1-1.4 3.8-5.5 6.1-9.2 2.4-3.7 4.5-6.6 4.7-6.4s-.4 2.3-1.5 4.7M14.9 119l10.7 15.6L42 158c7.3 10.6 12.1 17 12.9 17 .3 0 2.1 2.6 3.9 5.7A105 105 0 0 0 67 193c2.7 3.6 10.1 14.1 16.5 23.5a2684 2684 0 0 0 37 53.4c2.5 3.9 12.8 19.2 17.4 25.6A1770 1770 0 0 1 164 333q5.9 8.4 5 9.4c-1.6 1.6-1.1 2.8.9 2.1q1.8-.7 3.5 2.1c1.7 2.4 1.7 2.7 0 4.5-.9 1-2.1 1.9-2.5 1.9-.7 0-7.6-9.9-21.9-31.6a2485 2485 0 0 1-29.5-45.1c-2-3.4-21.9-32.9-32-47.3-5.5-8-11-15.9-12.1-17.7s-5.9-9.1-10.9-16.3a289 289 0 0 1-11.8-18.3 48 48 0 0 0-5.2-7.7c-2.3-2.5-4.9-6.3-25.3-36.5a362 362 0 0 0-13.4-19.1c-1-1.1-2.7-3.8-3.8-5.9-1.9-3.7-1.9-3.7.1-1.9 1.1 1 5.5 7 9.8 13.4m237 189.9c2.4 3.3 1.9 4.1-2.5 4.1-4 0-4.7-1-3.4-4.4q2-5.1 5.9.3m12 9.7c7.7 2.4 10.4 6.6 5.6 8.4-1.4.5-10.8 1-20.8 1s-21.1.2-24.7.6c-5.5.5-6.2.4-5.2-.8.6-.8.9-1.8.6-2.1-.9-.9 2.2-3.7 4.1-3.7q1.7 0 1.1-1.5c-.6-1.7.6-2.1 10.4-3.3a92 92 0 0 1 28.9 1.4M252 332.4c4.1.1 8.9-.3 10.7-.7 3-.8 3.3-.6 3.9 1.9.9 3.4-1 10.8-3.5 14-1.4 1.8-1.8 3.4-1.4 6.4.5 3.5.3 4-1.1 3.4q-1.7-.6-4.1 2a8 8 0 0 1-4.9 2.6c-2.7 0-4.3-1.5-2.6-2.5.5-.3 1-1.5 1-2.5 0-1.7.3-1.8 3.1-.8 3.3 1.1 5.7 0 4.4-2.1-1-1.8-7.4-4.1-11.1-4.1-1.8 0-3.6-.5-3.9-1q-.7-.9-1.7-.4t.3 1.5q1.7.8-.4 1.5a4 4 0 0 1-3.3-.7q-2-1.9-1.3.6c.3 1.1 1.9 2.7 3.6 3.5s3.3 1.9 3.4 2.5q.6 3.5 2.5 3.5 1.3.1 1.4 1.1c0 .6-1 .9-2.2.7q-2.1-.4-2-1.6.1-1-.8-1.2-.9.2-1 1.2-.1 1.3-1.3-.2c-.7-.9-2.6-2.6-4.3-3.8-3.3-2.3-5.2-7.2-2.8-7.2q1.3-.1 1.4-1.1-.2-1-2.1-.6c-1.5.4-2.2-.1-2.9-1.8a7 7 0 0 0-2-3c-1.7-1-3.2-5.6-2.6-8 .7-2.7 7.6-3.3 7.6-.7.1 1.5.2 1.5 1.1-.1 1.6-2.8 3.1-2 2.4 1.3q-.6 3 .4 3t.9-.8c-.3-1.2 1.4-5.7 2.6-6.4.6-.4 2-.5 3.1-.1s5.4.7 9.5.7m-32 16q0 .5-1 1.1-.9.4-1-.4.1-1 1-1.1 1 0 1 .4m-32 1.6c-2 1.3-3.3 1.3-2.5 0 .3-.6 1.4-1 2.3-1q2.2-.1.2 1m125.3 5.8c3.1 2.3 5.7 5 5.7 5.9q0 1.6-4.8-2.9a29 29 0 0 0-8.8-5.8c-5-1.6-5.5-2-4.9-3 .8-1.3 6.7 1.3 12.8 5.8m-90.8 2.2c1.5 1.6 1.7 2.5.9 3.8-.6.9-9 7.5-18.7 14.7a550 550 0 0 0-26.1 20.4c-8.3 7-11.6 8.4-11.6 4.7 0-.8-.7-1.9-1.7-2.4q-1.5-1-1-2.5c.6-1.6 18.8-17.3 34.5-29.7l14.6-11.7 5.1-4.1 1 2.3c.6 1.3 1.9 3.3 3 4.5m54.4-4.6c1.5 1.3 9.4 7.1 17.6 12.9s17 12.3 19.5 14.4c2.5 2.2 6.2 5 8.3 6.2 4.4 2.7 4.6 3.9 1.1 8l-2.5 3-3.7-3.3a133 133 0 0 0-22.9-17.7 71 71 0 0 1-17.3-12.3 84 84 0 0 0-7.5-6.2c-1.9-1.1-1.9-1.3 1-4.3a25 25 0 0 1 3.4-3.1c.3 0 1.6 1.1 3 2.4m-96.9.6q-.2.9-1.5 1c-1.3.1-1.5.4-1.5 1q0 .9-1.2 1-.9-.2.7-2c2-2.2 3.5-2.6 3.5-1m16.3 2.7c3.2 4.2 3.3 5.4 1 7.6-4 3.5-13.8 9.5-14.7 8.9q-.9-.5.2-1c2-.6 1.3-2.2-1-2.3h-2.3l2.3-1.6 2.2-1.6-2.9-2.6-3-2.6 6.2-4.3a26 26 0 0 1 7.7-4.1c.8 0 2.7 1.6 4.3 3.6m50.4-1.1q-.6.5-1.9.1-1.1-.5.6-.6t1.3.5m57.3 1.2q3.5 1.8 3.5 3.8c0 1.1.6 2.8 1.4 3.7 1.2 1.5 1.1 1.7-.3 1.7-2.4 0-1.9 1.8 1.2 4.5 4.5 4 .1 3-5.4-1.3l-6.8-4.8c-2.8-1.5-2.9-2.5-.6-6.2s2.3-3.7 7-1.4m-43 7.7c0 5.5 2 8.8 7.1 11.7 2.1 1.1 4.1 2.8 4.4 3.6.6 1.5-2.4 4.4-3.7 3.6q-.8-.4-.8.4c0 .8-1.8 2.9-4.1 5.3l-4.1 4.4h-7.6c-8.4.1-10.2-.3-8.1-1.6q1.7-1-.3-.9-1.7-.1-1.8-1.3c0-.6-1.1-1.7-2.4-2.3-2-.9-2.6-.9-3 .2-.7 1.9-2.6 1.8-2.6-.1q0-1.3-.7-1.3c-.5.1-2.1-.6-3.6-1.6-2.4-1.6-2.6-2.1-1.4-3.5.8-.9 1.8-2.7 2.3-4.1.8-2.6.9-3.7 1.2-10.7.2-3.4.5-4 2-3.6 1 .2 2.7 1.8 3.6 3.5q1.8 3.1 2.9 1.9c.6-.6 2.4-1.1 3.9-1.1q3-.1 2.8 2c-.2 2.1.7 2 2.6 2q2.5 0 2.1-1.3-.5-1-2-1.1c-3 .3-.8-1.4 4.2-3.2 2.8-1 4.8-2.1 4.5-2.6-.6-1 .4-2.8 1.7-2.8.5 0 .9 2 .9 4.5m14 5.5c2.5 2 5.3 4 6.3 4.3 2.6 1 2.1 3.7-.7 3.7-2.5 0-12-7-13.6-10-2.8-5.2.2-4.4 8 2m-49 0c0 3-.5 4.3-2.2 5.4-3.7 2.4-7.9 3.1-8.9 1.5-.6-1 .6-2.7 4.4-6.1 2.8-2.6 5.5-4.7 6-4.8s.7 1.8.7 4m-13.1 11.1c1.3 1.7 2.2 3.1 2 3.3s-2.5 1-5 1.8c-7.7 2.6-11-1.6-4.6-5.9 4.2-2.8 4.7-2.8 7.6.8m77.6.4c2.9 2.5 2.9 2.5.5 2-2.2-.5-2.5-.3-2.6 2.5-.1 1.7-.4 3.3-.7 3.7-1.1 1-6.7-1.9-6.7-3.5 0-1.5 4.7-7.2 5.9-7.2.3 0 2 1.1 3.6 2.5m-14.3 3.7q-1.1 1-1.2.2 0-1 .7-1.7t1.2-.2q.3.6-.7 1.7m-48.4 4.5c1.3 1.4 2.1 3.1 1.8 3.9q-.5 1.3 1 .7 1.4-.5 1.4 1.4c0 1.1 1.4 3.2 3 4.8 4.8 4.6 3.5 9.9-3.3 13.6-1.4.8-1.9.5-2.7-1.6-1.1-2.8-2.4-3.1-6-1-1.4.8-3.2 1.4-4 1.4q-1.2-.1 1.3-1.1c1.6-.6 3-2 3.3-3.4q1.3-4.6-2.5-2.4c-2.4 1.2-2.8-.1-.7-2 1.7-1.4 1-4-1.1-4q-1.6.2-.8-2.8c.5-2.6.3-2.9-3.1-4-3.7-1.1-3.9-1-8.2 2.8-.9.8-3 1.4-4.5 1.2l-2.8-.3 2.3-2.5c1.3-1.3 2.8-2.4 3.3-2.4 1.3 0 12.4-4.5 13.2-5.4 1.3-1.3 6.8.6 9.1 3.1m68.9-1q2 .5 1.7 1.4c-.9 1.5-3 1-5.5-1.2q-3-2.5-.4-1.4c1.1.4 3 1 4.2 1.2m-19.2 3.4c2.2.7 5.1 1.4 6.4 1.5 2.8.3 5.4 2.4 3.1 2.4-.8 0-2.7.7-4.2 1.4q-2.8 1.5-2.8.4 0-1-.5-.7c-1 1.1.8 5 2.1 4.5q1.3-.4 1.4.3c0 .5 1.9.5 4.1 0q6.9-1.6 4 1.4c-.7.7-4 1.2-8.2 1.2-5.4 0-6.9-.3-6.9-1.5q0-1.8-1.1.3c-.6.9-.7 2.6-.4 3.7.5 1.5-.6 3.1-4 6.5-6.3 6.1-11.5 7.3-11.5 2.5q0-3-4.4-.3-1.8 1-.7 1.7c1.6 1 1.4 2.6-.4 2.6-4 0-.2-7.9 3.9-8.1q3 .1-.1-.9c-1.3-.5-2.3-1.5-2.3-2.1 0-1.3 3.8-4.9 5.1-4.9.5 0 1.8-1.9 2.9-4.3 5-10.1 7.4-12.8 9.4-10.3.6.8 2.9 2 5.1 2.7m-36.9-.4c-1 1-1.9-.5-1-1.8q.8-1.7 1.2 0 .3 1.2-.2 1.8m-2.6.3q0 .9-.4 1-.6-.1-1.1-1-.4-1 .4-1 1 0 1.1 1m68 6c3.3 6.5 4 12.3 4.1 35l.1 21.9-3.1 6.8c-5 10.6-7.5 13.3-12.1 13.3q-4 0-5.3-2a14 14 0 0 0-4.3-3.4c-1.6-.9-2.9-2.4-2.9-3.3q-.1-1.7-1.5-2c-7.6-1-9.1-1.5-8.9-3.1.3-3.4-.1-5.1-1.7-6.6-1.4-1.4-1.8-1.4-4.4.6-2.6 1.9-3.2 2-6 .8-3.3-1.4-8-6.7-8-9.2 0-.8 1.1-2.5 2.5-3.8 3.1-2.9 3.3-5.7.3-6.2q-2-.4-2.6-1.7c-.4-1.1.3-1.2 3.3-.7 3.4.7 4.1.4 7.6-3 2.4-2.3 3.9-4.7 3.9-6.2q0-2.1.8-2l3.7 1.7c15.8 7.2 18.8 9.5 19.9 15.4.6 3.6 1.4 4.7 3.3 4.7 1.2 0 1.4-.7 1-3q-.8-3.2.8-3c3.2 0 1-6.7-3.7-11.4-.9-.9-1.5-2.3-1.2-3s-.5-2.1-1.7-2.9c-2.4-1.7-5.3-.9-7.5 2.1-.9 1.3-1.5 1.2-4.2-.8-3.6-2.6-4.4-1.6 6.5-7.4 5-2.6 11.3-9.5 11.3-12.2 0-.7 1-2.5 2.3-4.1s2.7-3.6 3-4.6q1.2-3.7 4.7 3.3m-10.2-2.8c-.5 1.5-6.8 2.4-6.8 1q-.1-2.2 4.3-2.2 2.8 0 2.5 1.2M198 397q-.1.9-1.1 1-.8-.1-.4-1 .6-1 1.1-1 .3 0 .4 1m14 3.5q0 2.6-6.7 3.8-5.6 1-1.4-2.5 2-1.7 2.4-.5.4 1.3 2.3-.6 3.4-3.2 3.4-.2m4-.5q-.1.9-1.6 1-1.3-.1-.9-1 .6-1 1.6-1 .8 0 .9 1m39.4-.1c-.2.2-2.6 1.1-5.2 2-5.1 1.7-7.2 1.7-7.2-.1q.2-.9 1.5-.4 1.5.4 2.1-.7.6-1.3 4.9-1.3c2.4.1 4.1.3 3.9.5m-62.6 2.8c.4 2.4 5.5 7.3 7.7 7.3.7 0 2.7 1.4 4.4 3.1s3.5 2.7 4.1 2.4c1.4-.9 7 1.7 7 3.2q-.2 1.2-2.3 1.3c-3.1 0-13.1 6.1-13.5 8.3-.5 2.4 1.1 2.1 6.2-1.3 4.8-3.3 10-4.8 11-3.2.3.5-1.6 1.9-4.3 3-8.6 3.6-18.3 14.5-16.7 18.8.8 2.2 2.5 1.7 3.8-1.2l1.3-2.7 1 4.4q1.1 4.3 2.8 4.7c1.5.3 1.7-.5 1.5-6.1-.2-7.1 1.2-10.4 5.7-13.3q4.7-3.2 2.5 2c-1.2 3.4-.8 4.2 2.6 5q4.4 1.3 4.4-4.1c0-1.2 1.1-3.5 2.5-5 2-2.2 2.6-2.5 3.4-1.4 1.3 2.1 3.8.7 4.4-2.6.7-3.6-1.5-6.3-4-4.7-1.3.8-2.2.6-4-.9-3.1-2.8-2-3.9 2.2-2.1 1.9.8 4.6 1.2 5.9.8 1.9-.4 2.7 0 4.2 2.5q4.5 7.6 4.1-1.2c-.2-4.9-.1-5.2 2.5-5.5 2.4-.3 2.7.1 3.3 3.8.4 2.3 1.7 5.1 2.8 6.4 2.4 2.5 9.1 5.1 10.7 4.1q.9-.4 1 .9c0 1.7-3 2.7-7 2.4-5.2-.4-7.6.3-9.4 2.8s-1.8 2.6.9 5.4l2.7 2.8-2.7 3.6c-1.5 2-3.1 3.6-3.5 3.6-.5 0-3.5 2.2-6.7 4.9a100 100 0 0 1-8 6c-1.3.6-2.3 1.8-2.3 2.6s-1.9 2.4-4.1 3.6a72 72 0 0 0-9.8 6.5c-7.1 5.6-10.5 5.8-15.9 1a38 38 0 0 1-9.3-15.1c-.5-1.7-1.2-10.4-1.4-19.5-.3-9.1-.8-17.7-1.1-19.1a26 26 0 0 1 3.6-14.7c1.1-1.3 2-3.3 2-4.4 0-2.7 3.4-1.9 3.8.9m24.2 4.2c0 1.2-8.1 5.2-9.2 4.5-1.4-.9-.9-2.4 1-2.4.9 0 2.6-.7 3.6-1.5 2.2-1.7 4.6-2 4.6-.6m64.7 3.5q-1 2.4-4.1.3c-1.7-1.3-1.6-1.4 1.3-1.4 1.7 0 3 .5 2.8 1.1m67.8 3.8q4 1.8 1.3 3.4-1.1.6-1.6-.5-.4-1.7-1.2 0c-1 1.5-5 2-4.7.5q0-1-1.5-1.4-1.6-.3-1.8 1c0 .7-1.1 2.6-2.5 4.3q-2.6 3.1-1.8 1a12 12 0 0 1 1.7-3.4q1.2-1.5-.1-1.8c-2.1-.7-1.5-2.1 1.5-3.1 3.7-1.4 7.6-1.4 10.7 0m103 3.5c.5 1.3 2.2 2.4 4.1 2.8s3.7 1.1 4.3 1.9c1.4 1.6 8.6 3.3 23.1 5.4 11.2 1.7 11.5 1.8 11.8 4.3l.3 2.7-19.3.7c-15.4.6-63.4.2-103.5-.9-4-.1-5.3-.5-5.3-1.6q0-2-.9-.1c-1.1 1.8-9.1 2.7-9.1 1q0-1.3-1.3 0c-1.5 1.2-25.4 1.4-24.1.1 1.8-1.6 5.4-2.2 5.4-.9q0 1.2 2-.7c3.7-3.7 4.9-4.4 6.4-3.8q1.5.6 1.6 1.5.1.7 1.5.3 1.5-.6 1.5 1.2-.2 2.3 1.9-.9 1.9-3 2.4-1.5t1.7-.2q1-1.3 1.6-.5c1.4 3.3 2.3 3.9 3.7 2.7.8-.7 2-2.6 2.7-4.3q1.3-3 2.3-2t2.7-1.1 2.4-1q.5 1.1-.3 1.2-1 0-1.1 1.2c0 .6 1.1.1 2.4-1.1 2.6-2.5 4.1-2.6 10.9-1.2 2.6.6 8 1.3 12 1.6 9.1.6 13.1 1.4 13.5 2.6q.4.8 1.5.2c.7-.4 8.1-.8 16.5-.9l15.4-.3-.5 2.7q-.9 3.5.8.9c1.1-1.5 1.7-1.6 3.9-.6 1.4.7 2.9.9 3.2.6.8-.8-1.5-3.7-2.9-3.7-.6 0-1.9-.8-3-1.7-1.9-1.8-10.3-2.3-20.7-1.5-3.6.3-13.9-.4-19.9-1.4q-3.7-.5-2.1-1.4 1.4-.7 2 0c.3.5 1.8.3 3.3-.5s2.7-1 2.7-.4.9.7 2 .4q1.8-.5 2 .4c0 1 5 .8 12.8-.5 2.6-.4 3.2-.2 2.6.8q-.5 1 1.3-.5a7 7 0 0 1 3.9-1.7c1 0 2.8-.7 3.9-1.6q1.9-1.5 7.5-1.2c4.5.3 5.7.7 6.5 2.5M350 419.4q0 .5-1 1.1-.9.4-1-.4.1-1 1-1.1 1 0 1 .4m49.5.6q.4.9-.9 1-1.5-.1-1.6-1 0-1 .9-1t1.6 1m-76.5 4.4c-.8 3.8-.5 4.7 1.5 4q1.2-.4 1.8 2.5c.8 3.7 2.8 4 5.1.8l1.7-2.2-1.2 2.5c-1.7 3.6-2.6 4-10.1 4s-7.2.2-7-7c.1-7.4-.1-7.1 3.7-6.4q3.5.6 3.5-.5 0-1 .9-1.1c.9-.1.5 1.5.1 3.4m-99.5-.4a2 2 0 0 1-1.2 1.7q-1.2.4-1.3-1.7 0-2 1.3-1.8 1 .6 1.2 1.8m138.5.4q0 .5-1 1.1-.9.4-1-.4.1-1 1-1.1 1 0 1 .4m-215 3.4q0 .8-1.2 2c-1.7 1.7-.2 2.8 1.7 1.2q1.6-1.6 1.5.4c0 2.2 1.7 2 2.5-.3a8 8 0 0 1 2.1-3.2c1.4-1.1 1.9-1 3.1.6q1.6 2 2 .7c.3-.6 1.6-1.2 2.9-1.2q2.3.1 2 .8t.5 2.2q.9 2 1.5-.8 1.2-3.7 2.9-1.2.7 1.2 2.1-.1t1.4.2c-.1 1.5.3 1 1.2.1q2.7-2.5 2.8.4.1 1.5 1.4 1.1c1.4-.6 2.9 3.9 1.9 5.6-.4.7-61.3.6-61.3-.1 0-.8 3.1-6.2 3.6-6.2s.3 1.2 0 2.7q-.9 3.6.7 1c3.3-5 3.8-5.3 3.1-2.5-.7 3.2 1.1 3.9 2.1.8q.6-1.8 1.5-2c.9-.2.7.7.4 1.5-.9 2.3 2.5 3.1 4 1 1.2-1.7 1.4-1.7 3.4.3l2.2 2.2 1.6-2.5c.9-1.4 2.3-2.5 3-2.5q1.3-.2 1.4-1.5c.1-1.3.5-1.5 1-1.5q1 .1 1 .8m-29 3.6q0 .5-1 1.1-.9.4-1-.4.1-1 1-1.1 1 0 1 .4m218 157.5q.2.9 1.8 1.5a13 13 0 0 1 4.1 4.3c1.4 2.1 4.2 5.6 6.2 7.8 5.3 5.7 12 14.8 11.3 15.4-.3.3-7.3.8-15.5 1.1l-15 .5-.6-2.5c-.4-1.4-.7-8.1-.8-15v-12.5l3-.6c4.5-1 5.5-1 5.5 0m-310 5.5q-.1.4-1.5 1-1.4.4-1.5-.4.1-1 1.5-1c1.4 0 1.5.2 1.5.4m151.7 6.1c-.4 2.4-.2 7 .4 10.1.8 4.5.8 5.9-.3 6.5-.7.5-7 .9-14 .9-10.7 0-12.8-.2-12.8-1.5q.1-1.3 1.1-1.5c.6 0 4.6-3.3 8.8-7.3 9-8.7 12.9-11.6 15.5-11.7 1.6 0 1.8.5 1.3 4.5M57.5 600c-.3.5-1.6 1-2.8.9q-3 0 .3-.9l2.8-.9q.2 0-.3.9m-6.8.6c-.3.3-1.2.4-1.9.1q-1.1-.5.6-.6t1.3.5m-41.8 18c3.9.8 4.1 2.4.2 2.4-3.7 0-6.2-1-5.5-2.1.6-1.1 1.2-1.1 5.3-.3m21.8 2.8c-.3.7 0 1.9.6 2.5q1.3 1.1-.5 1.1c-4.7 0-6.7-3.5-2.5-4.3l2.6-.6q.3 0-.2 1.3m147.6 1.5c1.2 1.2 2.1 14.1 1 14.1q-1-.2-1.7-1.5c-.8-2.1-2.3-1.9-2.9.5q-.7 1.9-2.5 2c-1.6 0-2-.6-1.8-3.2.2-4.6-2.9-5.1-3.9-.6-.7 3.2-.7 3.2-1.4.8a4 4 0 0 0-3-2.8c-2.1-.3-2.3-.1-1.7 2.3q1.2 3.7-1 1c-1.6-1.6-1.9-1.6-2.9-.1-.7.9-2.7 1.6-4.8 1.6-3.4 0-3.6-.2-4.5-4.6-.5-2.5-.7-5.7-.3-7.2.7-2.7.9-2.7 10.7-3.2 10.9-.5 19.5-.2 20.7.9M48 623c0 1.2-.8 1.2-3.5 0q-2.8-1 .8-.9c1.5-.1 2.7.3 2.7.9m18.5 0c-.3.5-1.5 1-2.6 1s-1.7-.5-1.4-1 1.5-1 2.6-1 1.7.4 1.4 1m287.9 5.2c-.3 8.8-.3 8.8-1.5 8.8q-1-.2-.8-2.3c.2-1.2 0-2.8-.4-3.5-1.5-2.2-2.7-.2-2.7 4.4q0 4.3-1 3.9c-.5-.3-1-3.2-1-6.3q.1-9.4-3.4-7.9c-1.5.6-2.2 4.9-1.8 11.4q0 2.1-.8 2.3c-.9 0-1.7-7.8-1.2-12.7.3-3.5 1.3-3.9 10.2-4.2l4.5-.1zm6.4-2.2c.1 1.9-.2 5.5-.7 8l-.9 4.5-.1-6.3c-.1-3.5-.6-7.2-1.2-8.4-.9-1.7-.8-1.9.8-1.6q1.9.2 2.1 3.8m-26.1 3.7c-.2 1.6-.4.5-.4-2.2s.2-4 .4-2.8.2 3.5 0 5m-318.3-2.2c.4 1.2-.5 1.5-5.1 1.5-4.8 0-5.4-.2-4.3-1.5.7-.8 2.9-1.5 5-1.5q3.7 0 4.4 1.5M187.5 640c-.8 1.3 1.5 25.8 2.9 30.5.8 2.7 1.7 9.4 2.1 14.8.3 5.4 1 10.9 1.5 12.3 1.9 4.8 1.4 5.6-2.9 4.9-2.2-.4-4.2-.2-4.5.3-1 1.6 2.2 3.5 6.2 3.7 3.5.2 3.7.5 4.4 4.1 1 5.8.9 10.4-.2 10.4q-.9-.2-1-1.5c0-1.8-5.9-5.7-7.3-4.8-.5.3-.6 1.6-.3 2.9.9 3.2-1.7 3.2-5-.1l-2.5-2.5.6-21.7.9-25.8 1.1-21.4.7-17.3 1.8 5.3a21 21 0 0 1 1.5 5.9m-124-8.1c.7 1.3-3.6 1.7-11 1.1l-6-.4 5-.7c8-1 11.3-1 12 0m-49 2.1c-.3.5-2.6 1-5 1s-4.7-.5-5-1q-.4-1 5-1c5.4 0 5.4.4 5 1m31 3.9c1.1.5-1 .6-5 .3-3.8-.2-7.2-.6-7.4-.8-.8-.8 10.5-.2 12.4.5m-37.2 1.8c-.7.2-2.1.2-3 0q-1.4-.5 1.2-.5t1.8.5m9 0c-.7.2-1.9.2-2.5 0q-1-.5 1.2-.5c2.2 0 1.9.2 1.3.5m7 0c-.7.2-2.1.2-3 0q-1.3-.5 1.2-.5 2.6 0 1.8.5m43 3.3c.5.4.7 2 .5 3.6-.2 2.4-.8 3-3.3 3.2-4.1.5-5.9 2-4.4 3.8 1.3 1.6 6.6 1.8 10.3.4q2.4-.9 3.1 0t3.1 1q2.3.1 2 .8c-.3.5-3.3 1-6.8 1.1q-8.8.4-7.2 3.3c.3.4-1.2.8-3.2.8q-3.3 0-3.1-.7c1.5-1.5-1.8-3.3-6.2-3.3-2.5 0-5.3-.5-6.1-1q-1.5-1-.2-1 1-.2 1.2-2 .2-2.1-2.9-2c-1.7 0-3.2-.4-3.6-.9-.6-1.1.1-1.6 3.6-2.4 2.3-.6 2.8-.2 4.2 3.3q2.9 7.2 6.1.8c1.9-3.7 1.2-6.8-1.5-6.8q-1.7-.1-1.9-1.5c0-1.3.7-1.5 3.4-1q3.3.6 4.1-.5c.8-1.2 7.3-.5 8.8 1m-23-.3c-.7.2-2.1.2-3 0q-1.4-.5 1.2-.5t1.8.5m34 2c-.7.2-2.1.2-3 0q-1.4-.5 1.2-.5t1.8.5M19 645.9q.2 2.2-9.1 2.1c-4.6 0-5.9-.3-5.9-1.5s1.5-1.5 7.5-1.5c4.1 0 7.5.4 7.5.9m158.2.3c1.5-.1 1.6 1.2 1.3 12.1l-1 29.7c-.3 9.6-.8 19.3-1.1 21.6-.7 4.8 2 10.4 6.8 14.5l3 2.5-11.8.3-11.9.2-1.4-3.1c-.7-1.7-1.1-4.2-.8-5.6.2-1.3 0-2.7-.4-3-1-.6-.6-19 .4-20.1 1.5-1.4.7-5.5-1.2-6-1.6-.4-1.9-2-2.6-15.6-.9-17.4-.9-16.9 0-22.2 1.2-6.9.6-6.6 10.2-5.9zm-141.9.4c1.1 1.1-.3 2.4-1.8 1.8q-1.3-.7-.9-1.5c.6-1.1 1.8-1.2 2.7-.3m56.4 2c-.3.3-1.2.4-1.9.1q-1.1-.5.6-.6t1.3.5m59.7 2.4c-.3 9.8-.4 10-2.4 10q-1.8-.1-2-1.4c0-2.7-5.3-3.5-20.5-3.2-18.6.3-28.5-.3-28.5-1.8 0-.7 1.8-1.3 4.3-1.5 2.3-.1 4.6-.7 5.2-1.2 1.8-1.8-1.8-3-6.8-2.4q-4.8.6-4.3-.4c.4-.6 10.4-.8 27.9-.6 26.6.4 27.2.5 27.1 2.5m-138.9 2q.5 1-3.7.9c-4-.1-4.1-.2-1.3-.9 4.3-1.1 4.3-1.1 5 0m13.4.6c.2.2-2.2.4-5.5.4q-5.7 0-4.5-.9c1.2-.8 9-.4 10 .5M36 653q0 .9-1 1a1 1 0 0 1-1-1q.1-1 1-1t1 1m52.3 1.7c-.7.2-1.9.2-2.5 0q-1-.5 1.2-.5c2.2 0 1.9.2 1.3.5M42.8 657a5 5 0 0 1-3.3 2.1c-17.9.5-35.5.4-35.5-.3 0-.4 7.5-.8 16.8-.8 13.1-.1 17.1-.4 18.6-1.5 3-2.3 4.9-2 3.4.5m429-.1c.9.5 2.9 1.4 4.5 2 3.4 1.3 3.5 2.6.1 2.8a11 11 0 0 0-5.5 2.2c-2.7 2-7.9 2.9-7.9 1.3q.2-.8 2.3-1.7 2-1.1 1.8-2.5l-.8-3.3c-.6-1.9 2.4-2.4 5.5-.8M41 664c-2.1 1.3-5.7 1.2-6.6-.1q-.8-1.2 1.7-.6c1.3.3 3.1.2 3.9-.3s1.7-.7 1.9-.4q.4.5-.9 1.4m-22.1 1.6c.2.2-2.5.4-6.2.4-3.6 0-6.9-.5-7.2-1q-.7-1.1 6.2-.4c3.7.4 7 .8 7.2 1m12.1-.5c-3.4 1-9.8 1.1-10.3.1-.3-.4 2.5-.7 6.1-.8q6.5 0 4.2.7m66.5.9c-6.6.6-10.9-.1-6.1-1 1.6-.3 5-.3 7.5 0l4.6.5zm-11.7-.3c-1 .2-2.8.2-4 0q-1.8-.4 1.7-.4 3.5-.1 2.3.4m53.2.9c0 .2-1.3.4-3 .4s-3-.4-3-.8 1.4-.7 3-.4 3 .6 3 .8m12.4 1.1c.4.9.2 2.1-.4 2.7q-1 1-1-1.2c0-2.6-3.7-3.1-4.6-.7q-.7 1.3-2.2 1.5-1.3 0-.9-.7.6-.6-.4-2c-.9-1.1-.2-1.3 3.9-1.3 3.7 0 5.1.4 5.6 1.7m-33.9 2.4c.7 1-25.3 1.7-26.8.7q-1.8-1 21.1-1.4c2.9-.1 5.5.2 5.7.7m-105.2.6c-.7.2-2.1.2-3 0q-1.4-.5 1.2-.5t1.8.5m9 0c-.7.2-1.9.2-2.5 0q-1-.5 1.2-.5c2.2 0 1.9.2 1.3.5m29.1.2q.4.9-1 1.5c-2.2.9-2.4.8-2.4-.9 0-1.6 2.5-2.1 3.4-.6m36.6.7c0 .2-2.1.3-4.7.3-4.6-.2-4.7-.2-1.3-.8 3.3-.7 6-.4 6 .5m381-.4q-.2.7-2 .8c-1.8.1-2-.4-2-.8s.9-.8 2-.8 2 .4 2 .8m-437.2 1.5c-.4 2.2-4.8 3.1-4.8 1q0-2.8 3.2-2.7 2 0 1.6 1.7m33.5-1c-.7.2-1.9.2-2.5 0q-1-.5 1.2-.5c2.2 0 1.9.2 1.3.5m359.4-.1q-.7.5-1.9.1t.6-.6q1.8 0 1.3.5m4.8 1.2q-.6.4-1.8-.7-1.4-1.5.6-.5 1.6.6 1.2 1.2m21-1.3c-2.3.8-12.4 1.1-11.9.3.3-.4 3.3-.8 6.7-.7 3.4 0 5.8.2 5.2.4m-14.2 1.2c-.7.2-2.1.2-3 0q-1.3-.5 1.2-.5 2.6 0 1.8.5m-62 1a17 17 0 0 1-4.5 0q-1.7-.3 2.2-.4c3.9-.1 3.5.2 2.3.4m106.7.8q.1 3.1-6 1.6l-3.5-.9 3.3-.1c1.7-.1 3.2-.6 3.2-1.1q.1-1 1.5-1c1.4 0 1.5.7 1.5 1.5m-327.2 1.3c.3 1.1-2.3 1.3-13.9 1.2-7.9-.1-16.6-.5-19.4-.8l-5-.7 6.5-.5c13.4-1 31.3-.6 31.8.8m251.1-.2c.2.2-1.9.4-4.7.4-3 0-5.2-.4-5.2-1.1 0-.9 8.7-.3 9.9.7M4.7 677.2q-.5 1.1-.6-.6t.5-1.3c.3.3.4 1.2.1 1.9m107.7-1.4c.3.5-1.6.9-4.2.9-4.1.1-4.3 0-1.7-.7 4.2-1.1 5.3-1.1 5.9-.2m296.3-.2q-.7.5-1.9.1t.6-.6q1.8 0 1.3.5m50 0q-.7.5-1.9.1t.6-.6q1.8 0 1.3.5m9.6.1c-.7.2-1.9.2-2.5 0q-1-.5 1.2-.5c2.2 0 1.9.2 1.3.5m-90.9 3.1c4.4.1 7.7.4 7.5.7s-6.6.7-14.2 1c-10.7.4-13.7.3-13.7-.7 0-1.3 3.1-1.5 20.4-1M15 680.6c0 .2-1.6.4-3.5.4s-3.5-.4-3.5-.8 1.6-.6 3.5-.4 3.5.6 3.5.8m427-.6q-.1.9-1.1 1-.8-.1-.4-1 .6-1 1.1-1 .4 0 .4 1m7-.2c0 .5-1.3.7-3 .4s-3-.6-3-.8 1.4-.4 3-.4 3 .4 3 .8m-428.3.8q-.6.5-1.9.1-1.1-.5.6-.6t1.3.5m87.8 1.4c-.3.5-2.1.9-3.8.9l-3.2-.2 3.5-.7 3.8-.9q.2 0-.3.9m6.2-.4c-.3.3-1.2.4-1.9.1q-1.1-.5.6-.6t1.3.5m5.6.5q-1 1.2-3 0-2.6-1.1 1.2-1.1 3 0 1.8 1.1M424 682c0 1.2-9.7 1.2-12.5 0q-2.1-.9 5.3-.9c4.2-.1 7.2.3 7.2.9m6.3 2.7c-.7.2-1.9.2-2.5 0q-1-.5 1.2-.5c2.2 0 1.9.2 1.3.5M10 686q0 .9-.9 1-1-.1-1.6-1-.4-1 .9-1 1.5 0 1.6 1m219.3 49.1c2.3 1.2 4.5 2.7 4.9 3.4s2.1 1.8 3.8 2.5 3 1.6 3 2c0 .5-4.4 2.3-9.7 4a61 61 0 0 1-20.5 3.7q-10.7.6-10.8-.5c0-.6 3-2.4 6.7-4.1 4.1-2 8.5-5 11.4-8.1 2.6-2.8 5.3-5 5.9-5s3 1 5.3 2.1m95.5 4.7c2.6 2.6 5.9 5.5 7.5 6.5 5.3 3.4 2.4 5.1-7 4.1-4.5-.4-7.6-1.5-10.6-3.5a34 34 0 0 0-8.6-3.8c-2.4-.5-4.7-1.3-5.2-1.8-2.5-2.5 5.3-6.1 13.4-6.2 5.7-.1 6 0 10.5 4.7"/><path d="M253 335.8c-.8.3-2.6 1.3-3.9 2.4s-3.2 1.6-4.2 1.3-2.3.1-3.1.8a16 16 0 0 1-3.7 2.6q-2 1.2-1.7 1.8.6.4 2.1-.7 1.7-1.6 1.5.6 0 1.9 2.3 2c1.2 0 3.4.4 4.8.8 2.1.6 2.7.3 3.7-1.8q1-2.5.2-3.1c-1.4-.8.7-4.5 2.5-4.5 1.6 0 2.9-1.7 1.8-2.3q-1-.3-2.3.1m2.5 8.5q-2 1.4-.6 2.1 1 .8.7 1.5t.8.8q1.1-.2 1.4-2.9c.1-3.3.1-3.2-2.3-1.5M239 371.2c0 .9.5 2 1 2.3 1.3.8 1.3-.5 0-2.5q-1.1-2-1 .2m-5 1.9q.1.8 1 .4 1-.6 1-1.1 0-.4-1-.4-.9.1-1 1.1m11.1.1c0 .7.4 2.2.9 3.3q1 2.8.9-.7c.1-1.5-.3-3-.9-3.3q-.9-.4-.9.7m4.9.8q.1 1 1.5 1c1.4 0 1.5-.2 1.5-.4s-.7-.6-1.5-1q-1.4-.4-1.5.4m7.5 4.7c-.4 1.8-1.5 3.4-2.4 3.6q-2.3.5 0 .6c2.3.1 4.1-2.4 3.6-5.1-.4-2-.5-1.9-1.2.9m-14 1.3q.6.9 1.1 1 .3-.1.4-1-.1-1-1.1-1-.8 0-.4 1m-6.4 1.6q0 1.7.6.6c.3-.7.2-1.6-.1-1.9q-.6-.5-.5 1.3m7.9 2c0 2 1.7 3.4 4.1 3.4q.8-.2.8-2.8-.2-2.5-.6-1-.4 1.6-1.3 1.8c-.9.2-1.4-.8-1.9-1.8-.9-1.5-1-1.5-1.1.4m9.5 2.4q.6.9 1.1 1 .3-.1.4-1-.1-1-1.1-1-.8 0-.4 1m-28.5 6q.1.9 1 1 1-.1 1-1t-1-1a1 1 0 0 0-1 1m-5.3 2.6q-.6.8-.7 2.3 0 1.6 1.1.4 1-1 .7-2.3-.4-1-1.1-.4m4.4 3.2a10 10 0 0 0-1.1 3.4q.1 1 1.5-1.6c.9-1.6 1.3-3.1 1.1-3.3q-.5-.3-1.5 1.5m37 13c-1.3 2.5-1.4 4.2-.2 4.2 1 0 2.5-5 1.7-5.7q-.4-.3-1.5 1.5m120.5 19.9q-1 2 .5.6 1.1-1.2.7-1.8-.6-.4-1.2 1.2M186.1 687.4q-1.2 1.4.2 2.4c1.7 1.4 4.2-.2 3.4-2.2q-1.3-3-3.6-.2m1.4 8.6q-.6 1.2.3 2.2c1.4 1.4 4.7.6 4.7-1.2s-4-2.6-5-1m1 13c-.7 1.1 3.8 6 5.5 6q1-.1 1.7-1.7c1.1-2.9-5.6-6.9-7.2-4.3M3.8 442.7c-2.9.3-3.8.9-3.8 2.3 0 1.6.9 1.8 8.9 1.8 6.4 0 9.3-.4 10.1-1.3 2.4-2.9-3.6-4-15.2-2.8m29.4 2.1c-.8 2.2 1 3 7.8 3.4 5.9.3 6.5.1 6.5-1.7s-.8-2.1-6.9-2.5c-5.1-.4-7-.2-7.4.8m29 0c-5.3.3-6.3.6-6 2s1.6 1.7 7.1 1.8q6.6.1 7.8-1.2c1.6-2-1.7-2.9-8.9-2.6m15.9.1c-.8.5-1.1 1.6-.8 2.5.9 2.3 21.5 2.4 22.4.1q.5-1.5.2-1.9c-1-.8-20.6-1.4-21.8-.7m52.6 1.4c-1.8 1.2-1.8 1.4-.2 2.7 2.5 2.1 11.8 2 12.3-.1q.3-1.6-2.6-2.2l-5.3-1.2c-1.4-.3-3.2 0-4.2.8m30.4 0q-3.2 3.8 5.4 3.7c8.5 0 8.7-3.8.3-4.7-3.2-.4-4.7-.1-5.7 1m160.1-.6q-4.3.5-3.9 1.6c.3.9 3.4 1.1 10.8.8a94 94 0 0 0 10.8-.7c1.8-1.7-8.5-2.6-17.7-1.7m-210.8 1.4q-1.8 3.4 8.3 3.1c7.6-.3 8.9-.8 7.2-2.8-1.4-1.7-14.4-2-15.5-.3m240.7.3q-1 1.4-.3 2c1.6 1 32.1.6 32.7-.4 1.2-1.9-4.2-2.8-17.7-2.9-10.6-.1-13.8.2-14.7 1.3m105.4-.3c-15 .8-24 .9-48.4.5-3.9-.1-6.6.3-6.8 1q-.3 1.2 8.9 1.9c18.2 1.4 77.2.3 79.1-1.5q4.3-3.9-32.8-1.9m24.2 5.6q-.5.6.4 2c1.5 1.7 13.3 1.9 12.7.1-.7-2.1-11.4-3.8-13.1-2.1m-423.5 1.2q-2.1.6-2.3 1.6c0 1.2 4 2.4 5.9 1.7a2 2 0 0 0 1.2-1.7c0-1.7-1.9-2.3-4.8-1.6m-52.7 1.2c-1.9 3 3.8 3.6 31.5 3 7-.1 10.5-1.4 8.2-3a195 195 0 0 0-39.7 0m395.5.1c-2.4 1-2.4 1-.5 1.8 3 1.3 18.3 1.2 19-.1q.6-1 .4-1.3a66 66 0 0 0-18.9-.4m-325.8 1.5q.4 1.8 2.8 1.8c3.6 0 3.3-2.9-.3-3.3-2.3-.3-2.8 0-2.5 1.5m10.3-.7q-1.8 2.6 5.1 3.5c5.6.8 7.6-.5 4.3-2.9-2.6-1.8-8.4-2.2-9.4-.6m348.8 1c-2.5 1-3 2.6-1 3.2.6.2 4.5.2 8.5 0 6.2-.3 7.3-.6 7-2s-1.6-1.7-6.3-1.9c-3.3-.1-7 .2-8.2.7m-283.9 1.1c-1 1.6 3.5 2.8 10.2 2.8l7.9.1c.6.2 3.4.2 6.3.1 4.5-.1 5.2-.4 5.2-2.1 0-1.9-.7-2-14.5-1.8-8 .1-14.8.5-15.1.9m167.8.6c.3 1.6 1.9 1.9 15.3 2.5 13.7.6 18.1.1 16.2-1.8-.4-.4-4.2-.8-8.4-1l-15.6-.9c-7.3-.6-7.8-.5-7.5 1.2m144.3-.4q-2 1.5-.5 2.2c1.5.9 19.9.9 20.8 0q.4-.7-1.2-2.1c-2.6-1.9-16.5-1.9-19.1-.1m-345.3.9c.5 1.5 8.8 2.4 8.8 1s-2.5-2.2-6.2-2.2q-2.9 0-2.6 1.2m249.5.4c-1.8 1.9-.2 2.5 5.8 2.2 3.6-.2 6.6-.8 6.8-1.3.2-1.1-11.5-2-12.6-.9m24.8 1.7c-4.4 1.7-9.5 5-9.6 6.2-.5 3-.6 4.2-.8 6.2q0 2.3-1.9 2.3c-1 0-2.3.5-2.9 1.1s-4.4 1.1-9.8 1c-7.9-.2-8.7 0-9.2 1.8-.4 1.6-1.7 2.2-6.5 2.7q-5.9.7-6.5 2.1c-.5 1.2-3 1.4-14.2 1.1-12.2-.3-13.6-.1-13.9 1.4q-.3 1.7 2 2.2c2.5.6 15.1 1.5 20.6 1.6q3.1 0 3.2 1.4c0 2.7 8.8 3.7 10.9 1.3 1.6-2 .4-2.7-4.5-2.7-3.7 0-4.2-.2-3.7-2s.7-2 2.9-.5c2.1 1.3 6.8 1.5 33.8 1.4 17.2-.1 36.9-.5 43.7-.8 11.9-.6 13.2-.4 14.2 2.2.4 1.3 53.7.5 55.9-.9q2.3-1.7-1.9-3.7c-1.6-.7-3.9-1.9-5.3-2.8a25 25 0 0 0-8.3-2.4c-4.8-.5-6.1-1.1-7.9-3.6-1.2-1.6-2.7-2.9-3.4-2.9s-2.1-.8-3.1-1.8c-3-3.1-5-3.2-10-.5-3.7 2-6.7 2.7-13 3.1-7.8.4-8.3.3-10.8-2.2-1.4-1.4-3-2.6-3.4-2.6a18 18 0 0 1-4.7-3.1c-3-2.3-4.6-2.9-6.9-2.6-1.7.3-3.7-.1-4.5-.8s-3.1-1.5-5-1.7c-2.6-.2-3.5.1-3.8 1.4q-.4 1.7 2.5 2.4c1.5.4 3.8 1.8 4.9 3.3 2 2.3 2.4 2.4 4.7 1.2 2.1-1.1 2.8-1.1 5.1.4q2.5 1.8 2.2 3.2c-.4.8-.6 1.9-.6 2.4q-.1.9-1 .4-1.2-.7 0-2 1.1-1.2-.6-2.6c-1.4-1.2-2-.9-4 1.6-1.3 1.7-2.3 3.9-2.2 5q.4 2.1-2.3 2.3c-2.5.3-2.7.1-2.5-4l.1-4.3-7-1.4c-5-.9-7-1-7.3-.2-.2.6-1.5 1.1-2.8 1.1-2.2 0-2.3-.2-1.3-2.1q1.1-2.1 0-3.2c-1.5-1.5-3.9.8-4.4 4.1-.3 2.3-.4 2.4-1.1.9-1.9-4 9.1-11 13.6-8.6q2 1.2 2.5-.7c1.2-3.2-4.3-4.4-10.2-2.1M419 474q0 .9-1 1a1 1 0 0 1-1-1q.1-1 1-1t1 1m47 5c.6 1.1.8 2.5.5 3q-.4 1 2.2 1l2.8.1-2.8 1.5c-1.5.8-3.1 1.3-3.6 1s-3.5 0-6.9.6c-4.9.9-6.4.9-7.7-.2a9 9 0 0 0-3.8-1.6l-5.5-.7c-1.9-.3-3.9-1-4.5-1.7-.9-.9-.1-1 3.8-.5q13.6 2 19-2.3c3.4-2.7 5.1-2.8 6.5-.2m-31.5 2q.4.9-1 1c-1.4.1-1.3-.5-1-1q.6-1 1-1t1 1"/><path d="M463 482.1q.1.8 1 .4 1-.6 1-1.1 0-.4-1-.4-.9.1-1 1.1m30.7-21.4q-2.2 2.3 2.8 2.3c3.6 0 4.7-1.3 1.9-2.4-2-.8-3.9-.8-4.7.1m-70.2 3.7c-1.9 1.4-1.8 1.4 1.5 2 5 .9 9.5.1 9.5-1.5 0-2-8.4-2.4-11-.5m-300.4.7c-5 1.9-.2 2.9 17.7 3.5 16.7.7 18.2.6 18.2-1q-.1-1.5-1.2-2.1c-2.9-.9-32.5-1.2-34.7-.4m44.6-.5q-2 2.3 1.9 2.4 2.4 0 2.2-1.3c-.5-1.4-3.1-2.1-4.1-1.1m283.5.2q-3.2.4-2.9 1.5c.5 1.5 10.7 1.6 10.7.2 0-1.3-3.7-2.1-7.8-1.7m-401.4.9c-4.2.5-5.4 3.2-1.5 3.4 10.2.6 17.1-1 13.7-3.1-1.5-1-5-1-12.2-.3m22.7.2c-1.6 2.7 1.6 3.4 16.1 3.6 11.8.2 14.7 0 15.1-1.2.3-.7.4-1.6.2-1.8s-7.2-.7-15.5-1.1c-11.5-.5-15.3-.4-15.9.5m-66.2.9q-6.4.3-6.3 1.6c0 2.1 4.8 2.6 22.4 2.6 12.4 0 16.7-.3 18.2-1.4q1.6-1.4 1.1-2.2a249 249 0 0 0-35.4-.6m478.2.2q-1.5 2.9 4.1 3c3.1 0 4.5-1.2 2.7-2.3-2.1-1.2-6.3-1.6-6.8-.7M312 470c-2.8 1.7 0 2.3 11.1 2.4 9.9.1 14.4-.7 10.7-1.8-3-1-20.4-1.4-21.8-.6m44.1 3.1c-5.5 2.4-4.4 4.2 1.9 3.1 3.5-.6 4.5-1.2 4.5-2.6 0-2.7-1.3-2.8-6.4-.5m-250.6-.4c-1.1.3-2.4.9-2.9 1.4-2.3 2.2 1.9 3 18.2 3.5 14.9.5 17.2.3 17.2-1 0-1.7-2.4-2.2-13.5-3l-12-1c-2.7-.3-5.9-.2-7 .1m124.1.2c-1.6 2.5-4.6 33.5-3.4 35.4 1.9 3.1 2.9-2 5.4-28.4q.5-6.5-.4-7.3-1-.4-1.6.3m-68 1c-1.3 2 2.6 3.2 10.3 3.2 9 0 10.8-.5 9-2.7-1.3-1.6-18.4-2.1-19.3-.5M9.2 475.7c-5 .2-9.2.8-9.2 1.2 0 2.1 15.7 2.4 24.8.5 3.9-.8 2.4-2.4-2-2.2zm213.4 3.6c-.7 4.8 0 8 1.8 7.4 2.2-.7 1.9-11.7-.3-11.7-.5 0-1.2 1.9-1.5 4.3m-184-2.4c-1.4 2.2 2.5 3.1 12.6 2.8 10.4-.4 13.3-1 12.3-2.8a87 87 0 0 0-24.9 0m293.4.6c-1.1 1.3-.9 1.5 1.5 1.5q2.5 0 2.3-1.2c-.7-1.9-2.4-2-3.8-.3m155 1.5c0 2 4 3.2 6.2 1.9 1.6-1 .8-1.7-3.1-2.9-2.7-.7-3.1-.6-3.1 1m-420.5 2.4c-3.3 1.3-8.7 3.7-12 5.4a23 23 0 0 1-10.1 3.2c-2.3 0-6.6.5-9.5 1.1l-9 1.8c-2 .4-5.6 2.2-8 3.8-4 2.8-5 3.1-11.2 2.8l-6.7-.3v26.3l8.8-.1c11.1-.1 16.1.9 7.8 1.6-6.1.5-8.8 2.6-4.7 3.7 4.6 1.2 1.7 2.2-4.9 1.6-6.5-.5-7-.4-7 1.3q0 1.8 1.8 2.1l12 .9c9.8.6 10.4.6 10-1.2q-.4-1.8-3.6-2.5c-1.8-.4-3.6-1-4-1.3a526 526 0 0 1 39.6-.2c22.1.2 40.4.1 40.7-.4.5-.8 20-1.9 43.2-2.5 7.3-.2 14.1-.6 15.2-1 3.2-1 2.5-3.3-1.1-4.3l-3.3-.9 4-1a82 82 0 0 1 14-1.2c13.7-.1 22.5-4 14.1-6.2-1.6-.4-3.6-1.5-4.5-2.3s-3.5-2-5.9-2.8c-2.3-.7-4.5-2.1-4.8-3.1s-2.2-2.8-4.2-4.2c-3.3-2.2-4.2-2.4-11.1-1.9-4.2.4-8.6 1.3-9.8 2-4.2 2.7-13.9.7-19-3.8a13 13 0 0 0-6.3-2.5q-4.3-.5-13.3-6.6c-5-3.3-11.3-6.9-13.9-7.9a35 35 0 0 0-23.3.6m17.2 3.7 2.8 1.1-2.7 1.4a6 6 0 0 1-5.2.4q-2.7-1-2.3.1c.1.6-1.5 1.7-3.6 2.5-2.1.7-5 2.2-6.5 3.2a39 39 0 0 1-10.2 3.7 48 48 0 0 0-9.7 3.1 6 6 0 0 1-5 .7l-2.8-.7 2.4-.6c3.2-.7 3.9-3 1.2-3.7q-1.9-.6-1.6-1.3.6-.8 2.5-.3c1.2.3 5.8-1.4 11.7-4.3 12.2-6 22.3-7.9 29-5.3M34 495.7c-.1 1-7.2 4.3-9.2 4.3-.9 0-2.1.7-2.8 1.5-1 1.2-1.6 1.3-2.7.4s-.6-1.6 2.6-3.5c3.6-2 5.7-2.6 10.9-3.3q1 0 1.2.6m46.5 2.3q.4.9-.4 1-1-.1-1.1-1 0-1 .4-1 .6 0 1.1 1m41.5 6.6q0 1.3-1 .9c-.5-.3-1-1.3-1-2.1s.5-1.2 1-.9 1 1.3 1 2.1m25-.2c0 3.9-3.8 6.4-5.5 3.6q-.7-1-2.2-.2c-1.6 1-6 .4-6.8-.8-.3-.4 1.8-.7 4.5-.7q5.1.2 6.7-1.6 3.2-3.1 3.3-.3m-134 0q0 .6-1 1.1-.9.4-1-.4.1-1 1-1.1 1 0 1 .4m63 2.1q-.1 1.4-1.4 1.5c-.8 0-2.2 1-3 2.1-1.2 1.8-9.3 4.5-10.4 3.4-.2-.1.8-1.6 2.2-3.1q2.4-2.6 2.6-1.5-.1 1.7 2-.4c1.1-1 2.3-1.5 2.6-1.2q.8.4 2.8-.8c2.5-1.8 2.6-1.8 2.6 0m2.2.7q-1.1 1-1.2.2c0-1.4 1.2-2.6 1.9-1.9q.3.6-.7 1.7M86 506q0 .8.8.8c.4 0 1.8.4 3.2 1 2.9 1.2.9 1.5-3.9.6-3.1-.7-4.4-3.4-1.6-3.4q1.3 0 1.5 1m74-.4c0 1.5-2.2 4.4-3.1 3.9-1.1-.7.7-4.5 2.1-4.5q1 0 1 .6m-5 1.4q0 .9-1 1a1 1 0 0 1-1-1q.1-1 1-1t1 1m-113.5 4c-2.5 4.7-1 4.8 1.9.1 1.5-2.3 3.3-4.1 4.1-4.1 1.3 0 1.4.4.5 2-2.1 4-8.3 9-11 9-6.2 0-6 6.3.2 7.3 2.5.4 3.6.1 4.7-1.4 1.3-1.9 1.5-1.9 3.3-.2 1.7 1.5 4.2 1.8 17.7 2 22.2.2 22.5.2 21.8.9-.4.5-30.4.7-52.6.4-2.8 0-3.2-.3-2.6-1.8 1.7-4 1.7-5.2.2-5.2-2.7 0-2.6-1.5.4-6.4 3.4-5.4 5.3-5.6 2.1-.1-1.2 1.9-1.8 3.5-1.3 3.5s1.6-1.6 2.7-3.5c1-1.9 2.5-3.5 3.2-3.5 1.2 0 1.1.5-.2 2.5-3.3 5-1.4 4.8 2.1-.2 4-5.7 5.4-6.4 2.8-1.3m119.8-2.3q-.8 1.7.7.8 1.2-.7.8.6-.6 1.3-1.6 1.2t-.6 1.2q.8 1.3 2.3 1.6c2.7.1-1.9 1.7-5.2 1.8q-2.8.1-2.5-1.1.6-1.2 2.4-1.3 2 0 1.6-1.8c-.2-1 .2-2.5.9-3.3q2.3-2.9 1.2.3m-48 1.8q-.6 1.4-1 1.1-.4-.5.2-1.5c.9-1.6 1.5-1.3.8.4m-65.3 3q0 1.3-1 1.5-.8-.2-.4-1.5.6-1.3 1-1.5.4.2.4 1.5m76.5.5q.4.9-.4 1-1-.1-1.1-1 0-1 .4-1t1.1 1m47 0q-.6.9-1.6 1-.8-.1-.9-1 .1-1 1.6-1 1.3 0 .9 1m-121.1 2.7c-.5 1.7-.5 1.7.9 0 1.5-1.8 4.3-2.4 3.2-.7q-.4.9.9.4 1.6-.6 1.6 1c0 1.2-1 1.6-4.5 1.6-4.3 0-5.8-1.4-3.8-3.3 1.2-1.3 2.2-.7 1.7 1m47.1.3q.5.9-.4 1-1-.1-1.6-1-.5-1 .4-1a2 2 0 0 1 1.6 1m21.5-.6c0 .7-8.4 4.6-8.8 4.1-.6-.6 6-4.5 7.6-4.5q1 0 1.2.4m-12.3 4.2q-.7.5-1.9.1t.6-.6 1.3.5M117 525q1.9 1-1.5 1.1l-5.5.4c-4.5.4-12.4.7-16.4.6-7.2-.2-3-1.2 8.5-2l12.4-.9c.6-.1 1.7.3 2.5.8"/><path d="M62.3 489.7c-1.3.5-1.9 3.3-.7 3.3.7 0 3.4-2.7 3.4-3.4q0-1-2.7.1m83.3-8.9c-1.5 2.4 2.7 3.2 17.3 3.4s19.3-.7 15.9-2.8c-1.9-1.2-32.5-1.7-33.2-.6m156.9.3c-1.1 1.7.1 2.1 6 2 5.9 0 7.9-.7 7-2.2-.8-1.3-12.2-1.1-13 .2m-193.9.8q-.3 1 .8 2c1.6 1.3 3.2-.2 2.1-1.9-.8-1.2-2.2-1.3-2.9-.1m7.4.1c-1.3.9-1.3 1.1 0 2 2.1 1.4 5.5.8 5.5-1s-3.4-2.4-5.5-1m17.2.2c.7 2 5.8 2.3 5.8.4q0-1.6-3.1-1.6-3 0-2.7 1.2m-112.6 1.7c-3.4.3-6.1 1.1-6.4 1.8-.6 2 1.9 2.4 8.9 1.6 4.6-.6 6.4-1.2 6.4-2.3 0-1.7-1.1-1.9-8.9-1.1m97.6 6.8c.6 3.2 11.8 2.9 11.8-.2 0-1.2-1.4-1.5-6.1-1.5-5.2 0-6 .2-5.7 1.7m25.5-.9c-1.9.4-2.2 1.8-.7 2.7 1.8 1.1 52 .9 53.1-.2q1-1 .1-1.7c-1.1-.6-49.6-1.4-52.5-.8M0 494c0 1.7.7 1.9 5.5 1.9 3-.1 5.8-.5 6.1-1 .6-1.1-.7-1.6-6.8-2.3-4.3-.5-4.8-.3-4.8 1.4m358-.1c0 1.9.7 2 19.3 1.8 16.3-.2 19.2-.4 19.2-1.7s-2.9-1.5-19.2-1.8c-18.6-.2-19.3-.2-19.3 1.7m46.1-1q-4.3 3 9 3.1c8.1 0 9-.2 8.7-1.8-.3-1.4-1.6-1.7-8.3-2-4.4-.1-8.6.2-9.4.7m24.2 2.4c-1.3.6-2.3 2-2.3 3.1 0 1.6.4 1.7 3.3 1 3.9-1 11.8-.9 38.2.3 11 .5 20.4.5 21 .1q.8-.8-.7-2.4c-1.2-1.2-4.7-1.6-17.4-1.9l-27.9-.9c-8.3-.3-12.7-.1-14.2.7m-243.3.4c-3.6.2-6.9.8-7.4 1.3-1.3 1.3 3.8 3.1 7.1 2.4 1.6-.3 6.2-.6 10.3-.7 5.9-.2 7.5-.5 7.5-1.7 0-1.6-5.1-2-17.5-1.3m120.2 1q.4 1.8 2.8 1.9c14.5.8 16 .7 16-1q0-1.3-6.1-2c-10.6-1.1-13.1-.8-12.7 1.1m28.3 2.3c-1.3 2.1.8 2.7 12.7 3.5 14.5.9 49.7 1 50.6 0 1.9-1.9-3.7-2.4-19.3-1.9-13.1.5-19.2.2-26.5-1q-16.2-2.7-17.5-.6m-138.8 2.7c-1.1 1 1.3 3.2 2.9 2.6 2-.8 1.7-3.3-.4-3.3-1 0-2.2.3-2.5.7m146 7.9q-2.4 2.4 3.4 2.4 4.1 0 3.7-1.3c-.5-1.3-6-2.2-7.1-1.1m67.7.5c-.7 1.2 1.2 2.9 3.2 2.9 1.5 0 3.6-2.5 2.7-3.3-1-1.1-5.1-.8-5.9.4m16.1-.1q-1.5 2.9 4.1 3 3.4 0 3.4-1.4c0-2.4-6.2-3.7-7.5-1.6m56.9-.1c-.3.3-10.8.6-23.2.6-19.5 0-22.7.2-22.7 1.5 0 1.2 1.5 1.5 7 1.6l13 .4c9 .4 28.7-.1 31.3-.7q2-.6 1.9-1.6c-.4-1.3-6.3-2.7-7.3-1.8m-114.9.9c-1.6 1.6.4 2.2 8 2.2 5 0 8.5-.4 8.5-1 0-1.1 0-1.1-9.2-1.5-3.7-.1-7 0-7.3.3m-52.5 1.6c0 1.3 1.2 1.6 6.5 1.6 3.7 0 6.5-.4 6.5-1s-.1-1-.2-1.1l-6.5-.6c-5.3-.4-6.3-.3-6.3 1.1m-42 8.1q0 2.4 1 2 1-.6 1-2c0-1.4-.4-1.7-1-2q-1-.4-1 2m10.3 1.5a152 152 0 0 1-25.5 20.2c-1.6.6 0 2.8 2 2.8 1 0 2.9-1.2 4.3-2.8s5.5-4.8 9.2-7.4c8.8-6.4 16.4-15.8 12.8-15.8-.6 0-1.8 1.4-2.8 3m-7.3-1q.1.9 1 1 1-.1 1-1t-1-1a1 1 0 0 0-1 1m204.1-.1q-1.2 1-.8 2.5c.5 1.2 2.1 1.6 6.6 1.6q9.2 0 6.1-3.5c-1.4-1.7-9.6-2-11.9-.6m-211.3.8q1.3.4 1.9-.1t-1.3-.5q-1.7 0-.6.6m51.8 1.2q-.5 1 .1 1.4c1.3.8 7.8 0 7.8-.9 0-1.3-7.2-1.7-7.9-.5m26.9 1.1c-2.9 1 6.8 2.9 11.8 2.3 3.5-.5 5.2-2.2 2.5-2.4-6.3-.5-12.7-.5-14.3.1m46.7.8c-1.8.2-3 .8-2.7 1.3.8 1.2 14.5 1.2 14.5 0 0-1-6.8-1.8-11.8-1.3M285.8 527c-.9.6-3.2 3.2-5.1 5.9a23 23 0 0 1-9.1 7.6c-5.9 2.9-7.2 4-5.7 4.9 1.8 1.1 10.8-4.8 16.9-11.2 5.8-6.2 7.2-8.2 5.5-8.2q-.9.1-2.5 1m134.2.1c0 .5 1.5 1 3.3 1.1l6.2.4c13.9 1 34 .1 33-1.6-.7-1.1-42.5-1-42.5.1m-251.5.7c-5.1.5-5.9 1-4.5 2.7 1.1 1.3 3.8 1.5 15.8 1.3 10.1-.2 14.7-.7 14.9-1.5q.3-1.2-3.9-1.7c-5.9-.7-18.7-1.2-22.3-.8m202.5 4.1c0 .9 9.8 2.1 11.3 1.4q.6-.5.2-1.4c-.8-1.2-11.5-1.2-11.5 0m97.2.3c.4 1 3.7 1.3 12.7 1.4 8.7.1 12.1-.2 11.8-1q-.4-1-12.6-1.4c-9.6-.2-12.2 0-11.9 1M37 533.9c-3.6.5-4.5 1-4.5 2.6 0 1.8.6 2 7.5 1.7q7.5-.3 12.5 1.3c6.6 2 24 1 24-1.5 0-1.2-2.1-1.6-11-2-6-.3-11.5-.8-12-1.2-1.6-1-11.5-1.6-16.5-.9m119.5.2c-3.3.4-9.7.6-14.1.2-5.8-.4-8.3-.2-8.9.7-1.7 2.8 1.7 3.4 20.3 3.7l21.1.4c2.5.1 4.9-1.6 3.8-2.8-.4-.4-3.3-1-6.5-1.4l-7.7-1.2c-1.1-.3-4.7-.1-8 .4m-65 .8c-4.1.5-5 1-5 2.5 0 1.8.7 2 10.5 1.8 5.8-.1 13.6.2 17.4.6 7.5.9 13.7.3 13.7-1.3 0-.6-4.7-1.5-10.3-2.2-16.5-1.8-21-2-26.3-1.4m238.2-.1c-9.6.2-10.8.5-10.5 2 .3 1.4 1.7 1.8 8.8 2 10.8.4 15.2-.4 14.8-2.5-.4-2 .1-1.9-13.1-1.5m75.8.2q-.3 1 1.9 1c2.2 0 2.8-.5 3.1-1q.3-1-1.9-1c-2.2 0-2.8.4-3.1 1M240 536.7c0 1.5 2.3 3.3 4.2 3.3q1.6-.2 1.8-1.5c.2-1.3-.6-1.5-1.4-1.5s-2.1-.3-3-.6q-1.5-.4-1.6.3m-10 1.7c0 .7 2.1 2.4 4.8 3.6l7.4 3.7q4.9 2.5 4.8 0c0-1.2-13.8-8.7-16-8.7q-1 .1-1 1.4m122.4 1q-.6 1.5-.3 2c1 .9 22.6 1.4 23.9.6q4.6-2.8-11.8-3.7c-9.9-.5-11.2-.4-11.8 1.1"/><path d="M216.2 542.3c-1.6 1.8-.4 2.9 1.9 1.7q1.6-1 6.4 1a30 30 0 0 0 5.8 2c2.4 0 13.3 5.8 15.6 8.4 1.8 1.9 3.4 2.6 6.3 2.6 4.8 0 7.1-1.1 12.3-6 2.2-2.1 5-4.1 6.3-4.5q2-.6 1.7-1.5c-.9-1.4-3.5-.1-9.3 4.6-7.2 5.8-11.1 6.5-15.8 2.8-6.2-5-6.7-5.2-15.4-8.5-10.6-3.9-14.2-4.5-15.8-2.6m204.3-.3c-1.3 2.1.8 2.9 9.2 3.2 8.2.3 10.6-.3 8.6-2.3-1.6-1.6-16.8-2.4-17.8-.9m61.3-.5c-.3.3-3.9.6-8.2.7s-7.9.5-8.2 1q-1.8 3.2 8.9 3c9.1-.2 12.7-1 12.7-2.7s-3.9-3.3-5.2-2m-187.1 2.1c-1.4 1.4-.7 3.5 1.1 3.2q1.5-.5 1.7-1.7c0-1.6-1.8-2.5-2.8-1.5m-288 1.9c-4.9 1.2-7.6 3-6.4 4.1.3.3 4-.1 8.1-1.1 7.5-1.6 16-1.3 17.2.6s14.4.4 14.4-1.6q.1-1.3-8.2-1.9c-16.5-1.4-20.4-1.4-25.1-.1m57 .2c-.4.3-.7 1.2-.7 1.9 0 .8 2.3 1.1 7.8 1.1 4.2 0 11.3.2 15.8.5q13.6 1 13.4-1.7c-.2-2.7-34.6-3.6-36.3-1.8m53.4.2q-4.7 3 10.3 2.3c5.8-.2 11.8 0 13.3.5 1.8.6 6 .7 11.3.1 8.3-.9 9.8-1.3 8.8-2.3s-42.3-1.5-43.7-.6m53.4 1.1c-1.2 1.9.7 2.8 4.8 2.3q3.5-.5 3.4-1.7c-.5-1.5-7.3-2-8.2-.6m163.7 4.7c.3 1.5 1.5 1.9 7.1 2.1 6.2.3 6.8.1 6.5-1.5-.3-1.5-1.5-1.9-7.1-2.1-6.2-.3-6.8-.1-6.5 1.5m33.9 2.7c-1.7 2-1 2.2 8.6 3.1q7.2.6 7.8-.5 2-3-8.2-3.7c-5.5-.4-7.1-.2-8.2 1.1m-366.4.4q-1.5.4-1.7 1.3c-.2.9 3.6.9 8.1.9 6 0 8-.3 7.6-1.3-.3-1.1-9.6-1.7-14-.9m38.5 0c-5.3 1.5-2.1 2.5 7.6 2.3 10.8-.2 13.6-.7 12.6-2.2-.6-1-16.7-1.1-20.2-.1m51.6.3q-1.7 1-1.8 1.7c0 .7 39.1.4 39.8-.3q.3-.4-.3-1.4c-.8-1.4-35.3-1.4-37.7 0m105 .1c-4.1 1.1-7.4 4.1-6.3 5.8q.7 1.2 2.4-.4c1-.9 4.1-1.6 8.1-1.8 5.9-.3 6.5-.5 6.8-2.6.3-2-.1-2.2-3.5-2.1-2.1.1-5.5.5-7.5 1.1m13.8-.3q-.4.9 1.2 1.4c.9.2 2.5.8 3.5 1.2q1.7.8 1.7-.8-.2-1.3-2.2-2.1c-3.1-.8-3.6-.7-4.2.3m195.6.8c-4.9 1-1.4 2.8 5.8 3.1q11.7.4 9.4-1.7c-1.1-1-12-2-15.2-1.4m-246 1.5c.5 1.5 7.7 1.8 8.1.3.1-.6-1.8-1.1-4.2-1.3-3.2-.2-4.2 0-3.9 1m300.3-.3c-1.6 2.7 1 3.2 14.3 2.8 16.1-.6 14.9-.4 13.4-1.9a84 84 0 0 0-27.7-.9M69.3 561c-2.5 1-3.1 2.9-1 3.1a70 70 0 0 0 12.6-.7c1.9-1.8-8.1-3.9-11.6-2.4m-46.8.9q-.6 1.2-.4 1.5c1.1.9 21 1.3 21.5.4 1-1.5.4-1.6-10.2-2.4-7.4-.5-10.3-.3-10.9.5m106.8-.1c-2.9.4-3 1.9-.1 2.7 2.1.7 37.9-.3 38.7-1.1 1.5-1.4-3.1-1.9-18.7-1.9-9.7 0-18.7.1-19.9.3m72.9 3.6c-3 1.5-2.2 3.2 1.4 2.8l9-.5c5.8-.2 6.3 0 9.2 3.1q3 3.2 4.3 2.6c1.5-.9-4-5.8-8.8-8a24 24 0 0 0-15.1 0m135.5 2.4c-3.3.7-1.1 2.7 3.8 3.5q8 1.3 7.3-1.6c-.5-1.2-7.8-2.5-11.1-1.9m-285.7.8-8 1.6c-3 .6-8.4 1.2-12 1.2-5.1.1-6.5.4-6.5 1.6s1.5 1.5 8 1.4c4.4 0 11.6-.6 15.9-1.2 5.5-.8 10.5-.9 16.5-.2 5.5.6 11 .6 15.1 0l7.3-1q.7-.1.7-1.3c0-.9-3.6-1.2-14.3-1.3-7.8 0-15.5-.3-17.2-.6s-4.1-.4-5.5-.2m80.5 2.6c-2.7.3-10.6.4-17.4.1-10.4-.5-12.3-.4-11.9.8.4 1.1 3.9 1.4 17.9 1.5 20.6.2 30.1-.4 29.6-2-.4-1.2-10.4-1.5-18.2-.4m29.5-.3c-2.1.7-2.2.9-.8 1.5 2.2 1 6.8.4 7.1-.9s-3.1-1.6-6.3-.6m216 1.5c0 1.8 2.2 2.6 7.5 2.6 4.5 0 6.8-1.6 4.4-3.1s-11.9-1.1-11.9.5m79.7.3q-3.7.5-3.4 1.6.2 1.2 8.8.9c11.4-.4 12.9-.5 13.2-1.7.2-1-11.7-1.5-18.6-.8m20.9.1c-.7 1.3 2.8 2.2 8.2 2.2q4.5 0 4-1.3c-.5-1.4-11.3-2.2-12.2-.9m-67.3 1.4q.3 1.3 7.2 1.3c6.9 0 7-.4 7.3-1.3s-1.6-1.2-7.3-1.2-7.6.3-7.2 1.2m-179.7 1.7c-.8 1.2 1 2.5 7.4 5 13.2 5.1 42.7 6 41.8 1.2-.4-1.7-1.1-1.8-10.7-.2-5 .8-7.1.7-9.6-.3-1.8-.8-4.4-1.1-5.9-.9-3.7.8-14.5-1.5-18.2-3.8-3.5-2.2-4.1-2.3-4.8-1m-24.6 3.6c0 1.7 5 4.5 8 4.5 3.2 0 2.4-1.6-2-3.9-4.8-2.5-6-2.6-6-.6m146.4 3c-.9 2.2-.4 2.5 4.4 2.9q4.1.3 5.3-1c1.3-1.6.7-1.9-5.4-2.9-2.9-.5-3.9-.2-4.3 1M94 585q-.1 1.8-1.2 2c-.7 0-1.9.4-2.7.9-1.2.8-1.2 1.2-.2 2.5 1.6 1.9 13.3 2.2 17.7.6 1.5-.6 3.1-.7 3.5-.3s3.9.6 7.6.3c5.4-.4 6.8-.9 7.1-2.2.3-1.6-.8-1.7-11.9-1.7s-12.3-.2-13.6-2.1c-1.9-2.7-6.3-2.7-6.3 0m286.3-1.3c-2.8 1.1-1.3 3.3 2.1 3.3q6.6 0 6.6-2.6c0-1.4-5.9-1.9-8.7-.7M132.5 585c-1.1 1.7-.5 1.9 7 2.2 5.7.2 7 0 7-1.2s-1.5-1.6-6.7-1.8c-4.1-.2-6.9.1-7.3.8m21.6-.1c-2.6 1.6-.2 2.8 5.1 2.5 3.9-.2 5.4-.7 5.6-1.8.3-1.3-.6-1.6-4.5-1.6-2.6 0-5.4.4-6.2.9m256.6.7q-2.4 2.4 7.8 2.4c7.6 0 10.5-.6 10.5-2.1 0-1-17.3-1.3-18.3-.3m49.3.4c-2.6 1.7.9 3.1 6 2.4 5.4-.7 6.7-1.4 4.9-2.5a17 17 0 0 0-10.9.1m-238 2c0 .5 1.1 1.7 2.6 2.6 3.1 2.1 5.4.6 2.9-2-1.8-1.7-5.5-2.2-5.5-.6m-155 3.9c0 2.4 2 3.1 8.5 3q8.5-.2 8.5-3.4c0-1.2-1.7-1.5-8.5-1.5-7.7 0-8.5.2-8.5 1.9m364 2.4c0 1.1 1.8 1.6 7.3 1.9 7.9.5 10 .1 9.4-1.6-.2-.7-3.6-1.2-8.5-1.4-6.6-.2-8.2 0-8.2 1.1M94 595q.1.9 1.6 1 1.3-.1.9-1-.6-1-1.6-1-.8 0-.9 1m259.5 1q-1.5 2.8 6.7 3c4.3 0 6.9-1.3 5.4-2.7-1.3-1.3-11.3-1.5-12.1-.3m37.5 0c0 .5 1.6 1 3.5 1s3.5-.5 3.5-1-1.6-1-3.5-1-3.5.4-3.5 1m-261 1.4q.1 1.3 1.5 1.9c1.5.6 27.6-.1 28.3-.8q.3-.4-.3-1.4c-.4-.7-5.9-1.1-15.1-1.1-11.6 0-14.4.3-14.4 1.4m80.7-.7c-1.4 1.3-.6 2.3 3.2 4.3 3.6 1.8 6.1 4.3 11.9 11.9 1.1 1.4 2.4 2.1 3 1.7 2.1-1.3-2.5-8.3-9-13.6-6.1-4.9-7.8-5.7-9.1-4.3m13.3.7c0 1.7 2.7 2.9 3.5 1.6q.5-1 0-2c-.9-1.5-3.5-1.2-3.5.4m-129.7.2c-2.4.6-3.8 3.3-2.5 4.6.6.6 2.6.5 5-.2 2.3-.6 9.6-1 16.2-.9 12.3.1 14.2-.3 12.2-2.3a150 150 0 0 0-30.9-1.2m395.2.3c-1 1.7.4 3.1 3.1 3.1q2.8 0 2.2-1.8c-.4-1.9-4.3-2.9-5.3-1.3M228 601.4c0 1.5 2.4 2.8 3.4 1.9 1.3-1.4.5-3.3-1.4-3.3q-1.8.1-2 1.4m151 .6c-2.4 1.6.5 2.8 6.6 2.8 5.3-.1 8.4-1.1 7.1-2.4-1.1-1.2-12.1-1.5-13.7-.4m38.8-.4q-2.4 2.4 6.8 2.4c4.8 0 6.5-.3 6.2-1.3-.5-1.3-11.8-2.3-13-1.1m46.4.6c.9 2.7 10.8 2.9 10.8.2 0-1-1.5-1.4-5.6-1.4q-5.7 0-5.2 1.2m-230 5q.3 4.4 1.8 4.3c1.9 0 2.6-5.1.9-7.1q-3.1-3.7-2.7 2.8m31.5-3.5c-1.1 1.9-1.6 6.9-.8 8.2 1.5 2.3 3.1.2 2.8-3.9s-1.1-5.8-2-4.3m-133.5 1.2c-7.3.7-8.7 2.5-2.2 2.9 5.4.3 12-.9 12.3-2.3.2-1.2-2-1.4-10.1-.6m146.1 3.2c-1.6 1.6-1.7 4.9-.3 4.9s2.3-2.4 1.8-4.5q-.1-2-1.5-.4"/><path d="M239.1 610.2c-.4 1.3-1.1 4-1.5 6.1l-.7 3.8-3-2.6c-2.8-2.3-4.9-2.6-4.9-.5 0 .4 1.8 3 4 5.6 2.2 2.7 4.5 6.4 5 8.4 1.8 6 10.4 22.8 11.8 22.9 2.2.2 1.3-5-2-11.2-5.7-10.5-8.7-19-7.3-20.2.7-.5 1.6-4 1.9-7.8.6-5.7.4-6.7-.9-6.7-.9 0-1.9 1-2.4 2.2m78.5-.4a53 53 0 0 0-1 8.8 116 116 0 0 1-1.6 12.9c-2.1 9.6-2.2 10.5-1.2 10.5.6 0 1.6-1.9 2.2-4.3l2-7.2c1.5-5 2.4-21.5 1.2-21.5q-1 .1-1.6.8m124.7.5c-.9 1.4 1.3 2.9 3.8 2.5 1.2-.1 2.4-.8 2.6-1.4.5-1.4-5.6-2.5-6.4-1.1m-190.6.4c-.4.3-.7 4.4-.7 9 0 6.7.3 8.3 1.5 8.3q3 0 2.1-11.1l-.5-6.7c-.2-.5-1.8-.2-2.4.5m5.9 1.4a180 180 0 0 0-2.2 27.4q.6 1.3 2 1.5c1.6 0 2.9-10.9 2.7-22-.1-6.2-1.5-10-2.5-6.9m127.6.6c.3 1.5 1.6 1.9 6.6 2.1 4.8.2 6.2 0 6.2-1.1 0-1.6-4.1-2.7-9.7-2.7-2.7 0-3.4.4-3.1 1.7"/><path d="M245.6 612.8c-.2.4-.5 3.4-.5 6.5 0 4.3.4 6 1.6 6.4a2 2 0 0 0 2.4-.8c.8-1.3.2-10.6-.8-12.2-.6-.9-2.1-.9-2.7.1m122.4 1.7q-.1 1.7 2.5 1.3c1.4-.2 2.6-.8 2.6-1.3s-1.2-1.1-2.6-1.3q-2.6-.4-2.5 1.3m116.2-.5a6 6 0 0 0-2.8 2.7c-.3 1-1 2.6-1.5 3.5-.5 1-.9 2.5-.9 3.3q.1 1.6-3.9 1.5c-2.2 0-4.3.4-4.6 1-.7 1.1-5.8 1.4-6.8.3-1.5-1.4-6.2-1.1-9.8.6-2.1 1-4.1 1.5-4.6 1-1.3-1.3-11.2-1.4-12.5-.1-1.5 1.5 0 3.2 3 3.2 4.6 0 10.2 1.2 10.2 2.2 0 .5-3.5.6-8 .2-7-.6-8-.5-8.6 1-1.1 3 .9 3.6 12.9 4.3 6.4.3 11.7.8 11.7 1.1q-.1.5-1.7 1.7c-3.2 2.4-.8 4.5 5.4 4.7 13.7.3 21.3 1 18.6 1.5q-2.3.5-2.3 2.4c0 1.5.7 1.9 3.3 1.9 1.9 0 6.8.3 11 .6l7.7.7v-2.7c0-2.6-.1-2.6-7.5-2.6-4.1 0-7.5-.4-7.5-.9s3.4-1.2 7.5-1.6c7.3-.7 7.5-.7 7.5-3.3v-2.7l-9.6.2c-7 .1-9.7-.2-10-1.2-.3-.7-2.5-1.6-5-2-3.5-.5-4.4-1-4.4-2.6 0-2.1 2.9-2.6 4.6-.9a48 48 0 0 0 12.7 2.3l11.7 1.3v-5.7c0-4.2-.5-6-1.9-7.3a9 9 0 0 1-2.5-4.2c-.4-1.4-2.2-3.2-4.6-4.4-2.1-1.1-4.1-2-4.2-1.9zm4.4 7.5q.7 1.4 3.6 1.2c2.6-.2 3.2.3 4 2.6 1.2 3.4.3 4.7-1.6 2.2q-1.4-1.7-2.9-1.2t-2.3-.4c-.3-.5-1.4-.7-2.4-.4q-3.5 1-2.3-3.3c.6-2.5 3.1-2.9 3.9-.7m-27.6 9.1c0 1.7-2.2 1.4-2.8-.4q-.2-1.1 1.2-1.2 1.5.1 1.6 1.6"/><path d="M471.6 615.9q-.4 1 .8 2 1.3 1.3 2.5-.2 1-1.4.4-2c-.9-1-3.1-.9-3.7.2m-53.1 3.1q-1.5 2.8 4 2.5 6.1-.6 5-2.6c-.8-1.2-8.2-1.2-9 .1m-39.1 1.1c-1 1.6.3 2.2 6 2.7 5.5.4 8.1-.9 4.9-2.6-2.4-1.3-10.1-1.3-10.9-.1m71.6-.1c0 .5 1.4 1 3 1l3.7.1q.7 0 1.1-1 .2-1-3.7-1.1c-2.3 0-4.1.4-4.1 1m-334.5 2c-1.2 1.9.2 2.3 8.1 2.7 6.7.3 7.5.2 7.2-1.3-.2-1.4-1.7-1.8-7.4-2.2q-7.1-.4-7.9.8m291.2 3a11 11 0 0 0-3.2 5c-.6 2.8-1 3-5.1 3-2.5 0-4.4.5-4.4 1.1q-.2 1-5.2.9c-7.4-.3-7.8-.2-7.8 2 0 2.1-.8 2.4-9.5 2.4-4.3.1-5 .4-5 2.1 0 1.6.8 2.1 4.4 2.3 2.4.2 4.7 0 5.2-.5s6.5-.5 13.5 0c9.2.6 13 .5 14-.4 1.8-1.5.1-3.9-3-4q-1.5-.2 1.9-.9c2.2-.4 4.5-.5 5.2-.3s1.9.1 2.6-.4c.6-.5 4.6-1.1 8.7-1.2s7.9-.6 8.4-1.1c1.4-1.4-.4-3-3.5-3q-2.8 0-2.9-1.4c0-.8-1.2-2.8-2.6-4.5-3.1-3.7-7.8-4.2-11.7-1.1m5.8 4c-.3.5-1.1 1-1.6 1q-.9-.1-.4-1a2 2 0 0 1 1.6-1q.9 0 .4 1m-148.4-2.2c-2.3 4.2-.2 10.6 2.9 8.7 1.5-.9 1.2-6.8-.4-9-1.3-1.8-1.4-1.8-2.5.3m106 .5q-2.2 2.7 3.3 2.7c3 0 6.5-1.5 5.6-2.3-.3-.2-2.1-.7-4.1-1.1q-3.7-.6-4.8.7m-99.1 2.6a95 95 0 0 0-.4 24.5q.6 1.5 2 1.6c1.1 0 1.4-2.7 1.4-14 0-13.6-.7-16.4-3-12.1m-38.4 2.9c-.6 1 1.9 12.8 4.9 22.7 1.3 4.4 3.3 12.3 4.5 17.5 2.4 10.8 5.4 21 7.1 24.3a40 40 0 0 0 9.6 11.7c2 0 1.6-1.2-2.7-7.9a75 75 0 0 1-10.1-28.5c-1.2-5.5-3.4-14-5-18.7a59 59 0 0 1-2.9-11.3c0-4.9-4-12.1-5.4-9.8m174.7 10.9c-2 .7-1.5 3.1.7 3.8 1.9.6 7.5-.1 9.3-1.2 3-1.8-6-4.1-10-2.6m14.3 0q-2.4 2.7 4 3.8c4.4.6 8.5-.9 6.7-2.5-1.1-1-9.9-2.1-10.7-1.3M311.7 648c-.4 1.6-1.5 4.9-2.6 7.2-2.3 5.3-5.4 19-4.9 22.1.4 2.2.4 2.2 1.5-.3.6-1.4 2.1-7 3.4-12.5a122 122 0 0 1 3.6-13.2c1.5-3.7 1.7-6.3.4-6.3-.5 0-1.1 1.3-1.4 3m68.3-2c-2.5 1.7.7 3 7.2 3 5.7 0 8.3-1.4 5.7-3.1-1.9-1.2-11-1.1-12.9.1m-61.2 3.5q-1.2 2.6-.1 3.6c1.6 1.6 3.3.2 3.3-2.6 0-3.4-1.8-4-3.2-1m.2 9.5c0 2.3 2.5 2.7 3.3.6q1-2.5-2-2.6-1.2.2-1.3 2m1.5 6.4q-1.7 1.3-1.2 3 1.5 3.3 3.8-.5c1.4-2.8-.1-4.3-2.6-2.5m-108.8 6.3c-.4.3-.7 2.1-.7 4 0 4.2 2.6 4.5 3.5.3.9-3.9-.8-6.4-2.8-4.3m108.7 2.8q-.5 1.4.1 2.5c.9 1.4 4.5-.6 4.5-2.5s-3.9-1.9-4.6 0m.6 6c-1.2 1.4-.6 3.5 1 3.5 1.4 0 4.1-3.1 3.5-4.1-.9-1.4-3.1-1.1-4.5.6m-16.4 2.2q-.5.6-.6 2.2c0 .8-.9 3.3-2 5.5-2.5 5.3-2.9 8.9-1 9.3 1.1.2 2.2-1.7 3.8-6.6a52 52 0 0 0 2.2-8.4c0-1.8-1.4-3-2.4-2m17.2 4.9q-4.3 2.3-1.9 3.9c1.2.7 9.1-3.3 9.1-4.6 0-1.4-4.2-1-7.2.7m-104.6 2a4 4 0 0 0 5.4 3c1.8-.7 1.8-.9-.5-2.7-2.9-2.3-5.4-2.5-4.9-.3m3.8 10.8c0 1.5 3.7 3.2 4.7 2.2q.5-.6 0-2.1c-.8-1.9-4.7-2-4.7-.1m91.4 2c-.8 2.1.3 4.9 1.6 4.1.5-.3 1-1.5 1-2.5 0-2.5-1.8-3.6-2.6-1.6m.4 8.2c-4 2.1-3.5 3.6 1 2.8s5.2-1.2 5.2-3-2.7-1.7-6.2.2m-90.6 1.9c.3 1.8 1.7 2.9 5.2 3.9 1.4.5 1.6.9.6 2-1.7 2.1 2.4 4.5 9 5.3 5 .6 5.2.5 4.5-1.5-.7-2.5-.6-2.6 3-1.2 2.2.9 2.6.7 2.3-.7q-.3-1.6-10.3-5c-14.3-4.8-14.8-4.9-14.3-2.8m71.1 4.5c-2.6 1.1-3 2.8-.8 3.6 1.8.7 6.8-2.3 6-3.6q-.9-1.8-5.2 0m15.2.9c-5.4.9-6.9 1.9-5.5 3.6.9 1.1 1.7 1.1 3.6.3 2.7-1.3 4.7-.2 2.4 1.2-1.9 1.2-11.3 4-13.4 4-.9 0-5.3 1.1-9.9 2.4-9.3 2.7-13.9 3.2-17.9 2.1-3.7-1-7.8.1-7.8 2.1q-.1 1.8 2.7 1.1c1.5-.3 3.7 0 4.8.5q4.7 2.5 16.2-1.6A85 85 0 0 1 297 730a60 60 0 0 0 18.6-7.2c.6-.4.9-1.9.6-3.3-.5-2.6-.9-2.7-7.7-1.6m-40.9 2c-1.1 1.7 2 3 6.2 2.4 6.2-.8 5.6-3.3-.7-3.3-2.8 0-5.2.4-5.5.9"/><path d="M282.8 723.8c-4.2 1-8 2.1-8.5 2.5-1.7 1.8 2.2 2.4 7.5 1.2 7.4-1.6 9.2-2.4 9.2-4.1q0-1.3-.2-1.3zm-36.1 5.8c-1.1 1.2 1.3 4.4 3.3 4.4 2.6 0 2.6-2.6.1-4-2.3-1.2-2.6-1.2-3.4-.4m221.5 50.7c-3.9 1.4-5.2 3.2-5.2 6.9 0 2.4-.5 2.7-4.5 3.3q-8.1 1.4-7 4.7c.8 2 6.8 5 9.2 4.6q1.8-.3 2.1 1.9c.3 2.1-.1 2.3-3.6 2.3-4.4 0-10.2 1.7-10.2 3s4.2 4 6.5 4.1c1.1 0-1 .7-4.7 1.4-7.7 1.6-8.8 2.1-8.8 4.1 0 1.8 1.4 1.8 3-.1.9-1.1 3.4-1.5 10-1.5h8.7l.2 13.7c.1 13.1.9 16.9 3.1 14.7.5-.5 1.1-7 1.2-14.4l.3-13.5 11.8-.6c11.9-.7 14.5-1.5 13.4-4.2-.7-1.9-5.2-2.7-16.1-2.8-10.4-.1-9.3-1.7 1.2-1.8 4.6-.1 6.2-.4 5.9-1.4-.3-.8-2.9-1.2-8.6-1.2-7.7.1-8.2-.1-7.9-1.9a2.5 2.5 0 0 1 2.3-2.2l10.8-.2c7-.2 8.7-.5 8.7-1.7s-1.9-1.5-11-1.5c-8.6 0-11-.3-11-1.3 0-1.1 1.6-1.3 7.5-.9 6.5.4 7.5.2 7.5-1.2 0-1.2-1-1.6-4.4-1.6-7.4 0-10.6-1-10.6-3.3q0-2.3 1.2-.9c1.7 1.7 11.3 1.5 14.8-.3s3.9-4.9 1.1-6.5a35 35 0 0 0-16.9.3M482 783q-.2.9-1.2 1.1l-7 .5q-9.9.8-2.5-1.5c4.4-1.3 10.7-1.3 10.7-.1m-19 11.5q0 1.5-2.9 1.5c-3.9 0-4.9-1.7-1.4-2.3l3.6-.6q.6.1.7 1.4m-1.2 13.2c-1 .2-2.8.2-4 0q-1.8-.4 1.7-.4 3.5-.1 2.3.4m26.2 3.9c0 .2-2.4.3-5.2.3-5.2-.2-5.3-.2-1.3-.8 3.7-.6 6.5-.4 6.5.5m-14.3 0q-.7.5-1.9.1t.6-.6q1.8 0 1.3.5"/><path d="M473.4 819.1c-.8 1.3 2.4 4.1 4.1 3.6q.9-.5 1-2.3c0-2.2-3.9-3.2-5.1-1.3"/></svg>