<svg xmlns="http://www.w3.org/2000/svg" width="666.7" height="1170.7" viewBox="0 0 500 878"><path d="M129.2 2.9a10 10 0 0 1-4.1 4.1q-5.7 2.4-12.8 16c-4.3 8.3-4.5 11.3-1.2 19.4 3.4 8.4 5.7 9.8 14.2 8.8 3.7-.5 6.7-.7 6.7-.5a64 64 0 0 1-7.6 10A77 77 0 0 0 114 81.1a13 13 0 0 1-1.6 5c-1.2 2.4-1.6 6.6-1.6 18.7-.1 15.6-.1 15.7 3.3 23.7a73 73 0 0 0 10.1 18.3q.7.4.8 1.8c0 .7 1.6 3.8 3.5 6.8 6.6 10.4 30.4 24.6 41.2 24.6 2.9 0 3.6.5 5.7 4.7l5.7 11.3a38 38 0 0 1 2.9 25.8c-2.1 12.9-7.9 24-14.3 27.3-2.2 1.2-4.3 3.2-4.8 4.7a16 16 0 0 1-4.9 5.4l-4 2.8-2.3-3.8c-1.3-2-3.4-5.7-4.7-8.2a55 55 0 0 0-4.6-7.5c-2-2.7-2.1-3.2-.8-4.9a13 13 0 0 0 1.4-6.2c0-3.4-.4-4.4-2-4.9q-2-.6-2-3.1c0-3-1.7-6.6-3.7-7.7q-1.4-.8-.3-2.7a7 7 0 0 0 .5-4.3c-.5-2 .3-2.7 7.4-6.2q8-3.8 7.1-4.9c-.9-.9-8.4.7-10.5 2.4a265 265 0 0 1-26 13.2 95 95 0 0 0-12 6.2c-7.4 5-19.9 13.1-20.7 13.4-.4.2-1.3-.9-2-2.5-.7-1.5-2-4-3.1-5.6-2.7-4-1.9-7.2 1.8-7.3 1.7-.1 5.9-1.3 9.4-2.8 3.6-1.4 7-2.6 7.7-2.6.6 0 1.7-.7 2.5-1.6 1.6-2 12.3-7.4 14.5-7.4a54 54 0 0 0 15.9-9.5 51 51 0 0 1 6.5-4.3c1.4-.6 3.5-1.9 4.7-2.8 2.1-1.5 2.3-1.5 3.6 1.8 1.7 4 6.2 7.9 8.3 7.1l1.4-.7-2.8-7.1c-2.8-6.8-3-7-6.7-7.3-2.9-.3-4.5.3-7.4 2.6a58 58 0 0 1-13 8.2c-.5 0-2.2-2.4-3.9-5.3a71 71 0 0 0-6.9-9.7c-2.1-2.5-5.6-7.1-7.7-10.3-2-3.2-4.7-6.6-5.8-7.6-1.8-1.7-1.9-2.4-.9-5.4.6-1.9 1-4 .7-4.8l-1-4.2c-.8-3.6-7.9-8.7-12.1-8.7-8.8 0-13.3 5.5-11.9 14.9.9 6 1.8 7.7 4.8 8.5 2.2.5 3 2.1 6.1 11.9 1.9 6.1 4.6 14.1 5.9 17.7s3 8.5 3.7 11 1.7 5.1 2.3 5.8q1 1.4-.5 2.3c-3.2 2.2-9.1 5-15.6 7.4-6.8 2.6-10.9 6-9.4 8 .4.5 1.6 3 2.5 5.5 1.8 4.5 4.3 7 8.4 8.2 1.9.5 3.4-.3 7.5-4.1 2.9-2.5 6.6-5.2 8.3-6 2.9-1.1 3.3-1 6.1 1.6 1.7 1.5 3.8 4.3 4.7 6s2.3 3.3 3.1 3.3 2.1 1.5 2.8 3.2c.8 1.8 2.1 3.9 3 4.6.9.8 2.8 4.5 4.3 8.3 1.4 3.9 3.7 8.3 5.1 9.7 1.4 1.5 5.4 8.5 8.8 15.5a234 234 0 0 0 9.4 17.5c3.2 5 4.5 12.2 2.3 12.9q-1.1.4-.6-1.1c2-5.3-14 3.2-22.8 12.2-5.1 5-8.1 9.3-12.2 17.3-3 5.9-5.8 10.4-6.1 10-.4-.3-3.4-.6-6.7-.6-5.3 0-6.2-.3-8.4-2.8-1.3-1.5-2.4-3.4-2.4-4.1s-.7-2.7-1.5-4.4c-1.6-3-1.7-3.1-8.8-2.9-9.3.1-13.4-2.1-15.9-8.6-1.2-3.3-1.3-4.8-.5-5.6.6-.6 1.1-2.3 1.2-3.8 0-2.4.5-2.8 4.4-3.6 8.3-1.7 18.3-10.1 20.3-17.2.6-2.2 2.2-5 3.4-6.2a23 23 0 0 0 3.2-3.9c.8-1.5 1.4-1.5 6.3.2 9.7 3.4 30.4 2 31.5-2.1q.2-1-.9-2.7c-1.2-1.4-2.4-1.5-12.3-.5a55 55 0 0 1-27-2.9c-1.7-.5-2.2 0-2.7 2.3a7 7 0 0 1-3.6 4.5q-3 1.6-4.1 5.6t-5.7 8.6c-4.3 4.3-6.8 5.5-14.6 7.1a11 11 0 0 0-4.9 3c-2.9 3.4-11.1 5.9-18.5 5.8-5.3-.1-6.8-.6-11.7-3.8-3.1-2-7-5.5-8.8-7.8a99 99 0 0 0-6.5-7.6c-3.1-3.2-3.6-3.4-7.1-2.5-3.3.8-3.7 1.3-4 4.5-.3 3.5-.2 3.6 2.8 3.1 2.7-.4 3.8.2 7.1 3.7a50 50 0 0 0 8.2 6.8l11 7.1 6.8 4.4 8.2-.4c4.5-.3 9-.8 10-1.2 1.5-.7 1.7-.3 1.7 3.1q0 4-1.8 5.7c-2.6 2.3-5.2 12.3-9.2 35.1-9.8 56.2-12.6 72-14.4 81a858 858 0 0 0-8.6 49c-3 24-5 36.5-7.5 48-1.6 7.4-3 28.7-1.7 26.5 1.5-2.4 8-36.1 10.6-55l3.1-22a586 586 0 0 1 9.5-48.6c1.1-4.5 2-9.4 2-10.9s2-12.9 4.4-25.3 5.4-28.7 6.6-36c3-18.6 6.7-34.4 8.4-36.1 1.3-1.2 1.9-1 4.6 1.3 3.6 3 5.3 3.5 13.5 3.8 5.6.3 6 .5 6.3 2.8q.8 7.2 6.3 10.6c4.7 2.9 7.3 3 13.2.5 2.5-1.1 4.7-1.8 5-1.5.2.2-.4 2.8-1.4 5.7a62 62 0 0 0-2.2 10.2c-.3 2.7-1 6.3-1.6 7.8-2.2 5.7-1.3 16.2 2.9 32.7a345 345 0 0 1 4.4 20.8c2.6 14 7 23.8 22 49.1a147 147 0 0 0 25.6 33.6l15.6 16.4a354 354 0 0 0 21.1 20.8l2.2 1.8-5.4 9.2c-3 5.1-9.2 15-13.8 22l-13.3 20.7-9.6 15.5a619 619 0 0 0-25.2 50.1c-2.9 8.1-3.5 13.7-1.7 15.4q3.6 3.3 9.1.5c6.4-3.2 12.4-10.7 32.3-40.1 2.8-4.2 5.2-7.6 5.3-7.5s-1.3 6.3-3.1 13.7a544 544 0 0 0-8 41 1091 1091 0 0 1-16.7 77.5l-4.4 17.2c-1.9 6.7-3.7 14.1-4 16.6-.8 5.7 1.1 7.2 2.5 2A2801 2801 0 0 0 161 709c1.1-5.2 2.5-12.7 3-16.5 2.9-20.9 7.6-41 13.5-57.5.7-1.9 1.6-5.5 2-8 .9-5.8 5.8-15.6 9.8-19.8 1.7-1.7 3.7-4.4 4.3-6 2.3-5.2 1.5.8-2 15.3-4 16-7 31.2-8.6 43.5-.6 4.7-1.6 10.5-2.1 13-1.2 4.9-2.7 13.3-6.5 34.5a1394 1394 0 0 0-7.9 47c-.7 5.5-2.7 17.2-4.4 26L158 803c-.6 3.6-2.7 13.7-4.7 22.5-5.1 22.8-5.2 23.3-3.8 25.1 1 1.5 1.5.5 3.3-6.3 1.2-4.3 2.2-8.9 2.2-10.2s1.1-7 2.4-12.9 2.8-14.1 3.1-18.2 1.3-8.9 2-10.5c.7-1.7 1.5-5.3 1.9-8s1.5-9.7 2.6-15.5l4-25c2.2-14.9 3.7-23.3 9-52 3.7-19.7 5.5-30.6 6.9-42 .6-4.7 1.6-9.9 2.1-11.5l4.6-17 5-19.6c.8-3 1.4-7.1 1.4-9q.2-3.4 4.5-10.4l7.2-11.7c5.5-9.5 5.5-6.7-.2 21.7a453 453 0 0 0-7 40l-2.6 19a478 478 0 0 0-2.4 20 632 632 0 0 1-10.7 69c-4.5 21.4-5.5 28.5-4.1 28.5 1.1 0 2.4-5.2 5.3-21a816 816 0 0 0 10.5-66 1198 1198 0 0 1 12-80.5c4-22.4 6.5-32.5 8-32.5.3 0 3.3 1.9 6.6 4.3 3.3 2.3 7.5 5 9.2 6 3.7 2 3.4-2.8 3.3 44.7 0 49.9.5 77.9 1.5 92l1.1 15.5c.1 6 3 18.2 4.8 19.9 1.6 1.7 2.2 1.8 5 .6 6.9-2.9 8-8.2 8.5-42 .2-14 .7-33.4 1.1-43s.6-30.4.5-46.1l-.2-28.6 2.6-1.7c1.4-.9 6.2-4.6 10.6-8.2 4.5-3.5 8.4-6.4 8.8-6.4 1.2 0 18.7 27.2 23.8 37 2.7 5.2 8.9 15.6 13.8 23s10.9 17.3 13.3 22a92 92 0 0 0 13.8 20.2c5 4.4 10.2 4 12.9-1.1 1.8-3.6 1.4-6-2.5-14.6a58 58 0 0 1-3.3-8.7c-.6-2.3-3.2-7-11.1-20.1-1-1.8-4.4-7.9-7.4-13.7s-7.8-14.6-10.7-19.5l-10.4-18.8c-4.6-8.6-5.1-10.2-4.2-12.5.9-2.5 1.8-5.8 3.5-13.5.4-1.5.2-2.7-.3-2.7-1 0-3.4 6.8-4.6 12.9l-.7 3.4-3.1-5.3c-3-5.2-3-5.3-1.3-8.5 1-1.8 5-6.9 8.9-11.2a175 175 0 0 0 23.3-29.6c3.4-5.5 7.8-11.9 9.9-14.1 3.9-4.4 8.3-11.5 14.7-23.8 2.2-4.3 4.4-8 4.9-8.4.9-.5 3.6-6 8.8-18 7.7-17.8 12-58.5 8.6-81.3-2.2-14.7-3-18-7.7-30.1-4-10.3-4.3-10.7-15.2-21.8a111 111 0 0 0-12.8-12c-1.5-.6-1.2-1.7 2.6-9.3 2.4-4.7 5.8-10.8 7.7-13.5 1.8-2.7 5.1-8.3 7.3-12.4 2.1-4.1 5.6-9.4 7.7-11.7 2.2-2.4 3.9-5 3.9-5.9a6 6 0 0 1 1.7-3.6c.9-1 2.1-2.6 2.7-3.7l4.4-6.1a17 17 0 0 0 3.2-6.7q.1-2.1 1.4-2.3c.7 0 1.9-.7 2.6-1.5 1.9-2.2 3.6-1.9 9.3 2 9.4 6.4 9.3 6.2 7.4 8.3-.9 1-1.7 2.2-1.7 2.5 0 .4-3.2 7.8-7.1 16.5a302 302 0 0 0-16.6 42.9c-.4 2.5-.2 3.3.9 3.3.9 0 2.4-2.9 4-7.8a372 372 0 0 1 12.2-32.7l6.5-13.5c4.6-10.2 5-10.6 8.9-11.8 4.7-1.4 5-1.8 7.4-8.7s2.4-7.2-2.3-9.6l-4.2-2.1 4-3.6c2.2-2.1 4.7-4.8 5.6-6.2 1.2-2.2 8.4-5.7 9.4-4.7.1.2-.6 2.7-1.7 5.5-2.3 6-2.5 10.2-.8 14.8 1 2.8.9 3.6-.4 5.1-3.4 3.7-10.2 21.9-8.6 22.9 1.2.8 1 1.1 5.1-9 2-4.9 4.5-9.7 5.6-10.8 2-1.8 2.1-1.7 5.3 1.1 1.8 1.5 4.3 3.3 5.5 3.9q2.1 1.2 1.6 3.1c-.2 1 .2 3.2 1.1 4.9s1.6 3.5 1.6 4-3.3 1.2-7.2 1.5a54 54 0 0 0-20.3 6c-1.6.9-4.1 2.2-5.5 2.8a66 66 0 0 0-15.1 17c-2.8 5.4-4.3 13.5-3 17.1 1 2.7.8 3.3-1.4 5.4q-4.3 3.9-1 5 3.3 1.5-1 3.6c-5.9 2.7-8.3 19.2-4.1 28 2.5 5.3 9 12.3 12.6 13.8q3.1 1.3 5.4 5.9c6.6 12.9 29.3 23.3 49.1 22.4 8-.4 18.6-3.1 22.1-5.8 1-.8 2.7-1.5 3.6-1.5 1 0 4.5-2.8 7.8-6.2 5.4-5.5 6-6.5 6-10.2-.1-4.1-.1-4.1-1.8-1.9l-4.2 5.7c-3.4 4.8-9.3 8.9-11.8 8.2a3 3 0 0 0-3.2.9c-.7.8-2 1.5-2.9 1.5s-2.2.5-2.7 1-5 1.5-9.8 2c-7.1.9-9.8.7-14.9-.6a68 68 0 0 1-24.1-12.1c-4.7-3.7-5.6-5-5.6-7.6 0-4.2-.7-5-5.8-6.7a21 21 0 0 1-12.2-12.8c-.7-2.2-1.1-7.8-.9-13.1.4-8.8.5-9.4 3.2-11.6 2.6-2 2.8-2.4 1.5-4.4s-1-2.4 1.1-4.2c2-1.7 2.2-2.5 1.7-6.3-.7-4.6.7-12.1 3.1-17 1.3-2.6 4.4-6.1 11.9-13.7a36 36 0 0 1 22.5-7.9c4.4 0 8.1-.6 10-1.6 2.9-1.5 3-1.7 2.2-5.7-.4-2.3-.8-6.1-.8-8.4 0-3.8-.2-4.2-2-3.7-2.8.7-7.6-1.2-9.4-3.9a28 28 0 0 1-2.5-23.4c1-1.9 3.9-5.3 6.5-7.6 2.7-2.3 4.9-4.6 4.9-5.1s-1.4-.6-3.2-.2c-3.1.6-3.1.6-1.3-1.4 1-1.1 4.7-2.9 8.3-4 12.2-3.8 27.6-15.5 32.2-24.6.8-1.6 2.4-4.3 3.6-5.9a31 31 0 0 0 6.4-15c0-2-.3-3.4-.8-3.1s-2.3 3.5-4.2 7.3-3.7 7-4.1 7.3a37 37 0 0 0-5.9 8.8c0 1.2-1.3 3-6.7 9.2a79 79 0 0 1-28.7 15c-6.4 1.9-8 2.8-8.8 4.9-2.4 6.5-9.9 11.6-15.5 10.5-3.6-.7-3.6-.7-3 2.3.5 2.6 0 3.7-3.2 7.2-4.3 4.7-5.6 4.9-11.1 2.1-2.2-1.1-4.6-2-5.4-2-3.3 0-2.8-4 1.2-10 5.1-7.6 9.1-18 10.6-27.8 1-6.7 1.5-7.7 3.3-8 3-.4 9.3-7.7 9.3-10.6 0-7.4-6-13.2-14.7-14.2-5.8-.7-8.7.5-10.7 4.4q-3.7 7.3-1.2 12.3c1.9 3.9 1.9 3.9.3 3.9-2.2 0-5.5 4.1-15.8 19.7a132 132 0 0 1-11 15.3c-1.8 0-9.4-4.2-14.4-8l-7.7-5.4-2.7-1.7-3.5 4.8c-3.4 4.7-5.3 10.4-4.1 12.3.3.6 1.6 1 2.8 1s5.9 1.9 10.5 4.2c8 4.1 8.2 4.3 8.2 7.9q0 3.9-1.8 4.1-1.7.6-4.1 7.4c-1.3 3.8-3 7.6-3.7 8.5-.8.8-1.4 3.2-1.4 5.2 0 3.7-.7 5.2-10.9 23.5-2.9 5.2-6.1 11.7-7.2 14.5a130 130 0 0 1-6.8 14.2c-3.6 6.8-5.3 9-6.7 8.8a90 90 0 0 0-36.2 4.5 94 94 0 0 0-23.8 14.4l-4.2 3.9-.7-3.1c-.4-1.6-.4-7.4-.1-12.8.4-5.3.3-18-.2-28.1a297 297 0 0 1 0-27c.4-4.7.8-13.1 1-18.6.2-8.1.6-10 1.8-10q1.4.1 1.2 1.7a55 55 0 0 0 10.7 18.1 34 34 0 0 0 21.9 8.8c2.1 0 8.4-.4 14.2-.9s11.8-.6 13.3-.1c2.8.8 5.7.3 5.7-1a34 34 0 0 0-8.3-2.5c-8-1.7-8.6-1.7-11.7-.1-2.6 1.4-5.1 1.6-11.1 1.3a24 24 0 0 1-18.7-8.7 45 45 0 0 1-8.2-17c0-4.5-1.3-5.4-6.3-4.9l-4.6.5.1-11.9c.1-6.5.5-12.1 1-12.4 1.8-1.1 2.8-5.5 1.8-7.5-.8-1.4-.7-2.6.4-4.7.8-1.5 1.2-4 .9-5.5-.5-2.8 2.1-9.7 3.7-9.7s19.5 6.2 20.8 7.3c1 .8 2 .4 4-1.6 2.4-2.4 2.7-3.6 3-10.6.6-12.4 1.4-12-18.9-11.3l-17.2.5.9-2.9c2-6.4-1.1-31-4.8-37.8-.7-1.4-.4-2.4 1.6-4.5q8.3-8.6 1.2-15.7c-4.6-4.6-6.1-4.3-3.6.7 2.5 4.8 2 8.5-1.7 12.9-3 3.6-5.8 3.8-10.4.7-3.1-2.1-3.4-2.7-3.4-7.5.1-4.2.6-5.7 2.8-8 1.5-1.5 2.7-3.1 2.7-3.4 0-1.6-4.3.8-7 3.9-4 4.5-4.3 11.7-.5 16.1 2.3 2.7 2.4 3.4 1.5 8.3-1.6 9.1-3 20-3.6 28.6-.7 8.3-.7 8.3-3.5 8.3-1.5 0-7.1-.7-12.4-1.6s-9.8-1.4-10.1-1.1c-2 2-2.2 20-.2 22.4q1.2 1.5 4.2.9c4.8-.8 11.8-2.3 14.6-3 2.1-.5 2.8-.1 4.3 2.5.9 1.7 1.7 4.1 1.7 5.3s.7 3.2 1.6 4.4c1.4 2.1 1.4 2.2-.5 2.2q-3.8.1-2.3 3.7c1.8 3.4 3.2 8.9 3.2 12.1s-.1 3.2-2.3 1.7c-2.2-1.4-2.8-1.4-6.8.1a26 26 0 0 1-18.7-1.3 21 21 0 0 1-10.2-13.5c-2.2-7.3-2.5-7.5-10.7-7.7a80 80 0 0 1-41.2-14.1c-.6 0-2.4-1.7-4-3.8-13-16-14-17.5-16.6-25-1.5-4.2-3.9-10.2-5.2-13.2a29 29 0 0 1-2.4-14c-.1-4.7.2-9.9.6-11.5 1.5-6.5 6.3-21.3 8-24.6a89 89 0 0 1 11.8-15c1.6-1.2 3.7-6.3 2.9-7.1-.4-.4-2.4-.3-4.5.3-7.4 2-17.3-3.3-19.7-10.6-1-3-.8-4.2 1.6-9.7 4.9-11.1 9.6-17.1 15.9-20 1.1-.5 3-2.5 4.2-4.4l2.2-3.4h-3.2c-2.6 0-3.5.6-4.5 2.9M248.8 111a72 72 0 0 0 1.8 9.5c1 3.7 1.7 10.4 1.8 17.5l.1 11.5-3.8-.1c-2.2-.1-4.3-.8-5-1.7a9 9 0 0 0-3.7-2.6c-2.5-1-2.5-1 .6-1q6.9-.1.9-3.7l-3.6-2.1 3.1-.6q5.8-1.4-.2-4.2l-3.3-1.3 2.7-1.1c2.9-1.1 3-4.1.2-4.1-2.2 0-1.7-3.1.6-3.7s2.7-3.1.5-3.9q-3-1.2.2-4.6c1.3-1.4 1.4-2.1.5-3-1.8-1.8-1.5-2.8 1.1-3.8 3.8-1.5 5.2-.8 5.5 3m-155 30.4c2.4 2.4 2 8.1-.7 11-3.6 3.8-6.9 3.9-11.3.3q-7-5.5-1.2-11.4c2.2-2.2 3.2-2.5 7.1-2 2.5.2 5.2 1.2 6.1 2.1m323.8 4.1c4.2 1.7 7.1 7.3 5.4 10.4-1 1.9-10.8 8.1-12.7 8.1-1.3 0-4.3-8.9-4.3-12.8q0-10.7 11.6-5.7M223.4 153a395 395 0 0 0 59.5-.5c1.6-.5 1.9.3 2.5 6.6.3 4 .4 7.4.1 7.7-.2.3-2.4-.2-4.7-1.1-8.4-3-20-4.2-39.8-4.2-14.2.1-21.2.5-25.7 1.7-3.4.8-6.5 1.3-6.8 1a17 17 0 0 1-.5-5.4c0-4.6.1-4.8 2.8-4.8 1.5 0 3.4-.5 4.2-1 1.9-1.2 5.2-1.3 8.4 0M98.2 163.2c4.8 6 5.1 6.7 3.7 8.4-1.6 1.9-.4 3 1.6 1.4 1.2-1 1.6-.9 2.2.6q.5 1.7-.4 2.1c-2.1.7-4.8 3.2-4.2 3.8.4.3 2.3-.1 4.3-.9l3.6-1.5 2.5 3.7c2.9 4.2 3.1 5.8 1 6.6q-1.4.6-1.5 2.1-.2 1.8 1.9.5c3.5-1.8 3.6 1 .2 3.7-3.3 2.6-3.4 5.1-.1 3.3 4.9-2.6 2.8-.6-3 2.9-7.7 4.7-8.2 4.4-10-4.9a24 24 0 0 0-2.5-8c-2.4-2.8-3.7-8.7-2.5-11 1-1.8.8-2.2-.9-2.7-2.3-.6-2.7-1.8-1.1-2.8.6-.3 1-1.3 1-2.1q0-1.6-2-.9-3.7 1.1-.3-2.7c1.6-1.8 1.6-1.9-.5-2.5-3.7-.9-2.3-2.7 2.4-3.2.7 0 2.7 1.8 4.6 4.1m157.3 4.3q0 2-2 1.7c-1.1-.2-5.9-.6-10.7-.9-4.9-.3-8.8-.9-8.8-1.4s3.9-1 8.8-1.2c12.6-.5 12.7-.5 12.7 1.8m152.2-.4c1.2 1.2-.4 11.1-3.2 19.4-1.8 5.5-8.5 19.4-9.6 20.1-.4.2-2.7-.4-5.1-1.5l-7.3-3.2c-2.9-1.2-2.9-1.3-.7-1.7 1.3-.2 3.2.4 4.1 1.2 1.8 1.6 4.1 2.1 4.1.9 0-1.4-3.4-4.3-5.2-4.3q-1.6-.1-1.8-1.3-.1-3.4 4.1-1.2c4.5 2.4 5.7 1.7 2.1-1.1-3.7-3-3.3-5.4.5-2.9 3.2 2.2 4.3 1.1 1.5-1.5q-4.6-4.3 1.1-3.4 3.8.7 1.5-.6c-1-.6-1.8-1.9-1.8-2.9 0-2 5.5-10.1 7.7-11.4.7-.4 1.3-1.6 1.3-2.6s.3-2.1.7-2.4c1-1.1 4.8-.8 6 .4m-154.2 10.5c0 4.6-.2 4.9-2.5 4.7l-8.9-.5c-6-.4-6.5-.6-6.6-2.9-.1-1.3.2-3.4.8-4.6.9-2.1 1.5-2.2 9.1-1.9l8.1.3zm-66.6 6.6c-.2 5 1.5 8.3 7.3 14.2 3.8 3.8 6.6 5.8 9.8 6.7 6.8 1.9 7 2.2 5.4 8.2l-5 20.7c-2 8.5-4.7 19.3-6 24l-4.3 16-2.7 9.3q-.6 1.7 1 1.7c2.8 0 3.4-1.7 11.1-35 5.7-24.7 9.4-39 10.6-41.2q1-1.7 2.5-1.8c.8 0 2.5-.6 3.7-1.4a15 15 0 0 1 6.6-1.2c4 .2 4.6.5 5.3 3.2.4 1.6.8 23.8.8 49.3 0 41.4-.5 57.1-1.7 57.1-.2 0-3.2-1.8-6.6-3.9a60 60 0 0 0-21.7-8.5c-6.5-1.4-23.3-2.5-25.9-1.6q-1.4.3-2.9-2.5l-3.4-6.5a295 295 0 0 1-11.8-23.9 72 72 0 0 0 15.7-12.6 48 48 0 0 0 16.2-30c2-14.2.5-21.5-6.9-34.5-4.3-7.7-4.2-9 .7-9 1.9 0 2.2.5 2.2 3.2m65.5 2.4c2.9 2.8.8 3.6-7.7 2.8-4.5-.3-8.4-.8-8.6-1q-.2-.4.9-1.9c1.8-2.1 13.3-2.1 15.4.1m103.4 4.3c3.8 3.1 9 5.9 27.7 15.4a361 361 0 0 0 36 16.7c2.4 0 2.7 1.9.6 4.6a10 10 0 0 0-2.1 4c0 2.4-2.7 1.6-9.7-3-3.7-2.4-8.6-5.2-10.8-6.4-2.2-1.1-6.4-3.6-9.3-5.5s-10.3-5.6-16.5-8.2a171 171 0 0 1-14.7-7 53 53 0 0 0-6.7-3.4c-1.8-.8-3.3-1.7-3.3-2.2 0-.8 4.3-7.8 4.8-7.9.2 0 2 1.3 4 2.9m-113.1 24.6.5 24.5c.1 1.9-.2 9.8-.6 17.5-1 17-.8 41.7.4 50.5.5 3.6.8 13.7.7 22.5-.2 16.4-.1 25.1.5 55.7l.3 17.7-3 2.4-4.2 3c-.9.6-1.1-19.1-.7-83.5.2-51.4 0-92.4-.7-105.1-.6-11.4-.7-22.1-.4-23.8.6-2.7 1-3 3.8-2.7l3.2.3zm9.3-18.8c-.1 1.6.1 47.2.4 101.5.3 64 .1 99-.6 99.4q-1 .4-2.3-1.2c-1-1.4-1.3-8.8-1.4-32.4 0-16.8-.6-39.5-1.2-50.5-1.1-20.6.2-114.1 1.6-117.8 1.1-2.7 3.5-2.1 3.5 1m-120 14.7c0 .7-3.3 2.8-7.2 4.6l-11.5 5.2c-2.3 1.1-4.8 1.8-5.5 1.6-1.8-.6 6.8-6.1 13.7-8.7 3.3-1.2 6.7-2.6 7.5-3.1q3.2-2 3 .4m243.8 2.6c6.4 3.5 13 7.5 13.7 8.2q.6.8.2 2.3c-.6 1.3-1.4 1.1-5.9-1.3a98 98 0 0 0-10-4.7c-3.9-1.4-4.8-2.2-4.8-4.1 0-3 1.9-3.1 6.8-.4M135 221.6c.5 2.1.6 4.2.4 4.6-.3.5-3.3 2.3-6.7 4-7.5 3.8-14.2 4.6-15.7 1.8-2-3.7-1.1-5.1 5.3-8.1 3.4-1.7 8-4.2 10.2-5.5 4.5-2.6 5.3-2.2 6.5 3.2m242.4 2.2c3.8 2.1 7.1 4.2 7.3 4.8s-1.2 3-3.1 5.3a36 36 0 0 0-3.8 5.1c-.3.9-17.8-6.4-17.8-7.4l1.6-4.2 2.5-6.3c1.2-2.9 3.7-2.4 13.3 2.7m-237.7 7.7c.6 1.8-2.3 5.5-4.4 5.5-.8 0-3.9 1.1-6.9 2.5s-5.9 2.5-6.4 2.5c-2.1 0-.8-1.9 3.3-4.5l7.7-5.2c4.1-2.7 5.8-2.9 6.7-.8m228 7.6c4 1.9 7.3 4 7.3 4.6 0 2.2-3.3 1.4-9-2.2-3-1.9-6-3.5-6.7-3.5q-1.2-.1-1.3-1.6c0-1.8-.1-1.9 9.7 2.7m-226.2 5.6a1077 1077 0 0 1 20.6 39.3l22 43c14.6 28.2 24.9 48.4 24.9 49.2 0 .4-.5 1.9-1 3.4l-1.1 2.8-1.6-3c-6-11.3-13.2-26.4-13.7-28.9-.7-2.7-2.5-5.9-7.7-13.7-1.1-1.5-3.2-6-4.8-10-3.8-9.3-13.3-27-20-37.3a158 158 0 0 1-9.3-16.5c-11.7-25-12.8-27.5-12.8-29.9 0-3.4 2.6-2.4 4.5 1.6m217.9-3.1c2.3.9 2 3.2-1.1 8.4-4.3 7.2-14.8 27-25.9 48.8a581 581 0 0 1-15.4 28.6 410 410 0 0 0-15.5 28.6 254 254 0 0 1-8.7 16.7c-.5.6-1.1 2.4-1.2 4-.3 2.3-.8 2.9-3.5 3.1-3.3.3-5.3-2-3.5-4.3 5.9-7.8 15.2-24.3 26.3-47a2952 2952 0 0 0 30.7-64c1.8-2.7 7.9-14 10.5-19.3 2.1-4.1 3.7-5 7.3-3.6m-225.3 11.2L141 268c4.5 10 11.7 23.8 14.5 27.5 1.2 1.6 5.7 9.7 10 18a311 311 0 0 0 10.9 19.5c6.2 8.7 23.6 42.7 23.6 46.1 0 1.1.5 2.9 1 4 .9 1.6 1.5 1.7 3.1.8 2-1 2-.9.5 2-.9 1.6-2 3.2-2.5 3.5-1 .7-7.3-8.9-11.9-18.1a96 96 0 0 0-6-10.5c-1.6-2.4-6.8-12.1-11.5-21.5a390 390 0 0 0-15.7-29.8c-1-1.3-9.1-16.7-19.8-37.5-4.6-9.1-9.5-18.4-10.8-20.8l-2.5-4.2 2.3-1c3.8-1.5 4.2-1.2 7.9 6.8m235.1-4.7c2.9 2.1 2.9 2.1 1 4.3a77 77 0 0 0-6.9 11.1l-8.8 15.5c-3.5 6-14.2 26.7-42.2 82.2L301.8 382h-4.4c-5 0-5.1-.3-2.6-4.5 4-6.6 14.6-26.9 20.2-39 2.4-5 7.2-14 10.8-20 5.9-10 15.9-28.8 25-47a196 196 0 0 1 7.9-13.9 67 67 0 0 0 5.3-9.2c1.2-2.9 1.4-2.9 5.2-.3M209 562.7c0 2.6-17.4 32.6-24 41.4-2.6 3.5-6.2 9.1-8 12.3s-4.9 8.5-6.9 11.5c-2.1 3.1-5.1 7.8-6.6 10.5-1.6 2.8-5 7.6-7.5 10.8s-6.3 8.5-8.4 11.8c-4.8 7.4-14.2 17.3-15.9 16.8q-1-.6-1.5-2.6a47 47 0 0 1 7.5-17.8c1.3-1.7 2.3-3.5 2.3-4.1a267 267 0 0 1 22.9-42.8c1.9-3.3 3.7-6.2 4.1-6.5s1.3-1.6 2-3 6.1-9.7 11.9-18.5a612 612 0 0 0 14.8-23.2l3.4-5.2 4.9 3.5c2.8 2 5 4.3 5 5.1m96.3 9.5c3 6.2 7.5 14.7 10 18.9 2.4 4.1 4.8 8.6 5.2 10 .4 1.3 1.5 3.5 2.5 4.9s5.9 10.6 11 20.5 11 21 13.1 24.7a90 90 0 0 1 7 14.8c2.5 4.6 2.5 9 .1 9-3.6 0-16.2-17.5-16.2-22.3 0-.8-.7-2-1.6-2.8s-2.3-2.7-3.2-4.5c-4-7.7-8.8-15-10.9-16.7-1.3-1-2.3-2.6-2.3-3.5s-.9-3.1-2.1-4.7c-1.1-1.7-3.5-6.3-5.4-10.2-1.9-4-5.2-9.9-7.3-13q-4.9-7.5-10.1-20.6c-.6-1.5-1.7-2.7-2.6-2.7-2.9 0-1.5-4.3 2.8-8.6l4.4-4.3c.1-.1 2.6 5 5.6 11.1m-55.8 13.7 5 1.9v20.4c0 11.1-.3 45.6-.7 76.5-.6 50.7-.8 56.4-2.4 58.8-.9 1.4-2.1 2.2-2.5 1.8-1.1-1.1-2.6-12.3-3.5-24.8l-1-15.5c-.8-11.3-.9-121-.1-121z"/><path d="M106 183.5q0 1.6 1.8 1.3c2.1-.4 1.9-2.2-.2-2.6q-1.6-.2-1.6 1.3m86.1 66.3c-.6 1.1-2.4 8.7-4.1 16.9s-3.7 17.1-4.5 19.9c-1.8 6.1-1.9 7.4-.1 7.4 2.3 0 4.8-8.3 9.1-30.9 1.7-8.5 2.3-13.7 1.6-14.4q-1-.9-2 1.1m17.1 6.5c-2 2.4-11.3 41-10.1 42.2 1.5 1.5 2.4-.6 4.4-9.9a184 184 0 0 1 3.9-15.1q5.3-16.2 3.8-17.7-1-.7-2 .5m39.7-239.9c-.3.3-6.6.9-14 1.2-13.8.6-16.8 1.5-15.6 4.8.5 1.2 1.8 1.6 4.9 1.4l4.3-.3.3 7.9c.3 8.4-.2 9.6-4.5 9.6-2.1 0-2.6.9-2.2 3.7q.2.7 1.2.4c2.2-.7 12.3-1.3 27.5-1.7 8.4-.2 15.7-.6 16.3-.9q.8-.8.9-2.6.1-2-2.5-1.9-4.8.2-4.9-10l-.1-5.5h3.9c3.1 0 4-.4 4.7-2.2q.8-2.3-.4-3c-1.5-.9-19-1.7-19.8-.9m5.6 13.1v8.6l-3-.3c-1.6-.2-3-.9-2.9-1.6l.3-7.6c.1-6.5.4-7 4.6-7.5.6-.1 1 3.3 1 8.4m-13.1-2.9c1.1 8.3.8 10-1.9 11.2-1.4.7-3 1.2-3.5 1.2s-1-3.4-1-7.5c0-6.9.2-7.6 2.3-8.5 3.4-1.3 3.4-1.3 4.1 3.6m161.8 211.2c-.8 1.5-4 9.4-7.2 17.7-7.5 19.3-12.5 31.8-19.3 48.3-6.4 15.3-7 17.7-4.3 17.7 1.3 0 2.3-1.4 3.6-5.5 1-3 3.4-9.3 5.5-14l6.5-16 6-15.5 5.5-14.5a158 158 0 0 1 5.4-12.8c1.7-3.5 2.9-6.7 2.6-7.3-1.1-1.7-3-.9-4.3 1.9m33 1.5c-1.8 2.1-1.9 6.2-.2 6.2 1.9 0 3.8-5.1 2.4-6.5q-1.1-1.2-2.2.3m-99.4 6c-6.5 2.2-7.2 3.2-2.9 4.2 3.5.7 13.1-3 13.1-5.1q.2-2.8-10.2.9m48.7 8.2a62 62 0 0 0-3.1 8.2c-.4 1.5-1 3.2-1.4 3.8s-1.3 2.8-2 5-1.8 5.1-2.6 6.5a232 232 0 0 0-10.4 30.1c0 1.7 3.1.9 3.6-.9l2.8-7.7 4.5-12 4.1-10c1-2.2 3-7.6 4.5-12s3.4-9.3 4.2-10.8c1.5-3 1.2-5.7-.7-5.7-.6 0-2.2 2.5-3.5 5.5m-80.2 4.7c-1.5 1.7-9.3 25.4-9.3 28.1 0 3.9 1.8.4 4.9-9.5 1.8-5.7 3.9-11.9 4.8-14 1.7-4.1 1.5-6.9-.4-4.6m-21.1 2.5c-.6 1.1-2.4 7.3-4.1 13.9-1.7 6.5-4.4 15.6-6.1 20.2-3.5 9.6-3.4 9.2-1.6 9.2 1.6 0 5.5-10.1 9.1-23.7 1.4-5.4 3.3-12 4.1-14.6q1.7-4.9.6-5.9-1-1-2 .9m3.2 19c-2.4 5.6-3 10.7-1.3 10.1.7-.2 1.6-1.8 2-3.4s1.3-4.3 2.2-6q2.4-4.4-.5-4.4c-.5 0-1.6 1.7-2.4 3.7M62.6 344.2l-1.1 6.3c-.3 2.2-1.5 8.3-2.5 13.5-1.1 5.2-3.4 17.1-5.1 26.5s-4.6 24.6-6.5 34a249 249 0 0 0-6.9 42.7c-.6 9.2-.5 10.8.8 10.8q1.5 0 2-4.8l1.7-11.7c.7-3.9 1.3-8.6 1.5-10.5s1.2-7.1 2.3-11.5 2.8-12.5 3.7-18 2-11.4 2.6-13c.5-1.7 1.1-4.4 1.3-6a354 354 0 0 1 8.3-42.8c3.4-13 3.5-17.1.6-17.5q-2.4-.4-2.7 2m-27 5c-.8 2.9-3.5 15.6-4.1 19.3l-3 17c-1.3 7.1-3.1 17.9-4 24-1.8 12.1-2.7 17.4-7.6 44-3.5 19.4-4.1 26.6-2.2 27.2q1.1.3 1.7-1.9L18 470l2-11 1.4-7.6 2.2-11a1073 1073 0 0 0 5.8-31.9l3.6-19c3.2-15.3 4.8-25 5.6-33.7.6-6.9.5-7.8-1-7.8q-1.5.2-2 1.2m58.5 11.9c-.6 1.8-1.1 4.5-1.1 6 0 1.6-.4 4.8-1 7.1a976 976 0 0 0-10.1 58.3L77 463a556 556 0 0 1-7 37 1399 1399 0 0 0-12 61.5L54 584c-2.3 11.8-3 23.2-1.3 23.7s2.2-.7 3.3-9.8c.5-4.6 1.7-12.2 2.5-16.9s1.8-10.1 2-12l2.4-15 3.6-20.5c.9-5 2.7-14.2 4.1-20.5l3.9-18c2.4-11.1 6.9-37.1 12.5-72a472 472 0 0 1 6.5-31c.7-3 1.7-8 2-11q1.1-9.4 3.8-14.8c1.3-2.8-.1-7.5-2.5-8q-1.6-.3-2.7 2.9m391.6 13.6L483 384c-1.2 4.7-4.2 14.6-6.6 22s-6.4 20.5-8.9 29c-2.6 8.5-5.7 18.9-7.1 23-4 12.4-10.4 36.3-10.4 38.8s2.4 2.6 2.6.1c0-.8.4-2.1.7-2.9 1.3-3.3 4.5-13.8 5.6-18.5 1.3-5.3 3.7-13.6 9.5-32.5l5.6-18.5c2.5-8.5 9.2-30.2 12.6-40.8 1.4-4.2 2.2-8.2 1.9-8.7-.7-1.2-2.2-1.3-2.8-.3m-13.5 8A417 417 0 0 0 463 412a573 573 0 0 1-7 25l-2 7-5 16a659 659 0 0 0-8 26.5l-5.7 19.5c-16.2 50-23.9 78.8-28 104.7-.3 1.9-.1 3.3.5 3.3 1.7 0 5.2-8.4 5.2-12.6 0-2.1 1.5-9.8 3.4-16.9 8.3-32 10.9-41.5 13.1-48 4.7-14.3 11.5-36.4 14.9-48.5l4.5-15.5L457 445c3.9-13.5 10-33.5 13.6-44.5s6.4-20.8 6.4-21.8c0-3.8-2.9-1.4-4.8 4m-34.4.5a427 427 0 0 0-14.7 42.8 1679 1679 0 0 1-18.6 59l-5 17.5a748 748 0 0 0-14.5 53.2c0 2.7 1.9 1.1 2.5-2 .3-1.7 1.2-5.2 2-7.7l3.6-12.5 3.6-12.3c.7-2.3 1.3-4.8 1.3-5.5a72 72 0 0 1 2.5-9.2l6.9-23c2.5-8.3 6.1-19.6 8-25.3s5.4-16.7 7.7-24.5a661 661 0 0 1 15.5-46.9c2-4.5 1.4-7-.8-3.6m8.5 9c-1.1 1.4-5.4 12.9-7.1 18.8l-9.6 30c-4.7 14.6-9.2 29-10 32l-4.1 14-3.7 12-2.2 6.5-2.6 6.5c-1.1 3.1-2.4 6.2-5 12-.3.8-.3 2.6 0 4l.7 2.5 1.1-2.6A113 113 0 0 0 418 495l4.5-14.5a664 664 0 0 1 16.1-53c1.5-3.9 3.1-8.8 3.6-11l3.9-13.2c1.6-5 2.9-9.9 2.9-10.7 0-1.9-1.4-2.1-2.7-.4m-339 51a91 91 0 0 0-3.8 21.9c.3.4-.8 6.1-2.4 12.6-5.2 20.7-8 35.4-9.6 49.3-.8 7.4-2.6 19.1-4 26a633 633 0 0 0-5 27.8l-1.4 8.7-1.5 9.5-2.1 14-4 28c-1.3 9.6-3.6 23.3-4.9 30.5-3 15.9-4.3 25.4-6.6 46.5-1.2 11-8.7 54.7-12.2 71-2.5 11.9-3 15-2 15 1.8 0 5.3-11.8 7.2-24.6 2.2-14.4 3.9-23.8 6-33.9 1.2-5.5 2.5-15 3.1-21a468 468 0 0 1 7.4-52.2 600 600 0 0 0 5.5-33.1c2.6-19.5 8.2-54.7 12-75.2a381 381 0 0 0 6.4-42.5c.4-7 3.9-24.4 6.6-33a72 72 0 0 0 3.3-15.8 83 83 0 0 1 3.9-20.8c2-6.3 2-9.9 0-9.9q-1 .1-1.9 1.2m8.3 42.5c-.7 2.5-4.3 22.8-6.6 37.5-1 6.8-2.8 16.1-3.8 20.8-1.1 4.7-2.7 13.2-3.6 19-1 5.8-3.2 18.1-5.1 27.5-3.7 18.8-6.1 36.2-5.1 37.2 1.8 1.8 3-3.4 7.7-32.2.4-2.8 1.5-8.4 2.4-12.5s2.1-10 2.5-13c2-13 4.2-25 6-32.5 1-4.4 2.4-11.8 3-16.5s2-13.6 3.1-19.9c1-6.2 1.9-12.7 1.9-14.2 0-3.2-1.6-3.9-2.4-1.2M12 488.6c0 1.4.4 2.3 1 1.9s1-1.5 1-2.6q0-1.7-1-1.9c-.5 0-1 1.2-1 2.6m118.7 1.1c-.3.4-1.2 4.8-2.1 9.8l-3.1 16.5a5532 5532 0 0 0-15 81.4c-.9 4.3-1.5 8.8-1.3 10l.3 2.1 1.3-2.2c.7-1.2 2.1-7.1 3.1-13 9.6-54 15.4-84.2 18.2-94.8 1.5-5.8 1.6-9.8.2-10.2q-1-.2-1.6.4m251.8 75c-.8 3.2-2.1 7.2-2.9 8.8-1.6 3.6-3 9.5-2.2 9.5 1.1 0 3.8-6.3 6.2-14.3 2.7-9 2.8-9.7 1.5-9.7-.5 0-1.7 2.6-2.6 5.7m-371.9 6-1.1 7.6c-.7 6.8.9 7.1 1.8.5.4-2.4.9-5.5 1.3-7.1.7-3-1.1-3.9-2-1m271.6 18.9c-.5 1.1-1.5 5-2.1 8.9l-3.2 16-4.9 22.8c-1.7 7.6-3 14.5-3 15.3 0 2.6 2.4.9 3.1-2.2l4.8-21.9 6.4-28.7c1.5-7.2 1.8-10.1 1-10.9q-1.1-1.2-2.1.7m-6.3 4.1c-1 2.7-3.9 15.5-3.9 17.4q0 .8 1 .9c1 0 6-15.3 6-18.2s-2-3-3.1-.1m14.6 1.5c-1.1 3.3-3.4 14.1-4.5 20.8a340 340 0 0 1-6.9 33.3 326 326 0 0 0-7.7 36.4c1.5 1.5 3.3-1.1 4.3-6.3 3.7-17.7 5.5-25.9 7.7-34.9 1.3-5.5 3.1-13.8 4-18.5 2.5-12.7 4.6-22.2 5.8-25.2 1-2.8.3-6.8-1.3-6.8q-1 .2-1.4 1.2m7.6 12.5c-.5 2.1-1.5 7.6-2.1 12.3-1.1 9-1.5 11.7-4.9 33l-3.7 23.5c-.9 5.5-3.1 17.9-5.1 27.5s-3.8 20-4.3 23l-2.4 14.4c-.8 4.9-1.3 9.3-1 9.8 1.1 1.8 2.2-.4 2.9-5.5 1-7.8 3-19.2 7-39.7a1096 1096 0 0 0 9-52c1.5-8.5 3-18.2 3.5-21.5l2.5-15c2.2-11.2 2.3-12.7.8-13.2-.7-.3-1.6 1.2-2.2 3.4m-193.9 29.9c-.5 1.1-1.9 7.3-3.1 13.9-2.9 15.4-6.6 34.4-9.1 46.5-1.1 5.2-3.1 17.6-4.5 27.5-7.4 51.3-7.5 51.6-5 46 .7-1.7 2.1-8.5 3.1-15L88 740l4.1-26.5a267 267 0 0 1 3.5-18.5 552 552 0 0 0 6.4-31.5c.5-3.3 1.8-10.5 2.9-16 1.8-9.4 1.5-14-.7-9.9m163.4 22.5c-.9 4.6-.8 8.5.3 7.3S270 657 269 657c-.4 0-1 1.4-1.4 3.1m171.5 120.8q-4 5.3 1.9 5.1c1.6 0 3.1.4 3.4.8s-5.1.8-11.9.7c-6.8 0-12.7.3-13.1.8-1 1 2.4 3.4 5.9 4.2q7.1 1.7-5.4 3.3-11.8 1.5-9.5 3.9c.4.5 6.8 1 14.2 1.1 11.2.3 13.4.6 13.4 1.9s-.9 1.4-4.9.9c-6.2-.8-16.1.3-16.1 1.8 0 1.4 5.6 3.6 8.9 3.6 2 0 2.1-.2 1.1-1.5-1.1-1.3-.7-1.5 2.6-1.5 7.6 0 8.2.5 8.8 7.3.4 3.4.8 10.5 1 15.7.3 9 .4 9.5 2.6 9.8 3.1.5 4.1-1.4 3.5-6.8l-1-14.3-.6-9.7h4.3c2.4 0 9.2.9 15.2 2q28 5.1 26.4-2.7c-.4-1.9-7.6-4.9-14.7-5.9a15 15 0 0 1-6.1-1.9c-.8-.7-3.9-1.8-6.7-2.5s-5.3-1.3-5.3-1.5 3.6-.1 8 .2c10 .7 11.1-1.2 1.3-2.2l-13.3-1.4-6.5-.8 6.3-.2c8-.1 8.2-2.4.3-2.9-5.8-.3-6.1-2.2-.3-2.2 5.1 0 8.2-1 8.2-2.5 0-2.4-4.6-4.3-12.2-5l-7.5-.7zm13.4 1.1q.4 1-2.5 1c-2.9 0-2.9-.4-2.5-1s1.5-1 2.5-1 2.2.4 2.5 1m-17.2 8.7c-.7.2-2.1.2-3 0q-1.3-.5 1.2-.5 2.6 0 1.8.5m1.2 7.3q.4 1-7.2.9c-5.7-.1-7-.3-4.8-.9 4.5-1.1 11.3-1.1 12 0m20.4.6c.2.2-2.4.4-5.8.4q-6.1 0-5.6-1c.6-.9 10.3-.4 11.4.6m14.6 4.4c10.7 1.5 14.7 2.8 14.3 4.8-.4 2.4-6.6 3-15.8 1.6-25.1-3.8-25.7-4-24.7-6.6.6-1.6 14.4-1.5 26.2.2M78.1 785.7l-2.8 13.1c-1.5 6.6-1.3 9.6.3 7.9 1-1 3.6-10.6 4.3-16.2.4-2.8 1-5.5 1.4-6.2.8-1.2-.1-4.3-1.2-4.3-.5 0-1.3 2.6-2 5.7m190.6 2c-1.1 1.8-1.9 12.8-.9 11.8.6-.6 1.3-3.6 1.7-6.8q1-7.8-.8-5m-196 23c-.3 1-1.3 6.1-2.2 11.3L68 835.5c-1.6 7.5-2.3 20.5-1.1 20.5.9 0 1.5-1.8 1.3-4.1a366 366 0 0 1 4.2-25.9l2.6-15.8c0-1.8-1.8-1.4-2.3.5"/><path d="M454.7 814.7q-.5.6.4 2c1.2 1.4 9.9 1.9 9.9.5 0-2.1-8.7-4.2-10.3-2.5M65.5 859c-.8 1.3.4 3.2 1.6 2.5s1.2-3.5 0-3.5q-1 0-1.6 1"/></svg>