<svg xmlns="http://www.w3.org/2000/svg" width="666.7" height="1170.7" viewBox="0 0 500 878"><path d="m.2 205.2.3 205.3 57.5-.4c31.6-.2 57.8-.5 58.1-.7.5-.3 81.4-.7 90.8-.5 3.3.1 3.4.2 1.7 2-1.8 2-2 3.5-1.2 10.2.6 5.8 12 16.4 15.2 14a83 83 0 0 0 10.6-13.8c2.4-4.3 2.3-4.8-1.1-9.6l-2.9-4.2-.6-45c-.7-48.4-1.3-85.1-2.2-128l-1.8-85.5c-.9-35.1-1.9-84.6-2-94l-.1-8.5 29.8-.2c21.5-.2 30.3-.6 31.3-1.4 2.5-2.1 0-3.1-9.1-3.6-7.4-.5-8.5-.8-8-2.2l2.8-6.9c1.1-3 2.6-5.6 3.4-5.9q1.2-.6 1.3-1.8c0-1.3 2.8-2.7 4.6-2.4h3.7q2.8 0 2.7-2.1c0-1.7-.7-2-4.2-2.2H274l-26.9.2c-19.1.1-24.6-.2-25.2-1.2-.5-.7-.9-4.8-.9-9.1 0-7.5 0-7.7-2.5-7.7s-2.5.1-2.5 9c0 5.5-.4 9-1 9-1.4 0-1.8-1.3-2.5-10.3-.5-5.7-1-7.7-2.1-7.7-1.7 0-1.7 3-.4 44 .8 28.1 1.3 49.9 2.5 119.5.3 17 .8 34.1 1 38s.7 28.1 1 54c.5 46.1.9 66.8 2.1 122.9q.6 27.8-.4 27.2c-1.1-.7-2-21-2.7-67.6l-1.5-88.5-1.5-93.5a9068 9068 0 0 0-3.1-142.8c-.5-11.4-.8-13.2-2.3-13.2s-1.6 1.8-1.5 18.2c.1 10.1.4 23.7.8 30.3.7 14.7 1.4 44.4 2.1 84 .7 38.6 1.4 77 2 101 1.7 71.3 2.6 168.3 1.4 169-.4.3-1-.9-1.4-2.7s-1.3-4.7-2-6.3a37 37 0 0 1-1.8-6 221 221 0 0 0-3.2-13l-4-15.2a36 36 0 0 0-2-6.3c-.4-.6-2-6.2-3.6-12.3a152 152 0 0 0-8.9-29.3c-1.8-2.9-2-5.5-2-43 0-21.9-.2-42.6-.4-45.9s-.7-30.3-1-60a6767 6767 0 0 0-3-153.2l-.1-9.3H0zM153.8 7.3c-.9.8-2.6 2.4-3.7 3.8l-2 2.4-.1-3.2c0-3.2.9-3.8 6-4.1q1.8-.3-.2 1.1m18.2 4.9a8981 8981 0 0 1 2.6 140.3 10522 10522 0 0 0 1.9 114.2l.8 41.3-13.4.1-42.4.4c-101.2 1.4-116.4 1.5-116.9.6a3 3 0 0 1-.1-2.3c.4-1 4.2-1.3 17.8-1.2 9.4 0 17.7-.2 18.2-.5 1.7-1 18.9-1 43-.1 12.7.5 31.8.6 42.5.2s21.3-.5 23.5-.2c5.1.7 21-1.2 21-2.5q0-1 .6-2c.4-.6.2-11.6-.3-24.5s-1.1-37.7-1.3-55l-.8-42.5q-.4-11 .8-14.1c1.1-2.6 1.1-3.4-.1-4.6-1.6-1.6-1.7-2.7-1.5-26.1.1-8.6-.3-16.5-.8-17.5s-.8-4.5-.5-7.7C168 87.8 168 89 165.2 89c-1.4 0-3.4-.7-4.4-1.6q-1.7-1.7-8-1.8c-5.9-.1-6.3-.2-6.6-2.6-.4-4.6 1-5.3 10.8-5.8 6.9-.3 9.3-.8 9.7-1.9.8-2-1.2-3.1-4.3-2.5a38 38 0 0 1-7.9-.3c-5.1-.6-5.5-.9-6.3-3.8-1.2-4.2-.3-5.5 1.7-2.9 2.3 3 6.5 4.3 10.9 3.4 3.3-.7 3.8-1.2 4.4-4.7.4-2.2.5-15.8.2-30.3s-.2-26.7.1-27.2 1.9-1 3.6-1c2.9 0 2.9 0 2.9 6.2M76 8.6q0 1.3-1 .9-.9-.6-1-1.6.1-.8 1-.9 1 .1 1 1.6m33.3 1c.6 3.1-.6 3.6-6.4 3.2-4-.3-4.4-.6-4.7-3.1C97.9 7 98 7 103.3 7c5.1 0 5.5.2 6 2.6m32.7-.1c0 2.8-.3 2.9-3.1 1.5-2.8-1.5-2.4-4 .6-4 2 0 2.5.5 2.5 2.5m-95-.6c0 1.2-2 2.5-2.7 1.8S44.9 8 46.1 8q.8 0 .9.9M15.5 10c-.3.5-1.3 1-2.1 1s-1.2-.5-.9-1 1.3-1 2.1-1 1.2.4.9 1m103.5.5c1.7 2.1.4 6.7-1.8 6.3s-3.1-7.8-.9-7.8c.8 0 2 .7 2.7 1.5m40.4 5.1q0 6-1.7 8.4l-1.7 2.4v-4.1c0-2.3-.4-4.5-1-4.8-1.5-.9-1.2-3.2.6-6.1q4-5.8 3.8 4.2m-88.8-2.4c6.7 4.8 5.8 6-4.8 6.4q-9.4.3-5.8-2.1c.6-.3 1-1.5 1-2.5 0-2 2.5-5 4.2-5 .5 0 3 1.4 5.4 3.2m60.6 1.8c-.3 5.2-2.1 7-7 7h-3.3l2-2.6c1.1-1.4 2.3-4.2 2.7-6.1.6-3 1-3.4 3.3-3.1 2.4.3 2.6.6 2.3 4.8m-95.4-.3c-1 .2-2.8.2-4 0q-1.8-.3 1.7-.4t2.3.4m17.6 1.2c.7 1-1.8 3.4-2.7 2.5-.7-.8.3-3.4 1.3-3.4q.9 0 1.4.9m87.7 3.6a25 25 0 0 0 2.3 7.3c1.5 3 1.7 5.6 1.2 24-.3 11.3-1 21-1.5 21.5-1.5 1.5-5.3-.2-4.6-2.1.3-.9.9-8.2 1.2-16.3l.6-14.7-2.9-1.8c-2.2-1.5-4.7-1.9-11.7-1.9-9.6 0-11.7 1.1-11.7 6.2 0 2.4-2.6 4.3-6 4.3-2.4 0-2.3.3-4.4-11.5-1.5-8.2-1.5-9 0-9.8q1.5-1 1-3.2c-.8-3 1-4.2 3.3-2.1 1 .9 2.7 1.6 3.9 1.6s2.7.9 3.5 2.1c1.2 1.6 2.6 2.1 6.1 2.1 11.2 0 14.6-1.8 14.6-7.7 0-2.2.4-2.6 2.3-2.3 1.7.2 2.3 1.1 2.8 4.3m-40.9-1.2q1.6 2.8-3 1.8c-1.5-.4-2.9-1.6-3-2.6-.3-1.5 0-1.7 2.4-1.1 1.6.4 3.2 1.3 3.6 1.9m-92.1 5c-1.5 1.5-3-.1-2.4-2.4.6-2.1.7-2.1 2-.4q1.2 2 .4 2.8M27 26.4c0 6.4-1.5 11.5-4.2 13.8-4.9 4.3-6.5.8-2.9-6.4 2.2-4.5 2.2-4.9.7-7.3s-1.5-2.5 1.1-3.9c4.7-2.5 5.3-2.1 5.3 3.8m10.8-2.6q.2 1.1-1.2 1.2-1.5-.1-1.6-1.6c0-1.7 2.2-1.4 2.8.4m13.7.8c6.1 2.4 6.5 2.8 6.5 5.8 0 1.7-1 5.2-2.2 7.6-2.4 4.7-3 4.9-9.5 3.4-2.2-.4-2.3-.9-2.3-9.9 0-5.2.2-9.5.5-9.5s3.4 1.2 7 2.6m28.3 3.5c-.3 6.7-.9 7.7-3.2 5.3s-2-7.8.7-9.7l2.5-1.6c.2-.1.2 2.6 0 6m147.6 3.4c.1 9 .1 9-2.4 9s-2.5-.2-2.8-8.7c-.2-7.6-.1-8.7 1.5-9.1 3.3-.8 3.5-.2 3.7 8.8m17.6-5.2c4.7 5.7 9 14.1 7.7 14.9-.7.4-4.7.8-8.9.8H236v-8.8c0-5.5.4-9.2 1.2-10 1.7-1.7 4.9-.5 7.8 3.1m17.2-3.3c4 0 4 0 2.5 2.3-.8 1.3-2 4.3-2.7 6.6-.6 2.5-1.6 4.1-2.3 3.8-1-.3-7.7-11-7.7-12.2 0-.6 3.5-1.3 4.8-.9.8.2 3.2.4 5.4.4m-45.7 9.3c0 12-1.9 11.8-2.3-.1-.2-7.3 0-9.3 1-9s1.3 2.9 1.3 9.1m-146.7-3q.6 6.5-3.7 1.1-4.5-5.8.7-5.1c2.3.3 2.7.9 3 4m-56.2 1.2c.9 2.1-1.4 4.5-4.2 4.5q-3.8.2-1.4-4.1c1.3-2.3 4.8-2.5 5.6-.4m24.9 3.1c0 3.6-.3 3.9-2.9 4.2q-6 .8-3.6-4.7c1.1-2.8 3.2-4.1 5.5-3.6.6.1 1 1.9 1 4.1m118.3-2.5q2.5-1.2 3.5-.2c.8.8 1.2 12.9.5 13.6-.2.2-2.4-1.6-5-3.9q-4.8-4.2-5.4-7.5c-.7-3.2-.6-3.3 1.6-2.1 1.7.9 2.9.9 4.8.1m-92.3 8.1c.6 2.4.4 2.8-1.4 2.8-2.2 0-2.7-2.2-1.5-5.5q1.4-2.9 2.9 2.7m12.3-.5 3.3.5-.3 8.2c-.3 7.6-.4 8.1-2.6 8.4q-2.4.3-4.9-2.2c-2.2-2.3-2.6-3.6-2.8-9.7-.2-6.8-.1-7 1.9-6.4 1.1.4 3.6.9 5.4 1.2m56.9 1.1c.7.5 1.3 4.5 1.5 10.9l.3 10.1-7 .5c-7.5.5-11.8-.5-11-2.5.3-.7.1-3.6-.4-6.3s-.6-5.2-.1-5.5 1.2-1.9 1.6-3.5 1.2-3.3 1.8-3.7c1.4-1 11.8-1 13.3 0M9.3 43.1c1.5 1.7 2.7 3.7 2.7 4.5C12 49.3 6.1 58 4.9 58c-.5 0-.9-4.1-.9-9 0-10.1.8-11 5.3-5.9m90.5 3.2c.1 4.5-2.1 7.9-4.4 7-2.1-.8-1.9-9.2.3-10.8q4-3 4.1 3.8m-61.6-2.7q.7.6.8 2.5c.1 1.9 1.3 3.1 2.9 4.5 5.4 4.5 4.6 11.9-2.2 19.1q-8.4 8.8-15.5 2.8c-3-2.5-3.2-2.5-3.2-.7 0 2.4 4.4 6.2 7.1 6.2q3.7 0 1.9 4.4c-2 5.3-9.9 2-14-5.8-1.4-2.5-3.1-4.6-3.7-4.6q-1.2-.1-1.3-3.4c0-1.9-.3-4.2-.7-5.2q-.6-1.7.8-1.2c.8.2 1.5 1.9 1.7 3.6s.7 3.2 1.1 3.2c1.2 0 3.1-2.3 3.1-4a26 26 0 0 1 6.5-11.4q2.5-2.5 7.4-3.2c3.8-.5 5-1.1 5.5-2.7.3-1.1.3-2.4 0-2.9-.9-1.4-6.8-.8-11.3 1.2q-8.4 3.9-1.3-1.3c3.1-2.2 4.4-2.5 8.6-2.1 2.8.3 5.3.7 5.8 1m119.3 6.6c.3.9 1.4 2 2.4 2.3 1.9.6 2.8 6.5 1 6.5q-.8-.1-.9-1.6-.1-1.3-1.1-.9c-.5.4-2.3.1-4-.5-3-1.3-4.6-4.7-3.6-7.5q.5-1.4-.3-2-1-.7-1-2.2c0-1.8 6.5 3.3 7.5 5.9m59.9-1.5c.3 1.6.8 19.2 1.1 39.3l1 62c3.2 168.5 4.1 259.1 2.6 257.5-.5-.6-1.4-27.3-2-59.5l-1.6-78.5c-.9-36.3-2.2-96-3-139.5-.4-21.1-.8-81.1-.6-83.3.2-1.9 2-.4 2.5 2m-166.8 2c-1.1 1.1-1.9-.6-1.1-2.4s.8-1.7 1.2 0c.3 1 .2 2.1-.1 2.4m13.7.9c.3 2 .4 4.9 0 6.5-.4 2.3-1 2.8-3.2 2.7-1.4-.1-3.4.2-4.3.6-1.5.7-1.8.3-1.8-2.3 0-1.7.7-4.9 1.6-7.1 1.3-3.3 2.1-4 4.4-4s2.8.5 3.3 3.6M16 53.4l-2.2 2.1 1.8-3.5q1.6-3.3 2.2-2.1c.2.7-.6 2.3-1.8 3.5m95.4-2.2c1.1 4.3.8 4.9-2.6 4.6-2.7-.2-3.4-.8-3.6-3q-.4-2.7 1.5-3.1c3.4-.9 4.1-.7 4.7 1.5m-11.7 6q-.5 1-.5-1.2c0-2.2.2-1.9.5-1.3.2.7.2 1.9 0 2.5m-2.4-.5c-.7.2-1.9.2-2.5 0q-1-.5 1.2-.5c2.2 0 1.9.2 1.3.5m-24.8 7.5q.8 3.8-.4 3.8c-1.6 0-3.3-4.9-2.5-7.2.8-2.7 2.1-1.2 2.9 3.4m40-4c.4.4.4 3.2 0 6.3q-1 9-4.9 3.3c-1.5-2.1-2.2-8.8-1.1-9.9.7-.7 5.2-.5 6 .3m-31.6 5c-.1 2.9-.4 4.4-.6 3.3-.3-1-1.2-3-2-4.2-1.4-2.1-1.4-2.3.1-1.7q1.8.8 1-1-.4-1.5.5-1.6 1.1.2 1 5.2m77.6-1.2q.4.9-.9 1-1.8 0-2.1-1t.9-1q1.8 0 2.1 1m-98.2 1q3.8 0 4.4 1.5 1.5 3.7-4.7 1.6c-3.3-1-4.5-.9-6.9.4-3.8 1.9-4.1 1.9-4.1-.1 0-2.3 3.1-4.5 5.5-3.9 1.1.3 3.7.5 5.8.5M6 68.1c0 1-.4 1.9-1 1.9s-1-1.2-1-2.6q0-2.3 1-1.9c.6.3 1 1.5 1 2.6m125.1-1q1 1.8.9-.4.1-1.5 1.5-1.7 1.6 0 1.5 3.6v3.7l-8.7-.6-9.2-.7q-.2-.1.8-1.4c.6-.7.9-2.1.5-3-.5-1.4.2-1.6 5.6-1.3q6.1.3 7.1 1.8M61 74.7q.2.5-.9 1.2-1.4.9-.2 1.5c.6.4 1.1 1.6 1.1 2.7 0 1 .4 1.9 1 1.9s.8-1.5.7-3.3c-.3-4.6 1.6-4.9 2.4-.4.6 3.6.4 4-2.7 5.5-3.2 1.5-3.5 1.5-4.8-.4-1.6-2.1-.3-4.9 1.7-3.7q1 .5.2-.6c-.4-.7-1.6-1-2.7-.8-2.6.7-4.8-.2-4.8-2q0-1.3.9-.9t1.5-.9q.4-1.7 3.3-.9c1.6.4 3 .9 3.3 1.1m65.3 2c1.2.7.8 5.3-.5 5.5l-5.5.3q-6.8.3-4.8-5.5c.6-1.9 1.2-2 5.3-1.4 2.6.4 5 .8 5.5 1.1m-22.8.2c1.1.5 2.8.5 3.7 0q1.6-.8 2.3 0c.9 1.5-2.8 3-9.7 4-3.5.5-6.4.8-6.6.6-.1-.1.2-1.4.7-2.9.9-2.1 1.7-2.6 4.3-2.5 1.8 0 4.2.4 5.3.8m36.3-.3c1.6.5 2.2 1.4 2.2 3.6q.1 3.3-1.6 2.4a20 20 0 0 0-5-.6c-2.9 0-3.4-.3-3.4-2.3 0-1.3.3-2.7.7-3 .8-.9 4.1-.9 7.1-.1m-63.3 1.9 2.4.4q.2.3-.9 1.6c-1.1 1.3-2.8 1.5-4.6 1.5-3 0-3.4-.3-3.4-2.6s.3-2.5 2.3-1.9zm-35.5.4c0 .5 1.4 1.4 3 2.1 3.8 1.6 4.4 2.5 3 5-1.8 3.3-4.6 2.5-6.4-2-1.9-4.7-2-6-.6-6q1 0 1 .9m67.4 5.7q1.7.4 1.6 5.5c0 2.7-.4 4.9-.9 4.9-2.5 0-5.3-8.4-3.4-10.3.8-.8.8-.8 2.7-.1M82 88.3c0 3.3-.6 3.6-4.8 2.4q-10.4-3 3.6-4.6 1 .1 1.2 2.2m18.3 2.7c.5 4.3.3 5.3-1.7 7.5q-4.3 4.5-3.3.5.4-1.8-.4-1.4c-.5.3-.9-1.9-.9-5 0-5.5.4-6 4.6-6.5.6 0 1.4 2.1 1.7 4.9m-46.2-1.3q2 2.4-.3.4-1.7-1.2-1.8-1.7 0-1.2 2.1 1.3m13.3-.1c.8 2.2.8 6.4-.1 6.4-1.5-.1-4.5-5.1-3.9-6.6.7-1.9 3.2-1.8 4 .2m88.6-.1c1.5.9-3.3 8.2-6.2 9.3l-2.8 1v-4.7c0-2.6.2-5 .5-5.2.7-.7 7.5-1 8.5-.4M48.5 95c2 3.9 1.9 5.3-.7 6.9-1.9 1.2-2.3 1.1-3.5-.5-2-2.7-1.7-8.2.5-8.7l1.9-.6q.3.2 1.8 2.9m10.1-.9q.5 1-.4 2.1-1 1-2.1-1.1c-1-1.7-.9-2.1.3-2.1a3 3 0 0 1 2.2 1.1m104.1 4.3c-.2 4.8-.4 5.2-1.9 4.2-2-1.2-2.3-4.7-.8-7.7q3-5 2.7 3.5m-155.9.3c9.8 19.6 17.5 27.5 24.9 25.7l2.6-.7-.6 5.4c-.4 3-.7 8-.7 11.2 0 5.6-.1 5.8-3 6.4-1.7.3-3.3 1-3.6 1.5s-.6 5.6-.5 11.2c.2 8 .6 11 2.3 14.6 2 4.1 2.2 6 2.2 27.6.1 22.3.2 23.4 2.3 26.2 1.6 2.2 1.9 3.2 1 4.1-2.1 2.1-3.5 1.1-8.4-5.7-10-13.7-9.6-12.6-10.2-31-.4-11.6-1-16.7-1.8-16.9-.7-.3-2.8-2.6-4.7-5.3l-3.5-4.8-.6-36.6C4.2 111.5 4.1 95 4.4 95s1.4 1.7 2.4 3.7m73.5-2c2.5.5 2.7.9 2.7 5.4 0 2.7-.3 4.9-.8 4.9s-3.1-1.6-6-3.5q-5-3.5-4.6-4.8c1.7-2.9 2.8-3.8 4.3-3.2.9.4 2.8.9 4.4 1.2m29.7 5.8q-.2 1.2-1.7 1.9l-2.9 1.1c-2 1-2.5-2.6-.6-5 1.6-2.1 1.8-2.2 3.5-.8.9.9 1.7 2.2 1.7 2.8m11.8-3.3q3.3 3-2.8 2.8c-3.8 0-5.2-1.4-3.3-3.3 1.1-1.1 4.8-.8 6.1.5M67 104.7c.8.8 2.4 2 3.5 2.7 1.7 1.2 1.7 1.6.6 3q-1.4 1.5-2.8 1.2-1.2-.4-.8.4c1.1 1.7-1.5 1.1-4.5-1.2q-3.2-2.2-1.8-3t-.4-.8c-2.1 0-2.4-2-.6-3.8 1.4-1.4 4.5-.7 6.8 1.5m74 2q-1.5 2.6-.6 0l.7-3q0-1.4.5 0c.3.7 0 2-.6 3m-112.2-.1q8.8.7 10.9-.5 2.2-1.3 2.6.3c1 2.5-7.5 4.7-13.6 3.5-6.6-1.2-11.7-3.1-11.7-4.2q.1-.8 1.5-.3c.8.3 5.4.8 10.3 1.2M96 109c0 1.6-.4 3-1 3s-1-1.4-1-3 .5-3 1-3 1 1.3 1 3m15.3 5.7.5 4.2-5.7.6c-3.1.3-7.1.7-8.8 1-2.7.3-3.3 0-3.3-1.6 0-1.5.7-1.9 3.7-1.9 3.6 0 7.3-2.2 7.3-4.4 0-1.3 4.2-3.5 5.1-2.7.4.3.9 2.5 1.2 4.8m-31.2-2q5.4 3.3.2 3.3c-3.7 0-5.7-1.4-5-3.4s1.2-2 4.8.1M57 120.1q-.2.8-1.5.9c-2.5 0-1.4 5.1 1.2 6.1 3.5 1.3 2.8 2.9-.9 2.2-2.8-.5-3.1-.3-2 .8.7.8 2.7 1.9 4.3 2.4 2.8 1 2.9 1.2 1.5 2.4s-1.6 1.1-1.6-.3q.1-1.6-3.1-1.6-3.4 0-2.5 1.5.4 1.4-.4 1.5a1 1 0 0 1-1-1q-.1-1-1.8-1-2.4-.1-3.8-1.4c-1.1-.9-2.9-1.2-4.3-.9-2.1.5-2.2.4-1.2-1.6.7-1.2.9-2.5.6-3-.7-1.2 1.4-6.6 2.2-5.7.3.3 1.3 0 2.1-.6 1.2-1 1.9-.7 4 1.7 2.5 3 2.5 3 1.9.5-.5-2-.2-2.8 1.6-3.6 2.4-1.1 4.7-.7 4.7.7m22.5.4 3 1.3-3.7.1c-4.1.1-6.8-.7-6.8-2s4.1-1 7.5.6m63.1 1q-.6 1.5 1.5 1.5 1.9 0 1.7 1.2c-.5 1.4-5.4 3.5-6.3 2.6s1.6-6.8 2.7-6.8q1 .2.4 1.5m-81.5 3c3.3 1.4 3.3 1.4.8 1.5-1.5 0-3.2-.7-3.9-1.5-1.6-1.9-1.1-1.9 3.1 0m102.6 3.2c-.4 1.7-.4 1.7-1.2 0-.4-.9-.4-2.5 0-3.5.8-1.6.8-1.6 1.2 0a7 7 0 0 1 0 3.5m-82.4-1c1.2.7.8 3-.8 4.3-1.2 1-2.1.7-4.9-1.6a14 14 0 0 1-3.5-3.7c-.1-.8 7.5 0 9.2 1m71.7 4.2c0 3.4-.5 4.2-3.6 6.2-3 1.8-3.8 2-5 .8a4 4 0 0 1-.8-3.4c.5-1.9 6.9-7.5 8.6-7.5.4 0 .8 1.8.8 3.9m-79.3 1.3c3.8 3.7 3.9 4 1.6 7.4l-1.7 2.6-3.8-4.3q-6.2-7-2-8.2l2.2-.6c.2 0 1.9 1.3 3.7 3.1m88.3 3.7c0 2.4-1.6 4.5-2.9 3.7-.6-.4-1.1-2.8-1.1-5.4l.1-4.7 1.9 2.4c1.1 1.3 2 3.1 2 4m-25.4-1.4c-.6 1.8-6.2 2-7.2.3q-.7-1 1.4-.6c1.2.4 2.8-.1 3.9-1.2 1.9-1.8 2.9-1 1.9 1.5m-16.9.1q-.7.5-1.9.1t.6-.6 1.3.5m-18.9 1.6c1.9 1.9 1.5 4.8-.8 4.8-1.6 0-2-.7-2-3q0-4.7 2.8-1.8m-53.4 2.7c1.5 1.6 1.8 4.2 1.9 16.1.2 13.7.1 14.1-1.8 13.6l-2.6-.6c-.4 0-.9-1.7-1.3-3.9-.3-2.1-1.3-4.4-2.1-5.1s-1.5-2.5-1.5-4.1-.4-3.1-1-3.4-1-3.7-1-7.6V137h3.8q4 0 5.6 1.9m65.5.3q1.7 4.2-1.9 3.1-3.8-1-2.6-3.8c.8-2.3 3.6-1.8 4.5.7m-44.5 3.3c3.1 2.9 3.5 3.8 2.6 5.4s-1.5 1.9-3.3 1.2c-1.2-.5-4.1-1.4-6.4-2-4.2-1.2-7.3-3.4-7.3-5.2q0-1 .9-.5c.5.3 2.6-.1 4.7-.8 5.2-1.9 4.6-2.1 8.8 1.9m75.1 1.9q3.8 2.2 4.7 4.6c.9 3.2 2.6 15.4 2.2 15.8-.1.2-1.1.1-2.1-.2q-2-.6-3.7-6.6c-1.8-6-4.1-9.2-8.5-12.1q-2.4-1.6-1.8-3.1c.7-1.9 3.2-1.5 9.2 1.6m12.6-1.5c2.2 1.8 2.4 2.6 2.4 11.5 0 12.9-2.3 12.6-3.9-.5a23 23 0 0 0-2.1-7.5c-1.8-2.4-1.9-5.4-.1-5.4.8 0 2.4.9 3.7 1.9m-54.9 7.1c-.4 5.6-4.2 8.5-4.2 3.2 0-4.6 1.1-7.3 2.9-7q1.7.3 1.3 3.8m26.7-2.2c2.2 4.1.1 24.2-2.5 24.2-.7 0-2.6.8-4.2 1.7-2.8 1.6-2.9 1.6-7-1.7-4.8-3.8-5.2-5-1.7-5q4.3 0 1-3.3-1.7-1.6-.2-2c.9-.3.9-.7-.1-2-1.7-2-.8-3.7 1.9-3.7 2.3 0 2.5-1.6.3-2.8q-1.7-.9-.5-1.6 1-.5 1.1.3.1 1 1.1 1.1 1-.2.5-1.8-1.3-4.8 6.6-5.1 2.7 0 3.7 1.7m-47.4.5c.3.7.6 7.6.8 15.5.2 11.6 0 14.2-1.2 14.2-1.7 0-6.3-4.8-5.7-5.9.3-.4 1-3.6 1.5-7.1.9-5.2.8-6.8-.4-8.6-1.3-2-1.3-2.7 0-5.8 1.5-3.6 4.1-4.8 5-2.3m30 1.4c-1 1.4-2.1 3.8-2.5 5.2q-.7 3.2-1.5.8c-.4-.9-.4-3.3-.1-5.2.6-2.9 1.1-3.5 3.3-3.5 2.5 0 2.5 0 .8 2.7M66.7 154c.7 0 2 1.1 2.9 2.5 2 3 1.5 11.2-1.1 18.5-1.7 4.7-1.3 12.3.7 14.7.5.7.7 2.6.3 4.4-1.1 4.8-1.3 8.2-1.5 23.1-.2 11.2-.5 13.6-1.6 13.1-1.8-.7-1.6.5-1.9-16.1a53 53 0 0 0-1.8-17.5c-.8-1.8-2.3-6.1-3.3-9.7s-2.3-7.4-3-8.5a115 115 0 0 1-3.1-27.8c.5-1.3 1.4-1.2 6.4.9 3.2 1.3 6.4 2.4 7 2.4m73.3 8.3c1.2 4.4 2 8 1.8 8.2l-4.5.9-4.3.6v-4.3c0-2.4.5-6.9 1.2-10.1 1.4-7.3 2.8-6.2 5.8 4.7m-35 7c0 1 1.4 3.2 3 4.9s2.9 3.5 2.8 4-2.2-1-4.6-3.3c-3.3-3.4-4.2-5-4.2-7.8 0-3.3.1-3.4 1.5-1.5.8 1 1.5 2.7 1.5 3.7m59 6.9c0 12.4-2.6 9.8-3.4-3.4 0-1.4-.4-2.4-.8-2.1q-.8.3-.8-.6c0-1 2.8-3 4.3-3.1.4 0 .7 4.1.7 9.2m-11-4.3q2.7 4.9-2.5 2.3c-1.9-.9-3.5-2.2-3.5-2.9 0-2.1 4.8-1.5 6 .6m-51.4 6.8c-1 1-4.6-2.8-4.6-4.9 0-1.6.5-1.4 2.6 1.2 1.5 1.7 2.4 3.4 2 3.7m-27.9 3.5q-.5 1.1-.6-.6t.5-1.3q.5.6.1 1.9m6.4 5.1q-1.2 1.3-1.1-1.4c0-3.3 1.4-4.7 1.8-1.9.2 1.2-.1 2.7-.7 3.3m24.9 4.9q0 2.3-1.1 1.1-1-1.1-.5-2.2 1.6-2.5 1.6 1.1m-23.2 4.4q-.4 2.2-1-.9-.5-2.8.4-1.9c.6.6.8 1.8.6 2.8m-5.6 2.6c.5 5.9.4 6.3-1.1 5.3-1.3-.8-1.5-10.5-.2-10.5.5 0 1.1 2.4 1.3 5.2M7 198.7c0 3.1-1.5 6-2.3 4.7a17 17 0 0 1 .2-6.7c.3-2 2.1-.3 2.1 2m93.2 1.3q-.8 1.8 1.1-.2c.9-.9 1.7-2.1 1.7-2.7 0-1.9 1.8-1.2 2.5.9 1.5 4.7-4.8 7-6.5 2.4q-2-5.4.4-3.2c.7.7 1.1 2 .8 2.8m30.6-.2c.4 4.3-1.2 4.1-2.6-.4-.9-3.1-.8-3.5.6-3.2q1.7.4 2 3.6m-3.3 5.1q-.6.3-1.7-.7c-1.6-1.6-3.7.3-3.1 2.9.5 1.9.7 1.9 3.2.3l2.6-1.7-2.3 2.5c-3 3.3-10.4 7.5-9.6 5.4.3-.8 1.4-1.8 2.5-2.1q1.7-.6 2-1.3l.4-4.2.4-4.3c0-.5 1.4 0 3.1.9 1.6 1 2.7 2 2.5 2.3m-15.5-.4c0 .2-.5 1.6-1.2 3-1.2 2.6-3.4 3.6-2.4 1q.4-1.4-.4-1.5-1 .1-1 1.5c0 1.4-.7 1.5-1.5 1.5q-3.4.1 1.5 3.5c2.2 1.5 3.1 3 3.6 6.1.8 5.4.3 7.8-1.7 8.2-1.8.3-6.3-6.3-5.4-7.9q.5-.8-.4-.9c-2 0-1.2-7.6 1-10.4 2.4-3 7.9-5.9 7.9-4.1m-52.7 16.2c.3 8.6.5 15.8.4 15.9l-2.7.9q-3 1-1.2-.6c2.1-2.2 1.5-5.1-1-4.7q-2.4.2-2.2 2.6 0 2.4-1.3 1.7c-.8-.3-2.3-.5-3.4-.5-1.6 0-1.8-.5-1.3-2.5.8-3.1-2.2-4.7-4.1-2.2-1.9 2.6-3.9-.3-3-4.3.5-2.4.3-3.1-1.2-3.7-1.8-.6-3.3-2.2-3.3-3.4 0-.3 2-1.9 4.5-3.5s4.8-3.8 5.1-5q.4-2.2 6.2-4.2c3.1-1.1 6.2-2.1 6.8-2.1q1 0 1.7 15.6m-49-10.1c.3 2 2 5.8 3.8 8.5 3.6 5.6 3 7.8-1.4 5.8-2.7-1.2-3.2-2.5-4.3-12.2-.7-6.3.9-8.2 1.9-2.1m66.4 7.7c-.2 7.5-.4 8.3-1.9 7.9-3-.8-2.3-16.2.8-16.2 1 0 1.2 2 1.1 8.3M40 211.5q-.2.4-2 1.5c-1.6.9-2 .8-2-.5q.2-1.4 2-1.5c1.8-.1 2 .2 2 .5m70 1.6q0 .8-1 .9-.9-.1-1-1.6.1-1.3 1-.9 1 .6 1 1.6m30.7 6.2c-.3 2.2-1.6 5-2.9 6.4-3.4 3.8-12.8 7.5-9.9 3.9q1.5-1.5-1.5-2c-3.4-.9-4.4.2-2 2q2.5 1.6.3 1.4c-.9 0-1.8-.3-1.8-.8q-1-5.4.5-4.9c4.5 1.9 5.1 2 3.9.6q-2.5-2.8.2-2.9 1.3.2 1.3 1.2c-.5 2.4 3.3 1.3 5-1.4 1.7-2.9 1-5-1-3-2.4 2.4-2.8 1.1-.7-1.8 1.2-1.6 2.6-2.7 3.1-2.4q.7.6.3 1.5-.5.8.9.9 1.5-.2 1.6-1.5c.1-1.3-.5-1.5-1-1.5q-.9-.1.2-1.4c2.1-2.3 4.1 1 3.5 5.7m-136 2.9q-.5 1.1-.6-.6t.5-1.3q.5.7.1 1.9m95.3 6q-.2.7-1.5.8-1.5 0-1.5-2.8c.1-2.6.1-2.6 1.5-.8a8 8 0 0 1 1.5 2.8m20.1-.9q-1.1 1.3-2.7-.5c-1.4-1.4-1.4-1.5 1.1-1q2.8.5 1.6 1.5M6.4 229.8l-.2 3.2c-.2 2.5-1.9 2.6-2.4.2-.6-2.6.3-5.3 1.6-4.9q1 .4 1 1.5m7.8 2.7q-.5 5.4-2.2 2.5c-1.7-2.6-1.2-6.2.8-5.8q1.8.3 1.4 3.3m9 12.2c-1.8 16.2-2.3 19.3-3.3 19.3-1.9 0-2.2-3.3-.5-6.1 1.5-2.5 1.6-4.6 1-15.6l-.6-12.8 2.3 2.2c2.2 2.2 2.2 2.3 1.1 13m51.6-11.6q-3 2-2.2-.5.6-1.3 2.1-.9 1.8.5.1 1.4m7.3 7.1c0 5.1.3 11.4.5 14 .3 2.7 0 4.8-.5 4.8s-1.8 1.6-3 3.6c-1.7 2.9-2.6 3.5-4.9 3.2-2.5-.3-2.7-.6-2.6-4.3l.9-11c.5-3.9.8-8.5.8-10.3-.1-2.5.6-3.7 3-5.4a13 13 0 0 0 3.5-3q.4-.7 1.3-.8c.9-.1.9 4.2 1 9.2m-15.5-4.5c-1 1-1.9-.5-1-1.8q.7-1.6 1.2 0 .3 1.2-.2 1.8m50.2-1c.5 1.7-2.6 2.9-4 1.5q-.9-1-.3-2.2c.9-1.4 3.7-.9 4.3.7m14.5 4c.3 2.1.8 4.6 1.2 5.5q.8 1.9-1 1.8-1.7 0-1.1-1.5c.7-1.8-1-2-1.8-.3-.3.7-.5-.6-.3-3 .1-2.3-.1-4.2-.6-4.2q-.6-.1-.2-1c1.4-2.2 3.3-.8 3.8 2.7m-92.8-1.6c1.5 2.3 16.1 6.4 17.9 5 .6-.5 3.7-1.2 6.8-1.6l5.7-.7-.5 7.3c-1.2 18.4-1.4 19.5-4.3 18-3.3-1.8-9.3.5-13.1 5l-3.6 4.1h-9.2c-12.3 0-12.6-.3-11.9-11.2a148 148 0 0 1 3.2-24.2c.4-.9 2.1-1.9 3.8-2.1l3.9-.5q.7 0 1.3.9m68.2 3.5c-.9 2.9-1.3 3.3-3.6 2.8a10 10 0 0 1-3.9-2.2c-1-1.4-.9-1.8.9-2.7 1.1-.7 3.3-1.2 4.8-1.2 2.7 0 2.8.1 1.8 3.3M6.4 242.4c-.6 1.6-.8 1.7-1.6.2-1.1-1.9 0-4.2 1.3-2.9.6.6.7 1.8.3 2.7M15 244c0 1 .2 2.5.5 3.2.4 1.1-.3 1.3-3 1-4-.5-3.9-.4-2.3-4.8 1-2.7 1.5-3.1 3-2.3 1 .5 1.8 1.8 1.8 2.9m105.9 12.2c.1 8-.3 8.7-3.1 6.5-1.7-1.2-1.7-1.5.9-15.7.6-3.3.6-3.4 1.3-1 .5 1.4.8 6 .9 10.2m45.3 3c.2 5.4 0 9.8-.4 9.8s-.7-5.3-.7-11.8q.3-19.7 1.1 2m-32.1-6.5c.5 1.5 1.3 4.6 1.6 7l.6 4.4-4.4-.7-4.5-.8-.7-6.4-.5-6.2h3.4c2.8 0 3.6.5 4.5 2.7m-122.9 5.2q.2 2.3-1.1 2.9t-.8-1.8c.3-1.3.1-3.3-.5-4.4q-1.5-2.7.5-.6c.8.8 1.7 2.6 1.9 3.9M16 254q0 .9-1 1a1 1 0 0 1-1-1q.1-1 1-1t1 1m86 1.3c0 1.7-2 3.7-3.7 3.7-.7 0-1.3-1.1-1.3-2.5 0-2 .5-2.5 2.5-2.5q2.3.1 2.5 1.3m-94 .1q-.2.4-1.5 1.6-1.7 1.6-1.5-.4.2-1.5 1.5-1.6c1.3-.1 1.5.2 1.5.4m102.6 11.8-.5 6.7c-.2 1.3-3-3.7-3.1-5.2 0-1.9 2.7-7.7 3.6-7.7.3 0 .3 2.8 0 6.2M83 269.5q0 3.5-1.5 3.5c-1.8 0-2-4.1-.3-5.8s1.8-1.6 1.8 2.3m-19.6-.6c.3.5 3 1.2 6 1.5l5.5.7-2.1 3.5c-2.2 3.8-2.2 3.8-13 3.5-7.2-.2-7.8 0-9.4 2.4-2.1 3.2-3.7 3.2-5.8 0-1.6-2.4-1.6-2.5.8-2.5q6.4 0 9.6-5.2a9 9 0 0 1 7.2-4.7q.7 0 1.2.8m59.1 2.2c.3.5.8 2.4 1 4.3.5 3.4.4 3.5-2.5 3.1-4.3-.5-4.7-1-4.8-5.9l-.1-4.5 2.9 1.1c1.7.5 3.2 1.4 3.5 1.9m13-1.9c1.5.2 2.5 1.9 3.8 6.1 1 3.3 1.7 6 1.5 6.1s-2.4.1-4.9-.2c-5.3-.4-6.4-1.9-7.2-9.1-.5-4.2-.5-4.3 2.1-3.8zm-36.2 12.1q-.5 1 .9.4c2.1-.8 3 .3 1.7 2q-3.7 4.1-3.6-4c0-4.4.1-4.8.8-2.3.4 1.6.5 3.4.2 3.9M84 278.9q0 1-1 1.6-.9.4-1-.9.1-1.5 1-1.6 1 0 1 .9m-63 5.7c0 3.8-2.8 5.4-4.7 2.8-1.7-2.3-1.7-2.7.8-5.8q3.8-4.7 3.9 3m-14.2-.9c-.5 2.5-2.8 2.8-2.8.4q0-2 1.6-2.1 1.4.1 1.2 1.7m37.7 1.8c4.7 3.6 7.5 3.7 7.5.4 0-2.4 2.9-3.7 4.1-1.8.5.8.9 4 .9 7.1v5.8l-9.2-.3-9.3-.2-.3-3.5c-.4-4.2-1.6-5-5.3-4-1.6.5-2.9.6-2.9.2.1-.8 8.2-7.1 9.2-7.1.4-.1 2.8 1.5 5.3 3.4m121.5.5c0 3.9 0 3.9-2.7 2.9-1.6-.6-6.4-1-10.8-.9-12.2.4-17.5.1-17.5-.9s5.9-1.8 19.7-2.9c4.5-.4 8.5-1 8.9-1.5q2.4-2.4 2.4 3.3m-36.8-.5c1.7 2.2.5 3.2-4.7 4.4q-10.1 2.4-7.3-3.5c1-2.2 1.7-2.4 6.2-2.2 2.8.2 5.4.7 5.8 1.3m-21.7 2.7q.8 2.9 1.2.5c.5-2 2.3-1.3 2.3.9 0 1.7-8.5 2-11 .4q-1.3-.9-1-1.1c3.6-.6 4.4-.9 5.3-1.8q2.2-2.5 3.2 1.1m-95.5.3q0 1.5-3.1 1.5c-2.7 0-3-.2-1.9-1.5.7-.8 2.1-1.5 3.1-1.5q1.8.1 1.9 1.5m52.4 1.1c1.6.6 2.2 3.5.9 4.7-1 1.1-3.3-1.3-3.3-3.4s.1-2.2 2.4-1.3M18 292q0 .9-.4 1-.5-.1-1.1-1-.4-1 .4-1 1 0 1.1 1m63.1 1.3q-1.4 1.4-.5-.6.6-1.6 1.2-1.2.4.6-.7 1.8m-51.5-.3c2.7 0 3.4.4 3.4 1.9 0 1.4-1 2-4.7 2.5-2.6.3-5 .3-5.5-.2-1.3-1.3.3-5.4 1.9-4.8.8.3 3 .6 4.9.6m45.8 1.5q-.7 1.4-1 1.5-.4-.1-.4-1.5c0-1.4.4-1.5 1-1.5q.8.1.4 1.5m88.4 1c-.8.8-4.8-.8-4.2-1.6.3-.5 1.4-.4 2.5.2q1.9 1 1.7 1.4m-30.3-.5c-.3.5-1.9 1-3.6 1-1.6 0-2.9-.5-2.9-1s1.6-1 3.6-1q3.3 0 2.9 1m46.4 18.8c.6 1.1 2.6 7.9 4.5 15.3L194 364c7.8 28 10.5 38.8 9.8 39.5-.8.9-23.1 1.2-169.8 2.9l-29.5.3.3-45.6q.4-45.7 1.4-46.2c1.2-.8-1.4-.7 81.8-1.5a6189 6189 0 0 0 77-1.2c12.8-.2 14-.1 14.9 1.6M224 413c0 .5-1.5 1-3.4 1s-3.8-.5-4.1-1c-.4-.6 1-1 3.4-1 2.3 0 4.1.4 4.1 1m-3.8 6a9 9 0 0 0 4.4-1.5q3.4-2.6 3.4-.5-.1.9-1.5 1c-1.8 0-2 3-.2 3.1q.9 0-1.1.9a8 8 0 0 0-3.4 4.1q-1 3-2 2.1t-2.3-.6q-1.2.4-2-.5-.4-1 .9-1.1 1.5-.1 1.6-1.3c0-1.9-2-3.6-3.5-3q-1.3.4-.9-1.4c.3-1.1-.2-2.5-1-3.2-3.2-2.7-1.5-3.3 1.8-.7a13 13 0 0 0 5.8 2.6"/><path d="M108 30c-1.3 2.3.2 6 2.5 6 1.5 0 3-5.3 2-7-1-1.6-3.4-1.1-4.5 1m30.1-1.1c-2 1.3-.6 6.3 1.7 5.9q1.7-.3 1.7-3.2 0-4.8-3.4-2.7M96.5 44q.5.9 1.1 1 .3-.1.4-1-.1-1-1.1-1-.8 0-.4 1m1.6 5.6q0 1.7.6.6.4-1.2-.1-1.9-.5-.5-.5 1.3m-70.5 5.6c-.3 1.3 0 2.9.8 3.6 1 1.1 1.7.9 3.7-.8 2.4-2 2.4-2 .5-3.5q-4-3.2-5 .7m8.4 6.5q-1.2 4.5-2.9 4.1c-.9-.2-2.7.7-4 1.9-1.9 1.8-2.1 2.5-1.2 4.2 1.3 2.4 1.6 2.5 4.1 1.1 1.1-.6 1.7-1.7 1.4-2.5q-.5-1.4.9-1.5c.8 0 2.2-1.1 3.1-2.5S40 64 41.1 64c3.3 0 2.2-5.2-1.3-6.1-2.4-.6-2.7-.4-3.8 3.8m119-8.2q1.2 1.4 1.7 1.1c.7-.7-.7-2.6-1.9-2.6q-1 0 .2 1.5M123.5 70q.5.9 1.1 1 .3-.1.4-1-.1-1-1.1-1-.8 0-.4 1m-1.6 85.4c1.6 1.9 4.4 2.1 3.9.3-.3-.6-1.5-1.4-2.8-1.5-2.1-.3-2.2-.2-1.1 1.2m-1.9 3q.2 1.6 2.1 1.6c2.4 0 2.1-2.3-.4-2.8q-1.6-.2-1.7 1.2m16.5 61.6q.6.9 1.1 1 .3-.1.4-1-.1-1-1.1-1-.8 0-.4 1M244.7 56.8q-1.6.5-1.8 2.5l.1 69.7c0 69.2.2 82.5 2.1 161l1.4 57.5 1.4 71 1.4 67.4.2 8.4 20.2.1c11.1.1 20.5.4 20.9.8s0 1.6-.8 2.5a77 77 0 0 0-9.3 22.3c-.4 2.5-1.6 7.4-2.7 11l-2.3 7.5c-.2.6-2.9 1.9-6.1 2.8l-14.4 4.3-11.8 3.6c-1.8.5-4.6.7-6.2.3-1.9-.4-4.7 0-7.6 1.1-4 1.5-5.5 1.6-11.8.6A346 346 0 0 0 146 550c-20.8 1.2-25.1 2-27.7 5.3-1.4 1.8-3.6 2.6-9.1 3.5-9 1.5-14.1.8-21.5-3.1-5.3-2.8-6.1-2.9-9.6-1.8-2.2.6-6.1 3.1-8.8 5.5a32 32 0 0 1-22.6 9.5c-5.3.5-10.1 1.2-10.7 1.6-.6.3-6.8 1.3-13.8 2.1C-.1 575.1 0 575.1 0 577.1c0 2.2 1.6 2.3 10.4.9a469 469 0 0 1 41-5.4c4.8-.1 4.9-.1 7.6 4.9 3.9 7 4.6 9.5 2.4 9.5-1.4 0-1.5.6-.9 3.2q2.3 10.2.3 5.1c-1.7-4.2-3-5.4-4.7-4.4-1.1.7-1.2 1.7-.2 5.4.6 2.5 1.1 5.6 1 6.9q-.2 1.8-1.1-2.2c-1.1-5-2.4-7-4.5-7-1.1 0-1.2 1.3-.7 6.5.6 6.2.6 6.5-1.5 6.5-1.7 0-2.1-.6-2.1-3.4 0-4.8-.9-6.6-3.2-6.6-1.8 0-2 .6-1.6 5.7.4 6.8-1.6 8.6-2.7 2.4-.8-4.7-3.4-8.4-5.2-7.3-.8.5-.9 1.9 0 5.5q1 4.9 0 5.8-1 1.1-1.7-3.4c-.7-4.7-2.7-7.4-4.6-6.2-.6.4-.8 2.7-.4 6.1.6 4.4.4 5.4-.8 5.4q-1.5 0-2.4-5.3c-.7-4.3-1.3-5.3-3.1-5.5-2.2-.3-2.3-.1-1.6 5.7q.6 6.3-.6 6.1c-.6 0-1.1-1.1-1.1-2.4 0-3.1-2-8.6-3.1-8.6-.5 0-1.7.4-2.7.9-.9.5-2.5 1.2-3.6 1.5q-2 .5-1.3 2.7c.6 2.4-.1 4.9-1.4 4.9-.5 0-.9-1.6-.9-3.5 0-3.1-.3-3.5-2.5-3.5H0v36l7.2-.1c4 0 13.4.4 20.8.9s17.3.8 22 .6l31-.9c12.4-.3 24.8-.6 27.5-.8a31 31 0 0 1 8 .6c1.7.5 21.5 1.1 44 1.2l54 .5c35.5.4 48.5.1 48.5-1.5q0-1.5 2.9-1.5c2.3 0 3 .5 3.6 2.7a10 10 0 0 0 2 4.3c.7.8 1.8 3.2 2.4 5.2.7 2 3 5.3 5.2 7.2 3.5 3.2 4.5 3.6 9.5 3.6 3.1 0 7.1-.7 9-1.6 2.8-1.3 3.9-1.4 6.3-.4s4.1.9 9.1-.4a50 50 0 0 1 10.3-1.6c3.7 0 18-4.2 27.5-8.1 2.8-1.2 3.6-1.1 6.5.3q9.4 4.8 21.7 2.4c7.4-1.4 9.1-2 9.6-2.8q.8-.6 2.4 2c1.5 2.4 2.7 3 7.1 3.6 5.4.8 18.9.8 30.9.1 6.1-.4 26.3-.7 37.7-.6 5.1.1 5.2.1 5.9 3.6.7 4 1.5 4.8 6.7 6.6 2 .7 3.7 1.7 3.7 2.1s-21 .4-46.7 0-100.6-.6-166.3-.5a56142 56142 0 0 1-256.7.2L0 667v41l5.8.2H13c2.8-.3 50.5-.1 67.5.3 9.4.2 72.8.6 141 .9s149.4.8 180.5 1.1c61.9.6 71.3.7 87.3.6l10.7-.1v-79.6l-7.1-12a126 126 0 0 0-11.1-16.1c-4-4-4.1-4.5-3.9-9.8.4-10.6-4.2-28-9.1-33.9-2.3-2.9-3.6-3.6-6.4-3.6-1.9 0-3.4-.5-3.4-1.1q.2-1 2-.4 4.6 1.3-1.8-3c-3.9-2.5-3.9-2.5-13.8-1.4-5.4.7-11.2 1.8-12.7 2.6-2.3 1.1-3.9 1.2-8.3.3-6.2-1.3-9-.7-9.9 2.1-.7 2.1-9.2 6.9-12.3 6.9-2.4 0-5.2 3-5.2 5.6 0 1.1.9 3.7 2 5.9 2.4 4.7 2.4 4.5.3 4.5-1 0-2.8-1.6-4.1-3.6-2.4-3.7-2.8-3.8-8.9-1.9-1.8.6-2.5 0-4.1-3.2-2.4-4.5-3.3-5.1-18.1-12a90 90 0 0 1-13.6-7.3c-3.5-3.3-9.6-6-13.6-6-2 0-4.2-.7-4.9-1.5s-2.8-1.5-4.7-1.5c-3.9 0-3.9 1.1.3-12.2 2.8-9 3-13.4.8-22.8-1.7-7.7-2.4-8.6-5.3-7.1-1.6.9-2 .7-2.5-1.5-.4-1.5-.6-2.8-.4-2.9l75.8-.9 89.8-.7 14.2-.2V58.3l-9.7-.6c-18.9-1.1-70.3-.9-70.3.3q.1 1 1.3 1.6c.7.2 17.1.6 36.4.7 28 .2 35.3.5 36.7 1.6 1.5 1.3 1.6 16.9 1.4 214.1-.2 117.1-.6 213.1-.9 213.4s-40.2.7-88.6.8l-88.1.3-1.8-3-3.1-4.8c-1.5-2.7-3.3-3.7-6.5-3.7q-5.7 0-5.8 2.9c-.1 3-4.5 7.2-8.6 8.1-4.7 1.1-38.1 1.3-38.8.2-.2-.4-.7-19.5-1-42.5-.3-22.9-.8-46.3-1.1-52-.2-5.6-.7-31.3-1-57.1-.4-25.7-.8-47.3-1-48-.8-2.6-1.7-65.3-2-144.7l-.4-84.6 13.7-.6c7.5-.3 38-.5 67.7-.6 84.2 0 89.4-.1 90.1-1.2q.5-1 .2-1.5c-.5-.4-171.6-1.1-174.1-.6m66.8 428.9a69 69 0 0 1 5.5 20.9q0 5.3 1.6 6.8 3.4 3.2 3.4-3c0-2 .6-4.5 1.2-5.7 1.1-1.9 1.4-1.1 1.9 6.3.3 4.7.2 10.1-.2 12a86 86 0 0 1-6.6 18c-1.6 2.8-2.1 3-8.3 3.1-3.9 0-9 .9-13 2.2-6.3 2.2-6.5 2.3-6.5 5.7 0 1.9-.4 7.2-.9 11.8-.7 7-1.1 8.1-2.3 7-1.9-1.5-3.3.4-2.6 3.6.4 2 .4 2-1.5-.3q-4.5-5.6-3.8 5.5c.5 7.7-.9 8.6-1.9 1.1-.4-2.8-1.4-6.3-2.2-7.6-1.3-2-1.7-2.1-2.9-.9-1.1 1-1.2 2.2-.4 4.8.6 1.9.9 5.7.9 8.5-.1 2.7-.3 4.1-.5 3-2.7-13.5-4.2-17.5-6.5-17.5-.6 0-1.9-1-2.9-2.3-1.4-1.7-2.1-1.9-3-1-1 .9-.8 2 .8 5q3.5 6.6 4.6 13c.5 2.8.3 3.3-1.4 3.3q-2.1.2-2-2.9c0-3.3-4.1-13.5-7.8-19.5-3.2-5.1-5.4-10.6-4.4-10.6.4 0 1.7.7 2.8 1.5a9 9 0 0 0 4.7 1.5c2.1 0 3.3.9 4.8 3.5 2.4 4 3.4 4.3 4.9 1.5.9-1.7.5-2.5-2.3-5.4a17 17 0 0 0-6.5-4.1c-3.8-.8-5.7-2.8-4-4.2 2.7-2 22.3-7.5 23.3-6.5s18.9 1 20.1.1 1.1-3.9-.9-13.9c-1.8-9.1-3.2-26.5-1.8-23.4a39 39 0 0 1 1.6 7c1.3 8.8 5.5 12.4 5.5 4.6 0-3.3.1-3.5 1.4-1.6q4.2 5.6 2.5-9.4c-.6-5.1-.9-10.5-.7-12 .5-4.1 2.8 6.6 2.8 13.2 0 6.2 2 9 4.6 6.4 1.3-1.3 1.4-2.7.3-10.4-.7-4.9-2-10.5-3-12.5-1.7-3.4-1.6-7.9.1-7.9q.8.2 1.5 1.7m-7.8 2.5q-.5 1-.5-1.2c0-2.2.2-1.9.5-1.3.2.7.2 1.9 0 2.5m-3 18.5q-.5 1.3-.5-1.7c0-3 .2-2.7.5-1.8s.2 2.6 0 3.5m-13 15.7c-.3 9.3-2.3 15.3-5.5 16.4q-2.6.9.8-8c1.1-2.9 2-7 2-9 0-3.6 1.5-8.8 2.5-8.8.2 0 .3 4.2.2 9.4m21.1 26.7c-3.4 2-2.1 3.9 2.6 3.9 2.5 0 4.8.5 5.1 1q.6 1.1-1.9.4c-2.9-.7-4.7 1.9-2.8 3.8q1.2 1.1.1 2.4c-1.6 1.9-.2 3.4 3.4 3.5q3.3.1 1 .6a7 7 0 0 0-3.3 1.8c-1 1.2-.7 1.7 1.5 2.5 1.4.5 3.1 1 3.6 1s.9.5.9 1.1q-.2 1-2 .6c-1-.3-2.4.1-3 .8-1.1 1.4-.8 1.8 3.4 4 1.8 1 2 3.3.2 2.7-1-.3-3.6 1.7-3.6 2.9 0 .5 1.1 1.1 2.5 1.5 3 .7 3.1 1.5.5 3.2q-1.8 1.3-2 2.2.2 1 2 1c2.2 0 2.7 1.9.9 3.7q-1.2 1 2.6 4.6c3.4 3.3 3.5 3.6 1.6 4.2q-3.8 1.3-.4 4 1.4 1.3 1 2.2c-.8 1.2-7.9 3-14.5 3.6-4.9.5-5.7 1-4.9 3.1.7 1.7 4 1.4 15.7-1.5 8.7-2.1 10-1.5 9.8 4.2-.1 2.1.5 4.5 1.2 5.4 1.2 1.4 1 1.9-1.5 3.9-2.4 1.9-2.7 2.8-2.2 5.4q.8 3.3-.6 3.2a46 46 0 0 1-14.2-9.9q-6.3-6-7.9-3.2c-.8 1.2 10.9 11.8 15.2 13.9 1.7.9 3.2 1.9 3.2 2.3s-2.3 1.6-5.2 2.8l-5.1 2.1-2.3-2.1a22 22 0 0 1-4.1-7.1c-1-2.8-2.9-5.9-4.2-6.9-2.4-1.9-2.4-1.9-4.8.3-2.2 2-2.4 3-2.1 9.1.2 6.2 0 7.1-2.1 8.8s-8.1 2.7-8.1 1.3c0-.3 1.5-2.5 3.4-5 3-4 5.4-9.9 4.4-10.9-.1-.2-1.5-.6-3-1-2.4-.6-2.8-.3-5.3 5.4-1.5 3.4-3.4 6.1-4.1 6.1-1.9 0-1.8-5 .1-7.6.8-1.2 1.9-5 2.4-8.5.9-5.4.8-6.6-.6-8.1-.9-1-2.2-1.8-3-1.8q-1.2-.1-1.3-1 0-1 1.9 0c1.6.8 2.5.3 5.5-3.2 4.4-5.1 4.8-6.4 8.2-28.8l1.4-15.5 1.3-14.4c.2-2.9 4.9-4.9 11.2-5 3.2 0 3.6.2 2.3 1m38.2 3.8c4.6 3.7 19.7 11.4 26.8 13.6 1.2.3 3.1 2.5 4.3 4.8q4.2 8.4 6.3 6.8c1.8-1.4 6-2.1 7.4-1.2q1.6.8-1 1.4c-2.1.6-2.2.7-.6 2.3 1.4 1.4 2 1.5 3.2.5s1.7-.8 2.6.9c.9 1.6.8 2.1-.5 2.6q-1.4.6-1.5 2c0 1.7 2.6 1.9 3.6.3.9-1.4 11.2 16.7 12 21.1.3 1.9 1.2 4 1.9 4.6 1.8 1.4 3.1 6.4 1.6 6.4q-1-.2-1.1-1.5-.2-1.9-2-3.5c-1.8-1.6-2-2.9-2-4s-.9-2.9-2-4-2-2.9-2-4q0-2-1.9-2c-1 0-3.2-1.5-4.8-3.3-4-4.6-4.9-5-7.4-3.5-1.8 1.1-2.2 1.1-2.6 0-.3-.7-2-3.3-3.9-5.8q-3.5-4.5-3.4-8c0-3.1-.3-3.6-2-3.1q-2 .4-2-.8c0-1.9-2-2.9-3.2-1.7q-1.1 1-2.5.5t-2 1.6c-.7 2.9-3.3 2.7-3.3-.2q0-4.7-2.8-2.5c-1.2 1-2.1.6-4.9-2.7a48 48 0 0 1-5.5-8c-1.1-2.2-3-5-4.1-6.2l-2-2.3-3.4 2c-4.2 2.5-4.3 2.5-4.3-.2 0-2.3 2.6-5.8 4.4-5.8a14 14 0 0 1 4.6 2.9m-16.2-1.3c3.7 1 2.5 1.9-2.5 1.7-5.9-.2-5.5-.1-4.8-1.3s3.9-1.3 7.3-.4M191.1 553l20.4 1.5c4.4.3 9.5.9 11.4 1.3 3.9.9 5.3 2.9 1.9 2.8-2.6-.1-3.6 2.7-1.7 5q1.1 1.5 2.5.4 1.3-1.3 2.2.6c1.3 2.4 4 1.1 4.4-2 .3-2.4.4-2.4 2.7 1.5l2.3 4.2-3.5-.7q-3.5-.7-4.1.6-.6 1.5-1.2 0a3 3 0 0 0-1.9-1.2c-1.5 0-3 3.5-2.1 4.9q.4.9-1.1 1.5c-3.1 1.2.3 2.6 6.6 2.7 6.6.1 7.7-.4 8.3-3.6q.2-2.2 3.6 4.8c1.7 3.7 3.2 7.6 3.1 8.5q0 1.9-.9-.6c-.5-1.2-1.6-2.2-2.5-2.2q-1.5.2-2.5 2.2l-.9 2.3v-2.2c-.1-1.2-.6-2.5-1.1-2.8-1.5-.9-4 1.4-4 3.6 0 2.7-2.8 2.4-3.2-.4s-2.9-2.8-4.4 0l-1.1 2.3-1.1-2.5c-1.5-3.3-4-3.2-4.4.2-.4 3.7-2.1 3.9-3.5.3-.6-1.6-1.8-3-2.7-3-1.7 0-1.9.8-1.7 5 .1 2.3 0 2.2-1.3-.8-.8-1.7-2.2-3.2-3.1-3.2q-1.5 0-1.6 3.2-.1 4-.6.8-.8-5-4-3.5c-1 .5-2.6.7-3.6.6q-1.7 0-2.6 2.1c-1 2.3-1 2.3-1-.3-.1-1.5-.7-2.9-1.5-3.2-2.1-.8-3.8 1.7-3.4 4.9.5 4.1-1.9 4-2.6-.1-.9-4.8-3.8-4.5-4.7.5q-.7 4.2-.8.9c-.1-2.9-2.4-5.4-4.1-4.4-.5.3-1 2.2-1 4.1 0 4-1.7 4.6-2.2.6-.4-3.6-3.9-3.8-4.9-.2-.7 2.4-.7 2.4-.8.2-.1-2.8-3-4.1-4.5-2.1-.9 1.3-1.5 1.3-3.6.2-3.2-1.6-6-1.7-6-.1q-.1 1.3-1.3-.3c-1.1-1.4-6.3-2-8.7-.9-1.1.5-5.6-.2-6.4-1q-.7-1 .3-2.4c2-2.4.5-3.5-3.6-2.6-4.1 1-5.3.6-5.3-1.6 0-4.1 7.3-5.2 8.3-1.2.5 1.8 1.1 1.9 5.4 1.4 2.6-.3 10.2-.8 16.8-1.1s17.4-1 24-1.6l20.5-1.3c10.7-.5 10-.4 10-1.6q-.2-1-1.5-1t-1.5-2.4c0-4-1.9-4-3.6-.1-1.6 3.9-3.6 4.3-3.9.7a6 6 0 0 0-.8-2.8c-1-1-3.7 1.6-3.7 3.5q.1 1.9-1.9-.8c-1.9-2.5-4.1-2.2-4.2.7q0 1.7-1-.8l-1-2.5-2.5 3q-2.4 3.1-2.4 1.4a4 4 0 0 0-1.4-2.8c-1.2-1-1.8-.6-3.3 2.1-1.6 3.1-1.8 3.2-2.1 1-.2-1.3-1-2.6-1.9-2.9-1.7-.7-3.4 1.4-2.6 3.4q.5 1.3-1.6 1.3t-2.7-2.5c-.7-2.8-2.2-3.3-3.1-.9-.5 1.5-.7 1.5-1.5 0q-2-3.3-3.4.6l-.7 2.3-.9-2.4c-.9-2.7-2.7-1.8-3.2 1.5q-.4 1.7-1.4 2.2-1 .2-.5-1.7c.7-2.8-2.2-2.8-3.7-.1a4 4 0 0 1-3.5 2c-2.2 0-2.4-.3-1.8-3 .4-2.3.2-3-1-3-.8 0-2.1 1.3-2.9 3-1.4 3.2-2.8 4-2.8 1.5 0-.9-1.1-2.1-2.5-2.7-2-.9-2.8-.8-4.3.5-1.7 1.5-1.9 1.5-3.5-1.2-2.7-4.6-2.3-5.1 4.7-5.1 3.6 0 6.8-.5 7.1-1q.7-1 1.6-.4c.6.3 1.8-.1 2.8-1 1.7-1.5 1.9-1.5 2.4-.1.8 1.8 3.3 2 4 .2.8-2.1-1.1-5.9-2.5-5.1a8 8 0 0 1-3.3.9q-2 0-1.9 1.6c.1 1.9-4.4 1.8-5.6-.2q-.9-1.1-2.6-.4c-1.1.4-2.8.9-3.9 1l-5.5.9c-2.9.6-3.2.5-1.7-.4q2-1.2 1.3-3.4c-.5-2.2-.1-2.3 8.7-3.4 13.6-1.7 22.3-1.8 24.2-.2 1.4 1.2 2.2 1.2 4.8.1 2.7-1.1 7-2 14.3-3 .6 0 6.7.3 13.5.9m259.7-.4c3 .9 6 6.3 4 7.5-1 .6-.6 1.5 1.8 3.6 3.8 3.5 5.5 7.3 4.2 9.6-1.6 3-3.8 2.1-3.1-1.3q.5-3-.6-3-1.2-.1-.6-2 .6-2-1-2.6c-2.4-.9-3.1.4-1.6 2.9q2 2.9-.3.8c-1.4-1.2-1.9-1.1-3.4.3-1 .9-2.6 1.6-3.6 1.6q-1.5.2-2.2 1.5c-.5 1.3-1 1.2-3.4-.5q-4.2-3.1-4 1c0 1.3-.7 1.7-2.9 1.4-4-.5-6 2-3.2 3.8 3 1.8 2.6 3.8-.7 3.8-1.5 0-3.3.5-4 1.2s-4.3 1.3-8 1.5l-7 .2c-1.2.3 5.8 5.9 8.1 6.4 4.5 1.2 3.2 3.3-2.8 4.4-4.3.8-5.8.7-6.6-.4a4 4 0 0 0-2.5-1.3c-1.4 0-5.9-7.8-5.1-8.7.3-.2 1.5.1 2.7.7 1.8 1 2.5.9 3.7-.3 1.3-1.3 1.1-2.1-1.9-6.8-1.9-3-4.2-6-5.1-6.8-3.2-2.6-1-7.9 2.7-6.5q1.6.5 2.2-1c.3-.9 1.4-1.6 2.3-1.6s2.8-.7 4.3-1.4c2.6-1.4 2.9-1.3 3.8.5 1.4 2.4 3 2.5 3 0 0-2.1-2.3-4.5-3.3-3.4q-.7.5-.7-.4c0-3 6.4-3.4 13.1-.8.9.3 2.2-.1 2.9-1 1.6-1.9 4-2 4 0q.1 1.3 2.1 1.5 2 0 3.5 3.5 2.4 5.7 4.1 1.9.5-1.6-3.2-5.4l-3.8-3.9 3.9-.4 4.9-.5c.6-.1 2 .1 3.3.4M81 557.5q1.2 1.3 1.9 1.1c.3-.2 1.7.2 3.1 1l2.5 1.3-2.7.1c-1.6 0-2.8.5-2.8 1.1s-.8 1.8-1.7 2.4c-1.7 1.2-1.7 1.4.1 3.4 1.6 1.8 1.7 2.1.3 2.1-2.7 0-3.2 2.2-.9 4.1 2.1 1.6 2.1 1.7.2 2.2-2.6.7-1.7 3.1 1.6 4.6 2.4 1.1 2.5 1.4 1.9 6.4-.4 3-1.5 6-2.6 7.2-1.6 1.7-1.9 1.7-1.9.3 0-.9-.3-2.3-.6-3.2q-.6-1.6 1-1.6 1.5-.1 1.6-2c0-1.5-.7-2-2.9-2-2.4 0-3-.5-3.4-2.9-.4-1.6-2-5.2-3.7-7.9-1.6-2.7-3-5.7-3-6.6 0-1 1.7-3.9 3.8-6.4 5.4-6.8 6.1-7.2 8.2-4.7m265.8 4q2.5 5.7-.8 1.5-3.2-4-1.2-4c.5 0 1.4 1.1 2 2.5m118.6-.3c1.8 2.5 2.1 6.4.6 7.3-.6.4-1-.6-1-2.1s-1-3.8-2.2-5.1c-1.8-1.9-1.9-2.3-.5-2.3.9 0 2.3 1 3.1 2.2m-223.9-.2q-.6.9-1.6 1-.8-.1-.9-1 .1-1 1.6-1 1.3 0 .9 1m-123.3 3c.5 3.6-.4 4-8.3 4-5.5 0-5.9-.2-5.9-2.3s.7-2.5 5.3-3.4c8.3-1.6 8.4-1.6 8.9 1.7m215 .7c-.4 2.6 1.4 3.9 3.3 2.3q1.6-1.6 1.5.9 0 2.1 1.9 2.1c1 0 2.1.7 2.5 1.5.6 1.7 3.6 2 3.6.4s2.9.9 4.5 4.1a9 9 0 0 1 1 4.6l-1.1 5.9-.8 4-.5-3.3c-.8-4.4-2.5-4.1-3.2.5q-.6 3.4-.8 1.5c-.1-3.1-2-6.4-3.2-5.7-.5.4-.9 3.7-.9 7.5s-.3 7.1-.7 7.3c-.5.3-.8-1.9-.8-4.8 0-5.8-.6-7.1-3-6.2-1.1.5-1.5 2.2-1.5 7.3 0 8.8-1.1 7.6-1.6-1.7q-.6-12-4-7.5c-1.4 1.9-1.4 1.9-2.8.1-2-2.7-3.7-21.1-2.1-22.6.2-.3 2.4-.5 4.7-.5 3.8.1 4.3.3 4 2.3M97 566q-.2 1.8-1.5 2c-1.8 0-1.9-1.2-.3-2.8s1.8-1.5 1.8.8m150.1.5c0 1.3-4.1 1.9-4.1.7s2-2.2 3.3-1.8q.8.3.8 1.1m-129.5 5.7q.6 2.1-.5 2.6c-.6.2-1.1 1.6-1.1 3.1 0 2.5-.3 2.8-2.6 2.3s-2.5-.3-1.9 3.1a10 10 0 0 1-.3 5.3c-.9 1.6-1.1 1.4-2-1.6q-.8-3.7-2.7-3.3c-1.1.1-2.4-.6-3.1-1.4q-1.1-1.5-2.8-1c-2.1.8-2-.1.3-5.6 1.9-4.4 1.9-4.4 7.2-4.6 2.8 0 5.4-.3 5.7-.6 1.2-1.2 3.1-.3 3.8 1.7m7.4.5q.2 1.9-1.5.3-1.3-1.2-.9-2.1c.8-1.3 2.4-.1 2.4 1.8m-30.6 2c-.4 1.6-1.5 4.6-2.5 6.8l-1.9 4v-4.2c0-5.3 1.5-9.3 3.5-9.3 1.2 0 1.4.6.9 2.7m361.5 1c-.1 1 .2 3.4.5 5.3.5 2.9.1 4.1-2.4 7-3.1 3.5-4.4 2.2-1.5-1.6.8-1.1 1.4-4.1 1.5-7.2 0-2.8.4-5.2.9-5.2q1 .2 1 1.7M72.4 585c.7 3.4.6 3.3-2.2-1.5-1.5-2.8-2.6-5.6-2.4-6.3.7-1.9 3.8 3.4 4.6 7.8m50.5-4.1c-1.6.5-3.3-1.5-2.4-3q.8-1.4 2.2.7 1.4 1.9.2 2.3m323.2 3.4c-1.6 1.6-2.6 0-1-1.9q1.4-1.6 1.7-.4c.2.6-.1 1.7-.7 2.3m-190.2-1.4c1.5 1 .7 3.1-1.2 3.1-2.1 0-4-1.7-3.3-2.9q1.5-2 4.5-.2m111.1 2.5c-.8.8-3.2 1.8-5.2 2.1-3 .6-3.8.4-3.8-.8 0-1.9 1.5-2.5 6.5-2.6 3.4-.1 3.7.1 2.5 1.3m73.3.2q-.6 2.3-3.8 0c-1.9-1.4-1.8-1.5 1-1.2q2.7.4 2.8 1.2m-64.2 1.3c2.6 2.1 2.1 3.6-.8 2.7-2.5-.8-4.9-4.6-2.9-4.6.7 0 2.4.9 3.7 1.9m-46.8 5.3c.3 2.1.2 3.8-.4 3.8-.5 0-.9-1.9-.9-4.2q0-7.3 1.3.4m129.8.1c-1.7 1.7-2.4.1-1-2.5 1.2-2.1 1.4-2.1 1.7-.4.2 1-.1 2.3-.7 2.9M118.6 594c-.1 5.5-1.6 7-1.6 1.6 0-3.1.8-6.6 1.5-6.6.1 0 .2 2.2.1 5m139.4-2.4q-.1 1.3-1 .9-1-.7-.5-1.6 1.4-2 1.5.7M91.8 604c0 3.1-.2 2.9-1.9-2.5-1-3.3-1.8-7.1-1.8-8.5.1-3.9 3.7 6.8 3.7 11m141.7-12q.4.9-.9 1-1.5-.1-1.6-1 0-1 .9-1t1.6 1m13.6.2q2.3 1.5 2.6 0c.6-1.6 2.3-1.6 2.3.1 0 .7-1 1.7-2.2 2.2q-2.4 1-2.6 4.1-.2 3.3-2.3 3.7c-1.6.4-1.8 1.1-1.3 3.1.8 3.3-1.7 3.6-3.8.4-1.8-2.7-4.8-1.8-4.8 1.3q0 2-.7 1.5a4 4 0 0 1-.8-2.4q0-1.7-2.5-1.7c-2.1 0-2.5.5-2.5 2.7.1 3.5-1.1 3.6-1.9.3q-.6-2.7-3.2-2.5c-2.3 0-2.5.3-2 2.5q.7 2.6-.8 2.5-1.4-.2-1.8-2.3-.3-2.1-2.3-2.2-2 0-2.3 2.2-.4 2.1-1.2 2.3c-.8.2-1-1-1.2-2.3a3 3 0 0 0-2.5-2.5c-1.9-.3-2.3.1-2.3 2.2 0 2.3-.4 2.6-3.3 2.6-2.4 0-3.5-.6-4.2-2.3-1.5-3.3-4.9-2.9-5.3.6-.3 2.2-.8 2.8-2.5 2.5q-2-.4-2.7-2.8c-.9-3.7-4.6-3.5-4.3.2q.3 3-1.7 2.8-2 .1-2.2-2.8c-.4-3.8-4.5-4.4-5.4-.8-.8 3.2-2.6 3.3-3.9.3-.6-1.2-1.7-2.2-2.5-2.2s-1.6 1-1.8 2.2q-.3 2.3-2.2 2.3-1.8 0-2.2-2.3-.3-2.2-2.3-2.2t-2.3 2.2c-.3 1.8-1 2.3-3.3 2.3-2.5 0-2.9-.3-2.4-1.9.6-2-1.8-4.6-3.5-3.6-.5.3-1 1.7-1 2.9 0 1.3-.7 2.9-1.5 3.6-1.6 1.3-2 .7-2.7-3.5-.5-3.1-3.2-2.3-4.3 1.2-.5 1.8-1.3 3.3-1.8 3.3q-.6-.2-.2-2c.9-2.8-1.3-5.4-3.1-3.9-.8.6-1.4 1.7-1.4 2.3 0 .7-.7 2.1-1.6 3.2-1.6 1.9-1.6 1.7 0-3.4.6-1.8.3-2.2-1.2-2.2q-2 .1-2.4-3c-.5-3.3 1.1-4 3.3-1.4 1.2 1.4 3.2 1.5 16.9.9 8.5-.4 15.8-.9 16.1-1 1.3-.9 28.1-2.7 59.4-4.1 16.3-.7 19.4-1.4 20.2-4.4.6-2.4.7-2.4 3.4-.8m189.5-.3c-.3.4-1.8 1.1-3.3 1.4-4 .8-10.1 6.3-11.3 10l-1 3.2.5-3.5c.8-5.1 3.5-8.1 9.1-10.1 5.7-2 6.7-2.2 6-1M219 593q-.1.9-1.6 1-1.3-.1-.9-1 .6-1 1.6-1 .8 0 .9 1m-143.6 6.1c.2 2.4.6 5.4 1 6.5q.6 2.1-.9 3.4c-2 1.7-3.2.5-1.5-1.5q1.5-1.6.2-2.7c-.7-.7-1.2-3.7-1.2-6.7 0-6.6 2-5.8 2.4 1m277.6-4.5q-.1.4-1.5.4c-1.4 0-1.5-.4-1.5-1q.1-.8 1.5-.4 1.4.6 1.5 1m85 .4q-.2.9-1.9 1c-1.8 0-8.1 6.2-8.1 8a15 15 0 0 0 3.8 7.4q1.8.9.1 1.6-1.3.7-2.5-.8c-1.7-2.3-3.9-.2-3.1 3 1 3.6.9 4.2-.2 4.6q-1 .2-1.1-1.2c0-.9-.5-2.4-1.1-3.5-1.8-2.8-.3-8.3 3.7-13.5 4.1-5.4 10.4-9.4 10.4-6.6m-79 1.5c0 .8 1.1 1.7 2.5 2l5.1 1q2.6.5 4.3-.9c1.4-1.3 2.3-1.2 7.4 1q5.9 2.6 7.1 1.5 1.2-.9 2.6-.1t2.6-.1c2.8-2.3 12.4 9.9 12.3 15.6q0 1.8-1.2-1.4c-1.4-3.9-4.1-6.1-5.7-4.5q-1 1 1 6.4 3.1 8.6 1 13.5-.9 2.4-.9-3.1-.1-5.2-1.5-5.7-3.1-1.2-4.2 6.7c-.4 2.5-1.1 4.6-1.5 4.6q-.8-.1-.9-1c0-1.4-3-1.2-3.5.2l-1.6 5.8c-1.1 4-1.3 4.2-1.9 2-.9-3.9-4.2-3.3-5.3 1q-1 3-1.4 2.2c-.8-2-3-1.4-5.3 1.5l-2.1 2.8.5-2.5c1.1-5.1-2.9-6.4-5.2-1.7-.9 1.9-1.1 1.7-1.1-2.1-.1-2.3.4-5.1 1.1-6.2.7-1 .8-2.3.4-2.7q-.9-.6-1.3.4c-.3.7-1.6 1.3-2.9 1.3-2.3 0-2.4-.2-2.4-7.5 0-6 .3-7.5 1.5-7.5 2.1 0 1.9-1.7-.5-3-2.1-1.1-2.8-4-.9-4q1-.1.6-1.3-.4-1-2.1-.9-1.6.3-1.6-1.9c0-1.2-.7-3.1-1.6-4-1.5-1.7-1.5-2.1 1.2-5.3 3.1-3.7 5.4-4.6 5.4-2.1m94-.6c0 1.2-7 5.7-10.3 6.5-3.8.9-3.2-1.5.6-2.5 1.5-.4 3.9-1.6 5.4-2.8q4.4-3.3 4.3-1.2m2.4 4.2c-2 3.4-2.9 4-8.1 5.7-4.1 1.3-4.4-.2-.4-1.6a21 21 0 0 0 6.2-4.5q6.1-6.2 2.3.4m-197.8-1c1 1.6-2.3 4.6-3.6 3.3-.6-.6-.8-1.8-.4-2.7.7-1.9 2.9-2.2 4-.6m88.3 3.5c-1 1.2-.8 1.9.8 3.7 4.5 5.1 7.1 18.8 3.8 20.1q-1.3.4-1.6-.7c-.4-9.2-1.9-17.3-3.8-19.8s-2-3-.6-3.5c.8-.3 1.5-1.4 1.6-2.3q0-1.6.6-.3.3 1.3-.8 2.8m-16.9.9c0 3.2-1.2 3.2-2.7 0-1-2.2-.9-2.5.8-2.5q2-.1 1.9 2.5m108.4 3.1q.5 1.4-1.4 1.4c-2.1 0-3.4-1.5-2.5-3 .7-1.2 3.2-.2 3.9 1.6M248 612.1c0 2.6-.2 3-1.5 1.9-2-1.7-3.5-.4-3.6 3.3 0 3-.1 3-1.1 1-.8-1.7-1.9-2.1-5.4-2.1-2.4 0-4.4.4-4.4.8s-1.2.8-2.7.7c-2.6-.2-2.7 0-2.4 4.5.1 2.9-.2 4.8-.8 4.8s-1.1-2-1.1-4.6c0-4.1-.2-4.5-2.2-4.2-1.9.2-2.4 1.1-2.9 4.8q-.6 5.1-.7 1.4c-.2-3.4-2.4-6-4.2-4.9-.5.3-1 2.2-1 4.1s-.4 3.4-1 3.4-1-1.8-1-4.1c0-3.6-.2-4-2.2-3.7-1.9.2-2.3.9-2.3 3.5 0 1.8-.5 3.3-1 3.3-.7 0-.9-1.4-.7-3.4q.5-3.4-1.2-3.9c-.8-.3-1.8-.2-2.1.3s-1.9.7-3.5.3c-2.5-.4-3-.2-3.1 1.3q.2 2.6-.9-.2-.8-2.1-4.5-2.8c-4.2-.8-4.6-.6-6.2 3.7-1.2 3.2-1.2 3.2-.6-.9.9-7.1-3.9-7.2-5.3-.1l-.7 4.2-.6-4c-.5-3.2-1.1-4.1-2.8-4.3-2.1-.3-2.3.1-2.3 3.8q0 4.3-1.2 3.7-1.3-.4-1-4.5c.3-3.6.1-4.2-1.6-4.2q-3.2 0-3.2 5.2c0 3.2-.6 1.8-1.3-2.8l-.7-4.1 33.8-.1c33.1-.1 47.4-1 49.5-3.1 1.6-1.6 1.7-1.4 1.7 2m94.5-1.4c2 5.4 2.6 23.6.7 25.5q-1.1 1-1.9.5c-.9-.9-1-27.7-.2-27.7q.7.2 1.4 1.7m115 3q1.2 6.3-4.4 6.3c-1.5 0-3.2.5-3.9 1.2q-1.1 1-1.2.2c0-.6 1.6-2.5 3.5-4.4 3.4-3.3 4.5-6 2.5-6q-.9 0-1-.9c-.1-.9.9-.7 1.9-.4q1.8.5 2.6 4m19-.7c1.3 0 2.7.5 3.1 1.2q.6 1-.5.4c-.6-.4-2.3 0-3.7.8-2.6 1.8-2.7 1.8-3.9-3.9-.6-3-.6-3 1-.8a6 6 0 0 0 4 2.3M335 611.4l.6 2.1c.6 1.4.3 1.4-2 .4-3.1-1.4-3.4-2.9-.6-2.9q1.8 0 2 .4m-231.2 1.3c-1 .2-2.6.2-3.5 0q-1.3-.5 1.7-.5c3 0 2.7.2 1.8.5m333.3 4.1c-.2 2.9.3 4.3 2.3 6.1 1.4 1.4 2.6 3.1 2.6 4q.2 1.8-2.5-.9c-2.8-2.9-5.9-12.7-4.1-13.3 1.7-.6 2 .1 1.7 4.1m-352.7-3.2q1.5.6 1.1 1.5c-.7 1-3.5 0-3.5-1.2s.3-1.1 2.4-.3m29.1.4q2.9 1-.2.9c-1.2.1-2.5-.4-2.8-.9q-1.1-1.8 3 0m46.8.1c-1.3 1.3-8.3 1.9-8.3.7 0-.6 1.8-1 8-1.6q1.5-.3.3.9m-13.3 2.4q0 1.3-1 1.5-.9-.2-1-1.5c-.1-1.3.5-1.5 1-1.5q1 .1 1 1.5m-6.6 2.1c.8 2.9-.5 5-2.3 4-.6-.4-1.1-1.6-1.1-2.6s-.5-2.2-1-2.5c-1.7-1-4.1 1.6-3.5 3.6.6 1.6.1 1.9-3.2 1.9-3.4-.1-3.6-.2-2-1.4 2.3-1.8 2.2-3-.3-2.3q-1.8.4-2-.3c0-.5 1.7-1.2 3.8-1.5l4.7-1c.6-.2 2.2-.4 3.6-.4 2.1-.1 2.8.5 3.3 2.5m115.9 0q.5 2.6-1 3.1c-1.9.7-3.2-1.3-2.6-3.8.8-2.8 3-2.3 3.6.7m79.9 1.4c-.3 3.3-.7 3.9-1.8 2.9-1.9-1.6-1.8-4.6.4-5.8l1.7-1.1zm-281.1-.7c-.1 1.2-1.5.9-1.9-.4q-.3-1 .8-.8 1 .5 1.1 1.2m103.9 1.8c0 2.1-1.6 2.6-2.3.6-.6-1.7.3-3.8 1.4-3.1.5.3.9 1.4.9 2.5m-92.3.1q-.5 1.1-.6-.6t.5-1.3c.3.3.4 1.2.1 1.9m85 0q-.5 1.1-.6-.6t.5-1.3c.3.3.4 1.2.1 1.9m85.5 3.3q-1 5.1-1.2-.6c0-1.6.4-2.8.9-2.5s.6 1.7.3 3.1m-47.5-.3q-.5 1.1-.6-.6t.5-1.3c.3.3.4 1.2.1 1.9m263.9 4.3c-.1.5-1.4 1.1-2.9 1.3-2.8.3-5.3-2.8-4.3-5.4.4-1.1 1.2-.9 4 .9 1.9 1.2 3.4 2.6 3.2 3.2M63 625q0 .9-1 1a1 1 0 0 1-1-1q.1-1 1-1t1 1m14 0q0 .9-.9 1-1-.1-1.6-1-.4-1 .9-1 1.5 0 1.6 1m388.5 1q.4.9-1.4 1-2-.1-2.1-1 .1-1 1.4-1c.8 0 1.8.4 2.1 1m-51.9 5.7c-.7.7-2.6-.7-2.6-1.9q0-1 1.5.2 1.4 1.2 1.1 1.7m9.7-1.2c-.4 1.5-3.6 1.2-4.1-.3q-.5-1.4 1.9-1 2.1.3 2.2 1.3m7.7-.5q0 .9-.9 1-1-.1-1.6-1-.4-1 .9-1 1.5 0 1.6 1m55.8 4c.6 1.6.9 3 .7 3a21 21 0 0 1-3.5-6.5c0-1.5 1.9.8 2.8 3.5m-476.7-1.6 2.4-.5-2.4 1.1c-2.7 1.2-5.1.7-5.1-1.1q0-1.2 1.3-.1c.7.6 2.4.9 3.8.6m25.8.6c-3.9 1.1-15.1 1.2-14.4 0 .3-.5 4.3-1 8.8-.9q8.3 0 5.6.9m92.1.6c0 .2-2.6.3-5.7.3q-6.4-.1-2.8-.8c2.9-.6 8.5-.3 8.5.5m18.8.1c-3.2.2-8.4.2-11.5 0-3.2-.2-.6-.3 5.7-.3s8.9.1 5.8.3m324.2.3q-.1.9-2.1 1-1.7-.1-1.4-1c.3-.6 1.3-1 2.1-1s1.4.4 1.4 1m-37 1.5q0 1.3-1 1.5-.9-.2-1-1.5c-.1-1.3.5-1.5 1-1.5q1 .2 1 1.5m9.5-.6q.4 1-.5 1.6c-1.5.9-4.3-.3-3.5-1.5.8-1.3 3.2-1.3 4-.1m17.5.1q-.2.9-1.9 1c-1.1 0-2.3-.5-2.6-1q-.4-1 1.9-1c2.3 0 2.6.4 2.6 1m-356.6 1.5c-.8 1.9-8.6 2.1-40.9 1-17.6-.6-4.7-1.8 23.7-2.3 15.5-.2 17.7 0 17.2 1.3m322.1-.6c1 1.7-1.2 2.1-2.5.6q-1.6-1.7.3-1.5 1.5 0 2.2.9M35.3 637q1 .1-.5 1c-1.9 1.2-5.1.3-4.2-1.2.3-.5 1.3-.7 2.1-.4s2 .6 2.6.6m8-.3c-.7.2-2.1.2-3 0q-1.3-.5 1.2-.5 2.6 0 1.8.5m6 0c-.7.2-2.1.2-3 0q-1.3-.5 1.2-.5 2.6 0 1.8.5m368.2.3q.4.9-.4 1-1-.1-1.1-1 0-1 .4-1t1.1 1M25 638c-.8.5-2.8 1-4.5 1q-3.4 0-1.5-1c.8-.5 2.9-1 4.5-1q3.4 0 1.5 1m143 0c0 .6-4.6.9-12.2.8l-12.3-.2 10.5-.6 12.3-.8q1.5-.1 1.7.8m38 0c8 .6 6.1.7-11.7.8-13.2.1-21.4-.2-21.8-.8-.7-1.2 18.6-1.2 33.5 0m204 0q0 .9-.4 1-.5-.1-1.1-1-.4-1 .4-1 1 0 1.1 1m-176.7 1.7a17 17 0 0 1-4.5 0c-1.3-.2-.3-.4 2.2-.4s3.5.2 2.3.4m231.7.8q0 1.5-3 1.5c-3 0-3-.5-3-1.5s1-1.5 3-1.5 3 .5 3 1.5m-20.5.5c-2.7 1.2-3.5 1.2-3.5 0q.2-1 2.8-.9 3.5-.1.7.9m8.5 0q0 .9-.4 1-.5-.1-1.1-1-.4-1 .4-1 1 0 1.1 1m-24.5 1q-.6.9-1.6 1-.8-.1-.9-1 .1-1 1.6-1 1.3 0 .9 1m-14.5 2.6q0 1.3-.9 1.4c-1.1 0-2.2-2.6-1.4-3.4.9-.9 2.3.3 2.3 2m7-2.2q0 .5-1 1.1-.9.4-1-.4.1-1 1-1.1 1 0 1 .4m-15.5 1.6q.4.9-.4 1-1-.1-1.1-1 0-1 .4-1t1.1 1m-7 1q.4.9-.4 1-1-.1-1.1-1 0-1 .4-1t1.1 1m92.2.6q-.7.5-1.9.1t.6-.6q1.8 0 1.3.5m-174.9 5.9c-1.4 3.1-2.3 2.5-1.4-1q.7-2.3 1.6-2c.6.3.5 1.6-.2 3M491 649c0 1.3-2 1.3-4 0q-1.9-1.1 1.3-1c1.5 0 2.7.4 2.7 1m-197 2.5q-1.2 1.4-1.7 1.1c-.7-.7.7-2.6 1.9-2.6q1 0-.2 1.5m196 5.7c-.1 2.9-2.2 5.8-4.4 5.8q-1.5 0-1.6-2.5c0-1.4-.6-2.5-1.2-2.5-1.5-.1 4.1-2.8 6-2.9.6-.1 1.2.9 1.2 2.1m4 9.8q1.8 1-2.3 1-3.6 0-3.2-1c.8-1.3 3.5-1.3 5.5 0m-159 3.8q0 .9-.7 1.6c-.5.4-.8 2.4-.8 4.4s-.4 3.7-1 3.7c-1.1 0-1.2-6.1-.2-8.8.7-1.7 2.7-2.4 2.7-.9m17.5 1.2c-.3.4-.6 2.9-.7 5.4-.1 3.6-.5 4.6-1.6 4.4q-1.6-.2-1.6-4.8c-.1-3.8-.4-4.5-2.1-4.5s-2 .8-2.3 4.7c-.3 4.3-.5 4.8-2.8 4.8-2.1 0-2.4-.4-2.4-3.8 0-2-.5-4.4-1-5.2-.8-1.3 0-1.6 4.8-2 6.4-.6 10.4-.2 9.7 1m-342.1.8-.2 4.2c-.3 4.3-2.8 3.8-3.5-.7q-.6-3.7.6-4.5c1.6-1 3.2-.5 3.1 1m5.6 2.4q0 7.3-1.3-.5c-.3-2-.2-3.7.4-3.7.5 0 .9 1.9.9 4.2m5.7-2q-.5 1.1-.6-.6t.5-1.3c.3.3.4 1.2.1 1.9m16.3 2.3c0 4.9-1.5 6.1-2.2 1.7l-1.3-4.5q-.9-1.8 1.4-1.7c1.8 0 2.1.6 2.1 4.5m7.5 0c0 2.2-.5 4-1.2 4.2q-1.3.6-1.3-4.2t1.3-4.3c.7.3 1.2 2.1 1.2 4.3m7.7 0c.2 3.6 0 4.5-1.2 4.3-2.3-.5-2.5-8.8-.1-8.8.5 0 1.1 2 1.3 4.5m7.4-2.9c-.3.9-.6 2.9-.6 4.5s-.4 2.9-1 2.9c-1.1 0-1.4-7.3-.3-8.3 1.2-1.3 2.5-.7 1.9.9m8.4 1.6c0 3.9-1.3 6.3-2.9 5.4-1.2-.8-1.5-6.8-.4-7.9 1.7-1.8 3.3-.5 3.3 2.5m7.1-2.3c-.8.5-1.7 2.6-2.1 4.7l-.8 3.9-.1-4.1c-.1-4.4.4-5.4 2.8-5.4q2 0 .2.9m17.6-.3q2.2.7 1.5 1.8c-.4.6-.7 1.8-.8 2.6-.3 4.5-.5 5.1-1.4 4.5-.5-.3-1-2.2-1-4.1 0-2.7-.4-3.4-1.9-3.4-1.6 0-2 .8-2.3 3.7-.4 4.4-2.3 4.2-2.3-.2 0-2.3-.4-3-2-3-1.5 0-2.1.8-2.3 3.2-.5 4.8-1.9 4-2.4-1.2l-.3-4.5H85c3.6 0 7.5.3 8.7.6m34.7 1.6c1.1 4.2.7 7.8-.9 7.8q-1.6.1-1.5-3.9 0-6.8-3.6-4-1.7 1.2-.9 4.6c.4 2.5.2 3.3-.9 3.3q-1.5.1-1.8-4.3c-.2-3.4-.7-4.2-2.3-4.2-1.7 0-2 .7-2 4.3 0 2.3-.4 4.2-.8 4.2-.9 0-1.4-1.3-2.1-6.3l-.5-3.7h8.3c7.8 0 8.4.1 9 2.2m7.1-1.2q-.7.9-1.6 1-.9-.1-.4-1a2 2 0 0 1 1.6-1q.9 0 .4 1m26.7 4.5c-.3 4-.7 5.2-1.7 4.8-.8-.2-1.5-1.9-1.7-3.6q-.2-3.4-2.3-3.2c-1.6 0-2 .6-1.9 3.2.3 4.8-2.4 4.3-2.8-.5-.2-2.9-.7-3.7-2.3-3.7s-2.1.9-2.6 4l-.6 4-.2-3.6q-.1-3.7-1.7-4.3-3.5-1.5-3.4 4 0 3.6-1.2 3.1c-.7-.2-1.3-1.9-1.3-3.8s-.4-4-.8-4.7c-.7-1 1.8-1.2 12-1.1l12.8.1zm13.6-4.5q-1.8 1.1-1.8 5 0 4.2-1.5 4c-1.2 0-1.5-.9-1.3-3.8.3-3.3 0-3.7-1.9-3.6q-3.4 0-1.8-1.7c.2-.3 2.6-.6 5.2-.7 3.8-.2 4.4 0 3.1.8m6.7 4.4c-.9 6-3.2 6.1-3.7.1-.3-3.8 0-4.5 1.7-4.8 2.8-.4 2.7-.4 2 4.7m8.1-3.8a20 20 0 0 0-.6 5q0 3.4-1.4 3.4c-1.1 0-1.5-1.3-1.4-5 0-4.3.3-5 2-5q2 0 1.4 1.6m13.9 3.4c0 6.3-2.2 6.9-2.7.7-.2-3.4-.7-4.2-2.3-4.2s-2.1.8-2.3 4.2c-.4 5.3-2.2 5.7-2.2.5 0-2.1-.5-4.3-1.2-5-.9-.9.1-1.2 4.8-1.2h5.9zm20.7-3.4c-.6 1-.6 2.9-.2 4.6.5 1.5.5 3 .1 3.3q-2.1 1.1-2.1-4.2c0-2.6-.4-3.3-2-3.3s-2 .7-2 3.5c0 1.9-.4 3.5-.9 3.5s-.8-1.4-.7-3.2c.1-2.4-.4-3.3-1.8-3.6q-3.5-.6-3.6 5 0 2.6-.9 2.8c-1 0-2.1-3.5-2.1-7.1 0-2.6 0-2.6 8.6-2.8 7.8-.2 8.5 0 7.6 1.5m7 .9c-.7 3.7-1.9 3.9-2.4.5-.4-2.3-.1-3 1.2-3s1.6.6 1.2 2.5m7.8-.6c-.5 1.1-1 3.3-1 5q0 3.2-1.6 3.1c-1.3 0-1.5-.7-1-3.1.3-1.7.6-4 .6-5q0-1.9 2-1.9c1.7 0 1.9.3 1 1.9m22.9 3.1c0 4.4-.2 5-1.9 5s-2-.7-2-3.1c0-2.6-.3-3-2.2-2.7q-2.4.2-2.6 3-.4 2.6-1.3 2.8c-.9 0-1.1-.6-1.3-5.5-.1-2.3-.6-3-2.1-3-1.6 0-2.1.8-2.3 4.2q-.3 4.4-1.8 4.3c-1.1 0-1.4-1.1-1.2-5l.3-5h18.2zm13.3-3.8c-.7.7-1.2 2.9-1.2 5s-.4 3.8-1 3.8c-1.1 0-1.4-5.9-.4-8.4q.7-1.5 2.2-1.6 1.8 0 .4 1.2m11 0c-.7.7-1.2 2.9-1.2 5 0 3.5-.2 3.8-2.9 3.8-2.8 0-2.9-.2-3.3-5l-.3-5h4.5c3.4 0 4.1.3 3.2 1.2m9.3 3.8c0 4.9-.1 5-3 5-3 0-3-.1-3-5s.1-5 3-5 3 .1 3 5m24.1-3.4a20 20 0 0 0-.6 5q0 3.4-1.4 3.4-2.6-.1-2.6-6.1 0-2.7-1.3-2.9c-2.4 0-3.5 2.2-3 5.6.5 3 .3 3.4-1.6 3.4-1.7 0-2.1-.6-2.1-3.4 0-3.6-2.1-6.2-4.1-5.1-.6.4-.9 2.4-.7 4.6q.3 3.8-.8 3.9c-.7 0-1.3-2-1.6-5l-.3-5h10.4c9 0 10.2.2 9.7 1.6m6.8.9a8 8 0 0 0-1.2 5c.3 1.4.1 2.8-.3 3.1s-.9-2-.9-5c0-5 .2-5.6 2-5.6 2 0 2 .1.4 2.5m30.9 1.5c-.4 2.5-.1 4.6.7 5.5 1 1.3.9 1.5-1 1.5s-2.1-.4-1.6-2.3c.3-1.2.6-3.7.6-5.5s.4-3.2.9-3.2.7 1.8.4 4m28.1-2.5c-.7 1.7-2 2-2.9.5-.3-.6-1.3-1-2.1-1q-1.4 0-1.5 4.2l-.1 4.3-1.1-4.3c-.5-2.3-1.5-4.2-2.2-4.2-1.3 0-3.7 2.4-3.1 3.1.2.2.6 1.9.9 3.6.6 2.8.4 3.3-1.3 3.3-1.6 0-2-.7-2-3.3 0-3.8-2.2-7.3-3.8-6.3-.7.4-1.2 2.7-1.2 5.2 0 3.8-.3 4.4-2.1 4.4q-2.2.1-1.5-1.6c.3-.9.6-3.3.6-5.5V671h12c10.2 0 11.9.2 11.4 1.5m8.4 4.1c.2 4.8 0 5.5-1.5 5.2q-1.7-.3-2.9-5.6l-1.2-5.2h2.7c2.5 0 2.7.3 2.9 5.6m23.9-4.8c2.2.4 2.4.8 1.8 3.6-.4 1.7-.7 4.1-.6 5.3q0 2.2-1.4 2.3-1.5.2-1.7-4.8c-.3-3.9-.6-4.7-2.3-4.7s-2 .6-1.8 3.5c.4 6-.9 6.9-2.2 1.5-1-4.4-1.4-5-3.8-5-1.4 0-3.2-.6-3.9-1.3-1.1-1.1 0-1.3 6.1-1.1 4 .1 8.5.4 9.8.7m-317.4 1.3c-.6.6-.9 2.6-.6 4.5q.6 3.4-.6 3.4c-.6 0-1.1-1.5-1.1-3.3s-.5-3.8-1.2-4.5q-1.5-1.3 1.7-1.2 3 0 1.8 1.1m6.3 3.1c-.1 4.7-2.1 6.3-2.9 2.2-.6-3.4.2-6.4 1.8-6.4q1.2 0 1.1 4.2m319.4 1.3c0 5-1 6.9-2.4 4.6-.8-1.3.5-10.1 1.5-10.1.5 0 .9 2.5.9 5.5m6 .1q0 5.3-1 4.9c-.5-.3-1-2.8-1-5.6s.5-4.9 1-4.9 1 2.5 1 5.6m6.7-.6c-.5 2.7-1.4 5-1.9 5q-1-.2-.4-2.3c.3-1.2.6-3.4.6-5s.5-2.7 1.4-2.7c1 0 1.1 1 .3 5m7.2.5c-.1 4.8-.4 5.5-2.2 5.5-1.7 0-1.9-.5-1.3-3.8.3-2 .6-4.5.6-5.5q.1-1.5 1.5-1.7c1.2 0 1.5 1.2 1.4 5.5m8.1 0c0 4.7-.3 5.5-1.9 5.5q-3.6.1-2.5-7.1c.5-2.9 1.1-3.9 2.5-3.9 1.6 0 1.9.8 1.9 5.5m6.2 0c.2 4.4 0 5.5-1.2 5.5s-1.4-1.1-1.2-5.5c.2-3 .8-5.5 1.2-5.5s1 2.5 1.2 5.5m7 0c.3 4.7 0 5.5-1.4 5.5-1.5 0-1.8-.9-1.8-5.5 0-4.1.4-5.5 1.4-5.5q1.4-.2 1.8 5.5m5.8-3.1c0 1.3.3 3.8.6 5.5.5 2.6.3 3.1-1.2 3.1-1.7 0-1.9-.7-1.6-5.5.4-5.3 2.2-8 2.2-3.1m6.6 1.3q-1.8 11-2.7 2.8c-.7-5.6-.5-6.5 1.8-6.5 1.2 0 1.4.7.9 3.7m5.6.5c.2 3.5.7 4.3 2.3 4.3 1.7 0 1.9-.6 1.7-4.3-.3-3.3 0-4.2 1.2-4.2 1.3 0 1.6 1.1 1.6 5.3v5.4l-5 .1c-4.9.1-5 0-4.6-2.6.2-1.5.5-3.9.5-5.5.1-4.3 2-3.1 2.3 1.5M269 677.8q.1 3-1 1.2c-1.3-2-1.3-5.3 0-4.5.6.3 1 1.8 1 3.3m132.3 4.1q-1.1 1.2-1.9-4.5l-.4-3.9 1.3 4c.8 2.2 1.2 4.2 1 4.4M22 678.5q0 1.3-1 1.5-.9-.2-1-1.5c-.1-1.3.5-1.5 1-1.5q1 .2 1 1.5m364.9 2.7q0 .8-1.4.8c-1.5 0-2.1-3.1-.8-4.4.7-.6 2 1.7 2.2 3.6M232.5 680q.4.9-.4 1-1-.1-1.1-1 0-1 .4-1 .6 0 1.1 1"/><path d="M299.5 550.7c-3.2.8-4.2 2.3-2.4 3.6.8.7 1.8 2 2.2 3.1q.8 1.7 2.3 1.2c.9-.3 2.4-.6 3.5-.6 2.6 0 2.4-3-.5-5.8a13 13 0 0 0-2.7-2.1zm10.2 66.9c-1.4 1.5-.6 2.3 3.1 3.3 3.3.9 9.6 1.5 13 1.2 2-.2 1.4-2.1-1-3a44 44 0 0 0-15.1-1.5m73.8-37.2c-1.7 1.3-1.7 1.5 1 5 1.5 2 3.4 3.6 4.1 3.6 2.3 0 1.7-5.4-.9-7.8-2-1.9-2.6-2-4.2-.8m13 12.6q-.6 1.2.3 2.2c1.4 1.4 4.5.2 4-1.5s-3.4-2.1-4.3-.7m-185.9-35.1q-.8.9-2.2.4c-.9-.3-2 0-2.4.7-.7 1.1-1.2 1.1-2.3.2s-1.7-.9-2.7.3q-2.3 3-4.6-.3c-1.3-1.6-1.5-1.6-2.9.2-1.5 1.9-1.5 1.9-2.9.1-1.2-1.7-1.6-1.8-3.2-.5q-1.8 1.8-2.1.2c-.6-1.7-3.3-1.5-3.3.3s-2.6 2-3.3.2c-.3-1-.9-1-2.6 0q-4.2 2.5-4.1-.2c0-2-2.9-1.9-3.7.1-.5 1.2-.7 1.3-1.4.3-.4-.8-2.2-1.4-4-1.5q-3.3-.3-3.6 1.7c-.7 2.4-1.4 2.4-3.7-.2-2.4-2.9-4.2-1.2-2.9 2.8l1 2.8 12.9-.5a346 346 0 0 1 41.6.4c4.5.6 5.7 1.1 5.6 2.4q-.4 6.1 1.7 6.2 1.4-.1 1.5-1.1t1.9-.4c2.2.7 4.4-1.6 3.5-3.9-.8-2.1-2.4-2-3.9 0-1.1 1.5-1.2 1.5-1.8-.5q-.7-2.2 1.4-2.1c2 0 3.5-3.9 2.5-6.5-.8-2.1-2.7-1.9-3.3.5-.7 2.7-3.1 2.6-3.5-.2-.3-2.4-2.3-3.5-3.2-1.9m222.1 4.1c.7 2.5 3.7 4.2 6.6 3.8 3-.4 2.9-3.3-.1-3.4a6 6 0 0 1-3.5-1.3c-1.8-1.8-3.6-1.3-3 .9m-22.1.8q-.4.8.5 2.2c.5.8.9 2.5.9 3.7q.1 2.1 1.4 2.3 3.7 0 1-5.5-2.4-5.1-3.8-2.7m14.4 11.7q.1 1.5 1.1 1.3 1-.4 1.1-1.3 0-1.2-1.1-1.3-1-.2-1.1 1.3M276.1 68.9c-3.5 3.3-3.8 5.6-1.5 12.2 1.6 4.4 1.6 4.7-.5 9.5-1.4 3-2.4 7.7-2.7 12.4-.3 4.1-.7 9-1 10.7l-.5 3.3H263c-9.7 0-9.7 0-9.4 7.7.2 3.6.5 6.7.7 6.9s3.9.5 8.3.6l7.9.3.6 5.2c.4 2.9.9 5.9 1.2 6.7s-.3 2.2-1.4 3.2c-2.4 2.2-2.4 2.4.6 6.8l2.5 3.8.5 41.6a19048 19048 0 0 1 2.1 173.7l.6 95 4.7 4.2c6.1 5.6 8.9 5.6 12.5.2l2.7-4 .4-27.2 1.1-155.6.7-128.5 2.3-3.4c2.9-4.3 3-5.8.4-7.2q-1.8-1.1-1.4-2.2a31 31 0 0 0 1.8-6.2l1.1-5.1 6.1-.5c8.3-.7 9.6-1.9 8.9-8.4a16 16 0 0 0-1.6-6.1c-.6-.6-5.1-1.1-10.2-1.1l-9.2-.2-.7-10.3a72 72 0 0 0-2.5-16c-1.8-5.5-1.8-5.6 0-8.1 4.3-5.7-3.1-16.8-11.2-16.8-2.9 0-4.7.7-7 2.9m12.3 4.2c3.1 3.6 3.3 5.8.8 9-1 1.3-2.2 3.2-2.5 4.2-.6 1.7-.8 1.7-3.2.1a16 16 0 0 1-5.5-10.7c0-2.8 2.8-5.7 5.6-5.7 1.3 0 3.3 1.3 4.8 3.1m-3.5 17.1c4.7 1.6 4.7 1.6 2.8 3.1-2.2 1.7-1.1 6.8 1.6 7.5 1.9.5 1.9.6.2 1.8-2 1.5-1.2 3.4 1.6 3.4 2.5 0 2.5 1.7-.1 2.5-2.4.7-2.6 2.3-.5 3.1 1.9.8 2 3.4.1 3.4q-1.3.1-2 1.5c-.4 1.1-2.1 1.5-6.6 1.5h-6l-.1-5.8c-.2-10.7.4-16.1 2.1-20.6 1.1-2.9 1.9-3.1 6.9-1.4m28.3 32.4c.4.3.8 1.6.8 3 0 2.8.8 2.8-31.4 2.6-22.1-.2-23.6-.5-23.6-4.8V121l26.7.5c14.6.3 27 .8 27.5 1.1m-20.8 11.9c-.5 2.2-.3 2.5 2.2 2.6l2.9.1-3 .7c-3.6.8-3.9 3.2-.5 4.2q2.2.6.9.8c-.9.1-2.2.8-2.9 1.6s-2.3 1.5-3.6 1.5c-1.2 0-2.6.4-2.9 1s-1.7 1-3.1 1c-1.3 0-2.4.4-2.4 1q.1.9 1.9 1c1 0 2.4.7 3.1 1.5 1.1 1.3.7 1.5-2.8 1.5-2.2 0-4.7-.3-5.6-.6-1.8-.7-2.2-3.4-.5-3.4q1 0 .3-8.3l-.6-8.4 8.6-.1 8.6-.1zm6.4 16.7c-.3.8-2.4 1.4-4.9 1.5l-4.4.2 3.5-1.4q6.7-2.5 5.8-.3M286 183.5c.8 40.6.1 285.5-.8 285.5q-.9-.1-2.4-1.3c-1.4-1.1-1.7-11.2-2.2-99.2-.3-53.9-.9-123.6-1.2-154.8l-.7-56.8 3.4.3 3.4.3zm8.4 72c-.1 112.8-.6 189.5-1.2 204.2-.3 8-.7 10.3-1.8 10.3-1.6 0-1.5 4.5-1.4-75.5v-60l.2-16 .2-80c.1-42.9.2-78.8.4-79.8q.3-1.8 2-1.5c1.6.3 1.7 5.7 1.6 98.3m59.2-186.1c-4.2 3.9-4.7 7.5-1.7 12 1.9 2.9 1.9 3-.1 8a48 48 0 0 0-2.6 16.8l-.4 11.8h-10.3q-10.4 0-11.2 1.2c-.6.7-.9 3.3-.8 5.8.2 4 .6 4.7 3.6 6.2 1.9.9 5.8 1.7 8.7 1.8 5.9 0 6.4.6 7.5 9.2.6 4.1.4 4.8-1.3 5.3-2.7.9-2.5 2.5.9 7.2l2.9 4 .2 19.4 1.4 79.9 1.1 53c.2 5.2.7 42.6 1.1 83l.6 73.5 5.2 4.7c2.8 2.6 5.8 4.7 6.7 4.8s2.9-2.1 4.6-4.8l3.1-4.7.6-23.5 1.1-65.5 1-67.3 1-84.5c.6-60.8.7-63.9 2.7-71.9 1-4.2 1-5-.7-6.8s-1.7-2.5-.5-7.8c.7-3.1 1.7-6 2.3-6.4.7-.4 3-.4 5.4-.1 3.6.5 4.5.2 6.7-2.2 2.8-3 3.6-9.1 1.4-11.3-.8-.8-4.5-1.2-9.9-1.2q-8.9 0-9.6-1.3c-.4-.6-.8-3.5-1-6.2a100 100 0 0 0-1.6-17.2A17 17 0 0 1 371 83c1.8-4.3-1.1-12.5-5.4-15.1-4.6-2.8-7.9-2.4-12 1.5m11.2 2.8c3.4 4.4 2.5 10.5-1.8 12q-5.4 1.7-.6 6.3c2 2 2.2 2.6 1 3.6q-3.1 2.7 1.1 2.9c3.4 0 3.3 2.8-.2 3.2-3.9.5-4 2.6-.1 3 4.6.4 5.1 3.3.6 3.3s-4.6 2.9 0 3.3c3.9.4 4.5 3.2.6 3.2-2.3 0-2.5.3-2 2.5.6 2.4.4 2.5-3.3 2.5-2.2 0-4.3-.5-4.6-1a86 86 0 0 1 1-27.2c1.5-6.2 1.5-6.8 0-9.2-2.2-3.3-1.6-6.8 1.5-8.3q4.8-2.4 6.8-.1m14.7 50.2 10 .1.3 3.2c.3 2.6-.1 3.3-1.5 3.4-16.7.5-55.7-.1-56.5-.9-.5-.5-.8-2-.6-3.3.3-2.3.8-2.4 8.8-3 4.7-.3 13.2-.4 19-.1s15 .5 20.5.6m-16.3 11.8q-3.8 3.8 3.6 3.9 5.6 0 1.7.8c-3.6.7-4.5 3.6-1.5 4.4 1.8.5 2 .9 1 2.6s-2 2.1-8 2.1c-4.1 0-7.2-.5-7.6-1.2a42 42 0 0 1-2.6-13.3c.3-.3 3.7-.5 7.6-.5 5.4 0 6.7.3 5.8 1.2m11.8 17.3c0 2.2-23.6 2.1-26.4 0-1.8-1.3-.5-1.5 12.2-1.5 12 0 14.2.2 14.2 1.5m-15.6 6.4c.3.5.8 53.5 1.1 117.7l.9 154.6c.3 31.2.2 37.8-.9 37.8q-1.4-.1-2-1a338 338 0 0 1-1-26.8l-1-59.2-1.2-77.5c-.7-50.9-.7-47.9-1.8-103.8l-.8-42.7h3.1c1.7 0 3.3.4 3.6.9m11.5-.2 2.4.6-.6 41.1-1.1 99.6c-1.1 113-2.2 165.1-3.8 168.5-.6 1.4-1.4 2.5-1.7 2.5s-.7-35.2-.8-78.3-.5-113.4-.8-156.5l-.6-78.2h2.3c1.3 0 3.4.3 4.7.7m65.6-90.1-3.7.8q-4.7 1.2-6.3 8.2c-.5 2.7-.1 3.8 2.5 6.8 2.7 3 3 3.8 2 5.6-.6 1.2-1.5 4.2-2 6.8l-1.9 10.7-1.6 9.1-.5 3.1-10.2.2c-5.6.1-11 .7-12 1.2-2.4 1.3-2.4 6.9.1 10.1 1.6 2 2.9 2.4 8.3 2.6 9.1.4 9.2.4 10.5 7.4 1.1 5.5 1 6.5-.4 8-1.5 1.7-1.5 2.1.7 6s2.3 5.2 2.6 27.2l.8 56.1c.3 18.1.8 62.2 1.1 98s.8 69.9 1 76 .4 21.9.4 35.3l.1 24.2 5.7 5.4c6.7 6.3 7.7 6.2 11.6-1.2 2.3-4.5 2.5-6 3.1-24.2.6-19.4 1.1-58.2 2.1-163 .8-90.5 1.6-129.4 2.4-130.5 1.7-2 2.3-7.5 1.1-9-1-1.2-1-2.9 0-8l1.2-6.5h8.8c10 0 12-1.2 12-7.1 0-6.8-.4-7-23.6-7.9-.7 0-1.3-3.7-1.7-9.8a67 67 0 0 0-2.8-16.5c-1.8-5.2-2.1-7.2-1.2-8.5 2.9-4.8 2-12.4-1.8-14.8a22 22 0 0 0-8.4-1.8m6 5.7c2.3 3.3 1.8 6-2 11.7l-3.5 5.5c0 .2 1.2.5 2.7.7 3.3.4 4.2 2.5 1.2 3-3.6.5-3.3 2.5.6 3.2 4.1.8 4.5 2.3 1 3.6-3.3 1.3-3.2 2.8.2 3.2s4.4 3.5 1.2 4-3.6 2.8-.5 2.8 3.4 1.5.6 3q-1.8 1-2 2 .2 1 2 1c1.8 0 2 .4 2 .9 0 1.1-8.7 1.9-12 1.1-2.4-.6-2.5-1-2.5-8.6 0-7.7 2-18.9 3.7-20.9q2-2.3-1.3-9.2-3.9-8 1.1-9.3t7.5 2.3m17 49.9c12.3.5 14.3 1.5 11.5 5.8-.7 1.2-4.5 1.4-24.2 1l-31.7-.5c-8.4 0-8.5 0-9.2-2.8-.6-2.3-.4-3 1.1-3.5 2-.7 34.8-.7 52.5 0m-18.9 11.2c.3.8 2 1.8 3.7 2.2 3.1.7 3.1.7 1 1.7-3.2 1.4-2.9 3.6.3 3.4 3.3-.2 4.4 2 1.2 2.5q-2.2.3-2.2 2.1c.2 1.7-.5 1.8-8 1.2-9.5-.8-10.6-1.7-10.6-8.6 0-4.4.2-4.8 2.8-5.2 6.5-1 11.3-.7 11.8.7m10.4 17.4c0 1.9-5 2.9-13 2.5-10.1-.5-13-1-13-2.3 0-.6 5.2-1 13-1 7.2 0 13 .4 13 .8m-13.7 67.7c-.5 141.1-1.3 251.8-1.8 252.3q-.6.4-1.9-.9c-1.6-1.6-2.2-25-3.1-122.9-.3-33.3-1-82.8-1.5-110s-.9-56.4-.9-64.8l-.1-15.3 4.8.3 4.7.3zm10.1-33.5a20134 20134 0 0 1-1.9 235.9c-.2.4-.5 8.4-.5 17.7-.1 24.2-.8 30.6-3.5 34-2.5 3.1-4.7 2.6-2.7-.6q1.2-2 .1-2.5-1-.7-.1-1.8c.9-1.1 1.5-51.9 2.6-237.9.3-38.9.8-71.3 1.1-71.8s1.7-1 2.8-.8c2.2.3 2.2.4 2.1 27.8M25.2 714c-13 .4-16.5.8-17.2 2-1.3 2.1-1.3 2.5.7 4.9s-6.1 2.1 92.8 3.6l122 .9 160 1.1c34.7.3 75 .3 89.8-.1l26.7-.7v-7.4l-52.7-.7-72.3-1.1c-10.7-.3-53.9-.7-96-1-74.7-.5-216.5-1.6-230.5-1.9-3.8 0-14.3.1-23.3.4M0 742.9c0 1.8.6 2.1 4.3 2.1 107.6.4 173.6.8 174.3 1.3.5.3 61.4.8 135.4 1.1s144.2.8 156 1c24.2.5 30 .1 30-2 0-1-1.6-1.4-6.2-1.5l-29.8-.5c-12.9-.2-67.1-.7-120.5-.9-160.3-.8-277.1-1.5-311.2-2.1-32.2-.5-32.3-.5-32.3 1.5m0 6.8c0 2 .8 2.1 21.3 2.7 24.7.7 195.6 2.3 348.7 3.1 58.6.4 110.6.8 115.5 1 10.3.4 14.5-.2 14.5-2 0-1.7-17.5-2.4-59-2.6a23939 23939 0 0 0-157-1.3l-113.5-1.1-96.2-1.1C0 747.7 0 747.7 0 749.7m411.2 14.8c-.7 1.4-1.2 6.2-1.2 10.5v8h-5.4q-5.4 0-7-1.5c-1.8-1.9-4.5-1.9-6.5-.1-1.2 1.1-7.4 1.5-27.1 2-36.3.9-60.7 1.6-74 2.1-16.2.6-51.2 1.6-72.5 2l-142 2.1c-38.7.5-44.3.8-46.6 2.2l-6.2 4a12 12 0 0 0-3.7 3c.1 1.5 2.7 4 6 5.7 1.8 1 4 2.4 4.8 3.1 1.1 1.1 8.2 1.4 36.5 1.5 19.4.1 38.1.2 41.7.4s23.8.6 45 1l47.5 1c5 .2 44.8.6 88.5.9 84 .6 100.4 1.1 103.2 3.1 1.1.7 4.5 1 9.2.8l7.5-.3.7 3.6c.4 2 .4 7.1.1 11.4q-.5 7.7.6 8.9c1.6 1.6 9.9 1.3 12.4-.4 2-1.4 2.1-2.4 2.1-12.7-.1-13-.1-12.9 9.5-14.7 15.2-2.9 17.4-3.4 20-4.9 1.5-.9 2.7-2.2 2.7-2.9 0-1.7 1.5-1.6 3 .2 2.5 3.1 10.3 1.4 14.5-3.1 3.2-3.5 3.4-10 .5-13.7-4.1-5.2-13.9-6-19.8-1.7-2.3 1.7-3.7 2.1-5.9 1.5-1.5-.4-7.3-1.3-12.8-1.9l-10-1.1-.2-9c-.4-13.9-.2-13.5-7.7-13.5-5.8 0-6.4.2-7.4 2.5m10 36c-.4 30.9-.6 35.1-2 36.3-3.5 2.7-4.7 1.1-4.9-6.3a1529 1529 0 0 1 .5-58.8l.2-6.8 3.3.3 3.2.3zm-25.3-10.2-.1 5.2-.9-4q-1.7-8.2.1-7c.6.3.9 3 .9 5.8m13.9-.3c.2 1.9.1 5.9-.3 8.7-.5 4.3-1 5.3-2.6 5.3q-2 .1-1.9-2.5 0-2.5-2.2-3.4c-1.9-.7-2.2-1.4-1.9-5.7.1-2.7.5-5.2.8-5.7s2.1-.7 4.1-.5c3.4.3 3.7.6 4 3.8m59.2-2.5c7.1 3.6 3.6 14.5-4.7 14.5-3.6 0-5.6-2.3-6.8-7.7q-1-5.4 5.8-7.5l2.5-.7c.2-.1 1.6.6 3.2 1.4m-78.5 4.1c.3 2.5.3 5-.2 5.5-.8.8-140.7 1.1-275.3.7-43-.2-87.3 1.1-88.1 2.4q-.8 1-1.5.5c-1.1-1 2.6-4.8 6.2-6.3 1.9-.8 7.9-1.3 16.5-1.4 7.4 0 15.7-.2 18.4-.5 2.8-.2 10.4-.3 17-.3 70.8.5 130.7-.1 172.5-1.7 5.2-.2 21.9-.7 37-1s32.5-1 38.5-1.4 21.6-.8 34.6-.9l23.7-.3zm54.7-1.5c6.2 1 6.7 1.3 7.3 3.9.8 3.4-.3 10-1.7 10q-.8 0-.4-.9c.3-.5-.3-2-1.3-3.2-2.2-2.7-2.8-2-3.3 3.6-.4 4.5-2.3 3.6-2.6-1.3-.3-3.4-.7-4.2-2.3-4.2s-1.9.7-1.9 4.3c0 4.8-.5 5.8-2.5 5.1q-1.3-.5-1-4.9c.3-3.2.1-4.5-1.1-4.9-1.7-.6-2 .1-3.3 6.4l-1 4.5.1-6c.1-5.6 0-6-2-5.9-1.8 0-2.2-.5-2.2-2.7 0-5.5.7-6.1 6.9-5.4 3.1.3 8.6 1.1 12.3 1.6M37 803q-.1.9-2.1 1-1.7-.1-1.4-1c.3-.6 1.3-1 2.1-1s1.4.4 1.4 1m13 .5c0 1.2-1 1.5-4.5 1.3-2.5-.2-4.5-.6-4.5-.9q-.1-2 5.2-1.9 4 0 3.8 1.5m8-.5q-.2.9-2 1c-1.8.1-2-.5-2-1q.2-1 2-1c1.8 0 2 .4 2 1m9-.1c0 1-2.4 2.1-4.6 2.1q-1.2 0-.8-1.5c.6-1.6 5.4-2.1 5.4-.6m9.8.8q.3 1.2-2.2 1.3-2.6 0-2.6-1.6c0-1.9 4.1-1.6 4.8.3m19 .1q.1 1.1-1.7 1.2c-2.1 0-2.7-1.1-1.4-2.4.9-.9 2.6-.2 3.1 1.2m10.1 1.1c-1.5.5-2.2-.6-1.4-1.9q.8-1.4 1.6.1.7 1.3-.2 1.8m7.1-1.4q-.2 1.3-1.5 1.5c-1.6 0-2-1.2-.8-2.3 1.1-1.2 2.3-.8 2.3.8m8.4 0q.7 1.6-1.9 1.5-3.7-.2-1.8-2.3c1.1-1.2 3.1-.8 3.7.8m5.6.5q-.2 1.8-1.5 2c-1.8 0-1.9-1.2-.3-2.8s1.8-1.5 1.8.8m7.3-.5c.8 1.8-1.1 3.1-2.5 1.7-1.1-1.1-.3-3.2 1.2-3.2q.7.2 1.3 1.5m226.7.4c0 1.1.3 2.6.6 3.5q.6 1.6-1 1.6-1.7.1-1.6-3.5c0-1.9.5-3.5 1-3.5q1 .2 1 1.9m7.4 1.3c-.1 4.5-2.4 4.9-2.4.4q0-3.5 1.3-3.6 1.1.2 1.1 3.2m6.6.3c0 1.9-.4 3.5-1 3.5-1.1 0-1.4-5.3-.3-6.3 1.1-1.2 1.3-.8 1.3 2.8m7-.6c0 1.7-.4 3.3-1 3.6q-1 .4-1-2.9c0-2 .5-3.6 1-3.6s1 1.3 1 2.9m7.5.5c0 1.5-.5 3.2-1.2 3.8-1 .8-1.3.2-1.3-3.2 0-4.7 2.2-5.3 2.5-.6m-244.5-.9q0 1.3-1 1.5-.9-.2-1-1.5c-.1-1.3.5-1.5 1-1.5q1 .1 1 1.5m28 1.8q0 .7-1 .2c-.5-.3-1-1.4-1-2.3q-.1-2.2 1-.2c.5.8 1 1.9 1 2.3m8-2.9c0 1.5-1.4 3.5-2.1 3-1.5-.9-1-3.4.6-3.4q1.4 0 1.5.4m10.3.3c.9.9-1.3 3.4-2.4 2.7-1.4-.8-1.1-3.4.4-3.4q1.4 0 2 .7m4.7.3q0 .9-1 1a1 1 0 0 1-1-1q.1-1 1-1t1 1m6-.3q-.1 1-1 2.3-1.1 2-1-.8.1-2 1-2.2 1 0 1 .7m6 1.3c0 1.9-1.1 2.6-2.3 1.4-.8-.8.3-3.4 1.4-3.4q.8.2.9 2m6-.4q0 1.3-1 .9-.9-.6-1-1.6.1-.8 1-.9 1 .1 1 1.6m18.4 0c.9 2.2.8 2.4-.9 2.4q-1.4-.2-1.5-2c0-2.4 1.5-2.7 2.4-.4m5.3 1.6q-.5 1-.5-1.2c0-2.2.2-1.9.5-1.3.2.7.2 1.9 0 2.5m11 0q-.5 1-.5-1.2c0-2.2.2-1.9.5-1.3.2.7.2 1.9 0 2.5m8.3-.1q-.1 1.7-1.3 1.9-3.3 0-1.6-3.2c1.2-2.2 2.9-1.5 2.9 1.3m12.3-1.1q.4 1.8-.4 2c-.8.2-.9-.9-.9-2s.2-2 .4-2 .6.9.9 2m12.5.9q.4 2.4-1 1.9c-.7-.3-1.5-1.5-1.6-2.7q-.4-2.4 1-1.9c.7.3 1.5 1.5 1.6 2.7m6.2-.3q0 2.3-1 1.9c-1-.4-1-1.5-1-2.6q.1-1.7 1-1.9c.9-.2 1 1.2 1 2.6m12.9 1.4q0 1.5-.9-.5c-1.2-2.7-1.2-4.3 0-2.5.5.8.9 2.2.9 3m10.8.7q-.5 1.3-.5-1.7c0-3 .2-2.7.5-1.8s.2 2.6 0 3.5m6-1q-.5 1.3-.5-1.2 0-2.6.5-1.8c.2.7.2 2.1 0 3m7.3-1.2q0 2.3-1 2.5-.9-.2-1-2.5c-.1-2.3.5-2.5 1-2.5s1 1.1 1 2.5m5.7-.3q-.5 1.1-.6-.6t.5-1.3q.5.6.1 1.9m16.9 2.5c-1 2.6-1.8.8-.9-2.3q.7-3.1 1.1-1.1c.2 1 .1 2.5-.2 3.4m6.7.5q-.4.8-1.4.8c-1.1 0-1.2-4.3-.2-5.4.9-.8 2.2 3.4 1.6 4.6m41.4 0q-.4 1.8-.4-1.7-.1-3.5.4-2.3c.2 1 .2 2.8 0 4m-171-2q-.5 1.1-.6-.6t.5-1.3q.5.6.1 1.9m38 1q-.5 1-.5-1.2c0-2.2.2-1.9.5-1.3.2.7.2 1.9 0 2.5m31.9.5c-1.1 1.1-1.9-.6-1.1-2.4s.8-1.7 1.2 0c.3 1 .2 2.1-.1 2.4m42.4-.7q0 1.8-1 2-.9-.2-1-2c-.1-1.8.5-2 1-2q1 .2 1 2m69.4 4.5q.4 1.3-.4 1.5-1-.2-1-1.5c0-1.3.2-1.5.4-1.5s.6.7 1 1.5"/><path d="M474.5 807.7c-2.9.7-3.6 1.6-4.2 5.4l-.7 3.6c-.1.2-2.5.3-5.2.4-13.5.3-15.7 6.1-2.8 7.5 11 1.1 11.3 2.5.7 3.1-3.8.3-7.2.9-7.8 1.5-1.6 1.5 2.2 3.7 8.7 5s7.7 2.8 2.2 2.8c-6.3 0-9.7 3.8-6.1 6.9q2.5 1.9 2.7-2.1c0-1.4.8-1.8 3.5-1.8 3 0 3.5.4 4.3 3.2.8 3.2.7 3.3-2.7 4-2 .3-34.2.3-71.6 0-63.1-.7-351.4-.6-381.2 0-12.5.3-15.6.9-13.9 2.5.4.5 83.4.8 184.4.8l303.7.1 7.3-.5q4.4 0 4.2-1.6c0-1.3-1.9-1.5-12.1-1.4-6.6 0-12.2-.1-12.3-.3l-1-3.1-.7-2.8 5.8.1c5.5.2 6.9 0 12.1-2.1 3.5-1.4 2.8-4.6-1.3-6-2.7-1-3.4-1.7-2.9-3.1s-.1-1.8-2.8-1.9l-4.8-.3-3.2-.4q-1.6-.2-1.8-1.2c0-.5 3.5-1 7.7-1.2q7.6-.3 8.1-1.6c.3-.9-1.7-1.2-7.7-1.2-5.1 0-8.1-.4-8.1-1.1q.2-1 5-.7c5.2.3 7.2-1.4 2.3-2s-4.9-2.2 0-2c3.7.2 5.2-.2 6.9-1.9 1.7-1.8 1.9-2.5.9-3.6-1.7-2.1-11.4-4-15.6-3m9.9 4.3q1 1-4.2 1c-4.9 0-6.8-1.1-3.9-2.4 1.6-.7 6.9.2 8.1 1.4m-14.6 9.1q-.4 1-1.1 1l-4.7-.1c-2.2 0-4-.5-4-1s2.3-1 5.1-1q4.9 0 4.7 1.1m.2 9.9c0 .5-1.5 1-3.4 1s-3.8-.5-4.1-1q-.4-1 3.4-1c2.3 0 4.1.4 4.1 1m15 0c0 .5-2.2 1-5 1s-5-.5-5-1 2.3-1 5-1 5 .4 5 1m1.8 4.7c4 1 .4 2.3-6.5 2.3-5.8 0-7.3-.6-5.6-2.3.8-.9 9-.9 12.1 0"/><path d="M477.2 844.2c.6 1.8 2.8 2.1 2.8.4q-.1-1.5-1.6-1.6-1.4 0-1.2 1.2m-221.6 8.6c-.2.1-57.7.3-127.9.3-105 .1-127.7.4-127.7 1.5q.2 1.2 1.7 1.5l140.3.5 247.7.5c60 .2 109.5.1 109.9-.4q.6-.7.3-1.2c-.3-.2-25.7-.7-56.4-1l-96.5-1.1c-51.1-.7-91.1-1-91.4-.6"/></svg>