<svg xmlns="http://www.w3.org/2000/svg" width="666.7" height="1170.7" viewBox="0 0 500 878"><path d="M228.8 23.9c-4.7.3-9 .9-9.3 1.3-1.5 1.5.5 3.8 3.4 3.8 1.6 0 3.7.3 4.6.6 1.8.7 6.2 9.5 7.1 14.4.6 2.9.6 3-3.5 3.1-9 .3-10 .4-11.2 1.6q-1.3 1.2-.1 2.6c1 1.1 4.8 1.4 20 1.1 21.3-.4 36.4-1.2 38.7-2.1.9-.3 1.5-1.5 1.3-2.6-.3-1.9-1-2.1-7.8-2.2h-7.5l.4-8c.2-4.4.5-8.3.8-8.8.2-.4 3.3-.7 6.8-.7 4.9 0 6.4-.4 6.9-1.7.4-.9.1-2-.6-2.4a449 449 0 0 0-50 0m16.2 6.6c0 2.4-2.8 8.5-3.8 8.5-.8 0-5.2-8-5.2-9.5 0-.3 2-.5 4.5-.5 3.4 0 4.5.4 4.5 1.5m13.2 2.2c.3 2.1.3 5.9 0 8.5l-.5 4.8h-5.3c-6.2 0-6.2.1-3.4-8.9 2.6-8.1 2.6-8.1 5.9-8.1 2.6 0 2.9.4 3.3 3.7M106.5 98.6c-6.3 3.4-6.9 7.2-3 18.7a223 223 0 0 1 5 18.2c2.9 13.4 4.4 19.3 8 31 5.9 19.8 7.3 26.5 6.3 30.9l-1.4 8.6c-.7 8.1-2.5 14-4.2 14.1l-6.9.7c-2.2.3-4.2 5.7-5.3 14.3-.5 4.6-1.4 9.7-1.8 11.4a10 10 0 0 0-.5 4.2q.4 1.2-.4 1.3c-1.1 0-4.5 8.3-6.8 16.5-1 3.3-2.3 7.1-3 8.5-3.9 7.8-4.7 13-4.9 32.9a187 187 0 0 1-1 21q-.7 1.4-2.3-.1c-2.7-2.2-5.9-2-7.5.4-1.4 2.1-2.3 2.3-8.9 2.3h-7.4l-.3-4.8q-.7-7.9 4.4-7.7c3.9 0 5.4-2.5 5.4-9 0-5.1-.3-6.1-2.5-7.8-1.4-1.1-2.5-2.5-2.5-3.1s-.7-2.3-1.6-3.7c-1.4-2-2.2-2.3-4.8-1.9-2.9.6-3.3.3-4.4-2.8-1-2.9-2.1-3.8-6.2-5.1-2.7-.9-5.6-1.6-6.4-1.6-1.8 0-3.3 2.5-4 6.5a15 15 0 0 1-3.8 6.2c-3.2 3.4-3.3 3.4-4.7 1.4-2-3.1-7.4-2.8-10 .5-2.2 2.8-2.8 6.9-1.1 7.9.5.3.7 3.3.3 7.1-.5 5.8-.4 6.7 1.7 8.9 1.3 1.4 3.1 2.4 3.9 2.3q1.6-.3 1.9 2.3c.2 2.1-.3 2.8-2.5 3.7-4.1 1.5-12.1 3.8-18 5.2Q0 339.2 0 340.7q-.1 1.6 2.3.8l11.2-3c5-1.3 12.8-3.7 17.5-5.4a55 55 0 0 1 12.1-3.3c3.7 0 11 3.1 14.6 6.4 1.2 1.1 3.2 2 4.5 1.9 9.3-.3 17.8 0 20.3.7 2.8.8 3 1.1 2.7 5.3-.2 2.4-.8 6.2-1.3 8.4-1.5 6.7-1 10.4 2.3 19.9 3.1 8.7 3.2 9.7 3 23.1a236 236 0 0 1-2.2 27l-3.5 25.4c-.9 6.8-2.1 13.5-2.6 14.9-3.5 9.1-8.3 31.4-8.4 38.4 0 4.2-.3 8-.7 8.4-.5.4-.8 2-.8 3.5s-.5 3.1-1.1 3.5a40 40 0 0 0-5 8.9 143 143 0 0 0-9.9 45.3l-1.9 24.1c-.8 10.4-.8 11.6 1 14.5 1 1.7 1.9 4.3 1.9 5.8 0 4.3 1.8 7.8 4.6 8.8 1.4.6 8 1.5 14.7 2.1 6.6.5 12.9 1.5 13.9 2 2.6 1.4 5.4 8.2 7.3 18.1a33 33 0 0 1 .1 16.8c-1.4 7.4-2 8.9-4.8 11.3a76 76 0 0 0-17.9 20.3c-2.3 4.7-3.7 6.3-6.3 7.2q-5.7 2-8.5 10.9c-1.2 3.6-1.2 4.5 0 5.9s1.1 1.8-.5 2.9c-1.4 1-1.5 1.8-.7 3.3 2.3 4.3.5 5.7-13.2 10.8a247 247 0 0 0-18.9 7.6 42 42 0 0 1-6.7 2.8c-.6 0-3.2 1-5.9 2.3a88 88 0 0 1-8.9 3.6L0 753.3v13.4C0 779.5.1 780 2.1 780c1.2 0 3.5.6 5.2 1.4s6.6 2.2 10.7 3.1c9.8 2.2 22 6.5 22 7.8 0 .5-1.8 5.5-4 10.9-5.8 14.4-5.3 17.6 2.7 20.7q3.3 1.4 7 .5c2.1-.5 4.5-.9 5.3-1 1.8-.1 6.8-2 9.2-3.4 1-.6 2.6-1 3.6-1s2.2-.4 2.7-.9a14 14 0 0 1 4.5-1.6l3.5-.7-3 2.6c-3.3 2.8-4.5 3.2-4.5 1.5q-.1-.8-1.1-.3-1.2.7 1.1 1.9t1 1.7q-1.1.5-.9 1.6.6 1.2 4.4-2.3c2.2-1.9 4.4-3.5 4.9-3.5s1.9-1.1 3.2-2.5c2-2.2 3-2.5 6.4-2.1 2.2.3 4.2.1 4.5-.5 1-1.5 5.5-1.1 5.5.6q-.1 1.4-1.5 1.5c-1.4.1-1.5.7-1.5 1.5s-.7 1.5-1.5 1.5c-3.3 0-1.2 2 2.7 2.6 2.2.4 4.9 1.5 5.9 2.5s2.1 1.4 2.4.9q.4-.9-.7-1.6-1-.8 3.7-2.1c4.5-1.1 4.6-1.2 1.1-.8-2.2.2-4.6-.1-5.3-.7q-1.4-1.2-1.3.7c0 2.9-2.5 1-2.6-2.1-.1-1.6-.4-3.9-.8-5-.5-1.8-.2-2.2 2.1-2.7 1.5-.3 3.8-.1 5.1.4s3.7.9 5.3.9q2.8 0 2.5.9c-.3.5 3.4 2.1 8.2 3.6a75 75 0 0 1 9.7 3.5c.6.5 2.9 1.3 5 1.8q6.6 1.6 21.9 6.1c3.8 1.1 7.9 2.9 9 4 2 1.9 2.4 2.1 4.6 2.1q1 0 1 1c0 .5-1.1 1-2.5 1s-2.5.3-2.5.7c0 1.2-5.1 3.3-6.2 2.7q-1-.4-2.2.5c-.7.6-2.1.9-3 .5q-1.5-.5-1.6.6c-.1 1.1-.8 1-2 .7-2.1-.5-4.5 1.6-3.6 3.2.6 1-4.5 3.1-7.5 3.1q-1.8-.1-1.9-1.5.2-1.7-3.2-1c-3.5.6-5.6 2.1-4.5 3.1.3.3 2-.1 3.6-.9q5.3-2.8 1.2 1.2a15 15 0 0 1-7.1 3.6l-2 .8a59 59 0 0 1-18 4.6c0 1.7-3.3 2.1-4.9.8-1.8-1.6-11-4.1-11.9-3.2q-.6.3-2.1-.8c-.9-.8-3.8-1.9-6.6-2.6-9.4-2.3-21-5.3-22.5-5.8-.8-.3-2.8-.7-4.4-.9s-3.8-1.1-4.7-2q-1.7-1.4-2.8-1c-.5.4-1.3.1-1.6-.4s-1.9-.9-3.5-.5q-2.8.7-3.4-1c-.3-.9-1.1-1.3-1.6-1s-1.7.2-2.4-.4-2.1-.8-3-.5q-1.7.5-3.1-1.2-1.4-2-1.5-.5 0 1.3-1.7.6a67 67 0 0 1-23.8-9.4C.4 824.7 0 829 0 852.5V878h19c10.5 0 19-.4 19-.9s-.7-1.4-1.5-2.1a5 5 0 0 1-1.5-3.4c0-2 .1-2 2 .4 1.1 1.4 2 3.3 2 4.2 0 1.5 1 1.8 6 1.8 5.2 0 5.9-.2 5.4-1.8s-.5-1.6.8 0 5.3 1.7 47.1 1.8c39.3 0 45.7-.2 45.7-1.4 0-.8.5-1.8 1.2-2.2q1.1-.7.6 1.4-.6 2.2.8 2.2 1.4-.1 1.5-1l.4-2 .4-1.5c0-.3 1.2.2 2.6 1.1 2.4 1.5 2.5 1.5 2.6-.2v-2.7q0-.7 1.5-.7c1.3 0 1.5.8 1.2 3.5-.4 3.1-.1 3.5 1.9 3.5q2 0 2.2-.8v-4c.1-4.2 1.8-3.3 2.7 1.4q1.2 6.3 2.3-1.3c.7-4.5 2.5-5 2.9-1 .3 2.5.7 2.8 2.7 2.3q2.2-.5 2.8.7.5.8.7-1.3l.1-2.5 1.9 2.4 2 2.3v-2.3c0-4.5 1.6-5.4 3-1.7l1.3 3.3.6-3.5c.5-2.8.8-3.1 1.4-1.7q2.3 5.8-2.2 5.7c-1.7 0-3.3.4-3.6 1-.8 1.3 9.9 1.3 12.3 0 .9-.5 4.5-1.9 8-3s7.1-2.5 8-3c7.7-4.2 19.7-8 25.5-8 6.4 0 13.4 4.6 18.2 12.3 1.5 2.3 5.5 3.9 5.5 2.1 0-1.9-8.8-12.9-11.6-14.6-1.9-1.1-3.3-2.2-3.1-2.4a89 89 0 0 1 22.6-3c10.1.5 22 8.6 26.2 17.9 1.2 2.7 1.2 2.7 12.5 2.7h11.2l-.9-3.3c-2.4-9-5.9-24-5.9-25.3 0-1.9 2-1.4 11 2.9 3.6 1.7 6.7 3.2 7 3.2s1.6.8 3 1.7a126 126 0 0 0 34 11.4c6.5.7 35.3-2.1 40.7-4 2.1-.7 7-1.4 11-1.5 10.4-.3 15.2 2 19.3 9.3 2.5 4.4 3.7 5.6 5.7 5.6 2.5 0 2.4-.8-.4-4.1-.8-.9-2.4-3.6-3.6-6-1.9-3.8-3-4.7-8.2-6.8-8.7-3.4-15.3-3-33.5 2.2-6.9 2-22.9 2.8-29.5 1.5a185 185 0 0 1-41-15.3 70 70 0 0 0-14.7-5.8q-2.9 0-2.8-1.8c0-.9-.2-2.3-.5-3.1q-.3-1.3 3.7-3.5c6-3 8.4-3.3 14.2-2.2 12.5 2.5 16.6 4 27.9 9.5 13.9 6.9 31.2 9.6 44.1 6.9 4.3-.8 8.6-1.3 9.6-1s4.6-.4 8.1-1.5 7.6-2 9-2c3.4 0 12.4 3.1 17.2 6 3.8 2.2 16.4 6.4 24.1 8a51 51 0 0 0 19.7-.6c.8-.6 3-1.4 4.9-1.8 1.9-.3 5.4-1.4 7.8-2.3 3.3-1.2 4.2-2.1 4.2-3.9 0-2.6.2-2.6-9.4 1.5-4.1 1.8-7 2.2-16.5 2.2-11.2 0-12-.1-22.6-4.1a104 104 0 0 0-30.1-8.6c-5.9-.5-8.3-.2-15.8 2.1a68 68 0 0 1-52.7-4.9 178 178 0 0 0-16.9-6.7l-7.5-2.3 4-1.7c7.3-3.3 22.1-1.6 31.4 3.7 2.5 1.4 6.6 2.7 9.1 3s5.2.8 6 1.1q3.5 1.3 19.3-1.8c14.8-3 24.5-3.7 32.4-2.3 6.6 1.1 20.5 6.5 26.8 10.4a32 32 0 0 0 7 2.9c4.3 1.1 22.7 1.7 26 .8 3.5-.9 8.6-3.9 9.2-5.3q1.8-4.5-5-.9a46 46 0 0 1-35.6-1.7c-1.9-1-7.8-3.8-13-6a44 44 0 0 0-21.2-4.5c-8.6-.4-14.1-.1-21.5 1.2-21 3.8-28.9 3.5-37.8-1.4a38 38 0 0 0-14.3-5.3c-2.2.5-1.4-1.5 1.7-4.2 5.8-4.8 12.9-4.4 25.5 1.6a50 50 0 0 0 24.9 4.4c9-1.2 6.9-3.6-3.2-3.6a43 43 0 0 1-16.7-3.6c-1.1-.6-4.6-2.1-7.8-3.4-6-2.4-9-6.1-6.8-8.3q1-1 2 1.4c1 2.5 1 2.8 1.3-19.4.1-3.7.5-7 .9-7.2.8-.5 1.9 14.7 1.7 23.3 0 2.9.2 5.6.6 5.9s2.5-.4 4.7-1.6a16 16 0 0 1 18.3 1.7c2 1.7 5.9 3.8 8.8 4.7 5.9 1.7 16 2 18.9.5q5.6-3.2-4.8-2.7c-8.1.5-15.2-1.3-20.2-5.3a33 33 0 0 0-7.3-4c-3-.9-3.8-1.7-3.8-3.5 0-3.4 1.8-4.1 2.6-1 .7 2.8 2.6 3.5 2.3.7-.4-4.3.2-12.2 1-12.2.4 0 .8 2.4.8 5.3q.2 15.2 11 6.3c2.2-1.9 5.2-3.8 6.6-4.1 3.6-1 10.8 2.7 14.2 7.1 3.6 4.7 8.2 7.4 12.5 7.4 1.9 0 4.7.6 6.2 1.4 2.3 1.2 3.3 1.2 8.3-.5 3.1-1 7.1-3 8.8-4.5 2.8-2.3 3.6-2.5 8.1-1.9 2.7.3 5.9 1.1 7 1.7 2.8 1.5 8.3 7.4 9.1 9.7.6 2.1 4.2 3.5 5.1 2q.6-.8 1.4-.4c1.2.8 5-1.3 5-2.6 0-.6-1.8-.9-4.5-.6-4 .3-4.6.1-5.1-1.8-.8-3.1-6.3-8.1-9.8-8.9-2.5-.6-2.7-.9-1.5-2.1q2.7-2.9 13.4-.1c7.8 2 7.5 2 7.5-.9 0-2-.5-2.5-2.4-2.5-1.3 0-3.9-.6-5.7-1.4s-4.9-1.1-6.8-.9q-3.2.5-4.1-.6c-.5-.9-2-.5-5.6 1.5-5.8 3.2-15.9 4-23.5 1.8-4.5-1.4-14.9-8.6-14.9-10.4 0-1.6 4.2-3.3 7.9-3.3 3.4 0 10 3.1 16.3 7.5 1.5 1 4.2 1.8 6 1.8 1.8-.1 5 .1 7.1.3q6.2.6 3.7-2.7c-.9-1.2.9-1.5 10.5-2.1 10.4-.7 11.5-.9 11.5-2.6s-.6-1.9-8.7-1.4c-4.9.4-11.8.6-15.5.5-3.8-.1-6.8.2-6.8.6s.7 1.6 1.7 2.6c1.5 1.7 1.5 1.8-.8 1.8-2.1 0-12-5.8-11.8-7 0-.3 4.3-2.6 9.5-5.2 9-4.5 9.7-4.7 12.3-3.4 1.5.8 3.3 2.1 4 3 1.4 1.7 5.7 3.1 11.9 4 3.7.6 4.2.4 4.2-1.4q0-1.8-.7-2.1-5.3-.5-7.3-2.5c-1.3-1.3-1.3-1.6-.1-2.3.8-.6 2.4-.5 3.8 0s2.9.9 3.4.9.9-11.3.9-28.1c0-18.4-.3-27.8-1-27.4q-1 .4-1-2c0-2.4.4-2.4 1-2q1 .4 1-1c0-1.4-.5-1.3-1-1s-1-1.7-1-5.4c0-3.4.4-6.1 1-6.1s1-19.3 1-56v-55.9l-2.8 1.6c-1.7 1-3.6 1.3-4.7.9-1.6-.6-1.7-1.7-1.1-14.9.3-7.8.8-38.3 1.1-67.7s.7-59.4 1-66.5l1.1-47c.4-18.7 1-34.7 1.4-35.5 1.4-2.6 3.4-18 3.5-25.5 0-6.3-.2-7-2-7.3s-2-1.1-2.3-8c-.3-10.9-2.2-24.9-3.8-28.7-1.2-2.9-1.2-3.8.1-6.9 1.9-4.5 1.9-7.9 0-11.6-2.6-5.1-7.9-6.4-13.5-3.5-6.4 3.3-8.2 11.6-3.5 15.9 2.4 2.2 2.4 2.5 1.4 8.2-.6 3.2-1.4 9.9-1.8 14.9l-.6 9-6-.3c-3.3-.2-6.3-.7-6.8-1.1s-1-4.5-1.3-9.2-.9-13.8-1.5-20.3c-.7-8.7-.6-12.8.2-15.1q2.5-6.2-3.6-12.2c-4-4-8.8-4.4-12.9-1.2-2.6 2-2.7 2.5-2.1 7.8 1.1 9.8.9 15.3-.9 27.1l-2.6 17.8c-.4 3.5-1.1 6.6-1.3 6.9-.3.2-2.4.7-4.6 1l-4 .6.5-6.4c.3-3.5.1-10.7-.6-15.9-1.3-11.2-1.3-11.2-.4-17.1.6-4.2.4-4.9-2.6-8.2q-6.1-7.2-13.3-.7c-4.1 3.6-5 7.2-3.1 12 1.2 2.8 1.3 4.8.5 10l-1.7 13.9c-.6 7.3-.6 7.3-2.1 4.3-2.6-5.4-5.8-7.5-11-7.5-3.5 0-5.1-.5-6.1-1.9-.7-1-2.1-1.8-3.1-1.8s-3.1-.6-4.6-1.4c-2.5-1.3-3.2-1.3-5.6 0a13 13 0 0 0-4.7 5.1q-1.9 3.4-2.6 2.4c-1.2-1.9-5.1-1.2-7.4 1.2-2.7 2.9-2.8 6.1-.2 8.7q2.4 2.2.4 2c-.8 0-3.9 1.5-6.7 3.4-6 4-9.8 5.6-13.3 5.6-3.3 0-3.2-3.9.3-10.7l2.8-5.3-2.2-2.1c-3.7-3.8-10.7-.3-11.9 5.9-.6 2.7-.3 3.4 1.3 3.8s1.9 1.3 1.7 4.7-.6 4.3-2.3 4.5c-2.4.4-2.4 0-2.1-9.6.1-4.9.8-7.2 2.6-10q2.5-3.5 1.7-5.6l-1.2-5.6c-.5-2.7-1.4-3.9-3.9-5.1a25 25 0 0 1-6.7-6.2 18 18 0 0 0-5.3-5.1c-2.7-.9-9.3 2.2-9.9 4.5-.7 2.5-1.5 2.4-5.1-.6-5.1-4.3-10.2-2.6-10.2 3.3 0 1-1.1 2.9-2.5 4.2-2.7 2.6-3.3 6.1-1.2 7.9 1.5 1.2 2.7.5 2.7-1.5 0-.7 1.1-2.4 2.5-3.8q2.6-2.6 2-4.8c-.3-1.3-.1-2.9.4-3.7.7-1.1 1.9-.3 5.3 3.3 4.1 4.5 4.5 4.7 7.1 3.5 2-.9 2.7-1.9 2.7-4.1 0-1.5.5-2.8 1.1-2.8q1.2-.1 2.4-1.7c1.2-1.7 4-.9 2.9.8-.3.6.3 2 1.4 3.2s2.4 3.5 2.9 5.2c1 2.9 2.3 3.4 6.3 2.4 1.2-.3 1.6.7 1.8 4.4.3 4.1-.1 5.2-2.5 7.7q-5.4 5.8-6.9-.2c-1.1-3.9-4.3-5-5.1-1.8-.7 2.7-2.6 2.1-3.3-1.1-.6-2.4-3.9-4-4.1-2l-.4 2.1-.4 2.1q-.1.9-1.1.4-.8-.6-.4-1.9 1-2.7-5.4-3.3c-2.7-.3-3.5 0-3.9 1.7-.6 2.4-1.1 2.5-3.5.4-1.6-1.6-1.8-1.6-2.4 0-.8 2.1 1.3 4.6 4 4.6 2 0 2.1.4 2.1 12.2 0 8.9-.3 12.3-1.2 12.3-.7 0-1.8.6-2.4 1.2-.7.7-2.3 1.3-3.6 1.3-2.9 0-3.1-3-.3-5.5 2.1-1.9 2.7-6.9 1-8-.5-.3-1-1.5-1-2.5 0-2.2-2.5-5-4.5-5-.7 0-3.1 1.5-5.3 3.2-5.1 4.1-5.7 8.5-1.7 12.2 1.4 1.3 2.5 3.4 2.5 4.8 0 2.3-.5 2.6-5.2 3.1-2.9.3-8.7 1.5-12.8 2.7a110 110 0 0 1-26.2 2.7l-18.8.6v-4.9c0-5.9-2.9-11.4-6-11.4q-2.1 0-3.5-3.4c-1.9-4.6-5-6.6-10.2-6.6-2.3 0-4.8-.6-5.5-1.3l-3.8-2.6c-2-1.1-2.5-1.1-3.4.1q-1.1 1.5-5.2 1c-4.1-.4-4.2-.5-5.7-5.5a575 575 0 0 1-8.3-31.5c-.2-1.8-2.5-11-4.9-20.5s-5.5-21.8-6.7-27.5l-2.2-10.4 3.2-2.4c3.1-2.5 3.2-2.7 3-10.2l.2-8.7c.2-.6-.5-2.8-1.4-5l-3.3-7.5c-3.1-7.4-3.9-8.5-6.8-9s-3-.6-5.5-9.5l-10-36c-6.4-23.2-8-28.2-10.1-30.4-2.3-2.5-6.2-2.6-10.4-.5m36.9 81c.8 2-.1 3.4-2 3.4q-2.2.2-.8-3.4 1.4-3 2.8 0m-2.6 8.6c-.3.7-1.8 1.9-3.4 2.8s-3.5 2.8-4.3 4.2c-1.3 2.3-1.2 2.9.8 6.9 2.5 4.7 3.5 10.9 1.7 10.6q-1 0-1.4 2.3c-.1 1.4-.8 3.7-1.3 5.2a8 8 0 0 0 0 6c.5 1.8 1.3 6.2 1.6 9.8l.6 6.5-2.5-4c-3.5-5.6-8.7-11.5-10-11.5-.6 0-1.8-.5-2.6-1-1.3-.9-1.2-1.3.6-2.8 2.1-1.7 7-16.5 5.9-18.1-.2-.5 0-3.4.6-6.5 1-5.4 3.6-9.6 6.9-10.9 2.8-1.1 7.2-.7 6.8.5m6.4 6.3c-.4 2.1-1.3 4-2 4.3-1.5.5-1.6-2.5-.1-6.7 1.5-4.4 3.2-2.5 2.1 2.4m3.8 6.3a8 8 0 0 1-1.5 3.8c-1.4 1.9-1.4 1.9-1.5-.3 0-2.8 1-5.3 2.1-5.3q.8.2.9 1.8m-36.4 25.8q-.5 1.6-.6 2.5c-.1.9-.7.9-1.5.9-1.5 0-2.1-3.1-.8-4.3 1.3-1.4 3.5-.7 2.9.9m8.2 6c1.2.8 2.2 2 2.2 2.6 0 .5.9 2.3 2 3.8 1.1 1.6 2.8 5.2 3.7 8 1.4 4.5 1.9 5.1 3.9 4.7 2.1-.4 2.5.2 3.9 4.9.8 2.9 2.6 10.6 4 17.1s2.9 13.4 3.5 15.3l3.4 11.5a197 197 0 0 1 5.2 21.2c.5 1.7-.2 3-2.5 5.2-1.7 1.6-3.1 3.6-3.1 4.5s-1.7 3.4-3.9 5.6c-2.9 3-4.7 4-7 4-3.9 0-5.2-2.6-8.1-16.5l-3.7-17.1c-1.1-5-1.2-7.7-.5-9 .5-1 1.3-4.2 1.7-6.9s1.3-7.5 2.1-10.5c.7-3 1.8-8.8 2.4-12.8q1.2-7.4 3.2-9.4c2.2-2.2 2.1-5.3-.2-5.3-2.4-.1-3.7-1.3-6-5.7-3.1-6-5.1-8-7.3-7.4-1.1.3-3-.2-4.3-1-2.2-1.5-2.2-1.7-.7-5 1.9-3.8 2.8-4.1 6.1-1.8m-10.7 8.1q-1.8 2.8-.5-1.2.7-1.5 1.1-1.1c.3.2 0 1.3-.6 2.3M110 248q-.1.9-1.1 1-.8-.1-.4-1t1.1-1q.3 0 .4 1m14 3.7c0 .7.9 2.2 2 3.3 2 2 2.7 6 1.1 6-.5 0-2.3-1.4-3.9-3-3.3-3.3-5.3-3.7-7.1-1.6-.9 1.1-.6 1.8 1.8 3.5 1.6 1.2 3.3 2.1 3.9 2.1.5 0 1.2 1.1 1.4 2.5q.7 2.7-1.3 2.5c-2.9 0-2.3 2.8 1.4 6.2q3.3 3.1 1.2 2.3c-3.6-1.4-7.5-1.8-7.5-.7q0 3.6 4.1 5.8c4 2 3.7 3.6-.6 2.8-2.8-.5-3.5-.3-3.5 1q0 1.5.8 1.6t2 2.1c1.2 1.9 1.1 1.9-.8.9q-4-2-4 2.4 0 2.2 3.3 3.9c2.8 1.4 2.9 1.6 1 1.6-3 .1-2.9 2.3.3 7.9 2.4 4 2.5 4.6 1 5.4-2 1.1-2 2.2-.1 4.2 1.4 1.4 1.4 1.7-.5 3.6-1.7 1.7-1.9 2.4-1 3.5.7.8 1.9 1.3 2.8 1.2 2.5-.3 2.6 1.7.2 2.1-1.6.3-2 1-1.8 3 .2 2.1.9 2.8 3.1 3 3.1.4 3.7 2.2.8 2.2q-3.7.1-2.5 3.4c.4.9 1.8 1.6 3.4 1.6 3.8 0 4.8 2.8 1.2 3.2-2.1.2-2.7.8-2.7 2.8 0 2.2.5 2.5 4.3 2.8 2.3.2 4.2.8 4.2 1.4q0 1-5.9.5c-4.8-.4-6.9-.1-10.8 1.7-8.3 3.9-9.4 7.4-1.7 5.5 2.1-.6 4.8-1 5.9-1l7 .2c4.8.1 4.9.1 1.5.9-13 2.9-16 4.2-16 6.9 0 .9-1.9 3.5-4.1 5.6-2.3 2.2-3.9 3.5-3.6 2.9q.5-1.2-.7-2.3c-1.2-1-2.1-.5-4.6 2.2l-4.5 5.3c-1.4 1.8-1.4 1.8-1.5-.3 0-1.3-.5-4.3-1.2-6.8-1-3.7-.9-5 .4-7.8 1.5-3.2 1.5-3.6 0-5-1.5-1.5-1.5-1.9.1-5.2 1-2 3.1-4.4 4.7-5.3 3.3-1.9 3.9-3.7 1.5-4.6q-3.4-1.2-7.2 3.3l-2.1 2.6.5-2.8a7 7 0 0 1 2.4-3.8q1.8-1 1.9-2.2c0-.7.9-2 2-3s2-2.1 2-2.7c0-2-3.1-2.2-5-.5-1.8 1.6-2 1.7-2 .2q0-1.6.9-1.7c.4 0 2-1.1 3.5-2.5 3.3-3 3-6.3-.4-4.5q-3.8 2 0-2.2c2.5-2.8 2.5-3.9-.1-4.5-1.8-.5-2-1.1-1.5-4.6.4-2.2 1.6-5.1 2.6-6.5 1.1-1.3 2-3.1 2-3.8 0-1.6-3-3.3-4.6-2.7q-1.2.6-.7-6.4c.3-4.8 1.7-10 4.6-17.6a50 50 0 0 1 4.8-10.7q.7.1 1.2 2.1 1.6 5.3 5.7-5.7c2.4-6.5 2.7-6.9 5.7-6.9q6.1 0 2.9-3.4c-1.6-1.7-1.6-1.8.7-1.4 1.4.3 2.8-.1 3.2-.7.8-1.4 2.5.5 2.5 2.7m30 1.3q-.1.9-1.1 1-.8-.1-.4-1 .6-1 1.1-1 .3 0 .4 1m-48.9 5.1q-1 2.4-1 .7c-.1-2.2 1.2-5.5 1.6-4.2.2.6-.1 2.2-.6 3.5M152 256q1.9 1.1-.7 1-2.1-.1-2.3-1 0-2 3 0m300.6 4.7c2.9 3.8 1 10.3-3.1 10.3-3.3 0-6.8-4.6-6-7.9.4-1.4 1.2-2.9 1.8-3.3 2.1-1.4 5.9-.8 7.3.9M155 265.6q2.3 5-1 1.4a5 5 0 0 0-4.8-1.5c-2.7.6-2.7.6.3-.9 4.1-2 4.4-1.9 5.5 1m265.1 6q1.2 1.3.3 6.1c-.8 4.2-1.3 4.8-3.5 5.1q-2.7.5-4.8-2.4-4-5-.1-8.9a5.5 5.5 0 0 1 8.1.1m-264.3.7c.3 1.3-.4 1.7-3.2 1.7-4 0-4.8-1.6-1.3-3q4-1.7 4.5 1.3m329.5-1.4c3 1.2 3.9 3.4 3.1 7.7-.6 3.3-.8 3.4-5.5 3.4-5.4 0-6.3-.8-6.1-5.8s3.5-7.2 8.5-5.3m-31.9 16.9 1.1 19.9c.5 8.2 1.2 7.5-8.7 8.8l-4.8.6v-4.3c0-5.5 2.7-32.6 3.5-35.9.5-2.2 1.1-2.4 4.5-2.1l3.8.4zM158 279q-.1.9-1.1 1-.8-.1-.4-1 .6-1 1.1-1 .3 0 .4 1m-2.5 5q.4.9-.9 1-1.5-.1-1.6-1 0-1 .9-1t1.6 1m329.5 3c1.1.6 2.1 2.5 2.4 4.3.6 4.2 2.4 21.6 3.1 29.5l.5 6.3-6.3-.3-6.2-.3-.3-9c-.3-8.3 1.2-26.9 2.5-30.1q.7-2.5 4.3-.4m-64.8 2.4c.4.6.8 7 .8 14.2v13.2l-4.7.7c-2.7.4-5.4 1.2-6 1.7-1 .8-1.3.2-1.3-2.8.1-7.4 2-23.9 3.1-26.6 1-2.4 1.5-2.6 4.3-2.1 1.7.3 3.4 1.1 3.8 1.7m-375.8.2q.7 1.5 2.6 1.1c2.6-.7 5 1.7 4.3 4.3q-.5 2.2 1.7 4.5 4.5 4.5 5.7.5c.5-2.1.6-2.1 1.9-.1.8 1.1 1.1 2.7.8 3.5-.9 2.2 1.3 4.5 3.6 3.9 1.8-.5 2 0 2 3.8 0 6.6-.2 6.7-9.9 6q-1.7-.2-1.7-1.9.2-1.7-2.4-1.7-2.4 0-3-2.2c-.5-2.2-.5-2.2-4.5-.3q-4 1.9-5.2.8t-2.5 1.1q-1.2 2-2.1 2.1c-.4 0-3.2 1.8-6.2 4-6 4.4-6.7 4.6-8.4 2.6-.8-1-.7-2.2.5-5.1 1.4-3.4 1.4-3.9 0-5.4-3.2-3.5-1.2-10.4 2.7-9.7 1.2.2 2.1 1 1.9 1.7-.4 1.8 3 8 4.3 7.6.5-.2 1.2-1.4 1.3-2.8s2.1-3.9 4.3-5.8c2.9-2.6 3.9-4.2 3.9-6.5 0-4.5 1.1-7.6 2.5-7.6q1.3.1 1.9 1.6m116.6 1.9c0 1.6-3.5 2.1-4.4.6-.8-1.2.4-2.1 2.6-2.1q1.7.1 1.8 1.5m216.2 11q.3 2 2.6 1.9c1.8 0 2.2.5 2.2 3.1 0 3.1 0 3.1-5 3.1-2.7-.1-5-.6-5.1-1.1-.4-3.3.5-7.2 1.9-8.8q2.5-2.9 3.4 1.8m-214.2-1q-.1 1.3-1.5 1.5-1.3 0-.9-1.5.7-1.4 1.5-1.5c.8-.1.9.7.9 1.5m202 10.2c0 2.7-.1 2.7-3.5 1.1-2.7-1.2-3.3-3.6-1.3-5.6 1.6-1.6 4.8 1.3 4.8 4.5m31.9-3.1c2.5 3.2 2.6 3.6.4 6.3-1.7 2.1-1.9 2.1-5 .6-4.1-2-5.5-6.2-2.8-8.2q4-3 7.4 1.3m-94.5 1.5c1.6.4 1.9 1.4 2 8.2.1 7.7.1 7.9-2.7 9.4-1.6.8-3.2 1.2-3.5.8a70 70 0 0 1-.8-19.1q.6-1.7 1.9-.6a8 8 0 0 0 3.1 1.3m32.9 3c-2.5 2.6-3.8 1.1-1.6-2q1.5-2.4 2.6-1.2c1.1 1.2.5 1.7-1 3.2m-23.9.9c.5 2.8-.9 8.8-1.9 7.8-.2-.2-.7-2.7-1.1-5.6-.5-4.2-.3-5.2.9-5.2.8 0 1.7 1.3 2.1 3m93.3 5.9c-.1 6.5-1.1 7.2-2 1.5-.5-3.2.5-7.4 1.8-7.4.2 0 .3 2.7.2 5.9m-226.6-2.2q1.9 2-.4 1c-1-.4-2.5-.7-3.3-.7q-1.3-.1-1.4-1c0-1.6 3.6-1.1 5.1.7m190.9.4c0 1.8-.2 2-1.5.9s-1.3-1.5-.3-2.1c1.8-1.2 1.8-1.2 1.8 1.2m16 .9c0 3.4.1 3.4-3.4 2-3.8-1.4-3.5-5 .4-5 2.7 0 3 .3 3 3m-64.3.2q-.5 1.1-.6-.6t.5-1.3q.5.6.1 1.9m-268 1q2.3 2 2.3 6.1c0 2.1-.3 3.7-.7 3.5-7.1-3.4-7.3-3.7-6.6-8.6.6-3.8 1.8-4 5-1m228.8.9c.9 4-1 6.1-4.2 4.8-1.3-.4-2.3-1.4-2.3-2 0-1.2 3.9-5.6 5.2-5.8.3-.1.9 1.3 1.3 3m-239.5.8c0 3.2-1.4 4.9-2.5 3.1-.9-1.5.3-6 1.5-6 .6 0 1 1.3 1 2.9m319.6-.4q.7 2.5 2.3 2.4c3.3-.3 4.2.2 5.1 2.7 1 2.5 3 2.5 3-.1 0-2 7-2.9 10.3-1.2l2.8 1.4-3.2.7c-5 1-5.7 2-5.2 7.8q.3 5.2 2.4 7.4c1.1 1.2 1.7 2.4 1.2 2.7s-5.3.8-10.6 1.1c-10.2.5-12.2 1-11.1 2.8.4.6 4.4.9 10.5.7s9.9 0 9.9.6-4.2 1.1-10.2 1.2a64 64 0 0 0-13.2 1.2c-2.8 1.1-2.8 1.3-2.4 6.7.4 4.2 1 5.9 2.4 6.7 2.4 1.4 2.1 1.4 13.2 1.5l9.2.2v5.8c0 3.3.6 6.6 1.4 7.7s1.6 3.8 1.9 6c.4 2.2.9 40.4 1.2 85a12862 12862 0 0 0 2 156q.1 2-4.9 4.3c-2.6 1.3-5.1 2.1-5.3 1.8a90 90 0 0 1-6.8-26.1c-.8-6.1-2-13-2.7-15.5-1.3-4.1-1.3-4.9.7-9.5a28 28 0 0 0 2-19.5q-4.4-20.9-16.7-27.4c-3.1-1.6-6.3-2.6-7.2-2.3-.8.3-1.8.2-2.1-.3-.6-.9-.9-46.6-.5-87.3a345 345 0 0 0-.4-27.4q-.6-.4-2.1 0c-1.2.5-1.5 2.5-1.5 10.4l-.1 51.3c0 22.8-.2 43.9-.5 46.7l-.6 5.3H332c-4.9 0-4.8.6-5-29.5l-.3-54-.2-30 5.3-.1c4 0 5.8-.6 7.7-2.4 2.2-2 2.5-3.2 2.7-10.9l.3-8.6 8.5-.3c10.9-.3 13-1.3 13-6.4 0-6.7-2.1-7.7-14.3-7.2l-10.4.5-.6-12.3c-.3-6.8-.8-13-1.2-13.9q-1-1.8 1.9-1.2c1.4.3 3.3.2 4.2-.1 1.3-.5 1.4-.9.4-2.1q-1.2-1.6-4.6-.9c-2.8.5-3.4.3-3.4-1.1s1-1.6 8.9-1.2c4.9.2 9.5.1 10.2-.3 2.1-1.4-.1-3-4-3-2.1 0-5.9-.3-8.5-.6l-4.6-.7.6-4.6c.5-3.9.2-5.1-2-8a19 19 0 0 1-2.6-4.2c0-.5 1.7-1.1 3.8-1.5a39 39 0 0 0 13-5.2c2.3-1.5 7.5-3.8 9.4-4.1q.7.2 1.4 2.4m110.2-1c.6.2 1.2 1.7 1.2 3.3 0 2.6-.3 2.8-3.7 2.9-25.2.4-52.8 1.3-54.2 1.8s-1.9-.2-2.4-3.2c-.4-2-.4-3.9-.2-4.2.3-.2 7.2-.7 15.3-.9l14.9-.6c.4-.3 27.9.5 29.1.9m-305.8.3c0 .4-1.6 1.5-3.5 2.4-3.1 1.4-3.4 1.4-2.3.1.7-.8 2.1-1.9 3.3-2.3 2.6-1.1 2.5-1.1 2.5-.2m227.5.2q.8 1 2.3.8 1.8-.3 2 2.2c.3 2.3-.1 2.5-3.6 2.8s-4-.1-4.6-2.3c-.4-1.4-.4-3-.1-3.5.8-1.3 3.2-1.3 4 0m-358.9 2.5c.3 1.4.1 3.2-.6 3.9-1 1.3-1.4 1.2-2.9-.2-1.5-1.5-1.6-2-.3-4q2.7-4.4 3.8.3m143.1 4q-.8 1.4-2.3 1.5c-1.6 0-1.6-.2.1-2 2-2.2 3.1-2 2.2.5m-22.3 4.2c-.4 1.6-1.3 4.1-2.1 5.8l-1.4 3 .6-4c.7-3.9 2.1-7.5 3.1-7.5.2 0 .1 1.2-.2 2.7m157.2.2c-4.3 4.7-2.6 14.2 3 17.2q2.4 1.2 1.9 3.3a250 250 0 0 0-3.2 24.8l-.6 7.8-6.1.1h-10.3c-5.1-.3-6.7 1.8-5.7 7.9.6 3.9.6 4-2.3 4a42 42 0 0 0-6.1.6c-3 .6-3.1.5-3-2.7.2-6.8-2.2-26.7-3.7-30.2-1.5-3.6-1.4-3.7 1.2-6.6s3.1-3 7.3-2.1c5 .9 6.2.6 5.8-1.8-.3-1.3.9-1.6 7.7-1.8 7-.1 7.5 0 4.5 1-5.6 1.8-5 3.6 1.4 3.6 5 0 8.7-1.8 5.8-2.8q-1-.4 1-2.2c1.3-1 2-2.1 1.7-2.4-.4-.4-7.9-.8-16.8-1-15.9-.2-16.2-.3-18.9-2.9a26 26 0 0 0-6.2-4.1l-3.5-1.5 6.4-.1c6 0 15.8-3 27.6-8.5 1.7-.7 5.2-1.4 7.9-1.4 4.8-.1 4.9 0 3.2 1.8m104.9-.4 14.2.5h7.3l-.4 3.2-.3 3.3-13.9.2c-7.7.1-20.5.4-28.6.8l-14.8.7v-3.6l-.2-4.4c-.7-1.9 11.8-2.1 36.7-.7m79 2.5-.9 3.7-21 .8c-11.5.3-21.4.7-21.9.8-1.4.3-2-2.8-1.3-5.8.6-2.3 1-2.4 11.4-2.8 5.9-.1 16-.3 22.5-.2h11.8zm-165.6-.4c2.3 1.9 3.1 3.4 3.1 5.8 0 3.4-3.3 7.6-4.8 6.1q-.5-.7.6-1.2 1-.6.6-1.4c-.8-1.4-2.4 0-2.4 2.2 0 1.1.7 3 1.5 4.2a59 59 0 0 1 4.5 25v9.7h-2.7c-1.6 0-5.2.3-8 .6l-5.3.6v-5.9c0-6.2 2.5-24.6 3.5-26.3.3-.6 1.5-1 2.6-1q1.8 0 1.9-2c0-1.6-.7-2-3.6-2s-3.5-.3-3-1.6q.4-1.3-.3-1c-2 1.3-4.5-2.2-4.4-6.3.3-6.5 1.4-7.6 7.6-7.9 4.7-.2 6 .2 8.6 2.4m115.7 1.9c-1.1 5.9.5 7.5 7.4 7.5 4.7 0 6 .3 6 1.5 0 1.7-7.6 2.1-16.4.9q-7.6-1-2.1-3.2c2-.9 2.5-1.9 2.5-5 0-3.9.6-5.2 2.3-5.2.5 0 .6 1.5.3 3.5m-26.1 7.5h7.3l.4 5.2c.5 7.3.1 8.6-2.6 8.1q-2.2-.5-2.2-2.6c.1-2-.5-2.2-6.4-2.5-3.6-.2-6.9-.7-7.4-1.2s-.5-2.5-.2-4.5q.6-3.9 2.2-3.1c.9.3 4.9.6 8.9.6m49.3 3c.2 1.9.9 5.7 1.6 8.5.9 3.7 1 15 .5 44-.4 21.4-.9 64-1 94.5s-.4 67-.7 81.1l-.4 25.7-6.1 2.6a54 54 0 0 1-7.1 2.6c-.8 0-.3-71.6.9-126.5l1-47c1.5-74.2 1.6-78 3.1-79.1.8-.6 1.7-2.6 2-4.5.9-5.5 1.3-6.1 3.6-5.7 1.8.2 2.4 1.1 2.6 3.8m24.7-3.1c.3.5.3 3.4-.1 6.3l-.6 5.3-9.2-.4c-5-.1-9.3-.5-9.5-.7s-.6-2.8-.9-5.7l-.4-5.2 10-.2c5.6-.2 10.3.1 10.7.6m-236.6 3-2.1 2.8-22.9.2c-19.8.2-22.9 0-22.9-1.3 0-1.2 1.2-1.5 5.8-1.4 3.1.1 8.9-.1 12.7-.5l17-1.2a58 58 0 0 0 12.7-1.5c1.8 0 1.7.2-.3 2.9m141.5-1.7c2 6.4 1.9 6.6-3.5 7-5.7.3-6.1.2-7.8-2.9-2.3-4.5-1.6-5.3 4.9-5.3q6 0 6.4 1.2m35.3 1.6c1 5.4.4 64-.7 64.7q-1 .7-.1 2.3c.5.9.8 16.3.8 34.2 0 29.7 1 72.7 1.8 74 .1.3.4 21.1.6 46.3l.4 45.9-4 1.4-4.2 1.4c-.1 0 0-54.6.3-121.3s.5-123.6.4-126.4q0-5.2 1.4-7.5c1.1-1.6 1.6-4.6 1.6-10.2 0-7.1.8-9.5 1.7-4.8m-162.1.7c1.2.8 2.4 2.8 2.7 4.7.4 2.8 0 3.7-2.9 6.1l-3.4 2.9 1.9 3.1c2.1 3.4 4 11.4 2.5 10.4-.5-.2-1.6.2-2.4 1.1q-2 2 .3.9c2.5-.9 3.4 2 1.2 3.7-1.9 1.4-1.3 3.6 1.1 3.6q1.4 0 1.4 3.5c0 2-.5 3.5-1.2 3.5s-.5.6.4 1.7c.9 1 1.8 2.7 2.2 3.8.5 1.9 0 2-8.1 2.3l-8.6.2.6-10.7c.6-13.1 3.3-24.3 5.9-24.3 2.2 0 2.4-2.8.2-3.7-3.2-1.2-6.4-5.1-6.4-7.7 0-1.6 1.1-3.7 2.7-5.2 2.9-2.7 5.7-2.6 9.9.1M459 350q0 .9-.4 1-.5-.1-1.1-1-.4-1 .4-1 1 0 1.1 1m-313.4 5.5.3 6.2c.1.7 1.4 1.3 3.1 1.3 2.8 0 2.9.2 2.3 3.2-.3 1.8-.7 3.5-.9 3.7-.7.8-5.7-5.8-7.9-10.4-1.2-2.8-3-5.7-3.9-6.4-2.3-2-.9-3.3 3.2-2.9l3.7.3zM217 353q-.2.9-2.5 1c-2.3.1-2.5-.5-2.5-1q.2-1 2.5-1c2.3 0 2.5.4 2.5 1m40.9 3.6c2.4 4.4 2.4 4.9 1.2 11.2-.7 3.7-1.6 11.6-2.1 17.5s-1.2 11.1-1.4 11.6c-.3.4-6 1.1-12.7 1.4-7.2.3-12.5 1-12.9 1.6-.9 1.5-.3 7.6.9 10 .9 1.6 2.3 1.8 13.6 1.8 6.8 0 12.7.2 13 .4.8.9 1 176.7.2 177.6-.4.4-4.2-1.1-8.4-3.3-8.8-4.7-8.2-3.7-13.8-24.9l-10.6-40c-7.2-26.7-7.1-25.8-6-38.9l2.2-22.1c.6-5.5.8-11.2.5-12.8-.5-2.4-.2-2.7 1.9-2.7q2.5.1 3.1-2.6c.8-3.2-.3-11.9-2-15.9-.8-1.6-2.2-5.8-3.1-9.3a33 33 0 0 0-8.8-14.2 46 46 0 0 0-8.8-8.5 3 3 0 0 1-1.9-2.8c0-3.4-3.8-9-5.6-8.3q-1.7.6-2.1-1.4c-.3-1.2-1.8-2.7-3.4-3.6q-3-1.4-2.9-4c0-2.4.2-2.5 1.7-1.3.9.8 2.5 1.3 3.6 1.1 1-.2 2.9.6 4.2 1.8 2.9 2.7 4.7 1.8 3.9-1.7-.6-2.4-.5-2.5 1.9-1.9q5.2 1 1.7-3.7c-1.1-1.4-2-2.8-2-3.1 0-.5 8.9 0 14.6.9 3.2.6 6.4-.2 6.4-1.4q-.2-.7-1.2-.8c-.7 0-3.3-.5-5.7-1.1s-4.8-.9-5.2-.6q-.9.2-1.8-1.5-2.3-3.9.4-2.7c2 .7 11.5-1.3 11.5-2.4q-.1-.9-1.2-1.7c-.7-.4 5.2-1 13.2-1.3l18-.8c3.2-.2 3.7.2 5.9 4.4M371 355c1.9.6 10.2 1 18.5 1.1 13.9 0 15.1.1 17.2 2.1 3.7 3.5 2.9 4.5-3.4 4.6-3.2 0-14.7.4-25.5.8l-19.7.7-.7-3.7c-.8-4.5-.1-5.3 5.1-5.9l4.5-.5c.3-.1 2.1.3 4 .8m47.9.6q.4.4-.2 1c-1 1-7.8-.6-7.1-1.7.5-.9 6.2-.3 7.3.7m27.6 7.9c1.1 8.4.6 30.9-1 45.3-.3 2.9-.5 57.1-.5 120.5 0 111.3-.5 148.2-2.1 144.1-.4-1.1-1-24-1.4-51a11799 11799 0 0 1-2.2-168.2l-.6-100.3 3.4.3 3.4.3zm8.9 1.7-1.9 90.8c-.3 9.1-.7 46.9-1 84a5787 5787 0 0 1-1.5 97.9c0 4.1-.3 7.2-.6 6.8a2877 2877 0 0 1-.2-119.1c-.8-.4-.8-13.1-.1-116.8l.4-53.8h5zM136.5 357q.5.9-.4 1-1-.1-1.6-1-.5-1 .4-1a2 2 0 0 1 1.6 1m1.5 7.3c3.9 1.9 4.5 2.6 4.2 4.9q-.3 2.7 1.7 3.7c3.4 1.9 5.7 1.2 9.4-2.9 3.3-3.4 4.1-3.9 7.4-3.5l4.6.4q.6.3.7 2c0 2.5 1.7 3.6 3.4 2.2q1.4-1.4 2 .4.7 1.6 2.5 1 1.8-.4 2.6.5 1.8 2.5 2.9-1.5.7-2.5 2.5-2.5c1.6 0 1.9.7 1.8 3.5l-.2 3.5-6.5.2-8-.1c-2.3-.3-3.3-.2-6.4.5q-2.8.6-3.6-.6c-.7-1.1-1.3-1-3.2.2q-2.5 1.6-3.9.7c-.8-.5-2.3-.9-3.4-.9s-4-1.4-6.5-3.1c-4.9-3.3-8.5-3.5-8.5-.4 0 2.3 7.6 6.7 14.8 8.5 4.2 1.1 4.7 1.5 4.7 3.9 0 1.5-.5 3.2-1.1 3.8s-.9 1.9-.7 2.9c.3 1.6.6 1.4 1.8-1 .8-1.6 2-2.8 2.5-2.6 1 .2 1 .5.1 3a4 4 0 0 0 .4 3c.9 1.3 1.1 1.3 2.1 0q1.2-1.8 1.6-.1t1.3 0c.7-1 1.1-1 2.4 0 .8.7 2 1 2.5.7 1.6-1.1 2.2 1.1.6 2.4q-1.3 1.1-1.5.4-.1-.6-1.1.3c-.9.9-.6 1.9 1 4.2 2.7 3.8 5.8 4 7.1.6.5-1.4 1.6-2.5 2.4-2.5 1.3 0 1.2.6-.5 3.4-2.3 3.9-1.6 6.6 1.7 6.6 1.9 0 2.4.5 2.4 2.4 0 1.4.5 2.8 1 3.1q.9.8.3 1.8c-.4.7.7-.1 2.5-1.8s3.2-3.5 3.2-4.1.9-2.8 2-5l1.9-3.9.2 3 .2 3 .4-2.9c.3-1.6 1.8-4 3.4-5.3 3.7-3.1 3.9-5.8.4-4.9q-2.6.7-2.5-.8 0-4 5.7-.2c7.2 4.7 9.3 6.7 9.3 9.1q-.1 2.5 2.3 2.7 2.2.2 2 2.3-.2 1.7.3.7 1.3-3 4.4 2c2.4 3.9 2.5 4.8.6 4.8-.8 0-1.8-.9-2.1-2q-.5-2-3.5-2c-1.6 0-3-.6-3.3-1.3-.3-.6-.2.7 0 3 .3 2.4.1 4.3-.4 4.3-1.6 0-3.3-2.3-3.3-4.7q0-2.1-.9-2.3c-1.5 0-2 4-.6 4.8 1 .5.6 1.5-1.6 4.2s-3.2 3.1-4.1 2.2q-3-3-4.7 1.8c-.5 1.6-1.7 3-2.5 3q-1.5.1-1.6 1.1t-1.6.5q-1.7-.6-1.1.8.4 1.3-1.4 1.9-1.7.4-1.9-.1-.1-.8-1.5-2.6c-1.3-1.7-1.5-1.7-3-.2-2.5 2.5-4.8 2.1-3.9-.7.3-1.2 1.1-2.8 1.6-3.5 1.7-2.1 0-1.3-2.3 1q-2 2-1.6 1.2c.4-.6.1-1.8-.6-2.7-1.1-1.5-1.5-1.5-4-.2-2.9 1.5-2.9 1.5-5.3 1.5q-1.6 0-.9 2.1c.5 1.6-.2 3.1-3.3 6.3a41 41 0 0 0-6.1 8.3c-1.2 2.4-2.6 4.3-3.2 4.3q-1 .1-.5 1.5c.3.8-.1 2.9-.8 4.7q-1.3 3.2-.6 5.4 1 2.3-.6 2.8-1.3.6-1.4 2.1 0 3 2.9-.4c2.2-2.5 5.1-1.4 4 1.6-.5 1.3-1.6 2.3-2.4 2.3q-1.5 0-1.1.9c.6 1-1.5 7.1-2.5 7.1q-.7-.2-1.9-1.5-3-3.2-2.2 1 .5 2.3 1.4 2.5.9.1-.2 1.5c-.7.9-1.9 1.4-2.7 1.1-1.5-.6-1.5-.7-1.8 5.4-.1 2.5 0 3.9.2 3.2q.4-1.4 2.9 1.3 2.3 2.7 4.7 2c2-.5 2.4-.3 2.3 1.7s.3 2.3 3.5 2.1 3.6 0 3.2 1.7a7 7 0 0 1-1.9 3.1c-.8.6-1.4 1.9-1.5 2.8q-.2 1.3-.8-.8a6 6 0 0 0-2.6-3.5 9 9 0 0 1-2.7-2.2c-.4-.6-2.2-1.1-3.9-1.2-3.3-.1-5.2-1.8-4.4-4q.3-1-.4-1.2c-1.1 0-2.1 5.2-1.5 7.8q.7 2-1.4 2.6c-2.3.8-3.5 3.8-3.2 8.1a7 7 0 0 0 5.8 7q3 .6 1.2 1.5c-2.4 1.3-9.9.9-11.1-.6-.6-.8-2.8-1.4-4.8-1.4-3.5 0-10.8-4-9.6-5.2q.2-.6-2.5-1.1c-2.4-.5-3-1.2-3-3.2q0-2.5-1.5-2.5-1.4 0-1.5 1 .1.9 1 1t.1 1.7a8 8 0 0 0-.9 2.8c-.1 2.4-2.2 1.4-2.3-1.2l-.2-2.8-.4 2.8c-.4 2.6-.6 2.7-4.6 2.1-2.3-.4-4.9-1.4-5.7-2.4-1.6-1.8-9.5-4.4-10.9-3.6-2 1.3-2.1-7.6-.1-14.1 1.1-3.6 2-7.4 2-8.4s.7-1.9 1.5-1.9 1.5-.5 1.5-1.1q-.1-.8-1.1-.4-1.8 1.1 2.1-13.7c1-3.6 2.1-9.7 2.5-13.5.4-3.7 1.8-13.6 3.3-21.8s2.6-16.8 2.6-19.1c.1-3.6.3-4 2.3-3.6 1.8.3 2.5-.3 3.8-3.4.9-2.2 1.8-5 1.9-6.4.1-2.6 3.2-7.7 4.1-6.9.2.3.1 1.9-.4 3.5s-.4 4 .1 5.3l.8 2.4 2.3-2.5c3.1-3.3 3.3-9.1.4-8.2-1.6.5-1.7.3-.8-1.4.6-1.2 1.1-2.9 1.1-3.9q0-5 5.2-2.6c2.7 1.4 3.1 1.4 5.2-.6 1.2-1.2 2.8-2.1 3.4-2.1s1.2-.9 1.2-1.9c0-1.1.5-2.3 1-2.6a2 2 0 0 0 1-1.6c0-1.7-2.1.2-3.2 2.9q-1.2 3.2-1.5.9a2 2 0 0 0-2.1-1.5q-1.6.2-1.4-1.1.1-1.2-1.3-2.5c-1.4-1-1.4-1.4.5-3.4 1.1-1.2 2.7-2.2 3.5-2.2s1.9-.9 2.5-1.9c1.9-3.6 8.5-3.6 16 .2m278-1.8q0 1.4-1 1.5-.9-.1-1-1.5c-.1-1.4.5-1.5 1-1.5q1 .1 1 1.5m9.2 85V570a2770 2770 0 0 1-1 120c-.8 2.1-1.2-20.6-1.7-85.5-.1-23.7-.5-70.5-.9-104-.6-51.2-.9-118.6-.7-135.3.1-3.9.3-4.3 2.4-4l2.2.3zm56.3-79.5-.7 62-1.3 121-1 82-.4 38.2c-.1 20.9-.2 21.8-2.2 22.8-1.1.7-2.3.9-2.6.6-.3-.2-.5-5.3-.4-11.3l.6-93.3q1.3-221.9 2.1-226.3c.5-2.4 1-2.8 3.2-2.5 2.6.3 2.7.5 2.7 6.8m9.1 18.2-1.3 51.8c-.7 30.5-.7 29.9-.4 35.5a6966 6966 0 0 1-2 180.5c-.6 9.6-1 21.2-1 25.6.1 6.1-.3 8.5-1.4 9.4-2.6 2.1-2.8-1.1-1.3-24.5a1251 1251 0 0 1 .1-66c.4-16 1-65.9 1.3-111l.8-87 .4-21.8.2-16.7h5.1zM410 368.5q.1 1.6-2.9.9c-2.8-.6-3-.5-3.5 3.7l-.8 7.9c-.3 3.4-.4 3.5-4.8 3.6-2.5 0-5.5.6-6.7 1.2-2.6 1.4-3.3 1.5-5.3.2-1.3-.8-1.2-1.1.5-2.4 2-1.5 2-1.5 0-1.6-1.2 0-2.6-.5-3.3-1.2-1.4-1.4-1.6-7.7-.2-11.2l.9-2.6 13.1.1c10.5 0 13 .3 13 1.4m6.6 65.3c.1 36.1.5 97.9.9 137.3.4 43 .3 71.9-.3 72.3s-1-11.6-1.1-29.2L415 517c-1.2-84.2-1.4-147.5-.5-149q.7-1 1.3-.5c.3.3.7 30.2.8 66.3m-6.2 6.7c.4 36.3.9 68.7 1.1 72s.7 28.8 1 56.6c.6 54.7.8 52-4.9 53.5l-2.9.7.7-75.4c1.1-126 2.3-175.8 4.1-173.7.2.2.6 30 .9 66.3M181.5 381q.8 1 2.5.5a6 6 0 0 1 3.9.5c2 1 2 1.1.1 3-1.1 1.1-2 2.4-2 2.9 0 1.1-4.5 2.8-9.7 3.6-2.4.4-4.5 1.1-4.8 1.6q-.8.7-3.1-.8c-1.4-.9-4-1.6-5.9-1.5-2.9.1-3.3-.2-3.1-2.3 0-1.4.4-2.5.9-2.5q.6-.2.7-2c0-1.4.9-2.1 3.8-2.5l4.7-1c2.4-.8 11.4-.4 12 .5m-22.7 1.8q-1.7.5-1.8 2 0 1.7-1 .6c-1.8-1.8-.1-4.3 2.3-3.6q2.7.7.5 1m-61.4 3.7q-.7 1.4-1 1.5-.3-.1-.4-1.5c-.1-1.4.4-1.5 1-1.5q.8.1.4 1.5m99.6 1.6q0 .8-1 .9-.9-.1-1-1.6.1-1.3 1-.9 1 .6 1 1.6m112.5.1 25.8-.8 24.7-.7v7.3h-6.2c-6.8.1-22.2.6-41.3 1.5-15.6.7-17.9.1-18.3-4.8l-.3-3.7 7.3.6zm80.3 71.1c-.1 38.6.1 102.3.5 141.4.5 43.4.4 71.3-.1 71.3-2.1 0-2.7-8.5-2.1-28.5.4-11.6.3-23-.1-25.5s-.9-19.8-1-38.5c-.2-18.7-.4-37.8-.6-42.5-.5-16.5-.4-147.1.1-148q.6-.8 2-.4c1.3.5 1.4 10.4 1.3 70.7m11.9-68.9c.9.9.9 8.7.1 67.6-.4 27.8-.8 77.9-.8 111.4-.1 39.5-.4 61.4-1.1 62.2q-1 1.2.1 1.9c1.5.9 1.3 15.2-.2 15.8-3.8 1.2-4.3-.1-4.5-12.1-.1-12.3.1-13.9 2.1-12.3q1.3 1.2 1.3-.4-.2-1.3-1.9-1.5c-1.9 0-2.2-1.2-.9-4.5.4-1.1.4-3.5 0-5.5-.4-1.9-1.1-13-1.4-24.5-.8-25.3-.8-197.2 0-198.5.6-1 6.1-.7 7.2.4M97 393.7c-.1.5-1 2.4-2.1 4.3-1.9 3.5-2 3-.3-3.3.5-1.6 2.4-2.5 2.4-1m94 3.9q-.2.3-2.1.4-1.8 0-1.4-1c.5-.8 3.5-.3 3.5.6m146.6 1.7c.7 1.1-1.7 14.2-2.7 14.8-2.7 1.7-17.1 1.8-17.6.1q-.6-1.2 4.6-1.2 8.1 0 4.6-3c-1.1-.9-2.2-.9-4.6-.1-1.8.6-3.5 1.1-3.9 1.1-.9 0-2.1-11.1-1.3-12.3.4-.7 20.4-.1 20.9.6m-24.5 15.9a4590 4590 0 0 1 1.1 89l.2 36.7-4.1 3.6c-4 3.4-9.3 11.4-9.3 14.1 0 .7-1.2 2.7-2.7 4.3s-4 4.7-5.5 6.9q-2.7 4-5.5 4.4l-4.1.9c-1 .3-1.2-7.8-1.2-40.1.1-57.2 1.5-121.9 2.8-123.2.4-.4 3.4-.8 6.7-.8q15.5-.4 15.5-2.6.1-1.3 1.1-1.4 1.1 0 .5-4c-.6-3.8-.5-4 1.9-4h2.5zm-8.5-13.9.7 2.8.7 2.6-10.8.8c-8.8.6-34.8.9-57.5.6l-4.8-.1.3-3.3.3-3.2 9.5-.3c5.2-.1 9.8-.4 10.2-.5.9-.2 51.2.4 51.4.6m-35.1 9.7c.8 0 2.3 1 3.5 2.2 1.7 1.8 2 1.9 2 .5q0-1.7 2.3-1.7c2.2 0 2.3.3 1.9 6.2a51 51 0 0 1-.7 6.6c-.1.2-3.2.8-6.8 1.3-4.8.8-7.2.7-8.7-.1-3.3-1.8-.9-3.4 5.8-4 4.9-.4 5.7-.8 6-2.6.3-2.1.3-2.1-5.2-.6-6.9 1.9-8.6 1.3-8.6-3.3 0-2.8.5-3.8 2.3-4.5 1.2-.5 2.8-.7 3.5-.4s2 .4 2.7.4m51 7.9c2.3.9 2.1-5.8 2.4 66.4.2 50.6.1 52.7-3.4 52.7-.9 0-1.3-10.2-1.8-42.8-.9-55.6-.9-77.2.1-77.1.4 0 1.6.4 2.7.8M220 428.6c0 1.6-1.6 1.9-2.5.4-.8-1.3.4-3.2 1.6-2.5q.8.8.9 2.1m46 9.6c.4 66.4.4 160.5.1 159.6-.2-.7-1.2-2.2-2.2-3.4-1.8-1.9-1.9-5.7-2.5-82.1-.4-44.1-.4-80.9-.1-81.7.4-.9 1.6-1.6 2.7-1.6 1.9 0 2 .6 2 9.2m-97.2-5.8q-.6 2.5.9 1.9 1.2-.6 1.3-1.9t1.5-1.4c1.3-.1 1.5.4 1.5.8 0 1.6-7.9 7.2-10 7.2s-2.1-.1.4-3.1c1.4-1.7 2.6-3.7 2.6-4.5q.1-1.3 1.1-1.4 1 .2.7 2.4m110 7.3v29.8c.1 11 0 34.4-.3 52l-.5 43.1c0 11.7-1.1 15.1-4.3 13.8-2-.7-2.2-2.5-.5-4.2q1.4-1.3-.4-1.2-3.3 0-2.2-7c.6-3.6.8-3.8 3.1-2.9q2.7 1 2.1-.3-.6-1.2-2.4-1.7c-2.9-.5-3.2-1.6-3.3-11.4-.1-6.4.2-9.3 1.1-9.9q1.7-.8 0-1.6c-1-.7-1.2-12-1.1-53.8.1-29.1.3-53.2.6-53.7s2.2-.7 4.3-.7h3.8zm-87.3-6.7q-.7.9-1.6 1-.9-.1-.4-1a2 2 0 0 1 1.6-1q.9 0 .4 1m12.5.5q0 1.4-.9 1.5c-1.3 0-2.2-1.6-1.4-2.4 1.1-1.1 2.3-.6 2.3.9m-22 3.9c0 1.3-.7 2.9-1.5 3.6s-1.3 2.1-1 3.1-.1 3.1-.9 4.8q-1.5 3-.6 3.6t1 1.5c0 1.3-3.2 2.1-4.4 1.1q-1.3-1.1-3 1.1-1.9 2.4-2.6.7-1.5-2.7 1.9-2.9c2.9 0 7.2-4.6 6.7-7.2l-.5-3.1c-.2-1.3-2.1-.7-3.8 1.3-1 1.1-2.2 2-2.7 2s-1.7.7-2.6 1.5c-1.3 1.2-1.6 2.7-1.2 6.2.4 4.2.2 4.8-3 7.7-2 1.8-4.1 4.2-4.7 5.4s-1.8 2.2-2.6 2.2c-1.6 0-2-1.2-.8-2.4.4-.3.8-1.6 1-2.9s.8-2.6 1.3-3.1 1-2 1-3.3c0-3.7 2.8-9.6 4.1-8.7q1.3.8.6-.9-.5-1.6.4-1.7c.5 0 1.5-1.1 2.1-2.5q1.2-2.4 2.5-2.1 1.3.4 1.2-.7c-.3-1.7 1.1-4.7 2.2-4.7q.8.2.9 2c0 3.1 2.5 2.4 5.1-1.4q3.8-5.6 3.9-.2m40-2.2c0 .7.3 2.3.6 3.5.8 3-2.2 4.3-4 1.7-1.2-1.5-1.1-2.2.1-4.1 1.7-2.5 3.3-3 3.3-1.1m-7.1 3.2c1.4 1.7-.5 5.6-2.6 5.6-2 0-1.5-3 .5-3.1q1.5 0 .5-.6c-1.5-.5-1.8-3.3-.4-3.3q1 .1 2 1.4m-19.9 3.1c-1.5 1.8-4 2-4 .4q.2-1.2 1.8-2.5c2.2-1.6 4-.1 2.2 2.1m14-.1q-.1.4-1.5 1.6-1.6 1.6-1.5-.4.1-1.5 1.5-1.6c1.4-.1 1.5.2 1.5.4m-24.1 5.8c-.1 1.3.2 3.1.6 4.1q1 1.9-.9 1.1-1.4-.6-1-1.5c.8-1.3-1-1.1-2.3.2q-1.7 1.6.3-4.9c.6-2.2 3.4-1.4 3.3 1m32.1 2.4q-.1 1.3-1.2 1.4c-2.3 0-3.9 1.6-3.2 3.3.3.9 1.5 1.7 2.5 1.7q2 0 1.9 2.2 0 2.4-1.2 1c-.7-.7-2.5-1.2-4-1.2q-3-.1-2.8 2 .1 1.8 1.3 2 .9.2-.8 1.2c-2.9 1.6-2.9 1.6-1.5 3.3.7.8 2.8 1.5 4.7 1.5 2.8 0 3.4.4 3.1 1.7q-.5 1.7-2.3 1.6c-3.5-.4-7.5.8-7.5 2.3q0 2.4 5.5 2.8 2.5.1 2.5 1.9c0 1.5-.8 1.7-5.2 1.5-4.7-.3-5.3-.1-5.3 1.7 0 1.1-.8 2.7-1.9 3.6-1.8 1.4-1.8 1.6-.1 3.3s1.7 1.8-.1 3.1c-2.5 1.8-.9 3.4 3.8 3.7 3.4.3 3.5.4 2.6 2.8-.5 1.4-1.5 3.2-2.3 4s-1.5 2.6-1.7 4q-.4 2.4-3 3.8-5 2.3-.4 4.3c1.3.6 3 2.5 3.8 4.2l1.5 3.2-4.1 1c-5.6 1.4-5.7 4.1-.1 3.8 3.5-.1 3.7 0 1.8.9-2.6 1.3-3.1 4.6-.8 5.4 1.4.6 1.3.8-.1 1.9-2.2 1.5-.8 3.8 1.8 3.2q2-.7 2.5 1.4.6 1.7 1.7 1.9c3.5 0 9.5 11.2 7.4 13.7q-1.5 1.5 1 2l2.1.5-2.4 3.3c-3.1 4-3.3 7.5-.5 7.5 2.5 0 2.5 1.6 0 6.4-2.1 4.3-1.9 5.6 1 5.6 2.1 0 2 .8-.7 6.7-.7 1.8-1.6 3.3-1.9 3.3q-.4-.1.1-1c1-1.6-1.5-4-4.1-4-3.2 0-3.3 4.3-.2 6.4q2.6 1.8.6 1.6c-2.4 0-3.6-2.7-3.9-9-.3-4.4 0-5.6 1.3-5.8 1.7-.3 2.8-2.9 2.1-5-.6-1.5-4.5-1.6-5.9-.2q-1.2 1.2-2.3-.4c-1.1-1.3-1-1.8.4-3.2 2.1-2.2 1.5-4.8-1.3-5.2q-2.3-.4-2.2 1.5c-.1 1.7-.1 1.7-1.5 0-1.2-1.7-1-2.2 1.7-4.6 3.4-3 3.1-5.7-.5-4.7q-2.2.6-.8-.7c1.5-1.5 1.4-3.7-.3-3.7-.7 0-1.6-.9-1.9-2q-.4-2.1-2.4-1.3-1.6.4-1-.2c.4-.5-.3-1.9-1.5-3.2l-2.1-2.3h3.2c2.7 0 3.4.5 4.2 3 1.2 3.4 2.1 3.7 3.9 1.5 1-1.2 1-2.1.1-4.1-.6-1.4-.9-3-.5-3.5.8-1.4-.5-4.6-2.1-5.3-2.2-.8-4.7.4-4.1 2q.4 1.3-1 1.4c-.8 0-1.9-1.1-2.4-2.5s-1.6-2.5-2.4-2.5q-4 0-2.4-9.5c.8-4.3.8-7.2-.1-10.3-1.3-5-1.4-10.2-.2-12.1 1.3-2 .2-4.1-1.9-4.1-2.8 0-4.4 5.2-3.4 10.8.9 5.3 1 17 0 17.9-1.6 1.6-2.1-1.8-1.9-12.9.3-12.9 1.4-18.2 4.2-19.8 4.2-2.2 7.1-16.9 4.1-20.5q-.7-1 2.1-1.2c3-.2 3-.2 2.3 4.2-.5 3.7-.3 4.6 1.1 5.1 2.5 1 3.5-.7 3.9-6.2l.5-5.7c0-.5 3.1-3.9 6.9-7.5 3.7-3.7 8-8.4 9.6-10.4 2.7-3.7 4.6-4.2 4.6-1.2m-39 13.8c0 1.9-3.8 4.6-5.5 4-1.2-.5-4.7 3.3-4.1 4.5.1.3-1 1.9-2.5 3.5-2.3 2.4-2.9 2.7-3.4 1.4-.6-1.5 4.2-9.8 5.7-9.8.5 0 2.6-1.1 4.6-2.5 4.2-2.9 5.2-3.1 5.2-1.1m1.2 13.3-2.5 4.8c-.8 1.6-2 5.5-2.6 8.5l-2.6 11.5c-1 4.2-1.3 9.5-1.1 17.5.5 12.9 2.1 18.6 6.7 23.5 1.6 1.7 2.9 3.9 2.9 4.8 0 1 1.4 2.3 3.4 3.1 2.6 1.1 3.7 2.4 4.9 6.1 1.7 4.9 7 14.4 11.3 20.4 1.5 2.1 2.4 4.8 2.4 7.1q0 8.6 5.8 12.5l3.6 2.5 2.6-2.5c3.3-3.1 4.8-3.2 6 0a49 49 0 0 0 3.7 6.6c1.5 2.2 3.5 6.3 4.4 9l1.7 4.9-2.7 1.6c-3.5 2.1-6.5 6.7-8.6 13a26 26 0 0 0-.8 12.8c.5 4.2.7 7.9.4 8.3-.9 1.3-5 3.3-6.4 3.3-2.1 0-10.4 6.6-11.9 9.4l-4.3 7.8a85 85 0 0 0-6.6 14.9q-1.2 2.8-2.5 2.5a220 220 0 0 0-33.7 11.2c-1.3.1-17.1 5.4-18.2 6.2-.9.7-10.3 4-11.3 4s.9-10.5 2.8-16.8c1.2-3.9 3.5-8.1 5.9-11 4-4.7 8.1-15.8 8.1-21.6 0-1.5.5-3.6 1-4.7 1.3-2.3 5-17.5 5.7-23.4.7-5 3.3-7.5 10.6-10 4.2-1.4 5.9-2.5 6.3-4.1a87 87 0 0 0-2.5-25.9c-1.1-5-2.5-15.1-3.1-22.5-1.8-22.7-2.8-30.9-4.3-34.2-.8-1.8-2-5.9-2.8-9.1-1.1-5.4-1.1-6.5 1-13.5 1.3-4.2 2.5-8.7 2.7-9.9.5-2.8 1.8-6.2 5.1-13.5 2-4.5 3.5-6.3 6.8-8.3 2.4-1.3 5.4-3.8 6.7-5.4 2.1-2.5 5.5-4.3 6.6-3.5q.2.3-.6 2.1m-26.8.8q-.7 1.4-1.5 1.5-.7-.1-.3-1.5.7-1.3 1.5-1.5.7.2.3 1.5m58.2 7.5q1.3.1 1.4 1.1c0 1.2-4 .2-5.5-1.4q-1-1 .8-.3c1 .3 2.5.6 3.3.6m-66.1 28q.4.9-.4 1-1-.1-1.1-1 0-1 .4-1 .6 0 1.1 1m-68.4 9.7c-1.5 5-2.1 5.8-4.4 6.1q-2.8.4-2.7-1.2.2-1.5 1.5-1.6c1.8 0 2-2.6.3-3.3-1.3-.5-.6-.8 3.7-2.2q1.3-.5.9-2-.6-1.4.9-1.5c1.3 0 1.3.7-.2 5.7m14.1.4a72 72 0 0 1-1.3 8.3c-1.2 4.5.5 13.4 2.7 14.3q1.3.6.9 2.4c-.7 2.2 1 2.6 2.2.4.5-.8 2.1-1.6 3.5-1.7 2.6-.2 2.6-.3 1-2.1-.9-1-2.4-1.6-3.4-1.4q-1.6.4-1.8-.7 0-1.2 3.5-.8c2.6.3 3.6 0 4.1-1.3q.5-1.7-.7-2.6-1.7-1 .4-.9 1.5-.2 1.7-1.5c.2-1.3-.5-1.5-1.2-1.5s-.5-.7.5-1.8c.8-.9 1.9-2.9 2.2-4.4.6-2.4.3-2.9-2-3.8q-2.5-1-2.2-1.7c.4-.3 2.3.2 4.4 1.2a47 47 0 0 0 18.1 2.6 10 10 0 0 1 5 .9c1.6.9 1.6.9 0 1-1.8 0-4.4 3.7-3.4 4.8q.5.4.6-.6-.2-1.4 2.4 0l2.5 1.1-2.1 2.8c-2.1 2.8-2.1 2.8-.3 14.1.9 6.2 2.5 14.4 3.5 18.3 1 3.8 2.4 10.4 3.1 14.5s1.8 8.1 2.5 8.7c2.1 2.2 3.4 18.1 2.2 27.3-.3 2.4-.6 2.5-6.3 2.5-3.3 0-6.7-.3-7.5-.5q-1.4-.4-3.2 3c-2.8 5.7-3.4 6-10.6 6-8.8 0-14.2-1-14.2-2.5q-.2-1.2-1.5-2.5c-2.3-1.9-2-5.4.4-4.7 1 .2 2.5.1 3.2-.4 1.9-1.2 0-2.9-3.7-3.3q-2.7-.4-3.2-1.9c-.3-1.4.4-1.5 4.7-1s5.2.3 5.7-1.1c.8-2-.4-3.5-1.5-1.8q-.6 1.4-2.7-.3c-1-.8-2.9-1.5-4.1-1.5q-2.1-.1-2.3-1.1.1-1 2.9-.4c2.3.5 2.9.2 3.4-1.5q.4-1.8-.3-1.5-.8.4-1.5-.5c-.3-.5-1.5-1-2.6-1q-2 .1-1.9-2.5 0-2.4 1.3-2.4 4.6.5 4.7-1.6-.2-1.3-2-1.5c-1.8-.2-2-.5-2-1q.2-1 2.1-1c3 0 1.8-2.4-1.4-2.8-2.1-.3-2.7-.9-2.7-2.8 0-2.1.5-2.4 3.4-2.4 1.9 0 3.8-.5 4.1-1 .7-1.2-4.3-3.3-6.2-2.6q-1.2.4-1.3-1.4c0-1.6.7-2 3-2 1.7 0 3-.5 3-1 0-1.9-2.4-3.7-4.2-3.2q-1.8.4-1.8-1.1 0-1.6 3-1.5c4.2.1 6.1-1.9 3.6-3.7-1.6-1.2-1.7-1.7-.6-3 1.7-2-.3-4.5-3.6-4.5-1.8 0-2.3-.6-2.6-3.1q-.3-3.2-2.5-4c-2.2-.8-2.3-.6-2.3 4.6 0 2.9-.4 5.7-1 6s-1 1.1-1 1.6q.1.9 1 .4t1 2.9c0 2-.4 3.6-1 3.6s-1 1.2-.9 2.7q-.2 3.6.9.8c.6-1.3.9 2.7.9 11 0 7.1.2 18.5.4 25.2.3 6.8.2 12.3-.2 12.3-2.9-.1-5.1-1.6-5.6-3.9-1.1-5-1.8-24.8-1.9-52.8-.1-26 0-28.3 1.6-28.3q1.8.1 2.3-3.8c.4-2 1.3-5.4 2.1-7.5s1.4-4.8 1.4-6.1q0-4 2.4-3.3c.6.2.9 2.3.8 4.8m46.5 6c.5.5 2.5 1.8 4.4 2.7a13 13 0 0 1 5.4 5.9c1.1 2.4 2.5 4.3 3.2 4.3 1.6 0 2.1 3.8 2.7 21 .5 13.8.4 14.3-.9 9.5-.8-2.8-1.5-6.2-1.5-7.7 0-3-1.5-9.7-3.6-16.7a32 32 0 0 1-1.4-8.1q0-6-4.1-6-5.1 0-2 7.2a52 52 0 0 1 4.5 15.6c.3 2.4.8 4.7 1.1 5.3q.6.8-.2.9c-.9 0-3.3-4.8-3.3-6.6s-2.4-3.4-3.8-2.5c-1.1.6-.9 2.4.7 8.7 2 8.1 2.5 11.7 2.1 16.9l-.2 3-.8-3c-3.6-13.4-6-24-6.5-29.6-.6-5.9-.5-6.7 1.1-7.3 1.8-.7 1.8-.8 0-2.2q-2.6-1.6-.3-1.4c2.5 0 3.4-3 1.3-4.5-1.5-1.2-1.5-1.3 0-1.9s1.5-.8-.1-2.6q-2-2.2-.4-2c.8 0 2 .5 2.6 1.1m-69.1 5.7c-1.1 1-1.5-.4-.8-2.8l.7-2.5.3 2.3c.2 1.3.1 2.6-.2 3m29.7-3.1c-.7.2-1.9.2-2.5 0q-1-.5 1.2-.5c2.2 0 1.9.2 1.3.5m88.1 8.4q-1.3 2.2-5.1-1.3c-2.2-2-3-5.7-1.7-7.1.9-.9 7.5 7.3 6.8 8.4M208 532q-.2.9-1.7 1-2.2.1-.3-1c1.9-1.2 2-1.2 2 0m-134.6 4.5c-.3.8.1 2.4 1 3.7q3.2 4.4-.4 7.8c-2.4 2.4-2.6 5-.5 5q1.3 0 1.5 1c0 .9-2 1.3-3.7.7-.9-.3-1.4-8.8-.7-10.7.4-.8.8-2.6 1-3.9.4-2.9 1.2-5.1 1.8-5.1q.5.2 0 1.5m-7.3 5.2c-.6 2.1-1.1 9.3-1.1 16 0 7.1-.4 12.3-1 12.3s-.7 2-.3 4.9q.5 4.8-.6 5.5-1 .5-1.1-1.3c0-1.1-.5-2.3-1.1-2.7q-1.1-.6-.4-5.8l1.2-12.1c.2-3.9.9-7.4 1.4-8s.9-2 .9-3.5c0-3.1 2-10.4 2.6-9.7.3.3.1 2.2-.5 4.4m281.2-2.1c4.7 2.8 9 7.3 11.6 12.4 1.7 3.2 3.1 6.3 3.1 6.7s-1.4 1-3.1 1.1c-4.3.3-4.5.6-5.3 5.4-.7 4.4-4.4 11.8-5.8 11.8-.5 0 .1-1.4 1.4-3 1.6-2.2 1.9-3.3 1.1-4.1-1.7-1.7-3.9-.5-5.4 3-1.7 3.7-4.2 4.3-3.3.7q.7-2.5-1.4-2.8-4.2-1.2-4.5 3.8-.3 2.8-2 3.2c-1.5.3-1.6 0-.6-2.5 1.5-3.8 1.9-7.3.8-7.3q-.8.2-.9 2 0 2-2 2c-2.1 0-5.5 6.2-3.8 6.9.5.2 1.3 1.4 1.8 2.7.9 2.3 3.8 3.2 5.4 1.7a19 19 0 0 1 4.4-2q7.3-2.4 15.4 3.9c3.4 2.8 3.8 3.6 3.8 7.7.1 4.4 1.7 8.1 3.6 8.1.5 0 1 1.8 1.1 4.1.2 6.6 3.3 20.8 6.4 29.8 2.7 7.6 3.1 11.7.9 8.1-1.5-2.5-2.2-.3-1.1 3.7a61 61 0 0 1 0 22.5q-1.9 9.1-7.9 22.3c-3 6.6-11.4 18.5-13 18.5-1.3 0-1.3 2.7 0 3.5 1.7 1 11.6-10.4 15.9-18.5a115 115 0 0 0 10.9-32.1c.9-6.3.9-6.4 2.1-3.4 1 2.3 1.1 4.8.2 11.4-.8 6.2-.8 8.8.1 9.8 1.7 2.1 3.6-.2 4.8-6.4.7-3 1.5-5.1 1.9-4.7.4.5 2 3.7 3.4 7a27 27 0 0 1 .1 23.7c-2.6 5.1-2.5 9.1.3 8.5.9-.2 2.1-1.7 2.7-3.5 1.5-4.4 2.4-5 4.1-2.7s1.9 7.7.5 10.4q-1.1 1.8.5 2.4 1.4.4 1.5-.4 0-1 .9-1c.9 0 .8 1.1.7 2.6q-.1 2.6-1.7 2.1c-1.3-.4-1.7.2-1.6 2.9.1 3.6.6 4.1 2.4 2.3q1-1.1.6 1.5c-.6 3.2-1 3.2-3.4.3-1.9-2.3-1.9-2.3-2.3 2.8-.1 2-.7 2.2-3.7 1q-1.6-.7-3.9 2.9c-2 3.3-2.6 3.8-4.7 3.5q-.6.1-1.5 1.4c-.4.8-2.6 1.8-4.8 2.2s-4.2 1.1-4.6 1.6c-1 1.7-7.5 3.9-13.3 4.6-3.1.3-7.3 1.2-9.5 2-2.1.7-7.1 1.3-11 1.3-7.5 0-10.1.9-9.4 3.1.7 2-4 4.2-26.9 12.8a58 58 0 0 1-10.1 3.1c-2.3 0-4.2-6.5-4.9-17.3-.3-4.2-1-7.7-1.4-7.7-1.2 0-.2-6.4 1.1-6.8.6-.2 1.8-1.1 2.6-2 1.5-1.5 1.6-1.3 1 1.9q-.5 3 .1 1.9c.3-.8 1-1.8 1.6-2.1.5-.4.6-2.1.2-3.8-.6-3-.8-3.1-2.4-1.7q-4 3.4-4.1-.9 0-2.5-1.5-2.5-1.4 0-1.5 1 0 .9.9 1c.9.1.9 1.1.9 2.5 0 3.7-1.5 3.1-2.9-1.2-.9-2.8-.9-3.8 0-4.1q1-.4 1.1-1.4-.2-1-1.4-.5c-1.6.7-2.1-.4-3.5-7.6-.5-2.6-.5-4.7 0-4.7s.9-1.2.9-2.6q.1-3-1.4-1.5-1.5 1.4-1.8-.7c-.3-1.1-.1-2.7.4-3.6q1.1-1.7-.8-1.6c-1.6 0-1.6-.1-.1-1.8 1-1 1.7-2.7 1.7-3.7 0-1.5-.2-1.6-1.7-.4q-2 1.9-1.1-.3.5-1.5-.6-2.1c-1.7-.7-2.8-4.7-1.3-4.7q1-.1-.4-1c-1.4-.9-2.3-4.2-3.3-8.7-1-4.3-2.3-8.9-2.9-10.3-.5-1.4-1.1-3.6-1.2-5s-1-5.7-1.8-9.5c-1.5-6.4-1.5-7.6-.1-12.5a133 133 0 0 0 3.9-17c.2-1.4 1-4.3 1.9-6.5s1.5-5.2 1.6-6.8c0-4.3 4.8-12.7 6.8-12q1.7.5.6-.4c-2.2-1.6-2.6-5.1-.7-7 1-1 1.7-2.6 1.5-3.5-.3-1.7 1.4-3.2 3.8-3.3q1.4-.1 1.5-1.8c0-2.9 4.5-5.7 9.1-5.7q4.3 0 4.8-1.6.6-1.3 1.5-1c.5.4 1.9-.7 3.1-2.4s2.7-3 3.5-3 1.8-2.2 2.6-5.2c3.2-13.5 7-18.1 20.4-24.9 3.4-1.7 5.3-1.9 12.3-1.5 4.6.3 8.9.9 9.5 1.2M74.4 560.5l-.4 10c-.2 3.8 0 7.8.4 8.7q1 1.7-1.5 2c-2.9.4-3.8 2.8-1 2.8q2 0 2.1 1.5-.2 1.3-1.5 1.5c-1.3.2-1.5.7-1.5 1.5s.9 1.5 2 1.5 2 .6 2 1.4-.9 1.8-2 2.1q-1.8.6-2 1.7.2.9 2 1.5 2 .5 2 2.9c0 2.1-.3 2.2-2.4 1.4-1.3-.5-2.6-.6-3-.3-1.1 1.1 1.4 4.2 3.6 4.5q2.3.3 2.6 2.6c.3 2.1.1 2.2-1.8 1.2a6 6 0 0 0-4.2-.4c-2 .6-2 .6-1.3-19.7 1-28.7 1.4-32.3 4.3-31.7q1.8.3 1.6 3.3m20 5.6q-.6.8-1.5.3t-.3-1.5q.6-.8 1.5-.3t.3 1.5m53.2 14.9 2.3 23.4c1.2 9.4 1.2 9.9-.8 12a8 8 0 0 0-2.1 4.9c0 1.5-.5 2.7-1 2.7-1.8 0-2.8-4.3-1.7-7.4 1.3-3.7.2-18.9-1.7-24.3-1.2-3.4-1.2-4.1-.1-3.7q1.2.4 2-.6c.9-1.4 1-16.5.1-21-.6-3.1-.5-3.3.6-1.5.7 1.1 1.8 8.1 2.4 15.5m210.4-7.5c-.7 2.4-.9 4.8-.5 5.4 1.1 1.9 4.4-.7 5.4-4.2.9-3.2.9-3.2 1-.4.1 1.5-.3 3.5-.8 4.5s-1.2 2.5-1.5 3.5c-.5 1.7-.9 1.6-4.3-1l-4.1-2.9c-.2-.1.8-2 2.2-4.1s2.6-4.7 2.7-5.8q0-1.9.6-.7c.6 1.2 0 3.3-.7 5.7m-135-2.1q0 .5-1 1.1-.9.4-1-.4.1-1 1-1.1 1 0 1 .4m6.9 7.5c2.5 4.9 4.3 6.2 8.8 6.8 2.1.3 4.7 1.3 5.8 2.3s5.5 3.4 9.8 5.3c6.6 3.1 7.7 4 7.7 6.2q0 2.3-.6 2.5c-.4 0-2.4-1.8-4.6-4q-6.7-6.6-9.2-4c-.8.9-.5 1.6 1.4 3.1 11.5 9.2 14.9 13.3 13.4 16.7q-.7 2.1-1.5-1.5c-.9-3.2-9.8-11.3-12.5-11.3-2.5 0-2.8 2.4-.3 3.9 4.2 2.7 9.4 7.9 8.7 8.6-.4.4-3.1-.9-6.2-3-5.7-3.7-10.6-4.9-11.3-2.7-.3.7 1 1.9 2.9 2.8q15.5 7.2 13.1 14c-.7 1.9-2.3.8-2.3-1.7q0-4.6-10-7.5c-4.8-1.3-6.6-2.4-8.4-5a26 26 0 0 0-4.9-5.4c-1.5-1.2-2.7-2.7-2.7-3.5q-.1-1.2-1.5-2.5c-1.3-1.1-1.3-1.6-.2-3.4 1.5-2.3 1.2-4.6-.7-4.6-1.5 0-1.4-10.4.2-14.3 1.4-3.4 2.6-2.9 5.1 2.2m-76.2 5.8c-.2 1.6-.4.5-.4-2.2s.2-4 .4-2.8.2 3.5 0 5m-90.7 4q-1.5 2.6-.6 0c.3-1 .7-2.8.7-4q.2-3.3.6 0c.2 1.2-.1 3-.7 4m93.8 8.3c1.1 4.1 2.3 10.7 2.7 14.7l.7 7.2-4.1 2c-5.3 2.8-5.6 2.7-2.9-1 2.6-3.5 3-10.3 1.4-23.9a25 25 0 0 1-.3-7 75 75 0 0 1 2.5 8m-94.1-2.8q-.5 1.1-.6-.6t.5-1.3c.3.3.4 1.2.1 1.9m433.6 1.5c-.7 1.8-2.2 3.3-3.5 3.3-1.6 0-.7-3.9 1-4.3 3-.8 3.2-.7 2.5 1m-433.6 8.5q-.5 1.1-.6-.6t.5-1.3c.3.3.4 1.2.1 1.9M468 608q-1.2 2-2.6 1.6-1.3-.4-1.4.4-.3 1.1-2.1 2.1c-1.7.9-2.3.8-3-.2q-1-1.6-.9.3 0 1.6-1 1.8-.9-.1-1-2.1t2.8-3c1.5-.5 4.4-1.7 6.3-2.7q5.6-3 2.9 1.8m-405.1 4.7a39 39 0 0 0 .2 6.9q.3 1.2-.6 1.5c-1.5.6-2.3-5.9-1.3-10.1.6-2.2 1.2-4 1.4-4s.3 2.6.3 5.7m13.1 1.4c0 1.6-.5 1.8-2.5 1.3-1.5-.4-3.2-.1-4 .6-1.3 1.1-1.5.8-1.5-1.7 0-2.7.2-2.8 4-2.5 3.1.3 4 .8 4 2.3m-.3 6.6c.5 1.5-1.8 2.2-4.4 1.2-3.7-1.3-2.9-3.8.9-3 1.7.4 3.3 1.1 3.5 1.8m361.7-1.9q.4.8-.5 2.2-.8 1.3-.9.7-.2-.6-2.2.7-4 3-3.8.2c0-2.5 6.2-5.7 7.4-3.8M232 628.3q0 2.6-1 2.2t-1 1.1q.1 1.9-1.4.5-1.4-1.2-2.1-.1-.4.9.3 1c.7.1 1.7 1.6 2.7 3.6q1.7 3.8 3.5 3.1 1.8-.5 2.3 1.9.7 3.2-2 2.1-.8-.2-.5-1 .1-.7-.8-.7c-1.5 0-1.2 2.6.6 4.1 1.3 1 1.7 1 2.4-.1.8-1.2 1-1.2 1.4 0l1 3.2q1 3.3-2.4.3c-1.5-1.4-1.9-1.4-3.1.1q-2 2 .9 1 2.1-.7 2.2.4c0 .6-1.2 1-2.7.8q-3-.1-3.1-2.8c-.2-1.4-1-2.9-1.8-3.3s-1.4-1.7-1.4-2.8q0-1.8 1.1-1.4 1 .7.7-3.1c-.2-2.2-.7-3.7-1.3-3.4q-.9.5-.7 1.7c.4 1.7-1.4 2.5-2.6 1s1.5-10.2 4.3-13.5c1.8-2.1 2.1-2.1 3.2-.5a9 9 0 0 1 1.3 4.6m179.3 1.7c-.4.4-1.8 1.1-3 1.5-3.5 1-3.1-3 .5-4.7 2.4-1.2 2.7-1.2 3 .5.2 1.1 0 2.3-.5 2.7m47.4-2.8q-.5 1.1-.6-.6t.5-1.3c.3.3.4 1.2.1 1.9m-316.7.3c1.1 1.4 1 3-.9 10.3-1.2 4.8-2.4 10-2.6 11.7-2.2 13.8-6.4 30.3-8 30.9-.7.2-3.8 3.8-6.8 7.9a93 93 0 0 1-19.3 20c-.7.4-3.8-1.1-7-3.2a34 34 0 0 0-16.8-6.5c-5-.2-4.5-3.4 1.4-10.5a36 36 0 0 1 17.8-12.7c1.7-.3 3.2-1.1 3.2-1.6 0-1.7-2.1-4.9-2.9-4.4-.4.3-.7-6.3-.7-14.7.1-8.4-.2-16.4-.6-17.8l-.8-2.7 9.3.1c10.9.1 17-1.6 17.5-5 .4-2.5 1.2-2.7 9.8-3.1 4.6-.2 6.4.1 7.4 1.3m91.3 6.5q.4 1.8-.4 1.4-.8-.6-.9-2 .2-3 1.3.6m22.8 3.7c-.9 1.6-1 1.6-1.1.1 0-.9.3-2.5.7-3.5q.8-2.4 1.1-.1c.2 1-.1 2.5-.7 3.5m127.9-1q-.2 2.6-4.3 4.2-2.6 1-2.2.2.4-1-.7-1.7-1.2-.8 1.7-2c3.4-1.5 5.5-1.7 5.5-.7m25 3.8-.8 4-.1-3.6c0-2 .2-3.9.6-4.2 1.1-1.1 1.1-.4.3 3.8m41.7 8.7q-.5 1-.5-1.2c0-2.2.2-1.9.5-1.3.2.7.2 1.9 0 2.5m-32.8 12c0 9.6-.3 12.6-1 10.9a78 78 0 0 1 0-23.1q0-1 .6-1c.6 0 .5 6 .4 13.2m-16.9-1c0 7-.3 9.8-1.2 9.8q-1.3 0 0 1.2c.7.7 1.2 2.5 1.2 4 0 2.3-.4 2.8-2.5 2.8-2.8 0-2.6.8-2.7-15.5 0-12.3 0-12 2.7-12 2.5 0 2.5.1 2.5 9.7m49.7-5.5q-.5 1.4-.5-1.2t.5-1.8c.2.7.2 2.1 0 3m-220.4 2.2c2.2.9 3.4.8 5.7-.4 2.9-1.5 3-1.5 3.6 1.2.3 1.6 1.5 6.2 2.6 10.3 4.3 16.3 4.5 17.6 2.8 16.5q-1-.7-.5-1.6.5-.8-.4-.9c-2 0-1.1 3.2.9 3.7q1.8.5 2 1.2l.7 3q.7 2.4-.5 1.7-1-.3-1.6 1.1a49 49 0 0 0-1.8 12.7q.1 3.8-.7 2.7t-1.7-1.4q-.7-.3-.6-1.2.3-.9-.3-.3c-.4.3-2 .2-3.7-.4q-3.2-1.1-1.6-1.9 1-.8.2-.9-1 0-1.8.7c-1.1 1.1-18.6 1-18.6-.2q-.1-.6-1.6 1.3c-.9 1.3-1.3 2.9-1 3.7q.5 1.4-1 .8-1.3-.3-1.4.8 0 1.5-1.2.1c-.9-.9-1.4-.7-2.4.6q-1.2 1.6-1.4.4-.1-1-1-1.2-1 .1-.8 1.1t-1.5 1.4q-2 .5-1.4-1.6.4-1.7-.3-1.9c-1.2 0-.4-8.4.8-8.8q1-.5.5-1.8t1.3-1.4q2 0 .6-.8c-1.8-1.2-.4-6.7 2.5-9.9 1.4-1.4 3.4-4.6 4.4-7s2.2-4.3 2.6-4.2c1.8.4 7.4-1.4 6.4-2.1q-1-.7 2-2.9c2.6-1.9 3.3-2 4.6-.9q2 1.8 1-.4c-.6-1.7 2.4-3.5 4.1-2.4q.9.3 2.1-2.1c.6-1.4 1-2.6.9-2.7l-2.8-1.5q-2.2-1.1-1.8-.6.6.9-.3 2.2c-1.3 1.5-3.3 1.8-2.4.3.3-.6.4-1.9 0-2.9-.5-1.7-.9-1.8-5-.5-4.6 1.3-6.2.5-2.4-1.2 2.6-1.2 7.6-1 11.2.5m-19.4 5.8c-3.5 3.2-4 4-3.5 7.1.3 2.9-.1 4-2.4 6.4-1.6 1.5-2.4 2.8-1.9 2.8s.9.4.9 1q0 1.8-2.9.1c-1.1-.7-1.1-1.5-.1-4.6 1.1-3.3 1.5-3.6 3.9-3.1q2.3.6 1.5-.1-1.8-1.4-1.5-6.5 0-1.7 1.8-1.1 1.6.6.9-.5-.6-1.1.9-1.2t1-.9c-.6-1 2.2-3 4.3-3.1.6 0-.6 1.7-2.9 3.7m7.6 2.2q-.6 1-1.7 1.1-1 0 .2-1.5c1.4-1.7 2.6-1.3 1.5.4m-4.4 3.4q-1.2 1.2-1.1-.4 0-1.5.7-2.3.7-.5 1.1.4.3 1.2-.7 2.3m203.6 10.9q-.5 1-.5-1.2c0-2.2.2-1.9.5-1.3.2.7.2 1.9 0 2.5m26.4 27.1c-1.5 3.7-2.7-17.1-1.3-25.3.5-3.4.8-1 1.2 10 .3 8 .3 14.9.1 15.3m-244.4-21.6q-.5 1.4-.5-1.2t.5-1.8c.2.7.2 2.1 0 3m218 2.5q-.4 1.8-.4-2.2c0-4 .2-3.5.4-2.3a17 17 0 0 1 0 4.5m-4.7 13.4c0 16.3-.1 17.2-2 17.7q-2.3.8-1-1.3c1.3-2.5 1.3-2.7-.5-2.7q-1.4.2-1.5 1.7a7 7 0 0 1-1.6 3.6c-1.5 1.8-1.5 1.8-1-.5.3-1.4.1-3-.3-3.5-1.2-1.6-2-9.5-1-9.8q.8-.5.3-2.5-.7-2-1.5-1.8-.6.6-.2 2.2c1.3 3.3-2.2.6-4.9-3.8a17 17 0 0 1-2.7-10c-.1-3.1.2-5.9.6-6.2.3-.4 4.4-.6 9-.4l8.3.2zm85.7-9.9q-.5 1.3-.5-1.7c0-3 .2-2.7.5-1.8s.2 2.6 0 3.5m-5 3q-.5 1.3-.5-1.7c0-3 .2-2.7.5-1.8s.2 2.6 0 3.5m-74.9 7q.2 10-.8 8.3c-1.1-1.7-1.4-19.4-.2-18.7.4.3.8 4.9 1 10.4m71.7-5.6c-.7 2-.8 2.1-1.7.5-.5-.9-.7-2.4-.4-3.3 1-2.6 2.9.1 2.1 2.8m-305.2.6q-1.2.6-1.3 1.6c0 1.2-1.9 1.9-17.5 7.3l-9 3.4c-2.9 1.5-32.6 11-34.2 11-1.9 0-1.6-2 .5-2.6l4.7-1.9c1.7-.7 5.5-2.1 8.5-3 3-1 6-2.2 6.7-2.7s1.7-.7 2.2-.3 3.2-.6 5.8-2 5.8-2.5 7-2.5 2.4-.4 2.8-1 2-1.4 3.8-1.9l11.7-3.9c4.7-1.7 8.7-2.8 9-2.5q.3.6-.7 1m300.7.8c0 1.4-.4 2.5-1 2.5s-1-1.1-1-2.5.5-2.5 1-2.5 1 1.1 1 2.5m-5 2c0 1.4-.4 2.5-1 2.5-1.1 0-1.4-3.3-.3-4.3 1.1-1.1 1.3-.8 1.3 1.8m-4.7 3.7q-.4.8-1.4.8c-1.1 0-1.2-3.3-.2-4.4.8-.8 2.3 2.5 1.6 3.6m-43.8-2.2q-.6.9-1.6 1-.8-.1-.9-1 .1-1 1.6-1 1.3 0 .9 1m-7.5 1q0 .9-1 1a1 1 0 0 1-1-1q.1-1 1-1t1 1m46 1.2q0 2.3-1.1 1.1-1-1.1-.5-2.2 1.6-2.5 1.6 1.1m19.6 1.3c.2 2.5-1 3.3-2 1.6-.7-1 .3-4.1 1.3-4.1.3 0 .7 1.1.7 2.5m-54 1c-.4 1.4-.2 2.5.4 2.5 2.2 0 .8 1.9-2.1 2.9l-3.5 1.1c-.9 0-.3-3.7.8-4.8q1-1.1.4-1.2-.7-.2.4-1.5c2.1-2.5 4.3-1.9 3.6 1m30.4 0q0 2.5-1.5 2.5c-1.5 0-2.1-3.1-.8-4.3q2.1-2 2.3 1.8m18.1.8q-1.2 1.2-1.1-.4c0-2 1.3-3.4 1.8-1.9q.3 1.2-.7 2.3m-397.3-.2q2.1.9 1.8 1.8t1.1.5c1-.3 3.1.6 4.7 1.9 2.6 2.1 2.6 2.3.7 2.3q-2-.1-2.1-.8c-.1-.7-1.5-.8-3.4-.8s-3.7-.4-4-.9c-.9-1.4-6-2-7.3-.9-.6.5-.9 1.7-.6 2.5.5 1.3.1 1.5-2.3 1-4.5-.8-8.4.3-8.4 2.4 0 2.4-1.5 3.2-3 1.4-1.8-2.1.8-8.5 4-9.7a27 27 0 0 1 18.8-.7m337.2 2.5c0 1.9-.4 3.4-1 3.4s-1-1.8-1-4.1q0-3.8 1-3.4c.6.3 1 2.2 1 4.1m71 .4c0 2.7-.4 5-.9 5-.9 0-2-8.8-1.2-9.6q2.1-2 2.1 4.6m-34.2-1.8c-.4 2.7-2.8 3.6-2.8 1q0-3.1 2.2-3.2.8.2.6 2.2m-4.4 2.2c-.3 1.4-1 2.6-1.5 2.6-1.4 0-1.1-4.8.4-5.3 1.7-.6 1.9-.3 1.1 2.7M481 706q0 .9-1 1a1 1 0 0 1-1-1q.1-1 1-1t1 1m-4 2.4c0 3.8-1.2 8.6-2.1 8.6s-1.2-9.3-.2-10.3q2.1-2 2.3 1.7m-225 .1q0 1.3-.4 1.5c-.4.2-.6-.7-1-1.5q-.4-1.3.4-1.5 1 .2 1 1.5m-22.3.8c4.1.9 5 1.4 4.1 2.4q-1.5 1.5 1.8 1.2c4.4-.3 7.6 1 7 2.9a69 69 0 0 0-1.2 7.5c-.4 3.5-1.2 6.1-2 6.4q-1.2.5-.8 1.4c1.4 2.4 2.1 6.7 1.2 8q-1.1 1.7-.4-.4.6-1.8-.6-1.5-1.2.6-1.3 1.9c0 2-4.5 3.8-8.2 3.2-3.1-.5-3.7-1.3-3.6-5q0-1-1.3-1.7-1.5-.7-.4 1.8c.5 1.3.7 2.6.4 2.8-.2.3.2 1.8 1.1 3.4q1.3 2.6 1.5 1.9 0-.7 1.2.3c.8.8 1.7.6 3.6-.8 2.7-2.2 5.4-2.8 3.4-.8-1.6 1.6-1.5 2.9.2 2.2q1.2-.4 1.9.9.7 1.6-1.8 1.3c-2.1-.3-2.2-.1-1.3 2q1 2 2.4 1.7c1.5-.6 1.7-.2.8 2-.4 1.2-1.2 1.3-4 .4q-3.6-1.2-4.2 0-.7 1-2-.3-1.5-1.5 0-1.4.9-.2-2.6-2a14 14 0 0 0-4.8-1.7q-1 0-1.6-1.2-.6-1.5 2.2-.7c2.9.7 3 .7 1.6-2.8-.8-2.3-1.4-2.6-4.4-2.2-2 .3-4.3-.2-5.5-1-1.9-1.4-2-1.3-1.4.2q.6 1.7-.4 1.1t-1.5.5q-.5 1.2-1.1-.5-.8-1.7 3.1-4.2 5.4-3.5-1.4-2.6c-1.3.1-2.8-2.8-1.9-3.7q.5-.4.5.6c0 1.6 1.7 1.5 2.3-.1q.7-1.4-2.4-1.2c-2.7.2-3-.1-2.7-2.4q.4-2.4 1.8-2.6t2.1-2.5q.6-2.1.8-1.3c.2 2.3 1.7 1.4 1.9-1.1.1-1.3-.5-2.9-1.3-3.6q-4.2-3.6 3.8-2.5l5.4.7-.5-3q-.5-3.1-1.8-2.5c-.7.2-1.9.1-2.5-.3q-1.4-.7.7-1.5c2.6-1.1 7.9-.9 14.1.4m223.3.6c0 1-.7 2.4-1.5 3.1-1.3 1-1.5.9-1.5-1.2 0-1.4.3-2.8.7-3.1 1.2-1.3 2.3-.7 2.3 1.2m-5 .8a7 7 0 0 1-.9 3.2q-.9 1.7-1.6-.8c-.7-2.2 0-4.1 1.6-4.1q.8.2.9 1.7m-5 3.3q0 3-1.5 3c-2.9 0-1.8-5 1.3-5.9.1-.1.2 1.2.2 2.9m-24.9 1.3q-1.4 1.4-.5-.6.6-1.6 1.2-1.2.4.6-.7 1.8m19.9-.7c0 .8-.5 2.5-1.2 3.7l-1.2 2.2-.6-2.5c-.7-2.5.4-5 2.1-5q.8.1.9 1.6m-273.2 1.8c12.5 2.4 24 6.5 24.7 8.7.4 1.1-.3 4.3-1.3 7.2a16 16 0 0 0-1.1 10.1c.5 2.6 1.1 5.2 1.4 5.7q1.2 1.7-2.3 0A123 123 0 0 0 176 744a46 46 0 0 1-9.5-4.4c-.5-.6-2-1-3.1-.8a5 5 0 0 1-3.8-1.3c-.9-.9-2-1.4-2.5-1.1-1.2.8-6.1-1.4-6.1-2.7q-.1-.8-1.5-.3c-1.8.6-9.2-2.1-23.8-8.8l-2.9-1.4 5.9-1.7 14.3-4.6c4.7-1.6 9.6-2.7 11-2.4zm302 4.3q-.4 6.5-1.5 7.1c-1 .3-1.3-1.5-1.3-6.7 0-5.7.3-7.1 1.5-7.1 1.3 0 1.5 1.2 1.3 6.7m-34.8-2.2c0 1.9-.4 3.5-1 3.5-1.1 0-1.4-5.3-.3-6.3 1.1-1.2 1.3-.8 1.3 2.8m29.4 3c.4 6.2 0 8.5-1.5 8.5-1 0-1.2-7.3-.3-11.9.9-4.3 1.3-3.5 1.8 3.4m-33.4-1.6c0 3.7-1.6 4.9-2.4 1.8-.9-3.5-.7-4.7.9-4.7q1.5 0 1.5 2.9m-5 1.3c0 1.3-.4 2.9-.9 3.6q-.9 1.6-1.4-1.5-1-4.4 1.4-4.3.8.2.9 2.2m75 .3c0 1.4-.4 2.5-.9 2.5s-.6-1.1-.3-2.5.6-2.5.8-2.5.4 1.1.4 2.5m-300-.5q-2.9 1.8-3 .2c0-.4 1-.9 2.2-.9q2.6-.3.8.7m249 7.7c0 3.4-.5 6.5-1 6.8q-1 .7-.9-7.5c.2-9.5 1.9-8.9 1.9.7m9.3-4q-1 10.7-1.2 1c-.1-3.1.3-5.7.8-5.7s.6 2.1.4 4.7m-39.3-.3c0 1.9-.4 3.8-1 4.1q-.9.4-1-.3l-.6-4.1c-.5-2.4-.3-3.1 1-3.1q1.7-.2 1.6 3.4m-218-.9q-.1 1.4-1.6 1.5-2 .2-.4-1.5 1.2-1.3 1.6-1.5.3.2.4 1.5m212.1 6.8q-1.1 1.2-1.1-2.9c0-5.3 1.4-6.7 1.8-1.9.2 2.1-.1 4.2-.7 4.8m40 3q-1.1 1.3-1.1-4.4c0-7.2 1.4-8.6 1.8-1.8.2 2.8-.2 5.7-.7 6.2m41.6-9.1q-.5 1.1-.6-.6t.5-1.3c.3.3.4 1.2.1 1.9m-86.3 4.7c-.8 4.8-2.2 5.6-1.7.8q.9-6.3 1.9-5.5c.2.3.2 2.4-.2 4.7m-155.6.2c-1.5 1-2.8.2-2.8-1.7q-.2-1.7 2-.2 2 1.3.8 1.9m192 2.6c-.4 8.1-2.8 8.5-2.8.4 0-4.8.3-6.1 1.5-6.1 1.3 0 1.5 1.1 1.3 5.7m-243.7-.7q1 .2.6 1.7c-.2 1 .2 3 1 4.5 1 2.1 1 2.8 0 3.2q-.9.4 1.1 0 3.6-.9 1.1 3.4-1.1 1.9-4 1.4-2.6-.4-2.3-1.3c.8-1.3-1-1.1-2.4.3q-1.3 1.4-1.2 0 .1-1.1.8-1.2c1.2 0 5.2-3.9 5.2-5q0-1-1-1-.9.1-1 1.4t-1.3 1.9q-1.3.4-1.4-.9c-.1-1.3.5-1.4 1.1-1.4q.7-.1-.8-1.3-1.7-1.3-1-3c.9-2.3 2.4-2.2 2.4.3q0 1.8 1 2c1 .2.6-.9 0-2.4a8 8 0 0 1-.2-4.7l.7-2.4.3 2.2q.4 2.1 1.3 2.3m-75.8-1.5q1.4 1.3 1.9.9c.8-.7 9.6 2.4 17.3 6.3 3.9 1.9 13.1 5.4 20.5 7.9a98 98 0 0 1 17.2 6.9c.3-.3 4.1 1.1 8.4 3.1 11.6 5.4 22.6 9.4 23.7 8.7q.9-.4.3.5c-.8 1.3 2.9 3.5 6.2 3.7 1.3 0 2.7.6 3.1 1.3s1.5 1 2.4.6q1.8-.6 1.7 1.1 0 1.7 1.5 1.2 1.4-.5 2 .3.5 1-.6 1c-1.1 0-.9.3-.6.6q.8.5 2.3-.7 1.7-1.5 2.1-.3c.2.7 1.2 1 2.1.7 2.2-.5 10.7 3.2 12.4 5.5.7.9 2.8 1.7 4.6 1.8 5.1.2 6.6 2.4 1.7 2.4-4.2-.1-9.4-2.3-8.5-3.6.3-.4-1.4-.9-3.8-1-2.3-.1-4.9-.7-5.6-1.3s-2-.9-2.9-.5q-1.4.4-2.2-.5c-.3-.6-1.4-1.1-2.3-1.1-1 0-4.4-1.4-7.5-3a28 28 0 0 0-7.4-3 25 25 0 0 1-6.3-2.4 45 45 0 0 0-8.1-3.1c-1.9-.4-5.2-1.5-7.4-2.4-2.2-1-5.9-2.4-8.3-3-2.3-.7-5.9-2.3-7.9-3.6s-4.5-2.5-5.7-2.5-5.2-1.6-9-3.5-8.5-3.8-10.5-4.1c-2-.4-5.8-1.5-8.6-2.4-2.7-1-6.2-2.1-7.8-2.4-1.5-.4-5.2-1.8-8.2-3.2-4.9-2.2-5.5-2.8-5.5-5.4q0-5 3.3-1.5m277.8 4.8q-1.2 1.2-1.1-1.4c0-3.3 1.4-4.7 1.8-1.9.2 1.2-.1 2.7-.7 3.3m30.9-2.9c0 .8-.4 1.8-1 2.1q-.9.4-1-1.4.1-2 1-2.1 1 .1 1 1.4m66.6 1.4c-.3 1-.6 6.1-.7 11.5-.2 5.4-.7 10.1-1.2 10.4q-1 .5-.4-8.7c.4-5.1.7-10.8.7-12.7q0-3.3 1-2.8 1 .8.6 2.3m-61.3.8c.6 3.3-.2 6.4-1.7 6.4q-1 0-.8-4.5c.4-5 1.7-5.9 2.5-1.9m29.7 2c0 1.2-.7 2.4-1.5 2.7-1.7.7-2.7-.5-2-2.7 1.7-5.3 1.6-5.1 2.5-3.6.6.8 1 2.5 1 3.6m-353.3-1.4q-.5 1.1-.6-.6t.5-1.3c.3.3.4 1.2.1 1.9m308.7 2.2c.7 4.4-.2 10.6-1.5 10.6-1 0-1.2-5.8-.3-11.3.8-4.5 1-4.4 1.8.7m-24.4-2.7q-.1 1-1 2.3-1.1 2-1-.8.1-2 1-2.2 1 0 1 .7m95.6 2.1c-.3 1-.6 6.1-.7 11.4-.2 5.4-.7 10.3-1.1 11-.6.8-.7-3.3-.4-9.7l.6-13.3q0-2.1 1-1.7 1 .8.6 2.3M460.8 755c0 11.9-.4 21-.9 21-1 0-1-.3-1.1-19q-.2-22.9 1.3-23c.4 0 .7 9.4.7 21M393 736.5q0 1.3-1 1.5-.9-.2-1-1.5c-.1-1.3.5-1.5 1-1.5q1 .2 1 1.5m96 .5q0 1.8-1 2-.9-.2-1-2c-.1-1.8.5-2 1-2q1 .2 1 2m-433.7 1c-.5 2-2.3 2.6-3.6 1.3-.9-.8 1.2-3.3 2.8-3.3q1.2.1.8 2m332.3 1.7c-1 1-1.9-.5-1-1.8q.8-1.7 1.2 0 .3 1.2-.2 1.8m96.3 13.3c-.1 9.2-.6 16-1.1 16-.9 0-.9-18.7 0-27.8.8-8.6 1.3-3.8 1.1 11.8m-67.5-10.8q-.3 10.7-1.4 2.8c-.4-3-.5-5.8-.3-6.3.9-1.6 1.8.3 1.7 3.5m-162.1-1.1q.4 2-.6 1.6c-1.5-.5-2.2-3.7-.9-3.7q.9.1 1.5 2.1m202 6.1-.2 13c-.1 3.3-.5 5.8-1.1 5.8-1.1 0-1.3-21.2-.3-25.3 1-3.9 1.8-.4 1.6 6.5m18.6 2.8c-.1 6-.6 11.5-1.1 12.2-.9 1.4-.9-14.1-.1-20 1-6.2 1.4-3.1 1.2 7.8m-216.6-8q.4 1.8-.4 1.4-.8-.6-.9-2 .2-3 1.3.6m169.3.5c.3 1.7-1.2 2-2.1.5-.7-1.2.4-3.4 1.3-2.5q.5.6.8 2m-385.3-.1c.3.8 0 1.9-.6 2.4-2.8 2.2-7.7 4.1-9.1 3.6q-1.5-.6-1.6.7 0 1.1-.6.6c-1.5-1.4 1.1-5 4.9-6.7 5.2-2.3 6.3-2.4 7-.6M406 748c0 4-.4 7-1 7s-1-3-1-7 .4-7 1-7 1 3 1 7m45.6 8.8c-.5 15.3-.2 20.2 1.3 20.2.4 0 1.2-2.1 1.8-4.8l1-4.7.2 4.1c0 2.3-.5 5.4-1.3 6.9l-1.4 2.7-2.1-2.1c-1.9-1.9-2-3.2-2-17.8.1-14.4.8-20.3 2.5-20.3.3 0 .4 7.1 0 15.8m14.7-12.8q-.6 1.8-1.4 2c-1 0-1.2-2.4-.2-3.3q2.1-1.8 1.6 1.3m-226.3.5q0 1.3-1 1.5-.8-.2-.4-1.5.7-1.3 1-1.5.3.2.4 1.5m-20 .5q-.1.9-1.6 1-1.3-.1-.9-1 .6-1 1.6-1 .8 0 .9 1m217 0q-.1.9-1.1 1-.8-.1-.4-1 .6-1 1.1-1 .4 0 .4 1m51.9 8.2q-.4 17.4-2 16.2c-.7-.4-.7-8.7 0-23.2q.2-2 1.2-2.2 1 .1.8 9.2m-436.4-1.5c-.3 1.9-1.2 3.6-1.9 3.9s-3.6-.6-6.6-1.9l-5.5-2.4L43 749c9.3-4.8 10.8-4.3 9.5 2.7m393.6-3c-.9 1.6-1 1.4-1.1-1.2q0-3 1.1-1.8c1.1 1.2.8 1.6 0 3m24.6-.2c.1 1.9-.3 3.8-.8 4.1s-.9-1.3-.9-3.5c0-5 1.6-5.5 1.7-.6M214.5 747q.4.9-.4 1-1-.1-1.1-1 0-1 .4-1 .6 0 1.1 1m154.5 0q-.1.9-1.1 1-.8-.1-.4-1 .6-1 1.1-1 .4 0 .4 1m42.6 4.6q-.6 1.4-1.6.9c-1.4-.9-1.2-5.3.3-5.8 1.3-.4 2.2 2.6 1.3 4.9m-211-3.1c.7-1.7.8-1.7 2.1.1 1.8 2.4 1.7 5.5-.1 4.8a1.6 1.6 0 0 1-.9-2q.4-1.3-.5-1.4-1.2 0-1.4 1.1-.5 1.2-2-.5a7 7 0 0 0-3-1.7q-1 0 .7-.9 2-.8 3.2.8c1.1 1.3 1.3 1.3 1.9-.3m192.4 1.4c0 1.7-.4 3.3-1 3.6q-1 .4-1-2.9c0-2 .5-3.6 1-3.6s1 1.3 1 2.9m48.9 9.6c-.1 6.9-.6 12.5-1 12.5s-.9-5.3-.9-11.8c0-10.5.3-13.2 1.7-13.2.2 0 .3 5.6.2 12.5m-416.2-9.3q-.5 1.1-.6-.6t.5-1.3c.3.3.4 1.2.1 1.9m224 0q-.5 1.1-.6-.6t.5-1.3c.3.3.4 1.2.1 1.9m-36.2-.2q.4.9-.4 1-1-.1-1.1-1 0-1 .4-1 .6 0 1.1 1m40.8 3.9c-.1 2.3-.5 4.6-.8 5.2q-.5 1.1 1.1 3.1c1.9 2 1.9 2-.6 1.6-1.4-.2-2.4-.9-2.2-1.6q0-1-1.3-1.2c-1.3-.2-1.5-.9-1.5-2s.6-1.9 1.3-1.8q1 .1 1.3-1.7c.1-3 1.4-6.6 2.3-6.1.3.3.6 2.3.4 4.5m102-1.9q-.6 1.8-1.4 2c-1 0-1.2-3.3-.3-4.3 1.2-1.2 2.2.3 1.7 2.3m4.7-1.5q0 1.3-1 1.5-.9-.2-1-1.5c-.1-1.3.5-1.5 1-1.5q1 .2 1 1.5m21.6 7.3c-1.3 1.2-1.6-.8-.9-4.9l.8-4.4.3 4.4c.2 2.3.1 4.6-.2 4.9m54.7 6.4c-.4 15.8-.7 17.8-2.1 17.8-.4 0-.8-6.9-.9-15.3 0-14 .5-17.7 2.7-17.7.4 0 .6 6.9.3 15.2m28.7-8.7c0 3.7-.4 6.5-1 6.5-1.1 0-1.4-11.3-.3-12.3 1.2-1.3 1.3-.7 1.3 5.8m-448.3-3.3q-.5 1.1-.6-.6t.5-1.3c.3.3.4 1.2.1 1.9m241.8-1.6c-.6.2-1 2.1-.8 4.2.1 2 0 2.9-.3 1.9q-.6-1.5-1.6-1.7-1 0 .2-1.5 1.5-1.7-.1-1.5c-1.6.2-1.1-.2.1-1 .8-.5 2-.9 2.5-.9q.9 0 0 .5m92.5 1.9q0 1.4-1 2-1 .4-1-2c0-2.4.4-2.4 1-2q1 .6 1 2m36 .6c0 1.7-.4 2.8-1 2.4s-1-1.7-1-3.1c0-1.3.5-2.4 1-2.4s1 1.4 1 3.1m-40.5.8c-.3 1.2-1.1 2.1-1.6 2.1-1.4 0-1.1-3.8.4-4.3 1.7-.6 2-.2 1.2 2.2m75-1.9c-.3.5-1.1 1-1.6 1q-.9-.1-.4-1a2 2 0 0 1 1.6-1q.9 0 .4 1m24.2 5.1c.1 2.7-.3 4.9-.8 4.9s-.9-2.6-.9-5.7c0-6.8 1.4-6.2 1.7.8M153 753.6c0 1.4-3.8 4.9-4.6 4.2-.3-.3-.2-1.7.1-3.1q.7-2.5 2.6-2.4c1 .1 1.9.6 1.9 1.3m67.7-.4c.9-2.2 2-1.3 1.5 1.3q-.5 2.7-2.1 2.2-1.5-.5-1.3-1.5 0-1.1-1.5-1.2-2.2.1-.3-1 1.4-.9 2.3.3 1 1.4 1.4-.1m117.7.6c1.1 1.9-1 2.7-2.6 1s-1.7-1.8.1-1.8q1.9.1 2.5.8m4.6.2q0 .9-1 1a1 1 0 0 1-1-1q.1-1 1-1t1 1m59 1q0 1.8-1 2-.9-.2-1-2c-.1-1.8.5-2 1-2q1 .2 1 2m-138.3 2.2q-.5 1-.5-1.2c0-2.2.2-1.9.5-1.3.2.7.2 1.9 0 2.5m153.3-2.8q0 .5-1 1.1-.9.4-1-.4.1-1 1-1.1 1 0 1 .4m10.9 14.1c-.2 14.1.3 17.4 2 14.6q1-1.1 2-.7 3 2-2.4 2.8c-3 .3-3.5.1-3.6-1.7l-.4-15c-.4-12 0-14.4 2.3-14.5.2 0 .2 6.5.1 14.5M9.7 757.2q-.5 1.1-.6-.6t.5-1.3c.3.3.4 1.2.1 1.9m368.3.3c0 1.4-.4 2.5-1 2.5s-1-1.1-1-2.5.5-2.5 1-2.5 1 1.1 1 2.5m101 1c0 1.9-.4 3.5-1 3.5s-.9-1.6-.8-3.5.5-3.5 1-3.5.8 1.6.8 3.5m-389.1-1.8q-.1.8.1 1.3c.7 1.3.5 9-.2 9q-.7.1-.8 1.4c0 1.3-3.8 1.5-5.9.1-1.2-.7 4.3-12.5 5.9-12.5q.9 0 .9.7m242.9 3.5c-.2 2.3-.9 4.3-1.5 4.6-1.4.4-1.7-2.7-.7-6.6s2.5-2.4 2.2 2m64.2-2.7q0 1.3-1 1.5-.8-.2-.4-1.5.6-1.3 1-1.5.3.2.4 1.5m14.5-.5q-.6.9-1.6 1-.9-.1-.4-1a2 2 0 0 1 1.6-1q.9 0 .4 1m-18.9 3.7c-1.1 1.1-1.9-.6-1.1-2.4s.8-1.7 1.2 0c.3 1 .2 2.1-.1 2.4m29.7 1c.6 4.7.2 14.2-.8 17.3-.3.8.1 2.7.9 4.1.7 1.5 1.1 3.9.8 5.4-.4 2.5-.7 2.6-4.1 2-2-.4-3.8-.9-4.1-1.2a116 116 0 0 1-.3-22.6c1-11.7 2.3-7.2 2.1 6.8-.1 9.5.1 13.8 1 14.7 1.4 1.4 1.4.8 2-22.5.2-9.4 1.6-11.6 2.5-4m47.4-2.5q-.5 1.1-.6-.6t.5-1.3c.3.3.4 1.2.1 1.9m-142.4 3.5c-.6 5.1-1 6-1.9 5.1s.7-9.8 1.7-9.8c.5 0 .6 2.1.2 4.7m10.3.1c-1.2 1.1-1.8-.7-1-3l.8-2.3.4 2.3c.2 1.3.1 2.6-.2 3m36-1.1c-1.1 1.1-1.9-.6-1.1-2.4s.8-1.7 1.2 0c.3 1 .2 2.1-.1 2.4m123.8-1q-1.5 6-1.4.5c0-1.8.5-3.2 1-3.2q1 .2.4 2.7m-109.7 1.5q-.5 1-.5-1.2c0-2.2.2-1.9.5-1.3.2.7.2 1.9 0 2.5M406 760q-.1.9-1.1 1-.8-.1-.4-1 .6-1 1.1-1 .4 0 .4 1m-362 1q1.3.9.9 1.4c-.7.8-4.9-.5-4.9-1.5 0-1.2 2.1-1.1 4 .1m221.4.6q.5 1.3-.4.9-1-.6-1-1.6.2-2 1.4.7m57.6 2.9c0 3.3-.4 4.5-1.5 4.5s-1.3-.8-.9-3.3c1.3-7.2 2.4-7.8 2.4-1.2m169.2-.5q-1 6-1.2-.6c0-1.9.4-3.3.8-3s.7 1.9.4 3.6m-123.6-.3c-1 1-1.9-.5-1-1.8q.8-1.7 1.2 0 .3 1.2-.2 1.8m-141.7-.1q.3.4-.1.9c-.8.9-5.8-.6-5.8-1.6 0-.8 4.8-.2 5.9.7m19.9 2c2.3 2.7 3.9 3.7 7.1 4.1q4 .7 4.1 1.9.2 1.3 2 1.4c1 0 2.8 1 4 2.2 2 2.1 2 2.1 3.5.2 1.4-1.9 1.4-1.8 1.5.3q.2 2.4-3.2 3.1c-1.8.5-3.4.5-3.6 0s-1.3-.8-2.5-.8q-2.5 0-.8-.9 1.2-1 .7-2t-2.6.1c-2.4 1.5-9.7-.6-12.3-3.6q-1.7-1.8-1.2-.9c.7 1.5-1.3 1.7-3.4.4q-1.5-.7-.2-2.9c1.4-2.5 1.4-5.2.1-5.2-.5 0-1.2 1.6-1.6 3.5-.3 1.9-.8 3.5-1 3.5l-4.4-1.6c-5-2-5.5-4.9-.8-4.2 2 .3 3.8 0 4.6-.8 2.6-2.6 6.8-1.7 10 2.2m71.2.3c0 2.2-.4 4.3-1 4.6q-.8.5-1.1-.2l-.4-2.8c-.5-2.5.3-5.5 1.6-5.5.5 0 .9 1.8.9 3.9m65-1.9q0 1.8-1 2-.9-.2-1-2c-.1-1.8.5-2 1-2q1 .2 1 2m28.9 10.7c-.1 7.1.1 13.4.3 14.2q.1 1.4-1.4 1.8c-1.4.4-1.6-1-1.3-13.9.3-15.9.2-14.8 1.4-14.8.6 0 1 5.3 1 12.7M9.8 767.6q-.1 4.6-1 3.1c-.7-1.4-.1-7.7.8-7.7.2 0 .3 2.1.2 4.6M261 764q1.9 1.1-1.3 1-2.6 0-2.2-1c.8-1.2 1.6-1.2 3.5 0m186 7.1c0 5.1-.4 6.9-1.3 6.9s-1.3-1.7-1.2-6.8c.2-8.3.3-8.5 1.5-7.7.6.3 1 3.7 1 7.6m23.2-5.8c.3 1.3.1 3.2-.3 4.3q-.8 2.1-.8-2.4 0-7.1 1.1-1.9m8.8-.4c0 1.1-.4 2.3-1 2.6q-1 .4-1-1.9c0-2.3.5-2.6 1-2.6q1 .2 1 1.9M148.2 766c2 0 18 5.2 23.5 7.6 1.7.8 4.6 1.7 6.5 2.1 1.8.3 4.3 1.3 5.6 2.1s3.3 1.6 4.5 1.8a62 62 0 0 1 16.2 4.4c2.2 1.1 4.6 2 5.5 2 2.6 0 7 2.4 6.6 3.6s2.9 3.2 5.7 3.3c5.4.3 5.9.9 2.6 2.9-1.7 1.1-2.5 1.1-4.5-.3-2.8-1.8-3.3-.9-.6 1.2 1.5 1.3 1.5 1.4-1 .9-2.5-.6-5 .8-2.8 1.6.9.3-16.7 7.8-18.4 7.8q-.7-.2-.3-1.5 1-2.6-4.2-3.1c-1.4-.1-4.4-.7-6.6-1.4s-5.5-1.3-7.3-1.4c-3.1-.1-3.3-.3-2.8-2.9q.7-2.8-.9-2.7-1.3.1-1.5 1.1 0 1-3.2.5l-5.3-1q-1.8-.4-1.8-1.2c0-.5-1.6-1-3.7-1-2-.1-4.8-.8-6.1-1.5l-2.9-1.5-2.7-.9q-2.1-.7-2.3-1.5c0-.4-1.8-1.2-4-1.9s-4-1.6-4-2.1q-.1-1-1.5-1c-1.4 0-1.5.6-1.5 1.4q0 1.4-2 .9-1.8-.5-2-1.2t-1.7-.8c-3.3-.2-7.6-1.4-10.4-2.8-1.5-.8-3.8-1.5-5.1-1.5s-3-.5-3.8-1q-2-1.1.3-1c1 0 3.4-1.2 5.3-2.6s3.7-2.4 4.1-2q.6.4 2-.6c.7-.6 1.6-.8 1.9-.6s2.6-.1 5.1-.8c3.5-1.1 4.8-1.1 5.4-.2q.7 1.2 2.5-.7c2.6-2.6 7.7-4.5 8.9-3.4.5.5 1.7.9 2.7.9m164.7-.3-.9 4.8c-.7 2.7-.8 2.5-.9-1.8 0-2.6.4-4.7.9-4.7q.9.2.9 1.7m64.7 2c-1.1 1.1-1.9-.6-1.1-2.4s.8-1.7 1.2 0c.3 1 .2 2.1-.1 2.4m29.1 13c-.4 11.7-.7 13.8-2.3 15q-4.2 3-4.4-1.2c0-1.4.5-2.5 1.1-2.5q.9 0 .4.9t.4 1.5c2 1.3 2.5-2.2 2.3-15.2-.3-13.4.2-16.9 2-13.8.5 1 .8 7.7.5 15.3m59.3-15.2q0 1.3-1 1.5-.9-.2-1-1.5c-.1-1.3.5-1.5 1-1.5q1 .2 1 1.5M34 766q0 .9-.4 1-.5-.1-1.1-1-.4-1 .4-1 1 0 1.1 1m359 9.7c-.2 12.6-.2 12.3-1 12.3s-1.3-20.7-.4-22.1c1.3-2.1 1.6.2 1.4 9.8m80.7-7.5q-.5 1-.5-1.2c0-2.2.2-1.9.5-1.3.2.7.2 1.9 0 2.5m-444.9.6c-.5 2.7-2.8 2.6-2.8-.2q0-2.7 1.5-1.9 1.5.6 1.3 2.1m237.7-1.8q.4.9-.4 1-1-.1-1.1-1 0-1 .4-1t1.1 1m40.4 7.4q-1.3 1.4-.5-2.3l.8-5q.2-1.2.5 2.3c.3 2.2-.1 4.3-.8 5m66.7-5.7c-1 1-1.9-.5-1-1.8q.8-1.7 1.2 0 .3 1.2-.2 1.8m28.3 8c0 6-.4 11.7-.9 12.8-1.1 2.6-1.2 1.9-1.2-10 0-13.2 0-13.5 1.2-13.5.6 0 1 4.2.9 10.7m-98.3-.9c-1.3 1.2-1.7-.8-.9-4.4l.8-3.9.3 3.9c.2 2.1.1 4.1-.2 4.4m66.4-6.3q-.1 1.4-1.5 1.5c-1.6 0-2-1.2-.8-2.3 1.1-1.2 2.3-.8 2.3.8m27 7c0 4.7-.4 8.5-.9 8.5s-.9-15.7-.3-16.8c.9-1.3 1.2 1.1 1.2 8.3m-97-5.5q0 1.8-1 2-.9 0-1-1.2-.1-.9-1.5.8-1.5 2.3-1.5.3c0-1.8 1.9-3.9 3.7-3.9q1.2.2 1.3 2m165.8.2q-.4 2-1.4 2.5-1.1.3-.7-2.2c.6-3 2.6-3.4 2.1-.3M22 772q0 .9-1 1a1 1 0 0 1-1-1q.1-1 1-1t1 1m304.9 1.7q.1 3.6-.8.8-.8-1.8-.4-2.8 1.3-2 1.2 2m56.9 9.7c-.2 9.6-1.3 19.8-1.7 16.6l-.7-14.7c-.5-11.9-.3-13.2 1.1-12.7 1.3.6 1.6 2.3 1.3 10.8m5.1-5.2c.1 7.9-.9 17.1-1.8 16.3-.7-.7-1.1-20.6-.4-21.8 1.3-2.2 2.2 0 2.2 5.5M15.5 774q.4.9-.4 1-1-.1-1.1-1 0-1 .4-1 .6 0 1.1 1m-5.8 2.2q-.5 1.1-.6-.6t.5-1.3c.3.3.4 1.2.1 1.9M357 775q0 .9-1 1a1 1 0 0 1-1-1q.1-1 1-1t1 1m84.5 1.5c0 1.4-.3 2.5-.7 2.5-.5 0-.8-1.1-.8-2.5s.3-2.5.8-2.5.7 1.1.7 2.5m-89.5.5q0 .9-1 1a1 1 0 0 1-1-1q.1-1 1-1t1 1m18-.6q0 .5-1 1.1-.9.4-1-.4.1-1 1-1.1 1 0 1 .4m8.9 10.1c-.1 10.4-1.8 14.3-2 4.6l-.3-9.4c-.3-3.6.1-4.7 1.5-4.7.5 0 .9 4.2.8 9.5m-67.2-5.3q-.5 1-.5-1.2c0-2.2.2-1.9.5-1.3.2.7.2 1.9 0 2.5m32.3-.2q-.1.9-1.6 1-1.3-.1-.9-1 .6-1 1.6-1 .8 0 .9 1m-72.5 5.6c.2 2.1.2 3.1-.1 2.1-.7-2.3-2-2.2-2.7.3-.9 3.4-2.9 2.4-2.2-1q.5-2.8-.3-3c-.6 0-1.4 1.5-1.8 3.2l-.7 3.3-.9-2.8c-1.2-3.3-2.8-2.7-2.9 1.1q0 3.8-.7.4c-1-3.4-2.7-2.3-2.8 1.7s-2.4 5.6-2.4 1.7c0-1.3-.4-2.8-1-3.1q-.9-.4-1 1.4c0 2.4-1.6 3.6-2.4 1.9-.6-1.7-3.6 1.9-3.6 4.3 0 3.7-1.8 2.7-2.2-1.1-.4-4-.3-4.1 5.2-6.7 10.8-5.3 20.5-9 21.3-8.3.4.4 1 2.4 1.2 4.6m32.5-4q0 1.3-1 .9-.9-.6-1-1.6.1-.8 1-.9 1 .1 1 1.6m52.5-.6q.4.9-.4 1-1-.1-1.1-1 0-1 .4-1t1.1 1m13.4 6c.1 4.4-.2 7-.8 7s-1.1-2.8-1.1-7c0-3.9.4-7 .8-7s1 3.1 1.1 7m-31.9-5.1q0 1-1 1.6-.9.4-1-.9.1-1.5 1-1.6 1 0 1 .9m14 1.1q0 .9-1 1a1 1 0 0 1-1-1q.1-1 1-1t1 1m13.6 5.4c.4 5.5-.9 8.4-1.9 4.4-.7-2.3.3-11.2 1-10.4.3.3.7 3 .9 6m-47.6.1c0 7-2.4 7.7-2.8.8q-.4-6 2.6-6.3c.1 0 .2 2.5.2 5.5m13.6-1.8c-1.1 1.1-1.9-.6-1.1-2.4s.8-1.7 1.2 0c.3 1 .2 2.1-.1 2.4m30.4 4.7c0 10.1-1.7 10.6-1.9.6-.1-5 .2-8 .9-8s1 3 1 7.4m-39.2-3.5c.2 1.3-.1 2.8-.7 3.4q-1.1 1.2-1.1-1c0-1.2-.3-2.9-.7-3.9q-.6-1.7.8-1.2c.8.2 1.6 1.5 1.7 2.7m5.2-1.5c0 1.6-1.8 3.1-2.7 2.2-.8-.8.5-3.6 1.7-3.6q.9.1 1 1.4m15.2.8q-1.1 1-1.9.4-.6-.7.7-1.6c1.9-1.2 2.7-.3 1.2 1.2m-30.4 2.3c.2 1.9-.2 3.5-.7 3.5-.6 0-1-1.6-.9-3.5s.4-3.5.8-3.5c.3 0 .7 1.6.8 3.5m44.6-.4c.8 3.9-.4 19.9-1.5 19.9-.4 0-.8-5.2-.8-11.5-.1-11.1 1-14.9 2.3-8.4m118.1-1.3q-.6.4-1.8-.7-1.4-1.4.6-.5 1.6.6 1.2 1.2M338 790q-.1.9-1.1 1-.8-.1-.4-1 .6-1 1.1-1 .4 0 .4 1m14.9 10c-.1 6.1-.5 11.3-.9 11.5-.9.6-2.3-20.1-1.5-21.5 1.9-3.1 2.6-.2 2.4 10m40-10.3q0 1-.9 2.8-1 2.8-.9-.8c-.1-1.5.4-2.7.9-2.7q1 0 .9.7m44.8 2.7a26 26 0 0 0 17.7 7.6c3 0 5.7.4 6 .9 1.5 2.4-8.9 6.9-12.1 5.3-1-.5-3.8-1.3-6.3-1.7-3.6-.6-5.7-1.8-10.7-6.6a30 30 0 0 0-7.4-5.9q-1 0 .7-1.5c3.4-2.5 8-1.8 12.1 1.9m-105.2.6q-.7.9-1.6 1-.9-.1-.4-1a2 2 0 0 1 1.6-1q.9 0 .4 1m11.5 8 .1 8.7q0 .7-1 1.1-1 .1-1.1-2l-.4-8.3c-.3-6.3-.1-7.5 1.5-7.5.5 0 .9 3.6.9 8m4 .2q-.1 14-1.4 1.8c-.5-5 0-10 1-10 .2 0 .4 3.7.4 8.2m-107.5-6.4c.6.4.8 2 .5 3.7l-.7 3-1.4-3-1.3-3-.4 3.7c-.3 3.8-2.1 5.4-2.3 2 0-.9-.2-2.5-.4-3.5q-.2-1.8 1.8-2.7c2.8-1.1 3-1.1 4.2-.2m97.6.9.4 7.3c.2 6.2 1 12.4 2.1 16.2q.6 1.9-1.4 1.8c-2.6 0-3-2.1-3.2-15.3 0-6.8.3-10.7 1-10.7q1 0 1.1.7m-38.9 6.5c-.9.9-1.2.4-1.1-2.3 0-3.2.1-3.3 1.1-1.1q1.2 2.4 0 3.4m33.8.7c0 5.9-1.2 8.6-2.4 5.5-.8-2.1-.8-9.9.1-10.7 1.7-1.7 2.3-.3 2.3 5.2m33-4.5c0 .8-.4 1.8-1 2.1q-.9.3-1-1.4.1-2 1-2.1 1 .1 1 1.4m-138 4.8q0 7.3-1.3-.5c-.3-2-.2-3.7.4-3.7.5 0 .9 1.9.9 4.2m5-3.2q0 .9-1 1a1 1 0 0 1-1-1q.1-1 1-1t1 1m34.3 1.5q-1.2 3.1-1.3-.6 0-1.8 1-1.4.8.6.3 2m61.1-.8c.6 2.4.1 16.2-.7 17q-.5.6.4 2.5c1.3 2.4.5 4.8-1.5 4.8-1.3 0-1.5-2-1.5-12.2 0-6.7.2-12.5.5-13 .9-1.4 2.2-.9 2.8.9m-104.5 4.8c-.1 3-.5 5.8-1 6.1-1 .6-1.3-9.9-.2-10.9 1.1-1.2 1.2-.8 1.2 4.8m100 7.2c-.2 6 .1 12 .5 13.5.7 2.4.6 2.6-1.3 2.1-2.4-.6-2.3-.4-2.1-13.3.1-10.2.6-13 2.1-13 .6 0 .9 4.2.8 10.7m42.1-7.2c0 1.9-.4 3.5-1 3.5-1.1 0-1.4-5.3-.3-6.3 1.1-1.2 1.3-.8 1.3 2.8M218.5 804q.4.9-.4 1-1-.1-1.1-1 0-1 .4-1 .6 0 1.1 1m14.5 1.1q0 .8-1 .9-.9-.1-1-1.6.1-1.3 1-.9 1 .6 1 1.6m42.2 1.9c-.2 1.6-.6 3-.8 3s-.4-1.4-.4-3 .4-3 .8-3 .7 1.3.4 3m43 9.1c-.4 10.8-.6 12.8-1.6 11.8-.7-.7-1.6-22.6-.9-23.3 2.2-2.1 2.8.8 2.5 11.5M214 809.4c0 5.7-1.7 6.9-2.2 1.7-.4-4.5-.1-6.1 1.3-6.1.5 0 .9 2 .9 4.4m4.1 2.2c-.9 3.8-.9 3.8-1 .7-.1-3.3 1-7.4 1.6-5.7.2.6-.1 2.8-.6 5m-9.1-2.2c0 3.4-1.8 4.2-2.9 1.4q-1.6-4 1.5-3.8 1.3.1 1.4 2.4m41.1.9q-1.2 1.2-1.1-.4c0-2 1.3-3.4 1.8-1.9q.3 1.2-.7 2.3m62.8-.1c-.1 4.5-1.6 13.7-1.9 11.8l-.5-8.3c-.3-5.3-.1-6.7 1-6.7q1.5 0 1.4 3.2m-42.2 0q-.5 1.1-.6-.6t.5-1.3c.3.3.4 1.2.1 1.9m37.3 0q0 2.4-1.1 1.1-1-1.1-.5-2.2 1.6-2.5 1.6 1.1m-104 4.7c0 3.3-.4 6.3-1 6.6q-1 .4-1-5.9c0-3.7.4-6.6 1-6.6s1 2.6 1 5.9m-4.9-3.6c-.6.7-.9 2.8-.6 4.5.2 1.8 0 3.2-.5 3.2-1.2 0-1.7-6.9-.6-8 1.5-1.5 3-1.2 1.7.3m104.9 7.8q0 9-1 8.4-1-.8-.9-2.3c.2-1-.1-2.7-.5-4a4 4 0 0 1 .4-3.7q1-1.5.5-4.5c-.5-3-.3-3 .4-3s1.1 3.2 1.1 9.1m44.4-6.6q.4 1.3-.4 1.5-1-.2-1-1.5c0-1.3.2-1.5.4-1.5s.6.7 1 1.5m-14.7 4.2c.7 3.5.8 5 0 5.5q-1 .6-1.8.2c-1-.6-1-10.4 0-10.4.3 0 1.1 2.1 1.8 4.7m-139.1 2.1-.5 5.4q-.2.8-1.1.8c-.6 0-.9-1.6-.6-3.8.3-2 .5-4.7.5-6q.2-2 1.1-1.7c.6.3.8 2.7.6 5.3m150.4-3.9c0 1-.6 2.3-1.3 2.9q-1.5 1.5-1.1-1.6c.2-3.3.2-3.2 1.4-3.2q1 .1 1 1.9m-155 3.8c0 4.8-1.5 5-2.2.3q-.2-2.5-2-2.2-1.6.2-1.8-.7.2-1 2.8-1.4l3-.6c.1 0 .2 2 .2 4.6m18-2.2q0 2.3-1 2.5c-1.1 0-1.4-3.3-.3-4.3 1.1-1.1 1.3-.8 1.3 1.8m33 3c0 3-.3 5.5-.7 5.5-.5 0-.6-2.5-.5-5.5.5-7.1 1.2-7.1 1.2 0m10-.5c0 2.2-.4 4-1 4s-1-1.8-1-4 .5-4 1-4 1 1.8 1 4m-70.2 5c-.1 3.8-.5 7-.9 7s-.9-2.3-.9-5c0-5.4-1.9-7-2.1-1.8s-.3 5.8-1.4 5.5q-.9-.3-.8-1.7l.5-4.5c.2-2.4 2.4-5 5.5-6.4zm63.9-2.3q-.5 1.3-.5-1.7c0-3 .2-2.7.5-1.8s.2 2.6 0 3.5m35.4 3.5c.1 8.7 0 9.5-1.1 7.8-.5-.8-.9-4.9-.9-9 .1-8.6 1.9-7.5 2 1.2m-95.1-1.5a13 13 0 0 1-1 5.3q-1 1.8-1-3.8c0-2.8.5-5.2 1-5.2s1 1.7 1 3.7m13.2-.5q-1.3 1.5-1.2-1.2c.1-2.7.3-2.1 1.2-1.2q1.3 1.2 0 2.4m73.3-2.2q.4.9-.4 1-1-.1-1.1-1 0-1 .4-1t1.1 1m-99.2 3.8c-.5 3.3-.7 3.4-4.2 2.7-5.7-1.1-5.8-1.7-.6-4.1a28 28 0 0 1 5.1-2.1c.1.1-.1 1.7-.3 3.5m64.7.7c0 1.9-.4 3.5-1 3.5-1.1 0-1.4-5.3-.3-6.3 1.1-1.2 1.3-.8 1.3 2.8m34.9 5.5c.1 3.3-.2 6-.6 6s-.9-2.9-1-6.5.2-6.3.6-6c.5.2.9 3.1 1 6.5m-58.9-5q-.1.9-1.1 1-.8-.1-.4-1 .6-1 1.1-1 .3 0 .4 1m46.4 4.2c.2 2.4-.1 5.2-.5 6.3q-.8 1.8-.8-4.9c-.1-7.5.9-8.5 1.3-1.4m4.6-.7c0 1.9-.4 3.5-1 3.5s-1-1.6-1-3.5.5-3.5 1-3.5 1 1.6 1 3.5m-32.4 1.2c-1.1 1.1-1.9-.6-1.1-2.4s.8-1.7 1.2 0c.3 1 .2 2.1-.1 2.4m36.4-.2c0 1.9-.2 3.5-.4 3.5s-.6-1.6-.8-3.5 0-3.5.4-3.5.8 1.6.8 3.5m-40 1.5q0 1.8-1 2-.9-.2-1-2c-.1-1.8.5-2 1-2q1 .2 1 2m-5 1.9c0 1.1-.4 2.3-1 2.6s-1-.5-1-1.9.5-2.6 1-2.6 1 .9 1 1.9m32.3-.4q.5 1.4-.3 2-1 .4-1-1.4.1-3.7 1.3-.6m8.3 4.2c-1.1 1.1-1.9-.6-1.1-2.4s.8-1.7 1.2 0c.3 1 .2 2.1-.1 2.4M7.7 839.2q-.5 1-.5-1.2c0-2.2.2-1.9.5-1.3.2.7.2 1.9 0 2.5m204.4 2.1q-1.2 1.3-1.1-1.4c0-3.3 1.4-4.7 1.8-1.9.2 1.2-.1 2.7-.7 3.3m5.9-3.8q0 1.4-1 1.5-.9-.1-1-1.5c-.1-1.4.5-1.5 1-1.5q1 .2 1 1.5m33.2 5.2c.5 6.7.3 8.2-.7 7.1-1.1-1.1-1.8-13.8-.8-13.8.6 0 1.3 3 1.5 6.7m17.3-5.7q.4.9-.4 1-1-.1-1.1-1 0-1 .4-1t1.1 1m16.5 1.1q0 .9-1 .4t-1-1.6q.1-.9 1-.4a2 2 0 0 1 1 1.6m-3.7 2.1c.6 4.6-2.4 8.8-6.4 8.8q-2.8 0-2.9-1.4l-.6-4.5q-.5-3 .4-3.1c.6 0 1.2 1.2 1.4 2.7.2 1.4.9 2.9 1.7 3.1 1 .3 1.2-.2.8-2.4l-.5-2.8 1.9 2.5 1.9 2.4v-4.3c0-5 1.6-5.6 2.3-1m-35.3 0q.1 2.7-1 .8-2-3 0-3 1 .2 1 2.2m-4.5-.3q.4.9-.5 1.6-.9.4-1-.9 0-2.7 1.5-.7m43.2 2.3q-.5 1.1-.6-.6t.5-1.3c.3.3.4 1.2.1 1.9M22 843q0 1.8-.4 2c-.4.2-.6-.9-.9-2q-.4-1.8.4-2c.8-.2.9.9.9 2m181 1.7q0 1.2-1 1.3c-.5 0-1-1.2-1-2.8q-.1-3 1-1.2a7 7 0 0 1 1 2.7m5-2.2q0 1.3-1 1.5-.8-.2-.4-1.5.7-1.3 1-1.5.3.2.4 1.5m15-.5q-.1.9-1.1 1-.8-.1-.4-1 .6-1 1.1-1 .3 0 .4 1m12.7 2.2q-.5 1-.5-1.2c0-2.2.2-1.9.5-1.3.2.7.2 1.9 0 2.5M269 843q0 1.8-1 2-.9-.2-1-2c-.1-1.8.5-2 1-2q1 .2 1 2m-71.3 3.7q-.5 1.4-.5-1.2t.5-1.8c.2.7.2 2.1 0 3m43-.5q-.5 1.1-.6-.6t.5-1.3c.3.3.4 1.2.1 1.9m19.3-.1q0 .9-1 .4c-.5-.3-1-1.1-1-1.6q.1-.9 1-.4a2 2 0 0 1 1 1.6m6 1q-.1.8-1.5.9-1.4-.1-1.5-2.1c0-1.8.2-1.9 1.5-.9q1.4 1.2 1.5 2.1m-38.3 2.1q-.5 1-.5-1.2c0-2.2.2-1.9.5-1.3.2.7.2 1.9 0 2.5m61.3 6 2.7 11q.5 1.9-1.5 1.8-1.9-.2-2.5-1.9c-.6-2.4-11.9-9.8-17.2-11.2-2.3-.7-7.6-.9-12.5-.6-8.3.6-8.4.5-5-1a46 46 0 0 1 21-1c1.9.6 5.9 2.8 8.8 5 3 2.1 5.6 3.6 5.9 3.4 1.1-1.2-1-4.4-4.8-7.2l-4-3 2.6-2.2c1.4-1.3 3-2.3 3.4-2.3a29 29 0 0 1 3.1 9.2m-262-5.6q0 1.3-1 .9c-.5-.3-1-1.3-1-2.1s.5-1.2 1-.9 1 1.3 1 2.1m229-1.6q0 .9-.4 1-.6-.1-1.1-1-.4-1 .4-1 1 0 1.1 1m-66.4 3.7c-1.1 1.1-1.9-.6-1.1-2.4s.8-1.7 1.2 0c.3 1 .2 2.1-.1 2.4m54.3-.7q1.1.2.9 1.2c-.4 1.2-5 3.1-18.8 8-3 1.1-5.6 2.4-5.8 2.9q-.4.8-1.5.9c-.7 0-4.6 1.3-8.7 2.9a89 89 0 0 1-20.4 6c-.2-.2-.5-3.1-.7-6.3q-.4-6 .9-6.3 1.2-.4 1.2 2.7c0 2.9.2 3.2 2.5 2.6q2.3-.5 2.5.4c0 2.1 2 .9 2.1-1.3q0-1.9.6-1c.9 2.3 3.3 1.4 3.3-1.3 0-1.4.4-2.3 1-1.9s1 1.5 1 2.6c0 1 .5 1.9 1 1.9s1-1.1 1-2.5.5-2.5 1-2.5q1 .2 1 2c0 2.2.1 2.3 2.3 1.4q1.3-.5.9-3.2c-.5-2.6-.4-2.6 1.5-1q3.6 3.2 3.2.5c-.1-.6-.1-2.1 0-3.2.2-1.8.3-1.8 1.2.3 1.4 3.7 3.4 2 3.7-3.1s2.2-6.6 2.2-1.8c0 1.6.7 3.4 1.6 4.1 1.3 1.1 1.6 1 2.1-.9s.7-1.9 1.7-.6 1.5 1.3 3.8.3c1.6-.8 2.8-2.1 2.8-3.2 0-1.8.1-1.8 1.8-.3q3.2 2.8 3.2-1.7c.1-2 .2-2 1.4-.4.7 1 1.9 1.8 2.5 1.8m-95.9 0q-.1.9-1.1 1-.8-.1-.4-1 .6-1 1.1-1 .3 0 .4 1m36.2 3.2q-1.3 1.5-1.2-1.2c.1-2.7.3-2.1 1.2-1.2q1.3 1.2 0 2.4m-119 .3c.3 1.3.1 2.2-.3 1.9-.9-.5-1.3-4.4-.5-4.4.2 0 .6 1.1.8 2.5m13.8 2q0 1.3-1 1.5-.8-.2-.4-1.5.7-1.3 1-1.5.3.2.4 1.5m-56.5.5q.4.9-.4 1-1-.1-1.1-1 0-1 .4-1t1.1 1m181.5 1.1q0 .8-1 .9-.9-.1-1-1.6.1-1.3 1-.9 1 .6 1 1.6m-37.3 2.1q-.5 1.1-.6-.6t.5-1.3c.3.3.4 1.2.1 1.9m-3.7.8q-.1.9-1.1 1-.8-.1-.4-1 .6-1 1.1-1 .3 0 .4 1m17.7 6.2q-.5 1.1-.6-.6t.5-1.3c.3.3.4 1.2.1 1.9m-36 2q-.5 1.1-.6-.6t.5-1.3c.3.3.4 1.2.1 1.9m-118 6q-.5 1.1-.6-.6t.5-1.3c.3.3.4 1.2.1 1.9m104.3-.8c0 .8-.4 1.8-1 2.1q-.9.4-1-1.4.1-2 1-2.1 1 .1 1 1.4m-4 0q0 .6-1 1.1-.9.4-1-.4.1-1 1-1.1 1 0 1 .4"/><path d="M341.9 362q-1.7.9.4 1.6c1 .4 2.3.2 2.8-.3 1.4-1.4-1.3-2.4-3.2-1.3m5.1 9c0 .5 1.2 1 2.6 1s2.3-.4 1.9-1-1.5-1-2.6-1q-1.7 0-1.9 1m-57.9-10c-2.5.3-4.6 1-4.8 1.7-.3.9 1.6 1.2 7.1 1 4.1-.1 7.8-.5 8.2-1q.6-.6.3-.7c-.3-.1-1.8-.3-3.4-.8-1.7-.4-5-.5-7.4-.2m16.5 2.9c-.7 1.1 2.2 2.3 3.5 1.5q.8-.6.4-1.5c-.8-1.2-3.2-1.2-3.9 0m-20.1 7.1c.3.5 2.4 1 4.6 1s3.9-.5 3.9-1-2.1-1-4.6-1c-2.7 0-4.3.4-3.9 1M231 355q-4.5 3 10.1 3 13.2 0 9-2.5a68 68 0 0 0-19.1-.5m4 9.6c0 1.4 7.9 2.4 8.7 1.1q1.5-2-4.7-2.1-3.8 0-4 1m-27.7 9.4q-5.6 2.4 3 2.3c6.7-.2 6.5-.1 4.3-1.8s-4.1-1.8-7.3-.5m24.7 1q.1.9 1.5 1c1.4.1 1.5-.5 1.5-1q-.1-1-1.5-1c-1.4 0-1.5.4-1.5 1m-104.3.7q-2 2 1.8 1.9c3.2-.1 4.3-2.6 1.1-2.6-1.2 0-2.6.3-2.9.7m5.3 2.4q.1.8 1 .4 1-.6 1-1.1 0-.4-1-.4-.9.1-1 1.1m8.5 2.9q-.4.9.4 1 1-.1 1.1-1 0-1-.4-1-.6 0-1.1 1m4.8 1.7c-2 .8-1.5 2.2.7 2q1.8-.2 2-1.4c0-1.4-.6-1.5-2.7-.6m-33.1 3.5c-1.8 12.6-1 18 1.9 12.6 1.6-2.9 2-12.1.5-13q-2.2-1.7-2.4.4m33.4 3.3q.7 1.4 1.6 1.5.9 0-.2-1.5-1.2-1.4-1.6-1.5-.3.1.2 1.5m-17.9.2q-.7.6-.7 1.7 0 .9 1.2-.2 1-1 .7-1.7-.6-.4-1.2.2m8.8.3q-.4.9.4 1 1-.1 1.1-1 0-1-.4-1-.6 0-1.1 1m-17 1q-.4.9 1 1c1.4.1 1.3-.5 1-1q-.6-1-1-1t-1 1m13.7 1.6c-1.3 1.4-.8 5.4.5 4 .5-.5 1.5-5.7 1-5.6zm10.8 2q.2 1.8-2.5 1-2.3-.5-2.5.4.1.9 1.5 1c1.4.1 1.5.9 1.5 1.9 0 2.6 1.8 3.7 2.6 1.6q.5-1.8 2-.4c1.5 1.4 1.4.8 1.4-.4q-.1-1.4-1.4-2t-.9-2.6-.6-2.1q-1 .1-1.1 1.6m-24.8 2.4q-1 1.9-.2 2t1 2.2q0 2.4 1.2 1c.6-.6 1.3-1.7 1.4-2.4l.5-2.7c.6-2.3-2.5-2.4-3.9-.1m15.8 2q.1.9 1.1 1 .8-.1.4-1-.6-1-1.1-1-.3 0-.4 1m17.2.1c-1.9.7-2.1 1.3-1.6 3.6.8 3.5 1 3.7 2.4 2.8q1-.8.5-2.3c-.3-.8 0-1.9.6-2.3 2-1.2.5-2.7-1.9-1.8m3.5 4.9c-.3 1.1-.1 2.3.4 2.6q.8.4.9-.5c0-.5.3-1.6.6-2.5q.5-1.5-.4-1.6-.9.2-1.5 2m40.3.5c0 1.2-.4 2.5-.9 3s-1.2 2-1.6 3.2q-.7 2.4.9 2.3 1.5-.1 1.6-2.1c0-1.1.4-2.8.9-3.8a3 3 0 0 0 0-3.2q-1-1.7-.9.6m-36.1-.3c-.5 1.7-.4 4.8.3 4.8q.7-.2.8-2.5c0-2-.7-3.4-1.1-2.3m-10.9 4.3q1.2 1.3 2.2 1.5.9-.1-.2-1.5c-1.1-1.4-1.7-1.5-2.2-1.5q-.9.1.2 1.5m17 0q0 1.4.4 1.5c.4.1.6-.7 1-1.5q.4-1.4-.4-1.5-1 .1-1 1.5m-10 .5q.1.9 1 1 1-.1 1-1t-1-1a1 1 0 0 0-1 1m5 1.2c-.7.7-2.7 3.5-4.5 6.3-3.1 4.5-3.2 5.1-1.8 6.2 2.2 1.7 3 1.6 3.7-.3q.7-1.7-1.4-.9-1.8.5-2-.3c0-1.5 3.1-2.5 7-2.3q3.8.2 2-.8a7 7 0 0 0-3.2-1.1q-1.7 0-1.1-1.7t1.1-.5c.7 2.3 1.8 1.2 2-2.3.3-3.8-.1-4.2-1.8-2.3m-28.3.5q-.6.6-.7 1.7 0 .9 1.2-.2 1-1 .7-1.7-.6-.4-1.2.2m-4.7 2.4q.1 1.8 1 1.4c.6-.3 1-1.3 1-2.1s-.4-1.4-1-1.4q-.9.1-1 2.1m24.5.2a9 9 0 0 0-1.5 3.4q0 1.2-1 1.3t-1 2.5c0 3.8 2.7 3 4.1-1.3.6-2 1.8-4.1 2.5-4.5q2.7-1.7-.1-3.1c-.8-.3-2.1.4-3 1.7m34.6-.7q0 1.7.6.6.4-1.2-.1-1.9-.6-.5-.5 1.3m-18.6 2.5q-1.4 2.5 1.9.3c1.7-1.2 1.7-1.4.4-1.4-.9 0-2 .5-2.3 1.1m-27.8 3.6q-1.6 1.6.8 2.7 1.5.6 1.5-1.4c0-2-1.1-2.6-2.3-1.3M178 420q.1.9 1 1 1-.1 1-1t-1-1a1 1 0 0 0-1 1m-81 3.4c0 .8.5 1.8 1 2.1q1 .4 1-1.4 0-2-1-2.1-.9.1-1 1.4m55.3 1.3q-1.2.6-1.3 2.1c0 1.5.2 1.5 1.7-.1q2.7-2.9-.4-2M181 427q.1.9 1 1 1-.1 1-1t-1-1a1 1 0 0 0-1 1m-25.5 1q.6.9 1.1 1 .3-.1.4-1-.1-1-1.1-1-.8 0-.4 1m-11.5 1c-.8 2.1-.9 7-.2 7 1.5 0 2-2.2 1.1-5q-.7-2.3-.9-2m-48.6 5.1q-.1.7 1.5 1.2c1.1.3 2.2-.1 2.5-.8.5-1.4-3.1-1.7-4-.4m53.2.5q-.5 1.5.6 1.2c1.5-.5 2.3-2.8 1-2.8q-1 .1-1.6 1.6m-13.3 2.9q-1.1 2.5-.1 3.1 2.2 1.3 1.6-3l-.3-2.6zm-23.8 3.5q.6.9 1.6 1 .8-.1.9-1-.1-1-1.6-1-1.3 0-.9 1m20.5 1.1q.1.8 1 .4 1-.6 1-1.1 0-.4-1-.4-.9.1-1 1.1m4.4 2.8c-1.2 1.1-2.5 1.7-2.8 1.4q-.5-.5-.6 1c-.1 1.5.7 1.7 1.5 1.7s1.5-.7 1.5-1.6q.1-1.3 1-.9.9.8.4 1.8-.8 1.3.5.1c.7-.7 1.1-2.2.9-3.4l-.3-2.1zm-1.4 13.4c0 .8-1 1.9-2.2 2.4-2.3 1.1-2.3 1.1.5 2.2 3.6 1.4 4.6.8 4.3-2.6-.3-2.8-2.6-4.6-2.6-2m-7.5 5.2c.4 1.1.7 2.8.7 3.7-.1 2.1 1.4 2.4 2.1.5.2-.7-.5-2.4-1.6-3.7q-2.3-3-1.2-.5m4.5 1.6q0 1.5.8 2.3c.4.4.7 1.3.7 1.9 0 1.6 3.7 1.5 4.2 0q.3-1.2-1.4-2c-1-.4-2.3-1.4-3-2.2-1.1-1.5-1.2-1.4-1.3 0m8.7.5c-.4.4-.7 1.7-.7 2.8.1 1.9.1 2 1.1.3 1.1-1.9.8-4.3-.4-3.1m-10.2 7.4q-.4.9.4 1 1-.1 1.1-1 0-1-.4-1-.6 0-1.1 1m3.7 2.1c-.7 1.1-1.1 2.4-.8 2.7 1 .9 2.8-1.5 2.4-3.2q-.1-2.1-1.6.5m-8.8 12.8q.1 1.7.8 1.5.7-.6.8-2c.1-1.4-.4-1.4-.8-1.4s-.8.9-.8 1.9m-5.4 4.6c-1.3 1.6-1.3 1.6 3 1.9q1.3.3 1.4 1.9-.1 1.5.7 1.7h1.6c1.8.1 1.1-5-.8-6q-2-1.1-1.9.1t-1.4 0c-1-.9-1.6-.8-2.6.4m-14 7.5q.1.9 1.1 1 .8-.1.4-1t-1.1-1q-.3 0-.4 1m14.4 7.4c-2.9 2.2-1.3 2.6 2.1.5q2.7-1.8 1.4-1.9c-.8 0-2.4.6-3.5 1.4m2.6 2q.1.4 1.6 1 1.3.5.9-.4c-.6-1-2.5-1.4-2.5-.6M180 385c0 .7 2.4 2 3.6 2s.1-1.9-1.6-2.3q-1.8-.5-2 .3m216.7 208.7q-.6.6-.7 1.7 0 .9 1.2-.2 1-1 .7-1.7-.6-.4-1.2.2M274 490.5c0 1.6 1.6 2 2.4.6q.4-.8-.9-1.5-1.4-.4-1.5.9m0 3.9c0 .8.5 1.8 1 2.1q1 .4 1-.9 0-1.8-1-2.1t-1 .9m0 53.6q.1 1 1.5 1c1.4 0 1.5-.2 1.5-.4s-.7-.6-1.5-1q-1.4-.4-1.5.4m.5 7.1q-.6 1-.2 1.6c.7.7 2.7-.6 2.7-1.8s-1.7-1.2-2.5.2M161.6 452.7l-1.1 2.8q-.3 1 2 1.1c2 .2 2.4-.2 2.1-2-.3-1.1-.5-2.4-.5-2.9-.2-1.4-1.9-.7-2.5 1m-80.5 96.9q0 1.7.6.6.4-1.2-.1-1.9-.5-.5-.5 1.3m12.6 4q-.4.6 0 2c.7 1.9 8.3 1.9 8.3 0 0-2.1-6.5-3.7-8.3-2m16.4 1.3q-1.5.9-.1 1.6c.6.4 1.6.3 2.2-.3 1.3-1.3-.4-2.3-2.1-1.3m-5.1 20.7q.1 1.3 1 .9 1-.7.5-1.6-1.4-2-1.5.7m.1 26q0 1.7.6.6.4-1.2-.1-1.9-.5-.5-.5 1.3m220.4-54.4c-2.7 2.6-5.2 4.5-5.6 4.2q-.7-.1-1.3 2c-.6 2.6-4.6 4.3-4.6 2q.2-1.3 1.7-1.4 1.4 0 1-.6c-1-1 1.2-4.4 2.8-4.4q1.3-.1 1.5-1.5c.2-1.4-.4-1.5-1-1.5q-.9.1-1 .8a21 21 0 0 1-4 5.2c-3.8 4.2-4.9 7.8-2.2 7.2 1.6-.3 1.5.2-.7 4.6-1 2-2.4 6-3 8.9-.7 2.8-1.9 5.4-2.6 5.7s-1.5 1.5-1.7 2.8q-.3 2.2-2.5 2.4c-1.1.1-4.3 2-7 4.3a20 20 0 0 1-6.7 4.1q-2-.1-1.3 2 .5 2-.9 2t-1.4 1q-.1.9-1.5 1c-1.4.1-1.2.6-.9 1.4s-.2 2.1-1.1 3c-1.3 1.2-2.1 1.4-3.7.5-3-1.6-3.2-.4-.3 2.7 2.7 2.9 1.8 4.7-1.1 2.3-1.3-1-1.7-1-2.4.1-1.1 1.8-1 8.1.1 7.4q.8-.6.9-2.5 0-3.5 2.6-.2c1.2 1.7 1.4 1.6 3.8-.6l2.6-2.4.1 2.9.3 4.6q.3 1.6 1.1 1.7 1-.2.7-1.5c-.2-.9.1-2.1.6-2.7 1.8-2.3 2.1-7.1.5-8.3-1.4-1-1.3-1.7 1.2-6.3q2.8-5.1 5.2-5.7 2.1-.7 2.3-1.6t1.4-.5q1.4.6 1-.7c-.3-.7.5-2.1 1.6-3.1 2-1.9 2.1-1.8 2.6.2q.7 2 3.5 2.7c2.7.5 4.3 3.6 1.9 3.6-1.3 0-1.3 2.7 0 3.5.5.3 2.2-.1 3.7-1q2.4-1.4 1.1-1.1c-2 .6-2.5-.9-.5-1.7.6-.2 1.8-2.2 2.6-4.3.7-2.2 1.9-4.6 2.6-5.4 1.4-1.7 3-6 3.4-9.1q.1-.8 1.1-.4t.8-1.7c-.1-2.2 3.5-12 5.5-14.5 1.3-1.8-.2-3.5-2.8-3.1q-4.8 1 3.1-5.2c5.2-4.1 6.6-4.7 5.8-2.6-1.1 2.7.5 1.7 2.1-1.4 2.3-4.4 1.9-5.1-2.2-4.8-2.9.2-5 1.4-8.8 5M319 565q0 1.8-.9 2c-.9.2-.7-.9-.4-2q.5-1.8.9-2 .4.2.4 2m-2 5.8q0 .9-.7 1.6c-.4.4-.9 1.9-1.1 3.4s-.7 3.1-1.3 3.6c-.5.6-.9 2-.9 3.3q0 2.3-1.5 1.7c-1.2-.5-1.2-.9 0-2.7a35 35 0 0 0 2.6-7c.6-2.6 1.5-4.7 2-4.7s.9.4.9.8m22.6-21.3q-.4 1.3.4 1.5 1-.2 1-1.5c0-1.3-.2-1.5-.4-1.5s-.6.7-1 1.5"/><path d="M329.7 558.7q-.6.6-.7 1.7 0 .9 1.2-.2 1-1 .7-1.7-.6-.4-1.2.2m-20.2 2.3q-.7 1-1.6.5c-.5-.4-.9.8-.9 2.4 0 1.7.5 3.1 1 3.1q1-.1 1-1.4c0-.7.7-1.9 1.5-2.6q1.4-1.2 1.5-2.1c0-1.2-1.7-1.1-2.5.1m20.5 3.5q-1 1.4-.8 2.6.4.8 1.6-1.5 2-4.4-.8-1.1M298.5 579q-.4.9.4 1 1-.1 1.1-1 0-1-.4-1t-1.1 1m-13.4 4.6q0 1.7.6.6.4-1.2-.1-1.9-.6-.5-.5 1.3m38.7-.9q1.3.4 1.9-.1t-1.3-.5q-1.7 0-.6.6m-35.2 2.2q-.4.9.8 1.4 1.4.4 2-.9c.6-1.5-1.9-2-2.8-.5m48 .5q.6 1.5 1.6 1.6c1.3 0 .5-2.3-1-2.8q-1.1-.3-.6 1.2m-55.2 1.7c-.3.6-1.5.9-2.5.6-2.4-.7-2.5 1.8-.1 3.2 1.6.9 1.6 1.1-.2 2.4q-2 1.4-.7 2.2c1.8 1.1 3.8-1.4 4.5-5.8q1-5.6-1-2.6"/><path d="M275 593.1q.1.8 1 .4t1-1.1q0-.4-1-.4-.9.1-1 1.1m45 .5q-.1 1.5-1.4 1.1c-1.7-.7-3.4 2.6-3.8 7.4-.3 3.2-.1 3.6 1.9 3.6q2.2-.1 2.3-1.4-.1-1.4-1.4-1-1.6.6-1-1.1l1-3.1q.3-1.6 1.9-.1c1.3 1 1.5.8 1.5-1.3 0-1.4.3-3.2.6-4.1q.4-1.5-.5-1.6c-.9-.1-1.1.7-1.1 1.6m-15.5 1.4q-.4.9.4 1 1-.1 1.1-1 0-1-.4-1t-1.1 1m-28.1 4q0 2 1 1t0-2-1 1m24.4 1c-.3 1.7-.1 3.3.4 3.6 1.3.8 1 11.2-.4 11.7q-1.5.5 0 1.5 1.1.9.6 2.7-.8 1.8.6 1.3c.7-.2 1.4-1.7 1.6-3.2.5-4.5 2.4-5.7 2.4-1.6 0 5.3 2.4 2 2.6-3.6.1-2.5.5-5.2.8-6q.4-1.3-.5-1.4c-.9-.1-1.6 1.3-2.2 3-1.5 4-3 3.8-2.2-.3 1.1-5.4 1.6-6.7 2.6-6.7q.8-.1.9-1-.1-1-1.5-1c-1.4 0-1.5.7-1.5 1.5s-.5 1.5-1.1 1.5q-.9-.2-.7-2.2c.2-1.1-.2-2.3-.8-2.5s-1.4 1-1.6 2.7m-8.8-1q.1.9 1 1 1-.1 1-1t-1-1a1 1 0 0 0-1 1m-.2 5.6c-.3 1.6-.9 3.7-1.3 4.6q-.8 1.9.9 1.8 1.5.2 1.5 1.2v3.2c.1 1.6.3 1.7 1.8.5q1.5-1.2 1-.2t.2 1.7c1.3.8 2.2-2.2 1.5-5q-.6-2.3.6-2.4c1.4 0 .4-3.6-1.8-6.5q-1.6-2.3-.9-.3c.8 2.3-.2 2.3-1.8.1-1.1-1.4-1.3-1.3-1.7 1.3m22.8 4.9q-.4 1.3.4 1.5 1-.2 1-1.5c0-1.3-.2-1.5-.4-1.5s-.6.7-1 1.5m-35.4 6.4q-1.7.9.3 1.5c2.3.9 2.5.8 2.5-.9q0-2.5-2.8-.6m-.1 4.8c-1.6 1.7-1.1 2.5.8 1.4q1.2-.9 1-1.9-.4-.9-1.8.5m4 .9q0 1.7.6.6.4-1.2-.1-1.9-.6-.5-.5 1.3m24.4-.2-1 3.1q-.4 1.3-1.2 1.3-.7-.2-1 .7 0 .9 1.3.7c1.7-.4 1.9 1.5.2 2.1q-1.1.5-.5 1.2c1.2 1.3 2.9-1 3.3-4.5.2-1.7.6-3.5.9-4q.4-.8-.5-1.5-1-.4-1.5.9m-19.1 3.3c-.4 1.6-1.1 3.3-1.6 4-1.1 1.4 0 3.9 1.2 2.6 1-1 2.4-9.3 1.6-9.3-.3 0-.9 1.2-1.2 2.7m-7.7 1c-1.1 1-.8 4.1.4 4.9q2 1.2 3.4-3.4.8-2.4-1.3-2.2c-1 0-2.2.3-2.5.7m13 3.8q-.5 1.4.3 2 1 .4 1-1.4-.1-3.7-1.3-.6m3 1.5q-.4 1.8.3 2c1.2 0 2.1-2.8 1.1-3.5q-.9-.2-1.4 1.5m-14 3.4q-.7 1.5 1.5.8 2.4-.7 1.5 1.1-.5 1.6.3 1.7c1.4 0 2.1-1.7 1.4-3.4-.8-2-4-2.1-4.7-.2m6.9 2.7c-1 1.7-1.6 3.2-1.3 3.5.9.9 3.6-.9 4.3-2.8 1.1-3.5-1.1-4-3-.7m6 2.8c-.4.5-.3 1.6 0 2.4.3.9-.3 2.4-1.3 3.5-3.9 4.1-2 5.8 2.3 1.9 2-1.9 2.3-2.9 1.8-5.5q-1.1-4.9-2.8-2.3m-27.3 3.3c.3.9-.2 2.7-1.1 4-2.1 2.7-2.8 8.3-1.3 9.3q1 .4 1.1-1.2.2-2.3 1.6-4.1c.8-1.2 1.2-2.7.8-3.3q-.5-1 .4-1.8 1-.6-.5-2.6-1.7-2.2-1-.3m15.2 6.8c-1 1.1-1.5 2.3-1.2 2.7 1.2 1.1 5.6-1.8 5-3.3q-.8-3-3.8.6m-21.9 1.5q.7 1.3 1.5.9c1.1-.6.2-2.4-1.1-2.4q-.8.2-.4 1.5m35.5 1.1q0 1.7.6.6.4-1.2-.1-1.9-.6-.5-.5 1.3m-23.8.9c-.8 2.2.6 3.3 1.7 1.5q1.9-3 0-3-1 .2-1.7 1.5m4.7 1.9q.1 1.5 1 1.6 1 0 1-.9t-1-1.6q-.9-.4-1 .9m-16 1.5q.1 1 1 1.6 1 .4 1-.9 0-1.5-1-1.6-.9 0-1 .9m21.7-.2c-1 .9-.9 2.3.2 2.3q.8-.2 1.5-1.5c.5-1.5-.5-2-1.7-.8m-10.7 1.9q.1 1.3 1 .9 1-.7.5-1.6-1.4-2-1.5.7m-9 2.4c0 .8.5 2.2 1 3q.9 1.8 2.2.2 1.3-1.2 0-2.4-1.1-1-1.2-.3-.1.8-1-.5-1.2-2-1 0m11.2 1.3q-3 3.5 0 3.7c.9 0 3.1-5 2.5-5.6-.2-.2-1.3.7-2.5 1.9m4.3.7q-.4.9.4 1 1-.1 1.1-1 0-1-.4-1t-1.1 1m7 2q-.4.9.9 1 1.5-.1 1.6-1 0-1-.9-1t-1.6 1m-16.8 1.5q-.5 1.4.3 2 1 .4 1-1.4-.1-3.7-1.3-.6m-4.2 3.5c-.4 1.7-.5 3.4-.2 3.6s.7-1 1.1-2.7c.8-4.2 0-5-.9-.9m13.5.6c-.6 1.4-.8 3-.4 3.5q.4.8-1.1.9-1.6 0-1.2 1.4t-.5 1.8-.4 1.6c.9 1.4 3.6.4 3.6-1.4q.1-1.2 1.3-.8c.7.2 1.9-.7 2.7-2.1 1.4-2.5 1.4-2.6 2.2-.6.4 1.2.5 2.9.2 3.9q-.9 2.2 1-.2c2.1-2.6 2.2-7.5.2-6.8-1.5.5-5.6-2-5-3q.4-.7-.6-.8c-1-.1-1.5 1.2-2 2.6m3 3.4q0 .9-1 1a1 1 0 0 1-1-1q.1-1 1-1t1 1m-12-3q.1.9 1.5 1c1.4.1 1.5-.5 1.5-1q-.1-1-1.5-1c-1.4 0-1.5.4-1.5 1m25 5.1c0 1.6.4 2.8.9 2.5.8-.5.3-5.6-.5-5.6-.2 0-.4 1.4-.4 3.1m-21 6.3q.1 1.5 1 1.6 1 0 1-.9t-1-1.6q-.9-.4-1 .9m4.9-.7c-.1.4 0 1.8.1 3.1.1 1.2-.2 2.2-.7 2.1-1.9-.3-3.3.2-3.3 1.2q.2 1 2 .6 2.3-.7 1.8 1.3-.2 1.8.7 2 1 0 1-.8t.9-2c.4-.7.3-1.9-.3-2.6s-.9-2-.5-2.9q.4-1.4-.5-2.2-1-.5-1.2.2m74 11.1a96 96 0 0 1-22.3 27 27 27 0 0 1-8.7 3.8c-2.2.4-3.9 1.2-3.9 2q-.1 3.3 5.8 1.2c7.4-2.6 18.2-12 25.3-22.2 7.8-11.1 7.9-11.4 6.5-12.5q-1.4-1.2-2.7.7m-73.9 3.1q.1 1 1 1.6 1 .5 1-.4a2 2 0 0 0-1-1.6q-.9-.5-1 .4m-3 5.3q.1 2.6 1 2.8c1.3 0 1.3-2 0-4q-1.1-1.9-1 1.2m43 1q-.1 2.7 1 .8 2-3 0-3-.9.2-1 2.2m-30 10.2q.1 1.5 1 1.6 1 0 1-.9t-1-1.6q-.9-.4-1 .9m-10.3 7.2q-.6.8-.7 2.3 0 1.6 1.1.4 1-1 .7-2.3-.4-1-1.1-.4m2.3 3.4q.1.9 1 1 1-.1 1-1t-1-1a1 1 0 0 0-1 1m16.7 7.7c-1 1-.8 4.5.2 3.9 1.1-.7 2.1-4.6 1.2-4.6q-.8 0-1.4.7m3.8 4.2q-.4.9.5 1.6.9.4 1-.9 0-2.7-1.5-.7m-16.8 5.3c.3 1.3 1 2.8 1.5 3.5q.8 1.2.4 2.1c-.3.5 1 2.5 2.9 4.5q5.6 6 4.1 2.1c-.3-.8.1-2.9 1-4.6q2.6-4.9-1.1-3.5c-1.7.7-2.1 2.7-.4 2.7q.8 0 .4 1c-.3.5-1.5 1-2.6 1q-2.3.1-1.4-2 .5-1.8-.4-2c-.5 0-1.5-1.6-2.1-3.5-1.3-3.8-3.1-4.9-2.3-1.3M237 663.9q.1 1 1 1.6 1 .4 1-.9 0-1.5-1-1.6-.9 0-1 .9m-14 9.9q.1.8 1.5.9c1.4.1 1.5-.4 1.5-.9q-.1-.7-1.5-.8c-1.4-.1-1.5.4-1.5.8m-7.5 2.2q.6.9 1.1 1 .3-.1.4-1-.1-1-1.1-1-.8 0-.4 1m3.1 4.6q-1.4 3.5.9 1.4c1.7-1.4 2-3 .6-3q-.9.1-1.5 1.6m8.2.1c.7.3 1.6.2 1.9-.1q.5-.5-1.3-.5-1.7 0-.6.6m-12.2 4q-1 2 .5.6 1.1-1.2.7-1.8-.6-.4-1.2 1.2m11.8 1.7c-.3.8-.1 2.3.5 3.3.8 1.5 1 1.3.9-1.5q-.1-5.2-1.4-1.8m11.2 1.1a9 9 0 0 0 2 2.5c.2 0-.2-1.1-.8-2.5s-1.5-2.5-2-2.5-.1 1.1.8 2.5M206 691q.1.9 1.1 1 .8-.1.4-1-.6-1-1.1-1-.3 0-.4 1m12 3q-1.3.9-1 1.1l2.2.4q1.7.3 1.1-1.1c-.6-1.6-.4-1.6-2.3-.4m-7.5 2.9q-.4.9.5 1.6.9.4 1-.9 0-2.7-1.5-.7m6.5 3q.1 1 1 1.6 1 .4 1-.9 0-1.5-1-1.6-.9 0-1 .9m3.6.6q-.5 1.4.9 1.5c1.4.1 1.2-.6.9-1.5q-.6-1.3-.9-1.5-.3.2-.9 1.5m186.5-3.5c-.7 1.6-.5 5.8.2 5.1.5-.5.7-1.9.4-3.2s-.5-2.2-.6-1.9m2.5 10.6c-.4.9-.4 1.9-.2 2.1.8.8 2.6-.8 2.6-2.3 0-1.9-1.6-1.8-2.4.2m-185.1 2.5c-1.1 1.7.1 2.1 1.5.4q1.2-1.4.2-1.5-1 .1-1.7 1.1m-1 5.8q1 1.6-.9.8-1.5-.6-1.1.2c1.1 1.9-.7 4.2-2.9 3.6-2.1-.6-2.1-.6-.1 1q1.9 1.5 2.3.5.4-.8 1.4-.4c.5.3.2 1.5-.9 2.7-1.7 2-1.7 2 0 1.4 1-.4 2.3-.7 2.8-.7s.7-1.1.3-2.5q-.6-2.4.5-2.5 1 .1.4 1.7-.7 1.7.5.9c1.9-1.1 1.4-4.1-1-6.2q-2-1.6-1.3-.5m5.5 5.1q.1.9 1.1 1 .8-.1.4-1-.6-1-1.1-1-.3 0-.4 1m4.1.4q-1.4 1.3.4 2.6c1.3 1.1 1.5.8 1.5-1.4 0-3-.3-3.2-1.9-1.2m-18.1 2.7q.1.8 1 .4t1-1.1q0-.4-1-.4-.9.1-1 1.1m9.6 3.7q-.3.8.4 2.2 1 1.7.7-.8 0-3.4-1.1-1.4m-7.9 2.9c-1 .9-.9 2.3.2 2.3q.8-.2 1.5-1.5c.5-1.5-.5-2-1.7-.8m17.9.9q-.9 2 .9.4 2.5-2 .6-2-.9.1-1.5 1.6m1.9 2.4q.7.9 1.6 1 .9-.1.4-1a2 2 0 0 0-1.6-1q-.9 0-.4 1m-18.3 2.1c-2.1.8-2.2 1.1-.9 2.3 1.7 1.7 5.7 1.7 5.7 0 0-2.1-2.4-3.2-4.8-2.3m10.8 14q.1.8 1 .4t1-1.1q0-.4-1-.4-.9.1-1 1.1M158.5 720q.6.9 1.1 1 .3-.1.4-1-.1-1-1.1-1-.8 0-.4 1m-5.5 6q.1.9 1 1 1-.1 1-1t-1-1a1 1 0 0 0-1 1m31.5 3q.6.9 1.6 1 .8-.1.9-1-.1-1-1.6-1-1.3 0-.9 1m-.5 13.9c0 .5.5 1.3 1 1.6q1 .5 1-.4a2 2 0 0 0-1-1.6q-.9-.5-1 .4m-54 29q.1 1 1 1.6 1 .4 1-.9 0-1.5-1-1.6-.9 0-1 .9m34.6 4.7c-.8 2.2-.8 2.4.7 2.4q1.2-.2 1.3-2c0-2.4-1.1-2.6-2-.4m-21 1.7c-.9 3.3-.7 3.7.9 3.1s2-3.9.6-4.8q-.8-.4-1.5 1.7m15.9-.3c-.4.6-.2 1.7.4 2.4q1 1.3 0 2.3-1.2 1 1.1 2.3 4.4 2.6 1.4-2.9c-1.4-2.8-1.4-3.5-.3-4.2q1.7-1-.3-.9c-.9 0-2 .5-2.3 1m-20.9.8q-.4.8.9.9c1.3.1 1.5-.4 1.5-.9q0-.7-.9-.8a2 2 0 0 0-1.5.8m11.9 4.2q-.4.9.9 1 1.5-.1 1.6-1 0-1-.9-1t-1.6 1m44.3 4.2q1.2 1.4 2.4 0 1.5-1.3-1.2-1.2c-2.7.1-2.1.3-1.2 1.2m-26.1.9c.6.6.9 1.8.6 2.7q-.6 1.5.5.8c1.6-.9 1-4.6-.7-4.6q-1.6 0-.4 1.1m5.3-.1q.1.8 1.5.4 1.4-.6 1.5-1-.1-.4-1.5-.4c-1.4 0-1.5.4-1.5 1m.5 3q.7.9 1.6 1 .9-.1.4-1a2 2 0 0 0-1.6-1q-.9 0-.4 1m13.5 2.1c0 1.8.2 1.9 1.5.9 1.5-1.2 1.2-3-.6-3-.5 0-.9 1-.9 2.1m22 1.4q.1 1.3 1.6 1.5 2 .2.4-1.5-1.2-1.3-1.6-1.5-.3.2-.4 1.5m-27.2 3.2c.7.3 1.6.2 1.9-.1q.5-.5-1.3-.5-1.7 0-.6.6M191 869q1 1.8 2.1 1.4 1-.6-.2-2c-1.7-2.1-3.1-1.7-1.9.6M0 349.6c0 1.5 5.6 2.4 15.3 2.4 6.9 0 7.8-.2 7.5-1.8-.3-1.5-1.7-1.7-11.6-1.8-8 0-11.2.3-11.2 1.2m53.7-.9c-6.4.3-8.7.7-8.4 1.6s4.8 1.1 17.8.9c17.4-.4 18.9-.5 18.9-2.3 0-.9-8.3-.9-28.3-.2m-29.2 1.4c-1 1.5-.8 1.6 7.7 2.2 7.6.7 10.9-.4 7.7-2.4-2-1.2-14.7-1.1-15.4.2M80 353q.1.9 1 1 1-.1 1-1t-1-1a1 1 0 0 0-1 1m-72.5 1c-1 1.7 1.3 3 5.5 3q3.8 0 2 1c-.8.5-4.5 1-8.2 1-7.4 0-9.1 1.4-3.1 2.4 5.7.9 27.3.7 27.3-.2q-.2-1-2.2-2c-1.9-.9-.7-1.1 6-1.1 4.8-.1 8.2.3 8.2.9s-1.5.9-3.2.8q-3.5-.4-3.3 1.2c0 1.3 2.6 1.5 18 1.3 9.9-.2 19.5-.5 21.3-.8 3.7-.7 3.4-2.5-.5-2.5-2.2 0-2.4-.2-1.2-1.6 2-2.5-.7-3.6-7.1-2.8l-7.5.6c-6.8.1-44.6-1.3-47.6-1.8q-3.6-.5-4.4.6m51.5 5.1c0 1.3-10.1 1.1-12-.2q-1.8-1.1 3-.5c2.5.3 5.2.1 6-.4 1.5-.9 3-.4 3 1.1m12-1.1q1.7 1-4.5.9c-4.8-.1-5.4-.3-3-.9 4.3-1.1 5.8-1.1 7.5 0m-64.2 8.6c-1.7 1.6-.6 2.6 2.4 2.2 1.7-.3 5 .1 7.3.7 4.7 1.5 13.8.8 13.2-.9-.2-.6-3.1-1.1-6.8-1.2-3.5-.1-8.4-.4-10.9-.9s-4.8-.3-5.2.1m57.7.5a81 81 0 0 1-12.2.1q-7.5-.5-7.3.6.4 1.5 2.6 1.8a87 87 0 0 0 23.6-1.4c1.4-1.4-1.2-1.9-6.7-1.1m-31.2 6.6q-1.2.4-1.3 1.5c-.1 1.1.7.7 1.6.4.8-.3 2.8.1 4.4.9 3.5 1.8 5 .3 1.8-1.9q-3.2-2.4-6.5-.9m-24.5 2q-1.6.4-1.8 1.3c0 1.2 4.9.7 5-.5q.3-1.7-3.2-.8m50.2.2c0 1.2 3.7 2.4 5 1.6 2-1.2 1-2.5-2-2.5-1.6 0-3 .4-3 .9m20 .1q.1.9 1 1 1-.1 1-1t-1-1a1 1 0 0 0-1 1m29 440.1q.1.8 1 .4t1-1.1q0-.4-1-.4-.9.1-1 1.1m326.8 0c-2.2 1.2-2.4 3.9-.3 3.9.8 0 2.3-.5 3.4-1.1 1-.7 3.2-.9 5.2-.5 4.2.8 16.8 6.7 21.2 9.9 6 4.5 10 5.8 18.7 6.3 7.5.4 9 .1 12.5-1.9 2.2-1.2 4.1-3 4.3-3.9.3-1.5-.1-1.4-3.5.3A23 23 0 0 1 485 831c-6.5 0-8.2-.4-13-3.2a138 138 0 0 0-21.3-10.9c-5.6-2.1-13.2-2.4-15.9-.8M61.2 824c-1.5 2.4-1.6 4-.2 4q1-.1 1-1.4a5 5 0 0 1 1.6-3q1.7-1.7.2-1.6c-.7 0-1.9.9-2.6 2m58.5-.5q-.5 1.4.3 2 1 .4 1-1.4-.1-3.7-1.3-.6M105 826q.1.9 1.1 1 .8-.1.4-1t-1.1-1q-.3 0-.4 1m-8.4 1.8q-.4 1 .5 1.7c1.5 1 2.5-.3 1.2-1.6q-1-1-1.7-.1m24 0c-.2.4 1.3.6 3.5.4 2.1-.2 3.9-.6 3.9-.8 0-.7-6.9-.4-7.4.4M105 831q.1.9 1 1 1-.1 1-1t-1-1a1 1 0 0 0-1 1m50 0q.1.9 1 1 1-.1 1-1t-1-1a1 1 0 0 0-1 1m-69 2.1q-1.7 1 1.1.3c1.5-.3 3-.1 3.3.5.9 1.5 2.3 1.4 2.9-.2s-5.2-2.1-7.3-.6m3.4 3.1c-1 1.6.4 2.2 2.8 1.1l2.2-1-2.2-.5c-1.2-.4-2.5-.2-2.8.4m50.1-.3q-.4.9.5 1.6.9.4 1-.9 0-2.7-1.5-.7m-8 4.8c-3.3.5-5.7 2.1-5 3.3.6 1 8.5-2 8.5-3.2q0-.7-.2-.7c-.2.1-1.6.4-3.3.6m-25.5 1.7c0 .8.5 1.8 1 2.1q1 .4 1-.9 0-1.8-1-2.1t-1 .9m-7.5 5.7c-1.1 1.7.1 2.1 1.5.4q1.1-1.4.2-1.5-1 .1-1.7 1.1m17.5 0q.1.8 1 .4t1-1.1q0-.4-1-.4-.9.1-1 1.1m5-.1q.1.9 1 1 1-.1 1-1t-1-1a1 1 0 0 0-1 1m-15.2 4.7c.7.3 1.6.2 1.9-.1q.5-.5-1.3-.5-1.7 0-.6.6m6.2 2.8q-1 1.4-.2 1.5.9-.2 1.6-1.5.5-1.3.2-1.5c-.3-.2-.9.7-1.6 1.5m104.7 19.2a36 36 0 0 1-7 2.3c-3.3.6-1.9.8 6.8.9 9.2.1 10.6-.1 8.9-1.2-1.2-.6-3-1.7-4-2.4-1.5-.9-2.5-.8-4.7.4m-47.9 3c.7.3 1.6.2 1.9-.1q.5-.5-1.3-.5-1.7 0-.6.6"/></svg>