<svg xmlns="http://www.w3.org/2000/svg" width="666.7" height="1170.7" viewBox="0 0 500 878"><path d="M209.4 27.2c-1 1.5.1 1.9 5.6 2 6.1.2 6.4.5 11.5 12.9 2.6 6.3 3.2 8.5 2.2 9.1-.6.4-4.7.8-8.9.8-4.8 0-7.8.4-7.8 1.1 0 1.3 76.4.6 76.8-.7.1-.5-1.8-1-4.3-1.2-3.7-.3-4.6-.7-5-2.5-.7-2.9-.9-9.1-.7-15l.2-4.7 7.6.1c7.4.1 9.5-.4 8-1.9-1.1-1-84.6-1.1-85.2 0m50 2.6c.3.5.8 5.4 1.2 11l.7 10.1-2.8.7c-3.3.8-18.5-.2-19.7-1.4-.9-.9 1.1-7.9 4.3-14.7 2.2-4.5 2.8-5.1 6.4-5.6q9.2-1.4 9.9-.1m14 .8c.3.9.6 5.8.6 10.9v9.3l-3.5.4c-1.9.2-4-.1-4.5-.6a47 47 0 0 1 .2-20.4c1.7-1.7 6.5-1.5 7.2.4m-33.4.8c0 2.2-5.1 15.6-5.9 15.6-1.2 0-7.3-14.8-6.6-15.9.3-.6 3.3-1.1 6.6-1.1 4.5 0 5.9.3 5.9 1.4M263.4 185c-2.1 1.1-4.4 2-5 2-1.5 0-6.4 5.7-6.4 7.5 0 .7-1.1 3.8-2.5 6.8s-3.1 8.8-3.8 12.9c-1.1 6.9-1.3 7.3-3.9 7.3-1.4 0-2.9.3-3.3.7s-1.4.4-2.2.1-2.1.3-2.9 1.6c-.8 1.1-2.3 2.1-3.3 2.1-1.4 0-2 1-2.4 4.2a13 13 0 0 0 .5 6.2c.9 1.6.7 2.3-1.1 3.4-2 1.4-2 1.6-.5 3.3 1.4 1.6 1.3 2.1-2 7.1l-9.1 12.7c-3 4.1-5.5 8-5.5 8.8q-.1 1.2-1 1.3c-1.9 0-9.4-4.2-14.6-8.1a47 47 0 0 0-8.4-5.1c-3.2-1.1-3.5-1-6.6 2.6a28 28 0 0 0-4.3 6.7c-.9 2.7-.8 3 4.2 6.2l9 5.6q7.3 4.5-.5 3c-6-1.3-15.2-2.9-16-2.9-1.3 0-.9-4.3 1.7-17a126 126 0 0 0 2.5-16.3c0-3 .7-4.8 3-7.4 3.4-3.9 3.7-6.8 1.4-13.6-2.1-6.1-5.6-8.7-11.5-8.3-10.2.6-15.5 9.5-11.4 19.2 1.4 3.4 1.3 3.8-2.6 11.9-5.2 10.9-8.9 21.9-7.9 23.5 1.2 1.9 2.7.4 3.3-3.4a107 107 0 0 1 10.5-24.8c1.5-1.5 2.3-1.5 6.7-.4 4.9 1.3 5 1.4 4.7 4.7-.4 3.4-3.1 16.1-5.3 25.2l-1.3 4.8-4.5-.7c-2.5-.3-6.2-1-8.1-1.4-4.6-1.1-21.9-7.7-24.5-9.4-2.8-1.8-7.3-2.8-9.5-2.1-3.2 1-6.5 14.1-3.8 14.9l11.6 3.6c7.4 2.2 10.2 3.5 10.2 4.7 0 .9-.7 5.2-1.6 9.6-1.3 6.2-1.4 8.8-.6 11.5.9 2.9.7 5.1-1.5 13.1l-12.8 47.6a2586 2586 0 0 1-17 68 1051 1051 0 0 0-7.1 28.5l-3 12.3c-.3 1-2.4 3-4.7 4.4a49 49 0 0 0-8.4 7.2l-4.2 4.6.6 6.5a44 44 0 0 0 1.5 8.8c1 3 3.4 2.3 3-.9L81 505c0-1.4-.5-3.8-1.1-5.3-1.1-2.7-.9-3.1 4.1-8.2 6.9-7 8.1-6.4 4.8 2.4-.7 1.9-1.1 2.1-2.3 1.1-.8-.6-1.9-.9-2.5-.5-1.5.9-1.2 12.8.4 16 1.8 3.4 1 6.7-1 4q-1.2-1.5-2.3-1.1c-.6.4-4 6.6-7.7 13.9s-9.5 18.5-13 24.9c-8.2 15-8.4 19.8-.8 19.8 3.4 0 7.6-3.8 8.9-8q.6-1.8 1.4-2c.9 0-3.2 18.2-5.2 23-2.8 6.6-2.9 10.4-.6 13.4 2.4 3 4.4 2.8 9.4-.9 2.9-2.1 5.9-9 7.9-17.8.6-2.5.9-2.7 4.6-2.1 3 .5 4.4.2 6.5-1.4 1.4-1.1 3.3-1.8 4.3-1.6 1.2.3 9.8-7.6 29.2-27.1a416 416 0 0 1 28.9-27.5c.7 0 3 1 5 2.2 6 3.8 15.9 2.9 28.1-2.5 1.4-.6 3.2-1.7 4-2.3 3-2.5 6.7-2.7 8.2-.5 2 2.8 8.5 7.1 10.8 7.1 1 0 3.2-1.1 4.8-2.5a14 14 0 0 1 3.7-2.5c1.1 0 9.5-9 9.5-10.2q0-1 .6-.5c.3.3 2.3-.3 4.2-1.4s4.4-1.9 5.4-1.9 2-.5 2.3-1q.7-1 1.5-.5c.8.5 8.2-2.2 9-3.4q.7-.7 2.5-1.5 1.7-.6 1.2 0c-.4.4.1 1.3 1 1.9 1.5 1.1 1.5 1.5.4 2.9q-2 2 1 .7 2.4-.9 2.1-2.7l-.5-2.9c-.3-1.5 9.2-5.7 13.9-6.3l4.2-.4 1.1 6.8c.8 4.4 1 10.1.5 16.3a269 269 0 0 0-.7 16.6c0 5.6-.3 7.3-1.8 8.6q-1.7 1.5-1.2 2.3.4.5-1.1.6c-1.6 0-1.6.1-.1 1.6.9.9 1.3 2.4 1 3.2s0 1.9.7 2.4q1.2.8-1.3.3c-2-.5-2.7-.2-3.1 1.3s-.1 1.8 1.7 1.4c1.9-.3 2.2.1 2.2 2.5-.1 1.5.1 3.5.4 4.3q.5 1.5-1.9 1.3-2.3-.3-1.6.8.5 1.1-.7 1.9c-1 .7-1 1.1 0 2.4.7.9 1.1 2.5.8 3.6s-.1 2.3.4 2.6q.8.3.9-1.3a6 6 0 0 1 .8-3c.4-.7.8 1.7.8 5.2-.1 3.6-.4 6.5-.8 6.5-.3 0-1.3.2-2 .5q-1.3.6-1.5-1.7-.3-2.5.7-.8c1.2 2 2.3.6 1.5-1.9a3 3 0 0 0-2.8-2.2q-1.9 0-.9-.6c1.8-.7 1.4-3.3-.5-3.3-1.4 0-1.8.9-2 4.2-.1 2.4.5 4.7 1.3 5.5q1.2 1.4.8 2.5-.9 1.4 5.2-.9 1-.2 1.1 1.2 0 1.3-.9 1.5c-.9.2-.8 1-.6 2.2q.4 2.1 1.7 2t.8 1.2q-.5 1.5.4 2.1.8.8.8 1.8c-.1.7.3 2.5.9 4 1.7 3.9 1.4 5.7-.3 2.7q-1.3-2.2-1.5-1.2c0 1.9 3 6.2 4.4 6.2q1 .2 1.2 2c0 1.9-.1 1.9-2.3-.2l-2.3-2.2.2 2.7q.3 4.2 5.3 3.3 1.9-.3 2.5.5.6.5 2.5-.8 2-1.5.8-2-1-.5-.6-1.9.6-1.5-1.3-.7-2.4 1-.4-.9 1.4-1.5 2.3-1.1.6.2.7-1.5c0-1.1-.9-2.2-2-2.5q-1.8-.4-2 .3.1.8 1.5 1.2 1.9.2-.6 1.6c-1.9 1.2-2.1 1.2-1.6-.1.3-.8 0-2-.6-2.6q-1.2-1.2-.2-1.9c1.2-.8 1.5-5.3.3-4.6q-.7.3-.8-.5-.1-1-.8-1.1-.8.1-.9 1.5c-.1 1.4.4 1.5.9 1.5q.7.1.8 1.4c0 1.4-2.9 3-3.8 2.1q-.4-.5.3-.5.5-.1-.6-1.7-1.6-1.7-.1-2 1-.5.6-1.4t.6-.9c1-.1.8-.5.5-1.1q-.8-1-2-.5t-.8-1.5c.6-2.2 2.3-2.6 2.3-.5 0 1.8 1.6 2.9 3 2.1q1-.7 0-2.4a41 41 0 0 1-1.6-8.7l-.7-6.9 2.1 2.6c1.3 1.5 1.9 3.4 1.6 4.6-1.3 5 8.4 29.2 14 34.8 4 3.9 4.2 4.7 2.2 6.4-1.1.9-1.8.8-3.2-.6q-1.7-1.7-2.6-1.9l-1.9-.3q-.9-.1-.4-1.1.6-.8 1.8-.6 1 .2.5-.1-.7-.5-.2-1.8.4-1.2-.5-2-1-.4-1.1 1.2c-.1 1.6-.2 1.6-1.3.3-2-2.5-4.7-2.1-4.7.7q0 2.3 1 1.8 1-.7.5-1.6-.5-.8.4-.9c1.7 0 2 1.4.7 3.2-1.5 2-12.3 2.6-26.4 1.5a45 45 0 0 1-23.9-9.3 13 13 0 0 0-4.2-2.4q-1-.1-1.1-1.1 0-.8-1.2-.3-1 .6-.5-.3c.4-.6-.5-2.1-1.9-3.4q-2.6-2.5-1.8-.6.4 1.6-.5 1.7-1.2 0-1.1-1.1 0-.9-1-.4c-.5.3-.7 1.2-.4 1.9q.3 1.2-1.2 2c-2.3.9-3 0-1.4-1.8 1-1.3.9-1.8-.3-3-1.3-1.3-1.6-1.3-2-.2-.3.8-.3 2.4 0 3.7q.8 2.5-1 1.6-1.6-.6-1.7.2c0 1.2 5.6 1.9 7.3.9q1.5-.8 2.1.7.4 1.3-.4 1.5-1 0-1 1 .1.9 1.8 1 2 0 .4.9c-1.1.6-1 1.1.3 2.4.9.9 1.4 2.1 1.1 2.6q-.4.9 1 1.5 1.8.7 1-.9-.4-1.3.4-1.5c1.1 0 1.2.2 1.4 4.8.3 4.3 2.9 7 5.1 5.2.8-.7 1.7-1.1 1.8-.9l2.1 3.2c1.7 2.8 1.7 2.9-.3 2.2q-2.3-.8-1.5.9c.5 1.3-.3 1.6-5.2 1.6-3.3-.1-7-.7-8.4-1.5l-2.5-1.5 2.9.6c2.7.6 2.8.6 1.5-1.7-.7-1.3-1.3-2.6-1.2-2.9s-.9-.7-2.1-.8q-2.4-.2-3.4 2.3c-.6 1.4-1.6 2.5-2.2 2.5q-1.1 0 0-1.9 2.3-4.3-1-3.4c-1.1.3-2 1.4-2 2.4 0 2.6-.7 2.4-4.7-1.1-1.8-1.7-3.8-3-4.3-3s-1.2-.9-1.5-2.1a7 7 0 0 0-3.1-3.1c-1.4-.7-3.2-2.7-4.1-4.5q-1.6-3.3-2.9-2.9c-1.9.7-5.9-5-7.4-10.7-1.1-4.2-1.1-5 .3-6.4 1.3-1.3 1.9-1.4 3.1-.3q1.5 1.1 1.7.9c1.2-5.4-.2-8-3-5.5q-2.8 2.6-2.2-.7 0-.6-1.5-.7c-1.5-.1-1.2.5-.8 1.2q.7 1-.5.4-1-.7-.6-1.6.4-.7-.3-1.2a26 26 0 0 1-3.6-5.6c-1.5-3-2.1-5-1.4-4.6s2.2.9 3.3.9 2.5.4 3 .7c1.6 1 3.9-.8 3-2.2q-.8-1-2.1-.6t-1.4-.5q.1-.9 1.4-1.5c.8-.3 1.9-1.8 2.4-3.3 1-2.8.9-2.8-2.8-2.6-2 .1-4.3.6-5 1s-2.4.9-3.7 1.1q-2.6.4-1.9-1.2t-1.7-1q-1.9.4-.9 0 1-.6.8-1.3-.4-.7.6-2.1 1.2-2 .5.2c-.6 1.8 1.3 3 3.1 1.9q1.2-.6-1.3-4.3c-3.1-4.6-3.1-4.8 0-4.8q2.7.2 2.5-2.2c0-2.1 0-2.1-1.6-.2q-2.1 2.9-.5-.2c1.1-2.2-.1-5.4-1.3-3.5q-.6 1-.1 2.1.4.9-.9.4-1.5-.6-1.6-1.5c-.1-.9-.6-.9-1.4-.9q-1.4 0-2.2-1.2-.7-1 .9-.5 1.7.7 1-1c-.5-1.3-.3-1.4 1.5-.4 1.2.7 2.2.8 2.2.4s1.6 1 3.6 3.2c2.1 2.2 3.2 4.1 2.5 4.3q-1 .4-.5 1.3t-.3.8q-3.2-.6-2.9 1.8c.2.9.8 1.9 1.4 2.1q1.1.2.6-1.2-.6-1.6.9-1.6c1.5 0 1.3.7 1 2q-.4 1.8.5 2c1.3 0 3.3-2.5 2.5-3.3-.3-.4-.8-2.6-1-4.9-.4-4.1-.4-4.2 1.2-2.3q1.4 1.7 1 .7-.9-1.5 2.4.2c1.7.9 3.1 1.9 3.1 2.2q-.2.4-1.2-.1t.6.9c1 .8 2.4 1.3 2.9.9q1-.6.4 1.1c-.4 1-.7 2.4-.7 3.2q0 1.4-1 .9c-.5-.3-1.7.3-2.7 1.4-.9 1.1-2.1 1.7-2.6 1.4q-.9-.5-.3.6.7 1.4 2.8-.6c1.8-1.6 2-1.6 2.9-.1q1 1.6 2.5 1.1 1.3-.4 1.3.3c-.4 2.5.3 4.4 1.7 4.4q1.7.1.8-2.2-1-3 1-.6c1.7 1.8 2.2 5.3.6 4.3q-.9-.5-1 .4-.2 1-1.7 1.4-1.6.4 1 .6c1.6.1 2.6.5 2.2 1.1q-.7.9-1.7.4t-.4.4c.9 1.5 4.3 1.5 4.8.1q.5-1.2 2.1.5c1.9 1.9 2.2 3.6.7 3.6q-.9.2-1 2c-.1 1.8.5 2 1.1 2q1-.2.6-1.4c-1.1-2.7 3.7-.1 5.1 2.7.7 1.5 1.8 2.7 2.5 2.7 1.6 0 7.4 5.5 8.2 7.7s14 8.7 16.1 7.9c2.4-.9 1.2-3.8-2.1-4.9-3.5-1.1-6.5-3.5-6.4-5.1q0-1 .5.1c.8 1.9 5.4-.6 5.4-2.9q0-1.8-.9-1.3t-1.6-.5q-.7-1.1-1.9.5c-1 1.5-1.4 1.5-4.1.1a13 13 0 0 0-4.7-1.6c-.9 0-3.5-2.1-5.8-4.7-4-4.5-4.1-4.8-2.1-5.7q3.4-1.3 1-4.6-1.3-2-.6.2c.8 2.4-2.2 3.2-4.4 1.2s-2.5-5-.6-5.8q.9-.5-.9-.1c-1.6.4-2.9-.5-5.8-4.1-2-2.6-3.6-5.4-3.6-6.3q.2-4.3 4.1-3.9 2.7.1 2.2 2.8 0 2.1.3 1.3c.4-1 1.2-.9 3.5.2q3 1.6 2.7.4-.1-1.2 2.2-2c2.6-.7 2.6-.8-.2-1.4q-1.7-.2-1.8.4-.2.9-1.6.8-2.2.2.2-1.4c1.5-1.1 1.6-1.5.5-2.6-1.1-.9-1.4-.9-1.8 0q-.6 1.2-1.4 1.3-1 0-.5-.9c.4-.5.2-2-.2-3.3a9 9 0 0 1-.3-4.6l.6-2.3 2.9 3c1.7 1.7 2.4 3.1 1.7 3.1q-1.4-.1.1 1.4c.7.8 1.7 1.1 2.2.8q.8-.3.3 1.1c-.8 2 .4 2.2 2.2.4q1.6-1.5.8.5-.4 1.7.3 2.3 1 .7 1 1.6-.2.9-1.2.3-1.3-.8.1.9c1.9 2.4 2.3 1.7 2.7-4.9.4-5.5.3-5.7-3.9-9.6a51 51 0 0 0-11.1-7.3c-3.9-1.8-6.4-3.5-5.7-3.9q1-.8 1.1-1.7-.1-.9-1-.4-.9.3-1-1.5-.2-2.5 1.8-1.6 1.3.4-1.2-1.9-4.7-4-3-1.4c.4.6 1 2.7 1.4 4.5.7 2.9.5 3.4-1 3.4q-1.9.2-1.2-2.5c.6-3.1-.5-5.8-1.9-4.9q-1.2.6.2 1.5 1.7.7-.6 2.6-3.7 3.3-8.8 1.4c-1.9-.7-2.8-.6-3.7.4-.6.8-.9 1.9-.6 2.4a18 18 0 0 0 8.3 4.1q1.4 0 1.1 2.2-.2 2.1.7 2.3c1.6 0 3.5 1.5 3.5 2.8q0 1-1.1-.3-1.3-2-.6 0c.5 2.1 4.4 2.5 4.4.5q0-1.3-.9-1.5c-.9-.2-.6-.5-.3-1q.7-1 1.6-.5.8.4.9-.9 0-3.3 5.5.5 2.6 2 1.3 1.6c-.9-.3-1.9.1-2.2.9q-.4 1.3.3.9c1-.5 2.2 2.3 2.6 6 .2 1.7-.4 2.1-2.8 2.3-1.7.2-3.5.8-3.9 1.5q-.8 1.3-.8-.6.1-1.5 1.3-1.7 1-.1-.7-1.5c-1-.7-1.6-1.8-1.3-2.2q.3-.8-1.9-1.1c-2.5-.2-3.3 1.3-1.1 2.1q1 .5-.5.6-1.7 0-1.8-.8-.2-1-1.7-1.4a430 430 0 0 1-18.5-7q-2.6-1.1-1.5-1.9 1-.7.4-1.4c-.3-.4-1.3-.1-2.2.6q-1.4 1-1.5.3c0-1.4-8.4-.3-9.7 1.4-1.5 1.9-4.9.3-5.8-2.8-.6-1.6.3-3.1 3.6-6.5 3.6-3.7 4-4.4 2.5-5q-3-1.2-12.9 11.3a20 20 0 0 1-5.3 5.3c-1.5 0-5.1 4.1-6.3 7.2a8 8 0 0 1-4.3 4.1 33 33 0 0 0-12.6 12.4c-2.5 7-4 13.3-3.6 15 .3 1.1-.4 4.7-1.5 8.1a44 44 0 0 0-2.2 10.4c0 2.4-1 7.2-2.2 10.8-2.2 6.4-2.2 6.5-6 6.6q-3.9.2-4.8-1.7c-.5-1.1-2.7-2.8-4.8-3.9-3.3-1.6-4.3-1.7-7.1-.7s-3.3 1-4.3-.4c-3.1-4.1-11.6-5.1-21.7-2.4-4.1 1-6.3 2.4-8.8 5.2-1.9 2.1-3.9 3.9-4.5 3.9l-3.4.3c-1.2 0-3.8 1.5-5.8 3.2l-3.5 3.1v-2.8q0-4 4.6-20c1.6-5.9 1.8-8.4.4-8.4-2.4 0-6.7 12.5-8.9 26-.8 5.3-1.7 7-3.7 7-1.7 0-1.9-2.1-.2-3.8q1.3-1-.2-2.7c-1.7-2.1-4.1-1.9-4.7.4-.9 3.3-8.3 8.5-12.3 8.6-4.3.1-10 3.8-10 6.6 0 2.4.5 2.4 3.9 0 1.5-1.1 4.5-2.1 6.7-2.3l3.9-.3.5 8c.4 4.4.4 9.6.2 11.5l-.4 3.5-7.4-.3-7.4-.4v8.9l7.1.7q10.6 1.1 8.5-2.3c-.4-.6-1.8-1.1-3.2-1.1-1.3 0-2.4-.5-2.4-1.1q.1-.8 1.1-.4c.5.4 1.9-.1 3-1.1 1.8-1.6 1.9-1.6 1.9.3 0 4.6 7.3 6.3 17.1 4a83 83 0 0 1 15.4-2.8l7.5.1c3 0 9.5-.5 14.4-1.1 10.3-1.3 16.6-.1 16.6 3.3 0 1.7-.5 1.9-3 1.3q-3-.6-3 .4-.2 1-1.5 1.1c-2 0-2 3.9 0 4.6 2.3.9.7 2.5-2 1.8-1.2-.3-2.6-.1-3 .6-1 1.6 1.4 4 4.1 4 1.2 0 2.6.5 3 1.1q.8 1.2-3.4.4c-4.4-.7-6.2.6-4.2 3q1.7 1.7-.9 1.5c-3.5 0-2.8 3.9.9 4.7q5.5 1 .5 3.1-4.4 2-.9 4c1.5.8 1.3 1.7-1.1 8.8-3.3 9.5-6.7 16.4-7.2 14.6q-.5-1.2-6.6-1.2c-3.4 0-9.6-.5-13.8-1.1-6.5-1-8.3-1-12.4.4s-5.1 1.5-6.4.4a52 52 0 0 0-18.6-5.5c-5.3-.6-6-1-6.3-3.1s-.1-2.3 2-1.7c1.2.4 4.6 1.4 7.5 2.1a45 45 0 0 1 6.5 2.1c.7.5 9.2 1 18.8 1.1l24.4.5c7.4.3 9-.7 6-3.6a4 4 0 0 0-3.8-1c-1.1.4-2.8.7-3.6.7-4.2-.4-30.2-1.2-34.6-1.2q-5 0-6.4-1.6c-.7-.8-2.7-1.5-4.4-1.5-2.7-.1-6.2-1.1-11.8-3.5-1.6-.6-1.8 0-1.8 7.1v7.9l5-.3c6.1-.5 14.5 2.2 17.7 5.6l2.4 2.5 5.6-2.3c5.3-2.2 6.1-2.3 12.5-1.2 3.8.7 9.3 1.2 12.2 1.2 7.3 0 8.9.6 7.5 3.2-.8 1.5-.7 2.4.4 3.6 2 2.4 1.1 4.5-1.2 3-1.6-1-2.9-.1-9.2 6.1-14.2 13.8-10.5 12.3-29.1 12.1-23.5-.2-23.8-.2-23.8 1.5s4.8 1.9 24.8 1.5c5-.1 9.2.2 9.2.7s-1.1 2-2.4 3.2c-2.2 2.1-3 2.2-17 1.9-13.3-.3-14.6-.1-14.6 1.4s1.5 1.8 13.3 2l13.2.3.3 2.6q.3 2.7-2.8 7.1c-3.7 5.3-4.9 11.1-2.8 13.6.8.9 1.8 2.5 2.1 3.4 1 2.8 13.8 2.5 22.1-.6 6.7-2.4 10.6-5.2 22.8-16.1 11.8-10.7 12.2-10.8 34.8-11.1 55.8-.6 214-.8 214.6-.2.3.4-1.1 1.5-3.2 2.5a9 9 0 0 0-5.1 5.3c-1 3.2-1 3.7 1 5.4s3.4 1.8 15.2 1.3q12.9-.6 16.8-2.1c3.3-1.4 3.7-2 3.7-5.2 0-1.9.7-4.8 1.5-6.4l1.5-2.9h14.8c20.5 0 108.9-1.3 113.2-1.6 1.9-.2 7.9-.3 13.3-.4 8.2-.1 9.7-.3 9.7-1.7 0-1.7-15.9-1.7-122.8.1-23 .4-26.3.3-26.9-1q-.4-1.5-.1-2.1c.6-.5 20.4-.9 95.8-2l52.3-.8c1.6 0 1.7-1.6 1.6-20.1q0-19.9-.9-17.7c-.9 2-1.2 2.1-3.2 1.1-3.5-1.8-5.4-5.5-2.3-4.3q1.5.6 2.5-2.1 1-2.6 2.5-2.1c1.2.4 1.4-1.6 1.3-13.2-.1-7.5-.3-12.1-.5-10.2-.3 2.9-1.1 3.9-4.4 5.8a14 14 0 0 0-5.3 5.3c-1.2 2.9-1.3 2.8-2.9-4.8-2.1-9.6-2.1-9 .3-8.9q1.7 0 2-.9-.2-1-1.7-1c-2.4 0-3.3-1.4-3.3-5.4v-3.3l2.9 3.1q5 5.3 9.3 1.4c1.7-1.5 2-1.5 2.8-.3.6 1 1-4.5 1-14.9 0-13.1-.3-16.1-1.3-15.3-1.6 1.4-9.9.3-9.4-1.2.3-.6 2.5-1 5.6-.9l5.1.2-.1-15.7c-.1-8.6-.4-14.6-.8-13.2-.7 2.5-.7 2.5-1.3.2-.7-2.5-3.5-3-4-.6q-.2 1.6-4.2 1.9c-3.4.2-3.9-.1-4.8-2.6-1.2-3.4-4.2-3.9-5.8-1q-1 2 0 4.6c1.1 2.9.3 7.8-1.1 6.9q-.8-.5-.4-1.4c1.3-2.2-5.6-4.4-9-2.8-1.8.8-2.8.7-4.6-.6-2.9-2-4.9-2-7.5-.2-1.7 1.3-1.7 1.8-.6 3.6q2.2 3.8-1.3 2.7-1.4-.8-1.5-3.1 0-4-4.5-4.1c-1.8 0-2-.7-2-5.5v-5.5l6 .1q21.8.3 30 .1 6-.2 5.8 1c-.1.6.4 1.7 1.2 2.3 1.2 1 1.6.8 2.4-1.3s1.5-2.5 4.5-2.2l3.6.3-.2-8.1c-.1-4.8-.3-6.4-.5-3.9s-1.2 5.1-2.5 6.4c-2 2-2.4 2-11.8.4-1.4-.2-2.9 0-3.5.4-.5.4-2.9 1.1-5.1 1.5-3.6.5-4.2.4-4.7-1.4q-.6-2-1.7-2.1-1.1.1-.7 2c.5 1.8 0 2-3.8 2q-4.1 0-5.5-1.5-1.3-1.7-2.4-.5c-1.5 1.5-6.2 1.2-7.6-.5q-1.3-1.8-2.6-.4c-1.2 1-1.4-.3-1.4-7.4 0-8.3.1-8.7 3.3-12a71 71 0 0 1 17.4-13.7q3-1.2 9.4-.1a106 106 0 0 0 14.6 1.1h8.2l.4 5.7c.3 5.4.3 5.3.5-1.7l.2-7.5-10.7-.2c-5.9-.1-12.8-.7-15.4-1.3-4.5-1.1-4.7-1.3-5.2-5.3-.3-2.2-.4-4.5-.1-4.9.7-1.1 6.5.3 9.4 2.2 3.4 2.4 6 3.1 13.1 3.5 5.1.4 6 .2 5.7-1.2q-.4-1.5-1.8-2.3l-3.7-1.8c-1.3-.7-3.6-1.2-5.3-1.2s-3-.4-3-1c0-1.6 3.4-2.8 6.1-2.3 1.5.3 3.6 0 4.8-.7 1.9-1 2-1.3.7-3.1-1.9-2.7-6.5-5.2-9.4-5-2.9.1-8.2-3.7-7.5-5.5q.4-1.4-2.1-2.3c-3.3-1.3-7.4-7.9-7.8-12.6-.2-2.1-.8-4-1.5-4.2-1.6-.5-3.6 6.1-2.9 9.5.5 2.2 1 28.7.7 36.9q0 2.2-7.7 8.3a48 48 0 0 1-8.8 6c-1.2 0-1.2-8-.2-94l.6-50.8c0-4.7.3-5.4 2.5-6.2 2.7-1 2.9-2.2 2.5-16.8-.1-5.4.2-7.2 1.2-7.2 4.5-.2 21-1.9 21.5-2.3.2-.3.1-3.6-.2-7.4l-.7-6.9-12.7.4-12.7.4-2.4-19.4a215 215 0 0 0-3.6-23.2c-1.3-3.6-1.3-4 1.2-6.9 2.1-2.6 2.4-3.6 1.9-7.1-.9-5.2-4.1-10.5-7-11.6-2.5-.9-10.3 1-14 3.4a12 12 0 0 0-3.5 4.6c-1.2 2.9-1.1 3.6 1 7.5 2.3 4.2 2.3 4.5 1.1 14.3-.7 5.5-1.4 12.2-1.6 14.9-.9 13.8-1.9 23.4-2.5 23.8-.4.2-7 .5-14.8.6q-14 .3-14.3 1.3c-.6 4.9.5 12.3 1.9 13.3q1.6 1.3 13.9 1.3H419v3.9c0 2.1.3 5.9.6 8.5q.7 4.6-.5 4.6c-.6 0-1.1-1.7-1.1-4 0-5.6-1.7-6.2-16.3-5.8-6.7.1-12.7-.1-13.4-.5q-1.1-.8-.6-4a245 245 0 0 0-4.8-38.6c-1-2.7-.8-3.5 1.5-6.2 3.9-4.5 4.3-7.6 1.8-12a19 19 0 0 1-2.2-4.8 52 52 0 0 1 13-9.1c1 0 6.7 6.7 10.2 11.9q2.8 4 4.9 4.1c2.7 0 9.9-7.1 9.9-9.8 0-2.1-7.1-12.3-10.8-15.6-1.2-1.1-2.2-2.5-2.2-3.3s3-4.1 6.6-7.6c3.7-3.4 8.6-9 11.1-12.5 2.5-3.4 5.1-6.2 5.9-6.2 2.4 0 8.3-6.8 9-10.4.8-4.3-1.1-10.1-3.9-12.1-5.6-3.9-17.9-.4-19.2 5.4-.7 3.2-4.3 6-16.9 12.8-7.5 4-8 4.2-10.7 2.8l-2.8-1.5 5.2-7.6c2.9-4.2 5.9-8.9 6.7-10.5s2.2-3.1 3.1-3.4 2.8-1.8 4.3-3.4c2.2-2.3 2.7-3.8 2.9-8.4.2-6.5-1.2-8.6-7.8-11.1-4-1.6-4.6-1.6-7.4-.2-3.3 1.8-8.1 7.5-8.1 9.8 0 .8-.3 1.8-.7 2.2-.8.8-7.3-5.3-7.3-6.9 0-.6 1.4-2.4 3.1-4.1 4.1-3.7 14.4-19.3 15.9-23.9q1.2-3.4 5.3-6.3c5.2-3.5 6.9-6.6 6.3-11.6a13 13 0 0 0-7-10.4c-3.4-1.7-8.6-.2-11.8 3.5a365 365 0 0 1-23.7 23.2l-11.2 10.3-5.2-4.9c-9.2-8.8-11.6-9.1-18.2-2.3l-3.9 4 1.9 3.5c1 2 4.4 5.7 7.4 8.3 3.1 2.5 5.9 5.1 6.3 5.6.7 1-.8 3.9-6.1 12l-4.1 6.5c-.8 1.5-2.6 3.8-3.8 5.1l-10.9 12.7c-4.7 5.7-9 10-9.5 9.7-1.2-.8-.6-13.7.7-14.6a7 7 0 0 1 3.3-.8c2.2 0 3.1-2.3 1.2-3.5s-1-2.5 1.4-1.9c2.9.7 4.2-.9 2.1-2.6-1.9-1.6-2-3.1-.1-2.4 2.1.8 2.8-1.2 1.1-2.9-2-2.1-1.9-2.7.4-2.7 2.7 0 3.7-2.1 1.8-3.5q-1.4-1.2-.8-2.1c1.5-1.5 2.4-7.4 1.2-7.4-1.6 0-8.1-4.3-8.1-5.4 0-.5-.6-1.7-1.4-2.5-2.1-2.3-2.1-13.8 0-25.8.4-1.8.3-4.9 0-6.8-1.9-10-17.9-18.3-38.7-19.9-5.4-.4-7.4-.1-10.5 1.4m7.9 2.8c.9 1 2.8 1.9 4.4 2 3.8.3 5 1.8 2.2 2.7-1.3.4-2.6 1.1-2.9 1.6s-3 .6-5.9.2q-4.9-.6-4-1.4c1-.6 1-1.1 0-2.3-1.1-1.3-1.1-1.9-.1-3.1 1.7-2 4.3-1.9 6.3.3m25.8 4.8q1.6 1.6 1.3 2.8c-.5 1.4 3.6 3.6 6.7 3.6s5.5 6.5 3.8 9.9c-.8 1.4-1.4 3.5-1.4 4.6q0 1.8-1 2.2c-.6.2-1-2.6-1-6.9 0-6.7-1.3-9.6-3-6.9-1 1.8-2 1.3-5.2-2.7-5.1-6.3-5.2-11.2-.2-6.6m106.6 3.6c2.7 2.6 2.9 5.5.6 10.3q-2.6 5.6-8.6 2.4c-3-1.6-3.7-2.8-3.7-7 0-7.1 6.7-10.4 11.7-5.7m-11.8 15.5 3.4 3.2-3.7 7.2c-5 9.7-12.5 19.8-15.4 20.6-1.7.4-3.8-.6-8.5-4.2-9.6-7.4-9.5-7.1-4-12.8 2.7-2.7 8.9-8.5 13.8-12.9 7.9-7 9.1-7.7 10-6.1.6 1 2.5 3.2 4.4 5m-50.6 8.4c1.2.7 5.6 4.4 9.7 8.3s12.6 11.5 18.8 16.9a65 65 0 0 1 11.2 11.5c0 1-1.4 2.5-3.2 3.5-3.1 1.8-3.2 1.8-5.2-.6a75 75 0 0 0-9.1-7.8c-3.8-2.9-9.8-7.5-13.1-10.3l-11.8-9.4c-3.1-2.4-5.6-5.1-5.6-6 0-1.4 4.6-7.2 5.8-7.2zm-166.7 4.3c4.5 4.5 4.9 10.3 1.1 14.3q-3.5 4-10.2.8c-8.5-4.1-6.8-18.5 2.2-18.5 2.7 0 4.3.8 6.9 3.4m132.1-1.2q-.5 1.1-.6-.6t.5-1.3q.5.7.1 1.9M267 234.4c0 1.1-1.9 1.5-2.5.6q-.4-.9.9-1 1.5 0 1.6.4m137.2 12.3c5.9 5.6 1.9 16.3-5.5 14.8q-6-1.2-7.2-6.8c-.6-2.3-.1-3.3 3.3-6.7 2.2-2.2 4.6-4 5.3-4s2.6 1.2 4.1 2.7m-50.5 3.5c2.7 2.4 6.2 5.3 7.8 6.5q2.8 2.3 2 3c-.6.5-1.6 2-2.2 3.4-1.3 2.9-6.7 4.7-8.9 2.8-1.4-1.2-3.4-.4-3.4 1.3 0 .7 1 2.2 2.2 3.5 1.7 1.9 1.8 2.3.6 2.3-1.8 0-11.7-8.1-13.1-10.6-1.6-2.9.8-3.6 3.3-.9 1.3 1.4 2.7 2.5 3.2 2.5 1.5 0 .8-2.6-1.2-5-1.1-1.3-2-2.9-2-3.7 0-1.8 4.8-9.3 6-9.3.5 0 3.1 1.9 5.7 4.2m-90.1 3.7c-1 1.6-3.6 1.3-3.6-.3s2.1-2.7 3.4-1.6q.6.9.2 1.9m31.4.8q8.4 3.7 9.3 10.3l.9 5q.2 1.4-1.9 1.8-2.2.4-3.8-2.7c-1.5-2.9-1.9-3.1-7.5-3.1-5.2 0-6 .2-6 1.9 0 1 .8 2.2 1.7 2.5q1.8.6.5 1.8c-1.8 1.8-1.5 3.1 1.9 6.9l3 3.4 1.9-2.5c1.1-1.4 2.2-3.3 2.6-4.3.7-2.3 3.4-2.2 3.4.3 0 1.1 1.2 4.9 2.7 8.5q4.2 10-.7 6.7c-2.4-1.5-7.7-1.6-8.5-.1-.4.6.4 2.2 1.6 3.6l2.4 2.6-2.5-.7c-8.5-2.5-11.3-2.8-12.1-1.5-1.5 2.4-1.1 5.2.6 4.5.9-.3 3.4.6 5.5 2 3.5 2.4 4 3.1 4 6.6 0 2.2-.5 4.8-1 5.9-1.1 1.9-1.1 1.9-4.8-.1-3.9-2.2-6.1-3.4-10.4-6.3-1.4-.9-3.3-1.7-4.2-1.7s-2.8-1.1-4.2-2.5-2.9-2.5-3.4-2.5c-1.5 0-1.1 4.3.5 6.4s2 4 .8 3.3c-.5-.3-.9 5-1.1 11.6-.5 18.1-.3 17-3.9 18-2.5.7-5.6.3-13.5-1.8a57 57 0 0 1-11.6-3.8c-2.4-1.9-1.2-18.3 1.6-23.2l4.4-8.5c1.1-2.5 2.4-4.7 2.8-5s1.2-1.5 1.9-2.8 2-2.2 3-2.2 2.1-.3 2.5-.7a4 4 0 0 1 2.4-.8q1.5-.1 1.7-1.4c0-1.4-1-2.1-5.6-3.9-3.6-1.4-5.1-5.9-3.4-9.8l1.3-2.9.1 2.8c.1 3.2 5.4 9.2 7.2 8.1 1.1-.6.9-3.2-.6-6.7-1.1-2.7 1.6-2.1 4 .9 1.8 2.2 2.6 2.5 5.3 1.9 1.8-.3 3.7-1.5 4.3-2.6.9-1.8 1.2-1.8 3.1-.4s2.4 1.3 4-.2c1-.9 1.8-2.6 1.8-3.8 0-1.3 1.1-3 2.6-4 2.7-1.7 2.7-1.8 1.2-9.9-.2-1 .6-2.3 1.7-3 1.1-.6 2.6-1.9 3.3-2.9q1.2-1.5 2-1.4zm-68.5 6.2c-1.3 7.5-.3 18.6 2 21.1 3.3 3.6.8 3.3-6.2-.9l-8.3-4.9c-1.2-.8-1.2-1.5.5-5.2a59 59 0 0 1 4.7-8.1c1.6-2.2 2.8-4.3 2.8-4.8 0-1.2 2.1-1.9 3.8-1.3q1.5.3.7 4.1M254 258q0 1.8-1 2-.9-.2-1-2c-.1-1.8.5-2 1-2q1 .2 1 2m-5 3c0 1.4-1.4 1.2-2.8-.2-1.9-1.9-1.4-3 .8-1.8q1.8 1 2 2m17.5 0q1.4-.1 2-1a2 2 0 0 1 1.6-1c.6 0 .1 1.3-1.1 3-1.7 2.4-2.5 2.8-3.9 2-2.5-1.3-3.5-4.1-1.9-5.1q1.3-.7 1.6.6.5 1.4 1.7 1.5m9.1 1.6c-.2 3.7-3.2 7.2-4.8 5.6-.7-.7 3.8-9.2 4.7-9.2zm-30.8 2.4q-.4 1.4-1.8 1.5c-1.7 0-2.5-2.8-1.5-5.3.6-1.5.8-1.5 2.1.3a6 6 0 0 1 1.2 3.5m146-1.9c3.7 2.7 4 3.2 3.1 5.6a59 59 0 0 1-10.2 14.3c-.4 0-2.1-1.6-3.8-3.5s-3.7-3.5-4.3-3.5c-.7 0-3.8 1.8-6.9 4.1a23 23 0 0 1-5.7 3.4c0-1.1 15.9-19.2 18.7-21.5 3.4-2.6 4.2-2.6 9.1 1.1m-156.3-1.2c.3.5 0 1.3-.5 1.6s-1.5 1.8-2.1 3.2c-1 2.7-2.9 2.3-2.9-.7 0-3.2 4.1-6.3 5.5-4.1m26.9 3.2c-.8 1.3-2.4.1-2.4-1.8q-.1-1.9 1.5-.3 1.3 1.2.9 2.1m-69.4 2.4c2.5 1.8 8.6 5.4 13.5 8 5 2.7 10.1 5.6 11.5 6.6s6.2 3.5 10.7 5.8c6.1 3.1 8.1 4.5 7.6 5.7-.3.9.6 2.7 2.2 4.4 2.6 2.7 2.7 3.2 1.5 5.5-1.6 3.1-2.5 3.1-7 .3l-9-5.1c-3-1.7-7.1-4.3-9.1-5.8a104 104 0 0 0-11-7c-11.9-6.8-23.9-14.8-23.9-16 0-.6.9-2.4 2.1-4 2.5-3.5 4.1-3.3 10.9 1.6m63-3.2c0 1.7-2 3.7-3.7 3.7-1.9 0-1.6-2 .5-3.6q3.2-2.5 3.2-.1m114.8-.1c2.2 2.2 1.2 4.2-5.6 11.6-6.5 7-6.8 7.2-10.4 6.6-2.1-.4-3.8-1.2-3.8-1.9s2.5-3.1 5.5-5.4 6.7-6 8-8.1c2.6-4.1 4.2-4.9 6.3-2.8m-31.2 3.3c.4.8 0 2.4-.7 3.4a2254 2254 0 0 1-46.5 54.1l-46.8 54.2a552 552 0 0 1-22.8 25.5 9111 9111 0 0 1-66.3 72.7l-7.7 9.1-8.3 9.8c-1.4 1.5-2.5 3.4-2.5 4.2q-.1 1.4-1.4 1.5c-.8 0-4.8 3.9-8.9 8.7L112 527.9c-5.6 6.6-7 7.7-6.4 5.5.8-3.3 3.6-7 17.9-23.4l23.9-27.5c7.6-8.8 14.6-16.7 15.5-17.5 1.4-1.3 10.2-11.1 28.6-31.9l17.6-19.7 19.2-21.9 15.2-18a542 542 0 0 1 30.1-34c3.4-3.3 6.7-7.1 7.4-8.5 2-3.8 8.3-11 9.6-11 2 0 6.4-4.8 6.4-7s1.3-3.9 14.9-20.5c17.6-21.4 22.3-26.5 24.2-26.5q1.9.2 2.5 1.5M127.8 271c3.3 1.6 7.4 3.2 8.9 3.6s6.8 1.9 11.6 3.5c8.7 2.9 36.7 8.9 41.2 8.9 3.4 0 4 1.8 1.6 4.4-1.2 1.2-2.1 2.7-2.1 3.4 0 2-1.7 2.2-6.1.6-2.4-.9-9.8-2.7-16.4-4s-14-3.1-16.5-4l-18-5.2c-13.1-3.6-13.5-3.8-13.8-6.6-.5-3.9.6-7.6 2.1-7.6.8 0 4.1 1.3 7.5 3m308.3.9c3.5 3.5 3.6 4.8.6 9.2-4.2 6.3-11.9 4.4-13.6-3.3-1.3-5.7 1-8.1 8.2-8.7 1 0 3.2 1.2 4.8 2.8M259 271q0 .9-.4 1-.5-.1-1.1-1-.4-1 .4-1 1 0 1.1 1m11 .6q0 1.4-1.2 1.2c-1.8-.6-2.1-2.8-.4-2.8q1.5.1 1.6 1.6m75 2.9 2.4 2.5-2.1 2.1c-2.1 2.2-9.9 3.3-11 1.6-.5-.8 6.4-8.7 7.7-8.7.4 0 1.7 1.1 3 2.5m-100-.3c0 .7-.5 2-1 2.8-.8 1.3-1.1 1.3-2.6-.2-.9-.9-1.3-2.1-1-2.7 1-1.5 4.6-1.4 4.6.1m21.8 1.2q.5 1.9-1.4 1.4t-2.2-2.2q-.5-1.9 1.4-1.4t2.2 2.2m26.2-.3q0 .9-1 .4t-1-1.6q.1-.9 1-.4a2 2 0 0 1 1 1.6m-57 3.3c-1.5 1.5-3.2-.7-2.4-2.9.7-1.7.8-1.7 2.1.1q1.3 1.8.3 2.8m143.5 7.1a29 29 0 0 0 4.5 5.5c1 0 8.7 10.2 12 15.7a137 137 0 0 0 15.3 19.1c8.2 9.2 8.3 9.6 4.4 12.1l-3.2 2.1-3-3.7c-1.6-2.1-5.7-6.7-9.1-10.3s-8.7-9.9-11.9-14-9.2-11.2-13.2-15.8c-4-4.5-7.3-9.1-7.3-10.1 0-1.9 4.5-6 6.6-6.1.6 0 2.9 2.5 4.9 5.5m40.1-3.3c.4 1.3 2 3.5 3.6 5l2.9 2.7-2.8 3.8a63 63 0 0 1-13.8 15.2l-4.3 3.1-2.4-3-5.5-6.8c-1.8-2-3.3-4.4-3.3-5.3 0-2.1 4.6-6.2 10-8.9 2.5-1.2 5.3-2.9 6.3-3.8 2.2-1.9 5.9-4 7.4-4.1.6-.1 1.5.9 1.9 2.1m-181.1 4.6c-.5 1.4-.7 1.4-2.2-.1s-1.5-1.8.3-3.8l1.9-2.1.3 2.2c.2 1.2.1 2.9-.3 3.8m6.8-2.8c.6 2.5-.9 3.6-2.8 2q-1.6-1.2-.4-3.1 1.9-3.4 3.2 1.1m110.3 2.5c1.8.4 4 .2 5.3-.4q2.3-1.4 1.5.2c-.2.7.7 2.4 2.1 3.7s2.5 2.7 2.5 3c0 .8-26.1.3-34.7-.6-2.9-.3-5.3-1-5.3-1.5s.9-2.2 2-3.7l2-2.7 10.8.6c5.9.4 12.1 1 13.8 1.4M151 290.7c16.2 4.3 15.3 3.3 12 12.6a39 39 0 0 0-2 7.1c0 3.3-2.6 3.9-11.1 2.5-8-1.3-12.1-3-10.6-4.5.4-.5 2.1-.3 3.7.3 2.3.9 3.2.8 4-.3q2.7-3.3-4.6-3.4c-4 0-4.4-.2-4.4-2.5 0-2.1 1.1-7.8 2.6-13.3q.4-1.4 2.6-.6zm52-1.7c.5 0 3.2 2 6.1 4.5a28 28 0 0 0 6.3 4.5c.6 0 2.1.8 3.4 1.8l2.3 1.8-5.2 7.7a78 78 0 0 1-5.5 7.7 150 150 0 0 0-15.2-8.9c-2.3-1.2-4-2.6-3.7-3.1s2.4.1 4.5 1.5c4.6 2.9 5.6 3 6.3 1.1.7-1.7-.5-2.8-5.1-4.6-5.1-2-6.4-3.7-5.1-6.3 1.9-3.7 7.3-8.8 8.7-8.2q1.3.5 2.2.5m41.7 3c.4 2.1-1.3 4.4-2.6 3.6-.6-.4-1.1-1.8-1.1-3.2q0-2.7 1.7-2.2t2 1.8m80.2 5.6 2.2 3.6-4.8 5.7a1018 1018 0 0 1-30.7 34.1c-1.6 1.9-7.2 8.2-12.6 14a539 539 0 0 0-18.8 20.8c-1 .9-5.9 6.2-10.8 11.7a1603 1603 0 0 1-47.5 51l-21.4 23-18.7 20c-3.3 3.7-11.8 9.5-11.8 8 0-1.2 19.3-23 42-47.4l16.9-18.6c1.8-2.2 6.1-6.9 9.6-10.5 6.2-6.6 11.8-12.8 21.2-23.5 11.4-13.1 23.9-27.4 30.3-34.5 3.7-4.1 9.1-10.4 12.1-14l15.9-18.5c5.9-6.6 13.7-15.7 17.4-20.3 3.7-4.5 6.9-8.2 7.1-8.2a15 15 0 0 1 2.4 3.6m-145.7.3c3.7 1.1 7.2 2.2 7.7 2.5 1.4.9 0 3.9-13.7 30.3a3664 3664 0 0 0-29.8 57.5c-3.5 7.1-5.9 9.8-4.4 5.1l5.4-17.8L153 347l6.7-22.5c1.5-5 3-9.5 3.3-10a87 87 0 0 0 3.4-9.8c3.1-9.9 2.7-9.7 12.8-6.8m174.8-.3c6.9.8 13.9 1.6 15.5 1.6 3 .1 5.5 1.4 5.5 2.9 0 .5-3 .7-6.7.6-6.3-.2-6.8 0-6.9 2-.1 1.1-2 3.8-4.3 5.9s-4.1 4.4-4.1 5.1c0 2.4-2.8 2.6-9.8.8-7.6-2-9.4-3.1-7.3-4.5q1.6-.7 4.2.6c4 2 4.9-.2 1.3-3.1l-2.9-2.3 3.3-3c1.7-1.6 3.2-3.2 3.2-3.5a30 30 0 0 0-10.9-2.4c-1.3.1-2.6-.4-2.8-1.1q-.7-2.6 22.7.4m-16 5.1a31 31 0 0 1-4 4.9c-2.2 2.4-4 4.9-4 5.6 0 1.4-15.2 18.7-17.7 20.1-1.5.9-5.3-1.7-5.3-3.6 0-.9 11.1-14.1 13.1-15.7.4-.3 2.7-3 5.3-6 2.8-3.3 5.8-5.7 7.4-6.1 2.7-.5 5.2-.1 5.2.8m30.8 4.5c.8.8 0 2.1-3.4 5.1-3.6 3.1-4.5 4.5-4.2 6.7.2 2.4-1.1 3.9-9.6 11.1a497 497 0 0 1-28 22.9c-2.4 0 1.5-4.7 15.2-17.9l17.2-16.6 6-6.9c4.8-6 5-6.2 6.8-4.4m15.4 5.7c1.2 2 3.9 5.5 6.1 7.8l4.1 4.3-2.3 2.4a22 22 0 0 1-5.8 4.1c-4.1 2-5 1.4-8.9-5.3-1.5-2.6-3.8-6-5.1-7.5-3.6-4.4-3-7.1 1.9-10.1 4-2.3 4.4-2.4 6-.9 1 .9 2.8 3.3 4 5.2M234 309.4q1.2 1.5.2 3.2c-.9 1.6-1 1.5-1.7-.5q-1.5-5.2-4.7 4.4c-3.2 9.6-2.1 14.2.2 17 2 2.4 2.9.8 1.9-3.7-.6-2.3-.7-5.5-.3-7.2s.7-3.6.6-4.2.4-1.6 1.1-2.2c1.1-1 1.4.3 1.4 7.1.1 13.1.1 13.3 2.8 15.1a74 74 0 0 0 24.7 6.2q4.8-1.1 1.1 2.6c-1.9 2.1-7.6 2.4-13.3.7a14 14 0 0 0-7.6-.2c-3.4.7-3.8 1.2-3.9 3.8 0 4.2-2.8 4.3-6.4.3-1.7-1.8-3.1-3.8-3.1-4.5 0-.6-1.3-2.2-2.8-3.5-4.2-3.5-4.2-3.8-2.6-12.4l4-22.2c.5-1.7 6.9-1.5 8.4.2m-40.4 1.9 2.7 2.4-4 7.4-10.5 18.9-32.6 58.5c-8.4 15-12.9 23.4-34.9 65.5-9.8 18.7-12.5 23-14.4 23q-1.7-.1-1.9-1c0-1.2 33.8-68.8 47-94l19-36.5c16.1-31.3 24.5-46.5 25.7-46.5.7 0 2.4 1.1 3.9 2.3m25.8 3.9a9 9 0 0 0-.6 2.8c0 .3-1.1 2-2.5 3.8-1.8 2.4-2.4 4.2-2.1 6.3.5 3.3-.7 4-1.7.9q-.7-1.8-1.6-2t-.7-2.8c.3-2.3.7-2.7 3.1-2.5q2.7.1 2.5-1c-.2-1.7 3.1-9.1 3.8-8.4.3.3.3 1.6-.2 2.9m-76 .1c1.7 1.2 1.4 2.6-3.9 23.2a722 722 0 0 1-7.7 28.5c-1.8 5.9-3.7 12.9-7.3 26.5l-7.9 28.5-9.3 33c-2.6 9.7-8.4 23.3-10.4 24.6q-1 .6-.6-1.2l5.2-19.9 7.6-29 10.4-41a1652 1652 0 0 1 12.5-48l4.1-16c1.2-4.4 2.2-8.6 2.5-9.3.4-1.6 2.5-1.5 4.8.1m296.5 2.3c2.8 3.5 2.9 9.9.2 11.4a9.5 9.5 0 0 1-11.2-1.9c-1.6-1.6-2.9-3.6-2.9-4.3 0-2.4 2.6-5 6.1-6.3 5-1.8 5.6-1.8 7.8 1.1m-236.9-.1c1.7.9 3 1.8 3 2.2 0 .7-11 19.3-22 37.3l-6.6 11.5c-14 24.6-26.1 45.9-32.1 56l-7.6 13-5.3 9.5c-11 19.4-13.9 24.1-18 28.6l-4.4 4.9 6.3-12.5a633 633 0 0 1 21.7-40.3c0-.4 2.1-4.4 4.6-8.9 4.8-8.5 6.6-11.7 13.6-24.8 15-27.8 43.1-78 43.6-78zm168.9 6.8c1.7 3.5 4.2 7.6 5.5 9q3.6 4.1-.1 1.9a92 92 0 0 1-12.3-16.8c0-1.8 1.2-2.4 2.5-1.4a45 45 0 0 1 4.4 7.3m-214.2-6c.1.2-1.8 6.8-4.3 14.8l-7.5 24.4-14.5 46.3a50 50 0 0 0-2 8.5c-.6 4-14.3 33.1-15.2 32.2-.2-.2 1-5.5 2.8-11.7l27.6-98.8c5-19.1 3.9-17 8.6-16.4 2.3.2 4.3.6 4.5.7m178.3-.2c0 1.5-4.7 6.7-22.5 24.9-7.7 8-18.1 19-23 24.5-5 5.5-13.1 14.3-18.1 19.5l-17 18c-13.9 15.3-47.5 48.1-48.4 47.5q-1-.7-1-1.6c0-.9 8-9.1 17.8-19.2 22.5-23.1 64.4-67.3 74.2-78.3 20.8-23.2 33.6-36.3 35.8-36.3q2 0 2.2 1m-51.2 1.6c-.5 2.5-2.8 2.8-2.8.4q0-2 1.6-2.1 1.4.1 1.2 1.7m59.1 1.2q1.2.9 1 1.9c-.2.6-6.7 7.6-14.4 15.5l-31 32.2a3373 3373 0 0 1-86.4 86.6c-31.4 29.8-31.1 29.6-31.1 26.8 0-.6 16.1-17.4 35.8-37.3a5025 5025 0 0 0 85.2-87.9l25.4-26.2c6.6-6.9 12.4-12.5 13-12.5q1.1 0 2.5.9m23 7.5c1.2 1.8 2.1 3.7 2 4.2 0 .5-3.9 4.1-8.7 8.1l-18.7 15.5a398 398 0 0 1-14 11.3c-2.2 1.6-7.8 6.5-12.5 10.7-4.7 4.3-10.1 8.9-11.9 10.2-1.9 1.4-8.6 7.2-15 12.9s-17.5 15.3-24.6 21.3l-25 20.9a640 640 0 0 1-33.1 26.5c-.6 0 74.9-75 84.4-83.8 3.7-3.4 7-6.2 7.3-6.2.9 0 22-18.7 23.5-20.8.7-1 3.2-3.1 5.6-4.7s7.2-5.5 10.8-8.6a233 233 0 0 1 26.7-20.9c.6 0 2.1 1.5 3.2 3.4m-158.5 1.7a7 7 0 0 0-4.6 4.9c-.2.8-.6 1.8-1.1 2.1q-.4.6 1.7 1.9c2.1 1.1 2.7 1 4-.3q1.4-1.5.7-2.2-.9-.6-.8-2.5 0-2.2 1.6-.7 1.7 1.4.7-.1-.8-1.2 1.9-1.2c2.5 0 2.5.1 2 5.5-.3 3.2-.1 5.6.5 5.6l2.2.3c1.5.1 2.2 2.3.9 3.1-1.7 1-1.3 4.2.6 5q1.8.6 3.5-1.5 3.4-4.1.1 4.1c-1.5 3.8-1.7 4-2.4 2.1q-1-2-2.3-2.2-1.5-.1-2.5-1.8c-.7-1.4-2.1-1.8-5.3-1.8-3.7.1-4.4.4-5.2 2.9q-1.1 2.9.2 4.5c.7.9 1.6 2.7 2.1 3.9 1.1 2.3 3.1 4 3.1 2.4 0-1.1 6.9-3.6 7.7-2.7.3.3.2 1.7-.1 3.1-.6 2.3-1 2.5-4 1.9-2.8-.5-3.6-.2-4.5 1.4-1.2 2.3.9 4.9 3 3.6q1.3-.8.4 1.2c-.4 1-1 3.4-1.3 5.2-.3 2.6-.7 3-1.7 2.2q-1.3-1.2-3.4 0c-2.3 1.2-2.3 1.2-1.5 3.4.7 1.8 3.9 2.2 4.9.6q.8-.7 2.9 2.2A8 8 0 0 0 223 389c2.9-1.5 2.5.2-.7 3.3-1.6 1.5-5.3 5.7-8.3 9.4s-8.3 9.6-11.7 13.2c-3.5 3.7-7.3 8-8.5 9.7a122 122 0 0 1-13.2 14.4c-.3 0-.1-1.1.4-2.4q1-2.5-.6-3.7-1.5-1.3-.9-3.3c.3-1.2.7-3.6.8-5.5s.8-3.6 1.6-3.9q1.3-.4.7.7-.6 1 1.1 1.1c1.7.1 2.4.5 3 1.1q1.2 1.4 2.8-.5c.9-.9 2.1-1.6 2.6-1.6q1-.1.2-1.3c-.4-.6-.8-2.6-.8-4.2-.1-2.3-.8-3.3-2.9-4.3-2.9-1.5-5.1-.7-2.6.8 1.3.8 1.3 1.1.1 2.2q-1.5 1.5-.7 0c.9-1.6.1-1.5-3.5.3-1.6.9-3.3 1.4-3.7 1.1-1.1-.7.5-17.7 1.8-19q1-1 2.4.9c1.3 1.8 1.4 1.8 2.7-.3q1.4-2 2.6-2.2 1.2-.1 1.3-1c0-2 .2-2.5 1.3-3.8q.9-1.1.1-1.1a8 8 0 0 1-3.6-1.1c-2.1-1-3.1-1-4.2-.1-1.7 1.5-3-.1-2.2-2.7.3-.9 1-5.1 1.6-9.2.5-4.1 1.7-9.2 2.6-11.2 1.6-3.5 1.8-3.6 3.9-2.2s2.3 1.3 2.8-.1q.7-1.4 1.9-1.5 1.4 0-.2 1.1-2 1.3 0 .6 1.4-.4 1.6-1.5l.3-2.5q.1-1.2 1.1.3 1 1.6 1 .2c0-1.7-2.7-6.9-3.9-7.4s6.8-13.9 11.5-19.6c2-2.4 4-3.9 4.6-3.6q1 .8-.8 1.5m226.4 5.5c1.1-.4 2.4-.1 2.9.6 1.3 1.7 3.1 9.1 3.7 14.8l1.5 12.5 1.4 12.2.5 4.1-9 .7q-8.9.7-10-.3c-1.9-1.9 1.4-41.5 3.7-45.2q.7-1.1 2 0c.8.7 2.3.9 3.3.6m-130.4.3c2 3.2-10.9 20.1-15.3 20.1q-2 0-2.1.7-.2.8-2.5.8c-2.9 0-2.9 0-1-2.3 16.9-19.4 19.4-21.7 20.9-19.3m76.3 6.3c5.3 4.9 1 14.4-5.9 13.2-4.9-1-7.8-4-7.8-8.5 0-5 1.3-5.8 9.9-6.8.8 0 2.5.9 3.8 2.1m-21.9 12.6a970 970 0 0 0-35.9 29.2c-4.2 3.6-10 8.3-12.9 10.5l-12.5 10-12.4 10c-2.8 2.2-8 6.6-11.4 9.7-3.5 3.2-9.2 8.1-12.7 10.8l-12.4 10.5-11.8 9.7-17.5 13.3a652 652 0 0 0-18.2 14.2c-8.4 6.8-13 7.4-5.6.7 8.2-7.5 33.2-28.6 38.9-32.9 4.5-3.4 17.1-13.8 33.7-27.9l11.4-9.6 14-12 27-23 30.4-25.7 9.6-8.2.7 4c.7 3.8.5 4.3-2.4 6.7M247 353c2.4 1.5.7 1.9-2 .5q-2.3-1.3-1-1.4a5 5 0 0 1 3 .9m118.3 2.7q.5.6-.4 2c-1.9 2.3-3.8 18-3.9 31.9q0 13.1-1.3 14.7c-1.3 1.9-4.4 2.3-17.5 2.6-7.7.1-8.3.3-9.3 2.5a9 9 0 0 0 1.7 9.1c1.3 1.3 3.4 1.5 10.8 1.3 5-.1 9.7.1 10.5.6 1.1.7 1.3 3.2.9 11.8-.5 10-.4 11 1.6 13.5 2.1 2.7 2.1 3.7 2.4 42.4.3 40.2.1 42.7-3.3 39.9-1-.9-1.9-.9-3.5 0s-2.5.8-3.6 0c-2-1.7-4.4-.5-4.4 2.3 0 2.2.4 2.4 6.6 2.5 3.6.1 7 .5 7.5.8s.9 4.5.9 9.4c0 6.7-.3 8.9-1.4 9.3-1.5.6-2.6 2.1-15.8 22-4.2 6.3-8.5 12-9.5 12.5-2.1 1.2-4.6 14-3.1 15.8q1.1 1.8-3.3 10.6c-.5 1-.9 2.8-.9 4 0 1.1-.8 3.9-1.7 6l-1.7 3.9-6.7-.7q-6.6-.6-8.9.6c-3.8 2-4.9-.4-1.7-3.8 1.5-1.5 2.7-3.2 2.7-3.6s.9-1.9 2-3.3q3.9-4.9-.1-8.1c-7.4-5.9-9.1-8-12.7-15.5a77 77 0 0 1-7.2-26.5c0-1.6-.3-3.2-.6-3.5a31 31 0 0 1-1.1-8.4c-.2-4.3-.8-9.3-1.4-11.1a21 21 0 0 1-.4-8.1 93 93 0 0 0-1.9-20.5c-1.4-8.6-2.6-17.8-2.6-20.5 0-5.1 1.1-6.2 7-7.5 7.4-1.6 14.2-11.9 16.5-25.4.8-4.2 2.3-10.4 3.5-13.7a478 478 0 0 0 6.5-21.5c.8-2.5 1.6-9.2 1.8-15 .3-5.8 1.1-13.1 1.7-16.2 1.4-6.4.8-5.8 24.5-24.5 6.1-4.7 12.7-10.1 14.8-12 3.8-3.3 4.8-3.8 6-2.6m-115.9 2.4c-.6 1.1-2.4.2-2.4-1.1q.1-.8 1.5-.4 1.3.7.9 1.5m68.6-.3q-.2.8-2 2-2.7 2-.8-.8c1.3-2 2.8-2.7 2.8-1.2M210.5 359c-.3.5-1.2 1-1.8 1q-1 0 .3-1 2.8-1.8 1.5 0m164.7 1.7c2.4.5 2.8 1.2 4.1 7.7 2.7 12.4 3.9 22.9 3.5 29.6l-.3 6.5-7.9.3c-5.7.2-8.2-.1-8.7-1-2.1-3.3.2-39.8 2.7-43.9q.6-.9 2.3-.4c.9.4 2.8.9 4.3 1.2M282 362c.9 1.6.6 2.6-1.2 5.1a41 41 0 0 1-10.3 8.9c-4.7 2.4-8.5 5.4-7.5 6q1 .7-1.4 2.4c-1.5.9-2.5 2.4-2.3 3.5.3 2.3-27.9 32.1-30.3 32.1-.9 0-2.2 1.1-2.8 2.5s-1.6 2.5-2.2 2.5q-.9.1-1 1.3c0 1.4-15.7 17.2-17 17.2-1.2 0-2.5 1.5-2.5 2.8q-.2 1.1-1.7 1.5c-2.8.5-2.1-1.1 2.5-6l33.7-36.3 6-6.5c.6-.5 16-17.7 19.8-22 7.4-8.4 15.6-17 16.3-17q.9.2 1.9 2m-50.5 1a2 2 0 0 1-1.2 1.7q-1.2.4-1.3-1.7 0-2 1.3-1.8 1 .6 1.2 1.8m11.5 0q0 .9-.4 1-.6-.1-1.1-1-.4-1 .4-1 1 0 1.1 1m-19.4 3.7c-1 1-1.9-.5-1-1.8q.8-1.7 1.2 0 .3 1.2-.2 1.8m1.9 6.3c-.3.5-1.3 1-2.1 1s-1.4-.5-1.4-1q.2-1 2.1-1 1.7 0 1.4 1m6.5 6.7c0 1.2-6 7.7-6 6.5 0-1 4.8-7.2 5.6-7.2q.3 0 .4.7m-56.4 7.3c-.9 1.6-1.6 4.4-1.6 6.4s-.5 3.6-1.1 3.6q-1-.1-.5-1.7.5-1.3-1.8 1a10 10 0 0 0-3 6c-1.8 14.3-1.8 14.3-6.3 15.2l-2.2.4q-.2.3.9 1.6 1.1 1.5.6 2.2-.5.4-.6-.7 0-1.6-1.2-.2c-.9.9-.4 2.4 2.1 6.3l3.2 5.1-2.6 3.4-2.5 3.3 2.2 1.6q2 1.6.8 1.2c-.8-.2-2.3 0-3.3.5-1.3.7-2.3.3-4.1-1.6-2-2.3-2.9-2.5-7.5-2-2.9.2-5.1.1-4.9-.4a43 43 0 0 1 7.4-12.2c.6 0 3.6-2.5 6.6-5.5s5.2-5.5 4.9-5.5q-.4 0 .7-1.2c1.5-1.5 1.5-5.1 0-6.6-.9-.9 0-3.1 3.9-9.4l7.3-12.6c2-3.5 2.5-4 3.3-2.6q1 1.7-.7 4.4m44.4-3.4c0 1.6-1.6 1.9-2.5.4-.8-1.3.4-3.2 1.6-2.5q.8.8.9 2.1m249.8-.7c1.9.1 2.2.7 2.2 4v4l-5.2 1a785 785 0 0 1-70.4 1.4c-1.8-1.3-2.5-5.9-1.1-7.1s13.1-1.9 43.7-2.7c10.7-.4 19.6-.7 19.7-.9.2-.2 5-.1 11.1.3M183 391.4q-.1.4-1.6 1-1.3.5-.9-.4c.6-1 2.5-1.4 2.5-.6m131.4 12.3c-.7 16.8-1.7 21.7-8.8 42.3a28 28 0 0 0-2 9.2c.3 1-1 5.8-2.8 10.7-3.1 8.5-3.6 9.2-7.9 11.6-5.4 2.9-5.9 3-5.9 1q0-1.4-.9-1.5c-.9-.1-1.4.7-2.1 1.5s-1.9 1.5-2.6 1.5q-1.3 0-1.4 1-.1.8-1.5.4c-1.6-.6-7.5 1.6-7.5 2.8q-.1.6-1.5.2-1.4-.5-2.1 1c-.5 1.3-.9 1.4-2 .5q-2-1.6-1.5 2.3-.1.8-1.4.8-1.4-.1-1.5-1c0-1.7-2.7-1.1-4.1.9q-1.5 1.9-5.9 2.5l-4.8.5q-.2.2.3 1.1t-.8 1q-1.7.2-2.7 1.5c-1.3 1.6-6.5 2.1-5.6.6.3-.5-.6-1.7-2-2.6q-2.3-1.4-2-.6.6 1-1.3 1.1-2.1 0-1.5-1.5.5-1.4-1-2.1-1.5-.6-1.6-1.5.1-.9 1.9.1c2.5 1.3 3.8-.5 1.4-1.8q-1.7-1-4 .5c-2.5 1.6-3.1 3.5-1 3.2 2.7-.3 3.5.2 3.3 2.6 0 1.4-.6 2.7-1.3 2.9-1.6.6-2.7-1-1.3-1.9q.9-.6 1-1.7-.2-.9-2 .7-2.1 1.9-.9 2.5 1 .8-.6 2.4t-2.2 1.2c-.8-.8.9-7.6 1.8-7q.7.3.3-1c-.7-1.8-2.4-2.1-2.4-.5q-.1 1-1.6.5-2-.9-.4.9 1 1.3.3 1.5c-1.6 0-3.5-5-2-5.1.6 0-1.2-.7-4.2-1.5-9.4-2.5-9.4-3 .5-7.8 8.9-4.4 11.9-4.2 17.1 1 3.5 3.5 6.3 4.4 6.3 2 0-1.5-8.4-9.6-10-9.6q-.9-.2-1-1.4c0-1.3.5-1.3 3.8.1 2 .8 4.9 2.4 6.4 3.4a11 11 0 0 0 3.2 1.9c1.2 0 .6-2.3-1.4-5-2.3-3.2-1.7-4 3.5-4.2 1.9-.1 3.5-.5 3.5-1q.1-.7 1-.8.9.1-.2 1.9c-1 1.6-1.5 1.8-2.7.8q-1.8-1.6-.1.9c2.1 3.3 7.9 1.5 7.8-2.4 0-.9.9-4.2 2-7.2 1.7-4.6 1.8-5.8.7-8-1.6-3.2-.4-6.7 3-8 1.4-.5 2.5-1.6 2.5-2.4 0-.9 2.8-3.7 6.2-6.3 3.3-2.6 8.2-6.6 10.7-8.9 7.6-6.8 17.4-14.4 18.5-14.4q.9 0-.2.9c-1.1.7-1.1.9.2 1.4q1.5.5 1.6-.6.3-1.5 2-1.4c1.9-.2 1.9-.1.2 2.2-.9 1.3-2.1 2-2.5 1.5-1.1-1-4.7-.1-4.7 1.2 0 .5 1.4 1.4 3 1.9s3 1.5 3 2c0 1.3-1.8 1.1-2.3-.4q-.6-1.3-.6 0c-.3 3.7 4.8 2.1 5.6-1.8.3-1.6.8-2.9 1.2-2.9s.6-1.7.6-3.9c.1-3.2-.1-3.6-1.3-2.5-1.5 1.6-3.5 1.9-3 .5.4-1.1 15-14 15.9-14.1.3 0 .5 3.5.3 7.7m134.4-.6c.3 7.3-.2 7.9-7.2 7.9-2.5 0-2.8.3-2.4 2.4.4 2 0 2.5-2.5 3-4.6.9-10.7.7-10.7-.4 0-.6 1.3-1 2.9-1 1.7 0 3.3-.5 3.7-1.2.9-1.5-3.5-5.1-5.4-4.3q-4.1 1.4-4.2-7c0-2.8.3-5.4.6-5.8s6.1-.5 12.8-.4l12.1.2zm-36 5.1c.7.7 1.2 2.5 1.2 4 0 2.6-.3 2.8-3.7 2.9a1238 1238 0 0 1-63.8 2.2c-9.9-.3-10.5-.5-10.5-4.2 0-3.4 1.6-4.2 7.7-4.1 4.8 0 65.4-1.6 66.9-1.8q1-.1 2.2 1m34.7 6.7c.8 1.4-1 2.2-3 1.5q-2-.6-.3-1.5 2.4-1.7 3.3 0M184 416.4q0 .5-1 1.1-.9.4-1-.4.1-1 1-1.1 1 0 1 .4m237.5 16.7c.3 6.8.7 39.3 1 72.2.6 58.1.6 59.8-1.2 58.6a36 36 0 0 1-5.6-6.1c-3.3-4.5-3.7-5.7-3.7-10.9 0-5.6 1.1-7.7 2.4-4.4.5 1.5 5.7 2.1 6.9.8 1.2-1.1-5.7-7.3-8.1-7.3q-2.1-.1-2.1-1.3.5-3.8-1.6-3.7c-2.4 0-3.1 3.1-1.1 4.5q1.6 1.2.7 2c-.6.3-1.1 3.8-1.1 7.7v7.1l-4.7 4.9c-14.7 15.1-17.7 17.8-18.5 17s-2-124.4-1.1-126.8q.6-1.3 1.9-1.4c2.3 0 3.1-3.7 3.2-15.4.1-6 .4-11.2.7-11.5.4-.3 6.3-.7 13.3-.9s13.2-.5 13.7-.6c.6-.2 1.8.4 2.8 1.4 1.6 1.4 1.9 3.7 2.2 14.1m-37.7-6.4.3 7.3h-3.3c-1.8 0-4 .5-4.8 1-1.3.9-1.2 1.2.4 2.5 1.1.8 3.3 1.5 4.9 1.5q2.9 0 2.4 1.2c-.4 1.3-1.7 1.3-9.4.2-3.3-.5-4.3-1-4.3-2.5s-.7-1.9-3.4-1.9c-4.8 0-5.8-1.8-5.3-9.2l.4-6.3 8.4-.6c14.4-1 13.4-1.5 13.7 6.8m47.6-5.9c1.4 2.3 2.5 319.9 1.1 322.2q-.8 1-2.3.8c-1.5-.3-1.6-5.8-1.8-58.7-.1-32.2-.5-69.8-.9-83.5-.7-28.4-1.1-53.9-2-127.4-.5-39.5-.4-51.6.5-52.7 1.3-1.6 4.6-2 5.4-.7m10.8.2c2 0 2 .3 1.4 19.2-.3 10.6-.8 54.6-1.1 97.8-.5 85-1.1 135.6-2.2 174-.7 30.1-.8 30.3-1.9 30.7-.5.2-1-31.1-1.2-77.6-.1-42.9-.4-88.7-.7-101.8s-.5-50-.5-82c-.1-41.2-.5-58.5-1.3-59-1.3-.8 2.2-2.3 4.1-1.7.8.2 2.3.4 3.4.4m-278.6.9q-.6.9.1 1.4t-.3.1c-.6-.1-1.8.3-2.5.9q-1 1 .5-1.1c1.9-2.2 3.2-3 2.2-1.3m12.4 2.8q0 2.8-1 1.7c-.6-.6-.8-1.8-.4-2.7q1.4-3.6 1.4 1m-29.1 20.9c.6 1.5.9 2.9.7 3.2-.3.2-.1 1.3.5 2.4q1 2-.1 3.4c-.7.7-.9 2.1-.6 3s-.1 2.2-.9 3c-.8.9-1.5 2.6-1.5 3.9 0 3-1.8 4.2-3.6 2.3-1.3-1.3-1.2-1.8.7-4.1 2.1-2.7 2.1-2.8.2-6-3-5.1-3.3-7.4-1.2-9.3 1-.9 1.9-2.3 1.9-3.1 0-2.3 2.6-1.4 3.9 1.3m225.2-.6q1 0 .1 1.5c-.4.9-.7 17.2-.5 36.3.6 84 1.4 157.5 1.8 179.2.2 12.9.1 36.8-.3 53l-.7 29.5h-5V709c0-34.4-1-98.9-2-125.5-.3-7.2-.7-30.3-1-51.5l-1-61.5c-.3-12.7-.2-23.5.3-24.1.8-1.4 4.1-2.3 6-1.8zm7.3 152c-.1 72.9-.6 134-1.1 138.5-.7 5.7-1-8.5-1.1-50-.1-55.7-.5-86.2-1.8-163.5-.4-19.5-.7-44.8-.8-56.2-.1-20 0-20.7 1.9-21s2 .4 2.5 10.7c.3 6 .4 69.7.4 141.5M159.2 448.2q-1.1 1-1.2.2c0-1.4 1.2-2.6 1.9-1.9q.3.6-.7 1.7m-20.2 3.2c0 1.5-3.7 3.2-4.7 2.2q-.5-.6 0-2.1c.8-1.9 4.7-2 4.7-.1m108 2.1q-1.2 1.4-2.3 1.5-.7-.2.8-2c2.1-2.3 3.5-1.9 1.5.5m-43 2.5q-.1.9-1.5 1c-1.4.1-1.5-.5-1.5-1q.1-1 1.5-1c1.4 0 1.5.4 1.5 1m35.5 4q-.6.9-1.6 1-.8-.1-.9-1 .1-1 1.6-1 1.3 0 .9 1m-40.5.9c0 1.4-1.8 2.3-3 1.6q-1-.7-.5-1.6c.8-1.2 3.5-1.2 3.5 0m35 5.2q-.2.8-2.5.9c-2.6 0-3.4-1.5-1.2-2.3 1.6-.5 3.7.3 3.7 1.4m-50.8 1.1q-1.1 1-1.2.2c0-1.4 1.2-2.6 1.9-1.9q.3.6-.7 1.7m2.7 7.6c-8.9 9.4-10.5 10.7-11.4 9.2s15.5-18 17.8-18c1.6 0 .2 2-6.4 8.8M135 470q1.3.9.5 1c-.5 0-1.7-.5-2.5-1s-1-1-.5-1 1.7.5 2.5 1m37.5 8.4c-2.5 3.3-4.5 4.6-4.5 2.9 0-1 6.3-7.4 6.8-6.9.2.3-.8 2.1-2.3 4m-46.6-.3c2 1.9 2.1 2.2.7 3.8-.9 1-1.6 2.9-1.6 4.4q.1 2.7-2.9 4.1c-1.6.9-3.2 1.2-3.6.8q-.7-.6-.1.5c1.4 2.5-4.6 4.2-12.2 3.6-6.7-.5-7.4-.4-11.2 2.2-2.2 1.5-4.3 2.6-4.5 2.3s1.1-2.6 3-5.1c2.8-3.7 4.2-4.7 6.5-4.7 3.6 0 15.1-2.9 16.7-4.2 1.7-1.4.6-2.9-1.4-2.1-1 .4 0-1.2 2.1-3.5 4.5-4.8 5.4-5 8.5-2.1m50.9 9.8q6.4 1 8.7 3.1c2 1.9 2.9 2 9.8 1.4l7.5-.7 2 4.5c1 2.4 2.2 6.6 2.6 9.2l.8 4.9-4.3-.6c-4.7-.6-9.9 1.1-13.4 4.3-2.2 2-11.7 5.4-17.7 6.3-3.2.5-3.7.3-4-1.6s-.8-2.2-5.5-1.9c-8.5.6-8.7-1.1-.3-2.3 5.8-.8 7.6-1.4 7.8-2.8s-.4-1.7-4.2-1.7q-7.6 0-2.3-3.3c3.6-2.5 1.1-3.7-5-2.5-4.6.9-5.8.8-10.7-1.3-3.1-1.2-5.6-2.6-5.6-3 0-1.6 2-2 4.2-.8 4.2 2.3 11.4 3.7 13.3 2.6 1-.5 3.2-1.1 4.9-1.2 3.8-.3 5.3-3.6 3.7-7.8-1.5-4-3.6-4.3-9-1.3-6.7 3.6-9.7 3.4-3.9-.3 2.5-1.6 4.9-3.4 5.3-4.1q.7-1.2 4.9-.6zm-13.1 8.6c-.7 1.6-4.7 2.2-4.7.7 0-.9 4.2-3.2 4.9-2.6q.3.4-.2 1.9m-80.3 35.7c-23 38.6-21.5 36.1-22.1 35.5s2-5.6 9.4-17.5c3.6-5.7 9.2-15.7 12.5-22.3 3.2-6.5 6.4-12.1 6.9-12.5.5-.3 2.5-3.6 4.4-7.4 4-7.9 6.8-11.3 7.3-8.7.2.8-8.1 15.7-18.4 32.9m41.5-28.5-4.5 4.8c-.6.5-2.1 2.5-3.3 4.2s-2.5 3.3-2.9 3.3a21 21 0 0 1-5.2-7.3c0-.3 3-2 6.8-3.7s7.8-3.7 9.2-4.5q5.6-3-.1 3.2m-32.9 1c0 1.6-3.3 6.4-4 5.7s-1.4-4.8-1.1-6.5c.1-.7 5.1.1 5.1.8m53.5 2.1c3.3 1.1 6 3 5.3 3.7-.3.4-1.6.2-2.7-.5s-3.7-1.2-5.6-1.4c-4.9-.3-7.1-2.6-2.4-2.5 1.8.1 4.3.4 5.4.7M160 510q-.2.9-2.1 1-1.7-.1-1.4-1c.3-.6 1.3-1 2.1-1s1.4.4 1.4 1m-26 1.1c0 1.2-19.4 22.8-21.8 24.2q-5 3.4 4.9-8.9c4-4.9 8.8-10.6 10.8-12.7 3.4-3.6 6.1-4.8 6.1-2.6m6.4 1.7c.5.9-2.7 4.4-26.7 29.5a276 276 0 0 1-17.4 17.3q-1.2-1.5 12.2-15.1c4.9-5 13.7-14.4 19.5-20.8s10.8-11.7 11.2-11.7q.7.1 1.2.8m-38.9 3.9q.5 2.1-.3 2.3c-1.7 0-3.4-2.9-2.8-4.7q1.4-2.7 3.1 2.4m44.3-.8c-.3 1-30.4 32.9-38.6 40.9-7.2 7.1-6.8 3.5.5-4.2l21.2-22.4c8-8.3 15.1-15.2 15.9-15.2q1.2 0 1 .9m4.2 2.8c0 1-10.3 11.3-11.3 11.3-.4 0 1.6-2.7 4.5-6 4.9-5.6 6.8-7.1 6.8-5.3m-68 3A227 227 0 0 1 64.3 554c-11 18.4-7.7 10.5 8.6-20.3 6.9-12.9 9.1-15.9 9.1-12m15.6.7c.8 3.2.1 7.2-1.1 6.9-1.3-.4-2.8-6.1-2.1-7.9.8-2.2 2.5-1.6 3.2 1m8 4.2c-3 3.6-5.7 7.7-6.1 9.1-.7 3.1 1 5.3 4.1 5.3 3.9 0 3.5 1.5-2.2 7.1-3.1 3-7.1 7.5-9.1 10.1A18 18 0 0 1 88 563c-.5 0 0-2.6 1-5.8l4.5-14.2q2.6-8.6 5.6-11.3c1.6-1.5 2.9-3.2 2.9-3.6 0-.5.7-2.5 1.5-4.5 1.3-3 2-3.6 4.5-3.6h3zm364.4 1.5c0 1-.4 1.9-1 1.9s-1-1.2-1-2.6.4-2.3 1-1.9 1 1.5 1 2.6M86 554.5c-9.1 28.3-11 34.7-11 36.1s-2.8 3.9-3.6 3.1c-.3-.3.2-2.9 1-5.9l8.7-29.8c3.8-13.5 7.7-26.1 8.6-28l1.6-3.5.8 3c.7 2.4-.5 7.2-6.1 25m42.5-13.5a52 52 0 0 1-8.3 7.5c-.3-.2 3.1-4 7.4-8.4a47 47 0 0 1 8.3-7.5c.3.2-3.1 4-7.4 8.4m348.2-4.5c-.5 1.6-3.7 1.8-3.7.3q.2-1.3 2-1.4c1.8-.1 1.9.5 1.7 1.1M198.3 539q1 0-.2 1.2c-1.1 1.1-1.4 1-1.8 0q-.6-1-1.4-.6t-.9-.6q.1-1 1.6-.6c.9.3 2.1.6 2.7.6m290.6-.1q1.4.9-2.8 1.3c-3.9.3-5.5-.5-2.8-1.5 1.9-.8 4.1-.7 5.6.2m-320 5.5c3.3 1.2 3.4 1.3 1.5 2.7-1 .8-2.5 2.2-3.2 3.1-1.1 1.4-1 1.8.8 2.8 2 1.1 2.1 1 1.5-.9-.7-2.4 1-2.9 1.9-.6q.6 1.3 1.7 1.3c.6-.2 1.4.3 1.6 1.1q.7 1.4-1.6.6t-2.1 1.1c.1 1.9-.3 1.4-1.5.4q-1.4-1-2.5-.5-.9.4-1-.9t-.9-1.4c-.5.2-1.7-.6-2.5-1.7-1.3-1.7-1.5-1.8-1.6-.3q0 1.5-.9 2.3c-.6.3-.8-.9-.6-2.7q.3-2.8-.2-2.1c-.2.7-1.1 1.3-1.9 1.3q-1.3.1-1.4 1.1.1.8 1 .4t1 .4c0 1.5-1.7 1.4-2.6-.1q-.5-1 .9-2.3 3.6-2.5-.8-2.1-2.3.1-2.5 1.2c0 2-3 2.5-3 .6q0-2.3-1.1.1c-1.3 2.2-.9 2.8 1.9 3q1.8.1 1.5 1-.6.7-1.9.3c-.7-.3-1.6-.1-1.9.4q-.7 1-1.6 1-.9-.1-.3-1.1.8-1.2-1.4 0c-1.1.6-3 1.1-4.1 1.1s-3.5.9-5.3 1.9-4.4 2.2-5.8 2.5q-3.5 1.2-.6-.8a7 7 0 0 1 3.7-1.6c2.6 0 6.1-3.3 7.3-7.1 1.1-3.3 1.2-3.4 6.3-3.1 2.9.2 5.4-.1 5.8-.7.9-1.6 5.6-.2 8.5 2.5 1.9 1.7 2.9 2 4.3 1.3 2.3-1.3 2.2-2.4-.5-4.9q-3.8-3.5 4.1-.6m111.1-1q0 .5-1 1.1-.9.4-1-.4.1-1 1-1.1 1 0 1 .4m5.3 6.8c.5 3.4.3 4.9-.8 5.8-1.3 1.1-1.5.2-1.5-6.1.1-7.9 1.3-7.8 2.3.3m-206.6 4-3.2 11.3c-1.1 5.5-6.8 22.6-7.2 22.1-.6-.6.8-6.7 4.8-21.6l3.9-14.8c.8-3.4 2.9-6.6 3.7-5.8.3.3-.6 4.2-2 8.8m85.3 1.5q.1 1.9-1.5.3-1.3-1.2-.9-2.1c.8-1.3 2.4-.1 2.4 1.8m5 3.4c0 1.8.2 1.8 2.3.5 2.2-1.5 6-.6 4.4 1.1q-.8.6-1.8-.7-1-1.6-.3 1.2t-.5 2.8c-1 0-1.5-1.4-1.2-3.3q0-.8-.8-.2-1 .6-.5 2.3.8 2.1-1-.3l-3.1-3.7q-1.5-1.7-.2-2.1 2.7-.9 2.7 2.4m241.3-.8a33 33 0 0 1-10.4 10.6c-2.2 1.3-4.2 2.1-4.4 1.9a62 62 0 0 1 14.5-14.3c.6.3.7 1.2.3 1.8m-48.7 5.2c.4 3.3.7 6.4.6 7s-.2 6.5-.2 13.2l-.2 12.3H359c-3 0-4 1.5-4 5.7q.1 2.8-1.6 1.9c-.9-.3-2-.6-2.5-.6s-.8-1.4-.7-3.1c.4-4-2-5.7-5.9-4.3q-2.9.9-3.1 3.7c-.4 3-.6 3.1-3.2 1.7-1.5-.8-1.8-2.1-1.8-6.5.1-5.6.5-6.4 2.5-4.4 1.6 1.6 13.5 2.9 15.1 1.6 1-.8.9-1.4-.5-2.9s-2.6-1.8-5.3-1.4c-1.9.3-4.2.1-5-.4q-3.7-2.5 5.6-1c9 1.5 11.6 1.3 11.2-.8-.3-1.5-4.2-2.7-14-4.1-1.7-.2-.5-3 4.2-9.6l7.6-10.8c1.4-2.2 2.7-3.7 2.9-3.5s.7 3 1.1 6.3m-208.1.1a18 18 0 0 0 5.8 1.9 11 11 0 0 1 6.9 4.5c1.6 2.1 4.1 4.1 5.4 4.4 2.5.7 4.2 3.3 8.5 13.3l2.7 6.2-4.2 2c-2.2 1-6.7 2.9-9.9 4a84 84 0 0 0-28.2 17.2c-4.5 5.4-5.9 8.9-4.5 11.4 2.3 4.4-2.2 29.1-7 38.5q-4.2 8-8.9 8c-1.6 0-3.1.7-3.5 1.5q-.6 1.3-2.1.9c-.8-.4-2.2-.1-3 .6-1.2 1-1.8 1-3.1-.1-1.2-1-2-1-3.4-.1-1.5.9-2.1.9-2.7-.1-.4-.7-3-2.3-5.8-3.7-8.1-4-8.1-3.6-.4-19.1 3.8-7.6 7.7-16.5 8.8-19.8 1-3.2 2.8-7.6 4-9.8 3.7-7 5.9-13.7 7.5-23.3 2.3-12.9 3.2-15.5 6.7-18.5 1.7-1.4 4.2-4.6 5.6-7.2 4.4-8.4 7.5-11.9 11.8-13.5s9.8-1.2 13 .8m-53.5.1a37 37 0 0 1-9.4 9.2c-.8-.8 6.7-9.8 8.2-9.9q1 0 1.2.7m319.4 3.6c1.7 1.3 1.6 1.6-1.2 6.3A43 43 0 0 1 403 588c-5.4 2.8-6 2.6-6-1.9 0-3.6.4-4.1 4.5-6.5 2.4-1.5 6.8-5.1 9.7-8.1 2.9-2.9 5.6-5.4 5.9-5.4q.6 0 2.3 1.2M60 569q0 .9-.4 1-.5-.1-1.1-1-.4-1 .4-1 1 0 1.1 1m121 2q.2.9 2.5 1.6 2.3.6 2.5 1.7 0 .9-.7.4c-.3-.4-1.2-.2-1.8.3q-1.3 1.2-1.9-.5-.6-1.4-1.7-.9-1.2.6-.5-.4c.7-1 .2-1.2-.4-1.2q-1-.1-.5-1c.8-1.3 2.5-1.3 2.5 0m9 4.4q0 .5-1 1.1-.9.4-1-.4.1-1 1-1.1 1 0 1 .4M389.5 586q.4 1-2.5 1c-2.9 0-2.9-.4-2.5-1s1.5-1 2.5-1 2.2.4 2.5 1m-321.8 5.2q-.5 1.1-.6-.6t.5-1.3c.3.3.4 1.2.1 1.9m327.6 5.8q.5 4.4-.6 5.2c-1.9 1.1-3.7-1.2-3.7-4.8q.2-5.4-4.9-4.5-2.3.3-1.7-.8c.4-.6 1.6-1.1 2.6-1.1s2.2-.5 2.5-1c1.4-2.3 5.3 2.4 5.8 7m28.7-6.1c0 2.1-1.3 4.1-2.6 4.1q-1.3.1-1.4 2.1c0 2.8-3.4 2.1-3.8-.8q-.4-2.2 3-4.3c3.6-2.2 4.8-2.5 4.8-1.1M231 593q-.1.9-1.1 1-.8-.1-.4-1 .6-1 1.1-1 .3 0 .4 1m73.9 15.8q3.7 3.2 2.4 4.3c-2.1 2.1-8.9-5.4-10.7-12.1-.7-2.2-.4-2.1 2 1 1.6 1.9 4.4 5 6.3 6.8m118.8-5.3c.3.9-.3 2.5-1.2 3.5-1.7 1.9-1.7 2.1-.1 3.9q1.8 1.7.8 4.1c-.8 2.3-.9 2.2-1.5-.8q-.6-3.3-2.6-3.2c-1.1 0-2.3-.5-2.6-1s-2-1-3.6-1q-3 0-2.7-1.3c.7-1.9 4-2.1 5-.3.5.9 1.8 1.6 3 1.6 1.7 0 2-.4 1.5-2.9-.3-1.6-.3-3.1 0-3.5 1.2-1.1 3.4-.6 4 .9m-21.7-.1q0 .5-1 1.1-.9.4-1-.4.1-1 1-1.1 1 0 1 .4m-63.9 2.6q1.9 1.1 3.9 0c1.5-.8 2.9-.6 6 1 2.2 1.1 4 2.2 4 2.4a23 23 0 0 1-5.6 5.6c-.3 0-.3-1.1 0-2.4q.5-2.3-.9-3.6c-1.3-1.1-2-.8-4.4 1.4-2.8 2.7-3 2.7-6 1.2-2.8-1.5-2.9-1.8-1.9-4.1 1.2-2.8 2-3 4.9-1.5m59.8 3.1c1.4 4 1.4 3.9-.4 3.9q-1.5-.1-2.2-1.6c-.3-.8-1.7-2-3.2-2.5q-2.9-1-1.1-1.9c3.1-2 5.8-1.1 6.9 2.1M287 608q0 .9-1 1a1 1 0 0 1-1-1q.1-1 1-1t1 1m-206.3 5.6c1.9 2.3 2.3 3.9 2.1 7.8-.3 4.9-.9 5.7-5.2 7-1.5.5-1.6.9-.6 2.1 1.7 2 5.3 1.9 8-.3 1.9-1.6 2.3-2.9 2.4-8.8l.1-6.9 2.9.2c3.9.3 6.5 3.1 7.3 7.6q1.3 7.7-3.6 10.2a9 9 0 0 0-4 4.7c-1.5 4.1-3.9 6.8-6.3 6.8-4.5 0-12.6-5.9-15.2-11.1q-2.3-4.8-5.2-.5c-1.3 2.1-1.4 2.9-.4 4.1.7.8 1.9 1.5 2.6 1.5q1.3.2 1.4 1.5.1 1.5-3.4 1.5c-2.8 0-4-.7-6.2-3.5-1.4-1.9-3-3.5-3.6-3.5-2 0-1.9 3.2.1 5.4 2.7 2.9 2.7 3.6-.3 3.6s-7.2-3.3-8-6.4c-1.1-4.5-6.1-4.1-6.8.6-.5 3.5-2.7 3.3-3.5-.2-.3-1.7-1.2-3.4-1.9-3.7-1.9-.7-1.7-3.2.3-4a31 31 0 0 0 5.8-5q6.8-7 9.5-2.3c1.7 3.1 4 2.5 4-1 0-5.1 2.5-8.8 6.8-10 9.2-2.5 17.6-1.5 20.9 2.6m275.8 2.1c-.7 5.6-2.6 13.5-6 24.8-3.2 10.5-17.6 35.5-20.4 35.5-.5 0-2.4-1.8-4.2-4.1-2.6-3.3-3-4.5-2.2-5.8q1.1-1.7.1-3.4c-.7-1.3-.1-2.7 2.3-5.6 1.7-2.2 3.7-4.2 4.4-4.5s2.3-2.6 3.6-5.3a92 92 0 0 1 5-8.8c1.5-2.2 4-6.5 5.7-9.5 1.6-3 4.6-7.9 6.6-10.9 2-2.9 3.6-5.7 3.6-6.2s.5-.9 1.1-.9q1 .1.4 4.7m-117-.9c.5 1.2 1.5 2.2 2.2 2.2q1.2.2 1.3 1.2 0 1.3 1-.2c.8-1.2 1-1.2 1.6.3.3.9.1 2.3-.5 3.1-.8 1-.6 2 1 4q2.1 2.6.5 2a4 4 0 0 1-2-2c-.3-.8-1.3-1.4-2.1-1.4q-1.4-.1-1-1 .5-1-.4-1c-.5 0-1.2-1.8-1.6-4s-1.4-4.5-2.3-5.1q-1.9-1.1-.2-.6 1.4.5 2.5 2.5m-1.9 2.8q-.7 1.9-1.8.6-1-1.1-.4-2.8.7-1.9 1.8-.6 1 1.1.4 2.8m164.9-.6c.3.5 1.5 1 2.5 1s2.1.4 2.4.9c.6.8-2.1 10-3.3 11.3-.3.3-2.6-.3-5.1-1.5-3.9-1.9-4.5-2.6-4.5-5.2 0-2.8.2-3 3.4-2.7 3.2.4 3.3.2 2.7-2.2s.7-3.6 1.9-1.6m-66.6 2.6q3.6 4.8-1.4 3.8c-1.2-.3-2.6-.1-2.9.5-1 1.6-2.6 1.4-2.6-.3 0-2.8 2-6.6 3.4-6.6.8 0 2.4 1.2 3.5 2.6m8.1-1.6q-.1.9-1.1 1-.8-.1-.4-1 .6-1 1.1-1 .4 0 .4 1m-179 1q1.8.9-.5 1.6l-5.5 2.1c-1.9.7-6 1.6-9.2 2-5 .5-5.8.3-5.8-1.1l-.2-2.4c-.2-.4 4-1.2 9.2-1.8l10-1.2q.6-.1 2 .8m298 .9c0 1.2-2 2.5-2.7 1.8s.6-2.7 1.8-2.7q.8 0 .9.9m-39 1.1q-.1.9-1.1 1-.8-.1-.4-1 .6-1 1.1-1 .4 0 .4 1m-242.5 2.2c4.4 2.1 5.8 3.8 3.3 3.8-1.6 0-11.8-4.7-11.8-5.5 0-1.2 4.2-.4 8.5 1.7m297.2-.9q.4.6-.2 1.6t-2.8-.3c-2-1.3-2.7-1.2-7.2.9a24 24 0 0 1-7.5 2.4q-2.9.3 3.5-2.9c6.4-3.2 7-2.8 9.8-2.6 2.1.3 4.1.7 4.4.9M104 624q0 1.8-1 2-.9-.2-1-2c-.1-1.8.5-2 1-2q1 .2 1 2m151.5 0q.5.9-1.2.4-2.2-.8-.3.5c.8.6 2.4 1.1 3.5 1.1q2 0 .8 1.1c-1.6 1.6-6.3 0-6.3-2.2 0-2 2.4-2.6 3.5-.9m10.5.2q.1-1 1-1.2c1.6 0 1.2 1.7-.6 2.4-2 .8-3.6-.2-2.8-1.6q.7-.9 1.5.3.9 1.6.9.1m190 2q-.1.9-1.5-.2c-1.4-1.1-1.5-1.7-1.5-2.2q.1-.9 1.5.2c1.4 1.1 1.5 1.7 1.5 2.2m37 .6c.6.5-6.2-.8-7.3-1.5q-.6-.4-.2-1.3c.4-.7 5.9 1.3 7.5 2.8m-320.5-.6c2.5 1.2 4.5 2.6 4.5 3.1s-.8.6-1.7.1a38 38 0 0 0-8.6-1c-3.7-.1-6.8-.5-7-.9-.3-.9 4.4-3.4 6.5-3.5 1 0 3.8 1 6.3 2.2m77.2 0q.3 2.6-.7.8-1.8-2.8-.2-3 .8.2.9 2.2m25.1-1c.9.9 1.8.9 3.7 0 3-1.4 3.3-.2.6 2.2-2.3 2.1-6.8 3.2-17.1 4.1-7.3.7-7.5.7-5.5-1.2 1.6-1.5 3.5-1.8 9.7-1.7 6.6.1 7.5-.1 7-1.5a5 5 0 0 0-1.6-2.3q-1-.8.5-.8c.8 0 2 .5 2.7 1.2m67.7.8q-.6.9-1.6 1-.8-.1-.9-1 .1-1 1.6-1 1.3 0 .9 1m107 1c1.6 1.8 1.6 2 .2 2-2.1 0-2.3 3.9-.2 4.5 5.1 1.6 5 1.4 1.8 4.7-1.7 1.7-3.6 2.7-4.2 2.4-1.3-.8-1.5-15.6-.3-15.6.5 0 1.7.9 2.7 2m-25.5 2.5q0 3.6-1.5 3.5-1.5.1-2.1 1.4c-.7 1.8-5.6 1.6-7-.3q-1.1-1.2-2.8-.8-1.8.7-1.4-.5c.3-.7 1.9-1.6 3.7-2.1 2.7-.6 3.6-.5 4.6 1 1.1 1.5 1.6 1.6 2.7.5 1-1 1-1.7.1-3.1q-2-3.2 1.9-3.1c1.4 0 1.8.8 1.8 3.5m-273.3.9q-.5 1-2 .8c-.8-.1-1.8.2-2.2.8-.9 1.5-3.5 1.2-3.5-.3 0-1.8 3.9-3.5 6.3-2.9q1.6.5 1.4 1.6m-123.7.5c0 2-1.3 4.1-2.1 3.5-1.5-.9-1-4.4.6-4.4q1.4 0 1.5.9m286.8.2q-.4 1-1.3 1-1.2 0-1.3-1t1.3-1.1c1.5-.1 1.5.5 1.3 1.1m20.7 4.7c-.8.8-2.6-3.9-1.9-5q.8-1.1 1.6 1.7c.4 1.6.6 3.1.3 3.3m62.7-4.4c1.8.8 4 1.7 4.9 1.9 1.4.5 1.4 1.4-.3 9.8-1 5.1-2.1 9.5-2.4 9.8-1.2 1.2-5.3-5.3-4.8-7.6q.6-2.1-1.5-3.9c-1.5-1.3-1.8-2.2-1-3.6.9-1.7 1.2-1.7 4.1-.2q2.9 1.5 4 .6 1.8-1.6-5-4.2c-2.5-1-3.5-1-4.7 0q-2.6 2.2-.5-2.1c1.3-2.3 2.8-2.4 7.2-.5m-191.7 2.8c6.3 2.7 7.5 3.6 7.5 5.5 0 2.1-.3 2.2-2 1.3q-1.8-1-1.5-2c.7-1.1-5.9-2.5-7.4-1.6-1.1.7-6.6-1.7-7.6-3.4-.8-1.4.3-3 2.1-3 .8 0 4.8 1.4 8.9 3.2M458 632q0 .9-.9 1-1-.1-1.6-1-.4-1 .9-1 1.5 0 1.6 1m-170.7 4c1.6 0 7.7 6.2 7.7 7.7q.1 1.2 1 1.3c1.6 0 1.2 5.7-.5 6.4q-1.4.6-1.5 2.1c0 1.6-1.6 4.9-3.8 7.7-.8.9-1.1 2.2-.7 2.7q.4 1-1 1.1c-2.1 0-3 2.7-1.5 4.5q2.1 2.7-1.9.4c-1.5-1-2.2-.8-4 1-1.7 1.7-2.9 2.1-4.8 1.6-2.7-.7-18.6-8.1-24.3-11.4-1.9-1.1-6.6-3.4-10.5-5.2-19.2-8.8-22.4-11.1-22.5-15.6q0-5 8-2.9a32 32 0 0 1 5.8 1.9c.7.5 2.8.3 4.8-.3a37 37 0 0 1 10.9-.8c4.1.2 7.5 0 7.5-.4q0-.7.8-.6 1.4.2 17.9-2.4 7-1.2 6.5-2.2-.2-.8 2.2 1.2c1.6 1.2 3.4 2.2 3.9 2.2m21-1.9c-.6.6-.9 1.8-.6 2.5q.4 1.3-.6 1.4-1.3 0-1.1-1c0-1.4 2.3-5 2.9-4.4q.4.5-.6 1.5M472 633c0 1.2-4 3.3-4.8 2.5q-.4-.7 1.2-2.1 3.5-2.4 3.6-.4m13 0q0 .9-.9 1-1-.1-1.6-1-.4-1 .9-1 1.5 0 1.6 1m-154.6 4.3c-.5 1.4-1.9 1.9-5 1.7-.3-.1-1.4.9-2.4 2.2q-1.8 2-1.9 1.3c0-1.4 2.9-4.7 5.9-6.8 2.6-1.8 4.4-1 3.4 1.6M98 639.4c-1.2 3.8-3 4-3 .4 0-1.9 3-5.2 3.8-4.3.2.2-.1 2-.8 3.9m312.1 1q-3.8 3.8-2.5-2.3c.6-3 .7-3.1 2.6-1.4 1.8 1.6 1.8 1.7-.1 3.7m-25.4-.7q-.5 1.4-.5-1.2t.5-1.8c.2.7.2 2.1 0 3m94.7-3.1c.9.3 1.6 1.2 1.6 1.9s.7 1.8 1.5 2.5 1.5 1.8 1.5 2.4q-.1.8-1.8-1-6-7.7-13.7 1.3-2.4 2.8-2.5 1.3c0-1.2 10-9 11.6-9zM167 639c-.8.5-1.9 1-2.5 1q-.7-.1.5-1 1.8-1.2 2.5-1 .8.1-.5 1m150.4.5q-.6 1.3-1.3 1.5c-.7.2-.8-.7-.8-1.5s.6-1.5 1.3-1.5q1.2 0 .8 1.5M463 639c0 .5-1.1 1-2.4 1-1.4 0-2.8.4-3.1 1-.7 1.2-2.5 1.3-2.5.2 0-.8 4.5-2.9 6.8-3.1q1 0 1.2.9m-45 2c.6 1.1 2.3 2.6 3.8 3.4 2.3 1.3 2.4 1.5.6 1.6-1.1 0-2.9-.7-4-1.5-1-.8-2.7-1.5-3.7-1.5-1.5 0-1.5-.3-.5-2 1.6-2.5 2.5-2.5 3.8 0m-384 2q-.1.9-1.1 1-.8-.1-.4-1t1.1-1q.4 0 .4 1m160.3.5c-.2.5-1.6 1.1-3.3 1.2q-3 .3-3-1.3c0-1.6.8-1.4 3.3-1.2 1.7.2 3.1.7 3 1.3m298.6 1.4q1.5 2.2-.9 1.4-3.1-.9-1.3-2.6c.9-1 1.1-.9 2.2 1.2m-82.6 1.2c-1.2 1.3-2.6 1.8-3.3 1.4q-1.4-.7 1.6-2.1c4-1.7 4.1-1.7 1.7.7m67.7-.6q0 1.4-1.5.9-1.3-.7-1.5-1.5c-.2-.8.7-.9 1.5-.9s1.5.7 1.5 1.5m-91.8 1.8c.6 2.8-.1 4.9-1.3 4.1-1.2-.7-1.2-6.4 0-6.4q.9.2 1.3 2.3m74.8-.3c0 2.3-2.5 2.7-3.3.6q-1-2.5 2-2.6 1.2.2 1.3 2m-368.3 1q.5 1.5-.4.4a6 6 0 0 0-2.3-1.7q-1.6-.7.4-.4 1.8.3 2.3 1.7m-33.1-.1q.6-.8 2.1-.9c1.4 0 1.4.3-.2 2q-1.9 2-2.8 1.1-1-.9-3.2-.1-2.4 1-3.4-.4-2.4-2.9 3.5-1.6c1.9.4 3.7.4 4-.1m356.4 0q-.2.9-2 1.6a10 10 0 0 0-3.9 3.1c-1 1.3-2.6 2.4-3.5 2.4-2.8 0-1.7-1.9 1.9-3.4 1.9-.8 3.8-2.2 4.1-3.1.7-1.6 3.4-2.1 3.4-.6m36.6 1.8c-1 1-1.9-.5-1-1.8q.8-1.6 1.2 0 .3 1.2-.2 1.8M182 650c1.3 2.4-.2 2.6-6.3.8-3.8-1.1-3.9-1.3-1.6-1.9q6.4-2 7.9 1.1m21 1q-.2 1-2.5 1c-2.3 0-3.4-1.8-1.9-3.3.9-.8 4.4 1.1 4.4 2.3m-112 1.1q-2.1 3.9-1.2-.6.4-2.2 1.3-1.9c.5.3.5 1.4-.1 2.5m98.4-1q-.6.8-1.5.3t-.3-1.5q.6-.8 1.5-.3t.3 1.5M322 651c0 1.3-3.1 2.1-5.4 1.4-2-.7-1.9-.8.9-2q4.5-1.8 4.5.6m102 2.1c0 2.3-1.6 2.5-2.4.3q-1.5-3.7.9-2.8a3 3 0 0 1 1.5 2.5m-339-1.7q0 .5-1 1.1-.9.4-1-.4.1-1 1-1.1 1 0 1 .4m139 2.1c3.4 1.8 3.9 2.4 2.3 2.5-2.3 0-8.3-3-8.3-4.3 0-1.1 1.2-.8 6 1.8m172.9.6q2.1 1.8 1.8 2.6-.7.4-2.1-.6c-1.3-1.1-2-.8-4.1 1.5-2.9 3.2-3.1 2.8-.8-2.1 1.9-4.1 2-4.1 5.2-1.4m20.9 1.3c.3 2.1 1.2 3.1 3.3 3.9 3.6 1.4 3.8 3.7.4 3.7q-2.5 0-2.5-1.8c0-4.8-4.7-5.4-9.2-1.2q-4.9 4.8-5.6.7-.5-1.7 2-1.7c1.4 0 3.8-1.4 5.8-3.5 3.9-4 5.4-4 5.8-.1m78.1-1.9q1 1-2.7 1c-2 0-6.9.4-10.8.9-5.4.6-7.7.4-9.3-.6-1.9-1.1-2.4-1.1-3.4.2-1.4 1.8-6.3 1.9-9.2.2q-2.4-1.2-.5-1.6c4.6-1.6 34.3-1.7 35.9-.1m-40.1 1.7c-.3.7-1.7 1.4-3.1 1.5q-5 .2-.4-1.7c4.6-1.9 3.9-1.2 3.5.2m-266.3 1.3c9.7 0 14.5.5 19 1.9 10 3.2 9.8 4.9-.7 6.1a18 18 0 0 0-8.4 2.8c-2.5 1.9-3.1 2-11.5.9-5.6-.8-10.2-2-12.6-3.4-2.8-1.7-5.5-2.3-10.8-2.4-11.5-.2-17.6-2.5-10.7-4a40 40 0 0 0 6.2-2c2.5-1 5.3-1.2 10-.7 3.6.4 12.4.7 19.5.8m207.4 3.4c1 .6 1.1 2.1.6 5.8-.5 4.1-2.3 9.1-2.5 7.3a65 65 0 0 1-.1-14q.6 0 2 .9m-153.7 2.6c2.9 1.4 4.7 2.5 4 2.5s-2.1-.4-3.1-.9-3.7-1.2-6.2-1.5l-4.9-.5c-.9-.2 2.5-2.1 3.7-2.1.6 0 3.5 1.1 6.5 2.5m-94.1 1.2c4.2 2.2 7 2.9 13.1 3.2 7.2.3 7.8.5 7.8 2.5 0 1.9 1.9 6.1 2 4.3q.1-.7 1.1-.1c1 .6-3.6 2.3-19.7 7.4-1.7.6-5.5 1-8.6 1-4.5 0-6-.5-8.2-2.5-2.4-2.2-3.6-4.2-1.8-3.1 1.4.9 3.5-1.2 2.9-2.8-.8-1.9-4.8-2.1-6.6-.4q-1.6 1.7-.3-.8a18 18 0 0 1 2.6-3.4c.9-.7 1.6-1.8 1.6-2.4s.7-2.2 1.6-3.4c2.1-3 6-2.8 12.5.5m265.9-2.1q-.1.7-1.7 1.9c-2 1.5-.8 3.7 1.9 3.3 2-.3 3.1.8 4.2 4.6q.6 1.9 2.6 1.3 1.8-.4 2 .4c0 1.9-3.9.8-7.5-2.1-2.7-2.2-4.4-2.8-6.1-2.4q-4.6 1-.1-4.6c2-2.6 4.7-4 4.7-2.4m-24 2q0 1.3-1 .9-.9-.6-1-1.6.1-.8 1-.9 1 .1 1 1.6m-3.6 4.8c1.8 3.5 1.2 5-1.5 3.6q-2-1-1.9-4.7-.2-6 3.4 1.1m88.2 3.3c-.3.8-1.3 1.3-2.2 1.1s-1.9.3-2.1.9q-.4 1.2 1.1 1.3 3.3-.1-.6 9.5-3.7 9-7 3.4a19 19 0 0 0-10.1-5.9c-.8 0-3.1 1.1-5.1 2.5s-3.9 2.5-4.1 2.5c-.6 0 0-16.5.7-17.6.4-.6 2-.9 3.6-.6 1.7.2 4-.1 5.2-.8 1.7-.9 2.5-.9 3.9.4 2.5 2.2 4.1 2 8.1-1.3l3.4-2.9 2.8 3.1c1.6 1.6 2.7 3.6 2.4 4.4m-134.1.8q-1.7 3.4-3.6 3.5c-2.2 0-2.5-1.3-.5-2.9.8-.7 2.2-2.9 3.2-4.9 1.6-3.2 1.9-3.4 2.2-1.5a13 13 0 0 1-1.3 5.8m-109-4.7c1.5 1 1.4 5.2-.1 5.2q-1.2-.1-1.9-1t-2.6.4c-3.4 2.4-30.4.7-27.8-1.8.5-.4 6.9-1.4 15.4-2.2 3.3-.3 6.2-.8 6.4-1 .8-.7 9.6-.4 10.6.4m171.9 2.1q.4.9-.9 2.1c-1.3 1-1.5.9-1.5-.9 0-2.1 1.4-2.8 2.4-1.2M266 674.1c0 1.4-4.2 2.1-5.3 1a5 5 0 0 0-2.8-1.1c-2.3 0-3.5-2-1.9-3 1.3-.8 10 1.9 10 3.1m57.3 1.1c1.9 2.4 3.7 5.3 4.1 6.4s1.5 2.9 2.6 3.9 2 2.5 2 3.2c0 2.5-2.4.8-4.3-3-1.9-4.1-3.2-4.9-2.2-1.5q1 3.2-.7.3l-1.4-2.5c-.7-3.6-1.9-6.6-2.8-7.2-1.8-1.2-6.6-.9-6.6.4q0 1-.5.7c-.2-.3-.2-1.5.2-2.7 1-3.9 5.6-2.9 9.6 2m-129.9-2.6c3.9 1.5.9 2.2-8.1 1.8L175 674q-.3-.1 1-1a48 48 0 0 1 17.4-.4m219.7 2c1.7 2.1 6.3 4.4 8.9 4.4q1.8 0 2 1-.2.9-1.9 1c-1.1 0-2.3.4-2.6 1-1.2 2-3.2.9-5.1-2.7-2.5-4.8-4.6-5.2-9-1.8-1.9 1.4-4.2 2.5-5.2 2.3q-1.7-.3 3.8-3.5c6.5-3.6 7.3-3.8 9.1-1.7m-24.6 2.4q.4.9-1.5 1c-1.9.1-1.8-.5-1.5-1q.6-1 1.5-1 1.2 0 1.5 1m-168 2.3c3.9.7 6.8 1.7 6.5 2.2s-1.6.9-3 .8l-17.7-.9c-13.9-.6-15.5-.6-17.3 1.1-1.1 1-1.7 2.2-1.4 2.6.3.5-.5.9-1.6.9-3.4 0-15.9 4.1-17.5 5.7-.8.8-1.5 2.3-1.5 3.3q.2 1.8-4.9 3.5c-2.8.9-6.2 2.9-7.8 4.5-2.2 2.2-4.6 3.3-10.8 4.5-4.3.9-10.2 2.6-13 3.7-5.9 2.4-26.9 3.8-28.7 2-1.5-1.5 1.7-5.2 4.3-5.2 1 0 2.1-.5 2.4-1.1q.8-1 1.8.5c1.5 2 8.7 1.1 8.7-1q.2-1.3 2-1.4 4.2.1-1-4.7c-2.9-2.7-4.1-7.3-1.9-7.3q.9.2.7 2.2c-.4 2.9 6.4 7 8.3 5.1 1-1 .9-1.7-.6-3.3-1.8-2-1.8-2 .5-2 1.9 0 2.1-.4 1.6-2.6q-.7-2.5.4-1.9c.5.3 1.4-.5 1.9-1.8 1.3-3.3 2.8-3.7 10.8-3 6.9.5 7.4.4 30-5.7 5.5-1.4 9.3-1.8 16-1.4 4.8.2 11.5.1 14.8-.4 6.3-.9 6.7-.9 18 1.1m173 1.6c-.6 1.9-1.6 2.4-6.5 3.3q-1.5.2-2-.7c-.3-.6 1-1.1 2.7-1.3q3.3-.4 4.4-2.3c1.3-2.5 2.3-1.8 1.4 1m-83.3-1.3c.8.7-3.8 7.6-5.7 8.7q-1.3.6-2-.3-.4-.9.8-1c1.2-.1 2.2-1.8 3.1-4q2-5.5 3.8-3.4m-43.7 1.4q-.7.9-1.6 1-.9-.1-.4-1a2 2 0 0 1 1.6-1q.9 0 .4 1m145.5 3.7c0 .7 1.1 1.9 2.5 2.5 2.3 1 2.4 1.3 1 2.1-1.3.7-2.5.1-4.9-2.2-1.8-1.7-3.8-3.1-4.6-3.1q-1.5-.1 1-2.1c2.3-2 2.5-2 3.7-.3.7 1 1.3 2.4 1.3 3.1M79 682q0 .9-.4 1-.6-.1-1.1-1-.4-1 .4-1 1 0 1.1 1m222 1.1q0 .8-1 .9-.9-.1-1-1.6.1-1.3 1-.9 1 .6 1 1.6m49 1.4q0 1.3-.9 1.5c-1.3 0-2.2-1.6-1.4-2.4 1.1-1.1 2.3-.6 2.3.9m51.4 1.7c-.7 1.1-3.4 1-3.4-.1q.2-1 1.9-.8t1.5.9m-143.7.4q-.6.5-1.9.1-1.1-.5.6-.6t1.3.5m166.3 1q0 1.6-1.6 1l-2-.6q-.4-.1.1-1c1-1.6 3.5-1.2 3.5.6m-199.4.7q.3.6-2.2 1.3l-8.7 2.1a62 62 0 0 1-18 2.3c1.1-1 15.8-4 19.2-4 1.6 0 3.4-.6 4-1.3 1.1-1.4 4.5-1.6 5.7-.4m166.9.7c-.8 1.3-4.5 1.3-6.5 0q-1.8-1 2.8-1 4.1 0 3.7 1m17.9 4.8c-2.1.5-5.9-3.2-4.9-4.8q.7-1.2 3.7 1.7c2.4 2.3 2.7 2.9 1.2 3.1m45.9-4.4c.9.7 1.7 1.7 1.7 2.1q-.2.6-1.5-.5c-1.3-1.1-2.4-1-3.6-.7q-2.4.8-.8-.9c1.4-1.7 1.9-1.7 4.2 0m40 1.8c.7 2.7-.2 4.5-1.4 2.7s-1.1-4.9 0-4.9q.9.2 1.4 2.2M183 692.6c-2.5.8-5.2 1.3-6 1.1-1.9-.5 4.7-2.5 8-2.5q2.6 0-2 1.4m119-1.2q0 .5-1 1.1-.9.4-1-.4.1-1 1-1.1 1 0 1 .4m-48.7 1.6h5.5q12.2 0 14.7 2c1.5 1.2 1.9 1.1 3.6-1l2-2.5-.7 2.9c-.6 2.7-.5 2.8 1.9 2.3q2.5-.7 3.1.8t3.4 1.3c1.5-.1 3.3.1 3.9.5q1.2.6 2.3-1 1.2-1.9 1.6-.6c.3.7 1.6 1.3 2.8 1.3 2.7 0 8.5 5.5 12.7 12.3a73 73 0 0 0 7.8 10c2.5 2.6 4.7 5.8 4.8 7l.5 9.7.3 7.5-99.8.2c-78.2.2-99.8 0-99.4-1 .2-.7 2.6-1.7 5.3-2.3q4.8-1 4.9-2.5c0-2.3-8-1.7-11.5.9a11 11 0 0 1-4.3 2.2c-.8 0-2 .7-2.7 1.5q-1.3 1.5-6.1 1.5c-4.6 0-4.9-.2-4.9-2.5q0-2.5-1.5-2.5-2 0-1.6 3.2c.1.9-5.9 2.1-6.7 1.3-.4-.4-.9-4.6-1-9.5l-.4-8.8 3.9-.6c2.1-.4 8.7-1.1 14.7-1.6s11.5-1.5 12.3-2.1c1-.9 4.1-.9 12.1-.1 5.9.6 15 1 20.2 1a69 69 0 0 1 23 2.6l24.5 4.5c14.8 3.1 26 4.9 26.9 4.3.6-.3 2.5-.5 4.3-.3 4 .3 8.3-2.4 8.3-5.4 0-1.9.7-2.4 3.8-2.7 2-.3 4.7-.1 6 .3s3.6.9 5.2.9 3.1.4 3.5.9c.8 1.4-2.7 2.2-8 2-5.1-.3-7.5 1.2-5.6 3.5 1.5 1.8 24.8 3.4 27.8 1.8q1.9-1.1 5.9-.1c9.3 2.4 11.1 2.5 15.5 1.3 6-1.9 7.6-1.7 8.2.6.4 1.5 1.4 2 4 2 4.6 0 8.7-1.6 8.7-3.3 0-1.9-3.3-4.7-6.6-5.6-3.1-.8-10.4.3-14.1 2.1s-21.7-2.2-30.4-6.7c-6.8-3.6-28.5-6.7-33.3-4.9-2.6 1-1.8 3.1 1.4 4.3 4 1.3 3.8 3.7-.3 5-2.7.9-4.6.8-9.3-.5-3.2-.9-8.3-2.2-11.1-2.7-4.7-1-5.3-1.4-5.3-3.7a8 8 0 0 0-.8-3.6c-1.2-1.9-5-3.4-6.7-2.8-.9.4-2.7.1-3.9-.6-2.9-1.5-7.1-1-7.1 1q0 1.5 3.5 1.8c1.9.2 3.9 1 4.3 1.8s1.7 1.4 2.7 1.4q1.8.1 2 1.1 0 1.1-3.2.5c-1.8-.4-7.3-1.1-12.1-1.7-4.9-.5-9.3-1.1-9.7-1.4a84 84 0 0 0-25.3-3c-8 .8-25.7-.3-25.7-1.6 0-1.6 21.7-7 27.5-6.9a7 7 0 0 1 5 2.4c2.9 3.4 5.1 3.8 9.2 1.6 2.7-1.4 4.7-1.8 7.5-1.4 2.9.5 3.8.3 3.8-.8 0-3.7-5.3-4.9-11.6-2.6-2.8 1-3.5.9-6.2-1.3-1.7-1.3-3-2.8-2.8-3.4.6-2.4 10.2-4.6 19.6-4.5a306 306 0 0 0 51-7c1.9-.5 7.1-.7 11.5-.4zm108.2 0q.4.9-.4 1-1-.1-1.1-1 0-1 .4-1t1.1 1m-276.2.6q.4.8-1 3.1c-1.5 2.3-1.5 2.5 1.3 5.4 2.7 2.8 2.9 2.9 4.2 1.2 1.2-1.7 1.4-1.7 2.3-.1q2.2 3.7 3.9-.7 2.1-5 3.5.5c.9 4-2.7 9.5-5.3 8.1a3 3 0 0 0-3.4 0q-1.6.9-2.5-.3c-.4-.7-2.1-1.3-3.8-1.3-2.6 0-3-.3-2.7-2.4.3-2.8-1.6-5.4-3.5-4.7q-1.2.4-1.3-.7c.1-3.2 1.4-5.6 3.6-6.1 1.3-.4 2.4-1.1 2.4-1.6 0-1.1 1.3-1.3 2.3-.4m252.5.6c.7.7 1.2 2.5 1.2 4.1 0 2.3.3 2.7 1.9 2.2q1.9-.5 4.7 1.8c1.6 1.3 5.7 4.3 9.2 6.7q8.6 6 5.3 6c-1.7 0-9-4.3-12.1-7.2-1.7-1.5-3.5-2.6-3.9-2.4-1.4.9-6.6-4.2-6.6-6.6q0-2.3-1.6-2c-.9.1-2.4-.7-3.4-1.8-1.8-2-1.7-2 1.1-2 1.7 0 3.5.5 4.2 1.2m131.2 1.7c0 3.7-1 6.2-2.1 5.5-1-.6-1.2-4.5-.3-6.8 1-2.6 2.4-1.8 2.4 1.3m-6-.5c0 1.5-2.6 4.6-3.8 4.6q-.5 0 .6-1.2c1.1-1.2 1.2-2 1.2-3s.5-1.8 1-1.8q1 .1 1 1.4m29 3.2c.5 1.3.7 3.1.3 4-.5 1.4-.8 1.3-1.9-.7-1.6-2.9-1.8-7.3-.3-6.4.5.4 1.4 1.8 1.9 3.1m-398.4-1.5q.4 1.1-.5 2.2-1.1 1.2-1.1-.1-.2-1.1-2.1-1.2-1.7-.1-1.4-1c.8-1.3 4.2-1.3 5.1.1m311.4 1.7c0 .4-1.3 1.5-2.9 2.5-2.8 1.6-2.9 1.6-3.4-.4q-.4-2.3-2.7-1.6c-3.2.8-1.4-.6 2.3-1.9 3.1-1.1 6.7-.3 6.7 1.4m-292 .8c0 1.4-1.2 1.9-2.3.8-.9-.9.4-3.5 1.4-2.8q.8.6.9 2m306.2 2.1c.2 2.2.8 2.8 2.6 2.6q2.3-.4 2.2 1.7 0 4.8-6.3-2.5c-3.8-4.4-3.8-4.5-1.3-4.5 2 0 2.5.6 2.8 2.7m35.3 3.3c2 0 4.5-.5 5.6-1.1q2-1 3.4.1 1.4 1 2.6.4 1.3-1 .4 3.2-1.6 8.5-3.8 6.4-1.4-1.4.1-1.7c1.5-.6 1.6-3.3.2-3.3q-1 .1-1.6 1.4t-2 .9c-.8-.3-2.4.3-3.4 1.2-1.9 1.7-2.1 1.7-4.1-.9-1.2-1.5-3-2.6-4.5-2.6-2.2 0-2.4-.4-2.4-5.1v-5.1l2.9 3.1c2.2 2.4 3.8 3.1 6.6 3.1m-66.5-2c0 .6-.8 2.3-1.7 3.7l-1.7 2.6-.7-2.4c-.3-1.3-.1-3 .4-3.7 1.1-1.5 3.7-1.6 3.7-.2m6.4 3.7c-2.3 1.7-3.7.6-2.3-1.8.9-1.7 1.3-1.8 2.6-.8 1.3 1.2 1.3 1.4-.3 2.6m19-.2q2.6 4.3-2 1c-1-.8-3.2-1.5-4.9-1.5q-3.4 0-1.5-1c2.8-1.8 6.7-1.1 8.4 1.5m-5.7 5.1q-.7.5-1.9.1t.6-.6q1.8 0 1.3.5M452 717c2.2 2.2 3.5 4.2 2.9 4.6-1.7 1-3.9-.4-3.9-2.6q-.2-2-1.2-1.9c-2.1.3-4.8-1.2-4.8-2.7 0-2.5 2.9-1.5 7 2.6m47-1q0 .9-.9 1-1-.1-1.6-1-.4-1 .9-1 1.5 0 1.6 1m-106.2.7c-1 .2-2.6.2-3.5 0q-1.3-.5 1.7-.5c3 0 2.7.2 1.8.5m69.6.8q1.8 1.4 1.4 2c-1 1.1-5.8-.7-5.8-2.1 0-1.8 2-1.7 4.4.1M70 721q-1.1.8-.7 1.7t-.8 1c-1.9 0-1.9-.1.2-4 1.4-2.6 1.8-2.9 2.1-1.3.2 1-.2 2.2-.8 2.6m339.4-2c2.5 1.2 4.6 2.4 4.6 2.8-.1.4-1 1.8-2.2 3.2q-2 2.5-2.5 1.2a2 2 0 0 0-1.9-1.2q-1.3-.1-1.4-1.4c0-.7-.7-1.9-1.5-2.6-1.2-1-1.8-1-3 0-2.1 1.8-1.9 4.1.5 4.7q1.8.6 2 1.9t1.7 2.3c2.4 1.3 1.4 2-1.9 1.4-1.5-.3-4.6-2.3-7-4.5l-4.3-4 6-2.8 6.1-3zm-291-.1q1.4 2.1-8.7 2.1c-3.4 0-7.7.4-9.5.9-2.7.8-3.2.7-3.2-.8 0-1 .3-2.1.7-2.4 1-1 20.1-.8 20.7.2m305.1 2.1q.4.9-.9 1-1.8 0-2.1-1t.9-1q1.8 0 2.1 1m-36.5 2c1.3.9 1.3 1.1 0 2q-3.1 2.3-3-1c.1-3.3.8-2.5 3-1m63.1 2.3c-.1 1.2-1.5.9-1.9-.4q-.4-1 .8-.8 1 .5 1.1 1.2m11.9-.8c0 1-2.4 5.5-2.9 5.5-.3 0-1.5-.8-2.6-1.7q-2.4-1.9-.2-1 1.8.8 1.7-1.3 0-2 2-2 1.8 0 2 .5m-99.4 18.2q-.6 1.3-5.6 1.3c-4.9 0-5-.1-5-3a9 9 0 0 1 1-4.3c3.9-4.6 5-6.1 5-6.8q.2-.7 2-1.4t1.9-1.3q-.1-.8.2-1.7c.2-.6.5 2.8.6 7.4.2 4.6.2 9-.1 9.8m58.9-16.5c2.5 1.1 2.6 1.4 2.3 9.2l-.3 8.1-10.7.3c-6.6.2-10.8-.1-10.8-.7s1.6-2.2 3.6-3.7 5.4-5.4 7.5-8.6c2.2-3.2 4.4-5.8 4.9-5.8s2.1.5 3.5 1.2m32.5.8q0 .9-.4 1-.5-.1-1.1-1-.4-1 .4-1 1 0 1.1 1m-6 5q.1.9 1.5 1c1.4 0 4.2 4 2.8 4q-.6.1.3.8c2 1.2-.2 5.2-2.8 5.1h-2.3l2.3-1.1q2-1 2.2-2c0-1.7-2.9-1.9-5.4-.3l-2.5 1.7.9-3.3c.5-1.7.7-3.6.4-4-.6-1.1.4-2.9 1.7-2.9q.8 0 .9 1m-386 .4q0 .5-1 1.1-.9.4-1-.4.1-1 1-1.1 1 0 1 .4m385 9.6q-.1.9-1.1 1-.8-.1-.4-1 .6-1 1.1-1 .4 0 .4 1m-123.5 9c0 2.4-10.7 2.7-82 2.9-35.7 0-84.2.4-107.7.8q-42.7.6-42.8-.4c0-.5.8-1.7 1.8-2.6 2.4-2.2 4.6-2.2 128.2-2.2 90.4 0 102.5.2 102.5 1.5M43 754.9c0 .5-2 2.2-4.5 3.8s-4.8 3.7-5.1 4.8c-.4 1.1-1.5 3.1-2.5 4.4a8 8 0 0 0-1.9 4c0 2.2-4.6 8.5-5.4 7.3-.3-.5.3-1.7 1.4-2.7s2-3.1 2-4.6.4-3 .9-3.4c1.2-.7 4.1-6.4 4.1-7.9 0-1.8 6.3-6.5 8.8-6.6q2 0 2.2.9m282.7 5.4a8 8 0 0 1-3.8 3c-1.9.5-1.7.1 1.1-2.8 3.7-3.8 5.1-3.9 2.7-.2"/><path d="M195 374.2q0 3.8 1.1 1.8 1.3-2 .6 0c-.2.8-1.5 1.5-3 1.5q-3 .3-1.5-1.3c.9-1.1.7-1.1-1.4-.2-2.2 1-2.4 1.5-1.5 3.4.6 1.3 1.6 2.3 2.1 2.3s2.3.4 3.9.8c3.3.9 3.6-.2.5-1.5l-2.3-.9h2.2c1.2-.1 2.9.6 3.8 1.5q3.3 3.1 4.2-3.9c.3-2.8-.1-3.6-2.3-4.5-1.4-.7-3-1-3.5-.7q-.8.5-.9-.4t-1-1.1c-.5 0-1 1.5-1 3.2m5.7 3.4q.2 2.7-.9 1.6c-.6-.6-.8-1.8-.5-2.6q1.2-3.4 1.4 1m-.8 14.4c-2.6 1.5-1 10 2.4 12.1 1.4 1 4.8-.2 4-1.4q-.5-1 .9-.4 1.7.6 2.1-1.4c.7-2.8-.2-5.6-2.1-6.3a15 15 0 0 1-3.7-2q-2-1.5-3.6-.6m5.4 7.6q-.6 1-2.4.7-2.1-.6-.9-1.3 1-.8.5-2c-.5-1.2-.2-1.6.6-2.1q1.4-1 2 1.4c.3 1.2.4 2.7.2 3.3m-9.3.8q.1.4 1.5 1 1.4.4 1.5-.4-.1-1-1.5-1c-1.4 0-1.5.2-1.5.4m-15 12.7q.1.8 1 .4 1-.6 1-1.1 0-.4-1-.4-.9.1-1 1.1m107.4 16.5q-1.6 1.4-.5.8 1.6-.9.8 1l-.7 2.2q0 .5-.9-.1-1-.3-.8 1.5c.3 3.8 3.9 1.5 5-3.2.9-3.3-.4-4.2-2.9-2.2m-7.8 2.9c-.8.9-1.3 2.2-1 3 .7 1.7 2 1.9 2.9.5q.7-1 1.6-.5c1.6 1.1 1-.7-.8-2.2-1.7-1.4-1.7-1.4 0-.9q1.7.5 1.2-.4-1.3-2-3.9.5m19.9.4q-.4.9.3 1.5.8.4.9-.9 0-2.5-1.2-.6m3 1.1c-.8 1.3.4 5 1.6 5 .5 0 .9-1.4.9-3 0-3-1.3-4-2.5-2m-6.1 2.5c-.3.8.1 2.2 1 3 1.5 1.5 1.7 1.5 2.3-.1s.7-1.6 1.3.1q.6 1.8 1.3.7c.7-1.1-2.9-5.2-4.5-5.2q-.9.1-1.4 1.5m-14.4 2q.1 1.4 1 1.5 1-.1 1-1.5c0-1.4-.4-1.5-1-1.5q-.9.1-1 1.5m-3.5.5q.6.9 1.1 1 .4-.1.4-1-.1-1-1.1-1-.8 0-.4 1m-11.8 11.7q1 2.3-1 .4c-1.5-1.1-1.7-1.1-1.7.2q.1 1.4 1.3 2 1.3.3-.3 2.2t-.2 1.1c.8-.5 2.4-.3 3.8.5 2.3 1.2 2.3 1.4.7 3.1-1.9 2.1-.6 2.4 2.1.3 1.8-1.4 1.8-1.5-.2-3.9-1-1.4-2.2-2.3-2.5-2q-.5.4-1.3-.8-.6-1.1.1-.6c.4.4 1.6.3 2.6-.3q2.7-1.7 2 2.8c-.2 1.5 2.5 1.8 3.3.4q.4-.9-.9-2.1c-1.8-1.5-2-3.4-.2-2.4q1 .7-.2-1c-1.4-1.6-1.6-1.6-2.7-.2q-2.2 3-2.4.1-.2-1.4-1.5-1.5-1.4 0-.8 1.7m19.3 4.8c-1 1.2-.9 1.6.3 2.1q1.4.6 1.1 1.9c-.7 1.6 1.2 2.9 2.1 1.5q.5-1.1-.5-2.5c-1-1.4-.9-1.9-.6-2.4 1-1.6-1.1-2.2-2.4-.6m6.2 3.5c-1.5 2.4.5 4.4 2.4 2.5.8-.7 1.4-2 1.4-2.8 0-1.9-2.5-1.7-3.8.3"/><path d="M290.5 463q-.5.9.4 1 1-.1 1.6-1 .5-1-.4-1a2 2 0 0 0-1.6 1m-13.7.8c-2.2.4-2.3 1.8-.3 2.6q1.5.4 2.2-1 1.2-2.5-1.9-1.6m-14.8 3.7q-1.1 1.4-.4 1.5.9.2-1 1.1c-1.5.9-1.6 1.3-.5 2.1q1.6 1 .2 1.5-1.2.5-1.3 1.4 0 1 .9.4.9-.4 1.6.4c.9 1.5 3.3.2 4.2-2.2 1-3.1 1-4 .1-6q-1.5-3.2-3.8-.2m16.5-.5q-.5 1.2.4 2.3c1.7 1.7 1.3 2.9-.9 2.2-1.6-.5-2-.2-2 1.4q0 2-1 2.1c-1.5 0-1.2 2.6.6 4 1.2 1.1 1.8 1 3.2-.3q1.6-1.7.4-1.7-1.1.2-1.2 1.2 0 1.3-1-.2c-1.2-1.8-1.2-2.1-.1-3.9.8-1.2 1.2-1.2 2.4-.2 1.3 1 1.6.9 2.2-.8a4 4 0 0 1 2.6-2.6c2.5-.8 1.5-2.5-1.1-1.8q-2.1.6-1.8-.7c.4-1.6-1.8-2.4-2.7-1m-4 1q-.4.9 1 1c1.4.1 1.3-.5 1-1q-.6-1-1-1t-1 1m-2.1 2.6c-.7.3-1 1.4-.7 2.4.8 2.8 2.1 2.5 1.9-.5l-.1-2.4z"/><path d="M286 472.1q-.1 1-1.5.5-1.6-.6-1.4 1.7 0 1.9.6.9.4-1.5 1.9-.1 1.7 1.6.8-.5-.4-1.5.5-1.6 1.2-.2 1.1-1 0-1-1-1-.9.1-1 1.1m2 4.9q0 2.7 1.2 1.2 1.3-1.2 0-2.4-1.3-1.5-1.2 1.2m-16.3-.3c-1.3 1.2-.7 3.1 1.1 3.8q1.9.8.5-.6c-.6-.6-.9-1.8-.6-2.5q.7-2.3-1-.7m-25.7 1.9c-1.1 1.2-1.5 1.2-2.1.2q-1-1.5-.9.1c0 .8.7 2.2 1.6 3.2q1.7 1.8.3 2.5-1.2.8-.4-.6t-.3-.6q-2.8 2 1.3 2.8 2.5.6 5.1-1.9c2.7-2.5 2.9-5.8.4-5.8-.8 0-2-.4-2.6-.8q-1.2-.5-2.4.9m-8 15.3q.1.9 1.6 1.5c2.2.9 2.4.8 2.4-.9q-.2-1.4-2-1.5c-1.8-.1-2 .4-2 .9M127.2 610.7c-2.7 3.9-3.5 8.8-1.7 10.3 2 1.7 4.1-.1 5-4.1.4-1.6 1.1-3.1 1.6-3.4.5-.4.9-1.7.9-3.1 0-3.4-3.3-3.2-5.8.3M468.5 680c-.7 1.2.2 3 1.6 3q.8-.2.9-2c0-2.1-1.5-2.7-2.5-1m-341.1 49c-1 .4-7.1 2-13.4 3.4-12.3 2.9-18 5-18 6.5 0 1.6 2 2.4 3.3 1.3.7-.5 4.1-1.5 7.7-2.1a158 158 0 0 0 20.8-5.7q4.4-1.4 6.2-.4c2.7 1.4 5.6 1.2 7-.5q1.5-1.6-.1-1.9a39 39 0 0 0-13.5-.6"/><path d="M115.2 737.6c-7.2 1.9-9.7 3.3-8.4 4.6q1 1.2 5.9-.7c2.6-1 5.5-1.9 6.3-2 2.3-.2 4.1-1.5 3.5-2.6-.7-1.1-.7-1.1-7.3.7m25.1 2.1q-2.1.6-2.3 1.9c0 1.1 2.1 1.4 10.9 1.4 5.9 0 13.5.2 16.7.6 6.2.5 9.8-.6 7.8-2.6-1.1-1.1-28.3-2.1-33.1-1.3m127.1-241.3c-.3.8-.1 3.1.5 5.3s1.1 4.7 1.1 5.7c0 2 0 2-1.4 0q-3.2-3.8-4.1 4.7a170 170 0 0 1-12.1 42.2c-1.9 4.8-1.9 4.9 0 6.3q1.8 1.2 2.5.6c.9-1.2 5-1 4.8.3q0 .9 1.8 1c2.6 0 3.4 3.5.8 3.6h-3q-1.2 0-1.3 1.4c0 1.8 2.1 2 3.9.2q1.6-1.6.7.6l-.6 2.3q0 .4-1-.1t-1 .9q-.2 1.8-1.2 2.2-1.2.8-.4-1.1.9-2.2-.9-.5c-1.8 1.5-1.5 2 1.2 2.4 2.1.4 2 4.1-.3 6.3-.8.8-1.4 2-1.4 2.6q.1 1 1.1-.3 1.1-1.8.5 2c-.8 4.9-.8 11.1 0 13.7q.5 2.2-.4 2.3t-.5 2.1q.6 2.4 1.5.7.9-1.4.3 1c-.9 3 1.4 6.3 6 9.2s6.7 1.5 4.1-2.4c-.9-1.5-2.1-2.6-2.6-2.6q-1-.1-1-1.4-.1-1.5 3.5-1l3.5.3-.4-4.6c-.3-2.5-.7-4.7-1-5-.9-.9-7.6-2.1-7-1.2q.4.8-.5.9c-1.5 0-1.8-4.9-.8-13 .7-5.3 1.8-9 2.8-9q.8-.1.3-1.3c-.2-.7.5-4.1 1.6-7.6s2-7.4 2-8.6.3-2.5.7-2.8c.7-.8.8-1.6 1.8-16.1.6-8.8 1-10.9 2.4-11.3.9-.2 2.1-1.5 2.8-2.9q2.3-4.8-2.4.6c-1.3 1.6-3.2 3-4.1 3q-1.6 0 1.5-2.3c1.8-1.2 3.3-3 3.3-4q0-1.5 1-1.7c1.3 0 .8-4.1-.6-5.7-.6-.6-1.4-3.5-1.7-6.5-1-8-2.6-12.8-4.3-12.8q-1.4.1-2 1.4m-2 38.2c-.1 1.5-.8 3.1-1.6 3.5q-1.4.8.5 1.5 1.5.6 1.7 1.6-.1.8-1 .3c-1.3-.8-3.8 1.7-3.2 3.3q.2 1-.7 1.2c-1.5 0-1.4-2.2.4-4.6.8-1.2 1.2-2.4.8-2.7q-.5-.7.6-2.1 1-1.4 1-2.2-.4-2.4 1-2.4c.4 0 .7 1.2.5 2.6m.6 9.4q-3 2-3 0 .2-1 2.3-1 2.6-.1.7 1m0 2.4q0 .5-1 1.1-.9.4-1-.4.1-1 1-1.1 1 0 1 .4m-3.5 1.5c.3.5-.4 1.6-1.5 2.4-1.8 1.3-1.9 1.6-.5 2.7q1.8 1.7 1-.3-.5-1.4.4-2.2 1-.4 1.1.5.2 1.1 1 .5c1.2-.8 1.3-.3 0 2.9-.5 1.4-1.4 2.6-2 2.6q-1 0-.5-1 .4-.8-.8-.4-1.5.5-1.9-1.9c-.8-4.3 1.9-8.6 3.7-5.8m-4.3 7.6q.6 2.9-.8 1.4c-.7-.6-1-1.7-.7-2.5q.9-3.1 1.5 1.1m3.8 4.6q0 .9-1 .4c-.5-.3-1-1.1-1-1.6q.1-.9 1-.4a2 2 0 0 1 1 1.6m5 40.4q-1.4 1.4 1.1 1.7c3.5.5 3.4 2.5-.1 2.4q-3 0-3.6-2.1-.6-1.8.5-2.3 1-.4.6-1.3-.5-.7 1-.3 1.7.6.5 1.9m-11.3-94.4q.6 1.8 1.5 1.9c.9.1.7-.4.4-.9q-.5-.9.6-1.3 1-.5-.8-1-2.4-.8-1.7 1.3m-26.2 4.9q-.4.9.4 1 1-.1 1.1-1 0-1-.4-1-.6 0-1.1 1m8.5 2.9c0 2.6-4 3.9-5.2 1.7-1.1-2-3.8-2.1-3.8-.1q.1 1.3 1.5 1.5c.7 0 1.8.7 2.3 1.6 2 3.6 9.3-1.3 7.8-5.2-.8-2.1-2.6-1.7-2.6.5"/><path d="M233.2 516.1q.5 1.2 1.7 1.7 1.3.4.9-.9-.5-1.2-1.7-1.7-1.3-.4-.9.9m16.1-.4c-.7.3-1.3 1.7-1.3 3.1 0 2.2.6 2.9 3.4 3.8s3.5.8 4.4-.7c1.4-2.2-1.3-3.5-3.6-1.7q-1.5 1.2-.9.1c1-1.6-.6-5.1-2-4.6"/><path d="M252 516.3q.2 1.6 1.8 1.7 1.5-.1.7-.8l-1.7-1.6q-.8-.7-.8.7m-30.3 14c-.3.8-.2 2 .3 2.7q.7 1.4 1.9-.6 1-1.7 1.1-1 0 1.1-1.6 2.7c-1.2 1.4-1.3 2.2-.4 3.8 1.2 2.4 3.5 2.9 2.6.6q-.6-1.5 1.6-1.5 1.9 0 1.5-.7c-.8-.7 1.1-3.3 2.4-3.3q.8 0 .9 1-.1.9-1.6 1-1.3.1-.9 1 .7 1 1.6.5.8-.5.9.3-.2 1-2.5 1.6c-2.8.7-3.4 3.6-.7 3.6 1.8 0 4.5-2.6 5-4.9.1-.7-.4-2.4-1.3-3.8-1.4-2.1-1.9-2.2-3.3-1.1q-1.5 1-1 .4c.9-1.1-2.1-3.5-4.3-3.6-.9 0-1.9.6-2.2 1.3m51.9 1.2q-.4 1.3.4 1.5 1 .2 1 1.5c0 2 1.6 1.9 2.4-.1.6-1.6-.9-4.4-2.4-4.4q-.7.2-1.4 1.5m-103.3 2.1q.1 1.3 1.4 1.4t1.3-.9q0-1.2-1.3-1.4-1.3-.4-1.4.9m73.8 1q0 1.7.6.6.4-1.2-.1-1.9-.6-.5-.5 1.3m2.8.2v1.5q0 .7-1.2 1.3-1.3.5-.9 3 .3 2.7 2.6 2.2c1.1-.2 2-.9 1.8-1.6s.4-2.3 1.3-3.5 1.5-2.4 1.5-2.7c0-.9-5-1.1-5.1-.2m-71.9.7c0 .3.7 1.4 1.6 2.3 1.5 1.4 1.6 1.4 1.3-.3s-2.9-3.5-2.9-2m98 2.1q.1 1.3 1 .9t1 .6q0 1.5 1.2.1 1.5-1.3-.2-2.2-3.1-2.1-3 .6m-31 3.1q.1 1 1 2.3 1.1 2 1-.8 0-2-1-2.2-.9 0-1 .7m-37.3 6.4q1.2 1.1 1.8.7.4-.6-1.2-1.2-2-1-.6.5m6.3-.1q.1.9 1.6 1 1.3-.1.9-1-.6-1-1.6-1-.8 0-.9 1m26.3 7.3q-.4.9.5.3 1.1-.6 1.2.8t-1 2.1q-.7.6-.3 2.2c.6 1.5.7 1.4 1.4-.3q.8-2.4.8-.2c.1 1-.8 2.2-1.9 2.8q-2.2 1.3-2-.4c0-.7-.7-1.7-1.6-2q-1.8-.8-.9 1.1c.4 1 .8 2.5.9 3.2.3 1.7 2.6 2.8 2.6 1.2q.1-1 1.5-.5t1.5-.5c.1-1 .3-1 .8-1q4.5.9 3.9-2.9c-.6-5.2-5.4-9.1-7.4-5.9m-4.3.7q.1.9 1 1 1-.1 1-1t-1-1a1 1 0 0 0-1 1m-42 2.9q.1 1 1 1.6 1 .5 1-.4a2 2 0 0 0-1-1.6q-.9-.5-1 .4m78.8 2.7-.4 3.5 1.7-2.3c1-1.2 1.6-2.6 1.3-2.9q-.2-.7.8-1.2t-.8-.6c-1.8-.1-2.3.6-2.6 3.5m-45.6.3q.1 3 1.6 2.3 1.6-.7.7 1.6-.4 2 .3 2.2c.7.2 1.2-.9 1.5-2q.4-1.8-.3-2-.8-.2-1.4-2.5c-.9-3.4-2.7-3.2-2.4.4m-8.1-.8a8 8 0 0 1-3.8.5c-1.8-.7-1.6.7.5 3.2q1.8 2.2 3.4 1.1c1-.5 1.5-1.6 1.2-2.4q-.6-1.3.4-1.5 1 .2 1.5 1.2.6 1.5.6 0 .2-1.2 1.4-.6 1.3.8-.2-.9c-1.5-1.9-1.7-1.9-5-.6m4.4 4q-2.5.8-.2.8c2 .1 2.3 2.7.5 3.4q-1.2.5.4.6c2.1.1 2.6-.8 1.9-3.5-.5-1.7-1-1.9-2.6-1.3m35 1.9q.6.9 1.1 1 .4-.1.4-1-.1-1-1.1-1-.8 0-.4 1m-26.5 2q0 1.8 1 2 .8.2.3 1.5-.4 1.5.8 1.3 1.3-.3 1.4 3.4c0 3.2.2 3.5 1.9 2.6 1.8-1 1.9-1.1.2-2.3-.9-.7-1.6-1.7-1.5-2.1.3-1.1-2.8-8.4-3.5-8.4q-.6.2-.6 2m-36 0q-1.9.9.3 1.6 3.3 1.1 1.9-1.3-.8-1.2-2.2-.3m20.5 4c.2 2.4 1.5 4 1.5 1.7l.1-2.4q0-.7-.9-1.1-.8 0-.7 1.8m-20.2.6q.1 1.3 1.4 1.4t1.3-.9q0-1.1-1.3-1.4-1.3-.4-1.4.9m30 .1q-1.2.5-1.3 1.5.1.8 1.3.5c.6-.2 2.3.5 3.6 1.7 2.4 2.1 2.4 2.1 1.3 0q-2.5-4.3-4.9-3.7"/><path d="M229.5 575q.6.9 1.1 1 .3-.1.4-1-.1-1-1.1-1-.8 0-.4 1m15.5 1.1q0 .8 1 .4c1.5-.9 2.2 3.8 1.1 6.8-1.3 3.4 0 3.6 1.6.2 1.2-2.7.7-6.5-1.1-7.7q-2.5-1.6-2.6.3m254.3 3.4c0 2.7.2 3.8.4 2.2s.2-3.7 0-5-.4 0-.4 2.8m-256.8-2.6q-.4.9.5 1.6.9.4 1-.9 0-2.7-1.5-.7m-45.9 1.6q-.4 1.3.6 2.1 1 .6.4-.4t.6-1.4q1.3-.4.1-1.1-1-.5-1.7.8m6 .3q-.4 1 .5 1.4 1.2.4-.5 2.1c-1 .9-1.6 2.3-1.3 3 .2.6-.5 2.2-1.7 3.5-2.1 2.3-2.1 2.4-.2 3.8 1.1.8 2.7 1.4 3.5 1.4q2 .2.1-1-2-1.1.2-1c1 0 2.2.9 2.8 2q1 1.8.2 2-.7.2-.9 2-.1 1.8.8 1.5.8-.7.9-2 .1-1.2 1.3-1.8c1-.4 1-.7 0-1.8q-2.7-2.5.8-3.2c1.8-.5 2.1-.2 1.7 2.2-.3 2.3-.1 2.7 1.4 2.3q2-.4.8-1.7-.8-1-.5-1.7t-1-1.8c-.8-.7-1.5-2-1.5-2.8q.2-2-1.4.3-1.4 1.7-2.9 1.2-1.6-.6-2.1 1.1-.4 2-.3-.3c.1-1.1-.2-2.6-.6-3.3q-.7-1.2.7-2.8c1.8-1.8 1.9-2.4.7-4.3q-.8-1.2-1.5-.3m-11.3 1.2q-4.2 1.5-.4 1.7 1.8 0 2.5-1.3.5-1.3.3-1.3zm48.4.4c-2 2-1.4 3.8 1 2.9q1.9-.8.9 1.2c-.7 1.8-.6 1.8 1.4 0q3.5-3 .6-1.9-1.4.6-1.8-1.7c-.3-2.2-.4-2.2-2.1-.5m13.8.6q-.4.9 1 1c1.4.1 1.3-.5 1-1q-.6-1-1-1t-1 1m-59.1 1.6q1 1.8-1.9 1.2-2.4-.5-2.5.7 0 3.2 3.3 1c1.8-1.2 2.2-1.2 3.2.2.6.9 1.7 1.4 2.4 1.2q1.2-.5-1.3-3.2-4.4-4.6-3.2-1.1m34.1 3.2q-.6 1.5 1 .8 1.4-.4 1.5.4.2 1 1.5.3t1.2-1.7c-.5-1.6-4.5-1.6-5.2.2"/><path d="M205 585.9c0 .5.5 1.3 1 1.6q1 .5 1-.4a2 2 0 0 0-1-1.6q-.9-.5-1 .4m38.6.6q-.4 1.3.4 1.5 1-.2 1-1.5c0-1.3-.2-1.5-.4-1.5s-.6.7-1 1.5m8 .7q.5.7 1.5.8.8-.1.9-.8-.1-.8-1.5-.9c-1.4-.1-1.2.4-.9.9m.4 4c0 .7.4 1.9.9 2.7 1.1 1.7 2.3-.1 1.5-2.3-.7-1.9-2.4-2.1-2.4-.4m-38 .8q.1.9 1 1 1-.1 1-1t-1-1a1 1 0 0 0-1 1m.7 4.3c-.2.7.4 2.3 1.4 3.6 1.6 1.9 2.2 2.1 3.4 1.1q3.2-2.4-.6-3.5-2.5-.7-.8-1.6t-.7-.9c-1.2 0-2.4.6-2.7 1.3m5.3 3.1q0 .5-1 1.1-.9.4-1-.4.1-1 1-1.1 1 0 1 .4m33-2.4q.1.9 1 1 1-.1 1-1t-1-1a1 1 0 0 0-1 1m-41.5 3q-.4.9 1 1c1.4.1 1.3-.5 1-1q-.6-1-1-1t-1 1m42.5.5q.1 1.3 1 1.5 1-.2 1-1.5c0-1.3-.4-1.5-1-1.5q-.9.2-1 1.5m-39.3 3.2q-.6.6-.7 1.7 0 .9 1.2-.2 1-1 .7-1.7-.6-.4-1.2.2m239.8.2q-.4.9.5 1.6c1.2.7 3-.2 3-1.6 0-1.2-2.7-1.2-3.5 0m16.2-.2c-1.2 1.1-.8 2.3.8 2.3q1.4-.2 1.5-1.5c0-1.6-1.2-2-2.3-.8m-21.5 1.5c.6 1.8 2.8 2.1 2.8.4q-.1-1.5-1.6-1.6-1.4 0-1.2 1.2m25.4 1.5c-1.2 1.2-.6 3.3.9 3.3q1.4-.1 1.5-1.4c0-1.7-1.4-2.8-2.4-1.9m-10.6 1.8q.1 1.3 1.5 1.5c1.4.2 1.5-.7 1.5-1.5s-.7-1.5-1.5-1.5-1.5.7-1.5 1.5M201.7 611c-.3 1.1.1 2.7.8 3.6 1.1 1.6 1.3 1.4 1.7-1.4.5-3.4-1.7-5.3-2.5-2.2m6.3-.2q0 2 .9.3c.8-1.2 1.2-1.2 2.5-.2q1.5 1.3 1.6 2.4-.1.8-1.5-.9-1.4-1.6-1.5-.8c0 .6.6 1.7 1.4 2.3q1.3 1.3 2.5-.3 1.4-1.5 0-2.1-1.2-.7 0-1.5c.7-.4-.4-.7-2.4-.8-2.7-.1-3.5.3-3.5 1.6m11.6-.1q-.7 1.3-2 1c-1.1-.5-1.2 0-.2 2.4.9 2.5 1.5 2.9 3.5 2.4q2.5-.6 1.8.8c-.7 1.8.9 4.4 2 3.3q.6-.9-.6-1.4-1.4-.5 1.5-1.7l2.9-1.2-3.7-1.6q-6.8-3-1-2.1 3.4.8 1-.9-1.6-1.4-1.3-1.8.2-.5-1.5-.6c-1-.1-2.1.5-2.4 1.4"/><path d="M226 618.9c0 .6.9.9 1.9.8q1.7-.1 1.5-.9c-.7-1.1-3.4-1-3.4.1m5 3q0 1 1 1.6.9.4.4-.9-1.2-2.7-1.4-.7M56.5 665 40 666.9c-11.1 1.3-12.7 1.9-11.6 4.6q.5 1.8 3.2 1.1c5.3-1.4 17.3-2.8 27.4-3.3 11.1-.5 13.1-1.2 11-3.8-1.3-1.6-3.5-1.7-13.5-.5M.7 668.6c-1.5 1.5-.6 3.4 1.6 3.4 1.2 0 4.5.6 7.3 1.4 2.9.8 5.8 1 6.5.5 1.6-.9 1.4-1.1-2.8-3.3-3.8-1.9-11.5-3.1-12.6-2m54.5 4.1c.2 1.4 1.5 1.9 5.7 2.1 6.4.4 8.3-.2 7.5-2.3-.5-1.1-2.2-1.5-7.1-1.5-5.6 0-6.4.2-6.1 1.7m433.2 8.4c-1 1.7 1.3 3.6 2.7 2.2 1.2-1.2.4-3.3-1.1-3.3q-.9.1-1.6 1.1M0 684.4v2.6h9.3c5 0 11.2.5 13.7 1.1a255 255 0 0 0 39 .6c4.6-.3 5.5-.7 5.5-2.2 0-1.8-1.3-1.9-22-2.1-24.1-.3-40.7-1-43.6-1.9q-2-1-1.9 1.9m.1 10.2q0 1.7.6.6.4-1.2-.1-1.9-.5-.5-.5 1.3M471 784.8a7 7 0 0 0-2.4 5.2c-.2 3.4-.3 3.5-5.2 4.1-6.7.8-9.4 1.8-9.4 3.3q0 3.3 7.7 4.5l4.8.8-4.2 1.2c-5 1.4-5.8 2.3-4.3 5.1q1 2 4.3 2c1.8 0 3.9.5 4.7 1q2 1.1-.2 1c-.9 0-2.9 1-4.4 2.3-2.2 1.9-2.6 2.9-2 5.1.9 3.7 3.9 3.1 4.6-.9q.5-3.2 2.5-3c2.2 0 2.1-1.4 2.5 23.7.2 9.5.6 13.1 1.7 13.9q1.3 1.1 1.9.7c.3-.3.5-9.2.4-19.7V816l4.3-.2 12.7-.3h8.5l.2-4.2c.2-3.4 0-4.1-1.2-3.7q-1.5.6-2.5-2c-.9-2.4-1.4-2.6-7.1-2.6-8.1 0-7-.9 1.7-1.6 3.8-.3 7.3-.9 7.9-1.5 1.4-1.4-1.5-3.1-4.5-2.5-3 .5-4.4-.2-5.3-2.7q-.7-1.6-3.4-1.7h-2.8l3-2.4c2.9-2.3 2.9-2.4 1.2-5-1.6-2.3-2.4-2.6-7.6-2.6-4.2 0-6.5.5-8.1 1.8m9.5 3.2c-.3.5-1.9 1-3.6 1-1.6 0-2.9-.5-2.9-1s1.6-1 3.6-1q3.3 0 2.9 1m-.7 4.7c-1 .2-2.6.2-3.5 0q-1.3-.5 1.7-.5c3 0 2.7.2 1.8.5M468 798q-.1.9-1.4 1c-.8 0-1.8-.5-2.1-1q-.4-1 1.4-1 2 0 2.1 1m9.5.1q-2.9.8-3.9-.1t3-.9c3.9.1 3.9.1.9 1m5 8.9c2.4.6 1.7.8-3.3.9q-6.2 0-5.7-.9c.7-1.1 4.6-1.1 9 0m-15.2.7c-.7.2-1.9.2-2.5 0q-1-.5 1.2-.5c2.2 0 1.9.2 1.3.5"/><path d="M480.3 821.1c-.9.9-.7 1.7.8 3.2s2.2 1.8 3.1.9q1.4-1.2.2-2.9-2-3.3-4.1-1.2"/></svg>