<svg xmlns="http://www.w3.org/2000/svg" width="666.7" height="1170.7" viewBox="0 0 500 878"><path d="m252.7 7.7-15.2.3c-21 .3-30.7 1-30.2 2.4.2.6 1.5 1.1 2.8 1.2 4.3.2 4.9.4 4.9 1.5 0 .6 1.1 2.5 2.4 4.2a58 58 0 0 1 7.6 14.5c0 .5-2.7 1.2-6 1.4-6.3.4-7.6 1-6.6 2.7.7 1 68.4.6 69.4-.4q.4-.5-.1-2c-.5-1.1-2.2-1.5-6.7-1.5-6.8 0-6.6.5-6-11.5.3-7 1.2-8.5 5.1-8.5q3.1.1 2.9-1.9c0-1.8-.9-2-12.1-2.3a169 169 0 0 0-12.2-.1m-18.8 4.2c1.1.7.9 2.2-1.4 8.5a49 49 0 0 1-3.1 7.6c-.2 0-1.3-1.9-2.5-4.3A25 25 0 0 0 224 19c-.4-.3-1.5-1.9-2.4-3.7l-1.6-3.2 3.3-.4c6-.7 9.2-.7 10.6.2m28.8 10.4c-.2 7.9-.4 9.2-1.9 9.5-1.6.3-1.8-.7-1.8-9.6 0-10.2.4-11.9 2.6-10.1q1.2.9 1.1 10.2m-9.3-2.6c.9 10.8.9 11.5-.6 12.4-2.5 1.6-3.3.2-4-6.7-.4-3.8-.9-8.1-1.2-9.5-.6-3.1 0-3.9 2.9-3.9 2.1 0 2.3.6 2.9 7.7m-9.9.6c.4 3.4.5 7.6.3 9.2-.3 2.8-.7 3-4.5 3.3-5 .4-5.2-.1-2.4-7.9 4.6-13.3 5.6-13.9 6.6-4.6m-56.7 183.4c-5.7 1.9-6.4 4.3-1.3 4.3q7.3 0-1.4 5.8-8.5 5.6-4.6 1.2c2.1-2.3 1.4-3.6-1.2-2.5-2.7 1.2-9.3 1.4-9.3.4 0-.5 1.4-1.6 3.1-2.4 2.9-1.6 3.6-4.4.8-3.6l-4.4.9c-1.6.3-3.9 1.1-5 1.8-1.1.8-2.8 1.4-3.8 1.4s-5.3 3.5-9.6 7.8c-7.8 7.8-7.9 7.9-9.1 15-1 6.2-1 7.8.5 12.4 1 2.9 2.6 6.3 3.7 7.5 1.6 1.7 1.7 2.5.9 4.1s-.6 2.3 1 3.8q3.1 2.9.4 11c-.9 2.8 2 5.7 4.7 4.8 1.5-.4 2.6.1 4.2 2.1a9 9 0 0 0 6.4 3.2c2.3.3 4.2.9 4.2 1.3 0 1.2-4.7 2.9-6.7 2.4-3.1-.9-4.7 1.9-3 5.3 1 2.1 1.2 5 .8 11.3-.6 7.1-.8 8-1.5 5.2a27 27 0 0 1-.1-8.1c.7-5.3-.8-7.8-2.9-4.8l-2.4 3.4q-1.1 1.5-.7.5c1.3-2.7-12.4-5.8-14-3.2-.9 1.4-3.7 1.2-3.3-.2.3-.7 1.8-1.6 3.4-2l6.9-1.7c2.2-.6 5.5-.8 7.4-.4q3.7.7 2.9-.8c-1.1-3.3-5-3.8-12.9-1.9-4.2 1-8.8 2.6-10.3 3.5a28 28 0 0 0-9.2 14q-1.1 6.5-10 5.6c-1.4-.1-3.4-12.8-3.4-21.1q0-5.9-1.5-7.4c-1.7-1.7-.8-5.3 1.9-7.5q1.5-1.4 1.6-5.6c0-3.7-.5-4.7-4-7.9-3.5-3.1-4.7-3.6-9.1-3.6-6.5 0-9.9 1.8-12.8 7-2.4 4.3-2.4 4.4 0 14.7 1.5 6.6-.2 29.8-2.2 31.8q-1.4 1.4-12.1 1.7l-10.7.3-.5-2.9c-1.1-5.1-.6-13.2.8-15.1 2-2.8.9-10.4-2.1-13.7-5.2-5.5-16.2-4.2-20.4 2.5-1.6 2.6-1.9 4.4-1.5 9.2 1 13 1.2 40.2.3 44.3-.8 3.6-1.8 4.9-6.6 8.2-10.2 7.1-16.1 12.2-16 13.9 0 .9.8 3.8 1.7 6.6 1.5 4.4 2.1 5 4.2 4.7 1.4-.1 5.8-2.5 9.9-5.2 4-2.7 7.7-4.7 8.2-4.5s.8 4 .8 8.3c0 6.9.3 7.9 2.4 9.7 3.1 2.5 3.4 6.8 4.3 50.7.6 28.3.5 31.8-.9 31.8-.8 0-2.2.3-3.1.6-2.5 1-4.5-6-7-24.9a79 79 0 0 0-3.8-15c-.6-1.2-.2-2.9 1.7-6 2.2-3.8 2.3-4.6 1.1-6.3q-1.5-2-.4-3.1c1.8-2.2-.1-6.2-4.4-9.3-5-3.7-7.7-3.7-14.8-.2-9.5 4.7-12.9 13.6-7.6 19.9l2.5 2.9-.2 24.5-.2 24.4-3.7.3q-4 .3-3.8 1.9c0 1.8-1.8 2 26-3.2 18.3-3.5 41-6.8 41.7-6.2.6.7.6 9.5-.1 10.5-.4.8-3.7 1.2-8.7 1.2-10.1 0-25.6 2.6-51.9 8.6-6.2 1.4-7 1.9-7 3.9 0 2.2.2 2.3 3.6 1.3 4.6-1.2 5.4-.2 5.4 7.1 0 3.2.6 6.1 1.4 7 1 1.1 1.7 7.8 2.6 23.1l1.3 23.5c-.1 3.6 3.6 69.6 4.7 84 .6 7.7 1.1 20.5 1.3 28.4l.2 14.4-5 1.4A50 50 0 0 1 5.3 679c-5 0-5.3.2-5.3 2.5 0 2.4.1 2.4 6.7 1.9 3.8-.3 8.3-1 10-1.6q5.5-1.8 5.3 2.4.1 2.2-1.7 1.2c-2-.9-7.6-1-14.3-.1l-5.3.6c-.4.1-.7 3-.6 6.6q.2 6.8 1.3 5.5c1.4-1.4 2.6-1.2 2.6.5q-.2 1.3-2 1.5c-1.8.2-2 .7-2 1.5 0 1.3 1.8 1.5 11.2 1.3l11.3-.3.5 10.9c.4 9.4.3 10.9-1.2 11.7-.9.5-2.5.8-3.5.7h-10C0 726 0 726 0 728.6v2.7l9.3-.8 11.7-.8q2.5-.2 2.8 1.5c.3 1.6-.6 1.8-8 2H3.7C.2 733 0 733.1 0 736v3h8.9a47 47 0 0 0 11.5-1q2.5-1 3.2.1c.3.6.8 5.9 1 11.7l.9 22.2c.2 6.3.1 12.1-.3 12.7-.6 1-1.7 1-4.2.3-4.2-1.2-4.3-1.2-3.6-.1q.4.9-.8 1.4c-.7.3-2.3-.7-3.5-2.4q-3.7-5-3.7-1 0 1.8 1.3 1.4 1.3-.6.7 1.1c-.8 2.1-5.4 2.1-5.4.1q0-1.3-1-1.5-.9.1-1 1.1 0 .8-.9.5c-2.6-1.7-3.2 2.8-3 25.4l.1 23.2 4.4-.5c4.4-.5 7 .8 4 1.9-.9.3-1.6 1.3-1.6 2.1q0 1.5-2.3.9-2-.4-1 0c1 .4.9 1.2.6 2q-.4 1.3.2 1.4c1.1 0 3.5-2.8 3.5-4.2q0-1.5 1.1.2 1.3 2 .6 0c-.2-.8.6-2.2 1.7-3.1 2-1.7 2.1-1.7.2-3.8-1.1-1.2-2.9-2.2-4-2.2-1.2-.1 1.5-.7 5.9-1.3l8-1.1v-3.2c0-1.7.4-3.1 1-3q.9 0 .7-1.1c-.5-2.7 2.2-.5 3 2.4a98 98 0 0 1 0 26.6c-.6.6-2.8 1.2-4.9 1.4s-6.3 1.2-9.3 2.3c-3 1.2-6.9 2.1-8.7 2.1-2.6 0-3.3.4-3.3 1.9s.6 1.9 2 1.6q2.2-.5 3 2.1c1 2.6.9 2.6 8.9.4 1.5-.4 3.8.1 6 1.2 4.1 2.1 13.5 2.5 12.9.6-.3-.7-2.4-1.6-4.8-2a15 15 0 0 1-6.5-2.8c-1.2-1.1-2.7-2-3.5-2q-1.3 0 .6-1.4c1.7-1.3 2.1-1.3 3.6.7 1.6 2.1 2.2 2.2 18 1.8 22-.5 22.1-.5 31.8 1.3q8.5 1.6 9.5.5c1.3-1.3-.9-2.7-5.5-3.5-1.9-.3-6-1.2-9.1-2.1-4.5-1.3-5.5-2-5.5-3.7.1-1.9-.4-2.1-5.7-1.9l-5.7.2.1-7.2c0-4 0-7.7-.2-8.2-.3-1.5 1.2-4.5 2.3-4.5q.8 0 .2 1.2-.7 1 .6.3t2 .6c.7 1 1.1 1 2.4 0a6 6 0 0 1 4-.9q2.4.5 2.2-1.1c-.1-1.2 1.1-1.7 5.2-1.9a81 81 0 0 1 16.4.1c4.1.4 9.6.1 14-.8 4-.7 13.6-1.3 21.2-1.4s14.3-.4 14.9-1q2.7-3-6.4-3.1c-3.3 0-5.8-.4-5.5-.9q.4-.9-.8-1.4c-.8-.3-1.7 0-1.9.7-.4 1-2.2 1.2-6.4 1-3.2-.3-8.2.1-11.1.7q-5.4 1-6.5 0-1.3-1-3.7.2-2.5 1.3-8.4.6a31 31 0 0 0-7-.3c-.6.2-6.4.5-12.8.7-7.1.2-12.3.8-13.1 1.6-1.2.9-1.6.8-2-.3-.7-1.6-1.1-27.5-.6-28 .2-.2 5.3-.7 11.3-1.1q10.9-.7 12.3-2.1 1.3-1.3.4-1.4c-.9-.1-.8-.6-.5-1.4.4-1.2-.2-1.3-3.3-.6-2.1.4-7.1.8-11.2.9s-7.7.4-8.2.7-.9-1.6-1-4.3-.2-8.8-.5-13.7l-.6-8.9 2.7.7c1.5.4 3.5.4 4.6.1 3.4-1.1 2.1-3.3-2.8-4.9l-4.8-1.5 4.3.5c3.6.5 12.9.6 26.2.3a25 25 0 0 1 8.2 1.7c3.7 1.4 5.1 1.5 5.9.7 1.6-1.6-.2-3.9-3.6-4.7-1.4-.4-2.5-1.1-2.5-1.7q0-1.1 2.3-.4c1.2.4 3.9.9 6 1.2q3.6.5 4.8 2.4c1.5 2.9 10.2 2.6 15.3-.5l3.8-2.4 5.7 1.9c6 2.1 10.2 2.2 10.9.1.2-.7-1.1-1.9-3-2.8-3.3-1.5-3.3-1.5 2.7-.9a71 71 0 0 0 20.8.3c2.9-1.4.9-2.8-4.1-2.8-2.6 0-9.2-.7-14.7-1.5-12.3-1.8-19.7-1.9-21.3-.3q-1.1 1-1.3.8l-.5-14.3c-.4-12.5-.2-13.7 1.4-13.7 10-.3 11.5-.8 14.8-4.6l3.2-3.9 4 2.3c3.3 1.8 5 2.1 9.4 1.6 6.3-.7 12.3 1.4 13.1 4.7.5 1.9.3 2-3.1 1.4a143 143 0 0 0-12.3-2.1c-3-.5-4.3 0-8.3 2.7a25 25 0 0 1-11.4 4.4c-8 1.3-8 3.1.1 2.8 4.5-.1 7.1-.9 12-3.6l6.2-3.5 5.9 1.3c8.7 2 11.6 3.5 12.2 6.1.3 1.2.4 9.8.2 19.1-.4 16.2-.5 16.9-3 20.6a33 33 0 0 0-3 4.8c-.7 2.1-47.4 1.2-53.3-1.1a93 93 0 0 0-32.4.6c-4.2 1.7-6.1 4.8-4.2 6.7.9.9 2 .7 4.4-.7 3-1.8 7.9-2.8 20.7-4.2 5.1-.6 5.9-.4 8.8 2.1 1.7 1.4 3.5 2.4 4 2.1 1.1-.6 10.1-.6 32 0 18 .6 18.7.8 15.7 4.8a8 8 0 0 0-1.5 3.9c0 1.5-.5 1.7-2.9 1.2-3.3-.7-31.9-.7-50.1 0-11.9.5-19 1.8-19 3.5 0 1.8 3.1 3.2 5.7 2.5 1.6-.4 7.3-.9 12.7-1 5.5-.2 13.5-.6 17.8-1q8-.8 7.8.4-.1 1-1.3 1.1c-1.8 0-6 3.7-5 4.3.4.2 7.6.4 15.8.3 12.4-.1 15-.4 15-1.6 0-1.9-4.1-2.7-14.7-2.9-5.2-.1-8.8-.5-8.8-1.1 0-1.1 1.2-1.2 15.7-.4 7.4.4 10 .9 9.7 1.8-.3.7.4 2 1.4 3 4 3.6 19.5-1.1 32.2-9.7 2.5-1.7 4.9-3.6 5.3-4.3q.7-1.3 7.3-1.2c6.8.1 10.3-1.4 7.4-3.2a10 10 0 0 0-4.3-1c-5.7 0-1.5-1.8 6-2.5 13.4-1.3 26.2-.7 29.2 1.3 3.8 2.6 7.7 4.2 15.6 6.3 8.5 2.3 10.5 2.3 10.5.4q.1-3-12.8-6c-5.9-1.4-7.6-2.3-9.5-4.8-5.1-7.2-5.2-8.7-.6-8.7 1.3 0 4.9-.2 8.1-.6l5.6-.6 2.5 3.9c1.4 2.1 3.5 6.2 4.7 9q3.4 8.3 6 4.8c1.3-1.6 0-6.6-3.2-12.3l-1.9-3.4 4.1-3.9c2.2-2.1 4.4-3.9 4.9-3.9s2.3-1.2 4-2.6c3.3-2.7 6.8-2.9 6.3-.2-.1.9.5 1.9 1.5 2.2 2.1.6 12.9-.7 15.7-1.9q2-1 1.4.6-.6 1.3-2.4 1.7c-8.7 1.4-12.4 2.5-12.4 3.8s3.4 2 6.4 1.5q1 0 1.7 1.1.9 1.4.9.1c0-.7 1.5-1.5 3.4-1.8 5.8-1.1 9.4-4 9.8-7.7.2-2.6.7-3.2 2.3-3l8.4.2c6.2.1 6.3.1 4.6 2-2.9 3.2.8 5.4 5.3 3.1 6.8-3.7 10-4.8 11.2-4.1 2.3 1.4-1.5 6-4.9 6-3.1 0-9.6 2.4-10.6 3.9q-.3 1 1.3 2c2.1 1.1 9.2 1 9.2-.2q.2-.6 2-.7c1.2 0 3.5-.7 5.2-1.6q3.2-1.5 6.5-1.1c5.1.9 15.3-1.1 20.3-3.9 3.4-1.9 4.9-2.3 6.5-1.5 3.8 1.9 18 6.2 22 6.7 2.3.3 6.8-.2 10.5-1.2 8.2-2.1 12.5-2 30.5.7 6.1.9 8.8 1.9 11.5 4 2 1.6 5.4 3.1 8 3.5a35 35 0 0 1 6.2 1.5q1.7 1 3.8-1.3c2.3-2.5 2.7-5 .7-4.2q-1.4.5-1.4-2.5v-3l3.4 3.9a13 13 0 0 0 7.1 4.5 73 73 0 0 0 21.5.2c-.3-.5 1-.7 2.8-.5l3.4.3.1-6.7c.1-3.7-.2-6.5-.7-6.2q-.8.3-.9-.5.1-1 1-1.1c.6 0 1-2.2 1-5 0-4.9 0-4.9-3.7-5.6-3.5-.7-7 .5-6.6 2.3q0 .8-2.3 2c-2.3 1.1-2.4 1-2.4-2.7s.1-3.8 4.5-4.5a31 31 0 0 1 7.5 0c2.5.6 3 .4 3-1.3 0-2.7-2.3-3.4-9.2-2.6l-5.9.7.3-4.4.3-4.4 7.3-.8 7.2-.9v-7.4l-5.8.2c-3.2.2-6.5.4-7.3.6-1.1.2-1.5-1.3-1.7-7.7-.3-9.9.1-10.7 5.3-9.5q9.7 2.4 9.5-.9-.2-1.8-1.7-2.3-1.7-.4-1.8-2.8c0-2.3-.5-2.5-5.4-3l-5.4-.5v-6l.7-31c1-38 1.4-57.8 2.1-107.3a2316 2316 0 0 1 2-76.7c.4-14.3.8-26.1 1-26.3s1.9 1.4 4.1 3.5c3.6 3.4 3.9 3.5 4.2 1.5.2-1.2-.4-3.2-1.2-4.4-.9-1.3-1.6-4.3-1.6-7 0-4.2-.3-4.9-2.8-6.2l-2.7-1.4.2-14.9c.8-59.3 1.1-64.7 3.4-66.4 1.8-1.3 2.1-2.6 2-6.9 0-2.9-.3-6.1-.6-7.1q-.6-1.7 1.5-2.4c1.1-.3 2-1.5 2-2.6 0-1.7-.8-1.9-9.7-2h-15.9c-4.3.2-6.4-.1-7.2-1.2-1-1.1-.9-1.7.1-2.6 1-.8 4.2-.7 12.6.5 12.6 1.7 13.8 1.4 14.3-3.9.2-2.7.8-3.3 3.1-3.5 3-.4 3.9-3.5 1.2-4.6q-1.5-.5-1.5-4.8c-.1-4.2-.7-7.6-2.9-16.6-1-3.7-.8-4.9 1-8.8a15 15 0 0 0 1.5-6.9c-.9-3.7-4.5-7.4-8.2-8.4-4.5-1.2-12.7 1.1-14.9 4.2-1.8 2.5-2 10.8-.3 12.5.9.9.9 2.6 0 7.5-.7 3.6-1.2 8-1.2 9.9 0 3.8-2.1 6.4-4.3 5.5-2.3-.9-3.6-27.3-2.1-40.4.7-6.1-1.2-9.7-6.9-12.8-3.1-1.6-3.9-1.7-8.1-.5a12.5 12.5 0 0 0-7.7 18.7c1.5 2.4 1.8 3.8 1.1 6l-1.7 5.7-.8 3-12.7.2c-9.1.3-12.9 0-13.6-.9-.6-.7-1.4-6-1.7-11.7-.4-5.8-1.1-12.2-1.7-14.4-.8-3.3-.7-4.1 1.1-6 2.7-2.8 2.8-8.9.2-13.6-2.4-4.7-7.8-8.3-11.1-7.5-4.4 1-8.6 3.7-10.8 6.9-2.7 4-3 12-.6 15.5 1.6 2.2 1.6 3.4-.2 16.7-1 7.9-2.3 14.4-2.9 14.5h-29l-.8-9.6c-.7-8.8-.6-9.8 1.3-12.2 1.1-1.4 2-3.5 2-4.7 0-5-7.5-12.6-12.6-12.6-1.1 0-4.2.7-6.8 1.6-7.8 2.7-10.8 10.3-7 17.6 1.5 3 1.5 4.1 0 14.7-.9 6.4-1.7 13.6-1.9 16.1l-.2 4.5-5 .3c-2.7.2-8.8-.2-13.4-.9-7.9-1.1-8.4-1.3-9.6-4.3-.7-1.7-1.5-5.6-1.9-8.6s-1.2-7.6-1.8-10.1c-1-4-.9-5.2.7-8.4 1.9-4.2 1.6-10.4-.7-13.2a22 22 0 0 0-12.1-5.3c-4.1 0-10.4 3.6-12.2 7a15 15 0 0 0 2.5 16.5c1.6 1.8 1.8 4.1 1.6 20l-.1 18h-12.8l-2.4-8.5c-1.9-7-3.1-9.2-6.2-12.2-4.7-4.5-10.1-6.1-17.5-5.2-4.4.5-6.6.3-9.6-1.1-3.8-1.7-3.9-1.9-2-3.2 2.6-1.8 2.6-4.3-.1-4.3q-2 0-1.7-1.8.3-1.7 3.3-1.7c2.6 0 3 .3 2.7 2.4-.3 2.8 1.8 5.5 5.7 7.1 2.2.9 3.6.8 6.2-.3a8 8 0 0 1 6.2-.4c1.5.5 4 .6 5.5.2 2.6-.7 2.6-.7.5-1.6a7 7 0 0 1-3.3-2.9c-.9-1.7-1.9-2-6.3-1.8-4.6.3-5.2.1-5.2-1.7 0-1.6.8-2.1 3.9-2.5 4.5-.6 5.8-2.5 2.4-3.3-5-1.2-10.1-3.5-10.9-5-1.4-2.4.6-3 4-1.2 2.9 1.4 6.1 1.2 6.1-.6 0-.5-1.3-1.5-3-2.4s-3-1.9-3-2.4c0-1.8-4.9-6.1-6.4-5.5-.9.3-2.2-.1-3.1-.9s-1.9-1.7-2.4-1.9c-1.4-.5-1.6-10-.3-12.5a19 19 0 0 0-.1-13.3 10 10 0 0 0-4-3.8c-1.5-.7-2.7-2-2.7-2.8q0-2.6 4.1-.3c1.2.6 2.8.8 3.7.4 2.9-1.1-1.1-3.7-6-3.9-5.2-.2-6.6-1-10.2-5.8-3.2-4.3-4.8-5.1-8.1-3.8-2.1.8-2.7.6-4.1-1.5s-2.4-2.5-6.8-2.4c-2.8 0-7.2.7-9.8 1.6m-23.5 13.5c-1.7 1.8-3.3 4-3.6 4.8q-.6 1.5-.6-.6c-.1-2.3 4.1-7.4 6-7.4.7 0-.1 1.5-1.8 3.2m7 6.3c-.5 1.3-2.3 2.2-2.3 1.1 0-1.5 1.4-3.5 2.1-3.1q.7.6.2 2m44.7.1q0 1.3-1 1.4-.9-.2-1-2.1.1-1.7 1-1.4c.6.3 1 1.3 1 2.1m-15 .9q0 1.4-1 1.5-.9-.1-1-1.5c-.1-1.4.5-1.5 1-1.5q1 .1 1 1.5m27.4 5.6c.6 3.4 0 5.3-1.5 4.4-1.1-.8-1.2-7.5 0-7.5.5 0 1.1 1.4 1.5 3.1m-65.1 7.3c3.2 3 7.8 6.2 10.3 7.2 4.7 1.8 3.9 1.9 20-1.7 2.3-.5 7-2.1 10.5-3.7 13.1-5.9 16.6-4.5 4.7 1.8a38 38 0 0 0-6.5 4.6 26 26 0 0 1-4.2 3.3q-1.2.9-1 1.9c.5 1.3 13.4-4.7 17.7-8.3l3.3-2.8 2 2.1c2.5 2.7 2.4 6.4-.1 8.7-2.7 2.4-3.7 1.2-1.6-2 3.2-4.8.5-4.5-5.2.6-6.7 6-13.7 9.3-24.1 11.6-14 2.9-33.1 1.7-33.1-2.2 0-1.9 1.4-1.9 6.7 0s13.2 1 15.1-1.7c.7-1 2.1-1.8 3-1.8 2.3 0 12.2-4.2 12.2-5.2q0-1.8-5.1.7c-3.9 2.1-14.6 3-18.2 1.6-1.5-.6-3.6-2.4-4.5-4.1-2-3.5-4-4.4-7.4-3.1-3 1.1-5.8-.3-5.8-2.9 0-1-.4-2.2-1-2.5-1.5-.9-1.2-3.5.4-3.5.7 0 1.9.7 2.6 1.5q1.2 1.4 2.2 1.5c1.8 0 2-3.1.3-5q-2-2.1-.4-2c.8 0 4 2.4 7.2 5.4m29.2 1.6c-11 3.9-15 4.3-18.2 1.7-2.6-2-1-2.4 9.5-2.4 5.9 0 9.8.3 8.7.7m215.6 1.9c3.7 3.7 3.8 7.3.2 9.6-2.3 1.5-3.1 1.6-6.2.5-2-.7-4.2-1.7-4.8-2.2-1.7-1.4-1.6-4.9.2-7.5 1.3-1.9 2.6-2.5 6.8-3.2.5 0 2.2 1.2 3.8 2.8m-245.7 11.6a8 8 0 0 0 5.5 2.5c1.6 0 3.3.4 3.6 1 1 1.5-1.2 1.2-10.2-1.5-8.7-2.7-10.7-4.5-4.8-4.5a8 8 0 0 1 5.9 2.5m190 1.6c4.6 3.6 3 12.1-2.4 12.9-2.8.5-7.9-1.2-9.6-3.1q-2.9-3.4 1.7-9.2c2.5-3.3 6.6-3.5 10.3-.6m-56.6 6.6c4.1 4.6 4.1 7.6 0 11.4-3.9 3.5-8.4 3.8-12.2.8-4.7-3.7-3-13.6 2.8-15.9 3.2-1.3 5.7-.3 9.4 3.7m-76.8-.3c0 1.6-1.8 3.1-2.7 2.2-.8-.8.5-3.6 1.7-3.6q.9.1 1 1.4m190.2 9.7c.3 5.7.9 12.3 1.2 14.6.6 4.7-.3 5.4-5.1 4.1q-5-1.4-2.3-3.3c2.1-1.3-.3-2.5-3.6-1.9q-3.3.6-3.4-.5c0-.6 1.1-1.1 2.4-1.1 2.5 0 5.1-2.2 3.9-3.3-.3-.4-1.7-.7-3-.7-1.2 0-2.3-.4-2.3-.9s1.2-.9 2.8-.8c3.7.3 3.7-2.7-.1-3.1-3.3-.4-2.6-2.2.9-2.2q2.3 0 2.4-1.5-.1-1.4-1.1-1.5-1.2 0 .1-1.5 2.2-2.8-2.5-3.7-2.3-.3 2.5-2c2.5-.8 5-1.4 5.5-1.3s1.3 4.8 1.7 10.6M202.8 264c.2 1.9.8 4 1.3 4.6 1.6 1.9-.9 6.6-5.9 11-4.1 3.6-4.5 4.3-3.3 5.8 1.9 2.2 3 2 4.3-.9q2.1-4.8 3.3.2c.3 1.6 1.6 3.8 2.7 5l2.1 2.2-2.2 5a30 30 0 0 0-2.1 6.6c0 .8-1.6 2.5-3.5 3.6-2 1.2-4 3-4.6 4-1.3 2.5-2.9 2.4-2.9-.3 0-1.9-.2-2-1.7-.6-4 3.5-14.3 2.8-14.3-.9 0-1-.9-3.3-2-5.1a17 17 0 0 1-2.3-5.3c-.2-1.1-.9-2.4-1.6-2.8q-1.2-1-.9-5l.3-4.2 4 3.4c4.3 3.6 7.5 5.2 7.5 3.7 0-1.9 2.7-1 3.8 1.2l1.1 2.3v-2.3q.2-2.3 3.1-4c5.5-3.1 3.3-6.2-2.7-3.7-3.6 1.6-4 1.5-8.3-.6a20 20 0 0 1-8-7.7c-1.9-2.9-5-6.5-6.7-7.8-1.8-1.4-3.3-3.2-3.3-4.1 0-1.3.8-1.5 5-1 5.7.7 25.6-2.4 31-4.7 5-2.2 6.4-1.7 6.8 2.4m255.3-1.1c3.5 3.5 3.8 7.4.7 9.5-2.8 2-7.2 2-8.8.1-1.7-2.1-.6-9.6 1.6-11.2 2.5-1.8 3.2-1.7 6.5 1.6m-356.2 1.8c4.9 4.5 4.9 7.3.2 11.6-6.7 6-13 4.1-14.6-4.4-.5-3-.2-4.1 2-6.7 3.5-4.2 8.2-4.4 12.4-.5m112.1 7.2c0 1.4-1.8 2.3-3 1.6q-1-.7-.5-1.6c.8-1.2 3.5-1.2 3.5 0m139.4 5.3c1.1 8.4 1 25.8-.1 26.9q-1 1-3.7-.1-3-1-2.1-2.9c.5-1.8.2-1.9-4.5-1.4q-4.9.5-5-.6.2-1 2.8-1.1c1.5 0 3.3-.4 4.1-.9 1.7-1.1.6-3.1-1.7-3.2q-1.8 0 .6-1c3.5-1.3 2.2-3.5-1.9-3.1-3.6.4-3.1-1.3.6-2q1.8-.4 2.3-2.1c.3-1.3-.3-1.7-2.8-1.7-3.8 0-3.2-1.5 1.1-2.4 2.5-.5 2.9-.9 2.4-2.6q-.6-2 1-2.6 1.4-.7 1.1-2.1c-.5-1.3 3.1-3.5 4.5-2.7.4.2 1 2.7 1.3 5.6m136-3c4.6 6.5-.8 13.7-7.5 10.3-2.8-1.5-3.4-2.9-3-6.9.5-5.3 7.6-7.6 10.5-3.4M218 278q0 .9-.4 1-.6-.1-1.1-1-.4-1 .4-1 1 0 1.1 1m-4.9 3.1c1.8 2.6 2.7 3 5 2.5 1.6-.3 4.3.1 6.1.8l3.3 1.4-2.8 1.3c-2.1.9-3.3 1-4.5.2a10 10 0 0 0-4.8-.6c-3.6.6-7-2-8-6-.5-2.3-.3-2.7 1.4-2.7 1.2 0 3 1.4 4.3 3.1m83.8.1a65 65 0 0 1 1.6 9.3c.4 3.3 1.3 7.9 2.1 10.3q2.4 7.2.6 10c-1.2 1.8-7.2 2.6-10.6 1.2-2.8-1-2.8-1.1-1-2.5q2.2-1.3.7-2.6c-.9-.9-.9-1.6 0-3.2q1.4-2.1-.1-2.4-1.5-.4-.1-1.9c1.2-1.5.6-1.9-3.6-2.6-1.7-.3-1.5-.7 1.3-2.1 3.8-2.1 4.2-3.7.7-3.7q-2.4 0-2.5-1.5c0-.8 1.1-1.7 2.5-2.1q2.3-.6 2.5-.8l-.9-3.3c-.8-2.7-.6-3.5.7-4.3q4.6-2.7 6.1 2.2m163.2 2c0 2.9.4 7.5.9 10.3.4 2.7.6 7.2.2 9.9l-.5 4.8-5.1-.6c-2.8-.4-6.1-.7-7.4-.6q-2.3 0-1.9-1.3.4-1 1.8-.9c1.9.5 5.9-.7 5.9-1.7 0-.5-1.5-1.2-3.2-1.6l-3.3-.8 2.9-.6c4.2-.9 3.8-2.5-.7-2.9-4.2-.4-4.7-2.6-.6-2.8 6-.2 6.8-1.8 1.7-3.3-3.2-.9-3.2-.9-.6-1 3.2-.1 4.4-1.7 2.9-3.5q-1.4-1.4.4-2c2.3-.9.8-2.6-2.2-2.6q-4.6-.2 2-2.7c6.1-2.2 6.7-1.9 6.8 3.9m-406.9 1.5c2.3 2.1 3.7 6.4 2.7 8.9a18 18 0 0 1-4.6 5.3c-3.1 2.6-3.5 3.3-2.3 4.1.8.5 2.1 1 2.8 1q1.2 0 1.2 5.2c0 2.8.5 8 1.1 11.5 1 5.7.9 6.6-.6 8.3-2.1 2.4-7.5 2.9-5.6.6 1.4-1.7-.2-3.1-2.4-2.2q-3.1 1 .7-3.1 1.9-2.1 1.2-2.3-1.1-.3-2.4-1c-1.3-.9-1.1-1.3.9-2.9 2.4-1.8 2.4-1.9.5-2.9s-1.9-1.7-1.3-6.9.4-6-1.7-8.1c-1.3-1.3-2.5-3.1-2.5-4v-10.4q.3-.8 2.9-2.3c3-1.6 6.8-1.2 9.4 1.2m49.9-.9c-.6 1.1-.6 3.4-.1 5.8.4 2.1 1 8.2 1.2 13.4.3 9.1.2 9.5-1.9 9.8-3.2.5-8.8-2.7-7.4-4.1.6-.6 1.1-1.8 1.1-2.7 0-2-2.7-7.7-4.1-8.6q-.9-.6.8-1.9c1.4-1.1 1.5-1.6.4-2.8-.7-.9-1.1-3.3-.9-5.4.3-3.3.7-3.9 3.3-4.4 1.7-.4 4.3-.7 5.8-.8 2.4-.1 2.6.2 1.8 1.7m117.2 9.2c1.4 1.2-.1 4.3-3 6.4-1.4 1.1-2.3 1.4-1.9.8.9-1.4.9-1.4-3.4-.2-3.1.8-3.3.8-1.6-.5 1-.7 1.5-1.8 1.2-2.3s.4-2.2 1.5-3.6c2.1-2.6 4.8-2.8 7.2-.6m268.8.1c1.9 3.7 3.1 15.1 1.7 16.1q-3.6 2-7.3-1.6c-1.8-2-2-2.6-.8-3 1.8-.7.7-2.7-1.4-2.4-3 .6-2.4-1.9.7-2.5 3.3-.7 4.1-2.7 1.1-2.7-2.7 0-3.6-1.9-1.4-2.7 1-.3 2.2-1.2 2.6-2 1.2-2 3.5-1.6 4.8.8m-257.1-.4-3.5 1.6q-2.6 1.5-.6-.6c.7-1 2.3-1.7 3.5-1.6q2.1 0 .6.6m18.6.4c.3.6-1.2 3-3.4 5.2a43 43 0 0 0-7 10.8 30 30 0 0 1-4.1 7.3c-1.8 1.1 1.6-8.4 4.9-13.7 1.7-2.8 3.4-6.3 3.7-7.9.4-2.1 1.1-2.8 2.9-2.8 1.2 0 2.6.5 3 1.1m187.4 3.1c0 2-.4 3.9-.9 4.2-.7.5-17.6.6-38.6.2l-20.4.4-15.4.4.1-3.7.1-4.7c.1-.8 12-1 37.6-.8l37.5.3zm-203.6-1.7c-.7 1.6-2.4 2.1-2.4.6q-.2-1 2.7-2zm9.6-.7c0 .5-1.3 2.1-3 3.7s-3 3.6-3 4.5-.7 2.5-1.5 3.6q-2 2.9-.9-1.1c.4-1.7 1.3-4.3 2.1-5.8.8-1.6 1.2-3.5.9-4.3q-.7-1.4 2.4-1.4c1.7 0 3 .4 3 .8m-78 1.7q0 1.4-1 1.5-.9-.1-1-1.5c-.1-1.4.5-1.5 1-1.5q1 .1 1 1.5m91.6 3.4a9 9 0 0 1-3.6 1.5c-1.7.3-3.3 1.4-3.6 2.3-1.2 4.1-3.5 8.5-4.1 8-1.1-1.2.8-7.5 3.2-10.1a7 7 0 0 1 5.5-2.6c1.7 0 2.9.4 2.6.9m-120.5 4.4q-2 1.9-1.6.7c1.4-2.6 2.8-4.1 3.3-3.5.3.3-.5 1.6-1.7 2.8m14.9-.5c0 1.3-11 12.6-11.6 11.9-.9-.8 2.9-5.9 7.1-9.6 3.7-3.2 4.5-3.6 4.5-2.3m-10.4 3q-2.5 2.5-.5-.5 1.2-2 1.8-1.7.3.5-1.3 2.2m88.9 2.1c-.9 2.2-2.4 4.2-3.1 4.5-1.8.7-1.8.2.2-3.7 3.5-6.8 6-7.5 2.9-.8m30.5-2.3q-.2 1.3-1.9 1.4-1.9 0-2.5.9c-.9 1.3 1.9 3.2 3.7 2.5 2.3-.8 2.8 2.4 2.3 12.6-.2 4.7.1 13.5.6 19.5s.8 12.4.4 14l-.8 3-1.4-4a78 78 0 0 1-1.8-28.8c.5-2.1.3-2.7-1-2.7q-1.5-.1-1.6-2 .1-1.8 1.4-2c2 0 2.7-2.6 1.2-3.9-.8-.6-2.2-.8-3.1-.4q-2 .9-1.3-1.5c.7-2.5-1.8-3.8-3.8-2.1q-1.5 1.5-1.4-1.2c.1-3.5 3-6.7 6.5-7.1 3.7-.4 4.5-.1 4.5 1.8m-92 2q0 1.3-1 .9c-.5-.3-1-1.3-1-2.1s.5-1.2 1-.9 1 1.3 1 2.1m238.4-1.6h3.1l.2 7c.1 6.8.1 7-2.2 6.4-3-.7-4.2 1.2-2.1 3.5 1.4 1.6 1.6 8.7 1.4 70.7-.1 37.9-.5 78.6-.9 90.4s-1 53.7-1.3 93-.7 81.4-1.1 93.5c-.8 33.8-1.5 64.2-1.5 72.7 0 6.4-.3 7.8-1.6 7.8s-1.4-1.1-.7-8.3c.7-7.1.7-56.8 0-215.7-.1-18.4.2-41.2.6-50.5 1.3-26.1 1.8-146.5.6-148.7-.5-1-1.6-1.8-2.4-1.8-1.3 0-1.5 2.8-1.7 16.7v19.8c.4 8.8.3 97.5-.3 112-.3 9.3-.8 69.2-1.1 133s-.7 118.7-.8 122l-.4 13.9c-.1 4.4-.5 7.7-.8 7.3-.3-.3-.7-42.3-.9-93.4-.2-51-.6-97.1-.9-102.3a1733 1733 0 0 1-1.7-54.5l.5-18.5 1.2-41c.3-12.9.8-42.2.9-65 .3-58.2-.2-51.6 4.3-53.9 4-2.1 3.5-2.8-2.8-3.4l-3.5-.3 2.8-1.2c1.5-.6 2.7-1.6 2.7-2.1s-1.2-1.1-2.7-1.3c-2.5-.3-2.8-.7-2.8-3.8 0-3.2.3-3.6 3.5-4.2a28 28 0 0 1 6.4-.2c1.6.2 4.3.4 6 .4m29.1 0c.4.6-1.2 1-3.9 1-2.5 0-4.6-.5-4.6-1s1.8-1 3.9-1c2.2 0 4.3.4 4.6 1m-116.1.9c.6.9-10.2 2.6-11.1 1.7q-.4-.4.2-1.5c.8-1.3 10.2-1.5 10.9-.2m42.6 2.7 17.5.8c5.5.2 6.4.9 5.6 4.8l-.7 3.3-20.4-.3c-11.2-.2-20.7-.5-21.1-.8-1.2-.7-2.2-7.1-1.4-8.4.4-.7 2-1 3.9-.6 1.7.3 9.2.9 16.6 1.2m-156.8.6c.6 1.6-.1 3.8-1.2 3.8s-2.1-3-1.4-4.1c.8-1.3 2.1-1.1 2.6.3m228.4.8c8.9 1 29.8 2.1 46.1 2.4 4.5 0 8.7.6 9.2 1.1q1 1-.1 5.4l-1.1 4.3-7.6-.7-15.1-1.1-15.5-.9-20.8-.6c-7-.1-12.9-.4-13.1-.8a20 20 0 0 1-.7-5.1c-.3-4.3-.2-4.5 2.6-5.1a18 18 0 0 1 5-.3zM131 312q-.1.9-1.1 1-.8-.1-.4-1 .6-1 1.1-1 .3 0 .4 1m206.8 4.1.3 4.6-6.3.7a724 724 0 0 0-49.1 6.5c-16.8 3-15.9 3.2-15.5-3.7l.3-5.7 8-.6c7.1-.6 27.1-2.9 49.5-5.7 12.2-1.6 12.4-1.5 12.8 3.9M149 312.6c0 .9-6.4 8.4-7.2 8.4-1.7 0-.6-2.6 2.4-5.7s4.8-4.1 4.8-2.7m-15 1.8q0 .6-1 1.1-.9.4-1-.4.1-1 1-1.1 1 0 1 .4m-13.8 3.1c1 4.9-.4 5.5-12.5 5.6-11 0-30.8 1.4-37.7 2.5-3.3.5-3.6.4-4.9-3.1-.7-2-1-4-.6-4.3.9-1 26.2-2.7 42.1-2.9 13.1-.1 13.2-.1 13.6 2.2m121.1-.5c-.6 2.2-2.3 3.8-2.3 2.1s1.2-4.1 2-4.1q.8.2.3 2m-39.9 1.5c-.7 1.6-2.4 2.1-2.4.6q-.2-1 2.7-2zm43 3.2c-3.4 5.9-3.3 5.8-4 5.1-1.1-1.1 4-9.8 5.8-9.8.5 0-.3 2.1-1.8 4.7m7.6-3.9a31 31 0 0 1-6.6 9.9c-.7-.6 2.2-6.5 4.4-9q2.4-2.8 2.2-.9m-103 .5c0 .2-1.9 2.1-4.1 4.2q-4.3 4.2-2.9 1.7c1.6-3.2 4.3-6 5.8-6.1q1-.1 1.2.2m63.4 3.1q-.6 1.5-1.5 1.6-.8-.1.1-2.1c1.3-2.4 2.4-2 1.4.5m14.6-.6c0 2.2-2.6 5.9-3.5 5-.6-.6 2.1-6.8 3-6.8q.5.2.5 1.8m4.8 3.4-1.3 2.3-.3-2.3c-.4-2.8 2.1-6.6 2.6-3.9.2.9-.3 2.6-1 3.9m22.2.8c-1.1 2.2-2.5 3.8-3 3.5q-1.7-1.2 2.4-6.8c2.8-3.8 3.2-1.8.6 3.3m-119-3.6q-.1.4-1.5 1.6-1.8 1.7-.9-.4c.5-1.4 2.4-2.3 2.4-1.2m50 0q0 .6-1 1.1-.9.4-1-.4.1-1 1-1.1 1 0 1 .4m166.1.6c2.4 0 4.5 3.8 3 5.3-.6.6-1.1 2.8-1.1 4.9 0 3.1-.4 3.8-1.9 3.8-3.6 0-5.3-1.1-4-2.6.9-1.1.9-1.7 0-2.8-2-2.4-8.5.2-7.4 3q.4 1.3-.6 1.4c-1 .1-1.3-1.2-1.7-2.8-1-4.8-1.4-5.4-3.1-5-2 .4-2-1.3-.4 26.8a1574 1574 0 0 1 1.6 50.5c.3 17.6.7 38.3 1 46s.8 32.9 1.1 56.1l.7 42.1-2.4-.1q-2.1 0-3.4 1.9c-.5 1.1-1.9 3.3-3 4.9-1.4 2.1-2 5-2.2 10.9-.2 6.7-.6 8.4-2.5 10.5-2.4 2.5-7.7 5.6-8.4 5-.2-.3-.6-10.5-.9-22.9-.2-12.3-.7-29.6-1-38.4l-1-28c-.6-16.5-2.4-96.2-2.9-129-.4-23.6-.6-27-2-27.3q-1.6-.2-1.6 1.6c0 3.7-3 5-12.8 5.4-5.1.3-9.5.1-9.8-.4s2.2-.8 5.5-.8c6.9 0 9.1-.6 9.1-2.7 0-1.2-1.2-1.4-5.6-1.1-4.5.2-5.9-.1-6.7-1.4q-3.1-5.3 13.6-8.3c3.3-.5 3.8-.3 4.9 2 1.4 3 4.8 3.4 4.8.5 0-1 .8-2.3 1.8-2.8a72 72 0 0 1 20.5-2.4c7.1-.1 8-.3 9.5-2.5 1.2-2 2.1-2.4 4.5-1.9 1.6.3 3.8.6 4.8.6m-153.8 2.6q-.9 2.9-1.6-.5-.5-2 .9-1.4 1.1.5.7 1.9m191.7 7.1c-.1 5.4-.2 36.1-.1 68.2.2 55.5.1 58.6-1.7 61-1 1.4-3.3 5.2-5.1 8.3a37 37 0 0 1-6 8.1c-5.6 4.6-6.6 10.7-3.1 17.4 2.1 4 2.5 11.1 2.2 32.4l-.2 10.6-5.2.5c-6.4.7-7.8 2.4-7.8 9.9 0 5.1-1.2 8.1-2.6 6.6-.8-.8-1.3-17.4-1.8-66.7l-1.1-78c-1-58.8-.9-70.8.8-72.4 2-2.1 3-6.9 2.2-10.6-.4-1.6-.4-3.4 0-4s6.3-1 15.1-1h14.6zm-241.6-6.6c-1 1.1-2.8 2.6-3.9 3.1q-2.2 1.3.9-2.1c3.3-3.4 6.1-4.4 3-1m279.6 1q-.2 5.5 6.2 6.4c2.6.4 5 1.6 6 2.8 1.4 1.8 1.9 1.9 3.2.8.9-.7 1.6-2.4 1.6-3.7 0-1.2.4-3.4 1-4.8.9-2.4 1.4-2.6 6.7-2.6 9.5 0 10.3.5 10.3 5.9 0 2.5-.3 5.7-.7 7-.6 2.2-.9 2.3-6.2 1.6-14.5-1.8-17.9-1.4-15.2 1.9 1.3 1.6 1.1 77.1-.2 77.1-1.6 0-5.5-9.2-6.6-15.8-.3-2.1-.9-3.8-1.3-3.7H430c-.5 0-1 1.1-1 2.4s-.7 2.9-1.5 3.6c-2.7 2.2-10.6 18.2-9.6 19.4.5.6 1 8.6 1 17.8.1 15.9 0 16.7-1.9 17.3q-1.8.6-2 2c0 1.8-3.2 2.8-4.2 1.3-.5-.7-.6-6-.3-11.8.5-8.6 1.6-92.8 1.5-119.8V324h7.5c6.9 0 7.5.2 7.5 2.1m11.8.6c-.4 2-3.6 2.8-5.7 1.4s-.4-3.1 3-3.1c2.4 0 3 .4 2.7 1.7m-302.8.2c0 1.3-2.9 4.1-4.1 4.1-.6 0-.2-1.1.8-2.5 1.9-2.5 3.3-3.2 3.3-1.6m99 .8c-.1 1.4-3 4.7-3.5 4.1q-.4-.6.9-2.1 1.3-1.3.9-2.1-.5-.5.5-.6 1.1 0 1.2.7m-97.6 2.7c-.6 1.6-2.4 2.3-2.4.8 0-1 2.2-3.3 2.7-2.8q.3.5-.3 2M178 329q-.1.9-1.1 1-.8-.1-.4-1 .6-1 1.1-1 .3 0 .4 1m79-.1q0 1-1 1.6-.9.4-1-.9.1-1.5 1-1.6 1 0 1 .9m-181.2 1.8c-.3 1.9-12.4 10.8-19.8 14.7a97 97 0 0 0-17 10.1c-.7.8-1.8 1.5-2.4 1.5a32 32 0 0 0-6.9 4c-3.1 2.2-5.9 4-6.1 4-.9 0-2.9-8.4-2.1-8.7.6-.2 3.8-2.2 7.1-4.6 24.7-17 30.6-20.8 32.3-20.2.9.3 3.5-.1 5.7-.9 5.7-2.1 9.6-2 9.2.1M106 334c.4 3.7.9 4.5 2.5 4.5s2-.6 1.7-3.6c-.3-4.8 1.3-6.1 6.8-5.1 3.7.6 4.5 1.2 5.2 3.7 1.1 3.5.2 28.4-1.1 33.5-1.6 6.3-2 12-.8 13.2.9.8 1.1 6 .9 17.8-.3 16.7-.3 16.8 2.1 19.2 1.8 1.6 2.6 3.8 3 7.7q.7 5.3 2.7 7.6c1.1 1.2 2 2.8 2 3.6s.9 3.3 2 5.7c1.8 4.1 1.9 4.6.4 7.5-1.2 2.3-1.5 4.7-1.1 9.1.3 3.3.1 6.8-.4 7.9-.6 1-1.2 4.8-1.5 8.4-.4 4.9-.1 7.1 1.1 9 1.6 2.4 1.6 2.6-.4 4.4-2.5 2.4-2.7 6.8-.5 11.1q1.6 3.2 1.1 7.2c-.5 3.3-.2 4.6 1.5 6.4 1.7 1.7 1.9 2.5 1 3.4-1.8 1.8-1.5 2.6 1.4 4.4 2.1 1.5 2.7 1.5 3.4.4.5-.8.4-2.2-.1-3.2q-1-1.8.3-2.2l5.8-2a41 41 0 0 1 7.4-1.8c3.7-.4 4.5-2.5 1.5-3.6q-2.1-.9-1.1-1.6c1.4-.8 22.5-8.4 27.2-9.8 9-2.6 26.3-7.9 27-8.3 1.2-.7 20-3.3 26.5-3.7 3.3-.1 6.6.1 7.3.6s2.9.5 5 .1c4.1-.7 8.5 1.5 6.7 3.4-1.2 1.2-26.5 3.2-31.6 2.5-2.1-.3-4-.1-4.4.5-.3.6-1.4 1.1-2.4 1.1s-4.3.7-7.2 1.6c-16 4.8-21.6 6.7-24.8 8.3-2 1-7.9 3.3-13.1 5-12.8 4.3-16.2 6.1-17.8 9.4q-2.2 4.6-3.6 1.2c-.7-2-3.2-1.9-4.8.1l-3.5 3.6a11 11 0 0 0-2.7 5.1 85 85 0 0 0 1.9 31.8c.8 2.3 1.5 7.6 1.5 11.8 0 10.1 1.8 27.4 3.6 33.6 1.5 5.6 1.7 9.6 1.5 31.2-.1 8.4 0 15.7.3 16.1.6.9 1.7 8.5 1.9 12.7.2 2.7-.1 3-4 3.7-2.4.4-6.3 1.6-8.7 2.7a15 15 0 0 1-10.3 1.1c-3.2-.5-7.3-1.6-9-2.5l-3.3-1.6-.2-21.2-.4-28.2c-.6-25.2-.6-90.3.1-91.8q.6-1.7-.4-3.1c-.8-1-1.3-25.4-1.5-88.9-.3-75.7-.2-87.9 1.1-89.7 1.1-1.6 1.2-2.4.3-3.5-1-1.2-1.5-1.2-3.3-.1-2.9 1.8-11.3 3-12.1 1.7-.4-.5.6-1.1 2.1-1.3 4.8-.5 2.6-2.3-3.3-2.6-4.6-.3-5.5-.6-5.2-2q.1-1.7 4.6-2c5.3-.4 5.2-2.6-.1-3-8.4-.7-1.9-3.1 7.8-2.8 4 .1 4 .1 4.5 4.6m87.7-4.4c-1 1.1-5.8 1.3-5.1.3.3-.5 1.7-.9 3.1-.9q2.3 0 2 .6m43.6 1.9q-1.2 3.1-1.3-.6 0-1.8 1-1.4.8.6.3 2m-92.3 1q-1.2 1.4-2.3 1.5-.7-.2.8-2c2.1-2.3 3.5-1.9 1.5.5m58.6 2.7q-2.8 4-.5-1.9 1-2.4 1.6-1.6c.2.7-.3 2.3-1.1 3.5m10.4-.2c-1.6 3.1-2.3 1.9-.9-1.6q1-2.6 1.6-1.7c.2.7-.1 2.2-.7 3.3m-68.5 1.5c-1.5 1.5-3 2.3-3.4 2-.3-.4.7-1.8 2.3-3.1 3.7-3.3 4.8-2.2 1.1 1.1m106-.2c-.7 2.8-3.2 5.4-4.1 4.4-.4-.3.4-2.2 1.6-4.2q3.8-6 2.5-.2m30.4-1.5c1.1 2 .9 5.5-.4 8.6q-.8 2 .3 2.4c2.3.7 4.3 3.4 3.8 4.9-.3.8-.1 2.4.6 3.6 1.3 2.4 2.1 17.9 3.8 73.2.6 19.2 1.5 42.4 2 51.5a2100 2100 0 0 1 2.3 67c-.1 3 1.4 44.7 2.3 60.7l.5 11.3-2.5 1.1c-1.4.7-3.1 2.8-3.9 4.8a19 19 0 0 1-7.3 7.5L275 637c-3.4 2.2-8.8 4.1-9.4 3.1-.3-.4-.8-4.3-1.1-8.7l-2-21.9-2-22c-1-13.7-1.4-18.6-2.5-31-1.5-16.6-2.2-60.3-1-61 .6-.3 1-4.4 1-9 0-4.7.5-10.4 1.2-12.8 1.5-5.8.7-8.4-5.1-16.1-4.5-5.9-4.8-6.6-3-7.1 1.5-.5 1.9-1.6 1.9-5.5 0-4.1 1.2-7 8.2-20.2 4.5-8.4 9-16 9.9-16.8 1.9-1.6 4.3-11.5 3.3-13.2-.4-.6-2.3-.8-4.8-.4-4 .7-4.1.7-1.7-1 2-1.4 2.2-2.2 1.7-5.5-.5-3-.2-4.3 1.8-6.6 2.3-2.7 2.3-3.2 1.5-10.8l-.8-10.2a7 7 0 0 0-2-4c-1.4-1.4-2-3.9-2.5-11.5l-.7-9.7 3.3-.5 10-1.5q.8.1 1.7 1.7m-59.1 1.7q-1 2.3-2 2.5c-1.1 0-1-.7.2-3.1 1.6-2.8 3.2-2.3 1.8.6m22.7.6q-1.5 2.8-2.2 2.5c-.8-.8 1.7-5.6 2.9-5.6.5 0 .1 1.4-.7 3.1m224.3 1.9c-.3 2.8-.1 5.3.4 5.6s.6 1.5.3 2.5c-.4 1.1-.2 2.6.4 3.3.8.9 1 13.3.9 40.6l-.3 39.4-3-.1-5.3-.2-2.4-.1.6-19.8 1.2-42.1a195 195 0 0 1 2-29.5c-.7-3.8-.2-4.6 3.2-4.6 2.3 0 2.4.2 2 5m19.9-4.4c1.7.5 2.3 1.6 2.8 5.6.9 6.1.1 7.1-5.7 6.9-11.4-.4-13.3-.8-13-2.7l.9-6.2.5-4.2h6.2c3.3 0 7.1.3 8.3.6M81.2 340c.3 3.1 1.3 5.9 2.5 7.3 3.2 3.5 4.2 10.6 4.8 35.7l1 42.5 1 39c.3 11 .7 22 .9 24.5s.7 15.3 1 28.5.8 26.9 1.1 30.5.7 16.2 1 28l1.5 53.9c.5 17.9.8 32.7.6 32.9q-.6.3-2.4-.7c-3.4-1.8-4.9-1.3-10.1 3.3-3.7 3.3-6 4.5-9.5 5-2.5.4-5 .5-5.5.2-.5-.4-1-6.3-1-13.4-.1-19.2-1.2-71.1-1.6-76.2-.4-4.4-1.9-73.3-2-92.4v-9.8l3.5-1.2q6.8-2.2 5.6-11.1-.7-4.2-2.4-4.9c-.9-.4-2.9-1.3-4.4-2.2l-2.8-1.5v-11.7l-.5-46.2c-.2-19 0-35.1.4-35.9.6-.8.5-2.4-.2-3.8-1.4-3.2.6-14.4 2.9-15.8.9-.6 4-2.9 6.8-5.2s5.6-4.2 6.2-4.2c.7-.1 1.4 2.1 1.6 4.9m147.8-3q0 .9-1 1a1 1 0 0 1-1-1q.1-1 1-1t1 1m1.6 4.2q-1.5 2-1.6 1.5c0-1.1 2.4-4.7 2.8-4.2.2.2-.3 1.4-1.2 2.7m113 8.3a3305 3305 0 0 1 2 81.5c.3 22.8.7 44.2.9 47.5 1 19.9 2.1 119.9 2.4 230.4.1 27.4.6 45.1 1.2 46.2q1.1 2-.6 1.9-1.6.1-1.6-3.8l-.3-8.7c-.9-15-1.6-51.4-2.1-102.5a2178 2178 0 0 0-3-113 3339 3339 0 0 1-2-101c-1-67.2-1.5-84.3-2.7-85.8-1.4-1.7.6-3.3 3.7-3 1.8.3 2 1.1 2.1 10.3m6.8-9.6c.8 1.2 1.4 21 2.1 65.1l1 59c1 51.2 1.4 213.2.5 210-.5-1.9-1.1-30.3-1.4-63a2492 2492 0 0 0-2-94l-2.5-139c-.5-20.6-.6-37.8-.4-38.3.6-1 2.1-.9 2.7.2M202 342.5q0 1.4-1 1.5-.9-.1-1-1.5c-.1-1.4.5-1.5 1-1.5q1 .1 1 1.5m249 6.2c.2 32-.5 75.6-1.5 92.3-.3 4.7-.7 18.2-1 30s-.7 23.7-1 26.5c-.4 5.1-1.1 27.5-2 66-.8 37.8-1.6 65.6-2 75-.6 12.4-1.4 49.9-2 87.9-.3 17.5-.8 32.2-1.1 32.7q-.6.8-1.6.3-1-.7-.4-22.3c.3-11.9.9-45.5 1.2-74.6 1.1-105.3 1.3-117.5 2.1-152 1-44.4 1-56.1 0-57.1-1.5-1.6-2.8 2.1-2.3 6.7.3 2.6.2 5-.1 5.3-1.2 1.2-4.3-2.8-4.3-5.6 0-2.2-.6-3.1-2.7-3.9-1.6-.6-3.8-.8-5.1-.6-2.7.5-2.9.2-3.6-7.3-.7-6.7-.8-5.9.2-14.9.4-4.6 1.2-7.6 2-7.9q1.5-.6 0 2.2-1.2 2.7 0 3.8c1.7 1.7 4.2.1 4.2-2.7 0-2.7.1-2.8 2.4-1.9.9.3 1.6 1.5 1.6 2.5s1.3 2.5 3 3.4c2.9 1.5 3 1.7 3 9 0 6.5 1 9.8 2.6 8.2 1-1 1.4-10.3 1.9-56.2.4-26.4.8-48.6 1-49.3.3-.6 1.6-1.2 3-1.2 2.4 0 2.5.3 2.5 5.7m-263.3 0q-.5 1.3-.5-1.7c0-3 .2-2.7.5-1.8s.2 2.6 0 3.5m49.9-.9c-1.4 1.4-1.6 1.4-1.6.1 0-2 2.3-4.4 2.9-2.8.2.6-.4 1.8-1.3 2.7m221.9 2.2a4428 4428 0 0 1-4.5 148.5c-.5 9.3-1.4 34.5-2 56-1.8 69.1-2 76.6-3.1 102.5-1.8 42.8-2.8 47.6-2.2 10.5l.8-38c.2-2.2.4-20.9.6-41.5s.5-48.1 1-61l1.3-47.5a665 665 0 0 1 2.2-45.5c.2-3.6.7-24.7 1-47a959 959 0 0 1 1-41.8c.2-.8 1.2-1.2 2.1-1 1.5.3 1.8 1.4 1.8 5.8M234 346.5q0 1.4-1 1.5-.8-.1-.4-1.5.7-1.4 1-1.5.3.1.4 1.5m-130.2 1.2c.5 1 .9 25.6 1 54.8.2 29.1.4 60.4.7 69.5l1 59c.3 23.4.8 48.6 1.1 56 .3 8.6.2 14.5-.5 16.3q-1 2.8-.2 4.6c.6 1 1.2 25.8 1.5 57.2.3 32.3.2 54.3-.3 52.7-.8-2.5-1.4-22.1-2.6-90.3-.3-16-1-42.7-1.5-59.5l-1.5-59-1-49c-.4-18-.9-109.4-.6-112.8.1-1.8 1.9-1.5 2.9.5m116.4.5q-1.1 1-1.2.2c0-1.4 1.2-2.6 1.9-1.9q.3.6-.7 1.7m86.2-1.4c.2.4.7 16.1 1.1 34.7l.9 38c.2 2.2.7 21.3 1.1 42.5a5873 5873 0 0 0 1.9 80l1.1 49c.7 27.1.8 72 .2 72.6-.3.3-.8-9.3-1.1-21.3l-1.1-30.8c-.3-5-.7-19.4-1-32s-.7-27.7-1-33.5l-1-27.5c-.3-9.4-.7-20.2-1-24s-.7-20.1-1-36c-.3-16-.8-33.3-1-38.5-1-22.4-1.7-71.8-1.1-72.9.8-1.3 2.3-1.4 3-.3M97 383.7c.6 19.3 1 44.7.8 56.4a2803 2803 0 0 0 2.7 132.9l2.2 79.5a1207 1207 0 0 1 .4 46.4c-.1 1.9-.3 3.2-.5 3-.4-.4-.7-7.2-2.7-67.4L98.5 594l-1-37-1.5-60.5a6266 6266 0 0 1-1.5-76c-.3-23.7-.8-49.4-1.1-57.2-.6-13.5-.2-17.5 1.7-15.6.4.4 1.3 16.6 1.9 36m47-35.7q0 .9-1 1a1 1 0 0 1-1-1q.1-1 1-1t1 1m154.2 10.2.3 13.3.8 25.5 1.2 39 1 30.5 1 31 1 40.5c1 46.3 1.9 82.7 3 118l.9 48c.4 21.2.9 39.8 1.1 41.3q.5 2.8-.6 2.5c-.7-.2-1.3-4.3-1.5-10.3a6289 6289 0 0 0-2.9-73.5l-1-22.5-1-25.5c-1.1-36.2-2.6-74.4-4-101-.8-15.7-1.7-37.7-2-49s-.8-22.3-1-24.5-.7-14.8-1-28c-1-41.5-1.5-54.9-2.1-59.2-.7-5.3-.1-6.3 3.7-6.3h2.9zm183.2 3c-.2 5.7-.6 41.1-.9 78.8s-.7 71.4-.9 75-.6 29.9-1 58.5l-1.1 67.5-1.1 42.5a349 349 0 0 1-1.2 27.7c-.4.4-.6-7.7-.4-18s.5-75.9.8-145.7c.4-111.4.7-163.4 1.3-189.3.1-6.9.2-7.2 2.5-7.2h2.4zm6.9 29.3c-.3 42.8-.8 71-2.3 121-.5 18.1-1.2 48.3-1.5 67a6703 6703 0 0 1-3.6 142.5c-.1 10.2-.6 19.4-1 20.5-.8 1.9-.4-52.3.6-77 .3-6.1.7-36.9 1-68.5a5211 5211 0 0 1 2-120.5c.2-5 .7-24.8 1-44 .6-35.8 1.4-74.2 1.6-76q0-1-.6-2.9-1-2 1.1-1.4c1.8.3 1.9 1.7 1.7 39.3M56.4 353.3c2 1.4 1.4 5.8-1 7.8-2.3 1.9-1.8 4.1.8 3.3l2.1-.6-2.2 2.8c-2.4 3-10.1 7.9-10.1 6.4q.2-1 2-2c1.1-.6 2-2 2-3 0-1.6-.7-2-3-2-2.7 0-3-.3-3-3.3 0-3.7.4-4.3 4.8-8 3.8-3 5-3.3 7.6-1.4m117.9 1.2c1 1.4 1.5 2.5 1.1 2.5-1.1 0-4.4-3.2-4.4-4.2 0-1.5 1.5-.8 3.3 1.7m54.7.2c-.1.5-1.2 2.1-2.6 3.8-2.5 2.9-2.5 2.9-1.9.5.4-1.4 1.2-3.1 1.7-3.8 1.1-1.3 2.8-1.6 2.8-.5m-15 2.8c0 1.4-.4 2.5-1 2.5-1.1 0-1.4-3.3-.3-4.3 1.1-1.1 1.3-.8 1.3 1.8m-29 6q0 1.4-1 1.5-.9-.1-1-1.5c-.1-1.4.5-1.5 1-1.5q1 .1 1 1.5m83.4 4.1c.3.9.6 3.8.6 6.5 0 4.5-.2 4.9-2.5 4.9-1.3 0-4.3 1-6.6 2.2-7.2 3.7-29.6 6-35.6 3.7-2.5-1-12.5-1.1-44.3-.5-3 0-9.8-.1-15-.4-8.8-.5-9.5-.4-9.3 1.3.1 1.5-.4 1.7-2.5 1.2l-2.7-.8-1.1-2.2c-.9-1.6-2.2-2-6.5-2.1-3-.1-6.7-.7-8.4-1.4-1.6-.7-4.6-1.6-6.5-1.9-3.3-.6-3.5-.8-3.2-4.1.2-1.9.7-3.8 1.1-4.3.8-.9 6.1 1.1 14.1 5.3 6.5 3.4 17.6 5.5 21.4 4.1q2.6-1 8.2-.1c6.3 1 29-.2 47.9-2.6a480 480 0 0 0 41-8.3c8.7-2.4 9.1-2.5 9.9-.5m-210.3 8.1.3 9.3.5 40c.2 28.6-.1 35.5-1.1 35.5-1.5 0-1.4 3.8-1.7-48-.3-45.5-.4-41.5.9-41.5.6 0 1.1 2.1 1.1 4.7m-7.7 12.5c1.2 24 1.7 72.6.7 73.2-.5.4-1.2-1.6-1.5-4.6-.9-8.5-1.4-79.8-.6-79.8.5 0 1.1 5.1 1.4 11.2m86.4-3.7c.3 1.3-4.4 2.9-6.3 2.1q-1.4-.6-1.5-2c0-1.6 7.3-1.7 7.8-.1M265 384q-.2 1-1.7 1.6l-3.7 1.5q-2 1.2-1.4-.3c.4-1.2 4.4-3.8 6.1-3.8q.6.1.7 1m-51 4c0 .6-3.7 1-9.2 1q-9.4 0-7.8-1c2-1.3 17-1.3 17 0m-40 1q1.6 1-4.9.5a40 40 0 0 1-7-1c-.9-1 10.4-.4 11.9.5m7 0c0 .5-1 1-2.2 1q-2.7.1-.8-1 3-2 3 0m3.7-.4q-.6.5-1.9.1-1.1-.5.6-.6t1.3.5m8.6.1a17 17 0 0 1-4.5 0q-1.8-.4 2.2-.4c4 0 3.5.2 2.3.4m15.2 3.4c.9 1.4.6 1.6-3.7 2.2q-4 .5-3.8-.8c0-2.1 6.4-3.3 7.5-1.4m16.5.4c-1.2 1.5-3 1.2-3-.6 0-.5 1-.9 2.1-.9 1.8 0 1.9.2.9 1.5m19.7-.9q-.7.5-1.9.1t.6-.6q1.8 0 1.3.5m-81.8 2c.7.7-3.6 4.4-5 4.4-1.2 0-2.8-4.2-2.2-5.4.5-.8 6.2-.1 7.2 1m32.6-.6q.4.9-.4 1-1-.1-1.1-1 0-1 .4-1t1.1 1m-172.9 7.5c6.4 2.6 7.9 12 2.8 17.6-3.2 3.5-14.1 1.7-15.8-2.6-1.7-4.6.4-10.8 5-14.4 3.2-2.5 3.5-2.5 8-.6m245.6 3.9c-1.8 4-5.3 5.6-19.4 9.1a336 336 0 0 1-75.3 8.1 211 211 0 0 1-29-3.7c-2.2-.6-6-1.2-8.5-1.3s-5.7-.9-7.2-1.6c-2.3-1.1-2.8-2-2.8-5.2 0-2.1.1-3.8.3-3.8l10.6 3.5c5.6 1.9 11 3.5 11.9 3.5s3.7.8 6.2 1.7c3.2 1.1 9.3 1.7 21 2 24.6.7 39.5-1.7 84-13.7 2.5-.7 5.2-1.6 6-2 2.3-1.2 3.5.6 2.2 3.4m-53.5 0q-.6 1.5.8 1 1.4-.7.8 1.5c-.6 2.4-.9 2.5-2.7.9-1.4-1.4-1-4.8.6-4.8q1 .2.5 1.4m-189 26.8c5.7 20.2 7.6 32.9 5.3 34.3-.6.4-1.9.3-2.8-.1s-2.8-.8-4.2-.8q-2.5-.1-2.2-1.7.1-1.7-2.4-2.3l-2.7-.7 2.2-1.5c2.5-1.8 2.7-3.9.5-4.8-1.4-.5-1.4-.9-.3-2.2s1-1.8-.5-2.6c-1.7-.9-1.7-1.1 0-2.9s1.6-2-.1-3.9-1.7-2.1-.2-3.8c2.2-2.4 2.1-2.9-.5-3.5-1.9-.5-2-.8-.7-2.3.7-.9 1.2-2.9 1.1-4.5-.3-2.3.2-3.1 2-3.8 1.3-.5 2.6-.7 2.9-.5s1.5 3.6 2.6 7.6m125.8-.1c13 2.7 30.1 6.7 36.5 8.6 3 .9 6.6 1.8 8 1.9 12.8 1.4 42.4 8.6 43.6 10.6.8 1.3-3.5.9-6.5-.7-4.2-2.1-13.4-2.4-13.8-.4-.4 1.8 7 4.4 15.5 5.5 4.6.6 6 1.4 11 6a23 23 0 0 0 7.4 5.4q1.6 0 1.8 1a33 33 0 0 1-2.9 11c-.6 0-13.5-6.4-19.1-9.5-1.4-.8-7.9-2.6-14.5-4-6.6-1.5-15-3.5-18.6-4.6s-7.5-1.9-8.7-1.9q-2 0-2.2-1.5 0-1.4.6-1.5c1.8 0 15.2 3.4 16.9 4.3 3 1.6 9.5 2.6 10.1 1.5 1-1.6-1.7-3.7-5.5-4.4-2-.4-4-1-4.6-1.4s-5-1.7-9.8-2.9c-8.1-2-10.3-2.8-14.7-5.3-3.6-2-6.5-2.8-11.8-3.4a66 66 0 0 1-22.3-7 4 4 0 0 0-2.5-1.4q-1.3-.1-1.4-1c0-.6-2.4-2.1-5.4-3.4-5.2-2.3-8.3-5.6-7.1-7.5.3-.5 2.9.2 5.8 1.6a73 73 0 0 0 14.2 4.4m289-6.2q.4.9-.5 1.6-.9.4-1-.9 0-2.7 1.5-.7m-245.2.8a17 17 0 0 1-4.5 0c-1.3-.2-.3-.4 2.2-.4s3.5.2 2.3.4m26.4 3q-.5 1.3-.5-1.2 0-2.6.5-1.8c.2.7.2 2.1 0 3m-12.3-.5c-1.3 4.3-5.5 8.8-5 5.5.2-1.4 4.5-7.7 5.2-7.7q.4.2-.2 2.2m2.2 4.3c-1.5 2.5-3.1 4.5-3.6 4.5q-1.3-.2 3.4-7.3c3-4.4 3.1-2.3.2 2.8m-7.4-2.3q-1.1 1-1.2.2c0-1.4 1.2-2.6 1.9-1.9q.3.6-.7 1.7m266 4.8c1.9 0 1.9 1.8 1.2 114.2-.3 62.9-.9 121.7-1.3 130.8l-.6 16.5-7.5.1c-4.1.1-8.1-.3-8.8-.9-1-.8-1.2-3-.8-8.6.3-4.2.8-17.5 1.1-29.6s.8-25.6 1-30c.3-4.4.7-17.7 1-29.5 2.2-92.2 4.7-158.5 6.1-162.9q.4-1.4 3.5-.7c1.8.3 4 .6 5.1.6m-254 3.2q-1.1 1-1.2.2c0-1.4 1.2-2.6 1.9-1.9q.3.6-.7 1.7m-71.6 2.7c1.3 1.6 4.2 3.4 6.6 4a78 78 0 0 0 16.7 3.6 36 36 0 0 1 10 2.8l4.6 2.2-4.4.3c-2.3.2-5.7-.2-7.4-.7a94 94 0 0 1-29.3-9.2q-4.4-2.6-4.4-6.1c0-1.9 5.2.2 7.6 3.1m67.9-2.9q-.7.9-1.6 1-.9-.1-.4-1a2 2 0 0 1 1.6-1q.9 0 .4 1M141 448c0 .5 2.2 1.6 4.9 2.4s6.2 2.1 7.8 3 5.4 1.8 8.4 2.1a247 247 0 0 1 19.7 3.1c1.2.2 2.2.8 2.2 1.3 0 1-20.3 2.5-33.9 2.4-13.3-.1-14.8-1.6-12-11.6.9-3.3 2.9-5.2 2.9-2.7m104.7 7.6q2.7 2.5.8 1.5c-3.2-1.5-6.1-4-4.8-4.1.7 0 2.5 1.2 4 2.6M431 463c0 1 .7 2.3 1.6 2.8.8.5 1.8 3 2.2 5.8.6 3.8 1.1 4.8 2.4 4.6 1.6-.2 1.7 1 1.3 12.5a3834 3834 0 0 0-2 102.8 3274 3274 0 0 1-2.5 100.3v4.3l-12.2-.2-12.3-.1.1-98.6c0-54.3.1-102.1.2-106.2l.2-7.5 8.3-1.8c4.5-.9 9.6-1.8 11.2-1.9 5.2-.5 2.3-2.3-3.2-2.1-2.9.1-5.3-.1-5.3-.5s1.9-4.4 4.1-8.9q5.9-11.7 5.9-5.3m-10.6 6.7c-2.7 6.1-4.4 8.6-4.4 6.4s4.9-12.1 5.9-12.1c.6 0-.1 2.6-1.5 5.7m-32.4 2.8c0 3.3-.4 4.5-1.5 4.5-1.7 0-1.9-2.7-.5-6.4q2-5.7 2 1.9m-164 .7q-.1.9-1.6.4l-2-.6q-.5 0 .1-1c.7-1.1 3.5-.2 3.5 1.2m-15.5-.3c2 .8 2 .8 0 1.5l-9 1.6c-19.3 2.6-27 4.9-24.6 7.3.5.5 2.9.3 6.3-.6 2.9-.9 8-1.9 11.3-2.2s8.7-1.4 11.9-2.2c7.5-1.8 29.8-1.4 33.6.7q2.5 1.5 1 1.6l-10.5 1.4c-4.9.7-13 2.3-18 3.6l-19 4.9a364 364 0 0 0-43.2 14.3c-1.3.8-2.3 2.3-2.3 3.3 0 2-3.3 3.3-7.1 2.7-2.1-.3-2.4-.8-2.1-4.5.1-2.4-.4-5.9-1.3-7.9s-1.5-4.5-1.5-5.4c0-4.4 7.8-7.6 36.9-15.1 21.3-5.5 32.5-7 37.6-5m-148.9 9.3c.5 1.3.7 2.6.6 3-.2.8 1.3 49.6 2.3 72.8l.6 24c0 6.3.7 30.2 1.5 53 1.5 46.3 1.9 117.4.5 116.6-.4-.3-1.2-11.9-1.6-25.8l-1-30.3c-.8-21-1.6-51.4-2.1-81.5-.4-19.5-.7-38.7-.9-42.5l-2.1-75.3c-.3-10-.1-16.2.5-16.2s1.3 1 1.7 2.2m-5.7 26c.6 12.2 1.3 36.5 1.6 53.8s.8 32.2 1 33 .7 14.8 1 31a2595 2595 0 0 1 2.1 125.9c-1.1-1.1-2.1-29.3-4.6-128.9-1-39.7-1.6-58.6-2.5-78-1.1-23.3-1.5-64.4-.6-61.8.5 1.4 1.4 12.7 2 25m333.9-17.8c.3 7.7.2 7.9-1.5 6.3q-1.9-1.6-3.3-.7c-2.3 1.5-3 1.2-3-1.1 0-1.1-.9-3.2-2-4.6-1.8-2.3-2.7-7.3-1.6-8.4a18 18 0 0 1 5.8.1l5.3.5zm-342.1-.9.7 13c.3 3.3 1 21.1 1.5 39.5a1536 1536 0 0 0 2.6 59.5l1.2 35c.4 11.5.8 24.8.8 29.5v8.5l-3.3.3q-3.1.3-3.6-1a942 942 0 0 1-2.1-51.8L42 576.5c-2.2-69.9-2.3-77.4-1-79q1.4-1.5.3-3.8t-.1-4.1 0-4.1q-2-4 2.3-3.3c1.8.3 2 1.1 2.2 7.3m-9.5 1.2q.5 5.2-.7 6.3c-1.4 1.2-18.5 4-18.5 3 0-.4 2.1-1 4.8-1.4 5-.6 11.2-3.8 11.2-5.7 0-1.2-.8-1.1-10.7 1-3.6.7-4.5.5-5.9-1-1.6-1.8-1.5-1.9 2.6-1.9 4.9 0 12.6-3.5 14.2-6.4q2.1-4 3 6.1m-9.7-5.8c-1.5 1.3-6.5 2.3-6.5 1.2q.2-1 2.3-1.4c4-.8 5.1-.7 4.2.2m222.8 9.3c3.1 2.4 4.6 38.8 1.6 38.8-.4 0-.9-5.3-.9-11.8-.1-6.4-.4-15.1-.8-19.2l-.7-7.5-4.4.3q-4.4.4-3.7-.7c1-1.5 6.8-1.4 8.9.1m136.7 7c1.8-1.1 1.9-.2 2.1 25.6.3 26.3.2 112.4-.2 149.9-.1 17.8-.3 19.3-1.9 19.3-1.4 0-2-1.1-2.5-5.1-1-7.5-4.4-7.8-12.8-1.3-3.7 2.9-4.5 4-3.6 5 .9 1.1.5 1.4-2.5 1.4H361v-5.8l-.7-37.2c-.3-17.3-.6-45.2-.7-62-.1-26.7.1-30.5 1.4-30.1 5.3 1.4 5.5 1.1 6-7.9.3-4.7.9-9.1 1.3-9.8s3-1.2 6.3-1.2c7.9 0 8.9-1.5 8.5-13.2a71 71 0 0 0-.6-9.8c-.2-.3-.6-4.8-1-10-.6-8.7-.6-9.3 1-8 1.3 1.1 2.1 1.1 3.5.2m-351.1 2c1.1 3 2.3 31.6 2.2 54.3 0 9.9.4 28.1 1 40.5s1.5 34.6 2 49.5l1 30c1.1 30.1 3 120.7 3.2 152l.2 23H42c-2 0-2.6-.7-3.2-3.5a929 929 0 0 1-1.3-47.5c-.4-24.2-1-51.8-1.5-61.4s-.8-25.5-.9-35.5-.4-18.2-.5-18.5c-.2-.3-.7-12.3-1-26.6a2632 2632 0 0 0-2.1-58.5l-1-26.5-1-29a605 605 0 0 0-1.2-26c-1-8.9-.4-15.8 1.5-17.3q3.6-2.7 5.1 1M23 507.9c0 2.1.2 4 .5 4.3s.8 6.3 1 13.4l.9 21.4a1922 1922 0 0 1 2.1 41l3 73.5c1.1 22.3 1.4 31.9 2 59.5l1 46.5c1.6 58.4 1.7 85.7.4 85.3-1.6-.5-2.2-8.5-3.9-58.3L28.5 750l-1-24.5c-1.2-31-1.6-41.4-2-47-.2-3.3-.7-14.8-1-25.5s-1-27.4-1.5-37c-1.6-29-2-36.5-3-60l-1.6-34.5c-.3-6.6-.7-12.7-.9-13.5-.5-1.8.5-3.5 2.5-4.2 2.4-.8 3 0 3 4.1m136.4 10.2q-.6.8-1.5.3t-.3-1.5q.6-.8 1.5-.3t.3 1.5m-14.6 5.5q-1.2 2.3-1.6 1.5c-.5-1.6.5-4.1 1.7-4.1q1 .1-.1 2.6m7.2 4.3c0 .6-1.1 2.3-2.5 3.8-2.8 3.2-3.5 1.2-.9-2.5 1.6-2.3 3.4-2.9 3.4-1.3m8 1.5q0 .5-1 1.1-.9.4-1-.4.1-1 1-1.1 1 0 1 .4m94.4 32.1c.9 11.5 2.1 24.6 2.6 29l2 21.5a321 321 0 0 0 6.4 51c1.2 10.3 9.9 26.9 15.7 30.1q2.2 1 1.5 3.2c-.3 1.1-.1 2.6.3 3.1 1.5 1.9.1 7.4-2 7.9-2.6.7-3.3-.9-1.5-3.5 1.4-2 1.4-2.4-.1-4s-1.7-1.7-3 .2q-1.4 1.8-2.4 2c-1.4 0-1.1-2.2.8-4.2 2-2.2 1.1-3.5-1-1.3-2.3 2.2-3.3-.1-1.1-2.6 2.1-2.4 1.1-3.8-1.1-1.5q-3.2 3.2-2-.4.8-2.1-1-2-1.7 0-1.1-1.5l1.2-3q.8-1.6-1.1-.9c-1.4.6-1.6.2-1.3-2.2.2-2.3-.1-2.8-1.4-2.6q-3.3.7-.2-3.6c1.5-2.2 1.5-2.5-.4-4.5-2.2-2.5-3.5-9-2-10.5q1-1-.5-8.3a112 112 0 0 1-3.6-24.1c.2-1.8 0-3.9-.5-4.6-.9-1.5-1.1-3.8-3.1-34.2-.8-12.9-2-28-2.5-33.5-1.2-12.5-1.2-19.5-.1-17.5.4.8 1.6 10.9 2.5 22.5M161 541.3c0 1.4-2 3.7-3.2 3.7s-1-2.4.4-3.8c1.6-1.6 2.8-1.5 2.8.1m-10.8 6.9q-1.1 1-1.2.2c0-1.4 1.2-2.6 1.9-1.9q.3.6-.7 1.7m10.5 1.5c-2.1 2.2-3.2 1.1-1.7-1.7q1.2-2.4 2.3-1.1 1.3 1.1-.6 2.8m16.7 3c-.2 4.7-.4 5.3-1.5 5.3q-1-.1-.5-1.7c.4-.9.1-2-.5-2.4-1.5-.9-.4-3.9 1.4-3.9q1.2.1 1.1 2.7m-26.4.8q-1.2 1.4-1.8 1-.4-.5.8-2 1.2-1.4 1.8-1 .4.5-.8 2m187.5.5q-.8 1.1-1.7.2-.9-1.1-.3-2.2.8-1.1 1.7-.2.9 1.1.3 2.2M162 556.9q-.1.9-1.5 2.1-1.6 1.5-1.5-.2c0-.8.3-1.8.7-2.1.9-1 2.3-.9 2.3.2m-10 2.6q-1.2 1.4-1.8 1-.4-.5.8-2 1.2-1.4 1.8-1 .4.5-.8 2m27-.6c-1.1 2.1-2.9 3.6-3.5 2.9-.3-.2.2-1.4 1.1-2.6 1.9-2.8 3.9-3 2.4-.3m-17 3q-.1.9-1.5 2.1-2.3 2.1-.9-1.4c.6-1.7 2.4-2.2 2.4-.7m43-.5q0 .5-1 1.1-.9.4-1-.4.1-1 1-1.1 1 0 1 .4m-22 2.5c0 1.1-4 4.1-5.4 4.1-.5 0 .1-1.1 1.4-2.5q3.8-4 4-1.6m22.6 4.7c.3 3.6-.9 7.4-2.4 7.4-.9 0-.8-4.2.1-5.7q.6-1.1-.3-1.8t.2-2.5c1.5-2.4 2-1.9 2.4 2.6m-20.6-2.4c0 .6-1 2.2-2.2 3.5-2.2 2.3-1.2 3.3 1 1.1q1.3-1.4 1.2.4c0 .9-.5 2-1.1 2.4q-1.2.7.2 1.4c.6.5 1.3 2.3 1.3 4.2.1 2.7-1 4.5-6.7 10.8q-10.7 11.8-7.8 6.1a7 7 0 0 0 1-3.4q-.6-4.2 1.9-3.3 1.8.6 5.1-2.8c2.8-2.9 3-3.4 1.3-2.9q-2 .6-1.7 1.2t-1 .8c-2.2 0-1.9-.7 2.2-4.9 2-2.1 3.4-4 3.1-4.3s-1.7.7-3.2 2.1c-1.4 1.5-2.9 2.4-3.3 2s-.1-1.2.5-1.8q2.5-2.7-.4-2.8c-2.2 0-1.6-1.3 3.1-6.4 4.1-4.6 5.5-5.5 5.5-3.4m-32 1.3q0 1.3-1 1.5-.9-.2-1-1.5c-.1-1.3.5-1.5 1-1.5q1 .2 1 1.5m185.3.2c.3.5.6 28.9.8 63.2l.4 62.4-6.6-.2c-6.9-.2-11.9 1.3-11.9 3.7 0 1.1 1 1.3 5.3.7 3.8-.5 4.9-.4 4.1.4-.6.6-3.3 1.4-6.1 1.8l-5.1.6-.4-8.3c-.3-7.5-.1-8.3 1.7-9a8 8 0 0 0 3.2-2.2 94 94 0 0 0 8.3-25.4c0-2.3.7-6.1 1.5-8.4s1.5-5.1 1.5-6.1c0-2.7-3.4-2.4-5.3.3l-1.6 2.3v-2.2c-.1-1.3 1.8-6.1 4.1-10.8 3.2-6.4 3.9-8.8 3.1-9.6-2.2-2.2-4.2 0-8.8 9.3-4.2 8.5-4.6 9.7-3.9 13.8.5 2.5.8 5.1.9 5.8q.2 1.4 1.7 2.3c1.4.8 1.6 1.9 1.2 5.6-.3 2.6-1.1 5.8-1.8 7.2s-2.1 5.2-3 8.3c-1 3.2-2.2 5.8-2.7 5.8s-.9-3.7-1-8.3l-.3-16.2-1.1-34.7-.8-26.7 2.7-1q2.6-1 2.6-3.5t2.3-3.7c1.2-.7 2.7-1.8 3.2-2.5s1.9-1.4 3-1.6c1.7-.3 2-1.2 2.3-7.1.3-6.7.3-6.7 3.2-6.7 1.6 0 3.1.3 3.3.7M156 569.9a7 7 0 0 1-2 2.6c-1.4.9-1.2-1.9.2-3.3 1.9-1.9 3-1.4 1.8.7m7 2.7c0 .7-6.2 9.4-7.1 10-1.8 1.1-2.3-.5-.7-2.3.8-1 1.9-2.5 2.3-3.3q1.3-2-.8-.1c-2.8 2.3-3 .6-.2-2.7q2.5-3 4.5-2.5 1.8.5 2 .9m1 5.4c0 1.9-8.5 11.9-9.4 11-.5-.5 1-3.2 3.5-6.4q6.1-8 5.9-4.6m8 4q-.1.9-1.1 1-.8-.1-.4-1 .6-1 1.1-1 .3 0 .4 1m33 1c-.9 1.7-3 2.8-3 1.6 0-1.6 1.5-3.6 2.6-3.6s1.2.4.4 2m-41 3.3c0 1.7-7.8 9.3-8.6 8.4-.8-.8 6.3-9.7 7.7-9.7q.8.1.9 1.3m40.2 1.9c-.6.6-1.5.8-1.9.4q-.6-.7.7-1.6c1.9-1.2 2.7-.3 1.2 1.2m-20.3 5.1c-1.1 2.4-3.7 4.3-4.6 3.4-.4-.4 5-6.5 5.5-6.2q0 .5-.9 2.8m22.9 1.3c1.2 4.5.5 7.4-1.8 7.4-1.4 0-2-3.1-1-5.1q1.2-2-.4-2.5t-.5-2.5c1.5-2.9 2.4-2.3 3.7 2.7m-43.2 2.4c-.2 2.7.1 5.1.6 5.2s-.2 1.9-1.8 3.7c-2.4 2.9-2.5 3.2-.7 2.3q4.6-2.7 1.7 1.3c-1.5 2.3-4.6 3.5-4.3 1.7q.1-.7-.1-1.2c-.8-1.5-.4-5.8.4-5.3q.8.5.2-1.2-.6-1.8 1.6-4.3l2.3-2.5-3.3 1.7q-6.7 3.5-1.5-2.8c4-5.1 5.3-4.7 4.9 1.4m12.9-1q-1.7 1.8-2.3 1.5c-.3-.3.3-1.4 1.3-2.5s2-1.8 2.3-1.5-.3 1.4-1.3 2.5m18.1 1.7q.3 2.7-1.8 4.7c-2.3 2.1-2.3 2.2-.2-2.9q.5-1.3-.6-1.5-1.5.2 0-1.5c.6-.8.8-2 .4-2.7q-.8-1.5.6-.1c.7.7 1.5 2.5 1.6 4m-11.7 2.9c-1.2 1.3-3 2.4-3.8 2.3q-1.6 0-.3-.6 1-.5 1.2-1.5c0-1.5 4.4-4.8 4.9-3.7.2.6-.7 2.1-2 3.5m-3.9-2.2q-.2.4-1.5 1.6-1.7 1.6-1.5-.4.1-1.5 1.5-1.6c1.4-.1 1.5.2 1.5.4m-5.7 6.3-1.9 3.1q-.2.3-.8-.7-.5-1.1 1.4-3.1 4.3-4.1 1.3.7m10.8 2.6c-1.6 1.6-2.6-2-1-4 1.3-1.5 1.4-1.4 1.7.7.2 1.2-.1 2.7-.7 3.3m13.7.6q.5 2.4-.9 1.6-1.2-.9-.4.4c.8 1.3-3.3 6.4-4.5 5.6q-.9-.5-.1-5.5c.2-1.4 3.7-4.9 4.6-4.7.6.2 1.2 1.4 1.3 2.6m-23.2.9q-2.6 2.6-.6-.6 1-2.1 1.8-1.8.4.8-1.2 2.4m2.5 5.5c-1.3 3.3-3.5 3.7-2.5.4.8-2.8 2.7-5.2 3.1-4 .2.6-.1 2.2-.6 3.6m7.9-1.8q0 1.4-1 2-1 .4-1-2c0-2.4.4-2.4 1-2q1 .6 1 2m-20-.1q0 .9.8 1.5c.5.3 1.2 1.6 1.6 2.7.5 1.7-.2 3-2.8 5.5-1.9 1.8-3.2 3.7-2.9 4.2q.4.9-.5.3-1.1-.6-1.2.8c0 2-2.7 3.4-5.6 2.8-2.8-.5-3.1-2.4-.7-4.3 1.3-1.1 1.7-1.1 2-.2q.6 1.2 1.9 1.3c1.9 0 4.7-4.7 4-6.6a3 3 0 0 1 .4-2.9q1.2-1.3.1-2t.2-2.5c1.2-2 3-2.3 2.7-.6m45.2 4.9-5.2 5.6q-1.8 2-2 1.1c0-1.8 7.2-9.8 9-9.9q1.3 0-1.8 3.2m-54.2 1.1c0 1.4-2.4 2.9-3.3 1.9q-.5-.6 0-1.9c.7-1.8 3.3-1.8 3.3 0m57 1.9c0 1.2-9.7 11.7-10.7 11.7-1.6 0 1.4-5.8 4.9-9.6q5.8-6.1 5.8-2.1m-43.1 8.6c-.6 1.4-3.6 4.8-6.5 7.5-4.4 4-5.4 4.5-5.4 2.9 0-1.1.9-2.8 2.1-3.9 1.2-1 3-3.3 4.2-4.9 1.8-2.6 1.5-2.5-2.1.9-4.3 4.1-6.6 4.3-3.9.4.8-1.3 3.7-4.6 6.3-7.3l4.7-5 .9 3.4q1 3.4-.3 6m24.7.6q-4.1 5.5-1.6 4c1.5-.9 1.2 2.1-.3 3.4-2.6 2.1-1.5-6.2 1.3-9.7 3.3-4.2 3.9-2.1.6 2.3m102.5.7.4 14.8.9 26.7.6 18.3h-7.4c-6.8 0-7.6-.2-10.5-2.9-3.9-3.7-3.9-4.6.1-4.6 1.7 0 3.3-.5 3.5-1.2.6-1.7-5.5-4.6-8.2-3.9-1.9.5-2.5 0-3.8-3.7a70 70 0 0 1-4.2-15.9c-.6-4.7-.5-4.9 2.9-6.9 3.7-2.2 7.9-7.1 9-10.6s4.6-7.3 8.1-8.7c1.9-.8 4.1-2.8 5-4.5q3.5-7 3.6 3.1M212 626q-.1.9-1.1 1-.8-.1-.4-1 .6-1 1.1-1 .3 0 .4 1m-40 6.1c0 1.6-12.4 14.2-12.8 13-.5-1.5.8-3.5 6.2-9.1 4.7-4.9 6.6-6 6.6-3.9m38.5.8q-.6 1-1.7 1.1-1 0 .2-1.5c1.4-1.7 2.6-1.3 1.5.4m-1.1 7.2c-2.7 2.8-2.4 3.5 1.4 3 2.1-.3 1.3 2.8-1.3 4.5-1.4.9-2.3 2-2 2.4q.4.8-1.1 1.4-1.8.9-1.1-1.5c.5-1.9.4-2-1.2-.5-2.5 2.3-3.1 2-2.7-1.3.3-3.1 4.6-9.3 8-11.7 3.3-2.2 3.3.3 0 3.7m-13.4-2.4c-.1 1.2-4 5.6-4.5 5.1-.3-.2.5-1.6 1.7-3.1 2.3-2.8 2.8-3.2 2.8-2m-23.1 5c0 .4-3 3.9-6.6 7.7-5.5 5.8-6.5 6.5-6.1 4.3q.4-2.4-.3-2.1c-2.1 1.3-.6-1.5 2.3-4.2q2.7-2.5 2.3-1.5-.7 1.4.3.7 1.1-.8 1.2-2.2.1-1.3 1.4-1.4c.7 0 1.9-.7 2.6-1.5q1.3-1.6.1-1.5-1-.1-.6-1c.7-1.1 3.7 1.3 3.4 2.7m23.1.2c0 1.7-4.9 6.7-5 5.2 0-.8 1-2.5 2.2-3.8 2.4-2.5 2.8-2.7 2.8-1.4m-20 3.6q0 1.4-.7 1.5c-1.2.1-7.6 6.1-7.1 6.6.3.2 1.8-.7 3.4-2.1s3.3-2.5 3.7-2.5q2 0-6.8 9.9a25 25 0 0 0-5.1 6.8c.7.8 4.6-2.1 5.2-3.9.6-2 2-2.4 2.6-.7q.4 1 1.7-.5 1.9-2-.3-1-1.5.4-1.6-.5c0-1.2 3.6-1.5 4.3-.4.3.5.8 2.1 1.1 3.8.6 2.7 0 3.8-5.7 9.9l-6.3 6.8-1.2-2.7c-.7-1.4-.8-2.4-.3-2 1.3.7 6.5-6.1 5.6-7.4q-.4-1 .8-.5 1.4.3 2.6-.9c.9-1.2.8-1.6-.4-2.1-2.1-.8-4.2 1.3-4.7 4.5q-.3 2.4-2 2.1-1.9-.4-1.2 1.5.7 2.2-.4.3c-.5-.8-1.3-3.4-1.7-5.7-.5-3.5-.3-4.6 1.4-6.4 1.1-1.2 1.8-2.6 1.5-3.1q-.7-.6-2.5 1.4c-1.8 2.1-1.8 2 .1-1.4a44 44 0 0 1 13-12.8q.9.1 1 1.5m97-.7c0 .8-4.3 3.2-5.5 3.2-1.4 0-.2-2.9 1.3-3.3q4.3-1.1 4.2.1M194.3 656c-1.6 2.8-3.3 3.9-3.3 2.3 0-.7 4.1-5.3 4.7-5.3.2 0-.4 1.3-1.4 3m11-1.3a2 2 0 0 0-1.3 1.8q-.1 1.3-1.5 2.5-1.5 1.3-1.5.1 0-1 1.2-1.1 1 0 .5-.7c-.9-.8 1.2-3.3 2.7-3.2q1 0-.1.6m6.7.8c0 .2-1.1 1.6-2.5 3q-3.6 3.5-3.5 2a37 37 0 0 1 5.7-5.5q.3 0 .3.5m-1.6 9c-.7 1.8-1 3.6-.6 3.9q.4.6-1.2 0-1.7-.9-4.1 2.2c-1.8 2.2-2.6 2.6-3.5 1.8s.2-2.7 4.2-7.2c5.4-6.1 7.6-6.4 5.2-.7m-6.4-.5q-1 1.8-2 2c-1.6 0-1.1-1.8.8-2.9 2.4-1.4 2.4-1.4 1.2.9m-8.6 2.2c-.7 2.4-5.4 7.8-5.4 6.3 0-1 5-8.5 5.7-8.5q.3.2-.3 2.2m118.6 1.9q0 1.8-1 1.4c-.5-.3-1-1.3-1-2.1s.5-1.4 1-1.4q1 .1 1 2.1m-218.2.1c.7.7 1.2 3.9 1.2 7.5v6.3h-3c-2.7 0-3-.2-2-1.9q1.1-2-.2-2.8a46 46 0 0 0-19.9 1.3q-3 3-2.9-.6-.1-2.1 2.5-2a14 14 0 0 0 5.7-2c1.8-1.1 4.3-2 5.5-2s3.5-1.1 5-2.5c3.1-2.7 6.2-3.2 8.1-1.3m61.2 3.9q0 .8-1 .9-.9-.1-1-1.6.1-1.3 1-.9 1 .6 1 1.6m-8 1.8c1.3 2.5 1.3 10.1 0 10.1a112 112 0 0 0-33.7-5.2q-2.3 0-2.3-2-.1-2.1 1.8-1.3c.9.4 4.9 1 8.7 1.2 5.7.4 8 .1 11.5-1.5 8.2-3.6 12.5-4 14-1.3m22.3 3.3c.4 1 .7 1 1.8 0 1.4-1.3 3.9-1.6 3.9-.4 0 .4-2 2.7-4.5 5.2a26 26 0 0 0-4.5 5.7c0 1.6-2 1.8-2 .3 0-.6.7-2.5 1.5-4.3q1.7-3.5.2-1.5-2.6 3.2-2.7.4c0-1.6 3.8-6.6 5-6.6q.8.2 1.3 1.2m26.7 0c-.1.7-1.9 3.3-4 5.8-3.4 3.9-4 4.2-4 2.3 0-1.2 1.4-3.8 3.1-5.8q4.8-5.4 4.9-2.3m12.7 0q-2.4 6.5-.8 5.4c2.1-1.3 1.1 1.2-2.1 5.2q-5.7 7-4.4 1.8c.3-1.4.2-2.8-.4-3.1-1.7-1-1.2-2.3 2.6-6.5 3.5-3.9 6.1-5.3 5.1-2.8m103.3 18c0 10.5-.2 18.9-.5 18.6s-.8-8.9-1.1-19.1c-.5-13.5-.3-18.7.5-18.7s1.1 5.7 1.1 19.2M53 681.6q0 1.4-3.5 1.4c-4.3 0-4.9-2.7-.7-3.2 3.3-.5 4.2-.1 4.2 1.8m16.8 2.4q-2.3 3.6-1.1-.8.5-2 1.4-1.6c.5.3.3 1.4-.3 2.4m19.7-2q.4.9-1 1c-1.4.1-1.3-.5-1-1q.6-1 1-1t1 1m87.5.2c0 2-9 12.9-10.1 12.2-1.5-.9-1.1-1.6 3.6-7.7q6.6-8.2 6.5-4.5m-17 2.3q0 1.3-1 1.5-.9-.2-1-1.5c-.1-1.3.5-1.5 1-1.5q1 .2 1 1.5m-25.7.2c-.7.2-1.9.2-2.5 0q-1-.5 1.2-.5c2.2 0 1.9.2 1.3.5m220.7.3q0 .9-1 1a1 1 0 0 1-1-1q.1-1 1-1t1 1M97.3 699.4c.4 7.1.6 13.5.3 14.1-.2.7-3.5 1.5-7.4 1.8-8.6.8-10.4 1.5-10 3.6q.3 1.6 3.3 1.3 2.7-.3 2.2.5c-1.1 1-14.7 3.1-15.2 2.3-.3-.5-.8-9.8-.6-13.2.1-1.3 1-1.7 4.4-1.7 2.3 0 7.8-.3 12.2-.8 6.1-.6 8-1.2 8-2.3 0-2.2-7.4-2.5-13.8-.6q-10.8 3.1-11.2-2.9c-.5-6.5.1-7.1 6.8-7.5 3.4-.2 7.6-.2 9.2-.2 3.8.2 8.5-1.6 8.5-3.4 0-2-3.9-2.6-14.5-2.2q-9.6.3-9.5-.8.2-1.1 8.2-1.3c4.5-.1 8.4-.3 8.5-.5.1-.1 2.4 0 5 .4l4.8.5zm-75.4-9.5q-.5 1-1.8.2-1.1-.9-.6-2.1c.9-1.4 2.9.2 2.4 1.9m30.8-1.3q.1 1-3.2 1.2-3.6.2-3.5-1.4-.1-1.6 3.2-1.2c1.7.2 3.3.8 3.5 1.4m64.3-.6c-.8.5-1.9 1-2.5 1q-.7-.1.5-1 1.8-1.2 2.5-1 .8.1-.5 1m34.8 1.4c.4 1.9-.4 2-6.4.5-6.4-1.6-6.3-2.7.4-2.4 4.4.1 5.8.6 6 1.9m9.2.7q-.1.8-1.5.9c-1.5 0-2-1.2-.9-2.3.8-.8 2.4.1 2.4 1.4m15-.6c-.7.8-1.7 1.5-2.2 1.5q-.9-.2.2-1.5c1.1-1.3 1.7-1.5 2.2-1.5q.9.2-.2 1.5m19.4 5.2c-2.1 2.7-4.4 4.1-4.4 2.6 0-1.3 5.1-6.5 5.8-5.8.3.3-.3 1.7-1.4 3.2m-80.8-.1c.5 3.4 1.5 4.4 4.2 4.4 1.6 0 3.5-.7 4.2-1.5 1-1.2 3.4-1.4 12.4-1.1q11 .4 10.9 1.5-.1 1 1.2 1.1 1.4-.1 1.5-1.1t2.3-.3c2.7.8 2.3.2 3.1 4.6l.7 3.8h-6.6c-6.5 0-6.5 0-5.9-2.6l.6-2.5-6.3.3c-4.9.2-6.4.7-6.4 1.8s1.3 1.6 4.3 1.8c3.5.3 4.2.7 4 2q-.6 1.5-1.9 1.3c-3.1-.9-5.4 0-9.8 3.7-4.2 3.5-5 3.8-9.3 3.4l-4.8-.4v-11.6c0-6.3.3-11.2.7-10.8s.8 1.4.9 2.2m25.1-2q-.7.5-1.9.1t.6-.6q1.8 0 1.3.5m22.3 2q0 1.3-1 1.4-.9-.1-1-2.1.1-1.8 1-1.4c.6.3 1 1.3 1 2.1m14.2.1a39 39 0 0 1-4.7 5.3l-2.7 2.5.7-2.5c.4-1.4 1.4-2.9 2.1-3.3s1.4-1.3 1.4-1.8q0-.9-1-.4t-1-.5 2-.5q1.8.6 2-.4t1.6-1.1c1.3 0 1.2.4-.4 2.7M22.5 699c-.2.4-2.5.4-5 0s-5.8-.5-7.2-.2q-2.7.6-2.1-.9c.3-.8 1.8-1.4 3.4-1.5 4.8-.1 9.4-1.5 9.5-2.7q.2-.9.9 1.7c.5 1.6.7 3.2.5 3.6m206.6-.6a6 6 0 0 0-.4 3.4c.3.7-.1 2-.9 2.9q-1.3 1.8 0 .9 1.2-.8 1.2 1.6c0 1.3-.6 3-1.2 3.7q-1.7 1.6.5.8c2-.7 2.2.6.6 5.2q-1.2 3-3.5 3.7a8 8 0 0 0-4.1 3.7c-1.9 3.8-4 6-5.3 5.5-1.6-.5 1.9-6.4 6.7-11.3 2.5-2.5 4.3-4.8 4.1-5.1q-.6-.3-2 .8c-.7.7-2.4 1.9-3.6 2.6-2.8 1.6-2.9 0-.2-3.8 1.6-2.2 1.7-3 .7-4.3-1.1-1.5-1.4-1.4-3.6.3q-2 1.8-1.4 2c.6.2 1.4-.5 2.1-1.2q1.3-1.5 1.2 1.1c0 1.9-.4 2.2-2.2 1.7l-3-.6c-1.6 0-.7-2.2 1.7-4.6s2.4-2.5.4-1.9c-1.8.6-2 .4-1.4-1.7 1.2-3.8 3.1-5.4 4.9-3.9 2 1.7 5 .6 4.2-1.4q-.5-1.4 1-1.5 1.3-.1 2.1-1.6.6-1.8 1.4-.3c.4.7.4 2.2 0 3.3m68.7-3.2c.5.7 1.1 4.9 1.3 9.3l.4 8-5.5.5c-3 .3-5.5.9-5.5 1.5s2.2 1.5 4.9 2.2q9.7 2.3 1.3 2.3c-2.6 0-4.7.5-4.7 1 0 1.3 4.3 3 7.6 3 2.4 0 2.4.2 2.4 8.3v8.4l-3.2 1.6c-1.8.9-4.1 1.8-5.1 2.1q-1.8.6-1.5 2.7c.3 1.8-.3 2.1-5.4 2.4-5.3.3-5.7.2-6.3-2.2q-1.2-4.4 4.8-4.3c1.5 0 2.9-.6 3.1-1.3l2-6.3c1.6-4.8 1.6-5.4 0-9.3-.9-2.3-2.5-4.8-3.6-5.5-1.6-1.1-1.9-2.1-1.3-4.4.8-3.7 2.5-4.5 8-3.7q4.2.8 5.3-.7 2.4-3.3-4.3-4c-3.6-.3-4-.6-4.3-3.2-.2-1.6-.1-4.4.3-6.3.5-3.1.9-3.3 4.4-3.3 2.1 0 4.3.6 4.9 1.2M53.8 710l.4 15h-3.6c-3.5 0-3.6-.1-3.7-3.8 0-2-.3-6.1-.5-9-.4-4.8-.3-5.4 1.6-5.9 2.4-.6 2.6-2.1.5-2.9-3.6-1.4-.2-7.6 4.5-8.3.3-.1.7 6.7.8 14.9m156.1-8.8.1 6.2-6.5 6.2a42 42 0 0 0-6.5 7.2q-.1 1-1.5 1.6c-4.7 1.8 2.3-10.6 10.2-18 1.8-1.7 3.3-3.5 3.3-4s-1.3.5-2.9 2c-4.2 4.1-4.6 1.6-.5-3.3 2-2.2 3.7-4.1 3.9-4.1s.3 2.8.4 6.2m161.8-5.6q-.6.5-1.9.1-1.1-.5.6-.6t1.3.5m-31 24c-.5.5-19.6.8-20.1.3a41 41 0 0 1-.7-7.9l-.4-7.5 6.5-1.2c11.1-2 12.1-2.4 13.3-5.2 1-2.2 1.2-.8 1.5 9.3.1 6.5.1 12-.1 12.2m-143.4-21.3c.3.8-.5 2.7-1.8 4.3-2 2.5-2.4 2.6-3 1.2-.6-1.6 2-6.8 3.5-6.8q.7.1 1.3 1.3m182.4.7c1.4 1.1 3.6 2 4.9 2 2.3 0 2.4.2 2.4 8.8v8.9l-9.2 1.2-12.5 1.8c-2.6.4-3.2.1-3.8-1.7-.8-2.4-.8-15.7 0-16.9.2-.5 2.9-1.2 5.9-1.5q5.3-.7 7.2-2.7c2.1-2.3 2-2.3 5.1.1m-202.7-.6q-.2.5-1.7 1.7-2.4 2-.4-.4 2-2.5 2.1-1.3m311 .6q0 .9-1 1a1 1 0 0 1-1-1q.1-1 1-1t1 1m-325 1.5q0 1.4-1 1.5-.9-.1-1-1.5c-.1-1.4.5-1.5 1-1.5q1 .2 1 1.5m267.9.1c3.1.6 3.1.7 3.1 6.9 0 3.4-.2 6.4-.5 6.7-.4.3-2.4.2-4.6-.3a44 44 0 0 0-17.2-.9c-2.2.8-2.2.8.3 1.8l4 1.5q1 .5-2.5.4l-4-.2-.3-7.7-.3-7.7 8.3-.4c4.6-.1 8.8-.4 9.4-.5s2.6.1 4.3.4M236 703q-.1.9-1.1 1-.8-.1-.4-1 .6-1 1.1-1 .3 0 .4 1m41.5 1q-.7.9-1.6 1-.9-.1-.4-1a2 2 0 0 1 1.6-1q.9 0 .4 1m170.4 2.7c-.1 3.8-.1 3.8-.9.9-.8-2.7-.6-4.6.6-4.6.2 0 .4 1.7.3 3.7m21.6 7.8v9l-7.3-.2c-4.1-.1-7.9-.7-8.6-1.2-1.2-1-1.3-4.2-.8-13.9l.2-3.3 8.3.3 8.2.3zM237 707.9q0 1-1 1.6-.9.4-1-.9.1-1.5 1-1.6 1 0 1 .9m-133 7.8c0 8.4-.8 7.8-1.5-1.1q-.6-6.6.5-6.1c.5.3 1 3.6 1 7.2m95-6.7c0 1.4-4 5.3-4.8 4.6-.9-.9 2-5.6 3.5-5.6q1.2 0 1.3 1m-42.3 1.4c-.4 1.2-11.2 1.9-13.7.9-2.2-.8 2.1-1.8 8.7-1.9q5.2 0 5 1m49.6 7.4a15 15 0 0 0-3.1 6c0 1.2-.8 2.9-1.6 3.8s-2 2.3-2.5 3.2q-1 1.5-1.6 1c-.4-.4.7-2.4 2.4-4.4s2.8-4 2.4-4.3q-.6-.4-1 .6-.6 1.2-1.8 1.3-1.4.2-2 2c-.7 2.3-2.5 2.7-2.5.5 0-.8 2-3.6 4.4-6.1a71 71 0 0 0 6.8-7.9c2-3 2.3-3.2 2.6-1.5.2 1.1-1 3.7-2.5 5.8m32.7-3.2c0 1.6-1.6 1.9-2.5.4-.8-1.3.4-3.2 1.6-2.5q.8.8.9 2.1m208.7 3.1q-.5 1.3-.5-1.7c0-3 .2-2.7.5-1.8s.2 2.6 0 3.5m28.3-2.2q0 1.3-1 1.5-.9-.2-1-1.5c-.1-1.3.5-1.5 1-1.5q1 .1 1 1.5m-235.6 5c-.7 1.8-.8 1.8-1.4-.1-.9-2.3-.1-3.9 1.1-2.7.6.6.6 1.8.3 2.8m74.6-1.4q0 .8-1 .9-.9-.1-1-1.6.1-1.3 1-.9 1 .6 1 1.6m-148 .4q0 1.3-.4 1.5c-.4.2-.6-.7-1-1.5q-.4-1.4.4-1.5 1 .1 1 1.5m51-.2c0 .8-.9 2.2-2 3.2-2.2 2-2.7.7-1-2.6 1.2-2.2 3-2.5 3-.6m14 1.6c0 2.9-4.2 8.1-6.5 8.1-.7 0-1.8 1.3-2.5 2.9-1.3 3.3-4.7 6.7-5.6 5.8-1-1 3.8-9.5 5.7-10 1-.3 2.8-2.6 4.1-5.1 2.5-5.2 4.8-6.1 4.8-1.7m38.2-1.4q-.1.9-1.1 1.3-1 .2-1.1-1.3c-.1-1.5.5-1.5 1.1-1.3q1 .4 1.1 1.3m162.5 3.2q-.5 1.3-.5-1.2 0-2.6.5-1.8c.2.7.2 2.1 0 3m-158.3.4c-2.2 2.4-3.8 1.4-1.7-1.1.9-1 2.1-1.7 2.5-1.3q.7.6-.8 2.4m152.4-.6q2 .6 2.2 1.6 0 1.1-6.1.4c-5-.6-6.1-.5-5.7.6q.6 1.3 7.2 2.1c9.3.9 9.2.8 8.8 6.3l-.4 4.7-6.7-.6c-3.6-.4-8.8-.3-11.6.2-4.1.6-5 1.1-5 2.7 0 1.8.7 2 9.5 2.1 12.2.1 15.1.8 13.5 3.4q-.7 1.1-2.1-.7-1.3-1.7-1.4-.5t-1.2.5c-.7-.4-2.5-.6-4-.4q-2.8.2-2.8-1.1 0-1.5-1 .2-.9 1.2-1 .5c0-.6-1.7-.9-4.1-.7q-4.3.3-4.6 2.3c-1.1 4.1-2.1 1.5-2.4-5.9-.4-13.4-.1-17.6 1.5-18.8 1.4-1 10.4-.4 17.4 1.1m-146.1.7c1.9 1.7 2.3 3.2 2.3 7.6 0 5.5 0 5.5-2 3.7-1.2-1.1-1.8-2.5-1.5-3.4q.6-1.5-1.6.5l-2.2 1.9.7-3.9c.6-3.3.5-3.8-.8-3.3-1.5.6-1.5.4-.1-2.3 1.9-3.6 2.2-3.6 5.2-.8m-183.1-.1c.9 1.5.8 23.5-.1 24.9-.4.7-2 1-3.9.6-1.7-.3-7.5-.6-12.8-.7-9.8-.2-9.8-.2-9.9-2.8-.1-1.4-.1-3 .1-3.6l.2-3.5c.1-2.4.5-2.7 4.2-2.9 8.8-.4 19.1-2.7 19.1-4.2q0-1.4-3-1.3a146 146 0 0 0-18.7 2q-1.9.7-1.8-1.5c.1-2.2.7-2.1 2.3-2.2 4.9-.1 8.9-1 15.4-3.3 8.1-2.9 8-2.9 8.9-1.5m11.4 3.4c0 2.5-.3 4.5-.8 4.5s-.6-2-.4-4.5.6-4.5.8-4.5.4 2 .4 4.5m132.6-1.7q-2.5 2.5-.5-.5 1.2-2 1.8-1.7.3.5-1.3 2.2m73.4-1.2q-.1 1.3-1 .9-1-.7-.5-1.6 1.4-2 1.5.7m-211.3 14.6c-.2 2.9-.3.6-.3-5.2s.1-8.1.3-5.3a92 92 0 0 1 0 10.5m283.6-10.1c.7 5.8-.1 10.9-1.7 11l-9.5.5c-8.4.5-11.1 1.4-11.1 3.9q-.1 1.2-1.4 1.8c-1.1.4-1.5-1.4-2.1-8.5-.3-4.9-.4-9.3 0-9.6.8-.9 17-4 21.6-4.1l3.6-.1zm105.2-4.1c-2.8 1.2-6.3 1.2-7 0q-.4-1 4.2-.9 5.2 0 2.8.9m-256.6 1.7-2.9 3.4-3.3 4.3q-1.7 2.4-2.8 2.1c-1.2-.8 2.8-8.5 4.5-8.5q1.3-.1 2-1.5t2.2-1.5c1.4 0 1.5.2.3 1.7m98.6-.7c-2.6 1.1-13.5 1.2-13.5.1 0-.5 3.5-.9 7.8-.9q7.7-.1 5.7.8m134.6 2.9c.3.3.2 5.5-.1 11.6s-.7 10.5-.8 9.8c-.3-1.5-5.4-.1-6 1.6q-.6 1.5 1.7.2c1.8-1 2.1-.9 2.1 1q0 2.3-1.2 1.1-2.4-2-4.6.1c-1.3 1-1.9.6-3.7-2.8q-.5-.9-1.1.2c-1.3 2.8-3.4 1.3-3.4-2.3 0-3.1.3-3.5 1.8-2.9 3.2 1.5 13.1 1.1 13.7-.4.6-1.4-1-3.1-2.9-3.1q-.9 0 .2-1.2c2.2-2.2 1.3-2.7-5.5-3l-6.8-.3-.3-5.7-.3-5.7 8.3.6c4.6.3 8.6.8 8.9 1.2m-128.1 8c0 4.4.3 8.6.6 9.4s-.4 2.5-1.6 3.7l-2.2 2.2-2.7-2.6c-1.5-1.4-3.2-2.6-3.9-2.6s-1.8-1.6-2.6-3.5c-1.1-2.6-2.3-3.7-4.6-4.1q-3-.7-3.6-3c-1.1-4.2.1-5.4 5.3-5.5a60 60 0 0 0 14.1-1.8c.9-.1 1.2 2.1 1.2 7.8m106.4-.5-1 15.8c-.3 6-.9 10.8-1.3 10.8-.7 0-.5-14.5.5-26.9.4-4.4.9-6.9 1.4-6.1.5.7.6 3.6.4 6.4m-392.9-3.9q.2 2.1-2.9 2c-3.1.1-4.7-2.2-2.5-3.6 2.3-1.5 5.4-.6 5.4 1.6m180.5.9c0 2.2-4.9 7.6-5 5.5 0-1.5 3.6-6.9 4.6-6.9q.3.1.4 1.4m-34.7 2c-1 1.3-2 2-2.1 1.5-.5-1.2 1.7-3.9 3-3.9.5 0 .1 1.1-.9 2.4m5.6 1.3c-3.2 5.2-4.6 6.6-5.4 5.3-.6-1 .2-2.4 4-7.6.5-.8 1.6-1.4 2.3-1.4q1.5-.1-.9 3.7m33.5 1.8q.6 1.5-1.5 1.5c-1.7 0-1.8-.2-.7-1.5 1.6-1.8 1.5-1.8 2.2 0m-16.7 3.1q-1.4 2.4-2 1.7c-.7-1 2.2-5.8 3-5 .2.3-.2 1.8-1 3.3m-168.1 2.5c-.4 4.7-.3 4.5-3.9 5.4-2.9.8-2.9.7-2.6-3.6.2-3.6.7-4.6 2.8-5.6 3.5-1.5 4.1-.9 3.7 3.8m179.8-1.4c-.9 3.5-1.3 4.3-2.5 4.3-1.5 0-1-3.7.7-4.4q1.3-.6.9-1.6t.5-1q1.2 0 .4 2.7m7.2 2c-1 1-1.9-.5-1-1.8q.8-1.7 1.2 0 .3 1.2-.2 1.8m-36.6-1.3q0 .5-1 1.1-.9.4-1-.4.1-1 1-1.1 1 0 1 .4m22-.1c0 .9-3.2 6.7-4 7.2-1.9 1.1-1.8-1.2.2-4.3 1.6-2.6 3.8-4.3 3.8-2.9m228 .1q-.2.4-1.5 1-1.4.4-1.5-.4.1-1 1.5-1c1.4 0 1.5.2 1.5.4m-279 6.1q-1.2 1.4-2.1 1.5c-1.5 0-1-2.2.9-4.3 1.5-1.7 1.7-1.7 2-.3.2.9-.2 2.3-.8 3.1m79.6-.8c-1 1-1.9-.5-1-1.8q.8-1.6 1.2 0 .3 1.2-.2 1.8m224.6 2.5c-.3 6.1-1.2 6-1.2-.2 0-2.9.3-5 .7-4.7.3.4.6 2.6.5 4.9m-264.6-1.5c-.6 3.2-2.6 5.5-2.6 3 0-1.5 2-5.7 2.8-5.7zm-34.6-1.4c0 1-4.1 4.9-4.6 4.5-.3-.3.5-1.5 1.7-2.7 2.2-2 2.9-2.5 2.9-1.8m53.6 5.5c-1.5 1.5-1.6 1.5-1.6-.4 0-2.8 2.4-5.2 2.8-2.8.2.9-.3 2.4-1.2 3.2m10.5-2.5q-1.5 1.4-.5-.6.6-1.6 1.2-1.2.4.6-.7 1.8m17.9-.3q-1.1 1.8-1.9 2-.8-.2-.4-2 .6-1.8 2-2 1.6-.2.3 2m121-.5q-.2 1.3-2 1.5c-1 0-2.3.7-2.8 1.6-.9 1.6-1.1 1.6-3.3 0-2.2-1.5-2.2-1.6-.3-1.6 1.1 0 2.9-.7 4-1.5 2.5-1.9 4.4-1.9 4.4 0m-57.5.5q.4 1-3 1c-3.4 0-3.4-.4-3-1s1.7-1 3-1 2.7.4 3 1m98.4 0q1.6-.2.1 1.5-1.1 1.3-.7 1.5l2.1.6q1.8.8 1-1-.7-1.7 1.5-1.6c2.4 0 4.8 4.7 3.3 6.2-1.1 1.1-4.4-.1-3.6-1.3q.4-.8-.5-.9-1 .1-1.1.8c0 1.1-9.9 1.2-10.5.1-.3-.4.3-1.3 1.4-1.8q2-1.2 2.3.1.5 1 1.1-.6.6-1.5-.2-1.2t-1.4-1.5c-.5-1.8-.2-2 1.6-1.5 1.2.3 2.8.6 3.6.6m63.5 6.4c-.5 1.3-.8 1.3-2 .1-.8-.7-1.4-2.4-1.4-3.6v-2.3l2 2.2c1.1 1.1 1.7 2.8 1.4 3.6m6.7-3.8c-1.9.8-4.2 1.2-5 .8q-2-.6.9-1.4a22 22 0 0 1 5-.9c2.2 0 2.1.2-.9 1.5M249 754.9c0 2.9-3.6 6.8-5 5.5q-1.2-1 1-3.6c1.1-1.5 2-3.1 2-3.8q.1-1 1-.5c.6.3 1 1.4 1 2.4m-63 .2c0 1.9.1 1.9 1.6.5 3.4-3.5 3.4.1-.1 4.2-1.3 1.6-2.1 3.3-1.7 3.7q.5.7-.6.1-1.3-.9-.7-3.4c.6-2.5.6-2.6-1.3-.9-1 .9-2.2 1.7-2.5 1.7-1.3 0-.7-3.1 1.1-5.5 2.1-3 4.2-3.2 4.2-.4m54.5 1q-.7 2.4-1.6.8-.6-1.4.3-2.6c1.5-1.8 2.1-.9 1.3 1.8m172.9-2.5c2.3.9.9 2.4-2.1 2.4-1.4 0-5.7.9-9.6 2.1-7.2 2.1-8.7 2-18.7-1.8-2.8-1 2.2-2.1 8-1.6 3 .2 8.2 0 11.5-.5 7.9-1.3 9-1.3 10.9-.6m83.6 1.9q0 1.4-1 2-1 .4-1-2c0-2.4.4-2.4 1-2q1 .6 1 2m-318.8 1.7c-1.2 1.2-2.4 1.9-2.7 1.6s.4-1.5 1.6-2.7c2.9-2.7 3.9-1.7 1.1 1.1M218 755q0 .9-1 1a1 1 0 0 1-1-1q.1-1 1-1t1 1m250.5 2q-.7 1.9-1.2 1.7c-.3-.3-.2-1.5.2-2.7q.7-1.9 1.2-1.7c.3.3.2 1.5-.2 2.7m25-1.1c-.8 1.3-3.5 1.5-3.5.2q.2-.9 1.8-1.3 3.1-.8 1.7 1.1m-325.4 1.8q-1 2.2-1.1.2c0-1.7 1-3.2 1.8-2.5q.3.6-.7 2.3m4.9-.8q0 1-1 1.6-.9.4-1-.9.1-1.5 1-1.6 1 0 1 .9m57 1c0 1.7-3.6 5.4-4.9 5q-1.3-.3.9-3.2c2.1-2.7 4-3.5 4-1.8m25.8.9q.2 1.1-1.2 1.2-1.5-.1-1.6-1.6c0-1.7 2.2-1.4 2.8.4M237 760q-.1.9-1.6 1-1.3-.1-.9-1 .6-1 1.6-1 .8 0 .9 1m-16 1c0 1.2-2.8 7-3.4 7l-2 .6q-1.9.8-.9-1.2c1.7-4.8 6.3-9.4 6.3-6.4m-21 1q0 .9-.4 1-.6-.1-1.1-1-.4-1 .4-1 1 0 1.1 1m14 .2c0 1.6-4.1 5.8-5.7 5.8-1.8 0-1.7-.6.9-4 2.2-3 4.8-4 4.8-1.8m-17.4 3q-.3 2.1-1.8 2.6c-2.1.4-2.4-1.8-.6-3.6q2.6-2.7 2.4 1m8.7-1.6c1.1 1.2-1.3 4.4-3.3 4.4-2.3 0-2.4-.4-.8-3q2.1-3 4.1-1.4m-27.8 2.1c1.7.4 4.9 2.1 7.3 3.7l4.3 2.9-2.8 2.7a83 83 0 0 0-6.4 7.1c-3.6 4.4-5.2 5.4-16 10.3-6.4 3-9.1 3.2-10.9 1.1-1-1.3-1-1.9.4-3.3.9-1 1.6-2.4 1.6-3s1.7-4.9 3.9-9.5c3.3-7.3 4.2-8.5 6.8-9q3-.6 3.6-2.8c.6-2.2.6-2.2 8.2-.2M25.4 790.9c.9 1.5-1.8 3.1-3.4 2-1.3-.8-1.3-1 0-1.9 1.9-1.2 2.7-1.2 3.4-.1m.6 8.6q-.1 1.3-.8 1.9c-1.3.8-5.2-.5-5.2-1.7q0-1 .6-.4.8.4 2.1-.9c1.6-1.6 3.3-1 3.3 1.1m-.4 9.3q-.7.4-1.8-.6-1.3-1.3 0-1.2 1 0 1.1-.8c-.1-.4 0-1.4.1-2.2q.3-1 .7 1.3c.3 1.6.2 3.1-.1 3.5m-2 3.1q-.4.8.9 1.5t1.5 2.2q.1 1.9-1.4.5c-.7-.6-2.2-.9-3.2-.5q-2.4.8-.4-.6t-.5-.8q-1.9.4-1.7 2.1.2 1.5-.7 1.7-1 .1-.5 1.4.4 1.4-.4 2-1 .4-1.6-1.1-.6-1.6.9-2.5 1.3-.9 1-1.8t.6-1.6q1.2-.6-.2-1.6-1.5-1 .7-.5c1.2.2 2.8.1 3.5-.4q2.6-1.7 1.5 0M3 814q0 .9-1 1a1 1 0 0 1-1-1q.1-1 1-1t1 1m3 7q0 .9-.4 1-.6-.1-1.1-1-.4-1 .4-1 1 0 1.1 1m53.4 4.9q.3.9-1.6 1.4-3.8 1-2.3-1.2c.8-1.3 3.2-1.4 3.9-.2m-.6 25.6c-.8.8-7.7.9-8.5.2-.3-.4 1.5-.7 4.2-.7s4.6.2 4.3.5m-47.3 5.4q-.6 1-1.7.5-.9-.6.3-1.5 2.6-1.3 1.4 1"/><path d="M168.7 273.1c-.6 2.3.1 2.4 3 .1l2.3-1.7-2.4-.1q-2.4-.1-2.9 1.7m5.3.4c-1.3 1.6-.6 3.5 1.5 3.5 1.5 0 2.4-1.9 1.7-3.8q-1-2.4-3.2.3m5.4.6q-.5 1 .4 2.1c1.2 1.2 5.5-.8 4.7-2.3-.8-1.2-4.2-1.2-5.1.2m7.1 4c-1.6.5-4.2.7-5.6.4-1.5-.4-3.8-.3-5.3.1-3.5.8-3.1 3.9.4 3.9 1.4 0 2.9.6 3.3 1.2 1 1.5 4.7 1.7 4.7.3q.2-1 2.3-1 3.5 0 6.4-4 1.6-1.8-1-1.7a22 22 0 0 0-5.2.8m3.5 18.8q.1 1 .8 1.5t.9-.9c.1-1.3-.4-1.5-.9-1.5q-.7 0-.8.9m2 7.1q-1.4 1-.3 1c.6 0 1.5-.5 1.8-1q1.3-1.8-1.5 0m253.5 30q-1.5 2.9 4.5 3c4 0 5.9-1.3 3.8-2.6-2-1.3-7.6-1.5-8.3-.4m-23.8 151.1c-.7 2.6.2 5.1 1.6 4.6 1.8-.6 3.1-3.3 2.4-5.1-.9-2.3-3.4-2-4 .5m-264.7-.6c-6.6 1.5-19 7.1-19 8.5 0 2.4 3.6 2.1 8.8-.5 3-1.5 8.7-3.6 12.5-4.7 7.8-2 8.2-2.2 7.2-3.7-.8-1.3-2.4-1.3-9.5.4m206.7 80.6c-2.3 1.3-2.4 7.7-.1 8.6 3.3 1.3 6-6.1 3.1-8.5q-1.2-1-3-.1M263.5 669q-.4.9.4 1 1-.1 1.1-1 0-1-.4-1t-1.1 1m-95.6-43.3q-2 2.4.4.4 1.5-1.2 1.7-1.7 0-1.1-2.1 1.3m115.2 44.9c-3.3 5.6-.2 7.6 4.4 2.9 3.3-3.2 3.3-6.5.1-6.5q-2.4 0-4.5 3.6M204.5 645q-.4.9.4 1 1-.1 1.1-1 0-1-.4-1-.6 0-1.1 1m-90 59c-.9 1.4 4.2 3.1 7.1 2.4 1.3-.3 2.4-1.2 2.4-2 0-1.7-8.5-2-9.5-.4m344.8 4.6c-2.9 1.3-1 2.5 3.5 2.2 2.6-.2 4.7-.8 4.7-1.3 0-1.1-6.2-1.7-8.2-.9M0 708q0 .9.9 1 1-.1 1.6-1 .4-1-.9-1-1.5 0-1.6 1m.2 46.8c.4 5.6 2.2 5.9 2.5.3q.3-4-1.3-4.5c-1.2-.5-1.5.2-1.2 4.2m17.4.7q-.4 1.4.3 2 .8.3 1.5-1 .4-1.4-.3-2-.8-.3-1.5 1m-12.2 3c.4 2.4 1.6 3 1.6.7q0-2-.9-2.2c-.9-.2-.8.7-.7 1.5m362 .8c-3.6 2.1-7.4 5.4-7.4 6.6 0 .7-1.6 1.9-3.5 2.7q-5.7 2.4-1.9 4.1c3.5 1.3 13.5-5.7 15.2-10.7q2-5.2-2.4-2.7m2.7 4.3c-1.8 4.1-2.1 5.8-1.2 6.7q1 1.3 2.7-.5c1.4-1.3 2.1-1.4 3.6-.5 1.6 1 2.2.8 3.9-1.2q3.5-4.3.2-5.5a17 17 0 0 1-6.4-3.9c-.3-.4-1.6 1.8-2.8 4.9m-293.9-.3c-2.4 2.8.9 3.6 15.4 3.8 7.6.1 20.4-.4 28.4-1s19.2-1 25-.8c8.8.2 10.5 0 10.5-1.3 0-1.6-12.1-1.8-54.6-1.1-9.1.1-18.1 0-20.1-.4q-3.5-.7-4.6.8m274.3.7a14 14 0 0 1-7.8 2c-4.6 0-9.7 2.2-9.7 4.1 0 1.2 9.9 1.2 13.6 0l5.6-1.5c3.8-.9 6.2-3.4 4.7-5.2s-2.8-1.8-6.4.6m69.8-.8c-1.9 2.4-3.4 8.1-2.4 9.1 1.7 1.7 4-.1 5.1-4.3 1.4-5.2-.2-8-2.7-4.8m-7.5 2.5q-1.2 3.4-1.5 1-.5-1.8-2.6-1.5c-2.8.4-2.8 2.7-.2 4.2 1.1.6 2.3 1.5 2.6 2 1.2 1.6 4.5-.4 5.6-3.5.7-1.8 1-3.6.7-4-1.1-1.8-3.5-.8-4.6 1.8m-394.6.3q0 2.2.5 1.2c.2-.6.2-1.8 0-2.5q-.5-.8-.5 1.3m369.8.5c-1.4 1.7-1 4.7.7 5.2 1.5.5 4.7-4.2 3.8-5.7-.9-1.4-3.1-1.2-4.5.5m41.2.7c-1.7 1.7-1.5 5.8.3 6.5 2 .7 2.2.5 3-4 .8-3.9-.7-5.1-3.3-2.5m-125 2c.3 2.1.9 2.3 6.8 2.5 8 .3 11-.3 11-2.1 0-2-2.3-2.6-10.7-2.6-7.1 0-7.4.1-7.1 2.2m22.4-.7q-.4 1.3.3 1.5.8-.2 1.5-1.5.4-1.3-.3-1.5-.8.2-1.5 1.5m111.1.1c-1.4 1.4-.7 3.5 1.1 3.2q1.5-.5 1.7-1.7c0-1.6-1.8-2.5-2.8-1.5m-170.6 2.8c-2.1 2.5.2 4.2 5.9 4.4 6.3.1 7.3.7 5.7 3.3-1 1.7-.9 2.2.5 3.3 2.5 1.8 15.6 2.7 27.9 2 10.7-.7 13.7-1.7 11.9-3.9-.7-.9-4.8-1.1-15.3-.8l-14.2.5-1.5-3.4c-1.7-3.7-5.8-5.6-14.5-6.5-3.9-.4-5.4-.2-6.4 1.1m196.4 2.2c-6 .9-7.5 1.5-7.5 2.9 0 2.4-4.7 3.6-9.9 2.8-2.5-.5-7.1-.5-10.1-.1-15 1.9-16.8 2-17.4.9-1-1.6-6.1-1.4-7.5.3-1.7 2.1 1 3.7 5.7 3.5 2.2-.2 4.7.3 5.6 1q1.6 1.3 5.9.7c2.4-.4 8.7-.7 14-.7 8.3 0 10.3-.4 14.3-2.5 5.7-3 17.4-4.7 24.1-3.5 2.6.5 5 .8 5.4.6a33 33 0 0 1 7.3-.6c6.2-.2 6.7-.4 6.4-2.3-.3-2-.9-2.1-10.8-2.1-5.8 0-13.2-.3-16.5-.7s-7.3-.4-9-.2m-133 4.1q-5.2 1.3-3.4 4.4c.9 1.8 2.5 1.9 36.2 1.5 38-.4 44-.9 43.5-3.5-.3-1.4-3.9-1.6-34.3-1.7a699 699 0 0 1-42-.7"/><path d="M213.2 781.6q.1 2 4.1 2.2c3.3.3 3.7.6 2.6 1.8q-3 4 8.6 4.9c3.9.3 10.8 1 15.5 1.6s15 1.2 23 1.4 16.9.5 19.8 1c4.5.7 5.2 1.1 5.2 3 0 2.3-.2 2.3-8.2 1.9-9.8-.5-17.5-1-36.1-2.4a90 90 0 0 0-14.8-.4c-1.3.8-1.1 4.2.4 5.1.6.4 3.5.8 6.2.9l18.4 1.3c8.1.7 25.9.8 44.5.5 29.5-.6 39.4 0 38.9 2.1-.2.6-1.5 1.4-3 1.9q-5.2 1.5-3.1 4.9.8 1.7.6 2.2c-.2.2-5.2.8-11.3 1.4-18 1.9-22.1 3.9-17.6 8.4 1.5 1.5 4.1 2.2 11.8 2.9 15.9 1.4 21.3 2.6 25.3 5.3 2 1.4 4 2.5 4.6 2.5s4.6 1.9 9.1 4.2c9.1 4.6 10.3 6.7 5.3 9.3-3.6 1.9-4.4 1.9-3.7.1 1.5-3.9-6-4.3-36.7-1.9l-7.9.6 2.3-3.1c1.7-2.3 2-3.4 1.2-4.4q-1-1.4-.2-2.8c3.8-6-1.5-8.2-20.4-8.8-22.2-.7-38.6 2.2-34.7 6.1q2.6 2.4-1.6 3.1c-2.7.6-20.2 2-36.3 3.1a696 696 0 0 1-55.1 2.6c-11.3-.1-14.8 1-13.6 4.4.6 1.5 1.9 1.7 11.5 1.2 14.7-.7 40.9-2.5 71.2-4.9 14-1.1 26.9-2 28.5-2 17.1 0 23.8 1.4 22.9 4.9s2.2 4.7 13.2 5.1c5.7.3 11.2.1 12.1-.2s8.6-.9 16.9-1.2l15.2-.4.4 2.5c.3 1.4.2 2.7-.1 2.9-.4.3-5.1.7-10.6 1.1s-14 1.8-19 3.1a69 69 0 0 1-16.7 2.4c-4.2 0-11.1.5-15.3 1.1-8.5 1.3-12.4.4-14-3.4-.8-1.8-2-2.3-6.6-2.7-3.1-.3-6.3-1.1-7.1-1.7-2.2-1.9-18.5-2.7-23.8-1.3-2.5.7-8.3 1.2-13 1.2-12.3-.2-14.6 1.1-10 5.3 2 1.8 2.7 1.8 12.3.5 27.2-3.5 30.6-3.2 41.2 4.1 2.7 1.8 4 2 12 1.4l22-1.1c8.3-.4 15.7-1.3 20.5-2.6s12-2.2 20-2.5c13.8-.6 16.1-1.3 15.7-4.6-.2-1.8.4-2.3 2.8-2.5 1.7-.2 2.7 0 2.2.4-.9.9 2.2 4.4 4 4.4q1.2.2 1.3 1.5c.1 1.3.5 1.5 1 1.5q1 0 1-.9c0-.9 5.2-.8 11.6-.8 10.2.2 11.7.4 13 2.2.8 1 1.3 2.4 1.1 3-.6 1.7-4.6 1.7-6.3.1-2-2-4.3-2-5-.1a3 3 0 0 1-2.6 1.5q-1.7 0-1.3-.9t-.6-1.7q-1.2-.7-.4.6c.6 1-.1 1.2-3.6.6-2.4-.4-4.5-1.1-4.7-1.6q-.5-.8-2.8.1c-1.4.5-3.7.8-5.2.8q-2.7-.2-.9-.6 2-.4.7-1.8c-.9-1.1-1.6-.9-3.5 1.1a8 8 0 0 1-5.4 2.4c-1.6 0-3.7.3-4.7.7q-1.7.6-1-.5.4-.9-2.1.3a87 87 0 0 1-20.8 2 380 380 0 0 0-28 1.8c-13.5 1.6-30 1.4-41.5-.5-11.6-2-60.5-2.5-62.7-.7-3.7 3.2-1.4 3.5 25.2 3.1 23.7-.4 28.3-.2 42.6 1.8 14.3 2.1 16.9 2.2 23.7 1.1 4.3-.7 17.6-1.6 29.7-2.2a451 451 0 0 0 37-3 64 64 0 0 1 22-.9c15.3 2.4 21.8 2.7 26 .9 2.2-.9 6.6-2 9.7-2.4 6.1-.7 7.2-1.5 7.2-5.5.1-2.4.4-2.5 7-2.8 10.6-.5 19.5 1.2 22.3 4.2 3.2 3.5 11.7 4.2 43.6 3.8 12-.2 12.7-.3 12.7-2.2 0-2.2-.5-2.2-25.5-2.1-6 0-14.1-.4-18-1-6.1-1-7.3-1.5-9.4-4.2s-3-3.2-7.5-3.3q-14.6-.3-15.8-1.9-.8-.9-.8.2-.1 1.5-1.1 1.3-.8-.1-.3-1.3 1-1.4-.7 0c-.8.7-3.5 1.5-5.9 1.9q-9 1.4-9 5.9c0 3.6-4.3 3.4-8-.4-2.2-2.1-4.4-3.1-8.7-3.8l-5.8-.9 8-.8c4.4-.5 8.4-1.1 8.9-1.4s3.1-.5 5.6-.3c5.3.3 10-1.3 10-3.3 0-1.8-2.2-2.6-7.6-2.6-4.3 0-4.4-.1-4.2-3.1.4-4.6-4-6.5-18.7-7.9a94 94 0 0 1-14-2.2c-1.7-1-1.3-1.4 3.8-3.6 6-2.6 6.8-3.9 4-6.5-1.6-1.4-4.1-1.4-24.8-.1-21.4 1.3-41.5 1-41.5-.6 0-.3 6.1-1.4 13.6-2.3 15.7-2 17.7-2.7 17.2-6.5-.3-2.3.1-2.8 2.6-3.2 1.6-.3 3.5-1.4 4.2-2.6 1.3-1.8 1.1-2.3-1.4-4.7-2.3-2.2-4.1-2.9-9.5-3.4-10.9-1-6.5-2.3 7.6-2.2q23.6.1 11.9 2.8c-6.1 1.5-7 2.5-4.6 5.2 1.4 1.5 3.2 1.9 8.8 2 3.9.1 6.3.3 5.4.6-2.7.7-2.3 5 .5 5.9 1.2.4 7.5.7 14 .7 8.3-.1 11.7.2 11.7 1s.3.8.8-.1c1.2-1.7 20.3-1.8 23.4 0 1.3.7 2.9 1.1 3.6 1 2.2-.5 1.3.7-1.8 2.3-3.9 2-5.7 1.9-6.3-.5-.5-2.1-2.7-2.8-2.7-.9q.1.8 1 .4t1 1.3c0 1.6-.9 1.9-5.7 2.1-3.2.1-8.6 1.1-12.1 2.2-10.2 3.4-9.5 6.8 1.9 8.7 3.7.7 9.2 1.2 12.3 1.2 5.4 0 5.6.1 4.1 1.7-1.6 1.6-1.6 1.8.3 3.4 2.7 2.2 11.5 3.1 29.7 3H459v5c0 9.9 6.1 15.3 6.8 6 .2-2.4-.1-4.8-.6-5.3s-.8-1.8-.5-2.8c.4-1.6 1.7-1.7 17.9-1.3 17 .4 17.4.4 17.4-1.7s-.5-2.3-9.4-2.5q-5-.1-5.4-1.6-.5-1.6.6-.1.9 1.5 2-1.3 1.3-2.7.1-1.9-1.1.6-.7-.7c.2-.8 1.8-1.5 3.4-1.7 8.7-.9 11.2-5.1 4.7-7.9q-6-2.4-4.6-4.6.4-.8-.8-.5-1.3.6-1.2 1.6t-1.3.5q-1.3-.6-1-2 .5-1.2-.3-.8-1 .4-1.7-.6-.8-1.2 2.8-.7l3.4.4-.3-4.2c-.2-2.3.1-4.5.6-4.9 2-1.2 1.2-2.6-.8-1.5a3 3 0 0 0-1.6 3q.6 2.2-1.8 1.9-1.9 0-.9-.6c1.5-.6 1.6-2.3.1-2.3q-1.1.2-2.5 1.5-3.2 3-3.4-.1 0-1.6 1.6-1t1.1-.8q-.6-1.4 3.5-2.9c3.2-1.3 3.9-2 3.5-3.6s-.1-1.8 1.7-1.2c1.1.5 3.6.6 5.4.4 3-.5 3.2-.7 3.2-4.8 0-6.8-.2-7-7.9-6.8-8.1.1-9.3.6-8.6 3.6q.6 2.2-1.4 3.4c-1.6 1-2 .9-2.4-.9-.6-2-1.1-2.1-8.6-1.5-4.5.3-8.1.1-8.1-.3s-1.2-1.3-2.7-1.8c-2.3-.9-1.2-1.1 5.7-1.1 9.2-.1 10.6-.6 11.1-3.5.5-2.4 3-2.8 9.1-1.5q4.6 1 6.4.1c1-.6 2.9-.6 4.6-.2 2.6.8 2.8.7 2.8-2s-.3-2.9-4.7-3.2c-2.7-.2-8.6 0-13.2.3-7.5.5-8.6.8-10.5 3.1-2 2.4-2.8 2.6-13.1 3.1-13.7.7-17.6 1.5-18.2 3.7-.4 1.5-2.3 1.8-12.6 2.3-6.7.3-19.1.6-27.5.6-13.8-.1-15.2-.2-13.3-1.5 2.7-1.9 2.7-4 0-5.4-2.4-1.4-15-.8-22.9 1q-5.5 1.2-15.5.5c-5.5-.4-13.2-.9-17.1-1-3.8-.2-8.9-.8-11.1-1.4-4.9-1.3-8.8-.2-9.8 2.9-.6 2-1.1 2.1-13.3 1.4-7-.3-20.1-.8-29.2-.9a149 149 0 0 1-21-1.4c-2.5-.6-6.2-1.1-8.2-1.1-3.1 0-3.8-.4-3.8-2 0-3-3.5-4.2-13.3-4.8-8.3-.5-8.9-.4-8.5 1.4m126.3 10.3c3 .5 1.1.9-7.9 1.4-6.6.3-12.2.4-12.4.2s0-1.1.7-1.8c1.1-1.5 10.4-1.3 19.6.2m37.5-.3q-.2.8-1.7 2c-1.4 1-1.6 1.7-.7 3.1 1 1.7 2.9 1.8 27 1.5l31.9-.5a65 65 0 0 1 19.1 1.5c.3.4 1.8.5 3.4.1 3.4-.6 3.9.7 1.3 2.8q-2.5 2-.3-.6 1.8-2.5 0-.7c-.8.7-1.5 2-1.5 2.9 0 2.7-5.9 3.5-8.4 1.2-3.3-3.1-5.9-2.4-6.7 1.5q-.6 3.5-2 2.9-2-.9.1 5.8.9 2.2-1.2 1.3c-2.1-.9-1.4-.2.4 1.4 2.2 1.9 2.2 2 .3 2.5q-2 .5-2-1 0-1.2-1-.8t-1-1.4a6 6 0 0 0-1.5-3.5 5 5 0 0 1-1.5-3q-.1-1.5-1.1-1.6-.9.1-.5.8c.3.5-1.1.9-3 1-3 .1-3.5-.1-3-1.6q.8-2-.9.2c-1.3 1.7-1.5 1.8-1.5.3q-.1-1.5-1.5-1.7c-1.4-.2-1.4.6-1.3 1.2q.1 1.2-2.4 1.4-2.6 0-2.8-.7c0-1.2-4.3-.6-5.2.6q-.8.8-.8-.7.1-1.5 1.3-2.1 1-.4.5-1.2c-.9-.9-4 1.4-3.3 2.5.6.9-4.2.7-5.1-.3q-.5-.6.9-.7 1.6-.1 1.7-2t-1-2c-1.4 0-3.2 3.9-2.6 5.6.4 1.2.2 1.2-1.4.4q-1.9-1-2-.1c0 .5-4.3 1.1-9.5 1.3s-9.5 0-9.5-.5q.1-.7 1-.7 1-.2 1-1.9c0-2-1-2.6-7.2-3.6l-3.6-.7 1.6-2.8c2.3-3.9.6-5.5-7.6-7.1l-6.7-1.4 5-.5c8.5-.9 16.5-1.1 16.5-.4m109 9.9c-1.1 2.1-2.7 4-3.5 4.1-1.9.3-1.9.1.7-5.7 1.8-3.9 2.5-4.6 3.5-3.6 1.1 1 .9 2-.7 5.2m11.3-5.8c-.7.2-1.9.2-2.5 0q-1-.5 1.2-.5c2.2 0 1.9.2 1.3.5M332 799q-.1.9-1.1 1-.8-.1-.4-1 .6-1 1.1-1 .4 0 .4 1m150 .8c0 1.4-2.4 3.9-4.5 4.6q-2.8 1-.2-.8c.9-.7 1.7-2.1 1.7-3q.1-1.5 1.5-1.6c1.4-.1 1.5.4 1.5.8m-11.5 5.2q.4.9-.4 1-1-.1-1.1-1 0-1 .4-1t1.1 1m-39.2 19c-1 1.1-2.3 2-3.1 2q-1.5.1-.2-2c.6-1.1 2-2 3-2 1.9 0 1.9.1.3 2m-7.7 3.9a54 54 0 0 1-21.1.1q-.4-1 8.2-1c4.8 0 9.5-.5 10.3-1 1.7-1.1 3.6.3 2.6 1.9m-52.6-.7c-12.7 3.6-13.9 5.5-5.8 9.2 3.9 1.7 8.7 2.7 18.6 3.6 17.6 1.7 18 2.7 2 4.4-2.1.3-4.2.7-4.8 1.1-1.6 1-1.2 3.3 1 4.8 1.8 1.3 1 1.5-7.7 2-5.3.4-9.8.5-10 .3s1.2-1.3 3.2-2.5c3-1.7 3.6-2.6 3.3-4.9s-1.7-3.4-10.9-8.2c-13.3-6.9-14.5-7.7-13.7-8.5.6-.6 18-2.1 25.3-2.3 3 0 3 0-.5 1m62.1 2.2q1.6-2.5 2.3-1.5t-.4 1.1q-1 .2-.6 1.5.6 1.6-2.1 2.6-3.1 1-1.3 1.9 1.4.9 1.8 0t1.3-.4c1.4.8.1 2.4-2 2.4-1 0-2.6-1.6-3.7-3.8-2.6-4.8-2-7.4.9-3.8l2.1 2.6zm36.6-1.8q-.6.5-1.9.1-1.1-.5.6-.6t1.3.5M438 831q0 .9-.4 1-.5-.1-1.1-1-.4-1 .4-1 1 0 1.1 1m43.9 3.1q-1.7 1 .4.9 1.6.1 1.7 2-.1 1.8-1.1 2-.8 0-.3-1.2.8-1-.6-.3-1.2.6-2.2-.6-1.1-1.7-.4.4.9 2.1-1.7 1.5-2.1-.4-1.8-1.8l.6-3 .4-1.6 3.2.4q3.2.4 1.8 1.3m-22.9 1.5q-.1 1.3-2.5 1.4c-2.5 0-3.3-1.4-1.5-2.5q1-.4 1 .5c0 .9.5.8 1 .5q.9-.7.4-1.7t.4-.4q1.1.8 1.2 2.2m8.6-1.1q-1.4 1.3-2 1.5-.5-.2-.6-1.5.1-1.4 2.1-1.5c1.8 0 1.9.2.5 1.5m7.1-.9q-.6.5-1.9.1-1.1-.5.6-.6t1.3.5M307.8 835q2.4-.2 2.2 2.5c-.2 2.7-.6 2.5-2.2 2.7-4.8.3-11.4-.4-12.7-1.5-.7-.7-3-1.2-4.9-1.2-2-.1-3.7-.6-3.9-1.2q-.2-1 1.3-.9c1 .2 3.1-.1 4.8-.5s5.4-.6 8.1-.4c2.8.3 6 .5 7.3.5m141.2 1.2q0 1.9-.7 1.4c-1.1-1-1.2-3.6-.2-3.6q.8.2.9 2.2m-165 .4q.1 1.8-2.2 1l-4.8-.7q-3.3.1-.5-.9c3.5-1.5 7.5-1.2 7.5.6m99 19.4q-.1.9-1.5 1c-1.4.1-1.5-.5-1.5-1q.1-1 1.5-1c1.4 0 1.5.4 1.5 1"/><path d="M415.3 806.5c-.9 2.5.4 2.9 1.7.6q1-2.2 0-2.1t-1.7 1.5m-5.7 1.1q-.5 1.5.6 1.2c1.5-.5 2.3-2.8 1-2.8-.5 0-1.3.7-1.6 1.6m24.9 2.4q-.4.9.4 1 1-.1 1.1-1 0-1-.4-1t-1.1 1m-340-23q-.4.9.4 1 1-.1 1.1-1 0-1-.4-1-.6 0-1.1 1m80.8 8.7q-3.1.5-3.3 1.9c0 1 1.4 1.4 5.3 1.4l26.8.6q21.7.6 22.3-.4.5-1-.4-1.7a458 458 0 0 0-50.7-1.8M91 796.8c-.8.3-2.1 1.1-2.8 1.9q-1.7 1.5.7 1c2.2-.3 4.8-2.4 4-3q-.5-.4-1.9.1m18 2.1q.1 1 1 1.6 1 .4 1-.9 0-1.5-1-1.6-.9 0-1 .9m382 4.6q.2 1.3 2 1.5c1.8.2 2-.2 2-.5q-.2-.5-2-1.5c-1.6-.9-2-.8-2 .5m4-1.1q.2.5 1.8 1.7 2.3 2 .3-.4c-2-2.4-2.1-2.1-2.1-1.3m-381.6 2.7c-.9 1.5.7 3 2.5 2.4q1.8-.3 3.2 1.1c1.3 1.6 1.1 1.6-2.1.9-5.6-1.3-21.1-1-25.5.4-4.3 1.5-24.6 2.1-23.8.8.6-1-7.9.3-9.1 1.4q-.8.8-.3 2.2c.8 2.2 25.7 2.3 33.4.1 3.2-.9 6.2-2 6.7-2.5 1.2-1.1 7.6-1.2 7.5-.2-.5 3.1.4 3.2 38.1 3.1 20.9 0 40.9.3 44.4.7q6.3.7 7-.4c1.3-2-3.9-4-11.9-4.6-6.9-.4-37.9-.8-40.2-.4-.4.1-4.8 0-9.8-.1-6.6-.2-8.1-.4-5.5-1 3.5-.7 98.9-.4 108.5.3 2.8.2 6.7.9 8.7 1.6 4.2 1.4 5.8.9 5.8-1.9 0-3.6-3.7-4.5-18-4.3-7.5.1-15.5.6-17.8 1.2a34 34 0 0 1-11.5-.1c-9.4-1.2-89.5-1.9-90.3-.7M495 807q.1.9 1 1 1-.1 1-1t-1-1a1 1 0 0 0-1 1m-2.4 4.1c-1.7 1.7-1.8 1.9-.2 2.5q3.2 1.3 2.4-2.4c-.3-1.8-.4-1.8-2.2-.1m5.7.9c.3 3.9 1.6 3.9 1.5 0-.1-1.7-.5-3-.9-3s-.7 1.3-.6 3"/><path d="M222.6 810.9c-.4.6-.2 2 .5 3.2 1.1 2.1 1 2.1-3.2 1.6a58 58 0 0 0-17.9-1.2c-2.1 1.3.8 3.2 5.9 3.9 2.9.4 5.1 1.2 5.5 2.1q.6 1.3 1.7 1.5 1.2 0 .1-1.3c-.8-1 .1-1.2 4.5-1.2 3.3.1 6.1-.4 6.9-1.2.7-.7 3.2-1.3 5.5-1.3 3.8 0 4.1.2 2.9 1.4-2.8 2.7-13.1 4.4-26.5 4.4-35.5.1-41.3.3-42.5 1.8q-2.9 3.3 4.2 5.7l4.3 1.5h-9.2c-6.8 0-9.1-.3-8.6-1.1q.8-1.3-.8-.1c-1.5 1.3-10.7 1.4-12.5.2-.6-.4-2.5-.4-4.1.1-1.7.5-5.1.8-7.7.7-2.5-.1-4.6.2-4.6.6q-.1.7-1.1.8-.9 0-.4-.9c1-1.6-1.7-2.5-2.9-.9-1.3 1.8-15.8 1.8-16.3.1q-.5-1-3.3-.3c-1.6.4-3.1.6-3.4.2q-.5-.4-.6.6c0 1.8-2.8 1.4-3.9-.5-.9-1.6-1-1.6-1.1.4 0 1.2.8 2.7 1.8 3.2q2.3 1.1-.9 1.1c-1.6 0-3.3-.9-4.3-2.3q-1.5-2-1.1-1 .3 1.3-1.4 2.2c-2.8 1.5-3.1 1.4-3.2-1.2q0-2.4-.6-.5c-.5 2-3.3 2.4-4.9.8-1.5-1.5-1.6 4-.2 5.9q1 1.4.4.9c-.5-.5-1.6.2-2.4 1.4-1.4 1.9-1.3 2.2.1 3.3 2.5 1.8 10.6 1.9 11.3 0 .4-.8.1-2.1-.5-2.9-.9-1.1.3-1.3 6.4-1.4 4.1 0 8-.4 8.7-.9s3.3-.9 5.8-1l19-1.1c8-.5 14.9-.5 15.4 0q.9.8-.2.8c-1.1 0-1.2.5-1.2 1.1q.1.8 1.1.3c.7-.4 2.6-.7 4.3-.6s3.4-.4 3.8-1.1q.6-1.2 15.3-1.3c8.5 0 15-.5 15.6-1.1s1.1-2.6 1.2-4.4l.2-3.4H204c14.8 0 21.6-.4 24.5-1.4l7.4-2.5c1.9-.6 4.3-2.3 5.4-3.8q6-8.2-13.2-10.5-4.7-.4-5.5.6m270.4 5.6c-1 1.2-1 1.8-.2 2.6q1.1.8.7.3c-.2-.4 0-1.5.6-2.5q1.6-3.5-1.1-.4m5 4.5q.1.9 1.1 1 .8-.1.4-1-.6-1-1.1-1-.4 0-.4 1M51 831.5q0 1.3 1 1.5.8-.2.4-1.5-.6-1.3-1-1.5-.4.2-.4 1.5m-31.5.4q-.4.9.5 1.6.9.4 1-.9 0-2.7-1.5-.7m52.5.1q-1.2.9-.7 1.6.8.6 1.9-.4c1.5-1.5.7-2.4-1.2-1.2m-6.8 1.1q.5 1.2 1.7 1.7 1.3.4.9-.9-.5-1.2-1.7-1.7-1.3-.4-.9.9"/><path d="M92 832.9q0 1 1 1.6.9.4.4-.9-1.2-2.7-1.4-.7m-77 1.6c0 1.6 1.6 2 2.4.6q.4-.8-.9-1.5-1.4-.4-1.5.9m214 .1c-7.4.7-16.7 1.3-20.6 1.3-5.3.1-7.3.5-7.7 1.5q-1.8 4.3 10 3.3c42.9-3.3 46.7-3.8 47.1-6 .3-1.5-.5-1.7-7.5-1.6-4.3.1-13.9.7-21.3 1.5m-155.4 2.2q-.7 1.2-.1 2.1.3.9-1.2 1.3-2.3.4.5 1 2 .4 1.7-.2-.4-.8.4-1.2c.4-.1.5-1.2.1-2.2q-.6-2-1.4-.8M12 838.7c0 .5.9 1.9 2 3.3 1.9 2.4 1.9 2.4 1.3.2q-.6-2-1.7-2.2-.8-.1.4-1 2-1.1-.2-1-1.7 0-1.8.7m8 .9q.1 1.3 1 .9 1-.6 1-1.6 0-.8-1-.9-.9.1-1 1.6m-10.4 2.7q.6 1.6 1.2 1.2.4-.6-.7-1.8-1.5-1.4-.5.6m92.6 2.2c-1.8 1.3-2.1 2-1.1 3.1a3 3 0 0 0 2.8 1 139 139 0 0 1 30.6-.7c14 .9 18.1.3 15.3-2.5-1.2-1.2-6.1-1.6-23.4-2-19.4-.5-22.2-.4-24.2 1.1m-36.5 3.2c-1.8 1.7-.5 3.3 2.7 3.3 1.9 0 4.7.5 6.3 1.2s8.2 1.2 15.3 1.2c14.3.1 38.6 3 44.5 5.3 3.8 1.5 19.8 2.5 23.8 1.5q1.6-.6 1.5-2.1c-.3-1.6-4.4-2.3-21.3-3.4-7.7-.6-24.3-2.5-31-3.7-3.3-.6-11-1-17-.9-8.5.1-11.8-.2-14.2-1.5-3.2-1.6-9.4-2.2-10.6-.9M3 849.6q.1 1.3 1 .9 1-.6 1-1.6 0-.8-1-.9-.9.1-1 1.6m89 6.4q.1.9 1.1 1 .8-.1.4-1t-1.1-1q-.3 0-.4 1"/><path d="M196 856.5a153 153 0 0 0-28 6.2c-3.7 1.4-8.1 1.7-24.2 1.8-10.9 0-19.8.3-19.8.6 0 .9-16.4.1-16.7-.8s-14.5-.5-15.6.6c-1.3 1.3.3 4.1 2.7 4.5 1.8.4 20.1 1.8 24.6 1.9 2.5 0 30-1.3 37.7-1.9 7.5-.5 10.5-1.2 16.5-3.8 2.1-.9 5.2-1.6 7-1.6s5.4-.7 8-1.4c2.6-.8 7.8-1.8 11.6-2.2 8.5-.8 10.5-1.8 7.8-3.9a8 8 0 0 0-2.5-1.4zm-82.7 2.2q.6.6-.4 2-.9 1.2-.3 1.3 1-.2 2.2-2c1-1.7 1-2-.5-2q-1.4 0-1 .7m8.2.2c-1.1.5-2.6.6-3.2.4q-1.2-.4-1.3.5c0 .5 1.6 1 3.5 1q3.5 0 3.5-1.4t-.2-1.3zM.1 868.3c-.1 9.4 0 9.7 1.8 8.7 1.1-.5 4.1-1 6.8-1 5.3-.1 17.3-4.6 18.1-6.9.5-1.4-.8-1.4-9.2.5-2.7.7-2.9.6-2.2-2 .7-2.8.7-2.8-4.1-2.4-2.6.1-5.1.7-5.4 1.2q-.8.7-2.5.1-2-.7-.7-1.2 1.2-.5 1.3-1.4 0-1-.9-.5c-.5.4-1.4-.6-1.9-2.1-.7-2.2-1-.6-1.1 7M12 870c0 1.4-4.1 2.9-6 2.2q-1.5-.6 1.5-1.8c3.7-1.6 4.5-1.7 4.5-.4m79.1-8.8q-.2 1.9 2.4 1.8 2.4 0 2.5-1.5.2-1.7-1.9-.5-2 1-2.4-.3-.5-1-.6.5M39 863.5q-2.4 2.9 1.7 1.9 2-.6 1.6-2-1-2.7-3.3.1"/><path d="M34 867.5c-.5 1.4-2.6 3.5-4.5 4.6-6.1 3.6-3.4 4.4 9 2.5q.8.1 1 1.4-.2 1.6 4.6 1.8c3.7.2 4.8-.1 5.3-1.5l1.1-2.9c.3-.6-.2-1.5-1.2-1.8q-1.5-.6-1 0t-.4 2.1q-1 1.2-.3 1.3c1.1 0-1.8 2-2.8 2q-.8-.1-.8-1.6-.1-1.3-.8-1t-1.9-.2c-.8-.5-.8-1.7.2-4.5q2-6.2-2.5-1.7c-2.5 2.5-2.6 2.5-3.3 0-.3-1 0-2.1.7-2.4q1.1-.5-.2-.5c-.7-.1-1.7 1-2.2 2.4m33-1c-1.6 2-.4 3.5 2.8 3.5 1.5 0 5.3.6 8.4 1.4 6 1.4 7.8.8 7.8-2.6 0-1.4-.8-1.8-3.9-1.8-2.2 0-4.3-.5-4.6-1-1-1.6-9.1-1.2-10.5.5"/><path d="M42 871q.1.9 1.1 1 .8-.1.4-1t-1.1-1q-.4 0-.4 1m11.2.2c-1.6 1.6.3 3.8 3.4 3.8q2.5 0 2.4-1.9c0-2.8-3.7-4-5.8-1.9m30.2 3.9q-.4 1 .3 2c.7 1 .9.1.9-1.1q.1-3.3-1.2-.9m12.2.4q.7 1.3 1.5.9c1.4-.8 1-2.4-.6-2.4q-1.4 0-.9 1.5M80 877q-1.3 1-.3 1c.6 0 1.5-.5 1.8-1q1.3-1.8-1.5 0m-28.2.7q1.3.4 1.9-.1t-1.3-.5q-1.7 0-.6.6"/></svg>