<svg xmlns="http://www.w3.org/2000/svg" width="666.7" height="1170.7" viewBox="0 0 500 878"><path d="M0 115.8v115.7h4.1c8 0 10.8 8.1 4.5 12.9-3.8 2.9-5.6 3.2-7.4 1.4-.9-.9-1.2 8.1-1.2 40.6v41.8l2.6-1.6c2.4-1.6 2.7-1.6 5.7.1 7.6 4.5 2.2 17.2-6.3 15-2-.5-2 .1-2 46v46.6l3.7-.6c4.2-.7 7.3 1.3 7.3 4.7 0 2.7 1.7 5.3 2.7 4.3q.7-1 .8-2.5c0-1.9 2.2-2.4 19.5-4.6 14.7-1.9 21.6-2.3 22.6-1.3.8.8.7 14.5-.2 15.8-.3.5-6.5.9-13.7.8-12.9-.1-20.4-1-25.9-3.1-3.1-1.2-6.8-.3-6.8 1.7 0 2.1-3.7 3.7-7.1 3l-2.9-.7v160.7h4.4c2.4 0 4.7-.3 5.1-.7q1-1.3 7 2.4l3 1.9-4.4-.7c-3.8-.6-4.3-.5-3.9 1.2.4 2.1 6.3 3.7 11.5 3.2 1.7-.2 3.1.1 3 .6q0 1 1.8 1.1c2.7.2 9 3.3 14.7 7.2 2.5 1.8 5.8 3.7 7.2 4.3 2.7 1 3.6 3 1.4 3a7 7 0 0 1-3.2-1.5c-2.3-1.7-5.2-1.9-6.1-.5-.4.6.7 1.5 2.4 2.1s3.1 1.4 3.1 1.9q.2.7 2 1.3t2 1.6q-.2.9-3.5-.6c-2.7-1.3-3.8-1.4-4.7-.5q-1.2 1.1 0 2.4 1 1.4.2 5.6c-.4 2.3-.4 4.5 0 4.7q.8.6.5 2.3l-.4 2.5c-.1.4-1.2.5-2.5.1-3.3-.8-4.1 1.1-1.7 4.2 2.4 3 1.9 4.9-.9 3.4q-1.8-1.1-3 .5c-.7.8-2 1.5-2.9 1.5s-2.2.5-2.9 1.2c-.9.9-1.6.8-3-.5-1-.9-2.2-1.4-2.5-1q-.6.5-.7-.6t-1.7-.3c-1 .5-3.2 1.2-5 1.5-2.8.6-3.4.2-5.3-2.7-1.6-2.7-7.8-6.6-10.4-6.6-.2 0-.4 5.8-.5 12.8l-.2 12.8 2.8-.1c1.5 0 3.1-.4 3.4-.8s2.5-.1 4.9.7 4.7 1.3 5.2 1q.7-.4.8.5.2 1.1 3 .5 3-.6 3 .5c0 1.1-1.6.9-4.2.6-16.3-1.6-18.8-1.7-18.8-.7 0 .7 1.1 1.4 2.5 1.8 1.4.3 2.5 1.3 2.5 2.3q0 1.8.9.3c1.3-2 11.3-.5 10.8 1.7-.2.9.3 2.8 1 4.3C19 698.9 19 699 16 699c-2.8 0-3 .3-3.1 3.7 0 3.6-.1 3.6-1 1.3-.6-1.4-.8-4.2-.6-6.3s.2-3.7-.2-3.7c-1.6.1-3.3 1.9-4.1 4.6-.9 2.7-.9 2.7-.7-1.1.1-3-.2-4.1-1.5-4.3C2.3 692.7 0 698 0 704c0 5.2 1 7 4.5 8.4q2.2.7.6 1.5-1.1.8-1.2 1.5.1.6 0 .8c-.7 2.3-.1 6.8.9 6.8.6 0 1.2.9 1.2 1.9 0 1.1.6 2.2 1.3 2.4.6.3-.7.6-3 .6L0 728v8.5l6-.1q8.6 0 8.1 2-.2.6 0 .8l.5 4.2c.5 6.4 2.6 6.4 2.8-.1.1-2 .7-3.8 1.4-4.1q1.1-.4.6-1.3-.4-.8 1.1-.9c2.6 0 3 2.9.6 5.1-2.2 2-2.5 3.6-1.5 6.3s2.5 1.8 1.8-.9q-.6-2.6.8-2.5 2.6.1-.1 6.8c-1.3 3.1-3.9 4.7-2.7 1.7.5-1.4.3-1.4-1.5-.1-1.2.8-2.8 1.2-3.5.9q-1.3-.4-1.4.7c0 .8-1.8 1-6.5.5l-6.5-.7V776h3.9c2.2 0 4.3.4 4.6 1s1.6 1 2.8 1q2.6-.1.7 1c-.8.5-2.5 1-3.7 1s-3.1 1.2-4.2 2.6c-1.8 2.3-2.1 2.4-2.1.8 0-1.1-.5-2.6-1-3.4-.7-1-.9.9-.8 6.5l.3 8 5 .2c7.7.3 12.5 2.2 12.5 4.9 0 3.3-1 5.4-2.6 5.4q-2 .1-1.4-4 .3-1.8-1.1-.3c-.7.7-2.3 1.3-3.5 1.3q-4.5.1-2.3 3.8 1 1.9 4.1 1.4c2.4-.4 2.9-.1 2.6 1.4-.4 2.5-2.9 5.4-4.1 4.7-1.3-.8-5.7-11-5.7-13.3 0-1.1-.9-2.4-1.9-3-1.9-.9-1.9-.4-2 17.9-.1 18.4-.1 19 2 19.6 1.1.4 2.3.4 2.6.1 1.3-1.2 4.3 1.6 4.3 4.1 0 2.1.2 2.3 1.5 1.3q1.6-1.2.5-3.1c-.9-1.5-.6-2 1.2-2.4 3-.7 7.1-.1 7.5 1.2.4 1.1-2.6 1.1-4.5-.1-.7-.4-1.6-.5-1.9-.2q-.5.5.5.6 1.1.1 1.2 2.1-.1 2.3 1.7 1.3c1-.4 2.8-.7 4.1-.7q3.7.2 1-2.5-1.3-1.3 0-1.2 1.1 0 1.2 1t1.5 1c1.4.1 1.5.8 1.5 1.7q0 1.9 1.2.5c.7-.7 3.2-1.2 5.5-1.2 2.4 0 5.8-.8 7.6-1.7 3.7-2 7.7-2.6 7.7-1.2q-.2.8-2 .9c-1.9 0-2.6 1.1-1.4 2.2.3.4 2.1 0 3.9-.8 4.3-1.7 4.6-1.7 3.9 0s.8 2.8 2.1 1.8c1.7-1.2 1.1-4.7-1-5.4q-1.9-.6 2.7-.7c4.1-.1 4.6.1 4.1 1.9q-.4 1.8.6 2c1 .2 1 .5.9 1.1q-.2 1.1 1.1 1.6 1.3.7.6-1.6t.9-2.1q1.5.1 1.6 1.1c0 .6.7 1.7 1.5 2.5q1.3 1.4 1.5.7.3-1 2-1 1.8-.1 1.5.7-.4.9.9.4 1.5-.4 1.6.5 0 1 2.5-.1c2.2-1 2.3-1.3 1.1-2-1.4-.8-1.3-1.2.4-3q2-2.1.9-2.8-.6-.6 1.9-.8c2.5 0 2.9.2 2.4 2q-.4 2.1.6 1.4 1.1-.7 1.2-2.1c0-1.2 7.5-2.7 8.6-1.6.8.8 4.5 1.1 4.1.4-.3-.5 2.1-.9 5.4-1 3.2-.1 5.8.1 5.8.5q-.5 2.9 1.7.8c1.5-1.6 7.5-2.2 8.7-1s34.8.7 36-.5c1.7-1.7 2.5-1.4 4.1 1.7q1.4 2.6.5 5.1-1.3 3 .6 1.1c.8-.7 1.5-2.1 1.5-3.1q0-1.8 1.8-1.9c1.6-.1 1.6-.1-.1-1.4s-1.6-1.4.5-1.9c4.6-1 12-.8 11.3.2-.9 1.6.4 1.3 2.2-.4 1.3-1.4 1.8-1.4 3.8-.1 2.4 1.6 8.7.8 10.9-1.4.7-.7 1-6.2 1-15.5 0-7.9.3-14.2.8-13.9q.7.4.8-.5 0-1 .9-1.1c1.3 0 2 3.7 1 4.7-1.2 1.2-.1 4.3 1.5 4.3.6 0 1.8-.5 2.6-1 1.3-.8 1.2-1.1-.5-2.4-1.5-1.1-1.7-1.7-.7-2.8.6-.8.9-1.8.5-2.1q-.4-.7.6-.7 1.3 0 .7 2.4c-.3 1.4-.2 2.7.3 3s.9 5.5.9 11.6c-.1 10.5.1 11.2 2.8 15.1 2.6 3.7 2.9 3.9 4.1 2.3q2.5-3.8-.2-5c-1.7-.7-2.1-3.4-.5-3.4 1.3 0 5-3.2 5-4.3q-.2-.7-2-.2-2 .7-2-.9c0-2 1.7-2.9 2.6-1.5q.7 1 2.1-2.1c1.5-3.7 1.6-3.5-1.3-4.4q-2.2-.7-2.8.9c-1.1 2.9-2.1 1.4-2.3-3.5-.1-3 .2-4.8.7-4.5q.8.4.4-.9t1.5-2.6c1.2-.6 2.1-1.7 2.1-2.5 0-2.3-1.7-1.8-2.5.7q-.6 2.1-1.2 1-.5-1-1.4-.6c-1.1.6-.6-9.7.5-11.5 1-1.6 4.6-1.3 4.6.4 0 .7-.6 1.8-1.2 2.2s-1.8 2.3-2.5 4.1c-1 2.8-1 3.2.2 2.2.7-.6 2.5-.8 3.9-.4 2.1.5 2.5 1.1 2 2.8-.6 2.1-.6 2.1 1 .1 1.6-2.1 2.2-8 .7-7.1-.4.3-.6-.6-.3-1.9.6-3.6 4.2-3.4 4.3.2l.3 4.8c.1 1.1-.3 2.3-.9 2.7q-.8.7.8.8c1.6 0 1.9-.4 2.1-3.3.1-.6.5-1.5.9-1.8s.3-1.8-.3-3.3q-.9-2.6 0-2.1t1-.4q0-1 1.2-1.1c1.6 0 .3 18.1-2.2 30.5-2.4 11.7-5 17.5-9.6 21.7-1.8 1.7-3.1 3.5-2.8 3.9.3.5-1.2.9-3.3.9l-10.2.6q-6.4.6-5.7-.5t-1.8-.1c-1.4.5-10.2.9-19.7.9l-17.2.1 1.8-2a9 9 0 0 0 2-3.9c.1-1.6-.2-1.8-2.3-1q-2.4 1-3.7-.1c-1.4-1.2-8.2-2-10.2-1.2q-1.2.4-1.3 1.4 0 .8 1 .3.8-.4.4.8-.6 1.4 4 2.4c2.5.5 4.3.7 4.1.3q-.4-.9 1.1-1.4c2.4-.9 2.6-.8 2.2 1.6q-.2 2.3-2.8 2.5l-3.5.2c-.5.1-7.9.3-16.2.4-11.3.1-15.2-.1-15-1q.1-1-.8-1-.9.2-.7 1 .1.6-.5.5a1630 1630 0 0 1-63.1 1.6c-34.9.2-39.4.1-40.2-1.3s-1.1-1.4-2.4.2c-2 2.6-6.8 1.8-7.8-1.4q-.7-2.6-.5 2.1l.2 4.5 50-.3 91.5-.9c63.7-.8 64.8-.8 65.5-.1.4.3-.1 1.8-1.1 3.3-1.5 2.4-1.6 2.8-.2 4.2 2.5 2.4 7.8 2.9 29.3 2.8q20-.2 22.2-1.3c1.3-.7 3.8-1 6-.6a30 30 0 0 0 18.9-5.6l3.7-3 30.1-.2 34.6-.3a7872 7872 0 0 1 144.8-2l4.2-.6V0H0zM280.4 11.1c.9.8-1.4 1.5-7.7 2.3-4.3.5-6.2 1.8-8.3 5.9-2.1 4-1.2 6.9 4.3 13.9 4.5 5.7 5.8 6.5 11.6 7 4.6.5 3.4 2.2-2.2 3.1-6.4 1.1-12.1.2-12.1-1.8q.1-1.3 1-1.5 1 0 1-1c0-1.5-6.1-8-7.5-8-1.9 0-5.8 6.7-5.1 8.6q.7 1.4 2.3 1c1.9-.6 5.1.9 4.1 1.9-.3.3-6.8.9-14.4 1.2-21.4 1-20.9 1-20.9-.7 0-1.1 1.4-1.6 5.3-1.8 6.7-.4 6.9-1.1 6.2-15.7l-.5-11-5-.3c-13.4-.7-8.9-2.9 7.3-3.5l13.3-.5L255 14c3.3 6.5 4.2 6.3 10.3-2.4 1.7-2.4 2.1-2.5 8-2 3.4.4 6.6 1 7.1 1.5M84.6 35c1.1 12.1 2.5 49.7 2.2 59.8l-.3 12.7-4.2.3c-3.6.3-4.3 0-4.3-1.5 0-7.4-1-43.4-1.6-55-.8-18-.6-19 4.2-18.9 3.2.2 3.8.5 4 2.6m17.8 24.6c.3.9.6 5.7.5 10.7-.1 5.4-.4 8.2-.8 6.7q-.7-2.4-2.6-2.5c-1.6 0-2 .7-1.9 3 .2 6.5-6.4 5.9-7-.6l-1.1-11.2-.7-7.7h6.5c5 0 6.6.4 7.1 1.6m178.4 1.9c62.2.3 120.5.7 129.5 1 14.3.4 66.7 2.2 80.1 2.8 2.9.1 5.1.7 5.4 1.4.3 1-21.9 1.3-108.5 1.3-195.7.1-279.6-.1-280.5-.6-1.1-.7-1-4.8.1-6 .6-.5 13-.8 30.8-.7zM74 69.6c0 5.6-.4 7.6-1.4 8-4 1.5-18.5.4-29.8-2.3-5.2-1.2-6.7-2-7.2-3.7-1.8-6.7-1.5-6.8 28.9-9.5 4.4-.3 8.3-.5 8.8-.3s.7 3.7.7 7.8m-45.1-5c3.6 3 3.8 5 1.1 10.4-1.7 3.3-2.6 4-4.9 4-3.5 0-9.1-4.4-9.1-7 0-2.7 3.2-7.7 5.5-8.9 3.1-1.5 4.1-1.3 7.4 1.5m466.9 6.9c2 .7.4 2.5-2.1 2.4A18669 18669 0 0 0 217 77.5l-78.7 1.1-31.3.6v-7.1l18.3-.3c10-.2 58.2-.4 107.1-.5s89-.4 89.1-.5c.5-.5 172.9.2 174.3.7M66.5 88.2c1.5 4.8 2 67.5.6 69.1-.4.4-2.4.8-4.4 1l-3.8.2-.4-7c-.3-5.4-.7-50.9-.5-60.8 0-2.9 7.6-5.1 8.5-2.5m17.9 24.4c.3.9.6 5.2.5 9.7 0 6.3-.3 7.6-1 5.8-.5-1.3-.8-3.5-.7-5 .2-2-.1-2.6-1.7-2.6-1.8 0-2 .8-2.3 7.2l-.3 7.3h-6.7l-.7-10.5c-.4-5.7-.5-11.1-.1-12 .8-2.2 12.1-2.1 13 .1m137.1.9c5.5.2 30.5.6 55.5.9a26639 26639 0 0 1 194.3 3c23.3.3 27.8.9 25.2 3.5-.6.6-20.3 1-49 1.1l-94 .2-155 .2-109 .1-.3-3.9c-.6-7.1-5.6-6.6 61.5-6 33.4.2 65.3.6 70.8.9m-167.1 8c.2 4.2-.2 7.9-.7 8.2s-6.9.5-14.1.5c-14.3 0-22.1-1.4-21.2-3.7.2-.7.8-2.9 1.1-4.9s1.4-3.7 2.4-4c2.9-.9 17.5-2 23.8-1.8 4.8.1 6.3-.2 6.7-1.5q1.8-4.3 2 7.2m-42-5.3c3.5 1.5 4.2 4.5 1.9 7.7-2.9 3.9-6.3 5.3-8.7 3.7-5-3.2-4.6-8.8.7-11.1l3.4-1.5zm484.3 10.5c.7 1.9-10.2 2.2-78.7 2.8a15889 15889 0 0 0-165.5 2 14432 14432 0 0 0-129.8 2.1l-33.8.7.3-3.9.3-3.9 61-.2 64-.5c1.7-.2 65.7-.3 142.4-.3 99.1.1 139.6.4 139.8 1.2M84.4 143a509 509 0 0 1 1.8 34.3c-.2.5-.3 9.7-.3 20.5s-.3 20.2-.7 20.7c-.9 1.4-5.9 1.7-6.7.4-.4-.5-.8-5.1-1-10.2s-1.1-21.6-2.1-36.8-1.5-28.2-1.2-29c.8-2 9.7-2 10.2.1m22.5 25.6q1.6.4.3 1.6c-.7.7-1.2 3-1.2 5.1 0 3.3-.2 3.8-1.5 2.7q-3.6-3.1-3.5 6.1c0 5.4-.2 6-2.5 6.9-3.4 1.3-8.5.2-8.5-1.9l-.2-11.1-.2-9.5 5.9-.5c5.8-.5 8.4-.3 11.4.6m-35.1 11.1.3 9.3-4.8.1c-12.2.2-21.3-.3-26.3-1.2l-5.5-1.1V174l3.5-1.1c1.9-.6 8-1.3 13.5-1.6a99 99 0 0 0 11-.8c.6-.2 2.6-.3 4.5-.2l3.5.2zM437 171c34.8.1 58 .5 58.7 1.1q1 1 .4 3.6l-.7 2.6-102.9-.1-191.1-.3c-92.9 0-92.1 0-91.3-4.4.4-1.8 4.2-1.9 126.2-2.1a10361 10361 0 0 0 134.9-.8zm-407.5 2.5c3.4 3.3 3.1 6.5-.9 10.4-2.6 2.5-4 3.2-6.6 2.9-2.7-.3-3.4-.9-4.6-4.3-1.5-4.3-1.1-7 1.4-9.8 2.3-2.6 7.8-2.2 10.7.8m466.2 8.9q.5.6.1 1.1c-.8.9-33.1 1.5-109.8 2.1-39.9.3-75.6.7-79.5.9-8.7.4-124.6 1.7-165 1.9l-30 .1-.1-3c-.1-1.7 0-3.3.3-3.8.5-.9 383.1-.2 384 .7m-390 4.8q-.3 1.8-.4-1.7t.4-2.3c.2 1 .2 2.8 0 4m-42.6 13.2.4 7.1c2.3 23.1 3 62.3 1.2 65.2-.4.6-1.7 1.1-2.9 1.1-1.3 0-3 .1-3.8.3-1.2.3-1.4-.5-1.3-4.1.2-2.5-.4-13.3-1.2-24S54 219.7 54 211.4v-15.1h9zm20.7 31.7c.3 7.3.2 7.6-2 7.5-2.1-.1-2.3.4-2.4 4.9l-.3 6c-.1.6-2 .9-4.5.7-3.6-.3-4.5-.8-5-2.5-.5-2.2-2-21.8-1.8-22.6.1-.2 2.1-.5 4.4-.8 2.3-.2 4.4-.6 4.7-.9s1.9-.4 3.6-.2l3 .3zm247.7-4.6c71.5.4 136.8.7 145.1.6s16 .3 17.2.6c2.4.6 3 3.8 1 4.6-.7.2-38 .5-82.8.6s-93.4.3-108 .6c-52 .9-215.2.7-216.2-.3-.5-.5-.8-2-.6-3.3.2-2 1.1-2.5 4.8-3 2.5-.4 27.4-.7 55.5-.8a1723 1723 0 0 0 52.8-.6c.7.2 59.7.6 131.2 1m-280.2 4.2c.4.2.7 3.5.7 7.2v6.8l-3.7.7c-5.9.9-21.3.5-26.8-.8l-5-1.1v-10l11-2.2c10-2 20.9-2.3 23.8-.6m444.1 6.2q.8.2.3.7c-.9.9-30.9 1.5-107.7 2.1a2916 2916 0 0 0-117 2.7l-85 1.8c-30 .6-64.2 1.2-76 1.2l-21.5.1-.3-2.9c-.2-1.6.2-3.2 1-3.7.7-.5 24.3-.9 52.3-.9 55.3 0 172.7-.9 173.1-1.3.2-.2 178.5 0 180.8.2m-411.7 6.8q-.5 1.3-.5-1.2 0-2.6.5-1.8c.2.7.2 2.1 0 3m8.9 5.9 2.9.6.5 15.1c.2 8.4.5 25.1.5 37.2v22l-2.4.3c-1.3.2-2.7 0-3.3-.6-1.2-1.2-2.5-18-3.8-48.1-1.2-28-1.2-27.9 5.6-26.5m26.8 27.6-.2 11.4c-.1 6-.6 9.3-1.2 8.9-.5-.3-1-2.2-1-4.1 0-2.7-.4-3.4-2-3.4-2.1 0-2.3.5-2 6.2.1 3.7 0 3.8-3.2 3.8a16 16 0 0 1-6-1.2c-2.4-1.2-2.6-1.7-3.2-11.7-.4-6.5-.2-10.7.4-11.1.5-.3 4.9-.6 9.7-.5 7.7 0 8.8.2 8.7 1.7m377.4 1.7c.2 1.3 0 2.7-.5 3.2s-13.6.9-29.9.9H435l-54.5.4c-28.6.2-60.8.6-71.5.9-16.6.6-57.6 1.1-165.5 2l-20 .2v-8l13.5-.6c7.4-.3 44.5-.7 82.5-.8 37.9-.1 69.2-.4 69.4-.7s47.1-.3 104-.2l103.6.3zm-464.9 1.7c3.7 4.7 2.3 10.9-3.3 14.3-3.3 2-3.7 2.1-5.9.6-3-1.9-4.7-5.6-4.7-10.1 0-2.8.6-3.8 3.3-5.4q6.8-4.2 10.6.6m51.3.1c.2 1.6.2 4.9 0 7.4l-.4 4.5-6.6 1.1c-8.5 1.4-31.5.2-35.7-1.8-2.3-1.1-3.1-2.3-3.6-5.4-.4-2.2-.3-4.4.1-4.8.9-1 4.5-1.4 22.5-2.2a127 127 0 0 0 13.4-1c.2-.3 2.6-.5 5.2-.5 4.3 0 4.7.2 5.1 2.7m412.7 7c1.9 1.6-5.4 2.2-31.9 2.8a1928 1928 0 0 1-82.5 1.9c-28.1.4-53.7.8-57 1.1-8.1.6-56.9 2-105 3-23.8.5-51.1 1.2-79.1 2-14.2.5-16.3.3-16.8-1.1-.9-2.2-.7-6.2.2-6.8 1.5-.9 76.7-1.7 289.6-3.2 41.8-.2 76.2-.7 76.4-.9.5-.5 5.3.5 6.1 1.2m-426.3 22 .2 22.8c.1 8.2-.2 20.8-.6 28l-.7 13-3.7.3c-2.9.3-3.8-.1-4.3-1.7a226 226 0 0 1-1-20.3c-.2-10.1-.7-24.4-1-31.9-.9-16.7-.5-17.9 6.4-17.9h4.8zm14.2 9.9c.6.2 1.2 1.9 1.2 3.9 0 1.9.5 4.3 1.1 5.3q1.2 1.9.5 8.5c-.7 6.2-.9 6.7-3.1 6.7-1.3 0-3.6.5-5 1.2-1.9.9-2.8.9-3.7 0a86 86 0 0 1-1.6-25.8c.8-1.1 6.9-1 10.6.2m124.2 3.6 9-.1 37.5-.2 55-.1c13.8 0 52.2.3 85.5.7l80.5.9c18.1.1 20 .3 20.3 1.9q.4 1.7-2 1.8l-88.3.4c-150.6.6-310.1 2.2-311.6 3.1-.4.2-1 3.1-1.3 6.5q-.8 6-1.7 5.2-1-1 .1-3.7c.5-1.5.7-4.6.3-6.8l-.6-4.1 3.3.6c2.8.6 3.6.3 6.4-2.8l3.2-3.4 38.9-.1a699 699 0 0 0 39.4-.6c.3-.4 6-.3 12.6 0zm-152 8.7c0 5-.4 9.3-1 9.6s-1.9 0-3.1-.8q-2.1-1.5-4.7-.8c-1.5.5-7.9.8-14.3.7-13.8-.1-16.3-1.2-17.4-7.7-.4-2.2-.3-4.5.2-5 1.5-1.5 11.4-3.1 23.8-3.9l14.3-.8c2.1-.2 2.2.1 2.2 8.7m440.1.7q.8.6 0 2.6c-.9 2.5 11.8 2.2-124.6 3.2-42.9.4-90.6.8-106 1.1l-93 1.1-70 .8c-4.9.1-5 0-4.8-2.8.1-1.6.6-3.3 1-3.7 1.5-1.5 34.5-1.9 208.8-2.4 96.8-.3 176.7-.7 177.5-.9 1.8-.4 10.1.3 11.1 1M91.3 351.5c-.4 4.2-.3 19 .3 46.8l.7 28.8-4.4-.7-4.5-.8c-.3-.2-1.3-25.6-2-48.2-.4-11.7-.4-22.8 0-24.8.7-3.7.7-3.7 5.4-3.4 4 .3 4.7.6 4.5 2.3m28 33.7c-.2 12.2-.3 13.1-1.2 9.8-1.1-4.1-3.9-3-5.5 2.2-.4 1.4-1.8 1.7-8.1 1.7-9.1 0-9 0-9.7-13.1l-.4-8.8 4-.9c2.3-.5 7.9-.9 12.6-1l8.5-.1zm104.7-7.9c23.9.4 71.6.9 106 1.2 99.4.8 164.4 1.6 165.8 2 .6.3 1.2 1.6 1.2 3v2.6l-59.7-.3c-32.9-.1-67.7-.6-77.3-1.1-27.8-1.4-37.8-1.2-40 .8q-2 1.8-3.7.9c-1-.5-44.5-.8-96.6-.9-103.6 0-96.7.4-96.7-5.7 0-2.6.2-2.7 5.8-3 8.5-.4 46.2-.2 95.2.5m-145.2 2.2c.8.6.2 13.9-.6 14.7a196 196 0 0 1-38.7.1l-5-.8v-11l4-1.4c5.7-1.9 38.2-3.3 40.3-1.6m-48.7 4.1c2 5.4-1.5 10.4-7.2 10.4-4.5 0-7.2-2.9-6.3-6.9.9-3.8 4.1-6.1 8.5-6.1 3.3 0 4.1.4 5 2.6m317.5 5.9c4.4 2 7.4 4 7.4 4.9 0 1.8-1.8 1.3-9.4-2.8a24 24 0 0 0-6.7-2.6c-2.9 0-2.2-2.2 1-2.9.2-.1 3.7 1.5 7.7 3.4m-15.7-.2c.7 1.8 2.3 2.7 6.5 3.7 3.1.7 5.6 1.7 5.6 2.1s-3.5.7-7.7.6c-7.2-.2-7.8-.1-7.6 1.8.1 1.7-1.3 2.5-8.4 4.8a39 39 0 0 1-9 2.3c-1.3-1.2 4.9-5.6 10-7 7.6-2.2 7.6-4.1 0-3.2-6.6.8-6.4.2 2-4 7.6-3.9 7.6-3.9 8.6-1.1m-94.1-.3h75.6l-4.8 3c-4.4 2.8-5.7 3.1-15.9 3.6-6.2.3-46.5.6-89.7.7l-78.5.2-.3-3.7-.3-3.8 17.8-.2c9.8-.2 18.4-.2 19.1-.1.8.2 35.4.3 77 .3m259 2.2c-.3 2.2-.9 2.3-10.3 2.9-14 .8-112.7 1.1-120.2.3-4.5-.5-7-1.3-9-3l-2.8-2.4h142.6zm-189 10.4c-.1.9-2.3 3.2-4.8 5.1-6 4.4-6.9 4.8-8.3 3.4s.6-3.1 4-3.1q2.1 0 5-4.4c2.7-4.2 4.9-4.8 4.1-1m38.7-.5c4.3 2 7.2 4.5 6.3 5.4-.2.2-3.4-.5-7.1-1.7s-7-1.9-7.4-1.4c-1.5 1.4 1.5 4.1 5.3 4.8 8.9 1.6 10.4 2.1 11.6 3.5s.5 1.4-4.6.8c-5.2-.7-5.9-.5-7.3 1.5q-1.5 2.4-2.7 1-1.3-1 1.3-2.9 2.1-1.7 1.5-2.3c-2.2-1-12.5.1-19.2 2.1-8.8 2.7-14 2.5-7.7-.3 2.2-1 6.5-2.2 9.5-2.8 8.2-1.6 8.5-1.7 7.2-3-1-1-8.7-.1-15.1 1.8q-1.2.4 1.3-1.2c1.6-.9 6.1-2.2 10-2.9 5.7-.9 7-1.5 6.8-2.8-.4-2.4 4.7-2.2 10.3.4m9.6-.1q2 1.7 1.3 2c-.7 0-2.2-.9-3.5-2q-2-1.7-1.3-2c.7 0 2.2.9 3.5 2m-282 4.9c.3 7.3-.2 13.9-1.7 24.8-1.3 8.7-1.4 13-.6 19.7.5 4.7.8 10.9.6 13.8l-.8 11.5c-.2 3.3-.7 6.6-1 7.2s-2.7 1.1-5.2 1.1H61l-.2-10.8-.1-38c0-29.8.4-32.2 5.2-32.2a9 9 0 0 0 4-.9c2.4-1.5 4.1 0 4.2 3.8M308 411q-3 2-3-.4c0-1.8 2.2-2.7 3.5-1.4q1 .9-.5 1.8m-8.9 3.1c5.4-1.6 6.2-.7 1.3 1.4-5.9 2.5-10.7 3-12.2 1.2-1.1-1.3-.9-1.8.9-3.1 2.1-1.4 2.4-1.4 4.1.1 1.6 1.4 2.4 1.4 5.9.4m55.4 2.8c1.9.8 1.9.8 0 1.8-1.1.6-3.7.8-6 .4-3.6-.6-3.8-.8-2-1.9a9 9 0 0 1 8-.3m10.4.4c1.7 2.1-2.5 5.3-9.4 7.3-6.8 1.8-9.3 2-10.8.5-1.6-1.6-.1-2.4 2-1.1 1.5 1 2.8.8 6.5-1 2.6-1.2 5.1-2 5.5-1.7 1.4.8 5.3-1.2 5.3-2.8 0-1.8-.5-1.9-3.1-.5q-1.7 1-1.9.2c0-2.4 4.1-3 5.9-.9m-56.9.6c0 1-2.5 2.1-4.8 2.1-1.5-.1-1.4-.3.2-1.5 2.2-1.7 4.6-2 4.6-.6m11.5 3.1q-.7.9-1.6 1-.9-.1-.4-1a2 2 0 0 1 1.6-1q.9 0 .4 1m18.5 1.3c0 .7-1.1 2.8-2.5 4.7a13 13 0 0 0-2.5 5.2c0 2.2 2.7 7.8 3.8 7.8.4 0 1.8.3 3.1.7q2.6.8 1.6-.7-.7-1.3.3-.7c1.4 1 4.4-.3 3.9-1.7-.2-.6 3.6-3 8.3-5.3 5-2.4 9.9-5.6 11.4-7.4 1.5-1.7 2.9-2.9 3.3-2.6 1.3 1.4-4.1 7.5-11.3 12.6q-10.7 7.8-5.6 7.5 1.3-.2.4 1c-.5.6-.8 2.1-.7 3.3q0 2-.8 1.6t-.5.7c.8 2.4 2.3 2.1 6.8-.9 2.5-1.6 4.7-2.7 5-2.4.9.9-6.2 6.2-8.8 6.5-3.3.4-4 2.6-1.1 3.6 2 .8 1.8 1.1-3 4.1-2.9 1.7-5.6 2.9-6.2 2.6-.5-.4-1.4.7-2.1 2.2s-2.3 4.5-3.6 6.5-2.2 4.3-2 5-.1 1.9-.9 2.6c-1.6 1.7-1.8 4.6-.1 3.6q1.2-.8.4 1.2c-.4 1-.8 9.7-.8 19.2 0 11.9-.4 18.1-1.2 19.7-.7 1.4-1.2 4.4-1.1 6.7a35 35 0 0 1-7.4 21.5c-2.9 3.9-5 4.1-8 .9l-2.3-2.5.7-31.4c.7-33.9.7-33.7 6.9-46.6 1.3-2.7 3.1-8 4-11.8 1-3.7 2.2-7.6 2.7-8.6 1.1-2 .1-7-1.2-6.1-.5.3-.9-.7-.9-2.1 0-3 3.7-10.8 4.9-10.1.4.3 1.3-1.2 2-3.2 1.7-5.2 3.3-8.2 4.3-8.2q.7.1.8 1.3m-25.9 1c.8.7 1.5 2.5 1.5 4.2-.1 3.5 2.9 4.8 3.9 1.6q.7-1.9 2.1-1.4c.8.3 2.2-.1 3.2-.9 1.9-1.7 7.2-3.2 7.2-2.1-.1 1.9-6.2 10.3-7.5 10.3s-4.4 4.5-4.5 6.2c0 2.7 1.5 2.1 2.7-1l1.1-2.7-.1 3.2c-.1 1.8-.6 3.3-1.3 3.3-.6 0-1.9.9-2.9 2-1.5 1.6-1.6 2.3-.6 3.3q1.2 1.4 2.1-.2c1.2-2 4.6 5 3.6 7.5-.6 1.6-.8 1.6-2.9-.3-3.6-3.3-6.6-4.6-8.1-3.4-.7.6-1.7.7-2.1.3q-.7-.5-.2.4c.7 1.2-5.3 6.4-7.3 6.4q-1-.2-1.9-2.3l-2.7-6.2-2.5-5.7q-1-1.9.8-1.1 1.6.6 1.1-.8a2 2 0 0 0-1.9-1.4c-.8 0-2.8-1.8-4.6-4.1a32 32 0 0 0-5.8-5.8c-2.5-1.7-2.6-1.9-1-3.6 2.3-2.6 9.8-5.1 17-5.7 3.3-.3 6.2-.7 6.4-.9.8-.8 3.6-.3 5.2.9m-35.9 6.3c4.2 1.2 17 18.4 18.2 24.3.6 3.4.6 3.4-1.4 1.6-1.1-1-2-2.4-2-3 0-2.2-2.7-3.7-4.7-2.6a22 22 0 0 1-5.4 1.6c-3.9.6-7.6 3.5-4.6 3.5.9 0 2.7-.4 4.1-1 4.1-1.5 8.5-.1 10.2 3.2a9 9 0 0 0 3.9 3.8c2.9 1.1 3.4 3.4.6 2.5-3.1-1-3.5 1.4-.8 5.3 1.4 2 2.9 5 3.3 6.7.4 1.6 1.8 4 3.1 5.2 2.7 2.6 2.8 3.6.8 9.4a23 23 0 0 0-1 10.4c.5 4.4 0 9.1-1.9 18a82 82 0 0 0-2.2 24l.5 12.4q.2.3 1.7-1t.9-3.6c-.3-1.4.1-3.3 1.1-4.8 1.3-2 1.9-6.3 2.4-18 .4-8.4 1.1-15.9 1.6-16.6s1-5.1 1.3-9.7c.6-8.7 2.3-11.7 3.9-7 .4 1.3.6 15.3.3 31.3-.4 15.9-.2 33.7.2 39.4 1 12.1.2 15.1-3.9 15.1-1.5 0-3.5.7-4.5 1.6-2.4 2.2-4.6 1.2-5.4-2.5-1.2-5.8-4.9-6.5-5.7-1.1-.5 3.9-2.3 2-2.1-2.3.1-3-.2-3.7-1.7-3.7-1.1 0-2.4-.9-3-1.9a74 74 0 0 1 .5-26.5l5.2-21.9q.7-1.7-1.6-1.7c-2.4 0-2.5-.5-1-4.9 1.4-4.1 3.7-4 4.1.1.4 4.7 2.3 3.6 2.3-1.3q-.2-8.5-6.2-4.3a8 8 0 0 0-3.1 5 159 159 0 0 0-5.6 31.4c-.2 1.4-.7 3.4-1.3 4.4-1 1.8-1.1 1.8-1.8-.5-.4-1.3-2.1-3.6-3.8-5-2.5-2.1-3.1-3.4-3.1-6.5.1-5.2 3-18.8 4.8-22.2 1.4-2.5 1.5-2.3 1.3 4.8-.2 6.1.1 7.5 1.3 7.5s1.7-1.7 2.1-6.5l1-8.9c.4-2.6-1.8-4.1-2.6-1.8q-.7 1.3-2.9 1c-1.8-.4-2.5.3-3.9 3.4-.9 2.1-2.1 5.7-2.7 8-1 3.9-1.3 4.2-4.3 4-5.4-.4-5.6-1-3.2-8.4a30 30 0 0 0 1.8-7.6c-.9-1.6-3.3-.5-3.9 1.8q-1.2 4.5-3.4.5c-2.2-4.1 1.7-20.6 6.6-28l7.5-10.8c5.3-7.3 6-10.5 1.4-6.2a106 106 0 0 0-14.9 22.2 72 72 0 0 0-3.9 13.2l-1.7 8 2.5 4.4c1.4 2.5 2.5 5.9 2.5 7.6 0 3.8 4.4 8.6 7.8 8.6 1.8 0 2.2.6 2.2 3.2.1 1.8.7 4.4 1.4 5.8q1.5 2.5.4 4.3c-.5 1.1-.7 5.2-.4 9.5s.6 11.9.6 17c.2 10.6 1.9 28.4 2.8 29.4.4.3 2.4 1 4.5 1.3l3.8.7-.7-4.1q-1.4-7 2.1-1.5c1.6 2.5 1.6 2.7-.6 5q-2.2 2.3-4.1 1.8c-2.5-.7-4.2.4-2.9 2 .8.9 0 2.3-2.8 5l-3.9 3.8-1.6-3c-2.8-5.5-4.1-17.9-4-39 .1-19.8 0-20.8-3-20.3-.5.1-.7-3.6-.4-8.4.5-7.5.4-8.6-1-8.3-2.5.5-3.1 5.3-3.8 31.3-.5 19.6-.3 25.4 1 31.8 1.7 8.6 3.6 13.3 5.4 13 .6-.2 1.9 1.1 2.8 2.8 1.5 3 1.5 3.3-1.3 7.3-1.6 2.2-4.9 8.3-7.3 13.4-2.5 5-4.9 9.1-5.5 8.9-1.7-.5-6.5-10.8-6.5-13.9 0-4.4-2.8-10.4-4.2-9-2.6 2.6 3.8 22.7 8.1 25.4q2 1.3 2.1 1.9c0 .4-1.4 3.7-3 7.5l-3.1 6.7-2.2-2.1c-1.3-1.2-2.7-2.2-3.3-2.2-1.9 0-6.6-9.5-10.4-21a114 114 0 0 1-2-35.1 349 349 0 0 0 1.6-23.2l.7-16.7h-2.2q-2.4 0-1.7-1.8l3-11.7 5.4-21.1c1.7-6.1 3.7-15.4 4.6-20.7 1-5.4 2.3-11.6 3.1-13.8 1.9-5.2 1.9-5.9 0-5.9-2.6 0-2.9.9-8.6 27.5-1.1 4.9-3.5 14.8-5.5 22-6.6 24-8.4 32.9-10.5 53-2 19.5-2.1 38.6-.2 49.9l.6 4-3.3-2a25 25 0 0 1-9.8-16.2c-.2-2.6-.9-5.2-1.4-5.9-1-1.2-.7-2.8 2.8-15.2 1.3-4.6 3.3-13.8 4.5-20.5 1.1-6.7 3.1-15.7 4.5-20.2s2.4-8.9 2.4-9.9c0-2.5 5.9-24.2 11.5-42l5.4-17.5c2.6-9.1 6.3-18.5 8.8-22.8a44 44 0 0 0 4.2-9.2 85 85 0 0 1 11.6-21.9c1.9-2 2.7-2.2 3.8-1.2 1.2.9 2.1.7 4.3-1.3 3.3-2.7 2.8-4.4-.7-2.5q-2.4 1.3-2.7 0c-.7-2.2-4.1-1-7.6 2.9a149 149 0 0 0-15 28.7 10 10 0 0 1-3.1 3.7c-3.3 2.1-5.8 7.2-5.1 10.2q.7 2.3-1.9 4.8a30 30 0 0 0-6.5 13.5q0 1.7-.7 2.5a71 71 0 0 0-6.3 19.3c0 2.4 1.8 3.2 2.4 1l5.7-17.7c2.3-6.7 3.2-8.5 3.6-7.4.2.6-.8 4.4-2.3 8.5-2.6 7.3-4.9 15.1-8 26.1-.8 3.2-2 5.7-2.7 5.5-.6-.1-1.7 1.8-2.5 4.3l-2.8 9.1c-.8 2.6-1.4 5.6-1.4 6.7s-1.5 7.1-3.4 13.3-3.7 13.8-4 16.7c-.6 4.9-5.1 23.7-6.1 25.2-.2.4 0 2.2.5 4.1.8 2.7.7 3.6-.5 4.5-5 3.7-8 29.9-4.1 35.8 1.5 2.3 2 2.5 3.3 1.4 1.4-1.1 1.7-1.1 2.1.1.3.8 2 3.1 3.8 5.1 3.9 4.3 4.1 5 1.7 5-3.3 0-7.9-3.7-12.6-10-6-7.9-6.1-10.8-1.4-32 .8-3.6 1.7-9.7 2.1-13.5s1.6-9.7 2.7-13c1-3.3 2.8-9.8 3.8-14.5 1.1-4.7 2.4-10.1 3-12 6.4-21.5 8.1-27.8 8.1-29.7 0-1.3.6-3.9 1.4-5.7s1.7-5.3 2.1-7.7 2.5-11.6 4.7-20.4c3.3-13.6 4.9-17.9 10.3-28.5a522 522 0 0 0 10.1-20.5c8.1-17.4 16.7-28.7 23.4-30.5 5.1-1.4 8.7-1.2 9.4.5.6 1.7 5.1 2.1 6.1.6q.3-1-1.5-2.1c-5.1-2.7.3-3.6 8.2-1.4m94.8.3c-1.1 2.1-3 3.7-3 2.5 0-.8 3-4.4 3.7-4.4q.3.2-.7 1.9m-24.1.7q1.2 1-3.4 1.6c-2.2.2-3-.2-3.3-1.5-.3-1.7 0-1.8 3-1.2 1.8.4 3.5.9 3.7 1.1M87 432.5c1.6.8 3 2.5 3.2 3.7.4 3.1 3.1 2.9 3.8-.2q.7-2.5 2.5-2.5c2.2 0 2.2.1.7 11.5-.5 3.6-1 5.5-1.1 4.4-.1-2.7-2.3-4.5-4-3.5-1 .7-1.2 2.1-.7 5.5l.7 4.6-4.3.1c-2.4 0-5.7.2-7.3.4l-3.1.4-1.3-8.3c-1.4-9.1-.8-15.1 1.8-16.6 2.4-1.4 5.8-1.2 9.1.5m130 1.5c12.9.2 24.1.5 24.7.7q1.2.5-1.9 4.3l-3.2 3.8-67.3.1c-63.5.1-67.3 0-67.2-1.6.3-6 1.2-6.8 7.9-7.3 6.1-.5 53.6-.5 107 0m209.4 1.6a1904 1904 0 0 1 66.4 1.4h4.2v6.9c0 5.8-.3 7.1-1.8 7.5-2.5.8-88.2 1.3-109.2.6-16.2-.5-17.5-.6-17.2-2.3.2-1-.3-2.5-1-3.4-1.1-1.4-.9-1.5 1.7-1 1.7.4 30.2.8 63.4.9 47.7.2 60.5 0 60.8-1 .6-1.5 3.4-1.4-34.2-1.6a1953 1953 0 0 1-88.5-1.3c-1.9-.5-2-.7-.5-2.9a10 10 0 0 0 1.5-4q0-1.6 1.7-1c.9.4 24.6.9 52.7 1.2m-61.3 2.3a20 20 0 0 1-5.8 4.4c-4.7 2.5-4.9 2.5-5 .6q0-1.9 2-2.9c1.2-.5 3.5-1.8 5.1-2.9 3.3-2.2 5.1-1.9 3.7.8M233 447.4c0 .8-.8 2.3-1.7 3.5-1.7 1.9-3 2.1-24.3 2.5-34.1.8-103.8.8-105 .1-1.1-.7-1.4-5.8-.3-6.8.3-.4 30-.7 66-.7 55.1 0 65.3.2 65.3 1.4m118.2 18.7a26 26 0 0 0-6.7 10.4c-1.8 5.9-3.5 19.7-3.5 29.7 0 3.7-.5 7-1 7.3q-1 .7-.5-10.2l.9-16.8a25 25 0 0 1 1.3-8c.6-1.1.8-2.5.6-3.2-.8-2.3 2.8-7.2 7.9-10.7 2.9-2 5.5-3.6 5.7-3.6s-1.9 2.3-4.7 5.1m-259 3.4-.8 23c-.4 13-.1 22.2 1 32.9 1.4 13.8 1.4 15-.2 17.2-1.9 2.6-3.5 3.1-7.3 2.6-2.6-.4-2.6-.4-3.4-13l-.7-14.7.1-10c0-4.4.5-14.4 1-22.2a86 86 0 0 0-.1-20.8c.3-.3 2.8-.5 5.6-.3l4.9.3zm20.1 22.7c1 .5 2.7.6 3.8.3 1.1-.4 2.5-.2 3.2.3.8.7 17.4 1.2 44.7 1.4 23.9.2 44 .6 44.7 1.1q1.2.6 0 3.7l-1.1 3-9.6.2c-20.8.3-62.9.3-68.7-.1-5.8-.3-6.2-.5-6.5-3q-.4-2.4-1.8-2.6c-1.2 0-1.5 1.5-1.5 7.6q0 7.5-1.4 9.3c-1.8 2.2-3.4.7-3.3-3.1 0-1.5-.5-3.4-1-4.1-1.8-2.1-4 .7-3.6 4.7s-1.2 4.8-9.4 5c-3.7.1-4.8-.3-5.3-1.7-.9-3-.8-21.3.1-22.2 1.9-1.9 13-1.7 16.7.2m-34.5 8.7c.1 11.7.2 11.7-16.3 11.4-20.5-.4-26-2.4-24.5-8.9a14 14 0 0 1 1.9-4.8c2-2.4 13.3-4.1 36.2-5.4l2.7-.2zm-45.6-4.3c2.2 2.2 2.5 3.1 1.7 4.6q-1 1.9 0 3.2c1.3 1.5-6 8.6-8.9 8.6-3.5 0-7.9-2.9-8.6-5.6-.4-1.4-.1-4.3.5-6.4 1-3.2 1.8-4.1 5.4-5.3 5.9-2.1 6.7-2.1 9.9.9m445.3-1.3c18.3.2 19 .3 19 2.2 0 1.7-.9 2.1-6 2.6-3.3.3-37.3.6-75.5.5-63.3-.1-69.5-.2-69.8-1.7-.2-.9.4-2.3 1.2-3.1 1.4-1.5 15.4-1.5 131.1-.5m19 10.8v2.4l-27.5.1-62.5.4c-59.5.4-61.5.3-61.5-2q0-1.9.3-2.2c.2-.3 135-1.4 144.7-1.2 6.1.1 6.5.3 6.5 2.5m-290-.2c.3.5.1 2-.4 3.4l-.9 2.4-40.1.2c-22.1.1-40.5 0-41-.3s-.6-1.7-.4-3c.5-2.4.9-2.5 7.7-2.8 18.3-.8 74.6-.6 75.1.1M341 516q0 .9-1 1a1 1 0 0 1-1-1q.1-1 1-1t1 1m.1 7c.3 5.9-2 18.2-4.2 23.1-2 4.4-6.1 8-7.5 6.6-.3-.3.6-2.1 2-4s2.6-3.9 2.6-4.5q.1-1.1.8-1.2c1 0 4.2-17.1 4.2-22 0-4.5 1.9-2.7 2.1 2m-69.6 28.3c0 2.6-2 2.5-2.3-.2q-.4-2.4 1-1.9 1.2.6 1.3 2.1m-64.8 6.9q-.5 1.1-.6-.6t.5-1.3c.3.3.4 1.2.1 1.9m71.4 10.1q1 1.7-.1 3.7c-.5 1-1 4.1-1 6.9s-.4 5.1-.9 5.1c-.9 0-2.1-12.3-2-21.4v-6.1l1.6 5c.8 2.7 1.9 5.8 2.4 6.8m-23.2.9c-.1 5.7-.2 5.9-.9 2.5s-.3-8.7.6-8.7c.2 0 .3 2.8.3 6.2m15.8-3q-.5 1-.5-1.2c0-2.2.2-1.9.5-1.3.2.7.2 1.9 0 2.5m1 4.8c.1 1.1-.2 2.2-.8 2.5-.5.4-.9-.5-.9-1.9 0-3 1.5-3.5 1.7-.6m-53.1 12.2c-.4 6.8-1.2 15.4-1.7 19.2-1.5 11-.2 30.3 2.5 38.3 3 8.6 4.5 12.1 6.9 15.6 1 1.5 1.7 3.7 1.5 5-.4 2.1-.5 2-3.8-1.4-6.3-6.4-8.5-16-9.6-41.7-.8-18.1 1.6-47.2 3.9-47.2q.9.2.3 12.2m-16.5-6.5c-1 1.7-1 1.6-1.1-.3 0-2.3 1.3-4.1 1.8-2.5.2.6-.1 1.8-.7 2.8m-4.5 21.9c-.4 1.4-.9 2.4-1.2 2.1s-.2-1.7.2-3.1q.6-2.5 1.1-2.2c.3.3.2 1.7-.1 3.2m134.6-1c1.4.9.9 2.2-1.3 2.9-2.8.9-10.5-2.5-8.7-3.7 1.3-.8 8.2-.3 10 .8m-19.5 2.4c3.9.5 8.6 1.8 10.4 2.9l3.3 2-3.3 1.8c-7.2 4-12.5 7.9-17.2 12.6-4.8 4.9-5 4.9-6.9 3.2a15 15 0 0 0-7-2.3c-2.8-.2-5.3-.9-5.6-1.4q-.4-.8 1.2-.6 1.9.2 2.9-2c.5-1.2 1.5-2.2 2.2-2.2 1.9 0 2.7-2.1 1.2-3.1-.8-.5-2.6-.9-4.1-.9s-3-.5-3.3-1c-.4-.6-1.9-.9-3.3-.8-3.9.4-3.5-2.1.7-4.6 7.1-4.1 16.2-5.2 28.8-3.6m40.6 1c2 0 3.7.4 3.7.9s-1.9 2.3-4.2 3.9l-4.2 2.9-1.8-3.6c-2.4-4.6-2.3-5.5.5-4.7 1.2.3 3.9.6 6 .6m20.5 2.4c.7 3.6-.7 6.6-3.2 6.6-3.6 0-5.9-2.6-4.4-5 1.3-2.1 4.7-4 6.3-3.6.6.1 1.2 1.1 1.3 2m15.7-.4q.4.9-.3 1c-.8 0-4.8 5.5-12.8 17.4-2 2.9-2.5 3.1-6.5 2.7-2.4-.3-3.5-.7-2.4-.9q5.9-1.3 5.2-7.4c-.4-2.8-.2-3.5.8-3.1 1.7.6 4.5-4.6 4.5-8.2 0-2.4.3-2.5 5.4-2.5 3 0 5.8.4 6.1 1m-25.5.6c0 .3-.4 1.4-1 2.4q-1 1.8.5 5.4 2.2 5.4 4 2.6c1.1-1.8 2.5-1 2.5 1.4 0 3.4-2.7 5.8-5.4 5q-5-1.3-2.8-4.4c1.4-2.4-.2-3.7-2.4-1.9-1.8 1.5-1 6.8 1.4 8.7 1.4 1.2.3 1.3-7.3.7l-9.2-.9c-.8-.7 8.8-12.7 12.6-15.8 4.2-3.3 7.1-4.7 7.1-3.2m62.2 1.2q1 .9-1.5 4.8a55 55 0 0 0-4 8.8c-2.9 8.4-2.2 8.2-22.1 7.6-9.6-.3-18-1-18.5-1.5q-1-1 5-9.5c3.3-4.7 6.2-9.3 6.6-10.3.5-1.8 1.7-1.9 17-1.4 9.1.2 16.9.9 17.5 1.5m14.4 1.1c.5.5 2.7 1.1 4.9 1.4 11.1 1.6 18.5 3.5 18.5 4.9 0 .5-.7 2.4-1.4 4.3q-1.5 3.6-3.7 3.5c-1.7 0-2 .4-1.5 2.4.5 2.1.3 2.3-1.7 1.9-1.2-.3-3-1.5-3.9-2.7q-1.8-2.3-2.8-.9c-1.4 1.3.1 4.7 2.2 4.9 4.5.4 7.5 3.2 5 4.8-1.4.9-5.2-.6-5.2-2q0-1.2-.9-1.8c-1.5-1-4 .5-3.4 2q.4 1.3-1 1.4-1.3-.2-2.1-1.5c-.8-2.2-3.5-1.8-5.6.7l-1.8 2.3-1.1-2.8c-1.2-3.2-4.1-3.6-4.8-.7-.4 1.5-1.4 2-3.9 2-1.8 0-3.6-.5-3.9-1-1.4-2.2 6.6-21 8.9-21 .7 0 2.7-.7 4.2-1.5 3.4-1.7 3.7-1.8 5-.6m-154.3 7c1.3 1.3-.2 3.6-3.3 4.8-2.9 1.1-3 1-3.8-2q-.9-3.2.2-4c1.2-.8 5.6 0 6.9 1.2m39.2-.8c.4.5-.1 1.9-1.1 3.1-1.8 1.9-1.8 2 .1 3.4 1.7 1.3 1.4 1.4-3.1 1.3-2.7-.1-6-.4-7.4-.8-2.4-.7-2.3-.8 2.4-4.4q7.3-5.6 9.1-2.6m143.7 2.1q-1.1 1-1.2.2 0-1 .7-1.7t1.2-.2q.3.6-.7 1.7m21.9-1.2q5 0 4.9 1.3c-.1 1.3-1.2 1.4-3.2 1.4-3.1 0-10.7.9-15.4 1.9-1.3.2-3 2-4.2 4.2q-3.4 7 2.3 9.2c2.9 1.1 3.4 3 .7 3-1 0-3.1-2.1-5-5-1.8-2.8-3.7-5-4.1-5-1.6 0-2 5.5-.5 6.3 1.6.9 1.9 3.7.5 3.7-.5 0-2.1-.4-3.5-1-3.4-1.2-3.3-3.7.2-10 2-3.8 3.2-4.9 4.5-4.6q1.8.3 4-2c1.6-1.9 2.7-2.3 4.9-1.9 2.2.5 2.8.3 2.8-1s.6-1.6 3.1-1.1c1.7.3 5.3.6 8 .6m-146.9 2.2q-1.1 1-1.2.2 0-1 .7-1.7t1.2-.2q.2.6-.7 1.7m-69.2 1.4 1 2.9c0 .7-8.1 1.7-8.7 1.1-.7-.7 4.6-6.6 5.9-6.6.5 0 1.3 1.2 1.8 2.6m57.8-1.4c2.2 2.2.9 5.8-2.2 5.8l-.3-3.5q-.3-5.4 2.5-2.3m7.2 4.8q0 .9-1 1a1 1 0 0 1-1-1q.1-1 1-1t1 1m155.5 0q.4.9-1 1c-1.4.1-1.3-.5-1-1q.6-1 1-1t1 1M324 623.7c1.9.4 5.8.7 8.5.7 7 .1 7.1 2.4.8 10.2a95 95 0 0 0-6.6 8.7q-1.8 2.9-3.7 2.2c-2-.6-3.7 1-2 2q.9.6 1 1.7 0 1-6.2.2c-5.7-.6-11.1-.7-14.1-.1q-1 0-1.2-1.8t-1.5-2c-1.4-.2-1.4.8-1.4 1.7q.3 1.9-2.2 1.8c-3.2 0-3-1.6.6-7.3l5.1-8.9c1.2-2.3 3.3-5.7 4.8-7.5 2.5-3.3 2.7-3.3 8.6-2.8 3.3.3 7.6.9 9.5 1.2m-26.8 1.4c1.9 1 2.5 5.4.8 6.4-.6.4-2 2.5-3.1 4.7-2 3.9-2.1 4-3.8 2.2-1.2-1.4-1.6-3.1-1.3-6.3.4-4 .1-4.8-2.4-6.9l-2.9-2.4 5.4.7c3 .3 6.3 1.1 7.3 1.6m-102.1 4c1 5.6 4.7 13 9.3 18.4 5.7 6.7 5.8 7 4.5 9.8-.9 2-.6 3 2.1 7 3.5 5.2 3.3 6.8-.8 6.5-6.1-.5-19-11.5-17.6-15.1.3-.9-.6-2.4-2.3-3.6-2.6-2.1-2.7-2.6-2.5-9.4.4-10.6 2.9-18.3 5.6-17.4.6.2 1.4 1.9 1.7 3.8m71.9-2.6c-.7.8-1.8 1.5-2.4 1.5-.7 0-2.5 1.3-4 2.9-3.5 3.7-3 6.8 1.7 10.4 2.4 1.8 4.9 2.7 8.6 2.9 2.8.2 5 .7 4.9 1.3-.4 1.4-11.6 1.1-13-.3-2-2-8.3-1.4-10.3.8q-4.2 4.8 0-4.5c4.8-10.3 8.3-15.3 11.3-15.8l3.6-.6q.7.1-.4 1.4m99.5.8q5.2.2 5.3 1.8c.2.9-1.9 5.2-4.5 9.5a81 81 0 0 0-5.9 10.9c-1.3 4.1-4.9 4.6-5.8.9-.4-1.4-.6-2.7-.4-2.8 7.1-4.4 7.9-6.5 5-12.3a22 22 0 0 0-3.5-5.1c-2-1.7-9.5-.8-12.7 1.7q-6.5 4.6-3.1-1.2c3.4-5.8 5.2-4.6 14.1-4zm45.3 2.9c1.8 1.5 1.5 6.1-.9 12.6l-3.4 9.2c-1.5 4.1-4.6 5.5-4.3 1.9q.3-2.3-1.6-2.7c-1.6-.3-1.8 0-1.2 2.5l.6 2.8-1.6-2.3c-2-2.7-3.2-2.8-5-.5-1.2 1.6-1.4 1.4-1.1-1.6.3-4.6-1.8-5-3.8-.7q-2.7 5.6-3.8 2.3c-.6-1.7.3-6.6 1.4-7.3 1.5-.9 1-3.4-.6-3.4-.9 0-2.1 1.2-2.7 2.7-1 2.7-1.2 3.6-1.6 7.5q-.3 1.7-2.2 1.8-1.8 0-1.4-1.4c.7-1.7-1.2-3-3.3-2.2-1.2.5-1.3.9-.3 2.1 1.4 1.6 1 1.8-3.5 1.5-9.2-.5-9-1.8 4-23.6l1.9-3.1 16.5.4c9.2.3 17.2.9 17.9 1.5m84.6 3.9c-.6 1.1-3.8 1.2-4.7.2-.4-.3.1-1.5 1-2.5 1.6-1.8 1.8-1.8 3-.2.7.9 1 2.1.7 2.5m-58.5-.6c19.2.3 20.1.8 15.3 8.3-1.3 2.1-1.6 2.1-3.2.7a6 6 0 0 0-3.3-1.5c-.9 0-2.8-1.1-4.3-2.5q-5-4.8-12.9 0-8.3 4.8-7 10.7.8 3.3-.5 2.3-1.2-.6-.5-6.1c.5-4.5.4-5.5-1-6q-3.5-1.5-3.5 7c0 3.5-.5 5.3-1.7 6.2-2.4 1.7-.7 4.6 3.5 5.9 4.3 1.2 4.1 2.5-.4 2.5-7.8 0-8.9-2.7-5-12.7 1.3-3.4 2.7-8.1 3.1-10.5.9-5.4 1.3-6.1 3.4-5.3.9.4 9 .8 18 1m-88.9-.1q0 .5-1 1.1-.9.4-1-.4.1-1 1-1.1 1 0 1 .4m141.8 4.2c2.8.3 5.2 1 5.2 1.7s-1.5 5.6-3.4 11.1-3.7 11.4-4.1 12.9c-.5 2.6-.8 2.7-4.3 2.1-2-.4-4.2-1.1-4.9-1.6s-2.2-.6-3.5-.2c-3 1-22.1.4-22.9-.7A68 68 0 0 1 458 641l2.2-4.5 12.6.3c7 .1 15.1.5 18 .8M338.7 646c1.4 1.1 3.4 2 4.4 2q1.8 0 1.9 2 0 1.9 1.8 2.1c2.7.2-3.9 1.6-8 1.8-2.1 0-3.8-.4-3.8-1s1-1 2.3-.9c5.6.5 6.6-1.4 1.7-3.1-1.6-.6-3-1.7-3-2.5s-.9-1.4-2-1.4q-2 0-2 1.9c0 1-.7 2.4-1.5 3.1s-1.5 1.9-1.5 2.6c0 1.4-2.1 1.9-3.2.8-.3-.3 1.2-3.5 3.4-7.2 6-10 6.2-10.2 6.6-5.9a7 7 0 0 0 2.9 5.7m-272.9-6.5c-1 1.1-4.8 1.4-5.3.4-.4-.5.8-.9 2.6-.9s3 .2 2.7.5m109.7 8c0 7.8.1 8.2 4.3 14.3 2.4 3.5 4.1 6.6 3.8 6.9s-2.6.6-5.2.7c-2.8 0-4.9.6-5.2 1.3q-.2 1.2 1.7 1.3c1.9.1 2.1.5 2.1 1.1q0 1.1-5.4.5c-3.3-.5-5.7-.3-6 .3-1.1 1.8 1.1 2.1 16.4 2.6 8.4.3 15.8.9 16.6 1.3 1.5.8.7.9-30.6 1.7l-25.8.9c-4.3.3-5.4.1-6.3-1.5s-2.2-1.9-12.4-1.9c-6.2 0-11.6.4-11.9.8-.7 1.2.7 2.9 2.9 3.4 3.3.7-12.4.8-21 .2q-8-.7-6-1.4a22 22 0 0 1 6.7-.3c5.5.7 8.7-.2 7-1.9-1.2-1.2-2.6-1.4-15.5-2.4-9.7-.7-16 .1-15.4 1.9.2.7 3 1.3 7 1.5 7.6.3 9.3 2.1 2 2-2.7-.1-8.5.2-13 .7-7.9.7-8.2.6-8-1.4q.2-2 1.3-2.1c.6 0 1.7-.7 2.4-1.5 1-1.2.5-1.6-3.4-2.6-2.5-.6-4.4-1.6-4.3-2.1q0-1-.8-1.4c-1.3-.5-3.9 5.2-3 6.6q.5 1-4.4 1c-5.4 0-5.9-.5-3.6-3.6.8-1 1.5-2.8 1.5-3.9s.6-3.1 1.3-4.6a8 8 0 0 0 1.2-4c-.2-.8.7-3.5 1.9-6 1.9-4 2.4-4.4 5.6-4.4 2.8 0 3.5-.4 3.5-2s.6-2 3.3-1.7q3.3.3 3.2-1.3 0-1.3-1.2-1.5c-3.2 0 1-1.5 5.5-2 4.2-.4 5.1-.8 4.9-2.2s3.5-1.6 51-1.5l51.3.2zm264.3-7.3q1.1 1.3 1.2 2.5c0 1.1-.6 1-2.9-.2q-5-2.5-9.5 2c-2 2.1-3.4 1.2-1.6-1 3.1-3.8 10.4-5.7 12.8-3.3m7.3 4.1c-.1 1.2-1.5.9-1.9-.4q-.4-1 .8-.8 1 .5 1.1 1.2m-159.6 3.8c-1.7 3.2-3.8 3.4-4.3.6q-.2-1.7 2-2.6c3.7-1.5 3.9-1.3 2.3 2m-69.2 11.1c1.8 2.6 3.9 5 4.8 5.3 2.3.8 6.2 5.2 5.6 6.2-.4.5-2.4.7-4.5.4-3.1-.5-4.8-1.6-7.6-4.9-2-2.4-3.6-5.4-3.6-6.7l-.5-7.1-.5-4.9 1.6 3.5c.8 1.9 3 5.6 4.7 8.2m-174.2-7.9q-1.5 1.4-.5-.6.6-1.6 1.2-1.2.4.6-.7 1.8m216.5-.1c-.1 1.9-1.1 2.5-6.6 4l-6.7 1.8c-.7.1-.2-3.7.7-5q1-1.6 2-.4c.9.9 2.1.7 4.8-.7 4.9-2.4 5.9-2.3 5.8.3m22.1.2c1.7 1.8 1.7 1.8-.7 1.2-1.4-.3-5.6-.6-9.5-.6-5.8-.1-6.7-.3-5.4-1.3 2.7-2 13.5-1.5 15.6.7m166.8 4.1a59 59 0 0 1-2.1 6.6c-.9 1.6-8.4 1.1-8.4-.5 0-.8-.3-2.1-.6-2.9-.8-2.1 2.7-2.7 4.8-.9 1.9 1.6 4.2.7 3.4-1.5-.5-1.2 3.3-7.8 4.1-7 .1.2-.4 3-1.2 6.2m45.9 3.7c-1.6 3.6-1.6 3.9.1 5.8 1.4 1.6 1.6 2.3.7 3.2s-1.5.9-2.6-.2c-1.6-1.7-.7-11.3 1.6-16.6l1.2-2.9.4 3.4c.2 1.9-.4 5.2-1.4 7.3m-178.1-5.8c6.7 1 6.9 1.5 2.9 9.5a189 189 0 0 0-11.3 24.9c-.7 2.3-1.7 4.7-2.4 5.2-1.9 1.6-7-.4-7.3-2.8-.3-1.9.1-2.2 3.1-2.2q3.5 0 4.1-1.6c.9-2.2-1.1-4.4-4-4.4-1.9 0-2.4-.5-2.4-2.3 0-2 .5-2.4 3-2.5 3.8-.1 11.8-5.6 12.6-8.6.3-1.3.4-4 .2-6.1-.3-3.7-.6-4-6.2-6.2-5-2-6.3-2.2-9.2-1.3-1.9.7-4.2 2.3-5.1 3.6s-2.1 2.4-2.8 2.4-2.7 1.6-4.4 3.5c-2.5 2.8-3 4.2-2.5 6.3a9 9 0 0 0 6.8 7q2.9 1 3.4 2.6 1 4.6-5.6 1.9c-4-1.5-4.4-1.5-5.9 0-2.5 2.4-.1 4.5 5.5 4.9 4.3.3 4.7.5 5 3l.3 2.8h-20.3l.7-3.8c1.1-6 8.5-27.3 11.1-31.9q2.4-4 4.7-4.5c3.9-.6 20-.2 26 .6m110.1 1.1q2.4 1.7.4 1.5c-.8 0-2.1-.7-2.8-1.5-1.6-1.9-.1-1.9 2.4 0m-146 2.6q.8.8-.1 2.1a65 65 0 0 0-5.3 16.7c0 1.1-.4 2.2-.9 2.5s-1.1 2.4-1.5 4.7c-1 6.2-2.1 7.7-5.1 7.2-2.6-.6-3-1.8-2.6-7.9q.4-6.8-5-1.5c-1.7 1.7-3.9 3.1-4.9 3.1-2.3 0-3.3 2.5-1.5 4 1.1.9 1.7.7 2.7-.9.7-1.2 2.1-2.1 3.1-2.1q1.7 0 1.1 1.2c-.4.6.1 1.7 1 2.4 1.6 1.1 1.6 1.3-.1 1.8l-5.6 1.2c-3.2.5-3.6.4-3.1-1 .7-1.8-2-2.3-3.1-.6-1.2 1.9-2.2 1-1.7-1.5q.5-2.6-1.1-2.5c-2.1 0-3.2 1.9-1.9 3.2 1.5 1.5.2 4.8-1.9 4.8q-1.8.1-2.5 1.5c-.7 1.7-3.4 2.1-3.4.4 0-2 2.1-15.4 3.7-23.8 1.4-7.4 1.9-8.5 4.7-10.2 8-5 31.4-8.2 35-4.8m75.1-.1c1 1.7-.5 3.3-2 2q-2-1.9-7.7 2.4c-3 2.1-3.7 4.6-1.3 4.6q1.4.1 1.5 1.6c0 1.2.7 1.4 3 .9 3.7-.8 3.8.4 1.1 6.8-1.6 3.6-2.4 4.4-3.9 4-1.1-.2-2.3 0-2.6.6q-.8 1-2.8 1.1-2.2-.1-1.5 2.1 1.2 4.4-3 6c-3.3 1.2-7 .2-7.6-2.2-.7-2.5-3.7-2.5-3.7 0 0 1.5-1 2-4.7 2.6-2.7.4-5.6 1.1-6.5 1.6-2.6 1.4-3.2-.7-1.4-4.7l3-6.7 5.9-12.9 4.5-9.7 6.9-.3c18.3-.8 22.2-.8 22.8.2m29 1.9c17 .5 19 .8 19.3 2.3q.3 1.8-2.4 2.8c-2.4 1-2.5 1.2-1.1 2.8s1.4 2.3.1 7.2c-.8 3-1.7 8.1-2.1 11.2-.4 4.2-1 5.8-2.1 5.8s-1.2-.3-.3-1.4c1.5-1.8.4-8.6-1.4-8.6q-1.2.1-1.8 2.1c-.4 1.6-1.2 2-3.3 1.7-4.5-.5-3.8-2.3 1.6-3.7 8-2.1 10.2-8.3 5.4-15.3-3.2-4.5-5.1-5.2-10.4-3.8a21 21 0 0 1-5.3.9c-4.9-.6-7.3.3-9.6 3.6l-2.3 3.5 2 4c1.8 3.6 1.8 4.1.4 3.8-1-.2-2.3-1.7-3.1-3.5-2.6-5.8-7.6-5.2-5.4.6 1 2.6.8 3.1-1.8 5-5.2 3.9-2.3 8 3.3 4.8 2.8-1.6 2.8-1.6 2.8 1.3 0 3.6 3.2 5 5.9 2.6 1.6-1.5 1.9-1.5 3.1-.1.7.8 2.2 1.6 3.4 1.6q1.5.2-1.9.9c-4.6.9-20.7.6-24.7-.5-2.6-.7-2.6-.7-1.2-4.7a24 24 0 0 0 1.4-6.1c0-2.7 5-17.6 6.8-20.5 1.2-1.8 2-2.2 3.6-1.6 1.2.4 10.6 1 21.1 1.3m-79 .1q.6 1-2.9.8c-1.9-.1-3.2-.6-3-1 .7-1.2 5.2-1 5.9.2m5.4 3.6q.6 2.4-1.3.5c-1.9-1.6-2.1-3.4-.3-2.9q1.1.6 1.6 2.4m123.6-1.6q.4 1-2.4 1c-1.6 0-3.3-.5-3.6-1q-.4-1 2.4-1c1.6 0 3.3.4 3.6 1m-80.5 2.5q0 1.5-3.2 1.5c-3.1-.1-3.2-.1-1.4-1.5 2.5-1.9 4.6-1.9 4.6 0m67.5 1.5c5.5.5 13.1.9 16.8 1 4.8 0 6.9.4 7.3 1.4.5 1.2-1.2 7.7-3.7 14.6a35 35 0 0 0-.9 15.5c1.1 2.8 2.4 3.1 23.2 4.6 12.1.9 16.9 1.6 17.2 2.6.3.7-.1 4.6-.9 8.6a179 179 0 0 0-2 13.9l-.6 6.7-5.2-.6c-2.9-.3-5.3-.7-5.5-.8s.9-1.5 2.3-3.1c1.4-1.5 2.3-3.4 2-4.2a3 3 0 0 1 .5-2.7q1.2-1.3 0-2-2.8-1.5-2.6 4c.2 1.9-.1 3.5-.7 3.5s-3.4 1.1-6.4 2.6c-4.3 2-6.7 2.5-12.1 2.3-3.7-.1-7.8-.6-9-1.1-2.3-.8-2.4-1.1-1.8-8.9.3-4.4 1-8.8 1.6-9.9 1.5-2.9 1.3-11-.4-11.6q-1.3-.6-1.9-2.5-.5-2-3.4-1.9l-15.8-.6c-16.2-.6-17.3-1.2-17-8.6a65 65 0 0 1 5-22.1q.5-3.1 2.3-2.2c.9.3 6.2 1 11.7 1.5M7 666q0 .9-.9 1-1-.1-1.6-1-.4-1 .9-1 1.5 0 1.6 1m228.9 1.6c1.1 1.5 1.8 3 1.5 3.5-.5.9-7.4-4-7.4-5.4 0-1.7 4-.5 5.9 1.9m158.2-.5c1 2 .9 2.1-1.2 1.6-1.3-.4-3.5-.7-4.8-.7-2 0-2.1-.2-1.1-1.5 1.8-2.2 5.7-1.9 7.1.6m66.7-.1c4.2 0 4.1 1.6-.3 3-3.4 1.1-6.1 4.1-4.8 5.4.3.3.1 2.3-.6 4.4-1.1 3.3-1.1 4.3.3 7.1s1.5 3.3.1 4.7c-.8.8-1.6 1.2-1.6.7l-.3-2.3c-.2-2.1-3.6-2.6-3.6-.5 0 2-3.6 6.9-4.3 5.8-.8-1.4 1-12.7 2.6-16.5q1.6-3.9 3-3.2c2.2.8 3.3-1.7 1.3-2.8s-2.2-5.4-.3-6.2c.6-.3 2.1-.3 3.2-.1 1.1.3 3.5.5 5.3.5m25.6 1.6c2 .8 2.1-.4-.9 18.9-.8 5.5-1.8 10.8-2.1 11.7-.6 2-3.3 2.2-9.9.9l-4-.8 2.8-1.1a15 15 0 0 1 5-1.2c2 0 4.7-3.6 4.7-6.2 0-1.7-3.2-.7-3.7 1.2q-.6 1.8-1.9 2-3.5 0 2.1-5.6c3.1-3.1 3.5-4 3.5-8.7 0-2.9-.4-5.7-.8-6.3-1.3-2-5.2-3.5-7.4-2.9-2.3.8-7-1.3-6.2-2.7.7-1 15.7-.4 18.8.8M6.5 672q.4.9-1 1c-1.4.1-1.3-.5-1-1q.6-1 1-1t1 1m182 0q.4.9-1.5 1c-1.9.1-1.8-.5-1.5-1q.6-1 1.5-1 1.2 0 1.5 1m277.3.7c-.4 1.9-5.3 4.1-6.5 2.9-1-.9 3.3-4.6 5.4-4.6q1.3.1 1.1 1.7m28.2-.7q1.3.9.7 1.6-.5.7.4 2.1 1.4 1.4-.6 1.3-1.5.2-1.2 1.2.4 1.2 1.8 1.1c1.1-.2 1.4 1 1.4 4.7q0 5.3-1.2 4.5-1.2-.2-1.3.4.1.9 1.6 1.5c1.5.6 1.5.8-.1 2.6-1.8 2-1.8 2.1 0 3.4 3.2 2.3 1.2 4.8-3.7 4.4-4.7-.3-4.8-.7-3.5-9.3l1.1-10.5c1.1-10.6 1.3-11.1 4.6-9m-313 1q0 .9-.4 1-.6-.1-1.1-1-.4-1 .4-1 1 0 1.1 1m292 2q0 .9-.4 1-.5-.1-1.1-1-.4-1 .4-1 1 0 1.1 1m-236.5 1.9c1.6 2.7-6.3 3.8-17.2 2.5-5.7-.7-7-2-2.5-2.7 5.5-.8 19.1-.7 19.7.2m-232.8.7c-.3.3-1.2.4-1.9.1q-1.1-.5.6-.6t1.3.5M379 680q.1 2 2.5 3.2 3.9 1.8 1.6 3.2c-1.7 1.1-4-.6-6-4.5-2.1-3.9-2.1-3.9-.1-3.9q2 0 2 2m-259 .4q0 .5-1 1.1-.9.4-1-.4.1-1 1-1.1 1 0 1 .4m43 2.6c0 .6-2.3.9-5.2.8l-5.3-.1 4.5-.7 5.3-.8q.6-.1.7.8m5-.6q0 .5-1 1.1-.9.4-1-.4.1-1 1-1.1 1 0 1 .4m8.3.3c-.7.2-2.1.2-3 0q-1.3-.5 1.2-.5 2.6 0 1.8.5m46.5.3c7.5.2 10.1.5 9.3 1.3-2.2 2.2-44.1.9-44.1-1.3 0-.7 6.9-.7 34.8 0m-74.5 1.1c-1.9.6-4 .5-5.5 0-1.8-.8-1.2-1 3.2-.9 5 0 5.2.1 2.3.9m-75.3 1c0 .5-1.7.9-3.7.9q-3.7 0-2.4-.9c1.7-1.1 6.1-1.1 6.1 0m15.5-.1q3.4.7-5.3.9-8.1 0-7.7-.9c.7-1.1 8.5-1.1 13 0m49.2-.4q-.7.5-1.9.1t.6-.6q1.8 0 1.3.5m210.6 1.4c-.6 2.3-2.3 2.6-4.1.8q-2.9-2.8 1.7-2.8c2.4 0 2.8.3 2.4 2m-309.9-.2c1.9 1-2.4 1.7-8.1 1.3-4.5-.3-5.3-.6-3.3-1.2 2.8-.8 10-.9 11.4-.1m4.1.2q.4.9-.9 1-1.5-.1-1.6-1 0-1 .9-1t1.6 1m20.8-.3c-1.3.2-3.5.2-5 0-1.6-.2-.5-.4 2.2-.4q4.4 0 2.8.4m-11.6.9c-.3.3-1.2.4-1.9.1q-1.1-.5.6-.6t1.3.5m112.8 3.3c-.8 3.6.9 7.3 3 6.5.8-.4 1.5-1.8 1.6-3.3q-.2-3.5.9-.5a8 8 0 0 0 1.8 2.8c1.7 1 3.5-2.3 2.8-5.4-.5-2.5-.2-3 1.4-3q2.3-.2 1.5 2.3-.5 2.3 1 3.7c1.5 1.2 1.9 1.2 3.1-.5s1.2-2.1-.2-3.7c-1.6-1.6-1.5-1.7 1.8-1.6 2.9.1 3.7.6 4.6 3 1.3 3.6 4.8 3.6 4.5 0q-.2-2.2 1.3-2.2 1.8-.1 1 2.2c-.3 1.3-.6 3.1-.6 4q0 1.7-1.4 1.2c-1.9-.7-3 1.4-2.8 4.9l.2 2.8-12.4-.2c-12.2-.2-12.5-.2-13-2.5q-.7-2.4-2.8-2.4c-1.1 0-2.6-.6-3.2-1.4s-2.7-1.6-4.6-1.8c-3.5-.3-3.5-.3-3.8 3.9-.4 4.9-2.7 5.9-5 2.2l-1.3-2.1-2.2 2c-1.8 1.7-2.4 1.8-3.4.7-1.8-1.9-.5-7.2 1.8-7.8q1.8-.6 1.9-2.7v-2.2l1.9 2.3c1.5 1.9 2.1 2.1 3.4 1.1.8-.7 2.1-1 3-.6 1.3.5 2.9-.9 3.3-2.9l.3-1.2c0-.3 2.6-.5 5.7-.5h5.6zm5.5-2.5q0 .5-1 1.1-.9.4-1-.4.1-1 1-1.1 1 0 1 .4m-36.2 1.2c1.8.3 3.2 1.1 3.2 1.9q0 1.2-2.1.8c-1.9-.5-2.1-.3-1.7 2.6.3 1.7.1 3.4-.4 3.7q-.7.3-.8-1.8c0-1.4-.6-3.3-1.4-4.4-1.2-1.5-1.7-1.7-2.7-.7q-1.4 1.4-.2 2.4c.7.7.9 2.7.6 4.8-.8 5-2.3 6.3-2.3 1.9 0-3.7-2.1-6.5-4-5.3q-1 .8-.9 1.8v3.7c-.2 2.5-.2 2.5-1.1.2-.9-2.1-3-2.9-4.3-1.5-.4.3-2.2.8-4.1 1s-4.6 1-6.1 1.7c-3.7 1.9-5.8 1.4-7.3-1.7-1.6-3.2-3.2-3.5-3.9-.7-.8 3-2.4 2.4-2.1-.9.3-3.5-1.9-6.6-3.7-5.1-.6.5-1.5.6-1.9.2s-2-.8-3.4-.8l-5.9-.7c-2.8-.5-3.3-.3-3.3 1.3 0 1 .7 2.3 1.6 2.8 1.8 1 1.6 5.3-.2 5.9q-1.1.3-.6-2.3.5-2.8-.7-2c-1.3.9-5.1-.2-5.1-1.4q.1-.7 1.8-.6 1.8.3 1.4-2.5l-.2-2.7 9.2-.4c8.8-.4 9.4-.3 11.3 1.9a7 7 0 0 0 4.8 2.3q2.5 0 2.7 1.4c0 2.5 2.9 2.6 4.5.2 1.4-2.1 2-2.3 5.2-1.5 2 .4 4.2.5 4.7.1.6-.3 1.7-.7 2.5-.7s1.9-.9 2.5-2 1.5-2.3 1.9-2.6c1-.7 8.1-.9 12.5-.3m-66.4 1c1.6.6 2.2 3.5 1 4.7q-.8.5-2.5-.3c-2.2-1.2-3-.1-3.1 4.3q-.2 2.8-.5 1.9-.5-1-1.3-.7c-.9.6-2.1-7.2-1.3-9.1.5-1.4 4.9-1.9 7.7-.8m38.6.4q0 .9-.4 1-.6-.1-1.1-1-.4-1 .4-1 1 0 1.1 1m128.1-.4c.4.2.5 1.3.2 2.4q-.6 1.8-1.4 1.4t-.4-1.4q.4-.8-.4-1.5c-1.3-.8-4.2 3.7-4.4 6.9-.3 4.4-2.2 3.4-2.7-1.4q-.5-4.6-2-4.5c-1.5.1-1.7 1.4-2.1 4.5l-.5 4.5-.9-4.3c-.7-3.9-1-4.2-4.1-4.2q-5.5 0-3.8 6.4.6 2.5-.5 2.6h-1.8c-.4 0-.6-1.7-.4-3.8.2-3.9-1.8-7-3.7-5.8q-1 .4-2.1-.8c-1-1.1 1.4-1.4 14.6-1.4 8.6-.1 16 .1 16.4.4M32 693.2q.2.9 1.9.5c2.3-.6 3.8 2 2.1 3.7-.5.5-1 2-1 3.3 0 2.8-2.6 4.1-4.3 2.3q-1.4-1.4.1-1.7 1-.6 1.2-2c0-1.4-.3-1.3-2.1.3-1.2 1-2.9 1.8-3.9 1.6s-2.3.4-3 1.3q-2.9 3.3-3-.8c.1-2.8 2.2-5.7 4.3-5.7.8 0 2-1.4 2.6-3.1.9-2.6 1.3-2.9 3.1-1.9 1.1.6 2 1.6 2 2.2m17.7-1.5c.4 1 1.4 2.3 2.2 3q1.7 1.3.3 1.3c-.7 0-2 1.6-2.9 3.5-1.9 4-4.6 4.8-3.9 1.2q.4-2.4-1.6-3.6c-1.7-1-2-.9-2.5.9q-.5 2.2-1.8 1c-1.7-1.4 1.3-7.9 3.8-8 1.5 0 1.6.3.7 2q-1 2 0 2 .9-.1 1-1.3c0-1.5 2-3.7 3.2-3.7q.9.2 1.5 1.7M390 691q-.2 1-2.7.4-6-1.5-.5-1.4c1.8 0 3.2.5 3.2 1m75.3 1.7c1.8 1 4.3 1.8 5.7 1.8s2.6.4 2.7 1c.4 1.7-7.3.9-10-1.1-2.4-1.8-3.5-3.4-2.2-3.4.4 0 2 .8 3.8 1.7m-116.6 1c.4.9-.2 6.5-1.2 12.3l-2.9 18c-.9 6-1.5 7.5-3 7.8-3.1.6-3.8-1.2-1.6-4.1 3.8-4.8-1.2-6.8-5.4-2.2-2.9 3.1-3.3 3.1-5.6.3q-3.5-4 2.1-3.8c4 0 11.6-7 12.5-11.5.9-4.9-.2-7.1-4.4-8.8-2.1-.9-4.4-2.2-5.1-3.1-1.5-1.8-4.7-2.1-5.6-.6-.4.6-2.4 1.9-4.6 3s-3.9 2.5-3.9 3.1-1.4 2.8-3.2 5c-2.8 3.5-3 4.2-1.9 6.5.6 1.5 2.8 3.3 5.1 4.2 3.6 1.5 5.5 4.2 3 4.2q-.9 0-1-.9c0-1.6-9.9-.6-11.7 1.1s-.9 4.2 1.2 3.4c1.5-.5 5.5 2 5.5 3.6 0 1.4-7.6.4-9.6-1.3-1.7-1.4-1.6-5.5.7-22.4 1.8-13.4.9-12.1 9.6-13.7 4.3-.8 12.9-1.5 19.1-1.6 9.8-.2 11.4 0 11.9 1.5m-149 2.5q-.5 1-.5-1.2c0-2.2.2-1.9.5-1.3.2.7.2 1.9 0 2.5m-117.8 5.2q-.9.8-.8-3.5l.1-4.4.8 3.5c.5 2 .5 3.9-.1 4.4m188.8-3.4c.3 5.8-.4 6.6-3.2 4-1.9-1.7-3.9-2.4-8.8-2.7-6.2-.4-6.3-.4-11.9 4.1-4.8 4-5.5 5-5 7.4.2 1.5.9 3.2 1.4 3.9s1.1 2.4 1.4 3.9q1 5.3 4.1 5.4 1.3.1.7 1.1-.8 1-4 .4c-6-1.1-10 2.9-6.3 6.4l2 1.8-2.1.6q-2 .4-2.7-.9c-.3-.7-.3-7.4-.1-14.8.3-11.7.6-13.7 2.3-15.6 2.5-2.9 8.6-5.6 14.5-6.5 2.5-.4 5.2-1.1 6-1.6s3.8-.8 6.5-.6c5 .2 5 .2 5.2 3.7m124.4-2.3c.5.5.2 6.2-.6 12.8s-1.5 14.1-1.5 16.7-.3 4.9-.7 5.1c-.5.3-4.1.7-8.2.8-5.9.3-7.5.1-7.8-1.1-1.2-4.2-1.3-4.3-2.8-3-.8.7-1.5 2-1.5 2.9 0 1.4-1.5 1.7-9.2 1.9a88 88 0 0 1-12-.4c-2.6-.5-2.8-.9-2.8-5.2 0-3.8 4-26.6 5.4-30.8.5-1.2 40.5-.9 41.7.3m68.1 3.1c-4.1.4-4.3.2-3.6-2.5l.6-2.1 3.2 2.2 3.3 2.1zM295.9 696c9.6.1 9.7.4 7.7 17.2l-1.6 14.9c0 1.1-13.2 1.7-20.9 1.1q-12.4-1-7.8-5.9c1.3-1.5 1.7-4.4 1.9-14.3l.3-12.5 4.5-.6c2.5-.4 5.8-.5 7.4-.3s5.4.4 8.5.4m107.3 1.1c.5 1.6 8 2.6 21.1 2.8 6.6.1 12.5.5 13.2.7 2.2.9 2.6 5.1 1.1 11.2-.7 3.1-1.4 8-1.5 10.8s-.5 6.4-1 8c-.7 2.5-1.3 2.9-4 2.8-6-.3-6.6-1.1-3.2-4.3 3.2-3 4.1-6.1 1.7-6.1-.7 0-2.1 1.1-3 2.5-1.9 2.9-3.5 3.1-7.6 1-3.7-1.9-3.8-3-.2-4.3 1.5-.5 4.5-2.5 6.5-4.4 3.1-2.9 3.7-4.2 3.7-7.6 0-3.6-.4-4.2-3.7-6.2-2-1.1-4.8-2-6.2-1.9s-3.8-.1-5.4-.6a6 6 0 0 0-5.1.8c-2.1 1.4-2.4 2.4-2.4 7.9s.3 6.7 2.6 9c3.2 3.4 2.1 4.9-1.9 2.5-3.8-2.1-4.9-2.1-4.9 0 0 .9-1 2.7-2.2 4q-2.3 2.4-1.1 3.4c.6.6.9 1.8.6 2.6-1 2.6 1.9 3.3 11.7 3.2 9.8-.2 18.4.7 21 2.2q1.6.8-2.3.9c-3.1 0-3.9.5-4.7 2.5-1.1 3-1.8 3.1-3.6.7-1-1.3-1.5-1.4-2.4-.5q-1.1 1.2-.4 2.5c.5.7.7 2 .6 3-.4 2.1 1.6 3.4 3.1 1.9 2-2 3.8-1.3 3.1 1.3s1.2 4.4 2.8 2.8c.5-.5 1.1-2.9 1.2-5.2q.4-5.8 4-6c.4 0 .5 1.2.2 2.6-.4 1.4-.9 6.5-1.1 11.3a59 59 0 0 1-1.4 11.4c-1.2 3.1-1.1 3-16.1 2.7l-20-.5c-9.3-.1-11.4-1-7.1-3 2.3-1.1 2.6-2.4 1.1-7.4-2.2-7.8 0-20.7 4.2-24.1 1.8-1.4 2.2-2.6 1.9-6.3a127 127 0 0 1 3.5-28.5c1.3-3.2 2.9-4.2 3.6-2.1m53.6.7q.4 1.4-1.4 1-1.5-.4-2.2-1.6-.4-1.4 1.4-1 1.6.3 2.2 1.6M52 701.6q-.1 1.3-1 .9-1-.7-.5-1.6 1.4-2 1.5.7m-45 3.2q.2 2-3 2-2.7 0-2.5-.9.8-.8 2.6-.9c1 0 1.9-.5 1.9-1q0-1 .5-1 .6.1.5 1.8m333.8 2.5c.4 3.1-1.2 3.6-2.8.8q-2.2-4.4.8-3.9 1.6.4 2 3.1m155.9-1.6q.5 1.2-3 .6-3.3-.5-5 1.1c-2.2 2.2-2.7 2-2.7-1 0-2.4.2-2.5 5.2-2.2 2.9.2 5.3.8 5.5 1.5m-83.7.3q-.1.9-1.1 1-.8-.1-.4-1t1.1-1q.3 0 .4 1m11.1 0c2 1.1 2.6 4 .9 4-.6 0-2.5-.7-4.3-1.7-2.9-1.5-3-1.7-1.2-2.4l2.3-.8q.5 0 2.3.9m-255.1.8c0 .4 2.1.7 4.8.6l30.4-.9c25-.6 25.7-.6 26.7 1.4 1.4 2.5 1.5 12.4.1 11.6q-1-.3-1.9 1.8c-.9 2.2-1.5 2.4-9.4 2.5s-8.5.1-9.2-2a9 9 0 0 1-.6-3.1q0-.7-.9-.7c-1.4 0-1.3 2.3.2 3.8q1.3 1.2-.6 1.8-1.8.5-2.7-.7-.9-1.4-.9-.2-.2 1.2-1.5 1.3-1.4 0-1.5-2.5c0-1.4-.5-2.5-1-2.5s-.9 1.2-.8 2.7c.3 2.6.1 2.8-3.7 2.9-5.3.1-6.5-.4-5.9-2.4q.3-1.3-.7.5c-1.4 2.6-5.2 3.3-4.3.8q.7-1.3 1.8-.8.9.4-.2-.8c-1.1-1.2-1.5-1.1-2.7.5q-1.4 1.9-3.5 1.3-1.8-.4-1.4.4c.3.5-.8.9-2.4.9-3.1 0-5.7-2.1-4.4-3.5q.5-.5-1.6.4c-1.2.7-2.8.9-3.4.5q-1-.6-.4.4c.8 1.4 1.4 1.3-8.6 1.8-4.3.2-7.8.1-7.8-.2s.5-1.4 1-2.5q1.3-2-.5-1.9-1.4.1-1.5 1 0 1-2 0-2-1.2-2 0 .1 1 1.5 1.6c1.9.8 1 2.4-1.3 2.4q-2.2.1-.2-1c2-1.1 1.2-1-.2-1q-1.7 0-1.8.9c0 2.9-6.3 1.9-9.8-1.6-2-1.9-3.4-1.6-2.7.7.9 2.8-1.7 3.5-5.7 1.6-2.9-1.5-3.4-1.5-4.4-.1q-1.2 1.4-5.4 1.5c-3.7 0-4.2-.2-3.7-2q.7-2.1-1.5-2c-1.7 0-1.9-.5-1.4-2.8l.6-2.7-1.5 2.7c-1.2 2.2-2.3 2.8-5 2.8q-3.4 0-4.8 2.1-1.5 2.1-2.2.9-.7-1-2.1-.6-1.3.4-1.4-.5-.2-1.2-1.7-.7-1.7.4-1.8 1.5 0 1.1-.7 1.9-.8.6-.8-.4c0-.7-1.3-1.2-2.9-1.2s-3.7-.7-4.5-1.6c-1.5-1.4-1.6-1.4-1.6.5 0 1.1-.5 2.3-1.2 2.7-1 .7-.9-2.5.4-7.5.1-.7-.3-1.6-1-1.8q-1.2-.3-1.8 2.6a6 6 0 0 1-3.7 4.6c-3.7 1.9-3.7 1.9-3.7-.1q.1-1.5 1.4-1.1c.8.3 2.2-.1 3.3-.8q1.5-1.4.7-1.5c-.5 0-1.9-.7-3-1.6q-2.3-1.9-.2-1 1.7.4 2.4-.7.6-1-.1-.5c-.4.4-1.4.3-2.2-.4-1.9-1.5-3-.1-1.6 2.2 1 1.4.9 2.1-.3 3.1s-1.8.8-3-.7q-1.9-2.3-1-.2.4 1.7-.5 2.3-.8.7-.4 1.5t-.5 1.5q-.9.5-1-.4c0-.5-.3-1.7-.7-2.7q-.7-1.8.6-.9 1.4.8.9-.9c-.4-2-2.3-2.2-2.3-.4q-.2 1.2-1.2 1.2l-3.9-.3q-2.6 0-2.1-1.5.6-1.6-1-.9-1.5.5-3.2-1.6c-1.7-2.2-1.7-2.2-3.9-.3-1.2 1.1-2.2 2.5-2.2 3.1q0 1.2-2.2.6-2.3-1-1.5.7c.3.8-.4 2.3-1.5 3.3-2.1 1.7-6.8 2.8-6.8 1.5q-.2-.6-2.5-.2c-2.1.4-2.4.1-1.9-1.4 1.1-3.2 3.4-4.5 5.8-3.2 1.1.6 2.4 1.6 2.8 2.2q.7 1.1 2-.3 1.5-1.5.1-.7c-1.5.8-1.8-1-.3-1.9 2.1-1.3.9-2.6-2.2-2.3-3 .3-3.3.1-3.3-2.5.1-1.5-.3-2.7-.7-2.7q-.6-.1-.2-1.4c.5-1.2 1.1-1.2 4 .5q5.6 3.2 8.3-1.9c.9-1.6 1.1-1.6 2.5.3q1.6 2 1 .4-.5-1.6 1.5-2.2c1.8-.4 2-.1 1.5 1.8-.4 1.8-.1 2.3 2 2.7q2.7.6 2.6-1c0-1.2.2-1.2 1.7-.1q1.5 1.3 1 .2t1.5-2.7c1.8-1.2 6.2-1.5 20.5-1.5 10.1 0 18.5.4 18.8.9.7 1.1 6.8.5 7.2-.7.2-.5 2.2-.7 4.4-.5 2.2.3 4.6-.1 5.2-.7q1-1 2.4 0 1.2 1 1.3.2c0-.6 5.1-1 12.6-1.1 6.9 0 12.7-.2 12.9-.4.8-.8 25.5-.9 25.5 0m325 2.7q-.1 1.3-1.5 1.5c-1.6 0-2-1.2-.8-2.3 1.1-1.2 2.3-.8 2.3.8m-476 2q1.3 1.8 2.6.4 1.5-1.3 1.4.1.1 1.1 1.5.6c.8-.3 2.1.1 2.9.9q1.5 1.7 1.9.2.4-.8.3 2 0 3.3-2.4 4.3c-2.4 1.1-2.5.6-.5-4.6q.1-1.1-2.1-1.6-2.4-.4-2.6.5 0 1-1.2-.1A4 4 0 0 0 17 713q-1.5-.2-1.7-1.5.2-2.9 2.7 0m-5.7 5.2q-1.2.6-1.3 1.9 0 1.3-1.2 1.4-1 0-.5-.7t-.5-2q-1.2-1.5.5-.8c.8.4 1.8.1 2.2-.5q.7-1 1.4-.4.4.7-.6 1.1m258.3 2.6-1.2 8.2-.7 5-.8-4q-.6-4 .4-5.3c1.3-1.6-.6-3.2-3.8-3.2-1.5 0-1.2-.5 1.5-2.4 4.2-2.9 5.2-2.5 4.6 1.7M15.5 719q-.4.9.4 1 1 .2 1.1 1.5 0 1.4 1.5.9 1.4-.5 1.5.5c0 1.6-3.7 1.3-4.4-.4q-.6-1.4-2.1-.8-1.7.6-.5 1.3c1.4.8.4 5-1.1 5-1.9 0-1.3-5.5.9-8.1 1.7-2 3.8-2.7 2.7-.9m31.5 1.7c0 2.2-1.7 5-2.5 4.2-.5-.6 1.4-5.9 2.2-5.9q.2.2.3 1.7m210-.8q-.1.9-1.5 2.1c-1.3 1-1.5.9-1.5-.9q0-2 1.5-2.1 1.4 0 1.5.9m233.5 7.7c5.6 2.1 5.9 3.9.6 3-2.8-.4-4.2-.2-5.1.9q-1.5 1.6.1 1.9l2.9.9q1 .5-2.2.6l-3.8.1v-5.3q.1-8.7 2.2-5.3c.4.8 2.8 2.2 5.3 3.2m-429.5-1q-.2.4-1.5.4c-1.3 0-1.5-.4-1.5-1q.2-.8 1.5-.4 1.3.6 1.5 1m199.5 2.4q.2 1.5-5.5 2.2l-9.5 1.4-4 .6 2.7-2.1a10 10 0 0 1 4.5-2.1c1 0 2.5-.5 3.3-1 2.3-1.5 8.5-.8 8.5 1m68.1 3.8c-3.2.2-6.1.1-6.4-.3-.3-.3.5-1.6 1.7-2.9l2.3-2.5 4.1 2.7 4.1 2.7zm-102.9-4.2q-.7.5-1.9.1t.6-.6q1.8 0 1.3.5m185.3.6c1.7 1.1 2.2 1 2.9-.1.7-1 1.3-1.1 3-.2q5.9 3.1-5.2 3.1c-8 0-9.6-.6-6.9-2.6 2.2-1.7 3.7-1.7 6.2-.2m-230.7.5c-.7.2-1.9.2-2.5 0q-1-.5 1.2-.5c2.2 0 1.9.2 1.3.5M5 732q1.9 1.1-.7 1-2.1-.1-2.3-1 0-2 3 0m44.7-.4c-.3.3-1.2.4-1.9.1q-1.1-.5.6-.6t1.3.5m166.3 6q0 3.3 1 2.9 1-.7.5-1.5c-.3-.5.2-1.8 1.2-3 2.2-2.5 11.7-2.9 12.6-.5.9 2.1-.4 11.7-1.7 13.4q-1.4 1.7.3.7c1.1-.7 1.2.1.6 5l-1 7.4-1 8.2c-.3 3.7-1 6.9-1.3 7.1s-2.2-.2-4.1-.8c-3-1.1-3.1-1.3-1.2-1.8q2-.6 2.1-2.5c.1-1.9.5-2.4 1-2.7 1.4-.8 1.3-7.2-.1-8.1q-1-.5-1.8.5-.7.8-1.9-2.4c-1-2.7-1-3.8 0-5.5 1.1-1.8 1-2.3-.4-3.1q-1.7-1-1.8-2.4 0-1.4-1.2-2.1-1-.7-.6.8c1 2.5-3.8.9-5.3-1.8-.7-1.3-1.6-2.4-2.1-2.4-1.3 0-.9 1.2 1 2.7q2.5 1.8-.3.9c-3.5-.9-6.6 2.4-6.8 7.3q-.2 4.5-2.1 5.5-2 1.2-2.3-.1t-2.9.3c-2.6 1.7-2.6 1.7-3.8-3.6-.5-2.3-6.6-7-6.6-5 0 .5-5.9 1-13 1.2-7.2.2-13-.1-13-.5q0-.8-.9-.2c-1.1.6-2.6-3.3-1.7-4.3.3-.3 1.3.3 2 1.4 1.4 1.9 1.4 1.9 1.3-.1q-.2-2 1.8-2c1.1.1 2.6-.6 3.3-1.5q1.7-2 .8.3c-.9 2.3 0 1.8 4.6 1.5 4.1-.2 5.4-.7 5.6-2.1.4-2.2-1.6-2.2-4 0q-1.7 1.4-1.8.5-.2-1-1.5-.6t-1.5-.4q.1-.9 1.5-1.6 1.3-.6 1.5-1.6 0-1-2 .2c-3.2 2-4.7-.5-1.6-2.6 1.5-.9 2.6-2.3 2.6-3.1q.1-1.4 2.3-1.5 2.6-.1.7 1t.3 1q1.5-.1 1.7-1c0-.6 1.2-.9 2.8-.9q3.3.2.5.6c-1.2.2-2.4 1.1-2.7 2q-.9 1.8.8.4c.7-.6 2.1-.9 3-.5q1.6.5 2.2-1c.7-1.9 3.5-2.1 5.3-.4q1.2 1 .8.3c-.6-1.2 13.7-1.4 14.9-.3.4.4 1.4.3 2.1-.4 1.1-.9 1.9-.9 3.3 0q1.8 1 2.5.2.7-1 1.5-.5t1.5-.5c1.2-1.9 2.5.1 2.5 3.6m48.5-2.3c1.2 1.9 1.4 5 1 17.2-.3 8.2-.8 15.2-1.2 15.6-.5.4-5.1 1.2-10.3 1.9l-14.8 1.9c-2.9.4-5.5.4-5.7 0s0-6.5.6-13.6c1-10.8 1.6-13.5 3.8-17.1 1.4-2.3 3.5-4.4 4.6-4.7l8-1.8c9.1-2.3 12.2-2.1 14 .6m39.8 3.7c.9 6.7.5 9.6-1 6-.6-1.4-2.4-3.7-3.9-5.2-3.8-3.5-12.7-4.8-17.2-2.4-3.9 2-7.4 6.5-6.9 8.8.3 1 .1 2.1-.4 2.4-1 .6-1.3-13.9-.2-15 .4-.3 7-.5 14.7-.4l14.1.3zm-165.7-2.3c-1 1-1.9-.5-1-1.8q.8-1.6 1.2 0 .3 1.2-.2 1.8m9.2-1.7q1.1.1.6 1.1c-.4.7.4 2 1.7 3q3.8 2.7-.8 3.4l-2.2.4q-.2.3.9 1.6c.6.8.9 1.9.6 2.4q-.5 1 .5 1.7 1.2.6.5-.4c-.7-1-.1-1.2.8-1.2q1.5 0 1-1.5c-.7-1.8 3.1-5.5 5.6-5.5.9 0 2.1-.5 2.7-1.1 1.2-1.2 5.4 2.2 5.2 4.3q0 1.4-.6-.1-.5-1.6-1.4 0c-.6 1.1-1.2 1-2.8-.5-1.9-1.8-4.1-1.5-4.1.5q.1.9 1 .4 2.2-1.5-.5 3.5c-.8 1.6-2.4 3.4-3.4 4q-3.8 2-2.5-.1.6-1-1.6.1c-3.1 1.7-6.8 2.2-7.5 1-.3-.5-1.3-1-2.1-1s-1.2.4-.9 1q.4.9-.4 1c-1.2 0-1.5-2.3-.5-3.3q.8-.5 2.3.3 1.8 1.2 1.9-1.7.5-3.1-1.3-1.3c-.9.7-2.7 1-4.4.7-1.6-.3-3.2-.3-3.5 0-1.1 1.1-4.8 1.4-4.1.3q.6-.9-2.1 0c-2 .8-3.2.7-4.9-.4-1.2-.8-2.7-1.1-3.4-.7-1.8 1.1 1.4 4.2 3.5 3.4.9-.3 2 0 2.5.8q.8 1.6 2.1.1 2.7-2.5 2.8.4 0 1.5-1.5 1-1.4-.5-1.5.3-.2.7-1.5.8c-1.3.1-1.5-.4-1.5-.9s-.4-.6-1-.3-3.8.8-7.2 1c-4.8.2-6.7 0-8.2-1.3-1.8-1.6-1.9-1.6-1.3 0 .5 1.5 0 1.8-3.1 1.8-2.1 0-4.8-.7-6.1-1.7-2.2-1.5-2.5-1.5-3.7.2q-1.3 1.6-2.1 1.2-.6-.8.4-1.8c.6-.6.9-1.7.7-2.4q-.7-1.3 5.3-2.3c3.1-.5 6.2-.9 6.8-.7q.8.1.3-.2c-.5-.3.6-1.8 2.2-3.5q3-3.1 4.3-2c2 1.5 6.6 2.1 6.1.7q-.6-1.2 2.8-1.2c1.8.1 4.2-.2 5.3-.7q2.2-.8.8.5c-1.7 1.7-.5 4.3 1.4 2.8q1.3-1 1.2-.3c-.4 2.3.4 3 3.7 2.9 2.7-.1 4.3-.9 6-2.9 1.3-1.5 2.4-2.2 2.4-1.5q0 1.3 1.6-.2 2-1.9 1.2.6-.3 2-2.3 1.7c-2.7-.5-.7 1.4 2.5 2.3q2.9 1 1.3-.5c-.9-1-.9-2 .1-4.5q1.4-3.3.4-4.6-1-1.6-1.5-.2c-.2.7-1.2 1.3-2 1.3q-1.9.2-.2-1.6c.7-.9 2.1-1.3 3.3-1s2.7.6 3.4.6m6.2.5q-.1 1.4-1.5 1.5c-1.6 0-2-1.2-.8-2.3 1.1-1.2 2.3-.8 2.3.8m233.6 0c.3.8.1 3-.6 5a75 75 0 0 0-.8 21c.3 1.7-.3 2-3.9 2.3-4.5.3-5.9-1.2-2-2.2 2-.5 2.4-1.5 3.3-7.5q1.6-11.8-2.5-14.1c-1.1-.5-5.2-.7-10-.3-7.2.5-8.4.9-10.2 3.2a7 7 0 0 0-1.6 5.7c.7 4-1.9 7.9-5.2 7.9-3.1 0-3.7 1.8-1.4 4.1q1.9 1.8.5 2.2c-1.7.5-1.5 2.9.4 3.6.9.3 2.9.6 4.4.6s3.2.5 3.6 1.1c1 1.6-1.2 3.3-3.3 2.4a28 28 0 0 0-6.1-1.1c-2.3-.2-4.6-.5-5-.8-.9-.5-1.5-29.1-.7-31.6.5-1.5 2.4-1.7 15.2-1.9a161 161 0 0 0 20.5-1.1q4.9 0 5.4 1.5m-278 .4q-.6.9.1 1.4.7.3-.4.1c-1.2-.3-3.5 2.2-5.8 6.1-.9 1.5-1.5 1.6-3.3.6q-2-1-2.2-.3c-.2.7-1.9.6-4.3.2-4.3-.6-4.4-.6-4.2 2.1q.2 2.8-1.2 2.2c-1.6-.6-1.7-2 0-2.6q1-.5-.5-.6-1.6 0-1.8 1.4t-1.2 1.7c-2.9.3-3.4.4-5.3 1.5-1.1.6-3.9 1-6.2.8s-4.3.2-4.3.7q0 .8-1 .3c-.5-.3-1-1.6-1-2.8q0-2.1.8-1c1 1.6 10.4 1.2 9.7-.5q-.5-1.2 1.8-.7 2.2.7 3.5-1.5 1.3-2 .1-1.8-1 .2-1.7-1.1-.4-1.2.7-.7 1 .6 1.1-.9c0-2 3-3.2 4-1.6q.6 1.5 2.2-.3 1.5-1.3 2.4-.6c.5.4 2 1 3.4 1.2q2.5.4 2.2 1.8-.5 1.6 1.9-.5 2-1.7 1.5-.8-.6 1.3.6 1.3 1.4 0-.2 1-2 1.1.4 1c1.5 0 1.7-.6 1.4-3-.4-2.7-.2-2.9 1.9-2.4q2.6.8 1.7-1-.7-1.7 1.6-1.6c1.1 0 1.9.4 1.6.9m6.4 0c0 1.7-2.1 2.4-3.3 1.1q-1.4-1.4.1-.6 1 .5 1.2-.3.1-1 1-1.1 1 0 1 .9m10 .5q-.2 1.2-2.3 1.3c-1.3 0-2.4-.6-2.4-1.3s1.1-1.4 2.4-1.4q2.1.1 2.3 1.4m9.3.1q-.6 1.4-1 1.1-.4-.5.2-1.5c.9-1.6 1.5-1.3.8.4m26.7-.5q0 .9-.4 1-.6-.1-1.1-1-.4-1 .4-1 1 0 1.1 1m180.6 14.1c.2 18.1-.1 18.9-5.8 18.2-2.4-.4-5.3-1.3-6.6-2.1-2.1-1.3-2.1-1.6-.7-3.2q3-3.1-.2-3c-1 0-2.6 1.2-3.6 2.6-1.8 2.4-1.8 2.6-.2 4.4s1.4 1.9-6.7 2.2c-4.5.2-8.6.1-9-.2s-1-7.9-1.4-17l-.7-16.5 17.4.1 17.4.2zM474.5 737l4.2 1.5c.4.1-1.7 28.3-2.3 29.8-.3.9-1.2 1.7-1.9 1.7-2.3 0-2.5-3-.5-8.1 1.4-3.8 1.6-5.7.9-7.6a10 10 0 0 1-.3-4.8c1.3-5.2-3.6-9-12.9-10.1-8.3-1-10.1-.2-12.2 5.3-1.5 3.8-1.6 5.2-.7 7.7 1.3 3.4.2 5.5-1.8 3.1-1.6-1.9-4-1.9-4 0 0 1.7-4.6 3.9-6.2 2.9a67 67 0 0 1 .7-20.5l.6-2.6 16.2.2q16.2.2 20.2 1.5m-440.2-.2c-1.7 1.1-2 4.7-.3 4.7s4.2 4.4 3.4 5.7c-1.1 1.8-2.4.7-2-1.7.3-1.3 0-2.7-.5-3.1q-.8-.4-.8.3.4 3.2-1.1 1.3-1-1.5-1-.3-.1 1.2-1.1 1.3-1.1 0-.2-1.3c1.8-2.1 1.2-4.9-.9-4.4q-1.6.4-1.8-.2c0-1.5 2.5-3.1 5-3.1q2.2 0 1.3.8m5.7.2q-.1.9-1.1 1-.8-.1-.4-1t1.1-1q.4 0 .4 1m16.8 1.1q-1.5 1 0 .9 1 0 1.2 1-.1.8-1.2.5c-1.2-.5-1.5.7-1.8 6.7q-.2 1.7-1.1 1.8-.8.1-.6 1.1 0 1.1-1.2 1.6c-1 .4-1.2-.4-.6-3.8.4-2.4 1.4-5.3 2.1-6.4a7 7 0 0 0 1.4-3.7q0-1.8 1.6-1.1 1.9.6.2 1.4m14.2-1.7q0 .5-1 1.1-.9.4-1-.4.1-1 1-1.1 1 0 1 .4m8 1.1q0 1.4-1.6.8-1.9-.6-.2-1.4c1.7-1.1 1.8-1.1 1.8.6m54-.5q-.1.9-1.1 1-.8-.1-.4-1 .6-1 1.1-1 .3 0 .4 1m-80 1c0 1.6-1.7 1.9-3.4.7-1.4-1.1-1.3-1.2.9-1.3 1.4-.1 2.5.2 2.5.6m444 1.6c0 1.4-1 3.4-2.2 4.3l-2.2 1.8 2.2 1.9c3 2.6 3.2 10.8.2 12.4q-3.9 2.3.1 4.8c1.5 1 1.9 2.1 1.7 4.5l-.3 3.2-7-.4q-10.4-.5-8.9-3.3c.3-.5.9-7.5 1.2-15.6l.7-14.7 5-.6c9.5-1.1 9.5-1.1 9.5 1.7m-422-.9c0 1.7-6.2 7.3-7.3 6.6q-1.2-.7.1-1.1 1.5-.3.1-1.8c-1.2-1.5-.4-1.8 3.4-1.5q1.5.1 1.7-1.3c.2-1.4.5-1.6 1-1.6q1 0 1 .7M48 740q-.1.9-1.1 1-.8-.1-.4-1t1.1-1q.4 0 .4 1m242.5.5c0 1.2-4 1.9-6.1 1.1-.9-.3-1.2-1.1-.9-1.6.8-1.4 7-.9 7 .5M134 742.2q0 2.5-.9.9-1-1.1-2-.7c-1.2.8-1.5-.6-.4-1.7 1.4-1.5 3.3-.6 3.3 1.5m162.5-1.2q.4.9-.4 1-1-.1-1.1-1 0-1 .4-1t1.1 1m-267.8 5c-1 3.7-1.3 3.9-2.7 2.4q-1.6-1.7-.3-2.1 1-.5.6-1.9t1.2-1.4.9-1.2q-.6-1 .3-.5 1 .7 0 4.7m34.6-3c.6 2.3-.8 2.6-2.9.6q-1.6-1.6-.1-1.9c2.1-.9 2.5-.8 3 1.3m16.1-.9q-.5 1.1.6 1.9 1 .7-1.4.7-4.6-.2-.8-2.6 3.1-2 1.6 0m-36.4 2q0 .9-1 .4t-1-1.6q.1-.9 1-.4a2 2 0 0 1 1 1.6m335.4-1.5c.9.3 1.6 1.3 1.6 2.1q0 1.5-1.6.9c-.9-.3-2.5-.6-3.6-.6q-2.4.2-.8-1.5c1.4-1.7 2.1-1.8 4.4-.9M368 744q-.1.9-1.5 1c-1.4.1-1.5-.5-1.5-1q.1-1 1.5-1c1.4 0 1.5.4 1.5 1m87 0q-.1.9-1.1 1-.8-.1-.4-1 .6-1 1.1-1 .4 0 .4 1m10.3 1.5c-.4 1.5-3.6 1.2-4.1-.3q-.5-1.4 1.9-1 2.1.3 2.2 1.3m7.7 1.1q-.1.4-2.1.4-1.8 0-1.4-1c.5-.8 3.5-.3 3.5.6m-427 1.2q.2 1.8-1.5.2-1.3-1.1-1.5-1.5.2-.2 1.5-.2c1.3 0 1.5.7 1.5 1.5m19 .1q.1 2-1 .1t-1 .7c.1 2.6-.6 2.3-2.5 2.3l-3.2.1q-.8-.2-1.2-1.7-.3-1.7 1.3-1.1 1.5.6 1.6-.7t3-1.3q3 0 3 1.6m-24.3 1.7q.6 1.6 1.3.4.6-1.2 3.4 0c2.2.8 2.5 1.2 1.4 2.3-1.7 1.6-6.8 1.8-6.9.3v-2.5q.2-1.1-.8-.6-1 .4-1.1-.4c0-1.7 2-1.3 2.7.5m264.5 8.9c0 4.7-.3 8.9-.6 9.2-.9.9-29.6 1.5-29.7.6-.5-4.5-.2-18.3.4-18.3q.6.1.7 1.6c0 .9 1.5 3.1 3.3 4.8s3.9 4 4.7 5c1.4 1.7 1.3 1.8-1.5 1.2-3.6-.7-5.8.5-5.3 3 .3 1.7 1.2 1.9 7.8 1.7l10.3-.5c3.4-.4 6.2-3.5 4.6-5.4-1.2-1.4-.4-5.6 1.9-10.1 2.4-4.8 3.4-2.7 3.4 7.2m-269.8-7.9q.5 1.5-.6 1.2c-1.5-.5-2.3-2.8-1-2.8.5 0 1.3.7 1.6 1.6m52.9 2c-.7 1.8-3.8 2.4-12.3 2.3-7.1 0-7.3-.1-4.5-1.3q3-1.4 4.3-.3t1.2-.1q0-1.1 2.2-.3c2.4.9 5.7-.4 7.2-2.8q.9-1.6 1.6-.1c.5.7.6 1.9.3 2.6M28 752q0 .9-.4 1-.5-.1-1.1-1-.4-1 .4-1 1 0 1.1 1m39.4 1.5q.6 1.5-1.5 1.5c-1.7 0-1.8-.2-.7-1.5 1.6-1.8 1.5-1.8 2.2 0M32 754q-.1.9-1.6 1-1.3-.1-.9-1 .6-1 1.6-1 .8 0 .9 1m27 .6q-.2.4-1.5.4c-1.3 0-1.5-.4-1.5-1q.2-.8 1.5-.4 1.3.6 1.5 1m122.4 3.3c1.9.7 1.9.8.1 1.5q-1.8.6-.8 1.7c1.3 1.3.4 6.9-1.2 6.9-.7 0-1.8-1.5-2.5-3.3q-1.1-2.7-1.7-2c-.2.7-1.1 1.3-1.8 1.3-2 0-2.7 3.1-1 5q2.7 3 .4 3-.8 0-.5-.9c.4-.5-.9-.8-2.8-.7-2.8.3-3.3 0-2.9-1.5a20 20 0 0 1 3.6-4.9c2.5-2.6 2.8-3.3 1.6-4.1q-1.7-1.2.7-.4c2.5.7 5.6-.3 4.8-1.6-.6-1.1 1.3-1.1 4 0M15 760q4.5-.7 5.8.2 1.3 1.2 2.4 0c.7-.7 1.7-1.2 2.2-1.2s-.4 1.3-2.3 2.9q-3.6 2.9-2.5 4.2c.5.8.7 2.2.6 3.1q-.4 1.9 1.5 1.1c2.5-.9 5.3-3.4 4.8-4.3q-.3-.7 2.2-.8c1.4 0 3.2-.8 4-1.8 1.2-1.6 1.3-1.6 1.3.9 0 2.3-.4 2.7-3 2.7-2.4 0-3 .4-2.8 1.7.4 2.5 2 3.4 3.5 2.1q1.3-1 1.3 0c0 1.4-2.4 2.2-4.9 1.5q-2-.4-2.1.3c0 .5-1.7.9-3.7.9-4.1 0-6.3-2.6-4.2-5.1.8-1 .6-2.1-.7-4.4-1-1.6-2.2-3-2.7-3q-.7.1-.1 1.1t-1.4.5c-2-.7-3.8 1.5-2.4 2.9.4.4.7 2.2.7 4.1 0 3.5-2 5.3-3.9 3.4-.5-.5-2.4-1-4.1-1H1.4v-6.4c0-4.8.3-6.3 1.3-5.9q1.2.6.8 1.3c-1.4 2.2 3.3 6.8 5.6 5.5q.8-.8-1.5-4c-2.3-3-2.4-3.4-.8-3.8.9-.2 2.2.2 2.7.9q1 1.3 5.5.4m135.7-.3q.2 1-1.6 1.8c-2 .6-2 .8-.6 3.5 1.8 3.5 1.9 6 .2 6s-3.9-3.7-2.6-4.5c.5-.4.8-2.1.5-3.8s-.2-3.5.1-3.9c.7-1.2 3.5-.6 4 .9m4.3-.8c0 1.2-2 2.5-2.7 1.8s.6-2.7 1.8-2.7q.8 0 .9.9m7.5.1c.3.5-.1 2-1 3.3s-1.3 3.2-.9 4.1q.5 1.6-.7 1.6-1.7 0 0 .9 1.5 1 3.4-.1c1-.5 2.1-.7 2.4-.5 1.1 1.2-4.2 2.8-7.2 2.3q-6.5-1.3-1.9-6.3 2.3-2.5 1.8-4.5-.7-1.9 1.5-1.8c1.1 0 2.3.4 2.6 1m107.7 8.6-1 5.9v-8c-.1-6 .2-7.5.9-5.9q1 2 .1 8m90.5-3.4c-.9.5-3.9-.4-5.5-1.7q-.2-.5.9-2.3c1.2-1.9 1.3-1.9 3.5.7q2.3 2.5 1.1 3.3m-219.3-3.6q.7 1.6-1.1 1.2-1.5-.4-2.1-1.6c-.6-1.8 2.5-1.5 3.2.4m-98.3 2.8c-.7.8-2.1 1.2-3.1.9-3.1-.8-2.3-2.3 1.1-2.3 2.6 0 2.9.3 2 1.4m78.4-.4q.4.9-.9 1-1.5-.1-1.6-1 0-1 .9-1t1.6 1m323 1.3c-.7 1-1.1 2.5-.9 3.2.6 1.4-4.8 3.1-6.6 2-.5-.3-1-2.1-1-3.8 0-3.2.1-3.2 5-3.3 4.7-.1 4.8 0 3.5 1.9M107 765c1.3.9 1.3 1.1 0 2q-3.2 2.3-3-1c.2-3.3.8-2.5 3-1m346.1 2.1c.8 1.6.6 1.9-1.5 1.9-1.9 0-2.4-.5-2.2-2.4.1-2.7 2.1-2.4 3.7.5m-77.7 1c-.3.5-2.5.9-5 .9-3.2 0-4.4-.4-4.4-1.5 0-1.7 1.2-1.9 2.6-.5q1 1 3-.4c2-1.5 5-.3 3.8 1.5m-178.1.4q2.8.7 2.7-.6 0-1.5 1.1-.2c1.5 1.5.5 3-1.8 2.8-3.7-.3-6.3-1.7-6.3-3.3q0-1.7.8-.5c.4.6 2 1.5 3.5 1.8m-68.8.5q.4 1-3.2.9c-3.8-.1-3.8-.1-.8-.9l3.2-.9q.2 0 .8.9m8.2.6q-.6.5-1.9.1-1.1-.5.6-.6t1.3.5M194 771q0 .9-.4 1-.6-.1-1.1-1-.4-1 .4-1 1 0 1.1 1m145.7 1c2.2 0 2.4.3 1.8 3.1-.9 4.1-1.3 6.2-1.4 7.2-.1.5-2-.8-4.3-2.8a27 27 0 0 0-6.6-4.2c-2.1-.5-7.1.5-12.8 2.7-2.9 1.1-5.1 8.9-3.4 12 1.4 2.6 7.2 7.9 10.9 9.9l2.6 1.5-2.5.7c-1.4.4-5.4.7-9 .8l-6.5.1 3-1.8c2.3-1.4 3.4-1.6 4.7-.8 2.2 1.3 3.5 0 2.2-2.2-1.3-2-6.2-2.8-7.7-1.3q-1 1-1.9 1.1c-.8 0 0-24.1.9-25a160 160 0 0 1 30-1m63.2.5c.2.3-1.2 2-3.2 3.9-4.1 3.7-4.5 5.5-2.1 9.1 1.5 2.4 1.5 2.5-.3 2.5-1 0-2.9.7-4.1 1.6-1.3.9-2.5 1.4-2.7 1.2-.7-.7-.8-17.6 0-18.8q.6-1.4 6.3-.6c3.1.4 5.8.9 6.1 1.1m71.5.5c1 1-.6 25.8-1.8 27.9-.8 1.3-8.5 1.5-10.5.2q-1.2-.9-.7-1.9t-1.2-1.7q-1.7-.6-3.1 1.4c-1.7 2.6-3.1 2.7-2.4.2q.4-1.8-1.1-2.4c-2.1-.8-3.1 1-1.6 2.8q1.7 1.7-1 1.5c-2.7-.2-2.1-.5-1.8-3.7q.4-4-1.3-4.1-1.7-.5-2.3 3.8c-.6 4.1-2.6 5.6-2.6 2 0-2.4-2.5-2.7-3.8-.4-.5.9-1.8 1.4-2.8 1.2-1.8-.3-1.9-1.3-1.8-13.1.1-7 .3-13 .6-13.2a89 89 0 0 1 11.4-1.4c12.3-1.1 26.3-.6 27.8.9m-276.7 1.1q0 2-1.4.7-2.5-2.3.1-2.5 1.3.1 1.3 1.8m66.9 10.6c-.5 12-1.1 18.7-2.2 24-.3 1.9-1.1 2.3-3.9 2.3q-3.5 0-3.5-1.5c0-1.8-3.6-3.9-4.5-2.5-1 1.6 2.5 7.2 4.1 6.6q1.5-.7 1.4 2.4c0 2.3-.5 3-1.9 3-2.7 0-3.6 3.1-1.1 3.7q2.3.5 1.4 2.7c-1 3.5-2 3.9-5.5 1.9-2.5-1.3-5.6-1.8-11.6-1.8-8.1 0-8.3-.1-8.3-2.4q-.1-2.7 1.4-1.2c1.3 1.1 4.6.5 4.6-.8s-2.3-2.9-3.7-2.4q-1.6.7-1.1-1.8.1-2.5 2.8-2.4c3 0 3.4-2.9.5-3.3-1.7-.2-2-.9-1.7-4.2.6-5.9 2.5-6.6 17.5-6.5 7 0 12.7-.3 12.7-.7q.1-3.3-15.4-2.6c-6.1.3-11.8.7-12.6.9-1.2.3-1.5-1.3-1.8-9.6-.1-5.5.2-10.6.6-11.3.5-.7 3.8-1.7 7.3-2.2l12.4-1.8c3.3-.5 7.5-1 9.3-1.1l3.3-.1zm40.6-10c.2 3.3.2 3.7-.5 17.3-.6 11.5-.8 11.8-7.7 11.9-3.5.1-3.6.1-4.6-5.4-.9-5-.8-5.7.9-6.8 1.5-1 1.9-2.7 2.2-10 .3-7.8.1-8.8-1.3-8.5q-1.7.3-1.7 3.5.1 7-5.3 3.5-3.3-1.9-2.1-2.9c1.3-1.3.2-3.6-1.4-3-1.5.5-1.8 7-.3 7.9.6.4 1.1 2.7 1.1 5 0 3.5.4 4.5 2.3 5.3 1.2.5 2.2 1.7 2.3 2.5.7 9.6.9 8.9-3.6 9.6-9.8 1.4-10.2.7-10.7-18.4l-.3-12.7 4.5-.5c2.5-.3 9.3-.6 15.3-.8l10.7-.3zm80.8.3c.4 1.4.5 3.8.4 5.5l-.9 10.6-.6 7.6-8.7.8c-4.8.5-14.4.9-21.4 1l-12.6.2.9-2.6c.6-1.4.8-3.5.5-4.7A63 63 0 0 1 346 774c.7-1.3 3.8-1.5 20.1-1.5h19.3zm-269.7-1.3c1.5.2 2.7.9 2.7 1.3q-.1.8-1.5.4t-1.5.5q.1 1.1 1.4 1.7 1.4.5 1.2 4.9c-.1 2.4.2 4.1.5 3.9q.7-.2 1.2 1.1c.3.7-.5 2.4-1.8 3.7q-4.1 3.9-1.2 5.1.9.5-.8.6c-2.2.1-4.9 3.6-4 5.1q.5 1-.4 1-1-.1-1.2-1.3 0-1.4-.6.1c-1 2.4-2.2.1-1.3-2.4 1.3-3.2 1.3-3.1-.4-3.7q-1.4-.7-1.2 2.5c0 1.7-.4 3.3-1 3.5-1.6.5-2.8-4.7-1.5-6 .6-.6 1.1-3.2 1.1-5.8s.4-5.1 1-5.4q.9-.5.3 1.1-.7 1.8.5 1 1.1-.5 1.2.3c0 1.8 2.4 1.2 3.8-.9 1.1-1.8 1-2-1.4-2-1.4 0-3.5-.5-4.6-1.1q-2-1-1.4-.1c1 1.7-1.1 2.3-2.4.7-.7-.8-1.9-1.5-2.6-1.5-2.3 0-1.6-1.5 1.6-3.3 1.7-1 3-2.3 3-2.8 0-2.1 5.6-3.2 11.3-2.2m313.8 11.8c-.2 6.6-.7 13-1.2 14.3l-.9 2.4-18-.4c-15.4-.3-18.2-.5-19.7-2-2.7-2.8-.4-3.9 3.8-1.9q3.7 1.8 5.3.9a14 14 0 0 1 6.4-.2c2.6.4 6.3.6 8.2.5 1.9-.2 5.6-.3 8.3-.2q4.9.2 4.7-1.3c0-2.2-2.6-2.7-10.2-1.9-5.3.4-6.9.3-6.4-.5.4-.7 1.9-1.2 3.4-1.2 3.7 0 9.9-2.3 12-4.3 1.2-1.3 1.6-3.2 1.4-7.4-.1-3.2-.7-6.2-1.2-6.7q-2.6-2.8 1.8-2.4l2.7.3zm-304.6-10.6q.4.9-.5 1.6-.9.4-1-.9 0-2.7 1.5-.7m5.2 1.3q-.5 1.1-.6-.6t.5-1.3c.3.3.4 1.2.1 1.9m48.8-.3c-.8 1.4-3.2 1.4-4 .1q-.4-.8.8-.4c.8.3 1.8 0 2.2-.6q.7-1 1.2-.6t-.2 1.5m90.6 12.6c.2 7.2 0 13.6-.4 14.3q-2.9 4.5-2.1-10.6c.5-10.9 1.3-17.7 1.9-17.1.2.2.5 6.3.6 13.4m224.2-12.2q5.1 1.7-1.9 2.4c-7.9.8-12.4 5.4-10.9 11 .5 1.5.7 3.5.6 4.4-.1.8.7 2.3 1.8 3.3s1.7 2.3 1.5 3c-.7 1.8 1.9 3.7 4.6 3.4 1.3-.2 2.5.3 2.7.9q.8 2.5-9.9.1l-5.6-1.3a359 359 0 0 1 2.3-27.3c.5-1.5 10.3-1.5 14.8.1m-87.7 1.5c-.5.9-5.6 2.3-5.6 1.6s5.5-3.2 5.9-2.9q.1.4-.3 1.3m-208.9 2.6-2.3 3.8c-1.2 2-2.2 1.4-1.8-1l.3-3q.1-1.7 2.5-1.7c2.1 0 2.3.2 1.3 1.9m132.3-.9c1.1 1.3.8 1.5-1.3 1.5-2.6 0-4.2-1.2-3-2.4 1.1-1.1 3-.7 4.3.9m-200 1.7q0 1 1.4-.1c2-1.7 4.8-.2 4.4 2.3q-.1 2.3-2.7 1.8c-2-.3-5.6-2-8.1-4q-.2-.3.9-1.2c1.6-1 4.1-.2 4.1 1.2m73.4 1q-.6.8-2 .4-1.2-.4-2 .6-.7 1 .7.3 1.8-1.2 0 .8-1.2 1.5-2.2 1.7c-1.2 0 .1-3.3 1.8-4.7 1.7-1.3 4.6-.6 3.7.9m19.1-1.2q.4.9-1 1c-1.4.1-1.3-.5-1-1q.6-1 1-1t1 1m-43.5 1q0 .9-.4 1-.6-.1-1.1-1-.4-1 .4-1 1 0 1.1 1m-156 1q0 .9-.4 1-.5-.1-1.1-1-.4-1 .4-1 1 0 1.1 1m147.4 1.1c-.6 1.1-2.4.2-2.4-1.1q.1-.8 1.5-.4 1.3.7.9 1.5m-157.8.2q.5.7-1 1.3c-.9.3-1.6 1.7-1.6 3.1 0 1.3-.4 2.2-1 1.8q-.8-.6-.3-2 .4-1.5-.6-2.9t-.5-1.9c.8-.8 4.1-.4 5 .6m128.3 1.9q1.9 2.9-.1 1.1c-.8-.7-1.8-1-2.1-.6q-.6.4-.7-1c0-2.4 1.3-2.1 2.9.5m151.1 2.2c-1.7 2.2-4 2-4-.2 0-3 2.1-4.5 3.9-2.8 1.2 1.2 1.2 1.8.1 3m-119.6 1.8c-.4 1.3-.7 2.8-.6 3.5q.2 1-.7 1.7c-.5.3-1.1-1-1.3-3q-.4-3.6 1.1-4.4 3-1.8 1.5 2.2m166.9 3.1q-.5 4-2 3.3c-.8-.4-2.1-.6-3-.6q-1.7.2 1.1-3.1c1.4-1.7 2.6-3.6 2.6-4.2q0-1.1 1-.1c.5.5.7 2.6.3 4.7M154 791.6q-.2.4-2.1.4-1.8 0-1.4-1c.5-.8 3.5-.3 3.5.6m-54.5 1.6c-1.9 1.1-3 .5-2.1-1.1q.8-.9 2.2-.4c1.5.5 1.4.7-.1 1.5m-14.7.1q1.3 1.4-1.1 1.4-1.9 0-.9-.4t.6-1.4c-.8-1.4.2-1.1 1.4.4m39 1.6c1.2 3.3.5 4.6-1.5 3-1.5-1.3-1.8-5.9-.4-5.9.5 0 1.4 1.3 1.9 2.9m75 .2c-2.5 1.6-2.7 1.2-1.9-3q.3-.2 1.6.9c1.3 1.1 1.3 1.5.3 2.1m4.2-.4q0 2.8-1 1.7c-.6-.6-.8-1.8-.4-2.7q1.4-3.6 1.4 1m-166.6 1c.9 2.3-1 4.1-2.6 2.4-1.1-1.1-1-1.4 0-1.8q1-.5.6-1.4t.4-.9q1 .2 1.6 1.7m34.4-.2c.2.2-2.1.3-5 .3q-5.2 0-3.3-.8c1.8-.6 7.5-.3 8.3.5m51.9 5.1c-.9.9-2.8-.6-2.1-1.8q.6-1 1.7.1 1 1 .4 1.7m9.1-.5c2 2.1 1.9 5.3-.1 6.6q-1 .5-.4-1c.4-1.2 0-1.5-2.2-1.2-2.6.3-2.8.1-2.3-2.3.4-2.2 1.7-4.1 2.9-4.2.1 0 1.1.9 2.1 2.1M85 800q-.1.9-1.6 1-1.3-.1-.9-1 .6-1 1.6-1 .8 0 .9 1m14 5q0 1.7-.8.3-.7-1.4-3.2 1c-2.4 2.1-2.6 2.2-4.2.6-1.5-1.6-1.4-1.8 1.3-2.9q2.9-1.2 2.9-3.4c0-2 .1-2 2 .4 1.1 1.4 2 3.2 2 4m241-3.9c0 .5-1.3.9-3 .9-3.5 0-4.1-1.7-.7-2.2q3.8-.8 3.7 1.3m-313 3.4q.8-.4 1.5.5t1.7.4q1-.6.4.4c-1.1 1.8-6.6 1.5-6.6-.3s-2.1-2-3.9-.3q-1.6 1.6-.7-.2l1.2-3.2c.5-1.5.9-1.4 3.1.8 1.3 1.3 2.8 2.2 3.3 1.9m9.2-.3c-1.2 1.2-3.5.1-2.7-1.2.3-.5 1.3-.6 2.1-.3q1.5.6.6 1.5m349.1 1.3c-.2 1.7-.4 6.8-.6 11.5-.3 10.3-.9 11.6-4.2 9.4-1.8-1.2-2.8-1.3-4.5-.4-2.2 1.2-4 .6-4-1.4 0-1.7 6.1-6.1 8.4-6.1q1.8-.1 2.4-1.4.6-1.5-1.7-.8t-2.1-1.4c0-3-2.7-7.7-4.9-8.4a10 10 0 0 0-4.5.1q-2.8.8-2.6-.9c0-1.5 2-2 12-3 6-.6 6.5-.4 6.3 2.8m67.4-1c19 .4 20.3 1 20.3 8.7 0 5.5-1.6 5.7-2.2.3-.2-2.3-1.2-3.5-4-5-3.6-1.9-3.8-1.9-6.8-.2-2.5 1.5-3.7 1.7-6.1.8-6.3-2.2-11.1 2.7-11.5 11.8-.3 4.7 0 5.7 2.6 8.2 1.7 1.7 3.9 2.9 5.4 2.9 1.4 0 2.6.4 2.6.9s.3 1.6.6 2.5c.5 1.3-.3 1.6-5.1 1.6-9 0-9.5-.5-9.3-10.8.1-6.8-.4-10.1-2.2-15a36 36 0 0 0-3.1-6.8c-1.9-1.2-.8-2.4 1.2-1.4a82 82 0 0 0 17.6 1.5m-349.9-.3c-.6 1.8-2.8 2.1-2.8.4q.1-1.5 1.6-1.6 1.4 0 1.2 1.2m-16.7 3.1c-1.3 1.3-3.1 0-2.4-1.9.4-1.1.8-1.2 2-.3q1.3 1.3.4 2.2m274.9-2.1c0 .4-1.5 1.7-3.2 2.9-5.5 3.8-10.8 9.8-10.8 12.1 0 5.2 7.7 7.8 12.8 4.2 2.3-1.6 5.2-1.3 5.2.5q-.2.8-2.2.3c-2.1-.5-2.2-.4-.9 1.1a3 3 0 0 0 3.2 1.2c2.1-.7 2.5.5.7 2.3-.8.8-4.6 1.2-10.5 1.2-9.3 0-9.4 0-10.5-2.8a88 88 0 0 1-1.5-22.6c.4-1.1 2.7-1.4 9.1-1.3 4.7.1 8.6.5 8.6.9m-222.7 1.6q-.2 1.1.7 1.2c1.5 0 1.2 1.7-.5 2.4q-1.4.4-1.2-.7 0-1.1-1-1-1.2.2-1.3-1.8 0-2 1.8-1.7 1.5.5 1.5 1.6m29.4-1.2q-.7.5-1.9.1t.6-.6q1.8 0 1.3.5m259.1 1.4c-.7 1.1-1.8 2-2.4 2s-1.7.6-2.3 1.4q-1.4 1.3.3 2.6c1.7 1.4 3.6.6 3.6-1.6q.2-1.3 2-1.4c1.8-.1 2-.5 2-1q.1-1 .8-1c1.9 0 3.7 8.9 3.7 18v9.5l-2.7.3c-2.2.3-3-.2-3.8-2.2-1.1-3-1.7-3.2-4.2-1s-19.4 2-22-.3q-1.8-1.8-3.1-.4c-1.4 1.1-6.9-.1-9-1.9-1.2-1-1.1-20.4.1-22.6 1-1.9 2.1-2.1 19.6-2.2 18.3-.2 18.6-.2 17.4 1.8M54 808.7q0 4.2 3.5.3c2.1-2.4 3.7-2.6 2.9-.5q-.7 1.3-1.8 1.5t-1.3 1.5c-.1 1.3.4 1.5.9 1.5s.6.5.2 1.1q-.7 1.1-1.4-.1c-.5-.7-2.1-1.3-3.6-1.4-2.3-.1-2.9-.7-3.4-3.1-.6-2.6-.4-3 1.7-3q2.4-.1 2.3 2.2m13.3-2c-.7.2-1.9.2-2.5 0q-1-.5 1.2-.5c2.2 0 1.9.2 1.3.5m11.7.3q-.1.9-1.1 1-.8-.1-.4-1t1.1-1q.3 0 .4 1m193.6 2.1c-.3 1.7-.6 3.9-.6 4.8q0 1.6-3 1.7c-2.5.1-3-.3-3-2.3 0-2.3 4.3-7.3 6.3-7.3q.8.2.3 3.1m31.8 6.1c-.5 6.8-1 9.6-2.2 10.3-.8.5-3 2.2-4.7 3.7-3.2 2.8-6.5 3.7-6.5 1.9 0-.5 1.3-1.9 2.8-3s3.6-3.5 4.7-5.4c1.6-3 1.7-3.9.6-6.5-2.3-5.6-4.1-6.5-10.8-5.3-5.9 1.1-8.3 2.9-8.3 6.3 0 1-.5 2.7-1.2 3.7-1.4 2.3 1 6.6 4.8 8.3 2.7 1.3 3 2.6 1 5.3-1.3 1.8-1.5 1.8-4.6-.8q-5.3-4.5-7.9-1.3c-.9 1.1-.6 1.8 1.8 3.5 1.6 1.2 3.4 2.1 3.9 2.1a2 2 0 0 1 1.7 1c.4.6-1.7 1-5.4 1-7.4 0-7.4 0-2.6-12.9a62 62 0 0 0 3.5-12c0-4.2 2.7-7.2 6.3-7.1 1.8.1 6.6-.3 10.7-.8l10.2-1.1 2.8-.1zm34.4-.7c.2 6.4 0 7.7-1.1 7.2-.8-.3-2 0-2.6.6q-1.1 1.3-2.5-.9-1.5-2-2.6-.8c-.9.9-.8 1.8.5 3.7 1.5 2.4 1.7 2.4 4.7 1q4.9-2.6 4.8 2.9c0 2.2-4 2.4-7.1.5-1.7-1-2.2-.9-3 .5-1.3 2.4-10.9 2.6-10.9.3 0-1.7 1.6-2 2.6-.4q.5 1.1 1.7 0 1-1-.2-2.5c-.7-.8-1.1-2.7-.9-4.2.5-4.8-1.9-3.6-4.7 2.3l-2.7 5.8-1.6-3.5c-.9-1.9-1.6-3.8-1.6-4.1q-.3-.6-1.8-2.3c-1.8-1.8-2.2-6-.9-10.6.7-2.5.8-2.5 14.1-3l14.5-.5c.6.1 1.1 3.7 1.3 8m149.7-6c7.4.9 8.1 1.2 5.9 3.6-1.5 1.7-1.5 2 0 4.3 2.5 3.9 2.1 7.3-.9 7.8-3.1.6-4.3-.8-1.5-1.7 2.2-.7 2.7-3 .8-4.1-.6-.4-1.8.2-2.7 1.2-.9 1.1-2.4 2.3-3.3 2.7-1 .3-1.8 1.2-1.8 1.8s-.8 2.1-1.7 3.1c-1.5 1.7-1.5 2-.3 2.8 2.3 1.5 3 1.2 4-1.5q1.5-4.1 5.3-1.1c3.2 2.5-.3 6.4-4.5 5q-2-.7-2.5 1.5t-3.4 2.1q-2.7-.1-3.4-1.3c-.2-.6-.6-6.7-.8-13.4-.5-12.4.1-14.7 3.3-13.9zm-124.5.9c0 .7-1.1 1.6-2.5 1.8q-4.1.9-1.3-2c1.6-1.6 3.8-1.5 3.8.2M2.5 810q.4.9-.4 1-1-.1-1.1-1 0-1 .4-1 .6 0 1.1 1m15.9-.1q1.4 2.4-3.4 5.3c-4.1 2.3-4.9.4-1.4-3.3 2.9-3.1 3.9-3.5 4.8-2m128.6 1.4c0 3-.6 3.6-3.1 3q-1.8-.5-1.9-2.9c0-1.9.5-2.4 2.5-2.4s2.5.5 2.5 2.3m15.3-1.7c.9 1-.4 3.4-1.9 3.4q-1.3-.1-1.4-1.3c0-2.2 1.9-3.5 3.3-2.1m211.7-.2.7 2.1c.5 1.4.2 1.6-1.8 1-1.3-.5-3-.8-3.6-.8-1.4 0-1.7-1-.6-2 .7-.8 5.3-1 5.3-.3m91.8.8q2.8 2.8-1.2 2.8c-2.9 0-4.4-1.9-2.5-3.1 1.8-1.2 2.3-1.1 3.7.3m-293.8.7q.2.9 2.5 1.3l2.5.3-2.3 2.8-2.2 2.8-3.8-2.7c-3.9-2.6-3.9-3.8-.2-4.7 3.2-.8 3.5-.7 3.5.2m-149.3 2.2q.6 2 2.1 1.4 1.6-.6.4.8c-1.5 1.7.1 4.2 2.2 3.4q2-1 .6 1.3c-1.5 2.8-9.3 5.1-8.3 2.3.5-1.3.3-1.3-1.4-.2a5 5 0 0 1-3.7.6c-1.6-.6-1.5-1 .6-3.6 1.3-1.5 2.7-2.6 3.2-2.3 1.2.7 2.6-2 2-4.1q-.4-1.5.6-1.7 1.1.1 1.7 2.1m22.3-.6q-.2 1.3-2 1.5c-2.2 0-2.7-1.5-.7-2.3 2.1-.9 2.7-.7 2.7.8m21.7.6q-1.7 1-1.2 2.9t-.9 2.3q-1.7 1-1.4-2.8c.1-3.1.4-3.5 2.7-3.5q3.3 0 .8 1.1m148.3-.7q0 .5-1 1.1-.9.4-1-.4.1-1 1-1.1 1 0 1 .4m-153.2 4.1q.2 3.3-1.3.8c-1.3-1.8-1.1-3.3.4-3.3.5 0 .9 1.1.9 2.5m88.2-1q0 1.3-.4 1.5c-.4.2-.6-.7-1-1.5q-.4-1.4.4-1.5 1 .1 1 1.5m-114.5.5q.4.9-.4 1-1-.1-1.1-1 0-1 .4-1t1.1 1m225.5 1.7q0 2.9-1.1 1.6c-.7-.7-.9-1.9-.6-2.7q1.6-3.5 1.7 1.1M6 817c0 .5-.9 1-1.9 1-1.1 0-2.3-.5-2.6-1q-.4-1 1.9-1c2.3 0 2.6.4 2.6 1m71.3-.4c1.3.5 1.2.9-.5 2.6-1.6 1.6-1.8 2.2-.7 2.9q1.6.8-1.5 1.9-5.3 2-2.5-1.7 1.2-1.5.4-1.1c-.6.4-1.7.3-2.5-.3q-2-1 0-.9c.8 0 2.1-.9 2.8-2 1.3-2.1 2.1-2.4 4.5-1.4m44.7 1.7q0 3.3-3.1 1.4-3.9-2.5.6-2.7 2.3.1 2.5 1.3m44.2 1.2c1.3 2.9 4.4 3.6 3.3.7q-.6-1.6.3-.7c.5.5 1.2 2.2 1.6 3.7.5 2.3.4 2.6-1.1 2.1-1-.3-2.3-1-2.9-1.4q-1-.7-1.7-.3t-1.3-2c-.3-1.4-1-2.6-1.5-2.6s-.9-.5-.9-1c0-2 3.1-.9 4.2 1.5m187.6-1.3c-.6 1.8-2.8 2.1-2.8.4q.1-1.5 1.6-1.6 1.4 0 1.2 1.2M14 819q-.1.9-1.1 1-.8-.1-.4-1 .6-1 1.1-1 .3 0 .4 1m31.3 3q-.2 2.2.3 1.2c.6-1.3 2.4-.7 2.4.7 0 1-3.9 2.4-5.7 2.2q-1.2 0-1.3.9c0 2.1-1.6.9-2.7-2.1s-1.1-3.1.6-1.5c2.8 2.6 4.4 2 3.9-1.4-.4-2.4-.1-3 1.1-2.8q1.5.4 1.4 2.8m225.7-2.1c0 .4-.7 1.6-1.5 2.7-1.5 1.9-1.5 1.9-3 0-.8-1-1.2-2.2-1-2.6.6-.9 5.5-1 5.5-.1m-238.2 1.3q1 1 .2 2.9-1 1.7 0 2.4c1.5.9 0 3.5-2.1 3.5s-2.5-1.5-.8-2.6c.6-.3.9-2.2.7-4q-.7-5.2 2-2.2m145.8 1.4c-.9.9-2 1.3-2.4.9-.4-.3.2-1.3 1.2-2.1 2.5-1.8 3.3-1 1.2 1.2m7.4-1.2c0 1.6-2.8 4.2-3.6 3.3-.3-.3-.3-1.5.1-2.6.7-2.3 3.5-2.9 3.5-.7m-129.5.6q.5.9-.4 1c-.5 0-1.3-.5-1.6-1q-.5-1 .4-1a2 2 0 0 1 1.6 1m83.2.5q0 1.3-.9 1.5-.7-.2-.8-1.5c-.1-1.3.4-1.5.8-1.5q.8.1.9 1.5m22.7 0c1.9 1.5 1.9 1.5-.5 1.5-1.3 0-3.5-.3-4.8-.7-2.3-.6-2.3-.7-.5-1.4 2.8-1.1 3.7-1 5.8.6m310.6 6c0 6.1-.3 7.5-1.5 7.5q-1.5-.2-2.1-1.5t-2-1.5q-2.9.1.4-5.3a25 25 0 0 1 5-6.6c.1-.1.2 3.3.2 7.4m-353.9-3.8q-1.8 2.9-.5-1.2.7-1.4 1.1-1.1c.3.2 0 1.3-.6 2.3m6.9-.1q0 1.4-1.2 1.2c-1.8-.6-2.1-2.8-.4-2.8q1.5.1 1.6 1.6M6.2 825.8q-1 .5-1.2 1.8c-.2 1.3-.7 1.4-1.5 1.4-1.2 0-1.5-2.6-.6-4.7l2.3.5q2 .5 1 1m110.3-.8c-.3.5-1.2 1-1.8 1q-1 0 .3-1 2.8-1.8 1.5 0m18.2 1.6c-.9.9-2.8-.6-2.1-1.8q.6-1 1.7.1 1 1 .4 1.7m-124.2.4q.5.9-.4 1-1-.1-1.6-1-.5-1 .4-1a2 2 0 0 1 1.6 1m44 0q.4 1-1 1.6c-1.9.8-3 0-2-1.5.8-1.4 2.2-1.4 3-.1m-35.6 1.6c.2.2-1 .4-2.7.4s-3.2-.5-3.2-1c0-.9 4.7-.4 5.9.6m248.5 2.1-.8 2.9c-.1.1-1.8-.1-3.9-.4l-3.8-.4 2.2-2.4c1.2-1.3 3.3-2.4 4.6-2.4 2 0 2.3.3 1.7 2.7m-20.4.3c4.3 2.2 5.9 4 3.6 4-1.9 0-2.2 2.6-.4 3.2 1.2.4.3 2.8-1 2.8-.4 0-1.3-1.3-1.9-2.9-2.3-6.3-14.3-7.8-20-2.5-3.2 3-3.7 2.6-2.5-1.7.9-3.9 2.9-4.6 12.5-4.8q5.8-.2 9.7 1.9m137.8 1.6a74 74 0 0 0 23.5 4.9c18.1 1.1 23.6 1.7 32.7 3.1 5.2.8 9.7 1.7 9.9 2 .5.5-14 .7-47.2.7-21.5 0-25-.2-26.5-1.7-1.7-1.5-5.3-2.4-3.9-.9q.5.6-.4 2-1.1 1.5-2.6.2-1.4-1.3-2.5-.1c-1.1 1.2-4.7 1.2-10.2 1.2-5.1 0-8.5-.4-7.8-.8q1.1-1 .6-2.6c-.5-1.3-.9-1.4-2.1-.4q-1.5 1.4-2.4-.3-1.1-1.6-.4 1 .7 2.3-.3 1.7-1-.4-1.4.5t-2.1.4q-1.4-.7-1.2-1.6c.3-.5-1.4-.7-3.9-.5s-4.3 0-4.1-.5q.4-.7-.4-1.4c-.5-.3-1.5.3-2 1.2-1 1.7-1.2 1.7-2.1.1q-1-1.5-3-1.1-2 .6-2-1.1 0-1.5-1-1.6-.8.1-.4 1.3.4 1.3-1.1 1.4-2.7 0-.3-2.5c1.7-1.7 6.7-1.5 7.5.3.5 1.4.7 1.4 2.2.1 2.4-2.1 16.1-3.9 24.6-3.1 5.5.5 8.7.3 12.7-.9 4.6-1.4 6.6-1.8 12.6-2.5.7 0 2.9.6 5 1.5m-313.8.8c0 .8.3 2.1.6 2.9q.7 1.7-1.5 1-1.9-.5-1.4-2 .8-1.7-1.5-.9l-4.3 1.2q-2.2.6-1.7-.7c.3-.8 2.2-1.7 4.4-2l4.7-.8q.7 0 .7 1.3m5.5 1.2c-.4 3.6-2.5 5.6-2.5 2.3 0-1.4.5-3 1.2-3.7 1.6-1.6 1.7-1.6 1.3 1.4m228.5-1.5q.1 1 1.5.5c1.7-.6 7.5 1.2 7.5 2.5 0 .4-1.1 2-2.6 3.4-1.4 1.4-2.2 3-1.9 3.5.9 1.4-1.9 1.2-3.4-.3q-1.6-1.5-.7.1c.6.9-.4 1.2-3.8 1-2.5 0-4.6-.5-4.6-.9s-.2-1.4-.5-2.1 1.1-3 3.1-5.1q5.5-5.6 5.4-2.6M27.4 835c-1 .4-2.3.5-2.8.2-1.3-.7 1.6-2.1 3.2-1.4q2 .5-.4 1.2m437.9-.3 3.2 1.7-3.9.7c-2.1.3-4.7.4-5.7.2-1.7-.5-1.7-.7.4-2.4 2.7-2.3 2.2-2.2 6-.2m-429.5 1.2q.5 1.5-.9.5c-.8-.5-2-.9-2.7-1-2.8-.5-2.6-1.6.2-1.2 1.6.1 3.2.9 3.4 1.7m3.2-.9q-.1.9-1.1 1-.8-.1-.4-1t1.1-1q.4 0 .4 1m225 3.8c0 .9-1.1 3.4-2.5 5.5-2.2 3.2-2.9 3.6-4.5 2.7-2.1-1.1-2.3-2.3-1.2-5.2q.7-1.9 2.2-.8 4.4 2.6 3.8-1.5-.6-2.5.8-2.5 1.3.1 1.4 1.8m25.5-.8q-.6.9-1.6 1-.8-.1-.9-1 .1-1 1.6-1 1.3 0 .9 1m197.3 2.7c4.5.3 8.2.8 8.2 1.2s-6.2.8-13.7 1c-7.6.1-13.5-.1-13.1-.5 2-2 5.6-3.2 7.8-2.7 1.4.2 6.2.7 10.8 1m-170.4 1.8q-.7 1.5-3.3 1.4-3 0-.6-.6c1.1-.3 2.4-.9 3-1.4q1.9-2 .9.6m8.6 0q1.6 1.7-.3 1.5-1.3-.1-2.1-1.5-.4-1.3.3-1.5c.7-.2 1.4.7 2.1 1.5m-42.7 1.1c1.2 1.2-1.3 4.2-4.4 5.3q-6 2.1-2.6 0c.9-.5 1.7-1.7 1.7-2.6 0-1.2-.7-1.4-3.5-.9q-5 .8-2.8-1.7c.8-.9 10.8-.9 11.6-.1m-57.8 5q2.7 3.5 1.8 4.5t-2.6-1.5a12 12 0 0 0-5.2-3.6c-4-1.3-3.8-3 .4-3 2.1 0 3.6 1 5.6 3.6m43.2-.7c1.4 2.3.5 3.5-1.4 2-1.4-1.2-1.8-3.9-.5-3.9.4 0 1.3.9 1.9 1.9m-52.1 5.1q1.3.1 1.4.8c0 .5-1.3.7-3 .4q-4.8-.8-1.7-4.1 1.4-1.5 1.5.8.4 2 1.8 2.1m38.9-2.9q.6 1 .2 1.5c-.7.7-3.7-.7-3.7-1.7 0-1.3 2.7-1.1 3.5.2m-16 3.8q-.6 1-1.7.5-.9-.6.3-1.5c1.6-1 2.3-.4 1.4 1"/><path d="M241.4 13.9c-.8.9-.4 22 .6 24.5 1.3 3.5 4.9 3.4 8.2-.2a80 80 0 0 0 8.8-12.7l-3.1-5.4c-2.3-3.7-3.8-5.1-5.5-5.1-1.3 0-2.6-.4-2.9-1-.6-.9-5.1-1-6.1-.1m88.3 428.8c-.3.5.5 1.6 1.8 2.5 2.1 1.6 2.2 1.6 1.7-.8-.4-2.3-2.5-3.3-3.5-1.7m8.3 6.8q0 1.4 1 1.5.8-.1.4-1.5-.6-1.4-1-1.5-.4.1-.4 1.5m3.8 6.2q1.3.4 1.9-.1t-1.3-.5q-1.7 0-.6.6m-9.8 3.7c0 .2 1.1.6 2.5.8s2.5.1 2.5-.3-1.1-.9-2.5-.9-2.5.2-2.5.4m2.6 4.4q-.4 1 .5 1.7c1.4.9 2 .2 1-1.4q-.9-1.2-1.5-.3m-4 12.7q-1.3 4 .5 1.2c.6-1 .9-2.1.6-2.3q-.4-.4-1.1 1.1m-4.1 5.5c-.7 1.1.2 3 1.4 3q.9-.2 1.4-2c.5-2.1-1.6-2.9-2.8-1m5 4.5-.9 2.9q-.4 1.5.9.9c.8-.3 1.4-1.6 1.3-2.9q-.4-4.1-1.3-.9m-5.3 1.5q0 2.2.5 1.2c.2-.6.2-1.8 0-2.5q-.5-.9-.5 1.3m3.1 6.6q.1 1.3 1.4 1.4t1.3-.9c.1-.9-.6-1.1-1.3-1.4q-1.3-.4-1.4.9m-11.3 2.3q.1 2 1 2.1 1-.1 1-1.4c0-.8-.4-1.8-1-2.1q-.9-.4-1 1.4m2 5.5q0 1.4.9 2 .8.4.4-1.4-1.1-3.5-1.3-.6m7 1.3q0 1.4.7 1 .6-.5 1.7.9 1.3 2 1.4-1 .3-2.8-1.8-2.6-1.9.1-2 1.7m2.1 6.9q0 1.7.6.6c.3-.7.2-1.6-.1-1.9q-.6-.5-.5 1.3m-5 13q0 1.7.6.6.4-1.2-.1-1.9-.6-.5-.5 1.3m-.6 3.4q-.4.9.4 1 1-.1 1.1-1 0-1-.4-1t-1.1 1m.5 9.9q.1 1 1 1.6c.6.3 1 1.7 1 3.1 0 1.3.3 2.4.8 2.4s.6-1.8.4-4q-.4-4-1.8-4t-1.4.9m-32-105.3q.1 1.3 1 .9 1-.7.5-1.6-1.4-2-1.5.7m15.6 2.1q-.7 1.6 1.4.3 3.5-1.8.5-1.7-1.3.1-1.9 1.4m-9.8 2-.3 3.3c-.3 3.4.9 3 2.1-.6 1.7-4.8 1.7-4.4-.1-4.4q-1.4.2-1.7 1.7m16.6.1c.3.5-.1 2-.9 3.5-1.3 2.5-1.2 2.7.9 2.7 1.9 0 2.1-.4 1.8-3.5-.2-1.9-.8-3.5-1.4-3.5q-.8.1-.4.8m-7.4 2.1c0 1.1-.4 2.3-1 2.6-1.3.8-1.3 6.5 0 6.5 1.8 0 3.2-4 1.9-5.6q-1.2-1.5 0-1.4c1.4 0 1.5-2.7.1-3.5q-.9-.4-1 1.4m-13.4 1.4q.6 1.6 1.2 1.2.4-.6-.7-1.8-1.5-1.4-.5.6m5.6 7.2q0 2.6.5 1.2c.2-.9.2-2.3 0-3q-.5-.8-.5 1.8m10.2-1.1c-1 2.7.2 4.3 1.4 1.9q1.2-2.2.2-2.8-1-.4-1.6.9m-30.4-6.8c0 1 6.3 8.4 7.2 8.4 1.6 0 .8-2.9-1.8-5.9-2.2-2.7-5.4-4.2-5.4-2.5m-18.6 7.2a89 89 0 0 0-13.4 17.8c-1.1 2.9-3.6 13.1-5.1 21.3a180 180 0 0 0-7.7 40.8q.2 4 2.1 4.1c1.5.3 1.7-.5 1.7-6.2 0-8.7 3.2-24.6 9-44.6l3-10.7c1-3.9 10.6-18.1 14.3-21.2.9-.7 1.7-2 1.7-2.7 0-2.3-2.6-1.6-5.6 1.4"/><path d="M256.7 465.7c-.8 1-4 9.2-7 18.3-5.5 16.8-7.6 27.3-5.6 28.5 1.6 1.1 2 .2 3.5-7.7.7-4 2-9.8 2.9-12.7 1.6-5.9 8.1-21.8 9.7-23.8 1.1-1.4.4-4.3-1-4.3q-1 .2-2.5 1.7m-18.5 10.5c-2.1 2.8-4.3 8.1-3.8 9.4.9 2.2 2.6 1.6 3.7-1.3.6-1.6 1.7-3.6 2.6-4.5 1.5-1.7 1.2-4.8-.5-4.8q-1 .2-2 1.2m45.3 16.9q-.6 1-.2 1.6c.7.7 2.7-.6 2.7-1.8s-1.7-1.2-2.5.2m-7.4 8.6c-1.3 4.7-1.4 6.3-.2 6.3 1.4 0 1.9-1.2 2.7-5.8.8-5.4-1.1-5.7-2.5-.5m-34.5 23.5c-2.3 7.2-2.6 55.1-.5 65.8 2 10.4 2.9 13 4.6 13q1.6 0 1-2.3c-3.7-16.5-3.8-18-4.1-52.2 0-5 .6-11.6 1.3-14.9 1.3-6 .9-10.6-1-10.6q-.9.2-1.3 1.2m-9.5 9a22 22 0 0 0-.5 8.8c.3 3.1-.4 15.1-1.6 27.5a364 364 0 0 0-.9 64.4c1.4 9 7.4 19 10 16.4q1.2-1-1.4-5c-1.4-2.2-3.1-6-3.8-8.4-1.8-6.2-1.9-51.7-.1-62.4 1.8-10.4 2.2-43.7.6-44.2-.7-.2-1.7 1.1-2.3 2.9m55.5 10c-1 4.9-1.5 22.8-.6 23.3 2 1.3 3.4-4.4 3.4-14.4.1-7.3-.3-10.6-1.1-10.8q-1.1-.2-1.7 1.9m-40.9 65.5c-.3.5-.3 2.3.2 3.9.9 3.4 4.1 4.6 4.1 1.6 0-2.5-3.5-6.9-4.3-5.5m61.7-7.6c-.4.8-.7 2.4-.5 3.6q.4 2.4-1.3 1.7a2.4 2.4 0 0 1-1.4-2.3q.3-1.6-1.9-1.9c-2.4-.4-3.1 1.6-1.2 3.5q1.1 1-2.5 2.7c-2 .9-3.6 2-3.6 2.5q-.2 2.6 4.6.5c3.1-1.3 3.7-1.3 5 .1q4 3.7 3.5-2.1c-.1-.7.8-1.4 1.9-1.7q3.8-1.1.2-5.8c-1.5-1.8-2-2-2.8-.8m-15.8 2.7c-.9 1.4 2.1 3.5 4 2.8.8-.3 1.4-1.2 1.2-1.9-.6-1.5-4.4-2.2-5.2-.9m7.4 11.7q-1.4 1.6-.3 2.6c1.4 1.4 5.6-.7 5-2.4-.6-1.9-3.2-2-4.7-.2m95.3-8.9c-4 3.1-4.2 5.9-.6 9.6 2.2 2.3 2.4 3 1.3 4.3-1.5 1.8-.9 2 6.1 3 3.7.5 4.8.3 5.2-1 .4-.8 1.7-1.5 3-1.5 2.9 0 8.7-5.8 8.7-8.7 0-1.2-1.2-3.5-2.6-5.2-2.9-3.5-8.6-4.3-10.2-1.5-.8 1.4-1 1.4-2.1 0-1.9-2.3-5.1-1.9-8.8 1m6.7.7q.1 2.9-3.1 2-2.2-.4-.8-1.9c1.5-1.8 3.9-1.8 3.9-.1m-16.4 9.8c-2 3.9-1.4 4.9 3 4.9q5.5 0 1.9-3-1.4-1.2-1.5-2.6c0-2.7-1.9-2.3-3.4.7m70.8-6c-1 1.7 1.3 3.6 2.7 2.2 1.2-1.2.4-3.3-1.1-3.3q-.9.1-1.6 1.1m-21.2 2.1c-5.2 3.3-3.6 5.2 2.1 2.5 2.6-1.2 3.5-3.1 1.9-4.1-.4-.2-2.2.5-4 1.6m7.8-.8q.1 1.5 2.1 1.6c2.4 0 2.1-2.3-.4-2.8q-1.6-.2-1.7 1.2m7.2.3q.4 1.6 1.8 1.8c2.2 0 1.8-2.9-.3-3.3q-2-.5-1.5 1.5m-12.2 4.8c-.7.8-2.3 1.5-3.6 1.5-3.1 0-3.2 2.6-.1 3.4 3.7 1 4.3.7 5.6-2.1 1.4-3.1.1-5.2-1.9-2.8m15.6-.8c-1.1 1.1-.6 2.3.9 2.3q1.4 0 1.5-.9c0-1.3-1.6-2.2-2.4-1.4M307.5 626c-.8 1.3.4 3.2 1.6 2.5s1.2-3.5 0-3.5q-1 0-1.6 1m18.9 2.1c-.9 1.6 1.2 3.3 3.1 2.5 1.4-.5 1.5-.9.5-2.1q-2.2-2.7-3.6-.4m-16.7 2.6c-.4.3-.2 1.2.4 1.9.6.8.9 2 .6 2.8-.9 2.3 1.2 3.4 4.9 2.6 3.2-.7 3.6-.6 4.5 1.7 1.1 2.9 3.3 2.6 3.7-.6.5-3-1.3-5-3-3.3q-1.2 1-2.2.3a9 9 0 0 0-3.6-1.3c-1.9-.2-2.4-.8-2.2-2.6.3-2.1-1.6-3.1-3.1-1.5m13.3 2.8q.1 1.3 1.5 1.5c1.4.2 1.5-.7 1.5-1.5s-.7-1.5-1.5-1.5-1.5.7-1.5 1.5m-13.6 6.6c-1 1.7 1.3 3.6 2.7 2.2 1.2-1.2.4-3.3-1.1-3.3q-.9.1-1.6 1.1m-6 4c-1 1.7 1.3 3.6 2.7 2.2 1.2-1.2.4-3.3-1.1-3.3q-.9.1-1.6 1.1m-112.9-5.7c-1.2 7.5 1 14.1 5.9 18a27 27 0 0 0 9 5.6c2 0 0-3.3-3.3-5.7-5.7-4-7.3-7.4-7.5-15.2-.1-5.3-.4-6.6-1.8-6.9-1.3-.2-1.8.7-2.3 4.2m173.7-5.2q-1.1 1.2-1.2 2c0 1.2 2.8 1 3.6-.3 1-1.7-1-3.1-2.4-1.7m20.4-.5c-1.5 1.6-.5 3.5 1.6 3 1.2-.4 2.8-.1 3.5.5q1.4 1.2 2.5 0c1.4-1.4 0-3.5-2.2-2.9a5 5 0 0 1-3.2-.4c-.8-.5-1.8-.6-2.2-.2m10.1 1c-.2.5-.3 2.4-.3 4.3q.1 3.5 1.6 3.5c1.5 0 3-4.9 2.2-7.3-.5-1.3-2.9-1.7-3.5-.5m6.9 1.2c-.7 1.1 1.8 3.3 2.7 2.4q.6-.6.7-2c0-1.5-2.6-1.8-3.4-.4m-15.2 4.2c-.8 1.4 1.1 3.3 2.5 2.5a3 3 0 0 0 1.1-2.2c0-1.6-2.6-1.9-3.6-.3m6.6 3.9q-1.7.9-.2 2.2 1.2 1.4 2.4 0c1.6-1.6-.2-3.4-2.2-2.2m77 2.5q.1 1.3 1 1.5 1-.2 1-1.5c0-1.3-.4-1.5-1-1.5q-.9.2-1 1.5m-5 .5q.1.9 1 1 1-.1 1-1t-1-1a1 1 0 0 0-1 1m14.7-.3q-1.8 1.8 1.2 2.6 2.1.4 1.4 2.7-.6 2.4.8 1.8c2.2-.7 2.3-4.8.2-6.3-2.1-1.6-2.7-1.8-3.6-.8m-6.7 2.9q0 1.4 1.2 1.2c1.8-.6 2.1-2.8.4-2.8q-1.5.1-1.6 1.6m-12.8 2.6c.4 4.5 2.6 4.8 2.5.4q-.2-3.5-1.5-3.6c-1.3-.1-1.2 1-1 3.2m9.4-.5c-1.1 1.1-.6 2.3.9 2.3q1.4 0 1.5-.9c0-1.3-1.6-2.2-2.4-1.4m-5.1 3.2q-.4.9.5 1.6c1.2.7 3-.2 3-1.6 0-1.2-2.7-1.2-3.5 0m13 .2c-1 1.5.3 2.5 1.6 1.2q1-1 .1-1.7-1-.4-1.7.5m-4.8 2.6c-.9 1.5-.2 5.6 1 6q1 .3 1.1-3.2c0-3.2-1-4.6-2.1-2.8m9.8 6.3q.6.9 1.1 1 .4-.1.4-1-.1-1-1.1-1-.8 0-.4 1m-403-21c-1.4 2.2.9 2.9 8.8 2.7 6.5-.2 8.2-.5 8.2-1.7s-1.7-1.6-8.2-1.8c-4.9-.2-8.4.1-8.8.8m19 1q-2.2 3.4 7.5 2.7 11.2-.7 7.9-2.8c-1.9-1.2-14.6-1.1-15.4.1m71.7 23.2c.3.7 1.7 1.4 3.2 1.6q3 .5 2.4-1c-.3-.7-1.7-1.4-3.2-1.6q-3-.5-2.4 1M54 669q.1.9 1 1 1-.1 1-1t-1-1a1 1 0 0 0-1 1m50.5 7.9q-.4.9.5 1.6.9.4 1-.9 0-2.7-1.5-.7M266 665.3c-4.9 2.6-11.7 3-14.4.8-2.4-2-7.6 2.1-7.6 6 0 3.1 2.7 4.2 3.5 1.4 1.7-5.3 1.5-5.2 2.6-3.3q1 1.8-.2 3.9t0 3.2c1.3 1.3 3.9-.7 4.3-3.5.5-3.2 2.8-3.5 2.8-.4 0 3.3 2.3 3.4 4.7.1q1.8-2.6 3.3-1.5c1.3.8 1.3 1.1.1 1.9-1.9 1.2-.6 4.1 1.8 4.1 2.8 0 3.6-1.8 1.7-3.9-1.3-1.4-1.4-2.4-.7-4.5 1.4-3.4 3.3-3.4 2.9.1-.4 3.3 2.5 4 3 .7.3-2.4-1.4-7.4-2.5-7.4-.5 0-2.8 1.1-5.3 2.3m-10.3 13.3c-1.4 1.5-.6 3.4 1.4 3.4q2 0 1.7-1.7c-.3-1.8-2-2.7-3.1-1.7m-7.4 2c-.7 1.8 1.1 3.9 2.6 3 1.7-1.1 1.3-4.6-.4-4.6q-1.5.1-2.2 1.6m76.3-10.7c-2.9 3-2.8 5.1.3 5.1.9 0 2.5.6 3.5 1.3 1.6 1.2 1.6 1.4.2 2.6-2.4 2-2 4.3.7 3.9q2.1-.3 2.5-2.7c.3-1.8.8-2.2 2.8-1.8 1.3.2 2.9-.2 3.5-1q1.1-1.4 2.4-.3c1.5 1.2 4.5.3 4.5-1.4s-4.7-5.9-5.8-5.2c-.5.3-3.3-.3-6.3-1.4l-5.4-2zm5.9 3.1c.8 1.3-.5 1.3-2.5 0q-2-1.1.2-1c.9 0 2 .4 2.3 1m15.9-1.6c-.9 2.4.3 4.7 2.1 4s1.9-2.8 0-4.4c-1.2-1-1.6-.9-2.1.4"/><path d="M320.3 677.6c-.8 2.1 1.3 4.2 2.8 2.7 1.3-1.3.5-4.3-1.1-4.3q-1 .1-1.7 1.6m13.8 6.3c-1.4 2.6 1 4.8 2.9 2.6 1.3-1.6.7-4.5-.9-4.5q-1 .2-2 1.9m86.4-13.1c-1.1.2-2.7 1-3.5 1.7s-2.3 1.5-3.2 1.8q-1.6.7-1.8 2.2.2 1.3 1.8 1.5c.9 0 2.7.3 3.9.6q2.4.8 3-1.2a9 9 0 0 1 2.6-3.4c1.6-1.3 1.7-1.8.6-2.6-.8-.6-2.3-.9-3.4-.6m6.8.4c-1 1.1-.6 2 1.8 4.2 3 2.9 6.4 3 5.3.1q-.6-1.3-1.6-1.5-1.3-.3-2.7-2.1c-1.4-1.8-1.9-1.9-2.8-.7m-5.3 6.7c0 .5.7 2.2 1.5 3.7 2 3.8 1.9 5.1-.5 7.1-2.7 2.3-2.5 3.7.6 5.1 3.8 1.8 11.3-.3 12.5-3.5.5-1.3.9-3.1.9-3.9 0-2.4-2.8-1.6-4.2 1.3-.7 1.4-2.3 3-3.5 3.4-2.1.8-2.2.6-1.6-4.1.4-3.7.1-5.6-1.1-7.5-1.6-2.4-4.6-3.5-4.6-1.6m11.7 1.8c-1.4 1.3-.6 3.3 1.3 3.3q2 0 2-2c0-1.9-2-2.7-3.3-1.3m17.7 26.4q-.4 1.1.2 1.9c1.2 1.2 3.8-.5 3-1.9-.9-1.4-2.3-1.4-3.2 0m6.2-.3c-.3.6-.3 1.7 0 2.5s0 1.8-.5 2.2c-1.4.8-.4 2.5 1.4 2.5q1.4 0 1.2-3.4-.5-5.9-2.1-3.8m5.1.8c-.8.8.1 2.4 1.4 2.4q.8-.2.9-1.5c0-1.5-1.2-2-2.3-.9m1.8 7.3c-.7 1.2 1.2 2.4 2.5 1.6 1.1-.7.4-2.5-1-2.5q-.8 0-1.5.9m-7.6.3-.4 4q-.3 4 1.2 3.8 1.4 0 1.1-2.3-.4-2.4 2-2.5c3.1-.5 2.3-2.6-1.1-3-1.5-.2-2.8-.2-2.8 0m11.7 1.7q-.4 1 .8 2c1.6 1.3 3.2-.2 2.1-1.9-.8-1.2-2.2-1.3-2.9-.1m-11.9 9.7c-.9 1 .2 2.4 1.9 2.4q1.3-.2 1.4-1.5c0-1.5-2.1-2.1-3.3-.9m-144.7-22q0 1.4 1.2 1.2c1.8-.6 2.1-2.8.4-2.8q-1.5.1-1.6 1.6m52.5 1.3a15 15 0 0 0-4 3c-1.6 1.9-1.7 2.4-.5 3.2q1.5 1 2.9-1.1c.7-1.1 2.1-2 3.1-2 2 0 4.3-2.3 3.3-3.3q-1.1-1.3-4.8.2m11 2.8c-1.3 1.9-1.4 2.8-.6 3.6q1.1 1.4 3.5-1.8c2.3-2.9 2.5-2.9 4.4-1.2 2.5 2.3 1.8 6.1-1.4 7.6-3.5 1.5-3 3.3.8 2.9 2.6-.2 3.6-1 4.9-3.7 1.8-3.9 1.4-7.8-1-9a14 14 0 0 0-5.3-.9c-2.8 0-4.1.6-5.3 2.5m-6.3 1q.4 1.7 1.8 1.8c2.2 0 1.8-2.9-.3-3.3q-2-.5-1.5 1.5"/><path d="M373.2 713.2q-1.1 1.2-1.2 2c0 1.2 2.8 1 3.6-.3 1-1.7-1-3.1-2.4-1.7m-14.7.8c-.9 1.5.5 3.2 2.2 2.6.9-.4 2.2-.1 3 .5 1.1.9 1.7.9 2.6 0q1.4-1.2-.3-2.1-1.4-.8-2.2-.4c-.4.3-1.6 0-2.7-.6q-2-1-2.6 0m14 7q-.4 1 1 1.6c1.9.8 3 0 2-1.5-.8-1.4-2.2-1.4-3-.1m-83-22.2c-1.3 1.3-.3 3.3 1.5 3 1-.2 2.6.6 3.4 1.7 1.8 2.5 2.9 1.6 2.1-1.8q-.6-2.6-3.6-2.9a7 7 0 0 0-3.4 0m-9.8 3.7c-1.7 2.3-1.7 2.6-.1 5 2 3 1.9 3 5 .6 2.5-1.9 2.5-1.9 7.4.6 2.8 1.4 5 3.1 5 3.8q.1 1.3 1.5 2.5c1.2 1 1.6.9 2.1-.3.7-1.9-2.3-6.7-4.2-6.7-.7 0-1.8-.8-2.3-1.9-1.4-2.5-5-3.3-9.1-2.1q-3.7 1.1-2.2-.2 1.1-1.2 1.2-2.5c0-2.1-2.4-1.4-4.3 1.2m-.2 11.5q-.6 1.1.3 2.2 1 1 1.7-.2t-.3-2.2-1.7.2m12.8 5.5c-2.4 2.4-3 4.5-1.2 4.5 1.5 0 6.9-5.6 6.2-6.4q-1.6-1.7-5 1.9m-14.9 1.6c-1 1.7 1.3 3.6 2.7 2.2 1.2-1.2.4-3.3-1.1-3.3q-.9.1-1.6 1.1M415 749.5q0 1.5 1.8 1.3c2.1-.4 1.9-2.2-.2-2.6q-1.5-.3-1.6 1.3m-17.8 1.3q-1 .5-1.2 1.5-.3 1.4-1.6 2.8-1.6 1.9-.9 3.6c.5 1 .9 2.5.9 3.3.1 2 4.6 2.6 4.6.6 0-.8-.4-1.8-1-2.1-1.8-1.1-1.2-5.5.8-5.6l3.7-.3c3.1-.2 2.4-2.9-1-3.6a9 9 0 0 0-4.3-.2m12.2 1.7q-.7 1.3-2 1.5c-1.3.2-1.4.9-1.4 2 0 2.3 2.8 2.7 3.6.5q.7-1.3 2-1.5c1.3-.2 1.4-.9 1.4-2 0-2.3-2.8-2.7-3.6-.5m-2.8 8q-.4 1.5 1 2.2 3 1 2.1-2.2c-.8-1.9-2.3-1.9-3.1 0m-5.3 3.1c-.3.8-.1 2 .6 2.7 1.4 1.4 4.7-1.5 3.7-3.2-1-1.6-3.6-1.3-4.3.5M79 713.5q-1.7 1.8.4.9 1.5-.6 1.6-1.5 0-2-2 .6m6.3.7c.3 1 .1 2.1-.4 2.4s-.9 1.4-.9 2.5q0 2-1.2 1.3-1-.6-.4.4c1.2 2 2.6 1.3 2.6-1.1q.1-2.3 1.4-2.4 1.3.1.9 1.2-.2 1.2 1.3 1.9 1.8.8 1-1.1-.6-1.5.4-2.3 1.2-.7-.4-2.2-1.3-1.5-1.1-2t-1.6-.4q-2 0-1.6 1.8m12.1-1.5q.6 1.2-.3 1.3-1.2.2-.4 1.6c.5 1.5.7 1.5 1.6-.1q.9-1.8-.3-2.8-1.4-1.4-.6 0m100.2.1q-.4 1 .9 2.2c1.6 1.4 2 .3.6-1.9q-.8-1.2-1.5-.3M64.5 714q.5.9 1.1 1 .3-.1.4-1-.1-1-1.1-1-.8 0-.4 1m4 0q.5.9 1.1 1 .3-.1.4-1-.1-1-1.1-1-.8 0-.4 1m55.5-.1q0 1 1 1.6.9.4.4-.9-1.2-2.7-1.4-.7m18 .8q.1 1 1 2.3 1.1 2 1-.2 0-1.7 1.5-1.2 1.4.5 1.5-.5c.1-1-1.1-1.1-2.5-1.1s-2.5.3-2.5.7m20 .3q.1.9 1 1 1-.1 1-1t-1-1a1 1 0 0 0-1 1m-59 2q.1.9 1.6 1 1.3-.1.9-1-.6-1-1.6-1-.8 0-.9 1m10 0q.1.9 1.1 1 .8-.1.4-1t-1.1-1q-.3 0-.4 1m63.3.5q-2.1.9-2.3 1.8c0 .7 3.8 0 4.9-.9s-.8-1.8-2.6-.9m6.7-.5q.1.9 1.5 1c1.4.1 1.5-.5 1.5-1q-.1-1-1.5-1c-1.4 0-1.5.4-1.5 1m-30 .8q.1.9 1.3 2.7 1.4 2 2.1.6c.4-.6.2-1.8-.4-2.6-1.3-1.6-3-2-3-.7m34 .2q.1.9 1 1 1-.1 1-1t-1-1a1 1 0 0 0-1 1m-132 2.1q.1.8 1 .4t1-1.1q0-.4-1-.4-.9.1-1 1.1m107.7.9q-.4 2 .9 2c1.5 0 1.9-2.6.5-3.4q-.8-.4-1.4 1.4m12.8 2q.7.9 1.6 1 .9-.1.4-1a2 2 0 0 0-1.6-1q-.9 0-.4 1m8.5 13q.1.9 1.1 1 .8-.1.4-1-.6-1-1.1-1-.3 0-.4 1m26.1 1.3q-1.2 1.5.4 1.4 1.4-.1 1.5-1.4 0-1.2-.4-1.3-.6 0-1.5 1.3m-40.1.7q.1.9 1.6 1 1.3-.1.9-1-.6-1-1.6-1-.8 0-.9 1m13.4 2.5c-.8 2.1.4 3.5 2.4 2.8 1.5-.6 1.6-.5.2 1.3q-2.2 2.6.2.5a5 5 0 0 1 4.3-.7c2.1.5 2.5 1.2 2.5 4.1q-.1 3.7 1.5 2.9 1.3-.5 2.1 1c.3.9 1.4 1.6 2.3 1.7q1.5 0 .4.6c-1.5.5-1.7 2.3-.4 2.3 2.1 0 2.1-3.5 0-5.1q-2.2-1.6-1.7-3.6c.4-1.7.2-1.9-1.5-1.5q-2 .5-1.3-.6c.4-.6-.4-1.6-1.6-2.3a8 8 0 0 1-3.1-2.6q-.8-1.2-1.7-.8t-1.5-.5c-.9-1.5-2.5-1.2-3.1.5m-5.4 3c0 1.6 1.6 2 2.4.6q.4-.8-.9-1.5-1.4-.4-1.5.9m37.6 1.2q-1 2 .5.6 1.1-1.2.7-1.8-.6-.4-1.2 1.2m-36.6 2.8q-1 1.4-.2 1.5.9-.2 1.6-1.5.5-1.3.2-1.5c-.3-.2-.9.7-1.6 1.5m45.6 0q.7 1.3 1.5.9c1.4-.8 1-2.4-.6-2.4q-1.3 0-.9 1.5m-.5 5.7c-.9 2.4.4 5.2 2 4.2 1.3-.7 1.1-6.4-.1-6.4q-1 .2-1.9 2.2m35.4-17.3c-.8 1.5.3 3.1 2.1 3.1q1.4-.1 1.2-1.7c-.4-2-2.4-2.8-3.3-1.4m-8.9 5q-.4.9.9 2.1t1.5 2.6c0 2 1.9 2.7 3.6 1.3 1.4-1.1 1.4-1.5.2-2.3a8 8 0 0 1-2.1-2.9c-.7-1.8-3.2-2.3-4.1-.8m10.1 4.7c-1.4 1.4-.7 3.5 1.1 3.2q1.5-.5 1.7-1.7c0-1.6-1.8-2.5-2.8-1.5m-11.5 9.1q.4 1.7 1.8 1.8c1.4.1 1.6-.8 1.8-1.8q.4-1.7-1.8-1.7c-2.2 0-2 .5-1.8 1.7m-11.6.8c-.6 1.7 1.6 3.1 3.3 2.1 1.3-.9.2-3.6-1.4-3.6-.7 0-1.6.7-1.9 1.5m6 4q-.4 1.5 1 2.2 3 1 2.1-2.2c-.8-1.9-2.3-1.9-3.1 0m6.6 3.4c-1.5.9-.5 4.1 1.3 4.1q1.3-.1 2.1-1.1c.9-1.5-1.8-4-3.4-3M239 768q0 2 2 2c2 0 2-.7 2-2s-.7-2-2-2-2 .7-2 2m-130-22q.1.9 1.1 1 .8-.1.4-1t-1.1-1q-.3 0-.4 1m1.5 3q.5.9 1.1 1 .3-.1.4-1-.1-1-1.1-1-.8 0-.4 1m241.1.6c-1.1 3 3.3 6 4.9 3.4.8-1.3-1.3-5-2.9-5q-1.4.1-2 1.6M90.5 741q-.4.9.4 1 1-.1 1.1-1 0-1-.4-1-.6 0-1.1 1m236.5 3.5q.1 1.3 1.5 1.5c1.4.2 1.5-.7 1.5-1.5s-.7-1.5-1.5-1.5-1.5.7-1.5 1.5m-10.9.9c-1.2 1.4-.5 2.6 1.6 2.6 1.5 0 1.8-2.6.4-3.4q-1-.4-2 .8m15.6-.8c-.9 1 .2 2.4 1.9 2.4q1.3-.2 1.4-1.5c0-1.5-2.1-2.1-3.3-.9m-9.6 5.8q-1.3 1.4-.1 2.1c1.7 1 3.7-1.2 2.4-2.5q-1.1-1.1-2.3.4m-10.4.2c-.9 1 .2 2.4 1.9 2.4q1.3-.2 1.4-1.5c0-1.5-2.1-2.1-3.3-.9m23.3 1.9q.1 1.3 1.5 1.5c1.4.2 1.5-.7 1.5-1.5s-.7-1.5-1.5-1.5-1.5.7-1.5 1.5m-16.6 3.6c-1 1.7 1.3 3.6 2.7 2.2 1.2-1.2.4-3.3-1.1-3.3q-.9.1-1.6 1.1m14.6-.1q-1.7.9-.2 2.2 1.2 1.4 2.4 0c1.6-1.6-.2-3.4-2.2-2.2m-21.5 2c-.8 1.2 2 2.4 3.5 1.5.6-.3.8-1.1.5-1.6-.8-1.2-3.2-1.2-4 .1m22.5 6.5q0 1.5 1.8 1.3c2.1-.4 1.9-2.2-.2-2.6q-1.6-.3-1.6 1.3m151.1-21.6c-1.7 1.1-.7 4.1 1.3 4.1 2.2 0 3-2 1.5-3.6q-1.4-1.2-2.8-.5M490 753q0 2.2 1.8 1.8 1.5-.5 1.7-1.8c.2-1.3-.8-1.6-1.7-1.8q-1.9-.4-1.8 1.8m-4.8 7.3c-1 1.1-.9 1.7.3 2.7 2.4 2 4.5-.4 2.4-2.6-1.4-1.3-1.7-1.3-2.7-.1m4.3 6.7q-.6 1.2.3 2.2c1.4 1.4 4.5.2 4-1.5s-3.4-2.1-4.3-.7m-50.1 9.1c-1 1.7 1.3 3.6 2.7 2.2 1.2-1.2.4-3.3-1.1-3.3q-.9.1-1.6 1.1m7.3-.4c-.3.4-.4 2.4-.3 4.3q.1 3.6 1.9 3.8c1.6.3 1.7-.1 1.1-3.5-.7-4-1.8-6-2.7-4.6m5.8.3q-.6 1.1.3 2.2 1 1 1.7-.2t-.3-2.2-1.7.2m5.6.9q-1.2 2 .4 3.1c1.9 1.6 3.5.4 3.5-2.6 0-2.9-2.5-3.2-3.9-.5m7.3.2c-.8 1.4 1.8 3.1 3 1.9.9-.9 0-3-1.4-3q-.9.1-1.6 1.1m-8 8c-1 1.7 1.3 3.6 2.7 2.2 1.2-1.2.4-3.3-1.1-3.3q-.9.1-1.6 1.1m-11.4 3.3c0 1.5 2.4 2.8 3.4 1.9 1.3-1.4.5-3.3-1.4-3.3q-1.8.1-2 1.4m11.1 3.9c-1.2 1.5-.5 2.7 1.6 2.7q1.2-.2 1.3-2c0-2.3-1.3-2.6-2.9-.7m5.9 5.1q.1 1.5 1.6 1.6c1.7 0 1.4-2.2-.4-2.8q-1.1-.2-1.2 1.2m-212.8-19.8c-1.2.8-2.2 2.4-2.2 3.4 0 5.4-3.5 6.8-5.1 2q-1-3.2-3.4-3-5 0-1.6 4.6c2.7 3.4 2.6 4.2-.3 5.5s-3.9 4.4-2.1 5.9q1.3 1.4 2.4-.9c1.7-3 7.4-3.8 11.6-1.5l3.4 1.8 4.6-4.6c3.6-3.7 4.5-5.3 4.5-8 0-2.1-.7-4.2-1.8-5.1-2.3-2.1-7.1-2.2-10-.1m-5.9 28.6c-2.3 1.1-3.2 3.8-1.3 3.8 2.1 0 7.1-3.1 6.5-4q-1.1-1.9-5.2.2m-6 5.4q-1 3 2.2 2.1c1.9-.8 1.9-2.3 0-3.1q-1.5-.4-2.2 1m-.3 8.5c0 2.5 3.3 2.2 3.8-.4q.3-1.7-1.7-1.7-2.2 0-2.1 2.1m7.5-1.1c-.8 1.4.3 3 2.1 3q1.3-.2 1.4-2c0-2.1-2.4-2.8-3.5-1m35.7-20.4c.4 2.1 2.2 2.3 2.6.1q.3-1.6-1.3-1.7c-1.6-.1-1.5.6-1.3 1.6m13.3-.7q-.4.9.5 1.6c1.2.7 3-.2 3-1.6 0-1.2-2.7-1.2-3.5 0m72.5-20.4q.1 1.3 1.5 1.5c1.4.2 1.5-.7 1.5-1.5s-.7-1.5-1.5-1.5-1.5.7-1.5 1.5m-6.3.1c-1.4 1.4-.7 3.5 1.1 3.2q1.5-.5 1.7-1.7c0-1.6-1.8-2.5-2.8-1.5m12.9 1.3c-.7 1.1 1.8 3.3 2.7 2.4q.6-.6.7-2c0-1.5-2.6-1.8-3.4-.4m-20 3c-.8 1.2 2.1 3.4 3.4 2.6 1.7-1.1 1.1-3.5-.9-3.5q-1.9 0-2.5.9m21.8 3.2c-1 1.7 1.3 3.6 2.7 2.2 1.2-1.2.4-3.3-1.1-3.3q-.9.1-1.6 1.1m-11.3 2.3q-1.4 1.3.4 2.6c1.9 1.6 4.1-.1 3.2-2.4q-1.3-3-3.6-.2M353 789q.1 1.8 1.5 2c1.4.2 1.5-.9 1.5-2s-.7-2-1.5-2-1.5.9-1.5 2m22.2 3.2q-2.6 2.8.8 2.8 1.8-.1 2-1.4c0-2.1-1.5-2.7-2.8-1.4m-18.7 1.7c-.8 1.5.3 3.1 2.1 3.1q1.4-.1 1.2-1.7c-.4-2-2.4-2.8-3.3-1.4m9.5 2.6c-1 1.2-.9 1.6.5 2.1 1.9.8 4-.9 3.1-2.5q-1.4-2.3-3.6.4m-259-19.7c0 .4.6 1.4 1.3 2.1q1.5 1.6-.3.6-2-1.3-.1.8c1.6 2 1.6 2 3 .3.9-1.1.8-1.8-.4-3-1.8-1.7-3.5-2.1-3.5-.8m8.5 5.3q-.6 1-.2 1.5.4.3 1-1.1c.7-1.7.1-2-.8-.4m262.9 39.3c-.9 2.4 1.2 4.4 2.8 2.8 1-1 .8-1.6-.5-2.9-1.5-1.5-1.7-1.5-2.3.1m15.3-12.8c-1.4 1.4-.7 3.3 1.6 4 1.2.3 3.5 1.6 5 2.7 2.2 1.5 2.7 2.5 2.3 4.2-.7 2.9 2.1 5.7 3.4 3.5.5-.8.6-1.9.2-2.4s-.5-2.3-.4-3.8c.2-2.2-.3-3.1-2.3-3.8-1.4-.5-2.5-1.4-2.5-1.9s-.8-1.1-1.7-1.4c-1-.2-2.5-.8-3.4-1.1q-1.4-.5-2.2 0m23.7 7.5q-.4 1.1.8 2.5c1.3 1.3 1.6 1.3 2.7 0 .7-.8 1-2 .6-2.6-.8-1.3-3.2-1.3-4.1.1m7 4.4c-.7 1.8.3 3.5 2.1 3.5 2.1 0 2.8-1.9 1.5-3.5q-2.5-2.8-3.6 0m-27.4 1.9c0 2.4 2.6 3.8 4 2.2q1-1.5.5-2.6c-.9-1.5-4.5-1.2-4.5.4m11.7 0c-.8 2 2 4.3 3.5 2.8 1.4-1.4.3-4.2-1.6-4.2-.7 0-1.6.6-1.9 1.4m7.7-.3q-.4 1.1.8 2.5c1.3 1.3 1.6 1.3 2.7 0 .7-.8 1-2 .6-2.6-.8-1.3-3.2-1.3-4.1.1m2.6 5.4c-1.1 1.3-1.1 1.9.2 3.2 1.7 1.6 3.8 1 3.8-1.1q-.1-1.4-1.4-2.5-1.3-1.4-2.6.4m-17 1.5q0 2.2 1.8 1.8 1.5-.5 1.7-1.8c.2-1.3-.8-1.6-1.7-1.8q-1.9-.4-1.8 1.8m-86.7-18.3c-2 .7-1.5 2.6 1.3 4.6 2.3 1.8 5.5 1.7 5.3 0-.1-1.4-5.4-5-6.6-4.6m12.8 4.7c-1.2 1.4-.5 2.6 1.6 2.6 1.5 0 1.8-2.6.4-3.4q-1-.4-2 .8m-2.1 10.1q0 1.5 1.8 1.3c2.1-.4 1.9-2.2-.2-2.6q-1.6-.3-1.6 1.3M483.4 815c.4 4.8 2 7 3.7 5.3q1-1.2.4-3c-.4-1-.8-2.7-.9-3.8q-.3-1.8-1.9-2.3c-1.4-.3-1.7.3-1.3 3.8m-465.9 4q-.4.9.4 1 1-.1 1.1-1 0-1-.4-1t-1.1 1m350.2 18.3c-.3.7-.1 2 .3 2.8q.9 1.7 1.6-.4c.4-1 .2-2.3-.3-2.8q-1-1-1.6.4m-30.2 1.7q-.5.9.4 1 1-.1 1.6-1 .5-1-.4-1a2 2 0 0 0-1.6 1m27.2 1q.5 1.8.9 2 .3-.2.4-2c.1-1.8-.4-2-.9-2s-.7.9-.4 2M33 627.5q.2 1.3 1.5 1.5c1.3.2 1.5-.7 1.5-1.5s-.7-1.5-1.5-1.5-1.5.7-1.5 1.5M.1 651.6q0 1.7.6.6.4-1.2-.1-1.9-.5-.5-.5 1.3m18.3 3.5c-.3.6-.1 1.6.5 2.2q1.1 1.2 1.1-1.1 0-3.6-1.6-1.1m-7.6 36.1c.5.5 1.6.8 2.3.6q1-.5-1-1.1-2.5-.6-1.3.5M222.5 801q-.4.9.4 1 1-.1 1.1-1 0-1-.4-1-.6 0-1.1 1m-9.5 4.5q.1 1.3 1.6 1.5 2 .2.4-1.5-1.2-1.3-1.6-1.5-.3.2-.4 1.5m-15.3 4.2c-.2.5-.1 2.1.2 3.8q.6 3 1.4 1.7.7-1 .1-1.2-.4-.2.6-1.5c.6-.8.9-1.9.5-2.5-.7-1.2-2.2-1.3-2.8-.3m23.8 2.9c-.9 1.4-1.4 2.8-1.2 3.1.3.3 1.3-.9 2.2-2.6q2.7-5.8-1-.5m-23.5 6.5q.1 1.8 1 1.4c.6-.3 1-1.3 1-2.1s-.4-1.4-1-1.4q-.9.1-1 2.1m21.2 1c-1.5 2.4-1.5 4.6 0 5.5q1.1.7.6-1.4t.2-2.2c1.1 0 2.1-2.8 1.2-3.4q-.8-.3-2 1.5m-18 10.8c.4 1.3 1.8 1.6 1.9.4q-.1-.7-1.1-1.2-1.1-.2-.8.8m-14.6 3.3q.6.7 1.9.1 3.1-1.2-.4-1-1.8.1-1.5.9M98 835.9c0 1.1-.3 2.6-.6 3.5-.5 1.3.2 1.6 3.4 1.6 2.3 0 4.4-.5 4.7-1 .4-.6-.5-1-1.9-1s-2.6-.6-2.6-1.3q0-1.2-1 .3-1 1.3-1 .3c0-.6.5-1.5 1-1.8 1.2-.7.4-2.5-1.1-2.5q-.8.2-.9 1.9m-7 .6c-1 1.3-.9 1.5.9 1.5 1.1 0 2.1-.4 2.1-.9 0-1.8-1.8-2.1-3-.6m26 1.2q.1 1.6.8.8l1.6-1.8q.7-.7-.7-.7-1.6.2-1.7 1.7m20.6-.8q-.6 1.2-.2 1.8c.9.9 1.9-.4 1.4-1.8q-.4-1.7-1.2 0m40.4 1.2q-.2 1-2 .6t-2 .4c-.2.8 1.4.9 3 .9q3 0 3-1.5 0-1.3-1-1.5-.9.1-1 1.1m-53.5.9q.5.9 1.1 1 .3-.1.4-1-.1-1-1.1-1-.8 0-.4 1m5.5 0q.1.9 1 1 1-.1 1-1t-1-1a1 1 0 0 0-1 1m-93.4 1.4c.3.9 1.1 1.6 1.6 1.6 1.3 0 .5-2.3-1-2.8q-1.1-.3-.6 1.2m71.4-.4q.1.9 1 1 1-.1 1-1t-1-1a1 1 0 0 0-1 1m75.5-.1q-.3 1 1.4.8t1.5-.9c-.7-1.1-2.2-1-2.9.1m14 .1q-.4.9.4 1 1-.1 1.1-1 0-1-.4-1-.6 0-1.1 1M30 841q.1.9 1.1 1 .8-.1.4-1-.6-1-1.1-1-.4 0-.4 1m30 0q.1.9 1 1 1-.1 1-1t-1-1a1 1 0 0 0-1 1"/></svg>