<svg xmlns="http://www.w3.org/2000/svg" width="666.7" height="1170.7" viewBox="0 0 500 878"><path d="M0 193.9v193.8l19.1-.1c10.5-.1 19.2.1 19.5.6s-3 .8-7.3 1c-7.6.3-7.8.4-7.8 2.8 0 2.5.1 2.5 7.8 2.4q7.9-.2 7.4 1-.2 1.1-12 .7c-6.4-.1-15 0-19.1.4-7.1.7-7.6.9-7.6 3s.4 2.3 3.7 2a818 818 0 0 1 33.1-.6c1.7.1 3.2.5 3.2 1.1s-7.3 1-20 1H0v5h20.2c11.1 0 19.8.3 19.4.7s-6.2.8-12.9.9c-28.5.3-26.7.1-26.7 2.9v2.5l20.6-.6c15.8-.5 20.5-.3 19.9.6-.4.6-2.4 1.1-4.4.9H16.3L.2 416l-.1 8c-.1 7.9 0 8 2.4 8q2.3 0 2.5 1-.2.9-2.5 1-2.6-.1-2.5 1.9c0 2.6 2.1 2.9 14.4 2.3 9.1-.4 10.6-.2 10.1 1-.6 1.6-10.8 3.4-12.6 2.2-.5-.3-3.4-.2-6.4.1l-5.5.7v4.3c0 4 .2 4.4 2.7 4.8l2.8.4-2.7.2q-3 0-2.8 2.1c0 1.7.8 1.9 6.8 2.2 3.7.2 13.5 0 21.7-.3 13.9-.6 16.5-.5 15.4.5-.4.3-28.9 1.5-39.6 1.6-3.8 0-4.3.3-4.3 2.4v2.4l20.8-.5c11.4-.2 21.3-.6 22-.8q1-.3 1.2.5c0 .6-2.6 1.1-5.7 1.1a312 312 0 0 1-23 .7L0 464v20h2.9c3.1 0 4.9 1.4 3.1 2.5q-1 .7-.4 1.6c.7 1.2 33.1.6 34.2-.6q.7-.7.7-1.8c0-1.7 5.4-2.1 6-.5s3.5 39.9 3.5 46.3v5l-7.6.2q-7.6.1-10.2 1.9c-2.2 1.4-5.1 1.7-17.4 1.7L0 540.2v3.4c0 2.8.4 3.4 2.1 3.4 1.1 0 3 .5 4.1 1.1q2 1.2 4.2.1c3.3-1.6 11.1-2.1 12.9-.8 2 1.6 8.7.8 8.7-.9q-.1-1.3-1.3-1.9-.9-.6 1.3-.1l10 1.6c4.1.6 7.8 1.4 8.2 1.7s.8 4.3 1 8.6l.3 7.9-24.2-.2a354 354 0 0 0-25.7.5c-.9.3-1.6 1.3-1.6 2.1 0 1.1 2.2 1.4 12.3 1.3 34.7-.3 40.2-.1 38.1 1.5s-5.8 2-4.9.5q.4-1-2.4-1c-1.6 0-3.3.5-3.6 1.1q-.8 1-2.3.4-1.6-.6-3.3 1.6-1.6 2.1-2.3 1-.6-1 .5-1.1 1.2 0-.1-1.5-1.2-1.3-2.3-.8c-.6.4-2.6.6-4.4.5-4.1-.3-8.9 2.1-9.8 4.9q-.7 2.3-1.8 1a4 4 0 0 1-1.2-2.8q0-1.6-2.5-1.8c-1.4-.1-2.9-.3-3.5-.5-.5-.2-2.2 0-3.7.4-2.5.7-2.8 1.3-2.8 5.2 0 3.4.3 4.2 1.5 3.8q1.3-.7 1.5-1.5.2-.7 1.5-.3 1.3.5 1.5-.5c.2-1 .4-1.1 1-1.1s.7 1.3.4 3c-.5 2.5-.3 3.1 1.7 3.9 1.9.7 2.8.5 4.1-1q1.6-1.8 2-.8.6 1.1 2.9-1.2c1.4-1.4 3.2-2.3 4.4-2.1q4.5 1 2.7 3.4c-.8 1.1-.2 1.4 2.9 1.4q3.9.1 3.6-1-.5-1-1.5-.9c-1.6.4-2.2-2.5-.6-3.1q1.3-.4 1.4.4.4 1.2 3.1 3.1c3.1 2.2 3.2 2.2 4.5.4 1.9-2.6 1.8-3.3-.8-3.7-2.1-.3-2.1-.4-.3-1.8q1.8-1.4 1.1-.3-.6 1.3.8 1.3c1.4 0 1.6-.6 1.6-1.4 0-1.3 3.9-3 4.9-2 .2.2-1 1.8-2.7 3.6-1.8 1.7-3 3.3-2.7 3.7q.6.3 1.5-.8c.4-.8 1.5-1.1 2.3-.8q1.5.4 1.9-.5.4-1.2 2.4 0 2.1 1.2 3.2 0 1.1-1 1.2-.3l1.4 16c.8 8.2 1.7 20.4 2.1 27s.9 12.3 1.1 12.7.6 4.2.9 8.5c.2 4.3.9 12.3 1.4 17.8s.6 10.4.2 10.8c-.7.7-16.9 1.6-31.1 1.8l-7 .1-12.8.2-9.2.1v75.8q0 75.6 1 75.2 1-.5 1 .4-.1 1-1 1.6c-.6.3-1 2.4-1 4.5v3.8l8.6.7c10.7.9 16.7.2 34.4-4.3a20 20 0 0 0 12.9-7.3c5.5-5.6 8-6.5 22.1-8.5l14.8-2a50 50 0 0 0 29.2-11.9c4.1-3.7 5.8-4.5 7.6-4.1q2.5.8 2.4-.9c0-.8 1.3-2.1 2.9-2.9 1.6-.9 5.4-3.8 8.5-6.7l5.6-5.1 5.5.7c4.4.5 5.5.4 5.5-.8 0-.9 3-2.5 7.8-4.2 4.2-1.6 8.6-3.4 9.7-4.2a8 8 0 0 1 3.4-1.3 26 26 0 0 0 6.9-4.1c5.2-4 5.6-4.1 10.6-3.4 2.8.4 6.7.6 8.6.5 8.4-.4 23.4-.4 35 0 6.9.3 14.9.1 17.9-.4 6.9-1.1 6.6.2-1.5 6.5a35 35 0 0 0-7 6.8q-3 5.8-11.3 9.7c-3.1 1.3-6.4 2.9-7.3 3.4-1 .6-2.8 1-4 1-1.3.1-3.4.7-4.8 1.5s-5.2 1.4-8.4 1.5c-5.8 0-6-.1-10.8-5.1l-4.9-5.1-13.4.3c-7.4.2-13.7 0-14.1-.4-1.3-1.3-7.1-.7-8.3.7a9 9 0 0 1-4.4 2.1c-7.7 1.6-10.1 6.5-5.1 10.4 1.5 1.2 3.2 2.1 3.9 2.1 2.5 0 4.5 3.6 3.9 6.9a10 10 0 0 1-1.5 3.7q-2.7 1.6 2.8 6.9l3.8 3.7 12-.6c14.7-.8 26 .6 29.1 3.5q3.7 3.4 8.6-.8c1.4-1.3 1.9-1.3 4.2.2 1.4 1 2.6 1.4 2.6 1.1q.2-.5 2.1.4c1.5.8 3.4.8 7 .1 4.7-1 5.2-.9 6.8 1.1 1.7 2 1.9 2 4 .6 1.2-.9 3.1-1.4 4.2-1.1 1 .3 3.8-.2 6.1-1.2 4.8-1.9 8.4-1.5 14.3 1.5a31 31 0 0 0 20.5.5c4.2-1.1 6.6-1.2 8.5-.5 3.7 1.4 7.7 1.2 9.9-.5a8 8 0 0 1 3.5-1.5c.9 0 5.2-3.2 9.6-7s10-8 12.5-9.4c4.1-2.2 5.4-2.4 13-1.9 6.5.4 9.9 0 14.4-1.4 5.3-1.6 6.1-2.2 6.8-5.2l.9-3.3 2.4 2.6c2 2.2 3.3 2.6 7.8 2.6 6.1 0 8.4-1.7 11.1-8.4.9-2.1 3.4-5.8 5.6-8.2s4-4.9 4-5.7 1.2-2 2.8-2.9 4-2.8 5.5-4.2 3.3-2.6 3.8-2.6q.9-.1.4-1t.4-1q1 .1 1.1 1.1c0 .6 1.7.9 4.3.7 3.4-.2 4.2-.7 4.2-2.3 0-1.7.8-2.1 4.4-2.3 2.6-.2 5-1 5.6-1.9q1.1-1.6 3.8-.9c1.5.3 4.8.1 7.4-.5s6.2-1.1 7.8-1.1c1.7 0 4.6-1 6.5-2.2 9.8-6 15-6.8 23.9-3.9 3.7 1.2 5.5 1.3 6.3.5 1.2-1.2 7.6-.5 9.6 1.1 2.5 2 3.3-.9 3-10.7l-.3-9.8-7.1-.4c-5.5-.4-7.4-.2-8.4 1-1 1.3-.9 1.7 1 2.4 2 .8 1.9 1-1.9 2.4-6.6 2.6-5 5.1 3.8 6.1q5.6.6 7.5 2.9l2.1 2.1-2.5-1.5q-2.5-1.5-11.3-1.6c-4.9 0-9.1-.2-9.3-.4s.8-3.3 2.2-6.8c2.1-5.1 2.5-7.3 2-11.4-.6-4.6-.5-4.9.7-2.6 1.1 2.2 2.1 2.6 8.2 3.1 3.9.3 7.4.2 7.9-.2 1.4-1.2-.3-2.9-2.9-2.9-2.8 0-4.1-1.5-2.3-2.7.7-.4 3.3-1 5.8-1.3l4.5-.5.3-6.4c.2-3.6-.2-6.9-.8-7.5-.5-.5-3.1-1.5-5.7-2.2-4.2-1.1-5.2-1-8.5.7-2 1-5.2 1.9-7 1.9q-7.5 0-5 4.2 1.4 2.5-1.1-.5c-1.7-2-2.4-4.1-2.5-7.3-.1-8.6-8.4-18.4-15.6-18.4-4.5 0-4.9.9-2.4 4.8 1.6 2.6 2.3 3 3.9 2.2q4.2-2.2 7.9 5c2.4 4.7 2.5 5.4.6 4.7-2.2-.9-3.7 1.7-3 5.2q.8 3.3-.8 3.1c-.8 0-3.1 2.6-5.2 5.7-2 3.2-3.6 5.2-3.6 4.5 0-2-3.1-1.4-3.7.7q-.6 1.7-1.8 1.5c-.7-.3-3.1.4-5.4 1.6a14 14 0 0 1-4.1 1.6c0-.2 2.9-2.5 6.5-5.1 4.6-3.3 7.1-4.4 8.5-4q2 .7 2.7-1.2l2.4-5.8c1.5-3.6 2.3-7.8 2-11.3q-.3-1-2.1-1.2t-2-1.6c0-1.3-.7-1.5-3.1-1-3.2.6-7.3-1.3-8.3-4q-.8-1.6 1.9-.8c2 .5 2.7.1 3.5-2.1q2.5-7-12-9c-3-.4-5.9-1.3-6.5-2-.5-.8-1.9-1.5-3-1.8s.4-.5 3.3-.6 6.1.4 7.1 1.1c2.6 1.6 5.5.3 4.8-2.2-.4-1.5.4-2.2 3.9-3.6 2.5-.9 4.7-1.5 5-1.2s-.7.8-2.1 1.2c-2.9.7-3.4 3.6-.6 3.6 1 0 3.2-.5 4.9-1.1 2.6-.9 3.9-.7 7.4.9 6 2.9 15.8 3.4 15.8.8q-.1-1.3-4.2-2c-5.6-.9-14.8-3.9-14.8-4.9 0-1.2 5-.8 8 .8 2.8 1.4 4.8 1.6 22.3 1.3 4.4-.1 8.2.3 8.5.9 1.1 1.7 4.2 1.1 4.2-.8s-2.2-2.6-11-3.6c-10.4-1-8.4-3.6 3.8-4.8 10.5-1 9-2.7-2-2.1-6.8.3-11.2 1.2-16.3 3.1-6.4 2.4-7.2 2.5-9.5 1.2s-3.4-1.3-10.5 0c-4.4.8-10 2.1-12.4 2.8q-4.4 1.3-6.8.4c-1.3-.5-3.9-.9-5.7-.9h-3.4l.5-4.8a1456 1456 0 0 0 8.4-59.2c1.9-13.6 3.6-22 3.8-18.2.1 1.7 5.1-1.5 5.1-3.4q0-2.7 3.7-1.8c2.3.6 3.9 4.4 1.9 4.4q-1 .2-1.3 2-.1 1.8 1.3 2 1.3-.1 1.4-1t1.7-1c1.5 0 1.5-.2-.1-1.9-1.7-1.9-1.7-2 .2-3.2s1.9-1.2 0-3.1-2.1-1.9-3.9-.2-1.9 1.6-1.9-.4c0-3.5-2-2.5-3.8 1.8-.9 2.2-2.1 4-2.6 4-.9 0-.4-3.1.9-6.4q.9-2-.3-1.2-1.1.6-1.8-1.9c-1.1-4.3-2.1-4.1 20.6-4.4 7.4-.1 19.5 0 26.8.4l13.2.5v-6.2l-30 .4c-23.1.2-29.9 0-29.6-.9.3-.7.8-5.6 1.2-11l.7-9.8 7.6.1c12.2.1 12.1.1 8.6 2.4-1.6 1.1-4.6 2-6.6 2-3.5 0-6.6 2-5.2 3.3s9.5.7 12.2-.9 3.2-1.5 8.6.5c4.9 1.9 7 2.1 13.4 1.5q11.5-1 7.7-3.9-2.1-1.8-9.3-.1c-2 .5-4.7.2-7-.5-5-1.7-6-2.6-4.6-4q1.1-1.4 3.8.5c2.5 1.6 11.9 2.2 26.8 1.7q1.6-.3 1.7-1.9c0-1.7-1-1.9-9.2-2.1a88 88 0 0 1-13.3-1.2c-4.3-1.2-19.3-2.8-28.8-3.2-4.7-.1-5.6-.5-5.1-1.7.3-.8 1-6.5 1.5-12.5s1.3-13.5 1.8-16.5l3.5-25c1.4-10.7 3-21.1 3.4-23l.7-3.5 12.5-.6c13.6-.7 21-1.7 21-2.8 0-.4 1.6-1.5 3.5-2.4 3.9-1.9 4.3-2.8 1.8-4.8q-1.4-1.4-9.5-1.2c-14 .3-8.1-3.8 6.7-4.7l9-.5.3-219.3L500 0H0zM267 16.7c2.2.7-1.6 3.3-4.9 3.3-2.7 0-8.1 4.5-8.1 6.7 0 .8 1.2 2.9 2.7 4.8a10 10 0 0 0 7.1 4.1c2.5.4 4.1 1.1 3.9 1.8-.3.7-5.3 1.1-16.3 1.1q-24.2 0-11.2-3c3.1-.8 4.9-2 6.5-4.4 1.3-1.9 2.3-3.8 2.3-4.2s-1.4-2.4-3.1-4.4c-2.5-2.9-3.8-3.5-6.9-3.5q-6-.1-4.5-3c.6-1 29.2-.4 32.5.7m46.1 161.4c6 2.1 7.1 3.7 6.4 9.4a94 94 0 0 0 .2 24.3c1.3 14.2.9 16.2-2.6 16.2-1.4 0-4.3.5-6.4 1.1-5.4 1.5-6.7.1-6.7-7 0-3.1.5-8.5 1.1-12.1s1.1-7.6 1.2-8.9c.2-1.9 1-2.7 4.1-3.5 4.4-1.2 6.7-3.9 4.9-5.7q-1-1.1-4.5-.1-6 1.7-7.7-3.1c-1.4-3.7 2.3-11.7 5.4-11.7.7 0 2.7.5 4.6 1.1m-50.2 19.6c-1.4 4.5-1.8 4.9-5.8 5.7-3.3.7-5 .5-7.6-.7-3.8-1.8-4.8-4.3-4.3-10.3.2-3.1.8-4 2.8-4.5l5.5-1.6c2.7-.9 3.4-.6 6.9 2.9l4 3.8zm148.9-5.7c3.5 2.2 4.1 5.1 2.1 10.8-.9 2.7-1.8 3.3-6.5 4.3-4.8 1.1-5.6 1-7.3-.5q-4.8-4.4-1.1-12.1c2-4.1 2.5-4.5 5.8-4.5 2.1 0 5.2.9 7 2m-269.3 5c.9 1 1.9 3.4 2.2 5.5.6 3.4.3 4-3.2 6.9-3.3 2.8-3.6 3.5-2.6 5.3a8 8 0 0 1 0 8.1c-.8 1.3-.7 3 .3 6.7 2.2 7.7 1.7 8.5-5.3 8.5-5.6 0-6-.2-5.4-2 .5-1.6 1.2-10.5 1.4-19.2q0-1.7 3.4-2c4.2-.4 4.2-3 0-4.3-7.3-2.4-9.5-8.4-4.8-13.1 2-2 3.3-2.4 7.5-2.3q5 .3 6.5 1.9m37.3 8.2c1.7 1.4 1.5 5.3-.4 9.4-1.5 3.2-1.5 3.6 0 5.3.9 1 1.4 2.5 1 3.5s.1 2.5 1 3.5a63 63 0 0 1 4.3 19.8c-.2.1-1.4.4-2.8.5-2.2.3-2.4-.1-2.7-4.5-.3-5.3-.5-5.4-7.7-6l-5-.4.2-6.8c.1-7 1.2-8.9 4.5-8.1 2.2.5 5.3-1.8 4.4-3.2-.4-.7-2.3-1.2-4.3-1.2q-7.2-.1-7.3-6.8c0-5.6 2.4-7.5 8.5-6.7a22 22 0 0 1 6.3 1.7m36.9 1.4c4.7 6 2.8 11.6-4.4 12.7-4.5.8-7.3-.7-7.3-3.8 0-1.3-.4-2.7-1-3-1.5-.9-1.2-4.8.6-7.4 1.4-2 2.3-2.2 5.8-1.8q4 .5 6.3 3.3m34.8 3.6 3 .3.3 9.7.3 9.7-6.7-.1q-6.6-.2-7.1-1.4a78 78 0 0 1 2.8-19.2c.9-2.3 1.1-2.3 2.7-.9.9.8 3.1 1.7 4.7 1.9m164.6 13.7a95 95 0 0 1 1.1 15.9c-.4 2.8-.9 3.2-7.2 5.1a44 44 0 0 1-9.1 2.1h-2.2l.6-13.3c.7-14.5 2.1-21.7 4-19.8 1.6 1.6 4.7 1.3 5.4-.5.6-1.6 4.4-3.5 5.3-2.7.3.2 1.2 6.2 2.1 13.2M218.5 227q-.2 1.4-2.1 1.5c-1.1.1-3.3.9-4.7 1.8-2.1 1.3-2.7 2.6-2.8 5.5q-.2 8.4-3.3 9c-1.7.4-1.8-.3-1.5-8.1.2-4.6.9-9.1 1.6-9.9 1.7-2 12.8-1.9 12.8.2m-125.7 1.6c3.1 2 3.2 10.4.1 13.3-2.9 2.7-4 11.8-1.6 12.7 1.8.7 2.6 4 3.1 13.2q.3 6.3-.8 6.7c-.6.2-4.6.6-8.9 1l-7.9.6.7-8.3 1-11.8c.2-3.1.6-3.6 3.7-4.1 4.5-.7 5.8-1.6 5.8-4 0-2.5-2.2-3.4-4.9-2-3.1 1.7-7.3-2.4-7.2-6.9.1-7 1.4-9.4 6.2-11.2 4.6-1.7 6.9-1.6 10.7.8m257 4.1-.3 2.8-13.6.6c-7.5.4-16.7 1.2-20.5 1.8s-10.7 1.6-15.4 2.1l-13.5 1.7c-2.7.4-6.8.7-9 .7-3.7.1-4-.1-4.3-2.8-.2-1.6.1-3.3.7-3.9s6.9-1.2 14.8-1.3c7.6-.2 17-.9 20.8-1.5 6.1-1 12.6-1.5 35.8-2.7 4.7-.2 4.8-.2 4.5 2.5m-119.9.3c3.1.5 13.1 1.5 22.2 2.2 15.9 1.1 16.7 1.2 16.6 3.2a14 14 0 0 0 .7 4.4l.8 2.3-16.4-.7c-8.9-.4-17.8-.6-19.7-.5a76 76 0 0 1-19.3-3.7c-.4-.4-.4-2.1 0-3.7 1.2-4.3 5.4-5.2 15.1-3.5m-55.1 11.2.3 3.8H147v-2.4c0-3.1 1.3-3.5 9.4-3 5.4.4 6.7.2 7.2-1.1.5-1.2 1.8-1.5 5.8-1.3l5.1.3zm-52.5-2.5c.9 1.5-.5 7.2-1.9 7.7-1.5.6-13.3 1.9-17.9 2-2.9.1-3-.1-3.3-4.6l-.3-4.7 6.3-.4c12.8-.7 16.7-.7 17.1 0m15 .8c3.4.5 3.7.8 3.7 4v3.4l-7-.2c-7.6-.2-8.1-.7-6-6.2q.8-2.7 3.2-2.1zm313.8 3.5c1 4.4-.6 6.2-5.8 6.6a117 117 0 0 0-28.8 4.4c-6.8 1.5-11.8 2.7-17 4.3-26.3 7.6-33.8 8.6-34.9 4.3-1.5-5.4-.9-6.1 5.7-7.5 3.4-.7 7.6-1.7 9.2-2.3 1.7-.5 6.4-1.6 10.5-2.3s13.8-2.9 21.5-4.8a226 226 0 0 1 33-6.1c5.2-.6 5.9-.2 6.6 3.4m-129.1-.5c0 1.3.7 4.5 1.6 7.1.8 2.5 1.4 4.7 1.2 4.9-.2.1-2.2.5-4.5.8-3.6.4-4.3.2-4.3-1.2 0-3-2.2-4.1-8.5-4.1-3.4 0-6.4-.2-6.7-.5s-.2-2 .1-3.8c.7-3.2.7-3.2 8.5-3.9 4.4-.4 8.4-.9 9-1.2q3.7-1.6 3.6 1.9m-104 4.2c-.1 1-1.1 3.1-2.4 4.6-2 2.5-3.1 2.9-12.1 3.8-5.4.6-11.9.9-14.4.7-7.6-.5-22.9 1.3-24.2 2.8-1.8 2.1.8 2.6 11.5 2.2l9.4-.3.5 3c.3 1.6.3 3.2 0 3.5s-3.8.6-7.8.8c-7.7.4-10 1.6-8.9 4.6.5 1.3 2.2 1.6 8.7 1.6 4.4 0 7.8.2 7.6.5s-4.3.7-8.9 1-8.8.9-9.1 1.1q-.8.3-2.3-.2c-1.2-.5-1.4-1.8-1-6.7q.5-6.2-.8-8.7c-1.2-2.2-2-2.5-7.3-2.5h-6v-9l10 .3a46 46 0 0 0 13-.8 51 51 0 0 1 11-1.6c4.4-.3 12.3-.8 17.5-1.3 15.6-1.3 16-1.3 16 .6m34.3 1c2.2.4 2.7 1.1 2.7 3.4 0 1.6.7 3.2 1.6 3.7q1.5.9 1 2.1-1.8 2.4-2.9-.8c-.4-1.6-1.8-2-9.6-2.6-9.1-.7-9.1-.7-9.1-3.4 0-1.5.3-3.1.8-3.5.7-.7 9.4-.1 15.5 1.1M139.8 255h4.5l-.6 3.6a8 8 0 0 0 1 6c1.7 2.7 1.4 2.9-4.4 3.6-2.6.4-3 .2-2.2-.9.6-.7.9-2 .5-2.8-.4-1.2-1.7-1.4-6.6-.8l-6 .6v-10.6l4.6.7c2.6.3 6.7.6 9.2.6m335.2 1.9c1.4.9 3.5 3.8 4.8 6.3l2.3 4.6-2 3.9c-3.5 7-4.4 7.1-14.8 3.2-3-1.1-5.6-6.5-4.9-10 .5-2.8 4.1-8.7 6.1-10.1 1.4-1 5.5 0 8.5 2.1m-244-.5c0 .7-1.1 2.3-2.4 3.5-2.1 2-3.8 2.4-10.8 2.7l-8.3.3 4-1.5 6-2.1a7 7 0 0 0 3.2-2.4c1.5-2 8.3-2.4 8.3-.5m78.5 3.6c-2.8 1.2-8.3 1.2-9 0-.4-.6 1.6-1 5.2-.9 4.2 0 5.2.3 3.8.9m-58.5 1.7c.2.2-2.7.3-6.5.2-3.9-.1-7.6 0-8.4.2-.7.2-1.6-.2-1.8-.8-.3-1 1.5-1.1 7.9-.6 4.6.3 8.5.8 8.8 1m168.3 4.5c.8 6.1-.3 7.3-8 9.1-12.6 2.9-12.8 2.9-14.7.8-1-1.1-1.5-2.5-1-3.2s1-2.6 1.3-4.3c.6-2.9 1-3.1 10.6-5.1a92 92 0 0 1 10.6-1.9c.4.2.9 2.2 1.2 4.6M205.5 263q.5.9-.2 1.1c-.4 0-3.6.2-7 .6q-6.2.4-6.3-.5c0-1 2-1.3 10.7-2 1.2-.1 2.5.2 2.8.8m115 21.8a618 618 0 0 1-1 25.7c-.5 5-1.2 21.2-2 44.5a5492 5492 0 0 1-9.9 174.5c-1.9 39.4-2.4 44.3-4.2 47-1.2 1.7-1.4.8-1.4-8.1 0-5.6.4-19.1.9-30l1.6-33.4 1-21.5 1.5-33 1.9-45.5c.6-11.3 1.3-31 1.6-43.8s.8-23.8 1-24.5.6-7.7.9-15.7l2-52.5c.1-3.3.5-4 2.6-4.5 1.4-.4 2.8-.5 3.2-.3s.5 9.7.3 21.1m14.6-17.6c4.4.1 4.3.1-1.1.7-6.5.8-7 .6-7-2.1 0-2 .1-2 1.8-.5 1.1 1 3.8 1.8 6.3 1.9m-26.5 25A4172 4172 0 0 1 305 390c-2.3 58.6-3 75.2-4 92-.5 9.6-1.2 24.9-1.5 34-.6 17.5-2.2 55.1-3 68.5l-1 20.5c-3.3 69.7-4.3 88.9-4.9 89.9q-.7 1.3-2.1.1c-1.5-1.2-1.4-9.3.6-42l2.1-43.5 1.3-31.5.6-33.5c.1-16 .6-35.1 1-42.5.8-15.1 1.7-34.9 2.4-58l1.5-39.5c3.6-88.5 5.1-135.1 4.4-136.9q-.7-2 4.9-2.5c1.7-.1 1.8 1.3 1.3 27.1m-65.1 83c-.1 59.6-.5 116.4-.9 126.3-.7 22.5-1.4 58.1-2.2 125.2-.4 28.8-1.1 52.3-1.5 52.3-.5 0-.6-90.3-.3-200.8.3-123 .2-202.5-.4-205.4-1.1-5.4-.9-5.8 2.8-5.8h2.7zm-23.8-101.6-.3 5.7-8.5.3c-4.8.2-7.3 0-5.9-.4 3.7-1.1 3.2-3.7-.7-3.7s-4.6-.6-3.4-3.8c.9-2.4 1.6-2.6 7.3-3l9.1-.5c2.7-.2 2.7-.2 2.4 5.4m32.8 79.1c-.4 46.7-.8 88.2-1 92.3-.8 21.5-1.5 49.5-2 74.5l-1 40.5c-.3 6.9-.8 30.3-1.1 52a2535 2535 0 0 1-1.4 58.9c0 3.5-.3 6.2-.6 5.9-.9-1 0-177.9 1.1-202.3.2-3.9.4-39.6.6-79.5s.5-84 .8-98 .3-26.3-.2-27.3c-.6-1.4-.3-1.7 2.4-1.7h3.2zM46 272c6.3 3.2 9.3 9 4.6 9q-4.9 0-4.4 6.5c.2 4.1-1.1 5.5-5.5 5.5-2.4 0-3.1-.7-4.5-4-.9-2.2-2.5-4.3-3.4-4.6-3-.9-2.4-7 1-10.1 2.5-2.3 5.6-4.1 7.5-4.2.4-.1 2.5.8 4.7 1.9m281.3 2.5q-1.2 3.1-1.3-.6 0-1.8 1-1.4.8.6.3 2m-184.6 7.6c.2 11.4.3 29 .2 31.4a1651 1651 0 0 1 1.7 59.5l.9 57.5c.8 25.4 1.5 138.1 1 140.7-1.6 7.2-2.2-1.2-2.3-35a2330 2330 0 0 0-.7-50.7l-1-38-1-41c-1.4-55-1.8-76.9-1.9-103.3 0-16.2.1-29.6.3-29.8q2.5-2.5 2.8 8.7m-18.2-3.4c-.3 2.5-.6 4.8-.8 4.9s-4.1.6-8.8.9c-4.6.2-10.6.9-13.4 1.5-2.7.6-9.5 1.5-15 2a544 544 0 0 0-33 4.3c-2.9.3-3.5-6.7-.7-8.2 4.7-2.5 37.9-6.7 49.2-6.2 2 .1 5.4-.5 7.5-1.2 2.2-.7 6-1.5 8.5-1.6a15 15 0 0 0 4.9-.7q2.2-2 1.6 4.3m9.6 1a6166 6166 0 0 1 2.4 106.8 6280 6280 0 0 1 3 170.5l1.1 91.1a407 407 0 0 1-.3 43.2c-.7.4-1.3-8.3-1.7-24.1l-1.1-34.7c-.3-5.5-.7-28.5-.9-51a2800 2800 0 0 0-2.1-90l-5.1-178c-.4-19.8-1.1-36.5-1.5-37.1q-1.7-2.3 3.3-2.4c2.7 0 2.8.1 2.9 5.7m201.2-5c-.7.2-1.9.2-2.5 0q-1-.5 1.2-.5c2.2 0 1.9.2 1.3.5m-7.1 7.1q-1.5 1.2-.6 2.1c.5.6 15.2 1.1 34.2 1.2 23.4.2 33.2.5 32.9 1.3s-10.2 1.1-32.3 1.1c-23.7 0-32.5.3-34.1 1.2l-2.5 1.3c-.2 0-.2-2.9 0-6.4.3-6.1.5-6.4 2.1-4.8 1.6 1.5 1.7 1.8.3 3m87.2.3a1264 1264 0 0 1-2.8 72.9 1177 1177 0 0 1-2.1 34c-.4 5.4-3 46.6-4 64.5l-2 28.5-4.5 63a1458 1458 0 0 1-3 39.2q-.1 1.6-1.1 1.8c-1.2 0-.6-26.9 1.2-53.5.5-7.7 1.4-23.4 1.9-35 .6-11.5 1.2-21.6 1.4-22.5.3-.8.8-11.9 1.1-24.5s.8-23.2 1-23.5c.4-.7 1.4-18.2 2.5-44l2-38.5 2.4-40.8c.9-18.6 1.5-24 2.7-24.8q3.4-2.1 3.3 3.2m57.4-1.5c.9.2 1.2 3.3 1.1 11.5-.1 11.8-1.2 16.4-3.7 15.4-.9-.3-4.2-.8-7.5-1.2q-5.7-.6-6.4-2a75 75 0 0 1 6.3-24.5c.5-.7 6.9-.2 10.2.8m-125.5.1c-1.8.2-4.8.2-6.5 0s-.4-.4 3.2-.4 5 .2 3.3.4m7.4-.1c-.3.3-1.2.4-1.9.1q-1.1-.5.6-.6t1.3.5m8 0c-.3.3-1.2.4-1.9.1q-1.1-.5.6-.6t1.3.5m9.4.5q-2.4 1-3.5-.1-1-1 2.5-.9 4.6-.2 1 1m79.9-.1c3 .4 5.3.8 5 .9-1.7.8-6.9 1.1-17.5 1.1-13-.1-18.5-.7-18.5-2.2 0-1 22.5-.9 31 .2m-67.3.6q-.7.5-1.9.1t.6-.6 1.3.5m19.9 21.1c-.3 12-.8 26.1-1.1 31.3l-1.5 33-1.5 31-1.5 28-1.5 29-5 91-3.5 59.5-5.5 88.3q-.5 1-1.5 1.2-1.2 0-.6-6.3c.3-3.4.8-15.4 1.1-26.7s.8-22.8 1-25.5c.5-4.5 1.5-32.7 3-78.5.3-8.5 1-22 1.5-30s1.5-26.2 2.1-40.5c1-25.8 1.3-31.3 4.3-91 1.7-35.4 4.5-95.9 4.8-105.4.1-5.1-.2-6.6-1.6-7.6-1.7-1.3-1.7-1.3.1-1.8 1-.3 3.1-.5 4.7-.6l2.9-.1zm-220.9-3.1 1 83.9c1.2 100.3.7 187.1-1.1 189.7-1.3 1.8-1.4 1.6-1.8-2.9-.2-2.6-.5-19.7-.7-37.8l-.6-58-1.1-104.5c-.4-43.7-1.1-80.5-1.5-81.8q-1-2.3-2.7-2c-1.5.3-1.7 1.6-1.5 10.8l.8 58 1 54c.6 14.7 2 114.9 1.8 133l-.3 24.2c0 4-.3 4.6-1.7 4.1q-1.8-.9-1.1 1.5c.4 1.2.2 2.4-.2 2.7-1.2.7-1.9-12-2.5-48.5-.4-17.9-.8-35.4-1-39l-1-34.5c-.3-15.4-1-40.8-1.5-56.5a3080 3080 0 0 1-2.1-109.7q.1-1.2 7.9-1.5l8.7-.3c.6.1 1.1 6 1.2 15.1m24 1.1c.9 134.8 0 383.3-1.4 385.6-1.7 2.8-2.2-5.8-2.4-43.3l-.1-43.5c.3-18 .2-68.4-.3-116.5l-1.1-126.9c-.3-36.5-.8-67-1.1-67.7-.9-2.5.6-4.4 3.4-4.4h2.8zm9.7-14c.6 2.8-.1 238.2-.7 243.5-.2 1.6-.4 10.9-.5 20.8-.2 15.3-.4 18-1.7 18q-1.4.1-1.5 1.7 0 1.5-.6 1c-.9-.9-.4-285.3.5-287.5q.3-.2 2-.2 1.8 0 2.5 2.7m236.6 1.6c0 .9-28 0-29-.9-.2-.3 6.2-.4 14.3-.3s14.7.7 14.7 1.2m-83.7 3.4c1.8 1.1-.6 2.1-2.9 1.3-1.4-.6-7.2-1-12.9-1-6.5 0-10.6-.4-11.1-1.1s3.1-.9 12.7-.4c7.4.4 13.7.9 14.2 1.2m15.5 1.3c3.9 1.8 4.2 2.2 4.2 5.7 0 6.2-1 8.1-4.4 9.3-6 1.9-13.6-1.9-13.6-6.9 0-4.5 4.5-9.8 8.5-10 .6 0 2.9.8 5.3 1.9m-287.8.4c0 .8.3 2.1.6 2.9q.4 1.4-1.6 2c-2.9.8-2 3.1 1.3 3.5 1.5.2 2.7.8 2.7 1.4q-.1 1-3.4.4-3.5-.6-11.2 1.4c-4.2 1.2-8 1.7-8.4 1.3s-1.3-3-1.9-5.7c-1.7-6.8-1.1-7.1 17.7-8.4 3.1-.2 4.2.1 4.2 1.2m340.9.1c.3.4-2.7.5-6.7.3-3.9-.2-7.2-.7-7.2-1.2 0-.9 12.8-.1 13.9.9m9.4.2c-1.3.2-3.5.2-5 0-1.6-.2-.5-.4 2.2-.4q4.4 0 2.8.4m-397.2 9.8c2.6 9.7 2.5 10.2-2.1 12.5a45 45 0 0 0-7.5 5.1c-2 1.8-3.9 2.8-4.3 2.5a75 75 0 0 1-1.1-13.8l-.3-13.1 3.5.7q3.5.5 4.2-.4c.4-.6 1.8-1 3.2-.8 2.3.3 2.8 1.1 4.4 7.3m280.2-6.8c-.7.2-1.9.2-2.5 0q-1-.5 1.2-.5c2.2 0 1.9.2 1.3.5m18.5 1c-1 .2-2.6.2-3.5 0q-1.3-.5 1.7-.5c3 0 2.7.2 1.8.5m13.7.2c3.8.8 3.7.9-2.2 1-3.4 0-6.5-.4-6.8-.9-.7-1.2 3.4-1.2 9-.1m66.2-.3q-.6.5-1.9.1-1.1-.5.6-.6t1.3.5m14.8.5q-2.9.8-3.9-.1t3-.9c3.9.1 3.9.1.9 1m-335 4.9c-.3.5-1.5 1-2.5 1s-2.2-.5-2.5-1c-.4-.6.7-1 2.5-1s2.9.4 2.5 1m4.8.7c-.7.2-1.9.2-2.5 0q-1-.5 1.2-.5c2.2 0 1.9.2 1.3.5m7.5 0c-1 .2-2.8.2-4 0q-1.8-.3 1.7-.4t2.3.4m314.7.8c8.9 1.4 39.5 8.5 46.7 10.9 12.1 3.9 13.8 5 13.8 9.1 0 1.9-.4 3.5-1 3.5-1.2 0-17.9-4.8-18.9-5.5l-9.2-2.1c-4.6-.9-9.4-2.3-10.6-3a10 10 0 0 0-4.4-1.4c-2.5 0-16.3-2.5-22.6-4.2-3.7-.9-4.3-1.4-4.3-3.7q.2-5.3 4.4-4.6zM73 308.1c0 2 .4 2.1 6.3 1.4 3.4-.3 7-.9 8-1.1 1.6-.5 1.7.6 1.7 12.3 0 7.1.4 19.8 1 28.3s1.7 29.7 2.5 47l2 39.5c.7 11.9 1.4 27.6 2 40.5l1.5 32c2.9 61.3 3.2 69.2 2.1 70.3-2.2 2.2-2.9-.9-3.5-14.8-.3-7.7-1.2-23.7-2-35.5a4904 4904 0 0 1-4.6-69.5 2836 2836 0 0 0-4.5-70.5c-.2-5.2-1.2-21.4-2.1-36s-1.7-29.4-1.8-33c-.1-6.3-.2-6.5-2.9-6.8-2-.2-3.5.5-5.5 2.5a36 36 0 0 1-5.1 4.3l-7.2 5-9.9 7c-2.9 1.9-9.7 7.3-15.3 12-15.9 13.4-17.7 14.6-18.8 12.9-.5-.8-.9-2.9-.9-4.7 0-3.7.7-4.5 12.4-14.2a146 146 0 0 1 25.4-18.7c3.7-1.9 7.8-4.5 9.2-5.7a42 42 0 0 1 9.3-6.6q.7.1.7 2.1m21.4 1q-.6.8-1.5.3t-.3-1.5q.6-.8 1.5-.3t.3 1.5m25.6-.2c3.4.6 1.5.8-7.7.9-7.5.1-12.3-.2-12.3-.8 0-1.2 13.3-1.2 20-.1M8.3 312.7c-.7.2-2.1.2-3 0q-1.4-.5 1.2-.5t1.8.5m20.5 0a30 30 0 0 1-6 0c-1.8-.2-.6-.4 2.7-.4s4.8.2 3.3.4m355.7 11c.4 5.6.4 12 0 14.3l-.7 4-7.1-.7c-4-.3-7.5-1.1-7.9-1.6-1.3-2.1.3-11.7 3.2-19.2 3-7.8 2.7-7.5 7.4-7.3l4.4.2zM125 314.4q0 .5-1 1.1-.9.4-1-.4.1-1 1-1.1 1 0 1 .4m-15.7 1.3a17 17 0 0 1-4.5 0c-1.3-.2-.3-.4 2.2-.4s3.5.2 2.3.4M7 318.4q-.2.4-1.5 1-1.3.4-1.5-.4.2-1 1.5-1c1.3 0 1.5.2 1.5.4m6.7.2q-.6.5-1.9.1-1.1-.5.6-.6t1.3.5m81.8 27.9c.2 9.3.7 19.5 1 22.5s1 14.5 1.5 25.5c1.3 27 2 38.6 2.5 41.1.2 1.1.7 7.2 1 13.5l1 21.9c1.1 22.7 1.5 31.5 2.6 59 1.5 40.5 1.5 40 .8 41.1a53 53 0 0 1-1.3-12.3l-1.1-18.8a3496 3496 0 0 1-4-74.5l-.9-17-1.2-20.5c-1.1-16.9-2.6-44.2-3-55.5-1.4-34.1-1.9-52.6-1.4-53.8.8-2.2 2 10.6 2.5 27.8m28.5-26.1q0 .6-1 1.1-.9.4-1-.4.1-1 1-1.1 1 0 1 .4m338.5 3.5 9 2.8-.3 4.4c-.4 5.9-1.8 7.3-6 5.8-3-1-3.1-1.2-1.5-2.4 3.2-2.4.9-3.6-11.9-6.2-2.4-.5-2.7-.9-2.2-3.2 1.3-5.1.9-5 12.9-1.2m-443 .1q-.6.9-1.6 1-.8-.1-.9-1 .1-1 1.6-1 1.3 0 .9 1m8.8-.3c-.7.2-2.1.2-3 0q-1.3-.5 1.2-.5 2.6 0 1.8.5m133.7 1.5c0 1-12.7 1.1-13.3 0-.3-.4 2.6-.7 6.4-.8 3.8 0 6.9.3 6.9.8m33.5.8c.7 1.2-1.9 1.2-5.5 0-2.2-.7-2.1-.8 1.2-.9 2-.1 4 .3 4.3.9m-71.5 1.2q-.2 1.4-6.5-.2c-2.5-.7-2.3-.8 1.7-.7 2.7.1 4.8.5 4.8.9m-111 2.2q0 .6-1 1.1-.9.4-1-.4.1-1 1-1.1 1 0 1 .4m12.5.5c-.5 1-9.4.6-10.3-.4-.3-.3 2-.5 5.2-.5s5.5.4 5.1.9m4.5.1q-.1.9-1.5 1c-1.4.1-1.5-.5-1.5-1q.1-1 1.5-1c1.4 0 1.5.4 1.5 1m240-.3q-7.6.8-6.6 4 .7 1.3-2.9 1.3c-3 0-3.5-.3-3.5-2.3a7 7 0 0 1 .4-2.8c.2-.2 4.2-.5 8.8-.5 4.6-.1 6.3.1 3.8.3m-72 1.3q-.2.9-1.7 1-2.2.1-.3-1c1.9-1.2 2-1.2 2 0m29 .6q-.2.3-2.1.4-1.8 0-1.4-1c.5-.8 3.5-.3 3.5.6m-64.5.4c-.3.5-3.7 1-7.6 1s-6.9-.4-6.9-1 3.2-1 7.6-1c4.7 0 7.3.4 6.9 1m70.8-.3c-.7.2-2.1.2-3 0q-1.3-.5 1.2-.5 2.6 0 1.8.5m222.2 1.3c5.4 2.1 4.4 2.6-1.7.9-2.1-.5-3.8-1.4-3.8-1.9 0-1.3-.3-1.3 5.5 1M125 333q0 .9-1 1a1 1 0 0 1-1-1q.1-1 1-1t1 1m-105 2.4c.8.2-2.4.4-7.2.5s-8.8-.3-8.8-.7c0-.7 12.5-.5 16 .2m269-.5c4.5.1 7 .5 6.5 1s-7 .7-15.5.3c-8-.3-12.9-.9-11-1.2s5.5-.4 8-.3zm-234 5.8 2.2 5.8-3.3 2.5-8.7 6.8c-3 2.4-5.7 4.1-6 3.7-.4-.3-.8-3.6-1-7.4l-.4-6.7 6.8-5.1c3.8-2.8 7.2-5.2 7.6-5.2.4-.1 1.6 2.5 2.8 5.6m143.9-3.3c-.3.3-1.6.2-2.9-.1-2.2-.6-2.2-.7-.4-1.4s4.3.5 3.3 1.5m35.1.8c0 1.1-9.8 1-10.5-.2q-.3-1 5-.8c3 .1 5.5.5 5.5 1m-72 .8c0 .6-2.5.9-5.7.8l-5.8-.1 5.5-.7 5.8-.8q.2-.1.2.8m197.8-.4c-.7.6-36 .6-36.6-.1-.3-.3 7.9-.5 18.3-.5s18.6.3 18.3.6m94.6.7c1.7 1.2 1.7 2 .2 16.3-.9 8.2-2.1 17.6-2.6 20.9l-3.5 26-3.5 27-2 16c-.6 4.9-1.4 10.9-1.9 13.1-.4 2.3-.9 6.9-1 10.3s-.6 7.4-1.2 8.7c-.5 1.4-.9 4.4-.9 6.7s-.6 7.6-1.4 11.7a249 249 0 0 0-2.6 18c-1.3 12.5-2.5 21.9-5 40l-6.1 43.5a799 799 0 0 1-4.4 30.5c-.2.3-.6 4.2-1 8.5-.3 4.4-1.2 12.3-2 17.5l-3.1 24.2c-1.2 10.6-2.1 14.9-3.2 15.3q-3.4 1.3-2.6-3.8c1.9-14.5 4-32.6 8.4-72.7l2.5-19.5c1.8-12.4 5.3-40.9 6.6-53.5.5-5.2 1.5-14 2.3-19.5l2.1-15.5c2.7-26.2 4.7-43.3 5.5-47.5.5-2.8 1.2-8.4 1.5-12.5s1.3-11.3 2.1-16c.7-4.7 1.6-11 1.8-14l1.6-16 1.6-16c.2-3 1.1-10.2 1.9-16l2.5-20 1.6-11.3c.6-2 3.3-2.2 5.8-.4m-188.1 1.4c-.7.2-1.9.2-2.5 0q-1-.5 1.2-.5c2.2 0 1.9.2 1.3.5m19.5.3c-1 .6-3.1.7-5.5.1-3.8-.9-3.8-.9 1.7-1q5.8 0 3.8.9m7.7 0q2.7 1-1.2.9c-1.8.1-3.3-.4-3.3-.9q.1-1.8 4.5 0m-95.5 1q0 .9-.9 1-1-.1-1.6-1-.4-1 .9-1 1.5 0 1.6 1m265.9.4c.7.8.9 3.1.6 5.4l-2 17.4c-.9 7.3-2 16.2-2.6 19.8-1.2 8.1-2.4 17.7-4.4 34.5q-2.3 19.9-6 44c-.8 4.9-2.1 14.6-3 21.5l-4.1 29.5-1.1 7.5-1.3 11c-.5 4.7-2 16-3.4 25.1a852 852 0 0 0-5.2 37.4 1531 1531 0 0 0-5.3 38.8 663 663 0 0 1-3.5 24.5c-.3 1-.7 3.9-1.1 6.7-.3 2.7-1 6.8-1.5 9s-1 6.1-1 8.6q0 4.5-1.5 5.9-1.6 1.5-1.5-.1a836 836 0 0 1 6-48.4c1.1-6.6 2.4-16.2 3-21.3l2-18.5c.6-5 1.4-11.7 1.9-14.7l3.1-22.5 4-32 3-23.5c2.5-23.2 3.2-29.3 4.6-39 3-21.6 5.3-38.8 6.4-48l3-23.5 2.4-19.5 2.8-21.3c2.1-15.6 3-17.6 5.7-14.3m-114.4 1.5c3.9.5 10.6 1 15 1.1 4.4 0 11.4.8 15.5 1.6s8.8 1.5 10.3 1.5c2.6 0 2.8.3 2.5 3.2l-.3 3.2-10-.3c-5.5-.2-13.4-.8-17.5-1.4s-12.4-1.5-18.5-2.2c-10.3-1.1-11-1.3-11.3-3.4-.6-4.1.5-5.3 4-4.8zM162 345.6c0 .5-3.2.9-7 1-6.2.1-7.9-.4-6.6-1.7a38 38 0 0 1 13.6.7m70.3-.9c-1.8.2-4.8.2-6.5 0s-.4-.4 3.2-.4 5 .2 3.3.4M274 346q1.8 1-3.8 1-5.1 0-4.7-1c.8-1.3 6.5-1.3 8.5 0m-75.5 1c.4.6-.6 1-2.2 1q-3.2.1-1.3-1c1.9-1.2 2.7-1.2 3.5 0m130.2.6q-.6.5-1.9.1-1.1-.5.6-.6t1.3.5m-100.3 1.3q.4.8-1.4.4-3.5-1.1-.6-1.3 1.4 0 2 .9M420 352a9 9 0 0 1-2.5 2q-.5-.2-.5-2-.1-2.1 2.5-2h2.5zm23.8 0c.4 1-1.6 1.1-9.4.6-13.6-1-14.7-2.7-1.4-2.2 7.3.2 10.5.7 10.8 1.6m-281.3 0q.5 1-7.2.8l-7.8-.1 6.5-.7 7.2-.8q.7-.1 1.3.8m36.5 1c0 .5-1 1-2.2 1q-2.7.1-.8-1 3-2 3 0m93.8-.3a30 30 0 0 1-6 0c-1.8-.2-.6-.4 2.7-.4s4.8.2 3.3.4m203.7 1.6q1 .9-8.4.3c-5.2-.3-11.8-.6-14.8-.6q-5.2 0-4.8-1c.8-1.3 26.6-.1 28 1.3M53 355.8a159 159 0 0 0-9.2 8.3l-5.7 5.6-11.3.6q-20.5 1.2-19.6.2c.2-.3 4.5-.7 9.4-1 16.6-1 18.5-1.4 22.3-4.7a102 102 0 0 1 16.6-11.7c.6 0-.6 1.2-2.5 2.7m296.8-1.1c2.8.3 5.2 1 5.2 1.5s-.8.7-1.7.4c-3.5-1-20.6-1.1-21-.1-1.1 3.1-1.9 3.4-6.1 2.3-3.5-.9-4.2-1.4-4.2-3.6v-2.5l11.3.7c6.1.3 13.6.9 16.5 1.3m-124.1.9q-.7.5-1.9.1t.6-.6q1.8 0 1.3.5m6 0q-.7.5-1.9.1t.6-.6q1.8 0 1.3.5m40.9 1.3c-.7 1-7.3.8-8.3-.3-.3-.3 1.5-.6 4.1-.6s4.5.4 4.2.9m5.4.1q0 .9-.9 1-1-.1-1.6-1-.4-1 .9-1 1.5 0 1.6 1m97.3.2c4.2.6 7.7 1.5 7.7 2s-.4.7-.8.4-4.9-.6-9.8-.7c-9.4-.2-10.8-.5-9.9-2 .8-1.2 3.4-1.2 12.8.3m55.2-.3c4 .9 4 .9-1.5.9-3 0-6.4-.3-7.5-.8q-2.6-1 1.5-.9c1.9 0 5.3.4 7.5.8M443 358c0 1.2-2.4 1.2-6 0-2.1-.7-1.9-.8 1.8-.9 2.3-.1 4.2.3 4.2.9m-245.5 1c-2.8 1.2-8.5 1.2-8.5 0 0-.6 2.4-1 5.3-.9q5.6 0 3.2.9m-140 16.7a2376 2376 0 0 0 5 82.3l2.9 52 1.1 19 1 18.3c.7 8.6.8 24.8.1 25.5-1.8 1.7-2.3-2.5-6.1-57.3-1.5-22.4-2-28.2-3-39.5l-1-14.5-2-28.5c-.8-10.7-2.1-30.8-2.9-44.5l-1.5-25 2.1-2.3A10 10 0 0 1 56 359a95 95 0 0 1 1.5 16.7M495 360q1.5.9-5.5.3c-3.8-.3-7.2-.7-7.4-.9-1-.9 11.5-.3 12.9.6m-141.3.7c-2 .2-5.2.2-7 0s0-.4 3.8-.4c3.9 0 5.3.2 3.2.4M422 362q-6.9.9-5.6-.8c.2-.4 2.6-.5 5.3-.3l4.8.5zm12 0q1.9 1.1-1 1a9 9 0 0 1-4-1q-1.9-1.1 1-1a9 9 0 0 1 4 1m-399 1c0 .6-2.3.9-5.2.8l-5.3-.1 4.5-.7 5.3-.8q.7-.1.7.8m347.3 1.2c2.1 1.1 2.1 2.2-.1 7.1l-1.8 3.9-8.3.2c-9.9.3-11.6-.7-10.6-6.3 1.3-7.7.7-7.3 10.3-6.6 4.8.4 9.5 1.2 10.5 1.7m58-1.5c-.7.2-2.1.2-3 0q-1.3-.5 1.2-.5 2.6 0 1.8.5m-366 2c-.7.2-2.1.2-3 0q-1.4-.5 1.2-.5t1.8.5m4.4-.1q-.7.5-1.9.1t.6-.6q1.8 0 1.3.5m417.3.4c0 1.1-6 1.1-10.5 0-2.3-.6-1.5-.8 3.8-.9 3.9-.1 6.7.3 6.7.9m-449 2.2 1 13.2 2 26 2.5 31.6c.8 9.6 2.2 27.7 3 40.1l2 27a1380 1380 0 0 1 2.5 37.4l1.5 25L63 593l4.5 73.5c1.8 26.8 1.9 32.3.5 30.9-.6-.6-1.5-7.6-2-15.5l-1.5-20.4-1.9-23.5-2.6-30.5c-.6-7.2-1.3-17.8-1.5-23.7s-.5-11.1-.8-11.5c-.8-1.5-3.5-34.3-5.7-70.8-.6-8.8-1.4-20.7-2-26.5l-2-23.5-5-65.3a122 122 0 0 0-1.7-14.7c-.6-1.8 2.3-5.5 4.4-5.5q1.2.2 1.3 1.2m383.3-.2q6 0 5.1 1c-1.2 1.2-17.4.1-17.4-1.3q.2-.8 3.1-.3c1.7.3 5.9.6 9.2.6M165 369q0 .9-1 1a1 1 0 0 1-1-1q.1-1 1-1t1 1m275.7-.4q-.7.5-1.9.1t.6-.6q1.8 0 1.3.5m-362.2 2c-4.7.7-17.3.9-16.9.2a33 33 0 0 1 9.7-.7c5.1.1 8.3.3 7.2.5m27.2 1c-.3.3-1.2.4-1.9.1q-1.1-.5.6-.6t1.3.5m13.1.1a30 30 0 0 1-6 0c-1.8-.2-.6-.4 2.7-.4s4.8.2 3.3.4M37.5 375q.4 1-9.2.8l-9.8-.2 7-.6 9.2-.8c1.2-.1 2.5.2 2.8.8m-24.8.6q-.6.5-1.9.1-1.1-.5.6-.6t1.3.5m67.2.8c-.3.3-3.9.8-7.9 1.1s-7.7.8-8.1 1.1c-1.1.6-3.1-.5-2.5-1.4a39 39 0 0 1 9.7-1c5.2-.2 9.1-.1 8.8.2m31.8.2c-.3.3-1.2.4-1.9.1q-1.1-.5.6-.6t1.3.5m255.2 3.3c1.1.7 1.2 2.6.6 9.2-1 10.7-1.1 11.6-2.4 28.4-.6 7.7-1.8 20.5-2.6 28.5s-1.7 18.3-2 23-1 12.1-1.5 16.5a5182 5182 0 0 0-12.5 123c-.3 1.6-1 7.7-1.5 13.5l-2.5 24.5-2.7 26.2c-1.1 12.1-1.2 12.3-3.6 12.3-2.1 0-2.4-.3-1.8-2.8.3-1.5 1-8.3 1.6-15.2 1-13.3 3.1-35.2 5.5-59a838 838 0 0 0 4-44c1.4-23.3 3.7-50.3 6-71.5 1.3-12.7 3.2-31.6 4-42 .8-10.5 1.7-20.1 2-21.5.5-2.5 2.8-26.5 4-41.8.7-8.5 1.6-9.7 5.4-7.3M38.8 382a151 151 0 0 1-34.3.1c-.8-1.4 4-1.7 20-1.4 8.6.1 14.1.6 14.3 1.3m339.5 1c-.2 4.5-2.3 27.2-3.3 37l-1.9 19.5-4 37-4.5 41.5-6.9 61.7q0 2-.6 1.8c-.8-.8-3.1 1.7-3.1 3.3q-.2 2 1.6-.4c1.4-1.7 1.5-1.2 1 7.1-.4 4.9-1.9 20-3.6 33.5l-3.9 33.5c-1.9 17-3.5 27.5-4.3 27.5-1 0-1-7.9.2-21.5 3-36.5 5.9-66.3 7.5-79.5.4-3.6 3-32.6 4.5-51 1.3-16 3.8-39.7 4.9-47.5.6-3.9 1.5-12.9 2.1-20 1.1-14.6 4.5-51.3 6-65 .5-5 1-11.3 1-14.1 0-5.7 1.4-7.6 5-7.2 2 .2 2.5.8 2.3 2.8m-217.5-1.3c-1.6.2-4 .2-5.5 0-1.6-.2-.3-.4 2.7-.4s4.3.2 2.8.4m108.6 1.4c-2.2 2.5-1 3.6 5.1 4.4l6.5.8c1.4.2-3 .4-9.7.5a89 89 0 0 0-13.2.6q-.9.5-1.6-.4c-.6-.9 1.9-1.4 5.6-1.1 2 .2 4.3-2.4 3.4-3.9-.3-.5-1.4-1-2.3-1.1-2.3-.1 2.6-1.7 5.7-1.8 2.4-.1 2.4-.1.5 2M81 383c0 .6-3.7 1-9.5 1-5.2 0-9.5-.4-9.5-.9s4.3-.9 9.5-1c5.9-.1 9.5.3 9.5.9m28 0c-2 1.3-7 1.3-7 0 0-.6 1.9-1 4.3-1q4.5 0 2.7 1m121.3 1.7c-.7.2-1.9.2-2.5 0q-1-.5 1.2-.5c2.2 0 1.9.2 1.3.5m-110.8 3.2q1.9.8-7.3 1.7c-9.4 1-13.1 0-4.4-1.1 2.6-.4 5.2-.8 5.7-1a9 9 0 0 1 6 .4m5.2.7q-.7.5-1.9.1t.6-.6q1.8 0 1.3.5m-49.9 1.1c-2.1.2-5.7.2-8 0-2.4-.2-.7-.4 3.7-.4s6.3.2 4.3.4m160.6 2.3c-1.2 1.2-9.4.2-9.4-1.1 0-.4 1.6-.6 3.5-.4s3.8-.1 4.1-.7q.6-1 1.7.1t.1 2.1m91.6-.6q0 1.4-2 .9-1.8-.6-2-1.4.2-.8 2-.9c1.8-.1 2 .6 2 1.4m23.4-.4c4.1 0 .5 1.1-4.4 1.4-4.6.2-5 0-3.3-1.1 1-.8 2.7-1.2 3.8-.9s2.9.6 3.9.6m-191.1.7a17 17 0 0 1-4.5 0q-1.8-.3 2.2-.4c4-.1 3.5.2 2.3.4m-47.7 3.2c-.3.5-2.4 1.1-4.6 1.3-4.2.4-4.2-.7 0-1.5s5.1-.7 4.6.2m10.2-.2c-1 .2-2.8.2-4 0q-1.8-.3 1.7-.4t2.3.4m167 .3c2.4 0 4.1.4 3.8.8s-5.4.8-11.3.6c-24.2-.6-24.9-.6-21.8-1.4 1.7-.4 8-.5 14-.3zM67 396q1.3.9.5 1c-.5 0-1.7-.5-2.5-1s-1-1-.5-1 1.7.5 2.5 1m12.5 0c-2.8 1.2-9.5 1.2-9.5 0 0-.6 2.5-1 5.8-.9q6 0 3.7.9m73.8.7c-.7.2-2.1.2-3 0q-1.3-.5 1.2-.5 2.6 0 1.8.5m9.3.2c-.5.8-5.6.3-5.6-.5 0-.2 1.4-.4 3.1-.4 1.6 0 2.8.4 2.5.9m72-.2c-.7.7-8.7.5-9.5-.3-.2-.2 2-.4 4.9-.4s5 .3 4.6.7m119.9 1.6c2.7 2.1.8 2.6-6.5 1.7-3.6-.4-5.3-.8-3.8-.9s3-.6 3.3-1.1c.9-1.4 4.8-1.2 7 .3m-156.5.3c-3.8.8-9 .9-9 .2 0-.4 2.4-.7 5.3-.7 2.8.1 4.5.3 3.7.5m188.4 1.5c2.9.7 2.9.8-.8.6q-3.8-.3-4.4-1.6-.4-1.4.8-.6c.7.5 2.7 1.2 4.4 1.6m-54.6-.4c-1 .2-2.6.2-3.5 0q-1.3-.5 1.7-.5c3 0 2.7.2 1.8.5M121.1 401c-3.6.4-7.6.4-9 0q-2.4-.8 6.4-.8l9 .1zm-14.1.9q-2.6.7-2.4 2.9 0 2-.8 2.2c-1 0-1.1-4.4-.1-5.3.3-.4 1.8-.7 3.2-.6l2.6.1zm45.7-.3q-.6.5-1.9.1-1.1-.5.6-.6t1.3.5m6.6.1c-.7.2-1.9.2-2.5 0q-1-.5 1.2-.5c2.2 0 1.9.2 1.3.5m73.5 0c-1 .2-2.8.2-4 0q-1.8-.3 1.7-.4t2.3.4m43.9-.1q-.6.5-1.9.1-1.1-.5.6-.6t1.3.5m15 .5q-1.8 1-4.5 0c-2.5-.9-2.4-.9 1.8-1 3.6 0 4.1.2 2.7 1m199.5-.1c2.7 0 4.7.4 4.4.9-.5.7-11.9.7-30.1-.1-4-.1-4-.1 1-.9 2.8-.4 8.3-.5 12.4-.3zm-300.7 2q.4.9-.4 1-1-.1-1.1-1 0-1 .4-1 .6 0 1.1 1m158.5 1c-1.6.9-12 .1-12-.9 0-.3 3-.4 6.7-.3q6.3.4 5.3 1.2m89-1c0 .5-4.3.9-10.5.8-5.7-.1-10.2-.5-9.9-1 .7-1.1 20.4-1 20.4.2m-239 .9q-.2.7-2.5.3t-2.5-.8q.2-.3 2.5-.4c2.3-.1 2.5.4 2.5.9m155.5.1q.4.9-.9 1-1.5-.1-1.6-1 0-1 .9-1t1.6 1m-285.8 1.6c-.3.3-1.2.4-1.9.1q-1.1-.5.6-.6t1.3.5m42 0q-.6.5-1.9.1-1.1-.5.6-.6t1.3.5m6.6.1c-.7.2-1.9.2-2.5 0q-1-.5 1.2-.5c2.2 0 1.9.2 1.3.5m8 0c-.7.2-1.9.2-2.5 0q-1-.5 1.2-.5c2.2 0 1.9.2 1.3.5m40.1 3.1c-.9 1.3-2.3 1.6-7 1.4-6.1-.3-9.2.8-8 2.7.4.6 2.1 1.1 3.7 1.1s2.8.4 2.5.8-2.1.6-4 .4c-3.3-.4-3.6-.7-3.6-3.7 0-2.8.4-3.3 3.1-3.9 1.7-.3 4.6-.6 6.3-.6s3.8-.5 4.6-1c2.1-1.3 3.8.6 2.4 2.8m63.3-3.2q-.6.5-1.9.1-1.1-.5.6-.6t1.3.5m65.8.3c1 1.7-.9 2-3 .5-1.8-1.4-1.8-1.4.2-1.4q2 0 2.8.9m92.7.3q-1 1.2-3.4 0c-2.2-1-2.1-1.1 1.2-1.1q3.7-.2 2.2 1.1m108.7 1.4c1.1 1-1.6 1.3-17.7 1.6-14.8.3-17.2.1-17.2-1.2s2.4-1.5 17.2-1.2c9.5.2 17.5.6 17.7.8m-297 2c.2.2-1.5.4-3.8.4q-4.3 0-4.8 1.6-1.1 3.5 5.1 3.6c2 0 3.6.4 3.6 1s-2.1.8-4.7.6l-4.8-.3-.3-4.2-.3-4.3 4.8.7c2.6.3 5 .7 5.2.9m145.4-.9a17 17 0 0 1-4.5 0q-1.8-.4 2.2-.4c4 0 3.5.2 2.3.4m10.4.6c.9.9-2.6.7-5.7-.3q-3.3-1 1.2-.6c2.1.1 4.1.6 4.5.9m79.8-.3q2 .9-7.7.9c-5.5.1-10-.3-10.3-.9-.8-1.2 15.1-1.2 18 0m-353 1q-.6.9-2 1c-1.4.1-1.7-.5-2-1q-.4-1 2-1c2.4 0 2.4.4 2 1m182.5-.2c0 1.7-2.5 3.2-5.2 3.2q-3 .1-2.8-2c0-1.7.7-2 4-2 2.2 0 4 .4 4 .8m11-.4c0 .9-3 1.4-3.5.6q-.4-1 1.4-1 2 0 2.1.4m19 .8c0 1-1.8 1.2-6.7.8l-6.8-.4 6.5-.6 6.8-.8q.2 0 .2 1m-218.7.5c-.7.2-1.9.2-2.5 0q-1-.5 1.2-.5c2.2 0 1.9.2 1.3.5m313 0a17 17 0 0 1-4.5 0q-1.8-.3 2.2-.4c4-.1 3.5.2 2.3.4m-271.6.9c-.3.3-1.2.4-1.9.1q-1.1-.5.6-.6t1.3.5m-11.4 2q-.4 1.5.8 2.5 1.7 1-.3.9-1.9 0-1.8-2.5 0-2.3 1-2.5.8.1.3 1.6m320.8.6c4.9 0 9.1.4 9.4.9s-2.7.9-7.3.9c-9.1 0-14.4-.8-13.6-2.1q.6-.8 1.6-.3c.6.4 5.1.7 9.9.6m66.9-.3c-.8.4-8.6 1.2-17.2 1.5-12.7.6-15.8.5-15.8-.6 0-1 3.8-1.4 17.3-1.6 10.3-.1 16.6.1 15.7.7M81.5 416q.4.9-1 1c-1.4.1-1.3-.5-1-1q.6-1 1-1t1 1m81.8-.3c-.7.2-2.1.2-3 0q-1.3-.5 1.2-.5 2.6 0 1.8.5m72.2 3.3q0 2.5-1.5 2.1c-.8-.2-3.6-.3-6.2-.2-2.7.1-4.8-.2-4.8-.8 0-.5-.3-1.6-.6-2.4-.4-1.2.6-1.5 6.3-1.3 6.5.1 6.8.2 6.8 2.6m57.3-.9a44 44 0 0 1-17 .4q-1.8-1 8.3-1.1c5.5 0 9.4.3 8.7.7m89.5.9c.4 1.6 1.4 2 4.4 2 3.6.1 3.7.1 1.8 1.6a6 6 0 0 1-4.6 1c-1.4-.3-3.1 0-3.8.7-.8.8-1.1.1-1.1-3.1 0-4.5 2.3-6 3.3-2.2m-117.3-.6c0 .9-3 1.4-3.5.6q-.4-1 1.4-1 2 0 2.1.4m88.4 1.6q1.7 0 1.3.6c-.9.9-13 1.3-14.2.5-1.2-.7 6.2-2 9-1.5 1.1.2 2.9.4 3.9.4m-317.9 1.5c.6.2-2.3.4-6.2.3s-7.3-.4-7.3-.8c0-.6 11.6-.2 13.5.5M163 421c2 .6 1.4.8-2.8.9q-5.1 0-4.7-.9c.7-1.2 3.9-1.2 7.5 0m175.3-.3c-.7.2-2.1.2-3 0q-1.3-.5 1.2-.5 2.6 0 1.8.5M9.4 422q-1 1-3.5.1c-2.3-.9-2.2-1 1.1-1q3.4-.1 2.4.9m8.4-.3c-1 .2-2.8.2-4 0q-1.8-.3 1.7-.4t2.3.4m135.9-.1q-.6.5-1.9.1-1.1-.5.6-.6t1.3.5m175 1.9c-1 2.1-1.9 2.5-5.4 2.5-3.9 0-4.3-.2-4.3-2.5 0-2.4.3-2.5 5.4-2.5 5.4 0 5.4 0 4.3 2.5M432 422q4.5.8-6.5.3c-6-.3-11.2-.7-11.4-.9-.8-.7 13.4-.3 17.9.6m64 0c0 .6-6.7 1-18 1s-18-.4-18-1 6.7-1 18-1 18 .4 18 1m-414.7.7c-.7.2-2.1.2-3 0q-1.4-.5 1.2-.5t1.8.5m47.2 10.3v10.5h-23.9l-.4-10.2c-.4-11.8-1.8-10.8 13.8-10.8h10.5zm63-10q.4.9-.4 1-1-.1-1.1-1 0-1 .4-1 .6 0 1.1 1m96 1c-9.1 1.2-14.7 1.1-14 0a30 30 0 0 1 10.3-.9c9.3.2 9.4.2 3.7.9m-26.2.7c-.7.2-2.1.2-3 0q-1.3-.5 1.2-.5 2.6 0 1.8.5m6.5 0c-1 .2-2.6.2-3.5 0q-1.3-.5 1.7-.5c3 0 2.7.2 1.8.5m81.5 0c-.7.2-1.9.2-2.5 0q-1-.5 1.2-.5c2.2 0 1.9.2 1.3.5M15.5 427q.3.9-1.3 1c-2.2 0-4.6 2.3-3.5 3.3.3.4 4.5.7 9.2.8 6.5 0 8 .3 6.2 1-1.3.5-5.5.8-9.5.7q-10.7-.4-8.9-4.5.4-1.3-2.3-1.5c-1.6-.1-.4-.4 2.6-.8l6.2-.8q.7-.1 1.3.8m7 0q.4.9-.9 1-1.5-.1-1.6-1 0-1 .9-1t1.6 1m11.8-.3c-.7.2-2.1.2-3 0q-1.4-.5 1.2-.5t1.8.5m49.5.8.9 11.8.6 11.6-9.9.3-10 .3-.7-12.2-.7-12.2 4.8-.3c4.3-.3 14.3.2 15 .7m82 6.3.3 7-3.3.5a49 49 0 0 1-8.5-.1l-5.3-.5v-14.6l8.3.3 8.2.4zM380 427q0 .9-.4 1-.5-.1-1.1-1-.4-1 .4-1 1 0 1.1 1m53.5 1.2q1 1.2-.8.4c-1-.3-5.9-.6-10.8-.6q-9 0-8.4-1a49 49 0 0 1 20 1.2M233 428q0 2-3 0-2-1.1.8-1c1.2 0 2.2.4 2.2 1m157-.1q0 1-1 1.6c-.5.3-1 1.5-1 2.6q.2 2-2.7 1.9c-4.7 0-6-1.7-1.9-2.4 4-.8 4.9-2.6 1.4-2.6q-2.7.1-.8-1c1.9-1.2 6-1.3 6-.1m106 0c0 .5-8.4.9-18.7.8-10.9 0-16.5-.3-13.3-.6 8.5-1 32-1.1 32-.2m-302.7.8c-.7.2-1.9.2-2.5 0q-1-.5 1.2-.5c2.2 0 1.9.2 1.3.5m99.7.2c0 1.4-4.7 2.2-7.7 1.4-2.6-.7-2.5-.8 1.7-1.4l5.3-.7q.6-.1.7.7m-93.2 3.8c-.2 2.1-.6 3.7-1 3.5l-5.3-.2c-2.5 0-4.5-.5-4.5-1s1.6-1 3.6-.8c3.6.2 5.8-1.5 4.9-4q-.2-1 1.1-1.2c1.1 0 1.4.9 1.2 3.7m153.7-2.7a42 42 0 0 1-17.4.1c-.8-.5 2.5-.9 8.4-1q9.8-.1 9 .9m-94 1q-.6.8-2 .3-3.2-1.2.6-1.3 1.8 0 1.4 1M42 435c0 2.4-.4 3-2.2 3q-2.3 0-3.4-2.5c-1.3-2.7-.7-3.3 3.4-3.4 1.8-.1 2.2.4 2.2 2.9m377.9-2.6c-1 .9-7.9 1.4-7.9.5 0-.5 1.9-.9 4.2-.9s3.9.2 3.7.4m65.7 1.1c-1.9 1.4-5.5 1.9-12.1 1.6-1.6-.1-3.9.5-5 1.3-1.7 1.4-1.8 1.7-.5 2.6q1.2.9.5 1c-.6 0-1.9-.9-2.8-2.1-2.2-2.5-5.1-2.1-5.5.8-.2 1.2-1 2.4-1.8 2.7q-1.4.7-1.4-2.3c0-5.6.4-5.9 9.3-5.4 4.5.3 9.8 0 11.7-.5s4.9-1 6.5-1.1c2.8 0 2.9 0 1.1 1.4m-253.5.5c1.6 0 2.9.4 2.9.9 0 1-5.7.4-10-1.1q-3.2-1 .9-.3c1.8.3 4.6.5 6.2.5m198.7-.3a30 30 0 0 1-6 0c-1.8-.2-.6-.4 2.7-.4s4.8.2 3.3.4m62.5 0c-.7.2-2.1.2-3 0q-1.4-.5 1.2-.5t1.8.5M292.5 435q.5 1-2.7.9c-3.1-.1-3.2-.1-.8-.9l2.7-.9q.3 0 .8.9m60 0q.5 1-6.7.8l-7.3-.1 6-.7 6.7-.8q.7-.1 1.3.8m-31.2.7c-.7.2-1.9.2-2.5 0q-1-.5 1.2-.5c2.2 0 1.9.2 1.3.5m13.5 0a30 30 0 0 1-6 0c-1.8-.2-.6-.4 2.7-.4s4.8.2 3.3.4m-64.3 1.4c-.4.5-2.1.9-3.8.7-2.5-.2-3.4.2-4.2 1.9q-1 2.4-3.7 2.3c-2.4 0-2.8-.4-2.8-3v-3h7.6q7.5 0 6.9 1.1m116.9.8c.4.5-1.2.7-3.6.4q-8.6-1.3-1-1.3c2.2 0 4.3.4 4.6.9m32.9.8c-.7.2-2.1.2-3 0q-1.4-.5 1.2-.5t1.8.5m12.7.3c0 1.3-7 1.3-9 0q-1.8-1 3.8-1c2.8 0 5.2.4 5.2 1m-204.2 1.7c-1 .2-2.8.2-4 0q-1.8-.3 1.7-.4t2.3.4m5.7.3q.4.9-.4 1-1-.1-1.1-1 0-1 .4-1 .6 0 1.1 1m88.9-.1q.4.9-1 1.5c-1.3.5-1.4.9-.4 2.2 1.1 1.2 3.9 1.5 15.8 1.3l14.5-.1-.2 6.3c-.1 3.5-.4 7.7-.6 9.4l-.9 9-3.7 38c-2.1 21.7-3.5 32.4-4.4 33.4-1.9 2-10.5-.2-17.7-4.5-3.1-1.9-7-3.7-8.7-4-3.9-.8-4.4-2.6-3.7-13.2.9-13 1.5-21.9 2.6-41.7 1.5-26.8 2.2-36.9 2.7-37.8.6-1 5.1-.9 5.7.2m10.6.1q-.2.9-2 1c-1.8.1-2-.5-2-1q.2-1 2-1c1.8 0 2 .4 2 1m14.6-.3c-1.1 1.1-13.6 1.3-13.6.3 0-.6 3.2-1 7.2-1 3.9 0 6.8.3 6.4.7m-55.8 1.8c1 .9-.3 1.1-7.1.7q-6.6-.3-6.1-1.4c.7-1 12.1-.4 13.2.7m-249.5 1.9c.9 2.2-.2 2.6-7.4 2.6-5.6 0-6.7-.3-6.3-1.4.5-1.3 2.2-1.7 11-2.4 1.2-.1 2.4.4 2.7 1.2m335 .5q-.7 3 7 3.1 2.6 0 2.7 1.5c.1 1.5-1 1.5-3.3 1.5a10 10 0 0 0-5.2 1.4c-1.8 1.3-1.8 1.4.4 2.6 1.3.6 3.6 1 5.2.8 2.9-.4 2.9-.4 2.9 4.7 0 15-4.5 103.4-5.3 104.1-.1.1-4.4.4-9.5.6l-9.3.5.5-5.1c.2-2.8.5-6.6.5-8.5.1-3.2.2-3.3 1.9-1.8 2.6 2.3 10.5 3.9 13.7 2.7 3.8-1.5 2.5-3.4-2.7-4.1-2.5-.4-5.5-1.2-6.7-1.8q-2.1-1.2-4.1-.1c-1.9 1-1.9.8-1.4-4.7.3-3.2 1.1-10.5 1.9-16.3 1.6-12 3.1-25.5 4-35 .9-10.3 4.7-45.4 5.1-46.8q.4-1 1.3-1.2c.9-.2.7.8.4 1.9m9.2-.9q1.1 1.8-3 0-2.9-1 .2-.9c1.2-.1 2.5.3 2.8.9m-228.2 1.1 3.2.1-3.1.7c-1.7.5-4.7.6-6.5.3-2.9-.4-3.1-.6-1.4-1.3 1.1-.4 2.6-.6 3.3-.3.8.2 2.8.4 4.5.5m258-.4a17 17 0 0 1-4.5 0q-1.7-.4 2.2-.4c3.9 0 3.5.2 2.3.4m15.7.4c0 .5-2.1.9-4.7.9-2.7 0-4.3-.4-3.6-.8 1.7-1.1 8.3-1.2 8.3-.1m-198 .9c0 .5-1 1-2.2.9q-3.2.1-.3-.9l2.3-.9q.2 0 .2.9m-214.7.7c-.7.2-1.9.2-2.5 0q-1-.5 1.2-.5c2.2 0 1.9.2 1.3.5m209 0c-.7.2-1.9.2-2.5 0q-1-.5 1.2-.5c2.2 0 1.9.2 1.3.5M260 448q0 .9-.9 1-1-.1-1.6-1-.4-1 .9-1 1.5 0 1.6 1m8.5 0q.3 1-1.9 1c-2.2 0-2.8-.5-3.1-1q-.3-1 1.9-1c2.2 0 2.8.4 3.1 1m5 0q.4 1-1.7 1-2.6.1-.8-1c1.9-1.2 1.8-1.2 2.5 0m19.1 13.2a945 945 0 0 1-1.7 28.8l-1.7 28-.7 13.4-4.2.8c-2.3.3-7.6 2-11.8 3.7-8.2 3.3-12.6 3.8-16.3 1.7l-2.3-1.2.1-23.5c.2-35.9.9-58.2 1.8-59.1.4-.4 6.8-.9 14.2-1 11.2-.3 13.5-.6 13.5-1.8q-.1-1.4-3-2-3.3-.4 3.5-1l7.9-.8c1.2-.2 1.3 2.1.7 14m180.7-12.5c-.7.2-1.9.2-2.5 0q-1-.5 1.2-.5c2.2 0 1.9.2 1.3.5m-316 1c-.7.2-1.9.2-2.5 0q-1-.5 1.2-.5c2.2 0 1.9.2 1.3.5m309 0a17 17 0 0 1-4.5 0q-1.7-.3 2.2-.4c3.9-.1 3.5.2 2.3.4m-52.7 2c-.1 1.6 1 1.8 8.3 2 4.7.2 8.8.6 9.3 1.1.7.7.1 7-4.2 42.7l-2.4 21.5c-.2 2.5-.9 8.2-1.6 12.7l-1.2 8.2-5.2 2.4c-6 2.8-11.8 4.8-12.4 4.3-.2-.2.2-7.3.8-15.8 2.3-30.9 3-41.6 4-57.3l.9-19.8c.1-2.9.5-3.7 2-3.7q1.8.1 1.7 1.7m-392.8 0c-1 .2-2.6.2-3.5 0q-1.3-.5 1.7-.5c3 0 2.7.2 1.8.5m92.2.9c0 .2-1.6.4-3.5.4s-3.5-.4-3.5-.8 1.6-.6 3.5-.4 3.5.6 3.5.8m15.5-.6c-.3.5-1.6 1-2.8.9q-3 0 .3-.9l2.8-.9q.2 0-.3.9m71.6 18.5v22.2l-.1 4.3-5.2-.3-5.3-.3-.5-19.5c-.7-25.8-.9-24.7 4.9-25.1a15 15 0 0 1 5.3.2c.5.3.8 8.7.9 18.5m34.6-18.4q1.2 1.1.7 12.3c-.2 6.1-.6 24.8-.8 41.5l-.4 30.4-5.8 1.8c-3.2 1-6.2 1.5-6.7 1a718 718 0 0 1-.1-43.9l.7-43.1 4.6-.4 5.7-.5c.5-.1 1.5.3 2.1.9m-69.6.9c1.8 1 1.9 2.3 1.9 21 0 19.7 0 20-2.1 20q-2.6.1-.9-1.5c2.4-2.8.6-4-6.3-4.1-3.7 0-6.9-.3-7.2-.6-.9-.9-.8-32.9.1-33.8a15 15 0 0 1 5.9-1.3l5.8-.5q1 0 2.8.8M79 455.9c4.1.7 3.7.8-4.3 1.2-6.5.3-8.7.1-8.7-.9 0-1.4 5.8-1.5 13-.3m32 1.5q-.2.4-2.5.8t-2.5-.3q.2-.8 2.5-.9c2.3-.1 2.5.2 2.5.4M81 463q1.8 1-5.2 1l-7.5.1q-.7 0-1.1-1c-.5-1.4 11.7-1.5 13.8-.1m30.7 3.3q-10 3.2 7.3 3.2h11v11.7c0 10-.2 11.8-1.6 11.8q-1.3 0-.9-1c.3-.5.3-2-.1-3.4-.5-2.3-1-2.4-9.9-2.8-5.1-.1-9.6-.6-9.9-.9-.9-.8-2-16.4-1.4-18.1q.8-1.4 4.9-1.5l4.4-.2zm18.3-.3c0 1.2-.8 1.2-3.5 0q-2.8-1 .8-.9c1.5-.1 2.7.3 2.7.9m-106.5 2c-.3.5-1.1 1-1.6 1q-.9-.1-.4-1a2 2 0 0 1 1.6-1q.9 0 .4 1m5.2-.4q-.7.5-1.9.1t.6-.6q1.8 0 1.3.5m-23 1c-.3.3-1.2.4-1.9.1q-1.1-.5.6-.6t1.3.5m80.7 2.6c.3 1.3.6 3.9.6 5.8v3.5l-6.8.2c-3.7.1-8.2.5-10 .8l-3.3.6.3-4.3.3-4.3h8c7.7 0 8-.1 7.9-2.3q0-2 1.2-2.2 1 .2 1.8 2.2m-41.6 3.1c.6.5 1.2 2.1 1.2 3.8 0 3-1.4 3.6-5.4 2q-2-.8-.7-1.5c1.9-1.2-.6-3.6-3.8-3.6q-2.8 0-1.2-.9c1.6-1 8-.9 9.9.2M19 475q-5.1 1.6-5 .2c0-.5 1.7-.9 3.8-.9q4.6-.2 1.2.7m7 10.4c0 1.1-1.9 1.5-2.5.6q-.4-.9.9-1 1.5 0 1.6.4m83.5 5.6c-.6 1.7-.2 2 2.9 2 2.9 0 3.6.4 3.6 2 0 1.8.7 2 6.9 2h6.8l.7 4.6c.3 2.6.6 12.9.6 22.9 0 14.3-.3 18.4-1.3 18.8a46 46 0 0 1-16.7.9c-2.6-1-2.6-1.2-3.8-17.3-1.5-20.5-1.6-37.9-.1-37.9q1 .2.4 2m-38.5.5q-1.2 1.5-.8 2.1c.3.2 4.4.5 9.1.6l8.6.1.6 7.1c1.3 14.7 2.2 40.1 1.5 41s-6.2.4-12.9-1c-3.4-.7-3.4-.6-2.8 2.4q.6 3-.6 3.5c-2.7 1 1.3 2.9 7 3.4 5.5.5 6.2.3 7.6-1.7 2-2.9 2.3-2 3.1 7.7q.5 7.4-.7 8c-.7.5-4.9.8-9.4.8h-8.4l-1.4-21-2.5-36.9c-.9-13-.9-16.1.2-16.7 2.1-1.4 3.1-1 1.8.6m129.5 24c.2 8.2.1 17.4-.2 20.2l-.6 5.3h-10.4l-.2-19.5-.2-19.5 3.2.7c2.4.4 3.4.2 4.1-1.1.5-.9 1.7-1.6 2.5-1.4 1.3.2 1.6 2.8 1.8 15.3m-34.2-13.2c1.6 1.1 1.7 3.3 1.5 20.7l-.3 19.5-6.5.3c-8.6.3-9.4-.4-9.6-7.5l-.5-33.6c.2-1.2 13.6-.8 15.4.6m121.3 47.3c-.1 11.5-.5 14.7-1.6 15.4-2.1 1.3-28.7 1.2-31.1 0-1.7-1-1.9-2.1-1.8-11 0-5.5.4-10.2.9-10.5.4-.2 3.5-.6 6.9-.9 3.6-.2 7.8-1.3 10.2-2.6a71 71 0 0 1 16-4.9c.4-.1.6 6.5.5 14.5m31.9-10a48 48 0 0 0 20 7.2l3-.3-.4 9c-.2 4.9-.4 9.1-.6 9.3-.5.5-29.5.5-30.1-.1-.3-.3-.3-6.7.1-14.1.8-15.4 1.1-15.7 8-11m-272 1.4q2.2.9-4.5.8c-5.8-.1-6.1-.2-2.5-.8l4.5-.8c.3 0 1.4.3 2.5.8m186.3 12.2-.3 12.3h-12l-.3-10.2-.3-10.2 4.3-2c2.4-1 5.3-2 6.6-2 2.3-.1 2.3 0 2 12.1m-33.8 2.4v10.5l-4.7-.3-4.8-.3-.5-5.8c-.3-3.2-.4-7.6-.2-9.7.4-4 1-4.4 8-4.9 2.2-.1 2.2.1 2.2 10.5m220.7-7.4c-.4 1.3-.9 5.4-1.3 9.3-.4 3.8-1.1 7.6-1.6 8.2q-1 1.3-6.7.6c-4.6-.4-5.9-.2-6.4.9-1 2.8.9 3.9 6.7 3.9l5.8.1-.7 5.2c-.4 2.8-1.1 5.2-1.6 5.4s-.6 1.5-.3 2.8a8 8 0 0 1-.1 4.1 831 831 0 0 1-10.6 78.7c-.4.4-2.1.5-3.8.1l-3.1-.7v-7.1c0-3.9.5-13.2 1-20.7l2.4-32.3a88 88 0 0 1 2.7-20.3c.9-1.2 1-2 .2-3.3q-1.5-1.9 1.1-1.7 2 0 2.1-1.4c0-.8.4-2.1.8-2.8q.7-1-.1-1.2-1 .2-1.6 1.5-.5 1.3-1.4 1.5c-1.1 0-1.5-12.6-.6-17.5.6-3.1 1-3.5 3.8-3.5 3.8 0 7.1-2.1 6.4-4.1q-.3-1.4 2.5-2.6t2.4-2.7q-.8-2.4 1.6-2.6c.5 0 .7 1 .4 2.2m-289.5 7.5c.3 4.9.3 9.1.1 9.5s-4.5.8-9.4.8c-10.5 0-10.4.1-10.4-10.4v-7l5 .2a36 36 0 0 0 8.5-.7l4.6-1q1.1 0 1.6 8.6m37-1.2c.5 11.3.5 11.3-10.4 10.7l-5.8-.4v-17.5l7.9.1 8 .1zm-87.6 14.6c2.9-.1 5.5.2 5.8.7s-1.8 1-4.7 1.1-6 .4-6.9.7q-1.9.7-1.8-1.6 0-2.1 1.2-1.4c.6.4 3.5.6 6.4.5m50.3 1.4q1.8.9-.5 1.6c-2.8 1.1-7.4 1.1-7.4-.1q-.1-1-1.1-1-.8.1-.5.8t-.9.9c-1.3.1-1.5-.5-1.5-1s-.9-.7-2.1-.4c-2.4.7-5.1-.1-4.4-1.3a50 50 0 0 1 18.4.5m37.1 0c0 3.9-15.9 3.1-16-.8 0-.4 3.6-.7 8-.7 6.4 0 8 .3 8 1.5m26 .1q-.2.4-2.1.4-1.8 0-1.4-1c.5-.8 3.5-.3 3.5.6m67.3.2q.6.5-.9 1.7c-2.3 1.6-5.9-.2-4.3-2.1q1.4-1.7 5.2.4m62.3-.5c.3.3-.9 1-2.7 1.5-3.3.8-5.4-.1-4.3-2 .6-.9 6-.5 7 .5m-93.6.7q0 .9-.9 1-1-.1-1.6-1-.4-1 .9-1 1.5 0 1.6 1m46.5.1a14 14 0 0 0-4.8 1.8c-1.1 1.1-4.9.2-4.1-1q.3-.8-1-.9-1.5.1-1.6 1.1 0 .8-1 .4-4.2-2.6 7.8-2.4c7.7.1 8.2.2 4.7 1m36.5 1q0 .9-1 .4c-.5-.3-1-1.1-1-1.6q.1-.9 1-.4a2 2 0 0 1 1 1.6m13.2.1q-1.1 1-1.2.2 0-1 .7-1.7t1.2-.2q.3.6-.7 1.7m4.8-1.4c0 .4-.9 1.5-2 2.5q-3 2.5-1.4-1.7c.6-1.6 3.4-2.3 3.4-.8m4.5.2q.4.9-.9.4-2.7-1.2-.7-1.4 1 0 1.6 1m47.5 1.8q0 3-2.9 5.4a13 13 0 0 0-4 5.1c-1.1 2.7-1 2.7 1.4 1.1 1.3-.8 2.2-2.1 1.9-2.8q-.3-1.3 1-1.9 1.6-.7 1.6 1.3 0 1.8-1 2c-.5 0-1 1.2-1 2.7q-.1 3.2 1 1.3 1-1.7.5 11l-1 26.5c-.8 23.6-1.6 37.9-2.2 39.8-.5 1.8-.6 1.8-2.6-.1a27 27 0 0 0-15.8-5.2q-5 0-5.5-1.5c-.4-.8.1-6.8 1-13.3.9-6.4 1.9-16 2.2-21.2.6-9.4 4.2-39.2 4.9-39.8q.4-.1 1 1.7.6 2 1.7 2.1 1 0 .5-.7t1.3-2c1.8-1.4 2-2.1 2-3q-.2-2.2 1.4.3 1.2 1.7.5 2.2c-1.8.7-.9 2 1 1.5 2.4-.6 5.6-6.5 4.8-8.7-.6-1.6-1-1.5-3.9.5q-3.3 2.4-2.6.8.9-1.7-1.8-1.1c-2.5.5-3.5 4.2-1.1 4.2q1.3 0-.2.9-4.2 2.8-4.1-5.3c0-2.9.2-5.5.5-5.8s4.8-.6 10-.7l9.5-.2zm-353 1.4q-.1 1.6-1.1 1.8-.8 0-.4 1 1.2 1.7-1.9.4c-1.4-.5-1.4-.9-.4-2.2q1.5-1.7.1-.8c-1.3.7-1.8-.6-.7-1.7 1.3-1.3 4.4-.2 4.4 1.5m20.8 1.9q0 2.8-.5 2.5c-.9-.8-1.1-6.6-.3-6.1.4.2.7 1.8.8 3.6m41.2-3.2q0 1-1 1.6-.9.4-1-.9.1-1.5 1-1.6 1 0 1 .9m99.2 2.3q-1.3 1.5-1.2-1.2c.1-2.7.3-2.1 1.2-1.2q1.3 1.2 0 2.4m6.8-1.8q-.1 1.4-.8 2-.7.2-.8-1.5.1-1.7.8-1.9c.7-.2.8.6.8 1.4m88.7.8q-.5 1.1-.6-.6t.5-1.3c.3.3.4 1.2.1 1.9m-180.6 1.5q-1 2.2-1.1.2c0-1.7 1-3.2 1.8-2.5q.3.6-.7 2.3m70.9.8c0 2.8-.4 3.5-2 3.5q-2 0-2-2.1 0-1.8 1.1-1.4 1 .5 1.6-1.4 1.3-4.6 1.3 1.4m-109.9.6q-.9 2.1-1 1.2c-.1-1.5 1-4.5 1.5-4 .3.2 0 1.5-.5 2.8M195 577c0 .4-1.1 1.7-2.5 3l-2.5 2.3v-2.5q.1-2.4 1.3-3.1c1.8-.6 3.7-.5 3.7.3m19.3 5.9c.9 1 1.1 13.3.8 47-.5 61.5-.3 56.6-2.1 56.6-1.3 0-1.5-6.9-1.6-53-.1-47.7.3-64.5 1.4-55 .2 1.6.9 3.6 1.5 4.4m111.2-5q-.6 1-1.7 1.1-1 0 .2-1.5c1.4-1.7 2.6-1.3 1.5.4m-249.5 1c0 1.1-.4 2.3-1 2.6q-1 .4-1-1.9c0-2.3.5-2.6 1-2.6q1 .2 1 1.9m13.5-.9q.4.9-1 1c-1.4.1-1.3-.5-1-1q.6-1 1-1t1 1m232.5-.1q-.1 1-1.1 1.7c-.6.3-.9 1.7-.6 3q.2 2.1-.7 2.5-1 0 .2.6 1 .4.7 1.3t1.7 1.6q2.1.6 3.4-1 1.2-2 1.7-.4.5 1.5 2.4-.8 1.8-2 5.7-2l3.8.1-.6 9-1.6 18c-1 9.7-4 41.5-4 42.9 0 .4-2.8.5-6.2.2-3.5-.4-9.6-.7-13.7-.8h-7.4l.7-14.7L308 611l1.5-19.8c.2-3.5.7-6.7 1-7.2s2.2-.6 4.2-.3c3.1.5 3.5.4 3-1.1q-.6-1.5.2-1.2t1.5-1.9c.6-2.4 2.6-3.6 2.6-1.6m-205 3.2q0 .9-1 .4c-.5-.3-1-1.1-1-1.6q.1-.9 1-.4a2 2 0 0 1 1 1.6m46-1.8-.9 3.4c-1 3.3.4 5.9 1.5 3 .3-.8 1.4-1.7 2.4-2 1.6-.4 1.9.3 2.3 6.7l1.1 44 .8 31.9-4.7-.6c-2.6-.4-6.6-1.5-9-2.6l-4.2-1.9.1-37.3.1-37.4 3.2-.3c2.6-.3 3.4-.9 4.5-3.8.6-1.9 1.6-3.4 2-3.4q.7 0 .8.3m21.2.9c.8 2.2.3 109.6-.5 110.4-.4.4-.8-2.8-.9-7.2 0-4.3-.2-9.3-.4-10.9-.2-2.9-.5-60.2-.4-82.3 0-9.9.9-13.8 2.2-10m119.8.9q0 .8-1 .9-.9-.1-1-1.6.1-1.3 1-.9 1 .6 1 1.6m148 0q0 .9-1 .4c-.5-.3-1-1.1-1-1.6q.1-.9 1-.4a2 2 0 0 1 1 1.6m-373.7.7q-.5 1.9 2.2 3c2.9 1.3 4.9.8 3.9-1.1q-.4-1 1 .7 1.5 2 2.8.8 1.3-1 2.9.1c1.3 1 1.7 4.1 2.3 15.2l1.1 18.5c.3 2.5.7 9.9 1 16.5.2 6.6.7 15.9 1.1 20.7.6 7.8.5 8.8-1 8.8-.9 0-3.4 1.1-5.6 2.5a22 22 0 0 1-4.6 2.5c-.3 0-1.9.9-3.5 2l-2.8 2.1-.7-2.6a24 24 0 0 1-.1-7.2c.3-2.5.1-5.8-.3-7.3s-1.1-9-1.5-16.6-1-20.2-1.6-27.9c-1.3-20.7-1.2-27.2.7-30s3.4-3.3 2.7-.7m25.1 51.2c2.8 59.7 2.8 59 1.1 59-1.2 0-1.5-1.5-1.6-7.3 0-3.9-.2-8.1-.4-9.2-.4-2.9-1.5-20.1-2.1-34L99 616c-1.4-19.5-1.3-34.7.3-35.3 1.4-.5 1.9 4.8 4.1 52.3M255 581q0 .9-1 1a1 1 0 0 1-1-1q.1-1 1-1t1 1m22.7 1.2q-.5 1.1-.6-.6t.5-1.3c.3.3.4 1.2.1 1.9m-99.9 54.7c.2 37.7-.1 56.2-.8 56.6q-.9.4-1.5-.7a1570 1570 0 0 1-2.1-72.5c-.7-33.2-.6-35.4 1.1-37.3 1-1.1 2.1-2 2.4-2s.7 25.2.9 55.9m83.5-54.4q-.6 1.4-1 1.1-.4-.5.2-1.5c.9-1.6 1.5-1.3.8.4m-152.9 32a2354 2354 0 0 0 3 63c.3 2.3.1 3.4-.3 2.5-1.2-2.2-3.1-30.5-4.1-63-.6-15.7-1.2-29.7-1.4-31.1-.3-1.5-.2-3 .2-3.4.9-.9 1.8 10.2 2.6 32m21.6-30q-1.6 1.7.4 1.5c2-.2 1.6 1.8 1.7 14.2.1 15.3.6 36.4 1.3 49l.4 7.8h-8.3c-7 0-8.4-.3-9-1.8a1307 1307 0 0 1-3.3-69.7c.1-.1 2.9-.5 6.1-.8 4.6-.5 5.7-.3 5.7.9q.2 1.2 1.5 1.4c1.3.2 1.5-.6 1.5-1.3 0-1.5 2.1-3.9 2.8-3.2q.4.5-.8 2m16.5 7c1 16.7 1.4 96.4.4 97-1.1.7-.9 9-1.6-53.5-.5-50.2-.2-64.4 1.2-43.5m124.1-8.6c-.7 1.1 2.3 2.5 4.7 2.2q1.5-.1 1.7 1-.1 1.3 1.3 0 1.4-1 2-.4.8.4 2.1-.6c2.4-2 3.3-.6 3.9 6.6a750 750 0 0 1-2.8 65.1c-.3.4-5.6.9-11.8 1.3a57 57 0 0 0-19.3 3.9c-.4 0-.4-16.9 0-37.6.5-30.7.9-38 2.1-39.7q1.3-1.9 1.5-.9t2 1.2c1.8.2 2 .6 2 1.2q.1 1 1.1-.5c1.7-3 3-1.9 2.4 2q-.4 3.3.1 2.6.5-1.2.4-1.8c0-.3 1.3-1.9 3.1-3.6q4.8-4.5 3.5-2m55.4.1q0 .9-.4 1-.6-.1-1.1-1-.4-1 .4-1 1 0 1.1 1m-256.6 9.3 1.1 24.2c.3 8.8 1 23.2 1.5 32 1.7 27.4 1.8 29.1 1 27-.9-2.3-2.9-23.9-3.5-38.3l-1-16.7c-1.4-18.2-2.3-36-1.8-36.7q1.9-3 2.7 8.5M303.1 613l-2.2 38-1.4 25.5c-.7 11.5-1.4 16.3-2.7 17.1q-1 .5-.4-8.2l1.1-23.4 1-23.5c2.2-43.9 2.9-54.1 3.9-54.7 1.7-1.2 1.9 5.7.7 29.2M200 629.3V668l-2.4 1.1c-1.4.7-3.6.9-5 .5l-2.6-.6.2-41.3.3-41.2 3.8.2c2.9.2 3.7-.1 3.8-1.5q.2-1.2.9 1.8c.5 1.9.9 20.9 1 42.3m25.6-40.6c.3-.3 1.6-.2 2.9.3q2.2.8 3.4-.3t1.2.8c.1 2.1 0 63.6-.1 73.7l-.1 5.6-4.2.4c-2.3.1-5.3.2-6.5 0l-2.4-.4.6-31.6.6-41.6c0-9.9 0-9.9 2-8.1 1.1 1 2.3 1.6 2.6 1.2m170.7 2-1.3 23.8a780 780 0 0 1-4.6 61.4c-.7.7-.4-10.9.6-24.4 1.2-16.9 1.8-27 2.5-43.5.6-14.9 1.3-21 2.4-21 .3 0 .5 1.7.4 3.7m-86.1 71.5q-1.1 1-1.2.2c0-1.4 1.2-2.6 1.9-1.9q.2.6-.7 1.7m-185.4 4.7c-1.8 1.7-3.7 3.1-4.2 3.1s.8-1.5 3-3.4c4.8-4.2 5.9-3.9 1.2.3m8.2-3.6c0 .2-1.1 1.4-2.5 2.7q-2.3 2.1-2.5 1.7c0-.3 1-1.5 2.2-2.7q3-2.8 2.8-1.7m151 4.2c0 2.5-.3 4.5-.7 4.5-.5 0-.8-2-.8-4.5s.3-4.5.8-4.5.7 2 .7 4.5m-12.9-.2q-2 1.9-1.6.7c1.4-2.6 2.8-4.1 3.3-3.5.3.3-.5 1.6-1.7 2.8m-13.1-1.7c0 .3-.5 1.5-1.1 2.7q-1 2.3 1.5-.8 2.7-3.3 2.6-1.3c0 .9-.4 2-1 2.3s-1 1.5-1 2.6c0 2-.4 2.3-5.2 3.3l-2.8.6 1.7-3.7c1-2.1 2.1-4.4 2.6-5.1 1-1.2 2.7-1.7 2.7-.6m-125.8 4.6c-3.2 3.3-4.7 1.7-1.6-1.7q2.8-3.1 3.2-1.6c.2.7-.5 2.2-1.6 3.3m130.9 1.1c-2.9 2.9-3.6 1.6-.9-1.8q2.1-2.7 2.6-1.6c.2.7-.5 2.2-1.7 3.4M157 669q-.1.9-1.1 1-.8-.1-.4-1 .6-1 1.1-1 .3 0 .4 1m205.2 1.7c.7.6 4.3 1.3 8.1 1.6 3.7.2 7 .6 7.3.9s.2 5.2-.2 10.8c-.6 8.9-1 10.3-2.6 10.8-2.7.7-1.8 3.6 1.4 4.2 1.4.3 3.6 1.7 4.8 3.2 2.2 2.9 4.9 3.7 5.1 1.5l.3-2.6c.1-1.8 2.6-2.7 2.6-.9 0 .7-1.2 3.6-2.7 6.3-2 3.8-2.6 6.3-2.6 10.5q.1 5.6-1.4 7.2c-1.8 2-1 3.8 1.8 3.8q1.8 0 1.9 1.9c.1 1.9-.7 1.8-1.7 1.7-1.5-.1-1.8.6-1.6 3.8.2 2.2 1 4.7 1.9 5.8 1.5 1.5 1.5 2.2.5 4.6l-1.3 2.7-1.2-3.5q-1.1-3.6-3.1-3.5-1.8 0-1.8 1.2c.2.6.5 3.1.8 5.5q.6 6-1.9-1.5-.5-1.6-3.2-1.7c-2.4 0-2.6.3-1.9 2.7 1.6 5.8.8 18.4-1.3 20.5q-1.3 1.5-.6-3.8c.5-3.9.3-5.3-1-6.3-2.3-2-4.1 0-3.8 4.2.2 2.6-.2 3.4-2.2 4.3-2.3 1.1-2.7.9-4.5-2.1-3.6-6.1-21.4-18.5-26.5-18.5-1 0-2.6-1-3.5-2.1-2.3-2.9-10.5-4.1-19-2.9-3.6.5-6.8.7-7.1.4-1-1 3.4-3.4 6.3-3.4 6 0 11-6.3 7.6-9.7-.8-.8-.6-1.9.7-4.2 2.2-3.8.9-6-2.5-4.2a19 19 0 0 0-6.1 10.8q-.2 1.8-5.1 4.2c-2.9 1.3-5.4 3.3-5.9 4.5-.9 2.3-6.5 7.6-8 7.6q-.8-.1-.4-1.3c.3-.8-.1-1.9-.9-2.5-1.1-.9-1.8-.7-3.3.9-1.8 2-1.8 2.1-.1 3.4 1.8 1.3 1.8 1.4-.2 2.4-2.8 1.5-3.1 1.4-3.1-1.3 0-1.4-.4-2.7-.9-3.1-1.5-.8-4.1 2.4-4.1 5.1 0 3-1.8 3.2-2.2.1s-4-3-4.8.2c-.3 1.4-1.2 2.7-1.9 2.9-1.1.4-1.3-.5-.8-4.2.6-4.5.6-4.7-1.5-4.4-1.8.2-2.4 1.2-3.1 4.5-.9 5-3.1 5.7-3.3 1.2-.2-4.2-2.1-6-3.2-2.9-1.2 3.2-7 3.5-9.4.6-1.6-2-1.6-2-1.5-.1q.1 1.9-2.5 3.3c-1.6.7-2.8 2-2.8 2.8q-.2 1.2-1.5 1.4-1.3 0-.9-1.5c.7-1.8-1.9-3-4.3-2-1 .4-2.7.8-3.8.9q-1.8.2-2.3 2.1c-.6 3.2-2.2 4.2-2.2 1.4 0-1.3-.4-3-.9-3.8-1.3-2.1-4.1-.5-4.1 2.3 0 1.4-.4 2.8-1 3.1q-.9.4-1-1.5-.2-2.6-1-4.1c-.9-1.5-1.5-1.7-3-.9-1.7.9-2 .7-2-1 0-2.6-1-2.5-3.9.1-4 3.8-3.5 1.1 1-4.8l5.9-7.9 8.5-12.3a62 62 0 0 1 19.1-21.1c10.2-8.1 13.1-10 15.3-10 1.1 0 2.8-1.1 3.8-2.5 1.4-2.1 3.1-2.8 7.9-3.4a36 36 0 0 0 9.2-2.5c4.3-2.2 5.2-2 5.2 1.3 0 2.1-1.1 3.9-4 6.5-2.2 2-4 4-4 4.6q-.1 1-2.1 2-1.8 1.3-1.5 2.5c.2.7-.2 1.9-1 2.6-1.4 1.2-1.4 1.4.2 2.6 1.8 1.3 4.4.2 4.4-1.8 0-1.4 3.9-4.9 6.6-5.9 1.4-.6 4.9-.7 7.7-.4 5.1.5 11.7-1.2 13.1-3.5.6-1 1.5-9.6 1.6-15.7v-4.1l6.7-1.8c3.7-1 9.8-2.1 13.5-2.5l6.9-.6-.4 6.3c-.1 3.5-.8 6.8-1.5 7.5s-1.2 2.7-1.2 4.5c0 4.5 2.5 5.4 5.3 1.9 2-2.4 2.5-2.5 5.7-1.6 1.9.6 4.9 1 6.6.8q3.2-.3 6.3 2.5c1.8 1.5 3.8 2.7 4.5 2.7s2.1.9 3.1 2c3.4 3.8 6.8 1.7 4.1-2.5-.9-1.4-2.3-2.5-3.1-2.5q-1.4-.1-1.5-2.1.1-2-4-3.7l-4.1-1.7.6-6.5c1-10.9 1-10.8 5.4-10.6 2.2.1 4.5.7 5.3 1.3m-192.2.8q0 1.3-1 1.5-.8-.2-.4-1.5.7-1.3 1-1.5.3.2.4 1.5m265.3 1.2c-.7.2-2.1.2-3 0q-1.3-.5 1.2-.5 2.6 0 1.8.5m-239.5 6.9c-2.4 3-4.5 5.4-4.8 5.4-1.3 0-.8-7.9.6-9.1 2.1-1.8 3-.2 1.1 1.9-1 1-1.7 2.2-1.7 2.7 0 .8.6.1 5.3-5.5 1-1.1 2.2-1.8 2.7-1.5s-.9 3.1-3.2 6.1m38.2-5.7c0 .5-.3 1.7-.6 2.5-.6 1.5-.8 1.5-1.9-.1q-1.1-1.7-.9-2.5c.7-1.1 3.4-1 3.4.1m-64 2.8c0 1.8-12.9 15.7-13.7 14.9-.3-.3 1.8-3.2 4.6-6.6a77 77 0 0 0 6.1-8c1.3-2.5 3-2.6 3-.3m234-.7q0 .9-1 1a1 1 0 0 1-1-1q.1-1 1-1t1 1m-316 .9c0 1.2-2 2.5-2.7 1.8s.6-2.7 1.8-2.7q.8 0 .9.9m109.3 7c-2.7 3.9-6.9 7.3-6.2 5.2 1-2.9 8.4-11.9 8.7-10.6.2.8-.9 3.2-2.5 5.4m24.8-3.8q-2 2-2.1 1.4c0-1.1 3.2-4.6 3.8-4.1.2.3-.5 1.5-1.7 2.7m-89.2 6q-3.1 2-.8-3.3l1.4-3.3.3 2.9c.2 1.6-.2 3.2-.9 3.7m270-3.9c0 1.3-.4 4.1-.8 6.3-.9 4-.9 4-1 .7 0-1.8-.6-4.2-1.1-5.3-1.2-2.2-.6-3.9 1.6-3.9q1.3.1 1.3 2.2M98 681.9c0 1.2-2 2.5-2.7 1.8s.6-2.7 1.8-2.7q.8 0 .9.9m73 0c0 1.3-10 12.1-11.2 12.1-.9 0 .9-2.7 6.6-9.5q4.4-5.2 4.6-2.6m255.5.1c-.3.5-1.1 1-1.6 1q-.9-.1-.4-1a2 2 0 0 1 1.6-1q.9 0 .4 1m-36.8 4.7q-.5 1.3-.5-1.7c0-3 .2-2.7.5-1.8s.2 2.6 0 3.5m-316-1.5q-.5 1.1-.6-.6t.5-1.3c.3.3.4 1.2.1 1.9m148.8.8q-1.7 1.8-2.3 1.5c-.3-.3.3-1.4 1.3-2.5s2-1.8 2.3-1.5-.3 1.4-1.3 2.5m41.7-.8q-1.1 1-1.2.2c0-1.4 1.2-2.6 1.9-1.9q.3.6-.7 1.7M112 686.5c0 1.4-.4 2.5-.9 2.5s-.6-1.1-.3-2.5.6-2.5.8-2.5.4 1.1.4 2.5m88-1.5q-.1.9-1.1 1-.8-.1-.4-1 .6-1 1.1-1 .3 0 .4 1m37 1.7q-.1 1.6-.8.8l-1.6-1.8q-.7-.7.7-.7 1.6.2 1.7 1.7m193 0c-1.4.3-3.2 1-4 1.6q-2 1.7-.1-.6c.7-.9 2.5-1.6 4-1.6l2.6.2zm-332 4.8q-1.2 1.3-2.1 1.5c-1.3 0-1.1-2.4.3-3.8 1.8-1.8 3.5.3 1.8 2.3m98.4-.3q-2.4 4.8-4.7 4.8c-.9 0 .9-3.8 3.1-6.3 2.5-2.8 3.4-1.9 1.6 1.5m200 2.5c.3 2.4.2 4.3-.3 4.3-.8 0-2.1-5.5-2.1-9 0-2.9 1.8.6 2.4 4.7m-266.2-.5q-2.2 2.3-2.2.9c0-1.5 3.2-4.3 3.9-3.5q.3.6-1.7 2.6M242 692q-.1.9-1.1 1-.8-.1-.4-1 .6-1 1.1-1 .3 0 .4 1m-17.5 1c.7 1.1-4.2 3.7-5.1 2.7s1.5-3.7 3.2-3.7q1.2 0 1.9 1m9.5 7.9a60 60 0 0 1-5.5 7.1q-1.4 1.3-1.5 2.2c0 .5-2.2 3.1-5 5.6a81 81 0 0 0-7.4 8c-6.9 9.5-23.5 27.2-21.1 22.5a58 58 0 0 1 6.7-8.4c11.3-12 19.7-22.8 12-15.5-2.3 2.2-4.5 3.7-4.8 3.3-.7-.7 5.5-8.2 8.7-10.5 2-1.4 2.1-1.3 1.4.7q-.5 2 .4 2.1 1-.1 1.1-1c0-.6 1-2.1 2.3-3.4 3-3 10.7-12.7 10.7-13.5q-.2-.7-2.5-.9c-1.4-.1-2.5.3-2.5.8q.1 1 1.6 1 2-.1.4 1.5c-1.6 1.9-3 1.9-3 0 0-1.3-.4-1.4-2.1-.4-2.1 1.1-2.1 1.1-.3-1.5 2.3-3 6.6-5 9.4-4.3 1.1.3 2.3.1 2.6-.4q.5-.8 1.5-.9c.5 0-.9 2.6-3.1 5.9m197.2-4.1c.5 1.9 5 3.2 11.1 3.2 1.5 0 2.7.4 2.7 1q-.1.9-1.5 1-1.5.2-2.6 2.3c-1.2 2.7-9 5.8-14 5.5q-4.6 0 1.1-.7 4.6-.6 4.5-2.1c0-1.2-1.5-1.5-7.8-1.4-6.4.2-8.9.7-13.7 3.1-3.1 1.5-5.6 2.4-5.3 1.8s4.6-3.2 9.7-5.8a43 43 0 0 0 11-7.2c1.9-3 4.2-3.2 4.8-.7m-315.1 3.6c-2.5 2.7-5.8 3.3-3.9.7 2.1-2.8 5.3-5 5.7-4 .2.6-.6 2.1-1.8 3.3m25.4-1.9c0 .5-1.7 1.1-3.7 1.3q-5.5.4-3.1-2.2c1.1-1 6.8-.3 6.8.9m98.5-.2c0 .2-1.2 1.4-2.7 2.8q-3.6 3.1 0-1.9c.8-1.1 2.7-1.7 2.7-.9m177 .1q-.1.4-1.6 1-1.3.5-.9-.4c.6-1 2.5-1.4 2.5-.6m-329.7 1.8c-1.8 3-5.7 6.8-7 6.8-2.1 0-1.6-1.2 1.9-4.7 3.3-3.2 6.7-4.5 5.1-2.1m21.7-.5c0 1-3.2 4.3-4.2 4.3-1.3 0-.9-1.7.8-3.4 1.6-1.6 3.4-2.1 3.4-.9m-32 2.1c0 1.1-6.9 7.2-8.1 7.2-1.7 0-.9-2.2 2-5.1 2.8-2.7 6.1-3.9 6.1-2.1m55 3.6c0 1.9-2.7 3.9-4.1 3q-1.2-.6.5-1.6c.9-.5 1.6-1.6 1.6-2.4q.1-1.3 1-.9c.6.3 1 1.2 1 1.9m271-2c0 .3-1.4 2.6-3.1 5.1-3.9 5.8-4.4 10.9-1.1 11.3 2.5.4 2.8 1.9 1 5.7-.9 2.1-.9 3.1 0 4.6a9 9 0 0 1 1.2 4.4c0 2.4-.2 2.5-4.7 2.2l-4.8-.4-1.2-6.9c-2.7-14.7-2.7-15.7-.4-17.8 1.2-1.1 2.1-2.5 2.1-3.3q-.1-5.4 6.5-5.3c2.5 0 4.5.2 4.5.4m46.1 2.3c-.5 1-2.2 2.9-3.7 4.3l-2.8 2.5 2.7-3.3c1.5-1.9 2.7-3.8 2.7-4.3s.5-.9 1-.9q1 0 .1 1.7m4 3q-1.8 2.9-.5-1.2.7-1.4 1.1-1.1c.3.2 0 1.3-.6 2.3m-311.1-.9a18 18 0 0 1-3.5 4.2q-3.6 3.5-2.2 4.2 1.4.6-1.2 3l-2.3 2.3.7-2.5c.7-2.3.7-2.3-.9-.7-1.9 1.9-3.6 2.2-3.6.8s10.4-12.1 11.8-12.1q1 .1 1.2.8m-84 2.1q0 1-1 1.6-.9.4-1-.9.1-1.5 1-1.6 1 0 1 .9m8 1q-.1.9-1.6 1.5-2 .9-.4-.9 2-2.6 2-.6m140 1.1q-1 1.8-2.1 1.4-1-.6.2-2c1.7-2.1 3.1-1.7 1.9.6m-109-.3a14 14 0 0 1-3 3.8c-1.7 1.6-5 5.5-7.3 8.5-2.4 3-5.1 5.6-6.1 5.8-1.8.4.3-2.6 9.9-14.1 3.5-4.2 6.5-6 6.5-4m7.2 2.5q-1.1 1.2-1.2 2.9c0 2.5-3.9 6.9-6.1 6.9q-1.7 0-1.9-.7c0-.8 9.1-10.3 9.9-10.3q.4 0-.7 1.2m37.6 1.9c-2.1 1.7-3.8 3.7-3.8 4.4 0 1.6-5 5.8-5.9 4.9a60 60 0 0 1 12.7-12.4c.4.1-1 1.4-3 3.1M422 715c-1.9.4-4.3 1.1-5.2 1.5q-1.7.6-1.8-.3 0-2 7-2h3.5zm60.9-.6c-1.1.9-6.9 1.4-6.9.6 0-.6 1.7-1 3.7-1s3.4.2 3.2.4m-20.1 4.4c-.8.9-1.8 2.6-2.3 3.7q-.7 1.7-1.2.9c-.2-.6.7-2.7 1.9-4.6 1.3-2 2.5-3.1 2.7-2.6.1.5-.3 1.7-1.1 2.6M201 717.5c0 .3-.9 2.3-1.9 4.4-2.1 4.1-5.1 7.2-5.1 5.2 0-1.3 2.7-6.9 4.2-8.9 1.1-1.2 2.8-1.7 2.8-.7m-69.7 5q-.6 1.4-1 1.1-.4-.5.2-1.5c.9-1.6 1.5-1.3.8.4m-25.9.7a58 58 0 0 1-10.2 11.4c-.4-.5 7.4-10.4 9.3-11.8q2.2-1.7.9.4m300.8 1q-1.1 1-1.2.2c0-1.4 1.2-2.6 1.9-1.9q.3.6-.7 1.7m22.4-.8q1.3 1.4.4 2.1c-1.4.8-3-.3-3-2.1s.8-1.8 2.6 0m-12.6 1.1c-.7.9-2.7 2.5-4.3 3.7l-2.9 2.1 1.1-2.1c1.6-3 4-5.2 5.8-5.2q1.9-.1.3 1.5M55 725q-.1.9-1.1 1-.8-.1-.4-1t1.1-1q.4 0 .4 1m409.1 1.2c-.4 1.2-2 2.5-3.4 2.9-2.3.6-2.7.4-2.7-1.3q-.1-2.2 2-1.5c1 .3 2.4-.1 3.1-.9q2.4-3 1 .8m-342 .5c-1.1 2.2-7.1 7.6-7.7 7-.5-.5 6.8-8.7 7.8-8.7q.7.2-.1 1.7m3.4 1.7c-.9 1.3-3.5 3.6-5.8 5.2l-4.2 2.7 5.3-5.1c5.8-5.7 7.1-6.5 4.7-2.8m320.9 2c-.3.9-1.3 1.6-2 1.6-.8 0-2.7.8-4.2 1.7-3.6 2.3-2.4.9 2.4-2.7 4.2-3.1 4.8-3.2 3.8-.6m-263.4-.6c0 1.5-5.9 9.2-7 9.2-1.7 0-1.1-1.5 2-5.8 2.8-3.9 5-5.4 5-3.4m31 0c0 .5-1.1 1.9-2.5 3.2-2.8 2.7-3.6.8-.8-2.2 1.7-1.9 3.3-2.4 3.3-1m219.8 1.2c-1.3 2-3.8 2.8-3.8 1.2 0-.7 3.1-2.7 4.8-3.1zm-231.5 1.7c-1.8 3-14.8 18.1-25.5 29.8-6.3 6.7-4.2 2.5 3-6.1 3.7-4.5 9.4-11.6 12.7-15.9 4.9-6.2 9.1-10.1 11.3-10.5.1 0-.5 1.2-1.5 2.7m-111.7 1.1c-1.5 2.8-4.6 6.1-4.6 4.8 0-.7 5.3-7.6 5.8-7.6.1 0-.4 1.3-1.2 2.8m86.4-2.2a19 19 0 0 1-3.1 4.3 187 187 0 0 0-15.6 20.1c-1.9 3-4 5.9-4.7 6.5-.6.5-2.1 2.3-3.3 3.8-4.2 5.5-9.5 10.9-10 10.3-.3-.3.6-1.9 2.1-3.6 1.4-1.7 2.6-3.5 2.6-3.9s1.1-1.4 2.5-2.1 3.6-3.6 4.9-6.4 4.4-7.1 6.8-9.6 5-5.7 5.8-7.2 3.5-4.9 6-7.7q6-7 6-4.5m245 2.4q-.1.8-1.5.4-1.4-.6-1.5-1 .1-.3 1.5-.4c1.4-.1 1.5.4 1.5 1m47.7 4.3c-1.8 4.1-4.3 6.3-3.2 2.6 1-3 3.6-7.1 4.2-6.5.2.2-.2 2-1 3.9M92 739c-2.1 3-4 4.6-4 3.5 0-1.3 4.1-6.5 5.1-6.5.6 0 .1 1.3-1.1 3m371.3-1c-.6 2.2-3.3 2.4-4 .3q-.6-1.5 3.9-2.2.5.1.1 1.9m-309.2 2.7c-1.1 2.1-7.1 8-7.1 7.1q.1-.8 1.3-2c.7-.7 2-2.5 3-4.1 1.9-3 4.4-3.9 2.8-1m285.6 1.7c-1.9 1.4-11.4 3.2-12.3 2.3-.3-.2 1.8-.7 4.5-1.1s5.3-1.1 5.6-1.6 1.4-1 2.3-1c1.5.1 1.5.2-.1 1.4m-291.8.3a67 67 0 0 1-10.7 13.1c-2.3.7-1.2-1.3 3.9-7.6q7-8.4 6.8-5.5m248.3 1.8q.6 2.5-1.9 4.6c-3.1 3-4.8 1.4-3.9-3.5.6-2.9 1.1-3.6 3-3.6q2.4-.1 2.8 2.5m63.8-1.7c0 1.2-3.9 4.6-4.5 4.1-.6-.7 2.4-4.9 3.6-4.9q.8.1.9.8m33.5.2q.4.9-.9 1-1.5-.1-1.6-1 0-1 .9-1t1.6 1m-391.7 2c-.7 1.1-1.7 2-2.2 2q-.7-.2.9-2c1.6-1.8 2-2 2.2-2q.2.2-.9 2m99 .2c-.8 1.2-2.5 2.9-3.8 3.7-2.2 1.5-2.2 1.3.5-2.1 3.2-4.1 5.7-5.3 3.3-1.6m-97.2 2.4c-1.5 1.4-3.1 2.3-3.4 2-.9-.9 3-4.6 4.7-4.6q1.8 0-1.3 2.6m210.1-.6a11 11 0 0 0 5.7 2.1c1.7.1 4.5.4 6.1.8l3 .6-3.7 2.3q-4 2.4-3.8 4.8c0 2.5 1.8 3.2 3.7 1.3.6-.6 2.2-1.7 3.5-2.3q2.3-1.2 2.1-3.4c-.3-2.5 1.4-2.9 4.1-.9 1.6 1.2 1.6 1.4-.9 2.7-1.5.8-4 3.4-5.7 5.7a33 33 0 0 1-8.3 7.8q-5.5 3.4-5.5 5.5c0 2.7 2.5 2.6 6-.3 1.5-1.2 4.2-3 5.9-3.9s4.1-3.3 5.2-5.3q4.4-7.6 7.8-3.4c2 2.5 4.1 1.9 4.1-1.2q0-1.8-2-1.9-1.8-.1-2-1.5c0-2.2 2.1-1.8 5.4.8l2.9 2.3-2.4 2.7c-4.6 5-7.9 9.5-7.9 10.6 0 1.8 3.5 1.3 6.2-.9 1.4-1.1 3.3-3.8 4.2-6.1s2.2-3.9 2.9-3.6c1.9.6 5.8 6.8 5 8q-.6.9-1.6-1.1c-1.5-3.2-4-2.7-6.1 1.3-1.1 1.9-3 4.2-4.2 5-4.6 3-2.3 6.7 2.3 3.9 2.3-1.5 2.1-1.1-1.2 2.4-3.4 3.7-4.4 4.2-8.3 4.2-5.7 0-6.7.6-13.2 8.5a37 37 0 0 1-19.5 13q-8.8 3.2-9.9 8.1c-.4 1.3-1.2 2.4-1.9 2.4s-2.4.6-3.9 1.4q-2.5 1.4-3.6.4c-.6-.6-3-.7-6-.3-4 .5-5.1 1.1-5.6 2.8-.6 2.4-2 1.5-3-2-.6-2-.3-2.3 3.2-2.9 5.9-.9 7-1.9 5.4-4.4-1-1.7-1-2.5-.1-3.6.6-.7.9-2.8.7-4.6q-.6-3.3 1.3-5.8c2-2.7 2.3-4.3 2.1-10.3-.2-3.9-2.6-7.1-8.1-10.9l-2.3-1.7 9.1-9.2c5.5-5.6 8.8-9.6 8.2-10.2q-2.5-2.4-9.1 5.4c-4.3 5.2-11.4 10.9-13.4 10.9-.6 0 .7-1.7 3-3.8s4.8-5.1 5.7-6.8c1.8-3.4 7.5-7.7 12.7-9.5 1.9-.7 4.2-2.1 5-3.1.9-1.1 4-2.1 8.5-2.8 3.8-.6 7.1-1.3 7.4-1.6q1.2-1.3 4.8 1.6m90.5.2q-1.1 1-1.2.2c0-1.4 1.2-2.6 1.9-1.9q.3.6-.7 1.7m9.8 3.3c1.6 1.9.3 4-1.6 2.4-1.5-1.3-1.9-3.9-.5-3.9q.9.2 2.1 1.5m27.6 0a9 9 0 0 1-5 1.4c-2.8-.1-2.6-.2 1.4-1.3l5-1.4q.3 0-1.4 1.3m-346.6.3c0 1.4-3.9 4.6-4.7 3.9-.3-.4.2-1.6 1.2-2.7 1.9-2.1 3.5-2.6 3.5-1.2m-16 .6q0 .5-1 1.1-.9.4-1-.4.1-1 1-1.1 1 0 1 .4m114.3 2.6c-.9 1.6-2.1 3-2.6 3q-1.3-.2 2.1-4.3 3.5-3.8.5 1.3m-60.9 1.5c-.7 1.6-2.4 2.1-2.4.6q-.2-1 2.7-2zm258.5.5a8 8 0 0 0 6.4 1.3c2.8-.4 3.8-.2 4.3 1 .7 1.8 5.8 2.1 9.1.5 1.9-.9 12.1-.3 11.1.7-.1.2-3.8 1.1-8.2 1.9-7.2 1.5-8.3 1.5-12.7.1-4.4-1.5-5.2-1.5-9.6 0-2.6.9-5.9 2.7-7.3 3.9-2.6 2.5-6.2 4.6-7.7 4.6-.5 0 1.2-2.3 3.8-5.1 2.6-2.9 5.3-6.5 6-8 1.4-3.4 1.3-3.4 4.8-.9m-206.6 2.5q-.6 1.4-1 1.1-.4-.5.2-1.5c.9-1.6 1.5-1.3.8.4m-98.9 1.6q-.6.8-1.5.3t-.3-1.5q.6-.8 1.5-.3t.3 1.5m18.7 1.2q-2.1 1.9-1.5.7c1.2-2.2 2.8-3.9 3.3-3.4.3.3-.6 1.5-1.8 2.7m-50.7.2c-.6 1.6-2.4 2.1-2.4.7 0-1.1 1.1-2.2 2.1-2.2q.8.2.3 1.5m-13.8 4.3c-2.4 2.4-3.1.6-1-2.5 1.6-2.4 1.9-2.6 2.2-.9.2 1-.3 2.5-1.2 3.4m6.3-2.6q-1.3 2.4-1.7.9-.2-1.2.9-2.2 2.9-2.1.8 1.3m94.1 1.7c-2 3-4 4-4 2.2 0-1.2 5-6.4 5.7-5.8.3.3-.5 2-1.7 3.6m-48 4c-2 2.9-4 4.1-4 2.4 0-1 5.3-6.4 5.8-5.8.2.2-.6 1.8-1.8 3.4m65.8 2.1c-3.7 5.7-6.8 7.7-6.8 4.6 0-1.4 8.8-10.6 10.2-10.6.3 0-1.2 2.7-3.4 6m-46-3.3c-.2 1.4-1.5 1.8-5.8 2l-5.5.3 4.5-1.9c5.8-2.4 7.2-2.5 6.8-.4m40.7 1.2q-.6 1-1.7 1.1-1 0 .2-1.5c1.4-1.7 2.6-1.3 1.5.4m12.9.5q-.7 1.6-2.2 1.1c-.8-.3-2.1.3-2.8 1.2-1.2 1.6-1.3 1.6-1.4.2 0-1.8 2.6-3.3 4.1-2.3q.9.3 1.5-1.1t1-1.2c.3.2.2 1.2-.2 2.1m-68 0c-.7 1.9-3.4 2.9-3.4 1.2q0-1.2.7-1.9c1.2-1.3 3.2-.7 2.7.7M79 771c0 1.3-2.8 2.5-3.8 1.6q-.4-.7.8-1.6 3-1.9 3 0m286.4 1.5c-.9 1.4-2 2.5-2.5 2.5s-.9-1.1-.9-2.5c0-2 .5-2.5 2.5-2.5 2.5 0 2.5.1.9 2.5m20.6-.5q-.1.9-1.1 1-.8-.1-.4-1 .6-1 1.1-1 .4 0 .4 1m-378 .4c0 2-2.2 5.6-3.5 5.6-2 0-1.9-1.9.2-4.2 1.5-1.7 3.3-2.4 3.3-1.4m347 3.1c.6.8.9 2.3.5 3.5-.7 2.3-3.5 2.7-3.5.5q-.1-1.5-1.6-2.2c-1.5-.6-1.5-.8.2-2 2.3-1.7 2.9-1.6 4.4.2m-250.5.5q-.6.9-1.6 1-.8-.1-.9-1 .1-1 1.6-1 1.3 0 .9 1m42.5-.1c0 1.2-2 2.5-2.7 1.8s.6-2.7 1.8-2.7q.8 0 .9.9m116.2 4.3q-1.2 1.1-.1 3 1.8 3.3-1.9 3.3-1.5.1-1.7 1.5c0 1.6 7.6 3.6 10.1 2.6 1.9-.7 1.8-3.5-.2-5.8-1.6-1.6-1.5-1.8 0-2.4 3.6-1.4 10.1 4.5 7.7 6.9-.6.6-1.1 1.9-1.1 2.9q0 1.8-2.4 1.8c-2.4 0-4.4 2.9-3.3 4.8.3.4-.1 1.8-.9 3.2-1.3 2.4-1.3 2.4-1.4.3 0-3.2-1-5.3-2.6-5.3q-2.6-.2 0 9.4c1.3 4.9 3.6 7.2 5.9 6.1q.9-.4-.7.9a9 9 0 0 1-5.2 1.6c-2.7 0-3.1-.3-2.7-2.3.5-2.8-2.2-5.6-3.8-4q-1.2 1.1 0 3.1c1.5 2.8 1.4 3.2-.8 3.2-1.5 0-2.1-.8-2.3-3.2-.4-4.3-3.8-5.3-3.8-1.2v2.8l-2.8-2.7c-1.6-1.5-3.1-2.4-3.5-2.1-.4.4-1.5 0-2.5-.9-3-2.7-4.6-.7-3.2 4.2q1.1 4 .1 5.9c-1.7 3-4.4-5.2-3.7-11 .5-3.8.4-5-.9-5.4-2.6-1-1.8-5.3 1.3-6.6 7.9-3.2 9.8-4.4 13.9-8.6a29 29 0 0 1 8.6-6.3q6.7-2.7 3.9.3m102.7 3.2c-.2.2-1.7.2-3.3-.1l-2.9-.6 2.4-1.8c2.3-1.8 2.4-1.8 3.3.2.5 1 .7 2.1.5 2.3m-13.9 1.7q0 .8-1 .9-.9-.1-1-1.6.1-1.3 1-.9 1 .6 1 1.6m21.8 2.1 13.3-.3-2.6 5c-2.4 4.9-2.7 5.1-6.8 5.1-2.3-.1-5.9-.9-8-1.9-5.4-2.5-10.3-1.5-10 2.1.1 2.1-.5 2.9-2.9 3.7-3.8 1.3-11.8 1.4-11.8.2 0-.5 1.8-2.3 4-4.1s4.9-4.9 6.2-7.1q2.2-4.2 3.8-3.2c.8.4 7.5.7 14.8.5m-22.8.8q-.2.9-1.7 1-2.2.1-.3-1c1.9-1.2 2-1.2 2 0m-178.7 3c1.8 0 2.4 2.5.8 3.4-1.1.7-7.1-2.5-7.1-3.8q.2-.7 2.3-.2c1.2.3 3 .6 4 .6m29.7 4.1c2.7 2.7 5.8 4.9 6.9 4.9q4.2 0 3.8 8.3c-.2 3.8-.5 4.7-2 4.7q-1.8.2-2.3 1.7c-.5 1.7-2.2 1.8-20.1 1.6-10.8-.1-20.2-.4-21-.7-1.3-.6-1.8-7.1-.7-10 1-2.7 2.3-.7 1.7 2.7-.8 5.1 1.4 6.3 8.5 4.7 3.1-.7 6.9-1.9 8.4-2.7 4-1.9 7.4-1.6 12.3 1.3 2.5 1.4 4.9 2.3 5.5 1.9 1.3-.8 1.3-4.5 0-4.5-.5 0-1-1.3-1-2.9q.1-4.6-4.4-5.2c-1-.2-2.3-1.2-2.7-2.2l-1.8-3.5q-.9-1.7-6.2-2.5-12.4-2 1.7-2.4l8.6-.1zm135.4-3.2q.3.9-1.6 1.4c-2 .6-2 .7-.5 3.1q3.8 5.8-1.4.7c-1.8-1.9-2.9-3.8-2.5-4.6.6-1.6 5.1-2.1 6-.6m7.9.5c.3.8-.1 2-.9 2.6-1.2 1-1.4.8-1.4-1.4 0-2.8 1.4-3.5 2.3-1.2m-181.6 3.4c3.7 2.3 1.6 3.3-2.2 1.1-1.9-1.2-3.2-2.5-2.9-3 .5-.9 1-.8 5.1 1.9m14.7 3.6c-1 .8-2.1 1.2-2.3 1-.3-.2.4-1.1 1.5-1.8 1-.8 2.1-1.2 2.3-1 .3.2-.4 1.1-1.5 1.8m11.2 5.3c-.3.3-2.7.7-5.3 1l-4.8.5 4-3.5 4-3.5 1.3 2.5c.8 1.4 1.1 2.7.8 3m-150.6-4c0 1.1-5.1 7.3-6.1 7.3-1.5 0-1-2 1.4-5 2-2.6 4.7-3.9 4.7-2.3m10.4.6c-.2.7-1.4 1.8-2.5 2.5q-3.3 2.2.4-2.6c1.2-1.6 2.8-1.6 2.1.1m277-.4q.4.8-.9 1.5c-.9.3-1.5 1.8-1.5 3.6q0 5-3 1.5c-1.2-1.4-.8-2.7 1.8-5.8q2.5-2.9 3.6-.8m-293.7 2.5c-.3.8-1.6 2-2.8 2.6q-2.4 1.5-1.4-.2c2.4-4.1 5.5-5.9 4.2-2.4m23.4 1.6c-2.7 3.7-1 4 1.8.4q2-2.4 2.1-1.4c0 1.6-6.8 10-8.1 10q-1 0 .1-1.9 2-4.3-.5-2.1c-3 2.5-1.5-1 2.1-5 4.2-4.6 5.9-4.5 2.5 0m-30.3-.5c-1.1 2.5-2.8 3.4-2.8 1.5q-.1-.8-1.5-.4-1.6.8-.9-1 .7-1.6 2.4-1.1t2.5-.5c1.2-2 1.4-1 .3 1.5m17.2-.6c0 2-4.7 6.4-5.9 5.7q-1.4-.7 1.5-3.7 4.3-4.5 4.4-2m177.1 4.3c.4 2.4 1 5.2 1.4 6.4q.9 2-2 3.2c-3.5 1.6-3.5 1.6-2.3-1.8.6-1.7.8-4.4.5-5.9-.6-2.9.2-7.6 1.1-6.6.3.2.9 2.4 1.3 4.7m-140.6-2.3q-.6 1-1.7 1.1-1 0 .2-1.5c1.4-1.7 2.6-1.3 1.5.4M43.8 808c-1.4 2.2-4.4 3.8-3.2 1.7q2.2-3.6 3.5-3.7.8.2-.3 2m23.2-1.1q-.2.9-1.5 2.1-2.3 2.1-.9-1.4c.6-1.7 2.4-2.2 2.4-.7m19.1 1.8c-.5 2.1-1.4 2.9-3.6 3.1l-2.8.4 2.9-3.1c3.6-3.8 4.4-3.9 3.5-.4m145.5.5c0 1.8.3 4.9.7 6.8l.8 3.5-2.1-2.8c-1.2-1.5-2.8-2.7-3.5-2.7q-1.2-.2-1.9-1.5-.8-1.7 1.9-.9c2.3.6 2.5.3 2.5-2.5 0-1.7.4-3.1.8-3.1s.8 1.5.8 3.2m-187.2 4.1c-2.8 2.8-6.7 7.4-8.8 10s-4.1 4.6-4.3 4.3c-.6-.6 7.9-11.2 13.4-16.8 2-2.1 3.9-3.5 4.2-3.2s-1.8 2.8-4.5 5.7m27.7-4.1c-.5 1.3-1.7 2.5-2.7 2.7-1.7.3-1.6 0 .5-2.3 3-3.2 3.3-3.2 2.2-.4m18.6.3q-.7 1.3-1.7 1.5-1 0 0-2.1c1.3-2.3 2.6-1.9 1.7.6m182.3-.9c0 1.7-2.2 1.4-2.8-.4q-.2-1.1 1.2-1.2 1.5.1 1.6 1.6m45 .9c.7.8.9 2.2.6 3.1-.6 1.5-.8 1.5-2.7-.2-2-1.8-2.1-1.8-3.4-.1-.6.9-2 1.7-3 1.7-1.3 0-1.6.5-1.1 2.5 1 3.8-.4 5.1-2 2-3-5.7-.5-11.3 3.8-8.6 1.8 1.1 2.2 1.1 3-.3 1.1-2 3.2-2.1 4.8-.1m-269 3.4q-.1.9-1.6 1.5-2 .9-.4-.9 2-2.6 2-.6m251.3 3.2c-.7.7-2 .8-3 .5-1.7-.7-1.7-.8.1-2.2 2.3-1.7 4.8-.2 2.9 1.7m-49.1 2.4c1 1.3-1.1 3.5-2.7 2.9-.7-.3-1.5-2.1-1.7-3.9-.4-3.4-.3-3.4 1.7-1.7a17 17 0 0 1 2.7 2.7m15.8.9c0 1.1-1.9 1.5-2.5.6q-.4-.9.9-1 1.5 0 1.6.4m-225 1.4c0 1.6-5.1 7.7-7.1 8.4-2.4.9-1.9-.2 2.6-5.5q4.4-5.3 4.5-2.9m-23.4 3a21 21 0 0 1-3.6 4.7l-2.3 2 1.4-2.5c1.4-2.6 5-7 5.6-7 .2 0-.3 1.2-1.1 2.8m12.4-.9c-1.1 2.1-2.9 3.6-3.6 2.9-.4-.5 3.3-4.8 4.2-4.8q.3.2-.6 1.9m13 1.6c-2.6 2.8-4.6 2.4-2.8-.5 1.2-1.8 3.7-3.1 4.7-2.3.3.2-.6 1.4-1.9 2.8m5.8-1c-1.1 2.4-2.8 3.2-4.1 1.9-.6-.7 3.2-4.3 4.5-4.4.4 0 .2 1.1-.4 2.5m-36.5 1.6c-2 3.4-5.3 6.7-5.3 5.3s5-8.4 6.1-8.4c.6 0 .2 1.4-.8 3.1m11.7 5.8c-.6 1.2-1.6 1.9-2.1 1.5q-1-.6.7-2.5c2.1-2.4 2.9-1.8 1.4 1"/><path d="M248.6 19.9c-.3.4.3 1.6 1.3 2.5 1.6 1.5 1.9 1.5 3.4-.2 1-1 1.4-2.2 1-2.5-.9-1-5.1-.9-5.7.2m.4 12.6q-2.1 2.1 3 2.6 5.5.8 2.5-2.1-3.1-3.5-5.5-.5m157 239.1c-1.9.7-4.3 1.3-5.2 1.3q-1.6.2-1.8 1.1c0 1.5 9.3 1.2 11.5-.3q1.6-1.4 1.1-2.5c-.8-1.4-1-1.4-5.6.4m-50.5 298.5q-.6 1-.2 1.5.4.3 1-1.1c.7-1.7.1-2-.8-.4M412 576q-1.9.9.3 1.6 3.3 1.1 1.9-1.3-.8-1.2-2.2-.3m-.5 4q-.5.9.4 1c.5 0 1.3-.5 1.6-1q.5-1-.4-1a2 2 0 0 0-1.6 1m-5.1 3.4c-.3.8-.4 2.3-.1 3.3q.5 2.1.6-.5.2-2 1.1-2.2 1-.1 1-1c0-1.5-2-1.2-2.6.4m4.9 3.3-1 2.8q-.3.7 1-.7 1.4-1.6 2-1.1t.7-1c0-2.2-1.9-2.2-2.7 0M364.5 575q-.4.9.4 1 1-.1 1.1-1 0-1-.4-1t-1.1 1M363 704.5q.2 1.3 2 1.5c1.8.2 2-.7 2-1.5s-.9-1.5-2-1.5-2 .7-2 1.5m-44.2 83.1c-8.6 8.8-10.6 10.4-12.6 9.9q-2.5-.7-2 1.1c.5 2.8-2.1 2.7-3.2-.1-1.3-3.4-3.2-2.2-2.8 1.7.4 4.1-2.3 5.9-5 3.4-2.3-2-3.7-.7-2.7 2.4q.5 1.8-.4 2-1-.2-1.6-2c-.3-1.1-1.3-2-2.1-2-1.9 0-1.8 4.4.1 6.4.8.8 1.2 2.2.9 3-1 2.5.5 1.9 6-2.3 2.8-2.2 7.7-5.5 11-7.5 5.7-3.4 27.6-23.8 27.6-25.7 0-2.7-4 .2-13.2 9.7M14.9 389.5c-.3.2-3.8.5-7.7.6-6.7.1-7.2.3-7.2 2.3 0 2.1.5 2.2 10 2.4 8.1.1 10.2-.1 10.7-1.3 1-2.7-3.8-6-5.8-4M460 573.6q.1 1.3 1 .9 1-.7.5-1.6-1.4-2-1.5.7m21 .2q.1 1.2 1.4 1.8 1.4.6.9 2.2-.7 2 1-.3 3.1-4.1 0-3.1-1.6.5-2.5-.6-.9-1.6-.8 0m-17.7.9c-.7.2-1.3 1.1-1.3 1.8 0 .8-1.2 2.3-2.6 3.4-3.5 2.8-2.2 2.7 2.1-.2s5.7-6.6 1.8-5m5 .3c-1.3.5-2.3 1.6-2.3 2.4q-.1 1.4-.8 1.8c-1 .4-5.2 7.2-5.2 8.4 0 .5 1.3-.6 2.9-2.4 1.7-1.7 3.5-3.2 4.1-3.2q1-.1.5-1.1c-.4-.6.1-1.7 1.1-2.4 2.6-2 3.4-1.8 3.4.5s2.2 2.7 3.8.7c1.2-1.4.5-5.7-.8-5.7q-.9.1-1.4 1.2-.6 1.5-1.2 0c-.7-1.4-1.1-1.4-4.1-.2m-12.3 1.1q.1.8 1 .4t1-1.1q0-.4-1-.4-.9.1-1 1.1m25 4q0 1.8 1 1.4.8-.6.3-2-1.2-3.1-1.3.6M1.9 581.4c-1.7 1.3-2.3 5.6-.8 5.6q.8 0 .3-1.2-.7-1 .7-.6c1.6.6 3.3-1 3.5-3.3.1-1.8-1.7-2.1-3.7-.5m18.4-.4c-1.3.5-2.3 1.6-2.3 2.5q-.1 1.3-1.1 1.5-.9 0-.4.9c.3.6 1.8.3 3.4-.7s2.7-2 2.4-2.5q-.4-.9.8-1.8c1.8-1.1.1-1-2.8.1m436.3 2.9q-.6 1.2-.2 1.8c.9.9 1.9-.4 1.4-1.8q-.4-1.6-1.2 0"/><path d="M468.5 584.1q-.6 1-.2 1.6c.7.7 2.7-.6 2.7-1.8s-1.7-1.2-2.5.2M491 586q.1.9 1.1 1 .8-.1.4-1-.6-1-1.1-1-.4 0-.4 1m-37 3q.1.9 1 1 1-.1 1-1t-1-1a1 1 0 0 0-1 1m38.5 0q.6.9 1.1 1 .4-.1.4-1-.1-1-1.1-1-.8 0-.4 1m-7.3 85.9c-2.2 1.3.7 2.9 6.2 3.3 5.8.4 7.3-1.4 2.5-3.1q-5.9-2-8.7-.2m-1.2 3.9c-.8.2-2.3 1.1-3.2 2s-3.4 1.7-5.5 1.9q-6.4.6-3.3 2.3c2.7 1.7 9.6 1.1 12.4-1.1 3.6-2.9 3.4-6.4-.4-5.1m15.2 1.7q0 2.6.5 1.2c.2-.9.2-2.3 0-3q-.5-.8-.5 1.8m-40 1.2q-1.5.4-.1 1.9c1.4 1.7 5.5 1.9 6.5.3 1.2-2.1-3.1-3.6-6.4-2.2M489 683c-1.9 1.2-.5 2.6 3.8 3.3 2.7.6 3.2.4 3.2-1.3q-.1-1.8-1.4-2-1.4 0-2.8-.5c-.7-.3-2-.1-2.8.5m1.2 7.2c.6 1.7 4.3 2.8 5.9 1.7 1.2-.8 1.2-1-.1-1.9-2.1-1.4-6.3-1.3-5.8.2m7.6 75.6c-.9 1.5-3.5 3.7-5.8 4.7q-3.9 1.8-4 3.6c0 3.1-5.5 4.1-13.9 2.4-8.5-1.8-11.1-1.3-11.1 1.9 0 1.9-.6 2.4-3.8 2.8-6.2.9-11.6-.4-12.7-2.9-1.4-3.3-2.7-3.5-15.1-2.7-12.6.7-14.5 1.4-12.4 3.9 1.2 1.4 2.4 1.6 7 1 14.7-1.8 14.9-1.8 16 1 1.3 3.4 4 4.3 13.8 4.4 7.9.1 8.3 0 11.4-2.9 2.4-2.3 3.8-2.9 5.7-2.5 4.4.9 17.3 2.1 22.1 1.9l4.5-.1.3-5.2c.2-2.8.2-7.2 0-9.7l-.3-4.6zm-4.9 21.2a88 88 0 0 1-40 3.7c-3.8-1.1-5.7-1.3-7.4-.5s-3.7.5-8.4-1.1c-5.1-1.7-6.8-1.9-11.2-1.1l-5.5 1q-.5.2-2 2.5c-1.3 2.1-1.4 2.8-.4 4 1.2 1.4 1.5 1.3 3.4-.4 3-2.8 9.4-3.6 13.1-1.7 1.7.9 3.7 1.6 4.6 1.6 1.8 0 3.9 1.9 3.9 3.7 0 2.2-4.1 3.5-10.4 3.4-16.7-.3-38.6 3.6-38.6 6.8 0 1.8-7.3 9.1-9.1 9.1-.9 0-2.8.9-4.2 2q-2.5 2-2.9.9c-.8-2.5-54.9-1.2-56.5 1.4q-.3 1 1.3 2.4 3.2 2.2 17.7-.5c2.7-.5 13.1-.7 23.3-.5l18.4.4 4.9-2.7c5.1-2.7 11.1-7.9 11.1-9.6 0-2 7.5-3.8 17.7-4.3 24.4-1.2 26.6-1.4 28.9-3 1.4-.9 2.4-2.5 2.4-3.9 0-3.9 1.9-4.5 13.5-4.4 11.2.1 22.9-1.6 33.7-4.9 4.8-1.5 5.8-2.2 5.8-4.1 0-2.6-.9-2.6-7.1-.2m-21.4 17.7c-1.6.2-4.7.8-6.8 1.5-3.7 1.1-3.8 1.3-3.2 4.5.6 3.1.4 3.3-2.4 3.3-1.7 0-4.6.8-6.6 1.7-4.7 2.2-4.5 5.3.4 6.9 3.2 1 3.3 1.1 1 1.7-1.3.3-3.3 1.3-4.4 2.1-1.9 1.4-1.9 1.6-.3 3.2.9 1 4 1.9 7.5 2.3 4.2.4 5.8 1 5.8 2.1 0 .8-1.1 1.6-2.5 1.8-6.8.9-9.8 2.3-11 5.1-2.3 5.7 2 7.2 4.7 1.7 1.7-3.7 5.8-5.5 7.7-3.6.6.6 1.1 3.2 1.2 5.8.3 20 .3 20.2 2.4 20.2 3.3 0 4.2-3.4 3.8-15.3l-.3-11.2 2.5.2 10.4.9c5.6.5 7.7.4 7.2-.4-.6-1-8.2-2.1-16.6-2.5-2.8-.2-3.5-.6-3.5-2.2 0-1.9.7-2 12-2 14.7 0 17.5.6 17.5 4 0 1.4.5 2.5 1 2.5s1-1.5 1-3.4c0-3.2-.2-3.5-4.9-4.6a123 123 0 0 0-15.7-1.8q-10.8-.7-11.2-2c-.3-.9 2.3-1.2 10.7-1.2 6.7 0 11.1-.4 11.1-1s-1.6-1-3.5-1-3.5-.5-3.5-1q.2-1 2-1c1.8 0 2-.5 2-1s-3.1-1-7.2-1.1a49 49 0 0 1-9.8-.9c-2.4-.7-2.3-.7 1-1.3a36 36 0 0 1 6.4-.4c1.6.1 3.1-.3 3.3-.9.5-1.5-2.9-2.4-8.9-2.4-4.4 0-4.8-.2-4.8-2.5q0-2.4 1.5-2.5 1.3.2 1.5 1.5-.1 1.5 3.8 1.6c8.5.3 11.9-.6 12.7-3.2 1.4-4.4-3.1-5.7-15-4.2m9 3.3q.4 1-2.7 1-3.6 0-1.8-1c1.9-1.3 3.7-1.3 4.5 0m-18.7 10.7q.4 1.3-3.7 1.3c-3.9 0-5.5-1.3-2.8-2.4 2.1-.8 6-.2 6.5 1.1m.2 9.3c0 .5-1.8.9-4 .8s-4-.5-4-1 1.8-.8 4-.8 4 .4 4 1"/><path d="M474.4 842.2c-.7 1.2 2.1 3.8 4.2 3.8 1.4 0 2.3-2 1.7-3.8-.6-1.5-4.9-1.6-5.9 0"/></svg>