<svg xmlns="http://www.w3.org/2000/svg" width="666.7" height="1170.7" viewBox="0 0 500 878"><path d="M408.5 3.7c-.3 2.1-3.3 14.8-6.6 28.3-8 32.8-7.6 31.2-9.9 42.5l-4 18a264 264 0 0 0-7.9 38.8 557 557 0 0 1-10 42.2 46 46 0 0 0-4.1 14.2q0 3-1.6 3.7c-2.5 1-15.6.7-19.4-.4-1.9-.6-5.2-.8-7.3-.4-3.2.5-4.1 1.2-5.3 4L331 198l-7.2-3.6a96 96 0 0 0-17.7-6c-20.4-4.7-23.4-5.7-24.8-8.4-3-6.2-5.4-13.3-4.9-14.6q.5-1.4 5.8-1.4c6.8 0 12.8-3 16.3-8 2.4-3.4 2.7-4.7 2.2-8.4-.6-3.9-.4-4.4 1.7-5.4 2.7-1.2 3.6-.7 3.6 2 0 2.6 4.8 6.8 7.7 6.8 2.5 0 10.4-3.6 11.4-5.2.4-.6 1.6-.7 2.8-.3 1.6.5 3.4-.1 6.2-2 2.1-1.5 3.9-3.1 3.9-3.6 0-1.4 9.1-6.9 11.5-6.9 2.8 0 4.2-1.7 2.7-3.2-1.7-1.7-13.9 3.1-16.9 6.6q-2.4 3-6.1 3.2c-4.9.4-6.1-.5-5.5-3.9.5-2.5.9-2.7 3.4-2.2 3 .7 4.2 0 9.3-5.2 13.8-14.3 16.1-17.8 13.5-20.9-1.1-1.4-1-1.9 1.1-3.6 6-4.7 6.2-5 5.1-6.1-.7-.7-2.5 0-6.3 2.5-2.9 1.9-6.8 4.3-8.6 5.2l-3.3 1.7.6-3.4c.9-4.6-1.8-10.3-5.8-12.3-5.4-2.8-15-.2-21.3 5.8a10 10 0 0 1-7.5 3.1q-9.1.4 1.1-5.7c5.4-3.2 7-5.8 4-6.3-2.4-.4-14.2 6-16.3 8.9-1.7 2.3-1.8 3.1-.7 5.7q2.4 6.1 12.9 4.1c2.9-.5 5.7-.7 6.2-.4 1.5.9-3.3 8.4-5.7 9-1.2.3-3.3-.1-4.6-1-2.3-1.5-2.8-1.5-7.2.9a23 23 0 0 1-6 2.5c-.7 0-3.4-2.4-6-5.3a151 151 0 0 0-10.1-10.6c-2.1-2-3.1-2.3-6.7-1.7a10 10 0 0 0-6 2.9c-1.5 1.9-2 2-3.7 1-2.1-1.3-11.9-1.1-24.6.6-8 1-15.6 4-17.7 6.9-.7 1.1-3 3-5 4.1l-3.6 2.2-1.7-2.8c-2-3.4-10.6-9.6-15.6-11.2-6-1.9-19.4-.8-26.1 2.2-7.4 3.4-13.4 11.2-10.4 13.6 1.4 1.1 3.6-.4 3.6-2.4 0-1.4 5.7-6.9 8.9-8.5 3.4-1.7 13.4-1.6 20.9.4a29 29 0 0 1 15.6 9.4c1.8 2.3 1.8 2.6.1 8.3-1.6 5.1-1.6 6.5-.5 10.2l1.9 6.6a6 6 0 0 0 2.4 3.3l3.5 1.7c.9.4 1.9 1.8 2 3.1.2 1.2 1.2 2.5 2.3 2.7s1.9 1.3 1.9 2.2.4 2.1.9 2.6a21 21 0 0 1 2.1 4.8c.6 2.1 2.6 4.8 4.4 6.2s4.6 4.9 6.1 7.7c3.4 6.2 5 7.7 8.7 7.8q2.7 0 4.7 2.9c3.5 4.9 2.4 8.1-2.8 8.1-.9 0-4.4 2-7.7 4.4s-7 4.6-8.1 5c-3.3 1-11.1 10.1-13.4 15.3a31 31 0 0 1-3.3 6.3c-1.5 1.7-2.6 6.4-3.1 13-.7 11.5-2.8 24.7-4.2 26.9a46 46 0 0 1-12.5 11.7c-2.5 1.3-4.6 1.5-10.2.9-8.8-.8-15.6-4.2-18.7-9.1-2.2-3.6-2.2-3.8-.6-6.6 2.2-3.8 2.1-5.1-.3-7.3q-2-2-3.2-.7-1.1 1.3-2.2-.3c-.9-1.2-1.8-1.3-4.6-.5-3.9 1.1-12.3.6-18.1-1.2-4.7-1.4-13.6-9.6-14.1-12.9-.5-3.5-3.2-3-3.6.6-.6 6.3 10.7 15.2 22 17.3 2.6.5 7.9.6 11.8.3 3.9-.4 7.3-.4 7.6 0s0 2.7-.5 5c-1.1 5 0 7.8 5.1 12.5 4.1 3.9 11.2 6.4 20.3 7.1q13.3 1 20.4-7.8c3.9-4.8 5.1-4.9 5.1-.6 0 1.8 1.7 6.9 3.8 11.2l5.8 12.4c1 2.4 3.7 8 5.9 12.4 3.5 7 4.6 8.3 8.9 10.7 4 2.2 5.2 3.5 6.7 7.6 1.1 2.7 1.9 6.9 1.9 9.3s.5 7.2 1.2 10.6c1 5.7.9 6.6-.8 9.6a25 25 0 0 1-7.7 6.7 19 19 0 0 0-8.7 9 550 550 0 0 1-22.1 36.2c-5.2 8-10.5 17.1-11.7 20.3l-2.2 5.8 4.6 3.2c4.5 3.1 4.6 3.3 4 7.5q-.6 4.4.9 7.1c1.3 2.6 1.1 3.6-2.1 12.7-1.9 5.4-4.4 13-5.4 16.9s-4 13.1-6.6 20.5-5.5 17.1-6.6 21.5c-3.7 15-7.3 20-14.6 19.7-5.9-.2-6.9-2.8-4.6-10.9.5-1.7.1-2.5-1.9-3.4-2.1-1-3-.7-7.1 2.5-6.2 4.7-10.8 5.6-14.7 2.7-2.8-2.1-3-2.1-6.1-.5-5.1 2.7-19.5 2.4-27.9-.4-7.4-2.5-10.5-5.3-13.9-12.5-3.2-6.8-3-12.5.4-15.2 3.2-2.6 3.2-3.2.1-6.5-1.8-1.9-2.7-4.3-3.4-9.3-1.2-8.2 0-12.9 4-17 2.4-2.4 3.6-2.8 5.9-2.3 2.9.5 3 .4 3-2.9 0-5.8 9.6-14.7 17.9-16.6 3.7-.8 7.1.3 7.1 2.4 0 .7.6 2.5 1.3 4 1.1 2.6 1.7 2.9 6.2 3.1q1.9.2 2.5 2.6c.9 3.7 3.5 3.7 4.6-.1q2-6.8 11.8-7.7c4.7-.4 6.2 0 10.1 2.2 6.7 4 11 13.7 8.5 19.6-.9 2.3-.9 3.4.4 5.8a17 17 0 0 1 1.6 6.7c0 2.9.3 3.6 1.8 3.3 2.3-.4 2.8-5.8.8-9.7q-2.3-4.8 1.7-3.5c.8.3 1.8.1 2.2-.5.3-.6 2.1-1.1 4-1.1 2.5 0 3.8.7 5.3 2.7 1.6 2.2 2.3 2.5 3.3 1.6 1.7-1.7-.1-5.6-3.7-7.9-2.6-1.8-5.6-1.5-11.8 1.1q-2.2 1.1-1.3-.9c1-2.5-1-9.1-4.1-13.8a26 26 0 0 0-13.2-9c-4.7-1.5-12.9.2-16.5 3.4-3.2 2.8-3.5 2.8-7.5 1.6-3.1-1-4.5-2.1-5.5-4.4-.7-1.7-1.7-3.4-2.3-3.8-1.8-1.1-8.1-1.5-8.7-.6-.4.6-2.8 2-5.6 3.1a28 28 0 0 0-12.4 11.7c-1 1.6-3.2 3.6-4.8 4.3-9.7 4.4-13.8 21-8.1 32.1 1.3 2.5 1.2 3.1-.6 6.5-2.4 4.5-2.4 5.2-.5 12.8l1.6 5.9-3.1 2.4c-2.3 1.8-3 3.1-3 5.8 0 2 .5 4.5 1.1 5.6.9 1.7.7 2.5-1.5 4.7-2.5 2.4-3.1 2.6-13.4 2.6-9.8 0-11.1.2-16.2 2.9-8 4.2-10.7 6.3-15 11.7a51 51 0 0 0-8.5 24.1c-1.1 8.6 2.1 18 8.2 24.8a44 44 0 0 0 7.6 7l2.8 1.8-3.3 1.1c-1.8.6-4.1 2.2-5 3.4-1.4 1.8-2 2-3.5 1a57 57 0 0 0-15.1-7.6c-4.3-.9-8.2.7-8.2 3.3 0 1.7.3 1.9 1.9.8 2.8-1.7 9.4.5 16.1 5.6q10 7.5 12.2.5c1.2-3.5 4-4.4 10.9-3.5l5 .7-.3-2.8c-.2-2.4-1.4-3.3-6.9-6-15.7-7.6-21.5-22.8-15.5-41.1Q31.6 552 55.6 552c5.5 0 6.6.3 8.8 2.6 2.8 3 4.2 2.6 5.1-1.6.8-3.6 6.3-7.1 11.6-7.3 5.7-.2 6.3.8 5.7 8.7-.3 3.5 2.1 4.8 2.9 1.7.3-1.3 2.1-2.8 4-3.6 4.7-2 5-1.9 2.5.8-2.9 3.1-5 8.4-4.4 11.3.7 3.8 3 2.8 4.2-1.8 2.4-8.6 8.9-11.9 24.2-12.2 7.5-.1 8.9.2 11 2 1.2 1.2 3 2.4 3.9 2.7s3 2.5 4.7 5l3 4.5-2.9 6.3a41 41 0 0 0-2.9 7.6c0 .6-1.2 2.6-2.6 4.3a62 62 0 0 0-12 30.8 42 42 0 0 1-4.1 15.2c-3.5 7.8-4.7 9.2-7 8.3-.7-.3-2 0-2.8.7-2 1.7-9.8 1.4-13.4-.4-3.1-1.6-5.1-5.9-5.1-10.9 0-2.3-.3-2.8-1.7-2.4-9.1 3-9.9 3.1-13.9 1.1a12 12 0 0 1-5-4.2c-1.6-3.3-1.7-3.3-6.8-1.6-4.5 1.5-4.6 1.7-3.1 3.4 2.2 2.4 1.1 4-2.5 4-1.5 0-3 .6-3.3 1.4-.8 2.1 2.4 4.5 5.3 4 3.1-.6 12.3 4.6 14.7 8.2 2.4 3.8 2 11.1-1.1 16.6-2.7 4.8-3.1 11.8-.8 12.6.7.2 2.8-.3 4.6-1.2 4.6-2.2 9.2-2 11.6.4 2.6 2.6 2.5 4.2-.1 6.6-1.8 1.6-4 5.5-4.3 7.5-.1.3-2.6 3.7-5.6 7.5-3.1 3.8-6.8 9-8.3 11.7-3.2 5.5-9.9 10.2-14 9.9-1.5-.1-4 .4-5.5 1.1s-3.4 1.2-4.3 1-2.4.5-3.4 1.7c-5.2 5.7-4.8-2.5.4-10.5 3.9-5.8 3.9-6 1.8-6.6l-2.2-.5 2.3-1.5c2.4-1.5 3-3.9.8-3.9s-6.6 4-8.9 8.3l-2.2 4.2-.3-3a26 26 0 0 1 2.9-12.1c.5-.5.6-1.9.3-3q-.5-1.9 3-5.3c3.1-3 3.7-3.3 5.2-2q1.7 1.4 7 1.1c2.8-.2 6.2.2 7.4.8 1.8 1 2.6.8 4.5-1 2-1.8 3-2.1 6.4-1.5 3.3.5 4.1.4 4.1-.8 0-2.3-2.4-3.7-6.3-3.5-4.8.2-5.1-.3-3-4 1-1.7 1.4-3.4 1-3.8s-2.9-.7-5.5-.5c-3.6.1-5.5-.3-7.5-2-2.4-1.8-3.5-2-8.7-1.4-3.3.4-7.8.4-10.1 0l-4.2-.7 6.9-4.4c5-3.2 9.4-4.9 15.9-6.5q9-2 11.3-4.4c3-3.1 1.6-3.8-5.8-2.9q-9.9 1.1-4-4.1 1.7-1.7 1.5-2.6c-.3-.4-4.5-.8-9.3-.7-6.8 0-9.4.4-12.1 2-3.1 1.7-3.5 1.8-4.3.4-1.3-2.3-2.9-2-7.6 1.5-6.4 4.7-7.6 7.8-7.5 18.1.2 8.6.1 8.8-2.2 8.8-3.2 0-8.5 4.6-8.5 7.3 0 1.2 1.2 3.1 2.7 4.1 2.5 1.8 2.6 1.8 3.9.1.7-1 1.5-2.2 1.6-2.7s1.1-.6 1.9-.3q1.7.4 2.4 7.3c.9 7.2.9 20.3 0 23.9-.6 2.6-4.4 4.1-5.6 2.2q-.9-1.4-6.4-1.4H0v10.8c0 11.6-.2 11.3 5.3 7.5 1.5-1.1 2.7-1.7 2.7-1.3s1.8-.4 4-1.6c4.4-2.5 6.5-1.9 3.4.9-1.7 1.6-9 5.1-13.6 6.6-1 .3-1.8 1.4-1.8 2.4 0 1.9.3 1.8 8.8-.5 13-3.6 14.1-3.7 16-1.9 2.6 2.3 8.3.5 11.6-3.8 3.9-5.2 5.5-6.6 7.1-6 .7.3 2.7-.5 4.4-1.7s3.3-2 3.7-1.7c1.3 1.4-2 5-6 6.8-2.4 1-5.4 3.2-6.7 4.8-1.3 1.7-5 5.1-8.1 7.7-5.1 4.2-6.1 4.6-8.5 3.7-1.6-.5-5-.6-7.8-.2C.6 743.1 0 743.3 0 744.9c0 1.5 1.5 1.7 13.7 1.5 7.6-.1 14.7-.5 15.8-1q2.6-1.2.6.9c-2.3 2.8-8 3.7-19.3 3-10.6-.6-10.8-.6-10.8 1.5q0 2.1 2.3 2.6l7.7 1.5c4.6.9 6.4.9 9.9-.4 2.4-.8 5.5-1.5 7-1.5a15 15 0 0 0 10-5.8c.6-1.1 2.7-3 4.8-4.2 3.2-1.9 4.7-2.1 9.6-1.6 4.7.5 6 .3 7.2-1.2A47 47 0 0 1 72 727.7c4.3-2.3 6.6-5.7 3.8-5.7-.8 0-3.8.7-6.8 1.6a22 22 0 0 0-10.6 7c-4.6 4.7-6 5.5-10.1 6.1-2.6.3-6.5 1.4-8.5 2.4-2.1 1.1-4 1.9-4.3 1.9s1.9-2.5 4.9-5.6c4.1-4.3 6.2-5.6 8.6-5.7 2.7-.2 3.6-.9 6-5.2 3.9-7.2 10.8-10.3 16.2-7.4 2.9 1.5 14 3 15.3 1.9.5-.4 3.3-1.5 6-2.3 3.1-.8 5.4-2.2 6.1-3.5a52 52 0 0 1 16.1-11.9c3.6-1.2 10.3-.2 14.1 2.3q2.3 1.5 4 .5c1-.5 4.3-1.3 7.3-1.6s6.3-1 7.4-1.5c2.3-.9 22-5 23.8-4.9q1 0-1 .9c-1.3.5-2.3 1.6-2.3 2.5q-.1 1.3-1.4 1.5c-.7 0-2 .7-2.7 1.6-1.1 1.4-2.6 1.5-8.6 1-5.3-.4-7.9-.2-10 .9-1.5.8-4.7 1.5-7 1.5s-5.3.4-6.8 1a33 33 0 0 1-15.7 1.9c-1.8-.1-6 .9-9.3 2.2-5 2-6 2.8-6 4.8q.2 2.5-2.8 3.2a110 110 0 0 0-26.4 14.7c-6.6 5.7-8.5 8.4-9.2 13.2q-.3.6-2.1 1.8c-1.7 1-2.6.8-6.1-1.8-6.1-4.4-8-4.1-16.9 3.1-6.4 5.1-8.1 5.8-17.2 7.4-4.4.8-8.3 1.7-8.5 1.9-.3.2-2.3-.2-4.5-1-5.8-2-6.8-1.8-6.8 1.4 0 2.5.5 2.8 5.1 3.9a16 16 0 0 0 5.9.8c.4-.3 4-.9 8-1.5 8.8-1.2 14-3.5 21.3-8.9 6.1-4.6 8-5 10.5-2q3.9 4.9 9.8 2.3c5.7-2.4 10.4-6.6 10.4-9.3 0-3.5 11.5-14.2 19.4-18 3.6-1.7 7-3.1 7.7-3.1 1.5 0 10.2-4.2 11.1-5.4q.5-1 .1-2.2c-.3-.8.7-1.9 2.2-2.6 2.5-1.1 2.9-1 4.9 1.5q3.9 4.7 6.8.9c.7-1 2.4-1.8 3.8-1.9l9.4-.7c5-.3 7.6-1 9.8-2.6 1.6-1.2 3.4-1.9 4.1-1.6q1.3.5 0 .5-1.2.3-1.3 1.6 0 1.8 1.3 1.6c.6.1 1.7.2 2.2.4l2.5.3q1.6.2.2 1.4-2.9 2.8 1.6 2.5c2.2-.2 2.7-.7 2.7-3-.1-2.3.2-2.6 2.4-2 2 .5 2.3.3 1.8-1.1-.8-2 .6-2.1 2.2-.2.8 1 3.4 1.3 9.9 1 9.6-.3 19.2.4 19.2 1.6 0 1.6-7.9 4-16.4 4.9-9.5 1.1-12 2.3-11.1 5.2s-2.7 3.7-17.3 3.1c-10.5-.4-13.2-.7-12.8-1.8q.4-1.2-.6-2a48 48 0 0 0-18.3 1 110 110 0 0 0-35.5 19 73 73 0 0 1-21.7 15c-11.8 5.8-13 6.2-15.3 4.1-2.2-2-2.7-1.9-16.2 2.3-7.9 2.5-10.3 2.9-13 2.1a33 33 0 0 0-13.7-.3c-2.7.6-3.1 1.1-3.1 4 0 3.2.1 3.3 5.3 3.9 2.9.4 7 .7 9.2.7 5.3.1 18.4-4.8 21.3-7.9l2.3-2.5 4.4 3.7c4.3 3.5 4.7 3.6 8.3 2.5a125 125 0 0 0 15-6.3c4.6-2.3 22.5-16.6 23.9-19.1a78 78 0 0 1 20.9-13.2c1.8-.3 4-1.5 5-2.5 2-2.3 6.6-2.6 5.8-.5-.9 2.2 1.4 2.9 9 2.7l21.1-.5c15.3-.3 19.9-1.5 22.9-6.1a5 5 0 0 1 4.5-2.5 97 97 0 0 0 13-2.6 61 61 0 0 1 12.9-2.2q2.6.3-4.5 1.7c-4 .7-8.3 2.1-9.7 3.2-1.3 1-3.9 1.9-5.8 1.9q-6.7 0-5.3 3.9.5 2.2 4.6 2.7 7.3 1.2 2.7 3.4-2.3 1.1-11.5.2c-8.2-.8-19-.1-21.5 1.4-1.6 1-.7 3.4 2 4.9 2.6 1.5 2.3 1.5-5.5.9a31 31 0 0 0-13.5 1.1c-8.8 2.8-11.8 4.4-11.8 6.5 0 2.2-.4 2.6-5 3.5l-3.5.6 3.2-2.6c1.8-1.5 3.3-3 3.3-3.4s-1.8-1.6-4.1-2.6c-3.5-1.6-4.8-1.7-9.5-.7a48 48 0 0 0-23.7 14.6c-6.7 6.7-7.8 7.4-15.7 9.8-4.7 1.5-10.3 2.9-12.5 3.3-5.9.9-11.1 2.4-18.8 5.3-5.9 2.2-7.2 2.4-10.1 1.4-4.6-1.7-8.8-1.5-11.6.5-1.9 1.4-4.2 1.8-9.7 1.6l-7.3-.2v6.8l6.8-.5a48 48 0 0 1 17.3 0c6.8.8 14.9-.7 20.9-3.9 4.2-2.3 20.7-8.5 29-10.9 10-2.9 15.9-6.4 20.6-12.2 3.4-4.1 11.5-9.4 14.5-9.4q1 .2-.9 2.3c-2.6 2.8-2.7 4-.7 5.7 1.3 1.1 1 1.5-2.2 3a59 59 0 0 0-9.9 6.4c-4.5 3.3-7.1 4.6-9.5 4.6-3.7 0-12.1 3.6-17.2 7.3a28 28 0 0 1-9.2 3.6 109 109 0 0 0-22.7 6.2A17 17 0 0 1 31 792c-1.2 0-3 .5-4 1q-1.8 1.1-7.5-.5c-5.3-1.3-6.1-1.3-12.6.7L0 795.4v16.3l250 .1 250 .1v-2.4c0-2.5 0-2.5-10.2-2.5-22.2-.1-42.5-1.2-48.3-2.7l-9.5-2.4c-1.9-.4-5.5-1.7-8-2.8s-8.1-2.5-12.5-3.1-8.8-1.6-9.7-2.1c-1-.5-8.3-.9-16.3-.9a125 125 0 0 1-24.7-2c-5.7-1.1-11.2-2-12.4-2-1.1 0-2.9-.6-3.9-1.4-1.8-1.3-1-1.4 7-1.5 4.9 0 9.3.3 9.7.5.5.3 6.3.8 12.9 1a48 48 0 0 0 18.2-1.4 65 65 0 0 1 38.2 3.8c1.8.8 6.2 1.8 14.8 3.5 1.5.3 2.7 1.1 2.6 1.8-.4 2.9.4 3.5 6.2 4.1q6.3.6 7.4 2.3c1.3 1.7 1.4 1.7 3.3 0 1.7-1.5 2.7-1.6 8.8-.7 3.8.5 11.3 1 16.7 1 8.8 0 9.7-.2 9.7-1.9s-1.2-1.9-16.5-2.3c-18.9-.5-20.2-1-18.5-6.8.6-1.9 1.1-5.7 1.1-8.4l.2-4.8 6.1.6c5.7.5 20.2.9 25.4.7 2-.1 2.2-.6 2.2-6.2 0-5.2-.2-6-1.4-5q-1.5 1.4-1.9-.1c-.4-1-.7-1.1-1.8-.1q-3 2.8-2.2-.7c.5-1.8 0-2-3.8-2.1a187 187 0 0 1-22.8-1.5v-.8c.5-.5 15.3-1.6 25.7-1.8 7.7-.1 8.2-.3 8.2-2.3 0-2.1-.2-2.1-7.1-1.3q-9.8 1.2-7.7-.7c.3-.3 3.7-1.3 7.7-2.3 5.4-1.3 7.1-2.1 7.1-3.5 0-2.2-1.1-2.1-8.4.3-5.8 2-18.6 2.8-18.6 1.2 0-.4 1.9-.6 4.3-.4 5.3.5 9.3-2.2 8.3-5.5-.8-2.6-7.5-4.3-16.4-4.3q-10.1 0-10.2 5.6c0 2.4 0 2.4-8.7 2a27 27 0 0 1-12.8-2.5c-5-2.7-5.8-2.6-14.9.4-8.9 3-12.7 3.1-23.2.6-19-4.5-26.3-6-32.6-6.6-6.1-.6-6.9-.9-8.1-3.5-1.4-2.8-1.4-2.8 2.2-3.4 2-.3 6.9-.6 10.9-.6 6.4 0 7.2.2 7.2 1.9s1 1.9 12.8 2c7 .1 14.1.4 15.8.7 1.6.3 6.6.1 11-.5 10.2-1.4 19-2.3 23.4-2.5a19 19 0 0 0 5.8-1.4c4.7-2.6 41.9.6 49.5 4.3 2.4 1.2 2.7 1.2 2.7-.5 0-2.1-4.7-4.2-13-5.9-8.5-1.7-37-3.2-39.1-2-6.9 3.7-49.9 7-49.9 3.9 0-.4 3-.6 6.6-.4q6.6.4 8.1-.8c.8-.6 2.2-1.3 3.1-1.4 6.5-.9 10.6-2.2 17.2-5.6 4.1-2.1 8.1-3.8 8.8-3.8 3.7 0 15.8-4.6 22.8-8.6 9.8-5.7 13.2-6.4 17.2-3.5 5.1 3.6 7.8 4.2 13.2 2.9 4.3-1 5-1.5 5-3.5q.2-2.7-1.7-1.4c-3.8 1.9-8.1 1.6-14.1-1.3-6.8-3.3-10-3.1-17.3.8l-4.4 2.3-5.3-4c-6.2-4.7-9.1-4.6-15.2.5a79 79 0 0 1-11.4 7.2c-7.1 3.7-7.7 3.8-9.4 2.3-1.5-1.4-3.4-1.5-12.2-1-9.5.5-11.2.3-18.2-2.1-9.1-3.1-13.1-3.3-16.6-.7-6.8 4.8-27.6 8.7-40.9 7.7-4.3-.4-10.7-.7-14.3-.9-6.3-.2-6.4-.2-7.4-3.5-.8-2.7-1.6-3.4-5.9-4.7-2.8-.8-6.4-1.5-8-1.5-1.7 0-5.7-1.8-10-4.6l-11.9-7.7c-4.1-2.6-4.6-3.2-3.7-4.9.8-1.5 1.8-1.9 4-1.6 3.8.6 4.3-.4 2.9-4.7-2.5-7.4 2.9-14.1 11-13.6 1.9.1 4.2.9 5.2 1.8 2.2 1.9 5.1 1 4.4-1.4-2.4-7.9-2.6-11.7-1-16.5a50 50 0 0 1 10.1-17.6c6.4-7.2 22.8-11.6 29.9-7.9 3.5 1.8 7.3 5.3 9.5 8.7 1.4 2.1 1.8 2.3 3.3 1.1.9-.7 1.6-1.9 1.6-2.6 0-2 2.7-3.7 5-3 1.1.3 2.7 2 3.5 3.6 1.7 3.2 4.5 3.8 6.6 1.3 1.1-1.4 1.4-1.3 2.9.6 1.2 1.6 2.2 2 4.3 1.5q5-1.3.5-8.5c-4.5-7.1-2.1-18.7 6.1-29.8 3.8-5.2 10.7-8.7 15.1-7.7 2.1.5 3.7.1 5.9-1.6 3.8-2.8 11-2.3 14.6 1.1 2.2 2 2.5 2.1 6.6.7 4.3-1.4 4.4-1.6 4.7-6.1.4-6.1 2.6-7.7 9.6-6.9q5 .5 7.6 2.9c2.4 2.1 2.7 2.2 6.5.8 5.1-1.8 15.3-.2 19.3 3 1.5 1.2 5.3 3.5 8.4 5 6.4 3 8.9 6.3 10.8 14.2 1 3.9 1.1 6.5.2 10.5-.8 4.5-.8 5.7.5 7.1 2.4 2.7.8 13.1-2.8 18.2-3.5 4.7-2.9 5.7 3.5 6.1 2.6.1 5.3.9 6.2 1.6 1.4 1.1 1.5.9 1.2-1.7q-.3-2.9-2.6-3.9c-1.8-.8-2.1-1.5-1.5-3 .4-1.1.8-8.5.8-16.5q.1-24.2-4.8-29.8c-2.5-2.7-10-7.2-12-7.2-.8 0-2.3-1.2-3.2-2.7-1.7-2.5-1.7-2.7.6-4.4 3.7-2.8 8.2-3.4 11.3-1.4 2.6 1.7 2.8 1.7 7.1-.5 4.2-2.1 4.5-2.6 4.5-6.2q0-4.2-1.2-3.1c-.7.4-4.5.9-8.5 1.1-8.1.4-15.3-2-17.2-5.7-1-1.8-1.8-2-5.6-1.6-9.6 1.2-17.4-3.6-14.5-8.9 1.5-3 .9-4.2-2.9-4.9-7.5-1.5-11.9-10.6-8.3-17.6 2.5-4.9 7.2-7.1 14.9-7.1 5.2 0 6.6.4 9.3 2.7l3.2 2.7 1.9-2.5q1.8-2.4 1.2-4.9c-.3-1.4-.6-2.7-.5-3 .1-5 .6-6.6 3.1-9.1 2.4-2.3 3.8-2.9 7.3-2.9 5.2 0 8.8 2.2 8.8 5.4 0 3.7 2.3 5.1 6 3.5l3-1.4V486l-2.5.6c-5.5 1.4-6.9-3.2-3.5-11 2.4-5.2 2.1-13.7-.6-21.3-1.7-4.7-8.4-11.3-11.4-11.3-2.9 0-2.4 1.7.9 3.5q8.2 4.3 8.9 15.2c.3 3.9-.1 8.2-.9 10.7-1.3 4.1-7 12.6-10.6 15.8-5.2 4.7-21.1 6.5-27.6 3.2-5.7-3-11.3-7.4-13.1-10.4-2-3.5-3.6-3.8-6-1.1-4.4 4.8-15.8 2.7-23-4.2-3.5-3.4-4.6-5.1-5.1-8.8-.9-6.2.5-8.6 5.8-9.9 6.3-1.6 12.7-4.8 12.7-6.4q.1-1.3 1.3-1.9 1-.4.4-1.3c-.6-.9-1.1-.4-1.5.1-1.6 2.3-9.3 5.5-14.4 6.1-5.3.6-5.5.6-5.4-1.7q.1-2.5-1.4-2c-5 1.2-10.9 1.2-14.3-.2a39 39 0 0 1-14.9-12.5c-3.9-5.6-4.8-15.6-2.3-25.1 2.2-8.6 3.7-10.6 11.7-15.7 3.7-2.4 6.8-4.8 6.8-5.2s4.7-1.2 10.4-1.5c11.4-.7 15.6-1.8 15.6-4.2 0-1.9-.8-1.9-5.3 0a42 42 0 0 1-18.1.9c-.9-.3-1.6-1.5-1.6-2.5 0-2-.5-2.3-5.1-3.3-3.6-.8-11.6-8-14.2-13-1.9-3.6-2.2-5.6-2.2-17.1 0-7.5.5-14.8 1.3-17.2 2.2-7.4 16.9-21.3 22.5-21.3 1.6 0 3.9-1.3 5.8-3.1 3-2.9 3.6-3.1 8-2.5q8 1 2.7-2.8c-3.6-2.5-8.1-2-12.4 1.5l-3.9 3.1-2.1-2.7c-1.8-2.3-2.5-2.5-4.2-1.6-2.9 1.5-4 1.4-5.1-.7s1.6-11.1 4.2-14c1-1 1.7-2.8 1.7-3.9s.9-2.8 2.1-3.9c1.8-1.6 2-2.6 1.5-6.7-.8-5.5.4-7.7 3.8-7.7 1.2 0 3.1.7 4.2 1.5 2.7 2 3.4 1.9 3.4-.9 0-3.3-3.5-5.6-8.3-5.6-4.4 0-4.3.7-.8-9 2.8-7.6 2.8-13.4-.1-15.4q-2.8-1.8-.5-1.6c2.3 0 4-4.6 3.2-8.8l-.6-3.4 5.3.7c2.9.4 6.3 1.1 7.5 1.6 4.1 1.5 11.3-2.9 11.3-7 0-1.3.5-4 1.2-5.8.9-2.4.9-3.6.1-4.4a67 67 0 0 0-18.2-5.3c-4.4-1-5.5-1.7-6.6-4.2-1-2.3-1-3.4.1-5.4a38 38 0 0 0 2.7-14.9c-.2-.9.5-5 1.6-9.1s2.9-12.7 4-19l3.1-16.5c1.9-8.1 3.8-18.8 8.4-46.5 1.6-9.4 5.6-31.5 8.1-44l2.5-14c.6-4.1 2-12.1 3.1-17.7L432 1c0-.6-4.4-1-11.4-1h-11.4zm11.5-.9c0 .4-1.5 6.8-3.4 14.3-1.9 7.4-4.2 17.5-5.1 22.5-1.7 9.2-4.9 23-11.5 50.9-2.1 8.8-4.8 21.2-6 27.5-4.2 22.6-5 26.6-6.9 35.5-3.9 18.3-4.2 19-7.8 19.3-4.4.4-4.4 1.1-.8-15 1.4-6.2 3.9-18.3 5.5-26.8s3.6-17.8 4.3-20.5c.8-2.8 2-8.4 2.7-12.5a610 610 0 0 1 4.7-23l5.8-26.5c1.3-6.1 2.8-12.1 3.3-13.5s2.6-8.8 4.6-16.5l4.1-15.3c.5-1.3 6.5-1.7 6.5-.4m7 1.1c0 .5-.5 2.2-1.2 3.8s-1 3.4-.9 4.1c.1.8-.3 3.7-.9 6.5-.6 2.9-1.4 7.2-1.6 9.7s-1 6.3-1.6 8.5-1.9 8.9-2.9 15l-4 22.5c-1.2 6.3-2.4 13.2-2.6 15.2-.3 2.1-.9 3.5-1.4 3.2q-.8-.3-.4.8c.9 2.2-1.2 16.6-4.5 31.8-1.8 8-3.6 17.5-4 21.2-.5 3.7-1.5 9.3-2.4 12.5l-2.6 11a24 24 0 0 1-1.6 5.3c-.3 0-1.9-.7-3.6-1.6-2.8-1.5-3-1.8-2.3-5.2l1-5.7q1.3-8.3 3.1-9.2c.8-.3 1.4-1.5 1.4-2.7q.1-2.5-1-.6-.9 1.3-1 .4 0-1.3.8-1.8c.8-.9.9-1.3 1.1-6.6.1-3.8.2-4 2.2-2.9 1.7.8 2.3.8 3-.2 1.1-1.9 0-3.2-2.2-2.6q-2 .7-1.9-1.6-.1-2.6 1.1-.7 1 1.7.4-2.1c-.5-2.7-.2-4 1.1-5.3 1.3-1.4 1.4-2 .4-2.6s-1-1.6-.2-4.1c.6-1.9 1-4.8 1-6.6.1-1.7.8-5.2 1.6-7.7.9-2.6 1.6-5.4 1.6-6.4q-.1-2.2 1-.2 1 1.4 1 .3c0-.6-.5-1.5-1-1.8q-1-.6 0-2.5c1-1.8 5.8-20.9 6.6-26a66 66 0 0 1 4.1-15.8c.3-5.8 1.6-12.9 5.8-29.7l5.1-19.7c.7-1.1 2.4-1 2.4.1m-102.9 97.6q-6.4 2.9-2.7 0a8 8 0 0 1 4-1.5q2.4 0-1.3 1.5M331 113q0 .9-1 1a1 1 0 0 1-1-1q.1-1 1-1t1 1m-33 5.9q0 1-1 1.6-.9.4-1-.9.1-1.5 1-1.6 1 0 1 .9m-7 39.1q-1.4.9-2.5 1-.7-.1.5-1 1.8-1.2 2.5-1 .8.1-.5 1m-21.1 9.3c1.1 1.4.5 2.7-1.2 2.7q-.8-.1-.4-1.4.4-1.4-.6-2-1.2-.5-.1-.5c.6-.1 1.7.5 2.3 1.2m2.7 6.2q.1 1.4-.5 1.9c-.4.3-.8-.7-.9-2.1-.2-2.7 1-2.5 1.4.2m-9.9 1.1c-.7.7-3.7-.7-3.7-1.7q.1-.8 2.1.1 1.9 1.2 1.6 1.6m121.3 2.9 3.5 1.3-3.5.1c-4.3.1-8-.8-8-2 0-1.3 3.9-1 8 .6m-149 .9q0 .6-1 1.1-.9.4-1-.4.1-1 1-1.1 1 0 1 .4m4.8 1.8c-.6 3-5.7 3.8-7.8 1.3-1.1-1.3-.8-1.5 2.4-1.1 2 .3 3.6.1 3.6-.4q.1-1 1-1 1 .2.8 1.2m28.7-.3q.4.9-.5 1.6-.9.4-1-.9 0-2.7 1.5-.7m-3.1 1.6q-.6 1.4-1 1.5-.4-.1-.4-1.5c0-1.4.4-1.5 1-1.5q.8.1.4 1.5m116.5 1.1c3.9 1.5 5.9 4.3 4.6 6.4-.4.6-.1 1.8.6 2.6 1.8 2.1-.6 3.5-3.9 2.3-1.3-.5-2.7-.7-3.2-.4s-2.2 0-4-.7c-2.6-.9-2.9-1.3-1.7-2 .9-.4 1.9-2.9 2.3-5.3.3-2.5.8-4.5 1-4.5s2.2.7 4.3 1.6M257 184q0 .9-.4 1-.5-.1-1.1-1-.4-1 .4-1 1 0 1.1 1m6 1.4c.9 2.6.3 6.6-1.1 6.6q-.8 0-.8.7.5 3-1.9.5c-1.1-.9-1.7-2.1-1.4-2.6q.3-.8-1.3-.2-2.2.9-.5-.9 1.2-1.3 2.1-.9.8.4.9-.6-.1-1-1.9-.5t-2.6-.5q-.8-1.4 4.2-1.3 1-.1.6-1.3-.4-1.3 1.1-1.4c.9 0 2.1 1.1 2.6 2.4m-12.1 3.7q-1.3.7-1.8-.2-.2-1 1-2 1.3-.7 1.8.2.2 1-1 2m28.3 2.6q1 1.3 0 1.3c-1.2 0-2.2-2.5-2.1-4.8q.2-2 .6.3c.3 1.1 1 2.6 1.5 3.2m-7.9-.7c2.1 2.5 2.2 3.7.1 1.9-1.4-1.1-1.9-.9-3.6 1.1l-2 2.5.6-2.5c.3-1.4.6-3.1.6-3.8 0-1.9 2.3-1.4 4.3.8m-20.3 2q-.1.9-1.1 1-.8-.1-.4-1 .6-1 1.1-1 .3 0 .4 1m14 1.2q0 2.4-1.1 1.1c-.6-.6-.8-1.6-.5-2.2q1.6-2.5 1.6 1.1m19.6.4q-.3 1.4 2.1 3.1c2.4 1.6 2.6 1.6 4-.3s1.4-1.9 2.9.1c1.4 1.8 1.3 2.2-.8 3.8-1.8 1.5-1.9 2-.7 2.8q1.8 1-1.1 1.1c-1.1 0-5 5.7-4.2 6.2.4.2 3.1-.9 6-2.6 5.9-3.4 8.5-7.3 8.4-13-.1-3.6.1-3.8 2.6-3.2 4.7 1 5.2 1.3 5.2 3.3 0 4.2-4 14.3-7 17.7-3.5 4.1-3.6 5.1-.6 16.3 1.6 5.8 1.6 11.7-.1 14.5-.3.5-1.5-2.9-2.7-7.5a40 40 0 0 0-4.4-11.4l-2.4-3-15.3.4c-10.6.2-15.9-.1-17.5-.9-3-1.6-10.7-7.4-15.1-11.5a33 33 0 0 0-5.7-4.4c-2.4-1.3-2.9-3.6-1-4.8.7-.4 3.4-1 6-1.3 3.7-.5 4.5-.4 3.7.6s-.1 2.3 2.5 5.1c5.1 5.7 15 8.8 25.3 8 8.3-.6 11.2-2 7.2-3.6-2.3-.9-2.2-.9.8-.9 1.7.1 3.9-.7 4.8-1.6 1.6-1.6 1.5-1.6-1.1-1l-5.1.8q-2.1.2-2.3 1.6 0 1.8-.9.1c-.7-1-1.3-1.1-3-.2-2 1.1-2.1 1-1.5-1.6 1-4.1 1.3-4.4 3.5-3.2 1.1.6 2.7.8 3.4.5q1.4-.5.8 1-.4 1.2.5 1.4c1 0 2.6-4.9 1.8-5.7-.2-.2-1.3.1-2.4.8-1.6 1-2.3 1-3.6-.4-1.6-1.5-2.2-3.7-1-3.7.3 0 1.5 1 2.6 2.2l2 2.3-.5-2.2q-.6-2.3 1-1.6 1.8.8.8-1.5-.6-2.1.6-2.2c1.2-.1.8-.4-.1-1.5q-1.7-1.8.4-.9 1.6.8 1.2 2m-27.1-.6c-.3.5-1.2 1-1.8 1q-1 0 .3-1 2.8-1.8 1.5 0m19.8 2.3c-.2.4-1.1.3-1.9-.4q-1.7-1.3-.2-2c1.3-.9 3 1 2.1 2.4m105.5.4c7.6 1.7 8.8 2.4 7.8 4.9-.5 1.3-1.1 1.2-3.7-.7a17 17 0 0 0-8.2-2.5c-5-.2-9.7-2-9.7-3.5 0-.9 3.1-.5 13.8 1.8m-128.2.8c.2 1-.2 2.5-.7 3.1q-1 1.2.1 1.7.9.4-.2.3-1.2-.4-1.3-1.9a4 4 0 0 0-.8-2.3c-.4-.4-.7-1.4-.7-2.1 0-2.2 3.3-1.1 3.6 1.2m63.5-1.4c1.9 1 1.9 1-.1 3.9-1.1 1.5-2 3.3-2 3.8s-.7 1.2-1.5 1.6c-.8.3-2 1.7-2.5 3.1s-1.4 2.5-2 2.5q-1 0 .3-2.8c.8-1.5 2-5.1 2.7-8 1.3-5.4 1.8-5.9 5.1-4.1m28.4.5 13.9 2.9q11.7 2.5 4.7 2.5c-2.6 0-3.6.7-5.3 3.6-2 3.4-2.4 3.6-6.1 3.1a98 98 0 0 1-10.9-2.8l-6.9-2.3.6-3.5c1.1-5.9.4-5.7 10-3.5m-88.3 2.1c-.5 2.5-.6 2.5-1.9.7-1.2-1.6-1.1-1.9.4-2.6l1.9-.7zm14.3-1.7q.4.9-.4 1-1-.1-1.1-1 0-1 .4-1t1.1 1m24.2 3.2q-.5 1-.5-1.2c0-2.2.2-1.9.5-1.3.2.7.2 1.9 0 2.5m-25.3.4c.5 1.2-.1 1.5-2.7 1.2-1.7-.2-3-.8-2.7-1.3q.5-1 1.3-.8.6.3.7-.7c0-1.4 2.7-.1 3.4 1.6m-10.4 0q0 1.3-1 .9-.9-.6-1-1.6.1-.8 1-.9 1 .1 1 1.6m5 1.8q0 .6-1 1.1-.9.4-1-.4.1-1 1-1.1 1 0 1 .4m2.2 1.8c-.7.7-1.2 1.9-1.1 2.7q0 1.5.5.4.6-1 2.1-.6 1.4.4 2.5-.8 1-1.5.2 1.1c-.9 3.3-.5 3.2-6.3 2.4-5.7-.7-6.1-1.9-1.5-4.5 3.4-2.1 5.3-2.4 3.6-.7m53.7-.5q-.2.8.1 1.3l.6 4.1c.3 2.7 0 3.8-1.1 4.3q-1.5.6-1.5-1.5c0-1.1-.5-2.9-1-4q-1.1-2 .1-1.9 1-.1.5-1.5t.9-1.5 1.4.7M259 206q0 .9-.4 1-.5-.1-1.1-1-.4-1 .4-1 1 0 1.1 1m127 1.1q0 .8-.4.9l-2.3.7q-2.2 1-.6-.9c.7-.8 1-1.8.6-2.2q-.5-.6 1 0t1.7 1.5m28.5 5q.8.9-.3 2.1c-.7.7-1.2 2.4-1.2 3.9s-.3 3-.8 3.3c-.8.5-9.9-1.5-14.8-3.4-2.5-.9-3.3-1.9-3.7-4.3-.3-1.8-.8-4.2-1.2-5.3l-.7-2.1 10.9 2.5a68 68 0 0 1 11.8 3.3m-178.4-3.3c5.8 3.8 14.8 10.2 16 11.4 5.3 5.2 7.9 6.1 17.5 6 9.1 0 10.4.4 8.5 2.3q-.9 1 1.5 1 2.6.1 2.1-1.7c-.4-1.3.3-1.6 4-1.5 4.3 0 4.4.1 7.1 5.6 3.1 6.5 3.4 8.7 1.6 10.2s-1.8 4.3 0 3.6c1.6-.6 5 3 3.6 3.8q-1 .5-1-.4-.1-1-1-1.1-.9 0-.9.7.5 2.9-2.1 1.3c-1.7-.9-2-.8-2 .7 0 1.6.7 1.8 4 1.5 2.2-.2 4-.9 4-1.4q.2-1 2.2-.5c1.2.4 2.7.2 3.4-.4q1.2-1 1.9.1.4.9-.9 1-1.8.2-2.2 1.2-.6 1 .4.4 1.3-.8 1.2 4.3 0 5-1.2 5.2-1.5 0 0 .6c1 .4 1 .8 0 2.1q-1 1.4-.2.9 1.2-.5 1.7 1.5c.7 2.7-.1 3.8-1.3 1.8-.7-1.1-1.1-1.1-2.4-.1q-1.8 1.7-1.6-.3.1-1.5 1.3-1.6 1-.2-.6-1.4c-1.6-1.2-1.6-1.5-.2-2.9 2-2 1.9-4.3-.1-5.1-2.1-.8-3.3.2-1.5 1.3 1 .7 1 1.2 0 2.9-.7 1.1-1.8 1.8-2.4 1.5-1.5-.5-1.2 4.2.4 6.1.6.7.8 1.6.4 1.9q-.3.6 2.1.7 6.8-.1 6.6 5.5c0 1.9-.4 3.5-1 3.5q-.8 0-.9-.8.6-3.6-2.1-2.9-1.8.4-2-.4c-.2-.8-.9-.4-1.9.3-2.4 1.5-1 3.7 2.3 3.8 7.4.2 9.5.5 8.8 1.2-1.7 1.7-8.9 1.8-10.2.3a5 5 0 0 0-3.2-1.5q-1.9 0-1.2-1.3 1-1.5-.7 0c-.7.7-2.8 1.3-4.6 1.3-2.5 0-3.8-.8-6-3.5-1.5-1.9-3.4-3.5-4-3.5q-1.2 0-1.3-.9-.3-1.1-3-1.4a7 7 0 0 1-4.5-3.7c-.8-1.6-2-3-2.5-3s-2.2-1.9-3.6-4.3c-5.9-9.3-14.8-18-18.1-17.7-.5.1-1.1-.9-1.5-2.2q-.6-2.4-.7-.6-.2 1.7-.7 1.8c-.9 0-5-3.4-5.2-4.3l-.2-2.4c0-1.4-.2-1.4-2.1.2-2 1.9-2 1.9-1.2-.5 1-3.1 1.1-6.6 0-6.3q-.8.3-2.3.3t-.9.9c.7 1.2-2.2 4.1-4.1 4.1q-1.3.1-1.4 1.1 0 1.2-1.5-.1-1.8-1.6-1 .2.7 1.6-2.6 2.7-2.9 1-2.6 1.7c.3.4 0 1.9-.8 3.5-1.7 3.2-1.9 7.7-.5 9.9q1 1.3-2 7l-3.4 7.2c-.8 2.7-5.2 2.3-7.2-.7-1.8-2.8-1.4-10.3 1.2-21.2.9-3.4 1.5-7 1.4-8q-.7-6.2 1.5-6.3 1.3-.1.9-1.3a40 40 0 0 1 6.3-14.9q1.5-1.6 2.6-1.1.8.4.4-.4c-.8-1.2 1.9-3.8 5.3-5.2 3.9-1.5 9.3-1.3 12.1.7m77.8 5c.5 1 .9 3.2.9 4.9-.1 1.6.2 3.5.6 4.2 1.1 1.7-.3 1.3-3.1-.9q-4.2-3.2-4.3.6c0 2-2.6 1.8-3.5-.4-2.7-6.1 6.3-14.1 9.4-8.4m12.9.7c1.6 3.5 1.5 4-.5 2.4q-2.5-2.1 0 .7c.9 1.1 1.4 2.4 1 2.8-.5.4.5.4 2.1 0 2.6-.6 2.7-.5 1.7 1.5-.7 1.1-2.1 2.1-3.1 2.1l-2.7.1q-.7 0-1.1-1-.2-1 1.2-.5 1.8.8 1-1-.6-1.5-1.5-1.6c-.9-.1-.9-.6-.9-1.4q0-1.4-.9-1.8c-1.1-.4.5-4.8 1.7-4.8q1 .2 2 2.5m11-.3c-.9.7-1.7 1.8-1.9 2.4q-.5 1-2.4-.9-1.7-1.8-.8-1.3 1 .5 1.8-.4c.3-.5 1.6-1 2.8-1 1.8 0 1.9.1.5 1.2m16.1.9c3.8 1.1 4.9 2.6 4 5.4l-.6 6c-.3 6.9-1.6 12.8-2.8 13.2-2.3.7-8.4-20-7.6-26.1q.2-.7 1.5-.3zm-23.4 2.9q.4.9-.4 1-1-.1-1.1-1 0-1 .4-1t1.1 1m11.5 4.9q-.1.8-1.5 1.5c-1.5.5-2-.5-.8-1.7.9-1 2.3-.9 2.3.2m-34.5 5c-.6.5-2.5-1-2.5-2q.1-.7 1.4.3 1.2 1.2 1.1 1.7m25.2 1.3q-.5 1.1-.6-.6t.5-1.3q.5.7.1 1.9m11 5.4q-.7.5-1.9.1t.6-.6q1.8 0 1.3.5m22.7 2.6c-.9 1.4-5.4.9-5.4-.5q0-1.3.5-1.9c.8-.8 5.4 1.5 4.9 2.4M231 236q0 .9-.9 1-1-.1-1.6-1-.4-1 .9-1 1.5 0 1.6 1m147.6 3.2c-.3 1.3-.6 3-.6 3.8q-.3 1.1-1.1-.9c-1.1-2.8-.5-5.1 1.2-5.1q1 .1.5 2.2m-28.1.9c1.1 1.7-.5 2.4-2.6 1.1-1.7-1.1-2.4-1.1-3.7 0q-2.3 1.8-.3-.5c1.5-1.9 5.6-2.3 6.6-.6m-114 3.9c1 1.1 4.3 2.9 7.4 4 8.8 3.3 16.5 12.1 16.7 19 0 2.7 1.1 5.2 3.8 8.9 2.1 2.8 4.3 5.1 4.9 5.1s2-.9 3.2-2l2.2-2 2.6 2c2.6 2 2.6 2.3 1.2 5-1.9 3.7-2 14.9-.1 17.5 1.6 2.2 4.6 1.4 4.6-1.4 0-3 1.1-5.1 2.6-5.1.8 0 2-1.1 2.6-2.5 1.6-3.5 0-5-3.6-3.4-3.2 1.5-3.9.9-3.1-2.3.6-2.3 1-2.4 7.2-2.2 8.5.3 9.5 1.3 5.5 5.8-3.4 3.9-3.4 5.8.4 7.4q2.3 1.2 2.4 3.5c0 2.4 3.2 6.2 4.3 5.1.3-.3.3-2.7 0-5.3-.5-4.6-.3-5 4.3-10.2 3.3-3.8 6.4-6.1 10.3-7.7 3-1.2 6.3-3 7.4-4 2-1.6 2-1.6 1.2.3-1.4 3-1 8.6.8 12.7 1.2 2.8 2.8 4.3 6.1 5.9q4.4 2.1 4.6 3.8c-.1 1.4-.2 1.4-1.1-.2-1.3-2.3-5-2.2-5.6.1q-.3 2-2.9 1.4-2.4-.4-3 1.2c-.3.9-1.7 1.6-3 1.6-1.2 0-3 1-3.9 2.2-1.5 2.2-1.4 2.4.6 4q2.3 2 .6 1.8c-.8 0-2.2.3-3 .6q-1.6.7-1.9-2.3c-.2-2.3-.7-2.8-2.8-2.5-3.1.3-5.2 3-4.4 5.5q.6 1.9-1.3 3.2c-2.7 2.1-4.6 1.9-3.8-.5.8-2.5-2-3.8-4.5-2.2q-2 1.4-2.4-.5c-.4-.9-.4-2.4-.1-3.4q1.2-3.7-3.2.3t.2 9.6c3 3.6 3.1 4.2.5 4.2-1.1 0-3.5.9-5.5 2-3.2 1.8-9.5 2.8-9.5 1.5 0-.3.7-1.7 1.6-3 2-3.1 1.3-5-2.5-7-3-1.5-3.3-1.4-7.2 1.2-3.5 2.3-4.4 2.5-6.1 1.4q-3.5-2.2-2.2 1.3c1.1 2.7 5.2 3.1 8.4.7q4.4-3.2 6.3-1.5c.3.3-1.2 2.5-3.4 4.7a25 25 0 0 0-3.9 4.9c0 .4-2.5.8-5.7.8-4.5 0-6.5-.6-10.3-3a51 51 0 0 1-6.9-5.4q-2.2-2.3-3.9-1.9-1.6.8-1-.9c.4-.8-.7-4.4-2.3-7.9-5.7-12.4-6.3-13.4-8.7-13.2s-2.7-.8-2.2-8c.3-5.9-1.9-13.9-4.1-14.4-2.3-.6-2.4-1.1-.2-3.5 2.2-2.5.3-4.8-2.3-2.7-4.7 3.9-6.1 18.8-2.3 24.4 1.1 1.6 2.4 4 2.9 5.2q1 2.1 2.5 2.3 1.3 0 1.3.7c-.1.5.4 2.6 1 4.9 1.4 4.7 4.2 7.7 6.5 6.8q1.7-.7 2.3 2.1c.3 1.4.4 2.8.1 3.1s-2.7-.7-5.2-2.2a14 14 0 0 1-6.2-6.3 88 88 0 0 1-10.8-23.9c-2-6.8-.9-13.6 2.5-16.7 1.1-1 2-2.6 2-3.5 0-1 .9-2.9 2-4.3s2-3.3 2-4.3a7 7 0 0 1 1.7-3.6c1.4-1.6 1.5-2.5.6-6.1-1.3-4.7-.3-6.8 2.1-4.8 1.3 1.1 2.1.9 4.7-1.3 3.7-3.1 5-3.2 7.4-.6m152.5.2q-.1.7-1.5.8c-1.4.1-1.5-.4-1.5-.8q.1-.8 1.5-.9c1.4-.1 1.5.4 1.5.9m-79 6.4q-.1 1.3-1 .9-1-.7-.5-1.6 1.4-2 1.5.7m.8 7.8c0 2.4-.1 2.4-2.1.6q-1.8-1.9-1.3-3.6c.9-2.3 3.4-.1 3.4 3m28.1.6c-.6 1.6-1.2 3-1.4 3s-.3-1.4-.3-3c.1-1.7.6-3 1.4-3 1 0 1.1.7.3 3m-2.5 6.5q-.6 1.4-1 1.5-.3-.1-.4-1.5c-.1-1.4.4-1.5 1-1.5q.8.1.4 1.5m45.6 1.6q0 1.8-1 1.4-.8-.6-.3-2 1.2-3.1 1.3.6m-53.3 3.6q-.5 1.3-.5-1.2 0-2.6.5-1.8c.2.7.2 2.1 0 3m-61.4 1.3q.8 2.5-.9.9a4 4 0 0 1-1.4-2.6c0-2 1.6-.8 2.3 1.7m102.2-1.3-1.8 6c-.9 3.5-1.6 4.3-3.4 4.3-1.9 0-2.3.5-2.3 3q0 2.9 1.9 4c1.8.9 1.8 1.2.5 4-2 3.8-2.9 4.3-5.3 2.8-2.8-1.7-5.1.3-3.1 2.7q1 1.4.4 1.5c-2.1 0-3.4-4-2.7-8.5a10 10 0 0 1 3.4-7c1.6-1.3 2.9-2.8 2.9-3.3 0-1.5 7.9-11.2 9.1-11.2q1 .1.4 1.7m-14.2 8.6c-3 4.4-11.3 10.7-14.2 10.7q-1.2-.1 1.5-1.6a8 8 0 0 0 4-3.9c.5-1.3 2.9-4.6 5.4-7.3 3.4-3.7 4.7-4.6 5.3-3.5q.7 1.4-2 5.6m31.3-1.7q-.6 1.3-1.6.9-1-.6.2-2.8c1.2-2.4 2.4-.8 1.4 1.9M315 277q-.2.9-1.7 1-2.2.1-.3-1c1.9-1.2 2-1.2 2 0m64.5 2.6q6.5 4.8 2.2 6.5c-2.5 1.1-4.7 5.2-4.7 8.5a16 16 0 0 1-3 6.7c-1.8 2.7-3 5.8-3 7.7 0 3.4-7.3 19.7-10.9 24.1a10 10 0 0 1-5.6 3.3c-2.6.5-3.5 1.2-3.5 2.6 0 2.6-.9 2.5-4.5-.6q-2.5-2.3-1.3-2c3.4 1 2.9-1.6-.8-5.1q-3.9-3.6-2.6-4c.7-.3 2.2.3 3.2 1.2 1.9 1.7 4 1.3 4-.8 0-.7-1.4-2.5-3-4.1-3.5-3.4-4.1-6-.7-2.8 2.6 2.5 9.2 5.4 10.1 4.5q2.1-2.4-2.8-4.3c-1.9-.6-4.6-2.6-6-4.5-3.4-4.4-3.3-5.5.2-2.3a15 15 0 0 0 10.2 4.9c4.4.5 4.9-2.1.6-3.2-3.6-1-8.6-4.4-10.9-7.6-2.8-3.7-1.1-4.1 2.6-.6 3.9 3.9 7.8 5 9.6 2.9 1.1-1.3.8-1.6-1.6-2.2-1.5-.4-3.6-1.4-4.6-2.3-3-2.6-7.8-10.2-7.5-11.9.5-2.8 2.6-2.4 3.3.7.9 4.1 6.6 9.7 10.6 10.3s8.6-1.2 11.6-4.4c2.8-3 4.5-9.3 3.3-12.4-1.1-2.9 0-11.4 1.5-11.4.4 0 2.1 1.1 4 2.6M220.9 290q0 3.8-.9 2a16 16 0 0 1-.9-6q0-5.4.9-2c.4 1.4.8 4.1.9 6m160.5 18.4 3.4 2.3-6.4 6.4c-6.6 6.5-7.8 6.6-4.5.1 1.1-2.1 2.2-5.5 2.6-7.5s.9-3.7 1.1-3.7 1.9 1.1 3.8 2.4m-54.4 1.5c0 .5-1.5 1.4-3.2 2l-3.3 1.1 2.5-2q4-3.2 4-1.1m1 8.4q-.2.8-1.9.4c-2.6-.6-4.5.8-3.7 2.8q.5 1.8 3.5 1.3c2.3-.3 2.7-.1 2.3 1.4-.5 1.9-2.2 2.5-2.2.8q-.2-.9-2.2 1c-2.7 2.5-3.8 2.5-4.5 0-.3-1.1-2-2.5-3.7-3.1s-3.3-1.8-3.3-2.5q0-2.6 2.4-.3c1.4 1.4 5.3.2 5.3-1.6 0-2.2 3.1-3.4 5.7-2.2 1.3.5 2.3 1.5 2.3 2m-19.7 2.9c-2.5 1.2-3.3 3.5-3.3 10.5 0 2.8-.4 5.4-.9 5.7q-.8.4-.4-1.4c.3-1.1 0-2.7-.7-3.5q-1.5-1.7 0-1.5 1.4.1.1-1.3-1-1.4-.4-2 .4-.6-.8-.7-1.5 0 .5-1.5 1.8-1.4 1-1.5-.6-.2 1.6-2a9 9 0 0 1 4-1.9q1.4 0-.7 1.1m-69.5 9.3q0 2.3-.8 2.5-1-.2-1-2.5c0-2.3.4-2.5.8-2.5s.9 1.1 1 2.5m72.4-.3q-1.1 1-1.2.2c0-1.4 1.2-2.6 1.9-1.9q.3.6-.7 1.7m5.1-1.5c-.7.2-1.9.2-2.5 0q-1-.5 1.2-.5c2.2 0 1.9.2 1.3.5m-19.1 1.5c-2 2-1.3 3.2.8 1.3 1.1-1 2.3-1.5 2.7-1.2q.4.6-.5.7-1.1 0-1 .7 0 1-.5 2.3a47 47 0 0 0-2.8 18.7c0 11.6-.7 17.5-2 16.7-1.2-.7-1.1-6.1.1-6.9 1.6-1 0-2.7-2-2.2q-2 .5-1.3-.9.5-1.4-.9-.9c-.7.3-1.5 1.5-1.5 2.8a5 5 0 0 1-1.6 3.2c-.8.5-1.3 1.9-1.1 3s-.2 2.3-.9 2.7q-1.4.9.3.8c1.5 0 .9.5-5.8 4.1-2.7 1.5-3 1.5-2.5.1.5-1.2 0-1.4-2.8-.8-3 .5-4.3.1-9-3.3l-7.8-5.7q-2.2-1.7-1.2-2.3c1.9-1.2-2.4-4.4-4.8-3.6-1.7.5-2.3.1-3.1-2.1-.6-1.5-.7-3-.2-3.3 1.2-.9 2.4-4.3 1.2-3.6-1.4.9-1.2-.9.2-2.3q1.3-1.2 0-2.4c-1.6-1.6-1.5-2.8.3-2.8 1.6 0 3.6-3.9 2.8-5.3q-.3-.8 1.3-.5 1.8.4 1.7 1.4c-.1.9 1.4 1.1 11.1 1.4 6.2.1 8-1 7-4.3-.7-2.1.2-2.1 5.5-.2 2.2.8 4.1 1 4.1.5q.2-1 1.8-1 2.3-.1 4-1.6c5.1-3.6 11-5.8 8.4-3.2m28.8 2.3q0 1.3-.9 1.5l-2.3.5q-1.3.5-1.5-1.5c-.1-1.5.4-2 2.3-2q2.3 0 2.4 1.5m-10 2.6c0 .5-1.3.9-3 .9q-4.3-.1-2.5-2.2c.8-.8 5.5.3 5.5 1.3m48.8 6.6a50 50 0 0 0 2.6 25.4 70 70 0 0 0 16.7 20.3c2.9 1.4 2.4 2.2-3.4 5.9-10.6 6.8-14.7 14.9-14.7 29.4 0 10.1 2.4 15.7 9.7 22.8a31 31 0 0 0 19 9.3c2.9.3 5.6.9 6 1.5.3.6.5 3.4.4 6.2-.2 6.2 1 9.7 5.3 15 6.4 7.7 20.8 12 27 8 2.6-1.7 2.6-1.7 7.2 2.5 6.7 6.2 13.8 9 22.8 9 9.7 0 16-2 20.8-6.7l3.9-3.8 2.5 2.8c1.3 1.5 2.4 3.4 2.4 4.2q.2 1.2 2.3 1.7c2 .3 2.2.9 2.5 7.9.2 5.8-.1 7.9-1.2 8.8-1.3 1.1-1.9.8-3.9-1.3-4.5-4.8-10.4-5.8-16.5-2.7-5.6 2.9-8.4 6.4-8.9 11.4l-.5 4.4-8.2-.1c-6.8-.1-8.9.3-13.1 2.5-5.9 3-8.2 6.5-9.1 14.1l-.7 5.7 5.5 5.5c3.1 3 5.8 6.6 6.2 8 1.8 7.1 11.7 13.1 17.8 10.8 2.2-.8 3-.6 4.5 1 1 1.1 3.3 2.8 5.2 3.8l3.5 1.7-3.7 1.8c-2 .9-4.1 2.2-4.6 2.9q-1 1.4-5.8.5c-2.7-.4-6.8-.3-9.2.2-3.8.9-4.7.7-6.6-1.1a9 9 0 0 0-5.3-2q-3.2 0-3.2-1.4c0-.8-1.4-2.9-3.2-4.6-2.8-2.9-3.7-3.2-7.8-2.8l-4.6.5 2.3-4.5q4.4-8.6.1-19.9a32 32 0 0 0-22.8-21.8c-12.5-3.4-29.3 0-36.8 7.5a13 13 0 0 1-7.9 4.3c-3.6.4-4.3.2-4.3-1.2 0-1-.9-2.6-2.1-3.7-4.5-4.1-20.2-.5-24.7 5.6-1.8 2.4-3.1 3-7.9 3.5-11.3 1.4-17.1 5.6-21.9 16-3 6.4-3.2 13.7-.4 18.3q3.3 5.3-.9 5.2c-3.3 0-13.5 5.1-15.9 7.8-4 4.8-6.4 10.1-5.7 13.2q.6 2.8-1.3 6c-1.8 2.9-2.1 3-2.6 1.2a7 7 0 0 1-.5-2.8 48 48 0 0 1 .4-19.3 41 41 0 0 1 5-16.3 40 40 0 0 0 4.1-9.3c.3-2 2-7.1 3.6-11.3a206 206 0 0 0 5.2-15.7c2.1-7.2 4.9-16.3 13.3-43.2l2.5-8.2h5.4c9.4 0 11.4-1.2 11.4-7.3q0-6.8 7.2-3.4c6 3 14.9 1.3 17.3-3.4a15 15 0 0 0 1.5-4.1c0-.7 1.2-2.5 2.6-4l2.6-2.7-1.7-5.8c-.9-3.2-2.9-8.3-4.4-11.3a50 50 0 0 1-3.9-12.7 62 62 0 0 0-7.5-23.1 39 39 0 0 1-6.2-12.1c-.4-1.3 0-3.5.9-5.4.9-1.7 1.6-3.7 1.6-4.5s.8-2.8 1.7-4.6c1-1.8 2-6.1 2.4-9.7.6-6.1 3.7-23.1 4.4-23.8.1-.2 1.8.7 3.8 1.8 3.3 2 3.8 2 7.1.6q3.6-1.5 3.6-3.4.1-1.9 2.9-3.2c1.6-.6 3.7-2 4.7-3.1q3.8-4.5 2.2 4.8m-34.1-1.5q-.5 1.1-.6-.6t.5-1.3q.5.6.1 1.9m-25.9.6c-.5 2.3-2.8 2.7-2.8.4q.2-1.7 1.5-1.9 1.5.2 1.3 1.5m10.2 1.1q-.2.8-2.5.7c-3.3-.1-3.3-1.6 0-1.6q2.3 0 2.5.9m19.7 9.3q-.5 1.1-.6-.6t.5-1.3q.5.7.1 1.9M314 355q-.1.9-1.1 1-.8-.1-.4-1 .6-1 1.1-1 .4 0 .4 1m18.4 9.4c-.3 2.1-.8 3.5-1.1 3.2-.2-.2-.1-2 .3-4 .3-2.1.8-3.5 1.1-3.2.2.2.1 2-.3 4m-95.4 4.5q.1.8 1.9.4t4.8 3.1a68 68 0 0 0 8.5 7.9c3.2 2.5 5.5 4.6 5.3 4.9q-.2.3 1.6.5c3 .3 8.7 4.1 9.4 6.4a4 4 0 0 1-.5 3.4c-.9 1.1-.8 2 .7 3.9 1 1.4 2.1 2.6 2.6 2.6s.7 1.6.7 3.5q0 3.5 1.5 3.5c1.9 0 1.9 1.6 0 2.4q-1.4.4-2.9-2.2-1.4-2.4-1.6-1.4c0 .7-1.1 2.3-2.5 3.6q-4.2 4-1 3 1.4-.5 1.5.4c0 1.4 3 .9 4-.7q.8-1.5 1.5-.1c.4.6.3 1.6-.3 2.2s-.8 1.7-.5 2.4c.6 1.7 2.6 1.9 2.1.2-.4-1 2.5-4.8 3.6-4.8 1.4 0 3.6 3.5 3.6 5.8q.1 3-1 1.2c-1.1-1.8-1-1.2-1-.1q.1 1.4-3.2.8-2.9-.4-2.1-.1 1.5.5-.1 2c-1.6 1.5-1.2 2.2-.5 4.7.5 1.7 1.4 3.3 1.9 3.5q1 .4 1 1.4-.1 1-1.4.5c-1.9-.7-3 2.2-1.5 3.9.6.8 2.2 1.4 3.5 1.4 2.5 0 3.9 1.4 2.9 2.9q-.6 1-3.5-.1c-2.2-.7-3.4-.7-4.5.2q-1.4 1-2.5.5c-1.3-.8-1.3-.9.4 4.7.8 2.5 1.1 4.9.8 5.3q-.4.6 1.5-.4c3.3-1.7 6.5-1.4 6.1.6q-.2 1.8-4.2 1.7c-2.2.1-4.1.6-4.3 1.2-.4 1.3 5.5 4 7.7 3.5q1.3-.1.7.6c-.5.4-3 .8-5.5.8-4 0-4.7.3-4.7 2q-.1 2 3 2.5c1.6.3 3.1 1.2 3.3 2.1.2 1.3-.6 1.6-4 1.5-3.7-.1-4.3.2-4.3 1.9q-.1 4.1-5.5 3-3-.7-3-2.7.1-2.2-2-1.5c-1.9.5-2 .2-1.4-3.1.8-4.2 1.4-5.4 1.4-2.6 0 1 1.3 2.6 2.8 3.5l2.9 1.6-1.3-7.1c-.7-4-2-9.8-2.9-13-1.6-5.5-1.6-6 0-9.7 1.4-3.1 1.5-4.2.6-5.3q-1.1-1.6-.6-3.7.7-2.2 1.5-.9.8 1 1.4.2c.3-.5-.1-1.5-.9-2.2-.7-.6-1.1-1.8-.8-2.6.6-1.7-2.4-3.1-3.8-1.7-.5.5-1.2 2.3-1.5 3.9-1 5.4-1.7 3.9-1.1-2.6a57 57 0 0 1 2.1-11.3c1-2.6 1.4-5.7 1-6.9-.6-2-.6-2-2.5-.1-2 2-4.9 13.3-4.9 19.6 0 2.1-.6 5.3-1.4 7.1-1 2.5-1.1 3.7-.3 4.5q1.2 1.1-1 1.1-2.1 0-2.9 2.2a8 8 0 0 1-2.2 3.4c-1.4 1-1 3.4.7 3.4.4 0 1.6-1.6 2.7-3.5 1-1.9 2.1-3.5 2.4-3.5s.5 2.1.4 4.7c-.1 2.7.4 6 1.2 7.5 1.6 3.1 1.8 6.8.4 6.8q-.9.1-1 1.6 0 1.3.9 1c.5-.3.9 1 .9 2.9v3.5l-4.1-.6c-2.3-.4-5.2-1.1-6.4-1.5-1.3-.5-3-.6-3.9-.2q-1.6.5-4-2.1c-1.4-1.4-3.3-2.6-4.3-2.6-2.7 0-4.8-2.7-3.3-4.2.7-.7 1.2-2 1.2-3 0-2 1.5-2.4 2.6-.6q.6 1-.4.4c-1.6-1-1.6 3.2.1 4.7 1.6 1.5 5.3 1.5 6.9-.1.9-.9.8-1.6-.5-3q-1.8-1.8-.6-2.9c1.6-1.6-1.7-4.3-5.2-4.3-3.3 0-3.3 0-1.7-8.6 1.1-6.2 1.1-6.3 4.1-5.7 2.5.5 2.8.3 2.5-1.3q-.5-1.8-2.6-2.2-3.9-.5-.6-3.7c.9-.9 2.4-1.3 3.5-1 1 .4 2 .2 2.1-.4.4-3.1.1-3.6-2.3-4.1-2.3-.4-2.5-.8-1.8-2.8a3.4 3.4 0 0 1 3.3-2.2q5.1 0 2-4.8-2-3-.2-1.4c1.3 1 1.6.9 2.1-.9s.9-2 2.1-1q1.7 1.6 1-.7c-.3-1 .1-2.4 1-3.1s1.2-2 .9-2.8q-.6-2-1.2-.2c-.5 1.1-1.1 1-2.9-.8l-2.3-2.1 3.8.3c2.1.2 4.5 0 5.3-.6q1.8-1.2-.6-.4c-1.7.4-2.3 0-2.8-1.9a6 6 0 0 0-2.6-3.6q-1.8-1.1-2-2.5c0-1.7-.2-1.7-2.4-.9-.9.3-1.6 1.3-1.6 2.2q0 1.3-.7.9c-1.1-1.2 2.9-8.8 4.4-8.3q1.2.4 1.3-.4-.2-1-1.2-1-1.1-.1.6-1.5c2.1-1.6 2.4-6.1.6-9.4-1.3-2.6-3.8-2.7-4.7-.4-.4 1-1.3 2.3-2.1 2.9-1.8 1.3-.7 5.8 1.1 4.8q1-.5.4.1c-.4.5-2 .9-3.4 1-3.2 0-4.3 2.4-1.4 3.2q2 .6 2.1 1.5c0 1.4-4.9 11-6.6 12.9q-1.2 1.5-.8 2.1c1.1 1.2-2.7 7-4.2 6.4q-1.7-.7-.5 1.1c1.1 2-2.1 11-4.6 12.8q-1.5 1.2-1 2.9.7 1.7-.5 1c-1.2-.7-.9 0-.5 1.6.4 1.4-.2 3.9-1.5 6.4-1.2 2.3-2 4.2-1.9 4.3.6 1.1-.1 3.3-1 3.3q-1.1 0-.4-2.8l.9-4.2c0-.8.7-1.7 1.3-2 1-.4.9-1.2-.2-3.4-1.4-2.7-1.4-3 .6-4.4q2-1.4 1.6-3.3t.4-1.9q1 0 .9 1.1t1.5-.1c1.7-1.4 2.1-3.5.5-2.5q-.9.4-1-.4 0-1 1-1.1.8-.1.4-1.5-.7-1.3-1.5-.9-.8.3-.9-1 .1-1.5 1-1.6c.6 0 1-1.3 1-3s.9-3.8 2.2-5c1.8-1.6 2-2.2.9-3.3-1.1-.9-1.4-.9-1.8 0q-.5 1.2-1.3 1.3c-1.2 0-.5-3.3.8-3.8.7-.2 1.2-1.1 1.2-1.9q-.1-1.8 1.3-.4 1.4 1 2 .4c1.2-1.1.8-2.3-.8-2.3s-2-1.6-.5-2.5q1-.5 1 .6c0 1.1.3.9.6.6q.6-.7-.4-2c-.9-1-.3-2.6 2.3-6.8a69 69 0 0 0 4.4-7.6q2-4.5 4.8-2.1 2 1.7.9-.1-.7-1.3.5-2.2c1.8-1.1 5.9-1.1 5.9 0m94.4 6.5q-.6 1.4-2.1 2-1.6.8-.9-1l1.3-4.2c.6-2.5.6-2.5 1.4-.4.5 1.2.6 2.8.3 3.6m-20.4-2.3c0 .5-1 .9-2.1.9-1.8 0-1.9-.2-.9-1.5 1.2-1.5 3-1.2 3 .6m-16.5.9c-.3.5-1.2 1-1.8 1q-1 0 .3-1 2.8-1.8 1.5 0m6.5 4.4c0 .8-.4 1.8-1 2.1q-.9.4-1-1.4.1-2 1-2.1 1 .1 1 1.4m6.4 2.9c-.8.4-1.4 1.9-1.4 3.2q0 2.3-1 2.5c-1.3 0-1.3-3.3.1-6.4.9-1.9 1.4-2.2 2.4-1.3q1.5 1.3-.1 2M318 380q0 .9-1 1a1 1 0 0 1-1-1q.1-1 1-1t1 1m-42 17.1c-1.2 4.1-1.8 4.6-2.7 2.4q-.6-1.8.5-2.3t1.2-1.8c.1-1.4.4-1.4.9-1.4q.9.1.1 3.1m4.8 1.3c-.4 3.1-3.8 3.4-3.8.3q-.2-4.2 2.7-3c.8.3 1.3 1.5 1.1 2.7m-50.8-1.1c0 .7-.7 2.2-1.5 3.3-.8 1.2-1.2 2.4-.9 2.7.3.2-.2 2.9-1 5.8l-2 7.9c-.9 4.5-5.4 19.5-5.5 18.2q-.2-1.2-1.7-1-1.6.2-2.2-1.1-.5-1.4 1.1-.8 1.6.7 1-.9-.4-1.3 1.1-1.4t1.6-1.1q0-.9-.9-.5t-2.1-1q-1.4-1.5-.2-2.6 1.3-1.4 1.3.7-.1 2.7 1.2-.4c.9-1.9.9-2.5-.1-2.9-1.8-.6-1.5-2 .5-2.4 1.4-.2 1.8-1.4 1.9-5.1.1-2.6.6-5.3 1.2-6s2-3.8 3.2-7c2-5.2 4-7.5 4-4.4m81.2 4.3c-2.1 1.4-2.2 2-1.5 8.7.4 4 .7 9.1.8 11.4 0 2.2.3 3.9.6 3.7s.9 2.2 1.3 5.4c.3 3.1.9 6.7 1.2 7.9q.8 2.4-.9 2.3c-2 0-3.2-3.7-1.8-5.4.8-1 .7-2.5-.4-5.7-1.9-5.3-3.6-21-2.8-25.3q.7-4.8 4.3-4.6 1.4 0-.8 1.6m-16.2.4q0 .9-1 1a1 1 0 0 1-1-1q.1-1 1-1t1 1m8.4 2.3c-1 .6-2.3 1.5-2.7 2.1q-.9 1-.3-.6.4-1.6-.6-2.4c-1.9-1.2 1.5-2.3 3.6-1.2 1.9 1 1.9 1.1 0 2.1m-26.7-.3c-.6 2.4.6 2.6 2.7.5q1.4-1.3 2-.7c.7 1.2-2.5 3.6-5.1 4q-2.5.5-2.3-1.7.1-2 1.1-2.1.8-.1.4-1t.6-1q1 .1.6 2m59.6 9.7c2.2 7.4 3.3 16.4 1.8 14.3a7 7 0 0 1-1.1-3.6c0-1.1-.3-2.4-.7-2.7-.7-.8-3.8-9-5.9-15.7l-1.3-4.5 2.7 3.2a28 28 0 0 1 4.5 9m-128.6-7.8c-.6 1.6-1.9 3.2-3 3.5-1.7.4-1.7.2-.4-1.7l2.1-3.5c1.4-2.4 2.4-1.2 1.3 1.7m113.1 0q-1.2 1.8-2.2 1.4-.9-.6.3-1.1 1.7-.4 0-1.3t.9-.9c1.9 0 2.1.2 1 1.9m-37.8 5.3c0 2.7-.3 3-2.2 2.3-1.3-.4-3.2-.7-4.3-.7q-1.7 0-.7-.5t.6-1.4c-1.1-1.9.8-3 2.2-1.2 1.3 1.7 1.4 1.7 2-.4.9-3.1 2.4-1.9 2.4 1.9m42-.5-1.1 2.4c-.9 1.7-.5 2.2 2.5 3.4 2.1.9 3.6 2.2 3.6 3.2s.9 4.3 2.1 7.5c1.1 3.3 1.8 6.6 1.5 7.4q-.4 1.3.5 1.4 1.1.2.5 1.6-.5 1.3.3.9c.5-.3 1.3.5 1.6 1.7.4 1.3 1.3 3 2.1 3.8a42 42 0 0 1 5.7 20.7c-1.3 3.4-11.6 5.9-12.6 3q-.2-1.2 4.2-2.3 4.6-1 4.9-2.8c.3-1.4-.2-1.7-3-1.6-10.7.6-15.1-1.2-5.8-2.4 7.4-1 6.7-3.2-1.2-4.1-8.5-.9-9.8-1.3-9.7-3.3q.1-1.4.5-.7c.2.6 3 1 6.4.9q6-.3 6 .9c0 1.8 2.9-2.6 3-4.5 0-.9-.5-2-1.2-2.4q-1-.6-.4.4c.6 1 .2 1.2-.3 1.2q-1 0-1.1-.9c0-1.6-3.4-2.3-4.5-.9q-1.4 1.6-9.7.9c-1.3-.2-.9-2.8.6-4.1.8-.6 3.4-1.3 5.6-1.5 2.3-.1 4.6-.7 5.2-1.3q2.9-3.1-6.7-2.9c-3.6.1-6.5 0-6.6-.3l-.4-5c-.4-4.5-.4-4.5.9-1.6 1.4 3 8.7 6.8 8.1 4.3-.4-2.2-1.8-5.2-3-6.7-2.1-2.5-4.7-16.3-3.3-17.1 1-.7 4.8 0 4.8.8m-30 2.4q0 .8-1 .9-.9-.1-1-1.6.1-1.3 1-.9 1 .6 1 1.6m7.8 2q-.4 3.1-.9-.9-.5-3.1.4-2.3c.5.5.7 1.9.5 3.2m-99.8-1.5q-.1 1.3-1.1.9-1-.7-.7 2.6c.2 2.5-.1 3.4-1.4 3.7q-1.6.3-1.8-.7c-.2-1 .7-.8 1.5-.5q1.4.5 1.5-.4-.1-1-1.1-1.4t0-3.1c1.1-2.9 3.1-3.7 3.1-1.1m85 5q-.1 1.3-1 .9-1-.7-.5-1.6 1.4-2 1.5.7m8.1.8q.8-.4.9.5-.2 1-2 1.1c-2 0-2.6-1.1-1.3-2.4q.7-.5 1.1.3.4 1 1.3.5m8.7 9.3c.8 2.4.7 3.3-.3 3.7q-1.2.5-.8 2.7c.6 2.2.7 2.2 1.4.3q.9-2.4.8 1.3.1 3.4-1.4 3.3-1.4.1-1.5 1.1.1 1 1.5.5c1.9-.7 1.9-.5 0 3-1.8 3.4-2 5.8-.4 4.8q1.1-.5.7.6-.4 1.3-1.5 1.7c-1.4.5-2.3-12.6-1.5-24.4.5-8 .7-9.1 1.3-5.8.4 2.2 1.1 5.4 1.7 7.2m-110-3.6q-1 .8-.2.9c.5 0 1.6-.6 2.3-1.3q1.6-1.5 0 1.2c-2.8 4.7-3.5 5.6-4.7 5.8-1.8.4-1.4-2.3 1-7q2.3-4.7 2.6-2.3c.2 1-.2 2.2-1 2.7M288 423q-1 1.8-1.4 2-.4-.2-.9-2-.6-2.1 1.4-2c1.7 0 1.8.3.9 2m9 3q-.2.9-2 1c-1.8.1-2-.5-2-1q.2-1 2-1c1.8 0 2 .4 2 1m-17.5 1.8q-.6.4-1.8-.7-1.4-1.4.6-.5 1.6.6 1.2 1.2m60.7 4.7q.4 2.1-.3 1.9c-.9-.5-1.3-4.4-.5-4.4.2 0 .6 1.1.8 2.5m-60.7 2.4q-.6 1-1.7.5-.9-.6.3-1.5c1.6-1 2.3-.4 1.4 1m8.5 1.3q0 1.8-1.1 1.2-1-.6-.5 1.2c1.4 4.6 1.5 10.3.3 11.6-1.6 1.6-1.1 3.8.8 3.8 2.2 0 .5 4.1-2.2 5.1-3.3 1.2-3.7 1.1-2.4-.5q1.2-1.4.2-2c-1.2-.8-.4-6.4 1.2-8.3q.9-1.1 1.8-.7c1 .6.1-2.5-1.2-4.1-1.3-1.7.1-9.2 1.7-9.2q1.3.2 1.4 1.9m-69.5 10.6q-.7 2.8-1.5 1.2a4 4 0 0 1-.2-2.9c.5-1.4.4-1.4-1.2-.1q-1.7 1.4-.7 1.8c2 .7 1.1 2.2-1.1 1.8q-2.4-.2-2.6-3c-.3-2.5-.2-2.7 1.7-1.6 1.9.9 2.4.7 3.9-2l1.7-3 .3 2.6a15 15 0 0 1-.3 5.2m-12.8-4.6q-.5 1.1-.6-.6t.5-1.3q.5.6.1 1.9m1.3 10.5q-.2 1.2-2 1.3c-1.8.1-2-.7-2-1.5s.5-1.5 1.1-1.5q1.2 0 .1-1.3c-.6-.7-.8-2.3-.5-3.6.5-2.1.7-1.9 1.9 1.5.8 2.2 1.4 4.5 1.4 5.1m-10.3-3q-.5 1.3-.5-1.2 0-2.6.5-1.8c.2.7.2 2.1 0 3m80-3.1q-.6.5-1.9.1-1.1-.5.6-.6t1.3.5m38.3 1.3q-.1.8-1.5 1.5-1.4.4-1.5-.9.1-1.4 1.5-1.5c1.4-.1 1.5.4 1.5.9m-20 2.7q0 1.3-1 .9-.9-.6-1-1.6.1-.8 1-.9 1 .1 1 1.6m-6.3 1.6q-.5 1.1-.6-.6t.5-1.3q.5.6.1 1.9m-92.2.8q.4.9-.4 1-1-.1-1.1-1 0-1 .4-1 .6 0 1.1 1m120.3 2.5c.3.3-.7.5-2.1.5s-2.7-.4-2.7-.9c0-1 3.8-.7 4.8.4m-12.3 1.4q-.4.9.4 1.5c1.4.9 1 5.4-.6 6.7q-1.6 1.7-.9-1.4c.2-1.4 0-2.7-.5-2.9-1.1-.4 0-4.8 1.3-4.8q.8 0 .3.9M204 458.5c1.6 1.9 7.4 1.9 9.4 0 1.3-1.4 1.6-1.2 2.8 1.2.7 1.6 3.1 3.7 5.4 4.8s5 2.7 6 3.6c1.1.9 4.6 2 7.9 2.4s7.9 1.5 10.1 2.6c2.3 1.1 4.7 1.8 5.4 1.7.6-.2 1.7.4 2.3 1.3.8 1.4.2 2.7-3.5 7A199 199 0 0 0 239 498c-3.5 5.2-8.3 11.5-10.5 14-2.3 2.5-6.5 7.9-9.4 12a138 138 0 0 1-21.2 25.7l-5.1 2.3a8 8 0 0 0-3.7 4.2c-.6 1.6-3.1 4.9-5.6 7.3-4.8 4.7-5.5 6.8-2.9 8.3 1.4.8 1.3 1.7-1 8.3a66 66 0 0 1-19.4 27.1c-5.3 3.5-12.6 1.5-18.5-5.1-5-5.6-5.2-8.7-1.2-21.7 4.2-13.5 12.6-23.6 23-27.6 5.4-2.1 9-9 9.8-19.2.4-4.4 2-11.1 4.2-17.2a242 242 0 0 0 5.6-17.4c1.1-4.1 2.6-8.9 3.3-10.5.8-1.7 2.8-7.5 4.6-13 4.8-14.3 5.8-16.5 8.3-17.5 3.1-1.2 3.3-1.2 4.7.5m112.5 3.5c-.3.5-1.2 1-1.8 1q-1 0 .3-1 2.8-1.8 1.5 0m-28.7 3.1c1.5 2.3.7 7.9-1.1 7.9q-1.1 0 .1 1.2c1.4 1.4 1.6 5.4.3 6.3s-2.1-.8-3.1-7.2c-.9-5-.8-6 .7-7.1q2-1.2.2-1.3h-2.2q-.8 0-.2-.9c1-1.7 3.9-1.1 5.3 1.1m11.2-.7q-.2.4-2 .9t-2-.4c-.2-.8.9-.9 2-.9s2 .2 2 .4m-20.3 4.2q1.4 1.5.7 2.4c-1.2 1.1-4.8-1.5-3.9-2.9.8-1.5 1.4-1.4 3.2.5m40.3.5q-.1.8-1.5.9c-1.5 0-2-1.2-.9-2.3.8-.8 2.4.1 2.4 1.4m-47 4.9c1.8 1.2.2 1.2-2.5 0q-2-.9-.5-.9a7 7 0 0 1 3 .9m36 .9c0 .5-1.1.8-2.4.7-1.3 0-2.2-.4-1.9-.9.6-1 4.3-.9 4.3.2m9.8 1.2q.3 1.6-2.5 2.2-5.4 1.1-3-2.4c1.4-2.3 5-2.2 5.5.2m-36.8 2.7c1.4 5.4 4.3 7.8 7.8 6.6q2.7-.9 3.2-3.9.5-2.8 1.3-1.8 1.1 1.3 4.2.6c4.3-.7 4.4.2.9 9.4-1.4 3.8-2.9 8.4-3.4 10.3l-3.5 12-5 17c-1.3 4.7-3.1 10.3-3.9 12.5a120 120 0 0 0-6.6 19.6q0 3-4.8 9.6a82 82 0 0 0-5.7 33c.7 8-.8 9.7-9.1 10.6-7.9.9-12.1.1-16.9-3.1-5.6-3.8-8.5-10-8.5-17.8 0-7.4 2.1-12.8 7.6-19.9 2.2-2.8 4.8-6.8 5.8-9l2.7-5.7c1.1-2.2 1.2-5.2.2-6.2-.4-.4-.8-4.2-.9-8.4-.7-49.7-.7-49 1.4-52.4 1.2-1.8 4.6-5.7 7.6-8.7l5.4-5.4 4.9.7c7.7 1.2 10.7.9 12.2-1.4q1.2-1.8 1.7-2c.2 0 .8 1.7 1.4 3.8m-39.1 45.9c.3 24-1.1 37.1-4.3 41.9-10.5 15.6-11.6 17.9-11.6 25.5 0 4.1-.5 5.2-3.2 7.8l-3.3 3.1v11.2c0 9.7.4 12.1 2.4 16.5 1.2 2.8 3.1 5.9 4.2 6.9 1 .9 1.9 2.1 1.9 2.6 0 1.3-7.4 4.2-7.8 3-.1-.5-1.3-2.9-2.5-5.3-1.8-3.6-3.3-5-8.7-7.6-5.7-2.8-7.2-3.1-12-2.6-7.5.7-16.7 3.7-21.5 6.9-5.1 3.4-9.9 9.1-9.8 11.5q.4 4-5.4-.7c-2.9-2.2-3.3-3.1-3.3-7q0-9.1 4.5-8c3.1.8 4.6-1.9 5.6-9.7.4-3.2 2.2-9 4.3-13.3a48 48 0 0 0 3.6-9c0-.8 1.1-3.1 2.4-5.2s3.8-7.3 5.6-11.5a95 95 0 0 1 16.8-26.3c2.2-2.3 5.2-6.1 6.8-8.5a500 500 0 0 1 29.7-39.2c2.1-2.6 4.2-4.5 4.6-4.3s.9 9.9 1 21.3m159.6 3.8c2.2.8 4.7 1.5 5.6 1.5 2.7 0 11.8 8.9 14.2 13.9 3.2 6.6 3.2 18.6 0 23a11 11 0 0 0-2.3 5.8q-.2 5.7-5.9 8.3c-1.7.7-3.3 2-3.6 3.1-.5 1.4-1.6 1.8-5.3 1.7-5.8-.1-8.9-1.2-12.3-4.4-3.2-3.1-4.7-1.7-2.9 2.7.8 1.8 2.9 3.8 5.4 5.1l4.1 2.2-4.4.8c-2.4.4-6.2 1.9-8.4 3.3-3.7 2.5-3.9 2.6-5.2.8-1.3-1.7-1.5-1.4-3.4 2.8a22 22 0 0 1-3.8 6.1 38 38 0 0 1-15.7 6.9c-4.6.8-6.4.6-13.2-1.5-12.9-4.1-18.4-11.4-18.4-24.3 0-7.6 2.5-14.1 6.5-16.7 2.9-1.9 3.2-3.6.7-3.6-3 0-9.2 7.2-10.8 12.6a32 32 0 0 0 1.7 20.6c1.1 2.1 1.9 4.2 1.9 4.7s-2.6 1.5-5.7 2.1a39 39 0 0 0-8.3 2.6c-6.2 3.3-13 12.1-13 16.5 0 2.7-2.4 4.6-3.5 2.9-.4-.6-1.9-1-3.5-1s-4.2-1.1-6-2.7c-2.9-2.4-3.1-3-2.5-6.9.5-3.9.4-4.3-1.7-4.6a3 3 0 0 1-2.6-2.6q-.2-2 .6-2.2c.6 0 .9-3 .8-6.8-.1-6.3.1-7.1 3.3-11q3.3-4.2 6.2-4.9c1.6-.3 3.2-1 3.5-1.4.7-1.2 8.1-1.1 8.9.1q.6.9 1.6 1c1.3 0 .3-6.9-1.7-11.6-2.1-5-1.7-9.5 1.5-16.7 3.9-8.7 7.9-11.7 15.8-12l5.8-.2-.2 3.2c-.2 1.7.2 3.5.7 3.8 2 1.2 4-1.7 4-5.7 0-7.4 6.2-12.8 14.6-12.8 3.5 0 7.4 2.2 7.4 4.1 0 .5-1.6 1.5-3.5 2.4q-3.5 1.3-5 4.9a8 8 0 0 1-4.4 4.4c-3.5 1.2-6.4 5.2-5.5 7.6 1 2.5 3.4 1.9 3.4-.8s1.6-3.6 6.6-3.6c3.1 0 3.4-.3 3.4-2.8 0-3.7 2.3-5.8 8.1-7.2 4.8-1.2 12.1-.1 13.4 2 .3.6 1.3 1 2.1 1 1.7 0 1.9-4.1.3-5.7-.6-.6-.9-2.1-.7-3.4.8-6 21.5-10.9 31.3-7.4m-320 6.6c7.3 6.6 33 11.2 40.6 7.3 2.2-1.1 2.9-1.1 4.5.1 2.7 2.1 9.9 1.8 14.4-.5l3.9-2 1 3.6c1.1 4.2 4.7 8.4 7 8.4q1.5 0-1.9 3.5c-1.9 1.9-3.8 3.5-4.3 3.5s-2.9-2.1-5.3-4.6a32 32 0 0 0-8.7-6.4c-5.2-2.4-15-2.6-23.1-.5-5.2 1.4-6.1 1.4-7.5.1-1.5-1.4-4.4-1.2-9.7.5-.7.2-2.3-.8-3.7-2.4-2.2-2.2-3.5-2.7-7.5-2.7-4.3 0-5-.3-6.1-2.6-1.2-2.7-.6-6.4 1.2-7.6 1.2-.8 2.3-.3 5.2 2.3m351.3 40.1c1.3 1.3-.1 3.8-2.2 3.8-2.2 0-5.4 4.4-6.1 8.2q-.6 4-2.5 3.8c-2.6 0-9-2.9-9-4 0-.5 1.7-2.1 3.8-3.5s5-4 6.5-6c2.9-3.7 7.1-4.7 9.5-2.3m-100.4 36.9c3.6 1.7 6.2 5.4 7 9.6l.6 3.3h-5a44 44 0 0 0-38.8 25 29 29 0 0 0-3.2 12.8c0 4-.2 4.2-2.9 4.2-6.9 0-14.3 6-16.2 13.1-1.2 4.4-6 9.6-7.8 8.5-.5-.3-1.2-6.5-1.6-13.6-.6-11.3-.5-13.3.9-14.9.9-1 1.6-2.9 1.6-4.3 0-4 3-6.9 7.8-7.5 2.3-.3 4.2-.8 4.2-1s-.7-1.8-1.6-3.5q-2.7-5.5 1.8-10.6c2.6-2.7 5.2-2.8 10.3-.2 3.5 1.8 4 1.8 5.6.4.9-.8 2-1.4 2.5-1.2s1.9-.3 3.2-1c1.7-1 2.2-2.2 2.2-5.3 0-3.2.7-4.7 4.2-8.5 2.2-2.4 4.8-4.4 5.7-4.2.9.1 2.7-.5 4.1-1.5 2.9-2.1 10.7-1.9 15.4.4M278 618c0 .9.9 3.3 1.9 5.3l1.9 3.8-3.5 1.4c-2 .8-3.9 1.5-4.3 1.5s-.8-4.4-.9-9.7l-.1-9.8 2.5 3a14 14 0 0 1 2.5 4.5m91.4.4c-1.4 5.6-1.5 7.4-.5 10.8 1 3.3 1 4.2-.1 4.9-2 1.3-2.8 1.1-6.1-1.7-2.6-2.2-3.8-2.5-7.1-2.1-3 .4-5.1 0-8.8-1.9-5.2-2.6-5.7-3.4-3.2-5.5q1.6-1.2 1-4.5l-.6-3.2 6.2.5c4.9.3 7.8-.1 13.3-2 3.9-1.3 7.1-2.3 7.3-2.2s-.5 3.3-1.4 6.9M74.7 631c3.1 1 4.9 1 7.3.2 3.1-1.1 3.2-1.1 5.1 3.4 1.2 2.6 3.3 5.3 5 6.3a24 24 0 0 0 16.6 2c1.9-.6 3.6-.9 3.9-.7 1.4 1.5-6.6 15.2-13.7 23.2l-4.1 4.6-3.3-3.6c-3.3-3.5-3.6-3.6-9.5-3.2-3.6.2-6-.1-6-.7s1-2.6 2.2-4.5c3.9-6.2 2.5-17-3.1-23.4a22 22 0 0 0-5.3-3.7c-2.1-1.1-3.8-2.4-3.8-2.9q.2-.9 2.3.4c1.2.8 4.1 2 6.4 2.6m132 2.7c5.9 3 8.3 6.3 8.3 11.3 0 5.6 4.1 9.6 5.6 5.5.7-1.9 6.5-4.8 7.5-3.8.6.7 1.6 10.1 1.9 18.3.1 4.8-1.8 37.8-2.6 44.1-.4 2.9.1 4.3 2 6.7 3.9 4.6 7.6 5.7 13.9 4.2a37 37 0 0 1 19.8-.3c9.5 2.7 41.3 5.1 42.5 3.2.7-1.1 5.4-1.2 5.4-.1 0 .4 2.8 1.4 6.3 2.1 18.2 3.7 19.8 4.3 24.4 8.3a23 23 0 0 0 7.4 4.5c3.4.7 6.4 3.7 5.6 5.7-.5 1.2-1.9 1.4-7.4 1-3.7-.3-8-1.2-9.5-2-3.4-1.8-4.9-1.8-7.3 0-1.7 1.2-1.8 1.7-.7 4 .9 2.1.9 2.7-.1 3l-4.7 1.4q-3.5 1-14 .2c-14.4-1.2-19.3-2.3-22.5-4.8a17 17 0 0 0-6.4-2.8c-2-.4-4.5-1.3-5.6-2.1-1.8-1.3-1.5-1.4 3.2-.8 11.1 1.4 12.6-2.4 2.9-7.3a52 52 0 0 0-25.2-5.2c-3.9 0-11.9-.3-17.7-.6l-10.6-.7-.6-2.9a7 7 0 0 0-2.7-3.9c-1.9-1-1.9-1.1-.2-2.3 1.7-1.3 1.6-1.4-.3-2.4-1.1-.6-4-1.4-6.4-1.8-2.4-.3-6.5-1.7-9.1-3a35 35 0 0 0-12.2-3.2c-6.8-.6-7.3-.8-6.2-2.4 1-1.4 1.9-1.6 4.2-.8l11.4 3c4.7 1.2 10.4 2.8 12.6 3.5 2.3.7 4.7.9 5.4.5 1.8-1.1.4-4-1.9-4-1.1 0-5.5-1.1-9.8-2.5A53 53 0 0 0 203 702a15 15 0 0 1-6-2c-16.8-9.7-18.7-9.9-45.7-3.3-10.3 2.5-12.3 2.4-12.3-.3 0-.8-1-3.4-2.1-5.6a28 28 0 0 1-2.5-8.9c-.3-3.9.2-5.3 2.7-8.8 3.3-4.4 6.3-5.7 10.7-4.7 4.9 1.2 6.7 1.2 6.4-.3-.4-1.9 1.9-4.3 3.6-3.6 2.6 1 4-1.3 3.5-5.8-.4-3.7-.1-4.6 2.6-7.5 1.7-1.7 3.5-3.2 3.9-3.2s2.3-2 4.2-4.4c9.2-11.5 23.4-15.6 34.7-9.9m64.2 5.8c.2 1-.5 2.5-1.5 3.2q-3.4 2.5-3.4-.2.1-1.3 1-1.5t1-2.1c0-2.5 2.3-2 2.9.6m-118.5 2.3c.3 2.2 1.6 4.8 3 6.1 2 1.8 2.3 2.8 1.6 4.2-.6 1-1 3.1-1 4.7 0 2.4-.8 3.4-3.6 5.1a14 14 0 0 1-5.4 2.1c-2.9 0-9.2 3.6-12.8 7.3a14 14 0 0 0-4.1 8.8c-1 5.8-.3 8.3 4 14.8l2.3 3.4-3.5-.7c-1.9-.4-6-.9-9.1-1.3-6.8-.6-7.6-2.4-2.9-7.2 1.6-1.6 3.9-5.9 5-9.4 1.2-3.6 3.1-7.3 4.1-8.2q2-1.9 2-5.5c0-3 .4-3.9 2.1-4.3q1.9-.6 1.5-1.6c-.4-.5.7-2.9 2.4-5.3l7.6-10.6c2.4-3.4 4.8-6.2 5.3-6.2s1.1 1.7 1.5 3.8M37.5 654.5c0 1.3-9.7 6.5-10.8 5.8-1.5-.9 6.6-7.3 8.8-7q1.8.2 2 1.2m1.9 24c-.6 1.6-2.4 2.1-2.4.7 0-1.1 1.1-2.2 2.1-2.2q.8.2.3 1.5m-7.4 2c0 1.4-.4 2.5-1 2.5-1.1 0-1.4-3.3-.3-4.3 1.1-1.1 1.3-.8 1.3 1.8M27.6 703c.7 9.7.6 10.2-1.2 9.8s-1.9-1.4-2.2-10.2c-.5-17.4 2.3-17.1 3.4.4m153.4-7q2 1.2-.1 1c-.8 0-2.5 1.4-3.8 3.1q-2.1 2.8-2.9 2.5c-.3-.3.5-1.7 1.8-3.1l2.3-2.5-2.4-.9c-2.3-1-2.3-1 .6-1 1.7 0 3.7.4 4.5.9m271.7 12c1.4 1.1 3.2 2 3.9 2 3.1 0 2.1 2.1-1.8 3.9-4.9 2.2-20.6 7.1-23 7.1a14 14 0 0 0-5.2 2.9 28 28 0 0 1-10.4 4.5c-8.1 1.9-29.8 3-36.7 1.8-4.5-.7-3.9-.9 7-1.5 18.1-1 28.7-3.1 38-7.7a114 114 0 0 0 19.5-11.5c5.4-4 5.5-4 8.7-1.5m-65.7 8a38 38 0 0 0 22.6 3.2c8.2-1.1 9-1 8 .7-1.5 2.3-12.8 4.2-28.6 4.7-40.5 1.3-65.3.8-45.3-1 10.6-1 23.6-4.3 30.3-7.7 5.8-2.9 7-2.9 13 .1m-359.5 3.1c1 1.5-.1 2.3-2 1.5q-1.4-.6-1-1.6c.8-1.3 2.2-1.3 3 .1m188.7.1q-1 1.2-3.4 0c-2.2-1-2.1-1.1 1.2-1.1q3.7-.2 2.2 1.1m-7.2 6.1c2 .6 4.8 2.2 6.3 3.4 3.4 2.7 8.3 3.2 35.2 3.8 11.5.3 21.3.9 21.8 1.4q.6.8-1 .8c-5 0-5.3.2-5.3 3.8 0 2.9.6 3.9 3.3 5.5 1.7 1.1 4.8 2.2 6.7 2.6 3.9.6 6.2 1.5 10.5 4.4 1.7 1.1 3.9 2.4 5 2.9q2.7 1.1-1.7 1c-3.4.1-3.8.4-3.8 2.6 0 3.1-.5 3.1-12-.4a127 127 0 0 0-21.4-4.1c-11.2-1.1-12.1-1.1-13.3.6s-1.4 1.7-2.8-.2c-1.3-1.7-1.2-2.1 1-3.7 3.3-2.4 3.4-7.1.3-9.1-1.3-.8-4.5-1.8-7.3-2.1s-7.7-2.2-11-3.9a23 23 0 0 0-14-3.4 27 27 0 0 1-8.9-1.2q-1-1 0-1 1.4-.2 2.2-2.5 1.8-4.3 10.2-1.2m162.4 4.5c.2.4-2.7.9-6.5 1q-6.9.1-6.4-.8c.7-1.2 12.2-1.4 12.9-.2m-17.4 1.1c0 1.6-2.7 3.1-4.4 2.5-3-1.1-1.6-3.4 2.1-3.4q2.1 0 2.3.9m-151.5 8.2c2.5 1.2 4.4 2.3 4.3 2.5-.7.6-15.8-.9-15.8-1.6s3.9-2.8 5.8-2.9c.7-.1 3.3.9 5.7 2M179 741q3.6.9-1 .9c-1.9 0-4.2-.4-5-.9q-1.9-1.1 1-.9c1.4.1 3.6.5 5 .9m-6.5 4.5c4.4.7 7.4 1.3 6.8 1.4-1.9.2-1.6 3.1.3 3.1q1.5-.2 2.1-1.9c.8-3 5-3.4 18.5-1.6 15.6 2.1 24 4.7 27.8 8.8s3.8 5.7 0 5.7q-3 0-4.7-2.6c-3.6-5.5-19.3-9.1-26.3-6-3.3 1.4-3.3 1.5-1 1.7l4.5.4 3.6.4c.8 0 2.4.8 3.5 1.6 1.7 1.3 1.1 1.4-6.1 1.2-6.3-.2-8.3-.6-9.3-2-.7-.9-2.6-1.7-4.2-1.7-1.5 0-5.7-.9-9.2-2s-8-2-10.1-2c-3.1 0-3.9-.4-4.7-2.5-.5-1.4-2-3-3.2-3.5q-3.1-1.3.7-.4zm53.8-1.2c3.6 1.3 7.1 3.7 5.2 3.7l-9-2.5c-7.2-2.2-7.6-2.4-4-2.4a26 26 0 0 1 7.8 1.2m147.9 2.9c-1 1-6.4 0-5.7-1.1.2-.4 1.8-.6 3.5-.3q3 .5 2.2 1.4m99.3-.2q.3 1-1.9 1c-2.2 0-2.8-.5-3.1-1q-.3-1 1.9-1c2.2 0 2.8.4 3.1 1m-322 2.6c5.1.6 5.7.8 3.8 1.7q-2.1 1-2.3 2.4c0 1-2.1 1.3-9 1.3l-9.7-.1c-1 0-.4-3.1.7-4.3s7.1-2.5 9-2zm204.6 4.3c1.5 5.1 1.8 5.5 6 6.6 2.4.7 6.3 1.9 8.5 2.8 5.8 2.1 14.4 2.3 35.9.8a72 72 0 0 1 32.7 3c1 .5 3 .9 4.5.9a8 8 0 0 1 4.5 1.7c1.2 1.1 3.8 1.8 6.6 1.9 6.2.2 6.2.2 6.2 1.9 0 1.1-1.2 1.5-4.8 1.5-2.6 0-5.3.5-6 1.2-1.8 1.8-1.5 8.7.4 9.5 2 .7 3.4-1.3 3.4-4.8q0-4 5.1-3.9 4-.2 1.6 11.6c-1.4 6.7-1.5 6.9-4.3 6.6a10 10 0 0 1-5-2.7 13 13 0 0 0-6-3.1 43 43 0 0 1-18.6-8.1 30 30 0 0 0-11.6-5.4c-2.6-.4-7.5-1.6-11-2.5a47 47 0 0 0-19.2-.8c-7.1.5-14.4.6-16.2.2l-12.3-2.5c-7.4-1.5-9-2.2-9.4-3.8-.2-1.1-1.2-3.2-2.2-4.7-2.1-2.8-2.5-5.8-.9-5.8q1-.1 1-1.4c0-2 5.9-6.8 7.9-6.4.9.2 2.2 2.5 3.2 5.7m87.3-.4q3 .6 1.7 1.4c-.7.5-1.1 1.9-.9 3.2.3 2.7 3 3.6 11.1 3.8 6.9.2 5.7 1.7-2 2.4-6.2.6-7.2.4-15.6-3.4a83 83 0 0 0-20.7-6.7c-2.2-.8-1.9-1 3-2.2 3-.7 6.8-1.9 8.4-2.5 2.6-1.1 3.6-1 7.5 1.1 2.5 1.3 5.9 2.6 7.5 2.9m-65.3.9c6.8.3 15.8 1 19.9 1.7s10 1.3 13 1.4 6.6.7 8 1.3c2.3 1 2 1.1-2.5 1.2-6.3.2-21.9.8-26.5 1.1-7.5.5-16.7-1-22.2-3.5a30 30 0 0 1-5.8-3l-.7-2.3c-.7-1.7-.6-1.7 1.8-.1 1.9 1.2 5.8 1.8 15 2.2m-42.7 2.8c7.9 14.8 7.3 14.3 18.4 16.3 5.3.9 10.6 2.3 11.7 3q3.3 1.9 19-.4c3.3-.5 8-.6 10.5-.1l4.5.7-4.1.2c-2.2 0-6.7 1-10 2.1a39 39 0 0 1-10.4 1.9c-5.8 0-17.9-2.2-20.7-3.7-1.2-.7-3.2-1.2-4.4-1.2s-4.7-1.1-7.8-2.4a60 60 0 0 0-9.6-3.2c-3.4-.8-4.3-1.6-6.2-5.4-2.5-4.9-3-9.6-1-10.3a16 16 0 0 1 4.8-.6c3-.1 3.8.4 5.3 3.1m-160.9-.2c2.2 1.1 4.4 2 5.1 2s1.9.9 2.9 2c1.7 1.8 1.7 2 0 2.6-.9.4-4-.3-6.9-1.5a31 31 0 0 0-8.8-2.1c-1.9 0-4.7-.6-6.2-1.4l-2.6-1.3 2.3-1.1c3.5-1.7 10-1.4 14.2.8m285.5 0c0 .5-1.6 1-3.5 1s-3.5-.5-3.5-1 1.6-1 3.5-1 3.5.4 3.5 1m21.7.4c.4.3-3.3.6-8 .6-5.2 0-8.7-.4-8.7-1 0-1.1 15.6-.7 16.7.4M217 760.2c2.5 2.7 9.3 4.9 12.9 4.2 1.4-.3 5.3.2 8.6 1.1l11.1 3c2.8.7 6 1.7 7.2 2.4 1.1.6 3.2 1.1 4.5 1.1 1.4 0 4.4 1.6 6.7 3.5s4.6 3.5 5.2 3.5c1.4 0 6.2 3.9 6.8 5.5.9 2.4 10.5 9.5 14 10.4 5.9 1.6 16 3.1 26.9 4.1 5.8.5 10.9 1.4 11.3 1.8s.6 2.1.2 3.7c-.7 2.7-.8 2.7-6.8 2.2-9.7-.9-12.9-1.8-15.9-4.3-4.6-3.9-15.1-6.4-26.5-6.4a67 67 0 0 1-27.1-4.9c-6.2-3.2-17.7-5.6-48-10.4-4.2-.7-7.6-1.8-7.9-2.5-.8-2.4-14.1-8.2-19.2-8.2-2.8-.1-9.3-2.8-7-3 11.7-.8 22 .1 24.7 2.3.7.5 3.7 1 6.5 1.1 4.1.1 6.1-.4 8.6-2.3q6.4-4.7-.8-8.3c-3.4-1.8-3.4-1.8-.8-1.8 1.5 0 3.6 1 4.8 2.2m-67-.2c1.3.8 1.2 1.1-.4 2.3-1.9 1.4-1.9 1.5.6 3.1 1.3.9 5.1 2.1 8.4 2.7 3.2.6 7.5 1.7 9.4 2.5a81 81 0 0 0 10.7 3c9.7 2 14.2 4 15.3 6.8.7 2 1.8 2.4 7.2 3 10.6 1.2 42.8 7.4 44.3 8.6a92 92 0 0 0 37.1 7.5c10.6.5 24.9 4.3 24.9 6.5 0 1.7-5.8 1.7-46 .4l-20-.6-7-3.8a25 25 0 0 0-15-3.9q-8-.3-12.4-2.2c-2.4-1-5-1.9-5.7-1.9a22 22 0 0 1-6.3-3.5 115 115 0 0 0-24.6-11.9c-3.3-.8-22.3-4.2-32.5-5.7q-6.4-1-9.3.1c-1.6.5-3.3.7-3.7.5q-.8-.4-1.5.5c-.3.5-1.6 1-2.7 1-3.5 0-15.9 4-19.7 6.4-2 1.2-8.9 4.4-15.4 7.1a100 100 0 0 0-14.1 6.6 19 19 0 0 1-8.2 2.2L43 799c-19 1.6-22 1.4-22-1.1 0-.6 2.4-.9 5.3-.9 4.6.1 8.9-.3 27.2-2.9 5.5-.8 17.3-6.4 18.1-8.6.8-1.9 7.8-4.5 12.2-4.4l3.7.1-3.1 1.3c-3.4 1.5-6 4.2-5 5.2.3.3 1.4 0 2.3-.9 1-.8 3.8-2.3 6.3-3.3 5.4-2.3 6.5-3.1 6.5-5.2q.1-1.5 1.3-2t.6 1.1c-1 2.7 2.7 1.9 8.1-1.8a74 74 0 0 1 33.4-14.5c3.5-.6 6.6-1.3 6.9-1.6.8-.8 3.5-.6 5.2.5m152.6 3.8c1 2.6 3.5 6.5 5.6 8.7 3.3 3.4 3.6 4 2 4.3-3 .5-12.6-3.6-15.5-6.6a14 14 0 0 1-3.3-6.9l-.6-4.2 5 .1h5.1zm12.8-.6c.3 1.3.4 3.4.3 4.7q-.4 5.4 13 7.7c20.1 3.3 24.3 4.5 24.3 6.6 0 1.9-30.4-3.7-36.5-6.7-2.8-1.5-3-1.9-3.2-8-.2-6.2 1.2-8.9 2.1-4.3m-106.7 1.2q.4.5-.2 1.6t-6.3.4c-6.5-.7-6.7-.8-5.7-2.5.7-1.1 11-.7 12.2.5m-39.7.6q1.9 1.1-.7 1c-1.2 0-2.5-.5-2.8-1-.8-1.3 1.5-1.3 3.5 0m97.5 1.1 8 4.5a112 112 0 0 1 16.2 9.5 51 51 0 0 0 19.8 8.3l14.2 3.2c3.4.8 9.9 1.4 14.5 1.4s9.9.5 11.8 1l27 7.1a30 30 0 0 0 15.1-.2c5.1-2.7 24.3-.2 32.9 4.2 3.4 1.7 2.5 1.7-33.6 1.3-30.4-.3-37.9-.7-40.8-1.9-2.1-.9-5.1-1.8-6.9-2.2-1.8-.3-3.9-1.2-4.7-1.9-2.6-2.2-9-4.1-16.5-4.8-3.8-.4-9.8-1.4-13.3-2.2a56 56 0 0 0-9.7-1.4c-2.5 0-4.7-1.1-8.7-4.5l-13.5-11.4c-4.8-4-9.6-7.2-11.5-7.6-1.8-.4-4.4-1.2-5.8-1.7q-2.9-.9-1-1.8c2.2-1.4 3.2-1.2 6.5 1.1m214.2 2c-1.6.9-9.4.6-10.4-.4-.3-.4 2.2-.6 5.6-.5 3.6.1 5.6.5 4.8.9m6 .5q-.6.5-1.9.1-1.1-.5.6-.6t1.3.5m11.3 6c0 2.2-.3 2.2-7.7 1.8-24.5-1.4-25.7-1.6-23.6-3.7.3-.4 7.5-.6 16-.5 15.1.2 15.3.3 15.3 2.4m-196 4.9c1.6.8 4.2 1.5 5.9 1.5 1.6 0 5.1.9 7.7 2s7.9 2.9 11.8 4c11.5 3.1 4.1 2.3-9.1-1-11.5-2.9-22.6-7.1-23.8-9.1-.7-1 2.8.2 7.5 2.6m-148.7 2.8c5.2 2.5 9.9 5.1 10.3 6 .5.8 2.9 2.4 5.2 3.6 5.8 3 4.8 3.7-1.7 1.2a91 91 0 0 0-37.5-7.3 71 71 0 0 0-17.1 1.2 24 24 0 0 0-10.5 9.7c-.7 1.6-2.2 2.4-6.7 3.2-3.2.6-9.4 2.2-13.8 3.6a29 29 0 0 1-15.1 1.9c-6.7-.6-7.3-.5-8.3 1.5-1.1 1.9-2 2.1-9.4 2-4.5-.1-9.3-.4-10.7-.8l-2.5-.7 2.2-1.2c1.2-.7 4.6-1.2 7.5-1.1a107 107 0 0 0 26.3-3.2 39 39 0 0 0 7-4.4 61 61 0 0 1 11-6c3.9-1.5 9.7-4.3 13-6a60 60 0 0 1 33.2-8c7.3.3 9.3.9 17.6 4.8m264.8-2.1c4.4 2.4 7.3 4.8 6.5 5.5-.4.4-1.6.2-2.6-.5a35 35 0 0 0-15-4.2q-4.8 0-3-1c2.1-1.4 11.3-1.2 14.1.2m-25.6 2.3c-5.5 1.9-9 1.8-5 0 1.7-.8 4.4-1.4 6-1.4 2.9.1 2.8.2-1 1.4m-209.1 7c3.2 1.6 7.5 4.4 9.5 6.3 4 3.9 7.3 4.8 21.6 6 5 .5 9.8 1.3 10.9 1.8 2.7 1.6-9 2.5-18.4 1.4-20.9-2.4-24-3.5-24-8.5 0-2.6-4.1-6.5-9.3-8.8-4.7-2.1-4.1-4.3.6-2.3 1.8.7 5.8 2.6 9.1 4.1m-35.2 3.9a69 69 0 0 1 14.3 5.4c2.5 2 4.2 2.5 10.9 3.6 8 1.4 3.2 3.6-7.9 3.6l-39 .3c-16.5.2-31 .6-32.2 1.1q-2.2.8-2.3-.1c0-1 8.6-3.3 12.4-3.3 2.5 0 7.6-5 9.4-9.2 1.1-2.7 2.2-3.1 10.7-4.1 8-1 12.8-.5 23.7 2.7M383 797q0 .9-1 1a1 1 0 0 1-1-1q.1-1 1-1t1 1m-370.4 2.5c-2.1 1.6-11.7 2.1-10.1.6 1.1-1 4.5-1.8 9-1.9 2.8-.1 2.9-.1 1.1 1.3m2.4 6.7c0 .9-.2.9-4.5 1.4l-5 .7c-2.1.5-4.5-.9-4.5-2.5 0-.5 3-.8 7-.6 3.8.2 7 .6 7 1"/><path d="M402.7 103.1q1.2 1.1 1.8.7.4-.6-1.2-1.2-2-1-.6.5M259.5 191q.7 1 1.6.5 2-1.4-.7-1.5-1.3.1-.9 1m26.8 10.5c-1 1-.9 1.6.4 2.7q2 1.8 1-.4-.6-1.7 1.1-2.7 2-1.1.2-1c-.8 0-2 .6-2.7 1.4m-71.4 15.6q-1.2 2.2 0 1.5 1-.6 1.1 1.1c.1 1.7.6 2.5 1.3 3.2q1.5 1.4-.7.9c-1-.1-2.1.2-2.3.8q-.3 1.1 2.4.6c2.6-.5 2.7-.4 1.3 1.3q-2 2.2 0 1.3c.8-.2 1.5-1.1 1.5-1.9.1-2.2 1.5-4 2.7-3.3q1 .6.5-.3c-.4-.6-1.8-.9-3.1-.8q-2.5.3-1.9-1c.2-.8 1.1-1.1 1.9-.8q1.3.4 1.4-.7-.2-1-1.7-.9-4.4.6-2.3-1.6 1.2-1.5.2-1.5c-.6 0-1.6 1-2.3 2.1m9.1.9q.1.9 1.1 1 .8-.1.4-1-.6-1-1.1-1-.3 0-.4 1m5 7q.1.9 1 1 1-.1 1-1t-1-1a1 1 0 0 0-1 1m-8 2.5q.1 1.4 1.5 1.5 1.3 0 .9-1.5-.7-1.4-1.5-1.5c-.8-.1-.9.7-.9 1.5m6 1.1q.1 1.3 1 .9 1-.6 1-1.6 0-.8-1-.9-.9.1-1 1.6m-10.4 4.9q.8 1.5 2.5 2.6 2 1.1 1.9-.5 0-1.5-1.5-1-1.4.5-1.5-1 0-1.5-1-1.6-.8.1-.4 1.5m62.9 1.2c.1 2.2 1.3 4.3 2.5 4.3q.7-.2.3-2-.7-2.3 1.2-1.4t1.3-.7c-.2-.8-1.6-1.5-3-1.7q-2.6-.4-2.3 1.5m2.3 35.4c-1.7.9-1.7 1.2-.2 3.4q1.5 2.2 2.6 1.9.8-.6-.3-2c-.9-1.1-.9-1.7.1-2.9 1.4-1.7.3-1.9-2.2-.4m4.2-.6c0 .2 1.3 1.1 2.9 1.9 2.6 1.4 3 1.4 3.5 0q.9-1.8-1.4-1.1c-1.1.3-2.3.1-2.6-.4-.5-.9-2.4-1.3-2.4-.4m6 4.5q-2 1.1.3 1 1.5-.1 1.7-1c0-1.2-.1-1.2-2 0m8 .4q.1.4 1.6 1 1.3.5.9-.4c-.6-1-2.5-1.4-2.5-.6m-11.3 1.3c-1 .9-.9 2.3.1 2.3q.8-.1.9-1.5.2-2.4-1-.8M307 216q.1.9 1.1 1 .8 0 .6.7-.3.8 1.7.8c1.9 0 2.1-.3 1.2-1.8-1.2-1.8-4.6-2.4-4.6-.7m-1.4 3.7q-1 2 .5.6 1.1-1.2.7-1.8-.6-.4-1.2 1.2m-2.1 78.3c-.4.6-.3 1.6.3 2.2q1 1 1.7-.2t-.3-2.2-1.7.2m-18 44q.6.9 1.1 1 .4-.1.4-1-.1-1-1.1-1-.8 0-.4 1m-3.5 5q.1.9 1.1 1 .8-.1.4-1-.6-1-1.1-1-.4 0-.4 1m-2 4.9q.1 1 1 1.6 1 .5 1-.4a2 2 0 0 0-1-1.6q-.9-.5-1 .4m10.2 2c-2.2 1.8-3.1 3.8-1.3 2.6q.9-.4 1.6.5 1.3 2.3 3.2-.9c1.9-3-.7-4.7-3.5-2.2m-22.7 5.1q-.4.9.9 1 1.5-.1 1.6-1 0-1-.9-1t-1.6 1m-8.5.8c0 .5.6 1.5 1.4 2.1q1.6 1.5 1.2-.5c-.3-1.9-2.6-3.3-2.6-1.6m19 1.7q-2.8 1.5-.7 1.5 1.5 0 1.7 1.2 0 1.2 1.7-.5c2.4-2.4.5-4-2.7-2.2m-12.4.8q.6 1.6 1.2 1.2.4-.6-.7-1.8-1.5-1.4-.5.6m-43.9 24.4q-.6.6-.7 1.7 0 .9 1.2-.2 1-1 .7-1.7-.6-.4-1.2.2m19.3 1.8q-1 1.4-.2 1.5.9-.1 1.6-1.5.5-1.4.2-1.5c-.3-.1-.9.7-1.6 1.5m.7 3.2q-.6.6.4 1.9c.8 1 1.6 1 3.5.2 1.3-.6 2.4-1.6 2.4-2.1s-.6-.5-1.3.2q-1.4 1-2 .4t-.7.6c-.1 1.1-.5.9-1 .6q-1-.7-.5-1.6c.7-1 .1-1.2-.8-.2m15.8 2.3q-.4.9.4 1 1-.1 1.1-1 0-1-.4-1t-1.1 1m4.5 8.1q.1.8 1 .4 1-.6 1-1.1 0-.4-1-.4-.9.1-1 1.1m5 .4q1.2 1.4 2.2 1.5.9-.1-.2-1.5c-1.1-1.4-1.7-1.5-2.2-1.5q-.9.1.2 1.5m-6.7 4.2c-1.8.6-1.6 2.3.1 2.3s3-1.6 1.9-2.3q-1-.3-2 0m2.2 10.4q.5 1-1.1 2.3t-1 3.2c.6 1.6.9 1.5 2.6-1 1.8-2.8 1.7-5.6-.2-5.6q-.7.1-.3 1.1m-24 5.9q-.4.9.4 1 1-.1 1.1-1 0-1-.4-1-.6 0-1.1 1m29.9.5q-.6 1.5-1.8.6c-1.2-.9-1.1-.1-1.2 2q-.3 3.9 4 3 1 0 1.7 1.1.9 1.4.9-1.5c0-3-1.4-3.6-2.8-1.1-.8 1.5-1 1.5-1.5 0q-.6-1.5.5-1.3 1 0 1.3-2.1.2-3.9-1.1-.7m-39.8 4.2q-1 2 .5.6 1.1-1.2.7-1.8-.6-.4-1.2 1.2M265 432q-1.4 1-.3 1c.6 0 1.5-.5 1.8-1q1.3-1.8-1.5 0m-26.4 1.5q.7 1.3 1.5.9c1.1-.6.2-2.4-1.1-2.4q-.8.1-.4 1.5m23.6 1.1c1.4 1.4 2.1 1.5 3 .6q1.3-1.2.1-1.2c-.6 0-2-.3-3-.6-1.7-.7-1.7-.6-.1 1.2m-36 2.6q-2.4 2.3.2 3.1c2.1.8 4-1.7 2.3-3.1q-1.4-1.3-2.5 0m-.6 7.3q-.5 1.5 1.2 1.5c1 0 2.3.5 3 1.2q1.3 1.3 1.2 0 0-1.1-1-1.2t-1-1.5c-.1-1.4-.6-1.5-1.4-1.5q-1.3.1-2 1.5m39.2-.8q1.3.4 1.9-.1t-1.3-.5q-1.7 0-.6.6m-30.3 4.4q-.6 1-.2 1.5t1-1.1c.7-1.7.1-2-.8-.4m7.1-.1c-1.9.6-1.9.7-.1 1.3q3 1.2 2.4-1.1c-.2-.5-1.3-.6-2.3-.2M223 411.9q-1 2-.1 2.1c1 0 2.4-3 1.7-3.7q-.4-.2-1.6 1.6m100 12.3c0 .9.5 2 1 2.3 1.3.8 1.3-.5 0-2.5q-1.1-2-1 .2m-3 20q0 .7.9.8a2 2 0 0 0 1.5-.8q.4-.8-.9-.9c-1.3-.1-1.5.4-1.5.9M175.3 550.7l-2.9 7.8c-2.8 7-1.7 9.8 1.9 5.3 2.6-3.2 6.1-12.4 5.2-13.8-1-1.6-3.5-1.1-4.2.7m29.8 2.2c-2.6 1.7-.6 3.5 4.1 3.6 3.3 0 5.5.8 8 2.7 4.2 3.2 4.8 5.5 3.3 12.9-2 10.2-10.6 17.9-19.8 17.9-5.2 0-6.2.7-4.1 3.1 1.2 1.3 1.4 2.8.9 5.9-.7 4-.8 4.1-3.7 3.5-4.3-1-11.8 1.3-11.8 3.6 0 2.5 1.5 3.2 3 1.4 2.8-3.4 14-.2 15.5 4.5.3 1 .5 3.9.4 6.5-.3 5.6 1.2 7.5 3.4 4.2 3.2-4.8 2.5-10.8-1.6-15.4l-3.3-3.6 2.3-2.3a8 8 0 0 0 2.3-4.7c0-2 .6-2.6 3.6-3.2 4.4-.8 12.6-8.2 15.7-14s3-15.8-.2-20.3c-3.7-5.3-14-8.8-18-6.3M167.5 29.1c-1.3 2 3.2 5.1 5.6 3.9 2.1-1.2 2.6-4 .7-4-.7 0-2.3-.3-3.4-.6s-2.5 0-2.9.7m-29.3 7.4a12 12 0 0 1-4.1 2.5c-1.8 0-1.3 2.7.6 3.5 1.3.4 2.7-.5 5-3 1.8-2.1 3-4.1 2.7-4.6-.7-1.3-.9-1.2-4.2 1.6M210 35c-.8.5-2.8 1-4.3 1q-5.1.2.6 3.8c2.7 1.7 2.9 1.6 4.7-.8 3.1-3.9 2.5-6.3-1-4m21.4.4q-2 1.5-3.1.4c-.7-.5-1.9-.8-2.8-.6-1.5.3-1.4.6.5 3 2.7 3.5 4 3.5 7 .3 2.8-3 1.6-5.4-1.6-3.1m-105.1 8.7a18 18 0 0 1-3.4 2.3c-2.8 1.4-2.6 3 .4 3.4q2.4.4 4.1-2.4c1.9-2.7.9-5.3-1.1-3.3m109.9 1.1c-.6.6-2.6 1.2-4.4 1.2-3.2.1-5.4 2.6-2.2 2.6 1 0 2.6.8 3.7 1.7 1.8 1.7 2 1.6 4.7-1.7 1.6-1.9 2.6-3.8 2.4-4.2-.7-1.2-2.8-1-4.2.4m16.4-.5a4 4 0 0 1-2.3.8c-2.2 0-2.8 2.4-.8 3.1s6.5-1.5 6.5-3.3c0-1.4-2.2-1.8-3.4-.6M179 54.5c-.7.9-1.9 1.4-2.7 1.1-2-.8-2.8 2.3-1.1 4 1.2 1.2 1.8 1.1 4.6-1.4 1.8-1.6 3.2-3.4 3.2-4 0-1.7-2.5-1.5-4 .3m-44.5 11.4c-.3.6-2.2 1.8-4.1 2.6-4.2 1.7-4.4 3.5-.4 3.5l3.7.2c1.4.5 3.6-5.3 2.5-6.4q-1-1-1.7.1m17.9 3.5c-.9 1.5-2.3 2.5-3 2.2-1.9-.7-4.4.4-4.4 1.9 0 1.3 5.6 2.9 7.1 1.9a13 13 0 0 0 2.5-3.6c2.1-4.1.3-6.1-2.2-2.4m-11.8 51.8a10 10 0 0 0-2.8 4.3c-.4 2.7 2.8 3.2 3.7.6q.5-2.2 3.5-2.1c3.6 0 4.9-1.9 2.5-3.7-2.6-1.8-4-1.6-6.9.9m-23.6 4.5c-5.1.8-17.6 5.6-20.6 7.9-1.7 1.2-6.6 6.1-10.8 10.8a51 51 0 0 0-11.2 16.8 53 53 0 0 0 7.1 56.6c2.6 3.4 6.7 7.6 9.2 9.3 5.2 3.6 12.3 5.1 12.3 2.6 0-1.6-2-2.7-5.1-2.7-2.5 0-8.9-5.8-14.6-13.3a54 54 0 0 1-9.3-22.6 49 49 0 0 1 10.4-38.8c1.7-1.7 4.5-4.9 6.1-7.1 7.1-9.3 26.3-18.2 36.3-16.7 2.6.3 5.5.8 6.5 1.1 3.2 1 1.7-1.7-1.8-3.2-3.3-1.3-9-1.6-14.5-.7m-11.6 106.5c-.4.6.3 2 1.7 3.1 2.6 2.1 3.6.9 1.9-2.2q-1.9-3.5-3.6-.9M419 254.9c-6.2 2.3-9 3.9-12.2 6.9-3 2.8-3.4 4.2-1.7 5.9.8.8 2.2-.1 5.2-3.1a26 26 0 0 1 22.5-7.1c11.7 1.2 18.1 7.6 20.1 20.1.9 6.2.8 7.3-1 11.2a14 14 0 0 1-5.8 6.2c-5 2.6-9.1 6.7-9.1 9 0 2.8 3.6 2.6 5.5-.4 1.9-2.8 8.8-6.5 13.5-7.1 6.5-.9 15 .6 18 3.1 1.6 1.4 4.1 2.4 5.9 2.4 5.5 0 9 2.6 11.7 8.6a27 27 0 0 1 1.3 18.4l-1.4 5.1c-.2 1-1.6 3.6-3 6a23 23 0 0 0-2.9 5.7c-.2.8-2.1 2.2-4.4 3.1s-5 2.4-5.9 3.4c-1.6 1.5-1.6 1.8-.2 3.3s1.7 1.3 3.1-.8c2.3-3.5 8.9-5.4 13.9-4.1 2.2.6 4.2.7 4.5.2.8-1.4-4.5-4.2-7.1-3.7-3.1.6-3.1.4.3-4.1 6.1-7.7 7.5-12.3 7-22.6-.3-8.2-.7-9.9-3.4-14.1-3-4.9-9.1-9.3-12.9-9.4-1.1 0-4.2-1.2-7-2.6-3.9-2-6.2-2.5-10.5-2.2l-5.5.3.2-4.8c.3-5.1-2.5-17.5-5.1-22.5-2.1-4.1-9.2-10-13.5-11.2-5.3-1.5-15-1.1-20.1.9m48.9 110.8c-1.5 3.9.5 9.9 4.3 13.5 2.8 2.6 5.8 3.7 5.8 2.2 0-.4-1.6-2.4-3.5-4.5-3.5-3.9-4.7-9-2.5-10.4 1.8-1.1 1.1-3.5-1-3.5q-2 0-3.1 2.7m10.8 20.7c-7.6 2.1-12.9 8.4-12 14.3.6 3.7 2.3 4.5 2.3 1.2 0-6.3 8.3-13.2 15.9-13.3 5.3-.1 12.2 2.9 12.9 5.6.7 2.8 2.2 2.1 2.2-1 0-2.3-.8-3.1-4.8-5a21 21 0 0 0-16.5-1.8m-18.6 23.2c-2.5 3.1-2.8 9.2-.7 13.2 2.2 4.3 5.7 6.9 11.7 8.9 3.1 1.1 7.1 3.2 9 4.7 3 2.6 3.8 2.8 8.6 2.2 3-.3 5.4-.2 5.8.4.3.5 1.6.8 2.8.6q2.3-.2 2.5-3.3c.3-2.8.1-3-3-2.8a38 38 0 0 0-7.4 1.4c-6.8 2.2-10.9-1.3-6.3-5.3q2.3-1.8 1-2.9-1-1.3-4 .6a13 13 0 0 1-16.6-3.9c-2.5-3.7-2.3-10.8.5-13.1q3.7-3.3.1-3.3c-1.1 0-2.9 1.2-4 2.6m-5.1 31.9q.1 1.4 1.5 1.5c1.4.1 1.5-.7 1.5-1.5s-.7-1.5-1.5-1.5-1.5.7-1.5 1.5m-9 3.1a28 28 0 0 0-10.5 23.9c.9 7.1 2.9 6.7 3.2-.6.2-3 .5-6.8.8-8.6a29 29 0 0 1 10.6-13.6c1.6-1.1 2.9-2.3 2.9-2.8 0-1.8-3.9-.8-7 1.7M51.8 701.9c-2.9 2.6-3.1 3-1.5 3.7 2 .7 8.1-4.2 7.1-5.8-.9-1.4-2.3-.9-5.6 2.1m423.5 82.7c-1.7.7-1.6 3.6.1 5.9 1.2 1.7 1.7 1.8 4.1.7 2.1-1 2.6-1.8 2.3-4-.2-2.1-.9-2.7-2.8-2.9-1.4-.1-3.1.1-3.7.3m-29.1 45.9c-8 3.5-5 15.5 3.9 15.5 1.7 0 4.1 1.1 6 2.8 2.7 2.4 3.1 3.2 2.4 6.1q-1.4 5.8-9.1 4.5c-3.1-.6-3.4-.9-3.4-4.1 0-3-.3-3.4-2.2-3.1-1.7.2-2.4 1.3-3 4.2-.5 2.2-1.5 4.7-2.3 5.6q-1.4 1.5-1.5 2.2c0 .3 4.6.6 10.2.7s10.5.4 10.9.7c1.5.9 4.9-1.6 6.9-4.9 3.7-6 2.1-12.9-4.1-18.1-2.7-2.3-3.8-2.6-7.3-2.1q-8 1.2-5.6-5c.9-2.5 1.4-2.7 4.6-2.2 2 .4 4.4 1.3 5.4 2.2 3 2.7 5 1.9 5-2V830h-5.4c-3 0-6-.2-6.8-.5s-2.8.2-4.6 1m-334.2.3c-5.2.4-6.4 1-5.2 2.5.6.7 1.1 7.7 1.1 16.6.1 9.8.6 16 1.3 16.8.8 1 3.7 1.3 11.2 1.1l10.1-.3.3-5.4c.2-3-.1-5.8-.7-6.4-1.6-1.6-4.1 1.1-4.1 4.5s-1.7 4.3-6.5 3.4l-3.5-.7v-6.4c0-5.8.2-6.5 2-6.5 1 0 2.4.9 3 2.1 1.6 2.8 3.3 1.9 4.1-2.1 1.2-5.7-2.1-9.1-5.1-5.5-.7.8-1.9 1.5-2.7 1.5-1.1 0-1.3-1.3-1.1-5.8l.3-5.7 4.3-.3c3.7-.3 4.4 0 4.9 1.7 1.1 4.1 5.3 1.2 5.3-3.6 0-1.6-.9-1.9-7.7-1.8-4.3 0-9.4.1-11.3.3m170.6.1c-6 .7-6.9 2.4-2 3.7 3.7.9 3.8 1.1 6.6 10.4 4.4 14.6 5.8 17.9 8 19.1 2.7 1.5 4.7-.6 9.1-9.5l3.4-6.8 5 8.3c7.2 12.1 7.9 12 13.8-3.3l5.7-14.9c.5-1.5 2-3.1 3.4-3.7q5.4-2.6-2.1-3.5c-6.4-.9-7-.4-7.1 5.6-.1 4.7-4 15.4-5.8 16-.3.1-2.4-3-4.7-6.8-3.8-6.5-4-7.2-2.7-9.5.7-1.4 2.4-3 3.6-3.6 1.9-.9.3-1.2-8.5-1.7-5.9-.3-11.2-.3-11.6 0s.4 1.4 1.8 2.5c2.7 2.1 5.5 6.8 5.5 9.2 0 2.1-4.2 11.6-5.1 11.6-.3 0-1.4-2.6-2.2-5.8q-5.2-19-8.7-18zm67.7 0c-7.6 1.3-12.2 8.1-12.3 18.3 0 5.2.3 6.2 3.6 9.7 4.2 4.7 11 7.6 15.5 6.7 4-.8 11.9-6.5 13-9.4q2-5.4-.7-13.8c-2-5.9-3.7-8-8.6-10.5-4-2-4-2-10.5-1m8.6 6.4c2.3 1.1 2.6 1.9 2.9 6.9.4 7.9-1.8 15-5 16.2q-8.8 3.2-10.5-10.4c-.4-3.5 0-5.9 1.7-9.9 2.2-5 2.5-5.3 5.3-4.7 1.6.3 4.1 1.2 5.6 1.9m14.5-6.2q-.5 1.1.6 1.9c1.7 1 2.5 26.7.9 28.6-1.4 1.7.3 2.5 4 1.8 4.2-.9 5.1-2.9 5.1-11.3 0-9.9 2.3-9.4 5.6 1.1q3 9.8 10.2 11.1c3.7.8 4.3-1 1.3-3.7-2.5-2.2-4.7-7-5.9-12.3-.8-3.4-.7-4.5.7-6 1-1 2.6-3.1 3.5-4.5 1.7-2.7 1.7-2.8-.8-5.3-2.4-2.4-3.1-2.5-13.5-2.5-7 0-11.2.4-11.7 1.1m16.4 6.6c.3 3.5 0 4.2-1.8 4.8-2.7.8-5-1.1-5-4 0-4.2 1.1-5.6 3.9-5.3 2.3.3 2.6.8 2.9 4.5m17.2-6.9q.1 1 1.1 1.4c1.8.6 1.5 28.8-.2 29.9-4.9 3.2 11.9 3.6 19.6.5q8.4-3.5 9.3-14.5c.9-12.2-4.8-17-21-17.8-5.5-.3-8.8-.1-8.8.5m14.3 5.8c4 .9 5.7 4 5.7 10.3 0 9.1-6 16.8-11.5 14.7-1.2-.4-1.5-2.8-1.5-12.9 0-6.8.3-12.7.7-13s1.4-.5 2.2-.3zM7.2 849l.3 17.5 5.3-.1c6-.2 7-.7 5.3-2.8-.7-.8-1.1-3.7-.9-6.8l.3-5.3 4.3-.6c7.6-1 13.5-7.5 11.6-12.7-1.7-4.8-5-6.1-16.2-6.4L7 831.5zm15.2-13.4c2.2 2.1 2 6.7-.3 9.5-3.8 4.7-6.1-1.6-3.5-9.9q.8-2.4 3.8.4M261 832q-17.2 2.4-12 13c2.2 4.3 4.7 6.1 10 7 3.4.5 3.5.7 3.5 5 0 4.5 0 4.5-3.8 4.8-4.6.4-7.1-1.5-8.8-6.5-.8-2.7-1.6-3.3-3.2-3.1-1.9.3-2.3 1.2-2.8 6.3-.8 7-.5 7.9 2.7 7.1q2.3-.6 5.6 1.4c4.3 2.6 10.1 2.5 15.8-.3 5-2.5 6-4.9 4.9-11.2a13 13 0 0 0-12.4-10.5c-5.1 0-6.1-1.2-4.6-5.3.9-2.2 1.7-2.7 4.5-2.7 1.8 0 3.9.7 4.6 1.5s2.3 1.5 3.7 1.5c2.2 0 2.4-.3 2.1-4.3-.3-4.8-.8-4.9-9.8-3.7m-221 1q.1.9 1.4 1 1.4 0 2 .8c.5.9-3.4 15.4-6.3 23.2-3.3 9-2.7 10.6 3.4 9.4q3.9-.6 2.5-1.9c-.8-.9-.6-3.2.6-7.9 1.6-6.5 1.7-6.6 5-6.6 3.8 0 4 .2 6.9 8.9l2.2 6.6 6.3.3c3.5.2 6.8-.2 7.3-.7q1.2-1.2-1.5-1.1c-1.4 0-3-.6-3.6-1.3-1.5-1.8-6.8-15.4-8.7-22.2-2.4-8.5-3.5-9.5-11.2-9.5-3.5 0-6.3.4-6.3 1m10.1 14.3c-1.9 1.9-3.4-.7-2.5-4.5l.7-3.3 1.4 3.4q1.5 3.5.4 4.4m26.8-12.8c-6.8 4.4-8.6 12.6-4.8 21.4 2.8 6.6 9 10.1 17.7 10.1 3.3 0 6.6-.2 7.4-.5 1.5-.6 1.6-10.1.1-11.5-.4-.5-3.3-1-6.3-1.2-5.2-.3-5.5-.2-5.2 1.9.6 4.2-2.6 2.5-4.4-2.3-1.7-4.5-1.7-4.9.2-10.3 1.8-5.3 2.1-5.6 5.7-5.9 3.1-.3 3.7 0 3.7 1.5 0 2.1 1.8 4.3 3.6 4.3 1.6 0 2.6-7 1.2-8.7q-1-1.3-8.2-1.2c-5.7 0-7.8.5-10.7 2.4m110.2 1.1c-2.1 1.5-2.3 2.2-1.6 6.8.3 2.8 1.1 5.6 1.7 6.3s1 3.8 1 6.7c0 6.2-2 9.9-6.3 12.2q-4.9 2.4-1.3 5.8c2.4 2.4 4.3 1.9 8-2.1 4.1-4.5 6.8-12.1 6-16.9-.6-2.8-.4-3.5 1.1-4l4.3-1.6c2.4-.9 2.4-1 .6-2.3-1.1-.8-3-1.2-4.6-.8-2.4.4-3.1.1-4.5-2.7q-3-5.5 1.5-3 4.3 2.5 1.9-2.9-2.4-5.2-7.8-1.5"/><path d="M168.5 849.1c-5 2.9-6 8.1-2.1 12 7.1 7.2 9.3 8.2 12.8 5.5 2-1.5 3.8-5.8 3.8-9.1 0-5.9-9.4-11.3-14.5-8.4m8.6 4.6c1.9 4.9-2.2 10.1-5.7 7.2-1.1-.9-1.4-2.2-.9-4.8.9-4.6 1.2-5.1 3.6-5.1q1.9 0 3 2.7m303.2 6.9c-.6 1.7.9 5.1 2.1 4.6l3.2-.2c2.2 0 2.5-.4 2.2-2.8-.2-2.2-.8-2.8-3.6-3q-3.3-.3-3.9 1.4"/></svg>