<svg xmlns="http://www.w3.org/2000/svg" width="666.7" height="1170.7" viewBox="0 0 500 878"><path d="M85.4 1.7c.3 1 1.7 7.6 3.1 14.8l3.2 15.2c.5 2-.4 2.7-8 6.2-6.8 3.2-9.1 4.7-11 7.8-3.3 5.1-4.7 6.2-12 8.8-5.9 2.2-6.2 2.4-6.7 6.1q-.5 3.8-2.5 4.9c-1.2.5-4.4 2.5-7.1 4.2-7.4 4.8-10.2 4.2-4.5-1q3-2.5 2.4-4.6-.5-1.9 2.1-3.6c5.7-3.7 3.5-9.5-3.5-9.5-4.8 0-13.9 4.8-19.5 10.2-3.6 3.5-4.4 3.8-6.3 2.9-1.7-1-3-.8-6.4.8-4.8 2.2-9.3 5.9-8.4 6.7.3.4 2.1-.3 4-1.5q5.8-3.5 8.4-1c1.4 1.4 8.5-2.6 12.8-7.2A33 33 0 0 1 40.1 54a4 4 0 0 1 2.8 1.4c.9 1.1.6 1.8-1.9 3.6-1.7 1.2-3 3-3 4.2 0 1.1-1.4 3.6-3.1 5.5-6.5 7.5-1.4 10.6 8.7 5.2 3.2-1.8 7.5-4 9.5-5 4.2-2.1 6.3-4.4 5.4-5.9-1.5-2.4.7-4.9 5.8-6.6 6.6-2.2 10-4.7 12.4-9.1 1.4-2.7 3.3-4.2 8.1-6.4 3.5-1.6 6.7-2.7 7.1-2.4 1.8 1 6.1 20.5 7.7 34 .3 2.7 1.4 8.6 2.4 13 2.5 10.9 3.1 16.2 1.6 17.3a36 36 0 0 1-12.3 4.9c-.3-.4-.1-1.8.5-3.2q3-6.6-9.6.7a82 82 0 0 1-21.7 9.3c-4.7 1.3-7 2.8-10.7 6.6q-11.7 11.9 5.8 5c7.7-3 13.4-4 13.4-2.3 0 .5-1.8 1.7-4 2.7q-7.4 3.4-6.8 7.2.3 2-6 8c-3.9 3.8-6.2 6.8-6.2 8.2 0 1.6-1.2 2.7-4.7 4.2-9.3 4-34.6 20.8-35.8 23.8q-1.8 4.8 8 .8c7.4-3.1 12.3-3.5 13.2-1.1.8 2.2-1.9 4.5-11.2 9.5-4.4 2.3-9.1 5.1-10.4 6.1s-3 1.8-3.7 1.8q-1.3.1-1.4 1.6c0 2.1 2.9 1.1 11.5-4.1l11-6.3c5.1-2.5 8.8-6.5 8.3-8.8-.2-1-1.7-2.6-3.5-3.7-3.2-1.8-3.2-1.8-8.6.7-5.5 2.7-9.3 3.4-8.2 1.6a296 296 0 0 1 32.2-20.8c3.5-1.8 6.4-4 6.8-5.2.3-1.1 3.7-5.1 7.5-8.9q6.8-6.9 7.2-9.7c.2-2.2 1.1-3 4.3-4.1 2.2-.7 4.9-2.3 6-3.4 2-2 2-2 .1-3.5-2.6-1.9-4-1.8-13.5.9-5.8 1.7-8.1 2.1-8.1 1.2 0-1.9 3.9-4.1 12.6-7 4.3-1.4 10.3-4 13.2-5.6 5.1-2.9 5.4-2.9 5.9-1 .8 3.2 2.9 3.2 12 .1 4.8-1.7 9-2.7 9.4-2.3s1.5 4.6 2.4 9.3 2.8 12.5 4.2 17.5a54 54 0 0 1 1.5 26.6c-.4.3-4.5 1.3-9.2 2.2q-13.4 2.6-11.4 7.6c.3.9 1.3 4.3 2.1 7.6 2.5 9.9 5.6 11.5 14.9 7.5 5.6-2.4 6.4-1.8 6.4 5.1q0 4.7 2.5 9.3c1.4 2.6 2.5 5.6 2.5 6.6 0 2.2 6.7 6.1 11.5 6.7 4.5.5 5.5 1 6.4 3.5q.8 2.3-.7 6.5c-1.5 4.1-1.5 4.5.6 8.8 2.6 5.3 6.5 7.5 13.7 7.5 5.5 0 8.1-1.2 11.5-5.3l2.6-2.9 3.1 2.6c1.7 1.4 3.5 2.6 4 2.6s3.6 2.3 6.8 5.1a144 144 0 0 0 23.1 14.9c1.4 0 6.7 4.8 8.4 7.8 1.1 1.8 3.5 3.9 5.2 4.7 3.8 1.6 8.8 7.5 8.8 10.4 0 1.1.8 2.4 1.8 3q2.1 1 .2 1.4c-.8.2-3.7 1.1-6.4 2.1s-5.1 1.5-5.3 1.3.6-1.5 1.7-3c2.6-3.3 2.5-4.5-.6-5.7-4-1.6-6.9-1.2-16.2 1.9l-13.2 4.2c-2.5.7-8.5 2.8-13.5 4.7-13.7 5.2-18.2 6.2-19.7 4.4-1.1-1.2-.5-2.1 3-5.1 2.5-2.2 4.2-4.5 4.2-5.8s1.2-3 2.9-4.3c3.5-2.4 4.7-5.5 3.1-7.5s-5.7-1.8-10.5.5l-4.8 2c-.4 0-2.4 1.1-4.4 2.5-4.4 2.9-5.5 2.5-2.4-.9 1.3-1.4 2-2.9 1.7-3.5-1.2-1.9-7.1-2.3-11.1-.7-4.6 2-4.2 2-4.8-.5-.4-1.7-1.1-2-2.9-1.6A353 353 0 0 0 76 294.5 71 71 0 0 1 56.2 305c-3.2 0-3-4.9.3-8q4.6-4.4.4-7.1c-2-1.4-1.8-1.6 4.5-6.9q10.4-8.8 3.8-9.8c-4-.6-14.9 3.8-21.4 8.6-10 7.5-13.4 9.3-16 8.7-4.2-1-27.7 11.8-27.8 15.2 0 1.3 5.9-1.7 9.5-4.8a36 36 0 0 1 16.1-6.9c4.1 0 11.9-4 18.6-9.6a35 35 0 0 1 16.3-8.4c3.8 0 3.1 1.5-2.8 5.9l-8 6.2c-3.6 2.7-3.2 5.5.6 5.1 3.3-.4 3.4.4.3 3.7a11 11 0 0 0-2.8 6.6l-.3 4 5-.1c6.4 0 12.5-2.9 26.5-12.4 6.9-4.7 23.5-13 33.8-17l9.9-4.2c2.4-1.2 5.8-.4 4.8 1.2-1.3 2.1 2.8 2.2 6.5.1 3.6-2 8-2.8 8-1.4 0 .3-.8 1.5-1.7 2.5-1.3 1.5-1.5 2.3-.7 3.6 1.8 2.8 3.6 2.5 10.8-1.9 3.7-2.2 8.2-4.5 9.9-5 4.1-1.2 5.6.4 2.7 2.8-4.2 3.4-5 4.4-5.7 7.1-.3 1.5-2.7 4.6-5.2 6.9-4.5 4.2-4.5 4.3-2.6 5.8 3.2 2.5 9.9 1.6 25.5-3.5q30.3-10 36.1-10h3.3l-3.3 3.4c-6.3 6.5-2.3 9.3 8.3 5.6 8.6-2.9 9.6-2.7 13.9 3 2.8 3.8 5.3 5.7 11 8.5 4.1 1.9 8.1 3.5 9 3.5 2.4 0 3-1.8 1.3-4.2-2.2-3.1-2.1-5.2.2-4.3a22 22 0 0 0 15.9 1c5.1-1.8 5.5-1.8 11.5 0 3.5 1 8.6 3.1 11.4 4.7 2.8 1.5 5.8 2.8 6.7 2.8.8 0 2.4 1.5 3.6 3.2 7.7 12.2 10.6 15.1 16.4 16.9 2.1.7 4.8 2.6 6.3 4.6q2.4 3.3 6.9 4.4c2.5.6 4.5 1.6 4.5 2.2s-1.5 2.6-3.2 4.4c-2.7 2.8-3.1 3.6-2.1 5.2s.4 2.6-5.1 7.4c-3.4 3-8.9 6.8-12.1 8.5-5.1 2.5-6.8 2.9-11.2 2.5-4.7-.5-5.3-.8-5.3-2.9 0-3.4-1.4-3.7-6.9-1.7-2.8.9-5.4 1.4-5.8.9-.8-.8 3.5-4.5 5.3-4.6 2.2 0 6.4-4.2 6.4-6.4 0-1.2.7-3.2 1.6-4.5 2-2.8.6-4.8-2.3-3.3-1.1.6-5.4 2-9.7 3.1-5.9 1.6-8.2 2.7-10.2 5.1s-3.4 3-6.2 3c-3.5 0-8.8 2.5-11.9 5.6-.8.8-2.4 1.9-3.6 2.5q-2.3 1.1 1.1-2c3.8-3.6 5.2-6.8 5.2-11.9s2.1-7.7 7.7-9.1c5.2-1.4 10.6-5 12.4-8.3.7-1.2 1.8-4.4 2.5-7.1s2.2-5.6 3.4-6.4 1.8-1.9 1.5-2.4c-1.4-2.1-5-.7-8.9 3.5-3.8 4.1-4.5 4.4-10.8 5-3.7.4-8.8 1.5-11.4 2.6a24 24 0 0 1-7.5 2c-2.3 0-4.4 1.5-9.4 6.5a30 30 0 0 0-6.5 7.8c0 1.9-3 5.8-4.1 5.2-.5-.4-.1-2.2 1-4.3 1-2 2.2-5.1 2.5-6.8a11 11 0 0 1 2.7-5c2.1-1.9 2.5-4.4.7-4.4-4.1.1-10.5 2.5-15.9 6-3.4 2.2-6.8 4-7.5 4s-2.6 1.1-4.3 2.5c-2.4 2.1-4.7 2.8-11.5 3.5-7.8.9-14.6 3.1-18.8 6.2-2.7 1.9-3.2.2-.9-2.8 2.5-3.2 2.6-4.7.5-6.5-1.3-1-2-1-4.4.4-1.5.9-3.6 1.7-4.5 1.7-1.4 0-1.4-.3.4-2.6 2.7-3.4 3.6-8.6 2.1-11.5-1.2-2.1-.9-2.6 3.4-6.2 6.6-5.6 6.2-6.9-2.1-6.3-18.3 1.4-20.3 2.3-20.3 9.5 0 4.2-.4 5.1-4.5 8.9-2.5 2.3-5.3 4.2-6.3 4.2-1.1 0-2.7.8-3.6 1.9s-3.7 2.4-6.2 3.1-5.4 2.4-6.4 3.8c-2.4 2.9-2.6 9.5-.6 13.4q2.9 5.2-2.7 2.2c-3.7-2-8.5-1.3-13.5 1.8-6.4 4.1-20.7 9.8-21.1 8.6q-.3-1.2.7-1.6c2-.6 10.1-7.4 10.6-8.9.4-.9-.2-2.5-1.1-3.6-2.8-3.1-13.4-1.9-24.8 2.7-4.9 2-14 5.5-20.2 7.6-6.2 2.2-15.2 5.8-20 8.1-7.6 3.4-8.6 4.2-7.2 5.2 1.5 1.1 1.3 1.6-2.2 4.5-4.4 3.7-4.8 4.7-1.9 5.5 3.4.9 2.3 2.1-5.8 6.1C7.6 403.3 0 407.9 0 409.1a157 157 0 0 0 30.5-15.9q.5-1.6-.9-2.8c-2.5-1.8-1.9-2.8 2.6-4.9 3.4-1.6 4.2-2.5 4.1-4.2-.3-3 1.7-4.2 15.7-9.3l21.3-7.7c11-4 18.9-5.2 21.2-3.3q1.3 1.2 1.5 2c0 .4-2.7 2.4-6.1 4.5q-10 6.2-6.1 9.2c.9.7 2.6 1.3 3.8 1.3 2.7 0 15.2-5.7 21.8-9.9 9.5-6 10.3-3.1 1 3.4a99 99 0 0 1-30.5 15 34 34 0 0 0-18.2 10.4c-.6 1-4.3 3.5-8.2 5.6C44 407.6 33 415 32.9 416.4c-.1.6 0 1.9.1 2.9s-.8 3.3-2 5.2l-2.1 3.4 2.1 3.8c1.1 2.1 2 4.6 2 5.6q-.1 5.3 6.2 6.2c2.6.5 5.2 1.7 6.6 3.3 2.1 2.2 2.9 2.4 7.4 1.9l5-.6-.6 3.8c-.4 2.9-.1 4.4 1.2 6.2 1.6 1.9 2.3 2.1 4.9 1.2q2.9-1 4.7-.1c5.2 2.9 11.9 2.5 18.8-1.3 1.3-.7 2-.4 2.9 1.4a14 14 0 0 0 3.1 3.8c2 1.6 2 1.6-.6 6.1a41 41 0 0 0-3.7 10.3c-1 5.3-.9 6 .9 7.8 2 2 2 2 5.7-.2q6.5-3.8 16.2-.4c10.3 3.6 38.9 0 69.9-8.8 5.6-1.6 10.7-2.9 11.3-2.9.5 0 2.1 1.1 3.5 2.5s3.1 2.5 3.9 2.5c2.8 0 8.6 8.9 15 23.1 2.3 5.1 2.4 6.1 1.6 13.9-.4 4.6-1.6 9.9-2.5 11.6-1.6 2.9-1.6 3.9-.4 9.1q2 9.3.7 28.7c-.5 7.5-.8 8.2-6.3 16.9-9.6 14.8-10.6 16.1-17.9 22.8a83 83 0 0 1-24.2 16.8 100 100 0 0 0-24.3 15.5c-.8 1.1-4.9 5.6-9.2 9.9a75 75 0 0 0-9.4 10.9A337 337 0 0 1 86.8 696a31 31 0 0 0-6.8 6.2c0 2-7.7 4-15.1 4a36 36 0 0 0-21.4 5.2 12 12 0 0 1-5.1 2.6c-1.8 0-1.9.7 1.6-14l4.4-18.5c1.3-5.5 4.4-16.1 7-23.5 7-20.6 7.6-22.6 7.6-25.4 0-2 .6-2.7 2.8-3.2 5.8-1.4 7-5.5 2.8-9.2-2.9-2.4-2.5-4.9 1.5-12.1 2-3.4 2.9-4.1 5.5-4.1a7 7 0 0 0 4.8-1.9c1-1.1 2.8-2.1 4-2.3 2.6-.4 2.6-1.9 0-3.3-1.1-.6-3-2-4.2-3.3-1.9-1.9-2-2.3-.7-2.9q1.7-.4 4.3 1.9c1.5 1.3 4 3 5.5 3.6l2.8 1.2-2.8 2.4c-2.6 2.3-2.7 2.6-1.1 4.2q1.5 1.7 11.1 2.7c8.1.8 9.9.8 12.7-.7 1.8-.9 4.3-1.6 5.6-1.6 2.5 0 5.7-2.7 4.8-4.1-.3-.5-1.7-.8-3.2-.7-2.5.2-7.2-1.6-7.2-2.7q.1-.6 1.2-2.6c1.1-1.7 1-2.2-.7-3.5-1.1-.8-3.5-1.9-5.5-2.4-1.9-.6-4.6-1.9-5.9-2.9l-2.4-1.9 8.8-4.1c9.3-4.3 13.5-5 15.5-2.6.7.8 1.8 1.5 2.4 1.5s2 .9 2.9 2.1q1.8 2 3.5 1.4 5.7-2.2 12.6-.1c4.5 1.4 9.6.9 9.6-1 0-.3-2.3-2.9-5-5.7-5.3-5.4-5.9-6.7-3.5-8.7q1.5-1 .9-5.3-1.2-8.6 7.6-7.4c3.3.4 4.2.2 5.1-1.5q1-1.8.7-2.2a90 90 0 0 0-23.6-3.4l-11.2-.3.6-2.7c.9-3.5.9-3.5 3.3-2.2s6.5-.3 5.8-2.3c-.5-1.7-9.5-4.6-14.4-4.7-2.4 0-4.3-.4-4.3-.8 0-1.4 4.5-5.2 6.1-5.2s3.9-1.9 3.9-3.2c0-1.8-5.9-2.9-14.2-2.9l-8.8.1v-3.6c0-3.5 0-3.5 3.8-2.9 2 .3 5.6 1.1 7.9 1.7 5 1.2 10.5-.3 13.6-3.8 2.7-3.1 6.1-3.1 8.9.1 2.6 3 7.3 3.4 8.7.6 1.4-2.5-1.8-6.7-5.7-7.6-1.5-.3-3.2-1.5-3.7-2.8-1.3-2.9-5.3-3.5-16.6-2.7q-17.5 1.3-18.9 5.4c-.6 1.7-1.4 2-4.9 1.7-5-.3-5.5 1.6-1.1 4.2 2.8 1.7 2.9 2 1.5 4a10 10 0 0 0-1.5 4.8c0 2.3-.5 2.8-3.7 3.3a48 48 0 0 0-6.6 1.8c-2.2.8-3.1.8-4.5-.4-.9-.9-3-1.8-4.7-2.1-3.8-.7-14.7 1.5-15.2 3-.7 2 6.2 4.3 9.8 3.3 2.8-.8 3.4-.5 7.3 3.3 6.5 6.4 6.5 7.2-.1 10.3-5.6 2.5-8.6 5.1-7.6 6.7q.6.7 2.6.5 2.2-.4 3.1 2.3c1.2 3.6.2 5.9-2.7 5.9-3.6 0-3.9 1-1.2 4.2q4.2 5-.7 10.4a97 97 0 0 0-9.1 24.9c.2.6-.6 3.7-1.7 7a40 40 0 0 0-2 7.4c0 .8-1.2 2.5-2.7 3.8l-2.8 2.3 2.4 1.9c2.3 1.8 2.4 2.1 1 5.2-.7 1.9-1.4 5-1.5 6.9s-1.4 6.6-2.8 10.5a43 43 0 0 0-2.6 10.7c0 3.2-.3 3.7-3 4.3a9 9 0 0 0-3.6 1.6c-.9 1.5.6 4.9 2.1 4.9q1.3 0 1.9.9c.6.8-3.5 13.6-8.1 25.9a63 63 0 0 0-2.8 9 55 55 0 0 1-4.1 14.9 5 5 0 0 1-4.2 2.3A90 90 0 0 0 0 724.4c0 1.2 10.4-.2 14.5-2 3.9-1.6 9.1-1.9 10-.5q.6 1 3.6-.1c1.6-.6 4.3-.8 6-.4q6.1 1.1 9.9-5.1c1.1-1.9 3.5-4 5.3-4.8 4.2-1.7 19.4-2.8 20.3-1.4.3.6-2.9 4.4-7.2 8.6-7.4 7.2-8 7.5-13.9 8.4-7.3 1-14.2 3.8-16.9 6.8-1.1 1.1-2.4 2.1-3 2.1s-3.8 1.4-7.1 3-6.7 3-7.6 3-2.9 1-4.4 2.1a16 16 0 0 1-5.8 2.8q-3.2.6-3.5 2.8-.5 2.4 1.6 1.6c4.8-1.2 21.6 15.9 25.4 26 1.9 4.9 1.7 8.7-.4 8.7-.6 0-1.9.7-2.8 1.5-1.6 1.5-2 1.2-4.9-3.3a26 26 0 0 1-3.1-5.9q-.1-1-1.5-2.3c-2.4-2-1.9.8 1 5.5 4.4 7.1 2.9 8.2-2.1 1.6a25 25 0 0 0-5.5-6.1c-1.8 0-.8 2.6 2.6 6.9 4.4 5.5 4.7 9.6.9 11.3-2.4 1.1-2.9 1-4.8-1.5-2.2-2.8-4.6-3.6-4.6-1.6 0 .6 1.1 2 2.5 3.1 3.1 2.4 3.1 3.2.3 5.8l-2.2 2h3q3 0 8.9-4.5c3.3-2.5 7.4-4.9 9.2-5.4 5.5-1.6 10.3-5.9 10.3-9.4s5.9-9.7 9.3-9.7c1.2 0 3.9 1.1 6 2.5 2.9 2 4.1 2.4 5.6 1.5 1.1-.5 2.9-1 4-1 3.3 0 19-15 23.5-22.4a38 38 0 0 1 8-8.6l8-6.1a204 204 0 0 1 20.6-12.7c.8-.3 2.9-1.6 4.6-2.9a31 31 0 0 1 22.6-5.2 41 41 0 0 1 22.5 7.6 44 44 0 0 0 10.9 5.2c4.9 1.3 10.9 6.2 10.1 8.4-.5 1.4-5.8 1.3-13.5-.5-4.8-1-5.4-1-7.5.9a15 15 0 0 1-4.5 2.8c-2.5.7-2.9 3.6-.8 5.4a23 23 0 0 0 9.2 1.2c8.2.1 21.4 3 24.9 5.4 1.1.8 3.6 2.8 5.5 4.5l3.5 3.1-5.1-.5c-4.1-.5-5.6-.3-7.4 1.2l-2.4 1.9 2.2 1.8c2 1.8 12.1 6 16.8 7.2 1.7.4 2.8-.5 5.1-3.9 2.5-3.7 3.4-4.3 5.9-4 2.8.3 4.4.3 16.2 0 4.2-.1 8 .7 14.2 2.9 4.7 1.7 9.7 3.3 11.1 3.7 4.1.9 7.9 4.4 7.9 7.2 0 3 5 8.4 7.7 8.4 1 0 6.5 1.6 12.3 3.6a122 122 0 0 0 21.5 5 89 89 0 0 1 22.3 4.3c5.7 3 41.8 3.7 58.3 1.1 6.8-1.1 9.6-1.1 14-.1l14.9 2.7 15.1 2.4c3 .6 8.9 1 13 1.1 6.4.1 6.9.2 3.9 1-2.6.7-85.4.5-117.5-.3l-38.5 1c-20.6.6-44.5.9-53 .7-30.8-.7-240.7-.7-242.8-.1-1.2.4-2.2 1.4-2.2 2.2 0 1.2 32.9 1.4 246.8 1.3 135.7 0 248.2-.3 250-.6 2.7-.5 3.2-.9 3.2-3.4 0-2.4-.4-2.9-2.5-2.9-1.4 0-2.5-.5-2.5-1s1.1-1 2.5-1h2.5v-15.4c0-11.4-.3-15.6-1.2-15.9q-1.5-.6 0-.6c1.9-.1 1.4-4.9-.8-7.1-1.2-1.2-3.1-2-4.3-1.9-4.3.4-7.7-.1-7.7-1.1q.1-1 3.5-.4c2.8.5 3.5.3 3.5-1 0-1.2-.9-1.6-3.5-1.6-5.2 0-4.2-1.7 1.5-2.5 6.3-.9 6.5-2.3.3-2.7-6.1-.4-6.2-2.1-.3-2.9 4.5-.5 4-1.5-1-2.1-3-.4-3.4-3.1-.5-3.6 5.8-.8 6.5-1.3 6.5-3.7 0-2.9-2.3-4.3-8.2-5.1-5.4-.8-6.6.4-7 7.1l-.3 5-5.1 1.1c-6.1 1.3-7.4 2-7.4 3.9 0 1.5 2.1 2.2 7.4 2.7 5 .5 4.1 2.5-1.3 3.3-9.2 1.3-9.3 5.4-.2 6.3q5.1.4 5.1 1.8-.1 1.3-2.5 1.4c-4.1 0-34.8-2.9-39.6-3.8-5-.9-17.8-.7-22.7.3q-3.2.8-5.9-1a64 64 0 0 0-21.2-5.5q-3.5 0-15.6 5.9a48 48 0 0 1-23 7.2c-6 .6-22.2 1.3-36 1.5-29.1.4-23.8 1.5-60.2-12.5-13.2-5.1-18.6-6.1-22.5-4-1.5.8-2.8.7-5.1-.2-1.8-.8-4-1.2-5-1.1-1 .2-3.7-1.1-6-2.8l-7.4-5.1q-3.2-2-3.3-4c0-1.2-1.6-4.7-3.5-7.9-3.6-5.9-5.5-7.2-16.8-11.7-2.3-.9-6.5-3.2-9.4-5a80 80 0 0 0-10.5-5.4 33 33 0 0 1-5.7-2.5c-.2-.2 3.1-2 7.4-3.9 8.8-4 10.9-5.5 20.4-14.1A107 107 0 0 1 240 668c3.1-.4 7.7-1.7 10.1-2.8a177 177 0 0 1 24.3-8.2q2-.2.6 1.9c-.5 1.1-1 3.8-1 6 0 3.8-.3 4.2-4.2 6.2a119 119 0 0 0-25.8 26.6q-5.9 9.5 1.2 7.8c1.8-.4 4.7-2 6.5-3.5a90 90 0 0 1 20.8-11q1.3.2 2.5 1.5 1.4 1.4 5.6 1.5c2.4 0 6.9.7 10.1 1.5 10.5 2.7 20.3 1.3 20.3-2.9 0-.8.8-2.4 1.8-3.6 1.8-2.3 1.9-2.3 4.8-.4 1.6 1 4.1 2.8 5.6 4 3.6 2.9 14 4.1 17.3 2q4.4-2.8 5.4-9.5c.5-3 1.5-4 6.6-7 5-2.9 7.3-3.6 13.7-4.1q11.4-.7 9.4-3.9c-1-1.6-7.2-1.3-8.6.4-.7.8-2.3 1.5-3.7 1.5-3.6 0-11.4 1.9-14.6 3.6-2.4 1.4-2.8 1.4-3.3-.1-.9-2.2 1.4-4.5 4.5-4.5a33 33 0 0 0 7-1.3c5.7-1.8 3-3-3.7-1.7-6.9 1.3-7.9 0-6.2-8.2a32 32 0 0 1 9-17.9c3.4-3.6 4.4-4.1 6.9-3.6 1.7.4 3.3.2 3.6-.3.9-1.5 11.3-4.1 13.8-3.5 1.3.4 4.7-.1 7.6-1 3.6-1.2 6.9-1.6 11.4-1.2 6.4.6 8.5 1 24.7 4.5a152 152 0 0 0 60.1.3c3.1-.5 7.9-1.7 10.7-2.7l5.2-1.9v-9.2c0-8.6-.9-11.6-2.4-7.7q-.5 1.6-2.9 1-5.3-1.5-5.9 7.2c-.3 3.1-1.2 6-2.3 7.2-2.1 2.3-4.4 2.8-2.5.5.6-.8 1.2-3.6 1.3-6.2.2-4.3 0-4.8-1.8-4.5-6 1-7.6 1.6-8.5 3.2s-1.3 1.7-3.9.4l-2.8-1.4 1.9-6.8c3.4-11.8 3.5-12.1 7.8-35 1.2-6.2 1.3-6.3 4-5.7 3.3.7 5.3-1.7 4.3-5.3-.5-2.2 1-3.1 2.2-1.2 1 1.6 3.5 1.2 4.2-.6q.5-1.7-1.2-3c-1.8-1.3-1.8-1.5.7-4.1a41 41 0 0 0 5.2-8.4l2.6-5.6V384.8l-4-5.5c-2.2-3.1-4-6.6-4-7.7 0-1.3 1.6-3.3 4-5l4-3v-84.8c0-46.6-.3-84.8-.6-84.8s-5.3 2.3-11 5.1c-14.2 6.9-20.8 7.9-51.2 7.3-18-.3-24.1-.8-26.2-1.9-4.3-2.2-12.1-1.8-19.4.9l-6.4 2.4-3.8-4.1c-10.2-10.9-9.9-10.4-8.3-13.3a17 17 0 0 0 1.4-6.7c0-3.7.5-4.4 4.5-7.3l7.8-6c1.9-1.5 5-3.6 7-4.7s5.4-3.4 7.4-5.2q3.8-3.2 9.5-4.4c11.6-2.4 18.9-4.3 23.6-6.2 2.6-1 5.7-1.9 6.8-1.9 2.5 0 13.1-5.3 14.8-7.4q1.4-1.5 2.5-1.6c.7 0 4.3-1.5 8.2-3.3 3.8-1.9 8.5-4 10.4-4.7q8.8-3.4 9-7.6c0-1.8 1-2.9 4.3-4.4 4.4-2.2 10.2-9.3 9.3-11.5-.5-1.5-1.8-1.4-6.1.5a11 11 0 0 1-3.9 1.1 26 26 0 0 0-5.5 1.3c-5.8 1.8-14.9 2.8-15.6 1.6-.3-.4.9-3.4 2.6-6.6q3-5.8 2.4-8.1-.5-2.3 1.6-5.3c3-3.9 3.9-13.7 1.5-14.6-1.2-.5-3.2.9-6.9 4.7-19.8 20.3-28.2 26.8-38 29.3-1.5.3-3.9 1.7-5.5 3.1a50 50 0 0 1-13.2 9.7c-1.9.8-6.8 3.7-10.9 6.4-4 2.7-9.4 6.2-12 7.7a88 88 0 0 0-27.9 32.9c-1.1 2.7-2.2 3.9-4.2 4.3a8 8 0 0 0-6.2 6c-.2 1.4-1.5 2.1-4.8 2.7-5.1.9-6.6-.3-9-7.1-2.1-6-2.6-6.2-11.4-6-4.5 0-9.3-.4-10.7-.9-2.1-.8-3.1-.7-4.5.3a10 10 0 0 1-4.9 1.5c-1.6 0-8.2.9-14.5 1.9-13.5 2.3-14.2 2.9-13.6 11.3.5 6.6 1 6.2-10.4 7.3l-10.5 1.1-4 .6 5.5-3.4c6.3-3.8 7.2-6.8 3-10-2.3-1.7-2.9-1.7-8-.4l-7.4 2.2q-2 .8-1.4-.7a61 61 0 0 1 18.3-13.9c9.2-4.8 14.7-9.6 14.3-12.6q-.3-2.2 3-5.7c6.4-6.6 1.4-9.2-11-5.8-4.4 1.2-8.2 2-8.5 1.8-1.5-1.6 11.4-8.5 22.7-12.2 6.5-2.1 23.6-10.4 28.3-13.6l8.6-7.1c5.5-5.1 15.9-10.5 33.9-17.7 12.8-5.1 19.4-8.4 21.2-10.6 1.2-1.5 1.2-1.9-.5-3.1-1.8-1.4-1.8-1.4.1-2.9a7 7 0 0 1 3-1.5c.5 0 2.3-1.3 3.8-2.9 4.2-4.4 2.8-5.5-6.1-4.7-7.3.7-7.4.7-7.1-1.6.6-4 4.7-5.6 30.6-12.3 5.6-1.4 14.6-3 20-3.5 17-1.4 31.5-4 34.4-6.1 3.7-2.6 4.7-2.4 12.3 1.6 3.6 1.9 8.1 3.7 10.1 4.1 4.2.8 17.9-2.2 19.6-4.3q2.1-2.7-6.7.3c-7.4 2.5-11.6 2-20.5-2.1-9.8-4.6-16.3-5.3-16.8-1.8a3 3 0 0 1-2.5 2.7c-10.2 1.9-16 2.8-20.7 3.1a187 187 0 0 0-51.6 9.9c-6.6 2.1-8.7 3.3-10.8 6.1q-2.8 3.6-2.1 5.6c.7 2 1.3 2.1 7.1 1.6 3.5-.2 6.4-.1 6.4.3s-2.2 2.1-5 3.8q-7.2 4.5-4 6.7c2.2 1.4.7 3.4-3.7 5.1-7.7 2.8-23.2 9.3-28.8 12.1a76 76 0 0 0-19.9 12.2 115 115 0 0 1-42.6 21.6c-9.2 2.8-21 11-21 14.6 0 3 1.5 3 11-.1s14.4-3.8 13.8-1.9c-.2.6-1.7 1.8-3.3 2.7-10.8 5.9-12.6 8.2-6.4 8.2 4.8 0 3.1 1.8-7 7.6-5.2 3-12.5 7.9-16.3 11-7.5 6-10 9.6-8 11.6 1.2 1.2 1.7 1.1 15.5-3.8 3.8-1.3 5.1-1.4 6-.5q2.2 2.3-8.3 7.6c-5.4 2.7-7.7 6.6-5.4 8.9.8.8 2 1.3 2.7 1.1 14-4.6 27.4-6 30.9-3.3.9.8 2.1 5.3 3.2 12.3 1 6 2.4 12.9 3.2 15.2 1.8 5 1.3 6.3-2.5 6.3-1.6 0-4.6 1.2-6.7 2.6-3.4 2.3-4.5 2.6-9.3 2-6.3-.8-8.1-1.9-7.8-4.9.1-1.7-.4-2.3-2.4-2.5-1.4-.2-3.1.4-3.9 1.2-1.8 2.3-4.5 1.9-6.3-.8q-1.6-2.4-10.4-5.5c-4.8-1.8-9.2-3.6-9.8-4a83 83 0 0 0-21.9-6.8c-4.4 1.7 0 4.8 11.9 8.3a129 129 0 0 1 25.5 11.5l3.3 2.7-2.9 5.1c-2.4 4.2-2.7 5.3-1.5 6 2.1 1.4 3.4.5 7.6-5 2.3-3.1 4.2-4.6 4.7-4.1q.8 1-2.6 5.7c-4 5.2-4.3 6.3-2.1 7.2q1.7.4 7.5-5.1c5.1-4.9 6.3-5.6 8.7-5 4.1 1 4.4 1.3 3.1 3.7-.6 1.2-1.7 4.9-2.4 8.2a28 28 0 0 0 2.6 18.6q1.3 2.7.2 4.5c-.8 1.5-.5 2.9 1.6 6.6 1.5 2.6 2.3 5 1.9 5.4q-.9 1-13.8-6.2c-1.1-.7-2.6-1.7-3.2-2.3q-2.5-2.6-6.9 1.4-5.3 4.8-2.4 9c1.7 2.6 2.1 6.1.8 6.9-1.1.6-2.2-.2-5.5-4.2s-3.6-9.8-1-14.3c1.7-2.9 1.5-3.9-.9-4.3-4.8-.7-5.1-4.4-.3-4.4q3.4-.1 4.9 2.3c1.7 2.5 6.4 4.1 7.9 2.6q1-1-.7-5.1c-1.4-3.6-1.5-4.4-.1-7.6 1.1-2.6 1.2-4.1.4-5.6q-2.5-4.4-7.2 3.7l-2.8 5 .5-7.1c.5-5.6.3-7.4-.9-8.4q-2.7-2.5-5.1 3.7c-.8 1.8-2.5 3.8-3.8 4.3q-5.2 1.8-1.6 5c2.6 2.6 2.5 3-.4 3q-6.4 0-8.5-4.8c-1.2-2.8-6.1-6.1-20.2-13.4a61 61 0 0 1-8.4-5.5c-3.7-3.1-3.8-3.4-2.5-5.8 1.8-3.3.6-4.3-2.1-1.9-2.2 1.9-2.2 1.9-1.6-.7q1.2-5-5.4-10.9c-3.1-2.8-3.2-3.1-1.8-5.7l1.7-3.6c.7-1.4-2.1-.7-4 1q-1.7 1.4-2.6.9c-.9-1 4.4-5.6 6.4-5.6.8 0 3.7 1.1 6.5 2.5s6.6 2.7 8.7 2.8c5.9.3 4.6-2.3-3-6.3-3.8-2-7.3-4.1-8-4.8s-2-1.2-2.9-1.2c-3.1 0-8.1-5.3-10.9-11.4q-4.9-11-12.5-12.4c-2.3-.4-4.1-1.4-4.3-2.3-.2-1.2 1.8-1.9 9.5-3.3l12-2.2c3.8-.7 4.6-3.7 2.8-10.2-3-10.3-6.4-11.9-18.4-8.6-5.7 1.6-5.9 1.6-8.9-.6-4.1-3-7.8-10.9-9.7-20.5-.9-4.4-2.7-11.2-4-15a116 116 0 0 1-3.5-13c-.7-3.3-1.9-8-2.7-10.5s-1.9-7.3-2.4-10.7-1.5-7.7-2.3-9.5a347 347 0 0 1-11.4-38.2c14-8.5 18.4-10.4 20.1-8.7q.9 1 .3 1.1t.4 1.5c1.6 1.9 3.7 1.9 9.7-.1 2.9-.9 6.1-2.9 7.9-5q3.1-3.4 8.5-5c3-.9 7-2.8 8.9-4.3s7.8-4.2 13-6 10.9-4.1 12.5-4.9l3-1.7-2.8-.3c-1.6-.2-3.4.1-4 .6s-4.9 2.2-9.5 3.7a79 79 0 0 0-14 6.4 37 37 0 0 1-11.5 5c-4.6 1-6.1 1.8-7 3.8-1.1 2.5-7.9 6.7-9.1 5.6a6 6 0 0 1-.6-2.9c0-4.2-4.2-3.6-16.9 2.4-4.2 2-8 3.6-8.5 3.6-.5.1-2-4-3.3-8.9l-3.8-14.3-1.6-5.2H95.4c-9.6 0-10.5.2-10 1.7m18.7 8.9c1.5 4.9 3.7 13.4 4.9 18.9s4.6 17.4 7.5 26.5 6.8 22.8 8.6 30.5l6.6 27c6.8 25.8 7.5 28.6 6.9 30.1-.7 1.7-4 1.8-5.4.1a74 74 0 0 1-5.9-16.6l-3.9-15.1a238 238 0 0 1-5.4-25l-2.6-13.5c-.9-4.4-3.3-13.1-5.4-19.5-8.2-25.1-13.5-48.8-11.5-52 1.5-2.4 3.1 0 5.6 8.6M92.9 3.9c.6 1 1 3.4.9 5.2s.7 5.1 1.6 7.3C96.3 18.5 97 21 97 22s.9 4.6 2.1 8.1a188 188 0 0 1 3.4 12.9c.7 3.6 2.5 9.6 3.9 13.3s3.3 10.3 4.1 14.4c.9 4.2 1.8 7.9 2 8.3s.7 2.9 1 5.6c1.2 10 5.9 32.3 10.4 49.2 2.9 11.1 2.9 11.2.9 12.3q-2 1.2-3.1 0c-1.2-1.2-6.2-19.6-8.2-30.2l-2.9-14c-.8-3.5-2.5-11.6-3.6-17.9a732 732 0 0 0-5.5-26.6c-.9-6-2.8-14.1-3.7-15.8S93.6 24 92 13.5c-.4-2.8-1.1-6.5-1.5-8.3-.8-3.6.7-4.5 2.4-1.3m47.9 146.9q.4 4-2.4.4c-1.3-1.6-1.5-1.6-2.5.1-.5.9-1.5 1.5-2 1.2-1.3-.9-.1-2.5 2.5-3.5 2.9-1.2 4-.7 4.4 1.8m284.2-.3c-1.9.7-4.6 1.3-6 1.3q-3 0-.5-.5c1.1-.3 2.3-.8 2.7-1.1s2.2-.8 4-.9l3.3-.1zm-14.3 3.1q-.7.5-1.9.1t.6-.6q1.8 0 1.3.5m-268.2 3.3c-1.6 1.4-5.5 2.3-5.5 1.2 0-.9 2-1.7 5-2q1.2-.1.5.8m24.2 2.3c1.4 1.9 2.4 5 1.4 4.4s-6.7 2-7.6 3.4q-.6.8-2.1.3c-.8-.3-2.2.1-3.2 1a102 102 0 0 1-23.7 6.7l-8.5 1.9c-9.4 2.1-9.1 2.1-10-.4-.7-1.8-1.8-2.4-4.6-2.7-6.1-.5-5.3-2.5 1.3-3.4 3.1-.4 7.1-1.3 8.8-2 3.5-1.4 20.8-5.2 30-6.5 3.3-.5 8.3-1.5 11-2.2l5.6-1.6q.7.1 1.6 1.1m168 27.1c3.7 6 7.9 11.8 9.9 13.3 1.9 1.5 3.4 3.4 3.4 4.3 0 1 1.1 2.8 2.5 4.1 3.2 3 2.4 3.9-1.1 1.1q-4.5-3.6-7.2-.9c-.9.9-1.7.9-3.6-.1-1.9-1.1-3-1.1-5.9 0q-6.6 2.4-10.6-4.7a149 149 0 0 0-30.4-21.5c-5.3-2.8-3.9-3.9 6.7-5.2l8.5-1.1 6.2 6.2a29 29 0 0 0 7.7 6.2c.9 0 2.4.8 3.4 1.7 3.3 3 4.1.2 1.8-5.8-1.2-3-2.6-5.8-3.1-6.4q-2.5-2.6 2.3-2.3c2.9.3 3.8 1.3 9.5 11.1m-188.1-9.2c1.1 1.8-1.4 3.5-2.8 2q-1.7-1.4.5-.6c1.9.8 2.4-1 .5-1.8q-1.5-.6-.1-.6c.6-.1 1.5.4 1.9 1m215.2 7c-.9.5-1.5 1.6-1.2 2.4s-.5 2.1-2 3c-3.3 2.2-3.3 3.3.2 4.2l2.7.7-2.5.6c-1.4.3-2.5 1.2-2.5 1.9 0 1 5.1 4.2 11.4 7.1 2.1.9 2.6 3 .7 3-2.7 0-2.8 2-.1 5.2q3 3.3 1.4 3.6l-2.6.7q-1.4.3 1.2 5.2c1.3 2.7 2.6 7.3 3 10.3.5 5.3.5 5.4-.7 2-.7-2-2.1-3.6-3.2-3.8-1.7-.4-1.8.1-1.2 4.5.4 2.6 1.6 6.5 2.7 8.6 2.2 4.3 2.3 4.2-6.6 5.2-6.3.6-8.2 1.6-7 3.5q.6 1.2 7.9.6l7.1-.6-6.5 1.9a71 71 0 0 1-26.2 2.2c-2.7-1-7.2-7.6-6.3-9.2 1.2-1.9 2.5-.8 2.5 2 0 3.6 1.5 4.3 10.8 4.6 6.8.3 7.2.2 7.8-2a9 9 0 0 1 2.5-4.1c2.3-2 2.5-5.7.5-7.4-.8-.6-1.6-2.3-1.8-3.7-.4-3.2-2.9-4.9-5.4-3.8-1.1.5-3.7.9-5.9.9-3.1.1-4.2.6-5.2 2.6-1.9 3.9-3.4 3-5.8-3.3-2-5.6-2.8-6.6-7.7-11.4-3-2.8-10.6-6.2-14-6.3-3.9 0-6.3-1.1-4.7-2.1.7-.4 2-.4 3 .1q1.7 1 3.4-1c1.6-1.8 1.9-1.8 3-.4 1 1.5 1.3 1.5 2.9-.1q1.5-1.6 2-1.4l1.9 3.1c1.2 2 2.6 2.8 5.4 3 3.4.3 3.8.6 4.4 3.8.9 4.3 3.6 6.5 8.9 7.4 7 1.1 15.7-2.6 19.1-8.2 2.9-4.5 1.8-10.2-2.7-15.2a16 16 0 0 1-3.4-4.8c0-.6-1.6-2.7-3.5-4.8a19 19 0 0 1-3.5-4.5c0-.5 1.6-.9 3.5-.9 2.8 0 4-.8 7.2-4.5 3.4-4.1 3.9-4.4 5.3-2.9 1.3 1.4 1.3 1.6-.2 2.5m-229.8-1c0 1.1-4.6 2.3-6.5 1.6q-1.4-.5-2 .3-.7 1-1.7 1t.2-1.5c.7-.8 2.3-1.5 3.6-1.5 1.2 0 2.5-.4 2.9-1 .7-1.1 3.5-.2 3.5 1.1m24.5-1.1c.3.5 1.4 1 2.3 1 1.8 0 6.2 8 6.2 11.2q.1 1.5 1.1 2c1.5.5 1.8 3.9.6 6.5-1.1 2.5-4.1 3.1-5.3 1.1q-.7-1.2 1.2-.5 2.6 1-.2-1l-4-3c-1.7-1-1.7-1.3-.4-2.2q1.5-1.1.4-1.9c-.6-.4-1.4-2-1.8-3.5-.7-3.1-3.7-4.7-7.6-4.1-5.7.9-6.3.9-6.6-.1-.4-1 9.9-6.3 12.3-6.4.6-.1 1.5.3 1.8.9m-22 8q.4 1-.7 1.4c-.7.1-3.4 1-6 1.9q-4.7 1.5-5.4.6c-.8-1.4-.4-1.7 4.7-3.3 5.5-1.8 6.6-1.8 7.4-.6m3.5 5.8c0 .4-1.5 1.2-3.4 1.8-2.7.8-3.3.8-2.9-.2.7-1.8 6.3-3.2 6.3-1.6m11.3 2.4 1.6 7.6c.6 2.4.9 4.7.6 5.1-.2.5-2-.6-3.9-2.3-3.1-2.8-3.3-3.2-1.8-4.4 1.6-1.2 1.6-1.5-.1-4.3q-2.9-5 1.2-4.9 1.9 0 2.4 3.2m-19.6.3q0 1.3-.9.9-.7-.6-.3-1.5 1.3-2 1.2.6m42 3.9c1 1-1.7 2.5-3.3 1.9-.7-.2-1-1.1-.8-1.8.6-1.4 2.8-1.4 4.1-.1m-11.2 5.6q.4.9-.4 1-1-.1-1.1-1 0-1 .4-1 .6 0 1.1 1m142.5 4.4q0 .6-1 1.1-.9.4-1-.4.1-1 1-1.1 1 0 1 .4m-6 5.1q-1.2 1.4-1.7 1.1c-.7-.7.7-2.6 1.9-2.6q1 0-.2 1.5m45.9 1.9c1.3.7 2 1.6 1.5 1.8-1.3.8-5.4-.9-5.4-2.2s1-1.2 3.9.4m-184.5 3.1q3.6 5.6-1.1 9.5-5.7 4.4-10-1.9c-2.8-4.1-2.8-4.2-.2-7.5 2.8-3.6 8.9-3.7 11.3-.1m135.1 1.7c-1 3.1-2.5 4.7-2.5 2.6 0-2.4 1.1-4.8 2.2-4.8q.8.2.3 2.2m4.7 4.2q-1.6 3.2-2 1.9c-.2-.8.4-2.3 1.4-3.4q3.6-4.2.6 1.5m19 5.6c1.6 8.7 6 24.5 7.4 26.4q1.3 2 5 1.8c2-.1 4.9.5 6.4 1.3 1.6.8 3.5 1.2 4.3.9s4 .2 7.1 1.1 6 1.4 6.5 1.1c1.5-1 7.2.6 7.8 2.1.4.9-.8 2.8-3.1 4.9-2 1.8-3.6 3.7-3.6 4.3q-.2 1-2.2 1.7c-1.3.3-3.5 1.5-4.9 2.5a8.4 8.4 0 0 1-12.1-2.8c-1.8-2.9-2.5-3.3-6.1-3.3-2.6 0-5.9 1-8.6 2.5-6.1 3.5-7.7 3.3-8.9-1.3-.9-3.5-.7-3.9 2.7-6.9l3.6-3.2-2.2-2.2c-1.6-1.7-3.2-2.2-6.2-2.1q-4.3.2-4.1-1.2c0-.8.5-1.8 1-2.1q1-.7.5-1.6c-1-1.5-4.2-1-4.9.7q-.6 1.3-1.7.8c-1.2-.7-.6-9.3.9-13.5l.9-2.2 2.5 2.7c1.9 2.2 3.2 2.7 5.9 2.4 3.2-.3 3.4-.5 3.4-4.3 0-3.3-.4-4.2-2.7-5.3q-5.3-2.5-.3-3.8c3-.7 3.1-1.2.8-3-1.6-1.2-1.6-1.5-.3-2.4q4.1-2.9 5.2 4m-27.5 5.5q-1.4 6-2.8 6c-2.2 0-2.3-4.5-.1-6.8 1.1-1.2 2.4-3.8 2.8-5.7q.8-3.6 1.1-1.5c.2 1.1-.2 4.7-1 8m39.8.5q.8 3.3-.4 2.6c-1.2-.8-3.1-7.1-3.1-10.1.1-2.5 2.4 2.5 3.5 7.5m53.2 2.2c1.5 1.6 2.2 2.8 1.6 2.8-1.4 0-7.3-6.7-7.3-8.3l-.5-3.7q-.3-2 1.5 2c1.2 2.5 3.3 5.7 4.7 7.2m-80.9-4.8c-.5 3.3-2.3 2.4-2.6-1.3-.3-3.1-.2-3.3 1.3-2.1a4 4 0 0 1 1.3 3.4m10.2 7.7q0 .9-1 .4-.9-.7-1-1.6.1-.9 1-.4a2 2 0 0 1 1 1.6m65 0q0 .8-1 .9-.9-.1-1-1.6.1-1.3 1-.9 1 .6 1 1.6m24.5 2.9q.5.9-.4 1-1-.1-1.6-1-.5-1 .4-1a2 2 0 0 1 1.6 1m-16.7 2.5c-.2.1-2.5.5-5.3.8-5 .6-5 .6-1.5-.7 2.8-1 8-1.1 6.8-.1m3.9-.9q-.6.5-1.9.1-1.1-.5.6-.6t1.3.5m48.2 16.6c1.3 1 3.1 1.8 4.1 1.8 1.8 0 5.1 3.2 7 6.8 1 2 .9 2.7-.9 4.6-2.4 2.6-2.6 4.6-.8 9.7 1.8 5.3 3.5 6.9 7.1 6.9 4.5 0 7.6 2.5 7.6 6 0 4.1-2.7 5.4-7.1 3.2a8 8 0 0 1-4.3-5c-.9-3.4-1.5-3.5-5.8-1.7-2.8 1.1-3.4-2.2-.9-4.3l2.1-1.7-2.6-9c-3.1-10.9-5.1-14-8.4-13-2.3.7-2.3.9-.4 10 .7 2.9.4 2.7-5.5-2.8-4.9-4.7-6.6-5.8-8.8-5.5q-7 .8 1.8 8.9c5.8 5.4 6 7.4.4 3.9-3.8-2.3-8.5-2.1-8.5.4 0 2.3 4.6 6.4 8.4 7.5 2 .5 5.7 2.1 8.1 3.6 4.3 2.5 4.5 2.8 4.5 7.1 0 2.5.5 5.4 1 6.5q1.2 2-.4 1.9c-.8 0-1.9-.8-2.4-1.7-.9-1.5-1.8-1.4-10.7 1.5l-9.7 3.3-5.5-3.8c-6.3-4.3-8.9-7.4-9.9-11.7-.6-2.7-.5-2.8 1.8-2.3 3.4.9 5.4-1.3 3.9-4.2-1.4-2.6-1.4-6.4 0-7.8 1.5-1.5.3-3.3-2.2-3.3-2.3 0-2.4-.4-.3-3.5a80 80 0 0 1 21.2-14c4.7-1.6 12.9-.8 16.1 1.7M312 268q-.1.9-1.1 1-.8-.1-.4-1 .6-1 1.1-1 .4 0 .4 1m83.1 24-1 2.5v-2.7c-.1-1.4.2-3.5.6-4.5q.9-2.6 1.1.2a12 12 0 0 1-.7 4.5m-136.1-.5c1.3 1.4 2.1 2.7 1.8 3-.8.8-7.1-2.8-7.6-4.3-.7-2.2 3.4-1.3 5.8 1.3m23.5.5c.9 1.5-1.5 1.2-3.1-.4q-1.3-1.4-1.4-2.1c0-.8 3.7 1.3 4.5 2.5m72.5 7.9q-.2.9-2 1.4t-2-.3q.2-.9 1.8-1.3l2-.6q.2 0 .2.8m88 5.2c.7 1.7 2.3 3.7 3.4 4.4 2.9 1.9 10.6 2.2 14.5.5 3.1-1.3 3.3-1.2 7.7 3.1 2.4 2.4 4.4 4.8 4.4 5.5 0 1.4-5.9 4-12 5.4-6.5 1.4-7.7 1.2-8.3-1.1q-.6-2.2-2.1-1.5l-3.1 1.2c-2.6 1.1-1.6-1.5 1.5-3.8 4-2.9 3.8-4.3-.7-6.1q-6.6-2.5-7.8-8c-1-3.7.9-3.5 2.5.4m-62.5 1.6c3 3.3 3.2 5.9.6 6.6q-4.7 1-3.8-4.2c.5-2.3.2-3.3-1.1-4-1.6-1-1.6-1 0-1.1.9 0 2.9 1.2 4.3 2.7m-36.3 8c5.3 5.2 5.8 6.3 2.8 6.3-3.8 0-8-3-9.5-6.6-1.9-4.5-1.9-4.4.2-4.4 1 0 3.9 2.1 6.5 4.7M392 313q2 1.1-.2 1c-.9 0-2-.5-2.3-1-.8-1.3.5-1.3 2.5 0m36.2 4.2c-1.5 1.5-2.6.4-1.8-1.8q.6-2 1.8-.6c1.2 1.4.9 1.5 0 2.4m-52.2.9c0 2.6 1.9 3.3 3.9 1.5 2.1-1.9 8.6-2.1 12.1-.3 2.6 1.3 8.7 10.3 7.7 11.3-.3.4-1.2-.6-1.9-2.2q-2.6-6.4-6-6.4-3.7-.1.6 7.3a41 41 0 0 1 3 6.3c.6 2 .2 2.2-4 2.6-3.5.2-5.6-.2-8.6-1.9a17 17 0 0 0-5.5-2.3q-1.9.2-.3-1.5c1.6-1.7 1-1.8 0-3a12 12 0 0 1-1.9-4.8c-.5-2.5-1.4-3.4-3.9-4.2l-3.2-1.1 2.1-2.1c2.4-2.4 5.9-2 5.9.8m-207.7 2.5c.3.4 0 1.9-.8 3.4-1.3 2.4-1.2 3.3.2 6.9 1.6 4.1 1.6 4.3-.5 6.3a28 28 0 0 1-6.4 4.2c-5 2.5-7.5 6.5-5.8 9.6 1.4 2.6 2.2 2.6 9.3-1.1 5.6-2.8 5.9-2.9 5.4-.9q-.4 2 1.4 3.9c1.9 1.8 1.8 1.8-4.3 2.5-3.4.3-7.8 1.4-9.8 2.5-2.6 1.3-4.9 1.7-9 1.3q-5.6-.4-9.5 1.2c-3.9 1.7-4 1.6-5.7-.5-2.4-2.8-2.3-8.1.2-11l1.9-2.4.1 3q.2 9.5 11.5 2.2c5.1-3.3 5.5-4.4 4-9.5-.6-1.8.1-3 4-6.6 4.3-3.9 4.8-4.9 4.9-8.7.1-3.6.5-4.6 2.6-5.6 2.7-1.4 5.3-1.7 6.3-.7m190.5 1.2q.2 1.1-1.7 1.2-2.1 0-1.4-1.5c.6-1.7 2.5-1.5 3.1.3m127.9 1.4c3.4 3.3 4.3 7.4 2.1 9.6-.9.9-.9 1.8 0 3.7a81 81 0 0 1 1.7 24.7c-.5 2.8-1.2 3.8-2.5 3.8a27 27 0 0 0-11.4 4.9c-.4.6 0 2.1.8 3.3.7 1.3 1.7 3.3 2.1 4.5.6 2.1.3 2.3-3.7 2.3-5.1 0-6.8-1.3-6.8-5.3 0-1.5-.4-3.6-.9-4.5s-1.1-4.5-1.4-8c-.5-6.1-.5-6.3 1.3-4.7 2.6 2.3 6 .4 6-3.3 0-1.5.3-3.7.6-4.8.8-3.1-4.5-8.8-8.2-8.9-4.3 0-4.1-1.9.2-2.8 3.5-.7 4.1-.4 7.5 2.9 4.1 4 6.9 4 6.9 0q0-2.5-3.9-5.8l-3.9-3.3 4.6-5.8c2.6-3.1 4.9-5.7 5.2-5.7a22 22 0 0 1 3.7 3.2m-150.2.3c2.7 2.3 2.8 2.6 1.4 4.1-1.3 1.3-2.1 1.4-3.8.5-3-1.7-4.7-5.1-3-6.2 1.9-1.2 2-1.2 5.4 1.6m87.9 2.1c4.1 1.8 5.6 3.1 5.4 4.2-.4 1.8-.8 1.8-7.1.7-3.8-.6-7.5-4.4-6.2-6.5.9-1.4 1.6-1.3 7.9 1.6M275.5 328c1.4 2.3-2.3 5.6-8.1 7.2-8.2 2.3-11.4 5.8-12.3 13.7-.8 6.8-2.7 9.5-9.8 13.7-5 2.9-5.8 6.3-2.1 8.8 5.1 3.6 11.2 1.2 19.1-7.4 4.3-4.6 5-5 9.3-5s5.1-.4 8.8-4.5c4.1-4.5 8.6-6.1 8.6-3.1q.2 2.5-6.4 6.6c-5.5 3.3-5.7 7.9-.5 9.5q1.7.8 1.9 2c0 3 3.6 3.6 9 1.5 8.8-3.5 7.9-1.9-2.1 3.9-6.5 3.8-7.5 4.1-12 3.5-2.7-.4-5.2-1.1-5.5-1.5-.3-.5-2.3-.6-4.5-.3-2.3.4-4.4.2-5.2-.5-1.4-1.1-13.3-1.9-34.5-2.3-8.6-.2-12.6-.6-13.4-1.5-.7-.9-4.8-1.3-14.4-1.3-7.4 0-13.4-.4-13.4-.9s.6-1.4 1.4-2c1.7-1.5 4.6-9.5 4.6-12.9 0-2.6-.3-2.6-8.2-.6-4.6 1.1-3.2-1.2 2-3.4 2.7-1.1 8.3-2.2 13.2-2.6a32 32 0 0 0 16.3-4.7c4.4-2.2 8.1-3.8 8.4-3.6.2.3-.5 2.3-1.7 4.6-1.6 3.2-2.6 4.1-4.6 4.1-3.9 0-7.4 2.8-7.4 6 0 6.3 5.6 6.4 17.7.4 7.4-3.6 10.3-6.4 10.3-9.7 0-4.2 6.9-11.6 10.9-11.7 1.3 0 4-1 6-2.2 2.9-1.8 9.6-3.6 17.3-4.7q.7 0 1.3.9m193.7.5q-.1.9-1.1 1.3-1 .2-1.1-1.3c-.1-1.5.5-1.5 1.1-1.3q1 .4 1.1 1.3m-121.7.5q.4.9-.9 1l-2.3.1q-.7 0-1.1-1c-.5-1.4 3.5-1.4 4.3-.1m117.2 1.6c.9 2.5-1.1 3.8-3.8 2.4-2.2-1.2-2.2-1.3-.4-2.6 2.4-1.8 3.4-1.8 4.2.2m-90.5 3.6c-.5.5-2.5 1.1-4.3 1.4-1.9.2-4.4.6-5.6 1-2.7.7-3.2-1.2-.8-3 1.9-1.4 12.1-.8 10.7.6m78.8-1.1c0 1.9-2.1 4.9-3.4 4.9q-1.4-.1-2.6-1.5c-1-1.2-1-1.8 0-3 1.4-1.7 6-2 6-.4m-99 2.3q0 .6-1 1.1-.9.4-1-.4.1-1 1-1.1 1 0 1 .4m56 .6q-.2 1-2 2-2.1 1.3-2-.3 0-1.4.7-2c1-1 3.3-.8 3.3.3m24.7 5.6c1.8 2 3 2.4 4.9 2q5.2-1.2 8.1 5.2c.8 2 2.4 4.9 3.4 6.4 3.4 4.7 2.2 6.8-4.8 8.1-2.6.5-3.5.2-4.3-1.2q-1-1.9-3-1.4t-2-1.2c0-1.4-.6-1.6-3.2-1.1q-5.8 1.1-5.8 6.3 0 2.1-.7 2.3c-.5 0-.6-2.7-.5-5.9q.4-6-1.1-8.3c-.8-1.2-1.8-4.6-2.2-7.5-.7-5.1-.6-5.2 2.2-5.6 5.7-.8 6.6-.6 9 1.9m-62.6-.4v2.3q0 .8 1.3-.9c1.9-2.4 5.7-1.5 7.1 1.6q1 2.4 3.5 2c7.5-1 20-1 19.4-.1q-.5 1 2.8.4c1.9-.4 5.4-.2 7.6.5 3.3.8 4.2 1.5 4.2 3.3q.1 2.6-1 .7-1-1.7-.5 1.5l.5 4q.1.7 1.3-1c1.1-1.8 1.3-1.5 1.7 2.5.6 5.3-.8 21.1-2 22.3-.4.5-1.7.6-2.9.2-1.7-.5-1.9-.9-.9-3.1.6-1.3 1.5-2.4 2-2.4s.1-1.1-.8-2.5-1.2-2.5-.6-2.5q1.2 0 0-3c-.5-1.7-.8-4.2-.6-5.5.6-2.7-2-4.3-4.6-2.8-1.4.8-1.6 1.2-1.6 3.4q0 .8-.9.5c-.5-.4-2.1-.2-3.5.4-2.4.9-2.6.7-2.6-1.5q0-3.4-4.2-2.6-.8 0-.8-.8c0-.6-1.1-2.2-2.5-3.7-2-2.2-3-2.5-5.6-2q-3.4.7-2.6-.7c.3-.8.1-2-.3-2.7-1.3-2.1-6.7.6-7.5 3.8q-.6 2.5-1.4 1.4c-1-1.7-8.1.4-8.1 2.4q-.1 1.5-2.1 2.1-1.8.6-1.6 1.7c.3.6-.2 1.7-.9 2.4-1.1 1-1.6.8-2.5-1-.7-1.3-1.6-2.6-2.2-2.9-.9-.7-9.2 3.5-10.2 5.2q-.6.8-1.6.9c-1.5 0-1.1-2.6.7-4.1 1.6-1.3 1.2-5.4-.6-7.3-1.2-1.2-8 2.1-8 3.8 0 .8-.8 2-1.7 2.7q-2 1.8-.8 0 .8-1.5-.3-.7t-1.2 2.2-1.5 1.4c-2.9 0-1.8-4.9 1.5-6.8 3-1.7 3.9-3.4 4.2-7.8q.2-2.2 1.7-1.6 1.4.5.7-.6t.3-1.2c.5 0 1.7-.3 2.7-.7q1.9-.9 1.1 1-1.2 3.6 3.3 1 2.1-1.3.8-.9-1.7.4-2.3-.4c-.4-.6.9-1 2.7-1s3.9-.5 4.6-1.2 4.4-1.5 8.4-1.8l8.1-.9q.7.1.8 1.1m-226.3 5.1q.2 1.7-1.3 2.3-3.2 1.3-2-2.6c.8-2.4 2.8-2.2 3.3.3m314.6.9c2.8 2.5 4 8.8 1.9 9.5-1.3.5-7.3-7.8-7.3-10.1s2.5-2 5.4.6M186 359.5c0 .4-.7 1.9-1.4 3.4-1.8 3.5-4.3 5.1-12.7 8.5-5 2-7.2 2.4-9.4 1.7a12 12 0 0 0-4.3-.4c-1.7.7-4.2-1.6-4.2-3.7 0-1 2-3.1 4.7-4.9 4-2.7 5.6-3.1 11.7-3.2 3.9-.1 8.5-.5 10.1-.9q5.7-1.4 5.5-.5m-42 6.6c0 .6.9 2.2 2 3.6q3.2 4.2 1.3 4.3c-1.4 0-6.4-7-5.8-8 .8-1.3 2.5-1.3 2.5.1m211.5 3.9q-.6.9-1.6 1-.8-.1-.9-1 .1-1 1.6-1 1.3 0 .9 1m-220.7 2.1c4 2 7.2 6 7.2 9.2 0 .7 1.1 2.4 2.5 3.7 2.1 1.9 2.5 3.2 2.3 6.9l-.3 4.6-10.5 6.3c-15.6 9.3-26.4 14.6-28.2 13.9-.9-.3-3.3-3.9-5.4-7.9a59 59 0 0 0-9.6-13l-5.8-5.6 4.2-2.4c5.7-3.1 13.8-6.2 14.5-5.4.4.3.1 1.8-.6 3.2-2.2 4.8.9 6.1 16.1 6.8 8.5.4 11.6-1 8-3.6-1-.7-3.1-3.2-4.7-5.6-3-4.6-5.7-5.8-11.1-4.9-6.2 1-2.8-3.2 5.1-6.2 6.4-2.4 11.2-2.4 16.3 0m187.6 2.1c-1.7 1.8-4.3 5-5.8 7.1-2.2 3-3.1 3.6-4.1 2.7-1.8-1.5-8.7 2.2-10.6 5.6-.7 1.3-1.6 2.4-2.1 2.4q-3 .2 4.8-7.1l10.1-9.7c3.3-3.1 5.2-4.2 7.5-4.2h3.2zM463 372q0 .9-1 1a1 1 0 0 1-1-1q.1-1 1-1t1 1m-123 2.5c1.4.8 3.7 1.4 5.1 1.5 1.4 0 3.3.6 4.3 1.3 1.6 1.2 1.7 1.8.5 5.8-2 7.2-2.1 7.2-14.5 4.9-6-1.2-11.3-2.5-11.8-3-1.1-1.1 8-10.8 10.7-11.3l2.7-.5c.3-.1 1.6.5 3 1.3m49.6 4.7a90 90 0 0 1 10.4 5.4c.8.6 4.7 2.8 8.5 4.9a70 70 0 0 1 8.9 5.3c2.8 2.6 4.8 7.2 4.2 9.6a36 36 0 0 1-8.7 11.6c-1.9 0-.8-4.8 1.6-7 3-2.9 2.9-6-.2-7.6-1.3-.6-3.1-1.8-4.1-2.7-4-3.7-18-12.8-23.7-15.6a34 34 0 0 1-7.4-4.4c-1.4-1.8-6.3-1.3-9.6 1-2.2 1.5-7.4 1.8-5.9.3.5-.5 2.9-2 5.4-3.4 5.8-3.3 9.2-2.9 20.6 2.6m-208-2c.8 1.3-6.8 8.8-9 8.8s-2.8-2.9-.8-4.5c5.6-4.6 6.8-5.4 7.9-5.5q1.1 0 1.9 1.2m27.2 1c5 1.9 8.2 2.2 25.7 2.5 35 .7 39.9 1 40.3 2.2q.1 1-2.3 2.1c-1.5.6-5.3 2.5-8.4 4.3-16.2 9.5-85.5 36.9-89.5 35.4-1.7-.7-5.7-14.8-6.1-21.5l-.4-5.8 7.5-6.5c8-6.9 21.5-14.9 25.2-14.9 1.2 0 4.8 1 8 2.2m-39.8-.8c0 1.1-1.9 1.5-2.5.6q-.4-.9.9-1 1.5 0 1.6.4m134.1 2.6c-1.3 1.1-2.8 2-3.5 2q-.8-.2 1.4-2c3.3-2.6 5.2-2.5 2.1 0m184.4 0q.4.9-.4 1-1-.1-1.1-1 0-1 .4-1t1.1 1m-371.7 4.5c0 2-.6 2.5-2.4 2.5-2.8 0-3.1-1.7-.6-3.6s3-1.7 3 1.1m166.2.6a254 254 0 0 1-35.2 18.3c-2 .9-4 2.1-4.3 2.6s-1.3 1-2.1 1-4.6 1.5-8.2 3.3a46 46 0 0 1-10.2 3.9c-3.4.6-29.2 10.4-35.5 13.5-8.1 4-35.9 12.5-38.2 11.6-.8-.3-3.3.2-5.6 1s-8 2-12.7 2.6c-14 1.8-16 1.8-16 .4 0-.7 1.2-1.3 2.7-1.3 8.8 0 44.2-8.4 66.3-15.7 21.7-7.1 22.4-7.4 44.5-16.7a850 850 0 0 0 41.9-19.2c11.9-5.9 16.4-7.8 12.6-5.3m208.4.7c.2.4-.9 2.2-2.5 4-3.3 3.6-4.7 2.6-3-2.1 1-2.6 4.3-3.7 5.5-1.9m-61.3 3.4c2.1 1.7 3.9 3.9 3.9 4.9q.1 1.7 1.1 2.5c.6.4.8 2 .5 3.8-.5 2.6-.1 3.7 1.9 5.6 1.4 1.3 2.5 3.2 2.5 4.2 0 2.3-.4 2.3-4-.3-2.8-2.1-3-2.1-5.5-.5q-5.2 3.5-2.1-2.8c2.7-5.8 1.6-10.5-3.8-15.5-5.8-5.4-1-7.1 5.5-1.9m12.4 2c0 4 .2 4.3 2.8 4.3q5-.3.1 3.4c-3.4 2.6-4.4 2.6-4.4 0a10 10 0 0 0-1.1-4c-1.2-2.4-.2-7.9 1.4-7.9.7 0 1.2 1.7 1.2 4.2m-150-1.6c0 1-6.3 6.6-21.3 18.7-8 6.5-21.2 15.1-32.7 21.2a143 143 0 0 1-31.5 13.8c-7.4 2.5-15.2 5.2-17.2 6.1-4.6 2-5.8 2-5.8.1s-3.1-3.5-6.9-3.5c-1.6 0-3.3-.5-3.6-1.1-1.2-1.9.5-5.8 2.8-6.5a563 563 0 0 1 39.2-16.4 900 900 0 0 0 55.9-24.9l12-6.3c5.2-2.7 9.1-3.2 9.1-1.2m19.2 1.9q-.8 1.3-2.3 1.5c-1.6 0-1.6-.2.1-2 2-2.2 3.1-2 2.2.5m-224.8 6.3c5 4.8 7.8 8.5 9.6 12.7l4 8.6c1.1 2 1.1 2.9.3 3.7-2 2-2.5 1.5-5.8-4.9-1.7-3.3-4.7-8.6-6.8-11.7-4-6-6.7-7.6-16.2-9.1l-4.5-.7 3.6-1.6c2-.9 4-2.1 4.3-2.7 1.5-2.4 4.9-.8 11.5 5.7m249.6-4.9c15.3 1.9 19.1 2.8 23.3 5.8 4.6 3.1 4.8 4.2 3.2 15.3a116 116 0 0 1-15.1 39.3c-4.2 7-27.7 31.8-37.5 39.6-19.9 15.6-44.2 29.8-57.9 33.7a115 115 0 0 1-22.5 3.8l-4.5.1.1-3.5c0-1.9.7-5.7 1.4-8.3 1.1-3.8 1.2-5.2.2-6.7a8 8 0 0 1-1.2-3.4c0-.8-1.2-5.2-2.6-9.8-3.7-11.8-14.7-27.7-18.2-26.3q-1.2.4-1-.7c.3-.7 1.6-1.6 2.9-2 18.1-5 46.3-17.6 56.2-25.1 6.2-4.7 8.3-6.5 29.5-24.5a111 111 0 0 0 23.7-26.2c1.8-3.6.4-3.5 20-1.1M451 392q0 .9-1 1a1 1 0 0 1-1-1q.1-1 1-1t1 1m15.6 4.3c3.5 2.4 5.6 5 8.1 9.9 3.4 6.6 6.1 8.8 10.7 8.8 2.2 0 9.3 6.6 8.3 7.6-2.5 2.5-20.2-9.2-25.2-16.7-2.9-4.4-6.7-5.3-8.5-1.9-.9 1.6-.6 2.4 1.6 4.2 7.2 6.2 7.2 7.6-.1 6.8-7.8-.9-13.9-10.7-10.5-17 1.3-2.4 5.7-4.9 8.6-5 1.2 0 4.3 1.5 7 3.3M492 394q0 .9-1 1a1 1 0 0 1-1-1q.1-1 1-1t1 1m-197 1.3c0 .2-1.6 2-3.5 4-4.1 4.2-4.4 6.9-1.1 10.2 2.1 2.1 2.2 2.6 1 3.6s-1.8.8-2.9-.8c-1.2-1.7-2.2-1.9-6.5-1.5-2.7.2-5 .1-5-.4 0-1 8.1-8.3 13.9-12.6 3.9-2.8 4.1-3 4.1-2.5m195.7 5.2q-.4.9-1.8 1.2c-2.2.4-4.3-1.3-3.6-3 .5-1.3 1-1.4 3.1-.4q2.3 1.2 2.3 2.2M150 401c0 .5-.9 1.4-1.9 2a148 148 0 0 1-14.8 10.5 345 345 0 0 0-22 15.2q-4.3 3.4-7.9 3.3c-4.3 0-4.2-1.9.2-3.3A43 43 0 0 0 117 419c0-1 6.1-5.3 11-7.8 1.4-.7 6.1-3.5 10.5-6.2q11.5-7.1 11.5-4m149.8.7c-2.4 4.9-3.2 6.3-4 6.3-1.4 0-.9-3.3.9-5.2 1.6-1.8 3.8-2.5 3.1-1.1m-226.5 2.2c3.8 1.7 5.4 3.4 10.6 11.2a65 65 0 0 1 7.3 12.7c.9.9.9 1.8 0 3.7-.7 1.5-1 3.1-.7 3.6 1.2 1.8-2.2.8-4.1-1.2-1-1.1-2.7-2.5-3.6-3-2.3-1.2-9.8.5-17.3 4-11 5.1-13.3 5.6-16.4 3.3q-2.8-2-4.2-1.1-4 2.5-5.7-2.4c-2-5.7-1.7-6.5 3.4-7.3 3.8-.5 5.1-.3 7.5 1.5q5.8 4.2 5.9-3.8.1-7.2-7-9.2c-2.2-.7-4-1.5-4-1.9s4-2.4 8.8-4.4a103 103 0 0 0 11.8-5.7l3.1-1.9zm88.3.8c-1 1-1.9-.5-1-1.8q.8-1.7 1.2 0 .3 1.2-.2 1.8m335 2.7c.8 3.3-.3 5.1-2.2 3.5-2.2-1.8-1.7-5.9.7-5.9.5 0 1.1 1.1 1.5 2.4M154 409.2c.6 1.8 1.3 7.2 1.6 12 .5 8.5.5 8.8-1.8 9.7-4.8 1.9-24.5 5.6-35 6.6-4 .4-4.9.2-5.8-1.6q-1.2-2-.1-3.3c.6-.7 8.3-6.1 17-12.1 8.8-5.9 16.8-11.6 17.7-12.6 2.6-2.9 5-2.4 6.4 1.3m11 13.9c0 2.1-.4 4.1-1 4.4q-1 .4-1-2.3c0-1.6-.3-4.5-.6-6.3-.5-3.2-.5-3.3 1-1.5.9 1.1 1.6 3.7 1.6 5.7m208.7-4.4c3 3.4 2.9 5.4-.3 8.4-3.6 3.4-5.5 7.5-4.8 10.3q.7 2.4-1.7 3.9-2.1 1.6-1.6 3.6t-1.7 2.5c-2.8.8-5.6 4.8-6.3 9.1q-1.2 7.5 7.3 7.5c2.4 0 4.6.4 4.9 1 1 1.6-1.4 8.6-3.6 10.6q-2.3 2.1-2.6.6c-1.1-3.1-4.7-5.2-8.9-5.2-3.6 0-4.6.5-6.6 3l-5.5 6.5c-3.8 4-4 5-1.3 6.5s2.5 5.2-.5 8.4c-2.8 3-5.1 3-4.8 0 .1-1-.6-2.4-1.5-3.1-1.6-1.2-1.4-1.5 1.3-3.8l3-2.5h-3.2c-6.8 0-9.8 9.8-4.2 13.9 1.5 1.1 4 2.1 5.6 2.1l5.8.1c2.1.1 3.7-.8 5.7-3 4.3-4.8 3.1-8.5-1.4-4.4-2.3 2-2.4.5-.1-2.6 1.3-2 1.4-2.7.4-4.4q-1.4-2-.2-3c.6-.6 1.1-2.3 1.1-3.8s.9-3.7 1.9-5c1.6-1.9 2.3-2.2 3.7-1.3 1 .6 2.2 2.4 2.6 4 .7 2.4.4 3.3-1.8 5.2-2.5 2.2-2.5 4.2.2 4.2 2.2 0 1.7 2.8-.8 4.1-2 1.1-2.1 1.2-.2 2.2l2.2 1.2c.1.1-.3 1.6-.9 3.4-.9 2.7-.8 3.5.6 5.1 1.7 1.9 1.7 2.2.1 6.3-.9 2.4-2.3 5.2-3 6.3-1.4 1.8-1.5 1.8-2.5-.9-1.7-4.3-1.3-5.7 1.5-6.7 3.8-1.5 2.7-4.2-1.9-5.2s-6.9.1-9.2 4c-1.6 2.6-6.8 7-12.4 10.3-2.1 1.3-2.7 2.4-2.9 6.2a15 15 0 0 0 1 6.9c1.4 2.5 2.1 9.8.9 9.8-.4 0-1.6-.9-2.6-2-2.4-2.6-4.7-2.5-9.8.4-3.4 1.9-5.4 2.3-10.4 2-4.4-.2-6.5.2-7.4 1.2-.6.8-2.5 1.4-4.1 1.4-4.4 0-17.8 6.7-17.8 8.9 0 1-1.1 2.3-2.5 2.9-3.1 1.4-3.2 2.6-.4 4.6 2.7 1.8 1.5 4-1.8 3.2-1.8-.5-3.1 0-5.3 2.3-1.7 1.6-3 3.8-3 4.8q0 1.9-1.2 3.1c-.9.9-1.8.6-4-1.5q-5.7-5.6.2-4.7 3 .8 3.6-.9c.7-2-1.3-5.7-3.1-5.7-.9 0-2.3-.5-3.4-1.1-2.6-1.7-9.7-.3-8.1 1.5.6.8 1 2.7 1 4.2a25 25 0 0 0 .2 4.9c.2 1.5-.4 2-3.4 2.6-2.1.3-4.7 1.4-5.8 2.4-1.6 1.4-2 1.5-2.4.4a17 17 0 0 1 0-11.4c1.2-3.6 1.2-4.1-.3-5.3-2.2-1.6-3.3-1.5-5.3.3-1.6 1.4-1.8 1.2-3.3-2.7-.9-2.4-1.7-8-1.9-12.6l-.3-8.2 4.5-.1c2.5 0 5.6-.2 7-.4 4.6-.6 18.5-4.5 21.2-6 1.4-.8 3.5-1.5 4.6-1.5s3.1-.9 4.5-2 3.1-2 3.9-2 3.8-1.5 6.9-3.4l9.2-5.1c1.9-.9 4.3-2.5 5.3-3.6.9-1 2.2-1.9 2.7-1.9s2.8-1.5 5.1-3.3c2.3-1.9 5.1-3.9 6.2-4.5 3.2-1.7 15.7-12.4 19.4-16.5 1.7-2 3.7-3.7 4.4-3.7.6 0 1.9-1.2 2.8-2.8s3.2-4.4 5.2-6.4 3.6-4.2 3.6-4.7q.2-1 1.9-2.1c4.7-2.5 21.1-28.6 21.1-33.5 0-.8.4-2.3.9-3.3A72 72 0 0 0 370 417q0-2.5 3.7 1.7m-107.6 1.4c-2.4 2-4.1 2.4-4.1 1.1 0-1 5.3-4.2 6-3.5.3.2-.6 1.3-1.9 2.4m18.6-1.5c.1.5-1 1.8-2.6 2.9s-5.9 4.6-9.7 7.7a96 96 0 0 1-19 12.8c-1.3 0 1.1-7.8 3.1-9.9 2.1-2.2 2.4-2.2 4.7-.7 2.9 1.9 5.5 1.3 6.4-1.6 2-6.5 15.7-15.5 17.1-11.2m161.8-.7q.4.9-.5 1.6-.9.4-1-.9 0-2.7 1.5-.7m-36.4 12.3c-.6 1.8-2.1 4.4-3.2 5.8l-2.1 2.5.6-3.5c.7-3.6 4.9-10.6 5.4-9 .2.5-.1 2.4-.7 4.2m72.9-4.6c0 1.1-3.4 3.3-4.9 3.4q-1.7.1.4-2c1.7-1.9 4.5-2.7 4.5-1.4m-231.8 3.7c-4.2 4.5-4.6 11.7-.7 11.7 2.2 0 1.8 1.7-.7 3.4-2.8 2-4.8 2-4.8.1 0-2-2.6-3.2-9.3-4l-5.7-.7 8.7-5 10.8-6.4c3.1-2.2 4.1-1.6 1.7.9m179.4 2.4q6.3 6.6.7 7.6c-1.6.3-3.8.8-5 1.2-3.2 1-3.1-2 .2-4.1 4.3-2.8 2.7-6-2.7-5.6q-4.2.1-2.1-2.1c1.8-1.8 5.7-.5 8.9 3m49.4 1.8q-1.2 1.3-2.3.8-.9-.6.8-1.9c2.3-1.7 3.2-1 1.5 1.1m12-.4q.2 2.3-2 1.4a4 4 0 0 0-3.6.6c-1.6 1.3-3 .6-1.9-1.1.8-1.2 4.2-2.8 6.3-2.9q1 0 1.2 2m-112 6.1c0 2.9-2.5 6.1-4.4 5.5-.6-.2-1.2-2.2-1.4-4.4-.2-3.3.1-4.1 2-5q4-2 3.8 3.9M94 438q0 .9-1 1a1 1 0 0 1-1-1q.1-1 1-1t1 1m13 2.1q0 1.7-.9 1.9a18 18 0 0 0-4.5 2.5c-4.6 3.1-4.7 1.2-.1-3.8q5.4-5.8 5.5-.6M69.5 439c-.3.5-1.3 1-2.1 1s-1.2-.5-.9-1 1.3-1 2.1-1 1.2.4.9 1m390.8 3.8c.9 2.1 1.7 5 1.6 6.3 0 1.9-.6 1.3-2.5-2.6a30 30 0 0 1-2.4-6.3c0-2.4 1.6-1.1 3.3 2.6M73 443c-1.9 1-3.7 1.6-4 1.3-.9-.8 3.3-3.3 5.4-3.3 1.6.1 1.3.5-1.4 2m-12 0c0 1.2-2.8 2.5-3.6 1.7s.6-2.7 2.2-2.7q1.3.1 1.4 1m429.1 1.8c-1 1.9-4.8 3.9-5.6 3-1.3-1.3 1-4.7 3.4-5 3.4-.4 3.5-.4 2.2 2m-403-.2c1.1 1.4 1 1.8-.9 3.3-1.2.9-3 3.2-4 5.1-1.3 2.8-2.2 3.4-4.2 3.2-4.2-.4-5-1-5-3.7 0-3.1-2.9-3.4-5.5-.5q-3.5 3.7-3.5.1-.1-2.8 8.5-4.7c1.7-.4 4.8-1.5 7-2.5 4.9-2.3 5.9-2.3 7.6-.3m77.9-.1c0 .8-.9 2.4-2 3.5-2.4 2.4-5 2.6-5 .5 0-.8.9-2.4 2-3.5 2.4-2.4 5-2.6 5-.5m268.8-.3c.7.7 1.2 2.6 1.2 4.3 0 4.6 2.5 12.1 5.5 16.7 1.5 2.2 2.4 4.2 2.2 4.5-1.1 1-8.7-3.9-11.4-7.4-4-5-4.9-7.1-5.2-11.4-.4-5.5 4.6-9.8 7.7-6.7M221 445q0 .9-.7 1l-3.3.6-2.5.5 2.5-1.5c3-1.8 4-2 4-.6m275 4.9c0 2.1.5 5.2 1.1 6.9 1.7 4.8.7 6.1-2.4 3-2.1-2.1-2.7-3.7-2.7-6.8 0-4.6 1.6-8.4 3.1-7.5.5.4.9 2.3.9 4.4m-348.6-3.3c3.1 1.2 1.6 2.4-2.9 2.4-2.5 0-4.5-.4-4.5-.9 0-1.7 4.5-2.6 7.4-1.5m235.7 1.7c-1.3 1.3-2.6.3-1.6-1.2q.6-1 1.7-.5 1 .6-.1 1.7M201 455.1l-6 6.1-8.1-.7c-7.7-.7-8-.8-5.3-2 2.8-1.3 19.2-7.8 22.4-8.8s2.8-.5-3 5.4m35.4-4.6c-.2 1.4-14.7 7.6-15.7 6.6-1.5-1.5.4-3.9 4.6-6s11.3-2.5 11.1-.6m-113.5 2c3 1.4 6 2.4 6.7 2.1s3.4.2 6.1 1c4.5 1.4 7.6 1.4 17.1-.3 1.8-.3 3.2-.1 3.2.5 0 1.5-17.5 2.5-30.9 1.7-11.4-.7-11.9-.8-12.4-3.1q-1.4-7.3 10.2-1.9m255.1 1.9c0 .5-.7 1.8-1.6 2.8-1.6 1.7-1.8 1.7-3 0s-1.4-1.6-4.2.1-3 1.7-2.5-.3q.7-2.1-1.6-2c-3.2 0-2.5-1.3 1.7-3.1 3.3-1.4 4.1-1.4 7.4 0 2.1.9 3.8 2 3.8 2.5m-276.5 1c1.7 1.3 2.6 2.8 2.2 3.2-1 1-3.6-.6-5.5-3.4-1.9-2.9-.4-2.8 3.3.2m382.8 4.4 4 1.6c2.9.9 2 2.7-1 2-4.7-1.1-9.2-6.2-7.7-8.6q.8-1.2 1.6 1.3a7 7 0 0 0 3.1 3.7m-70.3-3.3c1.6 1.9 0 1.9-2.6 0-1.6-1.2-1.6-1.4-.3-1.5.9 0 2.2.7 2.9 1.5m-201.4 2c2.4 1.9 1.6 2.5-8.1 6.1L193 469c-7.9 3.2-24.2 7.2-25.2 6.2-1.2-1.2 5.6-6.4 8.5-6.4 1.2-.1 4.8.1 7.9.3 4.3.2 6.1-.1 7.6-1.4 1-.9 3.1-1.7 4.7-1.7q2.8 0 7.6-4.5c5.4-5 5.7-5.1 8.5-3M170 463a9 9 0 0 1-4 .9q-3.6 0 .5-.9c4.3-1.1 5.2-1.1 3.5 0m209-.2q-.1 1-1.5 2.8-2 2.9-.4-.9 1.9-4.1 1.9-1.9m21.8 2.3 3.8 3.1-3.1 3.3c-4.8 5.1-6.4 5.6-9.9 3.1l-3.6-2.4c-.2-.2 1.5-2.1 3.8-4.2 2.3-2.2 4.2-4.4 4.2-5 0-1.6.9-1.2 4.8 2.1m-273.8.8c1.8.8 9.7.6 21-.4l8.5-.8-4.4 3.4c-2.3 1.9-5 4.6-5.9 6.1-1.5 2.6-1.5 2.8.3 4.2 1.8 1.3 1.7 1.4-1.1 1.9-10.9 2.1-23.2 2.5-26.2.8-1.6-1-1.6-1 .1-1.1q1.5 0 1.7-1c0-1.7 4.3-5 6.6-5q2.3.1 4.4 3 4.5 6.2 7.5-.7c1.4-3.3 1.4-3.8-.1-5.4-2-2.2-4.3-2.6-19.5-3.4-11.5-.6-11.7-.5-14.8 2-1.7 1.5-3.4 4-3.9 5.7-.9 3.7-5.2 6-5.2 2.8 0-3.7 3-9.5 6-11.6 2.7-1.9 4.1-2 13.3-1.6 5.6.2 10.9.7 11.7 1.1m334.3 2.3q-1.6 1.8-2.1.8c-.5-1.5 1.8-4.1 3-3.4.5.3.1 1.5-.9 2.6m-39-.4c2.2 2.5 1.7 2.8-3.7 2.4q-7.6-.5-2.3-3c3.2-1.5 4.2-1.4 6 .6m30.7 0q.1 1.8-1.5.2-1.4-1.1-1.5-1.5.1-.2 1.5-.2c1.4 0 1.5.7 1.5 1.5m-292.2 6.7c1.3 2.9 1.1 3.1-5.3 3.9l-5 .7 4-3.5a41 41 0 0 1 4.6-3.6q.6.2 1.7 2.5m322.1-.6c5.4 5.4 6.1 11.8 1 9.1-2-1.1-4.5-1.5-13-1.9q-1.5-.3-2.2-2.1c-.4-1.5-1.2-1.9-4.1-1.7-1.9.1-3.4-.3-3.3-.8s1.7-.8 3.5-.7 3.9-.2 4.7-.8c1-.9 1.9-.8 3.6.1 2 1 2.5.9 3.8-.9 2-2.7 3.6-2.7 6-.3m-367.7 2.5 1.6 3.4-4.1-.5c-6.9-.8-7.2-1-4.5-3.8 3.1-3.3 5-3.1 7 .9m332.9-.7q2 2.4-.3.4-1.6-1.2-1.8-1.7 0-1.1 2.1 1.3m-30.3 1.9c3.4.7 2.8 3.4-.8 3.4-3.7 0-5 2.5-2.4 4.6q1.7 1.4.9 2c-3.7 1.7-4 2.4-1.8 4.3l2.3 1.9-3 1.1q-7.4 2.3 4.1 6c8.3 2.7 8.6 3.6.7 1.9-5.5-1.2-8.8-.7-8.8 1.2q.2 1 2.8 2c5.7 2.1 10.2 4.3 10.2 5.1 0 .4-1.6.1-3.5-.7-5.1-2.1-13.5-1.7-13.5.6 0 .5 1.5 1.2 3.3 1.5a36 36 0 0 1 10.7 4.9c0 .1-2.4-.2-5.4-.7-5.4-1-8.6-.6-8.6 1.2q.2 1 2.3 1.6 3.1 1.1 7.5 3.7c4.9 2.8 5.2 3.2 3.8 4.6s-1.8 1.3-4.1-1.2c-2.4-2.6-3-2.8-7.9-2.2-5.2.6-5.3.5-6.7-2.7-1.1-2.6-1.9-3.2-4.3-3a9 9 0 0 0-4.7 1.9c-1.4 1.2-2.4 1.4-4.6.7-3.9-1.3-3.8-4.7.2-5.1 1.7-.2 3.6-.8 4.3-1.4 1.8-1.6 1.4-4.6-.8-5.3-2.9-.9-1.8-5.1 5.1-19.1l6-12.1 4.7-.9c4.5-.9 6.9-.9 12 .2m-51.8 9.8c2 2 1 3.6-2.1 3.6-3 0-3.1-.1-2.5-3.4.4-1.9.2-3.7-.3-4.1q-1-.6.2-3.2l1.2-2.6 1.2 4.3a18 18 0 0 0 2.3 5.4m128.1-1.1c-.1 1.2-1.5.9-1.9-.4q-.4-1 .8-.8 1 .5 1.1 1.2m-67.5 2.8q.4.8-.5.9c-1.7 0-4.1-1.2-4.1-2 0-1 3.8-.1 4.6 1.1m21.5 3.3c.9.4 2.2.6 2.9.4q1.2-.2 1.8 1.1c.4 1.1-.3 1.2-3.4.7-4.1-.8-8.2-3.5-4.7-3.1 1 .1 2.5.5 3.4.9m40.1 1.3c3 3.3 6.8 10.5 6.8 13 0 1 .7 3.1 1.5 4.7.8 1.5 1.4 4.7 1.4 7l-.2 4.1-.6-4c-.4-2.2-1.2-4.9-1.8-6a53 53 0 0 0-11-10.3c-2.7-1.7-2.9-2.8-.8-4.8q1.4-1.5.9-4-1.1-4.7 3.8.3m-63.2 1.8c2.2 1.3 2.3 1.4.5 1.4-1.1 0-3.3-.6-5-1.4-2.9-1.3-2.9-1.3-.5-1.4 1.4 0 3.6.6 5 1.4m36 .5q0 .9-.4 1-.6-.1-1.1-1-.4-1 .4-1 1 0 1.1 1m-27 5q2 1.1-.2 1c-.9 0-2-.5-2.3-1-.8-1.3.5-1.3 2.5 0m.7 7.5c2 .8 3.4 1.7 3.1 2-.6.7-7.6-1.4-8.3-2.5q-1.2-2 5.2.5m21.8 1.5c-1 1.1-2.3 2-2.8 2q-.8-.2.8-2c1.6-1.8 2.3-2 2.8-2q.8.2-.8 2m-21.7 6.7c1.2.7 2 1.9 1.6 2.5q-.7 1-1.5-.5c-.5-.8-2.3-1.8-3.9-2.2a9 9 0 0 1-3.6-1.6c-.8-1.3 4.5-.1 7.4 1.8m-90.8 2.8c1 2.4 2.9 5.8 4.1 7.4q2.2 3 1.4 4.8c-.5 1-1 6.1-1.1 11.3-.2 9.6-1.9 17-4 17-3.7 0-13.4-23.8-13.4-32.8 0-3.5.6-4.5 4.6-8.1 2.6-2.3 5.1-4.1 5.6-4.1s1.7 2 2.8 4.5m87.2 2q6.9.2-3 2.9l-5 1.4-.4-3c-.4-2.8-.3-2.9 2.1-2.2 1.4.5 4.3.8 6.3.9m-39.4 11.7c3.3 6.2 4 8.3 3 8.9-2.1 1.4-2.7 1-3-1.9-.4-3.9-3.6-3.5-6.6.8l-2.5 3.5.7-3c.4-1.7 1.9-4.2 3.3-5.7 2.5-2.6 2.4-4.8-.1-4.8q-1.3-.1-1.9-2.1t-1.9-1.3q-1.5 1 .1-.9c2.7-3.3 4.6-1.9 8.9 6.5m54.7-6.3q2.5.8-2 1.4c-2.2.4-5.5.7-7.2.7-4.4 0-11.2 2.7-14.3 5.6-2.1 2.1-2.3 2.7-1.3 4.4.7 1 1 2.6.7 3.3-.8 2.3 2.6 2.9 5.5 1 3.6-2.5 15.1-6.2 15.7-5.1 1 1.6-1.8 3.8-4.6 3.8a14 14 0 0 0-6.4 2.5c-2.7 1.8-5 2.5-8.5 2.5-4.8 0-8.4 2.1-6.1 3.5q.9.6 1 1.6c0 1.4-2.6 1.1-4-.6q-3.1-3.5-8.4 1.9c-2.7 2.9-3.6 3.3-6.6 2.9-4.3-.7-6-1.9-6-4.5 0-1.6.5-1.9 2.9-1.3s3.4.1 6-2.7c2.9-3.1 3.2-3.2 6.4-2 4.7 1.7 6.4 1.5 8.1-1q1.6-2.2 1-5.8c-.9-5.5 2.4-8.8 11.2-11a33 33 0 0 1 16.9-1.1m-36.8 2.7c4.9 1.9 4.7 3.9-.2 3-3.7-.7-8.5 1-8.5 3 0 .8 1.1 2.1 2.5 3 2.3 1.5 2.6 3.4.4 3.4-1.8 0-4.9-4-4.9-6.5a4 4 0 0 1 2-3.5c1.1-.6 2-1.7 2-2.5 0-1.9 1.4-1.9 6.7.1m45.9 3.2q-2.5 2.5-.5-.5 1.2-2 1.8-1.7.3.5-1.3 2.2m-15.4 2.1a20 20 0 0 1-7.5 1.3c-2.8-.4-2.9-.6-1.2-1.8 1.1-.8 4.2-1.4 7.4-1.3h5.6zm57.5 5.3q-.4 1.8-.4-2.2c0-4 .2-3.5.4-2.3a17 17 0 0 1 0 4.5m-44.6-2.5q-1.8 2.8-.5-1.2.7-1.4 1.1-1.1c.3.2 0 1.3-.6 2.3M91.5 537q-.6.9-1.6 1-.8-.1-.9-1 .1-1 1.6-1 1.3 0 .9 1m282.9 2.2a10 10 0 0 1-3 5.1c-3.8 3-2.7 9.4 2.5 14.1 1.7 1.6 3.1 1.8 8.1 1.3 3.4-.3 5.8-.1 5.4.4q-.3.8 1 .3 1.5-.5 2.2 1c.5 1.3.9 1.4 2 .5 2.4-2 1.5.6-1 3-2.4 2.2-2.4 2.2-9.2.5-9.5-2.3-12.9-4.1-11.4-5.9 1-1.2.4-2.3-2.7-5.9-3.4-3.9-4-5.2-4.1-9.3 0-5.9.4-6.6 2.8-5 1.7 1 2.3.8 4.2-1.1 3.1-3 3.9-2.8 3.2 1m111.6.8q1.7.9.3 2.1c-1.5 1.5-4.7.7-5.1-1.4-.4-1.9 2.3-2.3 4.8-.7m-390 1.5c0 .2-1.1 1.2-2.5 2.1-3 1.9-5.8.8-3-1.3 1.8-1.2 5.5-1.8 5.5-.8m303 3q0 1.3-1 1.5-.9-.2-1-1.5c-.1-1.3.5-1.5 1-1.5q1 .2 1 1.5m94.6 3.9a47 47 0 0 1-11.5 17.9c-5.6 5.9-9.4 8-18.9 10.1-10.3 2.3-18.8 1.4-24.2-2.8-2.2-1.6-4-3.4-4-3.8 0-1.2 2.9-1 6.6.4 2.5.9 5.3.9 11.1.1a62 62 0 0 0 38.7-23.1c1.5-2.4 2.9-4.2 3.2-4 .2.3-.2 2.6-1 5.2M117 546q0 .9-.9 1-1.3.1-2.5.6-1.8.8-1-1c.7-1.7 4.4-2.2 4.4-.6m213.4 3.9c-.9 1-3.6-2.8-2.9-3.9q.8-1.4 2.1 1.1c.7 1.3 1 2.6.8 2.8m-33.2 1.7c1.2 9.3 6.7 23.3 10.4 26.5a51 51 0 0 0 17.7 6.9c3.1.6 5.7 1.5 5.7 2s-1.9 4.5-4.2 9l-5.3 10c-.5 1.1-1.9 2-3 2.2-1.7.3-2 .9-1.7 4.8l.3 4.4-2.4-2.2-2.4-2.3-3.7 2.3c-3.2 2-3.6 2.7-3.1 5.3.3 1.6 1.5 4.3 2.6 5.8s1.8 3.3 1.6 4-1.9-1.2-3.7-4.1c-3.2-5.1-6.2-6.7-7.3-3.8-.3.7 1 3.5 2.9 6.1a22 22 0 0 1 3.4 6.2c0 3-3.6.5-7.3-5-2-3.1-4.2-5.7-4.8-5.7-2.1 0-2.2 3.5-.1 7.2l2.1 3.8-4 2c-2.4 1.3-4.8 1.8-6.3 1.4-3.6-.9-8.9 3.3-8.1 6.4q.6 2.3-.5 1.7c-.5-.3-1-1.2-1-1.9q-.2-1.4-1.5-2.6c-2.4-2-4.7.4-3.4 3.6 1.3 3.5 1.1 4.4-.6 4.4-.9 0-2.4-1.3-3.3-3q-2.6-4.7-5-1.7c-.9 1-.7 1.9.4 3.6 1.7 2.3 1.3 3.8-.5 2.6-.6-.3-1.1-1.4-1.1-2.4 0-2.8-2.6-4.6-4.4-3.2-1.1.9-1.2 2-.5 4.4 1.3 4.5 1.2 4.5-1.8.9-2.5-3-3-3.2-4.7-1.9s-1.8 1.5-.1 4.1c2.6 3.9.8 4.6-2.3.9q-3.9-5-5.5-.1-.6 1.7-2.6 1.1c-2.1-.5-2.5.2-2.1 4.2.2 1.9.1 1.9-2.3-.3l-2.5-2.4-1.7 2.5q-1.5 2.4-3.5 2-1.9-.5-3.4 2-1.6 2.5-4 2-2.5-.7-3.1 1.7-.7 2.3-2.7 1.7t-4.1 2c-2.9 3.3-6.2 5.2-5.4 3 1.1-2.8-1.6-3.8-4.7-1.8-2.9 2-9.6 10.7-9.6 12.6 0 1.6-16.7 16.3-21 18.5-8.5 4.3-32.8 10.9-35 9.5-.6-.4-2 .1-3 1a4 4 0 0 1-3.9 1c-1.7-.5-2.1-.2-2.1 1.4q0 2.1-2 2.1a10 10 0 0 0-3.8.9l-3.4 1.5c-1 .3-1.8 1.5-1.8 2.7 0 1.8-.4 2-2.5 1.5s-2.7-.2-3.5 1.9c-.5 1.4-1.6 2.5-2.4 2.5s-1.9.7-2.6 1.5q-1.2 1.4-3.4.9c-2.4-.6-6.1 2.7-6.8 6.1-.3 1.5-1 1.9-3.1 1.7-2.3-.2-2.7.1-2.7 2.1q0 4.9-7.3 5.6-.7.3-.5 1.8.4 1.9-1.9 1.5c-2.8-.4-3.8 1.4-2.1 3.6q1.8 2.3-.4.3c-1-.7-2.5-1-3.4-.7-1.6.6-1.6.8 0 2.4.9 1 1.6 2.6 1.6 3.5 0 2.4-7.1 9-12 11.2-4 1.8-4.5 1.8-8.9.3-2.5-.9-6.8-2-9.6-2.4-3.1-.4-5.5-1.4-6.3-2.6-1.7-2.4-3.2-1.5-2.4 1.5q1 2.9-1.1.8c-1.7-1.4-2.1-1-1.8 2.1.4 3.3-1.6 1.9-7.4-5.2a64 64 0 0 0-8.4-8.9l-2.6-2 2.9-1.1a23 23 0 0 1 8.7-.4c5.1.6 6.4.3 11.1-2.1 2.9-1.5 6.4-3.7 7.8-4.9 1.4-1.1 4.6-2.9 7-3.9l8.9-3.9c5-2.2 26.2-16.7 39.1-26.7l15.5-11.9c3.8-2.9 8.1-6.9 9.5-9 3.2-4.6 27.6-23.9 31.2-24.6q2.7-.5 5-4.7c2.2-4.2 9.7-9.6 20-14.7 2.1-1 11.6-9.3 21.2-18.3 22.3-21.1 30.3-27.9 32.7-27.9 3 0 6.2-3.8 5.5-6.5q-.6-2.3 1.9-5.3c1.4-1.7 3.1-4.8 3.9-6.9q2.6-7.5 5.4.5c.7 2.3 2.7 5.5 4.3 7.1 4.3 4.4 13.5 9.4 15.8 8.6 2.4-.7 3.7 1 1.4 1.9-4.7 1.9 8.5 4.8 21.7 4.9 6.6 0 18.1-1 18.8-1.7 1.1-1.2-1-5.7-3.5-7.3-1.5-1-5.8-4.8-9.5-8.6a50 50 0 0 0-7.6-6.7c-.4 0-1.9-2-3.4-4.4-3-4.6-3.3-7.6-2.2-19.8.6-6 .9-6.8 3.3-7.7 7.4-2.8 8.5-2.4 9.3 3.5M383 547q-.1.9-1.1 1-.8-.1-.4-1 .6-1 1.1-1 .4 0 .4 1m-72.3 2.6c.3.9-.2 3.1-1.1 5q-2.7 5.4 3 4.2c1.5-.2 1.8.2 1.6 2.4-.4 3.4 2.2 8.5 4.7 9.3 3.1.9 3.3 3.3.5 5.2-3.2 2.1-7.3.9-9.1-2.7-3-5.8-6.6-16.7-6.7-19.9-.1-2.9.3-3.6 2.4-4.2 3.8-1.1 4-1 4.7.7M470 551c-2 1.3-4 1.3-4 0q.2-1 2.8-1 3-.1 1.2 1m-14.8 5.2q-1.1 1-1.2.2 0-1 .7-1.7t1.2-.2q.3.6-.7 1.7m-371.9 1.4c.5.5-4.4 10.8-5.8 12.3-.8.8.7-9.3 1.7-11.2.9-1.7 2.9-2.3 4.1-1.1m254.6 2.5c.9 2.7.9 3-.4 1.9a5 5 0 0 1-1.5-3.1q0-4.1 1.9 1.2m25.1-.6c1 1.3 1 1.9-.2 3.3-.8.9-2.9 4.2-4.5 7.2-6.3 11.4-8 14-8.8 13.3q-.6-.6-.1.4c.8 1.4-2.3 7.3-3.7 7.3q-.8.1-.4 1.4c.3.8-.2 2.5-1.1 3.8s-2.7 4.3-3.7 6.8a231 231 0 0 1-16.1 30.4c-1.6 1.9-3.7 3.5-4.6 3.5-2.2.1-2.4-1.5-.4-2.2.8-.3 3.1-3.8 5-7.8 2-4 4.2-7.9 5-8.8a44 44 0 0 0 4.1-8.1c3.8-9.1 10.3-21.8 13.5-26.5 1.5-2.2 3.9-6.4 5.4-9.3 1.4-2.8 3.1-5.2 3.7-5.2q.9 0 .4-1c-.6-.9 3.5-9.9 4.6-10q.7.2 1.9 1.5m-270 4.9c.7 1.4 1 3.1.7 3.9a49 49 0 0 1-12.2 10.5 68 68 0 0 1 9.4-16.8c.4 0 1.3 1.1 2.1 2.4m328.5-1.4q.4.9-.4 1-1-.1-1.1-1 0-1 .4-1t1.1 1M221 566.1q0 1.8-1 1.4c-.5-.3-1-1.3-1-2.1s.5-1.4 1-1.4q1 .1 1 2.1m120.4-.5q1.4 3.5-.9 1.4c-1.7-1.4-2-3-.6-3q.9.1 1.5 1.6m76.4 5.1q.6 2.4-2.3 3.3-6.3 2.6-4.9-1.3 1.4-5 4.8-4.5 2 .4 2.4 2.5m-313.3.2c.6 1-2.5 3.1-4.6 3.1q-1.1 0 .6-2 2.8-3.2 4-1.1m122 3.3 1.1 5c.4 1.5.1 1.5-2.6.5-3.2-1.2-3.5-2.1-2-6.1q2.1-5.2 3.5.6m142.5.5q2.5 1.7 8.8 1.9c3.5.1 6.9.7 7.5 1.4q1.5 1.4-1.8.6-3-.6-5 .8c-1.9 1.4-1.9 1.5-.2 3.3.9 1.1 1.7 2.4 1.7 2.9 0 1.2-5.1 9.1-10.4 16.1-3.5 4.6-4.2 5.1-7 4.6-4.6-.7-6.5 1.7-4.1 5.3 1.7 2.6 1.7 2.9-.1 5.8l-6.8 9.8-8.6 11.7q-3.5 5-6.9 6.2c-2.9 1-3.2 1.4-2.7 4q.5 2.8-1 4.4c-1.4 1.3-1.9 1.3-5.5-.5q-6.2-3.2-2.4-6a6 6 0 0 0 1.5-3.9c0-1.7 2.6-6.8 6.3-12.7 3.5-5.4 11.2-19.4 17.2-30.9 11.1-21.6 14.1-26.5 16-26.5.6 0 2.2.8 3.5 1.7m56 4.3c0 1.1-.7 2.3-1.5 2.7q-3.2 1.2-2-2.6c.8-2.7 3.5-2.7 3.5-.1m-165.6-.4c2 .8 2.3 8.4.3 8.4-1.7 0-5-5.7-4.3-7.6.6-1.5 1.6-1.7 4-.8M324 580q0 .9-.4 1-.5-.1-1.1-1-.4-1 .4-1 1 0 1.1 1m134.5 9.7c-1.4 8.5-6.2 25.2-9.7 34q-3.1 7.5-5.9 5.8c-1.1-.8 0-9.3 1.8-12.8.7-1.5 1.8-5.7 2.3-9.5 1.6-12.1 3.9-23.4 5-24.8 1.2-1.3 6-2.4 7.1-1.4.4.3.1 4.2-.6 8.7m6-1.2q-2.5 12.8-2.5 6c0-3.1 3-14.8 3.7-14.2.2.2-.3 3.9-1.2 8.2m-24.4-5.3a68 68 0 0 1-3.2 22.3c-1.2 4.9-2.4 10.7-2.6 12.7q-.5 3.7-1.9 3.8c-1.8 0-1.8-.9.1-5.4.9-2 1.4-4 1.1-4.4s.4-4.1 1.6-8.2c1.1-4.1 1.9-9.8 1.9-12.5-.1-6.1.7-10.5 2-10.5q.8.2 1 2.2m-208.1.3q1 1.4.2 1.5-.9-.2-1.6-1.5-.5-1.3-.2-1.5c.3-.2.9.7 1.6 1.5m-13.7 3.2c-.3 2.1.3 3.5 2.6 5.7 1.7 1.7 3.1 3.3 3.1 3.8 0 1.6-2.3.7-4.6-1.7-4.6-5-7.1-1.6-2.8 4 2.2 2.9 2.5 3.8 1.5 4.8q-1.3 1.5-2.5-.7c-.6-1.1-2.1-3-3.3-4.3a10 10 0 0 1-2.3-2.9c0-.5 8.1-11.4 8.4-11.4.2 0 .1 1.2-.1 2.7m176.5 2.3c.3 2.1.2 2.2-1.2 1.1-1.9-1.6-2.1-4.4-.3-3.9.6.3 1.4 1.5 1.5 2.8m-165-.6c.7.8-1.2 3.6-2.4 3.6s-3.4-2.9-3.4-4.5c0-.6 5.1.2 5.8.9m38.4 2.8c-.6.6-1.6.7-2.2.3q-1.4-.7.1-1.6c1.7-1 3.4 0 2.1 1.3m116.8.4q-.1 1.3-1 .9-1-.7-.5-1.6 1.4-2 1.5.7m22.4 10.3c2.3 2.5 2 5.6-.7 7.4-1.7 1.1-2.7 3.2-3.7 8.1-.8 4.1-1.9 6.6-2.7 6.6-1.6 0-1.7-2.1-.1-7.2 1-3.3.9-4.1-.2-4.8q-1.4-.9-3 .5c-.8.7-2.6 1.1-4.1.8q-2.5-.4-3.8 1.1-1.4 1.5-2.9 1.6a6 6 0 0 0-3.4 1.7c-1.5 1.4-1.8 1.4-1.8.1 0-.8 3.9-5 8.8-9.3a101 101 0 0 0 11.2-11.4l2.5-3.7 1.1 3.4c.7 1.8 1.9 4.1 2.8 5.1m17.6-3.3c0 1.3-.4 2.4-.9 2.4-1.3 0-2.4-3.7-1.6-5 1-1.6 2.5-.1 2.5 2.6m-45 .9q-1.2 1.3-2.2 1.5-.9-.2.2-1.5c1.1-1.3 1.7-1.5 2.2-1.5q.9.1-.2 1.5m-169.2 4.1c2.4 3.7 2.3 6.8-.1 5.8-2.2-.8-5.9-6.4-5.3-8 .9-2.4 3-1.6 5.4 2.2m83.5-2.9c-.7.2-1.9.2-2.5 0q-1-.5 1.2-.5c2.2 0 1.9.2 1.3.5m167.2 3.5c-1.1 6.7-7.2 24.2-9.1 26s-2.2-.7-.5-4c1-2 3.3-8.4 5.1-14.2s3.4-10.8 3.7-11.3c1.1-1.8 1.4-.3.8 3.5m-31.8 0q-.5 1-.5-1.2c0-2.2.2-1.9.5-1.3.2.7.2 1.9 0 2.5m-224.9 6.1c1.2 1.3 1.9 2.6 1.6 3-.7.7-6.4-3.3-6.4-4.5 0-1.6 2.7-.8 4.8 1.5m223.9-.1q-.5 1.1-.6-.6t.5-1.3c.3.3.4 1.2.1 1.9m-17.2 3.6-1 5.4c-.9 5.9-2.9 4.7-2.2-1.2.3-2.8.9-5.5 1.2-6 1-1.5 2.4-.2 2 1.8m5.7 1.7c-.2 1.4-.8 2.5-1.3 2.5-1 0-1.2-2.1-.3-4.4s2.2-1 1.6 1.9m9.8 3c-.7 3-1.7 5.5-2.3 5.5q-.8-.1-.2-1.8l1.1-3.2.9-4.4c.3-1.5.9-2.6 1.2-2.2s0 3.1-.7 6.1m-226.6-2.6c1 1 1.3 2.2.8 2.5-1.2.7-5.4-2.3-4.7-3.5q1.2-2.1 3.9 1m194 3.8c-.7 4.2-1.9 6-2.8 4.5-.6-1 2-8.2 3-8.2.3 0 .2 1.7-.2 3.7m-199.4 2c1.8 2.4 1.9 2.8.6 4.2-1.4 1.3-1.7 1.3-3.4-.2-3.5-3.2-6.7-1.1-3.6 2.4 1.3 1.5 1.5 2.2.6 3.1s-1.7.6-3.5-1c-1.3-1.2-2.8-2.2-3.5-2.2-2.1 0-2.4 2.1-.6 4.1 2.3 2.5 1 3.7-1.6 1.4-2.8-2.5-4.9-.7-3.3 2.8 1.6 3.4.2 5.1-3.5 4.2-3.4-.7-5 .8-3.1 3.1 1.5 1.8.3 3.2-1.3 1.6-2.2-2.2-3.8-1.3-3.8 1.9q0 3.4-1.5 2.5l-3-1.2q-1.4-.5-1.6.7l-.3 2.4c-.1 1.3-7.7 8.7-13.4 13.2-4.6 3.6-5.9 3.5-9.5-.5-1.8-2-1.8-2.1.1-3.1q1.9-1.1 4.1.5c1.7 1.2 2.5 1.3 3.6.4 1.3-1.1 1.2-1.6-.5-4-1.1-1.6-2-3.3-2-3.9 0-2 1.7-1.2 2.8 1.4 1.2 2.5 3.6 3.3 4.7 1.5.3-.5-.4-2.8-1.5-5.1-2.2-4.3-2.2-6.1 0-3.4 1.4 1.7 4 2 4 .6 0-.5-.5-2.2-1-3.7-1.3-3.4.1-5.4 2.5-3.4 2.5 2.1 4.4-.4 2.1-2.9-1.6-1.8-1.6-1.9.7-1.9 1.4 0 4.5-1.4 7-3.1s4.9-3.1 5.3-3.1 2.3-1.2 4.2-2.7a20 20 0 0 1 6.6-3.2c1.7-.4 3.1-1.2 3.1-1.8q0-3 5.5-3.6l4.7-.5c.6-.1 2.1 1 3.3 2.5m167.9 0-2.6 3.2q-.3.3-.8-.1c-.7-.7 3.4-5.8 4.7-5.8.7 0 .1 1.2-1.3 2.7m-49.1 1.1c.6 1.8-1.5 1.4-2.2-.4q-.5-1.5.6-1.2 1.1.5 1.6 1.6m146.7 5.2c-2.3 4.4-3.1 3-.9-1.6 1-2 2-3.2 2.2-2.6s-.4 2.5-1.3 4.2M313 640.4c0 1.7 2.5 2.7 4.7 1.9q1.9-1 .8 1.3c-.4 1-.9 4.6-1.1 7.8-.3 7.2-.5 8-5.5 23.6-5 15.8-4.8 15.6-8.9 14.1-1.8-.6-5.4-1.2-7.9-1.3l-4.6-.1 4.2-.4c2.3-.2 4.6-.9 5.1-1.6a93 93 0 0 0 7.9-27.8c.5-7.4.5-7.7-1.9-9.3-4.7-3-8.9-3.8-11.7-2-5 3.2-10.1 10.6-10.1 14.7q0 2.8-1.2 2.5-3.8-1.2 2.2-11c2.2-3.7 4-7.3 4-8.1 0-3.1 2.4-3.7 10.1-2.7 10.2 1.3 10.6 1.3 11.2-1s2.7-2.7 2.7-.6m-13.1 12.2c.7.6-6.2 6.3-7.6 6.4q-2.6.1.3-5.1c1.3-2.6 1.9-3 4.2-2.4 1.5.4 2.9.9 3.1 1.1m41.5 0c.4.9-.1 2.9-1.1 4.3s-2.3 3.7-3 5.1q-1.4 2.8-1.3.7c0-.9-.5-2.5-1.1-3.5-.9-1.4-.5-2.4 1.8-4.9 3.2-3.7 3.8-3.9 4.7-1.7m-13.5 9.3q3 2.8 2.5 4.5c-.8 2.1 1.4 8.3 3.5 9.8q1.9 1.2 2.3 7.1c.4 5.5.3 6-2 7-2.1 1-2.7.9-3.6-.8-2.1-3.7-6.4-7.4-9.2-8-5.4-1.2-5.3-1-3.4-6.7 3.2-9.5 4-12.4 4-14.1 0-2.5 2.4-2 5.9 1.2m-27.1 6.5c-2.9 10.9-4.5 13.9-7 13.3a64 64 0 0 0-34.9 10.7c-3 2-5.5 3.2-5.7 2.8a127 127 0 0 1 20.1-20.6c1.6-1 5.8-2.9 9.5-4.2 3.6-1.4 9.1-4.3 12.1-6.5 7.1-4.9 8.1-4.1 5.9 4.5m-167.8-.2c3.1 3.4 3.8 5.8 1.8 5.8-2.1 0-7.6-6.8-6.4-8 1.4-1.4 1.2-1.4 4.6 2.2m-5.6 6.1c2.7 4 .8 5.5-2.8 2.2-4.1-3.8-6.7-.5-2.9 3.7 1.5 1.7 1.5 2 .1 3.4s-1.8 1.3-4.3-2c-1.5-1.9-2.5-3.9-2.3-4.5.7-1.8 9.3-7.7 9.8-6.7zm-13.6 10.3c2.5 4 2.7 5 1.1 5.9-2.7 1.7-7.5-6.5-5.2-8.8 1.1-1.2 1.7-.7 4.1 2.9m-7.6 5.9c1.6 1.4 3.8 2.5 4.9 2.5 2.6 0 2.4 1.5-.3 2.7-2 .9-2.8.6-5.6-2-3-2.9-3.5-3-5.5-1.8-2.1 1.3-2.1 1.2.2-1.3 1.4-1.4 2.6-2.6 2.9-2.6s1.7 1.1 3.4 2.5m-8.3 9.7 2.4 4.2-2.8 2.3c-1.5 1.3-3 2.1-3.4 1.8q-.4-.7 1.2-1.9 3.2-2.3.2-4.6c-1.5-1.3-2.1-6-.7-6 .4 0 1.8 1.9 3.1 4.2M91 711.3q-.2.8-2.5-1.3c-2.3-2.1-2.5-2.8-2.5-3.3q.2-.8 2.5 1.3c2.3 2.1 2.5 2.8 2.5 3.3m-5 3.9c0 1.5-2.7.8-4.5-1.2q-1.7-2-1-3.7c.6-1.6.9-1.5 3.1 1.2 1.3 1.6 2.4 3.3 2.4 3.7m-7.8 1.5c2.1 1.8 2.3 3.3.6 3.3-1.4 0-4.8-3-4.8-4.2s2.2-.9 4.2.9m-9.2 8.4q0 .9-1 .4t-1-1.6q.1-.9 1-.4a2 2 0 0 1 1 1.6m-8 5.9q0 1.8-.9 2c-1.4 0-2.3-1.8-1.6-3 1-1.7 2.5-1.1 2.5 1m-14 5q0 .9-1 1a1 1 0 0 1-1-1q.1-1 1-1t1 1m443.9 4.9c1.7 1.1.7 4.1-1.2 4.1s-4-2.6-3.2-4q1.4-1.9 4.4-.1m-465.9.9c0 1.5-2.4 3.2-4.7 3.2-2.9 0-3-1.4 0-2.8 2.7-1.3 4.7-1.5 4.7-.4m1 6.6q0 .5-1 1.1-.9.4-1-.4.1-1 1-1.1 1 0 1 .4m454.5 5.5c.7 1.2-1.2 2.4-2.5 1.6-1.1-.7-.4-2.5 1-2.5q.8 0 1.5.9m-2 10q.4 1-.5 1.6c-1.5.9-4.3-.3-3.5-1.5.8-1.3 3.2-1.3 4-.1m18 5.6c0 1.8-.7 2-5.5 2-4.1 0-5.5-.4-5.5-1.5 0-1.7 3.7-2.9 8-2.7 2.3.2 3 .7 3 2.2m-33 20.5q-.6.9-1.6 1-.8-.1-.9-1 .1-1 1.6-1 1.3 0 .9 1m-31.1 9.9c.8 1.2-1.4 1.9-3.7 1.3q-2.2-.5-.5-1.3c1.7-1.1 3.5-1.1 4.2 0m37.6 3.6q0 1.5-3.5 1.5c-1.9 0-3.5-.4-3.5-.9s.8-.7 1.9-.4 2.2 0 2.5-.6c1-1.6 2.6-1.3 2.6.4m16.4 1.6q-.8 1.2 1.7.6c1.3-.3 3.1-.2 3.9.3q2 1-.5 1.1c-5.4.3-11.2-.4-12.2-1.5q-.5-.8 1.9-.2c1.5.3 3 .2 3.3-.4.3-.5 1.1-1 1.6-1q.9.1.3 1.1"/><path d="M115.5 173c-.7 1.2 1.2 4 2.7 4 1.3 0 .6-4.3-.9-4.7q-1-.2-1.8.7m248 70q-.5 1 .5 2.6 1.3 1.6 2.6.3 1.6-1.2.3-2.5-2-2.5-3.4-.4M160 198.5q.1 1.4 1.6 1.5 2 .1.4-1.5-1.2-1.4-1.6-1.5-.3.1-.4 1.5m248.3 95.6c-2.6.9-3 3.1-.9 4.8.7.6 3.9 1.6 7 2.2 3.1.5 7.4 1.6 9.5 2.4 3.3 1.1 4.2 1.1 5.7 0q4.3-3-7.3-6c-3.8-1-7.9-2.3-9.3-3a6 6 0 0 0-4.7-.4m-4.2 10.8c-.8.5-1.1 1.6-.8 2.5.9 2.3 11.5 2.3 12.4.1q.5-1.5.2-1.9a28 28 0 0 0-11.8-.7M374 348.5q-1.1 1.4-.4 1.5c.7.1.2.5-.6 1q-2 1.1.1 1 1.6-.1 2.1-2.5c.6-2.9.5-3-1.2-1m-12.1 1.2v2.3c.1 1.1-.9 1.5-3.8 1.4-3.6 0-3.9.1-3 1.8q.9 1.6 1.5 1.8c1.3 0 6.4-3.1 6.4-3.9 0-.5.3-1.6.6-2.5q.4-1.5-.5-1.6-1.3 0-1.2.7m56.2 13.7q-1 1.4-.3 2 1 .4 1.5-1.4 1-3.5-1.2-.6m-67.6 115.5q-.4.9.5 1.6c1.2.7 3-.2 3-1.6 0-1.2-2.7-1.2-3.5 0M308 510c-3 1.6-6.2 3.6-7.1 4.5s-2.6 1.5-3.8 1.5c-5.4 0-10.2 7-8.2 12.1a9 9 0 0 0 8.9 6.2c8.1-.3 11.7-1.5 15.7-5.3 2.2-2.1 4.9-4 6-4.2 1.7-.3 2-1.2 2.1-7.3.3-11.1-3.2-13-13.6-7.5m9.4 2.1c1.9 2.7 1.1 4.6-2.6 6.5q-4.7 2.4-4.8-1.2.1-1.3 2.5-1.4c2.7 0 4.8-3.1 2.7-3.8q-1.1-.4-1.2-1.3c0-1.6 1.8-1 3.4 1.2m-13.1 13.6c-2.8 4.8-7.3 5.8-9.8 2-.8-1.3-1.3-3.2-.9-4.1.7-1.9 2.1-2.1 2.7-.4q.3 1.5 2.3-.3c1-1 2.8-1.9 3.9-2.1q5.1-1.1 1.8 4.9m-38.8 4.3c-1.3 2.1-9.9 5.2-14.1 5.1-2.3 0-5 .6-6 1.4-1.8 1.4-1.8 1.6-.1 2.6.9.5 1.7 1.7 1.7 2.4q.1 3.1 4.7-.5 4.5-3.5 4.3-.5c0 1.4-5.4 5.5-7.3 5.5-.4 0-1.9-1.2-3.2-2.6-3-3.2-6-2.7-4.9.8q1.4 4.9 4.5 4.8c1 0 2.6 1.1 3.4 2.4q1.6 2.5 5.8 3.1c3.5.6 4.4.4 5.8-1.4.9-1.1 2.7-2.1 3.9-2.1s4.2-2 7-4.8c3.9-3.8 4.9-5.5 5.4-9.3.5-3.5.3-4.9-.8-5.8-2.2-1.8-9.2-2.6-10.1-1.1m3.5 8q1 0 .7.8c-.4.6-3.8.7-7.9.3-1.7-.2-.6-2.1 2-3.5 2.5-1.3 2.8-1.3 3.4.5q.7 1.7 1.8 1.9m-3.2 6.8q.2 1.1-1.2 1.2-1.5-.1-1.6-1.6c0-1.7 2.2-1.4 2.8.4m-6.8 3.3q0 1.8-1.8 1.9-4.2 0-1.6-3.1c1.9-2.1 3.4-1.6 3.4 1.2m2.3 6.9c-3 1.2-2.9 3 .2 3 2.8 0 7.5-2 7.5-3.2 0-1.1-4.9-.9-7.7.2m58.8 35.9c-1.9 1.2-.6 4.1 1.9 4.1q2.3.2 1.8-2.2-.6-3.8-3.7-1.9m-3 6c-1.5 1-.8 4.1.9 4.1 1.5 0 2.5-2.9 1.4-4q-1-.7-2.3-.1m-33 32.5c-1.7 2.1 3.1 7.7 5.1 5.8 1-1 1-1.7-.2-3.9q-2.6-4.8-4.9-1.9M336 606q.1.9 1 1 1-.1 1-1t-1-1a1 1 0 0 0-1 1m-5.8 80.1q.5 1.2 1.7 1.7 1.3.4.9-.9-.5-1.2-1.7-1.7-1.3-.4-.9.9M419.5 1.8c-2.2 1.1-6.9 1.6-19 1.8-13.7.3-17.1.7-23.5 2.8l-16.5 5.1a449 449 0 0 0-43.4 15.1 33 33 0 0 1-6.6 2.4c-.7 0-2.3.9-3.6 1.9-2.4 1.9-2.4 1.9-.5 4q1.9 2.1 1 3a90 90 0 0 1-21.5 7.2 75 75 0 0 0-12.9 4c-3.8 2.1-7.5 2.5-8.5.9-.3-.6.3-2.3 1.4-3.9 1.8-2.5 1.9-3 .6-4.1s-2.8-.9-8.4.9a49 49 0 0 0-10.3 4.6 60 60 0 0 1-7.5 4.5c-4.2 2.2-6 4.5-4.3 5.5q2.9 1.9-2.7 3.3c-2.1.5-7.4 1.8-11.8 2.7-12.9 2.9-15.5 4.2-17.6 9.1-2.1 4.5-3.2 5-16.1 6.9q-8.3 1.2-2.3-3.7c2.8-2.2 3.2-4.3 1-5.2-3-1.1-13.3 1.7-24 6.6L146 84.7l-8.7 3.9q-4.8 2.2-2.5 3.8c1.3.8 10.1-2.7 23.7-9.4 6.6-3.2 13.3-6.2 14.8-6.6 2.8-.6 2.8-.6 2.2 3-1.3 6.6 3 8.4 10.7 4.5a70 70 0 0 1 10.9-3.9c7.9-2 11.6-4.2 12.8-7.3.9-2.4 10.3-5.9 19.1-7.2 7-1 20.4-4.6 21.8-5.7 1.6-1.4-.1-3.6-3.1-4-3.5-.5-2.4-2 3.9-5.5 7.1-4 7.8-4 7-.7q-1.3 5.3 5.2 5.4c3.8 0 42.6-12.6 49.2-16 4.4-2.2 4.8-3.4 2.4-6.1-1.9-2.1-2.1-2 11.2-6.4l20.1-7.4c7.2-2.8 17.3-6 22.5-7.1 11.7-2.6 36.3-5.3 40.4-4.5 3.6.6 10.3-1.7 15-5.2l2.9-2.2H425c-1.4.1-3.8.8-5.5 1.7M498 16.2c0 2.5-.8 4-3.5 6.3-3.1 2.7-3.4 3.3-2.7 6 1.1 4 3.6 3.9 4-.2q.3-3.2 2.3-3.8c1.6-.5 1.9-1.6 1.9-6.1 0-3-.4-5.4-1-5.4s-1 1.5-1 3.2m-64.4 2.9a11 11 0 0 0-2.6 5.3c0 1.2-1.1 3.3-2.5 4.6-2.8 2.6-3.3 6.1-1 8 1.9 1.6 3.8.3 3.1-2.4-.6-2.5.1-3.9 3.2-5.5 1.7-.9 2.2-2.1 2.2-4.8q0-3.7 2.2-6l2.1-2.3h-2c-1.2 0-3.3 1.4-4.7 3.1m24 5.8q-.7 1 2.2 1.1c3.2 0 8.2 3.4 8.2 5.5 0 .8 1.3 2.1 2.9 2.9 1.6.9 3.8 3.2 5 5.1 2.4 4.2 4.7 4.1 4.4-.1q-.3-2.9-3-5.1c-1.5-1.2-4.4-3.9-6.4-5.9a11 11 0 0 0-8.1-4.1q-4.4-.5-5.2.6m-16.3 42.4c.2.6 1.9 1.6 3.8 2.2a6 6 0 0 1 4.4 4.3c.5 1.8 1.3 3.2 1.7 3.2 2.1 0 4.8 4.3 4.8 7.5q0 6 3.4 1.4c1.8-2.6.4-7.4-2.6-9a9 9 0 0 1-3-4c-1.1-3.3-3.6-4.9-9.1-5.9q-3.8-.7-3.4.3m-24.8 28.8c-1 1.5.3 2.5 1.6 1.2q1-1 .1-1.7-1-.4-1.7.5m-6.5 5.4c-.7.8-1 2.5-.7 3.7q.6 2.1-1.4 4.6-3.3 4.4-.6 5.5c1.9.7 4-.8 3.4-2.4-.2-.8.3-2.3 1.3-3.4q1.8-2 1.3-5.8c-.6-4-1.4-4.5-3.3-2.2M27.5 561.9c-2.2.4-6.1 1.7-8.7 2.9-5.7 2.5-6.1 4.5-1.7 9.1 2.3 2.5 2.8 3.5 1.9 4.6q-1.3 1.4.2 2.1 1 .8-3.7 2.3l-5 1.6.3 6.5q.1 6.5-1.4 10.5a83 83 0 0 0-2.9 15.3c-1.2 10-1.7 11.6-3.9 13.7-3 2.8-3.7 10.1-1.1 11.1 1.2.5 1.4 2.2 1 9.1-.3 4.6-.9 9.3-1.5 10.3-1.2 2.3-1.3 11-.2 11 1.5 0 4.2-3.6 4.2-5.6a8 8 0 0 1 1-3.4c1.5-2.3.2 4.5-2.2 11.3-1.1 3.1-2.5 6-2.9 6.3-.5.3-.9 5.6-.9 11.7l.1 11.2L2 700c1-2 2.3-6 2.8-9.1s2.3-8.2 3.7-11.5c1.5-3.2 3.5-9.2 4.4-13.3s2.2-7.6 2.9-7.9q1.3-.5 1 2.4c-.3 2.8-.1 2.9 3.2 2.6 5.6-.6 15-7.7 13.5-10.2-.3-.5 1.3-1.9 3.5-3.1a16 16 0 0 0 6-6.1c2.5-4.9 2.5-5.1-.7-6.5-2.2-1.1-3.7-.9-10.2 1.4a30 30 0 0 0-8.8 4.1q-1.2 1.4-1.9.9-.5-.7.5-2.1c1.6-1.9.6-3.6-1.9-3.6-1 0-2.2-.5-2.5-1s-1.9-1-3.6-1c-2.4 0-2.9-.4-2.9-2.4 0-4.5 1.7-7.5 3.9-6.9 1.2.3 2.1 1.4 2.1 2.4 0 2.4 2.7 3.6 4.8 2.2 2.5-1.5 2.6-3.4.3-4q-2.1-.5-2.1-2.9c0-1.8-.8-2.5-3.5-3.3a14 14 0 0 0-5.6-.4q-2.3.7-1.7-.8.6-1.3 2.6-1.1c1.6.2 2.3-.3 2.8-2.5l.8-3.7c.1-.5 2.2-1.6 4.6-2.5 3.5-1.3 4.6-2.2 4.8-4.1.2-1.4.8-2.9 1.3-3.4 1.9-2.1.9-3.6-2.5-3.6q-6.9 0-2-3.9c3.8-3 8.7-2.8 10.8.4.9 1.4 2.6 2.5 3.9 2.5 2.3 0 13.5-3.4 17.7-5.4 3.4-1.6 3.2-4-.3-4.4-1.6-.2-3.1-1-3.4-1.8s-2.1-2.1-4-2.9c-3-1.3-3.3-1.7-2.3-3q2.7-3.3-8-2.2c-4.2.5-6.1.3-6.9-.7-1.6-1.9-.3-2.6 5.1-2.6 2.6 0 4.8-.5 4.8-1q.1-1 1.8-1.8c3.6-1.6 8.2-4.7 8.2-5.7-.1-4.8-9.1-6.7-21.5-4.6m-16.2 88.7c-.6 8.2-3.3 10.3-3.3 2.6 0-2.7.3-5.2.7-5.6 1.4-1.4 2.8.2 2.6 3M15 768.9c1.2 2.3 2.9 3.5 3.6 2.8 1-.9-1.6-4.7-3.2-4.7q-1.6-.2-.4 1.9m5.5 7.1q.6.9 1.1 1 .4-.1.4-1-.1-1-1.1-1-.8 0-.4 1m1.5 5.9c0 2.2 1.5 3.5 3 2.6q1-.6 0-2.6c-1.4-2.5-3-2.5-3 0m-19 1.8a20 20 0 0 0 3.5 4.8q3.4 4 3.5 2.3c0-.9-1.2-3-2.6-4.7-2.4-2.9-4.4-4-4.4-2.4M373 828l-4.5.5v8.5l.5 16.5.5 8 5 .9c10.1 1.7 17.5-2.5 21.1-12 1.5-4 1.6-5.4.6-10.2q-2-9.6-6.7-11.2a46 46 0 0 0-16.5-1m12.6 6.6a17 17 0 0 1 2.4 18.3c-2.1 4.2-4.7 5.6-9.1 4.9-2.4-.3-2.4-.5-2.7-12.7-.3-13.2.4-15.6 4.2-14.6 1.2.4 3.5 2.2 5.2 4.1m-89.3-5.9c-4.7.5-5.2.9-2.6 2.8 1.6 1.2 1.6 1.5.1 5.1-1 2.2-2.2 6.5-2.9 9.6-.7 3.2-1.8 5.8-2.4 5.8-.7 0-2.4-2.6-3.8-5.8-4.8-10.6-4.8-10.8-2.6-13.5 1-1.4 1.9-2.8 1.9-3.1 0-.8-13.5-.8-14.2 0-.3.3.2 2.6 1.2 5.2 1.4 3.8 1.5 5.3.6 7.9-.6 1.8-1.5 3.3-2.1 3.2-1.3 0-3.4-6-4.3-11.9-.7-4.4-.8-4.5-4.6-4.8-4.6-.4-6.8 1.2-4.4 3 1.8 1.4 4 8.4 5.9 18.8q1.8 10.2 5.9 10c2.4 0 4.2-2.4 3.4-4.4-.6-1.6 3.4-10.6 4.7-10.6a29 29 0 0 1 4.3 6q6.1 9.9 9.9 8.4c1.6-.6 2.8-3.9 7.4-20.4 1.3-4.7 2.5-7.9 4.1-11.3q.3-.6-.5-.5zm43.5 0q-7 .7-3.8 2.8c1.4.8 1.3 27.2 0 28-1.5.9.8 3.5 3.1 3.5q5 0 4.9-8.6c0-3.1.4-5.4 1-5.4s4.2 3 8.1 6.6c5 4.7 7.6 6.4 9.2 6.2 3.2-.4 2.6-2.6-2.7-9.5-2.5-3.4-4.6-6.6-4.6-7.1s1.1-1.3 2.5-1.6c4.5-1.1 7-9.1 4.1-13.1-1.2-1.6-2.8-2-9.3-2.1-4.3-.1-9.9.1-12.5.3m13 3.5c1.6 1.6 1.5 6.3-.2 7.7-.8.7-3 1.1-4.8.9-2.9-.3-3.3-.7-3.6-3.6-.2-1.9-.1-4 .2-4.8.7-1.7 6.7-1.9 8.4-.2m56.1-2.8c-5 1.5-6.9 3.4-6.9 6.5 0 3.4 1.4 5.2 6.7 8.5 2.3 1.4 4.7 3.4 5.3 4.5 1.5 2.8 1.2 7.7-.5 9.1-2.4 2-6.4.4-7.1-2.8-1-4.8-1.3-5.2-3.3-5.2-2.7 0-5.1 3.7-5.1 8.1v3.6l5.8.5c6.4.6 14.8-.4 16.3-1.9.6-.6 1.5-3 2-5.3q1.9-8.5-6.9-14.3c-4.4-3-6.7-6.1-5.7-7.7q.8-.9 3.2 1c3.1 2.4 4.6 2.5 6.3.5 1.1-1.3.9-2-1-4-2.6-2.7-3.7-2.9-9.1-1.1m-175.4 2.9c-2.8 2.8-3.5 4.3-3.5 7.4q0 8.7 10.3 8.8c4.7 0 5.2.2 6.1 2.8 1.6 4.5-.2 6.2-6.4 6.2-4.7-.1-5.5-.4-8-3.5q-2.7-3.2-4.3-2.7c-1.7.6-3.4 8.5-2.1 9.7.5.4 5.2 1 10.4 1.4 11.5.7 15.1-.8 17.1-7.2 1-3.4.8-4.5-.9-8.5-2.3-5.2-4.5-6.3-9.9-4.8-3 .8-4.1.8-5.2-.4s-1.2-1.7.3-3.9c2-3.2 4.9-3.3 6.8-.4 2.4 3.6 5 1.7 4.6-3.4l-.3-4.3-5.8-.3c-5.5-.3-6-.1-9.2 3.1m72.2 1.6c-4.8 4.6-5.1 5.1-5.5 11-.8 10.7 2.1 14.3 12.3 15.5 5.1.5 6.8.2 11.1-1.8 4.1-1.9 5.5-3.3 7.3-7 2.6-5.3 2.3-8.7-1.6-15.4-2.9-5.1-7-7.2-13.8-7.2-4.2 0-5.2.5-9.8 4.9m13-.4c1.6 1.2 2.3 3.3 3.3 10.1.9 6 .9 9.3.2 10.9-1.2 2.5-4.8 3.6-8 2.4-5-1.9-7-15.5-3.2-21.7 2.2-3.5 4.4-4 7.7-1.7M11.5 832c-.4.6-.2 1.7.4 2.4 1 1.2 1.6 20.6.9 27.6-.3 2.3 0 2.5 3.7 2.5h4l-.3-5.7c-.4-5.7.3-9.8 1.7-9.8.3 0 2.4 2.2 4.4 5 2.9 3.8 3.6 5.6 3.1 7.5-.6 2.5-.5 2.5 5.5 2.5s8-1.3 4.4-2.7c-2.3-.9-6.8-5.4-12.1-12.2l-4.3-5.4 3.3-3.4c1.8-1.9 4.5-4.1 6.1-4.9q5.5-3.2-.6-3.4c-2.5 0-4.2.9-6.7 3.5-4 4.1-6.6 4.7-5.6 1.2 1.5-4.8 1.3-5.2-3.1-5.5-2.2-.2-4.4.2-4.8.8m56-.2c-5.3.5-5.7.9-4.1 3.4 2.7 4.4 3.2 18.9.6 17.3-.5-.3-2.6-3.6-4.6-7.3-6.2-11.1-8-13.2-12-13.2q-5 0-2.5 2.6c.5.5 1.1 6.2 1.4 12.6.3 9.2.1 12-.9 12.9q-1.3 1.1-1.4 1.9c0 1.4 3.1 2 5.1.9 1.8-.9 2-1.9 1.8-9.9-.2-4.9 0-9.2.3-9.6.7-.7 4.3 4.7 7.8 11.6q4 7.8 8.6 8c3.7 0 4.2-1.6 3.6-13.4-.4-9.5-.2-11.7 1.2-13.9 1.6-2.4 1.6-2.6-.1-3.4-1-.5-3.1-.7-4.8-.5m49.9.3q-.5 1 .4 1.8c.6.3 1.2 6.5 1.5 14.5.4 13.1.5 14.1 2.5 14.9q5.8 2.7 4.9-7.9c-.6-7.3.4-8.7 4.9-7.5 2.8.7 2.9 1 3.4 7.5q.5 6.6 2 7.6c3.8 2.4 4.2 1.1 4.2-16.3v-15.2h-6.6l.3 5.6c.1 3.2-.2 6-.8 6.3-.6.4-2.7.4-4.7 0l-3.6-.7.7-5.2c.6-4.9.5-5.3-1.7-5.9-3.6-.9-6.6-.7-7.4.5m29.4 0c-2.5 1.4-2.4 5.9.1 5.9 1.1 0 2.3-.5 2.6-1s1.5-1 2.6-1c1.5 0 1.9.7 2 3.2l.4 5.8c1.1 10 .9 12.9-.9 14.9-2.5 2.8-1.8 3.3 4.9 3.6 6.3.3 7.6-.7 4.7-3.8-1.9-2.1-2.9-10.3-2.4-20.5.2-3.6 3-4.6 3.9-1.2.6 2.4 4.5 2.7 6.2.6.7-.8 1.1-2.7.9-4.3l-.3-2.8-11.5-.2c-6.6-.2-12.2.2-13.2.8m-68.1.6c-.2.5 0 4.4.4 8.8a49 49 0 0 1-.7 18.2c-.8 2.8 2.3 4.5 6.6 3.7 2.6-.6 3.1-1 2.6-2.8-.3-1.2-.6-8.1-.6-15.4V832h-3.9c-2.2 0-4.2.3-4.4.7m21.8 0A17 17 0 0 0 91 841c-4.9 9.5-.1 20.8 9.5 22.6 7.7 1.4 14.9-4.4 13.6-10.9-.7-3.2-.8-3.2-6.6-3.2-3.6 0-6 .5-6.2 1.2q-.2 1 1.9 1.5 2.4.2 2.6 3.1c.5 4.1-2.5 4.8-5.5 1.1-3.2-4-3.3-13.8-.2-17.8 2.4-3 3.6-3.2 6-1 2.2 2 4.9 1.2 4.9-1.5 0-3.4-4.6-4.8-10.5-3.4m96.8 1.3c-4.9 2.9-5.1 6-1.2 13.3 4.1 7.7 4.4 15.5.9 21.2-2.9 4.7-.4 4.8 3.8.1 3.3-3.7 4.9-7.9 5.6-14.1q.4-3.9 1.6-3.7c2.5.6 4.1-2 3.4-5.7-1.1-5.9-4.6-8.3-5.9-4.1q-1.5 4.1-5.5-.7l-2.1-2.7 3.3-2.8c2.8-2.3 3-2.7 1.3-2.8-1.1 0-3.5.9-5.2 2"/><path d="M186 849.3c-3.4 1.7-5.5 5.7-4.6 9 1.3 5.1 10.3 7.2 13.7 3.1 1.8-2.2.5-9.5-2.1-11.6s-3.7-2.2-7-.5m5.6 5.3c1 3.9-1.3 5.5-3.6 2.6-2.2-2.6-1.6-5.2 1.1-5.2q1.8.1 2.5 2.6m251.5.3c-3.4.9-4.8 3.5-3.2 5.5 1.7 2 4.9 1.3 7.4-1.6 1.3-1.6 1.5-2.4.6-3.4-1.2-1.5-1.3-1.5-4.8-.5"/></svg>