<svg xmlns="http://www.w3.org/2000/svg" width="666.7" height="1170.7" viewBox="0 0 500 878"><path d="M304.5 43.7q-4.5 5.7-4.9 9.8c-.3 2.2-.8 27.8-1.1 57s-.9 69.6-1.5 90c-.5 20.3-1.2 50.7-1.4 67.5-1.2 69.7-2.2 92-3.8 92q-1-.1-2.3-1.6c-.9-1.3-2.8-1.6-8.1-1.6-5 0-8.2-.6-11.4-2.1a41 41 0 0 0-22.3-1.2c-4.6.7-5 .6-8.5-2.8-2-1.9-4.8-3.7-6.2-3.9a5 5 0 0 1-3.7-2.9c-2.2-4.6-5.2-6.3-14-8.1-4.8-.9-9-1.5-9.4-1.2-1 .6-17.8-4.3-19.8-5.8l-2-1.5c-1-.7 4.5-5.3 6.3-5.3a6 6 0 0 0 3.1-.8c1.8-1.3 3.7-6 3-7.2a26 26 0 0 1-.4-12.8c.5-1.2 1.7-2.2 2.8-2.2 3.7 0 4.1-2.1 1.9-10a93 93 0 0 1-2.4-16.8c-.2-5.2-.7-9.8-1-10.3s.1-2 .9-3.2 1.5-4.5 1.5-7.2c-.1-2.8.7-6.3 1.6-8s1.6-4.2 1.6-5.6.9-3.4 2-4.4 2-2.8 2-4c0-1.1.5-2.6 1.1-3.2 1.5-1.5.4-4.4-1.5-3.7-.8.3-2.7-.9-4.4-2.7s-3.4-3-3.8-2.6 0 1.5.9 2.5q3.5 4-.7 16.5c-1.4 4-2.8 8.9-3.2 10.9-.3 2.1-.9 3.8-1.3 3.8q-3.1-.2-3.8-6.3c-.5-4.5-.5-4.6 2.6-5.4l3.2-.8-4.5-3.2-4.6-3.3v-6.9c0-8 1.2-9.6 6.2-8.6 3.2.7 3.2.6 1.6-1.1s-1.9-1.7-5.3-.1c-1.9.9-4.1 2.8-4.7 4.2-1.3 2.9-1.6 3-4.2 1a9 9 0 0 0-4.4-1.5q-2.8-.1-1.2 1.4c.6.8 1.8 1.2 2.5 1 2-.8 5.5 3.2 5.5 6.1 0 3.3-4.6 10.2-7.4 11.2-1.1.4-3.9.8-6 .8-5.4.1-6.9 2.5-3.6 5.8 1.4 1.3 3.3 2.6 4.2 3s2 1.8 2.4 3.3q1.4 4.5-5.2 4.4-6.6.1-7-9.3l-.7-10c-.3-4.6-.2-4.9 5.8-11.2 3.5-3.6 6.2-6.5 6-6.5-2.1 0-6.7 2.8-8.4 5q-4 5.1-4.1 1.1c0-2.8-1.1-5.2-2.1-4.5-.5.3-.9 1.9-.9 3.5 0 3.6-2.4 3.5-2.6 0-.2-3.8-2.1-4.8-3.5-1.8-1 2.3-.9 3 .6 4.7q1.6 1.8.7 2-1.1 0-1.2-.9c0-1.5-6.6-4.1-10.5-4.1-3.3 0-3.6.2-2.5 1.5.7.9 2 1.5 2.9 1.4 4.2-.4 6.3.3 9.7 3.3q6.7 6 4.3 10.5c-1 1.9-.8 2.6 1.5 5.3 3.2 3.9 3.3 6.1.3 9.6-2.2 2.6-2.7 2.7-6.8 1.8-3.8-.8-4.4-1.3-4.7-3.7s.2-3 2.7-4c1.7-.6 3.1-1.6 3.1-2.2 0-1.8-2.3-3.5-4.6-3.5q-2.2 0-2.8-.9c-.3-.4-1.6-.6-2.9-.4-1.8.4-2.8-.2-4.2-2.4-1-1.5-2.6-3.6-3.6-4.6a8 8 0 0 1-1.9-5.1c0-3-.3-3.3-2.4-2.9-1.3.3-2.7 0-3-.6-.4-.6-3.2-1.1-6.2-1.1-8.1 0-13.4 3.7-13.5 9.4v3.1l-1.6-2.3c-1.9-2.7-3.7-2.9-3-.3q.5 2-.9 1.4-1.3-.4-1.4.5.1.9 1.5 1.6c.8.3 2 1.7 2.5 3.2.6 1.4 1.9 2.8 3 3.1 3.2.8 12.8 18.2 11.4 20.5-.9 1.4-.9 14.6 0 18.9.7 3.4-1 10.6-5.5 23.4-.6 1.6-1.8 5.9-2.6 9.5l-3.6 13.5c-2.2 7.5-2.4 8.1-2.6 9.2 0 .4-2-1.2-4.4-3.5-4.1-4-12.3-7.6-15-6.6-.7.2-4.6.8-8.7 1.3-34.1 4-48.4 8.5-58.7 18.7a21 21 0 0 0-7.2 18.7c.4 10 10.3 19.8 21.4 21.4 4.4.6 11.8-2.3 14.2-5.6 1.3-1.8 1.3-1.8 3.2 4.9a70 70 0 0 1 4.8 23.1c.7 12.1-.1 13.8-4.6 9.3-8.3-8.2-26.6-5.3-38.3 6.2-2.7 2.5-4.8 5.4-4.8 6.3s-.9 4.2-2 7.4c-1.5 4.3-2 8.2-2 16.4 0 11.9 1.3 15.6 6.7 18.9a93 93 0 0 1 9.1 8.2c3.5 3.5 7.9 7 9.8 7.8 2.8 1.2 3.4 2 3.4 4.4q0 3 1.5 3c3.5 0 .8-8.5-3.2-10.2-1.6-.7-3.4-2.1-4.1-3-.7-1-2.1-1.8-3.1-1.8s-2.2-1.3-2.9-3.4q-2.3-6-7.1-6.8c-6-.8-11-14.3-7.7-20.9.9-1.8 1.4-4 1.1-4.9a3 3 0 0 1 1-3c.8-.7 1.5-2.8 1.5-4.7 0-4.7 2.1-8.3 7.3-12.6 8.2-6.7 11-7.9 19.4-8 6.7-.2 8.3.1 11 2.1 1.8 1.3 3.6 3.5 3.9 5a9 9 0 0 0 2.1 3.9c1.3 1 1.4 3.8.9 19-.9 21.3-.9 20.5.4 36.8l1.5 23c.3 5.5.9 11.6 1.5 13.5 2 7 1.5 7.3-5 2.6a22 22 0 0 0-11.6-5.2q-9.9-1.2-16.2 4.1c-1.7 1.4-4 2.5-5.3 2.5s-3.9 1.4-5.8 3c-3.9 3.4-4.4 3.6-6.1 1.5-.7-.8-1.9-1.5-2.6-1.5-2.5 0-1.5 3.6 1.8 6l3.1 2.3 1.8-2.1c.9-1.2 2.2-2.2 2.7-2.2s1.5-.7 2.2-1.5q1.3-1.7 2.4-.5c2 2 4.2 1 8-3.6l3.9-4.6 5.9.5c5.9.5 13 3.5 15.8 6.6 7.6 8.4 8.7 10.5 11.9 23.6q4.4 18.5 2.6 18.5c-.3 0-2.2-.8-4.3-1.9-5.8-2.9-17.6-4.7-20.9-3.2-2.6 1.2-3 1-5.3-1.7-2.8-3.3-10.4-6.2-16.3-6.2-2.3 0-6.5 1.3-10.3 3.1-5.4 2.5-6.4 3.4-6.4 5.6 0 2.5.1 2.5 2.2.9 3.1-2.3 7.9-4.4 13-5.7 5.8-1.6 13.2 1 15.4 5.3l1.5 2.8h-3.4c-3.6 0-11.1 4.6-14.5 9-1.1 1.4-2.7 5-3.6 8.2-1.6 5.6-6 10.8-9.2 10.8-.8 0-1.4 1-1.4 2.2q0 2.5 1.2 1c.7-.7 2.2-1.2 3.3-1.2 1.2 0 3.1-1.3 4.3-3 1.3-1.7 2.9-3 3.6-3q1.3-.1 2-4.8c1.1-8.2 10.3-17.1 16.1-15.6 1.9.5 3.2 0 5.1-1.9 1.4-1.4 3.8-2.7 5.2-2.9 3.7-.4 15.2 1.9 17.9 3.7 5 3.3 9.3 8.6 9.3 11.5 0 1.5.4 3 .9 3.2.4.1 2.7 4.7 5 10A79 79 0 0 0 87.2 623c12.2 16 17 36.7 11.4 48.9-1.8 3.9-2.1 6.5-2.1 17.6 0 18.1 1.6 22.9 10.3 31.2 5.2 4.9 6.4 6.5 5.4 7.5a4 4 0 0 0 .2 5.8q1.6 1.1.6 3.3c-.5 1.2-1.2 3.9-1.5 6-.5 3.3-1.2 4.1-4.3 5.3-7.3 2.9-13.8 5.9-18.5 8.6-5.7 3.3-6.7 3.4-6.7.8 0-1-.5-3.1-1.2-4.6-1.1-2.4-1-2.8 1.5-4.8 3.4-2.7 3.4-3.6.2-3.6-2.7 0-3.4-2.1-1.3-3.7s9.1-3.1 12.8-2.8c4.3.3 6.6-1.1 4.9-3.1q-1.3-1.5 0-2.8c1.6-1.9-.2-3-3.2-2-1.2.4-5.4.6-9.2.5-5-.1-7.6.3-9 1.3-2.8 2.1-3.5 2-3.5-.9q0-2.5 1.5-2.5 1.3 0 1.5-1c0-1.8 4.5-3.9 10.8-5.2s8.5-3 4.4-3.6c-2.1-.3-3.2-2.2-1.2-2.2q1-.1 1-1-.2-1-1.7-1c-.9 0-2.4-.7-3.4-1.6-2.3-2.1-8.2-1.2-14.6 2.2-2.5 1.4-5.2 2.3-6 2-2.6-1-5.4 1.3-5.1 4.2.2 2.1.8 2.6 2.4 2.4 2.8-.4 4.2 4.2 2.1 6.7-.8.9-1.8 2.7-2.2 4-.7 2.3-.6 2.3 2.8 1.7l3.6-.7-.1 12.6-.1 12.5H67c-1.5 0-4.2.3-5.9.6-2.8.6-3.1.4-3.1-2 0-1.4-.5-3.5-1.2-4.5-.9-1.5-.9-2.3.1-3.5q1.4-1.5 2.6-1.6c.7 0 2-1.1 2.9-2.5 1.5-2.2 1.5-2.8.2-5.3-.8-1.5-2.6-3.8-4-5.1-3.3-3.1-3.3-3.9 0-5.1 2-.8 2.4-1.4 1.9-3.3a10 10 0 0 0-2.6-3.7c-1.5-1.2-1.9-3.3-2.3-10.1-.2-5.5 0-9.6.8-11 .9-1.9.9-3-.3-5.3-1.3-2.7-1.2-3 .5-4.3 1.1-.9 3.3-1.3 5.4-1 1.9.2 4.5 0 5.7-.4s3.3-.5 4.6 0c1.7.7 2.9.3 5.5-1.8 3.6-3.1 3.3-4.1-1.3-4.1s-4.9-1-1-3.1a11 11 0 0 1 7.5-1.3c3.7.6 4 .4 5-2.1q1.2-2.9 0-3.9c-1.4-1.4-13.1-1.3-23 .1a31 31 0 0 1-8.4.5c-1.4-.8 2.4-2.5 6.3-2.8 19-1.8 18.9-1.8 17.1-3.9q-1.2-1.5-7-1.5c-4.2 0-5.9-.4-6.4-1.5q-.7-1.4-3.7-1.5-2.9 0-2.8-.5c.3-.2 6.7-.7 14.3-1 7.6-.2 14.2-.8 14.7-1.1q1-.6.5-2-.7-1.4 2.4-1.4c3.7 0 4.3-1 2-4-1.7-2.2-2.4-2.4-11.6-2.3-5.5.1-11.1.6-12.6 1.2q-5 2-.7-2.6c2-2 2-2.3.5-2.9-1-.4-4.1-.4-6.9-.1l-5.2.6 3.9-1.9a39 39 0 0 1 12.5-2.7c6.6-.6 8.6-1.1 8.6-2.3 0-.8-1-1.6-2.2-1.8a6 6 0 0 1-3.3-1.8c-.7-.8-3.1-1.4-5.4-1.5q-4.7 0-2.1-.9c1.1-.5 3.7-1.1 5.7-1.5 2.1-.3 3.8-1 3.8-1.4 0-1.1-2.5-2.1-5.2-2.1-3.9 0-1-1.2 3.6-1.5 5.6-.4 6.6-1 5.8-3.8-.8-3.2-1.6-3.5-11.8-4.2-7.3-.6-10.3-.4-14 .9-2.6.9-5.9 1.6-7.4 1.6-3.4 0-11 3.7-11 5.3 0 .7 1.5 1.7 3.2 2.2 2.6.8 3.2 1.5 3 3.2q-.2 2 .8 2.8 3.4 2-4.7 3.5c-8.9 1.7-10.6 2.6-10 5.6.5 2.8-.9 3.9-6.5 4.9-3.1.6-3.7.4-4.3-1.4-1.1-3.6-9-9.6-14.2-10.8-5-1.2-6.3-1-6.3 1.1q0 1.2 3.5.8c3.7-.4 8.3 1.8 12.2 6a8 8 0 0 1 1.9 8.6c-.8 2.5 1.6 6.2 4.1 6.2q1.2.1 1.3.8c0 1.4-15.6 7.4-19.4 7.5-5.6.2-4.2 2.1 2.4 3.6 4.6 1 7 1.1 10.4.2 5.8-1.4 5.8-1.4 4.4.9-1.4 2.1-7.1 4.5-8.7 3.6-.5-.3-3.3 0-6.3.8C1 681.6.5 682 .5 684.6c0 4.1 4.5 5.2 12.1 3.1 3.2-.9 6.2-1.3 6.7-1s-.6 1.1-2.8 1.7c-3.8 1.1-6.6 3.9-5.2 5.2.4.4 3.7 1.2 7.3 1.8l6.7 1.1 2.8 8.5a30 30 0 0 0 3.9 8.8c1.6.6.1 2.2-2.1 2.2-1.7 0-2.1.8-1.8 3.7q-.2.8-2.3 1.3c-3.8 1-2.8 3.4 1.7 4 3.6.5 4 .7 4.1 3.8.1 1.8-.2 3.5-.7 3.8s-.9 1.4-.9 2.5q0 1.9-1.9 1.9c-2.4 0-4.3-2.3-3.5-4.3 1.1-2.9-1.8-2.9-4.8-.1-2.8 2.7-3.4 2.9-11.4 2.9-7.2-.1-8.4.2-8.4 1.6 0 .9.7 2 1.6 2.3 2.5.9 9.5.7 13.8-.5 3-.8 4.5-.8 6.3.2 1.2.7 2.3 1.5 2.3 1.8s-2.3 1.7-5.2 3.1c-4.1 2-5.4 3.2-6.3 5.9-1.4 4.4-2.5 4.7-6.6 2.2q-6-3.7-5.9-.6.1 1.3 1.4 1.5c.7 0 2.1 1.1 3 2.5S7 758 8.1 758c2.2 0 7.9-5.4 7.9-7.5 0-4.1 9.6-6.3 14.3-3.2 2 1.3 2.5 2.7 3 8.8.4 4.4.2 7.8-.4 8.5-.5.7-2.9 1.2-5.2 1.2-4.8-.1-15.7 2.8-15.7 4.2 0 1.9 2.1 2 7.6.4 5-1.4 5.8-1.4 7.1-.1s2.1 1.3 3.9.5c1.3-.6 2.4-1.4 2.4-1.8 0-1.1 5.8-3.3 7.2-2.8.7.3 6.1.2 12.1-.1 10.4-.6 14.6.2 6.9 1.4l-8.7 1.6-8 1.5c-4.9 1-12.5 5.1-16.2 8.9-3.3 3.4-3.4 3.8-2.3 6.5 1 2.5 1 3.4-.4 5.5-.9 1.4-2 2.5-2.4 2.5s-1.4 1.6-2.1 3.5c-1.7 4.7-7.5 10.5-10.5 10.5-1.3 0-3.1.3-3.9.6q-1.7.7-1-1.5.6-2 1.9-2.1c.7 0 3.1-.7 5.3-1.6 3.1-1.2 4.5-2.6 6.5-6.7 4.8-9.9 4.9-10.7 2.5-13.4-2.6-2.7-5.1-3.1-4.2-.6q.9 1.8-1.5 1.1c-1.2-.4-2.6 0-3.3.8s-1.6 1.1-2.1.8q-.9-.3-1.5 1.6t-2 1.6q-1.5-.6-2 1.4-.6 1.8-1.8 2c-1.1 0-1.4 2.8-1.4 12.2v12.1l117.7-.6 250-1.4c127.5-.6 132.2-.7 132.2-2.5s-3.1-2-69.5-1.9c-13 0-20.2-.3-18.9-.9 3.1-1.2 3.7-3.7 1.5-5.9-1.1-1.1-2.2-3-2.6-4.3s-1.3-3.3-2-4.4c-1.2-1.9-1.1-2.3 1.6-4.3 3.1-2.3 3.6-4.5 1.7-8.6-.7-1.5-.8-2.9-.2-3.4.5-.5 9.9-1.2 20.9-1.6 19.9-.6 21.6-.9 23.5-4.5.8-1.4-.4-2.7-6.5-7-7.1-5-7.3-5.3-5.9-7.5 1.1-1.7 1.2-3.4.5-8.1-.5-3.2-1.2-6.9-1.6-8.2q-.7-2.2.5-2.2 1 .2 1.7 1.9.3 2 4.5 2.3c2.2.2 4.1.1 4.3-.2s4-.3 8.4.1c5.7.5 8.8 1.3 11 2.8 1.6 1.2 4.9 3 7.3 4q4.8 1.9 2.6 2.6c-1.8.7-3.9-.2-10.6-4.7-2.2-1.5-5.2-3-6.6-3.4-4.3-1-3.2 2 1.4 4.1 5.3 2.4 5.7 3.2 2.6 5.6a6 6 0 0 0-2.6 5.4c0 3.1-.3 3.5-3.4 4.1-1.9.3-4.2 1.4-5.2 2.5q-3.3 3.6 4.8 6.1l3.9 1.1-6.5 1.7a47 47 0 0 0-7.2 2.2c-1.3 1.4 1.8 4.8 4.4 4.9q3.2 0-2.8 1.8c-5.7 1.8-6.7 3.1-5.6 7.7q.6 2.5 3.1 2.4c2.7 0 3.3-1.8 1.3-3.8s0-2.7 7-2.7h6.7l-.3 8.7c-.1 5.5.2 8.9.9 9.3 2.1 1.3 3.2-1.4 3.8-9.6l.6-8.3 10 .3c8.7.2 10.4 0 12.4-1.7 3-2.4 2.3-6.9-1.2-7.4q-2.4-.2-1.9-2.6c.3-2.3.2-2.4-7-2.2-9.4.3-12.3.1-11.6-.5.3-.3 4.8-.8 9.9-1.1 5.2-.2 9.8-.9 10.2-1.3 1.9-1.9-.6-3.1-6.1-3.2q-6-.1-3.2-.8 2.3-.7 2.5-2.1c0-1.2-1.7-1.6-7.2-1.8l-7.3-.3V760c0-2.7.3-3 3.3-2.9q4.6.1.4.6c-4.6.7-3.1 3.7 2 4.1 3.3.2 4.4-.1 5.7-1.9.8-1.2 1.3-2.6 1-3.1q-.4-.7.5-.8c1.1 0 4.4 4.5 5.4 7.3.7 1.9 3.4 3.3 4.4 2.3.9-.8-2.7-8.5-4.7-9.9-.9-.7-2-1.8-2.4-2.4-1.1-1.9 2.2-.4 7.7 3.5l4.7 3.4v-2.6c0-1.4-.4-2.6-.9-2.6s-2.4-1.1-4.4-2.5-5.5-2.9-7.8-3.5-5.9-2.3-8.1-3.8c-3.4-2.2-8.2-3.8-24.8-8.2-1.9-.5-5.7-1-8.5-1-6.4 0-12.3-2.1-15.7-5.5-2.4-2.3-2.8-3.4-2.8-8.4 0-6.1 1.3-8.2 6.9-11.1 2.7-1.4 6.5.1 8.2 3.2 1.3 2.5 5.4 2.5 4.3 0-.5-.9-.7-3.6-.7-6 .2-4.6.1-4.7-3-3-1.2.6-3.8 1.3-5.8 1.4-5 .3-9.4 2.8-12.3 7.1l-2.5 3.7-1.6-3.7c-.8-2-1.5-4.1-1.5-4.6s-1.2-4-2.7-7.6c-2.2-5.3-2.5-7-1.6-8.4.7-1 .9-2.8.6-4-.9-3.7 6.1-9.5 13.5-11.2 4.7-1 11.7 1.8 13.4 5.5 1.3 3 2.9 3.2 6.3 1 1.8-1.2 2.8-1.3 4.4-.4 2.7 1.4 2.7 1.4-1 6a22 22 0 0 0-3.8 7.2c-1.6 7.5 2 16.9 6.8 17.6q4.2.7-.4-5.2c-3.7-4.9-3.5-12 .4-16.6 2.6-3.1 3.2-3.4 5-2.2 2.8 1.6 2.8 1.6 3.4-1.7a23 23 0 0 1 8.8-11.1c2.4-1.8 3.7-2 8.9-1.4 7.4.8 10 2.8 10.9 8 .5 3 1.1 3.8 2.5 3.6 1-.2 2.7.4 3.7 1.4 1.8 1.6 1.9 1.6 1.9-.9q-.1-5.6-2.6-5.7c-.8 0-2-1.5-2.8-3.4s-2.4-3.9-3.5-4.6q-4.3-2.3.7-3.5c3.5-.8 8.2-5.3 8.2-7.9 0-1.7-.6-1.4-4 1.9-2.2 2.1-5.2 4.1-6.7 4.2-1.6.2-3.3 1-3.9 1.8q-1.2 1.5-6.1 1.5c-2.8 0-6.6.7-8.5 1.5-3.4 1.4-9.8 7.6-9.8 9.5 0 1.8-2.9 1-3.5-1-.7-2.3-4.4-3.5-8.4-2.7-2.2.5-3.5 0-5.3-1.7-5.3-5.2-14.4-6-22.8-1.8a16 16 0 0 0-7.5 6.5c-1.1 2-2.2 3.7-2.5 3.7-1.7 0-14.7-42.5-15.5-51.1-.3-2-.9-5.6-1.5-8s-1.5-6.7-1.9-9.4a26 26 0 0 0-1.9-7.2c-1.3-2.4-1.7-11.3-.4-11.3.4 0 1.4-1.3 2.3-2.9 2.2-3.8 13.3-7.1 18.3-5.3 4.3 1.6 4.6 1.5 4.6-.8 0-2.4-3.3-4.2-7-3.8s-4.1-1.3-.8-3.2c2.2-1.2 3-1.2 5.1-.1q4.8 2.4 4-2.1c-.5-3.3 3-8.4 7.4-10.6a21 21 0 0 1 17.9-1.3c6 2.7 7.2 2.6 8-.2.7-3.1 6.2-5.7 11.8-5.7 9.4 0 20.9 5.8 24.2 12.2A37 37 0 0 1 488 595c-.5 1.9-.8 3.6-.5 3.8.8.8 12.5 1 12.5.2s-3.5-2-6.7-2c-2 0-2.2-.6-2.6-7.8-.6-11.5-1.9-15.1-7-19.8a37 37 0 0 0-23.9-7.9c-5.9 0-7 .3-10.5 3.2-3.9 3.1-4 3.1-9 1.8-3.6-.9-6.4-1-9.9-.4-2.7.6-5.8 1.1-6.9 1.2-2.2.2-3.9 1.9-8.6 8.4q-3 4.2-5.1 4.3c-3.2 0-8.7 3.9-9.4 6.6q-.4 2.5-4.5 3.4c-2.1.6-4.7 2.2-5.7 3.5-1.1 1.4-2.2 2.5-2.6 2.5s-3.6-9.4-3.6-10.7q.2-.3 1.5-.3c1.3 0 2.3-1.7 3.2-3.7q1.8-3.7 4.3-4.3c2.4-.6 2.9-2.2 1.9-5.9q-.2-1.4 2.1-2.1c2.1-.5 2.6-1.3 2.8-4.5.2-2.3 1.4-5.4 2.8-7.3 3.8-4.9 7.8-6.6 16.5-6.6 6.5-.1 8.1.3 11.2 2.4 2 1.4 4.2 3.5 4.8 4.7 1.3 2.4 3.4 3 4.4 1.3s-3.8-7.4-8.2-10.1c-3.1-1.9-5.2-2.4-11.3-2.4-9.9.1-17.7 3.5-21.4 9.4a24 24 0 0 0-2.6 4.9c0 .5-1.3 2.6-3 4.7s-3 4.8-3 6.1-1.3 3.6-2.9 5.2l-2.9 2.9v-3.1c.1-7-2.1-15.6-5.6-21.6-2-3.4-3.6-6.6-3.6-7.1s-.9-2.8-2.1-5.1q-2-4-1.1-5c.6-.6.8-3.3.5-6.2-1.6-15.6 18.1-25.3 29.3-14.5 2.8 2.7 3.4 3 4 1.6q.4-1.8 2.4-.7c4.3 2.3 5.6-.3 1.9-3.6-1.8-1.6-2-2.8-1.7-8.2.5-7.4 2.6-10.2 8.5-11.1q4-.6 4.1-2.6l.9-3.5c.3-.8.5-2.9.4-4.5-.2-3.3 3.1-8.5 5.4-8.5.8 0 2.3-1.3 3.5-2.9 3-4.3 11.9-8.4 16.3-7.6 1.9.4 3.7.3 4-.2 1.1-1.7 13.8.7 18.4 3.4 5 2.9 13.1 11.5 13.9 14.9.6 2.4 4.4 3.5 4.4 1.4 0-2.3 5-6 8-6 1.6 0 3-.5 3-1 0-1.8-6.7-1.1-9.3 1-3.1 2.5-4.4 2.5-5.2.1-1.1-3.5-11.4-11.9-17.3-14.2a38 38 0 0 0-16-2c-8.9.1-11 .5-15.3 2.6l-4.9 2.6-2.5-2.8a12 12 0 0 1-2.5-3.6c0-1.3-12.3-9.8-19.1-13.2-11.1-5.7-29.6-7.9-36.1-4.4-2.4 1.3-3.5.5-4.3-3.1q-.6-3 .8-5c.8-1.2 1.3-2.9 1-3.9-.8-3.2 2.4-7.6 8.6-11.8a26 26 0 0 1 20.6-4.4c2.3.6 3.8.4 6.3-1.2 1.9-1.1 5.5-2.1 8-2.2 4.7-.2 4.7-.2 4.5-3.6a29 29 0 0 1 6-17.5c6.1-7 20.3-11.7 28.5-9.5a32 32 0 0 1 19 13c2.3 3.4 4.2 6.6 4.2 7.1 0 2 3.3 1.7 6.6-.5 4-2.7 6.4-3.1 9.7-1.4 3.2 1.6 7.7 6.1 7.7 7.5 0 .7.5 1.6 1 1.9 2.6 1.6.6-4.6-2.7-8.5l-3.7-4.3-7.3.6-7.3.5-3.8-3.6c-10.8-10.4-13-11.9-20-14.1-10.4-3.1-13.8-2.8-24.8 2.5-8.5 4.1-12.7 9-15.3 17.8-2.2 7.4-2.4 7.6-5.4 7.6-1.7 0-4 .9-5.3 2.1-1.9 1.8-3.7 2.1-11.6 2.3-10.8.3-13.9 1.5-21.5 8.2-4 3.4-5.4 5.4-5.9 8.2-.3 2-1.1 5.1-1.7 6.9a10 10 0 0 0 .1 7c1.1 3.5 1 3.9-1.1 5.5a8 8 0 0 1-3.8 1.8c-.9 0-2.2.7-3 1.6q-1.2 1.6-4.5.9c-6-1.1-18.8 6.2-22.3 12.9q-2.6 5-3.6-2.4-1-6.7-4-4-1.4 1.2-2-.1c-.5-.6.4-2.1 2-3.3 2.2-1.8 2.7-2.8 2.3-5l-.6-2.8 12 .4c11.6.3 12 .2 13.8-2.1 2.5-3.4 2.7-13.6.2-14.6-.9-.4-6.4-.8-12.1-.9l-10.5-.1-1.3-8.5-1.2-8.5 3.4-3c2.9-2.5 3.7-4.2 4.9-9.8.8-3.7 2.4-8.7 3.6-11.2s2-5.5 1.7-6.6q-.7-2.1 1.8-2.9a6 6 0 0 0 3-3.1l.7-2.1 2.6 2.5c2.4 2.5 2.5 2.7.9 5.1-.9 1.4-1.3 2.7-.9 3 .9.5.7 9.4-.3 12.6-.9 2.7 1.1 5.2 2.1 2.7 1-2.7 2.5-2 1.8.8q-.5 2.3-.1 2.5c1.4 0 5.7-2.4 5.7-3.2 0-.5 1.6-.6 3.5-.2 3.7.7 5.2-1.3 1.7-2.3-2.2-.5-5.2-6.8-5.2-10.6 0-1.5-.5-2.7-1.1-2.7q-1-.1-.5-1.6.5-1.7-1.1-2.9c-1.3-1-1.5-1.6-.6-2.7.7-.8 1.1-3.7 1.1-6.6-.1-4.4.3-5.7 2.5-8a9 9 0 0 0 2.7-5.7c0-18.4 1.5-24.5 6-24.5 4.2 0 24.1-12 28.3-17 2-2.3 2.5-3.8 2.1-5.9-.5-2.4-.1-3.1 3-4.9 3.8-2.3 4.2-3.2 2.5-6.3-.8-1.7-.5-2.5 2-4.8q8.7-8.2-6.5-7.7c-6.2.2-8 .7-14.9 4.6-4.4 2.4-9.2 5.2-10.7 6.3q-6 4.4-1.1-4.1c2.7-4.9 2.7-5.2 1-6.9-1.6-1.7-1.8-1.6-5 .1a56 56 0 0 0-6.7 5.2c-1.9 1.8-5.3 4.9-7.6 6.8a19 19 0 0 0-6.4 15.1c0 4.2-4.3 12.5-6.4 12.5-1.8 0-8.4 7.4-10.2 11.4a32 32 0 0 1-4.3 6.6l-3 3.5-.2-10.5c-.1-14.9.3-126.6.6-144l.9-73.5c.8-63.9.7-65.2-4.5-73.4-1.6-2.5-2.9-5-2.9-5.7 0-1-2.1-2.4-3.6-2.4a58 58 0 0 0-4.9 5.7m3.8 70.8c-.2 54-.8 98.2-1.8 140l-1 43.5c-.3 15.1-.7 33.3-1 40.5-.3 7.1-.8 26-1.1 42-.5 24.8-.8 29.2-2.2 30.2q-3.6 2.8 5.6 2.9c11.5.3 15.8 3.4 4.7 3.4-5 0-6.5.3-6.5 1.4 0 2.2.9 2.4 7.2 1.7 7.5-.9 8.8-.1 8.8 5.5v4.5l-13.9-.2c-15.2-.4-15-.3-15.1-6.7 0-1.9.5-2.2 3.4-2.2 4.1 0 5.4-1.5 2.8-3.1-1.6-1-1.8-2.3-1.5-11.8l.8-27.1a1289 1289 0 0 0 1.8-58.5l2.2-107 .5-22.5a57 57 0 0 1 1.4-16.3q1.2-.9 0-1.3-1.2-.3-.8-12.7c.8-32.2 1.4-64.3 1.5-85.2 0-19.6.3-23.3 1.7-25.8l1.7-2.8.5 4.3c.3 2.4.4 30.8.3 63.3m7.5 46.5c-.1 59.1-.6 119.2-.9 133.5l-1.4 68.4c-.7 40.7-.8 42.6-2.8 45.2-1.1 1.6-2.4 2.6-3 2.2s-.7-7.5-.3-18.7c1.1-30.8 1.5-49.6 2.1-90.6l1-73 2-140.5c.5-41.7.3-38.3 2.1-36 1.4 1.8 1.5 14 1.2 109.5m-191.4 68.9c.9 1 2.1 3.3 2.6 5.1 1.2 4-1.4 8.9-5.6 10.8-3.3 1.6-2.6 3.6 1.4 4 2.5.3 3.2.8 3.2 2.5 0 1.2.3 3.2.6 4.4q.7 2.1-1.5 2.8c-3.3 1-5.5-1-9.5-8.7a82 82 0 0 0-5.1-8.8q-5.7-6.6.1-12.4c2.3-2.4 11.6-2.2 13.8.3m62.9 7.7c.9 1-.4 3.4-1.8 3.4-1.7 0-2.8-1.7-2-3 .7-1.1 2.8-1.3 3.8-.4m-56.8 7.3q-.6 1-1.7 1.1-1 0 .2-1.5c1.4-1.7 2.6-1.3 1.5.4m64.7 8.7q.7.6.8 1.9t-9.7 3l-16.3 3.1c-3.6.8-15 3-25.5 4.9l-21.6 4.1c-2.5.5-2.7.3-2.5-2.8.2-3.3.3-3.3 7.6-5l11.1-2.9q3.6-1.2 5.5-.1c1 .5 3.8 1.3 6 1.7 3.7.6 4.4.3 6.2-2 2-2.5 2.5-2.7 7.9-2 5 .5 6.2.3 8.5-1.4 1.4-1.2 3.7-2.1 5-2.2 1.2 0 3.2-.4 4.3-.9 1.9-.9 11-.4 12.7.6m.1 14.9q.6 6.6-.5 8.4c-.9 1.5-.8 2.7.5 5.4.9 1.9 1.7 4.6 1.7 6 0 1.3.7 3 1.5 3.7 1.6 1.3 2.1 5 .7 5-.4 0-1.3-.5-1.9-1.1-1.5-1.5-5.4-.1-5.2 1.9v2.8c-.1 1.2-4.7 2.9-6.8 2.5q-1.2 0-2.3 1.8c-1.5 2.9 1.4 4.3 5.1 2.4q5.4-2.6 4.3 2.3c-.3 1.3-.1 3.1.6 3.9q1 1.4.5 2.6c-1.2 1.8-15.7.5-20.4-1.8-7.3-3.7-8.3 1.3-1.1 5.7q4 2.5 4 4.7c0 1.2 1.2 3.4 2.6 5 2.2 2.4 2.5 3.4 1.9 6.9-.3 2.4-.2 4.5.4 4.8 1 .7 3.6-1.5 4.4-3.6q.3-1.4 2.7.7c2.7 2.4 4.2 5.9 3.4 8-.8 1.9-4.8 1.9-6.4 0-.7-.8-2.1-1.5-3.2-1.5s-3.2-.9-4.7-1.9c-2.7-1.9-24.3-8.1-28.3-8.1-1.7 0-1.8-.2-.8-1.5.8-.9 1-2.9.7-5l-.6-3.5h4.5c4 0 4.4-.2 4.4-2.4 0-1.4-.4-2.8-1-3.1-1.8-1.1-1.1-2.3 1-1.8q1.8.4 2-.6-.1-1.2 1.9 0c2.3 1.5 5.1.5 5.1-1.8a8 8 0 0 1 1.4-3.9c.8-1.1 1.4-3.8 1.3-6.1s.6-5.1 1.6-6.6 1.7-3.3 1.7-4 .7-3.1 1.6-5.2c.8-2.1 1.2-4.5.8-5.4-1.6-3.7-1.3-5.7 1.6-9.7q3-4.3 1.8-4.7-1-.4 1.5-1.2c1.5-.4 2.7-1.1 2.7-1.6s.7-.9 1.5-.9 1.5-.5 1.5-1 1.3-1 2.9-1 3.4-.7 4.1-1.5c1.9-2.3 2.7-1 3.3 6m-33.6 4.1q-.6.5-1.9.1-1.1-.5.6-.6t1.3.5m-10.5 3.8q1-.7.4.5-.8 1.1-1.4.7t-1.9.5q-1.4 1.4-1.3-.4c0-1.7 2.3-2.9 2.8-1.5q.5.6 1.4.2m16.1-.1q.4 1.3-.9 1.4c-1.3.1-1.4-.6-1.4-1.4q0-1.2.9-1.3c.9-.1 1.1.6 1.4 1.3m2.2 10.6q.4.9-.5 1.6-.9.4-1-.9 0-2.7 1.5-.7m-26.9 5.1q-.1 1.8-.8 2c-1 0-1.1-2.4-.1-3.3s.9-1 .9 1.3m220.6 1.3c-5.8 5.8-8.2 9.9-8.1 14.1q.1 4.1-2.1 7.9c-2.1 3.5-2.1 4-.7 5.4 1.9 1.9 3.2 1.1 5.3-3.3q3.2-6.3 4.8 2.6.6 4 1.9 3.4c1.5-.5 1.7-9 .3-11.2-1-1.6 2.9-5.2 6.5-5.9 2.9-.5 2.9-.5 1.8 1.9-.8 1.9-.8 3.1 0 4.6 1.6 3.1 1.3 4.2-1.1 4.2h-2.2l2.1 2.2 2.2 2.1 7.6-4.6c10.7-6.6 9.7-3.3-1.2 3.7a64 64 0 0 1-11.2 6.2c-1.5.3-5.1 1.4-8.1 2.6-3 1.1-7 1.9-8.7 1.9-2.7-.1-3.3.2-3.3 1.8a6 6 0 0 0 1.5 3.5c2 1.9 1.9 3.4-.3 7.1-1 1.6-2.7 5.2-3.7 7.8-1.8 4.9-4.3 7.8-3.3 3.9.5-1.7-.1-2.5-3.3-3.8a10 10 0 0 1-5.4-5.6c-1.9-4.8-1.9-6.2 0-7.8.8-.7 1.5-2.1 1.5-3.1q.1-1.8.8-1.9c1.1 0 6.2-7.8 6.2-9.4q.1-1.2 1.1-2.3c.5-.5 1.4-3.7 1.8-6.9 1.2-7.9 3.5-13.2 6.3-14.4 1.3-.5 4.6-2.9 7.3-5.4 5-4.4 7.8-5.5 3.7-1.3m-203.7.7q.5.9-.4 1-1-.1-1.6-1-.5-1 .4-1a2 2 0 0 1 1.6 1m230.8 2.3A34 34 0 0 1 379 304q-1-.2 1.3-2a11 11 0 0 1 3.2-2c.4 0 1.6-1.2 2.7-2.6 1.8-2.3 4.9-4.2 7.1-4.3.4-.1-1 1.4-3 3.2m-10.3.2q-.2.4-2.2 1.5-3.2 1.7-.4-.4c2.1-1.7 2.6-1.9 2.6-1.1m-215.3 3.1q-.6.5-1.9.1-1.1-.5.6-.6t1.3.5m204.8 2.8c-3.4 2.8-6.2 3.8-7 2.6-.3-.5.8-1.1 2.4-1.5a9 9 0 0 0 4.2-2.1c.6-.8 1.7-1.4 2.3-1.4s-.2 1.1-1.9 2.4m24-1.4c-.3.5-1.6 1.5-2.8 2.1q-3.2 1.7.2-1 4-3.5 2.6-1.1m-235.2 5.2c-1.7 1.9-1.7 2.1.5 3.8 2.1 1.7 1.8 3.7-.3 2.2-3.1-2.2-3.7-4.1-2.4-7.1 1-2.3 1.6-2.7 2.6-1.9 1.1.9 1 1.5-.4 3m219.2-.1q-.7.8-1.8.8-1.3 0 .1-.6c.6-.2.9-1 .6-1.5q-.6-1 .5-.4 1 .8.6 1.7m6 2.4c-2.1 1.8-4.2 3.2-4.6 2.9q-.6-.2-1.3 1.1-.6 1.4-2.1 1.5c-2.4 0-1.7-1.7 1.3-2.9 1.5-.6 4.1-2.2 5.7-3.6 4.6-3.7 5.5-2.9 1 1m-219 .5q.4.9-.4 1-1-.1-1.1-1 0-1 .4-1 .6 0 1.1 1m-21.5.4q0 .6-1 1.1-.9.4-1-.4.1-1 1-1.1 1 0 1 .4m-2 10.2q0 1.3-1 .9-.9-.6-1-1.6.1-.8 1-.9 1 .1 1 1.6m9.3 3q-.6 1.4-1.2.7l-1.5-1.6q-.7-.6 1.2-.7 2.3-.1 1.5 1.6m-15.1 2.6q-1.1 1-1.2.2c0-1.4 1.2-2.6 1.9-1.9q.3.6-.7 1.7m-3.7 1.8q.4.9-.4 1-1-.1-1.1-1 0-1 .4-1 .6 0 1.1 1m10.3 2.6c-1.4 1.4-1.5 1.4-1-1.1q.5-2.7 1.5-1.6 1.3 1.1-.5 2.7M129 332q-.1 1-1.5 1.6-1.3.8-1.5 1.8c0 .7-1.8 2.5-4 4.2q-6.3 4.5-2.3 4.4c1.4 0 1.4.2-.2 2q-1.9 2-.8 3.1c.6.6.8 2.4.3 4.3-.8 3.6.7 8.3 3.1 10.2.8.6 3.1 1.7 5.1 2.5 3.4 1.2 4 1.1 6.5-.7 1.6-1.1 3.6-2.3 4.6-2.7.9-.3 1.7-1.5 1.7-2.6 0-2.6 3.4-3.3 7.5-1.5 1.9.8 4.4 1.4 5.5 1.4q1.8.1 2 .8c0 1.9-2.5 2.9-6.3 2.5-3.5-.4-5 .1-9 2.8-4.8 3.2-5 3.7-3.2 8.1.5 1.3-.1 2.1-2.8 3.4-3.3 1.6-5.7 4.9-5.7 7.9 0 .8-1 3.1-2.2 5.2-1.9 3.1-2.3 5.3-2.3 11.5 0 7 .2 8 2.6 10.4 3 2.9 10.3 4.8 13.1 3.3q2-1.3 1.8.9 0 3.6 5.4 5c3.7 1 3.6 2.6-.1 3a9 9 0 0 0-5.7 3.2c-2.3 2.8-2.5 2.8-4 1.1a7 7 0 0 1-1.6-4c0-1.2-1.3-3.6-2.9-5.2a9.7 9.7 0 0 0-14.2 0c-1.7 1.7-2.9 4-2.9 5.5 0 3.4-.6 3.3-4.2-.6l-3.1-3.3 2.3-4c1.3-2.2 4.6-6.9 7.3-10.4 4.1-5.3 4.8-6.7 3.9-8.2-.9-1.3-.7-2.3.7-4.1 1.1-1.3 2.2-4.9 2.6-8q.8-5.6 2.6-7.4c2.6-2.4 2.4-6-.7-9.1-2.2-2.1-3.2-2.5-6.6-2-3.1.4-4.7.1-6.9-1.5a7 7 0 0 0-5.8-1.6q-6.3 1 2-5c7.2-5.5 8-6.2 7.4-7.2-.9-1.5-5.1-1.2-6.4.4-.7.8-2.2 1.7-3.5 2a6 6 0 0 0-3.4 3.1q-1.3 2.3-2.2 2c-1.7-1-5 .5-5 2.3 0 .9-.7 2.6-1.5 3.6-1.8 2.3-2 8.7-.4 10.3q1.3 1 .1 4.2c-1.2 3.2-.7 4.3.3 8 1.8 6.9.9 16.5-2 21.6-2.4 4.2-2.4 3.6.1 17 .4 2.2 1.1 4.8 1.6 5.7q.9 1.7-1.2 5.5c-1.1 2.1-2 4.3-2 4.9s-1.1 3.2-2.5 5.5q-2.5 4.6-2.5 2.4l-.1-23c-.2-35-3.4-57.1-10.2-69.8-4-7.5-13-16.1-18.5-17.8-5.3-1.5-5.4-2.9-.2-2.9q3.8 0 3.8 1.1c-.2.7 1.1 1.6 2.9 2.1 3.7 1 11.3 9.2 14.4 15.5 1.1 2.4 2.5 4.3 3 4.3 1.9 0 .7-3.7-2.9-9.1a35 35 0 0 0-13.8-13l-2.9-1.2 5.2-.9c4.2-.8 5.6-.6 7.7.7 1.4 1 2.6 2.2 2.6 2.8q-.2.8-2.5-1.3-2.5-2.5-3.6-1.3-1.1 1 3.5 5.8c2.5 2.6 5.5 6.7 6.7 9.1 1.1 2.4 2.4 4.4 2.8 4.4 2 0 1.8-1.7-.9-7.1-1.7-3.2-3-6.4-3-7 0-1.8 3.8 3.5 5.6 7.6 1.6 3.9 4.1 4.2 3.6.5-.1-1.2.5-2.8 1.5-3.5 1.5-1.1 1.5-1.4-.4-4.1-1.2-1.6-3-3.8-4.2-4.8q-4.4-3.8 1-3.6c2.6 0 2.9.3 2.4 2q-.6 2 1.4 4.6a10 10 0 0 1 2.1 3.7c0 1.3 3.1 3.6 4.9 3.7q1.2 0 .8-2-.4-1.8.3-2c1 0 2.4 2 2.5 3.5l.9 2.7c.4.9.1 3-.9 5l-1.7 3.3 3.6-3.5c2-1.9 4-4.8 4.5-6.5.6-2.6 1.2-3 4.1-3 2.5 0 3.5-.5 4-2a58 58 0 0 1 12.3-13.5q.6.1.7 1m-48 3.9c0 1.8-1.8 2.1-3 .6-1-1.3-.9-1.5.9-1.5 1.1 0 2.1.4 2.1.9m64 1.9q2.1 1.7 1.4 3.5c-.5 1.5-1.4 1.6-5.8 1-2.8-.3-6-.7-7.1-.7-3.3-.1-2.3 2.6 1.4 3.9q3.3 1.1 2.3 1.9-1.4.6.4 3.1c1.5 2.3 1.5 2.5 0 3.1q-1.5.6-1.6 1.9c0 1.9-5.5 7.5-7.3 7.5q-4.9-.2-4.5-8.4c.3-4.7.5-5.1 2.8-5.1q2.6 0 2.5-2 0-2-1.9-2c-2.4 0-2.9-1.5-1.3-3.5 1.8-2.2 5.6-4.2 6.7-3.5.5.3 1.9.1 3-.5 1.7-.9 2-.8 2.1.7 0 1.5.2 1.5 1.6-.5 1.9-2.7 2.4-2.7 5.3-.4m51.5-.8c1.8 0 4.5 2.8 4.5 4.6q-.1 1.3-.8 1c-.4-.2-1.4-.1-2.2.4q-1.2 1-3.7-2.6c-2.7-4.1-2.9-4.8-.7-4 .9.3 2.2.6 2.9.6m-100 3.6c2.4 3.7 1.3 4-1.4.4-1.2-1.7-1.7-3-1.2-3s1.6 1.2 2.6 2.6m-12.5-.1q1.7 1.8-.4.9-1.5-.6-1.6-1.5 0-2 2 .6m125 0q0 1.3-.9 1.5c-.9.2-1.1-.7-1.5-1.5q-.5-1.4.9-1.5 1.4.1 1.5 1.5m-58 1.3c0 1.3-1.2 2.2-2.2 1.6s-.1-2.4 1.3-2.4q.8.1.9.8m11.7 1.6c1.6 1.5 0 4.1-2.1 3.3a2 2 0 0 1-1-2.2c.7-1.8-1.6-2.1-3.4-.3-1.5 1.5-2.7.4-1.9-1.6.7-1.8 6.3-1.2 8.4.8m-105.7.9c3.8 1.6 9 6.3 11.7 10.4 2.6 4 7.2 18.7 9.8 31.9 2.4 11.5 2.5 14.5 2.9 52.5.5 42.3 1.3 52.7 5.7 71.7 1.1 5 2.5 9.2 2.9 9.2q.8.2 1.2 1.7c.5 2.6 7.5 2.8 8.3.2.7-2.3 3.3-2.5 4.1-.4q.8 1.3 2 1.5 1.4-.2 2-1.5c.9-2.3 6.5-1.9 7.1.5q1 3.9 3.8-.3c1.5-2 1.7-2.1 2.6-.5 1.3 2.3 2.7 2.3 5.1.1 1.7-1.5 2-1.5 2.8-.3.8 1.3 1.3 1.2 3.9-.3 3.7-2.1 7.7-2.2 8.5-.1.6 1.5.8 1.5 3 .1q2.3-1.7 3.4-.5 1 1 2.9.2c1-.4 2.9-.9 4.3-1l6.3-.9q3.8-.7 6.4.6c2.2 1.2 2.7 1.1 3.8-.4 1.5-2 2.8-2.1 5.5-.5 1.6 1 2.4 1 4 0s2.4-1 4 0c1.5 1 2.2 1 3.2 0 .6-.6 2.5-1.2 4-1.2q3-.2 3.8 2.5 1 2.3 2 2.5 1.1-.2 2.2-2.5 1.9-4.2 3.2-1 .6 1.3 2.1 1.5 1.5-.2 2.1-1.5t1.6-1.5q.8 0 .4.9t.9 2.1c1.1.9 1.9.7 4-1.4 3-3 4-3.2 4.9-1.1.7 2.1 4.3 1.9 5.6-.3 1-1.6 1-1.6 2 0 1.4 2.3 2.9 2.3 5.5-.2l2.2-2.1 1.7 2.6c2.1 3.2 3.2 3.2 4.9-.1 1.2-2.3 1.5-2.4 2.6-1 1.7 2 5.1 2.1 5.1.1 0-2.6 8.8-2 11.8.7l2.3 2.3 1.9-2.5c1.8-2.4 1.9-2.4 3.9-.6 2.1 1.9 2.2 1.9 4.5-.3l2.3-2.2 1.7 2.6q3.1 4.5 4.3.5 1-3.9 4.4.2l1.9 2.3 2.3-2.8c2.8-3.4 4-3.4 6.2 0l1.8 2.7 1.8-2.2c2.2-2.8 5.6-2.8 7.8 0 2 2.4 4.1 1.7 4.1-1.3 0-1.6.7-1.9 4.2-1.9 3.3 0 3.9.3 3 1.2-.7.7-1.2 2.2-1.2 3.4 0 1.7-.8 2.3-3.6 2.7-2 .4-4.5.2-5.6-.4q-1.8-1-9.6.2c-5.3.9-17.9 1.2-40.2 1.1-17.9-.1-39.9.3-49 .8s-35.4 1.2-58.5 1.5c-39.3.6-58.1 1.5-60.5 3-1.4.9-1.3 3 .3 4.3.7.6 1.4 3.9 1.5 7.3.2 3.5.5 6.6.8 7 .2.4 1 4.1 1.8 8.3s2.1 9.1 2.9 10.8 2.2 5.8 3.1 8.8c1.1 3.1 4.3 8.6 7.6 13 7.5 9.7 21 22.5 25.5 24 1.9.6 3.5 1.8 3.5 2.5 0 2.5 5 7.4 8.8 8.6 2 .6 4.9 2.3 6.4 3.7 2.2 2 3.6 2.5 7.5 2.3 2.6-.1 6.4-1 8.4-2.1 3.1-1.6 4.4-1.7 7.5-.8 2 .5 4.9.7 6.4.5 1.4-.3 4.6-.1 6.9.4q4.3.9 7.5 0a63 63 0 0 1 24.6-.7c5.2 4.5 14.9 1.8 23.2-6.5 3.3-3.2 6.5-5.9 7.1-5.9 1.7 0 7.7-6.2 7.7-8 0-.9 2.1-3.6 4.6-6 5.2-5.1 11.9-14.2 15.8-21.5a97 97 0 0 0 7.2-22c3-12 4.5-16.6 6.3-18.3 1-.9 2.1-3.3 2.5-5.3.9-5.3 3-6.5 10.9-6.7 3.7-.1 6.7.1 6.7.3 0 .3-1.1 1.2-2.5 2.1-2 1.3-2.8 1.4-4 .4-1.6-1.3-4.5-.7-4.5.9q.2 1 2 1.6c1.6.5 1.8 1 .9 2.6s-1.7 1.8-4.5 1.3q-6.4-1.1-.6 4.2l2.7 2.5-3.7-.7c-4.2-.7-5.1.8-1.8 2.8 2.6 1.6 2.7 4.2.1 3.5-1-.2-2.5-.1-3.2.4-1.1.8-1 1.3.8 2.8 2.8 2.4 2.1 6.1-1.2 6.1-1.2 0-2.8.7-3.5 1.5-1 1.2-.7 1.5 1.4 2.1 1.4.3 2.6 1.3 2.6 2.1q0 1.5-2 1c-1.1-.3-2.5.2-3.2 1-1.1 1.3-.9 1.8 1 3.1 3.3 2.1 2.9 4.3-.7 3.6-4.2-.9-5 1.3-1.5 4.1q4.7 3.7-2.6 3.2-2.7-.4-2.5 1.8c0 1.1-.6 2.5-1.4 3.1-1.2.9-1.2 1.6-.2 4.2q2.4 5.9-2.8 4.7c-3.9-.8-6.4 2.1-3.6 4.1 1.5 1.1 1.6 1.7.7 2.6q-1.2 1.4-2.4 0c-.7-.7-2-1.2-3-1.2-2.5 0-3.6 3-1.5 4.2q3.8 2.3-1.5 3c-2.7.2-3.3.7-3.3 2.5 0 1.3-1.9 4.5-4.3 7.3a39 39 0 0 0-5.7 8.4c-.8 1.8-2 3.6-2.8 3.9-2.3.9-4.9 7.5-4.2 10.7.8 3.6.3 3.7-3.5.9s-11.9-2.3-15.3.9a14 14 0 0 1-6.4 2.8c-3.7.6-4.6.3-7.3-2.2-5.4-5.2-13.6-6-17.5-1.8l-2.5 2.7-2.1-2.7a6 6 0 0 0-5.1-2.6c-3.7 0-9.6 2.7-11.1 5.2-1.4 2.1-3.2 2.4-2.4.4.3-.8 0-2-.8-2.6q-1.3-1.3-2.8 1l-1.4 2.1-.6-2.1c-.5-1.8-.9-2-2.5-1.1q-2 1.2-3.2-.4c-.7-.8-3.1-2-5.3-2.6-3.3-.9-4.7-.8-7.3.4q-5.6 3-5.4-3.8c0-3.5-2.4-7.5-4.6-7.5-.8 0-2-1.3-2.7-2.8a44 44 0 0 0-9.4-12.6c-1.8-1.3-2.7-1.5-3.7-.7q-1.2 1.3-4.5-.5c-3-1.5-5.3-1.4-9.7.3q-2 .9-1.1-1.1c.4-1-.2-2.9-1.6-4.7-1.8-2.6-2.7-3-5.2-2.5l-3 .6 2.5-1.9c2.1-1.7 2.2-2.1 1-3.6a7 7 0 0 1-1.6-3.2c-.4-2.4-1.2-2.7-3.9-1.5-1.4.7-3 1.2-3.5 1.2-1.8 0-1-2.9 1-4q1.8-1 2-2.6c0-2-2.7-2.9-4.5-1.4q-1.5 1.2-1.5.2c0-.6.9-1.6 2-2.2 2.7-1.5 1.5-4.3-1.7-3.7-1.3.2-2.6 0-2.9-.4q-.3-.8 1-.9c3.9 0 2.3-4.9-1.8-5.1q-3-.2.2-.6c3.2-.6 2.7-3.3-.8-4.6q-5.2-2-1-3c3.1-.8 2.4-3.5-1.2-4.6-3.1-.9-3.2-1-1-1.7 2.9-.8 2.5-3.8-.6-4.2-2.7-.4-2.9-1.8-.2-2.5 2.5-.7 1.6-3.7-1.1-3.7q-1.7-.1-1.9-1 .2-1 1.8-1 3.9 0 2.1-3.1c-.6-1.1-2.1-1.9-3.6-1.9-3 0-2.1-1.6 1.2-2.2q1.9-.4 2-2.3.2-2.1-3.2-2.3c-4-.4-4.1-1-.6-3.7 3.3-2.7 2.3-4.9-1.7-4-2.3.5-3 .2-3.5-1.4-.7-2.2.1-4.4 1.4-3.7q.8.4 2-.4c1.9-1.1.6-4-1.9-4-2.8 0-2.5-1.9.5-3 1.4-.5 2.5-1.4 2.5-1.9 0-1.6-2.7-3.2-4.4-2.5-1.3.5-1.6 0-1.6-2.4 0-1.7.6-3.2 1.5-3.6 2.2-.8 1.8-3.7-.5-4.3-2.8-.7-2.5-3 .6-3.7 3.2-.8 2.9-3.8-.5-4.6-3-.7-4-3-1.4-3 1.1 0 2.4-.5 3-1.1 1.7-1.7.4-3.9-2.3-3.9-3.1 0-3.2-2.7-.1-3.2 3.4-.5 3-4.2-.5-4.6-3.8-.4-3.5-2.8.3-3.6 4-.8 3.7-4-.4-4.4-3.2-.4-3.1-2.5.1-3s2.5-3.2-1.1-4.5c-2-.8-1.7-3.4.3-2.9 1.6.4 4.1-1.8 3.4-3-.3-.5-1.7-1.3-3-1.8-3.4-1.3-3.1-3.9.4-3.7 3.7.3 3.6-2.4-.3-4.2l-3-1.5 3.3-.8c4.1-1.1 4.1-4.1-.1-4.6-3.3-.4-2.6-2.2.8-2.2 3.7 0 4-1.8.6-3.8-3.3-1.8-4-3.2-1.6-3.2q1.4-.1 1.5-1-.1-1-1.5-1.6c-2-.8-1.9-3.4.2-4.9 1.8-1.3 1-3.5-1.3-3.5-1.9 0-1.8-1.5.2-3.5q1.9-1.6.5-2.8c-1.6-1.6-1.4-3.7.3-3.7 2.4 0 3-2.1.7-2.7-2.8-.7-2.7-2.7.2-4.1l2.2-1.1-2.2-.7c-2.6-.7-3.3-5.4-.9-5.4s3-2.1.8-2.7c-2.7-.7-3.3-3.3-1.3-5.6 1.4-1.6 1.3-1.8-.7-2.4-2.6-.6-3.1-4.8-.7-5.7 2.3-.8 1.8-2.5-1-3.2-3-.7-3.1-1.2-.7-3 1.3-1 1.4-1.5.5-2.5-1-1-1.5-.9-2.8.1-1.6 1.4-1.8 1.1-1.9-4q-.1-2.5-1.7-2.2c-.9.1-2.3-.6-3.3-1.6-1.5-1.7-1.5-2-.1-3.2q1.4-1.2 1.5-2.1c0-1.5-2.7-1-3.4.6-.8 2.2-3.6.7-3.6-2 0-1.3-.4-2.7-1-3q-.9-.4-1 1 0 1.6-2.2 1.3t-2.3-2.2-1.4-2.4-.9 1.5c.5 1.7-.1 1.9-6.1 2-8.3 0-13 2.1-17.4 7.5-6.1 7.5-5.8 14.3.8 22.4 3.4 4.1 4 4.4 8.3 4.4 4.2 0 5.2-.5 9-4.2 3.5-3.4 4.2-4.7 4-7.2-.4-4.3-5-6.6-7.9-4-1 .9-2.1 1.5-2.4 1.3-1-1 2.6-4.7 5.1-5.3 2.2-.6 3.2-.2 5 2.1 4.1 5 2.7 13.6-2.6 15.6-1.7.6-3 1.5-3 1.9 0 2.1-5.4 2.8-10.4 1.4-7.4-2.2-9.9-4.2-8.5-6.7.9-1.7.7-2.1-.9-2.6-2.5-.6-4.7-7.8-3.7-12.4.8-3.8 5.2-11.9 6.4-11.9a17 17 0 0 0 4.5-3.5c2.1-1.9 4.9-3.8 6.4-4.1l4.5-1.2c3.2-1.2 17.1-.5 20.7 1.1m169.1 2.4c2.7 3.7 4.1 4.7 6 4.6l2.4-.3-2.5 2c-3.8 3-5.5 2.5-7-2q-2.6-7.5-5.2-5.2c-1.8 1.8-3.8 1.4-3.8-.7q-.1-2.6 5-3c.8 0 3.1 2 5.1 4.6m-57.8-2.1c.3.4-.1 1.7-1 3.1-2 3-4.1 1.5-2.1-1.6 1.3-2.2 2-2.5 3.1-1.5m5.7 2.4q0 .9-.9 1-1.3.2-1.6 2.1-.7 2.1-1.7 1.1c-1.3-1.3.7-5.2 2.7-5.2q1.3 0 1.5 1m27 .4q-.2 1.3-1.5 2c-1.5.5-2.1-1.4-.8-2.7 1.1-1.2 2.3-.8 2.3.7m-59 .6q-.1.8-1.5.4-1.4-.7-1.5-1 .1-.4 1.5-.4c1.4 0 1.5.4 1.5 1m10.5 1.2c3 1.3 3.1 4.4.3 6.2-2.6 1.6-5.2-.4-5.6-4.3-.4-3.5.9-3.9 5.3-1.9m27.6.7c.4.3.3 1.5-.1 2.7-.7 1.6-1.5 1.9-4.4 1.6-3-.4-3.5-.7-2.5-1.8a3 3 0 0 1 3-.9c2.4.8 2.4-.3.2-2.2q-2.6-1.8.7-.7c1.4.3 2.8.9 3.1 1.3m32.4-.9c.4.6 2.1 1.7 3.8 2.4l3.2 1.4-3 1.3c-1.6.7-4.6 1.3-6.5 1.4-3 0-3.5.3-3.3 2.2.3 2.6-1.8 3.1-3.7.8q-1.5-1.6 0-1.5c2.2 0 5-3.1 5-5.5 0-1.2.3-2.5.7-2.8 1-1 3.1-.8 3.8.3m111.7 1.2c-1.6 1.6-1.5 5.5.2 6.1.8.3 2.1-.4 3-1.6l1.5-2.2-.2 2.5q-.5 2.7 2.1 2.8 2.4.3 1.8 1.8c-.3.8 1 3.1 3 5.4 2 2.2 3.3 4.4 2.9 5-.9 1.5-2.5 1.2-2.5-.6q-.1-1.4-1.7-1.2c-2.7.5-2.3 5.1.5 6.3 2.3 1 3 2.5 1.2 2.5-.6 0-3-.9-5.2-2-5.4-2.6-7-2.6-6.6.2q.5 2.1 4.1 4.1c2 1 3.7 2.3 3.7 2.7s-1.6 1.4-3.6 2c-4.7 1.6-5.2 3.5-1.9 7 2.6 2.8 2.7 2.9 1.4 8.7-1.6 7.5-2.1 8.4-5.7 10.6-2.4 1.3-3.2 1.4-3.8.5-1.1-1.7-.4-38.1.7-39.3 1.3-1.3 1.1-5.2-.3-7.5-1.1-1.7-1-2.2.1-2.9.8-.6 1.5-2.7 1.6-5.3.1-5 1-6.8 3.3-6.8q1.8 0 .4 1.2m27.9 3.5q-1.8 2.8-.5-1.2.7-1.4 1.1-1.1c.3.2 0 1.3-.6 2.3M189 353c1.3.8 1.2 1.1-.5 2.4q-3.6 2.7-5 .6c-1.9-3 2.1-5.2 5.5-3m-142.3 1.5c10.9 3.2 16.6 11.8 18.8 28.5.5 3 .9 21 1 40 .2 32 .9 57.7 2 71 1.1 12.7 3.9 31.6 4.9 32.8.5.8 1.1 3.5 1.1 6 .3 6.7 6 32.2 9.6 42.2l4.6 12.8a62 62 0 0 0 13.8 18.5c2.4 1.8 3.4 4.7 1.6 4.7-.5 0-1.9 2.1-3.1 4.7-2.8 6-2.1 10.1 2.5 14.2 3.4 2.9 3.4 3.1 1.5 4.1q-3.7 1.8 1.9 4.4c2.2 1.2 3.4 1.3 6.2.3 6.4-2.2 12.4-7.7 8.5-7.7-1.1 0-1-.8.5-3.7 4.6-8.9-3.1-16-10.6-9.9l-3 2.5 2.3 2.3 2.3 2.3 1.9-2.5c1.6-2 2.2-2.2 2.9-1.1 1.7 2.6-.3 6.4-3.8 7.4-6.2 1.6-10.9-3.6-9.1-10.1 1.3-5.1 3.9-7.3 8.7-7.5 8.3-.3 14.1 7.8 12.9 18-.8 6.5-3.1 10.6-5.6 9.8-.9-.3-2.3.1-3 1q-1.2 1.4-3.5.9c-1.7-.4-2.8.2-4.4 2.2-2.1 2.6-2.1 2.9-.5 4.1 1.3 1 2.4.8 5.5-.8 2.2-1.1 3.9-1.6 3.9-1.1s-2.9 3.6-6.5 7.2c-7.1 7-6.8 7.2-8.3-3.2-1.2-7.5-6.7-20-11.1-25.1A124 124 0 0 1 67.6 568c-1-5.2-2.6-12.7-3.6-16.5-2.1-7.6-3.6-14.6-4.6-22.2-.3-2.6-.8-5.1-1-5.5-.3-.4-.7-4.2-1-8.5l-1.8-21.8a206 206 0 0 1-.9-19c.8-16 .9-57.4.1-65.5-.5-5.2-1.9-13.1-3-17.5s-2-9.2-1.9-10.8c.8-15 .8-14.7-2.8-17.9-3-2.7-3.9-3-8.1-2.6-2.7.3-6.1 1.5-7.8 2.7-2.7 1.9-3.1 2.6-2.5 5.4 1.2 6.4 5.5 8.5 9.3 4.7q3.4-3.5.8 1.3L37 378c-.9 2-6.8 3.1-9.6 1.8-3-1.4-5.4-6.6-5.4-11.6 0-5.2 3.4-10.1 9-13 5.2-2.6 8.8-2.8 15.7-.7m116.1.7q.2 1.5-1.8 2.1-2.3.7-1.6-1l.6-2.5c0-1.5 2.5-.3 2.8 1.4m36.7 4.2c0 3.5-.4 5-1.7 5.7-2.1 1.2-3.1-.2-2.2-3.4.7-2.9-1.1-4.4-3.1-2.7q-1.3 1.1-1.5.4c.1-1.2 6.2-5.3 7.5-5 .6.2 1 2.4 1 5m-28.8-3c1.2.1 2.5.4 2.9.8s1.8.8 3.1.8q4.3 0 .1 4.6-4.6 4.8-7.2-.5c-.9-1.6-2.2-3.1-3.1-3.4a3 3 0 0 1-1.5-2.3q0-1.7 1.8-.9c.9.4 2.7.8 3.9.9m92 2.5c1.2.9 2.3 1.9 2.3 2.3a26 26 0 0 1-7.6 2.4c-5.8 1.2-8.1 1.4-10 .5-2.4-1-3.1-3.5-1.6-5.8 1.6-2.5 13.1-2.1 16.9.6m-24.3-.4q-.7 1.3-1.5.9c-1.4-.8-1-2.4.6-2.4q1.3 0 .9 1.5m-7.1 2.2c1.4.8.7 2.3-1.3 2.3-2.5 0-7-2.1-7-3.2 0-.8 6.5-.1 8.3.9m-15.9 2.7q-.6 1.5-1.5 1.6-.8-.1.1-2.1c1.3-2.4 2.4-2 1.4.5m63.1-1.4c-.3.5-1.4 1-2.3 1q-2.2.1-.2-1c2-1.3 3.3-1.3 2.5 0m-112.9 3.5c1.1 2.7 2 3.5 3.9 3.5q4.6.1.6 5.8a170 170 0 0 0-16.5 37.9c-2.3 7.1-5.8 8.3-7.1 2.4a7 7 0 0 0-3-4.1c-2-1.1-2.8-1-4.9.4-7.6 4.9-11.1-1.5-9-16.8.6-3.8 1.2-4.9 3.2-5.7 2.3-.9 2.3-1.1.9-3.2-2-3-.7-5 2.9-4.5 2.6.3 2.9 0 3.6-3.7.5-2.2.6-4.9.4-6.1-.5-1.7.2-2.5 3.3-3.8 3.5-1.7 4.1-1.7 6.9-.2 4.3 2.2 5 2.1 6.6-1.9 1.2-2.7 2.1-3.5 4.1-3.5s2.9.8 4.1 3.5m55-1.4c.8 1.4-1.1 3.3-2.5 2.5-1.1-.7-.4-3.6.9-3.6q.9.1 1.6 1.1m18.9-.1q.4.9-.4 1-1-.1-1.1-1 0-1 .4-1 .6 0 1.1 1m-48.2 2.1q.6 2-3 6.7a89 89 0 0 0-6.4 10.5 78 78 0 0 1-3.8 7.1c-.5.6-1.6 3.4-2.4 6.3a118 118 0 0 0-6.2 21.3 75 75 0 0 1-3.6 13.6c-.5.7-1.1 3.4-1.3 6.1s-1.1 7-2 9.6-1.6 5.7-1.6 6.8c0 2.8-2.8 7.9-4.4 7.9s-7.6-4.1-8.9-6.1a4 4 0 0 1-.4-3.2c.5-1.4 1.1-1.1 3.6 1.3 2.8 2.9 8.1 4.2 8.1 2q-.2-1-1.8-1c-2.6 0-9.2-5.8-8.6-7.5.5-1.2 1.2-1 3.8 1 3.3 2.5 6.6 3.3 6.6 1.6q-.2-.9-1.9-1.6c-3.6-1.1-7.1-4.6-7.1-7v-2.4l3 2.9c1.7 1.7 3.8 3 4.8 3 1.5-.1 1.5-.2.1-1.3-6-4.6-7.8-6.7-7.3-8.1.8-2.1 1.7-2 3.9.4 1.9 2.1 7.5 2.8 7.5 1q-.2-1-1.8-1c-2.2 0-5.9-2.5-7.2-5-1.6-2.9.4-3.2 4-.5 1.9 1.4 4 2.5 4.7 2.5 2.1 0 1.5-2-.9-2.9-2.8-1.1-7.4-5.8-6.5-6.7.3-.4 2.1.3 4 1.5q5.7 3.5 5.7 1c0-.5-1.6-1.7-3.5-2.5-3.4-1.4-5.4-3.8-4.2-5.1.4-.3 1.8.2 3.3 1.1s2.9 1.5 3.2 1.1c1-.9-1.2-3.9-3.6-5-1.2-.5-2.2-1.5-2.2-2.2 0-1.6-.1-1.7 4.4.7q5.6 2.9 5.6-.1-.2-.8-1.5-.9c-2.6 0-6.5-3.1-6.5-5.1s1.5-2.6 2.4-1c.9 1.3 4.5 2 5.2 1 .3-.5-.8-1.4-2.5-2q-3-1.2-3.1-2.8c0-2.8 1-3.1 4.2-1.5 1.7.9 3.2 1.3 3.5 1.1q.1-.6-2.4-1.9c-1.5-.7-2.8-2-2.8-2.8 0-1.4.5-1.4 4.5-.3q1.5.2 2.7-2.2c1-2.2.9-2.8-1-4.5-2.3-2.2-1.6-4 .8-2q1.3 1 1.5.2c0-.5-.7-1.5-1.5-2.2-2.4-2-1.7-3.2 1.5-2.5 3.1.7 4.3-.8 1.5-1.9-2.9-1.1-1.6-2.8 1.5-2.1 2.3.5 3 .3 3-.8q.2-1.4 2-2c2.6-.7 2.6-2.7.1-2.7-2.4 0-3.5-1.5-2.7-3.6.5-1.3.9-1.3 3.5.1 3.8 1.9 5.1 1.9 5.1 0 0-.9-1.1-2.1-2.5-2.7s-2.5-1.5-2.5-1.9c0-1.6 2-1.9 4-.7 1.8 1.1 2.3 1 3.1-.5q2-3.5 3.2.4M293 377.8c0 21.7-1 35.2-2.7 35.2-1.9 0-6.3 4.9-6.3 7q0 4.2-11.7 1.5a6 6 0 0 1-3.5-3.3l-1.4-2.7 7.9-.1c5.8-.1 8.3-.5 9.5-1.8 1.5-1.5 1.1-1.6-6.2-1.6a37 37 0 0 1-9.7-1c-1.1-.6-2.5-.7-3.2-.3-.6.4-2.3.8-3.7.8a4 4 0 0 0-3.6 2.3c-2.1 4.2-2.9 4.3-6 1.5a68 68 0 0 1-11.3-15.8c-1.2-2.9-1.2-2.9.6-1.3 5.3 4.8 17.3 9.2 18.8 6.8.9-1.5-1.3-4-3.7-4-2.9 0-11.1-4.6-12.6-7q-1.3-2-3-1.6c-1.8.6-4.9-3-3.7-4.2a22 22 0 0 1 6.5-.4c8.4.3 18.6-4.4 29.7-13.9 3.4-2.9 11-6.5 11.9-5.6.2.1-1.3 1.9-3.2 4s-5.1 4.1-7.4 4.7c-3.9 1-5.3 3.4-2.7 4.3 2.2.7 6.9-2 11.7-6.7 2.6-2.6 5.3-4.6 6.1-4.4q1.4.4 1.1-3c-.1-1.7.2-3.2.8-3.2s1 5.2 1 13.8m-81.2-4.8a8 8 0 0 1 2.6 4.1c.6 2.5.5 2.6-2.9 1.5-1.9-.6-3.5-1.6-3.5-2.3a14 14 0 0 0-3-4.7c-4.2-4.8-3.1-7.4 1.4-3.2a56 56 0 0 0 5.4 4.6m13.6-7.2q.3.8-.4 2.2-.9 1.7-2.1.3c-.6-.6-.8-1.6-.5-2.2.8-1.3 2.3-1.4 3-.3m40.9 1.2q-.6 1.8-2 2-1.6.2-.3-2 1.1-1.8 1.9-2 .8.2.4 2m-35 .6c1.1 1.1-.5 3.4-2.4 3.4-2.1 0-2.2-.1-1.3-2.4.6-1.6 2.5-2.1 3.7-1m6.7 1.3c0 1.9-2.9 4.4-4.4 3.8s-1.5-.9-.1-3.1c1.5-2.2 4.5-2.7 4.5-.7m12 3.6q-1 2.8-2.1 1.8-1-1 .2-3.7c1.6-3.5 3.3-1.8 1.9 1.9m6-2.6c0 2-2.7 4.8-3.7 3.7-.9-.8 1.4-5.6 2.7-5.6q.9.1 1 1.9m5-1q-.1.9-1.5 2.1-2.3 2.1-.9-1.4c.6-1.7 2.4-2.2 2.4-.7m-150.2 2.6c1.9 2.4 2.3 2.5 6.8 1.5 3.7-.9 4.9-.8 5.6.2 1.2 1.9 1 2.4-1.8 5.7-1.9 2.3-2.3 3.5-1.6 4.8.5 1 .7 3.2.5 5-1 6.2-8.8 10.1-8.8 4.3 0-1.4-.4-3.1-.8-3.8-1.2-1.7-4 .7-5.7 4.9-1.5 3.4-3 3.8-3 .8 0-1.2-.7-2.7-1.6-3.4-1.8-1.3-2.2-7.3-.9-14.2 1-5.3 3-7.2 8.7-8.2q.8.1 2.6 2.4m130.5-.5c-.6 2.2-2.3 3.8-2.3 2.1s1.2-4.1 2-4.1q.8.2.3 2m5 0c-.6 2.2-2.1 3.5-3 2.7-.2-.3-.2-1.5.2-2.6.8-2.8 3.5-2.8 2.8-.1m22.2 2c-1 1.7-6.5 4.2-6.5 3 0-.6 1.5-1.7 3.3-2.5 3.9-1.7 4-1.7 3.2-.5m-47.1 2.4c3.1 2.8 3.2 3.6.8 3.6-1.1 0-2.4-1.1-3-2.5q-3.2-6.4 2.2-1.1m39.6 1.4c0 .5-1.2 1.4-2.7 2.1-2.8 1.3-2.8 1.3-.9-.8 2-2.2 3.6-2.7 3.6-1.3m-27.5 1.2c.3.5.3 1.5-.1 2.1-.6 1.1-2.3-.6-2.4-2.4 0-1 1.8-.9 2.5.3m21.5 1.5q0 1.4-.4 1.5l-2 .6q-1.6.6-1.6-.9.2-2.2 3.3-2.6.6 0 .7 1.4m-16 .9c0 1.4-2.8 4.2-3.5 3.4-.2-.2-.2-1.4.2-2.6.6-2.4 3.3-3.1 3.3-.8m5 .6q0 2-1.9 2-2 .1-1.4-2 .6-1.8 1.9-2 1.3.2 1.4 2m3.4.5q.4 1.4-.4 1.5-1-.1-1-1.5c0-1.4.2-1.5.4-1.5s.6.7 1 1.5m-54.7 1.6c2.9 1.8 3.2 2.4 2 3.1-1.4.7-1.4 1.3-.1 5.3 1.7 4.7 3.7 7.1 5.3 6q1-.7-.9-5.7c-1.8-4.7-1.9-7.9-.2-5.1.4.6 3.9 3.3 7.7 5.9s7.2 5.1 7.3 5.6c.2.5 1.7 1.5 3.3 2.4 2.5 1.3 3.6 1.3 6.7.2 5.4-1.8 5.8-2.3 4.3-6.4-1.2-3.5-.8-10.4.7-10.4 1 0 6.2 10.2 6.2 12.3 0 .9.4 3.6 1 5.9 3.4 14.8 3.9 17.2 3.5 17.6-.6.7-2.4-4.1-4.4-11.8-1.8-6.9-2.7-9-4.1-9q-3 .1.5 12.1l3.6 12.4q1.8 7.1 4.5 6.1 1.3-.7 3.9 7.8a47 47 0 0 0 6.5 14.4c0 .5.7 1.5 1.5 2.2 2.4 2 4.4-.3 2.7-3-1.4-2.3-1.5-3-.3-3q.8.2 1.5 1.7l1.2 3c.9 1.9-3 3.3-10.8 3.8q-12 .8-9-2.7c.9-1.1.7-2.7-.9-6.8a117 117 0 0 1-6.4-28.3 96 96 0 0 0-2.6-13.9c-1.2-2.2-4.6-1.9-4 .3 1.5 6.1 3.5 15.8 4.6 22.9 1.4 8.7 2.1 11.7 4.9 20.5l1.6 5.4c0 .9-21.6-3.2-22.7-4.3q-.4-.6.6-2c1-1.1.9-2-.1-3.8-2.6-4.6-5.4-7-11.4-9.8-5.5-2.4-11.4-7.9-11.4-10.5 0-1.2-7-11.5-10.2-15l-2.8-3.1 2.1-5.3c3.1-8.2 9.1-19.1 10.5-19.1.4 0 2.2 1 4.1 2.1M331 388q0 .9-.4 1-.5-.1-1.1-1-.4-1 .4-1 1 0 1.1 1m-215.2 12.5c.3.3-4.6 8.1-6.5 10.4q-.5.3-2.6-1.7c-2.1-2-2.9-2.2-3.5-2.2-2 0-1.3-2.2 1.5-5.2 2.5-2.6 3.2-2.8 6.8-2.2 2.2.3 4.2.8 4.3.9M103 413.9c0 1.7.4 3.3 1 3.6s-.1 2.2-1.5 4.5-2.5 4.4-2.5 4.9-.6 1.4-1.4 2c-2.2 1.9-4-10.1-2.1-13.9 2.5-4.8 6.5-5.4 6.5-1.1m75.7.1c1.4 1.6 3.2 3 3.9 3s1.5 1.7 1.9 3.7a22 22 0 0 0 13.1 15.4c5.9 2.7 11.4 7.7 11.4 10.4 0 .7-1.2 2-2.6 3s-2.2 2.1-1.8 2.5c.8.7 18.5 4.3 26.4 5.3 1.9.3 5.5 1 7.9 1.7s5.8.9 7.3.6c1.6-.3 3.7 0 4.8.6 1.6 1 2.3.9 4.3-1a8 8 0 0 1 5.3-2.1c2.7 0 2.8.1.9 1.2-4.7 2.8-10.5 9.5-10.5 12.1q0 2.6 1.6 2.6 1.4 0 1.2 1.2c-.7 2.1-2.6 2-4.5-.1-2.2-2.7-2.7-2.6-4.1.3q-1 2.6-3.1 1.9c-1.9-.5-2.1-.1-2.1 3.7 0 5-2 5.1-3.3.1-.7-2.7-1-3.1-2.2-2.1-.8.7-1.5 2.3-1.5 3.6s-.4 2.4-1 2.4-1-1.4-1-3.1c0-3.9-2.3-3.4-3 .6-.7 3.9-2.4 3.7-2.8-.3-.5-4.6-3.2-4.3-3.2.3q0 3.5-1.5 3.5c-1.1 0-1.5-1.2-1.5-4.5s-.4-4.5-1.5-4.5-1.5 1.2-1.5 4.5c0 5.5-1.7 5.9-2.6.7-.9-4.8-1.3-5.5-2.8-4.3-.7.6-1.1 2.4-.8 4.1q.5 3.1-1.1 3c-1.7 0-3.4-5.9-2.4-8.4.8-2-.4-2.8-2-1.5-.7.7-1.3 3.1-1.3 5.6 0 4-.2 4.4-1.6 3.2-1.2-1-1.4-2.4-.9-7.1.6-4.8.4-5.8-.8-5.8-.9 0-1.9 1.6-2.6 3.7-1 3.5-1 3.4-.5-2 .4-4.6.3-5.7-1-5.7-1.7 0-2.2 1.4-3.2 8.4-.5 3.8-.9 4.5-1.6 3.2-.5-1-.7-3.8-.3-6.4.7-5.4.5-6.8-1.2-6.6-2 .3-1.5-1.7 1-4.4l2.2-2.4-2.5.7c-1.4.4-3.5 1.8-4.6 3.2-3 3.5-3.8 1.7-2.9-7.1.6-6.5.4-7.4-1.5-9.1-2.7-2.5-4.8-.8-3 2.5 1 1.8 1 3.2.1 6.2-.7 2.2-.9 5.3-.6 7 1.1 4.6 4.5 9.8 6.5 9.8 1.3 0 1.9 1.1 2.3 4.5q1 7.5-1.8 7.5c-1.7 0-3.7-2.5-7.5-9.3q-4.7-8.3-6.6-6.4c-.3.3.6 2.7 2 5.3 1.4 2.7 3.2 6.6 4 8.7 1.6 3.9 4.5 5.7 9.6 5.7 3.3 0 4.8 1.6 3.1 3.3-1.5 1.5-11.7-.6-14.2-2.9-1.5-1.3-2.2-1.4-3.3-.5-.8.7-1.3 1.8-1 2.5.7 1.8 8.2 5.6 11.1 5.6q2.3 0 1.7 1.1c-1 1.7-15.7.6-18.7-1.4-4-2.6-5.3-6.4-4.6-13.2l1.2-11.2c.3-2.8 1-5.9 1.5-7 1.3-2.4 5.9-21.4 7.1-28.8 1.7-11.1 4.5-23.5 5.3-23.5.4 0 2 1.3 3.5 3m112.3 3.9q0 1-1 1.6-.9.4-1-.9.1-1.5 1-1.6 1 0 1 .9m-163.2 3.3c1.4 1.4 1.6 7.8.2 7.8a1 1 0 0 0-1 1q.2.9 2.3 1c3.7 0 4.8 1.4 4.5 5.6-.3 3.8-.2 3.9 3.2 4.2q7.6.8 6.7 7.2l-1.7 14c-1.1 9.4-1.5 10.7-3.8 12.7q-5.9 5.1-8.8-1.3-1.6-3.6-3.3-2.9-9.6 3.9-11.5-4.5c-.8-3.4 3.2-10.4 6.2-10.8q2-.4 2.2-.9c0-1.5-3.5-4.3-5.2-4.3-2.3 0-3.8-3.8-3.7-9.3.1-6.2 1.2-9 3.9-10.4 2-1 2.5-2 2.5-5 0-2.9.4-3.8 1.7-3.8.9 0 2-.4 2.4-.8q1.3-1.6 3.2.5m137.9 4q-.5 1.1-.6-.6t.5-1.3q.5.6.1 1.9m-158.3 2.4c.8 2-.2 5.4-1.5 5.4-.5 0-.9-1.6-.9-3.5 0-3.7 1.3-4.7 2.4-1.9m166.3.6q-.5 1.1-.6-.6t.5-1.3q.5.6.1 1.9m9.3-.6q-.1 1.3-1 .9-1-.7-.5-1.6 1.4-2 1.5.7m-30 1.5q0 1.8-1 1.4-.8-.6-.3-2 1.2-3.1 1.3.6m15.5-.1q.4.9-.4 1-1-.1-1.1-1 0-1 .4-1 .6 0 1.1 1m24.5 3.6c3 .3 33.8 1.2 47.8 1.3l4.3.1-.3 5.2-.3 5.3-15-.4c-8.2-.1-15.5-.7-16.1-1.2s-4-1.5-7.5-2.2c-6.3-1.3-6.5-1.3-13.6 1.9-4 1.8-7.5 2.9-7.8 2.5-.2-.5-5.2-.6-11-.3l-10.5.5v-5.7c0-5.4.1-5.6 2.8-5.7l11.4-.4c9.8-.4 10.8-.7 10.9-3.8q0-3.2.8.2c.5 1.8 1.5 2.4 4.1 2.7m-31-2.2q0 .5-1 1.1-.9.4-1-.4.1-1 1-1.1 1 0 1 .4m-7.8 3.8q-1.1 1-1.2.2c0-1.4 1.2-2.6 1.9-1.9q.3.6-.7 1.7M146 436.8q0 1.4-2.2.8l-3-.6q-.8-.2-.8-1.9c0-1.7.3-1.8 3-.8 1.7.6 3 1.8 3 2.5m-41.5-.4c4.7 1.7 5.4 3 2.8 5.9-1 1.2-2.7 4-3.7 6.1q-1.7 4.1-2.6 2.7c-.4-.7-.6-2.1-.3-3s-.5-2.6-1.7-3.9c-1.9-2-2-2.6-.9-5.7 1.5-4 1.2-3.9 6.4-2.1m152.5 2.1q-1.2 1.4-1.7 1.1c-.7-.7.7-2.6 1.9-2.6q1 0-.2 1.5m-143.5 13.9c1.6.6 1.4 1-1.3 3.7-6.4 6.3-3.1 16.6 6.1 18.9 2.3.6 5.9 2 8 3.1 2.2 1.2 5.9 2.2 8.8 2.3l4.9.1v4.7c0 3.7-.4 5-1.9 5.8-2.7 1.4-3 1.3-2.4-.9.7-2.6-1.5-3.7-3.5-1.7-1.4 1.4-1.5 2-.4 3.7s1.1 2.4-.7 4.3c-2.7 2.9-2.7 8-.1 10.6l2 2h-11.8l.6-4.3q.4-4.1 3.4-6.9c3.7-3.5 3.8-9.2.3-14.8-3.3-5.2-5.7-6.4-12.1-5.7-3.9.4-5.6.2-6.5-.9-.6-.8-2.7-1.4-4.5-1.4-2.9 0-3.4-.4-3.4-2.3 0-1.2 1.2-4.9 2.6-8.2l4.5-11.3c2.6-7.4 3-7.9 4.4-4.5a8 8 0 0 0 3 3.7m190.4-1.2c6.8 1.2 7.8 3.1 1.4 2.6-3.9-.4-5.3-.1-5.7.9q-.6 1.3-1.7.7-1.2-.8 0 1.4 1.3 2.8 13.6 3.2c1.9.1 1.9.2.1 1.2-1 .5-3.5.7-5.6.4-3.3-.5-4-.3-4.5 1.5-1 3.1.8 4.2 7.5 4.7 3.3.2 6 .8 6 1.3 0 1-1.5 1.2-7.7.9-3-.1-5.5.6-9 2.7-4.2 2.4-5.8 2.8-12.8 2.8-8.1 0-17.9-2.1-17-3.6q.4-.7-.5-1.4c-.5-.3-1-2-1-3.7 0-2.7-.3-3-2.5-2.6-1.4.3-2.8.2-3-.2-.7-1.1 6.7-4.8 8.2-4.3.7.3 2.5-.5 3.9-1.6 1.5-1.2 3.2-2.1 3.9-2.1s2-.9 3-2 2.4-2 3.2-2q1.2-.1 1.3-1t2.3-1c1.3 0 4.1-.9 6.2-1.9 3.9-1.9 3.9-1.9 5 .2q1 2.2 5.4 2.9m90.6-3.7c13.1 3.3 30.4 15.1 32 21.8.6 2.4.1 3.3-3.9 6.8-3.9 3.5-4.6 4.6-4.6 7.8 0 4.3-1 5.8-6.6 9.3a15 15 0 0 0-7.2 14.9c.1 2.7.2 4.9 0 4.9l-3.2-1.5c-1.6-.8-5.6-1.8-8.8-2.1-4.7-.5-6.6-.3-9.8 1.4-6.9 3.6-14.4 14-14.4 20.2 0 1.7-.4 3-.8 3a100 100 0 0 1-16.5-14.5c-1.4-1.7-5.3-8.2-8.7-14.5s-7.7-13.3-9.4-15.5c-4.5-5.6-4.7-6.1-3.7-8.7.5-1.3 1.4-4.8 2.1-7.8.9-3.9 2.3-6.6 4.9-9.3 6.3-6.8 10.9-8.1 16.3-5 2.9 1.8 3 1.8 5-.7 1.1-1.4 2.8-2.4 3.8-2.2q1.9.2 3.6-2.7c3.5-5.9 18-8.6 29.9-5.6M95 449.4c0 .8-.4 1.8-1 2.1-1.6 1-1.2 2.3 1 3 1.1.4 2.7 1.9 3.4 3.4 1.3 2.5 1.2 3.1-.7 6.6-2.3 4-4.7 5.7-4.7 3.3 0-.7-.9-3-2-5.1-2.5-4.7-2.5-6.7.1-11.1 2.2-3.7 3.9-4.7 3.9-2.2m168.4-.4c3.1 1.1 3.3 2.6.6 3.3q-2 .5-3-1.3c-1.8-3.3-1.5-3.5 2.4-2m52.6 1.2q0 .9-1.5-.2-1.4-1.2-1.5-1.6.1-.3 1.5.2 1.4.7 1.5 1.6m-42.9.3c-.1 1.5-2.4 1.2-2.9-.3q-.4-1.4 1.2-1t1.7 1.3m-118.1 15c0 2.6-2.1 2.7-5.5 0q-3.5-2.6-3.5-5v-2.4l4.5 3c2.5 1.7 4.5 3.7 4.5 4.4m-65.9 2.7q1.4 5 3.1 5.6c2.2.5 2.2.8.3 6.2-2.1 6-1.9 13.6.4 16.9 1.1 1.5 3.1 5.2 4.4 8.3 2.5 5.7 4.9 7.8 8.6 7.8 1.2 0 3 .6 4.1 1.2 1.6 1 2.2 1 3.2-.5 1.2-1.5 1.8-1.6 4.8-.6 3.3 1.2 26.1.6 73.5-1.8 6.6-.3 20.3-.7 30.5-.8 16.4-.1 44-1.5 63-3 6.3-.6 6.5-.5 7.7 2 .9 2 .9 2.7 0 3-.7.2-24.1.6-52.2 1a3887 3887 0 0 0-120.5 2.7h-14.6l-13.2-.2-1.6-7.3a174 174 0 0 1-4.2-33.6q-1-21.5 2.7-6.9m60.7.5q8.4 6.3 3.3 6.3c-2.7 0-8.1-4.8-8.1-7.1 0-2.5.4-2.4 4.8.8m170.5 1.8q-1.2 3.1-1.3-.6 0-1.8 1-1.4.8.6.3 2m-168.6 7.1c2.8.7 3.1 2.4.4 2.4-2.4 0-7.1-3.7-7.1-5.6q-.2-1.7 2.2.6a14 14 0 0 0 4.5 2.6m158.2 4.9c-.2 7.4-.3 7.7-3.8 10.5q-5.4 4.3.4 5.2 2 .2 2.8 4.2c1.2 5.1-1.4 9-6.5 9.4q-6.2.5-7.5-7c-.4-2.8-.1-3.9 1.8-5.6 2.2-2.1 2.2-2.2.5-4.1-2.3-2.5-1.4-7.1 1.4-7.8 3.4-.9 2.2-2.5-1.2-1.7-2.9.6-3.1.5-1.9-.9.7-.9 2.1-1.9 3.2-2.2 2.6-.9 2.4-2.5-.3-2.5-2.1-.1-2.1-.2-.5-1.1.9-.5 1.7-1.7 1.7-2.4 0-1.1 1.3-1.5 5.1-1.5h5zm9.7-3.7c-1.4 1.4-1.6 1.4-1.6.1 0-2 2.3-4.4 2.9-2.8.2.6-.4 1.8-1.3 2.7m-68.6.7c0 3.3-.2 3.5-3.5 3.5-1.9 0-3.5-.5-3.5-1q0-.9.8-.9c2 .3 3-.3 4-2.6q2.3-5.1 2.2 1m-147.6 2c-.9 2.1 1.2 2.6 4.2 1 1.6-.8 4.6-1.5 6.6-1.5 4.4 0 7.8 3.6 7.8 8.4 0 5.1-1.3 6.1-7.7 6.1h-5.8l-2.2 4.4c-1.4 2.7-2 5.3-1.7 6.8 1.2 4.6-1.6 2.2-4.6-3.8a78 78 0 0 0-3.8-7.3c-.5-.6-1.2-3.2-1.5-5.7-.5-3.8-.3-5 1.3-6.4 1.1-1 2-2.4 2-3.1 0-1.6 3.1-2.3 4.7-1.1q1 .8.7 2.2m47.5 0c3 .6 3.3.9 2.7 3.7a54 54 0 0 0 4.1 23.5c-1 1-11-1.2-11.5-2.6q-.5-1.4 1.7-.6 2 .5 2.1-.4c0-.5-.9-1.3-2-1.6s-2-1.5-2-2.5c0-1.7.4-1.8 2.6-1 4.1 1.6 4.1 1.2-.1-2.4-4.5-3.8-4.3-5.6.3-3.2q4.2 2.2 4.2-.6-.1-.7-1.4-.8c-2.2 0-6.6-4-6.6-6.1 0-1.6.3-1.8 1.9-.9q4 2 4.1 0-.1-1-1.1-1c-1.2 0-4.8-4-4.9-5.4q.1-.7 1.3.2c.6.5 2.7 1.3 4.6 1.7m171.3 2.7c-1.3 1.3-2.4-.5-1.6-2.7.7-1.6.8-1.6 1.7 0q1 1.7-.1 2.7m-32.7 1.9c1.1 1.7-.1 2.1-1.5.4q-1.2-1.4-.2-1.5 1 .1 1.7 1.1m-22 2.1c-.4 1.7.5 3.4 3.7 6.8 2.4 2.6 5.4 5.4 6.7 6.3 1.4.9 2.3 1.9 2 2.1s-6 .8-12.6 1.2l-12.2.7.6-2.3q.7-2.3-1.1-3.2c-.9-.5-1.6-1.6-1.6-2.4q-.2-1.7 2.8-.9c2.4.5 3.3 0 5.8-3.2 1.7-2.1 3.3-4.6 3.7-5.6.9-2.5 2.8-2.1 2.2.5m57.7-.7q-.1.9-1.1 1.3-1 .2-1.1-1.3c-.1-1.5.5-1.5 1.1-1.3q1 .4 1.1 1.3m-74.2.3c0 .4-.6 2-1.2 3.5-1.1 2.4-1.7 2.7-4.3 2.2q-3.1-.5-5 1-3.6 2.8-3.5.1c0-2.1-1.9-3-3.5-1.6-.8.7-2.1 1-2.9.7-1.7-.7-3.6 1.1-3.6 3.5 0 .9-.7 2.1-1.6 2.6-1.3.7-2.8-.2-6.5-3.7a21 21 0 0 1-4.9-5.9q0-1.2 6.3-1.3c11.7-.2 22-.8 22.5-1.4.9-.8 8.2-.6 8.2.3m77.5 1.1q-.6 2 3.5 7.9a46 46 0 0 1 4 6.6c0 .3-1.3.6-3 .6q-3.1 0-3-1.8a8 8 0 0 0-1.5-3.8c-.8-1-1.5-2.7-1.5-3.6q-.2-1.5-1.2-2-1.4-.3.5-3.1 3.4-4.8 2.2-.8M209 490.7c0 2.5 9.8 11.3 12.5 11.3 2.1 0 5.3 2.5 4.3 3.5-1.1 1.1-8.3-2-11.6-5-4.8-4.3-9-11.5-6.8-11.5q1.5.2 1.6 1.7m-2.8 7.3c2.1 2.8 3.3 5 2.8 5-1.3 0-9-7.7-9-9 0-2.4 2.8-.6 6.2 4m-9.9-1.1c.9 1.6 3.3 4.3 5.2 6s3.5 3.3 3.5 3.6-1.5.5-3.4.5c-2.8 0-4.2-.8-7.5-4.6-4.2-4.8-5-6.9-2.8-7.7 2.4-1 3.3-.7 5 2.2m-56 4.5c.4 2.7.6 5 .4 5.3s-1.6-.1-3.1-.6c-2.3-.9-2.6-1.6-2.6-5.6 0-4.2.2-4.6 2.2-4.3 1.8.2 2.4 1.2 3.1 5.2m152.7-3.9q-.1 1.4-1.4 1.5c-1.7 0-2.8-1.4-1.9-2.4 1.2-1.2 3.3-.6 3.3.9M114 500c2.2 2.2 2.4 2.9 1.1 4.8-.7 1.2-5.6 4.2-6.7 4.2-.8 0-.4-5.9.6-8.4 1.1-3.1 2.3-3.3 5-.6m204 2.5q1.6 1.6-.4 1.5-1.5-.1-1.6-1.5c-.1-1.4.2-1.5.4-1.5s.9.7 1.6 1.5m-139.9 1.6c1.7 3.3 1 3.9-4.6 3.9-3 0-5.5-.5-5.5-1q.1-1 1-1 1-.2 1-2c0-1.7.6-2 3.6-1.8q3.4.3 4.5 1.9m147.4-1.1q.4.9-.4 1-1-.1-1.1-1 0-1 .4-1t1.1 1m-88.5 1q-.1.9-1.1 1-.8-.1-.4-1 .6-1 1.1-1 .3 0 .4 1m91 4.6c0 1-7.7 3.4-11.1 3.4q-5.8.1-2.9-2.6c.9-.9 14-1.7 14-.8m13.4 4.9c1.6 2.5 1.4 4.5-.5 4.5q-.8-.2-.9-1.5c-.1-1.3-.4-1.5-1-1.5q-.9-.2-1-2 .2-4 3.4.5m4.6 8.1c0 1.8-1.4 1.8-3-.1s-.3-4 1.6-2.4c.8.6 1.4 1.8 1.4 2.5m-14.5 3.3q.4.9-.5 1.6-.9.4-1-.9 0-2.7 1.5-.7m-83 2.1q.4.9-.4 1-1-.1-1.1-1 0-1 .4-1 .6 0 1.1 1m14.3.2q2.8 2.8-1.3 2.8c-2.8 0-5.8 3.8-6.1 7.9-.7 7.6-5 14-11.7 17.2-2.6 1.3-4.7 2.9-4.7 3.6 0 2.3 2.9 2.6 5.8.8l2.7-1.8-3 3.2c-4.7 5.1-6 5.5-6.1 1.8q-.2-3-2.3-4.5c-2.5-1.7-2.7-3.2-.5-3.2 1 0 4.1-1.6 7.1-3.6q9.2-6.2 9.8-15.9c.2-5.2 1.3-7.5 3.9-8.5q4.4-1.9 6.4.2m78.2.3q1.7 1.8-.4.9-1.5-.6-1.6-1.5 0-2 2 .6m12 2q0 1.3-1 1.5-.9-.2-1-1.5c-.1-1.3-.4-1.5-1-1.5a1 1 0 0 1-1-1q0-1 2 0 1.8 1.1 2 2.5m-157.3-1.2c.1.2-1.4 2.2-3.5 4.5-3.3 3.6-4.5 4.2-7.9 4.2-3.2 0-4.8.7-7.5 3.2-5.3 4.9-11 9.3-12.2 9.3q-1-.2-1.4-2a9 9 0 0 0-1.9-3.7 5 5 0 0 1-1.1-3.5c.4-2.3 4.1-2.9 5.8-.8 1.5 1.8 6.6 2 7.6.3.4-.6-.5-2.1-2.1-3.4-2.8-2.2-2.8-2.4-1.1-4.3 2.1-2.3 4.6-1.7 4.6 1 0 2.5 1.8 2.4 4.5-.1 2.1-2 5.5-1.9 5.5.1q.1.8 1.5.9c2.4 0 2.9-2.9.9-5.1-1.8-2-1.8-2 3-1.5 2.7.3 5.1.7 5.3.9m34.3-.3c0 1.3-3 1.3-5 0q-1.8-1 1.8-1c1.7 0 3.2.4 3.2 1m12.3 2.2c1.8 2.1 2.4 6.8.8 6.8-.5 0-1.2-1.3-1.6-3s-1.9-3.9-3.3-5.1l-2.7-2.1 2.5.7c1.4.4 3.3 1.6 4.3 2.7m-95.4.8c.6 0 1.1 1.1 1.1 2.4 0 1.4.5 2.8 1 3.1s.7 1.7.4 3c-.5 1.9.5 3.5 5.5 8.5q6.1 6.1 6.1 8.6c0 4.3-4 11.1-9.5 16.3s-8.1 6.2-9.2 3.5c-1-2.6 1.5-6.3 6.3-9.4 4.2-2.6 7.4-6.6 7.4-9.2 0-.5-1.4-2.1-3.1-3.5s-4.4-5-6.1-8c-3.5-6.2-4.2-6.8-5.7-4.9-.9 1.1-.7 2.4 1.1 6l2.2 4.6-3.1 3.2a23 23 0 0 0-3.6 5c-1.2 3.5-9.9 7.2-12 5.2-.9-1 1.3-6 3.6-8.1 1.2-1.1 3.4-2.3 5-2.7q2.7-.6 2.7-2.6c0-1.1.5-2.9 1.2-4 1.8-2.8.2-3.7-3.1-1.7-1.6.9-3.6 1.7-4.5 1.7-3.1 0-1.6-2 3.4-4.5q8.3-4 4.9-10.3l-1.7-3.4c-.6-1.3 6.3-1.3 7.4-.1q1 1.2 2.3 1.3m67.2-.9c-1.3 1.1-2.6 1.7-2.9 1.4-.8-.8 2-3.5 3.7-3.5 1.2.1 1.1.5-.8 2.1m64 4.8q10.9 3.7 9.4 6c-1 1.7-2.1 1.3-5.4-1.5-1.7-1.4-3.8-2.3-4.6-2-2.2.8-1.8 2.5.9 3.6 2.6 1 6.6 6 6.6 8.4 0 2.3-2.5 11.5-4.6 16.5l-1.7 4.4-3.8-7.4a94 94 0 0 1-3.9-8.2c0-.4 1.8.4 4 1.8s4.5 2.3 5 2c2-1.2.9-3.6-2.5-5.6-1.9-1.2-3.5-2.5-3.5-2.9q.1-2.8 4.9.1c3.1 1.8 5.1 1.8 5.1-.1 0-.5-1.8-1.9-4-3.1-3.2-1.8-4.3-3.2-5.1-6.3l-1.5-5.4c-.2-.6-1.6-1.2-3.2-1.2-3.6 0-4-.5-3.5-3.4l.5-2.3 2.2 2.2c1.2 1.2 5.1 3.2 8.7 4.4m3.5-4.9c2.6 1.1 4.5 2.3 4.2 2.5-.7.7-9.8-2.8-9.8-3.7 0-1.1.2-1.1 5.6 1.2m42.2.7c3.7 2.6 3.9 3.1 3.8 7.8l-.1 5-4.1.3c-4.4.3-6.9-1.4-5.8-4.1.5-1.3.9-1.4 2.5-.4 1.5.9 2.2.8 3.5-.5 1.5-1.5 1.5-1.8-.9-4.2-2-2-3.3-2.5-5.2-2-3 .7-3.4-1.2-.7-3.2 2.4-1.8 2.6-1.8 7 1.3m-192.3-.7c-.3.5-1.6 1-2.8.9q-3.1.1-.2-.9 4.1-1.8 3 0m29.2-.4q-.6.5-1.9.1-1.1-.5.6-.6t1.3.5m-43.7.9c0 .2-1.1 1.1-2.3 2-2.1 1.3-2.8 1.4-5.8.1l-3.4-1.5 5-.3 5.8-.6q.7-.1.7.3m106.8 1.7c.6.7 1.2 2.6 1.4 4.2.4 3.5 3.2 5.6 5 3.8.9-.9.9-1.7-.2-3.6-1.1-2.1-1.1-2.8 0-4.1 2.9-3.5 8.6-.2 7.6 4.5-.2 1.5 0 3.2.7 3.9 1.6 1.6 6.2 1.4 7.7-.4 2.3-2.7 2.3-.7.1 2.9a16 16 0 0 1-6.5 5.5c-5.1 2.5-5.3 2.5-7.3.5-.9-.8-2.2-1.3-3-.9q-1.6.6-.9-1.1c.9-2.3-2-6.4-4.4-6.4-3 0-9.1-4.1-8.8-5.9.3-1.5 4.2-4.1 6.4-4.1q1.1.2 2.2 1.2m119.7 2.4c11.1 4.7 18.1 8.5 24.9 13.8 5.1 3.9 9.2 12.9 9.9 21.6.5 6.3.5 6.4-.9 3.2-1.5-3.5-2.5-3.9-4.3-1.8q-1.3 1.4-.3 3.3c1.1 1.9 3.1 19.5 2.9 24.8-.2 5 1.4 37.5 1.9 38.8.3 1 1.1 8 2.8 25.8l1 8.5 1.1 7.9q2.9 22 13 36.5a62 62 0 0 1 3.8 6.2c.7 2 3.7 2.5 3.7.6 0-.6-1.7-3.4-3.9-6.2a65 65 0 0 1-10-19.1c-.7-2.2-1.6-4.9-2.1-6-1.1-2.5-2.9-19-3.6-32a381 381 0 0 0-1.4-18 334 334 0 0 1-2-48q.3-7.4 3 6c1.3 5.9 4.2 18.7 5.9 25.5.5 1.9 1.5 6.6 2.1 10.5a234 234 0 0 0 12.8 44l6.2 17c2.3 6 4.6 12.5 5.2 14.4a60 60 0 0 0 15.8 26c6.5 6.4 7.9 8.3 8.5 11.9q1.1 7.2-3.7 7.2c-1.7 0-1.9-.5-1.4-3.8.7-4.2-1.1-8.7-3.4-8.7-1.2 0-1.4 1.2-1.2 5.5.3 7.4-1.7 10-8.4 10.7-4.2.4-5.5 1.1-9.3 5.2-2.5 2.5-4.5 5.3-4.5 6.1-.1 1.3-2 1.5-11.6 1.4-12-.2-17-1.3-17-3.9q0-1.4-2.6-1.5c-2.1 0-2.5.4-2.2 2.2q.2 2.3 5.2 4.7l5 2.5-3 .8c-8.9 2.5-26.6-8.3-31-18.9-.8-1.8-2-3.6-2.8-4s-2.3-2.8-3.6-5.2c-1.8-3.6-2.4-7.2-3.3-21.3-.8-12.8-.8-18.4.1-22.6q1.2-5.6.1-6.8t-.1-5.1c4.1-16 4.2-47.8.3-69.8a213 213 0 0 0-9.3-36.7c-2-4.6-5.1-7.6-15.5-14.6q-3.7-2.4-2.8-4c.4-.9 1.3-4.6 2.2-8.2 2.7-11.5 2.4-11 8.3-13.1 7.7-2.7 8.5-3.8 8.2-11l-.2-5.9 2.7.6c1.6.3 5.5 1.7 8.8 3m14.2 0c-1.2 1.2-3.7-.5-3-2.1.5-1.5.7-1.5 2.1-.1q1.4 1.5.9 2.2M102 533q-3 2-3 0 .2-1 2.3-1 2.6-.1.7 1m57.7.5q.1 1-1.8 2.3c-2.2 1.4-4.9.2-4.9-2.3 0-1.6 6.2-1.5 6.7 0m4.8-.5q-.6.9-1.6 1-.8-.1-.9-1 .1-1 1.6-1 1.3 0 .9 1m42.3 1c1.3 2.2.8 2.4-5.3 2-3.6-.2-3.9-.5-3.2-2.5.9-2.3 6.9-2 8.5.5m83.2 1.1q0 .8-1 .9-.9-.1-1-1.6.1-1.3 1-.9 1 .6 1 1.6m-172.5 3.1c-5.5 5.8-7.5 7.3-7.5 5.9 0-1.9 8.9-10.1 11.1-10.1.3 0-1.3 1.9-3.6 4.2M211 535q-.1.9-1.1 1-.8-.1-.4-1 .6-1 1.1-1 .3 0 .4 1m151 1.7c0 2-2.4 1.1-2.8-1q-.4-1.7 1.2-1.1c.9.3 1.6 1.3 1.6 2.1m-226.6.2c.9 1.4-7.3 5.7-12.1 6.5-2.4.3-4.3.3-4.3-.2 0-1.1 5.1-5.8 7-6.5 2.5-.9 8.8-.8 9.4.2m127.1.1c.3.5 1.6 1 2.9 1q4.9 0 6 5.7c.5 3 .3 3.3-2.1 3.3-3.4 0-6.3-2.6-6.3-5.7q0-2.2-1.5-2.3-1.4-.1-1.5-1.5c0-1.7 1.6-2 2.5-.5m-158 3.4c-3.9 3.4-6.4 3.4-5.2.1.7-1.7 4.1-3.3 7.2-3.4 1.6-.1 1.2.6-2 3.3m97.9.1c2 1.5 1.5 2-2.9 2.7q-1.8.5-2 1.8c0 1.1 1.3 1.5 5.5 1.5h5.5l-.2 3.2c-.2 1.7.2 3.5.7 3.8 1.4.9 1.2 2.5-.3 2.5-2.3 0-3.8-2.2-2.6-3.7 2.2-2.6.3-4.2-4.8-4-6.5.3-6.9 2.9-1.4 8.7 3.9 4.1 4.2 4.3 8.8 3.7 3.8-.4 5.3-.1 7.1 1.3 1.6 1.4 3.2 1.7 5.7 1.3 2.7-.4 3.6-.2 4.1 1.1.9 2.4-.2 3.1-2.2 1.5-1.4-1.1-1.8-1.1-3 .6-1.9 2.5-1.8 2.6 1.5 6.4 2.9 3.2 3 3.2 5.5 1.6q4.5-3 4.6 2.1c0 2.8-.6 3-2.7.9-3.5-3.6-7.6 4.8-6.6 13.5.5 4.2.2 5.1-1.9 7.3a18 18 0 0 1-8.1 3.7c-3.1.6-5.8 1.8-6.1 2.6s-1.8 1.9-3.3 2.5c-2.4.9-3.7.6-8.8-2a56 56 0 0 0-8.8-3.6c-1.6-.3-4.7-2.3-6.9-4.4-3.9-3.6-4.1-3.9-3.9-9.9.1-6.4-1.3-8.8-3.4-5.8-1 1.3-1.8 1.4-3.9.6-3.1-1.1-2.7-3.1.4-2.3 3.8 1 8.1-5.3 5-7.2-.5-.3-1-1.5-1-2.6 0-1.7.3-1.8 2.1-.8 3.2 1.7 5.4-.9 4.5-5.5q-1-6.5-4.7-3-2.9 2.8-1.3-1c.8-2.1 6.2-2.1 8.4-.1 1 .9 3.4 1.8 5.3 2.2 3.1.5 4 .1 6.7-2.6 2.4-2.4 3-3.6 2.4-5.3-1.2-4-2.4-4.9-6.1-4.2-2.7.5-3.2.3-2.7-.9.3-.8 2-1.8 3.9-2.1a10 10 0 0 0 6-4.1c2.9-3.9 3.2-4 5.9-2m103 6.6c-.3 5.6-2.2 16.4-4.3 25-1 4.4-6.4 14.7-10.9 21.1a35 35 0 0 1-14.1 11.3c-3 .9-2.6-.1 2.2-5.1 5.5-5.9 13.4-17.6 16.3-23.9 1.2-2.8 3.2-8.9 4.4-13.5 2.1-8.2 6.1-21 6.6-21zm-90.1-1.9c1.4.7 3.2 2.4 3.9 3.7a7 7 0 0 0 7.6 3.4q2-.5 2.7 1.6c.9 3-.1 4.1-3.8 4.1-2.7 0-3.5-.5-4.4-3.1-1.2-3-1.5-3.1-5.2-2.6-4 .5-4 .5-3.4-2.4.3-1.7 0-3.5-.7-4.4q-2.2-2.7 3.3-.3m-108.5 1.7q.4 1.3-.9.9-1.2-.5-1.7-1.7-.4-1.3.9-.9 1.2.5 1.7 1.7m75.7.9c-.3.8-.5 2.5-.5 3.8 0 2.2-.3 2.3-2 1.4-2.2-1.2-6.5.5-8.9 3.4q-3 3.5-3.1-.9 0-2.5 2.8-3.9c1.5-.8 3.5-2.3 4.5-3.4 2-2.2 8-2.6 7.2-.4m-67.2-.1c.7.6-6.1 7.2-7.5 7.3-1.7.1-.6-2.4 2.3-5.1 3.2-3 4.1-3.4 5.2-2.2m144.5 3.6q.3 1.7-1.6 1.7c-1.6 0-5.2 4.5-4.1 5.3 8.2 5.7 9.3 7.7 4.3 7.7-3.4 0-9.6-3.3-7.1-3.8 1.9-.4 2.2-2.3.6-3.9-.8-.8-.4-2.2 1.7-5.2 3-4.2 5.6-5 6.2-1.8m-139.3 5c-3.3 3.2-4.9 6-6.8 11.5-2.6 7.8-4.2 8.6-2.6 1.3 2-9.2 9.7-20.3 12.4-18.1 1 .8.3 2.1-3 5.3m70-1.4q.3 1-1.4 2.1c-2.4 1.2-4.2-.7-2-2.1 1.8-1.1 2.6-1.1 3.4 0m76.3 2.8c2.6 4 5.8 10.3 6.6 13.5q.6 2.6 1.6 2.8c1.6 0 1.2 1.6-1.7 5.9-3.2 4.9-5.3 5.3-5.3 1.1 0-2.2-1-4.1-3.5-6.6-3.9-3.9-4.3-5.2-1.9-6.1 2.1-.8 5.1 3.1 6 7.7l1.1 4.3c1 1.7 3.3-1.7 3.3-4.7 0-3.2-4.9-13.6-8.1-17.2q-3.1-3.4-1-3.4c.5 0 1.8 1.2 2.9 2.7m-116.9.7q1.3 1.3-.3 2.5c-1.9 1.6-7.1-1-5.4-2.7a4 4 0 0 1 5.7.2m-40.3 1.8-1.7 5c-1.6 5.1-2.9 4.8-2.9-.6 0-3.4.4-4.6 1.8-4.9 3-.8 3.4-.7 2.8.5m12.4.9c-.6 1.1-1 3.3-.8 4.9a11 11 0 0 1-1 5.1c-.7 1.3-2.1 4.9-3.2 7.9l-2 5.5.5-6.7q.7-9.8 5.1-16.6c1.8-2.8 2.8-2.9 1.4-.1m45 .9q0 .9-.4 1-.6-.1-1.1-1-.4-1 .4-1 1 0 1.1 1m-24 3.6c0 .4-1.4 2.2-3.1 4.2-2.4 2.7-2.9 4.1-2.5 6.1 1.2 5 1.1 5.6-1.1 5.9-2.1.3-2.2 0-1.7-3 .6-3.1 1.9-6.2 4.7-11.6 1.1-2 3.7-3.1 3.7-1.6m89 2.4q0 .9-.4 1-.6-.1-1.1-1-.4-1 .4-1 1 0 1.1 1m15.5 3.2c4.5 5.4 4.6 9.1 0 9.6-2.4.2-3.4-.3-4.8-2.7-1.7-3-2.2-6.7-1.1-9.5.9-2.4 1.9-2 5.9 2.6m-116 1.4a16 16 0 0 0-1.5 6c0 2.3-.7 3.6-2.4 4.8-5.3 3.4-4.5-5.3 1-11 3.9-4.2 5.2-4.1 2.9.2m36.8-1.1q-3.3 4.4-3.3.7-.2-3.4 3.2-3.2c1.8 0 1.8.1.1 2.5m-7.3.5q-.1.9-1.1 1-.8-.1-.4-1 .6-1 1.1-1 .3 0 .4 1m98 2q.1 1.7 1.5 2.4c2.4.9 1.7 2.6-1 2.6q-2.7.2-2.5-2.1a9 9 0 0 0-1-3.9q-1.3-2 1-1.3 1.8.6 2 2.3m55.8 3c2.9 1.8 3.3 2.5 2.7 4.7q-.9 3.2.9 1.4c2.8-2.4 10.6 3.6 9.3 7.2-.2.7.1 2.1.7 3.2a63 63 0 0 1 6.2 25.7l-.5 5.1q-.2.7-1.2.2-1-.7-.5-2.1.4-1.3-.9-1.4-2.7 0-.2-3 .9-1.2-.9.3c-2.9 2.4-3.4 2.2-3-1.8.1-1.9-.2-3.5-.8-3.5-.5 0 .2-1.3 1.7-2.8 3.4-3.5 3.5-4.9.2-2.8-2.2 1.4-2.5 1.5-2.5.1 0-.8.9-2.4 2.1-3.6 2.5-2.5 1.9-3.5-1-1.9-2.4 1.2-2.8-.1-.6-2q1.4-1.2 1.5-2.3-.2-.7-2.2.9c-2.1 1.9-2.1 1.9-1.6-.4q.5-2-.4-2.2t-.5-3q.8-3.2-.8-2.3c-1.7.6-1.9-1-.5-3.8 1.1-2-.3-2.8-1.5-.9s-3.2 1.1-4.4-1.6c-.6-1.4-.9-2.9-.6-3.3.2-.5-1.1-1.6-3-2.7-1.8-1-3.2-2.2-2.9-2.6.8-1.2 1.6-1 5.2 1.2m-154 2.6c.2.1-.6 1.6-1.8 3.2-2 2.7-2.5 2.9-4.9 1.9l-3-1.4c-.2-.1.7-1.8 2-3.7 2.4-3.6 2.3-3.6 7.7 0m-49.8 0q-.1 1.3-1 .9-1-.7-.5-1.6 1.4-2 1.5.7m199 5.6q-.2.8-1.8.8-2.3.2-4.2 2.5c-3.6 3.8-3.5 2.3.1-2.9 2.9-4.1 3.4-4.4 4.5-2.8.8.9 1.4 2 1.4 2.4m-69.1 0c.6 1.7.9 3.4.6 3.7-.8.7-5.4-5.2-4.8-6.1 1-1.8 3.2-.6 4.2 2.4m22.6.1c.6 1.8.8 4.4.5 5.7-.5 2.2-1.2 2.5-5 2.5-4.1 0-6.3 1.6-4.1 3q2.6 1.8-1.5 3.5c-2.7 1.1-2.8 3.7 0 3.2q3.6-.5-1.3 4.2c-2.6 2.5-4.2 3-10.3 3.5-.5.1-.8 1.7-.8 3.6q.1 6-8.9 7.2c-4.6.6-10.1-1.2-10.1-3.3 0-.8-.6-2.3-1.2-3.4-1-1.6-1-2.5.4-4.7 1.5-2.5 2.2-2.8 7.4-2.8 5.4 0 5.9.2 6.4 2.5.7 3.1 3.6 3.8 4.5 1.1s-2-7.6-5.2-9c-1.2-.6-2.3-1.5-2.3-2.1q0-2.7 4.5 2c3.8 4 8.5 4.1 11.4.4 1.2-1.5 2.1-3.1 2.1-3.6 0-1.7-3.1-2-4.9-.4-2.2 2-3.5 2-5.4.2a20 20 0 0 0-5.1-3c-4.1-1.7-4.5-3-1.4-4.7 1.7-.9 2.4-.9 3.2.3.6.8 2.2 2 3.4 2.7 2.1 1.1 2.7 1 4.8-1 1.8-1.7 2.3-3 1.9-4.7q-.6-2.5.7-2c1.8.6 2.2 4.6.7 6.4q-1.2 1.5-.2 2.5c1.7 1.7 5.3-.7 5.3-3.5q.1-4.5 2.6-2.5c1.7 1.4 3.4.3 3.4-2.1 0-5.5 3-6.7 4.5-1.7M287 583q0 .9-1 1a1 1 0 0 1-1-1q.1-1 1-1t1 1m-143.2 1.6c4.4 2.1 4.6 2.8 1.7 6.2a11 11 0 0 0-2.5 4.3c-.1.8-1.3 2.8-2.8 4.5-2.2 2.6-3.1 3-4.9 2.3q-3.6-1.2-1.4-3.5c.4-.5 1.1-2.2 1.5-3.8.7-2.6.5-2.8-1.6-2.1-4.8 1.4-6.3 1.1-6.6-1.5-.2-1.9.5-3 2.9-4.4 3.1-1.9 3.2-1.9 4.6 0s1.6 1.8 3.6-.9l2.2-2.7zm23.7 1.4 2 .9h-2c-1.1 0-2.7-.4-3.5-.9q-2-1.2 0-.9c.8 0 2.4.4 3.5.9m62.5 1c-2 1.3-3.3 1.3-2.5 0 .3-.6 1.4-1 2.3-1q2.2-.1.2 1m-108 1q0 .9-1 1a1 1 0 0 1-1-1q.1-1 1-1t1 1m37.6 2q1.3 0 1.4 1-.1.9-1.6 1c-.8 0-2.9 1.4-4.6 3s-3.1 3-3.2 2.8l-2.1-2.6-1.9-2.4 2.4-1.9a6 6 0 0 1 5.4-1.4c1.6.3 3.5.5 4.2.5m10.8 1.5q-.5 1.5-3.7.8-6.2-1.2-1.4-1.3c1.4 0 2.9-.5 3.2-1 .9-1.5 2.5-.2 1.9 1.5m146.7 3.2c1.1 2.7 2.3 7.2 2.6 10 .5 4.6.3 5.3-1.3 5.9-1.1.3-3.4 1.2-5.3 2-3 1.3-3.6 1.3-6.4-.4-4.2-2.4-5.7-5.5-5.7-11.8 0-5.7 1.4-7.7 5.6-7.7 1.4 0 2.8-.6 3.1-1.3s1.6-1.4 2.9-1.4c2 0 2.9 1 4.5 4.7m-147.3 3.9c1.8 2 2.2 3.5 1.8 5.6-.3 1.6.1 4.7.8 6.9 1.4 3.9 1.3 4-1.5 6.1-1.6 1.2-2.9 3-2.9 3.9q0 1.9-3.5 2.5c-5.7 1-8.3-.1-9.1-4.1-.8-4.2-1.7-5-4.2-3.4-6.4 4-11.9-6.1-7.7-14.1 1.7-3.2 1.8-3.3 5.3-2.4 2.6.7 2.9 4.1.7 8.3-1.3 2.6-1.3 3 0 4.1 1.9 1.6 4.5-.3 4.5-3.1q-.1-2 2.5-1.9c3 0 3.4-2.6.5-3.5s-2.5-3.9 1-6.8c2.6-2.2 3.5-2.4 6.2-1.6 1.8.5 4.4 2.1 5.6 3.5m124.4 3.9q.8 4.4-2.1 2.6c-1-.7-1-1.3-.2-3 1.5-2.7 1.8-2.6 2.3.4m-116.7.5q.4.9-.4 1-1-.1-1.1-1 0-1 .4-1 .6 0 1.1 1m40.7 3.3c-1.2 1.3-2.2 2.9-2.2 3.6q0 1.2-3.2.6t-7.2 1.4c-2.2 1.2-4.2 1.9-4.4 1.7-.9-.9.9-2.4 3.5-3.1 1.6-.3 3.5-1.3 4.3-2 1.4-1.3 8.1-4.1 10.4-4.4q.7.1-1.2 2.2m-29.7.7q.4.9-.9 1-1.5-.1-1.6-1 0-1 .9-1t1.6 1m100.3 2.9c.4 2.7-1.2 2.1-2.9-1-.9-1.8-.8-2 .8-1.7 1 .2 1.9 1.4 2.1 2.7m-107.8-.4c.6.8 1.4 3.2 1.7 5.5.5 3.8.4 4-2 4-1.4 0-2.9-.5-3.2-1q-.4-1 .9-1c2.6 0 2.9-2.1.7-4.4-1.2-1.2-2.1-2.8-2.1-3.4 0-1.7 2.5-1.5 4 .3m100.9 2.1c4.2 5.3 1.2 13.4-4.3 12-3.2-.8-5.6-5-3.8-6.8.9-.9 1.6-.7 3 .5 2 1.9 4.2.7 4.2-2.3 0-4.4-5.8-5.3-9.5-1.5-3 3-3.2 6.8-.4 10.3q2 2.6 1.4 5c-.4 1.8.4 3.7 3.4 7.6a82 82 0 0 1 11.3 27.1q4.6 22.5-9.1 42.8c-5 7.2-7.4 9.9-14.4 16.2-2.1 1.8-4 4.3-4.2 5.5a7 7 0 0 1-1 2.8q-.4.6 1.1 2.3c.9 1 1.4 2.4 1.1 3.2-1.5 4 18.3 29 29.7 37.5 2.3 1.7 4.3 2.2 9.5 2.2 8.3 0 11.1.8 11.1 3 0 .9.9 2.5 2 3.5s1.8 2.1 1.5 2.3c-.3.3-1.8-.7-3.4-2.2-2.4-2.3-4.2-3-9.3-3.5-8.6-.8-15.3 0-15.3 1.9 0 1.1 1.4 1.6 5.5 1.7 7.8.4 14 1.3 14 2.1s-10.5.8-20-.2c-6.3-.7-7.8-.6-8.8.7q-2.4 2.9 4.3 3.2l6.8.3c2 .1 3.7.6 3.7 1.1 0 .4-15.6.8-34.7.9a462 462 0 0 1-32.8-.5c1.1-.3 2.9-1.5 4.1-2.7 2.5-2.6 9.3-2.8 14.2-.2 3.4 1.7 10.7 2.2 11.7.7.3-.6-1.1-1.3-3.2-1.6-6-1-8-2.4-9.4-6.7-1.1-3.6-1.1-4.4.4-7.1 1.4-2.3 1.5-3.2.5-3.8-.6-.4-1.6-.5-2-.3q-.7.3-.8-1 0-1.5 2.5-1.6c2.7 0 2.7 0 2.9 4.4.1 2.5.7 3.1 3.3 3.8 2.9.7 7.3 4.9 7.3 6.8q-.2.7-1.7.6-1.7.1-2 1.4c-.5 2.3 5.5 5 11.2 5l7.9.3c3.4.2 4.7-1.8 1.7-2.8-1.1-.3-2.3-1.6-2.7-2.8-.5-1.7.1-2.8 3.2-5.3 3.2-2.8 3.6-3.4 2.1-4-.9-.3-2.8-.3-4.1 0q-2.6.7-3-1.2a53 53 0 0 0-14.8-14.3q-8.3-4.2-7.4-9.1 1-4.6-6.1-7.4c-1.8-.8-3.7-2.3-4.3-3.4s-2.3-2.6-3.8-3.4c-6.2-3.3-10.4-9.7-5.4-8.2 2.4.8 4.5-.8 4-3-.4-2-1.3-2.1-11.2-.8-4.5.6-5 .4-7.2-2.2-3-3.8-3-5.2.3-8q5-4.4-4.1-5.8c-2.4-.4-6.5-2.1-9-3.7-3.9-2.6-4.6-3.6-4.6-6.3 0-3.6-2.8-7-5.1-6.1-.8.3-2.2 2.5-3.2 5a17 17 0 0 1-13.5 10.9c-5 .6-7.9 2.6-6.7 4.6.3.5 1.3 1 2.1 1 1.5 0 1.9 4.5.8 8.6-.5 1.9-1.3 2.2-6.9 2.2-6.3 0-10.5 1.4-10.5 3.2 0 .6 1.4 1 3 1q3 0 3 1.5c0 1.5-1.5 2.3-7.5 4.2q-3 1-2.7 2.5.3 1.6-5.8 4.9c-8.5 4.5-11.9 9-11.8 15.8 0 5.1-.2 5.4-6 11.2a43 43 0 0 0-7.3 8.8c-1 2.3-1.9 2.8-4.3 2.7q-3.1-.1-3.1 1.4c0 1.3 1.8 2.2 7.3 3.6.6.2 1.2 1.9 1.2 3.8s.4 3.8 1 4.1c2 1.3 1 3.5-1.6 3.5-2.3 0-2.5-.2-1.4-1.5q1.1-1.5.6-2.3c-.7-.6-12.6-1.2-25-1.2-2.8 0-5.3-.5-5.7-1.1-.9-1.6-3.2 0-2.5 1.7q.4 1.3-1 1.4-1.5.1-.8-2.5c.8-3.2-1.7-3.4-4.7-.4q-2 2.1-3.1 1.1-1-1 1.1-1.7c2.3-.7 2.7-2.5 1-4.2-1.4-1.4.2-1.9 12.1-3.3 8.5-.9 8.5-1 12.8-5.7a59 59 0 0 0 6.8-9.7c3.5-6.6 8.4-19.6 8.4-22.1 0-1.1.9-3.8 2.1-6l2.1-3.9-2.3-1.9q-2.5-1.9-1-2.6 3.5-2.2-4.9-8.9c-8.1-6.5-11.1-13.2-11.7-26.5-.6-10.8.9-21.1 3.1-22.4a71 71 0 0 1 13.4-18.5c9.3-10.1 14.2-17.5 14.2-21.2q.1-1.5 1-1.1c1.5.9 1.2 6.6-.5 11.5-1.9 5.3-1.9 6 0 6 .8 0 2.4-1.5 3.5-3.3l2-3.2v2.7c0 3.4 2.3 3.7 3.8.5 2-4.1 1.2.6-.8 5.2a24 24 0 0 0-2 5.6q-.2 1.3-1.5 2.5c-1.3 1.2-1.7 2.8-2.1 4.9-.3 2-1.7 6.8-3 10.8-1.3 3.9-2.4 9-2.4 11.2 0 5.3 3 13 7 18.1 3.7 4.7 6.4 6.3 10.2 6.2 2.4-.1 2.8.3 2.8 2.7 0 3 2.9 6.4 4.5 5.3.6-.4 1.1-3.3 1.1-6.5.1-3.2.3-6 .5-6.2s3.6-.6 7.4-.9c6.2-.5 7.3-1 9.9-3.8 2.7-3 2.8-3.5 2.3-9.6-.7-7.5-1.6-8.8-7.6-11.5a14 14 0 0 0-8.9-1.2c-4.1.6-4.5.5-3.3-.9 3.3-3.9 18.4-5.8 24-2.9 4.6 2.3 8.1 5.3 8.1 6.9 0 1.8 2.8 3.2 5.5 2.6 1.3-.2 4.1-2.1 6.3-4.2 4.5-4.4 11.8-7 19.3-7q9.2 0 2.1 3.3c-9.4 4.1-12.5 12.1-7.8 20.1 3 5.2 5.4 6.7 11.1 7.5l4 .6.3 6.5c.5 10.3 4.2 12 4.9 2.3.5-6.9.6-6.9 7.5-9.4q6.3-2.4 10.4-6.5a41 41 0 0 0 9.7-28.8c-.4-3.4-.2-3.9.9-2.8.9.9 1.3 4.5 1.3 12 0 10-.2 11-2.8 14.9a23 23 0 0 0-2.7 5.2c0 2.2-7 6.8-12.3 8.1-3.1.7-5.7 1.7-5.7 2.2l-.2 1.5c-.4 1.1 6.2.4 10.5-1.1 2-.6 5.8-3.2 8.5-5.7 6.6-6.1 9.7-14.7 9.7-26.9-.1-8.2-.2-8.8-4.6-17-2.6-4.7-5-9.6-5.4-11-.4-1.3-2.1-3.7-3.6-5.1-3.2-3-3.6-5.4-1.5-10.4q1.5-3.3 3.8-3.7 2.4-.1 2.6-3.1c.2-1.5.9-2.7 1.5-2.6 2.9.3 3.7-.3 3.7-2.9 0-5.4 5.6-9.9 12.7-10.1 2.3-.1 3.7.6 5.2 2.5m-90.5 2q.5 1.7 3.2 1c2.4-.6 2.5-.5 2.2 3.1-.3 3.5-.6 3.8-3.7 4.1-4.5.5-5.5-.8-4.6-5.7q1.2-6.5 2.9-2.5m109.1-.6c1 1.7 7.5 4 11.2 4a13 13 0 0 0 5.9-1.6c1.3-.9 2.7-1.4 3-1.2 1 1 2 14.7 1.2 16.7-1.6 4.5-5.3 1.9-6-4.2-.4-3.3-.1-4 1.9-4.8q3.9-1.4.9-3.8c-3.2-2.7-10 4.5-9.4 10 .4 3.9 4.6 7.3 9.1 7.4 3 0 3.2.3 3.5 3.8.3 3.4.1 3.8-1.6 3.3q-1.9-.6-4.6 1.9c-1.5 1.4-3.3 2.5-4 2.5q-3.5 0-3 6.8c.2 2.6.1 4-.2 3.2l-2.5-5.4c-2-4.2-1.9-4.8 2.7-9.3 2.8-2.8 2.2-5.4-1.9-8.9q-3-2.7-5.4-1.9c-2.2.5-2.3.4-2.3-6.4 0-3.7-.3-8.3-.6-10-.6-3 .7-4.3 2.1-2.1m-6 3.2c.3 1.8.7 6.8.9 11l.3 7.7-2.8-3c-3.1-3.3-7.6-3.8-12.1-1.5-2.4 1.3-2.8 1.3-2.8.1 0-.8 1.5-2.1 3.3-2.9 3.6-1.4 7.7-5.9 7.7-8.3 0-1.7 2.9-6.3 4.1-6.3.4 0 1.1 1.5 1.4 3.2m-82.7 1.5c-.4 3.6-3.1 4.1-4.6.9-1.3-2.8-.7-3.6 2.5-3.6 2.1 0 2.4.4 2.1 2.7m123.5 13.5c.4 2.9.9 6.3 1.2 7.4q.9 2.2-1.6 2.7-4.4 1-2.1-1.5c2-2 1.5-4.1-.9-3.5q-2.7 1-.6-1.1 3.9-4.5.7-3.5-1.8.4-2-.1c0-1 3.4-5.5 4.1-5.6.3 0 .9 2.4 1.2 5.2m-6.3-2.8c0 .8-.4 1.8-1 2.1q-.9.4-1-1.4.1-2 1-2.1 1 .1 1 1.4m-263 1q0 .5-1 1.1-.9.4-1-.4.1-1 1-1.1 1 0 1 .4m51.1 3.6c-2.4 2.1-5.1 2.6-5.1 1.1 0-.4 1.5-1.3 3.3-1.9 4.5-1.4 4.5-1.4 1.8.8m171.5 1.7a5.6 5.6 0 0 1-.3 7.5c-2.3 2.5-2.8 2.3-5.2-2.2-3-5.8-3-5.9 3.3-6.9q1 .1 2.2 1.6m14.4 2.2c.5 1.1 1 2.7 1 3.6 0 2-3.6 6.9-4.3 5.8s-.7-9.5-.1-10.5c.9-1.4 2.3-.9 3.4 1.1m-95.7 1.2c1.2.7 3.9 2.7 6 4.5 2 1.9 4.2 3.4 4.9 3.4q.9 0-.5 1.8c-1 1-1.7 2.5-1.7 3.3 0 2.3-6.2 4.2-9.6 2.9-3.9-1.5-6.4-3.9-6.4-6.2s3.5-2.4 4.4-.2c.6 1.5 1 1.4 3.1-.6 3.1-2.9 3.1-3.6.1-5.5-1.8-1.2-3-1.3-5-.6s-2.6.8-2.6-.4 2.6-3.4 4.3-3.5c.5 0 1.8.5 3 1.1m-50.1 1.6 5.1 5.5q4 3.9 3.2 5.7-1.5 4.7-8.6 5.7c-3.9.5-4.9.3-7.1-1.7a12 12 0 0 1-3.2-5.1c-.6-2.6-.4-2.8 4.4-3.4 7.3-1 6.6-5.2-.8-4.5-4.2.3-3.5-1.5 1.1-2.8s4.5-1.3 5.9.6m171.5.5q-.5 1.1-.6-.6t.5-1.3c.3.3.4 1.2.1 1.9m-137.8 1.9c1.6 4.5 1.4 9.1-.5 11.8-1.4 2-2.2 2.2-5.8 1.7q-4.2-.7-6.1.8c-1.8 1.3-1.7 1.5 1.8 4.8 3.7 3.6 4.4 5.2 2.9 7.6-.7 1-1.9 1-6.1-.1-4.5-1.2-5-1.5-3.7-2.6 2-1.7 2.1-10.1.1-15.6l-1.5-4.3q.2-.2 2.3-.2c1.3 0 3.8-1.5 5.7-3.5 4.6-4.8 9.3-4.9 10.9-.4m46.5-2.2q.3.9-1.8 1.5c-3.7.9-5.9 3.5-4.5 5.2 1.7 2.1 3.9 1.7 4.8-.8q.8-2 1.5-1c1 1.6 3.6.3 3.6-1.8 0-1-.6-2.1-1.2-2.3q-1.2-.5.4-.6c3.5-.2 3.6 7.5.1 11.8-3.2 3.9-13.4 4.9-14.7 1.5q-.4-1.6-2.5-.4c-2.5 1.3-3.1 1.3-3.1 0q.1-1 1.4-1c.7 0 1.9-.7 2.6-1.5 1-1.2.9-1.6-.4-2.1s-.7-1.3 2.5-3.8c7.3-5.5 10.1-6.7 11.3-4.7m59.1.9c0 1.8-2 1.5-2.3-.4q-.4-1.6 1-1.2 1.2.6 1.3 1.6m41.1 4.9c.6 3.1.9 28.3.5 40.8l-.1 4-3.1-3.8c-2.3-2.8-3.8-3.7-6-3.7-1.7 0-3.9-.5-5-1-2.4-1.3-2.5-4.5-.1-4.6l3.6-.9q2.1-1.2 1.1 1.3c-.9 2.9.6 2.8 3.4-.2q2.5-2.5.9-2.9-1.5-.3 1-2.9 4-4.3.3-3.1c-1.6.4-1.8-.1-1.8-5.1 0-3.1.4-5.9.9-6.2q.9-.7-.3-1.5c-1.1-.7-.9-1.3 1.1-3 2.4-2 2.4-2 .3-1.4-2.7.7-3.2-1.5-.8-3.5q1.5-1.2.5-2.5-1-1.1.2-2.3c1.9-1.9 2.7-1.4 3.4 2.5m-9.5.6q-1.2 1.2-1.1-.4c0-2 1.3-3.4 1.8-1.9q.3 1.2-.7 2.3m-33.3.6c1.9 1.7 2.2 2.9 2.2 9.1 0 7-.1 7.2-2.2 6.6-1.3-.3-2.8-.6-3.4-.6s-1.4-1.2-1.7-2.8c-.2-1.5-1.2-4.9-2-7.5-1.5-4.7-1.5-4.8.6-5.7 3.2-1.3 3.9-1.1 6.5.9m27.7 2q.4.9-.5 1.6c-.5.3-1 1.5-1 2.6 0 1-.4 1.9-.9 1.9-1.7 0-3.3-2.9-2.6-5 .6-2 3.9-2.8 5-1.1M50 652.8q.1 2.2-1 .2c-1.3-2-1.3-3.3 0-2.5.6.3 1 1.4 1 2.3m203.2 2.7c2.5 6.9 2.3 7.9-1.5 9.3q-6.7 2.4-10.3-.3c-1.7-1.3-1.4-1.4 4.2-1.5q6.1 0 7.3-1.4c1.6-1.9.7-2.3-7.7-3.1q-7-.8-6.9-1.9c.5-1.4 5.7-2.1 5.7-.7 0 .6 1.1 1.1 2.5 1.1 2.8 0 4.4-2.5 2.6-4.3-1.6-1.6-1.3-2.9.6-2.5 1 .2 2.4 2.4 3.5 5.3m-36.4 4.6c.2 2.4 1.1 5.2 1.9 6.1 1.5 1.7 1.4 1.8-.5 1.8-1.1 0-2.4-.5-2.8-1.1s-1.7-.8-2.9-.5c-2.7.7-4.5-1.1-2.1-2 2.6-1 1.9-3.4-.9-3.4-1.4 0-2.5-.4-2.5-1 0-1.2 7.1-5 8.5-4.6.6.1 1.1 2.2 1.3 4.7m-13.3-3.2c1 1.8-2.9 2.9-7.5 2.1q-6.3-.9-1-.9a23 23 0 0 0 7.7-2q.2 0 .8.8m98.5 1c0 1.1-.4 2.3-1 2.6q-1 .4-1-1.9c0-2.3.5-2.6 1-2.6q1 .2 1 1.9m27.4 1.2c-.9 1-2.1 1.6-2.6 1.3s-.2-1.4.8-2.5c.9-1 2.1-1.6 2.6-1.3s.2 1.4-.8 2.5m-163.3.6.3 4.6a4 4 0 0 0 1.6 2.7q1.9 1.1-1.3 1c-1.5 0-4.4.7-6.4 1.5-5.3 2.2-9.2.3-4.1-2 3.5-1.6 3.3-3.3-.4-3.7l-3.3-.3 6-3.2c3.3-1.7 6.3-3.2 6.8-3.2.4-.1.8 1.1.8 2.6m153 1.4c-.3.8-.4 3.2-.2 5.3.1 2.2-.4 6.4-1.1 9.4l-1.2 5.5 3.4 2.8 3.3 2.8-3.2 3.1c-1.8 1.6-3.5 3-3.7 3s-.4-1.7-.4-3.8-.7-8.7-1.5-14.7-1.5-12.5-1.5-14.3V657l3.3 1.4q3 1.3 2.8 2.7m-84-.9c1.5 2.3 1 5.7-1.1 7.8q-3.3 3.3-9.7.9c-2.4-.9-2.6-1.2-1.2-2.2.9-.7 1.9-2.9 2.3-5.1.7-3.8.7-3.8 4.8-3.3 2.3.3 4.5 1.1 4.9 1.9m75.5 15.5c-.2.2-1.5-.1-3-.7-3.2-1.2-10.1 1.2-11.6 4.1-1.4 2.5-1.3 10.9.1 10.9q1.1 0-.1 1.5c-1.1 1.3-1 2.1.7 4.3 1.1 1.5 2.3 3.8 2.7 5s2.2 3.2 3.9 4.2c2.8 1.7 2.9 2 1.1 2.6-1 .4-2.7 1.4-3.6 2.2-1.6 1.4-1.8 1.3-1.8-.6 0-4.8-2.9-7-4.8-3.6-.7 1.2-1.7 1.5-4.2.9-3.2-.7-3.2-.7-2.5-5.4.4-2.5 1.5-7.3 2.6-10.5 1-3.3 1.9-7.1 1.9-8.5 0-5.7 1-7 5.4-7.3s4.5-.7 3.1-6.8c-.4-2.1.2-3 3.7-5.7l4.3-3.2 1.3 8.1a35 35 0 0 1 .8 8.5m-162.7-13.2c1.2 1.3-2 2.6-4.7 2q-3.2-.6-2.5-2.2.4-1.6 3.6-.9c1.7.3 3.3.8 3.6 1.1m181.6.7-1.1 4q-.6 1.5-1.9 2.2c-2 .7-2-3.3.1-6.2 2-2.9 3.7-2.9 2.9 0M33 663q-.1.9-1.6 1-1.3-.1-.9-1 .6-1 1.6-1 .8 0 .9 1m170.8 3.2 2.9 3.1-5.2 2.6c-4 2-6.3 2.5-10.3 2.3-2.9-.2-5.2-.8-5.2-1.4s2.4-.8 5.8-.6c4.5.2 5.7 0 5.7-1.2 0-.8-1.1-1.7-2.5-2.1q-3.4-.8 1.2-.8c3.4-.1 5.7-1.5 4.5-2.7a19 19 0 0 0-5.7-.9c-7.4-.5-7.5-1.5-.2-1.5 5.7 0 6.5.3 9 3.2M296 668c0 1.8-.3 1.9-2 .8-1.8-1.2-1.9-1.3-.2-2l2-.7c.1-.1.2.8.2 1.9m-150.2.6c2.9.9.8 2.4-3.3 2.4q-4.6 0-4.5-1.3c0-2.7 1.9-2.9 7.8-1.1m-115.3.4q.4.9-.4 1-1-.1-1.1-1 0-1 .4-1t1.1 1m209.1.1q1 1.6 13.2-.7c2.8-.6 3.2-.4 3.2 1.6 0 2.1-.3 2.2-9.9 1.8-10-.3-12.8-1.1-10.1-2.8 2-1.3 2.7-1.2 3.6.1m90.4 1.5c0 1.8-2.7 4.3-4.7 4.4-2.1 0-1.5-2.6 1-4.3 2.9-2.1 3.7-2.1 3.7-.1m-180.4 5.3c-1.4 1.6-2.3 1.7-5 1-1.9-.5-4.4-.8-5.6-.7-1.3.2-2.5-.3-2.7-1-.3-.9 1.2-1.2 5.6-1.2 5.1 0 6.1-.3 6.1-1.7 0-1.6.1-1.6 1.7 0 1.6 1.5 1.6 1.8-.1 3.6m105.2.6q.3.4-.3 1.4c-1 1.7-19.5 1.5-19.5-.2q0-1.3.5-1.9c.6-.6 18.7.1 19.3.7m-61 1.7c-.6 1.8-2.8 2.1-2.8.4q.1-1.5 1.6-1.6 1.4 0 1.2 1.2m117.5 2.7c.5.5 1.2 5.5 1.5 10.9.4 9.3.3 10-1.6 10.6-2.3.8-7.2-1.2-7.2-2.9q.1-1.2 1.5-2.5c2.1-1.7 0-4.3-2.7-3.4-4.5 1.4-5.6-5.1-2.1-12 1.3-2.6 1.8-2.8 5.5-2.3 2.2.3 4.5 1 5.1 1.6m-162.9.7q.6 1.6 3 1.2c1.4-.3 3.1-.1 3.8.4s-2.9.7-8.7.6c-8.6-.3-10-.5-10.3-2.1-.3-1.5.5-1.7 5.6-1.7 4.6 0 6.1.4 6.6 1.6m104 2.1c-.4 4.6.7 4.4-18 3.9-9.7-.3-17.9-.7-18.2-1.1-1.5-1.5 2.3-2.4 13.3-3.2 16.9-1.2 23-1.1 22.9.4m-91.1 0c-.7.2-1.9.2-2.5 0q-1-.5 1.2-.5c2.2 0 1.9.2 1.3.5M46 684.9q-.2.9-1.2 1.4c-1.8.6-3.9-.3-3.2-1.4.7-1.2 4.4-1.2 4.4 0m8 1.1q0 .9-.4 1-.5-.1-1.1-1-.4-1 .4-1 1 0 1.1 1m7.8.7c-1 .2-2.6.2-3.5 0q-1.3-.5 1.7-.5c3 0 2.7.2 1.8.5m106.7 1.3q.5.9-.2 1.1l-11.8.4c-6 .3-12.7.7-14.7 1-3 .4-3.9.1-4.8-1.5-1.1-2-.8-2 14.9-2 9.6 0 16.2.4 16.6 1m163 1.7 1.5 4.8q1.1 3.6-.3 1.1l-3.5-4.7c-2.3-2.8-2.3-2.9-.4-2.9 1.1 0 2.3.8 2.7 1.7m-81.5 2.2c0 .4-.8 1.5-1.8 2.4-1.5 1.4-3.8 1.6-14.9 1.2-12.1-.3-17.3-1.4-17.3-3.7 0-.4 7.7-.7 17-.7s17 .4 17 .8m-81.3 1.7c.7 1.8-1.2 3.9-4.3 4.8q-2.3.8-2.6-1.2c-.5-1.8-1.4-1.9-10.8-1.4-8.5.4-10.2.2-9.8-.9q.3-1.5 8.4-2c15.8-1.1 18.4-1 19.1.7m157.1-.3c.6.6 1.3 2.4 1.7 4 .4 1.5 1.4 2.7 2.2 2.7 1.7 0 1.6.1-1.6 5.2q-3.7 6.1-7.5 2.2c-2.1-2-2-3.6.3-6.3 1.6-1.8 1.8-2.7.9-4.1-2.2-3.5 1.4-6.9 4-3.7M48 698.5c0 .8-.5 2.5-1.1 3.9q-1.3 2.5-.1 3.9a40 40 0 0 1 1.1 12.2c.1 14.8 0 15.5-2 15.5-1.3 0-1.7-1-1.8-4.3 0-2.3-.4-6.7-.7-9.9-.6-5.1-.4-5.7 1.6-6.8s2.1-1.3.5-3c-2.2-2.5-1-13 1.6-13q.8.2.9 1.5m105 .3q-.2.8-2 1.9c-2 1.3-3.7.2-2.5-1.7.7-1.2 4.5-1.4 4.5-.2m85.5 1.2c-.3.5-1.9 1-3.6 1-1.6 0-2.9-.5-2.9-1s1.6-1 3.6-1q3.3 0 2.9 1m-94.5 2.5c1.3 1.4 2 2.5 1.6 2.5-1.2 0-5.6-3.2-5.6-4.1q.2-2.4 4 1.6m5 1.5q-.1.9-1.1 1-.8-.1-.4-1 .6-1 1.1-1 .3 0 .4 1m188 1.1c0 1.1-1.5 3.3-3.2 5-3.7 3.3-6.1 4-3.3.9q1.6-1.8 1.1-2c-.4 0 .1-1.4 1.1-3 2-3.5 4.3-4 4.3-.9m-139.7 2.4c1.7 1.2 1.7 1.3-1.2 2-1.6.3-4.6.2-6.7-.4-2-.6-4.1-.8-4.6-.5q-.8.4-1.9-.2c-2-1.2 1-2.1 6.9-2.2 3.1 0 6.4.5 7.5 1.3m118.2 2.7q1.3 5.4-3.6-.1c-2.6-2.9-2.6-3-.5-3.3 2.7-.5 3.3 0 4.1 3.4m-35.5 5.3c-1.2 2.5-2.5 4.5-3 4.5-1.5 0-1.9-2.9-.6-4.2.7-.7 2.1-2.6 3.1-4.2 2.7-4.1 3.1-1.4.5 3.9m-76.2-3.3c-.3 2-1.2 2.4-6.1 3.2q-5.7 1-8-.2l-3.7-1.5c-.8-.3 2.2-.6 6.8-.6 6.4-.1 8.4-.4 8.8-1.6.9-2.3 2.6-1.8 2.2.7m88-1.3c1.1.6 1.3 2.8.9 9.1-.3 4.5-1 8.7-1.5 9.2s-2.5.8-4.3.6c-3.3-.3-3.4-.4-3.2-4.3.1-2.2.7-6.6 1.4-9.8 1-4.7 1.6-5.7 3.3-5.7 1.2 0 2.7.4 3.4.9m16.3 1.1c1 .6 2.6 2.4 3.4 4q1.5 2.9 3 2.4c1.9-.8 1.9 0 0 3.6-1.4 2.7-2 3-6.3 3-5.7 0-7.3-.9-7.4-4.1-.2-2.9-1.7-5.1-2.9-4.3q-.8.4-.9-.6.2-1.1 1.5-.6c.8.3 2-.3 2.7-1.3a8 8 0 0 1 4.6-3q.5 0 2.3.9m27.7 1.8c-.1 1.5.2 3.7.6 4.9.5 1.7.1 2.8-2 4.5l-4.4 4.1c-1.7 1.7-1.8 1.7-2.4 0-.5-1.3.4-2.8 3.6-5.6l4.3-3.8-3.8 2.2c-5 2.8-5.8 1.8-1.2-1.6 3.7-2.9 4.1-4.4.6-2.5-3 1.5-2.6 0 .7-2.7 3.5-2.9 4.1-2.9 4 .5m-12.1.9-1.2 5.8q-1.3 6.8-2.9-3.3c-.6-4-.5-4.2 2-4.2q2.7-.1 2.1 1.7M189.5 719c1.4.5 2.3 1.5 2 2-1.5 2.5 1.8 4 8.9 4.2 6.5.2 6.6.2 1.6.5-8.1.5-9 1-6 3.3 2.1 1.7 4.2 2 13.3 2 6.4 0 10.7.4 10.7 1s-1.4 1-3.1 1-3.9.5-5 1.1a36 36 0 0 1-17.6-2.3c-2.1-1.7-4.5-.1-3.8 2.3.4 1.2.1 3.2-.6 4.5-1.2 2.3-1.4 2.3-3.1.7-2.2-2-2.4-4.3-.3-4.3q1.4-.1 1.5-1.4c0-1.9-4.8-3-6.6-1.5-1.9 1.5-1.8 5.9.1 8.7 1.2 1.6 1.4 3.4.9 7s-.2 5.7 1.1 8.1c.9 1.8 1.4 4 1.1 4.8-.4.9-.1 2.2.5 2.9q1 1.4.6 2.8c-.3.7.1 2.3.9 3.4q1.5 2.1.4 2.7t0 1.9c.5.7.7 2.7.4 4.5-1.4 7-18.1 10.8-27.3 6.4-2.9-1.4-3.7-2.5-3.9-5-.2-2.4.2-3.5 1.7-4.5q4.8-3-1.9-7.3a20 20 0 0 0-4.9-2.5c-1.4 0-6.1-6-6.1-7.8 0-10.8 11.9-21.3 19.5-17.2 2.5 1.3 4.5.7 4.5-1.5q0-1.4 4.8-1.7c2.6-.2 4.7-.8 4.7-1.3 0-1.7-6.5-1.7-9-.1q-2.3 1.5-3 .6c-.9-1.5-6.8-1.2-10.9.5-3.1 1.3-3.6 1.3-3.6.1 0-2.1.8-2.4 8.4-3.1 7.6-.6 8.6-1 8.6-3.1q-.2-1.4 4.4-1.4c4.6 0 6.9-1.6 4.5-3.1a10 10 0 0 0-4.4-.9q-3.4 0-1.5-1c.8-.5 3.9-1 6.8-1 3.8 0 5.4-.4 5.9-1.5.8-2.2-.1-2.8-5-3.6-4.2-.6-4.2-.7 1.5-.8 3.1 0 6.9.3 8.3.9m-152.1 4.6q1.4 3.6-.9 1-2.6-2.6-.6-2.6.9.1 1.5 1.6m283.6 3.9c2.1-1.3 1.8 1.6-.5 4.3-3.1 3.7-3.2 6.8-.2 12.3 2.1 4.1 7.6 7.7 9.7 6.4.5-.3 2.5 1.6 4.4 4.2 3.2 4.4 3.3 4.8 1.9 7l-1.5 2.2-4.1-2.6a17 17 0 0 0-7.4-2.7l-3.2-.1-.7-7.3c-.7-8.1-3.2-12.8-7.8-15-3.7-1.8-6.9-.9-11.1 3.3L297 743l.1-8.4c.2-8.4.2-8.5 2.3-7.2 1.1.8 4.2 1.6 6.8 1.9 4 .4 5.1.1 8-2.3 3.2-2.7 3.3-2.7 4.6-.9.7 1.1 1.7 1.7 2.2 1.4m15.4-1.1c-.3.7-1.8 2.3-3.4 3.5-1.7 1.2-3 2.9-3 3.8 0 1.3.6 1.1 2.8-1 4.1-4 5.2-3.3 1.2.8-3.2 3.3-3.7 6.1-.5 3.5 1.8-1.5 1.9-1.1.5 2.6-.9 2.4-.9 2.5.5 1.4.8-.7 1.5-1.9 1.5-2.6q.1-1.3 1-1.4 2 0-.1 6c-.9 2.6-.9 3.4.2 4.1q1.5.8.3 1.9c-1.7 1.7-5.1-3.2-7.4-10.8-1.9-6.2-2-6.6-.3-8.6 4.2-4.8 8-6.7 6.7-3.2m-60.8 5.1c-.8 3.2-3.6 3.3-3.6.1q0-2.4 1.8-2.8c2.3-.6 2.5-.3 1.8 2.7m-8.2-1.3c.3.7.7 2.5 1 4 .5 2.1 1.2 2.8 3.1 2.8 2.6 0 4 2.7 3 6-.9 2.8-2.5 2.5-6.2-1.3-3-3.1-5.8-10.1-4.7-11.9.8-1.2 3.4-1 3.8.4m26.1 6.2c-1.7 8.3-1.1 9.6 5 11.9q.9.5.4 1.1c-.4.4-2.2 0-4-.8l-6.6-2.6c-2.5-.9-3.3-1.8-3.3-3.7 0-3.3-1.7-6.3-3.6-6.3q-1.4-.1-1.2-1.1c.4-1.2.5-1.3 4-.4a9 9 0 0 0 5.5-.7c3.7-1.9 4.6-1.3 3.8 2.6m43.2-1.2q-.5 1.1-.6-.6t.5-1.3c.3.3.4 1.2.1 1.9m-110.7.7c0 .5 1.4 1.4 3 2.1 2.8 1.2 2.9 1.4 1.5 3-1.4 1.5-1.4 1.9.3 4.1q4.6 6 .4 13.7c-3.6 6.5-9 8.7-20.7 8.7-5.1 0-9.2.4-9.4 1-.6 1.7 4.1 3.5 9.4 3.5 5.2 0 12.8 2.3 15.8 4.8q3.6 3.3-.8 7.8c-2.2 2.1-3.1 2.4-8.2 2a24 24 0 0 1-14.6-5 16 16 0 0 0-5.2-2.6q-1.4-.1-1.5-2.5.1-2.6-1.9-2.5c-1 0-2.5-.8-3.2-1.8q-1.8-2.2.2-.5c1.2 1 1.9 1 3.5-.1 2.1-1.6 1.3-3.1-1.9-3.1q-1.8-.1-2.5-1.4-.5-1.4 1-.8c1.9.7 3.8-1.1 3.8-3.5q.2-1.9-3.1-1.8c-2.7 0-3-.2-1.9-1.5.7-.8 1.9-1.5 2.7-1.5 1.7 0 3.1-3.6 2.5-6.7-.7-3.6-4.5-2.7-5.3 1.2q-.6 3.4-1.2 1.2c-1.5-3.7-1.4-4.4.2-6.6 1.5-1.9 1.9-2 2.9-.8 1.8 2.2 8 .7 13.8-3.4 5.1-3.5 5.8-3.7 13.4-4.2 3.3-.1 4.6-.7 4.8-2 .3-1.7 2.2-2.4 2.2-.8m100.4 4.5q2.3 7.9-2.7 1.4c-1.6-2.1-1.7-2.9-.7-4.8 1.4-2.7 1.6-2.5 3.4 3.4M48 739q-1.1.8-.6 1.8c1.2 2.1-2 1.9-3.6-.2-1.6-2.2-1.5-2.2 2-2.3q3.3-.1 2.2.7m28 4.9c0 3.2.3 7.9.6 10.5.9 6.2-1.1 6.1-2.2-.2-1.1-5.5-.6-16.2.7-16.2.5 0 .9 2.6.9 5.9m122.4-5.3q3.1 1.4-.1 2.8-1.5.5-2.5-.6-2.4-4 2.6-2.2m114.6 4.1q4 5-1.4 6.4a16 16 0 0 0-5.1 2.9c-2.6 2.4-4.6 1-2.4-1.7 1.1-1.3 1-1.7-.4-2.8q-3.2-2.2 0-5.7c2.4-2.7 6.8-2.3 9.3.9m-281-1.3c0 .9-3 1.4-3.5.6q-.4-1 1.4-1 2 0 2.1.4m8 2.1q-1.2 1.4-1.7 1.1c-.7-.7.7-2.6 1.9-2.6q1 0-.2 1.5m246.2 7.5c5.8 1.5 9.2 2.9 8.4 3.7-.3.4-1.7.1-3-.6-2-1.1-3.1-1-7.2.8l-4.9 2.2-2.7-3.3c-3.3-4-3.4-4.6-.6-7.5l2.1-2.3 1.8 3q1.8 2.9 6.1 4m-46.8-5.2c.2.4.1 1.4-.3 2.1q-.8 1.4-1.4-.8c-.5-2 .7-2.9 1.7-1.3m-190.1 9c.3 6.8.1 7.3-1.8 7-1.8-.3-2-1.1-2.3-7.6-.3-7-.2-7.3 1.8-7 1.9.3 2.1 1 2.3 7.6M142 750q-.1.8-1.5.4-1.4-.6-1.5-1 .1-.4 1.5-.4c1.4 0 1.5.4 1.5 1m200 3.7q0 1.2-.9 1.3c-1 0-2.1-2.4-2.1-4.8q-.1-2 1.5.4c.8 1 1.5 2.5 1.5 3.1m-25 4.3c0 1.5-6.9 2-11.7.9-6.5-1.6-7.5-2.8-1.9-2.3 3.7.4 5.3 0 7.4-1.6l2.7-2.1 1.7 2.1c1 1.2 1.8 2.6 1.8 3m-176-1.5c0 2.1-.5 2.5-2.9 2.5-1.7 0-3.3-.5-3.6-1-1.3-2.1.4-4 3.5-4 2.5 0 3 .4 3 2.5m102.5-1.5q.3 1-1.9 1c-2.2 0-2.8-.5-3.1-1q-.3-1 1.9-1c2.2 0 2.8.4 3.1 1m-141 7c-.2 3.9-3.2 9.2-6.9 12.2a19 19 0 0 1-7.6 2.3l-8.2 1.1c-2.5.5-2.8.2-2.8-1.9 0-3.3 1-5.7 2.2-5.7.6 0 .7 1.1.4 2.5q-.8 2.6.9 2.5 1.4 0 1.5-2.4c0-1.3.7-2.9 1.5-3.6 1.3-1.1 1.5-.7 1.5 2.4 0 2 .5 3.6 1 3.6s1-1.4 1-3c0-3.8 1.5-3.9 2.8-.3l1 2.8.1-2.5a9 9 0 0 1 1.1-4c1-1.6 1.4-1 2.3 3.5.2 1.1.4-.3.5-3.2 0-2.8.3-6.1.7-7.2 1.1-3.5 2.4-1.4 2.1 3.4-.2 2.5 0 4.5.5 4.5s.9-1.1.9-2.5c0-1.5.7-3.9 1.5-5.5q1.4-3 .5-3-1-.1-.4-1.1c1.1-1.9 2.1.9 1.9 5.1m191.7.2c4.3 2.8 4.9 3.6 4.6 6.2-.3 2.7-.8 3.2-4 3.7s-3.8.3-3.8-1.3c0-1.1-1.3-3.2-3-4.6-2.9-2.5-3.8-5.1-2.3-6.5 1.3-1.3 3.6-.7 8.5 2.5M252 761q1.8 1.1-3.5.9c-2.7 0-6.9.2-9.2.6-3.6.6-4.3.5-4.3-.9s1.2-1.6 7.8-1.6c4.2 0 8.4.5 9.2 1m93 1.2c.1 1.3 1.9 4.3 4 6.8 3.1 3.4 3.6 4.6 2.6 5.2-1.9 1.1-5.6-.5-8.2-3.3q-4.3-5-1.8-6.9c.8-.7 1.4-1.9 1.4-2.6 0-2.4 2-1.5 2 .8m-200.4 3.9c1.5 1.6 3.4 2.9 4.3 2.9q1.2 0 .8.7c-.4.3-1.7.1-3-.5-4-2.1-10.9-4.1-12.2-3.6-1.4.6-2.9-1.1-2.1-2.4.2-.4 2.4-.6 4.9-.4 3.4.3 5.2 1.1 7.3 3.3M305 764q0 .9-1 1a1 1 0 0 1-1-1q.1-1 1-1t1 1m24.2 2c2.7 1.7 5.3 2.8 5.9 2.5q.8-.6.9.4c0 3.8 10.9 11.5 14.9 10.4q2.3-.7 2.1 1.4c0 2.4 2.6 4.9 6 5.8q2.5.7 6.4-2c3.6-2.4 4.3-2.6 8-1.6a47 47 0 0 0 8.1 1.3l4 .3-2.6 1.8c-2.3 1.5-3.2 1.6-7.2.5-4-1-5.7-.9-11.9.6-4 1-8.8 2.5-10.6 3.4l-3.4 1.7-2.8-3.4c-3.5-4.1-6.6-3.8-5 .5.6 1.5.9 2.7.8 2.8l-2.5 1.4c-2.1 1.1-2.3 1-2.3-.8q-.1-2-2.5-3l-2.6-1 2.3-3c1.9-2.7 2.1-3.5 1.1-6.3l-1.2-3.2 1.7 2.4c3.9 5.7 5 6.6 6.2 5.5 3-3-7.8-14.4-13.6-14.4-5.9 0-5.3 3.8.6 4.1q3.1 0-1.5 1.2c-3.7 1.2-3.9 1.5-4.1 5.2q-.2 4 1.9 6.2c1.1 1.3 1.7 2.6 1.3 3s-5.5.8-11.4.9l-10.7.3 6-1.2c6.8-1.4 8.5-2.3 8.5-4.1q.1-1.4 1.5-2.6c1.7-1.4 2-5.6.4-6.6-.6-.3-.9-1.8-.6-3.3s-.1-4.1-.9-6c-1.8-4.3-1.8-4.1 1.2-4.1a21 21 0 0 1 7.6 3m-254.7-1q.3 1-1.9 1c-1.3 0-3.1.3-4 .6q-1.5.4-1.6-.4c0-.6 1.2-1.3 2.8-1.5l3.4-.6q.7 0 1.3.9m183.9 1.9c.3.5-1.5.8-3.9.7-2.5 0-4.5-.4-4.5-.9 0-1 7.8-.9 8.4.2m56.4.3c1.6 2.1 2.2 5.2 1.3 6.7-.7 1.1-1.3 1.1-3.2-.3a10 10 0 0 0-4.6-1.6q-4.1-.2-.6-4.2c1.9-2.1 5.6-2.4 7.1-.6m-80 .5c-1 .2-2.6.2-3.5 0q-1.3-.5 1.7-.5c3 0 2.7.2 1.8.5m243.6.5q-2.2 1-4-.1c-1.6-.9-1.2-1 2.1-1 3.5 0 3.7.2 1.9 1.1M133 770.6q.1 1.8-2.2 1l-4.3-.7q-2-.2 1-.9c4.7-1.2 5.5-1.1 5.5.6m287 1c0 .2-1.5.4-3.2.4q-3.4 0-1.9-.9c1.2-.8 5.1-.4 5.1.5m-345 1.6c0 2.7-1.6 5.5-2.5 4.6s.5-6.8 1.6-6.8q.8.2.9 2.2m186.1-1.2c1.6 0 2.9.4 2.9 1s-1.7.7-3.7.5l-4.5-.4q-.8-.2-.8-1.2c0-1 .7-.8 1.6-.5s2.9.6 4.5.6m168.2-.3c-1.3.2-3.5.2-5 0-1.6-.2-.5-.4 2.2-.4q4.4 0 2.8.4M65 773q0 .9-1 1a1 1 0 0 1-1-1q.1-1 1-1t1 1m5-.6q0 .5-1 1.1-.9.4-1-.4.1-1 1-1.1 1 0 1 .4m164 1c0 .8.8 1.7 1.8 1.9q1.6.4-.8.6c-2.5.1-5-1.5-5-3.1q.2-.7 2-.8c1.8-.1 2 .6 2 1.4m-184.7 2.1q-.5 1.3-1.4 1.5c-1 0-1.2-2.4-.3-3.3 1.1-1.1 2.4.3 1.7 1.8m6.9 1.7q-1.1 1-1.2.2c0-1.4 1.2-2.6 1.9-1.9q.3.6-.7 1.7m13.6-.5q-.4 1.5-1.5 2-1 .4-.6-1.6c.6-2.5 2.6-2.8 2.1-.4m55.9-1.1q-.7.5-1.9.1t.6-.6q1.8 0 1.3.5M66 777.1c0 .6-.8 3.4-1.7 6.1-1.5 4.3-2.5 5.3-6.5 7.4-3.7 1.9-4.8 3-4.8 4.9 0 1.3-.4 2.7-1 3s-1 2.4-1 4.6-.5 3.9-1.1 3.9q-1 0-.5-3.3c.3-1.7.8-7.4 1.2-12.5s1.1-9.2 1.5-9.2c.5 0 .9 1.6.9 3.5 0 5 1.8 4.4 2.2-.8.3-4.4 2.1-5.8 2.6-2 .3 1.9.6 2.1 2.3 1 1-.6 1.9-1.8 1.9-2.5 0-1.6 2.2-5.2 3.2-5.2q.8.1.8 1.1m77-.2q-.1.9-1.6 2.2t-1 4c.5 2.9-.8 5.3-3.6 6.2q-1.9.8-1.8-1.3c0-2.4-1.7-2.6-4-.5-.9.8-3.1 1.8-4.8 2.1l-3.2.7 3.1-6.3a24 24 0 0 1 4.6-6.7c.8-.3 2.6.5 4 1.8l2.5 2.4 2.1-2.8c2.1-2.7 3.7-3.5 3.7-1.8m9 4.1c0 3.9-.1 4-3.5 4q-3.6 0-3.5-1.5.1-1.4 2.6-1.5c2.3 0 2.5-.3 2-2.5q-.7-2.6.9-2.5c1.6.1 1.5 1.1 1.5 4m165.8-2.8c1.9 1.9 1.4 3-.8 1.8q-1.8-1-2-2c0-1.4 1.4-1.2 2.8.2m44.3-.2c3 1.7 2.4 4-1.1 4-3.1 0-3.5-.6-2.4-3.4.7-1.9.9-1.9 3.5-.6m-326.1.9q0 1-1 1.6-.9.4-1-.9.1-1.5 1-1.6 1 0 1 .9m4 1.3c0 2.7-1.6 5.5-2.5 4.6s.5-6.8 1.6-6.8q.8.2.9 2.2m20.5-1.2c-.3.5-1.1 1-1.6 1q-.9-.1-.4-1a2 2 0 0 1 1.6-1q.9 0 .4 1m203.5.5q0 1.4-1.5.9-1.4-.7-1.5-1.5c-.1-.8.7-.9 1.5-.9s1.5.7 1.5 1.5m221.3-.8c-.7.2-2.1.2-3 0q-1.3-.5 1.2-.5 2.6 0 1.8.5m-440.9 3c-.8 3.3-1.2 3.9-2 3s.5-5.7 1.6-5.7q1 .1.4 2.7m287.9.3c.7 2.7-1.1 3.6-3.1 1.7-1.2-1.3-1.3-1.9-.3-3.1q2.4-2.8 3.4 1.4m-283.8 2.9c-.8 4.6-2.5 6.5-2.5 2.7 0-3 1.8-8.1 2.6-7.3.3.3.3 2.4-.1 4.6m187.8-3.2c-.7.2-1.9.2-2.5 0q-1-.5 1.2-.5c2.2 0 1.9.2 1.3.5m170.5 1.5c1.6 1.6 1.5 3.7-.3 4.4-2 .8-5.8-3.8-4.2-4.8q2.5-1.7 4.5.4m84.2-.2q1.6 1-5 .9c-4.8-.1-5.8-.3-4-.9 3.5-1.1 7.2-1.1 9 0m-419.1 1.7c-1.4.9-3.1 2.8-3.7 4.2-1 2.5-1 2.5-1.1.3-.2-3.8 1.7-6.2 4.7-6.2l2.7.1zM39 789c0 1.6-.4 3-1 3-1.1 0-1.4-4.3-.3-5.3 1.1-1.2 1.3-.8 1.3 2.3m117.9-.3q.1.3-2.9.3c-2.8 0-3.1-.2-2-1.5 1-1.2 1.6-1.3 2.9-.3zM397 787q0 .9-.4 1-.5-.1-1.1-1-.4-1 .4-1 1 0 1.1 1m-189.4 1.4q3.1 0 4.3 1.8c1.1 1.7.3 1.8-15.6 1.8-9.3 0-21.3.3-26.8.6-8 .5-9.8.4-8.8-.6a50 50 0 0 1 17.6-2.1l4.5.1a75 75 0 0 0 17.7-2.1c.5-.5 1.6-.6 2.5-.2s2.9.7 4.6.7m-191.6 1c0 .7-1.2 3.4-2.6 6-3.4 6-12.7 11.3-10.7 6q.4-1.3-.6-1.4-1.3-.2-1.1-1.5c.2-1.3.9-1.5 2-1.5q1.9.1 2 1.7 0 2.2.9.4c.5-.8.7-2 .4-2.7q-.3-1.1.6-1.9 1-.4 1.1 1c.1 1.4.5 1.3 1 1s1-1.8 1-3.3c.1-2.5.2-2.6 1.4-.9 1.4 1.9 3.3.7 2.1-1.3-.7-1.2.2-3 1.6-3q.8.1.9 1.4m27.2 3.7-1 3.4-.1-4.5q-.2-4.6 1-3.3 1 1 .1 4.4m348.5-3.3q1.1 2 4 1.5c2.1-.3 3.7.4 6.6 3.2 5.1 4.7 4.7 6.8-1.8 7.7q-15.6 2-19.9-1.3-5.4-4.4.9-3.3c2.8.5 3.5.3 3.5-1 0-.9-.5-2.5-1.2-3.5-.9-1.5-.9-2.3.1-3.5 1.8-2.2 6.4-2 7.8.2m-356.7.1c0 1.2-2 2.5-2.7 1.8s.6-2.7 1.8-2.7q.8 0 .9.9m340.5.8q6 2.8 1.5 4c-1 .3-2.2 1.4-2.5 2.4-.6 1.7-1.3 1.9-7 1.3-6-.6-6.5-.5-8.8 2a7 7 0 0 1-6 2.6c-4.3 0-10.7-2.8-10.7-4.7q0-2.5 4.5.3c2.8 1.8 5.5 1.3 5.5-1.1 0-2.1 4-3.5 6.3-2.3 2.7 1.4 5 .2 4.2-2.2-.5-1.5 0-2.1 2.7-2.9 4.8-1.4 6.3-1.3 10.3.6m-226 1.9 5 1.2-6.5.2c-18.4.8-26 .7-26-.1 0-1.1-.5-1 9.3-1.5a37 37 0 0 0 9.5-1.3c.9-.5 2.1-.6 2.7-.3.5.4 3.3 1.2 6 1.8m151.8-1.9c-.7.2-1.9.2-2.5 0q-1-.5 1.2-.5c2.2 0 1.9.2 1.3.5m-253.6 8.6c-.6 12-2.7 15.1-2.6 3.7.1-7.6 1-12 2.5-12 .2 0 .3 3.8.1 8.3m-14.1-1.5c-1.4 1.4-1.6 1.4-1.6.1 0-2 2.3-4.4 2.9-2.8.2.6-.4 1.8-1.3 2.7m30.1-3.2q-.6.5-1.9.1-1.1-.5.6-.6t1.3.5m31.8.4c-.3.5-1.7 1-3.1 1q-2.2 0-1.9-1c.3-.6 1.7-1 3.1-1q2.2 0 1.9 1m218.8.5c9.7.1 17.9.4 18.2.6.9 1 3.2 13.8 2.6 14.7-1.3 2.1-56.2 2.7-196.3 2.4L57 813v-14h5.5q5.3 0 6.2-1.3c1.1-1.8 5.4-2.9 5.2-1.4-.4 3.2.2 3.4 12.3 3.1 7.3-.2 12.7.1 13.4.7s10.8.7 31.1 0c27.7-1 36.1-1.4 61.3-2.7l31.5-.9c40.3-.8 68-1.7 68.4-2.1q.6-.3 2.5.3c1.2.3 10.1.7 19.9.8M39 801.6q0 5.3-1 4.9c-.5-.3-1-2.8-1-5.6s.5-4.9 1-4.9 1 2.5 1 5.6m3.6.1c-1 1-1.9-.5-1-1.8q.7-1.7 1.2 0 .3 1.2-.2 1.8m-13.4 1.5q-1.1 1-1.2.2c0-1.4 1.2-2.6 1.9-1.9q.3.6-.7 1.7m5.8-.8c0 .7-.7 1.9-1.5 2.6q-1.7 1.6-1.5-.7c0-1.1.3-2.3.7-2.6 1.1-1.2 2.3-.8 2.3.7m338 1.8q1.7 1-1.5.4c-1.7-.2-3.7-.1-4.5.4-2.6 1.6.3 3 6.6 3.1 8.2 0 14.7 1 13.7 2-1.1 1.1-46.3 1.4-47.3.3-.4-.5-1.1-2.4-1.5-4.2-.8-3.8.4-4.1 5-1.4 1.7 1 4.5 2.2 6.4 2.5 4.2.9 10.9-1.1 12.5-3.5.9-1.5 1.8-1.8 5.1-1.2 2.2.3 4.7 1.1 5.5 1.6m-350 4.4q-.1 2 1.5.4 1.6-1.5 1.5.5c0 1.7.1 1.7 2.1-.1 2.1-1.9 2.1-1.9 1.8.6-.4 2.3-.8 2.5-5.9 2.5-3 0-5.5-.5-5.5-1q0-1 1.2-.7 1.2.2 1.3-1.8.1-1.8 1-2 1 .1 1 1.6m13-.9c-.1 2.9-1.5 5.3-3.1 5.3-1.8 0-1.9-.2-.4-3 1.4-2.7 3.5-4.1 3.5-2.3m7.7 2.3c1 2.7.9 3-.8 3-1.4 0-1.9-.7-1.9-3 0-1.7.4-3 .8-3s1.3 1.3 1.9 3m7.3.5c0 1.4-.4 2.5-1 2.5-1.1 0-1.4-3.3-.3-4.3 1.1-1.1 1.3-.8 1.3 1.8"/><path d="M117.1 231.4c-1.5 1.8-.5 4 1.2 2.9.7-.4 2.2-.6 3.4-.4q2.4.4 1.7-1.3-.6-1.5-1.4-1.6l-2.3-.5c-.7-.3-1.9.1-2.6.9m66.5 40.5c-.4.5-.3 1.6 0 2.4q.6 1.6-3 3.4c-3.4 1.7-3.5 1.9-1.8 3.3.9.8 3.1 1.6 4.7 1.8s3.3.9 3.7 1.5q.7 1 1.4.4t-.3-1.8c-.9-.9-.4-1.8 1.8-3.6 3.3-2.9 3.7-5.8 1-7.3-2.4-1.2-6.8-1.3-7.5-.1m-6.5 2.5q-1.2 1.5-.7 2.3c.9.9 2.9-1.3 2.4-2.7q-.3-1.2-1.7.4M367 315.9q.1 1 1 1.6 1 .4 1-.9 0-1.5-1-1.6-.9 0-1 .9M110.5 350q-.4.9.9 1 1.5-.1 1.6-1 0-1-.9-1t-1.6 1m31.5-10.5q.1 1.4 1 1.5 1-.1 1-1.5c0-1.4-.4-1.5-1-1.5q-.9.1-1 1.5m115 51c-.6.8-2.1 1.5-3.2 1.7q-6.1 1 3.3 5.7c3.5 1.6 6.6 2.8 7.1 2.5 1.5-.9.8-3.3-1.2-4.4-2.8-1.5-2.5-3.2.4-2.4 2.7.7 6.9-1.2 6.4-2.8-.6-1.7-11.4-2-12.8-.3m26 .9c-1.2 3.2-5.8 4.1-7.9 1.5-1.5-1.8-1.8-1.8-3.8-.4-1.3.9-2.3 2.3-2.3 3.1 0 1.8 4.4 3.6 7.3 3l4.9-1c3.6-.8 6.7-4.2 6.1-6.7-.7-2.6-3.2-2.4-4.3.5m.7 11.3q-1.8 1.8 1.3 2.6 2 .6 2 2.8c0 2.2.1 2.2 1.7.7 1.4-1.4 1.5-2.2.5-4.3-1.1-2.3-4-3.3-5.5-1.8m-35.7 4.7c0 1.9 1.4 2.8 3.4 2 1.3-.5 1.4-.9.5-2-1.5-1.8-3.9-1.8-3.9 0m-44.4-5.8c-.3.8.3 4.1 1.4 7.2 1.2 3.1 2.5 7.2 3.1 8.9q1.7 5 3.3 2.5a29 29 0 0 0-1.9-7.7 56 56 0 0 1-2.5-9.8c0-2.9-2.4-3.8-3.4-1.1m-6.6 2.3c0 1 .7 3.8 1.6 6.2a74 74 0 0 1 2.5 10.9c1.3 9.1 2.8 13.5 4.2 12.1.8-.8.8-2.4-.1-5.8-1.2-5.1-2.7-16-2.5-18.1q0-1-.7-1.2c-.4 0-1.3-1.4-1.9-3-1.1-3.3-3.1-4-3.1-1.1m-23 20.6c-.8 1-.2 2 2.7 4.4 4.2 3.5 6.5 2.8 4.4-1.3-1.8-3.2-5.6-4.9-7.1-3.1m9.9 13.5c-1.9 1.3 0 4.4 3 4.8q2.3.5 2.1-1.7c0-2.5-3-4.3-5.1-3.1m14.6 8.4q-1.6 1.3-1.1 2.5.8 1.2 1.9.3c.7-.6 2.1-1.2 3.2-1.4 2-.4 2-.4-.1-1.6-1.7-.9-2.5-.8-3.9.2m-9.9 1.5c-1.8 2-1.5 4.1.6 4.1.6 0 2 .7 3 1.7 2.6 2.4 6.3 2.5 8.4.2q2-2 .3-1.9c-.8 0-2.1.6-2.8 1.2-1.1 1.1-1.4 1-1.8 0-.3-.7-1.8-1.9-3.4-2.7q-2.7-1.5-2.3-3 1.2-3-2 .4M353 555a9 9 0 0 0 1.5 3.3 42 42 0 0 1 4.5 21.4q0 12.8 2.6 8.1c1.1-1.7.6-19.5-.7-24.2-1.3-4.9-4.5-9.6-6.5-9.6q-1.3.1-1.4 1m3.6 41.7c-.3 1-1 8.5-1.6 16.8a158 158 0 0 1-2 17.9c-.6 1.6-1 6.3-1 10.5-.1 4.2-.5 9.6-1.1 12.1-1.4 6.1-3 67-1.8 67 2.9 0 4.1-11.8 3.9-38.5 0-8.3.4-19.1.9-24L357 628a408 408 0 0 1 3-25.7c.5-2.3.7-4.9.4-5.8-.8-2-3.1-1.9-3.8.2"/><path d="M354.4 682.4c-.3.8-.1 3.9.5 6.8.5 3 1.3 12.8 1.7 21.8.6 14.9.9 16.5 3 18.9s2.3 2.4 3 .8c.3-1 .2-2.3-.5-3-.6-.6-1.1-4.4-1.1-8.6-.1-11.5-1.8-31.2-3.1-34.9q-2-5.2-3.5-1.8M347 740c0 .5.8 1.8 1.8 2.8 4.6 4.6 6.2 8 6.2 13.4 0 4.9.3 5.7 3.8 9 4.1 4 11.8 8.2 13.2 7.3 1.9-1.1-.4-3.6-5.1-5.6-5.6-2.5-7.9-5.4-7.9-10.4q0-6.6-6.8-13.8-5.3-5.6-5.2-2.7m29 6.9c0 1 2.4 3.1 5.4 4.6 1.2.6 2.8 3 3.8 6 2 6 4.8 7.4 4.8 2.3 0-4.1-4-10.2-8-12.3-3.2-1.7-6-2-6-.6M182.2 567.1c-2.9 1.1-2.9 2.9.1 2.9 1.2 0 2.9.4 3.7 1q1.8.9-.5 1.5c-7.7 2.5-8.2 3.7-2.6 5.4 4.4 1.3 9.1.1 9.1-2.3 0-.8.2-2 .5-2.8 1.2-3.4-5.8-7.3-10.3-5.7m24.1.9c-1.8 1.1-3.3 2.7-3.3 3.5 0 1.9 1.4 1.9 3 0 .6-.7 3.2-1.7 5.6-2.1q4.2-.7 4.1-1.8c-.6-1.9-6.1-1.7-9.4.4m.4 4.7c-2.6.7-1.7 3.6 1.4 4.7 2.7.9 6.2.4 8.8-1.3 1.2-.8 1.2-1.2.2-2.5-1.3-1.5-6.3-2-10.4-.9m-5.6 12.2c-.7.5-2.2.6-3.2.4-1-.3-2.6-.2-3.5.1-1.3.5-1.4.9-.4 2.1 1.7 2.1 8.9 2 9.7-.1.7-2-.8-3.6-2.6-2.5m-5.7 7c-.5.3-1.7 1.6-2.7 2.8l-1.9 2.1 9.3-.1c9.6-.2 12.4-1.5 7.2-3.5-3.6-1.3-10.8-2.2-11.9-1.3m3.3 6.7c-1.4 1.4-.7 2.5 1.3 2.2q2-.4 2.1-1.3c0-1.2-2.4-1.8-3.4-.9m130.9 12q-.9 2 .9.4 2.5-2 .6-2-.9.1-1.5 1.6m-197 41.3q-.6 1.2-.2 1.8c.9.9 1.9-.4 1.4-1.8q-.4-1.6-1.2 0m4 68c-.7 1.1 1.1 2.6 4.2 3.5 3.6 1.2 2.7 3.6-1.2 3.6-4.3 0-5.3 1.4-2.5 3.3 2.9 2.1 2.1 4.9-1.8 5.9-3.6.9-6.3 4.1-6.3 7.5 0 3.1 2.4 2.9 3.8-.2a9 9 0 0 1 3.9-3.7c4.2-1.8 7.3-4.9 7.3-7.3 0-1.2.9-3 2-4q4-3.8-.6-7.4c-2.7-2.1-7.8-2.8-8.8-1.2m100.5 2.8c-3.7 1.8-3.9 3.8-1 8.7q2.1 3.7 4.5 3.6 4.1-.1.9-3-3-2.5.5-6c1.1-1.1 2-2.4 2-2.9 0-1.7-3.8-1.9-6.9-.4m-55.4-79.5c-1.4 1.1-1.5 1.7-.4 3.8 1.4 2.8 5.2 3.4 5.2.9 0-.9.6-2.3 1.3-3.1.6-.8.9-1.8.5-2.1-1.1-1.1-4.8-.8-6.6.5m-5 21.4c-1.4 1.4-.7 2.5 1.3 2.2q2-.4 2.1-1.3c0-1.2-2.4-1.8-3.4-.9m53.8-1.3c-2.4 1.8-1.1 4.1 1.6 2.7 1-.6 1.9-1.7 1.9-2.5q0-2.8-3.5-.2m-46.4 62.6c-3.7 1-3.8 3.1-.2 3.1 3.7 0 8.1-1.6 8.1-3 0-1.1-4.1-1.2-7.9-.1m-10 16.5c-1 1.2-.8 1.7.8 2.5 2.2 1.2 3.7 0 2.7-2.4q-1.2-2.8-3.5-.1m-19.3 5.5c-3.2 2.8-3.2 2.9-1.4 5.5 2.3 3.5 5.2 3.1 4.8-.7-.4-3.4 1.1-3.5 3.3-.1 1.3 2 1.9 2.3 3.1 1.3q3-2.7-.9-6.7c-3.1-2.9-5-2.8-8.9.7m15.6 21.2q-.5 1 .3 2c1.3 1.3 4.3.1 4.3-1.7 0-1.6-3.6-1.9-4.6-.3m-7.9 2.2c-2.8 2.1-1.1 3.6 3.1 2.7 4.1-1 4.8-1.5 3.9-2.9-.9-1.5-4.8-1.4-7 .2m.2 6.5c-3.5 3.8-.9 7.6 4.3 6.2 2.1-.5 2.5-1.2 2.5-4 0-3-.4-3.5-2.6-3.8-1.5-.2-3.2.5-4.2 1.6m54.5-34.2c-3 2-3.1 7.4-.2 7.4q1.8-.1 2-1.4c0-.8.5-1.8 1-2.1q1.1-.6.4 1.9c-.7 2.9.9 3.4 3.9 1.2 2-1.6 2.2-4.4.3-6.9-1.6-2.1-4.5-2.2-7.4-.1m-.8 33.8c-1.6 4.2 1.5 6.8 5 4.3 2.6-1.9 1.3-5.7-2-5.7-1.4 0-2.7.6-3 1.4m-46.9-642.2c-1.6.6-3.9 1.9-5.1 2.9-1.1 1.1-2.6 1.9-3.3 1.9-.8 0-2.9 1-4.8 2.1-2.6 1.7-3.3 2.7-2.9 4.2.3 1.2 0 2.7-.6 3.4-1.8 2.2-.1 2.6 3.1.7q3-1.8 3.1-4c0-2.8 2.9-4 4.5-1.8.9 1.4 1.6 1.4 3.3.5 1.2-.6 2.2-1.9 2.2-2.9 0-3.8 1.7-4.7 8.7-4.7 5.4 0 6.8-.3 6.8-1.5 0-1.9-10.4-2.4-15-.8m21.5 86.3c-1.6 2-.4 3.5 2.8 3.3 3.8-.2 4.3-.7 3.2-2.9-1.3-2.3-4.3-2.5-6-.4m-18.3 3.2c-1.4 1.4-.7 3.5.9 2.9 1-.4 2.5.1 3.5 1 1.7 1.6 1.9 1.6 2.5 0 .3-.9.1-2.3-.6-3.1-1.3-1.5-5.1-2-6.3-.8M132 226q.1.9 1 1 1-.1 1-1t-1-1a1 1 0 0 0-1 1m4.5 3.2q-4.1 2.4-2.5 4.2 1 .8 2.4-.3t2.1-.1c1 1.6 2.5 1.2 2.5-.9 0-2.8-2.1-4.2-4.5-2.9M8.8 500.8c-3.1.4-8.8 5.5-8.8 7.8q0 1.5 4.6-2.1c5.3-4 9.8-4.6 14.4-1.8 2.6 1.5 3 1.5 5.4 0 1.4-.9 3.3-1.4 4.2-1q1.7.6 1.2-.8c-.5-1.7-6.6-2.5-8.1-1q-1 1-2.6.2a20 20 0 0 0-10.3-1.3m452.6 34.1a24 24 0 0 0-5.6 5.3c-.9 1.4-3 2.8-4.6 3.1-5.7 1.2-12 8.4-10.6 12.2.8 2.1 3.4 1.9 3.4-.3s4.2-6.8 6.9-7.7c1.1-.3 2.9-.2 3.9.4 2.2 1.2 4.2-.3 4.2-3.2 0-2.3 6.7-8.5 10-9.2a40 40 0 0 1 9.3.4c5.5.8 7.7 1.6 11.1 4.5 3.8 3.1 9.6 5.7 9.6 4.3 0-.3-1.8-2.4-4-4.6-5.9-6-11.6-8.1-21.5-8.1-7.4 0-8.6.3-12.1 2.9M453 747.6c0 1.3 8.9 5.8 9.7 5 1.2-1.1-3-4.5-6.5-5.2-1.7-.4-3.2-.3-3.2.2M9.5 772.3c-.3.7-2.5 2.8-5 4.7-3.3 2.6-4.4 4.2-4.5 6.3v2.7l5.4-4.2c5.4-4.3 8.1-8.1 7.1-9.9-.9-1.3-2.5-1.1-3 .4m466.8 19.3c-1.7 1.3-1.7 1.5.1 2.9 2.1 1.6 5.6.4 5.6-1.9 0-2-3.6-2.6-5.7-1M376.7 831c-4.8.9-6.8 2.7-4.1 3.5 4.8 1.6 4.9 1.7 5.2 13.8.3 11.4.2 11.6-2.3 13.3q-5 3.3 2.9 3.4c6.2 0 7.5-1.4 8.2-9 .7-8 1.8-9.3 4.1-5l5.8 9.4c4.2 6.4 4.9 6.7 12.3 5.1 2.6-.6 3-3.5.5-3.5-2.7-.1-6.8-4-9.2-8.8q-3.3-6.3.2-6.2c1.9 0 6.7-4.9 6.7-6.9 0-3.3-2.1-8-3.9-8.6-2.9-.9-22.4-1.3-26.4-.5m17.1 4.6c1.8.5 2.2 1.3 2.2 4.5 0 4.6-1 5.4-5.5 3.9-2.7-.9-3.5-1.7-3.5-3.5 0-2.2 2.3-5.5 3.8-5.5zm-372.2-3.1a16 16 0 0 0-11.2 9.2c-2.1 4.9-1.7 7.9 1.7 14.4 2.5 4.6 4.1 6.3 7.5 7.9 2.4 1.2 5.8 2.1 7.6 2 7.1-.4 8.5 0 9.6 2.5a9 9 0 0 0 3.9 3.7c1.6.7 3.6 1.8 4.5 2.6 1.3 1.1 3.4 1.3 7.9.9 7.7-.7 10.6-3 5.3-4.2-10.7-2.5-13.8-4.1-14.9-7.6q-.7-2 1.4-4.3a25 25 0 0 0 3.6-6.6c3-8.5-.6-17.5-8.2-20.6-4-1.7-12.2-1.7-18.7.1m13.9 6.6c3.2 2.9 3.5 3.5 3.5 8.9 0 8.3-2.3 11-9.6 11-4.5 0-5.9-.4-7.9-2.5-4.7-4.6-2.7-15.7 3.3-18.9 4.1-2.3 6.8-1.9 10.7 1.5m226.2-7c-5.6 1.3-8.6 3.7-9.8 7.9q-2.3 7.6 5.5 11.4c3.3 1.6 4.4 1.7 7.1.7a20 20 0 0 1 5.3-1.1c2 0 2.2.5 2.2 5.4 0 4.7-.3 5.6-2.1 6.1-3.4 1.1-8.4-.3-12.4-3.5-2.1-1.7-4.3-3-4.9-3-2.6 0-4.8 2.7-4.9 6l-.2 3.5 4.8.1c2.6 0 7.1.7 10.1 1.4 4.7 1.1 6 1 10.6-.5q15.3-5 6.8-16.2c-3.7-4.9-5.9-5.8-12.4-5-4.2.4-4.6.3-5.5-2.1-1.4-3.6-.6-4.9 3.4-5.4 2.6-.3 3.8.1 4.6 1.4a4 4 0 0 0 3.1 1.8c1.7 0 2-.7 2-4 0-3.7-.2-4-3.7-4.9-4.3-1.2-4.4-1.2-9.6 0m38.9-.4c-1.1 1.1-.6 2.3.8 2.3 1.8 0 6.6 6.1 6.6 8.3 0 .9-1 3.5-2.2 5.8-2 3.8-2.2 4-3.5 2.3a52 52 0 0 1-5.6-15.4c-.2-2.3-.6-2.5-6.3-2.8-6.2-.3-11.4 1-11.4 2.8 0 .5 1.5 1 3.4 1 2.9 0 3.5.5 4.7 3.2 2.8 7.2 10.2 22.4 11.7 24 .8 1 2.6 1.8 4 1.8 1.9 0 2.3-.4 1.9-2-.5-1.9 5.7-15 7.2-15 .4 0 2.1 2.8 3.9 6.2 4.7 9 5.6 10 8.7 9.6 2.5-.3 3-1.2 5.5-8.3a87 87 0 0 1 9.6-21.6c2.7-2.2 1.4-2.9-5.2-2.9-4.8 0-6.5.3-6.2 1.2.3.7 1.7 1.4 3.2 1.6s2.6.6 2.4 1c-3.3 6.9-6.8 14.6-7.3 16.2q-.6 1.8-1.4 2c-.3 0-2.4-3.3-4.6-7.4-3.4-6.6-3.8-7.7-2.7-10 .6-1.4 1.8-2.6 2.7-2.6q1.3 0 1.5-.9c0-1-20.4-1.3-21.4-.4"/><path d="M349.3 831.9c-6.7 1.2-11.1 8-11.2 17.6q-.3 14.5 17.3 14.5c8.2 0 13.3-2.9 16.4-9.1 2-4.1 2.2-5.2 1.2-9.5-1.6-7.7-3.1-10.4-6.3-12a32 32 0 0 0-17.4-1.5m9.7 4.7 4 1.8 1 5.9c1 4.9.8 6.1-1 9.6-2.2 4.3-6 6.2-8.9 4.4q-5.7-3.5-5.6-12.6c.1-10.3 2.4-12.3 10.5-9.1m53.5-4.5c-.4.6.3 1.8 1.5 2.6 2.2 1.5 2.2 2 1.8 13.9-.3 7.5-1 12.9-1.7 13.8q-1.2 1.4-.1 2.1c1.9 1.2 20.4-.6 24-2.3 9.2-4.5 11.7-19.8 4.3-26.4q-5.3-4.8-19.9-4.8c-5.6 0-9.5.4-9.9 1.1m18.3 3.9c1.3 0 3.5 1.2 4.9 2.6 2.4 2.4 2.5 3 2 9.4-.3 3.8-1.1 7.8-1.7 8.9-2.2 4.2-11.1 6.8-12.4 3.6-.7-1.9-.7-23.6.1-24.8.3-.5 1.5-.6 2.7-.3 1.1.3 3.1.6 4.4.6"/><path d="M457.7 831.8q-2.8.3-4.8 3.5-3.9 6.7.6 11.2c2.1 2.2 3.3 2.5 10 2.5h7.5v4.8q0 11.7-9 4.2c-1.9-1.7-4.4-3-5.6-3-2.3 0-11.6 6.9-10.8 8.1.2.4 6.9.6 14.8.5 11.3-.3 14.8-.7 16.8-2 5.1-3.4 4.4-12.7-1.3-16-2.4-1.4-4.2-1.6-8.9-1.1l-5.8.7-.4-4.7c-.2-2.6 0-4.9.5-5.2 1.6-1 9.5.8 10.1 2.2.9 2.3 4.3 1.8 5-.8 1.4-5.2 1.2-5.3-7.6-5.3-4.6 0-9.6.1-11.1.4m-405.6 1.1c-1.7 1.1-.5 3.1 1.9 3.1 1.7 0 1.8.8 1.8 8.7-.1 9 1.9 18 4.6 20.2 1.9 1.6 13.8 1.7 17.4.2 2.8-1.2 3.4-1.1 5.8.8q4.6 3.8 9.3.5 4-2.9-2.7-3.8c-1.8-.2-3.5-.5-3.7-.7s-.5-5.7-.6-12.2c-.2-10.6-.1-11.9 1.7-13.1q4-3-4.6-4.1c-3.4-.5-5-.2-6.5 1q-1.9 1.6-.9 2.1c4 1.7 4.6 3.1 5.1 11.7.5 8.2.4 8.9-1.7 11.2-3.3 3.5-9.3 3.5-11.6 0-3.3-5-4.9-20-2.4-23 .6-.8.9-1.9.5-2.5-.8-1.2-11.4-1.3-13.4-.1m52.4 0-6 .6-.1 16.5q-.2 16.3.9 17.2c1.1.6 9.6.3 15.3-.7 3-.5 5.4-3.6 5.4-7 0-2.2-2.8-1.8-5.3.8a6 6 0 0 1-5.2 2.2c-2.9-.2-3-.3-3.3-6q-.7-10.6 3.9-5.1 5 5.6 4.9-1.2.1-7.2-4.6-5c-3 1.4-3.2 1.2-4-3.9-.5-3.6-.3-4.3 1.6-5.3 2.7-1.4 5 .2 5 3.5 0 2.4 1.6 3.5 3.8 2.8 1.5-.6 1.6-7.5 0-9.1-1.2-1.2-2.2-1.3-12.3-.3m71.6-.1c-1.8.6-1.3 2.9.9 3.5 1.8.5 2 1.4 2 8.1 0 8.1-.8 9.3-3 4.8-.8-1.5-2.4-4.1-3.6-5.8q-2.3-3.2-1.7-5.4.8-2.7-1-1.7-1.7.5-3.6-1.4c-1.6-1.7-2.9-1.9-9.7-1.7-6.2.2-7.9.6-7.9 1.8q.2 1.5 3 2l3 .5-.3 12.5c-.3 11.9-.4 12.6-2.7 14.5q-2.3 2-2.5 2.9c0 .8 13.1-.2 14-1.1q.3-.5-1.3-1.7c-1.4-1.1-1.7-2.9-1.7-11 0-5.3.3-9.6.8-9.5s4 4.7 8.1 10.5c8.2 11.7 10.8 13.7 14.9 11.3 3-1.6 3-1.6 1.6-18.6l-.6-8.1 3.2-1.7q3-1.6 2.8-3.3c-.3-1.4-1.5-1.7-6.9-1.7-3.6-.1-7.1.1-7.8.3m-49.6 1.2c-.6 1-.9 30.9-.3 31.5.2.1 4.2.5 9 .8l8.7.5 2.1-3.5c3.2-5.5 1.2-7-3.8-2.8a11 11 0 0 1-5.4 2.5c-2.3 0-2.5-.4-2.6-5.5-.1-5.8 1.1-7.8 3.2-5 1 1.4 1.7 1.5 3.3.7s1.9-1.8 1.5-4.2q-1-6-5.3-2.4c-2 1.8-2 1.8-1.7-4.1.2-4.8.7-6 2.1-6.3q1.8-.5 2.8 2.8 1.2 3.1 2.6 2.6l2.5-.6c1.4 0 .1-6.2-1.5-7.2a43 43 0 0 0-17.2.2m94.9 4.4c-1.7.8-3.4 2-3.7 2.8-.9 2.4 2.7 9.1 7.2 13.6 6.4 6.3 8 13.5 4.1 18.5q-4.2 5.2.7 4.5c3.4-.4 7.3-5.9 7.3-10.3 0-1.8-.7-5.1-1.5-7.4-1.4-4.1-1.4-4.1 1-4.1 4 0 3.2-3.5-1.5-6.6-3.3-2.2-4.3-2.4-5.5-1.4q-1.3 1.2-.8 2.3.4.9-.6.3c-.6-.4-2-2.5-3.2-4.7l-2-4 3.4.6q5.8 1.2 4.2-3.5c-.8-2.4-4.4-2.6-9.1-.6"/><path d="M208.3 851.6c-3.8 1.9-4.7 4.1-3.3 8 2.6 6.7 6.9 8.7 13.8 6.3 3.6-1.2 4.7-3.7 3.7-8.5-1.3-6.9-7.1-9.3-14.2-5.8m7.5 3.6c.5.7 1.3 2.4 1.7 3.7 1.4 4.6-4.1 4.6-6.5 0-1.9-3.5 2.3-6.7 4.8-3.7m269.4 3.9q-2.4.8-2 3.1c.2 1.9.9 2.3 3.8 2.3s3.6-.4 3.8-2.4c.2-1.3-.2-2.8-1-3.2-1.6-1-1.7-1-4.6.2"/></svg>