<svg xmlns="http://www.w3.org/2000/svg" width="666.7" height="1170.7" viewBox="0 0 500 878"><path d="M141.1 6.2c-.6 23.7-3.2 85.1-3.7 88.8-.5 4.1-.7 4.3-2 2.5-.8-1-1.4-2.8-1.4-3.9a81 81 0 0 0-2.1-11.1L128.4 67c-.8-3.6-2.8-11-4.4-16.5l-3.5-12.8c-.3-1.6-2.8-5.1-5.6-7.9-4.7-4.7-5.1-4.9-7.2-3.6-1.2.8-3.4 3.9-4.9 6.9l-2.7 5.4 1.9 9c1 4.9 1.7 9.3 1.4 9.6-.2.4.3 2.8 1 5.5.8 2.7 1.9 8.7 2.5 13.4a652 652 0 0 0 4.2 26c1.6 11 3.5 22 5.8 35 2.3 12.8 5.5 33.5 7.6 48 .7 5.2 2.4 16 3.9 24 6.2 35.2 5.9 32.4 4.3 39.6-.9 3.6-2.4 7.6-3.5 8.8a28 28 0 0 0-3.7 5.5 99 99 0 0 0-6.5 25c0 4.7-7.6 34.8-15.6 61.6-2.2 7.2-6.6 18.6-12.9 33-3.2 7.4-9.5 29-9.5 32.5a36 36 0 0 1-4.4 12.9C70.2 441 64 460.9 64 468.8c0 4.1 2.5 10.1 4.2 10.3l3.3.3c1.7.1 2 .7 1.7 4.1-.2 2.2-1 5.9-1.8 8.3a60 60 0 0 0 0 26c.8 1.5 2.8 3.9 4.5 5.5 3.3 2.9 3.4 3.2 3.1 12.2-.1 4.3.5 7.4 2 10.9 1.3 2.8 2 5.9 1.7 7.5-.3 1.4.1 6.2.9 10.6 1.7 9.5 1.7 10.5.4 10.5-.5 0-1.4-1.9-2-4.3a58 58 0 0 0-20.8-26.9c-7.2-5.4-10.2-6.4-20.3-7.3a60 60 0 0 0-32.7 7.8L0 548.4v158.3l2.5 1.1c1.4.6 2.5 1.5 2.5 2s3.4 3 7.5 5.6c6.4 4.1 8.1 4.7 11.7 4.4 3.7-.3 4.3 0 4.6 1.7.5 3.3-6.2 7.1-13.6 7.8-6.8.6-15.2 4.1-15.2 6.3 0 1.6 1.2 1.8 2.5.5a51 51 0 0 1 11.5-2.5q10.6-1.6 11.7-3.2c.6-.9 1.6-1.4 2.2-1.3.5.2-.2 1.7-1.5 3.3-2 2.3-3.7 3-8.7 3.6-3.4.5-8.7 1.7-11.7 2.8l-5.5 1.9-.3 4.6c-.3 3.9 0 4.7 1.5 4.8 4.9.3 7.4.9 10.4 2.4 3.4 1.8 3.1 2.4-1.9 4-2.1.6-2.3.5-1.3-1.3 1.4-2.7.4-3.2-4.7-2.5-3.6.5-4.2.9-4.2 3 0 2 .4 2.2 2.5 1.7q2.7-.8 2.5 1c0 .8-1.1 1.8-2.5 2.2q-2.4.6-2.5 2.5c0 2.5 3.6 2.5 5 0 1.7-3.3 10.2-5.4 18.4-4.7 18.5 1.7 22.6 1.8 22.6.7q0-1-1.2-1.1c-1.9 0 .5-1.8 2.7-2 3.7-.4 4.5 0 3.8 1.7-.5 1.3-.2 1.5 1.7 1 1.3-.3 3-.1 3.8.6 2.1 1.7 12.9 1.2 17.6-.8q4-1.6 4.9-.6c1.2 1.2 1.1 1.2-7.4 3.6-3.1.9-6.5 2.5-7.4 3.5-1.4 1.5-2.1 1.7-3.2.9-1.8-1.5-3.9.3-4.6 3.9-.7 3.3-7.2 10.1-11 11.4q-3 1-2.4 2.9.4 1.9-.8 1.9c-2.1 0-2.7-1.7-1.4-4.2.9-1.7.9-2.4-.5-3.3-2.3-1.7-2-4.3.7-4.7 2.3-.3 3.2-3.8 1.1-4.5-1.5-.5-7.4 5.1-7.4 7q0 1.5-.9 2.2c-.5.3-1.2 1.9-1.6 3.5q-1.2 5-3.5-.6c-1.1-2.8-3.5-3.2-4.4-.8q-.6 1.4-1.3 1.1c-.7-.8-5.6 1.7-7.2 3.7s-3.1 2.1-3.1.2c0-.8-1.3-1.7-3-2.1s-3-.9-3-1.1c0-1.2 3-6.2 4.4-7.3 2.3-1.9 2-3.4-.5-2.6-1.8.6-1.9.5-.8-1.4.8-1.1 1-2.3.6-2.7-.9-1-4.5 2.4-5.3 5-.4 1.1-1.7 3.1-3 4.3-2 1.8-2.4 3.2-2.4 7.9v5.7l2.6-2.3c2.1-2.1 2.7-2.2 3.4-1 1.4 2.2 1.3 2.5-2.5 5.9-3.3 2.9-3.5 3.4-3.5 9.6v6.5l5.3-.2c2.8-.1 5.5-.6 5.8-1.1q.8-.7 2.8.5c1.9 1.1 2.4 1.1 3.6-.5 1.3-1.8 1.4-1.8 2.3 0 1 1.7 1.1 1.7 1.7 0 .9-2.1 2.5-2.3 2.5-.2 0 1.6 1.6 2 2.4.6.3-.5 2.5-.7 4.8-.4 3.3.5 4.4.2 5.5-1.2 1.2-1.8 1.3-1.8 1.3.3 0 2 .3 2.1 2 1.2q2-1.1 3.9 0c2.6 1.3 4.9.3 5.4-2.3l.4-2.2.8 2.3c.6 1.8 1 2 2.1 1.1q1.5-1.3 1.4.2c0 1.8 1.7-.1 2.2-2.6.4-1.8.6-1.7 1.6.8q2.4 5.3 3.7-.3c.8-3.7 2.5-4 2.5-.4q0 2.3 1 1.9c.5-.3 1-1.7 1-3.1 0-1.3.5-2.4 1-2.4s1 1.6 1 3.6c0 3.8 2.2 4.4 2.8.8.7-3.5 2.2-3.9 2.2-.6 0 1.8.5 3.2 1 3.2q1 .2 1 1.5c0 1.6.7 1.5-35 1.7H21c-16.2-.3-21 .1-21 1.6q0 1.4 1.6.8c.9-.3 113.4-.6 250-.6s248.4-.4 248.4-.8-15.4-1-34.1-1.1c-24.7-.1-34.8-.5-36.5-1.4-1.3-.7-3.5-2.8-4.9-4.7l-2.5-3.4 2.5-1.3c1.3-.8 2.9-2.3 3.5-3.4q2.6-4.2-5.7-5.2-7.7-.9-6.6-5.8.6-2-1-1.4-1.4.7-1 2.6c.7 2.4-.4 2.4-4.4-.1q-3.2-1.9-3-3.9t.8-2.1q.8-.2.5-1.6c0-.9 1.2-2.6 2.7-3.8 2.5-1.9 4-2.1 13-1.9 7.6.2 10.7-.1 12.4-1.2 3-2 2.9-4.3-.2-5.7q-2.1-1-1.9-2 .6-.7 1.5-.2c.5.3 6.6.8 13.5 1 12.7.4 15 0 18.4-3.5q1.3-1.4.8-.7c-.3.4-.4 1.4-.1 2.2q.3 1.3-3 2.8c-7.2 3-6.9 8.6.4 8.6 5.4 0 6.1 2 .7 2.2l-5.8.2c-1.1.1-1.5 1.4-1.6 4.9q-.2 4.8 1 4.4 1-.5.9-1.5-.2-1 1.3-.5c.9.3 3.2.6 5.3.7 5.2.1 4.4 1.9-1.4 3.1-4.6 1-5.2 1.5-7.2 5.5l-2.1 4.5 2.4.8c1.3.5 2.2 1.3 1.8 1.8q-.4.8.5.9c.9.1 1.3-1.2 1.7-2.8 1-4.7 1.2-4.9 4.4-6 2.8-1 3.2-.9 4 1.4 1.5 3.8 1.2 7.4-.5 7.4q-1.4.1-1.5 1.8 0 1.9 4 3.2c2.2.7 4.3 1 4.7.7.9-.9.9-8.5-.1-12.4l-.7-3.2 10.1.3c8.9.3 10.2.1 11-1.5q5.1-9.3-12.6-9.1c-9.8.1-10.6-.8-1.3-1.4 7.3-.5 8.9-1.2 6.5-3q-1.8-1.2-7.4-.7c-4.2.3-5.3.2-4.2-.6.8-.6 3.8-1.1 6.5-1.1q9.5 0 9.5-2.5c0-1.5-6.4-2.5-9.9-1.6-3.1.9-9.2.1-8.5-1 .3-.5 2.2-.9 4.2-.9 5.5 0 11.2-1.9 11.2-3.6 0-1.3-1.4-1.5-7.5-1.3-7.9.2-9.1-.1-8.2-2.4.4-1.1 1.6-1.2 4.9-.7 5.6.8 6.8.4 6.8-2.4 0-2.5-1.8-5.1-4-5.9-.8-.3.8-.6 3.6-.6 3.9-.1 6 .5 8.8 2.4l3.6 2.4V554.8l-10 .4c-11 .3-13.5 1.5-10.6 4.6 1.6 1.9 1.5 2-2.2 2.6-4 .6-5.8 1.9-6.4 4.6-.2 1.1.9 1.6 4.7 2 4.3.4 5 .8 5.3 2.9q.5 2.6-1.2 1.8a63 63 0 0 0-20 3.3c-1.3 1.3 1.4 4.2 3.4 3.7 2.2-.6 5.2 1.1 4.4 2.4-.3.6-2.7 1-5.3.9-6.8-.4-8.5-.1-10.5 1.3-1.8 1.3-1.8 1.5.3 3.4 1.8 1.6 4.2 2.3 11.1 2.8 8.8.7 8.8.7 8.7 3.4-.2 2.1.3 2.7 2.6 2.9 5.1.6 2.7 1.9-4.5 2.5-8.7.6-11 1.4-10.6 3.6q.3 1.6 4.2 1.9c3.8.3 3.9.4 1.4 1.6-1.3.7-6.2 1.9-10.7 2.6-9 1.4-13.6 3.9-11.3 6.1.8.8 4.4 1.4 9.5 1.6 4.5.1 9.3.6 10.7 1.1l2.4.9-2.2 1.2c-1.2.6-7.2 1.4-13.4 1.8q-17.8 1-17.8 4.7c0 1.7 1.3 2 7.1 1.7 2.1-.2 5.4.6 7.8 1.8 2.2 1.2 5.4 2.1 7 2.1 2.3 0 4.1 1.1 7.3 4.6 2.3 2.5 6.1 5.7 8.5 7.1 6.3 3.7 8.1 8.3 3.3 8.3-3.8 0-3.6 3.9.3 5.8 3.6 1.7-.5 1.4-4.8-.3-2-.9-4.5-1.3-5.5-1q-1.8.4-4.8-2a10 10 0 0 0-11.3-1.4c-1.5.8-1.9 1.9-1.7 4.2.3 2.7 0 3.2-1.7 2.9-7.5-1.2-13.5 0-13.5 2.7q.1 4.5 8 4.3c6.7-.3 8.3 1.8 3.5 4.7-1.9 1.1-3.5 2.5-3.5 3 0 1.5 5 5.1 7 5.1 2.2 0 2.8 3.3 3.2 17.5.3 8.5.1 9.9-1.2 9.6l-4-.8a7 7 0 0 1-4.2-3.4c-2.1-3.6-4.4-3.6-8.8.1q-3.4 3-6.6 3c-5.9 0-6.2-.5-5.6-7.6l.5-6.5-4.9-4.5c-9.4-8.7-10.6-9.4-17-9.5-7.7 0-16.5-1.7-18.5-3.6-.9-.8-1.5-2.2-1.2-3.2.3-1.1 0-2.2-.6-2.5-.6-.4-1.1-3-1.1-5.9 0-2.8-.4-10.1-1-16.1s-1.1-16.1-1.2-22.3c-.3-10-.1-11.2 1.4-11.7 1.4-.3 1.8-1.5 1.8-4.9q-.1-7.1 5.9-7.9a5 5 0 0 0 3.5-2c.9-1.5.2-2.6-3.7-6.6l-4.8-4.9-.2-7.9c-.1-8.3.4-9.7 5.6-17.5a26 26 0 0 1 15.1-11c4.5-1.1 4.8-1.1 7.5 1.5 2.4 2.3 3 2.5 4 1.2q1.1-1.5.6-3.7c-.6-1.9-.4-2.1 1.8-1.5 2.1.5 2.9.1 3.8-1.6l1.5-2.7c.2-.2 1.5.6 3 1.8q5.1 4.3 3.8-3.4a27 27 0 0 1 13.8-27c4.6-2.5 6.6-3 15.1-3.3 11.7-.5 17.1 1.3 24.2 8.2 5.1 4.8 8.9 13.5 7.5 17.1-.4 1.2-.4 2.8.1 3.7.8 1.5 1.2 1.5 3.6.3a9 9 0 0 1 9 .7c2.4 1.9 3.5.3 1.6-2.1-1.5-1.8-2.9-2.3-6-2.3l-4 .1-.6-4.9c-.8-6.7-2.6-9.7-8.9-15.1-6.9-5.9-12.4-8-22.5-8.6-8.9-.5-14.6.8-22.7 5.3a47 47 0 0 0-18.6 22.6c-1 3-8.2 7.2-14 8.1-9.2 1.4-24.9 12.3-26.3 18.2-.3 1.1-.5-.1-.6-2.7s.5-6.2 1.3-8c4-9.3 7.7-19.8 7.2-20.6-.3-.5.6-4.5 1.9-8.8 1.4-4.4 2.9-10.9 3.4-14.4q2.5-16.6 4.1-21.9c.5-1.8.6-4.1.1-5s-1.1-4.5-1.4-8.1a206 206 0 0 0-12.9-61.4l-9.2-28.1-.1-13c-.1-7.2-.5-15.9-.9-19.5l-.9-6.5 3.4 3.2c6.4 6 17.3 8.7 21.5 5.3q3.7-3.3-2.9-2.4c-3.2.5-5.4.1-9.1-1.7-5.4-2.5-8.1-6.2-9.2-12.3a12 12 0 0 0-2.5-5.9c-1.8-1.7-1.9-3.8-1.9-35.6 0-18.6-.3-39.2-.6-45.8l-.7-12 3.3-1.2c5-1.7 7.3-1.4 16.3 2a39 39 0 0 1 22.7 21.4c4.4 12.1 5.7 30.4 2.6 38.5l-2.3 6.7c-.5 2-.3 2.1 3.3 1.1 10.2-2.6 14.9-1.5 17.9 4.2a10 10 0 0 1 0 10c-1.6 3.1-.5 5 1.9 3.1q1.2-1 2.3 0t3.4.1c1.3-.5 3.9-.7 5.7-.5 2.5.4 3.2.2 3.2-1.1 0-1.9-4-3-8-2.2-2.8.5-3 .4-3-2.8 0-4.6-2.2-9.5-5.9-13-2.3-2.2-4.3-3-8.8-3.5-6.4-.7-6.1 0-4.5-9.9 1.1-6.5-.8-23.7-3.4-30.5a66 66 0 0 0-7.4-11.8 31 31 0 0 0-14.5-11.5c-7.4-3.7-10.1-4.5-15-4.6-3.3-.1-6.9.1-8 .3-1.8.4-2.1-.3-2.7-5.6-.4-3.3-1.4-35.7-2.3-72q-2.6-108.4-4.1-141.3L356.7 0H141.3zm34.7-2.4c2.3.4 4.3 1.1 4.3 1.7-.1 1.5 4.6 2.5 11.4 2.4 9-.1 36.8 1.1 38.7 1.7a98 98 0 0 1 27.3-3 518 518 0 0 1 48.3 2.3c.9.4 3.4 1.1 5.5 1.5 3.8.7 4.3 2.6.6 2.6-2.6 0-2.4 1.6.4 2.4 3.8 1 4.7.7 5.7-1.9s1.8-2.9 4.3-1.9q1.4.6.9 2.9c-.5 2.8-3.9 3.8-11.1 3.3-2.6-.2-4.5.2-4.8.8-.4 1.1 17.9 2.9 35 3.3 7.6.2 7.7.2 8.9-2.6 1.2-2.6 1.3-2.3 1.6 4.1.2 3.7 0 7.1-.3 7.5-1 .9-28 .7-28.3-.3-.1-.4 5.5-1 12.4-1.2 11.6-.3 16.2-1.3 15-3.3-.5-.7-34.6-.5-35.3.3-.3.2.7 2.2 2.1 4.3 4.3 6.5 6 17.3 4.1 26.9-.9 4.3-8.4 12.2-14.5 15.2-5.5 2.8-6.5 3-14 2.5q-8.1-.6-8 .5c0 1.7 3.1 3 7.8 3.5s6.9 1.7 3.1 1.7c-3.3 0-5.3 1.5-4.6 3.4Q293 86 296 86c2.6 0 3 .4 3 2.7 0 3.2.7 4.4 3.4 5.8 2.8 1.6 2 3-1.7 3.1-5.9.1-6.6.4-7.8 2.5-.8 1.7-.8 2.3.2 2.9q1.2.9 1.5 2.4c.1.9 1.9 3.2 4 5.2l3.9 3.6-2.8 2c-1.5 1.1-2.7 2.8-2.7 3.8 0 2.2 8.2 9 10.9 9q4.6 0-1.4-4.6c-4.2-3.2-4.8-5.9-1-5q2.6.8 3.2-1c.6-1.5.7-1.5 2 .1 1.1 1.6 1 2.1-.3 3.7-1.5 1.6-1.5 1.8 0 2.4 4.9 1.9 6.1-3.3 2.1-9.2-1.4-2-2.5-4.2-2.5-4.9a42 42 0 0 1 13.5-11.7q1.4 0 2.5-1.8c1.5-2.8 5.4-2.8 4.7.1-.7 2.5 1.1 3.3 4.6 2 1.5-.6 4.7-.8 7.1-.5l4.4.6.7 6.5c.6 5.7 1 6.5 3.2 7.4q2.9 1 1.5 2.1c-2.1 2.1-1.3 5.5 1.6 7.6 2.3 1.7 2.4 2.2 1.1 2.7q-1.7.6-1.1 2.7c.4 1.7.1 1.9-1.6 1.4-1.9-.6-2.6.1-5.2 5.5-3.8 8-6 10.3-11.3 11.9-2.3.7-5.1 1.6-6.2 2.1s-3.1.8-4.5.7q-2.5-.3-2.5 1.2c0 2.1 4.5 2.9 8 1.4a78 78 0 0 1 14.9-4.4q1.5 0 1.6 1c0 .5-1.3 1-3 1q-3 0-3 1.6c0 1.3 1.3 1.5 7.7 1.3q7.6-.2 8.1.9t-6.2 1.2c-3.5 0-7.6.4-9.1 1-2.3.9-2.5 1.4-1.9 4.5 2 11-14.9 16.8-21.8 7.5-1.2-1.7-2.8-3-3.5-3-1.8 0-1.6.9.7 4.8 1.1 1.8 2 3.5 2 3.8s-1.8.4-4 .2-3.8.1-3.7.7 3.1 1.1 6.7 1.2 9.1.5 12.2.9c4.8.5 6.1.3 8.5-1.4s4.3-2 11.8-1.9l9 .2v11.9c0 9.3-.3 12-1.4 12.4s-1.3-.2-.8-2.6c.5-2.3.2-3.4-1.1-4.2q-1.9-1.2-.4-1.6 1-.6.6-1.5-.6-.8-1.7-.2c-.7.4-2.5.8-4.1.8-4 0-4.4 2-.6 3.3 3 1.1 3 1.2 3 8.2 0 4.4-.6 8.2-1.5 10a20 20 0 0 1-10.7 8.5c-3.8 1-3.6 3.5.1 3.5 3.6 0 5 1.7 1.9 2.2q-2.4.2-2.1 2.5T337 230q-4.1 2.3-4-3.3c0-1.8-.4-3.8-.9-4.6-1.3-2-3-.5-2.4 2.1q.6 2.1-1.2 3.4c-2.6 1.9-3.2 1.8-4-.9q-.7-2.8-1.2-.4-1 4.5 3.1 4.7c1.4 0 3.7 1.1 5.3 2.6 2.4 2.2 2.5 2.8 1.5 4.5-1.1 1.7-1 2.6.8 5.5 1.2 1.9 2.4 3.4 2.7 3.4s1.8-1.1 3.5-2.5c3.2-2.7 7.2-3.3 8.5-1.3.4.7.9 2.8 1 4.7q.6 6.7 3.8 4.1c1.4-1.2 1.8-1.1 2.6.1.5.8.7 2.4.4 3.7q-.7 2.5 1.5 2.9 2 .5 2.1 3.2l.3 8.1c.6 10.9-1.1 12.5-6.3 6-2.5-3.1-3.9-4-6.2-4-3.8 0-3.4 2.1.6 3.2 3.3.8 4.5 2.3 4.5 5.8 0 1.5.6 3.2 1.3 3.9q1.6 1.6-1.3.5c-4.1-1.2-6.4-.7-8.8 2.3q-5.1 6.3-6.3 6.3c-1.1 0-13.6-23.1-15-27.7-.7-2.4-2.3-5-3.5-5.8a19 19 0 0 1-4.8-6.3 38 38 0 0 0-6.5-8.6c-3.8-3.7-4-4.3-3.4-8a25 25 0 0 1 1.8-6.6c.6-1.4 1.1-3.9 1-5.5-.1-2.4-.6-3-2.4-3-1.2 0-2.5-.5-2.9-1.1s-2.7-1.4-5.2-1.8a126 126 0 0 1-22.9-8.5c-2.1-1.1-2.5-3.1-.7-3.1q1.5-.1 1.6-1.6c0-.9 1-2.4 2.3-3.4 2-1.7 2.1-1.9.4-2.6q-1.8-.6-4.1 1.5c-2.1 2-2.4 2-3 .5-.9-2.4 1.2-4.4 4.5-4.4s4.8-1.8 2.8-3.1a11 11 0 0 0-4.6-.9q-3.4 0-3.3-1.5c0-2 2.8-3.1 4.3-1.6.6.6 2.8 1.1 4.8 1.1 4 0 5.9 1.4 3.4 2.4s-3.9 5.7-2.1 7.4c1.6 1.6 3.8.8 3-1.2-.3-.7.1-1.8.9-2.4 1.1-.9 2.2-.8 4.8.5 5.5 2.7 9.1 8.3 5.4 8.3-2.1 0-3.1 3-1.4 4.1 2.7 1.7 5.8.9 8.1-2.1 2.6-3.5 4.3-3.9 3.5-.8-1.3 4.8 5 6.7 7.8 2.4 1.4-2.1 1.4-2.6-.7-6.5-1.2-2.2-2.5-4.1-3-4.1q-.7-.2-.8-2.5c0-3 1.6-3.3 2.3-.5q.5 2 2.2 1.4 1.6-.6 3.1 1.4c.8 1.2 2.1 1.9 2.9 1.6 1.7-.7 2 1.7.5 3.2-1.6 1.6.5 6.3 4.8 10.6 2 2.1 4 3.8 4.4 3.8 1.7 0 .7-3-1.7-4.8-2.9-2.3-3.2-5.7-.9-9 1.2-1.7 1.3-2.6.4-3.7-1.4-1.6.1-2.7 2-1.4q3 2 3-.5c0-.8-1.3-1.7-3-2.1s-3-1-3-1.5c0-1.1 4.9-1.9 5.6-.9.8 1.4 2.6 1.1 2.2-.4-.3-.6-2-1.7-3.9-2.4l-3.4-1.1 2.9-.7q2.8-.7 4.9.4c2.6 1.7 4.6-.1 2.7-2.4-1-1.3-.9-1.5.8-1.5a3 3 0 0 1 2.6 1.5c.8 2.2 2.6 1.9 2.6-.4 0-1.1.5-2.3 1-2.6 2.8-1.7-1-2.5-9.8-2-5.3.2-13.1.1-17.2-.3-6.8-.6-7.5-.9-7.8-3-.3-2-.7-2.2-3.7-1.6-4.2.7-6.1-.2-4.4-2.2.6-.8 2-1.4 3-1.4q1.9-.2 3.1-2.5c.9-2 .8-2.8-.5-4.3-2.1-2.3-1.2-3.5 1.4-1.9 1 .6 2.1.8 2.5.4.6-.6-1.4-6.7-2.3-6.7s-7 4.7-11 8.4c-3.6 3.4-4.5 3.8-7.5 3.2l-6.7-1.3c-2.5-.4-3.6-1.3-4.6-3.8-.8-1.7-2.1-3.7-2.9-4.5q-3.4-2.7.9-9.5c2.9-4.7 3-6.2 1-11.3-1.7-4.1-8.2-8.6-11-7.6q-1.4.5-1.5-.5-.1-1.1-1.6-1.8c-2.2-.8-8.3-7.5-8.4-9.1 0-.7-1-1.7-2.2-2.1-2.3-.9-2.2-.9.5-1.6q2.8-.7 2.3-2.2t1.4-2c2.1-.6 2.7-3.7.9-4.9q-1.1-.4-2.2.5c-.6.6-2.6 1.1-4.4 1.1-3.2 0-3.3.2-2.9 3.2l.6 4.3c1.2 5.4-2.2 8-5.4 4.1-3.2-3.7-5.8-4.6-14.1-4.6-8.1 0-12.3 1.3-17 5.2a17 17 0 0 1-7.4 3.1c-2.7.3-5.7 1.7-8.1 3.6q-6.5 5.4-4.1-2.6c1.1-3.9.1-6.3-2.5-6.3-1.9 0-1.8-2.9.1-3.6q1.3-.7 1.5-2c0-1.7-4.1-1.9-5.8-.2-1.4 1.4-1.6 5.4-.3 6.3 1.7 1 4.2 7 3.1 7.3-1.5.5-1.2 3.3.7 5.4q1.5 1.7 1.1 2.3c-.3.3-3.1 1-6.4 1.6-6.4 1.2-9.1 2.9-9.6 6.3q-.3 2-2.2 2.1-5.1 0 1.8 5.8c4.5 3.7 6.6 8.1 8.1 16.9.5 3.5.4 3.8-1.8 3.8-1.3 0-3.2.7-4.3 1.5s-3.5 1.4-5.4 1.5c-4 0-10-3.2-10-5.4s-3-4.8-4.4-3.7q-1.2.8-3.6-.1l-2.5-.9 2.5-1.9c2.4-1.9 2.3-2.2-.9-2.4q-1.3-.2-1.9-1.5c-.4-1.1.4-1.3 3.6-.8 4.6.6 6.9-1.1 5.7-4-2.3-5.2-.6-7.3 5.5-7.3 3.5 0 3.7-1.8.3-3.5-1.2-.6-2.8-1.7-3.7-2.4s-2.3-1-3.2-.7-3.6-.5-6.1-1.9a22 22 0 0 0-5.9-2.5q-2.6.1.1-3.4a8 8 0 0 0-.1-9q-1.5-2.4-.5-3.1c.6-.3 1.1-2.4 1.1-4.6 0-2.9-.4-3.9-1.6-3.9q-1.5 0-1.1-1.5.5-1.4-.3-2c-2.1-1.3-.9-2.7 1.6-2.1 2.6.7 3.5.2 8.2-4.7.9-.9 2.2-1.7 3-1.7 1.9 0 2.5-2.5 1.2-4.9-1-2-.8-2.1 2.7-2 4.2.1 14.5 1.6 12.6 1.8q-1.2.1-1.3 1.1c0 1.6 4.7 1.2 5.4-.5.9-2.4 2.4-1.7 2.8 1.1.2 1.5 1.2 3.2 2.3 3.8q3.6 1.9 6.5 8c1.7 3.5 2.8 3.8 4.3 1.5.8-1.3.5-2.3-1-4.3-2.6-3.2-1.8-8.9 1.2-9.4q2.7-.6.3.8c-1 .6-1.8 1.6-1.8 2.1q.1 1 1.8.5c.9-.3 2.4-.1 3.2.4 1.2.8 1.2 1-.3 1.6-2.7 1-2 2.7.9 2 2.2-.6 2.5-.4 2.2 1.6-.2 1.9.2 2.3 2.2 2.3 2.2 0 2.5-.4 2.3-3.5-.1-2.1-.9-4.1-2.2-5.1-1.2-1-2.1-2.7-2.1-3.8 0-1.6.6-2.1 2.8-2.1 4 0 5.6-1.9 3.5-4.2-.9-1-2.4-1.8-3.4-1.8q-3.4-.2-1.9-2.9.8-1.4 3.9-.9c3 .4 4.4-1.3 2.1-2.7-1.5-.9-1.2-2.5.5-2.5.9 0 2.9.7 4.5 1.5l3 1.5-2.1 2.1c-1.6 1.6-2 3-1.6 5.8.2 2.1.7 4.4 1.2 5q.5 1.2-1.1 2.6c-1.8 1.3-1.7 1.4.8 2.5 3.1 1.4 5.8.8 5.8-1.4 0-.8 1.1-2.7 2.4-4.1 1.9-2 2.9-2.4 4.2-1.7q1.7.9.5 1.6C222 95.7 223 97 226 97s4-1.3 2-2.5q-1.2-.7.1-2.1c.9-1.1.6-1.5-1.2-2.2-5.6-2.1-5.5-2-3.7-2.1.9-.1 2.1-.8 2.6-1.7 1.3-2.4 5.6 0 4.9 2.7q-1.2 3.5 7.1 3.8c6.9.2 8.4 1.7 2.3 2.3-6 .6-6.9 1.2-5.1 3.3 1.4 1.7 4 2 4 .5q.2-1 1.5-1 1.5 0 2.1 4c.5 3.1 1.4 4.5 4 6.1 3.6 2.2 4.8 1.9 7.8-1.8 1.7-2.3 1.9-2.3 3.1-.6s1.5 1.7 4.2-.3c3.9-2.9 3.7-5-.4-4.6-3.1.2-3.3 0-3.3-2.8 0-2.9.1-3 5-3q5 0 5.8 1.7c.5.9 2.2 1.7 3.8 1.8 1.6 0 4 .5 5.3.9 2.1.7 2.3.6 1.8-1.3-.6-2.4-.3-2.5 2.3-1.1 3 1.6 3.3-.6.4-2.9-2.4-1.9-4-2.1-16-2.1-11.2 0-13.4.2-13.4 1.5 0 2.3-1.7 1.8-2.3-.7-.8-2.7 1-4 4.3-3.2 3.1.7 25.8.6 27.1-.2q.9-.3 1.9 2c.5 1.4 1.4 2.6 1.9 2.6 2.8 0 2.3-12-.6-15.2-1-1.1-1.7-3.9-1.9-7.1-.1-2.8-.5-6-.9-7-1.4-3.6 0-4.6 5.8-4 4.9.5 5.5.3 5.9-1.5.5-1.6 1.5-2.1 4.9-2.4 2.4-.2 4.4-.9 4.7-1.6.3-1-.8-1.3-4.9-1.1-3.1.2-5.3-.1-5.1-.6.1-.6 2.2-.9 4.6-.7 4.4.4 8.6-1 8.6-2.8 0-.6-2.7-1-6.1-1-4.4 0-6-.3-5.7-1.3.6-1.6 8.9-2.8 10.6-1.4s3.2-.7 3.2-4.3q0-8.4-6.9-15.1c-4.2-4.1-5.5-4.7-11.1-5.5-5.9-.8-6.4-1.1-7.2-3.8q-1.4-5.5 2-2.3c2.3 2.1 6.8 2.2 7.9.2q.9-1.4 7.1-1.7 9.4-.3 6.1-2.4c-2.4-1.4-47.9-2.3-48-.9q0 1.8 14.4 3.1c11.2 1 6.5 2.3-6.3 1.8-10-.5-12-.3-12 .9 0 1 2 1.6 7.7 2.1 4.2.3 8.2 1.1 8.8 1.7 1.6 1.7-13.4.4-17.1-1.5-2.4-1.2-7.5-1.6-25.3-1.9a205 205 0 0 0-22.7.4c-.8 1.4 2.1 2.3 7.8 2.5 6.8.3 8.4 1 6.8 2.9-1.8 2.2-.2 3.7 3.1 3q4.7-1.2 1.6 2.9c-1.2 1.6-1.4 1.6-2.6.2A5 5 0 0 0 220 27c-.9 0-2.7-.9-4-2-1.7-1.5-3.7-2-8-2-7.2 0-11.3 1.4-17.2 5.8-5.5 4.2-6.2 7-2.2 9.9 2.5 1.8 2.5 1.9.3 2-4.8.4-3.3 3.3 1.7 3.3 1.9 0 3.4.4 3.4 1s-1.3 1-2.9 1c-2.7 0-4.9 1.5-3.9 2.6.3.2 4.9.6 10.3.9s10 .7 10.2.9c.3.2-2.6.7-6.4 1.1-8.7.8-12.5 1.7-13.1 3.3q-.3 1.2 3.1 1.2c3 0 3.4.3 3 2q-.7 2.2 1.8 2a5 5 0 0 1 3.7 2c1.7 2.8 10.2 2.9 10.2.1s3.3-3.2 6.7-1 3.6 4.3.5 4.7q-2.2.4-1.9 1.6c.3.7-.3 2.3-1.3 3.7-1.8 2.3-2.3 2.4-13.2 2.3-18.8-.3-25.5-4-30.5-17.1-2.8-7.2-2.8-10.9-.3-17.4 1-2.9 1.8-5.5 1.6-5.8s-3.2-.6-6.5-.6c-3.4.1-6.1-.2-6.1-.6s2.9-1.1 6.5-1.4q9-1 5.5-3c-1.8-1.1 0-2.5 3.1-2.5 3.3 0 3.9-1.6.8-2.5-3.9-1.3-1.2-2.8 5.6-3.2 7.4-.4 8-.6 7.1-2.1-.4-.7-7.3-.8-18.4-.6-13.4.4-17.3.2-15.9-.6 2.5-1.6 33.2-3.3 35.7-2a42 42 0 0 0 18 0c5.6-3.5-10.4-4.7-41-3-9.6.6-17.8 1.4-18.4 2q-.8 1 .4 2.5c1.2 1.5 1.1 1.6-2.2 1.9-.7.1-1.3-1.6-1.4-4l-.2-4.1 14.7-.7c8.1-.4 15.5-.4 16.4 0q1.6.4 1.7-.5c0-1.8-4.6-3.1-10.6-3.1-3 0-5.4-.5-5.4-1 0-1.1 8.2-1.2 14.8-.2m-28.1.8q-.7.5-1.9.1t.6-.6q1.8 0 1.3.5M309 5q0 .9-.9 1-1-.1-1.6-1-.4-1 .9-1 1.5 0 1.6 1m21.4.5c1.1.8 3.4 1.5 5.2 1.5 2.9 0 3.3.4 4.1 3.7s1.3 3.9 4.3 4.3c1.8.3 3.5 1 3.7 1.6.4 1.2-17.8 2.6-20.4 1.6-2.8-.9.1-2.2 3.7-1.6l3.8.6-.1-3.8c-.1-4.8-.9-5.4-7.3-5.4-5.6 0-6.9-.7-5.3-2.7 1.5-1.7 5.9-1.6 8.3.2m22.3.1c.2.5-2.6 1-6.2 1-6 .2-7.5-.3-5.9-1.9 1-.9 11.8-.1 12.1.9m.3 7.6q.1 2.7-1 .8-2-3 0-3 1 .2 1 2.2M157.5 21q.4.9-.4 1-1-.1-1.1-1 0-1 .4-1 .6 0 1.1 1m13 0c.4.6-1.1 1-3.7 1q-4.6 0-2.8-1c2-1.3 5.7-1.3 6.5 0m111 0q-.6.9-2 1c-1.4.1-1.7-.5-2-1q-.4-1 2-1c2.4 0 2.4.4 2 1m-54.2.7c-.7.2-1.9.2-2.5 0q-1-.5 1.2-.5c2.2 0 1.9.2 1.3.5m13.3 3.3q1.3.1 1.4.8c0 .5-1.9.7-4.2.6-6.6-.2-7.6-.6-4.3-1.4a12 12 0 0 1 4.3-.4zm24.4 0q-.1.9-1.6 1c-.9 0-2.3.8-3 1.7-1.6 2.2-2.8 1.2-1.9-1.6q.5-2.2 3.6-2.1c1.6 0 2.9.4 2.9 1m-118 1q1.9 1.1-.7 1-2.1-.1-2.3-1 0-2 3 0m8 .6c0 .2-1.2.4-2.6.4q-2.3 0-2-.9c.6-.8 4.6-.4 4.6.5m97.3-.9q.4 1-.2 2.6c-.6 1.6-.8 1.6-2.9.2q-2-1.5-2.2-2.6c0-1.1 4.7-1.2 5.3-.2m-91.6.9q-.7.5-1.9.1t.6-.6q1.8 0 1.3.5m45.3 3.6q-.1.9-1.6.4c-.9-.3-2.1-.6-2.7-.6q-1.1 0 .2-.9c1.6-1 4.1-.4 4.1 1.1m72.5-1.2c-3.8 1.4-9.5 2.1-9.5 1.1 0-1.2 2.2-1.7 7.5-1.8q4.2-.2 2 .7m14.5.9c0 1-5 1.9-6.8 1.3-2.7-.9-.9-2.2 2.8-2.2 2.2 0 4 .4 4 .9m-79.3.7q-.6.5-1.9.1-1.1-.5.6-.6t1.3.5m21.3.4q0 .9-.9 1-1-.1-1.6-1-.4-1 .9-1 1.5 0 1.6 1m-79 .9c0 .5-2.5.9-5.5 1s-5.5-.4-5.5-.9 2.5-1 5.5-1 5.5.4 5.5.9m97.4.7c.9 2.2-.3 3.2-1.4 1.4q-1.8-3-.1-3 .9.1 1.5 1.6m-144.1 5.6c.3 2.9 1.2 8.2 2.1 11.8l3.6 17.5c1.2 6 3 14.2 4.1 18.2 1 3.9 1.9 8.4 1.9 10s.9 6.1 2 10.1c1.1 3.9 2 9.3 2 11.9 0 4.9.9 9.6 3.4 19.3.8 3 3.1 14.5 5.1 25.5s4.3 22.9 5.1 26.5 1.9 10.1 2.5 14.5 2.1 13.4 3.4 20 2.9 16.3 3.5 21.5 3 18 5.2 28.5c4.3 20.9 9.2 48 11.1 62 .7 5 1.6 9.5 2 10.2 1.2 1.9-.3 4.2-3.5 4.8-3.7.8-3.8.7-4.9-5-.5-2.5-1.5-6.1-2.3-7.8s-2.2-9.1-3.1-16.2a511 511 0 0 0-7.4-46.3c-1.7-8.3-3.8-19.4-4.6-24.5l-2.3-13.2c-1.7-7.8-9.1-49.2-10.7-60-3.2-21.1-3.6-24-4.5-31.4-.6-4.1-1.4-8.8-2-10.5-.5-1.7-1.6-8.1-2.5-14.1-2.4-16.9-5.9-37-11.5-66-1.9-9.9-2.3-16.2-1-19.9q2.3-7.1 3.3 2.6m6.7 1.2c0 1.7 1 5.1 2.1 7.6 1.9 4 7.6 24.3 10.1 36l4.3 19a341 341 0 0 1 5.5 29l2.5 11.5 4.1 18.5c1.3 5.8 3 15.2 3.8 21 3.5 25 7.5 47.7 10.5 60 2 7.8 3.3 14.1 5.5 26.5 5.4 29.3 7.7 41 10.9 56.5 1.4 6.3 2.8 14 3.1 17.1l.7 5.7-3.7.6c-2 .4-4 .4-4.4-.1-1-1-4.7-19-5.6-26.8-.3-3.3-1-7.4-1.5-9-.5-1.7-1.5-7.5-2.4-13a414 414 0 0 0-6-33c-1.3-6.1-2.9-15.3-3.5-20.5s-1.8-12.4-2.5-16c-.8-3.6-2.1-11-2.9-16.5-2.4-15.2-6.5-37.7-9.1-50.5a418 418 0 0 1-6-34 565 565 0 0 0-8-43.5c-1.3-5.5-2.7-12-3-14.5-.4-2.5-2-9.8-3.6-16.3s-3.2-14.1-3.5-17c-.5-4.8-.4-5.1 1-3.3a9 9 0 0 1 1.6 5m166.4-4.9c5.1 1 7 3.6 7 10 .1 4.6-.3 5.8-2.9 8.5-3.9 4.2-6.9 5.6-13.2 6.4-5 .6-5.2.5-7-2.4a9 9 0 0 0-8.5-4.2q-4.2.3-1-5.7 2-3.8 1.1-5.2c-1.3-2.1-1.1-3.3.5-2 1.1.9 2.4.5 5.9-2 4.3-3 10.7-5.1 13.4-4.3zm16.6.5c0 1.1-4.8 2.2-6.2 1.4q-.8-.7 1.8-1.9 4.4-1.9 4.4.5m-94 .1q1.8 1-4.7.6c-3.5-.2-6.6-.7-7-1-1.1-1.1 10.1-.8 11.7.4m31.9 1.8q3 2.1 3.6 1.1c1.3-2 2.7.3 2.1 3.4-.5 2.5-.2 3.7 1.4 5.1 1.1 1 2 3.1 2 4.7 0 2.4-.4 2.8-2.6 2.8a11 11 0 0 0-5.5 2.4 20 20 0 0 1-4 2.8c-2 .7 0 2.8 2.5 2.8 1.3 0 3.5-.9 5-2.1 4.5-3.6 5.6-2.1 5.6 7.8 0 8.6-.1 8.9-3.5 12.5-3 3.3-4 3.8-8 3.8-3.9 0-5.2-.5-7.7-3-2.6-2.7-3-3.6-2.5-6.8q.6-3.7 4.3-6.8 8.1-6.9-2.7-6.9c-9.1 0-11.9-2.8-13.3-13-.6-4.3-.4-5.5 1.5-7.9 1.2-1.6 3.6-3.5 5.3-4.2 4.2-2 12.8-1.1 16.5 1.5M354.3 43q.8 7.2-.3 8.5c-1.4 1.7-20.2 1.3-20.8-.4q-.6-1.1 5.6-.5c6.4.7 13.2-.9 13.2-3 0-1-2.7-1.3-11.2-1.2-9.9.1-11.3-.1-11.6-1.6s.9-1.8 10.5-2c8.8-.2 10.8-.6 10.8-1.8s-1.9-1.5-10.7-1.5a36 36 0 0 1-11.9-1.2c-1.7-1.7.2-2.2 10.5-2.7 5.3-.2 9.9-.6 10.2-.9s1.6-.2 2.7.2c1.9.7 2.3 2 3 8.1m-141.8-7q-.6.8-2 .3-3.2-1.2.6-1.3 1.8 0 1.4 1m-12.4 3.9q-1.4.8-2.8.4-3-1.2 1.5-1.3 2.9 0 1.3.9M303 41.1c0 .5-2.1.9-4.7.9-5.1 0-5-1.6.2-2.2 3.4-.4 4.5-.1 4.5 1.3m-95.7-.4c-.7.2-1.9.2-2.5 0q-1-.5 1.2-.5c2.2 0 1.9.2 1.3.5M150 42q-.2.9-2 1c-1.8.1-2-.5-2-1q.2-1 2-1c1.8 0 2 .4 2 1m54.5 3q.5.9-4.2.9c-4.7-.2-4.7-.2-1.3-.9l4.2-.9q.7 0 1.3.9m-41.9 1.9a45 45 0 0 1-16 1.5c-3.5-1.4 0-2.4 8-2.4 4.7 0 8.3.4 8 .9m-1.1 6.1c-.3.5-1.9 1-3.5 1s-3.2-.5-3.5-1q-.4-1 3.5-1c3.9 0 3.9.4 3.5 1m46 3c-2.8 1.2-6.7 1.2-6 0 .3-.6 2.3-1 4.3-.9 3 0 3.3.2 1.7.9m57 4.6c2.2 1.8 5.8 4 8 5 3.9 1.9 4 2 4 7.4 0 5.1-.2 5.6-3.4 7.7-5 3.4-7.8 3-12.1-1.7-4.1-4.4-5-7.6-5-17.7 0-6.1 0-6.2 2.3-5 1.3.7 4.1 2.6 6.2 4.3M252 57q0 .9-.4 1-.6-.1-1.1-1-.4-1 .4-1 1 0 1.1 1m96.5 0q.4 1-2.2 1l-11.3.6q-8.6.7-7.5-.4c1.5-1.5 4.2-2 12.7-2.1 4.2 0 8 .3 8.3.9M149 58q-.2.9-2 1c-1.8.1-2-.5-2-1q.2-1 2-1c1.8 0 2 .4 2 1m14.5-.1c-.6 1.1-12 .9-13.1-.2-.4-.4 2.5-.7 6.5-.7 4.2 0 7 .4 6.6.9m89.4 12c1.1 9.6.9 11.3-1 9.4-1-1-1.9-16.8-1.1-19.2.8-2 1-1.1 2.1 9.8M355 61.5q-.1 1.3-1.5 1.5c-2.6 0-1.8-2 1.3-2.9q.2 0 .2 1.4m-190.3 2c.2.6-3.4 1.1-9 1.2-9.7.2-12.2-.2-11.3-1.5.7-1.2 20-.9 20.3.3m177.1-.3c-5.3 1.1-5.8 2-2.7 4.1 2 1.4 1.9 1.5-1.8 1.4-3.5-.2-3.8-.4-4.1-3.5l-.3-3.2 6.8.1 6.8.1zm13.4 6.2c.3 1.4.2 2.9-.1 3.4s-5.8 1-12.1 1.2c-25.7.7-24.9.8-22.9-1.6 1-1.2 3.7-1.3 15.5-.8 15.1.7 18.4.3 16.5-2-1.2-1.4-.5-2.6 1.5-2.6.6 0 1.4 1.1 1.6 2.4m-185.4-.1q1 1 1.2 1.7c0 .4-5.9.7-13 .7-7.2 0-13.3.3-13.6.6q-.5.6.1 1.7t8 .7c8.2-.6 27.8.8 29.8 2q3.7 2.1-21.5 1.5c-12.3-.3-16.8-.1-16.8.7 0 1.9 1.5 2 23.8 2.5 11.8.2 21.6.7 21.9 1 1.4 1.4-6.4 1.8-24.6 1.2-16.7-.5-20-.4-21.1.8-.6.8-.9 2.4-.5 3.5.3 1 .1 2.2-.5 2.6-1.1.7-1.4-12.4-.4-18.7l.7-3.8 12.6.2c6.9 0 13.2.5 13.9 1.1M356 84.5V94l-.1 2.5-1.6-2.3c-1.3-1.9-2.4-2.2-8.1-2.2-4.7 0-7.1.5-8.4 1.6-1.6 1.6-1.8 1.6-2.4 0-.5-1.2-2-1.6-6.3-1.6l-5.6-.1 2.4-2q2.4-2 7-1.9c2.5.1 8.4-.2 13-.6 6.4-.5 8.1-1 7-1.8-.8-.6-1.9-2-2.5-3.1-.8-1.4-2.6-2.2-6.5-2.7-8.1-.9-15.9-.9-15.9.1q-.2 2 8.8 2.2c3.1.1 7.1.4 8.7.8 5.9 1.3-.5 2.1-20.6 2.7-19.8.5-19.9.5-19.9-1.6s.2-2.2 9.4-1.5c6.7.5 9.5.4 10.1-.5 1.1-1.8.1-2.2-6.2-2.3-3.2-.1-5.8-.7-5.8-1.2s7.3-1.1 19.5-1.3c10.7-.1 20.2-.4 21-.5 2.5-.6 2.9.5 3 7.8m-132-2c1.1 1.3.8 1.5-1.3 1.5-2.8 0-4.4-1.5-2.5-2.3 2.1-.9 2.5-.8 3.8.8m37.7 2.8c-.3 1.1-7.3 1.8-9.9 1.1-3.9-1.1-1.5-2.4 4.2-2.2 3.3.1 5.9.6 5.7 1.1m19.9-.3c4.4 0 2.5 1.7-2.1 1.8q-6.2.2-3.8-2.2.8-.5 2.1-.1c.7.3 2.5.5 3.8.5m39.9 4.9c.9 1.5-.7 2-8.4 2.7q-7.3.8-7.1-.5c0-.6 1.5-1.1 3.3-1.1s3.9-.5 4.7-1c1.9-1.2 6.7-1.3 7.5-.1m-177.7 4.8c-.2 1.4.5 1.9 3.5 2.1 2 .2 3.7.6 3.7 1 0 1.3-3.9 3.2-4.5 2.2-.3-.6-1.8-1-3.2-1q-2.8.1-1.9-1.6c.3-.9.6-2.2.6-3q.1-1.3 1-1.4 1 .2.8 1.7m9.2-.7c0 .5-1.3 1-3 1s-3-.5-3-1 1.4-1 3-1 3 .4 3 1m159 6q-.1.9-2.1 1-1.7-.1-1.4-1c.3-.6 1.3-1 2.1-1s1.4.4 1.4 1m-11.6 1.6c.4.9.4 1.9.2 2.1-.8.8-2.6-.8-2.6-2.3 0-1.9 1.6-1.8 2.4.2m-154.6.6q-.6 1.2-2.3 1.3c-1 0-2-.6-2.2-1.3q-.4-1.1 2.2-1.2t2.3 1.2m163.2 2.6c0 1.4-4.6 5.3-5.3 4.5-1.2-1.1-.8-2.3.8-2.3q1.5-.2 2.1-1.5c.6-1.6 2.4-2.1 2.4-.7m-2.1 8.5q1 1.4.4 2c-.7.8-3.3-1.1-3.3-2.4s1.6-1.1 2.9.4m-71 10q4.4 2.3 6 5.4c1.9 3.8 2.4 4 5.1 1.3a7 7 0 0 1 4-2c2.5 0 6 3.4 6 5.8 0 1 .5 2.3 1.1 2.9 1.2 1.2-.4 5.3-2.2 5.3a35 35 0 0 1-6.6-2.7c-4.5-2.1-6.2-2.4-8.2-1.6-3.9 1.4-10 .4-11.2-1.8-1.4-2.7-4.6-2.4-7.4.7-2.2 2.3-3.2 2.6-8.5 2.5a16 16 0 0 0-11 3c-2.8 1.7-5.7 2.8-6.5 2.5-1.8-.6-1.9-4.1-.4-8.5 1.2-3.5 2.9-4.2 2.9-1.1 0 1 .9 2.4 1.9 3 2.5 1.3 3.3 1.3 5.5-.3 1.4-1 1.5-1.8.7-4-1-2.6-.9-2.7 1.3-2.1 2 .5 2.7 0 4-2.4 2.8-5.4 7-7.5 16.6-8 1.4-.1 4.5.8 6.9 2.1m119.6 9.7q.4.9-.4 1-1-.1-1.1-1 0-1 .4-1 .6 0 1.1 1m.8 5.5c-.4 1.5-3.6 1.2-4.1-.3q-.5-1.4 1.9-1 2.2.3 2.2 1.3m-88.3 3.9c0 1.4.9 3.1 2.1 3.9 1.8 1.3 1.9 1.8.7 3.6-1.7 2.8-2.9 2.7-6.2-.8-2.7-2.8-2.7-3-1.2-6 2-3.7 4.6-4.1 4.6-.7m-77.5 2.3c1.4 1.5 2.5 3.1 2.5 3.5 0 1.1-6.1 7.8-7.1 7.8q-.8-.2-.9-2 0-2-2-2c-2.6 0-2.5-1.3.2-2.5 2.8-1.3 3.2-2.6 1.4-5-1.2-1.6-1.7-1.8-2.7-.8-.7.7-1.9 1.3-2.7 1.3q-1.7.1-.2-1.5c2.2-2.6 8.5-1.9 11.5 1.2m161-.7q.4.9-.9 1-1.5-.1-1.6-1 0-1 .9-1t1.6 1m5 0q-.6.9-1.6 1-.8-.1-.9-1 .1-1 1.6-1 1.3 0 .9 1m-201 1.5c0 .5-2.1 1.1-4.7 1.3-3.9.3-4.8 0-4.8-1.3s.9-1.6 4.8-1.3c2.6.2 4.7.7 4.7 1.3m74.2.6 2.8 1-2.4 1.8-2.4 1.9 2.1 1.1c2.3 1.2 2.9 3.6 1.2 4.6-.6.3-1.8-.1-2.7-1-1.6-1.6-1.7-1.6-3 0-1 1.5-1.5 1.6-2.8.5q-3.2-2.9 1-3c3 0 3.2-1.5.5-3.2-4.9-3.1-.4-6 5.7-3.7m18.3-.4q-.1 1-1 2.3-.9 1.6-2.1.3c-.6-.6-.8-1.6-.5-2.2.8-1.2 3.6-1.5 3.6-.4m7.8 2.3q.4 1.3-.3.8c-1.3-1.3-3.3 1.1-2.8 3.2.5 1.8.2 1.9-1.8 1.2-1.3-.5-2.5-1.5-2.7-2.2q-.4-1.1.7-.6 1 .5 2.1-1.9c1.1-2.8 4-3.1 4.8-.5m-14.3 1q.4.9-1.5 1-2.4-.2-1.5 2 .6 1.8-.4 2c-1.2 0-1.4-2-.5-4.4.7-1.8 3-2.1 3.9-.6m-38.5 2.6q1.1 2.5 2.4 2.1 1.4-.4 2.8 1c1.2 1.5 1 1.5-1.7.8-1.6-.5-4.9-.9-7.2-1-4.8 0-5.2-.6-2.3-3.5q4.2-4 6 .6m10.8-.4q2.6 2.4-.8 3.1-2 .5-2-.9-.2-1.3-1.5-1.4c-1.3-.1-1.5-.5-1.5-1 0-1.4 4.3-1.3 5.8.2m-59 3.5q.3 1.3-3.2 1.3c-3.7 0-4.9-1.5-1.8-2.3q4-1 5 1m88.3 1.1c-.7.2-1.8-.1-2.3-.6q-1.2-1.2 1.3-.5 2 .6 1 1.1m105.4 3.2c.4.6-.5 1-1.9 1s-2.6-.5-2.6-1 .9-1 1.9-1c1.1 0 2.3.4 2.6 1m-84.7 5.4 3.7.2.3 5.2c.2 2.9.1 5.2-.2 5.2s-2.5-1.1-4.8-2.5c-10-6-9.9-5.9-30.5-5.8-22.5.2-30.9 1.6-39.3 6.8-6.2 3.8-7.4 3.3-6.8-3.3.3-3.2.6-3.7 2.9-3.7 1.4-.1 3.8-.9 5.2-1.8s3.6-1.7 4.7-1.7 3-.5 4.1-1.1q2-1 4.7-.1c1.5.5 3.6.6 4.6.2 1.1-.3 5-.1 8.7.5 5.3.9 7.2.9 9.1-.1 1.2-.7 4.3-1.4 6.8-1.4 2.5-.1 6.5-.5 9-.9 3.7-.5 5.4-.2 9.3 1.8 2.6 1.3 6.4 2.5 8.5 2.5m93.2-1.5c0 .4-2.2 1.1-4.8 1.4l-6.1.9q-1.2.2-1.8-.9-.2-1 1.9-1.6c4.2-.8 10.8-.7 10.8.2m-.2 5.3c-.5 1.5-10.8 2.4-10.8.9q.2-1.5 8.3-2 2.8 0 2.5 1.1m-13.7 2.1c-1.3 1.3-2.6.3-1.6-1.2q.6-1 1.7-.5 1 .6-.1 1.7m-188.1.5c0 1.3-1.2 2.2-2.2 1.6s-.1-2.4 1.3-2.4q.8.1.9.8m90.2 2c.9.7 2.1 3.4 2.8 6s1.9 6.9 2.8 9.5c1.9 6 1.1 13.1-1.7 16.1a38 38 0 0 0-6.1 16.7c0 3.3-4.4 7.4-9 8.4-3.5.8-14.6-1.8-19.5-4.5q-2.8-1.7-3.4-4.1a51 51 0 0 0-8.1-16.7c-2.2-2.3-2.2-2.5-1-13 1.5-13.1 2.8-17.3 5.8-18.8 3.3-1.6 35.4-1.3 37.4.4m-83.8 3.8c.9 2.2.8 2.4-.9 2.4q-1.3-.2-1.5-2c0-2.4 1.5-2.7 2.4-.4m-7.1 2q-.6 1.5-1.5.6c-1.2-1.2-.1-3.5 1.2-2.7.5.3.6 1.3.3 2.1m130.2-1.7q2.7.9-1.5 1.3c-3.9.6-4.5.4-3.5-1.1q.9-1.9 5-.2m5.5 1.1q0 .9-.4 1-.6-.1-1.1-1-.4-1 .4-1 1 0 1.1 1m-16.2 1.1c-1.1.6-1.8 2.2-1.8 3.9s-.4 3-1 3c-1.3 0-1.3-2.3.2-5.5.6-1.4 1.8-2.5 2.7-2.5 1.4.1 1.3.2-.1 1.1M169 181.5c1 1.2.8 1.6-1.5 2.5-1.4.5-4.9 1-7.6 1-4.6 0-5 .2-4.4 2q.6 1.8-.4 2c-1.3 0-2.6-4.8-1.6-5.8.5-.6 9.3-2.6 13.1-3.1.6 0 1.7.6 2.4 1.4m119.4 6.7c2.1 3 .7 4.7-1.6 1.9a9 9 0 0 1-1.8-3.2c0-1.6 1.9-.9 3.4 1.3m33.8-.4c-1.9.6-1.4 2.2.9 3 1.8.7 1.9 1 .6 2-1.1 1-1.9.8-4-.8-3-2.4-10.3-2.7-13.2-.7-1.5 1.2-2.1 1.1-3.7-.5-1-1-1.8-2.1-1.8-2.4s3.1-.3 6.9.1c5.2.5 7.6.3 9.7-.8 1.6-.8 3.5-1.2 4.3-.9q1.5.6.3 1m-152.2.7c-1 1.2-.8 1.6 1.5 2.5 2.7 1 2.7 1.1 1 3s-1.8 1.9-5.6-.1c-3.9-1.9-3.9-2-2.3-4.4a5 5 0 0 1 4.1-2.5c2.1 0 2.3.2 1.3 1.5m-10 .5q0 .9-.9 1-1-.1-1.6-1-.4-1 .9-1 1.5 0 1.6 1m140.4 2.6q.5 1.3-.4.9-1-.6-1-1.6.2-2 1.4.7m-143.9 1.3q.4.9-.5 1.6-.9.4-1-.9 0-2.7 1.5-.7m141.9 2.7c1.1 2.9.7 6.4-.9 6.4q-1.4 0-1.5-2.4c0-1.3-.3-3.1-.6-4q-.6-1.6.9-1.6c.8 0 1.8.7 2.1 1.6m-132.5 1.9c.7.7 1.6 2.8 2 4.6.6 2.8 1.1 3.3 2.9 3.1q3.7-.4 1 2.6-1.3 1.2-.1 2.3c.7.7.9 2.4.6 3.9s0 3.1.6 3.4q1 .8 1.1 2.3c0 2.1-4 7.4-5.1 6.8s-.1-5.3 1.4-7.3q1.2-1.4-.4-2.3-1.4-.8-2-.9c-.3 0-2.3-1.3-4.3-2.9-2.1-1.7-4.3-2.8-5.1-2.5-.9.4-1.6-1.1-2.3-5.3-1-5.6-.9-5.9 1.6-8q4.2-3.4 8.1.2M180 196q0 .9-1 1a1 1 0 0 1-1-1q.1-1 1-1t1 1m2.4 4q2.2-.1.6 1.5c-1.6 1.6-1 1.8.1 3.1s1.1 1.8-.4 2.9q-2 1.3-.7 2t0 1.9c-1.6 1.6-5.1-3.2-4.3-6.2q.4-2-.6-2.2c-.6 0-1.1-1-1.1-2.1 0-1.7.4-2 2.3-1.5 1.2.3 3 .6 4.1.6m175.1 2.3c0 2.6-2 2.5-2.3-.2q-.4-2.4 1-1.9 1.2.6 1.3 2.1m.5 6.2q-.1 1.3-1.1 2.1c-1.6.9-3-1.8-1.7-3.3 1.2-1.5 2.8-.8 2.8 1.2m-.5 5.4q.4.9-.5 1.6c-1.4.9-5.2-.4-4.5-1.6s4.2-1.2 5 0m-176.5 2c0 1.1-2.6 2.2-3.4 1.4-1.2-1.2-.5-2.3 1.4-2.3q1.8 0 2 .9m175.7 2.8q.2 1-2.3.5-2.8-.4-1.2-1.3c1.5-1 3-.7 3.5.8m-67.5 1.9c1.5.8 3.6 1.4 4.6 1.4 2.5 0 4.6 2.5 3.8 4.6-.4 1 .1 2.5 1 3.5 1.4 1.5 1.5 2.5.7 5.1-1 3.4-1 3.4-7.3 2.2-3.3-.7-8.6-5.3-9.5-8.2-.6-2.1-.4-2.3 1.4-1.7 3 .9 2.6-1.1-.9-4.7-1.6-1.6-3-3.4-3-4 0-1.2 5.4-.1 9.2 1.8M161 220q0 .9-1 1a1 1 0 0 1-1-1q.1-1 1-1t1 1m196 3.1c0 1.1-1.6 1.1-5.9.3-1.7-.4-2.9-.9-2.7-1.3.6-1 8.6 0 8.6 1m-3.1 2.5c4.4.9 3.9 2.4-.8 2.4-3.8 0-5.7-1-4.4-2.4.8-.8 1.3-.8 5.2 0M166 228.5c0 1.2-2.4 5.5-3.2 5.5-1.2 0-1-1.4.4-2.8q1.5-1.3-.2-2.2-1.8-1.1.8-1c1.2 0 2.2.2 2.2.5m181.5 1.6c.4.5 0 1.8-.9 2.8-1.7 1.8-2.1 4.1-.8 4.1q.8-.1 2.6-1.5c2.3-1.7 5.8-.3 5 2q-.5 1.5 1.2 2.2 1.6.6 2.2-.5.4-1.1 1.3-.6c1.1.7 1.2 11.4.1 11.4-1.4 0-5.2-4-5.2-5.5 0-2.5-5.2-5.7-8.4-5.1-5.2 1.1-7.7-3.1-3.1-5.2q2.4-1.2 2.5-3.2c0-2.1 2.4-2.8 3.5-.9m8.9.5q1.5.6 1.6 1.5c0 1.5-3.7 1-5-.6q-1.6-1.6.3-1.5c.8 0 2.2.3 3.1.6m-189.2 14.6c-1.4 1.4-1.7 1.1-2.6-2.7l-.7-3 2.2 2.2c1.8 1.8 2.1 2.5 1.1 3.5m116.6 2.9c-1.5 1-2.3-1.4-1.3-3.9.6-1.4.8-1.3 1.6.7q1 2.6-.3 3.2m10.2-3.7a6 6 0 0 0 3.3 1.8c1.2.2 2.1.9 1.9 1.6q-.1 1.2.7.8c3-1.9 9.8 4.6 7 6.6q-1.7 1.2.3.4c2-.6 3.7 1.8 4.3 6.2.2 1.5.7 3.8 1.1 5.1q.8 2.5-.4 1.7-1.1-.5-1.2.3 0 1 1 1.1.8.2.5 1.2c-.3.7.5 2.4 1.6 3.8s1.8 2 1.5 1.4c-.7-1.5 2.6-2.4 4.6-1.3 1.2.7 3.2 5.3 2.9 6.6 0 .2 1.1 1.4 2.4 2.9 1.4 1.5 2.3 3 2 3.4s.3 1.4 1.2 2.1c1.4 1.2 3.6 5.4 6.8 13.4a12 12 0 0 1-.6 8.7q-1.1 2 .6 1.8 1.4 0 1 1-.5.8.9.4c1.7-.7 3.5 2.2 3.9 6.3.2 1.6.7 3.5 1.2 4.3 1.1 1.8 1.5 3.3 2 8.2.2 2.1 1.1 4.5 1.9 5.4.9.8 1.4 1.9 1.1 2.4s.4 2.7 1.4 5.1c1.4 3.1 1.7 4.7.9 5.6q-1.1 1.3.6 1.9 1.5.6 1.6 1.8c0 .6.9 2.2 2 3.6 2.1 2.7 2.6 6 .9 6q-.8.1-.4 1 .7 1 1.5.5 1.8-1 2.2 4.2a9 9 0 0 0 1.6 4.5c.8.9 1.1 2.2.7 2.7q-.5 1 .4 1.1.9 0 .1 3.1c-.8 2.7-.6 3.2 1 3.6q1.8.6 1.5 1.3t.9 2c1.3 1 3 5.9 2.6 7.5q.1.6 1.6 2.2t1.2 4.5c-.3 1.5-.2 2.8.2 2.8s.7.6.7 1.2c.1 2.1.8 4.3 1.6 4.9a187 187 0 0 1 11.6 40.9c-.1 2.8.8 12 1.6 16.5.5 2.6.4 2.7-.6 1.1a60 60 0 0 1-4.4-19.6q.5-1.8-.9-2.7c-2.1-1.2-5.6-14.8-4.2-16.4q1.2-1.3-.1-.5c-1.3.7-1.8-2.2-1.3-6.8q0-1.7-.9-1.1-1 .4-1.7-1.2a134 134 0 0 1-8.8-22.8 105 105 0 0 0-8.9-24.3 46 46 0 0 1-6.3-16.1c.3-.5-.1-2.4-.9-4.4-.8-1.9-1.6-4.6-1.9-6.1s-.9-3.3-1.4-3.9a21 21 0 0 1-2.3-10.3c.1-1.3-.8-3-2.1-4q-2.2-1.9-2-4.2.3-2-.7-2.2c-1.7 0-1.7 6 0 7 .5.3.7 1.7.4 3-.7 3.5.3 6 2.1 5.3q1.3-.4.9.9c-.3.8.1 2 .9 2.7.7.6 1.2 2.1.9 3.2-.5 1.9-.6 1.9-1.8.2-.7-1.1-4.2-7.4-7.7-14.1-8-15.7-8.9-17.2-15.9-26.7-2-2.8-3.9-5.9-4.1-7.1-.6-2.4 1.6-5.9 3.1-4.9q1 .4 1.1-.9 0-1.6-2.9-1.6c-2.5 0-2.8.3-2.3 2.2.5 2.3.5 2.3-1.6.4-1.2-1.1-2.2-2.5-2.2-3.3q0-1.2-1-1.3t-1-1.6c0-1.4.2-1.4 2.2 0a8 8 0 0 0 3.3 1.6q.7-.1-.5-1-1.6-1-.2-1 1.2 0 .7-1-.6-.7-2.3-.3-1.9.8-.6-.6c.7-.8 1-3 .6-5.4-.5-4-.4-4.1 1.3-2.7q2.4 2.1 1.1-.5c-.5-1.1-1.1-3-1.3-4.3-.6-2.4-2.2-4-2.4-2.3l-.3 2.3c-.2 1.7-2.6 1.1-4.3-1-1.2-1.6-1.4-1.6-2.4 0-1.3 2.2-2.9 2.3-2.9.2q.2-1.5 2-2.1 1.8-.5 2-1.4c0-.5-1.1-.4-2.5.1q-2.3.9-3 0-.5-1 .5-1c1 0 .8-.5.5-1q-.6-1-2.4 0-2.9 1.3-3.1-1.2.2-.7 1.9-.8c2.7 0 3.3-2.5 1-4.6-1.1-1-1.7-2.4-1.5-3.1q.4-1.2-.2-1.3c-1.6 0-3.2 2.5-3.2 4.9v2.6l-1.8-2.3a9 9 0 0 1-1.6-5.8c.2-1.9-.1-3.4-.6-3.4s-1 1-1 2.1c0 1.8-.2 1.9-1.5.9-1.4-1.1-1.3-1.5.7-3.4 1.2-1.2 2.7-2.1 3.3-2.1s1.2-1.1 1.3-2.4q.4-2.4-.9-1.6-1.1.7-.6-.2c.4-.6 1.9-.8 3.3-.5q2.8.5 2-.7c-1-1.6.9-1.4 2.4.3m-118.2 1.2q1 .4 1.2 1.8c0 1.9-4.9 7.6-5 5.8q0-1.1-.9-.8-.7.3-.8-2.2c-.1-2.5-.3-3.5-.7-4.5-.7-1.6-.5-1.7 2-1.2 1.6.4 3.5.8 4.2 1.1m-6.8 5.9c0 2.5-1.4 3.4-2.4 1.6-.8-1.2.3-4.1 1.5-4.1q.8.2.9 2.5m23 2q0 1.2 2.7.7c2.5-.5 2.5-.3-2 6a60 60 0 0 0-4.7 7.1c0 .4-1.1 2.3-2.5 4.3a31 31 0 0 0-3.2 6.2c-.7 2.7-7 12.7-8 12.7-.8 0-4.2-16.7-4.3-20.8 0-1.5.5-2.7 1.1-2.7q1-.1.6-1.4c-.3-.7 1-2.8 2.9-4.7 1.9-1.8 3.4-3.8 3.4-4.5 0-1.9 2.8-2.5 3.3-.6q.5 2 .6-.5c.1-2.9 2.3-3.5 3.9-.9l1.3 2.1-.4-2.2c-.3-1.2 0-2.4.7-2.6 1.8-.6 4.6.4 4.6 1.8m84.5 5.6c2.2 3.3 3.9 6.5 3.7 7q0 .9 1.3 1.5t1.5 1.8c.1.6 2.1 3.3 4.6 6.1 5.3 5.8 7.8 10.6 7 13.2q-.5 2 1.9 5.3c2.9 4 3 4.1 1 3.4q-1.5-.6-1.5 1.1-.2 1.9 2.5 1.1 4.3-1.1 1 2.1c-1.8 1.7-1.6 4.4.2 5 1.3.5 3.8-4.2 3.4-6.5s1.5-1.2 3.3 2l5.6 8.9c5 7.4 8.3 13.9 7 13.9q-.9 0-1-1.2t-1.7.4c-1.4 1.4-1.4 2-.3 3.3 1.1 1.4 1.5 1.4 2.9.1 1.5-1.4 1.8-1.3 2.9.4q1 1.8.2 2.5t-.3 2c.7 2-1.2 1.9-3.2-.2q-1.7-1.7-2.4-.5c-.3.6-1.5 1-2.6.8-1.6-.2-2-1.1-2-4.4 0-3-.6-4.5-2-5.6q-1.8-1.2-2.3-.5c-.2.5-1.3.9-2.3.9-1.7 0-4.2-3.8-5.1-7.7a6 6 0 0 0-1.5-2.1c-1-1-1-1.8-.2-3.4q1.2-2.2 0-1.4-1 .6-1.1-.3-.2-1-2-1.6t-2-3c0-1.2-.7-2.5-1.5-2.9q-1.3-.6-.9-2.1.6-1.5-.6-1.3c-.6.2-1.9-.8-2.8-2.2-1.6-2.4-1.6-2.4.2-1 1.7 1.3 1.8 1.3 1.4-.5q-.5-1.9-2-1.7c-1.5.2-6.8-5.7-6.8-7.7 0-.5-1.2-1.9-2.6-3q-2.4-2-1.8-3.2.6-1-.3-.6c-.6.4-2.4-1-4-3.1-3.8-4.7-5.5-7.9-4.5-8.5q.5-.3-.5-.1-1.2.2-2.3-1.6-2-3.7.1-2.4 1.2.8.7-1.9-.7-4.1 4.2-6c2.9-1.1 3.5-.6 7.5 5.4M171 255.9q0 1-1 1.6-.9.4-1-.9.1-1.5 1-1.6 1 0 1 .9m46.5.7c11.9 1 25.9.9 31.8-.1 3.7-.6 4.7-.5 4.7.6a71 71 0 0 0 10.8 17.1c18.8 23.8 19.8 25.3 18.2 27.3a15 15 0 0 0-1.7 6.3 279 279 0 0 0 .3 31.3c.4.7 1.9 82 1.5 86.4l-.7 8c-.6 6.1.8 12.1 2.5 11 .6-.3.8-3.7.5-7.8l-.5-7.2 3.5 6.4q7.2 13 10.7 11 1.8-.8 1.9-.5c0 1.2-6.3 7.6-7.5 7.6-.8 0-2.5 1-3.9 2.2q-5 4.6 3.5 5.7c3.5.5 4.4 1 4.9 3.1.5 1.9 1.3 2.5 3.3 2.5 2.3-.1 2.6.3 2.4 3s.1 3 2.8 3.3c1.7.2 3.5.7 4 1.2s3.3 1.5 6.1 2.4c4.8 1.6 5.3 1.6 9.5-.3 4-1.8 4.5-1.9 6.1-.4 1 .9 2 2.5 2.4 3.6s2.1 4.1 3.9 6.6c3.5 5.1 7.5 14 7.5 16.8a5 5 0 0 0 .9 2.9c2.1 2 2.9 12.7 1.6 20.2-1.2 7.2-1.8 8.4-8.5 15.5-3.4 3.7-3.5 3.9-3.1 11 .7 12.3.6 40.7-.2 51.2L335 626a754 754 0 0 0-1.5 29.5c-.2 9.9-.9 20.9-1.4 24.5a172 172 0 0 0-.9 18.3c0 6.8-.4 12.3-1 12.9-1.3 1.3-6.7.1-8.3-1.8-1-1.2-.6-2 2.2-4.3 2.9-2.5 3.2-3.1 2-4.5-3.3-3.9-8.6 0-8.6 6.5q0 7.8 8.6 8.5c3.4.4 4.9 0 6.7-1.5 3-2.6 4.4-7.5 3.1-10.7a92 92 0 0 1 .1-26.7c.5-5.1 1.5-20 2.1-33.2a1871 1871 0 0 1 3.5-54.2c1.4-18.8 2.4-7.1 2.4 28.4 0 44.6 2.1 79.7 5.2 88a33 33 0 0 0 9 13.1c.4.2 3.4 3.1 6.5 6.3 4.3 4.5 6.9 6.3 10.2 7.2 3.1.9 5.6 2.5 8.7 6 2.4 2.7 4.4 5.3 4.4 5.8 0 1.2-5.2 1.1-8.5-.1-1.5-.6-6.1-1.7-10.3-2.5-9.2-1.9-15-4.2-16.3-6.7-.5-1-2.4-2.5-4.2-3.4s-4.5-2.7-6-4c-3.2-2.7-10-4.8-12.5-3.9-.9.3-2.9 2.3-4.4 4.5-3.2 4.6-5.6 5-14.7 2.6-5-1.3-5.4-1.3-5.8.5-.3 1-1.7 2.6-3.2 3.6-4.8 3.1-39.1 1.8-43.6-1.8-1-.7-12.2-2.9-15.2-2.9q-1.2.2-1.3 1.5c-.1 1.3.9 1.5 1.9 1.5s2.9.9 4.2 2c2.2 1.7 2.2 1.9.5 2-1.1 0-7-.9-13.1-2.1-11.2-2.1-11.3-2.1-15.7-.2-2.4 1.1-7 4.1-10.2 6.8-5.9 4.7-5.9 4.8-11.7 4.2a50 50 0 0 1-20.1-7.2q-4-2.7-5.6-1.9c-4.4 2-21.9 2.8-30 1.3-3.7-.6-9.1-1.4-12.1-1.6l-5.3-.5.6-5.8c.4-3.6.3-6.1-.3-6.5-.6-.3-3.5 1.2-6.5 3.4a25 25 0 0 0-8.7 10.6 73 73 0 0 1-3.8 7c-.4.2-6-.3-12.6-1.1s-13.5-1.6-15.2-1.6q-3.2-.2-3.3-1.6c0-1.2-1.1-1.3-5.8-.8-4.2.5-6.3.3-7.6-.7-1.9-1.4-1.8-1.7 1.9-8.8l5.2-10.1c.7-1.4 2.5-3.3 3.8-4.2 2.2-1.5 2.5-2.4 2.5-7.7 0-3.3 1.1-10.4 2.4-15.7a150 150 0 0 0 4.7-30.1c1.4-16.4 1.6-17.6 4-24.8 1.7-5.1 2.2-8.5 1.9-13.8-.9-20 .4-57 2-56 .4.3 1.1 2.2 1.4 4.2q1.5 8.2 4.9 12c1.1 1.3 1.8 2.6 1.4 2.9-1 1 1.2 4.4 2.8 4.4 2.4 0 2-7.3-.5-9.5-2.9-2.6-3.5-5.4-1.5-6.9 1.6-1.1 1.5-1.4-.9-2.9q-2.5-1.8-2.6-4.2 0-2.3-.9-2.5c-1.3 0-4.3-5.5-7.5-14a62 62 0 0 0-3.9-8.8c-.6-.7-.7-4.2-.3-8.8.8-8.3.1-10.2-5.6-15.6a8 8 0 0 1-2.9-6c-.4-10.6.1-15.8 2-20.8 1.2-3 2.1-6.5 2.1-7.8 0-3.6 3.1-15.2 4.1-15.2 1.1 0 1.1 1.5-.1 13.6-2.1 22.3-2.1 26.7-.1 30.4 1 2 2.7 3.6 4 3.8 2.4.4 2.8-1.7.8-3.7q-1.2-1.1-1-10.9a83 83 0 0 1 4.8-30.6c2.7-6.1 2.7-8.6 0-8.6-2 0-2 0 2.1-13.1 3.7-11.6 8.6-22.4 12.1-26.8l2-2.5 1.4 5.5c.7 3 1.2 7.7 1 10.6-.2 4.5.2 5.5 3 8.7a26 26 0 0 0 18.2 9.3c8.9.7 13.9-.9 17.7-5.7 1.7-2.2 3.6-4 4.2-4 1.7 0 9.1-7.2 10.8-10.5q1.4-3 4.3-3.3l2.9-.3-.7 6.5c-.6 5.3-.4 7.1.9 9.1q4.4 6.4 13.3 6.5c4.4 0 5.8-.5 8.8-3.1 2.8-2.5 3.5-3.8 3.5-6.8 0-2-.7-5-1.6-6.6-3-5.6-3.3-7.8-1.3-11.1l1.9-3.2-2.5-1.6c-3.2-2.1-3.2-3.6 0-6.6 2-1.9 2.4-3 2-5.1-.4-1.6-.1-3.7.5-4.8q1.2-2.1 0-4.1c-.9-1.6-.7-2.6.9-4.7a9 9 0 0 0 2.1-4.9q0-2.5 2.1-2.4c1.7 0 2 .4 1.6 2.2-.4 1.3.1 6.1 1 10.8l2.2 13.4c.3 2.7 1.2 5.1 1.9 5.4 1.4.4 1.7-10 .3-16.3-.5-2.2-1.2-6.6-1.6-9.8l-.6-5.7h4.5c6.6 0 8-1.8 7.2-9.4a80 80 0 0 0-1.9-10.5l-1.2-4.3-5.2.6c-2.8.3-5.8.9-6.7 1.2q-1.8 1-1.6-2.6c0-2.7.3-3 2-2.5 2.3.7 2.1 3 2-24.5-.1-33.6-.5-38-3-36.5-.5.3-.9 11.4-.9 24.6s-.2 24.3-.5 24.7-.6-2.6-.6-6.5c0-3.8-.7-11.4-1.5-16.9s-1.7-13.1-2-16.9q-1.7-21.5-3.6-21.5c-1.5 0-1 17.7 1 33.1a363 363 0 0 1 2.6 29l.8 16.4q.3 2-2.2 2.3c-2.8.4-6-3-6.1-6.5 0-1.2-1.1-4.6-2.4-7.5-3.3-7-4.4-11.5-7.2-28.8l-3.3-19c-.9-4.2-.8-4.7 1.4-6.5 2.6-2.2 4.7-5.6 12.9-21.5 3-5.8 7-12.5 9-14.9s3.6-5 3.6-5.8c0-1.2.8-1.4 3.3-.9 1.7.3 7.3.9 12.2 1.2M139 272c.7 4.7 1.9 11 2.6 14.1 1.8 7.4 1.8 10.8-.2 13q-1.5 1.6-.4 2.4 1 .5.8-.6-.2-1 .7-1.5c1.1-.4 3 8.3 4 18.1.3 2.7.9 5.9 1.2 7 1.7 5-.2 14.7-4.3 22.7-1.9 3.8-3.8 3.7-3.1-.2 1.5-7.4-4.7-1.9-8.9 7.9l-2.8 6.4-2.2-2.8c-3-3.8-4.7-2.4-7 6.2-1 3.7-3.2 8.5-4.9 10.7l-4.8 6.9a39 39 0 0 1-11.5 11.8q-2.2.9-1.9 1.6c.4.3-1.2 2.8-3.5 5.5s-4.2 4.7-4.5 4.5a71 71 0 0 1 6.9-19.7q1 0 .5-.6c-.3-.4-.1-1.6.5-2.8 1.2-2 1.3-2.5 1.6-5.4.1-.6 1.1-1.2 2.1-1.2 1.1 0 2.3-.5 2.7-1.2q.7-1.2-1.5-.5-2 .4-1.9-.1l3.7-9.4c1.8-4.8 3.7-8.5 4.2-8.2q.7.3.3-1c-.7-1.8 4.7-18.7 5.8-18s3.7-5.9 2.8-7.1-.1-7.7.9-7.1q.5.1.7-2.6c.1-1.6.6-4.6 1.2-6.6l2.5-8.7c.8-2.7 1.9-5.1 2.6-5.3q1.2-.6.1 2.2-.8 2.4 0 2.6c1.2 0 1.7-1 2.1-4.5.2-1.7.7-3.2 1.1-3.5 1.2-.9 1.9-8.2.8-7.5q-1 .5-1-.4.1-1 1.5-1.1c1.6 0 2.1-1.6.7-2.2-.5-.2-1.2-2.2-1.6-4.6-.5-3.1-.3-4.4.7-4.8q1.3-.5.9-3.3t2.2-5.8a18 18 0 0 0 2.6-3.7q.1-.8 1.3-2c1.6-1.8 2-.6 3.7 10.4m162 7.5q-.1.7-1-.5-1.2-1.8-1-2.5.1-.8 1 .5 1.2 1.8 1 2.5m3.5 4.5q1.2 3.1-.9 1.1a5 5 0 0 1-1.6-3.4c0-2.6 1.5-1.2 2.5 2.3m55.5 3q0 .9-1 1a1 1 0 0 1-1-1q.1-1 1-1t1 1m-5.2 5.1c1.3 1.9 3 3.3 3.8 3.1 1.1-.2 1.4 1.1 1.2 6.5q-.2 7-.5 2.6c-.2-2.3-1.1-4.7-1.9-5.3-1.2-1.1-1.4-.2-1.4 5.8a39 39 0 0 1-.7 8.8c-.5 1.4-.2 1.6 2 1 3.5-.8 3.6 1.1.1 2.4-1.4.6-3.9 1-5.5 1s-2.9.4-2.9 1c0 1.2 3.4 1.9 7.5 1.7q3-.2 3.3 1.5.4 1.9-1.2 1.2-1.7-.9-1.6 2c0 5.9-7 3.4-8.8-3.1a211 211 0 0 0-7.3-20c-1-2.6-1-3.4 0-4.7.8-.9 2-1.6 2.7-1.6s1.6-1.1 2-2.5c.7-2.7 4.2-5.7 5.9-5.2.5.2 2 1.9 3.3 3.8m-56-.8c.4 2.1-2.4 1.3-3.2-.9q-.6-1.6 1.1-1.2 1.6.4 2.1 2.1m-4.5 30.2q-.5 1.4-1.5 1.5-.8.1-.4.8t-.5 2.2q-1 2-.9-.2c0-2.8 1.9-7 3-6.3q.8.6.3 2m1.8 4.2c-1.8 3.3-4 5.8-4.1 4.6 0-2.3 2.3-6.3 3.7-6.3q1.5 0 .4 1.7m14.4 1.3c0 2.1-4.1 2.5-4.9.5q-.5-1.4.4-1t1-.5q.2-1.2 1.8-.8 1.5.4 1.7 1.8m50.3 9.7-.3 6.8h-3q-3 0-3-1.5c0-1.5.8-1.4 2.3-1.3q2 .2 2.2-.7c0-.6-1.1-1-2.5-1-3.1 0-3.3-1.7-.2-2.3l2.2-.4-2.2-.8c-2.5-.8-3.1-2.5-.9-2.5q1.3-.1 2-1.5t2.1-1.5c1.3 0 1.5 1.1 1.3 6.7m-65.3-1.7c-.4 1.1-.8 3.2-1 4.8l-.5 3.7c-.2 1.7-1.9-2.9-1.9-5.6-.1-2.5 1.5-4.9 3.2-4.9q.6.2.2 2m31.7 7.1c.3 3 0 3.4-1.9 3.1-2.2-.3-3.4 2.2-1.4 3 1.3.5 2.4 4.8 1.2 4.8q-1 .2-1.1 2c-.1 1.8-.4 2-1 2q-.9-.1-1-1.9c0-1-.7-2.4-1.5-3.1s-1.3-2-1-2.8-.4-2.6-1.6-3.9-1.7-2.3-1.1-2.3c1.8 0 1.4-2.4-.9-5.4-2-2.6-2-2.6 0-2.6 2.4 0 5.4 2.8 4.7 4.5q-.4 1.3 1.1 1.9c2.3.9 2.9-.2 1.5-2.4-.6-1.1-.9-2.6-.6-3.5.9-2.3 4.3 2.5 4.6 6.6m-15-4.7q1-.6.4.5c-.9 1.4-3.6-.3-3.6-2.3q.1-.9 1.1.7 1 1.4 2.1 1.1m-11.8 1.1q-.6 1.4-1 1.5-.4-.1-.4-1.5c0-1.4.4-1.5 1-1.5q.8.2.4 1.5m13.6 2.6q.1.8.8.5c.5-.3.9.8.9 2.4v2.8l-1.9-2.3c-2-2.6-2.3-4.5-.8-4.5q1 .1 1 1.1m-9 .8q0 1-1 1.6-.9.4-1-.9.1-1.5 1-1.6 1 0 1 .9m-7 2.5c0 1.7-1.4 2.9-2.3 2s.3-3.4 1.4-3.4q.8.1.9 1.4m4.6 4.1q-.6 1.4-2.1 1.5c-1.4 0-1.3-.3.2-2.6 1.7-2.6 3-1.8 1.9 1.1m31.4 3.1c0 1.1-.5 1.1-2.5.2q-2.5-1.1-2-2.6a8 8 0 0 0 .5-2.5c.1-1.7 4 3.2 4 4.9m27-4.1q0 1.4-2.5 1.5c-2.5.1-2.5-.6-2.5-1.5s.9-1.5 2.5-1.5 2.5.6 2.5 1.5m-43 2.6q0 .9-1 .4c-.5-.3-1-1.1-1-1.6q.1-.9 1-.4a2 2 0 0 1 1 1.6m-13.3 3c-.8 1.3-1.8 3.7-2.1 5.4-1.1 5.1-2.8 8.5-4.1 8.5-1 0-1.1-.8-.4-3.6.8-2.5.7-3.9-.1-5-1.4-1.5-.7-4.4 1-4.4q1.1.1.4 2.2c-.7 2.3-.7 2.3 1.5.4 1.2-1.1 2-2.4 1.8-3-.7-1.8 1.4-4.9 2.5-3.8q1 1-.5 3.3m56.7 1c-.8 1.4-3.4 1.1-3.4-.4q0-1.4.7-2c.9-.9 3.4 1.3 2.7 2.4m-48.9 1.1a9 9 0 0 1-1.6 3.2c-.5.6-.9 1.9-.9 3 .1 1.9.3 1.9 2.3-.7q3.7-4.5 3.7-1.2 0 1.3-1.2 1.2-1.1 0-1.6 1.8c-.2 1.1-1 2.7-1.7 3.5s-1.5 2.6-1.8 4-1.3 3.4-2.2 4.5c-1.5 1.9-1.6 1.9-1.3-1 .1-1.7.7-3.7 1.4-4.5 1.5-2 2.5-5 1.6-5-.4 0-1.4 1.5-2.2 3.2s-2 3.4-2.6 3.5c-1.7.5-.4-4.7 1.2-5.4q1.3-.6 1.4-1.9c0-.8.4-2.2.9-3.2s1.4-2.9 2-4.5c1.3-3.3 3.5-3.7 2.6-.5m-147.8.3c-5.3 2-6.5 2.2-6.9 1-.3-1 3.9-2.2 8.2-2.3q3.1-.2-1.3 1.3m168.1-.3q1.3 1.3 1.2 0 .1-1.1 1-1.2 1 .1 1 1.6c0 .9.8 2.3 1.8 3.1q2 1.5.4 2-1.5.4-.1 1.9t-.5 1.4q-1.5.1-1.1 1 .7 1.1 2.2-.1c1.8-1.5 3.3.2 3.3 3.9 0 4.2-4.6 3.6-6.2-.8q-.5-1.6-1.7 1.2c-.6 1.6-1.5 2.8-2 2.8q-1 .2-.4 1.7.8 2.2-.7.6c-1.1-1-1.1-1.5 0-2.9s1.1-1.8-1-3.4c-2.3-1.8-2.5-1.8-3.2-.2q-.6 2.2-1.7-1.3c-1.7-4.7-1.7-4.8.5-5.1 1.2-.2 2.9.5 3.9 1.6s2.3 2 2.9 2q.8-.2-.8-1.5-1.8-1.4-1.3-1.5t-1.1-2.1c-3.5-3.7.1-8.2 3.6-4.7m-150.6 3c2.3 1.8 1.3 6.4-1.5 7.2-1.2.3-5 .6-8.5.6-4.8 0-6.4-.4-6.9-1.6-.8-2.2.9-3.6 7-5.5 6.5-2.1 7.9-2.2 9.9-.7m180.6 1.1q.2 1.6-1.2 1.7-1.6-.1-1.6-2.1c0-2.4 2.3-2.1 2.8.4m-235.5 4.2q-.6 1.4-1 1.1-.4-.5.2-1.5c.9-1.6 1.5-1.3.8.4m26.7-.5q0 .9-.9 1-1-.1-1.6-1-.4-1 .9-1 1.5 0 1.6 1m58.5 9.2c1.5 10.9 2.3 10-9 10.4-23.5.9-40.3 3.7-53.9 9.1-9.6 3.8-10.6 3.6-10.6-1.9 0-1.5-.4-2.9-.9-3.2s-1.1-1.7-1.3-3c-.5-2.3-.1-2.5 4.6-3.1 10.9-1.4 37.5-6.6 53.6-10.5 16.8-4.1 16.6-4.1 17.5 2.2M313 371q-.1.9-1.6 1-1.3-.1-.9-1 .6-1 1.6-1 .8 0 .9 1m7 .9c0 1.2-3.1 4.3-3.7 3.7-.9-.9.9-4.6 2.3-4.6q1.3 0 1.4.9m-16.4 2.6q-.8 2.7 1 2.5c2.3 0 1.2 2.2-2.2 4.1-4.7 2.7-5.1 1.3-1.6-5.9 2-3.8 3.7-4.3 2.8-.7m42.3.5c1.4 4.1 1.4 4.4.3 4.8-.5.1-1.4-1.5-2-3.8-1.2-4.6.1-5.4 1.7-1m-8.4 1.6c-.3 2.6 1.2 3.3 2.1.9.9-2.3 2.7-1.8 2.1.6-.3 1.2 0 2.8.9 3.6q1.3 1.4 1.4.3t1-.5q1.1.5 2.5-.5 1.6-1.4 2 .1l2 5.9c3.7 10.4 4.3 14 2.8 15.5-1.2 1.2-1.1 1.7.7 3.5 1.1 1.1 2 2.6 2 3.4s.6 1.9 1.4 2.5a62 62 0 0 1 8.2 19.6c2 6.9 2.1 8.1.8 8.8-1.2.7-1.1 1.2.6 3.4 1.1 1.4 2 3.2 2 4q0 1.3.9.9c.4-.3 1.4 2.2 2.2 5.7l2.2 8.7a120 120 0 0 1 5.3 30c.4 9.8.2 12.4-1.5 17.5-1.1 3.3-1.9 5.1-1.8 4q.4-2.7-2.1-2.5c-.5 0-.8 2.2-.8 4.9 0 2.9.4 4.7.9 4.4q.9-.5.3 2.3c-.4 1.6-.7 3.9-.7 5.2q0 2.3-1.2 1.9-1.2-.2-1.2-8.3c-.1-10.4.6-13 3.2-12.6 1.7.2 2-.1 1.5-2.3-.2-1.4-.9-2.8-1.5-3.2q-.9-.4-.5.3c.3.5-.3 1.7-1.2 2.7-1.7 1.8-1.8 1.7-2.3-1-.3-1.5-.6-3.5-.6-4.3s-.5-4-1.1-7-1.1-9.6-1.2-14.5c-.1-5.1-.6-9.3-1.2-9.7q-1-.8.7-.8 1.5-.1 1.7-1-.2-1-2.5-1c-2.6 0-3.3-1.8-1.5-3.6q1.2-1.1-.4-2.3-1.5-1.2-1-4t-1-4c-1.7-1.4-2.2-5.1-.8-5.1 1.2 0 3.3-5 2.6-6.1q-.6-.8-1.3-.4c-.5.2-1.1-1.3-1.5-3.5s-1-4-1.5-4q-.7-.2-.3-2.5.5-2.6-1.2-2.5c-1.3 0-1.4-.5-.6-2.6 1.3-3.3 1.3-3.4-.5-3.4q-1.4-.1-1.5-1t-2-1q-2 0-1.3 1.7t-.5 1c-.6-.4-1.8-2.9-2.7-5.5s-2.4-6.3-3.3-8.2a17 17 0 0 1-1.6-5.8c0-1.2-.3-2.2-.7-2.2-.5 0-1.7-3.7-2.3-7.2-.2-1.4-1.6-2-1.7-.7-.1 1.9-2.8-4.1-2.9-6.4a9 9 0 0 0-2-4.4c-1.6-2.1-1.8-2.9-.8-4s.9-1.7-.3-2.7c-2.1-1.5-1.3-4.5 1.1-3.9q1.8.4 1.5 2.9M118.1 384c-1 3.6-3.2 9.3-5 12.8-2.6 5.2-3.5 6.1-4.6 5.2-.8-.6-1.9-.9-2.5-.5-2 1.3-7.8 11-15.2 25.8-4.1 8.2-5.3 9.8-6.9 9.4q-1.9-.5-1.9.9t1.6.7q1.5-.4 1.3.3l-1.8 3.9-3.8 8.2c-1.3 2.9-2.8 8-3.4 11.5-.6 3.4-1.4 6.7-1.9 7.4q-.9 1-.3 1.7c.6.7-1.5 3.7-2.7 3.7-.9 0-3.2-5.1-2.6-5.8q.6-.4 2 .7c1.1.9 1.4.7 1.8-1.2.3-1.3.1-3.4-.4-4.7s-.5-2.6 0-2.9c1-.7 1-5.6 0-6.7-1.2-1.1-1-2.6.2-1.9q1 .5 1.1-.2c2.1-12.9 3-15.6 10.6-29.9 5.6-10.4 8.1-13.5 10.6-13.2q2 .2 2.2-1 .3-1.7 1.9-2.7 1.6-1.4 1.1-2.4t1-1.1 2.2-1.8a38 38 0 0 1 4.2-6.4l8.1-10.7c2.4-3.3 4.5-5.9 4.6-5.8.2.1-.5 3.2-1.5 6.7m198.2-6.4c.7.8-1.3 5.4-2.5 5.4-.9 0-1.1-2.2-.2-4.4q1-2.5 2.7-1m7.5 2.1q-.4 1.5-1.5 2-1 .4-.6-1.6c.6-2.5 2.6-2.8 2.1-.4M126 383.5q0 1.4-1 1.5-.8-.1-.4-1.5.7-1.4 1-1.5.3.1.4 1.5m7.5 1.5q-.3.7.7 1.3 1 .4.5 1.3c-.5.9-1.2.2-1.7-.6-1.3-2-1.3-4.3 0-3.5q1 .7.5 1.5m184.5-1q-.1.9-1.1 1-.8-.1-.4-1 .6-1 1.1-1 .4 0 .4 1m9-.6q0 .5-1 1.1-.9.4-1-.4.1-1 1-1.1 1 0 1 .4M185.5 389c-1.1.5-2.7.9-3.5.9q-1.4 0 .5-.9c1.1-.5 2.7-.9 3.5-.9q1.4 0-.5.9m143.5 0q0 .9-1 1a1 1 0 0 1-1-1q.1-1 1-1t1 1m-149 .4c0 .9-3 1.4-3.5.6q-.4-1 1.4-1 2 0 2.1.4m134.3 3.1q-.6 1.4-1 1.1-.4-.5.2-1.5c.9-1.6 1.5-1.3.8.4m-180.2 2.8c-1.2 3.1-3.1 4.4-3.1 2.1 0-1.7 3-5.8 3.7-5 .2.2-.1 1.5-.6 2.9m53.2-.3c-.4.4-2.9 2-5.5 3.5l-4.8 2.7-1-2.7c-1.4-3.6-1.3-3.6 1.3-3a9 9 0 0 0 5.1-.9c2.7-1.4 6.6-1.1 4.9.4m-16.9.2c2.1.9 2.4 1.6 1.9 3.7-.8 3.5-.7 3.5-4.9 2.1-3-1-3.8-1-4.5.1-.9 1.6-.8 1.8 4.3 4.8 3.3 2 3.7 2 4.6.5q1-1.6 1.6-.6c.8 1.3 8.2-.7 11.7-3.2 2.9-2 3.9-2 3.9-.2 0 .8-2.3 2.9-5.1 4.6-4.6 3-5.2 3.2-6.7 1.7s-1.8-1.4-4.2 1.5l-2.6 3.1-5.3-1.8q-5.4-1.8-6.3-.7-1.1 1 2.3 2.6c1.9.9 4.6 2.4 6.1 3.4 2.6 1.6 2.9 1.6 5.7-.1q5.8-3.3 2.7.2c-2.8 3.1-6.5 3.2-12.7.4a16 16 0 0 1-8.8-7.3c-3.3-5.1-4.5-12.4-1.6-10 1.6 1.3 3.5.6 3.5-1.4 0-1.6 5.7-4.5 9.2-4.5 1.5-.1 3.8.4 5.2 1.1m-26.6 6.3c-.6 1.4-1.6 2.5-2.1 2.5s-.4-.7.3-1.5q1-1.4.5-2.5-.4-.9.9-1c1.3 0 1.4.4.4 2.5m191.2 2.7q-.1 1.6-1.5 1.8-1.8.2-.5-1.9 1-2 0-2.6c-.5-.3-1-1.2-1-1.8.1-1.9 3 2.5 3 4.5M120 403q0 1.8-1 2-.9-.2-1-2c-.1-1.8.5-2 1-2q1 .2 1 2m14-1.3q0 1-1 2.3c-1.1 1.8-2.5.7-1.7-1.5.6-1.5 2.7-2.1 2.7-.8m3 2.7a3 3 0 0 1-.9 2.1c-1.2.7-2.4-1.2-1.6-2.5.9-1.5 2.5-1.2 2.5.4m165.6 3.7q-4.9 5.4-.4-1.9c1.2-2 2.4-3 2.6-2.4s-.8 2.6-2.2 4.3m18 1.4c-.7 1.8-2.6 2-2.6.2s2.4-4.1 2.8-2.7q.3 1.1-.2 2.5m-204.3 1.7q1 3.8-1.2 2.3c-1.3-.8-1.5-4.5-.2-4.5q.8.2 1.4 2.2m192.7 3.9q-1.1 1.8-1.7 1.5c-.8-.8.5-3.6 1.7-3.6q1 0 0 2.1m30.3 3.4q-1.2 3.1-1.3-.6 0-1.8 1-1.4.8.6.3 2m-219.2.6c1.4 2.7 1.9 6.9.8 6.9-1.3 0-3.1-4-2.5-5.6q.4-1.3-.4-1.4a1 1 0 0 1-1-1c0-1.8 1.9-1.1 3.1 1.1m27.4-.1a2 2 0 0 1-1.2 1.7q-1.2.3-1.3-1.7 0-2 1.3-1.8 1 .6 1.2 1.8m181.5-.6q-.1 1.3-1.5 2c-1.5.5-2.1-1.4-.8-2.7 1.1-1.2 2.3-.8 2.3.7m-39.1 7.3c.1.7-.9 1.3-2 1.3-1.7 0-2-.4-1.5-2.3.3-1.2.6-3.3.7-4.7q-.2-3.5 1.4 1c.7 1.9 1.4 4.1 1.4 4.7m32.9-1.1c-.8 2.2-2 4-3.1 4.2-1.5.3-1.6 0-.5-2.5 1.3-3.1 3.9-6.5 4.5-6 .2.2-.2 2.2-.9 4.3m-147.8-1q4.9-.6 5 .4c0 .6-2.5 1-5.8 1-4.8 0-6.3-.4-7.8-2.2l-1.9-2.1 2.8 1.8c2.1 1.4 3.8 1.6 7.7 1.1m168 5.1c0 1.8-.4 3.3-.9 3.3s-.9-2-.9-4.6c.1-5.1 1.8-3.9 1.8 1.3m-28.6-3.2q-.7 1.3-1.5 1.5-.7-.2-.3-1.5.7-1.4 1.5-1.5.7.1.3 1.5m16.6.5q-.1.9-1.1 1-.8-.1-.4-1 .6-1 1.1-1 .3 0 .4 1m-6.2 1.2c-.2.6-1 1.4-1.6 1.6q-1.1.3-.6-1.2c.7-1.8 2.8-2.2 2.2-.4m10.2.2q0 .6-1 1.1-.9.4-1-.4.1-1 1-1.1 1 0 1 .4m-43 5.4q.1 2.2-1 .2c-1.3-2-1.3-3.3 0-2.5.6.3 1 1.4 1 2.3m-102.5 1.6c2.5 1.8 2.5 7.8 0 10.6-3.2 3.6-11 2.1-13.6-2.6-1.1-2.1-1-2.8.8-5.1 2.9-4 9.3-5.5 12.8-2.9m159.5 2.5c-.1 1.3-.3 1.3-1.5-.3-1.9-2.6-1.9-4.2 0-2.6.8.7 1.5 2 1.5 2.9m10-2.3q0 1.3-1 .9-.9-.6-1-1.6.1-.8 1-.9 1 .1 1 1.6M157 436c0 1.4-3.7 5-5.1 5-.6 0 .1-1.3 1.7-2.9 3.5-3.4 3.4-3.4 3.4-2.1m140.6 5.7c-.9.9-5.6-4.2-5.6-6 0-.6 1.4.3 3.2 2 1.8 1.8 2.8 3.6 2.4 4M334 437c0 1-.8 2.3-1.7 2.9q-1.9 1-.8 2.4c5.4 7.6 5.1 6.7 2.6 8.6-2.2 1.7-2.3 1.9-.7 4.9.9 1.8 1.8 4.9 1.9 6.9.2 3.2-.3 4-4.1 7-5.9 4.5-7.2 3.1-2.2-2.3q5.8-6.2 3.2-7.8c-1.5-.9-7.7 4-10.5 8.3-1.5 2.3-3.4 4.1-4.2 4.1q-3.3 0 1.1-4.1a35 35 0 0 0 8.4-13c0-2.8-3.3-5.8-7.1-6.4-4.2-.8-4-.9-10.2 8.4a33 33 0 0 1-5.4 6.9c-2.2.6-1.4-2.9 1.3-6.5 1.4-1.8 3.2-5.5 4.1-8.1 2-6.1 3.8-8 7.7-8.4 2.7-.3 3.1-.6 2.9-3.1l-.2-2.7h7c6.2 0 6.9.2 6.9 2m-193 2.3c0 2-1.7 4-2.9 3.3q-1-.6.1-3.1c1.1-2.4 2.8-2.5 2.8-.2M87.3 449c-.9 2.9-1.9 4.8-2.1 4.2-.4-1.3 2.8-10.5 3.5-9.9.2.2-.4 2.8-1.4 5.7m57.7-2.5c0 2-1.9 2.7-6.6 2.3l-3.9-.3 4.5-1.7c5.7-2.1 6-2.1 6-.3m209 2.4c0 1-.7 2.4-1.5 3.1-1.3 1.1-1.2 1.6 1 3.7 2.7 2.8 2.7 2.6 5 13.8 1.3 6.1 1.4 8 .5 8.3q-1.5.4 0 1.2c.9.6.9 1.3.1 2.9-2 3.6-3 2.3-2.5-3 .4-4.8.4-5-1.7-3.9-1.1.7-2.3.9-2.7.6q-.4-.5.6-.6 1.1-.1 1.2-1.5c0-.7.6-1.8 1.4-2.2 1.2-.7 1.3-1.6.3-5.3-1.4-5.6-1.3-5.5-3.1-4.1-.8.7-2 1-2.5.7-1.1-.7-3.1 2.4-3.7 6.1-.7 3.8-5 9.8-5.7 7.9-.9-2.3 1-7.9 4.1-12.2 4.2-5.8 4.7-7.4 1.3-3.5q-5.7 6.2-2.2-1c1-1.9 1.6-4 1.4-4.7-.6-1.5 1.6-4.4 2.8-3.7.4.3 1.6-.6 2.6-1.9q3.3-4.5 3.3-.7m-52.6 5.4c-.2.7-1.4 1.9-2.7 2.6-2.1 1.3-2.1 1.2.2-1.3q3.9-4.2 2.5-1.3m20.6-.3q0 .9-.9 1-1-.1-1.6-1-.4-1 .9-1 1.5 0 1.6 1m-237.9 5.1q-1.2 3.6-1-1.1-.2-3.4.9-2.4 1 1 .1 3.5m232.7 4.8q-4.6 6.3-7 6.1c-2.9 0-1.8-4 2.5-8.7 1.9-2.2 2.2-2.2 3.9-.6 1.4 1.3 1.6 1.9.6 3.2m-234.1 2.3q-.5 1-.5-1.2c0-2.2.2-1.9.5-1.3.2.7.2 1.9 0 2.5m-13 1q-.5 1-.5-1.2c0-2.2.2-1.9.5-1.3.2.7.2 1.9 0 2.5m280.1 4.3q-.6.4-1.2-1.2-1-2 .5-.6 1.1 1.2.7 1.8m-2 7.7c-.8 1.2-2 2.4-2.7 2.6q-1.3.4.4-2.2c1-1.4 2.2-2.6 2.7-2.6q.9.2-.4 2.2m5.2-.8q.1 1.3 1.3 1.9c.9.4.9.7-.1 1.8s-1.5 1-2.8-.3c-.9-.9-1.4-2.4-1.1-3.2.8-2 2.7-2.1 2.7-.2m33.7 4.8q-.5 1.1-.6-.6t.5-1.3q.5.6.1 1.9m-24.8 5.6q0 1.1-.9.7-.9-.7-.3-1.8c.3-.7-1.4.8-3.9 3.4a32 32 0 0 0-5 6q-.6 1.8-1.2-.2-.7-1.7 2.3-5c1.7-1.8 3.1-3.7 3.1-4.1 0-.5 1-1.8 2.2-3l2.2-2.2.7 2.4c.4 1.4.7 3.1.8 3.8m-15.3-1.1c-1 1-1.9-.5-1-1.8q.8-1.7 1.2 0 .3 1.2-.2 1.8m13.4 4.8c0 1.8 1.6 2 2.3.2q.5-1 .6.6c.1 1.8-3.5 7.9-5.1 8.5q-.7.4-.8 1.3.1.9 1 .4 1.1-.6 2.5.5t2.1-.1q.7-1.4 1.4.6c.4 1.2-.1 3.2-1.2 5-1.5 2.7-1.6 3.2-.3 3.2.8 0 1.5-1 1.6-2.1q-.2-3 1 .3c1.1 2.8.5 5.2-1.2 4.9q-1-.1-1.4 1.4-.2 1.6.6 1.8c.8.2.9-.6.9-1.3q0-1.2 1 .3c1.1 1.8 1.2 15.8 0 28.5a1337 1337 0 0 0-2.5 36c-.3 5.3-2 12.5-3.7 16.2q-1.2 2.3 0 3.5c1.2 1.5.4 15-.8 14.3-.5-.3-.6 1.8-.3 4.5q.7 8-3.4 8-1.6 0-1-2.1.5-1.9-.9-2.6c-1.7-.6-1.9-3.9-.3-4.9q1.2-.5 0-1.7c-1.4-1.4-1.4-9.4-.1-10.2.6-.3 1-1.2 1-1.8q0-1.2-.9.1-.8 1.7-1.5-.4-.6-1.9 1.4-4.6c2.3-3.2 2.2-6.8-.3-9.6-1.8-2-1.4-5.4.6-4.6q1.2.3 2.6-.5c1.1-.7 1.1-1.3-.1-3.9-1.7-3.3-1.1-5.2 2.9-9q3.8-3.8.3-5-1.3-.5-.8 1.6.6 2.2-.8 1.5-1.3-.4-1.4.5-.2.9-2 1.5c-2.3.6-2.8-2.1-.8-4.1q1.3-1.3 0-1.2c-2 0-1.3-5.8 1.1-9.8 1.3-2 2.1-4.5 1.9-5.4s.6-3.5 1.7-5.7c1.5-3.3 1.6-4.1.5-4.1-2.4 0-4-4.8-2.5-7.2 1-1.6 1-2.2.1-2.8q-1.3-.7 0-1.5 1-.7.6-2.1c-.3-.8.1-3.3.8-5.6 1.3-3.5 1.3-4.3.1-5.5-1.4-1.4-.7-4.7 1.8-8.1q.9-1.2-.2-1.2-1-.1-1.1-1.4 0-1.4-1.2-2.2-1.1-.7-.5.9.4 1.5-.3 2.2c-1.9 1.2-2.1-3.6-.1-6.8q2-3.2 1.1-4.8t.6-3.7c1.8-2.5 3.4-2.9 3.4-.7m12.7 42.7q-.5 1-.5-1.2c0-2.2.2-1.9.5-1.3.2.7.2 1.9 0 2.5M52 543.1A50 50 0 0 1 78.5 577c.8 4.1 1.7 5.8 3.4 6.6 2.3 1.2 2.4 1.4 2.7 20.6l.5 23.4c.1 2.2-.7 6.7-1.9 10a62 62 0 0 0-2.6 12.4l-1.1 12.5c-1 10.8-2.5 23.8-3 24.4-.2.4-1.3 5.2-2.4 10.6C72 708.1 69.6 715 68 715c-.5 0-1.4-.8-1.9-1.8-1-1.6-1.2-1.5-2.8.5q-1.8 2.3-6.3 2.8c-4.5.6-17.2.6-17.8 0-.9-.9-2.2-20-2.2-33.3s.3-15.8 2-19.2c1.1-2.1 2.9-4.1 4-4.5a24 24 0 0 0 6.2-5.1c4.5-4.8 5.8-5.4 5.8-2.5a3 3 0 0 0 1.5 2.5q1.3.6 1.5 2c0 2.2 15 2.7 16.7.6 2.1-2.6 1-4.5-2.7-4.8-3.5-.4-6-1.7-6-3.2 0-.9 4.9-3.7 11.3-6.6 4.3-2 5.2-5.4 1.5-5.4-1.3 0-4.5-.7-7.2-1.5S63.7 634 60 634s-6.9-.2-7.2-.5-.3-1.8 0-3.4c.3-2.5 1.1-3.1 6.3-4.7 3.7-1.2 6.6-2.8 7.5-4.2 2.5-3.8 1.2-5.2-5.1-5.2-4.6 0-5.5-.3-5.5-1.8 0-3.1-2.2-4.2-8.2-4.2-5.1 0-5.8-.2-5.8-1.9q0-2 2.3-2.3c5.1-.7 1.1-10-4.3-9.9-15.4.3-24.3 2.1-23.8 4.9.2.9 1.5 2.2 2.9 2.9 1.5.7 3.2 2 3.9 2.8 1 1.2.8 1.6-1.3 2.4A8 8 0 0 0 18 612c-.6 1.2-2.1 2-3.6 2-1.3 0-4.1.7-6.1 1.5-6.7 2.8-6.3 4.7-6.3-30.4v-31.9l2.4-1.6a71 71 0 0 1 17.1-8.3c6-2 8.5-2.3 17.5-2 6.6.2 11.4.9 13 1.8m294.3 1.1a55 55 0 0 0-2.4 7.8l-1.7 6.5-.1-5.8c-.1-4.4.3-6.1 1.9-7.7 2.2-2.2 3.5-2.7 2.3-.8m5.3 15.5c-1.1 1.1-1.9-.6-1.1-2.4s.8-1.7 1.2 0c.3 1 .2 2.1-.1 2.4m141.8 7.9c2.6 1 1.8 2.1-1.6 2.2q-5.5.2-4.3-1.9c.7-1 3.6-1.2 5.9-.3M495 581q0 .9-.4 1-.5-.1-1.1-1-.4-1 .4-1 1 0 1.1 1m-128.9 13.5-.9 4-.1-3.5c0-1.9.2-4.6.6-6 1.2-4.1 1.6.7.4 5.5m12.9 2.6c0 1.3-5.2 4.1-6.1 3.2-.5-.5-.6-3.1-.3-5.8l.7-4.8 2.8 3.4c1.6 1.9 2.9 3.7 2.9 4m101-4.1c0 1.2-.8 1.2-3.5 0q-2.8-1 .8-.9c1.5-.1 2.7.3 2.7.9m15.8 3.2q1.3 1.4-1.4 1.3c-1.3 0-2.4-.6-2.4-1.3q.1-1 1.4-1.2c.7 0 1.8.6 2.4 1.2m2.2 15.4q-.1 1.3-2.5 1.4c-2.6 0-3.5-2.5-1.2-3.3 1.8-.6 3.7.3 3.7 1.9m-134.3 1.6q-.5 1-.5-1.2c0-2.2.2-1.9.5-1.3.2.7.2 1.9 0 2.5m126.3-1.4c0 1.3-1.2 2.2-2.2 1.6s-.1-2.4 1.3-2.4q.8.1.9.8m-455.3 4.9c.5 1.3-4.3 3-5.4 1.9-.3-.3 0-1.3.7-2.1 1.5-1.8 4.1-1.6 4.7.2m331.1 22.8c.9 5.6-.1 11.2-1.1 6.5-1-4.5-2.3-19.4-2.1-24 .3-8.1.7-7.6 1.5 2.4.5 5.4 1.3 12.2 1.7 15.1M44.4 616.6c2.6 1 1.8 2.4-1.4 2.4-3 0-4.1-1.4-1.7-2.3l1.4-.6zm446.1 1.5c-.8 1.2-3.5 1.2-3.5 0s2.2-2 3.3-1.4q.6.5.2 1.4M59 620c0 1.3-1.2 1.7-8 2.5-6 .7-6-.6 0-2.3 4.7-1.4 8-1.4 8-.2m-39.3 1.7c.2.6-1.8 1.8-4.9 2.7-8.8 2.5-9.8 3.9-6.9 8.6.5.8 1.2 2.2 1.4 3.1q.7 1.6 4.9 2.3c5.1.9 9.4 5.3 8.3 8.6-.9 2.8-4.3 2.5-5.4-.3-.8-2-1.5-2.3-4-1.9-2.4.3-3.1.1-3.1-1.3q0-1.8-2-1.2c-1.1.3-3-.3-4.3-1.3-1.9-1.6-2.2-2.6-1.9-8.6.2-7.3.9-8.4 5.5-8.4q3 0 3.4-2.1c.5-1.7 1.2-2 4.6-1.7 2.2.2 4.2.8 4.4 1.5m453.3.8q-.2 1.3-2 1.5c-2 0-2.6-1.1-1.3-2.3 1.2-1.3 3.3-.7 3.3.8m12.6.6c1 1.7-1.3 3.6-2.7 2.2-1.2-1.2-.4-3.3 1.1-3.3q.9.1 1.6 1.1m-443.6.3q0 .5-1 1.1-.9.4-1-.4.1-1 1-1.1 1 0 1 .4m454.3 7.8c-1 2.1-1.2 2.1-1.8.5-1-2.5.2-5.4 1.7-3.9q1.2 1.1.1 3.4m-20.7.6c.1 1.8-.2 3.2-.7 3.2q-.8-.1-.9-1.1-.2-1.2-1.7-2.5c-1.6-1.2-1.6-1.5-.3-2.4q3.4-2.3 3.6 2.8m14.9-2.9q.4 1-.5 1.6c-1.5.9-4.3-.3-3.5-1.5.8-1.3 3.2-1.3 4-.1M465 630q0 .9-1 1a1 1 0 0 1-1-1q.1-1 1-1t1 1m-109 2.1q-.1 1-1.6 1.6c-.8.3-1.3 1.2-1 1.9q.4 1.2-.6 2-1 .7-.6-1.9c.3-1.5 0-2.8-.5-3q-.9-.4-.4-1.4c.8-1.3 4.7-.5 4.7.8m126.5 0c1 1.5-.1 2.3-2 1.5q-1.4-.6-1-1.6c.8-1.3 2.2-1.3 3 .1M358 636q-.1.9-1.1 1-.8-.1-.4-1 .6-1 1.1-1 .4 0 .4 1m116.2 4.2c-1.5 1.5-2.6.4-1.8-1.8q.6-2 1.8-.6c1.2 1.4.9 1.5 0 2.4m-119 3.8c-.9 1.6-1.9 2.5-2.1 1.9-.3-.9 2.6-4.9 3.5-4.9.2 0-.5 1.3-1.4 3M40 645.9c0 3.2-2.9 7.9-3 4.8 0-1 .5-2.7 1-3.7q1-2 0-2.5-1-.7-.4-1.6c1-1.6 2.4.1 2.4 3M4 646q0 .9-1 1a1 1 0 0 1-1-1q.1-1 1-1t1 1m483.3 10.3c-.8 14.4-2.2 16.6-2.1 3.3 0-11.5.5-14.9 1.9-14.1.4.3.5 5.2.2 10.8m-128.6-4c.1 2.8.6 7 1.2 9.2 1.1 4.5-.3 10.5-2.6 10.5-1.6 0-1.7-4.6-.2-5.6q1.1-.6-.1-1.8-1.1-1.3-2.4.6-3 4.3-1.4-2.5c.5-2.3.9-5.3.9-6.7-.1-2 3.2-9 4.1-9 .2 0 .4 2.4.5 5.3M49 649.7c0 1.5-6.8 8.8-7.5 8.1-1.3-1.2 1.1-6.3 3.6-7.5q4-2.2 3.9-.6m317.7 4.5q-.5 1.1-.6-.6t.5-1.3c.3.3.4 1.2.1 1.9m2.7 10c1 3.7 2.6 7.4 3.6 8.3s1.6 2.3 1.3 3c-.7 2.1 2.9 6.5 4.9 5.9.9-.3 1.9-.1 2.2.5s1.6.7 2.8.3q2.2-.6 1.3.7c-.4.7-1.5 1.1-2.4.8-2-.5-4.1 1.5-4.1 4.1 0 1-.4 2.2-.9 2.7a9 9 0 0 0-1.5 3.9c-.8 4.2-3.5 8.1-4.9 6.7q-2.1-2.3-3.1.5-.7 1.8.9 1c.8-.3 2.2-.3 3 .1 1.4.5 1.4.8 0 3-.9 1.4-1.9 3.7-2.1 5.1-.4 2.6-.4 2.6 1.6-.6 1.1-1.8 2-3.9 2-4.7 0-1.6 1.8-3 2.8-2.1.3.4.2 1.5-.4 2.4-1.2 1.9-.7 5.2.7 5.2 1.5 0 2.8-4.4 1.6-5.2q-.8-.6 1.7-3.1 2.5-2.4 1.6-3.2c-1.8-1.1-1.1-3.3 1.5-3.9 2-.5 2.5-1.3 2.5-3.6 0-1.6-.5-3.2-1-3.5q-1.2-.7.1-2.1 1-1.2 2-.8.8.5.8-.3c-.4-2.6.4-3 6-2.7 6.8.3 9.2 1.4 15 6.6 3.9 3.6 4.1 4.1 4.1 9.3 0 3-.4 5.5-1 5.5-1 0-1.4-1.5-1-3.5q0-.8-1.1.2c-2.2 2.2-4.2 1.6-2.9-.7.6-1.1 1.7-2 2.4-2q1.4 0 .8-2.5c-.5-2.7-2.8-2.9-5.6-.6-1.4 1.2-1.6 1.1-1.6-.8 0-1.2.6-3 1.2-4.1 1-1.5 1-2.2 0-3.2q-1.5-1.7-.7.4c.4 1-.2 2.9-1.4 4.7a11 11 0 0 0-2.1 4q0 1-.7 1.1c-.5 0-.9 1.1-.9 2.4-.2 3.1-3.5 9.9-5 10.3-1.2.4 2-10 4.4-14.4 1.2-2.1 0-4.4-1.3-2.4-.3.6-2.1.9-4.1.7-1.9-.1-3.7.1-4 .6q-.3.7 1 .8 1.5 0 1.6.7a38 38 0 0 1-3.9 11.7c-2 2.4-.5 1.9 1.9-.6 2.4-2.6 2.4-2.3.6 2.9-1 2.9-1.1 4.4-.3 5.9q2.4 4.2.4 4.4c-2 0-8.8-5.3-8.3-6.5.9-2.4-6-1.6-8.4 1l-2.3 2.4-2.7-1.9c-1.6-1.1-3.3-2-3.8-2-1.4 0-4.2-4.6-4.2-6.9 0-2.1 2.7-4.1 4.6-3.4q1 .2 1.7-1.2.9-1.6-2-1.5c-2.2 0-2.4-.2-1.3-1.5q1.3-1.7 2.4-.5 2.4 2.2 2.6-.8c0-.9.7-3 1.5-4.6a13 13 0 0 0 1.5-4.3c0-1.3-.2-1.3-1.7-.2q-2 1.8-1.1-.1.6-1.4 3.4-1.5c2.2 0 2.8.4 2.6 1.7-.4 2.7 1.1 2.1 2.5-.8 1.1-2.3 1-2.5-1-2.2-1.9.3-2.2-.1-1.9-3.1q.3-3.3-.7-2.6t-1.1 2c-.1 1.4-.5 1.7-1.1 2.1q-1.2.7-.4-1.5c.3-1.1.3-3 0-4.2-.6-1.9-.8-1.9-2.4-.5-1.7 1.5-1.8 1.3-2-2.9-.5-9.9 0-18.9 1-17.7.3.4 1.4 3.7 2.3 7.4m-351.5-.9q1 1.4.5 2c-.8.7-5.4-1.4-5.4-2.5 0-1.3 3.6-.9 4.9.5m11.9 3.8c.2 3.6-.9 2.6-2.3-2q-.8-2.5.6-1.9c.8.3 1.5 2 1.7 3.9M476 680.8c0 7.4-.5 15.2-1.1 17.3-1.5 4.7-6.6 11.1-8.7 10.7-1.7-.3-4.1-8.3-4.2-13.8 0-1.9.5-5.2 1.1-7.3 1-3.8 1.2-3.9 4.5-3.3 2.6.5 3.4.4 3.4-.8 0-1.8-1.8-3.1-4.5-3.1q-2 0-2-2c0-1.6.8-2.1 3.7-2.3 5.4-.4 7.7-5.2 2.6-5.2-2.2 0-2.2-.3-.2-4.1 1.5-3 1.6-3 3.5-1.3 1.7 1.5 1.9 3.1 1.9 15.2m21.9-5.1q-.1 9.7-.9 7.3c-1.5-4.7-1.1-17 .6-17 .2 0 .4 4.4.3 9.7M26.8 674c1.5 5.2 3.6 40 2.5 41-.4.4-2.2 1-3.9 1.3-2.6.5-4.5-.3-10.8-4.4-4.2-2.7-8-5.7-8.3-6.5-.3-.9-1.7-2-3.1-2.5-2.4-.9-2.5-1.1-1.8-8.6.3-4.2.6-10.6.6-14.3 0-6 .2-6.8 2.3-7.7 1.7-.8 3-.7 4.8.2 2.3 1.2 2.8 1.1 5.5-1.1a9 9 0 0 1 6.9-2.1c3.7.2 4 .4 5.3 4.7m334.2.5c0 .8-1.2 4-2.7 7.2a39 39 0 0 0-2.6 7q0 1.1-.9.7-2.1-1.3 1.7-9c1.4-2.7 2.5-5.5 2.5-6.2q.1-1 1-1.2 1 .2 1 1.5m-5.5 2.7c-.4 4.1-.6 4.3-1.6 2.5q-1.1-1.8.1-3.3c1.6-1.9 1.8-1.8 1.5.8m5.5 6.3c-1.3 1.6-.4 3.9 1.1 2.9q1-.5.3 4.2c-.4 2.7-1.1 5-1.5 5.2q-.8.5-.9 1.5-.2 1.4-1.7 2.9-1.6 1.8-.4 1.8 1 0 .6 1-.6.9-1.3 1c-1.5 0-3-6.2-2.5-9.5.5-3.1.9-3.5 3.4-3.5q3 0 2.9-1.6.2-2-1.5-.4-1.6 1.5-1.6-.1l.1-2.4.4-2.1c.3-2 3-4.7 3.4-3.5q.3 1.2-.8 2.6m125.7-.3q-.5 1-.5-1.2c0-2.2.2-1.9.5-1.3.2.7.2 1.9 0 2.5m11 6q-.5 1.1-.6-.6t.5-1.3c.3.3.4 1.2.1 1.9m-10.7 7.4q0 5.3-1 4.9c-1.6-1-1-10.5.6-10.5.2 0 .4 2.5.4 5.6m-31.1 7.1c.1 2.9-.3 5.3-.9 5.3s-1-3.2-.9-7.8c.1-8.7 1.6-6.6 1.8 2.5M395 696q-.1.9-1.1 1-.8-.1-.4-1 .6-1 1.1-1 .4 0 .4 1m-16.9 2.7q-1.8 2.9-.5-1.2.7-1.4 1.1-1.1c.3.2 0 1.3-.6 2.3m15.3 1.5c-.8 2.7-1.2 3.3-1.9 2.7-.7-.8.7-4.9 1.7-4.9q.8.2.2 2.2m9.6-.3q-.1 1-1.1 1.6-1 .8-.5 2.2.4 1.2-.4.8c-1.1-.7-1.3-3.8-.3-4.8s2.3-.8 2.3.2m95 3.1c0 1.6-.4 3-1 3s-1-1.4-1-3 .5-3 1-3 1 1.3 1 3m-11 3.1q0 1.8-1 1.4-.8-.6-.3-2 1.2-3.1 1.3.6m-75 2.9q-.1.9-1.1 1.6c-1.4.8-3.3-1.1-2.5-2.5.7-1.1 3.6-.4 3.6.9m25.3 1.5c2.9 3.6 2.6 4.1-2.3 3.7-.8-.1-3-.3-4.7-.3-1.8-.1-3.3-.6-3.3-1 0-.8 6.1-5.9 7-5.9a16 16 0 0 1 3.3 3.5m-37.9 4.7q-.6 1 .4.4 1.4-1 1.2-1.7.2-1.1 1.5-2.5c1.3-1.4 1.5-1.3 1.6.8v3.1q0 .8.9.2 1-.5 2.3.3c.7.5 2.6 1.3 4.4 1.6 4.3 1 6.1 3.1 3.6 4.4q-5.9 3-16.1.7c-6.5-1.5-7-1.8-7.6-4.7-1.2-6-.8-7.1 1.9-6.4 1.4.4 2.5.2 2.5-.4q.2-.7 2 1c1.2 1.2 1.8 2.6 1.4 3.2m46.3-.6q-.6.5-1.9.1-1.1-.5.6-.6t1.3.5m22.8.4c-2.8 1.2-5.5 1.2-5.5 0 0-.6 1.7-1 3.8-.9q4.3 0 1.7.9m18.5 3.6c0 3.1-2.3 2.8-2.8-.4q-.3-2.2 1.2-2.2 1.6 0 1.6 2.6m-12-.1c0 1.6-3.5 2.1-4.4.6-.8-1.2.4-2.1 2.6-2.1q1.6.2 1.8 1.5m-29.1.1c2.4.5 3.1 1.2 3.1 3.1 0 1.3-.6 2.6-1.4 2.9-1.4.5-7.4-2.2-11.1-5-1.9-1.5-1.8-1.5 2.1-1.6 2.3 0 5.6.3 7.3.6M56 721.5q.1 1.3 1.3 1.2c2.2-.4 1.9 5-.7 10.1-2.5 4.9-4.1 6.2-7.7 6.2-2.4 0-1.5-2.7 1.3-3.5 1.5-.5 1.8-1.3 1.3-3.5-.3-1.6-.2-3.1.4-3.5q1-.6 1.1-2c0-2.1-3.4-1.1-4.5 1.3-1.2 2.6-2.7 3-1.8.4.6-1.8 7.2-8.1 8.6-8.2q.6.2.7 1.5m419 9.2c0 14.3-1.6 16.6-6 9a45 45 0 0 1-5.4-16.9c.3-.5 3-.8 6-.8h5.4zm-46.4-5.2c2.2 1.1 2.9 2.2 3 4.7l.2 3.2-1.6-2.7c-.9-1.5-2-2.7-2.4-2.7q-.7-.2-1.8-2c-1.3-2.4-1.1-2.4 2.6-.5m57.5-.2-.1 2.4q.1 2.3-1 .3c-1.3-2-1.3-4.3.1-3.8q1 .4 1 1.1m12.9 4.5c0 5.4-1.1 11.2-2.1 11.2s-1.2-6.8-.3-12.2c.8-4.7 2.4-4 2.4 1m-163-1.9c0 1.1-5.9 2.6-6.7 1.8q-.4-.6.2-1.6c.8-1.3 6.5-1.5 6.5-.2m104 1.2q0 .8-1 .9-.9-.1-1-1.6.1-1.3 1-.9 1 .6 1 1.6m-26 1.2c-1.7 1.3-2.4 3.7-1.2 3.7.4 0 1.3-.5 1.9-1.1q1-1.3 2.9 2.2 1.6 3 2.2 2.1.3-1.5 1.8-.1c.8.6 3.2 1.3 5.4 1.5 3.6.4 4.1.1 5.6-2.7q1.6-3.5 2.4-1.8c.5.7.6 1.7.3 2.1q-.3.9.5 2.1a12 12 0 0 1 1.6 3.4c.7 2.2.5 2.3-3.8 1.7-2.6-.4-5.1-.2-5.8.3-2.3 1.8-8.9 2.2-13.2.8-6-2-19.6-4.6-20.6-4q-.9.2-1.6-2.2-1-3.5-2.1-5.6l-1.4-2.8 7.3.6q7.2.6 8.1 2c.6 1.2 1.1 1.1 2.8-.6 1.1-1.1 2.6-1.8 3.3-1.6.7.3 1.9.1 2.7-.4 2-1.3 2.6-1 .9.4m-294 1.6q-.1.9-1.6 1.5-3.6 1.4-1.4-.9c1.4-1.7 3-2 3-.6m332 .6q1 1.4.2 1.5-1-.1-2.2-1.5-1-1.3-.2-1.5 1 .2 2.2 1.5m-8.4 3.5 2.7 1.1-2.2 1.5c-2.5 1.8-2.6 1.8-3.5-1.4-.8-2.5-.7-2.6 3-1.2m-400.9 1.9c.1 1.1-.4 2.4-1.1 3q-1.2 1.2-1.4-2-.2-2.8 1.1-2.9 1.1.2 1.4 1.9m-4.3.7a3 3 0 0 1-.4 2.9q-.8 1-.5 1.7c.3.3-1.6.8-4.1 1.2-2.6.3-4.8.5-4.9.4-1-1.2-1.4-4.8-.6-4.8q1 .1 1.1 1.4 0 1.5 2.9 1.4c2.2-.1 2.7-.5 2.4-1.9-.6-2.1 1.2-2.6 2.1-.7q.4 1 0-1c-.6-2.5 1.1-3 2-.6m304.5 1.4c1.8 2 12.7 6.4 18.2 7.4 4.7.8 6.7 3 4.9 5.1-1.1 1.3-2.6 1.5-8.4.9-13.6-1.3-23-1.2-25.5.4-2.5 1.5-11.3 1.1-21.1-.9-4.5-.9-24.3-3.7-31-4.4-13.3-1.3-16-1.8-16-2.5 0-1.8 7.9-2.9 29-4a104 104 0 0 0 23.7-2.5 64 64 0 0 1 21.7-1.7c1.7.3 3.7 1.2 4.5 2.2m118.6-.8c1.9 1.3 4 3.6 4.6 5.1.7 1.6 1.8 3.5 2.6 4.3q1.8 1.6-.2 1.4c-1.5 0-9.7-8.1-11.8-11.6-1.2-2.1.9-1.7 4.8.8m-348.4 5.1c-1.3 1.3-1.5-1.1-.4-4q.8-2.5 1.1.6c.2 1.3-.1 2.8-.7 3.4M24 742.5q-.1 1.3-1.5 1.5c-1.6 0-2-1.2-.8-2.3 1.1-1.2 2.3-.8 2.3.8m-11.1 2.1 4.1-1.2q1.8-.4 2 .5c0 1.1-3 1.7-12 2.5q-5.3.5-3.4-.4a6 6 0 0 0 2.8-2.6c.6-1.6.7-1.6 2.5.1q2 1.5 4 1.1m53 0c2.4.2 4.5.5 4.7.7q.2.5-1.6 2.5c-1.6 1.6-2.7 2-5.6 1.5a26 26 0 0 0-10.8 1.7c-6.4 2-8.5 2.2-17 1.5-7.4-.5-10.1-1.1-11.9-2.7l-2.2-1.9 3.5.5c1.9.3 6.7.9 10.7 1.2 6.2.6 7.5.4 10.1-1.4 1.6-1.2 4.8-2.4 7.1-2.8s4.4-1.1 4.7-1.6q.6-.8 2.3-.2c.9.4 3.6.8 6 1m184.6-.6q.4.9-.4 1-1-.1-1.1-1 0-1 .4-1 .6 0 1.1 1m-172 1.9c.3.5-.4 1.3-1.6 1.6-2.3.8-3.4.1-2.4-1.4.8-1.3 3.2-1.4 4-.2m18.5 1.5q-.2 1.3-1.5 2c-1.3.4-1.4.2-.5-1.4q2-3.5 2-.6m359.3 7.9q5.2 3.5-.2 3.7c-2.3 0-3.1-.6-3.9-2.8-.5-1.6-2.5-4.6-4.3-6.8l-3.3-3.9 4.5 4.1c2.4 2.2 5.6 4.8 7.2 5.7m-31.3-5.8c15 .2 15.2.2 18.8 3.5 4 3.6 3.5 5.3-1.1 3.7-3.5-1.2-24.8-1.4-31.2-.3-5.4 1-9.5-.6-9.5-3.7 0-3.9 1.9-5 7.5-4.1 2.8.5 9.7.9 15.5.9m-208.8.5c12.8 2.5 23.6 6.9 12.1 4.9s-14.1-2.1-20.9-.6c-3.8.9-8.9 2.3-11.3 3.2-5 1.7-8.1 1.9-8.1.5 0-1.9 6.4-5 9.7-4.8 2 .1 3.8-.4 4.5-1.4 2.4-2.9 5.8-3.4 14-1.8m49.8 1.9c6.8.1 13.8.5 15.5 1.1 2.8.9 21.7 3.4 37 5 3.9.4 10.6.5 15 .2a96 96 0 0 1 20.5.3c.4.3 0 2.6-.9 5.2-2.4 6.9-4.2 7.5-18.8 6.9a110 110 0 0 0-17.4.4c-5.4 1-7.4.4-17.6-5.6-3.7-2.2-6.2-2.7-18-3.5a325 325 0 0 1-34-3.4c-3.2-.7-4.5-2.4-2-2.6l3.2-.3q2 0 2.3-2.9.4-3 1.5-1.9c.7.6 6.8 1 13.7 1.1m209.5.7q1.5 1.5 1.3 1.9l-2.5 1.4c-2.1 1.1-2.3 1-2.3-1.9q0-5 3.5-1.4M65 754.8c0 1.6-3.7 2.9-6.8 2.4-5.9-.8-3.4-2.5 4.6-3.1 1.2 0 2.2.2 2.2.7m38.5 1.6c2.2.8 5.8 1.5 8 1.6 2.3 0 4.6.5 5.1 1q1 1.2 5.5-.3c2.4-.8 6.9-1.5 9.9-1.5s7.4-.8 9.8-1.6c4.6-1.6 6-.3 1.5 1.5l-7.8 3.4a70 70 0 0 1-12 4c-6.5 1.5-7 1.5-8.2-.2-.7-.9-1.3-2-1.3-2.4s-1.2-1.1-2.7-1.7c-3.2-1.3-23.8-2-24.9-.9-1.4 1.4-2.5.7-2.2-1.6.3-1.9 1.1-2.3 6.3-2.8 6.8-.7 7.5-.6 13 1.5m70.5 1.1c0 .3-1.8 2.1-4 4.2-2.3 2-3.7 4-3.2 4.5s4.3.2 8.8-.7c13.2-2.5 13.5-1.9 1.9 4-3.9 1.9-7.7 4-8.7 4.7-1.3.9-2 .9-3.4-.2-2.5-2.2-15.8-3-17.7-1.1q-1 1.2-2.9-2c-1.1-1.7-1.8-3.3-1.6-3.4l6.4-3.2q6.1-3 9.1-2.6t7.9-2.1q7.2-3.7 7.4-2.1m8 2.5q0 .9-1 1a1 1 0 0 1-1-1q.1-1 1-1t1 1m256.8.1c2.6.7 5.2 1.6 5.7 2.2q1 1-1 .2a45 45 0 0 0-8.5-1.1c-3.5-.1-6.6-.8-6.8-1.3-.5-1.4 4.7-1.4 10.6 0m-210.3.8c1 1.7-1.8 2.5-10.1 2.9-8.8.5-12.1-1-6.2-2.7 4.3-1.2 15.5-1.4 16.3-.2m242.2 3.1c-.4 2.8-1.5 3.5-1.2.8s.3-2.8 1-2.8q.5.2.2 2m-384.8.9c1.8-1.1 4.5-1.9 6-1.7 2.1.3 1.7.6-2.9 2.2a47 47 0 0 0-17.9 11.1l-3.4 3.4-1.4-2.7c-1.7-3.2-3.1-4.2-5.1-3.5q-1.5.6-1-1.3t2.1-1.6c1 .2 3.1-.8 4.8-2.2s3.6-2.6 4.4-2.6c.7 0 2.5-.7 4.1-1.5 2.6-1.3 3-1.3 4.9.5s2.1 1.9 5.4-.1m175.6-.2 3 .7-3.5.6c-1.9.3-5.7.2-8.5-.2-2.7-.3-7.7-.7-11-.8-5.1-.2-5.5-.4-3-1 3.1-.9 17.8-.4 23 .7m145.3.7c3.5.8 7 1.2 7.8.9a3 3 0 0 1 2.7.5c.6.6 2.5 1.2 4.1 1.4s3.1.9 3.4 1.5c.2.9-1.2 1.3-5 1.3-7.8.1-12.6 1.5-16 4.6-2.8 2.8-2.9 2.8-5.6 1.1-1.5-.9-5.8-3.2-9.7-5.1-6.7-3.4-10.5-5.8-10.5-6.8s15.9-.8 16.5.2c.9 1.5 2.5 1.2 2.5-.6q0-1.6 1.8-1zm-34.1 2.1 2.8 2.5-4.9-1.5c-6.3-1.8-8.1-3.5-3.9-3.5 2 0 4.3 1 6 2.5m-80 .4c2.9 1.7-4.3 1.4-9.7-.4l-4.5-1.5 6.2.4c3.3.2 6.9.9 8 1.5M117 769.1l8 1.6c4.9.8 11 5.1 11 7.7 0 2.9-.7 3.6-7 8.4l-9 7.1c-4.2 3.6-5 3.8-5 1.1q.2-2.1 3-3.8c1.6-.9 3-2.3 3-3 0-2.5-3.5-1.1-7.5 3.1s-4.1 4.3-5.6 2.3c-1.5-1.9-1.7-1.9-6.1 2.3l-4.6 4.2-3.6-1.5c-4-1.6-5.5-4.1-3.7-5.9a4 4 0 0 0 1.1-2.4c0-1.6-4.2-1.7-5.6-.3q-1.1 1.2-2.4-.5c-1.9-2.3-3.6-1.8-8.1 2.2-3.7 3.3-4.7 3.7-10.2 4-3.4.1-8 .9-10.2 1.7-3.5 1.3-4.3 1.3-6.2 0q-5.3-3.4-9.4 1.7c-2.5 3.1-2.7 3.2-10.8 3-4.5-.1-10.2-.8-12.8-1.6-4.4-1.3-4.7-1.3-7.8 1.1-4.3 3.2-5.5 3-5.5-.9 0-3.1.4-3.5 6.1-6.3 3.4-1.6 7.8-4.4 9.8-6.2 3.2-3 3.7-3.1 4.6-1.6l3.2 4.4c2.2 2.7 2.2 2.8.3 4.5-2.1 1.9-1.8 3.5.6 3.5 3.2 0 12.2-5.3 18.8-11.1 5.1-4.5 7.4-5.9 9-5.5 1.1.3 2.8-.2 3.8-1.1 2.9-2.6 3.4-.5 1 4-4.2 7.9-2.5 8.6 6.9 2.8 4.8-2.8 6.5-4.4 6.7-6.3.4-3.6 10.8-11.4 17.5-13.3 5.5-1.6 18-1.3 26.7.6m86-.9c0 1 2.7 1.2 10.7 1.1 5.9-.2 11.4-.5 12.1-.8.8-.3 2.4.3 3.6 1.3 1.7 1.3 4.4 1.8 10.2 2 8.2.2 19.4 2.1 19.4 3.3 0 .4-4.6.7-10.2.8a91 91 0 0 0-13.8 1c-7.2 1.7-60 2.2-60 .5-.1-.5 1-1 2.2-1.2 3.1-.4 6.8-2.2 9.5-4.5q2.2-2 4.6-1.3a5 5 0 0 0 4.8-1.4c2.7-2.2 6.9-2.7 6.9-.8m175.5 2.8q.4.9-.9.4-2.7-1.2-.7-1.4 1 0 1.6 1m53 0q.4.9-.9 1c-1.3.1-1.8-.5-2.1-1q-.4-1 .9-1 1.8 0 2.1 1m-138.8 1.4c7.3.3 9.9.8 12.7 2.5 3.1 1.9 4.2 2.1 8.8 1.3 2.9-.5 10.5-.8 16.8-.6 7.3.2 13.1-.2 16-1 5.7-1.6 17.7-1.1 19.7.9.8.9 2.4 1.3 3.7.9 1.3-.3 4.7.2 7.6 1.2 4.9 1.6 5.1 1.8 3.4 3.1-1 .8-1.8 2.1-1.6 3 .3 1.4-.6 1.5-7.5.8-4.3-.4-12.5-.9-18.3-1.1s-15.9-.8-22.5-1.3-13.5-.8-15.3-.6-6.3-.4-10-1.2a65 65 0 0 0-22.9-.9c-4.7 1.5-2 2.6 6.1 2.6 8.9 0 18.6 1.7 19.8 3.4.4.6 4.2 1.1 8.4 1.2 5.8 0 7.8.4 8.5 1.6s2.2 1.5 7.1 1.2c6-.4 19.4.7 26.8 2.1a19 19 0 0 1 6.4 2.7c1.6 1.2 3.6 2.1 4.3 2.1 2.3 0 1.4 1.5-1.7 2.6-1.6.5-3 1.4-3 1.9 0 1.3-6.6 5.2-8.7 5.2-.9 0-3.6 1.1-5.9 2.5q-4.3 2.6-6.8 1.9c-1.3-.3-4.4.1-6.9 1-3.9 1.3-8.6 1.5-29.4 1l-25.8-.5-40.8.7c-36.8.5-40 .4-41.8-1.2q-2-2-1.9-.3c0 1.2-9 1.4-60.2 1.1a1172 1172 0 0 1-61.1-1.1q-2.1-2.4 4.3-3.6c3.8-.6 4-.9 4-4.2q0-3.4 1.3-3c.6.2 1.1 1.3.9 2.3-.4 2.6-.4 5.5.1 6 1.3 1.3 4.8 1.1 5.7-.4q1.2-2 1.7-.3t2.4-1l1.9-2.4.6 2.3c1 3.5 2.9 2 2.6-2-.2-2 .1-3.9.7-4.3q1-.5 1.2 2.4.2 8 3.4 6.4 1.4-.4 1.5.4c.1.8 2.7.6 6.1.3 5.1-.5 6.5-1.1 9-3.8 1.7-1.8 2.8-3.6 2.4-4.1s.3-1.6 1.4-2.3 2-2.2 2.3-3.3c.3-1.8 1.1-2 9.3-1.7 9.7.3 13.5-.9 13.5-4 0-1.5.9-1.8 4.8-1.9 2.6-.1 5.2 0 5.7.1 3.9 1.1 12.6 1 14.5 0a19 19 0 0 1 7.6-1.1q5.2 0 6.4-1.4c1-1.2 4.1-1.5 14.9-1.6 7.5 0 15.9-.5 18.6-1.1 5.7-1.2 16.3-1.4 35.2-.5l13.2.6-.8-2.2q-1-2-3.7-2.8-2.9-.5-2.5-2c.2-.8.4-2.4.4-3.7-.1-2.3 0-2.3 8.1-1.7zm177.3 9.8c0 .4-1.7.8-3.7.8q-4 0-2.3-1c1.7-1.1 6-.9 6 .2m-295.7 1.7q1.5.2 1.7 1.2 0 1-4.7.3c-5.9-.8-8.2-2.5-2.7-1.9zm214.2 1.1c-.3.5-1.5 1-2.6 1q-1.7-.1-1.9-1c0-.6 1.2-1 2.6-1s2.3.4 1.9 1m104 2c.6.9-1.9 1.2-12.4 1.3-1.9 0-3.7-.5-3.9-1.1-.5-1.5 15.4-1.7 16.3-.2m-346.2.7c-.7.2-2.1.2-3 0q-1.3-.5 1.2-.5 2.6 0 1.8.5M35.5 791q-3.3 3.5-3.5.7c0-1.2 4-3.6 4.9-3q.2.5-1.4 2.3m367.1 0a35 35 0 0 1 7.2 5.5 26 26 0 0 0 5.3 4.5c1.4 0 7.8 9.9 6.8 10.5-1.1.7-31.7 1.1-48.6.6-11.1-.4-13.2-1-9.4-3.1q4.3-2.2 9.1.7c2.4 1.3 3.1 1.4 4.4.4.8-.7 1.4-1.8 1.3-2.4q0-1.2 3.8-1.2h4l-.2-6.6-.2-6.6 6.2-1.6c7.8-1.9 7.1-1.9 10.3-.7m-319.2 5.8q.2.8-1.5.9t-1.4-.8c.7-1.1 2.2-1.2 2.9-.1m-6.6 3.7c-1.2 1-4.8 1.5-4.8.6q.1-1 1.4-1.1 1.4-.1 2.1-1.8c.8-1.6.8-1.6 1.2.1q.4 1.7.1 2.2m41.8 4.7c-2.1 1.2-7.8.6-8.3-.8-.2-.7.3-1.9 1.2-2.7 1.4-1.5 1.9-1.4 5.1.5 3 1.8 3.3 2.3 2 3M43.5 802c-.3.5-1.1 1-1.6 1q-.9-.1-.4-1a2 2 0 0 1 1.6-1q.9 0 .4 1"/><path d="M221.6 10.7c-.4.4-2.6.7-4.9.8q-4.2 0-4.2 1.3c0 1.1 4 1.4 18.5 1.7 19.5.4 24.3 0 23.7-1.9q-.4-1.1-12.8-1.3c-6.8-.1-14-.4-16-.7s-3.9-.3-4.3.1m64.7 91q1.5 1.5 2.3 1.1c1-1-.6-2.8-2.4-2.8-1.5 0-1.5.1.1 1.7m-77.2 1.7q-1 1.5-.2 2c1.3.9 4.3-.4 3.8-1.7-.5-1.7-2.3-1.9-3.6-.3m9 6.2c-1.7 1.4-3.1 3.5-3.1 4.5 0 3.2 2.8 3.4 5.9.5q4.2-4.2 6.8-1.5c1.4 1.4 5.3.2 5.3-1.5 0-4.9-9.9-6.2-14.9-2m-60.1-.5c-3.8 1.5-6 4-6 6.6 0 3.7 2.6 3.9 5.6.4 2.8-3.4 6.6-4.1 9.9-1.8 2.4 1.7 6.7 2.8 6.3 1.7-.2-.4-2.3-2.4-4.6-4.4-4.5-3.7-6.8-4.2-11.2-2.5m111.3 3.4c-3.8 1.6-5.5 4.4-4.2 6.8.9 1.5 1.3 1.6 4.6.2 4.5-1.9 7.3-1.9 10 0 4.8 3.4 3.6-2.6-1.3-6.4-3.1-2.4-4.7-2.5-9.1-.6m64.9-.3c-4 1.1-6.2 4.9-4.2 7.3 1.2 1.4 1.5 1.4 3.8-.1s2.7-1.5 6.3.2c5.2 2.3 7.2.8 4.7-3.4a9 9 0 0 0-10.6-4m-138.5 1.4c-4.8 2.6-1.6 5.1 3.6 2.9 1.6-.6 1.8-.4 1.5 1.6q-.4 2.6 1.6 2.4c3.1 0 4.2-2.9 2.3-5.9q-2.9-4.5-9-1m106 15.1c-1.1 1-.8 5.1.4 5.9.6.3.8 1.7.4 3.1-.6 2.6 1.1 5.7 2.6 4.7.5-.3.6-1.6.3-3-.6-2.4-.5-2.5 3.2-2.2 3.1.2 3.9-.1 4.2-1.5.3-1.5-.2-1.8-2.4-1.5-2.3.2-3.2-.3-4.9-2.9-2.1-3.3-2.7-3.8-3.8-2.6m7.9 13q-.6 1.5.2 2.5c1.1 1.1 3.6-1.7 2.7-3.2s-2.2-1.2-2.9.7m-4.6 5.8q.1 1.4 1.6 1.5 2 .1.4-1.5-1.2-1.4-1.6-1.5-.4.1-.4 1.5m5.5 2.5c-1.1 1.7.5 3.2 2.1 1.9q1.1-1 .8-2c-.7-1.2-2.1-1.1-2.9.1m-30.3 1.2c.6 1.6 5.1 3.9 10.1 5 6.6 1.5 14-2.3 10.7-5.6q-1-1-3.9.7c-3.6 2.1-6.6 2.1-12.1.2-5.1-1.8-5.3-1.8-4.8-.3m24.5 1.4c-.8.9 1.1 4.4 2.3 4.4q1-.1 1-1.4c0-1.6-2.4-3.8-3.3-3m-22.2 8.4c-1.7 1.8-1.7 2.1-.1 4.5.9 1.4 2.3 2.5 3 2.5 1.8 0 2.9-5.9 1.5-7.6-1.5-1.9-2.3-1.8-4.4.6m44.7.2c-2.2 2.2-1.4 3.5 1.9 3q3-.4 2.7-2.1c-.4-2-3-2.5-4.6-.9m-163.5.5c-1.1 1-.8 4.8.5 6.1.9.9 1.7.5 3.5-1.4 1.2-1.4 2.3-2.9 2.3-3.3 0-1.7-5-2.8-6.3-1.4m145.9 7.2q-.5.9.3 1.5t1.5-.3q.5-.9-.3-1.5t-1.5.3m37.4 5.8c-6.1.6-8.2 1.3-7.7 2.8.7 1.7-1.4 2.5-4.3 1.8q-2.4-.6-1.8.8c.4 1 2 1.3 5.9 1.1 2.9-.2 6.5 0 7.9.3 2.2.6 2.3.8.7 1.6q-1.5 1-1.7 1.9c0 .9 8.1.1 9.3-1 1.5-1.4-.5-4-3.2-4-7-.1-9.2-2.9-2.3-3.1 3.3 0 8.5-1.5 7.2-1.9-1-.4-6.6-.5-10-.3m-35 5.3c0 1.1.1 1.1 9.3 1.3 6.5.2 8.4-.7 3.6-1.7s-12.9-.7-12.9.4m28.3 13.7c-1.5.6-1.8 8.3-.3 8.3q1-.2 1-2c0-1 .9-2.4 2.1-3 1.6-.9 1.8-1.4.8-2.6-1.2-1.5-1.6-1.6-3.6-.7M288 201q.1.9 1 1 1-.1 1-1t-1-1a1 1 0 0 0-1 1m40.6 2.8q-.4 1 .5 1.7c1.5 1 2.5-.3 1.2-1.6q-1-1-1.7-.1m-48.3 1.9q-6.4.9.2 3.9c4.1 1.7 7.5 1.8 7.5.3 0-1.9-2.1-4.9-3.3-4.7zm46.2 4.2c-.6 1.1.9 2.3 1.9 1.4s.7-2.3-.3-2.3q-1 0-1.6.9m-3.2 27.8a29 29 0 0 0-1.4 12c.1 7.4.5 8.8 3.3 13 7.3 11.2 11.8 16.3 11.8 13.5 0-.4-2-3.4-4.5-6.7s-4.5-6.4-4.5-6.9-.7-1.7-1.6-2.7q-1.5-1.7-1.2-6.5.4-5.3 1.2-2.9c.4 1.1 1.3 3.1 2.1 4.5 1.6 3.1 11.3 8.6 12.7 7.2 1.2-1.2.2-3.2-1.7-3.2-.7 0-3.2-1.1-5.6-2.5-3.8-2.1-4.5-3.1-5.7-7.7-.7-2.9-1.2-7.4-1.2-10.1.1-5.7-1.5-6.2-3.7-1m-10.1 6.2c.4 1.3 1.8 1.6 1.9.4q-.1-.7-1.1-1.2-1.2-.2-.8.8m28.5 11.8c-1.3 1.2-.7 2.3 1.3 2.3 1.2 0 3.4.7 5 1.5 2.6 1.4 3 1.4 3 .1 0-3-7.2-6-9.3-3.9m13.5 6.4q.5 1.2 1.7 1.7 1.3.4.9-.9-.5-1.2-1.7-1.7-1.3-.4-.9.9m-7.2 1.3c0 1.5 2.4 2.8 3.4 1.9.7-.7-1.3-3.3-2.5-3.3q-.8.1-.9 1.4"/><path d="M335.8 267.1c-2.7 1.5-2.1 3 1 2.7 2.4-.3 2.7 0 2.7 2.7 0 4 3.2 4.7 4.1.9.6-2.2.2-3.2-2-5.1-3-2.6-3.4-2.7-5.8-1.2m.4 18.1c.3 5.8 2.2 7.5 3.1 2.8.7-3.1-.9-8-2.5-8-.5 0-.8 2.3-.6 5.2M273.3 38c-3.2 1.3-4.4 4.1-3 7q2.6 5 4.5.5c1.3-2.8 4.3-3.3 6.2-1 3.3 4 5.6-.8 2.4-5.3-1.6-2.3-5.9-2.9-10.1-1.2m-52.9 2.3c-2.3 2-2.5 2.6-1.5 4.5 1.4 2.6 2.8 2.8 5.3.5 1.6-1.4 2.4-1.5 5.2-.5 4.3 1.6 4.6 1.5 4.6-.7 0-2.6-4.6-6.1-8.1-6.1-1.5 0-4 1-5.5 2.3M231 71.5c-2.1 2.6-.5 4.3 3.9 4.1 5.1-.3 5.9-1.1 3.6-3.6-2.1-2.4-5.7-2.6-7.5-.5m33.8 1.6c-2.5 1.4-1.1 4.2 1.8 3.5 1.2-.3 2.6-.2 2.9.4.9 1.5 3.5 1.2 3.5-.4 0-3.6-4.7-5.6-8.2-3.5M352 80q.1.9 1 1 1-.1 1-1t-1-1a1 1 0 0 0-1 1m-104.3 50.7c-2.2 2.1 2.5 6.9 5.6 5.7 2.1-.8 3-3.4 1.6-5-1.2-1.4-6-1.9-7.2-.7m-40.6 50.5c-3.1 1.1-2.5 2.6 1.2 3l3.2.3-3.7 2.2c-2.1 1.2-3.8 2.6-3.8 3.1 0 1.7 6.9 4.2 10 3.6 2.4-.5 3-1.2 3-3.2 0-2.5.1-2.5 1.7-.9 1 1 2.2 4.1 2.8 7s1.4 5.2 2 5.2c1.5 0 1.8-15.4.3-17.2-2.6-3.2-11.9-4.9-16.7-3.1m26.2.3c-3.7 1.6-4.7 5.5-1.4 5.5 1 0 2.6 1.1 3.5 2.5 1.3 1.9 2.5 2.5 5.4 2.5 4.6-.1 8.8-3.2 7.6-5.7-.4-1-.8-2.5-.8-3.3-.2-2.8-9.1-3.8-14.3-1.5m-11.3 23c-1.1 1.3-.8 2.1 2 5 1.9 1.9 3.6 3.5 3.9 3.5a21 21 0 0 0 4-4.1c2.4-3 3-4.4 2.2-5.2q-1-1.2-3.6.3c-2.1 1.1-3 1.2-4.5.2-2.5-1.5-2.5-1.5-4 .3m4 9.5c-3.6.3-7.1.9-7.7 1.3-3.3 2.1-.6 2.7 11.2 2.5 6.9-.2 12.5-.6 12.5-.9 0-2.6-6.4-3.7-16-2.9m-1 7.5c0 1.5 2.6 2 5.4.9s1.7-2.4-1.9-2.4q-3.6 0-3.5 1.5m-66-21c-2.2 2.6-.8 5 3.3 5.3 3.1.3 3.7 0 3.7-1.6 0-2-2.9-5.2-4.7-5.2q-1 .2-2.3 1.5m129 49.6q-1.2 2.2-.1 1.5 1-.6 1.1.3c0 .5-.7 1.4-1.6 1.9-1.5.8-1.5 1 0 1.5q1.6.6 1.6-1-.1-1.8 1.4-.4c1.2 1 1.7.8 2.7-1.1q1.4-2.7-.2-1.1-3 2.7-2.2-.6c.7-2.7-1.4-3.5-2.7-1m7.2 8.8c.4 1.3 1.8 1.6 1.9.4q-.1-.7-1.1-1.2-1.2-.2-.8.8m15.8 22q.1 1 1.1 1.6 1 .8.5 2.1t.4 1.4c1.1 0 1.3-2.1.4-4.4-.7-1.7-2.4-2.2-2.4-.7m6.6 6.8q-.5 1.3 1.9 1.3 2.4-.1 2.5-1.4c0-1.8-3.8-1.7-4.4.1m13.3 25.8-.4 4.1c-.4 3.9.9 6.4 2.6 4.7q1.4-1.2-.5-2.8-1.7-1.7-.7-2.9t.1-2.6q-1-1.3-1.1-.5M185 258q.1.9 1.1 1 .8-.1.4-1-.6-1-1.1-1-.3 0-.4 1m-9 3.1q.1.8 1 .4 1-.6 1-1.1 0-.4-1-.4-.9.1-1 1.1m4.5 6.4-1 3q-.2 1.4.9 1.5c.8 0 1.6-1.4 1.8-3 .5-3.1-.9-4.2-1.7-1.5m89.2-8.4q-.6 2.1 1.1 1.7c2.1-.4 2.9-3.8.9-3.8q-1.4.1-2 2.1m3.6 3c-1.5 1.5-1.7 3.9-.4 3.9q.8.2.7 1.7-.3 1.8 3.3 1.9l3.5.2-2.4-1.8q-2.3-1.7-1.7-3.4.6-1.4-.2-1.1t-1.3-1q-.1-2-1.5-.4M279 273c0 1.9 1.1 2.6 2.3 1.4.8-.8-.3-3.4-1.4-3.4q-.8.2-.9 2m5 4.6q.1 1.3 1 .9 1-.6 1-1.6 0-.8-1-.9-.9.1-1 1.6m2 3.4q.1.9 1 1 1-.1 1-1t-1-1a1 1 0 0 0-1 1m3.7 5.4q-.7 2.4 1.5 2.6c1.1 0 1-2.7-.1-3.4q-.9-.4-1.4.8m22.8 43.6q.6.9 1.1 1 .4-.1.4-1-.1-1-1.1-1-.8 0-.4 1m-41.1-38.6c-1 2.7-2 46-1.1 51.6s.7 10.7-1.4 35.7c-.6 7.9-.8 15-.5 16 1.5 3.8 2.8-1.2 4.7-17.3 1.7-13.7 2.1-23.6 2.1-51.9.1-31.9 0-35-1.5-35.3q-1.7-.2-2.3 1.2m-6.9 43.6c-.3.6-1.1 5.4-1.6 10.8-1.6 15.4-4.8 40.9-6.4 50.2q-1.5 8.6-1.5 30c0 22.3-.7 27.5-4.5 33.7q-2 3.2-4.2 3.3c-2 0-16.3 11.4-16.3 13 0 2.9 5.5.7 11-4.5 2-1.9 4.8-3.5 6.5-3.7 2.6-.3 3.4-1.3 6.9-8.3l4-8 .3-24.5c.3-18.9.8-27 2.3-35.5 2.1-12 5.5-37.5 6.6-49.8.5-6.6.4-7.7-.9-7.7-.9 0-1.9.5-2.2 1m-40.8 22.7c-.4.4-.5 7-.1 14.7.6 14.1-.2 22.3-5.6 51.7-.5 3-1 6.5-1 7.7 0 2.4 2.2 2.9 3.7.9a51 51 0 0 0 3.8-21.2c.1-5 1-15 1.9-22.4 2.4-18.4.9-35.1-2.7-31.4"/><path d="M249.1 359.4a25 25 0 0 0-1.3 9.3c0 4.3-.2 8.1-.4 8.5-.2.3-.6 7.5-.8 16a153 153 0 0 1-3.6 31.3c-1.8 9.8-6.8 30.1-8.9 35.5-1.1 3-2.8 5.9-3.7 6.5l-4.8 3.2c-10.3 7.4-12.1 8.3-16.9 8.3-3.4 0-6.1-.8-9.2-2.6-4.4-2.5-8.5-2.9-9.2-.8-.2.7.9 1.7 2.4 2.3 1.5.7 4.4 2.1 6.3 3.2 2.8 1.6 4.8 1.9 10 1.6 6.6-.4 8.1-1.1 19.8-8.9 6.8-4.6 10-12.2 15.4-36.8s6.7-34.7 7-51.8c.2-10.2.6-14.6 1.5-15.4 1.6-1.3 1.7-6.2.3-8.9-1.3-2.3-2.3-2.4-3.9-.5"/><path d="M224.2 437.3c-.6.6-2.2 4.2-3.7 7.9s-4.4 8.7-6.4 11l-3.8 4.2-8.7.2c-8.7.2-13 1.6-9 3l4.4 1.5c1.4.5 4.1.5 6.2 0 2-.5 3.9-.6 4.2-.3s1.9-.1 3.5-.8c6.9-2.8 19.2-25 15.2-27.4q-.9-.4-1.9.7m-78.3 36.1c-19.5 6.6-29.4 15.7-33.6 31.1-2 7.5-2.6 25.6-1.2 37 .6 5.5 1.2 13.6 1.3 17.9.1 9.2 2 11.6 3.2 4 .9-6.5.8-11.7-.4-20.4-2.3-15.4-.6-36.4 3.6-46 4.6-10.8 19.8-19.8 34.5-20.8 7.4-.4 8-.3 12.9 2.7q5 3.2 6.1 2.2c1.3-1.3-2.2-7.3-5.4-8.8-3.7-1.9-13.6-1.4-21 1.1"/><path d="M291.1 475.5q-5.5 2.6-6.5 1.5c-3-3-14.6 1.2-20.6 7.5-3.6 3.8-11.6 8.5-14.7 8.5-1 0-4.5 1.2-7.8 2.6-16.3 7-25.7 6.3-45-3.1-13-6.3-13-6.3-26.5-7.7-7.4-.7-14.8-1.2-16.5-1-6.7.6-19.6 12.5-16.7 15.4q1 1.1 4.4-1.5c1.8-1.4 5.2-3.3 7.5-4.2s4.4-2.3 4.7-3.1c.7-1.8 8.8-1.8 22 0a47 47 0 0 1 17 5.1c3.9 2.1 7.8 4.3 8.6 5 2 1.8 6.5 3.5 12.4 4.6 6.1 1.1 14.6-.2 27.6-4.3 13.5-4.2 19.1-7 25.4-12.7s7.8-6.6 12.6-7.5c3.3-.6 2.9 0-7.6 10.1-6.1 6-14.3 15.1-18.1 20.3s-8.7 11.6-10.9 14.2l-6.6 8.7c-2.1 3.2-3.4 4.1-5.6 4.1-3.1 0-7.5 2.7-6.7 4.1.4.5 3 .9 5.8.9h5.2l5.9-8c3.3-4.5 6.9-9.2 8-10.5 1.2-1.3 3.9-4.9 6.1-8 8-11.2 13.8-17.7 22.7-25.3 10.2-8.7 15.5-12.2 20.1-13.1q3.3-.6 3.2-2.6 0-4.3-9.4 0m21.9 8.3c-5.1 2.5-4.9 4.8 1.3 12.8A53 53 0 0 1 326 518c1.5 6.8 2.3 8.5 4.1 8.5 1 0 1.4-1.4 1.4-5a52 52 0 0 0-12-25.5c-2.5-3-4.4-5.9-4.2-6.5s1.8-1.1 3.5-1.3c4.1-.4 4.5-3.8.6-5.2-3.1-1.2-2.3-1.3-6.4.8"/><path d="M153.3 494.7c-3.5 1.4 2 7 5.7 5.8 4.4-1.4 22.6 10.6 45.8 30.1 10.5 8.8 16.6 16.1 16 19.2-.4 2.4-4.6 2.7-6.9.6-1.7-1.5-2.1-1.6-3.3-.3-1.1 1.2-.7 3.3 2.5 13.4 2.2 6.6 6.4 16.9 9.4 22.8 3.1 6.1 6.4 14.4 7.5 19 4.3 17.2 5.3 20.4 9.1 27.9 2.2 4.4 7.6 12.2 12.5 18 4.7 5.7 9.6 12 10.8 14 2.3 4.2 4.4 5.5 5.2 3.3q1.1-3.2-12.6-19.5a80 80 0 0 1-18.5-35.1 112 112 0 0 0-10.2-29.4 134 134 0 0 1-10.3-29q0-1.8 1.8-1c4.7 1.8 7 1.7 8.1-.3 2.6-4.8-4.4-15.3-17.6-26.4a393 393 0 0 0-38.8-28.8 85 85 0 0 0-14.4-4.9zm159.3 12.5c-2.3 3.2-2.1 4.3 2.9 14.6 2.5 5.1 5.9 13.4 7.6 18.5a36 36 0 0 1 2.5 19.7c-.4 5.8-1.1 14.1-1.6 18.5l-1.4 15-4.3 46.5c-.3 3-1.2 6.4-1.9 7.5-1.1 1.6-1.2 6.6-.8 22.9.5 20.3 1.1 24.6 3.7 24.6 2.3 0 5.5-2.9 6.1-5.6.8-3.2-.8-5.4-2.6-3.6q-1.2 1.1-2.1 1.2c-1.2 0-.1-41.7 1.2-46 .5-1.9 1.7-13 2.6-24.5a858 858 0 0 1 3.6-36.3c3-23.9 2.7-30.9-2-43.9-2.1-5.9-5.2-13.6-7-17-3.6-7.3-3.8-8.4-1.1-10.1q1.8-1.2 1.4-2.7c-.9-2.2-5.1-1.8-6.8.7m-70 5.7c-9 8.1-13.7 9.2-27.4 6.6a49 49 0 0 1-10.6-2.7q-1-.7-2.9-.8-2-.1-1.5 2.2c.3 2.4 2.3 3.3 14.5 6 7 1.6 17.3.9 22-1.6a54 54 0 0 0 14.8-13.4c0-3.2-2.6-2.1-8.9 3.7"/><path d="M153.1 515.2q-10.6 5.2-14.2 16.7a71 71 0 0 0-2 29.3c1.2 7.1 6.1 23.2 8.4 27.6 1.6 3 3.5 10 4.8 17.5.9 5.5 2.3 7.7 4.9 7.7 2.8 0 4-5.1 2.1-8.8-.5-.9-1.5-4.4-2.1-7.7s-3.1-11-5.5-17a83 83 0 0 1-7.3-37.4c.5-14.2 2.2-17.5 11.5-22.6 5.2-2.9 7.3-3.5 9.7-3 8.3 1.7 11.4 0 5.5-2.9-4.5-2.2-10.6-2-15.8.6"/><path d="M155.6 548.1a13 13 0 0 0-2.7 5.7 91 91 0 0 1-1 10.7c-.1.6.2 2.1.8 3.5a96 96 0 0 1 4.3 19.1c0 1.4.4 2.9.9 3.5 3.1 3.2 6.7 39.9 4.7 47.5-.7 2.9-.4 7.2 1.4 18.4a84 84 0 0 1 1.5 23.8c-1.2 15-1.2 16.2.5 16.2q1.4-.1 2.1-3.5l.6-3.5.2 3.1c0 1.7 1 5.7 2.1 9a59 59 0 0 1 2 6.6c0 1.4-2.9.8-6.7-1.2-4.8-2.6-7.7-2.5-11.2.1-2.3 1.7-3.3 1.9-4.9 1-2.7-1.5-3-1.4-4.2.8-1.9 3.6 5.6 10.2 9.1 8 1.1-.6 1-1.2-.5-2.8-1.7-1.9-1.7-2 1.3-3.5 3.9-2.1 5.8-2 10.6.4 2.2 1 5.7 2.2 7.8 2.5s3.7 1 3.7 1.5c0 1.8 4 3.2 5.6 1.9 1.8-1.5 1.8-6.3-.1-7.9-3.4-2.8-8.9-28.4-10-46.5a53 53 0 0 0-2.2-14q-1.4-2.8-2.3-20c-.8-16.7-4.3-41.8-7.3-52.5-.9-3-2.1-8.9-2.7-13-1.1-6.8-1-7.9.8-12.2 1.1-2.5 1.8-4.9 1.5-5.2q-2-2-5.7 2.5m-38.1 27.7-2.5 3.7.6 27.5c.9 48.3.6 57.9-1.7 63.5-.6 1.6-1.3 7.9-1.4 13.9l-.1 10.9-4.6 4.1a45 45 0 0 0-6.7 7.8c-2.5 4.1-3.3 4.5-11.1 5.3q-5.4.5-9.3 3.2c-4.9 3.4-10.7 10.1-10.7 12.4 0 3.1 1.9 3.1 3.5-.1.8-1.6 2.6-3.7 4-4.6a9 9 0 0 0 3-3.4c.6-1.9 6.2-3.2 13.9-3.4 3.3-.1 4.4-.7 7.5-4.5 2-2.4 6.2-7.2 9.5-10.7 6.4-7 7.5-9.9 7.6-21.2 0-3.4 1-14.7 2.1-25 2.3-19.9 2.2-37.9-.2-61.5-1-9.5-.9-11.3.6-15.2 2.7-7.2.1-8.9-4-2.7m17.2 20.4a6 6 0 0 0 .9 4.6c1.2 1.8 1.3 2.6.3 3.8-.6.8-1.1 4.3-1.1 8.2a365 365 0 0 1-6.4 65.2c-2.2 12.8-2.2 12.5.1 12.5s2.7-1.2 5-14.5q4-22.6 5.5-49c.9-13.3 1.5-17.3 3.1-20.7s1.9-4.5.9-6.5c-3.1-5.9-7.3-7.7-8.3-3.6"/><path d="M142.9 614.6c-1.1 1.4-1.4 6.6-1.5 24.8 0 23.6-.1 24.8-4.9 43.7-3.1 12.2-4.2 14.2-9.4 16.8-6.9 3.6-24.1 23.7-24.1 28.2 0 5.5 5.1 2 8.6-5.8 1.3-3 3.5-5.8 5.1-6.8s3.7-3.1 4.8-4.8c1.1-1.8 4-4.2 6.5-5.3 9-4.3 14.6-13.3 16.1-25.9.4-3.9 1.2-9.8 1.8-13.2.7-3.8.9-11.5.5-19.5-.3-7.3-.7-17.6-.7-23-.1-5.3-.5-9.9-.8-10.2q-.6-.5-2 1m89.8 26.6c-.3 1.1 1.6 6.3 4.4 12 .5 1 .9 2.6.9 3.6 0 1.1 1.5 3.9 3.3 6.3 10.6 13.9 13.8 19.8 15.7 29.1.6 3.2 1.6 6 2.1 6.4a132 132 0 0 0 19.9 25.9c4 3.8 10.7 4.2 14.1.8 3.4-3.3 1.9-5.4-3.3-4.8-5 .7-7-.8-15.4-11.5-8.8-11.3-11.3-15.5-13-22.6-2.4-9.8-3.2-11.3-17.4-32.4-.9-1.4-2.2-4.1-2.8-6-2.1-5.9-7.3-10.1-8.5-6.8"/><path d="M252.7 658.7c-1.4 1.3-.6 5 1.3 6.8 3.1 2.8 4.6.7 2.9-3.9q-1.9-5.1-4.2-2.9m14.6 15.2c.4 1.6.2 3.3-.3 3.6-1.7 1.1-1.1 4.4 1 5.5q4.1 2.3 3.9-3.3c-.2-5.1-1.3-8.2-3.3-8.5-1.6-.3-1.8.1-1.3 2.7m25.8 34.4a14 14 0 0 0-5.5 4l-2.1 2.9 2.4 1.9c3.3 2.7 4.5 2.4 9.1-1.9 6.8-6.5 4.9-10-3.9-6.9m-130.7 6.1c-.6 1.6 8.2 10.2 12.9 12.7 1.8.9 7 2.4 11.7 3.4s10 2.5 11.9 3.6q3.4 2 4.5 1c.7-.6 2.1-.8 3.3-.5s3.4-.1 5.1-1 4.5-1.6 6.1-1.6c3.5 0 5.9-3.1 3.8-4.8-3.6-2.8-12-1.1-15.6 3.1q-1.3 1.6-2.5.9c-.6-.5-4.2-1.7-8.1-2.6-17-4.2-19.1-5.1-25.7-11.2-5-4.7-6.5-5.3-7.4-3M134.5 268q.6.9 1.1 1 .3-.1.4-1-.1-1-1.1-1-.8 0-.4 1m-5 34.8c-1.3.9-1.7 5.2-.5 5.2q1-.1 1-1 .1-1 1.5-1c1.4 0 1.5-.4 1.5-.9 0-1.4-2.5-3-3.5-2.3m-6.5 5.7c0 1.7-.5 3.6-1.2 4.3q-1.3 1 .3 2.8c1.3 1.5 1.5 1.3 2-2.7.4-2.4.3-5.1-.2-5.9q-.8-1.7-.9 1.5m9.1 4.1q0 1.7.6.6c.3-.7.2-1.6-.1-1.9q-.6-.5-.5 1.3m3.9 7q0 2.3.9 2c.5-.3.7-1.5.4-2.6q-1.2-4.1-1.3.6m-14.5.4q-.4.9.4 1 1-.1 1.1-1 0-1-.4-1-.6 0-1.1 1m14.5 6.9q.1 1 1 1.6 1 .4 1-.9 0-1.5-1-1.6-.9 0-1 .9m-6.5 1.1q-.4.9.4 1 1-.1 1.1-1 0-1-.4-1-.6 0-1.1 1m15 7q-.6.8-2 .3-1.6-.6-.9 1c.6 1.8 3 1.2 3.8-.9.6-1.6 0-1.9-.9-.4m-31 5q.5.9 1.1 1 .3-.1.4-1-.1-1-1.1-1-.8 0-.4 1m29 0q.6.9 1.1 1 .3-.1.4-1-.1-1-1.1-1-.8 0-.4 1m-23.5 5.4q0 1.5-1 1.6t-1 2c-.1 1.8.4 2 .8 2 1.2 0 3.1-5.9 2.1-6.6q-.8-.3-.9 1m-9 2.5q.1 1 1 1.6 1 .5 1-.4a2 2 0 0 0-1-1.6q-.9-.5-1 .4m-1.4 15q-.5.9.3 1.5t1.5-.3q.5-.9-.3-1.5t-1.5.3m7.4 2.2q.1.8 1 .4 1-.6 1-1.1 0-.4-1-.4-.9.1-1 1.1m229.6-59.3c-.7 1.2 2.2 3.8 3.1 2.8.4-.3 0-1.4-.9-2.2q-1.5-1.5-2.2-.6M330 358q.1.9 1 1 1-.1 1-1t-1-1a1 1 0 0 0-1 1m14.6 26.9q-.4.9.9 2.1 1.6 1.6 1.5-.3c0-1.9-1.6-3.1-2.4-1.8m-4 5.7q-1.1 3.6 1.3 1 1-1.4.3-2-1-.4-1.6 1m7.5 5.1c-.1 1.2.5 2.8 1.2 3.5.8.7 1.2 1.9.9 2.6q-.3 1 .6 1.2 3 0 .3-3.9c-1-1.4-2.1-3.3-2.4-4.1q-.6-1.5-.6.7m1.4 12.8a6 6 0 0 0 1.8 3.8c.8.6 1.7 2.3 1.9 3.7q.7 4.4 3.2.8c.8-1.4.4-2.3-2.2-4.9-1.7-1.7-3.2-3.8-3.2-4.5q-.1-1.3-.8-1.4c-.7-.1-.7 1.1-.7 2.5m15.5 29.4c0 .5.5 1.3 1 1.6q1 .5 1-.4a2 2 0 0 0-1-1.6q-.9-.5-1 .4m7.4 25.7c.3.9.6 2 .6 2.5s.4.9.9.9.6-1.1.3-2.5-.9-2.5-1.4-2.5q-.9.1-.4 1.6m-.4 6.3q.1 1 1 1.6 1 .4 1-.9 0-1.5-1-1.6-.9 0-1 .9m2.1 5.7q0 1.7.6.6c.3-.7.2-1.6-.1-1.9q-.6-.5-.5 1.3m.9 3.3c0 .5.5 1.3 1 1.6q1 .5 1-.4a2 2 0 0 0-1-1.6q-.9-.5-1 .4m3 16q.1 2 1 2.1 1-.1 1-1.4c0-.8-.4-1.8-1-2.1q-.9-.4-1 1.4M93.8 413.2q1.2 1.3 2.4 0 1.5-1.3-1.2-1.2c-2.7.1-2.1.3-1.2 1.2M84 428q.1.9 1 1 1-.1 1-1t-1-1a1 1 0 0 0-1 1m262.7 24.7q-.6.6-.7 1.7 0 .9 1.2-.2 1-1 .7-1.7-.6-.4-1.2.2m12.3 96.7q-.2 1.3-1.2 1.9-1.1.5-.5 1.2.8.6 2.2-1.1 2.6-3.4.5-3.4-.9.1-1 1.4m-2.4 10.4q-.4 1 .5 1.7c1.4.9 2 .2 1-1.4q-.9-1.2-1.5-.3m.1 18.9q-.6.6-.7 1.7 0 .9 1.2-.2 1-1 .7-1.7-.6-.4-1.2.2m.8 3.3q-.4.9.9 1 1.5-.1 1.6-1 0-1-.9-1t-1.6 1m-.5 7.5q0 1.3-1.2 1.5-1.3 0 0 1.2c1.4 1.4 1.7 1.1 2.6-2q.7-2-.3-2.2c-1-.2-1.1.7-1.1 1.5m-1.8 18.7c-.7.7-1.2 2.1-1.2 3.3s-.5 2.6-1.2 3.3c-1.3 1.3-.5 2.7 1.1 1.8 1.1-.7 3.5-8.5 2.8-9.2q-.4-.2-1.5.8m44.1 79.5-1 2.8q-.3.7 1.1-.9c1.6-2 2.1-3.6 1.1-3.6q-.5.2-1.2 1.7m-8.6 1q-.6.6-.7 1.7 0 .9 1.2-.2 1-1 .7-1.7-.6-.4-1.2.2m-4.1 9.9q-.6 1.5-.1 2.2.4.3 1.1-1.2.6-1.5.1-2.2-.4-.3-1.1 1.2m-3.3 7.1q.5.6-.6 2.2-1.7 2 .6.2c2-1.5 2.2-3.1.5-3.1q-1 0-.5.7m-17.7 3.2q-.6 1.2-.2 1.8c.9.9 1.9-.4 1.4-1.8q-.4-1.7-1.2 0m18.8 2.6c-1.7 1.3-1.7 1.4-.2 1.5.9 0 2-.5 2.3-1.1 1.1-1.7 0-2-2.1-.4M215.5 789q-.4.9.4 1 1-.1 1.1-1 0-1-.4-1-.6 0-1.1 1m-22.5 4.5q.2 1.4 2.1 1.5c1.8 0 1.9-.2.9-1.5q-1.2-1.3-2.1-1.5c-.9-.2-.9.7-.9 1.5m98.1 1.1q0 1.7.6.6.4-1.2-.1-1.9-.6-.5-.5 1.3m-46.1 4.8q.1.4 1.6 1 1.3.5.9-.4c-.6-1-2.5-1.4-2.5-.6m13.7 3.3q-.6.6-.7 1.7 0 .9 1.2-.2 1-1 .7-1.7-.6-.4-1.2.2M130 804q.1.9 1.1 1 .8-.1.4-1-.6-1-1.1-1-.3 0-.4 1m84 3.5q.1 1.3 1.6 1.5 2 .2.4-1.5-1.2-1.3-1.6-1.5-.3.2-.4 1.5m209.1-625.2q-2.3 2.8 3.4 2.7c1.8 0 4.9 1.1 7 2.6 3.4 2.3 4.1 2.4 6.8 1.3 2.8-1.2 3.1-1.1 5.6 1.9q4 4.8 8 2.3c1.1-.7.6-1.8-2.8-5-4.7-4.5-4.9-4.6-8.4-3-2.1.9-2.8.7-5-1.5s-3.5-2.6-8-2.6c-3.3 0-5.9.5-6.6 1.3m-1.5 9.4q-7 .4-9.7 2.3c-1.5 1.1-3.4 2-4.2 2s-2 .7-2.7 1.5c-2.4 2.9 1.9 2.9 7.3.1l5.2-2.7 2.3 2.8 2.3 2.8 2.4-2.9c2.3-2.8 2.4-2.9 4.7-1.3l4.5 3.3c2.3 1.7 4.3 1.2 4.3-1.1 0-1.5-7.3-7.6-8.6-7.3-.5.1-4 .4-7.8.5m56.7 79.3c-5.5 2.5-8.1 5.4-8.8 9.7-1.6 9.6-1.4 9.3-5.1 9.3-5.3 0-14.9 5.3-18 9.9s-4.4 14.4-2.5 17.9c1.5 2.7 5.7 3.1 4.6.4-2.3-5.8-1.2-14.4 2.4-18.6 2.6-2.9 8.7-5.6 12.9-5.6 2.2 0 5.2-.7 6.8-1.5 2.5-1.3 2.8-1.9 2.5-5.6q-.7-8.5 5.7-11.5c3.2-1.5 3.9-1.5 6.1-.3a7 7 0 0 1 3.1 3.9q.6 2.5 3 2.8c5.7.7 8.9 4 5.6 5.9-.7.4-2 2.2-2.9 3.9a9.4 9.4 0 0 1-11.2 4.7c-4.1-1.3-5-.7-5.9 3.6-.5 2.8-.2 3.9 1.6 5.9 3.2 3.3 3.2 10.8 0 15.1q-2.4 3.1-1.6 5.6c.6 2.3 1 2.5 7.1 2.5 6.9 0 7.5.4 14 8.7 3.1 3.9 3.1.7-.1-5.5a13 13 0 0 0-10.5-8l-3.2-.7-.2-10.9-.2-11 5.2-2c6.7-2.7 11.3-8.6 11.3-14.6 0-2.2-.4-4-.9-4s-1.3-.9-1.6-2-1.3-2-2.2-2a15 15 0 0 1-5.5-3.4c-5.1-4.4-6.8-4.8-11.5-2.6m-82.4 79.2-.6 4.3c-.8 7.5-.2 14.8 1.7 18.4a39 39 0 0 0 11.9 13.5 43 43 0 0 0 20.7 2.7q6.9-1.9 4.4 2.9c-2.8 5.2 1.8 16.8 9.4 23.7 5.4 5 11.7 7.2 23.1 7.9l8 .6 5.5-4.4c7.8-6.3 10.7-10.9 12.2-19.6 1.2-7.1 1-8.6-1.9-17.4q-.6-1.9 2.3-2.8c3.5-1.4 7.4-5.5 7.4-8 0-1.7-.8-1.4-5.7 2l-5.7 4-2.1-2c-4.1-3.9-7-1.5-3.6 3.1 1.1 1.5 2.1 3.1 2.1 3.5s1 2.7 2.1 5.2c1.7 3.4 2 5.5 1.6 9.8a29 29 0 0 1-9.1 17.7c-4.2 3-17.3 5-23.7 3.6-8.4-1.8-17.2-11.6-19.4-21.6-.5-2.5 0-4.4 2.1-8.3q4.2-7.6-.3-5.5a33 33 0 0 1-18.9 2c-10-1.9-16-7.1-19.4-16.7a19 19 0 0 1-.9-11.1c.5-3.2.7-6.2.4-6.8-.5-.8-3.3-1.3-3.6-.7M16.4 764.5q-2.1 1.3-.7 2.6c1.4 1.5 4.3.5 4.3-1.5 0-2.2-1.5-2.7-3.6-1.1m8.9 1q-.4 1.5.1 2.3c.8.8 3.8-1 4.4-2.6.6-1.8-3.8-1.4-4.5.3M0 771.7v3.6l2.6-2.4c2.3-2.2 2.4-2.4.8-3.6-2.8-2-3.4-1.6-3.4 2.4m19.7-3.1c-.8.8.1 2.4 1.4 2.4q.8-.2.9-1.5c0-1.5-1.2-2-2.3-.9m400.3 9.9q.1 1.3 1 1.5 1-.2 1-1.5c0-1.3-.4-1.5-1-1.5q-.9.2-1 1.5m22-.1q.1.4 1.6 1 1.3.5.9-.4c-.6-1-2.5-1.4-2.5-.6m-7 2.1q-1.6 1.7.3 1.5c1.9 0 3.1-1.6 1.8-2.4q-.9-.4-2.1.9m-15.4 3.2q-1 2 .5.6 1.1-1.2.7-1.8-.6-.4-1.2 1.2m30 4.9q-1.2 3 1.1 1.6 1.1-.7.4-2.1t-1.5.5m29.9 6.4c-.7 1.2 1.1 4 2.6 4 1.4 0 1-2.6-.5-3.9q-1.4-1.3-2.1-.1M44 831.4c0 .8.5 1.8 1 2.1a101 101 0 0 1 0 28c-1.2.7-1.4 4.5-.2 4.6 5.1.7 8.8.6 9.8-.2q1.1-.9.6-7.9c-.3-4.4-.1-7 .5-7s4.3 3.4 8.3 7.6l7.2 7.6 8.2.5c15.4.8 24.8.9 25.3 0 .3-.4-.2-1.6-1-2.5-1.2-1.3-1.5-4.7-1.6-14.7l-.4-16-.2-3-6.5.4c-7.8.4-8.6.8-6.5 3.1 1.3 1.5 1.5 3.6 1 14.6-.5 9.7-1 13.3-2.2 14.6q-1.5 1.6-2.6 1.1c-.5-.3-2.9-.7-5.3-.9-4.9-.3-6.7-1.5-13.8-9.1-5.7-6.2-5.7-6.3 4.4-12.8a60 60 0 0 0 8.9-6.8l2.4-2.6-2.7-1.1c-4.4-1.6-7.7-1.3-8.3 1-.5 1.9-12.3 11-14.3 11-1.5 0-2.4-6.9-1-8.5.7-.8 1-2.2.6-3-.8-2.1-11.6-2.2-11.6-.1m63.5-.4c-.4.6-.2 1.7.5 2.5q1.2 1.2.9 16.7l-.2 15.3 5.4.7q9 1.2 6.2-3.1c-.6-1-1.5-6.7-1.9-12.6-.9-13.8.1-13.7 7.7 1.1 6.2 11.9 8.1 14.4 11.5 14.4 4.2 0 4.9-2.4 4.9-16.7 0-10.1.4-13.6 1.4-14.2.7-.5 1.1-1.7.9-2.7-.2-1.5-1.3-2-4.7-2.2q-8.2-.5-4.6 3.7c1.4 1.6 1.9 4.3 2.3 13.6q.4 11.4-.5 11.5c-.9.1-4.1-6-7.8-13.3a258 258 0 0 0-7.7-14.5c-1.3-1.5-13.4-1.7-14.3-.2m47.9 1.8c-1.8.9-4.4 3.2-6 5.1-5.2 6.2-4.3 20.9 1.4 24 5.8 3.1 13.8 5 18.6 4.5a34 34 0 0 0 5.8-1c.4-.3.6-3.3.5-6.7l-.2-6.2-6.4-.3c-8-.4-9.8 1-4.6 3.5 5.5 2.6 5.9 4.8.9 4-8.4-1.4-11.8-10.2-8.2-21.5 1.7-5.7 8.8-6.7 8.8-1.2 0 4 2.2 5.5 5.7 3.8 2.4-1.1 2.8-1.9 2.8-5.3v-4l-8-.2c-6-.2-8.8.2-11.1 1.5m87.1-.5c-4.5 2.1-8.7 7.4-7.9 10.1 1.6 5.2 6.8 9.5 11.6 9.6 4.5 0 6.9 3.9 5.2 8.4q-.7 1.6-4.2 1.6c-3 0-4.3-.8-8.3-5.1-6.1-6.6-8.4-6.4-8.4.7 0 2.9-.6 5.9-1.4 6.7-2.2 2.7-.5 3.4 7.6 3 18.5-.9 20.4-1.3 23.4-4.6 3.7-4.1 4-11 .7-15.2-2-2.5-2.5-2.7-7.1-2.1-5.5.6-7.7-.4-7.7-3.5 0-2.5 3.5-5.9 6-5.9q2 0 2 2c0 2.5 2.5 3.6 4.5 2 1.7-1.4 2-6.6.5-7.5a34 34 0 0 0-16.5-.2m22.7-.4c-1.1.6-.8 1.6 1.1 4.5 1.4 2 4 7.1 5.7 11.3a126 126 0 0 0 8.6 16.8c2.4 4.2 8.1 2.3 6.9-2.3-.3-1.3-.2-2.9.3-3.5a22 22 0 0 0 2.1-4.9c.7-2.1 1.6-4 2.1-4.3s2.7 2.8 4.9 6.9c7 12.6 9.1 12.6 13.9.4 5.2-13.2 9.5-21.2 12-22.3q6-2.5-4.8-2.5c-4 0-7 .4-7 1q.2.9 2 1c1.8.1 2 .4 2 .8 0 1.7-8.7 20.4-9.5 20.3s-8.5-16.7-8.5-18.7q0-1.3.8-1.5c2.2-.2 4.5-.8 5-1.4 1.3-1.2-2.4-2.6-5.8-2-1.9.2-5.2.5-7.2.5-4.5 0-5 1.9-1.9 7.2 1.9 3.3 1.9 3.3-.3 9.2a19 19 0 0 1-3.2 6.3c-1.4.5-9.5-18.2-8.8-20.2q.6-1.7-.7-2.6c-1.8-1.1-8-1.1-9.7 0m61.5 4.1q-10.8 12.2-4.2 23.7c6.2 10.5 23 11.1 27.9.9a31 31 0 0 0-.6-21.4c-2.9-5.7-5-7-12.4-7.8l-6-.6zm13.3 1c3.9 2.1 5.6 11.7 3.6 20.5l-.5 2.6q-.3.8-2.7 2.3c-3.1 2.1-7.8.9-11.3-2.8-2.3-2.5-2.3-3.4.5-17.4 1-5 6.1-7.5 10.4-5.2m15.1-5.1c-1.6 1-.6 3.1 1.5 3.1 1.1 0 1.4 2.5 1.4 14.3a51 51 0 0 1-1.1 15.4q-2.9 3.1 5.7 3.3c4.7 0 5.4-.3 5.4-1.9 0-1.1-.4-2.3-1-2.6s-1-4-1-8.1c0-7.1.1-7.4 2.4-7.4 1.8 0 2.5.7 2.9 2.7.8 3.9 6.1 11.8 9.1 13.8s8.7 2.5 9.3.8c.2-.6-1.2-2.6-3.3-4.5-4.4-3.9-8.4-10-8.4-12.7 0-1 1.6-3.1 3.5-4.5q6.4-4.9 1-10.1c-2.3-2.4-3-2.5-14.2-2.5-6.5 0-12.4.4-13.2.9m20.2 4.7c3.7 1.1.2 6.4-4.2 6.4-4.1 0-5.2-1.2-4.5-4.9.7-3.3 1.5-3.5 8.7-1.5m16.4-4c-.4.4 0 1.6 1 2.6 1.3 1.5 1.7 4.5 1.9 17.1l.2 15.2 5.3.6c5.7.6 14.8-1.1 18.6-3.6 3.7-2.4 5.3-7.2 5.3-15.4 0-9.1-2-13.3-7.2-14.9-4.2-1.3-24.1-2.5-25.1-1.6m21 5.6a31 31 0 0 1 2.3 20.2c-1.1 3-6.2 5.8-9.8 5.4l-2.6-.3.2-13 .2-13.3c.1-.9 8.9 0 9.7 1m22.7-4.6c-5.1 1.7-8.4 5.6-8.4 9.8 0 4.5 2.7 6.6 9.4 7.5q10.1 1.3 9.4 7.5c-.3 2.9-.7 3.1-5.3 3.9-9.1 1.4-9 1.4-9-1q.1-4-3.2-2.9c-2.3.7-5.7 6.2-5 8 .5 1.1 11.6 2 22.5 1.8 6.7-.1 12.2-14.1 7.4-18.5q-1.9-1.7-7-1.7c-6.3 0-11.2-3.5-11.2-8 0-6 5.9-6.4 7-.5.7 4 3.7 5.6 5.6 3.1 1.5-2.1 1.8-6.4.6-8.2s-8.5-2.3-12.8-.8m-228.2 2q-4 3-.2 8.9l5 7.5c3.4 5.2 4 11.2 1.5 16-1.8 3.6-.3 4 3.3 1 3.4-2.9 5.5-8.6 4.7-13.5-.4-3.1-.2-4.5 1-5.5q3.2-2.6-.6-5.4c-1.7-1.1-2.7-1.2-4.6-.3-2.2 1-2.8.8-4.4-1.2-2.4-2.9-2.4-5.1-.1-5.1q4-.2 2.1-2.7c-1.5-1.8-4.9-1.7-7.7.3m-14.3 17.3c-3.5 3.5-3.5 3.7-.8 8 2 3.2 2.2 3.3 7.1 2.9q8.8-.9 8.8-7.8c0-3.8-2.9-6-7.9-6-3.4 0-4.9.6-7.2 2.9m10.7 1.6c3.1 4.8-1 8.4-5.2 4.5-2.6-2.5-3.2-5.5-1.1-6.3q4-1.8 6.3 1.8m259.6 9.8c-1.6 1.9.8 5 3.4 4.5 2.8-.5 2.6-5.2-.2-5.6-1.1-.2-2.6.3-3.2 1.1"/></svg>