<svg xmlns="http://www.w3.org/2000/svg" width="666.7" height="1170.7" viewBox="0 0 500 878"><path d="M165.1 28.7c-2.3 3.1-4.1 6-4.1 6.4 0 1.7 1.9 1.9 3.2.3l3.6-4.1c2.2-2.4 2.4-2.4 4.3-.7 1.5 1.3 4.9 9.8 4.9 12.1 0 .9-2.9.1-4-1.2-1.7-2-2.7-1.9-4 .6q-1.2 2 0 3.4 1 1.3.2 1.9c-1.4.8-2.9-1.3-3.7-5.4-1-4.7-1.4-5.3-3.1-3.9-1.9 1.5-1.8 7.9.2 10.7q1.5 2.2 4.5 2.2c6.7 0 9.8 4 7.5 9.5-.8 1.9-1.9 3.5-2.5 3.5-.5 0-1.8 1.4-2.8 3q-3.3 6-7.9 2.1c-3.7-2.9-5.7-2.6-9.8 1.3-2.7 2.5-3.6 4.1-3.6 6.7 0 1.9-.7 5.6-1.5 8.3-.8 2.6-1.2 5.3-.9 5.8 1.1 1.7 13.5.3 17.4-1.9a19 19 0 0 0 5.9-6.3c2.3-4 2.3-4.5.9-7s-1.4-2.9.4-5.3l1.9-2.6 5.6 8.1 5.5 8.2-1.2 5.1a24 24 0 0 0 3.6 18.6c2 3 2.6 5.5 3.4 15a150 150 0 0 0 1.5 12.9c.4 1.6 1.5 37.6 1.5 49.5 0 3.8-.4 14.2-.8 23s-.8 24.2-.7 34.1c.2 17.9.2 18.2-1.9 18.2-1.1 0-2.9.2-4 .4-2.1.3-2.6-.5-5-8a39 39 0 0 0-10.1-16q-2.4-1.9-2.7-5.8c-.3-3.7-.1-4 4.3-6.2 7.6-3.9 9.4-9.4 6.5-19.2-.7-2.5-2-4.6-2.8-4.8-2.2-.4-14.2 10.1-16.2 14.1-2.3 4.9-2 7.5 1.4 14.2 1.6 3.2 2.7 6.1 2.4 6.4s-1.9-.2-3.5-1.2-4-1.7-5.2-1.7c-3 0-3.9-.7-8.1-6.3-2-2.6-3.6-5.9-3.6-7.3s-1-3.5-2.3-4.8c-2-2-2.9-2.2-8.6-1.6-5.6.5-6.7 1-9.4 4-1.7 1.9-4.4 4-6.1 4.6-2.5.9-3.1 1.7-3.1 3.9 0 4.3 5.8 8.5 12.8 9.2 5 .5 6.1.3 10.6-2.6 2.8-1.7 5.3-3.1 5.6-3.1 1.4 0 .1 2.8-3 6.6-1.9 2.3-3.5 5-3.5 5.9s1.1 4.9 2.5 8.6c1.3 3.8 2.5 7.2 2.4 7.7 0 .4 1.1.8 2.3 1 3.4.3 11.4-7.7 14.4-14.3 2.1-5 2.7-5.5 5.5-5.5 6.4 0 14.5 12.5 13.3 20.6q-1 7.4 4.2 9.4c1.8.7 2.4 1.7 2.4 3.9q0 2.9 2.7 4.9c1.9 1.4 2.7 2.9 2.9 5.8.4 4.6.9 33.9 1.9 110l.8 55-5.1 2.7c-12.8 6.7-14.6 9.2-2.7 3.8 3.5-1.6 6.6-2.7 6.9-2.3 1.1 1 .6 27.1-.4 27.7-.5.3-2-.1-3.2-.9-5.1-3.6-5.3-.3-.3 3.7l3.6 2.8-.3 9.7-.3 9.7-6.3.5c-3.4.3-6.2.9-6.2 1.5.1 1 .5 1 8.2 0 4-.6 4.7-.4 5.2 1.2.4 1.1 3.6 4.8 7.2 8.3q12.2 11.5 11.2 21.8a29 29 0 0 1-1.3 6.6c-.7 1.7-.5 1.8 1.7 1.3 4.4-1.1 17.9 6.3 20 10.8 1.5 3.2.2 4.5-1.7 1.8-2.1-3-9.9-5.4-16.3-5-6.2.4-10.6 3.2-11 7-.5 4 2.5 3.4 4.2-.8.8-1.9 2.1-3.5 2.8-3.6 5.8-.4 11.8.6 15.1 2.4 3.8 2.1 3.8 2.2 3.2 6.7-.4 2.5-.8 4.7-1 4.8-.2.2-2.6.5-5.4.6q-11.9.5-.2 3.4c1.9.4 3.7 1.4 3.9 2.1.3.9-1 1.1-5.5.6-5-.6-6.6-.4-10.1 1.4-3.7 1.9-4.2 2.6-4.2 5.5 0 3.3 2 6.2 3.3 4.9.4-.3.7-2.1.7-3.9q-.2-5.6 7.2-5.6c3.4-.1 6.8 3 6.8 6.2q0 3.8-19.9 6.5c-10.3 1.5-11.7 1.5-15.2.1a21 21 0 0 0-5.7-1.6c-1.5 0-6.1-1.6-17.2-6-24.8-10-23.4-8.9-23.8-18.8-.6-11.9 2.5-20.2 7.6-20.2.9 0 6.6 3.3 12.6 7.2 15.8 10.6 18.6 12.2 19.8 11 .9-.9-6.3-6.8-13.4-10.8-1.1-.7-2.5-1.7-3.1-2.3s-2.1-1.1-3.4-1.1q-2.1-.1-2.3-1.4a2 2 0 0 0-1.4-1.8c-.7-.2-4.6-3.4-8.6-7.1-8.8-8.4-9.7-10.8-7.6-20.9l2.1-11.1c.5-3.3 1.2-4.1 4.8-5.7q4.2-2 5.3-.9c.7.5 1.5 5 1.9 9.9.8 10.7 1.9 12.3 10.3 16.8 3.3 1.8 6.5 3.8 7.1 4.6.7.8 3.6 3 6.4 4.7s6.8 4.5 8.7 5.9c3.8 2.9 14.1 6.2 15.8 5.1.6-.3-1-1.5-3.6-2.5-6.9-2.7-16.2-8.9-16.2-10.7 0-2.2 3.7-5.9 6.1-5.9 6 0 14.5 7.2 13.6 11.7-.6 3 1.2 4.1 3 1.8 2-2.8 1.6-4.8-1.8-9.1a19 19 0 0 0-14.3-7.4c-3 0-4.5.7-7.3 3.5a21 21 0 0 1-4.1 3.5c-.4 0-3.8-2.1-7.6-4.5a38 38 0 0 0-8.2-4.5c-2.4 0-4.1-5.4-5.4-17a168 168 0 0 1-.4-34.5c1.6-6 8.1-11.5 13.6-11.5 1.4 0 3.1-.7 3.8-1.5 1.6-1.9.7-1.9-6.3.5-12.7 4.2-14.4 6.9-15.3 23.7-.6 14.1-.6 14.1-8 17.3-4.6 2-5.5 3.7-7.5 15-2.7 15.1-2.7 15.3 3.1 21.4l5.3 5.6-3 2.7c-5.6 5.3-6.6 8.6-6 19.6s1.2 12.3 8.3 15.8c2.4 1.1 4.4 2.4 4.4 2.7s-.7 2.5-1.6 4.9c-2.5 6.5-1.2 14 3 18.3q5.8 5.8 29.1 11.8c5.5 1.4 10.2 2.6 10.4 2.8s.2 4.7.1 10.1c-.7 25.7-.3 47.1 1.6 70.5.7 9.2 2.7 11.7 9.8 12.5 6 .7 8.9-.1 13-3.8 4.2-3.6 4.5-4.8 5.1-22.4.3-7.7.7-15.4.9-17 .3-1.7.8-12.7 1.1-24.5.5-20.4.7-21.6 2.7-23.1l2.1-1.6-2.2-2.2q-4-4 1.5-10.4c3.5-4.2 3.3-9.4-.7-13.5-1.7-1.8-3.5-3.2-4-3.2-2.2 0-.6-2.2 2.5-3.5 3.8-1.6 7.6-5.8 7.6-8.4 0-.9-.7-2.7-1.6-3.9-1.9-2.8-1.2-5.2 1.6-5.2 2.9 0 5.3-6 4.5-11.1-.6-3.5-.5-3.9 1.4-3.9 2.7 0 2.6-1-.5-6.7-3.8-6.7-5.2-13-6.4-28.3-1.6-19.1-2.3-22.6-7.4-33.1q-12.8-27-7.1-48.9c1.9-7.2 8.9-14.6 12.9-13.6 3.6.9 3.2 3.2-.8 4.6-5.8 1.9-6.9 3.9-6.8 13.1 0 11.3 2 12.7 14 10.6 3.8-.7 4.2-.5 4.2 1.3 0 3.6 9 20 11 20 1.7 0 1.1-2-3.1-10.2-3-6.1-4.6-11-6.5-20.6-1.3-7-2.9-13.9-3.5-15.4a10 10 0 0 0-8.9-5.8h-3l.4-9.8 1.1-24.7c.4-8.3 1.3-16.6 2-18.5a26 26 0 0 0 1.3-7.3c0-2.2 1.5-6.8 3.7-11.5 2-4.2 4.1-9.9 4.6-12.7.5-2.9 1.9-6 3.4-7.5q4-4.3 1.5-9c-.8-1.5-.5-2.2 1.8-3.8q9.2-6.3 9.2 1.3 0 6.5 6.4 6.5c1.9 0 5.3.7 7.6 1.5s4.8 1.5 5.4 1.5 1.8-2.7 2.4-6c1.5-7.2.5-10.2-4.7-13.7q-6.8-4.6-11.9.5c-2.3 2.3-3.6 2.8-6.1 2.4-3.9-.5-3.9-2.2-.1-6.5 1.7-1.9 3-4.6 3-6s.7-3 1.6-3.5c1.5-.8 1.4-1.3-.7-4.1q-3.6-4.7-5.4-2.1c-1.3 2.1-2.5.8-2.5-2.8 0-4.2 3.2-10.2 5.5-10.2 2.1 0 5.6 7.4 5.3 11.5q-.4 6.5 3 3.2c2.9-3 2.2-9.7-1.4-14.9-1.8-2.3-4-4.5-4.9-4.6-2.3-.5-10.4 8.2-11.2 11.9-.8 4-1.8 4.4-5 2-3-2.4-5.3-1.4-5.3 2.3 0 1.2-.7 3.1-1.5 4.2-.8 1-1.5 2.9-1.5 4.1 0 2.5 5.5 9.3 7.5 9.3q2.6.1 3.9 5.2c.5 2.4.1 2.9-5.9 6.2q-9.7 5.3-8.1 2.7c.3-.5.1-3.3-.4-6.2-1.6-8.3-1.3-66.9.5-83.9.8-8 1.5-21.2 1.5-29.4s.5-21.2 1.1-29.1c.8-9.9.8-17.6.1-25.5-1.2-12.8-.2-18.1 5.1-25.9 6.5-9.5 9-22.3 6.8-33.2-1-4.7-2.1-6.7-6.4-11.2-4.7-5-5.7-5.6-10.2-6.1-2.7-.2-8.1-1-12-1.6-8.8-1.5-12.8-.4-19.1 5.1-2.5 2.2-5.1 3.8-5.8 3.6-1.2-.4-5.6-6.5-5.6-7.8 0-.5 1.3-1.5 3-2.4 2.6-1.4 3.2-1.4 6.3.1s3.9 1.5 8.9 0c4.6-1.3 6.1-2.4 10.1-7.3 2.6-3.2 4.7-6.3 4.7-7 0-2-3.6-3.3-9.4-3.3-3 0-5.7-.4-6-.9s.6-1.9 2-3.2c6.2-5.8 9.2-17.1 4-15.4-1.1.4-5.5 1-9.6 1.4-7.9.7-10.3 1.6-13.5 5l-1.9 2.2-1.3-2.3c-.7-1.3-1.2-3.1-1.3-4 0-1.9-7.1-9.8-8.8-9.8-.6 0-2.9 2.5-5.1 5.7m40.3 7.5c-1.3 4.2-4.9 8-9.2 9.9-5.6 2.5-6 2.4-3.3-.5 2.1-2.3 2.2-4.6.1-4.6-.5 0-2.2 1.2-3.9 2.6-5.7 4.8-7.3-.5-1.6-5.4 2.9-2.6 4.2-3.1 9-3.1a23 23 0 0 0 6.3-.5q.7-.5 1.9-.6 1.5-.1.7 2.2m-25.2 6q-1.1 1-1.2.2c0-1.4 1.2-2.6 1.9-1.9q.3.6-.7 1.7M182 50c0 3-2.2 4.2-4.2 2.3-2.2-2-2.3-3.1-.1-5.5 1.6-1.8 1.8-1.8 3-.2.7 1 1.3 2.5 1.3 3.4m6.3 2.8c.9 1.3-1.8 10.2-3.6 11.9-2.6 2.6-4.1.4-3.2-4.7.9-5.4 5.2-9.9 6.8-7.2m23.1 2c.3.5-1 2.4-2.9 4.2-4.1 3.9-11.8 6.5-13.5 4.5q-1.3-1.2 1.5-1.9 2.3-.7 2.5-1.5c0-1.2-2.1-2.8-4.5-3.3-1.8-.5-1.8-.6.5-1.5 3.1-1.3 15.7-1.6 16.4-.5m-54.3 20.3c-.6 1.7-.8 3.5-.5 4 .8 1.4 3.4 1 4-.6.8-1.9 4-1.9 4.8 0 .8 2.2-1 6.2-3.6 7.9-1.3.8-4.1 1.6-6.3 1.8-3.7.2-4 .1-3.8-2.2q.9-9.9 3.7-12.7 3.8-4.1 1.7 1.8m52 15.6c-.2 20.8-.5 24.6-1.9 25.1q-1.1.2-1.1-.9c.4-2-1.1-5.9-2.2-5.9q-.8-.2-.9-1.5c-.1-1.3.5-1.5 1-1.5q1 0 1 1t.9 1c.9.1.8-6.5.6-14.7-.3-15-.1-17.3 1.7-15.5.6.6 1 6 .9 12.9M204 79q0 .9-1 1a1 1 0 0 1-1-1q.1-1 1-1t1 1m10.5 2.8c.3 1.5.5 8.6.3 15.6-.2 9.5-.6 13-1.6 13.3-1.9.8-2.2.1-1.3-3.9.5-2 .6-4 .2-4.3-1.2-1.3-.7-23.5.6-23.5.6 0 1.4 1.3 1.8 2.8m-10.9 1.9c-1 1-1.9-.5-1-1.8q.8-1.6 1.2 0 .3 1.2-.2 1.8m31.1 3.3c-.1 2.7-.5 5-.8 5-.9 0-1.7-7.1-1.1-8.8 1-2.9 2.1-.8 1.9 3.8m-30.9 13.5c-1.2 1.4-2.8-1.5-2.2-4 .2-1.1.6-4 .8-6.5q.7-10.2 1.6 2a28 28 0 0 1-.2 8.5M219 87.4q0 .6-1 1.1-.9.4-1-.4.1-1 1-1.1 1 0 1 .4m0 6.1c0 1.9-.4 3.5-1 3.5s-1-1.6-1-3.5.5-3.5 1-3.5 1 1.6 1 3.5m-19.4 4.3c-1.3 1.2-1.7-.8-1-4l.9-3.3.3 3.3c.2 1.9.1 3.6-.2 4m31.3-2.1c.1 2.7.3 6.6.6 8.8s.1 5.1-.2 6.5c-.6 2.3-.7 2.3-1.4.5a73 73 0 0 1-.2-19.8c1-1.1 1-1 1.2 4m-42.9.9q0 1.3-1 .9c-.5-.3-1-1.3-1-2.1s.5-1.2 1-.9 1 1.3 1 2.1m4 1.4q0 .9-.4 1-.6-.1-1.1-1-.4-1 .4-1 1 0 1.1 1m31.6 13.7q-.6 1.3-1.5.8a35 35 0 0 1-.3-14.9c.9-1.4 2.5 12.1 1.8 14.1m-27.9-11.5q-.5 1.1-.6-.6t.5-1.3c.3.3.4 1.2.1 1.9m4 1q-.5 1.1-.6-.6t.5-1.3c.3.3.4 1.2.1 1.9M219 100q0 .9-.4 1-.6-.1-1.1-1-.4-1 .4-1 1 0 1.1 1m18.5 4.2c-.6 3.2-2.1 5.6-2.9 4.7-.2-.2-.7-1.9-1.1-3.8-.6-2.9-.5-3.3.9-2.8q1.5.5 1.6-.3.1-1 1-1 1 .2.5 3.2m-45.5.4q0 2.3-1 1.9c-1-.4-1-1.5-1-2.6q.1-1.7 1-1.9c.6 0 1 1.2 1 2.6m11.6.1c-1 1-1.9-.5-1-1.8q.8-1.6 1.2 0 .3 1.2-.2 1.8m-7.6.3q-.1.9-1.1 1-.8-.1-.4-1 .6-1 1.1-1 .3 0 .4 1m22.5 3q.4.9-.4 1-1-.1-1.1-1 0-1 .4-1 .6 0 1.1 1m4.6 8.3c-1.3 1.3-2.6.3-1.6-1.2q.6-1 1.7-.5 1 .6-.1 1.7m-4.9 1.9c.8 4.5-.7 20.1-1.9 20.5q-1.7.8-.4-21c.1-2.5 1.8-2.1 2.3.5m-5.6 1.5c-1 1-1.9-.5-1-1.8q.8-1.6 1.2 0 .3 1.2-.2 1.8m19.4-.9c0 1.6-3.2 5.2-4.6 5.2-2 0-1.8-3.7.4-4.9 2.1-1.2 4.2-1.4 4.2-.3m-19 3.6c0 .8-.4 1.8-1 2.1q-.9.4-1-1.4.1-2 1-2.1 1 .1 1 1.4m0 6.5c0 1.7-.4 3.3-1 3.6q-1 .4-1-2.9c0-2 .5-3.6 1-3.6s1 1.3 1 2.9m-4 1.7c0 1.3-.4 2.4-.9 2.4-1.3 0-2.4-3.7-1.6-5 1-1.6 2.5-.1 2.5 2.6m16.7-1.4q-.5 1.1-.6-.6t.5-1.3c.3.3.4 1.2.1 1.9M222 135q0 1.8-1 2-.9-.2-1-2c-.1-1.8.5-2 1-2q1 .2 1 2m-9 8.1c0 6.1-1.7 6.5-2.2.4q-.6-7.4 1.3-5.9c.5.3.9 2.7.9 5.5m-4-3.1q0 .9-1 1a1 1 0 0 1-1-1q.1-1 1-1t1 1m8.3 3.6q-.6 1.8-1.4.3c-.9-1.5-.2-3.2 1.1-2.4.5.3.6 1.3.3 2.1m-.3 6.4q0 .9-1 1a1 1 0 0 1-1-1q.1-1 1-1t1 1m-4.3 5.7q-.5 1.3-.5-1.7c0-3 .2-2.7.5-1.8s.2 2.6 0 3.5m-3 4.5c-.7 7-.9 7.2-1.6 1.3-.7-5.4-.5-6.5 1-6.5.7 0 .9 2 .6 5.2m7.5-2c-1.5 1.5-2.6.4-1.8-1.8q.6-2 1.8-.6c1.2 1.4.9 1.5 0 2.4m8.5 3.5c-.2 1.6-.4.5-.4-2.2q0-4.4.4-2.8c.2 1.3.2 3.5 0 5m-23.7-2.5q0 2.4-1.1 1.1-1-1.1-.5-2.2 1.6-2.5 1.6 1.1m10.7 1q-.5 1.1-.6-.6t.5-1.3q.5.7.1 1.9m-10.3 6.9q-.6.8-1.5.3t-.3-1.5q.6-.8 1.5-.3t.3 1.5m15.1-1.1q.4.9-.4 1-1-.1-1.1-1 0-1 .4-1t1.1 1m-14.9 7.7c-1 1-1.9-.5-1-1.8q.8-1.6 1.2 0 .3 1.2-.2 1.8m14.9.3q.4.9-.4 1-1-.1-1.1-1 0-1 .4-1t1.1 1m-14.5 4.2c0 .7-.5 2-1 2.8q-1.1 1.9-1-1.3c0-1.5.5-2.7 1-2.7q1 .1 1 1.2m22.1 7 .1 6.8c-1.3 32.1-2.1 42-3.4 42q-1 0-.4-11.3c.4-6.1.9-18.4 1.1-27.2.3-18.2.2-16.5 1.5-16.5.6 0 1.1 2.8 1.1 6.2m-27.1-4c0 .7-.5 2-1 2.8q-1.1 1.9-1-1.3c0-1.5.5-2.7 1-2.7q1 .1 1 1.2m21 6c0 .7-.4 1.9-.9 2.7-1.1 1.7-2.5-.3-1.7-2.4.7-1.8 2.6-2 2.6-.3m-16 5.4q-.1 1.3-1 .9-1-.7-.5-1.6 1.4-2 1.5.7m7 13.3c0 11.4-.5 15.1-1.9 15.1-.3 0-.6-6.1-.6-13.5 0-10.1.3-13.5 1.3-13.5s1.2 3.1 1.2 11.9m-13.4-7.2c-1 1-1.9-.5-1-1.8q.8-1.6 1.2 0 .3 1.2-.2 1.8m8 1.2c.6 2.2.8 4.5.4 5.2-1.2 1.8-3.2 0-2.5-2.2a4 4 0 0 0-.5-3.4c-1.1-1.4-.6-3.5.9-3.5.4 0 1.2 1.8 1.7 3.9m13 1.9c-1.1 1-1.5-.4-.8-2.8l.7-2.5.3 2.3c.2 1.3.1 2.6-.2 3M214 203q0 .9-1 1a1 1 0 0 1-1-1q.1-1 1-1t1 1m-.4 4.7c-1 1-1.9-.5-1-1.8q.8-1.6 1.2 0 .3 1.2-.2 1.8m-40.3 4.2c1.2 5.9.2 8.8-3.4 10.6-8.7 4.6-10.9-3.1-3.2-11.6 2-2.2 4.1-3.8 4.7-3.6s1.4 2.3 1.9 4.6m40.7-.4q0 1.3-1 1.5-.9-.2-1-1.5c-.1-1.3.5-1.5 1-1.5q1 .1 1 1.5m4.7 2.3c-1 1-1.7 2.3-1.7 2.9q-.2 1-2.5 1-4.9.1.3-3.6c3.6-2.7 6.2-2.9 3.9-.3m-82 4.7c.3.9-.2 2.4-1.1 3.4q-1.8 1.9-.7 2.6c2 1.2 1.1 3.4-1.9 5-4.4 2.3-10.9 1.9-13.7-.7-3-2.8-2.9-3.7.7-5a9 9 0 0 0 4.6-3.9c1.3-2.6 1.9-2.9 6.5-2.9q5 0 5.6 1.5m67.3-.5q0 .9-.4 1-.6-.1-1.1-1-.4-1 .4-1 1 0 1.1 1m14 3q0 .9-1 1a1 1 0 0 1-1-1q.1-1 1-1t1 1m-4 2q0 1.8-1 2-.9-.2-1-2c-.1-1.8.5-2 1-2q1 .2 1 2m-14 .4q0 .5-1 1.1-.9.4-1-.4.1-1 1-1.1 1 0 1 .4m9.3.2c.8.8-.3 3.4-1.4 3.4q-.8-.2-.9-2c0-1.9 1.1-2.6 2.3-1.4m8.7 3q0 1.3-1 1.4-.9-.2-1-2.1.1-1.7 1-1.4c.6.3 1 1.3 1 2.1m-5.3 2.6q-.5 1.1-.6-.6t.5-1.3q.5.7.1 1.9m-3.4.4c.8.8-.3 3.4-1.4 3.4q-.8-.2-.9-2c0-1.9 1.1-2.6 2.3-1.4m-5.3 2.9q0 1.3-1 1.5-.9-.2-1-1.5c-.1-1.3.5-1.5 1-1.5q1 .1 1 1.5m9 1.5q0 .9-1 1a1 1 0 0 1-1-1q.1-1 1-1t1 1m-4 1.4a3 3 0 0 1-.9 2.1c-1.2.7-2.4-1.2-1.6-2.5.9-1.5 2.5-1.2 2.5.4m-59.5 4.3c1.5-.7 2.5 1.3 2.5 5.1 0 2.5-6.2 10.2-8.2 10.2-.4 0-.8-1.6-.8-3.5s-.8-5-1.7-6.9c-1.3-2.9-1.4-4-.5-6.1l1.2-2.6 3 2.1c1.7 1.2 3.7 1.9 4.5 1.7m55.5-2.8q0 1-1 1.6-.9.4-1-.9.1-1.5 1-1.6 1 0 1 .9m8 1.1q-.1.9-1.1 1-.8-.1-.4-1 .6-1 1.1-1 .3 0 .4 1m-13 1q0 .9-1 1a1 1 0 0 1-1-1q.1-1 1-1t1 1m21.7 2.2q-.5 1-.5-1.2c0-2.2.2-1.9.5-1.3.2.7.2 1.9 0 2.5M209 240q0 .9-1 1a1 1 0 0 1-1-1q.1-1 1-1t1 1m-4 .9q0 1-1 1.6-.9.4-1-.9.1-1.5 1-1.6 1 0 1 .9m17 11.2c0 7.6-.2 9-1.5 8.6q-1.4-.6-1.9.2c-1.1 1.8-1.5 53.1-.4 56.3 1.7 5.1 3.1 5.9 2.1 1.3-.4-2.2-.7-11-.6-19.5.2-24.4.5-30 1.4-30.6.5-.3.9 9.4.9 22.3 0 12.5.3 24.4.6 26.4.5 3.1.2 4-2.2 6.2-2.2 2.1-2.5 2.8-1.5 4.1s.9 1.5-.7 2c-1.1.4-2.7 1.5-3.7 2.6s-2.1 2-2.5 2-.6-2.6-.5-5.8c.1-4.8-.9-11.9-1.5-10.2-.1.3-.3 4.3-.4 9l-.5 12.7c-.2 7-1.9 4.9-2-2.5 0-3.7-.3-13.1-.7-21-.5-10.5-.4-14.2.4-14.2q1.2.2 1.3 2.2c.5 6.5.8 9 1.3 9.5s1.1-6.1.6-8.2c-.5-2.5 0-50.6.6-55.3.8-6.8 2.4-6.7 2.4.2 0 5.5 1.4 8.2 2.6 5.1.6-1.3.8-1.4 1.5-.3 1.3 2 2.9-.9 2.9-5.4 0-3.5.8-6.8 1.6-6.8.2 0 .4 4.1.4 9.1m-17-.9c0 2-.4 4-1 4.3q-1 .4-1-5.2 0-6 1-4.3c.5.8 1 3.2 1 5.2m3.4 11.5c-.4 8.7-.7 16.6-.6 17.5 0 1-.4 2.1-1 2.4-.7.5-.9-4.2-.5-15.2l.7-18.2c0-1.2.5-2.2 1.1-2.2s.8 4.9.3 15.7m-8.4-8.6q0 1.8-1 1.4-.8-.6-.3-2 1.2-3.2 1.3.6m4.4 6.7q-.7 2-1.5 2.2c-1.1 0-1.2-4.4-.2-5.3 1.2-1.2 2.3.8 1.7 3.1m-14.4 3.7q3 1.6 3 4 0 2.3-1 2.5-.9-.1-1-1.6-.1-1.3-1.1-.8c-.6.4-.8 2-.4 4q.5 3.3-.5 3.4-.8 0-1.1-.8a80 80 0 0 0-1.3-10.5c-1-2.1-.3-2.1 3.4-.2m14 6.4c0 5-1.6 6.2-2.2 1.7q-.6-5.7 1.3-5.6c.5 0 .9 1.8.9 3.9m-4 3.1c0 2.7-.4 5-1 5s-1-2.3-1-5 .5-5 1-5 1 2.2 1 5m3.7 6.5c.2 1.4-.1 2.5-.7 2.5s-1-1.4-1-3.2c0-3.5 1.2-3 1.7.7m-3.2 1.4q.4.9-.5 1.6-.9.4-1-.9 0-2.7 1.5-.7m7.5 4.1q0 .9-1 1a1 1 0 0 1-1-1q.1-1 1-1t1 1m-7.5 3.9q.4.9-.5 1.6-.9.4-1-.9 0-2.7 1.5-.7m41.8 7.2c1.2 2.5 1.3 3.6.4 5.1-1.6 2.5-3.2 2.3-5.6-.8s-2.6-4.6-1.1-7.5c1.4-2.6 4.1-1.1 6.3 3.2m-38.6-.9q-.5 1.1-.6-.6t.5-1.3q.5.6.1 1.9m-7.7 3.4q-.1 1.3-1 .9-1-.7-.5-1.6 1.4-2 1.5.7m4.5.4q.4.9-.4 1-1-.1-1.1-1 0-1 .4-1 .6 0 1.1 1m.5 4.4q0 .6-1 1.1-.9.4-1-.4.1-1 1-1.1 1 0 1 .4m-5 2.2q0 1.3-1 .9-.9-.6-1-1.6.1-.8 1-.9 1 .1 1 1.6m8.1 5.1c.2 4.8.2 8.3 0 13.6q-.2 2.6-1 2.3a55 55 0 0 1-.1-20.6c.5 0 1.1 2.1 1.1 4.7m-4.4 2.5q-.5 1.1-.6-.6t.5-1.3q.5.6.1 1.9m67.4.7c2.6 2.7 4 7.7 2.4 9.3-.3.2-3.1-.1-6.2-.7-7-1.4-8.2-4-1.8-4 3.3 0 4-.3 4-2 0-1.1-1-2.4-2.2-3-2.7-1.1-3-2.5-.7-2.5.8 0 2.9 1.3 4.5 2.9m-70.6-.9q-.6.9-1.6 1-.8-.1-.9-1 .1-1 1.6-1 1.3 0 .9 1m-.5 13.5q0 1.3-1 1.5-.9-.2-1-1.5c-.1-1.3.5-1.5 1-1.5q1 .1 1 1.5m4.1 1.7c-.4 3.2-.5 3.2-1.1.8q-1-4 .9-4c.4 0 .5 1.5.2 3.2m31.5 1c-.4 1.3-.9 3.9-1.3 5.8-.3 1.9-1.7 5-3.1 6.9-2.1 2.8-2.3 3.7-1.3 5.3 1 1.7.9 2-.9 2.5s-2 1.1-1.5 4.7c.5 3.1.3 4.5-.8 5.5-2.1 1.6-3 0-3.3-5.9l-.8-9.3q-.5-4.9.8-4.7 1.2.1 1.4 3.7c.2 5 2.2 6.9 2.2 2.1 0-2 .5-4 1-4.3s1-1.5 1-2.6q0-1.9 1.9-1.9 2 .1 1.4-2.3c-.2-1.2 0-3.4.6-5 1.3-3.3 3.6-3.7 2.7-.5m-27 8.4a644 644 0 0 1-.4 49.3c-.1 2.4-.5 4.1-.9 3.8-.3-.4-.8-14.7-.9-31.8-.3-23.5 0-30.9.8-30.7q1.2.6 1.4 9.4m-7.8.7c.2 2.6-.1 4.7-.6 4.7-1.4 0-2.2-2.6-2.2-6.7 0-5.3 2.4-3.6 2.8 2m3.7-.6-.3 10.7c-.1 3.3-.5 5.6-.9 5.2-1.7-1.6-1.1-20.6.6-20.6.4 0 .6 2.1.6 4.7M216 337q-.1.9-1.1 1-.8-.1-.4-1 .6-1 1.1-1 .3 0 .4 1m-7 12.5.1 4.2q0 .7-.9 1.1c-.6.2-1-1.7-1-4.2.1-2.6.5-4.6 1-4.6s.8 1.6.8 3.5m3.2-1.3q-1.1 1-1.2.2c0-1.4 1.2-2.6 1.9-1.9q.3.6-.7 1.7m4.8-1.8q0 .5-1 1.1-.9.4-1-.4.1-1 1-1.1 1 0 1 .4m0 5.2c0 1.4-1.2 1.9-2.3.8-.9-.9.4-3.5 1.4-2.8q.8.6.9 2m-4 .4q0 1.8-1 2-.9-.2-1-2c-.1-1.8.5-2 1-2q1 .2 1 2m-4 9.7q0 6-1 4.3c-1.3-2-1.3-10 0-10 .6 0 1 2.6 1 5.7m4-3.2q0 1.3-1 1.5-.9-.2-1-1.5c-.1-1.3.5-1.5 1-1.5q1 .1 1 1.5m-12.9 4.8c-.1 1.2-1.5.9-1.9-.4q-.4-1 .8-.8 1 .5 1.1 1.2m21.9 2.1q0 .5-1 1.1-.9.4-1-.4.1-1 1-1.1 1 0 1 .4m-21 5.2c0 3.1-.2 3.5-1.5 2.4-1.6-1.3-2-4.2-.8-5.3q2.3-2.2 2.3 2.9m11.5.4q.4.9-.4 1-1-.1-1.1-1 0-1 .4-1 .6 0 1.1 1m8.5 1.6q0 1.3-1 1.9-.9.4-1-.4-.1-1-1.5-1.1c-1.4-.1-1.5-.4-1.5-.9s1.1-.9 2.5-.9 2.5.6 2.5 1.4m-20.4 6.1-.7 5.3c-.1.8-.5-.5-.9-3-.8-4.7-.5-6 1.1-6q1 .2.5 3.7M213 376q0 .9-1 1a1 1 0 0 1-1-1q.1-1 1-1t1 1m-.4 5.7c-1 1-1.9-.5-1-1.8q.8-1.7 1.2 0 .3 1.2-.2 1.8m-3.7 20.7c-1.5 1.7-1.8.3-2-10-.3-14.3 1.4-15.7 2.2-1.9.4 6 .3 11.4-.2 11.9m10.8-16.7q-.5 1.3-.5-1.7c0-3 .2-2.7.5-1.8s.2 2.6 0 3.5m-6.4 7.6c.1 1.4-.2 2.7-.8 2.9-.5.2-1.1-1.5-1.2-3.6-.3-4.4 1.6-3.8 2 .7m3.7 1.1q0 .6-1 1.1-.9.4-1-.4.1-1 1-1.1 1 0 1 .4m-11.9 18.9.4 20.4c0 3.9.3 7.4.6 7.7s.2 3.2-.3 6.3c-.5 3.2-.8 11.1-.8 17.5 0 7.3-.4 11.8-1 11.8s-1-1.5-1.1-3.3c-.4-12.2-.5-73.3-.2-74q2-3.9 2.4 13.6m-5.4-7.1q-.5 1.1-.6-.6t.5-1.3q.5.6.1 1.9m9.3 12.3c0 3-.4 5.5-.8 5.5s-.8-2.4-.6-5.3c.3-5.9.2-5.7.9-5.7.3 0 .5 2.5.5 5.5m10.3 1.7c-.5 5.4-1 6.8-3.8 9.8a43 43 0 0 0-5.7 8c-2.3 4.4-2.3 4.4-2.6 1.6q-.3-2.8 1.7-5c1.2-1.2 2.1-2.8 2.1-3.5 0-1.3 4-7.4 5.3-7.9 1.1-.5.8-4-.4-4.7-1-.7 1.6-4.5 3.2-4.5.4 0 .5 2.8.2 6.2m-10.3 9.3c0 1.9-.4 3.5-.9 3.5s-.9-1.6-.9-3.5.4-3.5.9-3.5.9 1.6.9 3.5m22.3 4.4c2.1.8 2.6 1.9 3.5 8.2 1.2 8.3.1 10.9-4.7 10.9-5.1 0-7.3-3.7-7.2-11.9.1-7.4 2.5-9.4 8.4-7.2m-31 2.7c.8.8-.3 3.4-1.4 3.4q-.8-.2-.9-2c0-1.9 1.1-2.6 2.3-1.4m7.9 9.6q-1.3 1.5-1.2-1.2c.1-2.7.3-2.1 1.2-1.2q1.3 1.2 0 2.4m.1 21.3c.3 1.6 1.2 5.6 2.2 8.8 1.8 6.2 1.7 7.1-.7 6.2-1.8-.7-2.8-5.6-2.8-13.4q0-8.8 1.3-1.6M197 477q-.1.9-1.1 1-.8-.1-.4-1 .6-1 1.1-1 .3 0 .4 1m4 0q0 .9-1 1a1 1 0 0 1-1-1q.1-1 1-1t1 1m16.8 14.5c-.2 1.4-.7 2.6-1.3 2.6-.5 0-1.1-1.2-1.3-2.6q-.4-2.6 1.3-2.5c1.7.1 1.5.7 1.3 2.5m-4.8-.5q0 .9-1 1a1 1 0 0 1-1-1q.1-1 1-1t1 1m-8 9q0 .9-1 1a1 1 0 0 1-1-1q.1-1 1-1t1 1m4.3 1.6c.6 3.1-.2 6.4-1.4 6.4-.5 0-.9-2-.9-4.5 0-4.9 1.5-6.1 2.3-1.9m3.7-.5q0 1.8-1 1.4c-.5-.3-1-1.3-1-2.1s.5-1.4 1-1.4q1 .1 1 2.1m-16 6.9q-.1.9-1.1 1-.8-.1-.4-1 .6-1 1.1-1 .3 0 .4 1m12.5 5.1c.7 4.3 0 6.3-1.5 3.9-1.2-1.9-1.3-8-.1-8 .5 0 1.2 1.8 1.6 4.1m5.3 10.9c0 5-.4 9-.9 9s-.9-1.9-.9-4.3l-.6-10.7c-.4-5.7-.3-6.3.9-4.7q1.5 1.7 1.5 10.7m9.4-5.3c.6 4.7-.1 7.1-1.3 5.1-1.2-1.7-1.1-8.8 0-8.8.5 0 1.1 1.7 1.3 3.7m-6.5 12.5q-.5 1.1-.6-.6t.5-1.3c.3.3.4 1.2.1 1.9m8.2 11.4c1.4 5.9 1 7.4-1.3 5.5-1.4-1.2-1.9-11.1-.6-11.1.4 0 1.2 2.5 1.9 5.6m-56.6 48.3a30 30 0 0 0 6.5 2.1c.9 0 3 .7 4.6 1.5q4.6 2.4 16 .6c2.7-.5 8.6-.4 13 0 6.9.8 8.4 1.3 10.4 3.5a7 7 0 0 1 2 5.7c-.4 4-2.8 4.9-2.8 1 0-5.2-2.4-7.3-8.4-7.3-6.5 0-11.6 3-12.9 7.7-1.3 4.2-.3 7 1.8 5.3a5 5 0 0 0 1.5-3.3c0-3.3 3.9-6.7 7.6-6.7 4.9 0 6.4.9 6.4 3.9 0 1.5.5 3.2 1.1 3.8 1.5 1.5-.8 2.6-9.6 4.8-3.8 1-7.6 2.2-8.2 2.7-.7.6-2.3.8-3.6.4-1.3-.3-3.8-.2-5.5.3s-4.6.5-6.9-.1l-7.3-1.7c-9-2.1-20.6-7.2-23.2-10.1-2.5-2.7-2.8-3.8-2.8-10.5 0-6.3.3-7.6 2.1-8.8 2.2-1.6 4.1-1 18.2 5.2m35.7 29.3q-.1 2.7 1 .8c.9-1.3 1.1-1.3 1.9 0 .5.8.6 2.1.2 2.8-.5.8-.6 2.3-.4 3.3q.4 1.8-.6 1.9c-1 .1-1.1-.8-1.1-1.9s-.8-2.1-1.8-2.3c-2.3-.7-2.9-6.8-.6-6.8q1.3.2 1.4 2.2m0 7.2q0 .5-1 1.1-.9.4-1-.4.1-1 1-1.1 1 0 1 .4m3.5 5.6a2 2 0 0 1-1.2 1.7q-1.2.3-1.3-1.7 0-2 1.3-1.8 1 .6 1.2 1.8m5.2-.4q-.6.5-1.9.1-1.1-.5.6-.6t1.3.5m-9.7 6.6c-.3 8.9-.2 9.2 1.5 7.8 1.9-1.5 3-.7 2.1 1.6q-.6 1.5-2.1 1-1.4-.4-1.5.9.1 1.3 1.5 1.5c2.1 0 1.9 1.8-.4 3.2-1.5.9-1.7 1.7-1.1 3.4.9 2.3.3 6.1-1.3 8.1q-3 3.7-2.1-3.5c.4-2.6.7-9.3.8-14.9.1-8.6-.1-10.2-1.4-10q-1.4 0-1.7-.8-.1-1 1.4-1 1.5-.1 2.1-1.3c1-3.1 2.3-.7 2.2 4m4.3-1.9c.8 2.2.2 6-1 6.5q-1.3.4-1.3-3.7c0-3.9 1.3-5.5 2.3-2.8m-13.2 2c-1.3 1.3-2.6.3-1.6-1.2q.6-1 1.7-.5 1 .6-.1 1.7m19.4 5.7c0 3.3-.4 4.5-1.5 4.5s-1.6-1.3-1.8-4.8c-.3-4.2-.1-4.8 1.5-4.5 1.4.3 1.8 1.3 1.8 4.8m-14.5.6q-.1 1.3-1.5 1.4c-1.7 0-1.8-.2-.9-2.4.7-1.8 2.4-1.2 2.4 1m-5 1.4q-.1.9-1.1 1-.8-.1-.4-1 .6-1 1.1-1 .4 0 .4 1m19.5 14.4c-.6 3.1-1.1 3.6-3.6 3.6-2.9 0-2.9 0-2.9 6.4 0 7.4-.9 12.6-2.1 12.6-.5 0-.8-5-.7-11 .3-10.4.8-12.5 2.3-9.9 1 1.5 5.5-3 5.5-5.5q0-2.1 1.1-.9c.6.6.8 2.5.4 4.7m-15.5.6q0 .9-1 1a1 1 0 0 1-1-1q.1-1 1-1t1 1m14.4 8.9q.4.9-.8 1.4-2.4.8-2.6-1.5c0-1.1 2.7-1 3.4.1m-1.4 20.5c0 1.4-.5 2.8-1 3.1-1.3.8-2.4-2-1.6-4 .9-2.4 2.6-1.7 2.6.9m-4 1.4a8 8 0 0 1-1.5 3.8c-1.3 1.8-1.4 1.7-1.5-1.9q0-3.8 1.5-3.7 1.4.1 1.5 1.8m-9 3.2c0 2.1-1.5 2.7-2.5 1-.7-1.2.2-3 1.6-3q.8.2.9 2m3.3 11.4q3.4 2.9-.5 2.4-2.1-.4-2.6-2.1-.6-3 3.1-.3"/><path d="M213.5 264.9c-2.1 9.6-.6 59.1 1.8 59.1.6 0 .7-3.1.2-8.3-.8-8.6-.7-44.1 0-50.2.6-4.2-1.1-4.7-2-.6m-30.2 339.7c.3 1.9.2 4.6-.3 5.9-1.1 2.8.4 4.3 2.4 2.5 3.4-2.7 2.4-12-1.2-12-1.1 0-1.3.8-.9 3.6m-43.1-470.4c-.7.7-1.2 2-1.2 3s-.7 1.8-1.5 1.8c-1.9 0-5.9 13-5 16.2 1.1 3.5 5.4 8.8 8 9.8 4 1.5 9-.4 13.9-5.5 2.5-2.6 4.6-5.6 4.6-6.6 0-4.9-5.5-10.9-9.9-10.9-2.3 0-6.1-4.4-6.1-7.1q-.1-3.3-2.8-.7M147 146c1 0 2.6.3 3.5.6 1.9.8 5.8 8.1 5 9.4-.9 1.5-3.6 1.2-5.7-.7-1.7-1.5-2-1.5-3.4-.2-1.5 1.5-1 4.9.7 4.9q.8 0 .9 1-.2.9-2.3 1c-5 0-9.5-8.9-8.3-16.3 1-5.9 1.6-6.3 4.8-2.8 1.6 1.7 3.7 3.1 4.8 3.1m132.4 24.7a20 20 0 0 0 1.9 26.5c3.3 3.6 5.5 3.5 11.2-.3 5.2-3.5 7.2-6.1 8.1-10.6 1.1-5.4-4.3-12.3-9.5-12.3-3.1 0-7-2.1-7.6-4.2-.9-2.5-1.8-2.3-4.1.9m6.6 5.8c7.3 2.5 8.9 3.6 10 7.1.9 2.6.8 3.9-.5 6.3-2 4-2.8 3.9-4.8-.4q-1.7-3.4-3.6-3.5c-3 0-3.5 1.9-1.2 4.4 2.2 2.3 2.9 6.6 1.1 6.6-1.3 0-5.5-6.6-7-11.1-1.3-3.5-.7-10.9.8-10.9.4 0 2.7.7 5.2 1.5m-39.6 29.7c-1 1.9-1.7 5.8-1.8 9.1-.1 5.6.1 6 4.1 9.8 4.6 4.3 9.1 5.1 12.7 2.4a8 8 0 0 1 3.7-1.5c2.7 0 6.9-5.7 6.9-9.4 0-5.5-6.8-10.6-14.2-10.6-2.4 0-5.2-.7-6.2-1.5-2.8-2.1-3.3-1.9-5.2 1.7m17.3 5.4c3.1 2 4.5 4.9 3.7 7.9s-2.2 3.1-7.2.6c-2-1-4.3-1.6-4.9-1.4-2 .7-1.5 3 .8 4.6q2.1 1.5.9 2.2c-.7.4-2.6-.7-4.6-2.6-2.9-2.8-3.4-4-3.4-8v-4.6l6.3-.1c3.9-.1 7 .4 8.4 1.4m7.6 26.6a11 11 0 0 0-3.8 5q-3 7.9 3.8 14.6c3.6 3.5 8.5 4.4 12.4 2.4 1.2-.7 3-1.2 4-1.2 1.1 0 3.2-1.4 4.9-3.1 2.3-2.4 2.9-3.9 2.9-7.6 0-6.3-2.8-8.5-10.5-8.1-4 .2-6.4-.2-8.3-1.5-1.4-.9-2.8-1.7-2.9-1.6zm4.9 5.4c2.7 1.4 3.7 1.4 7 .3 4.7-1.5 6.7-.6 8.1 3.5 1 3.1-.8 8.6-2.9 8.6-.7 0-2.6-1.6-4.1-3.5s-3.4-3.5-4-3.5c-1.8 0-2.7 4.8-1.3 6.5 2.1 2.5.3 2.9-2.9.6-3.3-2.4-5.6-8-4.7-11.7.8-2.8.8-2.9 4.8-.8m60.6 25.9a51 51 0 0 0-10.9 5.1l-8.9 6a49 49 0 0 0-19.2 27.7c-3.3 12.1-1.3 41.4 3.2 47.2.4.5 1.1 2.1 1.5 3.5a63 63 0 0 0 16 19.7c5 3.1 5.2 3.8 2.9 7.2-2.9 4 .2 15.8 5.2 20.2 2.2 2 7.9 4.9 9.4 4.9 2.3 0 .8-2.6-2.7-4.5-4.2-2.3-7.5-7.1-5.6-8.3.7-.4 1-2.7.8-5.7-.3-3.8-.7-5-1.9-4.9-2 .2-2-1-.1-2.6 1.2-1 2.5-1 5.9-.1 2.5.6 5.5 1.1 6.8 1.1 1.5 0 4.1 1.7 6.8 4.5 4 4.1 10.9 8.2 16.3 9.9 3.3 1 1.2 3.1-2.8 2.9-9.9-.6-23.9 10.9-30.8 25.4l-4.2 8.8v12c0 11.5.1 12.3 3.2 18.5a49 49 0 0 0 17.1 18.7c2.3 1.4 4.2 2.8 4.2 3.2 0 .3-1.6 1.5-3.6 2.6-8.6 4.6-13.1 13.7-12.2 24.8.6 7.2 3.1 12.7 8.3 18 2 2 3.3 4.2 3 4.7s-2.3 1-4.3 1.1l-3.7.1 3.5.9c3.7.9 11.3.2 14.2-1.2.9-.5 2.6-.5 3.7-.1 1.9.7 1.5 1.3-4.1 5.7a49 49 0 0 0-16.8 29.3 37 37 0 0 0 11.8 34 37 37 0 0 0 25.2 8.7c0 .3-1.4 1.2-3 2-7.1 3.7-9.2 13.4-4.2 18.5 7.1 7 21.7 3.7 17.9-4.1-1.5-3-6.4-4.2-5.2-1.2 1.4 3.4 1 4.8-1.3 5.1-2.7.4-6.7-1.9-8.2-4.7-2.6-5 2.9-12.9 7.1-10.2 2.3 1.3 4.3.5 3.5-1.4-.8-2.1 2-3.8 4.9-3.1 4 1 11.5 8.5 14.1 14.1 3.1 6.6 3.2 10.5.2 5.3-2.2-3.8-4.9-5.5-6.9-4.3q-1 .7.9 2.9c1.1 1.1 2.5 4 3.2 6.4.6 2.4 1.9 4.6 2.8 4.9 2.7 1 3.1 2.4 1.7 6.3-2.5 7-4.7 10.5-10.4 16.3a24 24 0 0 1-10.5 7.2c-5.9 1.8-7.1 1.3-2.4-1 8.4-4.1 21.6-17.5 20.5-20.8-.7-2.2-2.7-1.7-3.7.9a42 42 0 0 1-23.1 19.4c-2 .6-4 1.7-4.3 2.5q-.6 1.3-1.8 1.5c-.8 0-2.2.9-3.2 2.1-1.5 1.8-2.4 2-6.4 1.4-4.8-.7-18.1-4.9-21.6-6.7-4.3-2.3-11-9.6-13.6-14.8-4.4-8.8-4.5-9.6-1.5-13.2 2.6-3.1 2.6-3.1.7-5.1-2.2-2.2-4.2-1.6-4.2 1.3 0 1.1-.9 2.4-2 3-1.7.9-2.9.6-6.2-1.2q-7.9-4.4-7.8-14.7c0-4.9.3-5.7 4-9.3 5.3-5.4 7.6-4.9 9.9 2 2.4 7.1 6.1 10.8 14.8 14.8 8 3.8 10.7 4.1 18 1.9 6.3-1.9 12.3-8 12.3-12.5q0-6.3-4.5 1.4-2.6 4.5-7.1 6.7c-4.2 2-5 2.1-10.5.9-10.8-2.3-18.9-9.4-18.9-16.6 0-1.7.7-3.7 1.5-4.4q4.6-3.5-8.4-2.6c-4.7.4-13.1.7-18.5.8-8.5.1-10.1-.2-11.2-1.7-1.3-1.7-1.7-1.6-8.5 1.5-7 3.2-7.7 3.3-25.7 4.1-17.9.9-20.3 1.2-18.9 2.5 1.3 1.3 33.2.5 38.2-1 5.3-1.6 31.2-3.3 34-2.3 1.4.6 1.3 1.2-1.2 4.9l-3.9 6.2c-.6 1.1-3.1 2.4-5.9 3.2-11.6 2.9-16.2 5.3-21.7 11.3a49 49 0 0 0-11.3 23.4c-2.6 9.9-2.1 15.8 3 33.7 3 10.7 20.3 24.9 34.1 28 7.2 1.6 14.7 1.4 18.4-.5 3.2-1.7 3.4-1.6 4.9.2 3.7 4.6 7.9 6.4 14.9 6.6 5.4.1 7.7-.4 11.8-2.6 9.1-4.7 14.9-11 16.3-17.9.5-2.3 1.8-3.6 6.1-5.9 10-5.4 15.2-13.9 13.1-21.4-.5-2.1-.8-4.1-.6-4.5s2.9-1.9 5.8-3.3a44 44 0 0 0 23.2-28.4c.4-2.4 1-4.5 1.5-4.8s3 .5 5.6 1.7a35 35 0 0 0 14.9 2.4l10 .1.3 3.5c.4 4.6-1.5 9.5-3 8-1.8-1.8-2.3-1.5-5.2 2.8-3.1 4.7-3.1 5-.8 5 1.3.1 1 .6-1.3 2.6a32 32 0 0 1-20.1 7.2c-7.1.4-8.7.2-11.6-1.6-3.4-2.1-6.8-1.6-5.3.8 2.7 4.4 16.9 5.3 27.7 1.8 13-4.2 23.5-15.8 24.8-27.2.3-3 1.1-5.2 2-5.6a153 153 0 0 0 29.5-16.9c8.2-6.7 12.2-13.8 16.2-28.5A86 86 0 0 0 494 569a103 103 0 0 0-13.9-27.3c-3.6-4-11-8.3-15.2-8.9-1.3-.2-2.9-.7-3.6-1.1-1.8-1.1-.5-3.6 1.7-3 2.5.7 9-5.4 11.7-10.9 1.2-2.4 3-7.7 3.9-11.9 1.5-6.9 1.5-8.1 0-15.1-.8-4.2-2.5-9.7-3.7-12.3-3.3-7.1-13.8-15.2-20.6-15.9-2.6-.3-2.6-.3-2.7-10.2-.1-12.6-2.1-16.9-12.6-27.5-8.2-8.3-13.6-10.9-22.4-10.9-2.5 0-4.6-.4-4.6-1 0-1.3-7.9-5.8-14.3-8-3-1.1-9.6-2.4-14.8-3.1A38 38 0 0 1 371 399a33 33 0 0 0-6.5-3c-2.2-.7-6.2-2.4-8.8-3.7-4-2-4.8-2.8-4.4-4.5.4-1.2-.3-3.2-1.6-5-1.8-2.5-2.2-4.3-2.2-10.8 0-4.3-.3-8.1-.6-8.5-.8-.7-2.9 5-2.9 7.7q0 1.7-1 1.3c-.5-.3-1-2.8-1-5.4 0-4 .3-5 2-5.4s2-1.4 2-5.9c0-4 .6-6.2 2.5-9 2.9-4.3 3-4.8 1-4.8q-1.4 0-1.5-.9c0-1.5 8.1-10.6 9.8-11a20 20 0 0 0 4.6-2.2c1.7-1 4.3-1.9 5.8-1.9s2.9-.4 3.2-.9 3.2-1.1 6.3-1.4l11-1.3c4.6-.6 5.9-.3 12.5 3 10.1 5 14.3 8.7 17.9 15.8 5.7 11.4 4.9 23.5-2.1 30.3a12 12 0 0 1-8.3 4.2c-2.5.3-5.6.3-6.9 0-2.7-.7-6.1-5.8-5.2-8 .7-1.8-.9-2.9-3-2.1-3.4 1.3-2.7 7.3 1.4 11.4 3 3 12.1 2.8 20.5-.7 6.1-2.5 6.7-2.6 12-1.3q8.4 2 5.5 3.5-2.4 1.7 1.3 3.1c4.6 1.4 10.9 5.6 9.8 6.7q-1 1 1.9 4.6a30 30 0 0 1 4.4 25.8c-.9 3.2 1.5 3 4.4-.5l2.3-2.7-.6 4c-.8 5-2.9 9-5.6 10.9-2.8 1.9-1.6 4 1.4 2.5 1.2-.6 3.2-2.1 4.4-3.2 2-1.7 2.5-1.8 3.9-.6 1 .8 2.5 2.7 3.5 4.3 1.7 2.7 1.7 3.1.2 4.1-1.5 1.1-1.5 1.5.1 5a16 16 0 0 1 1.3 9.6c-.5 4.3-.3 6 .8 6.9 1 .9 1.1 1.8.4 3.7q-.9 2.6 0 3.6c3 3 7.6-9.6 6.9-18.9a34 34 0 0 0-10.1-20.9l-3.8-3.3 1.2-4.7c3.3-13.2-6.5-34.8-18.7-41a27 27 0 0 1-5.2-3.2 23 23 0 0 0-7.3-2.4c-4.8-.9-6-1.5-5.5-2.8.2-.9 1.2-3.5 2-5.8 3.2-8.6-.3-22.6-7.7-31a52 52 0 0 0-23.2-13.5c-1.8-.3-2-1.1-2.1-7.3q-.1-13-7.2-18.1a37 37 0 0 1-11.5-12.6 31 31 0 0 0-5.4-6.8 35 35 0 0 0-32.5-4.5m12.6 2.3c3.3 2.8 9.4 4.6 11.1 3.2 2.4-2 10 4.8 11.9 10.7.6 2 .2 2.2-4.1 2.9-7 1-20.9 8.1-26.5 13.5a34 34 0 0 0-10.2 20.9c-.1 5.8.5 6.6 3.6 4.6q2.4-1.6 4.7-8.8c1.3-4 3.2-8.7 4.2-10.4s1.9-4 1.9-5.2c0-1.4 1.7-2.9 6.3-5.2l8.7-4.6c3.4-2 13.4-1.4 18.5 1.1 5.4 2.7 8.9 9 9 16.3 0 6.1-1.2 7.5-7.8 9.3-5.4 1.4-11.8-.7-13.1-4.4-1.4-3.8 1.2-6.5 4.2-4.6 1.7 1.1 2.4 1.1 3.4.1 2-2-.4-4.7-4.4-5a7.8 7.8 0 0 0-6.3 13.4c1.4 1.4 2.5 2.7 2.5 2.9s-3.4 2-7.5 4a37 37 0 0 0-20.6 26.5c-1.7 7-1.7 19.4 0 24.3.7 2.1 1.1 4.1.7 4.4-.3.3-2.1.2-3.9-.1-2.5-.5-5.2-2.4-9.3-6.6-6-6.2-8.4-10.4-8.4-15 0-3.4-2.6-6.1-3.6-3.6-.3.9-.4 2.9-.2 4.6s.1 2.7-.3 2.4c-1.5-.9-4-10.1-4.5-16.4-.8-9.3-1.1-10-3.4-7l-2 2.5v-8c0-5.9.6-9.2 2-12.4 1.1-2.4 1.8-4.6 1.5-4.9-.8-.9-3.8 2.2-5.2 5.5-.7 1.8-1.6 3.3-1.9 3.3-.6 0-.2-2.7 1.8-11.3.5-2.6 2.5-7 4.4-9.6q5.3-8-.3-4.6c-2.7 1.8-2.8 1.4-.8-2.4 1.6-3.2 8.7-8.6 16.5-12.7 2.7-1.4 5-3 5-3.5 0-1.2-.5-1.1-4.7.6-1.9.8-3.8 1.5-4.1 1.5-1.4 0 3.3-3.9 5.6-4.8 10.7-3.8 13.6-4.4 17.7-3.9 4.9.7 6.7-.6 3.4-2.4q-2.5-1.1-.8-2c2-1.3 3-1.1 5.3.9m-43.5 79.7v3l-1.5-2.8c-1.7-3.1-1.1-7.4.6-4.7.6.8 1 2.8.9 4.5m12 19.2c1.3 2.8 1.3 2.8-.8.9-2.2-2-2.7-3.6-1.3-3.6.5 0 1.4 1.2 2.1 2.7m66.1 34.4a47 47 0 0 1 26.3 12.1c5.5 5.4 7.2 6 6.4 2.2-.4-2.5-.3-2.6 2.9-2.1 7.8 1.3 19 9.8 22.5 17.1q1 2.3-1.3-.7c-4.1-4.8-7.4-2.8-3.7 2.3 2.2 2.9 4.9 4 4.9 2q.1-1 1-1 1.9.2 3.4 8.3c.7 3.7.6 3.7-1.8 3.1-2.5-.6-2.6-.4-2.6 3.3 0 8.8-5.9 22.9-10.4 24.6-1.7.7-4.8 6.6-4 7.8 1 1.7 4.9.8 9.5-2.1q4.7-3 9-9.5c4.2-6.4 4.5-6.6 7.8-6.1q4.6.8 12.1 6.9c2 1.6 5.3 6.7 4.7 7.3q-.5.4-1.7-1.1c-.7-.8-1.9-1.5-2.6-1.5-1.7 0-1.9 2.6-.3 3.6.6.3 1.7 2.2 2.5 4q1.4 3.4 3.4 3.4 1.8.2 2 1.2l.6 4.9c.5 3 .3 3.7-1.4 4.1-1.4.4-2.1 1.8-2.6 5.3-1 6.1-3.2 12.4-5.4 14.8a7 7 0 0 0-1.7 4c0 4.2-2.3 2.7-3-2-.4-2.6-2-6.9-3.6-9.6a26 26 0 0 1-2.9-5.7 74 74 0 0 0-14.2-14.1A36 36 0 0 0 398 494l-2.1 2.1-3.5-3c-1.9-1.7-5-3.8-6.9-4.6q-6-2.2-1.2-4.2c7.1-3.3 13.7-13 13.7-20.5 0-5.8-3.7-14.4-7.5-17.6-5.4-4.4-12.5-6.6-17.3-5.3-5.6 1.6-12.1 7.7-12.8 12.2-1.1 6.9 6.9 12.7 13.7 9.9 4.1-1.8 3.1-3.5-1.8-3.2-3.3.3-4.4-.1-5.7-2-2.5-3.6-2-7.3 1.5-10.2 4-3.4 7.2-4.1 12-2.7 4.5 1.3 5.1 2.8 1.4 3.3s-3.2 2.2.9 3.1c2 .5 4.7 2.2 6.1 3.9 2.4 2.9 2.5 3.2.9 4.9q-1.8 1.9-.7 3.1c1.5 1.9 2.3 9.9 1.3 11.9-.5.9-2.1 1.9-3.4 2.3-1.4.3-2.7 1.4-3 2.4-.9 2.8-7.2 5.8-15.4 7.5-6.5 1.4-7.9 1.4-11.5.1a42 42 0 0 1-25.7-22.6c-2.6-5.9-3-7.9-3-15.8a37 37 0 0 1 2.5-15.6c3.6-9.5 6.2-13.4 9-13.4 1.7 0 3.2-1.4 5.5-5q4.5-6.9 7.5-7 .5.2-.9 2.5c-2 3-2 3.5-.1 3.5.8 0 2.5-1.6 3.7-3.5s3-3.5 3.9-3.5q1.5 0 2.3-.8c1.1-1.1 9.8-3 12.1-2.7zm1.6 88.1c2.8 1.9 5.9 5.1 7.2 7.5q2.4 4.3 3.8 3.6c1.4-.5 1.5-1.6.3-4.8q-.2-1 .4-1.2c.5 0 2.1-1.3 3.7-2.8 5.3-5 18.9-6.9 28.8-4a45 45 0 0 1 22.3 21.5c3.6 5.3 4.4 10.6 3 19.8-1.5 10.7-4 16.4-9.3 21.9a28 28 0 0 1-22.6 8.4c-1.9-.1-2.2-.5-1.7-2.2q.9-2.1-1.4-2.6c-1.1-.3-2.9-2.1-4.1-4-2.1-3.6-3.9-3.6-4.1 0q0 2.8-1-.8c-.6-2.2-.4-3.3.8-4.7.8-.9 1.3-2.4.9-3.3-1.2-3.2-7.6 2.7-7.6 7 0 3.3 3.6 8.3 8.2 11.1 7.6 4.8 17.9 4.1 28.8-1.9 7.1-3.9 14-12 14-16.5 0-1.1.7-2.5 1.5-3.2s1.5-2 1.5-3c0-3.8 2.4-4.1 8.6-1.1a33 33 0 0 1 15.8 17.4c2.4 5.2 2.6 6 1.2 7s-1.4 2.1-.5 7.6c1.2 7.8 1.5 8.4 4.1 7.5 2-.6 2.1-.4 1.3 5.2-.4 3.3-.9 8.8-1.1 12.4a41 41 0 0 1-7 20.8q-6 10-4.7 5.3c.9-3.5-2.3-2.6-5.1 1.5a64 64 0 0 1-17 14.8 41 41 0 0 1-22.3 5c-4.2-.4-5.4-.3-5.1.7 1.1 3.3 13.9 3.4 22.2.2a64 64 0 0 0 22.5-15.9l4.4-3.9-2.7 4.2c-4.9 7.4-18.7 16.2-31.1 19.8a49 49 0 0 1-24.7-.6c-3.6-1.9-8.8-6.3-8.8-7.4 0-.6-1.5-4.2-3.4-8q-5.1-10.4-14.6-17.6l-3.5-2.7 2.2-2.4c2.8-3 6-10.2 6.9-15.6.6-3.5.2-4.8-2-8.2q-2.6-3.8-4.6-4c-2.6 0-2.5.8.3 3.8 3.2 3.4 2.8 10.4-.9 17.3-5.7 10.4-15.2 14.4-25.6 10.8a34 34 0 0 1-19.1-15.1 38 38 0 0 1-3.3-26.1c2.9-10.4 13.4-25.7 17.7-25.7 1.6 0 16.5-15.2 18.3-18.7 2.6-5.2 1.2-10.9-3.9-16.1-5-5-8.3-5.4-13.8-1.7-2.9 2-3.7 3.2-3.7 5.5 0 5.7 6.8 9.1 11.5 5.7 2.5-1.9 1.1-4.1-1.6-2.6-3 1.6-5.1.4-4.7-2.8.7-5.7 10.9-3.9 12.4 2.2 1 4.1-.2 11.4-2.2 13.6a18 18 0 0 1-16 5.6c-10.8-.8-15.6-6.2-15.9-17.6-.1-4-.6-6.6-1.3-6.9q-1.1-.5-1.2-1.2c0-1.6 13.4-14.7 15.8-15.4 1.2-.4 2.2-1.4 2.2-2.2 0-1 1.4-1.4 5.3-1.5 2.8-.1 6.3-.5 7.7-.9s4.8-.8 7.6-.9c4.3-.1 6 .5 10 3.1m-89.8 148.3c1.8 5.4 5.7 9.3 11 10.8 4 1.2 4.5 1.7 6.2 6.5a47 47 0 0 0 21.8 24.4 51 51 0 0 0 30.9 4.2c4.1-.9 6.9-1.2 7.5-.6 1.7 1.7 1.1 9.7-1 13.1a19 19 0 0 1-12.5 8.6c-5.6 1-5.7 1.1-4.4 4.4.9 2.4.7 3.5-1.6 7.3-6.1 10.5-22.4 15.7-30.5 9.8-1.7-1.3-3.2-2.8-3.2-3.3s1.3-2.5 3-4.3c3.6-4.2 6-12.2 5.7-19.1-.5-8.5-5.2-13.3-13.2-13.3-6.8 0-13.8 6.1-10.6 9.3.8.8 2 .2 4.5-2.2 3.1-3 3.9-3.3 7.3-2.8 5.2.9 7.3 3.7 7.3 10.1 0 8.5-1.6 12.2-6.9 16.4-7.6 6-10 6.7-18.2 5.2a46 46 0 0 1-38.6-43.4c-.5-8.1-.2-10.8 1.8-17.8 4-14.2 8.2-19.8 18.6-24.9a20 20 0 0 1 9.8-2.6c3.7.2 4.1.5 5.3 4.2"/><path d="M361.9 297c-3.4 1-13.3 8.2-15.3 11.2-2.9 4.1.2 3.1 6.6-2.1 3.4-2.8 8-5.7 10.2-6.4 6.9-2.3 5.4-4.8-1.5-2.7m16.1 3.4c0 .7.7 1.9 1.5 2.6 1.2 1 1.6.9 2.1-.3.3-.9.3-2.1-.1-2.7-.9-1.5-3.5-1.2-3.5.4m41.6 135.4c-.2.4.4 3.4 1.5 6.6a44 44 0 0 1 2 14.8c0 10.7-1.8 17-6.7 23.4-2.9 3.8-3.1 4.4-1.5 4.4 2.3 0 6.3-4.6 9.9-11.4 2.5-4.8 2.7-5.9 2.6-17.6 0-10.9-.3-13.1-2.2-16.8-2.1-3.9-4.4-5.3-5.6-3.4m63.7 155.4c-1 1.1-4 11-4.6 14.7-.4 2.4 2.1 2.3 3.7-.2 3.6-5.4 4.4-18.8.9-14.5M125.4 305.9c-.5.3-1 5.2-1.2 10.9-.3 9.1-.1 10.7 1.8 13.8 2.7 4.2 4.8 5.4 9.8 5.4 4 0 9.2-3 9.2-5.3 0-.6 1-2.1 2.2-3.4 4.9-5.2.6-14.1-7.9-16.2-2.6-.7-5.7-2-6.8-3-2.3-2.1-5.9-3.2-7.1-2.2m11.5 9.1c4.7 0 9.1 7.2 6.6 10.7-1.3 1.7-1.5 1.7-3.5-.5-1.7-1.8-2.5-2.1-3.6-1.1-2 1.6-1.8 2.6 1.1 5.5 1.9 1.9 2.2 2.6 1.1 3-2.1.8-5.5-1.3-7.6-4.9q-3-5-1.4-13.6l.6-3.1 2.6 2c1.3 1.1 3.2 2 4.1 2m-49.4 21.7c.4 1.6.7 5.7.6 9.2-.2 5.3.2 7 2.4 10.3q7 10.5 17.1-.3c4.1-4.4 4.8-7 3-11.2s-4-5.6-10-6.2a23 23 0 0 1-7.8-2.5q-6.9-4.2-5.3.7m15.6 5.9c2.8.8 5.2 8.8 3.3 10.7-.4.4-2-.1-3.5-1-2.7-1.6-3-1.6-4.5-.1s-1.4 1.8.5 3.7q3.4 3.3 1.1 3.1c-.5 0-2.3-1.9-4-4.2-2.2-3-3-5.2-3-8.3 0-2.3.3-4.5.7-4.9.7-.7 5.5-.2 9.4 1m286.9 6.3c-6.1 1.3-9.5 3.7-12.3 8.9-4.4 8.1-3.5 14.1 3.2 21.4 4.4 4.8 5.1 5.1 10.4 5.6 9.1.7 10.4-.8 2.2-2.7-6.2-1.5-7.3-2.1-10.2-5.9a13 13 0 0 1-3.3-9.8c0-3.4.7-6.9 1.9-9.3 2.1-4 4.8-6.8 5.8-5.8q.6.5 2.5-.4c4.3-2.3 11.8 2 11.8 6.8 0 2.6-2.5 3.2-3.4.8-.7-1.9-3.5-1.9-4.2 0-1.6 4.2 7.6 6.4 10.9 2.7 2.1-2.3 2.1-4.5.2-8.3-2.4-4.6-6.9-5.7-15.5-4m-143 17.9q-5.9 2.8-5.9 12.9 0 9 11.3 12.6c5.1 1.5 6 1.5 9.2.2 6.5-2.7 8.1-12.6 2.6-16.3-1.4-.9-4-3.2-5.8-5a18 18 0 0 0-4-3.2c-.4 0-1.5-.7-2.4-1.5-1.4-1.3-2-1.2-5 .3m11.9 11.7q5 1.6 2.5 7.4c-1.6 3.9-3.5 3.7-4.6-.7-.5-1.7-1.3-3.4-1.9-3.7-1.6-1-3.9 1.5-3.9 4.4l-.1 2.6-1.9-2.4c-3.9-4.6-3.8-11.4 0-12.4q1.8-.6 2-2.3 0-1.6 2.9 2.4a17 17 0 0 0 5 4.7m-125.3-7.6c-1 1.1-2.3 4.4-3 7.3-2 8.6 1.7 16.6 8.4 18.3 3 .7 10.9-3.9 13.5-7.9 1.4-2.1 1.5-2.9.3-5.3a10 10 0 0 0-4-4l-5.5-2.6c-1.4-.6-3.4-2.5-4.3-4.1-2-3.8-3.2-4.1-5.4-1.7m4.2 8.3c.7.7 3.1 1.8 5.4 2.3 4.4 1.1 7.2 4.2 5.9 6.3-.6 1-1.3 1.1-3.4.1-3.4-1.5-6.1-.5-5.4 2.1q.4 1.8-.3 2c-1.5 0-4-5.1-4.7-9.5q-1-6.8 2.5-3.3M334 402.9c0 1.5 2.9 3.3 4.1 2.5q1.4-.7-.6-2.1-3.4-2.3-3.5-.4m-82.4 76.3c.9 2.9 8.2 12.8 9.4 12.8q3 0-.7-5.6c-5.2-7.8-10.3-12-8.7-7.2m12.6 15.5c2.2 5.1 11.7 18.2 17 23.5 7.9 7.9 11.4 13.6 12.3 20 .6 4.1 3.3 8.7 3.6 6.2l.3-2.9c.1-2.3 2.3-2.4 9.6-.5 2.5.7 6.8 1.4 9.5 1.6l5 .3-4-1a45 45 0 0 1-16.8-6.1 19 19 0 0 1-6.7-6.9c-1.1-2-4.3-6.4-7.2-9.6a213 213 0 0 1-17.2-21.1c-1.6-2.3-3.5-4.2-4.3-4.2q-1.3 0-1.1.7m60.6 48q1.3.4 1.9-.1t-1.3-.5q-1.7 0-.6.6m-142.7 13.7c-1.6 1.9-1 5.1.9 5.1 1.7 0 2.6-4.3 1.2-5.7q-.9-.7-2.1.6m55.9 2.5c0 1.9 3.5 3.9 4.7 2.7.7-.7-2.6-4.6-3.9-4.6q-.7.2-.8 1.9m-58 8.5c0 1.7 1.6 2.3 10.3 4.2 8 1.6 21.2 1.9 18.5.4-.9-.6-6.2-1.7-11.6-2.4a67 67 0 0 1-12-2.5c-2.8-1.5-5.2-1.4-5.2.3m70 .5c0 1.8 3.7 5.4 4.8 4.7q1.3-.6-.5-3.1c-1.8-2.4-4.3-3.3-4.3-1.6M181.5 580c-.6 2 1 6 2.5 6 .5 0 .8-1.8.8-4 0-4.3-2.2-5.6-3.3-2m155.4 34q-11.6 1-9.2 2.9c.4.3 5.7.5 11.6.3 9.5-.3 10.8-.5 10.5-2-.4-2-2.6-2.2-12.9-1.2M82 641.1c-2.5 2.8-3 4.2-3 8.5 0 4.9-.1 5.2-3 5.7-2.4.5-3 1.2-3 3.2q0 2.5-2.4 4c-2.9 1.9-4.6 6.3-4.6 11.6 0 3-.6 4.2-3 6.1a8 8 0 0 0-3.5 5.8c-.3 1.8-1.1 4-2 5s-1.7 3.6-1.9 6.1c-.7 6.2-3.9 14.8-6.3 16.4q-2 1.5-10.4 1.4l-11.4.1c-1.6.1-5.9-.8-9.3-2l-6.4-2.2-2.6 2.1a46 46 0 0 1-5.9 3.8L0 718.4v12.2c0 11 .2 12.3 1.8 12.2 5.6-.1 16.3 1.3 19.7 2.6l4 1.5-7.8.1c-8.1 0-14.2 2-13.4 4.3q.6 1 1.8.8c.8-.3 5.4-.5 10.4-.6 15.3-.2 20.9-1.3 27.4-5.5a103 103 0 0 1 9.6-5.6c2.1-1 5.2-3.3 6.9-5.2a58 58 0 0 1 13.1-11.9c7.8-4.1 11.9-9.4 6.1-7.9q-2.8.9-.3-.8a15 15 0 0 1 5.7-2c3.2-.5 4-1 4-2.7 0-2-.4-2.1-4.1-1.5-7.1 1.1-14.6 5.2-16.5 8.8-.9 1.8-4.8 6.6-8.5 10.6A43 43 0 0 0 53 736c0 .5-2.2 2.1-4.8 3.4a25 25 0 0 0-6.1 4c-.8.9-2.5 1.6-3.8 1.6-2.2 0-2.4-.2-1.3-1.5 2-2.4 0-3.7-3.8-2.4s-6.7.9-6.7-1.1c0-1.2-1.4-1.5-7-1.3-6.9.2-6.9.2-2.5-.9a92 92 0 0 0 25.2-7.8c2.5-1.6 4.8-2.6 5.1-2.3q2.1 2.2 11.6-9.5C70.8 703.8 71.5 703 72.6 703c.6 0 3.3-1.6 6-3.5 3.9-2.8 5.8-3.5 9.6-3.5 5.9 0 13.2 3.1 15.4 6.5 1 1.5 2.7 3.1 3.8 3.6a20 20 0 0 1 8.6 6.2q3.8 4.6 5.9.9c.9-1.5 1.3-1.3 3.8 1.8 4 5.1 9.1 9.8 13.7 12.7 2.3 1.4 5.4 4.1 6.9 5.9 1.6 1.9 3.5 3.4 4.3 3.4s2.7 1.2 4.2 2.7q5.3 5.5 15.4 6.7c3 .4 8 1.4 10.9 2.1s8.1 1.5 11.4 1.5c4.6 0 7.4.7 12 3 3.3 1.6 6.7 3 7.7 3s4 .9 7 1.9c6.4 2.4 28.4 4 38.4 2.8 5.2-.6 7.7-.4 10.6.8 2.1.8 6.9 1.5 10.6 1.5 8.7.1 10.7 1.3 10.8 6.6q0 4.1 2.8 7.6c3.2 4.3 4.5 4.9 11.1 5.7 3.9.5 5 1 5 2.4 0 1.7-1.3 1.8-20 1.7-11-.1-25.2-.5-31.5-1-15.2-1.1-24-.1-24 2.5q.1 2.6 9.5 4.5c2.2.4 3.3.8 2.5.9l-12.5 1.1a1649 1649 0 0 1-80 2.8c-14.3.4-54.5.7-89.2.7-57.7 0-63.3.1-63.3 1.6 0 1.4 2.6 1.7 22.3 2 34.5.6 58 .5 99.7-.5 48.2-1.1 62.7-1.2 81-.6 14.4.5 40.9-1.2 48.2-3.1 2-.5 4-1.5 4.4-2.1 1.2-1.8-3.2-4.6-8.6-5.3-2.7-.4-5-1.1-5-1.6 0-1.2 11.2-1.1 21.5 0a504 504 0 0 0 26 1.6c16.4.7 21.2 1.4 18.8 2.8-1.3.8-12.4 2.7-15.9 2.7q-3.3 0-4.2 1.8c-1 1.9-.5 4.2.8 4.2.5 0 2.1.5 3.6 1q2.7 1 1.7 2.1c-1.2 1.2-15.8 3.4-28.3 4.4-11.6.9-101.5 1-163 .1l-76.8-.9-26.2-.2v4.5l27.8.1a18491 18491 0 0 0 184.2 1.3c77.8.3 174.5.9 214.8 1.2l73.2.7V811h-18.1l.3-7.3c.3-8.2-.6-7.7 11.6-6.2l6.2.8v-4.6c0-5.2-.6-5.6-9-6.6-7.8-.9-6.8-2.5 1.8-2.9l7.2-.3v-13.7l-3.1-.6a51 51 0 0 0-7.2-.6c-4.9 0-4.3-1 1-1.7 3.7-.5 6.3-1.8 6.3-3.2 0-.4-1.3-2.1-2.9-3.9-2.6-2.8-3.6-3.2-8.3-3.3l-5.3-.1 3.5-1.3c1.9-.7 5.2-1.4 7.3-1.4 2-.1 3.7-.6 3.7-1.1 0-1.2 1-1-8.7-1.7-6.5-.4-8.6-.2-10.5 1.1-2.9 2.1-9.4 2.1-10.2.1-.3-.8-1.5-1.5-2.6-1.5-1.5 0-2-.7-2-2.9 0-3.7 1.4-4.7 7.5-5 2.8-.1 6.5-1.1 8.4-2.2 3.6-2.1 6.1-1.9 6.1.6 0 1.9 1.1 1.9 5.5.1 1.8-.8 3.6-1.2 3.9-.9q.5.3 1.2-1.1c.7-1.9 3.5-2.1 5.2-.4q1.3 1.5 1.2-1.5c0-3.7-3.8-6.1-7.4-4.7-1.5.5-2.9 1.7-3.2 2.5q-1.4 3.3-5.4-1c-1.3-1.4-2.8-2.5-3.2-2.5s-2.5 1.6-4.3 3.6c-3.3 3.5-3.6 3.6-8.7 2.9a14 14 0 0 1-7.8-3q-9.5-8.7-15.8-.8c-2.8 3.5-3.2 3.7-8.5 3.6-3-.1-6.5-.7-7.7-1.3-1.1-.6-5.3-1.4-9.3-1.7-7.1-.5-12.9-2.3-15.5-5-2.1-2-3.5-1.6-7.2 2.2-6.3 6.4-11.5 8.1-30 9.2q-28.6 1.8-32.2-1.4c-1.4-1.3-2.1-1.2-5.9.7-4 2.1-4.8 2.1-12.9 1.1-4.7-.6-11.1-1.1-14.1-1.1s-7.2-.6-9.4-1.2-8-1.3-13-1.4a70 70 0 0 1-30.3-8.3c-7.1-3.6-11.1-3.9-13.7-1.1-1 1.1-2.8 2-4 2s-2.8.6-3.4 1.4q-1.3 1.4-10.4 2c-12 .9-14.7 1.5-14.7 3.1 0 2.1 22.6.9 27-1.5 1-.6 2.7-1 3.8-1s3.1-.9 4.6-2.1l2.6-2.1 6.6 3.1c3.7 1.7 7.3 3.1 8.1 3.1s4.3 1.3 7.8 3c6.1 2.8 6.8 3 15.2 2.4 7.2-.6 9.5-.4 12.1 1 1.8.9 3.2 2.1 3.2 2.7 0 .5 1.4.2 3.1-.6s3.7-1.4 4.4-1.2c1.6.7.7 5.7-1.1 5.7-2.8 0-6.7 4.6-6.7 7.9 0 2.8-.3 3.2-2.1 2.7-1.2-.3-5.7-.8-10.1-1.2a57 57 0 0 1-13.3-2.6c-4.6-1.8-5.5-1.9-8.1-.7-2.3 1.1-5.6 1.3-16.2.6-20.2-1.2-36.8-5.9-38.9-11q-.8-1.9-.9-1-.2 1.2-1.5 1.3c-1.3.1-1.6-.6-1.9-1.3-.3-.9-.7-.9-2 .2-2.1 1.7-11.7.7-19.9-2-3.2-1-6.8-1.9-8.1-1.9-3.4 0-11-3.5-12.3-5.7-.9-1.5-.7-1.8 1.5-2 1.4 0 2.8.3 3.1.8a151 151 0 0 0 36.6 4.5c3.7-1.4-.7-2.9-9.8-3.4a46 46 0 0 1-12-1.8c-1.5-.8-3.6-1.4-4.8-1.4s-3.2-1.2-4.5-2.6c-2-2.1-2.7-2.4-4.4-1.4-1.2.6-4.5 1.1-7.4 1.1-4.7.1-6.2-.5-12.3-4.4a43 43 0 0 1-9.7-8.4c-4.4-6.3-7.1-9.1-9.8-10.2-2.4-.9-2.6-1.2-2.1-6.4q.4-5.3-.7-6.1c-.6-.4-1.1-1.6-1.1-2.6s-1.1-2.7-2.5-3.8c-2.1-1.7-2.5-2.8-2.5-7.5q0-5.5-1.5-7c-2.1-2.2-7-3-9.5-1.7-3.1 1.7-3.8.6-4.6-7-.6-6.3-.9-7.2-3.3-8.3-2.1-1-2.5-1.8-2.3-4.2.3-3.5-3.2-10.1-6.5-12.2-2.1-1.4-2.4-1.3-5.3 1.8m6.1 3.5c1 1.2 1.3 4.2 1.1 10.6-.3 7 0 9.5 1.3 11.4.9 1.4 2.2 2.3 2.8 2.1.7-.2 1.7.9 2.4 2.5.7 1.5 2 3.1 3 3.5s2.6 1.3 3.6 2.2c1.7 1.4 2 1.4 3.6-.8q4-5.2 4.1 5c0 5 .4 6.4 2.3 8.2 1.3 1.2 2.9 3.2 3.5 4.4 1.4 2.6 1.6 8 .3 8.7-1.9 1.2-7-.7-9-3.5-1.8-2.4-1.9-3.2-.9-4.8s.8-2.4-.5-4.5c-1-1.4-2.7-2.6-3.8-2.6-2.8 0-5.9 1.8-5.9 3.4q0 1.4-8.2 2.4c-6.9 1-9.2 1.9-14.3 5.3-4.7 3.2-6.1 3.7-6.3 2.5-.5-2.2-1.6-2-5 .9-3 2.5-4.9 2.2-3.1-.5.5-.8.9-2.6.9-4.1s.5-3 1.1-3.6a18 18 0 0 0 2.4-6c1.3-5 2.8-6 3.3-2.1.6 4.4 1.1 5.1 2.6 3.8 1.1-.9 1.3-2.8 1-7.9-.6-6.7-.5-6.9 2.4-8.9 2.2-1.6 3.2-1.8 4-1q1.2 1.3 2.3.1c1.6-1.6.3-4.8-1.4-3.6-.6.6-2.5.9-4.1.9-3.7-.1-4.8-2.6-1.2-2.6 1.5 0 3-.8 3.6-2s2-2 3-2q2 0 2-1.9c0-1 .6-2.4 1.4-3q1.4-1.1.9-5.1c-1-7.4 1.5-11.3 4.8-7.4m-32.8 71.7c-1 1.7-3.6 4.1-5.8 5.2l-8.5 4.6a56 56 0 0 1-18.3 6.3c-5 .7-3.8-1 1.3-1.9a34 34 0 0 0 10.5-5.1C38 723 42 721 43.3 721s3.6-.9 5-2 2.9-2 3.3-2c1.6 0 4.4-3.4 4.5-5.4q0-2.6.6-.3c.2.9-.4 3.2-1.4 5m-27.4 3c2.8-.8 5.8-1.2 6.8-.8 1.6.6 1.4 1-1.4 3.3-4 3.5-11.5 5.6-27.5 7.9l-3.8.5v-5.1c0-5 .1-5.1 2.5-4.5q2.5.6 2.5-.6.2-1.1 1.5-.6 1.6.7 1.5-1.9v-2.4l6.5 2.9c6.4 2.9 6.6 2.9 11.4 1.3M14.5 733c-.3.5-1.4 1-2.3 1q-2.2.1-.2-1c2-1.3 3.3-1.3 2.5 0m387.9 1.9c1.9 2.1 8 3.5 13.3 3.2 4-.2 5.2 1.6 2.4 3.6q-2.2 1.5-1.9 3.6.4 2.4-2.1 2.5c-1.3.2-4.3 2.4-6.8 4.9-4.3 4.5-4.5 4.5-9.1 3.8-2.6-.4-6.4-.9-8.5-1-2.1-.2-4.6-1-5.5-1.8-3-2.8-10.3-4.6-14.8-3.8-2.2.4-4.6 1.1-5.2 1.5s-3.8.2-7.1-.5c-5.5-1-6.3-.9-11.7 1.4a47 47 0 0 1-11.6 3l-5.6.4-1.5-3.8c-1.4-3.6-1.4-3.9.9-6 2.1-2 2.7-2.1 4.8-1 1.8 1 8.1 1.3 26.4 1 13.2-.2 23.8-.7 23.6-1.1-.3-.4.8-.6 2.3-.5 2.8.2 4.1-.6 10.8-7.1 2.2-2.2 4.3-4 4.6-4.1s1.4.8 2.3 1.8m54.3 2.3c1.6 1.3 1.7 10 .2 11.5q-1.2 1 .1 3.2c.6 1.2.8 2.6.5 3.1s.6 1.7 2 2.6q4.2 2.7 1.1 5.3c-.8.7-1.7 2.4-2.1 3.8-.3 1.5-1.7 3.9-3 5.5s-2.2 3.5-1.9 4.3.3 2.3-.1 3.2c-.6 1.6-.8 1.5-1.6-.5a3 3 0 0 0-3-2.2c-1.1 0-3.7-.7-5.6-1.6l-3.4-1.7 2.6-2.7c5.1-5.4 4.3-15.9-1.6-19.4-1.7-1-3.7-3.3-4.5-5.2-1.8-4.4-1.8-4.4 1.2-4.4 2.2 0 2.4.3 1.5 1.4-1 1.2-.6 1.4 2.1 1.3q3.4-.1 3.6-2.2a18 18 0 0 1 2.8-5.2c2.2-2.9 2.7-3.1 5.1-2.2 1.5.6 3.3 1.5 4 2.1m-29.7 3.3q3.1 1.5 3 4.2-.2 2.5 5.5 8c4.1 4.1 5.5 6.1 5.5 8.3q0 7.5-4.7 8.2c-2.7.3-3.1 1.2-2.2 4.6q.2 1.4-1.4 2.5c-1.5 1-2.3.6-5.1-2.7-3.5-4.2-6.3-4.4-7.3-.6q-.6 3-4.6 1.4c-1.2-.4-1.3-1.2-.6-3.7 1.2-4.4 1.3-4.4-2.1-5.6-3-1-3.4-1.6-3.1-6.1.3-3 3.5-6 6.5-6q5.8 0 5.2-7.1c-.2-3.8.7-6.9 2.1-6.9zm-109.1 7.1c3.2 2.3 6.3 9.4 4.9 11.2-.9 1-.8 2.2.1 4.7q1.2 3.5.2 5.3-1.8 3.3 2 3.2c1.8 0 3.6-4 3.1-6.8-.5-2.3 1.8-1.2 2.8 1.3q2 5.1-5.2 10.4c-4.4 3.3-10.1 3.5-12.3.4-1.3-1.7-1.4-1.7-3.2 0-2.4 2.1-9.5 1.7-12.3-.8-1.1-1-2.4-3.4-3-5.3-.8-2.9-.6-3.9 1-6 1.1-1.3 2-3.9 2-5.6 0-3.8 2-6.9 4-6.4q1.5.1 3.3-3.5c1.7-3.4 2.2-3.7 6.1-3.7 2.3 0 5.2.7 6.5 1.6m57.2 7c2.2 2.6 6.1 4.1 12.9 4.8 15 1.5 15.6 1.7 18.9 6.6 2.3 3.5 2.7 4.8 1.9 6.3-1.5 2.9 1.9 5.8 7.5 6.4 4 .5 4.7.9 5.2 3.3.3 1.4.2 3.8-.4 5.2l-.9 2.5-15.9-.3c-8.7-.1-20.5-.7-26.3-1.3a511 511 0 0 0-35.2-1.3c-17.8-.2-24.8-.6-24.8-1.4 0-1.5 2.3-2.4 5.9-2.4s9.9-6.5 11.5-12.1q1.3-4.4 3.2-4.7c1-.2 2.8-.7 3.9-1.2a34 34 0 0 1 13.2-3.6c1.5.6 4.2-.5 6.5-2.7q9-8.5 12.9-4.1m-19.2 1c.7.6.2.8-10.3 4.2-10 3.2-11.6 3.3-11.6.6q0-1.5 3.9-1.4c2.2 0 6.1-1.1 8.8-2.5q6.5-3.1 9.2-.9m116.6 1.4q.4 1-2.4 1c-1.6 0-3.3-.5-3.6-1q-.4-1 2.4-1c1.6 0 3.3.4 3.6 1m6.6 8.1c-.5 3.7-.9 4.2-3.5 4.5-2.8.3-6.6 2.9-6.6 4.6 0 1.9 4.2 4.8 7.1 4.8 1.7 0 2.8.4 2.4 1q-.7.9-2.2 1c-.9 0-2.6.8-3.7 1.9-2.1 1.8-15.5 3.8-16.9 2.5-.4-.4.5-1.5 1.8-2.6s2.5-2.9 2.5-4.1c0-2.9 3-10.7 5.3-13.7q1.8-2.5 6-3.1c8.7-1.2 8.4-1.4 7.8 3.2m11.9-1.6c0 1.6-4.5 2.1-5.4.6q-1-2 3.1-2.1 2.2 0 2.3 1.5m6 9.5q1.3.8.5 1.1c-10 1-13.1.7-12-1.2.8-1.2 9.6-1.1 11.5.1m-18.5 1c-.3.5-1.3 1-2.1 1s-1.2-.5-.9-1 1.3-1 2.1-1 1.2.4.9 1m-35.4 6.9c3.7 3.3 3.5 3.6-3.9 4.4-2.5.3-4.9 1.3-5.6 2.2-1.7 2.3-5 1.5-5.4-1.3-.4-2.9 1.4-5.2 4.2-5.2 1.2 0 3.1-.7 4.2-1.5 2.6-1.9 2.6-1.9 6.5 1.4m54.1.3c-.8.8-2.3.8-5.4.1l-4.3-1.1 5.5-.1c4.1-.1 5.1.2 4.2 1.1m-18.2 3.6c0 1.3-1.2 2.2-2.2 1.6s-.1-2.4 1.3-2.4q.8.1.9.8m-3.1 6.2q1.4.8-2.4.8c-2.9 0-4.3.6-5.3 2.1-1.3 1.8-2.4 2.1-8.9 2.1h-7.4l.3-2.7q.3-2.8 2.6-3.3c3.2-.7 19.4 0 21.1 1m-30.7 2a8 8 0 0 1-1 3.1c-1.1 1.1-14.5-.5-14.9-1.7q-.1-1.1 4.9-1.8a27 27 0 0 0 6.8-1.6c2.6-1.7 4.5-.7 4.2 2m50.8-.4q0 2.3-7.9.8c-4.5-.9-2.9-2.2 2.9-2.2 3.7-.1 5 .3 5 1.4m-130 2q-.1.3-2.1.4-1.8 0-1.4-1c.5-.8 3.5-.3 3.5.6m44.4-.5c.8.8-7.6 1.7-12.9 1.5l-14.2-.4c-5.7-.1-10.3-.6-10.3-1 0-1 36.5-1 37.4-.1m9.6-.1q-.2.9-2.2 1-2.7.1-.8-1 3-2 3 0m57.2 9 .3 8-5 .1-12.4.3-7.4.1-.4-5.6-.4-5.6 3.8-.6c7.7-1.3 10-.9 12.3 2.3q4.9 6.6 5-1.4c0-4 .7-5.2 3.2-5.5.3-.1.8 3.5 1 7.9m-101.3-5.5c.5.2 7.3.5 15.2.5q30.8.2 30.9 2.6-.1 1.3-1.6 2.2c-3.4 1.9-1 3.6 4.7 3.3q9.4-.6 5.7-3.5c-4.4-3.2.6-4.6 10.5-3 4.3.8 5 3.3 1.7 6.1-2.7 2.4-2.5 4.3.5 4.3q2.3.1 2.5.8c.2.7-4.2.7-9.2.6l-17.3-.3-53-.3-51-.3-17-.5c-10-.2-10.6-.3-6-1.1 8.5-1.6 11-7.9 3.1-7.9-5-.1-1-1.6 6-2.3 5.5-.6 6.2-.4 6.7 1.2s1.3 1.9 6.1 1.7c6.1-.2 9.8-2.2 5.8-3.2q-2-.7-2.2-1.7c0-1 56.2-.3 57.9.8"/><path d="M84.7 648.6c-.8.8.1 2.4 1.4 2.4q.8-.2.9-1.5c0-1.5-1.2-2-2.3-.9M83 669.5c-1 1.2-.9 1.6.5 2.1 1.9.8 4-.9 3.1-2.5q-1.4-2.3-3.6.4m335.5-1.5a37 37 0 0 1-9.7 2.6c-4.2.5-5.8 1.1-5.8 2.2s1 1.4 5.4.8c6.5-.7 14.6-4.2 14.6-6.1q0-1.4-.2-1.4zm6 3.9a57 57 0 0 1-19.6 3.9c-4.9-.4-6.4 1.6-2.5 3.3 1.9.9 4.2.9 9.1.1 7-1.1 17.5-5.4 17.5-7.1 0-1.3-3.2-1.4-4.5-.2M95.6 709.7c-1.4.7-2.6 1.8-2.6 2.3 0 1.4 1.8 2.1 2.5 1 1.1-1.8 7.5-1.1 10.5 1.1 4.8 3.6 8.3.3 3.9-3.7-2.5-2.3-10.5-2.7-14.3-.7m25.8 6.4c-.8 1.4 1.1 3.3 2.5 2.5q1-.7 1.1-1.6c0-1.3-2.9-2-3.6-.9m163.3 39.5c-1 1.3-1.3 2.4-.8 2.4 1 0 3.6-3.9 2.9-4.5-.2-.2-1.1.8-2.1 2.1m199.6 46q-.5 1.7 1.2 3.1c1.6 1.1 2.1 1.1 3.4-.1s1.2-1.8.1-3c-1.6-2.1-3.9-2-4.7 0M35.3 824c-8.8.5-10.8 1.4-8 3.5 1.5 1.1 1.6 1.7.6 4.1l-2.5 7.4c-3.9 13.4-6.5 19.5-9.1 21.6l-2.8 2.2 2.7 1.1c3.2 1.2 8.3.7 10.4-1 .8-.6 1.4-2.7 1.4-4.7 0-4.2 2-11.4 3.5-12.4a15 15 0 0 1 5.7-.8c5.6 0 6.9 1.4 8.8 9.8.9 4.1.9 5.6 0 6.7-.7.8-1 2.2-.6 3 .8 2.2 15.1 2.2 16-.1q1-3.2-2-3.4c-3-.2-3.8-4.5-5.9-14.5-.9-4.4-2.4-10.3-3.2-13.2a23 23 0 0 1-1.1-6.9c.4-2.4-3.5-3-13.9-2.4m5.3 10c2.1 7 2 7.3-2.8 6.5-2.4-.4-4.7-1.1-5.1-1.5-.5-.4 0-2.9 1.2-5.5q4-8.8 6.7.5m37.2-10.3c-4.5.5-13.2 7.8-15.3 13.1a24 24 0 0 0 .5 17.6c3.5 7.2 13.7 11.9 24.5 11.3 4.4-.3 6.1-.9 8.2-2.9 1.4-1.4 2.3-3 1.9-3.6-.6-1-5.4-2.1-11.9-2.8-7.8-.8-13.7-7.8-13.7-16.5 0-4.3.5-5.5 2.9-8 3.5-3.4 8.6-3.9 12.1-1.1 1.8 1.5 2 2.1 1.1 4.4q-2 4.8 3.8 3.3c6.4-1.4 8.9-6.8 5.2-11.2-3.3-4-7.7-4.8-19.3-3.6m29.3 2c-1.5 1.1-1.5 1.4.1 4 1.4 2.4 1.5 4.8 1.1 15.3-.5 11.1-.8 12.8-2.9 15.3-3 3.5-2.2 6.1 1.5 5.1 1.4-.4 7.7-.8 14-1 10.1-.3 11.7-.6 13.8-2.5 1.2-1.3 2.3-2.8 2.3-3.5 0-.6.7-1.7 1.5-2.4q1.8-1.4.5-2.4c-.9-.8-2.1-.1-4.5 2.7-3.2 3.7-3.4 3.8-9.6 3.5l-6.4-.3-.6-5c-.3-2.7-.3-5.9-.1-7.2l.4-2.2 1.8 2.1c2.7 3.4 5 .9 5-5.3q0-8.1-3.9-4.5c-2.7 2.5-3.2 2-2.9-2.7l.3-4.2h4.4c4.3 0 4.5.1 5.5 4 1.4 4.9 4.1 5.8 5.7 1.9 1.2-3.2.3-10.4-1.4-10.9a99 99 0 0 0-25.6.2m236.5.2c-.9 1.5.1 3.1 2 3.1 1.3 0 1.5 2.3 1.2 15.6-.3 14.9-.4 15.7-2.6 17.5q-5.4 4 5.4 3.9c4.9 0 6.4-.3 6.4-1.5 0-.7-.7-1.8-1.6-2.3-1.3-.7-1.7-3.2-2.1-11.5-.6-11.3 0-12.9 3.3-8 .9 1.6 5.1 7.4 9.3 13.1l7.6 10.3 3.8-.4c6.7-.9 6.7-1 6-19.1l-.6-16.3 2.6-.7c1.5-.3 2.7-1.3 2.7-2.1 0-1.7-4.9-2.8-10.5-2.3-4.1.3-6 2.6-2.9 3.4 1.7.4 1.9 1.7 2 10 .1 7-.2 9.4-1.1 9.4q-1.2-.1-1.8-1.3a59 59 0 0 0-5.6-7.4 41 41 0 0 1-5.1-6.9c0-.5-1.4-2.2-3-3.8-2.5-2.5-4.1-3.1-8.9-3.4-3.6-.3-6.1 0-6.5.7m-117.6.8c-4.8.9-6.4 4.3-2 4.3 1.1 0 2.5 1 3.2 2.2 2 3.6 6.8 15.8 6.8 17.3 0 .7 1.3 3.8 2.9 6.8 1.6 3.1 2.8 6.4 2.8 7.4-.2 1.5.7 1.9 4.7 2.1 8.6.6 12.7-1.9 7.4-4.3a9 9 0 0 1-3.2-2.8c-.9-1.4-.6-2.2 1.5-4 1.4-1.2 3.8-4.1 5.4-6.5s3.3-4.5 3.8-4.9c1.1-.7 3.8 2.2 9 9.5 4.1 5.8 4.2 7.8.5 8.4q-2.1.5-2.3 1.8c0 1.2 1.5 1.6 6.8 1.8 7.2.3 8.1-.5 5.5-4.7-.9-1.5-.7-3 1.1-7.8l4.7-13.3c3-8.7 3.8-10 7-10q2.3-.1 2.4-1.4c0-1.7-11.3-3.3-14.9-2.1-2.9.9-2.6 2.5.4 2.5q2.6-.1 2.5 1.9c0 2.2-4.8 16.1-6 17.4-.4.5-2.5-1.3-4.6-3.9-6.1-7.3-9.2-10.4-10.3-10.4-1.3 0-3 1.7-9.5 9.9a28 28 0 0 1-6.1 6.1 69 69 0 0 1-10.2-22.3 21 21 0 0 0-9.3-1m171.7 0c-1.2 1.2-.7 3.3 1.3 5.3q3.4 3.4 1 19.9c-.7 5.4-1.4 6.8-4.1 9.1-5.4 4.5-3.7 5.8 7.8 6 16.5.4 18.8.2 23.4-1.9 9.5-4.5 11.8-8.3 11.9-19.2 0-3.5-.7-5.7-3.1-9.3-5-7.5-9.8-9.4-26-10.1-6.4-.2-11.9-.2-12.2.2m24.9 5.1c3.2 2 4.9 20.1 2.4 26.1-1.5 3.7-6.9 5.2-10.6 2.9-1.2-.8-2.9-27.2-1.9-28.9.7-1.1 8.5-1.2 10.1-.1M304 827.9c0 .5.9 1.5 2.1 2.2 2 1.4 2 1.4-1.5 10.2-2 4.9-5.4 12.3-7.6 16.5q-3.9 7.7-3 8.6c1.3 1.3 12.1.9 13.5-.5q1-1-.7-2.3c-2.3-1.7-2.3-4.4.2-10 1.8-4.2 2.2-4.6 5.2-4.5 7.9.3 9.1 1 10.5 6.4.7 2.7 1.3 6.5 1.3 8.4v3.4l6.6-.6c7.3-.5 8.7-1.3 6.1-3.2-2.7-2-9.2-28.8-8-33.3.4-1.8-.3-1.9-12.1-2.1-6.9 0-12.6.3-12.6.8m14.7 9.9c1.8 7.1 1.8 7.2-3 7.2-2.4 0-4.6-.3-4.9-.6-.7-.6 2.7-9 4.5-11.2 1.3-1.7 1.9-.9 3.4 4.6m142.3-10c-8.3 3.7-10.2 12.4-3.6 16.7a31 31 0 0 0 9.3 2.7c7.7 1.1 10.3 2.9 10.3 6.9 0 4.4-2.3 5.9-9 5.9-7.7 0-9-.6-9-4.1q0-8-8.2 1.1c-6.8 7.7-6 12.2 1.6 8.6a38 38 0 0 1 15-1.6c13.2 0 15.8-.9 17.6-6.4.8-2.5.7-4.3-.2-7.1-1.7-5-6.1-7.2-15.7-7.9-8-.6-11.1-2.3-11.1-6.1 0-3.3 3.1-5.5 7.6-5.5 5.1 0 8.7 1.9 9.4 5q.6 2.5 2.8 2.8c2.6.4 4.5-3.4 4-8.2l-.3-3.1-9.5-.2c-5.2-.1-10.2.1-11 .5m-273.4 10.3c-3.1 3.6-3.1 4.1-.6 9.8 1.1 2.4 2 4.7 2 5.2s1.2 3.4 2.6 6.4c3.1 6.5 2.5 9.4-2.6 12-1.6.8-3 2.2-3 3 0 2 .6 1.9 5.7-1.1 5-2.9 6.3-5.5 6.3-12.6 0-4.5.2-5 2-4.5 2.7.7 4.1-1.4 3.2-4.8-1.1-4.1-3.9-5.6-5.8-3-1.5 2-1.5 2-3.4-.5-2.5-3.2-2.5-4.1 0-4.7 2.2-.6 2.6-3.3 1-6.4-1.5-2.8-4.5-2.3-7.4 1.2"/><path d="M169.6 853.4c-2 1.8-3.6 3.9-3.6 4.5 0 6.9 13.1 9.1 18.5 3.1 1.5-1.6 1.5-2.4.5-5.5-2.1-6.4-9.7-7.5-15.4-2.1m7.8 1.2c2 .8 2.1 3.8.1 5.4-1.2 1-1.8 1-3 0-1.8-1.5-2-4.6-.2-5.3l1.4-.6zm314.4 4.5c-2.8 1.6-2.3 5.7.7 6.5 1.4.3 3.2.4 4 0 2.2-.8 1.9-5.3-.4-6.6s-2.2-1.2-4.3.1"/></svg>