<svg xmlns="http://www.w3.org/2000/svg" width="666.7" height="1170.7" viewBox="0 0 500 878"><path d="M233 22.6c-4.7 1.6-4.9 3.2-.3 3.6l3.8.3.3 5.5c.2 3 .1 7.4-.3 9.7l-.6 4.3H231c-4.6 0-7.1 1.3-5.5 2.8.8.8 43.2.5 44.6-.3 1.9-1.2-.3-2.5-4.4-2.5-2.3 0-4.7-.4-5.3-.8q-1.4-1.1-1.8-15.7c-.1-3.7.1-4 2.5-3.7 2.6.3 5.8-2.2 4.5-3.5a149 149 0 0 0-32.6.3m17.8 13.1-.3 9.8h-6l-.2-9.8-.3-9.7h7.1zM86.2 61.3c-2.2 2.6-2.6 10.4-.8 13.1.9 1.4 1.6 2.7 1.6 3s-1.6 1.3-3.6 2.5c-2.6 1.6-3.5 2.7-3.2 4.4s1 2.3 4.1 2.5q3.5.3 3.7-.8 0-1 .9-.6c1.7 1.1 0 4.2-2.9 5.4-3.5 1.6-4.6 4.3-2.9 7.1 1 1.5 1 2.5.1 4.5a8 8 0 0 0-.2 5.7c.5 1.7.8 3.5.5 3.9-1.3 2.2.7 69.6 2.1 71q1.1 1.2.2 5.8c-.4 2.6-.7 19.9-.6 38.4.2 25.2 0 34-.9 34.9-2 2-2.7-1.7-1.3-6.3 1.2-3.4 1.2-4.1-.1-4.9-.8-.5-2.1-.8-2.9-.5l-2.9.7q-1.4.2-2-1.7c-.6-2.2-7.2-8.4-8.9-8.4q-2.5.2-3.6 6.3c-.6 3.5-.4 4 2.9 6.9q3.6 3.2 2.9 5c-.8 2.8 1.4 5 4.5 4.4 2-.4 3.5.3 6.7 3.2l4.2 3.7.5 11c.4 6 1.1 15.6 1.8 21.3a87 87 0 0 1 .5 14.5c-.4 2.3-.8 22.6-.9 45.2-.2 22.5-.7 49.6-1.1 60.2-.9 18.7-1 19.1-3.3 20.2-1.9.9-2.3 1.9-2.5 5.8a97 97 0 0 0 .6 10 8 8 0 0 0 1.5 3.7q1.2 1.5.6 4.9-.6 3.3.4 4.1c.6.4 1.1 2.5 1.1 4.8v4l-6.8-.4c-5-.2-7.6-.9-9.9-2.6a11 11 0 0 0-7.8-2.1c-4.3.3-4.9 0-9.1-4.4-2.4-2.6-5.3-4.7-6.3-4.7s-3.6 1.3-5.8 2.9c-11.2 8.1-24.2 12.8-33.2 11.9-3.5-.3-4.1-.1-4.1 1.5 0 1 .9 2.1 2 2.4s2 1.4 2 2.4q.1 1.8 1.1 1.9.8 0 .4 1t.9 1c1.9 0 2-.5.6-3.1-1-1.7-.7-1.9 2.4-1.9 1.9 0 3.8.5 4.2 1.1q.6 1.2 1.5-.2c.6-1 1.2-.7 2.8 1.2s2.2 2.2 3.2 1.1q1.5-1.3.1-1.2-1.1-.2-1.2-2 0-2 1.9-2c1.1 0 2.3-.5 2.7-1.1.3-.6 1.5-.8 2.6-.6q2 .6 1.4-.9-.5-1.2.3-1.1c.5.1 1.8-.9 2.9-2.3l2.1-2.5.1 3.2c0 1.8.2 3.3.5 3.3 1.5 0 3.1-2.7 2.7-4.4q-.6-1.9.9-1.4 1.3.6 1.1 2.3-.5 1.9 1.3 1.1c.9-.3 2.5-.1 3.6.4 2.5 1.4 2.5-.2-.1-2.5-2.2-2-1.8-3.7.6-2.8q1.3.6 1 2-.6 1.4 1.4 2 1.8.6 1.9 1.7v3.4l.1 2.3 2.2-2.1c1.2-1.1 2.8-2 3.5-2s2.2-.5 3.3-1.2c1.6-1 2.7-.8 6.2 1 3.6 1.8 3.9 2.2 1.8 2.2a9 9 0 0 1-4-.9c-1.5-1.1-3.8-.3-2.3.8 1.7 1.1 4.2 7.1 3.2 7.7-.5.3-12.3.5-26.2.5-13.8-.1-27.8.2-31 .5-5.3.6-5.7.9-5.7 3.2v2.5l17.7-.6c17.4-.7 37.9 0 36.8 1.2-.4.3-3.6 1.1-7.3 1.6-5.7.9-6.7 1.3-7 3.2-.6 4.1 2.5 4.6 24 4.1l19.8-.6v46.5l-4.7.7a99 99 0 0 1-9.6.6c-2.8 0-8.9.5-13.5 1.2-7.1 1-8.5 1.6-9.2 3.4-1.1 2.8-5.7 3.5-28.5 4.3-16 .5-18 .8-18.3 2.3-.3 1.6.7 1.8 10.3 1.8 10.7 0 38-1.7 42.3-2.6 1.2-.2 2.7-1.5 3.2-2.8 1-2.7 5-3.5 19.5-3.9l8-.2.3 5.4c.2 3-.1 5.8-.6 6.3s-19.4.8-42 .9H0v4.7l42.3-.2 42.2-.1.2 11.5c.2 6.3.5 12.5.8 13.6.6 2.6 4.8 4.4 9.4 4.1 1.9-.1 3.6.3 3.8 1 .3 1-10.5 1.2-48.2 1.2-26.7 0-49 .3-49.5.6-.6.4-1 22.7-1 58.1 0 33.6.4 57.3.9 57 1.2-.8 2.3 2.2 1.4 3.7q-.6 1-1.4-.9-.8-1.6-.8 4.7c-.1 5.9.1 6.7 1.9 7.2q2 .5 2 3c0 2.5 1.2 3.5 3.2 5.2 3.2 2.7 4.6 2.8 12 1 2.6-.7 2.6-.6 2.2 3.1-.5 3.5-.1 4.3 3.7 8.2 2.3 2.4 4.6 4.1 5.3 3.9.6-.2.9-1.9.8-3.8-.5-5.5 1.3-8.9 4.5-8.9 1.6 0 3.5-.5 4.3-1 1.3-.8 1.3-1.3-.2-3.7-3.8-6.1-5.1-9.2-4.5-10.8.5-1.3 1.1-1.4 2.7-.5 1.1.6 2 1.7 2 2.5s1 2.1 2.1 2.9c3.6 2.5 8-1.5 5.9-5.4-.8-1.5-.5-2.3 1.5-3.8 1.4-1.1 2.5-2.4 2.5-2.9 0-1.5-4.6-3.2-6.9-2.6-3.2.8-2.5-1.5 1.2-3.7l3.2-2 1.8 2.1a10 10 0 0 1 1.7 5.2 9 9 0 0 0 1.7 5c1.7 1.8 1.7 2-1.2 4.3-2.5 2-2.8 2.6-1.5 3.4.8.5 2.3 1 3.3 1 2.4 0 1.7 2.2-1.1 3.5-3 1.3-2.2 2.9 1.6 3.3 3.4.3 3.8 1.2 2.2 4.3-1.3 2.3-2.2 2.4-6.7.2q-7.8-3.5-2.4 6.2c3.2 5.6 8.1 9.5 12.1 9.5q2.7-.1 3.8 2.5 2 4.3 6.7.9 2-1.5 5.5-.9c5 .8 8.6-1.3 8.2-4.8-.1-1.5.2-2.7.7-2.7 1.5 0 4.1-5.5 4.1-8.7 0-4.9-1.3-5.9-5.6-4.4-3.4 1.2-3.9 1.2-5-.4q-2.8-3.6 2.7-2.7c2.7.4 3.1.2 2.6-1.2l-1.3-3.1c-.5-1.3.2-1.4 5-.9 4.2.5 6.7.2 10.1-1 5.7-2.2 5.9-4.8.8-9.7-4-3.8-7.9-5.6-12.8-6.1-2.9-.3-3-.5-2.7-4.6.3-3.7.1-4.2-1.7-4.2-1.1 0-2.4.7-2.9 1.6-.8 1.5-1 1.5-1.5 0-1-2.5-4.1-1.9-6.5 1.4-1.3 1.6-2.8 3-3.6 3-.7 0-2.7-2-4.5-4.5l-3.2-4.5 2.3-2.9c2.6-3.3 7.4-5.6 8.4-4 .3.6 1.6.9 2.7.8 1.4-.2 3.7 1.1 6.1 3.4 2.2 2 4.3 3.7 4.8 3.7s3.8-6.3 3.8-7.6c0-.2-1.2-1.5-2.7-2.9q-3.2-2.8-.8-1.9c1.1.4 3.6 2.6 5.6 4.8 3.2 3.6 3.8 3.9 5.3 2.7.9-.7 1.9-3.1 2.2-5.2.6-3.6.9-3.9 3.8-3.6s3.1 0 2.9-2.8l-.2-4.5c.2-17.2-.9-22-4.7-22-1.9 0-2.8-2-1.5-3.3.6-.6 1.1-2.4 1.1-4 0-2.8-.1-2.8-4.2-2.2l-4.3.6-2.5-5.3a17 17 0 0 0-3.7-5.6c-1.1-.3-5.2 7.1-6.7 12.1q-.6 1.6-3 1.7c-4.5 0-7.4 6.9-4 9.4 1.2.9 1.4 2.1.9 4.9-.4 2-1 3.7-1.4 3.7s-1.6-1.6-2.9-3.5c-2.6-4-3.2-4.2-5.7-1.5-1.3 1.4-1.6 2.8-1.1 5.1q.7 3.2-1.1 4.4c-1.5 1.2-1.5 1.5.1 5l1.8 3.7-3.8 3.2a18 18 0 0 1-4.8 3.1c-1.7 0-7.7-8.6-7.2-10.4l1.1-3.9q.9-2.5-1.4-2.9c-2.6-.7-2.6-.9-.1-4 2.3-3 1.2-6.3-2.2-6.3-1.7 0-1.8-.2-.8-1.5.7-.8 1.8-1.5 2.5-1.5s2-.9 2.9-1.9c1-1.1 3.1-2.3 4.7-2.6q5.4-1.3 2.4-7.7c-4.5-9.1-4.9-9.8-8.7-11.3-4.8-1.9-8.1-1.9-11.7 0-2.6 1.3-3.2 1.2-6.7-.5-2.1-1.1-4.5-2-5.4-2-2.7 0-6 3-6 5.4q0 2.3-2.5 3.4-2.3 1.3-2.5 3.1c0 2.2 3.5 5.1 6 5.1 2.6 0 6.8 5.2 7.5 9.3s-.6 5-2.3 1.2q-2.1-4.5-4.2-.5c-1 1.9-1.9 2.1-8.2 1.8l-7.1-.3.2-13c.1-7.1.7-13.5 1.2-14.1q1-1.2-.1-1.9c-3-1.9 2.2-2.4 24.8-2.4 13.6-.1 26.7-.3 29.2-.6s14.1-.7 25.8-1c16.7-.4 21.3-.3 21.7.7.2.7.6 30.9.9 67l.5 65.8h-4.2l-53.4 1.2L0 775.4v57.4l48.7-.4c57.8-.5 68.1-.8 69.3-2 .5-.5 1.2-8.8 1.5-18.4s.8-17.7 1.3-18 22.2-.4 48.5-.2l47.7.2-.6 2.8-1 4.3c-.2.8-2.3 2.6-4.7 3.9a53 53 0 0 0-5.7 3.5c-.8.7-3.3 1.8-5.5 2.5s-6.6 2.6-9.9 4.1a27 27 0 0 1-9 2.9 44 44 0 0 0-18 9.2c-.9 1.4-.6 2.3 1.4 4.3 2.5 2.5 2.6 2.5 13 1.5l15.5-1.6c4.5-.6 25.2-.7 45.9-.2 7.7.2 7.9.1 10.7-3 3.1-3.5 3.2-6.3.1-11-1.1-1.7-1.3-4-.9-9.6.4-4 .2-8.7-.2-10.4q-1-3.2.4-4.2c2.6-2.2 5.5 6 4.8 13.7l-.5 5 4.6.7q4.5.8 5.6 2.7 1 1.8 4.2 1.9c1.7 0 4 .7 4.9 1.6q2 1.6 9.1 2.2c4 .2 8.1.9 9 1.4 2.9 1.4 6.8-1.8 6.8-5.6 0-4.4.5-4.7 4.8-2.9 2.1.9 7 1.5 12.1 1.6 8.1.1 9-.1 15.6-3.6 3.8-2 7.4-3.7 8-3.7s2.2-1.1 3.5-2.5c1.9-2 2.2-3.2 1.8-7.8l-.4-5.4 34.9-.7c24.3-.5 35.3-.3 36.2.4a9 9 0 0 1 1.9 4.5c.4 1.9 1.1 3.7 1.6 4s5.7.3 11.6-.1l10.7-.7 1.5-3.9 1.5-3.8h28.9c16.7 0 28.8-.4 28.8-.9 0-1.8-7.8-2.2-33.2-1.6-23.9.5-25.8.4-26.6-1.2-1.1-2.2-1-39.3.1-41.1.5-.6 2.5-1.2 4.6-1.2 4.9 0 6.7-2.1 7.3-8.7q.7-8.4-4.5-8.3c-1.3 0-1.7-1-1.7-4.4 0-4-.4-4.8-3.6-7.2-2.7-2.1-3.4-3.3-3.2-5.3.2-2.1.9-2.7 3.3-2.9 1.7-.2 3.4-.7 3.9-1.2.9-.9 1.6-31 1.9-80 .1-17.3.6-32.1 1-32.8 1.6-2.4 2.7-.1 2.7 5.4 0 3.9.4 5.6 1.5 6s1.2.9.1 2.7c-1.4 2.5-2.3 36.7-.8 36.7 2.3 0 2.7-2.4 2-10.2q-1.3-13.7 1.8-18.5c1-1.5 1.1-3 .4-5.4-1.4-4.8-1.2-16.3.2-17.7 1.6-1.6 5.5-1.5 6.5 0 .4.7 1.5 11.8 2.4 24.6 1 13.4 2.1 23.8 2.8 24.5 1.1 1.1.9-14.7-.5-39.6l-.5-9.7h4.5c4.4 0 4.5.1 5.2 3.5.7 4.1 2.7 4.2 3.2.2.6-5 2.2-2.7 2.2 3 0 9.5 1.1 16.3 2.6 16.3 1.1 0 1.4-2.4 1.4-11 0-8.9.3-11 1.4-11 1.9 0 2.5 13.9 1.2 25.8-1.1 10-.4 11.3 4.8 8.8q6-3 1.6-5.6-2-1-2-4.6c0-3.8-.2-3.7 4.8-1.7q1.2.5 1.2-2.6c0-2.6-.4-3-2.2-2.8-2.7.3-3.6-2.4-3.7-11.1-.1-4.5.3-6.2 1.1-6 .6.2 1.2 2.4 1.2 4.8.1 3.4.5 4.5 1.9 4.8 1.5.3 1.7-.5 1.7-6.1v-6.4l-23.7-.6c-31.6-.9-38.3-2.8-38.3-11.3 0-1.7.6-3.6 1.3-4.2s11.2-1 27.4-1c28.5-.1 33.6-.6 33.1-2.9-.4-1.8-4.6-3.5-14.5-5.8-5.5-1.2-10.5-1.5-21-1.2-7.9.3-16.3 0-19.5-.6-5.9-1.2-6.4-1.7-6-6.7l.3-13.7.1-12.1 2.6.1c3 .2 3.4-1.2 3.2-10.7-.1-8.5 3.9-11.8 9.3-7.6 1.4 1.1 3.5 2 4.6 2q4.7 0-1.5 5.4c-2.2 2-3.4 3.8-2.9 4.5s-.4 2.2-1.9 3.6-2.6 3.5-2.6 4.9c0 2.5-.2 2.5-4.5 1.9-4.7-.6-5.4.1-3.6 3.5.5.9 1.2 2.5 1.5 3.5.7 2.3 4.6 3.7 10.1 3.7 2.4 0 4.6.4 4.9.9s-1 2.1-2.9 3.5c-1.9 1.5-3.5 3.4-3.5 4.3 0 1.3-.8 1.4-5 .9q-7.6-1-3.5 2.4c2 1.7 4.9 2.1 18 2.5 6.1.2 15.7.6 21.5 1 13.1.7 17-.6 17-5.9 0-3-.2-3.3-2.5-2.9-3.4.7-11.6-2.8-11.3-4.7.4-1.9 10.3-2.7 12.4-.9q1.5 1.4 1.4-.4c0-2-2.7-4.7-4.6-4.7-1.4 0-2-3.1-.7-4.3.3-.4 1.7.3 3 1.5 3.3 3.1 2.9.5-.8-5.4-2.8-4.4-3.4-4.8-7-4.8-3.2 0-3.9-.4-3.9-1.9 0-1.1-1.1-3.3-2.5-4.9-2-2.3-2.5-4.1-2.5-8.1 0-4.8.1-5 1.9-3.9 1.5.9 2.3.9 3.5-.1 1.4-1.2 1.6-.9 1.6 2.2 0 2.6.6 3.9 2 4.7q1.8 1 2 .4t1.5.6c1.3 1.1 1.5 2.5 1.5 4a5 5 0 0 0 2.5 4.4l2.5 1.6v-16.6l-3.5-1.7q-3.4-1.7-3.5-3.5c-.1-1.8-1.4-4.9-3-8.6-3.3-7.2-5.4-8.2-7.6-3.8-.6 1.3-2.7 3.9-4.5 5.8-2 2.1-3.3 4.3-3.1 5.5q.3 1.9-1.2 1.9c-1.2 0-1.6-1-1.6-4.3.1-7.4 2.1-10.2 9.7-13.6 1.7-.8 2.3-1.9 2.3-4.1 0-4.8 1.7-7.3 4-6 1 .5 2 2 2.2 3.2q.2 2.4 2.8 2.3c2.2 0 2.5-.4 2.5-3.4 0-2.8-.6-3.8-3-5.2q-5.4-3.3-9-.5c-1.4 1-2.6 1.1-4.5.4-3.3-1.1-7.5.3-8.9 3-1.3 2.5-8.9 6.3-9.7 5-.4-.5-.8-3.3-1-6.1-.3-3.8-.9-5.7-2.5-7-2.9-2.3-4.2-2.2-7.8.9-2.9 2.4-3.1 3-2.6 7.3.5 4 .3 4.8-1.8 6.3-1.3.9-3.2 1.8-4.3 2-1.8.3-1.9-.6-1.9-26.7v-26.9l3.7-.9c3.3-.8 4.2-.5 8 2.2 2.4 1.7 7 6.3 10.3 10.2a61 61 0 0 0 15.3 14.9q5.3 3.8 10.2 4.4c2.7.4 6.5 1.3 8.4 2.1s4 1.5 4.6 1.5c1.8 0 1.1-5-.7-5.7-1-.4-3.1-1.7-4.6-3a10 10 0 0 0-4.7-2.3c-2.8 0-8.3-3.6-10.9-7.1-1.2-1.7-2.1-3.2-1.9-3.4s2.5-1.3 5.1-2.4c3.7-1.6 5.1-2.9 6.3-5.6 1.1-2.7 2.7-4.2 6.9-6.2 5-2.5 7.3-5.3 4.4-5.3q-1.2-.1-2.3-1.6c-2.1-2.9-15.5-1.5-16.3 1.7q-.5 2-3.4 1.9-4.2-.2-4.4 4.2c-.2 2.5-3.4 5.8-5.6 5.8-2.3 0-3.7-2.6-4.9-9.2-.6-2.9-2.4-7.8-4-11-1.7-3.1-3-6.4-3-7.3 0-2.2-3.7-5.5-6.3-5.5-1.2 0-3.9.9-6 2-2 1.1-4 2-4.3 2s-.4-10.5-.2-23.3c.3-24.7.6-25.9 5.2-27.7 1.5-.5 2.8.1 5.2 2.7 3 3.2 6.7 4.3 7.9 2.4.5-.9-.7-5-3-10.4q-1-1.8 1.7-1.7 5.5 0 6.5-6.3c.5-3.5.3-4.2-2.3-6.2-2.7-2.2-3.1-2.2-6.3-.9-4.1 1.7-4.1 1.7-4.1-.2 0-2.4-4-1.3-6.3 1.7-1.9 2.7-1.9 2.7.3 7.3 2.3 4.5 2.3 4.6.5 6.6-1 1.1-2.3 1.9-2.8 1.7-1.4-.4-1.6-125.7-.1-133.7 1-5.6 1-7.1-.6-11q-3.5-8.8-10-5.5-5 2.7-5-1.6c0-1-.9-2.7-2-3.6q-4.5-3.9 1.7-3c6.5 1.1 11.3-5.6 5.8-8.1a12 12 0 0 0-4.1-1.2c-1.2 0-1.4-.7-.9-3 1.1-5-3.9-11.5-7-9-1.6 1.3-3.4 8.5-3.2 12.5.2 2.8-.1 3-3.8 3.5l-4 .5-.3 5.7c-.3 5-.1 5.7 1.8 6.3 1.6.5 2.9 0 4.9-1.9 3.2-3.1 4.2-3.2 6.4-.8 2.1 2.3 2.2 7.5.1 9.2-2.5 2.2-3.8 5.2-4.5 11-.5 4.5-.3 6.1 1.3 8.7 1.8 3 1.8 3.4.3 5.6-1.1 1.7-1.5 4.2-1.2 8.8.4 7.7-.4 9.5-4.2 10.4-2.2.5-3.5.1-5.6-1.9q-5.6-5.3-5.5.6c.1 5.4 1.7 10.8 4 13.3l2.1 2.2-2.3 1.5c-2.1 1.4-2.1 1.8-1 5.6.7 2.3 1.7 4.4 2.3 4.8 1.5.9 7.6-5.2 8.4-8.3 2-8 2.2-.4 2.4 98.5.1 27.1-.1 49.7-.4 50.2q-.7 1-2.4 1-2.5.2-4.6 2.2c-2.5 1.9-3.1 2-5.9.9-5.5-2.3-8-2.3-14.1 0-5.2 1.9-7.5 3.7-17.5 14a62 62 0 0 1-16.3 13.8l-4.8 2-.8-2.2a140 140 0 0 1-1.5-16.7c-1.6-34.8-4.1-62.4-6.1-68-.9-2.5-2.7-8.9-4-14.3-1.3-5.3-3.2-11-4.2-12.6-2.8-4.3-7.4-10.7-11.5-15.9-2.2-2.6-3.8-5.8-3.8-7.2 0-4.7-3.1-14.4-5.2-16.7-1.8-1.9-2.1-3.4-1.9-7.8s-.1-5.6-1.4-6.1q-2.6-1.1 0-7.5.5-1.7-2.4-5.2a17 17 0 0 1-3.1-4.2c0-.4 1.2-2.2 2.8-4.1a92 92 0 0 0 11.2-15.1c0-.5.9-1.8 2-2.8 5-4.5-.2-15.2-10.5-21.8a77 77 0 0 1-10-7.9c-4.5-4.1-6.3-5-15.5-7.7-23.3-6.7-29-7.9-33.4-7-6.6 1.5-11.3 3.9-12.7 6.7-.7 1.5-2.1 3.9-3.1 5.4-1 1.4-1.8 4-1.8 5.6a99 99 0 0 0-2.5 23.4l-.4 14.9-3.8 6.8c-3.3 6.1-3.6 7.1-2.3 8.6.8.9 2.4 2.1 3.6 2.5 1.6.7 2.4 2.3 3.3 7 .7 3.4.9 7.4.6 9-.5 2.4-.2 3.2 1.9 4.6a7 7 0 0 0 5.6 1c3.8-.7 3.9.8.3 2.3-1.6.7-4.8 3-7.2 5.1-3.9 3.6-4.3 4.3-3.7 7.3q.7 3.6-.9 4.7c-2.1 1.7-4.3 6.2-3.8 7.6.2.6-1.2 2.5-3.1 4.2a76 76 0 0 0-8.7 11.2c-5.5 8.6-7.6 9.7-9.3 4.9-.7-2.2-.3-3.4 2.4-7.4 7.6-11.1 8.5-18.4 3.6-30.5a31 31 0 0 0-12.9-16.5 37 37 0 0 0-43.1 2.7c-7.2 6.3-13 19.6-11.9 27.3.4 3.2.1 4.4-1.6 5.9-1.2 1.1-2.1 2.5-2.1 3.3 0 1.9 2.9 6.4 5.4 8.5q2 1.6 2.6 6.9l.5 5.3 5.3 1.6c2.9.9 6.4 2.8 7.7 4.2 2.3 2.5 2.7 2.5 11.3 2a38 38 0 0 1 14.7 1.3c5.4 1.7 5.7 2 5.1 4.6-.4 2.1.3 3.8 3.2 7.5 3.2 4.2 3.6 5.6 3.8 10.9.1 5.1-.3 6.6-2.7 10.1-3.2 4.7-4.8 11.7-3.1 13.7.6.7 1.4 3.1 1.8 5.3l.6 4.1-5 2.1c-2.8 1.2-5.5 2.2-6 2.2s-3 1.8-5.5 4-5 4-5.6 4-2.9 1-5.3 2.3l-10.3 4.7c-3.3 1.4-8.2 3.7-11 5.1-7.5 3.9-11.3 4.3-17.1 1.8a39 39 0 0 1-8.6-5.4 29 29 0 0 0-7.8-4.4c-4.5-1.3-4.8-1.8-5.5-7.6-1-8.1-1.3-53.8-.4-59.3a380 380 0 0 0 2.3-21.7c.7-8.8 1.6-16.7 2-17.6q.6-1.6-.6-3c-.8-.8-1.4-3.8-1.4-6.9l-.3-8.5c-.8-14.1 1.6-20.1 7.6-19.2 2.6.5 3.9 0 6-1.8 2.5-2.1 2.6-2.5 1.4-4.8q-1.3-2.5-.7-7c1.1-7.1-.5-7-11 .8q-1.2.8-1.8.4c-1.6-1.5-2.6-66.2-1.5-98.9.5-17.8.1-38.8-.9-45.5-.7-4.4-1.4-11.4-1.6-15.5-.3-6.6 0-8.2 2.7-14 1.6-3.6 3.1-7.2 3.3-8l1.3-5.8q1.2-4.3.1-6.2c-1.7-3.1-6.6-6-10.4-6q-3.7 0-3-1.3c.3-.8 0-2.6-.6-4.1-.8-2.1-1.5-2.6-3-2.1s-2 .2-2-1.2c0-2.4-4.2-10.6-5.6-11q-1.1-.2-2.2 1m3.7 10.4q0 1.2-.9 1.3c-.5 0-1-1.5-.9-3.3q0-3.9.9-1.2c.5 1.1.9 2.6.9 3.2M86 83q0 .9-1 1a1 1 0 0 1-1-1q.1-1 1-1t1 1m18 1.4c0 1.6-1.8 3.1-2.7 2.2-.8-.8.5-3.6 1.7-3.6q.9.1 1 1.4m5 2.6q-.1.9-1.6 1-1.3-.1-.9-1 .6-1 1.6-1 .8 0 .9 1m-10.9 5.3c-1.3 1.3-1.5-.1-.4-3 .7-1.7.8-1.7 1.1.1.2 1-.1 2.3-.7 2.9m4.9 3.2q0 1.3-1 1.5-.8-.2-.4-1.5.7-1.3 1-1.5.3.2.4 1.5M91 105q0 1.8-1 2-.9-.2-1-2c-.1-1.8.5-2 1-2q1 .2 1 2m4 3.1q0 .9-1 .4t-1-1.6q.1-.9 1-.4a2 2 0 0 1 1 1.6m7 7.6a33 33 0 0 1-.6 9.1c-1-1-1.3-18.8-.3-18.8.5 0 .9 4.3.9 9.7m-11.7 7.8q-.6 1.5-1 1.1-.4-.5.2-1.5c.9-1.6 1.5-1.3.8.4m3.4 5.7c-.2 1.3-.4.3-.4-2.2s.2-3.5.4-2.3a17 17 0 0 1 0 4.5m9.1 11.4c-1.1 1.2-1.3.8-1-2.7.3-2.2 0-4.5-.6-5.1q-1-1 .1-3.6c1.1-2.4 1.3-2.2 2.1 3.7.6 4.9.5 6.6-.6 7.7M91 133q-.1.9-1.1 1-.8-.1-.4-1t1.1-1q.3 0 .4 1m3 11q-.1.9-1.1 1-.8-.1-.4-1t1.1-1q.3 0 .4 1m11 2.5q0 1.4-.9 1.5c-1.3 0-2.2-1.6-1.4-2.4 1.1-1.1 2.3-.6 2.3.9m-8.3 3.2q-.5 1.3-.5-1.2 0-2.6.5-1.8c.2.7.2 2.1 0 3m-6.7 4.7q-1 1-.9-3c.1-3.9.1-3.9 1-.9q.8 2.9-.1 3.9m3.6-3.7c-1 1-1.9-.5-1-1.8q.8-1.6 1.2 0 .3 1.2-.2 1.8m10.5 5.6q-1.5 1.4-.5-.6.6-1.6 1.2-1.2.4.6-.7 1.8m-13.5 2.4c-1 1-1.9-.5-1-1.8q.8-1.6 1.2 0 .3 1.2-.2 1.8m3.4.5q0 2.4-1.1 1.1-1-1.1-.5-2.2 1.6-2.5 1.6 1.1m9.7 2q-.5 1.1-.6-.6t.5-1.3q.5.7.1 1.9m-9.6 3.6q-1 1.6.1 3.5a28 28 0 0 1 1.1 12.4c-1 2.6-2.3.1-1.7-3.2.8-4.3-.4-6.5-2.2-4-1.1 1.5-1.3 1.3-1.9-1.8-.5-2.8-.2-4.2 1.6-6.6 2.3-3.1 4.7-3.3 3-.3m1 21.9q-1.2 2.6-1.1-1.2 0-3 1.1-1.8c1.1 1.2.8 1.6 0 3m-3.4 14.2c0 7.7-.4 14.6-.8 15.3s-.9-5.5-.9-14c0-8.3.4-15.2.9-15.2s.9 6.3.8 13.9M96 191q0 .9-1 1a1 1 0 0 1-1-1q.1-1 1-1t1 1m0 4.4q0 .6-1 1.1-.9.4-1-.4.1-1 1-1.1 1 0 1 .4m317.8 2.8c-.6 1.8-2.8 2.1-2.8.4q.1-1.5 1.6-1.6 1.4 0 1.2 1.2m-317.9 4.5c-.2 4.2-.9 6.4-1.9 5.8-.9-.5-1.1-6.4-.3-7.8 1-1.7 2.3-.5 2.2 2m-.4 13.2q.4.9-.5 1.6-.9.4-1-.9 0-2.7 1.5-.7m-3.5 6.2q0 .8-1 .9-.9-.1-1-1.6.1-1.3 1-.9 1 .6 1 1.6m4-.7q0 .6-1 1.1-.9.4-1-.4.1-1 1-1.1 1 0 1 .4m-4.4 5.3c-1 1-1.9-.5-1-1.8q.7-1.6 1.2 0 .3 1.2-.2 1.8m335.4 2.7c0 .8-.4 1.8-1 2.1q-.9.3-1-1.4.1-2 1-2.1 1 .1 1 1.4m-326 1.2q-.2.3-1.5.4c-1.3.1-1.5-.4-1.5-1q.2-.8 1.5-.4 1.3.7 1.5 1m326 3.8q0 .6-1 1.1-.9.4-1-.4.1-1 1-1.1 1 0 1 .4m-335 2.2q-.1 1.3-1 .9-1-.7-.5-1.6 1.4-2 1.5.7m4.8 8.8c.1 4.6-.3 6.8-1.4 7.7-1.3 1.1-1.5.6-1.4-4.2.3-11.9 2.6-14.8 2.8-3.5m325.8-4.3c-.3 1.7-.6 7.1-.6 12s-.4 8.9-.9 8.9c-.9 0-1.5-21.6-.6-23 1.4-2.3 2.7-.9 2.1 2.1M92.2 262.5c-.1 16.3.1 23.4 1 25.8 1.5 3.6.9 17.5-.6 14.4-.5-.9-.6-3.1-.4-4.8q.7-3.1-1.4-4.2c-1.7-1.1-2.6-4.7-1-4.7.4 0 .6-10.4.4-23.2a433 433 0 0 1 .2-24.5c1.6-4.1 2.1 1.1 1.8 21.2m147.4-10.6c-.9 1-1.6 2.4-1.6 3.2q.2 1 2.6-1.6c2.4-2.9 2.5-2.9 1.8-.5-1.4 5.3-3.8 6.4-5.5 2.6-1-2-.8-3 1.2-5.8 1.9-2.7 2.4-2.9 2.7-1.5.2 1-.3 2.6-1.2 3.6m-139.9-1.7q-.5 1.1-.6-.6t.5-1.3q.5.6.1 1.9m150.3.4q0 1.3-1 .9-.9-.6-1-1.6.1-.8 1-.9 1 .1 1 1.6m-4.3 5.4c-.4 3.3-.2 4.3 1.4 5.3q2 1 1.2 3.5-.5 2.3 1 3.5c.9.7 1.7 2.3 1.9 3.6.4 2.9 5 4.6 8 3q3.6-1.7 3.8 2.1c0 2.7 2.9 5.2 5.3 4.6 2.2-.5 7 2.1 6.1 3.5-.8 1.3-7.3 3.9-9.8 3.9a14 14 0 0 0-5.4 2c-1.8 1.1-4.5 2-6 2s-4.9 1.1-7.7 2.6c-4.2 2.1-5.5 2.4-7.8 1.5L235 296l1.6-3.9c1.4-3.5 1.4-4.3.1-6.8-1.1-2.1-1.2-3.2-.4-4.5s.8-2.7-.2-5.3c-1.6-4.5-.6-9.1 2.5-11.1 1.4-1 2.4-2.6 2.4-4 0-1.2.5-2.6 1.1-2.9.5-.4 1.4-1.8 1.9-3.1 1.4-3.7 2.3-2.8 1.7 1.6m179.3-1.4q0 1.3-1 .9-.9-.6-1-1.6.1-.8 1-.9 1 .1 1 1.6m-329 3.9q0 1.4-1 1.5-.9-.1-1-1.5c-.1-1.4.5-1.5 1-1.5q1 .1 1 1.5m.2 7 .2 5.7q0 1-1 1.5-1 .2-1-5.7c0-6.9 1.5-8.3 1.8-1.5m135.4 6.9c.1 3.7-.2 4.3-1.8 3.8q-1.6-.4-1.8-.8c0-.8 2.9-7.4 3.2-7.4.2 0 .3 2 .4 4.4m27.4-1.2c0 1.3-2.3.5-2.8-1q-.3-1.1 1.2-.6t1.6 1.6m165.7 3.5q-.5 1.3-.5-1.2 0-2.6.5-1.8c.2.7.2 2.1 0 3M101.6 285c1.3 0 2.4.4 2.4.9 0 1.3-1 1.8-4.4 2.2-2.5.3-2.9 0-3.1-2.1-.1-1.4-.6-3.4-1-4.5q-.9-2 1.4.7c1.3 1.7 3.2 2.8 4.7 2.8m328 6c.1 1.7-.3 3-.7 3-.5 0-.9-1.4-.9-3 0-3.9 1.5-3.9 1.6 0m-7.6 4.5a8 8 0 0 1-1 3.5q-1 1.8-1-3.5c0-5.3.3-4.6 1-3.5a8 8 0 0 1 1 3.5M161.5 299c-.3.5-1.2 1-1.8 1q-1 0 .3-1 2.8-1.8 1.5 0m30.2 4.2q-.3 1.8-.4-1.7t.4-2.3c.2 1 .2 2.8 0 4M174 300q-3 2-3 0 .2-1 2.3-1 2.6-.1.7 1m-70.5 2q.4.9-1 1c-1.4.1-1.3-.5-1-1q.6-1 1-1t1 1m79.9 3.2q-.7.7-2.5.8c-2.8 0-2.2 4.2.9 5.5 2.2 1 2.9 2.9 1.4 3.9q-1.8 1-4-3.8-1.2-3-3.2-2.3c-1.1.3-2.3.1-2.6-.4q-.7-.8-2.5-.9-3.8.1.4-3a6 6 0 0 1 4.9-1.3 8 8 0 0 0 4.4-.5c1.9-1.1 3.8.3 2.8 2m-92.7 4q-.4 1.8-.4-1.7-.1-3.5.4-2.3c.2 1 .2 2.8 0 4m72 .2c-1 .8-2.2 2.7-2.6 4.3-.9 3.6-3.5 3.7-3.9.1-.2-2 .3-3 2.5-4.1 3.8-2 6.5-2.2 4-.3m-11.2 5.3c0 5.3.2 5.7 2.5 6.3q2.5.6 2.9 3c.3 2.4.2 2.4-1.6.7q-3.5-3-6.2-.5c-1.1 1.1-1.3.1-.8-6 .3-3.9.9-7.7 1.2-8.2q2-3.3 2 4.7m-57.5-.5q0 2.4-1.1 1.1c-.6-.6-.8-1.6-.5-2.2q1.6-2.5 1.6 1.1m7.3-.1a6 6 0 0 0-2.8 1.8c-.9 1.5-2.5 1.4-2.5-.2 0-1.7 4-3.6 5.9-2.9q1.6.5-.6 1.3m72.5 4c-2.9 1.9-4 .9-1.7-1.6 2-2 2.5-2.1 2.7-.8.2.8-.2 1.9-1 2.4m17.3-1.9.4 2.8.4 2.7c0 .7 1.4 1.9 3 2.8 2.8 1.4 3.3 1.3 7.8-1l4.8-2.4.3 2.4c.8 6.1-5.3 18-11 21.5-2.5 1.5-4.4 1.8-8.8 1.4-4-.4-7 0-11 1.4-5.7 2.1-7 2-7-.4q.1-1.3 1-.9c.6.4 2.7.4 4.8 0 2.8-.5 4.5-1.7 6.9-5.1 3.1-4.2 3.3-4.7 3-12.4-.2-4.4-.6-8.3-1-8.7-.9-.9 3.2-5.3 5-5.3q1.2.2 1.4 1.2m-97.3 4c-.3 2.6-3.8 3.8-3.8 1.4q.1-1.5 1.1-1.6.8-.1.4-1t1-1q1.6 0 1.3 2.2m70.4 6.2q-.6.6-1.4-1.3c-.4-1.3-.5-2.8-.1-3.4.8-1.4 2.3 3.3 1.5 4.7m-66.1-.1q-1.2 1.2-1.1-.9c0-2.7 1.4-4.1 1.8-1.9.2.9-.1 2.2-.7 2.8M175 337c1.2-1.9 2.3-.7 2.3 2.5 0 2.9-1.6 5-3.1 4.1-1.8-1.1-3.6-9.6-2.3-10.9.6-.6 1.2-2.5 1.3-4.2.1-1.6.3-.1.5 3.5q.4 6.5 1.3 5m-76-8q-.1.9-1.1 1-.8-.1-.4-1t1.1-1q.3 0 .4 1m324 0q-.1.9-1.1 1-.8-.1-.4-1 .6-1 1.1-1 .4 0 .4 1m-271 6.4q-1 1-.9-2.5-.2-4.6 1-1 1 2.4-.1 3.5m-6-.1c0 2-.1 2-1.6.5-.9-.9-1.3-2.1-.9-2.7 1-1.6 2.5-.3 2.5 2.2m277-1.2q0 1.8-1 1.4-.8-.6-.3-2 1.2-3.1 1.3.6m-328.7 2.4q-1.2 3.2-1.3-.6 0-1.8 1-1.4.8.6.3 2m69.9-.3q-1.1 1-1.2.2c0-1.4 1.2-2.6 1.9-1.9q.3.6-.7 1.7m-7.2 2.3q-1.2 1.5-.6 5.2l.6 3.8-1.4-3c-1.1-2.6-1.1-3.4.2-5.7q1.5-2.4 2-2.3.4.6-.8 2m266.3 12c.4 10.4.8 13.1 2.1 14 .9.7 1.5 2.5 1.5 4.1q-.2 2.7-.6 1.1-.6-1.6-1.6-1.4-1.2.4-1.4 10.3c-.2 8.7-.1 9.6 1.1 7.5q1.4-2.4 2-1.2c.8 1.3-.2 44.4-1 47.3q-.6 1.7-2 1.8c-1.4.1-1.4.9-1.4 1.9 0 1.1-.3 2.2-.7 2.4-.7.5-.8-12.7-.5-75.4.2-21.3.5-26.9 1.8-25.6.2.1.5 6.1.7 13.2m3.2-12.6q.4.9-.5 1.6-.9.4-1-.9 0-2.8 1.5-.7m.2 11.5c.5 8.4-1.1 10.7-1.9 2.7-.5-5.1.1-11.6.9-10.7.3.3.7 3.9 1 8m-332.2 14c0 11.7-.4 18.6-1 18.6-.8 0-1-12-.5-37.3q0-.7.8-.4c.4.3.7 8.9.7 19.1m362.9-18.5c.3.4-.1 1.7-.9 2.7-1.6 2.3-4 .7-2.9-1.9.7-1.8 2.9-2.3 3.8-.8M152 350.1q0 .8-1 .9-.9-.1-1-1.6.1-1.3 1-.9 1 .6 1 1.6m40.8 1.9c4 2.4 5.2 2.5 5.2.3 0-1.4.2-1.4 2 .2 2.5 2.3 2.5 3.3-.4 6.9l-2.4 2.8-5.3-1.8a52 52 0 0 0-16.6-1.8c-11.2-.1-11.3-.1-11.3-2.5 0-2 .2-2.1 1.5-1.1 1.2 1 2 .9 4-.4a10 10 0 0 1 4.4-1.6c1 0 3.4-.7 5.2-1.5 4.8-2 9.8-1.8 13.7.5m46.9 9c.6 3 1.2 10.4 1.3 16.5 0 6 .5 12.8.9 15s.4 5.6-.1 7.6c-.4 1.9-.9 8.7-1.1 15-.5 12.2-2.2 17.9-7.3 23.4-1.3 1.4-2.4 2.9-2.4 3.4 0 2.7-15.7 9.1-22.5 9.1a42 42 0 0 0-9.2 2.6 81 81 0 0 1-10.8 3.3l-6.7 1.6c-2.2.6-2.8.4-2.8-.8 0-2.8-2-2.9-5.1-.3-1.7 1.4-3.5 2.6-4 2.6s-1.4 1.1-1.9 2.4c-.7 1.9-1.9 2.6-5.4 3.1-5 .8-6.4.3-7.6-3a5 5 0 0 0-3.3-2.7c-1.9-.4-2.6.1-3.6 2.4-1.2 2.7-1.4 2.8-3.1 1.3-1.1-1-2.4-1.4-2.9-1s-1.9.4-2.9.1c-1.4-.5-1.7-1.4-1.4-4.1.2-1.9.7-3.3 1.1-3.1.4.3 1.2-.8 1.9-2.4s2.4-3.1 3.7-3.4 3.6-1.7 5.2-3c1.5-1.3 4.6-2.9 6.8-3.5 4.5-1.4 7.4-2.6 12.5-5.1 3.9-1.9 6.8-1.7 5 .5-1.3 1.6 1.1 3.8 3.7 3.3q1.7-.1 3-5.7c.6-3 2-6.1 3-7q1.5-1.4.5-.2c-1.5 1.8-1.6 10.7-.1 11.6q1 .8-.7 2.6-1.5 1.8-1.1 2.5.6.3 1.7-1.6 1.1-2.1 3-1.5c1.9.6 4.6-2.5 3.4-3.8-1.4-1.3 1.8-10.6 4.2-12.1 3.5-2.4 5.2-2 8.7 1.9 5.4 6.1 8.5 4 3.7-2.6-4.6-6.4-4-9.1 1-4.4 2.4 2.3 2.8 2.4 3.9 1.1s.9-2-.8-4.2c-1.1-1.4-1.9-2.9-1.7-3.3s1.6-5.1 3.1-10.6c1.4-5.5 3.3-11 4-12.2s1.2-2.9.9-3.7a5 5 0 0 1 .2-3.4c.4-.9.8-2.6 1-3.7.3-3.3 3.7-11.7 6.4-15.9l3.5-5.8c1.1-2.1 6.4-4.9 8.5-4.5q1.4.3 2.7 5.7m192.3-5.2c0 1.3-1.2 2.2-2.2 1.6s-.1-2.4 1.3-2.4q.8.1.9.8m20.4 3.8c.4.9.4 1.9.2 2.1-.8.8-2.6-.8-2.6-2.3 0-1.9 1.6-1.8 2.4.2m-26.2 2.6q-1.1 1-1.2.2c0-1.4 1.2-2.6 1.9-1.9q.3.6-.7 1.7m3.8 4.2q-1.2 1.4-.6-1.9.7-6 1.3-1.6c.3 1.3 0 2.8-.7 3.5m-230.6 2.1c-.6 1.6-3.4 2.1-3.4.7q.2-2 2.6-2.2 1.2 0 .8 1.5m232.1 2.5q-.8 1.1-1.7.2-.9-1.1-.3-2.2.8-1.2 1.7-.2.9 1.1.3 2.2m-4.5 7.4c0 1.9-.4 3.8-1 4.1q-1 .4-1-3.4c0-2.3.5-4.1 1-4.1s1 1.5 1 3.4m4-.4c0 1.9-1.1 2.6-2.3 1.4-.8-.8.3-3.4 1.4-3.4q.8.2.9 2M93.7 388.7q-.5 1.3-.5-1.2 0-2.6.5-1.8c.2.7.2 2.1 0 3m337.3-2.2q0 1.4-1 1.5-.9-.1-1-1.5c-.1-1.4.5-1.5 1-1.5q1 .1 1 1.5m-336.9 10c-.7 5.6-2.7 5.6-2.2 0 .3-4.4.9-5.8 2-5.1.4.3.5 2.5.2 5.1M431 398q0 .9-1 1a1 1 0 0 1-1-1q.1-1 1-1t1 1m-337 6.9c0 1.1-.4 2.3-1 2.6q-1 .4-1-1.9c0-2.3.5-2.6 1-2.6q1 .2 1 1.9m357.9 13.4c1.2 3.4 2.3 6.6 2.3 7.2 0 .5.9 2.1 1.9 3.4 2 2.4 2.6 6.1 1 6.1-.4 0-2.6-1.4-4.7-3.1-3.5-2.8-4.4-3-8.7-2.5-5.8.8-6.2.1-5.3-8.7.7-6 .9-6.4 3.9-7.4 6.4-2.1 7-1.8 9.6 5M96 421.2q0 2.7-1.3 2.8t-1.5-4.7c0-4.4.1-4.6 1.4-2.9a9 9 0 0 1 1.4 4.8m334-4.2q0 .9-1 1a1 1 0 0 1-1-1q.1-1 1-1t1 1M93 431.1q0 .8-1 .9-.9-.1-1-1.6.1-1.3 1-.9 1 .6 1 1.6m394 .9c-3.7 3.1-5 3.6-5 2 0-1.8 4-5 6.3-5 2 .1 1.9.3-1.3 3m-391 1.2q0 2.4-1.1 1.1c-.6-.6-.8-1.6-.5-2.2q1.6-2.5 1.6 1.1m338-1.8q0 .5-1 1.1-.9.4-1-.4.1-1 1-1.1 1 0 1 .4m-32.4 5.6q.2 3.3-.7 1.9-.7-1.6-2.1-.1-1.3 1.3 0 1.2c1.3-.1 1.1 1 .6 3.5-.6 3.2-.4 3.5 1.8 3.5 2.5 0 5.2-1.6 9.5-5.6 1.4-1.3 2.9-2.4 3.4-2.4 1.6 0 3.1 30.2 1.5 31.8-.4.3-1.5.1-2.4-.5-1-.6-4-.8-7-.5-4.2.4-5.7.1-7.3-1.4a11 11 0 0 0-6-2c-6.7-.2-6.7-1.7 0-7 3.3-2.7 6.1-5.4 6.1-6s.7-1.7 1.5-2.4c1.7-1.4 1-3.4-1-2.6-.7.2-1.7 0-2.2-.5q-1-.9-2.3.6-1.5 1.6 0 1.5 1.3 0-.5 2-1.7 1.7-2.6 1.5c-.9-.6-7.9 5.8-7.9 7.3 0 1.1-3 2.5-3.8 1.7q-.4-.6 1.4-2c1.5-1.2 1.6-1.4.3-1.5-.8 0-2.6 1-3.9 2.2q-2.3 2.2-2.8 1-.3-1.2-1.9.4-1.3 1.4-.9 2.2.7.4 1.6-.8 1.1-1.9 1 .4c0 2-2.6 4.5-4.7 4.6q-1.1-.2-.7-1.5c.7-1.8-1.4-4.7-2.7-3.9-.5.3-.9 1.4-.9 2.4 0 2.2-1.9 3.7-2.9 2.3-1-1.7-5.1.4-5.1 2.6 0 2-3.7 5.4-5 4.6-.4-.3-.7-1.9-.5-3.7s-.3-3.6-.9-4q-1.2-.6.2-2.5c.7-1 1.5-2.5 1.8-3.5s2.8-2.5 5.4-3.6c4.2-1.8 5.1-1.8 6.1-.6q2.9 3.3 2.1-1.3c-.4-2 .1-3.2 2-4.7 1.3-1.2 3.5-3.6 4.7-5.4 1.2-1.7 2.7-3.2 3.3-3.2s1.7-.8 2.4-1.8c1.2-1.6 1.3-1.6 1.9 0q1.8 4 5-1.5c1.9-3.1 2-3.1 2.3-.8.2 1.3-.6 3.6-1.7 5.2q-2 2.7-1 2.9 1.5.3 2.5 1.7c1 1.5 1.5 1.6 2.5.5q1.5-1.3.1-1.2-1.1-.2-1.2-1.5c-.1-1.3.7-1.5 1.5-1.5q3 0-.2-4.7l-1.8-2.6 3.3.6q3.3.8 3.2-.7c0-.7.7-1.9 1.5-2.6q1.3-1.2.9-2.2-.7-1 1.2 0c1.1.6 1.9 2.3 2 4.2m-8.1-3q.4.9-.4 1-1-.1-1.1-1 0-1 .4-1t1.1 1m15.5 0q0 .9-1 1a1 1 0 0 1-1-1q.1-1 1-1t1 1m70.2-.5c.8.9-1.8 7.6-3.3 8.6-4.4 2.8-5.1-.3-1.1-5.4 2.7-3.7 3.4-4.1 4.4-3.2m-375.5 3.1c-.9.9-2.8-.6-2.1-1.8q.6-1 1.7.1 1 1 .4 1.7m-10.7-.1q0 1.4-1 1.5-.9-.1-1-1.5c-.1-1.4.5-1.5 1-1.5q1 .1 1 1.5m2.7 3c-.5 3.1-.3 3.5 1.6 3.6q2.7 0-1.3 1.4c-5.7 2.2-6.7 1.9-7.5-2.1-.7-4.2 0-5.5 1.8-3 1.2 1.7 1.4 1.6 3-.8q3.5-5.3 2.4.9M425 439c0 1.6-.4 3-1 3-1.1 0-1.4-4.3-.3-5.3 1.1-1.2 1.3-.8 1.3 2.3m-313.3 1.2c1.5.7 4.5 2.7 6.7 4.6 2.1 1.9 6.1 4.3 8.8 5.5 4.7 1.9 4.9 2.2 4.4 5.1-.3 1.7-.2 4.5.3 6.2 1.4 5.1.5 5.5-12.2 5.9a61 61 0 0 0-13.6 1.4c-2.6 1.4-3.1 1.4-2.5-.3.3-.8 1.8-1.6 3.3-1.9 2.5-.5 2.8-1 2.8-4.6q0-6-4.1-4.5-1.2.3-1.9-1-.7-1.6 1.8-2.2 2.4-.7 2.5-2.4c0-2.3-2.6-3.3-5-2a40 40 0 0 1-15.9 2c-1.4-.8 6-3 10-3 3.8 0 12.8-3.3 13.4-4.9.3-.8-.1-2.1-.9-2.7-1.5-1.1-2.1-2.4-1.1-2.4.2 0 1.7.5 3.2 1.2m126.8 16.6q-.5 1.4-2.8.8c-2.3-.5-2.3-.4-2.6 8.2-.2 10.6.9 14.6 4 13.7 1.9-.6 2-.4 1.4 2.7-1 4.5-1 4.5-4.6 4.6-1.8 0-5 .4-7.3.8-3.7.6-3.9.5-2.7-1 1.1-1.3 1.2-2.4.2-5.5-2.2-7.5-.7-21.1 2.4-21.1 2.2 0 2.8-1.9 1.1-3.6-2.5-2.4-1.9-3.5 4.7-9l6.2-5 .3 6.4a33 33 0 0 1-.3 8m186.1-10.2c-.3.9-.6 2-.6 2.5q0 1-.9.5c-1.2-.8-.2-4.6 1.1-4.6q.9.1.4 1.6M102 457c0 1.4-2.4 2.3-4.7 1.7q-2.4-.3.7-1.5c3.2-1.4 4-1.4 4-.2m322 2q0 .9-.4 1-.5-.1-1.1-1-.4-1 .4-1 1 0 1.1 1m4 0q0 .9-1 1a1 1 0 0 1-1-1q.1-1 1-1t1 1m-237.7 8.7c-.3 2.7-1 5.6-1.4 6.5-.5.9-.9 2.6-.9 3.8 0 2-.4 2.1-3.7 1.6-2.1-.4-6.3-.8-9.3-1.1-3-.2-6.2-.6-7.1-1-.8-.3-4.4.3-8 1.5-6.7 2.1-12.9 2.6-12.9 1.1 0-1.8 3.6-4.8 7.5-6.3l11.5-3.9c4.1-1.2 8.5-2.9 9.7-3.7 1.2-.7 2.6-1.1 3.1-.8s2.7-.1 4.8-.8c6.9-2.5 7.4-2.3 6.7 3.1m237.7-2.8c0 1.1-.4 2.3-1 2.6q-1 .4-1-1.9c0-2.3.5-2.6 1-2.6q1 .2 1 1.9m-3.9 6.8v9q0 1.2.8 1.3c.8.1 1-2.1.9-4.8 0-7.2.1-8.4 1-7.8s.7 25-.3 26.6c-1.2 1.9-2.5-.1-1.9-2.8q.6-3-.5-1.2c-.6.8-1.1 3.5-1.2 6s-.4 6.5-.8 9l-.7 4.5-.6-3.8c-.8-4.2-.1-39.2.8-42 1.2-4 2.4-1.2 2.5 6m-283.2-.4c1 3 1 4.2.1 5-2.4 2.5-5.1-4.4-3.4-8.8.8-2 1.6-1.1 3.3 3.8m239.8 0q-1.5 2.4-4.6 2.5c-1.7 0-4.6 1.2-6.4 2.6-2 1.6-4.7 2.6-6.6 2.6s-5 1-7.1 2.2-4.2 2-4.5 1.6c-1.1-1.1.4-2.8 2.4-2.8 1 0 3.7-1.4 5.9-3q4.2-3 7.6-3c2 0 5.8-1.3 8.8-2.9 2.9-1.6 5.5-2.8 5.7-2.6.2.3-.3 1.5-1.2 2.8m-278.9-.1c-.3.7-2.4 1.3-4.9 1.4l-4.4.2 3.5-1.3q6.6-2.6 5.8-.3m292.6-.2c1.4.5 2.6 1.6 2.6 2.4 0 2.4 2.6 3.8 3.9 2.2s8.1-2 8.1-.5c0 .4-1.9 1.7-4.2 2.7-3.4 1.4-4.9 1.6-7 .8s-3.6-.7-6 .3c-1.8.8-5 1.5-7.1 1.6-3.8.2-7.7 2.8-7.7 5.1q.2 1.2-5.6.9c-3.1-.2-5.8-.6-6.1-.9-.9-.8-7.5 2.3-8.9 4.2-.7.9-1.4 2.7-1.4 3.9q0 2.4-1.9 2.3c-4.8 0-3.5-5.6 1.9-8.8 2.2-1.2 4-2.7 4-3.3 0-1.9 4.4-2.8 6.2-1.2 1.6 1.4 2.1 1.2 5.8-2.1q6-5.4 7.5-2.6 1.6 2.8 4.6-2.4c1.1-1.9 3.2-3.9 4.7-4.5 3.6-1.3 3.7-1.3 6.6-.1m-260.3 5.6 2.5 5.4h-2.8c-1.5 0-4.2-.9-6-2-4-2.4-5.8-2.5-13.7-.4-7 1.8-8.4 1.3-7.5-2.4 1.3-5.4 2.2-5.7 16.4-5.9l8.5-.1zm319.9-.8c0 1.3-1.2 2.2-2.2 1.6s-.1-2.4 1.3-2.4q.8.1.9.8m-362 2.8q-.1 1.2-1.6 1.8c-2.3.9-2.4.8-2.4-1.2q0-1.7 2-1.8 1.8.2 2 1.2m125.7 2.6q-.5 1.1-.6-.6t.5-1.3q.5.7.1 1.9m260.1 0c1.9 1.9 1.4 3.8-1.3 4.8-1.4.5-2.5 1.5-2.5 2.1 0 1.7-10.9 11.9-12.8 11.9q-2 .1.8-2c2.8-2.1 2.2-2.1 1.3-3.1-1.9-1.9-6.5.1-8.1 3.4-1.1 2.2-2 2.7-4.8 2.7-3.2 0-3.4-.2-2.4-2.1a3 3 0 0 1 3.3-1.7q2.1.3 2.5-1.5c.3-1.3-.3-1.7-2.7-1.7s-3.1-.4-3.1-2.1q.1-2 2-2.6 2-.6 2-2.8c0-6.8 2.7-7.2 3.6-.5.8 6.2 2.9 8.3 5.2 5.4 2.1-2.5 5.8-4.2 9.7-4.6q3-.2 3.3-2.3c.7-4.7 1.7-5.6 4-3.3m-66.3 3.2c.8 1.9 1.9 3.7 2.5 4.1 1.2.7 1.4 6.5.2 6.5q-1-.1-2.8-1.5c-2.8-2.1-4.9-1.8-8.4 1.2-3.1 2.6-3.8 2.7-16.2 3-11.5.3-26.2-.8-27.4-2-.9-.9 2-5.7 3.4-5.7.9 0 2.6 1 4 2.2l2.3 2.3 1.8-2.3 1.7-2.4 3 2.5c3.6 3 6 2.2 5.1-1.5q-.6-2.4.8-4.4c1.5-1.8 1.6-1.8 3.6.8 2.7 3.6 4.8 3.5 5.5-.2 1.2-5.8 4.6-6.2 7.6-1q3 5.6 4.9.2c2.2-5.9 6.3-6.8 8.4-1.8m-240.3 1.1q2.8 2.6 3.1 1.1c.7-1.6 8.6-1.8 8.3-.2q-.2 1 .1.3.6-.6 2.4-.7c2.7 0 2.6 5.5 0 7.2-1.6 1-1.8 1.5-.8 2.6.6.8 1.2 4.1 1.3 7.4l.1 6-3.1-.6c-19.5-3.7-23-4-49.1-4.3-25.4-.2-27-.3-26.7-2l.6-6.8c.2-2.7.9-5.1 1.5-5.3s1.1-1.1 1.1-1.9q0-1.5-1.6-.9-1.4.5-.8-.5c.3-.6 1.7-.8 2.9-.5q2.3.5 3.9-.9c1.6-1.7 6.2-2 7.1-.5q.6.8 2.1.3c1.7-.6 5.4 2.3 5.4 4.3q0 1.2 1.5.8 1.3-.7 1-1.4-.4-.8.5-1.5.9-.4 1 1c0 1.2.8 1.4 3.9.9 3.3-.5 4-.3 4.3 1.2.3 1.6.6 1.4 1.8-1.1 1.2-2.3 2.3-3.1 4.9-3.3 1.9-.2 3.7.2 4.1.9s1.3.8 1.9.5q1-.8.6-1.7t2.2-1c1.5 0 3.7-.4 4.8-.9q5.5-2.2 9.7 1.5M82.8 488q0 3-1.4 3c-2.1 0-1.7 1.7.6 2.3 2.5.6 2.7 4 .3 3.5q-1.8-.5-2.7-4.1c-.9-3.5-2.8-4.8-4.1-2.7q-1.8 2.5-2.7-1.5c-.5-2.3-.3-2.5 2.8-2.1 1.8.3 3.8.7 4.4 1.1q.9.4 1-.9c0-3 1.7-1.6 1.8 1.4m-12.7 1.2c.7 1.3.4 1.3-2.6.4-3.6-1.1-3.9-2.4-.4-2.1 1.2.1 2.5.8 3 1.7m22.4 5c.1 3.5-1.2 6.1-2.6 5.2-.5-.3-.9-3.1-.9-6.2 0-5.2.1-5.5 1.7-4a9 9 0 0 1 1.8 5m339.3-4c-.6 1.8-2.8 2.1-2.8.4q.1-1.5 1.6-1.6 1.4 0 1.2 1.2m9.7 4.5c1.6 2.2.8 4.3-1.6 4.3-1.4 0-1.9-.7-1.9-3 0-3.3 1.6-3.9 3.5-1.3M409 498c0 .5 1.4 1.6 3 2.5q2.9 1.5 3 3.5c0 2.5-.4 2.5-6.1-.3-4.1-1.9-4.6-2.5-3.8-4.5.8-2.2 3.9-3.2 3.9-1.2m17.6 4.4c-.3 1.4-1.1 2.6-1.6 2.6-1.1 0-1.4-5.3-.3-6.4 1.3-1.2 2.6 1.3 1.9 3.8m-53.4.7c1.6 1.2 4.2 2.1 5.6 2.1 1.5 0 3.8.7 5.1 1.5 1.9 1.2 3.9 1.4 9.5.8 6.9-.7 7-.6 5.3 1.3-1.4 1.5-3.6 2-11 2.5-5 .4-10.2.9-11.5 1.3-2.1.6-2.2.5-1.1-1.9.6-1.4.9-3.3.5-4.3-.6-1.4-2.1-1.6-13.1-1.2-12.4.4-12.5.4-12.5-1.8 0-2 .6-2.3 4.8-2.7q13.4-1 18.4 2.4m-290.4.1c-.3.8-1.7 1.2-3.4 1s-7.8-.3-13.9-.4c-13.3 0-8.1-1.2 7.4-1.6 8.1-.3 10.2 0 9.9 1m145.6.2a13 13 0 0 1 6.5.5l2.2 1.2-.7 33.2a3536 3536 0 0 0-.5 75.2c.1 43.4-.2 51.1-2.2 51.8-.7.2-3 .2-5.1-.1l-3.9-.5.8-14.1c.4-7.7.9-24.2 1.1-36.6s.7-24.6 1.2-27.2c1.8-9.4-3.4-9.1-5.5.3l-1.3 5.4.6-8.2c.3-4.6 1-9.8 1.5-11.5.5-1.8.9-5.5.9-8.3 0-2.7.7-7.7 1.5-11s1.4-7.9 1.5-10.3c0-3.6-.3-4.2-2-4.2q-2.1 0-3.5 3.2c-1.3 3-1.3 2.5-.9-6.2.3-5.2 1.2-14.4 1.9-20.4a141 141 0 0 0 1.2-12.4c.3.4 2.4.5 4.7.2m239.4 2.9c3 3.2 1.8 4-6.3 4.4-3.3.1-5.4 0-4.7-.3q1-.7 1.2-2.2.4-2.1 2.1-3.8c2.4-2.6 3.9-2.2 7.7 1.9m-249.9-1.7c-.6.8-1.5 2.9-1.9 4.7-.8 3.1-.8 3-.9-1.3-.1-3.9.2-4.6 2-4.7q2.4-.4.8 1.3m233.6 1.3c0 .7-1.8 1.9-3.9 2.6-2.2.8-5 2.6-6.2 4.2q-4 4.5-1.2-3.3c.6-1.8 2.1-3.7 3.2-4.2 3-1.3 8.1-.9 8.1.7m-25.5 6.6c0 5.8-1.4 7.4-2.3 2.7-.6-3.3.2-8.2 1.4-8.2.5 0 .9 2.5.9 5.5M92.6 510c1 0 1.4 1.3 1.4 4.8 0 4.8-1.5 15.3-2.7 18.2-1 2.6-1.1 7-.2 7.6.5.3.9 2 .9 3.9 0 4.5 1 7.1 2.1 5.4q.8-1.2 1.4-.7c1 .9-.5 4.9-1.5 4.3-1.9-1.2-2.4 2.8-2.1 18.2.1 8.9-.1 16.8-.5 17.5-.9 1.5-.9 7.7.2 10.2q.8 2-.7 1.4c-2.2-.7-2.7-11-2.3-51.3.4-33.9.9-44.1 2.1-40.8q.6 1.2 1.9 1.3m71.9-.1 9.8 1.6c3.5.5 5.2 1.3 6.3 3.1.9 1.3 2.3 2.4 3 2.4 1.6 0 1.8 4.6.8 12.4-.6 3.9-1.2 4.9-3.3 5.8-6.1 2.4-21.5 4.7-34.1 5.2l-13.8.5c-.1.1 0 1.2.4 2.5.7 2.8.5 2.8-10.1 4.6l-11.5 2c-7.7 1.5-8 .3-6.5-25.3.5-8 1.3-14.1 1.9-14.5 2.8-1.8 47.7-2 57.1-.3m193.2 1.2c-2.3 1.2-4.6 1.7-5.5 1.4-1.4-.6-1.1-1 1.3-2.1 1.7-.7 4.1-1.3 5.5-1.3 2.2 0 2.1.2-1.3 2M415 513c0 2.8-.2 3-3.7 3a13 13 0 0 1-5.3-1q-2-1.1.3-1a9 9 0 0 0 4.4-2c3.5-2.7 4.3-2.5 4.3 1m60 5.2c.7 3.3.5 4.7-.7 6-2.2 2.5-.1 5 3.5 4.1 2.4-.6 2.5-.5 2 3.4-1 7 2 9.4 6 4.8 2.9-3.3 5.2-2.3 5.2 2.2 0 3.3-.2 3.5-2.6 3-1.5-.3-3.9-.1-5.5.3-3.1.9-4.3 0-5.3-4.3-.5-2.3-1.2-2.7-3.9-2.7q-6 .2-6.9 5c-.3 2.3-.7 2.5-7 2.8-6.4.3-9.2-.9-4.8-2.1 2.2-.6 2.6-2.8 1-5.8-1.5-2.7 1.4-3.7 4-1.4 1.4 1.3 2.3 1.4 3.9.5q2-1 2.1-.4.1.4 1.5-.6c1.9-1.6.2-4-2.4-3.3q-1.7.4-3.5-2.2l-1.7-2.6 2.8.3c2.6.3 2.8.1 2.8-3.7 0-3.6.2-4 2.3-3.7q2.1.2 2.7-1.2l1-3.3c.9-2.6 2.6-.1 3.5 4.9m-103.2-3.3c-2.3 3.8 3.6 7 13.2 7.1l4.5.1-6 5.4c-3.3 3-6.3 5.5-6.7 5.5s-1-2.1-1.4-4.8c-.8-6-2.8-8.2-7.2-8.2-2.7 0-4.2.8-6.8 3.6-1.9 1.9-3.4 4.4-3.4 5.4 0 1.1-.5 3.1-1.2 4.5-1 2.2-.9 3.1.7 5.7 1.7 3 1.7 3.2 0 4.5-4.3 3.1-4.7 2.2-6-17.7l-.6-8.6 6.8-1.7a96 96 0 0 1 15.1-2.5zm51.6 76.1c-.2 37.7-.6 70.1-.9 72a125 125 0 0 0-1.5 22.5c-.1 6.3-.4 9.3-1 8-.8-2-.3-34.8.6-37.4.4-1.1.5-55.7.2-87.6l.2-31c.2-21 .3-23.4 1.4-19.5 1 3.4 1.2 21 1 73M404 515.5c0 .3-1.7 1.2-3.7 2-2.9 1.2-4.4 1.3-6.1.6-1.3-.6-4.9-1.2-8-1.3-5.6-.2-5.6-.2 1.8-.8q16-1.4 16-.5m28 1.1q-.1 1.3-1 .9-1-.7-.5-1.6 1.4-2 1.5.7m-216.5 1.3q.4.9-.5 1.6-.9.4-1-.9 0-2.7 1.5-.7m190 3c-.6.5-2.3 1.2-4 1.5l-3 .6 3-1.4c3.5-1.8 5.4-2 4-.7m10 .1q.4.9-.4 1-1-.1-1.1-1 0-1 .4-1t1.1 1m-200.8 17.7c-.3 8.7-1.1 17.1-1.7 18.8-1 3.1-.7-12.8.7-27.8 1.1-12 1.6-7.1 1 9M441 524q0 .9-.4 1-.5-.1-1.1-1-.4-1 .4-1 1 0 1.1 1m-34.7 5.1c-.8 1.6-1.3 3.9-1 5 .8 2.9-.6 2.3-2.5-1.1-2-3.5-4.9-3.9-7.8-1q-3.5 3.5-.5 7.6 2 3.2-.6 3.4-.8-.2-1.4-2c-.3-1.1-1.7-2.3-3.1-2.6-1.3-.3-2.4-.9-2.4-1.3.1-2.2 15.4-11 19.2-11.1 1.5 0 1.5.3.1 3.1m9.7-.5c0 1.8-.4 1.8-2.4-.5-1.7-1.9-1.7-1.9.3-1.4 1.2.3 2.1 1.2 2.1 1.9m-208 8.2c0 3.7-.9 10-2 14s-2.3 12-2.6 18c-.6 11.9-.8 13.2-2.5 13.2-1.4 0-.3-24.4 1.2-27.2.6-1 1.4-6.6 1.9-12.3s1.2-11 1.5-11.5c1.6-2.6 2.5-.4 2.5 5.8m173-.4c0 1.1-10 7.4-10.4 6.7q-1-1.5 5.7-5.1 4.8-2.7 4.7-1.6m35 3.6c0 2.3-.4 2.4-3.1 1-2.7-1.5-2.4-3 .6-3q2.6-.1 2.5 2m-233.7 12.8c-.3 7-.7 12.8-.8 13s-1.5-.2-3.1-.8c-1.5-.6-3.9-.8-5.1-.5-2.6.6-10.3 7.2-10.3 8.7 0 .5 1.4 2.2 3.2 3.8l3.2 2.9-3 1.1c-1.6.6-3.6 1.7-4.4 2.4-.8.8-3.9 1.6-6.8 2-5 .6-5.3.5-6.2-1.9a6 6 0 0 0-2.6-3.2c-2.1-.8-8.4 2.3-8.4 4.1 0 .8-.5 1.8-1.1 2.1a48 48 0 0 1-17.9.3c-10.5-1.3-12.6-3.4-12.8-12.6-.1-3.7-.4-9.5-.7-12.9l-.5-6 4.3-.6c27-3.9 30.7-5 30.7-8.8 0-1.7.8-1.9 8.1-1.9a164 164 0 0 0 34.1-4.4c.4.3.4 6.2.1 13.2m293.1-11.2c.8 2.1.8 5.4 0 5.4-1.2 0-3.3-3.4-3.4-5.3 0-2.1 2.6-2.3 3.4-.1M382 544c-1.1 2-3 2.8-3 1.2 0-1.1 2.2-3.2 3.2-3.2q.7.2-.2 2m-8 3.1c0 .5-1 .9-2.1.9-1.8 0-1.9-.2-.9-1.5 1.2-1.5 3-1.2 3 .6m33 1c3.4 2 3.4 2 .5 1.3a33 33 0 0 0-6.5-.8c-4.1-.2-6.3-1.3-5.4-2.8.9-1.3 7-.1 11.4 2.3m9 4.5c0 4.9-.2 5.4-2.2 5.4-2.2 0-8.8-3.4-8.8-4.5 0-.3 1.5-.4 3.3-.3 2.8.3 3.2 0 3-2q-.2-2.2 1.2-2.2 1.4-.1 1.5-1.6.1-1.3 1-.9c.6.3 1 3.1 1 6.1m-57.9-2.6c-1.3 1.1-3.1 2-4 2-1.2-.1-1.1-.5.8-2 1.3-1.1 3.1-2 4-2 1.2.1 1.1.5-.8 2m113.5.1a33 33 0 0 0 7.6 5c4.8 2.4 6.1 2.7 8.2 1.8 2.7-1.3 5.6-.6 5.6 1.1 0 1.4-24.7 1.2-30.8-.2-4.6-1.1-5.1-2.9-1.1-3.8q2.5-.5 2.7-3.3c.3-2.2.8-2.7 3.1-2.7a7 7 0 0 1 4.7 2.1m9.8-1.5c1.5.6 2.3 3.4 1 3.4-1.5 0-4.4-2.2-3.9-3.1.7-1.1.9-1.1 2.9-.3m-102.6 6.1q1.4 1.3 9.8 1.3c7.4 0 9.5.4 17.4 3.7 8.4 3.4 9 3.8 9 6.6v2.9l-3.1-2.6c-4.9-4.2-7.1-4.4-17.8-1.6-4 1-4.6.9-6.7-1.1q-2.3-2.2-4.8-1.7-2.6.4-3.8-.9c-3.5-4.2-11-3.1-13.7 2.1-.8 1.4-2.5 2.9-3.8 3.1l-4.8 1c-2.4.5-2.5.4-2.5-5.4v-6l3.8-.6 6.2-1.1c10.8-2.2 12.3-2.2 14.8.3m-160.1 10.5q-.3 1.8-.4-1.7t.4-2.3c.2 1 .2 2.8 0 4m-7.2 5.3c-.4 3.6-1 6.4-1.2 6.1-.3-.2-.2-3.4.2-7.1s1-6.4 1.2-6.1c.3.2.2 3.4-.2 7.1m163.1-6.4c.9 1.6-1.7 5.9-3.6 5.9-1.5 0-1.6-.5-.6-3.5 1.1-3.5 2.9-4.5 4.2-2.4m10.4 4.4 2.3 2.5-2.6 2.1q-2.6 2.1-2.7 4.7c-.1 2.2-1 3.1-4.5 4.9-2.4 1.2-5.3 1.9-6.4 1.6-1.8-.4-2.1-1.3-2.1-5.5 0-5 0-5 2.8-4.4 6.2 1.6 6.7 1.4 6.4-2.6-.3-2.7.1-3.9 1.5-4.7 2.5-1.4 2.7-1.4 5.3 1.4m23.8.9 2.4 2.1-4.9.5c-4.1.4-4.8.8-5.1 2.9-.4 2.4-.4 2.4-3.2-.8q-2.8-3-5.5-3.1-2.5 0-2-1.1c.4-.6 1.9-.7 3.6-.4 2.1.5 3.6.1 5.6-1.4 3-2.4 5.5-2.1 9.1 1.3m41.5-.3c4.4.4 8.9.4 10 0 5-1.8 34.7.9 34.7 3.1 0 .4-12.6.8-28 .8h-28v-3.1c0-2.6.3-3 1.8-2.4a62 62 0 0 0 9.5 1.6m-232.8 9.6c-.4 3-.9 5.2-1.2 4.9s-.2-3.6.2-7.3 1-6 1.3-4.9c.2 1 .1 4.3-.3 7.3m146.3-6.5c2.1 2.6.2 6.7-4.4 9.2-4.5 2.5-5.4 2.1-4.6-2a4 4 0 0 1 2.3-2.7c1-.3 1.9-1.4 1.9-2.4 0-3.3 2.8-4.5 4.8-2.1m63.6.3q-.6 1.3-1 1.5-.3-.2-.4-1.5c-.1-1.3.4-1.5 1-1.5q.8.2.4 1.5m-32.8 6q1.4 3.5 3.4 3.5 2.1-.2 2 2.9c0 2.5-.4 3-2.2 2.8-1.3 0-3.3-.9-4.6-1.8s-2.9-1.6-3.6-1.3c-1.9.7-3.2-7.6-1.4-8.8q4.1-2.5 6.4 2.7M415 577q0 .9-.4 1-.5-.1-1.1-1-.4-1 .4-1 1 0 1.1 1m-.7 4.1c1.5 0 1.7 1.5 1.9 16.2.2 21-.1 41-.8 62.3-.7 21-.9 23.4-1.8 23.5-1.9.2-6.5-2.2-9.9-5.2l-3.8-3.4 1-20c.6-11 1.3-31.6 1.5-45.9.4-18.2.9-26.3 1.8-27.3q1-1.5 4.7-.9c2 .4 4.4.6 5.4.7M209.1 591q-1.3 3.6-.7-1c1-10 .9-9.7 1.3-5.5a18 18 0 0 1-.6 6.5m155.9-6.2c0 .4-1.7 2.8-3.7 5.4l-5 6.4c-1.1 1.7-1.2 1.7-1.2-.8-.1-3.6 5.5-11.8 8-11.8q1.7 0 1.9.8m16.5 2.1q-.6 1-1.7 1.1-1 0 .2-1.5c1.4-1.7 2.6-1.3 1.5.4m45.1 2.8c-1 1-1.9-.5-1-1.8q.8-1.6 1.2 0 .3 1.2-.2 1.8m-304.6 15q-.1 1-1.2 2c-1.3.7-15.9.5-16.7-.3q-.2-.4.7-1.6a32 32 0 0 0 1.5-8.8l.6-7.8c.2-.8 15.1 15.4 15.1 16.5m93.7-11.5q-.3 1.8-.4-1.7t.4-2.3c.2 1 .2 2.8 0 4m158-4 3.1 1.4c.2.1-.3 2.4-1.1 5.1s-1.2 6.2-.9 7.8c.4 2.5.2 2.7-1.6 2.3-4.4-1.2-11.6 5.8-12.9 12.4q-.8 5-4.1 4.8c-1.1 0-1.3-1.5-.9-6.3.6-8.9 2.2-13.9 5.1-16 1.5-1.1 2.6-2.9 2.6-4.2q0-2.2 2-2.8c1.1-.3 2.4-1.7 3-3.1 1.1-2.9 1.7-3.1 5.7-1.4m17.9 3.3c2 2.2 2.6 2.4 4.3 1.3 3.4-2.1 4 0 3.4 12l-.6 11.3-2.6-.6c-3.6-.9-4.8-2.1-5.5-5.5-1-5.1-6.6-3.4-6.6 2 0 2.1-1.8 4.2-8.2 9.6-13.9 11.8-14.3 12.4-10.9 16.5 1.7 2.1 1.9 3.5 1.4 10.8-.6 8.3-.6 8.5 2.2 10.7s2.7 4.4-.3 4.4c-1 0-2.2-1-2.7-2.3-.9-1.9-1.7-2.2-6.3-2.1l-5.4.2.4-12.8c.2-10.6.6-13.1 2.1-14.8 1-1.1 1.7-2.8 1.5-3.9-.2-1.4.3-1.8 2.5-1.8q5.8 0 6.3-8.1c.6-7.3 4.5-10.3 9-6.9 2.7 2 3.1 1.9 4.8-1.7 1.3-2.6 1.4-3.7.4-6.4-.9-2.6-.9-4.2.1-7.6.7-2.4 1.8-4.9 2.3-5.6 1.7-2 5.9-1.4 8.4 1.3m54.2-.3q1.1 1.1.3 2.2c-.5.6-.5 2-.2 3 .4 1.1.4 4 .1 6.5s-.8 15.8-.9 29.6c-.1 13.7-.4 25.1-.5 25.5-.2.3-.7 7.2-1 15.5-.8 18.2-1.2 20.7-3.4 20.3-1.5-.3-1.7-3.9-2-38.3-.2-20.9 0-44.4.3-52.3l.7-14.4 2.7.7a13 13 0 0 1 3.9 1.7m-19.3 1.7q.4.9-.5 1.6-.9.4-1-.9 0-2.7 1.5-.7m-217.8 3.8q-.5 1.4-.5-1.2t.5-1.8c.2.7.2 2.1 0 3m-82.8 2.4c3.3 4.3 2.1 4.5-1.9.4q-3.1-3.4-1.9-3.4c.7 0 2.5 1.4 3.8 3m95.8 23.6c-.4 14.8-.8 29.3-1 32.3s-.5 7.2-.5 9.2c-.2 3.1-.6 3.8-2.3 3.8-2 0-2-.3-1.5-14.3.7-15.2 1.2-21.5 2.6-31.7.8-5.5 1.8-18.3 2-24.3q0-1.5.6-1.7c.4 0 .4 12 .1 26.7m-6.1-19.9c-1.2 1.2-1.8-.8-1-3.5l.8-2.8.4 2.8c.2 1.6.1 3.1-.2 3.5m-7.1.7c-.5 2.1-3.4 28.2-4.1 37-1 11.8-1.6 15.5-2.5 15.5-2 0-2.1-3.4-.4-11.3a97 97 0 0 0 2.1-12.7l1.5-14c1.2-9.7 1.5-12.6 1.8-17q0-2.9 1.1-1c.5.8.7 2.4.5 3.5m218.5 1.6q0 .8-1 .9-.9-.1-1-1.6.1-1.3 1-.9 1 .6 1 1.6m-211 4.7a351 351 0 0 0-4.4 46.5c-.2 3.7-.6 7-.9 7.4-1.5 1.4-3.7-.8-3.7-3.7 0-7.8 2.9-28.7 4.7-34 .2-.8.7-5.3.9-10s.7-9.1.9-9.8c.9-2.5 2.5-.1 2.5 3.6m-42.4-1.6c2.4 2.3 3.2 7.2 1.5 8.3-.5.3-2.7-.6-4.8-2.1-3.1-2.1-4.6-2.5-8.3-2.1-4.5.5-8-.8-8-3.2 0-1.4 3.6-1.5 4.5-.1q1.4 2.2 7.5-.9c4.6-2.5 4.8-2.5 7.6.1m253.4 2.9q0 .8-1 .9-.9-.1-1-1.6.1-1.3 1-.9 1 .6 1 1.6m-356.6.7-.2 12.4c-.2 14.7-2.1 13.2-2.3-1.7-.1-13.6-.1-12.7 1.4-12.3q1 .6 1.1 1.6m6.4 3.1c-.3 2.1.1 2.6 2 2.5q2.2 0 2.2 1.7t.9 2.3c1.6 1 3.5-2.5 3.6-6.5 0-2.1.4-3.9.8-3.9.8 0 .8 12.2-.1 19.2l-.4 3.8H73.9l.2-12c.2-10 .4-11.8 1.6-10.9.7.7 1.2 2.3 1.1 3.8m29-.6q.4 3.6 2.3 5.1c2.4 1.7 3.4 7.1 2 10.8-1 2.6-1.3 2.7-5.4 2.2q-4.3-.6-5.1.5c-.4.6-1.5 1.1-2.4 1.1-1.5 0-1.7-1-1.4-8.3.1-4.5.5-9.8.9-11.7l.6-3.5 1.1 4.5q1.2 4.5.2 5.8c-1.3 1.9 1.4 4.4 3.4 3.2 1.2-.8 1.3-1.3.3-2.9q-1.2-2-.3-2.6 1-.8.9-2.8-.6-6.1 1.4-5.5c.6.3 1.3 2.1 1.5 4.1m13.7-1.3q-.8 1.1-1.7.2c-.6-.6-.7-1.6-.3-2.2q.8-1.1 1.7-.2c.6.6.7 1.6.3 2.2m23.7 2.3c.3 2.9.6 3.2 4.1 3.5q3.8.4 4.3-1.2c1-2.5 3.6-2 3.2.6q-.2 2.2-3.3 2.9c-1.6.4-4.4 1.3-6.2 2-2.7 1.1-4 1-8.8-.5-3-.9-6-1.4-6.5-1.1q-1 .4-1-1.1c0-1.4.7-1.5 4.3-1 5.3.8 7.6-.9 5.6-4.2-1-1.6-1-2.3 0-3.6 1.9-2.2 3.9-.4 4.3 3.7m-126.9-2.9c.3.7.4 6.3.1 12.2l-.4 10.9-6.7.3c-6.1.3-6.6.1-4.9-1.1s1.9-2.6 1.8-12.1c-.1-6.5.2-10.6.8-10.6 1.2 0 1.2.1 1.4 11.8q.2 13 3.4 10.8c.5-.3 1.3-5.8 1.7-12.1.6-10.6 1.5-13.6 2.8-10.1m47.7 9c0 5.7.3 11.1.6 12 .5 1.4-.7 1.6-9.7 1.6H44.5l.3-11.5c.4-12.9 2.2-15.9 2.2-3.6 0 5.9.4 8.2 1.5 9.1 2.6 2.2 3.7-.2 4.2-9.4l.6-8.6H64zm18-8.3q0 1.8-1 1.4c-.5-.3-1-1.3-1-2.1s.5-1.4 1-1.4q1 .1 1 2.1m10-1.1q0 .9-.4 1-.6-.1-1.1-1-.4-1 .4-1 1 0 1.1 1m20.8 2.8c.2 1.8-.1 3.2-.7 3.2s-1.1-.6-1.1-1.3c0-.6-.3-2.3-.7-3.6q-.7-2.6.8-1.9c.8.2 1.5 1.9 1.7 3.6m-72.7 9.7.3 11h-4c-3.4 0-3.9-.3-3.6-2.2.2-1.2-.1-2.4-.7-2.7-1.6-1-4 .5-4.3 2.7-.2 1.7-1.1 2.2-3.9 2.3l-3.7.3.6-6.7c.5-7 2-12.9 2.1-8.6.1 2.8 2.6 5 3.7 3.3q.7-1.4 3 1.7l2.3 2.9 1.2-3.3q1.1-3.1 2.8-3c1.3.2 1.7-.7 1.9-5.1.5-9.1 2-4.3 2.3 7.4m126.5-7.5c.6.6 2.6 1.9 4.5 2.9 3.1 1.7 3.4 2.2 3.7 7.2l.3 5.4-2.6-2.5c-3.4-3.2-10.2-3.5-13.4-.6q-2 2-5.3 1.3c-4-.6-11.1 2.6-13.3 5.9-1.4 2.2-1.7 2.2-5 .8-3-1.2-3.9-1.2-6.9 0l-3.4 1.4-.4-4q-.4-4.2 1.4-6.4c2.7-3.3 5.1-3.7 10-1.5 7.3 3.3 8.2 3.4 11.3.5 2-1.9 3.5-2.4 5.4-2.1q5.3 1 7.2-5.7c.8-2.8 1.5-3.6 3.2-3.6 1.3 0 2.8.5 3.3 1m-74.3 11.2c.3 4.6.1 5.8-1.1 5.8q-1.6.2-.8-3.1c.3-1.7.6-4.8.7-6.8.1-4.9.7-2.9 1.2 4.1m334.7-2.7q0 1.4-1 1.5-.9-.1-1-1.5c-.1-1.4.5-1.5 1-1.5q1 .2 1 1.5m-312.2 9.7c-.3 2.9 0 3.3 2 3.2s2.2.4 2.2 4.8c0 5.2-.5 5.8-2.6 3.1-1.8-2.6-2.5-1.3-2.8 5.8-.5 9.7-1.7 16.9-2.9 16.9q-1-.1-.2-8.3c.4-4.5.8-11.4.9-15.2 0-3.9.7-8 1.4-9.3q1.1-2 .7-2.2-.5-.1 0-1 1.7-2.7 1.3 2.2m312.3-.9c-1.3 1.3-2.6.3-1.6-1.2q.6-1 1.7-.5 1 .6-.1 1.7m-257 2.2c1.2 1.9 2.5 3.5 3.1 3.5s.9 2.3.7 5.2c-.1 2.9.1 6.5.5 8.1.8 2.6 1.7 3.1 6.9 3.9q1.6.4 1.8 1l-.1 3.6c0 6-1.2 6.4-16.5 6.3-13-.1-14-.3-18.6-2.9-6.2-3.5-6.7-4.8-2.4-6.6 3.3-1.4 3.5-1.8 3.5-6 0-3.6-.4-4.6-2-5.1-2.8-.9-2.6-5.7.4-9.2 2.1-2.4 2.7-2.6 4.3-1.5 4.2 2.9 3.8 2.9 10.8-1.3 2.2-1.3 4.4-2.4 4.8-2.4.4-.1 1.7 1.5 2.8 3.4m202.8-2.2q1 1.4.5 2c-1 .9-4.5-1.3-3.9-2.4q1.4-1.9 3.4.4m11.8 5.5c.8 1 3.1 1.6 5.9 1.8 4.5.2 7.2 2 5.5 3.7-.9.9-12.5-2.5-17.6-5.1-2.8-1.4-2.8-1.6-1-2.3 2.5-.9 5.6-.2 7.2 1.9m-250.1 3.9q1.5 5 3.6 4.5c.9-.1 2.1.4 2.7 1.2.9 1.1.5 2.4-2 6-3.3 4.6-3.3 4.6-1.6 8.1l1.7 3.9c0 .1-3.5.2-7.7.1-7.2-.2-7.8-.3-8.3-2.5-.3-1.3-.1-5.5.5-9.3.9-6.3 1.4-7.2 5-10.3 4.6-3.9 5.4-4.1 6.1-1.7m246.4 2.8c.7.8.9 2.6.5 4.4-.5 2.4-.2 3.2 1.5 4.1q3.4 1.8 6.3-2.8c1.1-1.7 4.2-1.5 6.1.4 2.4 2.4 2 12.4-.5 12.4-1.6 0-19-7-21.5-8.7-3-1.9-3.6-8-.6-6.8 3.5 1.5 4.7 1 5-1.8q.6-4.5 3.2-1.2m-352.2 3c2.7 2.3 6.2 2.6 6.2.5 0-1.2 5.7-3.3 7-2.5.6.3.9 1.8.8 3.3-.2 2 .2 2.7 1.7 3 1.9.4 4.5 2.8 4.5 4.3q-.2.7-2.2 1.1-2.2.4-2.3 2 .2 3.6-5.5 4c-3.4.3-3.5.4-4.3 5.8-1 6.4-2 7.8-4.2 6q-1.5-1.3-1.5-6.2c0-4.2-.5-5.6-3.6-9.3-2-2.5-4.4-4.7-5.5-5-2.6-.9-2.4-2.3.4-2.7 1.8-.2 2.2-.8 1.9-3.6-.2-2.6.2-3.2 1.7-3.2 1.1 0 3.3 1.1 4.9 2.5m154.8 1.2c-.7.7-2.6-.7-2.6-1.9q0-1 1.5.2 1.4 1.2 1.1 1.7m242.2 19c-.3 4.2-2.1 5.1-2.6 1.5-.4-2.9.4-5.2 1.8-5.2q1 .2.8 3.7m-41.1-.1c-.9.9-2.8-.6-2.1-1.8q.6-1 1.7.1 1 1 .4 1.7m-148.9 18 .2 18.1-6.7 3.5c-3.8 2-8.2 3.9-10 4.2-3 .7-3.3.5-3.8-2.1-.3-1.5-2.4-8.3-4.6-15.1-3.7-11.1-4-12.9-3.4-18.5.9-7.7 1.2-8.3 3.5-6.2 1.5 1.4 2.9 1.6 7.1 1 2.8-.4 5.9-1.5 6.8-2.4 1.2-1.2 2.7-1.5 6.1-1.1l4.5.5zm131.7-18.7c1.5.6 1.1.9-2 1.4-8.1 1.4-14 .5-11.8-1.7.9-.8 11.3-.6 13.8.3m-191.5 4c5.4.5 6.5.9 6.9 2.6a14 14 0 0 0 2.6 4.7c3.7 4.4 4.5 18.8 1.1 21.1-1.1.7-61.9-.1-64.3-.8-1-.3-1.3-3.8-1.3-12.9 0-6.8.3-13.1.6-14 .5-1.4 3.6-1.6 24.3-1.5 13 .1 26.5.4 30.1.8m224.3 6.2c3.2 2.7 6.4 4.9 7.2 4.9s2.8 1.2 4.5 2.6c2.9 2.5 3.1 2.9 2.8 9.2l-.3 6.5-29.9-.2a613 613 0 0 1-30.4-.6c-.3-.3-.5-6.4-.6-13.7l-.1-13.3 7.9-.2a114 114 0 0 1 20.9-.5l12.1.5zm-289.2-.5q-.3 4.6-1.3 3.6c-1.1-1.1-.2-8.2 1-8.2.4 0 .6 2.1.3 4.6m-89.9-.9c4.2 1.7 4.6 2.4 2.3 4.3-1.7 1.4-12 .9-13.5-.6-.5-.5-1.2-2.2-1.6-3.8l-.7-2.9 4.9.8c2.6.4 6.5 1.4 8.6 2.2m404.8-.8q0 1-1 1.6-.9.4-1-.9.1-1.5 1-1.6 1 0 1 .9m-.4 7.3-.5 5.1q-.2.8-.9.3c-.7-.5-.7-2.4-.6-4.8.2-5.1.2-4.8 1.4-4.8.5 0 .8 1.9.6 4.2m-417.9-.8q4.1 2 4.5 4 .3 2.2 3.1 2.4c2.8.3 3.5 2 1.6 3.9s-.2 4.5 2.3 4.1c2.1-.3 2.4.2 2.9 4.6.3 2.8 1.1 5.2 1.7 5.4 1.4.4 1.6 2.8.4 3.6-.5.3-1.8.3-3-.1-1.6-.4-2.2-1.4-2.4-4.2-.3-3.1-.6-3.6-2.9-3.7-1.4 0-4-1-5.8-2.3q-5.2-3.9-7.1 1.1-.9 2.5-.9-9.5a36 36 0 0 1 .7-11.5zM430 687q0 .9-1 1a1 1 0 0 1-1-1q.1-1 1-1t1 1m-4.7 13.5c-.9 4.4-2 2.7-1.7-2.8l.4-5.7c.6-1.3 1.7 6.2 1.3 8.5M31 696q0 2 3.3 3.6c1.8.9 4.3 3.1 5.6 4.9 2.6 3.9 2 6.4-.8 3.6a5 5 0 0 0-4.2-1.4c-1.8.3-3.4-.6-6.2-3.5-3.5-3.6-3.7-4.1-2.6-6.5 1.5-3.2 4.9-3.7 4.9-.7m410.8 3.9c1.9 1.1 1.1 4.5-1.1 4.9-1.9.4-3.2-2-2.3-4.3q.7-2.6 3.4-.6M149 708.4c0 1.3.9 3.4 1.9 4.7l1.9 2.4 1.1-2.9c.9-2.3 1.4-2.6 2.6-1.6q1.4 1 2.6.5 1.1-.6 1.9.5c1.4 2.3 4.2.3 3.8-2.7q-.3-2.9 1.2-2.8 1.6-.1 1.2 2.8a6 6 0 0 0 1.7 5 9 9 0 0 1 1.9 5.5c-.1 3.9-1.3 5.1-2.1 2.1-.8-3.1-3.1-1.8-3.5 1.9-.2 1.8-.8 3.2-1.4 3.2q-1-.2-.4-2.3c.8-3.2-1.7-6.7-3.5-5q-1.2 1.4-2.6.2c-2-1.7-4.3-.3-4.3 2.6 0 3.2 2.6 4.4 4.4 1.9 1.2-1.6 1.5-1 2 5.1 1.3 14 1.6 15.4 3.8 16.6 1.9 1 2 1.8 1.5 9-.5 8.1.2 10.1 2.8 7.9 1.1-.9 1.5-3.5 1.6-9.4 0-7.7.1-8 1.6-5.9 3 4.4 4.1 2.8 4.6-6.5.3-4.8.4-14.4.3-21.4-.1-11.6.1-12.8 1.7-12.8 1.3 0 1.7.9 1.7 3.9 0 2.2-.4 5.1-.9 6.4-1.1 2.8.8 6.5 2.7 5.3 1.7-1 3.5-8.5 2.8-11.8-.5-2.4-.2-2.8 1.5-2.8s2 .5 1.6 2.2l-2.3 9.5c-1.3 5.7-2.1 7.3-3.5 7.3-2.3 0-2.8.9-3.5 6.4-.6 3.7-.3 5 1.2 6.7q2 2.2 2.4 8.2c.4 5.2.8 6.2 2.5 6.6 1.1.2 3.3 1.5 4.9 2.8 2.5 2.1 3.7 2.4 6.8 1.9q3.9-.6 6.3 1c2.1 1.4 3.2 1.5 6.7.6 5.6-1.4 6.4-.6 7.7 7.6 2.2 14.5 2.2 14.2 0 14.2s-3.6 2.7-2.2 4.1q1 1 2.7-.7c1.9-1.8 2.1-1.8 3 1.2.6 1.9.2 2.3-2.7 2.8-5.2 1-6.6 0-6.9-4.7q-.2-4.4-2-4.5c-1.5-.3-1.8.4-1.8 4.3q0 4.7-1.2 4.3-1.2-.6-.9-4.6c.2-3.7 0-4.2-1.8-4.2-2.1 0-2.7 1.6-2.2 6.7q.1 2.4-1.5 2.3-1.8.2-1-2.6c.6-2.2.4-2.5-1.6-2.2q-2.4.2-2.6 3c-.3 2.5-.7 2.8-4.3 2.8s-3.9-.2-3.9-2.6c0-3-4.5-7.8-6.5-7-.7.2-1.5 2.3-1.9 4.6-.8 5-2.8 4.4-2.5-.9.3-5.2.1-6.1-1.4-6.1-2 0-3.4 4-2.9 8.2l.4 3.8h-6c-5.1 0-6.2-.3-6.7-2-.5-1.5-1.4-1.9-4.3-1.7l-3.7.2-.3-5c-.4-7.1-.7-7.8-3.3-6.5-1.7 1-2.4.8-4.1-1-1.6-1.7-2.3-1.9-3.4-.9-1.3 1-1.2 1.5.5 3.3 2.2 2.3 1.6 4.1-1.3 4.1-2.7 0-3.3 2.5-.7 3.2 2.1.5 3.8 3.9 2.6 5.1q-.7.5-1.9-1.1c-1.6-2.1-4.2-2.2-5-.2-.4 1.1-2.1 1.5-6 1.5-5.3 0-5.4 0-6-3.3-.3-1.8-.5-19.1-.4-38.4.2-33.8.3-35 2.1-33.9 1.5.9 2 .7 2.9-.8q1-2 1.8-.6c1.2 1.9 4 .4 4-2.1q0-2 .7-1.5c.4.4.6 4 .4 8.1-.2 6.2 0 7.5 1.3 7.5q1.4-.1 2.5-1.8c1.1-1.9.9-2.1 2.6 3.3.5 1.8 2.4 2 2.9.2l1.1-3.2.7-2 .8 2c.5 1.1.9 4.5 1 7.5s.5 6.6.9 8c.8 3 3.5 3.3 3.9.5a5 5 0 0 1 2.5-3c1.6-.7 2.3-2 2.5-4.8.3-3.7.2-3.8-2.5-3.5-2.6.3-2.8 0-3.5-4.7-1.1-7.7-1.7-9.5-3.3-9.5q-1.5 0-1.5-3.3c0-3.8.6-4.7 3.2-4.7q1.8 0 1.8 2.4m-10 2.1q0 3.5 2 5.2 3.7 3.3.1 3.3c-1.1 0-2.3.5-2.7 1.1-1.3 2.1-1.9-.8-1.6-7 .4-6.4 2.2-8.6 2.2-2.6m235.6 4.2c.2 8.5.7 9.5 4.1 8.7l2.6-.7-.7 5.9c-2.1 17.7-2.5 21.8-2 22.3.9 1 3.7-1.5 3.9-3.5.9-10.8 1.8-18.1 2.4-19.8 1.2-3.1 2.2 6.5 2.6 23.3.2 7.9.6 14.5.9 14.8q.5.4 1.7-.2c.8-.6 1-5.7.8-19.4-.4-18.5-.4-18.6 1.8-18.9 2-.3 2.2.2 2.5 4.5.2 3.5.7 4.8 1.8 4.8q1.5 0 1.3-2.5c-.7-12.3-.5-24.1.7-25.5 1.7-2 7-2 7 0q0 1.4-2.5 1.5c-2.5 0-2.6.2-2.3 5.7.2 4.4.7 5.8 1.8 5.8q1.5 0 1.8-3.3c.2-2.4 1-3.5 2.8-4.2q2.5-1 2.4-3.5c-.1-2.5.5-2.5 2-2.5 2.2 0 2.3.4 2 6.5a11 11 0 0 1-2 6c-1 1.1-2 3.6-2.2 5.5q-.4 3.6-2.4 3.9-4.8.9-4.1 5c.3 1.4.1 3.6-.4 4.9-1.4 3.7 1.3 6.3 6.4 6 4-.3 4.1-.2 4.9 3.7.8 3.5.6 4.2-1.4 5.9l-2.3 1.8 2.3 1.5c2.1 1.5 2.2 2.1 2.2 15.4 0 7.7-.2 13.9-.5 13.9s-1.4-.6-2.6-1.3c-1.7-1-2.2-.9-3 .5-1.1 2-8 2-11.7-.1q-2.4-1.3-3.7-.1c-.8.6-4.6 1-9.7.8l-8.3-.3.4-6.5c.3-3.6.5-10.3.5-15 .1-6.9-.2-8.5-1.4-8.5q-2.1 0-2.9 25.2 0 4.4-1.5 4.3c-2.1 0-2.4-1.9-1.5-8.5q.7-6-.3-7.3c-1.8-2.2-2.8 0-3.4 8.1-.6 6.9-.9 7.7-2.8 7.8l-6.2.5c-3.1.4-4.6 0-5.9-1.2-1.4-1.4-2.1-1.5-3.6-.6-4.6 2.9-5.9.1-5.9-12.9 0-7.2.7-8.5 6.3-11.9 6-3.5 6.9-5.7 7.2-17.1.2-9.4.4-10.3 2.6-12 2-1.5 2.5-2.9 2.9-8.9.3-4 .2-7.4-.2-7.6-.5-.3-.8-1.9-.8-3.7 0-3.3 1.5-2.8 2.2.8.6 3.3 3.3 2.4 3.6-1.3.9-8.7 3.2 2.2 3.2 15q.1 7.6 2.9 4.4c.9-1 1-4.6.5-12.6-.7-10.7-.6-11.2 1.2-10.8 1.6.3 1.9 1.3 2 7.5m7.4-4.6c0 2.4.4 3 1.8 2.7q1.5-.5 2-2.6c.4-2.7 1-2.7 3.4-.5 1.9 1.7 1.9 1.8-1.2 4.3a9 9 0 0 0-3.4 5.5c-.4 3.4-1.9 3.7-2.4.5-.2-1.2-1-2.4-1.8-2.7-1.4-.5-2-8.3-.7-9.6q2.2-2.2 2.3 2.4m12-.7q0 .5-1 1.1-.9.4-1-.4.1-1 1-1.1 1 0 1 .4m31 3.2c0 1.4-1.2 1.9-2.3.8-.9-.9.4-3.5 1.4-2.8q.8.6.9 2m-217 4c0 1.6-3.5 1.9-4.5.5-.6-1.1 2.6-3.2 3.7-2.5q.8.6.8 2m148 2.4c.5 3.1 0 6-1 6-.5 0-1-2.1-1-4.7q0-4.5.9-3.8.9 1.1 1.1 2.5m38.3-.3c.3 1.6.1 3-.4 3.1q-1 .5-2.3 1.7c-2.8 2.8-3.6-1.6-1-5.3q2.9-4.4 3.7.5m-167.5 8.6c.1 4.8-.1 7.7-.8 7.7q-.9-.1-1-1.9l-.7-8.1c-.5-5.1-.4-6.2.8-5.8 1 .3 1.4 2.7 1.7 8.1m201.6-6.1q-.7 1.1.9.5 1.6-.5 1.7.5 0 1.4 1.2 0c1.9-1.9 3.3-1.4 1.5.6-1 1-1.7 2.4-1.7 3s-1.9 1.6-4.2 2.2l-6 1.6q-4.3 1.2 2.2-5.6c3.8-3.9 5.9-5.2 4.4-2.8m-206.2 7.5c.5 8.2.3 9.7-1.3 8.8-1.2-.8-1.2-16.5 0-16.5.5 0 1.1 3.5 1.3 7.7m-4.2-2.6c0 1.7-.4 2.8-1 2.4s-1-1.7-1-3.1c0-1.3.5-2.4 1-2.4s1 1.4 1 3.1m-7 9c0 10.3-1.3 13-2.7 5.6q-1-4.3.4-5.5 1.8-1.7-.3-8c-.5-1.8.5-3.4 1.7-2.7.5.4.9 5.1.9 10.6m3.6-5.5c.1 5-.4 8.9-1.2 8.1a32 32 0 0 1-1-7.2c-.5-5.4-.3-6.6.8-6.3q1.2.5 1.4 5.4m-8.9-1.4q-.5 1-.5-1.2c0-2.2.2-1.9.5-1.3.2.7.2 1.9 0 2.5m-116.2.5c5 1.9 6.6 4.5 3.2 5.1-1 .2-2.7-.4-3.8-1.4-1.6-1.5-2.3-1.5-4.4-.4-2 1.1-3 1.1-5.7 0-4.7-1.9-5.3-2.7-3.8-4.5 1.7-2.1 7.4-1.6 14.5 1.2m351-.7q.4.9-.9 1-1.8 0-2.1-1t.9-1q1.8 0 2.1 1M171 736.6q0 8.3-1 7.9c-.5-.3-.9-2-.7-3.8.1-2.5-.3-3.4-2-4.2-2.6-1.1-3-2.5-.9-2.5.8 0 1.9-1.4 2.5-3 .5-1.7 1.2-3 1.5-3s.6 3.9.6 8.6M7 734.1q0 1.7-.9 1.9c-1.2 0-2.3-2.9-1.5-4.1.8-1.4 2.4 0 2.4 2.2m223.3-.6q-1.2 3.1-1.3-.6 0-1.8 1-1.4.8.6.3 2m4.4.1c-.9.9-2.8-.6-2.1-1.8q.6-1 1.7.1 1 1 .4 1.7m-163.1 4.5c.8 1.7 1.3 4 1.1 5.1-.6 2.2 1 7.7 2.8 9.7.7.7 3.2 1.3 5.4 1.3q4 0 4.1 1.2c0 1.9-2.2 3.6-4.7 3.6s-3 1.9-1.1 3.8c1.7 1.7-1.5 2.6-4.2 1.2-1.8-.9-2.5-.8-4.1.6-1.8 1.6-1.9 1.6-1.9-1.4q-.2-5.7-3.8-2.9-4 3.4-7.5 1.5c-4.8-2.5-5-5.8-.4-5.8 5.3 0 6.6-1.7 7.6-9.6.9-7.2 2.4-11.4 4.1-11.4.5 0 1.7 1.4 2.6 3.1m44.2.8c-.2.9-1.2 1.7-2.2 1.9q-2 .5-1.2-1.3c.3-1 .1-2.4-.6-3.2-1-1.2-.8-1.2 1.6-.2 1.5.7 2.6 1.9 2.4 2.8m292.6.6q.4 1.3-.4 1.5-1-.2-1-1.5c0-1.3.2-1.5.4-1.5s.6.7 1 1.5m39-.6c.6.9-3.6 4.1-5.4 4.1-1.5 0 2.2-4.9 3.7-5q1 0 1.7.9m-15.4.9c0 .5-2.1 1.5-4.7 2.3-5.4 1.6-6.1 3.2-1.8 3.9q5.1 1 .3 3.4c-2.9 1.4-3.7 5.6-3.7 19.8-.1 8.4.2 10.8 1.2 10.8 1.8 0 3.5 3.8 3.1 7-.4 3.7-.4 3.7-1.8.5q-1.3-3-.4-4.2.8-1.1-.1-1.7c-1.7-1.1-2.2 1.2-2 7.9.1 3.6 0 6.8-.4 7.1-1.8 1.9-2.3-5.5-1.9-27.3.4-21.3.7-24.5 2.3-27.2s2.5-3.1 5.9-3.1c2.2 0 4 .4 4 .8m-419 3.4c0 1.2-1.4 1-2.8-.4-1.9-1.9-1.4-2.9.8-1.6q1.8 1.2 2 2m208.4 6.4c.7 1.9-.2 3.7-1.5 2.9-1.2-.8-1.2-4.5 0-4.5q.9.1 1.5 1.6m-3.7 11.1c-.2 2.1-.4.6-.4-3.2s.2-5.5.4-3.8.2 5 0 7m4.5-2.7q.7-2.7 1.9-1.3c1.4 1.4.8 5.8-.8 5.8-2.2 0-2.5 1.3-.5 2.4 2.6 1.4 1.9 6.1-.8 5.4-1.9-.5-3-4.7-3-11.4 0-4.8 1.4-5.9 2-1.7.5 3.1.6 3.2 1.2.8m204.8-1q0 1.8-1 2-.9-.2-1-2c-.1-1.8.5-2 1-2q1 .2 1 2m4 2q0 .9-1 1a1 1 0 0 1-1-1q.1-1 1-1t1 1m-203.8 4.2q-1.1 1-1.2.2c0-1.4 1.2-2.6 1.9-1.9q.2.6-.7 1.7M114 766q0 .9-1 1a1 1 0 0 1-1-1q.1-1 1-1t1 1m114.5 28.4-.5 29.9c0 1.6-.5 2.7-1.1 2.5q-1-.3-1.1-23.8c0-12.9-.2-22.8-.5-22l-.9 3c-.4 1.2-.6 1.2-1.4.1a4 4 0 0 1-.3-2.8q.4-1.2-.5-1.3c-.9-.1-1.3.6-1.5 1.2-.3.7-.6-1-.6-3.8-.1-4.3.2-5.2 1.7-5 .9 0 2.2 1.2 2.9 2.6 1.1 2.2 1.2 1.8 1.3-3.9 0-5.5.2-6.2 1.5-5.1s1.4 5.1 1 28.4m4.5-26.2q0 2.4-1.1 1.1-1-1.1-.5-2.2 1.6-2.5 1.6 1.1M115 775c0 1.4-1.1 2.2-4.1 3-3.5 1-4 1.4-3.5 3.3.3 1.1 0 2.7-.6 3.4-1.5 1.8.4 3.8 2.7 2.9q1.6-.6 1-2.5c-.7-2.5.9-3.5 3.4-2.2 1.8 1 1.9 2.3 1.8 22.8l-.2 21.8-3.2 1c-1.8.6-4.9.9-6.8.7-2.9-.4-3.3-.7-2.5-2.2 1.1-2.1-.5-4-3.7-4-2 0-2.3-.5-2.3-3.4 0-2.8.4-3.5 2.3-3.8 2.5-.3 2.7-1.8.3-3.3-1.2-.7-2.3-.6-4.3.5-3.3 1.9-4 3.3-4.8 9.3-.6 4.4-.8 4.7-3.6 4.7-1.7 0-3.7.7-4.5 1.5-2 1.9-8.8 1.9-10.4 0q-2.5-2.9-5 0-1.2 1.4-1.8 1c-.3-.3-.6-12-.6-26-.1-22 .1-25.5 1.4-25.5s1.5 2.5 1.2 17.9c-.3 19.6-.3 19.4 6.1 20.6 3 .6 3.7.4 3.7-.8 0-.9-.9-1.9-2-2.2q-2-.5-2-3.6c0-2.7.2-2.9 2-1.9 2.3 1.2 4 .6 4-1.5 0-1.8-2.1-2.4-4.2-1.3-1.6.8-1.8.3-1.8-3.5s.4-4.6 2.1-5c2.7-.7 2-3.1-1-3.5-2-.3-2.2-.8-1.9-5.5s.5-5.2 2.8-5.2c2.1 0 2.5-.4 2.2-2.8-.2-2.2.1-2.7 1.8-2.7 2 0 2 .3 1.6 19.5-.3 15.8-.1 19.6 1 20.6.7.6 2 .9 2.8.6 1.1-.5 1.4-4.1 1.5-19.8a88 88 0 0 1 1.1-20.3q1-.9 1.1 0c0 1.1-.3 23.5-.5 28.4-.1 3.1.2 3.5 2.4 3.5h2.5l.9-14.9c.8-13.9.8-15-.9-16.3-1.7-1.2-1.4-1.3 2.6-1.3h4.5l-.9 6.7c-.7 4.7-.6 7.2.1 8.4q1.2 1.8.2 2.4c-1.4.8-1.3 7.2.1 8.1 2.8 1.7 6.1-6.4 3.6-8.7-1.2-1.2-1.2-1.5 0-2.8 1.4-1.3 1.5-8.8.2-13.1-.3-1.2.6-1.5 4.1-1.5 3.7 0 4.7-.4 5.5-2.2 1.1-2.5 2.5-2.1 2.5.7m118.5 0q-.6.9-1.6 1-.8-.1-.9-1 .1-1 1.6-1 1.3 0 .9 1m-188.3 3.6 4.5.6.6 18.6c.7 19.3.2 22-3.1 20.2l-3.4-1.4c-.9-.2-1.8-1.5-2-2.8q-.4-2.3-2.5-2.6c-2.6-.4-2.5.1-2.8-19.2a40 40 0 0 1 .9-13.2c1.4-.9 2.2-1 7.8-.2m13.9 6.9c.4 3.8.5 14.7.3 24l-.4 18.3c0 2-1.7 1.4-2.3-.8-.7-2.8-3.6-2.5-4.7.4-.8 2.2-1.4 2.4-8.8 2.5-7.2.1-8-.1-8.5-1.9-.7-2.6-3.3-2.6-4.7 0-1.4 2.7-3 2.5-3-.3 0-3.1-1.9-4.8-3.9-3.8-1.4.8-1.6-.5-1.3-12.2.3-12.1.5-13.3 2.5-15l2.2-1.8-2.2-1.6c-2.3-1.6-3.1-4.7-1.4-5.8.5-.3 1.3-.1 1.6.5q.7 1.1 2.1-.1c1.8-1.4.1-3.9-2.6-3.9-1.6 0-3-1.9-3-4.1 0-.5 2.4-.9 5.3-.9h5.4l-.2 7.2c-.5 20.1-.3 19-2.4 17.8-2.7-1.4-3.1-1.3-3.1 1q0 2 2.6 2.6c2.6.7 2.6.8 2 6.7-.5 4.8-.3 6.4 1.1 7.9 2.1 2.4 3 2.3 3.9-.5.7-2 .9-1.9 1.4 1.2.7 4.6 2.6 5 4.5.9q1.3-2.8 1-1.2c-.7 2.9 1.9 5.1 4 3.4.8-.7 1.5-2.3 1.5-3.6 0-2.1.4-2.3 2.9-1.8 4.8 1 5.3-1.4 4.6-19.9-.3-8.9-.8-17.7-1.1-19.5-.5-3-.3-3.3 1.8-3s2.4 1 2.9 7.3m-42.1-4a7 7 0 0 1-.1 5.1q-1 2.7.1 6c1.3 3.7.9 4.9-2.1 6.4-1.8 1-1.9.7-1.9-9.5 0-8.7.3-10.5 1.5-10.5q1.6.2 2.5 2.5m-8.7 16.3c-.3 20.6.2 25.4 2.6 25 1.3-.3 1.7-2.2 2.1-11.2l.5-10.8 2 2.1c1.6 1.9 1.7 2.5.7 4.2q-1.2 2-.3 3.7c1.5 2.8 1.6 12.9.2 14.6-.7.9-1.1 2.3-.7 3.1q.4 1.4-.5 1.5c-.9.1-1.3-.9-1.6-1.9-.7-2.6-3.2-3.5-5.2-1.7-1.3 1.2-1.9 1.2-3.3.2-2.6-1.9-2.6-20-.1-21.5 1.7-.9 1.7-1 0-2.8-2.2-2.5-2.2-8.2.1-9.9 1.6-1.2 1.6-1.4-.5-3.4-1.3-1.1-2.3-2.5-2.3-2.9 0-1.3 2.6-3.2 3.4-2.4q.7.4 1.3-1.5c1.3-5.3 1.8-1 1.6 15.6M233 780.9q0 1-1 1.6-.9.4-1-.9.1-1.5 1-1.6 1 0 1 .9m198 1.1q0 .9-1 1a1 1 0 0 1-1-1q.1-1 1-1t1 1m-189 5q-.1.9-1.1 1-.8-.1-.4-1 .6-1 1.1-1 .3 0 .4 1m-17.9 18.8c.1 7.3-.2 11.7-.9 12.4q-1.1 1.3-1.8-.6-.7-2-1.5-.4-.9 1.4-.9-.9 0-2.1 1.3-2 1.2.2 1.2-3.8 0-3.8-1.2-3.8c-.8.2-.8-1.1.1-5 1.2-5.3 2.5-8.2 3.2-7.5.2.2.4 5.4.5 11.6m18.9-7.4c0 1.6-1.8 3.1-2.7 2.2-.8-.8.5-3.6 1.7-3.6q.9.1 1 1.4m-10.4 13.2c-.1 7.9-.4 10.8-1.4 11.2-1.1.3-1.3-1.7-1.2-9.4.2-10.5.7-13.7 1.9-13 .4.3.7 5.3.7 11.2m-15.9-.9q-.5 1.4-.5-1.2t.5-1.8c.2.7.2 2.1 0 3m21 8.5c0 4.8-.3 8.8-.6 8.8-2.1-.1-3.3-2-2.7-4.6.4-1.6.7-5.4.7-8.4.1-3 .4-5.9.6-6.4 1.3-2.1 2.1 2.5 2 10.6m-18-8q-.5 1.1-.6-.6t.5-1.3c.3.3.4 1.2.1 1.9m-5.3 6.4c.8 8.1.6 9-1.9 8.1-2.1-.9-2.2-15.7-.1-15.7.9 0 1.5 2.2 2 7.6m-5.2.4.2 6.5q0 1.4-.9 1.7c-1.1.3-2.9-9.6-2.1-11.8 1.2-3 2.6-1.2 2.8 3.6m-5.1 1.3q.7 7.7-1.1 7.7c-.4 0-1-2.7-1.2-6-.4-7.1 1.8-8.6 2.3-1.7m-5.3 2.5c.2 4 0 5.2-1.1 5.2-1.5 0-3.2-8.4-2.1-10.2 1.4-2.2 2.9.2 3.2 5m-4.8.7c0 2.5-.4 4.5-1 4.5s-1-2-1-4.5.5-4.5 1-4.5 1 2 1 4.5m26.4.7c.6 2.5.4 2.8-1.9 2.8-2 0-2.5-.5-2.5-2.4 0-1.3.3-3.2.6-4.1.6-1.4.9-1.4 1.9-.3.7.7 1.5 2.5 1.9 4m-30.4 1.3c0 2.7-.4 3.5-1.8 3.5-1.9 0-2.4-3.4-.9-5.8 1.5-2.2 2.7-1.2 2.7 2.3m52.7-1.4q.6 2.3 1.4.7.9-1.4.9.8c0 2.2-.8 2.4-2.6 2.8-3.3.9-3.6.6-2.8-3.2.7-3.6 2.3-4.2 3.1-1.1m-58.2 2.3c0 1.6-.6 3.1-1.2 3.3q-1.2.3-1.3-1.6 0-2-1-2.1-.9.2-1 1.9-.1 3.6-2.7 2.3c-1.5-1-1.1-5.1.7-6.2.8-.6 2.6-.9 4-.8 2 .3 2.5.8 2.5 3.2m-10.3 2.1c-.4 2.6-3.5 3.5-4.7 1.5-.9-1.5 1.3-4 3.5-4q1.9-.2 1.2 2.5"/><path d="M423.3 408c0 4.1.2 5.8.4 3.7s.2-5.4 0-7.5-.4-.3-.4 3.8m-.2 10.6q0 1.7.6.6c.3-.7.2-1.6-.1-1.9q-.6-.5-.5 1.3m-.2 7.4c-.6 4.5-.4 5.8.7 4.8.3-.3.4-2.6.2-4.9l-.3-4.4zm-253.3 16.6q-.5 1.5.6 1.2c1.5-.5 2.3-2.8 1-2.8q-1 .1-1.6 1.6m-.1 5.3q-.4.9.5 1.6.9.4 1-.9 0-2.7-1.5-.7m-3.5 9.2q.1.8 1 .4 1-.6 1-1.1 0-.4-1-.4-.9.1-1 1.1m277.6-36.6q-.4 1.4.4 1.5 1-.1 1-1.5c0-1.4-.2-1.5-.4-1.5s-.6.7-1 1.5m3.4 1.1q.1 1.3 1 .9 1-.6 1-1.6 0-.8-1-.9-.9.1-1 1.6m1 4.4q.1.9 1.6 1 1.3-.1.9-1-.6-1-1.6-1-.8 0-.9 1m-51.5 16q.4.9-1.1 1-2 0-.7 1.1c.6.6 1.6.8 2.2.5 1.4-.9 1.4-3.6 0-3.6q-.8 0-.4 1m-13.4 7.3q-1 1.4-.4 2c.3.4-.2 1.6-1.2 2.7s-1.6 2-1.4 2.1c2.5.5 5.1.4 6.1-.3q1.5-.9-.4-.8c-2.3 0-2.3-1.9-.1-3.5q1.4-1.2.9-2.3-1.4-2.4-3.5.1m-217.4 43.6q-.7 3.5 1.4 2.5c1.2-.7 1.2-4.4 0-4.4q-.8.2-1.4 1.9m-7 .8c-1.3 1.2-.7 2.3 1.3 2.3q2 0 1.4-1.5-1.1-2.4-2.7-.8m18.3 3.2q.1 1 1 1.6 1 .5 1-.4a2 2 0 0 0-1-1.6q-.9-.5-1 .4m-52.6 1.2q-.4 1.1.5 2.2 1.2 1.3 1.1-1.1 0-3.6-1.6-1.1m49.6 0q.1.8 1 .4 1-.6 1-1.1 0-.4-1-.4-.9.1-1 1.1m-20.5.9q-.4.9.9.4 2.8-1.2.7-1.4-1 0-1.6 1m18.5 2q.1.9 1 1 1-.1 1-1t-1-1a1 1 0 0 0-1 1m-4 2q.1.9 1 1 1-.1 1-1t-1-1a1 1 0 0 0-1 1m-76.9 10.6q0 1.7.6.6.4-1.2-.1-1.9-.5-.5-.5 1.3M79.4 627.4c-1.5 1.2-1.7 1.9-.8 3.2q2.3 4.1 4.9 0c2.7-4.1 0-6.2-4.1-3.2m-21.7-11.7c-.9.8-.9 8.8 0 9.6 1.3 1.3 3.3-1.6 3.3-4.8s-2-6.1-3.3-4.8m68.5 102.2c-1.5.9-.5 4.1 1.3 4.1q1.4-.1 2.1-1.1c.9-1.5-1.8-4-3.4-3m-.8 14.2c-1 1.7 2.3 4.6 3.8 3.1q1.3-1-.2-2.7-2.2-2.7-3.6-.4m8.3.6c-1 1.5 1 3.5 2.9 3.1 2.6-.5 2.4-3.2-.3-3.6-1.1-.2-2.3.1-2.6.5m-3.1 5.2c-.9 1.4.5 4.2 1.8 3.8 1.5-.5 1.4-3.9-.1-4.4q-1-.3-1.7.6m-9.1 8c-.3.5.2 1.7 1.1 2.6 1.9 1.9 4 .6 3.1-1.9-.7-1.7-3.2-2.1-4.2-.7m8 7.1c-.9 1.5.4 5 2 5s2.9-3.5 2-5q-.6-.9-2-1c-1.4-.1-1.7.5-2 1m22.3 4.6c-1.1 1 .3 3.4 1.9 3.4q1.3-.1 1.1-1.7c-.3-1.8-2-2.7-3-1.7m29.8 1.6c-2.3 8.2-2.5 9.2-1.4 10.5 2.1 2.6 4.2-1.2 5.1-9.2.2-2.2-3.1-3.4-3.7-1.3m-7 1a46 46 0 0 0-.9 8c-.5 7.5.9 11.2 3.1 8.5 1.7-2 1.2-16.9-.5-17.5q-1.2-.2-1.7 1m-46.6.8c-.8.5-2.3 1.1-3.3 1.4q-1.8.6-1.5 2.8c.4 3 3.8 3.7 4.5.9q.5-2.2 2.3-1.6c2.3.7 3.5-1.2 2-3-1.4-1.7-1.9-1.7-4-.5m7.5 2q-.6 1.2.3 2.2c1.4 1.4 4.5.2 4-1.5s-3.4-2.1-4.3-.7m74.1 3.6c-.4.9-.1 2.3.5 3 1.5 1.8 3.9.1 3.9-2.7 0-2.4-3.5-2.6-4.4-.3m-14.1.3c-.8 1.5.3 3.1 2.1 3.1q1.4-.1 1.2-1.7c-.4-2-2.4-2.8-3.3-1.4m-37.1 1.2c-1 1.7 1.3 3.6 2.7 2.2 1.2-1.2.4-3.3-1.1-3.3q-.9.1-1.6 1.1m46.1-.1c-1 1.6 1.6 4.3 2.8 3.1s.2-4.1-1.2-4.1q-1 .1-1.6 1m-54.1 1.1c-1 1.7 1.3 3.6 2.7 2.2 1.2-1.2.4-3.3-1.1-3.3q-.9.1-1.6 1.1m37 1c-1 1.7 2.3 4.6 3.8 3.1q1.3-1-.2-2.7-2.2-2.7-3.6-.4m-55.9 3.8c-.9 1.6.3 3.1 2.6 3.1q2 0 1.7-1.7c-.4-2-3.3-2.9-4.3-1.4m-8.1 1.6c-.4.9-.2 2.1.4 2.7 1.5 1.5 4.4.1 4-1.9-.4-2.3-3.6-2.9-4.4-.8m71.8.2q.4 1.7 1.8 1.8c2.2 0 1.8-2.9-.3-3.3q-2-.5-1.5 1.5m13.2-.6c-1 1.7 1.3 3.6 2.7 2.2 1.2-1.2.4-3.3-1.1-3.3q-.9.1-1.6 1.1m-50.2 1.5c.4 2.1 2.2 2.3 2.6.1q.2-1.6-1.3-1.7c-1.5-.1-1.5.6-1.3 1.6m-3.9 5c-.8 2 .8 3.6 2.6 2.5 1.5-1 .8-4.1-.9-4.1q-1 .1-1.7 1.6m-31.8 3.4q-.6 1.2.3 2.2c1.4 1.4 4.5.2 4-1.5s-3.4-2.1-4.3-.7m252.7-56.3c-1 2.6-.9 12.7.2 13.3.8.4 3.3-9.4 3.5-13.8.1-1.8-2.9-1.4-3.7.5m-10.2 8.8q.1 4.3 3 1c1.4-1.6.6-3.5-1.6-3.5q-1.3.1-1.4 2.5m-8.5 2.4c-.7 1.2 1.2 2.4 2.5 1.6 1.1-.7.4-2.5-1-2.5q-.8 0-1.5.9m.5 10.1q0 5 3 1.5c1.5-1.8.6-4.5-1.5-4.5q-1.5 0-1.5 3m39-1.4q-1.4 1.4-.2 2.6c1.2 1.2 3.2.2 3.2-1.7 0-2.1-1.6-2.6-3-.9m-30 2.9q0 2.6 1.3 2.2 1-.5 1.2-2.2-.2-1.7-1.2-2.3-1.2-.3-1.3 2.3m15.4 2.6c-.8 1.4 1.1 3.3 2.5 2.5 1.1-.7.4-3.6-.9-3.6q-.9.1-1.6 1.1m17.2.6c-1.2 1.2-.6 3.3.9 3.3q1.4-.1 1.5-1.4c0-1.7-1.4-2.8-2.4-1.9m-41.2 5.8c-.4.8-.3 2.3 0 3.2.6 1.5.8 1.5 2.3.1 1.6-1.7 1.2-4.8-.7-4.8q-1 .2-1.6 1.5m8.8 1.6c.1 1.2.9 2.4 1.6 2.7q1.4.5 1-1.9c-.1-1.2-.9-2.4-1.6-2.7q-1.4-.5-1 1.9m33 .2c-1.3 1.5.1 4.2 1.7 3.3 1.3-.9 1.5-3.3.2-4q-.9-.4-1.9.7m-18.6 2.6c-.4.6-1.2 4.5-1.8 8.9-1.2 8-.6 12.4 1.3 10.5a69 69 0 0 0 3.3-17.2c.1-2.5-1.8-4-2.8-2.2m25.8.2c-1 1.7 1.3 3.6 2.7 2.2 1.2-1.2.4-3.3-1.1-3.3q-.9.1-1.6 1.1m-58.6 1.1c-.7 1.9.2 3.8 1.7 3.8s2.8-2.7 1.9-4.1-3.1-1.1-3.6.3m11.8 7.5c-2 6.9-1.2 13.3 1.4 10.7 1.5-1.5 1.8-11.6.3-12.1q-1-.2-1.7 1.4m-10.4 1q.4 1.7 1.8 1.8c1.4.1 1.6-.8 1.8-1.8q.4-1.7-1.8-1.7c-2.2 0-2 .5-1.8 1.7m39.8.8c-1.3 1.5-.7 4.5.8 4.5s4.4-3.8 3.7-4.9c-.9-1.6-3-1.4-4.5.4m-44.9.4c-1.5 1-.8 4.1.9 4.1 1.5 0 2.5-2.9 1.4-4q-1-.7-2.3-.1m60.2.1c-2.4 1-3 2.5-1.4 3.4 1.4.9 6.3-1.3 5.9-2.6q-.7-2.3-4.5-.8m-8.7 4.7c-1.1 1.1-.6 2.3.9 2.3q1.4 0 1.5-.9c0-1.3-1.6-2.2-2.4-1.4m-287.4 14c.4 2.2 4.3 2.5 4.3.3 0-.8-1.1-1.6-2.3-1.8-1.9-.3-2.3 0-2 1.5m-4.7 13.3q-.6 1.2.3 2.2c1.4 1.4 4.7.6 4.7-1.2s-4-2.6-5-1m5.6 6q-1.2.8-.7 1.9c.9 1.3 4.3 1.5 5.1.2s-2.8-3.1-4.4-2.1m-1.1 5c-1.3.9-1.3 1.1 0 2 .8.5 2 1 2.7 1 1.9 0 2.7-2.1 1.2-3.1-1.8-1.1-2.1-1.1-3.9.1m-32.8 3.7c.2 1 1.4 1.9 2.6 2.1 1.9.3 2.3-.1 2-1.5-.2-1-1.4-1.9-2.6-2.1-1.9-.3-2.3.1-2 1.5m-33.8-37.6A48 48 0 0 0 41 802c.4.7 1.5 1 2.4.7 1.4-.6 1.6-2.1 1.4-9.4q-.5-12.6-3.4-8.2m3.1 26c-.8 1.2 1.4 3.1 3 2.6q1-.5 1-1.8c0-1.7-3.1-2.4-4-.8m-20.1 3c-1 1.7 2.3 4.6 3.7 3.2.7-.7.9-1.9.6-2.7-.7-1.8-3.3-2.1-4.3-.5M36 486q.2.9 1.5 1c1.3.1 1.5-.5 1.5-1q-.2-1-1.5-1c-1.3 0-1.5.4-1.5 1m404 61.9c0 1.3 5.7 3.4 7 2.6 1.8-1.1-.9-3.5-4.1-3.5-1.6 0-2.9.4-2.9.9m19.4 48.5c-.9 2.4.9 15.1 2.1 14.8 1.5-.3 1.3-15.4-.2-15.9-.7-.3-1.6.3-1.9 1.1m13.8 1.8c.5 3.2 2.8 3.5 2.8.4q0-2.6-1.6-2.6-1.5 0-1.2 2.2m1.2 7.3c-.4.9-.2 2.1.4 2.7 1.5 1.5 4.4.1 4-1.9-.4-2.3-3.6-2.9-4.4-.8m1.8 7.2a2.4 2.4 0 0 0 4.6 0q.6-1.8-2.3-1.7-2.9-.1-2.3 1.7m-3.8 6.8c-.4.9-.2 2.1.4 2.7 1.5 1.5 4.4.1 4-1.9-.4-2.3-3.6-2.9-4.4-.8m-14.7 1.8c-.3.8-.2 2.9.3 4.8.8 3.7 1.9 2.5 2.3-2.6.2-2.9-1.7-4.6-2.6-2.2m25.6.4c-1.8.6-1.6 6.8.1 8.2 1.9 1.6 3.1-.4 2.7-4.4q-.4-4.9-2.8-3.8m11.9 12c.4 2.2 4.3 2.5 4.3.3 0-.8-1.1-1.6-2.3-1.8q-2.7-.6-2 1.5m-11.5 3c-1.4 1.4-.6 3.4 1.7 4.3l2.5.9-.5 21.4c-.4 18.1-.2 21.6 1 22.6 2.2 1.9 3.7.4 2.9-2.7-.7-3-.7-4.3.2-11.9.6-4.8.8-5.1 3.3-5 3.7.3 3.7-2.7 0-3.1-3.1-.4-3.4-1.6-2.2-13 .5-4.7 1.1-6.1 2.5-6.5 2.1-.6 2.6-3.5.7-4.2-.7-.3-2.8-.6-4.6-.8a9 9 0 0 1-4.4-1.5q-2-2-3.1-.5m-11 1c-1.3 1.2-.7 4.4.9 5 2 .7 4.5-2.2 3.7-4.3-.5-1.4-3.5-1.9-4.6-.7M460 640c0 2.4 2.9 3.8 4 2 1.2-1.9.1-4-2.1-4q-1.9 0-1.9 2m-7.8 20.2c.2 6 .7 10.3 1.3 10.3.9 0 2.4-17.3 1.7-19.5q-.4-1-1.8-1c-1.2 0-1.4 1.8-1.2 10.2m9-8.6q.4 1.8 2.2 2.2t1.4-1.4-2.2-2.2q-1.9-.5-1.4 1.4m3.2 3.5c-.9 1.5 1.2 3.3 3 2.6q1.5-.7 1.6-2.2c0-1.7-3.5-2.1-4.6-.4"/><path d="M481.2 655.7c.4 2.2 4.3 2.5 4.3.3 0-.8-1.1-1.6-2.3-1.8q-2.7-.6-2 1.5m14.9-.3c-1.6 1.9-.6 3.6 2 3.6q2.2.1 1.7-2.2c-.4-2.7-2.1-3.3-3.7-1.4m-21.7 7.1c-.7 1.8.3 3.5 2.1 3.5 2.1 0 2.8-1.9 1.5-3.5q-2.5-2.8-3.6 0m3.8 11.2q.4 1.6 1.8 1.8c1.4.2 1.6-.8 1.8-1.8q.4-1.7-1.8-1.7c-2.2 0-2 .5-1.8 1.7m4.3 5.3q.6.9 1.1 1 .4-.1.4-1-.1-1-1.1-1-.8 0-.4 1m-28.3 2.7c.5 2.6 3.8 2.9 3.8.4q0-2.2-2.1-2.1-2 0-1.7 1.7m-3.7 4.3q-.5 1 .5 2.6 1.3 1.7 2.6.3 1.6-1.2.3-2.5-2-2.5-3.4-.4m4.7 8.2c.7 1.9 3.8 2.2 3.8.4q-.1-1.5-2.1-1.6-1.9 0-1.7 1.2m-2.8 10.2q-.5 1.7.4 2.8 1.1 1.3 1.8-.6.5-1.7-.4-2.8-1.1-1.3-1.8.6m24.1 1.5c-.8 1.5.3 3.1 2.1 3.1q1.4-.1 1.2-1.7c-.4-2-2.4-2.8-3.3-1.4m-25.1 7.2c-1 1.7 1.3 3.6 2.7 2.2 1.2-1.2.4-3.3-1.1-3.3q-.9.1-1.6 1.1m26.6.4q0 1.5 1.8 1.3c2.1-.4 1.9-2.2-.2-2.6q-1.5-.3-1.6 1.3m-5.7 4.7q.5 1.2 1.7 1.3c1.2.1 1.5-.6 1.8-1.3q.2-1.1-1.8-1.2c-2-.1-2 .5-1.7 1.2m5.1 6.9c-.8 1.4 1.1 3.3 2.5 2.5a3 3 0 0 0 1.1-2.2c0-1.6-2.6-1.9-3.6-.3m-9.9 8.8c-.7 1.2 1.2 2.4 2.5 1.6 1.1-.7.4-2.5-1-2.5q-.8 0-1.5.9m2 7.1q-.6 1.1.3 2.2 1 1 1.7-.2t-.3-2.2-1.7.2m0 62.5c-5.4 2.5-6.6 3.9-5.9 7.3.6 3 .6 3-4.7 3.6-9.1 1.2-10.9 1.7-11.9 3.7-.8 1.4-.6 2.3 1 3.9s3.3 2 8.6 2c5.6 0 6.5.2 6.2 1.7q-.6 3-9.4 3.2c-2.5.1-5.1.9-6.5 2-2.2 1.8-2.3 2.1-.8 3.6 1.1 1.1 3.7 1.7 8.9 1.8q7.2.2 7.7 1.4c.4 1.2-.8 1.6-7.8 2.8q-8.3 1.2-6.4 6.2c1.4 3.9 4.8 3.8 5.5-.2.4-2.4 1.2-3.1 4.3-3.8q4-1 5 .2c.7.7 1.3 5.6 1.5 11.6.3 8 .7 10.5 1.8 10.5q3 .2 2.1-14c-.5-6.5-.3-8.9.6-9.2.6-.3 6.2-.6 12.2-.7 11.6-.3 15.9-1.6 15.3-4.9q-.8-4-18-4.1c-12.5-.1-15.1-2-3-2.2 12.7-.3 13.5-.3 13.9-1.7.5-1.2-9.6-1.9-18.4-1.3q-3.4.3-3.3-1.3c0-2.2.7-2.4 12.5-3.1 11.7-.7 12.9-1 11.9-2.7q-.7-1-12.5-.3c-10.5.6-11.9.5-11.9-.9 0-1.2 1-1.6 4.4-1.6q7.8 0 7.6-2.6c0-.9-1.5-1.2-5.7-1.1-5.6.2-5.8.1-6.1-2.5-.4-3.2 1.5-4.4 7.3-4.9 5-.5 5.9 1.4 1 2.1s-4.9 2.3 0 3.1c7.1 1.2 11.4-4 6.3-7.5-2.8-2-9.3-2-13.3-.1m-6 15.6c0 1.7-8.2 2.6-9.8 1-1-1-.6-1.1 5.8-2.4q4.2-1 4 1.4m-1 12.9c.6.9-.6 1.2-7.5 1.4-4.8.3-4.4-.9.5-1.5l5.7-.7q.7-.1 1.3.8m26.3 3.4c2.3.8 3 2.6 1 2.6l-11.6.5c-9.4.4-10.3.3-10-1.3.2-1.3 1.7-1.8 6.8-2.2 7.9-.6 10.8-.5 13.8.4"/><path d="M473.2 844.2q-2.4 2.5.3 4.8c2 1.7 4.7-.5 4.3-3.4-.4-2.4-2.8-3.2-4.6-1.4"/></svg>