<svg xmlns="http://www.w3.org/2000/svg" width="666.7" height="1170.7" viewBox="0 0 500 878"><path d="M219.3 11.6q-1 2.8 3.7 3.6c2.4.3 2.5.6 2.8 9 .3 8.7.3 8.8-2.1 8.8-3.2 0-5.2 2.3-3.4 3.9 1.7 1.3 40.5 1.2 41.4-.2s-1.3-3-5.4-3.6l-3.8-.6v-17l3-.3c1.7-.2 3.6-.9 4.3-1.4 3.1-2.6-1.1-3.3-20.4-3.5-16.6-.1-19.6.1-20.1 1.3m17 7.1c.3 2.1.4 6 .4 8.8-.2 4.3-.5 5-2.3 5.3-1.9.3-2.1-.3-2.7-7.3-.6-8.7-.2-10.5 2.3-10.5q1.9-.2 2.3 3.7m10.2 5.3c0 7.8-.2 8.5-2 8.5s-2-.8-2.3-7.4c-.3-8.6.1-10.4 2.5-9.9 1.6.3 1.8 1.5 1.8 8.8m176.9 60.7c-.3 1-1.2 3-2 4.5a8 8 0 0 0 0 8.8c1.3 2.2 1.2 2.7-1 4.6-2.9 2.8-4 6.9-2.3 9 .9 1.1 2.2 1.3 5.1.9l3.8-.7v4.4c0 2.6.8 5.5 2 7.3 2.6 4 2.7 10.5.2 10.5-1 0-2.9 1.1-4.1 2.4-3.1 3.2-4.1 13.4-1.8 17q1.6 2.2 1.6 9.7c-.1 4.1.3 12.8.8 19.4.8 11 0 40-1.2 43.4q-.5 1.5-2.6-1.3c-2.1-2.8-3-2.6-5.6-2.6q-3.5 0-6.5-2.5c-4.3-3.6-5.6-3.2-6.3 1.9-1.1 6.8 1.6 12.6 5.7 12.6q1.6 0 1.8 1c0 .5-1.1 1-2.4 1-3.9 0-5.7 3.8-4.3 9.2q1.4 5.9 9.3 1.4a22 22 0 0 1 6.4-2.6c3.8 0 4.1 1.9 2.9 19.6-.8 11.4-1 30.5-.5 58.9.4 23.1.7 42.7.6 43.5l-.1 4.4c0 1.6-.2 2.6-.6 2.2-1.4-1.3-3.3 1.9-3.3 5.6q0 12.8-13.6 9.8c-2.2-.5-8.5-1.1-14.2-1.5s-11.1-1-12-1.5-2.5-1.1-3.5-1.4c-1.6-.5-1.8-1.6-1.7-8.8.3-11.4 2.1-26.2 3.3-27 .6-.3 2.1-.2 3.4.3 2.8 1 4.3-1.2 2.3-3.6-.9-1.1-.9-1.8.3-3 .8-.8 1.7-2 1.9-2.6q.5-1 4.1 1.4c3.3 2.2 4.2 2.4 7 1.5q5.8-2 5.7-4.2c0-1.4-5.7-7.6-9-9.7-1.9-1.3-2.2-1.9-1.4-3a36 36 0 0 0 2.9-15.8c-1-3.4-3.7-2.5-9.2 3.3q-5.2 5.4-5.8 8.9c-.7 3.3-3.4 7.1-3.6 5.1-.6-5 .5-62 1.4-71.9 1.1-13.3 1.2-16.7.7-43-.3-15 .1-17.7 3.6-24.7 3.5-6.7-.1-14.8-6.7-14.8-1 0-1.9-.5-1.9-1s2.6-1 5.9-1c5.3 0 6-.3 6.7-2.2 1.2-3.8-8.2-10.6-11.8-8.6-1.5.7-1.8.4-1.8-1.7 0-2.7-5.6-14-6.9-14-.4 0-2.1 1.6-3.8 3.5-3.8 4.3-5 9.1-2.9 11 2 1.6 1.1 3-1.8 3-5 0-6 4.2-2 8.9q4.1 4.9 9.6 2c2.9-1.6 3.2-.6.9 4a11 11 0 0 1-5.6 5.5c-4.2 1.8-7.7 7.1-7 10.6.3 1.4.7 11.5 1 22.5.2 11 .9 23.6 1.4 28s.7 8.2.5 8.5c-.7.6-3.6-1.4-4.5-3.1l-1.7-5.4c-1.8-7.2-4-12-5.4-12.3-.8-.2-2.7 1.6-4.2 3.9-2.6 3.8-2.8 4.7-2.1 10.5.8 7.3.6 8-1.6 7.6-.8-.1-3.1.8-5 2.1-6.7 4.5-2.7 12.3 6.2 12.1 3.3-.1 4 .2 4.5 2.1.3 1.2 2.1 3.8 4 5.6 2.4 2.4 3.4 4.2 3.4 6.4 0 2.5.6 3.5 2.6 4.4 2.5 1.1 2.6 1.5 2 5.9-.4 2.6-.9 21-1.2 41s-.6 36.8-.9 37.3-2.5.9-4.9.9c-3.2 0-4.8.6-6.6 2.5-2.4 2.5-5.8 2.8-8.4.6-1.6-1.3-18.4-8.3-30.6-12.8a58 58 0 0 1-11.5-5.2c-6.2-5.5-20.1-8.4-31-6.4-4.8.9-11.1-.3-15.3-3-1.7-1.1-1.6-8.3.2-9 .8-.3 2-2.5 2.7-4.9s2.7-5.7 4.6-7.4c3.1-3 3.2-3.4 2.7-8.5-.4-3-1.3-6.4-2.1-7.7a7 7 0 0 1-.7-5.6c.5-2.9.2-3.7-2-5.1-1.4-1-2.6-2.3-2.6-3.1 0-2.7-7.4-9.2-11.9-10.4-2.4-.6-5.6-2.1-7.2-3.2a18 18 0 0 0-7.8-2.6c-4-.4-5.9.1-10.5 2.4-3.1 1.5-5.6 3.4-5.6 4.1s-1.5 2.3-3.4 3.5c-4.2 2.8-8.6 9.6-8.6 13.5 0 1.8-.9 3.8-2.1 4.9-3.6 3.3-4.3 5.3-2.3 7.5 1 1.1 2.1 4.5 2.5 7.7.8 5.4.6 5.9-2.1 9.3-5 6.3-4.8 6.6 6.6 6.9 1.2 0 2.9 1.2 3.9 2.6s2.7 3 4 3.6c3.3 1.5 2.2 2.8-2.3 2.8-2.1 0-5.3.8-7.2 1.9s-7.1 2.8-11.4 4c-9.6 2.7-18.4 8.5-21 13.9a334 334 0 0 1-26.2 53c-7.3 11.1-8.2 14-7.3 24.5.8 8.6.3 42.8-.7 53.8-.3 3.5-.9 13.6-1.3 22.5-.5 12.7-1 16.6-2.4 18.7-1.9 2.9-2.3 8.7-.7 10.3q1 .9-.1 20.5c-1 16.9-1 19.8.3 22.4s1.6 10.7 1.7 52.2c.2 27.1.1 49.3-.1 49.4l-21.9 2.9c-1.5 0-1.6-4-1.5-43.8 0-24-.3-56.5-.7-72.2-.8-28.6-.9-90-.3-169 .5-56.2.1-50.7 3.1-51.4 3.3-.8 4.8-4.1 4.2-8.7l-.5-3.8 5.6.6c10.3 1.1 10.7 1 10.4-1.2-.7-4.1-2.8-7-5.2-7.3-2.6-.4-5.3-2.2-3.2-2.2.7 0 2.1-.9 3.2-2 3.4-3.4 2.2-15-1.5-15-1.7 0-7.9 5.7-8.7 7.9-.6 2.2-6.5 2.4-6.9.3-.2-.9-.3-23.5-.3-50.2.2-63.3 1.9-134.7 3.3-138.3.6-1.6 1.1-5 1.1-7.7 0-4.4-.3-5-3.6-6.9-4.4-2.6-3.6-4.5 1.1-2.6 2.9 1.3 9.5 1.1 9.5-.2 0-1.5-6.7-8.3-8.2-8.3-1.6 0-1.8-.5-1.3-3.4.7-3.7-2.4-11.2-5.1-12.3-2.1-.8-4.3 1.4-5 5.3-.5 2.6-1.5 3.9-4.8 5.6q-4.2 2.4-4.4 4.9c-.4 3.6 2.3 6.2 5.7 5.4 4.2-1.1 4.3-1.1 4.8.2q.3 1.2-1.4 1.9c-5.2 1.7-9.5 4-10.4 5.5q-.9 2 .2 11.4a65 65 0 0 1-.6 21.8 246 246 0 0 0-1.4 41.2c.4 28.5.4 29-1.6 28.7-5-.9-7-2.7-7.6-6.9-1-8.1-7.4-11.1-9.3-4.6-.7 2.7-1.4 3.3-3.8 3.3q-2.8.1-6.3 3.2l-3.5 3.3 3 3.2c1.8 1.9 4.1 3.3 5.4 3.3 2 0 2.4.6 3 4.9.4 2.7 1.2 5.1 1.9 5.4 1.9.7 10.5-4 11.1-6.1.4-1.1.4-2.7 0-3.6-1-2.7 4.2-2.1 6.1.7 2.8 4.3 4 25 4 67.2 0 37.1-.4 51.8-2.5 91-.4 8.2-.6 40.6-.3 72 .6 70.3.4 171.5-.3 172.6-.2.4-.3 13.2-.2 28.3a265 265 0 0 1-.5 28.3c-.5.4-6.2.9-12.7 1.1-10 .3-13.2 0-20.2-1.9a59 59 0 0 0-30.3-.5C2.4 697.6-.7 698.7.7 700.1q1 1 11.4-.7a60 60 0 0 1 28.4.1c4.8 1.2 11.5 1.8 21.2 2 7.7.2 14.6.6 15.2 1q1 .8.7 2.3c-.3 1-.6 15.4-.7 32.2s-.3 34.7-.6 39.8l-.5 9.2-2.2-2.2a13 13 0 0 1-2.9-4.1q-.6-1.9-3.4-1.5c-3.6.4-4.1 2.6-.9 3.8 1.5.5 2.6 1.7 2.6 2.8 0 1.5.5 1.8 2.5 1.4 2.1-.4 2.5 0 2.5 1.9q0 2.5.9 1 .8-1.1 1.4-.4c.5.8 1 16.3.8 24q0 2.3-3.6 3.7c-1.9.8-3.5 2.2-3.5 3 0 3.2-3 4.6-10 4.6-8.9 0-11.7 1.1-13.5 5.4-.9 2.1-3.4 4.8-6.2 6.8-4.8 3.3-4.8 3.3-15.8 3.1-6-.1-13.9.3-17.5 1-5.5 1-6.5 1.5-6.8 3.4-.3 2.1-.1 2.2 3 1.5 1.8-.4 8.8-.7 15.4-.7 10.2 0 12.5.3 14.1 1.7 1.1 1 3.3 1.8 5 1.8q5.2-.2 10.9 12.4c3.7 8.1 7.4 10 7.4 3.8 0-3-4.4-11.3-6.6-12.5-.8-.4-1.4-1.9-1.4-3.2s-.4-2.7-1-3-1-1.3-1-2c0-3 4.5.3 7 5.1 2.1 4.1 3 4.9 5.3 4.9 3-.1 3.3.6 1.6 3.4-1.5 2.2-.4 8.5 1.8 10.7 1.3 1.3 1.4 1.7.3 2.4s-1 1.5.5 4.4c1.5 2.8 2.6 3.6 4.7 3.6 3.5 0 3.6-1.6.2-6.5q-2.5-3.7-1.5-4.8c1.4-1.4 5.7 1.6 6.6 4.5 1.5 4.9 4.4 6.8 10.4 6.8h5.6l-4.3-2.6A18 18 0 0 1 78 869a14 14 0 0 0-4.8-5.4A37 37 0 0 1 64 848c0-2-5.9-9.8-9.5-12.6q-5.5-4.2-2.2-4.4c.7 0 2.6 1.8 4.3 4 3.6 4.9 6.4 5.3 6.4.9q-.2-3.4 1.6-2.5l2 .6c1 0 .2 2.9-1.1 4-.8.7-1.5 2-1.5 2.9q0 1.9 2.3-1.2 4.4-5.1 3.3-.2-.6 2.5 1 5c1.3 2 1.4 3.1.5 5.6-1.4 4-1.5 3.6 1 4.9q2.3 1.6 1.7-.6c-.5-3 1.9-2.6 3 .6.9 2.4.8 3-.4 3-2.7 0-1.4 1.9 2.6 3.6 3 1.3 4 2.4 4 4 0 2.5 2.1 4.5 2.8 2.6q.4-1.1 1.4-1.2.9.1.4 1.6c-.7 1.8 1.1 9.4 2.2 9.4q.8 0 2-1.2t1.2-.1c0 1.1 2.8 1.1 8 1.1 4.4 0 8-.3 8-.8a19 19 0 0 0-4-4.4c-2.3-2-3.8-4.1-3.5-4.6q.4-.8-.9-.4c-1.7.7-9.6-5.3-9.6-7.3q-.2-1.2-1.5-1.3c-1.3 0-1.4-.4-.5-2s.5-3-1.5-6.7c-1.4-2.6-2.5-4.4-2.5-3.9q-.2.7-2-.9c-1.8-1.6-2-2.4-2-3.2q0-1.2-.7-1.3c-.5 0-2.3-2.2-4.2-5a18 18 0 0 0-5.2-5.5q-1.7-.7-1.2-2.1c.7-1.8 2.9-1.8 3.7.1.5 1.5 5.2 1.8 7.1.4.7-.5.9-7.9.6-21.1-.7-30.2-.6-58.5.2-128.3.4-34.7.8-83.9.8-109.5L82 468.5c0-30.3.2-59.5.5-65 2.3-45 2.8-62.3 3.1-99 .2-23.1.5-43.6.6-45.5.2-1.9 0-4.5-.4-5.8s-.5-4.2-.1-6.5l.6-4.1 1.3 4.5c.8 2.4 1.3 4.8 1.2 5.4-.1.5.2 2.2.6 3.8.5 1.5.4 3.3-.1 4s-1 8.6-.9 18.1l.1 16.9 3 1c3.9 1.3 4 1.4 2.5 3.2-.7.8-2.3 1.5-3.6 1.5-4.9 0-3.8 4.3 1.1 4.5q2.3.3 2.3 1.1-.4.8-1.1.6c-1.4-.4-4.7 1.9-4.7 3.4 0 .8 1.3 1.7 3 2.1q6.9 1.3.1 4.1c-5.3 2.2-5.6 5-.5 4.6 3.3-.2 3.5-.1 3.2 2.4-.2 1.5-.9 2.7-1.7 2.7s-1.9.7-2.4 1.7c-1.4 2.1.7 5 2.9 4.1 1.2-.4 1.5.1 1.2 2.8q-.4 3.2-1.5 3.2c-1.8-.4-3.8 3.6-2.4 5 .5.5.7 2.3.4 4-.5 2.4-.1 3.3 1.8 4.8l2.4 1.9-2.4 1.9c-2.4 1.9-2.2 4.1.5 4.1 2.1 0 1.7 3.1-.5 3.7-3.1.8-3.4 3.2-.6 4.3 3.6 1.4 3.2 4.4-.7 5.5-3.8 1.2-4.3 3.6-1.1 5 2.9 1.2 3 2.9.3 2a4 4 0 0 0-3.5.5c-1.2 1-1.2 1.6.3 3.8.9 1.5 2.1 3 2.6 3.4q.8.7-.7 1.4c-2.1.8-2.2 4-.1 4.8.8.3 2.6.3 4 0q2.3-.6 2.4.5c0 .6-1.3 1.1-2.8 1.1a10 10 0 0 0-4.7 1.3c-2.8 2.1-.9 3.9 3.9 3.5 3.5-.2 4.1 0 4.1 1.7q0 2-2.2 2.3c-4.7.7-5.4 5.2-.8 5.2 3 0 4.3 1.8 1.8 2.6q-4.8 1.4-4.9 3.5c0 .8-.5 2.2-.9 3.3-.9 2 .8 3.6 3.8 3.6 2.7 0 1.5 2.4-1.4 2.8-1.3.2-2.8.8-3.3 1.2-1.3 1.3 1.3 4.1 3.5 3.8 2.5-.4 2.9 1.6.4 2q-5 1-2.1 4.1c1.6 1.7 1.6 2 .1 2.8-2.3 1.3-.8 4.3 2.2 4.3q2.4 0 1.7 1.1c-.3.6-1.5.9-2.5.6-2.1-.6-3.3 2-2.3 4.7q.6 1.7 2.5 1.1 2-.6 1.9.9c0 .8-.9 1.8-2 2.1-2.7.8-2.5 3.4.2 4.4l2.2.8-2.2 1.2c-2.7 1.5-2.9 4.1-.2 4.8 2.5.7 2.6 2.1.3 3q-4.8 1.7-.7 4.9l2.6 2.1-3.1.6c-5.4 1.1-5 6.1.4 5.4q1.9 0 2.3 1.5.4 1.7-2.5 2-2.9.2-3.1 2.5c-.3 2.3.4 2.7 4.1 2.4 1.5-.2 1.7.7 1.7 6.1-.1 6.1-.1 6.2-1.5 3.6-2.2-4-5.5-2.8-5.5 2.1 0 2-.4 4.1-.9 4.6s-.7 2.9-.4 5.3c.7 4.9 3.1 6.9 6.3 5.2 2.2-1.2 2.2-1.2 2.3 2.7.1 2.8 0 2.9-5.5 3.2-3.9.2-.9 5.3 3.2 5.5 2.5.1 2.6 2.1.1 2.1-1 0-2.5.6-3.5 1.4-1.5 1.3-1.5 1.5 0 3.2 1 1.1 1.4 2.7 1.1 3.9a10 10 0 0 0 .7 5.2c1.2 2.9 1.4 2.9 2.4 1.2s1.1-1.4 1.2 1.7q0 3.8-2.1 5c-2.4 1.7-1.7 4.9 1.2 4.9 2.3 0 2.6 3.2.4 5q-2.9 2.5 0 5 3.3 2.9-1.2 5.2c-3.8 1.9-3.9 4.6-.2 4.4 2.5-.2 2.9.1 2.9 2.4 0 1.4-.5 3.1-1.2 3.8q-1.4 1.2 0 2.4c1.7 1.7 1.5 6.7-.3 7.4-2.1.9-1.9 3.2.5 3.9s2.6 3.7.5 5.5q-3 2.3.2 4.6c1.7 1.2 1.7 1.3-.3 1.4-2.5 0-4.9 2.4-3.9 4 .3.5 1.7 1 3.1 1 1.3 0 2.4.4 2.4 1s-.9 1-1.9 1c-1.1 0-2.3.5-2.6 1-.9 1.5 1.4 4 3.5 4 1 0 2.1.7 2.4 1.6.9 2.5.8 2.7-1.8 2-2.7-.7-4.9 1.3-3.7 3.3.9 1.5-.5 4.8-3.2 7.5-1.5 1.5-1.7 4.1-1.6 22 0 19.3.4 23 2.5 22.5.5-.1 1.8.1 2.9.5l3.3 1.2c2.1.6 1.3 3.4-1.3 4.4q-2.5 1-5-.2c-1.4-.6-2.8-.9-3.1-.5-1 1 .6 2.7 2.6 2.7 1 0 2.2.4 2.5 1s1.5 1 2.5 1c3 0 3.4 1.9.6 3-3.3 1.2-3.3 2.8-.1 4q2.3 1 2.5 2c0 2-3.2 2.3-6 .6-3.1-1.8-5.4-2.1-4.5-.6.3.6 1.5 1 2.5 1 1.1 0 2.5 1 3.1 2.2s1.9 2.8 2.7 3.4q1.3 1.1.9 2.2-.7 1-4.8-1c-2.3-1-4.3-1.7-4.5-1.5-.8.7 2.6 3.7 4.1 3.7q1.3.2 2 1.9c.3 1.1 1.2 2.2 2 2.5q1.3.6 1.5 1.5c0 1.3-5.5 4.2-7.1 3.9q-1-.2-1.6.8-.2 1.1 4.2 1.8c4.7.7 6.3 2.6 2.2 2.6-1.3 0-2.7.3-3.1.7q-.8.8-1.7.8c-2.2 0-.6 2.1 2.4 3.1l3.2 1.1-3.8 1.2c-3 1-3.7 1.7-3.2 3.2q.6 1.8-.4 1.9c-1.8 0-1.2 2.9.8 4 1.1.5 3.4 1 5.1 1q3.1 0 2.7 1.2-.4 1.3-5.5 1c-4.2-.3-5.3 0-5.8 1.3q-1.6 3.6 7.4 3.5 5.5 0 5 1.2t-5.1.9c-4-.2-4.6 0-4.1 1.4.8 2 3.6 3.5 6.8 3.5q2.7-.1 2.6 1.9c0 1.7-.4 1.8-2.9 1.1-1.5-.4-3.8-1.3-5-1.9-2.2-1.2-2.9-.3-1 1.6q1.2 1.1 0 1.7-2.7 1.6 1.5 6.1l2.6 2.8-3.3-.7c-3.2-.6-3.2-.6-1.4 1.4a16 16 0 0 0 5.1 3.2c1.9.7 3.4 1.8 3.4 2.5 0 1.7-.4 1.7-5.2-.7-4.9-2.3-7.1-2.6-4.3-.4 1.7 1.2 1.8 1.7.7 3.5s-1.1 2.3.7 3.6c3 2.1 2.7 4.3-.6 4.3l-2.8.1 2.8 2.2c3.3 2.8 3.4 3.5.4 3.9-2 .3-1.9.5 1.3 2.6l3.5 2.2h-3.1c-3 0-3.1.2-3.7 5.1-.4 2.9-.3 5.7.1 6.3s.7 1.8.8 2.6l.3 3.7c.1 1.5 1.1 2.4 3.9 3.1q4.3 1 1.2 1.1-5.4.4-4.4 3.4.5 1.6-.6 1.7t-.6 2.4c.5 1.9-.1 2.9-2.9 5-1.9 1.5-3.5 3.4-3.5 4.2 0 1.8 4.6 3.7 7.1 2.9q1.8-.6 1.9.4.2 1 1.5 1.1c1.3.1 1.5-.7 1.5-1.5 0-4.3 5.6.4 10.1 8.5 1.3 2.3 3 4 4 4s2.1.4 2.4 1 2.4 1 4.6 1c4.3 0 4.6.4 2.4 2.6-2 2-.9 4.1 2.9 5.4 2.4.7 6 .7 12.7 0a63 63 0 0 1 34.4 3.1c8.7 3.2 24.5 12.5 24.5 14.4 0 1.2 1.6 1.5 7.5 1.5 4.1 0 7.5-.3 7.5-.7s-2.8-3.7-6.1-7.5c-6.6-7.4-7.2-9.9-1.3-5.2 7.5 6 8.6 6.5 10.5 4.8 1.3-1.1 1.6-2.5 1.2-5-.3-1.9-.2-3.4.2-3.4 2 0 9.8 7.6 11.6 11.3l2.1 4.2-3.2-3.8c-3.3-3.9-6.6-4.8-7.7-2.1-.3.9.6 2.7 2.3 4.5 2.5 2.6 3.4 2.9 9.1 2.9 3.5 0 6.3-.3 6.3-.7a40 40 0 0 0-11.2-16.8c-3.5-3.1-5.6-5.3-4.8-4.9 1.8.9 11.3 7.6 12 8.5 1.9 2.4 9 3.9 9 1.9q.2-1 2.3-1c1.3 0 2.7-.4 3.2-.9 1.2-1.1 5.5.4 5.5 1.9q-.1 1-1.4 1.6c-2.1.8-1.5 4.2.7 4.8 1 .2 2.1 1.4 2.4 2.5s1.4 2.1 2.4 2.1c2.3 0 2.5-2.6.3-3.8q-1.6-.9-.9-2.1.6-1.4 2.2.8c1.8 2.6 3.3 2.7 3.3.2 0-2.1-3.3-3.3-6.8-2.4q-2 .4-2.2-.6.1-1 1.5-1.1c2.4 0 1.8-1.9-1.6-4.7-1.6-1.4-2.6-3-2.2-3.4 1-1 5.3 0 5.3 1.2q.2 1 2.5 1.9c2.3.9 2.8 1.8 3.2 2.7.3 1 1.5 2.6 2.7 3.6 1.9 1.6 1.9 1.8.5 3-1.9 1.4-3.7 6.3-2 5.3.6-.4 1.8-2.1 2.7-3.7.8-1.7 2-2.9 2.6-2.7 2.1.7 2 2.6-.1 4.7-2.4 2.4-1.4 2.8 1.5.6 2.5-1.9 4.4-1.9 4.4.2 0 1.5.1 1.5 1.9-.1 1.6-1.5 1.9-1.5 3.1-.1.7.9 2.9 1.5 5.1 1.5 4.3 0 4.8-.6 2.2-2.6q-1.6-1.2-1-2c1-1 5.7 1.6 5.7 3.3 0 .9 1.7 1.3 6.1 1.3 3.7 0 5.8-.4 5.4-1q-.7-.9-1.6-1c-2 0-7.6-4.5-7.2-5.8.5-1.4-1.3-1.6-2.2-.2q-.7 1-1.6.4t.2-2c1.6-1.9.4-3-1.6-1.4-1.3 1-2.2.8-5.8-1.6a56 56 0 0 1-7.3-6.1c-1.8-1.9-4.2-3.3-5.5-3.3a51 51 0 0 1-13.9-3.9c-1.4-.7-3.3-2.6-4.3-4.2-2.4-4.2-6.1-3.7-6.5.8-.2 1.8-.5 3.3-.6 3.3-.2 0-2.6-2-5.2-4.5-8.1-7.4-13.7-5.5-6.3 2.1 3.6 3.7 4.1 4.6 2.9 5.4q-1.4.9-1.8 0c-1.8-5.3-24.7-21.9-30.2-22-2.9 0-7 2.5-7 4.3 0 .6-1.2 2.1-2.7 3.3-2.2 1.7-2.5 2.5-1.6 3.5.9 1.1.8 2-.6 3.7-1.6 2.2-1.8 2.2-5.3.8-3.6-1.5-3.6-1.6-2.2-4.4 1.1-2.3 1.9-2.8 3.7-2.5 2.9.6 5.2-2 4.1-4.4-.4-1-.8-2.1-.8-2.5q-.2-.6-1-1.5c-.8-.9-.6-.3-.2.4.9 1.7-.1 1.6-10.6-.6-4.8-1-9.2-1.5-9.9-1.1-2.3 1.5-.1 3.6 5 4.9 2.8.7 5.1 1.7 5.1 2.3q.2.8 2.1.3c1.8-.6 1.9-.5.7 1.4-1.3 2.2-9.1 5.1-13.5 5.1-2 0-2.2-.4-1.7-2.9.6-2.7.2-3.2-4.2-6-2.7-1.7-6-3.4-7.4-3.7s-5-1.4-8-2.4c-6.9-2.3-8.8-2.6-12.4-1.7s-6.6-1.5-6.6-5.5c0-3.9 4.1-5.6 17.2-6.8 10.3-1 11.3-1.4 12.4-5.7.6-2.2.8-2.2 23-2.2 20.3 0 22.8.2 27.1 2 6.4 2.7 20 2.4 23.3-.6q3.3-3.2.5-9.8c-.6-1.4-.2-1.7 1.9-1.7 1.5 0 4-.7 5.7-1.5 2.8-1.5 3.1-1.5 5.9.7 1.8 1.4 2.9 3.3 2.9 4.9.1 1.4 1.2 3.8 2.6 5.3 2.4 2.6 2.9 2.7 8.3 2 3.1-.3 6.2-.9 6.7-1.3.6-.3 2.6-1.1 4.5-1.6q3.4-1.1 3.9-3c.2-1.1 1-2.9 1.8-4l1.5-2-.6 2c-.9 3.2.8 4.9 4 4.1 1.6-.4 8.8-1.2 15.9-1.7 18-1.2 18.5-1.3 20.4-3.6q1.5-2.1 6.1-2.2c2.5 0 6.8-.6 9.5-1.2 6.7-1.4 19.7-.8 20.3 1q.5 1.3-1.5.7c-4.4-1.4-9.3-.9-11.6 1.1-1.8 1.6-2.9 1.8-5.7 1.2-5.7-1.3-15 2-10.4 3.8 1.6.6 1.6.7-.1 1.9-2.5 1.8-1.2 3 5.3 5 3.2 1 4.9 1.9 4 2.1-2 .5-2.3 1.8-.7 2.8q1 .5 2.4-1.1c.7-1.1 1.7-1.5 2.1-1.1q.7.8-.6 1.7c-1.3.8-1.3 1.3-.1 3.2s1.2 2.4-.8 3.6c-1.1.8-2.1 2.3-2.1 3.3 0 2.5-1.8 3.3-3.8 1.7-.9-.7-2.8-1.9-4.2-2.7q-3.5-2.2-.8.6 3.9 4.1-1.2 2.8c-2.6-.6-3-.4-3 1.4q0 2-1 2.1t-1 2.2c0 2 .1 2 1.8.5q4-3.8 1.6 1.3-3 6.2-6.3-1c-1.1-2.2-1.5-3.7-.9-3.4q.8.4-.4-1.5t-2.3-1.9c-.5.1-2-.4-3.3-1.1-4.9-2.6-7 1.4-3.2 6.2 2.5 3.1 2.5 3.7 0 3.7-1.1 0-4.4-2.5-7.3-5.5q-5.4-5.6-7.8-5.5c-4.4 0-4.1 1.3 1.3 6.1 5 4.4 5.2 4.8 3.9 7.2-1.4 2.7-.8 6.1 1.7 8.9 1.7 2 3 2.2 5.2.8 1.2-.7 1.2-1.2 0-3.4-2.2-4.2-.2-4.2 4.1 0 3.5 3.4 3.9 4.3 3.4 7.1q-.6 3.1.5 3.3.9.2 1 1.5c0 1.7-1.7 2-2.2.4q-.3-1.2-4.1.4c-2 .9-3.7 1.8-3.7 2.1 0 .8 10.3 7.4 14.1 9a30 30 0 0 1 7.4 5.5c3 3.1 4.7 4.1 7.1 4.1q6.4 0 6.4-2.6-.2-2.6-2.9-.1-1.6 1.4-.7-.1.5-1-.3-1.2c-1.7 0-1.3-1.9.9-4.7 2.6-3.3 2.6-4.7 0-3.1-1.1.7-2 1.8-2 2.4s-.7 1.8-1.6 2.5c-1.4 1.1-2 .9-4.4-1.8a15 15 0 0 0-4.9-3.8c-2.4-.7-2.9-4.5-.6-4.5.8 0 2 .9 2.7 1.9 1 1.7 1.4 1.8 3.4.5a9 9 0 0 1 5-1.2c2.6.3 3-.1 3.8-3.5.8-3 1.3-3.6 2.9-3.1q1.8.6 5.8-2.6l4-3.1 3 2.5c3.5 3 7.4 3.3 10.1.9 1.5-1.4 4.1-1.8 12-1.9 10-.2 10.1-.2 12.5 2.7 1.9 2.2 3.3 2.9 5.9 2.9 3.1 0 3.4.2 2.4 1.9q-2.2 4.5.8 3.8l3.1-.8q1.4-.4 1.5 1.8.3 2.1 4.3 5.2c2.2 1.6 4.9 4.4 5.9 6 1.5 2.5 2.5 3.1 5.1 3.1 3.3 0 3.3 0 1.8-2.4-1.5-2.2-1.4-2.4.5-2.9q1.9-.5 2-2.6c0-2.3-5.6-9.1-7.4-9.1s-4.6-3.3-4.6-5.5c0-1.7-.1-1.7-1.8-.2-2.3 2.1-3.9 2.2-2.2.2 1.1-1.3.9-2-1-4-1.3-1.4-2.1-2.8-1.7-3.1.8-.9 12.9 2.4 19.3 5.2q10 4.3 2.9 4.4c-2.7 0-3.7.5-4.3 2.1-.7 1.7 0 3 3.6 6.4 4.3 4.2 4.4 4.4 2.8 6.6-2.8 4.1-1.8 5.5 1.4 1.9 1.6-1.9 2.9-3 3-2.3 0 .6-.4 1.5-1 1.8s-1 1.3-1 2.1c0 1 1.4 1.4 5.4 1.4 5.3 0 5.5-.1 6.1-3.2.6-2.6.3-3.4-1.6-4.9-1.3-1-2.9-1.9-3.6-1.9-2.1 0-2.5-2-.8-3.7q1.7-1.6 1.1-4.5c-.3-1.5-.3-3.5.1-4.4.5-1.3 3.1.9 11.4 9.6 9.3 9.7 11 11.1 12.4 10q1.4-1.2 1.5-2.1c0-.8-4.6-5.9-19.3-21.6-6.4-6.8-7.7-8.6-6.7-9.8 2.2-2.6-10.7-10-14-8q-2.8 1.6 2.6 4.2c2.9 1.4 3.2 1.8 1.7 2.4q-1.9.5-4.6-1.3a20 20 0 0 0-9-2.5q-6.2-.5-8.4-2.6c-4.6-4.1-7.4 1.3-3 5.7 1.9 1.9 3.2 2.2 6.8 1.9 5.3-.4 7.9.8 6.1 3-1 1.2-2.1 1.3-5.5.5-5.2-1.3-5.6-1.3-8.8-.5-2.2.6-2.9.1-4.7-3.1-1.5-2.8-1.8-4.2-1-5.5.8-1.5.3-2.5-2.7-5.3q-3.7-3.4-5.9-3.2c-3.3.5-3.1 3.5.5 6.9l3.3 3.1-2.4 1.9a11 11 0 0 1-3.3 1.9c-2 0-2.5-6.4-2-27.7l.6-23 9.6-.6a50 50 0 0 0 13.9-2.3c4-1.6 4.3-1.6 6.2.1 1.6 1.5 2.3 1.6 3.3.6q1.4-1.2-.3-2.2c-3-1.9 4.7-6.1 8.7-4.7.4.2.6 1.9.5 3.8-.3 5.3 1.8 7.3 8.6 8.1 4.3.5 6.1.3 7.4-.8 1.4-1.3 1.9-1.3 4 .1 1.3.8 3.9 1.7 5.8 1.8 2.9.3 3.5 0 3.5-1.7s-1.5-2.5-7.2-4.4c-6.8-2.4-7.3-2.4-9.1-.8q-6.3 5.6-6.2-9V769c-.3-12.5.3-33.7 1-38.5.5-3.3 1-16.4 1-29 .1-12.7.4-28.9.8-36.2l.7-13.1 2.4 1.9 2.4 2-2.2 1.5c-1.7 1.2-1.9 1.9-1.1 2.9 1.1 1.3 2.1 1.5 8.3 1.5 2.3.1 2.8.5 2.5 2.3q-.3 2.2-2.8 2.5c-1.4.2-2.9.8-3.4 1.2-1.4 1.4 1.3 4 4 4q2.3 0 2.4 1.5c0 1.7-1.3 1.9-5.7.6-2.5-.7-3.3-.6-3.8.7q-.4 1.6.9 2.8 3 2.2.1 2.4c-2 0-2 6.7 0 10.7 1.9 3.8 1 12.7-1.1 11.9q-1.4-.5-1.4 1.9c0 1.4.4 2.4.9 2.2q.8-.1.9.8t-1.5.7q-1.7-.5-.8 1.5c.5 1 .8 3.2.7 5-.2 2.5.3 3.3 2 3.9l2.3.7-2.1.8c-1.8.6-2.3 1.9-2.9 8.4-.4 4.2-.4 7.9-.1 8.2.3.4.6-.5.6-1.8s.5-3.1 1-3.9c1.1-1.7 1.2-.8 1 11.3-.1 7 .1 7.8 1.7 7.5 2.4-.4 3 3.8.9 6.1-1.5 1.6-1.5 1.9.2 3.5 1.1.9 2.6 1.4 3.5 1.1 1.7-.7 3.2 1 2.2 2.5q-.6 1-2.2.1c-2.6-1.4-5.3-.1-5.3 2.5q0 2.3-1.5 2.4c-2.2 0-1.8 2.8.5 4 2.5 1.3 7.2.9 7.7-.6.2-.7-1-1.7-2.7-2.2q-5.8-1.9.2-1.7c3.1 0 3.3.3 4.1 4.5.5 2.8.4 5.6-.2 7.2-.9 2.5-1.3 2.6-4.1 1.7-3-1.1-3.2-3.2-.3-2.7q1.5.2 2-.9c.5-1.4-6.4-4.6-8.3-3.9-1.8.7-.5 4.6 1.5 4.7q2 0 .1.6c-1.5.6-3 2.3-3 3.5 0 .9 10.2 3.8 13.4 3.8q2.6 0 2.6-1.8c0-1 .4-2.2.8-2.8s.5-6.3.1-12.9c-.8-12.8-1-59.7-.3-58 .2.6 10.1.9 27.2.8 23.4-.1 26.7-.3 27-1.7.4-1.8-1.4-2-23-1.7-9.7.2-13.8-.1-13.8-.9q.2-1 2.3-1c1.2.1 10.4.2 20.5.1 15.5-.1 18.4-.3 18.9-1.6q.5-1.5.2-1.9a649 649 0 0 0-30.2.2c-29.3.7-29.7.7-29.7-1.3 0-1.9.7-2 10.3-2 8.9 0 11.1-.4 17.1-2.8 5-2.1 7.7-2.7 10-2.2a36 36 0 0 0 15.7.6q3.1-1 5 0c1.6.8 1.9.6 1.9-1.1 0-2.9-4.2-4.7-7.5-3.2a19 19 0 0 1-14.1-.4c-4.1-1.6-4.3-1.5-11.5 1.7-6.2 2.8-9 3.4-17.2 3.8-5.5.4-10.1.3-10.3-.1-.7-1.1-.3-22.7.6-36.3.5-7.2 1.2-24.7 1.6-39 .3-14.3.8-26.3 1-26.6s.4-8.4.5-18c.2-15.9.5-23 2.4-50.9.4-5.2.5-23.2.4-40l-.4-57.7v-27.2l2.6-2.8c3.3-3.5 4.2-8 4.3-21.3.1-10.3.1-10.5-2.5-11.7-2.6-1.3-2.6-1.5-3.1-13.7-.7-17-.4-18.2 4.3-20.7 2.1-1 4.6-3 5.5-4.4a5 5 0 0 1 4.4-2.5c2.7 0 6-2.6 6-4.8 0-.6-1.2-2-2.7-3.2-2.4-1.9-2.7-2.8-2.8-8.3s-.2-6.2-2.1-6.5c-3.4-.5-7.4 3.4-7.4 7.3q0 3.6-2.1 4.5c-1.1.7-2.3 1-2.5.8-.2-.3 0-4.2.5-8.9.6-5.8.5-8.8-.3-9.8q-1-1.3-.8-21l.7-52.6c.4-34.5 1.1-56.5 2.1-67.5.5-6 .3-6.9-2.4-11.1-2.2-3.4-4.1-5-6.9-5.9-4.6-1.6-5.3-2.4-5.3-7.3 0-2.1-.7-5.1-1.5-6.7l-1.6-3h3.4c5.9 0 9-6.3 4.7-9.3-2-1.4-1.9-1.4.5-2.5a6 6 0 0 0 3.1-3.8c.9-3.7-3.2-7.4-8.2-7.4-2.9 0-3.4-.4-3.4-2.3 0-3.1-4.2-10.1-6.3-10.5q-1.6-.2-2.3 1.5m3.6 9.9q0 2.3-1 1.9c-1-.4-1-1.5-1-2.6q.1-1.7 1-1.9c.6 0 1 1.2 1 2.6m11.5 7.4q-.2 1.3-1.8 1.8c-2.1.4-4.9-1.6-4.1-3 .9-1.5 5.9-.5 5.9 1.2m-2.5 6.5q-.2.5-2 1.5c-1.6.9-2 .8-2-.5q.2-1.3 2-1.5c1.8-.2 2 .2 2 .5m2 5.5q0 .9-1 1a1 1 0 0 1-1-1q.1-1 1-1t1 1m-335.5 5q.4.9-1 1c-1.4.1-1.3-.5-1-1q.6-1 1-1t1 1m-13.8 24c-.2 8.3-.7 15.3-1 15.7s-.7-.9-.7-2.8-.7-5.6-1.5-8.3-1.3-6.4-.9-8.2c.3-1.8.1-3.5-.5-3.8-1.4-.9-1.4-5.6-.1-5.6.6 0 1.4 1 1.9 2.2.8 2.2.9 2.1 1.5-1 .4-1.7 1-3.2 1.2-3.2.3 0 .3 6.8.1 15m4.3-12q0 .9-1 1a1 1 0 0 1-1-1q.1-1 1-1t1 1m4.8 10.1c-1.4 4.1-2.8 3.6-2.8-.9q.1-7 2.6-3.7 1.4 1.6.2 4.6m-4.8-1c0 1.6-.4 2.9-1 2.9s-1-1.6-1-3.6q0-3.3 1-2.9c.6.3 1 1.9 1 3.6m339.3 8.3c-.3 4.1-.2 6.8.3 6.3 1-.9 1.1-1.4 1.3-5.2q.2-2.3 1.1-2.5c1.4 0 1.3 6.3-.2 7.8s-2.1 10.9-.8 11.7c.6.3 1 3.3 1 6.5s.3 6.5.6 7.4c.5 1.4.8 1.4 3-.1 2.2-1.4 2.4-1.4 2.4.4a5 5 0 0 0 1.1 3q1.1 1-1.5.6c-2.3-.5-2.6-.2-3.2 3.6-.4 2.3-1 4.1-1.5 4.1-1.7 0-3.1 4.1-1.9 5.5 1.4 1.6.5 3.5-1.6 3.5-1.1 0-1.4-2.1-1.6-10.8 0-5.9-.3-12.1-.5-13.7-.2-1.7-.4-7.1-.4-12 0-6.3-.5-9.7-1.5-11.3-1.4-2.2-1.4-2.6.2-4.3s1.6-2.4.6-3.9q-2.2-3.7 0-5.8c2.4-2.4 3.7 1.4 3.1 9.2m11.7.4c0 1.5-.5 3.4-1 4.2q-1 1.8-1-3.3 0-4.7 1-4.2c.6.3 1 1.8 1 3.3m-77 6.3c0 1.7-2.2 2.1-3.7.6q-1.5-1.4-.8-3.8l.8-2.3 1.8 2.3c1.1 1.3 1.9 2.7 1.9 3.2m-279 9.5c0 2.5 2.4 3.1 2.6.6l.3-1.8c.2-1 3.5 3.7 4.9 6.9q3.2 7.6-1.9 2.8c-4.4-4.5-8.2-4.2-10.3.6l-1.6 3.8.3-4.5c.1-2.7.6-4.4 1.3-4.3s1.5-1.3 1.8-3.2c.8-4.1 2.6-4.7 2.6-.9m289.5-.6q.4.9-1.5 1c-1.9.1-1.8-.5-1.5-1q.6-1 1.5-1 1.2 0 1.5 1m-16 2c1.1 1.8-.5 3.1-2.6 2q-1.7-1-1.4-2.1c.8-1.2 3.2-1.2 4 .1m15 12c.4.6-.7 1-2.4 1q-3.1 0-3.1 1.5c0 1.3-3.7 4.1-4.5 3.3-.2-.2.7-1.8 2.1-3.6 2.5-3.2 6.6-4.3 7.9-2.2M96.2 188.2q-.8 3.2-2.8 3.7c-1.8.3-1.8.2-.1-1.6a8 8 0 0 0 1.7-4c0-2.2 1.3-4 1.8-2.5.2.6-.1 2.5-.6 4.4m265.3 5.7c.4 3.9.4 7.4.1 8a42 42 0 0 0-.4 16.3c.8 2.3 1.3 2.6 2.4 1.7q1.5-1.5 1.4 1.6 0 3-1.5 2.1c-2-.7-1.9 2.2 0 4.8.8 1.1 1.5 3.4 1.5 5.1 0 3 .2 3.2 4 3.1q4-.1 4 1.1-.2 1.2-2 1.3c-2.8 0-3.6 2.7-1.6 4.9q1.8 1.9.7 2.6c-1.6.9-1.3 3.6.4 4.9 1.2.8 1.4 2.2.9 5.8-.4 2.7-1.1 4.8-1.5 4.8q-.8-.1-.9-1.1 0-1.2-1.6.2c-.9.7-1.4 2.2-1.1 3.6q.4 2.3-1.2 3.3c-1.4.8-1.4 1.2-.2 3.1 2 3.4 2.1 6.7 0 7.2s-1.9 5.5.2 6.8l3.4 2.2q3 2-.8 1c-3-.6-4.8 2-2.8 4 1.5 1.5 1.4 4.2-.4 5.7q-1.5 1.3-1.5 6.6c0 3-.4 5.4-.9 5.4s-1.2 1.9-1.5 4.2c-.7 4-.8 4.2-2.2 2.4-1.6-2.3-1.8-15.4-.4-28.1l1.6-15.7c.7-7.8 2-11.6 3.1-8.9q.6 1.4 2.4-2.4t1-5.2c-.4-.8-.5-3.3-.1-5.5s.6-5.7.3-7.8c-.5-3.3-.8-3.7-3.5-3.8-1.7 0-3.3-.4-3.7-.7a335 335 0 0 1-1-41c.3-1.7.3-3.9-.1-5-.8-2.1.4-5.5 1.9-5.5.5 0 1.2 3.1 1.6 6.9m6.5-5.9q0 .9-1 1a1 1 0 0 1-1-1q.1-1 1-1t1 1m0 9.7q0 2.8-1 1.7c-.6-.6-.8-1.8-.4-2.7q1.4-3.6 1.4 1m-273 .4c0 .5-1 .9-2.1.9-1.8 0-1.9-.2-.9-1.5 1.2-1.5 3-1.2 3 .6m-11 2.8q0 1-1 1.6-.9.4-1-.9.1-1.5 1-1.6 1 0 1 .9m349.4 6.4c-.4 2.2-.1 2.9 1.6 3.5 2.1.8 2.1.8-.5 2-3.3 1.5-3 4.3.5 5.3q3.4.8.3.8c-1.2.1-2.8.4-3.7.7-1.4.5-1.5-.4-1-7.2.3-4.4.8-8.6 1-9.4.9-2.6 2.5 1.2 1.8 4.3m-337.8 1.4c-1.1 1.1-1.9-.6-1.1-2.4s.8-1.7 1.2 0c.3 1 .2 2.1-.1 2.4m-6.7 11.5c-.4 12 .1 13.8 3.2 13.8q1.7 0 1.9 1-.2.9-1.9 1c-3.1 0-5.1 1.1-5.1 2.8 0 1.5-.2 1.5-1.5.1-1.2-1.1-1.7-4.5-2-13.3-.3-11.2-.3-11.7 1.6-11.1 1.6.5 1.9.1 1.9-2.4 0-1.7.5-3.1 1.1-3.1q1-.1.8 11.2m5.9.5c-.4 8.3-2.4 9.7-3 2.1-.5-6.5 0-8.8 1.9-8.8 1.1 0 1.3 1.4 1.1 6.7M442 219q0 .9-.4 1-.5-.1-1.1-1-.4-1 .4-1 1 0 1.1 1m-3.9 5c3.6 0 4.9.4 4.9 1.4q0 1.6-3.9 1.4c-2.2 0-4.3.2-4.9.6a38 38 0 0 0-.3 16.1c.5.3.9 2.7.9 5.5.1 3.7-.3 5-1.4 5-1.9 0-1.8 2 .4 3.6 1.5 1.1 1.5 1.6.4 3.4-1 1.6-1 2.5-.2 3.5q1.3 1.3-.5 1.9c-1.7.6-2 4.2-.4 5.1.8.6.8 5.6 0 9.2q-.2.2-1.5-.3c-1.7-.6-2.8 4.1-1.6 7 .9 2.2 1.4.9 1.1-2.7q0-1.5.8-1.7c1.4 0 1.4 7.7.1 8.5-1.7 1 .8 4.5 3.3 4.5 1.2 0 2.9.5 3.7 1q1.8 1-3 1c-5.2 0-7.6 1.6-5.9 3.7.7.7 2 1.3 3.1 1.3q1.6 0 1.3 1c-.3.5-1.7 1-3.1 1-2.7 0-2.8.3-1.4 3.1.6 1 2.1 1.9 3.3 1.9 1.8.1 1.6.3-1.1 1.5-3 1.3-3.3 1.8-2.7 4.4.4 1.7.1 3.8-.6 4.9-1.1 1.7-.9 2.8.7 6.3q1.8 4.3 1.6 8.7c-.3 3.3 0 4.7 1.5 5.7 1.7 1.3 1.7 1.4-.2 2.9-1.8 1.3-1.8 1.7-.6 3.7q1.4 2.4.2 2.7-1 .4-1.1 1.8.1 1.3 1 .9t2.3.3c.7.6 2.5 1.2 4.2 1.4q3 .3 3.3 2.2c.4 1.6 0 1.8-2.7 1.3-3.6-.8-6.1 0-6.1 1.8q-.1 1.3-1.5 2.5c-1.4 1.2-1.5 2.5-1.5 4.1s-.5 3.1-1 3.4q-1 .7-.9-5.2c.1-3.2-.2-17.1-.8-30.8-.9-23.2-.8-43.7.2-64.5 1-22.2 2.3-46.5 2.4-46.9q.3-.2 1.7.3c.9.3 3.8.6 6.5.6m-28.1 3q0 .9-1 1a1 1 0 0 1-1-1q.1-1 1-1t1 1m-351.9 2.5c0 .5-1.2 1.1-2.6 1.3q-2.6.4-2.5-1.3c.1-1.7.7-1.5 2.5-1.3 1.4.2 2.6.7 2.6 1.3m314.9 2.2q.1 1.9-1.5.3-1.3-1.2-.9-2.1c.8-1.3 2.4-.1 2.4 1.8m51 3.9c0 4.2-.1 4.5-2.2 3.9-1.3-.4-3-1.4-3.8-2.2-1.3-1.3-1.2-1.7 1.5-3.9 1.7-1.3 3.3-2.4 3.8-2.4s.7 2.1.7 4.6m-358.4 3.3c-.8 1.3-3.6 1.5-3.6.3q0-.8 1.2-2c1.4-1.4 3.4 0 2.4 1.7m377.7 1.4q-.6 2.6-1.3 1.7c-.9-1.5 0-6.4 1.1-5.3.4.4.5 2.1.2 3.6m-3.6-.1q-.5 1.1-.6-.6t.5-1.3q.5.6.1 1.9m-95.5 2.2c.7 3.3-.7 5.5-1.5 2.4q-1.3-4.8.2-4.8c.5 0 1.1 1.1 1.3 2.4m68.6-1.2c-.5 1.6-4.8 2.4-4.8 1 0-1.1 1.7-2 3.8-2.1q1.3 0 1 1.1m-320.4 7.9c-.9 1.5-3.4 1-2.8-.5q.6-1.3 2-.9 1.2.6.8 1.4m351.3-.7c.8.7-2.3 3.6-3.9 3.6-.9 0-1.1-3.4-.2-4.2.7-.8 3.1-.4 4.1.6m-92.6 6.7q1.8 1 1.4 2c-.7 1.1-4.5-.7-4.5-2.1 0-1.3.7-1.3 3.1.1m12.3-.3q.3.8-.5 2.2c-.8 1.3-1 1.3-1.8 0-1-1.5-.6-3 .9-3q.9.1 1.4.8m-25.8 3.3c.3.6-.1 1.8-.9 2.7-1.4 1.3-1.8 1.3-3.2.2-1.6-1.3-1.5-1.5.1-2.7 2.2-1.6 3.1-1.6 4-.2m103.4 1q.1 2.2-1.6 1.5c-.9-.3-2-.6-2.5-.6-1.6 0-1-1.8.9-2.3 3-.8 3.2-.7 3.2 1.4m-88.2 2.9h3.3l-.5 6.7c-.3 3.6-.8 6.9-1.1 7.2s-2.3-1.3-4.5-3.4a16 16 0 0 1-4.6-7.9c-.7-3.8-.6-3.9 1.7-3.3 1.3.4 3.9.7 5.7.7m-259.2 4.2c.1 1.5-.3 3.3-.7 4q-.9 1.4-.9-.9c0-1.2-.7-2.8-1.5-3.7q-3.2-3 .8-2.4 2.3.1 2.3 3m346.9-.2q2.8 1-.7.9-2.6 0-2.8-.9c0-1.2.8-1.2 3.5 0m.5 8.5c0 1.6-3.5 2.1-4.4.6-.8-1.2.4-2.1 2.6-2.1q1.7.1 1.8 1.5m.8 8.8q.5 1.8-2.1 1.7-4.2.1-3-2.6c.7-1.8 4.7-1.1 5.1.9M92 285.9c0 1 .7 2.4 1.5 3.1 2 1.6 1 3-2.2 3-2.1 0-2.4-.3-1.9-2.3.3-1.2.6-3.2.6-4.5q0-2 1-1.7c.6.3 1 1.4 1 2.4m113.2 7.3c-.6.6-1.5.8-1.9.4q-.6-.7.7-1.6c1.9-1.2 2.7-.3 1.2 1.2m40.3 9.6c-6.3 6.1-33.6 13-46.4 11.8q-10.4-.9-8.1-4.6c.8-1.2 1.1-1.2 2.8.3 2.5 2.3 17.3 2.3 25.1.1 11.6-3.4 20.7-6.6 24.1-8.3q7.6-4 2.5.7m-40.5-.4c0 1.6-1.8 3.1-2.7 2.2-.8-.8.5-3.6 1.7-3.6q.9.1 1 1.4m164.5.6q-.6.9-1.6 1-.8-.1-.9-1 .1-1 1.6-1 1.3 0 .9 1m88.5 5q-.1.9-1.1 1-.8-.1-.4-1 .6-1 1.1-1 .4 0 .4 1m-91 2q0 .9-1 1a1 1 0 0 1-1-1q.1-1 1-1t1 1m75 0q-.2.9-1.7 1-2.2.1-.3-1c1.9-1.2 2-1.2 2 0m-193.8 9.3c-.9 1.8-2.1-.9-1.5-3.3l.7-2.5.6 2.5c.4 1.4.5 2.9.2 3.3m193.5-2.1q-.5 1.1-.6-.6t.5-1.3q.5.6.1 1.9m-8.1 1.5c-1 1-1.9-.5-1-1.8q.8-1.7 1.2 0 .3 1.2-.2 1.8m-45.8 1.5q-2.1 6.5-3.4 3.5c-.6-1.8 2-6.7 3.6-6.7.5 0 .4 1.4-.2 3.2m-27.2.7c-.3.4 1.6.7 4.2.6 3.8 0 4.7.4 5 1.8q.6 2.2-1.5.9c-2-1.1-6.3.1-6.3 1.7 0 .5 1 1.3 2.2 1.7l2.1.6-2.3 1.8c-2.1 1.5-2.2 2-1.1 3.4.7.9 2.6 1.6 4.2 1.6s2.9.4 2.9 1q-.1.9-1.9 1c-1 0-2.5 1-3.3 2.1a5 5 0 0 1-4.1 2.1c-2.3 0-2.7.4-2.5 2.2.2 1.7 1.1 2.2 4.6 2.4 3.7.3 4.4 0 4.9-1.7.7-2.7 3.3-2.7 3.3-.1q0 2-2.7 3c-4.5 1.6-5.8 2.7-5.5 4.3.1.9-.7 2.1-1.9 2.7-1.9 1.1-2.1 1.8-1.5 5.8q1 8.3 6.8 8.2 2.9 0 2.6 1.2-.6 1.2-1.6 1.4l-2.7.3c-2.1.1-3.1 3.1-1.4 4.2.8.4 2.4.6 3.6.2 1.9-.4 2.3-.1 2.3 1.6q0 2.1-1.9 2.1c-4.7 0-6.7 3-3.9 5.8q1.3 1.2.1 1.2c-1.7 0-1.1 32.9.7 34q1.5.8-.9 1.9c-2.5 1.4-2.8 3.9-.5 4.8 1.3.5 1.2.8-.6 2.5-1.5 1.4-1.8 2.3-1.1 3.6.5 1 .9 2.4.9 3.2-.3 4 .4 6.1 2.4 8 1.9 1.7 1.9 2 .5 2q-1.8 0-2.3 3c-.4 1.6-1.1 3-1.5 3-.5 0-1.8 1.4-2.8 3-1.6 2.7-2 2.9-3.1 1.5-.7-.9-1-2.8-.6-4.7.7-4.3 1.1-44.2.4-45.4-.3-.5-.2-9.5.3-19.9l1.5-37c1-27.3 1.5-31.2 3.5-29.9q.8.6.5 1.3m91.2 1.1c1.9 0 1.4 1.8-1 3.4-3.3 2.3-3.8 2-3.8-2.6 0-3.9.1-4 1.8-2.5 1 1 2.4 1.7 3 1.7M114 329.6q0 3.5-1.2 3.2c-2.4-.8-2.2-6.8.2-6.8.5 0 1 1.6 1 3.6m256-.6q0 .9-1 1a1 1 0 0 1-1-1q.1-1 1-1t1 1m22.8 5.2q2.4 2.6-.3 2.8-1.4 0-1.5-.4l-.6-2c-.7-1.9.7-2.1 2.4-.4m44.2-.2c0 .6 1.1.8 2.5.4 2.8-.7 3.5 1 .9 2-2.3.9-5.4-.2-5.4-2q.1-1.3 1-1.4 1 .1 1 1m-57 3c0 1.2-2.8 2.5-3.6 1.7s.6-2.7 2.2-2.7q1.3.1 1.4 1m-159 2q-1 1.8-2.1 1.4-1-.6.2-2c1.7-2.1 3.1-1.7 1.9.6m15.4 1.6c1.1 2.9.6 6.2-1 6.8-.9.4-5.6.9-10.5 1.3-9.6.7-9.2.9-10.3-5.5-.3-1.8-.1-3.2.4-3.2q1 .2 1 1.5c0 1.3.3 1.5.8 1.6l3.2.6c5.3 1 7.9.5 11.2-2 3.9-3.1 4.4-3.2 5.2-1.1m-134.9 8.6c.5 4.9.4 5.8-.9 5.8s-1.6-1.3-1.6-6.7c0-7.9 1.5-7.4 2.5.9m-6.7-3.4q.2 1.2-1.3 1.8-3 1.2-1.9-2c.7-1.8 2.5-1.7 3.2.2m118.9 8.4q1.3 1 9.5-.1c14.3-2 15.8-2.1 15.8-1.4-.1.5-1.5 1.7-3.3 2.8a68 68 0 0 0-16.2 23.6 56 56 0 0 0-3.1 12c-1.1 12-1.2 12.1-4.5 11.4-5.4-1.2-8.2 3.7-3.2 5.6 2 .8 2.4 1.2 1.4 2.2q-1.2 1.2-2.2 1.3l-1.9.3c-2.1.2-1 4.2 1.5 5.1q2.3.9 2.5 1.5c.2.6-1.1 1-2.5 1.5q-4.5 1.8-.5 4c2.9 1.5 2.5 3.7-1.1 5.5q-5 2.7-.1 5c2.9 1.3 2.8 2.5-.2 2.5-1.3 0-2.9.7-3.6 1.5-1.7 2 .2 4.3 3.8 4.7 4.3.5 3.4 3.2-1.3 3.8-5 .6-5.3 2.9-.8 5 1.8.8 3.3 1.8 3.3 2.2 0 .8-2.3 1.2-4.8.9a4 4 0 0 0-2.8 1c-1.3 1-1.2 1.4.2 3 1 1.1 3 1.9 4.6 1.9q2.8 0 2.8 1.5c0 1.5-.8 1.5-2.2 1.4q-6.7-.6-7.5 1.7c-.8 2.2 2.3 4.9 5.7 4.9 4.8 0 3.4 1.8-1.5 2.1-2.5.1-4.8.4-5.2.7-1.4 1.5 1 3.8 5.2 4.8 6.1 1.5 5.7 2.9-.9 2.9-6 0-7.3.9-5.6 4 .8 1.5 2.1 2 5.5 2 2.5 0 4.5.4 4.5 1s-2 1-4.5 1q-4.7 0-5.1 1.5c-1 2.5 1.6 4.5 5.7 4.5 2.1 0 4 .4 4.3.9.9 1.3-1.4 1.9-5.1 1.3-2.4-.3-3.4 0-3.9 1.2-1 2.5 1.5 4.6 5.2 4.6 1.9 0 3.4.4 3.4.9s-1.6.7-3.5.4c-4.6-.7-6 2.1-2.5 4.7l2.4 1.8-3.9 1c-2.2.6-5.7 1.3-7.7 1.7l-3.8.6-.1-3.8c-.6-30.4-.3-74 .7-85.5.7-7.9 1.3-17.9 1.3-22.4a166 166 0 0 1 3.7-29.2c.7-2.4-1-5.2-3.2-5.2-3.9 0-6.5 13.1-7.1 36a2537 2537 0 0 0-.2 99c.5 11.1.4 12.7-1.1 14-1 .8-2.3 2.5-2.9 3.7q-1.2 2.1-2.6 2.3-1.4-.2-1.5-2.3l-.5-53c-.2-27.9-.6-51.1-.9-51.5-.5-.8.9-12.4 1.9-15.7q.6-2.1-1.3-3.8c-1.6-1.5-2.1-1.5-3.8-.3-1.8 1.4-1.9 3-1.9 35.8 0 18.9.3 47.1.6 62.8.6 27.2.5 28.7-1.3 31l-1.9 2.3-3.8-2.1-3.8-2.2-3.7 2.5-3.7 2.5.2-24.8c.1-19.5-.1-25.3-1.2-27-3.3-5.2-6.9-.7-5.8 7.2.8 6 1.2 24.2 1 43.8l-.1 12.7-4.7 2.1c-4.5 2-4.8 2-6 .3-3.3-4.5-4.2-17-2.4-32.8 2.2-18.2 4.2-67.8 2.9-70.6-1.2-2.7 2.9-13.3 8.6-22.2 3.1-4.7 5.6-8.8 5.6-9.1 0-.7 7.7-16.5 12-24.6 1.6-3 2.9-6.1 3-6.8a27 27 0 0 1 6.9-12 36 36 0 0 1 13.9-7.1c3.5-1 4.6-.9 6.4.3 2 1.4 2.4 1.4 4.5-.6 4.6-4.3 16.5-6.4 20-3.6M244 361c-3.5 2.8-5.8 2.6-4.7-.4.6-1.5 6.7-3.7 7.7-2.9.3.3-1.1 1.7-3 3.3m197 3q-.2.9-2 1c-1.8.1-2-.5-2-1q.2-1 2-1c1.8 0 2 .4 2 1m-205.6 6.6a43 43 0 0 0-8.2 16.1l-3 12.5c-1.2 4.2-2.6 13.8-3.2 21.4a162 162 0 0 1-1.5 14.3c-1 1-1.7-1.1-2.7-8.2-1-6.9-.9-7.9 1.7-15.3 1.4-4.3 3.1-11.3 3.6-15.4 1.4-11.5 4.2-18.8 9.4-24.5 4.6-5 7.2-5.6 3.9-.9m212.1-1.6c.3.5-2.3 2.2-5.8 3.8-7.4 3.4-8.8 4.9-6.2 6.8 1.5 1.1 2.3.9 5.6-1.2 2.1-1.3 4.5-2.4 5.3-2.4 2.4 0 .8 2.4-2.9 4.4-1.9 1-4.4 2.9-5.6 4.2-2.1 2.2-2.1 2.5-.6 4.2q1.6 1.7.7 3.2-.8 1.4.2 2.7c.8 1.1 1.7.9 4.4-.8 1.9-1.1 3.4-1.7 3.4-1.2 0 1.7-5.5 6.2-10 8.2-5.4 2.5-7 2.6-7 .6 0-2.8-4.4-2.2-7.5 1.1a10 10 0 0 1-2.8 2.4c-1 0-2.6-7.1-2-8.8.3-.9 1.6-2.8 2.8-4.2s2.5-3.8 2.9-5.4 1.5-3 2.6-3.3 3.1-2.4 4.4-4.7c3.1-5.3 4.6-6.6 10.5-8.7 5.5-2.1 6.8-2.2 7.6-.9m-96.9 22.7c-.5 13.3-1 17.1-2.3 18.5s-1.3 2.1-.4 3.2.8 1.5-1.1 1.8q-2.3.3-2.3 2.3c0 2.3-2 3.9-3.6 2.9s.3-10.8 4.5-23.9c1.8-5.7 2.2-8.3 1.4-9.2-.5-.7-1.4-1-1.9-.7s-1.8-.5-2.8-1.8l-1.9-2.3-1.8 3.2q-3.7 6.2-9 4.3c-2.3-.9-2.5-1.4-1.9-4.3.9-4.3 1.4-4.7 7.1-5.3 4.1-.5 5.3-.2 7.3 1.5 1.4 1.2 2.9 2 3.5 1.8 1.8-.6 1.9-3.7.1-5.7-1.6-1.8-1.5-1.9 1.2-2.3l3.7-.6c.5 0 .6 6.8.2 16.6m95.1-5.2c-1.5 1.4-3.3 2.5-4 2.5s.1-1.2 1.6-2.5 3.3-2.5 4-2.5-.1 1.2-1.6 2.5m-57 4.1c14.4.8 15 1 17.3 5.4 1.2 2.3 1.9 5.7 1.9 8.2q-.2 3.8-.6 2.1c-.6-3.2-2.9-4.8-4.8-3.3-1.2 1-1.8.9-3.1-.4-2.6-2.7-4.4-.3-4.4 6 0 3-.4 5.4-1 5.4s-1-2.8-1-6.4c0-4.5-.4-6.5-1.4-6.9q-3.6-1.6-3.7 8.2l-.1 6.6-1.2-5.5c-1.4-6.6-2.2-8-4.5-8-1 0-3.2-.7-4.8-1.5-3-1.5-3.1-1.8-2.8-7.3l.4-6q.4 0 2.5 1.3a29 29 0 0 0 11.3 2.1m-48.2 6.9c-.9 3.1-1.9 5.4-2.3 5.1s.3-3.4 1.3-6.7c1.1-3.4 2.1-5.7 2.3-5.1.1.5-.4 3.6-1.3 6.7m-8.5 4.9c0 .8-.4 1.8-1 2.1q-.9.4-1-1.4.1-2 1-2.1 1 .1 1 1.4m-101.2 4.5q.4 1.3-.9.9-1.2-.5-1.7-1.7-.4-1.3.9-.9 1.2.5 1.7 1.7m171.2 3.6c0 3-.4 5.5-.8 5.5s-1-2.5-1.1-5.5c-.1-3.2.3-5.5.9-5.5s1 2.4 1 5.5m-65.9.1q-.8 3.4-1 1.9c-.1-2.4 1-6.7 1.5-6.2.3.2 0 2.2-.5 4.3m98.7 2.6q-2 5 4 4.8c3.4 0 2.2 2.4-1.4 2.8-1.6.2-3.5.9-4.2 1.5-1.1.9-1.1 1.3.4 2.4 1 .7 2.8 1.3 4.1 1.3q2.4 0 2.3 2c-.1 2-.7 2-2.4 2q-5.4.1-5.6 2.6c0 1.7 5 4.3 7 3.6q1.3-.3.7.4c-.4.4-2.2 1.3-3.9 1.9-3.8 1.2-4.8 3.4-1.9 4.2 2.1.5 2.1.6.2 1.9-2 1.5-1.8 5.9.3 4.7q1-.4-.1.8c-2.3 2.4-1.6 4.9 1.5 5l2.7.1-3.2 1.4q-6.1 2.7-2.9 4.6c1.6.9 1.6 1.1-.1 2.4s-1.7 1.5.7 3.3q2.5 2 4.8 1.4c1.2-.3 2.2-.1 2.2.5 0 1.2-2.4 2.2-5 2.2-2.3 0-2.6.5-3.5 5.7-.6 3.8-.4 4.3 1.2 4.4q2.5-.1-.2.8c-2.5 1-3.1 7.8-.9 10.2 1.3 1.5 1.3 1.8-.2 3.4-1.6 1.5-1.8 4.3-2.1 22.4-.3 22.6 0 27.1 2.2 27.1 2 0 2 8.8.1 13.3-.7 1.8-1.4 7.2-1.5 11.9-.2 9.2.3 10.3 5.6 11.7 2.9.8 3.4 2.9.5 2.2q-6.6-1.7-7 1.6-.3 2.3 1.2 2.3t1.6 1q-.1.9-1.5 1c-1.4.1-1.6.7-1.6 1.5l-.3 2.7q0 1.2 1.7 1c1.4-.2 1.7.5 1.7 4.2 0 2.4-.4 4.6-1 4.8-.5.1-1.1 3.5-1.3 7.4s-.7 7.6-1.1 8.2c-.9 1.4 5.1 5.2 7 4.5 1.1-.4 1.4.9 1.4 5.8 0 5.8-.1 6.2-1.6 4.7-1.3-1.3-1.4-1.9-.3-3.6q2.6-4.2-4.2-4.5-3.4-.3-3.7 1.5-.2 1.7 1.2 1.8 1.5.2 1.6 1.5c.1 1.3-.8 1.5-1.9 1.5-1.6 0-1.9.8-1.9 6.2 0 5.9-1.6 12.7-2.8 11.6-.2-.3-.4-16.9-.4-36.9 0-34.9 1.4-68.3 3-70.4.5-.6.6-10.7.4-22.5l-.6-34.5c-.1-7.2.1-22.5.5-34s.8-25.8.7-31.7c-.1-9.7.9-14.1 2.4-10.3.8 2.1 2.6 1.9 2.6-.3 0-2.7 1.3-3.5 2.6-1.7q1.4 1.6.2 4.7m5.3-1.7c-.1 1.5-2.4 1.2-2.9-.3q-.4-1.4 1.2-1t1.7 1.3m-18.8 14.7c-.2 6.8-.5 36.6-.8 66.3-.2 29.7-.8 60.3-1.3 68s-.9 39.2-.9 70c0 54-.3 62.5-2.4 62.5-.6 0-2.7-1.1-4.7-2.5-4.4-3-6.5-3.1-10.8-.5-5 3.1-12.3 3.6-21 1.4l-7.4-1.8-.1-12.6c-.3-30.1.1-48.9 1.3-58.3.7-5.6 1.4-19.9 1.5-31.7.5-37.6 1.2-80.9 1.8-98.3.3-9.2.1-23.8-.5-32.5l-1.6-24.3-.4-8.6h3.2c6.7-.1 28.4-2.3 32.2-3.2 2.1-.5 4.3-1.4 4.9-2s2-1.1 3-1.1 2.1-.9 2.4-2c1.3-4.8 1.9-.1 1.6 11.2m-166.7-8.3a18 18 0 0 0 4.7 2.1c2.1.7 3.6 1.4 3.4 1.7-.9.8-8.4-1.7-9.7-3.2s0-2.1 1.6-.6m75.4 1.5a10 10 0 0 0 3.7 4.2c1.5 1 4 2.9 5.6 4.3a8 8 0 0 0 6.8 2.4l4-.2-.2 15.2-.3 31.7v24.5c-.1 4.4.3 13.2.8 19.5s.9 18.9.9 28c0 32.8-2.2 130.9-3 132.2-.2.5-1.8.8-3.4.8q-3 0-6 2.9a51 51 0 0 1-20.5 10.1h-3.2l-.7-8.3c-.3-4.6-.7-19.4-.7-33l-.1-24.6 4.7-4.5 4.6-4.5.1-8.8c.1-11.3 0-9.3 3.6-47.8.4-3.9.7-26.9.7-51.2.1-38.2.3-44.4 1.6-45.7 1.6-1.7 9.1-2.4 12.7-1.2 1.8.6 2.4.1 3.7-2.6 2.6-5.7 2.4-6.9-1.6-9l-3.6-1.9 2.4-2.4c5.9-5.9.2-7.9-9-3.3-2.2 1.1-7.2-.6-8-2.9-.4-.8-.3-7.1 0-13.9.6-9.5 1-12.4 2.1-12.4.7 0 1.8 1.1 2.3 2.4m38 1.6q0 .9-1 1a1 1 0 0 1-1-1q.1-1 1-1t1 1m-140 5.7q-.1 1-1 2.3-1.1 2-1-.8.1-2 1-2.2 1 0 1 .7m31.8 2.1q.4 1.4-1.4 1-1.5-.4-2.2-1.6-.4-1.4 1.4-1c.9.1 1.9.9 2.2 1.6m-11.6 3.9c1 .9 1.8 2.5 1.8 3.5 0 3.1-4.2 1.9-5.1-1.4q-1.4-6.1 3.3-2.1m-14.6 9.7c.8 3.2-.3 5.1-2 3.6-1.4-1.1-1-6 .5-6 .5 0 1.1 1.1 1.5 2.4m37.2.9c.3 2.5 0 2.8-2 2.5q-2.4-.2-2.6-3.1c-.3-2.5 0-2.8 2-2.5q2.4.2 2.6 3.1m-30.1 3.9q-.5 1-.5-1.2c0-2.2.2-1.9.5-1.3.2.7.2 1.9 0 2.5m-15.9 3.2q.4 1.8-1 1.4a3 3 0 0 1-1.6-2.2q-.4-1.8 1-1.4c.7.3 1.5 1.3 1.6 2.2m36.6.9c1.2 3.3-.3 5.2-3.3 4.2-1.6-.5-2.1-1.5-2.1-4.1 0-3.1.3-3.5 2.2-3.2q2.2.4 3.2 3.1m-11 8.7 1.2 4c.9 3.1-2.5 2.5-3.7-.7-1-2.8-.6-5.3 1-5.3q.9.2 1.5 2m105.3 2.2q-.5 1.1-.6-.6t.5-1.3q.5.6.1 1.9m-85.5 6.3c-.4 4.6-.6 4.9-2.7 4.2q-1.4-.7-1.5-4c0-3.8.7-4.9 3-4.4 1.1.2 1.4 1.3 1.2 4.2m100.8.5q0 .9-1 1a1 1 0 0 1-1-1q.1-1 1-1t1 1m-84.8 7q-.4 4.3-2.2 2.4c-1.2-1.2-.1-5.6 1.4-5.1.6.2 1 1.5.8 2.7m-26.1 0c2.8 1.5 2.5 4.3-.3 3.5q-4.6-1.5-3.4-3.4c.9-1.4 1.2-1.4 3.7-.1m36.9 3.1c0 2.4-1.6 3.2-4 1.9-1.9-1-2.7-4-1.4-5.3 1.1-1.1 5.4 1.6 5.4 3.4m69.7-3.5q-.7.5-1.9.1t.6-.6q1.8 0 1.3.5m-9.1 4.1c-1 1-1.9-.5-1-1.8q.8-1.7 1.2 0 .3 1.2-.2 1.8m-79.8 3.7q.6 3.3-1.3 2.2l-2.1-.6c-.2 0-.4-1.2-.4-2.6 0-3.7 3.4-2.8 3.8 1m80.2 8.1c0 3 .3 5.4.8 5.4q4.6-.7 1.3 2c-2.4 1.9-2.2 4.1.5 4.1 2.1 0 1.7 1.7-.6 2.3-2.7.7-2.8 6.7-.1 8.4 1.5.9 1.8 2.2 1.6 6.7-.1 3.1-.4 5.9-.8 6.2q-.5.8.4 2.5 1.1 2-.5 2.5c-1.6.6-1.2 6.2.6 9.7 1.2 2.3.1 3.7-1.2 1.7q-1-1.7-1 2.1c0 1.9.5 4 1.2 4.7.6.6 1.2 2.6 1.2 4.4.1 2.6.5 3.2 1.9 3q1.6-.2 1.7 1.3-.2 1.5-1.2 1.2c-.7-.2-2.1.2-3.1 1.1-.9.8-2 1.2-2.4.8s-1.1-11.4-1.5-24.4l-1.1-34.2q-.7-16.9 1.4-17c.5 0 .9 2.5.9 5.5m-43.8 0c.6 3-1.3 5-3 3.3-1.3-1.3-1.6-4.1-.5-5.1 1.4-1.5 3.1-.6 3.5 1.8m49.2-.4c-.6 1.1-2.4.2-2.4-1.1q.1-.8 1.5-.4 1.3.7.9 1.5m-58.4.3c.6.8 1 2.5.8 3.8-.4 3.2-4.2 3.2-4.6 0-.7-4.6 1.4-6.6 3.8-3.8m-35.2 1.8q2.7 3-1 2.6-2.1-.5-2.6-2.1c-.4-2 1.8-2.3 3.6-.5m171.2.9c0 2.4-2.3 2.1-2.8-.4q-.2-1.6 1.2-1.7 1.6.1 1.6 2.1M296.5 499q-.4.9.5 1.5 1.2.7 0 2a3 3 0 0 0-.4 2.9c.7 1.8-1.2 2.1-3.5.7-1.3-.8-2.4-6.8-1.5-8.2.2-.4 1.5-.4 2.9-.2q2.1.6 2 1.3m-8.7 1.8c.3 2 0 2.3-2 2a3 3 0 0 1-2.6-2.6c-.3-2 0-2.3 2-2q2.3.3 2.6 2.6m35.2.4c0 2.5-1.2 5.8-2.1 5.8-.5 0-.9-1.6-.9-3.5q0-3.5 1.5-3.5 1.4.2 1.5 1.2m115 .8q0 .9-.4 1-.5-.1-1.1-1-.4-1 .4-1 1 0 1.1 1m3 2.7c-.1 2.4-.2 2.6-1.1 1-.5-.9-.7-2.2-.4-2.7q1.5-2.5 1.5 1.7M314 516q0 3-1.5 3c-1.5 0-1.5-1-1.5-3s.5-3 1.5-3 1.5 1 1.5 3m-9.6-.4c1.6.6 2.3 7.3 1 8.7-1.7 1.6-3.4-.8-3.4-4.9 0-4.7 0-4.7 2.4-3.8m17.8 11.4c-.5 3-.8 3.4-2.1 2.5-.6-.3-1.1-1.7-1.1-3.1q0-2.7 1.8-2.2 1.8.3 1.4 2.8m-26.4-.8c1.4 1.4 1.6 7.8.3 7.8-2 0-3.8-4.6-3.2-8.3.2-1.1 1.5-.9 2.9.5m136.2 4.9c0 1.6-.4 2.8-.9 2.5-.8-.5-.3-5.6.5-5.6.2 0 .4 1.4.4 3.1m-339.4 7.6c-1 1-1.9-.5-1-1.8q.7-1.7 1.2 0 .3 1.2-.2 1.8m222.4.7c0 2.8-1.7 4.3-3.2 2.8q-1-1 .1-3.1c1.6-2.8 3.1-2.7 3.1.3m-10.2 5.1c-.3 1.1-5 1.2-9 .2-2.5-.7-4.3-3.1-3.3-4.7.7-1.1 12.7 3.3 12.3 4.5m134.3 1.8c-1.3 1.3-1.5-.1-.4-3q.9-2.6 1.1.1c.2 1-.1 2.3-.7 2.9m-74.1 3.6q0 1-1 1.6-.9.4-1-.9.1-1.5 1-1.6 1 0 1 .9m73 12.7q-.1 1.3-1 .9-1-.7-.5-1.6 1.4-2 1.5.7m-77 4.8c0 2.7-1.6 4.4-2.3 2.4-.5-1.8.3-4.8 1.4-4.8.5 0 .9 1.1.9 2.4m77.8 8.4q.5 1.4-1.9 1c-1.2-.1-2.4-.9-2.7-1.6q-.5-1.4 1.9-1c1.2.1 2.4.9 2.7 1.6m-77.8 3.3c0 1.7.6 3.2 1.5 3.5 1.2.5 1.2.9-.1 2.9-1.3 1.9-1.3 2.4 0 3.4.8.7 2.2 1.1 3.2.9q1.5-.2 2.2 1.1.5 1.5-1.1.8c-2.1-.8-5.7 3.3-5.7 6.6 0 1.4-.4 2.9-1 3.2s-1 1.9-1 3.6c0 1.6-.4 2.9-1 2.9s-1 1.3-1 3c0 3 .9 3.5 5.3 3.2 2.4-.2 2.1 1.4-.4 2.1-1.7.5-2 1.2-1.8 4.9.2 2.4-.1 4.9-.4 5.5s-.3 2.2.2 3.6q1 2.4-.1 3.5c-1.8 1.8-.1 3.9 3.6 4.6 4 .8 4 2.6 0 2.6-3.4 0-4.3 2.8-1.4 5 1.9 1.4 2 1.8.6 2.3-2.4.9-1.9 3.2.9 4.5q2.4 1.2 2.5 3.3c0 1.7-.5 2-2.5 1.7-2.1-.4-2.5-.1-2.5 1.9q0 2.3 2.3 3.3c2.2.9 2.2.9.1.9-1.8.1-2.2.9-2.7 4.8-.6 5.2.2 6.7 3.5 6.8q2 .1 2.6 1.3.5 1.5-2.4 1c-2.9-.3-2.9-.3-3 5.2 0 3-.6 6.5-1.2 7.8-1.4 2.4-1.4 2.4 4.1 3.6 1.5.4 2.7 1.3 2.7 2.2q.2 1.8-2.5 1c-4.1-1-6.5.9-6.3 5.2 0 2-.3 8.9-.7 15.2s-.4 11.1.1 10.7.9-4 1.1-7.9.6-7.5 1.1-8c.9-.9 8.2 1 8.2 2.2 0 .5-1.7 1-3.7 1.2-3.1.2-3.9.7-4.1 2.5q-.2 2.1.6 2.3c.8.2.7 2 .4 4.5-.4 4.2-.3 4.5 1.9 4.6h2.4l-2.3 1q-2.2 1-2 2.6c.1 1-.1 2.3-.5 3-1.3 2 .4 4.2 3.6 4.5 1.8.2 3.1.7 2.9 1.3q-.5.8-2 .6c-3.8-.8-4.7-.5-5 1.8-.2 1.3.1 2.8.7 3.4q1.2 1.2 1.1-.1c0-.6 1.3-1 3-.9s3 .7 3 1.3q-.1 1-2.4.7c-3.5-.7-4.4 1.6-1.5 3.8q2.8 2 .7 1.9c-.9 0-2-.5-2.3-1q-.7-1.2-2 0t-2-.7q-.8-2.3-1.6 2.2c-1 5.3-.2 9.1 1.9 9.1 5.6 0 9.2.5 9.2 1.2 0 .4-1.2.7-2.7.6s-3.6.3-4.5.7q-1.6.8-2.3-.1c-.3-.5-1.4-1-2.4-1-1.4 0-2 1.1-2.5 4.2-.4 2.4-.3 4.4.2 4.6s.7 1.4.4 2.7c-.3 1.8.4 3.3 2.5 5.4q2.9 2.9 2.2 4.3c-1.4 2.6.6 4.1 4.6 3.5q3.5-.6 3.3.4c-.6 1.7-9.6 1.9-10.9.3-1.6-2-3.4-1.7-4.5.6-1.8 4.1-1.7-65.7.2-86.8.3-3.5.7-12.6.9-20.3a92 92 0 0 1 1.1-15c.4-.7.8-17.4 1-37.3.5-47.1.9-54.8 3-56.3q3.4-2.6 3.4 2.8m78 10.9c0 .5-1.1 1-2.5 1s-2.5-.5-2.5-1 1.1-1 2.5-1 2.5.4 2.5 1m-1 7.3q-.1 3-2.6 2c-2.1-.8-1.7-3.3.6-3.3q1.8.1 2 1.3m-74 3.7q0 .9-.4 1-.5-.1-1.1-1-.4-1 .4-1 1 0 1.1 1m72.5 4q.4.9-.4 1-1-.1-1.1-1 0-1 .4-1t1.1 1m1 7a2 2 0 0 1-1.2 1.7q-1.2.3-1.3-1.7 0-2 1.3-1.8 1 .6 1.2 1.8m-69.5 3q-.1.9-1.6 1-1.3-.1-.9-1 .6-1 1.6-1 .8 0 .9 1m65.5 3q.4.9-.9 1-1.5-.1-1.6-1 0-1 .9-1t1.6 1m3.5 1q0 .9-.4 1-.5-.1-1.1-1-.4-1 .4-1 1 0 1.1 1m-72 5.1q0 .8-1 .9-.9-.1-1-1.6.1-1.3 1-.9 1 .6 1 1.6m-268.7 5.3c.6 1.6.2 24.4-.4 25-.2.2-1.4.7-2.6 1-2.2.7-2.3.4-2.3-3.8 0-3.3.6-5.2 2.1-6.7 1.8-1.8 2.1-3 1.7-9.5-.3-6.9.3-9.3 1.5-6m270 1.9q.6-.4.7.5c0 .7-1.1 1.2-2.5 1.2q-3.7-.2-1.8-2.3.6-.5 1.8.3c1.2.8 1.5.7 1.8.3m70.7 9.4c0 4.5-1.7 6.1-2.5 2.5q-1-5 1.6-5.2c.5 0 .9 1.2.9 2.7m-1.5 16.1q-.6.5-1.7-.6c-.8-.8-.7-1.9.3-4.4l1.4-3.3.3 3.9c.2 2.1.1 4.1-.3 4.4m-340 7.2q.5.9-.4 1t-2.5.6q-1.6.6-1.6-1c0-1.8 3.5-2.2 4.5-.6m.3 8.7c-.2 2.2-.9 2.9-3.2 3.1q-3.3.5-2.2-1.3c.3-.9.6-2.3.6-3.1q.1-1.3 2.6-1.4c2.2 0 2.5.4 2.2 2.7M365 683.4q0 .5-1 1.1-.9.4-1-.4.1-1 1-1.1 1 0 1 .4M346.5 695v7.3l-15.2.1c-11.3.1-15.3-.2-15.3-1.1 0-.7 1.7-1.5 3.8-1.9a90 90 0 0 0 23.3-11q3.5-4.5 3.4 6.6m21-6.1c1 1.7-1.1 2.1-3.1.6-1.8-1.4-1.8-1.4.3-1.5 1.2 0 2.4.4 2.8.9m43.4 7.1c2.4 1.7 4.8 3 5.3 3s.8 3 .8 6.6c0 6.1-.1 6.5-1.6 5.3-1.2-1-6.2-1.6-16.8-2l-15.1-.5 14.6-.2c11.2-.2 14.9-.5 15.8-1.6 2.2-2.6-1-3.1-21.4-3.1h-20l-.3-4.3c-.4-4.9-.3-4.9 8-2.6a16 16 0 0 0 10.3.5c2.5-.6 5.6-.9 6.8-.6q2.3.6 4.8-1.4c3.1-2.7 3.6-2.6 8.8.9m-288.7 5.5q1 4.5-2.4 2.4c-1.1-.6-6.1-.9-11.4-.7-11.3.4-12.3-1.3-1.3-2.4 4.1-.4 8.1-1 8.9-1.2 4.1-1.1 5.8-.6 6.2 1.9m-21.7 6.5q.4.9-.4 1-1-.1-1.1-1 0-1 .4-1t1.1 1m235.8-.3c-.7.2-1.9.2-2.5 0q-1-.5 1.2-.5c2.2 0 1.9.2 1.3.5m30 0c-.7.2-1.9.2-2.5 0q-1-.5 1.2-.5c2.2 0 1.9.2 1.3.5M123 711.6c0 4.1 4.2 7.9 9.9 8.8 3.7.6 4.1.9 4.1 3.4 0 1.5-.5 3.3-1 3.8q-1 1 .6 5c1.4 3.2 1.7 7 1.6 22.4l-.2 18.5 3.3 5 3.2 5 11.7.3c10.6.2 11.6.4 12.1 2.2.4 1.7 1.3 2 5.4 1.9 2.6-.1 8.2.3 12.3.8l7.5 1-4 1.8c-2.2.9-6.9 2-10.5 2.3-6.8.5-9.2 1.5-8.4 3.5.2.7-.5 2.7-1.6 4.4-1.6 2.8-2.6 3.3-5.7 3.3-10.7.2-13.8.9-16.3 3.9-1.9 2.2-3.6 3-7.5 3.5-2.7.4-9.2 1.6-14.2 2.8-8.6 2-9.4 2.1-11.1.5-2.5-2.3-7.8-3.2-9.7-1.7q-4.4 3.5-4.5-8.2c0-6.5.2-7.2 3-9.6 1.7-1.5 3-3.2 3-3.9q.1-1.2 3.8-1.3 7.8-.1 5.2-3.5c-1.1-1.3-1.1-2 0-4 1.1-2.1 1.1-2.7-.3-4.3-1.3-1.4-1.4-2.1-.5-3q1.3-1.2.1-2.3-1.1-1.2-1.7 0c-.4.6-1.6 1.1-2.7 1.1-1 0-1.9.6-1.9 1.3s-.9 2.2-1.9 3.1a11 11 0 0 0-2.6 4.4c-.7 2.5-.8 2.5-1.5.7-.8-2-1.7-17.6-2.5-41.2l-.6-14v-5.6l.1-4.7h4.6c3.8 0 4.5-.3 4.2-1.8q-.1-1.7-4.6-2c-2.4-.2-4.2-.8-4.2-1.5q0-1.2 6.7-1.2c6.2 0 6.8-.2 7.1-2.1s.9-2.1 5.3-2.1c4.8.1 4.9.2 4.9 3.3m253-2.7q-.2.8-2 .4t-2-.9q.2-.4 2-.4c1.8 0 2 .4 2 .9m6.7-.3q-.7.5-1.9.1t.6-.6q1.8 0 1.3.5m-48.8 3.5 12.3.1-.3 23.7c-.2 13 0 29.5.5 36.6.8 15.6.1 19-4.2 18.1a41 41 0 0 0-18.2.9c-4.9 1.3-6.8 1.5-8.2.6-1-.6-4.1-1.1-7-1.1-7-.1-11.9-1.2-19.8-4.6-3.6-1.5-9.4-3-13-3.4-6.8-.7-6.7-1 1.5-2.9 2.8-.7 7-2.2 9.5-3.4 4.4-2.1 4.5-2.3 5-7.7.4-4.9.8-5.5 3-5.8a10 10 0 0 0 4.6-2.3c1.2-1.1 2.8-1.7 3.7-1.3s2.8-.3 4.4-1.5l5.3-4.1c2.5-1.8 2.5-2.1 3-19.2l.5-17.3h7.2q11.4 0 6.9-3-1.8-1.4-6.6-.8c-2.7.3-5.6.3-6.5-.1-2.4-.9-.7-2.9 1.9-2.2 1.2.3 7.7.6 14.5.7m82.7 4.6c-.3 2.1-.6 7.1-.6 11 0 7.1-.1 7.3-2.5 7.3-2.3 0-2.5-.3-1.9-2.8a31 31 0 0 1 2.1-5.5c.8-1.6 1.2-3.5.9-4.3-.7-1.8-5.2-3.6-9.3-3.6-1.8 0-3.3-.4-3.3-1s2.2-.8 5.6-.5c5.1.4 5.6.3 6.4-1.9 1.5-3.9 3.4-2.9 2.6 1.3m-40.9-2.1q-.7.5-1.9.1t.6-.6q1.8 0 1.3.5m59.3.4q2 1.1-.2 1c-.9 0-2-.5-2.3-1-.8-1.3.5-1.3 2.5 0m-36.8 4.5c.1.5-1.1 1.2-2.7 1.5-2.5.4-3 1.1-4 5.8-1.4 6.2-2.3 7.3-3.6 4.9-1.1-1.8-4.4-2.3-5.3-.8-.3.5.3 2.9 1.4 5.4 2.2 4.9 4 5.7 12.9 5.7 2.6 0 5.1.4 5.7.9 1.8 1.7 9.2 2 11.4.4l2.1-1.5-.6 11.4a126 126 0 0 1-1.1 12.6 8 8 0 0 0 .7 3.9c.5 1.5.8 3.7.4 5-.4 1.9-1 2.1-3.3 1.7-2.1-.4-5.6.6-12.8 4-13.8 6.3-17.9 7.3-23.7 5.6-5.2-1.4-6.3-3.3-4.5-7.6.8-2 1.2-11.5 1.2-31.1l.1-28.2 3-.4c6-.8 22.5-.2 22.7.8M435 721q0 .9-.4 1-.5-.1-1.1-1-.4-1 .4-1 1 0 1.1 1m-27.2 5.3q-1.1 2.1-1.6.9c-.6-1.9.6-4.4 1.8-3.7q1 .7-.2 2.8m28.2-.9q0 .5-1 1.1-.9.4-1-.4.1-1 1-1.1 1 0 1 .4M232 731q0 .9-1 1a1 1 0 0 1-1-1q.1-1 1-1t1 1m165.2 1.2q-1.1 1-1.2.2c0-1.4 1.2-2.6 1.9-1.9q.3.6-.7 1.7m38.3-1.2q.4.9-1 1c-1.4.1-1.3-.5-1-1q.6-1 1-1t1 1m-4.5 6q0 .9-1 1a1 1 0 0 1-1-1q.1-1 1-1t1 1m4.8 1.1q-.4 1-1.3 1-1.2 0-1.3-1t1.3-1.1c1.5-.1 1.5.5 1.3 1.1M431 744q0 .9-1 1a1 1 0 0 1-1-1q.1-1 1-1t1 1m5 1q0 .9-.9 1-1-.1-1.6-1-.4-1 .9-1 1.5 0 1.6 1m0 8c0 3.7-2.6 4.1-3.2.5-.6-2.7-.1-3.5 1.9-3.5q1.3.2 1.3 3m-67 7c0 1.3-2 1.3-4 0q-1.9-1.1 1.3-1c1.5 0 2.7.4 2.7 1m-1 13c0 1.7-.6 2-3.4 1.8q-3.5-.1-5.5 1.7c-2 1.8-2.1 1.8-2.1-.1 0-3.7 2-4.9 8.8-5.3q2.3-.2 2.2 1.9m-110 2q-1.4.9-2.5 1-.7-.1.5-1 1.8-1.2 2.5-1 .8.1-.5 1m17.5 0q2.6 1-1.3.9-3.2 0-2.7-.9c.7-1.2 1.3-1.2 4 0m-8.5.4c0 1.1-1.9 1.5-2.5.6q-.4-.9.9-1 1.5 0 1.6.4M112 777q-.1.9-1.1 1-.8-.1-.4-1t1.1-1q.3 0 .4 1m131.5 0c-.3.5-2.3 1-4.3 1q-4 0-2.2-1c2-1.3 7.3-1.3 6.5 0m-94.5 1q0 .9-.9 1-1-.1-1.6-1-.4-1 .9-1 1.5 0 1.6 1m-53.6 2.1q-.6.8-1.5.3t-.3-1.5q.6-.8 1.5-.3t.3 1.5m136.6-1.7q-.1.4-1.5 1-1.4.4-1.5-.4.1-1 1.5-1c1.4 0 1.5.2 1.5.4M112.2 781q2 0 1.4 1.6c-.3.9-.6 2-.6 2.5s-1.8.9-4.1.9q-3.8 0-3.4-1c.3-.6 1.5-1 2.6-1 1 0 1.9-.5 1.9-1.1q0-.8-1-.4c-.5.3-1.5.3-2.2-.1q-1.1-.7.8-2.1 1.8-1.4 2.2-.3c.2.5 1.3 1 2.4 1m101.8 0q-.1.9-1.6 1-1.3-.1-.9-1 .6-1 1.6-1 .8 0 .9 1m-6.7.7c-.7.2-1.9.2-2.5 0q-1-.5 1.2-.5c2.2 0 1.9.2 1.3.5m-18.3 1.2 4.5.7-4.1.8c-2.9.5-5.1.3-7.5-.8l-3.4-1.4h3c1.7 0 5 .3 7.5.7m53.8 5.6.3 3.6-7.5-.2a35 35 0 0 0-8.3.4c-1.6 1.7-3.3.5-3.3-2.2 0-5.4.3-5.6 9.8-5.4l8.7.2zm123.7-3.5c-.3.5-1.5 1-2.6 1q-1.7-.1-1.9-1c0-.6 1.2-1 2.6-1s2.3.4 1.9 1m-269.7 2.6c-.4.3-1.7.2-3-.2-2.2-.7-2.2-.7-.3-1.4 2-.8 4.4.4 3.3 1.6m6.2 4.5q0 1.8-1 1.4c-.5-.3-1-1.5-1-2.6s.5-1.7 1-1.4 1 1.5 1 2.6m255.2 5.1.2 11.3.1 8 3.8.3c2 .2 3.7.8 3.7 1.3q-.1 1-3 .4c-3.5-.8-6.2.8-5.3 3.1.3.8 1.7 1.4 3.2 1.4 1.4 0 3.3.5 4.1 1q1.8 1-2.1 1c-3.5 0-6.6 2-5.2 3.3q.4.8-.6 2.1c-2.4 2.8-.9 5.8 3.4 7.2 4 1.2 4 1.2.8 1.3q-6.2.2-6.3 2.6c-.1 2.4 2.7 2.7 5 2 1-.3 3-.1 4.5.5 2.5 1 2.7 1.3 1.4 2.6-1.2 1.1-2.1 1.2-4.5.4q-3-1-5.5-.2a9 9 0 0 1-4.9.2c-2.1-.5-2.5-1.2-2.5-4.5 0-3.4.3-4 2.3-4.3 2.7-.4 2.9-3.2.2-3.9s-2.6-2.3-.1-2.3c2.6 0 3.8-2 2-3.4-2-1.6-4.7-5.1-3.2-4.2.7.4 2.2.2 3.3-.4 1.8-.9 1.9-1.4.9-2.6-.7-.9-2-1.4-2.8-1.1q-1.6.4-1.7-2c-.2-2.2 1.1-3.2 1.8-1.4q.5.7 2.3-.5c1.6-1.2 1.7-1.8.8-3.2q-1.1-1.5-2.5-1.6c-1.2.1-1.5-1.5-1.6-7.7-.1-4.3.3-8.1.8-8.4q1-.4 1 .7 0 1.3.8.2c.7-1 2.8-2.1 4.5-2.3.4-.1.8 1.4.9 3.1M96 801c0 .5-1.3 1-2.9 1-1.7 0-3.3-.5-3.6-1q-.4-1 2.9-1c2 0 3.6.4 3.6 1m249.8 1.6c.2.1.1 3.2-.3 6.9-.7 6-.9 6.5-2.4 5.2-2.3-2.1-10.2-6-12.6-6.3-1.1-.1-4.2-1-6.9-2-4-1.4-4.5-1.9-3.1-2.7q1.8-1 5.5.2 8 2.5 10.7-.9c1.4-1.6 2.5-1.9 5.3-1.4 1.9.4 3.7.8 3.8 1m-151.3.4q.4 1-3.5 1c-3.9 0-3.9-.4-3.5-1s1.9-1 3.5-1 3.2.4 3.5 1m55.5 1q2 1.1-.2 1c-.9 0-2-.5-2.3-1-.8-1.3.5-1.3 2.5 0m116 .5q-.2 1.3-2 1.5c-2 0-2.6-1.1-1.3-2.3 1.2-1.3 3.3-.7 3.3.8M96 807c0 .5-1.5 1-3.4 1s-3.8-.5-4.1-1c-.4-.6 1-1 3.4-1 2.3 0 4.1.4 4.1 1m270 5q-.1.9-1.4 1c-.8 0-1.8-.5-2.1-1q-.4-1 1.4-1 2 0 2.1 1m-269 1.9c0 1.9-1.7 3.8-2.5 2.9-.7-.7.7-4.8 1.6-4.8q.8.2.9 1.9m14 6.7c0 3.8 1.5 7.4 3.1 7.4.5 0 2.9 1.8 5.1 4 4.7 4.4 6.7 5 7.5 2q.5-1.8.8-2l9.3 3c5 1.6 9.7 3 10.4 3 1.3.1 5.8 3.4 5.8 4.3q-.2.5-2 1c-2.1.5-2.5 2.3-1.2 4.4.5.7 3.5 1.6 6.8 1.9 5.2.6 6 .9 6 2.6-.1 1.6 1.2 2.4 5.9 3.9 3.3 1 7.6 3.2 9.5 5q3 2.8 2 2.2a95 95 0 0 0-22.8-7.9c-6.9-1.4-8.7-2.2-10-4.3a63 63 0 0 0-6.5-7.5l-4.7-4.9-2.4 2.2-2.3 2.2-5.2-3c-5.8-3.5-7.9-3.8-8.8-1.6-.5 1.5 2.2 5.5 3.8 5.5a38 38 0 0 1 11.6 9.4c-.2.6-2.5 1.2-5.2 1.4-4 .3-4.7.1-4.1-1.3.6-1.8-2.9-9.1-3.8-7.7-.5.9-4.6.6-7.6-.5-.8-.3-2.5-.5-3.7-.4q-2.4.4-3.3-2.4c-1.6-4.1-1.2-5.5 1.4-5.5 2 0 2.5-.6 3.1-4 .8-4.9.2-6-3.4-6-2.5 0-2.9-.5-3.4-3.3q-1.2-6.9 4.8-6.7c3.3 0 3.5.2 3.5 3.6m233.6 5c-.5 5.4-1.5 9.3-3.6 13.3-3 6-7.9 10.5-10.4 9.5-.9-.4-2.9.5-4.7 2-2.7 2.3-3.9 2.6-8.5 2.4-3-.2-5.4-.6-5.4-1 0-.3-1.6-2.5-3.5-4.8s-3.5-4.3-3.5-4.5c0-.9 6 1.1 8.5 2.9 4.3 3 10.7 2.7 17.7-.9 4.9-2.5 6.6-4.2 8.7-9q.2-.8-1.6.7c-1.1 1-2.7 1.8-3.5 1.8-.9 0-3.2.7-5.2 1.5s-4.1 1.3-4.5 1q-.8-.3-1.5 1t-1.8 1.5c-.6 0 0-1.3 1.5-2.8s2.7-3.2 2.7-3.7.8-1.7 1.7-2.7c1.6-1.8 1.5-1.9-.6-3.4-1.8-1.3-2-1.9-1-3q1.2-1.3 2.6-1 1.3.6 1.3-2.4c0-3 .5-3 1.5-3q1.4.1 1.5 1.6 0 1.6 1.9.9 2-.6 3.4 1.5c1.3 1.8 1.9 2 3.6 1.1 2.2-1.2 2.8-3.6 1.1-4.6q-1.1-.7.1-2.1c2-2.4 2.2-1.6 1.5 6.2M97 821q-.1.9-1.1 1-.8-.1-.4-1t1.1-1q.3 0 .4 1m20.3 3c.3 1.1.1 2.3-.4 2.6q-.8.4-.9-.5c0-.5-.3-1.6-.6-2.5q-.5-1.5.4-1.6.9.2 1.5 2m205.6 6.6q-1.2 1.6-2.3.4-1.2-1 .4-2c2-1.2 3.3-.1 1.9 1.6m-261.2-.2q-.1 1.3-1.4.9t-1.3-1.4q.1-.8 1.3-.9 1.3.1 1.4 1.4m39.2 2.2c3.6 4.5 2.5 6.2-1.4 2.4a18 18 0 0 1-3.5-4.2c0-1.8 3-.7 4.9 1.8m225.1.4q-.1.9-1.5 1c-1.4.1-1.5-.5-1.5-1q.1-1 1.5-1c1.4 0 1.5.4 1.5 1m-6.3 5.3c-1.2 2.7-3.1 3.5-4.2 1.7q-.4-1 1.2-1.7c1-.3 2.2-1.3 2.6-2 1.5-2.4 1.8-.8.4 2m-123.8 2.3c.8.7-3 1.6-4.4 1-2.7-1-1.7-2.7 1.3-2 1.5.4 2.9.8 3.1 1m3.9.6q2.5 2.7-.6 2.8-3.6 0-2.5-2.6.8-2.6 3.1-.2m181.6 4c2.8 3.9 1.7 5.2-1.4 1.8-3.4-3.7-3.6-4-1.6-4 .8 0 2.2 1 3 2.2m-175.3.8 2.4 1.9-3.2-1.2c-1.8-.6-3.3-1.5-3.3-1.9 0-1.4 1.7-.9 4.1 1.2m210-.6c3.8 1.6 9.6 7.2 8.6 8.3-.4.3-2.7-.8-5.1-2.5q-4.5-3.2-7.9-3.2-7.6 0-5.4-2.6c1.6-1.7 5.6-1.8 9.8 0M76 848.5q0 1.3-.9 1.5c-1.3 0-2.2-1.6-1.4-2.4 1.1-1.1 2.3-.6 2.3.9m114 .5q-.1.9-1.1 1-.8-.1-.4-1 .6-1 1.1-1 .3 0 .4 1m-48.7 4.3q-.7.9-2-.8c-2-2.8-1.6-4.1.7-2 1.1 1 1.7 2.2 1.3 2.8m53.2-.3a2 2 0 0 1-1.2 1.7q-1.2.4-1.3-.7 0-1-1-.5t-1-.8c-.1-1.2.9-1.3 2.3-1.2 1.2.1 2.2.8 2.2 1.5m6 3.9c1.9 3.7.4 4.9-3 2.4q-3.7-2.7-1.8-4.6c1.4-1.5 3.3-.6 4.8 2.2M251 859q0 .9-.9 1-1-.1-1.6-1-.4-1 .9-1 1.5 0 1.6 1m5.5 2c.4.6 1.5.8 2.4.5 1.9-.6 5.1.3 5.1 1.4 0 .9-9.3.7-10.8-.2q-1.1-.9-.7-1.8c.8-1.2 3.2-1.2 4 .1m-69.5 5.5c3 3.2 1.4 3.2-2.5 0q-3-2.4-1.4-2.5c.8 0 2.6 1.1 3.9 2.5m83.5 1.5q1.6 1.8 1.3 2-.6-.2-2.3-2t-1.3-2q.6.2 2.3 2M93 872q0 .9-1 1a1 1 0 0 1-1-1q.1-1 1-1t1 1"/><path d="M358.1 338.6q0 1.7.6.6c.3-.7.2-1.6-.1-1.9q-.6-.5-.5 1.3m71.9 61q0 1.4 1.2 1.2c1.8-.6 2.1-2.8.4-2.8q-1.5.1-1.6 1.6m.6 16.7c-.5 2.1-.6 4.1-.2 4.4q1.8 1.6 1.4-4.3l-.4-3.9zM426 554.4c0 2 .2 3.6.4 3.6.8 0 1.2-6.1.4-6.6-.4-.3-.8 1.1-.8 3m.2 13.6q0 2.2.5 1.2c.2-.6.2-1.8 0-2.5q-.5-.8-.5 1.3m-.1 10.5.1 5 .9-3.9q1-4-.1-5-1-1-.9 3.9M355.5 658c-.8 1.3-.1 2.4 1.4 1.9q1-.5.2-1.8-.8-1.5-1.6-.1m-1.5 29.1q.1.8 1 .4t1-1.1q0-.4-1-.4-.9.1-1 1.1m0 12.9c0 1.2-.4 2.9-.9 3.9-1 1.7.2 5.1 1.1 3.5 1.2-2.1 1.8-8.3.8-8.9q-1-.4-1 1.5m-1 10c0 .8.5 2.2 1 3q1.2 2 1 0c0-.8-.5-2.2-1-3q-1.2-2-1 0m.7 7.5q-.5 1.4.3 2 1 .4 1-1.4-.1-3.7-1.3-.6m3.8 14.8c-.4 1-.5 2.1-.1 2.4 1 1 1.8-.4 1.3-2.4-.4-1.7-.4-1.7-1.2 0M354 742q.2.9 2 1c1.8.1 2-.5 2-1q-.2-1-2-1c-1.8 0-2 .4-2 1m2 5q.1 1.8 1 2 1-.2 1-2c0-1.8-.4-2-1-2q-.9.2-1 2m-245.2 46.1c-2.2 1.4.7 3.2 5.9 3.5 10.1.7 39.9 1.3 41.6.8q1.5-.6 1.7-1.8c0-1-4.1-1.3-17.2-1.4-9.5 0-20.3-.5-24-.9a24 24 0 0 0-8-.2m-3.7 6.2c-1.7 2.2-.3 2.7 7.1 2.7 5.1 0 6.8-.3 6.8-1.4 0-2.5-11.9-3.6-13.9-1.3m55.9.6c0 1.2 2.9 2.3 4.1 1.5 1.8-1 .9-2.4-1.6-2.4q-2.3 0-2.5.9m-30.7 1.3c.2.7 1.9 1.3 3.7 1.3s3.5-.6 3.8-1.3q.4-1.2-3.8-1.2c-4.2 0-4 .4-3.7 1.2m257.4-56.9c-1.3 3.4 5.8 5.2 8.3 2.2 1.7-2 .8-2.7-3.9-3.2q-4-.4-4.4 1m-8.6 5.1q-2.5 3 5.5 2.4 4-.3 3.9-1.8c0-2.2-7.7-2.6-9.4-.6m23.6-.7c-1.7 1.6-.5 3.3 2.2 3.3q6 0 6.1-2.6c0-1.5-7-2.1-8.3-.7m-8.5 5.9c1.6 1.6 7.7 2.2 9.8.9s-1.1-2.5-6.5-2.5c-4.5 0-4.8.1-3.3 1.6M352 803.9c0 1 .6 2.4 1.4 3q1.5 1.5 2.1-.8.5-2 0-3.1c-1.1-1.7-3.5-1.1-3.5.9M86.2 692.1q.5 1.2 1.7 1.7 1.3.4.9-.9-.5-1.2-1.7-1.7-1.3-.4-.9.9m339 5.9q0 3 .5 1.7c.2-.9.2-2.5 0-3.5q-.5-1.2-.5 1.8M.3 704.7c-1.2 3.1.9 3.3 29.8 3 28-.3 33.5-.9 29.7-3.3-.7-.5-14.3-.9-30.2-.9-22-.1-28.9.2-29.3 1.2m66-1.1c-3.6 1.6 1.3 4.9 5.8 3.9 3.1-.7 4.1-3.5 1.2-3.5-1 0-2.7-.2-3.8-.5a7 7 0 0 0-3.2.1M33 710c-27.1.4-31.5.7-31.5 2s4.5 1.5 34.9 1.3c19.1-.1 35.5-.4 36.3-.7 2.8-1.1-.5-3.4-4.5-3.2zm427.3 3c-8.7.6-11.6 2.5-5.1 3.3 2.4.3 13.4.6 24.6.6 17.4.1 20.2-.1 20.2-1.4s-2-1.5-11.7-1.6c-6.5 0-13.8-.3-16.3-.7s-7.7-.5-11.7-.2m-415.7 2.9c-8.8.9-8.4 3.9.4 3.3l14.4-.7c13.1-.6 15.1-.9 14.1-2.6-.7-1-18.9-1-28.9 0m429.4 21q-1.1 2.1-4 2.1c-2.3 0-3.3.7-4.6 3.2a29 29 0 0 0-2.4 6.3q-.5 3-2.8 3.3c-2.7.4-2.8 1.8-.3 3.2 1.1.5 2.3 1.9 2.6 3 .5 1.7 1.5 2 7.3 2.1 5 0 6.1.3 4.5.9q-4 1.9-.8 3.4c2 .7 6.8-1.1 6-2.4-1.2-2 4.3-1 5.6 1 1.3 1.8 2.1 1.9 8.2 1.4 4.9-.5 6.7-1.1 6.7-2.1 0-1.2-1.4-1.4-6.7-1.3-9.8.3-9.7.4-7.9-2.2q3-4.7-4.5-4.8c-4.5 0-5-1.4-1.9-5.3 2.4-3 2.6-6 .6-7.7a6 6 0 0 1-1.8-3.2c-.4-2.9-2.4-3.4-3.8-.9m1 7.1c0 1.8-5.2 9-6.1 8.4-1.2-.7-1.1-1.9.5-5.9q1.5-3.5 3.5-3.5 2 .1 2.1 1m-52.4-2.8c-.7 3-.8 17.6 0 20.5 1.4 5.2 2.1.6 1.7-10.4-.3-6.5-.6-11.9-.8-12.1q-.2 0-.9 2m18.9 1.9c-1.4 2.1 1.1 2.9 9.5 2.9 8.1 0 11.5-.9 9.1-2.5-1.7-1-18-1.4-18.6-.4"/><path d="M482.5 747c-1 1.7-.4 1.9 5.8 2.2 5.4.2 7.8-.5 6.4-1.9s-11.4-1.6-12.2-.3m-37 2.1c-1 1.5-.3 1.9 5.1 2.4 5.1.5 8.1-.5 7-2.4-.9-1.4-11.3-1.4-12.1 0m45.7 7.1c.3.7 2.3 1.4 4.6 1.6 3.3.2 4.2 0 4.2-1.2s-1.1-1.6-4.6-1.6q-4.6 0-4.2 1.2M41 759.8c0 .5-1.3 2.6-2.9 4.6s-3.2 5.4-3.6 7.5c-.5 3-1 3.7-2.8 3.7-3.6-.1-2.5 2.4 1.9 4.3q4.2 2 5.8.9c1.4-.8 1.9-.5 2.3 1.1q.5 2 1.2 2.1l9.4 1c9.3.9 11.7.6 11.7-1.5q-.2-2.5-6-2.5-2.9 0-4-2-1-2-4.5-2c-1.8 0-3.6-.4-3.9-.8s.4-2.8 1.5-5.2q3.1-7-.5-7-1.4-.2-1.8-2.2c-.3-2.2-3.8-4-3.8-2m2.5 8.2c.7 1.2-2.2 7-3.5 7s-1.3-3.6 0-6.1q1.9-3.2 3.5-.9m408-6q.6.9 1.6 1 .8-.1.9-1-.1-1-1.6-1-1.3 0-.9 1m13 6.1c-.9 1.3-.6 1.5 3 2.2 3.4.6 7.2-.8 4.5-1.7q-6.4-2-7.5-.5m21.7.1c.7 2 13.8 2.2 13.8.3 0-1.2-1.5-1.5-7.1-1.5-5.2 0-7 .3-6.7 1.2m-43.2 9.6c0 1.5.7 3.8 1.6 5 1.5 2.1 1.5 2.4-.1 3.5q-1.6 1.3-.9 3c.8 2.2 8 7.2 11.7 8.1 1.5.4 2.6 1 2.3 1.4q-.2.7 1.2.9a357 357 0 0 1 24.7 5 32 32 0 0 1 8.8 3.1c2.5 2.2 1.4 2.6-2.3.7-4.1-2.1-17.9-3.6-20.1-2.2-1.3.8-3.1.3-7.4-1.8a23 23 0 0 0-11.8-3c-3.4 0-6.9.2-7.7.5-2 .7-3.9 3.1-4 5.1 0 .8-.6 2.3-1.3 3.3-1.2 1.7-1.7 1.7-6.4.3a72 72 0 0 1-7.3-2.7l-2.2-1.2 2.1-1.4c2.8-2 2.7-2.7-1.3-5.8-5.4-4.1-8.9-1.6-4.4 3.1 1.8 1.9 1.9 2.3.5 2.3q-1.5 0-2.1-.9c-.3-.5-2.3-1.1-4.3-1.4-2.1-.3-6.6-1.5-10-2.8-5.1-1.9-6.4-2-7.7-1q-1.4 1.3-1 2.2c1.3 2.1-8.5.8-13-1.7-3.8-2.1-4.9-2.4-6.1-1.4q-1.4 1.3-1.5 2.2c0 1.4 10.2 5.8 13.6 5.8 3.3 0 8.4 2 8.4 3.3q-.2.8-2.2.7c-4.1-.4-4.8 0-5.8 2.5-.8 2.2-1.4 2.4-3.7 1.8-4.7-1.1-6.7-.9-7.1.9-.4 2.1 2 2.8 10.3 3.1 5.2.2 6 0 6.3-1.8.3-1.1.9-2.3 1.6-2.7 1.7-1.1 8.4-1 9.1.2.3.5 1.5 1 2.5 1 1.1 0 3.4.8 5.2 1.8s6.2 2.9 9.7 4.2c6.6 2.4 13.1 7.2 13.1 9.5 0 1.5 2.7 2.8 4.1 1.9 1.9-1.1.8-3.3-3.9-7.7s-10-7.7-12.3-7.7a29 29 0 0 1-9.9-6.3q0-3 10.8 1.1a120 120 0 0 0 16.1 4.8c4.6 1 9.9 2.8 11.8 4.1 3.7 2.5 4.9 2.8 5.8 1.3 1.1-1.7-1.4-4.8-4.9-6.1-1.9-.7-3.3-1.6-3-2s-1.9-1-4.6-1.4c-5.6-.8-6-2-1.4-4.6 4.3-2.5 11.1-2.3 19 .7 6 2.2 7 2.4 7.9 1 .9-1.1 2.5-1.3 7.6-.9s8.2 1.5 14.7 4.9l8.2 4.4v-4.5c0-3.8-.4-4.8-3-6.6l-3-2.3 3-1.4c5.6-2.7 2.7-11.2-3.3-9.7-1.4.4-5.4 0-8.9-.8s-8.2-1.5-10.4-1.5c-6.5.1-18.2-3.1-21.5-6a23 23 0 0 1-5-6.3c-2.3-4.6-4.9-5.2-4.9-1.1m38.6 18.7c6.3.6 13.1 2.9 12.4 4.1s-1.3 1.1-15.9-2c-13.7-2.8-16.8-4.1-7.6-3.2zm-74.9 10.4q5 1.8 4.5 2.8c-1 1.6-15-1.8-14.4-3.5q.7-2.6 9.9.7M72.5 793q-.4.9.4 1 1-.1 1.1-1 0-1-.4-1-.6 0-1.1 1"/><path d="M412.5 794q-.4.9.4 1 1 .1 1.1 1.6-.1 2 1.5.4 1.8-1.3.4-2.6-2-2.5-3.4-.4m-346.3 1.2c.6 1.8 2.8 2.1 2.8.4q-.1-1.5-1.6-1.6-1.4 0-1.2 1.2m7.8 1.7c0 .5.5 1.3 1 1.6q1 .5 1-.4a2 2 0 0 0-1-1.6q-.9-.5-1 .4m360.4.5c-.8 2 1.3 5.6 3.3 5.6.9 0 2.5-.7 3.5-1.6 1.7-1.6 1.6-1.8-1.7-3.5-4.2-2.3-4.4-2.3-5.1-.5m-9.4.7c0 1.6 7.2 8 8.5 7.6 2.4-.8 1.4-3.7-2.2-6.1q-6.1-4.2-6.3-1.5M232 807q.1.9 1 1 1-.1 1-1t-1-1a1 1 0 0 0-1 1m242.8 6c-3.8.7-7.1 3.6-8.8 7.7-.7 1.7-1.8 2.3-4.3 2.3-1.8 0-4.3.7-5.6 1.6l-2.2 1.6 2.2 2.4 2.2 2.4-2.1 2.3-2.2 2.3 2.2 2.1c1.3 1.1 3.5 2.3 5 2.7l2.6.6-3.4 3.4c-2.7 2.7-3.4 4.2-3.4 7.4 0 4.2 2 6.8 4.4 5.9 1.2-.5 1.4-1.7.9-5.5-.5-4.6-.3-5.1 2-6.7 1.4-.9 3-1.4 3.6-1.1.5.3.9 4.5.8 9.3q-.1 27.2 5.9 22.2c1.6-1.3 1.9-5.5.4-6.4-.6-.4-1-5.8-1-12.9v-12.3l11.8.2c6.4.1 12.3 0 13-.3s1.2-2.2 1.2-4.9v-4.6l-5.5.7c-4.7.5-5.8.3-7.5-1.4-1.5-1.5-3.2-2-6.5-1.8-2.5 0-4.7-.1-5-.3a111 111 0 0 1 23.5-2.4q1 .4 1-1.6c0-2-.3-2.1-6.3-1.5-5.1.6-6.6.4-7.6-.8q-1.4-1.6-6.5-1.6a18 18 0 0 1-6.6-1c-1.3-.8-1.3-1.3 0-3.7 1.2-2.2 2.4-2.8 5-3q4.9-.3.6.5c-1.6.4-3.1 1.3-3.4 1.9-.6 1.9 11.2 1.8 12.7-.1 1-1.2.8-1.9-.8-3.5-1.2-1.2-3-2.1-4-2.1-1.1 0-2.5-.2-3.3-.4s-3 0-5 .4m-6.8 23.6q0 1.6-1.6 1-1.6-.5-2.5-.6t-.4-1c1-1.6 4.5-1.2 4.5.6m29.9 2.8q1 1.4.4 1.8c-.4.2-5.7.1-11.8-.2l-11-.5 7-.8c3.9-.5 7.5-1 8-1.2 2.5-.9 6.4-.4 7.4.9m-261.8-24c-1.5 1.7-.5 4.1 2.3 6 1.3.8 7.4 2.7 13.7 4.2 13 3.1 19.8 6.3 23.4 11 1.4 1.8 2.5 3.4 2.5 3.7 0 .2-2.5.2-5.5-.1-4.7-.4-5.6-.2-6.1 1.4-.3 1.1-1.2 3.1-2 4.6-2.7 5 .7 8.1 11.6 10.7 7.1 1.8 9 2.8 9 5 0 2.5 2.3 4.3 10.3 8q6.9 3.3 7.8 5.7c1.2 3.3 6.2 3.1 6.7-.3.4-2.4-3.9-6.1-10.6-9.1a36 36 0 0 1-8.5-6.3q-4.2-4.5-9.9-6.3c-5-1.7-5.5-2.1-4.5-3.7q1.2-1.8 3.3-1.3 2 .7 4.3-2.2c2.5-3.2 2.2-4.9-2.5-11.4a21 21 0 0 1-3.4-5.9q0-1-1.2-.8-1.1 0-1.3-1.3c0-.8-.7-1.6-1.5-1.6l-2.9-.3q-1.5 0-.7-3.1c.5-2.9-.6-4.1-1.9-1.9q-.7 1-2.6-.7c-1.7-1.5-1.9-1.5-2.5-.1q-.5 1.7-4.2 1.3c-4-.4-10-2.3-11.8-3.8-.6-.4-1.8-.6-2.6-.3s-2.1-.1-2.8-1c-1.6-1.9-4.4-2-5.9-.1m73.9 3.4c0 1.2 1.9 2.6 2.6 1.9q.3-.5-1.1-1.7t-1.5-.2m-6.4 2.1c-.4.6.2 1.9 1.3 3 1.6 1.6 2.2 1.7 3.7.7 1.7-1.3 1.1-4.1-.7-3-.5.3-1.6.1-2.4-.6q-1.3-1.1-1.9-.1M429 843.5q.2 1.5 2.8 2.6c3.3 1.3 8.2 5.9 12.8 12a125 125 0 0 0 7.1 8.6c2.1 2.1 5 5.4 6.6 7.2 2.2 2.7 3 3.1 4.2 2.1 1.9-1.5 1.2-2.9-5.7-10.6-2.9-3.4-8-9.3-11.2-13.3-3.3-4-7.2-7.9-8.7-8.7-3.7-1.9-7.9-1.8-7.9.1"/><path d="M479.7 849.7c-1.3 1.2-.7 5.1.9 5.7q3.3 1.1 3.4-2.3c0-2.8-2.8-5-4.3-3.4m-462.6 3.2c-1.1.7-.8 1.7 1.8 4.9 3.1 3.9 4 5.8 7.5 15.5 1.4 3.8 2.2 4.7 4.2 4.7 3 0 3-.4-.1-8.6a29 29 0 0 1-2.1-7.1c.5-.6 5.9 6.5 8.6 11.4 1.9 3.5 2.9 4.3 5.3 4.3h2.9l-3.1-4.2a18 18 0 0 1-3.1-5.4c0-.6-1.6-3.2-3.6-5.9-3.2-4.1-4-4.6-6.4-4.1s-3.3-.1-5.5-2.9c-2.7-3.6-4-4.1-6.4-2.6"/><path d="M11.6 859.5c-1.3 1.4-3.3 2.5-4.5 2.5-3.3 0-7.1 4.7-7.1 8.7 0 3.3.1 3.4 2.1 1.9q2.1-1.4 5.4-.9c2.8.4 3.5.1 5.5-2.8 1.3-1.9 3.5-4.4 4.9-5.6l2.6-2.3-2.4-2c-3-2.6-3.7-2.5-6.5.5m478 1.4c-.4.5.5 2.3 1.9 3.9 3 3.6 3 3.7.5 6.9q-3.3 4.2-1 4.3c.6 0 1.6-1.2 2.2-2.6 1.1-2.3 1.3-2.4 1.9-.7.3 1 .2 2.6-.3 3.6q-1 1.8.7 1.7c2.8 0 4.5-2.7 4.5-6.9 0-3.1-.7-4.9-3.1-7.6-3-3.4-6.2-4.5-7.3-2.6m-158.3 3.2c-1.7 2.1-2.7 6.9-1.4 6.9q1 0 1.1-1c0-.5 1.2-2.1 2.8-3.6q2.5-2.5 1-2.1t-2-.5q-.4-.9-1.5.3m-313 3.1q-1.2 1.2.7 5.8c1.4 3.6 2.3 4.6 4.4 4.8 2.5.3 2.6.1 2-2.5-.8-3.6-3.6-8.5-5-9-.6-.2-1.6.2-2.1.9m317.4 1.6c-2.1 2.3-2.2 5.2-.1 5.2q1.4-.1 1.1-1.3c-.2-.6 0-2 .5-3 1.3-2.6.4-3.1-1.5-.9m150.3 1.3c-1.3 2.4-.4 4.1 1 1.9 1-1.6 1.3-4 .5-4q-.4.1-1.5 2.1m-322.2.5c-1.5 1.5-1.5 2-.2 4.6 1.2 2.3 2.1 2.8 4.9 2.8 1.9 0 3.5-.5 3.5-1s1.1-1 2.4-1c1.4 0 2.8.4 3.1 1s2.6 1 5.1 1q4.3 0 3.9-1a34 34 0 0 0-14.2-6.4c-2.3-.3-4.7-.8-5.5-1.1s-2.1.2-3 1.1m-149.1 4.5c-2.3 1.3-1.3 2.9 1.9 2.9q4-.2 1.1-2.8-1.2-1-3-.1m35.3 1.4c-1.1 1.3-.7 1.5 2.6 1.5 3.6-.1 3.8-.2 2-1.5-2.5-1.9-3.1-1.9-4.6 0"/></svg>