<svg xmlns="http://www.w3.org/2000/svg" width="666.7" height="1170.7" viewBox="0 0 500 878"><path d="M230.2 19.1q.3 2.3 2.8 2.9 2.4.4 8.8 9.9c6.1 9.1 7 12.1 3.6 12.1q-1.4.2-1.2 1.2c.6 1.7 17.8 2.5 17.8.8 0-.7-1.2-1-2.7-.8q-2.8.3-3.1-1.3c-.5-2.7 8.3-20 10.9-21.3 1.2-.6 2.4-1.6 2.6-2.2.4-1.1-6.7-3.4-10.7-3.4-3 0-3.6 2.7-1.1 5.4l2.1 2.3-2 2.6c-1.1 1.4-2.5 4-3.1 5.7-1.5 4.2-3.1 3.8-6.7-1.8l-4.4-6.5c-1.3-1.8-.6-2.8 2.7-4.1 2.7-1-1.9-2.7-8.9-3.2-7.6-.5-7.8-.5-7.4 1.7M57.5 31c-2.2 4.3-1.9 5.8 2 10.2 2 2.1 3.3 4.3 3 4.8-.4.6-3 1-5.9 1-5.7 0-7.8 1.4-8.9 5.9-1.6 6.5 6.4 6.9 13.1.8 2-1.8 2.4-1.9 3.2-.7 1.6 2.5 1.1 4.3-2.2 7.7-2.8 2.9-3.2 4-3 7.9.1 2.5.8 6.5 1.7 8.9 3.3 10 8.5 28.8 10.6 38.9 1.7 8.5 2 11.2 1.1 13.2-1.1 2.4-1.3 2.4-3.7.8-3.4-2.2-5-8.2-2.8-10.6 1.5-1.7 1.5-2.1 0-5.3-1.8-3.8-2.8-4.3-4.7-2-1.8 2.2-3.3 1.8-2.7-.7 1-3.7-1.8-8.6-5.9-10.3-2.1-.9-4.6-2.3-5.6-3.2q-1.7-1.4-1.8-1c0 2.2 5.6 12.7 8.2 15.4 2.9 3 3.1 6 .3 4.9-.7-.2-2.6.7-4.1 2.1l-2.8 2.6 2.3 1.8q4.6 3.7 9.4-.1c2.4-1.9 2.6-1.9 3.5-.3.8 1.3.4 2.5-1.9 5.1q-4.6 5.3-.7 6 1.5.2 1.4-1.5c0-.9.7-1.9 1.7-2.1 1.6-.3 1.7-.1.7 1.7-1.3 2.5.6 3 2.4.7 1.3-1.8 6.2-1 7 1a90 90 0 0 1 2.1 19.4c-.9 1.4 1.3 22.9 3 30.3.8 3.5 2.1 10.8 2.9 16.3.9 5.4 2.2 12.1 3 14.9 5 17.3 10.9 41.8 16.2 67.5.9 4.1 2.5 11.3 3.7 16 2.2 9.3 2.5 19.7.6 25.8-1 3.4-.8 4.8 1.1 10.2 1.7 4.8 2.1 7.6 1.7 11.6-.6 5.6.9 8.7 6.4 13.3l2.4 2.1-3.7 3.4a16 16 0 0 0-3.8 4c0 1.7 3.5.3 5.8-2.4 1.5-1.7 3.4-3 4.4-3 2 0 2.5 2 .6 2-1.2.1-6.8 7.9-6.8 9.5 0 .4.8 1.4 1.8 2.1 1.4 1 1.5 1.5.5 2.5-.7.7-1.3 2-1.3 3s-.9 2.8-2 4.2a21 21 0 0 0-3 7.8 33 33 0 0 1-1.3 5.4c-3.5 1.8-5.7 3.9-5.7 5.3 0 1-.5 2.3-1.2 3-.9.9-.8 1.6.5 3 .9 1 1.7 3 1.7 4.3a56 56 0 0 1-6 18.8 91 91 0 0 0-4 9.5 17 17 0 0 1-4.4 6.6c-1.7 1.6-2.8 3.1-2.5 3.4 1.1 1.2 3.5-.4 5.3-3.5 1.9-3.1 4.8-3.6 5.4-.8.1.8-1.1 3.4-2.8 5.7-2.5 3.4-3.6 4.2-6.3 4.2-5.1 0-11.1-2-12.8-4.2s-3.9-1.7-3.9 1.1c0 2.4 2 4.1 4.8 4.1q2.3 0 2.9 2l.8 2c2.3 0 14.6-4.7 16.3-6.3 1.8-1.7 2.2-1.8 2.2-.4 0 .9-1.6 2.8-3.5 4.3-1.9 1.4-3.5 3.3-3.5 4 0 1.9 3 1.8 5.8-.2 1.2-.8 2.7-1.2 3.2-.9 1.7 1.1 1.1 4.4-1 5.5-2.5 1.4-1.7 3 1.5 3 2.2 0 2.4.3 1.8 3.1-.5 2.5-.2 3.1 1.5 3.5q1.9.7 2.6 3.6c.9 4.5.7 8.6-.4 9.3-.5.3-1 1.4-1 2.3-.1 2.6-4.9 7.6-11.5 11.8a40 40 0 0 0-7.7 6c-1.9 2.4-9.6 4.8-11.3 3.5-.5-.5-3.4-1.2-6.3-1.6-5.6-.7-6.7-2.8-1.7-3.2 4.3-.3 5.5-1 5.5-3.3 0-2.7-3.6-9.7-7-13.6-1.5-1.8-4-5.8-5.5-8.9-2.5-5.3-2.8-5.6-4.4-4.1-2.4 2.2-2.7 2.1-5.5-2.1-1.9-2.8-2.3-4-1.4-5q1.3-1.3-.5-3.1c-.9-1-2.8-4.3-4.2-7.5-2.7-5.9-5.6-7.5-7-4-.6 1.6-.9 1.4-2.1-1-1.7-3.2-4.4-3.6-4.4-.7 0 2.3 3.4 9.5 5 10.5 1.7 1.1 1.1 5.4-1.3 8.8-2.8 4-3.7 4.7-6.4 4.7q-2.1 0-2.3 1c0 .5 1.9 1 4.1 1 3.3 0 3.9.3 3.1 1.3-.6.7-.9 2.3-.6 3.4.5 1.7.1 2.2-2 2.5-3.3.4-3.5 2.1-.4 2.9l2.3.5-2.4 1.3c-3.1 1.7-1.4 3.5 2.2 2.2 1.6-.6 3.2-2.5 4.2-4.7q1.6-3.9 2.6-2.7c.8.8.3 2.2-1.4 5-2 3.1-3.5 4.3-7.1 5.3-4.1 1.1-4.9 1.1-6.4-.4-1-.9-2.4-1.6-3.1-1.6-.6 0-2.1-1.6-3.2-3.5-2.1-3.5-3.4-4.1-5.7-2.7-1.4 1-.7 3.7 1.6 6.5.8.9 2 2.7 2.6 4 .9 1.7 2.4 2.4 7.1 3 8.5 1.1 12 .3 17.1-3.8 2.4-2 5.8-4.1 7.5-4.7 2.8-1 3.4-.8 5.1 1.3 1 1.3 2.8 4.1 3.9 6.2 3.1 5.9 2 8.7-6.3 15.4-8 6.5-13.8 13.5-13.8 16.8 0 1.2-.9 3-2 4-1.5 1.4-1.7 2.1-.9 3.2.7.7 2 1.1 3 .8 2.9-.9 2.3 1.4-.7 2.7-2.2 1-2.7.9-3.6-.6q-1-2.2-1.9-.5c-.5.8-.9 2.3-.9 3.4s-2.7 4.9-6 8.5c-7.1 7.7-7.9 9.5-5.2 12.2 1.5 1.5 3.5 2.1 8.5 2.2 4.1.1 8.1 1 10.6 2.2 3.8 1.8 4.1 2.2 4.1 6.3 0 5.2-1.7 20.6-3.1 27.6a41 41 0 0 1-7.5 16.6 85 85 0 0 0-13.3 21.3 74 74 0 0 0-3 13.2c-1.4 10-3.3 12.8-8.9 13.2-3.4.3-4.2.7-4.2 2.3q0 1.9 2.3 2h2.2l-2.2 1.1a4 4 0 0 0-2.3 3.5c0 2.7 1.2 2.9 4.5.7 2.3-1.5 2.5-1.5 2.5-.1 0 3.3-2.3 12.4-4.5 18.2-2.4 6.2-2.6 11.2-.4 12.6.7.4 2.8.6 4.8.4a67 67 0 0 0 18.5-3.4c3.3-1.2 6.7-2.1 7.6-2.1 2.1 0 10.9-4.6 13.4-7 1.4-1.4 1.6-2.2.7-3.8-1.1-2-2.7-2.4-16.8-3.8-5.1-.5-6.3-1-6.3-2.4 0-2.8 2.6-4.3 6.4-3.7q3.6.6 4-.9c.3-.8 1.6-1.4 2.9-1.4 1.4 0 3-.7 3.7-1.5 1.9-2.3-1.3-3-5.9-1.2-3.5 1.4-8.6 1.3-7.9-.2 4-7.8 5.4-10.1 6.1-10.1q.7.1-.3 1.6c-1.1 1.2-1 1.8.3 3.2 1.5 1.4 2.2 1.5 5.9.3 2.4-.7 7-1.8 10.3-2.5a99 99 0 0 0 17.5-5c1.5-.8 3.5-1 5-.5q2.2.6.9.8c-1.8.1-4.7 3-3.3 3.3l3.4.4c1.4.1 6 1 10.3 1.9 6.1 1.3 8.1 1.4 9 .5 1.4-1.4-1.6-4-4.5-4S77 671.8 77 671.1a55 55 0 0 1 19.5.1c4.6 1.5 21.9-.3 22.3-2.3.2-1.4-1.8-1.7-14.8-2.2a53 53 0 0 1-17.1-2.1c-1.2-.8-3.8-1.2-6.7-1-4.3.4-4.4.3-1.7-.7 1.7-.5 5.7-1.2 9-1.4 11.4-.9 16-1.9 16.3-3.7.3-1.4-.6-1.9-3.7-2.4-2.3-.4-4.1-1-4.1-1.5 0-1.7 6.7-2.1 10.1-.5.8.4 4.8.5 8.7.3s7.4-.2 7.6 0-.5 2.4-1.5 4.9c-1.7 3.7-1.8 5-.9 8.4.8 2.9.8 5.7 0 9.7-.5 3.1-1 7.7-1 10.2a46 46 0 0 1-2.5 11.9c-2.8 8.1-2.4 10.2 2.2 12.4 1.4.7 3.3 2.3 4.1 3.5 1.4 2.2 1.3 2.3-1.1 2.3-2 0-2.4-.4-2-1.9.6-2.5-.1-2.8-8.7-4.2-7-1.2-7.3-1.2-9 1.1l-1.7 2.2-4.9-2.1a46 46 0 0 1-6.4-3.5c-2.4-2.1-6.6-2.7-11.2-1.7-3.5.8-4.8.7-7.3-.8-4.1-2.6-12.1-4-17.5-3.2-5.1.7-6 2.8-2 4.8q2.7 1.3.8 1.3-1.6.1-1.8 1.4c0 .9 2.5 2.3 6.4 3.6 3.8 1.2 7 3 7.9 4.3 1.2 1.8 1.9 2 3.4 1.1 1-.6 1.8-2.2 1.8-3.5 0-1.9-1.1-2.8-6.5-5.2-5.9-2.5-6.1-2.7-2.5-2.2 2.2.3 6.2 2.1 9 4 5.4 3.7 8.2 3.3 7-1.2-.5-2.1-.3-2.3 2.2-1.7 1.6.3 6 2.1 9.8 4 10 4.7 38.5 9.6 38.5 6.5 0-1.3 7.4-.2 13.9 2.1q8.6 2.8 10.4 1.2c.4-.4 2.9-1.5 5.7-2.4 4.3-1.5 5.2-1.5 6.2-.3s3.1 1.4 10.1 1c4.9-.3 9.4-1 10-1.6 1.7-1.7-3.7-3.1-12.1-3-6.9.1-7.8-.1-9.2-2.2-3.2-4.9-11-11.9-13.2-11.9-1.3 0-3.8-.9-5.6-2l-3.3-2.1.6-8.2c.7-9.4 1.1-11 2.4-10.3 1.2.8 6.6-4.3 7.4-6.9.4-1.1 0-3.3-.8-4.8l-1.4-2.8 4.3.6c4.7.7 6.6-.5 4.6-3q-1.5-1.6-.1-1.5c1.9 0 5.3 8.7 6.1 15.4.8 7.1-1 13.2-3.6 12.2a39 39 0 0 0-14.1-1.2c-1.7.7-1.7.8-.1 1.7.9.5 5 1.2 9.2 1.6 5.6.4 8 1.1 9.3 2.5 1.7 1.9 1.6 2-5.7 1.3-4.1-.4-8.3-1.2-9.2-1.6-2.5-1.4-5.8-1.1-5.8.5q-.2 2.7 12.7 4.5c9.9 1.5 11.4 1.4 12-.8.7-2.7 10.7-3.6 18.2-1.6 3.2.8 8.2 1.4 11.2 1.2 4.6-.2 5.4.1 5.4 1.6 0 2 6.9 5.1 9.3 4.2 2-.7 1.4-2.5-1.4-3.5-2.8-1.1-2.4-3 .6-3q4.4.1.7-5a13 13 0 0 0-6.8-4.9 38 38 0 0 1-18.1-13.3c-5.5-8.1-9.8-19.2-6.8-17.3.6.3 1 1.5 1 2.6 0 1 .9 2.4 1.9 3.1q2.1 1.3 1 2.5c-1.6 1.9-.1 3.3 3.5 3.3 4.3 0 6.6-2.4 3.7-3.9a12 12 0 0 0-3.8-1.2c-1-.1.2-.6 2.7-1.1q8.3-1.8 5.9-4.4-1.5-1.5 2-1.4 3.2 0 3.1-1.6c0-1.4-.8-1.6-6.2-.9-6 .8-10.8.8-15.3.1-2.4-.3-4.3-5.3-4.5-11.1a68 68 0 0 0-3.7-18.9q-2-3.4 4.1-13.6a343 343 0 0 0 9.3-18c6.5-13.2 8.9-17.1 13.6-21.8l2.2-2.2.5 2.2a4 4 0 0 0 2.9 2.6c1.2.2 2.5 1 2.8 1.7.5 1.6-1.8 11.9-4.1 18-.8 2.2-1.5 4.7-1.6 5.6a63 63 0 0 1-3.6 10.5c-3.9 9.7-5.2 17-3.6 20 .6 1 2.7 2.8 4.7 3.8 3.3 1.8 4 1.9 7.8.5 4.6-1.6 5.5-2.9 9.1-13.9 1.3-4.1 3.5-10.7 4.9-14.5l2.5-7 .2 6.5c.4 13-.6 26.5-2.6 36a54 54 0 0 1-17.4 16.5c-5.8 1.3-8.8 6.7-5.3 9.6 2 1.7 11.1 1.3 15.9-.7q6.7-2.8 4.5 0c-1.9 2.3.8 3.3 10.7 3.9 7.4.4 9.5.2 9.9-.9.3-.8 0-2.1-.7-2.9-1.5-1.8-1.3-2 2.2-2.9 2.3-.5 2.7-.3 3.3 2.4.4 1.7.8 8.4.9 14.8s.6 12.4 1 13.1c1.6 2.5-1.1 3.5-4.7 1.7-4.3-2-9.1-2.1-10.6-.2q-1.2 1.4.1 2.4a36 36 0 0 0 16.9.6c.8-.6 2.9-1.4 4.7-1.7 3-.6 3.2-.5 2.6 1.8-.7 2.8-.5 2.9 6.8 2.5l4.8-.2-1.4 4c-2.1 6-4.4 9.9-6 10.5-.8.3-3 .1-5-.5-2.7-.8-4.6-.8-7.3 0-3.1 1-4.2.9-6.2-.5-1.4-.9-5.2-2.4-8.5-3.4-5.4-1.6-6.3-1.7-8.3-.4-2 1.4-2.3 1.3-3.3-.4-1-2-9.6-4.5-11.4-3.4-1.1.7 2.2 3.3 4.3 3.3.8 0 2.7 1.2 4.3 2.7 3.2 3 2.1 2.8 23.2 4.7 8.7.8 16.3 1.9 16.8 2.4s.3 2.6-.7 5.3l-2.4 6.9c-2.6 8-8.5 15.2-16.1 19.8-2 1.2-8 3.5-13.3 5.2-11.5 3.7-14.1 6.2-11.3 10.5 1.5 2.3 1.5 2.5-.1 2.5l-13.8 1.1a207 207 0 0 1-16 1.1 56 56 0 0 1-19.8-4.6c-5.6-3.7-7.2 2.5-1.6 6.4 2.5 1.9 4.5 2.1 21.6 2.2 17.5.1 19.2.5 9.1 2.2-2.1.4-3.8 1.1-3.8 1.6q.1 3 9.8 1.7c3.7-.5 11.1-.7 16.5-.5l9.8.4-.3-2.6c-.3-2.5-.4-2.5-9-2.5-4.7 0-9-.3-9.4-.8s1.6-.7 4.4-.7c3.8 0 5.4-.5 6.4-1.8.7-1.1 3-2.2 5-2.6q7.4-1.5-.3-3.6c-2.2-.6-3.9-1.6-3.7-2.2.5-1.4 12-6 13.9-5.5q1.6.2 2.8-1.4c.6-1.1 1.9-1.9 2.9-1.9s2.6-.7 3.6-1.5q3.8-3 3 .2c-.7 3.2 2.1 5.4 7.2 5.7 3.5.3 5.2-.1 6.6-1.4 1.7-1.5 8.7-3.5 9.5-2.6.2.1.6 2.4.9 5 .6 4.4.5 4.8-1.2 4.4q-1.8-.5-2.2-2.6c-.4-3-4.5-3-6.6 0-1.5 2.2-1.6 2.2-3 .3q-1.3-2.1-2.7-.8c-1.3 1-15 3.9-21.3 4.5-4.1.4-4.7 2.8-.6 2.8 1.7 0 4.5.7 6.2 1.6 2.3 1.2 4.4 1.4 8.7.9 6.8-.8 7.6-1.3 6-3.1-2-2.4-.2-2.8 4.4-1 2.3.9 6.8 1.6 9.9 1.6 8 0 8.4-.8 7-13.1-1-8.5-1-11.1.4-17 .8-3.8 1.9-7.1 2.2-7.3 1-.6 13.4 1.9 15.9 3.2 1.2.7 3.2 1.2 4.5 1.2s3.2.7 4.3 1.5c1.4 1.1 3.3 1.3 7 .9 2.7-.4 5.4-1 5.9-1.4 1.4-1.4-3.3-3.2-6.5-2.5-1.7.4-3.5.2-4.3-.4s-2.6-1-4.2-1c-2.6.1-12.5-2.9-13.7-4.1-.3-.3 3.8-.4 9.1-.3 8.8.2 9.9.4 11.6 2.5 1.8 2.3 2.1 2.3 20.8 2 14.4-.2 19.4 0 20.6 1 .9.8 4.6 1.4 9.3 1.4 7.1.2 8.3.5 13.8 3.9 6.1 3.6 9.6 4.2 9.6 1.6 0-2.2-8.7-6.9-15.2-8.1-3.2-.6-16.1-1.4-28.8-1.7-21.7-.6-23-.7-24.7-2.7-1-1.2-1.6-2.6-1.3-3.3.3-.9-1.4-1-6.6-.6-3.8.3-6.9.3-6.9-.1 0-1.2 10-12.4 11.6-13 .8-.3 2.5.1 3.7.9 1.9 1.2 2.7 1.2 6.3-.4 2.3-1.1 4.5-2.4 4.8-3 .4-.6 2-1.1 3.5-1.1 1.6 0 4-.9 5.4-2l2.6-2.1 1.6 3.7c1.8 4.3 1.8 4.4.5 4.4q-.9-.1-1-1.4c0-1.6-2.8-4.2-3.6-3.3-.3.3 0 1.5.6 2.7 1 1.9 1 2.1-.7 1.6-2.6-.8-7.7 1.8-9 4.7a16 16 0 0 1-5.7 4.8 17 17 0 0 0-4.6 3c0 .3.8 1.3 1.8 2.2 2.2 2 7.5 2.3 23.2 1.1 9.2-.7 11.5-1.2 11.5-2.4 0-1.7-2.7-1.8-19-.6-9.2.6-9.9.5-8.4-.9.9-.9 3.3-1.6 5.7-1.7q4.1 0 4.2-1.3c0-1.1 1.9-2.2 7.3-3.9 2.8-.9 3.8-4.9 2.6-10.3-1.7-7.4-2.2-15.4-1.1-16.5.6-.6 8.3-1.2 17.9-1.4 16.7-.3 16.8-.3 19.2 2.1 2.3 2.5 2.3 2.5.2 2.5-3 0-2.6 2.5.8 4.9q6.6 4.6 5.8-.8-.6-2.9.6-3.4c1.8-.7-.4-3.9-3.9-5.6l-5.6-2.8c-1.6-.8-6.2-1.3-12.2-1.3-7.7 0-9.6-.3-9.6-1.5q-.1-1.4-3.6-2.1c-4.2-.8-6.4.7-4.4 3.1 1.1 1.3.8 1.5-1.8 1.5-3 0-3.1-.1-2.1-3.3.6-1.7 2-5.2 3.2-7.6 2.4-4.9 2-4.8 15.7-1.7 7.5 1.8 13.6 2 14.5.7.7-1.3-.6-2-5.7-3.1-3.7-.8-3.3-.9 2.2-.4l8.4.8c2.8.4 5 5.4 5.2 11.8.1 4.6.9 7.1 4.3 13.2 2.2 4.1 4.1 7.8 4.1 8.1s-4.1.4-9.2.3c-9-.3-9.2-.3-10.8-3.3-1.9-3.4-1.3-3.3-19.3-1.7-9.7.9-12.6 2-11.2 4.1.7 1.3 15.1.6 19.9-1 2.6-.8 3.4-.5 6.3 2.3l3.4 3.3 11.7.2 12.3.2c1.4.2 9.2 21.5 8.1 22.5-.3.3-1.9.6-3.5.6-2.8 0-4.7-.7-14.6-5.2-7.7-3.4-33.7-3.6-34.8-.2-.3.8 3.2 1 11.6.6 10.4-.4 13-.2 19.3 1.7 4 1.2 8.8 3 10.7 3.9a29 29 0 0 0 8 2.2c3.9.4 4.7.9 4.9 2.9.2 1.3-.2 3.4-.8 4.7-1.1 1.9-.9 2.9.9 6.5a12 12 0 0 1 1.5 8.6c-.5 3.4-.3 4.8 1.1 6.3 2.4 2.7 8.8 2.6 13.2-.1 2.5-1.6 4.3-2 6.8-1.5l7 1.2c3.5.6 21.5-4.1 21.5-5.6s-3.8-4-10.5-7a43 43 0 0 1-9.5-5.5 16 16 0 0 0-4.6-2.9c-1.2-.4-2.4-1.5-2.7-2.6s-1.7-2.4-3.1-3c-2.4-.9-2.6-1.4-2.6-7.2 0-3.5-.7-11-1.5-16.7a76 76 0 0 1-1.1-10.9c.2-.2 2.5.5 5 1.6 3.6 1.6 4.7 1.8 5.6.8 1.6-2-1.3-3.8-7-4.4-4-.4-5-.8-5-2.3 0-1.6-4.7-17-6.7-21.8-.4-1.1 1.7-1.2 11.8-.8 6.8.3 13.6.8 15.2 1.2 2.1.6 2.7.4 2.7-.8 0-3-9.7-4.6-28.1-4.7-5.4 0-5.7-.2-7.2-3.3-.8-1.7-1.8-4.3-2.2-5.6l-.7-2.4 9.8.5c11.1.6 19.6 3.3 23.4 7.3 1.3 1.4 2.9 2.5 3.6 2.5 2.4 0 2.6-2.1.5-4.4l-2-2.2 2.4.1c1.4.1 2.8.4 3.1.8.3.3.8 3.9 1 7.9.9 18 1.9 21.1 7.5 22.3 1.6.4 3.1 1.1 3.5 1.6.9 1.5 7.4 3.9 10.4 3.9 1.5 0 5.3.9 8.5 2 6.8 2.3 15.7 2.7 17.4.6 1.4-1.6.3-4.9-3.7-11.4-2-3.3-4.1-5-8-6.7a16 16 0 0 1-7.2-5.7 21 21 0 0 0-5-5.6q-3.1-2.2-3-5.2c0-3.4.5-3.5 7.7-2 2.6.5 9.1 1.2 14.3 1.4 11.2.6 10 .3 10 1.7 0 1.2-15.6.7-22.7-.7-2.6-.5-3.3-.3-3.3.9 0 1.8 4 2.6 16.2 3.2 4.9.2 9.2.7 9.8 1q1 .4 1-8.4V655h-9.7c-7.6-.1-9.4-.3-7.9-1.2 1.2-.6 4.8-.8 9.7-.5 6.5.5 7.9.4 7.9-.8s-2.8-1.5-18-1.3c-10.4.1-18.4-.2-18.9-.7-.5-.6-1.2-6.2-1.5-12.5a80 80 0 0 0-6.6-31.5c-3-6.2-3.1-7.1-3.7-23.6-.6-16.6-.6-17.2 1.5-18.8 1.1-.9 3.4-3.3 5-5.3 2.9-3.6 2.9-4 2.6-13.3s-.3-9.6-4.1-13.9c-3.7-4.2-8.4-14.5-13.2-28.6l-3.8-11-1.5-4.5 3.3-5a98 98 0 0 0 12.5-19.7c2.4-4.9 5.2-9.6 6.2-10.6s2.9-3.6 4.2-5.7l2.5-4 1.2 11c.6 6 2.3 18.2 3.6 27s3.3 21.8 4.2 29 2.2 16.8 3 21.5c2.4 14.7 4.3 30.3 4.5 36.3.1 6.3 3.2 19.3 4.9 21q1 1.2 4.4-.1c1.8-.7 4.4-1.2 5.6-1.2h2.3l-.5-34.3c-.2-18.8-.7-36-1.1-38.2s-.9-5.8-1.1-8l-1.4-13.5c-.6-5.2-1.2-13.6-1.5-18.5-.5-12.3-3.5-40.2-4.6-44.4-.9-3.2-.6-3.8 3.3-8.2 2.3-2.6 4.8-4.7 5.5-4.8 1.5-.1 1.7-12.1.2-12.1-.5 0-1.4-1.8-2-4.1-1.4-4.9-3.5-4.7-3.5.5v3.6l-1.9-2.5c-1.7-2.5-1.9-2.5-3.7-.9q-2 2-1.9.3c0-.8-.3-2.3-.6-3.5-.4-1.6.4-2.7 3.7-5 4.2-2.9 7.8-8.9 7.9-13 0-1.2.7-2.7 1.5-3.4 1.6-1.3 2.1-7 .6-7-1.6 0-7.1 7-7.1 9.1 0 4.1-3.1 8.9-5.6 8.9-1.9 0-2.4-.5-2.4-2.4 0-1.4-.4-3.5-.9-4.8s-.5-4.4.1-7.3q1.9-10.6-.9-13.7c-.8-.9-1.3-2.4-1-3.3 1-2.4-.3-4.5-2.8-4.5-1.3 0-2.6-.4-2.9-.8-.4-.7-2.2-10.3-6.6-36.2-.9-5.3-2.3-20.6-2.2-23.5.1-1.1-.7-11.2-1.8-22.5l-1.9-20.5 4.8-4.5a81 81 0 0 0 7.7-8.5c1.6-2.2 5-6.7 7.7-9.9q4.6-6 4.2-7.7c-.3-1 0-2.7.6-3.8 1.9-2.9-2.7-14.5-5.9-14.9-3.7-.5-11.4 7.3-18.1 18.1-1.3 2.1-2.8 3.6-3.4 3.4s-1.7-4.1-2.4-8.8l-2.9-18.4c-.9-5.5-1.8-14.1-2.1-19-.5-7.7-.3-9.2 1.1-10.4s2.1-1.1 4.8.9c2.5 1.8 3.6 2.1 5.7 1.4 3.6-1.3 3.9-4.7.7-6.8-2.2-1.4-2.6-2.4-2.6-6.6 0-4.5-.2-5-2.2-5q-6 0-5.1 8.1c.5 4 .3 4.9-1 4.9-2.4 0-3.1-3.4-5.2-25.5-1.7-18.5-3.7-27.9-7.2-35.2-3.1-6.4-4.4-7.6-7.7-6.7-3.1.7-3.4-.6-.6-2.4 2.1-1.3 2.7-4.7 1-5.7-.6-.3-1-1.6-1-2.9a6 6 0 0 0-1.8-3.9c-1.6-1.5-2.1-1.5-3.8-.2-2.8 2.1-3.8 1.8-5.1-1.6q-1.1-3.2-3-2.7c-1.5.3-1.8 1.4-1.8 6.8 0 5.7-.2 6.5-2 6.8-4.8.9-5.3 4.1-1 6 2.2 1 2.3 1.5 1.8 6.6s-.4 5.6 2.3 8.1c1.6 1.5 3 3.4 3.1 4.3l3.7 23.9c.9 5.1 2 15.2 2.6 22.5.5 7.3 1.4 15.1 1.9 17.3.6 2.1 1.3 7.9 1.7 12.8.6 7.4.4 8.9-.7 8.5q-1.3-.6-1.7-2.4c-.9-6-1.3-6.6-3.5-6q-2.2.7-4.4-2.2c-2.1-2.6-2.2-2.6-3.9-.9-1.6 1.5-1.7 2.2-.6 4.9.9 2.6.9 3.6-.5 5.9-2.1 3.5-.5 5.9 3.8 5.9 2.1 0 2.8.5 3.1 2.1.5 3.7 3.3 4.7 6.1 2.1q4.6-4.3 4 .2c-.3 1.3.2 5.9 1.1 10.2a169 169 0 0 1 3.1 20.7q.6 5.8-.5 7.3c-1.8 2.1-3.9 1.7-5-1a9 9 0 0 0-1.9-3.1 45 45 0 0 0-17.1 9c0 .7-.7 1.8-1.5 2.5s-1.5 2.3-1.5 3.6c0 1.2-.5 2.6-1.1 3-1.2.7-.9-3.5.6-6.9.9-2.2-1.5-2.3-5.7-.1q-3.4 1.7-1.7 2.4c1.6 1 .5 2.5-1.9 2.5-.9 0-2.3 1.3-3.1 3-1.3 2.5-1.6 2.7-1.9 1.1-.2-1.1.4-2.5 1.4-3.3 3.2-2.3.8-2.4-3.3-.1-2.4 1.4-3.8 2.9-3.5 3.7q.5 1.3-1.4.7c-1.1-.3-6.5 1.4-13.4 4.4l-11.5 5-2.3-3c-2.7-3.4-6.1-3.9-6.9-1.1-.4 1.6-1.1 1.8-3.7 1.4-2.7-.4-3.5-.1-5 2.2-1.6 2.5-1.7 2.8-.1 4.5.9 1 1.4 2.3 1.1 2.9a34 34 0 0 1-12.4 4.7c-.3-.3.9-4.1 2.5-8.3l4.8-13.3c1-3 2.1-5.9 2.6-6.5s.9-1.7.9-2.7q.2-1.7 2.4-2.4c3-.7 4.7.2 4 2q-.4 1.4 1.6 2.1 4.5 1.2 1.7-2.3c-1.8-2-2.2-4.2-.8-4.2q.9.2 1.4 1.4c.3.8 1.9 2.2 3.5 3 2.5 1.3 3.2 1.3 4.8.2 1.7-1.3 1.7-1.5 0-4a7 7 0 0 1-1.1-5.6c.6-2.5.3-3-1.8-3.6-4.2-1-6.1-.1-8 3.8-1.9 3.8-4.7 5.2-4.7 2.3a90 90 0 0 1 3.6-11.7c1.9-5.7 5.1-15.3 6.9-21.3a376 376 0 0 1 14.8-42.2c.5-.7 2.1-5 3.6-9.5 2.2-6.7 3.3-8.6 5.5-9.6 4.5-2.2 7.4-12 4.4-15-.9-.9-.7-1.6.6-3.1 1-1.1 1.5-2.7 1.2-3.8q-.7-1.8 2.4-3.5c5.2-3 3.1-7.8-3.4-7.8-3 0-4.1-1.5-4.1-5.4 0-1.6-.7-3.3-1.7-4-2.5-1.5-5.7 1.9-6.1 6.4-.2 3.2-.6 3.5-4 4.1-2 .3-4 .9-4.4 1.2-.9 1 2.7 4.7 4.7 4.7.9 0 2.5.7 3.6 1.5 1.9 1.6 1.9 1.6-.1 2.8a32 32 0 0 0-12.8 16.2l-5.4 16.5-7.1 21.2c-2 6-4.2 10.8-4.8 10.8-1.8 0-6.6-4.9-5.9-6 .3-.6 1.5-1 2.6-1 3.1 0 4.4-4.1 2.5-7.9-.9-1.7-1.4-3.6-1.1-4.1.8-1.3-2.4-6-4-6-2 0-5.8 5.8-5.8 8.9 0 1.4.3 3.5.8 4.5q1.3 2.3-1.1 1.1c-4.7-1.9-6.3-1.8-7.5.9-1.1 2.3-.9 2.8 1.4 4.6 1.4 1.2 2.4 2.7 2.1 3.5-.8 2 3.3 4 5.1 2.5.8-.6 1.1-1.8.8-2.6q-.4-1.3.4-1.4c1.5 0 7 6.3 7.6 8.7.7 2.9-5.2 20.3-19.3 57.8-2.3 6-4.9 13.2-5.7 16-.8 2.7-3 8.3-4.9 12.2-3.5 7.4-4.2 8-9.8 7.4-1.1-.1-3.1.9-4.5 2.3a16 16 0 0 1-5.1 3.1c-1.4.4-3.2 1.3-4 2s-4.3 2.2-7.8 3.5c-5.8 2.1-6.4 2.1-8 .7-2.1-1.9-5.7-2.7-5.7-1.2q0 .9.9.7a8 8 0 0 1 2.8.3q2.2.6.7 2.1-1.1 1.3-2.5 1.4c-4.5 0-10.4 6.8-10.4 12.1 0 3.2-3.3 5.9-7.5 6.2l-4 .2-.8-7.3c-.5-3.9-1.2-7.2-1.6-7.2q-1 .2-2.6 2c-2.2 2.4-4.3 2.6-5.1.5q-.6-1.5-2.6-.9t-4.7-2c-2.5-2.4-2.9-2.5-4.1-1.1-1.8 2.1-2.9 1.9-2.3-.5q.7-2.1-1.4-2a5 5 0 0 1-3-1.1q-1-1-4.4 1a14 14 0 0 1-4.8 2.1c-3.3 0-13 8-13.1 10.8 0 .7-1.1 1.7-2.5 2.2-3.2 1.2-5.4 5.5-3.7 7.2.7.7 1.2 2.5 1.2 4 0 4.1-6.4 7.2-15.3 7.2-5.6.1-6.6-.1-6.1-1.4q2.5-5.7-.5-8.4c-2.1-1.9-2.2-1.9-4.9.7-1.6 1.5-3.6 2.7-4.6 2.7-2.4 0-5.6 1.8-5.6 3.3 0 .7 2.6 2.5 5.7 4.2 3.1 1.6 5.8 3.5 6 4.1.4 1.3-4.3 3.7-15.2 7.9l-13 5c-3.2 1.3-6.2 2.2-6.6 1.9-1.3-.7-3-9.7-3.6-18.3-.8-12.3-.7-11.9 0-19.8.6-6.6.5-7.3-1.3-8.3-1.1-.6-2-1.7-2-2.4s-1.2-3.5-2.6-6.2q-3.7-7-7.5-28.3c-.5-2.9-1.5-6.3-2.1-7.5-.7-1.1-1.3-4.8-1.5-8.1s-.8-7.4-1.4-9c-1.2-3.5-4-17.5-4.4-22.3-.2-1.8-.8-3.8-1.4-4.5s-1.3-4.2-1.5-7.7c-.4-5.3-.1-7.1 2-11.1 2.3-4.6 2.3-5 .8-8.3-2.4-4.9-1.3-8.6 2.6-8.6 1.6 0 4.1.5 5.6 1 2.1.8 3.1.7 4.5-.6 1.1-1 1.9-2.3 1.9-3.1 0-2.2-3.8-5.3-5.7-4.6q-1.9 1-.8-1.3c1.6-4 1.6-6.1 0-7.8-1.6-1.6-1.9-1.6-3.7.1-3.8 3.4-7.8 10.4-7.8 13.5 0 1.7-.2 2.9-.4 2.7s-2-6.5-4-14.1a73 73 0 0 1-3.5-25c0-9.5-.3-11.9-2-15.3-1.6-3-2.1-5.8-2.1-11.8 0-4.3-.5-8.8-1.2-10s-1.5-6.9-1.8-12.7a44 44 0 0 0-2.4-14.3c-1.6-3.3-1.7-4.3-.6-7.7 1.6-4.7.9-7.4-2.9-12.7q-3-4.3-5.8-4.5c-3.8-.4-4-2.9-.3-5 3.5-2 4.2-5.8 1-5.8a13 13 0 0 0-5.1 1.6c-3.8 1.9-6.1 1.2-5.7-1.8.2-1.9.9-2.3 3.7-2.3 2.6-.1 4-.8 6.2-3.5 3.4-4.1 3.6-5 .8-5q-2 0-3 3c-1.2 3.2-4.5 4.2-5.5 1.5-.7-1.7 1.4-4.8 2.6-4q.8.4 1.5-.5c1-1.6-1.8-1.1-5.2 1l-3.2 1.9.2-4.7c.1-3.5-.4-5.5-2.1-8-2.9-4-3.7-4-5.7-.2m4.9 3.6c.7 1.9-.1 5.4-1.4 5.4s-1.9-2.6-1.3-4.9c.6-2.5 1.8-2.7 2.7-.5M59 50.7c0 1.4-3.4 4.3-5 4.3q-3.6 0-1.9-3.1c.9-1.8 6.9-2.8 6.9-1.2m16.6 5.1c-.8.9-1.9 1.3-2.2.9-1-.9 1.6-3.8 2.8-3.1q.9.7-.6 2.2M70.5 61c2.4 0 2.6 3 .2 3.9-1.3.5-3.6 2.5-5.1 4.5s-3.2 3.4-3.7 3q-.8-.6-.2-1.7c.4-.6.6-2.6.5-4.3-.2-2.4.3-3.7 2-4.8 1.3-.9 2.9-1.4 3.6-1.1s2 .5 2.7.5M82 69.5q1.3 1.5.5 5.8l-.9 7.1c-.2 1.7-.8 3.2-1.3 3.3-1.7.6-2.2-5-.7-7.9 1.8-3.4 1.8-4.2 0-3.5q-1.3.4-1.8-.5c-.2-.6-1.9-1.1-3.7-1-3.2.1-3.2 0-1.6-1.8 1.5-1.7 3.3-2.4 7.1-2.9.6 0 1.7.6 2.4 1.4m339.7 11.7q-.5 1.1-.6-.6t.5-1.3c.3.3.4 1.2.1 1.9M77.8 89.3q.2 1.6-1.2 1.7-1.5-.2-1.6-2.1c0-2.4 2.3-2.1 2.8.4M421.5 91c0 1.8-3.3 2.6-4.8 1.1q-1.4-1.2.3-2.1c2.1-1.4 4.5-.8 4.5 1M84.8 95.9c1.4 4.7 1.5 5.1.2 5.1-.8 0-3-6-3-8.3 0-2.2 1.8-.2 2.8 3.2m344.2-.3q0 1.5-1.5 1c-1.6-.6-5.5 3-5.5 5.1q.2 1.2 1.8 1.3c3.2.1 7.4 5 4.2 5q-.9.2-1 1.7c0 1.5-.1 1.5-1.2.1a6 6 0 0 0-3.3-2c-2.4-.4-3-3.6-1.5-8.2 1.4-4.4 8-7.7 8-4m3 6.8c0 1.1-1.9 1.5-2.5.6q-.4-.9.9-1 1.5 0 1.6.4m-378.6 3.2q2.5 2.3 1 3.7c-1.5 1.4-4.4-1.7-4.4-3.5q.2-3.3 3.4-.2M86 108q-.1.9-1.1 1-.8-.1-.4-1t1.1-1q.3 0 .4 1m296 6c0 3.8-1.5 5.4-2.6 2.7-.5-1.4 1.1-6.7 2.1-6.7.3 0 .5 1.8.5 4m-295-.6c0 1.6-1.8 3.1-2.7 2.2-.8-.8.5-3.6 1.7-3.6q.9.1 1 1.4m357.2 5.8q-1.3 1.5-1.2-1.2c.1-2.7.3-2.1 1.2-1.2q1.3 1.2 0 2.4m-53.3 1.7c1.6 2.8-.7 4.1-3.8 2.2-1.2-.8-1.2-1.2-.2-2.5 1.8-2.1 2.8-2 4 .3m38 3.3q0 5.7-.9 3.3c-1.2-2.8-1.2-8.5 0-8.5.6 0 1 2.4.9 5.2m-372.1-2c-.7 2-4.8 2.3-4.8.4q0-1.6 2.6-1.6 2.5 0 2.2 1.2m320.7-.3q.4.9-.4 1.5c-1.2.8-4.1-.3-4.1-1.5s3.7-1.2 4.5 0m-289.1 8c.3 3.8.2 8-.3 9.3q-1.1 2.8-1 .4a8 8 0 0 0-1.7-3.8c-1.3-1.4-1.4-2.1-.5-3.2a6 6 0 0 0 1.1-3.8q-.4-5.7.9-5.8c.4 0 1.1 3.1 1.5 6.9M442 124q0 .9-1 1a1 1 0 0 1-1-1q.1-1 1-1t1 1m-58 1q-.1.9-1.1 1-.8-.1-.4-1 .6-1 1.1-1 .4 0 .4 1m3 5q-.1.9-1.5 1c-1.4.1-1.5-.5-1.5-1q.1-1 1.5-1c1.4 0 1.5.4 1.5 1m51 .2c0 1.9-1.8 4.3-2.5 3.6-.9-.9.4-4.8 1.6-4.8q.8.1.9 1.2m-56.5 1.8q.4.9-1.4 1c-1.1 0-2.3.4-2.6 1-.8 1.2-2.5 1.3-2.5.2 0-.8 3.6-3 5.2-3.1q.7 0 1.3.9m61.5 3q0 .9-1 1a1 1 0 0 1-1-1q.1-1 1-1t1 1m-70 .4q-.2.5-1.7 1.7-2.4 2-.4-.4t2.1-1.3m64.6 4.3c-1 1-1.9-.5-1-1.8q.8-1.7 1.2 0 .3 1.2-.2 1.8m-54.6-.3c0 1.7-1.4 2.9-2.3 2s.3-3.4 1.4-3.4q.8.1.9 1.4m62 .6q-.1.9-1.1 1-.8-.1-.4-1 .6-1 1.1-1 .4 0 .4 1m-75.8 2.7c-.5 2.5-.4 2.7 1.2 1.4 2.6-2.2 3.1-.5 1 3.4-2.1 4-3.9 4.6-3 1q.8-2.7-.9-1.9c-2 .8-1.9-1.5.1-4.4s2.2-2.8 1.6.5m16.8 1c0 2.4-1.7 4.9-2.6 4-.4-.4-.1-1.8.6-3.2 1.6-3 2-3.1 2-.8M91.6 156.4c.2 5.8-1.5 4.8-2.3-1.4-.5-3.3-.3-4.2.7-3.8.8.2 1.4 2.3 1.6 5.2m368.4-2.8q0 1.3-1 .9-.9-.6-1-1.6.1-.8 1-.9 1 .1 1 1.6m-23.9 3.7q-1.1 1.2-1.1-.9c0-2.7 1.4-4.1 1.8-1.9.2.9-.1 2.2-.7 2.8m-68.8-.2c-2.7 10.2-7.3 18.7-7.3 13.4 0-2.3 6.3-16.4 7.2-15.9.3.2.4 1.3.1 2.5m79.5-2q-.4 1-1.3 1-1.2 0-1.3-1t1.3-1.1c1.5-.1 1.5.5 1.3 1.1M79 162c0 2.2-.4 4-1 4-1.1 0-1.4-6.3-.3-7.3 1.1-1.2 1.3-.8 1.3 3.3m291.2.2q-1.1 1-1.2.2c0-1.4 1.2-2.6 1.9-1.9q.3.6-.7 1.7m67.8.8c0 1-.5 2.2-1 2.5-1.3.8-2.4-2-1.6-4.1s2.6-.9 2.6 1.6M93.6 176.9c.3 11.5.2 11.6-1.6 9.3-1.6-1.9-1.7-2.8-.8-4.7q1.2-2.5 0-3.8-1-1.3-.5-2.1c1.4-1.4 1.2-7.4-.3-8-1.7-.7-1.9-4.3-.1-4.9 2.2-.8 3 2.6 3.3 14.2M464.5 163q-.6.9-1.6 1-.8-.1-.9-1 .1-1 1.6-1 1.3 0 .9 1M83 167.1q0 1.8-1 1.4c-.5-.3-1-1.3-1-2.1s.5-1.4 1-1.4q1 .2 1 2.1m285.4 1q-.6.8-1.5.3t-.3-1.5q.6-.8 1.5-.3t.3 1.5m70.6 2.5q0 1.3-1 .9-.9-.6-1-1.6.1-.8 1-.9 1 .1 1 1.6m5 2.9q0 1.4-.9 1.5c-.9.1-1.1-.7-1.5-1.5q-.4-1.4.9-1.5 1.4.1 1.5 1.5m-104.4 7.3c-1.2 1.2-1.8-.8-1-3.5l.8-2.8.4 2.8c.2 1.6.1 3.1-.2 3.5m101.4-3.3q0 1.4-1 2-1 .4-1-2c0-2.4.4-2.4 1-2q1 .6 1 2M112 181q-1 1.9-1.7 1.7c-.2-.3.1-1.5.7-2.7q1-1.9 1.7-1.7c.2.3-.1 1.5-.7 2.7m329 5.6q0 3.3-1 2.9c-.5-.3-1-1.9-1-3.6 0-1.6.5-2.9 1-2.9s1 1.6 1 3.6m-106.2.1q.2 1.3-1.7 1.3c-2.1 0-3.5-1.3-2.4-2.4 1-1 3.6-.3 4.1 1.1m-216.1.8q1.3 3.4-3.1 1.4-2.8-1.3-1.4-2.1c2-1.2 3.8-.9 4.5.7m323.4 7.5c.4 4.4-.1 6-1.6 6q-1.4 0-1.5 1.2 0 1-.6.5-.5-.7.5-2.1c.8-.9 1-2.7.6-4.5-.7-3.3.2-5.8 1.5-4.4.5.4 1 1.9 1.1 3.3M98 198.4q0 .6-1 1.1-.9.4-1-.4.1-1 1-1.1 1 0 1 .4m326.5.6c-.3.5-1.5 1-2.6 1s-1.7-.5-1.4-1 1.5-1 2.6-1 1.7.4 1.4 1m-319.1 5.1c-1 1.6-2.4.9-2.4-1.2 0-1.8.2-1.9 1.5-.9q1.3 1.2.9 2.1m376.1 2.1c-.8 5-2.2 6.9-3.4 4.9q-.8-1.5-1.6-.1-.7 1-2.1.6c-.8-.3-2.3.5-3.5 1.7l-2.1 2.2 1.6-3.1a33 33 0 0 1 10.9-10.4c.5 0 .6 1.9.2 4.2m-28.8 0q-.5 1.1-.6-.6t.5-1.3q.5.7.1 1.9m-354.7.2c0 .8-.4 1.8-1 2.1q-.9.3-1-1.4.1-2 1-2.1 1 .1 1 1.4m-6.6 5.1q.4 1.3-.4 1.5-1-.2-1-1.5c0-1.3.2-1.5.4-1.5s.6.7 1 1.5m349.6.9c1.1 2.9.2 7.5-1.1 5.4-.5-.7-.6-2-.3-3q.3-1.5-.6-2.3c-1.3-.8-1.3-2.5 0-2.5.6 0 1.5 1.1 2 2.4m-89-1q0 .5-1 1.1-.9.4-1-.4.1-1 1-1.1 1 0 1 .4m132.8 2.6c.1 1.6-.2 3-.8 3-1.1 0-1.4-4.3-.3-5.3.9-1 .8-1 1.1 2.3M98 215.5q0 2.3-.4 2.5c-.4.2-.6-1.1-.8-2.5q-.4-2.3.3-2.5.8.2.9 2.5m254.6 8.2c-.7 2-1.8 3.9-2.5 4.1q-1.4.5.3-2.6c.9-1.7 1.6-3.8 1.6-4.7q0-1.5.9-1c.6.3.5 2-.3 4.2m102.1-1.5q-.5 1.1-.6-.6t.5-1.3q.5.7.1 1.9m-9.9 5.5c.5 1 .7 2.4.5 3.1-.3.7 0 1.9.6 2.6.9 1.1.8 1.8-.4 3-.9.9-2 1.6-2.4 1.6-1 0-2.4-9.7-1.6-11 .9-1.5 2.3-1.2 3.3.7M102 233.6q-.2 1.3-1.5 1.4c-1.5 0-2.1-2.1-.9-3.3 1-.9 2.4.2 2.4 1.9m354.7 4.6q-.5 1.1-.6-.6t.5-1.3q.5.7.1 1.9m-10.1 3.5c-1 1-1.9-.5-1-1.8q.8-1.6 1.2 0 .3 1.2-.2 1.8m-101.1-.8q.4.9-.5 1.6-.9.4-1-.9 0-2.7 1.5-.7m99.1 3.8q-.7 2-1.6.4c-1.1-1.9-.1-4.6 1.3-3.2.5.5.7 1.8.3 2.8m-100.4 1.8q-.1.9-1.1 1.3-1 .2-1.1-1.3c-.1-1.5.5-1.5 1.1-1.3q1 .4 1.1 1.3m-238.6 4c.7 1.9 1.4 4.1 1.4 5 0 2.7-3.1 1.6-4.3-1.5-.6-1.7-1.5-3-1.9-3q-.7-.2-.8-2c0-3.5 3.9-2.5 5.6 1.5M423 248q-.1.9-1.1 1-.8-.1-.4-1 .6-1 1.1-1 .4 0 .4 1m-61.5 1q.4.9-.9 1-1.5-.1-1.6-1 0-1 .9-1t1.6 1m64.5-.6q0 .6-1 1.1-.9.4-1-.4.1-1 1-1.1 1 0 1 .4m-8 1.6q-.1.9-1.1 1-.8-.1-.4-1 .6-1 1.1-1 .4 0 .4 1m-76.5 1q.4.9-.4 1-1-.1-1.1-1 0-1 .4-1t1.1 1m94 2q-1.7 1.8-2.3 1.5-.3-.7 1.3-2.5c1.6-1.8 2-1.8 2.3-1.5q.3.7-1.3 2.5m-104.6 5.1c-.8.4-1.4 1.4-1.5 2.1-.3 3.3-.5 3.8-1.9 3.8-2 0-1.9-.5.7-5.7 1.8-3.6 2.3-4.1 3.1-2.7q1 1.6-.4 2.5m6.1-3.7q0 .6-1 1.1-.9.4-1-.4.1-1 1-1.1 1 0 1 .4m70.5 1.5q-.6 1-1.7.5-.9-.6.3-1.5 2.6-1.3 1.4 1M436 258q-.1.9-1.1 1-.8-.1-.4-1 .6-1 1.1-1 .4 0 .4 1m-9.2 4.7q-1.7 2 .2.8c.8-.4 2.3-1.5 3.3-2.3s2-1.2 2.4-.9c1 1-3.7 5.6-5.6 5.5-3.5-.3-4.9.3-5.4 2.2a4 4 0 0 1-2.4 2.7c-1 .4-2.3 1.4-3 2.2q-1.2 1.8-1.3.2c0-1.8 12.4-14.5 12.8-13.1.2.6-.2 1.8-1 2.7M108.5 272c2.2 12.6 1.8 17.6-.6 7.5-1.1-4.4-2.2-8.7-2.6-9.5s-.8-2.6-.9-4-.5-3.4-.9-4.5c-.8-2-.8-2 1.3 0 1.5 1.4 2.6 4.5 3.7 10.5m229.5-9.4q-.1 1.3-1 .9-1-.7-.5-1.6 1.4-2 1.5.7m104.5.4c-.3.5-1.1 1-1.6 1q-.9-.1-.4-1a2 2 0 0 1 1.6-1q.9 0 .4 1m9.5.5q0 1.4-1 1.5-.9-.1-1-1.5c-.1-1.4.5-1.5 1-1.5q1 .1 1 1.5m-16 .3c0 1.3-1.2 2.2-2.2 1.6s-.1-2.4 1.3-2.4q.8.1.9.8m-51 2.2q-.1.9-1.1 1-.8-.1-.4-1 .6-1 1.1-1 .4 0 .4 1m24.4.9q.4 1-.8 2c-1.6 1.3-3.2-.2-2.1-1.9.8-1.2 2.2-1.3 2.9-.1m6.3-.3q-.7.5-1.9.1t.6-.6q1.8 0 1.3.5m-90.7 7.1-2.1 3.8.6-4.4q1-8 2.7-4.8.9 1.6-1.2 5.4m57-6c-.1.5-.6 1.8-1.3 3-1.1 1.9-1.4 2-3.1.7q-1.8-1.2-1.5-1.6c4.7-2.9 5.9-3.3 5.9-2.1m67 .3q0 .9-1 1a1 1 0 0 1-1-1q.1-1 1-1t1 1m4 2.1q0 1.8-1 1.4c-.5-.3-1-1.3-1-2.1s.5-1.4 1-1.4q1 .1 1 2.1m-8.2 5.1c1.9 10.1 3.3 19.4 4.7 32.3l2.1 16.2c.6 3 .4 3.2-2.2 3-2.8-.3-2.9-.4-2.6-5.3q.4-9.3-5.1-7.5-2.2.9-6.9-1c-2.6-1-4.9-1.5-5.2-1-.9 1.4 3.3 8.5 5.6 9.7 1.3.7 2.5 2.3 2.8 3.6a3 3 0 0 0 3 2.6c1.4.2 2.9.8 3.5 1.3.5.5 2.3.9 4.1.9s3.6.6 4.1 1.2c.6.7 2 6.7 3.1 13.3 2 11.7 2 12.1.3 17.3a51 51 0 0 0-1.9 15.9c-.1 6.1-.6 11.1-1.2 11.7-.7.7-5.6 1-13.2.8l-12-.2-2.9-3.1-3-3.2-8.2.8c-4.5.5-10.4 1-13.2 1.1s-5.8.5-6.7.9c-3.7 1.5-1.6-1.4 2.8-4 3.4-2 4.5-3.2 4.1-4.6q-.4-1.8 1.4-2.4c2.1-.7 2.6-2.5.7-2.5-1.7 0-4.8-3.1-4.8-4.9 0-4-2.4-9.4-5.6-12.6-1.8-1.9-3.4-4.1-3.4-4.8 0-2.2-7.2-6.7-10.7-6.7q-3.2-.1-3.6 2-.6 1.8-1.6 2-1-.2-1.1-2c0-2.3-.6-2.4-4-.5-1.4.8-3.6 1.4-4.9 1.5-2.3 0-2.1-.3 1.9-3.8 2.4-2 6.5-5.7 9-8.2s8.3-8 13-12.2 11.7-10.5 15.5-14.2 7.8-6.9 8.7-7.2 2-1.4 2.3-2.4c.8-2.6 27.2-29 29-29q1.4.1 2.3 5.2M335 272.4c0 1.1-1.9 1.5-2.5.6q-.4-.9.9-1 1.5 0 1.6.4m65.8 8.3L389 292a181 181 0 0 1-9.5 8.2c-3.9 3.1-11 9.9-15.7 15a440 440 0 0 1-32.4 32.8c-1.7 0-8.3-11.1-8.9-14.8-.3-2.1-1.2-4.9-1.9-6.4-1.2-2.3-1.1-3.4.9-9.3 1.3-3.7 2.5-6.8 2.7-7 1.2-1.1 12.1-6 19.9-9 11.6-4.5 19.1-7.7 20.3-8.7q.8-.8-.4-2.3-1.4-1.6-.2-2.7c1.3-1.3 3.2-.2 3.2 1.8 0 2.5 2.6 1.6 18.1-6.1a184 184 0 0 1 16.3-7.5c.6 0 2.2-.9 3.6-2s3.1-2 3.8-2-2.9 3.9-8 8.7M412 277q0 .9-1 1a1 1 0 0 1-1-1q.1-1 1-1t1 1m-26.2 2.2q-.6 1.2-2.4 1.7-2.4.6-.5-1.3c1.6-1.9 3.4-2.1 2.9-.4M330 282q0 .9-.4 1-.5-.1-1.1-1-.4-1 .4-1 1 0 1.1 1m18 4.4c-.5 1.5-1.4 2.5-2 2.1-1-.6-.4-3.1 1.4-5.4 1.5-1.9 1.9.1.6 3.3m114.2-2.2q-1.1 1-1.2.2c0-1.4 1.2-2.6 1.9-1.9q.3.6-.7 1.7M318.8 288c-1.1 2.8-2.3 4.8-2.5 4.6-.5-.5 3.4-9.6 4.1-9.6.3 0-.5 2.3-1.6 5m53.2-2.1c0 1.4-1.8 2.3-3.1 1.5q-1.2-.6.2-1.5 2.8-1.7 2.9 0m-32.4 2.8c-1 1-1.9-.5-1-1.8q.8-1.7 1.2 0 .3 1.2-.2 1.8m69.4-1.9c0 .5-1.2 1.4-2.7 2.1l-2.8 1.2 2.5-2.1c2.9-2.2 3-2.3 3-1.2m47 .8q0 1.5-1.5 1t-1.5 1.5c0 2.4-2.3 2.1-2.8-.4q-.2-1.7 2-2.6c3.3-1.4 3.8-1.3 3.8.5m-342.4 5.1c-.4.4-1.4-.1-2.2-1.1-2.2-3.1-1.7-4.3.8-1.9 1.2 1.3 1.8 2.6 1.4 3M361 291c0 1.2-2.8 2.5-3.6 1.7s.6-2.7 2.2-2.7q1.3.1 1.4 1m49.5 0q-.6.9-1.6 1-.9-.1-.4-1a2 2 0 0 1 1.6-1q.9 0 .4 1m4.5 1q-1.1 1.8-2.2 1.4-1-.7.7-2.1 3.6-2.8 1.5.7m41.8 6.4c-.2 1.1-.7 2.1-1.2 2.1-1 0-1.7-8.4-.8-10 .8-1.3 2.4 5.1 2 7.9m7.2-4.4q0 .9-1 1a1 1 0 0 1-1-1q.1-1 1-1t1 1m-114.5 1q.4.9-.4 1-1-.1-1.1-1 0-1 .4-1t1.1 1m-236 1q.4.9-.4 1-1-.1-1.1-1 0-1 .4-1 .6 0 1.1 1m263.9 11.9c-10.1 9.9-12.9 13.2-12 14.2q1.3 1.3-.8.5c-1-.3-2.5-.1-3.2.5q-1.4 1.1-1.4.1c0-1.7 27.1-28.2 28.8-28.2 1 0-4 5.6-11.4 12.9m19.3-11.2q-1.5 1.4-2.3 1.1c-1-1 .6-2.8 2.4-2.8 1.5 0 1.5.1-.1 1.7m7.4.7c-.7.8-1 2-.7 2.5.9 1.3-.5 2-2.6 1.2-1.6-.6-1.5-.9.8-3.4 2.6-2.8 4.8-3 2.5-.3m-99.1.6q.1 1.8 1.5 2c1.4.2 1.5-.7 1.5-1.5s.4-1.5.9-1.5c1.4 0 0 4.1-1.6 4.7q-2.4 1.1-3.8-3.5-.5-2 .4-2.2 1 .2 1.1 2m36 1.2q-.1.8-1.5.8c-1.5 0-2-2.1-.8-3.3.7-.7 2.3 1.1 2.3 2.5m-27.1 2q-1.2 2-1.6 1.1c-.3-.7.1-2.2.8-3.5q1.2-2 1.6-1.1c.3.7-.1 2.2-.8 3.5m77.6-1.2q-.6.9-1.6 1-.9-.1-.4-1a2 2 0 0 1 1.6-1q.9 0 .4 1m-61 3.3q-3.1 1.5-2.1-1.9c.5-1.3.9-1.4 2.2-.3s1.4 1.3-.1 2.2M110 302q0 .9-.4 1-.6-.1-1.1-1-.4-1 .4-1 1 0 1.1 1m344.8 4.8c2.1-.4 3 4.1 1 5.4q-1.5 1 0 1.5c1.8.7 1.5 2.1-.5 1.9q-3.2 0-3-10.1 0-5 .4-1.7.4 3.4 2.1 3m-57.3-3.8q-.6.9-1.6 1-.8-.1-.9-1 .1-1 1.6-1 1.3 0 .9 1m67.5 0q0 .9-1 1a1 1 0 0 1-1-1q.1-1 1-1t1 1m-154 5.7a18 18 0 0 1-2.1 4.7c-.5.6-.9 2-.9 3.3q0 2.1-.9 2.3c-.9 0-.5-3 .9-6.5l2-5.3c1.7-4.5 2.5-3.3 1 1.5m82.2-.5q-1.3 1.5-1.2-1.2c.1-2.7.3-2.1 1.2-1.2q1.3 1.2 0 2.4m-87.4-.5c-.5 2.6-3.8 2.9-3.8.4q0-2.2 2.1-2.1 2 0 1.7 1.7m-9.2 1.9c-.8 3 1.6 6.4 4.4 6.4 1.6 0 1.6.3.1 5.5-1.6 5.6-3.8 7.8-2.6 2.7.4-2.2 0-3.3-2-5.2a8.4 8.4 0 0 1-1.5-10.1c1.5-2.7 2.3-2.4 1.6.7M283 309q-.1.9-1.1 1-.8-.1-.4-1 .6-1 1.1-1 .4 0 .4 1m97.8 1.8-1.5 2.1q-.3.2-1.3-.4-1.2-.7.6-2.6c2-2.2 4-1.4 2.2.9m9.2-.3q1.7 1.8-.4.9-1.5-.6-1.6-1.5 0-2 2 .6m-117.4 1.1c-.3.9-.6 2-.6 2.5s-.9.9-1.9.9q-1.8 0-2.3 1.2-.4 1.3-1.2 0-.5-1.2 1.8-3.7c2.8-2.8 5.1-3.3 4.2-.9m-53.2 1.9.8 2.2c.2.3-.8.8-2 1-1.3.2-3.3 1-4.5 1.8-4.9 3.4-6.6.1-2.1-4 3-2.8 6.9-3.3 7.8-1m247.1 1.6q-.7.8-2.2.9-1.9.1-.3-1.5c1.3-1.5 3.5-1.1 2.5.6m-341.5 1c0 1.7-.4 2-2.2 1.5-2.3-.7-4.8-1.4-5.8-1.5-1.5-.3 2.9-2.1 5.3-2.1 2.1 0 2.7.5 2.7 2.1m106.3-1.4c.4.3-.1 1.5-1 2.5-1.6 1.8-1.6 1.8 0 1.2 2.6-1 2 1.5-.6 2.7-2.4 1.1-7.7-.2-7.7-1.9a24 24 0 0 1 8.1-5.2q.6 0 1.2.7m157.7-.3q0 .6-1 1.1-.9.4-1-.4.1-1 1-1.1 1 0 1 .4m-273 1c0 1.1-1.9 1.5-2.5.6q-.4-.9.9-1 1.5 0 1.6.4m259 1.1q-1.2 1.4-1.7 1.1c-.7-.7.7-2.6 1.9-2.6q1 0-.2 1.5m63.8 2.8c.5 2.4-1.5 2.1-2.8-.4-1-1.8-.9-2 .7-1.7q1.6.4 2.1 2.1m20.2.8q.8-1.2 2-.6 1.4.8-1.1 2.6c-3.3 2.5-4.8 2.4-5.9-.7-1.5-3.7-.1-5.2 2.2-2.4 1.5 1.9 2.1 2.1 2.8 1.1m-179-.5q0 1.3-1 .9-.9-.6-1-1.6.1-.8 1-.9 1 .1 1 1.6m-161.4.9c-.6 1.7 1.9 2.1 2.9.5.3-.6 1.5-1 2.6-1 2.8 0 1.5 1.7-3.2 4.1-3.8 1.9-5.8 4.3-4.6 5.6.3.3 2-.5 3.6-1.7 3.7-2.6 4.1-1.3.6 2-1.4 1.3-2.5 2.7-2.5 3.2 0 1.8 3 .6 5.3-2.2a12 12 0 0 1 3.1-3c1.5 0 .4 3-1.9 5.1-3.1 3-3.3 5.3-.4 4.4 2-.7 2-.5-.5 2.7-1.4 1.9-2.6 4-2.6 4.6s-1.1 1.9-2.5 3a6 6 0 0 0-2.5 4.6c0 3-2.4 3.6-3.8.8-.5-.9-1.3-4.4-1.7-7.7a36 36 0 0 0-2.5-9.6 18 18 0 0 1-2.2-10.1c.2-1.8 5.4-4.8 8.3-4.8 1 0 2.1-.5 2.4-1 1-1.6 2.8-1.2 2.1.5m126-.3c.4.6-.3 1.9-1.6 3q-5.1 4-2.3-1.2c1.9-3.2 2.8-3.7 3.9-1.8m50.2 5.8c1.2 3 2.1 7.2 1.9 9.2-.2 3.4-.5 3.7-4.5 4.8q-4.2 1-3.9 2.3c.4 1.2.9 1.2 5.2.7 5.1-.6 9.5 0 9.5 1.4 0 2.3-2 3-4.5 1.6-1.7-.9-3.7-1-7.2-.4l-4.8.9v7.8l.1 7.7h-4.1c-2.9 0-4.4-.5-5.3-2-1-1.7-2.1-2-7-1.8l-5.7.3v-9.6q0-9.6 1.3-11.2c.7-.9 1-2.5.7-4q-.6-2.5.7-3.3a151 151 0 0 1 24.9-10.6zm-84.3-4.6a17 17 0 0 0 4.5-.5q1.5-.3 1.2 1.3c-.4 2.5 8 6.2 12.3 5.4q6.7-1.3-.1 2.2l-3.6 1.9 2.7 2.1c1.5 1.2 4 2.2 5.6 2.2 3.9 0 4.7 1.9 1 2.6-3.6.7-3.7 1.1-1.4 3.6 1.3 1.4 1.4 2.1.5 3-1.5 1.5-1.6 5.5-.2 6.3 2 1.3 1 5.2-1.6 6.4-2.1.9-2.5 1.7-2.2 3.9.3 1.5.8 3.4 1.2 4.2q.7 1.6-2.3 2.7c-3.3 1.2-4.1.8-4.1-1.9 0-1-1.2-3-2.6-4.3-2.5-2.3-2.6-2.7-1.4-5.5.7-1.7 2.6-3.8 4.2-4.6 3.6-1.9 3.1-4-.8-3.6-3.4.3-6.7 1.8-11 4.9s-6.1 2.9-8.4-1.6a21 21 0 0 0-2.9-4.6q-1-.6-.5-2 .7-1.3 1.5-.9c1.2.7 5.9-2.3 5.9-3.7q0-1-3-.4c-2.5.6-3 .4-2.8-1.2.3-3.6-.2-5.2-1.9-5.7-2-.6-2.8-6.7-.9-6.5 2.4.4 4.7-1.3 4.1-3.2-.8-2.6.3-4.2 2.4-3.3.9.4 3 .8 4.6.8m257-.4q.4.9-.9 1-1.5-.1-1.6-1 0-1 .9-1t1.6 1m-192.6 2.1q-2.6 1.3-1.4-1 .6-1 1.7-.5.9.6-.3 1.5M443 322q0 .9-1 1a1 1 0 0 1-1-1q.1-1 1-1t1 1m-174 3q-.1.8-1.5.4-1.3-.7-.9-1.5c.6-1.1 2.4-.2 2.4 1.1m45-1q0 .9-1 1a1 1 0 0 1-1-1q.1-1 1-1t1 1m-71 3.5q-1.2 1.4-1.8 1-.4-.5.8-2 1.2-1.4 1.8-1 .4.5-.8 2m22.4-.4q-.6.8-1.5.3t-.3-1.5q.6-.8 1.5-.3t.3 1.5m47.6 1.1c0 .5-1.2.5-2.7.2-3.7-.9-4.4-1.4-3.8-2.4s6.5 1.1 6.5 2.2m150.6-2c.3.3-.7 1.5-2.3 2.5-5.1 3.6-5.3 3.6-5.1.6.1-1.5.3-3.1.5-3.4.3-.8 6.1-.5 6.9.3M361 327q-.1.9-1.1 1-.8-.1-.4-1 .6-1 1.1-1 .4 0 .4 1m-99.3 2.2q1 2.3.1 4.8c-.5 1.4-1.1 3.5-1.2 4.7a8 8 0 0 1-2.7 4.2l-2.4 2 2.3.1c2.5 0 2.6.7 1.2 4.4q-.9 2.6-2.5 2c-2.4-1-1.8 2.1.7 3.8 2 1.3 2.1 1.7.9 3.2-1.2 1.4-1.1 1.9.5 3.7a23 23 0 0 1 3.7 14.4c-.3 1.6-1.5 4-2.6 5.2-1.6 1.9-1.8 2.5-.7 3.8q1.3 1.5.1 1.5-1-.1-1.1-1c0-1.7-2.5-1.1-4.3 1-2.4 2.8-7.7 2.8-7.7-.1 0-2.6-1.7-5.9-3.1-5.9-1 0-.8 2.1.7 7.2q.4 1.6-.5 1.8c-.9.2-1.1-.6-1.1-1.4 0-1.8-4-6.7-5-6.1q-.7.6-.2 2.8.9 2.7-1 1-2.8-2.2-2.8 2.3c0 1.8-.4 2.1-2.2 1.6s-2.1-.2-1.5 2.8c.6 2.8.5 3.1-.7 2-2.4-1.9-3.9-7.6-2.7-9.8q1.2-2-.4-3.2c-1.2-1-1.1-1.7 1-4.4 1.4-1.8 2.5-4 2.5-4.9 0-2.9 1.6-2.7 3.9.4q2.4 3.3 3.4 2 1-1.1 2.5.2c1.3 1 1.4.6.8-3.1-.5-3.1-.2-4.9.9-6.5a10 10 0 0 0 1.5-4.6c0-1.3.6-3.2 1.3-4 2.4-2.7 4.2-15.7 2.9-19.5-2-5.4-1.6-7.5 1.6-8.1l5.7-1.4c5.2-1.5 7.1-1.2 8.2 1.1m49.5 3.1c.4.6.4 2.4.1 3.9-.7 3.3 1.3 3.8 5.2 1.2 3.1-2 3.2-.8.3 2.3-2.2 2.3-4.8 3.1-4.8 1.3 0-.5-1.6-1.7-3.6-2.6-3.5-1.7-3.9-1.7-6.7-.1-1.6 1-3.1 1.6-3.3 1.4-.3-.3 2.3-6.4 3.2-7.6.1-.1 1.7.4 3.5 1.3 3.9 2 4.9 2 4.9.2q-.2-1.4-2.5-2c-1.4-.4-2.5-1.1-2.5-1.6 0-1.2 5.2.7 6.2 2.3M238 331q-.1.9-1.1 1-.8-.1-.4-1 .6-1 1.1-1 .3 0 .4 1m232 .4q0 .5-1 1.1-.9.4-1-.4.1-1 1-1.1 1 0 1 .4M360.5 335c.8 1.3-1.4 4.2-2.6 3.4q-.8-.4-.9.9c0 1.9-5.6 7.1-6.4 5.8-.4-.5.4-1.7 1.7-2.6 1.3-.8 3.2-3.1 4.3-5 1.9-3.7 2.8-4.2 3.9-2.5m109.5 1.6q0 1.4-1.2 1.2c-1.8-.6-2.1-2.8-.4-2.8q1.5.1 1.6 1.6m-10 .9q0 1.4-1 1.5-.9-.1-1-1.5c-.1-1.4.5-1.5 1-1.5q1 .1 1 1.5m-294.4 2q1.6 1.4.8 1.5c-.5 0-1.9-.7-3-1.5q-1.6-1.4-.8-1.5c.5 0 1.9.7 3 1.5m31.5 4.2a14 14 0 0 0 1.8 5.7c1.9 2.2.8 3-1.8 1.5-2-1.3-4.5-9.4-3.4-11.2s2.8.2 3.4 4m112.1-2c2.9 3.4 3.3 14 .4 13q-1-.6-.7-1.8 1.2-5-1.8-8.3c-1.1-1.2-2.1-2.8-2.1-3.4 0-1.8 2.5-1.4 4.2.5M471 341q0 .9-1 1a1 1 0 0 1-1-1q.1-1 1-1t1 1m-148.3 1.7c.2.6-1 1.9-2.6 2.9-2.9 1.7-4.2 4.4-2.1 4.4.5 0 2.5-.8 4.5-1.7 4.1-2 6-.9 2.7 1.6q-2.3 1.7-1.6 3.4t-4.1 7.3c-7.9 9.2-10.9 8.3-6.9-1.9a35 35 0 0 0 2.4-9.6c0-4.9 6.4-10.3 7.7-6.4m-81.9 2.5c-.4 4-3.3 5.1-4.3 1.7q-.8-2.2 1.1-3.6c2.8-2 3.6-1.6 3.2 1.9M346 343q-.1.9-1.1 1-.8-.1-.4-1 .6-1 1.1-1 .4 0 .4 1m-169 1q-.1.9-1.1 1-.8-.1-.4-1 .6-1 1.1-1 .3 0 .4 1m288.5 1.2q2.6-.3.3.9c-1 .6-1.8 1.9-1.8 2.9 0 3.3-2.4 2.2-3.6-1.5-1.1-3.4-1-3.5 1-2.9 1.2.4 3 .7 4.1.6m5.9.9q-.6.8-1.5.3t-.3-1.5q.6-.8 1.5-.3t.3 1.5m-128.4-.2c0 1.2-2 2.5-2.7 1.8s.6-2.7 1.8-2.7q.8 0 .9.9m41 1.6c3.5 1.8 5.4 5 4.5 7.3-.6 1.5-.8 1.5-2-.2s-1.7-1.7-3-.6c-1.2 1-1.6.9-2.1-.3-.3-.9-.3-2 0-2.5q.4-1-.9-2.2c-3.5-2.9-1.1-3.9 3.5-1.5M193 349q0 .9-1 1a1 1 0 0 1-1-1q.1-1 1-1t1 1m143-.6q0 .5-1 1.1-.9.4-1-.4.1-1 1-1.1 1 0 1 .4m135.5.6q.4 1-1.9 1c-2.3 0-2.6-.5-2.6-1q.2-1 1.9-1c1.1 0 2.3.4 2.6 1m-175.9 1c1.3 0 2.4.4 2.4 1s-2 1-4.5 1q-6.2 0-3.8-2.4.8-.5 2.1-.1c.7.3 2.5.5 3.8.5m42.5 1.3c-1.3 1.3-2.6.3-1.6-1.2q.6-1 1.7-.5 1 .6-.1 1.7m7.4-1.3q.4.9-.9 1-1.5-.1-1.6-1 0-1 .9-1t1.6 1M180 352q0 1.8 1.4 1.4t2.1.6q1.8 2.6-3.6 1a33 33 0 0 0-6.6-1.2q-5-.3-2.2-2.4 1-.5 1.8.2c.9 1.3 4.4 1.1 4.9-.4.6-1.9 2.2-1.4 2.2.8m11.5 0q.4.9-.4 1-1-.1-1.1-1 0-1 .4-1 .6 0 1.1 1m5.5 1.6q0 1.3-1 .9c-.5-.3-1-1.3-1-2.1s.5-1.2 1-.9 1 1.3 1 2.1m-6 5.6q-.1.7-.8.8c-1.4 0-3.2-2.3-3.2-4.2q-.1-1.6-1.1-1.8-.8-.1-.4-1.1c.7-1 5.5 4.6 5.5 6.3m184.8-5.5c-1.2 1.5 2.7 6.3 5.1 6.3q1.3 0 .7 2.4c-.3 1.3 0 3.9.7 5.7a36 36 0 0 1 1.3 9.9l-.1 6.5-3.5.5c-4.8.7-4.9 3-.3 5.5 3 1.6 4.1 3 5.2 6.5.8 2.5 2.1 5 3 5.7q3.2 2.6-4.4 6.9c-3.5 2-4 2.1-7.2.8-1.9-.8-3.8-1.2-4.3-.9-.6.4-2-.1-3.2-.9-1.6-1.2-2.3-2.7-2.4-5.8l-.6-7.3c-.2-2.4.3-3.3 2.9-5 1.8-1.1 3.2-2.4 3.3-2.9s-3.1-.6-6.9-.4l-7 .4-1.9-5.6c-2.7-7.4-2.4-13 .6-14.1 2.4-.9 2.8-.5 3.4 3.6.4 2.2 3.5 3.1 5.8 1.5 1.3-.9 1.2-1.3-.7-2.9q-2.1-1.8-2.5-5.7c-.3-3.7-.5-3.9-3.3-3.7a8 8 0 0 0-4.7 2.3c-.9 1.1-1.9 1.7-2.1 1.3-.8-1.3 1.1-5.3 2.8-5.9q1.4-.7 1.5-2c.1-1.3.8-1.4 1.8-1.4.9-.1 2.8-.7 4.2-1.5 3.2-1.8 14.3-1.6 12.8.2m-247.8.2q0 1-1 1.6-.9.4-1-.9.1-1.5 1-1.6 1 0 1 .9m206.7 1q.6 1.7 1.8 1.5c1.6-.7 2.9 1.2 1.5 2.1-.6.4-1.7.2-2.4-.4s-2.1-.9-3-.5q-2.5.9-1-3c.8-2.2 2.5-2 3.1.3m7.3-.9q0 .9-.9 1-1-.1-1.6-1-.4-1 .9-1 1.5 0 1.6 1m121.3 1c.3 1.1 1.4 2 2.4 2s2.6-.9 3.6-2q2.8-3.2 4.1-1.2c.6 1-7.2 7.2-9 7.2-1.6 0-2-.7-2.9-4.8-.7-3.5.9-4.6 1.8-1.2m-158.8 0q.5.9-.4 1-1-.1-1.6-1-.5-1 .4-1a2 2 0 0 1 1.6 1m174.5.9c0 1.3-7.5 7.8-10 8.6-2.2.7-4.5-.4-2.3-1.2a38 38 0 0 0 10.3-7.4q.1-.8 1-.9t1 .9m-186.5 1.5c-1.1.8-2.3 1.2-2.8.9-1.3-.8.3-2.3 2.6-2.3 2 0 2 0 .2 1.4m-138 1.6q-.6.9-1.6 1-.9-.1-.4-1a2 2 0 0 1 1.6-1q.9 0 .4 1m54.9 2.3c-.3 6.7-.3 6.8-5 8.8q-7.3 3.3-4.5 6.2c1.5 1.5 1.4 2.8-.2 2.1-.7-.2-1.9-2.5-2.6-4.9a24 24 0 0 0-3.3-7c-1.1-1.4-1.6-3-1.2-3.6q.7-1.3 2 .5c1.7 2.4 6.8 1.8 7.2-.9q.8-4.9 5-3.6 2.6.8 2.6 2.4m138.1-1.6c-1.4 3.2-1.8 15.3-.6 15.3q1 0 .5-2.4c-.3-1.3-.1-2.7.4-3s1.3 1.5 1.7 4.4a38 38 0 0 0 6.6 15.9q3.6 4.6-2.3 3.2a16 16 0 0 0-14.3 2.9q-6.8 6.5-13 1.5c-1.9-1.4-3.5-3.3-3.5-4.1q0-1.2-1-1.4t-1.6-2.5c-.5-2.1.9-3.9 10.8-13.7 6.3-6.2 12.3-12.8 13.2-14.6 1.7-3.3 4.4-4.6 3.1-1.5m-44.5.3q0 .9-.4 1-.5-.1-1.1-1-.4-1 .4-1 1 0 1.1 1m26 0q0 .9-1 1a1 1 0 0 1-1-1q.1-1 1-1t1 1m-198.3 4.5q-.4.9-1.9 1.3-1.6.5-1-2.9c.4-3 .6-3.1 1.9-1.4.7 1.1 1.2 2.4 1 3m165-2.8q-1.5 1.5-2.3 1.1c-1-1 .6-2.8 2.4-2.8 1.5 0 1.5.1-.1 1.7m-149.7.7c.6.8 3.7 2 6.8 2.6a110 110 0 0 1 19.2 5.6c0 .7-9.6-.5-12.4-1.6-1.5-.5-4-1-5.4-1s-3.8-.7-5-1.6c-2.4-1.6-4.6-1-3.8 1.1q.4 1.4-.9 2.5c-1.1.9-1 1.8.6 5 2.3 4.7 2.3 5 .4 5q-1.4-.2-1.5-2c0-2.9-3.5-9-4.7-8.2a12 12 0 0 0-2.3 3.2l-1.3 2.4-.9-2.3c-.7-1.9-.3-2.8 1.8-4.8 2.2-2 2.4-2.7 1.3-3.4q-1.7-1 .7-.9c1.2 0 2.7-.7 3.4-1.5 1.6-1.9 2.4-1.9 4-.1m314 1.1c0 5.2 7.3 6 14.3 1.5 2.6-1.6 4.7-2.5 4.7-1.9 0 1.4-3.8 4.7-6.7 5.9q-2.1 1-2.3 1.9c0 2.1 2.2 2.2 5.7.1 5.2-3.1 5.1-1.8-.4 2.8-3.7 3.2-4.5 4.4-3.6 5.3s.5 1.8-1.8 4c-2.7 2.5-2.9 3.2-2.3 7 .7 4.1.6 4.2-1.7 3.5l-4.5-1.3c-1.7-.4-2.3-1.7-3.3-7.1a90 90 0 0 1-.4-23.5c.9-1.6 2.3-.6 2.3 1.8m-158 1.6q0 1-2-.1-1.8-1-2-2.1 0-1 2 .1 1.8 1 2 2.1m92.8 3q-.6 1.2-2.2-2.1l-1.8-3.5 2.2 2.1c1.2 1.2 2 2.8 1.8 3.5M286.5 366c.8 1.3-1.4 8.2-2.9 9.2q-3.1 2-1.6-1.3c.7-1.1.9-2.8.6-3.6-.6-1.4-1-1.2-3.2.8l-2.5 2.3.3-3.4c.3-3 .7-3.6 3.3-4.1 4.7-1 5.3-1 6 .1m10 .6c1.9 1.4 1.9 1.5-.5 1.2q-2.5-.3-2.5 1.3c0 .9-.5 2.3-1.1 3-1.7 2.2-2.3 4.6-1.3 5.6 2.1 2.1-3.2 11.3-6.6 11.3-1.2 0-1.1-.7.5-3.8 1.1-2.1 2.7-6.3 3.4-9.3 3-11.2 4-12.4 8.1-9.3m26.5 0q-.1 1.3-1 .9-1-.7-.5-1.6 1.4-2 1.5.7m68.3 2.4c1 1.6 1.5 3 1.1 3-1.3 0-4.4-3.3-4.4-4.7 0-2.2 1.5-1.5 3.3 1.7m-155 2q.4 1.8-.4 2-1 .1-.9-.4 0-.7-.6-2-.5-1.5.4-1.6.9.2 1.5 2m71.1 2.4c-.3.9-1.5 2.1-2.5 2.7q-3.3 1.8-.9-4.7c1-2.4 1.3-2.6 2.6-1.3.8.9 1.2 2.3.8 3.3m-177.7-1.6q-3.4 3.8.4 2.9c1.8-.5 2-.2 1.4 2.3-.4 1.6-.2 3.1.5 3.5 1.7 1.1.1 2.5-2.9 2.5-2.7 0-2.8-.1-2.6-5.3.3-7.7.3-7.7 2.7-7.7 2 0 2 .1.5 1.8m49.3 1.8 2.5 1.5-2.5-.7c-1.4-.3-3.2-1-4-1.5q-2-1 0-.8c.8 0 2.6.6 4 1.5m-54.5.3q.4.9-.5 1.6-.9.4-1-.9 0-2.7 1.5-.7m67.3 3.6c.1 2-.3 2.5-2.2 2.5-1.3 0-2.9-.7-3.6-1.5-1-1.3-.9-1.5.8-1.5 1.2 0 2.4-.5 2.7-1q1.8-2.5 2.3 1.5M392 379q1 1.8.2 2c-.5 0-1.7-.9-2.7-2-1.6-1.8-1.6-2-.2-2 .9 0 2.1.9 2.7 2m-267.9 2.3q-1.1 1.2-1.1-.4c0-2 1.3-3.4 1.8-1.9q.3 1.2-.7 2.3m49.7-1.3c2.2 1.1 4.6 2 5.3 2 2.7 0 8.9 2.4 8.9 3.4 0 .6-1 1.6-2.2 2.1s-2.4 2-2.6 3.2a7 7 0 0 1-2.4 3.7c-1.8 1.3-1.9 1.8-.8 3.1s.7 1.5-2.8 1.5c-2.3 0-4.4.5-4.7 1-.9 1.5 1.2 3.8 3.8 4.2 2.4.3 3.2 2.5 1.8 4.7-.7 1.1-1.5 1.1-4.5.1-2-.6-4.2-1.9-4.9-2.8s-2.3-2.6-3.5-3.7l-2.3-1.9.6 2.6q1.1 4.9-3.9 2.7c-3.2-1.5-3.6-2.8-2.6-7.4.5-2.1.5-6 0-8.9-.5-3.1-.4-5.8.2-6.9.9-1.7 1.1-1.7 2.7-.3 2.5 2.2 3.4 2 5.3-1.4 2-3.5 3.1-3.7 8.6-1m143.2-1q0 .9-1 1a1 1 0 0 1-1-1q.1-1 1-1t1 1m-179.5.9q.4.9-.5 1.6-.9.4-1-.9 0-2.7 1.5-.7m63.9 2.2q-.6.8-1.5.3t-.3-1.5q.6-.8 1.5-.3t.3 1.5m-3.9-.1q.4.9-.9 1-1.5-.1-1.6-1 0-1 .9-1t1.6 1m107.1 1.3q1.3-.4 1.4.6-.1 1.1-1.5 1.7c-1.9.8-2 2.4-.1 2.4.7 0 1.9.7 2.6 1.5q1.6 1.6-.2 1.5-1.4 0-2.6-1.2c-1.9-1.9-2.7 0-.8 2.1 1.7 1.9 1.5 4.1-.4 4.1a42 42 0 0 1-10.6-10.8q.8-.4 2.1 1.4c1.3 1.8 1.5 1.8 4.7-1.4 1.8-1.8 3.4-2.8 3.6-2.3q.4.9 1.8.4m172.9.5q-4 2.7-2.9 11.5c.7 5.7.6 6.1-.9 4.8-1.2-1-1.7-3-1.7-7.3 0-5.1.4-6.2 2.7-8.4 1.4-1.3 2.9-2.2 3.2-1.9q.4.6-.4 1.3m-355.8 3.9q-.5 1.4-.5-1.2t.5-1.8c.2.7.2 2.1 0 3m160.3-3.3q0 .6-1 1.1-.9.4-1-.4.1-1 1-1.1 1 0 1 .4m28 1.1q1.1 1.5.7 2.1c-1 1.1-3.7-.5-3.7-2.1 0-1.9 1.4-1.9 3 0m-164 2.1c0 1.3 1.3 3.6 3 5.1l2.9 2.8-3.2 3.6c-1.8 2-4 4.7-4.9 6-1.5 2.4-1.6 2.3-2.3-3.1a22 22 0 0 0-2.1-7.5c-.7-1.1-1.5-3.6-1.9-5.5l-.6-3.5 4.5-.1c4.2-.1 4.6.1 4.6 2.2m-28 .4q-.2 1-2 2-3.5 1.7-.7-1.5c1.4-1.7 2.7-1.9 2.7-.5m16.6 4.7c-.7 1.7-.8 1.7-2.2-.1a8 8 0 0 1-1.4-4c0-2 0-2 2.1.1q2.2 2 1.5 4M208 389q-.1.9-1.1 1-.8-.1-.4-1 .6-1 1.1-1 .3 0 .4 1m-4.5 1q.7.1-.9 1.5c-1.7 1.3-2.2 1.3-3.7-.1q-2.5-2.2-3.6 2.1l-.8 3.1q-.8 2 2.2 5.4c2.3 2.8 2.4 3.2.8 2.5-1.1-.5-4.2-1-6.9-1.3-4.5-.4-4.8-.3-4.1 1.7q.7 2.2-.9 2.1-1.5-.2-1.6-1.7c0-2.2 4.2-8.3 5.7-8.3.7 0 2.4-1.7 3.7-3.9 2.2-3.4 2.9-3.8 5.8-3.6zm92 3c1 1.1 1.5 2.3 1.2 2.7-.8.7-4.7-2.5-4.7-3.9s1.6-.9 3.5 1.2m-4.7 1.1c1.2 1.8 1.1 2-.5 1.7q-1.6-.4-2.1-2.1c-.5-2.3 1-2.1 2.6.4m107.2 4.5c0 6.5-2.5 11.9-6.8 15.1-2.9 2.2-3 2.4-2.5 8.5l.5 6.3-5.6-6c-3-3.3-5.5-6.3-5.6-6.6 0-.4 1.2-.9 2.8-1.2 7.8-1.7 15.2-10.7 15.2-18.5q0-4.1 1-3.7c.6.3 1 3.1 1 6.1m10.8-4.9q.2 1.3-1.7 1.3c-1.1 0-2.3.4-2.6 1-.7 1.1 2.7 1.9 7.5 1.7q3.6-.3 3.8 1.4c.2 1.3-.8 1.7-4.3 2.1-5.1.6-6 1.1-5 2.8q.8 1 4.6.5c3.6-.6 3.9-.5 3.9 1.8 0 2.1-.6 2.5-5.5 3.3-3.1.5-5.7 1.3-5.8 1.9-.3 1.4 4.8 1.8 7.2.6 1.7-.9 2.2-.6 3.5 2.1 2 3.9 1.3 6.8-1.4 6.1q-1.8-.4-2 .6c-.2 1 .7 1.1 1.5 1.1s1.5.7 1.5 1.5c0 1.2-.8 1.4-4 .9-5-.8-11.3.3-10.7 1.9q.3 1.2 7.1.8c6.2-.3 6.8-.2 6.4 1.5-.2 1.5-1.5 2-5.1 2.4-6.4.7-6.4 2.4.1 2.8l5.2.3v3.6c0 3-.2 3.4-1.5 2.3-1.7-1.4-5-.6-4 1 .3.5 1.9 1 3.4 1q3-.1 3.4 2.2c.8 3 .1 3.8-3.4 3.8-4.2 0-11.8 1.8-15.2 3.6-1.5.9-3.6 1.3-4.6.9q-1.8-.4-2.6.5c-1 1.6-4.5-.8-4.5-3.1 0-1.8.5-2.1 2.9-1.7 2.3.3 3.2-.1 4-1.6q1.2-3 1 1.1.2 5.3 3 1.9c.9-1.1 1-2.5.2-5.3-.6-2.1-1.1-7-1.1-10.9s-.5-8.5-1.1-10.3c-1.1-3-.9-3.4 3.4-8a23 23 0 0 0 6.7-17.5l-.1-4.9c.2-1.3 5.4-.3 5.9 1m-95.8.6q0 1.3-1.2 2.5c-1.8 1.8.3 1.4 2.4-.5q3.3-3 .6 4.4c-1.4 3.9-.5 5.3 2 3 3.7-3.3 4.4 2 1.2 8.3-2.4 4.7-2.5 6-.5 6 .8 0 2.9-2.3 4.6-5s3.5-5 4-5 .9 1.6.9 3.5c0 4.9 2.6 4.6 4-.5 1.8-6.7 5.4-8.4 8.7-4.1.6.9 1.5 1.3 1.8.9 1.1-1.1 4.5 1 4.5 2.7 0 .8-1.8 3.1-3.9 5.2a43 43 0 0 0-10.1 17.2c0 1 .7 2.4 1.5 3.1 1.6 1.4 1.1 3-.9 3-1.3 0-1.9-1.8-3.3-9.7-.8-4.9-2.4-2.9-2.2 2.8.1 2.7-.3 5.5-.9 6.1-.9.9-1.2.1-1.2-3.4 0-6-1-10.9-2.1-10.2-.5.3-.9 2.1-.9 4.1 0 3.1-.2 3.4-1.6 2.2-1.3-1-1.7-1-2.5.2q-.8 1.4-.9 2.5 0 1-1.2 2.2c-.9.9-1.7.7-3.4-.9-1.8-1.7-2.1-2.8-1.6-6.6.6-5.8-1.5-5.1-2.4.8-.4 2.1-1 3.9-1.5 3.9-1.3 0-3.9-6.8-3.9-10.1 0-3.4.6-3.6 3.3-1.2 2 1.8 2 1.7 1.4-5.1-.4-3.7-1.1-7.4-1.8-8.2s-.8-2.2-.5-3.2q.7-2-1-2.6c-1.5-.6-1-1.4 2.6-5.1 4.6-4.7 6-5.4 6-3.2m-77.5.6q.4.9-.5 1.6-.9.4-1-.9 0-2.7 1.5-.7m14.8 1.1c.5 2-1.7 4.8-2.7 3.2-.7-1.1.4-5.2 1.4-5.2q.7.2 1.3 2m36.5 2.4c.7 2.1.9 4.2.6 4.5q-.7.4-1.1-.7c-.3-.7-1.6-2.5-2.9-4.1q-3.6-4.5.6-3.9c.8.2 2.1 2.1 2.8 4.2M222 396q0 .9-.4 1-.6-.1-1.1-1-.4-1 .4-1 1 0 1.1 1m227 1.5a54 54 0 0 1-4.7 15.5c-.3 0-.3-1.8 0-4 .4-3.1.2-4-1-4-.8 0-2 1.3-2.6 3-1.6 4.3-4.1 4-3.4-.5.3-1.9.2-3.7-.3-4-1.3-.8-4 2.4-4 4.6 0 2.7-2.5 2.3-3.8-.7q-1.2-2.3-2.1-1.9t-1.6-.5c-.7-1.1 4.3-5.9 6.1-6 .6 0 1.7-.7 2.4-1.5 1.2-1.4 1.5-1.3 3.5.5 2.8 2.6 4 2.5 6.2-.5 2.4-3.3 5.3-3.3 5.3 0m18 2.1q4.3 4.7 3.2 5.6-1.1 1.2-2.7-.6c-2-1.9-2.9-2-4.3-.4s.2 5.4 2.8 6.8 1.6 3.3-1.1 2.5c-2.2-.7-3.8 2-2.1 3.7q1 1-.7 4.2c-1.4 2.3-1.5 3.6-.7 4.8q1 1.6-.3 4.2c-.8 1.3-1.1 3.1-.8 4s-.3 2.6-1.5 4.1-1.7 3.2-1.4 4q.6 1.5-1.5 1.5c-1.7 0-2 .6-1.9 3.7.3 5.7.1 6.3-1.6 6.3-1.9 0-8.4 5.9-8.4 7.7q-.1 1.2-1.5 1.3-1.5.1-2.2 1.7-.5 2.2-1.4-.5-.8-2.1-2.4-1.6c-1.1.5-1.5 2.2-1.5 6.8 0 6-1.9 15.2-2.7 13-.2-.6 0-4.2.4-8 1.1-9.1 0-16.5-2.6-18.3-1.2-.7-2.1-2.2-2.1-3.2s-.4-2-.9-2.4 2.1-3.8 5.9-7.7c6.9-7.1 7-7.1 9.1-5.2s2.1 1.8 3.9-.6c1.4-1.8 1.6-2.9.8-4.3q-2-4 2.9-1.6l3.6 1.7c1.9.9.4-3.8-1.9-6.2l-2.7-2.6 1.8-5.8c1.5-4.9 2.1-7.9 3.8-18.7.4-2.1 4-4.5 6.8-4.5.9 0 3.6 2.1 5.9 4.6M207.5 397q-.7.9-1.6 1-.9-.1-.4-1a2 2 0 0 1 1.6-1q.9 0 .4 1m140.5.6c0 1.6 1.1 1.6 5.3-.1q1.8-1 1.7 1.8c0 1.3 1 3.6 2.1 5.1 2.5 3.1 2 3.9-2.4 4.3l-5.2.5c-1.8.3-2-.2-1.7-4.1a11 11 0 0 0-1.3-6.7c-1.4-2.1-1.4-2.4 0-2.4q1.4.1 1.5 1.6m-227.2 7.6c.6 3.5 1.6 11 2.2 16.8 1.1 11 3.4 26.1 5 32 1.7 6.7 2.2 8.5 3.5 13 .8 2.5 1.6 6.1 1.9 8s1 5.1 1.6 7c.5 1.9 1 6.1 1 9.3 0 5 .4 6.1 2.6 8.2 1.5 1.4 3 2.5 3.4 2.5l3.9.6c4.3.9 4.1-1.3-.4-3.2s-4.7-4.4-.1-4.4c1.9 0 3.8.4 4.1 1 1 1.6 2.3 1.1 2.7-1q.3-2 1.3-2.3c1.5-.3 1.8 3.3.4 5.9q-2.2 4.2 2 2.9 4-1.3 2.2-8.2c-.6-2.1-1.1-5.3-1.1-7.1a15 15 0 0 0-1.4-6q-1.4-2.9-.8-6l.7-3.2 4.8 6.9c2.6 3.8 4.7 7.4 4.7 7.9s.7 1.5 1.5 2.2 1.5 2.3 1.5 3.6c0 1.2.5 2.6 1 2.9 2.3 1.4 1 6.1-2.6 9.6-4.6 4.4-6.7 8.5-6 11.5q.6 2.3-1.9 6c-1.4 2-2.5 4.6-2.5 5.6 0 2.3-12.7 16.8-14.7 16.8q-1.3 0-1.3-3.4c0-1.9-.5-3.8-1-4.1-.6-.4-2.1-2.8-3.4-5.3a40 40 0 0 0-7.3-9.3 65 65 0 0 1-13.8-18.9c-1.5-3-3.4-6.3-4.2-7.2s-1.3-2-1-2.5c.8-1.3-1.1-21.9-2.2-24-1-1.8-5-18-5.9-23.8a41 41 0 0 1 3.1-23c3.9-10.6 4.5-14.3 2.5-16.3-1-1-.4-1.9 2.7-4.5q6.5-5.3 9.1-3.6c.5.5 1.5 3.7 2.2 7.1m97.2-6.1q0 .9-1 .4-.9-.7-1-1.6.1-.9 1-.4a2 2 0 0 1 1 1.6m-91.7.9c-.6 2.2-2.3 3.8-2.3 2.1s1.2-4.1 2-4.1q.7.2.3 2m156 1.4c2.9 3.8 3.2 4.6 1.7 4.6-1.4 0-6-4.9-6-6.5q-.1-3.6 4.3 1.9m-19.9-.8c.9 2.2-.3 3.2-1.4 1.4q-1.8-3-.1-3 .9.1 1.5 1.6M481 400q0 .9-.4 1-.5-.1-1.1-1-.4-1 .4-1 1 0 1.1 1m-344.2 1.2q-.6 1.2-2.9 1.6c-2.3.2-2.3.2-.5-1.3 2.4-1.8 3.9-2 3.4-.3m106.6.3c.6 1.8-2.9 4.1-3.9 2.5-.7-1.1 1.2-4 2.5-4q.7.1 1.4 1.5m53.6-.5q0 .9-1 1a1 1 0 0 1-1-1q.1-1 1-1t1 1m-27.4 3.7c-.8.8-3.6-.5-3.6-1.7q0-1 2.1 0 1.8 1.1 1.5 1.7m7.4.7c-1.3 1.3-3.5-.7-2.5-2.4q.7-1.2 2.1.1 1.6 1.1.4 2.3m-24.5-.4c.8 2.4-.1 4-2.1 4q-1.3-.2-1.4-2.3c0-4 2.4-5.1 3.5-1.7m-124 2c.3 1.6.2 3.7-.4 4.7q-1 1.6-1.1 1l.2-1c.1-.1-.4-1.2-1-2.4-1.2-2.2-.7-5.3.8-5.3.5 0 1.1 1.3 1.5 3m353-2q-.6.9-1.6 1-.8-.1-.9-1 .1-1 1.6-1 1.3 0 .9 1M151 406q-.1.9-1.1 1-.8-.1-.4-1 .6-1 1.1-1 .3 0 .4 1m338 1.5c0 .8 1 2.4 2.3 3.5 2 2 2.1 2.2.5 3.1-1 .6-1.8 1.7-1.8 2.4 0 3.1-1.8 1.3-2.4-2.3-.9-5.6-.7-9.4.4-8.7q1 .6 1 2m-350 1.1q0 1.5-2.2 1.2c-2.7-.4-3.5-2.5-1.1-3q3.4-.9 3.3 1.8m125.2-.4q-1.1 1-1.9.4-.6-.7.7-1.6c1.9-1.2 2.7-.3 1.2 1.2m23.8 4.2q-2.3 2.2-2.7.8c-.6-1.6-1.6-1.5-6.6.8a19 19 0 0 0-7.7 7.3c-1.9 2.8-3.3 5.6-3.1 6.2q0 .6-2.3-1.4c-3.3-3.1-3.3-4.9.1-6.2a10 10 0 0 0 4.1-3c.7-1 2.9-2.6 4.8-3.4s3.4-2 3.4-2.8.7-2 1.5-2.7c1.3-1 1.9-1 3.3.4 2.5 2.2 3.9 2 5.4-.7l1.3-2.2.3 2.4q.3 2.4-1.8 4.5m75-4.5c0 1.1-.4 2.3-1 2.6q-1 .4-1-1.9c0-2.3.5-2.6 1-2.6q1 .2 1 1.9m112.1 15.9a19 19 0 0 0-2.1 7.2c0 1.6-.5 3-1.1 3-.8 0-1-1.9-.4-6.8l1-10.5c.2-2.1.9-5.2 1.6-7l1.4-3.2.8 6.6c.8 5.8.6 7.1-1.2 10.7m20.7-14.3q-.6.4-1.2-1.2-1-2 .5-.6 1.1 1.2.7 1.8M482 409q0 .9-1 1a1 1 0 0 1-1-1q.1-1 1-1t1 1m-183.6 2.8c.4 1.5.4 4.5.1 6.7-1 8.4 4.7 18.5 10.5 18.5 1.5 0 3.3.7 4 1.5s2.5 1.5 4.1 1.5 4.7.7 6.9 1.6c3.8 1.5 5.3 1.6 14.5.2 2-.3 2.5 1.2 4.2 11 .3 1.8 1.4 3.9 2.4 4.5q3.9 2.4-.6 2.9-2.3.3-2.3 1.3c.4 1.4 11.3.8 16.6-1 4.2-1.5 4.9-1.4 11.1.4 9 2.8 19.3 3.1 22 .7 1.1-1 2.1-3 2.3-4.4.3-2.8.7-2.9 12.5-5.6 3.9-.9 7.8-1.3 8.7-1 2.7 1 4.1 9.1 2.7 15.3a14 14 0 0 0-.4 5.4c.9 1.4 4.3-2.4 4.3-4.9 0-1.3.5-2.6 1-2.9q2-1.2-.1 8.7a48 48 0 0 1-12.7 26C403 506.1 397 515 397 517.7c0 2.8-6.5 10-11.2 12.4-3.6 1.8-3.8 2.2-2.3 3.3 1.6 1.2 1.5 1.5-1.9 4.1-4.8 3.6-3.3 5.7 1.9 2.7 3.4-2.1 3.5-2.1 2.5-.2-.9 1.7-9.6 6.4-15.5 8.5-1.9.6-1.9.7-.3 1.9q1.9 1.3.6 2.4t.2 2.6c1 1.4.6 1.9-3.4 3.6q-6.7 2.8-3.6 4.5 1 .6 1 2.2c0 2.4-9.3 1.1-17.5-2.4a76 76 0 0 0-10.6-3.7 9 9 0 0 1-4.8-2c-1.6-1.9 6.2-.3 11.4 2.3 2.1 1.2 4.7 2.1 5.6 2.1s3 .7 4.6 1.5c3.2 1.6 6.3 1.1 6.3-1 0-.7-2.1-2-4.7-2.9-2.7-.9-7.6-2.8-11.1-4.2a36 36 0 0 0-10-2.4c-7.4 0-7.7-2.6-2.7-23.3 3.8-15.6 4.2-19.6 2.3-21.5q-1.4-1.3.4-1.2 4.2-.1.7-5c-1.7-2.2-2.4-5-2.9-10.7-.6-7.5-1.6-10.9-4.2-14.5-1.9-2.7.2-6.9 5-10.1 4.1-2.7 5.1-5.8 1.3-3.7-1.7.9-4.1 3-18.3 16.5a22 22 0 0 1-5.7 4.5c-.6 0-1.1-1.3-1.1-3 0-1.8-1.1-4.2-3-6.3-2-2.4-2.7-4-2.3-5.6.5-2.2-1.1-12.7-2.7-16.6-1.7-4.3-6.1-20.8-6.6-25-.6-4.3-3-6.8-4.4-4.5-.8 1.4.4 9.8 2.5 16.5 2 6.6 1.9 7.4-.5 6.8-2-.5-2.6-2.7-2.2-8.4.2-2.3-2-5.4-3.7-5.4q-.5-.1-.4-1l1.1-5.1c.5-2.3 2.5-6.1 4.4-8.5s3.9-5.4 4.2-6.7c1-3 2.3-2.8 3 .6M269 411q0 .9-1 1a1 1 0 0 1-1-1q.1-1 1-1t1 1m-13 .4q-.1.4-1.5 1-1.4.4-1.5-.4.1-1 1.5-1c1.4 0 1.5.2 1.5.4m-122 1.9q-.2.8-2.5 1.7c-2.3.9-2.2 1.5-2 2.2s-.4 1.9-1.5 2.6c-1.8 1.1-2 1-2-.8 0-1.1.7-2.3 1.5-2.6q1.4-.8 1.5-2.3 0-1.6 2.5-1.6 2.3 0 2.5.8m37-.9c0 1.1-1.9 1.5-2.5.6q-.4-.9.9-1 1.5 0 1.6.4m3.4 1.2q.5 1.3-.4.9-1-.6-1-1.6.2-2 1.4.7m29.6-.6q0 .9-1 1a1 1 0 0 1-1-1q.1-1 1-1t1 1m-40 1q-.1.9-1.1 1-.8-.1-.4-1 .6-1 1.1-1 .3 0 .4 1m319 1.1q0 1.8-1 1.4c-.5-.3-1-1.3-1-2.1s.5-1.4 1-1.4q1 .1 1 2.1m-294.8 2.1c-1.5 1.5-2.6.4-1.8-1.8q.6-2 1.8-.6c1.2 1.4.9 1.5 0 2.4m69.8-1.3c0 1.4-1.8 2.3-3.1 1.5q-1.2-.6.2-1.5 2.8-1.7 2.9 0m-79 1.1q0 .9-1 1a1 1 0 0 1-1-1q.1-1 1-1t1 1m30-.1q0 1-1 1.6-.9.4-1-.9.1-1.5 1-1.6 1 0 1 .9m44 .1q-.1.9-1.1 1-.8-.1-.4-1 .6-1 1.1-1 .3 0 .4 1m8.8 2q-1.4 1.9-3.8 2c-2.3-.1-2.3-.2 1-2l3.8-2q.1.2-1 2m-87.8-.6q0 .5-1 1.1-.9.4-1-.4.1-1 1-1.1 1 0 1 .4m17.5 1.5q.4.9-.5 1.6-.9.4-1-.9 0-2.7 1.5-.7m8.6 2.4q-1.2 1.2-1.1-.4c0-2 1.3-3.4 1.8-1.9q.3 1.2-.7 2.3m154.7-2.1c1.9 1.9 1.4 2.9-.8 1.6-2-1.3-2.7-2.8-1.2-2.8q.8 0 2 1.2m-141.3.8q.4.9-.4 1-1-.1-1.1-1 0-1 .4-1 .6 0 1.1 1m270.5.6q0 1.3-1 .9-.9-.6-1-1.6.1-.8 1-.9 1 .1 1 1.6m-302.5 2.1c-.8 3.4-1.1 3.7-2.5 2.8q-1.2-.8-.2-1.7c.6-.6.8-1.7.5-2.4q-.4-1.4 1.2-1.4c1.4 0 1.6.6 1 2.7m60.1-.1c-.6 1.6 1 2.9 1.9 1.4.8-1.3 3.5-1.3 3.5 0 0 .6-1 1.5-2.2 2s-3.1 1.5-4 2.2c-3 2.2-4.2-.3-2.1-4.4 1.7-3.3 4.1-4.3 2.9-1.2m120.1.6q-.5 1.1-.6-.6t.5-1.3q.5.6.1 1.9m-195.1 1.5c-1 1-1.9-.5-1-1.8q.8-1.7 1.2 0 .3 1.2-.2 1.8m6.9.3c2.2 2.3 2.5 3 1.2 3q-1.5 0-1.7 1 0 .9-1 1-.9-.1-1-1.4c0-.7-.6-1.9-1.4-2.6-1.4-1.1-1.2-4 .3-4 .4 0 2 1.3 3.6 3m12.5-1.6c0 1.6-1.8 3.1-2.7 2.2-.8-.8.5-3.6 1.7-3.6q.9.1 1 1.4m4.6-.3c.7 1.1-2.2 4.7-3 3.8-.8-.7.5-4.9 1.5-4.9q.8.1 1.5 1.1m15.4.4c1 1.2 1 1.8 0 3-1.1 1.3-1.5 1.3-2.1.3-1.1-1.7-1.1-4.8 0-4.8q.9.1 2.1 1.5m13-.5q0 .9-1 1a1 1 0 0 1-1-1q.1-1 1-1t1 1m44.9 5.7c.3 1.7.2 1.7-1.6 0a7 7 0 0 0-3.6-1.7c-1.9 0-3.1-1.6-2.2-3 .9-1.5 6.9 2.4 7.4 4.7m107.6-4.7q.4.9-.4 1-1-.1-1.1-1 0-1 .4-1 .6 0 1.1 1M136 426q0 .9-.9 1-1-.1-1.6-1-.4-1 .9-1 1.5 0 1.6 1m349 1q0 .9-1 1a1 1 0 0 1-1-1q.1-1 1-1t1 1m-281.6 3q1.5.1 1.6 1.5c.1 1.4-.7 1.5-1.5 1.5-.7 0-1.9.8-2.4 1.7-.9 1.6-1 1.6-1.1-.4 0-1.2-.6-2.8-1.4-3.6-1.1-1.1-1.2-1.7-.3-2.6s1.4-.8 2.3.4c.6.8 1.9 1.5 2.8 1.5m54.9 1.5c3.1 1.5 3.3 3.5.4 3.5a5 5 0 0 1-4.1-2.5c-2.1-3.2-2.1-5.2 0-3.4.9.7 2.5 1.8 3.7 2.4m-23.8-1.5q.4.9-1 1c-1.4.1-1.3-.5-1-1q.6-1 1-1t1 1m-5.5.8c0 1.3-1.2 2.2-2.2 1.6s-.1-2.4 1.3-2.4q.8.1.9.8m21 .1q-.2.8-1.5 1.5c-1.5.5-2-.5-.8-1.7.9-1 2.3-.9 2.3.2m128.6 1.8c-.7.7-2.6-.7-2.6-1.9q0-1 1.5.2 1.4 1.2 1.1 1.7m-168.4.5c-.6.6-1.5.8-1.9.4q-.6-.7.7-1.6c1.9-1.2 2.7-.3 1.2 1.2m12.3-1.2q.4.9-.9 1-1.5-.1-1.6-1 0-1 .9-1t1.6 1m57.5 0q0 .9-1 1a1 1 0 0 1-1-1q.1-1 1-1t1 1m151.5.3c1.1-.1 3.2-.4 4.8-.8q2.6-.7 2.7.4c0 1.2-11 12.1-12.2 12.1l-2.2.6c-1.3.5-1.4.1-.6-2.8.6-1.8 1-5 1-7.1 0-3.5.2-3.8 2.3-3.1 1.2.5 3.1.7 4.2.7m54.9.3c.8 2.2-.4 4-1.5 2.3s-1.1-3.9 0-3.9q.9.1 1.5 1.6M142 434c1.5.8 1.8 1.7 1.3 4q-.6 3 1.2 5c.9 1 1.5 2.7 1.3 3.7-.3 1.4-.7 1.2-2.1-1.4-.9-1.8-1.7-4.1-1.7-5.1 0-1.1-.7-2.5-1.5-3.2-1.4-1.2-2.1-4-.9-4 .3 0 1.4.5 2.4 1m102.5 1c1.1 1.7-.5 3.2-2.1 1.9q-1.1-1-.8-2c.7-1.2 2.1-1.1 2.9.1m100 0c.3.5 1.5 1 2.6 1 2 0 2.3.4 3.3 5.2a17 17 0 0 0 3.6 5.8q7 7.3-2.9 8.7c-3.8.5-4.1.4-4.1-1.8-.1-1.3-.7-3.5-1.5-4.9s-1.4-4.3-1.5-6.5c0-2.2-.7-5.1-1.6-6.3-1.3-1.9-1.3-2.2 0-2.2.8 0 1.8.4 2.1 1m-147.7 1.9q.4 1.3-.9.9-1.2-.5-1.7-1.7-.4-1.3.9-.9 1.2.5 1.7 1.7m57.6 1c3.7 3.9 3.1 5.7-1.1 3.1-2-1.2-3.3-2.8-3.3-4 0-2.7 1.1-2.5 4.4.9m23.4-1.1q.2 1.1-1.2 1.2-1.5-.1-1.6-1.6c0-1.7 2.2-1.4 2.8.4m-40 .9c-.4 2.2-2.2 2-2.6-.1q-.2-1.6 1.3-1.6c1.5 0 1.5.7 1.3 1.7M132 439.6q0 1.3-1 .9c-.5-.3-1-1.3-1-2.1s.5-1.2 1-.9 1 1.3 1 2.1m152 .4c0 1.9-1.1 2.6-2.3 1.4-.8-.8.3-3.4 1.4-3.4q.8.2.9 2m81.5-1q.4.9-.9 1-1.5-.1-1.6-1 0-1 .9-1t1.6 1m-90.9 1.5c1.8 1.4 1.7 1.4-1.1 1.5-1.7 0-3.6.5-4.3 1.2-1.8 1.8-1.4-.3.5-2.4 2-2.2 2.4-2.2 4.9-.3m-24.2 1c.3.8 1.7 2 3.1 2.5s2.5 1.6 2.5 2.5c0 1.9-1.4 1.9-3.1-.1-.7-.8-2.5-2.2-4.1-3s-2.8-1.9-2.8-2.4c0-1.6 3.7-1.1 4.4.5M149 442q0 .9-1 1a1 1 0 0 1-1-1q.1-1 1-1t1 1m11 0q0 .9-.4 1-.6-.1-1.1-1-.4-1 .4-1 1 0 1.1 1m35.1.3c-.1 1.2-1.5.9-1.9-.4q-.4-1 .8-.8 1 .5 1.1 1.2m40.9-.3q-.1.9-1.1 1-.8-.1-.4-1 .6-1 1.1-1 .3 0 .4 1m-3.4 1.1c.9 1.5-1.5 3.6-5 4.5q-3.2.9-2.4-.7.6-1.3 2.1-1.1 1.4 0 2.2-1.8c.7-2.2 2-2.6 3.1-.9m-33.4 4.5c.4 3.4-.3 5-1.6 3.7-.9-1-.7-7.3.3-7.3.5 0 1.1 1.6 1.3 3.6m-33.7 1.4q1.6.1 1.3 1.7-.3 1.8 2 2.1c2.9.4 2.9 2.2-.1 2.2-3.5 0-8.6-6.7-7.1-9.2q.8-1 1.5 1 .9 2 2.4 2.2m8.5-1.5c0 1.4-.4 2.5-1 2.5-1.1 0-1.4-3.3-.3-4.3 1.1-1.1 1.3-.8 1.3 1.8m18.9 1.8c-.7 1.5-1.6 2.7-2.1 2.7-1.1 0-1-2.7.3-5.2 1.6-3.1 3.3-.7 1.8 2.5m92.9-2q.2 1.6-1.2 1.7-1.6-.1-1.6-2.1c0-2.4 2.3-2.1 2.8.4M185.5 450c.7-1.1 2.5-.4 2.5 1 0 .9-5.8 2.5-6.5 1.8-.2-.2-.1-1.4.2-2.7.6-2.2.7-2.2 1.9-.7q1.2 1.7 1.9.6m18.6 1.7c-.9 1.7-1 1.7-1.7-.1q-.6-1.7.7-2.7c1.8-1.1 2.4.5 1 2.8m280.9-2.2q0 1.4-1 1.5-.9-.1-1-1.5c-.1-1.4.5-1.5 1-1.5q1 .1 1 1.5m3-.5q0 .9-.4 1-.5-.1-1.1-1-.4-1 .4-1 1 0 1.1 1m-309 1.5q1.4 1.6.2 2.7-1.2 1.4-2.7-.8c-.8-1-1.5-2.2-1.5-2.7 0-1.3 2.7-.7 4 .8m92.1.8q-1.5 1.4-.5-.6.6-1.6 1.2-1.2.4.6-.7 1.8m-131 1.6c2.6 2.9 2.6 3 .5 3.3-3.5.5-2.6 3.3 1 3.1 1.9-.2 3.7.4 4.4 1.2 1.1 1.3.8 1.7-1.9 2.8-4.1 1.5-4.2 4-.1 3.5 3.9-.4 4 1.5.1 2.3q-3.1.8-4.3-1c-2.5-3.1-3.8-6-3.2-7.5.3-.8-.2-2.8-1-4.5-.9-1.6-1.6-3.7-1.6-4.6 0-2.5 3.4-1.7 6.1 1.4m108.9-.8q0 .8-1 .9-.9-.1-1-1.6.1-1.3 1-.9 1 .6 1 1.6m-101.5-.1q.4.9-.4 1-1-.1-1.1-1 0-1 .4-1 .6 0 1.1 1m145.4 6.5q.2 4.3-.9 2.5a16 16 0 0 1-.9-6q0-5 .9-2.5c.5 1.1.9 3.8.9 6m75.5-5.6c1.7.7 4.7.9 7 .6 3.8-.6 4.2-.4 5.4 2.1.6 1.6 1.2 3.2 1.2 3.6 0 1.3-10.9.1-12.7-1.3-.8-.7-3-1.2-4.9-1.1-3 .2-3.4 0-3.4-2.1 0-1.3.2-2.6.5-2.9.8-.8 3.6-.3 6.9 1.1m-86.4 2.2q0 .8-1 .9-.9-.1-1-1.6.1-1.3 1-.9 1 .6 1 1.6m5-1.1q0 .9-.4 1-.5-.1-1.1-1-.4-1 .4-1 1 0 1.1 1m-125.6.9q.5.8 0 1.4c-.8.8-3.4-.3-3.4-1.4s2.7-1.2 3.4 0m53.3 3.8q-.5 1.4-.5-1.2t.5-1.8c.2.7.2 2.1 0 3m44.3-1.8q0 1-1 1.6-.9.4-1-.9.1-1.5 1-1.6 1 0 1 .9m-16.2 3.7c-1 1-2.8-.6-2.8-2.4 0-1.5.1-1.5 1.7.1q1.4 1.5 1.1 2.3m111.7-1.6q-.6.9-1.6 1-.8-.1-.9-1 .1-1 1.6-1 1.3 0 .9 1m-78.1 1.6c2 .8 2.1 4.4.2 4.4-1.8 0-3.9-2.7-3.1-4s.8-1.2 2.9-.4m8 1c.8 2.2-.4 4-1.5 2.3s-1.1-3.9 0-3.9q.9.1 1.5 1.6m-44.6 2.3q.4 1.3-.9.9-1.2-.5-1.7-1.7-.4-1.3.9-.9 1.2.5 1.7 1.7m12.2-1.4c0 1.2-2.4 5.5-3.1 5.5-1.5 0-2-2-.9-4 .9-1.7 4-2.9 4-1.5m235-.1q0 .6-1 1.1-.9.4-1-.4.1-1 1-1.1 1 0 1 .4m-324.7 4.8q-.6 2.6-1.4 2.8c-1.1 0-1.2-5.3-.2-6.4 1.2-1.2 2.2.9 1.6 3.6m130.7-3.5 1.4 10.8c.9 6.2 1 11 .5 12.9-1.4 4.8-1.1 9.6.6 10.2 2.2.9 1.8 3.4-.5 3.4q-2 .1-5 4.7c-2.7 4.3-3 5.5-2.6 11 .4 6.9 1.4 8.8 5.2 9.7 2.4.6 2.5.9 1.9 5.4-.4 2.6-1 6-1.5 7.7a155 155 0 0 1-9.5 35c-1.8 3.6-2.4 9.4-1 9.4.6 0 1.5-1.7 2.1-3.7q1.2-4.3 1.9-1.9c1.1 2.7-.2 13.5-2.3 17.6-1.6 3.4-2 3.6-6.7 3.6-2.7 0-5.2-.3-5.5-.6s-1.8-1.2-3.5-2c-3.3-1.6-3.4-2-2.2-13.9.7-7.5 2.2-12.4 3.7-11.5.5.3.7 1.2.4 1.9-.7 1.9 2.4 4.2 3.8 2.8.9-.9.6-3.3-1-9.9-1.3-4.9-2.7-15.1-3.3-22.8s-1.3-16.6-1.8-19.8c-.8-6.3-.2-7.4 2.8-5.7 3.6 1.9 7.9 1.2 9.8-1.6 1.9-3 .7-6.1-2.1-5.6q-1.6.3-1.6-1.8c0-2 1.4-2.7 2.4-1.2.2.4 1.7.8 3.3.7h2.8l-.3-9c-.3-10.1.9-14 4.3-14.9 1.9-.5 2.5-1.5 3-4.9.4-2.3.2-6.2-.4-8.7-1.3-5.7-1.4-8-.1-8q1 0 1 .7m-94 2.3q0 .9-.4 1-.6-.1-1.1-1-.4-1 .4-1 1 0 1.1 1m37.8 1.8q.2 1.1-.6 1.2c-1.8 0-4.2-1.2-4.2-2.1 0-1.3 4.3-.4 4.8.9m203.4 2.4q-1.3 1.5-1.2-1.2c.1-2.7.3-2.1 1.2-1.2q1.4 1.2 0 2.4m-160.8-.6c.3.9.6 2.5.6 3.6 0 2.5-3.3 2.1-3.8-.5-.8-3.8 1.9-6.4 3.2-3.1m8.8 2.9.2 6.2c.2 3.1-2.2 2.4-2.7-.9l-1.3-6.6c-.5-2.8-.4-3.2 1.5-3.2s2.1.6 2.3 4.5m-24.6-.8c-1 1-1.9-.5-1-1.8q.8-1.6 1.2 0 .3 1.2-.2 1.8m-49.2-.3c-.6 1.7-3.4 3-3.4 1.6q.2-1 1.8-1.9c2.2-1.3 2.2-1.3 1.6.3m18.1.6q.4.9-.4 1-1-.1-1.1-1 0-1 .4-1 .6 0 1.1 1m195.5 9.8a44 44 0 0 1-8.1 13.5 73 73 0 0 0-6.9 9.8c0 1.1-4 3.2-4.7 2.5q-1-1.2 6.7-9.6a47 47 0 0 0 11.1-19.5c2-5.9 2.5-6.5 2.7-4.1a23 23 0 0 1-.8 7.4m-186-7.4a3 3 0 0 1-.9 2.1c-1.2.7-2.4-1.2-1.6-2.5.9-1.5 2.5-1.2 2.5.4m62.9 5.2c.7 2.3 1 5 .7 6-.7 2-7.5 9.8-8.1 9.2-.7-.7 1.8-10.8 2.6-10.8q.8 0 .9 1t1.5 1c1.7 0 2.1-4.5.5-5.5-.5-.3-1-2-1-3.8q.2-5.5 2.9 2.9m-127.8-1.3q-1.2 1.2-1.1-.4c0-2 1.3-3.4 1.8-1.9q.3 1.2-.7 2.3m4.5.4c-1 1-1.9-.5-1-1.8q.8-1.6 1.2 0 .3 1.2-.2 1.8m-30.3-.3q.8 2.4-1.5 2.6-.7-.2-.8-2c0-2.3 1.5-2.7 2.3-.6m17.8 3.9c-1.3 1.3-1.5-1.1-.4-4q.8-2.5 1.1.6c.2 1.3-.1 2.8-.7 3.4m57.9-3.2q0 1.5-3.4.3c-2.5-1-1.9-2.2.9-1.6q2.3.4 2.5 1.3m55.5.5c1.5 2.4 1.5 2.9.1 6.5a22 22 0 0 0-1.6 6.4c0 1.4-.5 2.5-1.1 2.5q-1.2 0-.7-5.5c.3-3 .1-5.5-.3-5.5-1.4 0-2-5.3-.7-6.1 2-1.3 2.4-1.1 4.3 1.7m-93.5.9q0 1.4-1 1.5-.9-.1-1-1.5c-.1-1.4.5-1.5 1-1.5q1 .2 1 1.5m25 0q-.1 1.4-1.5 1.5-1.3 0-.9-1.5.7-1.3 1.5-1.5c.8-.2.9.7.9 1.5m54.8 2.6-.5 2.4-1-2.5c-1.2-2.8-.6-4.7.9-3.2.5.5.8 2 .6 3.3m56.7-2.2c-.3 1 .1 2.4 1 3.1 1.7 1.4 2 6.5.5 7.5-1.8 1.1-1 8.9 1.5 14.3 2.2 4.7 2.3 5.3.7 5-1-.2-2.3-2.1-3.2-4.6-.8-2.3-1.8-4.2-2.2-4.2-1.4 0-.8 5.5.8 7.8.8 1.2 1.4 2.8 1.1 3.5-.2.6-1.4-.5-2.7-2.6-1.2-2-2.6-3.7-3.1-3.7-1.6 0-1 3.7 1.1 6.3 1.8 2.3 1.8 2.6.3 3.8-1.3 1.2-1.8 1.1-3.1-.9q-2.7-4.2-3.4 0c-.2 1.9-1 2.4-4.6 2.6-3.3.2-4.7-.1-5.6-1.4-1.5-2-4.6-1.3-4.6 1 0 .8 1.2 2.4 2.7 3.6 2.3 1.8 3.5 2 7.5 1.5q8-1 2.8 2.8-1.8 1.3-1.3 2.1c1.3 1.2 10.8-.6 12.6-2.5 2-2.1 3.7-2.5 3.7-.8 0 .7-.9 4.2-1.9 7.8-1.8 6-2.9 12.6-3 17.4-.1.9-1.4 3.1-3.1 4.9-1.6 1.7-3 3.9-3 4.9s-2.5 4.6-5.5 8.1a62 62 0 0 0-15 33.3c-2.9 10.3-3.4 14.9-2.1 17.5 1.1 2.3.6 3.7-5.3 15.7-6.4 13-6.6 13.3-9.9 13.3-6.6 0-6.6-7.9 0-24.5 2.2-5.5 5.8-15.3 7.9-21.7 3.7-11.3 3.9-12.2 3.7-24-.1-6.8.3-14.6.9-17.3a921 921 0 0 0 6.1-26.5c.7-3.3.9-3.5 5.2-3.8 2.5-.1 5.2-.5 6-.8 2.5-.9-2.7-4.4-6.6-4.4-1.8 0-3.8-.6-4.3-1.3-5-6-6.1-7.8-6.1-9.9 0-3.3 4.5-9.6 7.2-10 1.7-.2 2.4-1.1 2.8-3.8.8-4.9 1.5-5.7 6.4-7.8q4.2-2 6.6-5.7c3.5-5.6 12-10.2 10.5-5.6m-103.5.6q0 1.3-1 1.5-.9-.2-1-1.5c-.1-1.3.5-1.5 1-1.5q1 .1 1 1.5m14.8.4q.4 1.3-.9.9-1.2-.5-1.7-1.7-.4-1.3.9-.9 1.2.5 1.7 1.7M201 484q0 .9-1 1a1 1 0 0 1-1-1q.1-1 1-1t1 1m30 .5q-1.2 1.4-1.7 1.1c-.7-.7.7-2.6 1.9-2.6q1 0-.2 1.5m-78 1.6c0 2.4-2.3 2.1-2.8-.4q-.2-1.6 1.2-1.7 1.5.1 1.6 2.1m337 .5q0 1.3-1 1.4-.9-.1-1-2.1.1-1.7 1-1.4c.6.3 1 1.3 1 2.1M195.5 489c-1 1.1-2.3 2-2.9 2q-.8-.3 1.3-2c3-2.6 3.9-2.6 1.6 0m68.4 2.7q0 1.2-1.3 1.3c-1.9 0-2.5-2.1-1.3-4.5 1-1.9 1-1.9 1.8 0 .4 1.1.8 2.6.8 3.2m-28.2-3.1q-.6.5-1.9.1-1.1-.5.6-.6t1.3.5m-85.7 3c0 1.7-2.2 1.4-2.8-.4q-.2-1.1 1.2-1.2 1.5.1 1.6 1.6m90.6 0c-.3.9-.6 2-.6 2.5s-1.1.9-2.5.9q-4.7-.2-.2-3.3t3.3-.1m-38.9 1.6q-.5 1.1-.6-.6t.5-1.3q.5.6.1 1.9m230.3-.1q0 .9-.9.4c-.5-.3-1.7.2-2.6 1.1-1.3 1.4-1.6 3.8-1.5 14.3.2 23.4.3 22.1-2.5 22.1-1.4 0-2.5.4-2.5 1s1.1 1.7 2.5 2.6c2.4 1.5 2.5 2.1 2.5 10.9 0 10.7-1.7 24.4-3.2 26.2-.8 1-1.8.6-4.5-1.7a13 13 0 0 0-4.2-3c-.4 0-1.3-1.1-2-2.4-1.1-2-4.9-4.6-6.6-4.6-1.4 0-.2 3.1 1.5 4 2.5 1.4 2.6 3 0 3.7-1.5.4-1.8 1.1-1.4 3.3.7 3.5 0 3.9-5.6 3.1l-4.5-.6.3-4.8.4-4.8-4.4.6c-4 .6-4.5.4-6.7-2.6-2.3-3.1-2.4-3.3-.7-8.4.9-2.8 1.6-5.9 1.6-6.9s2.4-4.7 5.3-8.4 6.7-8.8 8.4-11.3 5.9-7.8 9.3-11.9c3.3-4 6.8-8.6 7.6-10.3q3.3-6.1 1.6 4c-.6 3.2-1.4 8.8-1.8 12.5-.6 6.3-.8 6.8-3 6.8-2.9 0-3.2 2-.3 2.7 3.1.9 2.1 4.7-1.3 5.1-3.2.4-3.9 3.2-.8 3.2 2.1 0 2.4.9 1.4 5.9-.5 2.4-1.2 3.1-3 3.1-4.7 0-3.7 3.6 1.4 4.6q3.2.7 3.6-.7a213 213 0 0 0 6.7-29.4c.6-5 1.5-10 2-11.3 1.4-3.5 1.1-8.8-.6-10.2-2.3-1.9-1.8-3.5 2.2-6.3s6.3-3.4 6.3-1.6m-204.6 3.1c1 3.8.7 4.8-1.3 4.8-2.1 0-3.4-4.3-1.8-5.9q2.2-2.5 3.1 1.1m254.4 8.1c.8.9 1.6 3.4 1.8 5.5l.8 8.2c1.2 7.9 1.4 13.7.6 15q-.8 1.4-1.3-.6a42 42 0 0 1-1.8-11.6c.1-.9-.5-4.3-1.3-7.5s-1.7-9-2-12.8c-.5-6.5-.4-6.6.5-2.5.6 2.5 1.8 5.3 2.7 6.3m-296.3-6.4c.7 1.2-8.2 10.1-10.1 10.1q-1.3-.1-1.4-.8c0-1.5 3.8-4.4 4.8-3.8.6.3 1.9-1 3.1-2.9 2.2-3.7 2.6-4.1 3.6-2.6m11.5 1c0 2-1.7 3.7-2.7 2.8-.7-.8.7-4.7 1.8-4.7q.8.2.9 1.9m39 8.9c1.1 3.5 2 7.2 1.9 8.1-.1 2.3-2.8-3.9-2.9-6.6 0-1.2-.9-4.3-2-7q-2-5-.5-2.8c.9 1.1 2.5 4.8 3.5 8.3m23.1-7.5c-1.3 1.3-2.6.3-1.6-1.2q.6-1 1.7-.5 1 .6-.1 1.7m-54.1.2c0 .8-1.3 2.4-3 3.7-1.6 1.2-3 2.9-3 3.7q0 1.7-1.2.3c-1.7-1.7 1.6-8.6 3.7-7.8q1.4.4 1.5-.4.1-1 1-1 1 .1 1 1.5m-172 2.4q-.2.8-1.5 1.5c-1.5.5-2-.5-.8-1.7.9-1 2.3-.9 2.3.2m209 3.1c0 2.2.8 3.3 3.5 5 1.9 1.2 3.2 2.6 2.9 3.1q-.6.9-1.8 0t-1.8-.5c-1 .9-6-8.7-5.4-10.2.9-2.3 2.6-.6 2.6 2.6m9.6-1.3c-1 1-1.9-.5-1-1.8q.8-1.7 1.2 0 .3 1.2-.2 1.8m-56.1-.7q.4.9-1 1c-1.4.1-1.3-.5-1-1q.6-1 1-1t1 1m33.5.9q0 1-1 1.6-.9.4-1-.9.1-1.5 1-1.6 1 0 1 .9m42.4 1.3c.3 1.3.6 3.8.6 5.7 0 3-.2 3.3-2.2 2.7-1.3-.3-3.3-.6-4.6-.6q-2.3 0-1.9-1.3c.2-.6 1.5-1.2 2.8-1.2 2.1 0 2.4-.5 2.7-3.8.4-4.1 1.6-4.9 2.6-1.5m-11.9 1.3q0 2-2 1.7c-2.6-.5-2.7-.6-1.9-2.6.9-2.3 3.9-1.6 3.9.9m-144.7 6.2c2.7 3.8 7.1 9 9.9 11.8 2.7 2.7 6.2 7.6 7.7 10.7 2.5 5.4 2.6 5.8 1.2 9.2-.8 2-2.2 3.9-3.1 4.2-2.9 1.2-2.9-.6 0-3.6 3.8-3.9 2.3-6-2.5-3.5-4.3 2.2-5.2 1-1.5-2 2.5-1.9 2.8-2.6 1.7-3.7s-1.8-1-4.4.5c-3.8 2.2-4.9 1.4-1.8-1.1s2.2-5.9-1.1-4.1c-1.7.9-2.3.8-3-.2q-2-3.2.8-4.7 1.6-1 1-2.6c-.5-1.3-1.1-1.5-2.6-.6-1.6.8-2 .6-2.3-1.2-.4-3.1-2.3-3.3-3.6-.3-.7 1.5-1.7 2.3-2.2 2-1.6-1-1.2-6.1.5-7.5 2.8-2.4-2-4.9-5.6-3-1.4.8-1.6 2.2-1.1 9.8q.5 9-.7 9.6c-.6.4-1.1 2.1-1.1 3.8s-.7 3.9-1.5 4.8c-1.4 1.5-1.4 1.8 0 3 2.9 2.4 1.5 14.6-2.1 18.5-2 2.1-2.7 2.4-4.4 1.5-1.6-.9-1.8-1.4-.9-3.8 2-5.1 4.9-19.7 4.9-24.7 0-3.1.7-6 1.7-7.4 1.5-2.2 1.5-2.5 0-3.6-2.1-1.5-2.2-4.5-.2-4.5 1.7 0 2-2.5.5-3.5q-1-.7-.4-1.6c.3-.5-.1-2-1-3.3-1.4-2.2-1.4-2.4.2-1.9 1 .2 3.8-.5 6.2-1.6s4.8-2 5.2-2a34 34 0 0 1 5.6 6.6m71.8-1c-1 1-1.9-.5-1-1.8q.8-1.7 1.2 0 .3 1.2-.2 1.8m7.2-.4q.2 1.6-1.2 1.7c-1.8 0-2.9-1.6-2.1-3.1.9-1.4 2.9-.6 3.3 1.4m241.6 18.2c.1 10.6-1.7 21-3.4 20-.4-.3-.5-4.6-.3-9.7.5-8.8.5-18.5.2-21.8v-5l.3-3.5 1.6 4.5q1.6 4.5 1.6 15.5m-212.6-17.3c-.2.6-1 1.4-1.6 1.6q-1.1.3-.6-1.2c.7-1.8 2.8-2.2 2.2-.4m219.7-.2q.4.9-.4 1-1-.1-1.1-1 0-1 .4-1 .6 0 1.1 1m-39.4 2.7q-1.8 2.8-.5-1.2.7-1.4 1.1-1.1c.3.2 0 1.3-.6 2.3m-146.7-.4c1.8 1.3 1.8 1.5-.4 3.5-2.3 2.2-2 4.2.7 4.2.9 0 2.4-.7 3.4-1.6 4.2-3.8 4.9-.3 7.5 37.1.6 8.1.4 9.5-1.6 13.4-3.9 7.7-5 14.4-5.3 32.2-.3 16.6-1 20.1-3.7 18.4-.8-.5-.9-2.9-.4-8.4 1.1-12.2.7-20.1-1.5-28.1-2.7-9.4-5.8-28-5.7-34 .1-3.6.5-4.7 2.4-5.6 3.4-1.7 3.4-1.5 1.1-10-3-11.3-3.1-13.3-1.2-18.1s2.1-4.9 4.7-3m236.6 1.4q0 2.9-1.1 1.6c-.7-.7-.9-1.9-.6-2.7q1.6-3.5 1.7 1.1m-325.5.3c-1.9 2.1-3.5 1.8-3.5-.6q0-1.4 2.7-1.4c2.5 0 2.6.1.8 2m22.5-.4q0 1.3-1 .9-.9-.6-1-1.6.1-.8 1-.9 1 .1 1 1.6m19-1.2q0 .5-1 1.1-.9.4-1-.4.1-1 1-1.1 1 0 1 .4m37.8 1.5q.4 1.3-.9.9-1.2-.5-1.7-1.7-.4-1.3.9-.9 1.2.5 1.7 1.7m-155.8.6q0 1.4-1 1.5-.9-.1-1-1.5c-.1-1.4.5-1.5 1-1.5q1 .2 1 1.5m354.3.9c.6 1.5-1.9 3-3.4 2q-.9-.5.2-2 2.2-2.7 3.2 0m-374.5 2.9 3.4 2-2.8 1.5q-6 3-4.4 6.2c1.2 2.3-6.1 14.1-11.3 18.4l-7.6 6.7c-2 2-5.3 4-7.1 4.4q-6.7 1.3-5.5 4.5c1.5 4.7-11.4 8-15.1 3.9-2.3-2.6-1.1-4.9 2.6-4.9q3.2 0 6.2-3.1c2.3-2.3 3.7-2.9 5.4-2.5q4.1 1.2.8-2.5c-1.4-1.5-1.2-1.8 1.6-2.7 1.7-.6 4.4-.9 6-.5q4.8.8 1.8-2.5c-1.2-1.2-.4-1.7 3.7-2.4a3 3 0 0 0 2.3-2.3c.6-2.8 3-5.3 5.6-5.7q2.1-.3 5.1-5.9c1.7-3.2 3.8-6.6 4.8-7.7 1.6-1.8 1.6-2.1.3-3.5-.9-.8-2.9-1.8-4.6-2.2-4.9-1.1-4.4-2.3.7-1.7 2.6.3 6.2 1.4 8.1 2.5m129.6-1.8c-.6 1.6-2.4 2.1-2.4.7 0-1.1 1.1-2.2 2.1-2.2q.8.2.3 1.5m32.1 2.4c-.7 2.3-2.5 2.9-2.5.8 0-1.4 2.1-3.9 2.8-3.3q.3.6-.3 2.5m91.5-1q-.2.9-2.2 1.4-3.2 1.1-.4-.8c2.3-1.7 2.6-1.8 2.6-.6m-242 1.6q0 1.4-.9 1.5c-1.3 0-2.2-1.6-1.4-2.4 1.1-1.1 2.3-.6 2.3.9m102 .1q0 1.4-1.2 1.2c-1.8-.6-2.1-2.8-.4-2.8q1.5.1 1.6 1.6m263 .9q-.1 1.4-1.6 1.5-2 .2-.4-1.5 1.2-1.3 1.6-1.5.4.2.4 1.5m-386.1 1.1q.4.4-.2 1c-.9 1-5.7-.5-5.7-1.7 0-1 4.8-.4 5.9.7m132.3.6q-1.1 1-1.2.2c0-1.4 1.2-2.6 1.9-1.9q.2.6-.7 1.7m-13.7 1.9c0 .8-1 1.5-2.2 1.7q-2.1.5-2.3 1.8c-.2 1.3-.4 1.4-1 1.4-1.7 0-1.1-2.9 1.1-5.1s4.4-2.1 4.4.2m69.5 1.1q0 5.4-1.4-.5-.5-2.5.4-2.7c.5 0 1 1.4 1 3.2m-50-.3c0 2.5-3.2 5.9-3.8 4.1-.5-1.4 1.8-6 3-6q.7.2.8 1.9m-117 .4q.1 3.3-3.7 1.4l-2.6-1.2 2.4-.6c3.6-1 3.9-1 3.9.4m29.4 2.3c1.9 4.2 1.6 5-1.3 3.4q-2.1-1.1-2.1-4 .1-6 3.4.6M55.5 529q-.6.9-1.6 1-.8-.1-.9-1 .1-1 1.6-1 1.3 0 .9 1m393.5 0q-.1.9-1.5 1c-2.1 0-3.1 3-1.5 4 .7.5 2.4.3 3.7-.3 1.8-.8 2.7-.7 4.3.8 2.4 2.1 2 2.8-1.7 3-1.6.1-4 .5-5.5.9-2.8.8-2.8.8-2.8-4.2 0-4 .4-5.2 1.8-5.5 2.9-.8 3.2-.7 3.2.3m-240 .9q0 1-1 1.6-.9.4-1-.9.1-1.5 1-1.6 1 0 1 .9m23 0q-.1.9-1.5 2.1-1.6 1.5-1.5-.2c0-.8.3-1.8.7-2.1.9-1 2.3-.9 2.3.2m-64 3.7q.1 1.3 1.1 1.4 1.2 0-.1 1.5-3 3.6-3-2.1 0-3.3 1-2.9c.6.3 1 1.3 1 2.1m24-2.2q0 .5-1 1.1-.9.4-1-.4.1-1 1-1.1 1 0 1 .4m-149 1.8c-.1 1.8-2.5 4.8-3.9 4.8q-1.2 0 .6-3c1.8-3.1 3.3-3.9 3.3-1.8m113.1 6.2c-.3 3.3-1.1 6.1-1.8 6.3-1.6.6-1-9.2.7-11.3 1.7-2 1.7-1.8 1.1 5M81 536.7c0 2.6 0 2.6-2 .8-1.6-1.4-1.7-2-.8-2.7 2.2-1.3 2.8-.9 2.8 1.9m-29.5 1c-.7 2.1-6.3 6.8-7.2 6-.3-.4 1.2-2.4 3.3-4.6q5.8-6.3 3.9-1.4m164.7-1.2q-.1.9-1.1 1.3-1 .2-1.1-1.3c-.1-1.5.5-1.5 1.1-1.3q1 .4 1.1 1.3m-24.2 1.3c0 1.5-2.8 4.7-3.5 4-1.1-1.1.5-4.8 2.1-4.8q1.3.1 1.4.8m39 .7q0 1.3-1 1.5-.8-.2-.4-1.5.7-1.3 1-1.5.3.2.4 1.5m-115.2 6.2 1.4 8.7c.4 2.6-2.2 3.3-2.9.7q-.5-2-1.7-2.2l-3.1-.3c-3.6-.2-3-3.4 1-5 4.5-1.9 4.6-5.2.1-4.9-4.8.3-2-2.6 3.5-3.6.3-.1 1.1 2.9 1.7 6.6m78.3-3.3c-1.4 3.6-2.2 3.3-.9-.5.6-1.6 1.2-2.8 1.4-2.6.3.2 0 1.6-.5 3.1m-30-1.1c-.1 1.2-1.5.9-1.9-.4q-.4-1 .8-.8 1 .5 1.1 1.2m55.9-.9q0 .5-1 1.1-.9.4-1-.4.1-1 1-1.1 1 0 1 .4M87.2 545c-.5 5.6 1.4 7.2 2.5 2 .3-1.7 1-3.3 1.6-3.7 1.7-1-.1 5.9-2.3 8.9-1.1 1.5-2 3.2-2 3.8 0 3.9-10.2 16-13.4 16-.7 0-2.7.7-4.5 1.6-2.7 1.3-3.9 1.4-7.4.5a47 47 0 0 0-21.2.9c-1.8 1.5-3.9.2-2.7-1.6 1.2-2 7-4.4 10.3-4.4 1.8 0 6.1.5 9.6 1.1 7.2 1.3 8.4.8 5.8-2-1.3-1.5-3.3-2.1-7.8-2.3q-6.1-.3-6.5-1.7c-.4-1.2 1.3-1.3 10.6-.7q11.3.6 11.7-.5c1.3-2.1-1.3-3.1-9.1-3.5-5.6-.2-7.9-.7-7.9-1.6q.1-1.2 3.5-1.4c13.8-.1 16-.4 16-1.9 0-2.3-4.4-3.5-9.6-2.8-3.8.5-4.6.3-4.2-.8q.5-1.4 6.8-1.9c7.2-.6 9-2.4 4.1-4.3-4.8-1.8-4-3.9 1.2-3.1 4.7.7 7.7 2.8 7.7 5.5 0 1.8 3.6 3.6 4.8 2.4.3-.3 0-1.5-.7-2.7-1.1-1.7-.9-2.3 1-4.4l2.4-2.4c.1 0 0 2.2-.3 5m62.5-2.2a6 6 0 0 0-1.7 3.5q-.1 3-2.8.5c-.9-.9-.4-1.8 2.1-3.9 3.5-3 5-3 2.4-.1m306.2-.9c1.7 1.1.7 1.7-5.6 3.6s-7.9.3-2.7-2.3c4.4-2.2 6.3-2.5 8.3-1.3m-279.9 1q-.1.9-1.5 2.1c-1.3 1-1.5.9-1.5-.9q0-2 1.5-2.1 1.4 0 1.5.9m63.1 2.4c-1.6 1.6-2.6 0-1-1.9q1.4-1.6 1.7-.4c.2.6-.1 1.7-.7 2.3m-37.4-.1q-.5 1.1-.6-.6t.5-1.3c.3.3.4 1.2.1 1.9m-40.7.3c0 1.6-2.7 3.2-3.7 2.1-.7-.7 1.6-3.6 2.8-3.6q.8.1.9 1.5m48.2 2.7q-1.3 1.5-1.2-1.2c.1-2.7.3-2.1 1.2-1.2q1.3 1.2 0 2.4m-20.2 2.4q-1.3 5.2-4.2 5.4c-1.5 0-.8-3.5 1.2-6.8 2.5-4.1 4.1-3.4 3 1.4m-45-2.4c0 2.2-1.7 4.1-3 3.3q-1.3-.6.6-2.6c2-2.2 2.4-2.3 2.4-.7m96 1.3q-1.2 1.4-1.8 1-.4-.5.8-2 1.2-1.4 1.8-1 .4.5-.8 2m-89 1.7.1 3.3 1.4-2.5c1.2-2.2 1.4-2.3 2-.8.5 1.3-1.1 3.7-5.5 8.8-5.7 6.3-9 8.6-9 6.1 0-1.6 5.1-7.1 6.5-7.1q2.5 0 2.5-7.1c0-2.1.5-3.9 1-3.9s1 1.5 1 3.2m305.8-1c-.3 2-.9 2.3-4.5 2.4-2.3 0-4.8.6-5.6 1.3q-1.6 1.4-2-.1c-.6-1.9.3-3.7 1.7-3.2.7.3 2.8-.2 4.7-1 4.8-2.1 6.1-2 5.7.6M147 550q-.1.9-1.1 1-.8-.1-.4-1 .6-1 1.1-1 .3 0 .4 1m35-.1q0 1-1 1.6-.9.4-1-.9.1-1.5 1-1.6 1 0 1 .9m46.4 2.4c-.8 2.1-2.3 2.2-3.1.1-.7-1.8 1.7-3.8 3-2.5.4.4.5 1.5.1 2.4m149.1-1.3q-.6.9-1.6 1-.8-.1-.9-1 .1-1 1.6-1 1.3 0 .9 1M173 552.2c0 1.7-1.8 4.4-2.4 3.7-.8-.7.5-4.9 1.5-4.9q.8.2.9 1.2m45.7.3c.3.9-.2 2.4-1.1 3.4s-1.6 2.3-1.6 2.9q-.1 1.1-1.5 1.2c-1.9 0-1.9-.1.1-5q2.6-6.3 4.1-2.5m-87.1 3.4c-.9 1-1.6 2.3-1.6 3q0 1.2-2.5-.5c-1.4-.9-3.2-1.3-4.5-.9q-3.2 1-1.1-2.4.8-1.2 2.9-.7c1.2.4 3.3.1 4.9-.8 3.2-1.7 4.3-.4 1.9 2.3m8.9-1.8c-1 1.5-2.5 1-1.9-.6q.7-1.3 1.5-.9.8.6.4 1.5m348.4 12.7c.1 2.9.8 6.7 1.7 8.3 1.3 2.6 2 3 4.7 2.7 3.1-.3 3.3 0 2.9 3.2-.1.5-1.1 1-2.1 1-1.1 0-2.3.4-2.6 1-1.1 1.7-3.5 1.1-3.5-.9q0-1.8-.9-2.6-1.6-.7-2.4-19.5c-.4-8.5-.4-8.5.9-3.5a58 58 0 0 1 1.3 10.3m-257.8-10.5c-1.6 1.6-2.6 0-1-1.9q1.4-1.6 1.7-.4c.2.6-.1 1.7-.7 2.3m-73.9.6a14 14 0 0 0-3.3 4.3q0 1.5-.6 0c-.6-1.4 4.4-7.2 6.1-7.2.6 0-.4 1.3-2.2 2.9m32.9-.2q-1 2.2-1.1.2c0-1.7 1-3.2 1.8-2.5q.2.6-.7 2.3m35.9-1.5c0 1.4-3 4.8-4.2 4.8-1.5 0-.8-3.9 1-4.9q3.3-2 3.2.1m103 .8q1.9 1.1-1.2 1c-1.5 0-3-.5-3.3-1-.8-1.3 2.5-1.3 4.5 0m-218 1q0 .9-.9 1-1-.1-1.6-1-.4-1 .9-1 1.5 0 1.6 1m66 .4c0 1.6-1.8 3.1-2.7 2.2-.8-.8.5-3.6 1.7-3.6q.9.1 1 1.4m70.5 13.1c1.5 7.6 3.6 16.6 4.7 20 1.6 4.9 1.8 7.6 1.3 14.5a51 51 0 0 0 .5 13.5c1.4 5.8 3.1 18.2 3.3 24l.2 4-3.5-.4c-6.8-.8-7.5-.7-7.4 1.1q0 1.6-.6 1.8c-1.7 0-8-11-10.6-18.3-2.6-7.5-2.7-8.1-1.6-18.1.5-5.6.6-12.1.2-14.5-.4-2.3-3.1-8-6-12.7-3.6-6-5.1-9.3-4.7-11q.5-2.4-.9-2.4t-1.4-.8c0-1 5.8-4.2 7.6-4.2q1.3-.1 1.4-2.5c0-2 .5-2.5 2.4-2.5 1.4 0 3.7-1.1 5.3-2.4 2.2-1.8 6-3.6 6.9-3.2zm-130-9c-3.2 2.7-5.9 3.3-5.3 1.2.5-1.4 4.7-3.7 6.8-3.6q1.4 0-1.5 2.4m49.5-.6c0 1.1-.4 2.3-1 2.6q-1 .4-1-1.9c0-2.3.5-2.6 1-2.6q1 .2 1 1.9m17.5 3.8c-1 1.8-2.2 3.3-2.7 3.3-1.6 0-.8-3.7 1.4-6.5 2.9-3.7 3.7-1.4 1.3 3.2m10-1.8q0 3.8-1.2 3.4c-1.8-.7-2.4-3.2-1.3-5.4q2.6-4.5 2.5 2m140.5-.5 10.4 4q1.6.6 1.3 1.3c-.4.3-1.9 0-3.5-.6-3.6-1.5-9.4-1.1-10 .6q-.4 1.3 3.6 1.3c2.1 0 6.4.9 9.5 1.9 5 1.8 5.8 1.8 6.5.5.7-1.2 2.8-1.6 9.1-1.7 4.6 0 8.5-.5 8.9-1.1.7-1.1 6.2-1.7 6.2-.6 0 .3-1.8 1.2-3.9 2.1-3.8 1.6-4 1.9-4.6 7.4-.9 7 .6 9.3 5.1 7.8 3.5-1.2 4.3-3.3 1.5-4-2.6-.7-1.7-2.3 1.2-2.2 2.6 0 7 8.3 8.7 16.2 1.2 5.7.8 6.7-2.8 6.7-4.4.1-12.5 2.5-13 3.9-.4 1.1.6 1.2 4.4.7 2.7-.4 6.1-1.2 7.6-1.8 4.3-1.6 5.3-.6 6.7 7.2 1.3 6.8 1.2 7.4-.8 10.1-2.7 3.6-1.1 4.7 3.3 2l3.3-2.1 1.2 9.3c2.5 18.7 4.4 30.3 5.3 32.7.8 2.3 3.1 6.1 7.8 13 4 5.9 6.8 16.7 8.9 33.8 2.6 21.5 2.7 23.8.2 25.2-3.5 1.8-6.1 1.2-6.1-1.4a96 96 0 0 0-12.8-34.3c-2.4-2.5-7-13.1-7.8-17.4-.3-1.9 0-6.4.6-9.8.9-4.8.8-6.6-.1-7.7-1-1.3-1.4-1.2-3.1.3-2.3 2-1.5 3-9.7-11.7-8.9-16-10-21-4.5-21 3 0 10.4-5.4 10.4-7.6 0-1.9-2-1.8-4.8.2-2.8 1.9-8 1.2-11.4-1.6-1.8-1.4-2-2.1-1.1-3.1a60 60 0 0 1 16.5-5.9q1.7-.1 1.8-1.1c0-1.1-7.6-.3-11.8 1.2-2.8 1.1-5.8 1.2-4.8.2a36 36 0 0 1 14.8-4.5q2.1.5 1.6-.9c-.6-1.8-5.1-1.9-10.8-.2s-6 1.6-6-.2c0-2.3-3-6.5-4.6-6.5q-3.8-.1-5.4 14.4c-1 9-1 9.9.7 11.1 2.6 1.9.8 3.1-2.3 1.4l-2.7-1.4.8-15c.4-8.2.8-16.1 1-17.5l.3-5.3q.3-2.6 1.7-2.7 1.3 0 1.5-.9c.2-.9-.7-1.1-1.5-1.5-2.2-.8-1.8-3.6.5-3.6 1.9 0 2.6 1.4 3.2 7q.3 2.5 2.5 2.8c2.8.4 3.7-2.5 2.3-7.8-.6-2.3-.8-5.5-.5-7 .6-2.6.3-3.1-3.1-4.5-2.1-.9-4.5-1.4-5.3-1.3-2.5.5-2.3 2.7.3 3.4 2.9.7 3.4 2.2 1 3.1q-1.6.6-2.6-1c-1-1.8-4.4-2.3-5-.7-.1.5-.1 5.4.2 10.7.3 5.4 0 15.2-.7 21.8l-1.3 13.2c0 2-1.3 1.6-7.7-2.1-3.5-2-8.5-3.8-12.8-4.6-4.1-.7-7.9-2.1-9.2-3.2-2.1-2-2.2-2-8.7.2-8.4 2.7-10.2 2-10.4-4.5-.1-2.7.5-5.9 1.5-7.8l1.7-3.2.6 2.9c1.1 6.3 4.1 4 6.4-4.9 2-8.2 3.9-13.5 4.8-13.5.4 0 1.5-1.4 2.4-3.1 1.1-2.3 1.3-3.4.5-4.2q-2.8-2.6-7 6.1-4 8-4.1 3.4c0-1.7 5.3-9.4 11.4-16.3l4.8-5.7c1-1.2 2.1-2.2 2.5-2.2s4.6 1.5 9.3 3.4m-156-.4q0 1.8-1 2-.9-.2-1-2c-.1-1.8.5-2 1-2q1 .2 1 2m-7.5-.1q.4.9-.5 1.6-.9.4-1-.9 0-2.7 1.5-.7m50.3 1q.4 1.3-.9.9-1.2-.5-1.7-1.7-.4-1.3.9-.9 1.2.5 1.7 1.7m211.2.7q0 1.3-1 1.4-.9-.1-1-2.1.1-1.7 1-1.4c.6.3 1 1.3 1 2.1m12-.5q-.1.8-1.5.9c-1.5 0-2-1.2-.9-2.3.8-.8 2.4.1 2.4 1.4m-287.7-.5c1.1 1.1-.5 3.4-2.4 3.4q-3.3-.1-.7-2.8 1.8-2 3.1-.6m60.9 4.6q-1 1-3.2-.2c-2.1-1.1-2.1-1.2-.4-3.1s1.7-1.9 3.2.2q1.5 2 .4 3.1m10.5-4.6q-.7.5-1.9.1t.6-.6q1.8 0 1.3.5M45 563.9c0 1.1-3.9 2.5-4.7 1.8q-.4-.6.2-1.6c.8-1.3 4.5-1.5 4.5-.2m73.5 11.6c6.2 6.5 13.9 15.8 15.9 19.2.4.7.9 5.2 1.2 10s1 10.5 1.5 12.6c.9 3.4.7 4.1-1.9 7.5a39 39 0 0 0-8.3 18.1c-.4 2.9-1.2 5.8-1.8 6.4-.5.5-4.1 1.2-8 1.5-6.3.4-7.1.3-7.7-1.4-1-3.4-1.9-4.5-4.6-6.2-2.6-1.6-3-1.5-6.5.3a57 57 0 0 0-10 8.2 33 33 0 0 1-7.4 6.3c-.7 0-6.2 2-12.3 4.5-7.1 2.8-15 5.1-22.1 6.4-14.3 2.5-14.7 2.3-9-5.2 1.9-2.5 3.5-5.1 3.5-5.8s1.7-4 3.9-7.3l6.4-10.6c1.4-2.5 3.8-5.9 5.5-7.6 1.6-1.7 3.6-5.1 4.4-7.5 3.5-9.9 7-20.7 8.4-25.9 2-7.6 7.1-20.1 9-22.1.9-1 3.5-2.1 5.7-2.4 5-.9 11.2-4.3 15.1-8.4l2.9-3 4.6 2.5a77 77 0 0 1 11.6 9.9m44.5-8.4c0 2-2.5 3.7-3.7 2.5-.3-.3-.1-1.7.5-3.2 1.3-2.8 3.2-2.4 3.2.7m46-.7c0 2.4-2.2 5.1-3.3 4-.8-.8 1.3-6.4 2.4-6.4.5 0 .9 1.1.9 2.4m-34.8 2.1q-.3 2.9-1.8 1.4-1.5-1-.3-3c1.4-2.6 2.8-1.6 2.1 1.6m271.9-1q.8-.5.9 1c0 1.5-3.7 3.5-6.6 3.5q-2.7 0 .2-4.5c1.4-2.2 1.8-2.3 3.1-1 .8.9 1.9 1.3 2.4 1M149 566.4q0 .5-1 1.1-.9.4-1-.4.1-1 1-1.1 1 0 1 .4m-9 4.6c0 1.6-2.1 2.2-3.6.9q-1.7-1.2-.3-2c1.4-.8 3.9-.1 3.9 1.1m39-1q-.1.9-1.1 1-.8-.1-.4-1 .6-1 1.1-1 .3 0 .4 1m212.4 2.4q-1.1 4.9 9.7 6.2c5.5.6 5.7.6 8-2.5 1.2-1.7 3.1-3.1 4.1-3.1 3.2 0 6.8 3 6.8 5.8s5.4 20.6 7.2 23.7c.6 1.1 1.3 4.9 1.5 8.4.3 6.8 5 19.2 9.8 26.2 4 5.7 5.9 13.9 3.1 13.9-1.8 0-14.3-5.7-15-6.9-.3-.5-2.2-1.2-4.1-1.5-2.7-.5-4.9-.1-9 1.8a24 24 0 0 1-8.4 2.6c-2.8 0-3-.3-3.5-4.3l-1.6-13c-1.2-9.3-.9-10.7 1.9-10.7 1 0 2.6-.9 3.6-2 2.2-2.4 1.5-9.2-1.4-15.5a323 323 0 0 0-12.6-25c-2.8-4.6-3.1-6.5-1-6.5q1.6 0 .9 2.4m41.3-1.3 2.8 1.1-5.2 2.3c-2.9 1.3-5.3 3-5.3 3.6q0 1.5-1.1.2c-.9-.9-.5-2.1 1.7-4.7 3.3-4 3.3-4 7.1-2.5m-44.4 8.8a79 79 0 0 1 8.8 17c.7 1.8 2.2 4.5 3.4 6 1.8 2.2 2.1 3.4 1.6 7.6-.4 3.7-1.1 5.1-2.3 5.3q-1.7.2-1.8-1.2c0-2.1-2-2-3.6.1-1.2 1.7-1.3 1.6-1.4-.5q0-2.1 2.5-3.4c3.3-1.5 3.2-3-.1-2.6s-4.5-2.1-1.5-2.9q2.1-.5 2.1-2.9c0-3-3-3.3-3.7-.4-.9 3.3-2.4 1-2.3-3.4.2-5-.5-7.5-4.2-14.4a22 22 0 0 1-2.8-9.6l.1-4.1 1.4 3.3c.8 1.9 2.5 4.6 3.8 6.1M191 572.6a323 323 0 0 0-10.5 19.4c-3.7 7.4-7.5 14.6-8.5 16s-2.4 4.5-3.5 7c-1 2.5-2.8 5.4-3.9 6.5a101 101 0 0 0-10.7 13.4 43 43 0 0 1-4.3 17.3c-5.8 13.3-6.9 15.2-9.7 16.5-3.6 1.8-8.9 0-8.9-3 0-1.1-.7-2.8-1.5-3.7-1.6-1.7-1.5-3.5 1.4-20.1.9-5.4 4-11.1 10.8-19.4 3.9-4.8 5.3-7.6 6.8-13.5 1.1-4.1 2.7-8.6 3.6-10 1-1.4 2.3-5.2 2.9-8.5a119 119 0 0 1 2.8-11.8l1.6-5.9 7.1.7c8.8.9 8.8.9 10 1.6q4.8 3 9.5-.6 5-3.7 5-1.9m186.8 1.7q.3 1.8-1.7 1.7t-2.1-1.3c0-3.1 3.2-3.4 3.8-.4m-162.8.6a7 7 0 0 1-2 2.6c-1.6 1-1.2 3.5.5 2.9 2.6-1 1.6 1.1-1.6 3.5q-5.2 3.8-3.1-.6c.5-1 1.2-3.5 1.6-5.5.6-3.3 1.5-4.2 4.9-4.7q.6.1-.3 1.8m-140 .9q-.1 1-1.3 2.6c-1.3 1.8-1.4 1.8-2.1.1q-.5-1.8.6-2.7 2.7-1.5 2.8 0m138 11.1q-.1.9-1.5 2.1-1.6 1.6-1.5-.2c0-.8.3-1.8.7-2.1.9-1 2.3-.9 2.3.2m-4.8 4.3q-1.1 1-1.2.2c0-1.4 1.2-2.6 1.9-1.9q.3.6-.7 1.7m1.9 3.1c-1.3 1.3-2.6.3-1.6-1.2q.6-1 1.7-.5 1 .6-.1 1.7m7.9 1.7q0 .9-1 1a1 1 0 0 1-1-1q.1-1 1-1t1 1m-9 2.5q-.1 1.4-1.6 1.5-2 .2-.4-1.5 1.2-1.3 1.6-1.5.3.2.4 1.5m21 2.5c0 2.6-1 5-2.1 5q-.8-.2.1-2c.6-1.2.8-3 .4-4.2q-.6-2 .5-1.4c.6.4 1.1 1.6 1.1 2.6m-164.9 2.3q-1.2 1.2-1.1-.9c0-2.7 1.4-4.1 1.8-1.9.2.9-.1 2.2-.7 2.8m80 2.8q-1 2.4-1 .7c-.1-2.2 1.2-5.5 1.6-4.2.2.6-.1 2.2-.6 3.5m60.7-.9q-.5 1.1-1.6 1.6-1.1.3-.6-1.2c.7-1.8 2.8-2.2 2.2-.4m4.2.3q-.1 1.3-1.5 1.5c-1.6 0-2-1.2-.8-2.3 1.1-1.2 2.3-.8 2.3.8m-6.4 6.2c-1 1-1.9-.5-1-1.8q.8-1.7 1.2 0 .3 1.2-.2 1.8m25 1c-1.1 1.1-1.9-.6-1.1-2.4s.8-1.7 1.2 0c.3 1 .2 2.1-.1 2.4m-86 2.1c-2 2-2.2.1-.4-3.1 1.1-2 1.2-2.1 1.6-.3.2 1-.3 2.6-1.2 3.4m125.9-2.8q.4.9-.4 1-1-.1-1.1-1 0-1 .4-1t1.1 1m-66.5 4.2c0 .7.3 2.4.7 3.7q.7 2.5-.6 1.7-1-.8-.6-1.7t-.8-.9q-1.5 0-1-2c.6-2.2 2.3-2.7 2.3-.8m66.5.8q.4.9-.4 1-1-.1-1.1-1 0-1 .4-1t1.1 1m44.9.6c.5 1.2 1.4 1.4 4.4.9 4.5-.7 17.5 2 19.2 4 .9 1.1-.5 3.5-6.6 11.7A377 377 0 0 1 316 652c-3.6 4.1-7.8 9.4-9.3 11.7a19 19 0 0 1-5.6 5.7c-3.5 1.8-3.9 3.3-4.7 16.1-.8 11.9-2.2 14.9-13.9 29.5-10.1 12.5-13.6 19.9-15.3 31.7-.7 4.5-.9 4.7-4.7 5.5-2.2.5-4.4 1.3-4.9 1.8-1.5 1.5-6.6 1.2-6.6-.3q.2-1.2 2.1-2.5c1.7-1.1 2-1.9 1.4-5.2-.5-3 .1-5.4 2.9-12.1a694 694 0 0 0 18.1-47.9c2.6-8 5.2-15 5.7-15.6s.6-1.8.3-2.6.1-2.8 1-4.4 1.5-3.6 1.5-4.4c0-2.7 5-14.4 11.8-27.4 6-11.5 7.1-13.1 10.2-14.2 4.8-1.7 6.7-1.7 7.4.2m-254.3 3.7c-1.3 1.3-1.5-.1-.4-3 .7-1.7.8-1.7 1.1.1.2 1-.1 2.3-.7 2.9m143.9 3.8c3.3 2.9 3.4 3.2 1.6 4.4-2.3 1.7-4.3 1-4.9-1.8-.2-1.2-.8-3-1.2-4q-1.5-3.8 4.5 1.4m5.1-1.8c-.1 1.2-1.5.9-1.9-.4q-.4-1 .8-.8 1 .5 1.1 1.2m20.8 5q0 .7-.9.2c-.5-.3-1-1.6-.9-2.8q-.1-3.1.9-.2c.5 1.1.9 2.4.9 2.8m36.4 5.5q-.8 2.5 1.3 1.5 2-1 .9 1.3c-.5 1-.8 3.5-.8 5.4l.1 3.5-1.4-3c-.7-1.7-1.3-3.7-1.4-4.5s-.9-2.6-2-4c-3.5-4.5-2.2-8.4 1.6-4.7q2.4 2.2 1.7 4.5m99.2 4.4a232 232 0 0 0 11.1 23c3 4.7 3 4.8-.3 4.8-3.4 0-6-1.5-4.4-2.4 2.1-1.3 1.3-5.6-1.3-6.6-3.1-1.1-6.6-.2-5.9 1.6.4 1.1-.8 1.4-5.6 1.4q-6.2 0-6.1-1.3c0-2.8 1.9-3.6 9.3-4 4.3-.3 8.1-.8 8.5-1.1 1.5-1.5-2.6-2.4-8.5-1.9-5 .5-6.4.3-6.8-.9-1.1-2.9 5.1-16.8 7.5-16.8.4 0 1.5 1.9 2.5 4.2m-137 .8a2 2 0 0 1-1.2 1.7q-1.3.4-1.3-1.7 0-2 1.3-1.8 1 .6 1.2 1.8m-2.5 6.6q0 1.3-1 .9-.9-.6-1-1.6.1-.8 1-.9 1 .1 1 1.6m5-.2c0 .8-.5 1.8-1.1 2.1q-.9.7-.6 1.9c.2.6.1 2-.3 3.1-.8 1.9-.8 1.9-1.6.1-.4-1.1-.2-2.7.4-3.7s1.2-2.6 1.2-3.4q.1-1.3 1-1.5 1 .1 1 1.4m-6.4 6.8c-.4 5.9-1.3 7.5-4.3 8.3-3 .7-3.6.3-2.7-1.9.3-.9 1.5-1.6 2.5-1.6q2 .1 1.9-2.5c0-2 1.8-6.5 2.7-6.5.1 0 .1 1.9-.1 4.2m48.5-1.3q-1.1 1.7-2.5 3.1c-1.4 1-1.6 1-1.6-.5 0-2.2 2.9-5.7 4.1-4.9q.8.6 0 2.3m53.2-1.4q-.6 1.4-1 1.1-.4-.5.2-1.5c.9-1.6 1.5-1.3.8.4m-151.6 5.3a68 68 0 0 0 8.5 21.6c9.4 9.2 16.4 14.7 20 15.7q4.1 1 3 2.1-1 1-4.2-.1a18 18 0 0 0-7-.5c-2.2.4-6 0-9.2-1a20 20 0 0 0-11.3-.5c-7.3 1.3-8.7.3-6.2-4.4q1.8-3.4 1.2-6c-.6-2.1-.4-2.7.9-2.7 2.3 0 2-2.1-.4-2.7-2-.5-2-.6-.3-2.5s1.7-2 0-3.3-1.7-1.4.3-2c2.9-.9 2-2.9-1.6-3.6-2.8-.5-2.8-.5-.6-1.3 2.8-.9 2.8-1.7-.2-4.9-2.5-2.6-2.5-2.7-.5-3.8q2.3-1 .9-2.4t1.7-2.3c1.5-.5 3-.7 3.3-.5.3.3 1 2.6 1.7 5.1M407 651q-2.2 1.8-1.4 2c.5 0 1.5-.5 2-1q1.1-1.2 3.7.1c2.1.9 3.3.9 5.2.1 2.2-1 3.6-.7 9.5 2 3.9 1.7 6.9 3.3 6.6 3.5-.2.2-3.9-.3-8.1-1.2-4.3-.8-8.6-1.3-9.7-.9-1.1.3-3.9.3-6.3 0-3.3-.5-4.4-1.2-4.9-2.9q-.8-3.6 3.9-3.7c1.8 0 1.8.2-.5 2m-191.6.5c-.7 1.6-2.4 2.1-2.4.6q-.2-1 2.7-2zm46.7 1.9q-1.1 1.4-5.1.9-4-.6-4 .6c0 .6.9 1.1 1.9 1.1 4.6 0 5.1.9 5.1 8.4 0 8.4 2 12.4 7.2 14q5.6 1.9 2.8 8.5c-.9 2.4-1.9 2.9-7.8 3.9l-9.9 1.8-3.3.6v-7.1c0-3.9.6-8 1.2-9.1 1-1.5 1-2.2 0-3.2-2-2-1.5-4 .8-3.3s2.9-1.8.9-3q-1-.7-.5-2.1c.3-.7-.1-2-.9-2.8-1.3-1.2-1.3-1.5 0-2 2.3-.8 1.8-2.4-1.2-3.8-4.1-2-4.1-4.4 0-5.2 1.9-.4 4.6-.2 6 .3q2.5 1 4.3-.4c2.3-1.7 4.2-.2 2.5 1.9m18.9-.8q0 1.3-1 .9-.9-.6-1-1.6.1-.8 1-.9 1 .1 1 1.6m-127 3.2c0 1.3-1.2 2.2-2.2 1.6s-.1-2.4 1.3-2.4q.8.1.9.8m166 .6q0 .5-1 1.1-.9.4-1-.4.1-1 1-1.1 1 0 1 .4m3 2.6c0 1.6-.4 3-.9 3-1.3 0-2.4-3.4-1.2-3.8q1-.4.5-1.3t.5-.9c.6 0 1.1 1.3 1.1 3m-81-1.6q0 .5-1 1.1-.9.4-1-.4.1-1 1-1.1 1 0 1 .4m36.2.8c.7 1.8-.2 3.9-1.3 3.2s-1.2-4.4 0-4.4q.9.2 1.3 1.2m-72.4 2.5q-.4 1.8-3.3 2-2.6.2-1.5-.4c.8-.3 1.9-1.2 2.3-1.9 1.1-2 2.9-1.7 2.5.3m112.7-.7q.4.9-1 1c-1.4.1-1.3-.5-1-1q.6-1 1-1t1 1m169.3 1c1.7 0 3.2-.4 3.2-.8s.9-.8 2-.9q1.8-.1 1.5.8t1.9.9c2.3.1 2.6.4 2.6 1 0 1.4-15.7 1.3-22.2-.2-4.9-1.2-5.1-1.3-2.3-1.8 1.7-.3 4.6-.2 6.5.2s5 .8 6.8.8m-278.1 1.6q-.6.5-1.9.1-1.1-.5.6-.6t1.3.5m142.3 3.2c-2.7.4-3.2 0-2.4-2.2.6-1.6.8-1.6 2.6.1 2 1.8 2 1.8-.2 2.1m-117-2c0 .4-3.1.8-7 .8-3.8.1-7-.3-7-.7 0-.5 3.2-.9 7-.9 3.9 0 7 .3 7 .8m-213.1 1.1c.7.5 1.4 2.1 1.4 3.6 0 1.4.6 2.9 1.4 3.2 1.6.6 3.8-1.1 3.8-2.9q.1-1 1.3-1.6 1-.2 1.2 1c0 2.5-3 5.7-5.7 6-3.2.4-4.4 2.8-1.4 2.8q2 0 2.1.3c0 1.2-5.6 15.6-6.7 17.4-1.2 1.9-1.2 2.6.2 5.2 1.8 3.7 3.1 3.8 6.2 1 2.1-2.1 2.6-2.1 8.3-.9 3.3.7 6 1.6 6 2 0 1-11.6 5-18 6.1l-10.2 2c-2.6.6-5.2.8-5.8.4-1.3-.8-.5-5.5 1.6-10.3a38 38 0 0 0 2.4-8c3.3-18.3 4.9-25.4 6-26.7 1.4-1.7 3.8-1.9 5.9-.6m104.1 2.2q0 .9-1 .4c-.5-.3-1-1.1-1-1.6q.1-.9 1-.4a2 2 0 0 1 1 1.6m217.3 1.9c-.6 2.2-2.3 3.8-2.3 2.1s1.2-4.1 2-4.1q.8.2.3 2m-280.8 0c-.3.5-1.4 1-2.3 1q-2.2.1-.2-1c2-1.3 3.3-1.3 2.5 0m259.7 10c-.5 7.3-1.5 10-3.9 10q-1.9.2-.3-1.5c2-2.4-.3-4.2-5.2-4-6.9.3-7.1.3-6.5 2.5q.8 2.2-1.9 2c-2.2 0-2.3-.3-1.9-4.5q.4-4.7 2.7-6.5 2.1-1.7 1.5-2c-.4 0 0-1.4.9-3.1 1.6-3.1 1.6-3.1 7.5-2.5 4.5.5 5.9.4 6-.6q.2-1 .8 1.2.8 3.5.3 9m-177.3-6.6c-2 2-10.3 3.2-9.7 1.5.3-.8 2.4-1.7 4.8-2.1 2.3-.4 4.5-1 4.8-1.3q.6-.4 1.1 0c.2.3-.2 1.2-1 1.9m-11.3 5.1 3.1 2-.5 9c-.4 8.1-.2 9.3 1.7 11.7 1.3 1.6 4.3 3.3 7.4 4.3 3.8 1.2 6.4 2.9 9.5 6.3 2.3 2.6 4.2 5 4.2 5.3 0 2.5-13.7 3.3-17.5 1-.5-.3-3.3-.4-6.2-.2-5.4.3-6.4-.3-10.6-6.3-1-1.4-2.7-2.6-3.8-2.6-1.6 0-2-.6-1.7-2.8q.3-2.8 2.3-2.7c3.3 0 4.8-1.4 3.4-3.1-1-1.2-.8-1.6.9-2.1 2.5-.6 2.7-4.7.4-7.5-2.1-2.5-1.1-5.3 2.2-5.6 3-.4 3-.8 1.2-10.7q-.7-3.6.2-.5c.4 1.4 2.2 3.4 3.8 4.5m140.4-2.6q0 1-1 1.6-.9.4-1-.9.1-1.5 1-1.6 1 0 1 .9m188.4 2.4c-2.7 2.4-2.8 2.5-1.1 5q3.8 5.7 8.3 1.6c2.2-2.1 2.3-2.4.9-4.6q-3.1-4.5 2.4.4c1.7 1.6 5.5 4.2 8.3 5.8 5.4 3.2 8.6 7.4 8.7 11.4.1 2.2-.1 2.3-4.1 1.7-2.4-.4-6.5-2-9.1-3.6-2.7-1.7-6.3-3-8-3-3.4-.1-7.9-3.2-9.1-6.3a4 4 0 0 0-2.5-2.4c-1.6-.4-1.2-1.1 2.6-5 2.5-2.4 4.7-4.2 5-3.9s-.7 1.6-2.3 2.9m4.6 3.7q-.1.9-1.5 1c-1.4.1-1.5-.5-1.5-1q.1-1 1.5-1c1.4 0 1.5.4 1.5 1m-13.7 6q.4 1.8-.4 2c-.8.2-.9-.2-.9-.4l-.6-2q-.5-1.5.4-1.6.9.2 1.5 2m-136.6 7.4c.2.2-.3 1.8-1.2 3.5-1.5 3-1.7 3.1-8.8 3.1-4.4 0-7.8.5-8.5 1.2-1.9 1.9-1.3-.5.8-3.2 1.1-1.4 2-3.2 2-4 0-1.2 1.4-1.5 7.6-1.3 4.2.1 7.8.4 8.1.7m-49.7 1q0 1.4-.8 2c-1 .6-4.3-1.9-3.5-2.7 1.2-1.3 4.3-.7 4.3.7m31 10.7q-.1.8-1.5.9c-1.5 0-2-1.2-.9-2.3.8-.8 2.4.1 2.4 1.4m11.5-.1c-.8 1.3-3.5 1.3-5.5 0q-1.8-1 2.3-1 3.6 0 3.2 1m-7.5 4.9c0 1.2-2.1 1.9-3.8 1.3q-1.7-.4 0-1.3c1.7-1.1 3.8-1.1 3.8 0m-4 6q-.1.8-1.5 1.5c-.9.3-2.4 2.1-3.5 3.9-2 3.4-2 3.4-6.8 2.4l-5-1.3c-.2-.1.9-1.9 2.5-3.8 2.6-3.4 3.2-3.6 8.6-3.6 3.1 0 5.7.4 5.7.9M280 727q-.1.9-1.1 1-.8-.1-.4-1 .6-1 1.1-1 .4 0 .4 1m144.4 15.4q-.6 2.4 1 2.9 1.5.8 1.6 2.4-.2 1.8 3.1 1.9c4 .2 5.7 1.8 3.9 3.9-1.2 1.4-1.5 1.4-2.2.2q-.9-1.4-2.8-1t-2-.8q-.1-1-2.5 1.1c-1.4 1.3-2.5 3.1-2.5 4 0 1.9-1.9 4-3.7 4q-1.2-.1-1.3-1.4t-2.2-2q-2.8-.6-.8-1.6c.8-.5 2.7-1 4.2-1 3.9 0 4.4-1.8.9-3.3-2.8-1.2-2.9-1.3-1.1-2.5 2.8-1.7 2.5-3.2-.7-3.2-2.5 0-2.5-.1-1-1.8 1-1 1.7-2.4 1.7-3s1.5-1.2 3.5-1.2c3.2 0 3.5.2 2.9 2.4M249 749q-.1.9-1.1 1-.8-.1-.4-1 .6-1 1.1-1 .3 0 .4 1m189.3 6c-.3 1.1-.9 2.3-1.4 2.6-1 .6-1.2-3.9-.3-4.9 1.2-1.2 2.2.3 1.7 2.3m5 1.6q-.6 1.3-1.3 1.4c-1.4 0-2.2-2-1.6-3.7.5-1.2.9-1.3 2.1-.3.7.6 1.1 1.8.8 2.6"/><path d="M109.4 325.1q-.5 1 .4 2.1c1.1 1.1 5.2-.6 5.2-2.2 0-1.4-4.7-1.3-5.6.1m98.7 3.3c-2.8 2.9-2.4 6 .8 6.4q2.7.7 1.6-1.7-.7-2 1.4-3.1 1.9-1 1.5-2.5-1.4-3.2-5.3.9m13.4 2.6q.6.9 1.6 1 .8-.1.9-1-.1-1-1.6-1-1.3 0-.9 1m-15.9 14.9c-2.1 2.4-1.3 4.1 1.8 4.1 3 0 7.2-3.3 6.2-4.8-1.1-1.9-6.1-1.4-8 .7m51-14q-.4 1 .8 2c1.6 1.3 3.2-.2 2.1-1.9-.8-1.2-2.2-1.3-2.9-.1M369 360c-2.3 1.4 0 4.3 4.1 5.2q6.4 1.2 3.1-2.8c-2.1-2.7-5.2-3.7-7.2-2.4m-6.8 16.2c-3.1 3.1-.1 6 5.1 5.1 4.5-.7 4.8-2.7.7-4.8-3.5-1.8-4.2-1.9-5.8-.3m-191.7 6.7c-.9.8 2.9 5.1 4.5 5.1 2.7 0 4.5-2.7 3-4.5-1-1.2-6.4-1.7-7.5-.6m237 33.1c-.8 1.3 2 2.4 4.1 1.6s.9-2.6-1.6-2.6c-1 0-2.2.5-2.5 1m-20.9 69.2a61 61 0 0 0-2.6 16.4c0 5.1-.4 6.3-3.8 10.8a106 106 0 0 0-15.1 24.2c-4 9.2-4.3 12.4-2 17.9 1.3 3 1.3 3 1.9-3a56 56 0 0 1 9.1-23.2 115 115 0 0 0 12.2-22.9 84 84 0 0 0 4.2-20.5c-.9-1.3-3.5-1.1-3.9.3m26.9 29.8q-.4 1 1 1.6c1.9.8 3 0 2-1.5-.8-1.4-2.2-1.4-3-.1m-1.5 7.5c-1 1.2-.9 1.6.5 2.1 1.9.8 4-.9 3.1-2.5q-1.4-2.3-3.6.4m8.4 16.6q-.4 1 .7 2c1.8 1.1 2.1 1.1 3.9-.1 1.3-.9 1.3-1.1 0-2q-3.1-2-4.6.1m.8 8.6c.4 2.2 3.8 3 3.8 1 0-.8-.7-1.8-1.6-2.1-2.3-.9-2.6-.8-2.2 1.1m-16.5 6.9c-1.4 1.4 1.6 3.4 5 3.4 2.7 0 3.4-.4 3.1-1.8q-.2-1.7-3.8-2c-2-.2-3.9 0-4.3.4m14.8 3.4q-.4 1 1 1.6c1.9.8 3 0 2-1.5-.8-1.4-2.2-1.4-3-.1m-1.5 7.4q.1 1.5 1.6 1.6 1.4 0 1.2-1.2c-.6-1.8-2.8-2.1-2.8-.4m-81.5 8.6c-.7 1.1.4 1.6 5 2.3 1.7.3 4 .8 5.3 1.2 3.9 1.3 2.4-1.2-1.8-2.9q-7-2.7-8.5-.6m1.7 7.1c.2.8 2 1.5 3.9 1.7s4 .8 4.7 1.4c2.1 1.8 2.4.3.3-1.6-2.5-2.3-9.6-3.5-8.9-1.5m2.8 8.7c0 1 5.1 2.4 5.9 1.6q1.2-.9-3.2-1.9-2.6-.6-2.7.3m30.5.6c-1.9 1.4-1.9 1.5-.2 2.1 2.6 1.1 10.9-.4 10.4-1.8-.6-1.8-7.9-2-10.2-.3m-26.9 5.5q-.5.9.3 1.5t1.5-.3q.5-.9-.3-1.5t-1.5.3m29.1.6c-4.5 1.6-5.1 2-4.3 3.4.7 1 13.6-2.9 13.6-4.2 0-1.1-5.1-.7-9.3.8m4.5 23.4c-5.8 2-6.9 2.7-5.8 3.8 1 1 11.9-3 12.4-4.5s-.1-1.5-6.6.7m-226.7-4.6c-.9 2.1-.3 4.9 1.1 5.4 1.8.6 2.5-4 .9-5.6-1.2-1.3-1.5-1.2-2 .2m109.8-310.8c-.6 1.4-.8 2.7-.5 2.9 1.2.7 5.4-3.3 4.7-4.4-1.1-1.7-3-1.1-4.2 1.5m-5.8.5c-1 1.1-2.6 2-3.5 2-1 0-2.3.7-3.1 1.6-1.1 1.4-.9 1.5 2 1.2 2.3-.2 3.7-1.2 5.2-3.6q3.5-5.6-.6-1.2m-154.4 54.3a97 97 0 0 0-4.3 12.2l-2.3 8-5.5 2.7c-3 1.5-7.7 3.4-10.5 4.4-2.7.9-5.6 2.3-6.2 3.2-2.2 2.7-1.6 8.7 1.3 12.1 3.2 3.8 2.6 7.6-1.8 12.7C67 420 59 422.8 59 419.1q0-3 5.5-3.1c1.2 0 2.9-.7 3.6-1.6 1.9-2.3 1.2-7.6-1.1-9.6q-1.7-1.6-1.2-2.2c.5-.3 1.2-3.1 1.6-6.2.7-6-.6-8.3-4.7-8.4q-1.8 0-2.4-3.2c-.3-1.7-2.3-4.8-4.5-6.8-2.1-2.1-3.8-4.4-3.8-5.2 0-1.4-3.1-4.7-5.8-6.2-.6-.4-4.2.3-7.8 1.5-5.2 1.8-7.3 3.1-10.1 6.5-1.9 2.4-3.9 4.1-4.4 3.8-1.6-.9-5.6 2.6-7.2 6.4q-2.8 6.6-3.1 17.2c-.1 5.2 0 5.5 2.2 5.2 1.9-.3 2.2.1 2.2 2.7 0 3.5 4.3 9.1 7 9.1q1.7.1 2.3 1.4c.3.8 1.9 1.7 3.5 2.1q6 1.4 2.1 6.3c-6 7.8-11 19.2-13.4 30.8a11 11 0 0 1-3.1 5.4c-1.3 1.3-2.4 3.4-2.4 4.8s-1.1 3.7-2.5 5.4c-2.1 2.5-2.5 4-2.5 9.4 0 6 .1 6.4 2.3 6.4q5.3 0 1.2-3.6c-3.4-3.1-3.1-5.7 1-11.1 1.9-2.5 3.5-5.6 3.5-6.8s1.1-3.2 2.4-4.4c1.6-1.5 3.6-5.9 5.6-12.2 2.8-9 3.3-9.9 5.5-9.9 2.8 0 2.9-.3 1.5-3.1-.8-1.4-.6-2.7.5-4.9 1.3-2.4 2-2.9 3.9-2.4 2.7.6 4.3-2 2.6-4.1q-1-1.3-.2-1.9c.5-.3 1-2.6 1-5.2.1-5.2 1.2-6.9 4.7-7.8 1.9-.5 2.5-1.3 2.5-3.4 0-1.7 1-3.8 2.5-5.2q4.5-4 .5-6c-2-1-1.9-1.1.5-5 1.4-2.2 2.5-4.2 2.5-4.6 0-1.5-5.7 1-9.3 4.2q-6.6 5.4-6.7 1.9c0-.8 1.9-2.4 4.2-3.6 4.9-2.4 11.8-8.7 11.8-10.6q0-1.2.9-1.3c1.9 0 2.3 2.2 1 5.1-1.1 2.7-1 3.3 1 5.2 1.8 1.9 2.4 2 4.2.9 1.1-.7 2.4-1 2.9-.7 1.3.8.1 8.4-1.8 11.2-1.3 2.1-1.2 2.5 1.7 5.2q6.8 6.3-1.4 6.1c-4.7 0-4.8.1-5.7 6.4q-.4 1.8-2.8 2.2c-3.2.3-9.3 2.6-11.4 4.3-3.1 2.6-.1 3.4 4.2 1.2 3.8-1.9 12.1-2.9 13.4-1.5.3.3-.1 1.9-.9 3.5s-1.2 3.7-.9 4.5c.9 2.4 4.1 1.2 4.4-1.6.5-4.4 2.5-7.2 7.8-10.5 4.2-2.7 5.8-4.6 8.4-9.9 1.8-3.6 3.9-7.1 4.6-7.7s1.8-2.6 2.4-4.5q1-3.4 5.6-6c3.3-2 4.4-3.2 4.4-5.1 0-1.4 1.5-6.6 3.4-11.7s3.7-10.8 4.1-12.8 1.6-4.4 2.6-5.4q3.6-3.4 0-3.4-2 0-4 4.3m-10.3 28.2c-1.2 2.6-4.8 3.5-4.8 1.2 0-1.8 2.1-3.7 4.2-3.7 1.5 0 1.6.3.6 2.5m-63.2 2.2c-1.1 1.1-1.9-.6-1.1-2.4s.8-1.7 1.2 0c.3 1 .2 2.1-.1 2.4m55.4 1.8c-.7 1.3-1.7 2.2-2.2 1.9q-1.9-1.2.8-3.9c2.2-2.2 3-1.1 1.4 2m-4-.6c0 1.5-2.9 3.3-4.1 2.5q-1.3-.7.6-2.1 3.4-2.3 3.5-.4m-45.4 2.8c-1 1-1.9-.5-1-1.8q.7-1.7 1.2 0 .3 1.2-.2 1.8m-12.8.6c-.1 1.2.5 3.3 1.5 4.6.9 1.4 1.4 2.7 1.2 3-.8.7-3.3-2.1-3.5-3.9-.4-2.6 0-6 .6-6q.5.2.2 2.3m60.2 5.3q0 1.3-1 1.4-.9-.1-1-2.1.1-1.7 1-1.4c.6.3 1 1.3 1 2.1m-54 8.5q-.1.8-1.6.9-1.6 0-1 1.6t-1.7 1.2q-2.2-.4-1.8-1.8c.2-.8.3-2.5.3-3.7-.2-2 0-2.1 2.8-.6 1.7.8 3 1.9 3 2.4m472.1-20.5q0 1.7.6.6c.3-.7.2-1.6-.1-1.9q-.6-.5-.5 1.3m-3.1 5.8c0 2.2 2.2 6.6 3.2 6.6.5 0 .8-1.7.6-3.7q-.2-4-2-4.1-1.7-.2-1.8 1.2M60.3 440.3q-3 3.7.1 9.7c2.3 4.5 5 7 6.2 5.7.4-.4-.2-2.8-1.4-5.2A23 23 0 0 1 63 443c0-3.3-1.3-4.6-2.7-2.7M409 661.4q-.1 3 10.6 4.2 5.4.7 5.4-.4c0-1.6-1.9-2.5-6.5-3.3-2.2-.3-5.2-1-6.7-1.4-2.2-.6-2.8-.4-2.8.9M98.5 663q-.4 1 .8 1.6c2.3.9 15.2 0 15.2-1.1 0-1.4-15.1-1.9-16-.5m56.9 8.1c-.9 1.5 1.2 3.3 3 2.6q1.5-.7 1.6-2.2c0-1.7-3.5-2.1-4.6-.4m66.8 2.5c-2.3 1.7-1.5 2.2 5.7 4q9.1 2.4 9.1-.5c0-2.9-11.8-5.7-14.8-3.5M490 676q.2.9 2.3 1c1.3 0 3.2.7 4.3 1.5q3.5 2.8 3.4.1c0-1.4-4.9-3.6-8.1-3.6q-1.8 0-1.9 1m-429.5 1.8c-1.6.9-5.5 1.9-8.5 2.2-4 .4-5.5.9-5.5 2q0 1.5 3.8 1.8c4.4.4 17.3-5 16.2-6.8-.9-1.4-2.5-1.2-6 .8m33 2.3c-.7 1.1 2.2 3.8 4.1 3.9.5 0 2 1.3 3.2 3q2.2 2.8 3.7 2.4c.8-.3 3 .3 4.8 1.5 6.2 3.8 9.7 2.1 5-2.4-2.3-2.2-2.4-2.6-.8-2.1 2.4.7 5-.8 4.1-2.3-1.1-1.7-6.6-1.4-6.6.4q-.2 1.3-1.7 1.5c-2.9 0-8.3-2.4-8.3-3.7 0-2.5-6.2-4.4-7.5-2.2m339.7-.1c.4 1.4 10.7 4.4 11.6 3.5 1.3-1.3-3-3.8-7.3-4.3-3.6-.4-4.7-.2-4.3.8M0 689q0 2.2 1.8 1.8 1.5-.5 1.7-1.8c.2-1.3-.8-1.6-1.7-1.8q-1.9-.4-1.8 1.8m493 2.8c0 .5 1.6 1.6 3.5 2.5 3.3 1.6 3.5 1.6 3.5-.2 0-1-.7-2.2-1.6-2.5-2.2-.9-5.4-.7-5.4.2m-148 1.3c-7.6 1.6-6.3 4.9 1.8 4.3 11.8-1 14.2-1.5 14.2-3q-.2-1.4-1.2-1.5c-4.2-.5-12-.3-14.8.2m-127.9 6.2q-2.4 2.8 4 2.7c2.4 0 5.2.9 7.5 2.5 2 1.4 4.3 2.5 5.1 2.5s3.1.7 5 1.6q3.4 1.8 4.5.6 2.4-2.4-4.4-4.3c-2.3-.6-5.6-2.2-7.4-3.6-3.9-2.9-12.5-4.1-14.3-2m-26.6 2c-2 1.6-1.3 3.7 1.4 3.7 1 0 3.9.7 6.5 1.6 3.5 1.2 5.1 1.3 5.9.5 1.5-1.5-1.7-4.8-5.7-5.6l-4.7-1.1c-.8-.2-2.3.2-3.4.9m305.5-.4c0 1.2 2.9 3.5 3.6 2.8 1.1-1-.5-3.7-2.1-3.7q-1.4 0-1.5.9m-60.7 1.8q-1.2.5-1.3 1.9c0 1.1 1.2 1.2 6.3.7 5.6-.6 6.1-.5 4.9 1q-2.4 3.2 2 3.5l3.3.2c2.2.5 3.6-.1 3.3-1.3q-.3-1.2.2-1.6c1.1-.9 16.6 1 24.3 3 8.3 2.1 18.1 5.8 17.3 6.6-.4.4-16.8-4-22.1-5.9-4.2-1.6-13.7-1.6-14.2-.1q-.4 1.3 2.5 1.3c4 0 29.7 6.7 34.4 9 3.5 1.7 3.8 1.7 3.8.1 0-.9-.5-2.2-1.2-2.9q-1.3-1.3 0-1.2c1.3.1 1-.5.2-1.9-1.3-2.5-14.7-7.7-23.2-9-9.2-1.5-32.8-4.1-36.3-4-1.6 0-3.6.3-4.2.6m-189.9 5.8c-1 2.6.7 3.5 6.9 3.5 6.9 0 9.3-1 8.4-3.4-.9-2.2-14.5-2.3-15.3-.1m-46.9 1.4q-1.1 1.7 5.5 3.6c2.2.7 4.3 2.3 5.5 4.2 2.1 3.4 3.8 3.7 4.3.9.5-2.5-1.7-4.7-7.6-7.3s-6.8-2.7-7.7-1.4m227.4 1.2c-1.8 1.1-1.2 1.5 5.1 2.7 5.1 1 8.6.3 6.2-1.2-2-1.2-10.1-2.3-11.3-1.5M46.5 716q-.4 1 0 2t-.4 1q-1 .2-1.1 1.5c0 1.4 4.8 4.5 7.1 4.5.7 0 2.1.8 3.1 1.7 1.1 1 4.5 2 8.1 2.4 3.4.4 6.9.9 7.7 1.3a4 4 0 0 0 3-.4c2.5-1.7-1.6-4-7-4-3.3 0-5.5-.7-8-2.5-1.9-1.4-4-2.5-4.8-2.5q-1.6.1.3-1.6c1.2-1.2 1.3-1.9.4-3-1.3-1.6-7.5-1.9-8.4-.4m-40.1 3.1c-.8 1.3 1.3 3.4 4.4 4.4q2.3.8 2.9-1.1c1.1-3-5.5-6.1-7.3-3.3m74.2.7q-1.6 2.3 8 4.5c3.3.8 7 1.9 8.2 2.6 1.1.6 3.4 1.1 5.1 1.1s7 .6 11.8 1.4c24.4 4 25 4 30 2.5 4.8-1.5 6.8-4.1 3.8-5.2-.8-.4-2.7-.2-4.1.3-3.5 1.4-10.3.1-11.4-2-.8-1.5-2-1.7-7.2-1.3-10.4.8-25 .3-27.2-.9-4.2-2.3-16.1-4.4-17-3m112.5.1c-1 .7-.8 1.2 1 2.5 4.2 2.9 9.4.9 5.4-2.1q-3.3-2.3-6.4-.4m9.6-.3c-1 1.1 2.4 5.2 6 7.4q6.2 3.5-1.5 3.5c-4.8 0-4.8 2 0 4.7 4.3 2.5 7.3 1.9 6.2-1.4l-.6-2.1 3.7 2.1q5.6 3.5 5.5-.4c0-2.3-8.1-9.4-10.6-9.4-1.2 0-2.7-.7-3.4-1.6-1.7-2-4.6-3.5-5.3-2.8m20.3.2c0 1.6 2.8 2.2 12.7 2.9 7.8.5 9.6.9 10.4 2.5.8 1.4 1.9 1.8 4.2 1.6 3.9-.4 4.4-3.1.7-3.6a10 10 0 0 1-3.5-1.2c-.5-.4-4.6-1.1-9-1.4l-11.7-1.2c-2.2-.3-3.8-.2-3.8.4m237 .6q-.2 1.6 3.3 1.6c4.3 0 16.8 4.3 23.2 8 5.4 3.1 7.7 3 4.9-.1a77 77 0 0 0-25.6-10.4c-5-.6-5.8-.5-5.8.9M.7 725.7c-1.6 1.6-.7 3.5 1.5 3 1.2-.4 3.2.1 4.7 1.2 1.4 1 4.6 2.1 7 2.4a17 17 0 0 1 7 2.5c3.5 2.6 18.1 4 18.1 1.8 0-2.4-3.9-3.9-8.4-3.3-3.4.5-5.3 0-10-2.3-3.2-1.7-6.4-3-7.1-3s-1.8-.7-2.5-1.5c-1.3-1.5-9-2.1-10.3-.8"/><path d="M17.5 726q-.6 1.2.3 2.2c1.4 1.4 5.7.6 5.7-1.2s-5-2.6-6-1m159.5 0c-1.9.5-6.8.7-10.8.4q-12-.6-10.5 3.2c.5 1.3 2 1.4 10.7.8 5.5-.5 15.4-.8 21.9-.8 9 0 11.7-.3 11.7-1.3 0-.8-1.2-1.8-2.6-2.3-3-1.2-15.4-1.1-20.4 0m46.8 1.7c-2.4.6-2.3 2 .3 3.3 3.3 1.8 21.4 2.3 22.8.6 1.8-2.2.1-2.7-9.6-3-4.9-.2-9.5-.6-10.3-.8s-2.3-.4-3.2-.1m271.8 2.1c-.9.8 1.4 3.2 3 3.2 2.1 0 1.7-2.7-.5-3.3q-1.9-.4-2.5.1M477 732c0 1.1 4.8 2.5 5.6 1.7q.5-.6-.1-1.6c-.8-1.4-5.5-1.4-5.5-.1"/><path d="M429.4 734.2q-1.5 2.3 10.3 1.9c6.9-.2 8.6.1 11 1.8 2.2 1.6 6.1 2.4 17.3 3.6l20 2c3 .2 7 .8 8.8 1.4 3.2.9 3.2.9 3.2-2.3 0-3.4-.6-3.8-14.2-9.4q-.7-.2-.8 1.1c0 .9 2.6 2.7 6 4.3 6.5 3 8 4.8 2.8 3.4-1.8-.5-10.9-1.6-20.2-2.4-12.6-1.2-17.5-2-19.5-3.3-1.9-1.4-5.3-1.9-13.4-2.3-6-.3-11.1-.2-11.3.2M5.2 735q-6.1 1.4-4.9 4.4c.8 2 3.1 2 4.7.1 1.8-2.2 4-1.9 11.4 1.9l6.7 3.4h23.7c27.7 0 54.9.8 58.6 1.8 2 .5 2.6.2 2.6-1 0-2.8-3.9-3.9-12.9-3.3-4.7.2-9.5.1-10.6-.4-1.2-.4 3-.8 10.5-.9 18.4-.3 27.4.1 28.7 1.1q2.7 2.4 30.8 3.4c20.7.7 25.8 1.8 34.8 7.9 1.5 1.1 3.5 3.2 4.3 4.8q1.5 2.8 3.2 2.6c2.7-.5 2-2.2-3-7.7-3.6-3.9-5.4-5.1-7.6-5.1-1.6 0-3.5-.7-4.2-1.5-2-2.4-11.3-4.6-18.7-4.5-15.8.3-31.2-.9-34.5-2.7a21 21 0 0 0-9.8-1.6c-28.2.2-52-.3-56.7-1.3-4.5-.9-6.9.1-5.3 2.1q1.1 1.5 7.1 1.5c3.3 0 5.9.4 5.9.9 0 1-37.8.7-43.3-.4-2.1-.4-6.5-2-9.8-3.6-6.3-3.1-6.6-3.1-11.7-1.9"/><path d="M43.2 735.1q-2 .9-1.7 1.9c.8 1.2 6.5 1.3 6.5.1 0-1.8-2.5-2.9-4.8-2m236.3.9c-.4.6-.3 1.6.2 2.1 1.2 1.2 12.3 3 13.5 2.3 1.7-1.1-1.2-3.2-5-3.7-2-.3-4.7-.8-5.8-1.2q-2.1-.6-2.9.5m100.5.9c0 .5 2.2 2.6 5 4.6s6.5 5.5 8.4 7.8c3.2 3.9 3.6 4.1 5.1 2.6s1.5-2 .3-4.1c-2.2-4.3-12.4-11.8-15.8-11.8-1.6 0-3 .4-3 .9M229.5 738q-.4 1 .9 1.5l2.9.9c.8.2 2 0 2.8-.5 1.2-.8 1.2-1-.1-1.9-2-1.3-5.7-1.3-6.5 0m89.1.9c-1 1.5.4 1.8 10.6 2.6 8 .5 11.6-.3 8.8-2a51 51 0 0 0-19.4-.6M4.1 742.4c-1.4 1.6-.8 2.1 3.7 3.1 2.5.5 3.2.3 3.2-.9 0-1.5-2.8-3.6-4.8-3.6-.5 0-1.5.6-2.1 1.4m345.2.3c-2.2.8-1.4 2.3 1.2 2.3 1.3 0 3.6.5 5 1.2 2 .9 2.8.9 3.8-.1 2.5-2.6-5.4-5.3-10-3.4M368 747c0 .5 1.1 1 2.5 1s2.5-.5 2.5-1-1.1-1-2.5-1-2.5.4-2.5 1m-248.8 2.1c.4 1.1 7.1 3.9 9.6 3.9 2.2 0 1.3-1.9-1.8-3.5-3.4-1.7-8.3-2-7.8-.4m266.6 3.5c-.9.8 6.9 8.4 8.7 8.4 2.6 0 1.7-3.7-1.6-6.4-2.9-2.5-5.9-3.3-7.1-2m-205.3 1.3c-.3.5.8 1.9 2.5 3.1s3.7 3.5 4.6 5.1c1.6 3.2 3.7 3.4 4.2.5.2-1.1-1.2-3.4-3.4-5.7-3.7-3.8-6.7-4.9-7.9-3M458 757c0 1.2.1 1.2 9.5 3.4 8.9 2 24.5 6.5 26.7 7.7 2.9 1.5 5 1.1 4.6-.9-.2-1.3-4.2-2.9-15.8-6.4-14.8-4.5-25-6-25-3.8m-58.8 1.2c.7 2 4.8 2.3 4.8.4q0-1.6-2.6-1.6-2.5 0-2.2 1.2m-221.7.8c-.6 1 2.2 6 3.5 6 .4 0 1.3-.6 1.9-1.4 1-1.2.8-1.9-.8-3.5q-3.3-3.4-4.6-1.1M4 761.8q-8.2 4.2 2.2 7.1c3.1.9 6.4 2.3 7.5 3.2s2.5 1.9 3.5 2.2c3.8 1.3 25.2 1.7 37.8.7 23.2-1.9 26.8-2.1 24.2-1-3.4 1.4-2.4 4.3 1.8 5.1 3.6.8 29.2.3 49.9-.9q12.5-.7 12.8-1.9c.3-.9-6.4-1.2-29.1-1-20.8.1-29.8-.1-30.6-.9q-1.5-1.2 1.9-2.2c1.7-.6 3.1-1.6 3.1-2.3 0-.8-2.4-1-8.7-.5-4.9.3-17.8.9-28.8 1.2-21.3.7-32.9-.5-41.1-4.2-3.7-1.6-3.7-1.8-1.4-2.2 3-.5 5.2-2.1 4.4-3.3-.9-1.5-5.6-1-9.4.9m130.5.2c-.7 1.2-.3 1.4 10.3 3.9 8.1 1.9 11.2 1.9 11.2 0q-.2-.8-1.7-.9c-1-.1-4.3-.9-7.3-2-6-2.1-11.5-2.6-12.5-1m326 2c-1 1.6-.4 2 7.2 4l12.3 3.4c3 .9 7.2 1.9 9.3 2.3 2 .3 3.7.9 3.7 1.4 0 .6 5.6 3.9 6.7 3.9q.4-.2.1-2.2c-.2-1.8-2-2.9-8.8-5.4-8-3-19.7-6.4-26.7-7.9q-3-.6-3.8.5m-183.2 3.6c-1.9.8-1.6 3.4.5 3.5l6.7.5c2.8.1 6.2.5 7.6.8 4.4.8 10.2 5.5 12.1 9.7 2.5 5.4 5.8 5.5 5.8.2 0-3.1-.7-4.4-5-8.4a23 23 0 0 0-8-5.2 91 91 0 0 0-19.7-1.1m39.2 7.4c-.3.5-1.5 1-2.5 1-3.3 0-3.3 2.1-.1 5.1 1.7 1.5 4 4.9 5.1 7.4 2 4.7 2.8 5.3 4.8 3.3 1.9-1.9 1.4-4.3-2.2-9.6-3.1-4.7-3.2-5.1-1.4-5.5q1.8-.6 1.3-1.6c-.8-1.4-4.2-1.4-5-.1m140.7.2c.6 1.8 29.2 6.6 32.2 5.5 3.3-1.3-.1-3.7-5.3-3.7a89 89 0 0 1-12.4-1.5c-9.7-1.8-15-2-14.5-.3m-449.8.9c-1.1 1.8.9 2.9 7.2 3.9a75 75 0 0 0 21.7.3c.4-.3.2-1.2-.3-1.9q-1-1.2-6.8-.7c-3.5.3-8.4-.1-12.5-1.1-8.1-1.9-8.4-1.9-9.3-.5m318.1 2c-1 1.5 5.8 7.7 10.8 9.9 2.3 1 8.2 2.3 13.1 3 4.9.6 10.7 1.8 13 2.5 5.1 1.8 8.9 1.9 8.4.2-.7-1.9-13.1-5.7-22.3-6.6-8.1-.8-8.8-1.1-14.1-5.5-5.7-4.6-7.7-5.5-8.9-3.5m-281.1 3c-.8 1.4 1.1 3.3 2.5 2.5 1.6-1 1.3-3.6-.3-3.6a3 3 0 0 0-2.2 1.1m94.8 1.1c.3.9 2.8 1.3 8.4 1.3 10.9 0 10.7-1.9-.2-2.3-6.7-.2-8.5 0-8.2 1"/><path d="M296.4 782.5c-.8 1.9 4.7 9.6 6.6 9.2 2.5-.4 2.3-3.6-.5-7.2-2.7-3.7-5.2-4.5-6.1-2m51.2.4q-.5 1 .6 1.6c7.1 2.5 26.3 3.6 25.6 1.4-.2-.7-1.7-1.3-3.3-1.4-11.3-1-16.9-1.6-19.4-2.1-1.6-.4-3.2-.1-3.5.5m36.4 4.9q0 1 1 1.7.8.6.3 2.1c-.7 1.9 3.4 6.4 5.8 6.4 2.5 0 3.3-1.8 1.7-3.8q-1.8-2.2.5-.3c.9.7 1.7 2 1.7 2.7 0 1.6 3.6 1.9 4.5.4 1.1-1.8-.4-4.4-3.9-6.8-3.8-2.6-11.6-4.2-11.6-2.4m-96 5.2c-1.3.9-1.3 1.1 0 2 2.2 1.4 5 1.2 5-.4q-.1-1.4-1.6-2c-1.9-.7-1.6-.8-3.4.4m179.7 0c-2.9 1.8-.2 4 4.9 4 2.4 0 4.4.5 4.4 1q-.2 1-3.3.5c-4.3-.8-7.1 1.7-3.8 3.4 3.4 1.9 10.9 1.3 13.1-.9 2.6-2.6 2.5-3.2-.4-5.9-2.7-2.6-12-3.9-14.9-2.1"/><path d="M462.2 799.2c-.7.7-1.2 2.2-1.2 3.5 0 1.8-.7 2.3-3.7 2.8-8 1.3-9.2 1.7-10.4 3.1-1 1.2-.9 1.9.7 3.4 1.6 1.6 5.7 2.5 13.2 2.9 2.9.2.9 2.1-2.3 2.1-4.6 0-13.3 1.9-14.1 3.1-1.7 2.8 6.7 6.9 14.1 6.9 2.1 0 3.6.2 3.3.5s-3.4.6-6.9.6c-7.8 0-16.5 2.3-17.3 4.5-.8 2.1 2.1 5.4 4.6 5.4 1.5 0 1.9-.6 1.6-2.8l-.3-2.7 9.4-.3 9.3-.3-.4 6.3a26 26 0 0 0 .8 9.8c.7 1.9 1.5 5.5 1.7 7.9q.8 7.2 4.1 5.8c2.1-.8 2.1-7.8 0-13.4a16 16 0 0 1-.8-10l.9-5.8 12.4-.2c13.3-.3 18.6-1.9 18.6-5.8 0-1.8-1.5-2.6-7.7-3.9q-3-.6-2.1-2.2c1-2.6-1.6-3.4-11.1-3.4-11.6 0-10.2-1.6 2.3-2.7 6-.5 9.6-1.3 9.9-2.1s-2.3-1.2-10.7-1.2c-6.7 0-11.1-.4-11.1-1s1.7-1 3.8-1c3.9 0 8.3-2.3 7-3.6a16 16 0 0 0-5.8-.7c-4.8.1-5.1-.1-6.5-3.3q-2.2-5.3-5.3-2.2m-2.5 11.4q-.7.5-1.9.1t.6-.6q1.8 0 1.3.5m24.3 10.5c1.4.1-1.1.5-5.5.9-8.5.6-9.9.5-8.9-1.2.4-.6 2.9-.7 6.3-.4zm-23 .9q-.2.9-2 1c-1.8.1-2-.5-2-1q.2-1 2-1c1.8 0 2 .4 2 1m32.2 4.6c3 1.9-6.9 3.2-20 2.6-7.1-.3-6.5-2.5.9-3.3a71 71 0 0 1 19.1.7"/><path d="M470.4 836.5c-.7 1.7.3 3.5 2 3.5s4.8-3.5 3.9-4.3c-1.2-1.3-5.4-.7-5.9.8"/></svg>