<svg xmlns="http://www.w3.org/2000/svg" width="666.7" height="1170.7" viewBox="0 0 500 878"><path d="M231.7 19.7c-.3.2-5.1.4-10.9.4s-11 .4-11.8.9c-2.6 1.6.2 3.1 5.6 2.9 3-.1 5.9.2 6.3.7.5.5 2.5 3.8 4.4 7.4l5.3 9.7c2.6 4.5 1.1 5.6-7.8 5.7-5.6.1-7.3.5-7.3 1.5 0 1.8 5.2 3.3 8.5 2.5 1.3-.3 13.7-.8 27.4-1 23.8-.5 28.5-1.1 27-3.5-.3-.5-2.7-.8-5.5-.7-2.7 0-5.2-.2-5.5-.5s-.8-5.1-1.1-10.8c-.7-12.2-.4-12.6 7.7-13.1 2.9-.2 5.5-.8 5.7-1.4.3-.8-6.5-1.1-23.6-1.1-13.2 0-24.2.1-24.4.4m10.3 5.5c0 2.4-5 13.8-6 13.8s-8-14.2-7.4-15.1c.3-.5 3.4-.9 7-.9 6 0 6.4.2 6.4 2.2m17.5-1.2c1 1.6 1.8 20.7.9 21.2-.5.3-4.9.7-9.9.9l-9 .4.3-2.5c.2-2 6.1-17 7.9-20.3.6-1.1 9.1-.9 9.8.3"/><path d="M329.1 23.7c-2 2.5-2.6 4.1-3.3 8.8-.3 1.7-1 1.9-5.1 1.6-3.6-.2-4.9.1-5.3 1.3-1.1 2.8 1.7 7.6 5.5 9.6l3.6 1.8-2.7 1.1c-5.5 2.1-6.1 4.4-6.6 25.7-.3 10.6-.6 19.4-.8 19.4s-2-1.1-4-2.5-4-2.2-4.5-1.9-1.8 2.2-2.8 4.2c-1.7 3.4-1.8 4-.4 6.5 1.3 2.7 1.3 2.9-.6 3.4-4.3 1.1-4.6 8.8-.5 11.1 1.2.7.5 1.3-3.1 2.6-3.7 1.5-4.8 1.6-6.1.5-2.1-1.7-11.6-2.9-13.1-1.7-.7.6-1.3 3.2-1.3 5.9q0 5-1.3 4.9c-3.5 0-7.3 8.1-5.5 11.5.9 1.4.4 2.2-2.2 4.3a21 21 0 0 0-7 13.1c0 1.4.9 3.5 2.1 4.7 1.7 1.8 1.9 2.6 1 4.2a8 8 0 0 0 1.4 9.8 8 8 0 0 1 2.5 5.5c0 4.1 1.5 6.6 5 8.4 2.4 1.3 3 2.2 3 4.9 0 5.6 6.5 12.1 9.5 9.6 1.2-1 2.1-.5 5 2.5 3 3.2 3.9 3.7 6.6 3.1 1.7-.3 4.1-.3 5.4 0 2.9.7 3.7 5.9 2.5 16.9-.5 4.4-1.1 21.6-1.4 38.3a474 474 0 0 1-1.1 31.1c-.2.5-.9 14.5-1.5 31.2s-1.5 32.6-2 35.4c-1.5 8.1-4 34.3-4.1 43.5l-.1 8.5-1.9-8c-1-4.4-2.6-12.1-3.4-17l-2.5-13-3.4-17.5c-1.4-7.4-3-15.4-3.6-17.8-1.9-7.8 2.6-11.6 9.1-7.9 3.1 1.8 4.1 1.9 6.3.9 3.3-1.5 3.3-2-.6-6.2-2.6-2.9-3.2-4.4-3.2-8.3-.1-3.6-.6-5.3-2.1-6.3-2.3-1.7-4.9-1.8-6.2-.2-1.5 1.9-3.1 7.1-2.6 8.5.9 2.4 3.3 1.3 4-1.7.8-4 2.3-4.9 2.3-1.3 0 3.3-.8 4.7-3.2 5.6-1 .3-1.8 1.5-1.8 2.6 0 2-3.5 4.7-4.3 3.4a508 508 0 0 0-9.2-46.8l-3.4-14.5a157 157 0 0 0-6.7-25.3c-.9-1.7-1.6-5.3-1.6-8.1s-.6-6.3-1.4-7.8-1.4-4.1-1.4-5.9c0-2.3-.9-4-3.7-6.5-2-1.9-4.3-3.4-5-3.4-1.8 0-1.6-1.9.2-2.6s2-3.8.2-5.2c-1.7-1.4-5.7 1.1-5.8 3.6q-.2 1.5-.8-.8c-.4-1.4-1.7-3-3-3.6q-2.2-1.1-1.2-1.8c.6-.4 1.6-.4 2.1-.1 1.5.9 7-5 7-7.4 0-2.9-2.7-4-6.7-2.9-3.3.9-3.7.7-7-3.1-3.4-4-7.3-5.4-7.3-2.7 0 .8 1.4 2.5 3.1 3.7 3.7 2.6 5 5.7 3.6 8.3-.9 1.9-1 1.9-2.8-.3a8 8 0 0 1-1.9-4.2c0-2.5-1.7-2.4-2.5.1-1.1 3.4.3 5.6 5.3 8.3l4.7 2.6-3.3.7q-6.5 1.5-2.3 5.7c2.1 2.1 2.3 2.1 5.1.5 3.1-1.7 4-1.5 4 1.3 0 1-1.9 2.8-4.4 4.3q-8.8 5-4.9 13c.9 2 3.1 4.5 4.8 5.5 3.4 2 5.4 7.5 9 24.6 2.1 9.8 5.6 24.5 6.2 26.2q.4 1.3-1.9 1.3c-2.3 0-3.2 1.1-4.6 3-2.9 3.8-3.8 3.8-6.3-.5q-4.3-7.2-5.4 1c-1.1 6.7 1.6 10.8 7.5 11.5 2.4.3 4.5.9 4.7 1.5.1.5-1.4 1.9-3.5 3-3.3 1.8-3.7 2.4-3.4 5.5.1 1.9 1.2 4.5 2.4 5.7 3.6 3.9 7.2 2.6 8-2.7q.4-2.5 1.8-2.1l4.3.9q2.7.5 3.2 2.6a561 561 0 0 0 9.1 37.6 581 581 0 0 1 14.5 71.5 95 95 0 0 0 3.2 16.3c1.9 2.4-1.9 4.9-8.5 5.6-3.6.3-8.9 1.9-12.6 3.6-3.5 1.7-6.9 3-7.6 3s-2.2-3-3.5-6.8a360 360 0 0 0-26.8-51.6c-2.1-4.2-9.5-14.4-13.1-18.1a62 62 0 0 1-6.1-8.2 61 61 0 0 0-8.3-9.9c-5-4.7-5-4.7-4.5-9.6q1.3-9.5-4.3-10.4c-6.2-1.3-2.5-4.2 5.2-4.1 3.1 0 6.3-.5 7.1-1.1q1.4-1.4 2-9.4c.5-6.3 1.1-8.6 2.7-10.3l2.1-2.3-2-6.1a43 43 0 0 0-2.8-7.3c-.4-.7-.8-5.3-.9-10.1l-.1-8.9 3.1-1.9c1.7-1 3.9-1.9 4.8-1.9 2.2 0 7.4-4.5 8.1-7 .4-1.6-.1-2.3-1.9-3-1.3-.5-2.4-1.5-2.4-2.3 0-1.8-5.6-7.7-7.4-7.7q-1.5 0-1.6-1c0-.5-1.1-1.2-2.4-1.6-2.9-.7-8.6 2-8.6 4.1q.2 1.6-4.7 1.6-26.8.6-32.4 3.4c-1.6.9-5.2 2-8 2.5-9.2 1.8-22.7 11.8-21.4 15.9.5 1.6-1.7 3.3-9 6.9-5.3 2.6-9.4 6.1-9.7 8.4q-.4 2-1.6 2.6c-1.1.3-1.3-1.5-.8-9.9 1-17.1 1.6-25.9 2.5-35.9.5-5.2.9-15.5 1-22.8s.6-17 1.2-21.5 1.3-10.4 1.4-13.1c.3-4 .8-5.3 2.9-6.9 2.1-1.5 2.6-2.7 2.6-5.9 0-2.2-.8-5.3-1.7-6.9-1.6-2.6-1.6-2.9 0-4.7 3.5-3.8 1-9.5-3.2-7.3a6 6 0 0 0-2.6 3.1c-.7 2.1-3.5 2.8-3.5.9 0-1.3 4.1-10.9 4.7-10.9l4.2 2.2c4.4 2.5 7.1 1.9 7.1-1.6 0-4.2-6.8-7.4-9.7-4.5-1.6 1.6-3.3.2-3.3-2.9 0-1.5-1.2-5.2-2.6-8.2l-2.6-5.5-1.5 3.5c-1.8 4.2-1.1 10 1.8 14.6q3.3 5.9-2.7 3c-3.5-1.9-6.7-.5-6.2 2.7.2 1.7 1.1 2.3 3.6 2.5 5.3.5 5 2.7-1.1 8.7q-5.7 5.6-6.1 8.7a516 516 0 0 0-1.1 28.3c-.3 13.7-1 32.9-1.6 42.5L85 285c-1 19.4-2.1 35.7-4.6 65l-1.9 25.5c-.6 9.1-2 23.8-3.6 37-.6 4.9-1.3 12.3-1.6 16.3-.5 6.7-.7 7.4-3 8.3-1.4.5-4.1 2.3-6.1 3.9q-6.2 5.1-4.8 1.2c.3-.9.8-27.1 1.2-58.2s.7-59.7.9-63.5c.2-3.9.4-30.6.5-59.5 0-33.7.5-54.1 1.1-57a55 55 0 0 0 1.3-8.5c0-2.2 1.1-5.9 2.4-8.2 2.8-5.3 2.8-6.4-.1-13.8-1.6-4.3-3.2-6.6-5.5-8-1.7-1.1-3.5-3-3.8-4.2-.3-1.1-1.7-3.1-3-4.4-3.1-2.9-3-3.4.7-4.9 4-1.7 6.3-5.3 5.5-8.5-.7-2.9-4.1-3.4-7.2-1-2.9 2.2-3.9 1.8-5.3-2.1-1.4-3.8-4.6-5.7-7.3-4.2-1.5.7-1.8 2.2-1.8 7.7 0 6.8-.1 6.9-3 8-3.4 1.1-4.1 4.9-1.4 7.2 1.4 1.1 1.8 1 3.3-1l1.7-2.2 1.9 2c1.8 2 1.8 2.3 0 8-1.8 6-1.8 6.2.4 26.6 1.7 16.9 1.8 167.3 0 205.5-1.8 38.9-2 41.4-4.5 41.8q-2.2.4-2.8-2.2c-.5-1.9-1.3-2.6-3.2-2.6-1.3 0-2.7-.7-3-1.5-1-2.5-5.3-1.7-8.6 1.5-1.6 1.6-3.4 3-3.9 3-1.5 0-1-8.8.6-12 1.4-2.8 5.1-6 6.8-6 .5 0 .7 1.9.5 4.2l-.3 4.3h5.3c5.1-.1 5.3 0 4.7 2.3q-.8 2.6 1.2 2 1.9-.2 1.8-3.8c0-3.5 0-3.5-4.2-3.3-3.9.2-4.2 0-3-1.7 1.5-2.5-.5-4.7-5-5.6-2.7-.5-3.7-.1-7.3 3.3-3.9 3.6-4.2 4.3-4.7 10.4-.4 5-.2 7.2 1 9 2.3 3.4.9 5-6.5 7.4l-6.3 2L.3 516l-.2 65.5 4.2-5c2.3-2.8 7.2-8 10.8-11.6 8-7.9 13.6-10.1 26.2-10.1 9.3 0 14 1.4 23 6.9 3.4 2 8.8 4.7 12.1 5.9s6.2 2.6 6.4 3.2-1.9 2.7-4.6 4.7c-4.5 3.2-12.2 12.7-12.2 15 0 .5 1.2 1.9 2.6 3l2.6 2-8.4 6.7a150 150 0 0 0-12.9 11.5c-2.6 2.7-7 6.7-9.8 8.7-7.1 5.3-12.3 12.1-11.5 15.3.5 1.9-.1 3.3-2.8 6.1q-9.9 10.5-6.7 19.1c1.1 3 1.4 3.2 4.5 2.6 4.5-.8 4.4.7-.2 5.7-2 2.2-5.3 7.5-7.3 11.7a32 32 0 0 0-3.9 16.7c-.5 11.6 1.4 16.2 7.3 17.8 2.9.9 3.9 1.7 4.2 3.6q1 7 5.5 7c2.3 0 2.8.4 2.8 2.3q0 2.4 2.6 3.6c2.9 1.3 3.9.9 11.3-4.4 9-6.4 10.2-7.8 12-14.5l1.8-6.5 4.9.3q5 .3 16.9-2.8c13.5-3.6 16.2-4.8 22.2-9.6 2.3-1.9 4.4-3.4 4.8-3.4s3.1-1.9 6.1-4.3c6.8-5.3 17.4-17.7 23.9-28.1 5.7-9 14.3-17.2 19.5-18.6a20 20 0 0 0 6.9-3.9c1.8-1.7 4.7-3.3 6.5-3.7a19 19 0 0 0 6.3-3c3.6-2.7 4.9-3 5.6-1.2.4 1.3 6.3 5.5 16.7 11.9 9.3 5.7 23.6 18.7 33 29.7l5.4 6.3-1.7 2.8c-2 3.4-2.1 5.4-.5 8.1 1 1.5.8 3.3-.6 9l-1.9 7 3.1 7.3c4 9.5 6.6 22.2 5.9 28.3s.5 8.4 4.2 8.4q6.2 0 8.6 8.5c.8 2.7 2.5 8.4 3.9 12.5a263 263 0 0 1 8.8 28.7c1.2 2.9 5.5 18.7 6.5 23.8.3 1.6 1.5 4.2 2.6 5.7 1.6 2.1 1.8 3.5 1.3 7.3-.6 3.6-.4 5.2 1 7.3 1 1.5 1.7 3.7 1.5 5-.2 1.7.5 2.6 3.3 3.7 4.7 2 7.1 1.9 11.5-.4 2-1.1 6.3-3.2 9.6-4.7l8.8-4c2.6-1.3 2.8-1.2 4.2 2.1 1.2 3 1.9 3.5 4.8 3.5 1.9 0 4.9-1 6.8-2.3 2.9-2 3.4-2.8 3.1-5.8-.2-1.9-.9-4-1.5-4.7-1.6-2 .5-3.5 15.3-11a77 77 0 0 0 14.1-8.2l2-4.3c2.5-5.3-2-6.8-16.1-5.4-3.6.4-9.8.4-13.8 0l-7.3-.6.6-2.8c.6-2.5.3-2.9-1.4-2.9-2.5 0-2.7-1.3-.6-3 1.8-1.5 1.9-5 .4-8.4q-2-4.6-6.1-2.5c-2.4 1.3-2.7 1.1-4.8-4.8l-4.9-13.3a93 93 0 0 1-6.5-31q.9-5.2-2.6-13.5c-1-2.6-4-18.6-4-21.8 0-1.4-.7-3-1.5-3.7s-1.9-2.9-2.5-5q-1-3.8-3.2-4.3c-1.8-.5-1.9-.8-.8-2.2 1.2-1.5 1.5-1.3 3.5 1 2 2.6 2.3 2.6 6.3 1.6 7-1.9 7.5-3.8 7.6-29.7.1-12.3.4-22.5.8-22.9.3-.4 1.6-.1 2.8.5 1.6.9 3.2.8 7.3-.6 2.9-.9 6-2.3 6.9-3.1q3.6-3 3.8 3.3c0 5.4 5.9 10.6 14.6 12.8 3.8 1 7.7 2.2 8.6 2.7q4.2 2.1 5.3-1c.6-2.1 3.8-3.6 5.5-2.6.5.3 1 2.3 1 4.3 0 4.8 1.9 7.5 7.2 9.9a22 22 0 0 0 15.3 2.2 31 31 0 0 1 6.3-1.1q2.3 0 3.2-2.3c.7-1.8 3.9-4.2 4.4-3.3l1.1 3.3c1.2 3.7 6.4 6.4 13.8 7.2 5 .5 5.5.3 7.5-2.2a11 11 0 0 0 2.2-5.6c0-3.5 1.2-3.8 2.5-.7a14 14 0 0 0 5.5 4.6c3.9 1.9 5.6 2.2 12.8 1.8 8.3-.4 8.4-.4 10.1 2.5.9 1.5 5.9 6.5 11 11 9.3 8.2 9.3 8.2 19.9 11 12.3 3.2 15.2 3.5 15.2 1.4 0-.9-1.7-1.8-4.2-2.5-12.5-3-17.6-5.1-18.1-7.3a301 301 0 0 1-1.2-23.2c-.4-11.6-1.3-29.6-2.2-40-.8-10.5-1.7-26.1-2-34.8-.5-13.6-.3-16.6 1.2-21.1 1.6-4.8 1.6-5.4.2-8.3-.9-1.7-1.3-3.3-1-3.7 1.5-1.5 6.7-.4 9.5 1.9 3.6 3 5.7 3.1 9.1.5 1.4-1.1 3-2 3.5-2 1.8 0 2-2.4.5-5.9q-2.7-6.3 2.2-6.1c2 0 2.5-.5 2.5-2.6q0-2.6-1.2-1.7c-3.1 1.9-8.3 3.2-9.3 2.2-1.6-1.6.8-4.3 5.6-6 3.8-1.4 4.4-2.1 4.7-4.9.2-1.8-.1-3.7-.7-4.3s-1.1-2-1.1-3.2c0-4-2-4.6-5.1-1.5a16 16 0 0 0-2.9 3.4c0 .3 1.4 1.2 3 2.1 4 2.1 3.8 4.3-.4 5-1.9.4-4.6 2-6.1 3.5-2.4 2.5-2.7 3.4-2.1 6.9l1.2 8.1c.7 4.1-.9 5.8-1.9 2-.4-1.5-1.4-2-4.1-2-2 0-3.6-.4-3.6-.8 0-1.4 7-23.5 8.2-26 .6-1.2 2.6-3.1 4.5-4.2 1.8-1 3.3-2.4 3.3-3 0-1.5 5-8 6.1-8 2.1 0 .8 4.1-1.6 5-3.6 1.4-3.3 4.1.5 3.8 2.9-.2 3-.4 3-5.3 0-3.9-.6-5.9-2.5-8.5-2.7-3.7-3.1-6-1.4-9.2 1.1-2 .5-3-2.5-4.1-.5-.2-.1-1.5.8-2.9q1.9-2.7.8-4.5c-.6-1-1.3-4.4-1.7-7.5-.6-5-.4-6.1 1.6-8.9 2.9-4.1 4.8-14.6 4.8-27.2.1-9.6.1-9.7-2.3-9.7q-2.4 0-8.5 6.1c-3.4 3.3-6.1 5.4-6.1 4.7 0-1.7-11.5-13.8-13.1-13.8q-1.2 0-.2 1.2c5.8 7.6 7.9 9.8 8.9 9.4.7-.3 1.8.2 2.4.9.9 1.1.7 2-.9 4.1-2.5 3.1-2.6 5.2-.5 7.9 1.3 1.7 1.3 2-.2 2.5-2.2.8-11.9-2.6-11.9-4.1 0-.7-1.1-1.6-2.5-1.9-2-.5-2.4-1.2-2.2-3.4.3-2.9-2.2-11.7-4.4-15.1-.6-1.1-1.5-4.5-1.9-7.5s-1.1-6.5-1.6-7.6q-.7-2.2.5-3.9c1.1-1.5 1.4-.9 2.5 4.6 1.7 8.6 2.7 10.8 5.3 11.8 3.2 1.2 4.5.1 2-1.8-2.7-2.1-4.9-10.8-6.2-24.6-.6-6.1-1.5-13.6-2.1-16.8-.5-3.1-1.4-10.2-1.8-15.7a63 63 0 0 0-1.6-11c-.9-1.4-3-22.8-4.6-46-1.3-19.1-.8-21.3 4.6-23.6q5.4-2.2 5.5.7-.2.9-2 .4t-2 .3c0 1.8 2.9 3.4 5 2.7 2.4-.8 2.7-4.7.5-6.5q-1.4-1.2-1.7-7.8c-.2-3.6-.8-6.7-1.3-6.9-1.4-.4-7.4 9.7-7.2 12.1.1 1-.4 2.1-1 2.3-1 .4-1.3-1.5-1.3-7a84 84 0 0 0-.9-12.3c-1.2-6.3-1.6-29.1-.6-32.7.5-1.8.1-5.2-1-9.4-1.6-5.9-2.1-6.7-5.4-8l-3.6-1.5 2.8-2.2c2.3-1.9 2.7-2.8 2.1-4.9a4 4 0 0 0-3-3.3q-2.1-.6-1.8-1.6.6-.8 2-.4c.8.3 2.5.1 3.9-.4 2.2-.8 2.5-1.5 2.5-5.9 0-2.7-.5-5.3-1.1-5.6-.5-.4-2.8.5-5 1.9-3.8 2.5-3.9 2.6-3.9.5 0-1.1.4-2.8 1-3.8 1.2-2.3-2.2-12.5-4.3-12.9-1.9-.4-4.7 3.5-4.7 6.6 0 1.2.6 3.3 1.4 4.5a14 14 0 0 1 1.8 5.2c.3 2.8.1 3-2.8 2.7-5.2-.5-8.4 1.3-8.4 4.7 0 3.7 1.8 5.1 6.4 4.9 4.3-.2 5.3.6 5.8 4.6.3 2.5-.1 3.1-2.7 3.9-1.6.5-4.3 2.1-5.8 3.6-2.4 2.2-2.8 3.1-2.3 6.1.4 1.9.7 4.4.8 5.5a77 77 0 0 1 3.3 21.8c.2 9.2-.1 11-1.4 11.4-.9.4-2.3 1.2-3.3 2-1.4 1.3-1.7 1-2.3-2.7-.8-4.7-4.8-10.1-6.3-8.5-.5.5-1.3 3.1-1.6 5.6-.6 4.4-.5 4.7 2.8 7.4l3.5 2.8-3.2 1.6c-2.8 1.4-3.2 2.2-3.5 6.2q-.6 9.3 5.9 5.5c3-1.8 3.1-1.8 5.7.5 5.8 5 6.2 5.8 6.3 12.8 0 6.4.8 14 2.8 28.6 1 7.1 3.6 53.8 4.5 80.7.6 16.6 1.5 15-8.9 16.7-3.3.6-10.4 2.5-15.8 4.4a42 42 0 0 1-10.1 2.8c-.2-.3-1.1-4.7-2.1-9.6l-2.6-13.5a161 161 0 0 1-3.4-22.5 96 96 0 0 0-2.1-13.8q-3.4-13.4 6.1-3.7c3.7 3.8 6.8 5 7.9 3.1.6-1-2-6.7-3.5-7.6-2-1.3-.7-2.4 2.1-1.8 3.7.7 7-1.8 7-5.4 0-2.1-.4-2.3-4.4-2.3h-4.5l.6-3.3c.7-4.3-1.3-6.1-4.7-4.3-2.3 1.1-2.5 1.7-2.2 7.3.2 5.8.2 6.1-2.4 6.7-1.4.4-2.9.4-3.2.1-.8-.8-3.2-11.6-3.7-16.7-.3-2-1.3-8.1-2.5-13.6s-2-12.2-2-14.9a595 595 0 0 0-6-49.3c-.5-3.3-.4-8.1.2-11.8 1.2-7.7.8-8.9-3.9-10.9-4.6-1.8-8.5-4.8-7.6-5.7.3-.3 1.9-.6 3.5-.6 2.7 0 7.8-3.8 7.8-5.7q-.2-3.7-5.9-3.8c-3.4 0-4.1-.3-4.6-2.4-.8-3.2-5.4-9.1-7.1-9.1-1.5 0-2.9 4.2-2.1 6.4.3.8.1 3-.5 5-1 3-1.6 3.6-4 3.6-2.2 0-2.8.4-2.8 2.3 0 1.2.7 3.3 1.6 4.5 1.4 2 2.2 2.2 5.5 1.7s3.9-.4 3.9.9q-.2 1.5-1.8 1.6c-1.6.1-3.3 1.4-5.1 3-2.9 2.7-3.2 3.5-2.7 6.3.4 1.8 1.3 7.7 2.1 13.2a747 747 0 0 0 7.9 47.5l.6 3.5-2.6-3.3c-2.9-3.6-3.6-3.8-5.8-1.7q-1.4 1.4-2.1.5c-.8-1.3-9.7-5.2-10.4-4.5-.3.3.1 2.5.9 4.8 1.4 3.9 2.2 4.6 8.9 7.7 2.7 1.2 2.2 2.8-.9 3.5-1.7.4-3.4 1.3-3.7 2.1-.8 2.2.5 6.1 2.3 6.8s7-1.8 7.6-3.6q.5-1.2 1.7 1t3.9 2.2h2.8l3.3 22.7 4.2 28.3c1.4 8.2 1.7 10.5 2.8 21.5 1.2 11.5 2.7 22.4 4.7 34.4 1.4 8.3 1.4 8.5-.8 10.8q-4 4.3-3.8.2-.1-2-2-2.6-2.1-.4-1.4-2.8a10 10 0 0 0-1-5.4c-2.1-4-5.6-4.1-8.6-.4-1.8 2.3-2.4 2.5-4 1.5a9 9 0 0 0-4-1.2c-3.2 0-7 4.4-7 8 0 2.6-.5 3.3-3 4.2-3.3 1.1-5.1 5.1-3.1 7.1 2.2 2.2 1 3.6-4.6 5.2-3.2.9-7.5 2.8-9.6 4.1-2.2 1.4-4.1 2.3-4.4 2s.2-2.2 1.2-4.1a12 12 0 0 0 1.1-6q-.7-2.4 1.5-2.8c2-.5 2.1-1 1.5-8.8-.4-4.5-.9-8.6-1.2-9s-2-1.1-4-1.5l-3.5-.6.6-16.7c.3-9.1.8-17.5 1-18.6s.7-9 1-17.5 1.1-22.3 1.6-30.5c.6-8.3 1.2-19.7 1.5-25.5.2-5.8.8-13.2 1.3-16.5s.9-10.1 1-15c.1-11.9 1.8-33.6 3.6-45.7.8-5.3 1.5-12.8 1.5-16.6s.3-9 .6-11.5c.6-4.4.8-4.6 3.5-4 2.1.4 4-.2 7.5-2.6 2.6-1.7 5.3-3.1 6-3.1.6 0 2.9-1.9 5-4.3 2.1-2.3 5.2-4.7 6.8-5.2 2.3-.8 3.4-2.1 4.7-5.5q1.7-4.6 3.3-4.2c.9.2 2.5-.2 3.6-.8 2.6-1.4 2.7-7.6.1-10.9-1.6-2.1-1.6-2.8-.5-6 .7-2 1.3-5.5 1.4-7.8s.5-5.4 1.2-6.8c1.8-4-1.1-9.1-6.7-11.6q-7.4-3.3-2.3-4.1 5.8-1-1.6-8.5a28 28 0 0 1-4.6-5.3 23 23 0 0 1 4.6-4.5c5.1-4.2 10.7-5.9 13.8-4.3 2.7 1.4 14.2.3 17.5-1.8 1.4-.9 3.4-2.6 4.3-3.8 2.2-2.7 2.4-.3.3 3.4-2.2 3.9-1.9 7.7.8 8.5 1.2.4 3.1 1.5 4.2 2.5s3.9 2.1 6.3 2.5c3.5.6 4.2.4 4.2-.9 0-2.4-4.7-11.3-6.2-11.8q-1.3-.4 1.5-3.7c3.1-3.7 3.4-5.7 1.1-9-1.4-1.9-2.2-2.2-5.1-1.6-3.4.6-14.6 8.3-17.1 11.7-1.5 2-3.8 2.4-4.4.6-.2-.6-2.4-1.6-4.9-2.3l-6.9-1.9q-3-1.1-1.2.5c1.9 2 1.5 2.7-2 3.4-1.8.4-3.9 1.2-4.6 1.8-2.4 1.9-2.5-.3-.2-2.8q2.1-2.3 1.8-3.1c-.3-.3-2.3 1.4-4.4 3.7-8.1 8.8-10.2 9.8-9.6 4.5.4-3.4-1.3-5.6-4.4-5.6-2.9 0-3.2-1.6-.5-2.3s6.2-6.6 5.9-10.2c-.4-4.1-5.3-6.6-10.5-5.5-2 .5-4 1.5-4.5 2.2s-.8-2.3-.4-8.4c.5-9.1.8-10.1 4.1-14.9 1.9-2.8 3.5-5.6 3.5-6.1q-.1-3.4-6.8-9.5c-4.7-4.2-5.4-6.7-1-4 1.9 1.2 3 1.3 6.3.3 6.9-2 5.7-6.6-2.4-9q-4.5-1.4-4.2-2.7c.3-.8.7-4 .9-7.2.3-4.5 0-6.3-1.4-7.8-2.3-2.6-3.9-2.4-6.3.8m3.9 6.2c0 3.7-1 6.2-2.1 5.5-1-.6-1.2-4.5-.3-6.8 1-2.6 2.4-1.8 2.4 1.3m-11.5 8q.4.9-.5 1.6-.9.4-1-.9 0-2.7 1.5-.7m20.5 8q0 .8-.7 1.4c-.9.9-4.4-2.3-3.7-3.4.6-1 4.4.7 4.4 2m-16.9 7.8c.5 1.5.9 4.3.7 6.2-.4 4.3-2.8 5.5-2.8 1.4 0-1.5-.4-4.2-.9-6-1.4-4.9 1.2-6.3 3-1.6m5 .8c-.1 1.5-2.4 1.2-2.9-.3q-.4-1.4 1.2-1t1.7 1.3m5.4 1.6c1.1 1.7-.1 2.1-1.5.4q-1.2-1.4-.2-1.5 1 .1 1.7 1.1m-14.8 8.6c-.4 1.7-.4 1.7-1.2 0-.4-.9-.4-2.5 0-3.5.8-1.6.8-1.6 1.2 0a7 7 0 0 1 0 3.5M338 64q0 .9-.4 1-.5-.1-1.1-1-.4-1 .4-1 1 0 1.1 1m-18.5 11.4c-.8 5.2-2.5 5.3-2.5.1 0-4.4 1-6.9 2.2-5.7.5.5.7 3 .3 5.6m4.5 6.1q0 2.3-1 2.5c-1.1 0-1.4-3.3-.3-4.3 1.1-1.1 1.3-.8 1.3 1.8m-5.3 7.7c-.3 2.2-.4 2.1-1.1-.4-.5-1.6-.5-3.6 0-4.5q.9-2.4 1.1.4c.3 1.3.3 3.3 0 4.5m5.7.6c-.9 3.7-2.2 4.9-3 2.8s1.2-6.9 2.6-6.1c.6.3.7 1.8.4 3.3m-5.7 7.4q-.5 1.1-.6-.6t.5-1.3c.3.3.4 1.2.1 1.9m9.3 1.2c0 1.8-1.7 2.9-3 2.1q-1.1-.7.1-2.1c1.5-1.8 2.9-1.8 2.9 0m-6 .6q0 .9-.4 1-.5-.1-1.1-1-.4-1 .4-1 1 0 1.1 1m22 3.5c-1.4 1.7-3 2-3 .6q.2-1 1.8-1.4l2.1-.6q.2.1-.9 1.4m-37.9 5.6q1.2 2.1 0 3.2c-1.5 1.5-4.6-1.6-3.8-3.7q1.5-3.3 3.8.5m6.9 1q-.1.8-1.5.9c-1.4.1-1.5-.7-1.5-1.5q0-1.4 1.5-.9 1.4.7 1.5 1.5m80-1.1q-.1.9-1.1 1-.8-.1-.4-1 .6-1 1.1-1 .4 0 .4 1m-46.6 3.8c.3.5.2 1.8-.1 3-.6 2.3-2.8 2.8-5.3 1.2-1.2-.7-1.2-1.2.4-2.9 2-2.2 4.1-2.7 5-1.3m-56 8.5q2 3.4-4.4 3.9c-3.1.3-3.5 0-3.8-2.4-.3-2.2.1-2.7 2.5-3.1 3.8-.5 4.5-.3 5.7 1.6m62.1-.3q.4 1-1 1.6c-1.9.8-3 0-2-1.5.8-1.4 2.2-1.4 3-.1m-43.5 2.5q.1 2.6-2 2.5c-2.3 0-2.4-.4-1-3.1 1.5-2.7 3-2.4 3 .6m9 8.5c0 3.1-2.5 4.8-3.3 2.1-.6-2.3 1-6.4 2.3-5.6.5.3 1 1.9 1 3.5m41.2-2.3c2.9 2.6 2.1 3.4-1.7 1.6-1.9-.9-3.5-2-3.5-2.5 0-1.4 3.3-.9 5.2.9m-80.2 2.2c0 .5-.9 1.9-2 3.2-1.9 2.3-1.9 2.3-2 .3 0-2 1.7-4.4 3.2-4.4q.7 0 .8.9m70 1.2q0 .9-1 .4-.9-.7-1-1.6.1-.9 1-.4a2 2 0 0 1 1 1.6m-38 3.4c0 1.9-.5 4.6-1 6.1s-1.2 8.4-1.3 15.3c-.2 10.6 0 12.6 1.3 12.6 1.1 0 1.7-1.7 2.2-6.7.3-3.7.9-7.2 1.3-7.8 1.5-2.4 2.2.4 1.9 7.5-.1 4.2.1 7.5.7 7.5q.8-.1.9-1t1-1c1.8 0 1 2.8-.9 3.3q-2 .4-2.3 3.8c-.4 4.1-2.5 4.9-3.3 1.2-1.1-4.9-1.4-5.3-3-4.7-.8.3-1.5 1.6-1.5 2.8s-.4 2.7-.9 3.5c-.8 1.3-1.2 1.3-2.6.1-.9-.8-3.8-1.4-6.3-1.5-4.6 0-4.7-.1-4.7-3.2q0-3.3-3.3-6.6c-2.4-2.5-3.1-3.9-2.5-5.3.8-2.3.8-7.3-.2-9.7-.9-2.2 1.7-2.4 3.5-.2q1.2 1.4 2 1.5c1.2 0 8-14.2 8-16.8q-.2-4.2 2.9-.1c2.2 2.8 6.3 1.8 6-1.4s0-3.9 1.1-3.2c.6.3 1 2.1 1 4m10-1.5q-.1.9-1.1 1-.8-.1-.4-1 .6-1 1.1-1 .4 0 .4 1m35 1.1q0 .8-1 .9-.9-.1-1-1.6.1-1.3 1-.9 1 .6 1 1.6m-16.9 1.2c-1.3 1.3-2.6.3-1.6-1.2q.6-1 1.7-.5 1 .6-.1 1.7m-52.2 2.5a46 46 0 0 0-4.4 6.5q-3.4 6.2-3.5 1.7c0-3.4 2.7-7.6 6.2-9.8q6.2-4 1.7 1.6m9.1-1.4c0 .7-.9 2.5-2 3.9s-2 3.5-2 4.6q0 2-1 2.1c-1.7 0-1.1-4.6 1-7.3 1.1-1.4 2-3.3 2-4.2q.1-1.4 1-1 1 .6 1 1.9m20.2 2.8q-1.2 1.1-.1 2.4c1.1 1.3.4 3.4-1.1 3.4-1.7 0-1.9-3.2-.2-5.5.9-1.3 1.9-2.1 2.1-1.9s-.1 1-.7 1.6m20.2-.5c.4.5 1.7.8 2.9.8 2.4 0 4.1 4.8 2.7 7.6q-2.7 5.1 2 9.2c3.7 3.2 3.7 4.1-.1 8.4q-3 3.5-2.4 5.2l1.1 2.6c.2.5-.9 2.4-2.4 4.2-3.4 3.9-9.9 5.2-9.5 1.8.2-1.1.5-7.9.7-15 .9-23 1.9-27.9 5-24.8m-292 1.1c.3.5.8 2.8 1.2 5 .5 3.5.4 4.2-1 4.2q-1.6 0-1.6-2.8c0-1.5-.3-3.7-.6-5-.6-2.1.9-3.2 2-1.4M357 143c0 1 .8 2.3 1.8 2.9 1.4.8 1.5 1.2.5 2.2q-2.5 2.5-3.8-3.9-.6-3.1.4-3.2 1 .2 1.1 2m9.4-.1c.3.5 0 2.1-.8 3.5l-1.4 2.7-.4-3.1a8 8 0 0 1 0-3.5c.8-.8 2-.6 2.6.4m-94.9 5c.7 1.2-2.4 9.1-3.6 9.1s-1.1-4.2.1-7.4q1.7-4 3.5-1.7m52.9 1.2q-.6.8-1.5.3t-.3-1.5q.6-.8 1.5-.3t.3 1.5m25.3.4c.5 1.6-2.2 5.5-3.9 5.5-1.2 0-1-4.4.4-5.8q2.3-2.4 3.5.3m-33.7 1.1q0 1.4-1.2 1.2c-1.8-.6-2.1-2.8-.4-2.8q1.5.1 1.6 1.6m-201 3.5q0 .8-1 .9-.9-.1-1-1.6.1-1.3 1-.9 1 .6 1 1.6m204-.2q0 1-1 1.6-.9.4-1-.9.1-1.5 1-1.6 1 0 1 .9m48 1.2q-.2.8-2 .9c-1.9 0-2.6-1.1-1.4-2.3.8-.8 3.4.3 3.4 1.4m-84.3 1.5c-.9.9-2.8-.6-2.1-1.8q.6-1 1.7.1 1 1 .4 1.7m41.3-.5q0 .9-1 .4t-1-1.6q.1-.9 1-.4a2 2 0 0 1 1 1.6m31 3.6q0 4.1-1 2.2c-.8-1.4-.3-5.9.6-5.9.2 0 .4 1.7.4 3.7m-302 4.2c0 5.8-2.3 8.2-3.4 3.6-.7-2.7.8-6.5 2.4-6.5.6 0 1 1.3 1 2.9m271-.5a3 3 0 0 1-.9 2.1c-1.2.7-2.4-1.2-1.6-2.5.9-1.5 2.5-1.2 2.5.4m37.5 8.2c-.3 1.9-1 3.4-1.5 3.4-1.4 0-1.2-6.7.2-9.3l1.3-2.2.3 2.4a19 19 0 0 1-.3 5.7M48 166.3c0 1.4-2 3.7-3.2 3.7-1 0-1.1-3.4-.1-4.3 1.1-1.2 3.3-.8 3.3.6m64-.3q0 .9-1 1a1 1 0 0 1-1-1q.1-1 1-1t1 1m217 .6q-.1 1.3-1 .9-1-.7-.5-1.6 1.4-2 1.5.7m-58 3c0 1.3-.4 2.4-1 2.4s-1-1.4-1-3.1.4-2.8 1-2.4 1 1.7 1 3.1m17 .1q0 2.6-3.2-.4c-2.6-2.3-2.2-3.5.7-2.1 1.4.6 2.5 1.7 2.5 2.5m60.1.6c-1.6 1.6-2.6 0-1-1.9q1.4-1.6 1.7-.4c.2.6-.1 1.7-.7 2.3M60.6 172q1.3 0 1.4 1t-1 1q-.8.1-.4 1.5.7 1.4 2.1 1.5c2.2 0 1.3 7.4-.9 7.8q-1.7.3-2.3-2.2l-1-5.1q-.5-2.6-2.2-1.8t-1.1-1.5c.4-1.2.1-2.5-.5-2.9q-1-.6 1.3-1.3 2.5-.6 2.8.7a2 2 0 0 0 1.8 1.3m40.4 1.6q0 3.5-1.5 3.4-1.3-.2-1.6-1.8 0-1.5-.6-.5c-.7 2-2.3 1.5-1.6-.5.9-2.6 3.4-5.2 4.4-4.6.5.3.9 2.1.9 4m180.7-1.9c.9 2.3-1.3 3.9-3.2 2.3-2.3-1.9-2-4.9.6-4.3 1.1.3 2.3 1.2 2.6 2m72.8-.7q.4.9-.4 1-1-.1-1.1-1 0-1 .4-1 .6 0 1.1 1m-307.3 2.5q-.1.9-1.1 1.3-1 .2-1.1-1.3c-.1-1.5.5-1.5 1.1-1.3q1 .4 1.1 1.3m3.9 1.8q-1.1 1.2-1.1-.4c0-2 1.3-3.4 1.8-1.9q.3 1.2-.7 2.3m58.3.6q1.5 2.8.7 5.6c-1.3 5-2.6 3.7-2.6-2.5 0-3.3.1-6 .2-6s.9 1.3 1.7 2.9m258.4 1.4c.4 2.9-1.2 3.7-2.2 1.1s-.7-4.6.7-4.2c.6.3 1.3 1.7 1.5 3.1m-79-1.1c1.6 1.6 1.5 2.8-.2 2.8s-3.8-2.4-2.9-3.3q1.2-1.6 3.1.5m-184.7 2.1c-1.3 1.3-2.6.3-1.6-1.2q.6-1 1.7-.5 1 .6-.1 1.7m328.2 1q-.6.7-1.4-.4c-.4-.7-.5-1.7-.2-2.2q.6-.7 1.4.4c.4.7.5 1.7.2 2.2M48 177.9q0 1-1 1.6-.9.4-1-.9.1-1.5 1-1.6 1 0 1 .9m8.8 2.4q-1.1 2.1-1.6.9c-.6-1.9.6-4.4 1.8-3.7q1 .6-.2 2.8m219.2 2.1c0 2.4-.2 2.7-1.5 1.6-1.5-1.3-2-5.1-.8-6.3 1-1.1 2.3 1.5 2.3 4.7m-223.5-.3c.7 4.3.3 5.5-1.4 4.4-1.3-.8-1.5-8.5-.2-8.5.5 0 1.2 1.8 1.6 4.1m269.7.1a4 4 0 0 1 2.8 1.4c1 1.1.7 1.6-1.6 2.4-3.4 1.3-8.7.5-10.4-1.5-1.9-2.3-.2-3.6 3.8-2.9 2 .4 4.5.7 5.4.6m-217.4 1c-.6 1.8-2.8 2.1-2.8.4q.1-1.5 1.6-1.6 1.4 0 1.2 1.2m184.3 2.9c2.4 2.4 2.1 4.3-1 4.7-2.5.4-5-2.2-5.1-5.1 0-2.4 3.5-2.2 6.1.4m64.1.1q-1.1 1-1.2.2c0-1.4 1.2-2.6 1.9-1.9q.3.6-.7 1.7M307 186c0 1.3-3 1.3-5 0q-1.8-1 1.8-1c1.7 0 3.2.4 3.2 1m-202 1.9c0 2-1.7 3.7-2.7 2.8-.7-.8.7-4.7 1.8-4.7q.8.2.9 1.9m233.3.2c-.6.6-1.9.9-2.9.6-1.7-.3-1.6-.5.6-1.4 2.8-1.2 3.9-.8 2.3.8m21.7.8c-.6 1.2-1.6 1.9-2.1 1.5q-1-.7.7-2.5c2.1-2.4 2.9-1.8 1.4 1m-263 .6q0 1.4-1 1.5-.9-.1-1-1.5c-.1-1.4.5-1.5 1-1.5q1 .1 1 1.5m230 .5c-.8.5-2.2 1-3 1q-2 .2 0-1c.8-.5 2.2-1 3-1q2-.2 0 1m-13 1q0 .9-1 1a1 1 0 0 1-1-1q.1-1 1-1t1 1m128-.1c0 1.4-1.8 2.3-3 1.6q-1-.7-.5-1.6c.8-1.2 3.5-1.2 3.5 0m-135.7 2.4c2 1 3.7 2.2 3.7 2.7 0 2-3 .9-6.2-2.1-3.5-3.2-3.4-3.3 2.5-.6m46.1 1.5c-2 3.2-4.4 5.1-6.1 5.2-2.1 0-1.5-1.5 2.3-5.4 4-4.1 6.5-3.9 3.8.2M344 193c0 1-4.1 3-6.1 3-1.6 0 .1-2.1 2.5-3 2.9-1.2 3.6-1.2 3.6 0m-60.2 2c.7 1.2 1 2.6.6 3.2-.6 1-3.3-2.5-3.4-4.5 0-1.4 1.5-.7 2.8 1.3m48.2-.5c-.7.8-2.1 1.5-3.2 1.5s-2.9.5-4 1.1q-2 1.2-3.1 0c-1.1-1.1-1.1-1.2 5.8-2.9 5.7-1.4 5.9-1.4 4.5.3m98-.5q3.1 2-3.2 1.2c-2.1-.2-3.5-.8-3.2-1.3.7-1.2 4.5-1.1 6.4.1m-324.9 6.3q-1 1-2.5-.3c-2.2-1.7-.9-3.2 1.6-1.9q2.1 1.1.9 2.2m198.6-1.2c4.8 2.3 5.2 4.2 1 4.7-2.8.3-6.7-2.7-6.7-5.3 0-2 .5-1.9 5.7.6M97 201.4a3 3 0 0 1-.9 2.1c-1.2.7-2.4-1.2-1.6-2.5.9-1.5 2.5-1.2 2.5.4m235.6.1c-3.2 2.4-8.4 1.7-5.9-.8.3-.4 2.2-.7 4.2-.7 3.4.1 3.5.2 1.7 1.5m8.4-.5q-.2 1-2 2c-2.2 1.2-2.7.1-.8-1.8 1.4-1.4 2.8-1.6 2.8-.2m-236.2 5.8c.2 1.3-.3 2.5-1.3 2.8-2.1.9-2.4.4-1.8-2.9s2.6-3.1 3.1.1m213-1.1c-1 .2-2.8.2-4 0q-1.8-.3 1.7-.4t2.3.4M53 210.5c0 2.5-1.4 3.4-2.4 1.6-.8-1.2.3-4.1 1.5-4.1q.8.2.9 2.5m262-.7q0 .8-1.2 2-1.3 1.2 0 2.4c1.7 1.7 1.5 2.9-.5 2.6-1.5-.2-1.9.7-2.5 5.2-.3 3-.6 8.4-.7 11.9-.1 5.1.2 6.2 1.1 5.3 2-2 3.1-1.4 2.4 1.3s.3 3.2 2.2 1.3q1.3-1.4 1.2.5-.1 1.5-1.5 1.7c-1.6 0-2.1 2.6-2.9 13.7-.5 7.9-2.1 12.2-3.8 10.5-1.3-1.3-1.4-25.4-.2-39.2.5-5.2.8-11.9.8-14.8-.1-5.1 0-5.2 2.8-5.2 1.5 0 2.8.4 2.8.8m115 1.2q-.1.9-1.5 1c-1.4.1-1.5-.5-1.5-1q.1-1 1.5-1c1.4 0 1.5.4 1.5 1m-325.5 2.1c.3.4.3 2-.1 3.4q-.5 2.6-3 2.5c-2.1 0-2.3-.4-1.8-2.4q.5-2.3-.6-3.1-1.4-.7 0-1.5c1.4-.9 4.8-.2 5.5 1.1m219 1c-.4.5-1.6.9-2.8.9-2.1-.1-2.1-.1-.3-1.5 2-1.5 4.1-1.1 3.1.6m101.9.9q-.7 2.9 1.1 4.6 1.6 1.7 1 4.1-.5 2.6 1.3 5.7c1.6 2.7 1.9 5.7 2.2 18.6.5 24.4.7 28.1 1.8 34 1.1 5.7 1.3 9 3.1 40 1.5 26.5 1.8 28.7 4.5 32.3 1.3 1.8 2.4 4.7 2.4 6.6s.6 3.7 1.3 4.2q1 .8.6 2.3t.3 1.6c1.5 0 1 9.8-.6 11.1-1.1.9-1.4.6-1.5-1.7 0-1.6-.4-3.8-.9-4.9q-.9-2.2-1.1 5.5v9l.8 6c.4 2.5.7 7.6.7 11.5-.1 5.7-.4 7.1-1.7 7.3-2.3.5-2.5-.8-4.2-33.8l-2.5-48.5c0-1.7-.6-8.6-1.5-15.5s-1.9-19.4-2.4-27.9a77 77 0 0 0-2-16.4 49 49 0 0 1 1.1-19q.9-1.8-.2-3.2c-.7-.8-1-1.8-.7-2.2.2-.4 0-3.7-.5-7.3l-1.4-11.3c-.3-2.6-1.3-6.2-2.4-7.9-1.5-2.4-1.6-3.5-.8-5.4 1.6-3.3 2.9-3 2.2.6m-179.9 1.1q.5 1-1.4 1.6-2 .6-2.1 1.9 0 1.3-.9 1.4c-1.2 0-2.4-3.7-1.6-5s5.2-1.3 6 .1m4.3 2.5q-.7.3-1.8-1.8-2-3.2.6-.6 1.6 1.6 1.2 2.4m109.5 1.7c-.3 2-1 3.7-1.4 3.7-1.1 0-1.1-1.6-.3-5.9.9-4.5 2.5-2.4 1.7 2.2m-125.7.4c-1 1-1.9-.5-1-1.8q.8-1.6 1.2 0 .3 1.2-.2 1.8m4.8-1.9q.3.8-.4 2.2-.9 1.7-2.1.3c-.6-.6-.8-1.6-.5-2.2.8-1.3 2.3-1.4 3-.3m76.6 3.1c0 2.6-1 5.1-2.1 5.1-1 0-1.2-5.3-.2-6.3 1.2-1.3 2.3-.7 2.3 1.2m54 1c0 2.3-1.6 3.6-2.5 2.1-.9-1.4.1-4 1.5-4q.9.2 1 1.9m-265 .6q-.2 1.3-2 1.5c-1.8.2-2-.7-2-1.5s.9-1.5 2-1.5 2 .7 2 1.5m134.6 2.2c-1 1-1.9-.5-1-1.8q.8-1.7 1.2 0 .3 1.2-.2 1.8M57 225.6q-.1 1.3-1 .9-1-.7-.5-1.6 1.4-2 1.5.7m265 1.4q0 .9-1 1a1 1 0 0 1-1-1q.1-1 1-1t1 1m-227.4 2.7c-1 1-1.9-.5-1-1.8q.8-1.6 1.2 0 .3 1.2-.2 1.8m9.4-.6q-.2.8-2 .9c-2.2 0-2.7-1.6-.7-2.3 1.5-.5 2.7.1 2.7 1.4m132 0c0 1.4-2.7 1-3.3-.5q-.7-1.4 1.4-.9c1 .3 1.9.9 1.9 1.4m13 3c0 1-.4 1.9-1 1.9s-1-1.2-1-2.6.4-2.3 1-1.9 1 1.5 1 2.6m65-2.2q0 1-1 1.6-.9.4-1-.9.1-1.5 1-1.6 1 0 1 .9m-222.7 3.3q-1.2 7-1.3.5c0-2.1.4-3.7 1-3.7s.7 1.4.3 3.2m9.9-.7c2.1 0 2.3.5 2.6 5.6.2 3.1-.1 7.8-.5 10.5l-.9 4.9-4.1-.1c-4-.1-4.2 0-3.6 2.6.3 1.5 0 3.1-.6 3.4-.6.4-.8 1.8-.5 3.1q.7 2.4-1.5 3.5c-2 1-3.1-.2-1.2-1.4.8-.5 1.1-3.1 1.2-10.6q-.2-6.7 2.8-3.5c3.7 3.2 8.9-.4 6.3-4.5a18 18 0 0 1-1.3-6.2c0-2.4-.3-3.7-.6-3.1S98 238 96.9 238q-1.8.1-1.9 1.6 0 1.3-.8 1.1c-1.2-.8-.6-7.2.8-6.9q1 0 1.7-1.9.6-2.2 1.4-.8c.4.8 1.8 1.4 3.1 1.4m-43.4 3.2c-.3 3-2.3 4.1-3.1 1.8-.9-2.1.2-4.5 2-4.5q1.5 0 1.1 2.7M254 234q-.1.9-1.1 1-.8-.1-.4-1 .6-1 1.1-1 .3 0 .4 1m-201.2 3.2c-.3 3.7-2.3 4.1-2.4.5q-.2-3.9 1.7-3.7c.6 0 .9 1.5.7 3.2m261.2-2.3q0 1-1 1.6-.9.4-1-.9.1-1.5 1-1.6 1 0 1 .9m-68 1.1c0 .5-.9 1.9-1.9 2.9-1.7 1.7-2 1.7-2.5.4-.4-.9-.1-2.2.5-2.9 1.3-1.6 3.9-1.9 3.9-.4m112.9.9q1.3 1 .7 2.6-.5 2-2 .6c-1.1-1-1.3-.3-1.2 3.5q0 4.7-1.1 5.1-1.3.5-1.3-3.1 0-3.7-1.5-3.6-1.4 0-.8-1.8c1.4-4 4.1-5.3 7.2-3.3M321 238q-.1.9-1.1 1-.8-.1-.4-1 .6-1 1.1-1 .4 0 .4 1m50 1.7q-.2 2.3-3.7 4.2c-3.5 1.8-4.9 1.3-2.5-.9 1.2-1.2 2.2-2.5 2.2-3q.2-1 2-1c1.8 0 2 .3 2 .7m-124 3.9a63 63 0 0 1 2.4 17c.7 13.8 5.8 35.9 8.3 35.9 2 0 2.4 1.2.8 2.5-1.8 1.5-1.9 2.9-.5 6.5.9 2.3 1.3 2.5 2.5 1.5q1.4-1.1 1.6-.4c.3 2 .6 3 1.4 4.8q.9 1.9-.8 3.1c-2.3 1.7-2.1 2.8.3 2q2-.7 2 .9c0 .8-.4 1.8-1 2.1-1.5.9-1.2 2.5.5 2.5q1.4.1 1.5 2.1 0 2.2-1.5 1.5-1.4-.4-1.5.9.2 1.4 2 1.5c2.1 0 2.8 2.4 1 3.5-1.2.8-1.3 7.2-.1 7.9q.8.4 1.5-.9t1.6-1.5c1.6 0 1.2 3.1-.7 5.2q-1.4 1.7-.5 1.8 1.1-.1 1.2-1.1.1-.8 1-.4c.6.3 1 1.7 1 3s-.4 2.7-1 3c-1.2.7-1.4 7.5-.2 7.5q.8 0 2-1.2 1.3-1.4 1.2.4c0 .9-.4 2-1 2.3s-1 1.4-1 2.3q0 1.8 1.2.4 2.6-2.4 2.8.3-.1 1.5-1.5 2.1a3 3 0 0 0-1.5 2.6c0 1.7.2 1.8 1.5.8 2.3-1.9 2.9-.5 1.5 3-.7 1.7-1 3.3-.6 3.7q.5.4.6-1 .1-1.6 1-1.7c1.3 0 1.3 2.3-.1 3.7-.6.6-.7 3-.3 6.4.5 3 1 4.6 1.2 3.6.5-2.4 3.2-2.1 3.2.4 0 1.1.5 2.9 1.1 4 1 1.9 1.1 2 2.3.3 1.4-1.9 3.6-1.2 3.6 1.2q-.1 1.3-2.1 1.4c-2.9 0-5.9 1.8-5.4 3.3.3.6.6 3 .8 5.2.2 2.1.9 4.1 1.6 4.3q1 .3 1.1-.8.1-1 1-.5c1.6 1 1.2 3.5-.5 2.9-1.2-.5-1.4.4-1.1 5.2.2 3.3.6 6.6.9 7.4s.8 3.4 1.1 5.8 1.2 5.2 1.8 6.2c1 1.5 1 2.2 0 3.2-.6.6-1.2 2.1-1.3 3.2-.1 3.3-2.7-7.3-3.4-13.9a179 179 0 0 0-2-15l-3.6-17.8c-1.7-8.1-3.2-15.4-3.5-16.1s-1.4-5.1-2.4-9.7-2.6-10.4-3.4-12.8c-1.6-4.2-5.1-19.2-9.6-41.6-1.2-6.1-2.8-13.3-3.5-16l-3-13c-.9-4.4-2.1-9.4-2.7-11a100 100 0 0 1-3.6-27.2q2.7-3 2.8 1.3m5.3 1.6c.2 1.8.2 3.7-.1 4.2-.7 1.2-2-2.1-2.1-5.2-.1-3.4 1.6-2.6 2.2 1m-157.9.9q-.6.8-1.5.3t-.3-1.5q.6-.8 1.5-.3t.3 1.5m-43 2.6c-1 4.6-1.3 5.5-2.2 4.9q-.9-.5-.3-6.9.3-.6 1.6-.7 1.7-.2.9 2.7m310.6.9c0 1.6-1.6 1.9-2.5.4-.8-1.3.4-3.2 1.6-2.5q.8.8.9 2.1m-41.9 1.7c-1.6 1.6-2.6 0-1-1.9q1.4-1.6 1.7-.4c.2.6-.1 1.7-.7 2.3m42.9 3.1c0 1.4-.5 2.8-1 3.1-1.3.8-2.4-2-1.6-4 .9-2.4 2.6-1.7 2.6.9m-5.4.1-1.3 3.2q-.7 1.8.6.8c2-1.2 3.1 1.4 3.1 6.9 0 3.7-.3 4.7-1.1 3.9-.6-.6-1.1-2.3-1.1-3.7s-.4-2.9-.9-3.2c-1.2-.7-1.1-.4.6 9.1l1.5 8.5q0 .3 1-1c1.2-1.9 1.6-1.3 2.4 3.4.6 3.3.5 3.8-.8 3.3q-1.5-.6-1.6.9.2 1.5 1.8 2.1c2.8.7 6.9 22.3 4.2 22.3q-.9-.2-1.5-2.8c-.3-1.5-1.5-5-2.7-7.7a83 83 0 0 1-4.4-21.5c-.2-2.5-.9-7-1.5-10-2.6-12.4-2.4-16 .7-16q1.6 0 1 1.5m56.6 1.7q-1.3 1.5-1.2-1.2c.1-2.7.3-2.1 1.2-1.2q1.4 1.2 0 2.4m-215.6 1.4q-2 1.5-3 .3-1.2-1 .8-2.5t3-.3q1.2 1-.8 2.5m121.1 1.1c-1.6 1.6-1.7 1.6-1.7-.3 0-1.1.3-2.4.7-2.7q.7-.6 1.7.3 1 1-.7 2.7M103 257.4a3 3 0 0 1-.9 2.1c-1.2.7-2.4-1.2-1.6-2.5.9-1.5 2.5-1.2 2.5.4m151.5-.4q-.4.9.4 1 1 0 1.1 1c0 1.7-1.4 1.1-2.8-1-1-1.7-1-2 .4-2q1.3 0 .9 1m-155.8 1.6c-.3.3-1.2.4-1.9.1q-1.1-.5.6-.6t1.3.5m94.1 2.7c3 1.2 2.8 1.3-5.9 2.5-4.9.7-9.3 1.3-9.8 1.5q-.9 0-1.2-.8c-.6-1.5 6.2-4.5 10.2-4.5 2 0 5 .6 6.7 1.3M102 263q-.1.9-1.1 1-.8-.1-.4-1t1.1-1q.3 0 .4 1m218 .4c0 .8-.4 1.8-1 2.1q-.9.4-1-1.4.1-2 1-2.1 1 .1 1 1.4m44 .7q0 .8-1 .9-.9-.1-1-1.6.1-1.3 1-.9 1 .6 1 1.6m-265.1-.4c0 .5-.4 1.7-.9 2.8q-1 2.8-.9-.8c-.1-1.5.4-2.7.9-2.7q1 0 .9.7m159.1.8c0 1.6-2.7 3.2-3.7 2.1-.7-.7 1.6-3.6 2.8-3.6q.8.1.9 1.5m110.8-.4q-.4 1-1.3 1-1.2 0-1.3-1t1.3-1.1c1.5-.1 1.5.5 1.3 1.1M425 269c0 5.7-1.1 7.8-2.4 4.5-.8-2.1.5-10.5 1.5-10.5.5 0 .9 2.7.9 6m-214.1-3.1c1.2.8 1.2 1.3-.3 3.5-1.2 2-2.5 2.6-5.1 2.6-4.2 0-4.4-1.2-.9-4.5 2.9-2.7 4.1-3 6.3-1.6m-12.9.9c0 1.3-5.6 4.1-12.5 6.3l-8.1 2.6q-1.3.4-1.4-1.1c0-2.4 8.5-6.8 14.8-7.6l6.5-.9q.6 0 .7.7m219.5 1.2c.3.5-.4 1.9-1.6 3.1-2.6 2.6-4.7 1.2-3-2 1.2-2.2 3.6-2.8 4.6-1.1m-53 1q.4.9-.4 1-1-.1-1.1-1 0-1 .4-1t1.1 1M94 270.4c0 .8-.4 1.8-1 2.1q-.9.4-1-1.4.1-2 1-2.1 1 .1 1 1.4m165 .6q0 1.8-.9 2c-1.4 0-2.3-1.8-1.6-3 1-1.7 2.5-1.1 2.5 1m4-1q0 .9-1 1a1 1 0 0 1-1-1q.1-1 1-1t1 1m106.8.1q-.4 1-1.3 1-1.2 0-1.3-1t1.3-1.1c1.5-.1 1.5.5 1.3 1.1M253 271q0 .9-1 1a1 1 0 0 1-1-1q.1-1 1-1t1 1m57.3 2.1c-.8.8-.7 1.9.1 4.1.9 2.6.8 3.2-.8 4.4s-1.8 1.4-.3 1.4c2.2 0 2.3 4.3.2 6q-1.7 1.3-.5 2.4c1.3 1.3 1.3 12.3-.1 13.2-.6.4-.8 2-.5 3.9.4 2 .2 3.6-.4 4q-1.2.7 0 2 1 1.4.5 2.6c-1.1 1.6-1.5 18-.6 19.9.5.8 0 4-1 7.5l-1.9 6 .5-29c.6-28.3 1.7-43.6 3.6-48.4q1-2.1 1.6-1.7.5.6-.4 1.7m-259.7 2.2q-2.5 2.4-2.6 1.3c0-1.3 4.1-4.7 4.8-4.1.2.2-.8 1.4-2.2 2.8M98 273q0 .9-.4 1-.6-.1-1.1-1-.4-1 .4-1 1 0 1.1 1m4 1q-.2 1.8-1.5 2c-1.7 0-1.8-.2-.9-2.4.9-2.3 2.4-2 2.4.4m56-.1c0 1.6-7.2 7-10.8 8.2-8.1 2.7-5.1-3.8 3.3-7.1 5.6-2.1 7.5-2.4 7.5-1.1m34.9.7a26 26 0 0 1-9.9 5.4q-.9-.1-1-1.4c0-1.2 2-2.2 11.9-5.5q.3 0-1 1.5m-103.1 4.9c0 3.1-.5 5.8-1.1 6.2-.8.5-.7-5.1.3-11.5l.4-.2c.2 0 .4 2.5.4 5.5m109.7-4.5q-.7.9-1.6 1-.9-.1-.4-1a2 2 0 0 1 1.6-1q.9 0 .4 1m60.1 1.7c-1 1-1.9-.5-1-1.8q.8-1.7 1.2 0 .3 1.2-.2 1.8m4.9-1.7q.4.9-.4 1-1-.1-1.1-1 0-1 .4-1t1.1 1m106 0q.4.9-.9 1-1.5-.1-1.6-1 0-1 .9-1t1.6 1m-277 2.1c-1 1.5-2.5 1-1.9-.6q.7-1.3 1.5-.9.8.6.4 1.5m225.2-.4q-1.5 1.4-2.3 1.1c-1-1 .6-2.8 2.4-2.8 1.5 0 1.5.1-.1 1.7m-145.9.5c-.5 1.6-8.6 5.8-11.1 5.8-2.9 0-1.5-2.2 2.9-4.7 4.3-2.5 8.8-3.1 8.2-1.1M98 278.5q-.2 1.4-1.5 1.5c-1.6 0-2-1.2-.8-2.3 1.1-1.2 2.3-.8 2.3.8m162.5.5q.4.9-.4 1-1-.1-1.1-1 0-1 .4-1t1.1 1m106 2.9q-.4.9.4 1.6c1.2.7.3 3.5-1.1 3.5q-.8-.2-.6-1.8a5 5 0 0 0-.6-3c-.4-.7-.5-2.1-.1-3 .6-1.6.7-1.6 1.6.1.6.9.8 2.1.4 2.6m-311.3 1.8c.3 5.2-.9 10.6-2.2 9.8-1.4-.9-.7-14.5.7-14.5.7 0 1.3 1.9 1.5 4.7m46.3-2.2q-.1 1.7-1.2 2.2-1.2.4-1.3-2.2 0-2.6 1.3-2.3 1 .6 1.2 2.3m36.8-1.9c2.1 2.2-8.1 8.4-13.8 8.4-5.1 0-1.4-3.8 6.9-7.1 4.6-1.9 6-2.2 6.9-1.3m55.5 2.8c0 1.9.3 4 .7 4.6q.5 1.1-1.4 1.7-4.8 1.4 2 5.9l4.1 2.6-.7 6.1c-.4 3.4-.9 10.4-1.1 15.6s-.9 10-1.5 10.7c-1.1 1.4-4 1.1-12-1.1q-4.5-1.3-6.2-.3c-1.6.9-1.6 1.1.3 3.5 3.5 4.5 2.8 5.6-3.7 4.9l-12.8-1.1c-3.9-.3-8.3-.9-10-1.3l-2.9-.8 3.3-1.7c1.9-.9 4-1.7 4.8-1.7 1.3 0 2.3-.4 8.1-3.4 1.7-1 3.7-1.4 4.2-1.1 1.7 1.1 4-1.5 4-4.6 0-1.5.5-3.1 1-3.4s1-1.8 1.1-3.3q0-2.3.6-1.5c1 2.5 2.4 1.2 5.4-5.2 2.3-4.8 3.2-8.3 3.3-12.8.3-7 2.7-12.9 5.9-14.5s3.5-1.5 3.5 2.2m60.8-.7c-1 1-1.9-.5-1-1.8q.8-1.7 1.2 0 .3 1.2-.2 1.8m-161.3.8q-.6 1.4-1.4 1.5c-1 0-1.2-2.4-.3-3.3 1.1-1.1 2.4.3 1.7 1.8m63-.1c.7 1.8-3.6 5.9-11.5 10.7-5.9 3.7-9.8 4.9-9.8 3.1 0-1.4 6.3-6.8 11.1-9.5a35 35 0 0 0 5.9-4.1c1.6-2 3.6-2.1 4.3-.2m40.7-.4q0 .9-1 1a1 1 0 0 1-1-1q.1-1 1-1t1 1m-17.4 3.4c-1.1.6-2.8 1.9-3.8 2.9-3.1 3-8.2 5.7-10.5 5.7q-5.2-.1 2-4.7c2.3-1.5 5.5-3.8 7-5 2.4-1.9 3.2-2.1 5-1.1 2.1 1.1 2.1 1.2.3 2.2m259-1.8c-.3.9-.6 2-.6 2.5s-.4.9-1 .9c-1.1 0-1.4-3.3-.3-4.3 1.2-1.3 2.5-.7 1.9.9m-342 3.1c-1.1 1.1-1.9-.6-1.1-2.4s.8-1.7 1.2 0c.3 1 .2 2.1-.1 2.4m276.4-2.2q1.6 1.7-.8 1.5a3 3 0 0 1-2.6-1.5q-.4-1.4.8-1.5c.7 0 1.9.7 2.6 1.5m-110.3.1q-.6.5-1.9.1-1.1-.5.6-.6t1.3.5m55.1 2.6c-.6 1.8-2.8 2.1-2.8.4q.1-1.5 1.6-1.6 1.4 0 1.2 1.2m-216.6 2.4c-.3 2-5.3 6.7-6.1 5.8-.2-.2.5-1.8 1.7-3.4s2.2-3.4 2.2-4q.1-1.1 1.3-.7c.6.2 1.1 1.3.9 2.3m-51.2-.2c0 .8-.4 1.8-1 2.1q-.9.4-1-1.4.1-2 1-2.1 1 .1 1 1.4m43-1q0 .6-1 1.1-.9.4-1-.4.1-1 1-1.1 1 0 1 .4m42.4 1c-1 2.7-12.8 9.5-14.1 8.2q-1.8-1.3 7.5-6.1l6.9-3.5q.2.1-.3 1.4m127.4.4c.6 1.8-1.5 1.4-2.2-.4q-.5-1.5.6-1.2 1.1.5 1.6 1.6m-143.9.6c1 1.2.9 1.7-.6 2.4-1.7.9-5.5 1.6-7.8 1.3-1.3-.1 4.6-5 6.1-5.1.6 0 1.7.6 2.3 1.4m39.8.4c-.9 1-1.4 2.7-1.1 3.8q.9 3.9-9 6.6c-3.3.9-4.9.9-5.7.1-1.2-1.2 2.9-4.7 11-9.5q8.2-4.8 4.8-1m216.6.8c-.6 1.7-4.4 1.5-5-.3q-.2-1 1.9-1.5 4.3-.9 3.1 1.8m-283.7 2.1c-1 1-1.9-.5-1-1.8q.8-1.7 1.2 0 .3 1.2-.2 1.8m352-.3c.9 3.8.1 8.1-1.6 8.1q-1.4 0-1.2-1.8.2-1.5-.8-1.7-.9.2-1 2c0 2.1-1.4 2.7-2.5 1.1-.3-.5.9-2.1 2.7-3.5 2.6-2 3-2.8 2-3.8q-2.4-2.6.3-2.8c.8 0 1.7 1.1 2.1 2.4m-355.3.6q-.5 1.8-.9 2-.3-.2-.4-2c-.1-1.8.4-2 .9-2s.7.9.4 2m91.7-.4c0 .2-1.2.4-2.7.4q-3 0-1.4-.9c1.3-.8 4.1-.5 4.1.5m55.9 1.3q.9 1.7.4 2.5c-.7.7-4.3-2.3-4.3-3.6 0-1.6 2.9-.8 3.9 1.1m-143.1 2.3c-.4 2.7-2.8 3.6-2.8 1q0-3.1 2.2-3.2.8.2.6 2.2m6.3 5.1c-1.7 1.7-2.3-1.6-.9-4.9l1.2-2.9.4 3.4c.2 1.8-.1 3.8-.7 4.4m152.4.1c.5 3.8.4 4.7-.7 4.4-1.6-.6-3.3-8-2.4-10.5q.8-2.2 1.5-.3a25 25 0 0 1 1.6 6.4m14-6.5c.7 1.2-1.2 2.4-2.5 1.6-1.1-.7-.4-2.5 1-2.5q.8 0 1.5.9m51.3.8c-.4 2.2-2.2 2-2.6-.1q-.2-1.6 1.3-1.6c1.5 0 1.5.7 1.3 1.7m59.2-.5c0 .4-1.2.8-2.6.8q-2.3-.1-2-.8c.2-.4 1.4-.8 2.5-.8q2 .1 2.1.8m-56.4 3.5c-1.1 1.1-1.9-.6-1.1-2.4s.8-1.7 1.2 0c.3 1 .2 2.1-.1 2.4M270 298q0 .9-1 1a1 1 0 0 1-1-1q.1-1 1-1t1 1m-219.3 2.2q-.5 1.1-.6-.6t.5-1.3q.5.6.1 1.9m65.8-.2c0 1.7-6.8 4.5-8.9 3.7-2-.8-1-3.6 1.8-4.7 3.1-1.3 7.1-.7 7.1 1m14.1-.1c-.3.4-1.8 1.1-3.3 1.4-1.6.3-5 2-7.6 3.8s-5.1 2.9-5.4 2.5c-.9-.9-.4-1.2 7.3-5q10.4-5.2 9-2.7M371 305c.8 4.1-.3 6.1-2.2 4.2-.6-.6-.7-2.7-.3-5.2q1.1-7.4 2.5 1m-278.2-1.8c-.4 2.7-2.8 3.6-2.8 1q0-3.1 2.2-3.2.8.2.6 2.2m45.3-.6c1.1 1.4 1 1.8-.5 2.9a53 53 0 0 1-16.3 5.1c-1.1-1.1 1.8-3.3 7.2-5.6 3-1.3 5.5-2.7 5.5-3.2 0-1.4 2.7-.9 4.1.8m177.9.9q0 1.3-1 1.5-.9-.2-1-1.5c-.1-1.3.5-1.5 1-1.5q1 .1 1 1.5m-264 1q0 1.3-1 1.5-.9-.2-1-1.5c-.1-1.3.5-1.5 1-1.5q1 .1 1 1.5m266.7.7q-.5 1.1-.6-.6t.5-1.3q.5.6.1 1.9m26.8-1.1c1.1 1.7-.1 2.1-1.5.4q-1.2-1.4-.2-1.5 1 .1 1.7 1.1m98.8.5c.9 1-.4 3.4-1.9 3.4q-1.3-.1-1.4-1.3c0-2.2 1.9-3.5 3.3-2.1m-284.2 5-.9 3.9-.1-3.6c-.1-2 .2-3.9.6-4.2q1.8-2 .4 3.9m107.4-1.8c-.3.8-.1 1.9.6 2.3q1.1.6.2 2.4-1 1.9-1.8.6-.6-1.2-.1-1.8c.3-.4-.2-1.5-1.1-2.5-1.5-1.6-1.5-2.1-.3-2.8 1.9-1.2 3.3-.2 2.5 1.8m-160.2 1.4c1.4 1.7 2.3 3.7 2 4.5-.8 2 2.6 5.3 5.4 5.3a22 22 0 0 0 7.2-2.5c4.8-2.4 4.9-2.4 6.6-.5q1.8 2 1.2 4.7-.5 2.8 1 4.5c1.2 1.4 1.3 2.3.3 5.2-.8 2.6-.8 4.1 0 5.6 1.5 2.8 3.3 2.5 7.4-1.1q5.4-4.5 5.6-.4c0 .7-1.6 2.3-3.6 3.4-2.9 1.8-3.5 2.6-3.1 4.6q.3 2.3-.3 2.5-.8.5-1.4 3.9c-.3 2.1-2.5 6.7-4.9 10.2a92 92 0 0 0-7.4 13.9c-3.6 8.7-7.4 25.1-6.3 27.1.5.8 1.6 6.8 2.5 13.4s2.5 17.4 3.6 24a131 131 0 0 1 .3 41.9l-2.4 11c-.5 2.3-.5 4.7.1 6 .8 1.7.4 3.2-1.7 6.9-2.5 4.5-2.8 4.8-5.8 4.1-5-1-5.1-1-4.8 1.1q.5 3.6 5 3.5c1.2 0 2.2.3 2.2.7a273 273 0 0 1-18.1 38.4C92 561.6 91.6 562 88.4 562c-3.6 0-4.4-1.3-1.8-2.8s3.5-9.8 2.8-28.5c-.4-11.5-.3-17.7.4-17.7q.9.2 1.6 2.2.5 2.6 1.8 1c.6-.6 2.5-1.2 4-1.2 3.6 0 10.4-6.1 9.4-8.5q-.7-1.7 2.4-2.6c3.4-1.2 4.6-3.9 3-6.9-.9-1.6-.8-2.5 0-3.6.7-.7 1-2.3.7-3.4q-.5-2 1.9-3.9c2.7-2.1 3-4.2 1.3-9.2-2.3-6.7-4.7-6.7-2.9 0 1 3.8.9 4.4-1.7 7.6-1.5 1.9-3.6 3.5-4.5 3.5-2.4 0-2.3 3.7.1 4.5 1.8.5 3.6 5.8 2.6 7.6-.3.4-2.8.5-5.6.2-3.1-.4-5.8-.1-7.3.6-3.8 2.1-7 1.1-7.4-2.3-.5-4.4.6-7.7 2.5-7.4q1.8.2 3.1-2.5c.7-1.5 1.8-2.7 2.3-2.7s2.1-1.1 3.4-2.4c2.1-2.1 2.3-3 1.8-8.3q-.8-9.5 3.1-6.4c2 1.6 6.2-.2 6.9-3.1.4-1.3.7-3.7.7-5.3 0-1.7.7-4.1 1.5-5.5 2.2-3.8 1.9-10.3-.5-12.5-2-1.8-2-1.8.5-4.1 1.9-1.8 2.3-2.8 1.6-4.6a7 7 0 0 0-2.9-3.3q-2.2-1-2.2-3.6c0-3.3-2.2-5.3-5-4.4-1.8.6-2 .2-2-2.9 0-8.7-7.4-4.4-10.1 5.9q-.9 3.4-.4-2c.7-7 1.3-17.4 2.5-43 .6-12.1 1.5-24 2-26.5.8-4.4 2.3-19.6 3.6-38.8.7-10.3 1.6-11.3 5.7-6m135.4-1.4c-1 1-1.7 2.4-1.7 3.1q0 1-1 .6c-.5-.3-1-1.5-1-2.5q0-2.7 3.9-2.9 1.7-.3-.2 1.7m-149.7.6c0 1.8-2.6 4-3.4 2.7-.9-1.4.4-4.1 2-4.1q1.3.1 1.4 1.4M51.5 310q.4.9-.4 1-1-.1-1.1-1 0-1 .4-1t1.1 1m264.5 0q-.1.9-1.5 1c-1.4.1-1.5-.5-1.5-1q.1-1 1.5-1c1.4 0 1.5.4 1.5 1m43.3-.3c.3.5.8 2.7 1.2 5 .6 3.6.4 4.3-1 4.3s-1.5-.6-1-2.9c.5-2.4.2-3.2-1.4-4.1q-2-1-2.1-2c0-1.2 3.7-1.3 4.3-.3M152 312.9a8 8 0 0 1-1.5 3.7c-1.4 1.8-1.4 1.8-1.5-.8 0-3.4 1-5.9 2.1-5.2q.8.6.9 2.3m-61.8 3.2c-.5 3.6-2.2 4.8-2.8 2.1q-.7-2-1.5-2.2c-1 0-1.2-3.4-.2-4.3 1.3-1.4 4.8 2 4.5 4.4m28.8-1.6q0 1.5-3 1.5c-3.3 0-3.5-.2-2-3.1.9-1.5 1.5-1.7 3-.9q1.8 1.1 2 2.5m-25-.4q0 1.8-1 1.4c-.5-.3-1-1.3-1-2.1s.5-1.4 1-1.4q1 .1 1 2.1m349.6.6c-1 1-1.9-.5-1-1.8q.8-1.7 1.2 0 .3 1.2-.2 1.8m-392 2c-1.1 1.1-1.9-.6-1.1-2.4s.8-1.7 1.2 0c.3 1 .2 2.1-.1 2.4m320.4-1.6q0 .9-1 .4t-1-1.6q.1-.9 1-.4a2 2 0 0 1 1 1.6m-55.6.5c.9.3 1.6 1.6 1.6 2.9 0 1.8-.4 2.1-2.5 1.7-2.4-.4-3.4-3-1.8-4.5.8-.8.8-.8 2.7-.1m33.4 2.1c-.4 2.2-2.2 2-2.6-.1q-.2-1.6 1.3-1.6c1.5 0 1.5.7 1.3 1.7m-298.7 4.6q-1.1 1.2-1.1-.4c0-2 1.3-3.4 1.8-1.9q.3 1.2-.7 2.3m318.7 2.3c.7 2.3 1.2 5.7 1.2 7.7s.7 6.6 1.6 10.3c.8 3.7 1.4 8.9 1.3 11.5-.2 2.6.2 5.4.9 6.1.6.8 1.5 4.3 1.9 7.8l.8 6.5 3.8.3c4.1.4 5.1 2.2 1.2 2.2-1.5 0-3.6 1.1-5 2.5l-2.3 2.6-.6-2.8c-.3-1.5-.8-5.7-1.1-9.3s-1.1-8.1-1.5-10c-.5-1.9-1.2-7.8-1.5-13a85 85 0 0 0-1.6-12.3c-.5-1.6-1.2-5.9-1.5-9.5-.7-7.3.4-7.6 2.4-.6m-284.1.6q-.4 1.8-.4-1.7-.1-3.5.4-2.3c.2 1 .2 2.8 0 4m57.1-4q3.3 3.4-2.9 6.7c-2.2 1.2-3.9 1.8-3.7 1.4 4.3-9.8 4.5-10.2 6.6-8.1m-53.3.7q.4.9-.5 1.6-.9.4-1-.9 0-2.7 1.5-.7m8.5 2.2q0 1.7-1 1.9c-.5 0-1-1.2-1-2.6s.4-2.3 1-1.9 1 1.5 1 2.6m281.9 2.3c1.6 6.4 1.4 7.5-.9 6.9s-2.6-2.3-.8-4.1c.9-.9.8-1.6-.5-3-1-1.1-1.5-2.6-1.1-3.5q1.3-3.7 3.3 3.7M272 323q-.1.9-1.6 1-1.3-.1-.9-1 .6-1 1.6-1 .8 0 .9 1m45.1 1q.8 0 .9 1c0 1.4-4.3.6-4.8-1q-.4-1.3 1.2-.7c1 .4 2.2.7 2.7.7M52 326.4c0 .8-.4 1.8-1 2.1q-.9.4-1-1.4.1-2 1-2.1 1 .1 1 1.4m240.4 1.2q.9 2-.9.4-2.5-2-.6-2 .9.1 1.5 1.6m81.6-.1q0 1.3-1 1.5-.9-.2-1-1.5c-.1-1.3.5-1.5 1-1.5q1 .1 1 1.5m-100.6 1q-.7 1.3-1.5 1.5c-.8.2-.9-.7-.9-1.5s.7-1.5 1.5-1.5q1.3 0 .9 1.5m171.1.4q.4.9-.5 1.6-.9.4-1-.9 0-2.8 1.5-.7M315 330q0 .9-.9 1-1-.1-1.6-1-.4-1 .9-1 1.5 0 1.6 1m-222.4 2.7c-1 1-1.9-.5-1-1.8q.8-1.7 1.2 0 .3 1.2-.2 1.8m5 1c-.7 1.7-.8 1.7-1.7 0-1.2-2.1-.2-4.4 1.3-2.9.6.6.8 1.9.4 2.9M52 332.4a3 3 0 0 1-.9 2.1c-1.2.7-2.4-1.2-1.6-2.5.9-1.5 2.5-1.2 2.5.4m38 1c0 1.4-.5 2.8-1.1 3.1-1.5 1-1.8.4-1.2-2.8.7-3.4 2.3-3.6 2.3-.3m352 .6q0 1.8-.4 2c-.4.2-.6-.9-.9-2q-.4-1.8.4-2c.8-.2.9.9.9 2m-174 .5q0 1.4-1 1.5-.9-.1-1-1.5c-.1-1.4.5-1.5 1-1.5q1 .1 1 1.5m45.4-.5c3.4 1.3 3.3 3.2-.1 2.8q-2.7-.4-3.1-2.1c-.4-2-.2-2 3.2-.7m62.6 1q0 .9-1 1a1 1 0 0 1-1-1q.1-1 1-1t1 1m-291.3 3.2q-.5 1.1-.6-.6t.5-1.3q.5.6.1 1.9m-32.7-.4c0 1.3-1.2 2.2-2.2 1.6s-.1-2.4 1.3-2.4q.8.1.9.8m44.5 14.9q-1 6.3-2.9 3.4c-1-1.5-4.4-.1-6.1 2.5-.8 1.3-2.2 2.4-3.1 2.4q-1.3.1-.9 1 .7 1.2 2 0t2 0c.8 1.3-1.2 4-3.1 4q-1.3.1-1.4 2.5 0 2.6 1.5 1.9 1.4-.5 1.5 1-.1 1.5-1.4 1.6c-1.6 0-3.1 3.4-2.2 4.9.3.4.1 3.6-.5 7-1 5.3-.9 6.4.5 8 2 2.2 2.1 4.1.1 4.1-1.9 0-2 1.6-.2 2.3 1.4.5 1.6 8.1.3 9.4-.3.4-.6 1.7-.6 3 0 2.6-2 3.2-2.1.5a339 339 0 0 1 2.7-56q.8-8.4 2-8.9 1.3-.6 1.4-1.4-.2-.7-1.5-.3c-1.7.7-2-2.2-.5-4.6q1.2-2 1 0 0 1.8 1.5-.4c1.4-1.8 4.1-1.4 2.9.5a37 37 0 0 0-.9 7.5c-.3 6-.2 6.4 1.1 4.5.8-1.1 2.1-1.8 2.9-1.5 2 .8 2.7-1.5 1.6-5.1q-.9-2.6-1-1.3c-.2 3.1-2.1 1.9-2.1-1.2q0-3 1.4-3c.7 0 2-.7 2.7-1.7 1.2-1.4 1.4-1 1.7 3.8.2 3 .1 7.3-.3 9.6M275 338.4q0 .5-1 1.1-.9.4-1-.4.1-1 1-1.1 1 0 1 .4m40.5 2.6c0 2.2-2.9 1.8-3.3-.3q-.5-2 1.5-1.5 1.6.4 1.8 1.8m135.5.1q0 .8-1 .9-.9-.1-1-1.6.1-1.3 1-.9 1 .6 1 1.6m-75-.1q0 .9-1 1a1 1 0 0 1-1-1q.1-1 1-1t1 1m-323 4.4a3 3 0 0 1-.9 2.1c-1.2.7-2.4-1.2-1.6-2.5.9-1.5 2.5-1.2 2.5.4m262 1.9q0 1.4-.7 2c-.9.9-3.4-1.3-2.7-2.4.8-1.4 3.4-1.1 3.4.4m129.1 2c-1.3 1.3-2.6.3-1.6-1.2q.6-1 1.7-.5 1 .6-.1 1.7m-167.5 1.4c-1 1-1.9-.5-1-1.8q.8-1.7 1.2 0 .3 1.2-.2 1.8m128.4-1.2c-1.2 1.5-3 1.2-3-.6 0-.5 1-.9 2.1-.9 1.8 0 1.9.2.9 1.5m-351 2.3c0 2.1-2.7 6.2-4.1 6.2s-1.1-2.9.8-6c1.7-3 3.3-3.1 3.3-.2m324-.9q0 1-1 1.6-.9.4-1-.9.1-1.5 1-1.6 1 0 1 .9m73 2.5q0 .5-1 1.1-.9.4-1-.4.1-1 1-1.1 1 0 1 .4m-172 2c0 1.1-1.9 1.5-2.5.6q-.4-.9.9-1 1.5 0 1.6.4m172.1 3.4a3 3 0 0 0 0 3.4q1 1.7-.1 2.3-.9.4-1-1.4 0-2.1-1.5-1.5c-2 .8-1.9-.5.3-2.7s3.5-2.4 2.3-.1M53 360.7c0 2.8-1.7 5-2.9 3.8q-1.2-1.1.5-3.3 2.5-4 2.4-.5m251.6 1.5c-.3 1.3-.8 6.1-1.1 10.7-.6 7.4-.5 8.3.9 7.8q1.7-.8 1.6 1.7c0 1.3-.6 2.6-1.4 2.9q-1.4.6-1.8 6.1c-.2 4.2 0 5.5 1 5.1q1.2-.4 1.2 2.6c0 1.7-.6 3.2-1.5 3.5q-1.4.7-1.5 1.5c-.1.8.7.9 1.5.9q1.4.1 1.5 2.6 0 2.8 1.5 2 1.4-.4 1.5.4-.1 1-1.6 1c-1.2 0-1.4.9-1.2 4.2.3 4 .5 4.3 3.3 4.3 1.7 0 3.1.4 3.2 1q.1.9-1.7 1c-3.1 0-2.7 1.9.6 2.5 2.6.5 2.5.6-1.6 1.2l-6.2 1.3c-2 .8-4.3-2.9-3.3-5.3.5-1.4.9-1.3 2.1.8 1.3 2.4 1.4 2.2 1.2-2.8-.1-4.1-.4-5.2-1.5-4.7s-1.4-2.3-1-17.8c.5-17.5 1.9-33.6 3.2-35.7q1.7-2.4 1.1 1.2m-211 3.4c-.7 1.8-3.6 1.8-3.6 0 0-.8.8-2.2 1.8-3.2 1.6-1.7 1.7-1.7 2 0 .2.9.1 2.4-.2 3.2m292.9 3.1c-.5 2.8-1 3.3-3.5 3.3-1.7 0-3-.5-3-1.1q.1-1 2.1-.6c1.8.5 2 .2 1.5-1.8-.3-1.3-.1-3.6.5-5.2l1.1-2.8 1 2.5c.5 1.4.7 4 .3 5.7m-333.9 7.9c-.8 2-4.6-.4-4.6-2.9 0-1.9 2-5.8 3.5-6.9 1.1-.8 2 7.5 1.1 9.8m230.3-7.7q1.3 1.9-.5 3.2c-1.4 1.1-1.5 1-1.3-.6.2-1.1 0-2.6-.4-3.3q-.7-1 .2-1.2c.6 0 1.5.9 2 1.9m166.5-.5q-.4 1.4.5 2.1 1 .4 1.1-.5.1-1.2 1-.5.7.6-1 2.5-3.7 3.8-2.7 0c.3-1.1.1-2.3-.4-2.6-1.4-.8-1.1-2.4.6-2.4q1.3.1.9 1.4m-135.4 1q0 .5-1 1.1-.9.4-1-.4.1-1 1-1.1 1 0 1 .4M93 373q0 2-1.9 2c-2.2 0-3.5-1.5-2.6-3 1.2-1.9 4.5-1.1 4.5 1m215-1.3c0 1.4-1.9 3.8-2.5 3.2-.8-.8.5-3.9 1.6-3.9q.8 0 .9.7m145.2 5.5q-1.3 1.5-1.2-1.2c.1-2.7.3-2.1 1.2-1.2q1.3 1.2 0 2.4m-174.4 0c-.6 1.8-2.8 2.1-2.8.4q.1-1.5 1.6-1.6 1.4 0 1.2 1.2M90.6 383q1.6 0 .6 1.7c-.5 1-.7 2.4-.5 3q.4 1.3-2.1 1.3c-2.5 0-3.6-2.2-1.7-3.4.5-.3.7-1.5.4-2.6s-.2-2.8.3-3.7q.8-2.3 1.2.9.5 2.6 1.8 2.8m193.4-3q-.2.9-1.7 1-2.2.1-.3-1c1.9-1.2 2-1.2 2 0m98 1.1q-.1.8-1.5.9c-1.4.1-1.5-.7-1.5-1.5q0-1.3 1.5-.9 1.4.7 1.5 1.5m4-.1q0 .9-.9 1-1-.1-1.6-1-.4-1 .9-1 1.5 0 1.6 1m69 2.5c0 1.5-1.8 3-2.7 2.2-.2-.3-.2-1.5.2-2.6.7-2.3 2.5-1.9 2.5.4m-143-.7c0 1.3-1.2 2.2-2.2 1.6s-.1-2.4 1.3-2.4q.8.1.9.8m134 2.8c0 3.1-2.3 2.8-2.8-.4q-.3-2.2 1.2-2.2 1.6 0 1.6 2.6M378.5 398a58 58 0 0 0 3.1 18.6c.8 1.8 1.4 4.5 1.4 6 0 1.4.9 3.8 2.1 5.2 1.8 2.3 1.9 2.7.5 3q-1.5.4-1.6 1.8c-.1 1.4-.5 1.4-1.1 1.4q-1-.1-.6-2.2c.4-1.2 0-2.9-.7-3.8-1.3-1.4-1.7-3.3-3-14l-1.5-10.5c-.6-3.9-1-9.7-1-13 .1-5.2.2-5.6 1-3 .5 1.6 1.1 6.4 1.4 10.5m3.7-11.5q-.1.9-1.1 1.3-1 .2-1.1-1.3c-.1-1.5.5-1.5 1.1-1.3q1 .4 1.1 1.3m4.8.5q0 .9-1 1a1 1 0 0 1-1-1q.1-1 1-1t1 1m-81 2.5c0 1.4-.4 2.5-1 2.5-1.1 0-1.4-3.3-.3-4.3 1.1-1.1 1.3-.8 1.3 1.8m148.6 3.2c-1.1 1.1-1.9-.6-1.1-2.4s.8-1.7 1.2 0c.3 1 .2 2.1-.1 2.4m-8.6 1.7c0 2.7-1.5 4.2-2.5 2.6-.8-1.3.3-5 1.6-5 .5 0 .9 1.1.9 2.4m-136 0c0 1.5-1.8 3.1-2.6 2.3-.7-.7.7-3.7 1.7-3.7q.8.1.9 1.4m-221 3.1c-1.6 1.9-3 1.9-3 0 0-1.7 3.3-3.8 3.8-2.4.2.5-.2 1.6-.8 2.4m195.5-1.5q-.6.9-1.6 1-.8-.1-.9-1 .1-1 1.6-1 1.3 0 .9 1m171.5 3.1q0 1.8-1 1.4c-.5-.3-1-1.5-1-2.6s.5-1.7 1-1.4 1 1.5 1 2.6m-167-.1q0 .9-.4 1-.5-.1-1.1-1-.4-1 .4-1 1 0 1.1 1m157.8 2.2c-.4 2.7-2.8 3.6-2.8 1q0-3.1 2.2-3.2.8.2.6 2.2m-57.8-.3q0 1-1 1.6-.9.4-1-.9.1-1.5 1-1.6 1 0 1 .9m-99.4 3.8c-1 1-1.9-.5-1-1.8q.8-1.7 1.2 0 .3 1.2-.2 1.8M452 403q0 .9-.4 1-.5-.1-1.1-1-.4-1 .4-1 1 0 1.1 1m-363 1.9q0 .8-.7 1.4c-.8.9-3.4-1.3-2.8-2.4.6-.9 3.5-.1 3.5 1m220-1q0 1-1 1.6-.9.4-1-.9.1-1.5 1-1.6 1 0 1 .9m4 1.1q0 .9-1 1a1 1 0 0 1-1-1q.1-1 1-1t1 1m135 4.5q0 3.5-1.4 3.5-3.3 0-1.6-4.4c1.4-3.7 3-3.2 3 .9M87 410q-.1.9-1.1 1-.8-.1-.4-1t1.1-1q.3 0 .4 1m199 0q0 .9-1 1a1 1 0 0 1-1-1q.1-1 1-1t1 1m5 0q0 .9-.4 1-.5-.1-1.1-1-.4-1 .4-1 1 0 1.1 1m22 .4a3 3 0 0 1-.9 2.1c-1.2.7-2.4-1.2-1.6-2.5.9-1.5 2.5-1.2 2.5.4m-260 2.2q0 2.3-1 1.9c-.5-.3-1-1.5-1-2.6 0-1 .5-1.9 1-1.9s1 1.2 1 2.6m332.3 1.3c-.3 1 0 2.2.6 2.5 1.3.9 1.5 2.6.2 2.6-1.1 0-2.4-4.8-1.6-6q1.6-2.3.8.9m66.4 4.3c-.1 4.8.6 7.9 2.7 12.8 2.4 5.4 2.7 7.3 2.2 11.7-.9 7.9.4 9.3 8.2 9.3 3.4 0 7 .5 8 1.1 1.4.9 2.8.7 6.5-.9 2.6-1.2 4.7-2.6 4.7-3.1 0-4 9.7-20.1 12.1-20.1q2.6-.2.4 13.6c-2 12-4.1 18.7-6.6 21-1 .9-1.9 2.8-1.9 4.1 0 3.1-1.1 2.9-9.7-1.2-8.4-4.2-21-6.1-33-5.1-7.8.6-9.4-.1-6.3-2.9 2.6-2.3 2.6-6.1 0-7.5-2.3-1.2-2.6-5.2-.9-9.7.6-1.5 1.1-4.6 1.1-6.8.1-5.2 1-7.5 4.6-11.5 1.7-1.8 3.8-5 4.8-7.1.9-2.2 2-3.9 2.4-3.9s.7 2.8.7 6.2m-11.6-.2c1.9 1.1 1.8 1.2-1 5.3a14 14 0 0 0-2.9 8.8c.1 2.5-.7 5.9-1.7 7.9-1 1.9-2.1 5.1-2.4 7-.5 2.5-1.8 4.3-5.1 6.8a30 30 0 0 0-6.7 7.2 14 14 0 0 1-5.1 4.9 10 10 0 0 0-4.2 3.7c-1.2 2.1-1.1 3 .5 6.2 1.4 2.7 1.8 5.3 1.5 9.7-.5 8.2-.6 11.9-.8 36.2A99 99 0 0 1 411 543c-3.3 0-5-10.7-3.9-24.9.5-6.2.4-10.9-.1-11.6a26 26 0 0 1-1.2-8c-.2-5.4-.7-7-1.9-7.3-1.3-.2-1.8 2.2-2.8 17.2-1.2 16.3-1 23.8.9 27.6l3.5 7.4c1.6 3.5 3.5 6 4.6 6.3 2.2.6 3.4 4.2 2.5 7.8-.5 1.9-1.3 2.5-3.5 2.5-4.2 0-9 2-10.2 4.2s.3 5 4.8 9.3c3.3 3 2.2 3.4-1.4.5a15 15 0 0 0-6.2-2.6 199 199 0 0 1-41.1-18.7c-1.7-1.5-4.1-2.7-5.2-2.7-2.2 0-25.6-11.8-29.7-14.9l-2.5-1.9 3.2-3.6c1.8-2 3.2-4.1 3.2-4.6s1.1-2.1 2.5-3.6a38 38 0 0 0 8.5-15.7c0-3.3 9.4-21.5 16.5-31.8 3-4.4 5.5-8.6 5.5-9.3 0-2.8 28.8-29.3 37-34.1 1-.6 2.4-1.5 3.1-2.1 1.5-1.1 11.7-5.3 18.4-7.4 2.2-.8 6.7-1.5 10-1.7s7.4-.7 9-1.2l3.3-1q.5 0 2.3.9m-383.4 5.5c-.2.5-1.5 1-2.8 1-2 0-2.5-.6-2.7-3.3l-.3-3.4 3 2.3c1.7 1.3 3 2.8 2.8 3.4m45.1-3.8c-.4 2.2-2.2 2-2.6-.1q-.3-1.6 1.3-1.6c1.6 0 1.5.7 1.3 1.7M82 420q-.1.9-1.6 1-1.3-.1-.9-1 .6-1 1.6-1 .8 0 .9 1m-32 1.3c0 .8-.9 2.2-2 3.2-1.9 1.8-2 1.7-2-.1 0-2 1.7-4.4 3.2-4.4q.7.1.8 1.3m245 1.8q-.1 1.9-1.1 1.7-1-.4-1-1.1l.1-2.3q.1-1.3 1-.9c.6.3 1 1.5 1 2.6m-215.3 1.6q1.8 3.9.5 4.1c-1.7.5-1.5 5.2.3 5.8 3.3 1.3-.1 5.4-4.6 5.4-.5 0-.9-4.3-.9-9.5 0-7.6.3-9.5 1.5-9.5.8 0 2.2 1.7 3.2 3.7m6.3-2.2q0 1.4-1 1.5-.9-.1-1-1.5c-.1-1.4.5-1.5 1-1.5q1 .2 1 1.5m306.8 3.7c-.6 1.8-2.8 2.1-2.8.4q.1-1.5 1.6-1.6 1.4 0 1.2 1.2m-341 1c.7.7 2 1.3 3 1.3 2.5 0 2.1 2.6-.6 3.6-2 .7-2.5.5-2.9-1.1-.3-1.1-1.2-2-1.9-2-1.5 0-1.9-1.2-.7-2.3q1.2-1.6 3.1.5m34.2.7q0 1-1 1.6-.9.4-1-.9.1-1.5 1-1.6 1 0 1 .9m222.1 3.2c1.9 1 1.8 1.2-2.3 3.8q-7.7 4.9-6.3 7.1c.8 1.3 4.2 1.3 5 0 .9-1.4 8.6-.3 10.4 1.5 2.2 2.1.7 2.9-3 1.6-6.6-2.3-11.2-.6-12.1 4.4-.3 1.7.4 2.1 5.1 2.5 6 .5 8.5 3 3.1 3-3.8 0-11 3.5-11 5.5 0 1 1.6 1.5 5.8 1.7 5.7.3 5.7.3 3.2 1.9a9 9 0 0 1-6.2 1.2c-3.4-.5-3.7-.8-4.3-4.4-.4-2.1-1-3.9-1.5-3.9s-1.5-.3-2.3-.6q-1.6-.4-2.2 1.5c-1 3.3-3.2 2.4-4.2-1.7-.7-3-1.3-3.7-3.3-3.7-3.6 0-3.6-2.8 0-4.3 1.6-.8 3.9-2.8 5.1-4.5a56 56 0 0 1 13.4-12.8q4.2-1.7 7.6.2m-18.1 2.4c-2.3 2.5-4 3.2-4 1.7 0-.7 4.9-4.1 5.9-4.2.3 0-.6 1.1-1.9 2.5m-240 1q0 1.4-1 1.5-.9-.1-1-1.5c-.1-1.4.5-1.5 1-1.5q1 .1 1 1.5m266.8-.3c1.5 1.5 1.6 4.1 0 3.6-1.3-.5-3.1-4.8-2-4.8q.9 0 2 1.2m-290.6 3.6q-.4 5.2 2.8 1.7c1.9-2.2 3.2-1.8 1.9.6-1.4 2.7.4 5 2.3 3.1 1.2-1.2 4.8-1.7 4.8-.7 0 1.2-5.6 5.4-8 6a14 14 0 0 0-4.7 2.7c-1.9 1.8-2.5 1.9-3.8.8-3.1-2.5-3.5-4.6-2.1-8.8 3.1-8.6 7.5-12.1 6.8-5.4m19.5 3.4q-.4 1.8-.4-1.7-.1-3.5.4-2.3c.2 1 .2 2.8 0 4m10.9-3.6-.6 2q-.2.3-1.5.4c-1.3 0-1.4-.4-.5-2 1.3-2.4 3.5-2.7 2.6-.4M84 443c0 .8-6 3-8.2 3-1.3 0-.9-2.8.5-3.3 2.2-.9 7.7-.7 7.7.3m121.6 2.5c-2.2 1.7-1.5 6.1 1.2 6.9.9.3 2.2 1.4 2.9 2.5 1.1 1.7.8 2.3-2.3 4.6-5.9 4.5-11.4 10.8-11.4 13 0 4.3 4.6 5.9 8.6 3 1.9-1.3 2.2-1.2 3.2 1 2.2 4.9 10.2 2.1 10.2-3.5 0-4.1 2-5.9 7.5-6.6a23 23 0 0 0 7.3-2.1c3.9-2.4 3.8-2.9.7 20.2l-.4 4.2c-.1 1.8-1.4 2.6-7.8 4.7-4.3 1.3-9.8 3.3-12.3 4.4-7.2 3.1-14.4 3.7-19.3 1.7-6.6-2.7-7.1-3-9.1-6.4-1.8-3.1-1.8-3.1.8-6.6 1.4-1.8 2.6-4.5 2.6-5.9s2-8.5 4.4-15.8c4.2-12.4 4.8-13.6 9.2-17.5 2.6-2.3 5-4 5.3-3.7q.4.6-1.3 1.9M47 447c1.9 0 2 5.2.1 7.8-1.9 2.8-1.9 7.3.1 9.8.5.7.4 2.2-.3 3.7-.9 2-.8 2.9.5 4.9 1.5 2.3 1.5 2.7-.3 5q-1.8 2.3-1.1 3.8.7 1.4-.6 3.6c-1.7 2.6-.5 4 2.3 2.5 4.7-2.4 8.1-3.5 11.1-3.7 6.1-.2 3.6 1.7-6 4.6-3.9 1.2-5 3.3-2.3 4.4.8.3 3.3-.1 5.6-.9 5.8-2.1 7.1-1.9 6.7.7q-.2 2.4-2.8 2.4c-4.2.2-10 2.5-10 3.9 0 2.3 1.4 2.5 6.5 1 2.7-.8 5.1-1.3 5.4-1 1.1 1.1-1.6 4-4 4.3-5.1.6-6.9 1.3-6.9 2.8 0 1.2.9 1.4 4.5 1.1 2.5-.3 4.5-.1 4.5.4s-1.2.9-2.7.9c-4 0-5.1 1.1-7.2 6.6a17 17 0 0 1-9.1 9.6c-.5.2-1 1.6-1.2 3.3-.2 2.4.1 3 1.5 2.9q1.8-.3 1.7 2.7c0 5.1-3.9 2.6-7-4.4a19 19 0 0 0-3-5.2c-2.4-1.5-.8-6.4 8.1-26 2-4.6 2.3-6.7 2.6-24.5.3-19.1 1.2-32.2 2-28.8q.5 1.6 1.3 1.8m9.8.8c.2 2.3-.2 3.3-1.8 4.2l-2.2 1.2 2.2 2.3 2.1 2.3-2.2 2.1c-3.3 3.1-5.4 2.8-3.3-.4 1.3-2 1.4-2.8.4-4q-1-1.5-.5-3.2c.5-1 .7-2.6.6-3.6-.3-2.2 1.8-4.9 3.3-4.4.6.2 1.2 1.8 1.4 3.5m14.7-1.9q-.6 1-1.7 1.1-1 0 .2-1.5c1.4-1.7 2.6-1.3 1.5.4M88 445q0 .9-1 1a1 1 0 0 1-1-1q.1-1 1-1t1 1m-48.2 14.5a47 47 0 0 1-.9 11.5c-.5 0-1.6-1.4-2.5-3.1-1.2-2.5-1.3-3.7-.5-5.8.7-1.4 1.3-5.3 1.5-8.6.5-7.3.4-6.7 1.6-6 .6.3.9 5.4.8 12M83 449.1c0 1.2-6.9 4.4-11.7 5.4-2.6.5-3.3.3-3.3-.9 0-1.9 1.1-2.6 6.9-4.1 5.8-1.7 8.1-1.8 8.1-.4m29.8 1.1c-.2.6-1 1.4-1.6 1.6q-1.1.3-.6-1.2c.7-1.8 2.8-2.2 2.2-.4m-97.3.9q.5 1-1.4 1.6c-2.5.6-2.6 1.1-.4 3.5.9 1 3 1.8 4.9 1.8 4 0 11.4 4.7 11.4 7.2 0 1-1 2.8-2.1 3.9l-2.2 2.2.6-2.4q.6-2.3-1.7-5.3l-2.3-2.8-2.2 2.3c-2 2.2-2.1 2.2-3.5.4s-1.4-1.8-2.5.3c-1.5 2.8-8.4 6.2-11.1 5.5-1.9-.5-2.1-1.2-1.8-8.6l.3-8.1 5-1.2c6.6-1.5 8.3-1.6 9-.3m257.5 1.2c0 1.7-.9 2.7-3.5 3.7-2.8 1.1-3.5 1.9-3.5 4 0 1.4.4 3 .9 3.5s1.2 4.1 1.5 8l1.2 14.2c.8 8.8.8 8.7-.4 9.1q-.8 0-.5-2.3.6-2.5-.7-2.5c-2.2 0-7 4.1-7 5.9 0 2-2.7 4.8-3.7 3.8-.3-.4-.9-3.8-1.2-7.6-.4-3.9-1-7.3-1.4-7.7-1.3-1.4-5.7 1.5-5.8 3.8-.2 3-.2 2.4.6 9.5.6 5.5.5 6.3-1 6.3-1.4 0-1.6-1.1-1.2-9.9.4-7.6.2-10.4-.9-11.8-1.3-1.7-1.5-1.7-3.7.9l-2.3 2.8.7-5.8c2.1-17.7 2.6-18.7 13.4-24.5 8.1-4.3 11.4-5.5 15.3-5.6 2.7-.1 3.2.3 3.2 2.2m-237.5-.4c.3.5-.5 1.7-1.7 2.5-2.1 1.5-2.1 1.6-.3 3.6q2.2 2.2.3 2c-1.9 0-6.7-5.1-5.2-5.7.6-.2 2-1 3-1.8 2.3-1.7 3.1-1.8 3.9-.6M82 456c0 1.4-2.9 2.6-7.8 3.4-5.7.9-4.7-.9 1.6-2.8 5.8-1.8 6.2-1.8 6.2-.6m10.6 4.6c-.9 3.4-2.8 3.1-2-.4l1.1-4.2c.9-2.3 1.6 1.6.9 4.6M350 457c0 1-.7 1.2-12 2.9-4.1.7-9 2.1-10.9 3.2-3.9 2.3-5.2 1.8-2.6-1.1 2.4-2.6 7-4 15-4.4 3.6-.2 6.9-.7 7.2-1 1-1 3.3-.7 3.3.4m79 .5q-1.2 1.4-1.7 1.1c-.7-.7.7-2.6 1.9-2.6q1 0-.2 1.5m-152.8 4.7q-1.1 1-1.2.2 0-1 .7-1.7t1.2-.2q.3.6-.7 1.7m-64 1q-1.1 1-1.2.2c0-1.4 1.2-2.6 1.9-1.9q.3.6-.7 1.7M69 463q0 .9-1 1a1 1 0 0 1-1-1q.1-1 1-1t1 1m39.5 1.1q-.2 1.2-1.7 1.7c-1.8.3-2.5-1.8-1.1-3.2 1-1 2.8-.1 2.8 1.5m-29-.1c-.7 1.1-7.7 3.2-8.3 2.5q-.4-.5.8-2c1.3-1.6 8.5-2.2 7.5-.5M61 468.7c0 1-.5 2.5-1 3.3q-1 1.8-1-1.8c0-1.7.5-3.2 1-3.2q1 .2 1 1.7m-5-.3q0 .5-1 1.1-.9.4-1-.4.1-1 1-1.1 1 0 1 .4m23.4 1.3c-.4 1-.7 3.1-.7 4.7s-.9 3.8-1.9 4.8c-1.2 1.2-1.8 2.8-1.5 3.9.3 1 0 2.2-.6 2.6-1.4.8-.1-14.5 1.4-16.3 1.7-2.1 4.3-1.8 3.3.3m379.6.3c-2 1.3-11 1.3-11 0 0-.6 2.7-1 6.3-1q6.5 0 4.7 1m-439 2c2.5 2.5 4.4 7 3 7q-1-.1-1-1.4c0-2.8-2.7-3.8-5.8-2.2-4.7 2.4-4.9 6.7-.4 11.8q3.4 3.9 4.6-1.2c.9-4.6 3.2-3.7 4.5 1.7 1.2 5 1 20.8-.3 22.1-.4.4-3.8 1.2-7.4 1.8-5.9 1-7 .9-9.2-.6-1.4-1-3.4-1.9-4.5-2.2-1.9-.3-2-1.1-2-10.8.1-5.8.4-11.4.9-12.5.8-1.9.8-1.9 1.7.2q1.4 4.5 4.4-.3c2.1-3.3.6-5.4-4.1-5.4q-3.5 0-3.4-1.5c0-2.1 2.7-3 4.5-1.5 1.9 1.5 4.7-.4 3.8-2.6q-.5-1.4 1.5-1.4c1.1 0 2.5-.7 3.2-1.5q2.5-3.1 6 .5m284-.9q-.1.8-1.4.9c-2.1 0-3 1.9-1.7 3.4q1.4 1.4-.4 2-1.3.6-1.5 2c0 1.9-2.1 6.6-3 6.6-.3 0-.6-3-.6-6.6.1-5.1.5-6.9 1.9-7.9 2-1.4 6.7-1.7 6.7-.4m167 .5q-.1.4-1.5.4c-1.4 0-1.5-.4-1.5-1q.1-.8 1.5-.4 1.4.6 1.5 1m-155.6.9q-.7 1.4-1.6 1.5-.9 0 .2-1.5 1.2-1.4 1.6-1.5.3.1-.2 1.5m101.6 1q0 1.4-1 1.5-.9-.1-1-1.5c-.1-1.4.5-1.5 1-1.5q1 .1 1 1.5m62.6 1.2c6.1 3 7.5 5.1 1.6 2.5-4.3-1.9-9.1-5.1-7.9-5.1.5-.1 3.3 1.1 6.3 2.6m-9.4.6a36 36 0 0 1 15.3 8.9c.8 1.3 1.5 3.9 1.5 5.9 0 4.9 1.8 9.7 4.1 11 1 .5 1.9 1.5 1.9 2.2 0 1.9-6 9.8-7.4 9.6-2.7-.3-3.6.2-3.6 2.2 0 1.1-.9 3.4-2.1 5a99 99 0 0 0-8.8 24.9c-.8 5.1-.2 5-11.1 2-10.4-2.8-24.2-3.1-29.3-.6-2.1 1-4.1 1.6-4.4 1.2a979 979 0 0 1-.4-61.9l.4-6.8 4-2c7-3.6 30.8-4.6 39.9-1.6M86 476q0 2-2 2-3.5 0-.8-2.8t2.8.8m-34 0q-.1.9-1.1 1-.8-.1-.4-1t1.1-1q.4 0 .4 1m237.5 6.7c1.3 4.3 1.5 7.6 1 14l-.7 8.4-2.5-2.3c-1.4-1.3-2.2-3-1.9-4.1.7-3-1.3-8.5-4-10.6-2.1-1.6-2.5-2.7-2.2-5.8.3-3.5.5-3.8 3.6-3.9 1.8-.1 3.5-.4 3.9-.8 1-1 1.1-.9 2.8 5.1M20 481.4a3 3 0 0 1-.9 2.1c-1.2.7-2.4-1.2-1.6-2.5.9-1.5 2.5-1.2 2.5.4m59.3 5.2q-.6 1.5-1.5.6c-1.2-1.2-.1-3.5 1.2-2.7.5.3.6 1.3.3 2.1m241.2.2c-.8.8-2.5-1-1.9-2q.6-.9 1.5.3.6 1.2.4 1.7m-280.6-.6c0 .7-.4 2.2-.8 3.3-.8 1.9-.8 1.9-1.5-.2-.8-2.4-.1-4.3 1.5-4.3q.9.2.8 1.2m46.3 4q-1 .8-3.8-.3l-2.9-1.1 3.5-1.7c3.4-1.6 3.5-1.6 3.8.2q.3 1.8-.6 2.9m227.9 3.8c.7 1.9 1.2 5.5 1.1 7.9q-.1 4.3 1.7 7c2 2.9 5.5 13.1 4.7 13.8q-1.6 1.5-4.7-5.8c-2-4.7-2.4-5-5-4.4-2.3.5-2.9.3-2.9-1q0-1.4.9-1.1c1.2.8 3.4-2.1 2.6-3.4q-.8-1-2-.8-1.3.2-1.4-.7.1-1 2.2-1c3.2 0 3.7-6.3.7-9-1.5-1.3-2-3-1.9-6.4v-4.6l1.3 3zm-238.7 1.7-.8 15.9c-.2 4.4-.8 9-1.4 10.1s-.8 2.4-.4 2.8.8 6.6.8 13.8c.2 22.2 0 20.8 2.9 20.1 2.1-.5 2.5-.3 2.5 1.6s-.4 2.2-3.7 1.7q-7.6-1.3-5.6-5.9c.6-1.4.8-6.3.4-12.3-.3-5.5-.3-12.3.1-15l1.7-19c.6-7.7 1.4-15.7 1.7-17.8 1.1-6.6 2.3-4 1.8 4m202.3-.4c-.3.8-2 1.8-3.8 2.2q-3 .8-3.6 2.6-.5 2.2-2.7 1.3c-2.7-.8-2.9-1.1-2.1-2.3.3-.6 1.6-1.1 2.9-1.1s3.5-1.4 5.1-3c2.9-3 5.4-2.8 4.2.3m-36.6 6.5c-.8 3.5-.9 3.3-.9-2.3-.1-4.6.1-5.5.8-3.7.6 1.3.6 3.8.1 6m89.9-4.3c0 1.3-.4 2.7-1 3q-1 .4-1-3c0-3.4.4-3.4 1-3s1 1.7 1 3m-34.8 5.9c-.1 3.7.2 7.4.7 8.3q.9 1.7-.6 4c-1.2 1.8-1.3 2.6-.3 3.7.8 1.1.8 2 .1 3.5-1.3 2.4-1.4 3.1-.2 3.1q.9-.2 1.5-2.3c.6-2 .7-2.1 1.7-.4.7 1.3.6 3.1-.4 6.7q-1.4 4.9-.5 5.6c.5.3.7 1.7.3 3.1s-.1 3 .4 3.7q.9 1.1 0 2.6c-.8 1.3-1.2 1.2-2.4-.5-1.4-1.8-1.5-1.7-1.3 1.6.3 3 .6 3.5 2.3 3.1q2.4-.8.7 1c-.7.9-1 2.3-.6 3.2.7 1.9 2.1 2.1 2.7.3 1.2-3.3 2.1 2.9 1.8 12.2-.2 6.3-1.2 4.4-1.2-2.3q-.1-9.8-2.9-3.6c-.7 1.7-1.8 3-2.5 3s-1.5 1-1.9 2.2c-.9 3.4-.7 7.8.3 7.8 1.4 0 1.9-2.3.9-4.3q-.8-1.7.2-1.7.9-.2 1-1.5c.1-1.3.7-1.5 1.5-1.5 1.2 0 1.4.8.9 3.9s-.2 4.1 1.2 5.2q2 1.4 1.8 5.4c-.2 6.2-.3 6.3-2.2 5.8q-1.8-.5-3 2.2c-1.1 2.4-1 2.5.7 1.5 3.1-1.6 4.1-1.2 4.1 1.5 0 2-.5 2.5-2.5 2.5s-2.5.5-2.5 2.7q0 3-1.2 1.5c-.6-.6-1.1-2.6-1-4.3 0-1.8-.2-3.8-.6-4.3s-.9 2.7-1.2 7.4-.2 8.7.2 9 .5 2.9.2 5.8c-.4 4.2-.2 5.2 1.1 5.2q1.4 0 1.5 1-.1.9-1.5 1c-1.2 0-1.5 1.4-1.5 6.2 0 3.5-.3 7.3-.6 8.6q-.9 2.5 1 1.6 1.5-.4 1.6.5c.1.9-.7 1.1-1.5 1.1s-1.5.3-1.5.7c0 .5-.3 1.9-.7 3.2-.5 2.1-.3 2.2 1.7 1.6q2.3-.8 1.8.6-.6 1.3-1.9 1.4-1.4 0-1.6 3.5-.5 5 .8.7c.6-1.5 1.8-2.7 2.6-2.7q1.5 0 .9 1.6c-.3.9-.6 2.2-.6 3q-.2 1.3-1.9 1.4c-2.3 0-3.3 2.3-2.2 5.3.8 2.4-.6 11-1.8 10.3a67 67 0 0 1-.5-13.3c.1-7-.2-13.7-.6-14.8s-.3-8.5.1-16.5l1.9-39c1.2-26.9 1.2-28.2 3.5-51.7a241 241 0 0 0 1.4-19.5c-.6-7.8.1-15 1.4-14.5q1.2.2.9 7.1M85.1 499q.8.1.9 1.4 0 1.4-2.5.8-2.3-.5-2.5-1.9 0-1.5 1.6-.9t2.5.6m-52.2 10.2c-3.7 9.6-4.4 10.7-6 9.1-1.8-1.8-.1-7.9 3-11 1.5-1.6 3.3-3.9 4-5.1 2.7-5.1 2.1-.9-1 7m233.4-4.3a20 20 0 0 1 8.3 7c2.1 2.8 4.4 5.1 5 5.1 2.4 0 2.4-3.3.1-6.4-3.9-5.1-.5-8.2 3.4-3.2a10 10 0 0 0 3.9 3.1q2 .6 2 3.1c0 2.4-1.4 3.2-2.5 1.4s-3.2-1-4.4 1.7c-1.8 4 .2 8.3 4 8.3 3.3 0 3.2-.4 1.8 9.5-1 6.2-1.4 7.3-2.5 6.4-.8-.6-1.4-2-1.4-3s-.4-2.1-1-2.4-1-1.6-1-2.9c0-6.3-14.2-25.8-19.4-26.7-2-.4-3.5-2.9-1.8-2.9.6 0 3.1.9 5.5 1.9m-169.4 1.7q3.3 1.7 2.2 2.7c-1.1 1.1-8.1-1.7-8.1-3.3s2.3-1.2 5.9.6m114.1.9c-1 1.2-.9 2 .6 4.2 3 4.5 7.4 19 8.9 29.5 2.3 15 6.7 29.1 10.5 33.4 1.7 2 4.1 5.7 5.2 8.3l2.9 6.3q1 1.7-.8 2.7c-1.7.9-1.7 1 0 2.9 1 1.1 1.5 2.6 1.1 3.6-.8 2.1-5.5 4.6-8.7 4.6-3 0-7.7-4.2-7.7-6.9 0-2.9-1.1-5.1-2.4-5.1-2.7 0-8.4 8.8-10 15.3-1.3 5.4-3.1 2.4-3.1-5.1q.1-12.6-4.4-6.6a11 11 0 0 0-2.1 6.8c0 2.2-1.1 6.4-2.4 9.3-2 4.1-3 5.2-5.5 5.8-4.1.9-6.5-.9-5-3.7 2.3-4.2 6-15.6 8-24.3l4.1-17.5a256 256 0 0 0 5.8-34.5c2.3-19.3 2.5-25.6.9-27.2q-1.3-1 1.7-2.6 5.1-2.5 2.4.8m-133.9 2.8q-1.4 1.4-.5-.6.6-1.6 1.2-1.2.4.6-.7 1.8m223.9 2.8q0 .8-1 .9-.9-.1-1-1.6.1-1.3 1-.9 1 .6 1 1.6m-290.8 2.7c.3.4.8 1.8 1 3.2.4 3.5-2.4 3.7-6.7.5-3.2-2.5-4.4-5.3-2.9-6.8.7-.6 7.3 1.8 8.6 3.1m52.2 4.6c-1 4.2-2 3.8-1.6-.6q.5-3.8 1.4-3c.5.5.6 2.1.2 3.6m23.6-3.6c0 1.3-1.2 2.2-2.2 1.6s-.1-2.4 1.3-2.4q.8.1.9.8m228 .2c0 1.2-4.9 4.5-5.6 3.7-.3-.3-.1-1.5.6-2.6 1.1-2.1 5-3 5-1.1m-292.7 3.5q-.6 1.3-1.4 1.5c-1 0-1.2-2.4-.3-3.3 1.1-1.1 2.4.3 1.7 1.8m278.3.2c-1 1-1.9-.5-1-1.8q.8-1.7 1.2 0 .3 1.2-.2 1.8m4.4.3q0 .9-1 1a1 1 0 0 1-1-1q.1-1 1-1t1 1m11 .8c0 1-5 3.5-5.7 2.8-.3-.2.8-1.1 2.4-2 3.4-1.8 3.3-1.8 3.3-.8M6.5 525c1.6 1.6 2.3 3 1.7 3-2 0-6.2-3.1-6.2-4.6q0-3.3 4.5 1.6m49.5-2q0 .9-1 1a1 1 0 0 1-1-1q.1-1 1-1t1 1m260.6 4.7c-1.5 1.3-3.2 2-3.8 1.7q-1-.8 1.7-3c3.8-3 5.7-1.8 2.1 1.3m-296.8-.5c-.3.7-1.8 1.4-3.4 1.6-2.8.2-2.8.2-1-1.3 2.4-1.8 4.9-2 4.4-.3m28.7.7q.4.9-.5 1.6-.9.4-1-.9 0-2.7 1.5-.7m8.5 2.2q0 1.9-2 1.9c-2.2 0-2.9-3.5-.7-4.3q2.7-.9 2.7 2.4m20.2-.9q-1.1 1-1.2.2c0-1.4 1.2-2.6 1.9-1.9q.3.6-.7 1.7m9.2-.3q.4.8 0 1.4c-.8.8-3.4-.3-3.4-1.4s2.7-1.2 3.4 0m181.6 8.6q0 .5-.9.5c-.9 0-1.4-1.4-2-3.1q-2.5-6.8.9-1.1c1.1 1.8 2 3.5 2 3.7m-181.7-3q-1 2.4-2.6.8c-.9-.8 1.3-3.4 2.4-2.8q.7.6.2 2m-28.7 2.4c-.8 1.3-3.6 1.5-3.6.3q0-.8 1.2-2c1.4-1.4 3.4 0 2.4 1.7m255.6-.6 11.5 6.5c4 2.3 7.5 4.2 7.7 4.2s9.6 4.4 20.8 9.9a467 467 0 0 0 40.5 17.6c3.5.7 7.3 4.6 7.3 7.5 0 .9-1.1 2.7-2.5 4l-2.5 2.3v-3.6c0-3-.5-3.9-3-5.2q-8.6-4.6-5.6 4.1a8 8 0 0 0 4.4 5.4c2.6 1.2 3.2 2.2 3.3 5 .1 1.9.1 4.2-.1 5-.1.8-.4 5.2-.5 9.7a32 32 0 0 1-2 11.2c-.8 1.7-1.7 3.1-1.9 3.1a38 38 0 0 0-14.5-9.3c-8.4-3-23.5-11.8-32-18.5-3.2-2.6-11.2-8.5-17.6-13.2s-12.1-9-12.6-9.5l-4.4-5.7-3.4-4.7.5-11.8c.5-11.7 1-16.3 1.9-16.3zm-275.1 4c-.1 1.2-1.5.9-1.9-.4q-.3-1 .8-.8 1 .5 1.1 1.2M82 540q-.1.9-1.6 1-1.3-.1-.9-1 .6-1 1.6-1 .8 0 .9 1m4 .6c0 1.7-2.2 1.4-2.8-.4q-.2-1.1 1.2-1.2 1.5.1 1.6 1.6m-28.2 3.2q.5 2.3-1.7 2.2c-2.6 0-3.6-1.7-2-3.6s3.3-1.3 3.7 1.4M263.5 554c-.3 2-.2 5.6.4 8 1 4.4 1.6 5.2 10.7 12.8a18 18 0 0 0 6.6 2.9q4.2.6 3.4 2a14 14 0 0 0-.6 4.7c0 3-.2 3.2-3 2.8q-2.9-.4-3 .7c0 1.5-4.3 1.4-5.8-.1-1.6-1.6-1.5-5 .3-7.4s1.9-5.4.1-5.4c-.8 0-2.6 1.4-4 3.1-3.6 4.3-3.6 10 0 12.8a10 10 0 0 0 4 2.1c2.1 0 2.4 1.4 1.2 5.3q-2 7 5.5 9.8l3.4 1.2-.3 12.8c-.2 7.1-.6 13.4-.9 13.9-1 1.6-8.8-8.9-8.2-11 .7-2.6-4.2-20-8.3-29.6-4.1-9.4-5.8-28.4-4.3-46l.7-7.9 1.3 4.5a21 21 0 0 1 .8 8m228.3-9.2q.2 2-.7 2.2c-.9.2-1.1-.4-1.1-.9s-.3-1.7-.7-2.7q-.6-1.7.8-1.2c.8.2 1.5 1.4 1.7 2.6M50 545q.1 1.8 1 2t1 1.4c0 .8.6 1.7 1.3 1.9q.8.5-1.8.6c-1.6 0-3.4-.3-4-.7-1.5-1.1-1.8-4.2-.4-5.8 1.6-2 2.9-1.7 2.9.6m223-.5c-1.2 1.4-.5 10.3.7 9.1.3-.3 1.5.1 2.5.9q4 2.9 5.8-3.1c1.5-4.3 3.2-4.4 2.6-.2l-1.1 8.7c-.9 8.3-1.7 9.2-7.3 8.7-6.3-.7-8.2-3.1-8.2-10.2 0-6.4 3.4-15.4 5.7-15.4q.4.2-.7 1.5m-210 5.2q0 2.2 1.5 2.3 1.3.2 1.5 2c.2 1.8-.6 2-1.3 2q-3.7 0-3.7-7 0-4.8 1-3c.5.8 1 2.5 1 3.7m23.5-3.7q.6 1.1.1 2.5c-.4 1.2-1 1.2-3.5-.3-2.6-1.4-2.8-1.8-1.3-2.4q3.7-1.5 4.7.2m-44.7 2.2c-.5 1.5-4.8 2.4-4.8 1s1.2-2.2 3.3-2.2q1.7 0 1.5 1.2m260.2.8q0 .9-1 1a1 1 0 0 1-1-1q.1-1 1-1t1 1m-244 1.5q0 1.3-1 1.5-.9-.2-1-1.5c-.1-1.3.5-1.5 1-1.5q1 .2 1 1.5m-29.5.5c-.3.5-1.1 1-1.6 1q-.9-.1-.4-1a2 2 0 0 1 1.6-1q.9 0 .4 1M11 554q0 .9-.4 1-.6-.1-1.1-1-.4-1 .4-1 1 0 1.1 1m10 0q-.1.9-1.1 1-.8-.1-.4-1 .6-1 1.1-1 .4 0 .4 1m-6.5 4c-.3.5-1.6 1.5-2.8 2.1-2.2 1.2-2.2 1.2-.3-1 1.9-2.1 4.3-3 3.1-1.1m440.2 3.4c5.9 1.6 12.3 5.2 12.4 6.9l.4 4.2c.2 1.6 0 3.4-.4 4-.5.5-1.4 4.1-2.1 7.8-1.1 6-1.6 7-3.9 7.8-4.5 1.6-5.6 2.5-6.5 5.9-.7 2.4-1.9 3.6-4.5 4.7l-5.9 2.5c-2 1-3.2.7-8.3-2.1-4.5-2.5-6.4-3-7.2-2.2-1.7 1.7-2.5 1.3-4.2-1.9q-1.7-3-.6-4.8a33 33 0 0 0 1.7-14.6c-.4-1.9-2-5.1-3.6-7.1-2.3-2.8-2.7-4.1-1.9-5.1.6-.7 1.7-1 2.4-.7.8.2 3.9-.7 7-2.2a32 32 0 0 1 25.2-3.1M4.9 567.1c-1.9 2.4-3.5 3.7-3.7 3-.4-1.3 4.5-7.1 6.1-7.1.5 0-.6 1.9-2.4 4.1M415 565q0 .9-1 1a1 1 0 0 1-1-1q.1-1 1-1t1 1m-10.4 4.8c-1 1-2.9-1.5-2.1-2.8q.8-1.4 1.7.4.9 1.6.4 2.4m-95 4.3c1 1.2 4.6 4 7.9 6.2s11.2 7.9 17.5 12.6 13.8 9.9 16.5 11.5a61 61 0 0 1 7.8 5.3q4.4 3.5 17.7 8.9c2.5 1 6.3 3.7 8.6 6.1 4.1 4.3 6.8 5.2 10.3 3.3 2.7-1.4 4.8-12 3.1-16-1.5-3.6.2-19 2.1-19 .5 0 2.4 1.7 4.3 3.7 3.3 3.7 3.5 3.7 5.4 2s2-1.7 4 1.5a42 42 0 0 0 5.7 6.8c3.5 3.4 5 6.1 9.1 16 1.1 2.4 2.9 5.5 4.2 6.9 4.3 4.7 1.7 7.8-6.4 7.3-4.2-.3-5.8.1-8.3 1.9-2.6 1.9-3.8 2.1-8.8 1.6-9.2-1-20.3-3.4-26.8-5.7-3.3-1.2-8.8-3-12.2-4a130 130 0 0 1-33.4-17.1c-3-2-11.1-9.2-18-16l-12.6-12.4-.5-6.8c-.3-3.7-.2-6.7.2-6.7s1.5 1 2.6 2.1m102.9.8c.7 1.2-1.2 2.4-2.5 1.6-1.1-.7-.4-2.5 1-2.5q.8 0 1.5.9m5.5 7.8c0 1.5-1.6 2.8-6.7 6-5.7 3.5-7.8 2.8-4.6-1.5 2.4-3.2 11.3-6.7 11.3-4.5m-134.5 15.9q-1 8.3-4.5 3.9c-1.4-1.7 0-6.7 2.7-9.8 2.3-2.4 2.7-1 1.8 5.9m126.5-4.5q0 1.8-1 1.4-.8-.6-.3-2 1.2-3.2 1.3.6m-70 27.1a88 88 0 0 0 27.1 13.1 206 206 0 0 1 16.6 6c12.7 5.4 31.2 7.6 37.4 4.4a15 15 0 0 1 5.6-1.5c1.8 0 4.1-.6 5.2-1.1 1.8-1 2.2-.7 3.6 1.9 1.7 3.4 2.7 3.7 4.5 1.5 1.2-1.4 1.6-1.3 3.7.7 7.3 6.8 6.8 17.8-.7 17.8-3.2 0-7-3.9-7-7.2 0-4.5-1.8-5.8-7.8-5.8-7.6 0-8.5.8-8.9 7.2-.2 2.9-.5 5.9-.8 6.5-1 2.8-12.9.4-14.7-3a9 9 0 0 1-.4-4.8c.4-2.2 0-3.3-2.5-5.3-3.3-2.8-5.9-3.2-9-1.6-2.6 1.4-4.9 6.2-4.2 8.8 1.2 4.6-8.7 5.3-16.8 1.2-3-1.6-4.1-2.9-4.9-5.9a14 14 0 0 1-.4-5.5c.9-2.2-4.2-6.6-7.8-6.6q-2.9.1-5.3 2.6c-2.2 2.4-2.8 2.5-7.6 1.9-3.9-.5-6.1-1.6-9-4.2-4.2-3.8-4.5-4.9-2.7-10 1.1-3 1-3.6-.9-5.5q-3.3-3.3-10.5-1.5-2.7.6-3.8 4.1c-.6 1.9-1.8 3.7-2.6 4-1.8.7-5.9-.8-7-2.6-.4-.7-.9-9.5-1-19.5l-.1-18.2 12.1 11.3c6.6 6.2 15.9 13.7 20.6 16.8m128-21.6c0 1.5-.8 3.2-1.7 3.9q-1.8 1.2-1.6 5.5t-1 3.7c-.7-.2-1.2-1.5-1.2-2.8q.1-5-4.1-4.9c-1.3 0-2.4-.5-2.4-1s1.6-1 3.6-1c3.5 0 3.6-.1 3.1-3-.6-2.8-.4-3 2.3-3s3 .4 3 2.6m-167.4 1q.6 2.6-.7 3.5c-2.3 1.4-2.9 1-2.9-1.9 0-4.8 2.5-5.9 3.6-1.6m-52.9 5.2c2.6 4.5 6.1 8.8 18.2 22.6 8.4 9.6 11.2 14.3 13.1 22a89 89 0 0 1 2 30.8q-1.2 3.3-.3 9.8c.7 5.4 1.2 6.7 3.1 7.5 2.5 1.1 2.9 4.6.7 6.5-.8.7-1.5 1.9-1.5 2.7 0 1.2.8 1.4 3.4.9l3.4-.7 1.1 5.1q2.2 10.2-.4 13.4c-.8 1.1-1.5 3-1.5 4.3 0 3.5-2.9 4.5-16 5.6-2.3.2-2.5-.2-3.2-5.7-.9-6.7-2.1-8.6-5.5-8.6s-7.9 4.6-6.3 6.5q1.2 1.4.2 3.2t0 7.2c1.3 6.2.4 7.4-4.6 5.8l-4.3-1.3q-1.2-.5-1.3-2.3-.1-2 2.8-2.3c2.1-.2 2.7-.8 2.7-2.8q.2-2.7-2.5-2.8c-4.7-.7-4.5-2.2.2-2.2 8 0 7.4-4.2-.7-5.5-2.5-.3-4.5-1.1-4.5-1.6 0-.9.7-1.2 4.9-2.5 1.1-.4.9-1-.8-2.8-1.9-2.1-2-2.4-.6-3 .9-.3 2.9-.6 4.5-.6s4.1-.5 5.6-1q2.6-1 4 0 1.3 1.1 4.6.2c1.8-.5 4.9-.7 6.8-.5 2.7.4 4 0 5.4-1.6q1.9-2 1-3.1a98 98 0 0 0-25.9-.5l-6 .7-1.8-4.8c-3.1-8.7-3.2-13.6-.6-20.1a46 46 0 0 1 3.3-7.1q1.7-2.7-5.5-5.4a31 31 0 0 1-9.6-8.1 201 201 0 0 0-38.7-33c-8.6-5.6-10.3-7.7-6.2-7.7q5.6.1 10.2-4.9c2.3-2.5 3.7-3.1 7-3.1 4.8 0 6.7-1.7 8.5-7.8.7-2.3 1.4-4.2 1.7-4.2.2 0 1.7 1.1 3.4 2.5 3 2.6 4.1 2.9 9.2 2.5 4.6-.3 7.5-1.7 10.3-5 1.3-1.7 2.9-2.8 3.4-2.5a31 31 0 0 1 3.6 5.3m175.1-3.9q.4 1.3-.9.9-1.2-.5-1.7-1.7-.4-1.3.9-.9 1.2.5 1.7 1.7M300 610.5q-.1 1.3-1.5 1.5c-1.6 0-2-1.2-.8-2.3 1.1-1.2 2.3-.8 2.3.8m143.1.5c.4.8 1.1 3.3 1.6 5.4.8 3.8 1.8 4.8 5.6 6 1.4.4 1.7 1.7 1.7 6.6v6.1l-2.9-2a12 12 0 0 0-3.9-2.1c-1.9 0-4.2-3.1-4.2-5.5 0-1.3-1.1-4.5-2.5-7.1q-3.7-7-1.8-8.8c1.2-1.2 5.5-.2 6.4 1.4m7.7 3.3q.4 7.2-2.7 3.3c-1.5-1.8-.4-8.9 1.3-8.3.6.2 1.2 2.5 1.4 5m7.5-3.6c-.7.2-1.9.2-2.5 0q-1-.5 1.2-.5c2.2 0 1.9.2 1.3.5m-23 7.9q.6.8.7 2.3 0 1.8-2.6-1.3c-1.4-1.6-2.3-3.5-2-4.3s.6-2.2.7-3.1q.2-1.2 1.3 2c.6 2 1.4 4 1.9 4.4m29.7-.6q0 1.8-.9 2c-1.4 0-2.3-1.8-1.6-3 1-1.7 2.5-1.1 2.5 1m6.1 5.8c.7 3.5.6 3.6-2.2 2.2-1.9-1.1-2.6-4-1.2-5.4 1.3-1.3 2.8.1 3.4 3.2M300 622.3q-.1 3-2.6 2-1.6-.5-.3-1.9c1.5-1.8 2.9-1.8 2.9-.1m166 4.4q-.1 1.2-1.5 1.3c-1.5 0-2.1-3.1-.8-4.3.8-.8 2.3 1.2 2.3 3m-5-1.7q-.1.9-1.5 1c-1.4.1-1.5-.5-1.5-1q.1-1 1.5-1c1.4 0 1.5.4 1.5 1m-4 1q0 .9-.4 1-.5-.1-1.1-1-.4-1 .4-1 1 0 1.1 1m-158 3q0 .9-1 1a1 1 0 0 1-1-1q.1-1 1-1t1 1m158.4 4.1q-.6.8-1.5.3t-.3-1.5q.6-.8 1.5-.3t.3 1.5m8.1-.1q.4.9-.4 1-1-.1-1.1-1 0-1 .4-1t1.1 1M299 635.9q0 1-1 1.6-.9.4-1-.9.1-1.5 1-1.6 1 0 1 .9m147.4 1.2c2.3 1.8 6.2 8.7 5.4 9.5-.5.4-4.2-2.9-7-6.4-4.4-5.2-3.4-7 1.6-3.1m-151.4.3q0 .5-1 1.1-.9.4-1-.4.1-1 1-1.1 1 0 1 .4m163.3 1.8c.2.7 0 2.1-.5 3.2-1.2 2.3-2.8.4-2.1-2.5.6-2.2 1.9-2.5 2.6-.7m3.7-.4c0 1.3-1.2 2.2-2.2 1.6s-.1-2.4 1.3-2.4q.8.1.9.8m3.8.4c-.2.6-1 1.4-1.6 1.6q-1.1.3-.6-1.2c.7-1.8 2.8-2.2 2.2-.4m-167 3.9q-.4 1-1.3 1-1.2 0-1.3-1t1.3-1.1c1.5-.1 1.5.5 1.3 1.1m168.2 4q0 4.8-1 4.4c-.5-.3-1-2.6-1-5.1s.5-4.4 1-4.4 1 2.3 1 5.1M298 650q-.1.9-1.6 1-1.3-.1-.9-1 .6-1 1.6-1 .8 0 .9 1m-4 3.5c0 1.5-1.8 3-2.7 2.2-.2-.3-.2-1.5.2-2.6.7-2.3 2.5-1.9 2.5.4m4 1.5q0 .9-1 1a1 1 0 0 1-1-1q.1-1 1-1t1 1m164.5 1q.4.9-1.4 1-2-.1-2.1-1 .1-1 1.4-1c.8 0 1.8.4 2.1 1M294 660c0 2.2-1.6 3.5-2.5 2-.9-1.4.4-5.2 1.6-4.5.5.4.9 1.5.9 2.5m4.8.7c-.4 2.2-2.2 2-2.6-.1q-.2-1.5 1.3-1.6c1.5-.1 1.5.7 1.3 1.7m164.2 1.7q0 .5-1 1.1-.9.4-1-.4.1-1 1-1.1 1 0 1 .4m4.4 6q2.1 9.5-4.7 3.5-6.6-5.4-.9-4.7c2.3.3 2.7 0 2.4-2-.4-4.4 2.3-1.7 3.2 3.2M294 665.5q0 1.3-1 1.5t-1 2q.1 1.9 1.6 2c1.4 0 1.4.1 0 1.6-.9.8-1.6 2-1.6 2.5 0 1.6-1.8 1-2.3-.9q-.4-1.2-.6 1.7-.2 6.6-1.5-2c-.6-4.1-.5-4.6 1.9-5.9 1.4-.7 2.5-1.9 2.5-2.7q.1-1.2 1-1.3 1 .2 1 1.5m4 .5q0 .9-1 1a1 1 0 0 1-1-1q.1-1 1-1t1 1m174.4 11.6q1.1 4.4-1.3 2.9c-1.3-.8-1.5-5.5-.2-5.5.5 0 1.2 1.2 1.5 2.6M296.7 679c-.3 1 .1 2.4.9 3.1 1.4 1.1 1 2.9-.5 2.9a8 8 0 0 1-3.1-1.8c-2.3-1.9-2.3-1.9-.4-4 2.4-2.6 3.8-2.7 3.1-.2m.7 54.6q1.6 4.2-1.2 6.7-3.3 3.3-3.2-2.8c0-4.5 3.1-7.3 4.4-3.9m-10.4 6.5c0 2.3 4.2 18.8 6.4 25.4 1.4 4 1.8 6 5.7 25.5l2.6 12.7q.5 2.2-2.3 5.8c-3 4-2.3 6.6 1.4 4.6q4.3-2.4 4.2.8c0 2.5 2.2 4.2 4 3.1q3-1.7 3 2.2c0 1.2 1 5.2 2.2 9 2.3 7.1 2 9-1.2 7-2.7-1.6-2.3-1.8-8 3.3-5.1 4.5-10.7 7.5-14 7.5-1 0-2.8-.8-4-1.8-2-1.6-2.3-2.9-2.5-10.1-.2-6.5-.6-8.8-2.3-11a33 33 0 0 1-4.6-15.8 58 58 0 0 0-2.1-9.3c-1.6-4.6-1.4-4.8 2.6-1.9q2.8 2 2.9 4.5-.1 2.5 2 2.4 2.7.2 2.1-3.7 0-1 .9-1.8c1.4-.9 1.3-3.8-.4-7.7-.8-1.8-2-5.3-2.7-7.7s-2.4-5.2-4.1-6.4c-2.2-1.6-2.5-2.4-1.7-3.9.8-1.4.6-2.8-.5-5.3-.9-1.8-1.6-4-1.6-4.8 0-2.9-6.6-15.7-8.1-15.7-2.4 0-3.2 5-2 12.1 1.2 6.2 1.9 7.7 5.7 11.6 3.8 4 4.2 4.8 3.2 6.7-.7 1.1-1.5 3.7-1.8 5.6l-.6 3.5-1.8-6a215 215 0 0 0-7.2-22c-.9-2.2-1.8-5.9-1.9-8.3-.3-4.2-.3-4.2 3-4.2 4.3 0 8.5-1.6 8.5-3.2 0-1.4 7.9-4.4 12.3-4.7 2.1-.1 2.7.3 2.7 2m18 37.9q-.1.9-1.1 1-.8-.1-.4-1 .6-1 1.1-1 .4 0 .4 1m1.4 5.1q-.6.8-1.5.3t-.3-1.5q.6-.8 1.5-.3t.3 1.5m14.3 27.5 2.2 14.6a54 54 0 0 0 2.6 10.4c.9 2.1 1.3 4.4 1.1 5.1q-1.7 3.6-3.7-3c-.6-2.3-1.8-5.9-2.6-8.1-3.3-9-5.5-25.1-3.6-27 1.7-1.7 2.8.6 4 8m-10.7-4.1q0 1.4-1.5.9-1.3-.7-.9-1.5c.8-1.4 2.4-1 2.4.6m46.8 6.3c.2.8-2.5 2.6-7.1 4.7a41 41 0 0 0-10.8 6.5c-.5 0-2.7 1.1-4.9 2.5s-4.1 2.5-4.4 2.5-2.1-7.2-2.9-12.2c-.6-4.1.2-4.6 6.6-3.8q5.9.9 12-.5 10.7-2.4 11.5.3"/><path d="M99.4 518.5c-.9 2.3.7 3.6 3.4 2.8q2.2-.6 2-2.2c-.4-2.2-4.6-2.7-5.4-.6m2.3 9.2c-1.4 1.3-.7 3.3 1.1 3.3q4-.2 2.1-2.7-1.8-2.1-3.2-.6m-4 10c-1.4 1.3-.6 3.3 1.2 3.3 2.1 0 4.5-2.3 3.4-3.3-.8-.9-3.8-.9-4.6 0m147.9-67.6c-1.8 3-1.6 5.9.4 5.9 1.2 0 5-5.9 5-7.8 0-2.4-3.6-1.2-5.4 1.9M20.1 493.8q-2.2 1.8-1.4 2.5c1.4.9 4.7-1.7 4.2-3.2q-.4-1.4-2.8.7m-3.7 6.7q-3.3 5.4 4.1 4.1c3.2-.6 3.6-1 3.3-3.4-.4-3.9-5-4.3-7.4-.7M436 481.4c0 2.2 2.7 3.8 5.7 3.4l2.8-.4-2.7-1.1c-1.4-.7-2.9-1.7-3.3-2.2-.9-1.6-2.5-1.4-2.5.3m-6.5 5.6q-.5 1 .1 2.2c.4.6.9 3.6 1.1 6.7.3 4.1 1 6.2 2.6 7.8 2.7 2.6 9.7 4.2 9.7 2.2 0-.7 1.2-2.3 2.7-3.5 2.6-2.1 2.6-2.2 1.2-6-1.2-3.3-2.3-4.2-6.7-6a31 31 0 0 1-6.5-3.3c-1.4-1.4-3.4-1.4-4.2-.1m14.5 9c.6 1.1.8 2.6.4 3.2q-.8 1.2-1.5-.8c-1.6-4.1-.8-5.9 1.1-2.4m-4.9 4.4q2.4 2.6-1.6 2.6c-3.3 0-4.3-2.6-1.9-4.9 1.7-1.6 1.9-1.6 2.2-.2q.4 1.5 1.3 2.5m-143.5 30.2c-.8 2.1-.8 2.4.3 2.4s2.2-2.8 1.2-3.5q-.9-.3-1.5 1.1m.1 6q-.6.8-.7 2.3 0 1.6 1.1.4 1-1 .7-2.3-.4-1-1.1-.4M316 548c-1.5 2.9-1.2 3.9 1.5 4.6 1.3.3 2.9 1.2 3.6 2 2.1 2.5 3.9 1.6 3.9-2 0-3.8-1.3-5.3-5.3-6q-2.7-.6-3.7 1.4m26.7 12.6c-.4.4-.7 2.2-.7 3.9 0 2.6.7 3.5 3.9 5.3 3.4 1.9 4 2 4.5.6 1.4-3.7.6-6.9-2.2-8.2-4.5-2.2-4.8-2.3-5.5-1.6m-27.5 2.6c-2 2-1.3 4.1 2.4 7.2 1.9 1.6 3.6 2.7 3.8 2.5 1.2-1.4 1.5-6.7.4-8.1-1.8-2.2-5.1-3.1-6.6-1.6M365 574q0 3 1.8 3.7 1.5.7 2.2 1.3a7 7 0 0 0 2.8 1.4c2 .7 2.2.4 2.2-2.8s-.4-3.7-3.6-5.1c-5-2.1-5.4-1.9-5.4 1.5m-26 3.9a6 6 0 0 0-.4 3.5c.5 1.4 6.6 6.6 7.7 6.6.3 0 .7-1.5 1-3.3.4-2.5-.1-3.8-2.1-6-3-3.2-4.7-3.4-6.2-.8m21 14.1c-1.3.8-1.3 1.2 0 3.6.8 1.5 2.4 3.2 3.5 3.8l3.3 2.3q3.4 3.6 3.2-3.3c0-4.2-.2-4.6-3.5-6-4-1.6-4.5-1.7-6.5-.4m21.7 9.7c-.4.3-.7 1.9-.7 3.4 0 2.7 2.5 4.4 5.9 3.9q1.3 0 2.2 1.1c1.1 1.8 1.6 1.1 2.4-3.3.7-3.4.5-3.9-2-4.8-3-1.1-6.9-1.3-7.8-.3m49.6-17.7c0 6.2.4 6.9 2.5 4.8s1.3.7-1 3.7c-2.8 3.6-1.5 6 3.3 6 3.3 0 3.4-.2 4.7-5.4 1.5-6.2.5-9.9-3.6-13.1-4.6-3.6-5.9-2.8-5.9 4m5.5-.1q.4 1.3-.9.9-1.2-.5-1.7-1.7-.4-1.3.9-.9 1.2.5 1.7 1.7m56.3-24.5c-1.4 1.6-.9 4.6.7 4.6q1-.1 2.2-1.6c1.1-1.2 1.1-1.8-.2-3-1.3-1.3-1.6-1.3-2.7 0m-2.1 9.1q-1.4 1.6-.2 2.7c1.5 1.5 4.4.2 4-1.9-.4-2.3-2.2-2.7-3.8-.8m-16 2.5c0 2.2 3.1 7 4.5 7q3.1 0-.6-5.1c-2.1-2.9-3.9-3.8-3.9-1.9m0 16.7c0 8.3 4.5 21.3 7.3 21.3.6 0 1.9 1.5 2.7 3.2 3.3 6.9 5.4 2.7 2.7-5.2-1-2.8-1.7-3.4-3.5-3.2-1.7.3-2.2-.1-2.1-2 .1-1.3-.8-4.3-1.9-6.8a22 22 0 0 1-2.2-6.7c0-2.8-1-5.3-2.1-5.3-.5 0-.9 2.1-.9 4.7m3.3 27.9c-1.4 3.8 6.3 23.2 11.4 28.6 2.6 2.8 7.6 3.8 8.7 1.9.7-1.1-4.2-10.7-8-15.7-2.4-3.1-2.9-3.4-4-2q-1 1.5-1.7 1.6a42 42 0 0 1-3.7-12.8c0-2.7-1.8-3.8-2.7-1.6m11.2 21.1c2.7 4 3.4 7.1.9 3.8-2-2.6-4.6-7.5-4-7.5.3 0 1.7 1.7 3.1 3.7m-312.9-.6c-2.1 2.5-2.5 3.8-2 6.4q.7 3.3-1.4 7.1c-2.5 5.1-3.4 9.1-7.2 33.6a566 566 0 0 0-3.2 56.8c0 2.6-1.4 12.3-4.7 32-6.4 37.7-7.5 41.4-21.3 71l-4.1 8.5c-4 7.2-7.7 15.3-7.7 16.8 0 3.5 3.2 1.3 4.5-3 .7-2.3 3.8-7.9 7-12.4 5.9-8.4 15.5-26.5 15.5-29.2a50 50 0 0 1 2.7-8.9c3.2-8.9 4-12.5 5.3-24.8.6-5.2 1.7-13.6 2.5-18.5 2.1-12.5 3.2-26.1 4.5-54 1.7-38.4 5.4-60 12.3-71.6 2.1-3.4 2.3-4.5 1.4-6.1-1-1.5-.9-2 .2-2.7 1.5-.9.9-4.1-.8-4.1-.5 0-2.1 1.4-3.5 3.1m304.5 9.7c-1.5 2.8.6 9.2 4.7 14.5 1.8 2.3 4.8 6.6 6.5 9.6 3.3 5.6 5.7 7.5 5.7 4.6 0-2.2-3.5-8.8-8.6-16.4a23 23 0 0 1-4.4-9.1c0-3.8-2.5-5.8-3.9-3.2M157.8 647c-2.7 2-9.9 18.6-11.8 27-.5 2.5-1.2 14.4-1.6 26.5-.3 12.4-1.2 26-2.1 31.2a61 61 0 0 0-1 12.5c.9 6.4-3.7 28.6-8.9 42.8-.9 2.5-3.2 9.7-5.1 16-4.9 16.3-13.2 35.8-16.8 39.4-4.3 4.3-4.1-.2.3-6.7 1.9-2.8 2.2-4.1 1.4-4.9-1.7-1.7-9.9 7.1-10.7 11.6-.9 4.4-.1 5.6 3.5 5.6 6.3 0 7.6-1.4 16.9-18.1 2.9-5.2 15.1-40.3 18.5-53l3.5-12.9c4.3-16 6.1-33.6 6.1-59.4 0-17.8.4-25.5 1.4-29.1a87 87 0 0 1 9.1-21.9c2.8-3.7 3.1-5.8 1.1-7.5-1-.8-1.9-.6-3.8.9m38.8 6.6a39 39 0 0 0-2.5 18.6c.8 3 .7 6.4-.1 12.6-.6 4.7-1.4 9-1.7 9.5-.2.4-.9 3.2-1.3 6l-2 11.2c-.8 4.4-.8 6.5 0 8 1.1 2.1-1.1 16.1-5.6 35.1-1.5 6.4-1.8 9.4-3.4 30.4-.5 7.4-1.5 16.4-2.1 20-2.3 14-2.3 15.4 0 17.4 2.7 2.4 3.9 1.4 2.1-1.8-.8-1.5-1-4-.7-6.3L181 804a269 269 0 0 0 2-19c1.9-25.9 2.5-29.4 5.2-33.1 1.6-2.1 2.3-5.1 2.9-11.6.4-4.8 1.9-13.6 3.4-19.5a74 74 0 0 0 2.2-11.5c-.5-.8 1.2-13.7 3.3-25.3 1.8-10.3 3.2-22.2 2.7-22.7-1.1-1-2.7.9-2.7 3.1 0 1.2-.6 3.1-1.4 4.1-1.3 1.7-1.4 1.6-2-2.2-.6-3.2-.2-5.1 1.7-9.2 2.3-4.7 2.4-5.1.7-5.1-1 0-2.1.7-2.4 1.6m-1.7 52.1c-.2 4.3-1.3 7.6-2.8 8.1-1.1.4-1.2-.4-.7-3.4 1-5.7 1.6-7.4 2.7-7.4.5 0 .9 1.2.8 2.7m285.9-41.1c-1.6 1.5-.7 4.1 2.1 6.8 1.6 1.6 3.9 5 5 7.7 2.3 5.2 3.7 6.7 5.2 5.2s-3.1-11-7.7-16.1c-2.1-2.4-4.2-4-4.6-3.6m-54.3 3.6c-.3.7-.1 6.8.3 13.5s.5 15.5 0 19.4c-1 8.2-.6 10.2 1.9 9.7q1.9-.2 1.9-3.8l.9-19c.8-16.1.1-21-3-21q-1.5.2-2 1.2m19.6 5.7c-1.2.8-1.1 1.7.5 6.2 1.2 3.3 2.6 5.5 3.7 5.7q3.2.4.3-8.3c-1.5-4.3-2.3-4.9-4.5-3.6m-8.4 9.8a234 234 0 0 1-9.8 56.8c-3.7 12.8-5.8 31-4 35.2 1.8 4.5 7.6 9.7 9.7 8.9 1.5-.6 1.3-1.1-1.6-4.1q-9.6-10-1.5-36a278 278 0 0 0 10.9-57c.1-2.9-.3-4-1.6-4.3q-1.5-.2-2.1.5m12 13a55 55 0 0 0-1.2 8.7c-.4 4.4-1.9 12.3-3.2 17.5a69 69 0 0 0-2.2 13.6c.5 6 .4 15.7-.1 18.5q-.5 2.4 1 2.7c2.5.6 4.5-12.1 3-19.2-1-4.6-.9-6.4.4-10.3 2.3-6.8 5.6-23.8 5.6-28.3q0-4-1.4-3.9-1.4 0-1.9.7m29.8 4.3a48 48 0 0 0-9 6.3 35 35 0 0 0-6 10.4c0 .6-.7 1.9-1.6 3-2.7 3.1-6.3 10.2-5.6 11q1.5 1.7 6.7-8.2a64 64 0 0 1 21.1-21.1c4.7-2.4 6-4.6 2.8-5.1a30 30 0 0 0-8.4 3.7m12 5.4c-10.8 7.1-16.4 14.6-10.9 14.6q1.4-.2 2.3-2.3c1.1-2.8 5.8-7.1 12.3-11.2 2.8-1.7 4.8-3.8 4.8-4.8q0-1.5-.2-1.7zm-361.3 2.8c-.7.7-1.2 2.4-1.2 3.9 0 1.4-.7 4.6-1.5 7s-2.5 8-3.6 12.4-4.7 14.4-8 22.3c-3.2 7.8-5.9 14.8-5.9 15.6s-.7 2-1.7 2.7-4 6.3-6.9 12.4c-14 29.5-16.4 33.9-24.1 42.7a42 42 0 0 0-6.9 10.6 49 49 0 0 1-5.2 9.4c-4.4 6.2-14.1 14.8-16.6 14.8-1.9 0-1.8-.1.4-2.4 2.2-2.4 2.2-5.6 0-5.6-1.7 0-9 7.2-9 8.9 0 4.1 6 5.4 12.3 2.8 3.9-1.7 19.7-18.2 22.4-23.4 3.3-6.5 6.5-11.3 7.4-11.3.5 0 2-2.2 3.3-4.8 1.4-2.7 5-9.1 8.2-14.3a243 243 0 0 0 18.8-40.4c1.9-5 5.2-13.2 7.5-18.3s4.4-10 4.6-11 1-3.1 1.9-4.7 1.6-3.6 1.6-4.3 1.6-5.1 3.5-9.9 3.5-9.9 3.5-11.3c0-2.4-1.6-5-3-5q-.6 0-1.8 1.2m361.1 22.6c-1.7.9-6.2 5.7-9.9 10.7-6.7 8.9-10.4 16.9-10.4 22.6 0 3.4-4.1 8.4-9 10.9-5.1 2.6-6.9 5.8-9.7 17.4-1.8 8-2.5 14.6-3.2 31.6-.6 16.6-1.2 22.5-2.6 26-1 2.5-1.8 5.7-2 7.1s-1.8 4.7-3.8 7.4c-3.6 4.7-4.3 6.5-3.1 7.8q3.2 3.1 12.2-20.3c2.3-6 2.5-8.1 2.7-25 .4-23 3.4-41.7 7.3-45.6 1.6-1.7 1.7-1.5 2.2 3.2.4 3.6 1 5 2.3 5.2 1.9.4 2.4-2.2.6-3.4s.1-5.8 3.7-8.7c3-2.5 5.4-7.7 6-12.8.4-4.5 1.7-9.7 3.1-12.4s7.5-9.1 13.6-14.2c1.5-1.3 2.4-2.9 2.1-3.7q-.6-1.4 3-2 3.5-.7 3.6-2.1c0-2-4.7-1.9-8.7.3"/><path d="M461.2 735.2c-.7.7-1.2 3.4-1.2 6.2q0 5-1.9 7c-3.1 3.4-9.7 17.3-12.9 27.6-4.9 15.6-10.1 37-10.8 44.3l-.6 6.7-5.1-.6c-6.5-.7-7.7-1.1-7.7-2.4 0-.5 1.3-1 2.9-1s3.4-.7 4.1-1.5c1.7-2-2.5-2.9-10.1-2.1-4.9.6-5.9.4-5.9-.8 0-1.9 2.4-2.5 11-2.8 5-.2 6.5-.6 6.5-1.8s-1.5-1.5-8.7-1.2c-5.4.1-8.8-.2-8.8-.8 0-.5 2.4-1 5.4-1q5.3 0 6.6-1.5c1.6-1.9.4-2.3-7-2.7-5.2-.3-5.5-.4-5.8-3.1q-.8-5.8 5.9-5.7c5.3 0 5.4 2.8.2 3.2-4.7.4-5.3 3.1-.9 3.6q6.5.7 9.2-3.2c3.3-5.2-2-8.4-11.6-7.1-6.9 1-8.3 2.3-8.3 7.9.1 5-1.3 6.6-6.1 6.6-3.4 0-7.6 2-7.6 3.6 0 1.9 3.8 3.7 9 4.4 6.8.8 5.9 3-1.7 4.6-7.5 1.5-8.3 2-8.3 4.3q0 4.5 8.8 4.7c3.3 0 5.7.5 6 1.2q.3 1.1-.5 1.2c-6.1.4-15.6 2-16.8 3-.8.7-1.5 2.3-1.5 3.6 0 2.7 3.5 6.7 5.3 6.1 1.1-.4 1.2-1.6.5-6.2-.3-1.8.3-2 5.7-2h6l.8 15c.9 18.2 2.7 25.5 6.5 25.5 2.1 0 2.3-.3 1.7-2.3-2.3-7.7-3.8-23.9-2.8-32.8l.6-5.9h5.7c3.1 0 7.8-.6 10.3-1.4s4.8-1.1 5.1-.9c.6.6-.1 4.3-2.5 14.2-2.1 8.2-2.4 14.1-.9 14.1q2.1 0 3.9-10.5c.5-3.3 1.9-10.3 3-15.5s2.3-13.8 2.6-19a247 247 0 0 1 11.5-47.5c2.5-8.1 7.4-17 11.6-21.3 2.4-2.4 4.4-5.2 4.4-6.3s.5-2.1 1-2.4c1.9-1.2 1.1-3.8-1-3.2q-2.1.6-2-1.4-.1-3.3-2.8-.7M405.5 813c-.3.5-1.5 1-2.5 1s-2.2-.5-2.5-1q-.4-1 2.5-1c2.9 0 2.9.4 2.5 1m13 11.5c0 .5-1.5 1.1-3.2 1.3-2.5.3-3.3-.1-3.3-1.3s.8-1.6 3.3-1.3c1.7.2 3.2.7 3.2 1.3m-12.7.7c-.5 1.5-7 3-8.2 1.8-1.6-1.6.5-3 4.5-3q4.1 0 3.7 1.2m24.1 5.3c1.5 1.6-2.9 3-9.9 3.4-7.5.3-8 .2-8-1.7 0-1.1.6-2.2 1.3-2.5a81 81 0 0 1 16.6.8m-296.8-90.1c-.7.8-2.6 7.2-4.2 14.1a120 120 0 0 1-10.4 30l-8.6 19.5-11.8 27a86 86 0 0 1-10.6 17c-1.3 1.4-4.8 6.3-7.8 11-3.1 4.7-6.5 9.6-7.6 11-1.1 1.3-1.8 2.7-1.5 3.1.6 1 5.8-.2 7.8-2 4.4-3.7 9.6-11.4 9.6-14 0-1.6 1.3-4.6 2.8-6.7 3.5-4.7 6.9-10.7 13.5-23.4 2.7-5.2 5.7-10.9 6.7-12.5 1.9-3.3 8.7-19.3 11.3-26.5 1.6-4.7 7.2-20 11.3-30.8Q136 751 136 745c0-6-.8-7.2-2.9-4.6m363.7 8.3a131 131 0 0 0-19.5 62.3c-1.8 16.4-1.7 15.3-.8 28 .6 8.2.4 10.5-1.5 17-1.2 4.1-2.6 9.9-3 12.8-.5 2.9-1.4 6-2.1 6.8-1.6 1.9-.3 3.1 1.9 1.8 1.1-.7 2.8-5.5 4.9-13.5a83 83 0 0 0 3.1-27.9c0-11.5.6-18.5 2.1-26.9 1.2-6.3 2.1-13.4 2.1-15.7 0-2.4 1.1-7.8 2.5-12.1a141 141 0 0 1 12.7-27.1c1.1-.5 1-7.2 0-7.2-.5 0-1.6.8-2.4 1.7m-279.7 5.7c-.7.8-1.4 7-1.7 15.3-.6 14.1-2.2 22.5-10.5 54.8a78 78 0 0 0-3.5 34c1 9.1 1.3 10 3.3 10.3 2.2.3 2.2.3 1.6-14.1l-.6-14.5 4.7-18.3 6.9-26.4c1.2-4.4 2.5-13 2.9-19s1-12.9 1.3-15.1c.7-4.1-.6-8.4-2.4-8.4q-1 .1-2 1.4M48 771.5c-.6.8-1.4 3.4-1.7 5.7s-2 7-3.8 10.3a48 48 0 0 0-4 9.2 112 112 0 0 1-29.8 49.8 99 99 0 0 0-8.7 9.7c0 1.9 2.2.4 9-5.9a152 152 0 0 0 30.3-45.8c2.1-5 4.6-10.7 5.7-12.7s2-4.6 2-5.7.4-2.2.9-2.5 1.1-2.5 1.4-4.8l1.3-6.6c.7-2.5-.7-2.9-2.6-.7m410.1 56.9c-.6.8-1.6 3.9-2.1 7s-1.6 8.2-2.4 11.3l-3.1 12.4c-.9 3.6-2.6 8.1-3.7 10a41 41 0 0 0-2.9 6.1c-.6 2.4-.5 2.8 1.2 2.8q1.9-.2 2.5-1.7c.3-1 1.4-3.5 2.6-5.7 2.6-5 3.3-7.3 7.3-24.6l4.1-16.8c.7-2.6-1.6-3.1-3.5-.8m-239.9.8q-1.2 1-1.2 15.4c0 13 .2 14.4 2.3 17.5 2.5 3.8 5.7 5.1 5.7 2.3 0-1-.8-2.6-1.7-3.7-1.5-1.6-1.8-4.2-2-16.6l-.2-15.4c-.1-1.1-1.5-.9-2.9.5"/><path d="M418.1 841.2c-1.1 2.9.5 6 2.7 5.6 2.1-.4 2.9-5.7 1-6.9-2.1-1.3-2.8-1.1-3.7 1.3m16.4 34.8c-.8 1.3 1.5 1.3 3.5 0q1.9-1.1-.7-1c-1.2 0-2.5.4-2.8 1"/></svg>