<svg xmlns="http://www.w3.org/2000/svg" width="666.7" height="1170.7" viewBox="0 0 500 878"><path d="M245.5 29.2c-2.7.5-12.3.9-21.2 1-9 .1-16.3.5-16.3.9s1.3 1.8 2.9 3.1A59 59 0 0 1 223 51.6q.1 1.4-4.4 1.4c-8.2 0-9.1 5.5-.9 5.9 10.9.6 52.7-1 54-2.1 1.9-1.6.4-3.7-3-4l-3.2-.3v-18h4.6c2.5 0 5.4-.6 6.3-1.4 3.1-2.6-.4-3.7-12.1-4-5.9-.1-11.5-.3-12.3-.5s-3.7.1-6.5.6m-13.4 7.1c-.2 5.4-2.5 12.7-4 12.7a38 38 0 0 1-6.1-12.1c0-.4 1.9-1 4.3-1.2 5.2-.4 5.9-.4 5.8.6m14 1.4c.5 1.5.9 5.2.7 8.2l-.3 5.6h-6c-6.8 0-6.9-.3-3.9-8l2.5-6.3c1.3-3.3 5.6-3 7 .5m11.9 2.7c0 2.9.3 6.8.6 8.6.7 3 .6 3.1-2.2 2.8l-2.9-.3-.3-8.3c-.3-8.2-.3-8.2 2.3-8.2 2.4 0 2.5.3 2.5 5.4M62.3 123.5c-1.3 3.6.4 11.3 3.5 15.6 5 6.8 3.6 12.4-1.6 6.4q-3.5-4-8.3-1.4c-1.6.8-1.9 1.6-1.3 4.2.3 1.8 1 3.7 1.5 4.3 1.7 2.1 7.2 2.3 11.4.4q4-1.7 6.2-.9c2.7 1 4.4 4.1 3.3 5.9q-1.6 2.9 1.9 3 4.8 0 2.2 5.5c-1.7 3.6-3.7 4.8-2.6 1.6.8-2.6-.4-5.1-2.5-5.1-2.4 0-3.3 4.1-1.7 7.8a92 92 0 0 0 9.2 12.5 374 374 0 0 1 26.6 33.3q-.3.9-2.6 1.6c-2.1.5-2.8 0-4.6-2.9-4-6.4-13.7-8-12.1-2.1.7 3 7.2 9 8.9 8.4 2.3-.9 1.4 1.3-1.3 3.1-2.5 1.6-2.7 1.6-3.9 0q-1.2-1.5-1.9-1.7c-.9 0-.8 5 .2 5l2.8.6q2 .7 5.9-2.7c3.7-3.2 4.5-3.2 5.8.5.6 1.7 3.7-.3 3.7-2.3 0-2.5.9-3 4.2-2.4q2.8.5 6.4 5.6l3.7 5.1-1.2 10.1-1.5 12.5c-.1 1.4-.9 2.6-1.7 2.7-7.8 1-9.1 1.5-10.9 4.6-2.7 4.4-2.7 9.7 0 9.7q1.8.1 2 .8c0 1-9.1 14.9-13.2 20.2-6 7.9-14 22.7-17.8 33.1-5.4 14.6-3.1 22.6 7.5 25.9 2.2.7 5.2 2.1 6.7 3.1 1.4 1.1 4.1 1.9 5.8 1.9s4.9.4 6.9.9c15.4 4 20.3 5.6 20.7 6.5.2.6-.2 3.4-1.1 6.1-1.7 5.9-2 15.9-.4 20.3q1 3.2 7.2 7.2c5.7 3.8 6.4 4.1 11.1 3.5 8.8-1.1 8.7-1.2 9.8 21 .1 2.7-1.6 15.3-4.2 31a142 142 0 0 0-.7 20.5c.2 8 .2 15.1-.1 15.8-.2.7-2.2 2-4.3 2.8-4 1.6-9.4 8.4-22.1 27.4a134 134 0 0 0-17.3 53.6q-1.2 10.3-3.4 7.9c-1.6-1.7-4.5-25.3-4.7-38.6-.2-13.1-.7-15-5.5-21.1-2.8-3.4-1.8-5 2.1-3.7 2.5.9 3.4.7 6-1.1 5.4-3.8 2.8-7.5-5.2-7.5-5.1 0-5.2-.1-4.2-4q1.5-6-4.1-9.5c-3.3-2.1-3.7-2.1-6-.6q-4.2 2.9-1 8.6c1.9 3.3 1.8 4-.3 4-2.6 0-5.2 3.2-5.2 6.3q0 2.7 3 4.9c1.6 1.2 3 2.8 3 3.5s-1.8 3.3-4 5.7-4 4.8-4 5.5c0 .6.9 3 2 5.4a98 98 0 0 1 7.4 33c2.4 24.1 3.5 38.1 3 38.9-1.2 1.8-3.5.6-4.8-2.6-1.7-4-6.7-7-10.1-6.2-4.7 1.2-3.9 6.3 1.4 9 2.3 1.2 2.7 2 2.4 4.1-1.1 5.2 5.3 7.8 7.5 3 1.1-2.5 3.6-3.3 4.6-1.6.3.5 1.3 4.1 2.1 8.1 1.4 6.8 1.4 7.5-.2 9.8a99 99 0 0 0-14.2 26.7c-1.6 3.7-3.3 9.9-6 23-1.3 6.3-4.5 29.2-7 50.2-2 16.3-3.6 21.3-6.8 21.3-2.2 0-8.3 6.5-8.3 8.8 0 1.1.7 2.5 1.5 3.2 2.3 1.9 1.8 3-1.9 4.5-1.9.8-3.7 2.4-4.1 3.5-.8 2.5-3.1 3.1-13.3 3.3-7.4.2-8.4.5-10.8 2.9q-2.6 2.6-2.1 4.2 1.6 3.6 4.2-1.4a7 7 0 0 1 4.3-3.6l4.5-1.1c2.8-.7 2 2.5-1.3 5.3-1.6 1.4-4.3 5-6.1 8-3.8 6.8-3.4 9.9 1.7 12 3.2 1.3 4 1.3 10.9-1.1 4.2-1.4 8.3-2.5 9.3-2.5a62 62 0 0 0 18.9-8.2l5.1-4.9c3.5-3.4 6.9-5.2 8.3-4.3.7.4-.7 1.6-3.2 2.8a14 14 0 0 0-4.7 3.4c-.5 1.7 2.9 1.4 5.2-.3 1.1-.8 3.5-1.5 5.3-1.5 2.6 0 3.3-.4 3.3-1.9 0-3 2.2-4.1 9.5-4.6 3.7-.3 7.2-.8 7.6-1.1q2.3-1.5-1.4-2.9c-2.1-.6-2-.7.9-1.4 7.2-1.8 6.8-4.3-.5-3.4l-4.9.6-2.1-4.1c-2.5-4.9-2.7-7.5-.6-9.2 2.5-2 1.9-5.9-1.1-7.2-2.6-1.2-2.6-1.4-2.1-8.4.3-3.9 1.2-8.5 2.1-10.2.8-1.6 3.6-8.1 6.1-14.3 4.8-11.9 5.9-13.7 6.9-12.1.5.8 2.2 14.6 5.6 44.2l1.6 13.3c.4 3.2.1 3.9-2.1 4.9-3 1.3-3.3 3.8-.5 3.8q1.9.1 2 1.7l1.1 11.8c1.5 15.9 3.9 45.6 3.9 49.9v4l-2.7-2.6a58 58 0 0 0-24.8-7.6c-8.9-1.1-15.7-6.9-12.5-10.7.7-.8 3.2-2.7 5.6-4.2 4.7-3 5.4-4.6 2.7-6.2-1.4-.8-1.1-1.2 2.2-2.6 2.2-.9 5.3-1.9 6.8-2.2 3.3-.7 5.2-3.4 3.5-5.1-1.8-1.8-7.8-1.4-12.3.7-4.9 2.2-10.5 6.8-10.5 8.6 0 .7-2.2 2.7-5 4.5s-5 3.6-5 4c0 2-6.2 3-16.7 2.8-9.4-.3-11.4 0-13 1.5-2.7 2.3-8.4 2.2-11.6-.3-1.4-1.2-4.7-3-7.2-4.1S8 816.4 8 815.7l2.4-16.7c1.3-8.5 2.4-16.2 2.4-17-.1-.8 1.1-8.5 2.5-17s3.1-20.2 3.8-26 2.5-20 4.2-31.5l3.2-23c.3-3.3 1.5-10.5 3.1-18.4.8-4.1 1.7-11 2-15.5.2-4.5 1.1-13.3 1.9-19.6l2-18.5c.5-5.9 2.4-21.2 5-41.1.6-3.9.8-4.2 4.5-4.8 2.1-.3 4.4-1.4 4.9-2.4.9-1.5 1.2-1.4 3.4 1.1q2.3 3 4.6 2.5 5.5-.7 3.1-7.6c-1.2-4-1.2-4.1 1.9-7.2 3.4-3.4 4-7.3 1.8-10.4q-2.7-3.3-7.8 3.5l-2.2 3.1-1.4-2.6c-2-3.9-4.6-3-5.5 1.9a22 22 0 0 0-.2 6.7c.8 3.8-.4 6.8-2.6 6.8-1 0-2.1-.3-2.3-.8-.6-.8.6-8.1 2.9-18.5.8-3.7 1.9-9.8 2.4-13.5s2.1-13.2 3.5-21.2c1.5-8 3.2-18.6 3.9-23.5.8-5 2.3-11 3.6-13.4 2.8-5.5 3.1-14.2.7-16.9-2-2.1-2.3-8.2-.5-10 1.7-1.7 3.8-1.5 3.8.3 0 .8 1 2 2.3 2.6s3.2 2.1 4.4 3.2 2.6 1.8 2.9 1.4c1.1-1-1.7-10.7-3.5-12-1.3-.9-1.7-2.7-1.6-7.9 0-6-.3-7-2.7-9.4-2.6-2.7-2.7-2.7-5.4-1-2.6 1.8-2.6 2-2.2 9.2.3 4.1.3 7.4 0 7.4s-1.7-1.4-3.1-3c-3.5-4.1-7.9-4.5-10-.9-1.4 2.5-1.3 2.9.9 6.2 1.4 2 3.5 4.1 4.8 4.7 2.5 1.1 2.5 2.9.1 4l-7.1 3.3c-7 3.2-7.4 4.4-8.3 23.7-.3 7.4-1 14.6-1.5 16s-1.2 4.3-1.6 6.5l-.7 4-1.1-2.7C28 496.1 24 492 22 492c-.9 0-2.5.9-3.5 2q-1.8 1.9-3.6 1.5c-.9-.3-2.4.2-3.4 1.1-2.1 2.2-1.2 7.9 1.7 11.1 1.5 1.6 1.9 2.9 1.4 4.8q-1.2 5 4.5 8.1c3.5 1.8 5.3.9 6.3-3.1.7-2.7 2.4-3.3 3.2-1.1.3.8-.2 5.8-1.1 11.2-3.1 19.5-3.4 22-3.9 28.4L19 596c-1.1 10.2-2.5 21-3 24s-1.2 9.1-1.5 13.5c-.8 11.2 1 6.5 2.6-6.7.6-5.7 2-15.3 3-21.3l1.8-11-.6 9.5-.8 13.5c-.2 2.2-.4 7.3-.5 11.2q-.1 7.3-1.3 7.3c-1.2 0-.7.4.2.9q1.2 1 .8 2.6-.7 1.4-1.6 1.1-.9-.4-1.5 1-1.6 4.2.9 2.4c1.3-1.1 1.5-.8 1.5 1.4q-.1 2.5-1.4 2.6-1.4.2-1.9 1.2-.5 1.2-.6-.5-.2-1.5-1-1.7c-1.1 0-1.7 3.4-8.1 47.2-.6 3.7-.9 10-.9 14l.2 7.3.7-5.5 1.9-18c.7-6.9 2.1-17 3.2-22.5 1-5.5 1.9-11.2 1.9-12.7q-.1-6 3.1-5.1 1.7.6 1.9 1.9-.1 1.2-1.4.8t-1.8 2q-.5 2.6.7 2.6c1.6 0 2.1 1.4 2.4 6.7.2 4.2.1 4.3-2.4 3.3-2.2-.9-2.5-.7-2.5 1.5 0 2.9 1.8 4.3 2.6 2.1q.6-1.5 2-1.6 1.2-.2 2-2.8c1.9-8.3 2-8.6 4.7-9.3 2.3-.6 2.7-.4 2.7 1.5 0 1.2-1.1 3.2-2.4 4.3a20 20 0 0 0-4 7.1c-1 2.8-2.4 5.6-3.2 6.3q-1.4 1.1-.8 4.5.6 3.3-.5 3.4-1 .1-.5 1.4c.3.8-.2 2.6-1.1 4-1.6 2.4-1.6 2.6-.1 3.2 1.6.6 1.6.8 0 2.5-.9 1-1.4 2.7-1.1 3.9q.5 2-1.6 3.6c-2.2 1.5-2.2 1.5-.3 2.9s1.9 1.6.1 10.2c-1 4.9-1.9 10.1-1.9 11.8l-1.5 10.1q-2.6 13.1 2.4 15.2c2.2 1 2.5.9 2.5-.8 0-1-.9-2.2-2-2.5s-2-1.3-2-2.1q-.1-1.6 2.2-.9a12 12 0 0 1 3.2 1.5c1 1-.2 7-1.5 7q-.8.1-.9 1.6 0 1.7-2.1.9-2.3-.7-1.6.6c.2.8 1 1.3 1.6 1.2q1-.1 1.1 3.2c0 1.9-.5 3.5-1.1 3.5q-1 .1-.5 2.5c.9 3.7 0 4.5-3.4 3.3-3.3-1.1-3.2-.4-3.5-22.8-.2-12.7-.8-14.5-1.5-4.5a2137 2137 0 0 0 .1 122.6 121 121 0 0 0 2.4-15c.8-6.9 2.1-16.9 3-22.1L8 821.3c0-1.4 5.6 2 11.1 6.8 3 2.6 3.8 4.1 4.2 7.7q.4 4.5-.9 6.7c-1.2 1.8-1.2 3.2-.4 7.1 1.6 6.9 5.1 13.8 7.4 14.3 1.7.3 1.8-.1 1.2-3a107 107 0 0 1-1.2-9.4c-.2-3.3-1-9-1.6-12.7s-.8-7.3-.5-8.2c1-2.7 3.5-.7 4.2 3.4s2.9 7.9 4 6.9c.3-.4.2-3.9-.3-7.8-1.1-9.4-.8-9.6 11.2-8.7 7.1.5 10.3.3 13.7-.8 2.4-.8 4.7-1.2 5-.8a38 38 0 0 1 3.9 12.6c0 1.2.9 4.8 1.9 7.9 1.1 3.2 2.7 9.8 3.6 14.9s1.8 9.4 2.1 9.7c1 1.1 2.2-2.3 1.4-3.9-.5-.9-1.2-4.1-1.5-7.1s-1.3-7.7-2-10.4c-2.2-8.6-2.8-15.5-1.2-15.5q3.5.2 5.6 9a126 126 0 0 1 3.4 25c-.6 2.4 1.5 2.7 2.4.4.3-.9-.1-5.8-1-10.8-3.2-17.4-3.2-18.6-.9-18.6 1.7 0 2.5 1.2 4.1 6.3q1.8 6.2 1.4 10.6c-.4 3.4-.2 4.2.8 3.9 1.6-.5 1.4-12.4-.2-16.6q-2-5 .5-5.2c2.6 0 3.5 2.6 4.2 11.8.9 12.2 3 12.1 2.5-.1-.2-7.9-.1-8.7 1.6-8.7 3.7 0 9.4 2.2 10 3.8.3.9 1.9 2.9 3.6 4.3 2.8 2.4 3.1 3.4 4.9 16 2.1 15.1 2.3 15.9 3.9 15.9q1.2.1.6-5.7a292 292 0 0 0-3.5-25.8c-.5-2.2-1-6.7-1.1-10a227 227 0 0 0-1.2-15.5c-.5-5.2-1.2-16.3-1.5-24.5-.3-8.3-.7-16-1-17.2q-.5-2.3 1.5-3.2c1-.6 2.2-2.2 2.5-3.5.7-2.8 4-5 6.2-4.2 2.1.8 1.7 2.6-.5 2.6-1.2 0-3.2 1.8-5 4.5q-3.1 4.6-1.6 4.5c.7 0 1.7-.5 2-1.1.4-.5 1.8-1.5 3.3-2 3.1-1.2 5.3.4 3.4 2.3-1 1-1.4 1-2.1 0q-.7-1.6-3.5 1.8-4.1 5-1.6 5 1-.1 1-1.1.1-1 1.3-.6 1 .5.9 1.6 0 1 2.1-.4c3-1.9 3.7-1.2 3.7 3.8 0 3.4-.3 3.9-1.9 3.4q-2-.5-5.2 2.9c-3.1 3.2-3.5 6-.5 3.5 2.6-2.2 3.8-.2 1.6 2.6-2.4 3.1-2.6 5.1-.3 3.2q1.7-1.6 2-.2t2.9-.4q2.3-1.3 2.8-1.2c.2.2.7 3.9 1.1 8.1.5 5.5.4 7.8-.4 7.8q-1.6-.2-1.2-3.4 0-.8-.9-2.2c-.7-.7-.9-2.3-.4-3.6.6-2.1.5-2.2-1.1-.8a25 25 0 0 1-3.8 2.5c-2.5 1.2-3.8 5.2-2.5 7.7.4 1 1.1 5 1.4 8.9s.7 7.6 1 8.1q.3.8-1 1.4c-2 .8-2.1 3.3-.1 4q1.5.5 1.5 5.4c0 4.6 1.3 7.1 2.8 5.5.4-.4.7-3.9.8-7.8 0-4 .4-8 .8-9 1.3-2.7 3.6-2.1 3.6 1 .2 9.3 1.1 20.9 2 24.5.5 2.4 1 6.1 1 8.3.1 7.3.8 8.5 5.1 8.5 2.2 0 3.9-.5 3.9-1 0-1.3 6.3-1.3 7.7.1s5.8.7 5.8-1.1q0-1.5-3.7-1.8c-2.1-.2-3.8-.7-3.8-1.1 0-1.6 11.3-2.1 19.6-.9 6.5.9 9.1.9 11.7 0 1.8-.7 4.7-1.2 6.5-1.2 2.3 0 3.6-.8 5.3-3.1q3.9-5.4 3.9 3.3 0 7 2.7 6.8c1.3 0 1.5-1.1.9-7.3-.4-3.9-.9-13-1.3-20.1-.5-10.3-.3-13 .8-13.7q3.9-2.4 1.3 2.2c-1.5 2.9-1.5 3.1 0 2.6 1.8-.7 2.3 1.8.6 2.8-.6.3-1 1.2-1 1.8q.3 1 1.9-1c1.5-1.8 2.5-2.1 5.5-1.6 3.5.5 5.1 2.3 2.1 2.3-1.7 0-2.9 4-2.1 6.8q.8 2-1.9 3.6c-3.2 2.1-2.7 4.2.8 3.8 2.9-.4 3.6 1.5 1.5 3.6q-1.2 1 .2 2.7c1.2 1.4 1 2-1.5 3.9-3.3 2.6-2.7 4.9 1.1 4 2-.5 2.4-.2 2.4 1.5q0 2 1.5 2.1 1.4-.2 1.5-2c0-2.6 2-2.6 2.7 0 .4 1.5 1.4 2 4.1 2 3.3 0 3.5-.1 1.6-1.4q-1.8-1.5-2-4.8l-.9-8.7c-.7-4.6-.6-5.6 1-6.7 1.7-1.3 1.7-1.4.2-1.4q-1.6-.1-1.7-1.9c0-1.5.8-1.8 4.3-1.8 2.3 0 7.3-.4 11.1-.8 6-.7 7.1-.6 8.2.9q1.3 1.8 3.4 1.1c2.1-.7 2.1-.8.4-2.6-1.6-1.8-2.7-1.9-10.8-1.3l-13.6.8-4.5.1-.1-5.5c-.1-10.7-2.5-40.5-3.5-44.4a68 68 0 0 1 .3-24.1l1.3-6 6 .3c3.3.2 6.7 1 7.6 1.8.8.7 3.1 1.7 5 2a17 17 0 0 1 5.4 2.1c4.7 3.2 7.7 0 3.1-3.4-2.1-1.6-2.2-2-.9-4q3.7-5.5-4.1-4.6c-2.5.3-4.6.3-4.6 0 0-.5 5.4-3.2 8.7-4.2 3.8-1.1 4.1.5 6.8 35.1.2 3.4.9 7.4 1.5 8.9s.7 3.1.4 3.6.1 4.2 1 8.2 1.6 8.7 1.8 10.6c.3 3.2.1 3.5-3.2 4.3-1.9.4-7.4.9-12.1 1.1-6.1.2-9.3.7-11.2 2-5.2 3.4-1.9 7.2 5.2 6.1 4-.6 4.8-2.4 1-2.4-2.4 0-2.5-1.7-.1-2.4.9-.2 5.8-.7 10.7-1.1 6.7-.5 9.4-.3 10.7.7 2.4 1.9 5.8 17 7.3 32.2.6 6.1 2.5 11.6 4.1 11.6.9 0 .8-1.8-.2-7.2l-3-16.3-4-23c-5.4-30.9-6.3-37.5-6.5-48.1A252 252 0 0 0 244 747c-1.2-7.2-2-10.7-6.3-27.5q-5.7-23-1.9-22.3c.9.2 2.6-1.7 4.3-4.7 3.3-5.8 3.4-6.5 1.3-6.5q-1.7.1-.9-2.3l.6-2.2-1.7 2.3q-1.6 2.2-5 2.2c-1.9 0-3.4-.4-3.4-.9 0-1.7 2-2.3 3.5-1.1 1 .9 1.9.4 3.9-2.3 2.6-3.4 3.5-6.4 1.6-5.2q-.9.4-1-.8-.2-1.7-1.4-2c-1.6-.6-3.6 1.1-3.6 3 0 1.3-2.2 1.8-3.3.7-.3-.4.1-1.7.9-3s1.3-2.8.9-3.4c-.9-1.4 3.8-1.3 7 .2 1.4.6 2.5 1.8 2.5 2.7s.9 2.7 2 4.1c2.4 3.1 2.5 4.6.3 5.9q-2 1.1-.6 1.9c1 .6 3.2 9.5 3.4 14.2.2 2.7 3.9 21.4 5.6 28.1 1.6 6.3 1.4 9.9-.5 9.9-.5 0-1.2-1.4-1.6-3q-.6-2.7-1.3-2.8-2 .8-.4-3.5a6 6 0 0 0 .2-4.5l-2-4.6c-1.1-2.8-1.2-2.8-3.1-1.1-1.1 1-2 2.5-2 3.4q0 1.7 1.2.3 1.2-1.1 2-1.2c1.4 0 .9 2.7-.7 4-1.9 1.6-2 8.4-.1 9.9q1.4 1.1.9 5.1c-.5 3.8-.5 3.9 2.8 4.2q3.5.2 3 1.8a17 17 0 0 0-.2 4.1c0 1.5-.5 3.2-1.2 3.8-1.3 1-1 6 .8 14.1l.4 2.4q.3.7 2.1-.9 3.8-3.3 2.1 1.9c-.6 1.4-.8 3.3-.5 4.1s.1 2.2-.6 3c-1 1.2-1 2.1-.1 4.1 1.6 3.7 1.4 10.6-.6 13.4q-2 3-.1 1.2c1.3-1 1.7-1 2.2.3.3.9.1 2.5-.4 3.6q-1.2 2 .1 1.7c.7-.2 1.7 2 2.4 5.2a105 105 0 0 0 4.2 14.5c1.1 3.9 3.8 4.5 4.7.9.4-1.5.2-3.2-.3-3.7-1.3-1.3-1.4-3.7-.3-3.7.5 0 1.5 1.8 2.2 3.9 1.2 3.6 1.1 4.2-.9 6.7a10 10 0 0 0-2.1 4q-.2 1.3-1.2 1.4c-.7 0-2.1 1.1-3 2.4-1.5 2.1-1.5 2.5-.3 3 .8.3 1.5 1.5 1.5 2.6s.5 1.9 1.2 1.8c.7-.2 1.5 1.2 1.8 3.2.4 2.7 1 3.6 2.8 3.8q2.4.3 1.8 1.9a10 10 0 0 0-.6 2.9q-.1 1.3-1.4 1.4c-.8 0-2.2 1-3 2.1-1.3 1.9-1.3 2.4 0 3.6q2.5 2.5.4 3.8a2 2 0 0 0-1 1.7q0 1 1.3-.1c.7-.6 2.9-.9 4.7-.6 4.5.5 4.9.1 3.9-4.2-.8-3.8-.1-12.8 1-11.8.3.3.6 2 .7 3.8l1 9 .7 5.8-3.2 1.2c-3.5 1.3-3.8 2.3-1.4 5.6l1.6 2.4 2.4-2.9 2.3-2.9v3.2c0 2.8.3 3.3 2.5 3.3 1.4 0 2.5-.1 2.5-.3l-1.6-8.2c-.8-4.4-1.9-11.2-2.4-15a138 138 0 0 0-4.3-23.5c-.8-2.5-2-7.2-2.7-10.5-.6-3.3-2-9.2-3-13a93 93 0 0 1-2.5-16A90 90 0 0 0 266 779c-.6-1.9-1-5-1-6.9s-.5-4.9-1.2-6.8c-1.4-3.9-.9-4.7 3.7-4.5 3.5.1 20.8 8.6 25 12.2 3 2.5 7 3.7 16.8 5 10 1.4 11.9 3.3 2.5 2.5-15.5-1.3-18.5-1.8-24.2-4.7-5.4-2.7-8.6-3.1-8.6-.9 0 .5 2.5 2.3 5.5 4 4.8 2.7 7.1 3.3 19.9 4.6 8 .8 15.2 1.8 16 2.1 2 .8 2.9-1.2 1.4-3.5-.7-1.1-.9-2.3-.5-2.7 1-1 3.7 1.6 3.7 3.6 0 1 .7 2.3 1.5 3 3.1 2.5 1.5 3.1-6.2 2.4l-10.3-.8c-3.6-.2-3.2 2.7.5 3.4 2.8.6 2.5.7-3 2.3-6.9 2-8.7 2.9-9.3 4.5-.5 1.6 7.7 9.2 10.2 9.3 1.1 0 3.5.2 5.1.5q10.7 1.3 14.7-1.6c2.3-1.7 3.7-1.9 10.7-1.3 4.4.3 7.8.9 7.6 1.3s-3.6 1.1-7.5 1.4c-8.9.9-16.9 3.2-19.6 5.7-1.1 1-4.2 2.3-6.9 2.8-3.6.7-5.6 1.8-7.9 4.4-3.7 4.2-5.3 4.8-12.9 5.2-3.1.1-6.4.8-7.2 1.5-1.8 1.5-2 4.6-.4 5.6q1.2.7-.5 1.6c-.9.5-1.6 1.5-1.6 2.1 0 1.7 11.5 4.7 18.7 4.8l5.8.1-5.5 1.5c-3 .8-6.1 2.1-6.9 2.8-1.3 1.2-1.1 1.6 1 2.3 1.9.8 2.5.6 2.7-.8.3-1.7 4-3 8.6-3 1.2 0 3.1-.7 4.2-1.5 1.9-1.5 1.9-1.5-.1-3-1.4-1.2-3.4-1.4-8.1-.9-6.5.7-13.4-.1-13.4-1.5 0-.5 2.3-1.1 5.1-1.3 4.8-.5 8-2.1 6.7-3.4-.4-.3-3.4-.8-6.7-1.1-7.3-.7-8.2-2.3-1.1-2.2 6.5.2 15.6-3.4 17.3-6.9.9-1.9 2.5-2.9 5.9-3.8 2.6-.6 5.9-2.1 7.3-3.2 5.6-4.5 25.4-6.9 36.5-4.6 5.6 1.1 7.5 1.2 8.6.3s2.2-.8 4.8.6c3.4 1.9 3.7 2.4 5.1 11.2.3 1.7.9 4.2 1.4 5.5s2.1 7.3 3.5 13.3c1.5 6.1 2.9 11.9 3.3 13s.9 4.5 1.3 7.5c1.6 10.2 3.2 16 4.6 16 1.9 0 1.8-2.3-.6-11.5-2.7-10.4-2.7-13.5.1-12.8q1.8.6 1.5 1.8c-.3 1 .6.9 4.1-.1 7.4-2.2 7.1-.9-1.2 4.9-3 2.1-3.3 4.1-.5 3.2 2.5-.8 2.7 1.5.4 5-1.6 2.5-.7 3.4 1.3 1.4 1.5-1.5 2.8.8 1.3 2.5-.8 1.1-.5 1.9 1.6 3.5q4.4 3.5 6 1 .7-1.2 1.4.1c.4.6 2.1 1 3.7.8l3-.3-1.7-8-6-26.8c-2.4-10.3-4-19.1-3.6-19.4.9-.9 13.8 5.9 14.4 7.5q.3 1.1-2.5 1.2c-8.8.1-5.4 5.1 5.3 7.9 3.8 1 8.4 2.5 10.2 3.5 3.2 1.6 5.2 1.5 5.2-.5 0-.5-2-1.9-4.6-3.1-3.8-1.9-4.4-2.6-3.9-4.5.7-2.8-5.4-9.1-10-10.4-1.8-.5-4.8-2.2-6.8-3.7a60 60 0 0 0-6.4-4.3c-2.7-1.5-3.2-2.7-5.1-11-3.3-14.9-3.4-14.5 1.2-14.1 2.2.2 5.6 1.2 7.7 2.3 5.1 2.6 6.5 2.4 9.8-1.1l2.7-3 6.2 2.6c3.4 1.5 6.4 3.4 6.6 4.3.3.9.8 5.2 1.1 9.7.8 9.9-.3 11.6-5.6 8.5-1.9-1-5-2.2-6.9-2.5-4.8-.8-10.3-4.3-9.7-6.1.8-1.9-1.8-3.8-4.3-3-4.6 1.5-.6 8.4 6.3 10.8 2.3.8 6.1 2 8.5 2.6 5.8 1.6 11.2 6.5 11.2 10.1 0 1.6.7 6.2 1.6 10.2l2.4 12.3c.5 2.7 1.2 6 1.6 7.2.5 2 .3 2.3-2.1 2.3s-2.6.2-1.5 1.5c.7.9 2.2 1.4 3.4 1.3 1.8-.3 2.2.5 3.2 5.7l1.4 6.5q.2.6.1 2.3c-.2 1.3.5 1.7 3.1 1.7h3.3l-.3-5.3c-.3-4.2.1-5.8 1.7-7.7 1.8-2.1 2-2.2 1.5-.5q-.8 2 .4 1c1.4-1.2.4-5.5-1.2-5.6-4-.3-5.8-.7-6.6-1.5-1.5-1.5.3-9.9 2-10 3.1-.2 3.5-.5 2.1-1.3-1.1-.7-1.1-1.3 0-3.7 2.5-5 4-3.9 5.5 3.7.5 2.3-2.3 5.8-3.4 4.1q-.7-1.4-3 1.8c-2.2 3-2.2 3-.2 3q1.8.1 2 .8.5.9 3.3.4c2.7-.3 3.4.1 4.5 2.4a18 18 0 0 1 1.2 5c0 2.6-2.8 5.3-3.8 3.7-.4-.6-1.7.2-3 1.9-2.3 2.8-2.3 2.8-.3 2.8 2.2 0 2.8 1.4 1.1 2.5q-3.6 2.5 5.7 2.5c3.6 0 6.3-.3 5.9-.7s-2.5-.7-4.9-.7c-5.5-.1-5.9-2.7-.4-3.1 2-.1 4-.5 4.3-.8.8-.8-1.4-13.1-3.1-17.8-1.4-3.6-4.9-26-6-37.9l-1.1-10.5L453 788c-.5-8-1.2-16.4-1.5-18.7s-.2-4.3.2-4.6c1.2-.8 10.4 1.8 10.3 2.9 0 .5-1.5 1.4-3.3 2-3.4 1.1-4.3 3-3.3 7 1 3.7 4.6 3.3 4.6-.5 0-2.8 1.5-4.9 2.6-3.8.3.3.8 6.1 1 12.9.4 9.8.9 12.6 2.2 13.6q1.5 1 2.5.3c1-.7.9-6.7.9-13.7v-12.7l9.6.6c10.7.7 14.5-.3 15-4 .2-1.2-.6-3.1-1.7-4.2-1.9-1.9-3.3-2.1-13-2.1-10.8 0-13.7-.8-11.2-3.3.7-.7 3.6-.7 9.8 0 8.8 1 11.3.8 11.3-.8 0-1.8-4.4-3-12-3.2-4.4-.1-8-.5-8-.8 0-.7-.6-.6 12.3-1.5q9.6-.7 9.4-1.8a59 59 0 0 0-19.9 0c-2 .6-3.3-1.2-1.6-2.2.6-.4 5-.8 9.7-.9 10.1-.1 12.1-2 3.2-3-5.9-.7-5.9-.7-4-2.6q4.1-4-3.6-3.9c-6.2 0-9.5 1.5-10.8 5-.6 1.7-1.9 3-2.8 3-3 0-7.9 2.2-7.9 3.6 0 1.5 4.9 4.4 7.5 4.4q1.4.1 1.5.8c0 1.1-9.9 3.6-10.8 2.7-.4-.3-.8-4-1-8-.4-6.3-.1-7.8 1.8-10.4 1.2-1.7 3-3.1 4.1-3.1 2.5 0 2.4 1.4-.3 3.3l-2.3 1.6h2.3c2.5.1 6.2-3.1 6.2-5.4 0-.9-1.1-2-2.5-2.5-3.5-1.3-4-3.5-2-8.1 1-2.1 1.5-4.2 1.1-4.6s-2.4.1-4.4 1.2c-3.6 1.9-3.7 2.2-4.2 8.8-.3 3.7-.9 6.8-1.5 7-.8.2-1.4-3.1-4.4-26.8l-4.1-29c-4.5-30.8-6-44.5-5.4-48.6.5-3.1.2-4.1-2.3-6.9-2.2-2.5-3.8-3.3-6.1-3.2q-6.2.2.4-3.7 5.7-3.5 1.2-6.5c-1.3-.8-2.6-.7-5 .2-3.9 1.4-4.5 1-2.9-2.4 1-2.2.9-3.1-.4-5.1q-4.1-6-8.2-1.7c-2.9 3.2-2.9 5 .2 7.8 3.2 3 3.1 3.6-.4 3.6a10 10 0 0 0-5.6 2.6c-2.6 2.4-2.6 2.6-1 4.5 2.2 2.3 3.7 2.4 7.5.4 3.5-1.8 4.9-.3 1.6 1.8-1.2.9-2.9 2.9-3.5 4.6-1.1 2.5-1 3.5.3 6.2a15 15 0 0 1 1.6 5.2c0 1.2.5 4.6 1 7.6.6 3.1 2.6 16.1 4.4 28.9l3.3 23.2-2.1 2.5c-2.7 3.2-3.6 3.1-3.6 0 0-1.4-.7-3.7-1.6-5.1-1.9-2.8-3.5-2.1-6 2.9-1.4 2.5-1.4 3.1.1 5.3 1.2 1.9 2.4 2.4 6 2.4 5.1 0 6.3 2.4 2 4a7 7 0 0 0-3.7 3.6c-1 2.2-1 2.8.6 4 1.6 1.1 2.3 1.1 4.6-.1 2.8-1.5 5.8-4.5 4.4-4.5a7 7 0 0 0-2.8 1.5c-2.7 2-3.6 1.9-3.6-.5 0-1.8 3.3-4 6-4 3.3 0 5.4 12.2 9 52.5.6 6 1.5 14.3 2.1 18.3s.9 7.6.6 7.8c-.2.2-3-.5-6.2-1.6-7.6-2.6-8.2-2.5-10 1q-2.6 4.9-6.4 1.6A23 23 0 0 0 398 789h-3.7l-2.1-8.9c-1.2-4.9-3.3-15.8-4.7-24.3-2.3-13.7-7.9-41.6-10.5-52.3l-4.6-20c-2-8.8-4.2-18-5-20.4-.8-2.5-1.4-5.7-1.4-7.2 0-1.4-.7-4.3-1.5-6.2-2.1-5.1-1.9-5.7 1.5-5.1 6.1 1.3 10.5-4.7 5.9-8-1.8-1.2-2-2.1-1.5-5.1q1.5-7.4-2.8-7.5c-3.1 0-4.2 1.6-5 7.2-.8 5.1-2.2 6.3-3.1 2.5l-2.1-8.7a106 106 0 0 1-4.4-25.2c0-6-4.1-24-6-26.3q-1-1.3-.4-9.3c.5-6.5.3-8.8-1-11.6-2.2-4.6-6.2-7.7-9.7-7.4-1.6.1-3.7-.6-4.8-1.6l-2.1-1.9 2.1-3.3c2.3-3.7 1.9-5.1-1.7-6.4q-2.5-1-2.4-3.5c0-3-2.6-8.5-4-8.5-2.3 0-5.1 6.5-4.8 11.1.2 3.7-.2 5.1-2.4 7.8-1.6 1.8-2.8 3.9-2.8 4.6 0 3.1 5.3 3.8 9 1.1q1.2-.7-.7 1.5c-2.7 2.9-2.9 4.8-.8 7.5.8 1 1.5 3.2 1.5 4.7s1.1 4.9 2.3 7.5a26 26 0 0 1 2.6 9.6c.1 2.8.4 5.3.7 5.8 2.1 3.4 5.6 19.3 6.4 29.8.6 6.9 2 16.1 3 20.5s2.1 10 2.4 12.5c1.6 12.1 9.6 43.3 15.5 60a309 309 0 0 1 10.2 42.5c3.8 19.4 4.3 22.5 3.5 22.5-.4 0-2.8-1.1-5.4-2.4l-10.2-4.9c-7.1-3.1-9.3-5.6-12.5-14.2l-4.3-11.2c-1.5-3.9-1.5-4.4.7-11.1 2.1-6.6 2.2-7.1.6-10.3-4.1-8.6-4.9-9.9-6-9.9q-1.2-.1-2.9-1.8c-1.6-1.9-2.4-4.4-6.1-18.7-1-3.9-2.6-9-3.6-11.5a170 170 0 0 1-4.3-20.4 274 274 0 0 0-13.7-49.9c-2.2-6.6-2.7-9.3-1.9-10.7 1.6-3.1 1.2-11.7-.9-15.8a52 52 0 0 1-3.1-9.2c-.7-3-2.5-7.8-4-10.5a80 80 0 0 0-13.3-20.8 158 158 0 0 1-8.4-10.7 40 40 0 0 0-5.2-6.4q-4.8-4.3 1.5-12.9c4.7-6.5 9-19.4 9.9-29.4.8-9.1 2.8-17 5-19.8 1.5-1.9 1.6-1.8 1 1.8-.5 3.4-.3 3.9 2.5 5.5 2.2 1.2 3.3 2.8 4 5.7a33 33 0 0 0 7.4 14c2.1 1.6 6.4 1 11-1.2 2.8-1.5 3-1.4 6.7 2.9 2.1 2.3 3.8 4.6 3.9 5 0 .3 1.5 3.2 3.3 6.5s4.3 8.9 5.6 12.8a48 48 0 0 0 5 10.6c9.4 12.8 11.3 14.7 15.9 15.5 3.4.7 4.9 1.9 5.6 4.8q.5 2.4 3.6 2.9 3 .6 3 2.6c0 2.7 2.5 4.4 5.5 3.7 2.1-.5 2.8 0 5 3.4 3 4.7 5.7 6.6 10.7 7.5 3.1.6 3.7.4 4.3-1.4q.6-2 1.7-2.1.8.1.4 1.6-.6 1.5 7.7 10.7a429 429 0 0 1 21.2 24.6l8.6 10.5c3.4 3.9 6.6 8 16.7 21.4 6.9 9.2 7.1 9.6 7.4 13.2.3 3.1 0 3.5-2.2 3.8-5.5.8-9 7.3-5.5 10.2.8.7 1.5 2.9 1.5 4.9 0 2.7.7 4.4 2.5 6.1 3.5 3.3 6 1.8 6.1-3.6 0-2.2.3-4.6.7-5.4s.8-3.5.9-6c.3-5.1 1.9-6 2.8-1.5 1.1 5 2.9 7.4 7.1 9.6q7.3 3.8 9.5-1c.7-1.3 2.6-3.6 4.3-5.1 6.2-5.7 4.7-12.7-4.1-18.4a69 69 0 0 1-17.6-17.7c-1.2-2-3.5-5.3-5.2-7.4-1.6-2.1-3-4.2-3-4.6 0-1.3 2.8-1.1 3.2.3.6 1.7 3.8.2 3.8-1.8 0-.9-.8-2.3-1.7-3-1.7-1.3-1.7-1.5 0-2.8 1.3-1 1.7-2.8 1.7-7.5q0-9.9-3.4-3.3a15 15 0 0 1-3.2 4.3c-.9.8-2.5 2.6-3.4 4.2l-1.7 2.7-2.4-2.4c-1.3-1.3-4.6-5.7-7.4-9.7-2.7-4-5.7-8-6.5-8.8-6.2-6.6-8-10-8-14.7q0-4.9-2.5-9.8a27 27 0 0 1-2.5-6.1c0-.7-.9-2.4-2-3.8a11 11 0 0 1-2-6.5c0-2.2-.6-4.4-1.3-5s-4.6-1.2-8.7-1.4c-6.9-.3-7.5-.5-8.9-3-1.3-2.2-1.3-3-.2-5.1 1.9-3.5.5-6.6-3.7-8.4l-5.1-2.2c-2-1-7.9-12.9-11.6-23.5-1.7-5.1-2.4-6-5.5-7q-3.5-1-5.2-4.4a24 24 0 0 0-3.2-5c-.8-1-2.2-5.3-3.1-9.7s-2.3-9.5-3.1-11.4c-2-4.8-1.8-5.9 1.4-6.3l2.7-.3V431c0-14.5-2.5-20.4-10.2-23.6-2.6-1.1-3.4-2.3-4.8-7.1a20 20 0 0 0-10.7-13.4c-2.1-1.1-3.8-2.3-3.8-2.8s-1.8-3.1-4-5.9c-4.4-5.5-11-9.2-16.4-9.2-2.8 0-4.4-.9-7.9-4.5-4.7-4.8-5.3-5-7.7-3.5-1.2.7-1 1.4 1.5 4l3 3.2-4 3.4a23 23 0 0 1-8 4.4c-5.5 1.4-7 2.4-7 4.6q-.1 2 2.5 1.8c3.7-.3 9.2-2.6 13.1-5.5 4.4-3.3 9.3-4.2 15.7-2.8 4.5.9 5.6 1.7 9.4 6.6 4.7 6 6.1 7.4 13 13.4 2.8 2.4 5.2 5.5 5.9 7.7.7 2 2.1 5.4 3.2 7.5q3.3 6.5-1.3 6.7c-4.2 0-13 5.9-13 8.7 0 .7.5 2.2 1.2 3.3 1.1 1.7.7 2.4-2.9 5.5q-4.3 3.7-3.6 5.2c1.1 2.8-1.1.6-3.1-3.2l-2-3.6 2.3-1.5c2.9-2 7.1-8.8 7.1-11.4 0-3.2-2.4-2.3-4.5 1.6-2.2 4-7.4 8.2-8.4 6.7a178 178 0 0 0-21.3-25.6c-1.6-.6-2.8-1.8-2.8-2.5 0-1.4-.7-2.2-10.5-13.1a151 151 0 0 1-8-9.5l-4.7-6-1.6-2.1 8.4-.1c11.5-.2 15.1-1 17-3.9 1.4-2.2 1.4-2.7-.6-6.6-1.8-3.4-2-4.7-1.1-6.5 1.1-2.5 2.6-3.1 3.6-1.4.8 1.3 5.7 1.3 9.2-.2 1.5-.6 3.4-1 4.1-.9q1 0 1.2-.9t2.3-1c3 0 6.5-3.7 7.7-8.1l1.9-7.5c.6-2.3 2.7-6.1 4.6-8.5q3.5-4.3 5.1-11.5c2.1-8.8 1.4-13.3-3-18.2-2-2.3-3.5-5.2-3.9-7.7-.4-2.4-1.8-5-3.7-6.9-2.4-2.5-3.7-3-7.2-2.9-3.8.2-4.7-.3-9.4-4.7-5.1-4.8-5.5-5-11.6-5.2-14.6-.4-20.1.8-24.5 5.4-12.1 12.9-11 12-14.3 10.3-3.7-1.9-4.7-1.5-4.8 2.4a5 5 0 0 0 2.4 4.6c3.6 2.4 2.5 4-2.5 3.6-2.3-.1-4.8.3-5.6.9q-1.3 1.2-3.4.1c-3-1.7-3.7.6-1 3.5a8 8 0 0 0 5.1 2.4q4.8 0 1.3 4.8c-.9 1.2-1.5 3-1.3 3.9q.4 1.9-2.7 2.1c-1.6.2-3.4.7-3.8 1.1-.8.8 5.8 8.1 7.4 8.1q.8.2.3 2.5c-.6 2.5.2 3 6.6 3.7q2.5.3 2.8 2.6c.4 2.7-2.2 4-4.4 2.1a63 63 0 0 0-14.4-5.6c-3-.7-7-4.1-7-6 0-.7-2.1-3.5-4.7-6.1-14.3-14.4-39-46-46.5-59.5l-3.7-6.9 1.4-5.6c2.1-7.7 1.9-8.7-1.5-11.5-1.6-1.4-3-3.5-3-4.7q.2-2-4.4-4a22 22 0 0 1-5.6-3.5c-.7-.8-1.9-1.5-2.7-1.5s-2.8-.8-4.5-1.8c-2.8-1.6-3-1.6-4.2 0-.7 1-1.7 1.8-2.2 1.7-1.3-.1-14.6-15.4-18.6-21.4-1.8-2.8-4.2-6.8-5.3-8.9a56 56 0 0 0-7.6-10 55 55 0 0 1-7.2-9.6c-2.1-5-5.6-7.8-11.5-9.2-2.9-.7-5.2-1.8-5.2-2.4 0-.7 1.6-2.2 3.6-3.3q7.3-4.5-1.9-7.5c-1.5-.5-1.7-1.2-1.2-3.7.8-3.3-1-7.9-3-7.9-1.3 0-5.5 8.3-5.5 11q-.1 1.8-1.4 2c-2.1 0-2.7-3.9-1.1-7.7 1.3-3.1 1.3-3.8-.5-7.3-1.8-3.6-5.4-7-7.3-7q-.7.2-1.4 1.5m5.7 6c2 3.2 2.1 7.5.1 7.5-1.1 0-2.8-3.9-3.5-7.8q-.9-6.3 3.4.3m13 7.2c0 1-1.2 2.6-2.5 3.6-2.9 2.1-3.1 1.6-.8-2.4q3.2-5 3.3-1.2m-1 9.5q0 2.4-1.1 1.1-1-1.1-.5-2.2 1.6-2.5 1.6 1.1m5.5-.2c-.3.5-1.3 1-2.1 1s-1.2-.5-.9-1 1.3-1 2.1-1 1.2.4.9 1m-21.3 3.8c1.2 1.4.8 1.5-2.6.9-4.3-.7-5.1-1.1-4.2-2.5s5.3-.3 6.8 1.6m29.3 11.7c3.1 3.8 5.5 8.9 5.5 11.7q-.1.8-1.4.8c-.7 0-2.1 1.2-3.1 2.6-2 3-3.2 2.6-1.5-.6 1.5-2.7-.8-7.8-5.7-12.9-3.2-3.3-3.3-3.6-1.7-4.8 2.8-2 3.9-1.6 7.9 3.2m3.7 18.7-2.2 2.2 1.2-3.2q1.3-3.1 2.2-2.2 1 1-1.2 3.2m10.1.7c1 .8 1.5 2.2 1.2 3.2q-.7 1.8 2.1 3.1c1.5.7 4 3.8 5.7 6.8 1.6 3 4.9 7.9 7.2 10.8l4.3 5.2-3.1 3.3c-3.3 3.3-4.8 2.6-2.7-1.4 1.6-2.9 0-4.5-2.9-2.9-2 1-2.1.9-1.5-2.7.4-3 .1-4.3-1.6-6.1-2.3-2.5-4.9-2.8-6.9-1q-1.4 1.4.3-2.6 3.6-8.5-1.5-2.6c-3.3 3.8-3.4 3.5-1.4-4l.6-2.5-2.1 2.7c-1.2 1.6-2.6 2.8-3.1 2.8-1.1 0-1.2-3.3 0-4.6 1.3-1.4 2.3-6.4 1.2-6.4q-1 .2-2.5 2.5c-2.8 4.2-3.6 2.8-1.3-2.3 2.3-5.2 3-5.3 8-1.3m-8.8 33.7c3.5 2.3 3.1 3.8-.5 1.9-1.6-.9-3-2-3-2.5 0-1.4.7-1.3 3.5.6m31.5.3q0 1-1 1.6-.9.4-1-.9.1-1.5 1-1.6 1 0 1 .9m11.9 9.7c-.6.8-1.6 1.4-2.1 1.4-1.3 0-.2-5.8 1.5-7.8 1-1.3 1.2-1 1.5 1.7.2 1.8-.2 3.9-.9 4.7m-7.5-4c.9 2.3.7 6.4-.3 6.4-1.8 0-3.3-3-2.7-5.5.7-2.8 2.1-3.3 3-.9m15.1 4.7c-.8 2-2 3.7-2.5 3.7-1.3 0-1.3-1.6.1-6.4.9-3.4 1.3-3.7 2.5-2.4 1.3 1.2 1.3 1.9-.1 5.1m6.5.9c0 4.5-3.2 13-4.4 11.8a57 57 0 0 1 1.9-12.8c.7-2.1 2.5-1.3 2.5 1m-18.1 4.2q1.2 1.4.2 2-1 .4-2.1-1.4c-1.2-2.3.2-2.7 1.9-.6m7.9 5.6c.2 2.3.1 2.4-1.1.7q-1.4-1.5-2.6-1.7-1-.1-1.1-1.1.2-1 2.3-.7 2.2.3 2.5 2.8m17.4-.2c-.6 4.2-3.2 9.2-4.8 9.2q-1.8.2-.9-2.3c.4-1.2 1-3.9 1.2-6 .4-3.2.9-3.8 2.7-3.5q2.3.2 1.8 2.6m-28.8 7.9c2.5 2.8 2.7 3.5 1.6 4.8s-1.1 1.8-.2 2.4.7 1.4-.8 3.3a10 10 0 0 0-2 4.2c0 2.8 3.4 1.7 6.4-2 2.5-3.1 3.3-3.5 6-3.1l4.7 1.1c.8.4 2.5-.2 3.8-1.3 3.2-2.8 4.5-1.6 2.4 2.1-2.5 4.3-5.4 5.4-10.3 3.9-4.7-1.4-5.3-1.1-7 2.9-1.5 3.5-2.2 3.7-6.5 1-5.2-3.2-7.5-9.9-4.9-14.8.7-1.5 1.4-3.9 1.4-5.3 0-2.8 1-4.4 1.9-3.2zm13.1 2.3c-.3.5-1.2 1-1.8 1q-1 0 .3-1 2.8-1.8 1.5 0m17.5 12.6c0 2.4-1.7 1.5-2.2-1.1q-.7-2.9.8-1.4c.8.6 1.4 1.8 1.4 2.5m-41.4 4.9c3.3 1.4 7.1 3.2 8.6 4 1.4.8 3.3 1.5 4.1 1.5 2.7 0 6.1 3.5 5.3 5.5-.6 1.6-.8 1.6-2.4.2a50 50 0 0 0-16.9-7c-4.4-.9-5.6-.9-6.3.2-1 1.7-7 2.5-7 1 0-2.1 2.1-4.9 4.8-6.3 3.5-2 3-2 9.8.9m50.8 5.6c5.1 7.2 5.7 8.4 4.7 10.5-1.6 3.6-3.4 3-2.5-.8.6-2.9.5-3.1-.9-1.9-2.4 1.9-3.8.5-2.5-2.4 1.6-3.5.3-4.3-2.2-1.4-2.8 3.4-4.3.9-2.3-3.8 1.5-3.7 1.1-5.5-.9-3.5q-2.7 2.6-2.8-.6c0-1.7 1.8-4.2 3-4.2a81 81 0 0 1 6.4 8.1m-24.4.6c2.5 3.1 6.4 7.7 8.8 10.3 2.3 2.6 4.2 5 4.2 5.4s-1.5.4-3.3.1c-4.8-.9-8.2 2-7.2 6.3.8 3.7 4.7 7.2 8.1 7.2 2.1 0 2.4.4 2.2 3.8-.2 5.3 1.7 8.4 4.9 8 2-.2 2.9-1.2 3.8-3.7l1.1-3.3 1.5 2.3q1.5 2.2 5 2.5c2.7.2 4.4 1.3 8.2 5.4 5.1 5.6 6.1 8 2.2 5.4q-2.5-1.5-4.2-.8c-1 .4-2.5.8-3.3.8-2 .1-2.5 3.4-.7 5.4.8.9 1.7 2.6 2 3.7l1.2 4.1c.5 1.8 0 2.4-2.6 3.3l-3.2 1.1.5 8.2a53 53 0 0 1-10.1 33.8c-2.6 3.2-2.7 1.8-.2-1.8q2-2.6 3.9-16.7c3.2-21.5 3.3-23 1.8-25.1-1.3-1.7-1.5-1.7-3.9-.2-2.9 2-3.9 7.9-3.3 20.1a37 37 0 0 1-5.1 21.3c-2 4-1.1 6.8 2 6.2 2.3-.4 2.3-.4-.8 5.8-4.6 9.1-4.9 9.4-9.3 8.2l-5.9-1.5c-2.3-.5-2.3-.6-.4-3.2a94 94 0 0 0 12-33.1c2-12.3 2.3-26.1.8-31.3-1.8-5.7-.8-6.1 4.6-1.6 4.8 4 7.2 3.3 6.3-1.6-.7-3.4-.6-3.5 1.9-2.5 3.7 1.4 4.5 1.3 4.5-.9 0-2.9-4.7-4.4-10.3-3.2-3.5.8-5.2.8-7.4-.3l-7.5-3.7-4.7-2.3-2.4 2.2-2.3 2.2-2.1-2.2c-2.3-2.2-6.8-2.8-11-1.3-2.2.7-2.1.4 1.2-7.8 1.9-4.7 4.2-11.7 5.1-15.7 1.4-6.4 2-7.4 5-9.2 2.9-1.7 3.4-2.6 3.4-5.6q0-3.5-2.2-5.9c-1.9-2-2-2.5-.8-3.3 2.5-1.6 3.4-1.2 8 4.7m139.1.3c1 .6 1.9 2 1.9 3.2 0 2.1 0 2.1-2.5-.2-3.7-3.4-3.4-5.1.6-3m-166.7 3.5c1.4 1.4 3.2 2.5 4.1 2.5 1.3 0 1.5.7 1 3.4-.6 2.9-.3 3.7 1.8 5l2.4 1.7-2.2 8c-2.9 10.2-3.5 10.8-8 8.6-4.3-2.1-4.5-2.1-4.5-.3 0 .7 1.7 2.6 3.7 4.2 4.1 3.1 3.1 4.4-1.6 2-4-2.1-5.1-2-5.1.4q0 2 3.6 3.5c3.6 1.5 3.7 1.6 1.9 3.5-1.7 1.9-2 1.9-3.6.4-1.9-1.7-4.9-1.3-4.9.6q.2 1 2.5 2.2c2.3 1 2.4 1.2.9 4.1-2.1 3.9-.4 5.9 2.6 3.2 1.9-1.8 2-1.8 2 .3q-.1 4.8 6.2-1.5c3.5-3.4 3.8-3.5 3.8-1.5 0 3.2 2.6 2.7 4.7-.8 2-3.5 2.9-3.7 3.6-1q.4 2 2.1 1.4a8 8 0 0 1 4.6.6c2.4 1 3.3 1 4.5 0 3.8-3.1 5.8 4.4 5 18.3a116 116 0 0 1-4 25.6c-.3.3-1.5-.4-2.6-1.5-1.6-1.6-1.8-2.6-1.1-4.5.6-1.4 1.1-4.5 1.3-6.9.3-3.6.1-4.5-1.3-4.8-1.8-.4-2.6 1-4.7 7.8q-1.3 4.6-.6.5l1-6.8c.5-2.9.2-3.9-1.1-4.4q-3.5-1.2-4.9 7.2c-1 6.7-2.6 5.5-2.3-1.7.3-5.3 0-6.3-1.5-6.6-1.8-.4-2.2.3-3.2 6-.3 2.1-1.1 3.8-1.6 3.8q-1.2 0-.4-7c.6-6 .5-7-.9-7-1.8 0-3.5 2.9-3.7 6.2q-.2 1.8-.8-1.7c-.9-6.3-3.6-5.3-5.8 2-.4 1.6-1.5 3.1-2.4 3.3-1.2.2-1.6-.7-1.7-4.4q-.2-8.1-3.6-5.5a10 10 0 0 0-2.2 3.4c-1.7 5.7-6.3 7.4-9 3.3-.8-1.4-3.1-3-4.9-3.6s-4.7-2.6-6.3-4.5c-2.6-2.9-2.9-3.9-2.5-8.2.7-6.2 8.5-22.7 16-33.8l7.8-11.9c10-16.8 11.2-17.8 15.9-13.1m165.1 2.5q.4.9-.4 1-1-.1-1.1-1 0-1 .4-1t1.1 1M189 287.2c0 .4 1.4 2.7 3.1 5.2q4.6 6.5.3 6.6-1.4 0-1.4-3.2c0-3 0-3.1-2-1.3-2.4 2.2-3.6 1.4-2.1-1.3 1.6-3 1.5-4.7-.3-3.3-2 1.7-3-.3-1.5-3.1 1-1.8.8-2.4-.7-3.5q-1.7-1.2-2.6-1.3-.7-.2-.8-1.7-.2-1.9 4 2.2c2.2 2.1 4 4.3 4 4.7m95.3-5c.9.7 1.9 2.6 2.3 4.3q.6 2.8-.2 2l-3.8-4.3c-3-3.3-1.9-4.6 1.7-2m27.5 1.6q.2 1.1-2.3 1.2c-2.4 0-2.6-.2-1.5-1.5 1.4-1.7 3.1-1.6 3.8.3m-133.4 6.7q-.7 2.8-1.5 1.4c-.4-.7-.3-2.1.3-3.2 1.3-2.6 2.1-1.5 1.2 1.8m79.1-1.5q.4.9-.4 1-1-.1-1.1-1 0-1 .4-1t1.1 1m-94.2 1.7c1.4.9.7 4.3-1 4.3-1.8 0-6.3-3.8-6.3-5.3 0-.8 5.5-.1 7.3 1m113.9 0c1.4 1.3 2.1 1.4 3 .5q2.6-2.7 3 1c.4 3.1 5.2 5.4 8.3 4 1.9-.9 2.2-.8 1.8.7-.5 2.1 2.8 5.2 7 6.6 3 1 3.2 1.3 2.9 5-.2 2.1-.7 4.6-1.2 5.6s-.6 2-.2 2.3c.4.4.7 2.3.7 4.2 0 2.9-.3 3.4-1.8 3-2-.5-4.1 2.2-5.1 6.6a9 9 0 0 1-3.2 4.5c-1.5 1-4.3 3.6-6.3 5.8-9.2 10.1-8.9 9.9-11.6 8.1-2.1-1.4-2.7-1.4-5.1-.1-3.5 1.8-4.6 1.1-11.8-6.2l-5.6-5.8V330c.1-3.6-.2-8-.6-9.8s-.2-4.3.4-5.5c.5-1.2 1.6-3.7 2.2-5.5s2.6-4.9 4.1-6.9c1.6-2 2.9-4 2.9-4.6 0-1.4 5-6 8-7.4q5.2-2.4 8.2.4m-20.7 8.4c-.6.9-3.5.1-3.5-1q0-.8.7-1.4c.8-.9 3.4 1.3 2.8 2.4m-80.5-.2c0 .5.3 1.6.6 2.4q.7 1.7-1.5 1c-2.4-.6-2.3-.5-1.5-2.7.7-1.7 2.4-2.2 2.4-.7m26.5 6c1.1 1.8 3.9 5.9 6.3 9.1 2.3 3.3 4.2 6.9 4.2 8.1 0 3.3-2 6.1-3.7 5.5-.9-.4-2.4.1-3.3.9q-1.9 1.9-2.6.4-.6-1.2 1.7-3.1c4.5-3.4 4.9-3.9 4.9-6.1v-2.2l-1.8 2.2c-1.5 2-4.9 2.9-9.3 2.5-3.7-.4-2.3-10.1 1.6-11.6 1.7-.6 2.1-4.6.5-4.6-.6 0-2.1.7-3.4 1.5-1.9 1.3-2.5 1.3-3.4.2-.8-1-.7-2.2.6-4.9 1.5-3.3 1.9-3.5 3.7-2.4 1.1.7 2.9 2.7 4 4.5m105.5-2.8q0 .8-1 .9-.9-.1-1-1.6.1-1.3 1-.9 1 .6 1 1.6M170 304q0 2-2 2c-2.2 0-2.8-2.5-.7-3.3 2.2-1 2.7-.7 2.7 1.3m25 7.4c0 1.1-1.9 1.5-2.5.6q-.4-.9.9-1 1.5 0 1.6.4M307 326q-.1.8-1.5.4-1.3-.7-.9-1.5c.6-1.1 2.4-.2 2.4 1.1m-90.4.5c.8 2.1-3.1 7.2-6.2 7.9q-6.1 1.7-.1-3.8c2-1.9 3.7-3.9 3.7-4.5 0-1.6 2-1.3 2.6.4m-25.4 18c.1 9.5-.2 13.2-1.7 17.8-1.4 4.3-1.6 6-.7 6.9 1.7 1.7 4.6-1.3 6.1-6.4.7-2.3 1.6-10.2 2.1-17.7.6-10.9.5-14-.6-15.6q-2.4-3.5-.5-3.5 1 .1 1.6 2.1a103 103 0 0 0 14.1 20.1c2.4 2.6 4.4 5.3 4.4 6.1 0 2.7 3.9 6.3 8 7.6s4.2 1.3 3.5 4.8a8 8 0 0 0 1.1 6c1.6 2.5 1.5 3-1.6 12.7a100 100 0 0 0-6.5 25.9c-.6 3.1-.3 4.4 1.6 7.2 3.1 4.4 6.1 5.2 9.9 2.5 4.6-3.3 9.6-10 11.4-15.5 1.8-5.3 6-10.5 8.6-10.5 1.6 0 21.3 22.7 28 32.2 3.2 4.6 3.3 4.8 1.6 6.7a60 60 0 0 0-12.2 31.5 74 74 0 0 1-3.9 25.2 55 55 0 0 1-8.4 17.4 45 45 0 0 0-3.6 5.5 5 5 0 0 1-3 2.3c-2.8.5-5.5 3.2-5.5 5.3 0 2.3 3 3.2 6.3 2 2.3-.9 3.2-.5 8.1 4.2 6 5.8 14.8 18.3 18.5 26.4 1.3 2.9 3.4 5.6 4.7 6.2 1.7.7 2.8 2.6 3.9 6.8.9 3.2 2.3 7.6 3.1 9.8 1.8 5.3 1.8 6.1-.3 4.2-1-.8-3.5-1.8-5.5-2.2-2.1-.4-4.2-1.3-4.9-2.1-1.8-2.2-11-1.7-18.1 1-11.7 4.4-18.1 8.7-20.4 13.5-2.6 5.5-4.2 6.7-12.2 9.1-5.9 1.8-6.5 1.9-8.8.3-2.1-1.3-3.1-1.4-6.5-.4-2.3.7-4.4 1-4.7.6-.3-.3 2.8-3.9 6.9-8a75 75 0 0 0 18.5-32.5c2.9-9.8 9.2-24.8 11.8-28.3 1.8-2.4 1.8-2.9.5-4.3s-1.8-1.2-4.3.7a59 59 0 0 0-9.6 17.5 81 81 0 0 0-5 13.4 67 67 0 0 1-8.6 21.5c-4.5 7.3-14.6 17.1-16.4 16q-1.1-.5-2.5.5c-1.1.9-2.2.9-4.7 0-2.6-1-4.1-.9-7.4.2s-4.9 1.2-7.5.4c-4.9-1.6-4.1-4.4 3.2-12.4 3.3-3.7 8-9.6 10.4-13.2s5.3-7.1 6.4-7.8q2.1-1.3 2.1-4.1c0-1.7.4-3.2.9-3.5s1.1-2.1 1.4-4c.8-4.7 12.7-19.9 12.7-16.1l-1.1 2.9c-.9 2-.9 2.9.1 4.1 1.7 2 2.6 1.2 5.5-4.5q5.5-11-1.5-6.8c-1.7 1.1-2.2 1-3-.2q-2.3-3.3-11.6 8c-5.4 6.7-7.4 10.5-7.4 14.2 0 1.2-1.9 4.2-4.2 6.8s-6.5 7.7-9.3 11.4c-8.5 11.5-8.8 11.7-13.5 12.7-9.3 1.7-14.4 1.2-18.5-2.1-2.1-1.7-5-3-6.4-3s-3.5-.6-4.6-1.4c-3.1-2-11.3-4.4-18.1-5.1-4.8-.5-6.9-.3-9.4 1-1.7.9-3.4 1.5-3.6 1.2-.2-.2 0-2.6.5-5.3l2.2-11.8a119 119 0 0 1 21-46.5c10-13.6 13.5-17.6 16.4-19 1.7-.7 4.1-2.7 5.4-4.3 2.4-3 2.4-3.2.8-6-1.9-3.3-2.2-7.4-.7-8.3.5-.3.7-2.5.4-4.8s.2-8 1.1-12.7 2-14.1 2.6-21c.5-6.9 1.4-13.5 1.9-14.8 1.6-3.7 1.2-6.3-1-6.9-2.9-.8-2.4-4 .9-5.7 2.2-1.2 3.6-3.5 6.6-11.1 2.1-5.3 6.2-13.3 9-17.8s6.4-11.9 7.9-16.4c2.6-7.6 2.8-9 2.1-17.3q-.8-9.2.4-10.4c.7-.8 1.1-2.5 1-3.8v-4.3c.7-4.8 2.1 5.9 2.3 17m31.2-12.6c2.6 2.7 2.7 3.2 1.6 6.5-1.2 3.8-2.1 4.4-3.8 2.3q-1-1.2.4-3.1c3.2-4.4 1.2-4.9-3-.7-5.7 5.6-7.8 4.6-3.1-1.6 1.9-2.5 3.5-5 3.5-5.4q.1-2.4 4.4 2m10.4 1.1c2.1 2 3 5 1.5 5-1.2 0-5.3-4.6-5.3-5.9q.1-2.5 3.8.9m17.9 5.2c1.7 2.4 4.5 5.8 6.2 7.5s3.1 3.7 3.1 4.2 1.4 1.4 3.1 2.1c2.4 1 4.1 1.1 8.1.1 2.8-.6 5.3-.9 5.6-.7s-.6 2.4-1.9 4.7c-3.2 5.7-10.9 10-14.2 7.9-1.2-.8-3.5-2-5-2.8a9 9 0 0 1-3.8-3.6c-.6-1.2-3-3.3-5.4-4.6a20 20 0 0 1-5.8-4.9c-1.7-3-1.2-9.1.9-9.1.7 0 2.1-1.1 3.1-2.5s2.1-2.5 2.4-2.5 1.9 1.9 3.6 4.2m53.4 2.1q-1.4 1.4-.5-.6.6-1.6 1.2-1.2.4.6-.7 1.8m-73.3 2.6a54 54 0 0 1 8.2 10c.7 1.3 3.2 4.8 5.6 7.8q4.3 5.3 3.7 6.9c-.6 1.5-.8 1.5-2-.2-.7-1-1.3-2.5-1.3-3.3q0-1.5-3 1.4-5.6 5-2.6-1.4c.9-1.6 1.6-4 1.6-5.3-.1-2.2-.3-2.1-3 1.1-3.4 4-5.2 3.4-2.7-.8q3.2-5.2.1-5.1-1.5-.1-2.1-2.1c-.5-1.9-.8-1.8-3.3 1.3-1.6 1.8-3.1 3-3.6 2.6q-.5-1 .8-2.5a11 11 0 0 0 1.6-5.7l.2-3.9-2.4 2.2c-3 2.8-4.3 1.2-2-2.4q2.7-4.5 6.2-.6m-8.6 9.6c-.2 1.4-.8 2.5-1.3 2.5q-1.5 0-.3-3.4c1-2.5 2.2-1.9 1.6.9m9.9 5.8c-1.3 1.3-2.6.3-1.6-1.2q.6-1 1.7-.5 1 .6-.1 1.7m21.5 11.8c.3.6-.1 1.8-1 2.7-1.4 1.4-1.8 1.5-2.5.3q-.8-1.4-.4-2.8c.6-1.6 2.9-1.7 3.9-.2m-18.6 2.6a34 34 0 0 0 6.2 8.6l6.1 6.9-2.5 2.1c-3.3 2.9-5.1 6-7.2 12.7-2.6 8.2-6.8 12.1-10.6 10q-2-1-2-4.3a46 46 0 0 1 6.1-20.1 20 20 0 0 0 2.4-16.6q-.8-2.2.4-1.6 1 .8 1.1 2.3m10-1.3q0 .6-1 1.1-.9.4-1-.4.1-1 1-1.1 1 0 1 .4m19.6 12.2c1.3 1.9 1.2 2.6-1.2 6.3-2.1 3.2-3 3.8-4.1 3-1.7-1.5-1.7-3.5.1-4.2 1.5-.6 3.2-6.4 2.2-7.4-.3-.4-1.7.6-3 2-4.1 4.4-6.2 3.5-2.6-1q4-5.3-.5-5.3-2.6 0-2.5-1.8c0-1 .3-2.2.7-2.6.7-.7 8.1 6.7 10.9 11m4.8 6.3c.3.5-.2 1.9-1.2 3.1l-1.8 2.2.2-2.8.3-3.2c.3-.6 2-.1 2.5.7m4.1 7.1c-.9 2.8-2.9 2.5-2.1-.3.3-1.2.6-2.9.6-3.7q0-1.8 1.1.3c.6.9.7 2.6.4 3.7m-4.7 6.6c-.9.8-4.9-5.7-4.2-6.8q.8-.9 2.6 2.6c1.1 2.1 1.8 4 1.6 4.2m10.2-2.2c0 1.1-1.9 1.5-2.5.6q-.4-.9.9-1 1.5 0 1.6.4m6.8 6.3c2.4 2.2 17.7 21.5 19.3 24.5.7 1.2 2.3 3.3 3.6 4.7 3.7 3.9 6.1 10.8 2.8 8.1-.8-.7-1.5-1.8-1.5-2.4s-.9-1.7-2-2.4-2-2.1-2-3.2c0-2.4-1.5-2.6-2.4-.3q-.7 1.7-1.7.6-1.2-1.1 0-3.1 3.2-6-3.4 1.3-4.3 5-4.5 3.3c0-.9 1.1-2.5 2.3-3.5 2-1.6 4.3-7.3 2.9-7.3-.2 0-2 1.3-3.9 3-3.8 3.3-4.8 3.6-5.6 1.6q-.6-1.4 1.2-.9t3.4-3.2c.9-2 1.7-4.3 1.7-5.2 0-1.4-.2-1.4-2 .2-1.1 1-2.3 1.6-2.6 1.3-.7-.8-.7-3.9.2-6.7.6-2.1.5-2.2-1.5-1.2-1.1.7-2.1 1.8-2.1 2.5 0 2-2.8 3.9-4.7 3.2-1.5-.6-1.4-.8.5-2.2 2.4-1.7 5.7-7.3 4.8-8.2-.3-.3-1.4.2-2.3 1-1 .8-3.1 1.8-4.6 2.2l-2.8.7 2.5-3.8c3.1-4.5 3.3-5.6.6-4.8q-1.8.5-2-.4c0-1.7 3.6-1.3 5.8.6m58.2 10.2c0 .9-.5 2.2-1.2 2.9-1.4 1.4-6.7 1.6-8.8.2q-1.8-1 1.7-1c3.1 0 6.3-2.1 6.3-4.1q.1-.9 1-.4c.6.3 1 1.4 1 2.4m3.9 18.5c-.5.5-2.6.2-5.1-.7-6.4-2.5-9.9-2.1-14.6 1.3q-7.2 5.2-4 1.2c.9-.9 2.2-3.1 3.1-4.7q1.5-3.1 4.4-3.2c4.4-.2 13.1-2.7 14.5-4.1 1.1-1.1 1.4-.4 1.9 4 .3 2.9.2 5.7-.2 6.2M63 430.2q0 3.6-1 1.8c-1.3-2-1.3-5 0-5 .6 0 1 1.5 1 3.2m-10.5 7.9q.6 2-.3 3.1c-1.5 1.5-5.2-.9-5.2-3.2 0-2.9 4.6-2.7 5.5.1m236.3 4.6c-1.5 1.9-2.8 1.6-2.8-.6q0-1.8-1-2.6-.7-.6-.3-2.2c.5-1.3 1-1.1 2.9 1.2 1.7 2.2 2 3.2 1.2 4.2m11.2-.3c0 1.5-1.8 3.1-2.6 2.3-.7-.7.7-3.7 1.7-3.7q.8.1.9 1.4m23 2.7q-.2.8-2 .9c-2.2 0-2.7-1.6-.7-2.3 1.5-.5 2.7.1 2.7 1.4m20.4 4.1c.9 1.2 1.6 3.7 1.6 5.5s1.1 5.8 2.4 9l3.7 9.3c.7 1.9 3.7 5.7 6.5 8.5a48 48 0 0 1 11.4 18.8c0 .7 1.3 3.9 2.9 7s2.5 5.4 2 5.1c-1.3-.8-11.9-13.9-14.9-18.4a258 258 0 0 0-17.7-21.2c-2.4-2.6-4.3-5.5-4.3-6.6s1.4-2.8 3-4q5-3.7 1.3-4.9c-4.1-1.5-5.5-6-2.7-8.7 2.1-2.1 3-2 4.8.6m-27 .4c.8 2.1-.9 5-3.5 5.7-1.9.5-2 .4-.5-1.2q1.4-1.6 1-2.4c-.9-.8.3-3.7 1.5-3.7q.9.1 1.5 1.6m-19.6 5.3q-.4 1.5-2.5 1.3-2-.2-2.8.8c-.8 1.3-2.5.3-2.5-1.6 0-.7 1-2.5 2.2-4l2.3-2.5 1.8 2.2c1 1.2 1.6 2.9 1.5 3.8m23.2 1c0 2.3-2.8 4.8-6.4 5.7l-3 .7 3.8-4.6q5.6-6.9 5.6-1.8m15 .6q-1.2 1.4-2.2 1.5-.9-.1.2-1.5c1.1-1.4 1.7-1.5 2.2-1.5q.9.1-.2 1.5m-279.5 3c1 4.5 0 8.8-2.2 9.6-2.1.8-2.2.6-1.7-4.4.4-4.4.3-4.9-.7-3-1.6 3.1-3.1 2.9-2.3-.2.6-2.4.4-2.5-2.7-2.3-2.5.2-3.5.9-4.3 3-1.1 3.1-3.3 3.2-2.8.2.6-3.5 3.5-4.9 10.1-4.9 5.4 0 6.2.2 6.6 2m254.5-1.1q0 .5-1 1.1-.9.4-1-.4.1-1 1-1.1 1 0 1 .4m14 2.1 2.4 2.5-3.9 4c-2.1 2.2-4.1 3.7-4.4 3.4q-.4-.6 1.2-1.5c.9-.6 1.7-2 1.7-3.2s.6-2.9 1.3-3.7q.9-1.2-1.3.5a26 26 0 0 0-3.7 3.4q-1.2 1.3-1.9.8c-.6-.6 4.6-8.6 5.7-8.7.3 0 1.6 1.1 2.9 2.5m-22.1.7c-.1 2.5-1.5 4.6-4.6 7.3-2.9 2.3-3.3 2.4-3.3.8 0-1 1.4-2.6 3-3.5q2.9-1.7 3-3.8.1-1.8 1-2 1 .2.9 1.2m26.6 5.8q.4.9-.9.4-2.8-1.2-.7-1.4 1 0 1.6 1m2.8 3.4q.6 1.5-1.6 1.8-2.4.1-2.5 3.5c-.2 1.9.1 3.3.7 3.3 1.7 0 5.2-4 4.6-5-1.5-2.4 1.2-.6 6.1 4 2.9 2.7 5.7 5 6.2 5s4 3.9 7.8 8.7a997 997 0 0 0 18.4 22.9 299 299 0 0 0 11.2 13.2c3.7 4.1 7.3 8.8 8 10.3.7 1.6 2.1 3.2 3 3.5 2.6.8 2.2 2.4-.6 2.4-1.3 0-3.3.3-4.3.7-1.7.6-1.7.6 0-1.4q3.4-4-.3-2.3c-1.7.9-7 .5-7-.6 0-.2 1-1.4 2.2-2.6 2-2 2.1-2.3.6-2.6-.9-.2-2-1.2-2.3-2.3-.8-2.5-2.1-2.4-6.1.6-4 3.1-5.9 1.4-2.2-1.9 5.3-4.5 3.7-7.5-2.2-4.1-4.8 2.7-5.5 1.5-1.5-2.3l4-3.7-3.4-.3c-1.8-.2-3.8.1-4.4.7-1.5 1.5-2.7 1.4-2.7-.2 0-.6 1.3-2.1 3-3.2 4.3-2.9 2-4-2.9-1.4-5.6 2.9-6.4 1.6-1.8-2.6 3.2-3 5.1-6.4 3-5.3l-3.8 1.7-4.9 2.3q-2.1 1.2 1.2-3c3.6-4.4 4-5.7 1.6-4.8-2.6 1-3.5-.4-1.8-3 2.5-3.7-.2-3-4.3 1.1q-3.7 3.8-4.7 2.5-1.2-1.1 1-2.8c2.2-1.7 4.1-7.2 2.6-7.2-.5 0-1.9 1.1-3.2 2.5-2.6 2.7-5 3.3-5 1.2 0-.8.9-2.2 1.9-3.1 1.8-1.7 2.5-5.6 1-5.6-.3 0-1.8.9-3.2 2-3.6 2.9-3.7 2.6-1.1-2.7q3.8-7.7-.3-4c-1 .8-3.1 1.9-4.8 2.3-2.9.7-2.9.6-1.4-1.2.9-1 2.1-2.8 2.7-4 1.1-2 .9-2.1-3.9-1.6-4.2.4-5.4.1-7.4-1.8-3.1-2.9-3.1-3.5.3-7.5 3.1-3.8 3.8-4.1 4.5-2.1m-280.8 5.7q-.6.7-2 .3-1.3-.7-1-1.5.6-.7 2-.3 1.3.7 1 1.5m-7.5 2q-.2.8-2 .9c-1.8.1-2-.6-2-1.4q0-1.4 2-.9 1.8.6 2 1.4m-.2 4.6c.5 1.8-1 1.6-3.4-.2-1.8-1.5-1.8-1.5.5-1.3q2.3.4 2.9 1.5m4.3 6.5c1 1.8.8 2.4-1 3.7q-2.2 1.7-1.5 3.5t-1.1 3.2q-2 1.4-.7 2.6c1.3 1.6.9 7.5-.6 9q-1.2 1.1-.1 2.5 1.2 1.3 0 2.7-1.4 1.3.4 2.6c1.4 1.2 1.3 1.6-1.1 4.1-2.9 3.1-2.7 5.8.7 6.6 2.7.7 2 3.7-.9 4.1-1.8.3-2.6-.5-4.2-4-1.9-4.3-1.9-4.3.1-4.6 1-.2 1.7-.8 1.3-1.3s.1-1.8 1.1-2.8c1.5-1.7 1.5-2.1-.5-5.6-1.2-2.1-1.9-4.4-1.5-5.3s-.3-2.3-1.5-3.4c-2.5-2.4-1.7-4.2 1.2-2.7 1.6.9 2.3.8 2.9-.2q1.8-3-.1-4.4c-1.6-1-1.2-2.5.6-2.5q1.6 0 1-1.7c-.4-.9-.1-2 .5-2.4s1.2-1.8 1.2-3.3c0-3.2 2.2-3.4 3.8-.4m-7-.1q1.8 1 1.4 2c-.7 1.1-4.5-.7-4.5-2.1 0-1.3.7-1.3 3.1.1M39 494q0 .9-.4 1-.5-.1-1.1-1-.4-1 .4-1 1 0 1.1 1m-13.2 6.4q.4 1.8-1 1.4a3 3 0 0 1-1.6-2.2q-.4-1.8 1-1.4c.7.3 1.5 1.3 1.6 2.2m60.3-.4c2.1 1.2 2.6 5 .6 5-1.9 0-3.7-2.1-3.7-4.2s.4-2.2 3.1-.8m-69.6 3.1q.6 1 .2 1.5c-.7.7-3.7-.7-3.7-1.7 0-1.3 2.7-1.1 3.5.2m4.7 10.9c-.2 1.6-.8 3-1.3 3-1.2 0-1.1-1.7.1-4.1q2.1-4 1.2 1.1m61.8-1.2c0 2-2.8 4.5-4.4 3.9-1.4-.5-1.5-1.1-.6-2.7 1-1.9 5-2.9 5-1.2m14 .6c0 1.1-1.9 1.5-2.5.6q-.4-.9.9-1 1.5 0 1.6.4m-64.2 10.5q.4 1.3-.9.9-1.2-.5-1.7-1.7-.4-1.3.9-.9 1.2.5 1.7 1.7m58.6 2c.9 1 1.9 3.4 2.3 5.3.4 3 .2 3.6-1.6 4.1-2.1.5-2.9-.7-1.1-1.8 1.2-.7 1.4-4.5.2-4.5-.8 0-7.2 11.5-7.2 12.7.1.5 1.2-.6 2.5-2.2 2.2-2.6 2.5-2.8 2.5-1 0 1.2-.5 2.6-1.1 3.2-1.2 1.2-2 10.3-1 10.3.4 0 1.5-.9 2.4-2.1 1.5-1.6 2.1-1.8 3.3-.9 1.9 1.6 1.8 5-.1 5q-1.3-.1-1.5-1.8c-.2-1.7-1-.1-2.4 2.3q-3.8 6.5-.2 3.6 1.4-1.2 2.1-.1.6 1 1.5.5t1.4.4-.4 1.6c-1.7 1.1-1.1 3.5.9 3.5s3.5 2.5 2.5 4.2q-.6.8-2 .4c-1.9-.7-2.8 1.2-1.4 2.9q1 1.4.5 2.5-.6 1 1.3-.1c2.4-1.5 3.2-1 3.6 2.3l1 6.8 1.1 7.5 2.2 11.8c1.1 4.8 1.7 8.9 1.5 9.2s-1.7.1-3.3-.2c-3.5-.7-5.2 2.1-2.4 4.1 1.5 1.1 1.5 1.3.1 2.5-1.7 1.5-2.2 6.6-.6 7.6.5.3 1.8 0 2.8-.6q2-1.1 3.8-.4 2.6.9-1.1 1.4-3 .5-3.3 2.9c-.4 2.3-1.6 2.9-2.7 1.2-.3-.6-1.7-1-3-1-2.5 0-2.8-.6-3.9-8l-3.5-21.5c-.5-3.3-1.3-10.7-1.6-16.5s-.9-10.8-1.1-11.1-.8-5.2-1.3-10.8a44 44 0 0 0-2-11.5c-1.2-1.4-.4-8.4 1.2-10.4q1.1-1.3-1.5-1.2c-2.6 0-4.8-1.7-4.8-3.6 0-1.7 4.3-3 4.8-1.5q.3 1.4 2.2-.4c1.6-1.5 1.7-1.4 1.3 1.2-.4 2.7-.4 2.7 1.2.8a8 8 0 0 0 1.4-5c-.2-4.7 0-5.5 1.4-5.5.8 0 2.2.8 3.1 1.9m231.8 1.9c.3.9.1 2.6-.3 3.7q-1 2.9-.8-.2c-.1-1.2-.4-2.8-.7-3.7q-.5-1.5.4-1.6 1 .1 1.4 1.8M403 533q1.8 3.4-1.5 11.3c-1.8 4.2-4.2 6.3-3.1 2.6.4-1.3 1-4.7 1.3-7.5.5-4.9.4-5.2-2.1-5.8-3.4-.8-2.4-2.6 1.4-2.6q2.9 0 4 2m-371.2 5.9q.4 1.3-.9.9-1.2-.5-1.7-1.7-.4-1.3.9-.9 1.2.5 1.7 1.7m340.8 3.8c7.8 9.3 7.9 9.4 13.9 6.9 5.1-2.2 4.6.4-.7 3.9-5.4 3.6-8.3 2.7-11.8-3.6a81 81 0 0 0-4.7-7.4 11 11 0 0 1-2.3-3.6q0-3 5.6 3.8M39 540.5q-.1 1.3-1.4 1.5c-1.7 0-2.8-1.4-1.9-2.4 1.2-1.2 3.3-.6 3.3.9m53.8 1.3q.2 1.1-1.2 1.2-1.5-.1-1.6-1.6c0-1.7 2.2-1.4 2.8.4m227.7-.8q.4.9-.9 1-1.5-.1-1.6-1 0-1 .9-1t1.6 1m-289.1 2.5q.5 1.4-.9 1.5c-1.6 0-2.7-1.4-1.8-2.4q1.7-1.5 2.7.9M407 546c0 2.2-6.9 10.3-7 8.1a14 14 0 0 1 3-4.8 13 13 0 0 0 3-4.3q0-1 .5-1 .6.2.5 2m-372.1 2.6q.2.3-.3 1.2c-.9 1.4-6.6.2-6.6-1.5 0-1.1.7-1.3 3.3-.8 1.7.4 3.4.9 3.6 1.1m27.1-.7q-.1.9-1.5 2.1-1.6 1.5-1.5-.2c0-.8.3-1.8.7-2.1.9-1 2.3-.9 2.3.2m267 1.9c0 1.4 4.8 3.3 5.5 2.2 1-1.5 4.5-1.2 5.1.5.4.8-.3 2.3-1.3 3.3-2.3 2-4.7 7.2-3.4 7.2s-.3 5.3-1.8 5.8q-1.5.6-.7-2.1c.5-2.1.3-2.5-.9-2.1-2.4 1-1.8-2.3 1.1-6.2 1.5-1.9 2.4-3.8 2-4.2-.8-.8-4.5 3.7-4.6 5.5q-.1 1.2-1.5 1.3c-1.7 0-2.1-3.5-.5-4.5s1.2-2.5-.5-1.9-3-1.8-2.1-4.1c.6-1.6 3.6-2.1 3.6-.7M31.7 553q2.1 0 2.3 1c0 .5-1.5 1-3.4 1q-5.6-.1-4-3.1.5-1.2 1.7 0c.6.6 2.1 1.1 3.4 1.1m7.8.7a62 62 0 0 0-2.2 8.3c-1.7 7.8-2.8 9.3-1.9 2.5 1-6.8 2.7-12.5 3.9-12.5q.8.2.2 1.7m368.4 2.7c-1.3 3.5-2.9 4-2.9.9 0-1.7 3-5.6 3.8-4.9.2.3-.2 2-.9 4M30 559.1c0 1.8-3.5.5-3.8-1.4-.3-1.6-.1-1.7 1.7-.7q2 1 2.1 2.1m28 .4q1.4 1.6.2 2.7c-1.4 1.4-3.2.1-3.2-2.3 0-2.3 1.3-2.5 3-.4m339.8-.7q1.4.9-1.3 2c-3.4 1.6-3.5 1.5-3.5-.8 0-2.1 2.4-2.7 4.8-1.2M340 561q-.1.9-2.1 1-1.7-.1-1.4-1c.3-.6 1.3-1 2.1-1s1.4.4 1.4 1m-311.4 1.5q1.6 1.3.7 1.5c-1.9 0-4.3-1.1-4.3-2.1q.1-2 3.6.6m380.4 1.4c.5 1.1 2 2.1 3.2 2.3 2.1.3 12.2 12.2 13.3 15.8q.4 1.8-3 5.5c-3 3.3-3.5 3.6-3.5 1.8 0-1.1-.7-2.4-1.6-2.7-1.5-.6-1.4-1 .7-3.3l2.4-2.6-2.3 1.2c-1.3.7-2.6 1.9-2.9 2.7-.8 2-3.1 1.7-3.8-.6-.4-1.4.3-2.8 2.7-5.1q3.4-3.2 1.3-2.4-7.7 2.6-10.1-1.2c-1.5-2.4-1.5-2.7 0-3.5.9-.5 1.6-1.6 1.6-2.3 0-1.8-4.1-2-5.9-.3q-1.6 1.8-.6-1 .8-2.6-.8-2c-2.9.6-1.7-1.7 1.6-2.9 4.7-1.7 6.5-1.5 7.7.6m-380.8 2.4q3.6 1.3 2.9 2.5c-1 1.6-6.5 0-6.9-2.1-.4-2-.6-2 4-.4m308.7 5.3c-3.3 3.4-5.7 3.7-3.9.4 1.3-2.5 5.1-5.1 6.2-4.3.6.3-.5 2-2.3 3.9m-310.1 1.2c-2 .4-2.3 1.7-.7 2.8q1.2.5 0 1.7c-1.8 1.8-3.2-.6-2.5-4.1.6-2.9.8-3 2.8-2 1.8 1.1 1.9 1.3.4 1.6m9.2 4.6q-1 1.2-2-.4c-1.2-2-.1-3.3 1.6-1.9q1.6 1.2.4 2.3m307.6 1.1c1.9 4.5 1.9 4.5-1.5 4.5q-2.9-.1-5.5 3.1c-2.5 2.9-2.6 3-2.6.7 0-1.3.9-2.9 2-3.6q2-1.1 2-4.7c0-2.9.4-3.5 2.1-3.5q2 0 3.5 3.5m-317.1 1.7q2.3 1.1 2.6 2.2c.2 2.8-.2 11.4-.7 13.8-.9 4.6-2.4 3.1-2.4-2.3 0-4.3-.3-5.2-2.1-5.6q-2.2-.5-1.5-2.7c.3-1.1.6-3.1.6-4.4 0-2.6.1-2.6 3.5-1m308-.3q.4.9-.5 1.6-.9.4-1-.9 0-2.7 1.5-.7m-299 3.6q-.2 1.7-1.2 2.2-1.2.4-1.3-2.2 0-2.6 1.3-2.3 1 .6 1.2 2.3m86.9-.8c.4.9.2 2.1-.3 2.6q-1 1-1.7-.6-.6-1.5-2-1.7-2.6.2-.2 2.8c1.7 1.7 0 2.8-2.1 1.5-1.7-1-1.9-.8-2.4 2-.2 1.8 0 4 .5 5 1.3 2.6-.2 4.4-1.8 2.2q-2.7-3.5-1.7 1.7.5 2.8 2.3 2.8c2.1 0 3.5 2.9 2.1 4.3q-.9.7-2.4-1.3c-1.4-2-1.5-1.9-1.2 2.7.1 2.7.5 5.8.9 7q.6 2-.4 2.8c-.6.3-.8 1.1-.5 1.6.9 1.4 2.5 1.1 2.5-.6 0-2 1.9-1.9 4.4.2q1.7 1.3-1-1.7a18 18 0 0 1-3.8-5.3q-2.4-6.7 8.5 4c8.3 8 13.6 12 8.4 6.3a71 71 0 0 0-5.4-5.5c-2.3-2.1-2.2-5.3.1-3.9q1 .6-.1-1.4a8 8 0 0 0-2.1-2.7c-1.3-.8-1.3-4.5 0-4.5.6 0 1.6 1.1 2.2 2.5s1.6 2.5 2.2 2.5c.5 0 2.6 1.5 4.6 3.2q4 3.8-.7-1.2c-3.8-4.1-5.7-9-3.5-9 1.1 0 5.2 3.8 5.2 4.8 0 .4 2.2 3.1 5 6l5 5.2-6.7 8.8Q121 646.1 117.9 646q-1.8 0-1.3 1.5.5 1.3-.3 1.5c-.9 0-4.6-17.4-5.8-27l-2.2-14.3c-1.2-7.4-1.3-10.3-.5-12 .6-1.2 1.6-4 2.1-6.1 1.4-5.3 4.7-8.6 8.7-8.6q3.1 0 3.8 1.7m4.6-.7q0 .9-1 1a1 1 0 0 1-1-1q.1-1 1-1t1 1m6.4 6.1q-1.2 2.2-3.2-1.1c-1.9-3.1-.3-4.8 2-2.1 1 1.3 1.5 2.7 1.2 3.2m8.8.1c4.8 3.3 6.9 6.5 5 7.7-.5.3.1 2.2 1.5 4.4 2.7 4.3 4.1 4.5 2.2.3q-2.5-5.5 3-1.6 5.8 3.7.4-2.2c-2.5-2.6-2.5-2.8-.7-2.8 1.1 0 2.9.7 4 1.5q3.6 2.9 3.4 0 .2-1.3 2-1.5c1.8-.2 2 .3 2 .7 0 1.4-8.5 11.5-12 14.3l-3.8 3-6.6-6.4a29 29 0 0 1-6.6-8.1c0-1.3 1-.8 4.1 2 4.1 3.6 6.7 4.2 3.6.7a6 6 0 0 1-1.7-3.5q-.1-1.5-1.4-1.1c-1.6.6-4.6-2.1-4.6-4.2q.2-3 4 .8c1.1 1.2 2.3 1.9 2.6 1.5.9-.8-1.5-3.7-3-3.7-.6 0-1.9-1.2-2.9-2.5q-3.5-5.2 5.5.7m137.8-2.4c0 1.6-3.2 5.2-4.6 5.2-1.7 0-1.7-.2-.2-3.5 1-2.2 4.8-3.6 4.8-1.7m3.7 2.6c-.8 1.9-3.7 2.1-3.7.3q0-1.2 1.2-2.5c1.5-1.5 3.3.1 2.5 2.2m59.3 1.4c0 1.8-3.8 7.2-5.1 7.2-1.5 0-1.1-2.2.9-4.4q2.7-3-.5-.3c-2.9 2.5-4.2.3-1.4-2.7 1.2-1.2 2.1-2.8 2.1-3.6q0-1.4 2 .5c1.1 1 2 2.5 2 3.3m99.8 14.5c14.9 21.3 18.3 25.2 26 30.2 5.9 4 9.3 9.5 7.6 12.3-1.9 2.9-4.6 2-5.9-1.8-1.2-3.5-3.7-5.1-5-3-.4.6.3 3.6 1.5 6.6 1.3 3 2 5.7 1.7 6-1 1-4.8-1.7-4-2.9q.6-1.1-1 .2c-1.4 1.1-1.8 1.1-2.3-.4-.4-.9-.2-2.1.5-2.8q2.5-2.6-1-2.7c-1.8 0-2-.4-1.4-2.7q.5-2.6-.1-2c-1 .9-5.5-3.3-4.8-4.5q.5-.8-.3-.7c-2 .3-3-.3-4.6-3-1-1.7-1.3-3.2-.8-3.5q1-.5 1.4.6.5.9.6-2c.1-3.3 0-3.3-3-2.7l-3.2.7 2.7-2.8a14 14 0 0 0 2.6-3.6c0-1.2-4.8-1-5.5.2q-.6.9-1.7 1c-.6 0-.3-1.2.7-2.6 1.8-2.7 1.3-4.6-.7-2.6-2.5 2.5-7.7.3-7.8-3.3q.1-.8 1 .5c.9 1.3 1.5 1 3.7-1.5l2.6-3-2.9-.6c-1.6-.3-3.8 0-5 .7-1.9 1.1-2.4 1-4.4-1.1l-2.3-2.4 3.2-3.3c5.1-5.3 3.4-6.8-2.6-2.2-2.6 1.9-3.8 2.3-4.6 1.5s-.1-2.2 2.8-5.1c4-4.1 4.2-7 .2-3.2-1.3 1.2-3.1 2.2-4 2.2q-4.8-.2.9-6.1l3.8-3.9 4.5 5.1c2.4 2.8 7.3 9.2 10.9 14.2m-315.4-16.7c.4.9.4 1.9.2 2.1-.8.8-2.6-.8-2.6-2.3 0-1.9 1.6-1.8 2.4.2m140.6-1.1c0 .3-.9 2.4-2 4.5q-2 4.2-4.3 4c-1.2 0-2.8.9-3.5 2q-2 3.5 2.2.5c1.4-1.1 2.2-1.1 3.8-.2s2.2.9 3.2-.6q1.2-1.5 2-1.7.5.2.6 1.7c.1 1.6.2 1.5 1.2-.2 2.3-4 5.3-4.1 4.3-.2q-1 3 .7.4l2.4-3.4c1.7-2.4 3.7-.6 2.9 2.6a13 13 0 0 1-1.8 3.9c-.6.7-1.2 2.5-1.3 3.9a8 8 0 0 1-1.3 3.6c-.6.6-1.1 2.2-1.1 3.7 0 2.4 0 2.4 2-.8q2-3 4.1-3.2c2 0 2.1.7.2 5.7q-.4 1.2.1 1.3c.3 0 1.6-.6 2.7-1.3 1.8-1 2.3-.9 2.6.1s.9.9 2.4-.4c1-.9 2.5-1.4 3.4-1 2.5.9 0 4.5-3.6 5.3-1.6.3-2.9.9-2.9 1.3 0 1.2 5.2.6 7.9-.9 2.1-1.2 2.6-1.1 3.8.5q1.2 1.6 1.3.9t1.1.2c1.6 1.6.1 3.7-1.5 2.4-1.8-1.5-4.3 1.5-4.7 5.4s1.4 4.8 2.1 1q.4-3 2.8-3.3c2.6-.4 2.8.5.6 3.6-.9 1.3-1.3 2.6-.9 3q.8.5 1.2-.6c.6-1.7 4.3-1.5 4.3.3s-3.6 3.9-4.5 2.5-2.5-.3-2.5 1.6q.1 1.3 1.5 1.4c2 0 1.9.9-.5 7-2.2 5.5-2.4 7-1.2 7 .5 0 1.5-1.6 2.2-3.6s2.2-4 3.1-4.5q1.6-.9 1.2-2.9c-.6-2.2 1.4-5.3 2.8-4.4.5.3.6 3.7.3 7.7-.5 6-.4 7.5 1 8.6 1.8 1.5 2.2 8.7.5 9.3q-1 .3 0 2.8.8 2.2 1.1 1.5 0-.9.9.4c1 1.6.4 4.1-1 4.1q-.8-.1-.9-1.8c-.1-1.5-.2-1.4-1.2.3-1.7 2.9-4.1 4.5-6 4.1q-1.6-.4-1.8-.1l-.7 2c-.5 1.5-.3 1.6 1.7.5 3.5-1.9 4.3.1 2.1 5.1-2.5 5.4-2.8 8.7-.3 4 .9-1.9 2.3-3.7 3.1-3.9 1.4-.5 1.4-.4-.5 5.7q-1 2.3 1.7 1.4c2-.6 2.2-.4 1.6 2.5q-.5 3 .3 3.2 1-.2 1-2c0-1 .5-3.1 1.2-4.5.9-1.9 1.6-2.4 3.2-1.9q4.9 1.3 2.6 3.9-1.3 1.8-2.6.4-1.5-1.4-1.4.8c0 1.6.5 1.9 2.5 1.5 2.9-.5 2.9-.5 1 4.1a21 21 0 0 0-1.5 5.3c0 1.6.2 1.6 2-.1 3-2.8 3.5-1.1 1.8 6-.8 3.5-1.1 6.2-.7 5.9q.8-.6.9-2.2c0-.9.5-2.4 1-3.2.9-1.3 1.1-1.3 2 0 1.1 1.8 1 9.9-.1 10.6-.5.3-2.7 0-5-.6q-4.3-1.2-5.2-.1c-.6.6-1.8 1.1-2.7 1.1-2 0-7.5-5.7-8.4-8.6a8 8 0 0 0-3.2-3.5 49 49 0 0 1-12.7-18.3 43 43 0 0 1-2.2-16.2c-.3-13.2-1.2-19.1-3-19.8-.7-.2-1.8-2.2-2.5-4.3s-2.1-5.4-3.2-7.3l-4.6-7.9a26 26 0 0 0-5.3-6.8c-1.6-1.4-6.8-8.3-11.6-15.5l-8.8-13 2.4-1.9c3.3-2.7 4.1-2.4 3.6 1.3l-.5 3.3 1.2-3.2c1.7-4.2 4.8-7.3 5.5-5.5q.5 1.5 2-.7c1.9-2.7 3.3-2.7 3.4.1q0 2.3.6.8 1.5-4 4.4-4 1.8 0 1.9.5m6 .3c0 1.2-2.8 4.8-3.3 4.2-.8-.8 1.1-5 2.3-5q.9.1 1 .8m-150.7 3.7c.7 1.6-.8 2.9-2.3 2s-1.2-3.5.4-3.5q1.3.2 1.9 1.5m-4.5 3.5c.3 2.1.2 2.2-1.2 1.1-1.9-1.6-2.1-4.4-.3-3.9.6.3 1.4 1.5 1.5 2.8m14-1.8a5 5 0 0 1 1.2 3.2c0 1.8-.1 1.9-2 .1-2-1.8-2.7-4.5-1.2-4.5q.8 0 2 1.2m156.4.4c.8.7-2.9 9.3-5 11.6-3.4 4-5.8.5-2.7-3.9.9-1.2 1.4-2.6 1.3-3-.6-2.2 1.5-5.3 3.6-5.3 1.2 0 2.5.3 2.8.6M128 595c.9 1.6.8 2-.5 2q-1.3 0-1.5-.4l-.6-2c-.9-2.3 1.3-2 2.6.4m220 0q0 .9-.4 1-.5-.1-1.1-1-.4-1 .4-1 1 0 1.1 1m-224.5 2.8c0 1.8-2 1.5-2.3-.4q-.4-1.6 1-1.2 1.2.6 1.3 1.6m169.5 2.9q0 2.3-2 2.3c-2.3 0-2.6-2.1-.8-5 1.4-2.2 2.8-.9 2.8 2.7m49.8-2.5c.5.7 1.5 3.7 2.1 6.6s2 7.8 3 11a59 59 0 0 1 2.4 16.5c.2 6.2.8 11.2 1.5 12s1 2.2.6 3c-.3.9.3 2.8 1.5 4.3 1.1 1.4 2.3 4.1 2.7 6 .3 1.9 1.2 3.8 2 4.2.7.4 2 3.3 2.8 6.4 1.2 4.5 1.2 6.3.3 8.8-1 2.5-.9 3.3.3 4q4.4 2.6 3.8-1.5c-.6-2.9.9-4.5 1.8-2.1 1.1 2.8-.5 6.4-3.3 7.8-3.1 1.5-4.2 3.8-1.9 3.8q3.5 0-.9 4c-1.9 1.8-2.2 2.6-1.4 3.6.6.8.8 2.1.5 3.1-.6 1.5-.5 1.5 1.3-.1 2-1.8 6.1-1.9 6.3-.1q0 1-1.8 1.4c-2.6.4-5.4 3-5.4 5q0 1.7 1.2.3c.7-.7 2.2-1.2 3.4-1.2 1.3 0 2.6-.5 3-1.1 1-1.7 2.4 1.1 2.4 5.1 0 2.5-.8 4.3-3.2 6.7a16 16 0 0 1-4 3.3c-1.5 0-.8-2.4 1.5-4.9q3.2-3.6 0-.7c-2.6 2.1-3.9 1.6-4.7-2.1-.4-1.6-1.3-4.2-2.1-5.8a96 96 0 0 1-10-36c-.4-3.3-1.1-6.8-1.6-7.8-.8-1.4-.5-2.3 1.3-4.2a10 10 0 0 0 2.4-5.5l.2-3.2-2.5 2.6a16 16 0 0 1-2.8 2.6c-1.2 0-3.6-6.4-3.3-8.7.3-3 2.8-4.4 2.8-1.7 0 1.6.1 1.6 2-.1q2-1.9 1-2.9c-.5-.5-1-2-1-3.3q-.1-2.1-1.1-2.3-1.2 0-.6-3.4.4-3.3-.8-5.2c-.7-1-1-2.5-.7-3.4q.8-1.8-1.6.3c-2.4 2.2-4.6 1.4-3.7-1.3.3-.9.2-2.8-.3-4.1s-.6-4.4-.3-6.9l.6-4.5 1.4 6.7c.7 3.8 1.6 6.8 2 6.8 1-.1 4.3-5.1 3.7-5.7q-.6-.4-2.1.7-1.7 1.6-1.5-.2c0-.8.6-2 1.3-2.7 1-1.1 1-1.4 0-1.8q-1.2-.6-1.3-2.3c0-1-.6-2-1.2-2.2-1-.4-1-1.1 0-3.4l1.2-2.9-2 2.4q-2.1 2.7-2 .7c0-1.8 2.1-5.6 3.1-5.6q.7.2 1.7 1.2M120 601.1q-.2.8-1.5.9-1.4-.1-1.5-2.1c0-1.8.2-1.9 1.5-.9q1.3 1.2 1.5 2.1m22 6.3c5.2 5.4 5.4 5.7 3.7 7.3-1.7 1.7-1.9 1.7-2.9-.2-.7-1.1-2.3-3.2-3.7-4.6-5.7-5.7-9.1-10.1-8.6-11q1.3-1.7 11.5 8.5m31.4-4.9c2.1 1.6 9.1 2 10 .7.3-.5 4.4-.8 9-.7 6.8.1 9 .5 10.6 2 1.8 1.7 2.6 1.7 6.3.8 3.1-.9 4.5-.9 5.6 0 .8.7 5.3 1.3 11 1.3 9.3.2 9.6.1 12.2-2.7 1.5-1.6 2.9-2.9 3.2-2.9s4 5.3 8.3 11.7a239 239 0 0 0 13.1 18.4 43 43 0 0 1 7.6 11.9c3.8 5.7 4.9 10.8 5.7 25a57 57 0 0 0 4.8 24.5c2.3 6 5.1 12.2 6.2 13.7q2 2.7 2 7.6-.1 9 10 19.9c2.7 2.9 5.1 6.6 5.5 8.2a9 9 0 0 0 2.1 4.2q1.4 1.3 1.4 6.1c0 2.7.5 5.9 1.1 7 1.7 3.2-.7 13.5-3.3 14.1-2.6.7-7.8-1.1-10.8-3.8a105 105 0 0 0-33-14.4l-3.1-15.1a575 575 0 0 1-5.9-31.3c0-1.3 3.7-.8 4.9.7 1.5 1.8 6.4 3 9.1 2.1 3-.9 2.7-5.3-.5-6.5-2.9-1.1-2.9-1.1-1.3-4.5 1.5-3.3-.3-7.5-3.2-7.5-3.3 0-7.3 4.9-6.6 8.2.4 2.3.2 2.8-1.3 2.8-2.3 0-2.9-3.6-3.6-18.9-.5-12.1-2.2-16-7.3-17.3-4.1-1.1-4.1-3.4-.1-4.3s6.2-5.1 3.5-7c-1.7-1.3-1.7-1.5.4-4.2q4.7-6.3-3.7-6.3c-2.4 0-5.3.5-6.5 1.1-2.6 1.4-3.6.3-2-2.1a8 8 0 0 0 1.2-3.9c0-2.3-5.4-7.1-8-7.1-2.7 0-6 4.7-6 8.7 0 2.7.6 3.7 3 5.1q6 3.3-2.4 4.4c-6.7.9-7 1.1-10 6.2-4.3 7.3-2.2 8.2 9.5 4.1 4-1.3 7.5-2.2 8-1.9q2.4 1.7-1.8 2.9c-3.9.9-7.3 4.4-7.3 7.4 0 1.5 1.1 4.3 2.5 6.3s2.5 4.6 2.5 5.6c0 1.1.9 3.1 2 4.5q2 2.5 2 7.2c0 4.2 1.9 14.5 5.1 27a287 287 0 0 1 5.3 32.7q-.6.7-1.7.8c-.7 0-3 .9-5.2 2s-4.9 2-6.1 2c-1.3 0-3.1 1.1-4.2 2.5-1.8 2.2-2.7 2.5-8.5 2.5h-6.5l-1.6-6.8a118 118 0 0 1-3.2-28.5c.6-3.3 3.1-5.6 4.5-4.1q.4.7-.6 1.1c-2 .7-1.5 2.3.6 2.3 2.4 0 4.5-2.5 3.7-4.6-.5-1.3-1.4-1.5-4.1-1-4.6.9-4.6-1 0-3 4.5-1.9 6.2-5.7 4-9-1.9-2.9-3.5-3-6.8-.4-1.4 1.1-2.8 2-3.1 2s-.6-3.9-.6-8.8c0-4.8-.8-12.1-1.7-16.2q-1.7-7.4-1.7-22.5c-.1-12.6-.4-15.5-1.9-17.8a7.4 7.4 0 0 0-9.4-2.8c-1.4.7-2.8.9-3.2.6-1.2-1.3 2.5-5.9 5.4-6.7 3.5-.9 7.5-4.2 7.5-6.2q-.1-3.3-6.5-.9c-7 2.6-8 2.3-7.7-1.9q.7-7.7-4.8-7.8t-4.8 7.8l.3 3.7-4.3-.3c-7.4-.6-11.4 3.7-7.5 8q3 3.6 8.9-.3c2.9-1.7 3.5-1.8 4-.6.3.8-.6 2.6-2 4-2 2-2.6 3.6-2.6 7 0 2.7.6 4.9 1.5 5.7 2.2 1.8 3.6.2 3-3.3-.8-4.3 1-8.9 3.3-8.5q1.5.5 2 2.6c.3 2.2 4.2 7.2 5.7 7.2q.6-.1.2-2.1-.7-2.2 1.4-2.6 1.7-.6 1.4-1.3c-1.1-1.8 1.6-2 4-.4 3 2 3.2 3.5.5 5.9-1.1 1-2 2.3-2 3 0 .6-1.8 3.5-4 6.5-3.6 4.8-3.8 5.5-2.5 7 1.4 1.5 1.3 2-.6 4.4-1.7 2.1-2 3.6-1.6 6.6.5 3.9-1.3 7.4-2.7 5.1a58 58 0 0 1-.3-16.7c.7-1.2-3.6-8.7-4.8-8.3-.6.2-.9 1.3-.9 2.4.9 11.3 2.8 26.9 4.3 35a396 396 0 0 1 5.5 47.7l.5 10.8h-2.5c-1.4 0-4.4-1-6.7-2.2a31 31 0 0 0-11.8-2.6c-8.6-.5-11.5.5-18.3 6.7-5.3 4.9-13.5 9.6-14.5 8.5s-2.7-17.2-4.2-37.4c-.5-6.9-1.2-15.5-1.7-19.2-.8-6.4-.7-6.8 1.7-9.2l2.5-2.5 2.6 3.1c2.1 2.5 3.1 3 5.2 2.5 3.8-1 4.7-4.6 1.8-6.9a8 8 0 0 0-4.1-1.8c-2.4 0-2.4-1.4 0-3.1q2-1.4 2.3-5.4l.2-4-3.8.2c-5.5.4-6.6 1.7-6.6 7.8q0 5.2-1.5 6.5c-2 1.6-2 1.4-4-15-.9-7.4-2-15.2-2.5-17.3-1.2-5.4 1.4-11.1 8.2-18.2 6.1-6.5 12.3-14 17.8-21.5 3.7-5.1 25.6-25 27.4-25 .6 0 2 .7 3 1.5m175.6.1q-.1 1.3-1 .9-1-.7-.5-1.6 1.4-2 1.5.7m-53 4.6q0 1.8-2.5 1.8-2.7.2-1.8-1.8 2-5 3.4-3c.5.7.9 2.1.9 3m-5.5-1.1c.7 1.1-2.2 4.9-3.7 4.9-1.2 0-1-3.4.4-4.8q2.2-2.2 3.3-.1M76.1 608l2.4 1.9-2.2.1c-1.2 0-2.7-.9-3.3-2-1.4-2.6.1-2.6 3.1 0m43.9-1.6.6 2c.9 2.3-1.3 2-2.6-.4-.9-1.6-.8-2 .5-2q1.3 0 1.5.4m296 3.2q0 1.3-1 .9c-.5-.3-1-1.3-1-2.1s.5-1.2 1-.9 1 1.3 1 2.1m-117.3 2.9q.9 3.1-2.1 2.2a2 2 0 0 1-1-2.2c.8-1.9 2.3-1.9 3.1 0m-193.1 4.6c1 1.7-.9 2.8-3.9 2.2q-3.1-.4-1.6-1.9c1.4-1.7 4.5-1.8 5.5-.3m319.9 1q-.7.8-2.2.9-1.9.2-.3-1.5c1.3-1.5 3.5-1.1 2.5.6m-13.5 1.7q-.2 2.3-2.6 1.5c-2.1-.8-1.7-2.3.6-2.3q1.8.1 2 .8m-234 7.7q0 2.3-1 2.5c-1 .2-1-1.1-1-2.5s.5-2.5 1-2.5q1 .2 1 2.5m163 .5q0 .9-.4 1-.5-.1-1.1-1-.4-1 .4-1 1 0 1.1 1m87.9 2.9c2 2 2.1 2.6 1.1 5.6-1.1 3.4-4 6.8-4 4.7q.1-1 1-1.7c1.1-.7 1.4-5.5.3-5.5a7 7 0 0 0-2.3 1.5c-1.3 1.2-2.3 1.3-4.4.5-3-1.1-5.6-3.3-5.6-4.7 0-3.8 10.2-4.1 13.9-.4m-62.2.3q-.5 1.1-.6-.6t.5-1.3c.3.3.4 1.2.1 1.9m-259.8 1q1 2.3-.8 5.1c-1.5 2.7-1.5 2.9.5 4.5 1.3 1 2.4 3.4 2.8 5.7l1.2 6.9c.6 2.7.4 2.8-2.1 2.4-2.9-.6-4.8 1.8-2.5 3.2 2 1.3-.7 4.2-3.1 3.5q-1.8-.6-1.9.4-.2 1-1.5 1.1c-1.3.1-1.5.7-1.5 1.5 0 2.1 2.7 1.9 4-.3q1.2-2.2.4 1.1-.8 3 .7 2.5 1.4-.2 1.3 2.2c-.1 1.4.3 2.8.8 3.1s1.1 3.9 1.3 8l1.3 14.9c.5 4.1.8 9.9.7 12.7-.1 2.9.2 5.3.6 5.3 1.2 0 1.1 3.1-.1 5-1.5 2.4-2.1.7-3.6-10.2a259 259 0 0 0-3-18c-1-4.6-1.4-8.3-.8-9.5.4-1 .9-2.3.9-2.8q.2-1.1 1-2.8c.9-2.2-1.6-5.2-4.3-5.2-1.3 0-1.9-1.2-2.4-5L94.6 654q-1.3-8.4-.3-9.5t1.4.2c1 2.7 2.2 1.2 1.6-1.9-.6-2.8-.4-3.1 1.6-2.5 1.7.4 2.5-.1 3.7-2.6q1.7-3.6.1-1.4c-1.3 1.6-1.5 1.6-2.8.1-1.2-1.4-1-2 1.4-4 3.5-3 4.5-3 5.6-.2m82.1 2.3q-4.1 2.1-2.5-.4c.3-.6 1.6-1.1 2.8-1.1 2.1.1 2.1.1-.3 1.5m-22.5 2.5c0 2.2-2.9 1.8-3.3-.3q-.5-2 1.5-1.5 1.7.5 1.8 1.8m-76.1 3.6c.3.9.6 2.5.6 3.7 0 2.1-.1 2.1-2.6-.5-2.6-2.5-2.6-4.8.1-4.8q1.3.1 1.9 1.6m141.1 1.4q.1 2.6-2.2 2.8c-2 .3-2.3-.1-2.3-2.8s.3-3.1 2.3-2.8q2.3.2 2.2 2.8m-204.2 2.5c.7 1.6-.8 2.9-2.3 2s-1.2-3.5.4-3.5q1.3.2 1.9 1.5m61.1 1.7c2.8 2.4 3.6 3.9 3.6 6.5 0 2.7-.3 3.1-1.7 2.6s-1.3-.2.4 1.3 2.4 3.8 3.2 10.3c.6 4.6.9 8.7.6 9q-.7.2-2.2-2a69 69 0 0 0-12.1-12.5c-.2.3 3.2 4.5 7.7 9.5l8.2 8.9v5.9c-.1 3.2.2 8.5.5 11.9.5 5.5.2 7.1-4.6 19.4-2.8 7.4-5.5 13.9-6 14.5a26 26 0 0 0-3.4 11c1 2.6-1.2 2.3-4.6-.6-9.8-8.3-11.3-9.3-10.2-7.2a67 67 0 0 0 7.7 8.1c4.7 4.3 6.5 6.6 6.5 8.4 0 2.2-.5 2.6-4.2 3.1-2.4.3-4.4 1.1-4.7 1.8s-1.9 2.9-3.8 4.8a19 19 0 0 0-3.9 5.7c-.4 1.6-1.5 2.3-4.2 2.7a14 14 0 0 1-4.1.1c-.2-.2.6-2.7 1.8-5.6 1.1-2.9 2.3-7.7 2.6-10.7s1-6 1.6-6.8 1.3-5.9 1.5-11.5c.2-5.7 1.1-13.8 1.9-18.2S68 707.1 68 705c0-2.2.7-6.9 1.6-10.7a91 91 0 0 0 2-11.8 48 48 0 0 1 5-22.6c1.9-3.6 3.4-6.9 3.4-7.3 0-1 4-9.6 4.4-9.6.2 0 2 1.4 4 3.2m341.3 0A37 37 0 0 1 431 663q-1.1 1.9.5 2.4c.9.3 1.5 1.8 1.5 3.5q0 3.1-1.3 2.5c-.8-.3-2 .2-2.7 1.1-1.1 1.3-1.1 2.1-.2 3.6 1.8 2.8 1.5 5.1-.5 4.7-2.4-.4-3.2-4.8-1.6-8.2.8-1.5 1.2-3.8.9-5s.1-3.4.9-4.9c.7-1.5 1-2.7.4-2.7q-.8 0-.9 1-.2.9-2 1c-2.5 0-2.6-1.6-.1-2.9 1-.6 2.4-2.4 2.9-4.1.9-2.5.8-3-.5-3q-1.5 0-.9-1.6.5-1.3-.4-.9c-.6.3-2-.1-3.2-.9l-2.2-1.6h2.1c1.2 0 2.5-.5 2.8-1q1.4-2 3.2.2m15.8 1.7c-.3.6-1.4 1.1-2.3 1.1-1.5-.1-1.5-.2.2-1.5 2.1-1.6 3.2-1.3 2.1.4m-203.6 4.2a8 8 0 0 1-3.7.9c-3.3 0-2.2-2.4 1.4-3 3.1-.6 4.5.7 2.3 2.1m-215.1-.9c1.4 1.4 1.6 5.8.3 5.8q-1-.1-1.6-1t-1.5-.5c-1.4.8-1.8-.8-.9-3.3s1.9-2.8 3.7-1m322.2 3.7q-2.1 3.9-3.4 2.2c-.7-1 2-4.1 3.5-4.1q1 0-.1 1.9m98.2.3q-1.1 1-1.2.2c0-1.4 1.2-2.6 1.9-1.9q.3.6-.7 1.7M226.5 657q-.1 1.4-4.5 2.6-7.5 1.8-3.4-2.7c2.1-2.4 7.9-2.3 7.9.1m11.9-1.1c1.9.7 1.9.8-.2 1.3-1.2.4-2.6 0-3.3-.8-1.3-1.6.2-1.8 3.5-.5m3.6 4.1q-.1.9-1.1 1-.8-.1-.4-1 .6-1 1.1-1 .3 0 .4 1m-128.5 14.5c.9 6 2.2 14.6 3 19a235 235 0 0 1 3 28.2c.3 5.8.1 7.3-1 7.3q-3.1 0-1.5-4.5c.7-2 .6-3.4-.6-5.6a9 9 0 0 1-.9-5q.6-2-.7-1.7t-1.4-3.2c0-1.9-.2-5.3-.4-7.5q-.4-4 .8-3.8c1.1.3.5-2.7-.8-3.7-.9-.7-3-13.1-3-17.8 0-2.2-.4-4.3-.9-4.6s-.7-1.6-.3-2.8q.5-2.1-.6-1.4c-1.6 1-1.6-3.6 0-5.2 2.2-2.2 3.6 1 5.3 12.3m116.5-4.7c0 1.2-3.9 4.6-4.5 4.1-.6-.7 2.4-4.9 3.6-4.9q.8.1.9.8m83 4.6c-1.4 1.4-2.4 0-1.6-2.1.6-1.5.8-1.5 1.6-.3q.8 1.5 0 2.4m-4.2-.2c-.4 2.7-2.8 3.6-2.8 1q0-3.1 2.2-3.2.8.2.6 2.2m-120.6 2.9c-1.5 1.6-2.8 2.5-3 1.9-.5-1.5 3.2-5.8 4.5-5.3q1.3.5-1.5 3.4m126.8 2.4q-.6 1-2 .8c-.8-.1-1.9.5-2.3 1.3-1.2 2.2-2.9.6-1.7-1.6 1-1.9 7-2.4 6-.5m-122 1.4q-.1.9-1.5 2.1c-1.3 1-1.5.9-1.5-.9q0-2 1.5-2.1 1.4 0 1.5.9m-4.2 1.8q.2 1.2-1.7 1.3c-1.9.1-2.1-.6-2.1-1.6 0-1.8 3.1-1.5 3.8.3m-57.8 4.7q0 5.6-3.1 5.6-2 .2-1.9-2.8c0-3 1.6-5.2 3.7-5.2.7 0 1.3 1.1 1.3 2.4M437.9 707q-.8 1.8-.9-1.3c0-1.5-.4-2.7-.9-2.7s-.6-2.2-.3-5c.4-4 .1-5.1-1.2-5.6-.9-.3-2.3-.1-3.1.6-2.8 2.3-1.7-2.2 1.2-5.2l2.8-2.9 1.6 10.3c1 6.2 1.3 10.9.8 11.8m-244.5-17.4q1.4 3.6-2.8 1.6c-2.1-.9-2.8-.7-5 1.3-1.4 1.3-2.6 3.1-2.6 4q.2 2.7 2.8.3 1.2-1.2 2.3-.1t-1.5 2.7c-1.5.9-2.6 2.4-2.6 3.2q-.1 2 1.5.4c2.6-2.1 3-.2.6 3-1.2 1.7-1.8 3-1.4 3s1.9-1.6 3.2-3.5q3.6-5.3 5.6-2.5.5.9-.4 1c-1.2 0-5.1 4-5.1 5.2q.2.7 1.8-.1 2-1 3 .1c1.4 1.4 1.6 3.8.2 3.8q-.8-.1-.4-1.8.9-2.2-1 .2c-2.4 3-1.8 7.6 1 7.6 1.2 0 1.2.4.2 2.1-1.1 1.8-1 2.3 1.5 4 3 2.3 3.6 4.9 1.1 4.9q-1.7 0-.9-2.1.8-2.2-.4-1.5c-.6.4-1.1 2.3-1.1 4.3 0 2.6.5 3.6 1.9 4 2.1.5 2.1.4-1 6.4-.8 1.7-.7 2.1 1.1 2.6q2.2.5 1.5 2.4-.7 2 .9 1.3 1.5-.4 1.6.5c.1.9-1.1 1.1-2.4 1.1-2.7 0-5.9 3.1-3.8 3.7q2.5 1-.5 4.5c-1.9 2.1-2.9 12.3-1.3 13.3.6.4 1 2.6 1 5.1 0 4.8.1 4.9 3.1 3.3 1.9-1 2-.9.8 1.3a14 14 0 0 0-1.4 5.5c-.2 2.7.1 3.1 1.2 2.1 2.4-2 2.6 0 .2 3.3-1.8 2.6-1.9 3.1-.6 2.6 2.4-.9 3.2 1.1 1.1 3.4-3.4 3.7-.2 3.3 3.3-.5 3.4-3.6 3.7-3.7 5-2 1.8 2.5 1.1 4-1.9 3.6-1.9-.2-3.2.6-5.1 3.2-3.4 4.4-3.5 5.7-.2 2.6 2.9-2.7 8.5-3.6 8.5-1.3q0 1.5-2.6 1.1c-3.6-.4-6.6 3.6-6.9 9.6-.3 4.2-.2 4.5 1.5 3.6 1-.5 2.2-1.9 2.5-3.1.6-1.7 1.2-1.9 3.8-1.3 1.8.3 3.3.7 3.5.9l.5 9.1.2 8.9-3.3.3c-2.8.3-3.3 0-3-1.4.2-1 1.4-2.1 2.7-2.4q2.3-.6 2.9-1.8c.6-2-2.7-2.5-5.3-.8-2.2 1.4-2.5 1.5-2.5.1q0-1.3-.9-1.5c-1.3 0-2.3 3.2-1.3 4.2s-.7 6.8-2 6.8c-.8 0-1.3-3.7-2.8-20.5-.6-6.6-1.7-16.3-2.5-21.5a238 238 0 0 1-4-41.2 269 269 0 0 0-6.8-58.3l-.2-4 6-.6 6.6-.7q.7 0 1.3 1.4m45.6 1.9c0 1.7-.2 1.8-2.5.9q-2-.6-.3-1.5 2.8-2 2.8.6m128 1.1c0 1.6-1.6 1.9-2.5.4-.8-1.3.4-3.2 1.6-2.5q.8.7.9 2.1m-172.1 4c-1.3 1.6-3.5 1.8-4.4.4-.7-1.1 3.5-3.1 4.8-2.3q.6.6-.4 1.9m-176.2.6q-.5 1.1-.6-.6t.5-1.3c.3.3.4 1.2.1 1.9m241.9 3.5c-1.1 1.1-1.9-.6-1.1-2.4s.8-1.7 1.2 0c.3 1 .2 2.1-.1 2.4m-126.1-.7q.4.9-.4 1-1-.1-1.1-1 0-1 .4-1 .6 0 1.1 1m276.7 4.2q-1.3 1.5-1.2-1.2c.1-2.7.3-2.1 1.2-1.2q1.4 1.2 0 2.4m21.1 2.3q.5 1.4-.3 2-1 .4-1-1.4.1-3.7 1.3-.6m7.6 8.6c.6 3.4.8 6.6.5 7q-.4.8.6.9c.7 0 1 1.2.9 2.8-.2 1.5 0 3.3.4 3.9 1 1.7-1.2 5.8-2.4 4.6-1-1-1.5-4.9-2.5-17.6-.8-9.4.9-10.5 2.5-1.6m-420.1-2.8c.4 2-2.5 3.4-4 1.9s-.1-4.4 1.9-4q1.6.5 2.1 2.1m189.2 1.6c0 1-.7 2.4-1.5 3.1-1.2 1-1.6.9-2.1-.4-.3-.9-.4-2.3 0-3.1.8-2.1 3.6-1.9 3.6.4m164 5.8c0 .7 1.2 3.7 2.7 6.8 3.1 6.4 2.6 10.1-1.9 12.3-2.9 1.4-5.7 7.2-3.4 7.2q1.3-.2 2-1.5c.7-2 4.5-1.9 5.3.1.3.9.1 2.5-.6 3.6-1 1.6-.8 2.4 1.7 5.3 2.4 2.6 3.1 4.6 3.6 9.7l1.8 12.6c1 6.2 1 6.4-1.8 9.5q-2.4 2.7-.8 1.4c2.1-1.8 2.2-1.7 4.3.9 1.1 1.5 2.1 3.2 2.2 3.8.4 8.9 2.5 18.4 5 22.9.9 1.6 1.9 5.8 3.6 13.9q1 4.7-3.4 1.3c-2-1.4-2.3-1.2-5.2 2q-2.9 3.2-3.7 2.4c-.3-.6 1-2.4 2.9-4 2.8-2.3 3.5-3.5 3.4-6.3-.1-3.9-1.2-3.8-4.6.6q-2.6 3.1-1.1 3.8 1 .8.2 1.4c-1 .6-2.6-2.7-3.7-7.5-.5-2.2-.1-3.1 2.5-4.9 4-2.9 4.9-1.9 1.6 1.6-3 3.3-2.5 4.8.6 1.7 2.6-2.7 3-6.4 1.3-13.1-.8-2.9-1.5-7.2-1.6-9.5a32 32 0 0 0-1.4-7c-1.1-2.7-1.2-2.7-2.9-.8-1 1.1-1.7 2.8-1.6 3.8q.5 4.6-.9 3.9c-.5-.3-.9-2.1-.9-3.8 0-1.8-.8-5.3-1.6-7.7-2-5.4-2-6.1-.1-6.1.9 0 2 1.2 2.6 2.7.9 2.4 1.1 2.5 2.5 1.1 1.3-1.2 1.4-2.2.5-5.3-.6-2.1-.8-4.2-.5-4.7.9-1.5-.5-5.8-2-5.8-.7 0-2.1.9-3.1 2s-2.2 1.7-2.6 1.3c-.9-1-3.5-11.3-5.5-21.3-1.7-9.2-1.7-10.1-.1-9.5 1.9.8 3.7-2.9 2.9-6-.7-2.4-.9-2.6-2.1-1.1q-3 3.4-3.1-.7c0-1.3-.5-2.8-1-3.3q-1-1 2-4.4c1.6-1.8 3-3.8 3-4.4s-1.1.1-2.5 1.6c-3.7 4.3-4 1.3-.3-3.1 2.9-3.5 3.4-3.7 4.5-2.2.7.9 1.3 2.2 1.3 2.8m-40.2-2.5c2.4 2.4 1.4 5.7-2.2 7.2-2.1.9-4.5 3.1-6 5.5-3 4.6-3.5 7.1-1.1 5.1q1.4-1.2 1.5-2.5c.1-1.3.7-1.8 1.5-2.5 2.2-1.8 4.8.6 4 3.7-.3 1.3.1 3.6.9 5.1s2.9 6.3 4.6 10.7 3.8 8.7 4.6 9.6a5 5 0 0 1 1.4 2.7c0 1 3 2.5 5.5 2.7 2.6.2 12.5 3.6 13 4.5.3.6 1.5 1 2.6 1s2.2.7 2.5 1.5q.8 1.3 2.4 1.5c1.4 0 2 1.4 2.9 6.7.7 3.8 1.4 7.6 1.7 8.5.7 2.4-1.8 2.3-4-.1-1.3-1.4-1.4-2.4-.7-4.5 1.4-3.5-.1-3.3-2.2.4-1 1.6-2.4 3-3.2 3-1 0-.8-1.4 1.2-5.6 1.4-3 2.3-5.7 2-6s-1.6 1.1-3.1 3.1c-1.5 1.9-3.4 3.5-4.2 3.5-1.9 0-1.8-3 .2-5.8.9-1.3 1.4-2.6 1.1-2.8-.3-.3-1.7 1.7-3.2 4.5-2.9 5.2-5.5 7.3-5.5 4.3 0-.9.9-3.2 2.1-5.1 1.1-1.8 1.9-4.3 1.7-5.5-.3-1.7-.9-1-3.1 3.2-2.6 4.9-5 7.2-6.3 5.9-.3-.2.4-2 1.5-3.8 2.7-4.4 2.7-5.9.1-3.1-2.1 2.2-5 3-5 1.3q.1-1 1-1.6c.6-.3 1-1.3 1-2.1 0-2.1-1.9-.7-3 2.2-1 2.4-3.6 4.2-4.6 3.1-.4-.3.1-1.6 1-2.9q3.7-5.4-1-3.7c-3.5 1.3-4 .5-2.6-3.4q2.4-6.8-.4-3.2c-1.6 2-1.6 1.9-.9-.4s.5-2.3-1.8-1.7c-1.4.3-2.9.2-3.2-.4q-.4-.9.4-1 1-.2 1.1-1.9c0-1.1.5-2.3 1-2.6 1.3-.8 1.3-3.5 0-3.5-.5 0-1.2 1.1-1.6 2.4a4 4 0 0 1-3.2 2.9l-4.5 1.3c-1.6.6-1.7.3-1.1-2.2.4-1.6 1.1-3.3 1.5-3.9q2.2-2-1.3-2.9c-2.2-.6-2.2-.7-.5-2q1.6-1.4 1.6-2.2c-.1-.5.1-2.2.6-3.7q.8-2.8-.9-4.6-3-3.5-.2-4.7 1.3-.6.9-2.4c-.3-1 0-2.1.6-2.4q1-.8 1.1-2.3.1-1.9-1.5-.3-1.5 1.1-2.1.7c-1.2-1.1.6-2.5 4.2-3.1a7 7 0 0 0 5.2-3.7c1.9-3.2 2.3-3.4 4-1.7M18 719q-.1.9-1.5 1c-1.4.1-1.5-.5-1.5-1q.1-1 1.5-1c1.4 0 1.5.4 1.5 1m415.5 0q.4.9-.4 1-1-.1-1.1-1 0-1 .4-1t1.1 1M111 724c-.6 1-1.5 2.2-2 2.5-1.4.9-1.3-2.8.2-4.3 1.7-1.7 3-.4 1.8 1.8m-93.6 6.4c-.4 3.3-.8 6.4-1 6.8-.7 1.1-6.5.6-6.1-.6q.6-1 1.7-.8c1.3.3 3-1.5 3-3.1q-.2-.7-2-.7c-2.4 0-2.6-1.3-.5-3 .8-.7 1.5-2 1.5-3q0-3.3 2.6-2.3c1.2.4 1.3 1.8.8 6.7M305 726q-.1.9-1.1 1-.8-.1-.4-1 .6-1 1.1-1 .4 0 .4 1m5 1q-1.6 3-3.3 1.4c-1.1-1.1.5-3.4 2.4-3.4 1.7 0 1.8.3.9 2m-198.1.7q-1.6 1.8-.1 2c1.6.6 1.5 1.9-.5 5.1l-1.8 2.6-.5-3.4c-.6-3.5 1.3-8 3.2-8q.8.1-.3 1.7m341.2 1.9c-.9 2.8-.9 2.9-1 .3-.1-1.4.2-2.9.6-3.2q1.7-1.8.4 2.9m-139.1-.5q-.1.8-1.5.9c-1.5 0-2-1.2-.9-2.3.8-.8 2.4.1 2.4 1.4M118 733q-.1.9-1.1 1-.8-.1-.4-1t1.1-1q.3 0 .4 1m325.9 3.7c0 1.6.3 4.7.7 7q.6 4.3-.5 4.3-1 0-1.1-.9c0-1.8-4.3-2-5.6-.3-1.2 1.5-1.3 1.2-1.4-2.1 0-2 .5-3.7 1-3.7s2-1.6 3.1-3.5q3.8-6.3 3.8-.8m-331.5 3.2c-.3 1.6-.1 3.2.5 3.5 1.1.7-.1 5.8-1.6 6.3-2.2.8-3.2-9.4-1.1-11.5q2.9-2.9 2.2 1.7M15 742.5q1.4 1.6.3 2.6c-1.3 1.3-6.3-.9-6.3-2.8s4.5-1.7 6 .2m458-.5q-.2.9-1.7 1-2.2.1-.3-1c1.9-1.2 2-1.2 2 0m-1.3 3.6q-.7.5-1.9.1t.6-.6q1.8 0 1.3.5m-213.9 6.1c1.7 7.3 2.5 15.3 1.4 15.3-.5 0-1.3-2.5-1.7-5.5s-1.1-5.7-1.6-6c-1.1-.7-1.2-8.5-.1-8.5.5 0 1.3 2.1 2 4.7m-136 .4q-.3 2.3-2.5 2.4c-1.9.1-2.2-.2-1.7-2.4.6-2.4.4-2.3-1.9.9q-2.5 3.5-1.3 4.2c1.2.7.8 1.2 0 2.5q-2.7 4.5-3.7-1.4c-.6-3.4-.3-4 2.5-6.3 5.7-4.5 9.3-4.5 8.6.1m318.6-.5q2.4 1.5 3.1.5c2-3.4 3.1 0 3.9 12.4l1.2 17.1c.4 7.1.3 10.3-.5 10.8q-1 .8-1.1 1.7.1.9 1 .4c1.3-.8 1.3 2.1 0 4.5q-1.3 2.2.5 1.4c1.9-.8 1.9-.1-.2 3.9-1.5 3-1.5 3.1 0 1.8 1.5-1.2 1.7-1.1 1.7.6 0 2.3-2.6 6.1-3.5 5.2-.3-.4-.7-2.4-.8-4.5-.1-2.2-.6-4.2-1.1-4.6q-.9-.7.2-3.2 1.2-2.6-.1-2.9t.1-2.7q1.2-2 .3-1.5-1.2.6-.9-2.2a10 10 0 0 0-1-4.9c-1.2-2.2-.7-5.9 1.2-8.4q1.5-1.9-.5-.2c-1.4 1-1.7.9-2.2-.7-.2-1.1.1-3.2.9-4.7 1.8-3.3 1.8-3.7-.1-3q-3 1 .2-2.6c1.2-1.4 1.4-2.3.6-4-1-2.2-1-2.2-2.4.7-.8 1.5-2 3-2.6 3.3-1.8.5-1.6-3.3.2-4.8 2.1-1.8 1.9-4.7-.5-5.3q-2-.5-2-3.1c0-3 1.1-3.2 4.4-1m21.3-1q-.7.5-1.9.1t.6-.6q1.8 0 1.3.5M200 753.5q-.1 1.3-1.6 1.5-2 .2-.4-1.5 1.2-1.3 1.6-1.5.3.2.4 1.5m-29.3 4.6c2.3 1.1 5 1.9 6.1 1.9 3.4 0 5 2.3 5.5 8.5.3 3.3 1.5 12.3 2.7 20 2.9 19.2 5.2 38.4 5.7 48.2l.4 8.2-3.3 1.4c-1.8.8-3.9 2.1-4.7 3-.7 1-2.4 1.7-3.8 1.7s-3.4.7-4.7 1.5c-2.4 1.6-3.2 1.6-11.8-.4q-4.7-1.1-11-.1c-3.5.5-8.1 1.1-10.3 1.2-3.8.3-4 .1-4.2-2.7l-1.3-13-3.1-31a259 259 0 0 0-2.6-21.7q-.2-.8.9-1.2c14.5-4.1 20.7-6.6 20.8-8.4q-.1-1-1.3-1.2a48 48 0 0 0-13.1 4.1c-1.5 1.3-6.6 1.1-7.1-.4a21 21 0 0 1-.7-4.1c-.3-2.6.1-2.9 4.5-4.1 2.7-.7 6.3-2.6 8-4.2 11.1-10.4 17.6-12 28.4-7.2m-88.1-1c.3.6 1.5.9 2.5.6q4.5-1.1-2.3 2.3c-5 2.4-6.7 2.5-7.4.5-1.3-3.3 5.3-6.4 7.2-3.4m39.8 5c-.7 1.1-4.4 1.2-4.4.1q0-.8 1.2-2c1.3-1.3 4.2.4 3.2 1.9m74.6-2.2c0 1.2-2 2.5-2.7 1.8s.6-2.7 1.8-2.7q.8 0 .9.9m3 1.1q-.2 1-2 2c-2.2 1.2-2.7.1-.8-1.8 1.4-1.4 2.8-1.6 2.8-.2m124.8.2q-.5 1.1-1.6 1.6-1.1.3-.6-1.2c.7-1.8 2.8-2.2 2.2-.4m137.2.9c0 1.1-2.7 1.2-3.4 0q-.4-.8 0-1.4c.8-.8 3.4.3 3.4 1.4m-409.6.7q.3.8-.4 2.2-.9 1.6-2.1.3-1-1.1-.5-2.2c.8-1.3 2.3-1.4 3-.3m62.1 3.4q-1 2.4.9 1.5 3-1 0 3.8-3.3 5.1-3.2-3c0-3.3.4-4.5 1.5-4.5q1.5-.1.8 2.2m-43.4 5 .1 5.3 1-4.8c1.1-5 3.6-6.2 3-1.4-.2 1.5.1 2.7.7 2.7s1.1-1.1 1.1-2.5c0-3.6 1.8-3.1 2.9.7q1 4.4 1 .7 0-5.2 3.3-2.2c4.3 3.9 1.5 6.9-9.5 10.3a21 21 0 0 0-10.8 6.3c-3.3 3.3-4.2 3.8-5 2.6q-.8-1.4-.9-2.6c0-1.9 2.1-2.7 3.1-1.2q1.6 2.8 2.1-6c.4-5.7 2.8-6.9 2.9-1.4.1 5.3 1.6 1.7 2.4-6 .8-7.1 2.5-7.5 2.6-.5m417.5-3.8q2 1.5.8 2.6c-.9.8-3.8.9-10.8.2-10-1-11.2-1.3-10.1-3.1 1-1.7 17.7-1.4 20.1.3m-156.6 1c0 1.6-2.6 4.6-4 4.6-.5 0-.4-1.4.1-3 1.1-3 3.9-4.2 3.9-1.6m-130 1.8c0 2-.1 2.1-1.3.4-1.2-1.6-1.4-1.6-2.6-.2q-1.3 1.5-2.4 1.6-.7-.2.8-2c2.5-2.7 5.5-2.6 5.5.2M58 773q0 .9-1 1a1 1 0 0 1-1-1q.1-1 1-1t1 1m277 1.1c0 1.7-2 4.9-3 4.9-1.4 0-1.2-3.4.2-4.8 1.5-1.5 2.8-1.5 2.8-.1m-72.4 16.1c.6 6.9.5 7.8-1 7.8q-1.8.2-1-2.5c.8-2.7.2-2.5-1.1-2.5q-2.1.2-.5-1.5c1.6-1.7 1-3 .1-8.6-.6-3.9-.8-7.5-.5-8.1 1.1-1.7 3.3 6.8 4 15.4m-256.1-13c3.5 1.6 3.4 4.2-.2 3.3q-5.1-1.2-3.9-3.4c.9-1.4.9-1.4 4.1.1m45.8.5q4.5 1 3.2 3.2c-.6 1.1-9.5-2.9-9.5-4.3q.1-.7 1.8-.1c.9.3 2.9.9 4.5 1.2m151.1.8a11 11 0 0 1 1.6 3c0 1.1-2.9.4-3.3-.8q-.3-1.4-2.1.2c-2.4 2-3 .7-1.1-2.3 2.1-3.2 2.8-3.2 4.9-.1m235.6 1.2q0 3.8-1.1 2.6c-.9-.9-.3-6.3.7-6.3.2 0 .4 1.7.4 3.7m-95-.4c0 1.4-2 3.7-3.2 3.7s-1-2.4.4-3.8q2.6-2.4 2.8.1m-6 1.7q-.1.9-1.6 1-1.3-.1-.9-1 .6-1 1.6-1 .8 0 .9 1m-295.8 8.3q-.4 6.7.7 6.7c.6 0 1.1-2 1.1-4.8 0-5.7.9-9.2 2.3-9.2q1 .2.4 6c-.4 3.3-.3 6 .2 6 1.3 0 2.1-2.6 2.1-6.7 0-5 2.4-3.7 3.1 1.8q.7 5.8 1.3-.8.2-1.2 1.2-2.3 1.1-1.3 1.8 2.2c.7 3.5-1.8 8.3-4.5 8.3-.8.1-3.5.7-6.1 1.4-7 2-7.8 1.3-7.2-5.6.6-8.1 1.3-10.5 2.7-10q1.2.3.9 7M7.8 784c1.2 0 1.7 3.2.6 4.3-.3.3-1.9.1-3.5-.5-3.7-1.3-4.3-5.4-.6-4.4 1.2.3 2.8.6 3.5.6m339.2-.1c0 1.3-2.6 3.2-3.3 2.4-.8-.7 1.1-3.3 2.4-3.3q.8 0 .9.9m12.5 0c.6 1.1-2.9 3.3-3.9 2.4-.7-.7 1.2-3.3 2.5-3.3q.7 0 1.4.9M37.1 792c-.3 7.7-.6 9-2.2 9-1 0-1.2-4.3-.2-11.8.9-7.9 2.7-5.9 2.4 2.8m167.6-4.3c.5 1.4-3.3 2.7-4.8 1.7q-1.3-.7.7-2.1 3.2-2.1 4.1.4m-172.2 7c-.8 9.5-2 11.1-6.3 8.9-4.4-2.3-4.7-3.3-2-7.1q4.5-6.9 3.3.5c-.4 2.3-.3 4 .3 4s1.2-2.7 1.6-6.1c.6-6.5 1.1-7.9 2.8-7.9q1 0 .3 7.7m407.6-1.4c0 2.9.4 7.4.8 10s.5 5 .1 5.2-1-2.3-1.4-5.8l-1.3-11.1c-.4-3.6-.3-4.7.6-4.2.6.4 1.1 3.1 1.2 5.9M5.8 790.6c2.1.6 3.1 3.8 1.5 4.7S2 794 2 792c0-2.2.3-2.3 3.8-1.4m327.1 3.9c4.5.9 8.7 1.2 9.4.8 1.4-.9 2-1 14.7-1.3 9.5-.3 16.6.6 17.5 2 .2.4.6 2.7.9 5.1l.6 5.4c.5 2.2-.1 2.5-3 1-1.7-.9-5.5-1.5-9.1-1.5q-6.3 0-8-1.6c-2.7-2.5-24.3-3.3-28.6-1-4.6 2.3-17.3 1.8-17.3-.8 0-.7-1.4-1.6-3.2-2.1-7.6-2.3-3.1-5.3 9.7-6.5l8.1-.9zM128 800.8q.2 2-1.5-.4c-1.9-2.5-1.9-4 0-2.4.8.7 1.5 2 1.5 2.8M7.2 798.5c.4.4-.1 5.6-2.8 25.2-.9 6.8-2.4 5-2.4-3 0-13.6.1-15.1 1.3-15.9q1.4-.7-.6-2C.3 801 1.5 798 4.4 798c1.3 0 2.5.2 2.8.5m257.8 8.7q0 2.6-.9 2.8c-1.1 0-2.1-3.6-2.1-7.5l.1-3 1.4 2.5a14 14 0 0 1 1.5 5.2m116.9 2.5c-1.8 2.1-2.9-.2-2.8-5.7v-4.5l2 4.4c1.5 3.4 1.7 4.7.8 5.8M350 806q0 .9-1 1a1 1 0 0 1-1-1q.1-1 1-1t1 1m-145.7 1.4c1.6 1.3 1.6 1.4-.5 1.9-2.5.7-4.4-.5-3.4-2.2.9-1.4 1.7-1.3 3.9.3M266 813q0 1.8-1 2-.9-.2-1-2c-.1-1.8.5-2 1-2q1 .2 1 2m183.8 2c-.2 1.6 0 3.1.6 3.3 1.1.4.8 1.3-2.7 10-.9 2.2-.9 3 .2 3.6 1 .7 1.1 1.2 0 2.9-1.1 1.8-1 2.4.4 4 1 1.1 1.5 2.6 1.1 3.6-.7 1.9-.6 1.9-3.9.4-2.4-1.1-2.5-1.5-2.5-9.3 0-4.5.6-10.3 1.4-12.8 1.2-4.1 1.2-4.6-.2-5.2-1.4-.5-1.4-.7-.2-1.5q1.4-.8 2.1.1.6.9 1.9-.6 2.6-3.5 1.8 1.5m-66.3 0q-1.7 1.8-2.3 1.5c-.7-.6 1.8-3.5 3.1-3.5q.7.2-.8 2M73 816q-.1.9-1.1 1-.8-.1-.4-1t1.1-1q.3 0 .4 1m50.7 7.2q-.5 1.1-.6-.6t.5-1.3c.3.3.4 1.2.1 1.9m5.3 3.3c0 3.1-1.9 5.5-4.4 5.5-1.3 0-.5-4.3 1.2-6.5q3.4-5 3.2 1m323 0q0 1.3-1 1.5-.9-.2-1-1.5c-.1-1.3.5-1.5 1-1.5q1 .2 1 1.5m-178.6 15.8c-.6 2.7-2.8 4.6-4.1 3.4q-.4-.8.2-2.4c.5-1 .8-4.3.7-7.3l-.1-5.5 2 4.4q2 4.4 1.3 7.4m148.1-6.3c.8 1.3-.5 1.3-2.5 0q-2-1.1.2-1c.9 0 2 .4 2.3 1m-212 2q0 1.5-3.7 1.8-5.8.5-2.6-2.6c1.7-1.7 6.3-1.1 6.3.8m180.5-.1q-.2.7-1.2 2.1-1.7 1.8.4.1c2.3-1.7 8.7-3.1 9.3-2 .3.4-1.1 1.9-3.2 3.2a26 26 0 0 0-5.2 4.1c-1.4 1.6-1.5 1.6-2.7-.6-.8-1.3-1.3-3.7-1.4-5.5 0-2.6.3-3 2-2.6q1.8.5 2 1.2m9 5.6q-.1 1.4-2.1 1.5c-1.8 0-1.9-.2-.9-1.5q1.2-1.3 2.1-1.5c.9-.2.9.7.9 1.5m-7.4 6.2c-2.1 2.1-2.6 2.3-2.6.8 0-1.9 4.3-5.9 4.8-4.4.2.5-.8 2.1-2.2 3.6m9.4-.7q0 2-1.5 1.4-2.4-1.1-.8-2.7c1.2-1.3 2.3-.7 2.3 1.3m-209.6 2.2c.3 1.3.6 4.2.6 6.5 0 3.8-.2 4.2-3.1 4.8-1.7.4-2.8.9-2.5 1.3 1.2 1.1-2.8 4.2-5.5 4.2-1.5 0-3.1.5-3.5 1.1-.8 1.4-12.5.5-15.2-1-1.2-.8.4-1.1 6.3-1.1 4.4-.1 9.6-.8 11.5-1.6l3.5-1.4-3.5.6c-5.9 1.1-23.5.7-25.7-.5a5 5 0 0 1-2.5-3.8c-.2-2.3-.8-2.9-3.5-3.1-1.8-.2-3.3-.7-3.3-1.3 0-1.7 12.8-1.6 21.8.2 4.3.9 6.1.8 9.3-.5 2.2-.9 5.3-1.6 6.9-1.6q3 0 4.6-2.5 2.8-4.7 3.8-.3m19.7.9c.8 1.6.8 2.4 0 3.2-1.4 1.4-3.1-.6-3.1-3.6 0-2.3 1.7-2.2 3.1.4m-66 7.9c1 .6 1.9 1.7 1.9 2.5 0 2.1 4 4.5 7.4 4.5 5.9 0 1.1 1.9-6.6 2.6l-7.8.7v-2.5c0-1.4-.3-4-.6-5.7-.6-2.7-.4-3.1 1.5-3.1 1.2 0 3.1.5 4.2 1m258.7.8q.2 1.1-2.3 1.2c-2.4 0-2.6-.2-1.5-1.5 1.4-1.7 3.1-1.6 3.8.3M212 861.9c0 1 .3 3.3.6 5q.7 3-.5 3.1c-1.4 0-3.1-4.1-2.3-5.5q.6-1.1.4-2.8-.2-1.5.7-1.7 1 .1 1.1 1.9m193.7 3.6q1 3-2 1.9a1.5 1.5 0 0 1-1-2c.7-1.9 2.2-1.8 3 .1m1.3 6.5q-.1.9-2.1 1-1.7-.1-1.4-1c.3-.6 1.3-1 2.1-1s1.4.4 1.4 1"/><path d="M157.2 385.7c-1.7.7-5.4 8.1-4.7 9.3 1.4 2.3 4.5.8 7.5-3.5 3.8-5.5 2.6-8-2.8-5.8m-37-98.1c.4 2 3.4 4.1 4.5 3.1 1-1.1-1.1-4.1-3.1-4.5q-1.8-.4-1.4 1.4m-5.8 6.5c-1 1.7.7 2.6 6.3 3.3 6.3.8 7.9-.8 2.9-2.9-4.2-1.8-8.2-1.9-9.2-.4m150.6 7.8q.1 1 2.1 2.4l2.1 1.5-2.1.7c-1.6.5-2.1 1.5-2.1 4 0 2.7.4 3.4 2.7 4 3.1.7 5.6-1.6 4.6-4.3q-1-2.2 1.5.1c2.1 2 4.2 1.6 4.2-.7s-7.8-8.6-10.5-8.6c-1.4 0-2.5.4-2.5.9m21.3 10.8c-1.2 1-3.6 4.8-5.2 8.5a22 22 0 0 1-4.3 7c-.7.3-2-.5-3-1.6-1.3-1.7-1.9-1.8-2.9-.9s-.9 1.5.1 2.8q1.2 1.4 2.3 1.5c.6 0 1.9.8 2.9 1.7 1.9 1.7 2 1.6 3.8-.7 1.1-1.4 2.7-4.2 3.6-6.2l1.7-3.7 3 1.5c2.6 1.4 3.1 1.4 4.5.1 1.1-1.2 1.2-2.2.4-4.5l-1-3 3 1q3 1 4.1-.1 1.3-1-2.4-2.5c-6.1-2.5-8.3-2.7-10.6-.9m3.5 5.4q-.4 1-1.3 1-1.2 0-1.3-1t1.3-1.1c1.5-.1 1.5.5 1.3 1.1m-25.5 13.6c-2.7.5-4.9 3.1-3.7 4.3a32 32 0 0 0 12.7 5.8c1.8-.2 2.2-1 2.2-3.7s-.6-3.8-3-5.2c-3-1.8-4.3-2-8.2-1.2m-63.2-17.3q-3.1 3.2-2.5 4.9c.9 2.3 1.3 2.2 4.6-1.5 4.9-5.6 3.1-8.7-2.1-3.4m-21.7 75.4c-3.9 3.1-7.5 11.9-8.9 21.7-.7 5-1.9 10.4-2.7 12.1a95 95 0 0 0-5.1 24.6q-.6 2.6.4 3.4c2.8 1.7 6.5-7.1 8.4-20.1 1.7-11.3 5.6-25 9.6-33.8 3.9-8.6 3.2-11.9-1.7-7.9m86.7 51.6a45 45 0 0 0-2.7 11.8 74 74 0 0 1-4 15.7c-2.7 6-3 8.1-1.1 8.1 2.4 0 5.7-9 9.4-26 1.9-8.8 2-10.2.7-10.7q-1-.2-2.3 1.1m-30.7 34.4a41 41 0 0 0-4.9 7.7c-5.9 10.6-12.3 16.9-20.6 20.1-7.1 2.8-10.6 5.5-9.4 7.3.9 1.6 3.3 1.4 9.4-.9a50 50 0 0 0 24.2-19.6c1.7-3 3.9-6 5-6.8 1.7-1.1 1.9-2 1.4-5q-1.1-5.4-5.1-2.8m23.3 3c-1 1-1.7 2.4-1.7 3.1q0 1.3-1.5.7c-2.9-1.1-4.6.8-9.2 10.3-5.9 12.3-8.7 16.6-11.8 18.7-2.4 1.6-2.7 1.6-4.6-.2-1.9-1.7-2.3-1.7-4.7-.3a6 6 0 0 0-3 4.4c-.3 2.4-1.2 3.4-4.5 5-4.4 2.1-5.5 4.7-2.4 5.3 1 .2 2.9-.3 4.2-1.2a10 10 0 0 1 4.5-1.6c1.2 0 3.2-1.1 4.5-2.4s3.8-3.3 5.7-4.4c5.1-3.1 11-10.7 15.8-20.1 2.3-4.5 4.4-8.1 4.6-7.8 1 1-4.1 13.1-7.2 16.9-3.8 4.9-4.3 6.8-1.5 6.8 2.4 0 8.4-6.6 11.5-12.7s6.9-19.1 6.2-20.9c-.7-1.9-3-1.8-4.9.4"/><path d="M233.2 499.2c-.7.7-1.2 2.3-1.2 3.6 0 3.8 3.4 2.4 3.8-1.6q.4-5-2.6-2m-22.7 56.9q-4 5-.3 5.7c2 .4 6.2-5.3 5.4-7.3-.8-2.3-2.2-1.8-5.1 1.6m-124.3 9.4c-.6 1.4-1 2.5-.7 2.5.7 0 3.5-3.2 3.5-4.1 0-1.8-1.7-.9-2.8 1.6m7.9 16.5c-.1 2-.6 4.1-1.2 4.7-.8.8-.5 2.5 1.2 6.2 2 4.6 2.4 5 3.8 3.7 1.3-1.4 1.3-1.8-.3-3.4-1.5-1.7-1.5-2-.1-2.5 1.9-.8 1.9-3.1 0-4.7-.8-.7-1.9-2.7-2.4-4.4l-.9-3.1zm-4.3 4.5c-1 1.3-1.8 3-1.8 3.7s1-.2 2.1-2c2.5-3.8 2.2-5.1-.3-1.7m7.8 20.2q-1 2 .5.6 1.1-1.2.7-1.8-.6-.4-1.2 1.2m310.7-34.2c-1.5 1.3-2.3 2.5-1.7 2.5s2.1-1.1 3.4-2.5c3-3.2 1.9-3.2-1.7 0m-288.4 53.9q2.3 2.3 2.9 2.2c.7-.8-.8-2.5-3.1-3.7-2.1-1.1-2.1-1 .2 1.5m7.3-.8q1.6 1.6 2.4 1.2.3-.7-1.8-1.8-3.2-2-.6.6m-13.2.7c0 .2 1.5 1.6 3.3 3.3l3.2 2.9-2.9-3.3c-2.8-3-3.6-3.7-3.6-2.9M433.9 604c-1.7 1.6-2.7 3.5-2.3 4.1q.7 1 4-2.5c1.9-2.1 3.4-3.9 3.4-4.2 0-1.3-2.5 0-5.1 2.6m-170.8-1.6q-1 1.4-.3 2 1 .3 2.1-.8 1-1.4.3-2-1-.3-2.1.8m5.3-.5c-1 1-.3 2.3 1.1 1.8 1.7-.7 3 1.1 2.7 3.8q-.2 2.3.9-.5c.5-1.3 1.7-3.3 2.6-4.2 1.5-1.7 1.3-1.8-2.6-1.5-2.3.1-4.4.4-4.7.6m-12.4 1.7q.1 1.3 1 .9 1-.6 1-1.6 0-.8-1-.9-.9.1-1 1.6m5.4 3.8c-.3.8-.4 2.3-.2 3.2q.2 2.2 1.5-.9 1.2-2.6.3-3.2-1-.4-1.6.9m-5.7.3q-.6.6-.7 1.7 0 .9 1.2-.2 1-1 .7-1.7-.6-.4-1.2.2M266 609q0 1.8.4 2c.4.2.6-.9.9-2q.4-1.8-.4-2c-.8-.2-.9.9-.9 2m22 17.9c0 1.7 1.8 2.1 2.4.6q.4-1.4-.9-1.5-1.4 0-1.5.9m5.1 6.7q0 1.7.6.6.4-1.2-.1-1.9-.6-.5-.5 1.3m-2.5 6c-1 2.5.1 2.9 1.4.5q1-2 .1-2.1-.9.1-1.5 1.6m-2.6 7.3q-1.9 3.7-.1 2.7c.9-.6 2.2-4.6 1.5-4.6q-.4.2-1.4 1.9m14.7.8q-.6.6-.7 1.7 0 .9 1.2-.2 1-1 .7-1.7-.6-.4-1.2.2m-17.1 5.8q-1.3 4 .5 1.2c.6-1 .9-2.1.6-2.3q-.4-.3-1.1 1.1m19.9.4q-1.8 2.2-2.9 1.1c-1.4-1.4-2.6-1.2-2.6.5q.1 1.4 2.1 1.5c1.8 0 2 .4 1.4 3.2-.6 2.6-.5 3 1 2.5.9-.4 1.9-.7 2.2-.7q.4-.2-.7-1.5c-1-1.2-.9-2 .4-4.1 2.2-3.3 1.6-5.1-.9-2.5m-13.5 8.2q.1.8 1 .4t1-1.1q0-.4-1-.4-.9.1-1 1.1m-1.4 5.4q-.4 1.3.4 1.5 1-.2 1-1.5c0-1.3-.2-1.5-.4-1.5s-.6.7-1 1.5m10.5.1q0 1.7.6.6.4-1.2-.1-1.9-.6-.5-.5 1.3m-12 7q0 1.7.6.6.4-1.2-.1-1.9-.6-.5-.5 1.3m3 6q0 1.7.6.6.4-1.2-.1-1.9-.6-.5-.5 1.3m11.5 10c-.8 2.1-.8 2.4.3 2.4q.9-.2 1.4-2c.6-2.4-.8-2.7-1.7-.4m3.1 6c-.4.4-.7 1.7-.7 2.8.1 1.9.1 2 1.1.3 1.1-1.9.8-4.3-.4-3.1m-5 1.1q-.6.6-.7 2.2 0 2 1.1-.2c1.1-1.9.8-3.3-.4-2m8.4.9q0 1.7.6.6.4-1.2-.1-1.9-.6-.5-.5 1.3m3.6 6.8c-.4 1-.7 3-.6 4.4.1 2.5.1 2.5 1-.6 1.1-3.7.7-6.7-.4-3.8m33.3-58.9q-1.2 1.5-.8 2 .6.4 1.8-1c1.2-1.4 1.1-1.8.8-2q-.6-.4-1.8 1m4.1 18.7q-2.3 3.3.8.4 3.2-2.8 1.3-2.6-.7.2-2.1 2.2m1.1 3.2c-1.9 2-2.1 3.1-1.6 6.5.4 2.3 1 4.1 1.5 4.1s.9.7.9 1.5c0 2.3 1.5 1.8 2.8-1l2.4-5c1.4-3 .1-7.8-2.2-8.2-.8-.2-2.5.8-3.8 2.1m5.1 15.2c-2 2.1-1.6 4.2.3 2.2.9-.9 1.5-2.1 1.3-2.6q-.4-.8-1.6.4m6.9 24.6c-1.4 1.4-1.6 2.8-.3 2.8.9 0 2.4-3 1.8-3.6q-.4-.2-1.5.8M175.5 651c-.7 1.2.2 3 1.6 3 1.2 0 1.2-2.7 0-3.5q-.9-.4-1.6.5m2 6.1c-.3.9-.3 2.4.1 3.3.6 1.5.8 1.5 2.4.1.9-.8 2.8-1.4 4.1-1.3q2.6.4 2.7-1.7c.2-1.8-.3-2.1-4.3-2.1-3.3 0-4.6.4-5 1.7m4 5q-.6 1-.2 1.5.4.3 1-1.1c.7-1.7.1-2-.8-.4m-81.9-17q-4.1 4.9-1.6 6.4c.6.3.8 1.6.5 2.8q-.6 2.3 1.6 3.5c1.9 1.2 2.4 1 5-2 3.4-4 3.6-5.7.9-9.1-1.1-1.4-2-3-2-3.6 0-2-1.8-1.2-4.4 2M86.5 653q.5.9 1.1 1 .3-.1.4-1-.1-1-1.1-1-.8 0-.4 1m-6.9 16.2c1.5 2 3 3.5 3.3 3.2s-1-1.9-2.8-3.7l-3.4-3.2zm6.4 20.2q.1.5 1.8 1.7 2.2 2 .3-.4c-1.9-2.4-2.1-2.1-2.1-1.3m-14 2q.1.5 1.8 1.7 2.2 2 .3-.4c-1.9-2.4-2.1-2.1-2.1-1.3m15 14.1c1.9 1.9 3.8 3.5 4.4 3.5.5 0-.5-1.6-2.4-3.5s-3.8-3.5-4.4-3.5c-.5 0 .5 1.6 2.4 3.5m-5 2c.1 1.4 7.9 10.2 8 8.9 0-.6-1.8-3.1-4-5.5s-4-3.9-4-3.4m-2.5 7.4c2.1 2.2 4.1 4.1 4.3 4.1.8 0-4.4-5.8-6.3-7-1.1-.7-.2.6 2 2.9m-5 19.1c3.2 3.3 6.1 5.7 6.4 5.4.6-.6-10-11.4-11.3-11.4-.6 0 1.6 2.7 4.9 6M64 752.9q.1.9 1.6 1.5 2 .9.4-.9-2-2.6-2-.6m123.1-34.3q0 1.7.6.6.4-1.2-.1-1.9-.6-.5-.5 1.3m4.1 26.4q0 2.2.5 1.2c.2-.6.2-1.8 0-2.5q-.5-.8-.5 1.3m8 73.3c-1.2 1.3-2.2 3-2.2 3.8q.1 1.4 2-1 2-2.3 3.6-1.7c1.9.7 4.7-1.2 3.8-2.5-1-1.7-5.1-.9-7.2 1.4M368 728.5q-1.2 1.4-.2 1.5c1.2 0 2.6-1.9 1.9-2.6q-.5-.3-1.7 1.1m4.7 23.9c-1 1.5-1.6 3-1.3 3.4 1.1 1 3.8-2.5 3.4-4.4-.3-1.5-.6-1.4-2.1 1m2 4.4c-1.7 1.8-2.3 4.2-1.1 4.2.8 0 4.3-4.3 4.4-5.3 0-1.3-1.7-.7-3.3 1.1m2.3 3.7c-.7.9-1.4 3-1.6 4.8l-.2 3.2 2.4-2.8q3.8-4.5 1.5-6.1-.9-.4-2.1.9m-54.5-15.4c-1.1 1.7.1 2.1 1.5.4q1.2-1.4.2-1.5-1 .1-1.7 1.1m2.1 7.5q-.6 1.5-.1 2.2.4.3 1.1-1.2.6-1.5.1-2.2-.4-.3-1.1 1.2m-171.1 6.9a26 26 0 0 0-9.3 7.1c-4.7 5.1-6.2 6-10.9 6.3q-1.2.3-1.3 1.6c0 1.5 1 1.9 4.5 1.6 5.4-.5 8.3-2.3 11.4-7.1 2.6-4 4-5.2 7.4-6.1 5.3-1.4 7-2.2 6.9-3.4-.2-1.6-4.4-1.6-8.7 0m-78.4 16.1q0 1.7.6.6.4-1.2-.1-1.9-.5-.5-.5 1.3m233.3-358.5c-2.6 4.2-2.6 7.3 0 6.3 2.1-.8 6.9-8.1 6.1-9.3q-2-3-6.1 3M13.1 679.6q0 1.7.6.6.4-1.2-.1-1.9-.6-.5-.5 1.3m-1.1 6q.1 1.3 1 .9 1-.7.5-1.6-1.4-2-1.5.7m-1.3 5.3q-.7 3.5 1.4 2.5c1.2-.7 1.2-4.4 0-4.4q-.8.2-1.4 1.9m232.3 6.6c-.7.9-1.9 1.4-2.6 1.1q-1.2-.4-1.9.4-.5 1 .6 1c1.1 0 1 1-.6 5.5q-.6 1.8 1.1-.8c1.9-2.7 3.4-3.5 3.4-1.8q0 1-1 1.6c-1.2.8-1.3 4.5-.1 4.5 2.4 0 3.5-3.9 2.9-10.8-.3-2.6-.2-2.6-1.8-.7m-232.9 1.1q0 1.7.6.6.4-1.2-.1-1.9-.6-.5-.5 1.3m233.7 12.5c-2.2 1.2-2.4 3.9-.3 3.9 1.6 0 2.9-2.2 2.3-3.9q-.3-.9-2 0m6.7 66.9q-.4.9.4 1 1-.1 1.1-1 0-1-.4-1-.6 0-1.1 1m225.5.5c-1 1.2-1 1.8 0 3 2.5 3 8 .5 6.6-3-.7-1.9-5-1.9-6.6 0m-224 11.6q.1.8 1 .4t1-1.1q0-.4-1-.4-.9.1-1 1.1m204 9.9q.2.9 1.8 1c1.7 0 4.3 1.6 11 6.4 3.1 2.3 3.5 2.4 6.7 1 1.9-.8 3.7-1.4 4-1.3l3.6-.6q3.2-.7 4 .6 1 1.4-1.8 1.9c-3.2.6-4.3 3-1.5 3q5.3 0 5.2 3.6 0 2.5-2 2.4-1.8 0-2 1 .2.9 2 1c1.8.1 2-.5 2-1q-.1-2.5 6 1.5c4.9 3.1 5 3.1 5 0q0-2.5-2.4-3.1-2.9-.6-1.3-1.9 1.2-1.3 2.5-.3 1.3 1.3 1.2-1.5 0-2.6-2-3.2-1.8-.7-1.4-1.6.6-1 2-.5t1.4-1.4c0-1.7-.7-2-4.2-2.1-11.1-.3-16.7-.1-20.9.6-4.3.7-5 .4-9.9-2.9-5.1-3.5-9-4.6-9-2.6m3.5 19c-.6.9 3.2 4 5 4a14 14 0 0 1 4.5 2.5c3.4 2.5 6 2.1 6-1.1q-.1-3 4.4.7c2.6 2.1 5.3 1.6 3.8-.6-3-4.4-13.3-7.8-11.8-4 .5 1.3.2 1.4-2.2.2-3.7-1.9-9-2.8-9.7-1.7m-1 7.9c-.3.6 2.5 2.4 6.2 4.2 6 2.8 15.6 11.2 23.8 20.7.6.7 3.4 3 6.3 5.3l5.3 4.1-.3-3.4c-.3-3-1-3.7-7.3-7-7.1-3.7-8.8-5.4-6-6 1.1-.2-.1-2-4.2-6.3-7.9-8.1-21.7-14.9-23.8-11.6m17.5 2.9c0 1 11.7 8.2 13.2 8.2s-1.7-3.9-5.3-6.6c-3.2-2.3-7.9-3.3-7.9-1.6"/><path d="M494.3 841.4c.7 1.9.6 1.9-2.7.6-2.2-.8-2.6-.7-2.6.9 0 2.4 4.5 6.5 6.4 5.8.9-.4 1.6-1.6 1.6-2.8q-.1-2.2 1.6-1.5t1.2-1.7q-.2-2.3-3.2-2.5c-2.3-.3-2.8 0-2.3 1.2m-275.5 3.3c-2 .5-2.3 1.8-.8 2.8 1.2.7 5-1.2 5-2.5q.2-1.5-4.2-.3m-18.5 2.5c-.4.7-.8 3.2-.9 5.6-.2 5.9 1.9 3.8 2.2-2.3.3-4.7.1-5.3-1.3-3.3m263.2 1.7c-.4.7 1.1 1.9 3.5 3 2.3 1 6.3 4.2 8.9 7 2.9 3.1 5.6 5.1 6.9 5.1q4.2.1 0-3.7a39 39 0 0 1-4.9-5.5 14 14 0 0 0-6.9-4.7l-5.5-1.7q-1.2-.3-2 .5m35 2q-.4.9.5 1.6.9.4 1-.9 0-2.7-1.5-.7m-236 2.1q-.5.9.4 1 1-.1 1.6-1 .5-1-.4-1a2 2 0 0 0-1.6 1m-38.7.7c.7.3 1.6.2 1.9-.1q.5-.5-1.3-.5-1.7 0-.6.6m7.5 0c1.5.2 3.9.2 5.5 0 1.5-.2.2-.4-2.8-.4s-4.3.2-2.7.4M34.5 858q-.5 1.3.9 2.8c1.5 1.5 1.6 1.5 1.6-.1l.1-2.4c.1-1.3-1.9-1.5-2.6-.3m269.5 3.5c0 1 5.2 2.5 6.3 1.8q1-.6-.9-1.4c-2.3-.9-5.4-1.1-5.4-.4m185 3.5q.1 1 1.5 1.6t1.5 1.8c0 .6 1.8 2.1 4 3.4l4 2.3v-2.6c0-2-1-3-5-5-5.5-2.8-6-2.9-6-1.5m-365 2.5q0 2.3.9 2.5c1.2 0 2.3-2.9 1.5-4.1-1-1.8-2.4-.9-2.4 1.6m344-1.2c0 .9 1.8 2.2 4.3 3.2 2.6 1 5.1 2.9 6.6 5 1.8 2.7 3.1 3.5 5.3 3.5h3l-2.6-3.1a14 14 0 0 1-2.6-4c0-1-7.2-4.4-11.6-5.5q-2.5-.8-2.4.9M364 868c1.4.4 4.2.8 6.2.9s4 .5 4.3 1.1q.4 1-6.8 1a52 52 0 0 0-22.7 5.5l-2.5 1.4 2.5.1c1.4 0 5-1 8-2.2a45 45 0 0 1 27.3 0c8.7 2.5 9.7 2.6 9.7 1.3 0-.5-1.7-1.5-3.7-2.1-5.2-1.7-6.1-2.7-3.8-4.4 1.8-1.3 1.8-1.4-.3-2.5-1.1-.6-6.2-1.1-11.4-1q-9.3.1-6.8.9m-163.3.7q-.6.6-.7 1.7 0 .9 1.2-.2 1-1 .7-1.7-.6-.4-1.2.2m75.8 8.3q-.4.9.4 1 1-.1 1.1-1 0-1-.4-1t-1.1 1"/></svg>