<svg xmlns="http://www.w3.org/2000/svg" width="666.7" height="1170.7" viewBox="0 0 500 878"><path d="M287.9 4.4c-.3.3-16.2.8-35.4 1.1-19.3.3-35.8.8-36.8 1.1-2.8.9-1.4 2.9 1.9 2.9 1.6 0 3.5.4 4.2.8 1.3.9 10.2 18.8 10.2 20.6 0 1.2-2.6 2.1-6.3 2.1q-3.4 0-1.9 1.2c.8.8 6 1.1 17.4.9 23.7-.3 46-1.1 47-1.7 1.6-1-.3-2.4-3.2-2.4-1.5 0-3-.6-3.3-1.3s-.4-5.8-.3-11.2l.1-10 3.8-.6q6.3-1 4.1-2.9-1-.9-1.5-.6m-23.1 15.4c.2 9.3 0 11.2-1.2 11.2q-1.5 0-2-4.3c-1.6-13.1-1.7-15.9-.5-17.3 2.6-3.1 3.4-.7 3.7 10.4m9.9 0c-.2 8.8-.5 10.7-1.7 10.7s-1.6-1.9-1.8-9.9c-.3-11 0-12.8 2.2-12 1.1.4 1.4 2.7 1.3 11.2m-32.2-7.6c-1.2 5.5-5.5 14.2-6.4 13.2-1.5-1.6-7-15.2-6.4-15.8.4-.3 3.5-.6 7-.6h6.5zm11.9 4 1.2 11c.5 3.5.4 3.8-1.8 3.9-1.2 0-4.7.2-7.5.5-3.1.3-5.3.1-5.3-.5a43 43 0 0 1 3-7.3c1.6-3.4 3-6.9 3-7.6 0-2 3.9-7.2 5.5-7.2q1.3-.2 1.9 7.2M0 67.8c0 .9 11.8 6.9 19.3 9.8 5.4 2.1 5.8 3.2 2.1 5.4-2 1.2-2.8 1.3-4.5.2-2.2-1.4-3.2-.7-6 4C9.6 89.6 8 89.5 8 87c0-1-.8-2.4-1.7-2.9-1.6-1-1.6-1.1.5-1.7q2-.7 1.9-1.7-1-3.4-4.7 2.3c-1.4 2.2-2.8 4-3.2 4S0 88.3 0 89.8c0 2.4.8 3.2 5.3 5.4 6.8 3.4 25.2 11.3 34.7 14.8 7.4 2.7 16 6.1 57.5 22.5 11.6 4.5 23.9 9.2 27.5 10.3s11.9 4.2 18.5 6.7l18 7c7 2.6 12.8 4.9 24 9.5l20 8.2c6.6 2.7 15.4 6.1 19.5 7.4s8.6 3.1 10 3.8 4.3 1.9 6.5 2.6a26 26 0 0 1 5 2c.6.4 7.6 3.5 15.6 7 12.4 5.3 14.9 6.7 16.3 9.4l3.2 5.9c2.2 4.1 5.6 5.8 11.9 6.2 6.5.4 7.6 1 5.1 2.8-1.6 1.2-1.7 1.7-.6 3.8 1.7 3.2 2.9 3.9 7 3.9 3.2.1 3.7.5 6 5.2 2.9 6 5.2 7.8 7.8 6.2 3.8-2.4 2.2-12.2-2.7-16-1.9-1.5-.6-3.4 2.4-3.4 1.2 0 10.1 3.4 19.6 7.5 9.6 4.2 21.5 9.1 26.4 11a5800 5800 0 0 1 69.5 28.2c12.1 5 14.4 5.2 18.1 1.7l3-2.9 5.7 6.2c7.8 8.6 14.4 10.5 17.3 5.2 1-1.9.5-2.7-4.6-7.5-3.5-3.3-6.6-5.4-8-5.4q-2.1-.1-2.9-1.5c-.4-1.2.6-1.5 6-1.5 4.8 0 6.6.4 7 1.5.9 2.3 6.8 5.5 10.2 5.5 3 0 6.2-2.1 6.2-4.1 0-1.7-4.7-5.8-7.5-6.5-2.4-.6-2.7-1-2.2-4 .6-3.8-1.6-6.4-5.6-6.4-2.6 0-6.7 4-6.7 6.6 0 1.7-5.3 4.5-6.6 3.6-.6-.4-1.6-2.2-2.3-3.9-1.5-3.6-5.9-6.7-10.9-7.7-3.2-.6-64-24.4-79.2-31-4.1-1.8-15.4-6.3-25-10s-24-9.6-32-13.1a1094 1094 0 0 0-54.5-21.5c-6-2.3-17.8-7-26.2-10.6A859 859 0 0 0 187 142c-15.4-5.5-27-10.2-27-11 0-.4 1.2-1.2 2.6-1.9 2.3-1 3-.9 4.9.9 2.6 2.4 5.8 2.6 7.6.4 1.1-1.4 1-2.1-.4-4.6-.9-1.6-1.7-4-1.7-5.2 0-2.6-3.4-6.6-5.6-6.6-.8 0-2.4.5-3.5 1.1-1.6.8-2.6.5-5-1.5-4.6-3.9-12.9-3.1-12.9 1.3 0 2.3 4.1 6.1 6.7 6.1s4.7 2.5 3.9 4.6c-.5 1.3-1.5 1.5-4.4 1.2-6.4-.9-34.5-11.9-47.7-18.6a97 97 0 0 0-11.5-4.8 255 255 0 0 1-13.5-5l-13.5-5c-3.6-1.2-8.7-3.2-11.3-4.4a32 32 0 0 0-7-2.4A49 49 0 0 1 30 80c-5.2-2.7-11.9-5.8-14.7-6.9L5 69c-2.7-1.1-5-1.6-5-1.2m30.2 15.6c2 1.1 3.9 2.7 4.1 3.8q.4 2 2.9 1.3c2.7-.7 5.8 1.9 4.2 3.5-1.1 1.1-5.4.2-5.4-1.1 0-.5-1.2-.9-2.6-.9q-2.6 0-3.1-1.8-.5-2-2.6-1.5c-3.5.6-5.1-1-3.7-3.6q1-2 1.8-1.9zm-13.3 2.9c.8 1.1.6 1.8-.8 3.1-1.8 1.6-1.9 1.6-2.3-1.4-.5-3.2 1.1-4.1 3.1-1.7m7.8 3.3c.1.5-.4 1.8-1.2 2.8-1.9 2.6-3.6 1-2.4-2.2.9-2.3 3-2.6 3.6-.6m35.8 4.2c11.5 4.1 12.4 4.5 22 8.5 3.3 1.3 7.8 3 10 3.7q6.7 2.2 12.4 6.2c1.3 1 3 1.8 3.9 1.8 1.3 0 15.1 5.8 29.7 12.5 2.8 1.3 6.4 2.7 8 3.1 3.6.8 18.2 7.8 20.9 9.8 1.6 1.3 1.7 1.8.6 3.1q-2.4 2.7 2.2.4 2.4-1 5.2.1l2.8 1-3.1 3.2a15 15 0 0 0-3.7 5.5c-.6 2.4-3 3.8-4 2.2-.3-.5 0-1.6.6-2.4s1-2.4.8-3.6c-.2-1.9-1-2.3-4.8-2.5-2.6-.1-4.9-.9-5.6-1.8-1.6-2.2-2.7-2-5.8 1.1-3 2.9-4.4 2.6-2.6-.7.6-1.2.9-3.3.5-4.7-.6-2.4-.7-2.4-2.4-.9-3 2.8-5 2-4.7-1.8.2-1.8.6-3.8 1-4.4q.6-1-2.1-.9c-2 .1-3-.4-3.8-2.1-.5-1.2-1.2-2.2-1.5-2.2-2.1.2-7 7.4-7 10.3 0 2.1-1.9 3.2-3.2 1.9q-1-1 .3-2.9c1.5-2.5.4-7.3-1.7-7.3q-1.4.1-2 1.5c-.7 1.6-5.4 2.1-5.4.6 0-2.4 2.1-6 3.6-6.3s1.5-.5.3-1.5c-2.9-2.4-8.5 2.7-9.3 8.6q-.4 1.5-1.7 1.6-1.3-.1-1.1-2l.9-5.8c.3-2.2 1.1-3.7 1.9-3.7q1.2-.1.8-1.4c-.6-1.5-3.4-1.1-3.4.5 0 .6-1.3 2.3-2.9 3.8-1.6 1.6-2.7 3.2-2.4 3.5s.3 1.3-.1 2.2q-.6 1.8-1.9.5c-1.1-.9-1.1-1.9.2-6.1s2-5 4-5q2.7.2 1.1-1.5c-.6-.8-.9-1.9-.5-2.5q.5-.9-.4-1-1 .1-1.7 1.1c-.3.6-1.5.9-2.5.6q-2.2-.7-1 1.1 1 1.5-1.6 3.5c-2.2 1.7-2.6 1.8-3.9.5-1.8-1.7-.9-4.5 1.6-5.3 2.6-.8 1.4-3.3-1.6-3.1q-2.4.1-1.9 1.6.3 1.5-2.5 3.2c-2.8 1.7-3 2.5-3 3.7 0 2.6-1.8 3.7-2.7 1.5-.3-1 0-2.2.8-2.8s1.3-2 1.1-3.2c-.4-3-6-2.1-7.2 1.2-.5 1.3-1.4 2.4-2 2.4-1.3 0-1.3-2.7 0-3.5q1-.8.5-2.5-.7-1.9 2-3.6c3-2 2.8-3.7-.4-3.9q-2.4-.2-1.8 1.6c.3 1-.1 2.6-.7 3.5-1.1 1.5-1.5 1.4-4-.9-2.7-2.6-2.8-4.7-.1-4.7q1.2 0 .8-1.9c-.4-1.7-.8-1.8-2.4-.8-1 .6-1.9 1.9-1.9 2.8s-.7 2.3-1.6 3c-1.4 1.1-1.9 1-3.6-1.1a6 6 0 0 0-5.2-2.5c-1.7 0-3.1-.5-3.1-1q0-1-.9-2.3c-.4-.7-.3-1.9.3-2.6q1-1.2.4-1.9-2.2-2.2-4 2.4c-.9 2.4-1.7 3-3.5 2.7-3-.4-3.1-3.9-.1-5.3 2.7-1.4 1.3-4.5-2.2-4.5-3 0-3.5-.9-2.4-3.9q.9-2.4 2.7-1.8zm-28.7-.5q.2 1.7-1.3 2.3-3.2 1.3-2-2.6c.8-2.4 2.8-2.2 3.3.3m6.7 3.6q-.6 2-1.7 2.1-.8-.1-.4-1.6c.3-.9.6-2.3.6-3.2q0-1.7 1.1-.5c.6.6.8 2 .4 3.2m-17-1c.7 1.2-1.2 2.4-2.5 1.6-1.1-.7-.4-2.5 1-2.5q.8 0 1.5.9m24 1.1q.4.9-.6 1-1.6.2-3.1 1.7c-1.7 1.5-1.8 1.5-1.8-.5 0-2.7 4.1-4.4 5.5-2.2m-17 2.8c0 1.8-2 1.5-2.3-.4q-.4-1.6 1-1.2 1.2.6 1.3 1.6M40 105q0 .9-1 1a1 1 0 0 1-1-1q.1-1 1-1t1 1m8.9 2.4c1.4 1.7 0 2.9-2.3 2q-2.6-1-.9-2.7 1.4-1.6 3.2.7m10.1 5.1c-1.3 1.6-4 .9-4-.9q.1-3.1 3.2-1.5c1.5.8 1.7 1.3.8 2.4m8.8 2.2c.5 1.7-2.6 2.9-4 1.5q-.9-1-.3-2.2c.9-1.4 3.7-.9 4.3.7m89.2 1.9c0 .2-1.5.4-3.2.3q-3.9 0-1.3-.8c1.8-.8 4.5-.4 4.5.5m-80.6 1.2c.2.4.1 1.4-.4 2.1-1 1.7-3.1.5-2.3-1.4.6-1.6 1.9-2 2.7-.7m92.6 2.1q0 1-1 1.6-.9.4-1-.9.1-1.5 1-1.6 1 0 1 .9m-72 5.6c1 1.2 1 1.8 0 3.1-1.2 1.3-1.5 1.3-2.8 0-1.5-1.5-1-4.6.6-4.6.5 0 1.5.7 2.2 1.5m42 12.5c-1.1 1.5-2 3.6-2 4.5q-.1 1.5-1.2 1.2c-1.5-.5-1.4-4 .1-8 .9-2.4 1.4-2.6 3.1-1.7l2.1 1.1zm-18.1-2.6q1 1.4.2 2c-1.4.9-4.1-.4-4.1-2 0-1.8 2.4-1.8 3.9 0m23.7 7.7c.8 1.4-1.1 3.3-2.5 2.5-1.1-.7-.4-3.6.9-3.6q.9.1 1.6 1.1m50.2 6.1 19.2 7.5 14.9 5.8c6.3 2.4 11 5.5 8.3 5.5-.7 0-2.1 1.1-3.3 2.4-1.7 2-2.4 2.2-4.5 1.2-2.5-1.1-3.1-3-1.4-4.1a2 2 0 0 0 1-1.7q-.2-.8-2.3 1a9 9 0 0 1-4.9 2.2c-1.5 0-3.2.9-4.1 2.2s-1.9 1.9-2.3 1.5c-.5-.5.1-1.7 1.3-2.6 2.8-2.3 1.6-4.2-2.8-4.4-2.8-.2-3.5.2-3.7 2-.4 2.5-2.3 3.5-4.3 2.2-1.2-.7-1.1-1.3.4-4 3-5.4-.7-7-4.5-1.9-1.2 1.6-2.5 3-3 3-1.1 0-1-3.7.1-4.4.4-.3.6-1.6.4-2.9-.3-1.4.2-2.9 1.1-3.6 2-1.7 2.1-3.1.2-3.1-1.8 0-7.6 6.6-7.6 8.5q-.2 1.3-1.5 1.5c-1.8 0-1.9-1.2-.4-2.7 1.6-1.6.2-3.3-2.7-3.3-1.3 0-2.4-.5-2.4-1s-1.7-1-3.9-1c-4.8 0-6.7-1.9-4.6-4.6.8-1 1.5-2.7 1.5-3.7 0-2.7 4.1-2.1 15.8 2.5m-16.8 7.9c0 2.4-2.3 2.1-2.8-.4q-.2-1.6 1.2-1.7 1.5.2 1.6 2.1m8 1.8q0 1-1 1.6-.9.4-1-.9.1-1.5 1-1.6 1 0 1 .9m58.6 10.6c1.8 1.4 1.8 1.6-1.4 4.5-1.7 1.6-3.1 3.5-3 4.2.2.6-.6 1.4-1.6 1.6-1.5.3-1.8 0-1.3-1.8.3-1.2.1-3.1-.6-4.1-.9-1.4-.7-2.2.7-3.8q3.3-3.7 7.2-.6m9.4 3.5c1.2.8 1.2 1-.3 1.6q-1.5.6-1.7 2c0 .7-.9 1.8-2.1 2.4-1.7.9-2.3.8-3.5-.7-1.8-2.5-1.8-2.9.8-4.7q3.6-2.7 6.8-.6m-23 2.4q0 .6-1 1.1-.9.4-1-.4.1-1 1-1.1 1 0 1 .4m31 .6c1.2.8 1.2 1-.3 1.6-2 .7-4.7-.1-4.7-1.6 0-1.2 3-1.3 5 0m7.9 2.9q1.4.9.2 1.5c-1.4.9-5.1-.2-5.1-1.5 0-1.1 3-1.2 4.9 0m-13.8 1.1c2.7 1.5 2.4 3-.6 3q-2.6.1-2.5-2c0-2.3.4-2.4 3.1-1m22.4 1.5 7.1 3c1.9.8 3.2 2 2.9 2.5-1 1.6-4 1.1-6.9-1.1-1.4-1.1-2.9-1.8-3.3-1.6-1.4.8-5.3-1.2-5.3-2.8 0-1.9 1-1.9 5.5 0m-32.4 2.2q-1 2.2-1.1.2c0-1.7 1-3.2 1.8-2.5q.3.6-.7 2.3m17.3-.1c2.2.9 2 2.4-.3 2.4-2.1 0-3.4-1.3-2.4-2.4.8-.7.8-.7 2.7 0m-10.4 1.8c0 .8-.4 1.8-1 2.1q-.9.3-1-1.4.1-2 1-2.1 1 .1 1 1.4m7.4 3.1c-.6 1.6-2.4 2.1-2.4.7 0-1.1 1.1-2.2 2.1-2.2q.8.1.3 1.5m10.9-.8c-.7.2-1.9.2-2.5 0q-1-.5 1.2-.5c2.2 0 1.9.2 1.3.5m24.1.3c2.9 1.1 3.4 2.8 1.1 3.6-1.8.7-6.8-2.3-6-3.6.8-1.2 1.7-1.2 4.9 0m-28.4 4q0 .9-1 1a1 1 0 0 1-1-1q.1-1 1-1t1 1m37.4-.4q1.5.7 1.6 1.9c0 1.9-2.8 2.7-5.1 1.4-1.6-.8-1.8-1.3-.8-2.5 1.3-1.6 2-1.7 4.3-.8m-14.6 3q2 .7 2.2 1.5c0 1.4-3.3 1-5.4-.6q-3.1-2.5 3.2-.9m23 1c2.6 1.8 2 3.4-1.2 3.4-2.7 0-5.1-2.4-4.1-4q1.4-2.2 5.3.6m-14.2 2.9c1.8 1.5 1.8 1.5-.5 1.3q-2.3-.4-2.9-1.6c-.5-1.7 1-1.5 3.4.3m-10.8 1.2c-.4 2.2-2.2 2-2.6-.1q-.2-1.6 1.3-1.6c1.5 0 1.5.7 1.3 1.7m33.7 1.4c-.8 1.1-1.6 1.1-3.4 0-2.2-1.4-.4-3.3 2-2.1q1.8 1 1.4 2.1m-12.2.6q.6.4.2 1.3c-.7 1.1-6.5-.8-6.5-2.1 0-.8 4.3-.3 6.3.8m-13.8.2c.7 1.2-1.2 2.4-2.5 1.6-1.1-.7-.4-2.5 1-2.5q.8 0 1.5.9m40 2.6 7 2.9c1.9.7 1.9.8.2 1.7q-1.8 1.2-4.2-.5a10 10 0 0 0-4.5-1.6c-2.7 0-10-3.7-10-5.1s5.1-.3 11.5 2.6m-18 .5c0 2.2-3.9 1.9-4.3-.3q-.6-2.1 2-1.5c1.2.2 2.3 1 2.3 1.8m-13.7.8q.4 1.4-1.4 1c-.9-.1-1.9-.9-2.2-1.6q-.4-1.4 1.4-1c.9.1 1.9.9 2.2 1.6m-9.2 4.3c5.8 2.8 10.3 5.6 10.1 6.3-.8 2.4-18.7 0-18.7-2.5a13 13 0 0 0-3-4.2q-4.4-4.9-.2-4.7c.7 0 6.1 2.3 11.8 5.1m28.8-2.6q.4 1.5-1 2.2c-1.9.7-3.9-1.1-3-2.6 1-1.6 3.3-1.3 4 .4M312 209q-.1.9-1.5 1c-1.4.1-1.5-.5-1.5-1q.1-1 1.5-1c1.4 0 1.5.4 1.5 1m17.1 1.1c2.8 1.5 1.3 3.1-1.6 1.7-2.5-1.1-3.4-2.8-1.4-2.8.6 0 1.9.5 3 1.1m23.6 1.1c5.5 2.3 6.2 3.6 2.5 5.3-1.1.5-2.3 1.7-2.5 2.7q-.6 1.6-2.6 1.8c-2.9 0-3.9-2.9-1.7-4.6 2-1.4 1.3-3.6-.8-2.8q-1.3.4-1.8-2c-.6-3.2.2-3.2 6.9-.4m-33.7 1.4q0 1.4-1.2 1.2c-1.8-.6-2.1-2.8-.4-2.8q1.5.1 1.6 1.6m18.1.4c1.5 0 1 2-.6 2.6-1.8.7-4.7-1.4-3.9-2.8.3-.5 1.3-.7 2.1-.4s1.9.6 2.4.6m-10.1 2.5q-.1 1.4-1.4 1.5c-1.7 0-2.8-1.4-1.9-2.4 1.2-1.2 3.3-.6 3.3.9m18.8.1c-.5 2.5-3.5 4.1-4.9 2.7q-1.4-1.2.1-2.8c1.7-2.1 5.2-2 4.8.1m22.7 2q5.9 2.7 4.6 3.7-1 1.1-3.8-.3a19 19 0 0 0-5-1.4c-2.8-.2-4.8-2-3.9-3.5 1-1.5 1.7-1.4 8.1 1.5m-35.5-.2q0 .6-1 1.1-.9.4-1-.4.1-1 1-1.1 1 0 1 .4m7 3.6q0 .9-1 1a1 1 0 0 1-1-1q.1-1 1-1t1 1m6.1 3.3c-1.3 1.3-2.6.3-1.6-1.2q.6-1 1.7-.5 1 .6-.1 1.7m13.5-.8q2.3 1.5.3 1.5c-.8 0-2.4-.7-3.5-1.5q-2.3-1.5-.3-1.5c.8 0 2.4.7 3.5 1.5m20.9-.5q.4.9-.9 1-1.8 0-2.1-1t.9-1q1.8 0 2.1 1m-12.6.9c1.4.9.9 4.1-.6 4.1-1.9-.1-3.5-1.9-3-3.4.7-1.8 1.6-2 3.6-.7m19.3 1.2 2 1.1-2.1 2.2a44 44 0 0 0-5.2 6.4q-5.4 7-4.2-.1c.7-4.1 2-5.7 4.5-5.7q1.7-.1 1.7-1.3c-.5-3.8.1-4.3 3.3-2.6m-9.8 1.7c.7 1.2-4.5 8.2-6.1 8.2-2 0-1.6-1.7.8-3.3 1.9-1.4 1.9-1.6.3-2.5q-1.5-.9-1-2.1c.8-1.3 5.2-1.5 6-.3m-61.4 5.5q0 3.5-1 1.7c-1.3-2-1.3-6.3 0-5.5.6.3 1 2.1 1 3.8m79.6-3.2c.8 1.3-1.5 3-3.6 2.6q-1.4-.3-1.8-2-.6-1.7 2.2-1.7c1.4 0 2.8.5 3.2 1.1m5.9 1.9q2.8 1-.7.9-2.6 0-2.8-.9c0-1.2.8-1.2 3.5 0m-10 3q-.2 1.4-2.7 1.8c-2.7.3-3.8-1.4-2.1-3.2 1.2-1.2 4.8-.2 4.8 1.4m18 0q.4.9-1.4 1c-1.1 0-2.3-.5-2.6-1q-.4-1 1.4-1c1.1 0 2.3.4 2.6 1m-12 2.5q-.2 3.3-3.4 1.6c-1.2-.8-1.3-1.2-.1-2.6 1.6-2 3.5-1.4 3.5 1m17.1 0c1.6 1.2 1.6 1.4.3 1.5-.9 0-2.2-.7-2.9-1.5-1.6-1.9 0-1.9 2.6 0m-27.1 1.4c.7 1.2-1.5 6.1-2.7 6.1-1.5 0-2-2.8-.8-4.9q1.8-3.4 3.5-1.2m17.4.5c1.4 1.7-.9 3.9-3.3 3q-2.8-1-.4-3.2c1.5-1.5 2.3-1.5 3.7.2m20.2 3.9c-1.3 1.3-4.1.1-4.1-1.7 0-1.3.4-1.4 2.5-.4q2.5 1.1 1.6 2.1m-31.6 1.6c-.3 1.2-1.3 2.1-2.1 2.1-1.7 0-1.7-.1-.4-3.6 1.3-3.3 3.6-1.9 2.5 1.5m7.3 1.4q.2 1.7-1.3 2.3-3.2 1.3-2-2.6c.8-2.4 2.8-2.2 3.3.3m30.6-1.4c1 1.5-2.2 2-3.4.5q-1.6-1.5.8-1.4 2 0 2.6.9M421 245q-.1.8-1.5.4-1.4-.7-1.5-1 .1-.3 1.5-.4c1.4-.1 1.5.4 1.5 1m17.6 1.5c1.8 1.5 1.8 1.5-1 1.3-1.6-.2-3.1-.9-3.4-1.6-.5-1.7 2-1.5 4.4.3m-31.5 2.8c-1.3 1.3-2.6.3-1.6-1.2q.6-1 1.7-.5 1 .6-.1 1.7m20.9-2c0 .2-.9 1.2-2 2.2-1.9 1.8-2 1.7-2-.3q0-2.2 2-2.2 1.8 0 2 .3m25.7 3.9 3.2 1.4c.2.2-.7 1.7-1.9 3.3-2.2 3.2-5.7 4.4-4.6 1.6.4-1.3.1-1.2-2 .1q-2.5 1.5-3.4.8c-1.5-1.5.1-5.4 2.9-6.9 3.2-1.7 2.5-1.7 5.8-.3m-9.7 2.2c0 .8-.4 1.8-1 2.1q-.9.5-1 .1l-.6-2q-.6-1.6 1-1.6 1.5.1 1.6 1.4m34.5-.4q-.6.9-1.6 1-.9-.1-.4-1a2 2 0 0 1 1.6-1q.9 0 .4 1m-47.5 6q-.1.9-1.5 1c-1.4.1-1.5-.5-1.5-1q.1-1 1.5-1c1.4 0 1.5.4 1.5 1m7.5 2q.4.9-1.4 1-2 .1-2.1 1.5c-.1 1.4-.7 1.5-1.5 1.5q-2.4.2-.9-3.4c.7-1.8 4.9-2.2 5.9-.6m47.3 1.6c3.3 1.4 4.3 3.4 1.6 3.4-1.8 0-5-1.6-8.4-4.2l-2.5-2 3 .8c1.7.3 4.5 1.3 6.3 2M428 262q0 .9-.9 1-1-.1-1.6-1-.4-1 .9-1 1.5 0 1.6 1m30.4 1c-1 .4-2.1.6-2.4.3-.8-.7 2.4-2.2 3.4-1.6q.7.7-1 1.3m-14.4 0q0 .9-1 1a1 1 0 0 1-1-1q.1-1 1-1t1 1m5 1.9c0 1.1-.9 2.3-2.1 2.6q-4.1 1.5-1.3-2.3c1.9-2.7 3.4-2.8 3.4-.3m17.5 3q.4 1-.5 1.6c-1.5.9-6-.3-6-1.5 0-1.3 5.7-1.3 6.5-.1m5.3 6.7q2 .7 2.2 1.6c0 1.4-5.3.5-5.8-1-.4-1.3.2-1.5 3.6-.6"/><path d="M63 104.4q0 1.3 2 .9 1.8-.5 1.4-1.4c-.8-1.4-3.4-1-3.4.5m26.1 8q-1.2 1.4-.1 2.1c1.3.8 3-.3 3-2.1s-1.4-1.8-2.9 0m39.9 13.7q.1.8 1 .4t1-1.1q0-.3-1-.4-.9.1-1 1.1m29.7 13.7q-3.2 3.4 1.9 2.4 2.5-.5 2.2-2c-.4-2.3-2.2-2.5-4.1-.4m26.8 11.1c-.6 1.1 1.3 2.6 2.2 1.8.3-.3 1.6-.2 2.9.3s2.6.5 2.9.1-.9-1.4-2.7-2c-3.8-1.3-4.5-1.4-5.3-.2M214 160q.1.9 1.1 1 .8-.1.4-1-.6-1-1.1-1-.3 0-.4 1M0 138.5c0 2 .5 2.5 2.4 2.5 1.3 0 5.7 1.5 9.9 3.4 4.1 1.9 7.7 3.2 8 3s2.1.6 4.1 2 6.9 3.7 10.9 5.2c3.9 1.5 10.8 4.6 15.2 6.9a115 115 0 0 0 24 10l10.3 3.7c1.7.6 3.2 1.8 3.2 2.6s-1.7 3.5-3.9 6.1c-2.1 2.5-4 5.4-4.2 6.4-.4 1.6-.6 1.7-2.4.3-1.9-1.4-1.9-1.6-.3-6 2.2-5.9.3-6.3-4.1-.9q-5.2 6.1-1.3-.9 1.8-3.2.5-3.5-1-.5-.6-2c1.3-3.3-2.3-.6-4.5 3.5-3.5 6.4-5.6 4.8-2.7-2.1 1.1-2.6-3-2.2-4.9.5q-1.5 2-2.3 1.5c-.3-.4-.1-1.3.5-1.9.7-.7 1.2-2 1.2-3.1 0-1.5-.6-1.8-3.2-1.5-2.6.2-3.5-.2-4.3-2-1.4-3.1-5.2-2.9-6.7.3-1.2 2.6-2.8 3.4-2.8 1.2 0-.6.7-2.1 1.5-3.1 2.1-2.8 1.9-3.3-1.9-5.1-2.9-1.4-3.7-1.4-5.5-.3a7 7 0 0 0-2.7 3c-.5 1.8-2.4 2.5-2.4 1 0-.4.9-2.2 2-4s2-3.4 2-3.7c0-.2-2-.7-4.5-1-2.4-.4-5-1.3-5.6-2.1s-1.6-1.4-2.1-1.4-1.6-.7-2.4-1.5a7 7 0 0 0-3.9-1.5c-1.4 0-4.1-.9-6.2-2.1-3.2-1.8-4.1-1.9-5.8-.8q-2.6 1.8-.7-.4c1.7-2 .8-3.7-1.9-3.7-1.7 0-1.9.7-1.9 6.2v6.3l5.3 2.7c2.8 1.5 9.7 4.5 15.2 6.8s14.3 6.1 19.5 8.5 13.5 6 18.4 8 11.4 4.9 14.5 6.4c10 5 54.4 23.3 76.6 31.5a806 806 0 0 0 54.9 17.6c1.3 0 2.9.7 3.6 1.5s1.7 1.5 2.2 1.5 3.8 1.3 7.2 2.9c3.3 1.6 14.9 5.9 25.6 9.5 20.9 7 33.7 11.6 46.5 16.6a536 536 0 0 0 21.6 8l13.7 4.9 2.5-4.9 2.6-4.9-3.2.6a9 9 0 0 0-4.8 2.6c-.9 1.1-2.1 1.7-2.8 1.3-1.8-1.1-1.3-3.7.9-4.3q2-.6 2-3c0-2-.3-2.2-1.8-1.4-2.6 1.4-6.2.2-6.2-2 0-3 1.4-3 10.1.2 11 4 14.8 5.1 16.2 4.6.7-.2 2.2.4 3.4 1.3 2.5 1.9 18.8 9 34.3 14.9l18 7.1c4.1 1.7 10.8 4.2 14.9 5.6 12 4 12.9 4.9 9.2 9.5-1.8 2.2-2 2.3-3.8.8-1-.9-2.4-1.4-3.2-1.1-1.1.4-1.3-.2-.8-2.7.9-4.5-1-3.6-4.8 2.1-3 4.7-5.3 5.7-4.7 2.2.4-2 .4-4.5.1-9.4l-.2-3-2.3 2.1c-1.8 1.7-2.6 1.9-4.4.9q-2.2-1.1-1.5-3.1c.8-2.3-2-2.7-2.9-.4q-.4 1.7-3.3.9c-2.2-.6-3.1-.2-5 2.2-2.6 3.3-3.3 1.2-.7-2.4.8-1.2 1.4-2.9 1.2-3.7q-.2-1.7-4.4 2.5c-4.8 4.7-6.9 4.5-7.9-.7q-.7-3.6.9-5.2 2.7-3 .6-3.1-.9.1-1 1.3c0 .7-1.5 2.8-3.3 4.5-2.8 2.7-3.6 3-4.5 1.9-1.5-1.8-.7-7.9 1.3-8.9q1.3-.9 1-1.9c-.9-1.3-3.5-1.1-3.5.3-.1 2.3-4.7 7.1-6.3 6.5-2.4-.9-2.7-4.5-.6-7.1 2.5-3.2.5-4.6-2.1-1.4a10 10 0 0 0-2 3.4c0 .6-.7 1.7-1.5 2.4-1.2 1-1.8 1-2.9.1-1.3-1.1-1.3-1.9-.1-5.9 1.1-3.5 1.1-4.8.2-5.4q-1.1-.6-3.4 4.3c-1.3 2.7-2.7 4.9-3.1 4.9q-2.8-.2-.7-3.7c1.4-2.1 1.4-2.4.1-2.9-1.9-.7-3.6.3-3.6 2.2q0 1.3-1 1.4c-1.5 0-1.2-2.1.6-4.1 2-2.3.9-4.6-1.3-2.7-.9.7-2.3 1.3-3.2 1.3-3.6 0-1.4 6.1 2.5 6.8 1 .2 7 2.9 13.3 6.1 11 5.7 24.1 16 24.1 19 0 .7-1.5 1.6-3.2 2.1-4.2 1.3-5.7 4.9-3.7 9.1 1.5 3.1 5.1 4.3 7.4 2.4 1.1-.9 2.1-.4 5 2.4 4.4 4.4 8.3 5.6 10.1 3.1 1.1-1.5 1.1-2.3-.4-4.8-.9-1.6-2.3-3.1-2.9-3.4-2.2-.9-1.4-2.3 1.2-2.3q2.5 0 2.5-1.5c0-2.5-4.7-6.5-7.6-6.5q-2.6 0-6-3.7c-5.7-6.2-4.6-6.7 4.7-2.4 7.9 3.6 19.8 8.7 30.4 13.1a541 541 0 0 1 39.8 18.2c8.8 4.3 17.2 7.8 18.8 7.8 2.6 0 2.8.3 2.3 2.8-.4 2 .1 3.3 1.9 5 3.2 3 6.1 2.6 6.5-1.1s1.9-3.4 2.7.5c.9 4 2 5.5 5.8 7.4 2.5 1.4 3.1 1.4 5.3-.1 3.3-2.2 3.2-6.4-.3-9.7-3.2-3-6.5-4.8-8.6-4.8-2.2 0-9.7-5.1-9.1-6.2.3-.4 1.7 0 3.2 1 5.7 4 14.2 3.3 14.2-1.2 0-2.7-4.2-6.6-7.1-6.6-2.2 0-2.3-.4-.7-3 1.7-2.7.1-5.2-4.1-6.4-2.6-.8-3.7-.5-6.2 1.3-3.1 2.3-5.9 2.2-5.9-.2 0-2.9-8.9-7.7-25-13.6-9.6-3.6-45.8-17.6-50.2-19.5l-7.8-3.4-14-5.6c-5.2-2.1-11-4.6-12.8-5.7-1.8-1-3.8-1.9-4.4-1.9a16 16 0 0 1-4.1-1.4c-1.8-.8-6.1-2.4-9.7-3.7-3.6-1.2-13.2-4.8-21.4-8s-15.3-5.9-15.9-5.9c-.9 0-16.4-6.4-23.7-9.7l-10-4.4c-3.6-1.5-6.5-3.1-6.5-3.6 0-1.5 4.7-1.5 8.7.2 6.7 2.7 10.3-.1 5.6-4.5a9 9 0 0 0-6-2c-3.1 0-3.8-.4-3.8-1.9 0-3.3-2.5-4.5-6.2-3-1.8.7-3.8 1.9-4.4 2.7-.8 1.2-1.3.9-2.8-1.3q-1.7-2.7-3.9-2.3c-1.9.3-2.2.8-1.9 4.2.3 3.8.3 3.8-2.5 3.2-1.5-.4-4.5-1.6-6.8-2.6s-5.1-2.1-6.5-2.5-4.8-1.8-7.7-3.1l-5.7-2.4a813 813 0 0 1-44.1-17.9A2229 2229 0 0 0 122 186l-14-5.5a84 84 0 0 1-8.8-3.8 200 200 0 0 0-25.7-10.6c-4.4-1.6-10.6-4-13.8-5.5-3.2-1.4-6-2.6-6.3-2.6a2008 2008 0 0 0-51.1-21.1c-2-.7-2.3-.5-2.3 1.6m13 20q0 1.4-1 1.5-.9-.1-1-1.5c-.1-1.4.5-1.5 1-1.5q1 .1 1 1.5m5.2 2.7q-1.1 1-1.2.2c0-1.4 1.2-2.6 1.9-1.9q.3.6-.7 1.7M52 176.3c0 2.1-1.2 2.8-2.7 1.6-1.9-1.6-1.6-2.9.7-2.9q1.8.1 2 1.3m49.2 6.7q3 .9 2.1 2.5-.6 1.7-1.6.6a5 5 0 0 0-3-1.1c-1.6 0-1.8.5-1.4 2.9q.7 3-.8 3.4c-.7.3-1.5 1.6-1.7 2.8-.4 2.7-2.8 3.8-2.8 1.2 0-1 .6-2.9 1.3-4.3 3-5.7 2.8-6.2-.9-3.4a21 21 0 0 0-4.5 4.6c-1.4 2.6-3.2 2.3-2.3-.5a32 32 0 0 0 1.3-8.5c.1-.6 1-2.1 2.1-3.2l2.1-2.1 3.7 2c2 1.2 4.9 2.5 6.4 3.1m16 6.1c4.1 2.1 4.1 2.2-1.6 7.8l-4.7 4.6c-2.4 2.5-3.1 2.7-3.9 1.5-.9-1.5.9-5.7 4.5-9.9l2-2.3-2.2-1.5q-2.1-1.5-2.3-2.5c0-1.1 3.1-.2 8.2 2.3m-9.2 3.3c0 .5-1 1.9-2.2 3a23 23 0 0 0-3.4 4.1c-1.3 2.3-3.4 1.2-3.4-1.7 0-1.2 1-3.6 2.2-5.3 1.9-2.8 2.4-3 4.4-2.1 1.3.6 2.4 1.5 2.4 2m26.5 3.5c2.2 1 6.5 2.5 9.5 3.5 11.1 3.5 18.1 6.9 17.8 8.5-.5 2.1-4.8 1.7-6.8-.7-.8-1-2.3-1.6-3.2-1.4-1.6.3-3.7-.4-13.3-4.7-17.1-7.6-17.4-7.8-15.9-9.4.6-.5 2.3.1 11.9 4.2m-11.1 1.7c.9.3 1.6 1.2 1.6 1.8q0 1.2 2.8.8t4.1 1.2a5 5 0 0 0 3.2 1.6c1.1 0 2.7.8 3.7 1.7a9 9 0 0 0 5.1 2c5.2.2 5.8 1.6 2.6 6.3-3 4.3-5.3 4.2-3.6-.3.9-2.2.6-2.8-1.5-4.2-3.1-2-6.9-1.3-8.4 1.5q-1.1 1.8-2.5 2c-1.8 0-1.8-.8 0-4s2-5.9.3-4.2c-.7.7-2 1.2-2.9 1.2s-2.3 1-3.2 2.2q-1.4 2.1-2.3 1.5c-.4-.4-.2-1.3.4-1.9 2.2-2.2 1.4-4.8-1.3-4.8q-2.6-.1-3.5 2.5-1.7 4-3.5 1.5c-.8-1.3 4.2-9 5.9-9 .8 0 2.1.3 3 .6m45.7 11.4c2.5 1.4 2.4 3-.2 3-2.8 0-6.1-1.9-5.4-3.1.8-1.2 3.2-1.2 5.6.1m-13.1 2c1.8 1 1.8 1.1-.6 3.5-1.3 1.3-2.4 3.1-2.4 4q-.1 1.4-1.5 1.5c-1.7 0-2-3.5-.4-4.6.6-.3.9-1.7.6-3q-.6-4 4.3-1.4m22.6 2.5c1.9 1.4 1.9 1.4-.3 1.5-2.8 0-5.3-1-5.3-2.1 0-1.4 3.4-1.1 5.6.6m-12.8.1c2.7.8 2.9 2.4.4 2.4-2 0-4.5 2.4-5.5 5.3-.8 2.1-3.1 1.8-3.5-.4-.3-1.9 3.5-7.9 5-7.9.7 0 2.3.3 3.6.6m9 3c2.5 1.7 2.1 3.4-.9 3.4-1.1 0-3 1.1-4.3 2.5-2.1 2.3-4.6 3.3-4.6 1.9 0-1.9 5.5-9.4 7-9.4.3 0 1.6.7 2.8 1.6m11.7-.2c1.9.8 3.5 1.9 3.5 2.4 0 1.4-4.3 5-6.5 5.4-1.1.2-2.6 1.6-3.3 3.1-1.1 2.2-1.6 2.5-3.2 1.7-3.4-1.8-3.2-3 1.2-8.5l4.6-5.5zm14.4 6.2c3.6 1.4 7 3 7.6 3.5s1.8.9 3 .9c2.6 0 6.5 2.9 4.8 3.6s-6.4 5.2-6.2 6.1q-.1.7-1.1 1.1-1 .3-.8-1.4c.2-1.1-.3-2.5-1.2-3.2-1.3-1.1-1.3-1.3.3-2.3 1.8-1.1 2.4-3.9.7-3.9q-1 .2-2.2 2-1.4 2-4.2 2c-1.6 0-3.5.8-4.2 1.7q-1.3 1.9-2.3.8-1.2-1 2-4.4c3.1-3.4 3.3-5.6.2-2.8a6 6 0 0 1-4.5 1c-2.2-.4-3 0-3.9 2.1-1.2 2.5-3.9 3.7-3.9 1.7 0-1.5 7.3-11.1 8.4-11.1.5 0 3.9 1.2 7.5 2.6m27.1 10.3 11 4.1c3 1.2 7.8 2.6 10.5 3.2 6.7 1.3 24.5 9.3 24.5 11q-.1.8-1.6 1.5c-.8.3-2 1.6-2.5 2.9-1.1 2.9-2.5 3.1-3.2.4q-.4-2-2.1-1.4-1.5.4-1.6-.5 0-1.2 1.6-1.1 1.4-.1 1.2-1.7c-.4-2.3-2.3-2.7-4.1-.8-.9.8-2.2 1.5-3 1.5-.9 0-2.4 1.2-3.5 2.7-2.8 3.9-3.6 2.4-1.8-3.1l1.6-5.2c0-1.3-5.9 3.8-6.5 5.6q-.7 1.8-2.2 2-1.6 0-.8-1.8c.4-.9 1-2.7 1.2-4 .8-3.4-2.3-2.8-4.2.8-.9 1.6-2 3-2.5 3-1.9 0-2-2-.3-4.7q1.5-2.5.5-1.9-1.5.7-2.9-.5c-1.3-1.1-1.7-1-2.9.5-.7 1-1.5 2.4-1.7 3q-.4.9-1.3.3c-.4-.4-.2-1.7.5-2.8 1.8-2.9.4-3.8-1.5-1q-1.7 2.4-2.7 1.2c-.6-.6-2.1-1.1-3.4-1.1-3.2 0-2.9-2.4.5-4.1l3.4-1.7q.5-.1.1 1.7-.4 2 .5 2.1c2.3 0 4.2-1.3 4.2-2.9q0-1.9.9-.2.8 1.5 2.6.3c1.6-.8 1.3-1.2-2.1-2.7l-5.6-2.6c-1-.5-3.1-.9-4.7-.9-2.6 0-6.1-2.1-6.1-3.7q0-1.1 10 2.6m24.5.1q.5.9-.4 1-1-.1-1.6-1-.5-1 .4-1a2 2 0 0 1 1.6 1m9.2 1.5q-.8 1.4-2.3 1.5c-1.6 0-1.6-.2.1-2 2-2.2 3.1-2 2.2.5m-38.7 3c0 1.6-7.3 4-9.7 3.1-2.9-1.1-.1-2.7 3.7-2.1 2.9.5 3.9.3 4.3-.9.8-2 1.7-2.1 1.7-.1m50 .5q0 .9-.9 1-1-.1-1.6-1-.4-1 .9-1 1.5 0 1.6 1m7.4 15.3c1.6 1.2 1.7 1.4.1 2.7-.9.7-2.2 2.8-3 4.7-1.6 3.9-3.5 4.3-3.5.9 0-1.3-.3-3.1-.6-4q-.6-1.6 1.1-1.6 1.8.1 1-2c-.8-2.1-.2-2 1.2-2 1.1 0 2.7.6 3.7 1.3m8.1 3c1.9 1.4 1.3 3.7-.9 3.7-.6 0-1.6 1.5-2.1 3.2q-1 3.3-3.2 3.6c-1.8.3-2.1-.1-2-3.2q0-3.6 1.8-4.1c.9-.3 1.9-1.5 2.2-2.5.6-2.3 1.6-2.5 4.2-.7m7.1 3.2c1.6 1.3 1.7 1.6.4 2.5-2.3 1.5-4.5.7-4.8-1.8-.4-2.6 1.5-2.9 4.4-.7m10.4 3.9c6.7 2.5 8.5 4.9 3.9 5.4q-2.4.2-4.4-1.8c-1-1.1-2.8-2-4.1-2-2.5 0-3.9-1.4-2.9-3 .8-1.2-.2-1.4 7.5 1.4m-13.3 1.2c.6 1.6-3.1 6.3-4.2 5.3-.3-.3-.2-2 .1-3.7.7-3.4 3-4.3 4.1-1.6m7 3c.5 1.5-2.1 5.3-3.1 4.3-.7-.7.6-5.9 1.5-5.9q1 .1 1.6 1.6m4.4 6.7q-1.2 1.3-1.1-1.4c0-3.3 1.4-4.7 1.8-1.9.2 1.2-.1 2.7-.7 3.3m10.2-1.7c.9.9-1.5 5.4-2.9 5.4-2.2 0-2.7-2.1-.8-4.1 1.8-2 2.7-2.3 3.7-1.3M430.6 311c.6.6 3.9 1.9 7.5 2.9 17.4 5 36.7 17.5 23.8 15.5-3.5-.6-4.1-.4-4.6 1.5-.6 2.3-1.1 2.5-3.2 1.2q-1.5-.7-.2-2.9 2.4-4.7-.8-1.8a22 22 0 0 0-3.7 5.4q-1.6 3.4-2.1 2.5c-.3-.7.1-2.1.7-3.3.9-1.6.8-2.1-.5-2.6-.8-.3-2.2-.4-3 0-2.5.9-1.7-2.1 1.6-5.9 1.8-2 2.9-3.9 2.5-4.2-1.1-1.1-5.5 1.9-5.8 4.1-.2 1.6-.9 2-3 1.8q-2.7-.3-4 1.8c-1.5 2.3-4.8 2.7-4.8.5 0-.8 1.1-2.2 2.5-3.1s2.5-2.1 2.5-2.8q0-1-.9.2c-.7 1.1-.9 1.1-1.4-.2q-.7-1.5-2.2-1.6c-2 0-1.9-2.4.1-4.5q1.4-1.5 1.1-2.2c-.4-.3-1.8.8-3.2 2.6q-2.6 3-4.8 2.8-2.1-.1-3.2 2c-1.3 3.1-3.3 2.9-2.8-.2s7.2-10.5 9.3-10.5c.9 0 2.1.5 2.6 1m-18.2 5.4c-.6 1.6-2.4 2.3-2.4.8 0-1 2.2-3.3 2.7-2.8q.3.5-.3 2m-41.4 6c0 .8-.4 1.8-1 2.1q-.9.4-1-1.4.1-2 1-2.1 1 .1 1 1.4m12.5 6.6q.4 1-.7 1c-1.5 0-3.8-1.9-3.8-3.2 0-1 3.6.8 4.5 2.2m92.5 3.4c0 .7-.8 1.6-1.7 1.9-1 .2-2.6.8-3.5 1.2-2.9 1.2-2.1-1.3 1-2.9 3.4-1.9 4.2-1.9 4.2-.2m-33 0q0 .5-1 1.1-.9.4-1-.4.1-1 1-1.1 1 0 1 .4m21.9 4.7c1 .8 2.5 1.8 3.4 2.2 1.9.7 2.3 4.2.7 5.2q-.9.4-1-.9c0-2-1.9-3.1-3.3-1.7q-3 2.7-2.3-1.4c.9-3.6-2.1-4.6-4.4-1.5q-1.7 2.4-2.5 1.1-.5-1.4 2-4.1c2.9-3 2.9-3 7.4 1.1m22.3 2.5c1.8 1.1.7 2.4-2.1 2.4-1.6 0-3.9-.9-5.2-2.1l-2.4-2 4.4.6c2.4.3 4.8.8 5.3 1.1m2.1 14.8c1.7 1.3 2.4 4.6.9 4.6-1.6 0-5.2-3.2-5.2-4.6 0-1.7 1.9-1.8 4.3 0M0 195.8c0 1.4 1.8 2.4 7.3 4.1A311 311 0 0 1 52 219.6c2.5 1.2 8.1 3.5 12.5 4.9s10.3 3.7 13 5c2.8 1.2 7.5 3 10.5 4s8.2 3 11.5 4.5l15 6.5c5 2 10.4 4.4 12 5.2 5.8 3 6.5 3.3 8.5 3.3a4 4 0 0 1 3.1 1.8q1.2 1.8 3.8 1.5c3.8-.5 5.9 1.1 4.2 3.1s-.7 2.1 1.3.1c1.3-1.4 2-1.3 6.2.1 2.7.9 9 3.6 14.1 6a84 84 0 0 0 13.1 5.3c.9.5 3.7 1.4 6.2 2.1 2.5.6 8.6 3.1 13.5 5.4a301 301 0 0 0 40 14.1c3.3 1 8.1 2.8 10.7 4.1s5.3 2.4 6.1 2.4 2.2.7 3.3 1.5c1.6 1.2 1.7 1.6.4 2.4q-1.3 1-.7 1.7c.4.4 1.3.2 1.9-.4 1.8-1.8 4.9-1.5 10.4 1.2l8.9 4 8 3.5 8 3.4a71 71 0 0 1 14.6 6.4q1.5 1.1 2.2.7c.5-.6 4.2 1.1 24.3 10.7 4.5 2.1 8.6 3.9 9.1 3.9.9 0 3.3.9 13.3 5.2a90 90 0 0 1 13 6.9c1.4 1 4.8 2 7.5 2.3s8.8 2 13.5 3.8c14.6 6 25.3 9.7 29.7 10.4q4.2.6 9.2 4.9c4.9 4.2 5 4.3 3.1 6s-2.2 1.7-3.7.2c-1-.8-3.1-1.9-4.8-2.3s-3.6-1.1-4.3-1.7q-1.3-1-2.4.1c-1.5 1.5-.2 4.5 1.7 3.9q1.4-.5 3 2.5c1.3 2.7 1.3 3.4.1 4.6s-1.8 1.2-4.4-.2a14 14 0 0 0-5.1-1.6c-2.3 0-11.1-3.6-11.1-4.6q.2-.5 2.8 0 2.9.8 1.2-.3-1.7-1-.2-2.3c1.9-1.9 1.5-2.6-2.8-3.9-3.5-1.1-4.2-1-6 .6q-2.2 2-2 .4c0-.8.5-2 1.2-2.7q1.4-1.2-.7-1.8-1.9-.8-3.3 1.4c-.8 1.2-2.3 2.2-3.3 2.2q-3.3-.1-.7-2.8 1.3-1.2 0-2.4c-.9-.9-1.6-.8-3 .5-1 .9-2.6 1.7-3.6 1.7-1.4 0-1.6-.6-1.1-3q.9-5.2-3.6-1.5c-2 1.9-7.8 1-6-.8 3.3-3.3-.7-5.1-4.2-2q-2.7 2.6-.8-.4c1.4-2.7 0-3.7-2.5-1.8s-3.8 1.9-3 0c1-2.6-.5-4.5-3.6-4.5a42 42 0 0 1-11.7-4.5 61 61 0 0 0-9.9-4.5q-1-.1-.6-1.5.5-1.5-1.1-2.2-1.9-.6-3.7 2c-1.1 1.5-2.4 2.4-3 2.1q-.8-.6.4-2.2c.8-1 1.9-2.9 2.6-4.4 2-4.8-.8-4.6-5 .3-3.1 3.5-3.8 4-3.8 2.3a5 5 0 0 1 1.1-3.1q1-1.1.5-2.2c-1.3-2-4.3-1.2-6.2 1.6q-1.7 2.6-2.2 1.5c-.2-.7.1-1.9.8-2.7 2.7-3.2-2.8-4.9-6.1-1.9-2.4 2.1-5.8 1.1-3.6-1a6 6 0 0 0 1.2-3.8c-.1-1.8-.9-2.4-3.4-2.8-1.7-.3-3.2-1-3.2-1.5.1-.6-1-1.3-2.2-1.6-1.7-.5-3.1.1-5.1 2.2-2.4 2.3-3.2 2.6-4.8 1.8q-2.2-1-1.5-3.7c.3-1.5 0-3.5-.8-4.5-1.2-1.7-1.4-1.6-3.4.9a11 11 0 0 0-2.1 3.5c0 1.2-2.7 1.1-3.5-.1-.3-.5-.1-1.8.5-2.9.8-1.7.6-2.2-1.2-3.2s-2.4-.8-4 1.1q-3 3.6-2.5-3c.3-3.5-2.9-3.9-4.4-.6-1.6 3.4-3.1 3.3-1.8-.1 2-5.4-1.5-7.3-4.9-2.6q-1.9 2.7-3.7 1.9c-1.7-.6-1.7-1.7 0-7.3q1.1-2.5-1.4-1.6a9 9 0 0 0-4 2.9c-3.3 4.2-6.9 2.7-5.1-2 .8-2.2.6-2.7-1.2-3.7s-2.4-.8-3.4.6l-1.7 2.8q-.4.9-2.1.4c-1.5-.6-1.7-1.5-1.3-4.2.9-5.8-3.3-7.3-5.3-1.9-1.4 3.6-3 2.9-2.3-1.1.7-4.6-2-6-4.9-2.4l-1.9 2.4.7-3.6c.6-3.9-.7-5.8-2.9-4.1a12 12 0 0 1-4.4 1.4c-3.4.5-4.3-.8-2.1-3q1.4-1.2 0-2.4c-.9-.9-1.7-.7-3.5 1q-4.5 4.3-3.3-.3c.6-2.3.4-2.5-2.8-2.5-1.9 0-3.8.4-4.1 1-.9 1.5-2.5 1.2-2.5-.5 0-2.4-3.1-3.1-4.5-1.1q-1.2 1.6-2 .7c-.3-.6-1.5-1.1-2.6-1.1-2.3 0-2.5-1.5-.3-2.4q3.7-1.7-6.9-5.6l-14.2-6a78 78 0 0 0-18.5-7.5c-1.4-.2-4.7-1.3-7.3-2.4-6.6-2.8-8.4-2.7-10.2.9-1.7 3.3-4 4.1-3.1 1.2q.8-1.9-1.9-3c-2.3-1.1-2.7-.9-3.5 1.1q-1.5 3.9-1-2.9c.1-1.8-.3-3.4-.8-3.8-1.2-.7-5.2 2.2-5.2 4q0 1.3-.9 1.4c-1.2 0-.8-5.1.7-7.8 1.1-1.9 1-2.3-.3-2.8q-4-1.4-5.1 4c-.3 2.1-1.2 3.6-2 3.6-1.9 0-1.8-4 .2-6.9 1.4-1.9 1.4-2.5.3-3.2-1.5-.9-5.9 2.6-5.9 4.7 0 1.9-2 2.8-3.3 1.5q-1.1-1 .6-2.9c.9-1 1.7-2.3 1.7-2.9 0-1.9-3.2-2.4-5-.8q-1.6 1.6-2.8.3-1.3-1.3-1.2 0 .1 1.1 1 1.2 1 .2 1 1.5c0 1.7-2.5 2.1-3.5.5-.3-.5.1-2.3 1-3.9 1.9-3.7 1.9-3.7-.1-4.5-.9-.3-2.8.3-4.4 1.4q-5.7 4-2.5-.6c2.8-4.3.3-5.3-3.6-1.5-3.5 3.6-6 3-3.9-.9q1.2-2.2.2-3.2c-1.5-1.5-4.1-.2-5.2 2.6-.8 2.3-1.1 2.4-3.9 1.3-3.6-1.3-3.8-2-1.2-5.4 1.9-2.3 1.9-5.3-.1-5.3-1.1 0-5.8 4.9-5.8 6.1 0 1.5-4 1-4.6-.6-.4-.8.1-2.6 1-4s1.4-3 1.1-3.5c-1.2-2-3.6-.9-5.6 2.5-3.3 5.6-5.9 4.2-3.4-1.8 1.2-3 1.2-3.7.1-4.6-1.7-1.4-4.3.8-5.2 4.5-.3 1.3-1 2.4-1.4 2.4-1.8 0-2-2.1-.5-4.9 1.9-3.7 1.9-4.1-.1-4.1-.8 0-2.8 1.4-4.4 3.2-3.6 3.9-4.9 3-2.7-1.7 2.2-4.6 2.1-5.5-.3-5.5q-2 0-3.7 3.5c-.9 1.9-2.3 3.5-3 3.5q-2.5.1.2-3.4c2.1-2.8 1.9-3.6-.9-3.6-1.4 0-3.2 1-4 2.2-2 2.8-3 1.9-1.7-1.5q1.8-4.6-3.3-3.3-2.5.7-2.9-1.4c-.7-2.8-3.3-2.5-5.3.5-.9 1.4-2.2 2.5-2.9 2.5-1.9 0-2.8-3.5-1.6-5.9 1.3-2.4 1.4-6.1.3-6.1-1.4 0-4 3.2-5.1 6.3q-1 2.5-2.1 2.2-.9-.4-1 .7c.1 1.2 6.9 4.7 17.5 8.7l28 11.2A633 633 0 0 1 84 250.5c6.9 3 20.6 8.6 30.5 12.5 29.2 11.6 31.6 12.7 39.5 16.3a357 357 0 0 0 43.4 15.3c19.5 5.8 28.3 9.5 31.7 13.7 2.8 3.3 2.9 3.8 1.2 4.3q-7.9 2.2-3.9 7.9 1.6 2.6 4.9 2.5c2.7 0 3.5.6 5.2 3.8 1.5 2.7 2.7 3.8 4.8 4 3.5.4 5.7-1.3 5.7-4.3 0-1.2 1-2.9 2.2-3.7 2-1.3 2.1-1.8 1-4.2-2.1-4.6-1.1-4.3 33.3 10.3 6.6 2.8 12.3 5.1 12.8 5.1 1.1 0 19 7.7 39.7 17.2 9.6 4.4 26.5 11.5 37.5 15.8 11 4.2 24.4 10 29.8 12.8a80 80 0 0 0 13.5 5.8c2 .4 4.7 1.3 5.9 2.1s2.9 1.3 3.9 1.1c1.3-.2 2.3 1 3.6 4.6 2.8 7.4 5.4 10.4 9.9 11.6 5.9 1.6 9.1-1.6 5.4-5.4q-3-3 .5-3.9 3.5-1 .6-5.2c-1-1.3-3-2-7.5-2.3-5.1-.4-6.1-.7-6.1-2.3q0-1.8 1.5-1.2c.9.3 2.4-.2 3.5-1.2 2.7-2.5 7.9-.5 11.9 4.5 1.8 2.2 3.8 4 4.6 4 2.1 0 1.8-1.3-.5-2.8-2.6-1.6-2.6-3.2 0-3.2q2 .1 3 2.5c1.3 3.3 3.4 3.3 2.6 0-.5-2.1-.2-2.7 1.9-3.5 3-1.1 4.2-3.5 2.6-5.3-1.4-1.7-10.4-1.5-14.8.3s-8.3.2-8.3-3.6c0-5.1-11.1-13.4-17.8-13.4-3.3 0-17.4-4.9-29.9-10.4-4.5-2-9.6-3.6-11.3-3.6s-5.6-1.3-8.4-3a383 383 0 0 0-22.7-10.4c-9.6-4-24.1-10.3-32.4-13.9l-24-10.2-28-12c-10.4-4.6-27.1-11-37-14.3s-21.1-7.6-25-9.5-9.9-4.4-13.5-5.5c-8-2.5-20.1-7.1-21.5-8.1-.5-.5-6.4-2.7-13-5s-12.4-4.6-12.9-5.1c-2-2 .6-2.3 4-.5 3.3 1.7 3.8 1.8 6.2.4 2-1.1 2.7-2.3 2.8-4.7 0-1.7.3-3.5.7-3.8 1.5-1.6.5-5.2-2.1-7.7-3.1-3-6.3-3.5-8.2-1.2q-1.2 1.4-4.1.8c-3.3-.6-3.7-.1-4.1 7.2l-.4 5-4.7-.2a28 28 0 0 1-8.7-2.3c-2.2-1.1-4.4-2-5.1-2a849 849 0 0 0-53.4-21.5c-6.6-2.5-19-8-21.7-9.5-1-.6-2.3-1-2.9-1-.5 0-2.5-1.1-4.2-2.4s-5-2.9-7.2-3.6-5.6-2.1-7.5-3c-3.2-1.6-21.2-8-22.5-8q-.5.1-.5 1.8m18 23.8q-.1 1.3-1 .9-1-.7-.5-1.6 1.4-2 1.5.7M153.5 239q.4 1-2 1c-2.4 0-2.4-.4-2-1q.6-1 2-1c1.4 0 1.7.4 2 1m-13.9 26c.5.5 4.4 1.9 8.5 3a67 67 0 0 1 19.7 8.2c2 1.4 2.2 1.9 1.2 3.7q-1 2-2.1 1.5-.9-.6.3-2.1c1.1-1.3.6-1.5-3.7-1.2-4.9.4-5 .4-5-2.5q-.2-5.5-4-1.6c-1.4 1.5-2.1 1.7-3.2.9a4 4 0 0 1-1.3-2.6c0-1.9-2.7-2.8-4.5-1.3q-1.6 1.6-1.5-.8c0-2.3-4.1-4.3-4.8-2.3-.4 1.3-2.9 1.5-3.6.2-.9-1.3.4-4.1 1.8-4.1q1.2 0 2.2 1m36.9 16q-.7.9-1.6 1-.9-.1-.4-1a2 2 0 0 1 1.6-1q.9 0 .4 1m5.9.9c.3.4-.1 1.6-.8 2.6-1.3 1.7-1.3 1.7-1.3-.8 0-2.6 1-3.6 2.1-1.8m61.7 35.8q2.1 2.2-1.1.3c-3.4-1.7-3.6-2-1.8-2 .9 0 2.2.7 2.9 1.7m57.9 10.8c-.7.8-1 2.2-.6 3q.4 1.4-.4 1.5c-1.1 0-1.4-4.3-.3-5.3 1.3-1.4 2.5-.7 1.3.8m36.5 20.5q.4.9-.4 1-1-.1-1.1-1 0-1 .4-1t1.1 1m66.7 26.2q-1.1 1-1.2.2 0-1 .7-1.7t1.2-.2q.3.6-.7 1.7m37.6 26.4c-1.3 1.2-5.7-.6-7.2-2.9-.8-1.2-1.8-3.6-2.2-5.2-.7-2.9-.5-2.8 4.7 2.2 2.9 2.8 5 5.5 4.7 5.9m1.2-8.6q-.1.9-1.4 1c-.8 0-1.8-.5-2.1-1q-.4-1 1.4-1 2 0 2.1 1"/><path d="M.1 208.2c.1 4.2.3 4.8.9 2.8 1.2-3.6 1.2-8 0-8-.6 0-1 2.4-.9 5.2M0 268.9c0 2.1 6.8 5.4 13.5 6.6 2.2.4 4.5 1.1 5 1.5.6.5 5.5 2.6 11 4.9 5.5 2.2 12.6 5.4 15.8 7.1s6.3 3 6.8 3c1 0 8.4 3.6 17.3 8.4 2.7 1.4 5.3 2.6 5.8 2.6 1 0 14.1 5.4 17 7 1 .6 2.6 1 3.6 1s2.2.4 2.7.8a69 69 0 0 0 8 3.7l11 4.6c6.6 2.9 22.4 8.9 23.5 8.9.6 0 3.9 1.4 7.3 3.1s9.8 4.4 14.2 5.9a343 343 0 0 1 21 8c5.8 2.8 21.9 9.5 27.8 11.7 8.4 3 15.7 7.3 15.7 9.2q-.1 1.5 1.3.2c2.3-1.9 8.1.2 14.2 5.3 3.2 2.6 3 4.5-.3 2.7-3-1.6-7.2-1.4-7.2.3q0 1.4.9 2c.5.4.5 1.9-.2 3.6-1.2 3.2-2.7 4-2.7 1.5q0-2-3-1.7-.6-.2-.5-2.6c0-4-3.3-4.2-4.8-.3-1.3 3.7-4.4 3.9-3.9.3.4-2.5-2.5-3.1-4.6-1-1.4 1.4-4.9-1.4-6.3-5-.8-2-1.4-2.3-3.8-1.7-2.3.5-2.9.2-3.4-1.4q-.4-2.2-3.2-2.1c-1.4 0-2.4.4-2.1.9.9 1.4-1.8 3.1-3.4 2.1-1.2-.8-1.3-1.3-.3-2.9s.9-2.2-.2-3.1c-1.5-1.2-5.5.2-5.5 2q-.1 1-.8 1c-.5 0-.7-1.3-.4-2.8.2-1.7-.2-3.3-1.1-4-1.2-1.1-1.9-.8-3.5 1.3q-3.8 5-2.6-.5c.6-2.6.4-3-1.5-3-1.2 0-2.4.7-2.7 1.5-.8 2.1-3.6 1.9-3.2-.3.5-2.9-1-4.4-3.3-3.1-2.9 1.5-5.2.4-4.4-2.1.9-2.7-2-3.8-4.4-1.6-2.6 2.4-3 2-2.4-2.1s0-4-4.5 0q-2.2 2.2-3.3 1c-1.2-1.2-.3-5.3 1.2-5.3q.8-.1.9-1c0-1.6-5.2 0-7.7 2.2q-4.2 3.7-3.5-2c.6-4.3-1.6-5.1-4.3-1.8-3.6 4.5-4 1.2-.5-3.9 1.7-2.5 2.7-4.5 2.2-4.5q-1 .1-1.6 1.6t-2.2 1-4.4 2.4q-5.8 6.3-4.7-1c.7-5.1-.9-6-4-2.4l-2.4 2.9.5-3.2c.7-4.5-1.7-6.3-3.9-2.9-2.2 3.3-3.9 3.4-3.1.2s-1-4.3-3.4-2.1c-2.9 2.6-5.3 1.2-4.5-2.5q1.4-5.2-3-1c-3.1 2.9-5.8 1.7-5-2.1q1-5.1-3-.9c-3.5 3.9-6 1.6-3.4-3.2 2-3.7-.6-4.2-3.6-.7-3.5 4.2-6.1 3-5.8-2.5q.6-6.4-4.2-1c-2.1 2.3-2.6 2.4-3.1 1-.3-.9-.3-2.3 0-3.1.9-2.4-2.4-3.2-4.1-.9-1.1 1.5-1.7 1.6-3.1.7-.9-.6-1.6-1.8-1.4-2.6.3-2-1.7-3.2-3.1-1.8-1.8 1.8-4.7 1.3-4.7-.8 0-1.1-.5-2.3-1.1-2.7q-1.2-.7 0-1.3 1-1 .5-3.8c-1-5-7.3-5.5-7.4-.7 0 .6 1.1 2.3 2.5 3.8 2 2.1 2.2 2.8 1 3.2-.8.3-2.7.2-4.2-.4-2.4-.8-2.8-1.4-2.5-4 .4-3.7-.4-4-3.4-1.1l-2.2 2.1.5-4.1c.5-3.3.3-4.1-1-4.1-.9 0-2.4 1.4-3.2 3.1q-1.6 3-3.1 2.5l-2-.6a13 13 0 0 1 1.6-4c1.8-3.5 1.9-4.1.5-4.6-2-.8-4.1 1-5 4.3q-.5 2.8-1.8 1.4c-.8-.8-.8-2 .2-4.7.7-1.9 1-3.8.7-4.1-1-1.1-3.6.7-4.6 3.1-1 2.6-3 4.4-3 2.6 0-.6.7-2.5 1.6-4.1 1.6-3.1 1.3-5.9-.6-5.9q-1 .2-1.7 1.7c-.7 2.2-4.4 6.3-5.5 6.3q-.7-.2.2-2c.9-1.6.8-2.2-.6-2.7q-1.7-.5-2.9 1-2 3-4.2.6-1.2-1-.1-2.9c1.2-1.9.5-5-1.1-5-1.8 0-5.1 4.3-5.1 6.5q0 2.1 2.7 3.5c4.6 2.1 19.1 7.9 32.8 13 12.3 4.6 17.3 6.7 34.3 14.6a624 624 0 0 1 44 20.2c16.1 7.7 20.4 10.2 20.8 12q1.1 4.6-2.6 2.4-4.2-2.7-6.1.9c-.9 1.8-.7 2.5 1.4 4.6 2.5 2.6 5.3 2.3 4.3-.3q-.4-1.3.4-1.4c.6 0 .8 1.6.4 3.9-.4 2.8-.1 4.6 1.1 6.5 3.5 5.3 7.4 5.6 10 .5.8-1.5 2.5-2.9 3.7-3.1 1.8-.2 2.4-1.1 2.6-3.6.2-1.8-.2-4-.9-4.8-2.1-2.5 1.1-1.6 20.1 5.9l19.5 7.7c15.1 5.9 23.2 9.2 28.6 11.6 3.1 1.3 6.1 2.4 6.7 2.4s3.2 1.8 5.8 4.1 5.8 4.5 7.1 5 2.3 1.7 2.3 2.7c0 3.2 3 6.3 5.7 6 2.6-.3 3.6-1.4 4.8-5.2.5-1.8.8-1.6 2.6 1.3 2 3.3 7.3 6.3 9.6 5.4q1.2-.6 1.3-2.8 0-3.5 5-3.5c1 0 2.8-.9 4.1-2l2.4-2-3.4-3.1c-2.7-2.5-3.9-3-6.3-2.5-2.8.6-2.9.4-2.3-2.3.8-3.9-3.5-9.1-7.5-9.1-1.6 0-3.2.4-3.5 1s-1.3 1-2.2 1q-1.6.1-.9-2.4c.5-1.9-.2-3.1-3.5-6-2.2-2-5.4-4.3-7.2-5l-14.4-6.5c-6.2-2.8-11.5-5.1-11.9-5.1-1.1 0-18.7-7.1-22.4-9.1-1.9-1-9.1-3.8-16-6.3-6.9-2.4-17-6.5-22.5-8.9s-14.5-6.1-20-8.2-13.8-5.4-18.5-7.5l-16.2-7a26 26 0 0 1-7.8-4.1c0-1.3.4-1.2 4.5 1.2 2.9 1.8 4.1 2 6 1.1 1.3-.6 4-.8 5.9-.5q6.4 1 6.6-4.3c.2-5.3-3.2-4.7-9.5-3.9l-5.2.6-.7-3.2q-1.5-7.6-6.6-5.7c-3.6 1.2-4.8 4.3-2.6 6.7q3 3.3 0 4.5c-4.4 1.7-10.6-.1-25.9-7.4-18.6-8.9-32-14.8-42-18.5a177 177 0 0 1-13.7-5.6c-4.6-2.3-4.8-2.3-4.8 0M92 294c0 2.1-1.5 2.7-2.5 1-.7-1.2.2-3 1.6-3q.8.2.9 2m15.5 6.9q.5.9-.3 1.5c-1.2.7-5.2-.4-5.2-1.5s4.7-1.2 5.5 0M96 303.1q0 .9-1 .4-.9-.7-1-1.6.1-.9 1-.4a2 2 0 0 1 1 1.6m46.5 50.9q.4.9-.9 1-1.5-.1-1.6-1 0-1 .9-1t1.6 1m2.7 6.5q1.7 2.4-3.2.5c-3.3-1.4-3.2-1.2-2.4-3.5.6-1.4.8-1.4 2.8.2 1.1 1 2.4 2.2 2.8 2.8m95.8 20.9c0 2.8-2.1 4.8-3.8 3.7-2-1.2-.4-6.1 1.9-6.1q2 0 1.9 2.4m16 2.1q1.6 1.6-.3 1.5c-2.5 0-4.7-1.1-4.1-2.1.8-1.4 3-1.1 4.4.6m-10.7 2.4c-.6 2.4-5 6.7-5.9 5.8-.8-.7 4.3-7.7 5.6-7.7q.7.2.3 1.9m19 8.8c-.7.2-1.9.2-2.5 0q-1-.5 1.2-.5c2.2 0 1.9.2 1.3.5"/><path d="M.1 276.6q0 1.7.6.6c.3-.7.2-1.6-.1-1.9q-.5-.5-.5 1.3m.1 6.4q0 2.2.5 1.2c.2-.6.2-1.8 0-2.5q-.5-.9-.5 1.3M58 298.8q.2 1 1.5 2.2c.9.7 1.3 2.1 1 3.1-.8 2.6 2.1 2.5 3.4 0 1.1-2 .5-2.8-3.6-5q-2.1-1-2.3-.3m10.5 8.2c-1.1 1.7.5 3.2 2.1 1.9q1.2-1 .8-2c-.7-1.2-2.1-1.1-2.9.1m225.2 15.6c-.9 1 .2 2.4 1.9 2.4q1.3-.1 1.4-1.5c0-1.5-2.1-2.1-3.3-.9M112 326q-.9 1.8-.6 2 .6-.2 1.6-2t.6-2q-.6.2-1.6 2m229.7 14.7q-.6.6-.7 1.7 0 .9 1.2-.2 1-1 .7-1.7-.6-.4-1.2.2m6.1 1.5c-2.1 1.8-2.9 4.3-1.5 5.7q1 1.2 4.4-2.4c1.8-1.9 3.3-3.6 3.3-4 0-1-4.6-.5-6.2.7m4.7 4.8q-1.6 1.8-1.4 2.3c1.6 1.2 6.4 2.7 8.3 2.7 3 0 5.1-2.3 3.4-3.7-1-.8-7.3-3.3-8.3-3.3zm-159 13q-.4.9.4 1 1-.1 1.1-1 0-1-.4-1-.6 0-1.1 1m20.5 9q.1.9 1 1 1-.1 1-1t-1-1a1 1 0 0 0-1 1M0 398.9q.2 2 1.4 2.1c.8 0 3.6 1.1 6.2 2.5s5.3 2.5 6.1 2.5c2.8 0 25.8 8 31.3 10.9.9.5 7.2 2.8 14 5.1a305 305 0 0 1 23.2 9c.5 0 2.8.9 5.1 1.9 2.4 1.1 5.6 2.3 7.2 2.7 1.7.3 4.6 1.8 6.5 3.3s4.3 2.7 5.3 2.7c1 .1 2.8.6 4 1.1l5 2.2c2.8 1.1 2.8 1.2 1.3 3.5-4.2 6.6-8.6 9.2-5.5 3.4.8-1.6.8-2.2-.2-2.9-1.8-1.1-4.9.8-4.9 3.1q-.1 1.8-1.1 2-1 0-.5-3.4c.5-2.5.3-3.5-.8-3.9-1.6-.6-4.6 1.7-4.6 3.4q-.2.8-2 .9-2 0-2.1-2l-.4-3-.4-2q-.1-1-2 0c-2.7 1.4-3 1.3-2.4-.9q.5-1.8-1.6-2.4c-1.2-.3-2.4-.1-2.7.4-.9 1.5-2.1 1-2.7-1.2q-.5-2.2-2.6-1.4c-1.5.4-2 .1-2.3-1.7-.2-1.3-1.6-2.9-3.3-3.8s-3.1-1.8-3.3-2.3q-.4-.6-1.3-.7t-.5.9c.3.5-.5 1.6-1.9 2.5S65 435.9 65 437c0 2.5-2 2.5-7 0-2.2-1.1-5-2-6.3-2-1.4 0-4.7-.9-7.5-2.1-4.4-1.8-5.1-2.5-5.4-5.3-.4-3.8-3.6-5-4.5-1.6-.6 2.4-3.1 2.3-4.7-.3-.8-1.3-.7-2.4.6-4.7.9-1.6 1.3-3.2.8-3.5-1.7-1.1-5.8 1.4-6.4 3.9-.3 1.4-1.1 2.6-1.6 2.6-1.3 0-3-3.4-3-5.9 0-3.9-3.9-3.7-5.8.2q-1.3 3.3-1.1-.4c-.1-1.5.6-3.2 1.4-3.9 2-1.7 1.9-3-.3-3a5 5 0 0 1-3.1-1.3q-1.1-1-1-.2c.1.5-.5 2.7-1.4 4.7-1 2.1-1.7 4.2-1.7 4.8q0 .9-1 1c-1.5 0-1.2-5.8.5-8.4 1.4-2.1 1.4-2.5-.1-3.7-1.4-1.2-1.9-1-4 1.6-3.5 4.3-3 9.5 1.1 10.8a1484 1484 0 0 0 39 14.2 1078 1078 0 0 1 51.5 19 972 972 0 0 0 48 18 631 631 0 0 1 46.4 18.3c3.2 1.5 6.4 2.7 7.1 2.7s2 .8 2.9 1.8c1 .9 2.6 1.7 3.6 1.7s2.1.4 2.4.9 2.9 1.6 5.8 2.5 9.6 3.5 14.8 5.6c5.2 2.2 14.7 5.9 21 8.3s16.5 6.8 22.5 9.7c10 4.8 15.5 7 28.6 11.9 4.7 1.7 12.7 8.6 11.5 9.8-.4.4-2.3.6-4.2.4q-6-.3-3.6 5.5c.9 1.9 1.9 2.4 4.6 2.4s4 .7 5.6 2.7a12 12 0 0 0 10.1 5.3c4.4 0 5.8-2.3 2.9-4.7q-3.5-2.9-.6-5.2c.8-.7 1.2-2.1.9-3.1q-1-3.9 8.5-.1a780 780 0 0 0 40.7 15.1 53 53 0 0 1 11.4 5.1c5.2 3.4 10 3.8 15.3 1.1 3.4-1.8 3.8-1.8 7.9-.2 3.7 1.5 4.5 2.3 5.2 5.2.5 2 2.5 5.2 4.7 7.3 3.6 3.5 4.2 3.7 6.5 2.7q2.5-1.2 2.5-3.7c0-2.1.5-2.5 3-2.5q5.5-.2 3.1-5.7c-1.1-2.3-.9-2.9 1.5-5.4 2.6-2.7 2.6-2.9 1-5.5-1.5-2.2-2.3-2.5-5.1-2-1.8.4-4.4.1-5.8-.5-3.2-1.4-7.6.5-9.4 4.1-1 1.9-1.9 2.4-4 2.1q-5.3-.4-3.5-2.4c.5-.7 1.3-2.6 1.6-4.4.6-2.7.3-3.4-2.7-5.7a78 78 0 0 0-13.9-6.5 509 509 0 0 1-22-8.9c-12.1-5.3-15-6.5-47.8-20.1L294.1 505c-4.1-1.7-14.2-5.6-22.5-8.5-20.2-7.1-20.6-7.3-39.6-14.8l-21.2-8.2c-2.7-1-4.8-2.1-4.8-2.4 0-.4 1.8-2.4 4-4.6l4-3.9 3.9 2.2c5.7 3.2 13.1 2.8 13.1-.7 0-.9-.5-2.2-1.2-2.9-.9-.9-.7-1.7.9-3.4 3.4-3.7 3.9-7.3 1.2-9.2-3-2-8.8-2.1-9.5-.1-.4.8-1.8 1.5-3.4 1.5-3.9 0-5.7 2.4-4.3 6q1.6 4.8-2.5 5c-.8 0-3.1 1.6-5 3.6-1.9 1.9-4 3.3-4.8 3s-3.7-.8-6.6-1.2c-5-.5-26.2-6.6-30.1-8.5-3.1-1.6-14.9-6-30.7-11.4-19.4-6.7-29.9-10.5-52-19l-28.9-10.7c-6.3-2.2-13.1-4.8-15-5.8s-9.2-3.6-16.1-5.8-13.8-4.7-15.5-5.5c-5.8-2.9-7.5-3-7.5-.8m74 35.7c0 1.2-4.1 7.4-4.9 7.4q-3 0 .7-4.6 4-4.8 4.2-2.8M89 447q-.1.9-1.1 1-.8-.1-.4-1t1.1-1q.3 0 .4 1m47.5 4.1c8.4 2.9 22.1 8.3 29 11.5 2.8 1.2 13.7 5.4 19.5 7.4l12 3.6a96 96 0 0 1 13.2 4.5c2 1.1 5.9 2.6 8.5 3.5l8.3 3.1a274 274 0 0 0 22.8 8.8c2.3.7 2.9 2 1.2 3q-1 .7-.5 1.6c.4.5-.7.9-2.4.9s-3.3-.5-3.6-1.1-1.9-.7-3.6-.4q-3.1.8-2.9-.9 0-1.6-2.9-1.6c-1.7 0-3.3-.5-3.6-1s-1.4-1-2.4-1-2.4-.7-3.1-1.5a3 3 0 0 0-3.1-1q-1.8.6-3.5-1.4c-.9-1-2.3-1.7-3.1-1.4-.7.3-2.4-.2-3.8-1.1a10 10 0 0 0-4.4-1.6c-1.1 0-2.3-.5-2.6-1q-.6-1-1.6-1-.8 0-.9 1t1 1c.5 0 2.5 1 4.3 2.2l5.3 3.5c1.7 1 1.7 1.3.4 2.2-2.2 1.5-2.8 1.4-3.5-.9s-3.3-2.7-4.1-.5a3 3 0 0 1-2.6 1.5c-1.7 0-2-.5-1.5-3 .8-3.8-.7-4.6-3.3-2s-3.9 1.9-3.2-1.5c.6-3.1-2.2-3.5-3.8-.5-1.5 2.9-3.1 1.5-2.3-2 .5-2.6.2-3-1.6-3q-2.1 0-2.1 2-.1 1.8-1.3 2c-2.5 0-2.8-1.4-.6-3.1 1.9-1.4 2-1.9.9-3.9l-1.3-2.4-2.9 3.3c-3.4 3.8-5 3.3-2.6-.9 1.3-2.3 1.4-3.1.3-4q-3-2.2-5.3 3.2c-.9 2.6-1.4 3-2.4 2s-1-1.7 0-3.2q2.8-4.2-1.2-4c-1.3 0-2.6-.7-3-1.5-.8-2.2-3.2-1.8-5.4 1-2.3 2.9-4.8 3.4-3.7.7 1.6-3.8 1.6-4.9.1-5.5-1.7-.7-4.6 1.7-4.6 3.9 0 1.8-3.4 1.8-4.8.1q-1.3-1.3.4-3.5c1.7-2.5 1.1-4.2-1.5-4.2-1.1 0-2.4 1.2-3.1 3-.7 1.6-1.7 3-2.2 3-.9 0-.8-1.5.3-6q.4-1.5-2.2-1.8c-2.1-.3-2.8.3-3.7 3l-1.1 3.3.2-3.9q.3-7.2-4.8-2.2c-2.7 2.7-4.2 1.9-2.5-1.4 1.4-2.6.8-3.4-3.1-5.1-3-1.2-3.3-1.1-5.3 1.4-1.2 1.5-2.5 2.7-2.9 2.7-1.3 0-.7-2.7.8-4 .8-.7 1.2-1.7.9-2.2-.4-.5 0-2.1.7-3.5 1.6-3 3.7-2.7 17.4 1.8m92.5 1.8c0 1-1.2 2.7-2.7 3.6-2.4 1.6-2.6 1.6-2 0 .4-.9.7-2.5.7-3.6q0-1.8 2-1.9c2-.1 2 .7 2 1.9m-2.5 10.1q.3.9-1.4 1c-1.1 0-2.3-.5-2.6-1q-.3-1 1.4-1c1.1 0 2.3.4 2.6 1M166 475q-.1.9-1.1 1-.8-.1-.4-1 .6-1 1.1-1 .3 0 .4 1m53.5 18.9c1 1.7-1.2 2.1-2.5.6q-1.6-1.6.3-1.5 1.5 0 2.2.9m47.1 5.7c7.1 2.6 13.9 4.9 15.2 5.1 3.4.8 3.6 2 .6 5.8-2.1 2.8-2.9 3.3-4 2.4-1.6-1.3-1.9-3.9-.4-3.9q1-.1 1-1.5c0-1.7-.2-1.7-2.4-.9q-1.3.6-.9 2t-.6 1.4c-1.6 0-5.1 4.2-5.1 6.1 0 3.1-1.9 3.1-8 .3-6.4-2.9-6.8-3.5-4.5-5.4q1.7-1.6 1.5.4.1 1.5 1.4 1.6c1.5 0 3.1-6.4 2-8.1q-.5-1 .7-2 1.5-.8.3-1.9-1.1-1.2-2.7.5c-1.5 1.4-1.9 1.4-5.3-.3q-3.4-1.8-2.6-2.6 1-.7.5-2.1t-.1-1.5zm-40.1-2.7c1 1.7-1.2 2.1-2.5.6q-1.6-1.6.3-1.5 1.5 0 2.2.9M219 498q0 .9-.4 1-.6-.1-1.1-1-.4-1 .4-1 1 0 1.1 1m16.2 1.8c3.3 1.5 3.5 1.9 2.3 3.5-1.7 2.3-4.9 1.8-5.3-.8a6 6 0 0 0-2-3.3c-2.5-1.9.6-1.6 5 .6m9.8 5.1c-.1 1.5-1.9 3.3-2.8 2.7-1.5-.9-.3-4.6 1.4-3.9q1.3.5 1.4 1.2m10.1-.9c3 1.6 2.5 4.2-.7 3.4-2-.5-2.6-.2-3.1 1.5-.3 1.1-.9 2.1-1.4 2.1-1.7 0-2.2-3-1.1-5.6q1.7-3.9 6.3-1.4m44.9 7.9 12.5 5c17.6 7.5 54.9 22.5 61.5 24.7 6.2 2.2 6.7 2.9 2 3.1-4.9.2-6 .8-6 3.4q0 2-1.7 1.7c-1.7-.4-2-1.5-1.2-4.7.5-1.7-2.9-2.7-4.3-1.3-.5.5-1.3 3.4-1.7 6.3-.8 6.5-.8 6.5-13.9.2-7.9-3.8-9.1-4.7-7.7-5.7s1.4-1.5.1-4.8c-1.4-3.2-2.1-3.7-6.8-4.7-5.5-1.2-6.2-.9-7.4 3.6q-.6 2.1-1.5 2.3c-1.1 0-1.1-4.1 0-5.9.5-.7.6-2.2.4-3.2-.7-2.5-4.3-2.5-4.3-.1 0 1-1.1 2.8-2.5 4L315 538v-2.2c0-1.2.7-3 1.7-4 1.5-1.7 1.5-1.9-.2-3.8-1-1.1-2.2-1.7-2.7-1.4s-2-.1-3.3-1a11 11 0 0 0-2.9-1.6c-.2 0-1.4 2-2.6 4.5s-2.6 4.5-3.1 4.5c-1.3 0-1.1-1.4.3-2.8q2.3-2.5-4-3.8c-2.8-.6-3.4-.4-3.9 1.5-.3 1.1-.9 2.1-1.4 2.1-1.4 0-1-4.3.6-6.4 1.8-2.4 2-4.5.3-2.8-.7.7-2.2 1.2-3.5 1.2-2.2 0-2.7.9-2.4 3.7q0 1.2-1.5 1.3c-1.4 0-1.5-.7-1-4 .6-3.6.4-4-1.4-4q-2 .1-3 2.5c-.5 1.4-1.5 2.5-2.1 2.5s.1-2.1 1.5-4.6c1.4-2.6 2.6-5.3 2.6-6q.1-1.3.8-1.4c.5 0 1.4-1.2 2.1-2.6.6-1.4 1.7-2.4 2.4-2.1zm18.6 31.3c.4.5-.6.8-2.2.6-1.5-.2-2.9-.8-3.1-1.4-.5-1.4 4.4-.6 5.3.8M395 550c8.9 3.5 10.5 4.5 10.8 6.7.2 1.5-.3 2.2-2.4 2.6-1.6.3-3.9.1-5.1-.4-3-1.1-4.1 1.1-2.4 4.8 1.3 2.9-.1 4.8-2.9 3.7l-4.2-1.1c-3.1-.6-4.3-2.9-2.7-5q1-1.2.6-2-.6-.3-1.3 1.1c-.7 1.7-4 2.1-6.3.7-1.9-1.2-.5-3 1.8-2.4q1.8.4 3.2-1.5c.8-1 2.4-2.4 3.7-3.1 2.7-1.4 2.8-2.8.5-5.4q-2.1-2.2-.3-1.5zm-77.9 5 2.4 2.1-3.2-1.6q-5-2.4-2.4-2.5c.5 0 1.9.9 3.2 2m51.9.6q-.1 1.3-1 .9-1-.7-.5-1.6 1.4-2 1.5.7m5.6 4.1q-.6.4-2-.6c-1.2-1-1.3-1.6-.3-3.2 1.1-1.8 1.2-1.8 2.1.7.4 1.4.5 2.8.2 3.1m51.9 11.5c3 1.3 3.3 2.8.6 2.8-2.5 0-7.4-3.9-4.9-4 .9 0 2.9.5 4.3 1.2m-4 6.7c1 2.5-.6 2.7-2.6.2a10 10 0 0 1-1.9-3.2c0-1.3 3.8 1.3 4.5 3"/><path d="M268 504q.1.9 1.1 1 .8-.1.4-1-.6-1-1.1-1-.4 0-.4 1m-3.6 9.4c-.9 2.4 1.2 4.4 2.8 2.8 1-1 .8-1.6-.5-2.9-1.5-1.5-1.7-1.5-2.3.1m26.1-.4q.6.9 1.1 1 .4-.1.4-1-.1-1-1.1-1-.8 0-.4 1m19 7q-.4.9.9 1 1.5-.1 1.6-1 0-1-.9-1t-1.6 1m-8.5 3q.1.9 1.6 1 1.3-.1.9-1-.6-1-1.6-1-.8 0-.9 1m43.5 18.8c.6.4 1.5 2 2 3.6q2.1 6 4.8.7c1.8-3.7.7-5.1-4.2-5.1q-3.2.1-2.6.8m11.2 1c-2.7 3.1-3 6-.8 7.2 2.2 1.1 3.2 0 4.5-5.1.7-3.3-1.5-4.6-3.7-2.1M37 420q.2.8 1.5 2c1.3 1.2 1.5 1.8 1.5 2.6 0 .7.9 1.8 1.9 2.4 1.1.5 2.3 1.9 2.6 3.1q.7 2 2.8 1.7c1.7-.2 2.2-1 2.2-3.3q0-3 1.5-3c1.1 0 1.4 1 1.2 4.2L52 434h4q4 0 3.7 1.2 0 1.2 1.8 1.3 2 0 4-3.7c1.9-3.5 1.9-3.7.2-5.6q-1.8-2-8.2-2.7c-3.6-.3-6.7-1.1-7-1.6q-.7-.8-2.4-.9c-1.7-.1-2.4-.6-3-1.4-1.2-1.5-8.1-2-8.1-.6m45.7 16.9q.5 2 1.4 2.1c1.4 0 1.1-1.6-.5-2.9q-1.6-1.5-.9.8M91 440q.1.9 1.1 1 .8-.1.4-1t-1.1-1q-.3 0-.4 1M0 450q0 1.8 1.4 1.4t2.1.5c.3.6 1.7 1.1 3 1.1s3.6.6 5.2 1.4a186 186 0 0 0 26.8 10.2c8.7 2.5 23.8 7.9 30 10.9 1.7.8 8.4 3.5 15 6.1s15.7 6.4 20.2 8.5c4.6 2.2 10 4.6 12 5.3L131 502c11.6 5.3 19.2 8.2 33 12.5a477 477 0 0 1 45 18.3l12.5 5.7c2.8 1.2 7 2.9 9.5 3.6s5.6 1.8 7 2.4c3.3 1.6 14 5.3 21.5 7.5 6.8 1.9 23.8 8.5 28.7 11.1a67 67 0 0 1 13.4 4.5l13.4 5.1a643 643 0 0 1 45.2 18.4c1 .5 2.3.9 2.9.9s2.5.7 4.2 1.5l11.1 4.5c4.3 1.7 8.8 3.8 10 4.6s2.7 1.4 3.5 1.4 2.2.6 3 1.3c.9.7 3.4 2 5.6 2.9 10.7 4.2 20.4 8.5 24.5 10.7 7.4 4 13.9 7.1 14.9 7.1.5 0 2.3 1.3 4 2.9 3.6 3.4 4.2 7.1 1.1 7.1-2.1 0-7-4.1-7-5.9 0-1.1-8-5.1-10.4-5.1q-1.5 0-1.1.9t-1.3 1.5c-1 .4-2.8 2-4 3.6q-4.2 5.5-4.2.4 0-2.7 2-3.1c2.6-.7 2-2.9-.7-2.6-1.1.1-2.9-.7-3.8-1.7-1.8-2-1.8-2.1 0-3.4q2-1.3.6-2.1-1.2-.6-3.2 1.4c-1.8 1.9-4.9 1.9-4.9 0 0-.5-1.1-.9-2.4-.9-3.1 0-5.5-2.7-3.2-3.6 1.9-.7 2.1-3.4.3-3.4-1.6 0-4.5 3-6.1 6.2q-2.9 5.2-3.1-.9 0-4-1.7-4.1-1.8-.4-1.8 1.7c0 1.8-1.7 3.8-2.4 3-1.7-1.9-1.3-4.9.9-7.3q4.2-4.5 1.2-4.6c-1.6 0-5.7 4.1-5.7 5.7q-.1 1-1.5 2.3c-1.3 1-1.5.9-1.5-1q.1-2.5-1.7-1.5c-4.6 1.9-5.6 1.9-5.1-.1l1.3-3.6c.5-1.4 0-2-2.1-2.8-1.6-.5-3.7-1.5-4.6-2-1-.6-2.7-1-3.8-1q-1.8-.1-2-1c0-1.6-4-1.2-4.6.5q-.7 1.3-1.5.9t-.4-1.4c.8-1.4-2.5-2.1-4.7-.9-1.8 1-1.9.9-1.3-1.9.5-2.4.2-3-1.4-3.5q-2.1-.7-4.2 2.4c-2.7 3.8-4.3 2.8-2.4-1.6 1.3-3.2 1.2-3.6-.3-4.4-1.4-.8-2-.4-3.1 2-.7 1.6-1.9 2.9-2.7 2.9q-2.6 0-.2-4.3c3.2-6 .5-7.6-3.6-2.2-1.5 1.9-3.4 3.5-4.2 3.5-2.1 0-1.7-4.1.8-6.7l2.1-2.3h-2.7c-1.6 0-3.7 1-5.2 2.7-2.9 3.2-4.3 2.4-2.3-1.4l1.7-3.6q.1-.7-1.7-.7c-1.8 0-3 1.3-4.2 3-2.6 3.5-4.1 3.1-3.2-1 .4-2.3.2-3-1-3-.9 0-2.2.9-3 2-1.7 2.4-2.9 1.6-2.1-1.4q.4-2.1-1.5-4c-1.2-1.1-2.1-2.6-2.1-3.5q0-1.7-1.2-.3c-1.8 1.8-4.9 1.4-5.5-.7-.4-1.6-1.1-1.8-3.9-1.4-3.1.5-3.4.4-3.4-2.1 0-2.9-1.4-3.4-2.8-1-1.1 1.9-3.4 1-2.6-1 1.1-2.9-1.6-2.5-4 .6-1.4 1.8-2.6 2.7-2.6 2q-.2-1-2-1.2-3.3.1-1-4.1c1-1.8.9-1.8-1.7-.7-1.5.6-3.8 2.1-5 3.2-2.9 2.5-4.1 1.4-1.9-1.8q3-4.5.2-3.3c-.8.3-2.2-.3-3.2-1.4-2.5-2.8-7.5-5-9.6-4.3q-1.6.5-1.3 1.4t-.9 1.9c-1.9 1.6-3-.3-1.6-2.8 1.6-3.2-2.5-3.9-5.6-1q-2.6 2.4-2.4.8c0-.8.5-2 1.2-2.7q1.3-1.2-.3-1.6c-4.3-1.3-5-1.7-4.5-2.4q.1-.7-2.8-.9c-1.8-.1-5.2-1.1-7.5-2.2l-4.1-2.2-1 2.7c-1.3 3.3-3.6 2.6-3.2-.9.2-1.5.1-3.1-.3-3.6-.9-1.6-3.6-.1-4.6 2.6-1.2 3.3-3.1 1.9-2.7-2 .2-2.7-.1-3.3-2-3.5q-2.4-.5-2.9 1.8c-.9 3.5-3.9 2.1-3.5-1.8.3-2.8.1-3.2-2.1-3.2-1.4 0-3-.7-3.7-1.5q-2.5-2.8-5 0c-1.8 2.2-3.5.3-2.1-2.3 1.5-2.8 1.4-3.2-.8-3.2-1.1 0-2.8 1.1-3.9 2.5s-2.5 2.5-3.1 2.5c-1.4 0-.9-3.6.7-5.2q3.1-3-2.3-5.5c-3.2-1.5-3.7-1.6-5.1-.1q-1.6 1.5-.9 3.7c.8 2.7 2.5 2.7 3.2.1.8-2.9 2.2-2.5 1.9.5-.4 4-1.8 4.7-5.9 3-3.3-1.4-3.6-1.7-2.5-3.5 2-3.1-.1-5.4-5.1-5.8-4.5-.3-5.6 1.2-1.6 2.2 2.8.7 3.3 2.4.9 3.3-.9.3-2.6-.5-4.2-2-2-1.9-3.1-2.3-4.3-1.7q-1.7 1-4.1-.9c-1.3-1.1-3.1-1.9-3.9-1.8-1.9.2-8.9-2.5-8.9-3.5 0-1.2 3.8-1 4.5.2q.7 1 2.4.1 1.8-1 3.4.7c4 4.3 4.7 4.5 8.8 3.2q7.5-2.7 0-2.6a9 9 0 0 1-6.3-2 35 35 0 0 0-12.3-6.4c-.8 0-1.8.7-2.2 1.5s-2.4 1.6-4.3 1.7c-2.9.3-3.4 0-3.2-1.5.5-2.8-1.7-4.8-4.3-4.1-1.7.4-2.6 0-3.5-1.6s-1.4-1.9-2.6-.9c-.8.6-1.4 1.8-1.4 2.6 0 2.2-2.5.9-2.5-1.3-.1-1-.5-2.5-.9-3.3-.7-1.1-1.3-.9-2.8 1-1.7 2.2-1.9 2.3-3.2.7q-1.2-1.6-1.8-1.2c-.3.3-.8-.7-1.2-2.1q-1-4.4-4.8-.9c-1.4 1.4-2 1.4-3.3.4a5 5 0 0 1-1.5-3.1c0-2.7-1.9-3.3-4-1.4-2.6 2.3-4.9 1.3-4.3-1.8.7-3.8-1.6-4.4-4.2-1.1q-3.8 4.4-3.2-2.1c.3-2.6-3.3-3.3-5-.9q-1.5 2.2-2.2.6-.8-1.2-2.6-.6-2.1 1-1.2-1c.4-1 .7-2.2.7-2.7s.7-.9 1.7-.9c1.5 0 1.5-.2-.1-1.9-2.1-2.3-6.5-2.3-5.9 0 .3.8-.2 2.1-1.1 2.8-1.3 1.1-1.4.7-1.3-3 .2-4.1 0-4.3-3-5-1.8-.3-3.9-1.2-4.8-1.9q-1.4-1-2.2-.7c-.8.5-5-1-9.6-3.4-2.1-1.1-3.7-.4-3.7 1.6q0 1.4 1.6.8t1.2.8q-.6 1.3-1.6 1.3l-3.3-.3c-1.7-.1-2-.5-1.5-2.6.5-2 .3-2.5-1.3-2.5-1.1 0-2.4.7-2.9 1.7-1.5 2.6-4.4.9-3.6-2.2.3-1.4.3-3.2 0-4.1-.5-1.4-.9-1.4-2.2-.3-.9.7-2 2.4-2.5 3.8q-1 2.5-2 1.4-1.2-1.1 0-3.1c2.8-5.3-.7-7.4-3.7-2.2q-3.6 6.4-3-1.7c.2-3.9 0-4.8-1.4-5.1q-1.8-.4-2.3 2.5c-1.1 4.8-1.5 5.4-2.6 4.8-.6-.4-.9-2.3-.7-4.3.2-2.9-.1-3.7-1.5-4q-1.8-.4-2.8 2.7c-.6 1.7-1.6 3.1-2.1 3.1-.9 0-.8-1.6.4-7q.1-1.4-1.4-1.8c-1.6-.3-1.8.5-1.8 6.2v6.4l4.8 1.5c8.3 2.6 35.5 12.4 40.4 14.5 2.6 1.2 8 3.1 12 4.2s10.2 3.4 13.8 4.9a107 107 0 0 0 11.5 4c5.6 1.3 16.1 5.5 27.5 10.9q10 4.6 27.5 10.8a625 625 0 0 0 43.9 17.4 444 444 0 0 0 32.4 13.6c8.1 3 18.3 7.1 22.7 9.1l15.6 6.3c5.7 2 8.9 4 13.2 8.1 3.1 2.9 5.7 5.7 5.7 6.1s-1.2.8-2.7 1c-5.2.6-3.5 8.2 2 9q2.1.2 2.8 3.7c.9 4.4 4.5 7.8 9.1 8.6q6.8 1.2 3.7-5.3l-1.7-3.5c-.2-.4 1-.7 2.7-.7 3.5 0 4.5-1.2 3.7-4.5-.8-3-8.2-8.5-11.6-8.5-2.5 0-6.9-3.4-5.9-4.5.3-.2 4.1.9 8.5 2.6l15.4 5.5c4.1 1.3 9.1 3.3 11 4.3s4.6 2.2 6 2.6c2.4.7 8.3 3.3 26.5 12 5 2.3 14.6 6.3 21.5 8.9 16 6.1 31.9 12.9 39.5 17.1a221 221 0 0 0 33.2 16.1c2.2.4 4.9.2 6.7-.5s5.5-1.4 8.4-1.6l5.3-.4-.6 2.8c-.7 3.4 2.1 11.1 4.1 11.1 1 0 1-.7-.2-3.6q-2.7-6.6 1.7-2.8 2.2 1.8 1.5 4.5-1 4.9 2.6 2.8 3.6-1.8-2.3-8.8c-2.7-3.4-3-5.5-.6-4.5.7.2 2 1.8 2.9 3.4 2.9 5.1 8.8 3.6 8.8-2.3 0-2.6.3-2.8 2.4-2.3q2.4.5 4-1c4.5-4.4-1.2-9-10-8.1-2.9.3-5.6.1-6.2-.5-1.9-1.9-5.7-.5-6 2.2-.2 1.9-1.2 2.9-3.4 3.8-3.7 1.4-4.8.4-4.8-4 0-3-5.3-9.8-7.6-9.8-.8 0-9-3.7-18.2-8.3a995 995 0 0 0-31.2-14.6l-17.5-7.7a281 281 0 0 0-23.1-9.4 1448 1448 0 0 0-49.4-19.5l-22.5-8.5c-15.2-5.8-25.5-9.5-42.5-15.5-4.1-1.4-15.5-6.3-25.2-10.8l-17.7-8.1 3.4-3.3c4-3.9 4.7-4 6-1.1 1.8 4 8.5 3.2 8.5-1.1 0-3-1.8-4.4-6.2-5-3.8-.5-4.3-.9-4.3-3.1q-.1-2.7 2.3-2.8c2-.3 2.3 0 1.8 1.6-.8 2.5 1 3.8 2.9 2.2s1.9-5.2.3-6.8c-.7-.7-3.2-1.2-5.7-1.2a13 13 0 0 1-6.5-1.5c-2.5-1.9-4.1-1.9-6 .1s-2.1 5.8-.1 7.4c.8.7 1.5 2.8 1.5 4.6 0 2.6.4 3.4 1.8 3.4 1.4.1 1.3.4-.7 2-3.1 2.7-4.6 2.6-15.3-1.4l-24.8-9.1a385 385 0 0 1-28.7-11.6 59 59 0 0 1-6.8-2.9 159 159 0 0 1-19.5-8.6c-4.7-2.3-12.3-5.5-17-7.2-8.4-2.9-10-3.6-23-9.3-3.6-1.5-11.9-4.5-18.5-6.5s-13.1-4.3-14.5-5C22.5 455 2.2 448 .8 448q-.7.2-.8 2m52.8 29.3c.2.9-.4 2-1.2 2.3-2.1.8-4.6-1.3-3.9-3.2.8-2 4.7-1.3 5.1.9m6.4 2.2q-.1.9-1.1 1.3-1 .2-1.1-1.3c-.1-1.5.5-1.5 1.1-1.3q1 .4 1.1 1.3m136.6 24.4q.4 2.4-1 1.9c-.7-.3-1.5-1.5-1.6-2.7q-.4-2.4 1-1.9c.7.3 1.5 1.5 1.6 2.7m98.2 71.7q-.1 1.3-1 .9-1-.7-.5-1.6 1.4-2 1.5.7m8.3 2.4q-1.1 3.4-2.8 1c-.8-1.3 1.4-4.2 2.5-3.5q.8.6.3 2.5m-22 15c1.6 2.6 1.6 3 .3 3-1.5 0-3.6-2.9-3.6-4.9s1.6-1.1 3.3 1.9m121.5 26.2c-.4 2.7-2.8 3.6-2.8 1q0-3.1 2.2-3.2.8.2.6 2.2m5.7 3.8q-.8 1.1-1.7.2-.9-1.1-.3-2.2.8-1.1 1.7-.2.9 1.1.3 2.2m7.9 1.9c1.7 1.9 1.7 2-.4 3.1q-2 1-2.3.8l-1.4-2.5c-1.7-3-1.6-3.3.5-3.3 1.1 0 2.7.9 3.6 1.9m19.5 5q1.5 2.2-.8 1.4-2-.5-3.4 2.2-1.4 2.5-2 1.8-.5-1 .8-2.3c.8-.7 1.5-2.1 1.5-3.1 0-2.5 2.6-2.4 3.9 0m2.9 5.3q.4 1.8-1.7 1.1-2-.6-2.1-2c0-2 3.4-1.2 3.8.9M462 636q0 .9-1 1a1 1 0 0 1-1-1q.1-1 1-1t1 1m15.8 1.2q3.7 3.3-3.5 2.4c-5.3-.7-7.6-2.2-5.4-3.5 1.6-1 7.1-.3 8.9 1.1m-8.4 6.4c.7 1.7 0 3.4-1.3 3.4-.5 0-1.6-1.1-2.5-2.5-1.6-2.4-1.6-2.5.8-2.5 1.3 0 2.7.7 3 1.6"/><path d="M104.8 496.7c.7.3 1.6.2 1.9-.1q.5-.6-1.3-.5-1.7 0-.6.6m14.7 4.3q.5.9 1.1 1 .3-.1.4-1-.1-1-1.1-1-.8 0-.4 1m6.5 3.5q.1 1.4 1 1.5 1-.1 1-1.5c0-1.4-.4-1.5-1-1.5q-.9.1-1 1.5m5 3.3c0 .5 1.4.9 3.2 1q3.4.1 1.8-.8c-1.9-1.2-5-1.3-5-.2M.6 587.6c-.7 1.8.8 3.4 3.2 3.4 1.1 0 15.1 5.7 24.7 10 11.5 5.2 21.1 9 22.7 9 1 0 4.4 1.3 7.5 2.8 9.9 4.9 15.6 7.4 21.6 9.3 3.2 1 7 2.5 8.5 3.3a84 84 0 0 0 14.6 5.6c.6 0 2.3.8 3.6 1.7 2.6 1.9 7.4 3.9 12.5 5.2l23.5 8.6a1003 1003 0 0 0 48.5 17.7c3.3 1.1 12.1 4.7 19.5 7.8a582 582 0 0 0 27.5 11c.6.4 3.5 1.5 6.5 2.5s8.7 3.2 12.5 5c10 4.6 28.2 12.1 33.5 13.9 4.1 1.3 6.7 2.4 15.5 6.1l7 2.8 10.5 4c3.6 1.4 9.4 3.5 13 4.6 3.6 1.2 7.4 2.7 8.5 3.2 1.2.6 7.7 3 14.5 5.3l19 6.9c24.3 9.3 29.3 11.2 35.6 14.2 3.9 1.9 7.6 4.1 8.3 4.9q3.5 4.3-5.1 4.8c-4 .2-5.4.7-5.6 2q-.3 1.7 2 2c2.2.3 2.1.4-.9 2.1-2.4 1.3-3.8 1.5-5.7.7-2.8-1-3.2-2.1-1.5-5.2 1.4-2.7.3-3.6-1.7-1.2-1.4 1.8-1.5 1.7-.9-1.7.4-2.7.2-3.8-.9-4.2-1.5-.6-4.6 1.7-4.6 3.3q-.1.8-1.6.3-1.7-.5-1-3.5c.8-4-2-5-4.5-1.7-1.9 2.5-2.2 2.2-1.9-2.4q.2-2.7-1.3-2.7c-.9 0-2.5 1.2-3.6 2.7l-2.2 2.8.3-3.5c.4-4.4-2.6-5.5-4.3-1.6-1.6 3.4-3.1 3.4-1.9 0 1.3-3.2.6-4.4-2.6-4.4q-2.3 0-2.4-1.6c0-2.5-4.4-1.3-4.8 1.3q-.4 2.1-1.8 2.3c-1.7 0-1.7-.5-.3-3.2q1-2 .2-2.9c-1.4-1.4-4.1-.1-4.8 2.2-.7 2.1-3 2.5-4 .8-.4-.5 0-1.8.9-2.8q2.8-3-1.9-3.1c-1.3 0-2.8-.6-3.4-1.4s-2.5-1.6-4.2-1.8c-2.4-.4-3.3 0-4 1.6q-1.1 3-.7.1c.2-1.1-.1-2.6-.5-3.3-1-1.5-5.7-1.6-5.7-.1q-.2 1-1.7.7-1.6-.5-1.8-2.3c0-2.3-3.4-3.3-4.5-1.5-1.2 2-3.9.4-3.3-1.8.6-2.4-2.1-3.6-3.7-1.6-1.9 2.2-3.1 1.7-2.4-1.1.9-3.6-2.2-4.6-4.8-1.4l-1.9 2.4.3-3.5c.3-2.9 0-3.5-1.7-3.5q-1.8 0-2 1.2-.2 1.6-1.1 2.3c-1.7 1.7-5.4-.5-5.4-3q-.1-1.8-1.5-2c-1.4-.2-1.5.7-1.5 1.5 0 1.8-.8 1.9-4.3.2q-2.7-1.2-2.7-3.5c0-2.9-2.7-4-4.4-1.7-1.8 2.5-4.6 1.2-4.6-2 0-2.9-.7-3.1-3.1-.9-1 .9-2.3 1.3-2.8.9-1.4-.8-1.4-7.2-.1-8s.4-2.5-1.1-2.5c-.6 0-1.8 1.9-2.9 4.2l-1.8 4.2-2.2-3.7c-1.2-2-2.4-3.7-2.6-3.7q-.4.2-2.4 2.2-3.4 3.5-3.5-1.5c0-2.8-3.1-3.4-3.8-.7-.8 3-2.8 2.4-2.5-.8.4-3.4-2.5-3.8-3-.4-.5 3.2-2.7 2.1-2.5-1.1q.3-2.7-2.8-4.7c-1.6-1.2-2.9-1.9-2.9-1.5s-.9.1-1.9-.4c-2.4-1.3-4.5.8-3.5 3.4q.8 1.8-.7 1.3c-.8-.3-1.4-1.6-1.5-2.9-.2-4.5-.4-4.9-2.4-4.9-1 0-2.4.9-3 2q-1 1.8-2.1 1.5-.8-.7-.4-1.6c.4-.5.3-1.9-.1-3.1-.7-2.2-.7-2.2-3 .7-1.9 2.3-2.4 2.6-2.4 1.2 0-2.2-2.6-3.3-4.4-1.8-1.9 1.6-3.2-.4-1.6-2.4q1.1-1.3 0-2c-1.6-1-1.2-3.2.7-3.9.9-.4 2.1-.2 2.7.4q1 1-.8 1-1.7 0-1.4 1.7c.5 2.5 6.1 2.5 6.6 0 .6-2.9-2.7-5.7-6.5-5.7-1.8 0-3.3-.5-3.3-1 0-2-4-.9-5.6 1.5q-2.9 4.6 1.8 6.4c2 .8 2.1 1 .6 1.6q-5.2 2-5.3-3.5c0-4.3-2.6-5.2-4.3-1.6-1.4 3-4.8 2.5-6.4-1-.9-1.9-.8-2.8.5-4.2q1.7-1.7.6-3.2c-.8-1.2-1.6-.8-4.3 2.3-3.4 3.8-5.7 3.6-3.6-.4.6-1.1.9-2.7.6-3.5-.9-2.5-3.7-1.5-4.8 1.7q-1 3.2-2.1 2-1.2-1 .7-4.7c2.3-5 .7-6.4-2.7-2.4-2.6 3-4.5 3.7-3.9 1.4.4-2.1-1.8-2.7-3.7-1-3.1 2.8-5.1 2-5.1-1.9 0-2.8-.4-3.5-2-3.5q-2.1-.1-2 2.5 0 2.5-1.6 2.5c-1.4 0-1.5-.7-1-4 .5-3.5.4-4-1.2-4-1 0-2.4 1.1-3 2.5-1.7 3.7-3.2 3-3.2-1.5s-2.5-5.7-3.6-1.5c-1 3.9-2.6 3-2.2-1.3.2-3.1 0-3.7-1.7-3.7q-1.8.1-2.5 2.3c-.7 3.2-2.4 2.9-2.8-.5-.5-3.7-4.2-6.2-4.2-2.9 0 .8-.5 1.8-1 2.1q-1 .5-.8-3.7l.3-4.3H130c-4.3 0-4.5.1-4.8 3.2-.2 1.8-.8 3.3-1.3 3.3-1.7 0-2.2-3.1-.9-5.5 1.2-2.3.7-4.5-1.1-4.5-.5 0-1.8 1.5-2.9 3.2l-2 3.3v-3c0-4.6-1.1-7.5-2.7-7.5q-1.3 0-.9.9c.3.5-.1 2.4-.9 4.2l-1.4 3.4-.1-3.5c-.1-6.1-7.3-9.3-9.5-4.2-1 2.2-2.5 3-2.5 1.3 0-.5.7-2.5 1.5-4.5 1.2-2.9 1.3-3.6.2-3.6a4 4 0 0 0-2.3 1q-1 1-2.4-1.5c-1.6-3-3.2-2.8-4 .6q-.5 2.4-1.4 1.1c-.4-.6-.4-1.7-.1-2.2.9-1.5-1.7-3.7-5.3-4.5-1.7-.3-3.4-1.1-3.7-1.6-1.2-1.8-4.4-.9-4.7 1.3-.4 2.8-2.8 3.6-2.8.9s-2.5-2.7-4.4.1q-1.5 1.9-1.6 1.1c0-1.6-3.1-2.6-4.4-1.3q-2.5 2.4-2.6-1c-.1-3.4-3.5-2.9-4.3-.8-.7 1.9-4-.4-4.7-3.2s-2.8-3.8-3.6-1.6q-1.6 3.6-2.8-1.4c-.6-3.2-3.2-4.1-4.2-1.5q-.7 1.4-2.1 1.5t-1.1-3.2c.4-3.9-2.2-5-3.7-1.7-1.6 3.4-3 2.2-2.7-2.1q.3-4.2-1.2-4-1.3.2-2 1.5c-1 2.8-3.5 1.7-3.8-1.8-.4-4.2-3.2-4.4-3.6-.2-.5 4.2-1.6 5-5.2 3.5-2.8-1.1-3.1-1.7-2.8-4.8.4-4.3-1.7-5.4-3.3-1.8-1.9 4.1-3.2 3.1-2.5-1.8q1-6.7-2-4.8c-.6.4-1.3 1.5-1.7 2.4-.3 1-1.2 1.8-1.8 1.8q-1.2.1-.5-5t-.4-5c-1 0-1 2.7-.8 7.7l.3 7.8 13 5.2c7.2 2.9 18 6.9 24 8.9a209 209 0 0 1 18.5 7.1 216 216 0 0 0 12.5 5.3l69.3 25.9c4.8 2.1 14.1 5.7 20.7 8.1s13.8 5.1 16 6.2c5.5 2.6 23.7 9.7 37.5 14.7 17.8 6.4 24.4 9.5 25.6 11.9.6 1.2 1.8 3 2.7 4s1.7 2.2 1.7 2.6 1.1 2.4 2.5 4.4c2.9 4.2 3.1 5.2 1 5.2-3.2 0-4.5 6.2-2.1 9.6 1.4 1.8 1.5 1.8 4.5-1l3-2.9 3 3.2c2.4 2.6 3.7 3.2 6.3 2.9 4.7-.4 5-3.9.8-7.8-2.7-2.6-2.9-3.1-1.8-4.9q2.7-4.3-4.9-6.8c-2.3-.8-4.8-2.5-5.7-3.8-1.5-2.3-1.5-2.3 1.7-1.3l9.2 2.5c3.3.8 10.1 3.2 15 5.3 9.1 3.9 23.9 9.5 46.5 17.6 6.9 2.5 16.3 6.2 21 8.3 16.3 7.3 36 15.1 38.2 15.1 1.5 0 10.6 3.4 15.2 5.6a29 29 0 0 1 6.6 5.6c3.2 3.5 4.1 4 8.1 4a13 13 0 0 0 6.9-1.5c3-2.1 5-1.1 5 2.4 0 5.2 11.2 13.7 15 11.4.5-.3 1-1.5 1-2.6q0-2.1 3-3.2c3.1-1.2 3.9-3.4 1.8-5.5-.9-.9-.2-1.2 3.1-1.2 3.5 0 4.4-.4 4.8-2 .3-1.2 1.8-2.7 3.4-3.6 3.3-1.7 3.6-3 1.3-6.2-2.9-4.1-14.9-1.9-23 4.3q-3.4 2.6-5.5 2c-1.9-.6-1.9-.8-.5-2.4 3.8-4.2-.3-9.5-10.6-13.8-22.1-9.1-66.3-26.2-79.3-30.6a72 72 0 0 1-10.9-4.3c-1.9-1.3-1.9-1.3 0-1.9l5.4-2.1c3.4-1.4 3.8-1.4 8 1q8 4.6 12 .6c1.6-1.6 1.8-2.5 1-4q-2.3-4 1-2c2.3 1.2 5.4 0 6.4-2.5 1.7-4.6-5-9.2-11.7-8-2.7.5-3.6.3-4.1-1-1.5-4-11.6 1.3-11.6 6.1 0 5.3-10.4 9.7-17.5 7.4-2-.7-4.2-.9-5-.6s-4.2-.6-7.7-2l-11.8-4.5-8.5-3.4a576 576 0 0 0-35.6-14.5l-8.5-3.5c-3.8-1.4-13.2-5.3-20.9-8.5s-20.3-8.1-28-10.9l-18-6.7c-20.6-8.2-40.8-15.8-50.1-18.9a147 147 0 0 1-13-5.1l-7.9-3.5-16.7-6.9c-8-3.3-14.9-6-15.3-6s-3.4-1.3-6.8-2.9L48 604.7a953 953 0 0 1-29.5-12.6c-9-4.1-11.4-5-14.1-5.6-2.4-.5-3.3-.2-3.8 1.1M107 643.4q0 .5-1 1.1-.9.4-1-.4.1-1 1-1.1 1 0 1 .4M244.5 701q-.8 1.1-1.7.2-.9-1.1-.3-2.2.8-1.1 1.7-.2.9 1.1.3 2.2m111.1-.9c1.2 2.1-1.2 3.2-4.5 2.1q-3-1-3.6-.1t-1.8.9q-.9-.3 1.2-2c2.5-2.2 7.6-2.7 8.7-.9m-9.3 8.6c-.7.2-1.9.2-2.5 0q-1-.5 1.2-.5c2.2 0 1.9.2 1.3.5m-89.8 7.4q.6 1 .1 1.6c-.8.8-5.6-.6-5.6-1.7 0-1.3 4.7-1.3 5.5.1m-8.9 9.4c-.7 2.9-2.6 3.4-2.6.7 0-1.8 2-4.5 2.8-3.7.2.2.2 1.6-.2 3m11.4 1q1.1 1.5.7 2.2c-.8.7-3.7-1.5-3.7-2.8 0-1.4 1.6-1.1 3 .6m193.8 34.7q-.6 1.2-2.9 1.8c-3 .7-10-.4-7.9-1.3 4.5-1.8 11.3-2.2 10.8-.5m-14.4 7.9c-.3.5-1.5.7-2.7.3-3-.9-3.4-1.4-1.7-2.4s5.3.7 4.4 2.1m7.4-1.4c-1 .2-2.6.2-3.5 0q-1.3-.5 1.7-.5c3 0 2.7.2 1.8.5m-8.5 4.7c1.5.4 2.7 1.1 2.7 1.6 0 1.8-4.7 1.1-7.1-1.1-2.2-1.8-2.2-2-.4-1.5zm-6.7 3.2c3.1 2.4 4.6 5.4 2.5 5.4-1.3 0-6-4-7.1-6.1-1.5-2.7.4-2.5 4.6.7"/><path d="M16.6 601.7c-1.1 1.1-.6 2.3.9 2.3q1.4 0 1.5-.9c0-1.3-1.6-2.2-2.4-1.4m11.9 6.3q.6.9 1.6 1 .8-.1.9-1-.1-1-1.6-1-1.3 0-.9 1m5.5 3q.1.9 1.6 1 1.3-.1.9-1-.6-1-1.6-1-.8 0-.9 1m5.6 1.8q-.4 1 .5 1.7c1.5 1 2.5-.3 1.2-1.6q-1-1-1.7-.1m379.6 9.3c.5 1.7 4.8 2.5 4.8 1q0-1-.9-1.1-1.3-.1-2.7-.7-1.7-.7-1.2.8M0 665.9c0 1.3 9.5 5.9 13.8 6.7 2 .4 4.6 1.3 5.7 2a8 8 0 0 0 4 1.4c1.2 0 2.6.5 3.2 1.1 1.2 1.2 6.4 3.3 18.8 7.4a93 93 0 0 1 22.8 9.7 91 91 0 0 0 20.1 9.7c3.3 1.2 7 3 8.2 4.2a10 10 0 0 0 4.7 2.4c1.3.2 5.1 1.7 8.5 3.4s6.9 3.1 7.8 3.1c1 0 4.7 1.3 8.3 2.9s12.5 4.7 19.6 7c14.2 4.5 16.3 5.5 14.6 6.5-1.8 1.1-1.3 2.6.9 2.6q2 0 1.4-1.5c-.8-2.1.7-1.9 7.3 1.1 3.2 1.4 9.6 3.9 14.3 5.6a164 164 0 0 1 11 4.3c1.4.8 11.3 4.8 22 9.1a403 403 0 0 1 24.2 9.8q2.6.6 2.5 1.9t2.7.9c1.5-.2 3.6.3 4.5 1.1a9 9 0 0 0 3.6 1.9q1.8.5 1.7 1.6c-.3 1.5 1.5 1.6 2 .1.4-1.3 4.7.5 6 2.4.3.6 1.5 1.2 2.4 1.3 1 .2 2.3 1 2.9 1.8s2.5 1.4 4.5 1.3c2.8-.2 3.7.3 4.5 2.1s1.7 2.2 4.5 2.1c4.1-.2 10 .9 11.7 2.3.6.5.9 1.7.6 2.6-.6 1.6-.5 1.6 1.3 0 2.3-2 5.7-.7 4.7 1.8-.5 1.4-.3 1.4 1.6.3 1.8-1.2 2.7-1.1 6.4.9a21 21 0 0 0 5.4 2.2q4 .1-1.2 6.5c-3.5 4.2-3.8 4.4-5.8 3q-4.3-3-3.4.5c.7 2.5-.7 3.4-3.3 2-1.5-.8-1.8-1.7-1.3-4q.8-5.3-3.2-1c-2 2.2-3.3 2.4-5.5 1q-1.7-.9-.2-2.2c1.4-1.4 1.6-4.8.2-4.8-.5 0-1.7 1.1-2.6 2.5-1.8 2.7-2.2 2.9-4.2 1.6-1.2-.7-1.1-1.4.2-3.9 1-1.8 1.2-3.3.6-3.7-1-.6-4.5 2.4-5.1 4.4q-.6 1-2.1.6c-1.2-.5-1.5-1.5-1.1-4.6.6-4.1-1.1-5.6-2.4-2.2q-.7 2.3-1.3-.7-.7-2.4-2.7-2.8a4 4 0 0 1-2.6-2.3c-.8-2.9-3.7-2.3-5 1.1-.6 1.6-1.7 3-2.4 3q-2.7.2.7-4 2-2.5.8-3.7c-1.8-2.2-3.9-1.4-5.4 2.2-.8 1.9-1.9 3.5-2.4 3.5-1.5 0-1.2-3.2.5-5.4 2-2.7 1.9-3.6-.5-3.6-1.1 0-2.7 1.1-3.6 2.5-1.9 2.8-3.4 3.3-3.4.9q.2-1.7-2.9-.9l-2.9.6.5-4.1c.6-4.1.5-4.2-1.6-2.9-1.1.8-2.1 1.9-2.1 2.6 0 1.8-2 2.7-3.3 1.4q-1.2-1 .1-2.3c1.7-1.7 1.5-4.8-.2-4.8-.8 0-2.3 1.2-3.4 2.7-2.5 3.4-4 2.3-2.5-1.7.9-2.4.8-3.2-.4-4.2s-1.8-.8-3.4 1.2c-1.8 2.4-1.9 2.4-1.9.4 0-1.2-.6-2.7-1.4-3.3-1.2-1-1.8-.7-3.1 1.8-.8 1.7-2 3.1-2.5 3.1-1.3 0-1.2-.4.1-3.4.9-2 .9-2.9-.1-4.1-1.9-2.2-3-1.8-4.1 1.5-1.5 4.1-2.9 3.8-2.6-.7.3-5-2.6-5.8-4.2-1.2-1.4 3.9-2.6 3-2.6-1.9 0-4.2-2.2-5.1-4-1.7-2.2 4.3-2.6 4.7-4.1 3.4-1.1-.9-1.1-1.5.2-4.1.8-1.6 1.2-3.8.9-4.9-.7-2-.7-2-2.7-.2-1.1 1-2.4 2.8-2.9 4q-.9 2.1-1.9 2.3-2-.2.2-4 1.4-2 .2-3.8c-1.5-2.4-2.6-1.9-4.7 2.2-1.1 2-2.3 3.6-2.7 3.6-1.8 0-1.9-1.9-.3-4.7 1.7-3.1 1.3-6.3-.9-6.3-.7 0-2.3 1.8-3.6 4.1-3.6 6.2-5.5 4.4-3.6-3.4 1-4.1-2.2-3.6-4.7.8-2.2 3.6-4.8 4-2.8.3 1.6-3 1.8-8.6.3-9.9q-1.4-1.2-.7 1 .4 2-.6 2.1c-.6 0-1.7 1.5-2.5 3.4s-1.9 3.7-2.5 4c-1.9 1.2-2.4-2.2-.7-4.6 2.2-3.1 2-5.8-.3-5.8q-3.2-.1-4.5 5.2c-.7 3-1.3 3.3-3.6 1.8-1.2-.8-1.2-1.4.3-4.5 2.3-4.9 2.2-6.7-.5-6.3q-2.1.3-3.3 3.8c-1.4 4.1-5.2 5.8-4.1 1.9 1.8-6.3 1.8-7.9.4-7.9-2.1 0-3.8 2.1-3.8 4.7q0 2.2-1.5 2.3c-1.7 0-2-2.3-.5-5 1.2-2.2-1.2-4.6-3.2-3.4-.7.5-2.4.7-3.7.5q-2.4-.3-4.1 2c-2.2 2.9-5.7 2-4-1 1.6-3.1 1.2-5.1-1-5.1q-2 0-2.6 2.5-.6 2.3-1.5 2.5c-1.1 0-1.1-.3 0-3.4q1-2.4-.2-3.5-2.2-1.8-4.6 2.6c-.6 1.3-1.7 2.3-2.3 2.3q-1-.1-.3-2.3c1.7-5.6 1.7-6.7.1-6.7q-1.5.2-2.8 2t-2.2 2q-.6-.1.4-1.6c1.1-1.3 1-1.9-.8-3.6l-2.1-2.1-1.8 3.9-2 4.3c-.1.2-1 .1-1.9-.3-1.5-.6-1.4-.9.7-3.2 2-2.1 2.1-2.7.9-3.4q-1.5-1-3.2.7c-1.5 1.3-1.8 1.3-1.8.2q0-1.4.9-2.8t.4-2.8c-.8-1.9-3.2.3-5 4.5-1.1 2.7-1.7 3.1-2.8 2.2-1.4-1.2-.6-4.9 1.7-7.7 1.4-1.7.3-4.4-1.5-3.7-.8.3-2.3 2.3-3.3 4.4-1.9 3.9-3.4 5.2-3.4 2.7 0-.6.7-2.5 1.5-4.1 1.9-3.6 1.9-4.6 0-4.6-.9 0-2.3 1.6-3.2 3.5q-1.7 3.3-3.5 3.5-3.6-.1.2-3.5 3.6-3.3.5-3.5c-.8 0-2.2 1.1-3.1 2.5s-2 2.5-2.5 2.5c-1.7 0-.9-4.4 1.3-6.7 1.2-1.3 1.9-2.6 1.5-2.9-1.1-1.2-3.8.5-5.5 3.6-1.7 3-4.2 4.1-4.2 1.7 0-.6.9-2.6 2-4.4q2-3.3.8-3.9c-1.2-.8-5.8 4.3-5.8 6.4q-.1 1.3-1.2.9c-1.4-.5-1.2-5.6.3-7.2 1.1-1.1 1.2-4.5.1-4.5-1.2 0-3.6 3-5 6.2q-1.6 4.3-5.2 1.8c-1.3-.8-1.2-1.5.8-5.2 2.8-5.2 1.1-7.1-2.9-3.2-2.9 2.8-4.3 2.3-2.7-1.2 1.5-3.2.3-4.2-2.3-1.8-2.1 1.9-2.2 1.9-1.5-.4q1-2.4-1.2-2.2c-2 0-5.2 2.9-5.2 4.8q-.2 1.1-1.5 1.2c-1.8 0-1.8-.4-.3-4.7 1.7-4.7.1-5.3-3.4-1.3l-3 3.5.5-3c.3-1.7.9-3.8 1.2-4.8q.9-1.8-1.3-1.7-2 0-3.7 3.6-1.7 3.8-2.8 2.5-1.2-1 1.1-4c1.2-1.7 1.8-3.2 1.4-3.4-1.4-.9-5.4 1.3-5.9 3.3q-.6 1.8-1.4 2c-1.3 0-1.1-1.1.6-4.4 1.2-2.2 1.3-3.1.4-3.7q-2.8-1.6-4.7 2.7C10 684 8 684.9 8 682.9c0-.6.5-2 1.1-3.1 1.6-2.9-.4-4.7-2.8-2.6-1 .9-2.7 1.8-3.8 2q-2 .3-2.3 3c-.3 2.3.3 2.9 5.1 5.1 2.9 1.4 7.8 3.5 10.8 4.7s8.6 3.7 12.6 5.6a44 44 0 0 0 8.7 3.4q1.4 0 2 .9c.3.5 4.5 2.5 9.3 4.4s15.1 6.5 22.9 10a395 395 0 0 0 47.7 19.1c9.3 3.1 19.1 6.8 21.9 8.2a849 849 0 0 0 65.7 24.9c1 .4 1.1.8.1 2-1.5 1.8-.8 2.9 3 4.5 4 1.6 4 4.6 0 5.4-3.8.7-5.7 4.4-4 7.6 1 1.9 1.8 2.2 5 1.7 2.8-.4 5.1.1 8.6 1.9s5.1 2.1 6.5 1.3c2.4-1.2 2.4-2.4-.1-5.8-1-1.6-1.8-4.1-1.7-5.6.2-2.5-.3-3-3.1-3.9-1.9-.5-4.7-2.2-6.3-3.8-2.6-2.6-2.6-2.9-.6-2.2l6.2 1.9c2.2.5 5.1 1.8 6.5 2.7s6.6 3.2 11.5 5.2a238 238 0 0 1 18.1 8c5 2.4 12.4 5.8 16.5 7.5 12 5 11.9 5.3-2.1 4.7a479 479 0 0 1-68-9.1l-17-3.5a416 416 0 0 1-37.3-7.1c-4.5-.8-5.7-1.4-5.3-2.6.3-.8.3-4.6 0-8.4-.7-6.9-.7-6.9-5.4-9.9-2.6-1.6-5.5-3-6.6-3-4.9 0-8.3 5.7-5.2 8.8 1.8 1.8.2 2.5-2.4 1-1.5-.8-5.6-1.2-11.5-1.2-8.7.1-9.2-.1-9.7-2.2q-1.2-4.2-6.1-2.2c-2.2 1-3.1.8-6.8-1.8-3.3-2.4-4.2-3.6-4.2-6 0-1.6-.8-4.1-1.7-5.5-1.4-2.2-2.6-2.7-8-3.2-3.4-.3-6.4-1.1-6.6-1.7s-1.5-2.4-2.9-4c-3.3-4-9.4-4.3-11.9-.5-1.2 1.8-2.5 2.5-4.8 2.5-3.7 0-8.2 4.1-8.8 7.9-.3 2.4-.9 2.7-13.4 6-3.8 1-10.2 5.9-11 8.4-.8 2.6-9.2 8.6-13 9.3q-3.5.6-3.4 2.5-.1 3.1 5.2 1c1.3-.5 4.8-1.4 7.8-2.1a23 23 0 0 0 8-3.5 27 27 0 0 1 8.5-4c3.3-.9 6.5-2.1 7.1-2.6.9-.7 9.4-.9 9.4-.2l-3 1.8c-1.7.9-4.2 3.3-5.6 5.5-2 2.9-4 4.4-8.7 6.3-3.4 1.4-8 2.7-10.2 3C1.4 783.8 0 784.2 0 786.1c0 1.7.5 1.8 4.2 1.3 17.9-2.6 32.1-7.6 34.3-12.1 2.1-4.2 3.6-5.3 5.6-4.3 1.5.8 2.6.4 5.6-2.3 4-3.7 9.7-6.8 16-9 3.1-1.1 4.7-1.1 8.3-.1a39 39 0 0 1 16.5 7.4c1.7 1.6 4.4 3.4 6 4a57 57 0 0 0 18 .9 29 29 0 0 1 9.8 2.3c1.6.6 4 2.8 5.3 4.8 2.2 3.3 3.3 3.9 10.7 5.9l13.5 3.1a133 133 0 0 0 27.5 5c4.3.5 12.4 2 18 3.4 12.5 3 33.8 6.6 39 6.6 2 0 7.9.6 13 1.4 11.5 1.8 38.7 3 40.5 1.8 1.9-1.3 15 3.8 35.1 13.5l7.4 3.6-2.7 1.4q-2.4 1.3-2.1 2.4c.8 1.2 7.5.9 9.3-.4q1.1-1 8.5 2.3c11.9 5.4 25 11 25.8 11 1.8 0 7.9 3.2 7.5 3.9-.3.4-2.9.5-5.8 0l-18.8-2.4c-7.4-.9-17.5-2.2-22.5-3s-12.8-1.3-17.5-1.4-11.9-.6-16-1.1l-17-2.1a69 69 0 0 1-13-2.5 253 253 0 0 0-23.5-4.4c-11-1.6-25-4.2-31.1-5.6s-12.2-2.6-13.5-2.7-5.7-1.9-9.7-4c-3.9-2-8.3-3.7-9.7-3.7-2.2 0-2.4-.3-1.5-1.9 2-3.9-3.4-6.6-7.6-3.7-1.7 1.3-2.4 1.1-5.9-1l-4-2.4h3c1.7.1 8.2.8 14.5 1.6 15.9 2.1 15.5 2.1 15.5.5 0-2.1-12.6-4.5-30-5.6-12.1-.8-14.1-1.4-15.4-4.1-1.9-4.2-9.1-2.8-9.1 1.8 0 2.7-1.7 2.2-2.4-.7s-4.5-3.5-6.6-1c-.9 1.1-2.4 1.3-5.7.8-4-.5-4.5-.4-4.2 1.2.4 1.9 5.5 3.4 17.9 5.5 9.1 1.5 20.4 3.8 22.5 4.6 1.1.4 4.3 2.7 7.2 5.1 4.7 4 5.5 4.3 9.1 3.7 3.1-.5 5.2 0 10.8 2.7 3.8 1.8 8.7 3.6 10.9 3.9l14.5 3c5.8 1.2 11.9 2.4 13.5 2.6 11.9 1.5 32.3 4.9 38.5 6.6 4.1 1 12 2.3 17.5 2.8s10.7 1.1 11.6 1.5c.8.3 8.4 1 16.9 1.5 19.7 1.2 33.8 2.6 38.7 3.9 2.1.5 7.9 1.2 12.8 1.6 7.6.6 8.6.9 6.5 1.8-3.5 1.5-28 1.1-43.5-.7-9.2-1.1-26-1.6-58-1.8-24.7-.1-47.3-.5-50.1-.9-5-.7-28-1.3-88.4-2.6-46.7-.9-46.3-.9-46.7.3-.2.6.9 1.7 2.4 2.4l2.8 1.3-5 .9c-2.7.4-5.6.6-6.2.3s-16-.5-34-.6c-18.1 0-34.8-.4-37.3-.8q-8.1-1.2-8 1.4 0 1.3 6.3 1.8c5.4.6 76.5 1.2 82.3.8a14 14 0 0 0 5.8-2.6c2.8-1.9 4.6-2.4 6.9-2 1.8.2 22.1.7 45.2 1s49.2.7 58 1c39.4 1.3 80.8 2.5 101.5 3 12.4.3 29.5 1.3 38.2 2.1a94 94 0 0 0 23.3.5c4.2-.6 10.7-1.1 14.5-1.1s8-.5 9.4-1.1c1.9-.9 3.3-.8 6.3.3 2.3 1 4.6 1.2 5.8.7 3.1-1.2 3.3-1.1 4.7 1.8 1.8 3.7 11.3 8.5 15.3 7.8a9 9 0 0 0 4.3-1.9c2.2-2.2-2.8-7.2-8-8-4.8-.7-7.6-2.1-6.5-3.2.4-.4 6.2-.8 13-.9 13.7-.1 19.3-1.5 23.2-5.5 2.4-2.5 2.5-2.9 1.1-4.3a7 7 0 0 1-1.6-2c0-1.2 8.6-1.8 15.5-1.2 7.2.7 7.4.8 5.3 2.5q-5.4 4.6 6.7 7.6l3 .7-3.5.8a18 18 0 0 1-6.5.3c-3.9-.6-6.3.9-4.7 2.9 1 1.2 0 1.9-5.6 4.5-3.7 1.6-7.8 3.3-9.2 3.7a9 9 0 0 0-4 2.6c-2.7 3.3-13.5 4.9-49 7.4a1351 1351 0 0 1-110.5 1.5c-9.4-1.4-61.5-2.5-61.5-1.3 0 1.3 7.8 2 25 2.2 7.4.1 22.1.9 32.5 1.8 26.1 2.1 80.2 1.2 128.5-2.2 23.4-1.7 33.7-3.5 38.8-7 2-1.4 4-2.5 4.4-2.5 2.3 0 13.9-6.2 14.8-8q1-2 4.3-2h3.2l-2.3 1.8c-2.2 1.7-2.3 1.8-.4 3.5 1 .9 3.3 2 5 2.3 3.9.8 3.4 2.1-.9 2.2s-8.3 3.2-8.7 6.7q-.5 5.1 3.2 3.9 1.8-.6 1.3-3.1c-.6-3.3 1.8-5.5 5.7-5.1l3.1.3-.3 6.2q-.5 11 4.5 4.8c1.8-2 2.3-3.7 2.1-6.2-.3-3.5-.2-3.5 4-3.8q7.2-.6 7.2-4.5c0-2.7-2.5-4.3-5.9-3.5-1.7.3-3.9.1-5.1-.5-3.4-1.8-.7-3.9 5.8-4.3l5.7-.3-5.7-.2c-3.2-.1-5.8-.6-5.8-1.2s2.5-1.7 5.5-2.5l5.5-1.6V839c0-2.7-.5-5.2-1-5.5q-1.2-.7.1-2.1c1.2-1.5.4-6.4-1.1-6.4-.5 0-1.6-1.3-2.5-3l-1.5-2.9-22.8.3c-21.6.2-25.2.6-25.2 2.6a304 304 0 0 0 38.4-.1c2.7.1 2.8.2 1.3 1.8a11 11 0 0 0-1.9 4.8l-.3 3h-17c-16.6 0-21.5.6-21.5 2.7 0 .5 1 1.8 2.3 2.8 3.6 3 1 4.2-11.3 5.3q-16 1.5-10.7-1.4c2-1.1 2.3-4.9.5-6.7-1.6-1.6-5.9-1.5-8.5.3-1.9 1.3-2.3 1.3-4.6-.5a10 10 0 0 0-3.4-2c-.4 0-6.2-2.7-12.8-6.1L368 811.6l-3.5-1.6 7.5.5c35.9 2.5 34.3 2.5 35.7.5.9-1.3 2.5-1.8 5.8-1.8 2.5.1 4.8.5 5.1 1 1.1 1.7 5.6.8 6.1-1.2.4-1.5 1.1-1.8 3.7-1.3q5.7 1 5.6 4.4c0 2.6 2.4 2.4 4.2-.3 1.1-1.6 2.6-2.2 6-2.3 2.7-.1 6.1-1.1 8.2-2.4q6.6-4.2 8 3.3c.7 3.5 1.9 4.3 8.3 5.2 2.3.3 4.4-.3 7.3-2.1 4.6-2.9 5.3-3 6.9-1.1 2 2.4 6.8 3 9.3 1.2a10 10 0 0 1 5-1.6q5.7-.1-.6-6.5c-3.5-3.7-5.7-4.2-11.5-2.5q-3.5 1-7.4-.2c-3.8-1.2-4.1-1.1-6.8 2-1.6 1.8-2.9 4.2-2.9 5.3 0 2.4-2 2.1-3.2-.4l-1.6-3.4c-.5-1-2.7-2.4-4.9-3.2-3.8-1.4-4.2-1.3-6.8.7a10 10 0 0 1-5.1 2.2c-2.1 0-2.4-.5-2.4-3.4 0-3.1.2-3.4 3.9-3.9 2.1-.2 6.2.1 9.2.9s6.3 1.4 7.5 1.4c3 0 18.9-3.7 24.1-5.7a22 22 0 0 1 7.8-1.1q3.4.3 3.2-.6c-.6-1.7-9.7-1.9-14.1-.3a54 54 0 0 1-23.9 4.2l-12.2-1.4c-3.3-.4-7-1.2-8.1-1.9-1.2-.6-2.4-.9-2.7-.6s-2.3-.4-4.6-1.5c-4-2.1-4.1-2.1-9.1-.2-2.7 1-6.3 3-8 4.4-4.4 3.8-10.9 4.7-36.9 5.3-13 .3-25.8.9-28.6 1.4-4.8.8-5.5.6-18.2-5.5s-14.7-7.5-12.3-9c1.6-1 1.2-3.5-.6-3.5-.9 0-3 .7-4.8 1.5-3.1 1.5-3.6 1.4-9.2-1.1-3.2-1.5-8.8-3.7-12.4-4.9a682 682 0 0 1-34.5-13.7L204 744.7a3479 3479 0 0 0-55.2-21.7 257 257 0 0 0-27.8-10.5c-8-2.6-18.3-6.4-23-8.5l-15.2-6.4a55 55 0 0 1-9.9-5.2 13 13 0 0 0-5-2.4q-1.7 0-2.4-.9c-.3-.5-2.9-1.7-5.8-2.6-2.8-.9-6.1-2-7.2-2.5l-8.5-3.4c-3.6-1.3-8.9-3.6-11.8-5a88 88 0 0 0-13-5.1c-4.2-1.3-9.4-3-11.4-3.9-4.1-1.7-7.8-2.1-7.8-.7m43.7 33.7c-.3.3-1.2.4-1.9.1q-1.1-.5.6-.6t1.3.5m19.5 43.1c1.3 1.2 1.8 3 1.8 6.9 0 5.2-.1 5.4-3.8 7.3-2.1 1.1-5.2 2-6.8 1.9-1.6 0-4.2.5-5.7 1.1q-5.4 1.9-3.8-1.7c.5-.9.7-3.1.4-4.7-.6-4.1 2.3-7.7 5.5-6.9 1.2.4 2.2 1.2 2.2 2 0 1.9 1.9 2.7 3.3 1.5.7-.5 2.3-.8 3.5-.4q2.2.5 2.8-1c.8-2.2-1.4-6-3.2-5.3q-1.3.4-1.4-.9c0-2 2.9-1.9 5.2.2M17 770.4q-.1.4-1.6 1-1.3.5-.9-.4c.6-1 2.5-1.4 2.5-.6m195 14.4c0 1.3-1.2 2.2-2.2 1.6s-.1-2.4 1.3-2.4q.8.1.9.8m9.4 1.8c1.6.6 2.3 3.4.9 3.4-1.1-.1-4.3-2.6-4.3-3.4s1.4-.8 3.4 0m45.7 2.7c-1.3 1.3-2.6.3-1.6-1.2q.6-1 1.7-.5 1 .6-.1 1.7m164.7 5.4 3 1.7-2.9 2.7c-1.6 1.4-4 2.6-5.3 2.6-1.4 0-3.6 1-5.1 2.1-2.1 1.7-3.9 2-9.5 1.9-8.3-.2-9.8-1.2-3.1-2.1 2.7-.4 6.1-1.6 7.7-2.9a77 77 0 0 1 11.6-7.7c.3 0 2 .8 3.6 1.7m-110.3 1.5c2.5 1.1 3.4 2.8 1.5 2.8q-.9.1-1 1.2c-.1 1.3-4.4 6.8-5.4 6.8-.2 0-.2-1 .1-2.1q.6-2.2-1.3-3.6c-1.8-1.3-1.7-1.4.6-3.8 3-2.9 2.4-2.7 5.5-1.3m11.5 4.9a568 568 0 0 1 54.5 22.9c1.8 0 14.4 6.8 17.6 9.5 1.7 1.4 3.5 2.5 4 2.5 2 0 .8 3.1-1.6 4q-2.4 1-2.5 3-.2 1.8-1.2 2c-1.6 0-4-1.5-3.9-2.4.3-2.3-.2-2.8-2.3-2.4s-2.6 0-2.8-1.6q-.2-2.1-2.6-2.1c-1.3 0-2.6-.5-3-1a9 9 0 0 0-3.4-2.2q-4.3-2-1.8-3.8c1.5-.9.2-2.5-2-2.5q-2 0-1.3 1.6.5 1.6-2.1 4c-1.4 1.4-2.6 3.1-2.6 3.9q0 2.6-4 .5c-1.9-1-1.9-1.1.1-4.5 1.2-1.9 1.8-4.2 1.5-5.1-.5-1.4-.1-1.6 2.5-1 3.2.6 3.2.6 1.4-1.4-1-1.1-2.8-2-4-2s-3.4-.9-4.8-2c-3-2.4-3.7-2.5-3.7-.5q.1 1.3 1.8 1.5 2.3.3 3.8 1.5c1.6 1.2 1.7 1.6.5 2.4q-1.4 1-3.9-1c-1.4-1-2.8-1.9-3.2-1.9s-2 1.8-3.5 4-3.2 3.7-3.7 3.4q-.8-.7.4-2.2l2.5-3.9q2.4-3.7-4.5-4.9c-2.5-.5-3.3-.2-4.6 1.9-.9 1.3-1.4 3.2-1 4.1q.9 2.7-2.4.7c-1.1-.6-1.1-1.7-.3-4.7.6-2.1.9-4 .6-4.2-.2-.2-1.7 1.1-3.4 3-2.2 2.5-3.3 3-4.1 2.2-.9-.9-.8-1.8.5-3.7 2.5-3.8-.2-4.8-3.1-1.1-1.9 2.3-2.6 2.6-3.6 1.6q-1.3-1.2 0-2.4c1.5-1.5 1.6-4.5.2-5.3-1.3-.8-4 1.9-4 3.9q-.1 1.5-1.1 1.6c-1 0-.8-2 .7-7.1q.3-1.6-1.2-2.3c-2.1-.8-5.6 2.7-4.8 4.8q.5 1.6-1 1.6c-2 0-2-1.3 0-5.7 1.3-2.6 1.4-3.7.5-4.6q-1.4-1.1 1.1-2.9c2.9-2.2 2.3-2.2 8.8.3m37.5 5.2q2 .4-1.2.6c-3.1.1-4.9-1-3.6-2.3q.6-.5 1.7.3c.6.5 2 1.1 3.1 1.4m24.6.3c-2.5 1.8-11.7 2.1-19.1.6l-3.5-.6 3.5-.6c1.9-.4 7.5-.7 12.5-.8 8.7-.2 8.9-.2 6.6 1.4m6.9-1.2c0 .9-3 1.4-3.5.6q-.4-1 1.4-1 2 0 2.1.4m-92.5 1.6q.4.9-.4 1-1-.1-1.1-1 0-1 .4-1t1.1 1m7.5 3q1.6 3.2-1.9 1.1-1.1-1-.7-2c1-1.5 1.4-1.4 2.6.9m180.4 18c1.3 1.3-.9 3-4 3-2.8 0-5.9-2.4-4.9-4 .9-1.4 7.2-.7 8.9 1m-128.4-.2c0 2.2-2.7 6.2-4.2 6.2q-3.3 0-.2-4.5c1.5-2.4 4.4-3.4 4.4-1.7m128 6.3c0 .5-1.6.9-3.5.9s-3.5-.4-3.5-.8 1.6-.8 3.5-.9 3.5.3 3.5.8m-112.8 3.2c-.3 3 1.3 4.3 3.3 2.7q1.6-1.6 1.5 1.1c-.1 2.6-2.3 6.2-3.3 5.3-.3-.3-.3-1.2-.1-1.9q.4-1.3-2.8-3.1l-3.6-1.9c-.2-.2.4-1.5 1.4-3 2-3.1 4-2.7 3.6.8m36.8.7q-.1.9-1.1 1-.8-.1-.4-1 .6-1 1.1-1 .4 0 .4 1m62.5 1c0 1.9-4.2 2.4-7.8 1.1-4.5-1.7-3.2-3.2 2.6-2.9 3.8.2 5.2.7 5.2 1.8m14.3.2c-.3.8-2.2 1.3-4.8 1.3s-4.5-.5-4.7-1.3q-.6-1.2 4.7-1.2c5.3 0 5 .4 4.8 1.2M394 844q0 .9-1 1a1 1 0 0 1-1-1q.1-1 1-1t1 1m6.5 2q.4.9-.4 1-1-.1-1.1-1 0-1 .4-1t1.1 1m82.2 5.6c.3.8.2 1.9-.3 2.4-1.3 1.2-6.4 0-6.4-1.5 0-2.6 5.7-3.4 6.7-.9m-61.3 2.4c1.8 1.7.1 3-2.3 1.7-3.4-1.7-4.1-4.1-1-3.2a13 13 0 0 1 3.3 1.5m75.7 5.4q-1.3 1.5-4.4.9-9.5-1.6 1.8-3.6c2.8-.5 4.1.9 2.6 2.7"/><path d="M328.5 803q.7 1 1.6.5 2-1.4-.7-1.5-1.3.1-.9 1m6.9 3.5c1.1.8 2.7 1.5 3.7 1.5q1.5.2 2.3 1.5.6 1.3 2.1.9c2.1-.8 1.9-2.4-.4-2.4-1 0-2.4-.7-3.1-1.5a6 6 0 0 0-3.9-1.5c-2.5.1-2.5.1-.7 1.5m14.1 5.6q-.6 1-.1 1.6c.8.8 3.6-.5 3.6-1.7 0-1.3-2.7-1.3-3.5.1m43.5 21q.2 1 1.9 1.6 1.9.6 2.5 2c.7 1.7 2.6.8 2.6-1.3q-.2-1.3-1.9-1.4c-1.1 0-2.3-.5-2.6-1-.8-1.3-2.5-1.3-2.5.1M261.6 696.9q-.6 1.2-.2 1.8c.9.9 1.9-.4 1.4-1.8q-.4-1.7-1.2 0m8 2.8c-1.1 1.1-.6 2.3.9 2.3q1.4 0 1.5-.9c0-1.3-1.6-2.2-2.4-1.4M289 710q.1.9 1 1 1-.1 1-1t-1-1a1 1 0 0 0-1 1m16.5 5q-.4.9.9 1 1.5-.1 1.6-1 0-1-.9-1t-1.6 1M129 724q.1.9 1 1 1-.1 1-1t-1-1a1 1 0 0 0-1 1m209 3.9q.1 1 1.5 1.1c1.2 0 6.1 2.1 11.7 5.1 1 .5 2.7.9 3.9.9 2.2 0 2.2 0 .4-2-1-1.2-2.5-1.8-3.2-1.6q-1.2.3-2-.8c-.5-.7-2.4-1.6-4.3-1.9s-4.5-.8-5.7-1.2q-2.3-.7-2.3.4m25 9.7c0 .9 4 2.3 4.4 1.5q.3-.9-1.9-1.3c-1.4-.3-2.5-.4-2.5-.2M201.5 753q.6.9 1.1 1 .3-.1.4-1-.1-1-1.1-1-.8 0-.4 1m124 19c-1.3 1.4-1.6 2.9-1.2 5.5.3 1.9.1 3.7-.4 4-1.8 1.2-.8 2.2 4.4 4.7 9.9 4.8 12 5.3 16.3 3.6q7.1-2.9 4.7-6.6c-.9-1.5-.7-2.1.8-3 2.5-1.6 2.4-3.5-.4-6.8s-7.3-3.5-11.4-.9c-2.4 1.6-2.6 1.6-4-.4-1.8-2.7-6.4-2.7-8.8-.1m22 3c.7 1.2-5.5 4.1-6.9 3.3-1.1-.7 3.1-4.3 5-4.3.7 0 1.6.5 1.9 1m-16.5 2.1q0 .8-1 .9-.9-.1-1-1.6.1-1.3 1-.9 1 .6 1 1.6m4.8 6.1q-.3 1.3 4 1.3c2.3 0 4.2.1 4.2.3a9 9 0 0 1-2.5 1.2c-3.7 1.4-8.5.2-8.5-2.1q.1-1.8 1.5-1.9c1.4-.1 1.4.6 1.3 1.2M50.5 786c-3.8.5-9.9 1.5-13.5 2.4-8.1 1.9-8.5 2-7 .1q2.9-3.6-9.2-1.6-15.4 2.5-8.7 6.1c1.5.8 2.9.8 5.1.1 4.2-1.5 4.5-1.4 5.1 1 .5 1.9 1.1 2.1 3.9 1.6l18.5-3.6c11.4-2.1 18.4-2.9 27.5-3q12.3 0 10.8.9c-.8.5-2.8 1-4.3 1-1.6 0-4.7.4-7 .9a418 418 0 0 1-56.2 6.8c-6.9.4-9.5 1-11.1 2.4-1.1 1-2.6 1.9-3.2 1.9q-1.1.1-1.2 1.5c0 1.6 4.9 2.1 6.6.7 1-.9 11.3-2.4 32.4-4.7 7.4-.8 19.8-2.6 27.5-4 17.6-3.2 38.1-3.3 42.8-.2q2.5 1.8 2.7 4.1c0 5.1 3.7 4 4.5-1.2.4-2.1 1.3-5 2.1-6.5 1.4-2.5 1.4-3 0-5.2-2-3-4.5-3.2-8.6-.7-2.8 1.8-3.5 1.8-10.3.5-8.5-1.7-39.2-2.5-49.2-1.3m148.7 14.9c-.8.5-1.2 1.7-1 2.6.3 1.9 3 3 10.3 4.5 19.3 3.8 24.7 5.1 26.7 6.3 4.1 2.6 16.3 5.2 34.3 7.2 7.9.9 18 2.5 19.4 3 .8.3 6.7 1 13 1.5 6.5.5 13.3 1.6 15.5 2.5 4.3 1.8 8.1 1.7 8.1-.4 0-2.2-7.9-4.1-21.2-5.1-6.8-.6-15.3-1.6-19-2.4-3.8-.8-10.6-1.7-15.3-2.1-12-1-28.4-4.2-32.8-6.5s-17.3-5.7-25-6.6c-4.4-.6-5.5-1.1-6.3-3-.9-2.5-4.1-3.2-6.7-1.5m-65 8.7c-1.2.8-2.2 2.1-2.2 2.9 0 2.1 3.8 5.2 7.1 5.9 5.6 1 6.1 1.3 7.1 2.9q1.6 3.2 5.4.3c1.9-1.5 1.8-1.5-.6-4.1-9.7-10.1-12.1-11.2-16.8-7.9M72.4 811c-2.9 1.1-6.4 5.8-5.7 7.6.3.8 1.7 1.7 3.2 2 1.4.4 3.6 1.8 4.8 3.3l2.2 2.6 1.5-3.6c2.8-6.7 2.9-8.6.7-10.8s-3.4-2.5-6.7-1.1m13.5 3.5c-1.5.8-3 2.2-3.3 3.1-.7 1.9 1.9 5.4 4.1 5.4q1.3.2 1.9 1.5c1.5 3.9 6.4-.7 6.4-6s-3.7-6.9-9.1-4m33.8-.8c-3 .5-5 3.3-4.1 5.7.6 1.7 5.5 3.6 9.1 3.6 3.2 0 8.3-2.7 8.3-4.5 0-.7-1.2-2.3-2.6-3.4-2.6-2-4.7-2.3-10.7-1.4M6.4 820.3c-2.7 2.4-2.8 2.5-1.1 5.1 1 1.4 2.4 2.6 3.1 2.6q1.3.2 2 1.5c.9 2.6 3.3 1.7 4.6-1.8q1.4-3.9 1.7-1.2c.5 2.2 8.6 10.5 10.2 10.5q1-.2 2.1-2c1.3-2.4 3.5-2.6 4.4-.5.7 1.9 3.6 2 3.6 0 0-.8.9-1.9 2-2.5 4-2.1 4.9-8 1.3-8a4 4 0 0 1-2.7-1.3 20 20 0 0 0-7.4-2.6c-6.1-1.2-6.3-1.1-9.7 1.5-2.6 1.9-3.5 2.2-3.5 1.1q0-3-5.1-4.2c-2-.5-3.3 0-5.5 1.8m399.1-1q-3.1 2.5 3.7 3.4c3.2.3 4.5-1.2 2.8-3.2-1.5-1.9-4.1-1.9-6.5-.2m15.5 1.2q.2 1.3 2 1.5c1.8.2 2-.7 2-1.5s-.9-1.5-2-1.5-2 .7-2 1.5m11.4.6q-.5 1.1.7 1.9c1.4.9 4.9-.5 4.9-2 0-1.4-4.7-1.3-5.6.1m-295.5 4q-4.2 4.3 2.7 4.4c3.4 0 3.9-.3 4.2-2.4.6-4.2-3.5-5.4-6.9-2m13.1 2.4c-1 1.2-.9 1.6.4 2.1 2.2.8 4.6-.2 4.6-2.1s-3.4-2-5 0m-104.2.6c-3.9 2.2-.9 7.8 3.4 6.3 1.3-.5 3.7-.8 5.3-.9 2.5 0 3-.4 3-2.5 0-2.2-.5-2.5-3.5-2.6-1.9-.1-4.2-.4-5-.8-.8-.3-2.3-.1-3.2.5M150.7 857c-1.6 1.3-2.7 3.1-2.7 4.6 0 2.2-.4 2.4-5 2.4-2.8 0-6.7.7-8.7 1.5-4.6 1.9-30.3 2.1-33.3.3-1.5-1-2.9-.9-6.7.5-4 1.4-7.6 1.6-22.8 1.1l-31.3-.8c-11-.3-13.6-.7-15.2-2.1-1.8-1.6-2.3-1.7-4.8-.4l-3.4 1.7c-.5.2-.8-1.3-.8-3.2q0-3.6-1.5-4.2c-1.7-.7-6.5 2.1-6.5 3.7 0 .5-1.2 2.1-2.7 3.4-2.6 2.2-2.9 2.3-4 .8S0 865.2 0 868.7v4.1l5.1-1.5c4.5-1.3 5.2-1.3 6.8.1 2.1 1.9 5.2 2.1 7 .4.9-1 9.3-1.3 35.7-1.1 19 .1 34.8.4 35.2.7q.4.7-1 1.9c-.8.6-1.8 2-2.1 3-.6 1.6.5 1.7 14.1 1.7 8.1 0 14.2-.4 13.6-.8-.7-.4-1.3-1.6-1.6-2.7q-.1-2.1-3.8-2.1c-1.9 0-3.6-.6-3.8-1.3q-.6-1.5 2.1-.7c1.4.3 2.8.2 3.1-.3s4.4-.6 9.1-.3c6.3.3 9.6.1 12.7-1.1 5.9-2.2 16.1-3.1 18.6-1.8 1.2.6 2.4 2 2.7 3.1q1.3 4.3 4-1.1c1.5-2.8 1.9-3 6.3-2.7 4.6.3 4.7.3 4.7 3.8q0 3.5 1.8 3.8c2.7.5 4.9-1.8 4.3-4.4-.6-2.1-.4-2.2 4.1-1.9 7.8.6 11.7 1.6 13 3.3 1.1 1.3 1.6 1.4 3.7.2 2.2-1.1 2.8-1 5.3.9 2.1 1.7 3.5 2.1 6.1 1.6 2-.4 3.9-.1 4.7.5q1.3 1.2 3.4 0c2.5-1.3 2.6-1.8.4-4.2-1.5-1.7-1.4-1.8 2.5-1.8 2.3 0 4.2-.5 4.2-1 0-1.1-.4-1.2-6.3-1.5-2.1-.1-4.9-.8-6.3-1.5-2-1.1-3.1-1.1-5.8-.2-5.2 1.9-9.6 1.6-9.6-.7 0-4.1-1.1-5.1-5.6-5.1-4.1 0-4.5.2-5 3q-1.2 4.7-4.1 1.9-1-1.2-3.4.3t-8.1 1c-5.3-.3-5.7-.6-6.3-3.2-1.2-5.4-6.5-7.3-10.8-4m341.3 9.5c-1 1.2-.9 1.6.4 2.1 1.8.7 4.9-1.3 4-2.7-.8-1.4-3-1.1-4.4.6"/><path d="M141.4 869.4c-1.6 4.3 1.5 6.9 5.1 4.2 1.6-1.2 1.8-1.8.9-3.3-1.4-2.3-5.2-2.9-6-.9"/></svg>