<svg xmlns="http://www.w3.org/2000/svg" width="666.7" height="1170.7" viewBox="0 0 500 878"><path d="M257.8 15.5c-.3.3-6.8.7-14.4.8-11.1.3-13.9.6-13.9 1.8q.2 1.3 3.9 2c2.8.5 4.7 1.6 6.7 4 5 6.1 5.4 7.5 3.3 10.5-1 1.4-3.1 4.5-4.5 6.8-2.4 3.9-2.8 4.1-7.4 4.1-3.9 0-5 .4-5.3 1.7-.3 1.5.4 1.8 3.5 1.9l4.3.1 20.8-.8c17.8-.6 20.3-.9 20-2.3s-1.4-1.5-6-1.3l-5.6.4-4.1-5.6c-2.3-3-4.1-6.1-4.1-6.8s1.7-3.8 3.8-6.8c3.4-5.1 4.1-5.5 8.2-6q4.6-.4 4.8-2.1c.2-1.2-.8-1.8-4.4-2.3q-8.5-1.1-9.6-.1m-2.8 4.7c-.1.7-1.2 2.6-2.6 4.3l-2.5 3-2.5-2.9c-2.5-2.8-2.5-3-.8-4.3 2.3-1.7 8.4-1.7 8.4-.1m-1.5 21.4c.9 1.4 1.5 2.7 1.3 2.8-.9.8-8.8 1.3-8.8.6 0-2.3 2.5-6 4-6 1 0 2.5 1.2 3.5 2.6"/><path d="M454.9 28.2q-3.2 3.4-5.6 3c-3.2-.5-6.3 2.4-6.3 5.8 0 2.7 2 5.2 5.3 6.3.9.4 1.7 1.7 1.7 3s.5 2.8 1.2 3.5c1.9 1.9-.9 4.2-5.2 4.2-5.4 0-7.9 4.3-9.2 15.8-.8 7.7-4.3 23.4-6.3 28.5q-.7 1.8-3.4 1.5c-2.5-.3-2.6-.6-2.9-6.6-.3-5.6-.1-6.2 1.7-6.2 1.1 0 2.9-1.4 4.1-3 2.7-3.8 2.3-7.4-.7-7.8-2-.3-2.3-.9-2.3-5.1 0-5.9-2.8-9.3-5.7-7-3.1 2.3-4.3 4.2-4.3 7 0 2-.7 3-3.1 3.9-4.2 1.8-6.4 5.2-4.9 7.9 1.1 2.1 3 2.8 8.5 3.3q3 .3 2.7 1.8c-.2.8-.4 3.8-.4 6.7-.2 5 .1 5.5 4.1 9.3q4.5 4 3.8 5.7l-10 31.8c-9.5 30.2-18.4 57.3-32.9 100.5-4.3 12.9-10.6 32.9-13.9 44.5-7.3 25.5-13.7 45.3-15 46.1q-1.1.4-2.5-.7c-2.1-1.7-1.7-5 4.2-34.9l5.4-26.8c2.5-11 6.3-36.2 6.5-42.2.2-3.6 1.2-11.2 2.3-17l4.1-21.5c2.9-15.6 3.6-18 4.6-18 1.9 0 3.6-1.7 4.6-4.3l1-2.6 1.2 2.4c1.7 3.3 6.4 4.7 8.5 2.6 1.3-1.3 1.4-2.1.5-4.5-1-2.7-.8-3.2 1.9-5.7 3.9-3.8 3.5-7-.9-6.7-1.8.2-3.5-.2-3.8-.7-1-1.7-4.3-1.1-7 1.2-1.9 1.8-2.8 3.8-3.6 8.8-.9 5.9-2.2 9.1-3.3 7.9s4.5-30.9 7.4-39.9a90 90 0 0 0 4.5-20.4c.5-5.6 2.2-15 4.5-23.7 1.3-4.8 1.2-8.3-.2-13.1-.9-3.1-1.7-4-4-4.5q-3-.4-2.8-2.8c0-1.2-.7-2.8-1.5-3.5s-1.5-3-1.5-5.7c0-4.2.1-4.5 2.3-3.8 8.9 2.7 10.8 2.8 13.3.4q4.2-4 .7-6.5c-1.7-1.3-1.6-1.5 1-3.5 4.2-3.2 5.1-5.6 3.3-8.4-1.4-2.1-2-2.3-4.3-1.4-3 1.1-4 .4-4.5-3.1-.5-3.7-3.9-3.7-8.2 0-2.6 2.3-3.6 4-3.6 6.1q0 5-4.2 1.2c-2.4-2.1-4.8-.9-6.3 3.2-.9 2.4-.6 3 2.5 5.8 3.2 2.8 3.5 3.6 3.5 8.7 0 3 .4 6.3.9 7.2q1.1 1.8-2 2c-5.4.6-9.6 10.5-6.8 16 1.2 2.3 1.2 3.2.2 5.1A29 29 0 0 0 372 94l-.5 6.4-3.3.2c-1.8.1-3.5-.3-3.8-.8s0-3.1.6-5.8q2.4-9.6-2.8-8.8c-2.3.3-2.8.9-3.6 5-.8 4.4-1.2 4.8-3.7 4.8-4.5 0-5 3.7-.9 7.1 2.8 2.4 3 3 2 4.9-1.4 2.5.1 5 3.1 5 2.8 0 6.1-3.7 5.4-6-.9-2.7 1.1-3.4 3.5-1 2.3 2.3 2.4 3.6.9 10a35 35 0 0 0-1 8c0 1.9-.5 5.2-1 7.3s-1.6 9.1-2.4 15.5c-1.8 15.3-5.4 37-8 48.2-1.6 7.2-4.5 26.8-7.6 52-2 16.7-3.4 24.7-6.3 35.4-.9 3.2-2.3 9.3-3 13.5l-6.2 32.8c-.7 3.6-2.6 2.7-1.9-1 .3-1.7.9-15.5 1.5-30.6.6-15 1.2-27.6 1.5-28 1.3-2.3 2.5-20.6 2.5-42.1.1-30.2.3-31 4.3-33 3-1.5 4-2.7 5.1-6.3.6-1.8.7-1.7 3.2.2 5 3.9 7.1 2.3 5.3-3.9-1.2-3.8-1.1-4.2 1-5.6 2.9-2.1 2.6-7.8-.4-8.2-1.1-.1-2.8-1.6-3.7-3.2-3.7-6.5-7.3-2.1-6.5 7.9.4 5.8.2 7.2-2.2 11.5a17 17 0 0 1-3.7 5.3c-1.3.4-.9-31.3.7-43.8.6-4.8 1-11.7.9-15.5-.2-3.8.1-11.6.5-17.4.7-8.8 1.2-11.3 3.6-15.6 3.3-5.8 3.6-10.1 1.2-15.1-2.3-4.9-6.8-7.5-11.5-6.7-3.4.5-3.8.3-4.3-1.9-1.1-4.4-.2-6.2 3.1-6.5 4.3-.4 10.2-6.5 8.5-8.6-.9-1.1-1-2-.2-3.5 1.8-3.2 1.3-6.9-1.1-8.5-1.9-1.4-2.4-1.4-3.8-.1-2.3 2.1-3.5 1.9-4.8-1-.6-1.4-1.6-2.5-2.1-2.5-1.7 0-3.5 3.2-4.1 7.3-.4 3.6-.8 4.2-2.7 3.9-3-.4-6.3 1.5-6.3 3.6s1.8 4.2 3.6 4.2c.7 0 2.4.4 3.8 1 2.3.8 2.4 1.2 1.4 4.1-.8 2.3-.7 4 .2 6.8 1.1 3.5 1.1 4-1.4 6.4q-5.3 5.3-2.2 11.1c2.4 4.6 1 11.1-2.4 11.1-2.1 0-2.5.5-2.5 2.9-.1 3.7-2.1 4.4-4.6 1.7-1.1-1.2-2.6-2.1-3.4-2.1-2.1 0-2 6.4.1 9.5 1.4 2.2 1.4 2.6 0 4.7-2 2.8-2.1 6.7-.2 7.4 1.6.6 4.6-.8 7.1-3.2q1.5-1.4 2.3-.9c3.4 3.3 2.3 107.8-1.7 157.5l-1.6 21.1c-.4 4.7-1 9-1.4 9.7q-.7 1.2-5.1.4l-4.5-.8-.1-20.9c-.1-11.6-.4-28-.8-36.5-.8-21-.9-81.6-.1-82.9 1.1-1.9 4.2-1.2 5.9 1.5 1.9 2.8 5.2 3 7 .2.8-1.3.6-2.2-.8-3.7-1.8-2-1.8-2.1.2-3.8 2.5-2.1 4.1-7.3 2.2-7.3-.6 0-2 .5-3.1 1-1.6.9-2.1.7-2.9-1.5-1.9-4.9-5.9-2.3-6.4 4.1l-.5 5.1q-.2 1.2-1.6 1.3c-1.2 0-1.5-1.6-1.6-8.3a528 528 0 0 1-.1-57.7c.6-3.9.5-8-.1-10.5a34 34 0 0 0-9.7-14.2c-1.1-.8-2-2.2-2-3.2 0-1.3.7-1.6 3.3-1.3 4.4.5 9.2-3.1 7.7-5.8-.5-1-.7-3.8-.4-6.2.5-3.4.2-4.7-1-5.7q-1.8-1.6-2.8-.3-1.2 1.1-3.1 1.2c-1.6 0-1.8-.5-1.2-4 1.4-8.2-3.6-8.7-7-.8-2.2 4.9-3.1 5.8-6.1 5.8-2.4 0-6.4 3.9-6.4 6.2q.1 1.5 3.5 2.2c3.7.7 4.1 1.5 2.4 4.8-1.6 3 1 5.5 4.1 3.8q2.3-1.3 3.3-.1c.9.9.2 2.1-2.6 4.6a22 22 0 0 0-4.7 6c-1.3 3.4-1.3 10.1.1 12.6.5 1.1 1.3 6.7 1.6 12.4.4 8.8.3 10.5-.9 10.5-2.5 0-2.8-1.1-1.2-4.2q2.7-5-2.7-5.2-2.2 0-3.4-3.6c-1.2-3.7-4.2-5.2-5.6-2.8-1.4 2.1-1 7.7.6 10.2 1.4 2.1 1.3 2.4-.5 4.1-4.5 4-1.2 7.6 4.5 4.9a9 9 0 0 1 6.6-.6l3.4.8.3 9.6c.1 5.3-.1 11.8-.7 14.5q-.9 4.8-1 2-.2-5.3-6.5-2.4c-1.8.8-3.8 1.2-4.6.7-.6-.4-2-.5-3-.3q-3 .7-3-10.1c0-2.2-.7-7.7-1.5-12a231 231 0 0 1-3.8-40.7c.4-4.4.1-6.4-1.6-9.7-2.7-5.3-2.6-6.6.4-8.6 3.6-2.3 6-7.3 4.4-9.2a3 3 0 0 0-3.1-.8c-1.7.5-1.9.2-1.6-2.3.3-2.4-.1-2.8-2.3-3.1-1.9-.2-3.5.7-6.2 3.8-2.1 2.2-3.7 4.9-3.7 6.1 0 2.9-2.2 1.8-3.1-1.5-1-3.5-4.7-7.6-6.9-7.6-2.4 0-5 3.2-5 6.2 0 1.4-.9 3.3-2 4.3q-4.7 4.2 1.9 7.4c3.5 1.8 3.9 2.4 4.5 7.3.4 2.9 1.3 7.5 2.1 10.3.7 2.7 1.6 7.4 2 10.2l.6 5.3h-3c-2.5 0-3-.4-3.6-3.8-.4-2-1.4-4.9-2.3-6.5-1.6-2.6-1.5-2.8.6-4.3 1.2-.8 2.2-2.4 2.2-3.4 0-2.3-3.2-4.2-5.4-3.4q-1.7.8-1.6-1.9c0-3.6-2.6-6-5.1-4.7-1 .6-1.9 1.5-1.9 2q-.1 1-1.3 1c-.7 0-2.1-2.5-3.1-5.5-1.8-5.7-2.9-6.5-6.7-4.4-1.6.8-2 1.9-1.8 4.7.1 2-.1 5-.5 6.5-.6 2.1-.4 3.3.9 4.7 1.6 1.8 1.5 2-.9 5.7a15 15 0 0 0-2.6 7.1c0 4 2.4 9.9 5.2 12.9 1.6 1.7 1.9 3 1.5 5.3-.4 1.7 0 6.5.8 10.8 1.8 9.2 1.9 14.2.4 14.2-3.8 0-13.9-10.4-13.9-14.2 0-.8 1.8-2.9 4-4.7 2.2-1.7 4-3.9 4-4.7s-1.3-2.7-2.9-4.2a9 9 0 0 1-3.3-6.2c-.2-2.8-.8-3.6-2.7-3.8q-5.2-.8-5.1 8.5c0 5.1-.1 5.3-2.4 4.7-1.8-.4-2.8.1-4.5 2.4q-6.2 9 5.9 8c3-.3 3.5 0 4 2.2.7 3.4 5.7 10.5 8.7 12.5 1.4 1 4.3 2.2 6.6 2.9l4 1.1 2.4 11 5.7 24 6.2 24.5c1.4 6.3 4.4 18 6.6 26a928 928 0 0 1 8.8 33.6c1.1 3.8 2.8 11.5 4 17l2.9 13.9c1.5 6.1 4.8 21.8 7.3 34.1 2.2 11 2.2 11.2.3 15.3-1 2.3-2.3 4-2.9 3.8-2-.7-5.6-8.2-9.1-19.2a1342 1342 0 0 0-25.8-75.5c-2.4-5.8-5.7-13.9-7.2-18s-4.2-10.4-6-14a94 94 0 0 1-4.5-10.5c-.7-2.2-2.5-6.7-4-10-1.6-3.3-4.2-9.5-6-13.7l-3.2-7.7 3.3-4.1c1.8-2.2 3.5-4 3.8-4q.7.2 1.9 2.1c1.5 2.4 5 2.2 6.6-.4.8-1.3.7-2.4-.6-4.8-1.4-2.3-1.5-3.5-.7-5q2.5-4.2-4.1-3.2c-3.5.5-3.9.3-3.4-1.1q.7-1.5 1.9-1.6c1.9 0 2.9-2 1.7-3.2-1.4-1.4-4.9.7-6.7 4.2q-1.5 2.8-.9 7.2c.4 3.5.1 4.8-1.9 7.2l-2.3 2.9-2.2-5.4c-1.2-3-3.3-9.7-4.8-14.9-1.5-5.6-5.9-16.2-10.6-25.9-9-18.4-11.8-25.8-11.8-31 0-8.4-3.2-13.9-8.3-14.3-3.2-.3-3.5-1.8-.8-3.5 1.9-1.2 4.1-6.9 4.1-10.6 0-2.6-4.6-4.4-7.3-2.8-1.8 1.2-2.3 1.1-4-1.3q-3.4-4.5-6.3-.9c-2.1 2.8-1.6 6.7 1.2 10.8 3.5 5.2 4.4 7.9 3.3 9.6-1 1.5-1.7.9-4.5-3.7-1.5-2.6-3.7-.9-2.3 1.8q1.4 2.2-.3 1.6c-.7-.3-1.3-1.9-1.3-3.8 0-4.1-2.1-5-3.6-1.6a5 5 0 0 0-.2 4.8c.8 1.7.6 3.2-.6 5.6q-2.8 6.1 3.3 7 2.7.3 2.6 2.3c0 4.1 4.1 12.3 8.4 16.9s7.2 9.7 6.2 10.7c-.2.2-2.5-.3-5-1.1q-8.2-2.8-10.4-.4-3 3.1 1.9 7.1c2.8 2.1 3 2.6 1.8 4.5-1 1.7-1 2.3 0 3.6q1.4 1.5 2.6 1.6c.7 0 1.8.7 2.5 1.5 2.6 3.2 7.1.5 8.1-5q1.3-6.7 6.4 7.2c2 5.4 4.7 12.3 6 15.3s3.5 9.3 5.1 14 4.7 13 7.2 18.5l7.7 17.5c1.8 4.1 5.5 12 8.3 17.6a347 347 0 0 1 9.4 20.5l9.8 23.1c5.1 12.2 5.4 12.7 7.2 11.1 2.3-2.1 3.6-.9 2 1.8-1.2 1.8-1.1 2.1.7 2.6q4 1 0 3.7c-2.1 1.4-2.1 1.5 5.6 22.8l10 27.3c3.1 7.7 3.9 11.1 2.8 11.8q-2 1.4-4.8-4.3c-1-1.9-2.9-4.9-4.1-6.6a12 12 0 0 1-2.4-4.3 528 528 0 0 0-22.4-45.6A61 61 0 0 1 194 276c0-1.8-4.6-11.2-7.7-15.6-1.1-1.6-7.1-13.2-13.3-25.8a284 284 0 0 0-14-26 45 45 0 0 1-4.9-7.4c-2-4-2.1-4.5-.7-6.1.9-1 1.6-3.2 1.6-4.9 0-2.6.7-3.6 3.2-5.2 3.5-2.1 4.8-1.8 4.8 1.1 0 2.1 1.6 2.6 2.3.6.8-2.1-1.3-4.7-3.8-4.7-2.9 0-3-.3-.9-4 1-1.5 1.4-3.5 1-4.5-.5-1.5-.9-1.5-4 .4-4.1 2.6-4.6 2.6-4.6.2 0-4.9-4.1-2.4-4.2 2.6-.1 1.5.9 4.8 2.1 7.1 2.3 4.5 2.5 8.7.4 8.7-1.5 0-25-46.4-29.3-57.8-1.7-4.5-4.7-11.4-6.6-15.4a37 37 0 0 1-3.4-10.2c0-1.6-.4-4-.9-5.3-3.6-9.4-4.5-10.7-7.3-11.7l-3-1.1 2.1-2.6c2.9-3.7 3.8-9.4 1.7-10.9a6 6 0 0 0-4-.8c-2 .4-2.4 0-3-3.1-.4-1.9-1.1-3.8-1.6-4.1-1.2-.8-5.7 2.5-6.3 4.6a32 32 0 0 0 3.5 14.8c1.3 1.8 1.5 2.9.6 4.4q-1 2.3-1.9.6c-.5-.8-.9-2.6-.9-4.1s-.6-3.1-1.3-3.5-2.2-2-3.2-3.6c-3.1-4.9-5.9-2.9-4.8 3.6.3 2 .1 3.7-.6 4.1-2 1.3-1.2 4.7 1.8 7.5a8 8 0 0 1 2.9 6.8 27 27 0 0 0 7.6 16.1c1.9 2 5 6.7 7 10.4l3.6 6.8h-2.4c-3.1 0-5.1 3.2-3.7 5.7.5 1 2 2.7 3.2 3.7l2.3 1.9-2.3 1.1c-2.1.9-2.7.6-5.2-2.3a43 43 0 0 1-5.2-10.5L80.2 107c-.8-2.4-2.7-5.6-4.1-7l-5.5-5.8-2.9-3.3 1.8-3.3c2.1-3.9 1.6-7.2-1.9-10.9q-2.4-2.6-4.4-2c-1.1.2-3.2-.3-4.7-1.3-2.7-1.8-2.8-1.8-4.7.6-1.6 1.9-1.9 3.5-1.6 7.1.4 4.1.3 4.6-1.4 4.1q-4.8-1-4.8 6.7c.1 2.5 0 5.5-.2 6.6-.3 1.7.3 2 3.7 2.1 3.7 0 4 .3 5 3.6.5 2 1.7 4.4 2.6 5.4.9 1.1 3.5 5.9 5.8 10.7 3.9 8.2 4.1 9.1 2.9 11.8-1.4 3.1-2.7 3.5-6 1.8-3.9-2.1-8.6.8-7.2 4.4.8 2.2 7.9 5.7 11.3 5.7 2.8 0 3.1.3 2.5 2.4-1.2 4.7 5.8 7.6 9.8 3.9 2.4-2.1 2.7-1.7 7.8 9.8a315 315 0 0 0 8 17c2.1 4.1 6.6 12.9 9.9 19.7a332 332 0 0 0 11.1 20.7c2.9 4.7 6.6 11.9 8.4 15.9 1.7 4.1 3.7 8.1 4.4 8.9s3.2 5.3 5.6 9.9l9 16.8c2.6 4.7 6.5 12.5 8.7 17.4s5.6 11.4 7.6 14.4c3.9 6.2 22.8 43.4 26.7 52.7l5.2 12.9 2.7 7-4.6 3.8c-2.5 2.2-7 7.2-9.9 11.1-2.9 4-8.9 11.3-13.5 16.4a66 66 0 0 0-15.7 26.3c-2.7 9.2-9.5 21.9-12.5 23.5a14 14 0 0 0-4.2 3.1c-.7.9-4.7 3.9-8.8 6.6a55 55 0 0 0-9.5 7.6 34 34 0 0 1-4.6 4.7 100 100 0 0 0-16.5 18.7c-3 4.2-7.6 9.8-10.1 12.5S74.2 515.8 71 520c-3.2 4.1-8.6 10.6-12 14.5q-10.1 11.4-10 16.9c0 3 5.2 7.6 8.7 7.6q2.6 0 2 1.4c-.3.8-.9 3-1.2 4.9-.6 2.9-.3 3.7 2.1 5.6 1.5 1.2 3.7 2.1 4.8 2 1.2-.1 3.3.3 4.7 1 2.2 1.1 3.1 1 5.7-.3 4.8-2.5 5.4-2.1 4.7 2.7-.5 3.3-.3 4.6.9 5.6q1.4 1.2 1 2.3c-1.2 2 1.6 3.5 5.3 2.9 4.3-.7 11.9 1.3 12.7 3.4.6 1.6-1.6 12.5-4.5 22-1.1 3.8-2.9 11.1-3.8 16a91 91 0 0 1-7.8 22l-6.6 14.7c-.4 1-5.1 4-10.5 6.7a62 62 0 0 0-22.7 18.4c-2.5 3.4-3.1 3.7-6.4 3.1-2-.3-4.3-1.4-5.1-2.4s-2.6-2-4-2.2c-2.2-.3-2.6-.9-3.1-5.3-.9-8.6-5.3-16.5-9-16.5-1 0-3.3 1.3-5 2.8-2.9 2.6-3.3 3.6-3.8 10.5s-.9 7.8-4.3 11.1L.1 695l.1 11.8c.1 13.3.9 15.4 4.5 12.1 2.7-2.6 2.8-3.9.7-9.8-1.7-5-1.1-12.3 1.3-14.3 1.3-1 1.9-.8 3.4 1.1 2.3 2.9 5.4 2.2 4.6-1.1-.3-1.2-.1-3 .4-4 .8-1.5.7-2.4-.4-3.6-2.4-2.8-3-7.6-1.3-11.7 3-7.2 7.4-2.3 8.6 9.5a31 31 0 0 0 2.2 9.5c2.5 4.8 3 16.3 1 20.5-2.3 4.7-4.7 4.6-4.7-.2 0-2-.3-3.9-.7-4.3-1.2-1.3-3.8 1.6-3.8 4.2 0 1.3-.7 2.6-1.5 2.9q-1.4.7-1.5 1.9c0 .8-2.9 2.3-6.5 3.5L0 725.2v9.7l3.1-.9c5.7-1.7 9.4-4.5 9.1-7-.2-2.2-.1-2.3 6-1.5 8.2 1.1 12.9 1.1 15 .1 1.6-.7 1.8-.3 1.7 3a27 27 0 0 1-1.8 8.4l-1.9 4.5-15.6-.4C.3 740.8 0 740.8 0 742.9c0 2 .6 2.1 9 2.2a165 165 0 0 1 15.6.8l4.7.1-2.7 2.1c-2.4 1.9-3.9 2.1-14.7 2C.5 749.9 0 750 0 751.9c0 2.2 1.8 2.5 16.5 2.6h5l.3 6.7c.3 6.6.2 6.8-3.6 11C11 780.1 7 786.1 7 788.9c0 3.2 1.1 4.7 6.1 8.4 4.3 3.1 6.9 9.5 6.9 16.9 0 8.2.7 8.3 39 9.8a640 640 0 0 1 31.8 1.6c4.3.4 5.3.3 5.9-1.2.9-2.4-1.6-6.4-5.2-8.3L83 811a20 20 0 0 0-11.9-3.8c-7.6-.5-8.8-1.3-12.4-8.5-2.5-4.8-2.6-5.5-1.4-9.5l1.3-4.2 2.1 2.9c3.4 4.6 13.3 4.9 13.3.4 0-1.1-.8-1.2-3.5-.7-6.3 1.2-9.3-4.3-3.3-6.1 1.7-.6 3.7-2 4.5-3.2 1.3-1.9 1.2-2.3-.8-4.2a9 9 0 0 0-5.2-2.1c-2.9 0-2.9-.1-1.4-1.8q1.8-1.7 1.7-8c0-3.3.5-6.4 1.1-6.8 1.6-1 63.1-.6 64.2.5 1.5 1.5.1 18.6-2.2 26-.8 2.6-.7 4 .4 6.1 3.5 6.8 12 8 20.1 2.9 14.4-9.3 28-14.9 35.7-14.9 6.2 0 17-5.2 21.1-10q2.7-3.1 2.6-7v-3.8l43.3.2 43.2.1v9.3c0 9.1.1 9.4 2.9 11.9 2.5 2.1 3.6 2.4 7 1.9a13 13 0 0 0 5.4-2c.7-.7 1.5-5 1.9-10.2.3-4.9 1.1-9.5 1.7-10.3.9-1.1 11.3-1.3 65.1-.7 35.2.3 76.7.9 92.3 1.2 25.7.6 28.2.5 28.2-1 0-1.4-1.7-1.6-12.7-1.7a12788 12788 0 0 0-157.8-2.3l-15-.1-.3-3.3c-.3-2.8 0-3.2 2.2-3.2 1.4 0 3.4 1 4.6 2.2 2.7 2.9 9.2 2.8 13.4-.3l3-2.2 59.5.7c32.8.3 69.4.9 81.4 1.3l21.7.6v-72.1l-2.2-.7-3.2-.9c-1.9-.2-1.7-2.5.3-3.5q1.9-1.2 1.5-2.6c-.8-1.9-3.3-1.9-4 0q-1.7 3.6-10.8-1.8c-4.8-2.7-5.6-3.6-5.6-6.2 0-1.7-.9-4.7-2-6.8s-2-4.6-2-5.7c0-2.9-4.3-5.4-6.9-4.1-1.7.9-2.4.5-5.3-3.1-2.8-3.6-3.3-4.9-3-8.8.5-6.2-2.1-9.6-6-8.1-1.5.5-4.5 3.2-6.6 6-3.6 4.5-3.9 5.4-3.5 9.5.4 3.5.1 5.3-1.6 8-1.3 2.1-2 4.4-1.6 5.4q1 3.3-4.8 4.6-2.8.7-4.2 4a26 26 0 0 0-1.1 14.2c.5 1.6-.2 3-2.8 5.7-1.9 2-3.7 5-4.1 6.7a9 9 0 0 1-1.6 3.6c-1.7 1-3.6-1.5-3.2-3.9 1.2-6.3-4.7-15.7-9.7-15.7-1.1 0-3.3 1.9-5.2 4.6l-6 7.9a12 12 0 0 0-2.8 4.4q-.1 1-2.1 1.1c-1.1 0-3.4 1.4-5.1 3.1-1.7 1.6-3.4 2.7-3.9 2.2a81 81 0 0 1-4.8-8.5c-3.5-6.5-3.8-7.8-2.6-8.8 2-1.7 1.8-4.5-1-17.5l-2.3-11 3.9-4a18 18 0 0 0 3.9-5.4c0-.8-3.8-8.9-8.5-18l-15.1-30.6c-3.6-7.7-8.1-16.5-10-19.5-1.8-3-3.9-7.6-4.6-10.2-1.1-4.3-1-4.9.8-6.9 1.6-1.8 1.9-3.7 2-12.3.1-5.5-.3-10.6-.8-11.3q-.9-1.2.2-3.2c.9-1.7.5-3.2-2.2-8.3a50 50 0 0 0-13.1-17.3c-3-1.4-3.2-3.5-.9-8.7a131 131 0 0 1 16.9-33.2 68 68 0 0 1 10.2-1.3c9.5-.6 13.6-1.6 26.1-6.2 10.5-4 12.3-5.1 15.7-10.2 2.1-3.2 2.8-5.6 3-10.3l.5-11.6c.3-5-.1-6.2-3.9-12.2a34 34 0 0 1-4.3-8.2c0-.8-.5-1.8-1-2.1-2.5-1.6-5.8-10.4-6.4-17.3-.3-4.1-1-8.2-1.6-9.1-.6-1.3 0-3.4 2.2-7.7a315 315 0 0 0 15.4-32.2c2.5-5.3 6.6-14.9 9.1-21.2s7.4-17.5 10.9-24.7c3.5-7.3 6.4-13.8 6.4-14.5 0-1.3 4-7.5 7-11.1 4-4.9 5.3-5.8 7.3-5.5 1.9.3 2.2.8 1.9 4-.3 2.8.3 4.6 2.3 7.3 1.5 1.9 3.3 3.5 4.1 3.5 3 0 4.5-7.8 1.7-8.8q-1.2-.2-1.3 2.2c0 3.1-1.5 3.4-3 .6-.9-1.8-.5-9 .6-9l4.3 1.6c5.2 2.1 9.5 1.6 9.9-1.2.3-2.3-2.8-4.9-7.2-6-2.5-.6-2.6-.9-2-4.9q.6-4.2-.6-5c-1.5-.9-6.6 3.9-9 8.6q-2.6 5-6.1 4.9c-1.7 0-.9-2.1 6.5-18.3 8.5-18.5 18.9-41.9 21.7-49.1a207 207 0 0 1 17.4-33.8c2.5-3.3 4.5-7 4.5-8.3q0-2.3 3.5-4.5c4.8-2.9 5.4-5.9 4.1-18.5-.4-4.4-1.5-9.1-2.3-10.3-1.3-2.1-1.3-2.6.3-4.3 1.5-1.6 1.6-2.4.6-3.9q-1.2-2-.2-4.5c1.3-3.4 1.3-3.5-.5-3.5q-1.5.1-1.5-3.4c0-6.8-4.3-6.6-5.6.2-.5 2.7-1 3.1-2.9 2.6-3-.8-4 1.1-2.5 4.7 1.1 2.6 1 3.2-.5 4.3-2.4 1.7-1.5 4.8 1.9 6.4l2.8 1.4-2.4 2.6a35 35 0 0 0-7.9 14.8c-4 12.9-14.3 31.4-17.3 31.4-1.5 0-1.7.5-1.2 3.4s-.6 6.3-7 20.8L434.5 210a1919 1919 0 0 1-25 56.5L399.3 289a1738 1738 0 0 1-26.3 57.3c-.4.5-1.9-.6-3.4-2.4-2.7-3.1-2.8-4.6-.5-9.4a1881 1881 0 0 0 44-123.5c1.7-5.5 3.2-8.5 6.1-11.4l3.8-4v3.5c0 5.4 4.7 8.8 7.8 5.7.7-.7 1.2-2.4 1.2-3.9s.6-2.9 1.4-3.2 2.2-1.8 3.2-3.2c1.3-2.1 1.5-3.1.6-5q-1.2-2.3-2.6-2.5-1.4-.1-1.8-3.2-.8-7-7.4-.3-3.3 3.6-3.4 6.4c0 2.6-2.4 6-3.5 4.9-1-1 5.4-23.5 14.4-50.7l7.9-24.1a338 338 0 0 1 12.3-33.5 61 61 0 0 0 5.9-19.3c0-3.3-.5-4.5-3.1-6.5-3.1-2.4-3.1-2.5-1.4-5.1q1.8-2.8 3.7-2c3.6 1.1 8.8-.5 10-3.2 1.1-2.2.9-2.8-1.7-4.8l-2.8-2.3 2.2-3c2.7-3.6 2.4-6.7-.7-7.1-1.7-.3-2.2-1-2.2-3.1 0-2.9-1.6-5.1-3.6-5.1-.7 0-2.7 1.5-4.5 3.2m-62.6 8.5-1.8 2.7-.3-2.8c-.2-1.7.4-3.6 1.5-4.8l1.8-2 .3 2c.2 1.2-.5 3.3-1.5 4.9m57.7 1q.1 1.9-1.5.3-1.3-1.2-.9-2.1c.8-1.3 2.4-.1 2.4 1.8m-47.2 0c-.3 1.8-6.8 6.7-7.6 5.8-.7-.6 5.8-7.5 7.1-7.5q.8.2.5 1.7m57.7 3.3c-1 1.1-2.5 2-3.3 2q-1.4 0 .9-2c3.1-2.5 4.7-2.6 2.4 0M383 44.2c0 1.5-1.9.8-2.9-1.1-1.4-2.5 0-3.7 1.6-1.5q1.2 1.7 1.3 2.6m16.3 5.3c.3 1.3-2.9 1.9-5.1 1-1.5-.6-1.5-.8.3-1.5 2.4-1.1 4.5-.8 4.8.5m63 .2c-.7.2-1.9.2-2.5 0q-1-.5 1.2-.5c2.2 0 1.9.2 1.3.5M331 51q0 .9-.4 1-.5-.1-1.1-1-.4-1 .4-1 1 0 1.1 1m7.1 4.3c-1.6 1.6-2 .5-.8-2.3q1.1-3.2 1.4-.6c.3 1 0 2.3-.6 2.9m-102.3 1.9a5 5 0 0 1 1.2 3.2c-.1 2-.1 2-2-.3-2.9-3.4-2.2-5.9.8-2.9m14.9 2q-.5 1.1-.6-.6t.5-1.3c.3.3.4 1.2.1 1.9M326 59q-.2.9-1.9 1c-1.1 0-2.3-.5-2.6-1q-.4-1 1.9-1c2.3 0 2.6.4 2.6 1m-30 2.5q-1.2 1.3-2.3 1.5-.7-.2.8-2c2.1-2.3 3.5-1.9 1.5.5m147.2.7q-1 1-1.7.6-.5-.6.1-2.2.7-1.8 1.7-.7 1.2 1-.1 2.3M283.5 62q0 1.5-2.5 1.2c-3.1-.5-3.4-.8-2.5-2.2 1-1.6 5-.8 5 1m52.6 2c-1.3 1.1-2.8 2-3.5 2q-.8-.3 1.3-2c1.3-1.1 2.8-2 3.5-2q.8.3-1.3 2m120.1 2.8c.6 2.3-1.7 8.2-3.2 8.2-1.4 0-1.3-4.3.2-5.8q1.6-1.3-.2-2.2c-1.3-.9-1.3-1.1 0-1.9q2.4-1.8 3.2 1.7M233.5 66c-.3.5-1.3 1-2.1 1s-1.4-.5-1.4-1q.2-1 2.1-1 1.7 0 1.4 1m10 3q0 1.4-1.8 1.2c-1-.2-2.5.2-3.3.9q-2.6 2-.3-2.2c1.2-2.3 5.4-2.2 5.4.1m142.3 1.3q.3 2.6-.9 2.7c-.7 0-2.7 1.4-4.5 3.1-3 2.9-3.2 3-3.8 1.1-.7-2 .7-6.6 2.5-8.9.6-.6 2.2-1.1 3.7-1 2.1.2 2.8.8 3 3m-246.8.8c0 1.7-.4 2.8-1 2.4s-1-1.7-1-3.1c0-1.3.5-2.4 1-2.4s1 1.4 1 3.1m10 .2c0 2.5-2.6 6.7-4.1 6.7s-1.1-4.3.7-6.8q3.2-4.2 3.4.1m274-.4c0 1.1-.4 2.3-1 2.6s-1-.5-1-1.9.5-2.6 1-2.6 1 .9 1 1.9m-212 3c.5 1.7.7 3.1.5 3.1-1.1 0-3.6-5-3-6 .9-1.5 1.4-.9 2.5 2.9m41 1.3c2 4.3 2.7 11.3 1.3 12.1q-1 .4-2.8-.3c-1.8-.7-1.9-.8-.2-1.5 2.6-1.1 2.2-4.5-.5-4.5-2.2-.1-2.2-.1-.5-1.4 1.6-1.2 1.6-1.5.2-2.9-1.7-1.8-2-5.7-.5-5.7.6 0 2 1.9 3 4.2m141.1 1.1c.8 3 .3 3.7-2.5 3.7q-2.2.1-2.1-2.3c.3-5.2 3.3-6.1 4.6-1.4M96 83.3c0 3.6-1.8.5-2.4-4.3l-.7-4.5 1.6 3.4c.8 1.8 1.5 4.3 1.5 5.4m-36.4-2.8c1.8 4.3 1.8 5.5-.1 5.5-1.8 0-3.5-3.1-3.5-6.4 0-3.7 1.8-3.2 3.6.9m6.9.5c.3 1.1.3 3-.1 4.2l-.8 2.3-.7-2.5c-1-3.7-1-6 0-6q1 .2 1.6 2m153.6 1.3q-1.2 1.2-1.1-.4c0-2 1.3-3.4 1.8-1.9q.3 1.2-.7 2.3m196.7-1.5q.2 1.1-1.2 1.2-1.5-.1-1.6-1.6c0-1.7 2.2-1.4 2.8.4M242 82.5q-1.2 1.3-2.3 1.5-.7-.2.8-2c2.1-2.3 3.5-1.9 1.5.5m-140.3 1.7q-1.1 3.5-1.5 1.5c-.5-2.3.4-4.7 1.7-4.7q.9.2-.2 3.2m240.2-.6c1.2 1.5 2.1 4.1 2.1 5.8 0 3.5-2.4 7.6-3.6 6.3q-.5-.8.4-1.9c1.9-1.9 1.4-4.6-1.3-6.4-1.4-.9-2.5-2.2-2.5-2.8q-.2-1-2-1.3-1.8-.1-2 .8t-1.8.9c-1.6.1-2.3.5-3 1.2-1.7 1.7-2.8.2-1.2-1.7.7-.8 2.3-1.5 3.6-1.5 1.2 0 2.6-.5 2.9-1 1.3-2 6.3-1.1 8.4 1.6M391 83q-.1.9-1.6 1-1.3-.1-.9-1 .6-1 1.6-1 .8 0 .9 1m35 .5q-1.2 1.4-1.9 1-.4-.6.9-1.5 3.1-2 1 .5m23-.1q0 .6-1 1.1-.9.4-1-.4.1-1 1-1.1 1 0 1 .4M88 89.9c0 2.1-1.6.2-2.4-2.9q-1.2-3.5.8-.6a7 7 0 0 1 1.6 3.5m154.7-2.4c-2.3 2.2-3.3 1.8-1.2-.5q1.7-1.8 2.3-1.6.2.6-1.1 2.1m91.8-.5q.4.9-.4 1-1-.1-1.1-1 0-1 .4-1t1.1 1m43.8 2.7c-.3 1.8-.9 3.3-1.4 3.3s-.6-1.2-.3-2.8c1.3-5.3 2.5-5.7 1.7-.5m-226.7-.6c1.3 1.4 1.9 3.8 2.1 8.2.1 3.4.3 7.1.5 8.1s-.3 2.1-1.1 2.4q-1.4.5-.8-1.1.4-1.5-.4-2.3c-.6-.3-.8-1.7-.5-2.9.3-1.3.1-2.7-.4-3-.6-.4-.8-1.6-.4-2.7q.8-2.3-.9-1.5-1.6.7-1-1.4c.3-1 .1-1.9-.3-1.9s-1.5-.9-2.2-2c-1.1-1.8-1-2 1.1-2 1.3 0 3.2.9 4.3 2.1M391 90.3c0 2.9-1.5 5.1-2.9 4.3q-1.2-.7.3-2.8c.8-1.1 1.2-2.7.9-3.6q-.6-1.5.5-.8c.7.4 1.2 1.7 1.2 2.9m-331.8 2c-2.5 1.2-2.7 1.1-3.7-2.1l-.7-2.3 3.4 1.7c3.2 1.7 3.2 1.7 1 2.7M447 90.1q0 .9-1 .4t-1-1.6q.1-.9 1-.4a2 2 0 0 1 1 1.6m-394.7.8c.3 1.1.2 2.2-.1 2.5-.8.9-3.2-1.4-3.2-3 0-2.1 2.7-1.7 3.3.5m157.8 1.5c-1.9 2-2.1 2.8-1.2 6.5.9 4.2-.2 6.8-1.3 2.8-1.4-5.3.2-11.7 3-11.7 1.5 0 1.4.3-.5 2.4m33.3 0q-.6 1.5-1.5 1.6c-.9.1-.4-.9.3-2 1.4-2.2 2.1-2 1.2.4M132.5 92q.4.9-.9 1-1.5-.1-1.6-1 0-1 .9-1t1.6 1M298 95.4q-.1.7-1.5-.4c-1.4-1.1-1.2-1.7-.9-2.2.7-1 2.4.9 2.4 2.6M86.8 96.6c-1 1-2.8-.6-2.8-2.4 0-1.5.1-1.5 1.7.1q1.5 1.5 1.1 2.3m138.7-1.2c2.4 3.6 3 12.6 1.2 15.1-1.5 2-1.5 2-2.1-.5-.3-1.4-.8-5.1-1.1-8.3q-.7-5.9-2.1-5.7c-1.5 0-1.9-1.2-.7-2.3 1.3-1.4 3.3-.6 4.8 1.7m212.5-.9q-1.2 1.3-2.1 1.5c-.9.2-.6-.7-.3-1.5q.7-1.4 2.1-1.5 1.9-.2.3 1.5m-331.9 6.1c2.1 6 2.4 11.8.7 11.1-.7-.2-1.2-1.4-1-2.5a7 7 0 0 0-1.1-4.3c-1.5-2-1.5-2-4.1.8-2.1 2.2-2.6 2.4-2.6 1q0-1.5.9-1.7c1.2 0 4.3-6.1 3.5-6.9q-.6-.4-1.5 1.2c-1.4 2.4-3.2 2.2-2.4-.3q.6-1.8-.4-2c-1.8 0-1.2-1.8.7-2.2q5-1.4 7.3 5.8M379 94.4q0 .6-1 1.1-.9.4-1-.4.1-1 1-1.1 1 0 1 .4m66 .6q0 .9-1 1a1 1 0 0 1-1-1q.1-1 1-1t1 1M70.6 99.5c5.3 5.5 5.8 6.4 7.8 14.3A216 216 0 0 0 93 149.5c.9 2.4.8 2.5-1.1 1.5-1.1-.7-2.7-.9-3.4-.6-2 .7-2.7-.9-1-2.4s1-3.6-1.7-4.3q-1.8-.6-1.3-1.6c.3-.6-.3-2.4-1.4-4a10 10 0 0 1-2.1-4.5 9 9 0 0 0-.9-3.4c-.5-.9-1.4-3.7-2.1-6.2-2.1-8.1-3.7-10.1-9.5-12.3q-.8-.5-.4-1.1c.3-.4 1.8-.2 3.3.3 2.9 1.1 3.5.1 1.1-1.9a3 3 0 0 1-1-3.1q.9-2-1.9-2.5c-1.4-.3-2.8-1.5-3.1-2.5S65.1 99 64.2 99s-2.4-.5-3.2-1q-1.9-.9 1-1.9c3.8-1.5 3.9-1.4 8.6 3.4m68.4-4.1q0 .6-1 1.1-.9.4-1-.4.1-1 1-1.1 1 0 1 .4m218.5 3.7c1.1 1.7-.1 2.1-1.5.4q-1.2-1.4-.2-1.5 1 .1 1.7 1.1m30.8-.5c1.1 1.1-.3 2.4-1.8 1.8q-1.3-.7-.9-1.5c.6-1.1 1.8-1.2 2.7-.3m-248.5 3.9c0 3-.2 3.4-1.4 2.4q-2.6-2.2-.2-4.7c2.4-2.5 1.6-1.7 1.6 2.3m9.2-2.7c0 1.3-5.2 6.4-5.9 5.7q-.3-.8 1.7-2.5c1.2-1 2.2-2.3 2.2-2.9q.1-1 1-1.1 1 0 1 .8m104.7 1.8c-.9.9-2.8-.6-2.1-1.8q.6-1 1.7.1 1 1 .4 1.7m124 .1c-1.5 1.6-1.7 1.6-1.7.1q.1-1.5 1.3-2.1 3-.9.4 2m-283.6 5.5q-3.8 3.7-.4-1.9c.9-1.4 1.9-2.1 2.1-1.5s-.6 2.1-1.7 3.4m391.5-2.1q.4.9-1 1.5c-1.7.7-5.9-1.3-5.2-2.5.7-1 5.4-.2 6.2 1M150 105q-.1.9-1.1 1-.8-.1-.4-1 .6-1 1.1-1 .3 0 .4 1m237.1.5c-.1 1.5-2.4 1.2-2.9-.3q-.4-1.4 1.2-1t1.7 1.3m53.9.9q-.2 1.3-1.7 1.1l-2.3-.4c-.7-.2 2.3-2.1 3.3-2.1q.6.1.7 1.4M104 108q-.2 1-1.5 1.6t-1.5 1.5q-.3 1.2-2 2.9-4 4 .6-3c2.6-3.9 4.4-5.1 4.4-3m43 1.9c-1 2-3 2.9-3 1.4 0-1 3.3-4.4 3.7-3.9.3.2 0 1.4-.7 2.5m104-.9q0 .9-.4 1-.6-.1-1.1-1-.4-1 .4-1 1 0 1.1 1m18.7 1.2q-.5 1.1-.6-.6t.5-1.3c.3.3.4 1.2.1 1.9M97 109.5c0 .2-.9 1.9-2 3.7q-2 3.3-2 1.5c0-2 2.1-5.7 3.2-5.7q.8 0 .8.5m136.5 5.1a25 25 0 0 1-.8 6.4c-1.2 2.6 1.7 5.4 5.6 5.4 4.1 0 3.9-.4 5.7 12.1l1.5 10.2c.5 3 .3 3.3-1.8 3.3-2.7 0-5.1 2.3-6.2 5.8-.9 3.1-3 2.2-3.1-1.4-.1-4.7-2.4-20.4-4-27.1a26 26 0 0 1-.3-15.3c1.4-6.5 3.4-6.1 3.4.6m141.4.2-1 2.9q0 .3-.6.2c-.8 0-.7-3.3.2-5.7q.5-1.2 1.5-.7t-.1 3.3M150 113q0 .9-1 1a1 1 0 0 1-1-1q.1-1 1-1t1 1m288.5-.1q.4.9-.4 1.5-.8.4-1.5-.9c-.6-1.6.9-2.1 1.9-.6m48.3.3c2.3 2.3 1.4 3.8-2 3.1-4.3-.8-4.7-1.2-2.4-2.9s2.9-1.7 4.4-.2m-380.8.5c0 1-3.2 4.3-4.1 4.3q-.7-.2.3-2.5c1-2.2 3.8-3.6 3.8-1.8m139 .9q-.1 1.3-1 .9-1-.7-.5-1.6 1.4-2 1.5.7m141-.1q0 1.3-1.5.9-1.3-.7-.9-1.5c.8-1.4 2.4-1 2.4.6m104 7.2c0 .7-1.3 1.9-3 2.8-2.7 1.4-4.4.5-1.9-1 .5-.4 1.5-1.9 2-3.3q1-3 1.9-1.2c.6.8 1 2.1 1 2.7M188.5 120q.4 1-1 1.6c-1.9.8-3 0-2-1.5.8-1.4 2.2-1.4 3-.1m242.1 2.3q0 2.5-1.8 1.9-3.2-.6-.6-3 2.7-2.7 2.4 1.1M112 122q0 .9-.4 1-.6-.1-1.1-1-.4-1 .4-1 1 0 1.1 1m145-.2c0 1.3-1.2 2.2-2.2 1.6s-.1-2.4 1.3-2.4q.8.1.9.8m220.8 1.2c-1.1 1.8-2.8 2.7-2.8 1.6 0-.6 3-3.6 3.6-3.6q.3.2-.8 2m-325.8.6q-.1 1.3-1 .9-1-.7-.5-1.6 1.4-2 1.5.7m221.7.6q-.5 1.1-.6-.6t.5-1.3c.3.3.4 1.2.1 1.9m-124.7-.8q0 .5-1 1.1-.9.4-1-.4.1-1 1-1.1 1 0 1 .4m136 1.1q0 1.3-1 1.5-.9-.2-1-1.5c-.1-1.3.5-1.5 1-1.5q1 .1 1 1.5m50 1.1q-.1 1.3-1 .9-1-.7-.5-1.6 1.4-2 1.5.7m55 3.3c0 3.2-4.3 9.1-5.6 7.8-.4-.4-.2-1.9.6-3.5l2.3-5c1.4-3.1 2.7-2.8 2.7.7m-347.1-.3c1 .9-1.4 2.4-3.9 2.4q-4.8-.2-3.5-3.1c.6-.9 6.2-.4 7.4.7m115.1 1.6v3.2l-2.1-2.1c-2.2-2.2-1.9-4.3.7-4.3q1.4 0 1.4 3.2m114.1 1.1q-1.1 1.2-1.1-.9c0-2.7 1.4-4.1 1.8-1.9.2.9-.1 2.2-.7 2.8m-84.4-1.1q-.5 1.1-.6-.6t.5-1.3q.5.6.1 1.9m-37.7-.6q-.1.6-1.5 2-1.6 2-1.5.1c0-.7.3-1.7.7-2 .8-.8 2.3-.9 2.3-.1m179 .4q0 .9-1 1a1 1 0 0 1-1-1q.1-1 1-1t1 1m5 .6c0 1.5-2.2 4.4-3.1 3.9-1.1-.7.7-4.5 2.1-4.5q1 0 1 .6m-355.8 2.6q-1.1 1-1.2.2c0-1.4 1.2-2.6 1.9-1.9q.3.6-.7 1.7m209.4 6.6q-1.7 1.5-.7-3.8l.6-3.5.3 3.3c.2 1.9.1 3.6-.2 4m194.4-6.4q0 .6-1 1.1-.9.4-1-.4.1-1 1-1.1 1 0 1 .4m-314 3.2q0 1.3-1 .9c-.5-.3-1-1.3-1-2.1s.5-1.2 1-.9 1 1.3 1 2.1m203.3.6c-.6 3.6-1 4.4-1.8 3.6s.6-6.8 1.6-6.8c.5 0 .6 1.5.2 3.2m54.7-1.3c0 1.2-2 2.5-2.7 1.8s.6-2.7 1.8-2.7q.8 0 .9.9m-361 3.2 3.5 1.8h-4c-4.1 0-7.5-1.7-7.5-3.8q.1-2 8 2m411.5-.7c-1.9 2.9-4.2 3.9-5.1 2.4q-.6-1.1.3-1.5c.6-.2 1.9-1 2.9-1.8q4.4-3.2 1.9.9m-217.5.5c0 2.2-1.6 3.6-2.4 2.2-.8-1.2.3-4.1 1.5-4.1q.8.2.9 1.9m172 .5a3 3 0 0 1-.9 2.1c-1.2.7-2.4-1.2-1.6-2.5.9-1.5 2.5-1.2 2.5.4m-260 3.8q3.2 7 1.1 6.8c-.5 0-1.2-1.8-1.6-4s-1.1-4.2-1.6-4.6q-.8-.5-.9-1.5.1-2.8 3 3.3M82 141q-.1.9-1.6 1-1.3-.1-.9-1 .6-1 1.6-1 .8 0 .9 1m22.7 2c.6 1.2 1.7 2.6 2.4 3.1q1.2.8.6 1.5c-1.1 1.1-5.8-1.8-6.7-4.1-1.6-4.1 1.6-4.6 3.7-.5m184.9 2q3.1 0-1.1 4l-2.5 2.3v-2.5c0-3.3 1.2-6.7 1.8-5q.4 1.1 1.8 1.2m81.4-1.6q0 .6-1 1.1-.9.4-1-.4.1-1 1-1.1 1 0 1 .4m-111 4.2c0 1.6-1.6 1.9-2.5.4-.8-1.3.4-3.2 1.6-2.5q.8.8.9 2.1m218.4.5c-.7 1.1-3.4 1.2-3.4.1q.2-2.2 2.6-1.5 1.2.6.8 1.4M73.5 148q-.6.9-1.6 1-.8-.1-.9-1 .1-1 1.6-1 1.3 0 .9 1m87.9.5q-.7 1.3-1.5.9c-1.1-.6-.2-2.4 1.1-2.4q.8.1.4 1.5m209.6-1.1q0 .6-1 1.1-.9.4-1-.4.1-1 1-1.1 1 0 1 .4m98.2.8q-1.2 1.3-2.4 0-1.5-1.3 1.2-1.2c2.7.1 2.1.3 1.2 1.2m-344.5 4.4c-.9.9-2.8-.6-2.1-1.8q.6-1 1.7.1 1 1 .4 1.7m150.4.7c-1.6 1.6-2.6 0-1-1.9q1.4-1.6 1.7-.4c.2.6-.1 1.7-.7 2.3M111 152c0 1-6.8 2.6-7.6 1.7q-.6-.6.1-1.6c.8-1.4 7.5-1.5 7.5-.1m59 .9a7 7 0 0 1-2 2.6c-1.4.9-1.2-1.9.2-3.3 1.9-1.9 3-1.4 1.8.7m301-.9q-.1.9-1.6 1-1.3-.1-.9-1 .6-1 1.6-1 .8 0 .9 1m-307 .8c0 1.3-1.2 2.2-2.2 1.6s-.1-2.4 1.3-2.4q.8.1.9.8m132 .2q-.1.9-1.1 1-.8-.1-.4-1 .6-1 1.1-1 .4 0 .4 1m-199.5 3q3.5 7.2-1.6 2.3c-1.7-1.7-2.8-3.6-2.5-4.2q1.8-2.7 4.1 1.9m164.8 0c.7 2.6-1.1 3.7-2 1.3-.4-1-1.1-2.1-1.7-2.5q-.9-.8 1-.8 2.1.1 2.7 2m-147.6.7c.4 1.1-3.2 2.5-4.1 1.5-.8-.8 1.5-3.3 2.7-2.9q1 .4 1.4 1.4m349.8 2.3c-4 4.1-5.5 4.9-5.5 2.9 0-1.7 5.7-6.9 7.6-6.9 1.4 0 .9 1-2.1 4m-356.5-.6c1.7 3.2 4.1 4.1 5.6 2.2 1.6-2.3 2.3-2 4 1.9 1.9 4.7 1.8 5.2-1.4 5.8a6 6 0 0 0-4 3.1c-1.3 3-3 3.4-3.8.8l-3-7.3a34 34 0 0 1-2.4-7.3c0-2.5 3.5-1.9 5 .8m60.2 3.7c1.2.8.2 2.9-1.3 2.9q-.9 0-.4-1c.3-.5.1-1.9-.5-3.1-.6-1.1-.8-2.8-.4-3.7q.8-2 1.2 1.3c.2 1.6.8 3.3 1.4 3.6m9.6-2.8q.4 1.8-1.2 1.1c-1.9-.7-2.2-3.8-.3-3.2q1 .6 1.5 2.1m64.5-.8q-.6 1.5-1 1.1-.4-.5.2-1.5c.9-1.6 1.5-1.3.8.4m27.5 1.7c-.7 1.9-2.1 1.2-2.5-1.1q-.6-2.9 1.2-1.1c.9.7 1.4 1.7 1.3 2.2m99.4 0q-1.1 1-1.2.2c0-1.4 1.2-2.6 1.9-1.9q.2.6-.7 1.7M470 160q-.1.9-1.5 1c-1.4.1-1.5-.5-1.5-1q.1-1 1.5-1c1.4 0 1.5.4 1.5 1m-187.6 29.7c.3 15.9.8 34.9 1.1 42.3 1.2 33.7 1.6 67.4.7 66-1.4-2.2-5.9-33-7.7-53a1119 1119 0 0 0-8.2-66.2l-1.7-10.8 2.8-2.9c2.3-2.4 3.4-2.8 6.1-2.4 1.9.3 3.5 0 3.9-.6q.8-1 1.5-1.1c.5 0 1.1 12.9 1.5 28.7m-104.7-24.5q-.5 1-.5-1.2c0-2.2.2-1.9.5-1.3.2.7.2 1.9 0 2.5m84.9-.6q-.5 1.5-.6 2.5c-.1 1-.9.9-2 .9-2.3 0-2.4-.3-.8-3 1.5-2.4 4.3-2.7 3.4-.4M288 166c0 1.6-.4 3-.9 3s-.8-1.3-.7-3c.1-3.9 1.6-3.9 1.6 0m175-1-5.4 4.1c-2.6 2.1-2.8 2.1-2.4.3.2-1 1.4-2.4 2.6-3s2.9-1.7 3.5-2.3 1.8-1.1 2.7-1.1q1.6 0-1 2m-95.8 1.2q-1.1 1-1.2.2c0-1.4 1.2-2.6 1.9-1.9q.3.6-.7 1.7m8.6 0c-.2.6-1.4 1.2-2.6 1.3s-3.6 1.2-5.2 2.4-3 1.7-3 1.2c0-1.5 7.1-6.1 9.3-6.1q1.7 0 1.5 1.2m90.7.8c-.3.5-1.1 1-1.6 1q-.9-.1-.4-1a2 2 0 0 1 1.6-1q.9 0 .4 1M133 168.5q0 1.4-1 1.5-.9-.1-1-1.5c-.1-1.4.5-1.5 1-1.5q1 .1 1 1.5m36 .5q0 1.8.8 2c1.3 0 3.3 5.9 3 8.7-.3 2.5-.5 2.3-2.1-2.2l-2.8-6.7q-1.7-3.6.1-3.8 1 .2 1 2m31 1.8q.1 2.2-1 .2c-1.3-2-1.3-3.3 0-2.5.6.3 1 1.4 1 2.3m260.6 2c-.8 1-1.3 2.7-1 3.7.4 1.5-1 3.2-5.3 6.9-6.9 5.8-7.8 4.7-3.3-4.2 2.3-4.6 4-6.5 6.8-7.9 4-1.9 5.4-1.2 2.8 1.5m-280.6-2c0 1.4-2.3 3.2-4.2 3.2-2.3 0-2.3-1.6 0-2.9 2.1-1.3 4.2-1.4 4.2-.3m134 .8q0 1.4-1.2 1.2c-1.8-.6-2.1-2.8-.4-2.8q1.5.1 1.6 1.6m-207 6.1c8.4 17.3 18.3 36.6 22.4 43.8 2.5 4.4 4.6 8.7 4.6 9.5s1.4 4.2 3 7.3c1.7 3.2 3 6.4 3 7.1s.9 2.5 2 3.9c2.2 2.8 2.5 3.7 1 3.7q-.9-.1-1-1.5.1-2.9-3.2.2-3.3 2.9-.3 5.3c1.6 1.4 2.1 5.5.5 4.5-1.9-1.2-4.4-8-4.3-11.8.2-3.1-.2-4-1.7-4.4q-3.2-.8-1.1-2.9c.5-.5 1.2-2.4 1.6-4.2.5-2.6.3-3.2-.9-3.2-1.8 0-3.9-4.3-3.8-7.4q0-1.7-.5-1.2c-.9.9-3.4-1.5-2.7-2.6.3-.5.1-1.5-.5-2.2s-.9-2.1-.5-3q.6-1.6-1.1-1.6-1.5-.2-2.2-2-.6-1.8-1.4-2t-.9-1.5c0-.9-1.1-3.3-2.5-5.5s-2.5-4.4-2.5-4.9c0-1-6.5-12-8-13.5-.6-.6-1-1.8-1-2.8s-.6-2.1-1.4-2.5c-2.2-1.3-4-8.1-2.6-9.8q1.2-1.4 2-1.5c.4 0 2.2 3 4 6.7m8.5-3.6q-.7 2.3-1.6.8-.6-1.4.3-2.6c1.5-1.8 2.1-.9 1.3 1.8M248 172q0 .9-1 1a1 1 0 0 1-1-1q.1-1 1-1t1 1m-118.5 1q.4.9-.4 1-1-.1-1.1-1 0-1 .4-1 .6 0 1.1 1m245.3 1.2q-.1 2.3-3 2.3c-3.4.1-3.4-.2-.5-2.6s3.9-2.4 3.5.3m89.2-.2q0 .9-1 1a1 1 0 0 1-1-1q.1-1 1-1t1 1m-50.4 5.2q-.3 4.4-2 4.6c-1.6.4-2.2-.9-.9-2.2.4-.3.8-1.4.9-2.2.8-5.5 2.5-5.7 2-.2M160 176.3c0 .2-1.2 1.4-2.6 2.8l-2.6 2.4 1.3-2.8c.7-1.5 1.8-2.7 2.6-2.7q1.2 0 1.3.3m84.4.3c1.9.7 2.1 3.4.3 3.4-1.4 0-3.7-2-3.7-3.2q.1-1.5 3.4-.2m43.3 7.1c-.2 1.6-.4.3-.4-2.7s.2-4.3.4-2.8c.2 1.6.2 4 0 5.5m-106.1-5.8c-.8 1.2-4.6 2.1-4.6 1.1s1.8-1.8 3.8-1.9q1.1 0 .8.8m185.4 1q-.1.8-1.5 1.5c-1.5.5-2-.5-.8-1.7.9-1 2.3-.9 2.3.2m-246 .9c0 1-2.2 3.2-3.2 3.2q-.7-.2.4-2c1.3-2 2.8-2.7 2.8-1.2m4.4 1.8c.8 2 .8 2.4-.1 2.4-1.7 0-3.5-1.9-2.9-2.9 1-1.6 2.3-1.4 3 .5m248.2-.5c.3.6.1 1.6-.5 2.2q-1.2 1.3-2.1-.2c-.7-1.2-1.4-.9-4.1 1.3q-3.4 3-3.8 1.5c-1-3.1 8.7-7.6 10.5-4.8m-124.2 3.6c.6 3 1.5 9.8 4.6 32.3l3.9 26.5c2.4 14.6 4.5 35.3 4 38-.3 1.1-1.5-3.6-2.8-10.5s-3.8-19-5.7-27c-1.8-8-4-18.1-4.8-22.5l-4.1-21.5c-1.5-7.4-2.7-14.2-2.8-15-.2-1.2 1.6-2 6.5-2.9q.6.2 1.2 2.6m-64.6-.1c-1.2 1.2-2.4 1.4-4.5.9l-2.8-.8 3-.7c5.4-1.3 6.1-1.2 4.3.6m274.7-.7q.4.9-.5 1.6-.9.4-1-.9 0-2.7 1.5-.7m-321.7 3.4q-1.1 2.1-1.6.9c-.6-1.9.6-4.4 1.8-3.7q1 .6-.2 2.8m38-.6q1.2 2.7.2 3.7t-1-1.1c0-1.2-.4-2.5-1-2.8-1.2-.7-1.3-2.5-.2-2.5.4 0 1.3 1.2 2 2.7m-51.5.8c-.3 1.3-5.3 2-5.3.7q.1-2.4 3.5-2 1.8.3 1.8 1.3m9.3 7.6c2.2 4.1 6.8 12.2 10.3 18.1 3.4 5.9 7.9 14.5 10 19.1a571 571 0 0 0 12.9 23.8c4.9 8.5 10.2 17.8 11.6 20.5s3.7 6.4 5 8.1c1.3 1.8 2.9 5.7 3.6 8.5 1.4 5.9 10.3 25.7 16.3 36 2.1 3.7 5.6 11.3 7.8 17s4.7 11.7 5.5 13.5c1.9 4.2 1.8 6-.6 6.8-2.8.9-3.5.3-7.2-6.8-4.9-9-12.2-21.7-19.1-33.2a484 484 0 0 1-19.5-35.5 811 811 0 0 0-16.7-30.5 556 556 0 0 1-14.2-26l-14.1-27.8-8.1-15.7h3.9c2.9 0 4.2-.5 5-2.1 1.7-3.1 3.1-1.9 7.6 6.2m231.1-4.9q-2.8 2-2.7 4.9c0 1.6-.4 2.9-1 2.9-1.3 0-1.3-1.2 0-4.5 1.1-2.8 5.1-6.7 6-5.8.3.2-.7 1.4-2.3 2.5m85.3 1.9a23 23 0 0 1-5.5 3.9c-.5-.1 1.2-2.1 3.9-4.5 2.8-2.5 5.2-4.2 5.5-3.9s-1.4 2.4-3.9 4.5m-309-2.2c0 1.2-2 2.5-2.7 1.8s.6-2.7 1.8-2.7q.8 0 .9.9m47.7.8c.4 1.2-5.4 2.9-6.5 1.8-1-.9 2.9-3.6 4.7-3.3q1.4.4 1.8 1.5m225.8 1.2c-.9 1.6-2.5.3-1.8-1.5q.6-1.5 1.5-.6c.9.9.7 1.5.3 2.1m43.5-.8q-.1.8-1.5.9c-1.5 0-2-1.2-.9-2.3.8-.8 2.4.1 2.4 1.4m-25 1.3a3 3 0 0 1-1.1 2.2c-1.4.8-3.3-1.1-2.5-2.5 1-1.6 3.6-1.3 3.6.3m-289.6 2.7q-1.8 2-2.2.9-.3-1.2.9-2.1c2.5-1.6 3.2-.9 1.3 1.2m113.3.1q-.5 1.1-.6-.6t.5-1.3q.5.7.1 1.9M192 198c.9 1.7.7 2.2-1.3 2.9-3.5 1.4-6.2.7-6.2-1.5q.1-1.8 2.5-2.5c3.8-1.1 3.9-1 5 1.1m263-1q0 .9-1 1a1 1 0 0 1-1-1q.1-1 1-1t1 1m-186.6 12q.8 7.7-.3 6.5c-.6-.6-1.3-5.1-1.6-10-.6-10.5.8-7.9 1.9 3.5m20.1-10.1q.4.9-.5 1.6-.9.4-1-.9 0-2.7 1.5-.7m159.5-.1c0 .4-1.8 2.6-4 4.7-4.7 4.6-5.5 2.6-.8-2.2q4.7-4.8 4.8-2.5m-36 4.3c0 1.4-3 2.3-4 1.3a10 10 0 0 1-1.4-3.1c-.7-2.1-.6-2.2 2.3-.7 1.7.9 3.1 2 3.1 2.5M258 201q0 .9-1 1a1 1 0 0 1-1-1q.1-1 1-1t1 1m111.3.8q-.4 2-3.4 1.9-5-.2-1.1-2.6c2.8-1.7 5.1-1.3 4.5.7m34.7-1.4q0 .6-1 1.1-.9.4-1-.4.1-1 1-1.1 1 0 1 .4m-294 3.2q-.1 1.3-1 .9-1-.7-.5-1.6 1.4-2 1.5.7m294.3 2.9c-.3.8-1.4 1.5-2.4 1.5-2.3 0-2.4-.4-.3-2.4 1.8-1.9 3.6-1.2 2.7.9m42.7-.7a18 18 0 0 1-3.5 4.2c-4 3.9-4.4 5-1.5 4.3 2.2-.6 5.3 1.4 4.4 2.9q-.6.8-2-.3c-1.2-1-1.9-.8-3.7.9q-2.1 2.1-.8 2.2 1.6-.1.1 1.5c-.7.8-.9 2.2-.6 3.1q.9 1.8-1.3 1.1c-2-.5-4.6 1.4-3.5 2.6q.3.5-1.4 0c-2.2-.5-2-2.2.9-8 1.1-2.1 1.9-4.4 1.9-5.3.1-2.8 2.6-6 6.1-7.9 4-2.2 4.9-2.4 4.9-1.3m-257.3 2.4q-.5 1.1-.6-.6t.5-1.3q.5.6.1 1.9m68 2.5q-.5 1.3-.5-1.2 0-2.6.5-1.8c.2.7.2 2.1 0 3m152-1.2c.5 1.6-1.4 3.8-2.6 3.1-1.8-1.2-1.3-4.8.6-4.4q1.5.3 2 1.3m39.3.5q0 .9-1 1a1 1 0 0 1-1-1q.1-1 1-1t1 1m-209 3q0 .9-1 1a1 1 0 0 1-1-1q.1-1 1-1t1 1m127 3.6q-1.3 5.7-2.6 4.1-.5-.7.6-2.2c.7-.8.9-2.2.6-3.1-.7-1.8.1-3.7 1.4-2.9.4.3.4 2.1 0 4.1m34-3.7c0 1.2-2 2.5-2.7 1.8s.6-2.7 1.8-2.7q.8 0 .9.9m-209.7 1.6q-.6 1.4-1 1.1-.4-.5.2-1.5c.9-1.6 1.5-1.3.8.4m67.4 2.2q-.5 1.3-.5-1.2 0-2.6.5-1.8c.2.7.2 2.1 0 3m30.6-1c.3 1.6.3 3.2-.1 3.7-.6 1.1-2-2-2.1-4.7s1.6-2 2.2 1M407 218q-.1 1.8-1.5 2c-1.5 0-2.1-2.1-.8-3.3 1.2-1.3 2.3-.7 2.3 1.3m-287 2.4c0 1.7-1.4 2.9-2.3 2s.3-3.4 1.4-3.4q.8.1.9 1.4m139.7 3.3q-.5 1.3-.5-1.2 0-2.6.5-1.8c.2.7.2 2.1 0 3m138.8-.7c-.3.5-1.1 1-1.6 1q-.9-.1-.4-1a2 2 0 0 1 1.6-1q.9 0 .4 1m-203.8 2.2q-.5 1.1-.6-.6t.5-1.3q.5.6.1 1.9M236 224q0 .9-1 1a1 1 0 0 1-1-1q.1-1 1-1t1 1m52.1 2.3q-1.1 1.2-1.1-.4c0-2 1.3-3.4 1.8-1.9q.3 1.2-.7 2.3M405 224q0 .9-.9 1-1-.1-1.6-1-.4-1 .9-1 1.5 0 1.6 1m-40 3.2q0 2.5-.9.9-1-1.1-2-.7-1 .6-1.1-.3c0-.9 1.5-1.8 3.3-2 .4-.1.7.9.7 2.1m-166.7 1.6q-.6 2-1.9 2.2-2.8.1.3-3.2 2.9-3.3 1.6 1m38.4.4q-.5 1.1-.6-.6t.5-1.3q.5.7.1 1.9M399 229c0 .4 1.1.5 2.5.2 2.8-.5 3 0 1.5 2.8-.8 1.6-1.5 1.8-3.5 1q-2.4-.9-3 0t-1.8 1q-1-.2.6-1.4c2.3-1.8 2.2-3-.3-2.3-2.4.6-2.6-.8-.3-2.1 1.7-1 4.3-.5 4.3.8m-110.3 2.2q-.5 1-.5-1.2c0-2.2.2-1.9.5-1.3.2.7.2 1.9 0 2.5m41.9-.7c-.3.9-1.1 1.3-1.6 1q-1.1-.7.1-2.1c1.4-1.8 2.4-1.1 1.5 1.1m102.4.2c0 1-4.2 5.3-5.2 5.3-1.4 0-.9-1.9 1.2-4 2-2 4-2.6 4-1.3m-232.9 4.6c-1.3 1.3-2.6.3-1.6-1.2q.6-1 1.7-.5 1 .6-.1 1.7m165.3-.8q-.6 1.3-1 1.5-.4-.2-.4-1.5c0-1.3.4-1.5 1-1.5q.8.1.4 1.5m-238.4 1q-1.2 1.4-1.7 1.1c-.7-.7.7-2.6 1.9-2.6q1 0-.2 1.5m307-.7c0 .5-.9 1.7-2 2.7q-3.4 3-1-1.6c1.1-1.9 3-2.6 3-1.1M331 238q-.1.9-1.1 1-.8-.1-.4-1 .6-1 1.1-1 .4 0 .4 1m29.2 2.2q-1 1-1.7.6c-.3-.3-.3-1.3.1-2.2q.7-1.8 1.7-.7 1.2 1-.1 2.3M401 238q0 .9-1 1a1 1 0 0 1-1-1q.1-1 1-1t1 1m27 1.1c0 .6-.5 1.9-1 3-1.3 2.3.2 2.6 2 .4s4-1.8 4 .6c0 1.6-.4 1.9-2 1.4q-2-.6-2.6.9-1.1 2.7-4.2.7c-1.1-.7-1.1-1.5.2-4.5 1.4-3.4 3.6-4.9 3.6-2.5m-226 1.4q0 1.4-1 1.5-.8-.1-.4-1.5.7-1.4 1-1.5.3.1.4 1.5m97 .1q-.1 1.4-1.7 1.2c-2.5-.5-2.8-2.8-.4-2.8q2 0 2.1 1.6m93.7.8c-.3.7 0 1.9.6 2.6q1.4 1.4-1 .5c-3.1-.9-4.8.2-3.1 2.2 1 1.2.9 1.7-.4 2.4-.9.5-2.2 2.5-2.8 4.4s-1.6 3.5-2.2 3.5q-.9-.2-.3-1.8c.4-.9 1.4-4.2 2.3-7.2s2-6.1 2.5-6.8c1.3-1.7 5.1-1.6 4.4.2m-36.7.6q-.1.9-1.1 1-.8-.1-.4-1 .6-1 1.1-1 .4 0 .4 1m43 3.1q0 .8-1 .9-.9-.1-1-1.6.1-1.3 1-.9 1 .6 1 1.6m47.1 1.2q-1.4 1.4-.5-.6.6-1.6 1.2-1.2.4.6-.7 1.8m-242.7 1.9q-.7 2.1 1.4 3.7c1.8 1.5 3.9 7.1 2.6 7.1-2.3 0-7-9.9-6-12.6.9-2.3 2.8-.6 2 1.8m129.6-2.4c0 1.3-1.2 2.2-2.2 1.6s-.1-2.4 1.3-2.4q.8.1.9.8m27-.4q0 .5-1 1.1-.9.4-1-.4.1-1 1-1.1 1 0 1 .4m-61 1.6q0 .9-1 1a1 1 0 0 1-1-1q.1-1 1-1t1 1m57 .5q0 1.3-1 1.5-.9-.2-1-1.5c-.1-1.3.5-1.5 1-1.5q1 .1 1 1.5m73.4 1.1c2.2.9 1 2.3-1.4 1.7q-1.7-.6-1.4-1.4c.6-1.1.8-1.1 2.8-.3m-97 2.5q-.6.8-1.5.3t-.3-1.5q.6-.8 1.5-.3t.3 1.5m-156.4-.7q0 .5-1 1.1-.9.4-1-.4.1-1 1-1.1 1 0 1 .4m221 .6q-.1.9-1.6 1-1.3-.1-.9-1 .6-1 1.6-1 .8 0 .9 1m57.8 1.7c.5 1.8-2.3 1.6-3.9-.3-1.1-1.4-1-1.5 1.1-1.2 1.3.1 2.5.9 2.8 1.5m-31.3 1.3c-1 1.1-2.2 2-2.7 2s-.4-.9.2-2 1.8-2 2.7-2c1.4 0 1.4.2-.2 2m-97.5 1q-.1.9-1.1 1-.8-.1-.4-1 .6-1 1.1-1 .4 0 .4 1m-150.5 2c-1.5 1.7-1.6 2.2-.4 3.6q1.8 2.1-.1 1.2c-2-.6-2.6-4.8-.8-5.9 2.4-1.6 3.1-.9 1.3 1.1m156.5-.5q-.1 1.4-2.1 1.5c-1.8 0-1.9-.2-.9-1.5q1.2-1.4 2.1-1.5c.9-.1.9.7.9 1.5m62.2 1.7c-1.5 1.5-2.6.4-1.8-1.8q.6-2 1.8-.6c1.2 1.4.9 1.5 0 2.4m-241 8.8c2.1 4 3.7 7.8 3.4 8.4q-.4.8-1.4-1.6a11 11 0 0 0-2.1-3.3q-1-.6-1.1-2.5c0-1-1.1-2.8-2.5-4.1-2.5-2.5-3.4-5.4-1.3-4.7.6.2 2.9 3.7 5 7.8m146.8-5.9q0 .8-1 .9-.9-.1-1-1.6.1-1.3 1-.9 1 .6 1 1.6m55-1.1q0 .9-1 1a1 1 0 0 1-1-1q.1-1 1-1t1 1m-145.4 2.7c-1 1-1.9-.5-1-1.8q.8-1.7 1.2 0 .3 1.2-.2 1.8m39.4.3q-.1.9-1.1 1-.8-.1-.4-1 .6-1 1.1-1 .3 0 .4 1m143 1q0 .9-1 1a1 1 0 0 1-1-1q.1-1 1-1t1 1m-38.2 1.2q-.6 1.2-2.4 1.7-2.4.6-.5-1.3c1.6-1.9 3.4-2.1 2.9-.4m6.2.8q-.1 1.9-1.7 2c-.9 0-2.4.7-3.4 1.6q-1.6 1.4-2.3.5c-.4-.5 1-2.1 3.1-3.5 4.5-3.1 4.3-3.1 4.3-.6m63-1q0 .9-1 1a1 1 0 0 1-1-1q.1-1 1-1t1 1m-33.4 5.7c-1 1-1.9-.5-1-1.8q.8-1.7 1.2 0 .3 1.2-.2 1.8m-30.6 1.2c0 1-4.2 2.3-4.9 1.5-.7-.6 2-2.4 3.7-2.4q1 0 1.2.9m-85.5 1q.3 1-1.5 2.1-4 2.2.1 3.3c2.6.7 2.2 4.2-.6 4.2-1.5 0-2-.8-2.2-4-.3-4.9 2.4-8.5 4.2-5.6m137.4 2.3q-1.2 2.1-1.7 1c-.4-1.3 1.7-4.6 2.5-3.8.3.2-.1 1.5-.8 2.8m-81.4-1.2q.4.9-.4 1-1-.1-1.1-1 0-1 .4-1t1.1 1m22 1q.4.9-.4 1-1-.1-1.1-1 0-1 .4-1t1.1 1m36.5.4q0 .5-1 1.1-.9.4-1-.4.1-1 1-1.1 1 0 1 .4m-121.3 4.8q-.5 1.1-.6-.6t.5-1.3q.5.6.1 1.9M350 282q0 .9-1 1a1 1 0 0 1-1-1q.1-1 1-1t1 1m-184.6 8.1 7 12.6c2.5 4.4 4.6 8.4 4.6 8.9s1.6 3.3 3.5 6.3c1.9 2.9 3.5 5.6 3.5 5.9a9 9 0 0 0 2.3 3.2c1.2 1.4 3.3 4.8 4.7 7.5s3.1 5.6 3.8 6.3 2.6 4.3 4.2 7.9c2.2 4.7 2.7 7 2 8.2-.9 1.5-.9 1.5-1-.1 0-.9-.7-2.1-1.7-2.6q-1.5-1-1-2.5c.8-2.1-1.2-3.4-2.4-1.6q-.9 1.6-.9-1 0-2.3-1.5-1.8c-1.7.7-3.2-1.2-1.8-2.2 1.5-.9 2.6-5.1 1.4-5.1q-1-.1-1.6-2.1A73 73 0 0 0 178 320c-1.1-.6-2-2.1-2-3.3a9 9 0 0 0-1.5-4.3 16 16 0 0 1-1.9-4.7 37 37 0 0 0-6.4-12.5 61 61 0 0 1-6.2-13c.1-1.2 3 3 5.4 7.9m102.3-2.9q-.3 1.8-.4-1.7t.4-2.3c.2 1 .2 2.8 0 4M356 284q0 .9-1 1a1 1 0 0 1-1-1q.1-1 1-1t1 1m-103.1 6.1c-1.2 2.1-1.4 2.2-1.7.6-.6-2.8.6-5.3 1.9-4q1.2 1.1-.2 3.4m151.3-.4-1.6 4.6q-.6 1.7-1.6 1.2c-.5-.3-.1-2.4 1.2-5 2.3-4.8 3.7-5.3 2-.8M275 288c0 1.2-2.8 2.5-3.6 1.7s.6-2.7 2.2-2.7q1.3.1 1.4 1m72.6 1.6q-.4 1.3.4 1.4c.8.1 1.3 1.8 1.6 4 .4 2.4 1.2 4 2 4 1.6 0 1.9 1.6.4 2.5q-1 .8-.5 2.6c.7 2-.2 5.9-1.3 5.9q-.7-.2-.9-2.8a24 24 0 0 0-1.3-8.2c-3.5-3.5-4.2-13.5-.8-11.4q.8.6.4 2m7.4 0q0 1.4-1.2 1.2c-1.8-.6-2.1-2.8-.4-2.8q1.5.1 1.6 1.6m23-1.2q0 .6-1 1.1-.9.4-1-.4.1-1 1-1.1 1 0 1 .4M221 294q0 .9-1 1a1 1 0 0 1-1-1q.1-1 1-1t1 1m34-.1q-.1.9-1.5 2.1-1.6 1.6-1.5-.2c0-.8.3-1.8.7-2.1.9-1 2.3-.9 2.3.2m99 1.1q0 .9-1 1a1 1 0 0 1-1-1q.1-1 1-1t1 1m-63.3 2.2q-.5 1.1-.6-.6t.5-1.3q.5.6.1 1.9M274 297q-.1.9-1.1 1-.8-.1-.4-1 .6-1 1.1-1 .4 0 .4 1m-50.6 2.5q-.7 1.3-1.5.9c-1.1-.6-.2-2.4 1.1-2.4q.8.1.4 1.5m32.2 2q-.6 1.4-1.6 1-1.2-.7.1-2.1c1.4-1.8 2.4-1.1 1.5 1.1m144.4-1q0 1.4-1 1.5-.9-.1-1-1.5c-.1-1.4.5-1.5 1-1.5q1 .1 1 1.5M291.5 305q.1 1.7-.7 1.4c-.4-.3-.8-1.5-.8-2.6 0-2.6 1.3-1.5 1.5 1.2m-66.4 2.7c-.9 1.7-1 1.7-1.6 0-.4-.9-.4-2.5 0-3.5.6-1.6.7-1.6 1.6 0q1 1.8 0 3.5m47.5-2.7q1.3-.1 1.4-1t1-1q1 .1 1 1.5-.1 1.4-2.6 1.5c-3.1 0-2.8 2 .4 3.5 3.1 1.4 2.7 2.7-.5 2.3-2.6-.3-2.8-.7-3-4.8-.1-2.5 0-3.9.3-3.3q.6 1.2 2 1.3m46.5 7.3c-1.3 1.3-1.5-1.4-.3-6.4l.7-3.4.3 4.4c.2 2.4-.2 4.9-.7 5.4m-62.1-5.2q0 .8-1 .9-.9-.1-1-1.6.1-1.3 1-.9 1 .6 1 1.6m139.2.1q-1.1 1-1.2.2c0-1.4 1.2-2.6 1.9-1.9q.3.6-.7 1.7m-134.6 1.5c-1 1-1.9-.5-1-1.8q.8-1.7 1.2 0 .3 1.2-.2 1.8m-34.5 3.6c-.1 1.2-1.5.9-1.9-.4q-.3-1 .8-.8 1 .5 1.1 1.2m173.9-.9q0 .6-1 1.1-.9.4-1-.4.1-1 1-1.1 1 0 1 .4m-76 1c0 1.1-1.9 1.5-2.5.6q-.4-.9.9-1 1.5 0 1.6.4m-61 1.4c0 1.3-1.2 2.2-2.2 1.6s-.1-2.4 1.3-2.4q.8.1.9.8m86.4 0c.2.4 0 2.7-.6 5.2s-1.1 5.6-1.2 7l-.5 3.5q-.3.7-1.1-.5c-.5-.8-.7-2.5-.3-3.8q.6-2.3-1.8-4.9l-2.4-2.6 3.3.6c3 .6 4.6-.7 2-1.5-.6-.2-.9-1.2-.5-2.1.7-1.8 2.2-2.3 3.1-.9m-45.1 2.2c10 2.5 10.6 2.9 15.7 9.5 2.4 3.1 5.5 6.4 7 7.5s4 4.7 5.6 8.2c3.5 7.6 3.6 13.2.4 23.6-2.5 8.3-5.1 10.9-9.1 9.3l-4.3-1.6c-1.9-.5-1.9-.6.2-2.1 2.9-2 2.9-8.8.1-15.5-2.3-5.2-3-5.7-4.8-3.5-.9 1.1-1 2-.1 3.6s.8 2.5-.1 3.6c-1.7 2-2.2 1.8-3.8-1.6-1.4-3.3-7.5-7-11.3-7-1.3 0-3.9.9-5.8 1.9l-5.6 3.1c-1.8 1-2.5.9-4.4-1-2-2-2.3-2-4.5-.6-3.2 2.1-5.7 2-5.3-.1.5-2.7-2.6-2.7-5.8 0-2.1 1.8-4.6 2.6-9.1 3-3.5.3-6.5.2-6.8-.3s1.6-2.5 4.1-4.5c3.4-2.8 4.4-4.3 4-5.8-.3-1.2.3-3.1 1.5-4.5 1-1.4 1.9-2.9 1.9-3.5a54 54 0 0 1 5.1-8.8c6.5-9.9 11.1-13.2 19.3-14l7.2-.7c.6-.1 4.5.7 8.7 1.8m-31.3 0q-.1.9-1.6 1-1.3-.1-.9-1 .6-1 1.6-1 .8 0 .9 1m-100 1.9q0 1-1 1.6-.9.4-1-.9.1-1.5 1-1.6 1 0 1 .9m85 2.1q0 .9-.4 1-.6-.1-1.1-1-.4-1 .4-1 1 0 1.1 1m7.4.9c.9 1.4-1.9 3.2-3.8 2.5-1.3-.5-1.4-.9-.5-2 1.3-1.6 3.5-1.8 4.3-.5m132.8 1.3q-1.1 1-1.2.2c0-1.4 1.2-2.6 1.9-1.9q.2.6-.7 1.7m-58.8 3.1c-.8.4-1.4 1.8-1.4 2.9q0 2-.5 1.6c-.3-.3-.3-2.4.1-4.7.6-3.7.8-3.9 2-2.4 1 1.5 1 1.9-.2 2.6M177.5 324q.5.9-.4 1-1-.1-1.6-1-.5-1 .4-1a2 2 0 0 1 1.6 1m215.1 3.8c-2 2-2.2.1-.3-2.8 1-1.8 1.2-1.8 1.5-.4.2.9-.3 2.4-1.2 3.2m-126.6.1q-.1.8-1.5 1.5c-1.5.5-2-.5-.8-1.7.9-1 2.3-.9 2.3.2m99 1.1q0 .9-1 1c-.5 0-1 1.1-1 2.4s-.6 2.6-1.2 2.9-2.2 3.2-3.2 6.6c-1.1 3.3-2.1 5.9-2.4 5.6-.6-.6 1.8-9.7 2.9-11a4 4 0 0 0 .9-2.5c0-.8.7-2.6 1.6-3.8 1.6-2.3 3.4-2.9 3.4-1.2m30.2 1.2q-1.1 1-1.2.2c0-1.4 1.2-2.6 1.9-1.9q.3.6-.7 1.7m-55.9 5c2.1 1.1 2.1 1.1.2 1.8q-3.5 1.4-3.5-1.6c0-1.7.5-1.7 3.3-.2m15.7 1.2q0 .6-1 1.1-.9.4-1-.4.1-1 1-1.1 1 0 1 .4m-14.5 4.6q.4.9-.4 1-1-.1-1.1-1 0-1 .4-1t1.1 1m5.5 1q0 1.8-1 2-.9-.2-1-2c-.1-1.8.5-2 1-2q1 .2 1 2m-156 .6q-.1.3-1.5.4c-1.4.1-1.5-.4-1.5-1q.1-.8 1.5-.4 1.4.6 1.5 1m191 .4q-.1.9-1.1 1-.8-.1-.4-1 .6-1 1.1-1 .4 0 .4 1m-138 1q-1.4.9-2.5 1-.7-.1.5-1 1.8-1.2 2.5-1 .8.1-.5 1m101.6 3.7c-1 1-1.9-.5-1-1.8q.8-1.7 1.2 0 .3 1.2-.2 1.8m-95.6 1.2c0 2.5-4.2 7.1-6.4 7.1q-1.5-.1-1.6-1.5 0-2 3.6-1.6c1.6.2 2.6-2.7 1.2-3.5q-1-.6.3-1.5 3.1-2 2.9 1m119.4 8.5c-1.6 3.6-3.4 6.6-4.1 6.6-1.8 0-2.6-4.1-1.5-8.1.7-2.9 1.3-3.4 3.5-3.2 2.7.2 3.8-1.9 1.7-3.2q-.9-.6-1-1.8c0-.6 1-.2 2.1 1l2.2 2.1zm11.6-8.8q0 1.3-1 .9-.9-.6-1-1.6.1-.8 1-.9 1 .1 1 1.6m-3 3.4c0 1-.4 2-3.3 7.8a17 17 0 0 0-1.7 5.4c0 1-.7 2.6-1.5 3.4-.8.9-1.5 2.8-1.5 4.3 0 1.6-.7 3.4-1.5 4.1s-1.3 2-1 2.8q.4 1.4-.6 2.8-1 1.2.1 3.5c1.1 2 1 2.1-1.3 1.5-2.2-.5-2.6-.3-2.9 2.1-.3 3.1-3.1 3.9-3.6 1.1-.2-.9 1.3-4.9 3.2-9s3.6-7.8 3.6-8.5a38 38 0 0 1 3.3-7c1.8-3.2 4.2-7.9 5.3-10.5 1.7-4.4 3.4-6.2 3.4-3.8m-23.3 4.8q-2.2 2.6-1.1-2.4c.6-2.5.8-2.6 1.4-.9.4 1.1.3 2.6-.3 3.3m-9.7-2.2q.2 2-1.5.4-1.3-1.2-1.5-1.6.2-.4 1.5-.4c1.3 0 1.5.7 1.5 1.6m-49.8 4.3c-1.7 1.7-3.2 3.4-3.2 4 0 1.6-3.2 2.1-6.5 1.2q-2.6-.9-1.2-1c1-.1 3-.9 4.5-2 8.6-5.8 11.5-6.8 6.4-2.2M204 358q0 .9-1 1a1 1 0 0 1-1-1q.1-1 1-1t1 1m44 1.5c-.7.8-2.2 1.5-3.4 1.5-2.1-.1-2.1-.1-.2-1.5 2.7-2.1 5.3-2 3.6 0m28.4.3q.7.6-1 1.4-2.2.9.9.3c5.1-1 2.7 1.3-3 3-8.2 2.4-12.8 3.1-11.9 1.7q.4-.9-.6-1.5c-1.8-.6.7-3.5 4.6-5.2 2.9-1.3 8.7-1.1 11 .3m75.2 1.9c-1 1-1.9-.5-1-1.8q.8-1.7 1.2 0 .3 1.2-.2 1.8m5.5 3.2c-.7 1.1-1.9 2.1-2.8 2.1q-1.9.1-.3-1.5c1-1.1 1-1.8.1-2.9-1.6-1.9.9-2.9 2.7-1.1 1.1 1 1.1 1.7.3 3.4m-42.4 4.3q-.3 1.8-.4-2.2c-.1-4 .2-3.5.4-2.3a17 17 0 0 1 0 4.5m-114.4-2.1a17 17 0 0 0 6.5-1.3q1.2-1.2 1.2.5c0 1.9-1.2 2.3-8.3 3.2-5.5.7-5.7.6-6.7-2q-2.1-5.6.6-2c1.2 1.6 2.4 1.9 6.7 1.6m150.3 3.3c.9.3 2 .4 2.4.1 1.2-.7 2.3 1.2 1.5 2.5q-.7 1.2-2 0c-1.7-1.4-4.2-.3-4.8 2.1q-.6 1.7-1.7 1.9c-1.3 0-.5-5.1 1.3-8.5 1-1.7 1.2-1.8 1.5-.3.2.9 1 1.9 1.8 2.2m-122.2.2c.6 1.5 2 1.6 11.7.9 11-.7 11.1-.7 10 1.4-.9 1.5-1.8 1.9-3.9 1.5-3.2-.6-12.4 2.6-13 4.5q-.7 1.6 1.9.7c4.9-1.6 7.9-1.8 7.9-.7q.1 1 1.1 1.1c1.6 0 8-3.1 10.8-5.2 3.1-2.3 5.1-2.3 5.1.1 0 2.5-2 3.8-3.1 2-.7-1.1-1.3-.9-2.8 1q-1.9 2.3-3.4 1.8c-2.3-.9-6.4 5-4.8 6.6 1 .9 1.5.8 2.5-.6q2.6-3.4 2.6.3c0 3.1 2.7 2.4 3.9-1 1.1-3.2 2.2-4.1 1.5-1.3-.6 2.7 1.2 5.1 2.7 3.6 1-1 1.5-.9 2.5.5 1.1 1.5 1.4 1.3 2.8-2.1.9-2 2.1-3.7 2.7-3.7q1 .1.5 1.5l-1.2 3c-.9 2.2 2.4 3.1 4 1 2.1-3 3.3.3 3.9 11 .4 5.5.9 11.1 1.2 12.5q.7 2.6-1.5 5l-2.1 2.5.4-10.8c.3-5.9.1-10.7-.4-10.7-3.2 0-4.5 14.9-1.9 22.5 1 3 1.7 6.4 1.5 7.7l-2.6 17.3c0 .5-.5-.6-.9-2.5-.5-2.1-.5-5.2.2-7.8.7-3 .7-5.5-.1-8.6-.6-2.5-1.1-7.5-1.1-11.1 0-8.6-2.3-8.6-3 .1q-.7 8.4 2.4 13.3.8 1.3-.5 2.2c-2.5 1.6-3.9-2.1-3.9-10.3 0-9.8-1.7-10.3-2.2-.6-.2 5.1.4 9.8 2.1 16.9 2.1 8 2.3 10.2 1.3 12.1a15 15 0 0 0-.9 6.8c.1 3.4-.2 4.5-1.3 4.5-1.7 0-6.9-12.5-7-16.7q-.1-5.7-2.6-5.8-1.4-.2-2-1.5c-.6-1.4-.8-1.3-2 .2-1.3 1.7-1.3 1.7-1.4 0q0-1.5-.9-1.7c-1.4 0-2.4 7.5-1.6 13q.7 5-.4 5-1 .1-1.1 2.1.2 2.2-1.9 1.4c-3.5-1.1-3.4 1.6.1 5.3 2 2.1 3.8 4.5 4.1 5.4 1.1 3.1-1.9 2-5.4-2-4.9-5.7-10.9-8.3-10.9-4.7q0 1.3 1 1.5c.5 0 3.1 2.2 5.8 4.9 2.6 2.6 5.4 5 6.2 5.3 1.2.4 1.2.9.1 3.7-1.5 3.5-3.4 3.7-3.9.3-.4-2.7-8.8-8.6-11.1-7.7-1.3.5-.8 1.3 2.2 3.7 2.1 1.7 4.4 4.6 5.2 6.5s2.4 3.7 3.5 4q3.4.7.8 3.1c-.9.9-1.9.3-4.5-2.5-2.5-2.7-3.7-3.3-4.5-2.5s-.4 2 1.6 4.7c1.5 1.9 2.4 3.5 2.1 3.5-3 0-11.5-7.6-11.5-10.3 0-1.3-4.7-5.9-13.3-13.1q-6-5-6.9-3.8c-1.5 1.5-.2 3.1 8.3 10.5 4.2 3.6 7.9 7.5 8.2 8.7.5 2 .5 2-2 .1a39 39 0 0 1-4.5-4.6 47 47 0 0 0-7.6-6.5c-3.2-2.2-7.5-5.5-9.8-7.5-4.1-3.5-14.4-8-22.2-9.6-2.3-.4-5.1-1.3-6.1-1.9-2.8-1.4-10.7-1.2-17.1.5a34 34 0 0 1-5.6 1.2c-.1-.1 1.6-3.1 3.7-6.7 2.2-3.6 4.2-7.6 4.5-9s2-6.1 3.7-10.5c2.6-6.7 4.4-9.3 10.7-16a165 165 0 0 0 12.5-15c10.2-14.5 14.7-17.9 28-21.5l10.5-3c4.6-1.5 11.7-1.2 12.4.6m51.6-.8q-.2 2.3-2.6 1.5c-2.1-.8-1.7-2.3.6-2.3q1.8.1 2 .8m24.5 1.8c2.2.7 4.7 1.4 5.6 1.4s2.4.7 3.5 1.5c1.8 1.4 1.6 1.4-1.6.8-1.9-.3-3.9-.9-4.5-1.3-1.4-1-8-2.1-15.5-2.4-3.4-.2-6.7-.9-7.3-1.6-1.6-1.7 14.1-.4 19.8 1.6m-36.5.9c-1.2 1.5-3 1.2-3-.6 0-.5 1-.9 2.1-.9 1.8 0 1.9.2.9 1.5m72.5 2.5q.4.9-.4 1-1-.1-1.1-1 0-1 .4-1 .6 0 1.1 1m37.5 7.5c-1.1 1.4-4 2.1-4 1l1.7-4.7 1.7-4.3.9 3.2q1 3.3-.3 4.8m-88-1.4q0 .8-1 .9-.9-.1-1-1.6.1-1.3 1-.9 1 .6 1 1.6m43.5 0q.6 1 .2 1.5c-.7.7-3.7-.7-3.7-1.7 0-1.3 2.7-1.1 3.5.2m37 .9q.4.9-.4 1-1-.1-1.1-1 0-1 .4-1 .6 0 1.1 1m-21.4 4.3c-1.4 1.4-4.4-.2-4.9-2.6-.3-1.5-.1-1.5 2.8 0q3.4 1.5 2.1 2.6m-37.6-1.3q.5.9-.4 1-1-.1-1.6-1-.5-1 .4-1a2 2 0 0 1 1.6 1m-9.8 2.6c-.9.9-2.8-.6-2.1-1.8q.6-1 1.7.1 1 1 .4 1.7m-17.2 1.6c-.3.7-.1 2.6.3 4.3l.9 3 1.7-3.3q1.7-3.4 3.5-2.7c1 .3 2.4-.1 3.1-1 1.3-1.5 4-2.1 4-.8-.1.5-1.8 2-4 3.5a66 66 0 0 0-13.3 15.3q-1.7 2.3-2.8 2a56 56 0 0 1 0-20c.6-.3 1.3 1.6 1.6 4.2.9 6.7 1.5 8.4 2.6 7.8.5-.4.9-3.5.9-7.1s.4-6.4 1-6.4q.8.2.5 1.2m43.6 1.6c6-.6 16.2 2.1 16.7 4.5.2.8 1.5 1.8 2.9 2.2 2.2.5 2.4 1 1.9 3.8-1.8 8.7-1.8 9.7-.3 9.7.8 0 2.9-2.5 4.6-5.5s3.5-5.5 4-5.5 1.9.8 3 1.8l2.2 1.7-2.6 5.7a49 49 0 0 0-3.2 9.3c-.9 5.3 2 4.6 4.7-1.3 4.7-10.1 5.8-11.7 8.7-12q3.3-.5 1.6.9c-1.5 1.5-1.7 9.5-.3 10.4 1.5.9 6-2.5 6-4.7 0-1.1-.5-2.8-1-3.8s-.6-2.1-.2-2.4c1.3-.8 2.8.7 3 2.9.3 4.9 1.5 8.5 2.8 8.5 1.6 0 1.8-3.3.4-6q-1.1-2 .2-3.9c.9-1.5.9-2.3-.1-3.5q-1.4-1.5-2.5-1.6c-1.7 0-4.2-4.3-2.7-4.8.6-.2 1.1-1.1 1.1-1.9q.1-1.6-2.5-1.1c-3.6.7-3.1-.9.6-1.7 2.7-.6 3.5-.3 5.9 2.6 1.6 1.9 3.1 4.4 3.4 5.6s2.4 5.2 4.6 9.1q6 10.5 3 15.2c-.9 1.3-1.3 1.1-2.9-1-1.1-1.4-2.3-2.2-2.7-1.8s.5 2.3 1.9 4.1c2.9 3.9 4.5 8.7 2.8 8.7q-1.1-.2-2.5-2.8c-1.7-3.3-5.4-6.8-6.3-5.9-.3.4.3 1.7 1.4 3 3.2 3.4 5.8 9 4.4 9.5-.6.2-1.1 1.4-1.1 2.6 0 2.1-1.7 4.6-3.1 4.6-.4 0-1-2.1-1.4-4.6-.8-5.8-2.9-5.3-3.3.8-.2 2.6-1 5.2-1.8 5.9-1.4 1.1-1.5.8-.9-2.7l.9-4.8q-.1-1-1.6-1.4-1.8-.3-1.8 1.4c0 1.6-.1 1.6-2-.1-2.3-2.1-2.5-1.7-3.4 6-.6 4.9-2 7.5-3.2 6.2-.4-.4-.2-1.8.4-3.2s1.2-4 1.2-5.6c0-4.3-2.3-3.2-3.1 1.4-.8 5.3-2.3 6.1-1.6 1q1-7.6-3-3c-3.9 4.3-3.3 10.5.9 9.1q2.1-.6 1.6.7c-.3 1-3.4 1.5-11.4 1.9a53 53 0 0 1-11.9-.2c-.5-.5-1.7-.8-2.7-.8-2.6 0-8.9-3.1-12-5.9-2.7-2.4-2.8-2.4-9.9-1.1-6.8 1.3-7.5 1.3-13.8-.9-8.3-3-17.1-9.3-17.1-12.4 0-2.9-1.5-5.1-2.9-4.3q-2.7 2 1.5 9.3l2.7 4.5-2.9 2.3c-3.3 2.6-3.1 3.2 2.2 5l3.8 1.3-3.3 1.6c-3 1.6-3.5 1.6-5.7.1-2.5-1.6-2.9-4.5-2.4-17 .3-8.3 4.8-26.5 5-19.8.1 5.8 4.3 2.2 4.5-3.8.1-3 1.1-5.2 4-9 5.4-6.9 11-10.6 20.2-13.3 6.9-2 8-2.1 9.5-.8q1.6 1.5 6.9 1M295 449q0 .9-1 1a1 1 0 0 1-1-1q.1-1 1-1t1 1m-26 2.9c0 1.2-2 2.5-2.7 1.8s.6-2.7 1.8-2.7q.8 0 .9.9m35.8 4.2c.3 3.6.1 4.2-1 3.1-1.5-1.5-1.9-8.4-.4-7.9.6.2 1.2 2.3 1.4 4.8m-135.2-.8c2.8.8 7.2 2.4 9.7 3.6s5.2 2.1 5.9 2.1 4 2.3 7.3 5.2c3.3 2.8 7.3 5.9 8.9 6.9a64 64 0 0 1 16.3 16.9l5 8.3c1.4 2.2 2.2 4.1 1.9 4.5-1 .9-4.6-3-4.6-5.1q.2-2.1-2.1-1.4-2.4.9-1.6-1.5c.8-2.9-4-9.5-8-11-1.7-.6-3.2-1.4-3.1-1.7q.3-3.1-1.8-3.1-1.5-.2-2.1-2t-1.3-2c-.5 0-4-2.6-7.8-5.8a57 57 0 0 0-9.8-6.9l-7.9-2.8c-2.7-1-9.3-2.1-14.5-2.5l-11.5-1q-2-.2 2-1.6a35 35 0 0 1 19.1.9m123.7 4.9c.3 2.4.2 4.7-.2 5.1-1 1-4.4-4-3.6-5.2q.4-.9-.7-1.3c-1.7-.6 0-2.8 2.1-2.8 1.4 0 2 1 2.4 4.2m40.1-2.7q2.2 1.6.5 1.5c-1.6 0-4.5 3.6-6.9 8.5-.8 1.6-2 3.8-2.8 4.7s-1.1 2.1-.8 2.6-.6 2.1-2.1 3.6c-2.3 2.3-2.5 3-1.5 5.1s.9 2.5-.3 2.5q-1.4.1-1.5 1.7c0 .9-1.1 3.9-2.4 6.7l-3 6.8c-.4 1.5-3.6 2.7-3.6 1.5 0-1.4 4.6-13 8.8-22.2a253 253 0 0 0 6.7-16.5c2.7-8.3 4.6-9.7 8.9-6.5m-87.7 1.7q-.5 1.1-.6-.6t.5-1.3q.5.6.1 1.9m31.3.3q-.2.5-2 .5c-1.8 0-2-.7-2-1.5 0-1.3.4-1.4 2-.5q1.8 1 2 1.5m42 1.5q0 1.8-1 2-.9-.2-1-2c-.1-1.8.5-2 1-2q1 .2 1 2m-53.9 2.3c-1.3 1.3-2.6.3-1.6-1.2q.6-1 1.7-.5 1 .6-.1 1.7m26.8 13.4 10.4 21.3c2.3 4.6 6.2 11.4 8.5 15 6.9 10.3 6.8 9.7 3 13.2-1.8 1.8-3.8 3.1-4.5 3a2 2 0 0 0-1.8.8q-.6.9-1.7 1-.8-.2.6-1.9c1-1.1 2.4-1.7 3.2-1.4 1.7.6 1.9-1.8.2-3.5q-1.3-1.2 0-2.4 1.1-1.2 1.2-2.2c0-.6-1 0-2.1 1.4l-2.1 2.5.6-4.1c.5-3.6.2-4.5-2.3-7.1a16 16 0 0 1-3.6-6.1c-.3-1.7-1.3-3.3-2.1-3.6q-1.5-.5-.8-3.1 1-4.7-5.5-2.7c-2.4.9-2.9.8-2.5-.3q.6-1.3 1.8-.9 1.3.3 2.5-2.2c1.4-3.2-.2-5.8-3-4.9-2.2.7-2.5-.5-.6-2.4 1-1 .8-1.5-.8-2.7-1.1-.8-2-2.4-2-3.6 0-1.1-.9-2.6-2-3.2l-2.4-1.3q-.2-.4 1-1.9c1.1-1.4 1.1-1.8-.2-2.8-.9-.6-1.4-1.7-1.1-2.4.6-1.9-1.9-4.4-3.7-3.7q-1.7.8.4-1.5c1.6-1.8 2-1.8 3.4-.6.9.8 4.5 7.3 8 14.3M139 463.8c0 2.6-3.5 4.5-5 2.7-.9-1.1-1.7-1.2-3.2-.4q-3.6 1.7-2.5-1.5c.4-.9 2.3-1.6 4.9-1.9l5.1-.5q.6 0 .7 1.6m25.7-1.2q-.6.5-1.9.1-1.1-.5.6-.6t1.3.5m4.7.3c.3.5 2.5 1.2 4.8 1.5 4.5.7 14.8 7 15.6 9.5q.3 1.2-2.9-1.1c-1.9-1.4-4-2.3-4.6-2.1q-1.2.3-1.3-1.2 0-1.7-1.8-1.1c-1 .4-2.7-.1-3.8-.9s-2.7-1.5-3.6-1.5q-1.7-.1-1.8-1t-1.1-.8c-.6.2-1.4-.3-1.6-1-.5-1.4 1.3-1.7 2.1-.3m135.6 1.2q0 .8-1 .9-.9-.1-1-1.6.1-1.3 1-.9 1 .6 1 1.6m-150 1.1q1.7 1-1 .4c-1.4-.3-3.8.1-5.4.9s-3.2 1.5-3.7 1.5c-1.1 0-1.2-3.4-.2-4.4.9-.9 8.2.3 10.3 1.6m103 1.4q0 1.3-1 1.4-.9-.1-1-2.1.1-1.7 1-1.4c.6.3 1 1.3 1 2.1m11.4.9c-.6 1.5-3.4 2.9-4.2 2-.8-.7 2.9-4.5 3.9-3.9.4.2.6 1.1.3 1.9M168 468.9c1.4 1 4 2.2 5.7 2.5 1.7.4 3.8 1.4 4.5 2.3q1.8 2-.9.9c-3.1-1-4.8.1-3.1 2.1 1 1.3.6 2.1-2.8 5.2a126 126 0 0 1-14.3 11.5c-.9.5-2.8 2-4.3 3.4s-3 2.3-3.3 2c-.7-.7.2-1.6 8.5-8.8 15.2-13.2 14.4-12.3 12.1-13.2s-2.7-2.3-1.1-3.3c1.8-1.1-.1-2.6-2.8-2.5q-7.6.5-6.7-1c.4-.6.1-1.8-.7-2.7-1.2-1.5-.9-1.5 2.7-.9 2.2.4 5.1 1.5 6.5 2.5m151.5-.4q-.2 1.8-1.7 2.3-2 .6-1.8-2.3-.2-2.9 1.8-2.3 1.5.5 1.7 2.3m-8-.5q.4.9-1 1c-1.4.1-1.3-.5-1-1q.6-1 1-1t1 1m-50.3 5.2q-1.1 1-1.2.2 0-1 .7-1.7t1.2-.2q.3.6-.7 1.7M304 472q0 .9-.4 1-.5-.1-1.1-1-.4-1 .4-1 1 0 1.1 1m-170 4.5c-2 2.2-2.1 2.7-1.1 5.4 1 2.4 1 3.4-.3 6-.9 1.7-2 3.1-2.4 3.1q-1 .1-2.8 1.6c-1.9 1.5-1.8 1.5.4 1.1 2.7-.6 2.7-.3 0 2.8-2.6 3-4.2 3.2-3.5.5q.4-1.8-.3-1.5c-1.4.9-.5-5.3 1.1-7.2 2.2-2.5 3.9-5.8 3.9-7.8 0-1.6 4.7-6.4 6.4-6.5q.7.2-1.4 2.5m182.4-1.6c.3.5-.3 2-1.4 3.2q-2.1 2.6-1.4.6.9-2.1-1.4-1.5c-2.9.4-2.9-1.5 0-2.4 3.3-.9 3.6-.9 4.2.1m-57.7.7q-.6.5-1.9.1-1.1-.5.6-.6t1.3.5m9.7 5c1 3.1 4.8 12 8.5 19.8 10.7 22.3 14.2 31.8 12.2 33q-1 .5-1.1-1.3c-.1-1.8-.4-2.1-1-2.1s-1-1.3-1-3q0-3-2-4.2c-1.1-.7-2-1.8-2-2.3 0-1.7-2.4-6.5-3.2-6.5q-.8-.2-.8-1.5c0-1.3-.5-1.5-1.1-1.5q-1-.1-.5-2.5.8-2.6-.8-1.9-1.4.6-2-3.1c-.4-2-1.3-3.8-2.1-4.1q-1.2-.6-.8-2c.3-.8-.3-2.2-1.4-3.2s-2.4-3.5-3-5.7c-.8-3.7-1.2-4-4.1-3.9-1.8.1-3.2 0-3.2-.2 0-1 2.6-6.1 3.8-7.7 2.5-2.9 3.7-2 5.6 3.9M304 478q0 1.8-1 2-.9-.2-1-2c-.1-1.8.5-2 1-2q1 .2 1 2m-28.6 0c1 0 5.2 7 4.4 7.4l-2.3 1.2c-1.9 1.1-2 .9-1.7-2.2.4-2.9 0-3.5-2.2-4.4-1.4-.5-2.6-1.5-2.6-2.1q.1-1 1.6-.5c.9.3 2.1.6 2.8.6m-154.4.9q0 1-1 1.6c-.5.3-1 1.5-1 2.6q0 1.9-1.1 1.3c-.6-.3-2.4.3-4 1.5q-6.8 5 .3-2.9c4-4.6 6.8-6.3 6.8-4.1m69.9 5 4.4 4.1-2.3 2.5c-1.3 1.4-2.7 2.5-3.2 2.5-1.3 0-.9-3.4.5-4.9q1.7-1.4-1.5-.2c-2.6 1-2.7.9-2.2-1.8q.6-3-1.2-5.7c-2.1-3.3-1.3-2.8 5.5 3.5m-29.9-2c0 .5-1.2 1.9-2.6 3.2l-4.7 4.7a37 37 0 0 1-5.1 4.4l-2.8 2.1 2.2-3.4a67 67 0 0 1 12.7-11.9q.3 0 .3.9m-53 2.1q-.1.9-1.1 1-.8-.1-.4-1 .6-1 1.1-1 .3 0 .4 1m204-.2c0 1.3-1.2 2.2-2.2 1.6s-.1-2.4 1.3-2.4q.8.1.9.8M142.9 487q.8-.1 2-1.3 1.4-1.6.3 1.3a9 9 0 0 1-4 4 10 10 0 0 0-4.2 3.9q-1 2.1-1.6 1.8c-.3-.3.2-1.9 1-3.6.9-1.6 1.6-3.6 1.6-4.2s.8-2.1 1.8-3.2c1.5-1.7 1.7-1.7 2-.3q.4 1.5 1.1 1.6m161.1.2c-.1 3.1-.1 3.2-1.5 1.4-1.9-2.5-1.9-4.6 0-4.6q1.5 0 1.5 3.2m-130-1.4c0 .4-1.2 2-2.6 3.5-3.1 3.3-2.4 4.9.9 2.1l4.2-3.4q2.7-2.2.6.5a43 43 0 0 1-9.5 9.5c-.5 0-1.8.8-2.9 1.7-2.2 2-2.2 2.2 0-3.5q1-2.2-1-.3-1.7 1.3-2.4.7-.5-.5-.2-.9l6.2-5.5c6-5.3 6.7-5.8 6.7-4.4m50 3.4c0 1.4-1.9-.1-3.1-2.5-1.2-2.2-1.2-2.2 1-.3 1.1 1.1 2.1 2.3 2.1 2.8m18.5-2.3q-.6 1-1.7 1.1-1 0 .2-1.5c1.4-1.7 2.6-1.3 1.5.4m8.9-.3c.6 1.5.8 1.5 2.6-.1q3.6-3.2.4 2.4c-1.5 2.6-1.4 3 3.1 11.5a35 35 0 0 1 4.1 9.3c-1.1 1.1-8.4-1.7-11.6-4.3a49 49 0 0 1-6.1-7c-2.9-4.2-2.9-4.5-1.3-6.9s6.2-6.4 7.5-6.5q.7.1 1.3 1.6M117 488q-1 1.8-1.6 2-.3-.2.6-2c.9-1.8 1.3-2 1.6-2q.3.2-.6 2m166.7 6.5q-1 1-1.4-.1c-.2-.6-1-2-1.8-3-1.3-1.6-1.6-1.7-2.4-.4q-1 1.3-1.8.7c-.4-.5.3-1.7 1.6-2.7 2.4-1.8 2.5-1.7 4.6 1.4q2.3 3 1.2 4.1M103.5 489q.4.9-.4 1-1-.1-1.1-1 0-1 .4-1 .6 0 1.1 1m133.5 2.9q-.1.9-1.5 2.1-1.6 1.6-1.5-.2c0-.8.3-1.8.7-2.1.9-1 2.3-.9 2.3.2m-123 2.7c0 2.2-1.6 1.7-1.7-.6q-.1-1.8.8-1.5.8.8.9 2.1m64.4-1.1c-.4.9-1.6 2.1-2.8 2.7-1.9 1-1.9.9.3-1.6 2.8-3 3.3-3.2 2.5-1.1m3.1 4a51 51 0 0 0-6 5c-6.9 6.4-8.2 7.4-8.8 6.8-.4-.3 1.5-2.4 4-4.7 2.6-2.3 6.6-5.9 8.8-8.1 2.9-2.9 4.1-3.6 4.4-2.5.2.8-.9 2.4-2.4 3.5M322 493q0 .9-1 1a1 1 0 0 1-1-1q.1-1 1-1t1 1m-223.8 3.2q-1.1 1-1.2.2c0-1.4 1.2-2.6 1.9-1.9q.3.6-.7 1.7m134.8-.1c0 1.1-2.7 1.2-3.4 0q-.5-.8 0-1.4c.8-.8 3.4.3 3.4 1.4m-88 .3c0 .8-.4 1.8-1 2.1q-.9.4-1-1.4.1-2 1-2.1 1 .1 1 1.4m58.8 3.7q-.6 1.2-2.2-2.1l-1.8-3.5 2.2 2.1c1.2 1.2 2 2.8 1.8 3.5m63.2-4.7q0 .5-1 1.1-.9.4-1-.4.1-1 1-1.1 1 0 1 .4m-3.7 3.2q-.6 1.5-1.5.6c-1.2-1.2-.1-3.5 1.2-2.7.5.3.6 1.3.3 2.1M191 498q-.1.9-1.1 1-.8-.1-.4-1 .6-1 1.1-1 .3 0 .4 1m52.2 5.4a29 29 0 0 0 17.2 10.1c4.8 1.1 5.1 1.3 9.4 9.1a172 172 0 0 1 13.2 25.6 196 196 0 0 1-11.4 29.6l-7.4 16.2c-2.3 5.2-5.5 12.4-7.3 16s-4 8.7-5.1 11.5c-1 2.7-6.6 14.4-12.4 26a546 546 0 0 0-13.7 29.4 30 30 0 0 1-4.5 8.9c-.7.2-2.4-1-3.9-2.7s-3.7-3.1-4.9-3.1c-3.6 0-8.3 4.6-8.9 8.8a40 40 0 0 1-4.1 12.2c-.3 0-1.5-1.2-2.8-2.7-3.2-3.7-6.4-2.6-11.3 3.8-6 8.1-7.6 11.5-6.4 13.8 1.6 2.8 1.5 4.9-.1 3.3a5 5 0 0 0-3.3-1.2c-1.2 0-3.2-1.1-4.5-2.5-2.1-2.3-2.3-3-1.6-10.7A286 286 0 0 1 172 684c3.3-21.1 5.4-39.2 5.2-45-.2-5.2 1.3-20 2.5-24.7.6-2.8 6.5-4.2 8.9-2.3 2 1.8 4.3-.2 2.6-2.3-1.3-1.5-.6-2.7 1.5-2.7q1.4 0 .8 2c-1.5 4.6 6 3.7 10.3-1.2 6-7.1 6.6-7.5 10.2-7 8.6 1 9.3.8 11.2-2.4l1.8-3.2-4.6-9.3-4.6-9.4.7-19c1.1-31.7 1.3-33.5 2.4-34.9.6-.7 1.9-3.8 2.9-6.7q1.8-5.3 4.1-6.4a6 6 0 0 0 2.8-3.8c.5-2.3 5.6-7.7 7.3-7.7a38 38 0 0 1 5.2 5.4m44.6-2.2c1.2 3.3.7 5.3-.7 2.9q-.9-1.5-1.6-.1-.6 1.2.5 2 1 .8.5 2-.7 1.2-1.9-1.2-3.2-6.2-1.5-5.3 1 .5 1.6-1.4 1.1-4.4 3.1 1.1m-193.5.4q-.6 1.5-1.5.6c-1.2-1.2-.1-3.5 1.2-2.7.5.3.6 1.3.3 2.1m16.9 1.4c-.2 1.6-.6 3-.8 3s-.4-1.4-.4-3 .4-3 .8-3 .7 1.3.4 3m26.8.2q0 .8-1 .8-.9-.2-1-2.3-.1-2.6 1-.7.9 1.4 1 2.2m10-2.8c0 .8-4.7 5.6-5.4 5.6-1.5 0-.4-2.9 1.7-4.3 2.2-1.6 3.7-2.1 3.7-1.3m60 4.6c0 1.4-9.5 11.2-12.2 12.6q-2.6 1.3-2.8.6c0-.4 1.2-1.9 2.8-3.3 4.6-4.2 9.2-10 9.2-11.6q-.1-1.9 1.5-.3 1.4 1.2 1.5 2m-106.2-.9q-.4 1-1.2.9c-1.7-.3-4.5 5.3-3.9 8.1.3 1.4 0 3-.6 3.3-.6.4-1.1 1.7-1.1 2.9s-1.2 3.3-2.5 4.6-2.5 2.9-2.5 3.5-1.3 2.5-3 4.1c-3 2.9-3.9 5.9-2 7 .6.4-.9 2.3-3.4 4.3-3.5 2.8-4.4 4.1-4 5.8q.6 2.1-1.6 3.7-2 1.5-1.7 2.9c.3 1.1-.6 3.4-3 7.7q-.4.2-1.9-.9c-1.3-1.2-1.7-1.1-2.4 0q-.8 1.4.1 2.6c1.1 1.4-1.7 4.7-3.5 4.1-2-.7-1.8-3.6 1-9.6q2.8-6 4.8-6.3 2-.1 6.4-8.8a61 61 0 0 1 7.7-12 51 51 0 0 0 10-17.9c3.3-8 5.3-11.1 7.2-11.1q1.3.1 1.1 1.1m89.8.5-.6 2q-.1.3-1.5.4-2.7-.2-.3-2.8c1.7-1.7 3.1-1.5 2.4.4m136.6 2c5.4 4.6 6.6 6.4 3.9 6.4-1 0-2.1-.6-2.4-1.3q-.4-1.4-1.8.2-1.6 1.4-.1 1.8 1 .6 1.2 2.3t1.1 2.2c2.1.7-14.6 16.8-17.5 16.8-1.4 0 1.1-3.6 4.6-6.8 4-3.6 7.8-9.8 7.8-12.7 0-2.1-2.9-3.1-5.1-1.6q-2 1.3-1.9-.3c0-2.1 4-10.6 5-10.6.4 0 2.8 1.6 5.2 3.6M178 504.9q-.1.9-1.6 1.5-2 .9-.4-.9 2-2.5 2-.6m6 1.7c0 5.5 3.2 16.6 4.9 17.1.9.2 2.2 1.3 2.9 2.4 1.5 2.4 0 5.9-2.5 5.9-1 0-3.4 1.7-5.5 3.7s-3.8 3.3-3.8 2.7 1.2-2.1 2.8-3.5a25 25 0 0 0 4.2-5.3c1.3-2.5 1.3-2.9-.1-4-1.9-1.4-3.9-9-3.9-14.7 0-3.4-.3-4-1.2-3.1-.7.7-1.9 1.2-2.7 1.2q-1.7 0 .9-2.4c3.2-3.2 4-3.2 4 0m-62-.7c0 1.7-1.2 4.1-2.1 4.1s-1.2-3.3-.2-4.3 2.3-.9 2.3.2m100 1.7q0 1.3-1 .9-.9-.6-1-1.6.1-.8 1-.9 1 .1 1 1.6m69 1q0 1.3-1 1.4-.9-.1-1-2.1.1-1.7 1-1.4c.6.3 1 1.3 1 2.1m-181.8.6q-1.1 1-1.2.2c0-1.4 1.2-2.6 1.9-1.9q.3.6-.7 1.7m26.3 2.8c-2.1 4.6-4.1 5.4-3 1.2.7-2.9 3.5-6.6 4.3-5.7.3.3-.3 2.3-1.3 4.5m137.5-2.4q-.1 1.3-1 .9-1-.7-.5-1.6 1.4-2 1.5.7m-184.5.4q.4.9-.4 1-1-.1-1.1-1 0-1 .4-1 .6 0 1.1 1m86.5 3.4c-1.9 1.8-3.7 3.2-3.9 3-.7-.6 5.1-6.4 6.3-6.4.6 0-.5 1.5-2.4 3.4m19.4-.7a4 4 0 0 1-2.5 2.6q-3.7 1.2.3-3c2.5-2.6 2.9-2.6 2.2.4m25.6 2.4c0 1.9-1.6 3.4-2.3 2.2-.3-.5-.8-2.4-1.2-4.3l-.7-3.5 2.1 1.9c1.1 1.1 2.1 2.7 2.1 3.7m-12.6-2.6q-.8 1.3-2.3 1.5c-1.4-.1-1.3-.3.3-1.5 2.5-1.9 2.7-1.9 2 0m-46.9 1.5c-1 1.1-2.1 1.8-2.3 1.5q-.4-.6 1.4-2 4-3 .9.5m111.5-1.6c0 1.1-1.9 1.5-2.5.6q-.4-.9.9-1 1.5 0 1.6.4m21.9 1.5q1.7 2.4-1.3.8-2.2-1.2-2-1.9c.9-1.4 2.3-.9 3.3 1.1m-208.4 0q.4.9-.5 1.6-.9.4-1-.9 0-2.7 1.5-.7m114.1 13.8c-2 1.9-4.1 3.3-4.7 3.1s.7-2.2 3.1-4.5c5-4.7 5.2-8 .2-3.8-4.3 3.6-4 1.8.6-3.3l3.7-4.1.3 4.6c.3 4.2 0 5-3.2 8M338 523c0 4.8-3.1 6.3-4.8 2.5-.7-1.4-.8-2.5-.3-2.5s1.4-1.1 2.1-2.5c1.6-2.9 3-1.7 3 2.5m-163.5-3q-.7.9-1.6 1-.9-.1-.4-1a2 2 0 0 1 1.6-1q.9 0 .4 1m41 7.9c.6 7.4-.1 17.1-1.3 17.1-.4 0-.7-5.9-.8-13-.1-14 1.1-16.2 2.1-4.1m-75.5-7.5q0 .5-1 1.1-.9.4-1-.4.1-1 1-1.1 1 0 1 .4m-7 5c0 2.4.3 5.7.6 7.3.5 2.3.2 3.2-1.1 3.7-2.5.9-2.9.1-1.7-3.3q2.1-5.5-2.5-.9c-2.3 2.1-2.3 2.1-2.3.1 0-1.2.7-2.4 1.6-2.7q1.5-.7 1-2.2c-.6-1.6 2-6.4 3.5-6.4.5 0 .9 2 .9 4.4m29 .1a16 16 0 0 1-4.3 3.5c-1.2 0 5.5-6.9 6.7-6.9.6-.1-.5 1.5-2.4 3.4m116-.5q0 .9-1 1a1 1 0 0 1-1-1q.1-1 1-1t1 1m-173.9 15.6a43 43 0 0 1-2.1 11.8c-.9.8-1.1.2-.6-2.9.3-2.2.9-7.6 1.2-12s.8-9.1 1.1-10.5l.7-2.5.4 2.7a99 99 0 0 1-.7 13.4m67.8-12.9a23 23 0 0 1-3.4 3.5l-5.5 4.7a23 23 0 0 1-5.2 4.1c-1.8 0-.5-1.9 3-4.4 2-1.4 5.5-4.4 7.6-6.6 4.4-4.5 7.3-5.5 3.5-1.3m126.6 8.3c-2.1 2.3-1.9 3.5.8 5.3q2 1.4 1.4 2.3-.7.5-2.1-1.1c-1.4-1.9-3.6-1.3-3.6 1 0 1.9-5 7.6-6.1 6.9a2 2 0 0 1-.9-1.5q0-.9 1-.4.8.4.4-.8c-.3-.8.6-4 2-7.2 1.5-3.2 2.6-6.2 2.6-6.7s.7-2.5 1.6-4.6l1.7-3.7 1.3 4.4c1.2 3.9 1.2 4.7-.1 6.1M183 527.3c0 .2-1 1.2-2.2 2.3l-2.3 1.9 1.9-2.3q2.7-3.1 2.6-1.9m22.3 24.2c2.6 10.3 2.8 11.5 1.7 11.5q-.9-.2-1-1.9c0-1.1-.4-2.3-1-2.6s-1-1.7-1-3.1q0-2.3-1.5-2.4-2.7-.2-.2-2.9c1-1 .8-1.5-.6-2.6-1.5-1.1-1.7-1.7-.7-3.5.8-1.6.8-2.5 0-3.5-.6-.7-.8-2.5-.4-4l.7-2.7-2.7 1.7c-3.4 2.2-3.5.2-.1-2.9 1.4-1.3 2.6-3 2.6-3.7.1-.8.7 2.6 1.4 7.6s2 11.7 2.8 15M75.5 532.9c-1 1.6-2.5.3-2.5-2.2 0-2 .1-2 1.6-.5.9.9 1.3 2.1.9 2.7m258-3a69 69 0 0 1-17.7 14.1c-2.2 0-.2-3.4 4.9-8q10.5-9.6 12.8-6.1m-212.9 3.8c-1 1-1.9-.5-1-1.8q.8-1.6 1.2 0 .3 1.2-.2 1.8M282 532q-.1.9-1.1 1-.8-.1-.4-1 .6-1 1.1-1 .4 0 .4 1m-89 .7c-.1 1.8-1.9 3.5-2.9 2.8q-1.4-.6 0-2.1c1.2-1.5 2.9-1.9 2.9-.7m146 3c0 2.1-6.6 8.2-9.6 8.9-1.3.3-3.2.3-4.1 0-2.1-.8-1.2-1.8 6.7-7.4 5.6-4 7-4.3 7-1.5m-28-1.3-.6 2q-.5 1.9-2 .5c-2-1.6-1.7-2.9.6-2.9q1.8 0 2 .4m-239 3.7q0 .8-1 .9-.9-.1-1-1.6.1-1.3 1-.9 1 .6 1 1.6m51 13.3c1.4 11.4.9 21.8-1 24.1a5 5 0 0 1-3.3 1.5c-1.8 0-1.9-.2-.5-1.8.8-.9 2-3.1 2.6-4.7 1.4-3.7 1-20.3-.5-23-.9-1.7-1.2-9.6-.3-11.5.5-1.2 1.9 5.7 3 15.4m14.7-11.1q-.4 1-1.7 1.5t-.6-.7q.7-1.5-.6-2.8-2-2.2 1-.4 2.1 1.2 1.9 2.4m24.5 1.9q-1.1 1-1.9.4-.5-.7.7-1.6c1.9-1.2 2.7-.3 1.2 1.2m30.7 1.5q0 3.3-.6 2.3a8 8 0 0 0-2.2-2.8c-1.4-1.1-1.4-1.4-.1-2.2 2.5-1.6 3-1.1 2.9 2.7m-25.9-.8c-1.2 2.4-5.1 5.3-5.9 4.5-.6-.5 5.4-6.4 6.5-6.4q.3.2-.6 1.9m-99 1.7q0 1.3-1 .9c-.5-.3-1-1.3-1-2.1s.5-1.2 1-.9 1 1.3 1 2.1m63.9-.7q1.7.9-.8 2c-2.4 1.3-4.1.7-4.1-1.5 0-1.6 2.7-1.9 4.9-.5m7.6 1c1 1.7-1.2 2.1-2.5.6q-1.6-1.6.3-1.5 1.5 0 2.2.9m199 7c-.8 1.7-2 3.1-2.5 3.1-1.3 0-1.3-.1.4-4.1 3.1-7.9 2.9-7.7 3.4-4.7.2 1.5-.4 4-1.3 5.7m-40.2-4.5q.6 1.4-1.4.9-1.6-.5-1.3-1.4c.8-1.3 2.1-1.1 2.7.5m12.7 0c0 1.5-3.7 3.2-4.7 2.2q-.4-.6 0-2.1c.8-1.9 4.7-2 4.7-.1m11.2-.2c.3.7 2 1.3 3.9 1.3 3.9 0 5.5 2.4 6.1 9 .3 3.5 0 4-2 4.3-1.8.3-2.2-.1-2.2-2.5q-.1-2.7-1.9-4-2-1.2-1.4-3.3c.7-2.5-2.2-2.8-4.8-.4q-1.7 1.4-2.3.6-.4-1 .9-2.2c.8-.7 1.5-1.9 1.5-2.6 0-1.7 1.7-1.8 2.2-.2m-212.2.7q0 1-1 1.6-.9.4-1-.9.1-1.5 1-1.6 1 0 1 .9m105 1.3c0 3.1-1.3 4.9-2.8 3.9-1-.6-1.1-1.3-.1-3.4 1.5-3.3 2.9-3.5 2.9-.5m-55 .3c0 .2-1 1-2.2 1.6q-3 1.8-.9-.4c1.3-1.6 3.1-2.3 3.1-1.2m-26 1.5q0 .9-.9 1-1.3.1-2.8.7-2.3 1-.4-1c1.5-1.9 4.1-2.3 4.1-.7m152.1 3.7q-1.8 2.9-.5-1.2.7-1.4 1.1-1.1c.3.2 0 1.3-.6 2.3m21.6-.5q-.5 1.1-.6-.6t.5-1.3c.3.3.4 1.2.1 1.9m5.4.6c-2.8.4-4-.6-2.1-1.8q1.4-.8 2.9.3 2 1.3-.8 1.5m-212.5 1.9c-1 1-1.9-.5-1-1.8q.7-1.7 1.2 0 .3 1.2-.2 1.8m83.1-1.1c-.3.4.5 1.6 1.9 2.7q2.8 2 1.3 2.8-1.3.8-3-1.9c-1.5-2.5-1.6-4.2-.2-4.2q.5 0 0 .6m8.8.4q.4.9-.4 1-1-.1-1.1-1 0-1 .4-1 .6 0 1.1 1m21.1 2.7c-1.1 1.1-1.9-.6-1.1-2.4s.8-1.7 1.2 0c.3 1 .2 2.1-.1 2.4m73.4-.6q-1.1 1.8-1.7 1.5-.4-.6.7-2.1 2.8-3.1 1 .6m34.2.1q-1.1 1-1.2.2 0-1 .7-1.7t1.2-.2q.3.6-.7 1.7m-157.2.6c0 .5-1.1 1.8-2.5 3s-2.5 2.9-2.5 3.7q-.2 1.4-2 1.5c-2.8 0-2.5-.7 1.8-5q5.4-5.6 5.2-3.2m153 1.2c0 .5-1.2 1-2.7 1q-3.2.1-1.3-1c2-1.3 4-1.3 4 0m-13 1.4c0 1.5-1.8 3.1-2.6 2.3-.7-.7.7-3.7 1.7-3.7q.8.1.9 1.4m34.5 3c1.5 3.9 1.5 4.7.2 7.2l-1.5 2.9-1.1-2.7c-.6-1.6-.9-4-.7-5.5q.3-2.4-.1-1.1c-.5 2.2-1.9 2.3-2.7.3-.7-1.8 1.4-5.5 3.1-5.5.6 0 1.9 2 2.8 4.4m-147.4-2.1c-.1 1.2-1.5.9-1.9-.4q-.4-1 .8-.8 1 .5 1.1 1.2m134.9 1.8c-1.2 2.1-3 1.7-3-.6 0-1.4 2-2.5 3.3-1.8.4.2.2 1.3-.3 2.4m-193.5-.1c-.3.5-1.3 1-2.1 1s-1.2-.5-.9-1 1.3-1 2.1-1 1.2.4.9 1m63.4 1.4c2.2 2.3 2.2 2.4.3 1.9a4 4 0 0 1-2.5-2.4c-.7-2.4-.5-2.4 2.2.5m123.2-.4c2.6 1.4 2.4 3.4-.3 2.7-1.2-.3-3-.1-4 .4-2.8 1.5-3.3.4-.9-2s2.6-2.5 5.2-1.1m-8.1 3.8q0 1.1-1 .7c-.5-.3-1-1.6-1-2.8q-.1-2.6 1-.7c.5.8 1 2.1 1 2.8m-204.3-1.2c-.3.3-1.2.4-1.9.1q-1.1-.5.6-.6t1.3.5M74 570q0 .9-.9 1-1-.1-1.6-1-.4-1 .9-1 1.5 0 1.6 1m59 .5c0 2-2.8 3.1-4.2 1.7-1-1 .8-2.3 4-3.1q.2 0 .2 1.4m-34.6 1.2c.4.9.2 2.1-.4 2.7-.5.5-1 2-1 3.2 0 2-.5 2.2-4.7 2.2-5.5 0-8.5-1.2-7.7-3.3.5-1.3.8-1.3 2.1 0a5 5 0 0 0 8.1-1.2c.6-1.5 1.2-3.3 1.2-4 0-1.9 1.7-1.6 2.4.4m196.6-1.3q0 .5-1 1.1-.9.4-1-.4.1-1 1-1.1 1 0 1 .4m34 .6q0 .9-.4 1-.5-.1-1.1-1-.4-1 .4-1 1 0 1.1 1m-165.5 1.7c1.9.6 1.8.6-.3 1.4q-4.6 1.9 3.1 4c2.3.6 5.6 2.3 7.2 3.9a37 37 0 0 0 5.4 4c2.1 1.1 2.6 1 3.7-.5 1.2-1.6 1.4-1.6 1.9-.2.9 2.1-.5 4.4-10.4 17.5-4.7 6.3-9.7 13.1-11.1 15.2l-9.1 13.6a198 198 0 0 0-17.4 31.4c-.8 2.3-3.8 6.8-6.7 10.1-4.5 5.2-5.6 6-7.9 5.5q-4.9-1-2.7 2.4c1.5 2.4-.3 4.8-4 5.2-2.2.2-2.6.8-2.7 3.3 0 2.7-.3 3-3.2 3-3.6 0-5.3 1.2-2.9 2.1 2 .8 2.1 2.8.2 4.3-1.1.9-1.9.9-3.5-.1-3-1.9-5.1.4-2.8 3 .9 1 1.7 2.2 1.7 2.5 0 1.2-2.3.7-4-.8-1.5-1.3-1.9-1.4-2.9-.1-1 1.1-.8 1.8 1 3.5s2 2.4 1 3.4-1.6.7-3.1-1.1q-3-3.6-4.6-1.1c-.3.6.6 2.3 2.1 3.9l2.6 2.7-4.9 5.9c-9.1 10.8-10 11.3-14.4 8.2-1.4-1-2-1-3 0s-.7 1.7 1.6 3.5c2.5 2.1 2.7 2.4 1.2 3.6-1.4 1.2-1.9 1.1-3.4-.3-1-.9-2.6-1.6-3.5-1.6-2.6 0-2 2.7.9 4.6 2.3 1.5 2.4 1.9 1 3.2s-1.8 1.4-3.9-.6q-4-3.9-5.3-.7c-.4.8.6 2.5 2.3 4q4 3.6.2 1c-2.3-1.4-5.9-1.2-5.9.3 0 .3 1 1.6 2.2 2.9q2.4 2.4.7 2.3c-.8 0-2-.5-2.6-1.1-1.6-1.6-3.5-.1-2.8 2.1.4 1.4-.2 2.3-2.4 3.5q-6.6 3.3-10.1-3.5a19 19 0 0 0-5.5-6q-3.8-2.3-2.9-3.9a43 43 0 0 0 4-20.2c.1-5.8.5-11.5.8-12.7 1-3-.2-2.8-1.4.3-1.1 2.9-2.2 3.1-4.4.9-1.9-1.8-2.3-12-.5-10.9.5.4 1.9-.1 2.9-1 1.9-1.7 2-1.7 2.9.9.6 1.4.8 3.2.5 4q-.4 1.4.5 2 1 .4 1.7-3.1c1.9-10.5 12.4-21.4 27.4-28.6 8.6-4 20-10.8 20-11.9q-.2-1.8-3.6.7c-4.9 3.7-4.5 1.9 2.5-12.7 3.3-6.8 6.4-14.9 7-18.1s2.4-10.6 4.1-16.5a157 157 0 0 0 4.2-19.2c.8-7 1.4-8.9 3.5-10.8 1.3-1.2 3.2-2.2 4.1-2.2s4.9-1.2 8.7-2.6c3.9-1.4 9.5-3.2 12.5-3.9s8-2.3 11-3.4a24 24 0 0 1 12.5-1.6c3.9.3 7.9.9 9 1.2m13.8.2c.4 1.7.2 1.8-1.9.9q-2.1-1.1-1.8-1.9c.9-1.6 3.2-.9 3.7 1m145.2-.4c0 .5-1.5 1.1-3.4 1.3-3.1.3-3.3.2-2.1-1.3 1.4-1.7 5.5-1.7 5.5 0m-10.5 1.6q0 1.8-1 1.4c-.5-.3-1-1.3-1-2.1s.5-1.4 1-1.4q1 .1 1 2.1m32 3.8c-.1 1.3-3-3.4-3-4.8q.1-1.2 1.5 1.3a15 15 0 0 1 1.5 3.5m-60.6-1.8q-.6.8-1.5.3t-.3-1.5q.6-.8 1.5-.3t.3 1.5m20.1-1.1q.4.9-.4 1-1-.1-1.1-1 0-1 .4-1t1.1 1m36.5 2.1q0 1.8-1 1.4c-.5-.3-1-1.3-1-2.1s.5-1.4 1-1.4q1 .1 1 2.1m-53-.3c0 1.3-1.2 2.2-2.2 1.6s-.1-2.4 1.3-2.4q.8.1.9.8m36.5 3.2c-.7 1.1-5.5.6-5.6-.5-.1-1.4 3.5-2.3 4.8-1.3q1.2 1 .8 1.8m24 5q1.2 3.5-.8.5c-.8-1.1-1.8-3.1-2.2-4.5q-1.2-3.5.8-.5c.8 1.1 1.8 3.1 2.2 4.5M179 581q0 .9-.4 1-.6-.1-1.1-1-.4-1 .4-1 1 0 1.1 1m97.1 2.9c-.6 1-1.8 2.4-2.7 3.2q-1.6 1.2-1.1.3l1.7-3.8q1-2.4 2-2.1 1 .7.1 2.4m13.4-2q.4.9-.5 1.6-.9.4-1-.9 0-2.7 1.5-.7m45.5 1.2q0 1.8-1 1.4c-.5-.3-1-1.3-1-2.1s.5-1.4 1-1.4q1 .1 1 2.1m-51.6 1q-.6.8-1.5.3t-.3-1.5q.6-.8 1.5-.3t.3 1.5m25.5 1.2q.1 3.1-.9.2-1.8-4.1 0-3c.6.3 1 1.6.9 2.8m15.1 0q-.1 1.2-4 1.2c-4.9 0-5.5-2.2-.7-2.7 3.8-.4 4.7-.1 4.7 1.5m-106 .7q-.1.9-1.1 1-.8-.1-.4-1 .6-1 1.1-1 .3 0 .4 1m80.3 4.2c-.3 2.4-1 5-1.5 5.8q-.9 1.4-.3-3.5c.7-4.7 1.2-6.5 2-6.5.2 0 .1 1.9-.2 4.2m-20.3-2.8q0 .5-1 1.1-.9.4-1-.4.1-1 1-1.1 1 0 1 .4m11.5 1.6q.4.9-.4 1-1-.1-1.1-1 0-1 .4-1t1.1 1m57.5.7c0 .9.7 2.4 1.6 3.4s1.4 2.5 1 3.4c-.8 2.3-2.6.9-2.6-2.1 0-1.3-.4-2.4-1-2.4q-.9-.2-1-2c-.1-1.8.5-2 1-2q1 .2 1 1.7m6.1 9.1c-1.4.5-.5 4.5 2 8.9 1 1.8 1.4 3.3.9 3.3-1.2 0-4-4.1-3.5-5q.3-.8-1-2c-1.8-1.5-2-4.7-.2-5.3.9-.3.8-1.2-.5-3.7-1-1.7-1.8-3.9-1.8-4.8.1-.9 1.3.5 2.7 3.3q2.4 4.8 1.4 5.3m-47.7-7.2q1.4 3.7-3.1 1.4c-2.6-1.2-2.7-1.3-.8-2.1 2.9-1.1 3.2-1.1 3.9.7m35 2.5c-.8 1.3-2.4.1-2.4-1.8q-.1-1.9 1.5-.3 1.3 1.2.9 2.1m-122.8-.2c-.8 1.3-6.6 4.2-6.6 3.3 0-.8 6.3-5.1 6.9-4.6q.1.3-.3 1.3m67.4-.4q0 1.3-1 1.5-.9-.2-1-1.5c-.1-1.3.5-1.5 1-1.5q1 .2 1 1.5m30.7 2.7q-.5 1-.5-1.2c0-2.2.2-1.9.5-1.3.2.7.2 1.9 0 2.5M326 595q-.1.9-1.5 1c-1.4.1-1.5-.5-1.5-1q.1-1 1.5-1c1.4 0 1.5.4 1.5 1m-6.3 4.7c-.4 1.7-.4 1.7-1.2 0-.4-.9-.4-2.5 0-3.5.8-1.6.8-1.6 1.2 0a7 7 0 0 1 0 3.5m-98.2-2.7q-.6.9-1.6 1-.8-.1-.9-1 .1-1 1.6-1 1.3 0 .9 1m79.5.4q0 .5-1 1.1-.9.4-1-.4.1-1 1-1.1 1 0 1 .4m-19 2.6q-.1.9-1.6 1-1.3-.1-.9-1 .6-1 1.6-1 .8 0 .9 1m13.4 6.2c-1.6 7.7-3.2 12.3-3.3 9.3-.1-1.1.3-3.6.8-5.5l1.6-7.3c.3-2.1 1-3.5 1.4-3.2.5.2.3 3.3-.5 6.7m16-3q-.7.9-1.5-.3c-1.4-2.2-1-3.3.6-1.9q1.3 1.3.9 2.2m7.1 4c.4 1.8.7 4.3.5 5.6a6 6 0 0 0 1 3.7c.7.8.9 2.3.5 3.2-1 2.7-2.1.1-3-6.7-.3-3-.9-6.3-1.1-7.3q-.4-1.5.4-1.7c.8-.2 1.3 1.5 1.7 3.2m3.5-2.3q0 1-1 1.6-.9.4-1-.9.1-1.5 1-1.6 1 0 1 .9m1 6.1q0 .9-1 1a1 1 0 0 1-1-1q.1-1 1-1t1 1m25.7 2.2q-.5 1.1-.6-.6t.5-1.3c.3.3.4 1.2.1 1.9m-173.7.2c0 1.6-3.7 3.2-4.8 2.1-.7-.7 2.5-3.5 4-3.5q.7.1.8 1.4m112.1 6.9c-.6 3.4-1.3 9.1-1.6 12.7s-1 8.5-1.5 11l-3.5 19-4 20c-.8 3-2.2 9.7-3.1 14.8-1.7 9.4-2.7 11.3-4.7 9.3a4 4 0 0 0-2.8-1.1c-2.1 0-6.9 4.8-6.9 6.9s-2.6 5.8-3.4 5c-.4-.3 0-2.4.8-4.6 1.4-3.9 3.4-11.6 7.8-30.3 3.9-16.7 9.6-34.9 18.6-58.9q7.1-19.5 4.3-3.8m-12.7-3q-.6 1.5-2 1.7c-1.7 0-1.7-.5-.3-3.2 1.3-2.4 3.3-1 2.3 1.5m85.1-1.2c.8 2.3.1 3.4-1.4 2.4-1.3-.8-1.5-4.5-.2-4.5q1 .1 1.6 2.1m-91.5-.7q0 .5-1 1.1-.9.4-1-.4.1-1 1-1.1 1 0 1 .4m87 .6q-.1.9-1.1 1-.8-.1-.4-1 .6-1 1.1-1 .4 0 .4 1m-10.6 2.1c-.8 1.4-2.4 1-2.4-.6q0-1.4 1.5-.9 1.3.7.9 1.5m-169.5 7c-.2 4-.3 9.6-.2 12.4.1 2.7-.7 10.4-1.7 17-1.1 6.6-2.1 14.4-2.3 17.4-.3 4.5-.8 5.8-3.1 7.6-3.1 2.4-2.7 5 .5 4.2 2.9-.8 2.2 1.4-1.8 5.5-3.7 3.8-3.9 6.3-.3 4 3.4-2.1 2.2 0-2.7 5-3.7 3.8-4.3 4.9-3.1 5.3.9.4 2.8-.1 4.3-1.1 1.4-.9 2.8-1.4 3.1-1.1.5.5-1.3 2-8.6 7.1-5.2 3.6-4.1 5.4 1.9 3 2.3-.9 4.4-1.4 4.7-1.1 1 .9-.6 2.7-2.3 2.7-2.5 0-10.3 4.2-10.3 5.6 0 2 3 2.5 6.2.8 1.6-.8 3.3-1.3 3.6-1 .7.8-3.9 4.2-5.1 3.8-1.5-.5-6.7 2.9-6.7 4.3q.1 1.3 1 1.5c1.6 0 1.1 1.8-1.1 3.9a18 18 0 0 1-7 3.1c-6.9 1.7-7.9.6-7.9-8.2 0-5.2-.6-8.4-2.6-13.1-2.7-6.2-6.3-21.7-6.4-27 0-3.5 3-9.4 6.5-12.7 1.4-1.3 6.1-9.3 10.3-17.8s10.2-18.8 13.4-23c4.9-6.6 6.3-7.8 9.9-8.7 2.4-.5 4.5-1.6 4.7-2.4.5-1.4-.9-1.3-5.2.4q-2.3 1.3-.8-1.1c1-1.8 6.7-4.5 8.6-4 .5.1.8 3.6.5 7.7m161.6-6.1a2 2 0 0 1-1.2 1.7q-1.2.4-1.3-1.7 0-2 1.3-1.8 1 .6 1.2 1.8m-30 0q.4.9-1 1c-1.4.1-1.3-.5-1-1q.6-1 1-1t1 1m45.9.6c1.1 2.8.6 3.9-.9 2a8 8 0 0 1-1.5-2.8c0-1.4 1.8-.9 2.4.8m-81.7 5.2c-.9 1-1.4 2.2-1 2.5.3.4.1 1.7-.5 3a392 392 0 0 0-11.7 34.4q-.7 2.3.4 2.3 1 .1 1.1 1.1-.1 1-1.4.6c-1.8-.7-8.8 20.6-8 24 .3 1.2-.1 3.4-.9 5-.9 1.5-1.8 4-2.1 5.4s-1.5 3.6-2.6 4.9a8 8 0 0 0-1.8 5.6c.1 1.8-.5 3.8-1.5 4.8s-1.4 2.3-1 3.2c.3.8-.3 2.4-1.2 3.4-1.7 1.9-1.7 2.1.1 4.1 1.9 2.1 1.9 2.1-.1 1.9-3.8-.4-4.5 0-4.5 2.7q0 2.7-1 1.7c-1-1 0-3.9 2.1-10l4.1-12.4a776 776 0 0 0 10.7-31.5c5.2-16.6 13.1-40.6 17.1-51.5l3-8.9q0-.4 1.2.7c.9.9.8 1.6-.5 3m76.9-2.3c.2 2.3 1.8 7.1 3 8.9.7 1 1 2.5.7 3.3s0 2.5.7 3.9c.8 1.3 1.1 2.7.7 3-.3.3.3 2.2 1.3 4.1a10 10 0 0 1 1.3 6.3c-.3 1.5 0 3.1.6 3.4.6.4 1.1 3.3 1.1 6.5 0 3.1.5 6.2 1.1 6.8q1.2 1.2.1 2.9c-.9 1.7-1.1 1.5-1.7-1.1-1.5-6.7-4.9-18.4-7.1-24.5a44 44 0 0 1-2.4-8.6 37 37 0 0 0-2-7.9c-2.6-7.5-2.6-8.7.3-8.3q2 .4 2.3 1.3m-23.7 1.3q-1.3 1.9-.1 3.8 1.3 2 1.2.4c.2-2.2 1.8 2 1.9 4.8q0 2-.9 1.7c-1.4-.9-1.3 9.8.1 11.2q1 1.2.5 2.9c-1.2 3-2.4.2-4.5-10.3-2.6-12.3-2.7-15.5-.6-14.7q1.4.5 1.5-.5.2-1.3 1-1.1 1 0-.1 1.8m5.8.2q.1 1.8-.8 2-.8 0-.9-.4l-.6-2q-.6-1.6.8-1.6 1.2.2 1.5 2m30.3 2.1q0 1.7-.9 1.9c-1.2 0-2.3-2.9-1.5-4.1.8-1.4 2.4 0 2.4 2.2m-22.8.1q-1.1 1-1.2.2c0-1.4 1.2-2.6 1.9-1.9q.3.6-.7 1.7m30.2 4.7c2.9 6.6 3.5 13.1 1.1 13.1q-2.7 0-.3-4c1-1.5.9-2.3-.7-4q-1.8-1.9-3.6-1.5c-2.2.7-3.4-1.2-1.9-2.9.6-.8.8-2.6.4-4q-.7-2.7.9-2.6c.8 0 2.6 2.6 4.1 5.9m85.6.1c0 1.6.5 3.2 1 3.5q1.2.7 0 2c-1.4 1.6.4 6.5 2.4 6.5q2.6 0 2.6 8.8 0 4.3 1.6 4.9c2.2.8 3.3-.7 4.2-5.8q.7-4.5 2.6-4.7c1.6-.4 1.8 0 1.3 2.7-.5 2.5-.2 3.4 1.7 4.7 2.3 1.4 2.4 1.9 1.9 8.6-.4 5.3-.2 7.2.8 7.8.7.5 1.9.5 2.5-.1 2.1-1.7 7.9.4 8.2 3q.6 2.5-1.5 1.8c-1.8-.6-6.8-1-9-.8q-1.2.3-1.3 2c0 2.3-3.1 3-12 2.6l-7.1-.4q-.7-.4-1.2-2.2c-.5-1.9-1.1-2.1-3.9-1.5q-6 1.1-6.4 6.3a28 28 0 0 1-5.9 13.3c-1 .8-3.2 1.9-4.9 2.5-2.5.8-3.2 1.7-3.8 5-.6 3.5-.3 4.3 1.8 6.1 2 1.6 2.4 2.6 1.8 4.7-.8 3.6-1.7 4-6.5 3.2-3.3-.6-3.9-1.1-3.8-2.8q.6-7.5-1.5-7.7c-1.9 0-2.8 1.6-3.6 6-.6 3.8-3.5 5-3.5 1.5 0-2.5-2.8-2.7-3.3-.2-.2 1-1.5 2.9-2.9 4.3-2.1 2.1-2.4 3.2-2 6.1.8 4.6-.2 9.3-1.9 9.3q-1.3 0-1.4-1.2c0-1.3-10.5-19.3-12.8-22-.8-1-1.6-4.1-1.8-7.1-.3-4.3 0-5.7 1.5-7.1s2.3-1.5 4.4-.5c3.3 1.5 6.1-.3 5.1-3.3q-.6-2 1.8-4.6c1.4-1.5 3.5-4.3 4.7-6.4 2.7-4.5 4.4-5.2 6.7-2.7 2.1 2.3 3.1 11.3 1.5 13.3q-1.5 1.8.4 8.3c.7 2.1 3.3.3 4.5-3l1.1-3.2 1.5 3.4c.8 1.9 1.3 4 1 4.7-.7 1.7 3 4.9 3.9 3.4.7-1.1.9-6.4.4-8.5-.5-2.2 1.5-9.7 3.1-11.7 1.4-1.7 2-1.9 3.8-.9 1.2.7 2.7.9 3.2.6 1.7-1 1.1-5.1-1.1-7.9-1.8-2.3-2-3.5-1.5-7.9.9-7.1 1.7-8 6.7-8.1l4.4-.1-.4-4.9c-.3-4.2 0-5.1 2.3-7s2.5-2.4 1.6-6.1c-1.5-6.1-1.2-7.1 2.1-11q5-5.9 4.9.5m-198.9-.3q-1.8 2.9-.5-1.2.7-1.4 1.1-1.1c.3.2 0 1.3-.6 2.3m63-1.4-.1 2.2q0 1.3-1 1.5c-.5 0-1-1.2-1-2.6q.1-2.3 1.1-2.2 1 .4 1 1.1m22.6 2c-.7 2.1-3.2 1.3-3.5-1.1-.3-2.1-.1-2.2 1.8-1.2 1.2.6 1.9 1.7 1.7 2.3m-78.9-.6q-.7 3.1-3.7 1.4c-1.8-1.2-.5-3.1 2-3.1q2 0 1.7 1.7m12.2.3q0 .9-.4 1-.6-.1-1.1-1-.4-1 .4-1 1 0 1.1 1m82 3.1q0 .8-1 .9-.9-.1-1-1.6.1-1.3 1-.9 1 .6 1 1.6m-98.4 3.1q.6 1-.4.4t-1.7.4-1.6.4-.4-1.5c.8-1.3 3.2-1.1 4.1.3m100.9 2.8q-.6.9-1.6 1-.8-.1-.9-1 .1-1 1.6-1 1.3 0 .9 1m-88.5 3q-.1.9-1.1 1-.8-.1-.4-1 .6-1 1.1-1 .4 0 .4 1m61 2c0 1-.4 2.1-.9 2.4-1 .7-2-2.3-1.4-4.2.6-1.7 2.3-.4 2.3 1.8m4.4-1.4c1 2.7.7 5.6-.6 5.2-1.5-.5-2.4-6.8-1-6.8q1 .1 1.6 1.6m9.6 1.2c0 1.9-1.8 4.2-3.2 4.2-1.2 0-.9-2.9.5-4.5q2.6-3 2.7.3m-42 2.1c0 1.1-.4 2.3-1 2.6q-1 .4-1-1.9c0-2.3.5-2.6 1-2.6q1 .2 1 1.9m-12.4 2.8c-1 1-1.9-.5-1-1.8q.8-1.6 1.2 0 .3 1.2-.2 1.8m26.6-.2c.3 1.4.1 2.8-.3 3.1s-.9-.9-.9-2.5q.2-5.7 1.2-.6m-49.8.6q-.6.8-1.5.3t-.3-1.5q.6-.8 1.5-.3t.3 1.5m29.6-.6q2.1 2.3-1.4.9-1.5-.6-1.6-1.5c0-1.4 1.6-1.1 3 .6m51 3.6c0 2-2.4 2.6-3.5.9-.8-1.3 1.4-4.2 2.6-3.4q.8.6.9 2.5m-92 1.5-7.5 23.6a146 146 0 0 1-7.4 20.8c-.4 0-1.5-.6-2.4-1.3-1.6-1.1-1.6-1.6-.2-6.3 1.5-5 5.6-14.5 13.7-31.6q6.4-13.3 3.8-5.2m47-1.5q0 .8-1 .9-.9-.1-1-1.6.1-1.3 1-.9 1 .6 1 1.6m23.7 1.1q-.5 1.1-.6-.6t.5-1.3c.3.3.4 1.2.1 1.9m-78.7.4q0 1.3-1 .9-.9-.6-1-1.6.1-.8 1-.9 1 .1 1 1.6m42 .9q0 1.3-1 1.5-.9-.2-1-1.5c-.1-1.3.5-1.5 1-1.5q1 .1 1 1.5m27.9 4.2q.1 9.4 2.2 10.2.9.4-.6 2.1c-1.4 1.6-1.4 2-.2 3.2a3 3 0 0 1 .8 3.3c-1.2 3.4.8 14.5 2.6 14.5q1.8-.1.4 1.4-1 1.5-.5 6.2c.3 2.7.6 6 .6 7.4s.4 2.8 1 3.1q1 .6 0 2.5c-1.3 2.7-.5 4.3 2.1 3.7l2.2-.6-2.3 2.2c-1.7 1.7-2 2.6-1.2 4.1.5 1 1 3.7 1 5.9q-.2 6.2 2.8 2.9 1.3-1.4 1.2.3c0 .8-.5 2-1 2.5-1.5 1.5.6 6.6 2.4 6.2q1.3-.2 1.5.7-.1.9-1.3.7-1.3 0-1.9 1.8c-.6 2.5-4.4 2.7-5 .2-.3-.9-.5-3.7-.6-6.1-.1-2.5-.4-4.8-.7-5.3a141 141 0 0 1-2-15.1l-2.5-24.2c-.5-5.5-1.2-12.9-1.4-16.5l-1.1-14.9q-.6-8.5.4-7.7c.5.3 1 2.7 1.1 5.3m-52.9-4.3q0 .5-1 1.1-.9.4-1-.4.1-1 1-1.1 1 0 1 .4m-22.9 5.9c-1.3 1.3-1.5-1.1-.4-4q.8-2.5 1.1.6c.2 1.3-.1 2.8-.7 3.4m59.6-.1q-.5 1-.5-1.2c0-2.2.2-1.9.5-1.3.2.7.2 1.9 0 2.5m48.3-2.3c0 1.2-2 2.5-2.7 1.8s.6-2.7 1.8-2.7q.8 0 .9.9m-21 1.1q0 .9-.4 1-.6-.1-1.1-1-.4-1 .4-1 1 0 1.1 1m-5 3.6q0 1.3-1 1.4-.9-.1-1-2.1.1-1.7 1-1.4c.6.3 1 1.3 1 2.1m-36.8 2.4c-.2 2.2-.9 4.3-1.5 4.7q-1 .6-.4-2.7c.4-1.8.7-3.9.7-4.6q0-1.3.8-1.4c.4 0 .6 1.8.4 4m59.7 1.7c1 2.1 4.4 8.5 7.6 14.3l11.6 21.7L371 715h-3c-2.6 0-3.3-.5-4.2-3q-2.1-5.8-7-4.1c-3.2 1.2-4.6 3-5 6.6q-.3 3.1-1.8 2.6c-5.4-1.5-7.8-1.2-9.4 1a9 9 0 0 0-1.6 4c0 .9-.8 2.4-1.9 3.3-1.7 1.6-1.9 1.6-2.5-.6-.3-1.3-.6-4-.6-6.2 0-3.1.3-3.7 1.6-3.2 2.7 1 10.4-1.5 12.1-4 1.4-2.1 1.3-3.5-.2-13.6-.9-6.2-2.1-14.5-2.5-18.3l-1.6-11.3q-1.2-7.8 2.5-.5M370 665q0 .9-.4 1-.5-.1-1.1-1-.4-1 .4-1 1 0 1.1 1m-59 2.5q0 1.3-.4 1.5c-.4.2-.6-.7-1-1.5q-.4-1.3.4-1.5 1 .2 1 1.5m22 2.2c.2.2-.1 1.3-.8 2.3-1.7 2.8-1.5 5.3.3 4.6 2.1-.8 1.9.8-.4 2.8-1.8 1.6-1.9 1.5-2.5-2.1l-1.2-6.6c-.6-2.7-.4-2.8 1.7-2.2 1.3.4 2.6.9 2.9 1.2m-100.9 4q-1.8 2.9-.5-1.2.7-1.4 1.1-1.1c.3.2 0 1.3-.6 2.3m52 1.6q-1.1 1.2-1.1-.4c0-2 1.3-3.4 1.8-1.9q.3 1.2-.7 2.3M306 673q-.1.9-1.1 1-.8-.1-.4-1 .6-1 1.1-1 .4 0 .4 1m5 0q-.1.9-1.1 1-.8-.1-.4-1 .6-1 1.1-1 .4 0 .4 1m58.5 1q-.6.9-1.9 1-1.4.2-2.6 1.5t-2.1.9q-2.5-1.5 2.4-3.2c4.3-1.3 4.9-1.4 4.2-.2m-9.5 3q0 .9-.4 1-.5-.1-1.1-1-.4-1 .4-1 1 0 1.1 1m139-.3c-.1 1.5-3 4.6-3.7 4-.3-.4.2-1.6 1.2-2.7q2.7-3 2.5-1.3m-19.4 3c.4 1.6.8 3.7.8 4.8a35 35 0 0 0 4 8.8c4 7.1 4.2 8.6.8 6.8-1.2-.6-3.3-1.1-4.9-1.1a7 7 0 0 1-4.6-2c-.9-1.1-2.4-2-3.2-2-1.9 0-1.2-3.9 1.6-8.8q2-3.4.6-3.7l-2.7-.8q-1.5-.4 1.3-1.6c1.5-.6 2.7-1.5 2.7-2.1 0-2.2 2.8-.8 3.6 1.7m5 4c-1.4 1.4-2.3-.9-1.3-3.2l1.2-2.5.3 2.6c.2 1.4.1 2.8-.2 3.1m-200.6-3c-.1 1.8-1.8 3.5-2.4 2.4-.4-.6-.4-1.6-.1-2.1.7-1.2 2.5-1.3 2.5-.3m-69.8 5.5a3 3 0 0 0 2.6 2.6c2.9.4 2.8 2.2-.3 6.8-3.8 5.6-3.7 8.1.7 13.6 2.5 3.3 3.5 3.8 7 3.8 3.2 0 4.7-.7 7.4-3.4 1.9-1.9 3.4-4.3 3.4-5.4 0-2.7 1.8-3.8 2.7-1.6.6 1.5-2.7 13.3-4.5 16.2-1.2 1.8-4 .4-4.4-2.1-.4-2.9-3.2-2.8-3.6 0s-1.8 2.8-14.1 1c-7.2-1.1-8.7-1.7-10.4-3.9-1.1-1.5-1.7-3.4-1.4-4.2.8-2 4.6-2.1 5.3-.1.7 1.7 3 2 3.9.5.4-.6.1-1.8-.6-2.6-1.7-2.1-1.3-15.6.6-20.1 1.7-3.9 5.2-4.6 5.7-1.1m15.8-.6q-.1 1.3-1 .9-1-.7-.5-1.6 1.4-2 1.5.7m-105.6 1.6a109 109 0 0 0 7 28.6c2 3.8 1.4 5.2-2 5.2q-2.4 0-3.4-2.4a7 7 0 0 0-3.8-3.4 7 7 0 0 1-4.2-4.1c-1.5-3.6-4.8-4.8-8.2-3q-4.7 2.5-4.8 6.7-.1 2.2-3.2 4.2c-3.2 1.9-6.8 2.7-6.8 1.4 0-1.8 26.7-35.4 28.1-35.4q.7.2 1.3 2.2M312 686c0 1.3-2 1.3-4 0q-1.9-1.1 1.3-1c1.5 0 2.7.4 2.7 1m-30.8 11.5c-1.4 7.7-2.2 10.1-3.5 10.3q-1.7.4-1.7-1.8 0-2 1.1-1.4 1.2.8.6-2.7a21 21 0 0 1 2.9-13.7c2.5-3.8 2.6-2 .6 9.3m52.8 1.8c0 2.5.3 2.7 2.3 2.2l3.8-1.1c1.7-.5 3.3 1.9 2.2 3a8 8 0 0 1-3.5.6c-4.1 0-3.7 2.8.5 3.2 4.1.4 4.3 2.9.2 4-5.4 1.4-6.2.6-6.9-8.5l-1.1-12.2c-.5-3.8-.4-3.8 1 1 .8 2.7 1.5 6.3 1.5 7.8m-33.4-6.5c-1.2 1.1-1.8-.7-1-3l.8-2.3.4 2.3c.2 1.3.1 2.6-.2 3m10.4-.2q0 1.4-1.2 1.2c-1.8-.6-2.1-2.8-.4-2.8q1.5.1 1.6 1.6m-53 .9q0 1.3-1 1.5-.9-.2-1-1.5c-.1-1.3.5-1.5 1-1.5q1 .1 1 1.5m37.1 20.8c.3 12.8.1 16.1-1 16.5q-1.3.5-.7-1.6.6-2-.9-3.4c-4.4-3.7-4.3-3-2.4-15l2.5-15.3.8-4 .7 3.3c.4 1.9.8 10.6 1 19.5m80.4-21.3q.4.9-.9.4-2.7-1.2-.7-1.4 1 0 1.6 1m-152.1 10q-.6 2.6.4 1.1 1.1-1.2 2.5-.8 1.5.6 2.7-2.4c1.4-3.2 3-3.9 3-1.2s-3.4 7.7-6.5 9.3c-2.7 1.4-2.8 1.4-5.6-2a17 17 0 0 1-2.9-4.2c0-.5 1.2-2.7 2.7-5l2.8-4.1.7 3.4c.4 1.9.4 4.5.2 5.9m118.6-7q0 .9-1 1a1 1 0 0 1-1-1q.1-1 1-1t1 1m104.7-.4q-.7.5-1.9.1t.6-.6q1.8 0 1.3.5m-68.7 2.5q0 .9-1 .4t-1-1.6q.1-.9 1-.4a2 2 0 0 1 1 1.6m119.3-.6q-.6 1.5-1 1.1-.4-.5.2-1.5c.9-1.6 1.5-1.3.8.4m-26.6.5h5.2l-.6 3.5c-.5 2.8-.2 3.5 1.1 3.5q1.5-.1 2.3-1.6c.5-1.3 1.4-1.5 4.4-1 6.8 1.1 8.9 2.5 8.9 6.2 0 4.7-1.7 8.7-3.5 8q-1.4-.4-2 .5c-1.3 2-2.3 23.4-1.2 24.5q2.2 2.4-2.8 2.4c-3.4 0-6.3-2.8-5-4.9.9-1.6-.6-4.1-2.5-4.1q-1.9-.1-2.5 3.7c-.4 2.1-.9 4.1-1.2 4.5-.7 1.3-4.3-1.2-4.3-3 0-1.7-6.2-14.5-8.2-16.9-2-2.5-4.6-1.3-8.7 4.2-5.3 7-5.7 8.2-3.7 10.4 1.5 1.7 1.5 1.9 0 3.2-1.4 1.2-9.3 1.3-46.3 1.1-24.5-.2-44.9-.6-45.3-.8q-.8-.6-.8-2.5c0-3-4.7-2.6-6.2.6-1.1 2.4-1.6 2.6-6.2 2.3l-5.1-.3-.1-4.8c-.1-2.6 0-4.7.3-4.7s1.1 1.6 1.9 3.5c1.3 3.2 4.4 4.9 4.4 2.5q0-1 1.2-1c.6 0 1.9-.7 2.8-1.5s3.1-1.6 5-1.7c3.1-.3 3.5 0 3.8 2.2q1 6 4.1 2.2c1.5-2.1 2.8-2.4 11.2-2.9 8.7-.5 9.5-.4 11.3 1.6 2.6 2.8 10.8 2.9 15 .2 2.3-1.5 3.4-1.7 4.9-.9 3 1.6 5-1.2 5.1-6.9l.1-4.8 5 .3 11.3.5 6.2.2v3.6c0 3.6 2.1 6.6 3.8 5.5.5-.3.6-4.3.4-9q-1-17.6 2.9-17.6 1.8-.1 1.9-1.6c0-1.3-.7-1.5-3.1-1-3.8.7-5.9-.7-5.2-3.5s3.9-3.8 8.4-2.8c2.3.5 7.2.3 13-.5a64 64 0 0 1 18.6-.6m-159.7.4q-.2.4-2 .9t-1.4-.4c.5-.9 3.4-1.3 3.4-.5m-82.5 1.6q-.7.9-1.6 1-.9-.1-.4-1a2 2 0 0 1 1.6-1q.9 0 .4 1m27.5 0q0 .9-1 1a1 1 0 0 1-1-1q.1-1 1-1t1 1m-61.4 2.8q1 2.7.2 5.4c-.7 1.9-.5 3.5.6 5.7 2 3.8 2 4.1-.4 4.1-1 0-3.1.5-4.5 1.2-2.3 1-2.9.9-5.2-1.4-2-2-2.4-3.2-1.9-5.3.6-2.2 1.2-2.6 3.4-2.3 2.5.3 2.7 0 2.7-3.3.1-3.4 1.8-6.9 3.4-6.9q.7.2 1.7 2.8m185.4.3q0 .9-1 .4t-1 .4q.1 1 1 1.1c.6 0 1 1.1 1 2.4s.7 2.9 1.5 3.6 1.5 1.9 1.5 2.6c0 3-1.7 1.1-4.4-4.7-2.2-4.8-2.5-6.3-1.5-7 1.5-.9 2.9-.3 2.9 1.2m-70 .8c0 1.2-2 2.5-2.7 1.8s.6-2.7 1.8-2.7q.8 0 .9.9m-56.4 3.8c-1 1-1.9-.5-1-1.8q.8-1.6 1.2 0 .3 1.2-.2 1.8m119.2-.3q.4 1.8-1 1.4a3 3 0 0 1-1.6-2.2q-.4-1.8 1-1.4c.7.3 1.5 1.3 1.6 2.2m-71.8 3.1c0 2.5-.4 4.5-.8 4.5-.6 0-.9-7.7-.3-8.8s1.1.6 1.1 4.3m16.6 11.3c.6 8.8.5 9.4-1.2 9-1.7-.3-1.9-1.4-2.2-9.3-.2-5 0-10.6.4-12.5l.7-3.5.8 3.5c.4 1.9 1.1 7.7 1.5 12.8M310 710q0 .9-1 1a1 1 0 0 1-1-1q.1-1 1-1t1 1m-40.6 1.9c1.6 1.7 1.7 2.6.7 7.1-1.7 7.7-1.4 8.8 2.2 10.6 4 2.2 2.1 3-2.5 1.1-3.1-1.3-3.7-2.2-5.2-7.7-1.8-6.3-1.5-10.8.7-12.2 1.8-1.1 2.2-1 4.1 1.1m-154.9 1c.7 2.2-1 7.1-2.5 7.1-.6 0-1.6-1.1-2.2-2.5-.9-2.1-.8-2.8.7-4.5 2.3-2.5 3.2-2.5 4-.1m134-.9q.4.9-.9 1-1.5-.1-1.6-1 0-1 .9-1t1.6 1m29.9 2.3q-.6 1.5-2 1.7c-1.7 0-1.7-.5-.2-3 1.4-2.2 3.2-1.2 2.2 1.3m83.1 2.2c1.7 5.8 2.5 6.5 4.5 4 1.7-2 3-1.9 3 .3 0 3 2.1 4.4 4.1 2.6 1.5-1.4 1.8-1.1 3.7 2.7 1.2 2.3 1.9 4.6 1.6 5.1s-4.3.8-8.9.8h-8.4l-4-5.9c-3.1-4.5-3.6-5.8-2.3-5.7q1.8.2 1.4-2.4c-.9-8.2 3.1-9.3 5.3-1.5m-109.5-3q0 1.3-1 1.5-.9-.2-1-1.5c-.1-1.3.5-1.5 1-1.5q1 .2 1 1.5m136.4 5.3q2.4 3.8 1.9 6.4c-.5 2.5 1.4 4.6 4.2 4.6 3.4.1-.9 5.8-5.2 6.9q-4.3 1.2-6.4-5.5c-.6-2-2.2-5.5-3.5-7.8-2.7-4.5-2.9-5.4-1.4-5.4.6 0 1.5 1.1 2 2.5s1.6 2.5 2.4 2.5c2 0 3.6 3.2 3 5.7-.7 2.4 1.3 4 2.9 2.4q1.1-.9-.9-5.2c-1.4-3.2-1.5-4.4-.6-4.7 1.9-.6 1.4-1.9-1-2.7q-2.2-.6-1-1.2 1-.5.6-1.4t0-.9c.4-.1 1.7 1.7 3 3.8m-78.8 7c-1.3 1.2-1.6-.8-.9-4.9l.8-4.4.3 4.4c.2 2.3.1 4.6-.2 4.9m101.8-4.7c-.6 1-4.4 1.2-4.4.3 0-.3.5-1.5 1.1-2.6 1.1-2.1 1.2-2.1 2.5-.3.7 1 1.1 2.2.8 2.6m-110 .2q.6 2.8-.4 2.2c-.5-.3-1-1.8-1-3.2q0-4.7 1.4 1M34 719.9c0 1-3.5 2.1-6.5 2.1-1.8-.1-1.7-.2.5-1.5 2.8-1.6 6-1.9 6-.6m243-.5q0 .5-1 1.1-.9.4-1-.4.1-1 1-1.1 1 0 1 .4m69.7 1.1c.5 1.5-2.1 4.4-3.9 4.5-1 0-1-4.4-.1-5.3 1.2-1.2 3.3-.7 4 .8m-96.7-.1q0 .5-1 1.1-.9.4-1-.4.1-1 1-1.1 1 0 1 .4m-45.1 2.5q-2.4 2-3.1.8c-1.4-2.1-.8-2.7 2.3-2.7h3.1zm-35.9.1q-.2 1-2.1 2-1.8 1.2-1.6 2.4c.3.7-.8 1.8-2.3 2.4-1.5.7-3 2-3.4 3s-1.1 2.5-1.8 3.5c-1.1 1.4-1.1 1.9 0 2.6.8.5 1.4 2.7 1.4 5.4 0 5.4 2 8.9 3.9 7 1-1 1.6-.7 3 1.4 1 1.4 1.5 3.2 1.2 3.9q-.3 1.4 2.2 2.4c3.8 1.4 4.5 1.3 4.5-1q.1-1.8 1-2c1.4 0 1.2 2.4-.2 3.8q-1.5 1.3.2 2.2c1.7 1.1 4-1.3 4-4.1 0-2.2 1.6-3.3 3.3-2.2.6.4 2.8.8 4.7.9a59 59 0 0 1 17.6 2.6q.5 1-1 2.6-1.6 1.6-1.6.4-.1-1.1-.8-1.2-.8.2-.8 2.2.3 2.1-4.6 5.1c-4.1 2.5-5 2.8-6.4 1.6-1.3-1.1-1.7-1-2.5.4-.9 1.6-1.2 1.6-3.4.1s-2.5-1.5-2.5-.1c0 2.3-1.8 3.1-3.7 1.6-1.3-1.1-1.7-1-2.8.4-1.2 1.6-1.3 1.6-1.8-.4-.7-2.5-3.2-2-3.2.7q-.2 1.7-1.8 2.2-1.6.2-1.7-1.1-.2-1.8-1.4-2.6c-1.1-.9-1.5-.8-2 .5-.3.9-.3 2.1.1 2.7q.6 1-1 .4c-.9-.3-3 .1-4.6.9-2.6 1.3-2.9 1.8-2.1 3.5 1.3 2.3.2 2.5-1.5.2-1.8-2.4-3.7-.7-3 2.8.6 2.8-.7 4-2 1.9-1.1-1.8-2.4-1-2.7 1.7-.3 2.5-.7 2.8-4.8 3.1-6.9.4-7.7-.5-6.2-7.6.7-3.2 1.2-7.3 1.2-9q0-3.2 1.4-3.2c2.3 0 2.9-2 1.2-3.9q-3.5-3.6 1-2.5c2.3.6 2.5.4 2.2-1.7q-.3-2.3-2.8-2.9-2.6-.4-2.8-3.3c-.3-2.4 0-2.7 2.8-2.7 1.7 0 4 .5 5.2 1.1 1.8.9 1.9.8 1.3-1-.5-1.6.2-2.8 2.6-5 3.9-3.6 3.5-6.7-.9-5.6-1.5.3-5.1.9-7.9 1.1-4.9.5-5.3.4-5.3-1.7q-.1-2.3 1.8-1.3c2.4 1.1 8.2.8 9.5-.5.6-.6 2.1-1.1 3.4-1.1q2.4 0 10.6-8c8-7.8 9.7-9 9.7-7m30 0q-.1.9-1.1 1-.8-.1-.4-1 .6-1 1.1-1 .3 0 .4 1m59.8.2c1.6 1.6 1.5 3.8-.2 3.8-1.3 0-2.6-2-2.6-4.1 0-1.3 1.4-1.1 2.8.3m-144.2.9c.3.5 4.8.9 10 .9s9.4.3 9.4.6-1 1.4-2.2 2.4c-2.1 1.7-2.4 2.7-2.7 10.9l-.1 3.3-18.7-.6-25.2-.6c-5 0-6.2-.3-5.8-1.4a44 44 0 0 1 11.2-13.1l7.5-1.8c6.1-1.6 15.8-1.9 16.6-.6m99.4-.2c0 .5-1 1.3-2.2 1.7a8 8 0 0 0-3.5 2.3q-1.1 1.4-1.3.4c0-1.2 4.7-5.3 6.1-5.3q.8 0 .9.9m9.6 2.8c-1 1-1.9-.5-1-1.8q.8-1.7 1.2 0 .3 1.2-.2 1.8m53.4-1.2q1.6 1.6-.3 1.5c-.8 0-2-.7-2.7-1.5q-1.6-1.7.3-1.5c.8 0 2 .7 2.7 1.5m-91.9.5c1.7 0 .9 1.8-1.4 3.3s-2.4 1.4-2.4-1.4q0-3.2 1.4-2.4c.8.3 1.9.5 2.4.5m167.2.8c2.2 2.4 1.3 3.2-3.5 3.2-4.2 0-4.6-.5-2.1-3.2 2-2.3 3.6-2.3 5.6 0M220 728q0 1.8-1 2-.9-.2-1-2c-.1-1.8.5-2 1-2q1 .2 1 2m238.9 2c1.1 2.2 1.6 4.2 1.1 4.5s-1.6-1.1-2.5-3.1c-2.7-6.5-1.8-7.5 1.4-1.4M7.5 727.9c-.6.4-2.3 1.1-4 1.4l-3 .6 3-1.4c3.5-1.6 5.4-1.9 4-.6m223.5 0c0 .5-.8 1.7-1.7 2.7-1.8 1.8-3 .6-1.9-2.1.6-1.6 3.6-2.1 3.6-.6m59 2.7q0 1.4-3.7 1.4h-3.6l2.3-2.5c1.8-1.9 2.6-2.2 3.7-1.4a4 4 0 0 1 1.3 2.5m49.2-1.4q-1.1 1-1.2.2c0-1.4 1.2-2.6 1.9-1.9q.3.6-.7 1.7m-123.3 2c-.1 3.1-.1 3.1-.8.8-.5-1.4-.6-2.8-.4-3.3q1.4-2.2 1.2 2.5m67.4 4 12.7-.1v7.4l-23.7-.3c-13.1-.1-24.4-.5-25.1-.7q-1.3-.4-.3-2.2c.6-1 1.9-3.9 3-6.5l1.9-4.6 9.4 3.5c8.9 3.4 9.8 3.5 22.1 3.5m211.3 0c-.6 3.4-.4 4 1.4 4.5 1.1.3 2 1.4 2 2.4 0 1.6-.8 1.9-4.1 1.9h-4l.5-5a26 26 0 0 1 1.6-7c1.7-3.2 3.3-1.3 2.6 3.2M226 732.4c0 .8-.4 1.8-1 2.1q-.9.4-1-1.4.1-2 1-2.1 1 .1 1 1.4m-45.3 1.8q-.5 1.1-.6-.6t.5-1.3c.3.3.4 1.2.1 1.9M310 733q0 .9-1 1a1 1 0 0 1-1-1q.1-1 1-1t1 1m-139 1.6q-.1.4-1.5.4c-1.4 0-1.5-.4-1.5-1q.1-.8 1.5-.4 1.4.6 1.5 1m148 .9q0 1.4-2.5 1.5c-2.5.1-2.5-.6-2.5-1.5s.9-1.5 2.5-1.5 2.5.6 2.5 1.5m-97.4 1.6c.8 1.4-1.1 3.3-2.5 2.5-1.1-.7-.4-3.6.9-3.6q.9.1 1.6 1.1m5.5 4.2c-2.1 2.1-3.2-.7-1.3-3.3l1.7-2.5.3 2.4c.2 1.3-.1 2.8-.7 3.4m14.9-3.4c0 1.8-1.8 2.1-3 .6-1-1.3-.9-1.5.9-1.5 1.1 0 2.1.4 2.1.9m220.8 2.8c.3 2.2 0 2.3-5.8 2.3-6.2 0-6.5-.2-3.7-3.8.6-.8 2.6-1.2 5.1-1 3.4.2 4.2.7 4.4 2.5m-144.1-.1q.1 1.1-2.2 1.6c-2 .4-2.5.1-2.5-1.4q-.1-2 2.2-1.6c1.2.2 2.3.8 2.5 1.4m-84.7.4q1.3.9.8 1.5c-1 1-4.9-.5-4.3-1.6.8-1.1 1.6-1.1 3.5.1m70.5 4q.4.9-.4 1-1-.1-1.1-1 0-1 .4-1 .6 0 1.1 1m-171.7 2.7c.6.9 1.2 2.1 1.2 2.6s-10.4.7-26.2.3l-31.7-.6c-5.3 0-5.4 0-3.6-1.9 2.2-2.5 4-2.7 34-2.3 21.8.3 25.2.5 26.3 1.9m98.7-1.8c1 1.7 9.4 2.5 11.1 1 1.2-.9 7.7-1.3 26.9-1.3l25.4-.1.4 2.5c.3 1.4.3 2.8.1 3.1-.3.5-71.4.1-115.2-.6-8-.1-10.1-.9-10.2-3.8 0-.4 12.6-.7 28.1-.7 15.4.1 28.3-.1 28.7-.4.9-.9 4-.7 4.7.3m78 .1q.4.9-.9 1-1.8 0-2.1-1t.9-1q1.8 0 2.1 1m-271.2 5.8c.9.8 1.7 2.5 1.7 3.8 0 3-2.1 8.2-2.7 6.6-.7-1.9-2.3-.4-2.3 2.3 0 1.3-.4 2.6-.9 2.9s-1.4 2.7-2 5.2c-1 3.9-.9 4.9.4 6.4 1.7 1.8 2.1 5.5.5 4.5q-1-.7-.5-1.6.5-.8-.7-.9c-1.2-.1-1.9-1.4-2.7-3-1-2.4-1-3.4-.1-4.5.7-.8 1-2.6.8-4-.3-1.4-.2-2.5.1-2.5s.6-2.9.6-6.5c-.1-5.7.1-6.5 1.7-6.5 2.1 0 2.4-2 .6-3.9q-1.7-1.6 1.2-.6c1.4.4 3.3 1.4 4.3 2.3m270.7.6q0 .6-1 1.1-.9.4-1-.4.1-1 1-1.1 1 0 1 .4m-249.4 6.1c1.8 1.3 1.7 1.4-1.7 1.5-3.4 0-7.7 2.9-6.3 4.2q.4.6-.5 1.3-1 .5-1.1-2.3c0-2.2.7-3.2 3.3-4.5 4-2 3.9-2 6.3-.2m249.4.5q0 .9-1 1a1 1 0 0 1-1-1q.1-1 1-1t1 1m-280.8 3.2q-1.1 1-1.2.2c0-1.4 1.2-2.6 1.9-1.9q.2.6-.7 1.7m272.5 5q-.5 1-.5-1.2c0-2.2.2-1.9.5-1.3.2.7.2 1.9 0 2.5M61 766q0 .9-1 1a1 1 0 0 1-1-1q.1-1 1-1t1 1m247 4.5q0 1.3-1 1.5-.9-.2-1-1.5c-.1-1.3.5-1.5 1-1.5q1 .2 1 1.5m-251.5.5q.5.9-.4 1c-.5 0-1.3-.5-1.6-1q-.5-1 .4-1a2 2 0 0 1 1.6 1m247.1 3.8q-.7.4-2.4-1.2-2.6-2.6.6-.6 2.1 1 1.8 1.8M67 777q0 .9-1 1a1 1 0 0 1-1-1q.1-1 1-1t1 1m-29.5 1q.4.9-.4 1-1-.1-1.1-1 0-1 .4-1t1.1 1m123.5 1q0 .9-1 1a1 1 0 0 1-1-1q.1-1 1-1t1 1m-110 3c0 .5-1.1 1-2.5 1s-2.5-.5-2.5-1 1.1-1 2.5-1 2.5.4 2.5 1m-8.4 3.9q3.4-.6 3.4 1.7 0 1.5-1.5 1.1-1.4-.5-2.1.4c-.3.6-1.2-.2-2-1.6q-2.7-4.9 0-2.6c.8.6 1.8 1.1 2.2 1m-6.6.1q0 .9-.4 1-.5-.1-1.1-1-.4-1 .4-1 1 0 1.1 1m-3 1q0 .9-1 1a1 1 0 0 1-1-1q.1-1 1-1t1 1m18 1.4c0 2-1.9 3.1-3.2 1.8q-.9-1-.4-2.1c1-1.6 3.6-1.3 3.6.3m-11.7 9.5c-1.6 1.5-1.6 1.5-1.1-.1q.6-1.6-.8-2.2c-1.2-.5-1.1-.9.3-2.6 1.8-2 1.8-2 2.5.6q.8 2.7-.9 4.3m12.5 1.2q-.4 1-1.3 1-1.2 0-1.3-1t1.3-1.1c1.5-.1 1.5.5 1.3 1.1m3.2 3.8q0 1-1 1.6c-2 1.3-1 2.7 1.5 2.1q2.6-.7 2.5.8c-.1 1.5-5 3.1-5.6 2.3l-.7-4c-.5-3.2-.3-3.7 1.4-3.7q1.7 0 1.9.9m11.2 9.7a4 4 0 0 1 2.2 2c.6 1.6-1 2.9-1.9 1.4s-2.5-1.2-2.5.4c0 2-3.2 2.8-7.5 2-4.4-.8-4.7-2.5-.2-2l3.5.5c.9.3 1.7-.3 1.4-1.1-.5-1.9 1-4.9 2.1-4.4zm-15.8 4c.7 1.8-2.4 1.9-4.9 0q-1.7-1.3-1.2-3c.6-1.5.9-1.5 3.1-.1 1.3.9 2.7 2.3 3 3.1m31.3-.3c4.8 3.2 5.2 4.7.6 2.4-2.3-1.2-3.3-1.2-5.8-.2-3.7 1.6-6.5.3-6.5-3 0-4.3 4.6-4.1 11.7.8"/><path d="M381.5 71q-.4.9.4 1 1-.1 1.1-1 0-1-.4-1t-1.1 1m53.9 151.2-1.9 2.3 2.3-1.9q3.1-2.7 1.9-2.6c-.2 0-1.2 1-2.3 2.2M326.7 357.6c-.4.4-.7 2.7-.7 5s-.4 5.4-1 6.9c-.8 2.1-.7 2.7.7 3.2 2.8 1.1 4.4-2.6 4.1-9.1q-.5-8.4-3.1-6m-103.8 26.3a69 69 0 0 0-15.6 16.9c-.7 1.3-1.3 3.3-1.3 4.4 0 3.4 2.4 1.5 5.3-4.2 1.5-3 4-6.7 5.5-8.3 3.5-3.8 11.1-8.7 13.4-8.7q1.7-.2 1.8-1.5c0-2.4-4.3-1.8-9.1 1.4m32.8 39.7c-2.3 2.4 1.3 21.2 4.2 22.2q1.6.7.7-1.9c-.4-1.3-1.2-6.2-1.8-10.9-1.1-8.4-1.8-10.7-3.1-9.4m-41 39.1c-1.5 1.5-.4 3.8 4.4 9.4s7.1 7 8.3 5a62 62 0 0 0-11.5-15q-.6 0-1.2.6m94.8-67.3c-3.8 1.6-6.5 4.6-4.2 4.6s10.7-4 10.7-5c0-1.4-2.9-1.2-6.5.4m-15.7 10.4c-3.7 4.4-6.4 11-5 12.4s2.4.5 4.2-4.2c.7-1.9 2.4-4.9 3.7-6.7 2.7-3.7 2.8-4.3.9-4.3-.8 0-2.5 1.3-3.8 2.8m3 5.4c-3.2 5-4 9.8-1.7 9.8.6 0 5.9-10.4 5.9-11.6 0-1.4-3 0-4.2 1.8m68.7 2.8c-.7 1.2.2 3 1.6 3q.8-.2.9-2c0-2.1-1.5-2.7-2.5-1m-63.3 3.7c-.7.3-1.9 1.8-2.7 3.4-.9 1.7-2.4 2.9-3.5 2.9-1.7 0-2 .7-2 4.5q0 4.3 1.2 4.5c.6 0 2 .7 3 1.6 1.7 1.6 1.7 1.4 1.5-4.2-.2-4.8.2-6.5 2.2-9.2 2.4-3.4 2.5-4.2.3-3.5m2.3 9.8c-1.7 5.6-1.7 10.6-.1 10.5.5 0 1.1-2.1 1.2-4.7.1-2.7.7-6 1.3-7.5.6-1.6.7-3 .1-3.3s-1.6 1.9-2.5 5m-17.1 0c-.9 2.1 2.5 9.4 4.9 10.6 1 .6 2.5.8 3.3.5 1.2-.4.7-1.4-2-4.2-2-2.1-3.6-4.5-3.6-5.5 0-2.4-1.9-3.4-2.6-1.4m22.1 8.8c-.4 1-.5 2.1-.1 2.4 1 1 1.8-.4 1.3-2.4-.4-1.7-.4-1.7-1.2 0m9.1 2.2q-.4 1.4.3 2 .8.3 1.5-1 .4-1.4-.3-2-.8-.3-1.5 1m5 1.4q-.6 1.2-.2 1.8c.9.9 1.9-.4 1.4-1.8q-.4-1.7-1.2 0m4.9 2.1q-.4.9.4 1 1-.1 1.1-1 0-1-.4-1t-1.1 1m13.6 4.4q-1 1.4-.3 2 1 .4 2.1-.8 1-1.4.3-2-1-.3-2.1.8m5.6-.7c-.4.3-.7 1.9-.7 3.5 0 4 2.4 3.1 2.8-1q.3-4.7-2.1-2.5m4.2 1.6c-1.2 2.7-.6 6.2 1 5.3 1.4-.9 2.3-5.8 1.2-6.9q-1-1-2.2 1.6M167 583.5q0 1.3.9 1.5c.4 0 2.9 1.6 5.5 3.6q6.4 4.8 6.6 1.4c0-1.4-9.2-7.9-11.2-8q-1.7.2-1.8 1.5m1.5 7.4c-.6 1 4.6 5.1 6.4 5.1 2.2 0 1-3-1.9-4.5-3.4-1.8-3.7-1.8-4.5-.6m-1.3 6.8q.5 1.6 2.6 2.1 3.7.4 1-2.6c-1.8-1.8-4-1.5-3.6.5m-1.2 5.8q0 1.5 1.8 1.3c2.1-.4 1.9-2.2-.2-2.6q-1.5-.3-1.6 1.3m-3.5 6.6c-1 1.5.1 2.3 2 1.5q1.4-.6 1-1.6c-.8-1.3-2.2-1.3-3 .1M158 619q.1.9 1 1 1-.1 1-1t-1-1a1 1 0 0 0-1 1m-75 95.4c0 .7.7 1.9 1.5 2.6 1.9 1.6 4.1-.1 3.2-2.4-.8-2-4.7-2.1-4.7-.2m84.5-85.9c-1.9 1.5-1.9 1.5 1 1.3 1.7-.2 2.9-.7 2.8-1.3q-.6-2.4-3.8 0m307.9 59.6c-.8 1.4 1.1 3.3 2.5 2.5a3 3 0 0 0 1.1-2.2c0-1.6-2.6-1.9-3.6-.3M462 703.3l-3.5 1.1 3.8 1c3.5.9 3.7 1.2 3.7 4.8q0 4 1.5 3.8c2 0 2.9-4.3 1.6-6.9-.6-1.1-1-2.6-.9-3.3.4-1.6-2-1.9-6.2-.5m-21.5 2.6c-.9 1.5 1.3 2.3 4.5 1.6 4.5-1 4.6-2.5.1-2.5-2.2 0-4.2.4-4.6.9m38.6 1.5q-1.3 1.1 2 3.5c4.4 3.3 8.2 1.4 4.2-2.1q-4.2-3.5-6.2-1.4m-24.5 1.5q-.4 1 .8 2c1.6 1.3 3.2-.2 2.1-1.9-.8-1.2-2.2-1.3-2.9-.1m5.8 1.5c-.8 2.2.3 3.3 1.8 1.8q1.3-1.2 0-2.4-1.2-1.4-1.8.6m11.1-.4q.6.9 1.1 1 .4-.1.4-1-.1-1-1.1-1-.8 0-.4 1m-30.1 1.5c-.7 1.7.4 3.7 1.7 3s1.2-4.5-.1-4.5q-1 .2-1.6 1.5m6.3-.9c-.8.8.1 2.4 1.4 2.4q.8-.2.9-1.5c0-1.5-1.2-2-2.3-.9m28.9 3q-1 3.2 2 3.4 1.3-.1 1.4-2.5c0-2.8-2.4-3.4-3.4-.9M471 715q.1.9 1 1 1-.1 1-1t-1-1a1 1 0 0 0-1 1m9.5 2c-.3 1.1-.3 2.5 0 3 1 1.6 3.5-.8 3.5-3.1 0-2.5-2.7-2.4-3.5.1m-13.8.8c-.5.7-1 7.1-.8 10.9.2 3.6 2.9 2.8 3.3-1 .7-7-.8-12.8-2.5-9.9m-51.3 10.3c-1 1.7 1.3 3.6 2.7 2.2 1.2-1.2.4-3.3-1.1-3.3q-.9.1-1.6 1.1M149 755v2.7q.1.8 1.3.8c.6 0 1.2-1.2 1.2-2.8q0-2.5-1.2-2.7-1.2.2-1.3 2m7.1 2.9c-.6 1-.7 2.1-.4 2.5.7.7 4.3-2.3 4.3-3.6 0-1.6-2.9-.8-3.9 1.1m4.6 6c-.6 2.5 1 3.8 2.6 2.2q1.3-1-.5-2.7c-1.4-1.4-1.6-1.4-2.1.5m11.9.8c-.9.9-.7 3.3.3 3.3 1.2 0 2.2-2.8 1.2-3.4q-.8-.5-1.5.1m13.4.1c0 1.7 2.1 2.5 3.1 1.3q.7-1 .3-.6-.8.4-2.1-.6-1.3-1.2-1.3-.1m261.3-628.4c-2.6 5.4-2.6 5.5-.9 9.8 1.6 4.2 1.6 4.3-.4 5.7-2.4 1.6-2.8 7.1-.5 7.1 2 0 8.4-3.3 8.5-4.4 0-.5 1.1-1.9 2.5-3.2s2.5-3.1 2.5-4.1q0-1.9-1.2-.5c-1.5 1.5-2.8 1.6-2.8.2q.2-1 2.5-2c2.6-1 3.3-3.4 1.5-4.5q-1.1-.5-2.5.5-3 2.8-3.9-4.5c-.4-2.4-1.1-4.7-1.6-5s-2.2 1.9-3.7 4.9m2.4 7.8q-.5 1-.5-1.2c0-2.2.2-1.9.5-1.3.2.7.2 1.9 0 2.5m-289.9 44.5c.7.3 1.6.2 1.9-.1q.5-.6-1.3-.5-1.7 0-.6.6m311.8 586.9c-2.1 2.1-3.6 4.6-3.6 6 0 2.1-.5 2.4-3.6 2.4-1.9 0-4.4.5-5.5 1-4.4 2.4-.5 8 5.6 8 2.9.1 2.9.1 1.1 1.5a9 9 0 0 1-4.6 1.5 7 7 0 0 0-4.5 2q-3.6 4.1 5 5.5c5.4.8 5.8 2.6.9 4.4-3.4 1.2-3.5 1.4-3.2 5.9.3 4.1.6 4.7 2.7 5 2.2.4 2.3.1 1.8-3.1-.6-3.6 1.4-7 2.7-4.8 1.7 2.7 2.8 13.2 2.7 26.1-.1 11 .2 15 1.2 16.4 2.9 3.9 3.6.8 3.6-15.7.1-10.3-.4-18.3-1.3-21.9-.7-3.2-1.1-6-.8-6.3a73 73 0 0 1 11.8-.5c14.2 0 16.4-.7 16.4-5.5 0-4.5-1.3-4.8-15.8-3.8-10.1.8-13.6.3-11.9-1.4.3-.3 4.9-.5 10.2-.5a31 31 0 0 0 10-.9q1.8-2.5-10.7-2.1c-5.4.1-8.8-.1-8.8-.8 0-1.4 3.2-1.9 14.2-2.2 9.6-.3 12-1 10.2-2.8q-1.1-1-8.8 0c-8 1-15.6.5-15.6-1.1 0-.5 2.5-.9 5.5-.9 3.1 0 5.5-.4 5.5-1 0-1.3-1.5-1.9-6.5-2.3-6.3-.6-5.1-2.3 2.7-3.8 5.8-1.1 7.4-1.8 7.7-3.3.5-2.8-2.6-4.6-8-4.6-4.1 0-5.2.5-8.3 3.6m10.9.4c0 1.8-3.3 2.6-4.7 1.2q-.9-1-.3-2.2c1-1.6 5-.8 5 1M466 788q0 .9-.9 1-1-.1-1.6-1-.4-1 .9-1 1.5 0 1.6 1m0 12q-.1.9-1.5 1c-1.4.1-1.5-.5-1.5-1q.1-1 1.5-1c1.4 0 1.5.4 1.5 1m31.5 3.1c1.1 1.7-.3 2.3-7.8 3s-17.7.1-17.7-1.1c0-.4 4.8-1.1 10.8-1.7l12.4-1.1c.9-.1 2 .3 2.3.9"/><path d="M477 813.5c-1 1.2-1 1.8 0 3 2 2.5 5.5 1.5 5.5-1.5s-3.5-4-5.5-1.5"/></svg>