<svg xmlns="http://www.w3.org/2000/svg" width="666.7" height="1170.7" viewBox="0 0 500 878"><path d="M336.3 54.2c-.4.7-.6 2-.5 3 .2.9-.4 3.3-1.3 5.3-1.9 4.7-1.9 6.8 0 10.5.9 1.7 1.2 3 .7 3s-2.2 1.3-4 2.9c-5.8 5.4-3.3 14.8 2.7 10 2.5-2.1 12.1-2.8 12.1-.9 0 .6-1.6 2.4-3.5 4.1-4 3.5-4.4 5.4-1.6 6.9a9 9 0 0 0 9.6-1.2l2.8-2.2 1.7 2.2c1.3 1.5 2 5.6 2.9 15.4l1.6 17.8c.3 2.5.1 6-.5 7.8q-.9 3.4.1 9c.8 4.2.8 6.6-.2 9.4-1.1 3.5-1 4 1 6.2 2.1 2.2 2.2 3 1.6 9.7q-.8 7.3-2.3 8.6c-.8.7-3.1 4.3-5.1 7.9s-4.5 7.2-5.6 7.8a97 97 0 0 0-25.1 27.8c-1.5 2.9-1.8 3-6.1 2.4-3.9-.5-4.9-.2-7.6 2s-3.6 2.5-7.6 1.9c-6.6-1-8.8-2.5-11.3-7.5-1.3-2.4-3-4.7-3.8-5.1-9.9-4.5-11.4-4.9-17.9-4.9s-7.1-.2-9.6-3.1a56 56 0 0 1-4.6-7c-2-3.9-5.3-6.6-6.3-5-.3.5.3 2 1.4 3.4s2 3.4 2 4.4a8 8 0 0 0 1.5 3.9c2.3 3.1 1.8 3.7-2.9 3.2-5.1-.6-6.9.2-6.4 2.8.3 1.8 1.3 1.9 15.4 1.5s15.4-.2 19.5 2l5.9 2.9c.8.4 1.6 2.3 1.8 4.4.2 2.8.9 4 2.8 4.8 1.3.6 4.2 3.5 6.4 6.5 4.3 5.7 8.3 8.8 9.9 7.9s4.1-6.7 4.1-9.1c0-1.1.5-2.6 1.2-3.3 1.3-1.3 2.9-1.6 2.7-.5-.6 3.9 2.3 4.4 5.2 1l2-2.2-.5 4-.7 8a1086 1086 0 0 0 1.7 53.5c.9 2.5 2.4 22 1.8 23.3q-.4 1.3-5.7-3.5-7.6-7-19.9-11.4c-2.1-.7-7.1-3.5-11.1-6.2a95 95 0 0 0-42.4-15.2c-3.2 0-2.9 2.8.3 4 1.4.6 4 1 5.7 1a77 77 0 0 1 34.5 13.7c2.4 1.9 6.9 4.4 10 5.6s6.9 2.8 8.4 3.8a9 9 0 0 0 4 1.9c2.1 0 9.8 8.3 9.8 10.7 0 2.5 2.5 4.7 4.5 3.9.8-.3 1.5-1.6 1.5-3q-.2-2.7 1.9-1.9c1 .3 2.2 0 2.6-.6a63 63 0 0 0 0-23.4c-.8-5-1.7-20.7-2.1-35.7-.7-26.5-.7-26.8 1.5-30.4 3.9-6.3 5.2-4.9 5.1 5.6-.1 5.1.3 11.5.9 14.3a296 296 0 0 1 1.8 28.2c.6 21.4.5 23.5-1.2 25.2-1.4 1.7-1.6 3.1-1 9.3 1 10.7 1 10.8 5.8 10.8 6.8 0 2.9 1.6-7.3 3-5.2.7-12 2-15.1 3-4.8 1.4-5.8 1.5-7.6.3a23 23 0 0 0-8-2c-3.2-.4-7.8-1.7-10.2-3-7.8-4.1-10.2-2.2-2.7 2.2 2.4 1.4 4.7 3.2 5 4s2.1 1.7 4 2.1c2.1.3 3.6 1.2 3.6 2 0 1.9-3.2 3.2-3.8 1.6s-5.2-3.9-8.2-3.8c-2 .1-2.5.5-2.2 2.5.3 3.3 2.1 5.3 4.2 4.6 1.9-.6 4.7 2 3.1 2.9-1.7 1.1-5.9-1.2-8.7-4.9q-2.7-3.6-4.7-3.3c-3.4.5-3 2.5 1.3 7.2 4.4 4.7 9.5 7 13.6 6 1.2-.3 2.5-.1 2.8.5q.6 1-1.9 1.1c-1.4 0-3.9.7-5.5 1.5-5.1 2.6-3.4 8.5 2.4 8.9 2.1.1 2.5.7 2.8 4.3.2 2.4 0 4.3-.4 4.3q-.8-.1-.8-1.9c0-2.6-2.5-4.4-5-3.6q-2 .8-2.6-1.2c-2.5-7.6-4.4-9.3-10.9-9.3-3.4 0-8.5 1.8-8.5 3 0 1.7 2.6 2.7 6.3 2.3 4.3-.4 7.8.9 6.3 2.4q-.9.6-1.3-.5-1-2.5-4.5.5c-1.7 1.5-2.1 1.5-5.3 0-3.3-1.6-3.6-1.6-7 .4-4.1 2.4-4.2 3.2-1.4 6 2.7 2.7 2.1 5.4-1.1 5.4-2.4 0-2.5-.3-2.5-5.5s-.1-5.5-2.7-5.8a6.2 6.2 0 0 0-6.6 6.9q.5 2.8-.6 2.6c-.6-.2-1.4-2-1.7-4.1s-1.1-4.2-1.6-4.7c-1.5-1.5-5.8-.1-8.4 2.7-1.8 1.9-2 2.6-.9 3.9.7.8 1.8 1.5 2.4 1.5 1.5.1 6.4 3.9 5 4-1.9 0-10.7-4.2-14-6.6a14 14 0 0 0-4.1-2.4c-1.6 0-2.3-2.6-1-3.9a4 4 0 0 1 2.4-1.1c2.3 0 6.3-4.8 6.3-7.5q0-2.3.5-2.5c.2 0 2.3 1.8 4.5 4s4.3 4 4.6 4 2-1.2 3.9-2.7 5.3-3.2 7.7-3.8l5.8-1.6q1.6-.5 1.2 1.9c-.5 3.6 2.6 4 5.4.6 2.9-3.6 3-5 .2-6.5-2.1-1.2-2.1-1.2.8-2.7 5.3-2.8 11.3-8.3 11.9-11.1s-1.8-10-3.9-11.3c-.6-.4-2-.8-3.2-.8-2.1 0-8.4-6.8-8.4-9.1 0-1.4.1-1.3 19.9 4.1 8.5 2.3 18.1 5.5 21.4 7.1 6 2.9 7.7 3 7.7.4 0-3.4-9.1-7.1-30.5-12.5-17.4-4.4-32.5-12.5-32.5-17.5 0-3.5-1.4-4.5-10.6-7.7a46 46 0 0 0-18.4-3.2c-13.3-.1-20.6 1.7-24.8 6.1-1.8 2-3.5 3.3-3.9 3s.9-3.6 2.6-7.3l3.1-6.7 2.5 2.3c2 1.8 3.1 2.2 6.2 1.7 2.1-.4 4.5-1.5 5.4-2.6 1.5-1.8 3.2-2.1 14-2.5l19.9-1.1a120 120 0 0 1 45.3 7.9c2.1.4 5 2 6.9 3.9a96 96 0 0 1 16.1 18.9c1.7 3.9 5.2 7.3 6.6 6.3.6-.3 1.1-2 1.1-3.7q0-3-1.9-3.5c-1.1-.3-2.4-1.8-3-3.4-.5-1.6-1.4-2.9-1.9-2.9s-3.9-3.6-7.5-7.9c-7.2-8.6-9.7-10.2-23.2-14.4-14.5-4.5-26.8-5.4-59.8-4.3-8.9.3-11 .1-11.4-1.1q-.6-1.5-3.4-.9-5.4 1.1-.4-2c2.3-1.5 2.7-1.5 4.3-.2s2.3 1.4 7.2-.1c7-2.2 14.9-4.2 17.8-4.6a10 10 0 0 0 4.2-2c1.6-1.4 3.1-1.6 8.2-1.2 3.5.3 7.4.8 8.8 1.1a197 197 0 0 0 20.4 2.3q2-.2 7.3 6.8c5.9 7.7 8.8 9.2 9.9 5.1.3-1.4.1-4-.5-5.7-1.3-3.7-.6-5.5 1.5-3.8q1.1 1 .8 2c-1.2 2.1 1 7.2 4.7 10.9q3.9 3.8 3.9 6.5c0 2.9 2.6 7.5 4.3 7.5.6 0 2.3 1.5 3.8 3.2 2.4 2.9 2.8 3.1 3.4 1.5 1.1-2.7-1.4-7.6-4.7-9.3-2.4-1.2-2.7-1.8-1.8-2.9s1-4.9.5-13.9c-.6-10.4-.5-13.2 1-17.6.9-2.8 1.4-5.4 1.1-5.8-1.2-1.1-10-3.3-15.8-3.9s-6.7-1-4.7-3c2.1-2.1.2-4.6-3-4-1.5.3-3.2.2-3.7-.2-1.6-1.4-8.6-3-22.4-5.1a358 358 0 0 1-18.3-3.1c-8.2-1.9-21.6.7-35.8 6.9a75 75 0 0 0-19.5 14.1c-2.4 2.9-6.4 4.2-6.4 2.2 0-.5 1.3-2.2 3-3.7l5.2-5.1c1.3-1.2 3.4-3.6 4.7-5.3 1.3-1.8 3.9-3.9 5.7-4.8 2-.9 3.4-2.3 3.4-3.4q-.1-4.4-8 2.8c-2.6 2.5-5.4 4.4-6.2 4.3-3.9-.5-5.7.5-9.8 5.5q-7.1 8.6-7 5.1c0-2.2 10.5-11.9 21.7-20 5.7-4.1 10.7-7.5 11.1-7.5s1.9-1.1 3.1-2.4 4.8-3.3 7.9-4.4a70 70 0 0 1 18.8-4.9c.7.7 6.4-2.2 7.6-3.8.4-.6.8-2.2.8-3.7 0-2.9-2.1-4.2-7.7-4.7-2.1-.2-1.4-2.1.7-2.1q1.8-.1 2-1-.2-1-1.5-1c-2.9 0-1.5-1.7 2.6-3 5.8-1.9 9.9-6 9.9-9.9q0-3-2-4.1c-1.1-.6-2-1.8-2-2.7s-.8-2.6-1.9-3.7c-2.6-3-3.4-7.1-1.6-8.6.8-.7 1.5-2 1.5-2.9 0-1.6-5.3-7.4-7.5-8.2l-4.8-2.8c-4.3-2.7-4.7-5.8-.9-7.7s7.1-5.5 8.8-10c1.5-4.1 1.5-4.5 0-6.9-2.1-3.1-4.5-4.1-11.1-4.4q-9.2-.3-8-7.8c.5-2.5.1-3.5-1.4-4.5-1.7-1-1.9-2-1.4-7.8.7-8-1.5-15.6-6-21.2-3.3-4.1-7.5-5.8-14.3-5.8a24 24 0 0 1-7.7-1.5c-5.3-2.2-5.6-.1-.7 4.3 5.8 5.2 6.5 6.7 6.5 15.2 0 6.3.4 8.1 2.4 10.8 2.6 3.7 2.2 6.9-.7 5.6-3-1.5-12-.8-17 1.3a43 43 0 0 1-14.1 4.3q-5.5 0-13.7 8.5c-7.3 7.6-9.9 13.3-9.9 22.2 0 6.8-.1 7.2-1.5 5.2-1.6-2-1.6-2-6.5 1.3-14.8 9.9-9.9 23.8 8.4 23.8h6.9l.7 4.2c1 5.9 1.4 6.3 3.9 3.9l2.2-2.1 3.1 2.8 4.9 4q2.7 1.6-.6.6c-1.4-.3-3.5-1.6-4.8-2.8-2.3-2.1-2.4-2.1-3.8-.2-1.8 2.5-1.8 3.1.1 4.6.8.7 1.5 1.8 1.5 2.5 0 .8 1.2 2.8 2.7 4.6q2.7 3.1 2.4 5.7c-.1 1.3.3 3.7.9 5.3 1 2.4 2.4 3.3 7.4 4.8l6.1 1.9-.3 3.8c-.6 9.3-1 9.9-10.1 18.6l-8.9 8.4-.7 7.4c-.4 4.1-1.5 8.6-2.4 9.9-1.3 2.1-1.6 5.4-1.6 18.1 0 14.4-.2 15.8-2.3 19.2-3.3 5.3-3.9 16.6-1.7 31.2 1.4 9.8 1.5 13.1.6 21.3-.6 5.4-1.3 14.1-1.6 19.3l-1.6 24.5a2893 2893 0 0 0-6.4 130.5l-2.5 73.3a207 207 0 0 0-.1 26 24 24 0 0 0 6.5 6.5c5.4 4.1 5.6 4.4 5.6 9 0 5.7.3 6.2 5.9 9.6l4.3 2.8-.4 7.8c-.1 4.3-.6 8.1-.9 8.4s-35.9.9-79 1.2-79 .7-79.7.9c-.6.3-1.2 1.4-1.2 2.5 0 2 .5 2 28.8 2h42.7c8.8 0 13.5.3 12.6.9-.8.5-6.3 1-12.3 1-5.9.1-12 .6-13.4 1.1s-14.9 1-30.5 1c-22.8 0-27.9.2-27.9 1.4 0 1.9 11.7 2.6 38.8 2.3 12.2-.1 22.2.1 22.2.5q-.2.8-2.3.8c-1.2 0-5.5.9-9.5 2-7.9 2.2-17.2 2.6-20.4.9-2.1-1.1-22.3-1.3-26.5-.2-5.6 1.4-1.2 2.2 10.5 2 9-.1 13.4.2 15.1 1.2 3.6 2 14.6 1.6 22.6-.9 7.4-2.4 8.5-2.4 38-.1 11.5.9 35.8.4 46-1 16-2.2 19.5-2.3 19.5-.5q.1 1.6-3.2 1.6c-1.7 0-7 1.1-11.7 2.5-20 5.7-30.3 7.4-51.4 8.7a117 117 0 0 1-26.5 0c-6-1.2-7.7-1-22.2 2.6L25.7 707C4.5 711.5 0 712.9 0 714.5c0 1.2.7 1.2 4.7 0 2.7-.8 10.2-2.4 16.8-3.5s14.4-2.7 17.3-3.5l10.3-2.9c2.8-.8 6-1.2 7.2-.9a205 205 0 0 0 39.7.3c13.9-1.5 32.6-5.2 39.6-7.9 3.7-1.4 8.5-2.1 18.5-2.5a216 216 0 0 0 16.4-1.1c2.2-.5 4.8.2 9.8 2.6l6.9 3.2-.7 3.5c-.6 3.2-.3 3.8 4.3 8.1 4.8 4.4 5 4.8 5.6 11.6l1.3 12.9.6 5.8-17.9-.1c-9.9-.1-27.6.1-39.4.4-40.3 1.1-76.4 1.1-78.8.1-3.5-1.5-2.3-3.8 2.3-4.2 12.5-1.1 22.7-4.4 23.3-7.6.5-2.3-3.1-2.8-19.3-2.4-9 .2-16.9 1-22 2.2-8.7 2.1-22.7 2.4-37.7.9-7.6-.7-8.8-.6-8.8.7s1.7 1.7 7.8 2.2c23.3 1.9 28.6 1.8 39.8-.3 6-1.1 13.4-2.1 16.4-2.2 10-.2 16.3.1 15.7.7-.3.3-4.5 1.2-9.4 1.9a84 84 0 0 0-11.7 2.4c-2.8 1.1-3 1.9-1.1 6.3.5 1.4-.3 2-4.9 3.3-10.3 3-11.6 7.4-3.1 10.9q10.6 4.5 21.5.3c7-2.6 22.4-4.4 27.8-3.2q2.9.6 3.5 2.6c.5 1.7 1.5 1.9 10.6 1.9 6.2 0 10.1.4 10.1 1 0 1.3-4.4 3-7.8 3-1.5 0-4.3.9-6.2 2a47 47 0 0 1-28.7 8.1c-8.4-.1-34.9 1.6-46 3-13 1.5-34.3 9.7-34.3 13.1 0 1.7.4 1.6 5-.7 2.8-1.4 10.1-4.2 16.3-6.2a98 98 0 0 1 29.7-4.9 263 263 0 0 1 26.1-.7c12.1.9 22.8-1.6 30-7a35 35 0 0 1 9.5-3.3c7.8-1.7 10.6-3.7 10.2-7.3-.3-2.1.2-2.6 3.2-3.4 1.9-.5 6.2-.8 9.5-.8 3.3.1 9.6-.3 14-.8a95 95 0 0 1 42 5.5l7 2.3 1.4 9.6c1.1 7.6 1.2 10.4.3 12.9-.7 1.8-1.2 4.7-1.2 6.6v3.3l-4.2-.6-12.8-2a197 197 0 0 0-19-2.1c-5.8-.4-11.9-.9-13.7-1.2-2-.4-4.4 0-6.4 1-1.8.9-4.3 1.6-5.6 1.6-3.4 0-2.7 2.9 1 4.3 3.5 1.3.5 2.7-5.6 2.6a570 570 0 0 0-59.2-4l-36-1.2-6.5 2.2c-3.6 1.2-10.6 3-15.7 4.1-12.2 2.5-19.4 6.2-19.2 9.9q0 1.7.6.3c.9-2.3 6.1-4.1 17.9-6.3a61 61 0 0 0 13.2-3.2c1.7-1.3 11.2-2.7 11.2-1.5q.2.7 1.5.8c1.3.1 1.5-.5 1.5-1q.1-1 1.1-1 .8.1.4 1-.7 1 2.2.3c4.7-1.3 17.4-.8 18.3.7q.9 1.6 2.3.2c1.1-.9 7.1-1.1 23.3-.8 17.7.4 23.8.9 31.9 2.7 10.2 2.2 21.3 2.6 24.7.8 2.4-1.3 2.3-4.2-.2-6.4-3.3-3-2.4-3.7 4.3-3.2l14.2 1c4.4.3 12.7 1.4 18.4 2.6s11.7 2.1 13.3 2.1c2.2 0 4.3 1.2 7.5 4 3.8 3.6 4.9 4.1 8.6 3.9 3-.1 6.2.8 11.7 3.5 4.1 2 8.9 3.6 10.7 3.6q3.4 0 3.3 1.5-.1 1.4-2.2 1.5l-119.8.4-118.7.7q-1.2.4-1.3 2.2c0 2 .6 2 139.8 1.3a41142 41142 0 0 0 288.5-2.2l71.7-.6v-2.3c0-2.3-.2-2.4-13.2-2.8-7.5-.2-15.5-1.1-18.3-1.9-5.6-1.7-6.2-2.9-6.4-11.6l-.1-5.2h19c18.3 0 19-.1 19-2s-.7-2-18.9-2c-18.8 0-18.9 0-19.4-2.3-.7-2.8-.1-20.3.7-21.6.9-1.4 22.6-.3 29.4 1.4 7.2 1.9 8.2 1.9 8.2-.3s-3.1-5-4.8-4.4c-.7.2-2 0-3-.4-2.3-1.1-2.8-1.1-9.7-1.4l-6-.3 5.7-.7q10.7-1.5 10.8-6.4c0-1.8-.9-2.7-4-4-2.2-.9-4.7-1.6-5.5-1.6q-1.2-.2-1.7-2.3c-.3-2-.9-2.2-6.1-2.3-6.8-.1-9.1-1.4-2.6-1.4 4.5-.1 12.1-1 12.7-1.5q.3-.5-.3-2.5c-.7-2.2-1-2.2-9-.4-1.7.4-2.1 0-2-2.3 0-2.6-.3-2.8-5-3.3-4.2-.4-5-.8-5-2.5q0-2 2-1.8c3.3.3 9.1-1.6 10.9-3.5 1.5-1.8 1.5-2.1-.5-4.5-1.8-2.4-2.8-2.7-7.9-2.7-7.7 0-10.8 2.6-11.7 9.8l-.5 4.9-7.2 1.3c-3.9.7-7.8 1.6-8.7 2.1-4.8 2.5-1.5 7.8 4.9 8 3 .1 2.4.4-3.3 1.5-4.3.9-7.7 2.2-9 3.5l-2 2 2.4 2c1.3 1 3.4 1.9 4.7 1.9 3.2 0 3.1 1.6-.2 2.4-1.4.4-3.9 1.6-5.4 2.8-2.6 1.9-3.8 2-12.3 1.5a39 39 0 0 1-12.7-2.2c-2.3-1.2-5.1-1.6-9.9-1.3l-6.6.3-.7-17.5c-.3-9.6-.3-17.7 0-18.1a28 28 0 0 1 5.5-1.7c2.6-.7 6.2-2.2 7.8-3.5 2.9-2 4.2-2.2 18.7-2.3 22-.1 32.7-1.2 35.5-3.5l2.2-1.9-2.4-2c-1.3-1.1-2.9-2-3.7-2q-1.3-.2-1.4-1.5c0-1.2 1.8-1.5 10.4-1.5 5.8 0 10.7.4 11 .9 1.1 1.8 6.7 2.1 9.1.5 1.9-1.2 3.8-1.4 9.4-.8 6.1.6 7.1.4 7.1-.9 0-1.2-1.5-1.7-5.7-2.2l-8.5-1a5 5 0 0 0-4.4 1.2c-1.3 1.4-2.1 1.4-4.7.5-3.8-1.4-30.2-2.1-33.4-.9-3.7 1.4-2.7 3.7 2.7 5.9 2.7 1.1 4.7 2.4 4.5 2.9-.8 1.2-12.3 2.1-30.2 2.2-15.6.2-16.2.3-18.7 2.6s-11.2 4.6-12.1 3.1c-.8-1.3-2.7-49.7-2.3-60.7.3-11.4 1.1-14.3 3-10.8 1.8 3 7.7 8.3 15.1 13.1 3.7 2.4 7 4.4 7.4 4.4.8 0 13.3 10.3 16.2 13.4 2.4 2.6 6.1 3.5 6.1 1.6 0-3.1 19.5 3.3 23 7.5.7.8 2 1.5 3 1.5s3.5.7 5.6 1.6c2.9 1.2 5.6 1.5 10.2 1.1 3.8-.4 7.3-.2 9 .5 3.8 1.6 14.2 1.7 14.2.1 0-.7-1.9-1.7-4.2-2.4l-8.7-2.6c-2.8-.9-6.1-1.3-9-.9-8.3 1.1-15.1.2-16.5-2.1-1.2-2.2-14.4-8.1-22.3-9.9-5.8-1.3-8.3-2.7-17.8-9.8-6-4.6-12.8-9.3-15-10.4a47 47 0 0 1-6.4-4.2l-2.4-2 9.6-9.8c5.3-5.3 12.4-13.4 15.8-18 6.3-8.5 9.7-11.6 12.3-11 1.6.3 17.2 14.4 27.6 24.9 7.8 7.9 17.7 16.3 24.5 20.8 2.8 1.9 6.7 5 8.8 6.9q3.6 3.4 3.7 2.2c0-2.9-3.8-7.2-10.6-12.1a139 139 0 0 1-10.7-8.7c-3.9-3.7-9.7-11.6-9.7-13.1s10.1-13.9 12.6-15.6 2.6-1.6 8.2 3.6c3.1 2.9 6.7 6.4 7.9 7.8l2.2 2.6.1-3c0-4.4-11-15.3-16.3-16.2-3.6-.5-4-.3-11.5 7.6a41 41 0 0 1-9.4 8.1c-.9 0-7.1-5-13.7-11-13.3-12.3-15.2-13-20.7-8.2a73 73 0 0 0-7.8 9.3c-6.5 9.4-23.4 26.6-26.9 27.5-5.1 1.2-5.4.1-6.1-26.4-.3-13.3-.2-24.2.2-24.2q1 .2 2.8 1.5 3.6 2.7 8.9.3c3.2-1.4 3.2-4.5 0-6-2.4-1.1-3.5-3.8-1.5-3.8 1.8 0 4.1-6 3.9-10.3-.1-2.3.1-5.4.5-7q1.7-6-5.5 1.5a27 27 0 0 0-5.7 10c-1.6 5.5-4 7.8-4.3 4-.2-2-1.1-85.2-1.2-114.2a2112 2112 0 0 1 2.2-108c1.8-11.9 2.2-12.9 4.4-13.2 3.1-.4 3.2-3.1.3-9-1.4-2.9-2.6-6-2.6-7s-.6-2.9-1.4-4.1c-.8-1.3-1.7-6.4-2.1-12.2l-1.1-14c-.9-8.5-.4-50.8.6-51.9.5-.7 2.3-1.1 4-.8 1.6.2 3 0 3-.4s.4-1.5.9-2.2c.6-1.1 1.7-.9 5.1.9l4.3 2.3 1.9-2.4c1-1.3 1.8-3.5 1.6-4.8-.2-2.1-1.3-2.8-6.3-4.5l-7.3-2.3q-1.4-.4 1.9-3.5c1.7-1.6 3.8-2.8 4.5-2.5 1.8.7 6.4-3.2 6.4-5.4 0-2.1-2.2-4.2-4.1-3.8-1.5.4-3.1-5.7-2.4-8.9.3-1.2.1-2.4-.4-2.7-.9-.6-9 7.6-9.2 9.4-.7 5.3-.9 8.2-1.2 12q-.1 4.7-1.7 4.5-1.5.1-2.1-5a372 372 0 0 1-2.8-34.3c-.1-7.9 0-8.4 2.8-11.2a27 27 0 0 0 5.1-20.1c-.6-1.9-1-6.3-1-10 0-6.3-2.1-14.9-4.4-17.8a31 31 0 0 1-1.2-16.6c.6-1.1 1.1-3.5 1.1-5.4s.6-3.6 1.4-3.9q1.5-.6.8 2c-1.4 5.3 5 9 8.6 5 1.9-2 2.3-7.7.7-8.7-.5-.3-1-3-1-5.8 0-5.1 1.7-9.2 4.7-11a3 3 0 0 0 1.3-2.4q.1-1.7-2.2-.9c-1.3.3-2.8.6-3.4.6-.5 0-2 .9-3.2 2-1.8 1.7-2.5 1.8-4.2.8-1.5-1-2.2-1-3.2 0-2 2 1.3 4.7 4 3.3q2-1 2.6-.2.8 2-2.5 2.1c-1.1 0-2.6 1.4-3.6 3.2l-1.8 3.3-.3-3c-.1-1.7-.7-5.1-1.2-7.7a16 16 0 0 1 .4-9c1.9-5.8.8-18.8-1.8-21.7-4.7-5.2-12.6-3.1-20.8 5.7q-7.8 8.5-4.7 14.3c1.3 2.3 2 14.9.8 14.9-.6 0-4.3-3.9-5.3-5.7-.3-.6.2-2.8 1.1-4.8 1.7-3.6 1.7-3.7-.5-5.5-1.2-1-3.1-1.6-4.2-1.3-1.7.5-2 0-2-3.3a26 26 0 0 0-2.5-9.2c-1.4-3-2.5-6-2.5-6.8 0-1.7-2.6-1.8-3.7-.2m40.3 6.6q-3.4.6-2.1-1.8.7-1.2 2.2.2c1.5 1.2 1.4 1.3-.1 1.6m-5.8-.6c-.6 1.8-2.8 2.1-2.8.4q.1-1.5 1.6-1.6 1.4 0 1.2 1.2M340 68c0 4-1.5 5.5-2.2 2.2-.4-1.5 1-6.2 1.9-6.2.1 0 .3 1.8.3 4m23-2q-.1.9-1.1 1-.8-.1-.4-1 .6-1 1.1-1 .4 0 .4 1m-2.3 4.2q-.5 1.1-.6-.6t.5-1.3c.3.3.4 1.2.1 1.9m.7 4c.3 1.3.6 2.7.6 3.3-.1 1.5-3-2.7-3-4.2 0-2.2 1.7-1.5 2.4.9m5.3 1q-.5 1.1-.6-.6t.5-1.3c.3.3.4 1.2.1 1.9m8.7 1.2c-.8 2.8-2.4 4.4-2.4 2.5 0-.7-.3-2.4-.6-3.6-.5-1.8-.3-2.1 1.5-1.6q2.4.4 1.5 2.7m-36.7 5.2c.3 1-5.5 3.9-6.3 3.1-.3-.3.4-1.5 1.6-2.7 2.1-2.1 4.1-2.3 4.7-.4M213 86q0 .9-1 1a1 1 0 0 1-1-1q.1-1 1-1t1 1m149.1 3.3q-1.1 1.3-1.1-1.9c.1-2.5.2-2.7 1.1-1.1q1.2 2 0 3m8.9 1.6c0 1.4-3 4.1-4.5 4.1q-1.5 0 .8-2.4 3.6-4 3.7-1.7m-22 2.6c0 1.6-3.8 4-4.8 3q-.4-.8 1.7-2.6c2.8-2.3 3.1-2.3 3.1-.4m14.9 9.1c-.4 1.2-.5 2.4-.3 2.7 1 .9 2.3 19.2 1.5 20-1.3 1.3-4.6-26.9-3.4-29.9.9-2.5 3.1 4.5 2.2 7.2m-151.2-2.9q-.5 1.4-.5-1.2t.5-1.8c.2.7.2 2.1 0 3m163.2 4.6q0 1.6-.9 1.2c-.5-.3-1-2.1-.9-3.8q0-3.9.9-1.2c.5 1.1.9 2.8.9 3.8M209 106.5q-.1 1.3-1.5 1.5c-1.6 0-2-1.2-.8-2.3 1.1-1.2 2.3-.8 2.3.8m183.2 1.7q-1.3 1.5-1.2-1.2c.1-2.7.3-2.1 1.2-1.2q1.3 1.2 0 2.4m-188.1 4.4c2.1 1.9 2.5 6.4.8 8.1q-1.2 1 .1 3.3c.7 1.2 1 3.3.7 4.6-.2 1.3.2 2.9 1 3.6q1.6 1.2.1 1.9c-2 1.3-2.5 1.1-2.4-1.2.1-1.2-.5-2.4-1.1-2.6-1.8-.7-2.8 2.6-1.5 4.8 1 1.6.6 2.2-3.4 4.5-9 5.3-31.4 13.1-33.6 11.7-1.7-1-.7-2.3 1.8-2.3 2.2 0 2.5-.4 2.2-2.7-.4-3.4-2.6-4.1-3.7-1.1l-.9 2.3-1-2.5a10 10 0 0 1 0-5.8c1.2-4.3.2-5.4-2.3-2.3q-1.9 2.3-1.9 7c0 4.7-.3 4.1-.9 3.2-1-1.5-.4-7.5 1-10.3 1-1.8.2-4.8-1.2-4.8-1.1 0-3.1 3.7-4 7.5l-.7 3-.1-2.9a19 19 0 0 1 6.6-12.1c2.3-1.6 3.2-4.5 1.3-4.5q-.9-.1-1-1.4c0-2.1 4.4-4.6 9-5 2.2-.2 4.3-.6 4.7-1 .3-.3 1.3-.6 2-.6.8 0 3.3-.8 5.6-1.9l5.7-2.5c2.9-1.2 15.2.2 17.1 2m174.1-.4q-1.1 1-1.2.2c0-1.4 1.2-2.6 1.9-1.9q.3.6-.7 1.7m-158.4 8.2q.4 1.8-1 1.4a3 3 0 0 1-1.6-2.2q-.4-1.8 1-1.4 1.3.7 1.6 2.2M370 127q-.1.9-1.5 1c-1.4.1-1.5-.5-1.5-1q.1-1 1.5-1c1.4 0 1.5.4 1.5 1m-158.5 6.8c-1.2 1.2-2.3-1.5-1.7-4.3l.6-3 .8 3.4c.5 1.8.7 3.6.3 3.9m26.2-4.6q-.5 1.1-.6-.6t.5-1.3c.3.3.4 1.2.1 1.9m-9.1 1.5c-1 1-1.9-.5-1-1.8q.8-1.6 1.2 0 .3 1.2-.2 1.8m7.4 2.2c0 1.6-11.3 9.1-13.7 9.1-.3 0 2-2.2 4.9-5 4.9-4.5 8.8-6.4 8.8-4.1m-17.8 5.8c-5.4 2.4-6.7 3.7-5.7 5.3q.7.9 4.2-.5c1.9-.8 3.8-1.5 4.2-1.5.8.1-4.2 4-5.2 4-.4 0-2.6 1.2-4.8 2.6-23.4 14.8-43.5 21.9-62.6 22.3-7.8.2-9.3-.1-12.3-2.1-2.1-1.4-3.6-3.4-3.8-4.8l-.3-2.5 1.6 2.2c2 2.9 4.5 3 4.5.3 0-1.7.3-1.9 1.9-1.1q3.6 2 2.4-2.7l-.6-2.5 2.2 2.2c2.5 2.5 7.1 2.9 7.1.6q-.2-1.5-2.5-2.5c-2.3-1-2.5-1.4-2.5-1.9s1.6-.1 3.5 1 4.3 1.8 5.2 1.5 4.3-1 7.7-1.5c6.6-1 26.7-8.3 33.6-12.3a72 72 0 0 1 20.6-8.5c1.2.2 2.8 0 3.5-.4q1.2-.6 2.3-.2c.5.4-1.4 1.7-4.2 3m148.8-.3c0 1.1-1.9 1.5-2.5.6q-.4-.9.9-1 1.5 0 1.6.4m-3 4c0 1.6-1.8 3.1-2.7 2.2-.8-.8.5-3.6 1.7-3.6q.9.1 1 1.4m-144.5 9.5q-.6 1-1.7 1.1-1 0 .2-1.5c1.4-1.7 2.6-1.3 1.5.4m146.8 2.6c-2.7 3.2-5.3 4.5-5.3 2.6 0-1.6 6.1-7.2 7.1-6.5.5.3-.3 2.1-1.8 3.9M155.5 152q-.6.9-1.6 1-.9-.1-.4-1a2 2 0 0 1 1.6-1q.9 0 .4 1m230.5 3.2q-.1 1.7-1.5 1.8c-1.5 0-2.1-4-.8-5.3.9-.9 2.3 1.3 2.3 3.5m-149.8-.2c3.6 3 3.6 3 2.3 7.2-.9 3.2-1.8 4.4-3.4 4.6q-2.3.3-1.6 2.2c.5 1.5 0 1.9-2.2 2.2-2.3.2-2.8.8-2.9 3.1-.1 1.5.3 3 .7 3.3.5.3.9 1.5.9 2.8 0 1.9-.5 2.2-3.5 2.2-3.3-.1-3.5-.3-3.3-3.1.3-2.5-.1-3-1.9-3q-4.7 0-1.3-3c1.1-1 2-2.3 2-2.9q-.2-.8-1.5.8c-1.2 1.5-1.8 1.7-2.7.8q-1.3-1.2.6-1.8t.6-1.9q-1.2-1.4.1-2.1 1.2-.6 1.7.4.4 1.1 1.2.7.8-.6.3-2t.6-1.5c1-.1 1.1.4 1.1 1s1.1 1 2.5 1q2.6.1 2.5-2 0-3.5-2.8-.8-1.3 1.4-.5-1.3c.3-1.3.6-3.9.5-5.7-.1-3.2.1-3.3 2.6-2.8q3 .8 1.2-.4-2-1.1.5-1c1.1 0 3.7 1.3 5.7 3m-20.7 0c.4.6.1 1.8-.7 2.7s-1.3 2.5-1.3 3.6c0 2.8-2.5 3.4-3.2.8q-.6-2.7-3.5-2.2-.8 0-.8-.8c0-.8 1.6-1.2 3.5-1.5q3.3-.7 3.5-2.1c0-1.7 1.6-2 2.5-.5m170.7 11.7q-.5 2.1-1.3 2.3c-1.1 0-1.2-6.1-.2-8.7q.7-2.4 1.3 1.2c.3 1.6.4 4 .2 5.2m-181.2.8c1.7.9 3 2 3 2.5 0 1.3 0 1.3-4.2-.9-2.1-1-3.4-2.1-3.1-2.5.9-.8 1-.8 4.3.9m-16 2.1q0 1.3-.9 1.4c-1.1 0-2.2-2.6-1.4-3.4.9-.9 2.3.3 2.3 2m190.5-1.6c.3.5-.5 1.5-1.9 2.2-2.8 1.2-3.5 4.5-1.1 5.4.8.4 1.5 1.6 1.5 2.7 0 1.9-.4 1.7-3.5-1.3a18 18 0 0 1-3.5-4.2c0-1.1 5.3-5.8 6.7-5.8.6 0 1.5.4 1.8 1m-197.9 5.8c-1.2 1.1-1.8-.7-1-3l.8-2.3.4 2.3c.2 1.3.1 2.6-.2 3m-12.5 4.6q.8 1.1.9 2.5c-.1 2.1-3.9-2.8-4-5 0-2.6 1.5-3.3 1.8-.7.2 1.2.8 2.7 1.3 3.2m16.7-3.5q.4 1.3-.9.9-1.2-.5-1.7-1.7-.4-1.3.9-.9 1.2.5 1.7 1.7m18.3 1.4c.9 3.4.2 5.7-1.7 5.7-1.7 0-1.8-1.2-.3-2.7 1.3-1.3.4-3.3-1.6-3.3-.8 0-2.3 1-3.5 2.2-2.4 2.7-3.6 1.8-1.8-1.4s2.9-3.9 5.7-3.6q2.6.2 3.2 3.1m39.9-.2c0 1.8-.2 2-1.5.9s-1.3-1.5-.3-2.1c1.8-1.2 1.8-1.2 1.8 1.2m124.8-1q-.4 1-1.3 1-1.2 0-1.3-1t1.3-1.1c1.5-.1 1.5.5 1.3 1.1M161 176.4q0 .6-1 1.1-.9.4-1-.4.1-1 1-1.1 1 0 1 .4m29.5.6q.4.9-.9.4-2.7-1.2-.7-1.4 1 0 1.6 1m-12.2.6c.8.8-.3 3.4-1.4 3.4q-.8-.2-.9-2c0-1.9 1.1-2.6 2.3-1.4m61.2 4.4q-.6 1.8 1.1 2.8c1.6.9 1.4 1.3-1.7 3.1-3.6 2.2-5.4 2.7-4.4 1.2q.4-.9-.5-1.6c-.5-.3-1-1.7-1-3.1 0-2.1.4-2.4 2-1.9 2.6.8 2.8-2.2.3-4.2q-2-1.5 1.5.2 3.6 1.6 2.7 3.5m-57.4.3q-1.2 1.2-1.1-.4c0-2 1.3-3.4 1.8-1.9q.3 1.2-.7 2.3m7-.3c1 .6 1.9 1.7 1.9 2.5s.7 1.5 1.5 1.5 1.9.9 2.4 1.9c1.5 2.7-.5 8.1-3 8.1-2.1 0-2.6-1.6-.6-2.3q1.2-.4-1-2.9c-1.3-1.3-2.3-2.9-2.3-3.5q-.1-1-1.4-2.3c-.8-.6-1.2-1.8-.9-2.6.6-1.7.9-1.7 3.4-.4m56.3-.1q.4 1-.8 2-1.6 1.6-.9-.8.7-3.3 1.7-1.2m120.8 8.6q-.4 7.2-1.3 5c-1-2.5-1.1-11.9-.2-12.8q2.2-2.2 1.5 7.8m9.3-5.5q.4.9-.4 1-1-.1-1.1-1 0-1 .4-1t1.1 1m-168.7 2.3c.6.5 1.2 2.8 1.2 5.2 0 4.7-3.7 10.5-6.7 10.5-1.2 0-1.1-.7.6-3.6 2.4-4 2.1-9.1-.5-10.1q-1.3-.6-1.4-1.7c0-1.3 4.9-1.5 6.8-.3m20.5-.4q2.9-1.5.5.4c-1 .8-1.8 2-1.8 2.7 0 2.1-1.4.2-1.6-2.3q-.2-1.8.2-1 .4 1.4 2.7.2m-50 2.8q4.1 8.1.4 15c-2.4 4.6-4 5.2-7.5 2.7-2.7-1.9-2.9-4.4-.2-4.4 2 0 4-2.7 4-5.4q-.1-1.5-1.5-1.6c-1.4-.1-1.5-.5-1.5-1.1q-.1-1-2.2-.3c-2.1.6-2.1.5-.9-1q1.4-1.6 2.4-.7c1.3 1.3 5-.6 4.1-2-.6-1 .1-3.9 1-3.9.3 0 1.2 1.2 1.9 2.7m6.7-.8c1.2 2.4 1.3 5.1.1 5.1q-.8-.2-1.4-1.8c-.2-.9-.8-2.5-1.2-3.5-1-2.4 1.2-2.2 2.5.2m176.4 10.3c2 33.4 2 32.2.4 31.5-2.2-.8-3.8 1.2-3.8 4.5 0 4.2-2.8 4.8-5.6 1.3l-2.3-2.9-2.6 2.4a7 7 0 0 0-2.5 5.3c0 1.6-.9 4-2 5.4-2.4 3.1-2.5 5.1-.4 8.1 1.4 2 1.4 2.2-.4 2.2-1.6 0-2-1.2-2.9-7.8a129 129 0 0 1-.8-18.4c.3-12.2.9-13.5 10.3-24.7 3-3.5 6.6-8.8 8-11.8 1.4-2.9 2.9-5.3 3.3-5.3s.9 4.6 1.3 10.2m10.1-7.2q-.7 1.4-1.6-.1c-1-1.7 0-3.4 1.3-2.1.6.6.7 1.6.3 2.2m7.5-1.8c0 1.7-4.8 3.9-5.6 2.6q-.4-.8-.3-1.2l5.7-2.5q.2 0 .2 1.1m-155.5 3c4.5 1.6 5.1 2.6 2.2 3.9-3.1 1.4-3.7 3.3-.7 2.4q1.8-.5 2 .4-.1 1-1.1 1.1t-.7 1.7c.1 1-.1 2.4-.5 3q-.7 1.3.3 1.3 1.1-.2 1.7-2c.8-3.1 2.6-2.4 1.9.7-1.1 4.4-6.6 7.5-6.6 3.7q0-1.4-1.2-.8-1.2.7-.5-.9c.8-2.1-.9-2.2-2.9-.2q-3 3-3.7-.5c-.4-1.7 0-2 2.3-2 3.8 0 4.5-1.4 1.5-3q-2.6-1.3-1.9-3.2c.3-1 .7-3 .9-4.6l.4-3.1q.3-.2 1.9.4zm6.2 4q-.5 1-.5-1.2c0-2.2.2-1.9.5-1.3.2.7.2 1.9 0 2.5m137.8 4.5c.3 1.8.1 3.5-.5 3.8q-1 .5-1-3.6 0-7.2 1.5-.2m-181.7 4q-.4 1.5-1.5 2-1 .4-.6-1.6c.6-2.5 2.6-2.8 2.1-.4m10.5.1c2.1 2.3.5 4.2-3.5 4.2-3 0-3.9-2.5-1.6-4.8q2.4-2.6 5.1.6m172.6 15.5c.1 3.6-.3 5.6-.9 5.2a30 30 0 0 1-.9-10.3c.1-8.2.3-9 1-5.2.4 2.5.8 7.1.8 10.3M396 214c0 3.3-1.5 4.1-2.2 1.2-.6-2.1.1-4.2 1.3-4.2.5 0 .9 1.3.9 3m-201.5-.2c7.2-.6 7.1.7-.2 2.2-6.4 1.3-8.6 2.7-7.9 4.6q.4 1.2-.4 1.9-1 .5-1-1.2-.1-2.4-1.5-4c-1.4-2-1.3-2.3.7-3.7 1.6-1.1 2.5-1.3 3.5-.4.8.6 3.6.9 6.8.6m15-.6q2.3 1 2.5 2c0 1.5-3.2 2.2-4 .9-.4-.7-1.6-1.2-2.6-1.1-4 .5-4.7.1-3.4-1.5q2.3-2.7 7.5-.3m161.2 7q-.5 1.1-.6-.6t.5-1.3q.5.6.1 1.9m-38.6 5.1c-1.6 1.6-2 .5-.8-2.3q1.1-3.2 1.4-.6c.3 1 0 2.3-.6 2.9m49.4-.2c.4 1.7.4 3.3.1 3.6-.9.9-1.2.2-1.9-3.5-.8-4.1.9-4.2 1.8-.1M196 224c0 1-4.1 3-6.2 3-1.4 0 3.4-3.9 5-4q1 .1 1.2 1m175.5 6.8c-.6 4.7-.7 4.8-1.4 1.2q-1.2-5.7.9-4.5c.5.3.7 1.8.5 3.3m-189.4 4.5c-1.3 1.3-1.5-2.1-.3-5q.8-2.4 1 1.1c.2 1.6-.1 3.3-.7 3.9m219.9 1.3q.1 2-1.5.4-1.4-1.2-1.5-1.6.1-.3 1.5-.4c1.4-.1 1.5.7 1.5 1.6m-150.5 1.2c4.8.9 4.6 1-2.5 1.7-5.7.5-23.8 5.8-27.9 8.2a111 111 0 0 0-26 26.8c-.8 2.2-2.6 5.8-4.2 8-2.7 3.8-7.1 16-8.4 23.6-.6 3.5 1.1 6.9 3.4 6.9 1.8 0 3.2-2.9 2.3-4.7a12 12 0 0 1 .1-6.3l1-4.5.7 3.5c.4 1.9 1 6.8 1.3 10.8.6 7.1.6 7.2-1.7 6.6-2-.5-2.6.1-4.5 4.7a61 61 0 0 0-4.6 33.4c.8 6.7 2 9.4 4.7 11.3 2.3 1.7 2.3 3.3-.2 6.5-1.1 1.4-2 3.3-2.1 4.4q0 3.1-1.3-3c-.9-4.1-3.3-3.3-5.8 2-2.4 5-5.1 6.3-5.6 2.7-.2-1.2.6-5 1.8-8.4 2-5.8 2-6.4.4-8.7-2.2-3.4-3.7-1.8-6 6.7-2.4 8.8-2.9 16.1-1.2 18.2 3.5 4.7 12.5 2 15.3-4.5.8-1.7 1.4-2.8 1.5-2.3.1 2.2-3.3 14.4-5.1 18.2-1 2.2-1.9 4.7-2 5.5 0 .8-.8 2.6-1.7 4l-4 6c-4.9 7.4-5.3 15.9-.7 16.7 2.7.6 4.4-2.3 3.8-6.6-.4-2.9.1-4.6 2.3-7.7 1.5-2.2 3.5-5.8 4.5-8l1.8-4 .1 7.5c.7 31.2.3 44.2-2 71.5-.5 6-1.2 15.9-1.5 22-.2 6-1 17.3-1.7 25a443 443 0 0 0-1.3 28.3c0 13.9.1 14.4 2.4 16.3 1.7 1.4 3.9 1.9 8.7 1.9 7.1 0 8.4 1 5.2 3.9-2.2 2.1-2.2 2.1-4 .1-2.4-2.6-3.4-2.5-5.3.3a32 32 0 0 0 0 16.9c.4.9.2 3.2-.4 5-2 6.5-2.3 10.7-2.8 41.5s-.5 31.1 1.6 32.2c1.7 1 2.1 2.1 2.1 6.1 0 5.4-.9 6.1-4 3-1.6-1.6-1.8-2.5-1-4 2.4-4.4-.4-8.1-6.8-9l-3.7-.5-.3-7.5c-.4-8.9 1.3-19.8 3.5-22.2 1.2-1.4 1.3-2.3.4-5a39 39 0 0 1 .7-21.2q1.3-3 .3-3.9-1-1 0-2.9c.8-1.5.4-2.4-1.9-4.6-3.9-3.6-4.2-4.8-3.1-12.8L168 576l3.5-39.1 1-11.5c.2-2.7.7-19.2 1-36.8l.7-32.5-.1-9.4c-.1-7-.4-8.9-1.7-9.4-3.6-1.3-3.6-1.4-3.6 39.2a371 371 0 0 1-1.2 39.5c-.4 8-1.1 18.3-1.6 23s-1.2 13.1-1.4 18.6a75 75 0 0 1-.9 11.2 280 280 0 0 0-3.4 32.4c-.3 3.4 0 6.5.7 7.9.8 1.4 1.4 8.4 1.6 18.5.4 16.8-.1 19.3-3.3 16.1-1.7-1.6-1.7-1.4-1-56.7.2-17.5.5-20.9 2-23.5a17 17 0 0 0 1.7-8c-.1-2.8.2-9.1.6-14.1q.8-9.1-.6-12.8c-1.6-4.8-1.3-42.1.5-74.1 2.1-37 2.2-46.5.7-63.4-.6-6-.5-12.1.2-17 .6-4.2.9-12 .6-17.4s-.2-9.7.2-9.7c.3 0 1.5 1.7 2.5 3.7 2.1 4.3 3.2 4.8 5.7 3 1.6-1.2 1.6-1.5-.4-7l-2.1-5.7 3.1-5.6c1.7-3.1 2.8-6.4 2.5-7.4a104 104 0 0 1-1.3-27.2c.8-5.2.7-7.2-.2-8.3-1-1.2-1.6-1.3-2.7-.4q-2.6 2.5-1.6-2.3c.3-1.5 1.3-3 2.2-3.3s2.5-2.2 3.4-4.3c7.9-17.9 23.1-34.3 37.1-39.9a60 60 0 0 1 39.1-4.5m120.8 16.9c.1 7.9-.1 14.3-.5 14.3s-.8-4.6-.9-10.3c0-5.6-.2-13.1-.5-16.7-.3-5.2-.2-6 .7-4a90 90 0 0 1 1.2 16.7M305 238q-.1.9-1.4 1c-.8 0-1.8-.5-2.1-1q-.4-1 1.4-1 2 0 2.1 1m71.2 5.5c-.5 3-1.8 3.3-2.5.6q-.8-3.2 1.8-3.1 1.2.1.7 2.5m-21.4 6.6a23 23 0 0 1-4.3 6.6c-.5.2-1.8-1.1-2.8-2.8-1.5-2.7-1.5-3-.2-2.5 2.3.9 7.6-3.4 7-5.5q-.6-1.7 1.2-2.1c1-.3 2-.3 2.1-.2s-1.1 3.1-3 6.5m-79.3-3.6c3.3.9 6.4 2 7 2.6 1.4 1.4-2.1 1.1-6.2-.6-3.7-1.6-9.5-2-10.7-.8-.4.4-4.6.8-9.4 1-21.3.6-22.6.8-28.8 4.4a29 29 0 0 0-7.2 5.1c-1.7 2.3-3.2 2.3-3.2 0 0-3.3 6.1-7.6 13-9.4l7-1.9 6.5-1.8a118 118 0 0 1 32 1.4m105.5 1.1q0 1.3-1 1.4-.9-.2-1-2.1.1-1.7 1-1.4c.6.3 1 1.3 1 2.1m-5 .8q0 .6-1 1.1-.9.4-1-.4.1-1 1-1.1 1 0 1 .4m-70.7 4.8c2.3.9 2.7 1.5 2.3 3.7-1.3 6.8-1.6 14-.7 18.6.5 2.7.7 5.2.5 5.4-.3.3-1.7-.7-3.1-2.2-2.6-2.6-2.7-2.9-1.5-7.2 1.8-6.8 1.6-12.4-.5-13.1l-4.8-2.2-6.2-3.2c-3.3-1.6-3.2-1.6 4-1.2 3.9.2 8.5.8 10 1.4m-45.8-.2c-.3.5-3 1-5.8.9-4.1-.1-4.7-.3-2.7-.9 3.7-1.2 9.2-1.2 8.5 0m-19.5 2c0 .5-2.1 1-4.7 1q-5.1 0-3.3-1c2-1.3 8-1.3 8 0m122.7 2.2q-.5 1-.5-1.2c0-2.2.2-1.9.5-1.3.2.7.2 1.9 0 2.5m-79.9.7c3.2.5 6.1 1.6 7.5 2.9q4 3.9 5.1.7c.7-2 3.6-.8 3.6 1.6 0 1.5-.5 1.8-2.4 1.3-1.3-.3-4 .2-6.1 1-3.8 1.6-3.9 1.6-6.6-1-2.4-2.3-3.6-2.6-11-2.9-8.2-.3-19.5-2.2-18.6-3.2.8-.8 18-2.1 20.7-1.6zm-71.8 6.3-8.2 7.5c-3.1 2.9-3.6 3.1-3.1 1.3.7-2.5 6.4-8.4 10.8-11.1q7.6-4.5.5 2.3m20-2.2c0 1.2-2.8 2.5-3.6 1.7s.6-2.7 2.2-2.7q1.3.1 1.4 1m115 .5q-1.2 1.3-2.1.9c-1.3-.8-.1-2.4 1.8-2.4q1.9-.1.3 1.5m18.2 14.7c.1 16.1.2 18.9.8 30.6l.3 7.2-4.4 2.8q-7.8 4.9-7.9 3.4c0-2.7 3.1-17.4 4.3-20.7.9-2.2 1.6-5.4 1.6-7 0-1.7.5-6.4 1-10.5s1.4-10.5 1.7-14.3c1.2-11.5 2.4-7.4 2.6 8.5M221.5 265c-.3.5-1.7 1-3.1 1q-2.2 0-1.9-1c.3-.6 1.7-1 3.1-1q2.2 0 1.9 1m159.5 7.2c0 3.4-.3 5.9-.6 5.5-1.1-1.1-1.5-11.7-.4-11.7.6 0 1 2.6 1 6.2m-176 8.2c-1.3 1.3-3.5-.7-2.5-2.4q.7-1.2 2.1.1 1.5 1.1.4 2.3m150 .6q-1.2.8-.2 1.4c1.2.7.4 4.6-1 4.6-.6 0-.7-1.1-.4-2.4.3-1.4.1-2.6-.5-2.8q-1.2-.5.7-2.2 1.9-2 2.2-.6.4 1.2-.8 2m-188 6.9q-.1 1-1.1 1.6-1 .8-.5 2.1c.7 1.8-1.4 3-2.4 1.4s.9-6 2.7-6q1.2 0 1.3.9m215 .6q0 1.4-1 1.5-.9-.1-1-1.5c-.1-1.4.5-1.5 1-1.5q1 .1 1 1.5m-152.8 2.2c1.1.6 2.1 7 1.4 9.6q-.6 2.3-5.1 4.5l-4.6 2.2.3-2.7c.2-2.3.9-2.9 3.3-3.1 4.1-.5 6.2-2.2 4.3-3.6a8 8 0 0 1-2.1-2.9c-.6-1.5-1.3-1.7-3.7-1.2q-3 .6-3-.4c0-1.9-2.9-1.2-4 .9q-1.1 2 0 3.9c1.2 2.4 1.3 6.8.2 7.5-.5.3-2.2-.8-3.7-2.4a10 10 0 0 1-3-6.9c-.3-4.4.6-5.7 4.5-6.4a56 56 0 0 1 15.2 1m-26.6 3.6a355 355 0 0 0 2.9 46.2c.3 3.3.7 7.3 1 9 2.4 16.2 2.7 81.5.3 81.5-1.3 0-2.2-2.4-2.1-5.5l.6-12.2c.4-6.5.2-9.3-.6-9.6q-1.3-.4-.2-1.8c.7-.8 1-6.9.8-15.4l-.2-19.3c0-3-.5-6-1.1-6.7q-1.2-1.3 0-2c.6-.3.8-1.1.4-1.6q-.6-.8-1.7-.2-1.3.8-.1-.8c.6-.8.9-3.6.7-6.4l-.8-12c-.1-3.9-.6-10.8-.9-15.5-.5-7.4-1-27.2-.7-29.3q.2-.6 1.2-.7 1 .1.5 2.3m149.4 3.1c0 1.4-4.8 5.1-5.7 4.3-.4-.4 4.7-5.7 5.4-5.7q.3.1.3 1.4M241.2 300c4.3 1.9 7.8 4.3 7.8 5.2 0 .3-3 .8-6.7 1.2-7.7.8-8.8 1.3-7.3 3.1.9 1.1 3.1 1.3 9.5.8s8.8-.3 10.1.8c1.5 1.2 1.3 1.4-1.2 2.1q-2.8.8-3.9-.9c-1-1.4-1.5-1.3-5.2.6a25 25 0 0 0-7.8 7.1c-4.1 5.5-5.5 6.2-5.5 2.6 0-3.7-2.6-4.8-10.5-4.6-3.9.1-3.9.1-2-1.8 1.1-1 4.1-2.8 6.7-4.1 4.6-2.2 10.8-9.6 10.8-12.8 0-1.7 0-1.7 5.2.7m136.8 1.1q-.1.8-1.5.9c-1.5 0-2-1.2-.9-2.3.8-.8 2.4.1 2.4 1.4m4-.1q0 .9-.4 1-.5-.1-1.1-1-.4-1 .4-1 1 0 1.1 1m-32.6 5.8q-2.6 5.6-2 .9c.5-3.6 1.8-5.9 2.7-5 .6.6.3 2.3-.7 4.1m22.6-1.4c0 .8-.4 1.8-1 2.1q-.9.3-1-1.4.1-2 1-2.1 1 .1 1 1.4m8.1 8.6q1.7 1 1.9 2.1c0 .5-1.3.3-3-.6s-3-1.8-3-2c0-.8 2-.6 4.1.5M252 315.9c0 .5 2 1.7 4.5 2.7 2.8 1 5.2 2.8 6.3 4.6a9 9 0 0 0 4.7 3.7c2.8.7 3 1.1 2.7 4.7-.5 5.9-6.8 11.8-9.8 9.3-1.3-1.1-1.2-1.6 1-3.6 2.9-2.7 3.3-5 1.3-7.8-1.7-2.2-4.1-1.1-3.4 1.6.4 1.6 0 1.9-2.9 1.9a8 8 0 0 0-5.5 2.1c-1.1 1.1-2.2 1.9-2.3 1.7l-2.9-4c-1.5-2-2.7-3.9-2.7-4.2 0-.2 1.3-.4 3-.4 2.9.1 10-4.3 10-6.3 0-1.4-3.2-1-5.4.6s-3.5 1.8-5.6.5c-1.2-.8-.9-1.5 2-4.3 3.7-3.6 5-4.3 5-2.8m118.8 2.3c-.2.6-1.1 1.5-1.9 1.9-8.3 4.3-17.1 8-13.9 5.9a176 176 0 0 1 15.3-9q.8 0 .5 1.2m-22.1 4q-.5 1.1-.6-.6t.5-1.3q.5.6.1 1.9m-130.6 2.9c-2.8 3.2-4.3 3.6-6 1.5-2-2.4-.3-4.1 4.2-4.3l4.4-.1zm128.1 1.1q-1.1 1-1.9.4-.6-.7.7-1.6c1.9-1.2 2.7-.3 1.2 1.2m21.8-.2c.8 1.6.6 2.1-1.2 3.1q-2 1-1.6.4c.4-.4 0-1.4-.8-2.2s-1.2-1.9-.9-2.4c1-1.5 3.4-1 4.5 1.1m19 0q0 .9-.9 1-1-.1-1.6-1-.4-1 .9-1 1.5 0 1.6 1m.2 5.7c2.7 1.4 4.8 3.2 4.8 4 0 2.1-2.4 1.5-5-1.2-1.3-1.4-3.1-2.5-4-2.5s-2.7-1.2-4.1-2.6l-2.4-2.5 3 1.1c1.6.6 5.1 2.3 7.7 3.7m-155.2.2c0 .9 1.3 3.2 2.8 5.1 1.6 1.9 3.4 4.6 4.1 5.8a11 11 0 0 0 4.6 3.8c3.3 1.4 5.2 4.4 4 6.4q-.7 1-3.5-.7c-2.3-1.3-3.2-1.4-4.4-.4-2 1.7-3.6.6-3.6-2.5q0-2.4-6-8.3c-3.3-3.2-6-6.1-6-6.4q.2-.4 2-1t2-2.5q-.1-2.2 2-1.5 1.8.7 2 2.2m-19 .1q0 .9-.9 1-1-.1-1.6-1-.4-1 .9-1 1.5 0 1.6 1m146.7 2.2q-.5 1.1-.6-.6t.5-1.3q.5.6.1 1.9m-192.2-.2c-.3.5-1.3 1-2.1 1s-1.4-.5-1.4-1q.2-1 2.1-1 1.8 0 1.4 1m170.1 1.1c1 1.7-1.7 13.2-2.9 12s-1.3-10.3-.3-12c.9-1.4 2.3-1.4 3.2 0m27.4-.1q0 .9-1 1a1 1 0 0 1-1-1q.1-1 1-1t1 1m-36.4 2.6q-.5 1.5-.6 2.4c-.1.9-1.7 1-3.7 1.2-3 .2-3.8.7-3.8 2.2 0 2.8 3 4.4 5.5 2.8 1.8-1.1 2.1-.9 3.1 1.5.6 1.6 1.9 3.7 2.9 4.8 2 2.2 2.4 9.5.5 9.5-.6 0-1.1-1-1.1-2.1.1-1.2-.7-2.6-1.7-3.3-2.6-1.6-9.1 2-9.5 5.4q-.8 7.2-2.4 7-1 .1-.5-6.5c.5-5.3.4-6.5-.8-6.5-2.8 0-.7-11.5 2.5-13.5.5-.3 1-1.7 1-3 0-2.7 1.1-3.3 5.9-3.4 2.6-.1 3.2.2 2.7 1.5m-141.6 7c0 3.6-.4 6.3-.9 6s-.8-2.5-.6-4.9l.4-6q.2-1.5.6-1.7c.4-.2.5 3 .5 6.6m125.4-1.5a38 38 0 0 1-3.3 6.7l-3.5 5.4c-.9 1.6-2.1 2.8-2.7 2.8s-2.3.9-3.9 2c-2.7 1.9-2.8 1.9-3.3 0-.6-2.4 0-3 3.3-3 3 0 5.8-2.6 6.5-6 .2-1.3 1.4-3.3 2.5-4.5s2-2.8 2-3.6c0-1.5 1.9-3.9 3.1-3.9.4 0 0 1.8-.7 4.1m53.8 59.4c1 74.1 1.4 208.5.7 209.7-1.3 2.1-3.6-.1-4.9-4.7-1.4-5.1-5.3-10.5-7.6-10.5-.7 0-1.9 1-2.5 2.2l-1.4 2.6c-.1.1-2.2-1.6-4.6-3.8a28 28 0 0 0-6.2-4.6c-2.4-.8-8.8 3.5-12.3 8.3-4.2 5.7-15.6 17.3-16.6 16.7-2.1-1.3-.2-36.9 3.2-57.4l3.1-19.8c.9-5.9 1.5-7.6 3.5-8.9s3-1.4 5-.4c1.4.6 3.7.8 5.2.5 3.7-.9 8.4-6.1 7.7-8.5l-1-3.8c-.6-1.9.1-2.9 4-5.5 1.9-1.4 1.9-1.7-2.3-18.5-2.4-9.5-4.4-18.6-4.5-20.4-.2-3.9 4.1-37 5.3-41.2 2.2-7.5 4.1-26.1 4.9-50 .6-14.3.8-26.1.6-26.4q-.6-.2-1.8.7-1.4 1-2 .5c-1.1-1-.8-2.3.5-2.3a45 45 0 0 1 20.3-6.7l3 .2zm10.2-49.1c-.5 1.4-4.4 2.9-5.2 2.1q-.4-.6.8-2c1.6-1.9 5.1-2 4.4-.1m-156 2.5q.4 1-.8 2c-1.6 1.3-3.2-.2-2.1-1.9.8-1.2 2.2-1.3 2.9-.1m151.9 4.1q-1.2 4.1-1.3-.6 0-2.3.9-2c.5.3.7 1.5.4 2.6m-61.3 4.2q0 5.2-1 4.2c-1.7-1.7-1.7-9.4 0-9.4.6 0 1 2.3 1 5.2m-92.3 9.7c-1 1.2-1.2 1.2-1.5-.2q-.5-1.6-2.3-1.7c-1.5 0-1.9-.7-1.9-3.7v-3.6l3.4 3.9c2.7 3.1 3.2 4.2 2.3 5.3m53.6-2.4c1.7 2.3 1.7 2.5-.2 3.5q-4.2 2.3-4.1-.9c0-2.4 1-5.1 1.9-5.1.3 0 1.4 1.2 2.4 2.5m100.7 1.7q0 2.4-1.1 1.1-1-1.1-.5-2.2 1.6-2.5 1.6 1.1m-58.7.3q-.1 1-1.6 1.3-1.7.5-1.1-1.3c.7-1.7 2.5-1.7 2.7 0m27 9.7q-.4.8-1.4.8-.8 0-.7-.8c.1-.4-.2-1.9-.6-3.4q-.7-2.6.5-5c1.3-2.2 1.4-2.1 2 2.7.3 2.7.4 5.3.2 5.7m-108.5-1.8c-.3 2.1-3.2 2.5-5.2.6-1.7-1.7.1-3.8 2.9-3.2q2.8.3 2.3 2.6m-11 3.5c2.3 1.2 4 2.6 3.6 3.2q-.7 1-2.4-.6c-1-.9-2.4-1.5-3.2-1.4-5.2.7-7.7-1.2-6.4-4.7.6-1.5.8-1.5 2.4-.2.9.9 3.6 2.5 6 3.7m31.6-.9c2.2 1.7 3.8 3 3.5 3l-5.6.4c-5.2.3-5.3.3-5.3-2.4 0-4.9 1.9-5.2 7.4-1m118.6 4.1c0 4.4-.4 6.8-1 6.4-1.1-.7-1.3-5.7-.4-10.4q1.4-7.4 1.4 4m-66.8-4.7q.5 1.1-.3 2.8c-.8 1.4-.5 2.7.9 5.1 2.4 3.8 3.8 11.2 2.3 12.1-.9.6-4.2-8.6-5.6-15.7q-1.2-5.5-6-1.9c-2.2 1.8-3.1 1.9-5.8 1-4.4-1.5-5.6-2.8-2.6-2.8 1.3 0 3-.4 3.7-.8 1.7-1.2 12.5-.9 13.4.2m-27.8 5c1 2.4 2.7 4 6.1 5.6 4.8 2.3 7.4 2.3 13.6-.4 1.2-.5 1.9.4 3.2 4.5 2.4 7.4 2.2 8.6-1.7 9.9a36 36 0 0 0-7.6 4.1q-6.8 5.1-4.2-.6c1.6-3.5.4-8.5-2.4-9.7-2-1-2.7-.7-4.9 1.6-3 3.2-2.9 3-.8 6.3 1 1.5 1.6 3.7 1.5 5-.3 1.9.3 2.7 2.8 3.6 2.9 1.1 3.1 1.5 2.6 4.7a14 14 0 0 0 5.6 13.8c2.1 1.5 3.7 3.4 3.5 4.3-.3 2.3 2.2 4.9 4.7 4.9q6.6 0 1.6 4.3c-1.7 1.5-3 3.4-2.8 4.3.4 2.1 7.6 4.6 9.9 3.4 2.5-1.4 3.3-4.3 1.5-5.6q-1.7-1-1-4.3c.4-1.8.2-3.7-.5-4.5q-1.3-1.4-.1-2.1c1.7-1.1 2-.3 3.1 7a370 370 0 0 1 5.9 42.4c0 2.5-.9 4.2-3.9 7.2-3.8 3.8-5.9 4.3-4.1.8 1-1.8.7-9.1-.5-12.2-1.6-3.9-9.4-6-13-3.3-1.8 1.3-1.8 1.6-.3 5.2 3.2 7.5 3.2 8.1-.3 8.8-3.9.8-4.4.4-2.8-2.2.7-1.1.9-2.7.5-3.7-.5-1.4-1.4-1.6-5.4-1-2.6.4-5.3 1.2-5.9 1.7q-1.4 1.3-1.3-.8.1-1.9 4.9-4.7c5.1-2.8 9.1-7.9 9.1-11.5q.1-5.2-5.3.6c-1.9 2-5.5 5.3-8 7.2-4.7 3.7-9.7 10.3-9.7 13 0 .8-.9 2.1-2.1 2.8s-1.8 1.6-1.5 1.9q.4.7-.5 2.5-1.2 1.9.6 4.4a6 6 0 0 1 .9 4.7c-.4 1.2-.7 3.3-.6 4.7q.3 2.8-.6 1a299 299 0 0 1-4.4-35.3l-.2-4.9 5.4-.2c4.2-.1 6.7-.9 10.7-3.4 6.6-4.2 8.2-7.9 7.2-16.7-.9-7-2.9-10.9-7.7-14.9-1.7-1.5-3.2-3.3-3.2-3.9s1.8.6 3.9 2.7c3.2 3.2 4.4 3.7 6.6 3.2 3.2-.8 4.2-3.1 2.3-5.4-.8-.9-1.9-2.9-2.5-4.3-1-2.4-1.6-2.6-7.6-2.6-7.4-.2-9.3 1.1-8.3 5.2q.7 2.7-.9 2.5c-.9 0-2.9.7-4.5 1.5s-3.1 1.1-3.4.6-.8-3.9-1.2-7.7l-.6-6.9 3.4-1.6c3.8-1.8 6.7-7.9 6.7-14.4.1-5.5-5.1-14.4-9.9-16.7-4.3-2.2-11.3-2.3-13-.3-.7.8-2.3 1.5-3.6 1.5q-2.3 0-2.4 1.5c0 1.6 3.6 2.8 6.6 2.3q2-.3 2.2 1.9c.3 2.4-2.1 3.3-3.3 1.3q-.8-.8-3.5 1.2c-4.4 3.2-5 8.7-1.5 14 2.7 4 2.7 4.2 1 7-1.5 2.7-1.5 3.1-.1 5.3 1.8 2.8 2.7 3 4.4 1.3.8-.8 1.1 2.2.9 12.3-.1 12.3.3 20.8 1.9 40.7l.6 7.3-3.9 3.4c-3.2 2.8-3.6 3.6-2.7 5.2 1.6 2.6 4.4 2.9 5.1.4 1-3.8 2-2.2 2.7 4 1.1 10.9.8 12.8-2.1 15.3-3.2 2.8-2.7 5.9 1.7 11 4.3 4.8 4 7.3-1.1 8.6-2.2.6-5.7 1-7.7.8l-3.7-.3-.8-7.4c-.8-7.3-.8-7.4 2.2-10.5 2.7-2.8 3.1-3.9 3.1-8.9 0-6.5-1.9-12.1-4.7-13.5-1.9-1.1-2-2.6-1.5-26.8.2-10.3.4-11.4 3.1-15.5a20 20 0 0 0 3-16.8c-1.1-3.7-1.6-4.2-3.8-3.9l-2.6.3V428c0-5.2.5-14.9 1.2-21.4q1.3-12 .3-13c-1.4-1.4-3.9 1.3-4.2 4.7l-.4 2.7c-1.2 0-4.5-7.6-4.2-9.7.3-2.6.6-2.8 4.3-2.5 2.2.1 5.6.9 7.6 1.7a36 36 0 0 0 20.6-.8c1.8-.9 4.9-1.7 7-1.7a11 11 0 0 0 5.7-1.5c2.6-1.9 2.4-2 4 1.9m-89.6 2.8c-.2 3.2-.8 4.4-2.1 4.6-1.6.3-1.7.1-.8-1.6a12 12 0 0 0 1.1-4.6c0-1.4.5-2.6 1.1-2.6s.9 1.7.7 4.2m126.7-1.1c1 3 0 3.3-1.3.4-.6-1.4-.7-2.5-.2-2.5q.9.1 1.5 2.1m26.2 1.1q-.5 1-.5-1.2c0-2.2.2-1.9.5-1.3.2.7.2 1.9 0 2.5m-24 9q-.5 1.1-.6-.6t.5-1.3q.5.7.1 1.9m55.8 9.3c0 8.3-.3 11.6-1.2 12-1 .3-1.3-2-1.3-9.9 0-10 .5-13.6 1.9-13.6.3 0 .6 5.2.6 11.5m-172-7.6q-.6 1-1.7 1.1-1 0 .2-1.5c1.4-1.7 2.6-1.3 1.5.4m20.7.6c.3 1.4.1 2.8-.3 3.1s-.9-.9-.9-2.5q.2-5.7 1.2-.6m39.1 1c1.9 1.8 1.2 9.3-1 11.5-1.4 1.3-1.5.9-.9-4.2.4-3.5.2-5.9-.4-6.3q-1-.7-.5-1.6c.8-1.2 1.1-1.2 2.8.6m-27.8 3.7c-.3 2.4-.7 7.9-.9 12.3l-.3 8-3.2.9c-1.7.5-3.5.6-3.9.2-1.5-1.6-.5-11.5 1.6-14.8 1.2-1.8 3-5 4.2-7.1 1.1-2 2.2-3.7 2.5-3.7s.2 1.9 0 4.2M326 406q-.1.9-1.1 1-.8-.1-.4-1 .6-1 1.1-1 .4 0 .4 1m3.8 6.5q-.5.4-3.1 1c-2.4.6-2.6.5-2.1-1.1a14 14 0 0 1 2.8-4.2l2.1-2.4.3 3.2c.2 1.8.2 3.3 0 3.5m10.8-2.8c-1.1 1.1-1.7-.4-.9-2.3q.9-2.7 1.1-.1c.2 1 .1 2.1-.2 2.4m39.1-1.5q-.5 1.1-.6-.6t.5-1.3q.5.6.1 1.9M220 412.5c0 2.7-.4 3.5-1.8 3.5-1 0-2.3.5-3 1.2-1.8 1.8-3.4-.3-3-3.8q.2-3 2.1-2.6c.9.2 2.5-.2 3.5-.7l2-1.1c.1 0 .2 1.6.2 3.5m85.8 6.3q.1 1.1-1.7 1.2c-2.1 0-2.7-1.1-1.4-2.4.9-.9 2.6-.2 3.1 1.2m65.4 9.2q-.4 4-1.2 1.6c-.8-2.4 0-7 1-5.9.4.4.5 2.4.2 4.3m-65.7-1.5c-1 .9-2.4 2.7-3 4.2l-1.1 2.7-2.2-2.2c-1.2-1.2-2.2-3.1-2.2-4.2 0-1.8.7-2 5.3-2 4.8.1 5.1.2 3.2 1.5m74.5 4q0 1.4-1 1.5-.9-.1-1-1.5c-.1-1.4.5-1.5 1-1.5q1 .1 1 1.5m-125.4 3.2c.4 2.1.8 6 .8 8.8.1 4.7-.1 5-2.6 5.3l-2.7.3.6-7.8c.2-4.3.6-8.4.9-9.1.7-2.4 2.3-1.1 3 2.5M337 431q-.1.9-1.1 1-.8-.1-.4-1 .6-1 1.1-1 .4 0 .4 1m-129.7 9.9q-.6 1.8-2.3 1.8c-1.6-.1-1.7-.3-.4-2.1.8-1.1 1.4-3.2 1.5-4.6l.1-2.5.8 2.7c.4 1.5.6 3.6.3 4.7m113.7-4.4q.1 1.4 1.1 1.5.8 0 .4 1c-1.2 2-3.5 1-3.5-1.5 0-1.4.5-2.5 1-2.5q1 .1 1 1.5m-89 3.9c0 1.4-.4 2.8-1 3.1s-1-.7-1-2.4.5-3.1 1-3.1 1 1.1 1 2.4m140 1.7c0 2.8-1.5 2.3-1.6-.6q-.1-2.2.7-1.9.8.6.9 2.5m-47.1 9.8c.7 3.5 1 6.5.8 6.7-.7.8-4.6-15.9-4-17 .8-1.2 1.6 1.4 3.2 10.3m-117.2-2.8c-.3 1-.1 2.1.4 2.4 1.1.7.4 51.4-.9 58.5a517 517 0 0 0-1.4 59.2c.3 20.8.3 21.7-1.7 22.7-4.4 2.4-7.3 0-3.1-2.7 2.3-1.4 2.7-3.4.5-2.6-1.9.8-1.9-1 0-2.6 1.7-1.4.9-3.5-.9-2.3q-1 .6.6-.9 3.2-3 .6-4.1-1.5-.3-.1-1.8c1.1-1.4 1.7-4 1.4-6.7q-.2-1.3-2.1-.7c-2.7.8-2.5-.9.2-3.5 1.8-1.7 2-2.3.9-2.9q-1.2-.9-.6-2.1a15 15 0 0 0 .4-10.2c-.8-1.5-.7-2.4.5-3.7q1.5-1.7 1.1-2.3c-.9-.9-1.5-10.7-.6-11.2 1.1-.7.5-17.4-.7-22-.9-3-.7-3.7.9-4.8 1.7-1.2 2-3 2.4-18.2.2-9.3.1-17.4-.2-18-1.1-1.7-1-6 0-7.4q1-1.4.1-2c-1.9-1.3-2.3-4-.8-5.3q1.4-1.2.5-2.3c-1-1.3-.9-4.6.3-6.5s3 1.3 2.3 4m109-1.9q-.5 1.1-.6-.6t.5-1.3q.5.6.1 1.9M237 450l-.8 3.5-.1-3.1c-.1-1.7.2-3.4.6-3.7q1.6-2 .3 3.3m-18-2q0 .9-.4 1-.6-.1-1.1-1-.4-1 .4-1 1 0 1.1 1m155 0q0 .9-1 1a1 1 0 0 1-1-1q.1-1 1-1t1 1m-142.5 2.8q-.6.4-1.8-.7-1.4-1.4.6-.5 1.6.6 1.2 1.2m36 .2c-1.7 1.9-1.7 2.1 0 4 2.3 2.6.6 5.2-2.3 3.4q-4-2.6.2-6.9c3-3 4.7-3.4 2.1-.5m107-.1q.4.9-.5 1.6-.9.4-1-.9 0-2.7 1.5-.7m-120.5 6c0 2.1-.6 4.4-1.4 5.1-1.2.9-1.6.6-2.1-2.3-.7-3.7.9-8.2 2.6-7.2.5.4.9 2.3.9 4.4m126-4.5q0 .5-1 1.1-.9.4-1-.4.1-1 1-1.1 1 0 1 .4m-159.2 2.5q.4 1.3-.9.9-1.2-.5-1.7-1.7-.4-1.3.9-.9 1.2.5 1.7 1.7m56.2.7c1.7 4.4 1.1 7.8-1.9 11.4-3.1 3.8-3.9 3.7-4.3 0q-.3-2.4 1.7-2.8c4.4-.9 6.2-5.6 3-8.2-1.7-1.4-2-3-.5-3 .6 0 1.5 1.2 2 2.6m42 1.5q0 .8-1 .9-.9-.1-1-1.6.1-1.3 1-.9 1 .6 1 1.6m-87-.1c0 1.3-4.9 4.4-5.7 3.6-.9-.8 2.7-4.6 4.4-4.6q1.2 0 1.3 1m31.7 9.1c-1.1 2.8-1 3.3 1.2 5q4 3.4-.6 2.3c-1.6-.5-2.2-1.6-2.5-4.7-.5-4.7-.3-5.7 1.7-5.7 1.1 0 1.1.6.2 3.1m-31.9 10.6-.3 10.7-7-.1c-4-.1-7.1-.6-7.3-1.2s.8-1.1 2.1-1.1c2.7 0 9.3-6.8 7.9-8.1a12 12 0 0 0-4.7-1.1c-3.5-.3-4.1 0-5.4 2.7q-3 6.2-4.2 2.2-1.5-6.5 2.9-5.9 2.7.3 5-1.8c2.2-2.1 2.2-2.3.7-4.6L220 466h12.1zm26.6 6.5 1.1 11.3.7 6-2.7-3.3c-1.5-1.7-3.2-3.2-3.8-3.2q-1.2.1-1.5-10.1l-.3-10.1 2.9 2.1c2.4 1.7 3.1 3 3.6 7.3m120.6-7.7q0 1.4-1 1.5-.8-.1-.4-1.5.6-1.4 1-1.5.4.1.4 1.5m-189.3 7.8c.2 4 .2 12.6.1 19.2-.5 21 0 45.7 1.1 54l1.4 10q0 1.9-1.2 2-1.4-.1-1.7-3.5l-.8-10c-.8-8.9-1.6-12.3-3.3-13.7q-1.4-1.2-.7-2.4c.4-.7.9-3.8 1-6.8l.9-15.1c.4-5.2.8-16.3.9-24.5.4-17.6.4-18 1.3-17.1.4.3.8 3.9 1 7.9m190.3 1.3q0 1.3-1 .9-.9-.6-1-1.6.1-.8 1-.9 1 .1 1 1.6m-78.6 3.8c-.3 1.3-.1 2.7.5 3 .6.4 1.1 1.5 1.1 2.4 0 2.2-1.5.4-2.8-3.5q-1.5-4.5 1-4.3c.5 0 .6 1.1.2 2.4m79.6 7.8q0 .8-1 .8-.9-.2-1-2.3-.1-2.6 1-.7.9 1.4 1 2.2m-52.8 2.8a71 71 0 0 0 2.8 11c3.2 9.9 3.6 14.6 1.5 17q-4.3 4.9-4.3-2.3c0-2.4-.6-6.4-1.2-8.8s-1.6-6.9-2-9.9l-1.6-8.8c-.6-3.1-.5-3.4 1.7-3 2 .2 2.5 1.1 3.1 4.8m-174.8 22.2c-.1 13.9-.7 31.6-1.4 39.3-.6 8-.9 24.3-.6 38 .2 13.2.2 25.3-.1 26.8l-.6 2.8-3.1-3.8-3.1-3.7.3-11.6c.2-6.3.9-18.3 1.7-26.5.8-8.3 1.6-20.2 2-26.5l2-37c.9-16.1 1.8-23 2.9-23 .2 0 .2 11.4 0 25.2m72.8-22.9 4.8.1v3.5c0 2-.3 5.3-.6 7.4-.5 2.9-.9 3.5-2 2.6-.7-.6-1.8-.7-2.5-.3-1.8 1.1-9.8 1.4-10.5.3-1.3-2.2 1.7-3.7 7-3.3 4.8.3 5.4.2 6.4-2 .8-1.8.8-2.8-.2-4.1-1.8-2.6-5-1.5-5.4 1.8q-.7 4.7-7.9 1.4l-2.7-1.2 3.4-.5c4.1-.6 5.1-3.1 2.3-6.2-1.8-2.1-1.8-2.1.6-.8 1.3.7 4.6 1.3 7.3 1.3m59.4-.7c-1.6 4.2 5.9 7.1 9.6 3.7 1.7-1.5 1.8-1.5 1.8.8 0 5.4-4.2 6.3-9.8 2.2-5-3.7-5.4-4.5-3.5-6.5q3-3.3 1.9-.2m51.9 9.6c.4 2.1.5 4.2.2 4.4-.6.6-3.7-8.3-3.7-10.5.1-3 2.8 1.8 3.5 6.1m43-4.2q-.6.9-1.6 1-.8-.1-.9-1 .1-1 1.6-1 1.3 0 .9 1m-7.3 7c0 3.4-.5 6.7-1 7.2-1.1 1.1-1.6-11.7-.5-13.5q1.5-2.6 1.5 6.3m-53.8-5.4q1.6.7 1.6 3.8c0 1.7.7 5.3 1.5 8 1.7 5.5.9 7.6-2.9 7.6q-3.4 0-9.3 5.3a36 36 0 0 1-20.8 6c-3.2-.2-6.6-.8-7.6-1.3s-3.6-1-5.8-1c-3.2 0-4.4.5-5.7 2.5-.9 1.4-1.9 2.4-2.1 2.1a44 44 0 0 1-.8-8.5q-.4-11 1.9-7.2c.4.5 2.1.9 3.9.8 2.6-.2 3.1-.6 2.9-2.2-.2-1.1-.3-3.6-.4-5.5 0-1.9-.4-4.1-1-4.8-1.8-2.1.5-1.3 5 1.8 5.4 3.6 13.6 4.9 17.8 2.7 1.6-.8 4.1-1.7 5.6-2.1a8 8 0 0 0 4.4-3.1c1.2-1.9 2.2-2.3 3.9-1.9q2.4.7 3.5-1.5c1.1-2.2 1.9-2.5 4.4-1.5m-45.9 1.5c1.1 1.7-.1 2.1-1.5.4q-1.2-1.4-.2-1.5 1 .1 1.7 1.1m-37.8 3.1q-.5 1.1-.6-.6t.5-1.3c.3.3.4 1.2.1 1.9m48.5-1q-1.2 1.3-2.4 0-1.5-1.3 1.2-1.2c2.7.1 2.1.3 1.2 1.2m97.3 1.7q.4 1-.5 1.6c-1.5.9-4.3-.3-3.5-1.5.8-1.3 3.2-1.3 4-.1m-150.7 8.3q-.5 2.1-2 2.6c-2.1.4-2.4-1.8-.6-3.6q3-2.7 2.6 1m32.2-.3q0 1-1 1.6-.9.4-1-.9.1-1.5 1-1.6 1 0 1 .9m118.6.7q-.5 1.5-.6 2.5c-.1 1-.7.9-1.5.9-1.5 0-2.1-3.1-.8-4.3 1.3-1.4 3.5-.7 2.9.9m-124.5 7.3q-1.2 2-2.3 2.1-1.3 0 0-1.2a5 5 0 0 0 1.2-3.2q0-2.1 1.1-.9 1.2 1 0 3.2m124.4 2.1q.4.9-1.5 1c-1.9.1-1.8-.5-1.5-1q.6-1 1.5-1 1.2 0 1.5 1M231 533.5c0 5-.2 5.6-2.6 6.5-3.4 1.3-8.4 1.3-8.4-.1q.2-1 2-.6c2.6.7 4.7-1.8 3.1-3.7-1.4-1.7-.1-4.9 2.7-6.5 2.9-1.7 3.2-1.3 3.2 4.4m30.4-2c2.5 1.9 3 8.5.6 8.5q-4 0-4-6.2c0-6.2.5-4.5 3.4-2.3m-46.4 2.3q-.2.8-1.9 1.9c-1.7 1.1-2.1.9-2.6-.7-.9-2.9.2-4.2 2.6-3q1.7 1 1.9 1.8m158.7-.6q-.5 1.1-.6-.6t.5-1.3c.3.3.4 1.2.1 1.9m-69.2 7.5c-4.4 3.8-6.4 3.4-3.5-.7q2-2.8 4.6-2.6c2.6.1 2.6.1-1.1 3.3m8.5-2.3c0 .8-.4 1.8-1 2.1q-.9.3-1-1.4.1-2 1-2.1 1 .1 1 1.4m-22.5 1.5c1.4.2-3.7 4.1-5.4 4.1q-1.5.1-.2-1.3c.9-1.1.4-1.4-2.4-1.3-1.9.1-4 .7-4.7 1.4q-2.3 2.4-3.2-.3c-1-2.6 5.1-3.6 15.9-2.6m83.2 11.1c.4.8.8 4.9.8 9.2.2 6-.1 7.5-1.2 7.1-2.1-.8-2.5-4.3-1.9-15.5.6-12.5.9-13.8 1.3-7.3.2 2.7.7 5.7 1 6.5m8.1-8.6c.4 1.7-1.4 4.6-2.8 4.6-.6 0-.6-3.9-.1-6.8.2-1.1 2.7.7 2.9 2.2m-168.9 4.2c-1.6 2-2.8 1.7-2.2-.5q.6-1.8 1.9-1.4 1.6.5.3 1.9m48.9-1.2-1.7 5.9c-.8 2.6-2.2 5.2-3.3 5.8q-1.6 1-1.3 2 .7.8 1.6.4.8-.5.9.5c.1 1-.8 1.3-1.7 1.7-1 .3-2.8 1.5-4 2.6l-2.3 2v-2.6q0-4.4-2.8-1.5-1.3 1.3-1.2.1c0-.7 2.7-3.1 6-5.4q5.9-4.2 4.9-5t-.6-2.3q.8-1.6-1.2-1.6-1.8 0-2.3-1.2c-.5-1.5-2.8-.1-2.8 1.8 0 1.6-4.3 5.7-9.2 8.6q-5.6 3.5-2.3-.2c3.3-3.7.5-2.6-3.3-.4-2.6 1.6-2.6 1.6.3-1 6.1-5.4 14.7-10.8 16.5-10.3 1 .2 2.2.2 2.8-.2 1.8-1.1 7.3-.9 7 .3M242 547c0 1.2-2.8 2.5-3.6 1.7s.6-2.7 2.2-2.7q1.3.1 1.4 1m46.8.2q-.6 1.2-2.4 1.7-2.4.6-.5-1.3c1.6-1.9 3.4-2.1 2.9-.4m8.2-.3c0 1-3 2.4-3.7 1.7q-.4-.5.2-1.5c.8-1.3 3.5-1.5 3.5-.2m6 0c0 1.2-2 2.5-2.7 1.8s.6-2.7 1.8-2.7q.8 0 .9.9m-88.3 2.8c-.9.9-2 1.3-2.4.9q-.6-.7.7-1.6c2.5-1.6 3.5-1.1 1.7.7m10 .9q-.6.5-1.9.1-1.1-.5.6-.6t1.3.5m11.3.4c0 1.4-4.9 4.4-5.8 3.5-.4-.3.4-1.5 1.7-2.6q4-3.1 4.1-.9m53.9 2.1c-1.6 1-2.3.4-1.4-1q.6-1 1.7-.5.9.6-.3 1.5m92.1.9q.1 2.1-2.5 2c-2.7 0-2.8-.1-1.9-2.4.9-2.4 4.4-2 4.4.4m-97 3q0 .9-1 1a1 1 0 0 1-1-1q.1-1 1-1t1 1m-68.6 1.9c2.5 1 1.1 1.8-3.1 1.9q-3.4.1-2.6-1.4 1-2.3 5.7-.5m8.3 1.6c-2.6 2.3-4.7 3.2-4.7 2 0-.6 6.2-4.5 7-4.5.3.1-.8 1.2-2.3 2.5m10.8.5q-.7.9-1.6 1-.9-.1-.4-1a2 2 0 0 1 1.6-1q.9 0 .4 1m146.5 1.7q.2 4-2.6.9c-2.8-3.1-1.8-3.2.6-3.2q2 0 2 2.3m-143 .7c0 .8-2.3 2.8-5 4.5-5.8 3.5-6 3.6-6 1.6 0-.8 1.6-2.1 3.5-3s3.9-2.3 4.6-3.1c1.5-1.8 2.9-1.8 2.9 0m37.5 1.6q-.7.9-1.6 1-.9-.1-.4-1a2 2 0 0 1 1.6-1q.9 0 .4 1m25.5 0q-.1.9-1.1 1-.8-.1-.4-1 .6-1 1.1-1 .4 0 .4 1m-85 1c0 1.2-2.8 2.5-3.6 1.7s.6-2.7 2.2-2.7q1.3.1 1.4 1m4.5.9q-.6 1-1.7 1.1-1 0 .2-1.5c1.4-1.7 2.6-1.3 1.5.4m6.5-.4c-.7.8-1.7 1.5-2.2 1.5q-.9-.1.2-1.5c1.1-1.4 1.7-1.5 2.2-1.5q.9.2-.2 1.5m28-1.2-2.5 7.7a64 64 0 0 0-2.5 9.4c0 1.1-.7 2.7-1.6 3.7s-1.6 3.7-1.6 6.8q-.2 5.2-1.5 5.1-1.2.1-1.3 1.1 0 .8 1.2.3 1.2-.8.4 1.7a61 61 0 0 0-2.7 16.7q.3 8.1-2.5 8.2-1.3.1-1.4 1.1.1 1 1.5.5c1.9-.7 1.9 1 0 9.9-2.7 11.9-2.7 11.9-6.3 12.2s-3.8-.3-1.7-3.1c2.6-3.4 1.6-3.9-2-1.2-4.1 3.2-4.7 1.8-.7-1.6 3.5-3 5.7-5.8 4.6-5.8-.5 0-3.1 2.1-5.7 4.5-8.5 7.9-7 4.1 1.8-4.5 4.5-4.5 5.7-5.2 6.5-4 1.1 1.7 1.3.9.4-1.4s-2.7-2-5.3.8c-3.1 3.3-12 9.5-10.1 7.1q3.7-5.2 9.1-8.3c3.1-1.9 7.9-7.2 6.5-7.2-.3 0-3.9 2.7-8 6-7.1 5.6-9.7 7.1-9.5 5.2 0-.4 4.6-4.3 10.2-8.7 9.6-7.6 13.4-11.8 9.1-10-5.4 2.1-6 1.9-3-1.4 1.7-1.7 3.1-3.7 3.2-4.4l1-3.5q.6-2-.5-2.2-1-.2-1.1-1.5c-.1-1.3-.3-1.5-.8-1.5-1.1 0-8.3 4.9-11.4 7.7-1.4 1.4-3.4 2.3-4.4 2.1-1.4-.2-.3-1.5 4.4-5.1l12.2-9.3c3.3-2.5 6-4.9 6-5.3q0-4.4-10.7 5.4c-4.3 3.9-9.3 7-9.3 5.6q.1-1 1.3-2l4.5-3.7c1.8-1.5 3-2.9 2.7-3.2s-1.4.3-2.5 1.3c-2.9 2.6-3.8.9-1-2 2.4-2.5 5-3.3 5-1.5 0 2.1 2.7.8 7.3-3.4 5.4-5 6.3-7.5 1.8-5.1a10 10 0 0 0-3.6 2.5q-.6.9-1.7 1c-1.7 0 .8-2.4 5.7-5.6 4.6-2.9 5.3-3.8 3.5-4.9q-1-.8-.5-2.5t-.5-2.5c-1.2-.8 2.8-5.5 4.8-5.5q1-.1 1.2-1t1-1q1 0 1 .3m11.2 1.9q-1.1 1-1.2.2 0-1 .7-1.7t1.2-.2q.3.6-.7 1.7m11.8.8q-.2 1-2 2c-2.2 1.2-2.7.1-.8-1.8 1.4-1.4 2.8-1.6 2.8-.2m6.1 2c-1.9 1.6-3.7 2.7-4 2.4-.8-.7 4.7-5.4 6.2-5.4.7.1-.3 1.4-2.2 3m-15.6.7c-1.7 1.6-3.2 2.5-3.3 2-.4-.9 3.8-4.6 5.3-4.7.5 0-.4 1.2-2 2.7M304 569q0 .9-1 1a1 1 0 0 1-1-1q.1-1 1-1t1 1m68.8 1.5q-.6.4-1.2-1.2-1-2 .5-.6 1.1 1.2.7 1.8m-65.5 1.5q-.6 1.8-1.9 2c-2 0-1.7-2.8.4-3.3l1.9-.6zm88.8 4.3c-1.7 1.7-2.4-1.8-.9-4.5l1.3-2.3.3 2.9c.2 1.6-.1 3.3-.7 3.9M215 571.4q0 .5-1 1.1-.9.4-1-.4.1-1 1-1.1 1 0 1 .4m3.7 1.3c-.9.9-2 1.3-2.4.9q-.6-.7.7-1.6c2.5-1.6 3.5-1.1 1.7.7m79.8.3c-1 1.1-2.3 2-2.8 2q-.8-.2.8-2c1.6-1.8 2.3-2 2.8-2q.8.2-.8 2m-66.5.5q-.1 1.3-1.6 1.5-2 .1-.4-1.5 1.2-1.4 1.6-1.5.3.1.4 1.5m38 2.4c0 1.2-2 2.5-2.7 1.8s.6-2.7 1.8-2.7q.8 0 .9.9m-37.5 2.1c-1 1.1-2.5 2-3.4 2q-1.8 0 .8-2c3-2.6 4.9-2.6 2.6 0m56.9 4.4c-5.3 4.8-6.4 5.4-6.4 3.2 0-.8 2.1-3.3 4.7-5.5 6.6-5.6 8.1-3.6 1.7 2.3m-72.4-4.5c0 1.2-2.9 3.5-3.6 2.8-1.1-1 .5-3.7 2.1-3.7q1.3 0 1.5.9m17.5 3.6q-7.4 6.7-6.3 3.3c.5-1.4 8.8-7.7 10.3-7.7.6 0-1.2 2-4 4.4m44.5-1q-1.2 1.3-2.3.8-.9-.6.8-1.9c2.3-1.7 3.2-1 1.5 1.1m95.1 2.3c-.6 1.1-1.1 3.2-1.1 4.6s-.5 2.8-1.2 3.2q-1.1.9-.5-3.2c.4-2.1.7-5.2.7-6.9 0-2.7.1-2.8 1.6-1.3 1.2 1.2 1.4 2 .5 3.6m-78.6-1.1c-.8 1.5-3.8 4.9-6.7 7.4-2.9 2.6-5 5-4.5 5.5s2.8-1.2 5.2-3.6c7.9-7.7 4.8-2.7-4.1 6.8-5 5.3-9.4 9.2-10.5 9.2-2.9 0-2.3-1.1 3.1-5.8 2.8-2.4 5-4.8 5-5.3s-1.9.6-4.2 2.5q-5.9 5.2-5.8 2.9c0-1.2 21.4-22.2 22.7-22.2q1.3-.2-.2 2.6m-23-.7q-.7.9-1.6 1-.9-.1-.4-1a2 2 0 0 1 1.6-1q.9 0 .4 1m32.8 18.4c-.5 2.2-1.4 4.1-2.1 4.4q-1.3.5-.3-2.1 1-2.4-.2-3.6-1.2-1 .2-3.5c1.1-1.9 1.1-3.2.2-5.7-.9-2.6-.8-3.5.4-4.9.8-.9 1.6-2.3 1.7-3.1s.4 2.2.5 6.6c.2 4.4 0 9.8-.4 11.9M379 581q0 .9-.4 1-.5-.1-1.1-1-.4-1 .4-1 1 0 1.1 1m-77.5 1q-.7.9-1.6 1-.9-.1-.4-1a2 2 0 0 1 1.6-1q.9 0 .4 1m-77.1 3.5c-2.6 1.9-3.1.9-.8-1.6q1.8-1.9 2.2-.9.2 1.1-1.4 2.5m157.3.2q-.5 1.4-.5-1.2t.5-1.8c.2.7.2 2.1 0 3M218 584q-.2 1-2 2-2.2 1.3-2-.4.2-2 3.3-2.5.6 0 .7.9m61 1.5q-1.2 1.4-1.8 1-.3-.5.8-2 1.2-1.4 1.8-1 .3.5-.8 2m-21 2c.6 1.5 1.4 4.9 1.8 7.8s2.4 11.8 4.2 19.9l3.4 14.8-2.2 7c-2.5 7.7-4.9 10.1-17.2 17.9-8.1 5-9.4 4.2-5.7-3.6a73 73 0 0 0 5.2-24.8c1.3-14.9 4.5-34.3 6.5-39.3 1.2-2.9 2.8-2.8 4 .3m-28.3 4q-4.5 4-4.7 1.6c0-1.3 4.1-4.1 6-4.1q1.5.1-1.3 2.5M274 590q-.1.9-1.1 1-.8-.1-.4-1 .6-1 1.1-1 .4 0 .4 1m109 2.5q0 1.3-1 1.5-.9-.2-1-1.5c-.1-1.3.5-1.5 1-1.5q1 .2 1 1.5m-10.5.4q.4.9-.5 1.6-.9.4-1-.9 0-2.7 1.5-.7M192 597.2c2.5 1.3 4.7 2.6 5 3s.2 6.4-.2 13.5l-.7 24.5-.1 11.7-4.4 3c-2.4 1.7-4.7 3.8-5 4.8q-2.5 6.3-1.9-18.1c.5-15.3.8-17.3 2.5-19 2-1.9 2-1.7.5-18.1-.2-2.2-.7-4.8-1.1-5.8-1.1-2.3 0-2.2 5.4.5m180.2 2q-1.3 1.5-1.2-1.2c.1-2.7.3-2.1 1.2-1.2q1.3 1.2 0 2.4m-164.1 1.1c-.1 1.2-1.5.9-1.9-.4q-.4-1 .8-.8 1 .5 1.1 1.2m83.1 2.4c-4.7 5.8-13.1 13.8-13.8 13a94 94 0 0 1 15.9-16.5c.5-.1-.5 1.5-2.1 3.5m52.1-.6c2.1 1.7 5.1 5.5 6.8 8.4 3.1 5.5 6 7.4 11.2 7.6l3.2.1-2.7 1.2q-7.9 3.4-7.8 10.2c0 6 1.9 7.1 6.5 3.9 2.1-1.4 4.1-2.5 4.4-2.5.7 0 .8 3 2.1 35l2.1 53-.1 2.5-14.3.2c-16.2.2-20.1 1-20.5 4-.5 3.3-2.2 4.1-9.2 4.7-3.6.4-7.6.8-9 1.1-1.4.2-7.8.7-14.4 1l-11.8.5.6-2.2c.3-1.3.6-3.3.6-4.6 0-1.8.4-2.1 2.3-1.7 2.9.7 5.1-.8 5.2-3.7a13 13 0 0 1 2.1-5.2q1.8-3 1.7-7.2c-.1-3.4.2-4.3 1.8-4.7 2.4-.6 2.6-5.7.3-9.2-1.8-2.7-2-2.4 3.1-4 3.2-1 1.8-7-5.2-22.3-2.8-6.1-2.7-7.2 1.3-23.2 4-15.8 3.8-15.5 16-27.3 6.3-6.1 12.6-12.8 14-14.9s3.4-3.8 4.3-3.8 3.3 1.4 5.4 3.1m39.5 5.5c.1 2.6.3 4.9.5 5.1s.1 1.9-.3 3.8-.5 3.6-.3 3.9c.8.7 1.2 9.6.4 9.6-.3-.1-1.9-1.1-3.5-2.4q-3-2.4-2.2-4.1c.5-1.4.9-1.5 2.1-.5 1.8 1.5 1.7 2.1 1.6-10.8 0-5.6.3-10 .8-9.8.5.3.9 2.7.9 5.2m-88.8-2.3c0 1.8-8.9 10.9-10.1 10.2-1-.7 7.7-11.5 9.2-11.5q.8.1.9 1.3m10.1 3q-1.5 1.4-.5-.6.6-1.6 1.2-1.2.4.6-.7 1.8M216 608c0 .5-1 1-2.2 1q-2.7.1-.8-1 3-2 3 0m7 0q-.2.9-1.7 1-2.2.1-.3-1c1.9-1.2 2-1.2 2 0m135.5 3.8c-.9.9-2.5-1.1-2.5-3.1.1-2.1.1-2.1 1.5.3.7 1.4 1.2 2.7 1 2.8M235 609.4a92 92 0 0 1-14.9 10.8 50 50 0 0 1 6.9-6c6-4.6 8-5.8 8-4.8m33.2 3.8q-1.1 1-1.2.2 0-1 .7-1.7t1.2-.2q.3.6-.7 1.7m24.4 1.3q-.7 2.6.9 2.5c1.9 0 2 2.9 0 3.6q-1.4.7-1.5 1.7.2.7 2-.8c1.6-1.4 2.3-1.6 3.2-.7s-1.2 3.7-9.9 12.3a66 66 0 0 1-12.2 10.8c-.6-.2 1.9-3.9 5.5-8.2s5.6-7.4 4.5-6.8c-4.5 2.4-4.2-.2.5-5.2s3.3-4.7-2.9.8c-8.8 7.7-7.1 3.6 2.9-6.6 6.1-6.4 8-7.3 7-3.4m13.4.8c0 1.8-.6 4.1-1.2 5-1.1 1.5-1.3 1.2-1.5-2q-.5-6.5 1.7-6.3c.5 0 1 1.5 1 3.3m-32-1.4c0 1.2-2 2.5-2.7 1.8s.6-2.7 1.8-2.7q.8 0 .9.9m-52 .5q0 .5-1 1.1-.9.4-1-.4.1-1 1-1.1 1 0 1 .4m-12 3.6q-.1.9-1.1 1-.8-.1-.4-1 .6-1 1.1-1 .3 0 .4 1m9-.6q-.2.4-1.5 1-1.4.4-1.5-.4.1-1 1.5-1c1.4 0 1.5.2 1.5.4m154.1 5.8.1 7.9c.1 3.6-1 6.2-2.2 5.4-.5-.3-1-1.8-1-3.2 0-3.2 2.1-15.3 2.6-15.3.2 0 .4 2.4.5 5.2M227 621q0 .9-1 1a1 1 0 0 1-1-1q.1-1 1-1t1 1m3.6 2.5c-3.4 3-6.6 4.5-6.6 3.1a36 36 0 0 1 9.4-6.6c.6.1-.7 1.6-2.8 3.5m-14.1.5q.4 1-1 1.6c-1.9.8-3 0-2-1.5.8-1.4 2.2-1.4 3-.1m85.3-.1q1.6.7-1.3 2.5c-1.4 1-4.3 3.4-6.3 5.4a71 71 0 0 1-6.2 5.7c-2.2 1.7-2.1 1.5.5-1.5l4-4.5c.6-.6 2.4-2.7 3.9-4.8 3-3.9 3.4-4.1 5.4-2.8m63.2.5c0 1.5-4.6 5.6-6.2 5.6-1.4 0 .1-4.3 2-5.8 2.1-1.6 4.2-1.5 4.2.2M220 627q-.1.9-1.6 1-1.3-.1-.9-1 .6-1 1.6-1 .8 0 .9 1m79.9 12.7a47 47 0 0 1-3.4 10.3c-.7.8-1 2.1-.8 2.8.8 2-.7 8.2-1.8 8.2q-1-.1-.4-4.1c.6-3.3.4-4.3-1.1-5.4-1.8-1.3-1.8-1.4 0-3.4 2-2.2.9-3-1.2-.9-.6.6-1.5.9-1.8.5-.4-.3 1.2-2.7 3.4-5.3 3.9-4.6 4.8-8.1 1.4-5.1-3.6 3-4.5 2.8-1.7-.4 8.8-10 9-10.2 9.3-8 .2 1.1-.7 6-1.9 10.8M215 631q0 .9-1 1a1 1 0 0 1-1-1q.1-1 1-1t1 1m66 2.1c0 .5-1 .9-2.1.9-1.8 0-1.9-.2-.9-1.5 1.2-1.5 3-1.2 3 .6m102.5-.1q.4.9-.4 1-1-.1-1.1-1 0-1 .4-1t1.1 1m-.2 6.5c-.6 8.6-2.9 9.6-3.2 1.5-.1-4.5.1-5.1 1.6-4.8q1.9.3 1.6 3.3m-103.4 7.1c-4.4 4.5-5.9 5.3-5.9 3.3 0-1.9 7.8-9.1 9.1-8.4q1 .8-3.2 5.1m4.7.9q-2.7 3.5-2.1 5.7c.5 1.9-.7 3.5-5.8 8.7-7.3 7.1-10.1 6.9-3.2-.3 5.4-5.6 5.9-7 1-2.7-3.4 2.9-5.5 3.9-5.5 2.4 0-.7 17-17.3 17.8-17.3.2 0-.8 1.6-2.2 3.5m2.2 3.7q-.6 1.2-2.4 1.7-2.4.6-.5-1.3c1.6-1.9 3.4-2.1 2.9-.4m95.7 3.8q-.7 1.8-2.1 2c-1.7 0-1.8-.8-.2-4.2q1.4-3 2.1-1.2c.5.8.5 2.3.2 3.4m-146.1-2.2c.3.5.1 2.4-.3 4.3l-1.5 6.1q-.8 2.6-2.1 2.8c-1.8 0-1.8-.1 0-3.6.8-1.6 1.5-4.6 1.5-6.7 0-3.4 1.2-4.8 2.4-2.9M207 654q-.1.9-1.1 1-.8-.1-.4-1 .6-1 1.1-1 .3 0 .4 1m65 0q0 .9-1 1a1 1 0 0 1-1-1q.1-1 1-1t1 1m-53 1q-.1.9-1.1 1-.8-.1-.4-1 .6-1 1.1-1 .3 0 .4 1m35.8 4.2q-.9 4.4-5.3 8.7l-4.4 4.4-2-2.4a10 10 0 0 1-2.2-4.2l-.3-2.8c-.1-.7 1.6-1.8 3.7-2.5 2.1-.8 5.1-2.2 6.5-3.3 4.3-3.2 5.1-2.7 4 2.1m-54.3-1.5q1.4 1.8.3 3.7-1.2 2.1.1 2.4 1 .5 1.1 1.9c0 1.4-.3 1.4-2-.2q-2-1.8-2-5.7-.2-6.2 2.5-2.1m68.5.3q0 .9-1 1a1 1 0 0 1-1-1q.1-1 1-1t1 1m-37 1.4q0 .5-1 1.1-.9.4-1-.4.1-1 1-1.1 1 0 1 .4m59 1.8q0 2.4-1.1 1.1-1-1.1-.5-2.2 1.6-2.5 1.6 1.1m91.3 7.5c-.3 7.9-.7 9.3-2.3 7.7q-1-1 .1-7.3 1-6.4-.1-7.5c-1.3-1.6 0-3 1.4-1.6.6.6 1 4.3.9 8.7m-10.6-4.5q-.5 1.1-.6-.6t.5-1.3c.3.3.4 1.2.1 1.9m-167.5 12.6c4.8 3 13.5 6.2 19.6 7.3 6.9 1.3 11.2-.1 14.4-4.7l2.5-3.5.7 4.7c.4 3.5.2 5.2-.9 6.4-.8.9-2 5.4-2.8 10-1.7 10.5-5.3 18.1-7.1 15.1a51 51 0 0 1-.9-11c-.3-10.8-1.4-13.4-4.5-11.5-.9.6-2.1 2.7-2.6 4.7q-.9 3.7-2.7 3.7-5 .1-3.1 7.6c1.6 6.1 1.6 6.1-2.3 5.9-6.1-.4-7.9-4.9-5-11.9 1.8-4.1 1.3-5.6-1.6-5.6q-1.9 0-1.7-.8l2.3-4.5c1.4-2.9 1.7-4.2.9-5.5-2.5-4-11.2-1.4-9.8 3q.4 1.7-.5 1.8-1-.2-1.6-2c-1.1-3.5-6.5-1.8-6.5 2.1 0 .9.9 2.8 2 4.1 1.7 2.2 1.9 3.5 1.3 9.1-.5 6.2-.7 6.5-2.5 5.6-1.6-.9-1.8-1.7-1.3-5 .5-3 .2-4.5-1.3-6.6a23 23 0 0 1-2.5-10.1c-.6-7-.5-7.4 2.5-10.8 2.6-2.9 3-4 2.5-7.4l-.5-3.9 4.8 5.9c2.7 3.1 6.4 6.7 8.2 7.8m89.8-8.9c-1.4 3.4-1.2 3.3-3.4 2.5-2.1-.8-2-1.6.5-4.8 2.8-3.6 4.7-2 2.9 2.3m-107 .7c0 1.3-.4 2.4-1 2.4s-1-1.4-1-3.1.4-2.8 1-2.4 1 1.7 1 3.1m45.5 1.1c-.5 1-.9 3.3-1 5.1-.2 3.6-1.7 5.8-3.4 4.8q-1.1-.7.5-3.1c.9-1.3 1.3-2.9.9-3.5s.1-2.2 1-3.6c1.8-2.8 3.2-2.6 2 .3m43.5-1.5c0 1.6-4.1 5.8-5.7 5.8-2 0-1.6-2.1.9-4.7 2.3-2.5 4.8-3.1 4.8-1.1m-18.4 3.9c.3.6.1 1.6-.5 2.2q-1.2 1.4-2.1-.3c-.9-1.5-.4-3 1-3q.9.1 1.6 1.1m34.3 5q.1 2.6-2.3 3.8c-4 2.2-4.5.9-1.9-4.9 2.1-4.7 2.6-5.2 3.3-3.5.5 1.1.9 3.2.9 4.6m-14.9-2.5c0 .3-1.1 2-2.5 3.8a13 13 0 0 0-2.5 4.4c0 .7-1.1 1.2-2.5 1.2s-2.5-.2-2.5-.5c0-1 8.2-9.5 9.1-9.5q.8 0 .9.6M120 676c-1.4.4-5.4.8-9 .7l-6.5-.1 7-.6c10.3-1 11.5-1 8.5 0m12.3-.3c-.7.2-1.9.2-2.5 0q-1-.5 1.2-.5c2.2 0 1.9.2 1.3.5m5 0c-.7.2-1.9.2-2.5 0q-1-.5 1.2-.5c2.2 0 1.9.2 1.3.5m-46 1c-.7.2-2.1.2-3 0q-1.3-.5 1.2-.5 2.6 0 1.8.5m164.6 9.5c3.6 1.6 6.8 2 14.1 2 13.5 0 19.4-1.4 25.9-6.3 2.9-2.2 5.4-3.9 5.6-3.7 3.1 3.7 3.1 7.9 0 10.6-2.8 2.5-3 3.1-1.3 6.8 1.1 2.3 1 2.8-.7 4.1-1.5 1.1-2 2.7-2.2 7.1-.3 9.4-.7 12.2-1.8 11.9-.5-.1-1.1-2-1.1-4.2l-.3-5.3c0-.6-1.2-1.2-2.6-1.2-3 0-3.2-2.1-.9-8q3.1-7.2-4-7c-3.7 0-9 4.4-8.3 6.9 1.9 5.7 1.9 6.1.5 6.1-.8 0-2.3.6-3.3 1.4-1.8 1.3-1.8 1.4.3 4.7l2.1 3.5-2.2 3.3c-2.1 3.4-2.1 3.4-3.5 1.3-.8-1.2-2.3-2.2-3.3-2.2-2.3 0-2.5-3.3-.5-8.1 1.7-4.1.5-7.3-2.4-6.4q-4 1.2-1.4-4.9c1.4-2.9 1.5-3.8.4-5.1-1.8-2.2-7.3-1.9-9.5.5-1.6 1.7-1.7 2.8-.9 8.8.8 5.3.6 7.7-.4 10.3l-1.4 3.3-1.8-2.4q-1.8-2.5-1.3-4.8c.3-1.3 0-4.1-.7-6.2-1-3.2-1-4.5 0-7 1-2.3 1-3.4.1-4.3-.6-.6-1.1-2.5-1.1-4.2 0-1.6-.7-3.8-1.5-4.8-.7-1.1-1.1-2.6-.8-3.4.5-1.1 1.2-.8 3.1 1.7 1.4 1.8 4.6 4.1 7.1 5.2m117.4-1c.2 3.2 0 5.8-.5 5.8s-.8-3-.7-6.8q.2-11.5 1.2 1m10.2 7.5q.1 18.8-1.9.3c-.5-5.4.3-14.5 1.1-13.6.3.2.6 6.2.8 13.3m-266.2-10.5c15.1-.2 18.7 0 18.7 1.1 0 3.2-49.5 5.2-55.2 2.3-1.6-.9-2.8-1.1-2.8-.5s-1.2.8-2.7.5l-6.6-1.1c-6.8-1.1-3-2.2 7.8-2.2 5.8 0 10.9-.4 11.3-.8s3-.3 5.7.1 13.4.8 23.8.6M264 682q-.1.9-2.1 1-1.7-.1-1.4-1c.3-.6 1.3-1 2.1-1s1.4.4 1.4 1m12.8.2q-.6 1.2-2.4 1.7-2.4.6-.5-1.3c1.6-1.9 3.4-2.1 2.9-.4m-129.3.8c.4.6-.6 1-2.2 1q-3.2.1-1.3-1c1.9-1.2 2.7-1.2 3.5 0m54.2 11.7c-.2 2.2.3 2.9 2.1 3.1 2.6.4 2.7 1.1.7 3.8a6.5 6.5 0 0 0-.1 7.9c.7 1.1 1.6 3.2 1.9 4.6.8 3.3 4.4 7.9 6.2 7.9q1.4-.2 2-2c.3-1.1 1.4-2 2.4-2s2.8-1.1 4.1-2.6c2.4-2.5 2.4-2.6.9-6.9-1.4-3.8-1.4-4.7-.3-5.6 2.8-2.3 4.4-.3 3.7 4.8-.5 4.5-.3 5.2 3.1 9.1 3.4 4.2 3.5 4.6 3 10a95 95 0 0 0 4.3 33.6l2.6 7-3.9 3.3c-3.3 2.7-3.7 3.5-2.8 5 .9 1.4 2.2 1.7 5.7 1.5 3.8-.2 4.6 0 5.2 1.8.3 1.1 1.3 2 2.1 2 3 0 11.1 4.6 16.9 9.6a68 68 0 0 0 10 7.2c6 3.1 10.2 6.9 9 8a40 40 0 0 1-18.5 3.7c-6.7-.9-9.8-1.3-17.4-2.1a48 48 0 0 1-20.8-7.1c-1-.9-3.8-1.7-6.4-1.8q-4.5-.2-6.9-2.5c-2.8-2.6-3.5-6.3-1-5.4q1.5.7 1.5-1.5 0-2-1.5-2.1-2.6 0-.6-5.2c.8-2.1.4-5.6-2.5-20.6q-.8-3.3 1-5.1a5 5 0 0 0 1.1-4.3q-.7-2.6.9-3.1c2.6-1 1.8-4.1-2-7.8-2-1.8-4-4.1-4.4-5-1.7-3-4.1-16.8-3.4-19.4.3-1.4.3-3.3-.1-4.2-1.6-3.8-1.2-10.8 1.1-19.1.6-2.2 1.3-1.3 1.1 1.5M376 693q-.1.9-1.6 1-1.3-.1-.9-1 .6-1 1.6-1 .8 0 .9 1m4.4.8-.2 3.3c-.3 3.1-2.2 1.2-2.2-2.2q0-3 1.3-2.7 1 .6 1.1 1.6M261 698q-1 1.8-2 2-1-.2-1-2 0-2 2-2c1.8 0 1.9.3 1 2m25.2 3.1-.8 3.4-1.3-2.4c-1.2-2.1-1.1-2.6.5-3.8 2.4-1.7 2.7-1.2 1.6 2.8m94.8 7.7q0 5.1-1 4.7c-.5-.3-1-3.4-1-6.8q0-6.5 1-4.7c.5.8 1 3.9 1 6.8m-136 .6c0 4.3.4 5.3 4 8.8s4 4.5 4.4 10.3c.3 3.5.1 6.7-.4 7s-3.9.8-7.5 1.2q-11.8 1.1-6.6 5.4c1.3 1 2.8 1.6 3.5 1.2.6-.4 3.2-.8 5.9-.9 3.7 0 4.7.3 4.7 1.5 0 3.4-2.1 4.1-12.5 4.5-2.9.1-3-.1-4.1-6.4a98 98 0 0 1-.6-17c.4-9.1.8-11.1 3.1-15 1.5-2.5 3.1-5.4 3.5-6.5 1.1-3.1 2.6.1 2.6 5.9m19.6-1.2c.4.5.1 1.5-.5 2.1s-1.1 2.8-1.1 4.8c0 3 .6 4.2 3.1 6.2 1.8 1.4 3.4 3.7 3.8 5.7 1.3 6.7 7.1 6.2 7.1-.5q0-3.4 2.7-6.5c2.4-3 2.5-3.4 1.4-6.7-.7-1.9-1.1-3.5-.9-3.6l2.3-1.3c1.6-.9 2.4-.6 4.6 1.6 3.2 3.1 3.5 7.6.8 10.5-1.5 1.7-2.1 4.9-3 16.5-.9 10.1-1.7 15-2.7 16.3-1.4 1.6-1.4 2.1.2 5.3 1.3 2.8 2.1 3.4 3.4 2.8q6.4-2.9 10.9 1c1.7 1.4 3.9 2.6 5 2.6 1 0 2.8.7 4 1.5a9 9 0 0 0 5.2 1.3c1.7-.1 3.8.5 4.8 1.4a65 65 0 0 0 18.1 9.1q1-.4 1.2.4c.2.8-2.4 1.7-5.3 2.6-4.6 1.5-10.4 1.8-28.2 1.8-3.8 0-11.2-1.3-19-3.4-6.1-1.7-12-1.2-14.9 1.2-1.7 1.4-6.8-1-9.7-4.7-1.7-2.3-2-3.5-1.4-7.6 1.7-13.1 2.1-30.1 1-43.7-.5-5.7-.3-8.4.9-11.3.9-2.1 1.6-4.6 1.6-5.6q0-2 2-1.3c1.1.3 2.3 1 2.6 1.5m120.3 6c.1 3.4 0 6-.2 5.8-.9-1-1.6-13.1-.8-12.6.4.3.9 3.3 1 6.8M376 710q-.1.8-1.5.4-1.4-.6-1.5-1 .1-.4 1.5-.4c1.4 0 1.5.4 1.5 1m6 10.6c0 1.6-1.6 1.9-2.5.4-.8-1.3.4-3.2 1.6-2.5q.8.7.9 2.1m-13 20.9-1 10.5a91 91 0 0 1-22.2-1.1c-.9-.5-2.7-.5-4 0-2.9 1-8.3-.4-10.9-3-2.1-2.1-3.4-2.2-20.4-1.8-23.4.5-21 .9-21-3.1 0-3.3.2-3.5 3.5-3.6 1.9 0 5.1-.3 7-.7 3.2-.6 16.2-1.8 20-1.8.8 0 5.5-.8 10.4-1.7 7.4-1.3 9.1-2 10.4-4.1.9-1.4 2.1-3 2.7-3.4.5-.4 6.1-.6 12.4-.5 9.4.2 11.5 0 12-1.2 1.2-3.5 1.9 6.3 1.1 15.5m13-15q0 1.3-1 1.5-.9-.2-1-1.5c-.1-1.3.5-1.5 1-1.5q1 .2 1 1.5m3.7.7q-.5 1.1-.6-.6t.5-1.3c.3.3.4 1.2.1 1.9m1 15.7c.2 6.6.7 13.1 1.3 14.6 1.4 3.7 1.2 8-.3 9.4q-1.4 1-2 .5c-.3-.4-2-.8-3.8-1q-3.4-.6-2.5 1.1.5 1.4-1 1.5-1.4-.1-2-1.5c-.8-2.1 1.6-4.7 3.7-4.2q1.7.4 2.4-1.1.5-1.8 1.7-.4c1.9 1.9 3.1 1.4 2.4-1.1-2.1-7-2.7-32.1-.8-30.2.3.3.7 5.9.9 12.4m78-1.3q-.7.5-1.9.1t.6-.6q1.8 0 1.3.5m-328.6 4c.9.3 8.8 0 17.5-.7 9.3-.6 22.2-.8 31-.4l15.1.7 1.2 3.8c1.8 5.9 1.6 6.3-2.6 5.5a106 106 0 0 0-52.8-6.1c-10.5 1.2-11.1 1.1-16.4-1-5.1-2.1-5.3-2.3-2.5-2.6q4.2-.6 9.5.8M82 746.9c0 .5-1.8 1.1-4.1 1.5s-5 1.3-6.2 2c-5 3.1-18.9 2.5-19.9-.9-.2-.6 2.4-1.5 5.7-2.1 7.2-1.4 24.5-1.8 24.5-.5m14.3.8a17 17 0 0 1-4.5 0c-1.3-.2-.3-.4 2.2-.4s3.5.2 2.3.4m230.8 4c3.6 3.1 7 3.6 29.2 4.9l11.7.7v6.9c0 6.6.1 6.9 3.3 8.8 2.4 1.5 5 2 10 2 6.5 0 7.1-.2 9.9-3.2 2.5-2.7 2.9-3.8 2.7-7.7-.3-4.2-.1-4.5 2.5-5.2q2.8-.8 7.6 1.1c6.1 2.4 33.6 5.2 43.4 4.3 8.9-.7 8.8-.8 8.8 13.1.1 10.1-.5 12.2-3.1 11-1.5-.7-8.6-1.4-28.6-3a91 91 0 0 0-17.4.5c-6.6.9-8.9.8-11.5-.3-1.8-.7-8.2-1.9-14.2-2.6-6-.6-13-2-15.6-3.1-6.7-2.7-16.6-2.1-17.6 1-.4 1.1.8 1.3 5.9.8 5.3-.5 7.3-.2 12.1 1.9a34 34 0 0 0 11.5 2.5c10 .1 15.7 1.2 16.1 3 .4 2.4-11.7 3.3-32.1 2.4-14-.6-16.8-.5-20.2 1-3.4 1.4-6.2 1.5-19.5.9-15.8-.7-22-2-22-4.8 0-1.2 2.5-1.5 14.8-1.8l14.8-.3 5.2-3.4c6.4-4.1 6.4-5.9.2-8.2-2.5-.9-7.6-3.8-11.5-6.3-5.1-3.4-8-4.6-10.7-4.6q-3.8 0-11.3-4a40 40 0 0 0-9.5-4c-2.4 0-3.6-1.8-2.1-3.3.7-.7 6.9-1.7 13.9-2.3 20-1.7 19.7-1.7 23.3 1.3m156.7 0c.4 1.5-8.2 1.8-13.9.6l-3.4-.7 3.5-.7c5.5-1.1 13.3-.6 13.8.8m-19.1-.1q-.7.5-1.9.1t.6-.6q1.8 0 1.3.5m-214.4 3.8c.9.7 1.7 2.5 1.7 4 0 2.5-1.3 3.5-2.4 1.7-.3-.5-2.2-1.2-4.2-1.6-2-.3-4.3-1.3-5-2-1.5-1.4-1.9-2.9-.6-2.2.4.3 1.6.1 2.7-.4q4.7-1.8 7.8.5m201.5 1.2q2 .7 2.2 1.9c0 1.2-14.5 2.8-16.3 1.8-3.3-1.9 8.8-5.1 14.1-3.7M470 758c0 .5-2 1-4.5 1s-4.5-.5-4.5-1 2-1 4.5-1 4.5.4 4.5 1m-95 7.9c0 1.3-2.9 3.5-3.7 2.8-.7-.8 1.5-3.7 2.8-3.7q.8 0 .9.9m-127.9 2.3c3.1.9 3.8 1.5 3.7 3.4-.3 3.2 1.7 6.6 5.6 9.2 3.5 2.4 9.9 3 18.3 1.7a32 32 0 0 1 22.9 7.7c4.1 3.9 4.5 4 15 5.4a94 94 0 0 0 32.6-.2 29 29 0 0 1 13.6-.5c6.9 1.3 29.6 1.6 37.2.4 6.3-1 13.5-1 31 .1 6.9.4 16.2.7 20.8.7l8.2-.1v3.4c0 1.9.2 4 .5 4.8.4 1.1-1.2 1.2-9.2.4q-9.7-1-36.9.2c-23.8 1.1-27.4 1-30.1-.3-4.6-2.3-23.1-3.8-37.8-3.1a151 151 0 0 1-54.4-7.6c-3-1-8.6-2.6-12.5-3.4-11.5-2.4-27.6-11.2-27.6-15.1q0-1.2-1.2-1.3c-1.9 0-4.8-3.1-4.8-5.2s.1-2.1 5.1-.6m172.7 20.5c-1.6.2-4 .2-5.5 0-1.6-.2-.3-.4 2.7-.4s4.3.2 2.8.4M280 795.1c18.2 6.3 25.6 8.3 35.5 9.4l8.6 1.4c1.9.5 5.8.6 8.5.4 8.2-.6 31.5-.9 32.3-.3.5.3 1.3 1.5 2 2.7l1.2 2.3-12.3.1-14.8.4c-1.4.2-13.9.6-27.9 1-19.7.6-25.2.4-24.6-.5q1-1.3-1.4 0a10 10 0 0 1-4.9.7c-2.6-.4-2.6-.5-.5-1.2q2.2-.6 2.8-4.6c.6-3.2.2-4.3-2.2-7.4-1.5-1.9-3.2-3.5-3.8-3.5s-1.9-.8-3-1.7l-2-1.6 2 .8zM445.4 809c-1.3 1.3-23.7 2.2-27.3 1.2-2.1-.5-1.3-.8 3.4-1.3 11-1 25-1 23.9.1m-30.9 1q.5 1-8.2.9c-6.5-.1-7.9-.4-5.3-.9 5.3-1.1 12.8-1.1 13.5 0"/><path d="M227.6 169.5q-1.7 1.4-1.4 2c.3.3 1.6-.3 2.9-1.4 2.7-2.3 1.4-2.8-1.5-.6m93.9 180.8q-1.6 1.4-1.1 2.5c1.1 1.8 5.3 1.4 6-.4 1.3-3.3-1.6-4.5-4.9-2.1M250 572.1q.1 1.8 1 1.4c.6-.3 1-1.3 1-2.1s-.4-1.4-1-1.4q-.9.1-1 2.1m-12.5 69.2c-.4 1-.5 2.1-.1 2.4 1 1 1.8-.4 1.3-2.4-.4-1.7-.4-1.7-1.2 0m228.4 127.3c-1.1 1.4-1.1 1.8.6 3 2.2 1.6 3.9.5 3.3-2.2-.4-2.4-2.2-2.8-3.9-.8m-83.1 60.1c-4 .6-5.5 2.9-2.8 4.3 1.9 1 2 1.9 1.8 10.1-.1 5-.5 9.2-.9 9.5-.4.2-2.3-2.9-4.3-7s-5.4-9.4-7.6-11.9l-3.9-4.4-6.2.3q-11.6.6-4.7 3.7l3.5 1.5.2 11.7a86 86 0 0 0 .7 12.6c.3.5-.2 2.3-1 4-2 3.9-1.4 4.9 2.9 4.9h3.3l-.4-14.5c-.2-8-.2-14.5 0-14.5.6 0 6.4 9.7 10.5 17.5 3.7 6.9 6.3 9.5 9.7 9.5 2.4 0 3.3-1.8 3.2-6.5l.7-13c.6-9.2 1.1-11.4 2.9-13.3 2.1-2.3 2.1-2.4.2-3.8s-2.7-1.5-7.8-.7m23.2.2c-.8.6-3.1 1.1-5 1.1q-7.6 0-4.3 3.3c1.7 1.4 1.7 2.6.8 14.1-.9 10.9-1.3 12.8-3.3 14.9-3.3 3.5-1.6 4.2 10.3 4 11.3-.1 18.4-2 22.9-6.1 2.4-2.3 2.8-2.4 2.1-.7-2 5.3-2.7 5.2 24.3 5.8 6.9.1 12.3-7.7 10-14.5-1.7-5.1-4.9-7.7-10.7-8.8-12-2.3-15-8.6-4.6-9.5 2.9-.3 3.9.1 5.1 2.1 2.8 4.1 8.4 2.6 8.4-2.2 0-3.2-1.2-3.7-11.4-4.1-7.8-.3-9.6-.1-12.3 1.6-3.4 2.2-5.1 6.9-3.9 11.6.9 3.5 5.8 5.8 10.6 5 3.1-.5 4.2-.3 5.9 1.4 2.3 2.3 2.6 3.8 1.2 7.4-1.5 4-4.6 4.3-10.8 1.2-4.5-2.3-5.8-2.6-7.8-1.7l-2.5 1.1.6-5.7c.8-7.8-3.1-15.6-9.3-19-4.8-2.6-14-3.9-16.3-2.3m13.1 6.7c3.7 3.5 5.4 10.8 3.9 16.3a15 15 0 0 1-11.4 9.8c-3.2.5-3.7.3-4.7-2.3-1.5-3.8.1-23.5 2.1-25.9 1.9-2.3 6.6-1.2 10.1 2.1m-118.4-4.9c-2.6.7-1.5 2.7 1.6 3.1 1.5.2 2.7.7 2.7 1.2s-1.6 3.5-3.5 6.7a95 95 0 0 0-5.6 11c-1.2 2.9-2.5 5.3-2.9 5.3-1.1 0-11-16.5-11-18.3 0-.8 1.6-2.7 3.5-4.1 2-1.5 3.3-3.2 3-3.7a59 59 0 0 0-20.5.1c-1.3.9-1.2 1.3.6 2.8a18 18 0 0 1 3.9 5.1c1.6 3.2 1.6 3.4-.3 5.5a39 39 0 0 0-4.7 7.1c-3.4 6-3.4 6-4 5.3a209 209 0 0 1-7.1-20.1l-1.7-5.8-7.1.3c-5.4.2-7.1.7-7.1 1.7 0 .8 1.4 1.8 3.1 2.3 2.9.7 3.4 1.5 6.8 11.5 2 5.9 4.8 12.5 6.2 14.6 2.2 3.3 3 3.8 5.7 3.5 2.4-.2 3.6-1.1 4.8-3.4 3.1-6.3 8.2-13.5 9.3-13.1.6.2 3.6 3.9 6.7 8.2s6.4 8.2 7.3 8.7c2.8 1.6 6.4-2.2 11.7-12.7 2.8-5.5 6.7-12.6 8.6-15.7s3.2-6.1 2.8-6.7c-.6-1.1-9.2-1.3-12.8-.4m19-.1q-.5.8.9 2.5c1.4 1.5 1.4 2.2-.1 7.5-4.5 16.8-6.3 21.7-8.6 23.5-2 1.6-2.2 2-.9 2.9 1.8 1.2 6 1.3 7.9.1.7-.5 1.5-2.9 1.7-5.4s1-6.2 1.8-8.1c1.4-3.5 1.7-3.6 6.5-3.6 2.8 0 5.1.2 5.1.4l2.5 7.2c1.4 3.8 2.2 7.7 1.9 8.6-.5 1.6.2 1.8 5.9 1.8q6.3 0 7.6-1.3 1.9-2.5-2-2.7c-3.9-.2-4.5-3.3-7.5-12.5-4.6-14-6.5-18.5-8.4-19.5-2.5-1.3-13.3-2.4-14.3-1.4m10.1 8.1c2.1 6.2 2 6.8-1.2 6.6-1.6-.1-3-.4-3.3-.6-.5-.6 2-9.7 2.7-9.7.3 0 1.1 1.7 1.8 3.7m-212.2-5.6c-2 1.6-2 1.6.2 2.8 2 1.1 2.2 1.9 2.2 9.9 0 4.8-.5 11.6-1 15.1-1.3 7.4-.4 9.1 4.4 9 1.7-.1 6 0 9.4.1 7.4.3 9.6-1.2 10.7-7.3.7-3.4.5-3.7-1.7-3.7q-2.3 0-3.3 2.2c-1.1 2.5-5 3.4-7.5 1.8q-1.6-.7-1.3-6.1.3-9.8 4.4-5.1 4 4.5 3.9-3.2c0-5.6-.8-6.2-4.2-2.9q-5.2 5.1-3.9-3.7c.5-3.5 1.2-4.7 3.3-5.7q4.9-2.4 6.2 2l.6 2.2 2.1-2.4c1.1-1.3 1.9-3.3 1.7-4.4-.3-1.8-1.2-2-12.2-2.1-9.7-.1-12.4.2-14 1.5M9 834c-1.2.8-1.1 1.2.8 3.1 2.3 2.1 2.3 2.4 1.7 14.7a50 50 0 0 1-1.8 14c-.9 1.1-.7 1.7.6 2.7 2.5 1.8 12.4 2.8 14.8 1.4l2.1-1.1-2.2-2.3a10 10 0 0 1-2.4-6.1c-.1-3.3.2-3.8 2.9-4.6 12.4-3.8 14.5-5.9 14.5-14 0-4.9-.6-6-3.7-7.7A93 93 0 0 0 9 834m23 7.7c1.3 1.2 1.3 1.7-.1 4.1-1.4 2.6-5.1 3.6-8.6 2.4-1.4-.4-1.5-6.2-.1-7.9 1.2-1.5 6.7-.6 8.8 1.4m14.5-7.7q-.4 1.1 0 3.1c1 3.2-6.3 28-8.9 30.2-2.1 1.7-2.1 1.7-.2 3.2 2.2 1.6 9.3 2 11.5.6 1.7-1.1.7-4.1-1.2-4.1q-4.7 0-2-7.6c.9-2.7 1.8-5.1 2-5.3s2.1-.4 4.2-.3 5-.2 6.4-.7c2.2-.8 2.8-.6 4.1 1.4a9 9 0 0 1 1.6 3.6c0 .6.7 2.6 1.6 4.5 1.3 2.7 1.4 3.7.4 4.9-1.9 2.3.5 4.5 4.9 4.5 6 0 6.7-1.1 4.3-6.1a68 68 0 0 1-3.2-8.4c-3.5-11.4-7.7-20.9-9.9-22.6-1.7-1.4-4-1.9-8.7-1.9-3.4 0-6.6.5-6.9 1m10.5 9.3c2.2 4.1 2.3 4.9 1 5.7-1.7 1-7.9 1-8.5 0-.4-.6.2-3 2.1-9.8.7-2.4 2.8-.7 5.4 4.1m33.3-9.5c-4.6 1.4-10.1 7.7-11.8 13.5-2 7.1-.8 12.3 4 17.1 2.8 2.8 4.5 3.6 9.7 4.3 6.3.9 15.8-.1 16.8-1.7.3-.5.3-3.3 0-6.2l-.5-5.3-6 .3c-3.3.1-6.6.4-7.3.7-2.4.9-.2 2.5 3.4 2.5 2.8 0 3.5.4 3.2 1.7q-.1 1.9-4.6 2.1c-3.6.3-4.7-.1-7.2-2.7-2.6-2.6-3-3.7-3-8.5 0-4.9.4-5.9 3.5-9.2 3.4-3.6 3.5-3.7 9.3-3 4.7.5 6.2.4 7.2-.9q2.7-3-4.6-4.6a26 26 0 0 0-12.1-.1m103.7 6.4c-7.1 1.9-7.8 6.6-2.1 13.2 6.8 7.8 7.6 15.3 2.3 20.3-3.1 2.8-2.1 4.3 1.5 2.3 4.5-2.6 6.8-6.6 7.3-13.3.5-5.8.7-6.2 3-6.2 2.9 0 3.8-3.1 2-6.4-1.6-3-5-2.8-5 .3q0 6-5.5-.1c-4.3-4.6-4.4-7.9-.2-7.5q2.7.3 2.7-1.2 0-3-6-1.4"/><path d="M176 856.2c-4.9 5.2 3.7 15 9.6 11 3.3-2.2 4.5-9.3 2-11.8-2.3-2.3-9.2-1.8-11.6.8m7.1 6.1c-1.5 1.5-3.1-.2-3.1-3.1l.1-2.7 2 2.4q1.8 2.4 1 3.4m287.6-2.1c-3.9 2.9 1.2 6.8 6.9 5.4 2-.5 2.5-1.2 2.2-3.4s-.8-2.7-3.8-3c-1.9-.2-4.3.3-5.3 1"/></svg>