<svg xmlns="http://www.w3.org/2000/svg" width="666.7" height="1170.7" viewBox="0 0 500 878"><path d="M224.1 5.9a20 20 0 0 0-3.9 6.2l-.7 3-3.5-2.6c-3.9-2.9-5.3-3.1-7-1-1.6 1.9-.6 5.6 2.5 9.3l2.4 2.9-2.3 1.1c-3.3 1.5-4.4 5.2-2 6.9 2.2 1.6 5.1 1.6 10.9.1q8.6-2.2 5 3.5c-.9 1.4-1.6 4-1.5 5.9.3 11 .7 14.8 1.9 18.6 1.8 5.4.8 6.5-4.2 5.1q-8-2.2-5.6-9.3c1.5-4.2.3-10.3-2.3-12-2.8-1.7-5.8 1.8-5.8 7 0 3.8-.4 4.4-3.6 6.3-2.6 1.6-3.5 2.7-3.2 4.4.3 1.9 1 2.2 6 2.5 4.7.2 5.9.7 7.2 2.7q1.7 2.4 4.1 2.5c1.3 0 3.6.5 5.1 1 2.6 1 2.7 1.3 2.1 6.8l-1.9 14.7c-.7 4.9-1.2 12.1-1 16a98 98 0 0 1-1.3 15.5l-2 12.2c-.7 4.2-1.2 4.6-3.1 2-1-1.3-1.5-1.4-2.5-.5-1 1-.9 2 .5 5 2.8 6.4 2.2 24.4-1.8 52.1a465 465 0 0 0-2.6 19.4q0 1.8-2.7 1.6-5.5 0-11.2 4.7l-3.2 2.8.6 16.6c.3 9.1 1 18.2 1.5 20.1q3.2 10.5 2.1 16.5c-.5 2.8-.2 5.6 1.2 9.4 2.2 6.5 1.6 11.9-1.8 15.1-2.3 2.2-2.4 2.2-6.3.5a11 11 0 0 1-5.5-5.1c-1.3-2.7-2.2-3.3-5.3-3.6-3.8-.3-6.2-2.8-2.7-2.8 2.9 0 6.2-2.8 7.8-6.7 2-4.6 2-4.6-1.2-4a43 43 0 0 1-18.6-3.5c-3.9-1.9-6-1.6-8.6 1.6q-1.3 1.6-3.1.6c-1-.6-3-1-4.5-1-2.9 0-4.5-2.7-2.4-4.1.8-.5 3.3-.9 5.6-.9 3.4 0 4.6-.6 6.7-3.1 1.4-1.7 2.6-3.7 2.6-4.5 0-1.8-2.9-1.8-5.4.1-1 .8-2.2 1.2-2.6 1a14 14 0 0 0-4.2-.9l-4.3-.7c-2.7-.7-12.6 1.6-17.5 4s-5.5 3.1-5.8 6.2c-.5 5.2-1.8 5.8-5 2-2.7-3.3-2.8-3.3-5.8-1.8-1.7.9-3.6 2.3-4.4 3.2-.9 1.1-2.2 1.4-4.7.9-4.4-.8-14.1 2.8-19.2 7.3-3.2 2.8-3.5 3.4-2.3 5.2 1.6 2.8 1.6 3.1-1.1 3.1-7.1 0-20.9 7.8-26.3 14.8-3.6 4.8-4 6.7-2.3 10.5.9 2 .6 3-1.5 6.2a15 15 0 0 0-2.6 7.1c0 4.4-1.9 4.4-4.8-.1-2.4-3.8-3.4-4.1-7.1-2.2-2.2 1.1-2.4 1.7-2.4 10.3 0 5.1.3 9.7.7 10.3s.2 2-.5 3.2c-1.6 3.1-.6 10.2 2.1 13.9 1.3 1.8 4.3 4.1 6.7 5.2q4.3 1.9 5.9 5.1c.9 1.8 3.1 5.2 4.8 7.7q5.6 7.8 5.6 14.1 0 3 3.6 6.9c3.5 3.9 3.7 4 8.8 3.4s5.2-.6 8.6 3.5l7.5 8.7c2.1 2.5 5.1 6.9 6.5 9.7 1.6 3.2 3.3 5.3 4.5 5.5q16 2.4 2.7 19.1a60 60 0 0 0-6.1 9.9c-1.4 2.9-2.8 5.2-3.2 5.2s-2.1-2.2-3.7-4.9a30 30 0 0 0-5.9-6.9 65 65 0 0 0-26.8-7.4c-6 .4-14.5 2.5-15.6 3.8-.6.8-2.1 1.4-3.3 1.4-3 0-11.9 7-12.6 10-.8 3.4-3.6 3.7-6.8.8-3.5-3-7.9-5.4-11.8-6.2l-3.1-.7-.1 10.2c-.1 9.6 0 10.1 1.8 9.6 2.3-.6 2.4-.3 1 2.4-.9 1.6-.7 2.1.9 2.7 1.9.7 1.9.9-.9 5.5-2.5 3.9-3 5.8-3 10.9 0 6 0 6.1 2 4.3 1.1-1 2-2.9 2-4.1 0-3.5 3.2-8 5.2-7.6q1.7.2 1.8-1.3c0-.8.7-1.8 1.5-2.1 1.9-.8 1.9-2.4 0-2.4q-3.6 0 2.2-6.5 3.2-3.5 2.3-2.3-1.3 1.9-.1 1.8 1 0 1.2-.8c.3-3 1.1-4.6 3.2-6.5 1.3-1.2 3.5-4.2 5-6.8 2.6-4.6 3.9-5.5 15.4-10.4 5.9-2.4 6.7-2.5 14.2-1.6a60 60 0 0 1 17.3 4.6c2.9.3 8.7 4.9 10.3 8.1.8 1.7 2.2 3.7 3.1 4.5 1 .8 2.3 2.9 3.1 4.6Q91 481 93 481t2.6 2.7a22 22 0 0 0 4.8 6.8c10.7 11.1 13.6 14.6 13.6 16.5q-.2 2.3 2.3 1.5c1.8-.5 3.6.4 7.3 3.3 5.6 4.4 7.1 5 13.1 5.4 2.4.1 4.5.8 4.7 1.5.9 2.3 3.4 1.4 6.1-2.2 2.8-3.6 2.5-6-.7-5.2-3 .8-1.6-1.5 2.8-4.6 2.2-1.5 5.7-3 7.9-3.3 7.5-1 8.5-1.4 8.5-3.3 0-3.5-2.2-4.1-8.4-2.5-7 1.8-12.9 5.4-15.2 9.1l-3.2 5.2q-1.4 2.5-2.5 1.2a5 5 0 0 0-2.8-1.1c-2.5 0-13.6-7.7-19.7-13.8-5.3-5.1-5.4-5.4-3.7-7.3 1.6-1.7 1.7-2.5.7-7.2q-2.8-12.8-1.4-16.7c.7-1.8 1.2.1 2.1 8.1.7 6.6 1.7 10.9 2.7 11.9 1.3 1.3 1.4.6.8-6.9-.5-6.3-.4-8.2.4-7.7.7.4 1.2 1.8 1.2 3.2 0 1.3.5 2.4 1 2.4.9 0 1.4-7.2 1-14.8-.1-1.7.3-3.2.8-3.2 2.4 0 3.2 3.1 3.1 11.1-.1 4.6.2 10 .6 11.9.8 3.4.8 3.5 1.5.9.4-1.4.4-4.9-.1-7.8s-.6-6.9-.4-8.9l.4-4.3c.1-.4 1.6-1 3.4-1.3l6.2-1.3c1.7-.3 3.8-1.4 4.8-2.4 1.8-1.9 3-2.3 5.6-1.9a19 19 0 0 0 12.9-5.8c1.3-1.7 2.8-3.2 3.2-3.2 1.1 0 3 9.1 3 14 0 3.4.3 4 2.1 4 2.2 0 7.3-1.2 13.9-3.2a542 542 0 0 0 45.3-18.9c5.1-2.2 11.5-5.5 14.2-7.4l11.8-7.6c6.2-3.8 6.8-4.5 6.2-6.8-1.4-6.1-1.6-10.8-.5-13.1 2.6-5.8 4.9-9.4 5-7.8 0 .9 1.4 2.8 3 4.1 1.7 1.4 3 3 3 3.5 0 1.7 3.7 4.2 6.3 4.2 2.9 0 4.4 1.7 2.9 3.2-.6.6-.8 2.4-.5 4.2q.5 3-2.2 8.1c-3.3 6.4-4.7 13.3-3.5 17.5 1.3 4.6 3.7 6.1 8.8 5.4 4-.6 5.7.5 3.2 2.1-.6.4-2.1 2.8-3.4 5.3-2.2 4.3-2.3 5.3-1.4 10.2a19 19 0 0 0 2.4 7.1c2.1 2.3 1.7 6.6-1.1 11.8-1.3 2.5-3.8 8.2-5.4 12.6a112 112 0 0 1-9.8 23.2A129 129 0 0 0 251 555c-2.2 14.3-.7 23.2 5.2 29.6 2.2 2.3 4.9 4.4 6.1 4.6 1.9.3 2.3 1.1 2.8 6.3.4 3.3 1 7.6 1.4 9.6.6 3 .3 4.3-1.8 7.5a33 33 0 0 0-3.7 8.1c-1 4.1-2.4 5.1-5.5 4.3l-8.5-2c-16.8-4-26.8-8.2-56.1-23.7a60 60 0 0 1-10.8-8.7l-6-6.3 8.7-1.3c10.2-1.5 12.1-2.3 22.1-10a55 55 0 0 0 18.4-20q6.2-11.6 3.2-14c-2.4-2-4-.6-5.9 5.1-2.7 8-8.3 15.6-15.6 21.6-6.9 5.6-8.4 6.2-9.4 3.8-.7-2-4.5-1.9-5.3.1a5 5 0 0 0 .5 3.5c1.3 2.1 1 2.4-3.6 3.4-3 .6-3.3.5-2.8-1.2.3-1 0-2.8-.8-3.9-1.4-1.8-1.6-1.8-3.3-.1-1.4 1.4-1.5 2.1-.6 3.7 1.1 1.6.9 2-.9 2.5-2 .7-3.8-.7-3.8-3.2q0-1-.9-1.7c-1.5-.9-4.1.5-4.1 2.1q.1 1.8-1.4.4a4 4 0 0 0-3.2-.9c-1.4.2-2-.6-2.5-3.5-.3-2.1-1.4-4.6-2.3-5.5-1.7-1.6-1.8-1.4-1.4 3 .4 6.2-1.5 6.3-2.6.1a94 94 0 0 0-2.4-10.3c-1.3-4.4-1.7-5-2-3-.9 5.8-2.6 4.3-3.4-3-.4-3.8-2.3-2.6-2.6 1.7-.4 5-2.2 6.8-2.2 2.3 0-3.8-2.9-10.4-4.5-10.2-.5 0-1.3 1.1-1.7 2.4q-.7 3.3-.7.2c-.1-1.2-.7-2.7-1.5-3.3-1.2-1-1.7-.8-2.6.8-1.4 2.8-3 2.7-3-.2-.1-2-.2-2.1-1.4-.4-.7.9-1.1 2.9-.8 4.3q.5 2.7-.6 2-1-.7-.6-2.1c.4-.8-.1-1.8-1-2.1q-1.6-.7-1.1-2.4c.9-2.7-1.2-3.4-2.6-.9-1.4 2.6-.6 12 1.6 19.3.9 2.9 1.1 5.4.6 5.9-1 1-3.1-4.5-3.1-8.4 0-1.5-.4-3-.9-3.3s-1.2-3.1-1.6-6.1q-.6-5.3-1.7-4.9c-.6.4-.8 2.8-.4 6.3.6 5.1.5 5.4-.9 3.7a9 9 0 0 1-1.6-4.5l-.8-8.2c-.1-2.2-.5-2.6-3.3-2.4-1.8 0-4.3.7-5.5 1.3-3.3 1.8-3.1-1 .2-3.2 3.5-2.3 5-5.3 3.4-7.2-1.4-1.7-2.9-1.8-2.9-.2-.1 1.8-4.8 5.1-6.1 4.3-1.3-.9.8-3.5 2.8-3.5q1.5.2 1.1-3.3c-.2-2.7-.7-3.2-2.6-3q-2.7.6-1.3-1.6c1.3-2.3-.4-4.1-3.7-4.1q-2.5.2-1.8-1.8c.3-.9-.1-3.9-.9-6.6s-1.5-7.7-1.5-11.2v-6.3l-6.7.2c-6.7.2-6.8.2-7.1-2.6q-.4-2.6-1.9-2.7c-.8 0-2.3-1-3.3-2.2-1.6-2-2-2.1-4.6-.8a61 61 0 0 1-16 3.2c-1.2 0-4.7-1.6-7.9-3.6-7.2-4.7-11-4.6-14 .1-1.1 1.8-2.8 3.2-3.7 3.3q-1.7.1-1.8 2c0 1.1-1.4 3.5-3.1 5.3a22 22 0 0 0-4 5.4q-.9 2.1-2.1 2.3c-3.2 0-5.6 8.1-3.1 10.2q1.2 1 1.3 2-.1.9-1.4-.2c-2.3-1.8-6.1-.8-6.4 1.7q-.4 2.2 2.3 3.6c2.4 1.2 2.5 1.5 1.1 2.7-1.4 1.1-1.9 1-3.4-.4-1-.9-2.6-1.6-3.5-1.6-1.4 0-1.6 2.6-1.7 23 0 23.8.2 25.2 3.9 21.7q1.6-1.5.5.3a30 30 0 0 0-1.6 7.5l-1.8 16c-1.1 9.7-1.1 10 1 11.5l7.8 6c7.3 5.8 13.8 10 15.5 10 2.7 0 9.9-6.2 11.3-9.7.9-1.9 1.4-5 1.3-6.7-.2-3 1.2-16.9 3.2-31.3.6-4 .8-7.7.4-8.3-.3-.5-2.8-1-5.6-1-5.2 0-5.6-.4-3.7-4.5 1.1-2.4.8-2.9-3.2-7-3.6-3.7-5.1-4.5-8.1-4.5q-3.5 0-5.2 1.8c-1.2 1.3-2.7 1.7-5.8 1.4l-4.1-.4.5-4.1c.7-5.2 5.8-15.1 7.9-15.5q1.7-.1 5.6 5c4.1 5.4 18.2 20.2 26.2 27.4 2.5 2.2 6 5.9 7.9 8.3 2.5 3.2 5.4 5.2 11.8 8.2 4.6 2.1 9.1 3.9 9.9 3.9a7 7 0 0 1 3.3 1.2c3 1.8 11.8-1.4 17.7-6.6 7.9-6.9 9.1-6.8 16.8 1.1 3.7 3.7 6.6 7.2 6.6 7.9 0 1.7 3.4 4.4 5.6 4.4 1.1 0 3.7.9 5.9 2 5 2.6 18.7 2.8 24.3.4 4.7-2 9.1-2.4 11.7-1.1 1.1.6 4.5 3.1 7.5 5.7s6.6 5.3 7.9 6 5.7 3.6 9.9 6.6c4.1 3 7.9 5.4 8.4 5.4a72 72 0 0 1 9.5 4 146 146 0 0 0 36.3 11.1 80 80 0 0 1 11.2 2.7c.9 1-2.7 18.9-6.4 31.2l-4 13.7c-.7 2.5-1.5 3.3-3.3 3.3-5.3 0-11.4 8.7-10.2 14.7l.5 2.5-14.2-.7c-14.6-.7-24.2.6-27.4 3.8-1.9 2 .1 6.7 2.9 6.7a32 32 0 0 1 9.6 5c4.1 2.7 8.2 5 9.1 5s3.6 2 6 4.5c4 4.1 4.2 4.6 3.6 8.5-.6 3.4-.4 3.9.9 3.4.8-.3 1.8-1.5 2.1-2.7.6-2.2.6-2.2 3 .5a32 32 0 0 0 14.4 5.8c.5 0 2.1.9 3.6 2.1 1.5 1.1 3.2 1.9 4 1.6a42 42 0 0 0 5.6-16.1c0-1.3 1.1-6.3 2.5-11s2.5-9.2 2.5-10c0-.7.7-1.9 1.5-2.6q1.3-1.2 1.3-2.8c-.2-.8.2-1.7.9-1.9q1-.4.6 1.8-.6 2.3.8 1.7c2.5-.8 2.1-3.5-1-6.7-3.4-3.5-3.7-5.5-2-12.8a298 298 0 0 1 6.9-25.8 182 182 0 0 0 5.5-21.8c.3-1.7-1.9-4.7-3.4-4.7-2 0-3.3 3.5-4.6 12.2a99 99 0 0 1-2.3 12 209 209 0 0 0-5.7 23.5c-.4 2.4-1.1 4.3-1.6 4.3s-.9-.5-.9-1-1.1-2.1-2.4-3.3c-2-1.9-2.2-2.6-1.3-4.7 2.6-6.4 3.7-9.7 3.7-11.7 0-1.2 2.3-11 5-21.9a291 291 0 0 0 5-21.6q0-4 6.5-1.4c4.2 1.8 13.7 2.1 16.4.6 1-.5 5.9-1.5 11-2.1 7.4-1 9.5-1 11.5.1q2.3 1.2 2.1 2.1c-.3.4-3.8 1.6-7.7 2.8l-12.8 3.7c-3 .9-8.3 1.9-11.7 2.2-3.5.2-6.3.9-6.3 1.5 0 1.3 12.7.2 19.8-1.7 4.6-1.3 5.4-1.3 5.9 0q.6 1.3 2.1 1.4c3.4 0-.5 2-5.8 3q-8.4 1.6-6.7 3.6c.7.7 14.3-2.4 18.1-4.1q2-1 1.4.6c-.2.8-3.9 2.5-8.1 3.9-11.8 3.9-13.9 7.4-2.7 4.6l6.8-1.6c1.6 0-6.7 4.5-11.3 6.1-6.4 2.3-7.2 4.2-1.3 3.3 2.3-.4 5.4-1.1 6.6-1.6 2.5-.9 4.2-.3 4.2 1.3q-.2 1-2 .4-2-.8-5.5 2.8-5.9 6 1.3 3.6 3.1-1 4.9-.1c1.6.9 1.5 1.1-.7 1.6-1.4.3-3.6.7-5 .8-3.1.4-3.3 3-.2 4.3 2.7 1.2 2.9 2.5.4 2.5-1.8 0-5.2 2.9-5.2 4.4s4.6 4.5 7.3 4.6c1.5 0 2.7.5 2.7 1q-.2 2.7-6.5.6c-5-1.8-7.1-.4-3.6 2.5 1.3 1 3.1 1.9 4.2 1.9 3.2 0 3.1 1.9-.2 7.8l-5.1 9.2c-2.8 5-3.7 5.8-4.8 4q-.9-1.4.7-2.5c2.2-1.6 1-4.1-2.1-4.7-3.9-.8-5.4.7-3.2 3.1 1.9 2.1 1.9 2.1-.7 2.1q-5.7 0 1.3 4.3c3.7 2.2 3.9 2.5 2.5 4.3q-1.3 1.7-1.5.6c0-1.6-5.9-4.2-7.8-3.5q-1.2.6-.8 2 .6 1.4-1.4 2-1.8.6-2 1.7c0 2.1 4.8 5.9 6.4 5.3 1.8-.7 2.1-3.3.6-4.2q-.9-.6-1-1.8t1.2.1c.7.7 2 1.2 3 1.2 2.3 0 2.2.1-.3 7.1-2.2 5.9-3.9 7.6-3.9 3.9 0-2.4-4.2-7-6.5-7-1.8 0-2 2.8-.2 4.9 1.4 1.8 4.1 9 3.5 9.6-.2.2-2.2-1.8-4.5-4.4-4-4.6-4.2-5-3.2-8.7.5-2.2 1.5-4.9 2.1-6.1.6-1.3.8-2.6.5-3-1.2-1.1-4.6 2.8-5.3 6a202 202 0 0 1-12.7 35.5c-.8.2-5.6-1.1-10.8-2.7a120 120 0 0 0-13.9-3.7c-4.1-.6-4.3-.5-2.5.8a60 60 0 0 0 8 3.9c7 2.8 16.3 9.2 17.3 12 .4 1.1 2.1 2.9 3.7 3.9l3 2-13 .1H228a97 97 0 0 0-12 .8c-5.8.8-7.8.7-9-.3-2.1-1.8-14.7-2.8-20.9-1.6q-5.2 1-7.9-.1c-1.5-.6-9.9-1.5-18.7-2s-17.7-1.1-19.7-1.5q-3.8-.6-3.8.5c0 2.5 4.9 3.5 19 3.6 15.1.2 24.7 1.2 25.6 2.6.3.5 3.8.6 7.9.2 5.6-.4 7.9-.2 9.1.8 1.3 1 9.5 1.4 40.3 1.6l44.6.5c10.6.3 20.7-1 22.1-2.9 1.1-1.5 3.5-1.8 19.1-2 16.7-.2 22.7-.5 44.8-1.9 9.1-.6 12.4-1.7 9-3-1-.4-11.6-.2-23.6.5s-25.2 1-29.3.6c-7.8-.8-19.5.7-25.4 3.1a73 73 0 0 1-25.7 1.8c-7.8-.7-7.9-.8-4.8-2 1.7-.8 3.7-2.2 4.5-3.2 1.9-2.7 21.2-4.1 24.3-1.8 3 2.3 4.9 1.9 8.4-1.3 3.2-3 3.3-3 11.7-2.4q8.5.6 12.4-.7c3.4-1.1 4.6-1.1 8.2.3 4.4 1.6 19.3 1.7 40.3.1 5.2-.4 11.7-.1 18.5.9a196 196 0 0 0 27.5 2c1.1 0 3.9-.3 6.3-.8 2.3-.4 4.2-.4 4.1.1 0 .5-4 2.8-8.9 5.2a31 31 0 0 0-14.1 10.7 28 28 0 0 1-10.5 8.9c-2.8 1.3-6 3.3-7 4.3a309 309 0 0 0-24.4 27.6l-2.9 4.6-20.8.3c-11.4.2-94 .3-183.5.3H0v5l126.2-.2c114.7-.2 231.2-1.2 335.1-3l38.7-.6v-6.8l-7 .7q-6.9.6-7-.3c0-2 3-3.5 6.5-3.2q3.6.4 4.5-1.1c1.3-2 1.3-3.3 0-2.5-1.5.9-5.2-.5-4.7-1.8.2-.7 1.9-1 4-.9 3.2.3 3.7.1 3.7-1.7q0-2-1.5-2.1-2.8 0 0-3.6c1.8-2.3 2.2-22.9.4-24-.6-.3-.8-1.7-.5-2.9.3-1.3.2-2.6-.3-2.9a39 39 0 0 1 .8-16.9c.6-.6 1.1-3.5 1.1-6.5 0-5-.3-5.8-3.6-8.9a29 29 0 0 0-14.8-7.6 13 13 0 0 1-5.7-2.3q-1.9-1.5-1.9-.5c0 1-.9.9-2.2.7l-6.1-1.1c-3-.5-3.7-1-3.3-2.3.3-.9-.1-2.8-.9-4.2q-1.3-2.2-1.6-1.8l-.3 1.5q-.2.9-.9 2.1c-.5.6-.5 1.7-.1 2.4q.8 1.1-1 .5a102 102 0 0 1-31.1-10.7c-1.1-.9-3.1-2.2-4.5-2.8-1.4-.7-4.3-2.3-6.5-3.7l-7.5-4.4c-4.3-2.3-8.4-6.6-7.6-7.9q.4-1-.9-2.2c-.8-.7-1.5-1.9-1.5-2.7q-.1-1.9 1.5-.3c.8.7 1.5 1.9 1.5 2.6q0 1.3.9 1.4 1.1.3 1.4 2 .6 1.8 1.6 2c1.6 0 1.3-4.6-.4-6a5 5 0 0 1-1.5-3.6c0-1.2-.4-2.6-1-2.9s-1.4-2.5-2-4.8c-2.3-9.4-3.1-11.7-4.2-11.7s-.8 2.1 1.2 9.9c1.7 6.7.7 8.3-1.8 3.2-1.2-2.4-1.9-4.8-1.6-5.3s-.2-2-1.1-3.4a7 7 0 0 1-1.1-5c.4-1.3.2-2.4-.3-2.4-1.1 0-2.9-8.2-3.4-15.8-.2-2.9-.8-5.6-1.2-6-1.3-1.2.6 20.9 2.5 28.8.9 4.2 2.9 9.9 4.4 12.8 3 5.9 3.1 6.2 1.3 6.2s-18.2-16.9-20.6-21.3q-3.3-5.9-1.3-5.7c1.5 0 10.7 8.3 11.5 10.4s.9 2.1 1.8-.4c.7-1.7.5-3.9-.7-7.5-1-3.1-1.7-8.7-1.8-15-.1-8.1-.4-10-1.6-10q-1.4.2-1.5 1.5c0 3.8 1.7 21.7 2.1 23.2q.5 1.8-1 1.8c-1.8 0-2.3-1.6-3.2-9.5-.9-8.7-.9-8.8-2.1-11-1.1-2-1.2-1.9-2 .3s-1 2.2-2.2.8q-3-3.7-2.7 1.8c.1 1.9 1 4.4 2.1 5.6l2 2.2-2.5-.3c-3.4-.5-5.9-5.9-6.7-14.4-.5-5.2-.3-6.9.8-7.6q1.5-.9.2-.9c-1.8 0-1.6-1 .9-7.7 1.5-4.2 3.8-7.4 8.2-11.8a77 77 0 0 1 21.4-14.5c.5 0 1.5-.7 2.2-1.5s2-1.4 2.9-1.3c1.2.2 1.5-.4 1.3-2.7-.7-6.1-4.3-6.8-7.4-1.5q-1.7 2.9-3.8 3-1.8 0-2 .9c0 1.4-5.9 5.4-8 5.5-2.5.1-16.9 15-18.6 19.2-.8 2-2.1 3.4-3.2 3.4-.9 0-3 .9-4.7 2-1.6 1.1-3.9 2-5 2-2.6-.1-6.8-3.6-6.2-5.2.2-.7-.1-2.2-.7-3.3s-1.6-4-2.2-6.5c-1.2-4.4-1.2-4.6 1.7-6.8 1.6-1.3 3.9-4.2 5-6.4s3.2-5 4.6-6.3q4.7-3.8-1.5-6.9c-2.7-1.4-3.3-1.3-8.1 1l-5.6 2.4.2-2.4c.6-3.1-.6-3.7-5.1-2.5-2.1.6-4 .8-4.3.5s.1-2 .9-3.8l1.9-4.3c1.1-2.9 9.1-16.4 10.4-17.5 1.2-1 2-.9 4 .4 1.3.9 4 1.6 6 1.6 3.1 0 3.8-.5 5-3.3l1.4-3.2.2 4.5c.2 6.4 1 8.5 4.8 12.5a33 33 0 0 0 15.3 8.5c1.1 0 3.1.6 4.6 1.4 4.4 2.2 17.4.7 20.6-2.3 2.6-2.5 3.4-5.1 1.6-5.1s-2.5-.2-4.2-1.1c-2.5-1.3-2.3-2 1.7-5.2 3.3-2.7 3.6-2.7 6.5-1.2 1.6.9 3 1.9 3 2.4 0 .9 12 .3 13-.6.8-.7-2.4-2.3-5-2.3-3-.1-12-4.9-13.1-7l-1.3-3.2a44 44 0 0 0-14.3-9.8q-1.2-.1-1.3-1.4c0-.8-1.6-2.8-3.6-4.6s-3.3-3.4-3-3.7 2.9-.6 5.6-.5c4.4.1 5.8-.5 11.3-4.3q15-10.3 10.3-25.6c-1.7-6.1-6-10.9-11.8-13.3-4.4-1.9-9.9-2.1-11.5-.5q-1 1.3-4.1-1.1c-2.6-2-3.3-2-7.3-1-4.8 1.3-7.9 3.5-7.9 5.7 0 .7-1.2 2.3-2.6 3.6a15 15 0 0 0-3.5 4.4c-1.3 3.5-3.2 2.9-2.4-.7.7-3.2.8-3.2-7-3.4q-3-.1-4-2.3c-.7-1.3-1.9-3.1-2.8-4.1-2.4-2.7-2.1-3.2 1.9-3.2 3.3 0 3.6.2 3.2 2.5-.6 2.9.5 3.9 4.2 4.1 1.4 0 3.2.2 4 .5q1.4.3 1.3-1.1l-.5-3.5q-.3-2 1.6-2c2.8 0 3-2.1.5-4.6q-2.3-2.2-1.1-2.7c5.1-1.7 11.2-11.3 11.2-17.7a35 35 0 0 0-6-16.9c-4.1-6.1-4.6-6.3-13.2-6.8-6-.4-7.8-.2-7.8.8 0 2 3.9 3.6 7.7 3.2 2.6-.3 3.7 0 4.4 1.4.5 1 1.6 1.8 2.4 1.8 1.6 0 4.5 4.9 4.5 7.5 0 2.3-3.4 1.8-6.2-1-2.3-2.3-2.6-2.3-4.7-.9a5 5 0 0 0-2 4.3q.5 5-3 5.1c-.9 0-2.6.6-3.7 1.4-1.9 1.4-1.9 1.5.4 3.9 2 2.1 2.2 2.9 1.3 4.6-3 5.5-16.1-1.7-17.7-9.7q-1-6 3.4-.2c1.3 1.6 3.1 3 4.1 3 2.1 0 4.7-2.7 5.3-5.5q.5-1.8 2.8-2.5c3.5-.8 3.5-3.9 0-8l-3-3.5-2.9 3.1a19 19 0 0 0-3.3 4.5q-.4 1.6-2.4.3-5-3 1.5-6.4c3.3-1.6 4.1-2.6 4.1-4.8 0-1.6-.6-3.6-1.3-4.6-2.9-3.9-16.8 1-17.5 6.2-.4 2.4-4.2 5.6-5.4 4.4-1.3-1.3 1.1-8.1 3.2-9.2 2.4-1.3 2.7-4 .5-4-2.6 0-7.4-2.9-8.7-5.3-1-1.8-1.4-13.5-.4-14.4.6-.6 8.6 3 8.6 3.9 0 .5 2.5 2 5.5 3.3s8.2 4.7 11.7 7.5c7 5.7 13.1 8.1 15.1 6.1.9-1 .8-1.5-.5-2.5s-1.5-1.5-.6-2.4q2.4-2.6 3.1.8c.7 2.8 3.5 1.5 4.3-1.9l1.9-6.6c1.3-4 1.4-4 6.2-3.9 9.7.1 19.7 2.3 21.5 4.7 2.7 3.6 7 26 6 31.7-.2.8-.4 3.4-.6 5.7-.4 6.2-1.6 6.5-1.6.5q.2-8.7-4-4.2t1 15.1c5.2 10.1 13.1 17.2 17.5 15.5q3.1-1.2-3.4-6c-3.3-2.4-8.1-8.3-8.1-9.8 0-2.1 3.2-.5 4.1 2.1 1 2.8 3.3 4.4 10.2 7 1.5.6 3.5 2.4 4.4 4 4.1 7.1 14.2 10.1 20.3 5.9q7.5-5 5.3-10.8c-1-2.8-.9-3.5 1.8-7.5 2.6-3.8 3.6-4.5 8.5-5.6 4.2-.9 5.7-1 6.6-.1s.5 1.9-2.1 4.2c-3.6 3.4-3.9 6.8-.6 8.5 4.6 2.3 4.6 2.4 2 7.6-2.5 4.9-2.6 4.9-7.4 4.9q-7.5.1-6.9 4.1.3 1.4-2.1 1.1c-6.3-.9-9.6 2.8-4.3 5 5.1 2 11.2 5.3 11.2 5.9s-7 2.3-7.4 1.7l-1.4-3.2c-1.1-2.5-1.6-2.7-4.5-2.2l-6.9 1.2c-4.4.8-8.1 5-5.3 6q1.4.8 1.5 3.5c0 3.1 1.7 3.8 3.9 1.7 1.5-1.5 1.5-1.3-2.1 6.2-2.4 5-2.6 6-1.7 10.3.8 3.5 1.9 5.5 4.5 7.5 3.8 3 4.4 5.7 1.4 6.5-1.5.4-2 1.4-2 3.9q0 5.8 4.6 5.8c3.2 0 3.9 2.9 1.3 5.6-1.1 1.2-1.8 2.7-1.4 3.3 1.2 2.1 5.3 1.2 7.4-1.7l3.1-3.9c1.2-1.4 1.3-3.4.3-3.1-1.4.2-4.3-1.4-4.3-2.4q.1-.7 1.1-.3c.5.4 1.9-.1 2.9-1q3.5-3.2 6.2 2.2c1.2 2.5 1.8 2.8 6.6 2.8q8.2 0 8.2 5.3c0 1.6-5.7 7.2-7.4 7.2-2.1 0-8.6 6.1-10.6 10.1-1.1 2.1-2 5.7-2 7.9 0 4.4 3.2 11.8 5.6 12.7s6.4-2.4 6.4-5.2q-.2-3.8 2.8-1.6c1.2.7 1.1 1.4-.2 3.9-.9 1.7-1.6 4.4-1.6 5.9 0 3.7 5.1 12.5 8.1 14.1 1.3.6 6.7 1.6 11.9 2.1 10.4 1 12 .4 12-4.5 0-3.1-6.1-9.3-9.9-10q-5.2-1-5.1-7.1c.1-2.5.2-2.6 1.4-1.1 1.6 2.1 6.8 2.7 8.9.9.9-.7 1.7-3.1 1.9-5.4.2-3.2.7-4.1 1.8-3.8l4.8.9q3.4.3 3.8 2.8c.4 1.4 1.4 2.9 2.4 3.4 4.6 2.5 5.5-.1 1-2.9l-3-1.8 2.1-1.9c2.1-1.9 2.2-1.9 1.5.3q-1 2.5 1.1 2.3c3.6 0 4.4-1.5 4.1-7l-.3-5.2-3.2 3.1c-4.4 4.1-7.3 4.2-7.3 0 0-1.7-.5-3.9-1-5-.9-1.6-.7-1.9 1.4-1.9 1.4 0 3.7-.5 5.2-1.2 2.3-1.1 2.8-1 4 .7s1.4 1.6 1.4-1.8-.2-3.7-2.9-3.7c-1.7 0-3.3.5-3.6 1-1.1 1.7-2.3 1.1-1.8-.9q.4-2 4.4-2.6l3.9-.7v-12.4l-3.7.1c-2.1.1-4.8.7-6 1.3q-5.3 2.9-5.3-1.4 0-2.2 1-1.9c1.6 1 11.9-2.5 13-4.5.6-1 1-3.9 1-6.4 0-3.6-.3-4.5-1.7-4.5-1 0-2.7-.2-3.8-.5l-2.7-.5q-.8-.2-.8-1.4c0-.6-.7-2.5-1.5-4.1s-1.2-3.3-.9-3.8q.5-.9-1.3 0c-2.9 1.6-4.8 0-3.1-2.7q2.6-4-4.5-7.4c-2-1-3.7-2.3-3.7-2.8 0-1.2 1.7-1.2 2.5.1.3.5 1.6 1 2.9 1s3.1.7 4.2 1.5c2.5 1.9 4.5 1.9 3.8 0q-.5-1.4 1-1.5t1.6-1.5q0-1.4 1.5-.9 1.6.7 1.5-1.7 0-2.4-3.1-4.2c-3.7-2.1-3.4-2.5 2.9-4.6 4.2-1.4 4.7-1.9 5-4.9.3-3.3.3-3.3-3.1-2.7-4.2.8-7.7-.1-7.7-2 0-.8-1.2-1.7-2.7-2.1a8 8 0 0 1-3.8-1.8c-.5-.6-2.3-1.2-3.9-1.3s-3.7-.5-4.5-.8c-1.3-.5-1.3-.7-.1-1.5.8-.5 2.2-.4 3.3.2 5.3 2.8 12.3-2.5 9.1-7-.8-1.1-1.1-2.7-.8-3.6.7-1.8-2.1-2.3-3.1-.6-.3.5-1.5 1-2.6 1q-1.7-.1-1.9-1c0-1.3-2.7-1.3-3.5 0-.4.6-.1 1.8.6 2.6 1 1.2 1 1.7 0 2.7-1 .9-1.5.8-2.5-.5q-1.2-1.7-3.6-1.1-2.6.9-1.7-1 .6-1.7-.9-1.7-1.6-.1-1.3 2.8c.2 1.5-.1 3.4-.5 4.2q-1.1 1.8.5.3c1.4-1.4 6.9-1.8 6.9-.6a39 39 0 0 1-11.3 8.3c-5.5 3.4-9 8.5-8.2 11.8q1 4.6-5.9 1.8c-3.7-1.5-4.9-3.6-2.1-3.6q1.8.2.5-1.9c-1.5-2.8-1.5-2.8 3.9-3.6 3.7-.5 5-1.1 5.4-2.6q.6-1.8 2.5-1.9c1.9-.1 2.8-1.2 3.7-2.8q1.6-2.4.4-1.4c-.7.6-1.9 1.2-2.6 1.2-2 0 .5-4.5 3.3-6.1q2.6-1.2 1.8-3.3-1.4-4.8-3.8-2.7c-2.2 1.8-6 1-6.4-1.4-.2-1.5 1-2.7 5-4.8 2.9-1.5 6.2-2.7 7.3-2.7 1.7 0 1.8-.2.4-1.5s-10.2-2.8-15.9-2.6c-3.8.2-12.1 2.8-15.7 5-1.9 1.2-4 3.8-5.2 6.5-2.2 5.1-2.9 5.3-12.5 4-4-.6-4.7-1-4.4-2.7.2-1.6 1.5-2.3 5.3-3.2a33 33 0 0 0 6.3-1.9q1.2-.6 1.8.9c.9 2.1 3.7-.1 2.9-2.4-1.2-4.1 13-9.6 27.5-10.6a46 46 0 0 1 33.3 7.8l2.8 1.9-2.3 1.2c-1.2.6-2.5 2-2.7 3.1-.3 1.9-.2 1.9 1.6.3 2.2-2 6.9-2.8 6.6-1.2q0 1.1 2.2 2.2c2.4 1.1 2.5 1 2.5-2.7 0-3.4-.4-4-4.7-6.8-12.5-8-18.8-9.7-35.8-9.7a46 46 0 0 0-20.6 2.6 95 95 0 0 0-14 6.6c-6.9 4.3-11.4 5.8-12.4 4.2s4.6-11 8.2-13.7c1.8-1.4 3.3-3.1 3.3-3.8 0-2-7.9-8.5-15-12.5-3.5-1.9-7.8-5-9.5-6.9q-3.3-3.3-4.8-2.8-3 1.4-4.5-6l-.9-4.1 3.7-1.1c8.4-2.5 13.2-2.9 16.6-1.5 1.8.8 5.2 1.4 7.4 1.4h4v4.2c0 6.8 2.9 10.4 11.6 14.4 5.5 2.6 8.3 3.4 10.4 2.9q6-1.4 4.1-5.4c-1.5-2.7-1.4-3.1.9-3.1 2.1 0 5 4.5 5 7.8 0 3.6 9.1 9.2 11.6 7.1.8-.6 1.4-1.7 1.4-2.4s.7-1.8 1.5-2.5 1.5-1.6 1.5-2.1c0-1.3-3.4-1.1-4.8.3q-1.2 1.2-1.2.1-.1-1-1.6-1.7-1.7-.9-.8 1.6 1 2.9-1 .9a5 5 0 0 1-1.6-3.2c0-1.6.4-1.7 3.1-.7q5.8 2.2 3.7-4.9c-.5-1.9-.7-3.7-.4-4.1q.5-.4.6.7.2 1.6 1.5 2.7a6 6 0 0 1 1.5 3.5c0 2.2 1.8 2.5 4.5.5 1.6-1.1 2.3-1.1 5.1.6 1.8 1 3.8 2.6 4.4 3.4s2.3 1.4 3.6 1.4c2.2 0 2.3-.2 1.7-7.3-.8-10.4-3.2-15.1-10.6-19.8-4.2-2.8-7.1-3.9-9.7-3.9-2.2 0-4.3-.7-5.1-1.6-2-2.5 3.4-6.7 7.6-5.9 12.6 2.3 16.1 1.4 15.1-3.5-.4-2.4 0-3.3 3-5.5 2.8-2.2 3.3-3 2.3-4.1-.6-.8-2.6-1.4-4.3-1.4-5 0-10.1-1.8-12.5-4.4-2.1-2.2-2.2-2.7-1-5.9 1-3 1-3.7-.7-6-2.6-3.4-6.6-5.7-10.1-5.7q-3 .1-5.2-3.1a16 16 0 0 0-5.4-4.4q-2.9-1.3-1.5-1.5c1.9 0 6.8-5.5 6.8-7.7q-.2-1.4-2-2c-2.2-.6-1.7-2.3.7-2.3 1.9 0 4.2-2.9 4.3-5.4q0-1.9 1.8-1.1c3.6 1.4 5.1.9 6.2-2.1.8-2 .6-3.4-.5-5.7-.8-1.7-1.3-3.2-1-3.5.2-.3 2.4.2 4.7 1.1 6.6 2.4 15.9 3 18.3 1.3 2-1.4 2-1.4 0-3.6a47 47 0 0 0-7.1-5.5 56 56 0 0 1-8.6-6.9c-5-5.2-8.4-6.1-13.9-3.9a15 15 0 0 1-6.6 1.5c-2-.3-2.3-.9-2.3-5.4 0-4.7-.3-5.4-4.7-9.9a88 88 0 0 1-7.2-7.9 11 11 0 0 0-5.2-3.7c-4.1-.8-5.3-2.6-4.5-7.4.5-3.4.1-4.9-3-10.5-2-3.5-4.3-7-5.3-7.7-.9-.6-2.4-2.5-3.4-4s-2.6-3.1-3.6-3.5-3-2.1-4.4-3.7a17 17 0 0 0-6.3-4.4c-2.2-.7-5.4-2.2-7.2-3.3-2.8-1.7-3.2-2.5-2.7-4.5.4-1.8-.3-3.7-3-7.4a42 42 0 0 1-3.5-5.4l-2.8-5.2c-4-6.9-7.2-15.1-6.5-16.8.3-.9 0-4.4-.7-8-1.1-6-1.1-6.7.9-10 2.4-4.2 2.1-5.3-2.3-8.2a14 14 0 0 1-6.2-13.7c.7-4.8.6-4.9-5.7-9.9-3.8-3.1-4.6-4.2-3.6-5.3 1.8-2.2 2.5-1.7 5.8 3.5 6.2 10.1 17.8 13.4 27.3 7.8 2.5-1.4 4.8-3.6 5.1-4.7.7-2.8 2.5-2.5 3.9.5 1.1 2.4.7 3-4.4 8.3-6.4 6.5-8.5 10.2-9.7 16.9-1.1 5.6.1 9 5.4 16.4 4.5 6.1 7.1 7 10 3.7l2.2-2.5 2.1 2.4q2.2 2.6 4.2 1.8c1.8-.6 2-.2 2 4.2 0 3.7.8 6.2 3.3 10.3 3.6 6.1 10.6 12 14.3 12 2 0 2.4-.5 2.4-2.9 0-1.6.7-3.4 1.5-4.1 2.2-1.8 1.9-3.5-2-10.4-3.8-6.8-4.6-12.3-1.9-13.3 1.9-.7 3.4 1.3 3.4 4.5 0 1.3 1.4 3.7 3 5.4 2.6 2.5 3.6 2.9 6.3 2.4q12.6-2.6 12.7-1.4c0 .5-.7 1.9-1.6 3.3-1.4 2.1-1.4 2.6 0 5.3 2.8 5.3 14.9 7 19.6 2.7q4.5-3.7-1.9-3.5c-2.2 0-4.4-.6-5.1-1.5-1.1-1.3-.9-2 1.2-4.3 6.4-6.9 6.3-12.9-.4-22.4-1-1.4-.9-2.1.5-3.6a8 8 0 0 0 1.7-4.6c0-5-5.6-13.5-11.1-16.8q-6-3.6 1-3.6 4-.2 7.9-2.7c7.5-5 8.2-11.1.9-8.4-4 1.4-8.3.2-11.4-3.3-1.8-2.1-1.8-2.1.7-1.5 1.4.4 4.8 1 7.7 1.3 5.1.7 5.2.6 9.4-3.9 4.8-5 7.5-11.9 5.4-13.7-1.7-1.4-4-.4-5.3 2.6-.7 1.3-1.7 2.4-2.3 2.4-.7 0-2 .7-2.8 1.4-1.3 1.2-2.6 1.3-6 .5q-9-1.9-21.5-19.1c-10.3-14-16.2-17.3-30.4-16.9-10.2.3-14.7 2.2-24.2 10.4a19 19 0 0 0-3 3.6c-1.4 2.1-1.9 2.2-5.4 1.2a45 45 0 0 0-24.6 1.8c-8.9 4.6-13 10.6-13 19.1 0 2.7-.3 5-.7 5-1.4 0-7.6-4.1-12.4-8.1-11.2-9.4-17.5-9.4-23.9 0-2 3.1-4.4 6.9-5.3 8.6s-3.8 6.1-6.6 9.8c-10.3 13.7-14.4 24.3-10.6 27.1 1.3 1 1.2 1.7-.9 5.8-2.1 4.2-2.3 5.6-1.9 14.5.3 5.4.9 11.4 1.5 13.3 1.2 4 5.3 8.8 8.6 10.1 1.7.7 2.2 1.6 2.2 4.4 0 1.9 1.5 6.4 3.2 10 3.6 7.2 3.2 8.5-2.5 8.5-3.9 0-9.3 2.5-14.1 6.3-2.3 1.9-6.2 4.8-8.8 6.5a14 14 0 0 0-6.5 8.4 23 23 0 0 1-6.1 9.2c-6.7 6.4-9.4 11.6-8.6 16.8.4 2.4 1.5 5 2.5 5.8q1.8 1.5 2 6c.2 4.1-.3 6-3.2 13.8q-2.2 5.5-7.2-4.3l-8.6-16a54 54 0 0 1-6.2-14.9c-.5-2.7-1.7-5.9-2.9-7.1-2.5-2.6-2.5-4.5-.1-7.6q4.4-5.7 5.4-12.1a21 21 0 0 1 3.2-7.5q4.2-6.4-.7-7.6c-1.8-.5-2-1.1-1.4-4.2.6-2.8.2-4.5-1.4-7.3-2.6-4.4-2.9-13.3-.6-20.7a37 37 0 0 0 1.6-9.5c0-2.8.8-5.6 2-7.5 1.1-1.7 2-4 2-5.2 0-4.6 8.7-8.5 14-6.3 1.6.6 3.7 1 4.7.7q2.2-.3-1.1-1.6c-2.8-1.1-2.8-1.3-1.3-2.9 2.1-2.1 5.4-.5 4.9 2.4-.2 1.7 0 1.6 1.7-.4 3.4-3.9.1-8.6-4.7-6.7-2.2.8-2.7.4-2.4-2.2.2-1.1-.2-2.4-.8-2.8-1.8-1.1-6 2.4-6.7 5.6-.4 2.2-1.6 3.5-4.4 4.9l-3.9 1.8v-2.3a801 801 0 0 0 5.5-41c2-20.1 4.6-32.1 6.5-31.6 2.6.8 9.3.1 10.7-1.1 1-.8 2.3-.4 5.2 1.5 4.4 2.9 9.1 4.4 9.1 2.9 0-.5-1.3-1.5-3-2.2q-5.5-2.3-.4-3.6c2.1-.5 3.1-.2 4.3 1.5q3 3.9 3.1-2.2 0-2.9-2-3.4-1.8-.6-2-1.4c0-.5-1.2-.6-2.7-.3l-2.8.7 2.9-3.1q3-3.3 4.1-2.2 1.3 1 2.5-.4c2.9-3.5-2.9-5-6.4-1.7-2.1 2-2.1 2-2.1-1.7q-.1-6.9-5.8-1.8c-2.1 2-2.7 3.4-2.7 6.9 0 5.5-1.9 7.3-8.3 8-4.7.5-4.8.4-4.2-2l2-11.6c.8-5.1 2.1-11.6 3-14.6a28 28 0 0 0 1-12.5q-1-10.8-5.5-10.6c-1.3 0-1.9-1.1-2.3-4.7-.7-6.4-4.3-9.7-9.7-8.8-4.2.7-6.5-1.1-3.5-2.7 3.8-2.2 5.5-4.8 5.5-8.6 0-2.1-.3-4.1-.6-4.5-.7-.6-8.5 3.9-9.6 5.7-2 2.9-.5-1.4 1.7-4.9 3-4.8 3.1-7.5.6-10.6l-1.9-2.3zm2.9 5.5c0 .8-.9 2.4-2 3.7q-1.8 2-1.6.9l1-4.3c.6-2.7 2.6-2.9 2.6-.3M214.5 16q.4.9-.4 1-1-.1-1.1-1 0-1 .4-1 .6 0 1.1 1m18.5 5.8c0 .9-.9 2.3-2 3q-3.4 2-1-2.9c1.3-2.4 3-2.5 3-.1m-13.2 4.9q-.4 1.7-3.1 2.1c-3.3.4-3.6-1.1-.4-2.6s3.9-1.4 3.5.5M248 55q0 1.8-.9 2c-1.1 0-2.2-2.6-1.4-3.4 1.2-1.2 2.3-.5 2.3 1.4m-5.1 3.7q0 1.2-.8 1.3c-1 0-2.1-4.7-1.2-5.5.6-.6 1.9 2.1 2 4.2m-34.2.9q-.6.5-1.9.1-1.1-.5.6-.6t1.3.5m25.4 11.7q-1.2 1.2-1.1-1.9c0-4 1.4-5.4 1.8-1.9.2 1.5-.1 3.2-.7 3.8m.9 2.7q0 .9-1 1a1 1 0 0 1-1-1q.1-1 1-1t1 1m0 3.4q0 .6-1 1.1-.9.4-1-.4.1-1 1-1.1 1 0 1 .4m9.6 4.3c-1.1 1.1-1.7-.4-.9-2.3q.9-2.7 1.1-.1c.2 1 .1 2.1-.2 2.4m-7 3c-1 1-1.9-.5-1-1.8q.8-1.6 1.2 0 .3 1.2-.2 1.8m26.9 1.3c-.9 2.9-2.6 1.2-1.8-1.8q.6-2.3 1.5-1.4c.6.6.7 2 .3 3.2m-30.8 2.2q-.5 1.1-.6-.6t.5-1.3c.3.3.4 1.2.1 1.9m-4.6 6.1c-1.3 1.3-1.5-2.1-.3-5q.8-2.4 1 1.1c.2 1.6-.1 3.3-.7 3.9M237 99q0 .9-1 1a1 1 0 0 1-1-1q.1-1 1-1t1 1m-8.8 4c-.2 1.6-.8 3-1.3 3-1 0-1.2-2.1-.3-4.4 1-2.7 2.1-1.8 1.6 1.4m163.1 5.5q-.6 1.5-1 1.1-.4-.5.2-1.5c.9-1.6 1.5-1.3.8.4M230 110.2q0 2.3-1.1 1.1-1-1.1-.5-2.2 1.6-2.5 1.6 1.1m183.5 1.2c1.8 1.3 1.8 1.4-.1 1.8-2.9.8-12.4.9-12.4.2 0-3 9.1-4.5 12.5-2m9.9 4.6c2.8 1 3.5 3 1.2 3-1.7 0-6.6-3.9-4.9-4 .6 0 2.3.4 3.7 1m-52.7 2.7c5.6.9 2.6 2.1-3.6 1.6-4.9-.5-6.6-.2-9.6 1.6-5.1 3-6.4 2.6-3-.9 2.6-2.7 3.6-3.1 8-2.9 2.7 0 6.5.3 8.2.6m18.8 3.3c-.3.5-1.5 1-2.6 1s-1.7-.5-1.4-1 1.5-1 2.6-1 1.7.4 1.4 1m43 2c1.6 1.6 2.5 3.3 2.2 3.7-.7.6-6.7-5.1-6.7-6.3s1.9-.1 4.5 2.6m-205 1q-1.7 1.9-.6 2c1 0 1.1 5.1.2 8.7q-.3.3-1.6.3c-1.2 0-1.4-.8-.9-3.8.3-2 .5-4.4.5-5.2q0-4.1 2.5-4c1.6 0 1.6.2-.1 2m98.6 6a115 115 0 0 0 15.5 9.9c3.3 1.6 9.5 5.7 13.7 9l7.7 6.1v5.3q0 8.7 6.7 14c2 1.6 2.3 2.5 1.7 4.6-.4 1.4-1 4.4-1.3 6.6-.5 3.4-1 4-3.4 4.3-3.4.4-5.3 3.5-3.2 5.2.8.7 2.4 1 3.5.7 2.3-.6 2.6.5.6 2.2-1.9 1.6-6.4.4-7.7-2-1.1-2.2.2-5.3 2.7-6.3q1.6-.6 1.1-2.8c-.4-1.2-.1-2.8.5-3.5 1.5-1.8.2-4.3-2.2-4.3-2.8 0-3.6 2.7-1.5 5 1.6 1.8 1.6 2 .2 2-1 0-3-2.3-4.7-5.4-1.7-3-3.8-6-4.5-6.6-1.9-1.6-2-4.1-.2-3.4.8.3 2-.2 2.7-1.1 1.1-1.3 1.1-1.9-.4-3.3-1.6-1.6-1.8-1.6-3.7.7-1.6 1.9-2.2 2.1-3.4 1.1-1.9-1.6-1.9-3.6.1-4.4 1.7-.7 1.6-4.7-.3-5.3-.6-.2-2 .6-3.2 1.8-2.9 3.1-5.4 1-4.5-3.7q1-5.8-3.7-1.8c-2.3 2-4.2.9-3.6-2.2.6-3.4-1.8-5.2-4.1-3.1q-3.4 2.9-3.9-2.6c-.1-2.5.2-2.8 2.1-2.2 5.9 1.8 9.2 2.3 11.8 1.8 2.4-.5 2.8-.2 2.8 1.6 0 2.1 2.4 2.9 3.4 1.2 1.4-2.3-.3-3.8-11.9-10.7A53 53 0 0 0 312 133c-1.3 0-3.2.7-4.2 1.7-3.3 3-3 .5.8-5.1q3.7-5.8 5.9-5.6c1.2 0 6.5 3.2 11.6 7m95.9-4.8q0 .9-1.5-.2-1.4-1.2-1.5-1.6.1-.3 1.5.2 1.4.7 1.5 1.6m-8 2.5q5.8 8.6 1.6 3.8l-4.7-5.3q-2.3-2.2-.8-2.2c.8 0 2.5 1.7 3.9 3.7m16.1-2c2.7 1.6 4.4 4.1 3.5 5-.2.3-2.2-1.1-4.3-3.1q-6.1-5.8.8-1.9m-21.7.9q.5 1.5-.6 1.2c-1.5-.5-2.3-2.8-1-2.8q1 .1 1.6 1.6m-50.4 1.9q0 1.4-1 1.5-.9-.1-1-1.5c-.1-1.4.5-1.5 1-1.5q1 .1 1 1.5m23-.7c0 1.4-2.3 3.2-4.1 3.2-2.8 0-3.3-1.9-.7-2.9 2.9-1.2 4.8-1.3 4.8-.3m-149 .6q0 .6-1 1.1-.9.4-1-.4.1-1 1-1.1 1 0 1 .4m213 4.5q8 7.9-1 1.5c-5.7-4.1-6.8-5.4-4.6-5.4.9 0 3.4 1.7 5.6 3.9m-11.5.6q2.7 2.2 1.8 2.5c-.7 0-2.4-1.1-3.9-2.5-3.5-3.2-1.8-3.2 2.1 0m41-.4c-.8 1.2-7.5 1.2-7.5 0 0-.6 1.5-1.1 3.3-1.3q5.5-.6 4.2 1.3m-30 4.9c5.8 5 8.5 6.5 9.4 5.2.3-.6 1.8 0 3.6 1.5l3 2.5-3-.7-6-1.2q-5.1-.9-10.8-7.9c-3.8-4.6-1.9-4.3 3.8.6m-52-1.5q.7.3-2 1.4c-3.2 1.3-9.6.3-10.2-1.5-.3-1 9-.9 12.2.1m36.9.1q.5 1.3-.4.9-1-.6-1-1.6.2-2 1.4.7m32.1-.6q-.6.8-2 .3-3.2-1.2.6-1.3 1.8 0 1.4 1m-234.5.4q0 .6-1 1.1-.9.4-1-.4.1-1 1-1.1 1 0 1 .4m89.3 4.2 3.6 2c.9.8-3.4 4.4-5.3 4.4q-2.2 0-.8-1.2c1.8-1.8 1.4-3.8-.7-3.8q-2 0-2.3 2.2c-.2 1.8-1.2 2.4-4.7 3a14 14 0 0 1-5.3.2c-.6-.4.7-2.4 2.8-4.5 4.3-4.4 7.4-4.9 12.7-2.3m37.7-.1q0 1.4-1 1.5-.8-.1-.4-1.5.6-1.4 1-1.5.3.1.4 1.5m80.5-.5q.5.9-.4 1-1-.1-1.6-1-.5-1 .4-1a2 2 0 0 1 1.6 1m-22.3 4.7 2.6 5.7q.4.8-.6.2-1.1-.7-1.2-1.8c0-.5-.9-2.1-2-3.5-1.8-2.4-2.7-5.3-1.5-5.3.3 0 1.5 2.1 2.7 4.7m22.7 5.8q5 3.3 3.5 3.5a44 44 0 0 1-14.4-12.3q.2-.7 2.8 2.1c1.5 1.7 5.1 4.7 8.1 6.7M229 147.9q0 1-1 1.6-.9.4-1-.9.1-1.5 1-1.6 1 0 1 .9m-3 1.9c0 .4-.7 1.8-1.6 3-2.1 3-1 4.1 1.6 1.7q3-2.6 1.4 1.9-.5 1.7-2.9.6c-1.3-.5-2.6-.6-2.9-.3-.8.8-.8-2.5 0-5.5.6-2 4.4-3.3 4.4-1.4m7 .1q0 1-1 1.6-.9.4-1-.9.1-1.5 1-1.6 1 0 1 .9m158.5.1c-.3.5-1.3 1-2.1 1s-1.4-.5-1.4-1q.1-1 2.1-1 1.8 0 1.4 1m74.5-.1c0 1.5-2.6 3.1-5.1 3.1-2.8 0-5.9-2.5-3.9-3.2 2-.6 9-.6 9 .1m-170 1c0 1.3-2.9 3.5-3.7 2.8-.7-.8 1.5-3.7 2.8-3.7q.8 0 .9.9m130.5 3.6q3 2.4 1.4 2.5c-.8 0-2.6-1.1-3.9-2.5-3-3.2-1.4-3.2 2.5 0m-105 1.5a68 68 0 0 1 18 12l1.9 2.1-2.7-.6c-3.7-1-3.6 1.3.4 5.1 1.7 1.6 4.6 5.5 6.6 8.6q5.2 8.4 6.6 3c.7-3.2 2.6 3.5 2 7.2-1.1 7 5.3 11.9 12.6 9.7 5.4-1.6 5.8-1.4 6.6 1.6.3 1.6 2.7 7 5.3 12s4.3 9.5 3.9 9.9c-.3.3-2.3-.7-4.4-2.3a35 35 0 0 0-7.8-4.3 41 41 0 0 1-16.3-9.8c-1-1.5-3.8-7.4-6.2-13.2-6.3-15.3-10.7-20.7-20.7-25.3-4.1-1.9-6.3-2.2-15.4-2-12.2.3-13.8.7-19.9 5.8-4.7 4-6.4 3.3-3.2-1.2 1-1.6 2.4-4.2 2.9-5.8q1-3 3.1-3.3c1.3-.2 2.9-1.7 3.8-3.4 1.4-2.7 1.8-2.9 2.6-1.5q2 3.4 3.3-.3.7-1.8 1.8-1.9c2.6.4 7.6-1.4 8.1-2.8q.6-1.5 2.4-.8c.9.4 3.1 1.1 4.7 1.5m116.9 1.5c3.3 1.4 4 1.3 3.7-.8 0-.4 1.3-.7 2.9-.7q3 0 3 1.5-.1 1.4-2.2 1.5c-1.3.1-3.4.7-4.8 1.5-3.4 1.9-3.3 1.9-5.8-1.5s-2-3.6 3.2-1.5m-207 1c-.6 1.6-2.4 2.1-2.4.7 0-1.1 1.1-2.2 2.1-2.2q.8.1.3 1.5m-10 2.7c-1.1 7.8-2.7 22.9-2.8 26-.1 2-.7 4.3-1.4 5-1.1 1.1-1.3.7-.8-2.2l1.7-13.5c1.7-15.4 2.1-17.5 2.9-17.5.4 0 .6 1 .4 2.2m202.3-.2c1.4 1.1 3.6 2 4.9 2q2.4-.2 4.4 4c1.2 2.3 3.1 4.5 4.4 5 3.3 1.2 4.1 2.9 1.9 3.7-1 .3-2.8 1.5-4.1 2.6-1.7 1.6-2.5 1.8-3.4.9q-1.3-1.2 0-2.4c3.3-3.3-.6-10.8-6.6-12.9a9 9 0 0 1-4-2.9q-2.4-3.8 2.5 0m-24.4 6.1c-3.9 3.7-5.3 5.8-5.3 7.9 0 3.3 2.4 5.9 3.4 3.5.3-.8.3-2.1 0-2.9q-.4-1.4.5-2c1.8-1.1 2.2 3.2.6 7.1-1.4 3.5-1.4 4.2 0 6.9 2.8 5.5 1.2 7.4-2.4 2.8-3.1-4-4.7-12.5-3.2-17.6 1.5-4.7 6.9-10.8 9.8-10.8 1.3 0 .4 1.4-3.4 5.1m24.5 2.3q2.4 1.6-2.9 3c-2.4.5-2.6.3-2.1-1.9q.7-3.8 5-1.1m-9.6 1.8q-1.1 1-1.2.2c0-1.4 1.2-2.6 1.9-1.9q.3.6-.7 1.7m-9.1 1.1c-1.3 1.3-2.6.3-1.6-1.2q.6-1 1.7-.5 1 .6-.1 1.7m4.4 1.7q.4.9-.4 1-1-.1-1.1-1 0-1 .4-1 .6 0 1.1 1m6.8 2.1q-.6 2-1.5 1.1c-1.1-1.1-.3-3.2 1.2-3.2q.7.2.3 2.1m6.7 1.9c0 1.8-2.4 6.5-4.6 9a24 24 0 0 0-3.5 5.5c-1.6 3.4-2.7 3.7-4.2 1.4q-1-1.6.3-6.3c1.2-4.4 1.4-4.7 4.1-4.1q3 .8 2.9-.7c0-.7.7-2.4 1.6-3.6 1.6-2.3 3.4-2.9 3.4-1.2m42 0q-.1.9-1.6 1-1.3-.1-.9-1 .6-1 1.6-1 .8 0 .9 1m-62.8 4.2q-1.1 1-1.2.2c0-1.4 1.2-2.6 1.9-1.9q.2.6-.7 1.7m-70.9 3.1c3.6 4.2 4.3 7.1 2.3 10.2-2.1 3.2-2 4.7.5 7.9 1.6 2 2.9 2.6 6 2.6q8.3 0-1.3 6.3c-10.7 6.8-10.9 6.9-12.3 5.7a46 46 0 0 0-19.6-1c-2.3 1.3-2.5 4-.3 4q1.3 0 .9 1-1.5 2.4-3.3-1.3a55 55 0 0 1-6.2-16.2c0-2.3.4-2.6 2.8-2.3 2.2.2 2.7.7 2.4 2.7-.4 3.8 1.7 8.8 3.8 9.4 1.1.3 2.2.2 2.4-.1s-.2-4.3-.9-8.7c-1.4-9.3-4.6-17.1-7.2-17.8q-1.9-.5.9-.6c1.4 0 4-1.3 5.7-2.7q3.1-2.7 5.4-2c1.2.3 2.9.1 3.7-.4a15 15 0 0 1 6.5-.4c4 .5 5.6 1.2 7.8 3.7m108.7-2.9q0 .5-1 1.1-.9.4-1-.4.1-1 1-1.1 1 0 1 .4m3.8 4.6c.3 3 .2 3.2-1.2 2.1-1.9-1.6-2.2-6.5-.3-5.9.6.3 1.3 2 1.5 3.8m8.7-1.9q.8.9-.7.9t-2 1.2c-.6 1.8-2.8 0-2.8-2.3 0-1.6.4-1.9 2.3-1.4 1.2.4 2.6 1.1 3.2 1.6m-155 .9q2.8 1-.7.9-2.6 0-2.8-.9c0-1.2.8-1.2 3.5 0m-69.8 5.2q-.5 1.1-.6-.6t.5-1.3q.5.7.1 1.9m69.1 1c-.6 1.8-2.8 2.1-2.8.4q.1-1.5 1.6-1.6 1.4 0 1.2 1.2m149.2 5.9q0 1.8-1 1.4c-.5-.3-1-1.5-1-2.6s.5-1.7 1-1.4 1 1.5 1 2.6m-143 0q0 .9-1 .4-.9-.7-1-1.6.1-.9 1-.4a2 2 0 0 1 1 1.6m139.9 1.1c1.8 2 2.6 3.7 2 4.2-1.2 1.3-5.9-3.2-5.9-5.6 0-2.5.6-2.3 3.9 1.4m-103.2 2.5c-1.1 1-2.7-.8-2.7-3v-2.1l1.6 2.2c.9 1.3 1.4 2.6 1.1 2.9M216.3 200c.3 1.1.1 2.3-.4 2.6q-.8.3-.9-2 .1-4.7 1.3-.6m239.7.5q-.1 1.4-1.5 1.5c-1.6 0-2-1.2-.8-2.3 1.1-1.2 2.3-.8 2.3.8m-162.6 1.1c.9 2.2-.3 3.2-1.4 1.4q-1.8-3-.1-3 .9.1 1.5 1.6m-73.2 6.6q-1.1 1-1.2.2c0-1.4 1.2-2.6 1.9-1.9q.3.6-.7 1.7m130.5 4.7c.6 1 .9 2.9.6 4.1-.6 2.1-.3 2.2 2 1.6 1.5-.3 2.7-.4 2.7-.1 0 1.2-2.3 5-4.6 7.8a10 10 0 0 0-2.4 6.5q0 8.6-2.8 7.7a3 3 0 0 0-2.7.5q-1.3 1.2-2 0c-1-1.6-2.5-.1-2.5 2.5 0 2.7-1.8 4-7.3 5-3.6.7-3.7.6-4.3-2.4-.4-1.7-1.1-3.4-1.6-3.7-1.4-.9-2.7 1.4-2.1 3.7q.4 1.7-.5 1.9-.9-.2-1.5-2.5-.5-2.6 1.7-4c3.1-2.2 4.3-1.8 5 1.5.7 3.6 3.6 4.2 3.6.7 0-1.3-.6-2.9-1.2-3.6-1.1-1-.9-1.5.7-2.8 1.9-1.5 1.9-1.5-.5-.9-13.7 3.3-15.5 3.2-16.2-.9-.4-2.9 3.7-3.4 4.5-.6.8 3.1 3.7 2.7 3.7-.5 0-2.1.9-2.9 5.8-5 6.4-2.9 17.2-10.6 15.5-11.1-.6-.2-3.9 1.4-7.4 3.6a49 49 0 0 1-15.4 6.2c-8.1 1.9-9.6 2-15.7.8-3.8-.7-6.8-1.5-6.8-1.8s4.4-.6 9.8-.7c11.4-.1 16.9-2 29.7-10.2 8.8-5.7 10.4-6.1 12.2-3.3m81.3 1.2q0 .8-1 .9-.9-.1-1-1.6.1-1.3 1-.9 1 .6 1 1.6m-230 6.4q0 1.3-1 1.5-.9-.2-1-1.5c-.1-1.3.5-1.5 1-1.5q1 .1 1 1.5m6.7.2q-1.5 1.5-2.3 1.1c-1-1 .6-2.8 2.4-2.8 1.5 0 1.5.1-.1 1.7m-9.4 7c.5 2.6.4 2.6-.9.9-.7-1-1.1-2.3-.8-2.7.8-1.4 1.1-1.1 1.7 1.8M210 231q-.2.8-2 .3c-1.8-.5-2-.9-2-1.3q.2-.7 2-.3c1.8.4 2 .9 2 1.3m-7 1.1q0 .8-1 .9-.9-.1-1-1.6.1-1.3 1-.9 1 .6 1 1.6m152.3 3.3c.2 3.7 2.1 4.8 4.4 2.5 1.3-1.3 8.3-.4 10.8 1.5 1.5 1.1.7 1.9-6.6 6.7-21.9 14.5-30.3 17.9-47.5 19.5-5.9.6-7.6.3-11.1-1.4-3.9-2-5.8-4.4-4.6-5.6.4-.3 1.5.2 2.5 1.1 2.7 2.4 4.9.2 2.5-2.5-2.8-3.1-2-4.4 1.3-2q3.1 2.4 4.1 1.1c.9-.9.4-1.8-1.7-3.6-3.4-2.9-2.6-4.7.9-2.4 6.3 4.1 34-1.5 40-8.1 1-1.1 2-4.3 2.4-7.1.7-5.8 2.3-5.6 2.6.3M220 232q0 .9-1 1a1 1 0 0 1-1-1q.1-1 1-1t1 1m91.2 1.6q.4.7.1 2.5c-.8 2.8-4.7 2.1-5.1-.9-.3-1.7.1-2.2 2.1-2.2 1.3 0 2.6.3 2.9.6m-101.4 4q2 .7 2.2 1.5c0 1.5-3.7 1-5-.6s-.8-1.8 2.8-.9m-4.3 2.4q-.7.9-1.6 1-.9-.1-.4-1a2 2 0 0 1 1.6-1q.9 0 .4 1m17.5-.6q0 .6-1 1.1-.9.4-1-.4.1-1 1-1.1 1 0 1 .4m165.9.5c1.1.7 1.1 1.3-.3 3.2-2.1 3.1-2 4.8.6 7.6 1.7 1.8 3.2 2.3 7.3 2.3q8.7.1 6.4-4.3-1.4-2.1.3-1.5 1.2.6 1.6 2.6a7 7 0 0 0 2.5 3.7c1.8 1.3 1.9 1.7.8 2.4-.8.5-2.9.7-4.7.4-2.8-.5-3.9.1-8 4-4.5 4.2-4.7 4.7-3.6 7.1.6 1.5 2.2 3 3.6 3.5s2.6 1.7 2.9 2.5c.9 2.2 4.4 2 7.4-.4 4-3.1 8.2-2.5 6.3 1q-1 1.7.5 3.6c2.3 3.1 1.7 4.4-3.1 6.4-7.4 3.2-12.4 2.3-12.4-2.2q0-1.8-3.1-2.5c-1.7-.3-3.3-1.2-3.6-1.9-.8-2.1-4-1.7-6.4.7-1.7 1.7-2.3 1.9-3 .8-1.2-1.9-1.1-3.1.6-5.3 3.3-4.4.6-10.9-5.8-14.2-4.7-2.5-16.7-.8-16.7 2.2 0 1.2 1 1.3 4.8.8q10-1.2 12.1 6.2c.8 2.8.7 4.1-.3 5.6-1.2 1.6-1.4 1.7-1.9.3-.8-1.9-3.1-1.9-4.7 0-1 1.3-1 1.9.4 3.3 2.2 2.5 2 3.2-.9 3.2-1.4 0-3 .9-3.7 2-1.4 2.1-7.2 2.8-8.3 1q-.3-1 1.6-1c3.7 0 8.9-3.9 8.9-6.6q-.1-2.3-1.7-3.1c-1-.4-2.2-1.2-2.6-2-2-3.3-5.7 0-5.7 5.2 0 2.2-.4 2.6-2.2 2.3-2.9-.4-3.5-3.8-1.3-7.2 2-3 1.7-9-.5-9.4-.8-.1-3.2 1.1-5.2 2.8-2.8 2.3-4.1 4.5-5.8 10-2.3 7.5-4 9-4 3.7 0-7.5-8.5-9-8.7-1.6 0 2.8.6 3.8 3.4 5.6 1.9 1.3 4.8 2.3 6.4 2.3 2.1 0 3.8 1 6.3 3.7 1.9 2.1 5.2 4.9 7.5 6.3q4.2 2.5 3.5 4.3c-.7 2.3 1.2 4.7 3.7 4.7q3.6 0-.1 3.5c-2.1 1.9-2.6 5-1 6 .6.3 1 1.4 1 2.4s.9 2.5 2.1 3.2c1.8 1.2 2.1 2.7 2.6 11.6l.6 10.1-3.2 1.6c-3.8 2-3.9 4.1-.5 7.7 3.1 3.3 2.6 5.9-1.1 5.9-3.1 0-4.3 2.5-2.5 5.3 1 1.7 1 2.3-.6 3.4-1 .7-2.6 1.1-3.6.7q-1.8-.7-3 2.1c-1 2.2-1.6 2.5-3.7 2-4.6-1.2-9.1-6.8-9.1-11.5q0-4.5 6.6 1.5c5.9 5.4 9.4 4.5 9.4-2.5q0-6.2-6.4-3.9c-2.8 1-3.8 1-5-.1-1.3-1-1.4-1.6-.4-2.7s2.5-1.3 6.6-.8c4.3.5 5.7.3 7.2-1 1.8-1.7 1.8-2.9-.2-7.1-1.9-4-8.6-5.6-14.4-3.4-1.5.6-6.1 4.6-10.1 8.8-7.3 7.7-9.6 8.2-4.7 1 1.5-2 2.4-4.4 2-5.3-.6-1.7-3.7-2-5.2-.6-.5.6-4.8.6-10.4.2l-9.5-.7 3.7-1.7c2.1-.9 5-1.7 6.5-1.7 6.9 0 18.5-12.5 19.8-21.4a29 29 0 0 0-4.7-17.4c-2.2-3.5-9.3-8.2-12.5-8.2a5 5 0 0 1-3.3-1.5q-1.3-1.8-2.6-.4c-.8.6-1.4 1.6-1.4 2.2 0 1.7 3.2 4.7 5 4.7 3.1 0 11.7 9.1 13.1 13.9 1.1 3.9 1.1 5-.7 10-1.7 4.9-2.6 5.9-6.4 7.9q-7.9 3.9-8.8-.1c-.4-1.8.3-2.2 5.9-3.1 4.7-.8 7.9-3.9 7.9-7.6 0-2.3-.5-3-2-3.2l-3.2-.2c-.7-.1-1.5 1.2-1.8 2.9-.5 2.8-.8 3-5.3 3q-7.3-.1-7.2 5.5c0 2.4-3.4 2.3-5.6-.2a30 30 0 0 1-3.9-6.6c-1.8-4-1.8-4.3-.2-4.8l3.4-1.5c1-.5 2.9-.9 4.2-.9s3.4-.8 4.7-1.8c2.1-1.8 2.1-2 .7-4.1-.9-1.3-2.9-2.9-4.3-3.7q-5-2.6-5.7 3.3c-.4 3.2-3.2 5.3-4.9 3.6-1.4-1.4-.8-3 4.6-10.8a32 32 0 0 0 3.5-5.7c0-1.6-5-3.9-7-3.3-2.8.9-9 6.4-9 8s-3.8 6.5-5 6.5c-.5 0-.6-2.3-.3-5.1.6-5.1.6-5.1-1.8-4.4a15 15 0 0 0-4.6 2.8c-1.3 1.1-2.6 1.7-3 1.3-1.1-1 3.5-18.7 6.6-25.2 2.5-5.2 2.9-5.6 3.5-3.6a7 7 0 0 0 2.8 3.3c1.7.9 2.5.6 5-1.8 1.6-1.5 3.4-4.7 4-6.9l1.2-4.2 1.8 3.4c1 1.9 1.8 4.5 1.8 5.8 0 3.1 4.9 7.3 9.5 8.2 6 1.1 10.1-.3 13.7-4.6 2.8-3.3 4.5-4.3 10.3-5.8 8.4-2.3 12.1-4 20-9.2a121 121 0 0 1 8.5-5.3c1.4-.7 5-2.9 8.1-5 8.8-6 17.6-8.8 20.8-6.8m-93.9 6.2q0 .8-1 .9-.9-.1-1-1.6.1-1.3 1-.9 1 .6 1 1.6m104.5-1.2c1 1.8-1.7 2.3-3.3.7s-1.5-1.6.5-1.6q2 0 2.8.9M207 246.5q-1.2 1.4-1.7 1.1c-.7-.7.7-2.6 1.9-2.6q1 0-.2 1.5m15.5-.5q.4.9-.4 1-1-.1-1.1-1 0-1 .4-1 .6 0 1.1 1m-21.5 1q0 .9-1 1a1 1 0 0 1-1-1q.1-1 1-1t1 1m1 9q.1 1.8 1 2 1 0-.1 2.1-2 3.8-3.2-2.9c-.5-2.4-.3-3.2.8-3.2q1.4.2 1.5 2m81.2 1.2q-1.1 1-1.2.2c0-1.4 1.2-2.6 1.9-1.9q.3.6-.7 1.7m-7.7 11.3a68 68 0 0 0-3.5 9.2c0 2-1.2 1.5-5.4-2.1-3-2.6-3.7-3.7-3.1-5.4.6-2.1 2-2.7 5.8-2.4q1.8.2 3.4-3.6c2.3-5.5 3.3-6.6 5-5 1.1 1.1.7 2.7-2.2 9.3m145.8-2.1c2.9 5.4 3.7 9.2 2.7 12.7-.7 2.4-.5 3.3 1.4 5.2 1.3 1.2 2.9 3.7 3.6 5.5 1.1 2.9 1.1 3.5-.6 5.1a8 8 0 0 1-3.4 1.9c-2.9.3-10.5 1.9-12.1 2.6q-1.6.9-5.2-3.4c-2.8-3.3-4.1-4.1-6.3-3.8-2.6.3-4.8 2.8-2.4 2.8.6 0 3.8 2.9 7 6.4 7.3 7.7 9.8 8.9 18.7 8.4 5.6-.2 6.9 0 7 1.2l.8 6.5c.7 4.9.7 4.9-1 2.7-.9-1.3-1.8-3-1.9-3.9-.2-1.3-1.7-1.7-7.7-1.8-8.4-.2-12.7-1.9-16.1-6.6-2.9-3.9-7.8-6.9-11.2-6.9-1.4 0-2.6-.5-2.6-1q.1-1 1.6-1c3.2 0 .6-2.5-3-2.8-4.1-.4-4.6-2.7-.5-2.8 5.6-.1 6.2-3.4.6-3.4-2.4 0-3.5-.6-4.3-2.4-1-2.2-.9-2.5 1.5-2.9 1.9-.4 3.3.1 5.2 1.9 3.4 3.3 8.5 4 13.3 2 2.1-.9 5.6-1.6 7.7-1.6q8.4.1 5.1-8.6c-1.5-4.1-1.5-4.4.3-6.4 1-1.1 1.6-2.2 1.4-2.4a77 77 0 0 0-11.4-1.6 101 101 0 0 1-11.3-1.5q-1.7-2 7.9-2.8c4.4-.4 7.8-1.2 8.8-2.1 1.9-1.9 3.4-.8 6.4 4.8m-218.4.3c-.1 3.4-.2 3.5-.9 1.3-1.1-3.6-1.1-5 0-5 .6 0 1 1.7.9 3.7m-58 .2q1.7.9-.8 1.6c-1.1.3-2.5.4-3 .1s-1.2 1-1.6 3c-.5 2.7-1 3.4-2.2 2.9-.9-.3-2 0-2.4.7q-.8 1.3-1.7-1.2c-1.8-4.7 7-10.1 11.7-7.1m76.1 8.2q-1.1 1.8-1.7 1.5c-.8-.8.5-3.6 1.7-3.6q1 0 0 2.1m-109.4 4.6c-1 1-1.9-.5-1-1.8q.8-1.7 1.2 0 .3 1.2-.2 1.8m53-.8c2.8 1.1 3.1 1.6 3.2 6.2.1 3.7-.3 5.2-1.5 5.6-.8.3-1.9 0-2.3-.8q-.9-1.1-1.6-.7c-.3.4.8 2.1 2.5 3.8s3.1 3.6 3.1 4.1-1.9.9-4.3.9-4.7.4-5.2.9-2.3.7-3.8.4q-3.2-.4-2.3-2.5.5-2-2.5-4.9c-1.6-1.5-2.9-3.5-2.9-4.2 0-1.3 4-3.7 6.2-3.7.6 0 2-.7 3-1.7 1.7-1.5 1.8-1.5 1.8 0q.1 1.6 1 1.7t0-2.1c-.9-1.5-.8-2.4.1-3.5q1.2-1.3 1.8-1.1zm48.4.1q0 .9-1 1a1 1 0 0 1-1-1q.1-1 1-1t1 1m-63.4 1.5c.2.5-.5 2-1.4 3.3-1.5 1.9-2.5 2.3-5.3 1.9q-4.3-.3-1.2-1.2 2-.7 1.7-1.6-.3-.8 1-.9t1.5-.8q-.5-2.5 1.8-2 1.6.3 1.9 1.3m25.9.5c3.6 1.4 2.2 3-2.6 3-3.2 0-3.9-.3-3.9-2q.1-3.4 6.5-1m199.5 4.5c-.7.8-2.2 1.5-3.4 1.5-1.9 0-1.8-.2.9-2.4 3-2.5 4.7-1.8 2.5.9m-238 .1q0 1.3-1 .9-.9-.6-1-1.6.1-.8 1-.9 1 .1 1 1.6m74.8.2q.2 1.1-1.2 1.2-1.5-.1-1.6-1.6c0-1.7 2.2-1.4 2.8.4m15.9 2.9a680 680 0 0 1 13.7 27.5q1.5 3.8 3.4 3.8c4 0 8.7 7.6 7.8 12.5q-.7 3.2.9 4.5c2.2 1.8 1.9 2.6-2 5-2.5 1.6-4.3 2-6.5 1.5-3.7-.8-3.7-1.4 0-5 1.7-1.6 3-3.5 3-4.2 0-1.7-5-1.7-8.5-.1-2.4 1.1-2.9.9-4.5-1.2a9 9 0 0 1-1.5-6.5c.5-5.3 0-5.8-3.8-3.9-3.2 1.6-3.2 1.6.6-1.7l3.8-3.4-1.6-3.3c-.9-1.8-2.4-3.2-3.4-3.2s-3.2-.5-5-1.1l-3.2-1.1 4.6-2.9c2.5-1.6 4.5-3.3 4.5-3.8 0-1.9-2-2.2-5-.6a9 9 0 0 1-4.8 1.2q-2-.3 1-1.7c3.6-1.7 4.3-3.9 1.6-4.9q-2-.7-1-1.5c2.2-1.3 1.2-3.5-2-4.4l-3.1-.8 3.4-2.2c4.6-2.9 5.4-2.8 7.6 1.5M98 291.2q-.2.9-1.5-.2c-1.3-1.1-1.5-1.7-1.5-2.2q.2-.9 1.5.2c1.3 1.1 1.5 1.7 1.5 2.2m18.4.4q.5 1.3-.4.9-1-.6-1-1.6.2-2 1.4.7m268.6-.7q-.1.8-1.5 1.5-1.4.4-1.5-.9.1-1.4 1.5-1.5c1.4-.1 1.5.4 1.5.9m-244 2.3c0 1.3-2.3.5-2.8-1q-.3-1.1 1.2-.6t1.6 1.6m120.8 0q-.5 1.1-1.6 1.6-1.1.3-.6-1.2c.7-1.8 2.8-2.2 2.2-.4m-82.2 8.4c.1 3.4.4 6.6.8 7.2 1 1.6-.4 6.3-1.8 5.9-.6-.2-1.2-2.4-1.4-5q-.3-4.7-1.5-4.1c-.7.2-2.3-.9-3.6-2.6-2.3-3.1-2.5-6.5-.4-6.5q1.1-.1 1.9-.8c.5-.4 2-.7 3.4-.5 2.4.3 2.5.6 2.6 6.4M207 297q-.1 1.8-1.5 2c-1.4.2-1.5-.9-1.5-2s.7-2 1.5-2 1.5.9 1.5 2m12.7-.4q-.6.5-1.9.1-1.1-.5.6-.6t1.3.5M124 298q0 .9-1 1a1 1 0 0 1-1-1q.1-1 1-1t1 1m256.2 4.2c.9 1.5.9 9.3 0 12.6a7 7 0 0 1-3.2 3.5c-3.4 1.7-3.6 3.9-.5 7.5 2.4 2.9 2.6 3.6 1.9 9.2l-.7 6 4.1 3.7c3.1 3 4 4.6 4 7.2q.3 5.6 3.9 4.4 1.2-.4 1.3 1c.1 1.4-1.4 1.6-4.2 2q-4.3.6-6.5 3.2c-2.8 3.2-2.8 4-.4 6.4 2 2 2 2-2.7 2.6-2.6.4-5.5.9-6.4 1.2-2 .5-2.2-.5-.9-4.1q1-2.5 2.9-1.9c1.6.4 2.2-.5 3.6-4.7 2.5-7.6.4-8.3-3.4-1.2-1.9 3.7-1.9 3.7-2 .9 0-1.5-.6-4.3-1.4-6.2-1.1-2.6-1.4-7.8-1.3-21.7.2-16.5.4-18.3 2-18.6q3.3-.7 0-4.4c-1.3-1.4-1.4-2.1-.5-3q2.6-2.4-.8-5.8c-2-2-1.9-2 .6-3.3 2.3-1.2 3.1-1.1 6.2.4 2 1.1 3.9 2.4 4.4 3.1m-114.1-.5q-1.1 2.6-1.1-1.2 0-3 1.1-1.8c1.1 1.2.8 1.6 0 3m-160.5 0c-1 1-1.9-.5-1-1.8q.7-1.7 1.2 0 .3 1.2-.2 1.8m-32.8 0a22 22 0 0 0-2.8 6.1c-1.9 6-3.5 6.6-2.6 1.1.4-2.4 1.7-5.4 2.8-6.6 2.5-2.7 4.8-3.1 2.6-.6m315.2-1.3q0 .5-1 1.1-.9.4-1-.4.1-1 1-1.1 1 0 1 .4M90 305q0 1.8-.9 2c-.9.2-.7-.9-.4-2q.5-1.8.9-2 .3.2.4 2m3.7.2q-.5 1.1-.6-.6t.5-1.3q.5.6.1 1.9m111.8.3c0 1.7-.6 1.9-3.5 1.7-1.9-.2-3.9-.7-4.4-1.2-1.6-1.6.6-3.1 4.2-2.8 2.9.2 3.7.7 3.7 2.3m-20-.6q.4.9-.5 1.6-.9.4-1-.9 0-2.7 1.5-.7m-48 1q.4.9-.5 1.6-.9.4-1-.9 0-2.7 1.5-.7m17.5-.5q0 .5-1 1.1-.9.4-1-.4.1-1 1-1.1 1 0 1 .4m38 1q0 .5-1 1.1-.9.4-1-.4.1-1 1-1.1 1 0 1 .4m17.3 1.6c2.3 2.7 2.2 3.5-1 5.8l-2.6 1.9 2.1 3.1q3.6 5 1.2 5.2-.9.1-1 1.5.2 2.7 2.8.3c1.2-1.2 1.3-1.1 1.6 1.4q.3 1.2 1.9 1 3.3-.7-.1 3.6c-1.5 1.9-2.2 2.1-4.3 1.3a10 10 0 0 1-4.2-3.5q-1.7-2.4-3.1-2t-2.8-2.3c-1.1-2.3-2-2.9-5.5-3.1-4-.3-4.2-.5-4.8-4.3-.4-2.2-.5-4.2-.3-4.4.1-.2 2.6-1.5 5.3-2.9 4.2-2.1 5.1-2.3 5.3-1 .2.9-.4 2.5-1.4 3.7s.4.1 3.1-2.6c2.7-2.6 5.2-4.7 5.5-4.7q.6.2 2.3 2M78 310.4c-1.4 1.4-2.2.2-1.4-1.8q.7-2 1.5-.4.6 1.3-.1 2.2m-19-.8q-.1 1.3-1 .9-1-.7-.5-1.6 1.4-2 1.5.7m76 .3c0 1-.8 2.5-1.7 3.2q-2 1.9-1-.4c.4-1 .7-2.5.7-3.3q.1-1.3 1-1.4 1 .1 1 1.9m30.5.2c1.1 1.7-1.3 1.7-3-.1s-1.6-1.8.4-1.3c1.2.3 2.4.9 2.6 1.4m92.9.4q-.6 2.4 1.6 5.5a67 67 0 0 1 5.4 25.2l.6 6.7-2.6-.3c-3.7-.4-4.8-2.7-2.2-4.7 2.3-1.8 1.7-3.9-1.2-3.9-1.7 0-1.9-.7-1.7-5.8s-.2-6.5-2.6-9.9c-2.7-3.8-2.8-4.3-1.4-7 .8-1.5 1.7-4 2.1-5.6.3-1.5 1.1-2.7 1.6-2.7s.8 1.1.4 2.5M139 312q0 1.8-.9 2c-1.1 0-2.2-2.6-1.4-3.4 1.2-1.2 2.3-.5 2.3 1.4m37-.5q0 1.4-.9 1.5c-1.3 0-2.2-1.6-1.4-2.4 1.1-1.1 2.3-.6 2.3.9m90.2.7q-1.1 1-1.2.2c0-1.4 1.2-2.6 1.9-1.9q.3.6-.7 1.7m-79.8 1.9c.9 1.7 1.3 3.5 1 4-.9 1.5-3.6 1-5-.9q-2.7-3.3.2-3.2 1.6 0 1 1.5-.4 1.4.5 1.5 1-.1.4-3-1.2-5.8 1.9.1m29.6-1.4q0 1.8 1.1.6c1.6-1.6 6.9.7 6.9 2.9 0 1.9-3.6 2.6-4.2.8-.2-.6-2.4-1.1-5.1-1.2s-4.7-.4-4.7-.6c0-.6 4.4-4.1 5.3-4.2q.6.2.7 1.7M65 313q0 .9-1 1a1 1 0 0 1-1-1q.1-1 1-1t1 1m339.8.5q1 .7 1.2 3.1c0 2.6.1 2.7 4.5 2.1 5.9-.9 7.3-.2 6.7 3-.5 2.5-.5 2.5 4.8 1.8 4.7-.6 5.2-.5 4.8 1.1-.3 1.5-1.2 1.9-4.5 1.6-2.3-.1-4.4.2-4.7.7-1.1 1.7 2.7 3.6 7.2 3.6 4.9 0 6.8 1.9 3 3-7.4 2-9.8 3-9.8 4.2 0 1.5 1 1.6 6.9.2 4.3-.9 8.1-.5 8.1 1 0 .4-3.3 1.5-7.2 2.4a636 636 0 0 0-33 8.2q-1.9.8-1.8-.9c0-.8 2-2.7 4.5-4.2 2.5-1.4 4.3-3 4-3.4-.6-1-4.3-.1-5.1 1.1s-3.4 1.1-3.4-.2c0-.5 2-1.9 4.5-3s4.5-2.4 4.5-2.9q0-3-6 0c-2.2 1.1-4 1.7-4 1.3 0-1.2 3.3-4.3 4.5-4.3 1.5 0 4-2.8 3.3-3.6-.3-.3-2.4.3-4.7 1.2s-4.5 1.3-4.9 1c-.9-.9 3.8-4.5 5.8-4.6 1.7 0 4-1.9 4-3.2s-2.9-.9-7 1.2c-2.2 1.1-4 1.6-4 1.1s2-1.8 4.5-3c4.1-1.9 6-4.1 3.5-4.1q-.9-.1-1-1.6c0-1.3-.8-1.5-3.5-1.2s-3.2.2-2.2-1c1.9-2.3 4.9-3.1 10.2-2.6zM279 314q0 .9-1 1a1 1 0 0 1-1-1q.1-1 1-1t1 1m-188.6 6.2-.8 3.3-.6-3.5q-1-6.2 1.2-4.2 1 1 .2 4.4m374.4-2.6q2 .7 2.2 1.5c0 1.3-2.3 1-4.4-.6q-3.2-2.3 2.2-.9M94 320.5c0 1.4-.4 2.5-1 2.5s-1-1.1-1-2.5.5-2.5 1-2.5 1 1.1 1 2.5m348-1.6c0 1.2-2 2.5-2.7 1.8s.6-2.7 1.8-2.7q.8 0 .9.9m-164.8 1c1.5-.8 2.1-.3 4.1 4.3 1.7 3.9 3.8 6.4 7.8 9.4a40 40 0 0 0 7.2 4.7q1.7.7 1.7 3.5c0 3.2 3 5.2 7.9 5.2 1.6 0 3.4.7 4.1 1.5q1.3 1.6 5.4 1.3l4.1-.3v4.5c0 4.1.2 4.5 2.6 4.8 2.2.3 2.8.9 3.3 4.1.3 2.1 1.9 5.7 3.6 8s2.8 4.6 2.5 5.1c-.4.6-2.3 1-4.5 1-3.4 0-4-.4-5.9-4a39 39 0 0 0-8.8-12.8c-3-1.6-7.8-2.1-9.3-1.1-1.2.8-1 1.4 1.5 3.5 1.7 1.4 4.2 3.2 5.8 4.2 4.4 2.7 4.8 7.2.6 7.2q-1.9-.1-2.9-2.5t-2.5-1.9c-.8.4-2.2.1-3-.6-2-1.7-3.5-.4-3.5 3.1q0 2.9-1.5 2.9-1.4 0-1.5-.8c0-.4-1.2-1.4-2.6-2.3-2-1.2-3.7-1.4-7.7-.8-2.8.5-5.3.6-5.5.4-1.3-1.3 1.3-3.5 6-5.3 4.2-1.6 5.4-2.5 5.6-4.4.6-4.8-6-6.8-12.7-3.7-2.4 1-4.7 1.9-5.1 1.9-1.2 0-3.7-8.7-4.4-15.4l-.7-6 2.1 1.9q5 4.4 2.8-6.1c-1.5-7-1.3-16.3.4-14.6q1.1 1.2 3 .1m172.4 4.1c1.9 0 1.8 1.6-.2 2.4-1.7.7-4.4-.9-4.4-2.6q.1-.9 1.6-.4c.9.3 2.2.6 3 .6m-387 8.7c-3 1.6-5.3.9-3.6-1.1.6-.8 2.2-1.1 3.7-.8l2.6.5zm-9.6.4q0 1.8-1 1.4c-.5-.3-1-1.3-1-2.1s.5-1.4 1-1.4q1 .1 1 2.1m166 2c0 2.4-2.3 2.1-2.8-.4q-.2-1.6 1.2-1.7 1.6.1 1.6 2.1m-142.4 2.6c-1.1 1.1-1.9-.6-1.1-2.4s.8-1.7 1.2 0c.3 1 .2 2.1-.1 2.4m146.8-1.8q.4.9-.9 2.1c-.8.7-1.5 2.7-1.5 4.6s-.5 3.6-1.2 4q-1.2.8-.5-.9c.4-1 .2-2.8-.3-4.1-1.3-3.5 2.6-8.6 4.4-5.7m-19.4 2.2q0 1.8-1 1.4c-.5-.3-1-1.3-1-2.1s.5-1.4 1-1.4q1 .1 1 2.1m25 .4c0 1.7 1.7 2 2.2.4q.5-.8 2.1-.3c1 .3 1.6 1.3 1.3 2q-.3 1.2.5 2c.6.4.8 2 .5 3.7-.6 2.9-.5 2.9 1.2 1.4 4.1-3.7 8.2 1.1 4.9 5.8-1.9 2.5-3.8 1-3.1-2.3l.5-2.7-2 2.3c-2 2.3-4.7 2.1-3.8-.2q.4-1.1-1.5-1.2c-1.2.1-2.3-.5-2.5-1.2q-.3-1 1-1.2 1.8-.3 2.1-1.6c1.1-2.7-.4-3-2.3-.5-1.5 1.9-2.3 2.2-5 1.6s-3.2-1-2.7-3.1c1.2-4.5 6.6-8.6 6.6-4.9m12-.6q-.1.8-1.5 1.5c-1.5.5-2-.5-.8-1.7.9-1 2.3-.9 2.3.2m198 1.1q-.1.9-1.6 1-1.3-.1-.9-1 .6-1 1.6-1 .8 0 .9 1m-370.8 3.5q-.8 2.8-1.5 1.8c-.4-.7-.2-2.1.5-3.2q2.4-4 1 1.4m13.2-1c-.9 1.4-2.1 2.5-2.7 2.5q-.8-.2 1.3-2.5c2.1-2.3 2.5-2.5 2.7-2.5s-.4 1.1-1.3 2.5m129.2 1.2c-1 1-1.9-.5-1-1.8q.8-1.7 1.2 0 .3 1.2-.2 1.8m-106.6.8c0 3-3 7.5-5 7.5q-1.8-.2-2-1.5c-.2-1.3-.4-1.5-1-1.5q-.9.1-1 1.1-.2 1-2 .6-2-.5-5.2 2.4c-5.3 4.6-8.6 5.1-7.3 1q.7-1.9 2.1-1.4T84 350q-.2-2.7 1.5-1c2 1.6 4 .3 2.4-1.6s-.4-3 1.5-1.5c1.6 1.3 5.6-.1 5.6-1.9 0-.5 1.7-1.1 3.8-1.3l4.5-.5q.6 0 .7 1.3m340 .3c0 .5-1.7.9-3.7 1q-3.7.2-5.4 2.1c-.9 1.1-2 1.6-2.5 1.1s-2.7-1-4.9-1.2c-4-.3-4-.3-4 3.1 0 1.9-.6 3.6-1.2 3.8q-1.2.4-1.3-1.9c0-4-1.2-4.9-5.6-4-2.9.6-4 1.3-4.2 3-.2 1.2-.7 2.2-1.2 2.2s-.7-.6-.4-1.4c1-2.6-1.5-2.7-3.2-.1-.9 1.4-2.6 2.5-3.8 2.5-3.1 0-5 1.6-4.3 3.4q.5 1.5-.2 1.6c-.5 0-1.7.3-2.7.7-1.7.6-1.7.5-.1-1.7.9-1.4 1.7-3.2 1.7-4 0-2.4 7.5-5.5 18-7.5 5.2-.9 10.9-2.1 12.5-2.5 4.1-1.1 16.5-1.2 16.5-.2m-260.4 12c.9 2.6 2.6 7 3.9 9.7 2.8 5.9 4.3 11.5 2.7 10-1-1-8.2-18.6-8.2-20 0-.5-.6-1.6-1.4-2.4-.7-.9-1.6-3.2-2-5.1l-.6-3.5 2 3.3a42 42 0 0 1 3.6 8m6.4-5.3c1 1.1 2.3 3.8 3 6s1.6 4.4 2 5 1.1 2.6 1.5 4.5 1.4 4.4 2.1 5.5c1.7 2.3 1.8 3.8.3 3.3-.6-.2-2.1-3.4-3.4-7.1-3.2-8.9-6.6-14.9-8.2-14.3q-1.2.4-1.3-.4.1-1 1.1-1c1.1 0 1-1-.6-5.5l-.7-2 1.3 2c.6 1.1 2 2.9 2.9 4m-56.4-1.3c1 1.8 2.1 4.6 2.5 6.3.4 1.6 1.5 5 2.4 7.4a27 27 0 0 1 1.3 9.5l-.3 5.1-2.8-6c-2.1-4.6-2.7-6.8-2.2-9.4.6-3.1.5-3.3-.9-2.1q-3.4 2.8-1.6-2.9c.7-2.5.6-3.3-.6-3.8-2-.7-1.8-7.3.2-7.3.2 0 1.1 1.5 2 3.2m45 3.5c1.4 3 2.3 6 2.1 6.6-.4 1-6.7-11.2-6.7-12.9s2.5 1.6 4.6 6.3m-35.6-.3q-.1.8-1.5-.8a8 8 0 0 1-1.5-3q.2-.8 1.5.8a8 8 0 0 1 1.5 3m108-3.5c0 1.1-3.9 5.9-4 4.9 0-1.4 2.3-5.8 3.2-5.8q.7 0 .8.9M78.5 351q.4.9-.9 1c-1.3.1-1.8-.5-2.1-1q-.4-1 .9-1 1.8 0 2.1 1m119.5 0c1.9 0 3.4 3.6 1.8 4.6q-.9.4-1.5-1.5-.5-2-2.5-1.8-2 0-2.6-1.2-.5-1.4 1.2-.8c1 .4 2.6.7 3.6.7m-32 3.1q0 1.8-1 1.4c-.5-.3-1-1.5-1-2.6s.5-1.7 1-1.4 1 1.5 1 2.6m268-1.6q-.1 1.4-1.6 1.5-2 .1-.4-1.5 1.2-1.4 1.6-1.5.4.1.4 1.5m-382-.1q0 .5-1 1.1-.9.4-1-.4.1-1 1-1.1 1 0 1 .4m42 1.1q0 1.4-1 1.5-.8-.1-.4-1.5.7-1.4 1-1.5.3.1.4 1.5m130.5.9c1.7 2.5 5.2 4 9.4 4.1 1.3 0 2.6.6 2.8 1.2q.3 1.3-1.6 1.3c-1.1 0-2.5.9-3.1 2q-2.3 4.3-3.4-1.1c-.5-2.7-.8-3-2.1-1.9-2 1.6-3 .6-4.3-4.3-1.2-4.2 0-4.9 2.3-1.3m-48.5 4.8c1.2 3.5 2.6 6.7 3 7.3s2.9 6.4 5.5 13c5 12.8 5.2 13.1 6.1 12.3.3-.3-.3-2.6-1.4-5-2.6-5.7-3.9-11.8-2.2-10.1a21 21 0 0 1 3.1 5l1.9 3.8-.3-3.3c-.4-3.3.6-4.2 2-2a3 3 0 0 0 2.3 1.3q1.4.2 1.8 1.7.2 1.7-1.2 1.8-1.5.1-1.6 1.6-.1 1.4-1.3 1.1-1.3-.6-.9 3.1c.4 2.9.2 3.4-1.1 2.9-.9-.3-2.1.1-2.7.9s-2.3 1.4-3.6 1.4c-1.8 0-2.5-.8-3.3-3.7-.6-2-.8-3.9-.5-4.2.5-.5 1.9 1.3 2.7 3.4q.5.8 1.2.2c.8-.7.4-2.5-2.6-10.7-1.9-5.4-2.6-7.1-5.2-13-4.6-10.1-5.7-13.2-5.1-14.1.9-1.5 1-1.2 3.4 5.3m79-3.7q-1.2 1.4-2.3 1.5-.7-.2.8-2c2.1-2.3 3.5-1.9 1.5.5m9.1.2c.6 1.5.7 4.4.4 6.3l-.7 3.5 2.6-2.4c2.5-2.4 2.7-2.4 4-.6s2.9 10.5 2.1 11.3c-.2.2-4.5 1.4-9.6 2.7-6.6 1.7-9.8 2.1-11.1 1.4-1-.5-2.2-.8-2.6-.5-.4.2-1.8-.2-3.2-1l-2.5-1.3 2.3-.1c1.3 0 3.7-.9 5.3-2.1 2.6-1.9 3.4-2 6-.9s3.3 1.1 4.6-.3c1.4-1.4 1.3-1.7-1.4-3.1-2.6-1.3-3-2-2.5-4.3a17 17 0 0 1 1.8-4.8c.8-1.1 1.4-3 1.4-4.2 0-3.2 1.8-2.9 3.1.4m181.7-.9q.2 1.1-1.2 1.2-1.5-.1-1.6-1.6c0-1.7 2.2-1.4 2.8.4m-229.9 1.8q.6 2.4-1.3.5c-1.9-1.6-2.1-3.4-.3-2.9q1.1.6 1.6 2.4m-60.2 5.9c2.5 4.9 5.3 13.5 4.3 13.5-.5 0-1.8-2.6-2.9-5.8s-2.8-7-3.6-8.5c-.8-1.6-1.5-3.8-1.4-5q-.2-3.2 1 .3zm43.3-2.1c0 2.8-1.7.8-2.5-2.9-.6-2.9-.6-2.9.9-1.1a8 8 0 0 1 1.6 4m-78-1c0 .7 1.1 3.6 2.5 6.4s2.5 6.4 2.4 7.9q0 2.5-.6 1.3l-1.8-4.5c-2-4.5-5.5-13.5-5.5-14.2q.2-.4 1.5.7c1.3 1.1 1.5 1.8 1.5 2.4m-8.1 6.6c0 3.6-.4 8.3-.8 10.5l-.9 4-.2-4c-.3-7-.4-12.9-.2-16.5.4-6.3 2.2-1.1 2.1 6m313.6-7.2c-.8 2.2.4 3.3 2.4 2.2 1.5-.7 2-.4 3 1.7 1.1 2.4 1.3 2.5 3 .9 1.8-1.7 2-1.6 2.6.4 1.1 3.3 4.1 2.1 3.7-1.5-.2-2.7-.1-2.8 1.2-1.2.7.9 1.6 3.5 2 5.7 1 6.3 4.1 4.7 3.9-2-.2-3.4-.2-3.4 1.2 1 .8 2.5 2.1 5.7 3 7.2 1.3 2.2 1.4 3.8.6 8.5-1.1 7.2-3.9 13.3-6.1 13.3-.9 0-2.1.5-2.8 1.2q-1.3 1.5-1.2-1.1c0-2.9-3-2.5-4.6.7q-1 2-1.6 1.6c-.3-.3.1-1.9.9-3.5s1.2-3.6.9-4.4c-1-2.8-3.5-1.5-5.4 2.9-1.6 3.7-2.8 2.7-1.4-1.3 1.2-3.4.8-4.1-2.5-4.1-2 0-2.2-.3-1.3-1.9 2.1-4.1.3-5.6-3.2-2.4-1.7 1.5-1.8 1.5-1.2-1.4q.7-3.1-1-3.6-1.4-.7-1-2.1c.7-1.9-1.4-3-3.1-1.6-.7.6-1.7 2.5-2 4.1s-1.1 2.9-1.6 2.9c-1.2 0-1.2-.5.6-4.7 1.8-4.4 1.9-7.3.2-7.3-1.8 0-3.7 2.1-3.7 4.1q0 1.7-1.2 2.5-1.2 1-.4-3.2c1.3-6.4 1.2-8.9-.3-8.9-.7 0-1.8 1.5-2.5 3.4s-1.6 3.6-2.3 3.8q-1 .3.8-3.6c1-2.2 1.9-4.6 1.9-5.4 0-4.6-4.6-1.2-5.6 4.2-.4 2-1.4 4.1-2.3 4.7-1.3 1-1.4 1.5-.1 4 2.4 4.9 2.4 5-1.2 1.4q-5.5-5.7-4.1-7.4.7-.4 1.8.4c1.9 1.5 3.6-1.2 4-6.2.4-5.4 1.3-5.7 15.8-5.5 8.8.1 10.7.4 10.2 1.5m-379 2.9c-.7 1.7-.8 1.7-1.5-.2-.9-2.4-.2-4.1 1.2-2.7.6.6.7 1.9.3 2.9m123.6 5.5c3.3 8.3 3.7 10.7 1.5 8.9a7 7 0 0 1-1.9-3.4c-.3-1.2-1.4-4.7-2.6-7.7a38 38 0 0 1-2.1-6.4c0-2.4 2.5 1.9 5.1 8.6m265.9-7.8q0 .5-1 1.1-.9.4-1-.4.1-1 1-1.1 1 0 1 .4M86 371.9c0 6.9-.4 12.2-1 12.6q-1 .4-1-11.9c0-7.7.4-12.6 1-12.6s1 4.6 1 11.9m8-8.4c0 3.5-1.3 4.7-2.3 2.1-.7-1.8.3-5.6 1.4-5.6.5 0 .9 1.6.9 3.5m-12.5-.4q-.2 1.2-1.7 1.7c-1.8.3-2.5-1.8-1.1-3.2 1-1 2.8-.1 2.8 1.5m83.6.6a262 262 0 0 1 11 34.6c-.5.5-1.9.7-3.2.5-2.7-.3-4-3.8-1.5-3.8q1.5 0 1.6-.4c0-.3-2.2-7.3-5-15.6-4.8-14.4-5.7-18-4.5-18 .3 0 1 1.2 1.6 2.7m-88.1-.3c0 .8-.4 1.8-1 2.1q-.9.3-1-1.4.1-2 1-2.1 1 .1 1 1.4m25.3 2.6c-.7.8-2.2-2.4-1.6-3.4q.7-.7 1.3 1c.4 1 .6 2.1.3 2.4m46.3-.5c1.5 3.8 2 19 .5 19.9-.4.3-1.1-4-1.3-9.7a75 75 0 0 0-1.4-13.7c.4 0 1.4 1.6 2.2 3.5m12.3.8q0 .7-.9.2c-.5-.3-1-1.6-.9-2.8q-.2-3.1.9-.2c.5 1.1.9 2.4.9 2.8m81.6-1.1q2.2.5-1.2.9c-2.8.5-3.3.2-3.3-1.4q-.1-2.1 1.3-.9c.6.5 2.1 1.2 3.2 1.4m-144.8 2q-.5 1-.5-1.2c0-2.2.2-1.9.5-1.3.2.7.2 1.9 0 2.5m130.8-.9c0 2.6-2 2.5-2.3-.2q-.4-2.4 1-1.9 1.2.6 1.3 2.1m162.5-.8q0 1.4-1 1.5-.9-.1-1-1.5c-.1-1.4.5-1.5 1-1.5q1 .2 1 1.5m-300.4 2.7q.7 2.9 1.1 2c.6-1.7 2.3-1.5 2.3.3 0 .8-.9 3.2-2.1 5.4l-2 3.9 2 3.8c2.2 4.1 2.8 8.4 1.1 8.4-.6 0-1.3-1.3-1.6-2.9-.4-1.7-1.2-3.2-2-3.5-1.1-.4-1.4-2.9-1.4-10.6 0-9.9 1.2-13 2.6-6.8m95.1 4.7q-.4 1.7-2-2.1c-2.4-5.2-2.1-7 .4-2.9 1.1 1.8 1.8 4.1 1.6 5M202 367q0 .9-1 1a1 1 0 0 1-1-1q.1-1 1-1t1 1m33.1 4.5q1.8.7 1.9 1.8l.5 3.7q.8 3.5-.4.2-1.1-2-2.5-2.2c-1.4-.2-1.9-1.4-2.5-3.1-1.4-4-1.3-6.1.1-3.2a6 6 0 0 0 2.9 2.8M361 369c0 .5-1.2 1-2.7 1q-3.2.1-1.3-1c2-1.3 4-1.3 4 0m-239.2 14.5c2.2 6.6 4.8 13.7 5.8 15.8 1.4 2.9 1.5 4 .5 5-1.5 1.5-2.6 0-4.2-5.6a12 12 0 0 0-3-5.5q-1.9-1.6-1.9-5.2c0-1.9-.7-6.2-1.5-9.5-1.7-7-1.9-10.9-.6-8.5.5.8 2.7 6.9 4.9 13.5M105 373.1c0 2.6-3.3 2.2-3.8-.5q-.4-1.7.7-1.2 1 .6 1.1-.4t1-.5c.6.3 1 1.5 1 2.6m-29-.1q0 .9-1 1a1 1 0 0 1-1-1q.1-1 1-1t1 1m128 1.6q0 1.3-1 .9-.9-.6-1-1.6.1-.8 1-.9 1 .1 1 1.6m-43.8 12.1c1.8 3.6.3 4.8-1.6 1.2l-1.7-3.4.4 3c.5 2.7.4 2.8-.8 1.1-.8-1.1-1.3-4.3-1.2-8.3v-6.5l1.9 5.4c1.1 2.9 2.4 6.3 3 7.5m48-9.5q-1.3 1.5-1.2-1.2c.1-2.7.3-2.1 1.2-1.2q1.3 1.2 0 2.4m83.2-1.7q.4 1.4-.8 1.5c-.7 0-1.9-.7-2.6-1.5q-1.6-1.6.8-1.5a3 3 0 0 1 2.6 1.5m102.1 2.6a44 44 0 0 1 11.6 21.2c3.5 11.1 3.5 10.9.7 10.5-1.8-.2-2.5-1.3-3.4-5.3q-2-9.5-5.1-9.5c-1.3 0-1.4.7-.9 3.7 1.7 9.4 1.8 11.3.7 11.3q-1-.2-1.1-2.3c0-2.6-1.6-8.6-2.9-10.6a2 2 0 0 0-2.3-.8c-1.2.4-1.3 1.6-.7 6.4 1.6 10.9-1.5 12.7-4.1 2.3-1.4-5.7-4-9.4-5.5-7.8-.4.3-.1 3.3.5 6.7s.8 6.6.5 7.1c-1.3 2-2.5.9-2.5-2.3 0-4.7-1.8-10.4-3.5-11.1-2.2-.8-2.7.9-2.3 7.4.3 6.7-1.2 8.8-1.8 2.3-.9-10.4-4.8-12.6-5-2.8-.1 3.3-.6 6.1-1.2 6.3q-.9.1-.6-1.5c.2-1 .1-3.8-.4-6.3-.6-3.5-1.2-4.5-2.7-4.5-1.8 0-2-.7-1.7-6.9.2-5.2-.1-7.3-1.4-8.7-1.4-1.6-1.4-1.8.3-2.7 3.7-1.8 19.8-4.9 27-5.1 3.4-.1 4.9.5 7.8 3m-311.8 2.6q-.5 1.3-.5-1.2 0-2.6.5-1.8c.2.7.2 2.1 0 3m47.9 2c.8 1.7 1.4 3.7 1.3 4.5-.1 2-3.8-6.4-3.7-8.7q0-2 .5-.5c.2.8 1.1 2.9 1.9 4.7M231 378q0 .9-.4 1-.6-.1-1.1-1-.4-1 .4-1 1 0 1.1 1m-92.3 3.7q-.5 1.3-.5-1.2 0-2.6.5-1.8c.2.7.2 2.1 0 3m151.9-1c-1 1-1.9-.5-1-1.8q.8-1.7 1.2 0 .3 1.2-.2 1.8m55.1-1.5q-.5 1.1-2.3 1.4c-3.9.2-4.4.4-4.4 2.2 0 1.6-.8 1.8-7 1.6q-10-.3-10-3.5.2-.7 2.8-.4c1.5.3 5-.1 7.7-.9 6.5-1.9 13.8-2.1 13.2-.4m-143.4 2.2q.7 1.4 2.8.9c2.6-.7 2.3 1.4-.5 3.1-1.3.9-2 .7-3.2-.8-1.6-2.2-1.9-4.6-.5-4.6q.8.1 1.4 1.4m72.7.6q0 .9-1 1a1 1 0 0 1-1-1q.1-1 1-1t1 1m76.6 2.5q1.4 2.3.8 3.7-.9 1.4-1.4-1.7-.6-3-2.3-2.7-1.5.2-1.7-.8c0-1.9 3-1 4.6 1.5m58.2-.8q.2 1.3-1.7 1.3c-2.1 0-3.5-1.3-2.4-2.4 1-1 3.6-.3 4.1 1.1m-297.4 9.4c.5 12.6.6 12.8 1.6 10.4a39 39 0 0 0 1.1-9.5l.2-7.5.9 9.4q1.2 13.7-.9 11.8c-.3-.4-1.2-.2-1.9.4-2.4 2-3 .1-3.2-9.8-.2-9.1.5-16 1.4-15 .2.2.6 4.6.8 9.8m193.7-9.1c1.1.6 1.9 2.1 1.9 3.5 0 3.2-1.8 3.2-2.6 0s-2.4-2.2-2.4 1.6c0 1.6-.4 2.9-1 2.9s-1-1.7-1-3.8c0-5.3 1.2-6.3 5.1-4.2M139 386.7q0 3.5-1.1 1c-.5-.9-.7-2.2-.4-2.7q1.5-2.5 1.5 1.7m152-1.7q0 .9-1 1a1 1 0 0 1-1-1q.1-1 1-1t1 1m52.6 1.5c-.3.9-1.1 1.3-1.6 1q-1.1-.7.1-2.1c1.4-1.8 2.4-1.1 1.5 1.1M211 386q-.1.9-1.1 1-.8-.1-.4-1 .6-1 1.1-1 .3 0 .4 1m35-.5c0 .2-2.6 1.2-5.7 2.1-5.1 1.4-22.4 6.8-35.3 11.1-6.7 2.2-13.9 4-19.5 4.8-2.7.4-5.7 1-6.5 1.5-2.4 1.2-11 2-11 1.1 0-.5 1.5-1.2 3.3-1.6s8.4-2.1 14.7-4 14.9-4 19-5c8.9-2.1 17.3-4.2 32.5-8.4 7.8-2.2 8.5-2.3 8.5-1.6m69 .5q-.1.9-1.1 1-.8-.1-.4-1 .6-1 1.1-1 .4 0 .4 1m-61.5 3.7a117 117 0 0 1-37 17.2 178 178 0 0 1-28.2 5c-3.6 0-3.6-.1-1.3-1 1.4-.6 5.9-1.6 10.1-2.4s8.6-1.8 9.7-2.4 3.2-1.1 4.5-1.1c1.4 0 5.7-1.4 9.5-3 3.9-1.7 7.8-3 8.6-3q1.5-.1 1.6-1t1.8-1c.9 0 4-1.2 6.7-2.6q15.3-8.1 17.5-8.3c.3 0-1.3 1.6-3.5 3.6M108 391.2q0 3.8-1 1.6a4 4 0 0 1-.4-3.2q1.4-3.7 1.4 1.6m183.5.8q.2 2.8-.8 2.7c-1.1-.3-1.8-4.6-1-6s1.6.1 1.8 3.3m119.9-2c-1 .4-2.1.6-2.4.3-.8-.7 2.4-2.2 3.4-1.6q.7.7-1 1.3m-207.6 0q2.2-.1.2 1c-2.3 1.5-5 1.2-5-.6q0-1.6 1.6-1c.9.3 2.3.6 3.2.6m-100.4 3.7c-.7 4-2.3 6.7-2.5 4.2-.3-3.3.4-6.4 1.5-7.1 1.7-1.2 1.7-1.1 1 2.9m192.6-1q.1 3.2-1 1.3c-1.3-2-1.3-4 0-4 .6 0 1 1.2 1 2.7m-140.6-.2q.4 1.4-.4 1.5-1-.1-1-1.5c0-1.4.2-1.5.4-1.5s.6.7 1 1.5m24.9 1.2c.6 3.2.3 3.8-1.2 2.8-1.3-.8-1.5-5.5-.2-5.5.5 0 1.1 1.2 1.4 2.7m76.7-.8c-1.2 2.3-2.9 3.5-3.7 2.7-.7-.7 2.6-4.6 3.9-4.6.5 0 .4.9-.2 1.9m51-.9q0 .9-1 1a1 1 0 0 1-1-1q.1-1 1-1t1 1m-229 2.5q-1.2 1.4-2.3 1.5-.7-.2.8-2c2.1-2.3 3.5-1.9 1.5.5m236-1.5q0 .9-.4 1-.5-.1-1.1-1-.4-1 .4-1 1 0 1.1 1m100.5 1.6c1.8.6 1.6.8-1 1.4-3.7.8-4.5.4-4.5-2.1q-.2-2.2 1.8-1zm-249.1.6c.8 3.2.7 4-.3 3.4-1.1-.7-2.1-5.6-1.1-5.6q.7.2 1.4 2.2m174.2.5c-1 1-1.9-.5-1-1.8q.8-1.7 1.2 0 .3 1.2-.2 1.8m-203.1 5.2c-.6 1.9-3.4 3-3.6 1.3l-.3-4.5-.3-3.9 2.5 2.5q2.5 2.5 1.7 4.6m177.5-2.4c0 1.4-.4 2.5-1 2.5-.8 0-.8-2.3-.1-4.8.4-1.2 1.1.3 1.1 2.3m-207.3 6.7c-.2 1.8-.4.6-.4-2.7s.2-4.8.4-3.3.2 4.2 0 6m141.8-7.3c-.3.5.2 1.6 1 2.4.8.9 1.5 2.2 1.5 2.9q-.2 1-2-1-3.2-4-7.5.8-1.6 1.9-4.5 1.4c-2.1-.5-3.1-.1-4.4 1.7-2.5 3.7-2 5.8 1.9 7.5 3.8 1.5 4.8 3 1.5 1.9-2.5-.8-5 1-5 3.6 0 2.3 3.3 4.1 6.8 3.8 1.5-.2 3.8.4 5.1 1.3l2.3 1.6-2.1 1.2q-2 .9-2 .3c.6-3.4-1.9-4.5-4.1-1.8-1 1.2-1 1.8-.1 2.9s.5 1.9-2.2 4c-4.6 3.5-10.7 6-10.7 4.4 0-.7 1.8-2.3 4-3.6 6.6-3.7 6.4-10.7-.3-11.4-2.7-.3-3.2-.7-3.1-2.8.1-3-2.9-5.7-7.4-6.6s-6.2 1-6.6 7.8c-.2 4-.8 6.1-2.4 7.8a10 10 0 0 0-2.2 3.1c0 1.7 4.6 3.9 8.1 3.9 2.8 0 4.1.6 5.3 2.5 1.6 2.4 1.6 2.6-.1 3.2-1 .3-5.8 2.4-10.8 4.5-8.2 3.5-15.8 6.5-32.9 12.7-3.2 1.2-6.1 1.9-6.4 1.6s-.8-2.7-1-5.3c-.3-4.2.1-5.1 3.3-9l3.7-4.2 3.3 2c1.8 1.1 4.4 2 5.8 2 1.6 0 3.1.8 3.7 2 1.2 2.1 4.5 2.7 5.6.9q.4-1.1-.5-2.2c-2.1-2.1-1.3-3.7 1.7-3.1 4.1.8 8.2-2.7 8.2-7.1s-.8-6.3-3.2-7.6c-2.3-1.2-4.8.4-4.8 3 0 1.6-3.8 4.7-4.6 3.8-.3-.2.1-2.8.7-5.6 1.1-5 1-5.4-1.5-8q-6-6.2 1.7-6.1c2.3-.1 6.9-.7 10.2-1.5l13-2.9c7.3-1.6 18.4-6.1 27-10.8 5-2.8 8.1-3.6 7-1.9m42.5.1q0 .9-1 1a1 1 0 0 1-1-1q.1-1 1-1t1 1m16.3 2.3q-.6.7-1.5-.1-.9-1.1-.3-2.2.7-1.4 1.6.1c.4.7.5 1.7.2 2.2m-186.8-.3c.7 2.3-.2 6-1.6 6-.5 0-.9-1.8-.9-4 0-4.2 1.4-5.4 2.5-2m219.8-1.4c.9.9-.4 3.5-1.4 2.8q-.8-.6-.9-2c0-1.4 1.2-1.9 2.3-.8m78.7 2.6q-.2.7-2.2 1c-1.2.2-2.4.9-2.6 1.7-.4 1.1.2 1.3 2.6.8 3.3-.7 4.5.3 5.5 4.2q1.1 5-4.8 5.1c-2.8 0-3.3-.4-4.3-3.8-2.6-9.2-2.6-9.7 1-10.7q4.6-1.4 4.8 1.7m11.5-1.2c-1 1.1-2.3 2-2.8 2q-.8-.2.8-2c1.6-1.8 2.3-2 2.8-2q.8.2-.8 2m-269.7.7c.5 1.8-1.9 1.6-4.3-.3-1.9-1.5-1.9-1.5.9-1.2 1.6.2 3.1.9 3.4 1.5m130.6 1.4q-.6.8-1.5.3t-.3-1.5q.6-.8 1.5-.3t.3 1.5m61.9 13.3c-.9 3.8-2.3 7-3 7.3-2.4.9-2.5-.4-.3-4.8 1.9-3.6 2.1-5.2 1.6-10.8l-.6-6.6 1.9 4.1c1.9 3.9 1.9 4.3.4 10.8m104.7-14q0 .6-1 1.1-.9.4-1-.4.1-1 1-1.1 1 0 1 .4m-143 3.1c0 1.7-.2 1.8-2.4.9-2.3-.9-2-2.4.4-2.4q1.8.2 2 1.5m25.3 1q.5 1.4-.3 2-1 .4-1-1.4.1-3.7 1.3-.6m93.2 1.5q-1.7 1.8-2.8 2-.6-.2 1.4-2 4.8-3.7 1.4 0M246 408.6c0 1.4-.4 2.3-1 1.9s-1-1.5-1-2.6q.1-1.7 1-1.9c.6 0 1 1.2 1 2.6m42 .5q-.1.8-1.5.9c-1.5 0-2-1.2-.9-2.3.8-.8 2.4.1 2.4 1.4m-141-.3c0 1.3-1.2 2.2-2.2 1.6s-.1-2.4 1.3-2.4q.8.1.9.8m176.5.2q.4.9-.4 1-1-.1-1.1-1 0-1 .4-1t1.1 1m-27.5 1q1.9 1.1-1.2 1c-1.5 0-3-.5-3.3-1-.8-1.3 2.5-1.3 4.5 0m-134.9 1.4 3.3 1.4-5.8.7c-5.6.7-6.6 1.3-10 6-1.3 1.7-1.5 1.8-2.1.4-.8-2.1 4.6-7.9 7.3-7.9 1.2 0 2.4-.5 2.7-1 .8-1.3.6-1.3 4.6.4M131 413q0 2-2 2c-1.8 0-1.9-.3-1-2q1-1.8 2-2 1 .2 1 2m-4.5-.1c.3.5-.3 1.7-1.2 2.7-1.7 1.7-1.8 1.7-2.1-.6s-.5-2.3-1.8.9c-.7 1.8-1.8 3-2.3 2.7q-.9-.5-1.6.4-.6.9-1.6 1-.8-.2.3-1.9 1.3-1.8 2.2-1.8t1.4-2.1c.3-1.7 1-2.2 3.2-2.2 1.6 0 3.1.4 3.5.9m302.1 2.9c-1.8 1.8-3.1 1-2.3-1.2q.7-1.5 2.2-.9c1.5.5 1.5.7.1 2.1M302 423.3c0 5.4.4 7.5 2 9.4 2.2 2.8 2.6 8.5 1 12.7-.5 1.4-4.5 5.9-8.9 10.2-8.2 7.8-10.5 11.9-9.4 16.6.3 1.3-.6 0-2.1-2.7a24 24 0 0 1-2.6-7.1c0-2.5 4.9-10.4 8.1-13a36 36 0 0 0 5.4-5.9c2.7-3.6 3-4.7 3.1-12.2.1-4.5.5-10.3.9-12.9 1-6.7 2.5-3.7 2.5 4.9m-51.5-4.2c.9 5.1-.9 7.6-2.5 3.5-1.2-3.1-1.3-6-.3-6.9q2-2.4 2.8 3.4m-70-1.1c-2.3 2.6-2.5 9.4-.3 11.7 1.6 1.6 1.6 1.8-1 3.3l-2.7 1.7-4.2-6.5a28 28 0 0 1-4.3-8.8c0-2.1.6-2.3 5.3-2.7l7.1-.5c1.8-.2 1.8-.1.1 1.8m-68.5 3.2c0 1-8.2 6.8-9.7 6.8-2 0-2.8-4.9-1.1-6.7 1.4-1.3 1.5-1.2 1.1 1.4q-.7 3.2.7 1.6c.7-.6 1.9-.9 2.6-.6q1.4.3 3.1-2.5c1.6-2.7 3.2-2.7 3.3 0m107.4-1.5c.8 1.9-.7 3.8-2.2 2.9-1.1-.7-.4-4.6.8-4.6q.8.2 1.4 1.7m-82.4 1.7c-.1 1.6-4.8 4.8-6 4.1-.6-.3-1-1.7-1-3 0-2 .5-2.3 3.5-2.2 1.9.1 3.5.6 3.5 1.1m4 .6c.9 1.6.8 1.8-.5 1.4q-1.4-.7-1.5-2 0-3 2 .6m295.8-.8c1.4 1.4 1.6 2.8.2 2.8q-1-.2-2-2c-1.2-2.2-.1-2.7 1.8-.8m23.1 4.5 1.7 6.5q.4 1.6-.4 1.8c-.8.2-1.4-2.1-2-4.8l-1.8-7.1q-.7-2.4.3-1.8c.6.4 1.6 2.8 2.2 5.4m-334.8 23.2q.3 1.2-.7 1.8-2.4.9-2.4-15.1c0-14.9 1.4-15.6 2.1-1.1.3 7.1.7 13.6 1 14.4m42.5-18.5c3.5 6 4.2 10.5 1.7 11.4q-1.2.3-1.3-2.3c0-1.4-.9-3.8-2.1-5.4-2.4-3.3-4.9-10.2-4.1-11.5q.6-.8 1.4.5zm18.9-6.4c1 1.1 1.5 2.6 1.1 3.6-.6 1.5-.8 1.5-2.6-.1-2-1.8-2.8-5.5-1.2-5.5.5 0 1.7.9 2.7 2m264.6-1c2.4 1.3 2.7 5.5.3 4.6l-2-.6q-.5 0 .1-.9.4-.9-.5-1.6c-1.1-.7-1.4-2.5-.4-2.5q.6.1 2.5 1m-322.5 6c.2 2.2-.1 4-.6 4s-1-2.1-1-4.7c0-5.5 1.1-5.1 1.6.7m153.1 2c-.6 3.6-1.5 6.8-2 7.1q-.9.8-.4 2.3c.8 1.9 5.7 2.1 7.7.3q1.8-1.6 0 .6c-1.8 2.4-6.8 5-8.4 4.4-.7-.3-1.6-2.5-1.9-4.9-.5-3.6-.1-5.3 2.5-10.5a53 53 0 0 1 3.4-6c.1.1-.3 3.1-.9 6.7m150.4-5.7c-.1 1.2-1.5.9-1.9-.4q-.4-1 .8-.8 1 .5 1.1 1.2m-203.4 4.1q-.7 1.5-1.7 1.6c-1.1 0-1.4-3.3-.3-4.4 1.1-1 2.6 1.1 2 2.8m-108.8 13.8c.1 3.8-.3 6.8-.8 6.8-1.7 0-2.8-18-1.4-21.7 1-2.3 2.1 5.4 2.2 14.9m25.6-15.2q.4.9-.4 1-1-.1-1.1-1 0-1 .4-1 .6 0 1.1 1m-30.5 8.7c0 6.7-1.3 8.4-2.4 3.2-.8-4.2-.8-10.4.1-11.2 1.3-1.4 2.3 1.9 2.3 8m342-6.6q0 1.8-1 1.4c-.5-.3-1-1.3-1-2.1s.5-1.4 1-1.4q1 .1 1 2.1m-347 4.1c0 3.9-.1 4.1-1.6 2.6q-1.6-1.7-1-4.2c1-4 2.6-3.1 2.6 1.6m326.5-1.2c.8 1.3-.5 1.3-2.5 0q-2-1.1.2-1c.9 0 2 .4 2.3 1m-290.9 4.5c.4 1.5.1 3.2-.7 4.1s-1.2 2.8-1.1 4.3c.2 2.1-.6 3.4-3.5 5.7-6 4.8-7.7 5.5-12 4.6l-3.8-.8 5.8-1.3c5.7-1.2 10.7-4.8 10.7-7.5 0-.7-1.1-1.8-2.5-2.4-3.3-1.5-3.2-3.1.3-2.9 2.3.2 2.9-.3 3.7-3.1q1.7-5.8 3.1-.7m53.1.2q-1.5 1.4-2.8.8-1.4-.8.6-2.1c2.3-1.7 4.2-.6 2.2 1.3m-15.7 1.4q0 .9-1 .4c-.5-.3-1-1.1-1-1.6q.1-.9 1-.4a2 2 0 0 1 1 1.6m217.4 2.8c2.3 1.6 5.6 4.7 7.1 6.8q2.5 3.3 1.3 2.5c-1.4-1.1-2.1-1.1-4.3.4a13 13 0 0 0-3.9 4.2c-2.1 4-2.6 1.1-.5-3.2 1-2.2 1.7-4.1 1.5-4.4-1-.9-4.4 1-5.4 3.1q-1.2 2.3-1.1.6c-.1-.9.6-2.2 1.4-2.9 2-1.7 1.9-3.8-.2-4.2-1.7-.3-2.7-5.8-1-5.8a21 21 0 0 1 5.1 2.9m-242.2 1.2c-.3 2.5-4.7 6.8-7.1 6.9q-1.5 0 .9-2.5c1.3-1.4 3-2.5 3.7-2.5q1.3 0 .7-2.6-.8-2.8.7-2.2c.8.3 1.3 1.6 1.1 2.9M115 447q0 .9-.4 1-.6-.1-1.1-1-.4-1 .4-1 1 0 1.1 1m34 4q0 .9-1 1a1 1 0 0 1-1-1q.1-1 1-1t1 1m157.6 1.1c-.1 2.1 1.1 3.2 4.7 4.3 1.4.5 1.6 1 .7 2.5-1.4 2.7-.2 5.4 5.9 13.4 2.8 3.6 5.1 7 5.1 7.4 0 1.1 4.7 5 10.5 8.7a33 33 0 0 1 10.2 11.1 46 46 0 0 1 6.5 12.3c1.7 1.7 4.8 1.5 4.8-.4q0-1.6 2.7-1.2c2.3.3 2.9 1 4.3 5.7 1.2 4.3 2.6 6.3 6.7 10s5 5 4.2 6.3-.3 2.2 2.1 3.9c2.9 2.2 2.9 2.3.8 3.3-2.5 1.3-2.6 2.9-.1 3.6 3.6 1 8.8 4.3 7.5 4.8-.7.2-2.1-.3-3.1-1.2-2.8-2.5-10.2-3.1-14.3-1.2-3.5 1.7-3.6 1.7-7.4-.9-2.1-1.4-4.7-2.5-5.9-2.3-1.8.3-2 .9-1.7 6 .4 6.6-.8 7.4-5.9 3.7-5.6-4-8.9-11.3-12.4-27.9-.9-4.1-3-10.1-4.6-13.4q-3.1-5.9-2.4-8.3c.5-2.1-.4-3.5-5.8-8.9-6.3-6.3-6.4-6.4-11.9-6.4-4.2 0-6.2.5-7.9 2.1l-2.4 2 5.6-.6c5.4-.6 5.9-.4 9.5 2.7 5.2 4.4 5.6 5.1 3.9 6.8-1.3 1.2-1.2 1.7.9 4a54 54 0 0 1 9 17.2c-.3.5-1.4.8-2.3.6-1.7-.3-2.1.1-2.1 2.1 0 .5 1.4 1.4 3 2.1s3 1.7 3 2.2q-.2.9-1.7.3c-7.6-3.2-8.7-.1-1.3 3.6 2.7 1.3 5 2.7 5 3.1 0 1.2-.5 1-4.9-1.3q-5.9-2.9-6.1.1c0 .5 1.8 1.9 4 3.1 4.6 2.6 5.5 4.7 1 2.4a14 14 0 0 0-5-1.5c-3.9 0-2 2.8 3.4 5 3 1.2 6.2 3 7.2 4.1 1.3 1.5.4 1.3-4.2-1-8.2-4-10.4-4.6-10.4-2.7 0 .9 1.9 2.5 4.2 3.7 9 4.6 17.2 10.9 14.2 10.9-.4 0-3.9-2-7.8-4.5-8-5-13.6-6.7-13.6-4.3 0 .9 2.8 2.9 6.3 4.6 3.8 1.9 7.6 4.7 9.5 7.1 3.6 4.4 2.8 6.5-.9 2.5a70 70 0 0 0-18.6-10.4c-3.3 0-.7 3.3 4.6 6 3.3 1.6 6.2 3.4 6.6 4 .9 1.4.5 1.3-4-1a20 20 0 0 0-5.2-2c-2.6 0-1.2 2.9 2.1 4.5 1.8.9 4.6 3 6.2 4.7l2.9 3.2-3.8-2.2a18 18 0 0 0-7.1-2.2c-1.9 0-3.9-.7-4.7-1.6-2.6-3.2-9.3-5.7-15.9-6l-6.6-.3c-.1-.1.3-2 .7-4.4a272 272 0 0 0 2.4-15.2c2.7-20 7.7-38.8 11.1-41.5.7-.7 3-1 5.1-.8 2.9.2 3.8-.1 4.1-1.4.7-3.4-3.4-4.1-10.8-1.9-11.2 3.4-12 2.9-9.1-5.5 1-3.1 1.6-6.5 1.4-7.5q-.7-2.1 1.1-1.3c2.4.9 6.2-2 9.1-7.1 2.5-4.1 2.6-4.8 1.7-10.7-1-6.2-1-6.3 2.1-9.6 3.6-3.8 4.4-4 4.3-1.1m110.4.4q0 1.4-1 1.5-.9-.1-1-1.5c-.1-1.4.5-1.5 1-1.5q1 .1 1 1.5m-10.8 3.7q-1.1 1-1.2.2 0-1 .7-1.7t1.2-.2q.3.6-.7 1.7m-298.3 1.5q0 1-.9 2.8-1 2.8-.9-.8c-.1-1.5.4-2.7.9-2.7q1 0 .9.7m8.2 2.5a14 14 0 0 0-.4 5.5q.4 3.2-.6 3.3c-1.2 0-1.6-9.2-.4-10.3 1.4-1.5 2.2-.6 1.4 1.5m294.9-1.5c0 1.4-1.9 3.8-2.5 3.2-.8-.8.5-3.9 1.6-3.9q.8 0 .9.7m-48 5.9c0 2.5-5.7 9.4-7.8 9.4-1.3 0-2.4-6.2-1.3-7.3.5-.5 2.2-1.1 3.8-1.3a6 6 0 0 0 3.8-1.8c1.3-2.1 1.5-2 1.5 1m-67.5 6.3c0 3.1-2.1 3.8-3.5 1.1-1.3-2.4-.5-4.2 1.8-3.8q1.6.4 1.7 2.7m110.2.3q-.5 1.1-.6-.6t.5-1.3q.5.6.1 1.9M109 482.6q0 1.3-1 1.4-.9-.1-1-2.1.1-1.7 1-1.4c.6.3 1 1.3 1 2.1m375.6-1.1c1.3 1.2 1.2 1.5-.5 2.5-1.1.5-3.2 1-4.7 1h-2.7l2.3-2.5c2.7-2.9 3.6-3.1 5.6-1m-6.9 11.7q-.5 1.1-.6-.6t.5-1.3q.5.6.1 1.9m-81.2 2.7c5 3.3 8.6 10 7.9 14.5-.9 4.9-2.5 8.6-3.9 8.6-3.5 0-7.5-1.4-7.5-2.6q0-1.5 2.4-.8c2.9.7 3.2.2 4.1-5.7l.7-4.6-3.7-.7q-7.2-1.3-6.1 4.7c.5 2.3 0 3.4-2.6 5.7l-3.2 3 2.2 2.3c1.2 1.3 1.9 2.7 1.5 3-1.1 1.2-5.3.8-8.2-.8-5.4-2.8-11.2-11.9-6.3-10 8.6 3.4 15.5-2.2 10.4-8.5-1.5-1.8-2.1-2-4.6-1.1-1.5.6-3 2-3.3 3.1-.6 2.3-2.6 2.6-4.3.6-1.8-2.3.8-7 4.2-7.4 1.4-.2 4.1-1.8 6-3.6 2.8-2.8 3.9-3.3 6.8-2.9 1.9.3 5.3 1.7 7.5 3.2m73.5-2.6c0 .7-.9 1.8-2 2.5s-2 1.9-2 2.7.9 2 2 2.7c2.8 1.8 2.5 2.6-1.4 4.2-2.8 1.2-3.3 1.8-2.9 4 .6 2.8 3.2 4.1 6.6 3.1q2.6-1 1 .6-3.4 3.7 2.5 6.8c3.2 1.7 3.5 2 1.7 2.6-6.4 2.1-6.2 3.2 1.5 7.5 3.5 2 6.9 4.8 7.7 6.3q1.5 2.8 6.9 5.2c2.9 1.3 5.4 2.8 5.4 3.3 0 1.3-4.2 4.9-6.8 5.7-1.8.5-3.3 0-6-2.2q-12-9.7-18.3-4.3l-2.4 2 4.4 3.9c4.3 3.8 4.4 4 3.1 7-1.5 3.8-.8 5.8 2.7 7.2 2.6 1 2.6 1 .7 2.8a10 10 0 0 1-4.9 2.5c-2.9.6-3.1.3-5.8-5.5-2.9-6.5-6.4-8.9-12.6-8.9q-3 0-4.1-2c-1.3-2.4-.6-4 1.7-4 2.6 0 8.4-5 9.9-8.6.8-1.8 1.4-6.5 1.4-10.3 0-6.9-.1-7.1-5-13-5.4-6.5-5.7-7.1-3.6-7.1 2.7 0 6.6-4.1 6.6-7 0-4.5 6.1-10.7 10.8-10.9q1 0 1.2 1.2M70 494q-.1.9-1.1 1-.8-.1-.4-1t1.1-1q.3 0 .4 1m-16.6 4c4.6 0 5.3.4 9.7 4.7 2.6 2.7 6.2 6.1 8 7.7l3.4 2.9-3.9.9c-3.3.7-4.9.4-10.4-2.2a53 53 0 0 1-16.9-11.9c-3.1-3.6-2.9-4 1.5-3 2 .5 5.9.9 8.6.9m439.6 2.9c0 1.3-2.7 2.1-7.1 2.1q-5.6 0-3.2-2.3c1-1 10.3-.8 10.3.2m-473 6.2q0 .9-1 .4t-1-1.6q.1-.9 1-.4a2 2 0 0 1 1 1.6m12.7 3.8c-1.2 2.8-1.5 3-2.6 1.7s-.9-2 1-4q4.3-4.4 1.6 2.3m450.8-1.9q.4.9-.4 1-1-.1-1.1-1 0-1 .4-1t1.1 1m-31.1 11.4c2.7 5.5 2.5 12.4-.4 16.4-2.6 3.5-4.7 4.4-3 1.3 1.3-2.4 1.3-5.1.1-5.1-2.5 0-8 4.7-8.1 6.7 0 2.1-.5 2.3-4.7 2.3-4.7 0-4.9-.1-7.5-4.9q-5.8-10.4 1-3.2l3.7 4.2 3.5-1.7c4.6-2.2 4.5-2.1 3.1-3.8-.9-1.1-.9-1.9 0-3.4 1-1.6.8-2.3-1-4.1q-3.9-4 1.8-4.1c1.6 0 3.7-1 5.1-2.5 3-3.2 4-2.9 6.4 1.9m-426.5.8q0 .8-.8.8c-1.2 0-2.2-3-1.4-4.3.6-1 2 1.3 2.2 3.5m9.3 1.5-.6 2.8-.6-2.5c-.7-2.7-.3-4.3.9-3.5.5.2.6 1.7.3 3.2m24.2 3.7c-.6 2.5-2.4 3.7-2.4 1.5 0-1.5 2.1-5.2 2.6-4.6q.4.6-.2 3.1m21.2 1.3q-.7.6-1.6-.7c-1.6-2.5-1.1-3.5.7-1.7.9.9 1.3 2 .9 2.4M432 525c-2 1.3-3.3 1.3-2.5 0 .3-.6 1.4-1 2.3-1q2.2-.1.2 1m-388.1 6.3q0 .7-.9.2c-.5-.3-1-1.6-.9-2.8q-.1-3.1.9-.2c.5 1.1.9 2.4.9 2.8m4.1-.8q0 1.3-1 1.5-.9-.2-1-1.5c-.1-1.3.5-1.5 1-1.5q1 .2 1 1.5m10.7 13.7c0 9.3-.1 10-1.3 7.2-.7-1.7-1.3-6.4-1.4-10.5-.2-9.5-.2-9.3 1.3-8.1.9.8 1.3 4.3 1.4 11.4m-5.7-8q0 2.3-1.1 1.1c-.6-.6-.8-1.6-.5-2.2q1.6-2.5 1.6 1.1m-3.7 2.1c-.2 4.5-.3 4.8-1.3 4.2-1.3-.8-.8-7.6.5-7.2.5.2.9 1.5.8 3M63 537q0 .9-1 1a1 1 0 0 1-1-1q.1-1 1-1t1 1m11 2.7q.1 3.2-1 1.3c-1.3-2-1.3-4 0-4 .6 0 1 1.2 1 2.7m-5.4 3.1c-1.1 1-1.5-.4-.8-2.8l.7-2.5.3 2.3c.2 1.3.1 2.6-.2 3m-15.9.9q-.5 1.3-.5-1.7c0-3 .2-2.7.5-1.8s.2 2.6 0 3.5m25-2.5q-.5 1.1-.6-.6t.5-1.3c.3.3.4 1.2.1 1.9m-15.1 7.6c-1.2 1.2-1.8-.8-1-3.5l.8-2.8.4 2.8c.2 1.6.1 3.1-.2 3.5m11.1-3.6q-.5 1.1-.6-.6t.5-1.3c.3.3.4 1.2.1 1.9M473 547q0 2-3 0-2-1.1.8-1 2 0 2.2 1m-421.6 4.6q1.4 3.5-.8 3.4c-1.6 0-2.9-2.7-2-4.1s2.1-1.1 2.8.7m345.6.6q6.5 4.4-1.2 4.3c-4.4 0-6.6-1.9-5.5-4.9.9-2.2 2.8-2 6.7.6m-371.2 2c.2 1-.6 3-1.7 4.4a17 17 0 0 0-2.7 6.3l-1.1 5.6c-.6 1.9-.6 1.9-1.4-.3q-.9-2-1.9-2.2c-1.6 0-1.2 1.8 1 4 1.7 1.7 1.9 2.8 1.5 5.8-1.1 6-1.6 7.2-3.1 7.2q-1.3.2-1.4 1.5t1.5.9c1.2-.5 1.5.2 1.5 3 0 3.7-1.3 4.8-2.4 2.1-.3-.8-1.7-2-3.1-2.5q-2.3-1-2.5-2-.1-.9-1.6-1-1.3 0-.9-1c.3-.5 1.3-4.8 2.1-9.5 2-11.6 2.9-13.8 5.3-13 2.6.8 3.1-.4 2.2-4.8-.8-3.1-.6-3.8 1.3-5.1 2.7-2 7-1.6 7.4.6m106.7-.3q.4.9-.5 1.6-.9.4-1-.9 0-2.7 1.5-.7m243.5 2.3c0 3.4 2.4 6.8 4.9 6.8.8 0 2.5-1.2 3.6-2.6l2.1-2.6 5.7 1.8c5.7 1.8 7.6 4.3 3.5 4.5-2.9.2-2.7.2-6.5-1.3-2.9-1.1-3.5-1-5.7 1.1-1.4 1.3-2.3 2.7-2.1 3.1.8 1.2-2.2 3.1-6.1 4-3 .7-4.3.4-7-1.3q-7.7-5 .1-4.2c4.9.5 5.5-.3 3.4-4.9-1.6-3.4-.4-7.6 2.1-7.6 1.6 0 2 .7 2 3.2M63.3 556q.4 1.8-.4 2c-.8.2-.9-.9-.9-2s.2-2 .4-2 .6.9.9 2m302 0a7 7 0 0 1-1.9 3.1q-1.5 1.5-1.4-.8c0-1.9 1.7-4.3 3.1-4.3q.6.2.2 2m112.9 2.5c.3 1.4.2 2.8-.2 3-1.2.8-3.3-2.3-2.6-4 .8-2.3 2.3-1.8 2.8 1m-410.3 1.7c0 3.1-.1 3.1-1 1-.5-1.3-.7-2.8-.3-3.3q1.5-2.5 1.3 2.3m427.4.5c.3.5-.7 2.3-2.3 4.1l-2.7 3.3-3.7-2.2c-4.1-2.4-4.8-4.2-1.2-3.3 1.4.3 3.6-.1 5.3-1 3.2-1.7 4-1.9 4.6-.9M140 563q-.1.9-1.1 1-.8-.1-.4-1 .6-1 1.1-1 .3 0 .4 1m147.4-.4c2.4.9 1.9 2.4-.7 2.4-1.3 0-2.7.3-3 .7-1.2 1.1 1.3 3.1 3.2 2.6 1-.3 3.2.2 4.9 1.1 4.2 2.2 5.5.1 1.8-3.1q-4.7-3.9 2.6-.9c4.6 2 9.8 7.9 12.6 14.6 1.3 3 3.5 7.9 5 10.8 2.8 5.9 6.6 9.2 8.4 7.4q1.2-1-1.6-4.2c-1.4-1.7-2.6-3.9-2.6-4.8q-.1-2 2 .8a11 11 0 0 1 2 3.2q.1.8 1.8.8t2.7-3.2c1.2-3.7 3.5-5 3.5-1.9 0 4 3.7 3.8 12.7-.7 2.5-1.2 3.5-1.4 4.4-.5s.6 1.9-1.2 4.1a47 47 0 0 0-4.1 6.1c-1.4 2.5-2.2 3.1-3.8 2.6-1.1-.4-3.4.1-5.2.9-2.9 1.5-3.3 1.5-5-.1-1.6-1.4-2.3-1.5-5.8-.3-3.9 1.3-4.2 1.2-7-1.5a44 44 0 0 1-6.5-11.1c-4.6-10.8-7.3-15.4-9.1-15.4-2.4 0-2.7 2.8-.6 5.8 1.1 1.5 3.3 5.9 4.8 9.7 1.6 3.9 4.5 8.9 6.7 11.2 4.5 4.9 4.6 7 .3 4.8-1.6-.9-3.5-1.4-4.2-1.1s-1.8-.1-2.4-.9-1.8-1.1-2.7-.8c-1.2.5-1.4 1.6-1 4.7l.6 4.1-5.7 1.8a32 32 0 0 1-10.7 1.5c-4.3-.3-5-.6-4.8-2.3a35 35 0 0 0-4.6-13.5q-3.6.3-2.6 5.1.6 3-.1 2.6a41 41 0 0 1-2.7-16.5c.5-2.9.3-3.2-2-3.2q-5.9 0-3.1-8.4t2.9-.9c0 3 .4 3.8 1.8 3.8s2.4-1.6 3.8-6c2.3-6.8 2.9-7.5 8.4-10.4 4.6-2.4 3.9-2.3 5.9-1.5m-218.7 3.6q-.5 1.1-.6-.6t.5-1.3c.3.3.4 1.2.1 1.9m61.3.5q0 3.5-1.1 1c-.5-.9-.7-2.2-.4-2.7q1.5-2.5 1.5 1.7m-40.8 1.8c.6 2.8-1.9 6.8-5.4 8.6-1.9 1-2 .9-1.3-.7.4-1.1.7-3.1.6-4.7-.1-2.3.3-2.7 2.5-2.7 2.1 0 2.4-.3 1.9-2.1q-.7-2 .3-1.5c.5.3 1.2 1.7 1.4 3.1m48.9 7.5c3.2 7.9 3.4 9.3 2.2 10.8q-1.8 2.5-.8-.5.6-2.2-2.3-7.5c-3.1-5.6-4.9-11.8-3.5-11.8.5 0 2.5 4.1 4.4 9m254.9-4.4c2.4 2 2.8 2.9 1.8 3.5a29 29 0 0 1-13.1.2c-1-1 4.4-6.3 6.4-6.3 1 0 3.2 1.2 4.9 2.6m-359.5 7.6a95 95 0 0 1-4.5 24.2c-1.2 1.2-2.3-7.4-1.6-12.6l.9-10.7c.2-4.8.8-6.7 2.2-7.7 1-.8 2.3-1.4 2.8-1.4s.5 3.7.2 8.2m99.6-2.1c.9 2.7 1.3 4.9.9 4.9-.8 0-4-7.9-4-10 0-2.4 1.4 0 3.1 5.1m351.7-4.4c.5 1.8-2.3 1.6-3.9-.3-1.1-1.4-1-1.5 1.1-1.2 1.3.1 2.5.9 2.8 1.5M127 576.4q-.2.8-1.5-.8a8 8 0 0 1-1.5-3q.2-.8 1.5.8a8 8 0 0 1 1.5 3m190.6-1.7q6.3 4.1 3.6 4.3c-1.7 0-9.6-4.6-10-5.8-.6-2 1.8-1.4 6.4 1.5m140.6 3.5c-.6 2.4-2.1 4.2-5.7 6.5-5.3 3.5-7.4 6.4-7.5 10.2 0 2-.2 2.1-1.5 1.1-3.9-3.2.1-17.1 4.3-15.2.9.4 3 .7 4.7.7 2.5 0 3-.5 3.5-3.1.4-1.7 1.1-3.7 1.5-4.4 1.3-2.1 1.7.3.7 4.2m-312.6 3.3c.7 2.7.6 2.9-.9 1.6-1-.7-1.7-2.5-1.7-3.9 0-3.3 1.6-1.8 2.6 2.3m9.7 5.1c-.5 1.4-4.1 2.9-5 2.1-.2-.3.1-1.6.8-2.9s1.2-2.7 1.1-3.2c-.2-.4.3-1.5 1-2.3 1.1-1.4 1.4-1.1 1.9 1.7.4 1.8.5 3.9.2 4.6m313.4-5.8c-1.2 1.3-1.4 2.6-.8 5.5.5 2 .6 3.7.2 3.7-1.3 0-3.1-2.4-3.1-4.3 0-2 3-6.6 4.4-6.7q.7.1-.7 1.8m-150.5 1.9c1 .9 1.8 2.3 1.8 3.1q.2 1.9-2.5-.8c-3.8-3.5-3.1-5.8.7-2.3m159.5 1.6c.9 1.9.7 2.6-1.3 4.4l-2.3 2.1.5-2.8c.4-1.5.1-3.1-.5-3.4q-1-.8-.6-1.7c1.1-1.6 3.2-1 4.2 1.4m-344.2 1.6c-.9 1.6-2.5.3-1.8-1.5q.6-1.5 1.5-.6c.9.9.7 1.5.3 2.1M458 591q0 .9-1 1a1 1 0 0 1-1-1q.1-1 1-1t1 1m5.3 4.6c.3.3.1 1.6-.4 2.8a9 9 0 0 0-.2 5.5c.7 2.7 2 3.9 6.8 6.5q6.2 3.1 6.3 5.4.6 2.4-2 2.3c-3.6.2-9.2-.2-10.8-.7-2.2-.6-6-6.7-6.6-10.5-1-6.2 3.9-14.2 6.9-11.3m-139 11.3c-.7 1-.9 2.8-.6 4q.6 2.2-1 2.1c-2.1 0-3.2-1.9-1.8-3.3.6-.6 1.1-2.1 1.1-3.2 0-2.7 1.1-3.8 2.4-2.5q1 1-.1 2.9M33 609.2c-3.6 2.9-4.6 2.1-1.4-1.1 1.6-1.6 3.1-2.5 3.3-1.9s-.6 2-1.9 3m300.4-2c2 2.8 2 4.7 0 8.6-3.2 6.6-4.7 4.9-3.8-4.3.4-3.6 1-6.5 1.5-6.5s1.5 1 2.3 2.2m-307.4 3c0 1.2-2.5.9-3.8-.4a4 4 0 0 1-1.2-2.5q-.2-1.6 2.5.4c1.3 1 2.5 2.1 2.5 2.5m280-1.2q0 .9-1 1a1 1 0 0 1-1-1q.1-1 1-1t1 1m32 10.5c0 1.4-.4 2.5-1 2.5-1.1 0-1.4-3.3-.3-4.3 1.1-1.1 1.3-.8 1.3 1.8m-12.9 4.1c.8 6.2 1.4 7.4 4 7.4q2 .1 1.9-2.6-.1-2.9 1.6-2c.9.3 3.3.6 5.5.6q4 0 3.9 1.5c0 1.7-2.7 2-5 .5q-1.4-.8-2.7.2c-1.9 1.6-1.6 3.6.7 4.3 3.2 1 2.4 3.9-1.3 5.3-4.9 1.8-6.4 1.5-10.6-1.9-3.7-2.9-3.9-3.3-3.9-8.9 0-3.2-.3-6.4-.7-7-.9-1.5 1.3-3.1 4-2.8 1.6.3 2.1 1.3 2.6 5.4m32.9 9.8c0 13.3 7.4 30.7 17.5 41a290 290 0 0 0 29 26.6c1.1.4 4.2 2.4 6.8 4.4 2.6 1.9 7 4.8 9.9 6.4 2.9 1.5 7.1 4 9.3 5.4 6.6 4.1 22 8.3 44.8 12.2 8.7 1.5 12 3.6 11.5 7.5-.3 2.6-2.8 3.7-21.9 9-7.4 2.1-10.2 2.5-12.4 1.8q-2.8-1-12.4.3a211 211 0 0 1-43-.1c-2.8-.6-17-1.2-31.8-1.4-14.7-.1-28.7-.6-31.1-1-3.2-.5-4.9-.3-6.8 1-2.2 1.4-4 1.6-11 1l-8.4-.7-3.2 3.6q-5 5.8-6.5 2c-.5-1.5-1.9-1.6-10.5-1-9.1.6-9.8.5-9.8-1.2s1.1-2 8.9-2.5c8.1-.5 13.1-2 13.1-3.9 0-1.3-2.3-.9-8.6 1.1-6.3 2.1-9.2 1.4-7.5-1.8.6-1 .5-3.2-.1-5.7-1-3.7-.7-5.3 2.7-16 2.1-6.5 5.3-14.5 7-17.9 18.4-34.7 19.8-38.1 21.5-50.4q1.8-13.2 4.4-13.1c.7 0 2.2.7 3.4 1.6q2.3 1.6 6 1c13.5-2 14.2-2.3 14.2-6.6 0-3 3.1-5 7.8-5 1.5 0 3.4-.5 4.2-1 2.6-1.7 3-1.1 3 3.4m12.2 22.8q-1.1 1-1.2.2c0-1.4 1.2-2.6 1.9-1.9q.3.6-.7 1.7m-61.2.8q0 .9-1 1a1 1 0 0 1-1-1q.1-1 1-1t1 1m-2 7.5q-.2 1.3-2 1.5c-2.2 0-2.7-1.5-.7-2.3 2.1-.9 2.7-.7 2.7.8m-53 21.1c0 2.6.8 4.3 3.5 7 4.5 4.5 4.9 7.5.5 4.4-1.7-1.2-3.5-3-4.1-4.1-1.1-2.2-9.5-6.3-11-5.3q-.8.4-.9-.4c0-1.3 2.5-2.2 6-2.2q3 0 3.5-2c1-3 2.5-1.4 2.5 2.6m-4.7 10.7c1.2 1.3 3.4 3.2 5 4.2q4.8 3.1.8 5.5c-3.2 1.6-5.5 1.2-10.5-2.1-4.5-3-4.6-3.2-2.6-4.6 1.1-.8 2-2.3 2-3.4 0-2.6 2.6-2.4 5.3.4m-11.3 1.3q-.1 1.3-1 .9-1-.7-.5-1.6 1.4-2 1.5.7m-25.6 5.6c.9 1.7 1.5 3.3 1.3 3.5-.5.4-15.8-2.5-16.4-3.1-.3-.3 1.5-1 3.8-1.6l5.4-1.5c2.8-1 4.5-.2 5.9 2.7m8.9-.1c.8 1.1 1.3 2.9 1 4-.7 2.6-4 2.4-4.8-.4l-1.1-4c-.8-2.5 3.1-2.2 4.9.4m13.1-.5q1.5.6 1.6 1.5c0 1.4-2.6 1-4-.6q-1.8-2.5 2.4-.9m-4.2 3.1c1.4 1.6 3.2 10.3 2.2 10.3s-8.4-5.3-8.4-6.1q.1-.8 1-1.4c.6-.3 1-1.5 1-2.6 0-2.4 2.2-2.5 4.2-.2m17.8 6.4c1.9 3.5 1.2 14.9-.8 14.9-.4 0-.7-2.6-.8-5.7-.1-3.2-.4-7-.9-8.6-.9-3.3.9-3.7 2.5-.6m-9 1q0 .8-1 .9-.9-.1-1-1.6.1-1.3 1-.9 1 .6 1 1.6m18-1.2c0 1.4-1.8 2.3-3 1.6q-1-.7-.5-1.6c.8-1.2 3.5-1.2 3.5 0m10.8 12.3c1.8 1.8 1.4 3.4-.8 3.4q-2 0-2-2.3 0-3.8 2.8-1.1m-14.6 4.3c-.7 3.8-3.2 6.1-3.2 3.2 0-1.6 3.2-7.8 3.7-7.3.2.2 0 2-.5 4.1m13.9 13c.3 1.5 1.3 2.1 4.2 2.3 2 .2 3.7.6 3.7 1s-1.2 2.5-2.6 4.6l-2.7 3.9-4.8-5.3c-5.3-5.8-5.4-6.2-3.8-10.8l1.1-3.1 2.3 2.7a14 14 0 0 1 2.6 4.7M279 739q0 .9-1 1a1 1 0 0 1-1-1q.1-1 1-1t1 1m210 8.9c0 1.7-.4 3.2-.9 3.6s-2.1 2.9-3.4 5.9a34 34 0 0 1-9.8 11.6c-4.1 3.4-7.9 6.7-8.4 7.4a32 32 0 0 1-12.2 5.6q-2.2 0-2.3-1.5c0-.8-1.3-2.4-3-3.7-1.6-1.2-3-2.7-3-3.4 0-2.3-2.9-3.8-5.3-2.6-1.2.5-3 1.3-4.1 1.6-1.4.5-1.7 1.3-1.2 3.6.6 3.3.4 3.5-2.3 1.8-2.8-1.7-5.5-.3-4.1 2.1 1.4 2.8 1.4 2.8-2.7 2.7-3.4-.1-3.8.2-3.6 2.1s-.3 2.3-4.5 2.9c-4.3.5-4.9.9-5.8 3.8-.8 2.8-1.4 3.2-5.9 3.8-5.6.7-12.5 3.3-12.5 4.7 0 1.2 2.9 4.1 4 4.1q.9 0 1.4-.9c.3-.5 2.9-.9 5.6-.9 2.8-.1 5.5-.4 6-.7q1-.4 1 1.4c0 1 .6 2.2 1.3 2.4q1 .5-.6.6-1.7.3-1.4 1.3.3 1.3 7.5 1.3c4 0 7.2.3 7.2.7 0 1.5-4 2.8-6.5 2.2q-2.6-.7-3.1 1c-.5 1.4-3 1.6-19 1.6-10.7 0-18.4-.4-18.4-.9s.7-1.6 1.5-2.5q1.4-1.4 1.5-2c0-.3 2.4-3 5.3-6 6.9-7.1 8.6-9.2 9.9-12.1 1.2-2.6 8.5-7.5 11.2-7.5 2.2 0 5.4-3 10.6-9.9a27 27 0 0 1 11.5-9.6 51 51 0 0 1 12.5-4.6c.3-.3 4.1-1.5 8.5-2.8a215 215 0 0 0 31.5-10.4c5.6-1 6-.8 6 2.2m5.9 16.8c-.6 1.8-1.4 3.3-1.8 3.3-.9 0-.6-6.6.5-10l.8-2.5.8 3c.4 1.8.3 4.3-.3 6.2m-5.8 4.6c-1.3 1.3-2.1-.5-1.4-3.3l.6-2.4.9 2.4q.8 2.3-.1 3.3m-2.6 4.6c-.2 3.5-1.5 3.6-1.5.2 0-1.8.4-3 .8-2.7q.8.6.7 2.5m8.4-.6c1.7 2.1-.7 4-2.6 2.1-.8-.7-1.1-1.8-.8-2.4q1.3-2.1 3.4.3m-11.7 4.8c-1.2 3-2.5.8-1.6-2.7q.7-3 1.5-1.1c.5.8.5 2.5.1 3.8m-3.7-2.1q.4.9-.4 1-1-.1-1.1-1 0-1 .4-1 .6 0 1.1 1m13 5q.7 1 1.6.5.8-.5.9.4c0 1.3-4.7 1.5-5.4.2-.6-.9.3-2.1 1.5-2.1q.8.1 1.4 1m-15.5 7c0 7-1.3 9.1-2.9 4.8-.8-2.1-.8-2.1-1.5.6-.4 1.5-.4 3.1 0 3.7.3.5.3 1.8-.1 2.7-.6 1.6-.7 1.6-1.6-.1-.6-.9-.8-2.1-.4-2.6q.4-.9-.4-1.5-.9-.3-1.6 2.1-.6 3-1.5 1.2c-.5-.7-.7-2.2-.4-3.2.7-2.2-.5-2.2-2.1 0-1.1 1.4-1.3 1.3-1.9-1.1-.7-2.9.9-7 2.5-6.1q.8.5.9-.5c0-2.3 2.5-.2 3.1 2.6q.8 4.2.8-.9.1-3.9 1.4-3.4c.6.2 1.1 1.2 1.1 2.1q-.1 1.5.7 1.6c.5 0 .9-1.7.9-3.8s.3-4.2.7-4.5c1.7-1.8 2.3-.1 2.3 6.3m-31.3-3.4c.3.9 1.9 2.2 3.6 2.9l2.9 1.2-5.8 3.6c-3.3 1.9-7 4.7-8.3 6.1s-3.1 2.6-3.8 2.6c-2 0-1.3-5.5.7-5.6 3.5-.2 4-.5 4-1.8 0-.7-1-1.7-2.2-2.1-2-.7-1.9-.8 1.2-1.2 9.6-1 10.9-3 2.3-3.5l-5.8-.3 4.5-1.7c5.8-2.1 5.9-2.1 6.7-.2m42.3 3q0 1.3-1 .9c-.5-.3-1-1.3-1-2.1s.5-1.2 1-.9 1 1.3 1 2.1m-27.4 12.2c.4 3.7.8 8 .8 9.7l.1 3-12.7.3c-10.6.2-12.8 0-12.8-1.2 0-2.5 1.2-4.6 2.3-3.9q.9.4.3-.6-1.3-2.6 5.3-6c6.7-3.4 9.6-5.1 12.1-7 1.3-1.1 2.8-1.7 3.1-1.5s1.1 3.5 1.5 7.2m4.5 3.2c.1 1.9.2 4.8.1 6.5-.4 5.4-2.2.5-2.2-6 0-6.3 1.7-6.7 2.1-.5m-43.3 1.7c-1 .2-2.6.2-3.5 0q-1.3-.5 1.7-.5c3 0 2.7.2 1.8.5m51.2 1.8q0 1.3-1 1.5-.9-.2-1-1.5c-.1-1.3.5-1.5 1-1.5q1 .2 1 1.5"/><path d="M355.2 173.2c-1.8 1.8-1.4 3.6.9 4.3 2.8.9 4.7-1 3.3-3.2q-2-3.3-4.2-1.1m-40.9 13c-3.7 2.2-4.3 4.7-1.3 5.5q1.8.6 2 1.7c0 .6 1.1 2.4 2.5 3.9 2.6 2.7 7.7 3.7 9 1.7.3-.6 1.5-1 2.6-1 2.8 0 2.1-2.8-1.1-4.5-6.6-3.4-7.7-3.7-9.9-2.6-2.3 1.3-2.8.2-.9-1.7 1.6-1.6 6.9-1.5 9.2.3 2.7 2 3.6 1.9 3.6-.4 0-4.9-9.7-6.7-15.7-2.9m10.7 9.4c0 1.6-1.6 1.9-2.5.4-.8-1.3.4-3.2 1.6-2.5q.8.8.9 2.1m-12.9 15.8q-1 1.5-.2 2c1.4.9 4.1-.4 4.1-2 0-1.8-2.4-1.8-3.9 0M345 223q.1.9 1.5 1c1.4.1 1.5-.5 1.5-1q-.1-1-1.5-1c-1.4 0-1.5.4-1.5 1m-7.4 3.7c-1.1 1.1-.6 2.3.9 2.3q1.4 0 1.5-.9c0-1.3-1.6-2.2-2.4-1.4m-8.2 4.4c-1 1.7 1.3 3.6 2.7 2.2 1.2-1.2.4-3.3-1.1-3.3q-.9.1-1.6 1.1m-170.3 56.5q0 1.7.6.6.4-1.2-.1-1.9-.6-.5-.5 1.3m16.6 11q-.6.8-.7 2.3 0 1.6 1.1.4 1-1 .7-2.3-.4-1-1.1-.4m27.3 17q.1 1.3 1 .9 1-.6 1-1.6 0-.8-1-.9-.9.1-1 1.6m.6 5.2q-.3.8.5 2.2 1 1.8.9-.8 0-3.5-1.4-1.4m22 21.7q-.4 1.4.4 1.5c1.3 0 2.2-1.8 1.1-2.4q-.8-.4-1.5.9m-.7 68.1c-1 1.3-1 1.7.2 2.5q3.1 1.9 3.7-1.9c.4-2.6-1.9-3-3.9-.6m-20.5 5.9c-.7 1.8.3 3.5 2.1 3.5 2.1 0 2.8-1.9 1.5-3.5q-2.5-2.8-3.6 0m-8 2c-.8 2.1.3 4.5 2 4.5 2 0 2.9-1.6 2.1-4-.7-2.3-3.3-2.7-4.1-.5m9.6 21q-1.4 1.6-.3 2.6c1.7 1.7 4.8.6 4.8-1.6 0-2.5-2.8-3.1-4.5-1m-32.6 11c-.8 1.9.3 3.5 2.5 3.5s4.5-2.5 3.6-4-5.5-1.2-6.1.5m-1.3-30.6c-1.7 1.1-.7 4.1 1.3 4.1 2.2 0 3-2 1.5-3.6q-1.4-1.2-2.8-.5M305 474.7c-3.8 1.6-7 4.1-7 5.4q.2.9 1.8 1.8c1.4.8 2.9.3 6.3-2 2.4-1.6 5.4-2.9 6.5-2.9 2.3 0 4.8-2.3 3.7-3.3-1.1-1.2-7.7-.6-11.3 1m42.2 39.5c-.9.9-.4 2.1 2.1 5.2 1.8 2.3 4.3 5.7 5.4 7.6 3.1 4.9 11.9 13.4 13.2 12.6q2.8-1.7-2-6.2a33 33 0 0 1-5.4-7.4c-2.5-4.7-9.6-13-11.2-13q-.9 0-2.1 1.2M14 575.7c0 .4.5 1.5 1 2.3q1.1 2 1-.2c0-.9-.4-2-1-2.3q-.9-.5-1 .2m265.5 25.4c-.9 1.3 2.1 9.3 4.1 11 1.2 1 1.6.9 2.1-1q.4-2.5 2-.9c1.2 1 1.8.9 2.9-.6 1.1-1.6 1.6-1.7 2.9-.6 1.9 1.6 3.9.1 3.3-2.6q-.3-1.8-2.8-2c-1.4 0-3.4-.4-4.4-.9q-1.9-.9-3.1.9c-1.1 1.5-1.4 1.3-2.5-1.4-1.3-3-3.3-3.9-4.5-1.9M209.1 68.9c-1.6 2.8 1.1 4.8 4.4 3.3 2.8-1.3 3.3-3.2 1-3.2q-1.4-.1-1.5-1c0-1.7-2.9-1.1-3.9.9m1.4 56.4a10 10 0 0 0-1.3 4.8c.3 2.1-.1 2.4-2.9 2.5-3.7 0-6.3 1.9-6.3 4.4 0 2.3 1.5 2.8 6.2 2.2 2.8-.3 4.7-1.4 7.3-4.3 3.7-4.2 4.1-5.3 2.5-9.3-1.2-3.2-3.5-3.3-5.5-.3m270 340.7q-.4.9.4 1 1-.1 1.1-1 0-1-.4-1t-1.1 1m4.1 1.7c-1.1 1.1-.6 2.3.9 2.3q1.4 0 1.5-.9c0-1.3-1.6-2.2-2.4-1.4m-18.8 3.4c-2 2.1-2.3 3.9-.8 3.9q1-.1 1-1.4c0-.7.9-1.6 2-1.9q1.8-.6 2-1.6c0-1.7-2.3-1.2-4.2 1m-93.2 1.1c-1.7.9-1.6 1.2 1.2 4.2 1.6 1.7 4.1 4.8 5.7 6.8 2.9 4 5.2 4.8 6.1 2.3.7-1.7-1.5-5.5-5.5-9.8-3.6-3.9-5.3-4.7-7.5-3.5M70 473.9c0 .5.5 1.3 1 1.6q1 .5 1-.4a2 2 0 0 0-1-1.6q-.9-.5-1 .4m421.8 3.6c-2.5 3.3-2.3 3.6 1.2 1.8 2.5-1.2 2.9-1.8 1.9-2.9-1.4-1.7-1.1-1.8-3.1 1.1m-428.2-.1c.3.9 1.1 1.6 1.6 1.6 1.3 0 .5-2.3-1-2.8q-1.1-.3-.6 1.2m3.4 4q.1 1.5 1.6 1.6c1.7 0 1.4-2.2-.4-2.8q-1.1-.2-1.2 1.2m61 .1a8 8 0 0 0 1 3.5q1.1 2 1-.5a8 8 0 0 0-1-3.5q-1.1-2-1 .5m362.5 1.5c-1 1.6.4 3 3.1 3s2.4-1.4-.6-3q-2-1-2.5 0m-414 1c.3.5 1.1 1 1.6 1q.9-.1.4-1a2 2 0 0 0-1.6-1q-.9 0-.4 1m422.6 3.6q0 1.7.6.6c.3-.7.2-1.6-.1-1.9q-.6-.5-.5 1.3M19 488q-1.3.9-.7 1.6c.4.4 1.5 0 2.4-.9 1.8-1.8.8-2.3-1.7-.7m105 .1q.1.8 1 .4 1-.6 1-1.1 0-.4-1-.4-.9.1-1 1.1m369.3 3.6c-1.8.7-1.6 3.3.2 3.3q1.4 0 1.5-.4l.6-2q1-2.4-2.3-.9M126 493q.1.9 1.1 1 .8-.1.4-1t-1.1-1q-.3 0-.4 1m-110.5 2c-1.5 1.7-1.6 2-.3 2 .9 0 1.9-.7 2.2-1.6q1.3-3.8-1.9-.4m-3.9 3.5c-.6 1.7 1.9 3.9 3.4 3q.9-.6 1-1.9c0-1.8-3.7-2.7-4.4-1.1m486.1 8.5c-.9 1.3-1.4 2.7-1.1 3.2.7 1.2 3.4 1 3.4-.3q-.2-.8-1.2-.3-1.4.9 0-.9c.8-.9 1.2-2.2 1-2.9q-.5-1-2.1 1.2M108 526.9q.1 1 1 1.6 1 .4 1-.9 0-1.5-1-1.6-.9 0-1 .9m383.8 2.2q.3 3.3 1.7 1.9c2.4-2 2.4-4.5 0-4.6-1.8-.1-2.1.3-1.7 2.7m5.2 2.1c0 .7.8 2.2 1.6 3.3 1.5 1.9 1.5 1.9 1.2-.9-.3-2.9-2.8-5.1-2.8-2.4m-89 45.4q-1.6 1.5.8 1.4c2.5 0 3.7-1.6 1.8-2.3-.8-.3-2 .1-2.6.9m90 29.5q0 1.2-4.1.6l-4.1-.5 2.8 2.9c2.6 2.7 2.8 5.7.2 3.1-3.3-3.3-3.8.1-.5 3.6q2.2 2.5 1 2.9-2.8 1.1.8 5.7c1.1 1.4 1.6 2.6 1 2.6q-1 .2-1.1 2c-.1 1.8.5 2 1 2 1.3 0 1.3 2.6-.1 5.1-.8 1.6-1.3 1.8-2.5.8-1.8-1.5-1.8-3 .1-2.3 2.5 1 1.7-2.2-1-4-2.9-1.9-3.3-3.6-.8-3.6 1.6 0 1.6-.1.1-1.6-.9-.9-2.4-1.4-3.2-1.1-1.8.7-2.2 5.2-.6 6.2q.9.8.6 2.3c-.3 1-.2 2.2.2 2.7a41 41 0 0 0 12.2 7.6q-.2-.8-1.5-1.5-1.4-.5-1.5-1.7.1-1 1.5-.5 1.5.6 1.5-1.5c0-1.1-.7-3.6-1.5-5.6-1.9-4.4-1.9-4.7 0-3.9 1.2.4 1.4-.4 1.4-4.4-.1-4-.5-4.9-2.3-5.4l-2.1-.6 2.3-1.9c1.7-1.5 2.2-3 2.2-6.5 0-2.5-.4-4.6-1-4.6q-.9.1-1 1.1m-12 2.9q.1.9 1 1 1-.1 1-1t-1-1a1 1 0 0 0-1 1m-39.9 2.6q0 1.7.6.6.4-1.2-.1-1.9-.6-.5-.5 1.3m1.9 5.4q.1.9 1.1 1 .8-.1.4-1-.6-1-1.1-1-.4 0-.4 1m-176.9 1.4c-1.7 2-1 6.7 1.1 8q4 2.3 3.1-5.2-1-6.5-4.2-2.8m127.9 4.1q1.2 1.4 1.7 1.1c.7-.7-.7-2.6-1.9-2.6q-1 0 .2 1.5m-30 9.5q.1.9 1 1 1-.1 1-1t-1-1a1 1 0 0 0-1 1m7 .9q0 2.1 1.5 1.4c1.7-.6 1.5-2.5-.3-3.1q-1.1-.2-1.2 1.7m112 8.4c0 .9 1.7 3.2 3.8 5.2s3.3 3.5 2.7 3.4c-3.2-.5-3.6.2-1.5 3.1 2.2 3.1 2 6.5-.3 5.8a7 7 0 0 1-2.2-2.6c-1.5-3.5-2.7-2.6-1.9 1.5.7 3.5.6 3.7-1 2.4q-1.6-1.4-1.2-3.7c.4-1.3.2-2.6-.4-2.9q-.9-.4-1 1.4-.1 2-1 2.1c-1.1 0-1.4-.7-2.4-5-.3-1.4-1-3.2-1.5-4-1.6-2.4-2.4-.4-1.3 3 1 2.7.9 3-.6 2.8-2.6-.5-2.7 8.5 0 14.4 1.8 4 1.9 5.2 1 7.3-1.8 3.9-1.5 7.6.6 8.2 1.8.4 5.2 9.2 5.2 13.3q.2 1.8 1.5 2c1.8 0 1.8.1.5 3.5-.9 2.3-1.3 2.5-2.5 1.5-1.3-1.1-1.5-.7-1.5 2.3 0 2 .5 3.9 1.1 4.3s.8 1.6.5 2.9c-.4 1.7.2 3.1 2.6 5.4q5.7 5.7 4.4.3c-2.4-9.7-1.3-10.9 2.4-2.5q2.1 4.8 3.1 3.6 1.1-1-.1-3.3c-1.1-2.1-1-2.2.9-1.7q2.3.7 2.1-1.5.1-2.2-2-1.5c-1 .3-2.5-.1-3.1-.9-1.6-1.9-.4-3 1.6-1.4 1.3 1.1 1.4.5.9-4.1l-.8-7.9c-.1-1.4-.8-3.9-1.5-5.5a72 72 0 0 1-3.3-14.9c-.3-2.2 2-3.4 2.6-1.4.3.7.7 3 1.1 5.1.3 2.1 1 3.5 1.6 3.2 1.2-.8 1.2-5.2 0-6-.5-.3-1.2-1.8-1.6-3.4q-.6-3.1-2.4-2.4c-1.4.3-2.1-.4-3-2.8-1.4-4-1.4-4.9-.1-4.9.6 0 1.5 1.1 2 2.5s1.6 2.5 2.4 2.5 2.3.3 3.3.7q2 .9.7-.8c-.6-.8-1.1-3-1.2-4.9-.2-1.9-.5-4.3-.8-5.3q-.4-1.5.5-1.7c.5 0 1.5.8 2 1.7q1.1 2.4 1.1-1.8c0-1.9-.6-4.1-1.2-4.7-1-1-1-1.4 0-2.1q1.6-.7-2-3.5l-6-5.3q-3-3-2.8-1m-7.2 17.2c.7 1.4 1.2 3 1.2 3.5 0 1.7-1.7 1.1-2.3-.8-.2-.9-.8-2.5-1.2-3.5-1.1-2.7 1.1-2 2.3.8m6.2 6.2c0 3.7-2.4 2.2-2.8-1.7-.3-3-.2-3.2 1.2-2.1.9.8 1.6 2.5 1.6 3.8m9 .5c0 3-2.5 1.5-2.8-1.7-.3-2.5-.2-2.7 1.2-1.6a5 5 0 0 1 1.6 3.3m-8 7.4q0 1.3-1 .9-.9-.6-1-1.6.1-.8 1-.9 1 .1 1 1.6m-2.8 4.9c.3 1.4.2 2.5-.1 2.5-1.1 0-3.2-4.1-2.6-5.1.9-1.4 2.2-.2 2.7 2.6m-4.7 1.5q.4.9-.4 1-1-.1-1.1-1 0-1 .4-1t1.1 1m9.5 3.1q0 1.8-1 1.4c-.5-.3-1-1.3-1-2.1s.5-1.4 1-1.4q1 .1 1 2.1m2.4 5.4c.3.8.3 2.1 0 2.9s.4 4.2 1.5 7.6c2 6 2 9.3-.1 7.2-1.6-1.6-5-16.9-4.1-18.5.7-1.2 2-.8 2.7.8m-3.4 20.1q0 2.7-1.7 2.2-1.5-.4-2.1-1.6-.3-1.1 1.2-.6 1.6.6 1.6-1 0-1.5.5-1.6c.5-.1.5 1.2.5 2.6m-.2 7.3q.4 1.3-.9.9-1.2-.5-1.7-1.7-.4-1.3.9-.9 1.2.5 1.7 1.7m-75.8-65q0 1 1 1.6.9.4.4-.9-1.2-2.7-1.4-.7m-3.4 5c-.4.5-.2 2 .3 3.3.9 2.1 1 2.1 1-1q.2-4.7-1.3-2.3m-14.8 2.6c-.3 1.4-.1 2.8.3 3.1s.9-.9.9-2.5q-.2-5.7-1.2-.6"/><path d="M405.4 659.5c1.3 9.2 2.3 13.5 3.5 14.9q1.3 1.4.1 2.1-1 .6.3 3.3c2.1 4.1 3.7 9.4 3.1 10.3-.3.5-1.5.4-2.7-.1q-2.6-1.3.3.7c1.4 1 3.8 3 5.3 4.5 1.6 1.6 3.3 2.8 3.8 2.8 1.5 0 1-1.8-1.2-3.9-1.1-1-2.5-3.6-2.9-5.7-.9-4-.5-5.8.9-3.6.4.7 1.5 1 2.5.6 1.8-.7 3.6.9 3.6 3.4q0 1.3-2.1.7-2.2-.7-1.7.6a3 3 0 0 0 2.4 1.7c3.4.6 5.9 5.2 2.8 5.2-2.5 0-1.2 3.5 1.4 3.6 1.2.1 3.2 1 4.3 2 2.3 2 3.2 2.3 10.7 2.8 5.5.4 6.3-.4 3.8-3.7a6 6 0 0 0-3.8-1.7c-2.6 0-3.9-2-5.4-8.3-.7-3.2.9-3.6 3.8-1 2 1.8 3.7 1.1 2-.9-.5-.7-1-2.4-1-3.8-.1-4.1-1-9.7-2.1-13.2-.6-1.8-1.1-5.1-1.2-7.3q-.5-8-3.6-6.8c-1.4.5-1.4.8-.1 1.7a5 5 0 0 1 1.6 3.1 73 73 0 0 0 2.5 15.1q.5 1.2-.7 2.4-2.7 2.4-6.1-9l-2-6.5c-.7-2.1-.3 7.2.4 11.8.4 2.6.5 5 .1 5.2-1.2.7-3.3-2.3-2.5-3.5s-1.4-4.2-2.6-3.5q-.7.6-.2 2 .4 1.5-1.1 1.5c-.9 0-1.9-.7-2.2-1.5q-.8-1.3-2.9-1.5c-1.9 0-2.3-.7-2.8-4.8-1-6.8-1.2-8.1-2-8.8-1-1-.9 3.6.2 7.4 1.3 4.3-.6 4.3-2.3-.1-.8-1.7-1.7-5-2-7.2-1-5.6-3-8.4-2.2-3m13.4 19.7q1.1 1.3 1.2 3.1c0 1.7-.2 1.7-2.8-.5q-2.8-2.3-1.8-3c1.5-1 2-1 3.4.4m17.3 4.8c2 1.1 2.7 4.4.7 3.8-1.3-.5-4.4-4.8-3.4-4.8.4 0 1.6.5 2.7 1m-6.1 2.5c.7.8 1 2.1.7 2.9s.1 2 .9 2.6c1.5 1.4 1.9 4 .5 4q-.9-.2-2.1-1.5t-2.2-.9c-1 .7-3.8-1.4-3.8-2.8q.2-.9 2.6-.4c2.1.6 2.5.4 2-.8l-1.2-3.1c-.8-1.9 1-1.9 2.6 0m0 11.5q1 1.8.2 2c-1 0-3.2-2.1-3.2-3.2 0-1.6 1.9-.8 3 1.2m4.5 2q2.3 2.4.3 1.5a5 5 0 0 1-2.2-2.1q-1.2-3 1.9.6m6 3q.4.9-.9 1-1.5-.1-1.6-1 0-1 .9-1t1.6 1m-38.4-39c0 6.9 2 16.5 3.8 18.2q1.5 1.7.8-.7c-.3-1.1-1.1-5.8-1.7-10.5-1.6-11.2-2.9-14.3-2.9-7m45.9-3c0 .4 1.1 1 2.5 1.2q2.5.5 2.5-.7c0-.7-1.1-1.3-2.5-1.3s-2.5.4-2.5.8m-9.5 2q.6.9 1.1 1 .4-.1.4-1-.1-1-1.1-1-.8 0-.4 1m8.6.9q-1.4.8-.5 4.2c.8 3.9 1.1 5.8 1.7 11.1.2 2.1.9 4.3 1.5 5s1.3 4.4 1.6 8.2c.6 6.4 3.2 17.6 4.2 17.6.5 0-.1-5.1-.9-7-.7-1.7-2.8-15.6-2.5-16.7a71 71 0 0 1-2.1-18.6c-.1-4.8-.5-5.3-3-3.8m-5.1 1.6q.1 1.5 1.1 1.3 1-.4 1.1-1.3 0-1.2-1.1-1.3-1-.2-1.1 1.3m13 1.5q.1.9 1.1 1 .8-.1.4-1-.6-1-1.1-1-.4 0-.4 1m-12.3 3.3c-1 2.6-.9 9.7.3 15.9a66 66 0 0 0 5.2 17.8q1.7 0-.4-4.5c-.9-2-.9-3.1 0-4.5q1-1.8.2-2.5c-.8-.5-1-1.5-1-6.8 0-1.2-.7-4.5-1.5-7.2s-1.6-6.1-1.7-7.5q-.2-3-1.1-.7m14.3.1 1.5 3.2c1.5 2.9 2.2 1.3.9-2-.5-1.4-2.4-2.3-2.4-1.2m-168.4 7.5c-.7 1.1 2.5 3.5 6.2 4.6 2.4.7 4.3-1.8 2.6-3.5-1.5-1.4-8.1-2.3-8.8-1.1m166.1 1.8c-.8 1.3.3 5.3 1.4 5.3.5 0 .9 2 .9 4.4s.5 4.6 1.1 4.8q1 .3.1 2.9c-1.2 3-.9 7.7.6 10.5.8 1.6 1.8 2 4.1 1.6 2.5-.3 3.2 0 4.2 2.2.7 1.4 1.6 2.6 2 2.6 1.7 0 1.5-2.7-.3-5.3-2-2.8-2.1-6.8-.2-7.4 1-.3 2.2 3 3.9 11.1q.6 3 1.6 1.9 1-1-.1-6.9l-1.3-7.8c-.2-2.3-2.7-3.4-2.7-1.2q-.1 1.5-1.9 1.6-2 0-1.9-2.3c-.1-5.8-1.5-11.7-2.9-11.7q-1.4 0-.9 1.7a89 89 0 0 1 2.6 11.8c.5 2 0 4.5-1 4.5-1.7 0-3.9-4.4-4.1-8.5a18 18 0 0 0-.8-5c-.3-.5-.7-2.8-.9-5-.3-4-2.5-7.5-3.5-5.8m8 1q-.6.6-.7 1.7 0 .9 1.2-.2 1-1 .7-1.7-.6-.4-1.2.2m-177 2c-1.2 1.1-.8 1.8 2.4 3.7 3 1.8 5.9 1.6 5.9-.3 0-1-5.1-4.1-6.8-4.1q-.9 0-1.5.7m193.3 4.7q.1 1.5 1 1.6 1 0 1-.9t-1-1.6q-.9-.4-1 .9m18 0c0 .8.5 1.8 1 2.1q1 .4 1-1.4 0-2-1-2.1-.9.1-1 1.4m-17 3.5c0 .5.5 1.3 1 1.6q1 .5 1-.4a2 2 0 0 0-1-1.6q-.9-.5-1 .4M66.5 705.2A299 299 0 0 0 50.8 722c-2.5 3.4-2.7 3.4-5.1 2a85 85 0 0 1-15.9-11.7c-3.8-3.8-5.1-4.4-7.2-3.9-3.8.9-22.6 20.2-22.6 23.2 0 1.3.4 2.4.9 2.4s5.3-4.7 10.8-10.5A64 64 0 0 1 23.2 713c.9 0 2.3 1.1 3.2 2.4a29 29 0 0 0 7.3 6.2c3.2 2.1 9.8 7.5 14.6 12.1A65 65 0 0 0 69.4 748c14 6.8 20.1 7.8 24.9 4l2.6-2.1 6.8 3c3.7 1.6 8 3.3 9.6 3.6s3 1.1 3.3 1.6c.7 1.2-18.6 1.1-30.3-.2-10.4-1.1-14.3-.7-14.3 1.6 0 1.6 1.6 2.1 10.4 3 3.3.4 6.9 1 8 1.5 4.5 1.7-3.8 2.4-14.9 1.2-9.1-1-12.2-1.8-18-4.7a46 46 0 0 0-20.3-5.5c-3.5 0-4.3.3-4 1.6q.1 1.6 8.8 3.9c4.7 1.1 11.9 3.5 16 5.2 6 2.4 9.6 3.1 18 3.6 12.9.8 18.5-.2 21.4-3.7 1.1-1.4 3-2.5 4.1-2.5 6 .2 29.3-1.5 30.8-2.3 2.6-1.3 2-3.7-1-4.3a194 194 0 0 1-28.1-9.1c-4.3-1.8-8.4-1.8-14.1.3-4.6 1.6-4.9 1.6-10.7-.8a100 100 0 0 1-22.1-14.5c-1.8-1.4-3.3-3.3-3.3-4.2 0-2.8 16.7-21.2 19.2-21.2 1.2 0 4-1.9 6.4-4.5l4.3-4.5 3.5 3.8 8.6 9.7c2.8 3.3 5.9 6.4 6.8 6.9s7.8 7.1 15.2 14.5c15.6 15.7 21.4 20.5 23.5 19.7q3.3-1.2-1-4.9c-4.5-3.9-18-17.9-18-18.7s11.2-10 12.2-10c.4 0 2.5 1.8 4.8 4 7.8 7.6 41.7 31 45 31a15 15 0 0 0 4.9-1.1c1.9-.9 4.2-.8 10.2.6 5.4 1.2 9.6 1.5 13.7 1a80 80 0 0 1 27.3 1c2.9 1.2 4 1.3 5.1.3 1.3-1 1.2-1.5-.8-3-2-1.7-4.1-1.9-20.3-1.7a167 167 0 0 1-24.3-1.1 43 43 0 0 0-11-.7c-5.5.6-7.4-.3-22.9-11-5.1-3.4-9.5-6.3-9.8-6.3a56 56 0 0 1-11.6-11.7c0-2.1-4.3-4.3-8.5-4.3-3.3 0-5.3.9-10.7 5-3.7 2.7-7 5-7.5 5-1.3 0-29.3-28.7-29.3-29.9q-.1-1-1.4-1.1c-.7 0-1.9-.7-2.6-1.5s-2-1.5-2.8-1.5c-.9 0-7.5 6-14.7 13.2"/><path d="M70.7 711.2A58 58 0 0 0 63 732c0 6.3 5 3.7 6.9-3.7.7-2.3 2.5-7.4 4.1-11.2 1.7-3.8 3-7.5 3-8 0-2.3-4-.9-6.3 2.1m409.3.9c0 1.5.7 3.2 1.5 3.9 1.9 1.6 1.9 0 0-3.6l-1.5-2.9zM130.9 722c-2.1 1.2-5.3 8.5-4.5 10.5q1.4 4 5.8-4.2c2.2-4 2.5-5.3 1.5-6.1q-1.2-1-2.8-.2m364.6 2q-.4.9.4 1 1-.1 1.1-1 0-1-.4-1t-1.1 1M1.3 754.6c-3.9 1.7 2.7 6.3 9.5 6.5q4.7.1.7.6l-7.3.9-4.3.5.2 12.2q.1 12 1.2 12.9 1.2.8.9 9.6c-.4 10.1.7 12.4 4.6 9.6C8.8 806 9 805 9 796.9v-9l5.3.6 8.2 1c4.5.7 10.8-1.1 12.8-3.6 2.6-3.3 1.7-4.6-4.7-6.9-2.3-.8-2.6-1.3-1.7-2.4 1.4-1.6.8-2.1-3.5-3-1.8-.4-3.4-1.5-3.7-2.5-.4-1.8-5-3.1-11.4-3.1-1.8 0-3.3-.5-3.3-1s1.7-1 3.9-1c7.5 0 12.7-3.5 10.5-7.1-1.6-2.7-16.6-5.9-20.1-4.3m10 18.1c-.7.2-1.9.2-2.5 0q-1-.5 1.2-.5c2.2 0 1.9.2 1.3.5m17.6 9.2c3.3.9 3.7 2.7 1 4.1-1.7.9-4.3.9-11.6 0q-14.7-1.8-3.2-3.9a32 32 0 0 1 13.8-.2m351.1-24c0 1.4 4.1 1.9 19.6 2.5 12.8.4 17.1-.2 14.3-2-2.1-1.3-33.9-1.8-33.9-.5m-257.2 12.4q-9 2-7.4 4.6c1 1.6 4.2 1.3 5.7-.5 1.2-1.4 2.8-1.6 11.9-.9 5.8.4 33.9.9 62.5 1.2l69.5.6c9.6.1 23.8-.1 31.5-.5 15.1-.8 49.2-1.3 69.5-1q16.4.2 13.8-2.3c-.6-.6-22.9-1.8-32.8-1.8-3.6 0-23.1.5-43.5 1.2s-42.2.8-48.5.3-27.2-.5-46.5-.2a798 798 0 0 1-72.5-1.4c-4.1-.3-10.1 0-13.2.7m-81.1 2.4q-.7.6-.7 1.3c0 1 5 3.1 6 2.5 1.3-.8 6.9 1.6 6.4 2.8-.2.7 1.3 2.2 3.4 3.3 3.1 1.8 5.6 2.2 14.2 2.4 18.2.3 22.6.1 35.7-1.5 13.7-1.7 18.3-2.9 16.6-4.6q-1-1-10.4.1a313 313 0 0 1-42.9 2c-7.9-.5-8.5-.6-9-2.9-.5-2.1-1.7-2.8-7.5-4.3-7.5-1.9-10.8-2.2-11.8-1.1m343.8.4c-.8 1.2.5 1.6 7 2.3 5.2.6 9.9-.4 8.5-1.7a48 48 0 0 0-15.5-.6m-203.9 8.7q-.4 1 .4 1.7c1.7 1.1 86 1.6 91 .6 6.2-1.2 4.5-1.3-31-1.5-16.2-.1-36.3-.6-44.6-1-10.6-.6-15.3-.6-15.8.2m165.7.1c-12.6.7-14.6 2.1-3.1 2.1 12.3 0 24.7-1.2 22.3-2.1-2.2-.8-3.9-.8-19.2 0M280 783q-1.9 1.1 1.3 1c1.5 0 2.7-.5 2.7-1 0-1.3-2-1.3-4 0m7.2-.1q-1.7.9.3 1.5c2.5.9 6.5.7 6.5-.4q-.1-1-1.4-1c-.8 0-2-.2-2.8-.5s-1.9-.1-2.6.4m28.8.1c3.6 1.2 7 1.2 7 0 0-.6-2.1-1-4.7-.9-3.9.1-4.3.2-2.3.9m56 0q.1.9 1 1 1-.1 1-1t-1-1a1 1 0 0 0-1 1m-194.5 8.5c-2.9 2-11.4 3-24.5 2.8-36.7-.5-46.4-.3-48 1.2-.9.8-2.1 1.5-2.7 1.5q-1.1.1-2.2 1.4c-1.7 2.1 2.3 4.6 7.4 4.6 2.2 0 8.3.7 13.5 1.5 7.8 1.1 9.7 1.2 10.8.1s1.1-1.6-.3-3c-1.3-1.3-3.8-1.6-11.8-1.7-9.6-.1-10-.1-7.2-1.5 2.5-1.2 7.5-1.3 29.1-.8 24.8.5 26.5.5 35.3-1.7l9.2-2.2 21.7 1.9c17 1.5 28.8 1.8 54.7 1.7 18.2-.2 37.4-.5 42.8-.8 9.5-.6 10-.5 12.3 1.8 3.2 3.2 9.3 4.7 14.2 3.6 2-.5 10.6-.9 19-1s15.2-.4 15.2-.9-7.3-1-16.2-1.4c-22.9-.9-26.5-1.4-27.1-3.7-.4-1.6-1.6-1.9-8.4-2.1l-9.8-.1c-28.1.9-48 1.6-52 1.9-5.7.4-32.3-1.3-40.5-2.6-3-.5-11.6-1.2-19-1.4-10.7-.4-13.9-.3-15.5.9"/><path d="M14.7 792.7c-1.7 1.7-.6 3.4 2 3.1 3.6-.4 4.5-3.8 1-3.8-1.3 0-2.7.3-3 .7m69.9 43.2c-.3.4.3 1.6 1.4 2.6 1.8 1.6 1.9 2.9 1.6 16.2-.3 15.9-.2 16.3 5.6 14.7l3-.9-.1-13.4c-.2-11.3.1-13.6 1.5-15.2q4-4.5-6.6-4.8c-3.2 0-6.1.3-6.4.8"/><path d="M111.3 836.8c-13.2 4.5-17.3 22.1-6.9 29.5 2.6 1.8 4.4 2.2 11.3 2.2 4.5 0 8.6-.5 9.2-1a18 18 0 0 0 1.3-6.5l.3-5.5H119c-6 0-7.5.3-7.5 1.5q.1 1.5 3.2 1.8c1.9.2 3.7 1.1 4.3 2.1 1.2 2.4.4 3.1-3.5 3.1-2.9 0-3.4-.5-4.9-4.3-2.9-7.7-1.9-15 2.4-17.2 2.4-1.2 3-1.2 5.6.6 3.7 2.4 4 2.4 5.9-.5 1.3-1.9 1.4-2.9.6-4.4-1.3-2.5-8.6-3.3-13.8-1.4m42.9-.8c-1.8.8-2.1 1.3-1.3 2.8.5 1 .6 3.3.2 5.2-.6 3.3-.9 3.5-4.6 3.5h-4l-.5-5.5-.5-5.5-4.4-.3q-8.2-.6-6.3 2.1c1.6 1.9 1.8 25.3.2 27.2q-1.1 1.4-.9 2c1.2 1.1 8.8 2.1 10.8 1.4 2.1-.8 2.2-1.2 1.6-7.3-1-8.7-.2-10.6 4-10.6 1.9 0 3.7.5 4.1 1.1s.6 4.2.5 7.9q-.2 6.7 1.1 7.7c1.5 1.3 10.8.5 10.8-.8q-.1-.8-1.5-.9c-1.3 0-1.5-2.1-1.5-13.3q0-13.3 1.2-14.5 1-1 .6-1.7c-1.1-1.1-7.4-1.4-9.6-.5m127.6.1q-1.6.9.8 2.3c3 2.1 4.8 6.9 4 10.8-1 5-4.3 11.6-4.9 9.8-4.2-12.7-5.5-17.9-5.1-19.6.5-2 0-2.2-6.1-2.9q-12.3-1.4-6.2 3.9c1.5 1.4 2.7 3.1 2.7 3.9 0 1.5 6.3 17.4 9.1 22.8q2.8 5.8 6.4 4.3c1.4-.6 6.5-10.5 6.5-12.8 0-.7.6-2 1.3-2.9 1.1-1.6 1.7-1.1 5.4 4.6 6.8 10.4 12.7 11.5 16.4 3.2 1.1-2.4 2.4-4.7 3-5 .5-.4.7-1.5.4-2.4a38 38 0 0 1 6.5-17.3c1.8-1.5 1.9-1.8.5-2.6-1.7-.9-10 0-11.3 1.2q-.5.8.9 1.7c1.5.8 1.3 1.8-1.5 10.4-1.7 5.2-3.5 9.5-4.1 9.5-.9 0-9.6-14.1-10.2-16.5s1.9-4.1 6.5-4.4q1-.2 1.2-1.5c0-1.2-2-1.5-10.4-1.4a62 62 0 0 0-11.8.9m48.2.1q-3.4 1.1-.8 3.6c.9.9.7 2-.5 4.9-.9 2.1-2.8 7.6-4.3 12.3a44 44 0 0 1-4.1 10.2c-1.3 1.5-1.3 1.8-.2 2.2 3.6 1.1 7.5 1.3 9.2.4 1.8-.9 1.8-1.1.2-2.8-1.6-1.8-1.6-2.2 0-7.1l1.7-5.2 6.6.7c3.6.4 6.8.9 7.2 1.1s1.3 2.3 2 4.6c1.3 3.8 1.2 4.2-.5 5.5-3.7 2.8-.3 3.8 13.1 3.8 13.5.1 17.1-1 11.7-3.6l-2.8-1.4.4-8.9c.1-5 .5-9.2.7-9.4.8-.9 4.1 3 6.3 7.4 2.8 5.7 11.7 15.5 14.1 15.5 3.2 0 3.8-2.3 4.3-16.5.2-7.7.8-14.8 1.2-15.8.6-1.5.1-1.7-4.3-1.7-6.6 0-8.4.7-7.3 2.8 1.3 2.6 2.3 16.2 1.1 16.2-.5 0-1.7-1.5-2.6-3.3s-3.6-5.9-6-9.3l-4.3-6h-7.2q-7.2.1-7.7 1.3-.2 1.2 1.2 1.3a3 3 0 0 1 2.2 1.2c1.1 1.8.5 26.1-.7 27.3-1.8 1.8-4.2-1-5.9-7.1-3-10.7-9-23.4-11.4-23.9a34 34 0 0 0-12.6-.3m10.2 9.3c1.2 2.4 1.9 4.7 1.6 5-.3.4-2.2.3-4.2 0-3.9-.8-4.5-2.4-2.4-7 1.6-3.5 2.5-3.2 5 2m59.8-9.6c-1.3.9-1.2 1.3.7 2.6 2.2 1.5 2.2 2.1 2 16l-.2 14.5 5.2 1c18.2 3.8 31.2-10.3 24.4-26.4-1.2-2.7-3.1-5-4.8-5.9a78 78 0 0 0-27.3-1.8m22.5 6.4c2.4 2.4 3.5 4.6 4 7.9q2 12.8-8.3 15.8-6.2 1.7-6.3-5.8l-.3-11.7c-.2-4.4-.2-8.3.1-8.8.2-.4 2-.7 4-.7 2.6 0 4.3.8 6.8 3.3"/><path d="M444.3 835.8c-1.2.2-3.4 1.7-4.8 3.4-2.1 2.4-2.5 4-2.3 7.2l.3 4.1 8.4.1c7.9.1 8.6.2 10.8 2.8 2.7 3.2 3 8.1.8 11.3-1.4 1.9-2.2 2.2-6.8 1.7-2.9-.3-5.3-.9-5.5-1.3q-2.7-7.9-9.9.8l-3.2 3.9 12.2-.3c18.3-.3 20.7-1.5 20.7-10.2 0-4.7-.4-5.9-3-8.5-2.9-2.9-3.4-3-8.9-2.4-6.8.8-8.4-.4-7.9-5.6.2-2.8.7-3.4 3-3.6s3 .2 4 2.2c2.1 4.7 7.1 2.8 6.6-2.5l-.3-3.4h-6c-3.3 0-7 .1-8.2.3m-274.1 1.4c-1.7 1.7-1.5 6.8.4 7.5.8.3 2.5-.4 3.9-1.7s3.1-2 4.2-1.8c1.6.3 1.8 1.5 1.8 14.1V869h5.3c5.7 0 6.1-.6 4.1-5.7-.6-1.7-.8-6.3-.3-12.5.6-8.8.9-9.8 2.6-9.8 1.1 0 2.8 1 3.7 2.2l1.8 2.1 2.2-2.2c1.3-1.3 2.1-3.2 1.9-4.4-.3-2.1-.7-2.2-15.4-2.4-10.4-.2-15.4.1-16.2.9M3 838q.2 1 2.3 1.9c2.2.9 2.3 1.2 2.2 14.3 0 9.9-.4 13.9-1.4 15.1q-2.8 3.6 6.5 1.9c3.6-.6 4.8-1.2 4.5-2.3a40 40 0 0 1-.9-7c-.3-4.2 0-6 1.3-7.2q1.5-1.6 2.3-1.6c.4 0 2.7 3 5.1 6.6 3.5 5.3 4.2 7 3.3 8.4q-.9 1.5-.6 2.2c.7.7 26.3-.1 27.5-.9 1.5-.9 1-2.1-1.1-2.7-1.8-.5-2-1.4-2-11.6 0-6.1.4-11.1.8-11.1s1.6 1.5 2.5 3.2c3.5 6.6 11.8 19.3 13.4 20.5 2.2 1.7 6.9 1.7 8 0 .4-.6.8-6.8.9-13.7s.4-13.5.8-14.8c.7-2.1.5-2.2-3.9-2.2-4.1 0-4.6.2-4 1.7 1.2 2.8 1.7 17 .7 17.7-.5.3-3.3-3.3-6.2-7.9a84 84 0 0 0-6.4-9.4c-.6-.5-4.4-1.2-8.3-1.6-6.4-.6-7.3-.5-7.3.9 0 .9.7 1.9 1.5 2.2 1.2.5 1.5 2.9 1.5 13.3 0 13.4-.5 15.1-4.6 15.1-1.7 0-4.2-2.6-9.8-10-4.2-5.6-7.6-10.4-7.6-10.8 0-1.1 7.2-6.6 9.3-7.2 2.3-.6 2.4-2.4.2-2.8-2.9-.6-8.5.8-8.5 2.1s-7 8.7-8.3 8.7c-1.6 0-.6-6.8 1.3-8.5 1.1-1 1.7-2.2 1.4-2.6-.8-1.3-16.4-1.1-16.4.1m227.3 4.5q-7.6 3.3-.4 13.3c1.1 1.5 2.6 4.8 3.2 7.3 1.1 4.1 1 5-.4 7.3-1 1.4-2.4 2.6-3.2 2.6q-1.4.1-1.5 1.3c0 1.9 2.1 3.7 4.3 3.7q2 .1 1.4-2-.6-2 3-4.6c3.4-2.6 3.5-2.9 3.1-7.9-.4-5.2-.4-5.3 2.4-5.9 3.1-.6 3.6-2.9 1.4-5.9q-2.3-3-6.5-.5c-1.5.9-2.3.9-3.6-.2-2.3-1.9-1.5-5.4 1.3-5.8 2.5-.4 3-2.7.6-3.6l-1.7-.6zm-16.6 14.9c-5.1 2.3-6.1 6.2-2.6 9.7 1.8 1.8 2.8 2 7.2 1.4 6.3-.8 7.7-1.9 7.7-6 0-5.8-5.5-8.1-12.3-5.1m5.3 4.1c.7.8.9 2.2.6 3.1-.6 1.5-.8 1.5-2.6-.1-1.1-1-2-2.4-2-3.2 0-1.8 2.5-1.7 4 .2m252.7 2.2c-1.4 1.4-.7 6.3.9 6.3 1.9 0 5.7-1.9 6.6-3.4 1.6-2.5-5.3-5.2-7.5-2.9"/></svg>